# AFL Fuel Canopy V1 ceiling, generated by tools/build-fuel-canopy-v1.mjs
mtllib ceiling.mtl
o ceiling_soffit
usemtl fuel_canopy
v 0 0 0
v 1 0 0
v 1 0 1
v 0 0 1
v 0 0.0375 0
v 1 0.0375 0
v 1 0.0375 1
v 0 0.0375 1
v 0 0 0
v 1 0 0
v 1 0.0375 0
v 0 0.0375 0
v 0 0 1
v 1 0 1
v 1 0.0375 1
v 0 0.0375 1
v 0 0 0
v 0 0 1
v 0 0.0375 1
v 0 0.0375 0
v 1 0 0
v 1 0 1
v 1 0.0375 1
v 1 0.0375 0
vt 0.81665 0.998779
vt 0.701416 0.998779
vt 0.701416 0.883545
vt 0.81665 0.883545
vt 0.468018 0.063721
vt 0.468018 0.059399
vt 0.583252 0.059399
vt 0.583252 0.063721
vt 0.584717 0.063721
vt 0.584717 0.059399
vt 0.699951 0.059399
vt 0.699951 0.063721
vt 0.701416 0.063721
vt 0.701416 0.059399
vt 0.81665 0.059399
vt 0.81665 0.063721
vt 0.93335 0.059399
vt 0.93335 0.063721
vt 0.818115 0.063721
vt 0.818115 0.059399
vn 0 -1 0
vn 0 0 -1
vn 0 0 1
vn -1 0 0
vn 1 0 0
f 4/1/1 1/2/1 2/3/1 3/4/1
f 11/5/2 10/6/2 9/7/2 12/8/2
f 16/9/3 13/10/3 14/11/3 15/12/3
f 20/13/4 17/14/4 18/15/4 19/16/4
f 23/17/5 22/18/5 21/19/5 24/20/5
o ceiling_roof
usemtl fuel_canopy
v 0 0.0375 0
v 1 0.0375 0
v 1 0.0375 1
v 0 0.0375 1
v 0 1 0
v 1 1 0
v 1 1 1
v 0 1 1
v 0 0.0375 0
v 1 0.0375 0
v 1 1 0
v 0 1 0
v 0 0.0375 1
v 1 0.0375 1
v 1 1 1
v 0 1 1
v 0 0.0375 0
v 0 0.0375 1
v 0 1 1
v 0 1 0
v 1 0.0375 0
v 1 0.0375 1
v 1 1 1
v 1 1 0
vt 0.818115 0.883545
vt 0.93335 0.883545
vt 0.93335 0.998779
vt 0.818115 0.998779
vt 0.11792 0.88208
vt 0.11792 0.771167
vt 0.233154 0.771167
vt 0.233154 0.88208
vt 0.234619 0.88208
vt 0.234619 0.771167
vt 0.349854 0.771167
vt 0.349854 0.88208
vt 0.351318 0.88208
vt 0.351318 0.771167
vt 0.466553 0.771167
vt 0.466553 0.88208
vt 0.583252 0.771167
vt 0.583252 0.88208
vt 0.468018 0.88208
vt 0.468018 0.771167
vn 0 1 0
vn 0 0 -1
vn 0 0 1
vn -1 0 0
vn 1 0 0
f 29/21/6 32/22/6 31/23/6 30/24/6
f 35/25/7 34/26/7 33/27/7 36/28/7
f 40/29/8 37/30/8 38/31/8 39/32/8
f 44/33/9 41/34/9 42/35/9 43/36/9
f 47/37/10 46/38/10 45/39/10 48/40/10
