# AFL Fuel Canopy V1 column head (under the canopy), generated by tools/build-fuel-canopy-v1.mjs
mtllib column_head.mtl
o column_head_head_collar
usemtl fuel_canopy
v 0.1975 0.9125 0.251553
v 0.1975 0.9125 0.748447
v 0.251553 0.9125 0.8025
v 0.748447 0.9125 0.8025
v 0.8025 0.9125 0.748447
v 0.8025 0.9125 0.251553
v 0.748447 0.9125 0.1975
v 0.251553 0.9125 0.1975
v 0.19375 0.91625 0.25
v 0.19375 0.91625 0.75
v 0.25 0.91625 0.80625
v 0.75 0.91625 0.80625
v 0.80625 0.91625 0.75
v 0.80625 0.91625 0.25
v 0.75 0.91625 0.19375
v 0.25 0.91625 0.19375
v 0.19375 0.95875 0.25
v 0.19375 0.95875 0.75
v 0.25 0.95875 0.80625
v 0.75 0.95875 0.80625
v 0.80625 0.95875 0.75
v 0.80625 0.95875 0.25
v 0.75 0.95875 0.19375
v 0.25 0.95875 0.19375
v 0.1975 0.9625 0.251553
v 0.1975 0.9625 0.748447
v 0.251553 0.9625 0.8025
v 0.748447 0.9625 0.8025
v 0.8025 0.9625 0.748447
v 0.8025 0.9625 0.251553
v 0.748447 0.9625 0.1975
v 0.251553 0.9625 0.1975
v 0.1975 0.9125 0.251553
v 0.1975 0.9125 0.748447
v 0.251553 0.9125 0.8025
v 0.748447 0.9125 0.8025
v 0.8025 0.9125 0.748447
v 0.8025 0.9125 0.251553
v 0.748447 0.9125 0.1975
v 0.251553 0.9125 0.1975
v 0.1975 0.9625 0.251553
v 0.1975 0.9625 0.748447
v 0.251553 0.9625 0.8025
v 0.748447 0.9625 0.8025
v 0.8025 0.9625 0.748447
v 0.8025 0.9625 0.251553
v 0.748447 0.9625 0.1975
v 0.251553 0.9625 0.1975
vt 0.131283 0.00891
vt 0.188542 0.00891
vt 0.188721 0.009521
vt 0.131104 0.009521
vt 0.260986 0.070443
vt 0.268179 0.065357
vt 0.268678 0.065752
vt 0.261193 0.071045
vt 0.367611 0.00891
vt 0.42487 0.00891
vt 0.425049 0.009521
vt 0.367432 0.009521
vt 0.231069 0.071045
vt 0.223877 0.065959
vt 0.224084 0.065357
vt 0.231568 0.070649
vt 0.247624 0.009521
vt 0.190365 0.009521
vt 0.190186 0.00891
vt 0.247803 0.00891
vt 0.277955 0.065959
vt 0.270763 0.071045
vt 0.270264 0.070649
vt 0.277748 0.065357
vt 0.483952 0.009521
vt 0.426693 0.009521
vt 0.426514 0.00891
vt 0.484131 0.00891
vt 0.233653 0.065357
vt 0.240846 0.070443
vt 0.240639 0.071045
vt 0.233154 0.065752
vt 0.298096 0.066147
vt 0.355713 0.066147
vt 0.355713 0.071045
vt 0.298096 0.071045
vt 0.534424 0.066147
vt 0.543591 0.066147
vt 0.543591 0.071045
vt 0.534424 0.071045
vt 0.357178 0.066147
vt 0.414795 0.066147
vt 0.414795 0.071045
vt 0.357178 0.071045
vt 0.554333 0.071045
vt 0.545166 0.071045
vt 0.545166 0.066147
vt 0.554333 0.066147
vt 0.473877 0.071045
vt 0.41626 0.071045
vt 0.41626 0.066147
vt 0.473877 0.066147
vt 0.565075 0.071045
vt 0.555908 0.071045
vt 0.555908 0.066147
vt 0.565075 0.066147
vt 0.475342 0.066147
vt 0.532959 0.066147
vt 0.532959 0.071045
vt 0.475342 0.071045
vt 0.56665 0.066147
vt 0.575817 0.066147
vt 0.575817 0.071045
vt 0.56665 0.071045
vt 0.249268 0.00891
vt 0.306885 0.00891
vt 0.306706 0.009521
vt 0.249447 0.009521
vt 0.279748 0.065357
vt 0.287232 0.070649
vt 0.286733 0.071045
vt 0.279541 0.065959
vt 0.543213 0.009521
vt 0.485596 0.009521
vt 0.485775 0.00891
vt 0.543034 0.00891
vt 0.250123 0.065752
vt 0.242638 0.071045
vt 0.242432 0.070443
vt 0.249624 0.065357
vt 0.365967 0.009521
vt 0.30835 0.009521
vt 0.308529 0.00891
vt 0.365788 0.00891
vt 0.296303 0.071045
vt 0.288818 0.065752
vt 0.289317 0.065357
vt 0.29651 0.070443
vt 0.544678 0.00891
vt 0.602295 0.00891
vt 0.602116 0.009521
vt 0.544857 0.009521
vt 0.251709 0.070649
vt 0.259194 0.065357
vt 0.2594 0.065959
vt 0.252208 0.071045
vt 0.139416 0.35376
vt 0.082157 0.35376
vt 0.075928 0.347531
vt 0.145645 0.347531
vt 0.139416 0.35376
vt 0.075928 0.347531
vt 0.145645 0.290272
vt 0.145645 0.347531
vt 0.075928 0.347531
vt 0.139416 0.284043
vt 0.145645 0.290272
vt 0.075928 0.347531
vt 0.082157 0.284043
vt 0.139416 0.284043
vt 0.075928 0.347531
vt 0.075928 0.347531
vt 0.075928 0.290272
vt 0.082157 0.284043
vt 0.147217 0.290272
vt 0.153446 0.284043
vt 0.210705 0.284043
vt 0.147217 0.290272
vt 0.210705 0.284043
vt 0.216934 0.290272
vt 0.147217 0.290272
vt 0.216934 0.290272
vt 0.216934 0.347531
vt 0.147217 0.290272
vt 0.216934 0.347531
vt 0.210705 0.35376
vt 0.147217 0.290272
vt 0.210705 0.35376
vt 0.153446 0.35376
vt 0.153446 0.35376
vt 0.147217 0.347531
vt 0.147217 0.290272
vn -0.691027 -0.719543 -0.068843
vn -0.691027 -0.719543 0.068843
vn -0.068843 -0.719543 0.691027
vn 0.068843 -0.719543 0.691027
vn 0.691027 -0.719543 0.068843
vn 0.691027 -0.719543 -0.068843
vn 0.068843 -0.719543 -0.691027
vn -0.068843 -0.719543 -0.691027
vn -1 0 0
vn -0.707107 0 0.707107
vn 0 0 1
vn 0.707107 0 0.707107
vn 1 0 0
vn 0.707107 0 -0.707107
vn 0 0 -1
vn -0.707107 0 -0.707107
vn -0.691027 0.719543 -0.068843
vn -0.691027 0.719543 0.068843
vn -0.068843 0.719543 0.691027
vn 0.068843 0.719543 0.691027
vn 0.691027 0.719543 0.068843
vn 0.691027 0.719543 -0.068843
vn 0.068843 0.719543 -0.691027
vn -0.068843 0.719543 -0.691027
vn 0 -1 0
vn 0 1 0
f 1/1/1 2/2/2 10/3/2 9/4/1
f 2/5/2 3/6/3 11/7/3 10/8/2
f 3/9/3 4/10/4 12/11/4 11/12/3
f 4/13/4 5/14/5 13/15/5 12/16/4
f 5/17/5 6/18/6 14/19/6 13/20/5
f 6/21/6 7/22/7 15/23/7 14/24/6
f 7/25/7 8/26/8 16/27/8 15/28/7
f 8/29/8 1/30/1 9/31/1 16/32/8
f 9/33/9 10/34/9 18/35/9 17/36/9
f 10/37/10 11/38/10 19/39/10 18/40/10
f 11/41/11 12/42/11 20/43/11 19/44/11
f 12/45/12 13/46/12 21/47/12 20/48/12
f 13/49/13 14/50/13 22/51/13 21/52/13
f 14/53/14 15/54/14 23/55/14 22/56/14
f 15/57/15 16/58/15 24/59/15 23/60/15
f 16/61/16 9/62/16 17/63/16 24/64/16
f 17/65/17 18/66/18 26/67/18 25/68/17
f 18/69/18 19/70/19 27/71/19 26/72/18
f 19/73/19 20/74/20 28/75/20 27/76/19
f 20/77/20 21/78/21 29/79/21 28/80/20
f 21/81/21 22/82/22 30/83/22 29/84/21
f 22/85/22 23/86/23 31/87/23 30/88/22
f 23/89/23 24/90/24 32/91/24 31/92/23
f 24/93/24 17/94/17 25/95/17 32/96/24
f 34/97/25 33/98/25 40/99/25
f 35/100/25 34/101/25 40/102/25
f 36/103/25 35/104/25 40/105/25
f 37/106/25 36/107/25 40/108/25
f 38/109/25 37/110/25 40/111/25
f 40/112/25 39/113/25 38/114/25
f 48/115/26 41/116/26 42/117/26
f 48/118/26 42/119/26 43/120/26
f 48/121/26 43/122/26 44/123/26
f 48/124/26 44/125/26 45/126/26
f 48/127/26 45/128/26 46/129/26
f 46/130/26 47/131/26 48/132/26
o column_head_head_plate
usemtl fuel_canopy
v 0.155 0.9625 0.214571
v 0.155 0.9625 0.785429
v 0.214571 0.9625 0.845
v 0.785429 0.9625 0.845
v 0.845 0.9625 0.785429
v 0.845 0.9625 0.214571
v 0.785429 0.9625 0.155
v 0.214571 0.9625 0.155
v 0.15 0.9675 0.2125
v 0.15 0.9675 0.7875
v 0.2125 0.9675 0.85
v 0.7875 0.9675 0.85
v 0.85 0.9675 0.7875
v 0.85 0.9675 0.2125
v 0.7875 0.9675 0.15
v 0.2125 0.9675 0.15
v 0.15 0.9925 0.2125
v 0.15 0.9925 0.7875
v 0.2125 0.9925 0.85
v 0.7875 0.9925 0.85
v 0.85 0.9925 0.7875
v 0.85 0.9925 0.2125
v 0.7875 0.9925 0.15
v 0.2125 0.9925 0.15
v 0.155 0.9975 0.214571
v 0.155 0.9975 0.785429
v 0.214571 0.9975 0.845
v 0.785429 0.9975 0.845
v 0.845 0.9975 0.785429
v 0.845 0.9975 0.214571
v 0.785429 0.9975 0.155
v 0.214571 0.9975 0.155
v 0.155 0.9625 0.214571
v 0.155 0.9625 0.785429
v 0.214571 0.9625 0.845
v 0.785429 0.9625 0.845
v 0.845 0.9625 0.785429
v 0.845 0.9625 0.214571
v 0.785429 0.9625 0.155
v 0.214571 0.9625 0.155
v 0.155 0.9975 0.214571
v 0.155 0.9975 0.785429
v 0.214571 0.9975 0.845
v 0.785429 0.9975 0.845
v 0.845 0.9975 0.785429
v 0.845 0.9975 0.214571
v 0.785429 0.9975 0.155
v 0.214571 0.9975 0.155
vt 0.848627 0.011148
vt 0.91441 0.011148
vt 0.914648 0.011963
vt 0.848389 0.011963
vt 0.072998 0.078543
vt 0.080925 0.072938
vt 0.08159 0.073465
vt 0.073274 0.079346
vt 0.614252 0.014078
vt 0.680035 0.014078
vt 0.680273 0.014893
vt 0.614014 0.014893
vt 0.091179 0.079346
vt 0.083252 0.073741
vt 0.083528 0.072938
vt 0.091844 0.078818
vt 0.982281 0.011963
vt 0.916498 0.011963
vt 0.91626 0.011148
vt 0.98252 0.011148
vt 0.102098 0.073741
vt 0.094171 0.079346
vt 0.093506 0.078818
vt 0.101822 0.072938
vt 0.747906 0.014893
vt 0.682123 0.014893
vt 0.681885 0.014078
vt 0.748145 0.014078
vt 0.104425 0.072938
vt 0.112352 0.078543
vt 0.112076 0.079346
vt 0.10376 0.073465
vt 0.336182 0.043262
vt 0.402441 0.043262
vt 0.402441 0.046143
vt 0.336182 0.046143
vt 0.607666 0.043262
vt 0.617851 0.043262
vt 0.617851 0.046143
vt 0.607666 0.046143
vt 0.404053 0.043262
vt 0.470313 0.043262
vt 0.470313 0.046143
vt 0.404053 0.046143
vt 0.62957 0.046143
vt 0.619385 0.046143
vt 0.619385 0.043262
vt 0.62957 0.043262
vt 0.538184 0.046143
vt 0.471924 0.046143
vt 0.471924 0.043262
vt 0.538184 0.043262
vt 0.641289 0.046143
vt 0.631104 0.046143
vt 0.631104 0.043262
vt 0.641289 0.043262
vt 0.539795 0.043262
vt 0.606055 0.043262
vt 0.606055 0.046143
vt 0.539795 0.046143
vt 0.642822 0.043262
vt 0.653008 0.043262
vt 0.653008 0.046143
vt 0.642822 0.046143
vt 0.749756 0.014078
vt 0.816016 0.014078
vt 0.815777 0.014893
vt 0.749995 0.014893
vt 0.114289 0.072938
vt 0.122606 0.078818
vt 0.12194 0.079346
vt 0.114014 0.073741
vt 0.883887 0.014893
vt 0.817627 0.014893
vt 0.817866 0.014078
vt 0.883648 0.014078
vt 0.204637 0.073465
vt 0.196321 0.079346
vt 0.196045 0.078543
vt 0.203972 0.072938
vt 0.951758 0.014893
vt 0.885498 0.014893
vt 0.885737 0.014078
vt 0.951519 0.014078
vt 0.132584 0.079346
vt 0.124268 0.073465
vt 0.124933 0.072938
vt 0.132859 0.078543
vt 0.001221 0.011148
vt 0.06748 0.011148
vt 0.067242 0.011963
vt 0.001459 0.011963
vt 0.206299 0.078818
vt 0.214615 0.072938
vt 0.214891 0.073741
vt 0.206964 0.079346
vt 0.512833 0.447021
vt 0.44705 0.447021
vt 0.440186 0.440157
vt 0.519697 0.440157
vt 0.512833 0.447021
vt 0.440186 0.440157
vt 0.519697 0.374374
vt 0.519697 0.440157
vt 0.440186 0.440157
vt 0.512833 0.36751
vt 0.519697 0.374374
vt 0.440186 0.440157
vt 0.44705 0.36751
vt 0.512833 0.36751
vt 0.440186 0.440157
vt 0.440186 0.440157
vt 0.440186 0.374374
vt 0.44705 0.36751
vt 0.52124 0.374374
vt 0.528105 0.36751
vt 0.593887 0.36751
vt 0.52124 0.374374
vt 0.593887 0.36751
vt 0.600752 0.374374
vt 0.52124 0.374374
vt 0.600752 0.374374
vt 0.600752 0.440157
vt 0.52124 0.374374
vt 0.600752 0.440157
vt 0.593887 0.447021
vt 0.52124 0.374374
vt 0.593887 0.447021
vt 0.528105 0.447021
vt 0.528105 0.447021
vt 0.52124 0.440157
vt 0.52124 0.374374
vn -0.691612 -0.719193 -0.066586
vn -0.691612 -0.719193 0.066586
vn -0.066586 -0.719193 0.691612
vn 0.066586 -0.719193 0.691612
vn 0.691612 -0.719193 0.066586
vn 0.691612 -0.719193 -0.066586
vn 0.066586 -0.719193 -0.691612
vn -0.066586 -0.719193 -0.691612
vn -1 0 0
vn -0.707107 0 0.707107
vn 0 0 1
vn 0.707107 0 0.707107
vn 1 0 0
vn 0.707107 0 -0.707107
vn 0 0 -1
vn -0.707107 0 -0.707107
vn -0.691612 0.719193 -0.066586
vn -0.691612 0.719193 0.066586
vn -0.066586 0.719193 0.691612
vn 0.066586 0.719193 0.691612
vn 0.691612 0.719193 0.066586
vn 0.691612 0.719193 -0.066586
vn 0.066586 0.719193 -0.691612
vn -0.066586 0.719193 -0.691612
vn 0 -1 0
vn 0 1 0
f 49/133/27 50/134/28 58/135/28 57/136/27
f 50/137/28 51/138/29 59/139/29 58/140/28
f 51/141/29 52/142/30 60/143/30 59/144/29
f 52/145/30 53/146/31 61/147/31 60/148/30
f 53/149/31 54/150/32 62/151/32 61/152/31
f 54/153/32 55/154/33 63/155/33 62/156/32
f 55/157/33 56/158/34 64/159/34 63/160/33
f 56/161/34 49/162/27 57/163/27 64/164/34
f 57/165/35 58/166/35 66/167/35 65/168/35
f 58/169/36 59/170/36 67/171/36 66/172/36
f 59/173/37 60/174/37 68/175/37 67/176/37
f 60/177/38 61/178/38 69/179/38 68/180/38
f 61/181/39 62/182/39 70/183/39 69/184/39
f 62/185/40 63/186/40 71/187/40 70/188/40
f 63/189/41 64/190/41 72/191/41 71/192/41
f 64/193/42 57/194/42 65/195/42 72/196/42
f 65/197/43 66/198/44 74/199/44 73/200/43
f 66/201/44 67/202/45 75/203/45 74/204/44
f 67/205/45 68/206/46 76/207/46 75/208/45
f 68/209/46 69/210/47 77/211/47 76/212/46
f 69/213/47 70/214/48 78/215/48 77/216/47
f 70/217/48 71/218/49 79/219/49 78/220/48
f 71/221/49 72/222/50 80/223/50 79/224/49
f 72/225/50 65/226/43 73/227/43 80/228/50
f 82/229/51 81/230/51 88/231/51
f 83/232/51 82/233/51 88/234/51
f 84/235/51 83/236/51 88/237/51
f 85/238/51 84/239/51 88/240/51
f 86/241/51 85/242/51 88/243/51
f 88/244/51 87/245/51 86/246/51
f 96/247/52 89/248/52 90/249/52
f 96/250/52 90/251/52 91/252/52
f 96/253/52 91/254/52 92/255/52
f 96/256/52 92/257/52 93/258/52
f 96/259/52 93/260/52 94/261/52
f 94/262/52 95/263/52 96/264/52
o column_head_head_nuts
usemtl fuel_canopy
v 0.805535 0.93 0.801875
v 0.796875 0.93 0.806875
v 0.788215 0.93 0.801875
v 0.788215 0.93 0.791875
v 0.796875 0.93 0.786875
v 0.805535 0.93 0.791875
v 0.8077 0.9375 0.803125
v 0.796875 0.9375 0.809375
v 0.78605 0.9375 0.803125
v 0.78605 0.9375 0.790625
v 0.796875 0.9375 0.784375
v 0.8077 0.9375 0.790625
v 0.815278 0.9425 0.8075
v 0.796875 0.9425 0.818125
v 0.778472 0.9425 0.8075
v 0.778472 0.9425 0.78625
v 0.796875 0.9425 0.775625
v 0.815278 0.9425 0.78625
v 0.815278 0.9625 0.8075
v 0.796875 0.9625 0.818125
v 0.778472 0.9625 0.8075
v 0.778472 0.9625 0.78625
v 0.796875 0.9625 0.775625
v 0.815278 0.9625 0.78625
v 0.796875 0.93 0.796875
v 0.211785 0.93 0.801875
v 0.203125 0.93 0.806875
v 0.194465 0.93 0.801875
v 0.194465 0.93 0.791875
v 0.203125 0.93 0.786875
v 0.211785 0.93 0.791875
v 0.21395 0.9375 0.803125
v 0.203125 0.9375 0.809375
v 0.1923 0.9375 0.803125
v 0.1923 0.9375 0.790625
v 0.203125 0.9375 0.784375
v 0.21395 0.9375 0.790625
v 0.221528 0.9425 0.8075
v 0.203125 0.9425 0.818125
v 0.184722 0.9425 0.8075
v 0.184722 0.9425 0.78625
v 0.203125 0.9425 0.775625
v 0.221528 0.9425 0.78625
v 0.221528 0.9625 0.8075
v 0.203125 0.9625 0.818125
v 0.184722 0.9625 0.8075
v 0.184722 0.9625 0.78625
v 0.203125 0.9625 0.775625
v 0.221528 0.9625 0.78625
v 0.203125 0.93 0.796875
v 0.211785 0.93 0.208125
v 0.203125 0.93 0.213125
v 0.194465 0.93 0.208125
v 0.194465 0.93 0.198125
v 0.203125 0.93 0.193125
v 0.211785 0.93 0.198125
v 0.21395 0.9375 0.209375
v 0.203125 0.9375 0.215625
v 0.1923 0.9375 0.209375
v 0.1923 0.9375 0.196875
v 0.203125 0.9375 0.190625
v 0.21395 0.9375 0.196875
v 0.221528 0.9425 0.21375
v 0.203125 0.9425 0.224375
v 0.184722 0.9425 0.21375
v 0.184722 0.9425 0.1925
v 0.203125 0.9425 0.181875
v 0.221528 0.9425 0.1925
v 0.221528 0.9625 0.21375
v 0.203125 0.9625 0.224375
v 0.184722 0.9625 0.21375
v 0.184722 0.9625 0.1925
v 0.203125 0.9625 0.181875
v 0.221528 0.9625 0.1925
v 0.203125 0.93 0.203125
v 0.805535 0.93 0.208125
v 0.796875 0.93 0.213125
v 0.788215 0.93 0.208125
v 0.788215 0.93 0.198125
v 0.796875 0.93 0.193125
v 0.805535 0.93 0.198125
v 0.8077 0.9375 0.209375
v 0.796875 0.9375 0.215625
v 0.78605 0.9375 0.209375
v 0.78605 0.9375 0.196875
v 0.796875 0.9375 0.190625
v 0.8077 0.9375 0.196875
v 0.815278 0.9425 0.21375
v 0.796875 0.9425 0.224375
v 0.778472 0.9425 0.21375
v 0.778472 0.9425 0.1925
v 0.796875 0.9425 0.181875
v 0.815278 0.9425 0.1925
v 0.815278 0.9625 0.21375
v 0.796875 0.9625 0.224375
v 0.778472 0.9625 0.21375
v 0.778472 0.9625 0.1925
v 0.796875 0.9625 0.181875
v 0.815278 0.9625 0.1925
v 0.796875 0.93 0.203125
vt 0.670426 0.022798
vt 0.671724 0.023421
vt 0.671205 0.02417
vt 0.670166 0.023671
vt 0.675142 0.023546
vt 0.673844 0.02417
vt 0.673584 0.023297
vt 0.674623 0.022798
vt 0.453345 0.014893
vt 0.451904 0.014893
vt 0.452048 0.013993
vt 0.453201 0.013993
vt 0.6783 0.02417
vt 0.677002 0.023546
vt 0.677521 0.022798
vt 0.67856 0.023297
vt 0.642822 0.023421
vt 0.644121 0.022798
vt 0.64438 0.023671
vt 0.643342 0.02417
vt 0.454834 0.013993
vt 0.456274 0.013993
vt 0.45613 0.014893
vt 0.454978 0.014893
vt 0.253903 0.030101
vt 0.25189 0.031494
vt 0.251709 0.030347
vt 0.252894 0.029528
vt 0.257629 0.031494
vt 0.255615 0.030101
vt 0.256625 0.029528
vt 0.25781 0.030347
vt 0.0774 0.014893
vt 0.074951 0.014893
vt 0.075455 0.013846
vt 0.076896 0.013846
vt 0.275146 0.030921
vt 0.27716 0.029528
vt 0.277341 0.030675
vt 0.276156 0.031494
vt 0.279233 0.029528
vt 0.281247 0.030921
vt 0.280237 0.031494
vt 0.279053 0.030675
vt 0.079346 0.013846
vt 0.081794 0.013846
vt 0.08129 0.014893
vt 0.07985 0.014893
vt 0.240479 0.033584
vt 0.242927 0.033584
vt 0.242927 0.035889
vt 0.240479 0.035889
vt 0.427498 0.035889
vt 0.425049 0.035889
vt 0.425049 0.033584
vt 0.427498 0.033584
vt 0.247322 0.035889
vt 0.244873 0.035889
vt 0.244873 0.033584
vt 0.247322 0.033584
vt 0.133064 0.035889
vt 0.130615 0.035889
vt 0.130615 0.033584
vt 0.133064 0.033584
vt 0.249268 0.033584
vt 0.251716 0.033584
vt 0.251716 0.035889
vt 0.249268 0.035889
vt 0.253662 0.033584
vt 0.256111 0.033584
vt 0.256111 0.035889
vt 0.253662 0.035889
vt 0.10833 0.030496
vt 0.108906 0.029498
vt 0.109482 0.030496
vt 0.10833 0.030496
vt 0.109482 0.030496
vt 0.108906 0.031494
vt 0.10833 0.030496
vt 0.108906 0.031494
vt 0.107754 0.031494
vt 0.10833 0.030496
vt 0.107754 0.031494
vt 0.107178 0.030496
vt 0.10833 0.030496
vt 0.107178 0.030496
vt 0.107754 0.029498
vt 0.10833 0.030496
vt 0.107754 0.029498
vt 0.108906 0.029498
vt 0.68068 0.022798
vt 0.681978 0.023421
vt 0.681459 0.02417
vt 0.68042 0.023671
vt 0.685396 0.023546
vt 0.684098 0.02417
vt 0.683838 0.023297
vt 0.684877 0.022798
vt 0.459204 0.014893
vt 0.457764 0.014893
vt 0.457908 0.013993
vt 0.45906 0.013993
vt 0.664628 0.02417
vt 0.66333 0.023546
vt 0.663849 0.022798
vt 0.664888 0.023297
vt 0.64624 0.023421
vt 0.647539 0.022798
vt 0.647798 0.023671
vt 0.64676 0.02417
vt 0.460693 0.013993
vt 0.462134 0.013993
vt 0.46199 0.014893
vt 0.460837 0.014893
vt 0.124997 0.030101
vt 0.122983 0.031494
vt 0.122803 0.030347
vt 0.123987 0.029528
vt 0.202942 0.031494
vt 0.200928 0.030101
vt 0.201938 0.029528
vt 0.203122 0.030347
vt 0.086189 0.014893
vt 0.08374 0.014893
vt 0.084244 0.013846
vt 0.085685 0.013846
vt 0.282959 0.030921
vt 0.284973 0.029528
vt 0.285153 0.030675
vt 0.283969 0.031494
vt 0.173765 0.029528
vt 0.175778 0.030921
vt 0.174769 0.031494
vt 0.173584 0.030675
vt 0.088135 0.013846
vt 0.090583 0.013846
vt 0.090079 0.014893
vt 0.088639 0.014893
vt 0.429443 0.033584
vt 0.431892 0.033584
vt 0.431892 0.035889
vt 0.429443 0.035889
vt 0.260505 0.035889
vt 0.258057 0.035889
vt 0.258057 0.033584
vt 0.260505 0.033584
vt 0.2649 0.035889
vt 0.262451 0.035889
vt 0.262451 0.033584
vt 0.2649 0.033584
vt 0.124275 0.035889
vt 0.121826 0.035889
vt 0.121826 0.033584
vt 0.124275 0.033584
vt 0.376709 0.033584
vt 0.379158 0.033584
vt 0.379158 0.035889
vt 0.376709 0.035889
vt 0.266846 0.033584
vt 0.269294 0.033584
vt 0.269294 0.035889
vt 0.266846 0.035889
vt 0.112236 0.030496
vt 0.112812 0.029498
vt 0.113389 0.030496
vt 0.112236 0.030496
vt 0.113389 0.030496
vt 0.112812 0.031494
vt 0.112236 0.030496
vt 0.112812 0.031494
vt 0.11166 0.031494
vt 0.112236 0.030496
vt 0.11166 0.031494
vt 0.111084 0.030496
vt 0.112236 0.030496
vt 0.111084 0.030496
vt 0.11166 0.029498
vt 0.112236 0.030496
vt 0.11166 0.029498
vt 0.112812 0.029498
vt 0.687516 0.022798
vt 0.688814 0.023421
vt 0.688295 0.02417
vt 0.687256 0.023671
vt 0.651216 0.023546
vt 0.649918 0.02417
vt 0.649658 0.023297
vt 0.650697 0.022798
vt 0.465063 0.014893
vt 0.463623 0.014893
vt 0.463767 0.013993
vt 0.464919 0.013993
vt 0.691972 0.02417
vt 0.690674 0.023546
vt 0.691193 0.022798
vt 0.692232 0.023297
vt 0.694092 0.023421
vt 0.69539 0.022798
vt 0.69565 0.023671
vt 0.694611 0.02417
vt 0.466553 0.013993
vt 0.467993 0.013993
vt 0.467849 0.014893
vt 0.466697 0.014893
vt 0.160153 0.030101
vt 0.15814 0.031494
vt 0.157959 0.030347
vt 0.159144 0.029528
vt 0.288879 0.031494
vt 0.286865 0.030101
vt 0.287875 0.029528
vt 0.28906 0.030347
vt 0.094978 0.014893
vt 0.092529 0.014893
vt 0.093033 0.013846
vt 0.094474 0.013846
vt 0.204834 0.030921
vt 0.206848 0.029528
vt 0.207028 0.030675
vt 0.205844 0.031494
vt 0.259702 0.029528
vt 0.261716 0.030921
vt 0.260706 0.031494
vt 0.259521 0.030675
vt 0.096924 0.013846
vt 0.099373 0.013846
vt 0.098868 0.014893
vt 0.097428 0.014893
vt 0.381104 0.033584
vt 0.383552 0.033584
vt 0.383552 0.035889
vt 0.381104 0.035889
vt 0.273689 0.035889
vt 0.27124 0.035889
vt 0.27124 0.033584
vt 0.273689 0.033584
vt 0.278083 0.035889
vt 0.275635 0.035889
vt 0.275635 0.033584
vt 0.278083 0.033584
vt 0.128669 0.035889
vt 0.126221 0.035889
vt 0.126221 0.033584
vt 0.128669 0.033584
vt 0.433838 0.033584
vt 0.436287 0.033584
vt 0.436287 0.035889
vt 0.433838 0.035889
vt 0.280029 0.033584
vt 0.282478 0.033584
vt 0.282478 0.035889
vt 0.280029 0.035889
vt 0.116143 0.030496
vt 0.116719 0.029498
vt 0.117295 0.030496
vt 0.116143 0.030496
vt 0.117295 0.030496
vt 0.116719 0.031494
vt 0.116143 0.030496
vt 0.116719 0.031494
vt 0.115566 0.031494
vt 0.116143 0.030496
vt 0.115566 0.031494
vt 0.11499 0.030496
vt 0.116143 0.030496
vt 0.11499 0.030496
vt 0.115566 0.029498
vt 0.116143 0.030496
vt 0.115566 0.029498
vt 0.116719 0.029498
vt 0.667008 0.022798
vt 0.668306 0.023421
vt 0.667787 0.02417
vt 0.666748 0.023671
vt 0.654634 0.023546
vt 0.653336 0.02417
vt 0.653076 0.023297
vt 0.654115 0.022798
vt 0.470923 0.014893
vt 0.469482 0.014893
vt 0.469626 0.013993
vt 0.470779 0.013993
vt 0.698808 0.02417
vt 0.69751 0.023546
vt 0.698029 0.022798
vt 0.699068 0.023297
vt 0.700928 0.023421
vt 0.702226 0.022798
vt 0.702486 0.023671
vt 0.701447 0.02417
vt 0.472412 0.013993
vt 0.473853 0.013993
vt 0.473708 0.014893
vt 0.472556 0.014893
vt 0.179685 0.030101
vt 0.177671 0.031494
vt 0.17749 0.030347
vt 0.178675 0.029528
vt 0.18341 0.031494
vt 0.181396 0.030101
vt 0.182406 0.029528
vt 0.183591 0.030347
vt 0.103767 0.014893
vt 0.101318 0.014893
vt 0.101823 0.013846
vt 0.103263 0.013846
vt 0.20874 0.030921
vt 0.210754 0.029528
vt 0.210935 0.030675
vt 0.20975 0.031494
vt 0.212827 0.029528
vt 0.214841 0.030921
vt 0.213831 0.031494
vt 0.212646 0.030675
vt 0.105713 0.013846
vt 0.108162 0.013846
vt 0.107657 0.014893
vt 0.106217 0.014893
vt 0.284424 0.033584
vt 0.286873 0.033584
vt 0.286873 0.035889
vt 0.284424 0.035889
vt 0.387947 0.035889
vt 0.385498 0.035889
vt 0.385498 0.033584
vt 0.387947 0.033584
vt 0.291267 0.035889
vt 0.288818 0.035889
vt 0.288818 0.033584
vt 0.291267 0.033584
vt 0.295662 0.035889
vt 0.293213 0.035889
vt 0.293213 0.033584
vt 0.295662 0.033584
vt 0.297607 0.033584
vt 0.300056 0.033584
vt 0.300056 0.035889
vt 0.297607 0.035889
vt 0.302002 0.033584
vt 0.304451 0.033584
vt 0.304451 0.035889
vt 0.302002 0.035889
vt 0.120049 0.030496
vt 0.120625 0.029498
vt 0.121201 0.030496
vt 0.120049 0.030496
vt 0.121201 0.030496
vt 0.120625 0.031494
vt 0.120049 0.030496
vt 0.120625 0.031494
vt 0.119473 0.031494
vt 0.120049 0.030496
vt 0.119473 0.031494
vt 0.118896 0.030496
vt 0.120049 0.030496
vt 0.118896 0.030496
vt 0.119473 0.029498
vt 0.120049 0.030496
vt 0.119473 0.029498
vt 0.120625 0.029498
vn 0.480384 -0.27735 0.83205
vn -0.480384 -0.27735 0.83205
vn -0.960769 -0.27735 0
vn -0.480384 -0.27735 -0.83205
vn 0.480384 -0.27735 -0.83205
vn 0.960769 -0.27735 0
vn 0.429669 -0.868243 0.248069
vn 0 -0.868243 0.496139
vn -0.429669 -0.868243 0.248069
vn -0.429669 -0.868243 -0.248069
vn 0 -0.868243 -0.496139
vn 0.429669 -0.868243 -0.248069
vn 0.5 0 0.866025
vn -0.5 0 0.866025
vn -1 0 0
vn -0.5 0 -0.866025
vn 0.5 0 -0.866025
vn 1 0 0
vn 0 -1 0
f 103/265/53 104/266/53 98/267/53 97/268/53
f 104/269/54 105/270/54 99/271/54 98/272/54
f 105/273/55 106/274/55 100/275/55 99/276/55
f 106/277/56 107/278/56 101/279/56 100/280/56
f 107/281/57 108/282/57 102/283/57 101/284/57
f 108/285/58 103/286/58 97/287/58 102/288/58
f 109/289/59 110/290/60 104/291/60 103/292/59
f 110/293/60 111/294/61 105/295/61 104/296/60
f 111/297/61 112/298/62 106/299/62 105/300/61
f 112/301/62 113/302/63 107/303/63 106/304/62
f 113/305/63 114/306/64 108/307/64 107/308/63
f 114/309/64 109/310/59 103/311/59 108/312/64
f 115/313/65 116/314/65 110/315/65 109/316/65
f 116/317/66 117/318/66 111/319/66 110/320/66
f 117/321/67 118/322/67 112/323/67 111/324/67
f 118/325/68 119/326/68 113/327/68 112/328/68
f 119/329/69 120/330/69 114/331/69 113/332/69
f 120/333/70 115/334/70 109/335/70 114/336/70
f 121/337/71 97/338/71 98/339/71
f 121/340/71 98/341/71 99/342/71
f 121/343/71 99/344/71 100/345/71
f 121/346/71 100/347/71 101/348/71
f 121/349/71 101/350/71 102/351/71
f 121/352/71 102/353/71 97/354/71
f 128/355/53 129/356/53 123/357/53 122/358/53
f 129/359/54 130/360/54 124/361/54 123/362/54
f 130/363/55 131/364/55 125/365/55 124/366/55
f 131/367/56 132/368/56 126/369/56 125/370/56
f 132/371/57 133/372/57 127/373/57 126/374/57
f 133/375/58 128/376/58 122/377/58 127/378/58
f 134/379/59 135/380/60 129/381/60 128/382/59
f 135/383/60 136/384/61 130/385/61 129/386/60
f 136/387/61 137/388/62 131/389/62 130/390/61
f 137/391/62 138/392/63 132/393/63 131/394/62
f 138/395/63 139/396/64 133/397/64 132/398/63
f 139/399/64 134/400/59 128/401/59 133/402/64
f 140/403/65 141/404/65 135/405/65 134/406/65
f 141/407/66 142/408/66 136/409/66 135/410/66
f 142/411/67 143/412/67 137/413/67 136/414/67
f 143/415/68 144/416/68 138/417/68 137/418/68
f 144/419/69 145/420/69 139/421/69 138/422/69
f 145/423/70 140/424/70 134/425/70 139/426/70
f 146/427/71 122/428/71 123/429/71
f 146/430/71 123/431/71 124/432/71
f 146/433/71 124/434/71 125/435/71
f 146/436/71 125/437/71 126/438/71
f 146/439/71 126/440/71 127/441/71
f 146/442/71 127/443/71 122/444/71
f 153/445/53 154/446/53 148/447/53 147/448/53
f 154/449/54 155/450/54 149/451/54 148/452/54
f 155/453/55 156/454/55 150/455/55 149/456/55
f 156/457/56 157/458/56 151/459/56 150/460/56
f 157/461/57 158/462/57 152/463/57 151/464/57
f 158/465/58 153/466/58 147/467/58 152/468/58
f 159/469/59 160/470/60 154/471/60 153/472/59
f 160/473/60 161/474/61 155/475/61 154/476/60
f 161/477/61 162/478/62 156/479/62 155/480/61
f 162/481/62 163/482/63 157/483/63 156/484/62
f 163/485/63 164/486/64 158/487/64 157/488/63
f 164/489/64 159/490/59 153/491/59 158/492/64
f 165/493/65 166/494/65 160/495/65 159/496/65
f 166/497/66 167/498/66 161/499/66 160/500/66
f 167/501/67 168/502/67 162/503/67 161/504/67
f 168/505/68 169/506/68 163/507/68 162/508/68
f 169/509/69 170/510/69 164/511/69 163/512/69
f 170/513/70 165/514/70 159/515/70 164/516/70
f 171/517/71 147/518/71 148/519/71
f 171/520/71 148/521/71 149/522/71
f 171/523/71 149/524/71 150/525/71
f 171/526/71 150/527/71 151/528/71
f 171/529/71 151/530/71 152/531/71
f 171/532/71 152/533/71 147/534/71
f 178/535/53 179/536/53 173/537/53 172/538/53
f 179/539/54 180/540/54 174/541/54 173/542/54
f 180/543/55 181/544/55 175/545/55 174/546/55
f 181/547/56 182/548/56 176/549/56 175/550/56
f 182/551/57 183/552/57 177/553/57 176/554/57
f 183/555/58 178/556/58 172/557/58 177/558/58
f 184/559/59 185/560/60 179/561/60 178/562/59
f 185/563/60 186/564/61 180/565/61 179/566/60
f 186/567/61 187/568/62 181/569/62 180/570/61
f 187/571/62 188/572/63 182/573/63 181/574/62
f 188/575/63 189/576/64 183/577/64 182/578/63
f 189/579/64 184/580/59 178/581/59 183/582/64
f 190/583/65 191/584/65 185/585/65 184/586/65
f 191/587/66 192/588/66 186/589/66 185/590/66
f 192/591/67 193/592/67 187/593/67 186/594/67
f 193/595/68 194/596/68 188/597/68 187/598/68
f 194/599/69 195/600/69 189/601/69 188/602/69
f 195/603/70 190/604/70 184/605/70 189/606/70
f 196/607/71 172/608/71 173/609/71
f 196/610/71 173/611/71 174/612/71
f 196/613/71 174/614/71 175/615/71
f 196/616/71 175/617/71 176/618/71
f 196/619/71 176/620/71 177/621/71
f 196/622/71 177/623/71 172/624/71
