# AFL Fuel Canopy V1 column, bottom segment, generated by tools/build-fuel-canopy-v1.mjs
mtllib column_base.mtl
o column_base_footing
usemtl fuel_canopy
v 0 0 1
v 1 0 1
v 1 0 0
v 0 0 0
v 0 0.0625 1
v 1 0.0625 1
v 1 0.0625 0
v 0 0.0625 0
v 0.309375 0 0.309375
v 0.690625 0 0.309375
v 0.690625 0 0.690625
v 0.309375 0 0.690625
v 0.309375 0.0625 0.309375
v 0.690625 0.0625 0.309375
v 0.690625 0.0625 0.690625
v 0.309375 0.0625 0.690625
v 0 0 1
v 1 0 1
v 1 0 0
v 0 0 0
v 0.309375 0 0.309375
v 0.690625 0 0.309375
v 0.690625 0 0.690625
v 0.309375 0 0.690625
v 0 0.0625 1
v 1 0.0625 1
v 1 0.0625 0
v 0 0.0625 0
v 0.309375 0.0625 0.309375
v 0.690625 0.0625 0.309375
v 0.690625 0.0625 0.690625
v 0.309375 0.0625 0.690625
vt 0.793701 0.099487
vt 0.908936 0.099487
vt 0.908936 0.106689
vt 0.793701 0.106689
vt 0.116455 0.096924
vt 0.001221 0.096924
vt 0.001221 0.089722
vt 0.116455 0.089722
vt 0.11792 0.089722
vt 0.233154 0.089722
vt 0.233154 0.096924
vt 0.11792 0.096924
vt 0.234619 0.089722
vt 0.349854 0.089722
vt 0.349854 0.096924
vt 0.234619 0.096924
vt 0.717529 0.080933
vt 0.761462 0.080933
vt 0.761462 0.088135
vt 0.717529 0.088135
vt 0.762939 0.080933
vt 0.806873 0.080933
vt 0.806873 0.088135
vt 0.762939 0.088135
vt 0.80835 0.080933
vt 0.852283 0.080933
vt 0.852283 0.088135
vt 0.80835 0.088135
vt 0.897693 0.088135
vt 0.85376 0.088135
vt 0.85376 0.080933
vt 0.897693 0.080933
vt 0.080804 0.919196
vt 0.116455 0.883545
vt 0.116455 0.998779
vt 0.080804 0.963129
vt 0.080804 0.919196
vt 0.116455 0.998779
vt 0.080804 0.963129
vt 0.116455 0.998779
vt 0.001221 0.998779
vt 0.036871 0.963129
vt 0.080804 0.963129
vt 0.001221 0.998779
vt 0.036871 0.919196
vt 0.036871 0.963129
vt 0.001221 0.998779
vt 0.116455 0.883545
vt 0.080804 0.919196
vt 0.036871 0.919196
vt 0.001221 0.883545
vt 0.116455 0.883545
vt 0.036871 0.919196
vt 0.001221 0.998779
vt 0.001221 0.883545
vt 0.036871 0.919196
vt 0.233154 0.883545
vt 0.233154 0.998779
vt 0.197504 0.963129
vt 0.233154 0.883545
vt 0.197504 0.963129
vt 0.197504 0.919196
vt 0.11792 0.883545
vt 0.233154 0.883545
vt 0.197504 0.919196
vt 0.11792 0.883545
vt 0.197504 0.919196
vt 0.153571 0.919196
vt 0.11792 0.883545
vt 0.153571 0.919196
vt 0.153571 0.963129
vt 0.153571 0.963129
vt 0.197504 0.963129
vt 0.233154 0.998779
vt 0.153571 0.963129
vt 0.233154 0.998779
vt 0.11792 0.998779
vt 0.153571 0.963129
vt 0.11792 0.998779
vt 0.11792 0.883545
vn 0 0 1
vn 1 0 0
vn 0 0 -1
vn -1 0 0
vn 0 -1 0
vn 0 1 0
f 1/1/1 2/2/1 6/3/1 5/4/1
f 2/5/2 3/6/2 7/7/2 6/8/2
f 3/9/3 4/10/3 8/11/3 7/12/3
f 4/13/4 1/14/4 5/15/4 8/16/4
f 9/17/1 10/18/1 14/19/1 13/20/1
f 10/21/4 11/22/4 15/23/4 14/24/4
f 11/25/3 12/26/3 16/27/3 15/28/3
f 12/29/2 9/30/2 13/31/2 16/32/2
f 23/33/5 18/34/5 17/35/5
f 24/36/5 23/37/5 17/38/5
f 24/39/5 17/40/5 20/41/5
f 21/42/5 24/43/5 20/44/5
f 22/45/5 21/46/5 20/47/5
f 18/48/5 23/49/5 22/50/5
f 19/51/5 18/52/5 22/53/5
f 20/54/5 19/55/5 22/56/5
f 25/57/6 26/58/6 31/59/6
f 25/60/6 31/61/6 32/62/6
f 28/63/6 25/64/6 32/65/6
f 28/66/6 32/67/6 29/68/6
f 28/69/6 29/70/6 30/71/6
f 30/72/6 31/73/6 26/74/6
f 30/75/6 26/76/6 27/77/6
f 30/78/6 27/79/6 28/80/6
o column_base_ped
usemtl fuel_canopy
v 0.103125 0.0625 0.172633
v 0.103125 0.0625 0.827367
v 0.172633 0.0625 0.896875
v 0.827367 0.0625 0.896875
v 0.896875 0.0625 0.827367
v 0.896875 0.0625 0.172633
v 0.827367 0.0625 0.103125
v 0.172633 0.0625 0.103125
v 0.09375 0.071875 0.16875
v 0.09375 0.071875 0.83125
v 0.16875 0.071875 0.90625
v 0.83125 0.071875 0.90625
v 0.90625 0.071875 0.83125
v 0.90625 0.071875 0.16875
v 0.83125 0.071875 0.09375
v 0.16875 0.071875 0.09375
v 0.09375 0.303125 0.16875
v 0.09375 0.303125 0.83125
v 0.16875 0.303125 0.90625
v 0.83125 0.303125 0.90625
v 0.90625 0.303125 0.83125
v 0.90625 0.303125 0.16875
v 0.83125 0.303125 0.09375
v 0.16875 0.303125 0.09375
v 0.103125 0.3125 0.172633
v 0.103125 0.3125 0.827367
v 0.172633 0.3125 0.896875
v 0.827367 0.3125 0.896875
v 0.896875 0.3125 0.827367
v 0.896875 0.3125 0.172633
v 0.827367 0.3125 0.103125
v 0.172633 0.3125 0.103125
v 0.103125 0.0625 0.172633
v 0.103125 0.0625 0.827367
v 0.172633 0.0625 0.896875
v 0.827367 0.0625 0.896875
v 0.896875 0.0625 0.827367
v 0.896875 0.0625 0.172633
v 0.827367 0.0625 0.103125
v 0.172633 0.0625 0.103125
v 0.103125 0.3125 0.172633
v 0.103125 0.3125 0.827367
v 0.172633 0.3125 0.896875
v 0.827367 0.3125 0.896875
v 0.896875 0.3125 0.827367
v 0.896875 0.3125 0.172633
v 0.827367 0.3125 0.103125
v 0.172633 0.3125 0.103125
vt 0.457723 0.02606
vt 0.533171 0.02606
vt 0.533618 0.027588
vt 0.457275 0.027588
vt 0.439209 0.115926
vt 0.448458 0.109386
vt 0.449705 0.110375
vt 0.439726 0.117432
vt 0.157918 0.022642
vt 0.233366 0.022642
vt 0.233813 0.02417
vt 0.157471 0.02417
vt 0.472872 0.117432
vt 0.463623 0.110892
vt 0.46414 0.109386
vt 0.474119 0.116443
vt 0.611296 0.027588
vt 0.535848 0.027588
vt 0.5354 0.02606
vt 0.611743 0.02606
vt 0.461912 0.110892
vt 0.452663 0.117432
vt 0.451416 0.116443
vt 0.461396 0.109386
vt 0.311491 0.02417
vt 0.236043 0.02417
vt 0.235596 0.022642
vt 0.311938 0.022642
vt 0.477078 0.109386
vt 0.486326 0.115926
vt 0.48581 0.117432
vt 0.47583 0.110375
vt 0.270752 0.198694
vt 0.347095 0.198694
vt 0.347095 0.225342
vt 0.270752 0.225342
vt 0.455115 0.157944
vt 0.455115 0.170166
vt 0.428467 0.170166
vt 0.428467 0.157944
vt 0.348877 0.198694
vt 0.42522 0.198694
vt 0.42522 0.225342
vt 0.348877 0.225342
vt 0.456787 0.170166
vt 0.456787 0.157944
vt 0.483435 0.157944
vt 0.483435 0.170166
vt 0.503345 0.225342
vt 0.427002 0.225342
vt 0.427002 0.198694
vt 0.503345 0.198694
vt 0.485107 0.170166
vt 0.485107 0.157944
vt 0.511755 0.157944
vt 0.511755 0.170166
vt 0.505127 0.198694
vt 0.58147 0.198694
vt 0.58147 0.225342
vt 0.505127 0.225342
vt 0.540076 0.157944
vt 0.540076 0.170166
vt 0.513428 0.170166
vt 0.513428 0.157944
vt 0.001221 0.022642
vt 0.077563 0.022642
vt 0.077116 0.02417
vt 0.001668 0.02417
vt 0.610624 0.109386
vt 0.620604 0.116443
vt 0.619356 0.117432
vt 0.610107 0.110892
vt 0.377368 0.027588
vt 0.301025 0.027588
vt 0.301473 0.02606
vt 0.376921 0.02606
vt 0.547362 0.110375
vt 0.537382 0.117432
vt 0.536865 0.115926
vt 0.546114 0.109386
vt 0.155688 0.02417
vt 0.079346 0.02417
vt 0.079793 0.022642
vt 0.155241 0.022642
vt 0.632294 0.117432
vt 0.622314 0.110375
vt 0.623562 0.109386
vt 0.632811 0.115926
vt 0.37915 0.02606
vt 0.455493 0.02606
vt 0.455046 0.027588
vt 0.379598 0.027588
vt 0.549072 0.116443
vt 0.559052 0.109386
vt 0.559569 0.110892
vt 0.55032 0.117432
vt 0.771202 0.548096
vt 0.695754 0.548096
vt 0.687744 0.540086
vt 0.779211 0.540086
vt 0.771202 0.548096
vt 0.687744 0.540086
vt 0.779211 0.464638
vt 0.779211 0.540086
vt 0.687744 0.540086
vt 0.771202 0.456628
vt 0.779211 0.464638
vt 0.687744 0.540086
vt 0.695754 0.456628
vt 0.771202 0.456628
vt 0.687744 0.540086
vt 0.687744 0.540086
vt 0.687744 0.464638
vt 0.695754 0.456628
vt 0.781006 0.464638
vt 0.789016 0.456628
vt 0.864463 0.456628
vt 0.781006 0.464638
vt 0.864463 0.456628
vt 0.872473 0.464638
vt 0.781006 0.464638
vt 0.872473 0.464638
vt 0.872473 0.540086
vt 0.781006 0.464638
vt 0.872473 0.540086
vt 0.864463 0.548096
vt 0.781006 0.464638
vt 0.864463 0.548096
vt 0.789016 0.548096
vt 0.789016 0.548096
vt 0.781006 0.540086
vt 0.781006 0.464638
vn -0.691161 -0.719464 -0.068328
vn -0.691161 -0.719464 0.068328
vn -0.068328 -0.719464 0.691161
vn 0.068328 -0.719464 0.691161
vn 0.691161 -0.719464 0.068328
vn 0.691161 -0.719464 -0.068328
vn 0.068328 -0.719464 -0.691161
vn -0.068328 -0.719464 -0.691161
vn -1 0 0
vn -0.707107 0 0.707107
vn 0 0 1
vn 0.707107 0 0.707107
vn 1 0 0
vn 0.707107 0 -0.707107
vn 0 0 -1
vn -0.707107 0 -0.707107
vn -0.691161 0.719464 -0.068328
vn -0.691161 0.719464 0.068328
vn -0.068328 0.719464 0.691161
vn 0.068328 0.719464 0.691161
vn 0.691161 0.719464 0.068328
vn 0.691161 0.719464 -0.068328
vn 0.068328 0.719464 -0.691161
vn -0.068328 0.719464 -0.691161
vn 0 -1 0
vn 0 1 0
f 33/81/7 34/82/8 42/83/8 41/84/7
f 34/85/8 35/86/9 43/87/9 42/88/8
f 35/89/9 36/90/10 44/91/10 43/92/9
f 36/93/10 37/94/11 45/95/11 44/96/10
f 37/97/11 38/98/12 46/99/12 45/100/11
f 38/101/12 39/102/13 47/103/13 46/104/12
f 39/105/13 40/106/14 48/107/14 47/108/13
f 40/109/14 33/110/7 41/111/7 48/112/14
f 41/113/15 42/114/15 50/115/15 49/116/15
f 42/117/16 43/118/16 51/119/16 50/120/16
f 43/121/17 44/122/17 52/123/17 51/124/17
f 44/125/18 45/126/18 53/127/18 52/128/18
f 45/129/19 46/130/19 54/131/19 53/132/19
f 46/133/20 47/134/20 55/135/20 54/136/20
f 47/137/21 48/138/21 56/139/21 55/140/21
f 48/141/22 41/142/22 49/143/22 56/144/22
f 49/145/23 50/146/24 58/147/24 57/148/23
f 50/149/24 51/150/25 59/151/25 58/152/24
f 51/153/25 52/154/26 60/155/26 59/156/25
f 52/157/26 53/158/27 61/159/27 60/160/26
f 53/161/27 54/162/28 62/163/28 61/164/27
f 54/165/28 55/166/29 63/167/29 62/168/28
f 55/169/29 56/170/30 64/171/30 63/172/29
f 56/173/30 49/174/23 57/175/23 64/176/30
f 66/177/31 65/178/31 72/179/31
f 67/180/31 66/181/31 72/182/31
f 68/183/31 67/184/31 72/185/31
f 69/186/31 68/187/31 72/188/31
f 70/189/31 69/190/31 72/191/31
f 72/192/31 71/193/31 70/194/31
f 80/195/32 73/196/32 74/197/32
f 80/198/32 74/199/32 75/200/32
f 80/201/32 75/202/32 76/203/32
f 80/204/32 76/205/32 77/206/32
f 80/207/32 77/208/32 78/209/32
f 78/210/32 79/211/32 80/212/32
o column_base_port_plate
usemtl fuel_canopy
v 0.32 0.03875 0.32
v 0.68 0.03875 0.32
v 0.68 0.03875 0.68
v 0.32 0.03875 0.68
v 0.3125 0.03125 0.3125
v 0.6875 0.03125 0.3125
v 0.6875 0.03125 0.6875
v 0.3125 0.03125 0.6875
v 0.3125 0.0075 0.3125
v 0.6875 0.0075 0.3125
v 0.6875 0.0075 0.6875
v 0.3125 0.0075 0.6875
v 0.32 0 0.32
v 0.68 0 0.32
v 0.68 0 0.68
v 0.32 0 0.68
v 0.627033 0.03875 0.474732
v 0.607694 0.03875 0.428041
v 0.571959 0.03875 0.392306
v 0.525268 0.03875 0.372967
v 0.474732 0.03875 0.372967
v 0.428041 0.03875 0.392306
v 0.392306 0.03875 0.428041
v 0.372967 0.03875 0.474732
v 0.372967 0.03875 0.525268
v 0.392306 0.03875 0.571959
v 0.428041 0.03875 0.607694
v 0.474732 0.03875 0.627033
v 0.525268 0.03875 0.627033
v 0.571959 0.03875 0.607694
v 0.607694 0.03875 0.571959
v 0.627033 0.03875 0.525268
v 0.619533 0.03125 0.476223
v 0.601335 0.03125 0.43229
v 0.56771 0.03125 0.398665
v 0.523777 0.03125 0.380467
v 0.476223 0.03125 0.380467
v 0.43229 0.03125 0.398665
v 0.398665 0.03125 0.43229
v 0.380467 0.03125 0.476223
v 0.380467 0.03125 0.523777
v 0.398665 0.03125 0.56771
v 0.43229 0.03125 0.601335
v 0.476223 0.03125 0.619533
v 0.523777 0.03125 0.619533
v 0.56771 0.03125 0.601335
v 0.601335 0.03125 0.56771
v 0.619533 0.03125 0.523777
v 0.619533 0.0075 0.476223
v 0.601335 0.0075 0.43229
v 0.56771 0.0075 0.398665
v 0.523777 0.0075 0.380467
v 0.476223 0.0075 0.380467
v 0.43229 0.0075 0.398665
v 0.398665 0.0075 0.43229
v 0.380467 0.0075 0.476223
v 0.380467 0.0075 0.523777
v 0.398665 0.0075 0.56771
v 0.43229 0.0075 0.601335
v 0.476223 0.0075 0.619533
v 0.523777 0.0075 0.619533
v 0.56771 0.0075 0.601335
v 0.601335 0.0075 0.56771
v 0.619533 0.0075 0.523777
v 0.627033 0 0.474732
v 0.607694 0 0.428041
v 0.571959 0 0.392306
v 0.525268 0 0.372967
v 0.474732 0 0.372967
v 0.428041 0 0.392306
v 0.392306 0 0.428041
v 0.372967 0 0.474732
v 0.372967 0 0.525268
v 0.392306 0 0.571959
v 0.428041 0 0.607694
v 0.474732 0 0.627033
v 0.525268 0 0.627033
v 0.571959 0 0.607694
v 0.607694 0 0.571959
v 0.627033 0 0.525268
v 0.32 0.03875 0.32
v 0.68 0.03875 0.32
v 0.68 0.03875 0.68
v 0.32 0.03875 0.68
v 0.627033 0.03875 0.474732
v 0.607694 0.03875 0.428041
v 0.571959 0.03875 0.392306
v 0.525268 0.03875 0.372967
v 0.474732 0.03875 0.372967
v 0.428041 0.03875 0.392306
v 0.392306 0.03875 0.428041
v 0.372967 0.03875 0.474732
v 0.372967 0.03875 0.525268
v 0.392306 0.03875 0.571959
v 0.428041 0.03875 0.607694
v 0.474732 0.03875 0.627033
v 0.525268 0.03875 0.627033
v 0.571959 0.03875 0.607694
v 0.607694 0.03875 0.571959
v 0.627033 0.03875 0.525268
v 0.32 0 0.32
v 0.68 0 0.32
v 0.68 0 0.68
v 0.32 0 0.68
v 0.627033 0 0.474732
v 0.607694 0 0.428041
v 0.571959 0 0.392306
v 0.525268 0 0.372967
v 0.474732 0 0.372967
v 0.428041 0 0.392306
v 0.392306 0 0.428041
v 0.372967 0 0.474732
v 0.372967 0 0.525268
v 0.392306 0 0.571959
v 0.428041 0 0.607694
v 0.474732 0 0.627033
v 0.525268 0 0.627033
v 0.571959 0 0.607694
v 0.607694 0 0.571959
v 0.627033 0 0.525268
vt 0.633413 0.020752
vt 0.591929 0.020752
vt 0.591064 0.01953
vt 0.634277 0.01953
vt 0.786265 0.01953
vt 0.827749 0.01953
vt 0.828613 0.020752
vt 0.7854 0.020752
vt 0.636851 0.01953
vt 0.678335 0.01953
vt 0.679199 0.020752
vt 0.635986 0.020752
vt 0.872671 0.020752
vt 0.831187 0.020752
vt 0.830322 0.01953
vt 0.873535 0.01953
vt 0.844238 0.046143
vt 0.801025 0.046143
vt 0.801025 0.043406
vt 0.844238 0.043406
vt 0.845947 0.043406
vt 0.88916 0.043406
vt 0.88916 0.046143
vt 0.845947 0.046143
vt 0.934082 0.046143
vt 0.890869 0.046143
vt 0.890869 0.043406
vt 0.934082 0.043406
vt 0.979004 0.046143
vt 0.935791 0.046143
vt 0.935791 0.043406
vt 0.979004 0.043406
vt 0.239502 0.0166
vt 0.282715 0.0166
vt 0.281851 0.017822
vt 0.240366 0.017822
vt 0.059814 0.0166
vt 0.103027 0.0166
vt 0.102163 0.017822
vt 0.060679 0.017822
vt 0.327637 0.017822
vt 0.284424 0.017822
vt 0.285288 0.0166
vt 0.326772 0.0166
vt 0.147949 0.017822
vt 0.104736 0.017822
vt 0.105601 0.0166
vt 0.147085 0.0166
vt 0.674778 0.046143
vt 0.669189 0.044506
vt 0.669698 0.043381
vt 0.674957 0.044921
vt 0.210077 0.046143
vt 0.205322 0.04278
vt 0.206168 0.041882
vt 0.210643 0.045045
vt 0.218994 0.045175
vt 0.224019 0.042231
vt 0.224489 0.043373
vt 0.21976 0.046143
vt 0.965088 0.01953
vt 0.970911 0.01953
vt 0.97074 0.020752
vt 0.96526 0.020752
vt 0.322003 0.042231
vt 0.327028 0.045175
vt 0.326261 0.046143
vt 0.321533 0.043373
vt 0.123291 0.045244
vt 0.128046 0.041882
vt 0.128611 0.042979
vt 0.124137 0.046143
vt 0.727783 0.045018
vt 0.733372 0.043381
vt 0.733551 0.044602
vt 0.728292 0.046143
vt 0.972412 0.01953
vt 0.978236 0.01953
vt 0.978064 0.020752
vt 0.972584 0.020752
vt 0.713313 0.043381
vt 0.718902 0.045018
vt 0.718394 0.046143
vt 0.713135 0.044602
vt 0.1512 0.041882
vt 0.155955 0.045244
vt 0.155109 0.046143
vt 0.150635 0.042979
vt 0.297731 0.043199
vt 0.292706 0.046143
vt 0.292236 0.045001
vt 0.296965 0.042231
vt 0.05099 0.017822
vt 0.045166 0.017822
vt 0.045338 0.0166
vt 0.050818 0.0166
vt 0.253316 0.046143
vt 0.248291 0.043199
vt 0.249057 0.042231
vt 0.253785 0.045001
vt 0.183299 0.04278
vt 0.178544 0.046143
vt 0.177979 0.045045
vt 0.182453 0.041882
vt 0.689605 0.044506
vt 0.684016 0.046143
vt 0.683838 0.044921
vt 0.689097 0.043381
vt 0.776576 0.020752
vt 0.770752 0.020752
vt 0.770924 0.01953
vt 0.776404 0.01953
vt 0.318224 0.040283
vt 0.312744 0.040283
vt 0.312744 0.037546
vt 0.318224 0.037546
vt 0.376818 0.040283
vt 0.371338 0.040283
vt 0.371338 0.037546
vt 0.376818 0.037546
vt 0.362169 0.040283
vt 0.356689 0.040283
vt 0.356689 0.037546
vt 0.362169 0.037546
vt 0.186388 0.040283
vt 0.180908 0.040283
vt 0.180908 0.037546
vt 0.186388 0.037546
vt 0.342041 0.037546
vt 0.347521 0.037546
vt 0.347521 0.040283
vt 0.342041 0.040283
vt 0.239502 0.037546
vt 0.244982 0.037546
vt 0.244982 0.040283
vt 0.239502 0.040283
vt 0.786377 0.043406
vt 0.791857 0.043406
vt 0.791857 0.046143
vt 0.786377 0.046143
vt 0.188232 0.037546
vt 0.193712 0.037546
vt 0.193712 0.040283
vt 0.188232 0.040283
vt 0.298096 0.037546
vt 0.303575 0.037546
vt 0.303575 0.040283
vt 0.298096 0.040283
vt 0.224854 0.037546
vt 0.230333 0.037546
vt 0.230333 0.040283
vt 0.224854 0.040283
vt 0.771729 0.043406
vt 0.777208 0.043406
vt 0.777208 0.046143
vt 0.771729 0.046143
vt 0.25963 0.040283
vt 0.25415 0.040283
vt 0.25415 0.037546
vt 0.25963 0.037546
vt 0.332872 0.040283
vt 0.327393 0.040283
vt 0.327393 0.037546
vt 0.332872 0.037546
vt 0.266954 0.040283
vt 0.261475 0.040283
vt 0.261475 0.037546
vt 0.266954 0.037546
vt 0.274279 0.040283
vt 0.268799 0.040283
vt 0.268799 0.037546
vt 0.274279 0.037546
vt 0.201036 0.040283
vt 0.195557 0.040283
vt 0.195557 0.037546
vt 0.201036 0.037546
vt 0.704254 0.044602
vt 0.698995 0.046143
vt 0.698486 0.045018
vt 0.704075 0.043381
vt 0.196971 0.042979
vt 0.192496 0.046143
vt 0.19165 0.045244
vt 0.196405 0.041882
vt 0.231047 0.046143
vt 0.226318 0.043373
vt 0.226788 0.042231
vt 0.231813 0.045175
vt 0.985388 0.020752
vt 0.979908 0.020752
vt 0.979736 0.01953
vt 0.98556 0.01953
vt 0.268434 0.043373
vt 0.263706 0.046143
vt 0.262939 0.045175
vt 0.267964 0.042231
vt 0.110465 0.041882
vt 0.114939 0.045045
vt 0.114374 0.046143
vt 0.109619 0.04278
vt 0.74294 0.043381
vt 0.748199 0.044921
vt 0.74802 0.046143
vt 0.742432 0.044506
vt 0.987232 0.01953
vt 0.992712 0.01953
vt 0.992884 0.020752
vt 0.987061 0.020752
vt 0.749756 0.044921
vt 0.755015 0.043381
vt 0.755523 0.044506
vt 0.749934 0.046143
vt 0.136963 0.045045
vt 0.141437 0.041882
vt 0.142283 0.04278
vt 0.137528 0.046143
vt 0.307651 0.042231
vt 0.312379 0.045001
vt 0.31191 0.046143
vt 0.306885 0.043199
vt 0.419361 0.0166
vt 0.424841 0.0166
vt 0.425013 0.017822
vt 0.419189 0.017822
vt 0.277588 0.045001
vt 0.282316 0.042231
vt 0.283082 0.043199
vt 0.278057 0.046143
vt 0.168781 0.046143
vt 0.164307 0.042979
vt 0.164872 0.041882
vt 0.169627 0.045244
vt 0.6598 0.046143
vt 0.654541 0.044602
vt 0.65472 0.043381
vt 0.660308 0.045018
vt 0.006872 0.017822
vt 0.001393 0.017822
vt 0.001221 0.0166
vt 0.007044 0.0166
vt 0.640136 0.270721
vt 0.645516 0.272949
vt 0.627686 0.279053
vt 0.636018 0.266603
vt 0.640136 0.270721
vt 0.627686 0.279053
vt 0.633789 0.261222
vt 0.636018 0.266603
vt 0.627686 0.279053
vt 0.633789 0.261222
vt 0.627686 0.279053
vt 0.627686 0.237568
vt 0.633789 0.255399
vt 0.633789 0.261222
vt 0.627686 0.237568
vt 0.636018 0.250018
vt 0.633789 0.255399
vt 0.627686 0.237568
vt 0.640136 0.245901
vt 0.636018 0.250018
vt 0.627686 0.237568
vt 0.645516 0.243672
vt 0.640136 0.245901
vt 0.627686 0.237568
vt 0.645516 0.243672
vt 0.627686 0.237568
vt 0.66917 0.237568
vt 0.65134 0.243672
vt 0.645516 0.243672
vt 0.66917 0.237568
vt 0.65672 0.245901
vt 0.65134 0.243672
vt 0.66917 0.237568
vt 0.660838 0.250018
vt 0.65672 0.245901
vt 0.66917 0.237568
vt 0.663066 0.255399
vt 0.660838 0.250018
vt 0.66917 0.237568
vt 0.663066 0.261222
vt 0.663066 0.255399
vt 0.66917 0.237568
vt 0.627686 0.279053
vt 0.645516 0.272949
vt 0.65134 0.272949
vt 0.66917 0.279053
vt 0.627686 0.279053
vt 0.65134 0.272949
vt 0.66917 0.279053
vt 0.65134 0.272949
vt 0.65672 0.270721
vt 0.66917 0.279053
vt 0.65672 0.270721
vt 0.660838 0.266603
vt 0.66917 0.279053
vt 0.660838 0.266603
vt 0.663066 0.261222
vt 0.66917 0.237568
vt 0.66917 0.279053
vt 0.663066 0.261222
vt 0.670654 0.237568
vt 0.688485 0.243672
vt 0.683104 0.245901
vt 0.670654 0.237568
vt 0.683104 0.245901
vt 0.678986 0.250018
vt 0.670654 0.237568
vt 0.678986 0.250018
vt 0.676758 0.255399
vt 0.670654 0.279053
vt 0.670654 0.237568
vt 0.676758 0.255399
vt 0.670654 0.279053
vt 0.676758 0.255399
vt 0.676758 0.261222
vt 0.670654 0.279053
vt 0.676758 0.261222
vt 0.678986 0.266603
vt 0.670654 0.279053
vt 0.678986 0.266603
vt 0.683104 0.270721
vt 0.670654 0.279053
vt 0.683104 0.270721
vt 0.688485 0.272949
vt 0.712139 0.279053
vt 0.670654 0.279053
vt 0.688485 0.272949
vt 0.712139 0.279053
vt 0.688485 0.272949
vt 0.694308 0.272949
vt 0.712139 0.279053
vt 0.694308 0.272949
vt 0.699689 0.270721
vt 0.712139 0.279053
vt 0.699689 0.270721
vt 0.703806 0.266603
vt 0.712139 0.279053
vt 0.703806 0.266603
vt 0.706035 0.261222
vt 0.712139 0.279053
vt 0.706035 0.261222
vt 0.706035 0.255399
vt 0.694308 0.243672
vt 0.688485 0.243672
vt 0.670654 0.237568
vt 0.694308 0.243672
vt 0.670654 0.237568
vt 0.712139 0.237568
vt 0.699689 0.245901
vt 0.694308 0.243672
vt 0.712139 0.237568
vt 0.703806 0.250018
vt 0.699689 0.245901
vt 0.712139 0.237568
vt 0.706035 0.255399
vt 0.703806 0.250018
vt 0.712139 0.237568
vt 0.706035 0.255399
vt 0.712139 0.237568
vt 0.712139 0.279053
vn 0 0.707107 -0.707107
vn 0.707107 0.707107 0
vn 0 0.707107 0.707107
vn -0.707107 0.707107 0
vn 0 0 -1
vn 1 0 0
vn 0 0 1
vn -1 0 0
vn 0 -0.707107 -0.707107
vn 0.707107 -0.707107 0
vn 0 -0.707107 0.707107
vn -0.707107 -0.707107 0
vn -0.68676 0.713933 0.136605
vn -0.582207 0.713933 0.389018
vn -0.389018 0.713933 0.582207
vn -0.136605 0.713933 0.68676
vn 0.136605 0.713933 0.68676
vn 0.389018 0.713933 0.582207
vn 0.582207 0.713933 0.389018
vn 0.68676 0.713933 0.136605
vn 0.68676 0.713933 -0.136605
vn 0.582207 0.713933 -0.389018
vn 0.389018 0.713933 -0.582207
vn 0.136605 0.713933 -0.68676
vn -0.136605 0.713933 -0.68676
vn -0.389018 0.713933 -0.582207
vn -0.582207 0.713933 -0.389018
vn -0.68676 0.713933 -0.136605
vn -0.980785 0 0.19509
vn -0.83147 0 0.55557
vn -0.55557 0 0.83147
vn -0.19509 0 0.980785
vn 0.19509 0 0.980785
vn 0.55557 0 0.83147
vn 0.83147 0 0.55557
vn 0.980785 0 0.19509
vn 0.980785 0 -0.19509
vn 0.83147 0 -0.55557
vn 0.55557 0 -0.83147
vn 0.19509 0 -0.980785
vn -0.19509 0 -0.980785
vn -0.55557 0 -0.83147
vn -0.83147 0 -0.55557
vn -0.980785 0 -0.19509
vn -0.68676 -0.713933 0.136605
vn -0.582207 -0.713933 0.389018
vn -0.389018 -0.713933 0.582207
vn -0.136605 -0.713933 0.68676
vn 0.136605 -0.713933 0.68676
vn 0.389018 -0.713933 0.582207
vn 0.582207 -0.713933 0.389018
vn 0.68676 -0.713933 0.136605
vn 0.68676 -0.713933 -0.136605
vn 0.582207 -0.713933 -0.389018
vn 0.389018 -0.713933 -0.582207
vn 0.136605 -0.713933 -0.68676
vn -0.136605 -0.713933 -0.68676
vn -0.389018 -0.713933 -0.582207
vn -0.582207 -0.713933 -0.389018
vn -0.68676 -0.713933 -0.136605
vn 0 1 0
vn 0 -1 0
f 81/213/33 82/214/33 86/215/33 85/216/33
f 82/217/34 83/218/34 87/219/34 86/220/34
f 83/221/35 84/222/35 88/223/35 87/224/35
f 84/225/36 81/226/36 85/227/36 88/228/36
f 85/229/37 86/230/37 90/231/37 89/232/37
f 86/233/38 87/234/38 91/235/38 90/236/38
f 87/237/39 88/238/39 92/239/39 91/240/39
f 88/241/40 85/242/40 89/243/40 92/244/40
f 89/245/41 90/246/41 94/247/41 93/248/41
f 90/249/42 91/250/42 95/251/42 94/252/42
f 91/253/43 92/254/43 96/255/43 95/256/43
f 92/257/44 89/258/44 93/259/44 96/260/44
f 97/261/45 98/262/46 114/263/46 113/264/45
f 98/265/46 99/266/47 115/267/47 114/268/46
f 99/269/47 100/270/48 116/271/48 115/272/47
f 100/273/48 101/274/49 117/275/49 116/276/48
f 101/277/49 102/278/50 118/279/50 117/280/49
f 102/281/50 103/282/51 119/283/51 118/284/50
f 103/285/51 104/286/52 120/287/52 119/288/51
f 104/289/52 105/290/53 121/291/53 120/292/52
f 105/293/53 106/294/54 122/295/54 121/296/53
f 106/297/54 107/298/55 123/299/55 122/300/54
f 107/301/55 108/302/56 124/303/56 123/304/55
f 108/305/56 109/306/57 125/307/57 124/308/56
f 109/309/57 110/310/58 126/311/58 125/312/57
f 110/313/58 111/314/59 127/315/59 126/316/58
f 111/317/59 112/318/60 128/319/60 127/320/59
f 112/321/60 97/322/45 113/323/45 128/324/60
f 113/325/61 114/326/62 130/327/62 129/328/61
f 114/329/62 115/330/63 131/331/63 130/332/62
f 115/333/63 116/334/64 132/335/64 131/336/63
f 116/337/64 117/338/65 133/339/65 132/340/64
f 117/341/65 118/342/66 134/343/66 133/344/65
f 118/345/66 119/346/67 135/347/67 134/348/66
f 119/349/67 120/350/68 136/351/68 135/352/67
f 120/353/68 121/354/69 137/355/69 136/356/68
f 121/357/69 122/358/70 138/359/70 137/360/69
f 122/361/70 123/362/71 139/363/71 138/364/70
f 123/365/71 124/366/72 140/367/72 139/368/71
f 124/369/72 125/370/73 141/371/73 140/372/72
f 125/373/73 126/374/74 142/375/74 141/376/73
f 126/377/74 127/378/75 143/379/75 142/380/74
f 127/381/75 128/382/76 144/383/76 143/384/75
f 128/385/76 113/386/61 129/387/61 144/388/76
f 129/389/77 130/390/78 146/391/78 145/392/77
f 130/393/78 131/394/79 147/395/79 146/396/78
f 131/397/79 132/398/80 148/399/80 147/400/79
f 132/401/80 133/402/81 149/403/81 148/404/80
f 133/405/81 134/406/82 150/407/82 149/408/81
f 134/409/82 135/410/83 151/411/83 150/412/82
f 135/413/83 136/414/84 152/415/84 151/416/83
f 136/417/84 137/418/85 153/419/85 152/420/84
f 137/421/85 138/422/86 154/423/86 153/424/85
f 138/425/86 139/426/87 155/427/87 154/428/86
f 139/429/87 140/430/88 156/431/88 155/432/87
f 140/433/88 141/434/89 157/435/89 156/436/88
f 141/437/89 142/438/90 158/439/90 157/440/89
f 142/441/90 143/442/91 159/443/91 158/444/90
f 143/445/91 144/446/92 160/447/92 159/448/91
f 144/449/92 129/450/77 145/451/77 160/452/92
f 166/453/93 165/454/93 162/455/93
f 167/456/93 166/457/93 162/458/93
f 168/459/93 167/460/93 162/461/93
f 168/462/93 162/463/93 161/464/93
f 169/465/93 168/466/93 161/467/93
f 170/468/93 169/469/93 161/470/93
f 171/471/93 170/472/93 161/473/93
f 172/474/93 171/475/93 161/476/93
f 172/477/93 161/478/93 164/479/93
f 173/480/93 172/481/93 164/482/93
f 174/483/93 173/484/93 164/485/93
f 175/486/93 174/487/93 164/488/93
f 176/489/93 175/490/93 164/491/93
f 177/492/93 176/493/93 164/494/93
f 162/495/93 165/496/93 180/497/93
f 163/498/93 162/499/93 180/500/93
f 163/501/93 180/502/93 179/503/93
f 163/504/93 179/505/93 178/506/93
f 163/507/93 178/508/93 177/509/93
f 164/510/93 163/511/93 177/512/93
f 182/513/94 185/514/94 186/515/94
f 182/516/94 186/517/94 187/518/94
f 182/519/94 187/520/94 188/521/94
f 181/522/94 182/523/94 188/524/94
f 181/525/94 188/526/94 189/527/94
f 181/528/94 189/529/94 190/530/94
f 181/531/94 190/532/94 191/533/94
f 181/534/94 191/535/94 192/536/94
f 184/537/94 181/538/94 192/539/94
f 184/540/94 192/541/94 193/542/94
f 184/543/94 193/544/94 194/545/94
f 184/546/94 194/547/94 195/548/94
f 184/549/94 195/550/94 196/551/94
f 184/552/94 196/553/94 197/554/94
f 200/555/94 185/556/94 182/557/94
f 200/558/94 182/559/94 183/560/94
f 199/561/94 200/562/94 183/563/94
f 198/564/94 199/565/94 183/566/94
f 197/567/94 198/568/94 183/569/94
f 197/570/94 183/571/94 184/572/94
o column_base_port_socket
usemtl fuel_canopy
v 0.616468 0.03875 0.523167
v 0.598737 0.03875 0.565974
v 0.565974 0.03875 0.598737
v 0.523167 0.03875 0.616468
v 0.476833 0.03875 0.616468
v 0.434026 0.03875 0.598737
v 0.401263 0.03875 0.565974
v 0.383532 0.03875 0.523167
v 0.383532 0.03875 0.476833
v 0.401263 0.03875 0.434026
v 0.434026 0.03875 0.401263
v 0.476833 0.03875 0.383532
v 0.523167 0.03875 0.383532
v 0.565974 0.03875 0.401263
v 0.598737 0.03875 0.434026
v 0.616468 0.03875 0.476833
v 0.616468 0.02375 0.523167
v 0.598737 0.02375 0.565974
v 0.565974 0.02375 0.598737
v 0.523167 0.02375 0.616468
v 0.476833 0.02375 0.616468
v 0.434026 0.02375 0.598737
v 0.401263 0.02375 0.565974
v 0.383532 0.02375 0.523167
v 0.383532 0.02375 0.476833
v 0.401263 0.02375 0.434026
v 0.434026 0.02375 0.401263
v 0.476833 0.02375 0.383532
v 0.523167 0.02375 0.383532
v 0.565974 0.02375 0.401263
v 0.598737 0.02375 0.434026
v 0.616468 0.02375 0.476833
v 0.5 0.03875 0.5
v 0.5 0.02375 0.5
vt 0.008057 0.025859
vt 0.013396 0.025859
vt 0.013396 0.027588
vt 0.008057 0.027588
vt 0.0354 0.025859
vt 0.04074 0.025859
vt 0.04074 0.027588
vt 0.0354 0.027588
vt 0.991943 0.029766
vt 0.997283 0.029766
vt 0.997283 0.031494
vt 0.991943 0.031494
vt 0.020232 0.027588
vt 0.014893 0.027588
vt 0.014893 0.025859
vt 0.020232 0.025859
vt 0.054412 0.027588
vt 0.049072 0.027588
vt 0.049072 0.025859
vt 0.054412 0.025859
vt 0.983611 0.031494
vt 0.978271 0.031494
vt 0.978271 0.029766
vt 0.983611 0.029766
vt 0.068083 0.027588
vt 0.062744 0.027588
vt 0.062744 0.025859
vt 0.068083 0.025859
vt 0.928923 0.031494
vt 0.923584 0.031494
vt 0.923584 0.029766
vt 0.928923 0.029766
vt 0.081755 0.027588
vt 0.076416 0.027588
vt 0.076416 0.025859
vt 0.081755 0.025859
vt 0.969939 0.031494
vt 0.9646 0.031494
vt 0.9646 0.029766
vt 0.969939 0.029766
vt 0.136443 0.027588
vt 0.131104 0.027588
vt 0.131104 0.025859
vt 0.136443 0.025859
vt 0.935759 0.031494
vt 0.93042 0.031494
vt 0.93042 0.029766
vt 0.935759 0.029766
vt 0.117432 0.025859
vt 0.122771 0.025859
vt 0.122771 0.027588
vt 0.117432 0.027588
vt 0.10376 0.025859
vt 0.109099 0.025859
vt 0.109099 0.027588
vt 0.10376 0.027588
vt 0.083252 0.025859
vt 0.088591 0.025859
vt 0.088591 0.027588
vt 0.083252 0.027588
vt 0.937256 0.029766
vt 0.942595 0.029766
vt 0.942595 0.031494
vt 0.937256 0.031494
vt 0.178494 0.223299
vt 0.173561 0.225342
vt 0.170892 0.211921
vt 0.18227 0.219523
vt 0.178494 0.223299
vt 0.170892 0.211921
vt 0.184313 0.21459
vt 0.18227 0.219523
vt 0.170892 0.211921
vt 0.184313 0.209251
vt 0.184313 0.21459
vt 0.170892 0.211921
vt 0.18227 0.204318
vt 0.184313 0.209251
vt 0.170892 0.211921
vt 0.178494 0.200543
vt 0.18227 0.204318
vt 0.170892 0.211921
vt 0.173561 0.1985
vt 0.178494 0.200543
vt 0.170892 0.211921
vt 0.168222 0.1985
vt 0.173561 0.1985
vt 0.170892 0.211921
vt 0.163289 0.200543
vt 0.168222 0.1985
vt 0.170892 0.211921
vt 0.159514 0.204318
vt 0.163289 0.200543
vt 0.170892 0.211921
vt 0.157471 0.209251
vt 0.159514 0.204318
vt 0.170892 0.211921
vt 0.157471 0.21459
vt 0.157471 0.209251
vt 0.170892 0.211921
vt 0.159514 0.219523
vt 0.157471 0.21459
vt 0.170892 0.211921
vt 0.163289 0.223299
vt 0.159514 0.219523
vt 0.170892 0.211921
vt 0.168222 0.225342
vt 0.163289 0.223299
vt 0.170892 0.211921
vt 0.173561 0.225342
vt 0.168222 0.225342
vt 0.170892 0.211921
vt 0.199212 0.211921
vt 0.201882 0.1985
vt 0.206815 0.200543
vt 0.199212 0.211921
vt 0.206815 0.200543
vt 0.21059 0.204318
vt 0.199212 0.211921
vt 0.21059 0.204318
vt 0.212633 0.209251
vt 0.199212 0.211921
vt 0.212633 0.209251
vt 0.212633 0.21459
vt 0.199212 0.211921
vt 0.212633 0.21459
vt 0.21059 0.219523
vt 0.199212 0.211921
vt 0.21059 0.219523
vt 0.206815 0.223299
vt 0.199212 0.211921
vt 0.206815 0.223299
vt 0.201882 0.225342
vt 0.199212 0.211921
vt 0.201882 0.225342
vt 0.196543 0.225342
vt 0.199212 0.211921
vt 0.196543 0.225342
vt 0.19161 0.223299
vt 0.199212 0.211921
vt 0.19161 0.223299
vt 0.187834 0.219523
vt 0.199212 0.211921
vt 0.187834 0.219523
vt 0.185791 0.21459
vt 0.199212 0.211921
vt 0.185791 0.21459
vt 0.185791 0.209251
vt 0.199212 0.211921
vt 0.185791 0.209251
vt 0.187834 0.204318
vt 0.199212 0.211921
vt 0.187834 0.204318
vt 0.19161 0.200543
vt 0.199212 0.211921
vt 0.19161 0.200543
vt 0.196543 0.1985
vt 0.199212 0.211921
vt 0.196543 0.1985
vt 0.201882 0.1985
vn 0.92388 0 0.382683
vn 0.83147 0 0.55557
vn 0.55557 0 0.83147
vn 0.19509 0 0.980785
vn -0.19509 0 0.980785
vn -0.55557 0 0.83147
vn -0.83147 0 0.55557
vn -0.980785 0 0.19509
vn -0.980785 0 -0.19509
vn -0.83147 0 -0.55557
vn -0.55557 0 -0.83147
vn -0.19509 0 -0.980785
vn 0.19509 0 -0.980785
vn 0.55557 0 -0.83147
vn 0.83147 0 -0.55557
vn 0.92388 0 -0.382683
vn -1 0 0
vn 0 1 0
vn 0 -1 0
f 201/573/95 202/574/96 218/575/96 217/576/95
f 202/577/96 203/578/97 219/579/97 218/580/96
f 203/581/97 204/582/98 220/583/98 219/584/97
f 204/585/98 205/586/99 221/587/99 220/588/98
f 205/589/99 206/590/100 222/591/100 221/592/99
f 206/593/100 207/594/101 223/595/101 222/596/100
f 207/597/101 208/598/102 224/599/102 223/600/101
f 208/601/102 209/602/103 225/603/103 224/604/102
f 209/605/103 210/606/104 226/607/104 225/608/103
f 210/609/104 211/610/105 227/611/105 226/612/104
f 211/613/105 212/614/106 228/615/106 227/616/105
f 212/617/106 213/618/107 229/619/107 228/620/106
f 213/621/107 214/622/108 230/623/108 229/624/107
f 214/625/108 215/626/109 231/627/109 230/628/108
f 215/629/109 216/630/110 232/631/110 231/632/109
f 232/633/111 217/634/111 201/635/111 216/636/111
f 202/637/112 201/638/112 233/639/112
f 203/640/112 202/641/112 233/642/112
f 204/643/112 203/644/112 233/645/112
f 205/646/112 204/647/112 233/648/112
f 206/649/112 205/650/112 233/651/112
f 207/652/112 206/653/112 233/654/112
f 208/655/112 207/656/112 233/657/112
f 209/658/112 208/659/112 233/660/112
f 210/661/112 209/662/112 233/663/112
f 211/664/112 210/665/112 233/666/112
f 212/667/112 211/668/112 233/669/112
f 213/670/112 212/671/112 233/672/112
f 214/673/112 213/674/112 233/675/112
f 215/676/112 214/677/112 233/678/112
f 216/679/112 215/680/112 233/681/112
f 201/682/112 216/683/112 233/684/112
f 234/685/113 217/686/113 218/687/113
f 234/688/113 218/689/113 219/690/113
f 234/691/113 219/692/113 220/693/113
f 234/694/113 220/695/113 221/696/113
f 234/697/113 221/698/113 222/699/113
f 234/700/113 222/701/113 223/702/113
f 234/703/113 223/704/113 224/705/113
f 234/706/113 224/707/113 225/708/113
f 234/709/113 225/710/113 226/711/113
f 234/712/113 226/713/113 227/714/113
f 234/715/113 227/716/113 228/717/113
f 234/718/113 228/719/113 229/720/113
f 234/721/113 229/722/113 230/723/113
f 234/724/113 230/725/113 231/726/113
f 234/727/113 231/728/113 232/729/113
f 234/730/113 232/731/113 217/732/113
o column_base_port_pin
usemtl fuel_canopy
v 0.525984 0.02375 0.510763
v 0.510763 0.02375 0.525984
v 0.489237 0.02375 0.525984
v 0.474016 0.02375 0.510763
v 0.474016 0.02375 0.489237
v 0.489237 0.02375 0.474016
v 0.510763 0.02375 0.474016
v 0.525984 0.02375 0.489237
v 0.525984 0.01125 0.510763
v 0.510763 0.01125 0.525984
v 0.489237 0.01125 0.525984
v 0.474016 0.01125 0.510763
v 0.474016 0.01125 0.489237
v 0.489237 0.01125 0.474016
v 0.510763 0.01125 0.474016
v 0.525984 0.01125 0.489237
v 0.5 0.02375 0.5
v 0.5 0.01125 0.5
vt 0.505127 0.022729
vt 0.507607 0.022729
vt 0.507607 0.02417
vt 0.505127 0.02417
vt 0.490029 0.02417
vt 0.487549 0.02417
vt 0.487549 0.022729
vt 0.490029 0.022729
vt 0.516397 0.02417
vt 0.513916 0.02417
vt 0.513916 0.022729
vt 0.516397 0.022729
vt 0.494424 0.02417
vt 0.491943 0.02417
vt 0.491943 0.022729
vt 0.494424 0.022729
vt 0.525186 0.02417
vt 0.522705 0.02417
vt 0.522705 0.022729
vt 0.525186 0.022729
vt 0.472451 0.02417
vt 0.469971 0.02417
vt 0.469971 0.022729
vt 0.472451 0.022729
vt 0.531494 0.022729
vt 0.533975 0.022729
vt 0.533975 0.02417
vt 0.531494 0.02417
vt 0.47876 0.022729
vt 0.48124 0.022729
vt 0.48124 0.02417
vt 0.47876 0.02417
vt 0.558479 0.077592
vt 0.556725 0.079346
vt 0.555484 0.076351
vt 0.558479 0.075111
vt 0.558479 0.077592
vt 0.555484 0.076351
vt 0.556725 0.073357
vt 0.558479 0.075111
vt 0.555484 0.076351
vt 0.554244 0.073357
vt 0.556725 0.073357
vt 0.555484 0.076351
vt 0.55249 0.075111
vt 0.554244 0.073357
vt 0.555484 0.076351
vt 0.55249 0.077592
vt 0.55249 0.075111
vt 0.555484 0.076351
vt 0.554244 0.079346
vt 0.55249 0.077592
vt 0.555484 0.076351
vt 0.556725 0.079346
vt 0.554244 0.079346
vt 0.555484 0.076351
vt 0.563297 0.076351
vt 0.564537 0.073357
vt 0.566291 0.075111
vt 0.563297 0.076351
vt 0.566291 0.075111
vt 0.566291 0.077592
vt 0.563297 0.076351
vt 0.566291 0.077592
vt 0.564537 0.079346
vt 0.563297 0.076351
vt 0.564537 0.079346
vt 0.562057 0.079346
vt 0.563297 0.076351
vt 0.562057 0.079346
vt 0.560303 0.077592
vt 0.563297 0.076351
vt 0.560303 0.077592
vt 0.560303 0.075111
vt 0.563297 0.076351
vt 0.560303 0.075111
vt 0.562057 0.073357
vt 0.563297 0.076351
vt 0.562057 0.073357
vt 0.564537 0.073357
vn 0.707107 0 0.707107
vn 0 0 1
vn -0.707107 0 0.707107
vn -1 0 0
vn -0.707107 0 -0.707107
vn 0 0 -1
vn 0.707107 0 -0.707107
vn 0 1 0
vn 0 -1 0
f 235/733/114 236/734/114 244/735/114 243/736/114
f 236/737/115 237/738/115 245/739/115 244/740/115
f 237/741/116 238/742/116 246/743/116 245/744/116
f 238/745/117 239/746/117 247/747/117 246/748/117
f 239/749/118 240/750/118 248/751/118 247/752/118
f 240/753/119 241/754/119 249/755/119 248/756/119
f 241/757/120 242/758/120 250/759/120 249/760/120
f 250/761/117 243/762/117 235/763/117 242/764/117
f 236/765/121 235/766/121 251/767/121
f 237/768/121 236/769/121 251/770/121
f 238/771/121 237/772/121 251/773/121
f 239/774/121 238/775/121 251/776/121
f 240/777/121 239/778/121 251/779/121
f 241/780/121 240/781/121 251/782/121
f 242/783/121 241/784/121 251/785/121
f 235/786/121 242/787/121 251/788/121
f 252/789/122 243/790/122 244/791/122
f 252/792/122 244/793/122 245/794/122
f 252/795/122 245/796/122 246/797/122
f 252/798/122 246/799/122 247/800/122
f 252/801/122 247/802/122 248/803/122
f 252/804/122 248/805/122 249/806/122
f 252/807/122 249/808/122 250/809/122
f 252/810/122 250/811/122 243/812/122
o column_base_ped_cap
usemtl fuel_canopy
v 0.1325 0.3125 0.190607
v 0.1325 0.3125 0.809393
v 0.190607 0.3125 0.8675
v 0.809393 0.3125 0.8675
v 0.8675 0.3125 0.809393
v 0.8675 0.3125 0.190607
v 0.809393 0.3125 0.1325
v 0.190607 0.3125 0.1325
v 0.125 0.32 0.1875
v 0.125 0.32 0.8125
v 0.1875 0.32 0.875
v 0.8125 0.32 0.875
v 0.875 0.32 0.8125
v 0.875 0.32 0.1875
v 0.8125 0.32 0.125
v 0.1875 0.32 0.125
v 0.125 0.3425 0.1875
v 0.125 0.3425 0.8125
v 0.1875 0.3425 0.875
v 0.8125 0.3425 0.875
v 0.875 0.3425 0.8125
v 0.875 0.3425 0.1875
v 0.8125 0.3425 0.125
v 0.1875 0.3425 0.125
v 0.1325 0.35 0.190607
v 0.1325 0.35 0.809393
v 0.190607 0.35 0.8675
v 0.809393 0.35 0.8675
v 0.8675 0.35 0.809393
v 0.8675 0.35 0.190607
v 0.809393 0.35 0.1325
v 0.190607 0.35 0.1325
v 0.1325 0.3125 0.190607
v 0.1325 0.3125 0.809393
v 0.190607 0.3125 0.8675
v 0.809393 0.3125 0.8675
v 0.8675 0.3125 0.809393
v 0.8675 0.3125 0.190607
v 0.809393 0.3125 0.1325
v 0.190607 0.3125 0.1325
v 0.1325 0.35 0.190607
v 0.1325 0.35 0.809393
v 0.190607 0.35 0.8675
v 0.809393 0.35 0.8675
v 0.8675 0.35 0.809393
v 0.8675 0.35 0.190607
v 0.809393 0.35 0.1325
v 0.190607 0.35 0.1325
vt 0.001579 0.01953
vt 0.072884 0.01953
vt 0.073242 0.020752
vt 0.001221 0.020752
vt 0.960693 0.08693
vt 0.968425 0.081463
vt 0.969423 0.082254
vt 0.961107 0.088135
vt 0.434196 0.0166
vt 0.505501 0.0166
vt 0.505859 0.017822
vt 0.433838 0.017822
vt 0.927409 0.088135
vt 0.919678 0.082668
vt 0.920091 0.081463
vt 0.928407 0.087343
vt 0.146615 0.020752
vt 0.075309 0.020752
vt 0.074951 0.01953
vt 0.146973 0.01953
vt 0.979677 0.082668
vt 0.971945 0.088135
vt 0.970947 0.087343
vt 0.979264 0.081463
vt 0.579232 0.017822
vt 0.507926 0.017822
vt 0.507568 0.0166
vt 0.57959 0.0166
vt 0.93093 0.081463
vt 0.938661 0.08693
vt 0.938248 0.088135
vt 0.929932 0.082254
vt 0.727783 0.03769
vt 0.799805 0.03769
vt 0.799805 0.040283
vt 0.727783 0.040283
vt 0.074951 0.033296
vt 0.085137 0.033296
vt 0.085137 0.035889
vt 0.074951 0.035889
vt 0.801514 0.03769
vt 0.873535 0.03769
vt 0.873535 0.040283
vt 0.801514 0.040283
vt 0.096855 0.035889
vt 0.08667 0.035889
vt 0.08667 0.033296
vt 0.096855 0.033296
vt 0.947266 0.040283
vt 0.875244 0.040283
vt 0.875244 0.03769
vt 0.947266 0.03769
vt 0.108574 0.035889
vt 0.098389 0.035889
vt 0.098389 0.033296
vt 0.108574 0.033296
vt 0.001221 0.033296
vt 0.073242 0.033296
vt 0.073242 0.035889
vt 0.001221 0.035889
vt 0.110107 0.033296
vt 0.120293 0.033296
vt 0.120293 0.035889
vt 0.110107 0.035889
vt 0.148682 0.01953
vt 0.220703 0.01953
vt 0.220345 0.020752
vt 0.14904 0.020752
vt 0.052904 0.072674
vt 0.06122 0.078554
vt 0.060222 0.079346
vt 0.05249 0.073879
vt 0.294434 0.020752
vt 0.222412 0.020752
vt 0.22277 0.01953
vt 0.294076 0.01953
vt 0.040712 0.073465
vt 0.032396 0.079346
vt 0.031982 0.078141
vt 0.039714 0.072674
vt 0.368164 0.020752
vt 0.296143 0.020752
vt 0.296501 0.01953
vt 0.367806 0.01953
vt 0.07106 0.079346
vt 0.062744 0.073465
vt 0.063742 0.072674
vt 0.071474 0.078141
vt 0.369873 0.01953
vt 0.441895 0.01953
vt 0.441537 0.020752
vt 0.370231 0.020752
vt 0.042236 0.078554
vt 0.050553 0.072674
vt 0.050966 0.073879
vt 0.043234 0.079346
vt 0.172484 0.447021
vt 0.101178 0.447021
vt 0.094482 0.440326
vt 0.17918 0.440326
vt 0.172484 0.447021
vt 0.094482 0.440326
vt 0.17918 0.36902
vt 0.17918 0.440326
vt 0.094482 0.440326
vt 0.172484 0.362324
vt 0.17918 0.36902
vt 0.094482 0.440326
vt 0.101178 0.362324
vt 0.172484 0.362324
vt 0.094482 0.440326
vt 0.094482 0.440326
vt 0.094482 0.36902
vt 0.101178 0.362324
vt 0.180908 0.36902
vt 0.187604 0.362324
vt 0.25891 0.362324
vt 0.180908 0.36902
vt 0.25891 0.362324
vt 0.265605 0.36902
vt 0.180908 0.36902
vt 0.265605 0.36902
vt 0.265605 0.440326
vt 0.180908 0.36902
vt 0.265605 0.440326
vt 0.25891 0.447021
vt 0.180908 0.36902
vt 0.25891 0.447021
vt 0.187604 0.447021
vt 0.187604 0.447021
vt 0.180908 0.440326
vt 0.180908 0.36902
vn -0.692978 -0.718351 -0.061256
vn -0.692978 -0.718351 0.061256
vn -0.061256 -0.718351 0.692978
vn 0.061256 -0.718351 0.692978
vn 0.692978 -0.718351 0.061256
vn 0.692978 -0.718351 -0.061256
vn 0.061256 -0.718351 -0.692978
vn -0.061256 -0.718351 -0.692978
vn -1 0 0
vn -0.707107 0 0.707107
vn 0 0 1
vn 0.707107 0 0.707107
vn 1 0 0
vn 0.707107 0 -0.707107
vn 0 0 -1
vn -0.707107 0 -0.707107
vn -0.692978 0.718351 -0.061256
vn -0.692978 0.718351 0.061256
vn -0.061256 0.718351 0.692978
vn 0.061256 0.718351 0.692978
vn 0.692978 0.718351 0.061256
vn 0.692978 0.718351 -0.061256
vn 0.061256 0.718351 -0.692978
vn -0.061256 0.718351 -0.692978
vn 0 -1 0
vn 0 1 0
f 253/813/123 254/814/124 262/815/124 261/816/123
f 254/817/124 255/818/125 263/819/125 262/820/124
f 255/821/125 256/822/126 264/823/126 263/824/125
f 256/825/126 257/826/127 265/827/127 264/828/126
f 257/829/127 258/830/128 266/831/128 265/832/127
f 258/833/128 259/834/129 267/835/129 266/836/128
f 259/837/129 260/838/130 268/839/130 267/840/129
f 260/841/130 253/842/123 261/843/123 268/844/130
f 261/845/131 262/846/131 270/847/131 269/848/131
f 262/849/132 263/850/132 271/851/132 270/852/132
f 263/853/133 264/854/133 272/855/133 271/856/133
f 264/857/134 265/858/134 273/859/134 272/860/134
f 265/861/135 266/862/135 274/863/135 273/864/135
f 266/865/136 267/866/136 275/867/136 274/868/136
f 267/869/137 268/870/137 276/871/137 275/872/137
f 268/873/138 261/874/138 269/875/138 276/876/138
f 269/877/139 270/878/140 278/879/140 277/880/139
f 270/881/140 271/882/141 279/883/141 278/884/140
f 271/885/141 272/886/142 280/887/142 279/888/141
f 272/889/142 273/890/143 281/891/143 280/892/142
f 273/893/143 274/894/144 282/895/144 281/896/143
f 274/897/144 275/898/145 283/899/145 282/900/144
f 275/901/145 276/902/146 284/903/146 283/904/145
f 276/905/146 269/906/139 277/907/139 284/908/146
f 286/909/147 285/910/147 292/911/147
f 287/912/147 286/913/147 292/914/147
f 288/915/147 287/916/147 292/917/147
f 289/918/147 288/919/147 292/920/147
f 290/921/147 289/922/147 292/923/147
f 292/924/147 291/925/147 290/926/147
f 300/927/148 293/928/148 294/929/148
f 300/930/148 294/931/148 295/932/148
f 300/933/148 295/934/148 296/935/148
f 300/936/148 296/937/148 297/938/148
f 300/939/148 297/940/148 298/941/148
f 298/942/148 299/943/148 300/944/148
o column_base_base_plate
usemtl fuel_canopy
v 0.1675 0.35 0.227071
v 0.1675 0.35 0.772929
v 0.227071 0.35 0.8325
v 0.772929 0.35 0.8325
v 0.8325 0.35 0.772929
v 0.8325 0.35 0.227071
v 0.772929 0.35 0.1675
v 0.227071 0.35 0.1675
v 0.1625 0.355 0.225
v 0.1625 0.355 0.775
v 0.225 0.355 0.8375
v 0.775 0.355 0.8375
v 0.8375 0.355 0.775
v 0.8375 0.355 0.225
v 0.775 0.355 0.1625
v 0.225 0.355 0.1625
v 0.1625 0.37 0.225
v 0.1625 0.37 0.775
v 0.225 0.37 0.8375
v 0.775 0.37 0.8375
v 0.8375 0.37 0.775
v 0.8375 0.37 0.225
v 0.775 0.37 0.1625
v 0.225 0.37 0.1625
v 0.1675 0.375 0.227071
v 0.1675 0.375 0.772929
v 0.227071 0.375 0.8325
v 0.772929 0.375 0.8325
v 0.8325 0.375 0.772929
v 0.8325 0.375 0.227071
v 0.772929 0.375 0.1675
v 0.227071 0.375 0.1675
v 0.1675 0.35 0.227071
v 0.1675 0.35 0.772929
v 0.227071 0.35 0.8325
v 0.772929 0.35 0.8325
v 0.8325 0.35 0.772929
v 0.8325 0.35 0.227071
v 0.772929 0.35 0.1675
v 0.227071 0.35 0.1675
v 0.1675 0.375 0.227071
v 0.1675 0.375 0.772929
v 0.227071 0.375 0.8325
v 0.772929 0.375 0.8325
v 0.8325 0.375 0.772929
v 0.8325 0.375 0.227071
v 0.772929 0.375 0.1675
v 0.227071 0.375 0.1675
vt 0.718745 0.011148
vt 0.781646 0.011148
vt 0.781885 0.011963
vt 0.718506 0.011963
vt 0.298584 0.078543
vt 0.306511 0.072938
vt 0.307176 0.073465
vt 0.29886 0.079346
vt 0.06933 0.011148
vt 0.132232 0.011148
vt 0.132471 0.011963
vt 0.069092 0.011963
vt 0.162956 0.079346
vt 0.155029 0.073741
vt 0.155305 0.072938
vt 0.163621 0.078818
vt 0.846588 0.011963
vt 0.783686 0.011963
vt 0.783447 0.011148
vt 0.846826 0.011148
vt 0.31743 0.073741
vt 0.309503 0.079346
vt 0.308838 0.078818
vt 0.317154 0.072938
vt 0.197173 0.011963
vt 0.134272 0.011963
vt 0.134033 0.011148
vt 0.197412 0.011148
vt 0.165949 0.072938
vt 0.173875 0.078543
vt 0.1736 0.079346
vt 0.165283 0.073465
vt 0.310303 0.029766
vt 0.373682 0.029766
vt 0.373682 0.031494
vt 0.310303 0.031494
vt 0.829834 0.029766
vt 0.840019 0.029766
vt 0.840019 0.031494
vt 0.829834 0.031494
vt 0.375244 0.029766
vt 0.438623 0.029766
vt 0.438623 0.031494
vt 0.375244 0.031494
vt 0.851738 0.031494
vt 0.841553 0.031494
vt 0.841553 0.029766
vt 0.851738 0.029766
vt 0.503564 0.031494
vt 0.440186 0.031494
vt 0.440186 0.029766
vt 0.503564 0.029766
vt 0.863457 0.031494
vt 0.853271 0.031494
vt 0.853271 0.029766
vt 0.863457 0.029766
vt 0.505127 0.029766
vt 0.568506 0.029766
vt 0.568506 0.031494
vt 0.505127 0.031494
vt 0.86499 0.029766
vt 0.875176 0.029766
vt 0.875176 0.031494
vt 0.86499 0.031494
vt 0.45874 0.011148
vt 0.522119 0.011148
vt 0.52188 0.011963
vt 0.458979 0.011963
vt 0.278352 0.072938
vt 0.286668 0.078818
vt 0.286003 0.079346
vt 0.278076 0.073741
vt 0.262354 0.011963
vt 0.198975 0.011963
vt 0.199213 0.011148
vt 0.262115 0.011148
vt 0.225145 0.073465
vt 0.216828 0.079346
vt 0.216553 0.078543
vt 0.224479 0.072938
vt 0.587061 0.011963
vt 0.523682 0.011963
vt 0.52392 0.011148
vt 0.586822 0.011148
vt 0.296646 0.079346
vt 0.28833 0.073465
vt 0.288995 0.072938
vt 0.296922 0.078543
vt 0.263916 0.011148
vt 0.327295 0.011148
vt 0.327056 0.011963
vt 0.264155 0.011963
vt 0.226807 0.078818
vt 0.235123 0.072938
vt 0.235399 0.073741
vt 0.227472 0.079346
vt 0.672061 0.447021
vt 0.60916 0.447021
vt 0.602295 0.440157
vt 0.678926 0.440157
vt 0.672061 0.447021
vt 0.602295 0.440157
vt 0.678926 0.377255
vt 0.678926 0.440157
vt 0.602295 0.440157
vt 0.672061 0.370391
vt 0.678926 0.377255
vt 0.602295 0.440157
vt 0.60916 0.370391
vt 0.672061 0.370391
vt 0.602295 0.440157
vt 0.602295 0.440157
vt 0.602295 0.377255
vt 0.60916 0.370391
vt 0.68042 0.377255
vt 0.687285 0.370391
vt 0.750186 0.370391
vt 0.68042 0.377255
vt 0.750186 0.370391
vt 0.757051 0.377255
vt 0.68042 0.377255
vt 0.757051 0.377255
vt 0.757051 0.440157
vt 0.68042 0.377255
vt 0.757051 0.440157
vt 0.750186 0.447021
vt 0.68042 0.377255
vt 0.750186 0.447021
vt 0.687285 0.447021
vt 0.687285 0.447021
vt 0.68042 0.440157
vt 0.68042 0.377255
vn -0.690921 -0.719606 -0.06925
vn -0.690921 -0.719606 0.06925
vn -0.06925 -0.719606 0.690921
vn 0.06925 -0.719606 0.690921
vn 0.690921 -0.719606 0.06925
vn 0.690921 -0.719606 -0.06925
vn 0.06925 -0.719606 -0.690921
vn -0.06925 -0.719606 -0.690921
vn -1 0 0
vn -0.707107 0 0.707107
vn 0 0 1
vn 0.707107 0 0.707107
vn 1 0 0
vn 0.707107 0 -0.707107
vn 0 0 -1
vn -0.707107 0 -0.707107
vn -0.690921 0.719606 -0.06925
vn -0.690921 0.719606 0.06925
vn -0.06925 0.719606 0.690921
vn 0.06925 0.719606 0.690921
vn 0.690921 0.719606 0.06925
vn 0.690921 0.719606 -0.06925
vn 0.06925 0.719606 -0.690921
vn -0.06925 0.719606 -0.690921
vn 0 -1 0
vn 0 1 0
f 301/945/149 302/946/150 310/947/150 309/948/149
f 302/949/150 303/950/151 311/951/151 310/952/150
f 303/953/151 304/954/152 312/955/152 311/956/151
f 304/957/152 305/958/153 313/959/153 312/960/152
f 305/961/153 306/962/154 314/963/154 313/964/153
f 306/965/154 307/966/155 315/967/155 314/968/154
f 307/969/155 308/970/156 316/971/156 315/972/155
f 308/973/156 301/974/149 309/975/149 316/976/156
f 309/977/157 310/978/157 318/979/157 317/980/157
f 310/981/158 311/982/158 319/983/158 318/984/158
f 311/985/159 312/986/159 320/987/159 319/988/159
f 312/989/160 313/990/160 321/991/160 320/992/160
f 313/993/161 314/994/161 322/995/161 321/996/161
f 314/997/162 315/998/162 323/999/162 322/1000/162
f 315/1001/163 316/1002/163 324/1003/163 323/1004/163
f 316/1005/164 309/1006/164 317/1007/164 324/1008/164
f 317/1009/165 318/1010/166 326/1011/166 325/1012/165
f 318/1013/166 319/1014/167 327/1015/167 326/1016/166
f 319/1017/167 320/1018/168 328/1019/168 327/1020/167
f 320/1021/168 321/1022/169 329/1023/169 328/1024/168
f 321/1025/169 322/1026/170 330/1027/170 329/1028/169
f 322/1029/170 323/1030/171 331/1031/171 330/1032/170
f 323/1033/171 324/1034/172 332/1035/172 331/1036/171
f 324/1037/172 317/1038/165 325/1039/165 332/1040/172
f 334/1041/173 333/1042/173 340/1043/173
f 335/1044/173 334/1045/173 340/1046/173
f 336/1047/173 335/1048/173 340/1049/173
f 337/1050/173 336/1051/173 340/1052/173
f 338/1053/173 337/1054/173 340/1055/173
f 340/1056/173 339/1057/173 338/1058/173
f 348/1059/174 341/1060/174 342/1061/174
f 348/1062/174 342/1063/174 343/1064/174
f 348/1065/174 343/1066/174 344/1067/174
f 348/1068/174 344/1069/174 345/1070/174
f 348/1071/174 345/1072/174 346/1073/174
f 346/1074/174 347/1075/174 348/1076/174
o column_base_anchor_nuts
usemtl fuel_canopy
v 0.796528 0.375 0.78875
v 0.778125 0.375 0.799375
v 0.759722 0.375 0.78875
v 0.759722 0.375 0.7675
v 0.778125 0.375 0.756875
v 0.796528 0.375 0.7675
v 0.796528 0.395 0.78875
v 0.778125 0.395 0.799375
v 0.759722 0.395 0.78875
v 0.759722 0.395 0.7675
v 0.778125 0.395 0.756875
v 0.796528 0.395 0.7675
v 0.78895 0.4 0.784375
v 0.778125 0.4 0.790625
v 0.7673 0.4 0.784375
v 0.7673 0.4 0.771875
v 0.778125 0.4 0.765625
v 0.78895 0.4 0.771875
v 0.786785 0.4075 0.783125
v 0.778125 0.4075 0.788125
v 0.769465 0.4075 0.783125
v 0.769465 0.4075 0.773125
v 0.778125 0.4075 0.768125
v 0.786785 0.4075 0.773125
v 0.778125 0.4075 0.778125
v 0.240278 0.375 0.78875
v 0.221875 0.375 0.799375
v 0.203472 0.375 0.78875
v 0.203472 0.375 0.7675
v 0.221875 0.375 0.756875
v 0.240278 0.375 0.7675
v 0.240278 0.395 0.78875
v 0.221875 0.395 0.799375
v 0.203472 0.395 0.78875
v 0.203472 0.395 0.7675
v 0.221875 0.395 0.756875
v 0.240278 0.395 0.7675
v 0.2327 0.4 0.784375
v 0.221875 0.4 0.790625
v 0.21105 0.4 0.784375
v 0.21105 0.4 0.771875
v 0.221875 0.4 0.765625
v 0.2327 0.4 0.771875
v 0.230535 0.4075 0.783125
v 0.221875 0.4075 0.788125
v 0.213215 0.4075 0.783125
v 0.213215 0.4075 0.773125
v 0.221875 0.4075 0.768125
v 0.230535 0.4075 0.773125
v 0.221875 0.4075 0.778125
v 0.240278 0.375 0.2325
v 0.221875 0.375 0.243125
v 0.203472 0.375 0.2325
v 0.203472 0.375 0.21125
v 0.221875 0.375 0.200625
v 0.240278 0.375 0.21125
v 0.240278 0.395 0.2325
v 0.221875 0.395 0.243125
v 0.203472 0.395 0.2325
v 0.203472 0.395 0.21125
v 0.221875 0.395 0.200625
v 0.240278 0.395 0.21125
v 0.2327 0.4 0.228125
v 0.221875 0.4 0.234375
v 0.21105 0.4 0.228125
v 0.21105 0.4 0.215625
v 0.221875 0.4 0.209375
v 0.2327 0.4 0.215625
v 0.230535 0.4075 0.226875
v 0.221875 0.4075 0.231875
v 0.213215 0.4075 0.226875
v 0.213215 0.4075 0.216875
v 0.221875 0.4075 0.211875
v 0.230535 0.4075 0.216875
v 0.221875 0.4075 0.221875
v 0.796528 0.375 0.2325
v 0.778125 0.375 0.243125
v 0.759722 0.375 0.2325
v 0.759722 0.375 0.21125
v 0.778125 0.375 0.200625
v 0.796528 0.375 0.21125
v 0.796528 0.395 0.2325
v 0.778125 0.395 0.243125
v 0.759722 0.395 0.2325
v 0.759722 0.395 0.21125
v 0.778125 0.395 0.200625
v 0.796528 0.395 0.21125
v 0.78895 0.4 0.228125
v 0.778125 0.4 0.234375
v 0.7673 0.4 0.228125
v 0.7673 0.4 0.215625
v 0.778125 0.4 0.209375
v 0.78895 0.4 0.215625
v 0.786785 0.4075 0.226875
v 0.778125 0.4075 0.231875
v 0.769465 0.4075 0.226875
v 0.769465 0.4075 0.216875
v 0.778125 0.4075 0.211875
v 0.786785 0.4075 0.216875
v 0.778125 0.4075 0.221875
vt 0.306396 0.033584
vt 0.308845 0.033584
vt 0.308845 0.035889
vt 0.306396 0.035889
vt 0.392341 0.035889
vt 0.389893 0.035889
vt 0.389893 0.033584
vt 0.392341 0.033584
vt 0.137458 0.035889
vt 0.13501 0.035889
vt 0.13501 0.033584
vt 0.137458 0.033584
vt 0.31324 0.035889
vt 0.310791 0.035889
vt 0.310791 0.033584
vt 0.31324 0.033584
vt 0.139404 0.033584
vt 0.141853 0.033584
vt 0.141853 0.035889
vt 0.139404 0.035889
vt 0.143799 0.033584
vt 0.146248 0.033584
vt 0.146248 0.035889
vt 0.143799 0.035889
vt 0.186313 0.029528
vt 0.187497 0.030347
vt 0.187317 0.031494
vt 0.185303 0.030101
vt 0.154053 0.030347
vt 0.155237 0.029528
vt 0.156247 0.030101
vt 0.154233 0.031494
vt 0.155997 0.014893
vt 0.154557 0.014893
vt 0.154053 0.013846
vt 0.156501 0.013846
vt 0.127894 0.031494
vt 0.126709 0.030675
vt 0.12689 0.029528
vt 0.128903 0.030921
vt 0.304685 0.030675
vt 0.3035 0.031494
vt 0.30249 0.030921
vt 0.304504 0.029528
vt 0.12819 0.013846
vt 0.12963 0.013846
vt 0.130134 0.014893
vt 0.127686 0.014893
vt 0.622314 0.023297
vt 0.623353 0.022798
vt 0.623873 0.023546
vt 0.622574 0.02417
vt 0.565248 0.02417
vt 0.564209 0.023671
vt 0.564469 0.022798
vt 0.565767 0.023421
vt 0.429763 0.014893
vt 0.428611 0.014893
vt 0.428467 0.013993
vt 0.429907 0.013993
vt 0.593111 0.023671
vt 0.592072 0.02417
vt 0.591553 0.023421
vt 0.592851 0.022798
vt 0.544221 0.022798
vt 0.545259 0.023297
vt 0.545 0.02417
vt 0.543701 0.023546
vt 0.413962 0.013993
vt 0.415115 0.013993
vt 0.415259 0.014893
vt 0.413818 0.014893
vt 0.078232 0.030496
vt 0.077656 0.031494
vt 0.07708 0.030496
vt 0.077656 0.029498
vt 0.078232 0.030496
vt 0.07708 0.030496
vt 0.076504 0.029498
vt 0.077656 0.029498
vt 0.07708 0.030496
vt 0.075928 0.030496
vt 0.076504 0.029498
vt 0.07708 0.030496
vt 0.076504 0.031494
vt 0.075928 0.030496
vt 0.07708 0.030496
vt 0.077656 0.031494
vt 0.076504 0.031494
vt 0.07708 0.030496
vt 0.394287 0.033584
vt 0.396736 0.033584
vt 0.396736 0.035889
vt 0.394287 0.035889
vt 0.317634 0.035889
vt 0.315186 0.035889
vt 0.315186 0.033584
vt 0.317634 0.033584
vt 0.150642 0.035889
vt 0.148193 0.035889
vt 0.148193 0.033584
vt 0.150642 0.033584
vt 0.155037 0.035889
vt 0.152588 0.035889
vt 0.152588 0.033584
vt 0.155037 0.033584
vt 0.31958 0.033584
vt 0.322029 0.033584
vt 0.322029 0.035889
vt 0.31958 0.035889
vt 0.156982 0.033584
vt 0.159431 0.033584
vt 0.159431 0.035889
vt 0.156982 0.035889
vt 0.135531 0.029528
vt 0.136716 0.030347
vt 0.136535 0.031494
vt 0.134521 0.030101
vt 0.150146 0.030347
vt 0.151331 0.029528
vt 0.152341 0.030101
vt 0.150327 0.031494
vt 0.112052 0.014893
vt 0.110612 0.014893
vt 0.110107 0.013846
vt 0.112556 0.013846
vt 0.143519 0.031494
vt 0.142334 0.030675
vt 0.142515 0.029528
vt 0.144528 0.030921
vt 0.300778 0.030675
vt 0.299594 0.031494
vt 0.298584 0.030921
vt 0.300598 0.029528
vt 0.132584 0.013846
vt 0.134025 0.013846
vt 0.134529 0.014893
vt 0.13208 0.014893
vt 0.594971 0.023297
vt 0.596009 0.022798
vt 0.596529 0.023546
vt 0.59523 0.02417
vt 0.554994 0.02417
vt 0.553955 0.023671
vt 0.554215 0.022798
vt 0.555513 0.023421
vt 0.432693 0.014893
vt 0.431541 0.014893
vt 0.431396 0.013993
vt 0.432837 0.013993
vt 0.630708 0.023671
vt 0.62967 0.02417
vt 0.62915 0.023421
vt 0.630449 0.022798
vt 0.568146 0.022798
vt 0.569185 0.023297
vt 0.568925 0.02417
vt 0.567627 0.023546
vt 0.481345 0.013993
vt 0.482498 0.013993
vt 0.482642 0.014893
vt 0.481201 0.014893
vt 0.082139 0.030496
vt 0.081562 0.031494
vt 0.080986 0.030496
vt 0.081562 0.029498
vt 0.082139 0.030496
vt 0.080986 0.030496
vt 0.08041 0.029498
vt 0.081562 0.029498
vt 0.080986 0.030496
vt 0.079834 0.030496
vt 0.08041 0.029498
vt 0.080986 0.030496
vt 0.08041 0.031494
vt 0.079834 0.030496
vt 0.080986 0.030496
vt 0.081562 0.031494
vt 0.08041 0.031494
vt 0.080986 0.030496
vt 0.323975 0.033584
vt 0.326423 0.033584
vt 0.326423 0.035889
vt 0.323975 0.035889
vt 0.163826 0.035889
vt 0.161377 0.035889
vt 0.161377 0.033584
vt 0.163826 0.033584
vt 0.16822 0.035889
vt 0.165771 0.035889
vt 0.165771 0.033584
vt 0.16822 0.033584
vt 0.330818 0.035889
vt 0.328369 0.035889
vt 0.328369 0.033584
vt 0.330818 0.033584
vt 0.398682 0.033584
vt 0.40113 0.033584
vt 0.40113 0.035889
vt 0.398682 0.035889
vt 0.170166 0.033584
vt 0.172615 0.033584
vt 0.172615 0.035889
vt 0.170166 0.035889
vt 0.131625 0.029528
vt 0.13281 0.030347
vt 0.132629 0.031494
vt 0.130615 0.030101
vt 0.232178 0.030347
vt 0.233362 0.029528
vt 0.234372 0.030101
vt 0.232358 0.031494
vt 0.116447 0.014893
vt 0.115006 0.014893
vt 0.114502 0.013846
vt 0.116951 0.013846
vt 0.190394 0.031494
vt 0.189209 0.030675
vt 0.18939 0.029528
vt 0.191403 0.030921
vt 0.296872 0.030675
vt 0.295688 0.031494
vt 0.294678 0.030921
vt 0.296692 0.029528
vt 0.136979 0.013846
vt 0.138419 0.013846
vt 0.138923 0.014893
vt 0.136475 0.014893
vt 0.598389 0.023297
vt 0.599427 0.022798
vt 0.599947 0.023546
vt 0.598648 0.02417
vt 0.633607 0.02417
vt 0.632568 0.023671
vt 0.632828 0.022798
vt 0.634126 0.023421
vt 0.435623 0.014893
vt 0.43447 0.014893
vt 0.434326 0.013993
vt 0.435767 0.013993
vt 0.62729 0.023671
vt 0.626252 0.02417
vt 0.625732 0.023421
vt 0.627031 0.022798
vt 0.571564 0.022798
vt 0.572603 0.023297
vt 0.572343 0.02417
vt 0.571045 0.023546
vt 0.416892 0.013993
vt 0.418044 0.013993
vt 0.418188 0.014893
vt 0.416748 0.014893
vt 0.086045 0.030496
vt 0.085469 0.031494
vt 0.084893 0.030496
vt 0.085469 0.029498
vt 0.086045 0.030496
vt 0.084893 0.030496
vt 0.084316 0.029498
vt 0.085469 0.029498
vt 0.084893 0.030496
vt 0.08374 0.030496
vt 0.084316 0.029498
vt 0.084893 0.030496
vt 0.084316 0.031494
vt 0.08374 0.030496
vt 0.084893 0.030496
vt 0.085469 0.031494
vt 0.084316 0.031494
vt 0.084893 0.030496
vt 0.174561 0.033584
vt 0.177009 0.033584
vt 0.177009 0.035889
vt 0.174561 0.035889
vt 0.335212 0.035889
vt 0.332764 0.035889
vt 0.332764 0.033584
vt 0.335212 0.033584
vt 0.181404 0.035889
vt 0.178955 0.035889
vt 0.178955 0.033584
vt 0.181404 0.033584
vt 0.405525 0.035889
vt 0.403076 0.035889
vt 0.403076 0.033584
vt 0.405525 0.033584
vt 0.337158 0.033584
vt 0.339607 0.033584
vt 0.339607 0.035889
vt 0.337158 0.035889
vt 0.18335 0.033584
vt 0.185798 0.033584
vt 0.185798 0.035889
vt 0.18335 0.035889
vt 0.14725 0.029528
vt 0.148435 0.030347
vt 0.148254 0.031494
vt 0.14624 0.030101
vt 0.193115 0.030347
vt 0.1943 0.029528
vt 0.19531 0.030101
vt 0.193296 0.031494
vt 0.160392 0.014893
vt 0.158951 0.014893
vt 0.158447 0.013846
vt 0.160896 0.013846
vt 0.139612 0.031494
vt 0.138428 0.030675
vt 0.138608 0.029528
vt 0.140622 0.030921
vt 0.230466 0.030675
vt 0.229281 0.031494
vt 0.228271 0.030921
vt 0.230285 0.029528
vt 0.141373 0.013846
vt 0.142814 0.013846
vt 0.143318 0.014893
vt 0.140869 0.014893
vt 0.635986 0.023297
vt 0.637025 0.022798
vt 0.637544 0.023546
vt 0.636246 0.02417
vt 0.640443 0.02417
vt 0.639404 0.023671
vt 0.639664 0.022798
vt 0.640962 0.023421
vt 0.438552 0.014893
vt 0.4374 0.014893
vt 0.437256 0.013993
vt 0.438696 0.013993
vt 0.603365 0.023671
vt 0.602326 0.02417
vt 0.601807 0.023421
vt 0.603105 0.022798
vt 0.547638 0.022798
vt 0.548677 0.023297
vt 0.548418 0.02417
vt 0.547119 0.023546
vt 0.475486 0.013993
vt 0.476638 0.013993
vt 0.476782 0.014893
vt 0.475342 0.014893
vt 0.089951 0.030496
vt 0.089375 0.031494
vt 0.088799 0.030496
vt 0.089375 0.029498
vt 0.089951 0.030496
vt 0.088799 0.030496
vt 0.088223 0.029498
vt 0.089375 0.029498
vt 0.088799 0.030496
vt 0.087646 0.030496
vt 0.088223 0.029498
vt 0.088799 0.030496
vt 0.088223 0.031494
vt 0.087646 0.030496
vt 0.088799 0.030496
vt 0.089375 0.031494
vt 0.088223 0.031494
vt 0.088799 0.030496
vn 0.5 0 0.866025
vn -0.5 0 0.866025
vn -1 0 0
vn -0.5 0 -0.866025
vn 0.5 0 -0.866025
vn 1 0 0
vn 0.429669 0.868243 0.248069
vn 0 0.868243 0.496139
vn -0.429669 0.868243 0.248069
vn -0.429669 0.868243 -0.248069
vn 0 0.868243 -0.496139
vn 0.429669 0.868243 -0.248069
vn 0.480384 0.27735 0.83205
vn -0.480384 0.27735 0.83205
vn -0.960769 0.27735 0
vn -0.480384 0.27735 -0.83205
vn 0.480384 0.27735 -0.83205
vn 0.960769 0.27735 0
vn 0 1 0
f 355/1077/175 356/1078/175 350/1079/175 349/1080/175
f 356/1081/176 357/1082/176 351/1083/176 350/1084/176
f 357/1085/177 358/1086/177 352/1087/177 351/1088/177
f 358/1089/178 359/1090/178 353/1091/178 352/1092/178
f 359/1093/179 360/1094/179 354/1095/179 353/1096/179
f 360/1097/180 355/1098/180 349/1099/180 354/1100/180
f 361/1101/181 362/1102/182 356/1103/182 355/1104/181
f 362/1105/182 363/1106/183 357/1107/183 356/1108/182
f 363/1109/183 364/1110/184 358/1111/184 357/1112/183
f 364/1113/184 365/1114/185 359/1115/185 358/1116/184
f 365/1117/185 366/1118/186 360/1119/186 359/1120/185
f 366/1121/186 361/1122/181 355/1123/181 360/1124/186
f 367/1125/187 368/1126/187 362/1127/187 361/1128/187
f 368/1129/188 369/1130/188 363/1131/188 362/1132/188
f 369/1133/189 370/1134/189 364/1135/189 363/1136/189
f 370/1137/190 371/1138/190 365/1139/190 364/1140/190
f 371/1141/191 372/1142/191 366/1143/191 365/1144/191
f 372/1145/192 367/1146/192 361/1147/192 366/1148/192
f 368/1149/193 367/1150/193 373/1151/193
f 369/1152/193 368/1153/193 373/1154/193
f 370/1155/193 369/1156/193 373/1157/193
f 371/1158/193 370/1159/193 373/1160/193
f 372/1161/193 371/1162/193 373/1163/193
f 367/1164/193 372/1165/193 373/1166/193
f 380/1167/175 381/1168/175 375/1169/175 374/1170/175
f 381/1171/176 382/1172/176 376/1173/176 375/1174/176
f 382/1175/177 383/1176/177 377/1177/177 376/1178/177
f 383/1179/178 384/1180/178 378/1181/178 377/1182/178
f 384/1183/179 385/1184/179 379/1185/179 378/1186/179
f 385/1187/180 380/1188/180 374/1189/180 379/1190/180
f 386/1191/181 387/1192/182 381/1193/182 380/1194/181
f 387/1195/182 388/1196/183 382/1197/183 381/1198/182
f 388/1199/183 389/1200/184 383/1201/184 382/1202/183
f 389/1203/184 390/1204/185 384/1205/185 383/1206/184
f 390/1207/185 391/1208/186 385/1209/186 384/1210/185
f 391/1211/186 386/1212/181 380/1213/181 385/1214/186
f 392/1215/187 393/1216/187 387/1217/187 386/1218/187
f 393/1219/188 394/1220/188 388/1221/188 387/1222/188
f 394/1223/189 395/1224/189 389/1225/189 388/1226/189
f 395/1227/190 396/1228/190 390/1229/190 389/1230/190
f 396/1231/191 397/1232/191 391/1233/191 390/1234/191
f 397/1235/192 392/1236/192 386/1237/192 391/1238/192
f 393/1239/193 392/1240/193 398/1241/193
f 394/1242/193 393/1243/193 398/1244/193
f 395/1245/193 394/1246/193 398/1247/193
f 396/1248/193 395/1249/193 398/1250/193
f 397/1251/193 396/1252/193 398/1253/193
f 392/1254/193 397/1255/193 398/1256/193
f 405/1257/175 406/1258/175 400/1259/175 399/1260/175
f 406/1261/176 407/1262/176 401/1263/176 400/1264/176
f 407/1265/177 408/1266/177 402/1267/177 401/1268/177
f 408/1269/178 409/1270/178 403/1271/178 402/1272/178
f 409/1273/179 410/1274/179 404/1275/179 403/1276/179
f 410/1277/180 405/1278/180 399/1279/180 404/1280/180
f 411/1281/181 412/1282/182 406/1283/182 405/1284/181
f 412/1285/182 413/1286/183 407/1287/183 406/1288/182
f 413/1289/183 414/1290/184 408/1291/184 407/1292/183
f 414/1293/184 415/1294/185 409/1295/185 408/1296/184
f 415/1297/185 416/1298/186 410/1299/186 409/1300/185
f 416/1301/186 411/1302/181 405/1303/181 410/1304/186
f 417/1305/187 418/1306/187 412/1307/187 411/1308/187
f 418/1309/188 419/1310/188 413/1311/188 412/1312/188
f 419/1313/189 420/1314/189 414/1315/189 413/1316/189
f 420/1317/190 421/1318/190 415/1319/190 414/1320/190
f 421/1321/191 422/1322/191 416/1323/191 415/1324/191
f 422/1325/192 417/1326/192 411/1327/192 416/1328/192
f 418/1329/193 417/1330/193 423/1331/193
f 419/1332/193 418/1333/193 423/1334/193
f 420/1335/193 419/1336/193 423/1337/193
f 421/1338/193 420/1339/193 423/1340/193
f 422/1341/193 421/1342/193 423/1343/193
f 417/1344/193 422/1345/193 423/1346/193
f 430/1347/175 431/1348/175 425/1349/175 424/1350/175
f 431/1351/176 432/1352/176 426/1353/176 425/1354/176
f 432/1355/177 433/1356/177 427/1357/177 426/1358/177
f 433/1359/178 434/1360/178 428/1361/178 427/1362/178
f 434/1363/179 435/1364/179 429/1365/179 428/1366/179
f 435/1367/180 430/1368/180 424/1369/180 429/1370/180
f 436/1371/181 437/1372/182 431/1373/182 430/1374/181
f 437/1375/182 438/1376/183 432/1377/183 431/1378/182
f 438/1379/183 439/1380/184 433/1381/184 432/1382/183
f 439/1383/184 440/1384/185 434/1385/185 433/1386/184
f 440/1387/185 441/1388/186 435/1389/186 434/1390/185
f 441/1391/186 436/1392/181 430/1393/181 435/1394/186
f 442/1395/187 443/1396/187 437/1397/187 436/1398/187
f 443/1399/188 444/1400/188 438/1401/188 437/1402/188
f 444/1403/189 445/1404/189 439/1405/189 438/1406/189
f 445/1407/190 446/1408/190 440/1409/190 439/1410/190
f 446/1411/191 447/1412/191 441/1413/191 440/1414/191
f 447/1415/192 442/1416/192 436/1417/192 441/1418/192
f 443/1419/193 442/1420/193 448/1421/193
f 444/1422/193 443/1423/193 448/1424/193
f 445/1425/193 444/1426/193 448/1427/193
f 446/1428/193 445/1429/193 448/1430/193
f 447/1431/193 446/1432/193 448/1433/193
f 442/1434/193 447/1435/193 448/1436/193
o column_base_tube
usemtl fuel_canopy
v 0.21875 0.375 0.275
v 0.21875 0.375 0.725
v 0.275 0.375 0.78125
v 0.725 0.375 0.78125
v 0.78125 0.375 0.725
v 0.78125 0.375 0.275
v 0.725 0.375 0.21875
v 0.275 0.375 0.21875
v 0.21875 1 0.275
v 0.21875 1 0.725
v 0.275 1 0.78125
v 0.725 1 0.78125
v 0.78125 1 0.725
v 0.78125 1 0.275
v 0.725 1 0.21875
v 0.275 1 0.21875
v 0.21875 0.375 0.275
v 0.21875 0.375 0.725
v 0.275 0.375 0.78125
v 0.725 0.375 0.78125
v 0.78125 0.375 0.725
v 0.78125 0.375 0.275
v 0.725 0.375 0.21875
v 0.275 0.375 0.21875
v 0.21875 1 0.275
v 0.21875 1 0.725
v 0.275 1 0.78125
v 0.725 1 0.78125
v 0.78125 1 0.725
v 0.78125 1 0.275
v 0.725 1 0.21875
v 0.275 1 0.21875
vt 0.189941 0.227197
vt 0.189941 0.279053
vt 0.11792 0.279053
vt 0.11792 0.227197
vt 0.189941 0.119007
vt 0.189941 0.128174
vt 0.11792 0.128174
vt 0.11792 0.119007
vt 0.19165 0.279053
vt 0.19165 0.227197
vt 0.263672 0.227197
vt 0.263672 0.279053
vt 0.19165 0.128174
vt 0.19165 0.119007
vt 0.263672 0.119007
vt 0.263672 0.128174
vt 0.265381 0.279053
vt 0.265381 0.227197
vt 0.337402 0.227197
vt 0.337402 0.279053
vt 0.265381 0.128174
vt 0.265381 0.119007
vt 0.337402 0.119007
vt 0.337402 0.128174
vt 0.339111 0.279053
vt 0.339111 0.227197
vt 0.411133 0.227197
vt 0.411133 0.279053
vt 0.411133 0.119007
vt 0.411133 0.128174
vt 0.339111 0.128174
vt 0.339111 0.119007
vt 0.276843 0.35376
vt 0.224988 0.35376
vt 0.218506 0.347278
vt 0.283325 0.347278
vt 0.276843 0.35376
vt 0.218506 0.347278
vt 0.283325 0.295422
vt 0.283325 0.347278
vt 0.218506 0.347278
vt 0.276843 0.28894
vt 0.283325 0.295422
vt 0.218506 0.347278
vt 0.224988 0.28894
vt 0.276843 0.28894
vt 0.218506 0.347278
vt 0.218506 0.347278
vt 0.218506 0.295422
vt 0.224988 0.28894
vt 0.284912 0.295422
vt 0.291394 0.28894
vt 0.34325 0.28894
vt 0.284912 0.295422
vt 0.34325 0.28894
vt 0.349731 0.295422
vt 0.284912 0.295422
vt 0.349731 0.295422
vt 0.349731 0.347278
vt 0.284912 0.295422
vt 0.349731 0.347278
vt 0.34325 0.35376
vt 0.284912 0.295422
vt 0.34325 0.35376
vt 0.291394 0.35376
vt 0.291394 0.35376
vt 0.284912 0.347278
vt 0.284912 0.295422
vn -1 0 0
vn -0.707107 0 0.707107
vn 0 0 1
vn 0.707107 0 0.707107
vn 1 0 0
vn 0.707107 0 -0.707107
vn 0 0 -1
vn -0.707107 0 -0.707107
vn 0 -1 0
vn 0 1 0
f 449/1437/194 450/1438/194 458/1439/194 457/1440/194
f 450/1441/195 451/1442/195 459/1443/195 458/1444/195
f 451/1445/196 452/1446/196 460/1447/196 459/1448/196
f 452/1449/197 453/1450/197 461/1451/197 460/1452/197
f 453/1453/198 454/1454/198 462/1455/198 461/1456/198
f 454/1457/199 455/1458/199 463/1459/199 462/1460/199
f 455/1461/200 456/1462/200 464/1463/200 463/1464/200
f 456/1465/201 449/1466/201 457/1467/201 464/1468/201
f 466/1469/202 465/1470/202 472/1471/202
f 467/1472/202 466/1473/202 472/1474/202
f 468/1475/202 467/1476/202 472/1477/202
f 469/1478/202 468/1479/202 472/1480/202
f 470/1481/202 469/1482/202 472/1483/202
f 472/1484/202 471/1485/202 470/1486/202
f 480/1487/203 473/1488/203 474/1489/203
f 480/1490/203 474/1491/203 475/1492/203
f 480/1493/203 475/1494/203 476/1495/203
f 480/1496/203 476/1497/203 477/1498/203
f 480/1499/203 477/1500/203 478/1501/203
f 478/1502/203 479/1503/203 480/1504/203
