# AFL Fuel Canopy V1 column, bottom segment set into an island curb, generated by tools/build-fuel-canopy-v1.mjs
mtllib column_base_curb.mtl
o column_base_curb_curb_foot
usemtl fuel_canopy
v 0 0 1
v 1 0 1
v 1 0 0
v 0 0 0
v 0 0.0375 1
v 1 0.0375 1
v 1 0.0375 0
v 0 0.0375 0
v 0.309375 0 0.309375
v 0.690625 0 0.309375
v 0.690625 0 0.690625
v 0.309375 0 0.690625
v 0.309375 0.0375 0.309375
v 0.690625 0.0375 0.309375
v 0.690625 0.0375 0.690625
v 0.309375 0.0375 0.690625
v 0 0 1
v 1 0 1
v 1 0 0
v 0 0 0
v 0.309375 0 0.309375
v 0.690625 0 0.309375
v 0.690625 0 0.690625
v 0.309375 0 0.690625
v 0 0.0375 1
v 1 0.0375 1
v 1 0.0375 0
v 0 0.0375 0
v 0.309375 0.0375 0.309375
v 0.690625 0.0375 0.309375
v 0.690625 0.0375 0.690625
v 0.309375 0.0375 0.690625
vt 0.001221 0.059399
vt 0.116455 0.059399
vt 0.116455 0.063721
vt 0.001221 0.063721
vt 0.233154 0.063721
vt 0.11792 0.063721
vt 0.11792 0.059399
vt 0.233154 0.059399
vt 0.234619 0.059399
vt 0.349854 0.059399
vt 0.349854 0.063721
vt 0.234619 0.063721
vt 0.351318 0.059399
vt 0.466553 0.059399
vt 0.466553 0.063721
vt 0.351318 0.063721
vt 0.776611 0.047681
vt 0.820544 0.047681
vt 0.820544 0.052002
vt 0.776611 0.052002
vt 0.822021 0.047681
vt 0.865955 0.047681
vt 0.865955 0.052002
vt 0.822021 0.052002
vt 0.867432 0.047681
vt 0.911365 0.047681
vt 0.911365 0.052002
vt 0.867432 0.052002
vt 0.956775 0.052002
vt 0.912842 0.052002
vt 0.912842 0.047681
vt 0.956775 0.047681
vt 0.314203 0.919196
vt 0.349854 0.883545
vt 0.349854 0.998779
vt 0.314203 0.963129
vt 0.314203 0.919196
vt 0.349854 0.998779
vt 0.314203 0.963129
vt 0.349854 0.998779
vt 0.234619 0.998779
vt 0.27027 0.963129
vt 0.314203 0.963129
vt 0.234619 0.998779
vt 0.27027 0.919196
vt 0.27027 0.963129
vt 0.234619 0.998779
vt 0.349854 0.883545
vt 0.314203 0.919196
vt 0.27027 0.919196
vt 0.234619 0.883545
vt 0.349854 0.883545
vt 0.27027 0.919196
vt 0.234619 0.998779
vt 0.234619 0.883545
vt 0.27027 0.919196
vt 0.466553 0.883545
vt 0.466553 0.998779
vt 0.430902 0.963129
vt 0.466553 0.883545
vt 0.430902 0.963129
vt 0.430902 0.919196
vt 0.351318 0.883545
vt 0.466553 0.883545
vt 0.430902 0.919196
vt 0.351318 0.883545
vt 0.430902 0.919196
vt 0.386969 0.919196
vt 0.351318 0.883545
vt 0.386969 0.919196
vt 0.386969 0.963129
vt 0.386969 0.963129
vt 0.430902 0.963129
vt 0.466553 0.998779
vt 0.386969 0.963129
vt 0.466553 0.998779
vt 0.351318 0.998779
vt 0.386969 0.963129
vt 0.351318 0.998779
vt 0.351318 0.883545
vn 0 0 1
vn 1 0 0
vn 0 0 -1
vn -1 0 0
vn 0 -1 0
vn 0 1 0
f 1/1/1 2/2/1 6/3/1 5/4/1
f 2/5/2 3/6/2 7/7/2 6/8/2
f 3/9/3 4/10/3 8/11/3 7/12/3
f 4/13/4 1/14/4 5/15/4 8/16/4
f 9/17/1 10/18/1 14/19/1 13/20/1
f 10/21/4 11/22/4 15/23/4 14/24/4
f 11/25/3 12/26/3 16/27/3 15/28/3
f 12/29/2 9/30/2 13/31/2 16/32/2
f 23/33/5 18/34/5 17/35/5
f 24/36/5 23/37/5 17/38/5
f 24/39/5 17/40/5 20/41/5
f 21/42/5 24/43/5 20/44/5
f 22/45/5 21/46/5 20/47/5
f 18/48/5 23/49/5 22/50/5
f 19/51/5 18/52/5 22/53/5
f 20/54/5 19/55/5 22/56/5
f 25/57/6 26/58/6 31/59/6
f 25/60/6 31/61/6 32/62/6
f 28/63/6 25/64/6 32/65/6
f 28/66/6 32/67/6 29/68/6
f 28/69/6 29/70/6 30/71/6
f 30/72/6 31/73/6 26/74/6
f 30/75/6 26/76/6 27/77/6
f 30/78/6 27/79/6 28/80/6
o column_base_curb_curb
usemtl fuel_canopy
v 0 0.0375 0
v 1 0.0375 0
v 1 0.0375 1
v 0 0.0375 1
v 0 0.1875 0
v 1 0.1875 0
v 1 0.1875 1
v 0 0.1875 1
v 0 0.0375 0
v 1 0.0375 0
v 1 0.1875 0
v 0 0.1875 0
v 0 0.0375 1
v 1 0.0375 1
v 1 0.1875 1
v 0 0.1875 1
v 0 0.0375 0
v 0 0.0375 1
v 0 0.1875 1
v 0 0.1875 0
v 1 0.0375 0
v 1 0.0375 1
v 1 0.1875 1
v 1 0.1875 0
vt 0.468018 0.998779
vt 0.468018 0.883545
vt 0.583252 0.883545
vt 0.583252 0.998779
vt 0.699951 0.883545
vt 0.699951 0.998779
vt 0.584717 0.998779
vt 0.584717 0.883545
vt 0.437256 0.189697
vt 0.322021 0.189697
vt 0.322021 0.172412
vt 0.437256 0.172412
vt 0.438721 0.172412
vt 0.553955 0.172412
vt 0.553955 0.189697
vt 0.438721 0.189697
vt 0.55542 0.172412
vt 0.670654 0.172412
vt 0.670654 0.189697
vt 0.55542 0.189697
vt 0.672119 0.172412
vt 0.787354 0.172412
vt 0.787354 0.189697
vt 0.672119 0.189697
vn 0 -1 0
vn 0 1 0
vn 0 0 -1
vn 0 0 1
vn -1 0 0
vn 1 0 0
f 33/81/7 34/82/7 35/83/7 36/84/7
f 40/85/8 39/86/8 38/87/8 37/88/8
f 44/89/9 43/90/9 42/91/9 41/92/9
f 45/93/10 46/94/10 47/95/10 48/96/10
f 49/97/11 50/98/11 51/99/11 52/100/11
f 56/101/12 55/102/12 54/103/12 53/104/12
o column_base_curb_nosing
usemtl fuel_canopy
v 0.000625 0.1 -0.008125
v 0.000625 0.1 0.0025
v 0.000625 0.18375 0.0025
v 0.000625 0.18375 0.05625
v 0.000625 0.191875 0.05625
v 0.000625 0.191875 -0.008125
v 0.999375 0.1 -0.008125
v 0.999375 0.1 0.0025
v 0.999375 0.18375 0.0025
v 0.999375 0.18375 0.05625
v 0.999375 0.191875 0.05625
v 0.999375 0.191875 -0.008125
v 0.000625 0.1 -0.008125
v 0.000625 0.1 0.0025
v 0.000625 0.18375 0.0025
v 0.000625 0.18375 0.05625
v 0.000625 0.191875 0.05625
v 0.000625 0.191875 -0.008125
v 0.999375 0.1 -0.008125
v 0.999375 0.1 0.0025
v 0.999375 0.18375 0.0025
v 0.999375 0.18375 0.05625
v 0.999375 0.191875 0.05625
v 0.999375 0.191875 -0.008125
v 0.000625 0.191875 1.008125
v 0.000625 0.191875 0.94375
v 0.000625 0.18375 0.94375
v 0.000625 0.18375 0.9975
v 0.000625 0.1 0.9975
v 0.000625 0.1 1.008125
v 0.999375 0.191875 1.008125
v 0.999375 0.191875 0.94375
v 0.999375 0.18375 0.94375
v 0.999375 0.18375 0.9975
v 0.999375 0.1 0.9975
v 0.999375 0.1 1.008125
v 0.000625 0.191875 1.008125
v 0.000625 0.191875 0.94375
v 0.000625 0.18375 0.94375
v 0.000625 0.18375 0.9975
v 0.000625 0.1 0.9975
v 0.000625 0.1 1.008125
v 0.999375 0.191875 1.008125
v 0.999375 0.191875 0.94375
v 0.999375 0.18375 0.94375
v 0.999375 0.18375 0.9975
v 0.999375 0.1 0.9975
v 0.999375 0.1 1.008125
vt 0.819436 0.022946
vt 0.819436 0.02417
vt 0.704346 0.02417
vt 0.704346 0.022946
vt 0.528909 0.129753
vt 0.528909 0.139404
vt 0.413818 0.139404
vt 0.413818 0.129753
vt 0.434182 0.073152
vt 0.434182 0.079346
vt 0.319092 0.079346
vt 0.319092 0.073152
vt 0.29551 0.013956
vt 0.29551 0.014893
vt 0.18042 0.014893
vt 0.18042 0.013956
vt 0.511475 0.106689
vt 0.511475 0.099271
vt 0.626565 0.099271
vt 0.626565 0.106689
vt 0.337646 0.1521
vt 0.337646 0.141512
vt 0.452737 0.141512
vt 0.452737 0.1521
vt 0.769287 0.099271
vt 0.779874 0.099271
vt 0.779874 0.100496
vt 0.769287 0.099271
vt 0.779874 0.100496
vt 0.770223 0.100496
vt 0.769287 0.099271
vt 0.770223 0.100496
vt 0.770223 0.106689
vt 0.770223 0.106689
vt 0.769287 0.106689
vt 0.769287 0.099271
vt 0.781494 0.100496
vt 0.781494 0.099271
vt 0.792081 0.099271
vt 0.791145 0.100496
vt 0.781494 0.100496
vt 0.792081 0.099271
vt 0.791145 0.106689
vt 0.791145 0.100496
vt 0.792081 0.099271
vt 0.792081 0.099271
vt 0.792081 0.106689
vt 0.791145 0.106689
vt 0.628174 0.106689
vt 0.628174 0.099271
vt 0.743264 0.099271
vt 0.743264 0.106689
vt 0.297119 0.014893
vt 0.297119 0.013956
vt 0.412209 0.013956
vt 0.412209 0.014893
vt 0.550881 0.073152
vt 0.550881 0.079346
vt 0.435791 0.079346
vt 0.435791 0.073152
vt 0.530518 0.139404
vt 0.530518 0.129753
vt 0.645608 0.129753
vt 0.645608 0.139404
vt 0.936135 0.022946
vt 0.936135 0.02417
vt 0.821045 0.02417
vt 0.821045 0.022946
vt 0.569436 0.141512
vt 0.569436 0.1521
vt 0.454346 0.1521
vt 0.454346 0.141512
vt 0.744873 0.106689
vt 0.744873 0.099271
vt 0.745809 0.099271
vt 0.744873 0.106689
vt 0.745809 0.099271
vt 0.745809 0.105465
vt 0.75546 0.106689
vt 0.744873 0.106689
vt 0.745809 0.105465
vt 0.745809 0.105465
vt 0.75546 0.105465
vt 0.75546 0.106689
vt 0.766731 0.099271
vt 0.767667 0.099271
vt 0.767667 0.106689
vt 0.766731 0.105465
vt 0.766731 0.099271
vt 0.767667 0.106689
vt 0.766731 0.105465
vt 0.767667 0.106689
vt 0.75708 0.106689
vt 0.75708 0.106689
vt 0.75708 0.105465
vt 0.766731 0.105465
vn 0 -1 0
vn 0 0 1
vn 0 1 0
vn 0 0 -1
vn -1 0 0
vn 1 0 0
f 63/105/13 64/106/13 58/107/13 57/108/13
f 64/109/14 65/110/14 59/111/14 58/112/14
f 65/113/13 66/114/13 60/115/13 59/116/13
f 66/117/14 67/118/14 61/119/14 60/120/14
f 67/121/15 68/122/15 62/123/15 61/124/15
f 68/125/16 63/126/16 57/127/16 62/128/16
f 74/129/17 69/130/17 70/131/17
f 74/132/17 70/133/17 71/134/17
f 74/135/17 71/136/17 72/137/17
f 72/138/17 73/139/17 74/140/17
f 76/141/18 75/142/18 80/143/18
f 77/144/18 76/145/18 80/146/18
f 78/147/18 77/148/18 80/149/18
f 80/150/18 79/151/18 78/152/18
f 87/153/15 88/154/15 82/155/15 81/156/15
f 88/157/16 89/158/16 83/159/16 82/160/16
f 89/161/13 90/162/13 84/163/13 83/164/13
f 90/165/16 91/166/16 85/167/16 84/168/16
f 91/169/13 92/170/13 86/171/13 85/172/13
f 92/173/14 87/174/14 81/175/14 86/176/14
f 93/177/17 94/178/17 95/179/17
f 93/180/17 95/181/17 96/182/17
f 98/183/17 93/184/17 96/185/17
f 96/186/17 97/187/17 98/188/17
f 101/189/18 100/190/18 99/191/18
f 102/192/18 101/193/18 99/194/18
f 102/195/18 99/196/18 104/197/18
f 104/198/18 103/199/18 102/200/18
o column_base_curb_port_plate
usemtl fuel_canopy
v 0.32 0.03875 0.32
v 0.68 0.03875 0.32
v 0.68 0.03875 0.68
v 0.32 0.03875 0.68
v 0.3125 0.03125 0.3125
v 0.6875 0.03125 0.3125
v 0.6875 0.03125 0.6875
v 0.3125 0.03125 0.6875
v 0.3125 0.0075 0.3125
v 0.6875 0.0075 0.3125
v 0.6875 0.0075 0.6875
v 0.3125 0.0075 0.6875
v 0.32 0 0.32
v 0.68 0 0.32
v 0.68 0 0.68
v 0.32 0 0.68
v 0.627033 0.03875 0.474732
v 0.607694 0.03875 0.428041
v 0.571959 0.03875 0.392306
v 0.525268 0.03875 0.372967
v 0.474732 0.03875 0.372967
v 0.428041 0.03875 0.392306
v 0.392306 0.03875 0.428041
v 0.372967 0.03875 0.474732
v 0.372967 0.03875 0.525268
v 0.392306 0.03875 0.571959
v 0.428041 0.03875 0.607694
v 0.474732 0.03875 0.627033
v 0.525268 0.03875 0.627033
v 0.571959 0.03875 0.607694
v 0.607694 0.03875 0.571959
v 0.627033 0.03875 0.525268
v 0.619533 0.03125 0.476223
v 0.601335 0.03125 0.43229
v 0.56771 0.03125 0.398665
v 0.523777 0.03125 0.380467
v 0.476223 0.03125 0.380467
v 0.43229 0.03125 0.398665
v 0.398665 0.03125 0.43229
v 0.380467 0.03125 0.476223
v 0.380467 0.03125 0.523777
v 0.398665 0.03125 0.56771
v 0.43229 0.03125 0.601335
v 0.476223 0.03125 0.619533
v 0.523777 0.03125 0.619533
v 0.56771 0.03125 0.601335
v 0.601335 0.03125 0.56771
v 0.619533 0.03125 0.523777
v 0.619533 0.0075 0.476223
v 0.601335 0.0075 0.43229
v 0.56771 0.0075 0.398665
v 0.523777 0.0075 0.380467
v 0.476223 0.0075 0.380467
v 0.43229 0.0075 0.398665
v 0.398665 0.0075 0.43229
v 0.380467 0.0075 0.476223
v 0.380467 0.0075 0.523777
v 0.398665 0.0075 0.56771
v 0.43229 0.0075 0.601335
v 0.476223 0.0075 0.619533
v 0.523777 0.0075 0.619533
v 0.56771 0.0075 0.601335
v 0.601335 0.0075 0.56771
v 0.619533 0.0075 0.523777
v 0.627033 0 0.474732
v 0.607694 0 0.428041
v 0.571959 0 0.392306
v 0.525268 0 0.372967
v 0.474732 0 0.372967
v 0.428041 0 0.392306
v 0.392306 0 0.428041
v 0.372967 0 0.474732
v 0.372967 0 0.525268
v 0.392306 0 0.571959
v 0.428041 0 0.607694
v 0.474732 0 0.627033
v 0.525268 0 0.627033
v 0.571959 0 0.607694
v 0.607694 0 0.571959
v 0.627033 0 0.525268
v 0.32 0.03875 0.32
v 0.68 0.03875 0.32
v 0.68 0.03875 0.68
v 0.32 0.03875 0.68
v 0.627033 0.03875 0.474732
v 0.607694 0.03875 0.428041
v 0.571959 0.03875 0.392306
v 0.525268 0.03875 0.372967
v 0.474732 0.03875 0.372967
v 0.428041 0.03875 0.392306
v 0.392306 0.03875 0.428041
v 0.372967 0.03875 0.474732
v 0.372967 0.03875 0.525268
v 0.392306 0.03875 0.571959
v 0.428041 0.03875 0.607694
v 0.474732 0.03875 0.627033
v 0.525268 0.03875 0.627033
v 0.571959 0.03875 0.607694
v 0.607694 0.03875 0.571959
v 0.627033 0.03875 0.525268
v 0.32 0 0.32
v 0.68 0 0.32
v 0.68 0 0.68
v 0.32 0 0.68
v 0.627033 0 0.474732
v 0.607694 0 0.428041
v 0.571959 0 0.392306
v 0.525268 0 0.372967
v 0.474732 0 0.372967
v 0.428041 0 0.392306
v 0.392306 0 0.428041
v 0.372967 0 0.474732
v 0.372967 0 0.525268
v 0.392306 0 0.571959
v 0.428041 0 0.607694
v 0.474732 0 0.627033
v 0.525268 0 0.627033
v 0.571959 0 0.607694
v 0.607694 0 0.571959
v 0.627033 0 0.525268
vt 0.723257 0.020752
vt 0.681772 0.020752
vt 0.680908 0.01953
vt 0.724121 0.01953
vt 0.876108 0.01953
vt 0.917593 0.01953
vt 0.918457 0.020752
vt 0.875244 0.020752
vt 0.726694 0.01953
vt 0.768179 0.01953
vt 0.769043 0.020752
vt 0.72583 0.020752
vt 0.962515 0.020752
vt 0.92103 0.020752
vt 0.920166 0.01953
vt 0.963379 0.01953
vt 0.044434 0.040283
vt 0.001221 0.040283
vt 0.001221 0.037546
vt 0.044434 0.037546
vt 0.046143 0.037546
vt 0.089355 0.037546
vt 0.089355 0.040283
vt 0.046143 0.040283
vt 0.134277 0.040283
vt 0.091064 0.040283
vt 0.091064 0.037546
vt 0.134277 0.037546
vt 0.179199 0.040283
vt 0.135986 0.040283
vt 0.135986 0.037546
vt 0.179199 0.037546
vt 0.329346 0.0166
vt 0.372559 0.0166
vt 0.371694 0.017822
vt 0.33021 0.017822
vt 0.149658 0.0166
vt 0.192871 0.0166
vt 0.192007 0.017822
vt 0.150522 0.017822
vt 0.41748 0.017822
vt 0.374268 0.017822
vt 0.375132 0.0166
vt 0.416616 0.0166
vt 0.237793 0.017822
vt 0.19458 0.017822
vt 0.195444 0.0166
vt 0.236929 0.0166
vt 0.682102 0.046143
vt 0.676514 0.044506
vt 0.677022 0.043381
vt 0.682281 0.044921
vt 0.216913 0.046143
vt 0.212158 0.04278
vt 0.213004 0.041882
vt 0.217478 0.045045
vt 0.233643 0.045175
vt 0.238668 0.042231
vt 0.239137 0.043373
vt 0.234409 0.046143
vt 0.008545 0.0166
vt 0.014369 0.0166
vt 0.014197 0.017822
vt 0.008717 0.017822
vt 0.329327 0.042231
vt 0.334352 0.045175
vt 0.333586 0.046143
vt 0.328857 0.043373
vt 0.130127 0.045244
vt 0.134882 0.041882
vt 0.135447 0.042979
vt 0.130973 0.046143
vt 0.735107 0.045018
vt 0.740696 0.043381
vt 0.740875 0.044602
vt 0.735616 0.046143
vt 0.015869 0.0166
vt 0.021693 0.0166
vt 0.021521 0.017822
vt 0.016041 0.017822
vt 0.720638 0.043381
vt 0.726226 0.045018
vt 0.725718 0.046143
vt 0.720459 0.044602
vt 0.158036 0.041882
vt 0.162791 0.045244
vt 0.161945 0.046143
vt 0.157471 0.042979
vt 0.305055 0.043199
vt 0.30003 0.046143
vt 0.299561 0.045001
vt 0.304289 0.042231
vt 0.058314 0.017822
vt 0.05249 0.017822
vt 0.052662 0.0166
vt 0.058142 0.0166
vt 0.26064 0.046143
vt 0.255615 0.043199
vt 0.256381 0.042231
vt 0.26111 0.045001
vt 0.190135 0.04278
vt 0.18538 0.046143
vt 0.184814 0.045045
vt 0.189289 0.041882
vt 0.696929 0.044506
vt 0.691341 0.046143
vt 0.691162 0.044921
vt 0.696421 0.043381
vt 0.7839 0.020752
vt 0.778076 0.020752
vt 0.778248 0.01953
vt 0.783728 0.01953
vt 0.325548 0.040283
vt 0.320068 0.040283
vt 0.320068 0.037546
vt 0.325548 0.037546
vt 0.384142 0.040283
vt 0.378662 0.040283
vt 0.378662 0.037546
vt 0.384142 0.037546
vt 0.369493 0.040283
vt 0.364014 0.040283
vt 0.364014 0.037546
vt 0.369493 0.037546
vt 0.208361 0.040283
vt 0.202881 0.040283
vt 0.202881 0.037546
vt 0.208361 0.037546
vt 0.349365 0.037546
vt 0.354845 0.037546
vt 0.354845 0.040283
vt 0.349365 0.040283
vt 0.246826 0.037546
vt 0.252306 0.037546
vt 0.252306 0.040283
vt 0.246826 0.040283
vt 0.793701 0.043406
vt 0.799181 0.043406
vt 0.799181 0.046143
vt 0.793701 0.046143
vt 0.210205 0.037546
vt 0.215685 0.037546
vt 0.215685 0.040283
vt 0.210205 0.040283
vt 0.30542 0.037546
vt 0.3109 0.037546
vt 0.3109 0.040283
vt 0.30542 0.040283
vt 0.232178 0.037546
vt 0.237658 0.037546
vt 0.237658 0.040283
vt 0.232178 0.040283
vt 0.779053 0.043406
vt 0.784533 0.043406
vt 0.784533 0.046143
vt 0.779053 0.046143
vt 0.281603 0.040283
vt 0.276123 0.040283
vt 0.276123 0.037546
vt 0.281603 0.037546
vt 0.340197 0.040283
vt 0.334717 0.040283
vt 0.334717 0.037546
vt 0.340197 0.037546
vt 0.288927 0.040283
vt 0.283447 0.040283
vt 0.283447 0.037546
vt 0.288927 0.037546
vt 0.296251 0.040283
vt 0.290771 0.040283
vt 0.290771 0.037546
vt 0.296251 0.037546
vt 0.223009 0.040283
vt 0.217529 0.040283
vt 0.217529 0.037546
vt 0.223009 0.037546
vt 0.711578 0.044602
vt 0.706319 0.046143
vt 0.705811 0.045018
vt 0.711399 0.043381
vt 0.203807 0.042979
vt 0.199332 0.046143
vt 0.198486 0.045244
vt 0.203241 0.041882
vt 0.245695 0.046143
vt 0.240967 0.043373
vt 0.241436 0.042231
vt 0.246461 0.045175
vt 0.028845 0.017822
vt 0.023365 0.017822
vt 0.023193 0.0166
vt 0.029017 0.0166
vt 0.275758 0.043373
vt 0.27103 0.046143
vt 0.270264 0.045175
vt 0.275289 0.042231
vt 0.117301 0.041882
vt 0.121775 0.045045
vt 0.12121 0.046143
vt 0.116455 0.04278
vt 0.757589 0.043381
vt 0.762847 0.044921
vt 0.762669 0.046143
vt 0.75708 0.044506
vt 0.030689 0.0166
vt 0.036169 0.0166
vt 0.036341 0.017822
vt 0.030518 0.017822
vt 0.764404 0.044921
vt 0.769663 0.043381
vt 0.770172 0.044506
vt 0.764583 0.046143
vt 0.143799 0.045045
vt 0.148273 0.041882
vt 0.149119 0.04278
vt 0.144364 0.046143
vt 0.314975 0.042231
vt 0.319703 0.045001
vt 0.319234 0.046143
vt 0.314209 0.043199
vt 0.426686 0.0166
vt 0.432165 0.0166
vt 0.432337 0.017822
vt 0.426514 0.017822
vt 0.284912 0.045001
vt 0.28964 0.042231
vt 0.290406 0.043199
vt 0.285382 0.046143
vt 0.175617 0.046143
vt 0.171143 0.042979
vt 0.171708 0.041882
vt 0.176463 0.045244
vt 0.667124 0.046143
vt 0.661865 0.044602
vt 0.662044 0.043381
vt 0.667633 0.045018
vt 0.043493 0.017822
vt 0.038014 0.017822
vt 0.037842 0.0166
vt 0.043665 0.0166
vt 0.726073 0.270721
vt 0.731453 0.272949
vt 0.713623 0.279053
vt 0.721955 0.266603
vt 0.726073 0.270721
vt 0.713623 0.279053
vt 0.719727 0.261222
vt 0.721955 0.266603
vt 0.713623 0.279053
vt 0.719727 0.261222
vt 0.713623 0.279053
vt 0.713623 0.237568
vt 0.719727 0.255399
vt 0.719727 0.261222
vt 0.713623 0.237568
vt 0.721955 0.250018
vt 0.719727 0.255399
vt 0.713623 0.237568
vt 0.726073 0.245901
vt 0.721955 0.250018
vt 0.713623 0.237568
vt 0.731453 0.243672
vt 0.726073 0.245901
vt 0.713623 0.237568
vt 0.731453 0.243672
vt 0.713623 0.237568
vt 0.755107 0.237568
vt 0.737277 0.243672
vt 0.731453 0.243672
vt 0.755107 0.237568
vt 0.742657 0.245901
vt 0.737277 0.243672
vt 0.755107 0.237568
vt 0.746775 0.250018
vt 0.742657 0.245901
vt 0.755107 0.237568
vt 0.749004 0.255399
vt 0.746775 0.250018
vt 0.755107 0.237568
vt 0.749004 0.261222
vt 0.749004 0.255399
vt 0.755107 0.237568
vt 0.713623 0.279053
vt 0.731453 0.272949
vt 0.737277 0.272949
vt 0.755107 0.279053
vt 0.713623 0.279053
vt 0.737277 0.272949
vt 0.755107 0.279053
vt 0.737277 0.272949
vt 0.742657 0.270721
vt 0.755107 0.279053
vt 0.742657 0.270721
vt 0.746775 0.266603
vt 0.755107 0.279053
vt 0.746775 0.266603
vt 0.749004 0.261222
vt 0.755107 0.237568
vt 0.755107 0.279053
vt 0.749004 0.261222
vt 0.756592 0.237568
vt 0.774422 0.243672
vt 0.769042 0.245901
vt 0.756592 0.237568
vt 0.769042 0.245901
vt 0.764924 0.250018
vt 0.756592 0.237568
vt 0.764924 0.250018
vt 0.762695 0.255399
vt 0.756592 0.279053
vt 0.756592 0.237568
vt 0.762695 0.255399
vt 0.756592 0.279053
vt 0.762695 0.255399
vt 0.762695 0.261222
vt 0.756592 0.279053
vt 0.762695 0.261222
vt 0.764924 0.266603
vt 0.756592 0.279053
vt 0.764924 0.266603
vt 0.769042 0.270721
vt 0.756592 0.279053
vt 0.769042 0.270721
vt 0.774422 0.272949
vt 0.798076 0.279053
vt 0.756592 0.279053
vt 0.774422 0.272949
vt 0.798076 0.279053
vt 0.774422 0.272949
vt 0.780246 0.272949
vt 0.798076 0.279053
vt 0.780246 0.272949
vt 0.785626 0.270721
vt 0.798076 0.279053
vt 0.785626 0.270721
vt 0.789744 0.266603
vt 0.798076 0.279053
vt 0.789744 0.266603
vt 0.791973 0.261222
vt 0.798076 0.279053
vt 0.791973 0.261222
vt 0.791973 0.255399
vt 0.780246 0.243672
vt 0.774422 0.243672
vt 0.756592 0.237568
vt 0.780246 0.243672
vt 0.756592 0.237568
vt 0.798076 0.237568
vt 0.785626 0.245901
vt 0.780246 0.243672
vt 0.798076 0.237568
vt 0.789744 0.250018
vt 0.785626 0.245901
vt 0.798076 0.237568
vt 0.791973 0.255399
vt 0.789744 0.250018
vt 0.798076 0.237568
vt 0.791973 0.255399
vt 0.798076 0.237568
vt 0.798076 0.279053
vn 0 0.707107 -0.707107
vn 0.707107 0.707107 0
vn 0 0.707107 0.707107
vn -0.707107 0.707107 0
vn 0 0 -1
vn 1 0 0
vn 0 0 1
vn -1 0 0
vn 0 -0.707107 -0.707107
vn 0.707107 -0.707107 0
vn 0 -0.707107 0.707107
vn -0.707107 -0.707107 0
vn -0.68676 0.713933 0.136605
vn -0.582207 0.713933 0.389018
vn -0.389018 0.713933 0.582207
vn -0.136605 0.713933 0.68676
vn 0.136605 0.713933 0.68676
vn 0.389018 0.713933 0.582207
vn 0.582207 0.713933 0.389018
vn 0.68676 0.713933 0.136605
vn 0.68676 0.713933 -0.136605
vn 0.582207 0.713933 -0.389018
vn 0.389018 0.713933 -0.582207
vn 0.136605 0.713933 -0.68676
vn -0.136605 0.713933 -0.68676
vn -0.389018 0.713933 -0.582207
vn -0.582207 0.713933 -0.389018
vn -0.68676 0.713933 -0.136605
vn -0.980785 0 0.19509
vn -0.83147 0 0.55557
vn -0.55557 0 0.83147
vn -0.19509 0 0.980785
vn 0.19509 0 0.980785
vn 0.55557 0 0.83147
vn 0.83147 0 0.55557
vn 0.980785 0 0.19509
vn 0.980785 0 -0.19509
vn 0.83147 0 -0.55557
vn 0.55557 0 -0.83147
vn 0.19509 0 -0.980785
vn -0.19509 0 -0.980785
vn -0.55557 0 -0.83147
vn -0.83147 0 -0.55557
vn -0.980785 0 -0.19509
vn -0.68676 -0.713933 0.136605
vn -0.582207 -0.713933 0.389018
vn -0.389018 -0.713933 0.582207
vn -0.136605 -0.713933 0.68676
vn 0.136605 -0.713933 0.68676
vn 0.389018 -0.713933 0.582207
vn 0.582207 -0.713933 0.389018
vn 0.68676 -0.713933 0.136605
vn 0.68676 -0.713933 -0.136605
vn 0.582207 -0.713933 -0.389018
vn 0.389018 -0.713933 -0.582207
vn 0.136605 -0.713933 -0.68676
vn -0.136605 -0.713933 -0.68676
vn -0.389018 -0.713933 -0.582207
vn -0.582207 -0.713933 -0.389018
vn -0.68676 -0.713933 -0.136605
vn 0 1 0
vn 0 -1 0
f 105/201/19 106/202/19 110/203/19 109/204/19
f 106/205/20 107/206/20 111/207/20 110/208/20
f 107/209/21 108/210/21 112/211/21 111/212/21
f 108/213/22 105/214/22 109/215/22 112/216/22
f 109/217/23 110/218/23 114/219/23 113/220/23
f 110/221/24 111/222/24 115/223/24 114/224/24
f 111/225/25 112/226/25 116/227/25 115/228/25
f 112/229/26 109/230/26 113/231/26 116/232/26
f 113/233/27 114/234/27 118/235/27 117/236/27
f 114/237/28 115/238/28 119/239/28 118/240/28
f 115/241/29 116/242/29 120/243/29 119/244/29
f 116/245/30 113/246/30 117/247/30 120/248/30
f 121/249/31 122/250/32 138/251/32 137/252/31
f 122/253/32 123/254/33 139/255/33 138/256/32
f 123/257/33 124/258/34 140/259/34 139/260/33
f 124/261/34 125/262/35 141/263/35 140/264/34
f 125/265/35 126/266/36 142/267/36 141/268/35
f 126/269/36 127/270/37 143/271/37 142/272/36
f 127/273/37 128/274/38 144/275/38 143/276/37
f 128/277/38 129/278/39 145/279/39 144/280/38
f 129/281/39 130/282/40 146/283/40 145/284/39
f 130/285/40 131/286/41 147/287/41 146/288/40
f 131/289/41 132/290/42 148/291/42 147/292/41
f 132/293/42 133/294/43 149/295/43 148/296/42
f 133/297/43 134/298/44 150/299/44 149/300/43
f 134/301/44 135/302/45 151/303/45 150/304/44
f 135/305/45 136/306/46 152/307/46 151/308/45
f 136/309/46 121/310/31 137/311/31 152/312/46
f 137/313/47 138/314/48 154/315/48 153/316/47
f 138/317/48 139/318/49 155/319/49 154/320/48
f 139/321/49 140/322/50 156/323/50 155/324/49
f 140/325/50 141/326/51 157/327/51 156/328/50
f 141/329/51 142/330/52 158/331/52 157/332/51
f 142/333/52 143/334/53 159/335/53 158/336/52
f 143/337/53 144/338/54 160/339/54 159/340/53
f 144/341/54 145/342/55 161/343/55 160/344/54
f 145/345/55 146/346/56 162/347/56 161/348/55
f 146/349/56 147/350/57 163/351/57 162/352/56
f 147/353/57 148/354/58 164/355/58 163/356/57
f 148/357/58 149/358/59 165/359/59 164/360/58
f 149/361/59 150/362/60 166/363/60 165/364/59
f 150/365/60 151/366/61 167/367/61 166/368/60
f 151/369/61 152/370/62 168/371/62 167/372/61
f 152/373/62 137/374/47 153/375/47 168/376/62
f 153/377/63 154/378/64 170/379/64 169/380/63
f 154/381/64 155/382/65 171/383/65 170/384/64
f 155/385/65 156/386/66 172/387/66 171/388/65
f 156/389/66 157/390/67 173/391/67 172/392/66
f 157/393/67 158/394/68 174/395/68 173/396/67
f 158/397/68 159/398/69 175/399/69 174/400/68
f 159/401/69 160/402/70 176/403/70 175/404/69
f 160/405/70 161/406/71 177/407/71 176/408/70
f 161/409/71 162/410/72 178/411/72 177/412/71
f 162/413/72 163/414/73 179/415/73 178/416/72
f 163/417/73 164/418/74 180/419/74 179/420/73
f 164/421/74 165/422/75 181/423/75 180/424/74
f 165/425/75 166/426/76 182/427/76 181/428/75
f 166/429/76 167/430/77 183/431/77 182/432/76
f 167/433/77 168/434/78 184/435/78 183/436/77
f 168/437/78 153/438/63 169/439/63 184/440/78
f 190/441/79 189/442/79 186/443/79
f 191/444/79 190/445/79 186/446/79
f 192/447/79 191/448/79 186/449/79
f 192/450/79 186/451/79 185/452/79
f 193/453/79 192/454/79 185/455/79
f 194/456/79 193/457/79 185/458/79
f 195/459/79 194/460/79 185/461/79
f 196/462/79 195/463/79 185/464/79
f 196/465/79 185/466/79 188/467/79
f 197/468/79 196/469/79 188/470/79
f 198/471/79 197/472/79 188/473/79
f 199/474/79 198/475/79 188/476/79
f 200/477/79 199/478/79 188/479/79
f 201/480/79 200/481/79 188/482/79
f 186/483/79 189/484/79 204/485/79
f 187/486/79 186/487/79 204/488/79
f 187/489/79 204/490/79 203/491/79
f 187/492/79 203/493/79 202/494/79
f 187/495/79 202/496/79 201/497/79
f 188/498/79 187/499/79 201/500/79
f 206/501/80 209/502/80 210/503/80
f 206/504/80 210/505/80 211/506/80
f 206/507/80 211/508/80 212/509/80
f 205/510/80 206/511/80 212/512/80
f 205/513/80 212/514/80 213/515/80
f 205/516/80 213/517/80 214/518/80
f 205/519/80 214/520/80 215/521/80
f 205/522/80 215/523/80 216/524/80
f 208/525/80 205/526/80 216/527/80
f 208/528/80 216/529/80 217/530/80
f 208/531/80 217/532/80 218/533/80
f 208/534/80 218/535/80 219/536/80
f 208/537/80 219/538/80 220/539/80
f 208/540/80 220/541/80 221/542/80
f 224/543/80 209/544/80 206/545/80
f 224/546/80 206/547/80 207/548/80
f 223/549/80 224/550/80 207/551/80
f 222/552/80 223/553/80 207/554/80
f 221/555/80 222/556/80 207/557/80
f 221/558/80 207/559/80 208/560/80
o column_base_curb_port_socket
usemtl fuel_canopy
v 0.616468 0.03875 0.523167
v 0.598737 0.03875 0.565974
v 0.565974 0.03875 0.598737
v 0.523167 0.03875 0.616468
v 0.476833 0.03875 0.616468
v 0.434026 0.03875 0.598737
v 0.401263 0.03875 0.565974
v 0.383532 0.03875 0.523167
v 0.383532 0.03875 0.476833
v 0.401263 0.03875 0.434026
v 0.434026 0.03875 0.401263
v 0.476833 0.03875 0.383532
v 0.523167 0.03875 0.383532
v 0.565974 0.03875 0.401263
v 0.598737 0.03875 0.434026
v 0.616468 0.03875 0.476833
v 0.616468 0.02375 0.523167
v 0.598737 0.02375 0.565974
v 0.565974 0.02375 0.598737
v 0.523167 0.02375 0.616468
v 0.476833 0.02375 0.616468
v 0.434026 0.02375 0.598737
v 0.401263 0.02375 0.565974
v 0.383532 0.02375 0.523167
v 0.383532 0.02375 0.476833
v 0.401263 0.02375 0.434026
v 0.434026 0.02375 0.401263
v 0.476833 0.02375 0.383532
v 0.523167 0.02375 0.383532
v 0.565974 0.02375 0.401263
v 0.598737 0.02375 0.434026
v 0.616468 0.02375 0.476833
v 0.5 0.03875 0.5
v 0.5 0.02375 0.5
vt 0.021729 0.025859
vt 0.027068 0.025859
vt 0.027068 0.027588
vt 0.021729 0.027588
vt 0.042236 0.025859
vt 0.047576 0.025859
vt 0.047576 0.027588
vt 0.042236 0.027588
vt 0.001221 0.025859
vt 0.00656 0.025859
vt 0.00656 0.027588
vt 0.001221 0.027588
vt 0.033904 0.027588
vt 0.028564 0.027588
vt 0.028564 0.025859
vt 0.033904 0.025859
vt 0.061247 0.027588
vt 0.055908 0.027588
vt 0.055908 0.025859
vt 0.061247 0.025859
vt 0.990447 0.031494
vt 0.985107 0.031494
vt 0.985107 0.029766
vt 0.990447 0.029766
vt 0.074919 0.027588
vt 0.06958 0.027588
vt 0.06958 0.025859
vt 0.074919 0.025859
vt 0.949431 0.031494
vt 0.944092 0.031494
vt 0.944092 0.029766
vt 0.949431 0.029766
vt 0.095427 0.027588
vt 0.090088 0.027588
vt 0.090088 0.025859
vt 0.095427 0.025859
vt 0.976775 0.031494
vt 0.971436 0.031494
vt 0.971436 0.029766
vt 0.976775 0.029766
vt 0.143279 0.027588
vt 0.137939 0.027588
vt 0.137939 0.025859
vt 0.143279 0.025859
vt 0.956267 0.031494
vt 0.950928 0.031494
vt 0.950928 0.029766
vt 0.956267 0.029766
vt 0.124268 0.025859
vt 0.129607 0.025859
vt 0.129607 0.027588
vt 0.124268 0.027588
vt 0.110596 0.025859
vt 0.115935 0.025859
vt 0.115935 0.027588
vt 0.110596 0.027588
vt 0.096924 0.025859
vt 0.102263 0.025859
vt 0.102263 0.027588
vt 0.096924 0.027588
vt 0.957764 0.029766
vt 0.963103 0.029766
vt 0.963103 0.031494
vt 0.957764 0.031494
vt 0.235135 0.223299
vt 0.230202 0.225342
vt 0.227532 0.211921
vt 0.23891 0.219523
vt 0.235135 0.223299
vt 0.227532 0.211921
vt 0.240954 0.21459
vt 0.23891 0.219523
vt 0.227532 0.211921
vt 0.240954 0.209251
vt 0.240954 0.21459
vt 0.227532 0.211921
vt 0.23891 0.204318
vt 0.240954 0.209251
vt 0.227532 0.211921
vt 0.235135 0.200543
vt 0.23891 0.204318
vt 0.227532 0.211921
vt 0.230202 0.1985
vt 0.235135 0.200543
vt 0.227532 0.211921
vt 0.224863 0.1985
vt 0.230202 0.1985
vt 0.227532 0.211921
vt 0.21993 0.200543
vt 0.224863 0.1985
vt 0.227532 0.211921
vt 0.216155 0.204318
vt 0.21993 0.200543
vt 0.227532 0.211921
vt 0.214111 0.209251
vt 0.216155 0.204318
vt 0.227532 0.211921
vt 0.214111 0.21459
vt 0.214111 0.209251
vt 0.227532 0.211921
vt 0.216155 0.219523
vt 0.214111 0.21459
vt 0.227532 0.211921
vt 0.21993 0.223299
vt 0.216155 0.219523
vt 0.227532 0.211921
vt 0.224863 0.225342
vt 0.21993 0.223299
vt 0.227532 0.211921
vt 0.230202 0.225342
vt 0.224863 0.225342
vt 0.227532 0.211921
vt 0.255853 0.211921
vt 0.258522 0.1985
vt 0.263455 0.200543
vt 0.255853 0.211921
vt 0.263455 0.200543
vt 0.267231 0.204318
vt 0.255853 0.211921
vt 0.267231 0.204318
vt 0.269274 0.209251
vt 0.255853 0.211921
vt 0.269274 0.209251
vt 0.269274 0.21459
vt 0.255853 0.211921
vt 0.269274 0.21459
vt 0.267231 0.219523
vt 0.255853 0.211921
vt 0.267231 0.219523
vt 0.263455 0.223299
vt 0.255853 0.211921
vt 0.263455 0.223299
vt 0.258522 0.225342
vt 0.255853 0.211921
vt 0.258522 0.225342
vt 0.253183 0.225342
vt 0.255853 0.211921
vt 0.253183 0.225342
vt 0.24825 0.223299
vt 0.255853 0.211921
vt 0.24825 0.223299
vt 0.244475 0.219523
vt 0.255853 0.211921
vt 0.244475 0.219523
vt 0.242432 0.21459
vt 0.255853 0.211921
vt 0.242432 0.21459
vt 0.242432 0.209251
vt 0.255853 0.211921
vt 0.242432 0.209251
vt 0.244475 0.204318
vt 0.255853 0.211921
vt 0.244475 0.204318
vt 0.24825 0.200543
vt 0.255853 0.211921
vt 0.24825 0.200543
vt 0.253183 0.1985
vt 0.255853 0.211921
vt 0.253183 0.1985
vt 0.258522 0.1985
vn 0.92388 0 0.382683
vn 0.83147 0 0.55557
vn 0.55557 0 0.83147
vn 0.19509 0 0.980785
vn -0.19509 0 0.980785
vn -0.55557 0 0.83147
vn -0.83147 0 0.55557
vn -0.980785 0 0.19509
vn -0.980785 0 -0.19509
vn -0.83147 0 -0.55557
vn -0.55557 0 -0.83147
vn -0.19509 0 -0.980785
vn 0.19509 0 -0.980785
vn 0.55557 0 -0.83147
vn 0.83147 0 -0.55557
vn 0.92388 0 -0.382683
vn -1 0 0
vn 0 1 0
vn 0 -1 0
f 225/561/81 226/562/82 242/563/82 241/564/81
f 226/565/82 227/566/83 243/567/83 242/568/82
f 227/569/83 228/570/84 244/571/84 243/572/83
f 228/573/84 229/574/85 245/575/85 244/576/84
f 229/577/85 230/578/86 246/579/86 245/580/85
f 230/581/86 231/582/87 247/583/87 246/584/86
f 231/585/87 232/586/88 248/587/88 247/588/87
f 232/589/88 233/590/89 249/591/89 248/592/88
f 233/593/89 234/594/90 250/595/90 249/596/89
f 234/597/90 235/598/91 251/599/91 250/600/90
f 235/601/91 236/602/92 252/603/92 251/604/91
f 236/605/92 237/606/93 253/607/93 252/608/92
f 237/609/93 238/610/94 254/611/94 253/612/93
f 238/613/94 239/614/95 255/615/95 254/616/94
f 239/617/95 240/618/96 256/619/96 255/620/95
f 256/621/97 241/622/97 225/623/97 240/624/97
f 226/625/98 225/626/98 257/627/98
f 227/628/98 226/629/98 257/630/98
f 228/631/98 227/632/98 257/633/98
f 229/634/98 228/635/98 257/636/98
f 230/637/98 229/638/98 257/639/98
f 231/640/98 230/641/98 257/642/98
f 232/643/98 231/644/98 257/645/98
f 233/646/98 232/647/98 257/648/98
f 234/649/98 233/650/98 257/651/98
f 235/652/98 234/653/98 257/654/98
f 236/655/98 235/656/98 257/657/98
f 237/658/98 236/659/98 257/660/98
f 238/661/98 237/662/98 257/663/98
f 239/664/98 238/665/98 257/666/98
f 240/667/98 239/668/98 257/669/98
f 225/670/98 240/671/98 257/672/98
f 258/673/99 241/674/99 242/675/99
f 258/676/99 242/677/99 243/678/99
f 258/679/99 243/680/99 244/681/99
f 258/682/99 244/683/99 245/684/99
f 258/685/99 245/686/99 246/687/99
f 258/688/99 246/689/99 247/690/99
f 258/691/99 247/692/99 248/693/99
f 258/694/99 248/695/99 249/696/99
f 258/697/99 249/698/99 250/699/99
f 258/700/99 250/701/99 251/702/99
f 258/703/99 251/704/99 252/705/99
f 258/706/99 252/707/99 253/708/99
f 258/709/99 253/710/99 254/711/99
f 258/712/99 254/713/99 255/714/99
f 258/715/99 255/716/99 256/717/99
f 258/718/99 256/719/99 241/720/99
o column_base_curb_port_pin
usemtl fuel_canopy
v 0.525984 0.02375 0.510763
v 0.510763 0.02375 0.525984
v 0.489237 0.02375 0.525984
v 0.474016 0.02375 0.510763
v 0.474016 0.02375 0.489237
v 0.489237 0.02375 0.474016
v 0.510763 0.02375 0.474016
v 0.525984 0.02375 0.489237
v 0.525984 0.01125 0.510763
v 0.510763 0.01125 0.525984
v 0.489237 0.01125 0.525984
v 0.474016 0.01125 0.510763
v 0.474016 0.01125 0.489237
v 0.489237 0.01125 0.474016
v 0.510763 0.01125 0.474016
v 0.525984 0.01125 0.489237
v 0.5 0.02375 0.5
v 0.5 0.01125 0.5
vt 0.509521 0.022729
vt 0.512002 0.022729
vt 0.512002 0.02417
vt 0.509521 0.02417
vt 0.498818 0.02417
vt 0.496338 0.02417
vt 0.496338 0.022729
vt 0.498818 0.022729
vt 0.520791 0.02417
vt 0.518311 0.02417
vt 0.518311 0.022729
vt 0.520791 0.022729
vt 0.503213 0.02417
vt 0.500732 0.02417
vt 0.500732 0.022729
vt 0.503213 0.022729
vt 0.52958 0.02417
vt 0.5271 0.02417
vt 0.5271 0.022729
vt 0.52958 0.022729
vt 0.476846 0.02417
vt 0.474365 0.02417
vt 0.474365 0.022729
vt 0.476846 0.022729
vt 0.535889 0.022729
vt 0.538369 0.022729
vt 0.538369 0.02417
vt 0.535889 0.02417
vt 0.483154 0.022729
vt 0.485635 0.022729
vt 0.485635 0.02417
vt 0.483154 0.02417
vt 0.574104 0.077592
vt 0.57235 0.079346
vt 0.571109 0.076351
vt 0.574104 0.075111
vt 0.574104 0.077592
vt 0.571109 0.076351
vt 0.57235 0.073357
vt 0.574104 0.075111
vt 0.571109 0.076351
vt 0.569869 0.073357
vt 0.57235 0.073357
vt 0.571109 0.076351
vt 0.568115 0.075111
vt 0.569869 0.073357
vt 0.571109 0.076351
vt 0.568115 0.077592
vt 0.568115 0.075111
vt 0.571109 0.076351
vt 0.569869 0.079346
vt 0.568115 0.077592
vt 0.571109 0.076351
vt 0.57235 0.079346
vt 0.569869 0.079346
vt 0.571109 0.076351
vt 0.578922 0.076351
vt 0.580162 0.073357
vt 0.581916 0.075111
vt 0.578922 0.076351
vt 0.581916 0.075111
vt 0.581916 0.077592
vt 0.578922 0.076351
vt 0.581916 0.077592
vt 0.580162 0.079346
vt 0.578922 0.076351
vt 0.580162 0.079346
vt 0.577682 0.079346
vt 0.578922 0.076351
vt 0.577682 0.079346
vt 0.575928 0.077592
vt 0.578922 0.076351
vt 0.575928 0.077592
vt 0.575928 0.075111
vt 0.578922 0.076351
vt 0.575928 0.075111
vt 0.577682 0.073357
vt 0.578922 0.076351
vt 0.577682 0.073357
vt 0.580162 0.073357
vn 0.707107 0 0.707107
vn 0 0 1
vn -0.707107 0 0.707107
vn -1 0 0
vn -0.707107 0 -0.707107
vn 0 0 -1
vn 0.707107 0 -0.707107
vn 0 1 0
vn 0 -1 0
f 259/721/100 260/722/100 268/723/100 267/724/100
f 260/725/101 261/726/101 269/727/101 268/728/101
f 261/729/102 262/730/102 270/731/102 269/732/102
f 262/733/103 263/734/103 271/735/103 270/736/103
f 263/737/104 264/738/104 272/739/104 271/740/104
f 264/741/105 265/742/105 273/743/105 272/744/105
f 265/745/106 266/746/106 274/747/106 273/748/106
f 274/749/103 267/750/103 259/751/103 266/752/103
f 260/753/107 259/754/107 275/755/107
f 261/756/107 260/757/107 275/758/107
f 262/759/107 261/760/107 275/761/107
f 263/762/107 262/763/107 275/764/107
f 264/765/107 263/766/107 275/767/107
f 265/768/107 264/769/107 275/770/107
f 266/771/107 265/772/107 275/773/107
f 259/774/107 266/775/107 275/776/107
f 276/777/108 267/778/108 268/779/108
f 276/780/108 268/781/108 269/782/108
f 276/783/108 269/784/108 270/785/108
f 276/786/108 270/787/108 271/788/108
f 276/789/108 271/790/108 272/791/108
f 276/792/108 272/793/108 273/794/108
f 276/795/108 273/796/108 274/797/108
f 276/798/108 274/799/108 267/800/108
o column_base_curb_ped
usemtl fuel_canopy
v 0.103125 0.1875 0.172633
v 0.103125 0.1875 0.827367
v 0.172633 0.1875 0.896875
v 0.827367 0.1875 0.896875
v 0.896875 0.1875 0.827367
v 0.896875 0.1875 0.172633
v 0.827367 0.1875 0.103125
v 0.172633 0.1875 0.103125
v 0.09375 0.196875 0.16875
v 0.09375 0.196875 0.83125
v 0.16875 0.196875 0.90625
v 0.83125 0.196875 0.90625
v 0.90625 0.196875 0.83125
v 0.90625 0.196875 0.16875
v 0.83125 0.196875 0.09375
v 0.16875 0.196875 0.09375
v 0.09375 0.490625 0.16875
v 0.09375 0.490625 0.83125
v 0.16875 0.490625 0.90625
v 0.83125 0.490625 0.90625
v 0.90625 0.490625 0.83125
v 0.90625 0.490625 0.16875
v 0.83125 0.490625 0.09375
v 0.16875 0.490625 0.09375
v 0.103125 0.5 0.172633
v 0.103125 0.5 0.827367
v 0.172633 0.5 0.896875
v 0.827367 0.5 0.896875
v 0.896875 0.5 0.827367
v 0.896875 0.5 0.172633
v 0.827367 0.5 0.103125
v 0.172633 0.5 0.103125
v 0.103125 0.1875 0.172633
v 0.103125 0.1875 0.827367
v 0.172633 0.1875 0.896875
v 0.827367 0.1875 0.896875
v 0.896875 0.1875 0.827367
v 0.896875 0.1875 0.172633
v 0.827367 0.1875 0.103125
v 0.172633 0.1875 0.103125
v 0.103125 0.5 0.172633
v 0.103125 0.5 0.827367
v 0.172633 0.5 0.896875
v 0.827367 0.5 0.896875
v 0.896875 0.5 0.827367
v 0.896875 0.5 0.172633
v 0.827367 0.5 0.103125
v 0.172633 0.5 0.103125
vt 0.314168 0.022642
vt 0.389616 0.022642
vt 0.390063 0.02417
vt 0.313721 0.02417
vt 0.512451 0.115926
vt 0.5217 0.109386
vt 0.522947 0.110375
vt 0.512968 0.117432
vt 0.613973 0.02606
vt 0.689421 0.02606
vt 0.689868 0.027588
vt 0.613525 0.027588
vt 0.497286 0.117432
vt 0.488037 0.110892
vt 0.488554 0.109386
vt 0.498533 0.116443
vt 0.467741 0.02417
vt 0.392293 0.02417
vt 0.391846 0.022642
vt 0.468188 0.022642
vt 0.535155 0.110892
vt 0.525906 0.117432
vt 0.524658 0.116443
vt 0.534638 0.109386
vt 0.767546 0.027588
vt 0.692098 0.027588
vt 0.69165 0.02606
vt 0.767993 0.02606
vt 0.501492 0.109386
vt 0.51074 0.115926
vt 0.510224 0.117432
vt 0.500244 0.110375
vt 0.799561 0.245203
vt 0.875903 0.245203
vt 0.875903 0.279053
vt 0.799561 0.279053
vt 0.319739 0.157944
vt 0.319739 0.170166
vt 0.285889 0.170166
vt 0.285889 0.157944
vt 0.877686 0.245203
vt 0.954028 0.245203
vt 0.954028 0.279053
vt 0.877686 0.279053
vt 0.321533 0.170166
vt 0.321533 0.157944
vt 0.355383 0.157944
vt 0.355383 0.170166
vt 0.077563 0.225342
vt 0.001221 0.225342
vt 0.001221 0.191492
vt 0.077563 0.191492
vt 0.357178 0.170166
vt 0.357178 0.157944
vt 0.391028 0.157944
vt 0.391028 0.170166
vt 0.079346 0.191492
vt 0.155688 0.191492
vt 0.155688 0.225342
vt 0.079346 0.225342
vt 0.426672 0.157944
vt 0.426672 0.170166
vt 0.392822 0.170166
vt 0.392822 0.157944
vt 0.769775 0.02606
vt 0.846118 0.02606
vt 0.845671 0.027588
vt 0.770223 0.027588
vt 0.561796 0.109386
vt 0.571776 0.116443
vt 0.570528 0.117432
vt 0.561279 0.110892
vt 0.221118 0.027588
vt 0.144775 0.027588
vt 0.145223 0.02606
vt 0.220671 0.02606
vt 0.583983 0.110375
vt 0.574003 0.117432
vt 0.573486 0.115926
vt 0.582735 0.109386
vt 0.924243 0.027588
vt 0.8479 0.027588
vt 0.848348 0.02606
vt 0.923796 0.02606
vt 0.595673 0.117432
vt 0.585693 0.110375
vt 0.586941 0.109386
vt 0.59619 0.115926
vt 0.2229 0.02606
vt 0.299243 0.02606
vt 0.298796 0.027588
vt 0.223348 0.027588
vt 0.5979 0.116443
vt 0.60788 0.109386
vt 0.608397 0.110892
vt 0.599148 0.117432
vt 0.957725 0.548096
vt 0.882277 0.548096
vt 0.874268 0.540086
vt 0.965735 0.540086
vt 0.957725 0.548096
vt 0.874268 0.540086
vt 0.965735 0.464638
vt 0.965735 0.540086
vt 0.874268 0.540086
vt 0.957725 0.456628
vt 0.965735 0.464638
vt 0.874268 0.540086
vt 0.882277 0.456628
vt 0.957725 0.456628
vt 0.874268 0.540086
vt 0.874268 0.540086
vt 0.874268 0.464638
vt 0.882277 0.456628
vt 0.001221 0.363564
vt 0.00923 0.355554
vt 0.084678 0.355554
vt 0.001221 0.363564
vt 0.084678 0.355554
vt 0.092688 0.363564
vt 0.001221 0.363564
vt 0.092688 0.363564
vt 0.092688 0.439012
vt 0.001221 0.363564
vt 0.092688 0.439012
vt 0.084678 0.447021
vt 0.001221 0.363564
vt 0.084678 0.447021
vt 0.00923 0.447021
vt 0.00923 0.447021
vt 0.001221 0.439012
vt 0.001221 0.363564
vn -0.691161 -0.719464 -0.068328
vn -0.691161 -0.719464 0.068328
vn -0.068328 -0.719464 0.691161
vn 0.068328 -0.719464 0.691161
vn 0.691161 -0.719464 0.068328
vn 0.691161 -0.719464 -0.068328
vn 0.068328 -0.719464 -0.691161
vn -0.068328 -0.719464 -0.691161
vn -1 0 0
vn -0.707107 0 0.707107
vn 0 0 1
vn 0.707107 0 0.707107
vn 1 0 0
vn 0.707107 0 -0.707107
vn 0 0 -1
vn -0.707107 0 -0.707107
vn -0.691161 0.719464 -0.068328
vn -0.691161 0.719464 0.068328
vn -0.068328 0.719464 0.691161
vn 0.068328 0.719464 0.691161
vn 0.691161 0.719464 0.068328
vn 0.691161 0.719464 -0.068328
vn 0.068328 0.719464 -0.691161
vn -0.068328 0.719464 -0.691161
vn 0 -1 0
vn 0 1 0
f 277/801/109 278/802/110 286/803/110 285/804/109
f 278/805/110 279/806/111 287/807/111 286/808/110
f 279/809/111 280/810/112 288/811/112 287/812/111
f 280/813/112 281/814/113 289/815/113 288/816/112
f 281/817/113 282/818/114 290/819/114 289/820/113
f 282/821/114 283/822/115 291/823/115 290/824/114
f 283/825/115 284/826/116 292/827/116 291/828/115
f 284/829/116 277/830/109 285/831/109 292/832/116
f 285/833/117 286/834/117 294/835/117 293/836/117
f 286/837/118 287/838/118 295/839/118 294/840/118
f 287/841/119 288/842/119 296/843/119 295/844/119
f 288/845/120 289/846/120 297/847/120 296/848/120
f 289/849/121 290/850/121 298/851/121 297/852/121
f 290/853/122 291/854/122 299/855/122 298/856/122
f 291/857/123 292/858/123 300/859/123 299/860/123
f 292/861/124 285/862/124 293/863/124 300/864/124
f 293/865/125 294/866/126 302/867/126 301/868/125
f 294/869/126 295/870/127 303/871/127 302/872/126
f 295/873/127 296/874/128 304/875/128 303/876/127
f 296/877/128 297/878/129 305/879/129 304/880/128
f 297/881/129 298/882/130 306/883/130 305/884/129
f 298/885/130 299/886/131 307/887/131 306/888/130
f 299/889/131 300/890/132 308/891/132 307/892/131
f 300/893/132 293/894/125 301/895/125 308/896/132
f 310/897/133 309/898/133 316/899/133
f 311/900/133 310/901/133 316/902/133
f 312/903/133 311/904/133 316/905/133
f 313/906/133 312/907/133 316/908/133
f 314/909/133 313/910/133 316/911/133
f 316/912/133 315/913/133 314/914/133
f 324/915/134 317/916/134 318/917/134
f 324/918/134 318/919/134 319/920/134
f 324/921/134 319/922/134 320/923/134
f 324/924/134 320/925/134 321/926/134
f 324/927/134 321/928/134 322/929/134
f 322/930/134 323/931/134 324/932/134
o column_base_curb_ped_cap
usemtl fuel_canopy
v 0.1325 0.5 0.190607
v 0.1325 0.5 0.809393
v 0.190607 0.5 0.8675
v 0.809393 0.5 0.8675
v 0.8675 0.5 0.809393
v 0.8675 0.5 0.190607
v 0.809393 0.5 0.1325
v 0.190607 0.5 0.1325
v 0.125 0.5075 0.1875
v 0.125 0.5075 0.8125
v 0.1875 0.5075 0.875
v 0.8125 0.5075 0.875
v 0.875 0.5075 0.8125
v 0.875 0.5075 0.1875
v 0.8125 0.5075 0.125
v 0.1875 0.5075 0.125
v 0.125 0.53 0.1875
v 0.125 0.53 0.8125
v 0.1875 0.53 0.875
v 0.8125 0.53 0.875
v 0.875 0.53 0.8125
v 0.875 0.53 0.1875
v 0.8125 0.53 0.125
v 0.1875 0.53 0.125
v 0.1325 0.5375 0.190607
v 0.1325 0.5375 0.809393
v 0.190607 0.5375 0.8675
v 0.809393 0.5375 0.8675
v 0.8675 0.5375 0.809393
v 0.8675 0.5375 0.190607
v 0.809393 0.5375 0.1325
v 0.190607 0.5375 0.1325
v 0.1325 0.5 0.190607
v 0.1325 0.5 0.809393
v 0.190607 0.5 0.8675
v 0.809393 0.5 0.8675
v 0.8675 0.5 0.809393
v 0.8675 0.5 0.190607
v 0.809393 0.5 0.1325
v 0.190607 0.5 0.1325
v 0.1325 0.5375 0.190607
v 0.1325 0.5375 0.809393
v 0.190607 0.5375 0.8675
v 0.809393 0.5375 0.8675
v 0.8675 0.5375 0.809393
v 0.8675 0.5375 0.190607
v 0.809393 0.5375 0.1325
v 0.190607 0.5375 0.1325
vt 0.443962 0.01953
vt 0.515267 0.01953
vt 0.515625 0.020752
vt 0.443604 0.020752
vt 0.89917 0.08693
vt 0.906902 0.081463
vt 0.9079 0.082254
vt 0.899583 0.088135
vt 0.581657 0.0166
vt 0.652962 0.0166
vt 0.65332 0.017822
vt 0.581299 0.017822
vt 0.947917 0.088135
vt 0.940186 0.082668
vt 0.940599 0.081463
vt 0.948915 0.087343
vt 0.588997 0.020752
vt 0.517692 0.020752
vt 0.517334 0.01953
vt 0.589355 0.01953
vt 0.918154 0.082668
vt 0.910422 0.088135
vt 0.909424 0.087343
vt 0.91774 0.081463
vt 0.726693 0.017822
vt 0.655387 0.017822
vt 0.655029 0.0166
vt 0.727051 0.0166
vt 0.951437 0.081463
vt 0.959169 0.08693
vt 0.958756 0.088135
vt 0.950439 0.082254
vt 0.385986 0.03769
vt 0.458008 0.03769
vt 0.458008 0.040283
vt 0.385986 0.040283
vt 0.680908 0.03769
vt 0.691094 0.03769
vt 0.691094 0.040283
vt 0.680908 0.040283
vt 0.459717 0.03769
vt 0.531738 0.03769
vt 0.531738 0.040283
vt 0.459717 0.040283
vt 0.702812 0.040283
vt 0.692627 0.040283
vt 0.692627 0.03769
vt 0.702812 0.03769
vt 0.605469 0.040283
vt 0.533447 0.040283
vt 0.533447 0.03769
vt 0.605469 0.03769
vt 0.714531 0.040283
vt 0.704346 0.040283
vt 0.704346 0.03769
vt 0.714531 0.03769
vt 0.607178 0.03769
vt 0.679199 0.03769
vt 0.679199 0.040283
vt 0.607178 0.040283
vt 0.716064 0.03769
vt 0.72625 0.03769
vt 0.72625 0.040283
vt 0.716064 0.040283
vt 0.72876 0.0166
vt 0.800781 0.0166
vt 0.800423 0.017822
vt 0.729118 0.017822
vt 0.981615 0.081463
vt 0.989931 0.087343
vt 0.988933 0.088135
vt 0.981201 0.082668
vt 0.874512 0.017822
vt 0.80249 0.017822
vt 0.802848 0.0166
vt 0.874154 0.0166
vt 0.00995 0.073465
vt 0.001634 0.079346
vt 0.001221 0.078141
vt 0.008952 0.072674
vt 0.948242 0.017822
vt 0.876221 0.017822
vt 0.876579 0.0166
vt 0.947884 0.0166
vt 0.019791 0.079346
vt 0.011475 0.073465
vt 0.012473 0.072674
vt 0.020204 0.078141
vt 0.001221 0.01367
vt 0.073242 0.01367
vt 0.072884 0.014893
vt 0.001579 0.014893
vt 0.021729 0.078554
vt 0.030045 0.072674
vt 0.030458 0.073879
vt 0.022726 0.079346
vt 0.345335 0.447021
vt 0.27403 0.447021
vt 0.267334 0.440326
vt 0.352031 0.440326
vt 0.345335 0.447021
vt 0.267334 0.440326
vt 0.352031 0.36902
vt 0.352031 0.440326
vt 0.267334 0.440326
vt 0.345335 0.362324
vt 0.352031 0.36902
vt 0.267334 0.440326
vt 0.27403 0.362324
vt 0.345335 0.362324
vt 0.267334 0.440326
vt 0.267334 0.440326
vt 0.267334 0.36902
vt 0.27403 0.362324
vt 0.35376 0.36902
vt 0.360456 0.362324
vt 0.431761 0.362324
vt 0.35376 0.36902
vt 0.431761 0.362324
vt 0.438457 0.36902
vt 0.35376 0.36902
vt 0.438457 0.36902
vt 0.438457 0.440326
vt 0.35376 0.36902
vt 0.438457 0.440326
vt 0.431761 0.447021
vt 0.35376 0.36902
vt 0.431761 0.447021
vt 0.360456 0.447021
vt 0.360456 0.447021
vt 0.35376 0.440326
vt 0.35376 0.36902
vn -0.692978 -0.718351 -0.061256
vn -0.692978 -0.718351 0.061256
vn -0.061256 -0.718351 0.692978
vn 0.061256 -0.718351 0.692978
vn 0.692978 -0.718351 0.061256
vn 0.692978 -0.718351 -0.061256
vn 0.061256 -0.718351 -0.692978
vn -0.061256 -0.718351 -0.692978
vn -1 0 0
vn -0.707107 0 0.707107
vn 0 0 1
vn 0.707107 0 0.707107
vn 1 0 0
vn 0.707107 0 -0.707107
vn 0 0 -1
vn -0.707107 0 -0.707107
vn -0.692978 0.718351 -0.061256
vn -0.692978 0.718351 0.061256
vn -0.061256 0.718351 0.692978
vn 0.061256 0.718351 0.692978
vn 0.692978 0.718351 0.061256
vn 0.692978 0.718351 -0.061256
vn 0.061256 0.718351 -0.692978
vn -0.061256 0.718351 -0.692978
vn 0 -1 0
vn 0 1 0
f 325/933/135 326/934/136 334/935/136 333/936/135
f 326/937/136 327/938/137 335/939/137 334/940/136
f 327/941/137 328/942/138 336/943/138 335/944/137
f 328/945/138 329/946/139 337/947/139 336/948/138
f 329/949/139 330/950/140 338/951/140 337/952/139
f 330/953/140 331/954/141 339/955/141 338/956/140
f 331/957/141 332/958/142 340/959/142 339/960/141
f 332/961/142 325/962/135 333/963/135 340/964/142
f 333/965/143 334/966/143 342/967/143 341/968/143
f 334/969/144 335/970/144 343/971/144 342/972/144
f 335/973/145 336/974/145 344/975/145 343/976/145
f 336/977/146 337/978/146 345/979/146 344/980/146
f 337/981/147 338/982/147 346/983/147 345/984/147
f 338/985/148 339/986/148 347/987/148 346/988/148
f 339/989/149 340/990/149 348/991/149 347/992/149
f 340/993/150 333/994/150 341/995/150 348/996/150
f 341/997/151 342/998/152 350/999/152 349/1000/151
f 342/1001/152 343/1002/153 351/1003/153 350/1004/152
f 343/1005/153 344/1006/154 352/1007/154 351/1008/153
f 344/1009/154 345/1010/155 353/1011/155 352/1012/154
f 345/1013/155 346/1014/156 354/1015/156 353/1016/155
f 346/1017/156 347/1018/157 355/1019/157 354/1020/156
f 347/1021/157 348/1022/158 356/1023/158 355/1024/157
f 348/1025/158 341/1026/151 349/1027/151 356/1028/158
f 358/1029/159 357/1030/159 364/1031/159
f 359/1032/159 358/1033/159 364/1034/159
f 360/1035/159 359/1036/159 364/1037/159
f 361/1038/159 360/1039/159 364/1040/159
f 362/1041/159 361/1042/159 364/1043/159
f 364/1044/159 363/1045/159 362/1046/159
f 372/1047/160 365/1048/160 366/1049/160
f 372/1050/160 366/1051/160 367/1052/160
f 372/1053/160 367/1054/160 368/1055/160
f 372/1056/160 368/1057/160 369/1058/160
f 372/1059/160 369/1060/160 370/1061/160
f 370/1062/160 371/1063/160 372/1064/160
o column_base_curb_base_plate
usemtl fuel_canopy
v 0.1675 0.5375 0.227071
v 0.1675 0.5375 0.772929
v 0.227071 0.5375 0.8325
v 0.772929 0.5375 0.8325
v 0.8325 0.5375 0.772929
v 0.8325 0.5375 0.227071
v 0.772929 0.5375 0.1675
v 0.227071 0.5375 0.1675
v 0.1625 0.5425 0.225
v 0.1625 0.5425 0.775
v 0.225 0.5425 0.8375
v 0.775 0.5425 0.8375
v 0.8375 0.5425 0.775
v 0.8375 0.5425 0.225
v 0.775 0.5425 0.1625
v 0.225 0.5425 0.1625
v 0.1625 0.5575 0.225
v 0.1625 0.5575 0.775
v 0.225 0.5575 0.8375
v 0.775 0.5575 0.8375
v 0.8375 0.5575 0.775
v 0.8375 0.5575 0.225
v 0.775 0.5575 0.1625
v 0.225 0.5575 0.1625
v 0.1675 0.5625 0.227071
v 0.1675 0.5625 0.772929
v 0.227071 0.5625 0.8325
v 0.772929 0.5625 0.8325
v 0.8325 0.5625 0.772929
v 0.8325 0.5625 0.227071
v 0.772929 0.5625 0.1675
v 0.227071 0.5625 0.1675
v 0.1675 0.5375 0.227071
v 0.1675 0.5375 0.772929
v 0.227071 0.5375 0.8325
v 0.772929 0.5375 0.8325
v 0.8325 0.5375 0.772929
v 0.8325 0.5375 0.227071
v 0.772929 0.5375 0.1675
v 0.227071 0.5375 0.1675
v 0.1675 0.5625 0.227071
v 0.1675 0.5625 0.772929
v 0.227071 0.5625 0.8325
v 0.772929 0.5625 0.8325
v 0.8325 0.5625 0.772929
v 0.8325 0.5625 0.227071
v 0.772929 0.5625 0.1675
v 0.227071 0.5625 0.1675
vt 0.329096 0.011148
vt 0.391998 0.011148
vt 0.392236 0.011963
vt 0.328857 0.011963
vt 0.237061 0.078543
vt 0.244987 0.072938
vt 0.245652 0.073465
vt 0.237336 0.079346
vt 0.001459 0.008707
vt 0.064361 0.008707
vt 0.0646 0.009521
vt 0.001221 0.009521
vt 0.142448 0.079346
vt 0.134521 0.073741
vt 0.134797 0.072938
vt 0.143113 0.078818
vt 0.456939 0.011963
vt 0.394037 0.011963
vt 0.393799 0.011148
vt 0.457178 0.011148
vt 0.255906 0.073741
vt 0.24798 0.079346
vt 0.247314 0.078818
vt 0.255631 0.072938
vt 0.129302 0.009521
vt 0.066401 0.009521
vt 0.066162 0.008707
vt 0.129541 0.008707
vt 0.145441 0.072938
vt 0.153367 0.078543
vt 0.153092 0.079346
vt 0.144775 0.073465
vt 0.570068 0.029766
vt 0.633447 0.029766
vt 0.633447 0.031494
vt 0.570068 0.031494
vt 0.876709 0.029766
vt 0.886894 0.029766
vt 0.886894 0.031494
vt 0.876709 0.031494
vt 0.63501 0.029766
vt 0.698389 0.029766
vt 0.698389 0.031494
vt 0.63501 0.031494
vt 0.898613 0.031494
vt 0.888428 0.031494
vt 0.888428 0.029766
vt 0.898613 0.029766
vt 0.76333 0.031494
vt 0.699951 0.031494
vt 0.699951 0.029766
vt 0.76333 0.029766
vt 0.910332 0.031494
vt 0.900146 0.031494
vt 0.900146 0.029766
vt 0.910332 0.029766
vt 0.764893 0.029766
vt 0.828271 0.029766
vt 0.828271 0.031494
vt 0.764893 0.031494
vt 0.911865 0.029766
vt 0.922051 0.029766
vt 0.922051 0.031494
vt 0.911865 0.031494
vt 0.588623 0.011148
vt 0.652002 0.011148
vt 0.651763 0.011963
vt 0.588862 0.011963
vt 0.257844 0.072938
vt 0.26616 0.078818
vt 0.265495 0.079346
vt 0.257568 0.073741
vt 0.54751 0.014893
vt 0.484131 0.014893
vt 0.48437 0.014078
vt 0.547271 0.014078
vt 0.184129 0.073465
vt 0.175813 0.079346
vt 0.175537 0.078543
vt 0.183464 0.072938
vt 0.716943 0.011963
vt 0.653564 0.011963
vt 0.653803 0.011148
vt 0.716705 0.011148
vt 0.276139 0.079346
vt 0.267822 0.073465
vt 0.268488 0.072938
vt 0.276414 0.078543
vt 0.549072 0.014078
vt 0.612451 0.014078
vt 0.612213 0.014893
vt 0.549311 0.014893
vt 0.185791 0.078818
vt 0.194107 0.072938
vt 0.194383 0.073741
vt 0.186456 0.079346
vt 0.828311 0.447021
vt 0.76541 0.447021
vt 0.758545 0.440157
vt 0.835176 0.440157
vt 0.828311 0.447021
vt 0.758545 0.440157
vt 0.835176 0.377255
vt 0.835176 0.440157
vt 0.758545 0.440157
vt 0.828311 0.370391
vt 0.835176 0.377255
vt 0.758545 0.440157
vt 0.76541 0.370391
vt 0.828311 0.370391
vt 0.758545 0.440157
vt 0.758545 0.440157
vt 0.758545 0.377255
vt 0.76541 0.370391
vt 0.83667 0.377255
vt 0.843535 0.370391
vt 0.906436 0.370391
vt 0.83667 0.377255
vt 0.906436 0.370391
vt 0.913301 0.377255
vt 0.83667 0.377255
vt 0.913301 0.377255
vt 0.913301 0.440157
vt 0.83667 0.377255
vt 0.913301 0.440157
vt 0.906436 0.447021
vt 0.83667 0.377255
vt 0.906436 0.447021
vt 0.843535 0.447021
vt 0.843535 0.447021
vt 0.83667 0.440157
vt 0.83667 0.377255
vn -0.690921 -0.719606 -0.06925
vn -0.690921 -0.719606 0.06925
vn -0.06925 -0.719606 0.690921
vn 0.06925 -0.719606 0.690921
vn 0.690921 -0.719606 0.06925
vn 0.690921 -0.719606 -0.06925
vn 0.06925 -0.719606 -0.690921
vn -0.06925 -0.719606 -0.690921
vn -1 0 0
vn -0.707107 0 0.707107
vn 0 0 1
vn 0.707107 0 0.707107
vn 1 0 0
vn 0.707107 0 -0.707107
vn 0 0 -1
vn -0.707107 0 -0.707107
vn -0.690921 0.719606 -0.06925
vn -0.690921 0.719606 0.06925
vn -0.06925 0.719606 0.690921
vn 0.06925 0.719606 0.690921
vn 0.690921 0.719606 0.06925
vn 0.690921 0.719606 -0.06925
vn 0.06925 0.719606 -0.690921
vn -0.06925 0.719606 -0.690921
vn 0 -1 0
vn 0 1 0
f 373/1065/161 374/1066/162 382/1067/162 381/1068/161
f 374/1069/162 375/1070/163 383/1071/163 382/1072/162
f 375/1073/163 376/1074/164 384/1075/164 383/1076/163
f 376/1077/164 377/1078/165 385/1079/165 384/1080/164
f 377/1081/165 378/1082/166 386/1083/166 385/1084/165
f 378/1085/166 379/1086/167 387/1087/167 386/1088/166
f 379/1089/167 380/1090/168 388/1091/168 387/1092/167
f 380/1093/168 373/1094/161 381/1095/161 388/1096/168
f 381/1097/169 382/1098/169 390/1099/169 389/1100/169
f 382/1101/170 383/1102/170 391/1103/170 390/1104/170
f 383/1105/171 384/1106/171 392/1107/171 391/1108/171
f 384/1109/172 385/1110/172 393/1111/172 392/1112/172
f 385/1113/173 386/1114/173 394/1115/173 393/1116/173
f 386/1117/174 387/1118/174 395/1119/174 394/1120/174
f 387/1121/175 388/1122/175 396/1123/175 395/1124/175
f 388/1125/176 381/1126/176 389/1127/176 396/1128/176
f 389/1129/177 390/1130/178 398/1131/178 397/1132/177
f 390/1133/178 391/1134/179 399/1135/179 398/1136/178
f 391/1137/179 392/1138/180 400/1139/180 399/1140/179
f 392/1141/180 393/1142/181 401/1143/181 400/1144/180
f 393/1145/181 394/1146/182 402/1147/182 401/1148/181
f 394/1149/182 395/1150/183 403/1151/183 402/1152/182
f 395/1153/183 396/1154/184 404/1155/184 403/1156/183
f 396/1157/184 389/1158/177 397/1159/177 404/1160/184
f 406/1161/185 405/1162/185 412/1163/185
f 407/1164/185 406/1165/185 412/1166/185
f 408/1167/185 407/1168/185 412/1169/185
f 409/1170/185 408/1171/185 412/1172/185
f 410/1173/185 409/1174/185 412/1175/185
f 412/1176/185 411/1177/185 410/1178/185
f 420/1179/186 413/1180/186 414/1181/186
f 420/1182/186 414/1183/186 415/1184/186
f 420/1185/186 415/1186/186 416/1187/186
f 420/1188/186 416/1189/186 417/1190/186
f 420/1191/186 417/1192/186 418/1193/186
f 418/1194/186 419/1195/186 420/1196/186
o column_base_curb_anchor_nuts
usemtl fuel_canopy
v 0.796528 0.5625 0.78875
v 0.778125 0.5625 0.799375
v 0.759722 0.5625 0.78875
v 0.759722 0.5625 0.7675
v 0.778125 0.5625 0.756875
v 0.796528 0.5625 0.7675
v 0.796528 0.5825 0.78875
v 0.778125 0.5825 0.799375
v 0.759722 0.5825 0.78875
v 0.759722 0.5825 0.7675
v 0.778125 0.5825 0.756875
v 0.796528 0.5825 0.7675
v 0.78895 0.5875 0.784375
v 0.778125 0.5875 0.790625
v 0.7673 0.5875 0.784375
v 0.7673 0.5875 0.771875
v 0.778125 0.5875 0.765625
v 0.78895 0.5875 0.771875
v 0.786785 0.595 0.783125
v 0.778125 0.595 0.788125
v 0.769465 0.595 0.783125
v 0.769465 0.595 0.773125
v 0.778125 0.595 0.768125
v 0.786785 0.595 0.773125
v 0.778125 0.595 0.778125
v 0.240278 0.5625 0.78875
v 0.221875 0.5625 0.799375
v 0.203472 0.5625 0.78875
v 0.203472 0.5625 0.7675
v 0.221875 0.5625 0.756875
v 0.240278 0.5625 0.7675
v 0.240278 0.5825 0.78875
v 0.221875 0.5825 0.799375
v 0.203472 0.5825 0.78875
v 0.203472 0.5825 0.7675
v 0.221875 0.5825 0.756875
v 0.240278 0.5825 0.7675
v 0.2327 0.5875 0.784375
v 0.221875 0.5875 0.790625
v 0.21105 0.5875 0.784375
v 0.21105 0.5875 0.771875
v 0.221875 0.5875 0.765625
v 0.2327 0.5875 0.771875
v 0.230535 0.595 0.783125
v 0.221875 0.595 0.788125
v 0.213215 0.595 0.783125
v 0.213215 0.595 0.773125
v 0.221875 0.595 0.768125
v 0.230535 0.595 0.773125
v 0.221875 0.595 0.778125
v 0.240278 0.5625 0.2325
v 0.221875 0.5625 0.243125
v 0.203472 0.5625 0.2325
v 0.203472 0.5625 0.21125
v 0.221875 0.5625 0.200625
v 0.240278 0.5625 0.21125
v 0.240278 0.5825 0.2325
v 0.221875 0.5825 0.243125
v 0.203472 0.5825 0.2325
v 0.203472 0.5825 0.21125
v 0.221875 0.5825 0.200625
v 0.240278 0.5825 0.21125
v 0.2327 0.5875 0.228125
v 0.221875 0.5875 0.234375
v 0.21105 0.5875 0.228125
v 0.21105 0.5875 0.215625
v 0.221875 0.5875 0.209375
v 0.2327 0.5875 0.215625
v 0.230535 0.595 0.226875
v 0.221875 0.595 0.231875
v 0.213215 0.595 0.226875
v 0.213215 0.595 0.216875
v 0.221875 0.595 0.211875
v 0.230535 0.595 0.216875
v 0.221875 0.595 0.221875
v 0.796528 0.5625 0.2325
v 0.778125 0.5625 0.243125
v 0.759722 0.5625 0.2325
v 0.759722 0.5625 0.21125
v 0.778125 0.5625 0.200625
v 0.796528 0.5625 0.21125
v 0.796528 0.5825 0.2325
v 0.778125 0.5825 0.243125
v 0.759722 0.5825 0.2325
v 0.759722 0.5825 0.21125
v 0.778125 0.5825 0.200625
v 0.796528 0.5825 0.21125
v 0.78895 0.5875 0.228125
v 0.778125 0.5875 0.234375
v 0.7673 0.5875 0.228125
v 0.7673 0.5875 0.215625
v 0.778125 0.5875 0.209375
v 0.78895 0.5875 0.215625
v 0.786785 0.595 0.226875
v 0.778125 0.595 0.231875
v 0.769465 0.595 0.226875
v 0.769465 0.595 0.216875
v 0.778125 0.595 0.211875
v 0.786785 0.595 0.216875
v 0.778125 0.595 0.221875
vt 0.341553 0.033584
vt 0.344001 0.033584
vt 0.344001 0.035889
vt 0.341553 0.035889
vt 0.190193 0.035889
vt 0.187744 0.035889
vt 0.187744 0.033584
vt 0.190193 0.033584
vt 0.194587 0.035889
vt 0.192139 0.035889
vt 0.192139 0.033584
vt 0.194587 0.033584
vt 0.348396 0.035889
vt 0.345947 0.035889
vt 0.345947 0.033584
vt 0.348396 0.033584
vt 0.407471 0.033584
vt 0.409919 0.033584
vt 0.409919 0.035889
vt 0.407471 0.035889
vt 0.196533 0.033584
vt 0.198982 0.033584
vt 0.198982 0.035889
vt 0.196533 0.035889
vt 0.162875 0.029528
vt 0.16406 0.030347
vt 0.163879 0.031494
vt 0.161865 0.030101
vt 0.236084 0.030347
vt 0.237269 0.029528
vt 0.238278 0.030101
vt 0.236265 0.031494
vt 0.164786 0.014893
vt 0.163346 0.014893
vt 0.162842 0.013846
vt 0.165291 0.013846
vt 0.217737 0.031494
vt 0.216553 0.030675
vt 0.216733 0.029528
vt 0.218747 0.030921
vt 0.242185 0.030675
vt 0.241 0.031494
vt 0.23999 0.030921
vt 0.242004 0.029528
vt 0.145768 0.013846
vt 0.147208 0.013846
vt 0.147712 0.014893
vt 0.145264 0.014893
vt 0.605225 0.023297
vt 0.606263 0.022798
vt 0.606783 0.023546
vt 0.605484 0.02417
vt 0.541322 0.02417
vt 0.540283 0.023671
vt 0.540543 0.022798
vt 0.541841 0.023421
vt 0.441482 0.014893
vt 0.44033 0.014893
vt 0.440186 0.013993
vt 0.441626 0.013993
vt 0.658052 0.023671
vt 0.657013 0.02417
vt 0.656494 0.023421
vt 0.657793 0.022798
vt 0.609162 0.022798
vt 0.610201 0.023297
vt 0.609941 0.02417
vt 0.608643 0.023546
vt 0.419822 0.013993
vt 0.420974 0.013993
vt 0.421118 0.014893
vt 0.419678 0.014893
vt 0.093857 0.030496
vt 0.093281 0.031494
vt 0.092705 0.030496
vt 0.093281 0.029498
vt 0.093857 0.030496
vt 0.092705 0.030496
vt 0.092129 0.029498
vt 0.093281 0.029498
vt 0.092705 0.030496
vt 0.091553 0.030496
vt 0.092129 0.029498
vt 0.092705 0.030496
vt 0.092129 0.031494
vt 0.091553 0.030496
vt 0.092705 0.030496
vt 0.093281 0.031494
vt 0.092129 0.031494
vt 0.092705 0.030496
vt 0.200928 0.033584
vt 0.203376 0.033584
vt 0.203376 0.035889
vt 0.200928 0.035889
vt 0.352791 0.035889
vt 0.350342 0.035889
vt 0.350342 0.033584
vt 0.352791 0.033584
vt 0.207771 0.035889
vt 0.205322 0.035889
vt 0.205322 0.033584
vt 0.207771 0.033584
vt 0.414314 0.035889
vt 0.411865 0.035889
vt 0.411865 0.033584
vt 0.414314 0.033584
vt 0.354736 0.033584
vt 0.357185 0.033584
vt 0.357185 0.035889
vt 0.354736 0.035889
vt 0.209717 0.033584
vt 0.212166 0.033584
vt 0.212166 0.035889
vt 0.209717 0.035889
vt 0.244906 0.029528
vt 0.246091 0.030347
vt 0.24591 0.031494
vt 0.243896 0.030101
vt 0.165771 0.030347
vt 0.166956 0.029528
vt 0.167966 0.030101
vt 0.165952 0.031494
vt 0.120841 0.014893
vt 0.119401 0.014893
vt 0.118896 0.013846
vt 0.121345 0.013846
vt 0.264612 0.031494
vt 0.263428 0.030675
vt 0.263608 0.029528
vt 0.265622 0.030921
vt 0.199216 0.030675
vt 0.198031 0.031494
vt 0.197021 0.030921
vt 0.199035 0.029528
vt 0.16774 0.013846
vt 0.169181 0.013846
vt 0.169685 0.014893
vt 0.167236 0.014893
vt 0.574463 0.023297
vt 0.575502 0.022798
vt 0.576021 0.023546
vt 0.574723 0.02417
vt 0.558412 0.02417
vt 0.557373 0.023671
vt 0.557633 0.022798
vt 0.558931 0.023421
vt 0.444412 0.014893
vt 0.443259 0.014893
vt 0.443115 0.013993
vt 0.444556 0.013993
vt 0.613619 0.023671
vt 0.61258 0.02417
vt 0.612061 0.023421
vt 0.613359 0.022798
vt 0.5784 0.022798
vt 0.579439 0.023297
vt 0.579179 0.02417
vt 0.577881 0.023546
vt 0.422751 0.013993
vt 0.423904 0.013993
vt 0.424048 0.014893
vt 0.422607 0.014893
vt 0.097764 0.030496
vt 0.097187 0.031494
vt 0.096611 0.030496
vt 0.097187 0.029498
vt 0.097764 0.030496
vt 0.096611 0.030496
vt 0.096035 0.029498
vt 0.097187 0.029498
vt 0.096611 0.030496
vt 0.095459 0.030496
vt 0.096035 0.029498
vt 0.096611 0.030496
vt 0.096035 0.031494
vt 0.095459 0.030496
vt 0.096611 0.030496
vt 0.097187 0.031494
vt 0.096035 0.031494
vt 0.096611 0.030496
vt 0.359131 0.033584
vt 0.36158 0.033584
vt 0.36158 0.035889
vt 0.359131 0.035889
vt 0.418708 0.035889
vt 0.41626 0.035889
vt 0.41626 0.033584
vt 0.418708 0.033584
vt 0.21656 0.035889
vt 0.214111 0.035889
vt 0.214111 0.033584
vt 0.21656 0.033584
vt 0.365974 0.035889
vt 0.363525 0.035889
vt 0.363525 0.033584
vt 0.365974 0.033584
vt 0.218506 0.033584
vt 0.220955 0.033584
vt 0.220955 0.035889
vt 0.218506 0.035889
vt 0.2229 0.033584
vt 0.225349 0.033584
vt 0.225349 0.035889
vt 0.2229 0.035889
vt 0.221469 0.029528
vt 0.222653 0.030347
vt 0.222473 0.031494
vt 0.220459 0.030101
vt 0.267334 0.030347
vt 0.268519 0.029528
vt 0.269528 0.030101
vt 0.267515 0.031494
vt 0.125236 0.014893
vt 0.123795 0.014893
vt 0.123291 0.013846
vt 0.12574 0.013846
vt 0.170862 0.031494
vt 0.169678 0.030675
vt 0.169858 0.029528
vt 0.171872 0.030921
vt 0.308591 0.030675
vt 0.307406 0.031494
vt 0.306396 0.030921
vt 0.30841 0.029528
vt 0.172135 0.013846
vt 0.173575 0.013846
vt 0.17408 0.014893
vt 0.171631 0.014893
vt 0.659912 0.023297
vt 0.660951 0.022798
vt 0.66147 0.023546
vt 0.660172 0.02417
vt 0.551576 0.02417
vt 0.550537 0.023671
vt 0.550797 0.022798
vt 0.552095 0.023421
vt 0.447341 0.014893
vt 0.446189 0.014893
vt 0.446045 0.013993
vt 0.447485 0.013993
vt 0.617037 0.023671
vt 0.615998 0.02417
vt 0.615479 0.023421
vt 0.616777 0.022798
vt 0.581818 0.022798
vt 0.582857 0.023297
vt 0.582597 0.02417
vt 0.581299 0.023546
vt 0.425681 0.013993
vt 0.426833 0.013993
vt 0.426978 0.014893
vt 0.425537 0.014893
vt 0.10167 0.030496
vt 0.101094 0.031494
vt 0.100518 0.030496
vt 0.101094 0.029498
vt 0.10167 0.030496
vt 0.100518 0.030496
vt 0.099941 0.029498
vt 0.101094 0.029498
vt 0.100518 0.030496
vt 0.099365 0.030496
vt 0.099941 0.029498
vt 0.100518 0.030496
vt 0.099941 0.031494
vt 0.099365 0.030496
vt 0.100518 0.030496
vt 0.101094 0.031494
vt 0.099941 0.031494
vt 0.100518 0.030496
vt 0.420654 0.033584
vt 0.423103 0.033584
vt 0.423103 0.035889
vt 0.420654 0.035889
vt 0.370369 0.035889
vt 0.36792 0.035889
vt 0.36792 0.033584
vt 0.370369 0.033584
vt 0.229744 0.035889
vt 0.227295 0.035889
vt 0.227295 0.033584
vt 0.229744 0.033584
vt 0.234138 0.035889
vt 0.231689 0.035889
vt 0.231689 0.033584
vt 0.234138 0.033584
vt 0.372314 0.033584
vt 0.374763 0.033584
vt 0.374763 0.035889
vt 0.372314 0.035889
vt 0.236084 0.033584
vt 0.238533 0.033584
vt 0.238533 0.035889
vt 0.236084 0.035889
vt 0.27225 0.029528
vt 0.273435 0.030347
vt 0.273254 0.031494
vt 0.27124 0.030101
vt 0.224365 0.030347
vt 0.22555 0.029528
vt 0.22656 0.030101
vt 0.224546 0.031494
vt 0.17797 0.014893
vt 0.17653 0.014893
vt 0.176025 0.013846
vt 0.178474 0.013846
vt 0.248987 0.031494
vt 0.247803 0.030675
vt 0.247983 0.029528
vt 0.249997 0.030921
vt 0.292966 0.030675
vt 0.291781 0.031494
vt 0.290771 0.030921
vt 0.292785 0.029528
vt 0.150162 0.013846
vt 0.151603 0.013846
vt 0.152107 0.014893
vt 0.149658 0.014893
vt 0.618896 0.023297
vt 0.619935 0.022798
vt 0.620455 0.023546
vt 0.619156 0.02417
vt 0.585756 0.02417
vt 0.584717 0.023671
vt 0.584976 0.022798
vt 0.586275 0.023421
vt 0.450271 0.014893
vt 0.449119 0.014893
vt 0.448975 0.013993
vt 0.450415 0.013993
vt 0.589693 0.023671
vt 0.588654 0.02417
vt 0.588135 0.023421
vt 0.589433 0.022798
vt 0.56131 0.022798
vt 0.562349 0.023297
vt 0.562089 0.02417
vt 0.560791 0.023546
vt 0.478416 0.013993
vt 0.479568 0.013993
vt 0.479712 0.014893
vt 0.478271 0.014893
vt 0.105576 0.030496
vt 0.105 0.031494
vt 0.104424 0.030496
vt 0.105 0.029498
vt 0.105576 0.030496
vt 0.104424 0.030496
vt 0.103848 0.029498
vt 0.105 0.029498
vt 0.104424 0.030496
vt 0.103271 0.030496
vt 0.103848 0.029498
vt 0.104424 0.030496
vt 0.103848 0.031494
vt 0.103271 0.030496
vt 0.104424 0.030496
vt 0.105 0.031494
vt 0.103848 0.031494
vt 0.104424 0.030496
vn 0.5 0 0.866025
vn -0.5 0 0.866025
vn -1 0 0
vn -0.5 0 -0.866025
vn 0.5 0 -0.866025
vn 1 0 0
vn 0.429669 0.868243 0.248069
vn 0 0.868243 0.496139
vn -0.429669 0.868243 0.248069
vn -0.429669 0.868243 -0.248069
vn 0 0.868243 -0.496139
vn 0.429669 0.868243 -0.248069
vn 0.480384 0.27735 0.83205
vn -0.480384 0.27735 0.83205
vn -0.960769 0.27735 0
vn -0.480384 0.27735 -0.83205
vn 0.480384 0.27735 -0.83205
vn 0.960769 0.27735 0
vn 0 1 0
f 427/1197/187 428/1198/187 422/1199/187 421/1200/187
f 428/1201/188 429/1202/188 423/1203/188 422/1204/188
f 429/1205/189 430/1206/189 424/1207/189 423/1208/189
f 430/1209/190 431/1210/190 425/1211/190 424/1212/190
f 431/1213/191 432/1214/191 426/1215/191 425/1216/191
f 432/1217/192 427/1218/192 421/1219/192 426/1220/192
f 433/1221/193 434/1222/194 428/1223/194 427/1224/193
f 434/1225/194 435/1226/195 429/1227/195 428/1228/194
f 435/1229/195 436/1230/196 430/1231/196 429/1232/195
f 436/1233/196 437/1234/197 431/1235/197 430/1236/196
f 437/1237/197 438/1238/198 432/1239/198 431/1240/197
f 438/1241/198 433/1242/193 427/1243/193 432/1244/198
f 439/1245/199 440/1246/199 434/1247/199 433/1248/199
f 440/1249/200 441/1250/200 435/1251/200 434/1252/200
f 441/1253/201 442/1254/201 436/1255/201 435/1256/201
f 442/1257/202 443/1258/202 437/1259/202 436/1260/202
f 443/1261/203 444/1262/203 438/1263/203 437/1264/203
f 444/1265/204 439/1266/204 433/1267/204 438/1268/204
f 440/1269/205 439/1270/205 445/1271/205
f 441/1272/205 440/1273/205 445/1274/205
f 442/1275/205 441/1276/205 445/1277/205
f 443/1278/205 442/1279/205 445/1280/205
f 444/1281/205 443/1282/205 445/1283/205
f 439/1284/205 444/1285/205 445/1286/205
f 452/1287/187 453/1288/187 447/1289/187 446/1290/187
f 453/1291/188 454/1292/188 448/1293/188 447/1294/188
f 454/1295/189 455/1296/189 449/1297/189 448/1298/189
f 455/1299/190 456/1300/190 450/1301/190 449/1302/190
f 456/1303/191 457/1304/191 451/1305/191 450/1306/191
f 457/1307/192 452/1308/192 446/1309/192 451/1310/192
f 458/1311/193 459/1312/194 453/1313/194 452/1314/193
f 459/1315/194 460/1316/195 454/1317/195 453/1318/194
f 460/1319/195 461/1320/196 455/1321/196 454/1322/195
f 461/1323/196 462/1324/197 456/1325/197 455/1326/196
f 462/1327/197 463/1328/198 457/1329/198 456/1330/197
f 463/1331/198 458/1332/193 452/1333/193 457/1334/198
f 464/1335/199 465/1336/199 459/1337/199 458/1338/199
f 465/1339/200 466/1340/200 460/1341/200 459/1342/200
f 466/1343/201 467/1344/201 461/1345/201 460/1346/201
f 467/1347/202 468/1348/202 462/1349/202 461/1350/202
f 468/1351/203 469/1352/203 463/1353/203 462/1354/203
f 469/1355/204 464/1356/204 458/1357/204 463/1358/204
f 465/1359/205 464/1360/205 470/1361/205
f 466/1362/205 465/1363/205 470/1364/205
f 467/1365/205 466/1366/205 470/1367/205
f 468/1368/205 467/1369/205 470/1370/205
f 469/1371/205 468/1372/205 470/1373/205
f 464/1374/205 469/1375/205 470/1376/205
f 477/1377/187 478/1378/187 472/1379/187 471/1380/187
f 478/1381/188 479/1382/188 473/1383/188 472/1384/188
f 479/1385/189 480/1386/189 474/1387/189 473/1388/189
f 480/1389/190 481/1390/190 475/1391/190 474/1392/190
f 481/1393/191 482/1394/191 476/1395/191 475/1396/191
f 482/1397/192 477/1398/192 471/1399/192 476/1400/192
f 483/1401/193 484/1402/194 478/1403/194 477/1404/193
f 484/1405/194 485/1406/195 479/1407/195 478/1408/194
f 485/1409/195 486/1410/196 480/1411/196 479/1412/195
f 486/1413/196 487/1414/197 481/1415/197 480/1416/196
f 487/1417/197 488/1418/198 482/1419/198 481/1420/197
f 488/1421/198 483/1422/193 477/1423/193 482/1424/198
f 489/1425/199 490/1426/199 484/1427/199 483/1428/199
f 490/1429/200 491/1430/200 485/1431/200 484/1432/200
f 491/1433/201 492/1434/201 486/1435/201 485/1436/201
f 492/1437/202 493/1438/202 487/1439/202 486/1440/202
f 493/1441/203 494/1442/203 488/1443/203 487/1444/203
f 494/1445/204 489/1446/204 483/1447/204 488/1448/204
f 490/1449/205 489/1450/205 495/1451/205
f 491/1452/205 490/1453/205 495/1454/205
f 492/1455/205 491/1456/205 495/1457/205
f 493/1458/205 492/1459/205 495/1460/205
f 494/1461/205 493/1462/205 495/1463/205
f 489/1464/205 494/1465/205 495/1466/205
f 502/1467/187 503/1468/187 497/1469/187 496/1470/187
f 503/1471/188 504/1472/188 498/1473/188 497/1474/188
f 504/1475/189 505/1476/189 499/1477/189 498/1478/189
f 505/1479/190 506/1480/190 500/1481/190 499/1482/190
f 506/1483/191 507/1484/191 501/1485/191 500/1486/191
f 507/1487/192 502/1488/192 496/1489/192 501/1490/192
f 508/1491/193 509/1492/194 503/1493/194 502/1494/193
f 509/1495/194 510/1496/195 504/1497/195 503/1498/194
f 510/1499/195 511/1500/196 505/1501/196 504/1502/195
f 511/1503/196 512/1504/197 506/1505/197 505/1506/196
f 512/1507/197 513/1508/198 507/1509/198 506/1510/197
f 513/1511/198 508/1512/193 502/1513/193 507/1514/198
f 514/1515/199 515/1516/199 509/1517/199 508/1518/199
f 515/1519/200 516/1520/200 510/1521/200 509/1522/200
f 516/1523/201 517/1524/201 511/1525/201 510/1526/201
f 517/1527/202 518/1528/202 512/1529/202 511/1530/202
f 518/1531/203 519/1532/203 513/1533/203 512/1534/203
f 519/1535/204 514/1536/204 508/1537/204 513/1538/204
f 515/1539/205 514/1540/205 520/1541/205
f 516/1542/205 515/1543/205 520/1544/205
f 517/1545/205 516/1546/205 520/1547/205
f 518/1548/205 517/1549/205 520/1550/205
f 519/1551/205 518/1552/205 520/1553/205
f 514/1554/205 519/1555/205 520/1556/205
o column_base_curb_tube
usemtl fuel_canopy
v 0.21875 0.5625 0.275
v 0.21875 0.5625 0.725
v 0.275 0.5625 0.78125
v 0.725 0.5625 0.78125
v 0.78125 0.5625 0.725
v 0.78125 0.5625 0.275
v 0.725 0.5625 0.21875
v 0.275 0.5625 0.21875
v 0.21875 1 0.275
v 0.21875 1 0.725
v 0.275 1 0.78125
v 0.725 1 0.78125
v 0.78125 1 0.725
v 0.78125 1 0.275
v 0.725 1 0.21875
v 0.275 1 0.21875
v 0.21875 0.5625 0.275
v 0.21875 0.5625 0.725
v 0.275 0.5625 0.78125
v 0.725 0.5625 0.78125
v 0.78125 0.5625 0.725
v 0.78125 0.5625 0.275
v 0.725 0.5625 0.21875
v 0.275 0.5625 0.21875
v 0.21875 1 0.275
v 0.21875 1 0.725
v 0.275 1 0.78125
v 0.725 1 0.78125
v 0.78125 1 0.725
v 0.78125 1 0.275
v 0.725 1 0.21875
v 0.275 1 0.21875
vt 0.412842 0.228638
vt 0.464697 0.228638
vt 0.464697 0.279053
vt 0.412842 0.279053
vt 0.463257 0.119007
vt 0.463257 0.128174
vt 0.412842 0.128174
vt 0.412842 0.119007
vt 0.466553 0.228638
vt 0.518408 0.228638
vt 0.518408 0.279053
vt 0.466553 0.279053
vt 0.465088 0.128174
vt 0.465088 0.119007
vt 0.515503 0.119007
vt 0.515503 0.128174
vt 0.572119 0.279053
vt 0.520264 0.279053
vt 0.520264 0.228638
vt 0.572119 0.228638
vt 0.517334 0.128174
vt 0.517334 0.119007
vt 0.567749 0.119007
vt 0.567749 0.128174
vt 0.573975 0.228638
vt 0.62583 0.228638
vt 0.62583 0.279053
vt 0.573975 0.279053
vt 0.619995 0.119007
vt 0.619995 0.128174
vt 0.56958 0.128174
vt 0.56958 0.119007
vt 0.409656 0.35376
vt 0.3578 0.35376
vt 0.351318 0.347278
vt 0.416138 0.347278
vt 0.409656 0.35376
vt 0.351318 0.347278
vt 0.416138 0.295422
vt 0.416138 0.347278
vt 0.351318 0.347278
vt 0.409656 0.28894
vt 0.416138 0.295422
vt 0.351318 0.347278
vt 0.3578 0.28894
vt 0.409656 0.28894
vt 0.351318 0.347278
vt 0.351318 0.347278
vt 0.351318 0.295422
vt 0.3578 0.28894
vt 0.417725 0.295422
vt 0.424207 0.28894
vt 0.476062 0.28894
vt 0.417725 0.295422
vt 0.476062 0.28894
vt 0.482544 0.295422
vt 0.417725 0.295422
vt 0.482544 0.295422
vt 0.482544 0.347278
vt 0.417725 0.295422
vt 0.482544 0.347278
vt 0.476062 0.35376
vt 0.417725 0.295422
vt 0.476062 0.35376
vt 0.424207 0.35376
vt 0.424207 0.35376
vt 0.417725 0.347278
vt 0.417725 0.295422
vn -1 0 0
vn -0.707107 0 0.707107
vn 0 0 1
vn 0.707107 0 0.707107
vn 1 0 0
vn 0.707107 0 -0.707107
vn 0 0 -1
vn -0.707107 0 -0.707107
vn 0 -1 0
vn 0 1 0
f 521/1557/206 522/1558/206 530/1559/206 529/1560/206
f 522/1561/207 523/1562/207 531/1563/207 530/1564/207
f 523/1565/208 524/1566/208 532/1567/208 531/1568/208
f 524/1569/209 525/1570/209 533/1571/209 532/1572/209
f 525/1573/210 526/1574/210 534/1575/210 533/1576/210
f 526/1577/211 527/1578/211 535/1579/211 534/1580/211
f 527/1581/212 528/1582/212 536/1583/212 535/1584/212
f 528/1585/213 521/1586/213 529/1587/213 536/1588/213
f 538/1589/214 537/1590/214 544/1591/214
f 539/1592/214 538/1593/214 544/1594/214
f 540/1595/214 539/1596/214 544/1597/214
f 541/1598/214 540/1599/214 544/1600/214
f 542/1601/214 541/1602/214 544/1603/214
f 544/1604/214 543/1605/214 542/1606/214
f 552/1607/215 545/1608/215 546/1609/215
f 552/1610/215 546/1611/215 547/1612/215
f 552/1613/215 547/1614/215 548/1615/215
f 552/1616/215 548/1617/215 549/1618/215
f 552/1619/215 549/1620/215 550/1621/215
f 550/1622/215 551/1623/215 552/1624/215
