# AFL Fuel Canopy V1 column segment, generated by tools/build-fuel-canopy-v1.mjs
mtllib column_shaft.mtl
o column_shaft_tube
usemtl fuel_canopy
v 0.21875 0 0.275
v 0.21875 0 0.725
v 0.275 0 0.78125
v 0.725 0 0.78125
v 0.78125 0 0.725
v 0.78125 0 0.275
v 0.725 0 0.21875
v 0.275 0 0.21875
v 0.21875 1 0.275
v 0.21875 1 0.725
v 0.275 1 0.78125
v 0.725 1 0.78125
v 0.78125 1 0.725
v 0.78125 1 0.275
v 0.725 1 0.21875
v 0.275 1 0.21875
v 0.21875 0 0.275
v 0.21875 0 0.725
v 0.275 0 0.78125
v 0.725 0 0.78125
v 0.78125 0 0.725
v 0.78125 0 0.275
v 0.725 0 0.21875
v 0.275 0 0.21875
v 0.21875 1 0.275
v 0.21875 1 0.725
v 0.275 1 0.78125
v 0.725 1 0.78125
v 0.78125 1 0.725
v 0.78125 1 0.275
v 0.725 1 0.21875
v 0.275 1 0.21875
vt 0.616943 0.301904
vt 0.732178 0.301904
vt 0.732178 0.35376
vt 0.616943 0.35376
vt 0.647217 0.130237
vt 0.762451 0.130237
vt 0.762451 0.139404
vt 0.647217 0.139404
vt 0.848877 0.35376
vt 0.733643 0.35376
vt 0.733643 0.301904
vt 0.848877 0.301904
vt 0.87915 0.139404
vt 0.763916 0.139404
vt 0.763916 0.130237
vt 0.87915 0.130237
vt 0.965576 0.35376
vt 0.850342 0.35376
vt 0.850342 0.301904
vt 0.965576 0.301904
vt 0.99585 0.139404
vt 0.880615 0.139404
vt 0.880615 0.130237
vt 0.99585 0.130237
vt 0.116455 0.279053
vt 0.001221 0.279053
vt 0.001221 0.227197
vt 0.116455 0.227197
vt 0.001221 0.119007
vt 0.116455 0.119007
vt 0.116455 0.128174
vt 0.001221 0.128174
vt 0.542468 0.35376
vt 0.490613 0.35376
vt 0.484131 0.347278
vt 0.54895 0.347278
vt 0.542468 0.35376
vt 0.484131 0.347278
vt 0.54895 0.295422
vt 0.54895 0.347278
vt 0.484131 0.347278
vt 0.542468 0.28894
vt 0.54895 0.295422
vt 0.484131 0.347278
vt 0.490613 0.28894
vt 0.542468 0.28894
vt 0.484131 0.347278
vt 0.484131 0.347278
vt 0.484131 0.295422
vt 0.490613 0.28894
vt 0.550537 0.295422
vt 0.557019 0.28894
vt 0.608875 0.28894
vt 0.550537 0.295422
vt 0.608875 0.28894
vt 0.615356 0.295422
vt 0.550537 0.295422
vt 0.615356 0.295422
vt 0.615356 0.347278
vt 0.550537 0.295422
vt 0.615356 0.347278
vt 0.608875 0.35376
vt 0.550537 0.295422
vt 0.608875 0.35376
vt 0.557019 0.35376
vt 0.557019 0.35376
vt 0.550537 0.347278
vt 0.550537 0.295422
vn -1 0 0
vn -0.707107 0 0.707107
vn 0 0 1
vn 0.707107 0 0.707107
vn 1 0 0
vn 0.707107 0 -0.707107
vn 0 0 -1
vn -0.707107 0 -0.707107
vn 0 -1 0
vn 0 1 0
f 9/1/1 1/2/1 2/3/1 10/4/1
f 10/5/2 2/6/2 3/7/2 11/8/2
f 11/9/3 3/10/3 4/11/3 12/12/3
f 12/13/4 4/14/4 5/15/4 13/16/4
f 13/17/5 5/18/5 6/19/5 14/20/5
f 14/21/6 6/22/6 7/23/6 15/24/6
f 15/25/7 7/26/7 8/27/7 16/28/7
f 16/29/8 8/30/8 1/31/8 9/32/8
f 18/33/9 17/34/9 24/35/9
f 19/36/9 18/37/9 24/38/9
f 20/39/9 19/40/9 24/41/9
f 21/42/9 20/43/9 24/44/9
f 22/45/9 21/46/9 24/47/9
f 24/48/9 23/49/9 22/50/9
f 32/51/10 25/52/10 26/53/10
f 32/54/10 26/55/10 27/56/10
f 32/57/10 27/58/10 28/59/10
f 32/60/10 28/61/10 29/62/10
f 32/63/10 29/64/10 30/65/10
f 30/66/10 31/67/10 32/68/10
