# AFL Fuel Canopy V1 fascia, outer corner turned 90 degrees, generated by tools/build-fuel-canopy-v1.mjs
mtllib fascia_corner_east.mtl
o fascia_corner_panel
usemtl fuel_canopy
v 1 0.06875 0
v 1 0.06875 1
v 0.9375 0.06875 1
v 0.9375 0.06875 0
v 1 0.93125 0
v 1 0.93125 1
v 0.9375 0.93125 1
v 0.9375 0.93125 0
v 1 0.06875 0
v 1 0.06875 1
v 1 0.93125 1
v 1 0.93125 0
v 0.9375 0.06875 0
v 0.9375 0.06875 1
v 0.9375 0.93125 1
v 0.9375 0.93125 0
v 1 0.06875 0
v 0.9375 0.06875 0
v 0.9375 0.93125 0
v 1 0.93125 0
v 1 0.06875 1
v 0.9375 0.06875 1
v 0.9375 0.93125 1
v 1 0.93125 1
v 0.9375 0.06875 0
v 0.9375 0.06875 0.0625
v 0 0.06875 0.0625
v 0 0.06875 0
v 0.9375 0.93125 0
v 0.9375 0.93125 0.0625
v 0 0.93125 0.0625
v 0 0.93125 0
v 0.9375 0.06875 0
v 0.9375 0.06875 0.0625
v 0.9375 0.93125 0.0625
v 0.9375 0.93125 0
v 0 0.06875 0
v 0 0.06875 0.0625
v 0 0.93125 0.0625
v 0 0.93125 0
v 0.9375 0.06875 0
v 0 0.06875 0
v 0 0.93125 0
v 0.9375 0.93125 0
v 0.9375 0.06875 0.0625
v 0 0.06875 0.0625
v 0 0.93125 0.0625
v 0.9375 0.93125 0.0625
vt 0.699951 0.096924
vt 0.584717 0.096924
vt 0.584717 0.089722
vt 0.699951 0.089722
vt 0.81665 0.096924
vt 0.701416 0.096924
vt 0.701416 0.089722
vt 0.81665 0.089722
vt 0.234619 0.548096
vt 0.234619 0.448706
vt 0.349854 0.448706
vt 0.349854 0.548096
vt 0.351318 0.548096
vt 0.351318 0.448706
vt 0.466553 0.448706
vt 0.466553 0.548096
vt 0.313232 0.080933
vt 0.412622 0.080933
vt 0.412622 0.088135
vt 0.313232 0.088135
vt 0.513696 0.088135
vt 0.414307 0.088135
vt 0.414307 0.080933
vt 0.513696 0.080933
vt 0.926147 0.089722
vt 0.926147 0.096924
vt 0.818115 0.096924
vt 0.818115 0.089722
vt 0.109253 0.080933
vt 0.109253 0.088135
vt 0.001221 0.088135
vt 0.001221 0.080933
vt 0.614771 0.088135
vt 0.515381 0.088135
vt 0.515381 0.080933
vt 0.614771 0.080933
vt 0.715845 0.088135
vt 0.616455 0.088135
vt 0.616455 0.080933
vt 0.715845 0.080933
vt 0.468018 0.548096
vt 0.468018 0.448706
vt 0.57605 0.448706
vt 0.57605 0.548096
vt 0.685913 0.448706
vt 0.685913 0.548096
vt 0.577881 0.548096
vt 0.577881 0.448706
vn 0 -1 0
vn 0 1 0
vn 1 0 0
vn -1 0 0
vn 0 0 -1
vn 0 0 1
f 3/1/1 4/2/1 1/3/1 2/4/1
f 8/5/2 7/6/2 6/7/2 5/8/2
f 11/9/3 10/10/3 9/11/3 12/12/3
f 16/13/4 13/14/4 14/15/4 15/16/4
f 20/17/5 17/18/5 18/19/5 19/20/5
f 23/21/6 22/22/6 21/23/6 24/24/6
f 27/25/1 28/26/1 25/27/1 26/28/1
f 32/29/2 31/30/2 30/31/2 29/32/2
f 35/33/3 34/34/3 33/35/3 36/36/3
f 40/37/4 37/38/4 38/39/4 39/40/4
f 44/41/5 41/42/5 42/43/5 43/44/5
f 47/45/6 46/46/6 45/47/6 48/48/6
o fascia_corner_drip
usemtl fuel_canopy
v 1.021875 -0.025 -0.021875
v 1.021875 -0.025 1
v 0.9375 -0.025 1
v 0.9375 -0.025 -0.021875
v 1.021875 0.06875 -0.021875
v 1.021875 0.06875 1
v 0.9375 0.06875 1
v 0.9375 0.06875 -0.021875
v 1.021875 -0.025 -0.021875
v 1.021875 -0.025 1
v 1.021875 0.06875 1
v 1.021875 0.06875 -0.021875
v 0.9375 -0.025 -0.021875
v 0.9375 -0.025 1
v 0.9375 0.06875 1
v 0.9375 0.06875 -0.021875
v 1.021875 -0.025 -0.021875
v 0.9375 -0.025 -0.021875
v 0.9375 0.06875 -0.021875
v 1.021875 0.06875 -0.021875
v 1.021875 -0.025 1
v 0.9375 -0.025 1
v 0.9375 0.06875 1
v 1.021875 0.06875 1
v 0.9375 -0.025 -0.021875
v 0.9375 -0.025 0.0625
v 0 -0.025 0.0625
v 0 -0.025 -0.021875
v 0.9375 0.06875 -0.021875
v 0.9375 0.06875 0.0625
v 0 0.06875 0.0625
v 0 0.06875 -0.021875
v 0.9375 -0.025 -0.021875
v 0.9375 -0.025 0.0625
v 0.9375 0.06875 0.0625
v 0.9375 0.06875 -0.021875
v 0 -0.025 -0.021875
v 0 -0.025 0.0625
v 0 0.06875 0.0625
v 0 0.06875 -0.021875
v 0.9375 -0.025 -0.021875
v 0 -0.025 -0.021875
v 0 0.06875 -0.021875
v 0.9375 0.06875 -0.021875
v 0.9375 -0.025 0.0625
v 0 -0.025 0.0625
v 0 0.06875 0.0625
v 0.9375 0.06875 0.0625
vt 0.6888 0.1521
vt 0.571045 0.1521
vt 0.571045 0.142377
vt 0.6888 0.142377
vt 0.808429 0.1521
vt 0.690674 0.1521
vt 0.690674 0.142377
vt 0.808429 0.142377
vt 0.541748 0.170166
vt 0.541748 0.159363
vt 0.659503 0.159363
vt 0.659503 0.170166
vt 0.661377 0.170166
vt 0.661377 0.159363
vt 0.779132 0.159363
vt 0.779132 0.170166
vt 0.363037 0.129681
vt 0.37384 0.129681
vt 0.37384 0.139404
vt 0.363037 0.139404
vt 0.386536 0.139404
vt 0.375732 0.139404
vt 0.375732 0.129681
vt 0.386536 0.129681
vt 0.225952 0.129681
vt 0.225952 0.139404
vt 0.11792 0.139404
vt 0.11792 0.129681
vt 0.335815 0.129681
vt 0.335815 0.139404
vt 0.227783 0.139404
vt 0.227783 0.129681
vt 0.399231 0.139404
vt 0.388428 0.139404
vt 0.388428 0.129681
vt 0.399231 0.129681
vt 0.411926 0.139404
vt 0.401123 0.139404
vt 0.401123 0.129681
vt 0.411926 0.129681
vt 0.11792 0.1521
vt 0.11792 0.141296
vt 0.225952 0.141296
vt 0.225952 0.1521
vt 0.335815 0.141296
vt 0.335815 0.1521
vt 0.227783 0.1521
vt 0.227783 0.141296
vn 0 -1 0
vn 0 1 0
vn 1 0 0
vn -1 0 0
vn 0 0 -1
vn 0 0 1
f 51/49/7 52/50/7 49/51/7 50/52/7
f 56/53/8 55/54/8 54/55/8 53/56/8
f 59/57/9 58/58/9 57/59/9 60/60/9
f 64/61/10 61/62/10 62/63/10 63/64/10
f 68/65/11 65/66/11 66/67/11 67/68/11
f 71/69/12 70/70/12 69/71/12 72/72/12
f 75/73/7 76/74/7 73/75/7 74/76/7
f 80/77/8 79/78/8 78/79/8 77/80/8
f 83/81/9 82/82/9 81/83/9 84/84/9
f 88/85/10 85/86/10 86/87/10 87/88/10
f 92/89/11 89/90/11 90/91/11 91/92/11
f 95/93/12 94/94/12 93/95/12 96/96/12
o fascia_corner_coping
usemtl fuel_canopy
v 1.021875 0.93125 -0.021875
v 1.021875 0.93125 1
v 0.86875 0.93125 1
v 0.86875 0.93125 -0.021875
v 1.021875 1.009375 -0.021875
v 1.021875 1.009375 1
v 0.86875 1.009375 1
v 0.86875 1.009375 -0.021875
v 1.021875 0.93125 -0.021875
v 1.021875 0.93125 1
v 1.021875 1.009375 1
v 1.021875 1.009375 -0.021875
v 0.86875 0.93125 -0.021875
v 0.86875 0.93125 1
v 0.86875 1.009375 1
v 0.86875 1.009375 -0.021875
v 1.021875 0.93125 -0.021875
v 0.86875 0.93125 -0.021875
v 0.86875 1.009375 -0.021875
v 1.021875 1.009375 -0.021875
v 1.021875 0.93125 1
v 0.86875 0.93125 1
v 0.86875 1.009375 1
v 1.021875 1.009375 1
v 0.86875 0.93125 -0.021875
v 0.86875 0.93125 0.13125
v 0 0.93125 0.13125
v 0 0.93125 -0.021875
v 0.86875 1.009375 -0.021875
v 0.86875 1.009375 0.13125
v 0 1.009375 0.13125
v 0 1.009375 -0.021875
v 0.86875 0.93125 -0.021875
v 0.86875 0.93125 0.13125
v 0.86875 1.009375 0.13125
v 0.86875 1.009375 -0.021875
v 0 0.93125 -0.021875
v 0 0.93125 0.13125
v 0 1.009375 0.13125
v 0 1.009375 -0.021875
v 0.86875 0.93125 -0.021875
v 0 0.93125 -0.021875
v 0 1.009375 -0.021875
v 0.86875 1.009375 -0.021875
v 0.86875 0.93125 0.13125
v 0 0.93125 0.13125
v 0 1.009375 0.13125
v 0.86875 1.009375 0.13125
vt 0.701007 0.225342
vt 0.583252 0.225342
vt 0.583252 0.207697
vt 0.701007 0.207697
vt 0.820636 0.225342
vt 0.702881 0.225342
vt 0.702881 0.207697
vt 0.820636 0.207697
vt 0.621826 0.128174
vt 0.621826 0.119171
vt 0.739581 0.119171
vt 0.739581 0.128174
vt 0.741455 0.128174
vt 0.741455 0.119171
vt 0.85921 0.119171
vt 0.85921 0.128174
vt 0.361084 0.117432
vt 0.361084 0.108429
vt 0.378729 0.108429
vt 0.378729 0.117432
vt 0.39826 0.108429
vt 0.39826 0.117432
vt 0.380615 0.117432
vt 0.380615 0.108429
vt 0.21803 0.172052
vt 0.21803 0.189697
vt 0.11792 0.189697
vt 0.11792 0.172052
vt 0.320081 0.172052
vt 0.320081 0.189697
vt 0.219971 0.189697
vt 0.219971 0.172052
vt 0.400146 0.117432
vt 0.400146 0.108429
vt 0.417792 0.108429
vt 0.417792 0.117432
vt 0.419678 0.117432
vt 0.419678 0.108429
vt 0.437323 0.108429
vt 0.437323 0.117432
vt 0.11792 0.117432
vt 0.11792 0.108429
vt 0.21803 0.108429
vt 0.21803 0.117432
vt 0.320081 0.108429
vt 0.320081 0.117432
vt 0.219971 0.117432
vt 0.219971 0.108429
vn 0 -1 0
vn 0 1 0
vn 1 0 0
vn -1 0 0
vn 0 0 -1
vn 0 0 1
f 99/97/13 100/98/13 97/99/13 98/100/13
f 104/101/14 103/102/14 102/103/14 101/104/14
f 107/105/15 106/106/15 105/107/15 108/108/15
f 112/109/16 109/110/16 110/111/16 111/112/16
f 116/113/17 113/114/17 114/115/17 115/116/17
f 119/117/18 118/118/18 117/119/18 120/120/18
f 123/121/13 124/122/13 121/123/13 122/124/13
f 128/125/14 127/126/14 126/127/14 125/128/14
f 131/129/15 130/130/15 129/131/15 132/132/15
f 136/133/16 133/134/16 134/135/16 135/136/16
f 140/137/17 137/138/17 138/139/17 139/140/17
f 143/141/18 142/142/18 141/143/18 144/144/18
o fascia_corner_soffit
usemtl fuel_canopy
v 0.9375 0 0.0625
v 0.9375 0 1
v 0 0 1
v 0 0 0.0625
v 0.9375 0.0375 0.0625
v 0.9375 0.0375 1
v 0 0.0375 1
v 0 0.0375 0.0625
v 0.9375 0 0.0625
v 0.9375 0 1
v 0.9375 0.0375 1
v 0.9375 0.0375 0.0625
v 0 0 0.0625
v 0 0 1
v 0 0.0375 1
v 0 0.0375 0.0625
v 0.9375 0 0.0625
v 0 0 0.0625
v 0 0.0375 0.0625
v 0.9375 0.0375 0.0625
v 0.9375 0 1
v 0 0 1
v 0 0.0375 1
v 0.9375 0.0375 1
vt 0.459351 0.657349
vt 0.459351 0.765381
vt 0.351318 0.765381
vt 0.351318 0.657349
vt 0.001221 0.052002
vt 0.001221 0.047681
vt 0.109253 0.047681
vt 0.109253 0.052002
vt 0.111084 0.052002
vt 0.111084 0.047681
vt 0.219116 0.047681
vt 0.219116 0.052002
vt 0.220947 0.052002
vt 0.220947 0.047681
vt 0.328979 0.047681
vt 0.328979 0.052002
vt 0.438843 0.047681
vt 0.438843 0.052002
vt 0.330811 0.052002
vt 0.330811 0.047681
vn 0 -1 0
vn 1 0 0
vn -1 0 0
vn 0 0 -1
vn 0 0 1
f 147/145/19 148/146/19 145/147/19 146/148/19
f 155/149/20 154/150/20 153/151/20 156/152/20
f 160/153/21 157/154/21 158/155/21 159/156/21
f 164/157/22 161/158/22 162/159/22 163/160/22
f 167/161/23 166/162/23 165/163/23 168/164/23
o fascia_corner_roof
usemtl fuel_canopy
v 0.9375 0.0375 0.0625
v 0.9375 0.0375 1
v 0 0.0375 1
v 0 0.0375 0.0625
v 0.9375 0.93125 0.0625
v 0.9375 0.93125 1
v 0 0.93125 1
v 0 0.93125 0.0625
v 0.9375 0.0375 0.0625
v 0.9375 0.0375 1
v 0.9375 0.93125 1
v 0.9375 0.93125 0.0625
v 0 0.0375 0.0625
v 0 0.0375 1
v 0 0.93125 1
v 0 0.93125 0.0625
v 0.9375 0.0375 0.0625
v 0 0.0375 0.0625
v 0 0.93125 0.0625
v 0.9375 0.93125 0.0625
v 0.9375 0.0375 1
v 0 0.0375 1
v 0 0.93125 1
v 0.9375 0.93125 1
vt 0.569214 0.657349
vt 0.569214 0.765381
vt 0.461182 0.765381
vt 0.461182 0.657349
vt 0.111084 0.652588
vt 0.111084 0.549597
vt 0.219116 0.549597
vt 0.219116 0.652588
vt 0.220947 0.652588
vt 0.220947 0.549597
vt 0.328979 0.549597
vt 0.328979 0.652588
vt 0.330811 0.652588
vt 0.330811 0.549597
vt 0.438843 0.549597
vt 0.438843 0.652588
vt 0.548706 0.549597
vt 0.548706 0.652588
vt 0.440674 0.652588
vt 0.440674 0.549597
vn 0 1 0
vn 1 0 0
vn -1 0 0
vn 0 0 -1
vn 0 0 1
f 176/165/24 175/166/24 174/167/24 173/168/24
f 179/169/25 178/170/25 177/171/25 180/172/25
f 184/173/26 181/174/26 182/175/26 183/176/26
f 188/177/27 185/178/27 186/179/27 187/180/27
f 191/181/28 190/182/28 189/183/28 192/184/28
o fascia_corner_roof_top
usemtl fuel_canopy
v 0.86875 0.93125 0.13125
v 0.86875 0.93125 1
v 0 0.93125 1
v 0 0.93125 0.13125
v 0.86875 1 0.13125
v 0.86875 1 1
v 0 1 1
v 0 1 0.13125
v 0.86875 0.93125 0.13125
v 0.86875 0.93125 1
v 0.86875 1 1
v 0.86875 1 0.13125
v 0 0.93125 0.13125
v 0 0.93125 1
v 0 1 1
v 0 1 0.13125
v 0.86875 0.93125 0.13125
v 0 0.93125 0.13125
v 0 1 0.13125
v 0.86875 1 0.13125
v 0.86875 0.93125 1
v 0 0.93125 1
v 0 1 1
v 0.86875 1 1
vt 0.884045 0.552478
vt 0.884045 0.652588
vt 0.783936 0.652588
vt 0.783936 0.552478
vt 0.986096 0.552478
vt 0.986096 0.652588
vt 0.885986 0.652588
vt 0.885986 0.552478
vt 0.103271 0.106689
vt 0.103271 0.098767
vt 0.203381 0.098767
vt 0.203381 0.106689
vt 0.205322 0.106689
vt 0.205322 0.098767
vt 0.305432 0.098767
vt 0.305432 0.106689
vt 0.307373 0.106689
vt 0.307373 0.098767
vt 0.407483 0.098767
vt 0.407483 0.106689
vt 0.509534 0.098767
vt 0.509534 0.106689
vt 0.409424 0.106689
vt 0.409424 0.098767
vn 0 -1 0
vn 0 1 0
vn 1 0 0
vn -1 0 0
vn 0 0 -1
vn 0 0 1
f 195/185/29 196/186/29 193/187/29 194/188/29
f 200/189/30 199/190/30 198/191/30 197/192/30
f 203/193/31 202/194/31 201/195/31 204/196/31
f 208/197/32 205/198/32 206/199/32 207/200/32
f 212/201/33 209/202/33 210/203/33 211/204/33
f 215/205/34 214/206/34 213/207/34 216/208/34
