# AFL Fuel Canopy V1 fascia, facing west, generated by tools/build-fuel-canopy-v1.mjs
mtllib fascia_west.mtl
o fascia_panel
usemtl fuel_canopy
v 0 0.06875 1
v 0 0.06875 0
v 0.0625 0.06875 0
v 0.0625 0.06875 1
v 0 0.93125 1
v 0 0.93125 0
v 0.0625 0.93125 0
v 0.0625 0.93125 1
v 0 0.06875 1
v 0 0.06875 0
v 0 0.93125 0
v 0 0.93125 1
v 0.0625 0.06875 1
v 0.0625 0.06875 0
v 0.0625 0.93125 0
v 0.0625 0.93125 1
v 0 0.06875 1
v 0.0625 0.06875 1
v 0.0625 0.93125 1
v 0 0.93125 1
v 0 0.06875 0
v 0.0625 0.06875 0
v 0.0625 0.93125 0
v 0 0.93125 0
vt 0.351318 0.089722
vt 0.466553 0.089722
vt 0.466553 0.096924
vt 0.351318 0.096924
vt 0.468018 0.089722
vt 0.583252 0.089722
vt 0.583252 0.096924
vt 0.468018 0.096924
vt 0.001221 0.548096
vt 0.001221 0.448706
vt 0.116455 0.448706
vt 0.116455 0.548096
vt 0.11792 0.548096
vt 0.11792 0.448706
vt 0.233154 0.448706
vt 0.233154 0.548096
vt 0.111084 0.080933
vt 0.210474 0.080933
vt 0.210474 0.088135
vt 0.111084 0.088135
vt 0.311548 0.088135
vt 0.212158 0.088135
vt 0.212158 0.080933
vt 0.311548 0.080933
vn 0 -1 0
vn 0 1 0
vn -1 0 0
vn 1 0 0
vn 0 0 1
vn 0 0 -1
f 1/1/1 2/2/1 3/3/1 4/4/1
f 6/5/2 5/6/2 8/7/2 7/8/2
f 11/9/3 10/10/3 9/11/3 12/12/3
f 16/13/4 13/14/4 14/15/4 15/16/4
f 20/17/5 17/18/5 18/19/5 19/20/5
f 23/21/6 22/22/6 21/23/6 24/24/6
o fascia_drip
usemtl fuel_canopy
v -0.021875 -0.025 1
v -0.021875 -0.025 0
v 0.0625 -0.025 0
v 0.0625 -0.025 1
v -0.021875 0.06875 1
v -0.021875 0.06875 0
v 0.0625 0.06875 0
v 0.0625 0.06875 1
v -0.021875 -0.025 1
v -0.021875 -0.025 0
v -0.021875 0.06875 0
v -0.021875 0.06875 1
v 0.0625 -0.025 1
v 0.0625 -0.025 0
v 0.0625 0.06875 0
v 0.0625 0.06875 1
v -0.021875 -0.025 1
v 0.0625 -0.025 1
v 0.0625 0.06875 1
v -0.021875 0.06875 1
v -0.021875 -0.025 0
v 0.0625 -0.025 0
v 0.0625 0.06875 0
v -0.021875 0.06875 0
vt 0.810303 0.142377
vt 0.925537 0.142377
vt 0.925537 0.1521
vt 0.810303 0.1521
vt 0.001221 0.129681
vt 0.116455 0.129681
vt 0.116455 0.139404
vt 0.001221 0.139404
vt 0.781006 0.170166
vt 0.781006 0.159363
vt 0.89624 0.159363
vt 0.89624 0.170166
vt 0.001221 0.1521
vt 0.001221 0.141296
vt 0.116455 0.141296
vt 0.116455 0.1521
vt 0.337646 0.129681
vt 0.34845 0.129681
vt 0.34845 0.139404
vt 0.337646 0.139404
vt 0.361145 0.139404
vt 0.350342 0.139404
vt 0.350342 0.129681
vt 0.361145 0.129681
vn 0 -1 0
vn 0 1 0
vn -1 0 0
vn 1 0 0
vn 0 0 1
vn 0 0 -1
f 25/25/7 26/26/7 27/27/7 28/28/7
f 30/29/8 29/30/8 32/31/8 31/32/8
f 35/33/9 34/34/9 33/35/9 36/36/9
f 40/37/10 37/38/10 38/39/10 39/40/10
f 44/41/11 41/42/11 42/43/11 43/44/11
f 47/45/12 46/46/12 45/47/12 48/48/12
o fascia_coping
usemtl fuel_canopy
v -0.021875 0.93125 1
v -0.021875 0.93125 0
v 0.13125 0.93125 0
v 0.13125 0.93125 1
v -0.021875 1.009375 1
v -0.021875 1.009375 0
v 0.13125 1.009375 0
v 0.13125 1.009375 1
v -0.021875 0.93125 1
v -0.021875 0.93125 0
v -0.021875 1.009375 0
v -0.021875 1.009375 1
v 0.13125 0.93125 1
v 0.13125 0.93125 0
v 0.13125 1.009375 0
v 0.13125 1.009375 1
v -0.021875 0.93125 1
v 0.13125 0.93125 1
v 0.13125 1.009375 1
v -0.021875 1.009375 1
v -0.021875 0.93125 0
v 0.13125 0.93125 0
v 0.13125 1.009375 0
v -0.021875 1.009375 0
vt 0.82251 0.207697
vt 0.937744 0.207697
vt 0.937744 0.225342
vt 0.82251 0.225342
vt 0.001221 0.172052
vt 0.116455 0.172052
vt 0.116455 0.189697
vt 0.001221 0.189697
vt 0.861084 0.128174
vt 0.861084 0.119171
vt 0.976318 0.119171
vt 0.976318 0.128174
vt 0.001221 0.117432
vt 0.001221 0.108429
vt 0.116455 0.108429
vt 0.116455 0.117432
vt 0.322021 0.117432
vt 0.322021 0.108429
vt 0.339667 0.108429
vt 0.339667 0.117432
vt 0.359198 0.108429
vt 0.359198 0.117432
vt 0.341553 0.117432
vt 0.341553 0.108429
vn 0 -1 0
vn 0 1 0
vn -1 0 0
vn 1 0 0
vn 0 0 1
vn 0 0 -1
f 49/49/13 50/50/13 51/51/13 52/52/13
f 54/53/14 53/54/14 56/55/14 55/56/14
f 59/57/15 58/58/15 57/59/15 60/60/15
f 64/61/16 61/62/16 62/63/16 63/64/16
f 68/65/17 65/66/17 66/67/17 67/68/17
f 71/69/18 70/70/18 69/71/18 72/72/18
o fascia_soffit
usemtl fuel_canopy
v 0.0625 0 1
v 0.0625 0 0
v 1 0 0
v 1 0 1
v 0.0625 0.0375 1
v 0.0625 0.0375 0
v 1 0.0375 0
v 1 0.0375 1
v 0.0625 0 1
v 0.0625 0 0
v 0.0625 0.0375 0
v 0.0625 0.0375 1
v 1 0 1
v 1 0 0
v 1 0.0375 0
v 1 0.0375 1
v 0.0625 0 1
v 1 0 1
v 1 0.0375 1
v 0.0625 0.0375 1
v 0.0625 0 0
v 1 0 0
v 1 0.0375 0
v 0.0625 0.0375 0
vt 0.11792 0.657349
vt 0.233154 0.657349
vt 0.233154 0.765381
vt 0.11792 0.765381
vt 0.468018 0.057861
vt 0.468018 0.05354
vt 0.583252 0.05354
vt 0.583252 0.057861
vt 0.584717 0.057861
vt 0.584717 0.05354
vt 0.699951 0.05354
vt 0.699951 0.057861
vt 0.701416 0.057861
vt 0.701416 0.05354
vt 0.809448 0.05354
vt 0.809448 0.057861
vt 0.919312 0.05354
vt 0.919312 0.057861
vt 0.811279 0.057861
vt 0.811279 0.05354
vn 0 -1 0
vn -1 0 0
vn 1 0 0
vn 0 0 1
vn 0 0 -1
f 73/73/19 74/74/19 75/75/19 76/76/19
f 83/77/20 82/78/20 81/79/20 84/80/20
f 88/81/21 85/82/21 86/83/21 87/84/21
f 92/85/22 89/86/22 90/87/22 91/88/22
f 95/89/23 94/90/23 93/91/23 96/92/23
o fascia_roof
usemtl fuel_canopy
v 0.0625 0.0375 1
v 0.0625 0.0375 0
v 1 0.0375 0
v 1 0.0375 1
v 0.0625 0.93125 1
v 0.0625 0.93125 0
v 1 0.93125 0
v 1 0.93125 1
v 0.0625 0.0375 1
v 0.0625 0.0375 0
v 0.0625 0.93125 0
v 0.0625 0.93125 1
v 1 0.0375 1
v 1 0.0375 0
v 1 0.93125 0
v 1 0.93125 1
v 0.0625 0.0375 1
v 1 0.0375 1
v 1 0.93125 1
v 0.0625 0.93125 1
v 0.0625 0.0375 0
v 1 0.0375 0
v 1 0.93125 0
v 0.0625 0.93125 0
vt 0.234619 0.657349
vt 0.349854 0.657349
vt 0.349854 0.765381
vt 0.234619 0.765381
vt 0.571045 0.765381
vt 0.571045 0.66239
vt 0.686279 0.66239
vt 0.686279 0.765381
vt 0.687744 0.765381
vt 0.687744 0.66239
vt 0.802979 0.66239
vt 0.802979 0.765381
vt 0.804443 0.765381
vt 0.804443 0.66239
vt 0.912476 0.66239
vt 0.912476 0.765381
vt 0.109253 0.549597
vt 0.109253 0.652588
vt 0.001221 0.652588
vt 0.001221 0.549597
vn 0 1 0
vn -1 0 0
vn 1 0 0
vn 0 0 1
vn 0 0 -1
f 102/93/24 101/94/24 104/95/24 103/96/24
f 107/97/25 106/98/25 105/99/25 108/100/25
f 112/101/26 109/102/26 110/103/26 111/104/26
f 116/105/27 113/106/27 114/107/27 115/108/27
f 119/109/28 118/110/28 117/111/28 120/112/28
o fascia_roof_top
usemtl fuel_canopy
v 0.13125 0.93125 1
v 0.13125 0.93125 0
v 1 0.93125 0
v 1 0.93125 1
v 0.13125 1 1
v 0.13125 1 0
v 1 1 0
v 1 1 1
v 0.13125 0.93125 1
v 0.13125 0.93125 0
v 0.13125 1 0
v 0.13125 1 1
v 1 0.93125 1
v 1 0.93125 0
v 1 1 0
v 1 1 1
v 0.13125 0.93125 1
v 1 0.93125 1
v 1 1 1
v 0.13125 1 1
v 0.13125 0.93125 0
v 1 0.93125 0
v 1 1 0
v 0.13125 1 0
vt 0.550537 0.552478
vt 0.665771 0.552478
vt 0.665771 0.652588
vt 0.550537 0.652588
vt 0.667236 0.552478
vt 0.782471 0.552478
vt 0.782471 0.652588
vt 0.667236 0.652588
vt 0.634521 0.117432
vt 0.634521 0.109509
vt 0.749756 0.109509
vt 0.749756 0.117432
vt 0.751221 0.117432
vt 0.751221 0.109509
vt 0.866455 0.109509
vt 0.866455 0.117432
vt 0.86792 0.117432
vt 0.86792 0.109509
vt 0.96803 0.109509
vt 0.96803 0.117432
vt 0.101331 0.098767
vt 0.101331 0.106689
vt 0.001221 0.106689
vt 0.001221 0.098767
vn 0 -1 0
vn 0 1 0
vn -1 0 0
vn 1 0 0
vn 0 0 1
vn 0 0 -1
f 121/113/29 122/114/29 123/115/29 124/116/29
f 126/117/30 125/118/30 128/119/30 127/120/30
f 131/121/31 130/122/31 129/123/31 132/124/31
f 136/125/32 133/126/32 134/127/32 135/128/32
f 140/129/33 137/130/33 138/131/33 139/132/33
f 143/133/34 142/134/34 141/135/34 144/136/34
