# AFL Fuel Canopy V1 ceiling light lens (unlit), generated by tools/build-fuel-canopy-v1.mjs
mtllib light_lens.mtl
o light_lens_lens
usemtl fuel_canopy
v 0.183125 0.01875 0.183125
v 0.816875 0.01875 0.183125
v 0.816875 0.01875 0.816875
v 0.183125 0.01875 0.816875
v 0.183125 0.0375 0.183125
v 0.816875 0.0375 0.183125
v 0.816875 0.0375 0.816875
v 0.183125 0.0375 0.816875
v 0.183125 0.01875 0.183125
v 0.816875 0.01875 0.183125
v 0.816875 0.0375 0.183125
v 0.183125 0.0375 0.183125
v 0.183125 0.01875 0.816875
v 0.816875 0.01875 0.816875
v 0.816875 0.0375 0.816875
v 0.183125 0.0375 0.816875
v 0.183125 0.01875 0.183125
v 0.183125 0.01875 0.816875
v 0.183125 0.0375 0.816875
v 0.183125 0.0375 0.183125
v 0.816875 0.01875 0.183125
v 0.816875 0.01875 0.816875
v 0.816875 0.0375 0.816875
v 0.816875 0.0375 0.183125
vt 0.914795 0.447021
vt 0.914795 0.373992
vt 0.987825 0.373992
vt 0.987825 0.447021
vt 0.511262 0.035889
vt 0.438232 0.035889
vt 0.438232 0.033728
vt 0.511262 0.033728
vt 0.512939 0.033728
vt 0.585969 0.033728
vt 0.585969 0.035889
vt 0.512939 0.035889
vt 0.587646 0.033728
vt 0.660676 0.033728
vt 0.660676 0.035889
vt 0.587646 0.035889
vt 0.662354 0.033728
vt 0.735383 0.033728
vt 0.735383 0.035889
vt 0.662354 0.035889
vn 0 -1 0
vn 0 0 -1
vn 0 0 1
vn -1 0 0
vn 1 0 0
f 1/1/1 2/2/1 3/3/1 4/4/1
f 12/5/2 11/6/2 10/7/2 9/8/2
f 13/9/3 14/10/3 15/11/3 16/12/3
f 17/13/4 18/14/4 19/15/4 20/16/4
f 24/17/5 23/18/5 22/19/5 21/20/5
