# AFL Fuel Canopy V1 ceiling light, generated by tools/build-fuel-canopy-v1.mjs
mtllib light.mtl
o light_soffit
usemtl fuel_canopy
v 0 0 0
v 1 0 0
v 1 0 0.14375
v 0 0 0.14375
v 0 0.0375 0
v 1 0.0375 0
v 1 0.0375 0.14375
v 0 0.0375 0.14375
v 0 0 0
v 1 0 0
v 1 0.0375 0
v 0 0.0375 0
v 0 0 0.14375
v 1 0 0.14375
v 1 0.0375 0.14375
v 0 0.0375 0.14375
v 0 0 0
v 0 0 0.14375
v 0 0.0375 0.14375
v 0 0.0375 0
v 1 0 0
v 1 0 0.14375
v 1 0.0375 0.14375
v 1 0.0375 0
v 0 0 0.85625
v 1 0 0.85625
v 1 0 1
v 0 0 1
v 0 0.0375 0.85625
v 1 0.0375 0.85625
v 1 0.0375 1
v 0 0.0375 1
v 0 0 0.85625
v 1 0 0.85625
v 1 0.0375 0.85625
v 0 0.0375 0.85625
v 0 0 1
v 1 0 1
v 1 0.0375 1
v 0 0.0375 1
v 0 0 0.85625
v 0 0 1
v 0 0.0375 1
v 0 0.0375 0.85625
v 1 0 0.85625
v 1 0 1
v 1 0.0375 1
v 1 0.0375 0.85625
v 0 0 0.14375
v 0.14375 0 0.14375
v 0.14375 0 0.85625
v 0 0 0.85625
v 0 0.0375 0.14375
v 0.14375 0.0375 0.14375
v 0.14375 0.0375 0.85625
v 0 0.0375 0.85625
v 0 0 0.14375
v 0.14375 0 0.14375
v 0.14375 0.0375 0.14375
v 0 0.0375 0.14375
v 0 0 0.85625
v 0.14375 0 0.85625
v 0.14375 0.0375 0.85625
v 0 0.0375 0.85625
v 0 0 0.14375
v 0 0 0.85625
v 0 0.0375 0.85625
v 0 0.0375 0.14375
v 0.14375 0 0.14375
v 0.14375 0 0.85625
v 0.14375 0.0375 0.85625
v 0.14375 0.0375 0.14375
v 0.85625 0 0.14375
v 1 0 0.14375
v 1 0 0.85625
v 0.85625 0 0.85625
v 0.85625 0.0375 0.14375
v 1 0.0375 0.14375
v 1 0.0375 0.85625
v 0.85625 0.0375 0.85625
v 0.85625 0 0.14375
v 1 0 0.14375
v 1 0.0375 0.14375
v 0.85625 0.0375 0.14375
v 0.85625 0 0.85625
v 1 0 0.85625
v 1 0.0375 0.85625
v 0.85625 0.0375 0.85625
v 0.85625 0 0.14375
v 0.85625 0 0.85625
v 0.85625 0.0375 0.85625
v 0.85625 0.0375 0.14375
v 1 0 0.14375
v 1 0 0.85625
v 1 0.0375 0.85625
v 1 0.0375 0.14375
vt 0.788818 0.189697
vt 0.788818 0.173132
vt 0.904053 0.173132
vt 0.904053 0.189697
vt 0.001221 0.057861
vt 0.001221 0.05354
vt 0.116455 0.05354
vt 0.116455 0.057861
vt 0.11792 0.057861
vt 0.11792 0.05354
vt 0.233154 0.05354
vt 0.233154 0.057861
vt 0.958252 0.052002
vt 0.958252 0.047681
vt 0.974817 0.047681
vt 0.974817 0.052002
vt 0.992883 0.047681
vt 0.992883 0.052002
vt 0.976318 0.052002
vt 0.976318 0.047681
vt 0.001221 0.170166
vt 0.001221 0.153601
vt 0.116455 0.153601
vt 0.116455 0.170166
vt 0.234619 0.057861
vt 0.234619 0.05354
vt 0.349854 0.05354
vt 0.349854 0.057861
vt 0.351318 0.057861
vt 0.351318 0.05354
vt 0.466553 0.05354
vt 0.466553 0.057861
vt 0.001221 0.046143
vt 0.001221 0.041821
vt 0.017786 0.041821
vt 0.017786 0.046143
vt 0.035852 0.041821
vt 0.035852 0.046143
vt 0.019287 0.046143
vt 0.019287 0.041821
vt 0.200024 0.170166
vt 0.11792 0.170166
vt 0.11792 0.153601
vt 0.200024 0.153601
vt 0.037354 0.046143
vt 0.037354 0.041821
vt 0.053918 0.041821
vt 0.053918 0.046143
vt 0.05542 0.046143
vt 0.05542 0.041821
vt 0.071985 0.041821
vt 0.071985 0.046143
vt 0.440674 0.052002
vt 0.440674 0.047681
vt 0.522778 0.047681
vt 0.522778 0.052002
vt 0.606763 0.047681
vt 0.606763 0.052002
vt 0.524658 0.052002
vt 0.524658 0.047681
vt 0.284009 0.170166
vt 0.201904 0.170166
vt 0.201904 0.153601
vt 0.284009 0.153601
vt 0.073486 0.046143
vt 0.073486 0.041821
vt 0.090051 0.041821
vt 0.090051 0.046143
vt 0.091553 0.046143
vt 0.091553 0.041821
vt 0.108118 0.041821
vt 0.108118 0.046143
vt 0.608643 0.052002
vt 0.608643 0.047681
vt 0.690747 0.047681
vt 0.690747 0.052002
vt 0.774731 0.047681
vt 0.774731 0.052002
vt 0.692627 0.052002
vt 0.692627 0.047681
vn 0 -1 0
vn 0 0 -1
vn 0 0 1
vn -1 0 0
vn 1 0 0
f 4/1/1 1/2/1 2/3/1 3/4/1
f 11/5/2 10/6/2 9/7/2 12/8/2
f 16/9/3 13/10/3 14/11/3 15/12/3
f 20/13/4 17/14/4 18/15/4 19/16/4
f 23/17/5 22/18/5 21/19/5 24/20/5
f 28/21/1 25/22/1 26/23/1 27/24/1
f 35/25/2 34/26/2 33/27/2 36/28/2
f 40/29/3 37/30/3 38/31/3 39/32/3
f 44/33/4 41/34/4 42/35/4 43/36/4
f 47/37/5 46/38/5 45/39/5 48/40/5
f 52/41/1 49/42/1 50/43/1 51/44/1
f 59/45/2 58/46/2 57/47/2 60/48/2
f 64/49/3 61/50/3 62/51/3 63/52/3
f 68/53/4 65/54/4 66/55/4 67/56/4
f 71/57/5 70/58/5 69/59/5 72/60/5
f 76/61/1 73/62/1 74/63/1 75/64/1
f 83/65/2 82/66/2 81/67/2 84/68/2
f 88/69/3 85/70/3 86/71/3 87/72/3
f 92/73/4 89/74/4 90/75/4 91/76/4
f 95/77/5 94/78/5 93/79/5 96/80/5
o light_frame
usemtl fuel_canopy
v 0.14375 -0.0125 0.14375
v 0.85625 -0.0125 0.14375
v 0.85625 -0.0125 0.184375
v 0.14375 -0.0125 0.184375
v 0.14375 0.0375 0.14375
v 0.85625 0.0375 0.14375
v 0.85625 0.0375 0.184375
v 0.14375 0.0375 0.184375
v 0.14375 -0.0125 0.14375
v 0.85625 -0.0125 0.14375
v 0.85625 0.0375 0.14375
v 0.14375 0.0375 0.14375
v 0.14375 -0.0125 0.184375
v 0.85625 -0.0125 0.184375
v 0.85625 0.0375 0.184375
v 0.14375 0.0375 0.184375
v 0.14375 -0.0125 0.14375
v 0.14375 -0.0125 0.184375
v 0.14375 0.0375 0.184375
v 0.14375 0.0375 0.14375
v 0.85625 -0.0125 0.14375
v 0.85625 -0.0125 0.184375
v 0.85625 0.0375 0.184375
v 0.85625 0.0375 0.14375
v 0.14375 -0.0125 0.815625
v 0.85625 -0.0125 0.815625
v 0.85625 -0.0125 0.85625
v 0.14375 -0.0125 0.85625
v 0.14375 0.0375 0.815625
v 0.85625 0.0375 0.815625
v 0.85625 0.0375 0.85625
v 0.14375 0.0375 0.85625
v 0.14375 -0.0125 0.815625
v 0.85625 -0.0125 0.815625
v 0.85625 0.0375 0.815625
v 0.14375 0.0375 0.815625
v 0.14375 -0.0125 0.85625
v 0.85625 -0.0125 0.85625
v 0.85625 0.0375 0.85625
v 0.14375 0.0375 0.85625
v 0.14375 -0.0125 0.815625
v 0.14375 -0.0125 0.85625
v 0.14375 0.0375 0.85625
v 0.14375 0.0375 0.815625
v 0.85625 -0.0125 0.815625
v 0.85625 -0.0125 0.85625
v 0.85625 0.0375 0.85625
v 0.85625 0.0375 0.815625
v 0.14375 -0.0125 0.184375
v 0.184375 -0.0125 0.184375
v 0.184375 -0.0125 0.815625
v 0.14375 -0.0125 0.815625
v 0.14375 0.0375 0.184375
v 0.184375 0.0375 0.184375
v 0.184375 0.0375 0.815625
v 0.14375 0.0375 0.815625
v 0.14375 -0.0125 0.184375
v 0.184375 -0.0125 0.184375
v 0.184375 0.0375 0.184375
v 0.14375 0.0375 0.184375
v 0.14375 -0.0125 0.815625
v 0.184375 -0.0125 0.815625
v 0.184375 0.0375 0.815625
v 0.14375 0.0375 0.815625
v 0.14375 -0.0125 0.184375
v 0.14375 -0.0125 0.815625
v 0.14375 0.0375 0.815625
v 0.14375 0.0375 0.184375
v 0.184375 -0.0125 0.184375
v 0.184375 -0.0125 0.815625
v 0.184375 0.0375 0.815625
v 0.184375 0.0375 0.184375
v 0.815625 -0.0125 0.184375
v 0.85625 -0.0125 0.184375
v 0.85625 -0.0125 0.815625
v 0.815625 -0.0125 0.815625
v 0.815625 0.0375 0.184375
v 0.85625 0.0375 0.184375
v 0.85625 0.0375 0.815625
v 0.815625 0.0375 0.815625
v 0.815625 -0.0125 0.184375
v 0.85625 -0.0125 0.184375
v 0.85625 0.0375 0.184375
v 0.815625 0.0375 0.184375
v 0.815625 -0.0125 0.815625
v 0.85625 -0.0125 0.815625
v 0.85625 0.0375 0.815625
v 0.815625 0.0375 0.815625
v 0.815625 -0.0125 0.184375
v 0.815625 -0.0125 0.815625
v 0.815625 0.0375 0.815625
v 0.815625 0.0375 0.184375
v 0.85625 -0.0125 0.184375
v 0.85625 -0.0125 0.815625
v 0.85625 0.0375 0.815625
v 0.85625 0.0375 0.184375
vt 0.577393 0.071045
vt 0.577393 0.066364
vt 0.659497 0.066364
vt 0.659497 0.071045
vt 0.58374 0.079346
vt 0.58374 0.073584
vt 0.665845 0.073584
vt 0.665845 0.079346
vt 0.667725 0.079346
vt 0.667725 0.073584
vt 0.749829 0.073584
vt 0.749829 0.079346
vt 0.893799 0.066364
vt 0.899561 0.066364
vt 0.899561 0.071045
vt 0.893799 0.071045
vt 0.906885 0.071045
vt 0.901123 0.071045
vt 0.901123 0.066364
vt 0.906885 0.066364
vt 0.661377 0.071045
vt 0.661377 0.066364
vt 0.743481 0.066364
vt 0.743481 0.071045
vt 0.751709 0.079346
vt 0.751709 0.073584
vt 0.833813 0.073584
vt 0.833813 0.079346
vt 0.835693 0.079346
vt 0.835693 0.073584
vt 0.917798 0.073584
vt 0.917798 0.079346
vt 0.908447 0.066364
vt 0.914209 0.066364
vt 0.914209 0.071045
vt 0.908447 0.071045
vt 0.921533 0.071045
vt 0.915771 0.071045
vt 0.915771 0.066364
vt 0.921533 0.066364
vt 0.818103 0.071045
vt 0.745361 0.071045
vt 0.745361 0.066364
vt 0.818103 0.066364
vt 0.928857 0.071045
vt 0.923096 0.071045
vt 0.923096 0.066364
vt 0.928857 0.066364
vt 0.936182 0.071045
vt 0.93042 0.071045
vt 0.93042 0.066364
vt 0.936182 0.066364
vt 0.919678 0.079346
vt 0.919678 0.073584
vt 0.992419 0.073584
vt 0.992419 0.079346
vt 0.073962 0.065283
vt 0.073962 0.071045
vt 0.001221 0.071045
vt 0.001221 0.065283
vt 0.892322 0.071045
vt 0.81958 0.071045
vt 0.81958 0.066364
vt 0.892322 0.066364
vt 0.943506 0.071045
vt 0.937744 0.071045
vt 0.937744 0.066364
vt 0.943506 0.066364
vt 0.95083 0.071045
vt 0.945068 0.071045
vt 0.945068 0.066364
vt 0.95083 0.066364
vt 0.075439 0.071045
vt 0.075439 0.065283
vt 0.148181 0.065283
vt 0.148181 0.071045
vt 0.2224 0.065283
vt 0.2224 0.071045
vt 0.149658 0.071045
vt 0.149658 0.065283
vn 0 -1 0
vn 0 0 -1
vn 0 0 1
vn -1 0 0
vn 1 0 0
f 100/81/6 97/82/6 98/83/6 99/84/6
f 107/85/7 106/86/7 105/87/7 108/88/7
f 112/89/8 109/90/8 110/91/8 111/92/8
f 116/93/9 113/94/9 114/95/9 115/96/9
f 119/97/10 118/98/10 117/99/10 120/100/10
f 124/101/6 121/102/6 122/103/6 123/104/6
f 131/105/7 130/106/7 129/107/7 132/108/7
f 136/109/8 133/110/8 134/111/8 135/112/8
f 140/113/9 137/114/9 138/115/9 139/116/9
f 143/117/10 142/118/10 141/119/10 144/120/10
f 148/121/6 145/122/6 146/123/6 147/124/6
f 155/125/7 154/126/7 153/127/7 156/128/7
f 160/129/8 157/130/8 158/131/8 159/132/8
f 164/133/9 161/134/9 162/135/9 163/136/9
f 167/137/10 166/138/10 165/139/10 168/140/10
f 172/141/6 169/142/6 170/143/6 171/144/6
f 179/145/7 178/146/7 177/147/7 180/148/7
f 184/149/8 181/150/8 182/151/8 183/152/8
f 188/153/9 185/154/9 186/155/9 187/156/9
f 191/157/10 190/158/10 189/159/10 192/160/10
o light_roof
usemtl fuel_canopy
v 0 0.0375 0
v 1 0.0375 0
v 1 0.0375 1
v 0 0.0375 1
v 0 1 0
v 1 1 0
v 1 1 1
v 0 1 1
v 0 0.0375 0
v 1 0.0375 0
v 1 1 0
v 0 1 0
v 0 0.0375 1
v 1 0.0375 1
v 1 1 1
v 0 1 1
v 0 0.0375 0
v 0 0.0375 1
v 0 1 1
v 0 1 0
v 1 0.0375 0
v 1 0.0375 1
v 1 1 1
v 1 1 0
vt 0.001221 0.766846
vt 0.116455 0.766846
vt 0.116455 0.88208
vt 0.001221 0.88208
vt 0.584717 0.88208
vt 0.584717 0.771167
vt 0.699951 0.771167
vt 0.699951 0.88208
vt 0.701416 0.88208
vt 0.701416 0.771167
vt 0.81665 0.771167
vt 0.81665 0.88208
vt 0.818115 0.88208
vt 0.818115 0.771167
vt 0.93335 0.771167
vt 0.93335 0.88208
vt 0.116455 0.654468
vt 0.116455 0.765381
vt 0.001221 0.765381
vt 0.001221 0.654468
vn 0 1 0
vn 0 0 -1
vn 0 0 1
vn -1 0 0
vn 1 0 0
f 197/161/11 200/162/11 199/163/11 198/164/11
f 203/165/12 202/166/12 201/167/12 204/168/12
f 208/169/13 205/170/13 206/171/13 207/172/13
f 212/173/14 209/174/14 210/175/14 211/176/14
f 215/177/15 214/178/15 213/179/15 216/180/15
