# AFL Fuel Canopy V1 ceiling light (item), generated by tools/build-fuel-canopy-v1.mjs
mtllib light_item.mtl
o light_soffit
usemtl fuel_canopy
v 0 0 0
v 1 0 0
v 1 0 0.14375
v 0 0 0.14375
v 0 0.0375 0
v 1 0.0375 0
v 1 0.0375 0.14375
v 0 0.0375 0.14375
v 0 0 0
v 1 0 0
v 1 0.0375 0
v 0 0.0375 0
v 0 0 0.14375
v 1 0 0.14375
v 1 0.0375 0.14375
v 0 0.0375 0.14375
v 0 0 0
v 0 0 0.14375
v 0 0.0375 0.14375
v 0 0.0375 0
v 1 0 0
v 1 0 0.14375
v 1 0.0375 0.14375
v 1 0.0375 0
v 0 0 0.85625
v 1 0 0.85625
v 1 0 1
v 0 0 1
v 0 0.0375 0.85625
v 1 0.0375 0.85625
v 1 0.0375 1
v 0 0.0375 1
v 0 0 0.85625
v 1 0 0.85625
v 1 0.0375 0.85625
v 0 0.0375 0.85625
v 0 0 1
v 1 0 1
v 1 0.0375 1
v 0 0.0375 1
v 0 0 0.85625
v 0 0 1
v 0 0.0375 1
v 0 0.0375 0.85625
v 1 0 0.85625
v 1 0 1
v 1 0.0375 1
v 1 0.0375 0.85625
v 0 0 0.14375
v 0.14375 0 0.14375
v 0.14375 0 0.85625
v 0 0 0.85625
v 0 0.0375 0.14375
v 0.14375 0.0375 0.14375
v 0.14375 0.0375 0.85625
v 0 0.0375 0.85625
v 0 0 0.14375
v 0.14375 0 0.14375
v 0.14375 0.0375 0.14375
v 0 0.0375 0.14375
v 0 0 0.85625
v 0.14375 0 0.85625
v 0.14375 0.0375 0.85625
v 0 0.0375 0.85625
v 0 0 0.14375
v 0 0 0.85625
v 0 0.0375 0.85625
v 0 0.0375 0.14375
v 0.14375 0 0.14375
v 0.14375 0 0.85625
v 0.14375 0.0375 0.85625
v 0.14375 0.0375 0.14375
v 0.85625 0 0.14375
v 1 0 0.14375
v 1 0 0.85625
v 0.85625 0 0.85625
v 0.85625 0.0375 0.14375
v 1 0.0375 0.14375
v 1 0.0375 0.85625
v 0.85625 0.0375 0.85625
v 0.85625 0 0.14375
v 1 0 0.14375
v 1 0.0375 0.14375
v 0.85625 0.0375 0.14375
v 0.85625 0 0.85625
v 1 0 0.85625
v 1 0.0375 0.85625
v 0.85625 0.0375 0.85625
v 0.85625 0 0.14375
v 0.85625 0 0.85625
v 0.85625 0.0375 0.85625
v 0.85625 0.0375 0.14375
v 1 0 0.14375
v 1 0 0.85625
v 1 0.0375 0.85625
v 1 0.0375 0.14375
vt 0.788818 0.173132
vt 0.904053 0.173132
vt 0.904053 0.189697
vt 0.788818 0.189697
vt 0.116455 0.057861
vt 0.001221 0.057861
vt 0.001221 0.05354
vt 0.116455 0.05354
vt 0.11792 0.05354
vt 0.233154 0.05354
vt 0.233154 0.057861
vt 0.11792 0.057861
vt 0.958252 0.047681
vt 0.974817 0.047681
vt 0.974817 0.052002
vt 0.958252 0.052002
vt 0.976318 0.047681
vt 0.992883 0.047681
vt 0.992883 0.052002
vt 0.976318 0.052002
vt 0.001221 0.153601
vt 0.116455 0.153601
vt 0.116455 0.170166
vt 0.001221 0.170166
vt 0.349854 0.057861
vt 0.234619 0.057861
vt 0.234619 0.05354
vt 0.349854 0.05354
vt 0.351318 0.05354
vt 0.466553 0.05354
vt 0.466553 0.057861
vt 0.351318 0.057861
vt 0.001221 0.041821
vt 0.017786 0.041821
vt 0.017786 0.046143
vt 0.001221 0.046143
vt 0.019287 0.041821
vt 0.035852 0.041821
vt 0.035852 0.046143
vt 0.019287 0.046143
vt 0.11792 0.170166
vt 0.11792 0.153601
vt 0.200024 0.153601
vt 0.200024 0.170166
vt 0.053918 0.046143
vt 0.037354 0.046143
vt 0.037354 0.041821
vt 0.053918 0.041821
vt 0.05542 0.041821
vt 0.071985 0.041821
vt 0.071985 0.046143
vt 0.05542 0.046143
vt 0.440674 0.047681
vt 0.522778 0.047681
vt 0.522778 0.052002
vt 0.440674 0.052002
vt 0.524658 0.047681
vt 0.606763 0.047681
vt 0.606763 0.052002
vt 0.524658 0.052002
vt 0.201904 0.170166
vt 0.201904 0.153601
vt 0.284009 0.153601
vt 0.284009 0.170166
vt 0.090051 0.046143
vt 0.073486 0.046143
vt 0.073486 0.041821
vt 0.090051 0.041821
vt 0.091553 0.041821
vt 0.108118 0.041821
vt 0.108118 0.046143
vt 0.091553 0.046143
vt 0.608643 0.047681
vt 0.690747 0.047681
vt 0.690747 0.052002
vt 0.608643 0.052002
vt 0.692627 0.047681
vt 0.774731 0.047681
vt 0.774731 0.052002
vt 0.692627 0.052002
vn 0 -1 0
vn 0 0 -1
vn 0 0 1
vn -1 0 0
vn 1 0 0
f 1/1/1 2/2/1 3/3/1 4/4/1
f 12/5/2 11/6/2 10/7/2 9/8/2
f 13/9/3 14/10/3 15/11/3 16/12/3
f 17/13/4 18/14/4 19/15/4 20/16/4
f 24/17/5 23/18/5 22/19/5 21/20/5
f 25/21/1 26/22/1 27/23/1 28/24/1
f 36/25/2 35/26/2 34/27/2 33/28/2
f 37/29/3 38/30/3 39/31/3 40/32/3
f 41/33/4 42/34/4 43/35/4 44/36/4
f 48/37/5 47/38/5 46/39/5 45/40/5
f 49/41/1 50/42/1 51/43/1 52/44/1
f 60/45/2 59/46/2 58/47/2 57/48/2
f 61/49/3 62/50/3 63/51/3 64/52/3
f 65/53/4 66/54/4 67/55/4 68/56/4
f 72/57/5 71/58/5 70/59/5 69/60/5
f 73/61/1 74/62/1 75/63/1 76/64/1
f 84/65/2 83/66/2 82/67/2 81/68/2
f 85/69/3 86/70/3 87/71/3 88/72/3
f 89/73/4 90/74/4 91/75/4 92/76/4
f 96/77/5 95/78/5 94/79/5 93/80/5
o light_frame
usemtl fuel_canopy
v 0.14375 -0.0125 0.14375
v 0.85625 -0.0125 0.14375
v 0.85625 -0.0125 0.184375
v 0.14375 -0.0125 0.184375
v 0.14375 0.0375 0.14375
v 0.85625 0.0375 0.14375
v 0.85625 0.0375 0.184375
v 0.14375 0.0375 0.184375
v 0.14375 -0.0125 0.14375
v 0.85625 -0.0125 0.14375
v 0.85625 0.0375 0.14375
v 0.14375 0.0375 0.14375
v 0.14375 -0.0125 0.184375
v 0.85625 -0.0125 0.184375
v 0.85625 0.0375 0.184375
v 0.14375 0.0375 0.184375
v 0.14375 -0.0125 0.14375
v 0.14375 -0.0125 0.184375
v 0.14375 0.0375 0.184375
v 0.14375 0.0375 0.14375
v 0.85625 -0.0125 0.14375
v 0.85625 -0.0125 0.184375
v 0.85625 0.0375 0.184375
v 0.85625 0.0375 0.14375
v 0.14375 -0.0125 0.815625
v 0.85625 -0.0125 0.815625
v 0.85625 -0.0125 0.85625
v 0.14375 -0.0125 0.85625
v 0.14375 0.0375 0.815625
v 0.85625 0.0375 0.815625
v 0.85625 0.0375 0.85625
v 0.14375 0.0375 0.85625
v 0.14375 -0.0125 0.815625
v 0.85625 -0.0125 0.815625
v 0.85625 0.0375 0.815625
v 0.14375 0.0375 0.815625
v 0.14375 -0.0125 0.85625
v 0.85625 -0.0125 0.85625
v 0.85625 0.0375 0.85625
v 0.14375 0.0375 0.85625
v 0.14375 -0.0125 0.815625
v 0.14375 -0.0125 0.85625
v 0.14375 0.0375 0.85625
v 0.14375 0.0375 0.815625
v 0.85625 -0.0125 0.815625
v 0.85625 -0.0125 0.85625
v 0.85625 0.0375 0.85625
v 0.85625 0.0375 0.815625
v 0.14375 -0.0125 0.184375
v 0.184375 -0.0125 0.184375
v 0.184375 -0.0125 0.815625
v 0.14375 -0.0125 0.815625
v 0.14375 0.0375 0.184375
v 0.184375 0.0375 0.184375
v 0.184375 0.0375 0.815625
v 0.14375 0.0375 0.815625
v 0.14375 -0.0125 0.184375
v 0.184375 -0.0125 0.184375
v 0.184375 0.0375 0.184375
v 0.14375 0.0375 0.184375
v 0.14375 -0.0125 0.815625
v 0.184375 -0.0125 0.815625
v 0.184375 0.0375 0.815625
v 0.14375 0.0375 0.815625
v 0.14375 -0.0125 0.184375
v 0.14375 -0.0125 0.815625
v 0.14375 0.0375 0.815625
v 0.14375 0.0375 0.184375
v 0.184375 -0.0125 0.184375
v 0.184375 -0.0125 0.815625
v 0.184375 0.0375 0.815625
v 0.184375 0.0375 0.184375
v 0.815625 -0.0125 0.184375
v 0.85625 -0.0125 0.184375
v 0.85625 -0.0125 0.815625
v 0.815625 -0.0125 0.815625
v 0.815625 0.0375 0.184375
v 0.85625 0.0375 0.184375
v 0.85625 0.0375 0.815625
v 0.815625 0.0375 0.815625
v 0.815625 -0.0125 0.184375
v 0.85625 -0.0125 0.184375
v 0.85625 0.0375 0.184375
v 0.815625 0.0375 0.184375
v 0.815625 -0.0125 0.815625
v 0.85625 -0.0125 0.815625
v 0.85625 0.0375 0.815625
v 0.815625 0.0375 0.815625
v 0.815625 -0.0125 0.184375
v 0.815625 -0.0125 0.815625
v 0.815625 0.0375 0.815625
v 0.815625 0.0375 0.184375
v 0.85625 -0.0125 0.184375
v 0.85625 -0.0125 0.815625
v 0.85625 0.0375 0.815625
v 0.85625 0.0375 0.184375
vt 0.577393 0.066364
vt 0.659497 0.066364
vt 0.659497 0.071045
vt 0.577393 0.071045
vt 0.665845 0.079346
vt 0.58374 0.079346
vt 0.58374 0.073584
vt 0.665845 0.073584
vt 0.667725 0.073584
vt 0.749829 0.073584
vt 0.749829 0.079346
vt 0.667725 0.079346
vt 0.899561 0.066364
vt 0.899561 0.071045
vt 0.893799 0.071045
vt 0.893799 0.066364
vt 0.906885 0.066364
vt 0.906885 0.071045
vt 0.901123 0.071045
vt 0.901123 0.066364
vt 0.661377 0.066364
vt 0.743481 0.066364
vt 0.743481 0.071045
vt 0.661377 0.071045
vt 0.833813 0.079346
vt 0.751709 0.079346
vt 0.751709 0.073584
vt 0.833813 0.073584
vt 0.835693 0.073584
vt 0.917798 0.073584
vt 0.917798 0.079346
vt 0.835693 0.079346
vt 0.914209 0.066364
vt 0.914209 0.071045
vt 0.908447 0.071045
vt 0.908447 0.066364
vt 0.921533 0.066364
vt 0.921533 0.071045
vt 0.915771 0.071045
vt 0.915771 0.066364
vt 0.745361 0.071045
vt 0.745361 0.066364
vt 0.818103 0.066364
vt 0.818103 0.071045
vt 0.928857 0.066364
vt 0.928857 0.071045
vt 0.923096 0.071045
vt 0.923096 0.066364
vt 0.93042 0.071045
vt 0.93042 0.066364
vt 0.936182 0.066364
vt 0.936182 0.071045
vt 0.919678 0.073584
vt 0.992419 0.073584
vt 0.992419 0.079346
vt 0.919678 0.079346
vt 0.001221 0.065283
vt 0.073962 0.065283
vt 0.073962 0.071045
vt 0.001221 0.071045
vt 0.81958 0.071045
vt 0.81958 0.066364
vt 0.892322 0.066364
vt 0.892322 0.071045
vt 0.943506 0.066364
vt 0.943506 0.071045
vt 0.937744 0.071045
vt 0.937744 0.066364
vt 0.945068 0.071045
vt 0.945068 0.066364
vt 0.95083 0.066364
vt 0.95083 0.071045
vt 0.075439 0.065283
vt 0.148181 0.065283
vt 0.148181 0.071045
vt 0.075439 0.071045
vt 0.149658 0.065283
vt 0.2224 0.065283
vt 0.2224 0.071045
vt 0.149658 0.071045
vn 0 -1 0
vn 0 0 -1
vn 0 0 1
vn -1 0 0
vn 1 0 0
f 97/81/6 98/82/6 99/83/6 100/84/6
f 108/85/7 107/86/7 106/87/7 105/88/7
f 109/89/8 110/90/8 111/91/8 112/92/8
f 113/93/9 114/94/9 115/95/9 116/96/9
f 120/97/10 119/98/10 118/99/10 117/100/10
f 121/101/6 122/102/6 123/103/6 124/104/6
f 132/105/7 131/106/7 130/107/7 129/108/7
f 133/109/8 134/110/8 135/111/8 136/112/8
f 137/113/9 138/114/9 139/115/9 140/116/9
f 144/117/10 143/118/10 142/119/10 141/120/10
f 145/121/6 146/122/6 147/123/6 148/124/6
f 156/125/7 155/126/7 154/127/7 153/128/7
f 157/129/8 158/130/8 159/131/8 160/132/8
f 161/133/9 162/134/9 163/135/9 164/136/9
f 168/137/10 167/138/10 166/139/10 165/140/10
f 169/141/6 170/142/6 171/143/6 172/144/6
f 180/145/7 179/146/7 178/147/7 177/148/7
f 181/149/8 182/150/8 183/151/8 184/152/8
f 185/153/9 186/154/9 187/155/9 188/156/9
f 192/157/10 191/158/10 190/159/10 189/160/10
o light_roof
usemtl fuel_canopy
v 0 0.0375 0
v 1 0.0375 0
v 1 0.0375 1
v 0 0.0375 1
v 0 1 0
v 1 1 0
v 1 1 1
v 0 1 1
v 0 0.0375 0
v 1 0.0375 0
v 1 1 0
v 0 1 0
v 0 0.0375 1
v 1 0.0375 1
v 1 1 1
v 0 1 1
v 0 0.0375 0
v 0 0.0375 1
v 0 1 1
v 0 1 0
v 1 0.0375 0
v 1 0.0375 1
v 1 1 1
v 1 1 0
vt 0.116455 0.766846
vt 0.116455 0.88208
vt 0.001221 0.88208
vt 0.001221 0.766846
vt 0.699951 0.88208
vt 0.584717 0.88208
vt 0.584717 0.771167
vt 0.699951 0.771167
vt 0.701416 0.771167
vt 0.81665 0.771167
vt 0.81665 0.88208
vt 0.701416 0.88208
vt 0.818115 0.771167
vt 0.93335 0.771167
vt 0.93335 0.88208
vt 0.818115 0.88208
vt 0.001221 0.654468
vt 0.116455 0.654468
vt 0.116455 0.765381
vt 0.001221 0.765381
vn 0 1 0
vn 0 0 -1
vn 0 0 1
vn -1 0 0
vn 1 0 0
f 200/161/11 199/162/11 198/163/11 197/164/11
f 204/165/12 203/166/12 202/167/12 201/168/12
f 205/169/13 206/170/13 207/171/13 208/172/13
f 209/173/14 210/174/14 211/175/14 212/176/14
f 216/177/15 215/178/15 214/179/15 213/180/15
o light_lens_lens
usemtl fuel_canopy
v 0.183125 0.01875 0.183125
v 0.816875 0.01875 0.183125
v 0.816875 0.01875 0.816875
v 0.183125 0.01875 0.816875
v 0.183125 0.0375 0.183125
v 0.816875 0.0375 0.183125
v 0.816875 0.0375 0.816875
v 0.183125 0.0375 0.816875
v 0.183125 0.01875 0.183125
v 0.816875 0.01875 0.183125
v 0.816875 0.0375 0.183125
v 0.183125 0.0375 0.183125
v 0.183125 0.01875 0.816875
v 0.816875 0.01875 0.816875
v 0.816875 0.0375 0.816875
v 0.183125 0.0375 0.816875
v 0.183125 0.01875 0.183125
v 0.183125 0.01875 0.816875
v 0.183125 0.0375 0.816875
v 0.183125 0.0375 0.183125
v 0.816875 0.01875 0.183125
v 0.816875 0.01875 0.816875
v 0.816875 0.0375 0.816875
v 0.816875 0.0375 0.183125
vt 0.914795 0.447021
vt 0.914795 0.373992
vt 0.987825 0.373992
vt 0.987825 0.447021
vt 0.511262 0.035889
vt 0.438232 0.035889
vt 0.438232 0.033728
vt 0.511262 0.033728
vt 0.512939 0.033728
vt 0.585969 0.033728
vt 0.585969 0.035889
vt 0.512939 0.035889
vt 0.587646 0.033728
vt 0.660676 0.033728
vt 0.660676 0.035889
vt 0.587646 0.035889
vt 0.662354 0.033728
vt 0.735383 0.033728
vt 0.735383 0.035889
vt 0.662354 0.035889
vn 0 -1 0
vn 0 0 -1
vn 0 0 1
vn -1 0 0
vn 1 0 0
f 217/181/16 218/182/16 219/183/16 220/184/16
f 228/185/17 227/186/17 226/187/17 225/188/17
f 229/189/18 230/190/18 231/191/18 232/192/18
f 233/193/19 234/194/19 235/195/19 236/196/19
f 240/197/20 239/198/20 238/199/20 237/200/20
