# AFL hand_fuel_pump/crank, generated by tools/build-fuel-containers-v1.mjs
mtllib crank.mtl
o hand_fuel_pump__crank__hub
usemtl fuel_containers
v 0.5 0.527585 0.505487
v 0.5 0.523385 0.515625
v 0.5 0.515625 0.523385
v 0.5 0.505487 0.527585
v 0.5 0.494513 0.527585
v 0.5 0.484375 0.523385
v 0.5 0.476615 0.515625
v 0.5 0.472415 0.505487
v 0.5 0.472415 0.494513
v 0.5 0.476615 0.484375
v 0.5 0.484375 0.476615
v 0.5 0.494513 0.472415
v 0.5 0.505487 0.472415
v 0.5 0.515625 0.476615
v 0.5 0.523385 0.484375
v 0.5 0.527585 0.494513
v 0.520312 0.527585 0.505487
v 0.520312 0.523385 0.515625
v 0.520312 0.515625 0.523385
v 0.520312 0.505487 0.527585
v 0.520312 0.494513 0.527585
v 0.520312 0.484375 0.523385
v 0.520312 0.476615 0.515625
v 0.520312 0.472415 0.505487
v 0.520312 0.472415 0.494513
v 0.520312 0.476615 0.484375
v 0.520312 0.484375 0.476615
v 0.520312 0.494513 0.472415
v 0.520312 0.505487 0.472415
v 0.520312 0.515625 0.476615
v 0.520312 0.523385 0.484375
v 0.520312 0.527585 0.494513
v 0.5 0.5 0.5
v 0.520312 0.5 0.5
vt 0.200323 0.04492
vt 0.200323 0.047363
vt 0.195801 0.047363
vt 0.195801 0.04492
vt 0.215948 0.04492
vt 0.215948 0.047363
vt 0.211426 0.047363
vt 0.211426 0.04492
vt 0.192511 0.04492
vt 0.192511 0.047363
vt 0.187988 0.047363
vt 0.187988 0.04492
vt 0.203613 0.047363
vt 0.203613 0.04492
vt 0.208136 0.04492
vt 0.208136 0.047363
vt 0.219238 0.047363
vt 0.219238 0.04492
vt 0.223761 0.04492
vt 0.223761 0.047363
vt 0.141113 0.047363
vt 0.141113 0.04492
vt 0.145636 0.04492
vt 0.145636 0.047363
vt 0.242676 0.047363
vt 0.242676 0.04492
vt 0.247198 0.04492
vt 0.247198 0.047363
vt 0.109863 0.047363
vt 0.109863 0.04492
vt 0.114386 0.04492
vt 0.114386 0.047363
vt 0.250488 0.047363
vt 0.250488 0.04492
vt 0.255011 0.04492
vt 0.255011 0.047363
vt 0.133301 0.047363
vt 0.133301 0.04492
vt 0.137823 0.04492
vt 0.137823 0.047363
vt 0.227051 0.047363
vt 0.227051 0.04492
vt 0.231573 0.04492
vt 0.231573 0.047363
vt 0.122198 0.04492
vt 0.122198 0.047363
vt 0.117676 0.047363
vt 0.117676 0.04492
vt 0.301886 0.04492
vt 0.301886 0.047363
vt 0.297363 0.047363
vt 0.297363 0.04492
vt 0.130011 0.04492
vt 0.130011 0.047363
vt 0.125488 0.047363
vt 0.125488 0.04492
vt 0.294073 0.04492
vt 0.294073 0.047363
vt 0.289551 0.047363
vt 0.289551 0.04492
vt 0.153448 0.04492
vt 0.153448 0.047363
vt 0.148926 0.047363
vt 0.148926 0.04492
vt 0.987648 0.301311
vt 0.985391 0.302246
vt 0.984169 0.296104
vt 0.989376 0.299583
vt 0.987648 0.301311
vt 0.984169 0.296104
vt 0.990311 0.297326
vt 0.989376 0.299583
vt 0.984169 0.296104
vt 0.990311 0.294883
vt 0.990311 0.297326
vt 0.984169 0.296104
vt 0.989376 0.292625
vt 0.990311 0.294883
vt 0.984169 0.296104
vt 0.987648 0.290897
vt 0.989376 0.292625
vt 0.984169 0.296104
vt 0.985391 0.289962
vt 0.987648 0.290897
vt 0.984169 0.296104
vt 0.982948 0.289962
vt 0.985391 0.289962
vt 0.984169 0.296104
vt 0.98069 0.290897
vt 0.982948 0.289962
vt 0.984169 0.296104
vt 0.978962 0.292625
vt 0.98069 0.290897
vt 0.984169 0.296104
vt 0.978027 0.294883
vt 0.978962 0.292625
vt 0.984169 0.296104
vt 0.978027 0.297326
vt 0.978027 0.294883
vt 0.984169 0.296104
vt 0.978962 0.299583
vt 0.978027 0.297326
vt 0.984169 0.296104
vt 0.98069 0.301311
vt 0.978962 0.299583
vt 0.984169 0.296104
vt 0.982948 0.302246
vt 0.98069 0.301311
vt 0.984169 0.296104
vt 0.985391 0.302246
vt 0.982948 0.302246
vt 0.984169 0.296104
vt 0.008583 0.279503
vt 0.009805 0.273361
vt 0.012062 0.274296
vt 0.008583 0.279503
vt 0.012062 0.274296
vt 0.01379 0.276024
vt 0.008583 0.279503
vt 0.01379 0.276024
vt 0.014725 0.278281
vt 0.008583 0.279503
vt 0.014725 0.278281
vt 0.014725 0.280724
vt 0.008583 0.279503
vt 0.014725 0.280724
vt 0.01379 0.282982
vt 0.008583 0.279503
vt 0.01379 0.282982
vt 0.012062 0.284709
vt 0.008583 0.279503
vt 0.012062 0.284709
vt 0.009805 0.285645
vt 0.008583 0.279503
vt 0.009805 0.285645
vt 0.007362 0.285645
vt 0.008583 0.279503
vt 0.007362 0.285645
vt 0.005104 0.284709
vt 0.008583 0.279503
vt 0.005104 0.284709
vt 0.003376 0.282982
vt 0.008583 0.279503
vt 0.003376 0.282982
vt 0.002441 0.280724
vt 0.008583 0.279503
vt 0.002441 0.280724
vt 0.002441 0.278281
vt 0.008583 0.279503
vt 0.002441 0.278281
vt 0.003376 0.276024
vt 0.008583 0.279503
vt 0.003376 0.276024
vt 0.005104 0.274296
vt 0.008583 0.279503
vt 0.005104 0.274296
vt 0.007362 0.273361
vt 0.008583 0.279503
vt 0.007362 0.273361
vt 0.009805 0.273361
vn 0 0.980785 0.19509
vn 0 0.83147 0.55557
vn 0 0.55557 0.83147
vn 0 0.19509 0.980785
vn 0 -0.19509 0.980785
vn 0 -0.55557 0.83147
vn 0 -0.83147 0.55557
vn 0 -0.980785 0.19509
vn 0 -0.980785 -0.19509
vn 0 -0.83147 -0.55557
vn 0 -0.55557 -0.83147
vn 0 -0.19509 -0.980785
vn 0 0.19509 -0.980785
vn 0 0.55557 -0.83147
vn 0 0.83147 -0.55557
vn 0 0.980785 -0.19509
vn -1 0 0
vn 1 0 0
f 1/1/1 2/2/2 18/3/2 17/4/1
f 2/5/2 3/6/3 19/7/3 18/8/2
f 3/9/3 4/10/4 20/11/4 19/12/3
f 4/13/4 5/14/5 21/15/5 20/16/4
f 5/17/5 6/18/6 22/19/6 21/20/5
f 6/21/6 7/22/7 23/23/7 22/24/6
f 7/25/7 8/26/8 24/27/8 23/28/7
f 8/29/8 9/30/9 25/31/9 24/32/8
f 9/33/9 10/34/10 26/35/10 25/36/9
f 10/37/10 11/38/11 27/39/11 26/40/10
f 11/41/11 12/42/12 28/43/12 27/44/11
f 12/45/12 13/46/13 29/47/13 28/48/12
f 13/49/13 14/50/14 30/51/14 29/52/13
f 14/53/14 15/54/15 31/55/15 30/56/14
f 15/57/15 16/58/16 32/59/16 31/60/15
f 16/61/16 1/62/1 17/63/1 32/64/16
f 2/65/17 1/66/17 33/67/17
f 3/68/17 2/69/17 33/70/17
f 4/71/17 3/72/17 33/73/17
f 5/74/17 4/75/17 33/76/17
f 6/77/17 5/78/17 33/79/17
f 7/80/17 6/81/17 33/82/17
f 8/83/17 7/84/17 33/85/17
f 9/86/17 8/87/17 33/88/17
f 10/89/17 9/90/17 33/91/17
f 11/92/17 10/93/17 33/94/17
f 12/95/17 11/96/17 33/97/17
f 13/98/17 12/99/17 33/100/17
f 14/101/17 13/102/17 33/103/17
f 15/104/17 14/105/17 33/106/17
f 16/107/17 15/108/17 33/109/17
f 1/110/17 16/111/17 33/112/17
f 34/113/18 17/114/18 18/115/18
f 34/116/18 18/117/18 19/118/18
f 34/119/18 19/120/18 20/121/18
f 34/122/18 20/123/18 21/124/18
f 34/125/18 21/126/18 22/127/18
f 34/128/18 22/129/18 23/130/18
f 34/131/18 23/132/18 24/133/18
f 34/134/18 24/135/18 25/136/18
f 34/137/18 25/138/18 26/139/18
f 34/140/18 26/141/18 27/142/18
f 34/143/18 27/144/18 28/145/18
f 34/146/18 28/147/18 29/148/18
f 34/149/18 29/150/18 30/151/18
f 34/152/18 30/153/18 31/154/18
f 34/155/18 31/156/18 32/157/18
f 34/158/18 32/159/18 17/160/18
o hand_fuel_pump__crank__arm
usemtl fuel_containers
v 0.504687 0.484375 0.4875
v 0.504687 0.484375 0.5125
v 0.504687 0.65625 0.5125
v 0.504687 0.65625 0.4875
v 0.525 0.484375 0.4875
v 0.525 0.484375 0.5125
v 0.525 0.65625 0.5125
v 0.525 0.65625 0.4875
v 0.504687 0.484375 0.4875
v 0.504687 0.484375 0.5125
v 0.504687 0.65625 0.5125
v 0.504687 0.65625 0.4875
v 0.525 0.484375 0.4875
v 0.525 0.484375 0.5125
v 0.525 0.65625 0.5125
v 0.525 0.65625 0.4875
vt 0.92627 0.156122
vt 0.931836 0.156122
vt 0.931836 0.160645
vt 0.92627 0.160645
vt 0.842285 0.156122
vt 0.880554 0.156122
vt 0.880554 0.160645
vt 0.842285 0.160645
vt 0.940625 0.160645
vt 0.935059 0.160645
vt 0.935059 0.156122
vt 0.940625 0.156122
vt 0.922546 0.160645
vt 0.884277 0.160645
vt 0.884277 0.156122
vt 0.922546 0.156122
vt 0.318848 0.191211
vt 0.357117 0.191211
vt 0.357117 0.196777
vt 0.357117 0.196777
vt 0.318848 0.196777
vt 0.318848 0.191211
vt 0.36084 0.196777
vt 0.36084 0.191211
vt 0.399109 0.191211
vt 0.399109 0.191211
vt 0.399109 0.196777
vt 0.36084 0.196777
vn 0 -1 0
vn 0 0 1
vn 0 1 0
vn 0 0 -1
vn -1 0 0
vn 1 0 0
f 39/161/19 40/162/19 36/163/19 35/164/19
f 40/165/20 41/166/20 37/167/20 36/168/20
f 41/169/21 42/170/21 38/171/21 37/172/21
f 42/173/22 39/174/22 35/175/22 38/176/22
f 46/177/23 43/178/23 44/179/23
f 44/180/23 45/181/23 46/182/23
f 48/183/24 47/184/24 50/185/24
f 50/186/24 49/187/24 48/188/24
o hand_fuel_pump__crank__grip
usemtl fuel_containers
v 0.523438 0.665194 0.503825
v 0.523438 0.661875 0.510716
v 0.523438 0.655895 0.515485
v 0.523438 0.648438 0.517188
v 0.523438 0.64098 0.515485
v 0.523438 0.635 0.510716
v 0.523438 0.631681 0.503825
v 0.523438 0.631681 0.496175
v 0.523438 0.635 0.489284
v 0.523438 0.64098 0.484515
v 0.523438 0.648438 0.482812
v 0.523438 0.655895 0.484515
v 0.523438 0.661875 0.489284
v 0.523438 0.665194 0.496175
v 0.589844 0.665194 0.503825
v 0.589844 0.661875 0.510716
v 0.589844 0.655895 0.515485
v 0.589844 0.648438 0.517188
v 0.589844 0.64098 0.515485
v 0.589844 0.635 0.510716
v 0.589844 0.631681 0.503825
v 0.589844 0.631681 0.496175
v 0.589844 0.635 0.489284
v 0.589844 0.64098 0.484515
v 0.589844 0.648438 0.482812
v 0.589844 0.655895 0.484515
v 0.589844 0.661875 0.489284
v 0.589844 0.665194 0.496175
vt 0.538712 0.016363
vt 0.538712 0.018066
vt 0.523926 0.018066
vt 0.523926 0.016363
vt 0.742813 0.016363
vt 0.742813 0.018066
vt 0.728027 0.018066
vt 0.728027 0.016363
vt 0.690918 0.018066
vt 0.690918 0.016363
vt 0.705704 0.016363
vt 0.705704 0.018066
vt 0.54248 0.018066
vt 0.54248 0.016363
vt 0.557266 0.016363
vt 0.557266 0.018066
vt 0.561035 0.018066
vt 0.561035 0.016363
vt 0.575821 0.016363
vt 0.575821 0.018066
vt 0.709473 0.018066
vt 0.709473 0.016363
vt 0.724258 0.016363
vt 0.724258 0.018066
vt 0.876465 0.018066
vt 0.876465 0.016363
vt 0.891251 0.016363
vt 0.891251 0.018066
vt 0.57959 0.018066
vt 0.57959 0.016363
vt 0.594376 0.016363
vt 0.594376 0.018066
vt 0.746582 0.018066
vt 0.746582 0.016363
vt 0.761368 0.016363
vt 0.761368 0.018066
vt 0.445938 0.016363
vt 0.445938 0.018066
vt 0.431152 0.018066
vt 0.431152 0.016363
vt 0.909805 0.016363
vt 0.909805 0.018066
vt 0.89502 0.018066
vt 0.89502 0.016363
vt 0.779922 0.016363
vt 0.779922 0.018066
vt 0.765137 0.018066
vt 0.765137 0.016363
vt 0.61293 0.016363
vt 0.61293 0.018066
vt 0.598145 0.018066
vt 0.598145 0.016363
vt 0.631485 0.016363
vt 0.631485 0.018066
vt 0.616699 0.018066
vt 0.616699 0.016363
vn 0 0.974928 0.222521
vn 0 0.781831 0.62349
vn 0 0.433884 0.900969
vn 0 0 1
vn 0 -0.433884 0.900969
vn 0 -0.781831 0.62349
vn 0 -0.974928 0.222521
vn 0 -0.974928 -0.222521
vn 0 -0.781831 -0.62349
vn 0 -0.433884 -0.900969
vn 0 0 -1
vn 0 0.433884 -0.900969
vn 0 0.781831 -0.62349
vn 0 0.974928 -0.222521
f 51/189/25 52/190/26 66/191/26 65/192/25
f 52/193/26 53/194/27 67/195/27 66/196/26
f 53/197/27 54/198/28 68/199/28 67/200/27
f 54/201/28 55/202/29 69/203/29 68/204/28
f 55/205/29 56/206/30 70/207/30 69/208/29
f 56/209/30 57/210/31 71/211/31 70/212/30
f 57/213/31 58/214/32 72/215/32 71/216/31
f 58/217/32 59/218/33 73/219/33 72/220/32
f 59/221/33 60/222/34 74/223/34 73/224/33
f 60/225/34 61/226/35 75/227/35 74/228/34
f 61/229/35 62/230/36 76/231/36 75/232/35
f 62/233/36 63/234/37 77/235/37 76/236/36
f 63/237/37 64/238/38 78/239/38 77/240/37
f 64/241/38 51/242/25 65/243/25 78/244/38
o hand_fuel_pump__crank__knob
usemtl fuel_containers
v 0.589844 0.665194 0.503825
v 0.589844 0.661875 0.510716
v 0.589844 0.655895 0.515485
v 0.589844 0.648438 0.517188
v 0.589844 0.64098 0.515485
v 0.589844 0.635 0.510716
v 0.589844 0.631681 0.503825
v 0.589844 0.631681 0.496175
v 0.589844 0.635 0.489284
v 0.589844 0.64098 0.484515
v 0.589844 0.648438 0.482812
v 0.589844 0.655895 0.484515
v 0.589844 0.661875 0.489284
v 0.589844 0.665194 0.496175
v 0.595313 0.668241 0.50452
v 0.595313 0.664318 0.512665
v 0.595313 0.657251 0.518301
v 0.595313 0.648438 0.520312
v 0.595313 0.639624 0.518301
v 0.595313 0.632557 0.512665
v 0.595313 0.628634 0.50452
v 0.595313 0.628634 0.49548
v 0.595313 0.632557 0.487335
v 0.595313 0.639624 0.481699
v 0.595313 0.648438 0.479687
v 0.595313 0.657251 0.481699
v 0.595313 0.664318 0.487335
v 0.595313 0.668241 0.49548
v 0.601563 0.663671 0.503477
v 0.601563 0.660654 0.509742
v 0.601563 0.655217 0.514078
v 0.601563 0.648438 0.515625
v 0.601563 0.641658 0.514078
v 0.601563 0.636221 0.509742
v 0.601563 0.633204 0.503477
v 0.601563 0.633204 0.496523
v 0.601563 0.636221 0.490258
v 0.601563 0.641658 0.485922
v 0.601563 0.648438 0.484375
v 0.601563 0.655217 0.485922
v 0.601563 0.660654 0.490258
v 0.601563 0.663671 0.496523
v 0.601563 0.648438 0.5
vt 0.268066 0.016674
vt 0.269725 0.016285
vt 0.270193 0.017607
vt 0.268234 0.018066
vt 0.959473 0.022655
vt 0.960926 0.021768
vt 0.961785 0.022877
vt 0.960067 0.023926
vt 0.057861 0.016016
vt 0.059403 0.016739
vt 0.058951 0.018066
vt 0.057129 0.017212
vt 0.039551 0.016739
vt 0.041093 0.016016
vt 0.041825 0.017212
vt 0.040002 0.018066
vt 0.93163 0.023926
vt 0.930176 0.023039
vt 0.93077 0.021768
vt 0.932488 0.022817
vt 0.234568 0.018066
vt 0.23291 0.017678
vt 0.233077 0.016285
vt 0.235037 0.016745
vt 0.004299 0.012207
vt 0.002596 0.012207
vt 0.002441 0.010813
vt 0.004454 0.010813
vt 0.252615 0.017678
vt 0.250957 0.018066
vt 0.250488 0.016745
vt 0.252448 0.016285
vt 0.944207 0.023039
vt 0.942753 0.023926
vt 0.941895 0.022817
vt 0.943613 0.021768
vt 0.035233 0.018066
vt 0.033691 0.017343
vt 0.034143 0.016016
vt 0.035965 0.01687
vt 0.065262 0.017343
vt 0.06372 0.018066
vt 0.062988 0.01687
vt 0.064811 0.016016
vt 0.936893 0.021768
vt 0.938347 0.022655
vt 0.937753 0.023926
vt 0.936035 0.022877
vt 0.262676 0.016285
vt 0.264334 0.016674
vt 0.264167 0.018066
vt 0.262207 0.017607
vt 0.989901 0.016673
vt 0.991604 0.016673
vt 0.991759 0.018066
vt 0.989746 0.018066
vt 0.977299 0.021781
vt 0.979235 0.022331
vt 0.97854 0.023926
vt 0.977051 0.023502
vt 0.038437 0.044918
vt 0.040054 0.046116
vt 0.038842 0.047363
vt 0.037598 0.046442
vt 0.679529 0.029059
vt 0.677651 0.029785
vt 0.677246 0.028093
vt 0.67869 0.027535
vt 0.684983 0.029785
vt 0.683105 0.029059
vt 0.683944 0.027535
vt 0.685388 0.028093
vt 0.045914 0.046166
vt 0.044296 0.047363
vt 0.043457 0.045839
vt 0.044702 0.044918
vt 0.985094 0.023375
vt 0.983158 0.023926
vt 0.98291 0.022204
vt 0.984399 0.021781
vt 0.391173 0.018066
vt 0.38916 0.018066
vt 0.389392 0.016342
vt 0.390941 0.016342
vt 0.973128 0.023926
vt 0.971191 0.023375
vt 0.971886 0.021781
vt 0.973375 0.022204
vt 0.074372 0.047363
vt 0.072754 0.046166
vt 0.073966 0.044918
vt 0.075211 0.045839
vt 0.665527 0.028261
vt 0.667405 0.027535
vt 0.66781 0.029227
vt 0.666366 0.029785
vt 0.706948 0.027535
vt 0.708825 0.028261
vt 0.707987 0.029785
vt 0.706543 0.029227
vt 0.055176 0.046116
vt 0.056794 0.044918
vt 0.057633 0.046442
vt 0.056388 0.047363
vt 0.98877 0.022331
vt 0.990706 0.021781
vt 0.990954 0.023502
vt 0.989464 0.023926
vt 0.400879 0.016342
vt 0.402892 0.016342
vt 0.402659 0.018066
vt 0.401111 0.018066
vt 0.803772 0.213893
vt 0.804546 0.210502
vt 0.805941 0.211173
vt 0.803772 0.213893
vt 0.805941 0.211173
vt 0.806906 0.212384
vt 0.803772 0.213893
vt 0.806906 0.212384
vt 0.807251 0.213893
vt 0.803772 0.213893
vt 0.807251 0.213893
vt 0.806906 0.215403
vt 0.803772 0.213893
vt 0.806906 0.215403
vt 0.805941 0.216613
vt 0.803772 0.213893
vt 0.805941 0.216613
vt 0.804546 0.217285
vt 0.803772 0.213893
vt 0.804546 0.217285
vt 0.802998 0.217285
vt 0.803772 0.213893
vt 0.802998 0.217285
vt 0.801603 0.216613
vt 0.803772 0.213893
vt 0.801603 0.216613
vt 0.800637 0.215403
vt 0.803772 0.213893
vt 0.800637 0.215403
vt 0.800293 0.213893
vt 0.803772 0.213893
vt 0.800293 0.213893
vt 0.800637 0.212384
vt 0.803772 0.213893
vt 0.800637 0.212384
vt 0.801603 0.211173
vt 0.803772 0.213893
vt 0.801603 0.211173
vt 0.802998 0.210502
vt 0.803772 0.213893
vt 0.802998 0.210502
vt 0.804546 0.210502
vn -0.496139 0.846474 0.193202
vn -0.496139 0.67882 0.541341
vn -0.496139 0.376717 0.78226
vn -0.496139 0 0.868243
vn -0.496139 -0.376717 0.78226
vn -0.496139 -0.67882 0.541341
vn -0.496139 -0.846474 0.193202
vn -0.496139 -0.846474 -0.193202
vn -0.496139 -0.67882 -0.541341
vn -0.496139 -0.376717 -0.78226
vn -0.496139 0 -0.868243
vn -0.496139 0.376717 -0.78226
vn -0.496139 0.67882 -0.541341
vn -0.496139 0.846474 -0.193202
vn 0.6 0.779942 0.178017
vn 0.6 0.625465 0.498792
vn 0.6 0.347107 0.720775
vn 0.6 0 0.8
vn 0.6 -0.347107 0.720775
vn 0.6 -0.625465 0.498792
vn 0.6 -0.779942 0.178017
vn 0.6 -0.779942 -0.178017
vn 0.6 -0.625465 -0.498792
vn 0.6 -0.347107 -0.720775
vn 0.6 0 -0.8
vn 0.6 0.347107 -0.720775
vn 0.6 0.625465 -0.498792
vn 0.6 0.779942 -0.178017
vn 1 0 0
f 79/245/39 80/246/40 94/247/40 93/248/39
f 80/249/40 81/250/41 95/251/41 94/252/40
f 81/253/41 82/254/42 96/255/42 95/256/41
f 82/257/42 83/258/43 97/259/43 96/260/42
f 83/261/43 84/262/44 98/263/44 97/264/43
f 84/265/44 85/266/45 99/267/45 98/268/44
f 85/269/45 86/270/46 100/271/46 99/272/45
f 86/273/46 87/274/47 101/275/47 100/276/46
f 87/277/47 88/278/48 102/279/48 101/280/47
f 88/281/48 89/282/49 103/283/49 102/284/48
f 89/285/49 90/286/50 104/287/50 103/288/49
f 90/289/50 91/290/51 105/291/51 104/292/50
f 91/293/51 92/294/52 106/295/52 105/296/51
f 92/297/52 79/298/39 93/299/39 106/300/52
f 93/301/53 94/302/54 108/303/54 107/304/53
f 94/305/54 95/306/55 109/307/55 108/308/54
f 95/309/55 96/310/56 110/311/56 109/312/55
f 96/313/56 97/314/57 111/315/57 110/316/56
f 97/317/57 98/318/58 112/319/58 111/320/57
f 98/321/58 99/322/59 113/323/59 112/324/58
f 99/325/59 100/326/60 114/327/60 113/328/59
f 100/329/60 101/330/61 115/331/61 114/332/60
f 101/333/61 102/334/62 116/335/62 115/336/61
f 102/337/62 103/338/63 117/339/63 116/340/62
f 103/341/63 104/342/64 118/343/64 117/344/63
f 104/345/64 105/346/65 119/347/65 118/348/64
f 105/349/65 106/350/66 120/351/66 119/352/65
f 106/353/66 93/354/53 107/355/53 120/356/66
f 121/357/67 107/358/67 108/359/67
f 121/360/67 108/361/67 109/362/67
f 121/363/67 109/364/67 110/365/67
f 121/366/67 110/367/67 111/368/67
f 121/369/67 111/370/67 112/371/67
f 121/372/67 112/373/67 113/374/67
f 121/375/67 113/376/67 114/377/67
f 121/378/67 114/379/67 115/380/67
f 121/381/67 115/382/67 116/383/67
f 121/384/67 116/385/67 117/386/67
f 121/387/67 117/388/67 118/389/67
f 121/390/67 118/391/67 119/392/67
f 121/393/67 119/394/67 120/395/67
f 121/396/67 120/397/67 107/398/67
