# AFL Site Lighting V1 photocontrol, generated by tools/build-site-lighting-v1.mjs
mtllib photocell.mtl
o pc_receptacle
usemtl head
v 0.545434 0.227 -0.036304
v 0.540986 0.227 -0.022616
v 0.532527 0.227 -0.010973
v 0.520884 0.227 -0.002514
v 0.507196 0.227 0.001934
v 0.492804 0.227 0.001934
v 0.479116 0.227 -0.002514
v 0.467473 0.227 -0.010973
v 0.459014 0.227 -0.022616
v 0.454566 0.227 -0.036304
v 0.454566 0.227 -0.050696
v 0.459014 0.227 -0.064384
v 0.467473 0.227 -0.076027
v 0.479116 0.227 -0.084486
v 0.492804 0.227 -0.088934
v 0.507196 0.227 -0.088934
v 0.520884 0.227 -0.084486
v 0.532527 0.227 -0.076027
v 0.540986 0.227 -0.064384
v 0.545434 0.227 -0.050696
v 0.545434 0.242 -0.036304
v 0.540986 0.242 -0.022616
v 0.532527 0.242 -0.010973
v 0.520884 0.242 -0.002514
v 0.507196 0.242 0.001934
v 0.492804 0.242 0.001934
v 0.479116 0.242 -0.002514
v 0.467473 0.242 -0.010973
v 0.459014 0.242 -0.022616
v 0.454566 0.242 -0.036304
v 0.454566 0.242 -0.050696
v 0.459014 0.242 -0.064384
v 0.467473 0.242 -0.076027
v 0.479116 0.242 -0.084486
v 0.492804 0.242 -0.088934
v 0.507196 0.242 -0.088934
v 0.520884 0.242 -0.084486
v 0.532527 0.242 -0.076027
v 0.540986 0.242 -0.064384
v 0.545434 0.242 -0.050696
v 0.5 0.227 -0.0435
v 0.5 0.242 -0.0435
vt 0.284883 0.379446
vt 0.284883 0.385742
vt 0.27832 0.385742
vt 0.27832 0.379446
vt 0.079805 0.379446
vt 0.079805 0.385742
vt 0.073242 0.385742
vt 0.073242 0.379446
vt 0.052461 0.379446
vt 0.052461 0.385742
vt 0.045898 0.385742
vt 0.045898 0.379446
vt 0.093477 0.379446
vt 0.093477 0.385742
vt 0.086914 0.385742
vt 0.086914 0.379446
vt 0.230195 0.379446
vt 0.230195 0.385742
vt 0.223633 0.385742
vt 0.223633 0.379446
vt 0.100586 0.385742
vt 0.100586 0.379446
vt 0.107148 0.379446
vt 0.107148 0.385742
vt 0.05957 0.385742
vt 0.05957 0.379446
vt 0.066133 0.379446
vt 0.066133 0.385742
vt 0.291992 0.385742
vt 0.291992 0.379446
vt 0.298555 0.379446
vt 0.298555 0.385742
vt 0.114258 0.385742
vt 0.114258 0.379446
vt 0.12082 0.379446
vt 0.12082 0.385742
vt 0.12793 0.385742
vt 0.12793 0.379446
vt 0.134492 0.379446
vt 0.134492 0.385742
vt 0.141602 0.385742
vt 0.141602 0.379446
vt 0.148164 0.379446
vt 0.148164 0.385742
vt 0.032227 0.385742
vt 0.032227 0.379446
vt 0.038789 0.379446
vt 0.038789 0.385742
vt 0.155273 0.385742
vt 0.155273 0.379446
vt 0.161836 0.379446
vt 0.161836 0.385742
vt 0.250977 0.385742
vt 0.250977 0.379446
vt 0.257539 0.379446
vt 0.257539 0.385742
vt 0.243867 0.379446
vt 0.243867 0.385742
vt 0.237305 0.385742
vt 0.237305 0.379446
vt 0.271211 0.379446
vt 0.271211 0.385742
vt 0.264648 0.385742
vt 0.264648 0.379446
vt 0.175508 0.379446
vt 0.175508 0.385742
vt 0.168945 0.385742
vt 0.168945 0.379446
vt 0.18918 0.379446
vt 0.18918 0.385742
vt 0.182617 0.385742
vt 0.182617 0.379446
vt 0.202852 0.379446
vt 0.202852 0.385742
vt 0.196289 0.385742
vt 0.196289 0.379446
vt 0.216523 0.379446
vt 0.216523 0.385742
vt 0.209961 0.385742
vt 0.209961 0.379446
vt 0.61851 0.651021
vt 0.638387 0.654169
vt 0.636442 0.660158
vt 0.61851 0.651021
vt 0.636442 0.660158
vt 0.632741 0.665252
vt 0.61851 0.651021
vt 0.632741 0.665252
vt 0.627647 0.668953
vt 0.61851 0.651021
vt 0.627647 0.668953
vt 0.621658 0.670898
vt 0.61851 0.651021
vt 0.621658 0.670898
vt 0.615362 0.670898
vt 0.61851 0.651021
vt 0.615362 0.670898
vt 0.609373 0.668953
vt 0.61851 0.651021
vt 0.609373 0.668953
vt 0.60428 0.665252
vt 0.61851 0.651021
vt 0.60428 0.665252
vt 0.600579 0.660158
vt 0.61851 0.651021
vt 0.600579 0.660158
vt 0.598633 0.654169
vt 0.61851 0.651021
vt 0.598633 0.654169
vt 0.598633 0.647873
vt 0.61851 0.651021
vt 0.598633 0.647873
vt 0.600579 0.641885
vt 0.61851 0.651021
vt 0.600579 0.641885
vt 0.60428 0.636791
vt 0.61851 0.651021
vt 0.60428 0.636791
vt 0.609373 0.63309
vt 0.61851 0.651021
vt 0.609373 0.63309
vt 0.615362 0.631144
vt 0.61851 0.651021
vt 0.615362 0.631144
vt 0.621658 0.631144
vt 0.61851 0.651021
vt 0.621658 0.631144
vt 0.627647 0.63309
vt 0.61851 0.651021
vt 0.627647 0.63309
vt 0.632741 0.636791
vt 0.61851 0.651021
vt 0.632741 0.636791
vt 0.636442 0.641885
vt 0.61851 0.651021
vt 0.636442 0.641885
vt 0.638387 0.647873
vt 0.61851 0.651021
vt 0.638387 0.647873
vt 0.638387 0.654169
vt 0.647454 0.660158
vt 0.645508 0.654169
vt 0.665385 0.651021
vt 0.651155 0.665252
vt 0.647454 0.660158
vt 0.665385 0.651021
vt 0.656248 0.668953
vt 0.651155 0.665252
vt 0.665385 0.651021
vt 0.662237 0.670898
vt 0.656248 0.668953
vt 0.665385 0.651021
vt 0.668533 0.670898
vt 0.662237 0.670898
vt 0.665385 0.651021
vt 0.674522 0.668953
vt 0.668533 0.670898
vt 0.665385 0.651021
vt 0.679616 0.665252
vt 0.674522 0.668953
vt 0.665385 0.651021
vt 0.683317 0.660158
vt 0.679616 0.665252
vt 0.665385 0.651021
vt 0.685262 0.654169
vt 0.683317 0.660158
vt 0.665385 0.651021
vt 0.685262 0.647873
vt 0.685262 0.654169
vt 0.665385 0.651021
vt 0.683317 0.641885
vt 0.685262 0.647873
vt 0.665385 0.651021
vt 0.679616 0.636791
vt 0.683317 0.641885
vt 0.665385 0.651021
vt 0.674522 0.63309
vt 0.679616 0.636791
vt 0.665385 0.651021
vt 0.668533 0.631144
vt 0.674522 0.63309
vt 0.665385 0.651021
vt 0.662237 0.631144
vt 0.668533 0.631144
vt 0.665385 0.651021
vt 0.656248 0.63309
vt 0.662237 0.631144
vt 0.665385 0.651021
vt 0.651155 0.636791
vt 0.656248 0.63309
vt 0.665385 0.651021
vt 0.647454 0.641885
vt 0.651155 0.636791
vt 0.665385 0.651021
vt 0.645508 0.647873
vt 0.647454 0.641885
vt 0.665385 0.651021
vt 0.645508 0.654169
vt 0.645508 0.647873
vt 0.665385 0.651021
vn 0.987688 0 0.156434
vn 0.891007 0 0.45399
vn 0.707107 0 0.707107
vn 0.45399 0 0.891007
vn 0.156434 0 0.987688
vn -0.156434 0 0.987688
vn -0.45399 0 0.891007
vn -0.707107 0 0.707107
vn -0.891007 0 0.45399
vn -0.987688 0 0.156434
vn -0.987688 0 -0.156434
vn -0.891007 0 -0.45399
vn -0.707107 0 -0.707107
vn -0.45399 0 -0.891007
vn -0.156434 0 -0.987688
vn 0.156434 0 -0.987688
vn 0.45399 0 -0.891007
vn 0.707107 0 -0.707107
vn 0.891007 0 -0.45399
vn 0.987688 0 -0.156434
vn 0 -1 0
vn 0 1 0
f 21/1/1 22/2/2 2/3/2 1/4/1
f 22/5/2 23/6/3 3/7/3 2/8/2
f 23/9/3 24/10/4 4/11/4 3/12/3
f 24/13/4 25/14/5 5/15/5 4/16/4
f 25/17/5 26/18/6 6/19/6 5/20/5
f 26/21/6 27/22/7 7/23/7 6/24/6
f 27/25/7 28/26/8 8/27/8 7/28/7
f 28/29/8 29/30/9 9/31/9 8/32/8
f 29/33/9 30/34/10 10/35/10 9/36/9
f 30/37/10 31/38/11 11/39/11 10/40/10
f 31/41/11 32/42/12 12/43/12 11/44/11
f 32/45/12 33/46/13 13/47/13 12/48/12
f 33/49/13 34/50/14 14/51/14 13/52/13
f 34/53/14 35/54/15 15/55/15 14/56/14
f 35/57/15 36/58/16 16/59/16 15/60/15
f 36/61/16 37/62/17 17/63/17 16/64/16
f 37/65/17 38/66/18 18/67/18 17/68/17
f 38/69/18 39/70/19 19/71/19 18/72/18
f 39/73/19 40/74/20 20/75/20 19/76/19
f 40/77/20 21/78/1 1/79/1 20/80/20
f 41/81/21 1/82/21 2/83/21
f 41/84/21 2/85/21 3/86/21
f 41/87/21 3/88/21 4/89/21
f 41/90/21 4/91/21 5/92/21
f 41/93/21 5/94/21 6/95/21
f 41/96/21 6/97/21 7/98/21
f 41/99/21 7/100/21 8/101/21
f 41/102/21 8/103/21 9/104/21
f 41/105/21 9/106/21 10/107/21
f 41/108/21 10/109/21 11/110/21
f 41/111/21 11/112/21 12/113/21
f 41/114/21 12/115/21 13/116/21
f 41/117/21 13/118/21 14/119/21
f 41/120/21 14/121/21 15/122/21
f 41/123/21 15/124/21 16/125/21
f 41/126/21 16/127/21 17/128/21
f 41/129/21 17/130/21 18/131/21
f 41/132/21 18/133/21 19/134/21
f 41/135/21 19/136/21 20/137/21
f 41/138/21 20/139/21 1/140/21
f 22/141/22 21/142/22 42/143/22
f 23/144/22 22/145/22 42/146/22
f 24/147/22 23/148/22 42/149/22
f 25/150/22 24/151/22 42/152/22
f 26/153/22 25/154/22 42/155/22
f 27/156/22 26/157/22 42/158/22
f 28/159/22 27/160/22 42/161/22
f 29/162/22 28/163/22 42/164/22
f 30/165/22 29/166/22 42/167/22
f 31/168/22 30/169/22 42/170/22
f 32/171/22 31/172/22 42/173/22
f 33/174/22 32/175/22 42/176/22
f 34/177/22 33/178/22 42/179/22
f 35/180/22 34/181/22 42/182/22
f 36/183/22 35/184/22 42/185/22
f 37/186/22 36/187/22 42/188/22
f 38/189/22 37/190/22 42/191/22
f 39/192/22 38/193/22 42/194/22
f 40/195/22 39/196/22 42/197/22
f 21/198/22 40/199/22 42/200/22
o pc_body
usemtl head
v 0.541483 0.241 -0.03693
v 0.537422 0.241 -0.024432
v 0.529698 0.241 -0.013802
v 0.519068 0.241 -0.006078
v 0.50657 0.241 -0.002017
v 0.49343 0.241 -0.002017
v 0.480932 0.241 -0.006078
v 0.470302 0.241 -0.013802
v 0.462578 0.241 -0.024432
v 0.458517 0.241 -0.03693
v 0.458517 0.241 -0.05007
v 0.462578 0.241 -0.062568
v 0.470302 0.241 -0.073198
v 0.480932 0.241 -0.080922
v 0.49343 0.241 -0.084983
v 0.50657 0.241 -0.084983
v 0.519068 0.241 -0.080922
v 0.529698 0.241 -0.073198
v 0.537422 0.241 -0.062568
v 0.541483 0.241 -0.05007
v 0.541483 0.288 -0.03693
v 0.537422 0.288 -0.024432
v 0.529698 0.288 -0.013802
v 0.519068 0.288 -0.006078
v 0.50657 0.288 -0.002017
v 0.49343 0.288 -0.002017
v 0.480932 0.288 -0.006078
v 0.470302 0.288 -0.013802
v 0.462578 0.288 -0.024432
v 0.458517 0.288 -0.03693
v 0.458517 0.288 -0.05007
v 0.462578 0.288 -0.062568
v 0.470302 0.288 -0.073198
v 0.480932 0.288 -0.080922
v 0.49343 0.288 -0.084983
v 0.50657 0.288 -0.084983
v 0.519068 0.288 -0.080922
v 0.529698 0.288 -0.073198
v 0.537422 0.288 -0.062568
v 0.541483 0.288 -0.05007
v 0.535557 0.298 -0.037868
v 0.532076 0.298 -0.027156
v 0.525456 0.298 -0.018044
v 0.516344 0.298 -0.011424
v 0.505632 0.298 -0.007943
v 0.494368 0.298 -0.007943
v 0.483656 0.298 -0.011424
v 0.474544 0.298 -0.018044
v 0.467924 0.298 -0.027156
v 0.464443 0.298 -0.037868
v 0.464443 0.298 -0.049132
v 0.467924 0.298 -0.059844
v 0.474544 0.298 -0.068956
v 0.483656 0.298 -0.075576
v 0.494368 0.298 -0.079057
v 0.505632 0.298 -0.079057
v 0.516344 0.298 -0.075576
v 0.525456 0.298 -0.068956
v 0.532076 0.298 -0.059844
v 0.535557 0.298 -0.049132
v 0.521729 0.303 -0.040058
v 0.519602 0.303 -0.033512
v 0.515556 0.303 -0.027944
v 0.509988 0.303 -0.023898
v 0.503442 0.303 -0.021771
v 0.496558 0.303 -0.021771
v 0.490012 0.303 -0.023898
v 0.484444 0.303 -0.027944
v 0.480398 0.303 -0.033512
v 0.478271 0.303 -0.040058
v 0.478271 0.303 -0.046942
v 0.480398 0.303 -0.053488
v 0.484444 0.303 -0.059056
v 0.490012 0.303 -0.063102
v 0.496558 0.303 -0.065229
v 0.503442 0.303 -0.065229
v 0.509988 0.303 -0.063102
v 0.515556 0.303 -0.059056
v 0.519602 0.303 -0.053488
v 0.521729 0.303 -0.046942
v 0.5 0.304 -0.0435
v 0.5 0.304 -0.0435
v 0.5 0.304 -0.0435
v 0.5 0.304 -0.0435
v 0.5 0.304 -0.0435
v 0.5 0.304 -0.0435
v 0.5 0.304 -0.0435
v 0.5 0.304 -0.0435
v 0.5 0.304 -0.0435
v 0.5 0.304 -0.0435
v 0.5 0.304 -0.0435
v 0.5 0.304 -0.0435
v 0.5 0.304 -0.0435
v 0.5 0.304 -0.0435
v 0.5 0.304 -0.0435
v 0.5 0.304 -0.0435
v 0.5 0.304 -0.0435
v 0.5 0.304 -0.0435
v 0.5 0.304 -0.0435
v 0.5 0.304 -0.0435
v 0.5 0.241 -0.0435
vt 0.093805 0.366321
vt 0.093805 0.37207
vt 0.073242 0.37207
vt 0.073242 0.366321
vt 0.558648 0.366321
vt 0.558648 0.37207
vt 0.538086 0.37207
vt 0.538086 0.366321
vt 0.121148 0.366321
vt 0.121148 0.37207
vt 0.100586 0.37207
vt 0.100586 0.366321
vt 0.42193 0.366321
vt 0.42193 0.37207
vt 0.401367 0.37207
vt 0.401367 0.366321
vt 0.285211 0.366321
vt 0.285211 0.37207
vt 0.264648 0.37207
vt 0.264648 0.366321
vt 0.428711 0.37207
vt 0.428711 0.366321
vt 0.449273 0.366321
vt 0.449273 0.37207
vt 0.12793 0.37207
vt 0.12793 0.366321
vt 0.148492 0.366321
vt 0.148492 0.37207
vt 0.56543 0.37207
vt 0.56543 0.366321
vt 0.585992 0.366321
vt 0.585992 0.37207
vt 0.155273 0.37207
vt 0.155273 0.366321
vt 0.175836 0.366321
vt 0.175836 0.37207
vt 0.456055 0.37207
vt 0.456055 0.366321
vt 0.476617 0.366321
vt 0.476617 0.37207
vt 0.483398 0.37207
vt 0.483398 0.366321
vt 0.503961 0.366321
vt 0.503961 0.37207
vt 0.045898 0.37207
vt 0.045898 0.366321
vt 0.066461 0.366321
vt 0.066461 0.37207
vt 0.319336 0.37207
vt 0.319336 0.366321
vt 0.339898 0.366321
vt 0.339898 0.37207
vt 0.182617 0.37207
vt 0.182617 0.366321
vt 0.20318 0.366321
vt 0.20318 0.37207
vt 0.312555 0.366321
vt 0.312555 0.37207
vt 0.291992 0.37207
vt 0.291992 0.366321
vt 0.257867 0.366321
vt 0.257867 0.37207
vt 0.237305 0.37207
vt 0.237305 0.366321
vt 0.367242 0.366321
vt 0.367242 0.37207
vt 0.34668 0.37207
vt 0.34668 0.366321
vt 0.394586 0.366321
vt 0.394586 0.37207
vt 0.374023 0.37207
vt 0.374023 0.366321
vt 0.230523 0.366321
vt 0.230523 0.37207
vt 0.209961 0.37207
vt 0.209961 0.366321
vt 0.531305 0.366321
vt 0.531305 0.37207
vt 0.510742 0.37207
vt 0.510742 0.366321
vt 0.745117 0.380658
vt 0.749979 0.379853
vt 0.751215 0.384803
vt 0.745543 0.385742
vt 0.87207 0.394503
vt 0.876691 0.392791
vt 0.878843 0.397417
vt 0.873452 0.399414
vt 0.588867 0.424312
vt 0.592901 0.421482
vt 0.596158 0.425409
vt 0.591452 0.428711
vt 0.68765 0.421553
vt 0.691805 0.424202
vt 0.689418 0.428711
vt 0.68457 0.425621
vt 0.960372 0.366985
vt 0.965299 0.366985
vt 0.96571 0.37207
vt 0.959961 0.37207
vt 0.670898 0.424202
vt 0.675054 0.421553
vt 0.678133 0.425621
vt 0.673285 0.428711
vt 0.606573 0.428711
vt 0.602539 0.42588
vt 0.605124 0.421482
vt 0.60983 0.424784
vt 0.904035 0.399414
vt 0.899414 0.397702
vt 0.900795 0.392791
vt 0.906186 0.394788
vt 0.708963 0.385742
vt 0.704102 0.384937
vt 0.704528 0.379853
vt 0.710199 0.380792
vt 0.977018 0.37207
vt 0.97209 0.37207
vt 0.97168 0.366985
vt 0.977429 0.366985
vt 0.737543 0.384937
vt 0.732682 0.385742
vt 0.731445 0.380792
vt 0.737117 0.379853
vt 0.892515 0.397702
vt 0.887894 0.399414
vt 0.885742 0.394788
vt 0.891133 0.392791
vt 0.623502 0.42588
vt 0.619468 0.428711
vt 0.616211 0.424784
vt 0.620917 0.421482
vt 0.64771 0.428711
vt 0.643555 0.426063
vt 0.645942 0.421553
vt 0.65079 0.424643
vt 0.953581 0.37207
vt 0.948653 0.37207
vt 0.948242 0.366985
vt 0.953991 0.366985
vt 0.664462 0.426063
vt 0.660306 0.428711
vt 0.657227 0.424643
vt 0.662075 0.421553
vt 0.63314 0.421482
vt 0.637174 0.424312
vt 0.634589 0.428711
vt 0.629883 0.425409
vt 0.86055 0.392791
vt 0.865171 0.394503
vt 0.863789 0.399414
vt 0.858398 0.397417
vt 0.71901 0.379853
vt 0.723871 0.380658
vt 0.723445 0.385742
vt 0.717773 0.384803
vt 0.983809 0.366985
vt 0.988737 0.366985
vt 0.989147 0.37207
vt 0.983398 0.37207
vt 0.296629 0.510186
vt 0.299504 0.50929
vt 0.302329 0.515135
vt 0.297625 0.516602
vt 0.299504 0.50929
vt 0.301972 0.507586
vt 0.306369 0.512346
vt 0.302329 0.515135
vt 0.301972 0.507586
vt 0.303793 0.505239
vt 0.309348 0.508507
vt 0.306369 0.512346
vt 0.303793 0.505239
vt 0.304787 0.502481
vt 0.310975 0.503994
vt 0.309348 0.508507
vt 0.409793 0.48866
vt 0.412769 0.488528
vt 0.41405 0.494902
vt 0.40918 0.495117
vt 0.412769 0.488528
vt 0.4156 0.487512
vt 0.418682 0.493238
vt 0.41405 0.494902
vt 0.4156 0.487512
vt 0.418008 0.48571
vt 0.422622 0.490289
vt 0.418682 0.493238
vt 0.418008 0.48571
vt 0.419757 0.483298
vt 0.425484 0.486343
vt 0.422622 0.490289
vt 0.188402 0.427033
vt 0.185556 0.426151
vt 0.186506 0.419719
vt 0.191162 0.421163
vt 0.185556 0.426151
vt 0.182549 0.426151
vt 0.181584 0.419719
vt 0.186506 0.419719
vt 0.182549 0.426151
vt 0.179674 0.427033
vt 0.176879 0.421163
vt 0.181584 0.419719
vt 0.179674 0.427033
vt 0.177212 0.428711
vt 0.172852 0.423909
vt 0.176879 0.421163
vt 0.161281 0.428711
vt 0.158849 0.426992
vt 0.161741 0.42117
vt 0.165722 0.423983
vt 0.158849 0.426992
vt 0.155989 0.426061
vt 0.157062 0.419647
vt 0.161741 0.42117
vt 0.155989 0.426061
vt 0.152982 0.42601
vt 0.152141 0.419564
vt 0.157062 0.419647
vt 0.152982 0.42601
vt 0.150122 0.426844
vt 0.147461 0.420929
vt 0.152141 0.419564
vt 0.703919 0.421637
vt 0.70576 0.42402
vt 0.701255 0.428711
vt 0.698242 0.424811
vt 0.288412 0.507586
vt 0.290798 0.50929
vt 0.288083 0.515135
vt 0.28418 0.512346
vt 0.290798 0.50929
vt 0.293629 0.510186
vt 0.292716 0.516602
vt 0.288083 0.515135
vt 0.293629 0.510186
vt 0.296629 0.510186
vt 0.297625 0.516602
vt 0.292716 0.516602
vt 0.311274 0.320825
vt 0.302687 0.325195
vt 0.301758 0.322331
vt 0.773235 0.392606
vt 0.766417 0.399414
vt 0.764648 0.396977
vt 0.717773 0.392599
vt 0.726355 0.396979
vt 0.724584 0.399414
vt 0.571289 0.332539
vt 0.580805 0.33405
vt 0.579873 0.336914
vt 0.90332 0.269002
vt 0.912837 0.267496
vt 0.912837 0.270508
vt 0.602539 0.336914
vt 0.611123 0.332539
vt 0.612055 0.335402
vt 0.733398 0.399414
vt 0.740209 0.392599
vt 0.74198 0.395034
vt 0.780273 0.392606
vt 0.78886 0.396977
vt 0.787091 0.399414
vt 0.270508 0.320825
vt 0.280024 0.322331
vt 0.279095 0.325195
vt 0.856445 0.269002
vt 0.865962 0.267496
vt 0.865962 0.270508
vt 0.286133 0.325195
vt 0.29472 0.320825
vt 0.295649 0.323689
vt 0.795898 0.399414
vt 0.802716 0.392606
vt 0.804485 0.395043
vt 0.71073 0.399414
vt 0.702148 0.395034
vt 0.70392 0.392599
vt 0.56518 0.336914
vt 0.555664 0.335402
vt 0.556596 0.332539
vt 0.897212 0.269002
vt 0.887695 0.270508
vt 0.887695 0.267496
vt 0.59643 0.332539
vt 0.587846 0.336914
vt 0.586914 0.33405
vt 0.757605 0.392599
vt 0.750795 0.399414
vt 0.749023 0.396979
vt 0.82011 0.399414
vt 0.811523 0.395043
vt 0.813292 0.392606
vt 0.264399 0.325195
vt 0.254883 0.323689
vt 0.255812 0.320825
vt 0.881587 0.269002
vt 0.87207 0.270508
vt 0.87207 0.267496
vt 0.796469 0.65275
vt 0.799344 0.634601
vt 0.804811 0.636377
vt 0.796469 0.65275
vt 0.804811 0.636377
vt 0.809462 0.639757
vt 0.796469 0.65275
vt 0.809462 0.639757
vt 0.812841 0.644408
vt 0.796469 0.65275
vt 0.812841 0.644408
vt 0.814618 0.649875
vt 0.796469 0.65275
vt 0.814618 0.649875
vt 0.814618 0.655624
vt 0.796469 0.65275
vt 0.814618 0.655624
vt 0.812841 0.661092
vt 0.796469 0.65275
vt 0.812841 0.661092
vt 0.809462 0.665743
vt 0.796469 0.65275
vt 0.809462 0.665743
vt 0.804811 0.669122
vt 0.796469 0.65275
vt 0.804811 0.669122
vt 0.799344 0.670898
vt 0.796469 0.65275
vt 0.799344 0.670898
vt 0.793595 0.670898
vt 0.796469 0.65275
vt 0.793595 0.670898
vt 0.788127 0.669122
vt 0.796469 0.65275
vt 0.788127 0.669122
vt 0.783476 0.665743
vt 0.796469 0.65275
vt 0.783476 0.665743
vt 0.780097 0.661092
vt 0.796469 0.65275
vt 0.780097 0.661092
vt 0.77832 0.655624
vt 0.796469 0.65275
vt 0.77832 0.655624
vt 0.77832 0.649875
vt 0.796469 0.65275
vt 0.77832 0.649875
vt 0.780097 0.644408
vt 0.796469 0.65275
vt 0.780097 0.644408
vt 0.783476 0.639757
vt 0.796469 0.65275
vt 0.783476 0.639757
vt 0.788127 0.636377
vt 0.796469 0.65275
vt 0.788127 0.636377
vt 0.793595 0.634601
vt 0.796469 0.65275
vt 0.793595 0.634601
vt 0.799344 0.634601
vn 0.982885 0.098503 0.155674
vn 0.886673 0.098503 0.451783
vn 0.891007 0 0.45399
vn 0.987688 0 0.156434
vn 0.703668 0.098503 0.703668
vn 0.707107 0 0.707107
vn 0.451783 0.098503 0.886673
vn 0.45399 0 0.891007
vn 0.155674 0.098503 0.982885
vn 0.156434 0 0.987688
vn -0.155674 0.098503 0.982885
vn -0.156434 0 0.987688
vn -0.451783 0.098503 0.886673
vn -0.45399 0 0.891007
vn -0.703668 0.098503 0.703668
vn -0.707107 0 0.707107
vn -0.886673 0.098503 0.451783
vn -0.891007 0 0.45399
vn -0.982885 0.098503 0.155674
vn -0.987688 0 0.156434
vn -0.982885 0.098503 -0.155674
vn -0.987688 0 -0.156434
vn -0.886673 0.098503 -0.451783
vn -0.891007 0 -0.45399
vn -0.703668 0.098503 -0.703668
vn -0.707107 0 -0.707107
vn -0.451783 0.098503 -0.886673
vn -0.45399 0 -0.891007
vn -0.155674 0.098503 -0.982885
vn -0.156434 0 -0.987688
vn 0.155674 0.098503 -0.982885
vn 0.156434 0 -0.987688
vn 0.451783 0.098503 -0.886673
vn 0.45399 0 -0.891007
vn 0.703668 0.098503 -0.703668
vn 0.707107 0 -0.707107
vn 0.886673 0.098503 -0.451783
vn 0.891007 0 -0.45399
vn 0.982885 0.098503 -0.155674
vn 0.987688 0 -0.156434
vn 0.846936 0.514496 0.134141
vn 0.764032 0.514496 0.389294
vn 0.606339 0.514496 0.606339
vn 0.389294 0.514496 0.764032
vn 0.134141 0.514496 0.846936
vn -0.134141 0.514496 0.846936
vn -0.389294 0.514496 0.764032
vn -0.606339 0.514496 0.606339
vn -0.764032 0.514496 0.389294
vn -0.846936 0.514496 0.134141
vn -0.846936 0.514496 -0.134141
vn -0.764032 0.514496 -0.389294
vn -0.606339 0.514496 -0.606339
vn -0.389294 0.514496 -0.764032
vn -0.134141 0.514496 -0.846936
vn 0.134141 0.514496 -0.846936
vn 0.389294 0.514496 -0.764032
vn 0.606339 0.514496 -0.606339
vn 0.764032 0.514496 -0.389294
vn 0.846936 0.514496 -0.134141
vn 0.231172 0.972224 0.036614
vn 0.208543 0.972224 0.106258
vn 0.299678 0.941742 0.152694
vn 0.332196 0.941742 0.052615
vn 0.165501 0.972224 0.165501
vn 0.237826 0.941742 0.237826
vn 0.106258 0.972224 0.208543
vn 0.152694 0.941742 0.299678
vn 0.036614 0.972224 0.231172
vn 0.052615 0.941742 0.332196
vn -0.036614 0.972224 0.231172
vn -0.052615 0.941742 0.332196
vn -0.106258 0.972224 0.208543
vn -0.152694 0.941742 0.299678
vn -0.165501 0.972224 0.165501
vn -0.237826 0.941742 0.237826
vn -0.208543 0.972224 0.106258
vn -0.299678 0.941742 0.152694
vn -0.231172 0.972224 0.036614
vn -0.332196 0.941742 0.052615
vn -0.231172 0.972224 -0.036614
vn -0.332196 0.941742 -0.052615
vn -0.208543 0.972224 -0.106258
vn -0.299678 0.941742 -0.152694
vn -0.165501 0.972224 -0.165501
vn -0.237826 0.941742 -0.237826
vn -0.106258 0.972224 -0.208543
vn -0.152694 0.941742 -0.299678
vn -0.036614 0.972224 -0.231172
vn -0.052615 0.941742 -0.332196
vn 0.036614 0.972224 -0.231172
vn 0.052615 0.941742 -0.332196
vn 0.106258 0.972224 -0.208543
vn 0.152694 0.941742 -0.299678
vn 0.165501 0.972224 -0.165501
vn 0.237826 0.941742 -0.237826
vn 0.208543 0.972224 -0.106258
vn 0.299678 0.941742 -0.152694
vn 0.231172 0.972224 -0.036614
vn 0.332196 0.941742 -0.052615
vn 0.043722 0.998943 0.014206
vn 0.037193 0.998943 0.027022
vn 0.027022 0.998943 0.037193
vn 0.014206 0.998943 0.043722
vn 0 0.998943 0.045972
vn -0.014206 0.998943 0.043722
vn -0.027022 0.998943 0.037193
vn -0.037193 0.998943 0.027022
vn -0.043722 0.998943 0.014206
vn -0.045972 0.998943 0
vn -0.043722 0.998943 -0.014206
vn -0.037193 0.998943 -0.027022
vn -0.027022 0.998943 -0.037193
vn -0.014206 0.998943 -0.043722
vn 0 0.998943 -0.045972
vn 0.014206 0.998943 -0.043722
vn 0.027022 0.998943 -0.037193
vn 0.037193 0.998943 -0.027022
vn 0.043722 0.998943 -0.014206
vn 0.045972 0.998943 0
vn 0 -1 0
f 63/201/23 64/202/24 44/203/25 43/204/26
f 64/205/24 65/206/27 45/207/28 44/208/25
f 65/209/27 66/210/29 46/211/30 45/212/28
f 66/213/29 67/214/31 47/215/32 46/216/30
f 67/217/31 68/218/33 48/219/34 47/220/32
f 68/221/33 69/222/35 49/223/36 48/224/34
f 69/225/35 70/226/37 50/227/38 49/228/36
f 70/229/37 71/230/39 51/231/40 50/232/38
f 71/233/39 72/234/41 52/235/42 51/236/40
f 72/237/41 73/238/43 53/239/44 52/240/42
f 73/241/43 74/242/45 54/243/46 53/244/44
f 74/245/45 75/246/47 55/247/48 54/248/46
f 75/249/47 76/250/49 56/251/50 55/252/48
f 76/253/49 77/254/51 57/255/52 56/256/50
f 77/257/51 78/258/53 58/259/54 57/260/52
f 78/261/53 79/262/55 59/263/56 58/264/54
f 79/265/55 80/266/57 60/267/58 59/268/56
f 80/269/57 81/270/59 61/271/60 60/272/58
f 81/273/59 82/274/61 62/275/62 61/276/60
f 82/277/61 63/278/23 43/279/26 62/280/62
f 83/281/63 84/282/64 64/283/24 63/284/23
f 84/285/64 85/286/65 65/287/27 64/288/24
f 85/289/65 86/290/66 66/291/29 65/292/27
f 86/293/66 87/294/67 67/295/31 66/296/29
f 87/297/67 88/298/68 68/299/33 67/300/31
f 88/301/68 89/302/69 69/303/35 68/304/33
f 89/305/69 90/306/70 70/307/37 69/308/35
f 90/309/70 91/310/71 71/311/39 70/312/37
f 91/313/71 92/314/72 72/315/41 71/316/39
f 92/317/72 93/318/73 73/319/43 72/320/41
f 93/321/73 94/322/74 74/323/45 73/324/43
f 94/325/74 95/326/75 75/327/47 74/328/45
f 95/329/75 96/330/76 76/331/49 75/332/47
f 96/333/76 97/334/77 77/335/51 76/336/49
f 97/337/77 98/338/78 78/339/53 77/340/51
f 98/341/78 99/342/79 79/343/55 78/344/53
f 99/345/79 100/346/80 80/347/57 79/348/55
f 100/349/80 101/350/81 81/351/59 80/352/57
f 101/353/81 102/354/82 82/355/61 81/356/59
f 102/357/82 83/358/63 63/359/23 82/360/61
f 103/361/83 104/362/84 84/363/85 83/364/86
f 104/365/84 105/366/87 85/367/88 84/368/85
f 105/369/87 106/370/89 86/371/90 85/372/88
f 106/373/89 107/374/91 87/375/92 86/376/90
f 107/377/91 108/378/93 88/379/94 87/380/92
f 108/381/93 109/382/95 89/383/96 88/384/94
f 109/385/95 110/386/97 90/387/98 89/388/96
f 110/389/97 111/390/99 91/391/100 90/392/98
f 111/393/99 112/394/101 92/395/102 91/396/100
f 112/397/101 113/398/103 93/399/104 92/400/102
f 113/401/103 114/402/105 94/403/106 93/404/104
f 114/405/105 115/406/107 95/407/108 94/408/106
f 115/409/107 116/410/109 96/411/110 95/412/108
f 116/413/109 117/414/111 97/415/112 96/416/110
f 117/417/111 118/418/113 98/419/114 97/420/112
f 118/421/113 119/422/115 99/423/116 98/424/114
f 119/425/115 120/426/117 100/427/118 99/428/116
f 120/429/117 121/430/119 101/431/120 100/432/118
f 121/433/119 122/434/121 102/435/122 101/436/120
f 122/437/121 103/438/83 83/439/86 102/440/122
f 123/441/123 104/442/84 103/443/83
f 124/444/124 105/445/87 104/446/84
f 125/447/125 106/448/89 105/449/87
f 126/450/126 107/451/91 106/452/89
f 127/453/127 108/454/93 107/455/91
f 128/456/128 109/457/95 108/458/93
f 129/459/129 110/460/97 109/461/95
f 130/462/130 111/463/99 110/464/97
f 131/465/131 112/466/101 111/467/99
f 132/468/132 113/469/103 112/470/101
f 133/471/133 114/472/105 113/473/103
f 134/474/134 115/475/107 114/476/105
f 135/477/135 116/478/109 115/479/107
f 136/480/136 117/481/111 116/482/109
f 137/483/137 118/484/113 117/485/111
f 138/486/138 119/487/115 118/488/113
f 139/489/139 120/490/117 119/491/115
f 140/492/140 121/493/119 120/494/117
f 141/495/141 122/496/121 121/497/119
f 142/498/142 103/499/83 122/500/121
f 143/501/143 43/502/143 44/503/143
f 143/504/143 44/505/143 45/506/143
f 143/507/143 45/508/143 46/509/143
f 143/510/143 46/511/143 47/512/143
f 143/513/143 47/514/143 48/515/143
f 143/516/143 48/517/143 49/518/143
f 143/519/143 49/520/143 50/521/143
f 143/522/143 50/523/143 51/524/143
f 143/525/143 51/526/143 52/527/143
f 143/528/143 52/529/143 53/530/143
f 143/531/143 53/532/143 54/533/143
f 143/534/143 54/535/143 55/536/143
f 143/537/143 55/538/143 56/539/143
f 143/540/143 56/541/143 57/542/143
f 143/543/143 57/544/143 58/545/143
f 143/546/143 58/547/143 59/548/143
f 143/549/143 59/550/143 60/551/143
f 143/552/143 60/553/143 61/554/143
f 143/555/143 61/556/143 62/557/143
f 143/558/143 62/559/143 43/560/143
o pc_window
usemtl head
v 0.541088 0.266 -0.036992
v 0.537066 0.266 -0.024614
v 0.529416 0.266 -0.014084
v 0.518886 0.266 -0.006434
v 0.506508 0.266 -0.002412
v 0.493492 0.266 -0.002412
v 0.481114 0.266 -0.006434
v 0.470584 0.266 -0.014084
v 0.462934 0.266 -0.024614
v 0.458912 0.266 -0.036992
v 0.458912 0.266 -0.050008
v 0.462934 0.266 -0.062386
v 0.470584 0.266 -0.072916
v 0.481114 0.266 -0.080566
v 0.493492 0.266 -0.084588
v 0.506508 0.266 -0.084588
v 0.518886 0.266 -0.080566
v 0.529416 0.266 -0.072916
v 0.537066 0.266 -0.062386
v 0.541088 0.266 -0.050008
v 0.542076 0.266 -0.036836
v 0.537957 0.266 -0.02416
v 0.530123 0.266 -0.013377
v 0.51934 0.266 -0.005543
v 0.506664 0.266 -0.001424
v 0.493336 0.266 -0.001424
v 0.48066 0.266 -0.005543
v 0.469877 0.266 -0.013377
v 0.462043 0.266 -0.02416
v 0.457924 0.266 -0.036836
v 0.457924 0.266 -0.050164
v 0.462043 0.266 -0.06284
v 0.469877 0.266 -0.073623
v 0.48066 0.266 -0.081457
v 0.493336 0.266 -0.085576
v 0.506664 0.266 -0.085576
v 0.51934 0.266 -0.081457
v 0.530123 0.266 -0.073623
v 0.537957 0.266 -0.06284
v 0.542076 0.266 -0.050164
v 0.542076 0.28 -0.036836
v 0.537957 0.28 -0.02416
v 0.530123 0.28 -0.013377
v 0.51934 0.28 -0.005543
v 0.506664 0.28 -0.001424
v 0.493336 0.28 -0.001424
v 0.48066 0.28 -0.005543
v 0.469877 0.28 -0.013377
v 0.462043 0.28 -0.02416
v 0.457924 0.28 -0.036836
v 0.457924 0.28 -0.050164
v 0.462043 0.28 -0.06284
v 0.469877 0.28 -0.073623
v 0.48066 0.28 -0.081457
v 0.493336 0.28 -0.085576
v 0.506664 0.28 -0.085576
v 0.51934 0.28 -0.081457
v 0.530123 0.28 -0.073623
v 0.537957 0.28 -0.06284
v 0.542076 0.28 -0.050164
v 0.541088 0.28 -0.036992
v 0.537066 0.28 -0.024614
v 0.529416 0.28 -0.014084
v 0.518886 0.28 -0.006434
v 0.506508 0.28 -0.002412
v 0.493492 0.28 -0.002412
v 0.481114 0.28 -0.006434
v 0.470584 0.28 -0.014084
v 0.462934 0.28 -0.024614
v 0.458912 0.28 -0.036992
v 0.458912 0.28 -0.050008
v 0.462934 0.28 -0.062386
v 0.470584 0.28 -0.072916
v 0.481114 0.28 -0.080566
v 0.493492 0.28 -0.084588
v 0.506508 0.28 -0.084588
v 0.518886 0.28 -0.080566
v 0.529416 0.28 -0.072916
v 0.537066 0.28 -0.062386
v 0.541088 0.28 -0.050008
v 0.541088 0.266 -0.036992
v 0.537066 0.266 -0.024614
v 0.529416 0.266 -0.014084
v 0.518886 0.266 -0.006434
v 0.506508 0.266 -0.002412
v 0.493492 0.266 -0.002412
v 0.481114 0.266 -0.006434
v 0.470584 0.266 -0.014084
v 0.462934 0.266 -0.024614
v 0.458912 0.266 -0.036992
v 0.458912 0.266 -0.050008
v 0.462934 0.266 -0.062386
v 0.470584 0.266 -0.072916
v 0.481114 0.266 -0.080566
v 0.493492 0.266 -0.084588
v 0.506508 0.266 -0.084588
v 0.518886 0.266 -0.080566
v 0.529416 0.266 -0.072916
v 0.537066 0.266 -0.062386
v 0.541088 0.266 -0.050008
vt 0.713706 0.634082
vt 0.719252 0.635884
vt 0.719053 0.636274
vt 0.713638 0.634514
vt 0.719252 0.635884
vt 0.72397 0.639312
vt 0.72366 0.639621
vt 0.719053 0.636274
vt 0.72397 0.639312
vt 0.727397 0.644029
vt 0.727007 0.644228
vt 0.72366 0.639621
vt 0.727397 0.644029
vt 0.729199 0.649575
vt 0.728767 0.649643
vt 0.727007 0.644228
vt 0.729199 0.649575
vt 0.729199 0.655406
vt 0.728767 0.655338
vt 0.728767 0.649643
vt 0.729199 0.655406
vt 0.727397 0.660952
vt 0.727007 0.660753
vt 0.728767 0.655338
vt 0.727397 0.660952
vt 0.72397 0.665669
vt 0.72366 0.66536
vt 0.727007 0.660753
vt 0.72397 0.665669
vt 0.719252 0.669097
vt 0.719053 0.668707
vt 0.72366 0.66536
vt 0.719252 0.669097
vt 0.713706 0.670898
vt 0.713638 0.670466
vt 0.719053 0.668707
vt 0.713706 0.670898
vt 0.707875 0.670898
vt 0.707944 0.670466
vt 0.713638 0.670466
vt 0.707875 0.670898
vt 0.70233 0.669097
vt 0.702528 0.668707
vt 0.707944 0.670466
vt 0.70233 0.669097
vt 0.697612 0.665669
vt 0.697922 0.66536
vt 0.702528 0.668707
vt 0.697612 0.665669
vt 0.694185 0.660952
vt 0.694575 0.660753
vt 0.697922 0.66536
vt 0.694185 0.660952
vt 0.692383 0.655406
vt 0.692815 0.655338
vt 0.694575 0.660753
vt 0.692383 0.655406
vt 0.692383 0.649575
vt 0.692815 0.649643
vt 0.692815 0.655338
vt 0.692383 0.649575
vt 0.694185 0.644029
vt 0.694575 0.644228
vt 0.692815 0.649643
vt 0.694185 0.644029
vt 0.697612 0.639312
vt 0.697922 0.639621
vt 0.694575 0.644228
vt 0.697612 0.639312
vt 0.70233 0.635884
vt 0.702528 0.636274
vt 0.697922 0.639621
vt 0.70233 0.635884
vt 0.707875 0.634082
vt 0.707944 0.634514
vt 0.702528 0.636274
vt 0.707875 0.634082
vt 0.713706 0.634082
vt 0.713638 0.634514
vt 0.707944 0.634514
vt 0.819602 0.379911
vt 0.819602 0.385742
vt 0.813477 0.385742
vt 0.813477 0.379911
vt 0.833273 0.379911
vt 0.833273 0.385742
vt 0.827148 0.385742
vt 0.827148 0.379911
vt 0.846945 0.379911
vt 0.846945 0.385742
vt 0.84082 0.385742
vt 0.84082 0.379911
vt 0.983664 0.379911
vt 0.983664 0.385742
vt 0.977539 0.385742
vt 0.977539 0.379911
vt 0.95632 0.379911
vt 0.95632 0.385742
vt 0.950195 0.385742
vt 0.950195 0.379911
vt 0.854492 0.385742
vt 0.854492 0.379911
vt 0.860617 0.379911
vt 0.860617 0.385742
vt 0.868164 0.385742
vt 0.868164 0.379911
vt 0.874289 0.379911
vt 0.874289 0.385742
vt 0.881836 0.385742
vt 0.881836 0.379911
vt 0.887961 0.379911
vt 0.887961 0.385742
vt 0.032227 0.37207
vt 0.032227 0.366239
vt 0.038352 0.366239
vt 0.038352 0.37207
vt 0.895508 0.385742
vt 0.895508 0.379911
vt 0.901633 0.379911
vt 0.901633 0.385742
vt 0.90918 0.385742
vt 0.90918 0.379911
vt 0.915305 0.379911
vt 0.915305 0.385742
vt 0.018555 0.37207
vt 0.018555 0.366239
vt 0.02468 0.366239
vt 0.02468 0.37207
vt 0.758789 0.385742
vt 0.758789 0.379911
vt 0.764914 0.379911
vt 0.764914 0.385742
vt 0.004883 0.37207
vt 0.004883 0.366239
vt 0.011008 0.366239
vt 0.011008 0.37207
vt 0.969992 0.379911
vt 0.969992 0.385742
vt 0.963867 0.385742
vt 0.963867 0.379911
vt 0.928977 0.379911
vt 0.928977 0.385742
vt 0.922852 0.385742
vt 0.922852 0.379911
vt 0.792258 0.379911
vt 0.792258 0.385742
vt 0.786133 0.385742
vt 0.786133 0.379911
vt 0.80593 0.379911
vt 0.80593 0.385742
vt 0.799805 0.385742
vt 0.799805 0.379911
vt 0.778586 0.379911
vt 0.778586 0.385742
vt 0.772461 0.385742
vt 0.772461 0.379911
vt 0.942648 0.379911
vt 0.942648 0.385742
vt 0.936523 0.385742
vt 0.936523 0.379911
vt 0.756607 0.670466
vt 0.762022 0.668707
vt 0.762221 0.669097
vt 0.756675 0.670898
vt 0.762022 0.668707
vt 0.766629 0.66536
vt 0.766938 0.665669
vt 0.762221 0.669097
vt 0.766629 0.66536
vt 0.769976 0.660753
vt 0.770366 0.660952
vt 0.766938 0.665669
vt 0.769976 0.660753
vt 0.771736 0.655338
vt 0.772168 0.655406
vt 0.770366 0.660952
vt 0.771736 0.655338
vt 0.771736 0.649643
vt 0.772168 0.649575
vt 0.772168 0.655406
vt 0.771736 0.649643
vt 0.769976 0.644228
vt 0.770366 0.644029
vt 0.772168 0.649575
vt 0.769976 0.644228
vt 0.766629 0.639621
vt 0.766938 0.639312
vt 0.770366 0.644029
vt 0.766629 0.639621
vt 0.762022 0.636274
vt 0.762221 0.635884
vt 0.766938 0.639312
vt 0.762022 0.636274
vt 0.756607 0.634514
vt 0.756675 0.634082
vt 0.762221 0.635884
vt 0.756607 0.634514
vt 0.750912 0.634514
vt 0.750844 0.634082
vt 0.756675 0.634082
vt 0.750912 0.634514
vt 0.745497 0.636274
vt 0.745298 0.635884
vt 0.750844 0.634082
vt 0.745497 0.636274
vt 0.74089 0.639621
vt 0.740581 0.639312
vt 0.745298 0.635884
vt 0.74089 0.639621
vt 0.737543 0.644228
vt 0.737153 0.644029
vt 0.740581 0.639312
vt 0.737543 0.644228
vt 0.735784 0.649643
vt 0.735352 0.649575
vt 0.737153 0.644029
vt 0.735784 0.649643
vt 0.735784 0.655338
vt 0.735352 0.655406
vt 0.735352 0.649575
vt 0.735784 0.655338
vt 0.737543 0.660753
vt 0.737153 0.660952
vt 0.735352 0.655406
vt 0.737543 0.660753
vt 0.74089 0.66536
vt 0.740581 0.665669
vt 0.737153 0.660952
vt 0.74089 0.66536
vt 0.745497 0.668707
vt 0.745298 0.669097
vt 0.740581 0.665669
vt 0.745497 0.668707
vt 0.750912 0.670466
vt 0.750844 0.670898
vt 0.745298 0.669097
vt 0.750912 0.670466
vt 0.756607 0.670466
vt 0.756675 0.670898
vt 0.750844 0.670898
vt 0.817648 0.366376
vt 0.817648 0.37207
vt 0.811523 0.37207
vt 0.811523 0.366376
vt 0.626242 0.366376
vt 0.626242 0.37207
vt 0.620117 0.37207
vt 0.620117 0.366376
vt 0.639914 0.366376
vt 0.639914 0.37207
vt 0.633789 0.37207
vt 0.633789 0.366376
vt 0.653586 0.366376
vt 0.653586 0.37207
vt 0.647461 0.37207
vt 0.647461 0.366376
vt 0.770508 0.37207
vt 0.770508 0.366376
vt 0.776633 0.366376
vt 0.776633 0.37207
vt 0.661133 0.37207
vt 0.661133 0.366376
vt 0.667258 0.366376
vt 0.667258 0.37207
vt 0.674805 0.37207
vt 0.674805 0.366376
vt 0.68093 0.366376
vt 0.68093 0.37207
vt 0.592773 0.37207
vt 0.592773 0.366376
vt 0.598898 0.366376
vt 0.598898 0.37207
vt 0.825195 0.37207
vt 0.825195 0.366376
vt 0.83132 0.366376
vt 0.83132 0.37207
vt 0.688477 0.37207
vt 0.688477 0.366376
vt 0.694602 0.366376
vt 0.694602 0.37207
vt 0.702148 0.37207
vt 0.702148 0.366376
vt 0.708273 0.366376
vt 0.708273 0.37207
vt 0.606445 0.37207
vt 0.606445 0.366376
vt 0.61257 0.366376
vt 0.61257 0.37207
vt 0.797852 0.37207
vt 0.797852 0.366376
vt 0.803977 0.366376
vt 0.803977 0.37207
vt 0.756836 0.37207
vt 0.756836 0.366376
vt 0.762961 0.366376
vt 0.762961 0.37207
vt 0.78418 0.37207
vt 0.78418 0.366376
vt 0.790305 0.366376
vt 0.790305 0.37207
vt 0.721945 0.366376
vt 0.721945 0.37207
vt 0.71582 0.37207
vt 0.71582 0.366376
vt 0.844992 0.366376
vt 0.844992 0.37207
vt 0.838867 0.37207
vt 0.838867 0.366376
vt 0.735617 0.366376
vt 0.735617 0.37207
vt 0.729492 0.37207
vt 0.729492 0.366376
vt 0.858664 0.366376
vt 0.858664 0.37207
vt 0.852539 0.37207
vt 0.852539 0.366376
vt 0.749289 0.366376
vt 0.749289 0.37207
vt 0.743164 0.37207
vt 0.743164 0.366376
vn 0 -1 0
vn 0.987688 0 0.156434
vn 0.891007 0 0.45399
vn 0.707107 0 0.707107
vn 0.45399 0 0.891007
vn 0.156434 0 0.987688
vn -0.156434 0 0.987688
vn -0.45399 0 0.891007
vn -0.707107 0 0.707107
vn -0.891007 0 0.45399
vn -0.987688 0 0.156434
vn -0.987688 0 -0.156434
vn -0.891007 0 -0.45399
vn -0.707107 0 -0.707107
vn -0.45399 0 -0.891007
vn -0.156434 0 -0.987688
vn 0.156434 0 -0.987688
vn 0.45399 0 -0.891007
vn 0.707107 0 -0.707107
vn 0.891007 0 -0.45399
vn 0.987688 0 -0.156434
vn 0 1 0
f 164/561/144 165/562/144 145/563/144 144/564/144
f 165/565/144 166/566/144 146/567/144 145/568/144
f 166/569/144 167/570/144 147/571/144 146/572/144
f 167/573/144 168/574/144 148/575/144 147/576/144
f 168/577/144 169/578/144 149/579/144 148/580/144
f 169/581/144 170/582/144 150/583/144 149/584/144
f 170/585/144 171/586/144 151/587/144 150/588/144
f 171/589/144 172/590/144 152/591/144 151/592/144
f 172/593/144 173/594/144 153/595/144 152/596/144
f 173/597/144 174/598/144 154/599/144 153/600/144
f 174/601/144 175/602/144 155/603/144 154/604/144
f 175/605/144 176/606/144 156/607/144 155/608/144
f 176/609/144 177/610/144 157/611/144 156/612/144
f 177/613/144 178/614/144 158/615/144 157/616/144
f 178/617/144 179/618/144 159/619/144 158/620/144
f 179/621/144 180/622/144 160/623/144 159/624/144
f 180/625/144 181/626/144 161/627/144 160/628/144
f 181/629/144 182/630/144 162/631/144 161/632/144
f 182/633/144 183/634/144 163/635/144 162/636/144
f 183/637/144 164/638/144 144/639/144 163/640/144
f 184/641/145 185/642/146 165/643/146 164/644/145
f 185/645/146 186/646/147 166/647/147 165/648/146
f 186/649/147 187/650/148 167/651/148 166/652/147
f 187/653/148 188/654/149 168/655/149 167/656/148
f 188/657/149 189/658/150 169/659/150 168/660/149
f 189/661/150 190/662/151 170/663/151 169/664/150
f 190/665/151 191/666/152 171/667/152 170/668/151
f 191/669/152 192/670/153 172/671/153 171/672/152
f 192/673/153 193/674/154 173/675/154 172/676/153
f 193/677/154 194/678/155 174/679/155 173/680/154
f 194/681/155 195/682/156 175/683/156 174/684/155
f 195/685/156 196/686/157 176/687/157 175/688/156
f 196/689/157 197/690/158 177/691/158 176/692/157
f 197/693/158 198/694/159 178/695/159 177/696/158
f 198/697/159 199/698/160 179/699/160 178/700/159
f 199/701/160 200/702/161 180/703/161 179/704/160
f 200/705/161 201/706/162 181/707/162 180/708/161
f 201/709/162 202/710/163 182/711/163 181/712/162
f 202/713/163 203/714/164 183/715/164 182/716/163
f 203/717/164 184/718/145 164/719/145 183/720/164
f 204/721/165 205/722/165 185/723/165 184/724/165
f 205/725/165 206/726/165 186/727/165 185/728/165
f 206/729/165 207/730/165 187/731/165 186/732/165
f 207/733/165 208/734/165 188/735/165 187/736/165
f 208/737/165 209/738/165 189/739/165 188/740/165
f 209/741/165 210/742/165 190/743/165 189/744/165
f 210/745/165 211/746/165 191/747/165 190/748/165
f 211/749/165 212/750/165 192/751/165 191/752/165
f 212/753/165 213/754/165 193/755/165 192/756/165
f 213/757/165 214/758/165 194/759/165 193/760/165
f 214/761/165 215/762/165 195/763/165 194/764/165
f 215/765/165 216/766/165 196/767/165 195/768/165
f 216/769/165 217/770/165 197/771/165 196/772/165
f 217/773/165 218/774/165 198/775/165 197/776/165
f 218/777/165 219/778/165 199/779/165 198/780/165
f 219/781/165 220/782/165 200/783/165 199/784/165
f 220/785/165 221/786/165 201/787/165 200/788/165
f 221/789/165 222/790/165 202/791/165 201/792/165
f 222/793/165 223/794/165 203/795/165 202/796/165
f 223/797/165 204/798/165 184/799/165 203/800/165
f 224/801/155 225/802/156 205/803/156 204/804/155
f 225/805/156 226/806/157 206/807/157 205/808/156
f 226/809/157 227/810/158 207/811/158 206/812/157
f 227/813/158 228/814/159 208/815/159 207/816/158
f 228/817/159 229/818/160 209/819/160 208/820/159
f 229/821/160 230/822/161 210/823/161 209/824/160
f 230/825/161 231/826/162 211/827/162 210/828/161
f 231/829/162 232/830/163 212/831/163 211/832/162
f 232/833/163 233/834/164 213/835/164 212/836/163
f 233/837/164 234/838/145 214/839/145 213/840/164
f 234/841/145 235/842/146 215/843/146 214/844/145
f 235/845/146 236/846/147 216/847/147 215/848/146
f 236/849/147 237/850/148 217/851/148 216/852/147
f 237/853/148 238/854/149 218/855/149 217/856/148
f 238/857/149 239/858/150 219/859/150 218/860/149
f 239/861/150 240/862/151 220/863/151 219/864/150
f 240/865/151 241/866/152 221/867/152 220/868/151
f 241/869/152 242/870/153 222/871/153 221/872/152
f 242/873/153 243/874/154 223/875/154 222/876/153
f 243/877/154 224/878/155 204/879/155 223/880/154
