# AFL Site Lighting V1 pole top, generated by tools/build-site-lighting-v1.mjs
mtllib top.mtl
o shaft
usemtl head
v 0.5635 0 0.4485
v 0.561892 0 0.4425
v 0.5575 0 0.438108
v 0.5515 0 0.4365
v 0.4485 0 0.4365
v 0.4425 0 0.438108
v 0.438108 0 0.4425
v 0.4365 0 0.4485
v 0.4365 0 0.5515
v 0.438108 0 0.5575
v 0.4425 0 0.561892
v 0.4485 0 0.5635
v 0.5515 0 0.5635
v 0.5575 0 0.561892
v 0.561892 0 0.5575
v 0.5635 0 0.5515
v 0.5635 0.245 0.4485
v 0.561892 0.245 0.4425
v 0.5575 0.245 0.438108
v 0.5515 0.245 0.4365
v 0.4485 0.245 0.4365
v 0.4425 0.245 0.438108
v 0.438108 0.245 0.4425
v 0.4365 0.245 0.4485
v 0.4365 0.245 0.5515
v 0.438108 0.245 0.5575
v 0.4425 0.245 0.561892
v 0.4485 0.245 0.5635
v 0.5515 0.245 0.5635
v 0.5575 0.245 0.561892
v 0.561892 0.245 0.5575
v 0.5635 0.245 0.5515
v 0.5635 0 0.4485
v 0.561892 0 0.4425
v 0.5575 0 0.438108
v 0.5515 0 0.4365
v 0.4485 0 0.4365
v 0.4425 0 0.438108
v 0.438108 0 0.4425
v 0.4365 0 0.4485
v 0.4365 0 0.5515
v 0.438108 0 0.5575
v 0.4425 0 0.561892
v 0.4485 0 0.5635
v 0.5515 0 0.5635
v 0.5575 0 0.561892
v 0.561892 0 0.5575
v 0.5635 0 0.5515
v 0.5635 0.245 0.4485
v 0.561892 0.245 0.4425
v 0.5575 0.245 0.438108
v 0.5515 0.245 0.4365
v 0.4485 0.245 0.4365
v 0.4425 0.245 0.438108
v 0.438108 0.245 0.4425
v 0.4365 0.245 0.4485
v 0.4365 0.245 0.5515
v 0.438108 0.245 0.5575
v 0.4425 0.245 0.561892
v 0.4485 0.245 0.5635
v 0.5515 0.245 0.5635
v 0.5575 0.245 0.561892
v 0.561892 0.245 0.5575
v 0.5635 0.245 0.5515
vt 0.551758 0.22168
vt 0.551758 0.218962
vt 0.658945 0.218962
vt 0.658945 0.22168
vt 0.797852 0.211914
vt 0.797852 0.209196
vt 0.905039 0.209196
vt 0.905039 0.211914
vt 0.665039 0.22168
vt 0.665039 0.218962
vt 0.772227 0.218962
vt 0.772227 0.22168
vt 0.145508 0.670898
vt 0.145508 0.625836
vt 0.252695 0.625836
vt 0.252695 0.670898
vt 0.438477 0.22168
vt 0.438477 0.218962
vt 0.545664 0.218962
vt 0.545664 0.22168
vt 0.791758 0.209196
vt 0.791758 0.211914
vt 0.68457 0.211914
vt 0.68457 0.209196
vt 0.225352 0.209196
vt 0.225352 0.211914
vt 0.118164 0.211914
vt 0.118164 0.209196
vt 0.365977 0.625836
vt 0.365977 0.670898
vt 0.258789 0.670898
vt 0.258789 0.625836
vt 0.338633 0.209196
vt 0.338633 0.211914
vt 0.231445 0.211914
vt 0.231445 0.209196
vt 0.565195 0.209196
vt 0.565195 0.211914
vt 0.458008 0.211914
vt 0.458008 0.209196
vt 0.77832 0.22168
vt 0.77832 0.218962
vt 0.885508 0.218962
vt 0.885508 0.22168
vt 0.37207 0.670898
vt 0.37207 0.625836
vt 0.479258 0.625836
vt 0.479258 0.670898
vt 0.004883 0.211914
vt 0.004883 0.209196
vt 0.11207 0.209196
vt 0.11207 0.211914
vt 0.571289 0.211914
vt 0.571289 0.209196
vt 0.678477 0.209196
vt 0.678477 0.211914
vt 0.344727 0.211914
vt 0.344727 0.209196
vt 0.451914 0.209196
vt 0.451914 0.211914
vt 0.485352 0.670898
vt 0.485352 0.625836
vt 0.592539 0.625836
vt 0.592539 0.670898
vt 0.831727 0.76643
vt 0.834352 0.765727
vt 0.879414 0.765727
vt 0.829805 0.768352
vt 0.831727 0.76643
vt 0.879414 0.765727
vt 0.829102 0.770977
vt 0.829805 0.768352
vt 0.879414 0.765727
vt 0.829102 0.816039
vt 0.829102 0.770977
vt 0.879414 0.765727
vt 0.829805 0.818664
vt 0.829102 0.816039
vt 0.879414 0.765727
vt 0.831727 0.820586
vt 0.829805 0.818664
vt 0.879414 0.765727
vt 0.834352 0.821289
vt 0.831727 0.820586
vt 0.879414 0.765727
vt 0.879414 0.821289
vt 0.834352 0.821289
vt 0.879414 0.765727
vt 0.882039 0.820586
vt 0.879414 0.821289
vt 0.879414 0.765727
vt 0.883961 0.818664
vt 0.882039 0.820586
vt 0.879414 0.765727
vt 0.884664 0.816039
vt 0.883961 0.818664
vt 0.879414 0.765727
vt 0.884664 0.770977
vt 0.884664 0.816039
vt 0.879414 0.765727
vt 0.883961 0.768352
vt 0.884664 0.770977
vt 0.879414 0.765727
vt 0.879414 0.765727
vt 0.882039 0.76643
vt 0.883961 0.768352
vt 0.941914 0.821289
vt 0.896852 0.821289
vt 0.894227 0.820586
vt 0.941914 0.821289
vt 0.894227 0.820586
vt 0.892305 0.818664
vt 0.941914 0.821289
vt 0.892305 0.818664
vt 0.891602 0.816039
vt 0.941914 0.821289
vt 0.891602 0.816039
vt 0.891602 0.770977
vt 0.941914 0.821289
vt 0.891602 0.770977
vt 0.892305 0.768352
vt 0.941914 0.821289
vt 0.892305 0.768352
vt 0.894227 0.76643
vt 0.941914 0.821289
vt 0.894227 0.76643
vt 0.896852 0.765727
vt 0.941914 0.821289
vt 0.896852 0.765727
vt 0.941914 0.765727
vt 0.941914 0.821289
vt 0.941914 0.765727
vt 0.944539 0.76643
vt 0.941914 0.821289
vt 0.944539 0.76643
vt 0.946461 0.768352
vt 0.941914 0.821289
vt 0.946461 0.768352
vt 0.947164 0.770977
vt 0.941914 0.821289
vt 0.947164 0.770977
vt 0.947164 0.816039
vt 0.941914 0.821289
vt 0.947164 0.816039
vt 0.946461 0.818664
vt 0.946461 0.818664
vt 0.944539 0.820586
vt 0.941914 0.821289
vn 0.999891 0 -0.014748
vn 0.866025 0 -0.5
vn 0.5 0 -0.866025
vn 0.014748 0 -0.999891
vn -0.014748 0 -0.999891
vn -0.5 0 -0.866025
vn -0.866025 0 -0.5
vn -0.999891 0 -0.014748
vn -0.999891 0 0.014748
vn -0.866025 0 0.5
vn -0.5 0 0.866025
vn -0.014748 0 0.999891
vn 0.014748 0 0.999891
vn 0.5 0 0.866025
vn 0.866025 0 0.5
vn 0.999891 0 0.014748
vn 0 -1 0
vn 0 1 0
f 1/1/1 2/2/2 18/3/2 17/4/1
f 2/5/2 3/6/3 19/7/3 18/8/2
f 3/9/3 4/10/4 20/11/4 19/12/3
f 4/13/4 5/14/5 21/15/5 20/16/4
f 5/17/5 6/18/6 22/19/6 21/20/5
f 6/21/6 7/22/7 23/23/7 22/24/6
f 7/25/7 8/26/8 24/27/8 23/28/7
f 8/29/8 9/30/9 25/31/9 24/32/8
f 9/33/9 10/34/10 26/35/10 25/36/9
f 10/37/10 11/38/11 27/39/11 26/40/10
f 11/41/11 12/42/12 28/43/12 27/44/11
f 12/45/12 13/46/13 29/47/13 28/48/12
f 13/49/13 14/50/14 30/51/14 29/52/13
f 14/53/14 15/54/15 31/55/15 30/56/14
f 15/57/15 16/58/16 32/59/16 31/60/15
f 16/61/16 1/62/1 17/63/1 32/64/16
f 34/65/17 33/66/17 48/67/17
f 35/68/17 34/69/17 48/70/17
f 36/71/17 35/72/17 48/73/17
f 37/74/17 36/75/17 48/76/17
f 38/77/17 37/78/17 48/79/17
f 39/80/17 38/81/17 48/82/17
f 40/83/17 39/84/17 48/85/17
f 41/86/17 40/87/17 48/88/17
f 42/89/17 41/90/17 48/91/17
f 43/92/17 42/93/17 48/94/17
f 44/95/17 43/96/17 48/97/17
f 45/98/17 44/99/17 48/100/17
f 46/101/17 45/102/17 48/103/17
f 48/104/17 47/105/17 46/106/17
f 64/107/18 49/108/18 50/109/18
f 64/110/18 50/111/18 51/112/18
f 64/113/18 51/114/18 52/115/18
f 64/116/18 52/117/18 53/118/18
f 64/119/18 53/120/18 54/121/18
f 64/122/18 54/123/18 55/124/18
f 64/125/18 55/126/18 56/127/18
f 64/128/18 56/129/18 57/130/18
f 64/131/18 57/132/18 58/133/18
f 64/134/18 58/135/18 59/136/18
f 64/137/18 59/138/18 60/139/18
f 64/140/18 60/141/18 61/142/18
f 64/143/18 61/144/18 62/145/18
f 62/146/18 63/147/18 64/148/18
o cap
usemtl head
v 0.5695 0.245 0.445895
v 0.567399 0.245 0.438053
v 0.561947 0.245 0.432601
v 0.554105 0.245 0.4305
v 0.445895 0.245 0.4305
v 0.438053 0.245 0.432601
v 0.432601 0.245 0.438053
v 0.4305 0.245 0.445895
v 0.4305 0.245 0.554105
v 0.432601 0.245 0.561947
v 0.438053 0.245 0.567399
v 0.445895 0.245 0.5695
v 0.554105 0.245 0.5695
v 0.561947 0.245 0.567399
v 0.567399 0.245 0.561947
v 0.5695 0.245 0.554105
v 0.5725 0.248 0.4455
v 0.570088 0.248 0.4365
v 0.5635 0.248 0.429912
v 0.5545 0.248 0.4275
v 0.4455 0.248 0.4275
v 0.4365 0.248 0.429912
v 0.429912 0.248 0.4365
v 0.4275 0.248 0.4455
v 0.4275 0.248 0.5545
v 0.429912 0.248 0.5635
v 0.4365 0.248 0.570088
v 0.4455 0.248 0.5725
v 0.5545 0.248 0.5725
v 0.5635 0.248 0.570088
v 0.570088 0.248 0.5635
v 0.5725 0.248 0.5545
v 0.5725 0.252 0.4455
v 0.570088 0.252 0.4365
v 0.5635 0.252 0.429912
v 0.5545 0.252 0.4275
v 0.4455 0.252 0.4275
v 0.4365 0.252 0.429912
v 0.429912 0.252 0.4365
v 0.4275 0.252 0.4455
v 0.4275 0.252 0.5545
v 0.429912 0.252 0.5635
v 0.4365 0.252 0.570088
v 0.4455 0.252 0.5725
v 0.5545 0.252 0.5725
v 0.5635 0.252 0.570088
v 0.570088 0.252 0.5635
v 0.5725 0.252 0.5545
v 0.5695 0.255 0.445895
v 0.567399 0.255 0.438053
v 0.561947 0.255 0.432601
v 0.554105 0.255 0.4305
v 0.445895 0.255 0.4305
v 0.438053 0.255 0.432601
v 0.432601 0.255 0.438053
v 0.4305 0.255 0.445895
v 0.4305 0.255 0.554105
v 0.432601 0.255 0.561947
v 0.438053 0.255 0.567399
v 0.445895 0.255 0.5695
v 0.554105 0.255 0.5695
v 0.561947 0.255 0.567399
v 0.567399 0.255 0.561947
v 0.5695 0.255 0.554105
v 0.5695 0.245 0.445895
v 0.567399 0.245 0.438053
v 0.561947 0.245 0.432601
v 0.554105 0.245 0.4305
v 0.445895 0.245 0.4305
v 0.438053 0.245 0.432601
v 0.432601 0.245 0.438053
v 0.4305 0.245 0.445895
v 0.4305 0.245 0.554105
v 0.432601 0.245 0.561947
v 0.438053 0.245 0.567399
v 0.445895 0.245 0.5695
v 0.554105 0.245 0.5695
v 0.561947 0.245 0.567399
v 0.567399 0.245 0.561947
v 0.5695 0.245 0.554105
v 0.5695 0.255 0.445895
v 0.567399 0.255 0.438053
v 0.561947 0.255 0.432601
v 0.554105 0.255 0.4305
v 0.445895 0.255 0.4305
v 0.438053 0.255 0.432601
v 0.432601 0.255 0.438053
v 0.4305 0.255 0.445895
v 0.4305 0.255 0.554105
v 0.432601 0.255 0.561947
v 0.438053 0.255 0.567399
v 0.445895 0.255 0.5695
v 0.554105 0.255 0.5695
v 0.561947 0.255 0.567399
v 0.567399 0.255 0.561947
v 0.5695 0.255 0.554105
vt 0.229748 0.201493
vt 0.226273 0.202148
vt 0.225586 0.200389
vt 0.229575 0.199637
vt 0.532433 0.26856
vt 0.529679 0.270508
vt 0.52832 0.269195
vt 0.531649 0.266842
vt 0.76227 0.428711
vt 0.758867 0.427745
vt 0.759207 0.425912
vt 0.763112 0.427021
vt 0.758867 0.427745
vt 0.711917 0.423504
vt 0.711914 0.42164
vt 0.759207 0.425912
vt 0.837316 0.269249
vt 0.833994 0.270508
vt 0.833008 0.268897
vt 0.83682 0.267452
vt 0.553117 0.266842
vt 0.555871 0.268789
vt 0.555086 0.270508
vt 0.551758 0.268154
vt 0.109085 0.199637
vt 0.112561 0.200292
vt 0.112387 0.202148
vt 0.108398 0.201396
vt 0.112561 0.200292
vt 0.159702 0.200292
vt 0.159873 0.202148
vt 0.112387 0.202148
vt 0.061523 0.200293
vt 0.065013 0.199631
vt 0.065704 0.20139
vt 0.061699 0.202148
vt 0.563477 0.268789
vt 0.566231 0.266842
vt 0.567589 0.268154
vt 0.564261 0.270508
vt 0.77135 0.42164
vt 0.774753 0.422606
vt 0.774413 0.424439
vt 0.770508 0.423331
vt 0.774753 0.422606
vt 0.821703 0.426847
vt 0.821706 0.428711
vt 0.774413 0.424439
vt 0.844727 0.268711
vt 0.848048 0.267452
vt 0.849035 0.269063
vt 0.845223 0.270508
vt 0.542793 0.270508
vt 0.540039 0.26856
vt 0.540824 0.266842
vt 0.544152 0.269195
vt 0.10017 0.202148
vt 0.09668 0.201487
vt 0.096855 0.199631
vt 0.100861 0.20039
vt 0.27689 0.201493
vt 0.229748 0.201493
vt 0.229575 0.199637
vt 0.27706 0.199637
vt 0.008959 0.172852
vt 0.004883 0.172852
vt 0.004883 0.171102
vt 0.008959 0.171102
vt 0.09099 0.172852
vt 0.086914 0.172852
vt 0.086914 0.171102
vt 0.09099 0.171102
vt 0.016602 0.171102
vt 0.020678 0.171102
vt 0.020678 0.172852
vt 0.016602 0.172852
vt 0.821289 0.180867
vt 0.868977 0.180867
vt 0.868977 0.182617
vt 0.821289 0.182617
vt 0.985352 0.180867
vt 0.989428 0.180867
vt 0.989428 0.182617
vt 0.985352 0.182617
vt 0.075195 0.171102
vt 0.079272 0.171102
vt 0.079272 0.172852
vt 0.075195 0.172852
vt 0.098633 0.171102
vt 0.102709 0.171102
vt 0.102709 0.172852
vt 0.098633 0.172852
vt 0.875977 0.180867
vt 0.923664 0.180867
vt 0.923664 0.182617
vt 0.875977 0.182617
vt 0.110352 0.171102
vt 0.114428 0.171102
vt 0.114428 0.172852
vt 0.110352 0.172852
vt 0.051758 0.171102
vt 0.055834 0.171102
vt 0.055834 0.172852
vt 0.051758 0.172852
vt 0.02832 0.171102
vt 0.032397 0.171102
vt 0.032397 0.172852
vt 0.02832 0.172852
vt 0.930664 0.180867
vt 0.978352 0.180867
vt 0.978352 0.182617
vt 0.930664 0.182617
vt 0.040039 0.171102
vt 0.044115 0.171102
vt 0.044115 0.172852
vt 0.040039 0.172852
vt 0.067553 0.172852
vt 0.063477 0.172852
vt 0.063477 0.171102
vt 0.067553 0.171102
vt 0.126147 0.172852
vt 0.12207 0.172852
vt 0.12207 0.171102
vt 0.126147 0.171102
vt 0.814289 0.182617
vt 0.766602 0.182617
vt 0.766602 0.180867
vt 0.814289 0.180867
vt 0.288168 0.202148
vt 0.28418 0.201396
vt 0.284866 0.199637
vt 0.288342 0.200292
vt 0.578524 0.270508
vt 0.575195 0.268154
vt 0.576554 0.266842
vt 0.579308 0.268789
vt 0.829102 0.427021
vt 0.833007 0.425912
vt 0.833346 0.427745
vt 0.829944 0.428711
vt 0.833007 0.425912
vt 0.8803 0.42164
vt 0.880297 0.423504
vt 0.833346 0.427745
vt 0.821785 0.267452
vt 0.825597 0.268897
vt 0.824611 0.270508
vt 0.821289 0.269249
vt 0.586914 0.269195
vt 0.590242 0.266842
vt 0.591027 0.26856
vt 0.588273 0.270508
vt 0.166992 0.200389
vt 0.170981 0.199637
vt 0.171155 0.201493
vt 0.167679 0.202148
vt 0.170981 0.199637
vt 0.218467 0.199637
vt 0.218296 0.201493
vt 0.171155 0.201493
vt 0.073418 0.199631
vt 0.077423 0.20039
vt 0.076732 0.202148
vt 0.073242 0.201487
vt 0.611136 0.266842
vt 0.614464 0.269195
vt 0.613106 0.270508
vt 0.610352 0.26856
vt 0.938893 0.423331
vt 0.934988 0.424439
vt 0.934649 0.422606
vt 0.938051 0.42164
vt 0.934988 0.424439
vt 0.887695 0.428711
vt 0.887698 0.426847
vt 0.934649 0.422606
vt 0.813382 0.270508
vt 0.80957 0.269063
vt 0.810557 0.267452
vt 0.813878 0.268711
vt 0.602746 0.268154
vt 0.599417 0.270508
vt 0.598633 0.268789
vt 0.601387 0.266842
vt 0.089142 0.20139
vt 0.085137 0.202148
vt 0.084961 0.200293
vt 0.088451 0.199631
vt 0.335654 0.202148
vt 0.288168 0.202148
vt 0.288342 0.200292
vt 0.335484 0.200292
vt 0.430062 0.761396
vt 0.433493 0.760477
vt 0.480835 0.760477
vt 0.427677 0.763781
vt 0.430062 0.761396
vt 0.480835 0.760477
vt 0.426758 0.767212
vt 0.427677 0.763781
vt 0.480835 0.760477
vt 0.426758 0.814554
vt 0.426758 0.767212
vt 0.480835 0.760477
vt 0.427677 0.817985
vt 0.426758 0.814554
vt 0.480835 0.760477
vt 0.430062 0.82037
vt 0.427677 0.817985
vt 0.480835 0.760477
vt 0.433493 0.821289
vt 0.430062 0.82037
vt 0.480835 0.760477
vt 0.480835 0.821289
vt 0.433493 0.821289
vt 0.480835 0.760477
vt 0.484266 0.82037
vt 0.480835 0.821289
vt 0.480835 0.760477
vt 0.486651 0.817985
vt 0.484266 0.82037
vt 0.480835 0.760477
vt 0.48757 0.814554
vt 0.486651 0.817985
vt 0.480835 0.760477
vt 0.48757 0.767212
vt 0.48757 0.814554
vt 0.480835 0.760477
vt 0.486651 0.763781
vt 0.48757 0.767212
vt 0.480835 0.760477
vt 0.480835 0.760477
vt 0.484266 0.761396
vt 0.486651 0.763781
vt 0.549194 0.821289
vt 0.501852 0.821289
vt 0.498422 0.82037
vt 0.549194 0.821289
vt 0.498422 0.82037
vt 0.496036 0.817985
vt 0.549194 0.821289
vt 0.496036 0.817985
vt 0.495117 0.814554
vt 0.549194 0.821289
vt 0.495117 0.814554
vt 0.495117 0.767212
vt 0.549194 0.821289
vt 0.495117 0.767212
vt 0.496036 0.763781
vt 0.549194 0.821289
vt 0.496036 0.763781
vt 0.498422 0.761396
vt 0.549194 0.821289
vt 0.498422 0.761396
vt 0.501852 0.760477
vt 0.549194 0.821289
vt 0.501852 0.760477
vt 0.549194 0.760477
vt 0.549194 0.821289
vt 0.549194 0.760477
vt 0.552625 0.761396
vt 0.549194 0.821289
vt 0.552625 0.761396
vt 0.55501 0.763781
vt 0.549194 0.821289
vt 0.55501 0.763781
vt 0.55593 0.767212
vt 0.549194 0.821289
vt 0.55593 0.767212
vt 0.55593 0.814554
vt 0.549194 0.821289
vt 0.55593 0.814554
vt 0.55501 0.817985
vt 0.55501 0.817985
vt 0.552625 0.82037
vt 0.549194 0.821289
vn 0.706144 -0.707937 -0.013615
vn 0.602771 -0.719253 -0.34546
vn 0.34546 -0.719253 -0.602771
vn 0.013615 -0.707937 -0.706144
vn -0.013615 -0.707937 -0.706144
vn -0.34546 -0.719253 -0.602771
vn -0.602771 -0.719253 -0.34546
vn -0.706144 -0.707937 -0.013615
vn -0.706144 -0.707937 0.013615
vn -0.602771 -0.719253 0.34546
vn -0.34546 -0.719253 0.602771
vn -0.013615 -0.707937 0.706144
vn 0.013615 -0.707937 0.706144
vn 0.34546 -0.719253 0.602771
vn 0.602771 -0.719253 0.34546
vn 0.706144 -0.707937 0.013615
vn 0.999791 0 -0.020433
vn 0.866025 0 -0.5
vn 0.5 0 -0.866025
vn 0.020433 0 -0.999791
vn -0.020433 0 -0.999791
vn -0.5 0 -0.866025
vn -0.866025 0 -0.5
vn -0.999791 0 -0.020433
vn -0.999791 0 0.020433
vn -0.866025 0 0.5
vn -0.5 0 0.866025
vn -0.020433 0 0.999791
vn 0.020433 0 0.999791
vn 0.5 0 0.866025
vn 0.866025 0 0.5
vn 0.999791 0 0.020433
vn 0.706144 0.707937 -0.013615
vn 0.602771 0.719253 -0.34546
vn 0.34546 0.719253 -0.602771
vn 0.013615 0.707937 -0.706144
vn -0.013615 0.707937 -0.706144
vn -0.34546 0.719253 -0.602771
vn -0.602771 0.719253 -0.34546
vn -0.706144 0.707937 -0.013615
vn -0.706144 0.707937 0.013615
vn -0.602771 0.719253 0.34546
vn -0.34546 0.719253 0.602771
vn -0.013615 0.707937 0.706144
vn 0.013615 0.707937 0.706144
vn 0.34546 0.719253 0.602771
vn 0.602771 0.719253 0.34546
vn 0.706144 0.707937 0.013615
vn 0 -1 0
vn 0 1 0
f 65/149/19 66/150/20 82/151/20 81/152/19
f 66/153/20 67/154/21 83/155/21 82/156/20
f 67/157/21 68/158/22 84/159/22 83/160/21
f 68/161/22 69/162/23 85/163/23 84/164/22
f 69/165/23 70/166/24 86/167/24 85/168/23
f 70/169/24 71/170/25 87/171/25 86/172/24
f 71/173/25 72/174/26 88/175/26 87/176/25
f 72/177/26 73/178/27 89/179/27 88/180/26
f 73/181/27 74/182/28 90/183/28 89/184/27
f 74/185/28 75/186/29 91/187/29 90/188/28
f 75/189/29 76/190/30 92/191/30 91/192/29
f 76/193/30 77/194/31 93/195/31 92/196/30
f 77/197/31 78/198/32 94/199/32 93/200/31
f 78/201/32 79/202/33 95/203/33 94/204/32
f 79/205/33 80/206/34 96/207/34 95/208/33
f 80/209/34 65/210/19 81/211/19 96/212/34
f 81/213/35 82/214/36 98/215/36 97/216/35
f 82/217/36 83/218/37 99/219/37 98/220/36
f 83/221/37 84/222/38 100/223/38 99/224/37
f 84/225/38 85/226/39 101/227/39 100/228/38
f 85/229/39 86/230/40 102/231/40 101/232/39
f 86/233/40 87/234/41 103/235/41 102/236/40
f 87/237/41 88/238/42 104/239/42 103/240/41
f 88/241/42 89/242/43 105/243/43 104/244/42
f 89/245/43 90/246/44 106/247/44 105/248/43
f 90/249/44 91/250/45 107/251/45 106/252/44
f 91/253/45 92/254/46 108/255/46 107/256/45
f 92/257/46 93/258/47 109/259/47 108/260/46
f 93/261/47 94/262/48 110/263/48 109/264/47
f 94/265/48 95/266/49 111/267/49 110/268/48
f 95/269/49 96/270/50 112/271/50 111/272/49
f 96/273/50 81/274/35 97/275/35 112/276/50
f 97/277/51 98/278/52 114/279/52 113/280/51
f 98/281/52 99/282/53 115/283/53 114/284/52
f 99/285/53 100/286/54 116/287/54 115/288/53
f 100/289/54 101/290/55 117/291/55 116/292/54
f 101/293/55 102/294/56 118/295/56 117/296/55
f 102/297/56 103/298/57 119/299/57 118/300/56
f 103/301/57 104/302/58 120/303/58 119/304/57
f 104/305/58 105/306/59 121/307/59 120/308/58
f 105/309/59 106/310/60 122/311/60 121/312/59
f 106/313/60 107/314/61 123/315/61 122/316/60
f 107/317/61 108/318/62 124/319/62 123/320/61
f 108/321/62 109/322/63 125/323/63 124/324/62
f 109/325/63 110/326/64 126/327/64 125/328/63
f 110/329/64 111/330/65 127/331/65 126/332/64
f 111/333/65 112/334/66 128/335/66 127/336/65
f 112/337/66 97/338/51 113/339/51 128/340/66
f 130/341/67 129/342/67 144/343/67
f 131/344/67 130/345/67 144/346/67
f 132/347/67 131/348/67 144/349/67
f 133/350/67 132/351/67 144/352/67
f 134/353/67 133/354/67 144/355/67
f 135/356/67 134/357/67 144/358/67
f 136/359/67 135/360/67 144/361/67
f 137/362/67 136/363/67 144/364/67
f 138/365/67 137/366/67 144/367/67
f 139/368/67 138/369/67 144/370/67
f 140/371/67 139/372/67 144/373/67
f 141/374/67 140/375/67 144/376/67
f 142/377/67 141/378/67 144/379/67
f 144/380/67 143/381/67 142/382/67
f 160/383/68 145/384/68 146/385/68
f 160/386/68 146/387/68 147/388/68
f 160/389/68 147/390/68 148/391/68
f 160/392/68 148/393/68 149/394/68
f 160/395/68 149/396/68 150/397/68
f 160/398/68 150/399/68 151/400/68
f 160/401/68 151/402/68 152/403/68
f 160/404/68 152/405/68 153/406/68
f 160/407/68 153/408/68 154/409/68
f 160/410/68 154/411/68 155/412/68
f 160/413/68 155/414/68 156/415/68
f 160/416/68 156/417/68 157/418/68
f 160/419/68 157/420/68 158/421/68
f 158/422/68 159/423/68 160/424/68
o cap_boss
usemtl head
v 0.517387 0.254 0.504659
v 0.512728 0.254 0.512728
v 0.504659 0.254 0.517387
v 0.495341 0.254 0.517387
v 0.487272 0.254 0.512728
v 0.482613 0.254 0.504659
v 0.482613 0.254 0.495341
v 0.487272 0.254 0.487272
v 0.495341 0.254 0.482613
v 0.504659 0.254 0.482613
v 0.512728 0.254 0.487272
v 0.517387 0.254 0.495341
v 0.517387 0.259 0.504659
v 0.512728 0.259 0.512728
v 0.504659 0.259 0.517387
v 0.495341 0.259 0.517387
v 0.487272 0.259 0.512728
v 0.482613 0.259 0.504659
v 0.482613 0.259 0.495341
v 0.487272 0.259 0.487272
v 0.495341 0.259 0.482613
v 0.504659 0.259 0.482613
v 0.512728 0.259 0.487272
v 0.517387 0.259 0.495341
v 0.509659 0.263 0.502588
v 0.507071 0.263 0.507071
v 0.502588 0.263 0.509659
v 0.497412 0.263 0.509659
v 0.492929 0.263 0.507071
v 0.490341 0.263 0.502588
v 0.490341 0.263 0.497412
v 0.492929 0.263 0.492929
v 0.497412 0.263 0.490341
v 0.502588 0.263 0.490341
v 0.507071 0.263 0.492929
v 0.509659 0.263 0.497412
v 0.5 0.254 0.5
v 0.5 0.263 0.5
vt 0.545898 0.199961
vt 0.549975 0.199961
vt 0.549975 0.202148
vt 0.545898 0.202148
vt 0.592773 0.199961
vt 0.59685 0.199961
vt 0.59685 0.202148
vt 0.592773 0.202148
vt 0.561694 0.202148
vt 0.557617 0.202148
vt 0.557617 0.199961
vt 0.561694 0.199961
vt 0.573412 0.202148
vt 0.569336 0.202148
vt 0.569336 0.199961
vt 0.573412 0.199961
vt 0.514819 0.202148
vt 0.510742 0.202148
vt 0.510742 0.199961
vt 0.514819 0.199961
vt 0.608569 0.202148
vt 0.604492 0.202148
vt 0.604492 0.199961
vt 0.608569 0.199961
vt 0.585131 0.202148
vt 0.581055 0.202148
vt 0.581055 0.199961
vt 0.585131 0.199961
vt 0.620287 0.202148
vt 0.616211 0.202148
vt 0.616211 0.199961
vt 0.620287 0.199961
vt 0.526537 0.202148
vt 0.522461 0.202148
vt 0.522461 0.199961
vt 0.526537 0.199961
vt 0.53418 0.199961
vt 0.538256 0.199961
vt 0.538256 0.202148
vt 0.53418 0.202148
vt 0.62793 0.199961
vt 0.632006 0.199961
vt 0.632006 0.202148
vt 0.62793 0.202148
vt 0.499023 0.199961
vt 0.5031 0.199961
vt 0.5031 0.202148
vt 0.499023 0.202148
vt 0.843845 0.395623
vt 0.845852 0.394574
vt 0.848416 0.397527
vt 0.844803 0.399414
vt 0.845852 0.394574
vt 0.847117 0.392759
vt 0.850692 0.394259
vt 0.848416 0.397527
vt 0.921572 0.368221
vt 0.923818 0.368096
vt 0.924941 0.371844
vt 0.920898 0.37207
vt 0.923818 0.368096
vt 0.925763 0.366966
vt 0.928442 0.36981
vt 0.924941 0.371844
vt 0.010025 0.360352
vt 0.00802 0.359332
vt 0.008932 0.355527
vt 0.012541 0.357362
vt 0.00802 0.359332
vt 0.00577 0.359332
vt 0.004883 0.355527
vt 0.008932 0.355527
vt 0.834043 0.396497
vt 0.832063 0.397565
vt 0.829454 0.394648
vt 0.833018 0.392727
vt 0.832063 0.397565
vt 0.830782 0.399414
vt 0.827148 0.397977
vt 0.829454 0.394648
vt 0.94144 0.370815
vt 0.939194 0.37094
vt 0.938071 0.367192
vt 0.942114 0.366966
vt 0.939194 0.37094
vt 0.937249 0.37207
vt 0.93457 0.369226
vt 0.938071 0.367192
vt 0.289014 0.358336
vt 0.28798 0.360352
vt 0.28418 0.359421
vt 0.28604 0.355793
vt 0.841632 0.395623
vt 0.843845 0.395623
vt 0.844803 0.399414
vt 0.84082 0.399414
vt 0.690224 0.563682
vt 0.692262 0.556076
vt 0.695792 0.558114
vt 0.690224 0.563682
vt 0.695792 0.558114
vt 0.697831 0.561644
vt 0.690224 0.563682
vt 0.697831 0.561644
vt 0.697831 0.565721
vt 0.690224 0.563682
vt 0.697831 0.565721
vt 0.695792 0.569251
vt 0.690224 0.563682
vt 0.695792 0.569251
vt 0.692262 0.571289
vt 0.690224 0.563682
vt 0.692262 0.571289
vt 0.688186 0.571289
vt 0.690224 0.563682
vt 0.688186 0.571289
vt 0.684655 0.569251
vt 0.690224 0.563682
vt 0.684655 0.569251
vt 0.682617 0.565721
vt 0.690224 0.563682
vt 0.682617 0.565721
vt 0.682617 0.561644
vt 0.690224 0.563682
vt 0.682617 0.561644
vt 0.684655 0.558114
vt 0.690224 0.563682
vt 0.684655 0.558114
vt 0.688186 0.556076
vt 0.690224 0.563682
vt 0.688186 0.556076
vt 0.692262 0.556076
vt 0.205562 0.427579
vt 0.2036 0.428711
vt 0.202468 0.424485
vt 0.206694 0.425617
vt 0.205562 0.427579
vt 0.202468 0.424485
vt 0.206694 0.423353
vt 0.206694 0.425617
vt 0.202468 0.424485
vt 0.205562 0.421391
vt 0.206694 0.423353
vt 0.202468 0.424485
vt 0.2036 0.420259
vt 0.205562 0.421391
vt 0.202468 0.424485
vt 0.201336 0.420259
vt 0.2036 0.420259
vt 0.202468 0.424485
vt 0.199375 0.421391
vt 0.201336 0.420259
vt 0.202468 0.424485
vt 0.198242 0.423353
vt 0.199375 0.421391
vt 0.202468 0.424485
vt 0.198242 0.425617
vt 0.198242 0.423353
vt 0.202468 0.424485
vt 0.199375 0.427579
vt 0.198242 0.425617
vt 0.202468 0.424485
vt 0.201336 0.428711
vt 0.199375 0.427579
vt 0.202468 0.424485
vt 0.2036 0.428711
vt 0.201336 0.428711
vt 0.202468 0.424485
vn 0.965926 0 0.258819
vn 0.707107 0 0.707107
vn 0.258819 0 0.965926
vn -0.258819 0 0.965926
vn -0.707107 0 0.707107
vn -0.965926 0 0.258819
vn -0.965926 0 -0.258819
vn -0.707107 0 -0.707107
vn -0.258819 0 -0.965926
vn 0.258819 0 -0.965926
vn 0.707107 0 -0.707107
vn 0.965926 0 -0.258819
vn 0.315577 0.945125 0.084559
vn 0.231019 0.945125 0.231019
vn 0.316228 0.894427 0.316228
vn 0.431975 0.894427 0.115747
vn 0.084559 0.945125 0.315577
vn 0.115747 0.894427 0.431975
vn -0.084559 0.945125 0.315577
vn -0.115747 0.894427 0.431975
vn -0.231019 0.945125 0.231019
vn -0.316228 0.894427 0.316228
vn -0.315577 0.945125 0.084559
vn -0.431975 0.894427 0.115747
vn -0.315577 0.945125 -0.084559
vn -0.431975 0.894427 -0.115747
vn -0.231019 0.945125 -0.231019
vn -0.316228 0.894427 -0.316228
vn -0.084559 0.945125 -0.315577
vn -0.115747 0.894427 -0.431975
vn 0.084559 0.945125 -0.315577
vn 0.115747 0.894427 -0.431975
vn 0.231019 0.945125 -0.231019
vn 0.316228 0.894427 -0.316228
vn 0.315577 0.945125 -0.084559
vn 0.431975 0.894427 -0.115747
vn 0 -1 0
vn 0 1 0
f 173/425/69 174/426/70 162/427/70 161/428/69
f 174/429/70 175/430/71 163/431/71 162/432/70
f 175/433/71 176/434/72 164/435/72 163/436/71
f 176/437/72 177/438/73 165/439/73 164/440/72
f 177/441/73 178/442/74 166/443/74 165/444/73
f 178/445/74 179/446/75 167/447/75 166/448/74
f 179/449/75 180/450/76 168/451/76 167/452/75
f 180/453/76 181/454/77 169/455/77 168/456/76
f 181/457/77 182/458/78 170/459/78 169/460/77
f 182/461/78 183/462/79 171/463/79 170/464/78
f 183/465/79 184/466/80 172/467/80 171/468/79
f 184/469/80 173/470/69 161/471/69 172/472/80
f 185/473/81 186/474/82 174/475/83 173/476/84
f 186/477/82 187/478/85 175/479/86 174/480/83
f 187/481/85 188/482/87 176/483/88 175/484/86
f 188/485/87 189/486/89 177/487/90 176/488/88
f 189/489/89 190/490/91 178/491/92 177/492/90
f 190/493/91 191/494/93 179/495/94 178/496/92
f 191/497/93 192/498/95 180/499/96 179/500/94
f 192/501/95 193/502/97 181/503/98 180/504/96
f 193/505/97 194/506/99 182/507/100 181/508/98
f 194/509/99 195/510/101 183/511/102 182/512/100
f 195/513/101 196/514/103 184/515/104 183/516/102
f 196/517/103 185/518/81 173/519/84 184/520/104
f 197/521/105 161/522/105 162/523/105
f 197/524/105 162/525/105 163/526/105
f 197/527/105 163/528/105 164/529/105
f 197/530/105 164/531/105 165/532/105
f 197/533/105 165/534/105 166/535/105
f 197/536/105 166/537/105 167/538/105
f 197/539/105 167/540/105 168/541/105
f 197/542/105 168/543/105 169/544/105
f 197/545/105 169/546/105 170/547/105
f 197/548/105 170/549/105 171/550/105
f 197/551/105 171/552/105 172/553/105
f 197/554/105 172/555/105 161/556/105
f 186/557/82 185/558/81 198/559/106
f 187/560/85 186/561/82 198/562/106
f 188/563/87 187/564/85 198/565/106
f 189/566/89 188/567/87 198/568/106
f 190/569/91 189/570/89 198/571/106
f 191/572/93 190/573/91 198/574/106
f 192/575/95 191/576/93 198/577/106
f 193/578/97 192/579/95 198/580/106
f 194/581/99 193/582/97 198/583/106
f 195/584/101 194/585/99 198/586/106
f 196/587/103 195/588/101 198/589/106
f 185/590/81 196/591/103 198/592/106
