# AFL Heat-Resistant Intake Pump status lamp (amber: on, not pumping), generated by tools/build-intake-pump-v1.mjs
mtllib lamp_idle.mtl
o lamp_idle_lens
usemtl heat_resistant_intake_pump
v 0.94375 0.375505 0.82006
v 0.94375 0.369719 0.834028
v 0.94375 0.359028 0.844719
v 0.94375 0.34506 0.850505
v 0.94375 0.32994 0.850505
v 0.94375 0.315972 0.844719
v 0.94375 0.305281 0.834028
v 0.94375 0.299495 0.82006
v 0.94375 0.299495 0.80494
v 0.94375 0.305281 0.790972
v 0.94375 0.315972 0.780281
v 0.94375 0.32994 0.774495
v 0.94375 0.34506 0.774495
v 0.94375 0.359028 0.780281
v 0.94375 0.369719 0.790972
v 0.94375 0.375505 0.80494
v 0.95375 0.375505 0.82006
v 0.95375 0.369719 0.834028
v 0.95375 0.359028 0.844719
v 0.95375 0.34506 0.850505
v 0.95375 0.32994 0.850505
v 0.95375 0.315972 0.844719
v 0.95375 0.305281 0.834028
v 0.95375 0.299495 0.82006
v 0.95375 0.299495 0.80494
v 0.95375 0.305281 0.790972
v 0.95375 0.315972 0.780281
v 0.95375 0.32994 0.774495
v 0.95375 0.34506 0.774495
v 0.95375 0.359028 0.780281
v 0.95375 0.369719 0.790972
v 0.95375 0.375505 0.80494
v 0.96 0.36815 0.818597
v 0.96 0.363483 0.829862
v 0.96 0.354862 0.838483
v 0.96 0.343597 0.84315
v 0.96 0.331403 0.84315
v 0.96 0.320138 0.838483
v 0.96 0.311517 0.829862
v 0.96 0.30685 0.818597
v 0.96 0.30685 0.806403
v 0.96 0.311517 0.795138
v 0.96 0.320138 0.786517
v 0.96 0.331403 0.78185
v 0.96 0.343597 0.78185
v 0.96 0.354862 0.786517
v 0.96 0.363483 0.795138
v 0.96 0.36815 0.806403
v 0.96375 0.35589 0.816158
v 0.96375 0.35309 0.822917
v 0.96375 0.347917 0.82809
v 0.96375 0.341158 0.83089
v 0.96375 0.333842 0.83089
v 0.96375 0.327083 0.82809
v 0.96375 0.32191 0.822917
v 0.96375 0.31911 0.816158
v 0.96375 0.31911 0.808842
v 0.96375 0.32191 0.802083
v 0.96375 0.327083 0.79691
v 0.96375 0.333842 0.79411
v 0.96375 0.341158 0.79411
v 0.96375 0.347917 0.79691
v 0.96375 0.35309 0.802083
v 0.96375 0.35589 0.808842
v 0.965 0.3375 0.8125
v 0.965 0.3375 0.8125
v 0.965 0.3375 0.8125
v 0.965 0.3375 0.8125
v 0.965 0.3375 0.8125
v 0.965 0.3375 0.8125
v 0.965 0.3375 0.8125
v 0.965 0.3375 0.8125
v 0.965 0.3375 0.8125
v 0.965 0.3375 0.8125
v 0.965 0.3375 0.8125
v 0.965 0.3375 0.8125
v 0.965 0.3375 0.8125
v 0.965 0.3375 0.8125
v 0.965 0.3375 0.8125
v 0.965 0.3375 0.8125
v 0.94375 0.3375 0.8125
vt 0.043457 0.052363
vt 0.046233 0.052363
vt 0.046233 0.054199
vt 0.043457 0.054199
vt 0.049316 0.052363
vt 0.052092 0.052363
vt 0.052092 0.054199
vt 0.049316 0.054199
vt 0.055176 0.052363
vt 0.057952 0.052363
vt 0.057952 0.054199
vt 0.055176 0.054199
vt 0.063811 0.054199
vt 0.061035 0.054199
vt 0.061035 0.052363
vt 0.063811 0.052363
vt 0.956389 0.060059
vt 0.953613 0.060059
vt 0.953613 0.058223
vt 0.956389 0.058223
vt 0.962249 0.060059
vt 0.959473 0.060059
vt 0.959473 0.058223
vt 0.962249 0.058223
vt 0.06967 0.054199
vt 0.066895 0.054199
vt 0.066895 0.052363
vt 0.06967 0.052363
vt 0.07553 0.054199
vt 0.072754 0.054199
vt 0.072754 0.052363
vt 0.07553 0.052363
vt 0.081389 0.054199
vt 0.078613 0.054199
vt 0.078613 0.052363
vt 0.081389 0.052363
vt 0.932952 0.060059
vt 0.930176 0.060059
vt 0.930176 0.058223
vt 0.932952 0.058223
vt 0.087249 0.054199
vt 0.084473 0.054199
vt 0.084473 0.052363
vt 0.087249 0.052363
vt 0.090332 0.052363
vt 0.093108 0.052363
vt 0.093108 0.054199
vt 0.090332 0.054199
vt 0.178223 0.052363
vt 0.180999 0.052363
vt 0.180999 0.054199
vt 0.178223 0.054199
vt 0.096191 0.052363
vt 0.098967 0.052363
vt 0.098967 0.054199
vt 0.096191 0.054199
vt 0.195801 0.052363
vt 0.198577 0.052363
vt 0.198577 0.054199
vt 0.195801 0.054199
vt 0.102051 0.052363
vt 0.104827 0.052363
vt 0.104827 0.054199
vt 0.102051 0.054199
vt 0.559359 0.063473
vt 0.562006 0.064309
vt 0.561217 0.065918
vt 0.559082 0.065244
vt 0.573614 0.099122
vt 0.575822 0.100804
vt 0.574534 0.102051
vt 0.572754 0.100694
vt 0.859006 0.076311
vt 0.856567 0.077637
vt 0.855957 0.075951
vt 0.857924 0.074882
vt 0.233733 0.054199
vt 0.230957 0.054199
vt 0.231226 0.052427
vt 0.233464 0.052427
vt 0.865232 0.077637
vt 0.862793 0.076311
vt 0.863875 0.074882
vt 0.865842 0.075951
vt 0.548478 0.100368
vt 0.546271 0.102051
vt 0.54541 0.100478
vt 0.547191 0.099122
vt 0.52685 0.065082
vt 0.524203 0.065918
vt 0.523926 0.064147
vt 0.526061 0.063473
vt 0.251311 0.054199
vt 0.248535 0.054199
vt 0.248804 0.052427
vt 0.251042 0.052427
vt 0.544151 0.065918
vt 0.541504 0.065082
vt 0.542294 0.063473
vt 0.544428 0.064147
vt 0.52711 0.102051
vt 0.524902 0.100368
vt 0.52619 0.099122
vt 0.527971 0.100478
vt 0.903809 0.076208
vt 0.906247 0.074882
vt 0.906858 0.076568
vt 0.904891 0.077637
vt 0.213379 0.052427
vt 0.216155 0.052427
vt 0.215886 0.054199
vt 0.213648 0.054199
vt 0.870239 0.074882
vt 0.872678 0.076208
vt 0.871596 0.077637
vt 0.869629 0.076568
vt 0.57959 0.100804
vt 0.581798 0.099122
vt 0.582658 0.100694
vt 0.580878 0.102051
vt 0.506348 0.064309
vt 0.508995 0.063473
vt 0.509272 0.065244
vt 0.507137 0.065918
vt 0.266113 0.052427
vt 0.268889 0.052427
vt 0.26862 0.054199
vt 0.266382 0.054199
vt 0.137215 0.288714
vt 0.139286 0.289564
vt 0.13799 0.291542
vt 0.136747 0.291032
vt 0.139286 0.289564
vt 0.140876 0.291135
vt 0.138944 0.292484
vt 0.13799 0.291542
vt 0.140876 0.291135
vt 0.141745 0.293188
vt 0.139465 0.293716
vt 0.138944 0.292484
vt 0.141745 0.293188
vt 0.141758 0.29541
vt 0.139473 0.295049
vt 0.139465 0.293716
vt 0.764099 0.222586
vt 0.76322 0.224634
vt 0.761273 0.223277
vt 0.761801 0.222048
vt 0.76322 0.224634
vt 0.761624 0.226202
vt 0.760316 0.224218
vt 0.761273 0.223277
vt 0.761624 0.226202
vt 0.759553 0.227051
vt 0.759073 0.224727
vt 0.760316 0.224218
vt 0.759553 0.227051
vt 0.757324 0.227051
vt 0.757736 0.224727
vt 0.759073 0.224727
vt 0.728027 0.225888
vt 0.72888 0.223829
vt 0.730844 0.225161
vt 0.730332 0.226397
vt 0.72888 0.223829
vt 0.730456 0.222241
vt 0.73179 0.224208
vt 0.730844 0.225161
vt 0.730456 0.222241
vt 0.732516 0.221366
vt 0.733025 0.223684
vt 0.73179 0.224208
vt 0.732516 0.221366
vt 0.734745 0.221337
vt 0.734363 0.223667
vt 0.733025 0.223684
vt 0.645996 0.121377
vt 0.646865 0.119314
vt 0.648846 0.120635
vt 0.648325 0.121873
vt 0.131348 0.291135
vt 0.132919 0.289564
vt 0.13417 0.291542
vt 0.133227 0.292484
vt 0.132919 0.289564
vt 0.134979 0.288714
vt 0.135406 0.291032
vt 0.13417 0.291542
vt 0.134979 0.288714
vt 0.137215 0.288714
vt 0.136747 0.291032
vt 0.135406 0.291032
vt 0.524902 0.015137
vt 0.524902 0.015137
vt 0.525574 0.015137
vt 0.136747 0.291032
vt 0.13799 0.291542
vt 0.136086 0.294411
vt 0.465332 0.015137
vt 0.465332 0.015137
vt 0.467245 0.015137
vt 0.13799 0.291542
vt 0.138944 0.292484
vt 0.136086 0.294411
vt 0.427246 0.015137
vt 0.427246 0.015137
vt 0.430108 0.015137
vt 0.138944 0.292484
vt 0.139465 0.293716
vt 0.136086 0.294411
vt 0.325684 0.015137
vt 0.325684 0.015137
vt 0.32906 0.015137
vt 0.139465 0.293716
vt 0.139473 0.295049
vt 0.136086 0.294411
vt 0.33252 0.015137
vt 0.33252 0.015137
vt 0.335896 0.015137
vt 0.761801 0.222048
vt 0.761273 0.223277
vt 0.758426 0.221351
vt 0.39209 0.015137
vt 0.39209 0.015137
vt 0.394952 0.015137
vt 0.761273 0.223277
vt 0.760316 0.224218
vt 0.758426 0.221351
vt 0.470215 0.015137
vt 0.470215 0.015137
vt 0.472127 0.015137
vt 0.760316 0.224218
vt 0.759073 0.224727
vt 0.758426 0.221351
vt 0.528809 0.015137
vt 0.528809 0.015137
vt 0.52948 0.015137
vt 0.759073 0.224727
vt 0.757736 0.224727
vt 0.758426 0.221351
vt 0.533386 0.015137
vt 0.533386 0.015137
vt 0.532715 0.015137
vt 0.730332 0.226397
vt 0.730844 0.225161
vt 0.733715 0.227051
vt 0.501424 0.015137
vt 0.501424 0.015137
vt 0.499512 0.015137
vt 0.730844 0.225161
vt 0.73179 0.224208
vt 0.733715 0.227051
vt 0.435968 0.015137
vt 0.435968 0.015137
vt 0.433105 0.015137
vt 0.73179 0.224208
vt 0.733025 0.223684
vt 0.733715 0.227051
vt 0.342732 0.015137
vt 0.342732 0.015137
vt 0.339355 0.015137
vt 0.733025 0.223684
vt 0.734363 0.223667
vt 0.733715 0.227051
vt 0.349568 0.015137
vt 0.349568 0.015137
vt 0.346191 0.015137
vt 0.648325 0.121873
vt 0.648846 0.120635
vt 0.651684 0.122559
vt 0.400811 0.015137
vt 0.400811 0.015137
vt 0.397949 0.015137
vt 0.133227 0.292484
vt 0.13417 0.291542
vt 0.136086 0.294411
vt 0.47701 0.015137
vt 0.47701 0.015137
vt 0.475098 0.015137
vt 0.13417 0.291542
vt 0.135406 0.291032
vt 0.136086 0.294411
vt 0.537293 0.015137
vt 0.537293 0.015137
vt 0.536621 0.015137
vt 0.135406 0.291032
vt 0.136747 0.291032
vt 0.136086 0.294411
vt 0.109075 0.441809
vt 0.10651 0.442871
vt 0.105122 0.435894
vt 0.111037 0.439846
vt 0.109075 0.441809
vt 0.105122 0.435894
vt 0.1121 0.437281
vt 0.111037 0.439846
vt 0.105122 0.435894
vt 0.1121 0.434506
vt 0.1121 0.437281
vt 0.105122 0.435894
vt 0.111037 0.431941
vt 0.1121 0.434506
vt 0.105122 0.435894
vt 0.109075 0.429978
vt 0.111037 0.431941
vt 0.105122 0.435894
vt 0.10651 0.428916
vt 0.109075 0.429978
vt 0.105122 0.435894
vt 0.103734 0.428916
vt 0.10651 0.428916
vt 0.105122 0.435894
vt 0.10117 0.429978
vt 0.103734 0.428916
vt 0.105122 0.435894
vt 0.099207 0.431941
vt 0.10117 0.429978
vt 0.105122 0.435894
vt 0.098145 0.434506
vt 0.099207 0.431941
vt 0.105122 0.435894
vt 0.098145 0.437281
vt 0.098145 0.434506
vt 0.105122 0.435894
vt 0.099207 0.439846
vt 0.098145 0.437281
vt 0.105122 0.435894
vt 0.10117 0.441809
vt 0.099207 0.439846
vt 0.105122 0.435894
vt 0.103734 0.442871
vt 0.10117 0.441809
vt 0.105122 0.435894
vt 0.10651 0.442871
vt 0.103734 0.442871
vt 0.105122 0.435894
vn 0 0.980785 0.19509
vn 0 0.83147 0.55557
vn 0 0.55557 0.83147
vn 0 0.19509 0.980785
vn 0 -0.19509 0.980785
vn 0 -0.55557 0.83147
vn 0 -0.83147 0.55557
vn 0 -0.980785 0.19509
vn 0 -0.980785 -0.19509
vn 0 -0.83147 -0.55557
vn 0 -0.55557 -0.83147
vn 0 -0.19509 -0.980785
vn 0 0.19509 -0.980785
vn 0 0.55557 -0.83147
vn 0 0.83147 -0.55557
vn 0 0.980785 -0.19509
vn 0.768221 0.627883 0.124894
vn 0.768221 0.532294 0.355667
vn 0.878625 0.397038 0.265292
vn 0.878625 0.468338 0.093158
vn 0.768221 0.355667 0.532294
vn 0.878625 0.265292 0.397038
vn 0.768221 0.124894 0.627883
vn 0.878625 0.093158 0.468338
vn 0.768221 -0.124894 0.627883
vn 0.878625 -0.093158 0.468338
vn 0.768221 -0.355667 0.532294
vn 0.878625 -0.265292 0.397038
vn 0.768221 -0.532294 0.355667
vn 0.878625 -0.397038 0.265292
vn 0.768221 -0.627883 0.124894
vn 0.878625 -0.468338 0.093158
vn 0.768221 -0.627883 -0.124894
vn 0.878625 -0.468338 -0.093158
vn 0.768221 -0.532294 -0.355667
vn 0.878625 -0.397038 -0.265292
vn 0.768221 -0.355667 -0.532294
vn 0.878625 -0.265292 -0.397038
vn 0.768221 -0.124894 -0.627883
vn 0.878625 -0.093158 -0.468338
vn 0.768221 0.124894 -0.627883
vn 0.878625 0.093158 -0.468338
vn 0.768221 0.355667 -0.532294
vn 0.878625 0.265292 -0.397038
vn 0.768221 0.532294 -0.355667
vn 0.878625 0.397038 -0.265292
vn 0.768221 0.627883 -0.124894
vn 0.878625 0.468338 -0.093158
vn 0.977458 0.175549 0.117298
vn 0.977458 0.207074 0.04119
vn 0.977458 0.117298 0.175549
vn 0.977458 0.04119 0.207074
vn 0.977458 -0.04119 0.207074
vn 0.977458 -0.117298 0.175549
vn 0.977458 -0.175549 0.117298
vn 0.977458 -0.207074 0.04119
vn 0.977458 -0.207074 -0.04119
vn 0.977458 -0.175549 -0.117298
vn 0.977458 -0.117298 -0.175549
vn 0.977458 -0.04119 -0.207074
vn 0.977458 0.04119 -0.207074
vn 0.977458 0.117298 -0.175549
vn 0.977458 0.175549 -0.117298
vn 0.977458 0.207074 -0.04119
vn 0 0 0
vn 0.997698 0.062654 0.025952
vn 0.997698 0.047953 0.047953
vn 0.997698 0.025952 0.062654
vn 0.997698 0 0.067816
vn 0.997698 -0.025952 0.062654
vn 0.997698 -0.047953 0.047953
vn 0.997698 -0.062654 0.025952
vn 0.997698 -0.067816 0
vn 0.997698 -0.062654 -0.025952
vn 0.997698 -0.047953 -0.047953
vn 0.997698 -0.025952 -0.062654
vn 0.997698 0 -0.067816
vn 0.997698 0.025952 -0.062654
vn 0.997698 0.047953 -0.047953
vn 0.997698 0.062654 -0.025952
vn 0.997698 0.067816 0
vn -1 0 0
f 1/1/1 2/2/2 18/3/2 17/4/1
f 2/5/2 3/6/3 19/7/3 18/8/2
f 3/9/3 4/10/4 20/11/4 19/12/3
f 4/13/4 5/14/5 21/15/5 20/16/4
f 5/17/5 6/18/6 22/19/6 21/20/5
f 6/21/6 7/22/7 23/23/7 22/24/6
f 7/25/7 8/26/8 24/27/8 23/28/7
f 8/29/8 9/30/9 25/31/9 24/32/8
f 9/33/9 10/34/10 26/35/10 25/36/9
f 10/37/10 11/38/11 27/39/11 26/40/10
f 11/41/11 12/42/12 28/43/12 27/44/11
f 12/45/12 13/46/13 29/47/13 28/48/12
f 13/49/13 14/50/14 30/51/14 29/52/13
f 14/53/14 15/54/15 31/55/15 30/56/14
f 15/57/15 16/58/16 32/59/16 31/60/15
f 16/61/16 1/62/1 17/63/1 32/64/16
f 17/65/17 18/66/18 34/67/19 33/68/20
f 18/69/18 19/70/21 35/71/22 34/72/19
f 19/73/21 20/74/23 36/75/24 35/76/22
f 20/77/23 21/78/25 37/79/26 36/80/24
f 21/81/25 22/82/27 38/83/28 37/84/26
f 22/85/27 23/86/29 39/87/30 38/88/28
f 23/89/29 24/90/31 40/91/32 39/92/30
f 24/93/31 25/94/33 41/95/34 40/96/32
f 25/97/33 26/98/35 42/99/36 41/100/34
f 26/101/35 27/102/37 43/103/38 42/104/36
f 27/105/37 28/106/39 44/107/40 43/108/38
f 28/109/39 29/110/41 45/111/42 44/112/40
f 29/113/41 30/114/43 46/115/44 45/116/42
f 30/117/43 31/118/45 47/119/46 46/120/44
f 31/121/45 32/122/47 48/123/48 47/124/46
f 32/125/47 17/126/17 33/127/20 48/128/48
f 33/129/20 34/130/19 50/131/49 49/132/50
f 34/133/19 35/134/22 51/135/51 50/136/49
f 35/137/22 36/138/24 52/139/52 51/140/51
f 36/141/24 37/142/26 53/143/53 52/144/52
f 37/145/26 38/146/28 54/147/54 53/148/53
f 38/149/28 39/150/30 55/151/55 54/152/54
f 39/153/30 40/154/32 56/155/56 55/156/55
f 40/157/32 41/158/34 57/159/57 56/160/56
f 41/161/34 42/162/36 58/163/58 57/164/57
f 42/165/36 43/166/38 59/167/59 58/168/58
f 43/169/38 44/170/40 60/171/60 59/172/59
f 44/173/40 45/174/42 61/175/61 60/176/60
f 45/177/42 46/178/44 62/179/62 61/180/61
f 46/181/44 47/182/46 63/183/63 62/184/62
f 47/185/46 48/186/48 64/187/64 63/188/63
f 48/189/48 33/190/20 49/191/50 64/192/64
f 66/193/65 65/194/65 49/195/65
f 49/196/50 50/197/49 66/198/66
f 67/199/65 66/200/65 50/201/65
f 50/202/49 51/203/51 67/204/67
f 68/205/65 67/206/65 51/207/65
f 51/208/51 52/209/52 68/210/68
f 69/211/65 68/212/65 52/213/65
f 52/214/52 53/215/53 69/216/69
f 70/217/65 69/218/65 53/219/65
f 53/220/53 54/221/54 70/222/70
f 71/223/65 70/224/65 54/225/65
f 54/226/54 55/227/55 71/228/71
f 72/229/65 71/230/65 55/231/65
f 55/232/55 56/233/56 72/234/72
f 73/235/65 72/236/65 56/237/65
f 56/238/56 57/239/57 73/240/73
f 74/241/65 73/242/65 57/243/65
f 57/244/57 58/245/58 74/246/74
f 75/247/65 74/248/65 58/249/65
f 58/250/58 59/251/59 75/252/75
f 76/253/65 75/254/65 59/255/65
f 59/256/59 60/257/60 76/258/76
f 77/259/65 76/260/65 60/261/65
f 60/262/60 61/263/61 77/264/77
f 78/265/65 77/266/65 61/267/65
f 61/268/61 62/269/62 78/270/78
f 79/271/65 78/272/65 62/273/65
f 62/274/62 63/275/63 79/276/79
f 80/277/65 79/278/65 63/279/65
f 63/280/63 64/281/64 80/282/80
f 65/283/65 80/284/65 64/285/65
f 64/286/64 49/287/50 65/288/81
f 2/289/82 1/290/82 81/291/82
f 3/292/82 2/293/82 81/294/82
f 4/295/82 3/296/82 81/297/82
f 5/298/82 4/299/82 81/300/82
f 6/301/82 5/302/82 81/303/82
f 7/304/82 6/305/82 81/306/82
f 8/307/82 7/308/82 81/309/82
f 9/310/82 8/311/82 81/312/82
f 10/313/82 9/314/82 81/315/82
f 11/316/82 10/317/82 81/318/82
f 12/319/82 11/320/82 81/321/82
f 13/322/82 12/323/82 81/324/82
f 14/325/82 13/326/82 81/327/82
f 15/328/82 14/329/82 81/330/82
f 16/331/82 15/332/82 81/333/82
f 1/334/82 16/335/82 81/336/82
