# AFL Heat-Resistant Intake Pump isolator handle (off), generated by tools/build-intake-pump-v1.mjs
mtllib switch_off.mtl
o switch_off_handle
usemtl heat_resistant_intake_pump
v 0.96875 0.52125 0.740625
v 0.96875 0.52125 0.884375
v 0.96875 0.55375 0.884375
v 0.96875 0.55375 0.740625
v 0.975 0.515 0.734375
v 0.975 0.515 0.890625
v 0.975 0.56 0.890625
v 0.975 0.56 0.734375
v 0.99 0.515 0.734375
v 0.99 0.515 0.890625
v 0.99 0.56 0.890625
v 0.99 0.56 0.734375
v 0.99625 0.52125 0.740625
v 0.99625 0.52125 0.884375
v 0.99625 0.55375 0.884375
v 0.99625 0.55375 0.740625
v 0.96875 0.52125 0.740625
v 0.96875 0.52125 0.884375
v 0.96875 0.55375 0.884375
v 0.96875 0.55375 0.740625
v 0.99625 0.52125 0.740625
v 0.99625 0.52125 0.884375
v 0.99625 0.55375 0.884375
v 0.99625 0.55375 0.740625
vt 0.834473 0.037928
vt 0.863159 0.037928
vt 0.862012 0.039551
vt 0.83562 0.039551
vt 0.494102 0.034668
vt 0.48584 0.034668
vt 0.486987 0.033045
vt 0.492954 0.033045
vt 0.619019 0.054199
vt 0.590332 0.054199
vt 0.591479 0.052576
vt 0.617871 0.052576
vt 0.784668 0.033045
vt 0.79293 0.033045
vt 0.791782 0.034668
vt 0.785815 0.034668
vt 0.002441 0.069023
vt 0.031128 0.069023
vt 0.031128 0.071777
vt 0.002441 0.071777
vt 0.090332 0.069023
vt 0.098594 0.069023
vt 0.098594 0.071777
vt 0.090332 0.071777
vt 0.063354 0.071777
vt 0.034668 0.071777
vt 0.034668 0.069023
vt 0.063354 0.069023
vt 0.110312 0.071777
vt 0.102051 0.071777
vt 0.102051 0.069023
vt 0.110312 0.069023
vt 0.623706 0.052576
vt 0.650098 0.052576
vt 0.651245 0.054199
vt 0.622559 0.054199
vt 0.498706 0.033045
vt 0.504673 0.033045
vt 0.50582 0.034668
vt 0.497559 0.034668
vt 0.682324 0.054199
vt 0.655933 0.054199
vt 0.654785 0.052576
vt 0.683472 0.052576
vt 0.516392 0.034668
vt 0.510425 0.034668
vt 0.509277 0.033045
vt 0.517539 0.033045
vt 0.119629 0.227051
vt 0.119629 0.221084
vt 0.146021 0.221084
vt 0.146021 0.221084
vt 0.146021 0.227051
vt 0.119629 0.227051
vt 0.176294 0.227051
vt 0.149902 0.227051
vt 0.149902 0.221084
vt 0.149902 0.221084
vt 0.176294 0.221084
vt 0.176294 0.227051
vn -0.707107 -0.707107 0
vn -0.707107 0 0.707107
vn -0.707107 0.707107 0
vn -0.707107 0 -0.707107
vn 0 -1 0
vn 0 0 1
vn 0 1 0
vn 0 0 -1
vn 0.707107 -0.707107 0
vn 0.707107 0 0.707107
vn 0.707107 0.707107 0
vn 0.707107 0 -0.707107
vn -1 0 0
vn 1 0 0
f 5/1/1 6/2/1 2/3/1 1/4/1
f 6/5/2 7/6/2 3/7/2 2/8/2
f 7/9/3 8/10/3 4/11/3 3/12/3
f 8/13/4 5/14/4 1/15/4 4/16/4
f 9/17/5 10/18/5 6/19/5 5/20/5
f 10/21/6 11/22/6 7/23/6 6/24/6
f 11/25/7 12/26/7 8/27/7 7/28/7
f 12/29/8 9/30/8 5/31/8 8/32/8
f 13/33/9 14/34/9 10/35/9 9/36/9
f 14/37/10 15/38/10 11/39/10 10/40/10
f 15/41/11 16/42/11 12/43/11 11/44/11
f 16/45/12 13/46/12 9/47/12 12/48/12
f 20/49/13 17/50/13 18/51/13
f 18/52/13 19/53/13 20/54/13
f 22/55/14 21/56/14 24/57/14
f 24/58/14 23/59/14 22/60/14
