# AFL Pavement Markings V1 pavement_arrow_turn_3_mirrored, generated by tools/build-pavement-markings-v1.mjs
mtllib pavement_arrow_turn_3_mirrored.mtl
o pavement_arrow_turn_3_mirrored
vn 0 1 0
usemtl white
v 0.38 0.00625 1
vt 0.38 0
v 0.480645 0.00625 1
vt 0.480645 0
v 0.38 0.00625 0.35
vt 0.38 0.65
f 1/1/1 2/2/1 3/3/1
v 0.480645 0.00625 1
vt 0.480645 0
v 0.3842 0.00625 0.2683
vt 0.3842 0.7317
v 0.38 0.00625 0.35
vt 0.38 0.65
f 4/4/1 5/5/1 6/6/1
v 0.480645 0.00625 1
vt 0.480645 0
v 0.489939 0.00625 1
vt 0.489939 0
v 0.3842 0.00625 0.2683
vt 0.3842 0.7317
f 7/7/1 8/8/1 9/9/1
v 0.489939 0.00625 1
vt 0.489939 0
v 0.3968 0.00625 0.1952
vt 0.3968 0.8048
v 0.3842 0.00625 0.2683
vt 0.3842 0.7317
f 10/10/1 11/11/1 12/12/1
v 0.489939 0.00625 1
vt 0.489939 0
v 0.502168 0.00625 1
vt 0.502168 0
v 0.3968 0.00625 0.1952
vt 0.3968 0.8048
f 13/13/1 14/14/1 15/15/1
v 0.502168 0.00625 1
vt 0.502168 0
v 0.4178 0.00625 0.1307
vt 0.4178 0.8693
v 0.3968 0.00625 0.1952
vt 0.3968 0.8048
f 16/16/1 17/17/1 18/18/1
v 0.502168 0.00625 1
vt 0.502168 0
v 0.517146 0.00625 1
vt 0.517146 0
v 0.4178 0.00625 0.1307
vt 0.4178 0.8693
f 19/19/1 20/20/1 21/21/1
v 0.517146 0.00625 1
vt 0.517146 0
v 0.4472 0.00625 0.0748
vt 0.4472 0.9252
v 0.4178 0.00625 0.1307
vt 0.4178 0.8693
f 22/22/1 23/23/1 24/24/1
v 0.517146 0.00625 1
vt 0.517146 0
v 0.534793 0.00625 1
vt 0.534793 0
v 0.4472 0.00625 0.0748
vt 0.4472 0.9252
f 25/25/1 26/26/1 27/27/1
v 0.534793 0.00625 1
vt 0.534793 0
v 0.485 0.00625 0.0275
vt 0.485 0.9725
v 0.4472 0.00625 0.0748
vt 0.4472 0.9252
f 28/28/1 29/29/1 30/30/1
v 0.534793 0.00625 1
vt 0.534793 0
v 0.555113 0.00625 1
vt 0.555113 0
v 0.485 0.00625 0.0275
vt 0.485 0.9725
f 31/31/1 32/32/1 33/33/1
v 0.555113 0.00625 1
vt 0.555113 0
v 0.517829 0.00625 0
vt 0.517829 1
v 0.485 0.00625 0.0275
vt 0.485 0.9725
f 34/34/1 35/35/1 36/36/1
v 0.555113 0.00625 1
vt 0.555113 0
v 0.53172 0.00625 0
vt 0.53172 1
v 0.517829 0.00625 0
vt 0.517829 1
f 37/37/1 38/38/1 39/39/1
v 0.555113 0.00625 1
vt 0.555113 0
v 0.578183 0.00625 1
vt 0.578183 0
v 0.53172 0.00625 0
vt 0.53172 1
f 40/40/1 41/41/1 42/42/1
v 0.578183 0.00625 1
vt 0.578183 0
v 0.586528 0.00625 0
vt 0.586528 1
v 0.53172 0.00625 0
vt 0.53172 1
f 43/43/1 44/44/1 45/45/1
v 0.578183 0.00625 1
vt 0.578183 0
v 0.604145 0.00625 1
vt 0.604145 0
v 0.586528 0.00625 0
vt 0.586528 1
f 46/46/1 47/47/1 48/48/1
v 1 0.00625 0
vt 1 1
v 0.681038 0.00625 0
vt 0.681038 1
v 1 0.00625 0.138318
vt 1 0.861682
f 49/49/1 50/50/1 51/51/1
v 0.681038 0.00625 0
vt 0.681038 1
v 1 0.00625 0.16
vt 1 0.84
v 1 0.00625 0.138318
vt 1 0.861682
f 52/52/1 53/53/1 54/54/1
v 0.681038 0.00625 0
vt 0.681038 1
v 0.8 0.00625 0.16
vt 0.8 0.84
v 1 0.00625 0.16
vt 1 0.84
f 55/55/1 56/56/1 57/57/1
v 0.681038 0.00625 0
vt 0.681038 1
v 0.629747 0.00625 0
vt 0.629747 1
v 0.8 0.00625 0.16
vt 0.8 0.84
f 58/58/1 59/59/1 60/60/1
v 0.629747 0.00625 0
vt 0.629747 1
v 0.7658 0.00625 0.1619
vt 0.7658 0.8381
v 0.8 0.00625 0.16
vt 0.8 0.84
f 61/61/1 62/62/1 63/63/1
v 0.629747 0.00625 0
vt 0.629747 1
v 0.622385 0.00625 0
vt 0.622385 1
v 0.7658 0.00625 0.1619
vt 0.7658 0.8381
f 64/64/1 65/65/1 66/66/1
v 0.622385 0.00625 0
vt 0.622385 1
v 0.7352 0.00625 0.1676
vt 0.7352 0.8324
v 0.7658 0.00625 0.1619
vt 0.7658 0.8381
f 67/67/1 68/68/1 69/69/1
v 0.622385 0.00625 0
vt 0.622385 1
v 0.615337 0.00625 0
vt 0.615337 1
v 0.7352 0.00625 0.1676
vt 0.7352 0.8324
f 70/70/1 71/71/1 72/72/1
v 0.615337 0.00625 0
vt 0.615337 1
v 0.7082 0.00625 0.1771
vt 0.7082 0.8229
v 0.7352 0.00625 0.1676
vt 0.7352 0.8324
f 73/73/1 74/74/1 75/75/1
v 0.615337 0.00625 0
vt 0.615337 1
v 0.608946 0.00625 0
vt 0.608946 1
v 0.7082 0.00625 0.1771
vt 0.7082 0.8229
f 76/76/1 77/77/1 78/78/1
v 0.608946 0.00625 0
vt 0.608946 1
v 0.6848 0.00625 0.1904
vt 0.6848 0.8096
v 0.7082 0.00625 0.1771
vt 0.7082 0.8229
f 79/79/1 80/80/1 81/81/1
v 0.608946 0.00625 0
vt 0.608946 1
v 0.603447 0.00625 0
vt 0.603447 1
v 0.6848 0.00625 0.1904
vt 0.6848 0.8096
f 82/82/1 83/83/1 84/84/1
v 0.603447 0.00625 0
vt 0.603447 1
v 0.665 0.00625 0.2075
vt 0.665 0.7925
v 0.6848 0.00625 0.1904
vt 0.6848 0.8096
f 85/85/1 86/86/1 87/87/1
v 0.603447 0.00625 0
vt 0.603447 1
v 0.598947 0.00625 0
vt 0.598947 1
v 0.665 0.00625 0.2075
vt 0.665 0.7925
f 88/88/1 89/89/1 90/90/1
v 0.598947 0.00625 0
vt 0.598947 1
v 0.6488 0.00625 0.2284
vt 0.6488 0.7716
v 0.665 0.00625 0.2075
vt 0.665 0.7925
f 91/91/1 92/92/1 93/93/1
v 0.598947 0.00625 0
vt 0.598947 1
v 0.595447 0.00625 0
vt 0.595447 1
v 0.6488 0.00625 0.2284
vt 0.6488 0.7716
f 94/94/1 95/95/1 96/96/1
v 0.595447 0.00625 0
vt 0.595447 1
v 0.6362 0.00625 0.2531
vt 0.6362 0.7469
v 0.6488 0.00625 0.2284
vt 0.6488 0.7716
f 97/97/1 98/98/1 99/99/1
v 0.595447 0.00625 0
vt 0.595447 1
v 0.59287 0.00625 0
vt 0.59287 1
v 0.6362 0.00625 0.2531
vt 0.6362 0.7469
f 100/100/1 101/101/1 102/102/1
v 0.59287 0.00625 0
vt 0.59287 1
v 0.6272 0.00625 0.2816
vt 0.6272 0.7184
v 0.6362 0.00625 0.2531
vt 0.6362 0.7469
f 103/103/1 104/104/1 105/105/1
v 0.59287 0.00625 0
vt 0.59287 1
v 0.591095 0.00625 0
vt 0.591095 1
v 0.6272 0.00625 0.2816
vt 0.6272 0.7184
f 106/106/1 107/107/1 108/108/1
v 0.591095 0.00625 0
vt 0.591095 1
v 0.6218 0.00625 0.3139
vt 0.6218 0.6861
v 0.6272 0.00625 0.2816
vt 0.6272 0.7184
f 109/109/1 110/110/1 111/111/1
v 0.591095 0.00625 0
vt 0.591095 1
v 0.589986 0.00625 0
vt 0.589986 1
v 0.6218 0.00625 0.3139
vt 0.6218 0.6861
f 112/112/1 113/113/1 114/114/1
v 0.589986 0.00625 0
vt 0.589986 1
v 0.62 0.00625 0.35
vt 0.62 0.65
v 0.6218 0.00625 0.3139
vt 0.6218 0.6861
f 115/115/1 116/116/1 117/117/1
v 0.589986 0.00625 0
vt 0.589986 1
v 0.58941 0.00625 0
vt 0.58941 1
v 0.62 0.00625 0.35
vt 0.62 0.65
f 118/118/1 119/119/1 120/120/1
v 0.58941 0.00625 0
vt 0.58941 1
v 0.62 0.00625 1
vt 0.62 0
v 0.62 0.00625 0.35
vt 0.62 0.65
f 121/121/1 122/122/1 123/123/1
v 0.58941 0.00625 0
vt 0.58941 1
v 0.604145 0.00625 1
vt 0.604145 0
v 0.62 0.00625 1
vt 0.62 0
f 124/124/1 125/125/1 126/126/1
v 0.58941 0.00625 0
vt 0.58941 1
v 0.586528 0.00625 0
vt 0.586528 1
v 0.604145 0.00625 1
vt 0.604145 0
f 127/127/1 128/128/1 129/129/1
