# AFL Pavement Markings V1 pavement_arrow_turn_0_mirrored, generated by tools/build-pavement-markings-v1.mjs
mtllib pavement_arrow_turn_0_mirrored.mtl
o pavement_arrow_turn_0_mirrored
vn 0 1 0
usemtl white
v 0 0.00625 0.92
vt 0 0.08
v 0 0.00625 0.924168
vt 0 0.075832
v 0.05 0.00625 0.92
vt 0.05 0.08
f 1/1/1 2/2/1 3/3/1
v 0.05 0.00625 0.92
vt 0.05 0.08
v 0.855556 0.00625 1
vt 0.855556 0
v 0.05 0.00625 0.5
vt 0.05 0.5
f 4/4/1 5/5/1 6/6/1
v 0.05 0.00625 0.92
vt 0.05 0.08
v 0.63 0.00625 1
vt 0.63 0
v 0.855556 0.00625 1
vt 0.855556 0
f 7/7/1 8/8/1 9/9/1
v 0 0.00625 0.924168
vt 0 0.075832
v 0.63 0.00625 1
vt 0.63 0
v 0.05 0.00625 0.92
vt 0.05 0.08
f 10/10/1 11/11/1 12/12/1
v 0 0.00625 0.924168
vt 0 0.075832
v 0.263567 0.00625 1
vt 0.263567 0
v 0.63 0.00625 1
vt 0.63 0
f 13/13/1 14/14/1 15/15/1
v 0 0.00625 0.924168
vt 0 0.075832
v 0 0.00625 0.983939
vt 0 0.016061
v 0.263567 0.00625 1
vt 0.263567 0
f 16/16/1 17/17/1 18/18/1
v 0 0.00625 0.983939
vt 0 0.016061
v 0 0.00625 1
vt 0 0
v 0.263567 0.00625 1
vt 0.263567 0
f 19/19/1 20/20/1 21/21/1
