# AFL Pavement Markings V1 pavement_arrow_turn_5_mirrored, generated by tools/build-pavement-markings-v1.mjs
mtllib pavement_arrow_turn_5_mirrored.mtl
o pavement_arrow_turn_5_mirrored
vn 0 1 0
usemtl white
v 0.62 0.00625 0.9
vt 0.62 0.1
v 0.38 0.00625 0
vt 0.38 1
v 0.38 0.00625 0.9
vt 0.38 0.1
f 1/1/1 2/2/1 3/3/1
v 0.62 0.00625 0.9
vt 0.62 0.1
v 0.480645 0.00625 0
vt 0.480645 1
v 0.38 0.00625 0
vt 0.38 1
f 4/4/1 5/5/1 6/6/1
v 0.62 0.00625 0.9
vt 0.62 0.1
v 0.489939 0.00625 0
vt 0.489939 1
v 0.480645 0.00625 0
vt 0.480645 1
f 7/7/1 8/8/1 9/9/1
v 0.62 0.00625 0.9
vt 0.62 0.1
v 0.502168 0.00625 0
vt 0.502168 1
v 0.489939 0.00625 0
vt 0.489939 1
f 10/10/1 11/11/1 12/12/1
v 0.62 0.00625 0.9
vt 0.62 0.1
v 0.517146 0.00625 0
vt 0.517146 1
v 0.502168 0.00625 0
vt 0.502168 1
f 13/13/1 14/14/1 15/15/1
v 0.62 0.00625 0.9
vt 0.62 0.1
v 0.534793 0.00625 0
vt 0.534793 1
v 0.517146 0.00625 0
vt 0.517146 1
f 16/16/1 17/17/1 18/18/1
v 0.62 0.00625 0.9
vt 0.62 0.1
v 0.555113 0.00625 0
vt 0.555113 1
v 0.534793 0.00625 0
vt 0.534793 1
f 19/19/1 20/20/1 21/21/1
v 0.62 0.00625 0.9
vt 0.62 0.1
v 0.578183 0.00625 0
vt 0.578183 1
v 0.555113 0.00625 0
vt 0.555113 1
f 22/22/1 23/23/1 24/24/1
v 0.62 0.00625 0.9
vt 0.62 0.1
v 0.604145 0.00625 0
vt 0.604145 1
v 0.578183 0.00625 0
vt 0.578183 1
f 25/25/1 26/26/1 27/27/1
v 0.62 0.00625 0
vt 0.62 1
v 0.604145 0.00625 0
vt 0.604145 1
v 0.62 0.00625 0.9
vt 0.62 0.1
f 28/28/1 29/29/1 30/30/1
