# AFL Pavement Markings V1 pavement_hatch_corner_sw, generated by tools/build-pavement-markings-v1.mjs
mtllib pavement_hatch_corner_sw.mtl
o pavement_hatch_corner_sw
vn 0 1 0
usemtl tinted
v 0 0.00625 0.929289
vt 0 0.070711
v 0.025316 0.00625 1
vt 0.025316 0
v 0.070711 0.00625 1
vt 0.070711 0
f 1/1/1 2/2/1 3/3/1
v 0 0.00625 0.929289
vt 0 0.070711
v 0 0.00625 0.975309
vt 0 0.024691
v 0.025316 0.00625 1
vt 0.025316 0
f 4/4/1 5/5/1 6/6/1
v 0 0.00625 1
vt 0 0
v 0.025316 0.00625 1
vt 0.025316 0
v 0 0.00625 0.975309
vt 0 0.024691
f 7/7/1 8/8/1 9/9/1
