# AFL Pavement Markings V1 pavement_arrow_turn_1_mirrored, generated by tools/build-pavement-markings-v1.mjs
mtllib pavement_arrow_turn_1_mirrored.mtl
o pavement_arrow_turn_1_mirrored
vn 0 1 0
usemtl white
v 0.517829 0.00625 1
vt 0.517829 0
v 0.53172 0.00625 1
vt 0.53172 0
v 0.5312 0.00625 0.9888
vt 0.5312 0.0112
f 1/1/1 2/2/1 3/3/1
v 0.53172 0.00625 1
vt 0.53172 0
v 0.5858 0.00625 0.9587
vt 0.5858 0.0413
v 0.5312 0.00625 0.9888
vt 0.5312 0.0112
f 4/4/1 5/5/1 6/6/1
v 0.53172 0.00625 1
vt 0.53172 0
v 0.586528 0.00625 1
vt 0.586528 0
v 0.5858 0.00625 0.9587
vt 0.5858 0.0413
f 7/7/1 8/8/1 9/9/1
v 0.5858 0.00625 0.9587
vt 0.5858 0.0413
v 0.7202 0.00625 0.9243
vt 0.7202 0.0757
v 0.6488 0.00625 0.9372
vt 0.6488 0.0628
f 10/10/1 11/11/1 12/12/1
v 0.5858 0.00625 0.9587
vt 0.5858 0.0413
v 0.8 0.00625 0.92
vt 0.8 0.08
v 0.7202 0.00625 0.9243
vt 0.7202 0.0757
f 13/13/1 14/14/1 15/15/1
v 0.5858 0.00625 0.9587
vt 0.5858 0.0413
v 1 0.00625 0.92
vt 1 0.08
v 0.8 0.00625 0.92
vt 0.8 0.08
f 16/16/1 17/17/1 18/18/1
v 0.5858 0.00625 0.9587
vt 0.5858 0.0413
v 1 0.00625 0.924168
vt 1 0.075832
v 1 0.00625 0.92
vt 1 0.08
f 19/19/1 20/20/1 21/21/1
v 0.5858 0.00625 0.9587
vt 0.5858 0.0413
v 1 0.00625 0.983939
vt 1 0.016061
v 1 0.00625 0.924168
vt 1 0.075832
f 22/22/1 23/23/1 24/24/1
v 0.5858 0.00625 0.9587
vt 0.5858 0.0413
v 1 0.00625 1
vt 1 0
v 1 0.00625 0.983939
vt 1 0.016061
f 25/25/1 26/26/1 27/27/1
v 0.5858 0.00625 0.9587
vt 0.5858 0.0413
v 0.681038 0.00625 1
vt 0.681038 0
v 1 0.00625 1
vt 1 0
f 28/28/1 29/29/1 30/30/1
v 0.5858 0.00625 0.9587
vt 0.5858 0.0413
v 0.629747 0.00625 1
vt 0.629747 0
v 0.681038 0.00625 1
vt 0.681038 0
f 31/31/1 32/32/1 33/33/1
v 0.5858 0.00625 0.9587
vt 0.5858 0.0413
v 0.622385 0.00625 1
vt 0.622385 0
v 0.629747 0.00625 1
vt 0.629747 0
f 34/34/1 35/35/1 36/36/1
v 0.5858 0.00625 0.9587
vt 0.5858 0.0413
v 0.615337 0.00625 1
vt 0.615337 0
v 0.622385 0.00625 1
vt 0.622385 0
f 37/37/1 38/38/1 39/39/1
v 0.5858 0.00625 0.9587
vt 0.5858 0.0413
v 0.608946 0.00625 1
vt 0.608946 0
v 0.615337 0.00625 1
vt 0.615337 0
f 40/40/1 41/41/1 42/42/1
v 0.5858 0.00625 0.9587
vt 0.5858 0.0413
v 0.603447 0.00625 1
vt 0.603447 0
v 0.608946 0.00625 1
vt 0.608946 0
f 43/43/1 44/44/1 45/45/1
v 0.5858 0.00625 0.9587
vt 0.5858 0.0413
v 0.598947 0.00625 1
vt 0.598947 0
v 0.603447 0.00625 1
vt 0.603447 0
f 46/46/1 47/47/1 48/48/1
v 0.5858 0.00625 0.9587
vt 0.5858 0.0413
v 0.595447 0.00625 1
vt 0.595447 0
v 0.598947 0.00625 1
vt 0.598947 0
f 49/49/1 50/50/1 51/51/1
v 0.5858 0.00625 0.9587
vt 0.5858 0.0413
v 0.59287 0.00625 1
vt 0.59287 0
v 0.595447 0.00625 1
vt 0.595447 0
f 52/52/1 53/53/1 54/54/1
v 0.5858 0.00625 0.9587
vt 0.5858 0.0413
v 0.591095 0.00625 1
vt 0.591095 0
v 0.59287 0.00625 1
vt 0.59287 0
f 55/55/1 56/56/1 57/57/1
v 0.5858 0.00625 0.9587
vt 0.5858 0.0413
v 0.589986 0.00625 1
vt 0.589986 0
v 0.591095 0.00625 1
vt 0.591095 0
f 58/58/1 59/59/1 60/60/1
v 0.5858 0.00625 0.9587
vt 0.5858 0.0413
v 0.58941 0.00625 1
vt 0.58941 0
v 0.589986 0.00625 1
vt 0.589986 0
f 61/61/1 62/62/1 63/63/1
v 0.5858 0.00625 0.9587
vt 0.5858 0.0413
v 0.586528 0.00625 1
vt 0.586528 0
v 0.58941 0.00625 1
vt 0.58941 0
f 64/64/1 65/65/1 66/66/1
