# AFL Pavement Markings V1 pavement_arrow_straight_2, generated by tools/build-pavement-markings-v1.mjs
mtllib pavement_arrow_straight_2.mtl
o pavement_arrow_straight_2
vn 0 1 0
usemtl white
v 0.62 0.00625 0
vt 0.62 1
v 0.581429 0.00625 0
vt 0.581429 1
v 0.62 0.00625 0.9
vt 0.62 0.1
f 1/1/1 2/2/1 3/3/1
v 0.581429 0.00625 0
vt 0.581429 1
v 0.38 0.00625 0.9
vt 0.38 0.1
v 0.62 0.00625 0.9
vt 0.62 0.1
f 4/4/1 5/5/1 6/6/1
v 0.581429 0.00625 0
vt 0.581429 1
v 0.418571 0.00625 0
vt 0.418571 1
v 0.38 0.00625 0.9
vt 0.38 0.1
f 7/7/1 8/8/1 9/9/1
v 0.418571 0.00625 0
vt 0.418571 1
v 0.38 0.00625 0
vt 0.38 1
v 0.38 0.00625 0.9
vt 0.38 0.1
f 10/10/1 11/11/1 12/12/1
