# AFL Pavement Markings V1 pavement_arrow_turn_2, generated by tools/build-pavement-markings-v1.mjs
mtllib pavement_arrow_turn_2.mtl
o pavement_arrow_turn_2
vn 0 1 0
usemtl white
v 0.95 0.00625 0.16
vt 0.95 0.84
v 0.08 0.00625 0.04
vt 0.08 0.96
v 0.95 0.00625 0.58
vt 0.95 0.42
f 1/1/1 2/2/1 3/3/1
v 1 0.00625 0.16
vt 1 0.84
v 0.08 0.00625 0.04
vt 0.08 0.96
v 0.95 0.00625 0.16
vt 0.95 0.84
f 4/4/1 5/5/1 6/6/1
v 1 0.00625 0.16
vt 1 0.84
v 1 0.00625 0.138571
vt 1 0.861429
v 0.08 0.00625 0.04
vt 0.08 0.96
f 7/7/1 8/8/1 9/9/1
v 1 0.00625 0.138571
vt 1 0.861429
v 1 0.00625 0.137165
vt 1 0.862835
v 0.08 0.00625 0.04
vt 0.08 0.96
f 10/10/1 11/11/1 12/12/1
v 0.08 0.00625 0.04
vt 0.08 0.96
v 0.37 0.00625 0
vt 0.37 1
v 0.144444 0.00625 0
vt 0.144444 1
f 13/13/1 14/14/1 15/15/1
v 1 0.00625 0.137165
vt 1 0.862835
v 0.37 0.00625 0
vt 0.37 1
v 0.08 0.00625 0.04
vt 0.08 0.96
f 16/16/1 17/17/1 18/18/1
v 1 0.00625 0.137165
vt 1 0.862835
v 1 0.00625 0
vt 1 1
v 0.37 0.00625 0
vt 0.37 1
f 19/19/1 20/20/1 21/21/1
