# AFL Pavement Markings V1 pavement_arrow_turn_3, generated by tools/build-pavement-markings-v1.mjs
mtllib pavement_arrow_turn_3.mtl
o pavement_arrow_turn_3
vn 0 1 0
usemtl white
v 0.38 0.00625 1
vt 0.38 0
v 0.480645 0.00625 1
vt 0.480645 0
v 0.38 0.00625 0.35
vt 0.38 0.65
f 1/1/1 2/2/1 3/3/1
v 0.480645 0.00625 1
vt 0.480645 0
v 0.3782 0.00625 0.3139
vt 0.3782 0.6861
v 0.38 0.00625 0.35
vt 0.38 0.65
f 4/4/1 5/5/1 6/6/1
v 0.480645 0.00625 1
vt 0.480645 0
v 0.482796 0.00625 1
vt 0.482796 0
v 0.3782 0.00625 0.3139
vt 0.3782 0.6861
f 7/7/1 8/8/1 9/9/1
v 0.2 0.00625 0.16
vt 0.2 0.84
v 0 0.00625 0.138571
vt 0 0.861429
v 0 0.00625 0.16
vt 0 0.84
f 10/10/1 11/11/1 12/12/1
v 0.2342 0.00625 0.1619
vt 0.2342 0.8381
v 0 0.00625 0.138571
vt 0 0.861429
v 0.2 0.00625 0.16
vt 0.2 0.84
f 13/13/1 14/14/1 15/15/1
v 0.2342 0.00625 0.1619
vt 0.2342 0.8381
v 0 0.00625 0.137165
vt 0 0.862835
v 0 0.00625 0.138571
vt 0 0.861429
f 16/16/1 17/17/1 18/18/1
v 0.2342 0.00625 0.1619
vt 0.2342 0.8381
v 0 0.00625 0
vt 0 1
v 0 0.00625 0.137165
vt 0 0.862835
f 19/19/1 20/20/1 21/21/1
v 0.2342 0.00625 0.1619
vt 0.2342 0.8381
v 0.043989 0.00625 0
vt 0.043989 1
v 0 0.00625 0
vt 0 1
f 22/22/1 23/23/1 24/24/1
v 0.2648 0.00625 0.1676
vt 0.2648 0.8324
v 0.043989 0.00625 0
vt 0.043989 1
v 0.2342 0.00625 0.1619
vt 0.2342 0.8381
f 25/25/1 26/26/1 27/27/1
v 0.2648 0.00625 0.1676
vt 0.2648 0.8324
v 0.051712 0.00625 0
vt 0.051712 1
v 0.043989 0.00625 0
vt 0.043989 1
f 28/28/1 29/29/1 30/30/1
v 0.2918 0.00625 0.1771
vt 0.2918 0.8229
v 0.051712 0.00625 0
vt 0.051712 1
v 0.2648 0.00625 0.1676
vt 0.2648 0.8324
f 31/31/1 32/32/1 33/33/1
v 0.2918 0.00625 0.1771
vt 0.2918 0.8229
v 0.056356 0.00625 0
vt 0.056356 1
v 0.051712 0.00625 0
vt 0.051712 1
f 34/34/1 35/35/1 36/36/1
v 0.3152 0.00625 0.1904
vt 0.3152 0.8096
v 0.056356 0.00625 0
vt 0.056356 1
v 0.2918 0.00625 0.1771
vt 0.2918 0.8229
f 37/37/1 38/38/1 39/39/1
v 0.3152 0.00625 0.1904
vt 0.3152 0.8096
v 0.058047 0.00625 0
vt 0.058047 1
v 0.056356 0.00625 0
vt 0.056356 1
f 40/40/1 41/41/1 42/42/1
v 0.3152 0.00625 0.1904
vt 0.3152 0.8096
v 0.234083 0.00625 0
vt 0.234083 1
v 0.058047 0.00625 0
vt 0.058047 1
f 43/43/1 44/44/1 45/45/1
v 0.335 0.00625 0.2075
vt 0.335 0.7925
v 0.234083 0.00625 0
vt 0.234083 1
v 0.3152 0.00625 0.1904
vt 0.3152 0.8096
f 46/46/1 47/47/1 48/48/1
v 0.335 0.00625 0.2075
vt 0.335 0.7925
v 0.237565 0.00625 0
vt 0.237565 1
v 0.234083 0.00625 0
vt 0.234083 1
f 49/49/1 50/50/1 51/51/1
v 0.3512 0.00625 0.2284
vt 0.3512 0.7716
v 0.237565 0.00625 0
vt 0.237565 1
v 0.335 0.00625 0.2075
vt 0.335 0.7925
f 52/52/1 53/53/1 54/54/1
v 0.3512 0.00625 0.2284
vt 0.3512 0.7716
v 0.239222 0.00625 0
vt 0.239222 1
v 0.237565 0.00625 0
vt 0.237565 1
f 55/55/1 56/56/1 57/57/1
v 0.3638 0.00625 0.2531
vt 0.3638 0.7469
v 0.239222 0.00625 0
vt 0.239222 1
v 0.3512 0.00625 0.2284
vt 0.3512 0.7716
f 58/58/1 59/59/1 60/60/1
v 0.3638 0.00625 0.2531
vt 0.3638 0.7469
v 0.23934 0.00625 0
vt 0.23934 1
v 0.239222 0.00625 0
vt 0.239222 1
f 61/61/1 62/62/1 63/63/1
v 0.3638 0.00625 0.2531
vt 0.3638 0.7469
v 0.299139 0.00625 0
vt 0.299139 1
v 0.23934 0.00625 0
vt 0.23934 1
f 64/64/1 65/65/1 66/66/1
v 0.3728 0.00625 0.2816
vt 0.3728 0.7184
v 0.299139 0.00625 0
vt 0.299139 1
v 0.3638 0.00625 0.2531
vt 0.3638 0.7469
f 67/67/1 68/68/1 69/69/1
v 0.3728 0.00625 0.2816
vt 0.3728 0.7184
v 0.299504 0.00625 0
vt 0.299504 1
v 0.299139 0.00625 0
vt 0.299139 1
f 70/70/1 71/71/1 72/72/1
v 0.3728 0.00625 0.2816
vt 0.3728 0.7184
v 0.355139 0.00625 0
vt 0.355139 1
v 0.299504 0.00625 0
vt 0.299504 1
f 73/73/1 74/74/1 75/75/1
v 0.3782 0.00625 0.3139
vt 0.3782 0.6861
v 0.355139 0.00625 0
vt 0.355139 1
v 0.3728 0.00625 0.2816
vt 0.3728 0.7184
f 76/76/1 77/77/1 78/78/1
v 0.3782 0.00625 0.3139
vt 0.3782 0.6861
v 0.355701 0.00625 0
vt 0.355701 1
v 0.355139 0.00625 0
vt 0.355139 1
f 79/79/1 80/80/1 81/81/1
v 0.482796 0.00625 1
vt 0.482796 0
v 0.355701 0.00625 0
vt 0.355701 1
v 0.3782 0.00625 0.3139
vt 0.3782 0.6861
f 82/82/1 83/83/1 84/84/1
v 0.482796 0.00625 1
vt 0.482796 0
v 0.3598 0.00625 0
vt 0.3598 1
v 0.355701 0.00625 0
vt 0.355701 1
f 85/85/1 86/86/1 87/87/1
v 0.482796 0.00625 1
vt 0.482796 0
v 0.496748 0.00625 1
vt 0.496748 0
v 0.3598 0.00625 0
vt 0.3598 1
f 88/88/1 89/89/1 90/90/1
v 0.496748 0.00625 1
vt 0.496748 0
v 0.418578 0.00625 0
vt 0.418578 1
v 0.3598 0.00625 0
vt 0.3598 1
f 91/91/1 92/92/1 93/93/1
v 0.496748 0.00625 1
vt 0.496748 0
v 0.52459 0.00625 1
vt 0.52459 0
v 0.418578 0.00625 0
vt 0.418578 1
f 94/94/1 95/95/1 96/96/1
v 0.52459 0.00625 1
vt 0.52459 0
v 0.469686 0.00625 0
vt 0.469686 1
v 0.418578 0.00625 0
vt 0.418578 1
f 97/97/1 98/98/1 99/99/1
v 0.52459 0.00625 1
vt 0.52459 0
v 0.548799 0.00625 1
vt 0.548799 0
v 0.469686 0.00625 0
vt 0.469686 1
f 100/100/1 101/101/1 102/102/1
v 0.548799 0.00625 1
vt 0.548799 0
v 0.482171 0.00625 0
vt 0.482171 1
v 0.469686 0.00625 0
vt 0.469686 1
f 103/103/1 104/104/1 105/105/1
v 0.548799 0.00625 1
vt 0.548799 0
v 0.515 0.00625 0.0275
vt 0.515 0.9725
v 0.482171 0.00625 0
vt 0.482171 1
f 106/106/1 107/107/1 108/108/1
v 0.548799 0.00625 1
vt 0.548799 0
v 0.569533 0.00625 1
vt 0.569533 0
v 0.515 0.00625 0.0275
vt 0.515 0.9725
f 109/109/1 110/110/1 111/111/1
v 0.569533 0.00625 1
vt 0.569533 0
v 0.5528 0.00625 0.0748
vt 0.5528 0.9252
v 0.515 0.00625 0.0275
vt 0.515 0.9725
f 112/112/1 113/113/1 114/114/1
v 0.569533 0.00625 1
vt 0.569533 0
v 0.586864 0.00625 1
vt 0.586864 0
v 0.5528 0.00625 0.0748
vt 0.5528 0.9252
f 115/115/1 116/116/1 117/117/1
v 0.586864 0.00625 1
vt 0.586864 0
v 0.5822 0.00625 0.1307
vt 0.5822 0.8693
v 0.5528 0.00625 0.0748
vt 0.5528 0.9252
f 118/118/1 119/119/1 120/120/1
v 0.586864 0.00625 1
vt 0.586864 0
v 0.600772 0.00625 1
vt 0.600772 0
v 0.5822 0.00625 0.1307
vt 0.5822 0.8693
f 121/121/1 122/122/1 123/123/1
v 0.600772 0.00625 1
vt 0.600772 0
v 0.6032 0.00625 0.1952
vt 0.6032 0.8048
v 0.5822 0.00625 0.1307
vt 0.5822 0.8693
f 124/124/1 125/125/1 126/126/1
v 0.600772 0.00625 1
vt 0.600772 0
v 0.611131 0.00625 1
vt 0.611131 0
v 0.6032 0.00625 0.1952
vt 0.6032 0.8048
f 127/127/1 128/128/1 129/129/1
v 0.611131 0.00625 1
vt 0.611131 0
v 0.6158 0.00625 0.2683
vt 0.6158 0.7317
v 0.6032 0.00625 0.1952
vt 0.6032 0.8048
f 130/130/1 131/131/1 132/132/1
v 0.611131 0.00625 1
vt 0.611131 0
v 0.617683 0.00625 1
vt 0.617683 0
v 0.6158 0.00625 0.2683
vt 0.6158 0.7317
f 133/133/1 134/134/1 135/135/1
v 0.6158 0.00625 0.2683
vt 0.6158 0.7317
v 0.62 0.00625 1
vt 0.62 0
v 0.62 0.00625 0.35
vt 0.62 0.65
f 136/136/1 137/137/1 138/138/1
v 0.6158 0.00625 0.2683
vt 0.6158 0.7317
v 0.617683 0.00625 1
vt 0.617683 0
v 0.62 0.00625 1
vt 0.62 0
f 139/139/1 140/140/1 141/141/1
