# AFL Pavement Markings V1 pavement_crosshatch, generated by tools/build-pavement-markings-v1.mjs
mtllib pavement_crosshatch.mtl
o pavement_crosshatch
vn 0 1 0
usemtl tinted
v 0.070711 0.00625 0
vt 0.070711 1
v 1 0.00625 0.975309
vt 1 0.024691
v 1 0.00625 0.929289
vt 1 0.070711
f 1/1/1 2/2/1 3/3/1
v 0.070711 0.00625 0
vt 0.070711 1
v 0 0.00625 0
vt 0 1
v 1 0.00625 0.975309
vt 1 0.024691
f 4/4/1 5/5/1 6/6/1
v 0.070711 0.00625 0
vt 0.070711 1
v 0 0.00625 0
vt 0 1
v 0 0.00625 0
vt 0 1
f 7/7/1 8/8/1 9/9/1
v 0.929289 0.00625 1
vt 0.929289 0
v 0 0.00625 0
vt 0 1
v 0 0.00625 0.070711
vt 0 0.929289
f 10/10/1 11/11/1 12/12/1
v 0.929289 0.00625 1
vt 0.929289 0
v 1 0.00625 0.975309
vt 1 0.024691
v 0 0.00625 0
vt 0 1
f 13/13/1 14/14/1 15/15/1
v 0.929289 0.00625 1
vt 0.929289 0
v 1 0.00625 1
vt 1 0
v 1 0.00625 0.975309
vt 1 0.024691
f 16/16/1 17/17/1 18/18/1
v 0 0.00625 0.929289
vt 0 0.070711
v 1 0.00625 0
vt 1 1
v 0.929289 0.00625 0
vt 0.929289 1
f 19/19/1 20/20/1 21/21/1
v 0 0.00625 0.929289
vt 0 0.070711
v 1 0.00625 0
vt 1 1
v 1 0.00625 0
vt 1 1
f 22/22/1 23/23/1 24/24/1
v 0 0.00625 0.929289
vt 0 0.070711
v 0.024691 0.00625 1
vt 0.024691 0
v 1 0.00625 0
vt 1 1
f 25/25/1 26/26/1 27/27/1
v 0 0.00625 0.929289
vt 0 0.070711
v 0 0.00625 1
vt 0 0
v 0.024691 0.00625 1
vt 0.024691 0
f 28/28/1 29/29/1 30/30/1
v 1 0.00625 0.070711
vt 1 0.929289
v 0.024691 0.00625 1
vt 0.024691 0
v 0.070711 0.00625 1
vt 0.070711 0
f 31/31/1 32/32/1 33/33/1
v 1 0.00625 0.070711
vt 1 0.929289
v 1 0.00625 0
vt 1 1
v 0.024691 0.00625 1
vt 0.024691 0
f 34/34/1 35/35/1 36/36/1
