# AFL Pavement Markings V1 pavement_accessible_symbol, generated by tools/build-pavement-markings-v1.mjs
mtllib pavement_accessible_symbol.mtl
o pavement_accessible_symbol
vn 0 1 0
usemtl blue
v 0.05 0.00625 0.95
vt 0.05 0.05
v 0.95 0.00625 0.05
vt 0.95 0.95
v 0.05 0.00625 0.05
vt 0.05 0.95
f 1/1/1 2/2/1 3/3/1
v 0.95 0.00625 0.05
vt 0.95 0.95
v 0.05 0.00625 0.95
vt 0.05 0.05
v 0.95 0.00625 0.95
vt 0.95 0.05
f 4/4/1 5/5/1 6/6/1
usemtl white
v 0.532785 0.0075 0.183177
vt 0.532785 0.816823
v 0.532785 0.0075 0.216823
vt 0.532785 0.783177
v 0.535 0.0075 0.2
vt 0.535 0.8
f 7/7/1 8/8/1 9/9/1
v 0.532785 0.0075 0.183177
vt 0.532785 0.816823
v 0.526292 0.0075 0.2325
vt 0.526292 0.7675
v 0.532785 0.0075 0.216823
vt 0.532785 0.783177
f 10/10/1 11/11/1 12/12/1
v 0.532785 0.0075 0.183177
vt 0.532785 0.816823
v 0.515962 0.0075 0.245962
vt 0.515962 0.754038
v 0.526292 0.0075 0.2325
vt 0.526292 0.7675
f 13/13/1 14/14/1 15/15/1
v 0.532785 0.0075 0.183177
vt 0.532785 0.816823
v 0.5025 0.0075 0.256292
vt 0.5025 0.743708
v 0.515962 0.0075 0.245962
vt 0.515962 0.754038
f 16/16/1 17/17/1 18/18/1
v 0.532785 0.0075 0.183177
vt 0.532785 0.816823
v 0.486823 0.0075 0.262785
vt 0.486823 0.737215
v 0.5025 0.0075 0.256292
vt 0.5025 0.743708
f 19/19/1 20/20/1 21/21/1
v 0.532785 0.0075 0.183177
vt 0.532785 0.816823
v 0.47 0.0075 0.265
vt 0.47 0.735
v 0.486823 0.0075 0.262785
vt 0.486823 0.737215
f 22/22/1 23/23/1 24/24/1
v 0.532785 0.0075 0.183177
vt 0.532785 0.816823
v 0.453177 0.0075 0.262785
vt 0.453177 0.737215
v 0.47 0.0075 0.265
vt 0.47 0.735
f 25/25/1 26/26/1 27/27/1
v 0.532785 0.0075 0.183177
vt 0.532785 0.816823
v 0.4375 0.0075 0.256292
vt 0.4375 0.743708
v 0.453177 0.0075 0.262785
vt 0.453177 0.737215
f 28/28/1 29/29/1 30/30/1
v 0.532785 0.0075 0.183177
vt 0.532785 0.816823
v 0.424038 0.0075 0.245962
vt 0.424038 0.754038
v 0.4375 0.0075 0.256292
vt 0.4375 0.743708
f 31/31/1 32/32/1 33/33/1
v 0.532785 0.0075 0.183177
vt 0.532785 0.816823
v 0.413708 0.0075 0.2325
vt 0.413708 0.7675
v 0.424038 0.0075 0.245962
vt 0.424038 0.754038
f 34/34/1 35/35/1 36/36/1
v 0.532785 0.0075 0.183177
vt 0.532785 0.816823
v 0.407215 0.0075 0.216823
vt 0.407215 0.783177
v 0.413708 0.0075 0.2325
vt 0.413708 0.7675
f 37/37/1 38/38/1 39/39/1
v 0.532785 0.0075 0.183177
vt 0.532785 0.816823
v 0.405 0.0075 0.2
vt 0.405 0.8
v 0.407215 0.0075 0.216823
vt 0.407215 0.783177
f 40/40/1 41/41/1 42/42/1
v 0.532785 0.0075 0.183177
vt 0.532785 0.816823
v 0.407215 0.0075 0.183177
vt 0.407215 0.816823
v 0.405 0.0075 0.2
vt 0.405 0.8
f 43/43/1 44/44/1 45/45/1
v 0.532785 0.0075 0.183177
vt 0.532785 0.816823
v 0.413708 0.0075 0.1675
vt 0.413708 0.8325
v 0.407215 0.0075 0.183177
vt 0.407215 0.816823
f 46/46/1 47/47/1 48/48/1
v 0.532785 0.0075 0.183177
vt 0.532785 0.816823
v 0.424038 0.0075 0.154038
vt 0.424038 0.845962
v 0.413708 0.0075 0.1675
vt 0.413708 0.8325
f 49/49/1 50/50/1 51/51/1
v 0.532785 0.0075 0.183177
vt 0.532785 0.816823
v 0.4375 0.0075 0.143708
vt 0.4375 0.856292
v 0.424038 0.0075 0.154038
vt 0.424038 0.845962
f 52/52/1 53/53/1 54/54/1
v 0.532785 0.0075 0.183177
vt 0.532785 0.816823
v 0.453177 0.0075 0.137215
vt 0.453177 0.862785
v 0.4375 0.0075 0.143708
vt 0.4375 0.856292
f 55/55/1 56/56/1 57/57/1
v 0.532785 0.0075 0.183177
vt 0.532785 0.816823
v 0.47 0.0075 0.135
vt 0.47 0.865
v 0.453177 0.0075 0.137215
vt 0.453177 0.862785
f 58/58/1 59/59/1 60/60/1
v 0.532785 0.0075 0.183177
vt 0.532785 0.816823
v 0.486823 0.0075 0.137215
vt 0.486823 0.862785
v 0.47 0.0075 0.135
vt 0.47 0.865
f 61/61/1 62/62/1 63/63/1
v 0.532785 0.0075 0.183177
vt 0.532785 0.816823
v 0.5025 0.0075 0.143708
vt 0.5025 0.856292
v 0.486823 0.0075 0.137215
vt 0.486823 0.862785
f 64/64/1 65/65/1 66/66/1
v 0.532785 0.0075 0.183177
vt 0.532785 0.816823
v 0.515962 0.0075 0.154038
vt 0.515962 0.845962
v 0.5025 0.0075 0.143708
vt 0.5025 0.856292
f 67/67/1 68/68/1 69/69/1
v 0.515962 0.0075 0.154038
vt 0.515962 0.845962
v 0.532785 0.0075 0.183177
vt 0.532785 0.816823
v 0.526292 0.0075 0.1675
vt 0.526292 0.8325
f 70/70/1 71/71/1 72/72/1
v 0.41263 0.0075 0.316886
vt 0.41263 0.683114
v 0.46737 0.0075 0.563114
vt 0.46737 0.436886
v 0.48737 0.0075 0.323114
vt 0.48737 0.676886
f 73/73/1 74/74/1 75/75/1
v 0.46737 0.0075 0.563114
vt 0.46737 0.436886
v 0.41263 0.0075 0.316886
vt 0.41263 0.683114
v 0.39263 0.0075 0.556886
vt 0.39263 0.443114
f 76/76/1 77/77/1 78/78/1
v 0.43 0.0075 0.5975
vt 0.43 0.4025
v 0.64 0.0075 0.5225
vt 0.64 0.4775
v 0.43 0.0075 0.5225
vt 0.43 0.4775
f 79/79/1 80/80/1 81/81/1
v 0.64 0.0075 0.5225
vt 0.64 0.4775
v 0.43 0.0075 0.5975
vt 0.43 0.4025
v 0.64 0.0075 0.5975
vt 0.64 0.4025
f 82/82/1 83/83/1 84/84/1
v 0.604758 0.0075 0.572815
vt 0.604758 0.427185
v 0.755242 0.0075 0.767185
vt 0.755242 0.232815
v 0.675242 0.0075 0.547185
vt 0.675242 0.452815
f 85/85/1 86/86/1 87/87/1
v 0.755242 0.0075 0.767185
vt 0.755242 0.232815
v 0.604758 0.0075 0.572815
vt 0.604758 0.427185
v 0.684758 0.0075 0.792815
vt 0.684758 0.207185
f 88/88/1 89/89/1 90/90/1
v 0.733167 0.0075 0.815112
vt 0.733167 0.184888
v 0.786833 0.0075 0.714888
vt 0.786833 0.285112
v 0.706833 0.0075 0.744888
vt 0.706833 0.255112
f 91/91/1 92/92/1 93/93/1
v 0.786833 0.0075 0.714888
vt 0.786833 0.285112
v 0.733167 0.0075 0.815112
vt 0.733167 0.184888
v 0.813167 0.0075 0.785112
vt 0.813167 0.214888
f 94/94/1 95/95/1 96/96/1
v 0.482476 0.0075 0.30125
vt 0.482476 0.69875
v 0.482476 0.0075 0.33875
vt 0.482476 0.66125
v 0.4875 0.0075 0.32
vt 0.4875 0.68
f 97/97/1 98/98/1 99/99/1
v 0.482476 0.0075 0.30125
vt 0.482476 0.69875
v 0.46875 0.0075 0.352476
vt 0.46875 0.647524
v 0.482476 0.0075 0.33875
vt 0.482476 0.66125
f 100/100/1 101/101/1 102/102/1
v 0.482476 0.0075 0.30125
vt 0.482476 0.69875
v 0.45 0.0075 0.3575
vt 0.45 0.6425
v 0.46875 0.0075 0.352476
vt 0.46875 0.647524
f 103/103/1 104/104/1 105/105/1
v 0.482476 0.0075 0.30125
vt 0.482476 0.69875
v 0.43125 0.0075 0.352476
vt 0.43125 0.647524
v 0.45 0.0075 0.3575
vt 0.45 0.6425
f 106/106/1 107/107/1 108/108/1
v 0.482476 0.0075 0.30125
vt 0.482476 0.69875
v 0.417524 0.0075 0.33875
vt 0.417524 0.66125
v 0.43125 0.0075 0.352476
vt 0.43125 0.647524
f 109/109/1 110/110/1 111/111/1
v 0.482476 0.0075 0.30125
vt 0.482476 0.69875
v 0.4125 0.0075 0.32
vt 0.4125 0.68
v 0.417524 0.0075 0.33875
vt 0.417524 0.66125
f 112/112/1 113/113/1 114/114/1
v 0.482476 0.0075 0.30125
vt 0.482476 0.69875
v 0.417524 0.0075 0.30125
vt 0.417524 0.69875
v 0.4125 0.0075 0.32
vt 0.4125 0.68
f 115/115/1 116/116/1 117/117/1
v 0.482476 0.0075 0.30125
vt 0.482476 0.69875
v 0.43125 0.0075 0.287524
vt 0.43125 0.712476
v 0.417524 0.0075 0.30125
vt 0.417524 0.69875
f 118/118/1 119/119/1 120/120/1
v 0.482476 0.0075 0.30125
vt 0.482476 0.69875
v 0.45 0.0075 0.2825
vt 0.45 0.7175
v 0.43125 0.0075 0.287524
vt 0.43125 0.712476
f 121/121/1 122/122/1 123/123/1
v 0.45 0.0075 0.2825
vt 0.45 0.7175
v 0.482476 0.0075 0.30125
vt 0.482476 0.69875
v 0.46875 0.0075 0.287524
vt 0.46875 0.712476
f 124/124/1 125/125/1 126/126/1
v 0.462476 0.0075 0.54125
vt 0.462476 0.45875
v 0.462476 0.0075 0.57875
vt 0.462476 0.42125
v 0.4675 0.0075 0.56
vt 0.4675 0.44
f 127/127/1 128/128/1 129/129/1
v 0.462476 0.0075 0.54125
vt 0.462476 0.45875
v 0.44875 0.0075 0.592476
vt 0.44875 0.407524
v 0.462476 0.0075 0.57875
vt 0.462476 0.42125
f 130/130/1 131/131/1 132/132/1
v 0.462476 0.0075 0.54125
vt 0.462476 0.45875
v 0.43 0.0075 0.5975
vt 0.43 0.4025
v 0.44875 0.0075 0.592476
vt 0.44875 0.407524
f 133/133/1 134/134/1 135/135/1
v 0.462476 0.0075 0.54125
vt 0.462476 0.45875
v 0.41125 0.0075 0.592476
vt 0.41125 0.407524
v 0.43 0.0075 0.5975
vt 0.43 0.4025
f 136/136/1 137/137/1 138/138/1
v 0.462476 0.0075 0.54125
vt 0.462476 0.45875
v 0.397524 0.0075 0.57875
vt 0.397524 0.42125
v 0.41125 0.0075 0.592476
vt 0.41125 0.407524
f 139/139/1 140/140/1 141/141/1
v 0.462476 0.0075 0.54125
vt 0.462476 0.45875
v 0.3925 0.0075 0.56
vt 0.3925 0.44
v 0.397524 0.0075 0.57875
vt 0.397524 0.42125
f 142/142/1 143/143/1 144/144/1
v 0.462476 0.0075 0.54125
vt 0.462476 0.45875
v 0.397524 0.0075 0.54125
vt 0.397524 0.45875
v 0.3925 0.0075 0.56
vt 0.3925 0.44
f 145/145/1 146/146/1 147/147/1
v 0.462476 0.0075 0.54125
vt 0.462476 0.45875
v 0.41125 0.0075 0.527524
vt 0.41125 0.472476
v 0.397524 0.0075 0.54125
vt 0.397524 0.45875
f 148/148/1 149/149/1 150/150/1
v 0.462476 0.0075 0.54125
vt 0.462476 0.45875
v 0.43 0.0075 0.5225
vt 0.43 0.4775
v 0.41125 0.0075 0.527524
vt 0.41125 0.472476
f 151/151/1 152/152/1 153/153/1
v 0.43 0.0075 0.5225
vt 0.43 0.4775
v 0.462476 0.0075 0.54125
vt 0.462476 0.45875
v 0.44875 0.0075 0.527524
vt 0.44875 0.472476
f 154/154/1 155/155/1 156/156/1
v 0.672476 0.0075 0.54125
vt 0.672476 0.45875
v 0.672476 0.0075 0.57875
vt 0.672476 0.42125
v 0.6775 0.0075 0.56
vt 0.6775 0.44
f 157/157/1 158/158/1 159/159/1
v 0.672476 0.0075 0.54125
vt 0.672476 0.45875
v 0.65875 0.0075 0.592476
vt 0.65875 0.407524
v 0.672476 0.0075 0.57875
vt 0.672476 0.42125
f 160/160/1 161/161/1 162/162/1
v 0.672476 0.0075 0.54125
vt 0.672476 0.45875
v 0.64 0.0075 0.5975
vt 0.64 0.4025
v 0.65875 0.0075 0.592476
vt 0.65875 0.407524
f 163/163/1 164/164/1 165/165/1
v 0.672476 0.0075 0.54125
vt 0.672476 0.45875
v 0.62125 0.0075 0.592476
vt 0.62125 0.407524
v 0.64 0.0075 0.5975
vt 0.64 0.4025
f 166/166/1 167/167/1 168/168/1
v 0.672476 0.0075 0.54125
vt 0.672476 0.45875
v 0.607524 0.0075 0.57875
vt 0.607524 0.42125
v 0.62125 0.0075 0.592476
vt 0.62125 0.407524
f 169/169/1 170/170/1 171/171/1
v 0.672476 0.0075 0.54125
vt 0.672476 0.45875
v 0.6025 0.0075 0.56
vt 0.6025 0.44
v 0.607524 0.0075 0.57875
vt 0.607524 0.42125
f 172/172/1 173/173/1 174/174/1
v 0.672476 0.0075 0.54125
vt 0.672476 0.45875
v 0.607524 0.0075 0.54125
vt 0.607524 0.45875
v 0.6025 0.0075 0.56
vt 0.6025 0.44
f 175/175/1 176/176/1 177/177/1
v 0.672476 0.0075 0.54125
vt 0.672476 0.45875
v 0.62125 0.0075 0.527524
vt 0.62125 0.472476
v 0.607524 0.0075 0.54125
vt 0.607524 0.45875
f 178/178/1 179/179/1 180/180/1
v 0.672476 0.0075 0.54125
vt 0.672476 0.45875
v 0.64 0.0075 0.5225
vt 0.64 0.4775
v 0.62125 0.0075 0.527524
vt 0.62125 0.472476
f 181/181/1 182/182/1 183/183/1
v 0.64 0.0075 0.5225
vt 0.64 0.4775
v 0.672476 0.0075 0.54125
vt 0.672476 0.45875
v 0.65875 0.0075 0.527524
vt 0.65875 0.472476
f 184/184/1 185/185/1 186/186/1
v 0.752476 0.0075 0.76125
vt 0.752476 0.23875
v 0.752476 0.0075 0.79875
vt 0.752476 0.20125
v 0.7575 0.0075 0.78
vt 0.7575 0.22
f 187/187/1 188/188/1 189/189/1
v 0.752476 0.0075 0.76125
vt 0.752476 0.23875
v 0.73875 0.0075 0.812476
vt 0.73875 0.187524
v 0.752476 0.0075 0.79875
vt 0.752476 0.20125
f 190/190/1 191/191/1 192/192/1
v 0.752476 0.0075 0.76125
vt 0.752476 0.23875
v 0.72 0.0075 0.8175
vt 0.72 0.1825
v 0.73875 0.0075 0.812476
vt 0.73875 0.187524
f 193/193/1 194/194/1 195/195/1
v 0.752476 0.0075 0.76125
vt 0.752476 0.23875
v 0.70125 0.0075 0.812476
vt 0.70125 0.187524
v 0.72 0.0075 0.8175
vt 0.72 0.1825
f 196/196/1 197/197/1 198/198/1
v 0.752476 0.0075 0.76125
vt 0.752476 0.23875
v 0.687524 0.0075 0.79875
vt 0.687524 0.20125
v 0.70125 0.0075 0.812476
vt 0.70125 0.187524
f 199/199/1 200/200/1 201/201/1
v 0.752476 0.0075 0.76125
vt 0.752476 0.23875
v 0.6825 0.0075 0.78
vt 0.6825 0.22
v 0.687524 0.0075 0.79875
vt 0.687524 0.20125
f 202/202/1 203/203/1 204/204/1
v 0.752476 0.0075 0.76125
vt 0.752476 0.23875
v 0.687524 0.0075 0.76125
vt 0.687524 0.23875
v 0.6825 0.0075 0.78
vt 0.6825 0.22
f 205/205/1 206/206/1 207/207/1
v 0.752476 0.0075 0.76125
vt 0.752476 0.23875
v 0.70125 0.0075 0.747524
vt 0.70125 0.252476
v 0.687524 0.0075 0.76125
vt 0.687524 0.23875
f 208/208/1 209/209/1 210/210/1
v 0.752476 0.0075 0.76125
vt 0.752476 0.23875
v 0.72 0.0075 0.7425
vt 0.72 0.2575
v 0.70125 0.0075 0.747524
vt 0.70125 0.252476
f 211/211/1 212/212/1 213/213/1
v 0.72 0.0075 0.7425
vt 0.72 0.2575
v 0.752476 0.0075 0.76125
vt 0.752476 0.23875
v 0.73875 0.0075 0.747524
vt 0.73875 0.252476
f 214/214/1 215/215/1 216/216/1
v 0.832476 0.0075 0.73125
vt 0.832476 0.26875
v 0.832476 0.0075 0.76875
vt 0.832476 0.23125
v 0.8375 0.0075 0.75
vt 0.8375 0.25
f 217/217/1 218/218/1 219/219/1
v 0.832476 0.0075 0.73125
vt 0.832476 0.26875
v 0.81875 0.0075 0.782476
vt 0.81875 0.217524
v 0.832476 0.0075 0.76875
vt 0.832476 0.23125
f 220/220/1 221/221/1 222/222/1
v 0.832476 0.0075 0.73125
vt 0.832476 0.26875
v 0.8 0.0075 0.7875
vt 0.8 0.2125
v 0.81875 0.0075 0.782476
vt 0.81875 0.217524
f 223/223/1 224/224/1 225/225/1
v 0.832476 0.0075 0.73125
vt 0.832476 0.26875
v 0.78125 0.0075 0.782476
vt 0.78125 0.217524
v 0.8 0.0075 0.7875
vt 0.8 0.2125
f 226/226/1 227/227/1 228/228/1
v 0.832476 0.0075 0.73125
vt 0.832476 0.26875
v 0.767524 0.0075 0.76875
vt 0.767524 0.23125
v 0.78125 0.0075 0.782476
vt 0.78125 0.217524
f 229/229/1 230/230/1 231/231/1
v 0.832476 0.0075 0.73125
vt 0.832476 0.26875
v 0.7625 0.0075 0.75
vt 0.7625 0.25
v 0.767524 0.0075 0.76875
vt 0.767524 0.23125
f 232/232/1 233/233/1 234/234/1
v 0.832476 0.0075 0.73125
vt 0.832476 0.26875
v 0.767524 0.0075 0.73125
vt 0.767524 0.26875
v 0.7625 0.0075 0.75
vt 0.7625 0.25
f 235/235/1 236/236/1 237/237/1
v 0.832476 0.0075 0.73125
vt 0.832476 0.26875
v 0.78125 0.0075 0.717524
vt 0.78125 0.282476
v 0.767524 0.0075 0.73125
vt 0.767524 0.26875
f 238/238/1 239/239/1 240/240/1
v 0.832476 0.0075 0.73125
vt 0.832476 0.26875
v 0.8 0.0075 0.7125
vt 0.8 0.2875
v 0.78125 0.0075 0.717524
vt 0.78125 0.282476
f 241/241/1 242/242/1 243/243/1
v 0.8 0.0075 0.7125
vt 0.8 0.2875
v 0.832476 0.0075 0.73125
vt 0.832476 0.26875
v 0.81875 0.0075 0.717524
vt 0.81875 0.282476
f 244/244/1 245/245/1 246/246/1
v 0.45 0.0075 0.4575
vt 0.45 0.5425
v 0.6 0.0075 0.3825
vt 0.6 0.6175
v 0.45 0.0075 0.3825
vt 0.45 0.6175
f 247/247/1 248/248/1 249/249/1
v 0.6 0.0075 0.3825
vt 0.6 0.6175
v 0.45 0.0075 0.4575
vt 0.45 0.5425
v 0.6 0.0075 0.4575
vt 0.6 0.5425
f 250/250/1 251/251/1 252/252/1
v 0.482476 0.0075 0.40125
vt 0.482476 0.59875
v 0.482476 0.0075 0.43875
vt 0.482476 0.56125
v 0.4875 0.0075 0.42
vt 0.4875 0.58
f 253/253/1 254/254/1 255/255/1
v 0.482476 0.0075 0.40125
vt 0.482476 0.59875
v 0.46875 0.0075 0.452476
vt 0.46875 0.547524
v 0.482476 0.0075 0.43875
vt 0.482476 0.56125
f 256/256/1 257/257/1 258/258/1
v 0.482476 0.0075 0.40125
vt 0.482476 0.59875
v 0.45 0.0075 0.4575
vt 0.45 0.5425
v 0.46875 0.0075 0.452476
vt 0.46875 0.547524
f 259/259/1 260/260/1 261/261/1
v 0.482476 0.0075 0.40125
vt 0.482476 0.59875
v 0.43125 0.0075 0.452476
vt 0.43125 0.547524
v 0.45 0.0075 0.4575
vt 0.45 0.5425
f 262/262/1 263/263/1 264/264/1
v 0.482476 0.0075 0.40125
vt 0.482476 0.59875
v 0.417524 0.0075 0.43875
vt 0.417524 0.56125
v 0.43125 0.0075 0.452476
vt 0.43125 0.547524
f 265/265/1 266/266/1 267/267/1
v 0.482476 0.0075 0.40125
vt 0.482476 0.59875
v 0.4125 0.0075 0.42
vt 0.4125 0.58
v 0.417524 0.0075 0.43875
vt 0.417524 0.56125
f 268/268/1 269/269/1 270/270/1
v 0.482476 0.0075 0.40125
vt 0.482476 0.59875
v 0.417524 0.0075 0.40125
vt 0.417524 0.59875
v 0.4125 0.0075 0.42
vt 0.4125 0.58
f 271/271/1 272/272/1 273/273/1
v 0.482476 0.0075 0.40125
vt 0.482476 0.59875
v 0.43125 0.0075 0.387524
vt 0.43125 0.612476
v 0.417524 0.0075 0.40125
vt 0.417524 0.59875
f 274/274/1 275/275/1 276/276/1
v 0.482476 0.0075 0.40125
vt 0.482476 0.59875
v 0.45 0.0075 0.3825
vt 0.45 0.6175
v 0.43125 0.0075 0.387524
vt 0.43125 0.612476
f 277/277/1 278/278/1 279/279/1
v 0.45 0.0075 0.3825
vt 0.45 0.6175
v 0.482476 0.0075 0.40125
vt 0.482476 0.59875
v 0.46875 0.0075 0.387524
vt 0.46875 0.612476
f 280/280/1 281/281/1 282/282/1
v 0.632476 0.0075 0.40125
vt 0.632476 0.59875
v 0.632476 0.0075 0.43875
vt 0.632476 0.56125
v 0.6375 0.0075 0.42
vt 0.6375 0.58
f 283/283/1 284/284/1 285/285/1
v 0.632476 0.0075 0.40125
vt 0.632476 0.59875
v 0.61875 0.0075 0.452476
vt 0.61875 0.547524
v 0.632476 0.0075 0.43875
vt 0.632476 0.56125
f 286/286/1 287/287/1 288/288/1
v 0.632476 0.0075 0.40125
vt 0.632476 0.59875
v 0.6 0.0075 0.4575
vt 0.6 0.5425
v 0.61875 0.0075 0.452476
vt 0.61875 0.547524
f 289/289/1 290/290/1 291/291/1
v 0.632476 0.0075 0.40125
vt 0.632476 0.59875
v 0.58125 0.0075 0.452476
vt 0.58125 0.547524
v 0.6 0.0075 0.4575
vt 0.6 0.5425
f 292/292/1 293/293/1 294/294/1
v 0.632476 0.0075 0.40125
vt 0.632476 0.59875
v 0.567524 0.0075 0.43875
vt 0.567524 0.56125
v 0.58125 0.0075 0.452476
vt 0.58125 0.547524
f 295/295/1 296/296/1 297/297/1
v 0.632476 0.0075 0.40125
vt 0.632476 0.59875
v 0.5625 0.0075 0.42
vt 0.5625 0.58
v 0.567524 0.0075 0.43875
vt 0.567524 0.56125
f 298/298/1 299/299/1 300/300/1
v 0.632476 0.0075 0.40125
vt 0.632476 0.59875
v 0.567524 0.0075 0.40125
vt 0.567524 0.59875
v 0.5625 0.0075 0.42
vt 0.5625 0.58
f 301/301/1 302/302/1 303/303/1
v 0.632476 0.0075 0.40125
vt 0.632476 0.59875
v 0.58125 0.0075 0.387524
vt 0.58125 0.612476
v 0.567524 0.0075 0.40125
vt 0.567524 0.59875
f 304/304/1 305/305/1 306/306/1
v 0.632476 0.0075 0.40125
vt 0.632476 0.59875
v 0.6 0.0075 0.3825
vt 0.6 0.6175
v 0.58125 0.0075 0.387524
vt 0.58125 0.612476
f 307/307/1 308/308/1 309/309/1
v 0.6 0.0075 0.3825
vt 0.6 0.6175
v 0.632476 0.0075 0.40125
vt 0.632476 0.59875
v 0.61875 0.0075 0.387524
vt 0.61875 0.612476
f 310/310/1 311/311/1 312/312/1
v 0.518374 0.0075 0.481355
vt 0.518374 0.518645
v 0.524418 0.0075 0.415068
vt 0.524418 0.584932
v 0.497178 0.0075 0.468529
vt 0.497178 0.531471
f 313/313/1 314/314/1 315/315/1
v 0.524418 0.0075 0.415068
vt 0.524418 0.584932
v 0.518374 0.0075 0.481355
vt 0.518374 0.518645
v 0.553094 0.0075 0.432421
vt 0.553094 0.567579
f 316/316/1 317/317/1 318/318/1
v 0.537481 0.0075 0.497125
vt 0.537481 0.502875
v 0.553094 0.0075 0.432421
vt 0.553094 0.567579
v 0.518374 0.0075 0.481355
vt 0.518374 0.518645
f 319/319/1 320/320/1 321/321/1
v 0.553094 0.0075 0.432421
vt 0.553094 0.567579
v 0.537481 0.0075 0.497125
vt 0.537481 0.502875
v 0.578944 0.0075 0.453757
vt 0.578944 0.546243
f 322/322/1 323/323/1 324/324/1
v 0.554092 0.0075 0.515505
vt 0.554092 0.484495
v 0.578944 0.0075 0.453757
vt 0.578944 0.546243
v 0.537481 0.0075 0.497125
vt 0.537481 0.502875
f 325/325/1 326/326/1 327/327/1
v 0.578944 0.0075 0.453757
vt 0.578944 0.546243
v 0.554092 0.0075 0.515505
vt 0.554092 0.484495
v 0.601419 0.0075 0.478624
vt 0.601419 0.521376
f 328/328/1 329/329/1 330/330/1
v 0.567856 0.0075 0.536104
vt 0.567856 0.463896
v 0.601419 0.0075 0.478624
vt 0.601419 0.521376
v 0.554092 0.0075 0.515505
vt 0.554092 0.484495
f 331/331/1 332/332/1 333/333/1
v 0.601419 0.0075 0.478624
vt 0.601419 0.521376
v 0.567856 0.0075 0.536104
vt 0.567856 0.463896
v 0.62004 0.0075 0.506493
vt 0.62004 0.493507
f 334/334/1 335/335/1 336/336/1
v 0.57848 0.0075 0.558484
vt 0.57848 0.441516
v 0.62004 0.0075 0.506493
vt 0.62004 0.493507
v 0.567856 0.0075 0.536104
vt 0.567856 0.463896
f 337/337/1 338/338/1 339/339/1
v 0.62004 0.0075 0.506493
vt 0.62004 0.493507
v 0.57848 0.0075 0.558484
vt 0.57848 0.441516
v 0.634414 0.0075 0.536773
vt 0.634414 0.463227
f 340/340/1 341/341/1 342/342/1
v 0.585738 0.0075 0.582171
vt 0.585738 0.417829
v 0.634414 0.0075 0.536773
vt 0.634414 0.463227
v 0.57848 0.0075 0.558484
vt 0.57848 0.441516
f 343/343/1 344/344/1 345/345/1
v 0.634414 0.0075 0.536773
vt 0.634414 0.463227
v 0.585738 0.0075 0.582171
vt 0.585738 0.417829
v 0.644233 0.0075 0.56882
vt 0.644233 0.43118
f 346/346/1 347/347/1 348/348/1
v 0.589476 0.0075 0.606662
vt 0.589476 0.393338
v 0.644233 0.0075 0.56882
vt 0.644233 0.43118
v 0.585738 0.0075 0.582171
vt 0.585738 0.417829
f 349/349/1 350/350/1 351/351/1
v 0.644233 0.0075 0.56882
vt 0.644233 0.43118
v 0.589476 0.0075 0.606662
vt 0.589476 0.393338
v 0.649291 0.0075 0.601954
vt 0.649291 0.398046
f 352/352/1 353/353/1 354/354/1
v 0.589615 0.0075 0.631436
vt 0.589615 0.368564
v 0.649291 0.0075 0.601954
vt 0.649291 0.398046
v 0.589476 0.0075 0.606662
vt 0.589476 0.393338
f 355/355/1 356/356/1 357/357/1
v 0.649291 0.0075 0.601954
vt 0.649291 0.398046
v 0.589615 0.0075 0.631436
vt 0.589615 0.368564
v 0.649479 0.0075 0.635472
vt 0.649479 0.364528
f 358/358/1 359/359/1 360/360/1
v 0.586152 0.0075 0.655967
vt 0.586152 0.344033
v 0.649479 0.0075 0.635472
vt 0.649479 0.364528
v 0.589615 0.0075 0.631436
vt 0.589615 0.368564
f 361/361/1 362/362/1 363/363/1
v 0.649479 0.0075 0.635472
vt 0.649479 0.364528
v 0.586152 0.0075 0.655967
vt 0.586152 0.344033
v 0.644794 0.0075 0.668661
vt 0.644794 0.331339
f 364/364/1 365/365/1 366/366/1
v 0.57916 0.0075 0.679734
vt 0.57916 0.320266
v 0.644794 0.0075 0.668661
vt 0.644794 0.331339
v 0.586152 0.0075 0.655967
vt 0.586152 0.344033
f 367/367/1 368/368/1 369/369/1
v 0.644794 0.0075 0.668661
vt 0.644794 0.331339
v 0.57916 0.0075 0.679734
vt 0.57916 0.320266
v 0.635334 0.0075 0.700816
vt 0.635334 0.299184
f 370/370/1 371/371/1 372/372/1
v 0.568788 0.0075 0.702232
vt 0.568788 0.297768
v 0.635334 0.0075 0.700816
vt 0.635334 0.299184
v 0.57916 0.0075 0.679734
vt 0.57916 0.320266
f 373/373/1 374/374/1 375/375/1
v 0.635334 0.0075 0.700816
vt 0.635334 0.299184
v 0.568788 0.0075 0.702232
vt 0.568788 0.297768
v 0.621301 0.0075 0.731255
vt 0.621301 0.268745
f 376/376/1 377/377/1 378/378/1
v 0.555256 0.0075 0.722984
vt 0.555256 0.277016
v 0.621301 0.0075 0.731255
vt 0.621301 0.268745
v 0.568788 0.0075 0.702232
vt 0.568788 0.297768
f 379/379/1 380/380/1 381/381/1
v 0.621301 0.0075 0.731255
vt 0.621301 0.268745
v 0.555256 0.0075 0.722984
vt 0.555256 0.277016
v 0.602994 0.0075 0.759332
vt 0.602994 0.240668
f 382/382/1 383/383/1 384/384/1
v 0.538852 0.0075 0.741549
vt 0.538852 0.258451
v 0.602994 0.0075 0.759332
vt 0.602994 0.240668
v 0.555256 0.0075 0.722984
vt 0.555256 0.277016
f 385/385/1 386/386/1 387/387/1
v 0.602994 0.0075 0.759332
vt 0.602994 0.240668
v 0.538852 0.0075 0.741549
vt 0.538852 0.258451
v 0.5808 0.0075 0.784449
vt 0.5808 0.215551
f 388/388/1 389/389/1 390/390/1
v 0.519923 0.0075 0.757533
vt 0.519923 0.242467
v 0.5808 0.0075 0.784449
vt 0.5808 0.215551
v 0.538852 0.0075 0.741549
vt 0.538852 0.258451
f 391/391/1 392/392/1 393/393/1
v 0.5808 0.0075 0.784449
vt 0.5808 0.215551
v 0.519923 0.0075 0.757533
vt 0.519923 0.242467
v 0.555191 0.0075 0.806074
vt 0.555191 0.193926
f 394/394/1 395/395/1 396/396/1
v 0.498873 0.0075 0.770596
vt 0.498873 0.229404
v 0.555191 0.0075 0.806074
vt 0.555191 0.193926
v 0.519923 0.0075 0.757533
vt 0.519923 0.242467
f 397/397/1 398/398/1 399/399/1
v 0.555191 0.0075 0.806074
vt 0.555191 0.193926
v 0.498873 0.0075 0.770596
vt 0.498873 0.229404
v 0.526711 0.0075 0.823747
vt 0.526711 0.176253
f 400/400/1 401/401/1 402/402/1
v 0.476147 0.0075 0.78046
vt 0.476147 0.21954
v 0.526711 0.0075 0.823747
vt 0.526711 0.176253
v 0.498873 0.0075 0.770596
vt 0.498873 0.229404
f 403/403/1 404/404/1 405/405/1
v 0.526711 0.0075 0.823747
vt 0.526711 0.176253
v 0.476147 0.0075 0.78046
vt 0.476147 0.21954
v 0.495964 0.0075 0.837093
vt 0.495964 0.162907
f 406/406/1 407/407/1 408/408/1
v 0.452229 0.0075 0.786917
vt 0.452229 0.213083
v 0.495964 0.0075 0.837093
vt 0.495964 0.162907
v 0.476147 0.0075 0.78046
vt 0.476147 0.21954
f 409/409/1 410/410/1 411/411/1
v 0.495964 0.0075 0.837093
vt 0.495964 0.162907
v 0.452229 0.0075 0.786917
vt 0.452229 0.213083
v 0.463605 0.0075 0.845829
vt 0.463605 0.154171
f 412/412/1 413/413/1 414/414/1
v 0.427627 0.0075 0.789829
vt 0.427627 0.210171
v 0.463605 0.0075 0.845829
vt 0.463605 0.154171
v 0.452229 0.0075 0.786917
vt 0.452229 0.213083
f 415/415/1 416/416/1 417/417/1
v 0.463605 0.0075 0.845829
vt 0.463605 0.154171
v 0.427627 0.0075 0.789829
vt 0.427627 0.210171
v 0.430319 0.0075 0.849768
vt 0.430319 0.150232
f 418/418/1 419/419/1 420/420/1
v 0.402863 0.0075 0.789134
vt 0.402863 0.210866
v 0.430319 0.0075 0.849768
vt 0.430319 0.150232
v 0.427627 0.0075 0.789829
vt 0.427627 0.210171
f 421/421/1 422/422/1 423/423/1
v 0.430319 0.0075 0.849768
vt 0.430319 0.150232
v 0.402863 0.0075 0.789134
vt 0.402863 0.210866
v 0.396814 0.0075 0.848828
vt 0.396814 0.151172
f 424/424/1 425/425/1 426/426/1
v 0.378462 0.0075 0.784847
vt 0.378462 0.215153
v 0.396814 0.0075 0.848828
vt 0.396814 0.151172
v 0.402863 0.0075 0.789134
vt 0.402863 0.210866
f 427/427/1 428/428/1 429/429/1
v 0.396814 0.0075 0.848828
vt 0.396814 0.151172
v 0.378462 0.0075 0.784847
vt 0.378462 0.215153
v 0.363802 0.0075 0.843029
vt 0.363802 0.156971
f 430/430/1 431/431/1 432/432/1
v 0.354944 0.0075 0.77706
vt 0.354944 0.22294
v 0.363802 0.0075 0.843029
vt 0.363802 0.156971
v 0.378462 0.0075 0.784847
vt 0.378462 0.215153
f 433/433/1 434/434/1 435/435/1
v 0.363802 0.0075 0.843029
vt 0.363802 0.156971
v 0.354944 0.0075 0.77706
vt 0.354944 0.22294
v 0.331983 0.0075 0.832492
vt 0.331983 0.167508
f 436/436/1 437/437/1 438/438/1
v 0.332807 0.0075 0.765936
vt 0.332807 0.234064
v 0.331983 0.0075 0.832492
vt 0.331983 0.167508
v 0.354944 0.0075 0.77706
vt 0.354944 0.22294
f 439/439/1 440/440/1 441/441/1
v 0.331983 0.0075 0.832492
vt 0.331983 0.167508
v 0.332807 0.0075 0.765936
vt 0.332807 0.234064
v 0.302033 0.0075 0.817443
vt 0.302033 0.182557
f 442/442/1 443/443/1 444/444/1
v 0.312522 0.0075 0.751714
vt 0.312522 0.248286
v 0.302033 0.0075 0.817443
vt 0.302033 0.182557
v 0.332807 0.0075 0.765936
vt 0.332807 0.234064
f 445/445/1 446/446/1 447/447/1
v 0.302033 0.0075 0.817443
vt 0.302033 0.182557
v 0.312522 0.0075 0.751714
vt 0.312522 0.248286
v 0.274589 0.0075 0.798201
vt 0.274589 0.201799
f 448/448/1 449/449/1 450/450/1
v 0.29452 0.0075 0.734694
vt 0.29452 0.265306
v 0.274589 0.0075 0.798201
vt 0.274589 0.201799
v 0.312522 0.0075 0.751714
vt 0.312522 0.248286
f 451/451/1 452/452/1 453/453/1
v 0.274589 0.0075 0.798201
vt 0.274589 0.201799
v 0.29452 0.0075 0.734694
vt 0.29452 0.265306
v 0.250233 0.0075 0.775174
vt 0.250233 0.224826
f 454/454/1 455/455/1 456/456/1
v 0.279182 0.0075 0.715238
vt 0.279182 0.284762
v 0.250233 0.0075 0.775174
vt 0.250233 0.224826
v 0.29452 0.0075 0.734694
vt 0.29452 0.265306
f 457/457/1 458/458/1 459/459/1
v 0.250233 0.0075 0.775174
vt 0.250233 0.224826
v 0.279182 0.0075 0.715238
vt 0.279182 0.284762
v 0.229482 0.0075 0.748852
vt 0.229482 0.251148
f 460/460/1 461/461/1 462/462/1
v 0.266835 0.0075 0.69376
vt 0.266835 0.30624
v 0.229482 0.0075 0.748852
vt 0.229482 0.251148
v 0.279182 0.0075 0.715238
vt 0.279182 0.284762
f 463/463/1 464/464/1 465/465/1
v 0.229482 0.0075 0.748852
vt 0.229482 0.251148
v 0.266835 0.0075 0.69376
vt 0.266835 0.30624
v 0.212777 0.0075 0.719793
vt 0.212777 0.280207
f 466/466/1 467/467/1 468/468/1
v 0.257741 0.0075 0.670716
vt 0.257741 0.329284
v 0.212777 0.0075 0.719793
vt 0.212777 0.280207
v 0.266835 0.0075 0.69376
vt 0.266835 0.30624
f 469/469/1 470/470/1 471/471/1
v 0.212777 0.0075 0.719793
vt 0.212777 0.280207
v 0.257741 0.0075 0.670716
vt 0.257741 0.329284
v 0.200473 0.0075 0.688615
vt 0.200473 0.311385
f 472/472/1 473/473/1 474/474/1
v 0.252093 0.0075 0.646594
vt 0.252093 0.353406
v 0.200473 0.0075 0.688615
vt 0.200473 0.311385
v 0.257741 0.0075 0.670716
vt 0.257741 0.329284
f 475/475/1 476/476/1 477/477/1
v 0.200473 0.0075 0.688615
vt 0.200473 0.311385
v 0.252093 0.0075 0.646594
vt 0.252093 0.353406
v 0.192832 0.0075 0.65598
vt 0.192832 0.34402
f 478/478/1 479/479/1 480/480/1
v 0.536779 0.0075 0.426799
vt 0.536779 0.573201
v 0.536779 0.0075 0.456799
vt 0.536779 0.543201
v 0.540798 0.0075 0.441799
vt 0.540798 0.558201
f 481/481/1 482/482/1 483/483/1
v 0.536779 0.0075 0.426799
vt 0.536779 0.573201
v 0.525798 0.0075 0.467779
vt 0.525798 0.532221
v 0.536779 0.0075 0.456799
vt 0.536779 0.543201
f 484/484/1 485/485/1 486/486/1
v 0.536779 0.0075 0.426799
vt 0.536779 0.573201
v 0.510798 0.0075 0.471799
vt 0.510798 0.528201
v 0.525798 0.0075 0.467779
vt 0.525798 0.532221
f 487/487/1 488/488/1 489/489/1
v 0.536779 0.0075 0.426799
vt 0.536779 0.573201
v 0.495798 0.0075 0.467779
vt 0.495798 0.532221
v 0.510798 0.0075 0.471799
vt 0.510798 0.528201
f 490/490/1 491/491/1 492/492/1
v 0.536779 0.0075 0.426799
vt 0.536779 0.573201
v 0.484817 0.0075 0.456799
vt 0.484817 0.543201
v 0.495798 0.0075 0.467779
vt 0.495798 0.532221
f 493/493/1 494/494/1 495/495/1
v 0.536779 0.0075 0.426799
vt 0.536779 0.573201
v 0.480798 0.0075 0.441799
vt 0.480798 0.558201
v 0.484817 0.0075 0.456799
vt 0.484817 0.543201
f 496/496/1 497/497/1 498/498/1
v 0.536779 0.0075 0.426799
vt 0.536779 0.573201
v 0.484817 0.0075 0.426799
vt 0.484817 0.573201
v 0.480798 0.0075 0.441799
vt 0.480798 0.558201
f 499/499/1 500/500/1 501/501/1
v 0.536779 0.0075 0.426799
vt 0.536779 0.573201
v 0.495798 0.0075 0.415818
vt 0.495798 0.584182
v 0.484817 0.0075 0.426799
vt 0.484817 0.573201
f 502/502/1 503/503/1 504/504/1
v 0.536779 0.0075 0.426799
vt 0.536779 0.573201
v 0.510798 0.0075 0.411799
vt 0.510798 0.588201
v 0.495798 0.0075 0.415818
vt 0.495798 0.584182
f 505/505/1 506/506/1 507/507/1
v 0.510798 0.0075 0.411799
vt 0.510798 0.588201
v 0.536779 0.0075 0.426799
vt 0.536779 0.573201
v 0.525798 0.0075 0.415818
vt 0.525798 0.584182
f 508/508/1 509/509/1 510/510/1
v 0.248443 0.0075 0.636287
vt 0.248443 0.363713
v 0.248443 0.0075 0.666287
vt 0.248443 0.333713
v 0.252462 0.0075 0.651287
vt 0.252462 0.348713
f 511/511/1 512/512/1 513/513/1
v 0.248443 0.0075 0.636287
vt 0.248443 0.363713
v 0.237462 0.0075 0.677268
vt 0.237462 0.322732
v 0.248443 0.0075 0.666287
vt 0.248443 0.333713
f 514/514/1 515/515/1 516/516/1
v 0.248443 0.0075 0.636287
vt 0.248443 0.363713
v 0.222462 0.0075 0.681287
vt 0.222462 0.318713
v 0.237462 0.0075 0.677268
vt 0.237462 0.322732
f 517/517/1 518/518/1 519/519/1
v 0.248443 0.0075 0.636287
vt 0.248443 0.363713
v 0.207462 0.0075 0.677268
vt 0.207462 0.322732
v 0.222462 0.0075 0.681287
vt 0.222462 0.318713
f 520/520/1 521/521/1 522/522/1
v 0.248443 0.0075 0.636287
vt 0.248443 0.363713
v 0.196482 0.0075 0.666287
vt 0.196482 0.333713
v 0.207462 0.0075 0.677268
vt 0.207462 0.322732
f 523/523/1 524/524/1 525/525/1
v 0.248443 0.0075 0.636287
vt 0.248443 0.363713
v 0.192462 0.0075 0.651287
vt 0.192462 0.348713
v 0.196482 0.0075 0.666287
vt 0.196482 0.333713
f 526/526/1 527/527/1 528/528/1
v 0.248443 0.0075 0.636287
vt 0.248443 0.363713
v 0.196482 0.0075 0.636287
vt 0.196482 0.363713
v 0.192462 0.0075 0.651287
vt 0.192462 0.348713
f 529/529/1 530/530/1 531/531/1
v 0.248443 0.0075 0.636287
vt 0.248443 0.363713
v 0.207462 0.0075 0.625306
vt 0.207462 0.374694
v 0.196482 0.0075 0.636287
vt 0.196482 0.363713
f 532/532/1 533/533/1 534/534/1
v 0.248443 0.0075 0.636287
vt 0.248443 0.363713
v 0.222462 0.0075 0.621287
vt 0.222462 0.378713
v 0.207462 0.0075 0.625306
vt 0.207462 0.374694
f 535/535/1 536/536/1 537/537/1
v 0.222462 0.0075 0.621287
vt 0.222462 0.378713
v 0.248443 0.0075 0.636287
vt 0.248443 0.363713
v 0.237462 0.0075 0.625306
vt 0.237462 0.374694
f 538/538/1 539/539/1 540/540/1
