# AFL Pavement Markings V1 pavement_arrow_straight_0, generated by tools/build-pavement-markings-v1.mjs
mtllib pavement_arrow_straight_0.mtl
o pavement_arrow_straight_0
vn 0 1 0
usemtl white
v 0.5 0.00625 0.1
vt 0.5 0.9
v 0.613684 0.00625 1
vt 0.613684 0
v 0.926316 0.00625 1
vt 0.926316 0
f 1/1/1 2/2/1 3/3/1
v 0.5 0.00625 0.1
vt 0.5 0.9
v 0.538571 0.00625 1
vt 0.538571 0
v 0.613684 0.00625 1
vt 0.613684 0
f 4/4/1 5/5/1 6/6/1
v 0.5 0.00625 0.1
vt 0.5 0.9
v 0.461429 0.00625 1
vt 0.461429 0
v 0.538571 0.00625 1
vt 0.538571 0
f 7/7/1 8/8/1 9/9/1
v 0.5 0.00625 0.1
vt 0.5 0.9
v 0.386316 0.00625 1
vt 0.386316 0
v 0.461429 0.00625 1
vt 0.461429 0
f 10/10/1 11/11/1 12/12/1
v 0.5 0.00625 0.1
vt 0.5 0.9
v 0.073684 0.00625 1
vt 0.073684 0
v 0.386316 0.00625 1
vt 0.386316 0
f 13/13/1 14/14/1 15/15/1
