# AFL Pavement Markings V1 pavement_arrow_straight_1, generated by tools/build-pavement-markings-v1.mjs
mtllib pavement_arrow_straight_1.mtl
o pavement_arrow_straight_1
vn 0 1 0
usemtl white
v 0.926316 0.00625 0
vt 0.926316 1
v 0.62 0.00625 0.05
vt 0.62 0.95
v 0.95 0.00625 0.05
vt 0.95 0.95
f 1/1/1 2/2/1 3/3/1
v 0.926316 0.00625 0
vt 0.926316 1
v 0.613684 0.00625 0
vt 0.613684 1
v 0.62 0.00625 0.05
vt 0.62 0.95
f 4/4/1 5/5/1 6/6/1
v 0.613684 0.00625 0
vt 0.613684 1
v 0.62 0.00625 1
vt 0.62 0
v 0.62 0.00625 0.05
vt 0.62 0.95
f 7/7/1 8/8/1 9/9/1
v 0.613684 0.00625 0
vt 0.613684 1
v 0.581429 0.00625 1
vt 0.581429 0
v 0.62 0.00625 1
vt 0.62 0
f 10/10/1 11/11/1 12/12/1
v 0.613684 0.00625 0
vt 0.613684 1
v 0.538571 0.00625 0
vt 0.538571 1
v 0.581429 0.00625 1
vt 0.581429 0
f 13/13/1 14/14/1 15/15/1
v 0.538571 0.00625 0
vt 0.538571 1
v 0.418571 0.00625 1
vt 0.418571 0
v 0.581429 0.00625 1
vt 0.581429 0
f 16/16/1 17/17/1 18/18/1
v 0.538571 0.00625 0
vt 0.538571 1
v 0.461429 0.00625 0
vt 0.461429 1
v 0.418571 0.00625 1
vt 0.418571 0
f 19/19/1 20/20/1 21/21/1
v 0.461429 0.00625 0
vt 0.461429 1
v 0.38 0.00625 1
vt 0.38 0
v 0.418571 0.00625 1
vt 0.418571 0
f 22/22/1 23/23/1 24/24/1
v 0.461429 0.00625 0
vt 0.461429 1
v 0.38 0.00625 0.05
vt 0.38 0.95
v 0.38 0.00625 1
vt 0.38 0
f 25/25/1 26/26/1 27/27/1
v 0.461429 0.00625 0
vt 0.461429 1
v 0.386316 0.00625 0
vt 0.386316 1
v 0.38 0.00625 0.05
vt 0.38 0.95
f 28/28/1 29/29/1 30/30/1
v 0.386316 0.00625 0
vt 0.386316 1
v 0.05 0.00625 0.05
vt 0.05 0.95
v 0.38 0.00625 0.05
vt 0.38 0.95
f 31/31/1 32/32/1 33/33/1
v 0.386316 0.00625 0
vt 0.386316 1
v 0.073684 0.00625 0
vt 0.073684 1
v 0.05 0.00625 0.05
vt 0.05 0.95
f 34/34/1 35/35/1 36/36/1
