# AFL Pavement Markings V1 pavement_arrow_turn_1, generated by tools/build-pavement-markings-v1.mjs
mtllib pavement_arrow_turn_1.mtl
o pavement_arrow_turn_1
vn 0 1 0
usemtl white
v 0 0.00625 1
vt 0 0
v 0.043989 0.00625 1
vt 0.043989 0
v 0 0.00625 0.962558
vt 0 0.037442
f 1/1/1 2/2/1 3/3/1
v 0.043989 0.00625 1
vt 0.043989 0
v 0 0.00625 0.959327
vt 0 0.040673
v 0 0.00625 0.962558
vt 0 0.037442
f 4/4/1 5/5/1 6/6/1
v 0.043989 0.00625 1
vt 0.043989 0
v 0.051712 0.00625 1
vt 0.051712 0
v 0 0.00625 0.959327
vt 0 0.040673
f 7/7/1 8/8/1 9/9/1
v 0.051712 0.00625 1
vt 0.051712 0
v 0 0.00625 0.95761
vt 0 0.04239
v 0 0.00625 0.959327
vt 0 0.040673
f 10/10/1 11/11/1 12/12/1
v 0.051712 0.00625 1
vt 0.051712 0
v 0.056356 0.00625 1
vt 0.056356 0
v 0 0.00625 0.95761
vt 0 0.04239
f 13/13/1 14/14/1 15/15/1
v 0.056356 0.00625 1
vt 0.056356 0
v 0 0.00625 0.957021
vt 0 0.042979
v 0 0.00625 0.95761
vt 0 0.04239
f 16/16/1 17/17/1 18/18/1
v 0.056356 0.00625 1
vt 0.056356 0
v 0.058047 0.00625 1
vt 0.058047 0
v 0 0.00625 0.957021
vt 0 0.042979
f 19/19/1 20/20/1 21/21/1
v 0.058047 0.00625 1
vt 0.058047 0
v 0 0.00625 0.92
vt 0 0.08
v 0 0.00625 0.957021
vt 0 0.042979
f 22/22/1 23/23/1 24/24/1
v 0.058047 0.00625 1
vt 0.058047 0
v 0.2 0.00625 0.92
vt 0.2 0.08
v 0 0.00625 0.92
vt 0 0.08
f 25/25/1 26/26/1 27/27/1
v 0.058047 0.00625 1
vt 0.058047 0
v 0.234083 0.00625 1
vt 0.234083 0
v 0.2 0.00625 0.92
vt 0.2 0.08
f 28/28/1 29/29/1 30/30/1
v 0.234083 0.00625 1
vt 0.234083 0
v 0.237565 0.00625 1
vt 0.237565 0
v 0.2 0.00625 0.92
vt 0.2 0.08
f 31/31/1 32/32/1 33/33/1
v 0.237565 0.00625 1
vt 0.237565 0
v 0.239222 0.00625 1
vt 0.239222 0
v 0.2 0.00625 0.92
vt 0.2 0.08
f 34/34/1 35/35/1 36/36/1
v 0.239222 0.00625 1
vt 0.239222 0
v 0.23934 0.00625 1
vt 0.23934 0
v 0.2 0.00625 0.92
vt 0.2 0.08
f 37/37/1 38/38/1 39/39/1
v 0.23934 0.00625 1
vt 0.23934 0
v 0.2798 0.00625 0.9243
vt 0.2798 0.0757
v 0.2 0.00625 0.92
vt 0.2 0.08
f 40/40/1 41/41/1 42/42/1
v 0.23934 0.00625 1
vt 0.23934 0
v 0.299139 0.00625 1
vt 0.299139 0
v 0.2798 0.00625 0.9243
vt 0.2798 0.0757
f 43/43/1 44/44/1 45/45/1
v 0.299139 0.00625 1
vt 0.299139 0
v 0.299504 0.00625 1
vt 0.299504 0
v 0.2798 0.00625 0.9243
vt 0.2798 0.0757
f 46/46/1 47/47/1 48/48/1
v 0.299504 0.00625 1
vt 0.299504 0
v 0.3512 0.00625 0.9372
vt 0.3512 0.0628
v 0.2798 0.00625 0.9243
vt 0.2798 0.0757
f 49/49/1 50/50/1 51/51/1
v 0.299504 0.00625 1
vt 0.299504 0
v 0.355139 0.00625 1
vt 0.355139 0
v 0.3512 0.00625 0.9372
vt 0.3512 0.0628
f 52/52/1 53/53/1 54/54/1
v 0.355139 0.00625 1
vt 0.355139 0
v 0.355701 0.00625 1
vt 0.355701 0
v 0.3512 0.00625 0.9372
vt 0.3512 0.0628
f 55/55/1 56/56/1 57/57/1
v 0.355701 0.00625 1
vt 0.355701 0
v 0.3598 0.00625 1
vt 0.3598 0
v 0.3512 0.00625 0.9372
vt 0.3512 0.0628
f 58/58/1 59/59/1 60/60/1
v 0.3598 0.00625 1
vt 0.3598 0
v 0.4142 0.00625 0.9587
vt 0.4142 0.0413
v 0.3512 0.00625 0.9372
vt 0.3512 0.0628
f 61/61/1 62/62/1 63/63/1
v 0.3598 0.00625 1
vt 0.3598 0
v 0.418578 0.00625 1
vt 0.418578 0
v 0.4142 0.00625 0.9587
vt 0.4142 0.0413
f 64/64/1 65/65/1 66/66/1
v 0.418578 0.00625 1
vt 0.418578 0
v 0.4688 0.00625 0.9888
vt 0.4688 0.0112
v 0.4142 0.00625 0.9587
vt 0.4142 0.0413
f 67/67/1 68/68/1 69/69/1
v 0.418578 0.00625 1
vt 0.418578 0
v 0.469686 0.00625 1
vt 0.469686 0
v 0.4688 0.00625 0.9888
vt 0.4688 0.0112
f 70/70/1 71/71/1 72/72/1
v 0.469686 0.00625 1
vt 0.469686 0
v 0.482171 0.00625 1
vt 0.482171 0
v 0.4688 0.00625 0.9888
vt 0.4688 0.0112
f 73/73/1 74/74/1 75/75/1
