# AFL Pavement Markings V1 pavement_arrow_turn_2_mirrored, generated by tools/build-pavement-markings-v1.mjs
mtllib pavement_arrow_turn_2_mirrored.mtl
o pavement_arrow_turn_2_mirrored
vn 0 1 0
usemtl white
v 0.855556 0.00625 0
vt 0.855556 1
v 0.63 0.00625 0
vt 0.63 1
v 0.92 0.00625 0.04
vt 0.92 0.96
f 1/1/1 2/2/1 3/3/1
v 0.63 0.00625 0
vt 0.63 1
v 0.263567 0.00625 0
vt 0.263567 1
v 0.92 0.00625 0.04
vt 0.92 0.96
f 4/4/1 5/5/1 6/6/1
v 0.92 0.00625 0.04
vt 0.92 0.96
v 0.05 0.00625 0.16
vt 0.05 0.84
v 0.05 0.00625 0.58
vt 0.05 0.42
f 7/7/1 8/8/1 9/9/1
v 0.263567 0.00625 0
vt 0.263567 1
v 0.05 0.00625 0.16
vt 0.05 0.84
v 0.92 0.00625 0.04
vt 0.92 0.96
f 10/10/1 11/11/1 12/12/1
v 0.263567 0.00625 0
vt 0.263567 1
v 0 0.00625 0.138318
vt 0 0.861682
v 0.05 0.00625 0.16
vt 0.05 0.84
f 13/13/1 14/14/1 15/15/1
v 0.263567 0.00625 0
vt 0.263567 1
v 0 0.00625 0
vt 0 1
v 0 0.00625 0.138318
vt 0 0.861682
f 16/16/1 17/17/1 18/18/1
v 0 0.00625 0.138318
vt 0 0.861682
v 0 0.00625 0.16
vt 0 0.84
v 0.05 0.00625 0.16
vt 0.05 0.84
f 19/19/1 20/20/1 21/21/1
