# AFL Pavement Markings V1 pavement_arrow_turn_0, generated by tools/build-pavement-markings-v1.mjs
mtllib pavement_arrow_turn_0.mtl
o pavement_arrow_turn_0
vn 0 1 0
usemtl white
v 0.144444 0.00625 1
vt 0.144444 0
v 0.95 0.00625 0.92
vt 0.95 0.08
v 0.95 0.00625 0.5
vt 0.95 0.5
f 1/1/1 2/2/1 3/3/1
v 0.144444 0.00625 1
vt 0.144444 0
v 0.37 0.00625 1
vt 0.37 0
v 0.95 0.00625 0.92
vt 0.95 0.08
f 4/4/1 5/5/1 6/6/1
v 0.37 0.00625 1
vt 0.37 0
v 1 0.00625 0.962558
vt 1 0.037442
v 0.95 0.00625 0.92
vt 0.95 0.08
f 7/7/1 8/8/1 9/9/1
v 0.37 0.00625 1
vt 0.37 0
v 1 0.00625 1
vt 1 0
v 1 0.00625 0.962558
vt 1 0.037442
f 10/10/1 11/11/1 12/12/1
v 1 0.00625 0.962558
vt 1 0.037442
v 1 0.00625 0.959327
vt 1 0.040673
v 0.95 0.00625 0.92
vt 0.95 0.08
f 13/13/1 14/14/1 15/15/1
v 1 0.00625 0.959327
vt 1 0.040673
v 1 0.00625 0.95761
vt 1 0.04239
v 0.95 0.00625 0.92
vt 0.95 0.08
f 16/16/1 17/17/1 18/18/1
v 1 0.00625 0.95761
vt 1 0.04239
v 1 0.00625 0.957021
vt 1 0.042979
v 0.95 0.00625 0.92
vt 0.95 0.08
f 19/19/1 20/20/1 21/21/1
v 1 0.00625 0.957021
vt 1 0.042979
v 1 0.00625 0.92
vt 1 0.08
v 0.95 0.00625 0.92
vt 0.95 0.08
f 22/22/1 23/23/1 24/24/1
