# AFL Pavement Markings V1 pavement_hatch, generated by tools/build-pavement-markings-v1.mjs
mtllib pavement_hatch.mtl
o pavement_hatch
vn 0 1 0
usemtl tinted
v 0.070711 0.00625 0
vt 0.070711 1
v 1 0.00625 0.975309
vt 1 0.024691
v 1 0.00625 0.929289
vt 1 0.070711
f 1/1/1 2/2/1 3/3/1
v 0.070711 0.00625 0
vt 0.070711 1
v 0 0.00625 0
vt 0 1
v 1 0.00625 0.975309
vt 1 0.024691
f 4/4/1 5/5/1 6/6/1
v 0.070711 0.00625 0
vt 0.070711 1
v 0 0.00625 0
vt 0 1
v 0 0.00625 0
vt 0 1
f 7/7/1 8/8/1 9/9/1
v 0.929289 0.00625 1
vt 0.929289 0
v 0 0.00625 0
vt 0 1
v 0 0.00625 0.070711
vt 0 0.929289
f 10/10/1 11/11/1 12/12/1
v 0.929289 0.00625 1
vt 0.929289 0
v 1 0.00625 0.975309
vt 1 0.024691
v 0 0.00625 0
vt 0 1
f 13/13/1 14/14/1 15/15/1
v 0.929289 0.00625 1
vt 0.929289 0
v 1 0.00625 1
vt 1 0
v 1 0.00625 0.975309
vt 1 0.024691
f 16/16/1 17/17/1 18/18/1
