# AFL Pavement Markings V1 pavement_arrow_turn_5, generated by tools/build-pavement-markings-v1.mjs
mtllib pavement_arrow_turn_5.mtl
o pavement_arrow_turn_5
vn 0 1 0
usemtl white
v 0.62 0.00625 0.9
vt 0.62 0.1
v 0.38 0.00625 0
vt 0.38 1
v 0.38 0.00625 0.9
vt 0.38 0.1
f 1/1/1 2/2/1 3/3/1
v 0.62 0.00625 0.9
vt 0.62 0.1
v 0.480645 0.00625 0
vt 0.480645 1
v 0.38 0.00625 0
vt 0.38 1
f 4/4/1 5/5/1 6/6/1
v 0.62 0.00625 0.9
vt 0.62 0.1
v 0.482796 0.00625 0
vt 0.482796 1
v 0.480645 0.00625 0
vt 0.480645 1
f 7/7/1 8/8/1 9/9/1
v 0.62 0.00625 0.9
vt 0.62 0.1
v 0.496748 0.00625 0
vt 0.496748 1
v 0.482796 0.00625 0
vt 0.482796 1
f 10/10/1 11/11/1 12/12/1
v 0.62 0.00625 0.9
vt 0.62 0.1
v 0.52459 0.00625 0
vt 0.52459 1
v 0.496748 0.00625 0
vt 0.496748 1
f 13/13/1 14/14/1 15/15/1
v 0.62 0.00625 0.9
vt 0.62 0.1
v 0.548799 0.00625 0
vt 0.548799 1
v 0.52459 0.00625 0
vt 0.52459 1
f 16/16/1 17/17/1 18/18/1
v 0.62 0.00625 0.9
vt 0.62 0.1
v 0.569533 0.00625 0
vt 0.569533 1
v 0.548799 0.00625 0
vt 0.548799 1
f 19/19/1 20/20/1 21/21/1
v 0.62 0.00625 0.9
vt 0.62 0.1
v 0.586864 0.00625 0
vt 0.586864 1
v 0.569533 0.00625 0
vt 0.569533 1
f 22/22/1 23/23/1 24/24/1
v 0.62 0.00625 0.9
vt 0.62 0.1
v 0.600772 0.00625 0
vt 0.600772 1
v 0.586864 0.00625 0
vt 0.586864 1
f 25/25/1 26/26/1 27/27/1
v 0.62 0.00625 0.9
vt 0.62 0.1
v 0.611131 0.00625 0
vt 0.611131 1
v 0.600772 0.00625 0
vt 0.600772 1
f 28/28/1 29/29/1 30/30/1
v 0.62 0.00625 0.9
vt 0.62 0.1
v 0.617683 0.00625 0
vt 0.617683 1
v 0.611131 0.00625 0
vt 0.611131 1
f 31/31/1 32/32/1 33/33/1
v 0.62 0.00625 0
vt 0.62 1
v 0.617683 0.00625 0
vt 0.617683 1
v 0.62 0.00625 0.9
vt 0.62 0.1
f 34/34/1 35/35/1 36/36/1
