# AFL Fluid Pipe V2 arm_port_down (glass), generated by tools/build-fluid-pipe-v2.mjs
mtllib fluid_pipe.mtl
o arm_port_panes
usemtl fluid_pipe
v 0.740625 0.1625 0.66875
v 0.740625 0.1625 0.33125
v 0.740625 0.05 0.33125
v 0.740625 0.05 0.66875
v 0.725 0.1625 0.66875
v 0.725 0.1625 0.33125
v 0.725 0.05 0.33125
v 0.725 0.05 0.66875
v 0.66875 0.1625 0.740625
v 0.33125 0.1625 0.740625
v 0.33125 0.05 0.740625
v 0.66875 0.05 0.740625
v 0.66875 0.1625 0.725
v 0.33125 0.1625 0.725
v 0.33125 0.05 0.725
v 0.66875 0.05 0.725
v 0.275 0.1625 0.66875
v 0.275 0.1625 0.33125
v 0.275 0.05 0.33125
v 0.275 0.05 0.66875
v 0.259375 0.1625 0.66875
v 0.259375 0.1625 0.33125
v 0.259375 0.05 0.33125
v 0.259375 0.05 0.66875
v 0.66875 0.1625 0.275
v 0.33125 0.1625 0.275
v 0.33125 0.05 0.275
v 0.66875 0.05 0.275
v 0.66875 0.1625 0.259375
v 0.33125 0.1625 0.259375
v 0.33125 0.05 0.259375
v 0.66875 0.05 0.259375
vt 0.867749 0.436768
vt 0.815674 0.436768
vt 0.815674 0.419409
vt 0.867749 0.419409
vt 0.869385 0.419409
vt 0.92146 0.419409
vt 0.92146 0.436768
vt 0.869385 0.436768
vt 0.923096 0.419409
vt 0.975171 0.419409
vt 0.975171 0.436768
vt 0.923096 0.436768
vt 0.053296 0.383057
vt 0.001221 0.383057
vt 0.001221 0.365698
vt 0.053296 0.365698
vt 0.107007 0.383057
vt 0.054932 0.383057
vt 0.054932 0.365698
vt 0.107007 0.365698
vt 0.108643 0.365698
vt 0.160718 0.365698
vt 0.160718 0.383057
vt 0.108643 0.383057
vt 0.162354 0.365698
vt 0.214429 0.365698
vt 0.214429 0.383057
vt 0.162354 0.383057
vt 0.26814 0.383057
vt 0.216064 0.383057
vt 0.216064 0.365698
vt 0.26814 0.365698
vn 1 0 0
vn -1 0 0
vn 0 0 1
vn 0 0 -1
f 4/1/1 3/2/1 2/3/1 1/4/1
f 5/5/2 6/6/2 7/7/2 8/8/2
f 9/9/3 10/10/3 11/11/3 12/12/3
f 16/13/4 15/14/4 14/15/4 13/16/4
f 20/17/1 19/18/1 18/19/1 17/20/1
f 21/21/2 22/22/2 23/23/2 24/24/2
f 25/25/3 26/26/3 27/27/3 28/28/3
f 32/29/4 31/30/4 30/31/4 29/32/4
