# AFL Fluid Pipe V2 arm_port_west, generated by tools/build-fluid-pipe-v2.mjs
mtllib fluid_pipe.mtl
o arm_port_flange
usemtl fluid_pipe
v 0.2125 0.16875 0.16875
v 0.2125 0.16875 0.83125
v 0.2125 0.83125 0.83125
v 0.2125 0.83125 0.16875
v 0.20625 0.1625 0.1625
v 0.20625 0.1625 0.8375
v 0.20625 0.8375 0.8375
v 0.20625 0.8375 0.1625
v 0.16875 0.1625 0.1625
v 0.16875 0.1625 0.8375
v 0.16875 0.8375 0.8375
v 0.16875 0.8375 0.1625
v 0.1625 0.16875 0.16875
v 0.1625 0.16875 0.83125
v 0.1625 0.83125 0.83125
v 0.1625 0.83125 0.16875
v 0.2125 0.75625 0.24375
v 0.2125 0.75625 0.75625
v 0.2125 0.24375 0.75625
v 0.2125 0.24375 0.24375
v 0.20625 0.75 0.25
v 0.20625 0.75 0.75
v 0.20625 0.25 0.75
v 0.20625 0.25 0.25
v 0.16875 0.75 0.25
v 0.16875 0.75 0.75
v 0.16875 0.25 0.75
v 0.16875 0.25 0.25
v 0.1625 0.75625 0.24375
v 0.1625 0.75625 0.75625
v 0.1625 0.24375 0.75625
v 0.1625 0.24375 0.24375
v 0.2125 0.16875 0.16875
v 0.2125 0.16875 0.83125
v 0.2125 0.83125 0.83125
v 0.2125 0.83125 0.16875
v 0.2125 0.75625 0.24375
v 0.2125 0.75625 0.75625
v 0.2125 0.24375 0.75625
v 0.2125 0.24375 0.24375
v 0.1625 0.16875 0.16875
v 0.1625 0.16875 0.83125
v 0.1625 0.83125 0.83125
v 0.1625 0.83125 0.16875
v 0.1625 0.75625 0.24375
v 0.1625 0.75625 0.75625
v 0.1625 0.24375 0.75625
v 0.1625 0.24375 0.24375
vt 0.108142 0.069193
vt 0.210364 0.069193
vt 0.211328 0.070557
vt 0.107178 0.070557
vt 0.108142 0.022318
vt 0.210364 0.022318
vt 0.211328 0.023682
vt 0.107178 0.023682
vt 0.214099 0.069193
vt 0.316321 0.069193
vt 0.317285 0.070557
vt 0.213135 0.070557
vt 0.214099 0.022318
vt 0.316321 0.022318
vt 0.317285 0.023682
vt 0.213135 0.023682
vt 0.876709 0.159009
vt 0.980859 0.159009
vt 0.980859 0.164795
vt 0.876709 0.164795
vt 0.001221 0.151196
vt 0.105371 0.151196
vt 0.105371 0.156982
vt 0.001221 0.156982
vt 0.107178 0.151196
vt 0.211328 0.151196
vt 0.211328 0.156982
vt 0.107178 0.156982
vt 0.213135 0.151196
vt 0.317285 0.151196
vt 0.317285 0.156982
vt 0.213135 0.156982
vt 0.319092 0.069193
vt 0.423242 0.069193
vt 0.422278 0.070557
vt 0.320056 0.070557
vt 0.107178 0.031107
vt 0.211328 0.031107
vt 0.210364 0.032471
vt 0.108142 0.032471
vt 0.425049 0.069193
vt 0.529199 0.069193
vt 0.528235 0.070557
vt 0.426013 0.070557
vt 0.213135 0.031107
vt 0.317285 0.031107
vt 0.316321 0.032471
vt 0.214099 0.032471
vt 0.001221 0.042826
vt 0.080298 0.042826
vt 0.079333 0.044189
vt 0.002185 0.044189
vt 0.735596 0.028177
vt 0.814673 0.028177
vt 0.813708 0.029541
vt 0.73656 0.029541
vt 0.081787 0.042826
vt 0.160864 0.042826
vt 0.1599 0.044189
vt 0.082751 0.044189
vt 0.816162 0.028177
vt 0.895239 0.028177
vt 0.894275 0.029541
vt 0.817126 0.029541
vt 0.630127 0.129224
vt 0.707275 0.129224
vt 0.707275 0.13501
vt 0.630127 0.13501
vt 0.70874 0.129224
vt 0.785889 0.129224
vt 0.785889 0.13501
vt 0.70874 0.13501
vt 0.787354 0.129224
vt 0.864502 0.129224
vt 0.864502 0.13501
vt 0.787354 0.13501
vt 0.865967 0.129224
vt 0.943115 0.129224
vt 0.943115 0.13501
vt 0.865967 0.13501
vt 0.163318 0.042826
vt 0.240466 0.042826
vt 0.241431 0.044189
vt 0.162354 0.044189
vt 0.243884 0.042826
vt 0.321033 0.042826
vt 0.321997 0.044189
vt 0.24292 0.044189
vt 0.324451 0.042826
vt 0.401599 0.042826
vt 0.402563 0.044189
vt 0.323486 0.044189
vt 0.405017 0.042826
vt 0.482166 0.042826
vt 0.48313 0.044189
vt 0.404053 0.044189
vt 0.507886 0.987207
vt 0.519458 0.998779
vt 0.417236 0.998779
vt 0.428809 0.987207
vt 0.507886 0.987207
vt 0.417236 0.998779
vt 0.428809 0.987207
vt 0.417236 0.998779
vt 0.417236 0.896558
vt 0.428809 0.90813
vt 0.428809 0.987207
vt 0.417236 0.896558
vt 0.428809 0.90813
vt 0.417236 0.896558
vt 0.519458 0.896558
vt 0.507886 0.90813
vt 0.428809 0.90813
vt 0.519458 0.896558
vt 0.507886 0.987207
vt 0.507886 0.90813
vt 0.519458 0.896558
vt 0.519458 0.896558
vt 0.519458 0.998779
vt 0.507886 0.987207
vt 0.52124 0.896558
vt 0.623462 0.896558
vt 0.61189 0.90813
vt 0.52124 0.896558
vt 0.61189 0.90813
vt 0.532813 0.90813
vt 0.52124 0.998779
vt 0.52124 0.896558
vt 0.532813 0.90813
vt 0.52124 0.998779
vt 0.532813 0.90813
vt 0.532813 0.987207
vt 0.623462 0.998779
vt 0.52124 0.998779
vt 0.532813 0.987207
vt 0.623462 0.998779
vt 0.532813 0.987207
vt 0.61189 0.987207
vt 0.623462 0.998779
vt 0.61189 0.987207
vt 0.61189 0.90813
vt 0.61189 0.90813
vt 0.623462 0.896558
vt 0.623462 0.998779
vn 0.707107 -0.707107 0
vn 0.707107 0 0.707107
vn 0.707107 0.707107 0
vn 0.707107 0 -0.707107
vn 0 -1 0
vn 0 0 1
vn 0 1 0
vn 0 0 -1
vn -0.707107 -0.707107 0
vn -0.707107 0 0.707107
vn -0.707107 0.707107 0
vn -0.707107 0 -0.707107
vn 1 0 0
vn -1 0 0
f 1/1/1 2/2/1 6/3/1 5/4/1
f 2/5/2 3/6/2 7/7/2 6/8/2
f 3/9/3 4/10/3 8/11/3 7/12/3
f 4/13/4 1/14/4 5/15/4 8/16/4
f 5/17/5 6/18/5 10/19/5 9/20/5
f 6/21/6 7/22/6 11/23/6 10/24/6
f 7/25/7 8/26/7 12/27/7 11/28/7
f 8/29/8 5/30/8 9/31/8 12/32/8
f 9/33/9 10/34/9 14/35/9 13/36/9
f 10/37/10 11/38/10 15/39/10 14/40/10
f 11/41/11 12/42/11 16/43/11 15/44/11
f 12/45/12 9/46/12 13/47/12 16/48/12
f 17/49/1 18/50/1 22/51/1 21/52/1
f 18/53/4 19/54/4 23/55/4 22/56/4
f 19/57/3 20/58/3 24/59/3 23/60/3
f 20/61/2 17/62/2 21/63/2 24/64/2
f 21/65/5 22/66/5 26/67/5 25/68/5
f 22/69/8 23/70/8 27/71/8 26/72/8
f 23/73/7 24/74/7 28/75/7 27/76/7
f 24/77/6 21/78/6 25/79/6 28/80/6
f 25/81/9 26/82/9 30/83/9 29/84/9
f 26/85/12 27/86/12 31/87/12 30/88/12
f 27/89/11 28/90/11 32/91/11 31/92/11
f 28/93/10 25/94/10 29/95/10 32/96/10
f 38/97/13 35/98/13 34/99/13
f 39/100/13 38/101/13 34/102/13
f 39/103/13 34/104/13 33/105/13
f 40/106/13 39/107/13 33/108/13
f 40/109/13 33/110/13 36/111/13
f 37/112/13 40/113/13 36/114/13
f 38/115/13 37/116/13 36/117/13
f 36/118/13 35/119/13 38/120/13
f 42/121/14 43/122/14 46/123/14
f 42/124/14 46/125/14 47/126/14
f 41/127/14 42/128/14 47/129/14
f 41/130/14 47/131/14 48/132/14
f 44/133/14 41/134/14 48/135/14
f 44/136/14 48/137/14 45/138/14
f 44/139/14 45/140/14 46/141/14
f 46/142/14 43/143/14 44/144/14
o arm_port_flange_nuts
usemtl fluid_pipe
v 0.1625 0.2225 0.232108
v 0.1625 0.235625 0.209375
v 0.1625 0.2225 0.186642
v 0.1625 0.19625 0.186642
v 0.1625 0.183125 0.209375
v 0.1625 0.19625 0.232108
v 0.140625 0.2225 0.232108
v 0.140625 0.235625 0.209375
v 0.140625 0.2225 0.186642
v 0.140625 0.19625 0.186642
v 0.140625 0.183125 0.209375
v 0.140625 0.19625 0.232108
v 0.1625 0.2225 0.232108
v 0.1625 0.235625 0.209375
v 0.1625 0.2225 0.186642
v 0.1625 0.19625 0.186642
v 0.1625 0.183125 0.209375
v 0.1625 0.19625 0.232108
v 0.140625 0.2225 0.232108
v 0.140625 0.235625 0.209375
v 0.140625 0.2225 0.186642
v 0.140625 0.19625 0.186642
v 0.140625 0.183125 0.209375
v 0.140625 0.19625 0.232108
v 0.1625 0.80375 0.232108
v 0.1625 0.816875 0.209375
v 0.1625 0.80375 0.186642
v 0.1625 0.7775 0.186642
v 0.1625 0.764375 0.209375
v 0.1625 0.7775 0.232108
v 0.140625 0.80375 0.232108
v 0.140625 0.816875 0.209375
v 0.140625 0.80375 0.186642
v 0.140625 0.7775 0.186642
v 0.140625 0.764375 0.209375
v 0.140625 0.7775 0.232108
v 0.1625 0.80375 0.232108
v 0.1625 0.816875 0.209375
v 0.1625 0.80375 0.186642
v 0.1625 0.7775 0.186642
v 0.1625 0.764375 0.209375
v 0.1625 0.7775 0.232108
v 0.140625 0.80375 0.232108
v 0.140625 0.816875 0.209375
v 0.140625 0.80375 0.186642
v 0.140625 0.7775 0.186642
v 0.140625 0.764375 0.209375
v 0.140625 0.7775 0.232108
v 0.1625 0.2225 0.813358
v 0.1625 0.235625 0.790625
v 0.1625 0.2225 0.767892
v 0.1625 0.19625 0.767892
v 0.1625 0.183125 0.790625
v 0.1625 0.19625 0.813358
v 0.140625 0.2225 0.813358
v 0.140625 0.235625 0.790625
v 0.140625 0.2225 0.767892
v 0.140625 0.19625 0.767892
v 0.140625 0.183125 0.790625
v 0.140625 0.19625 0.813358
v 0.1625 0.2225 0.813358
v 0.1625 0.235625 0.790625
v 0.1625 0.2225 0.767892
v 0.1625 0.19625 0.767892
v 0.1625 0.183125 0.790625
v 0.1625 0.19625 0.813358
v 0.140625 0.2225 0.813358
v 0.140625 0.235625 0.790625
v 0.140625 0.2225 0.767892
v 0.140625 0.19625 0.767892
v 0.140625 0.183125 0.790625
v 0.140625 0.19625 0.813358
v 0.1625 0.80375 0.813358
v 0.1625 0.816875 0.790625
v 0.1625 0.80375 0.767892
v 0.1625 0.7775 0.767892
v 0.1625 0.764375 0.790625
v 0.1625 0.7775 0.813358
v 0.140625 0.80375 0.813358
v 0.140625 0.816875 0.790625
v 0.140625 0.80375 0.767892
v 0.140625 0.7775 0.767892
v 0.140625 0.764375 0.790625
v 0.140625 0.7775 0.813358
v 0.1625 0.80375 0.813358
v 0.1625 0.816875 0.790625
v 0.1625 0.80375 0.767892
v 0.1625 0.7775 0.767892
v 0.1625 0.764375 0.790625
v 0.1625 0.7775 0.813358
v 0.140625 0.80375 0.813358
v 0.140625 0.816875 0.790625
v 0.140625 0.80375 0.767892
v 0.140625 0.7775 0.767892
v 0.140625 0.764375 0.790625
v 0.140625 0.7775 0.813358
vt 0.702881 0.083295
vt 0.706931 0.083295
vt 0.706931 0.08667
vt 0.702881 0.08667
vt 0.70874 0.083295
vt 0.712791 0.083295
vt 0.712791 0.08667
vt 0.70874 0.08667
vt 0.7146 0.083295
vt 0.71865 0.083295
vt 0.71865 0.08667
vt 0.7146 0.08667
vt 0.351318 0.083295
vt 0.355369 0.083295
vt 0.355369 0.08667
vt 0.351318 0.08667
vt 0.720459 0.083295
vt 0.724509 0.083295
vt 0.724509 0.08667
vt 0.720459 0.08667
vt 0.726318 0.083295
vt 0.730369 0.083295
vt 0.730369 0.08667
vt 0.726318 0.08667
vt 0.448286 0.172518
vt 0.446261 0.176025
vt 0.442211 0.176025
vt 0.446261 0.16901
vt 0.448286 0.172518
vt 0.442211 0.176025
vt 0.442211 0.16901
vt 0.446261 0.16901
vt 0.442211 0.176025
vt 0.442211 0.176025
vt 0.440186 0.172518
vt 0.442211 0.16901
vt 0.451976 0.16901
vt 0.456027 0.16901
vt 0.458052 0.172518
vt 0.451976 0.16901
vt 0.458052 0.172518
vt 0.456027 0.176025
vt 0.451976 0.16901
vt 0.456027 0.176025
vt 0.451976 0.176025
vt 0.451976 0.176025
vt 0.449951 0.172518
vt 0.451976 0.16901
vt 0.732178 0.083295
vt 0.736228 0.083295
vt 0.736228 0.08667
vt 0.732178 0.08667
vt 0.357178 0.083295
vt 0.361228 0.083295
vt 0.361228 0.08667
vt 0.357178 0.08667
vt 0.738037 0.083295
vt 0.742087 0.083295
vt 0.742087 0.08667
vt 0.738037 0.08667
vt 0.743896 0.083295
vt 0.747947 0.083295
vt 0.747947 0.08667
vt 0.743896 0.08667
vt 0.749756 0.083295
vt 0.753806 0.083295
vt 0.753806 0.08667
vt 0.749756 0.08667
vt 0.755615 0.083295
vt 0.759666 0.083295
vt 0.759666 0.08667
vt 0.755615 0.08667
vt 0.467817 0.172518
vt 0.465792 0.176025
vt 0.461742 0.176025
vt 0.465792 0.16901
vt 0.467817 0.172518
vt 0.461742 0.176025
vt 0.461742 0.16901
vt 0.465792 0.16901
vt 0.461742 0.176025
vt 0.461742 0.176025
vt 0.459717 0.172518
vt 0.461742 0.16901
vt 0.471508 0.16901
vt 0.475558 0.16901
vt 0.477583 0.172518
vt 0.471508 0.16901
vt 0.477583 0.172518
vt 0.475558 0.176025
vt 0.471508 0.16901
vt 0.475558 0.176025
vt 0.471508 0.176025
vt 0.471508 0.176025
vt 0.469482 0.172518
vt 0.471508 0.16901
vt 0.761475 0.083295
vt 0.765525 0.083295
vt 0.765525 0.08667
vt 0.761475 0.08667
vt 0.767334 0.083295
vt 0.771384 0.083295
vt 0.771384 0.08667
vt 0.767334 0.08667
vt 0.773193 0.083295
vt 0.777244 0.083295
vt 0.777244 0.08667
vt 0.773193 0.08667
vt 0.779053 0.083295
vt 0.783103 0.083295
vt 0.783103 0.08667
vt 0.779053 0.08667
vt 0.363037 0.083295
vt 0.367087 0.083295
vt 0.367087 0.08667
vt 0.363037 0.08667
vt 0.784912 0.083295
vt 0.788962 0.083295
vt 0.788962 0.08667
vt 0.784912 0.08667
vt 0.487349 0.172518
vt 0.485323 0.176025
vt 0.481273 0.176025
vt 0.485323 0.16901
vt 0.487349 0.172518
vt 0.481273 0.176025
vt 0.481273 0.16901
vt 0.485323 0.16901
vt 0.481273 0.176025
vt 0.481273 0.176025
vt 0.479248 0.172518
vt 0.481273 0.16901
vt 0.491039 0.16901
vt 0.495089 0.16901
vt 0.497114 0.172518
vt 0.491039 0.16901
vt 0.497114 0.172518
vt 0.495089 0.176025
vt 0.491039 0.16901
vt 0.495089 0.176025
vt 0.491039 0.176025
vt 0.491039 0.176025
vt 0.489014 0.172518
vt 0.491039 0.16901
vt 0.368896 0.083295
vt 0.372947 0.083295
vt 0.372947 0.08667
vt 0.368896 0.08667
vt 0.790771 0.083295
vt 0.794822 0.083295
vt 0.794822 0.08667
vt 0.790771 0.08667
vt 0.796631 0.083295
vt 0.800681 0.083295
vt 0.800681 0.08667
vt 0.796631 0.08667
vt 0.80249 0.083295
vt 0.806541 0.083295
vt 0.806541 0.08667
vt 0.80249 0.08667
vt 0.80835 0.083295
vt 0.8124 0.083295
vt 0.8124 0.08667
vt 0.80835 0.08667
vt 0.814209 0.083295
vt 0.818259 0.083295
vt 0.818259 0.08667
vt 0.814209 0.08667
vt 0.50688 0.172518
vt 0.504855 0.176025
vt 0.500804 0.176025
vt 0.504855 0.16901
vt 0.50688 0.172518
vt 0.500804 0.176025
vt 0.500804 0.16901
vt 0.504855 0.16901
vt 0.500804 0.176025
vt 0.500804 0.176025
vt 0.498779 0.172518
vt 0.500804 0.16901
vt 0.51057 0.16901
vt 0.51462 0.16901
vt 0.516646 0.172518
vt 0.51057 0.16901
vt 0.516646 0.172518
vt 0.51462 0.176025
vt 0.51057 0.16901
vt 0.51462 0.176025
vt 0.51057 0.176025
vt 0.51057 0.176025
vt 0.508545 0.172518
vt 0.51057 0.16901
vn 0 0.866025 0.5
vn 0 0.866025 -0.5
vn 0 0 -1
vn 0 -0.866025 -0.5
vn 0 -0.866025 0.5
vn 0 0 1
vn 1 0 0
vn -1 0 0
f 49/145/15 50/146/15 56/147/15 55/148/15
f 50/149/16 51/150/16 57/151/16 56/152/16
f 51/153/17 52/154/17 58/155/17 57/156/17
f 52/157/18 53/158/18 59/159/18 58/160/18
f 53/161/19 54/162/19 60/163/19 59/164/19
f 54/165/20 49/166/20 55/167/20 60/168/20
f 62/169/21 61/170/21 66/171/21
f 63/172/21 62/173/21 66/174/21
f 64/175/21 63/176/21 66/177/21
f 66/178/21 65/179/21 64/180/21
f 72/181/22 67/182/22 68/183/22
f 72/184/22 68/185/22 69/186/22
f 72/187/22 69/188/22 70/189/22
f 70/190/22 71/191/22 72/192/22
f 73/193/15 74/194/15 80/195/15 79/196/15
f 74/197/16 75/198/16 81/199/16 80/200/16
f 75/201/17 76/202/17 82/203/17 81/204/17
f 76/205/18 77/206/18 83/207/18 82/208/18
f 77/209/19 78/210/19 84/211/19 83/212/19
f 78/213/20 73/214/20 79/215/20 84/216/20
f 86/217/21 85/218/21 90/219/21
f 87/220/21 86/221/21 90/222/21
f 88/223/21 87/224/21 90/225/21
f 90/226/21 89/227/21 88/228/21
f 96/229/22 91/230/22 92/231/22
f 96/232/22 92/233/22 93/234/22
f 96/235/22 93/236/22 94/237/22
f 94/238/22 95/239/22 96/240/22
f 97/241/15 98/242/15 104/243/15 103/244/15
f 98/245/16 99/246/16 105/247/16 104/248/16
f 99/249/17 100/250/17 106/251/17 105/252/17
f 100/253/18 101/254/18 107/255/18 106/256/18
f 101/257/19 102/258/19 108/259/19 107/260/19
f 102/261/20 97/262/20 103/263/20 108/264/20
f 110/265/21 109/266/21 114/267/21
f 111/268/21 110/269/21 114/270/21
f 112/271/21 111/272/21 114/273/21
f 114/274/21 113/275/21 112/276/21
f 120/277/22 115/278/22 116/279/22
f 120/280/22 116/281/22 117/282/22
f 120/283/22 117/284/22 118/285/22
f 118/286/22 119/287/22 120/288/22
f 121/289/15 122/290/15 128/291/15 127/292/15
f 122/293/16 123/294/16 129/295/16 128/296/16
f 123/297/17 124/298/17 130/299/17 129/300/17
f 124/301/18 125/302/18 131/303/18 130/304/18
f 125/305/19 126/306/19 132/307/19 131/308/19
f 126/309/20 121/310/20 127/311/20 132/312/20
f 134/313/21 133/314/21 138/315/21
f 135/316/21 134/317/21 138/318/21
f 136/319/21 135/320/21 138/321/21
f 138/322/21 137/323/21 136/324/21
f 144/325/22 139/326/22 140/327/22
f 144/328/22 140/329/22 141/330/22
f 144/331/22 141/332/22 142/333/22
f 142/334/22 143/335/22 144/336/22
o arm_port_rails
usemtl fluid_pipe
v 0.1625 0.33125 0.33125
v 0.1625 0.33125 0.25
v 0.1625 0.26875 0.25
v 0.1625 0.25 0.26875
v 0.1625 0.25 0.33125
v 0.05 0.33125 0.33125
v 0.05 0.33125 0.25
v 0.05 0.26875 0.25
v 0.05 0.25 0.26875
v 0.05 0.25 0.33125
v 0.1625 0.33125 0.33125
v 0.1625 0.33125 0.25
v 0.1625 0.26875 0.25
v 0.1625 0.25 0.26875
v 0.1625 0.25 0.33125
v 0.05 0.33125 0.33125
v 0.05 0.33125 0.25
v 0.05 0.26875 0.25
v 0.05 0.25 0.26875
v 0.05 0.25 0.33125
v 0.1625 0.75 0.33125
v 0.1625 0.75 0.26875
v 0.1625 0.73125 0.25
v 0.1625 0.66875 0.25
v 0.1625 0.66875 0.33125
v 0.05 0.75 0.33125
v 0.05 0.75 0.26875
v 0.05 0.73125 0.25
v 0.05 0.66875 0.25
v 0.05 0.66875 0.33125
v 0.1625 0.75 0.33125
v 0.1625 0.75 0.26875
v 0.1625 0.73125 0.25
v 0.1625 0.66875 0.25
v 0.1625 0.66875 0.33125
v 0.05 0.75 0.33125
v 0.05 0.75 0.26875
v 0.05 0.73125 0.25
v 0.05 0.66875 0.25
v 0.05 0.66875 0.33125
v 0.1625 0.25 0.66875
v 0.1625 0.25 0.73125
v 0.1625 0.26875 0.75
v 0.1625 0.33125 0.75
v 0.1625 0.33125 0.66875
v 0.05 0.25 0.66875
v 0.05 0.25 0.73125
v 0.05 0.26875 0.75
v 0.05 0.33125 0.75
v 0.05 0.33125 0.66875
v 0.1625 0.25 0.66875
v 0.1625 0.25 0.73125
v 0.1625 0.26875 0.75
v 0.1625 0.33125 0.75
v 0.1625 0.33125 0.66875
v 0.05 0.25 0.66875
v 0.05 0.25 0.73125
v 0.05 0.26875 0.75
v 0.05 0.33125 0.75
v 0.05 0.33125 0.66875
v 0.1625 0.66875 0.66875
v 0.1625 0.66875 0.75
v 0.1625 0.73125 0.75
v 0.1625 0.75 0.73125
v 0.1625 0.75 0.66875
v 0.05 0.66875 0.66875
v 0.05 0.66875 0.75
v 0.05 0.73125 0.75
v 0.05 0.75 0.73125
v 0.05 0.75 0.66875
v 0.1625 0.66875 0.66875
v 0.1625 0.66875 0.75
v 0.1625 0.73125 0.75
v 0.1625 0.75 0.73125
v 0.1625 0.75 0.66875
v 0.05 0.66875 0.66875
v 0.05 0.66875 0.75
v 0.05 0.73125 0.75
v 0.05 0.75 0.73125
v 0.05 0.75 0.66875
vt 0.501221 0.304443
vt 0.501221 0.291907
vt 0.518579 0.291907
vt 0.518579 0.304443
vt 0.028076 0.176025
vt 0.028076 0.166382
vt 0.045435 0.166382
vt 0.045435 0.176025
vt 0.851807 0.092529
vt 0.851807 0.088438
vt 0.869165 0.088438
vt 0.869165 0.092529
vt 0.047119 0.176025
vt 0.047119 0.166382
vt 0.064478 0.166382
vt 0.064478 0.176025
vt 0.520264 0.304443
vt 0.520264 0.291907
vt 0.537622 0.291907
vt 0.537622 0.304443
vt 0.013757 0.277747
vt 0.013757 0.290283
vt 0.001221 0.290283
vt 0.004114 0.277747
vt 0.013757 0.277747
vt 0.001221 0.290283
vt 0.001221 0.290283
vt 0.001221 0.28064
vt 0.004114 0.277747
vt 0.015381 0.277747
vt 0.027917 0.277747
vt 0.027917 0.290283
vt 0.015381 0.277747
vt 0.027917 0.290283
vt 0.018274 0.290283
vt 0.018274 0.290283
vt 0.015381 0.28739
vt 0.015381 0.277747
vt 0.066162 0.176025
vt 0.066162 0.166382
vt 0.083521 0.166382
vt 0.083521 0.176025
vt 0.87085 0.092529
vt 0.87085 0.088438
vt 0.888208 0.088438
vt 0.888208 0.092529
vt 0.085205 0.176025
vt 0.085205 0.166382
vt 0.102563 0.166382
vt 0.102563 0.176025
vt 0.539307 0.304443
vt 0.539307 0.291907
vt 0.556665 0.291907
vt 0.556665 0.304443
vt 0.55835 0.304443
vt 0.55835 0.291907
vt 0.575708 0.291907
vt 0.575708 0.304443
vt 0.042078 0.28064
vt 0.042078 0.290283
vt 0.029541 0.290283
vt 0.039185 0.277747
vt 0.042078 0.28064
vt 0.029541 0.290283
vt 0.029541 0.290283
vt 0.029541 0.277747
vt 0.039185 0.277747
vt 0.043701 0.277747
vt 0.056238 0.277747
vt 0.056238 0.28739
vt 0.043701 0.277747
vt 0.056238 0.28739
vt 0.053345 0.290283
vt 0.053345 0.290283
vt 0.043701 0.290283
vt 0.043701 0.277747
vt 0.104248 0.176025
vt 0.104248 0.166382
vt 0.121606 0.166382
vt 0.121606 0.176025
vt 0.889893 0.092529
vt 0.889893 0.088438
vt 0.907251 0.088438
vt 0.907251 0.092529
vt 0.123291 0.176025
vt 0.123291 0.166382
vt 0.140649 0.166382
vt 0.140649 0.176025
vt 0.577393 0.304443
vt 0.577393 0.291907
vt 0.594751 0.291907
vt 0.594751 0.304443
vt 0.596436 0.304443
vt 0.596436 0.291907
vt 0.613794 0.291907
vt 0.613794 0.304443
vt 0.057861 0.28739
vt 0.057861 0.277747
vt 0.070398 0.277747
vt 0.060754 0.290283
vt 0.057861 0.28739
vt 0.070398 0.277747
vt 0.070398 0.277747
vt 0.070398 0.290283
vt 0.060754 0.290283
vt 0.084558 0.290283
vt 0.072021 0.290283
vt 0.072021 0.28064
vt 0.084558 0.290283
vt 0.072021 0.28064
vt 0.074915 0.277747
vt 0.074915 0.277747
vt 0.084558 0.277747
vt 0.084558 0.290283
vt 0.615479 0.304443
vt 0.615479 0.291907
vt 0.632837 0.291907
vt 0.632837 0.304443
vt 0.142334 0.176025
vt 0.142334 0.166382
vt 0.159692 0.166382
vt 0.159692 0.176025
vt 0.908936 0.092529
vt 0.908936 0.088438
vt 0.926294 0.088438
vt 0.926294 0.092529
vt 0.161377 0.176025
vt 0.161377 0.166382
vt 0.178735 0.166382
vt 0.178735 0.176025
vt 0.634521 0.304443
vt 0.634521 0.291907
vt 0.65188 0.291907
vt 0.65188 0.304443
vt 0.086182 0.290283
vt 0.086182 0.277747
vt 0.098718 0.277747
vt 0.095825 0.290283
vt 0.086182 0.290283
vt 0.098718 0.277747
vt 0.098718 0.277747
vt 0.098718 0.28739
vt 0.095825 0.290283
vt 0.112878 0.290283
vt 0.100342 0.290283
vt 0.100342 0.277747
vt 0.112878 0.290283
vt 0.100342 0.277747
vt 0.109985 0.277747
vt 0.109985 0.277747
vt 0.112878 0.28064
vt 0.112878 0.290283
vn 0 1 0
vn 0 0 -1
vn 0 -0.707107 -0.707107
vn 0 -1 0
vn 0 0 1
vn 1 0 0
vn -1 0 0
vn 0 0.707107 -0.707107
vn 0 -0.707107 0.707107
vn 0 0.707107 0.707107
f 145/337/23 146/338/23 151/339/23 150/340/23
f 146/341/24 147/342/24 152/343/24 151/344/24
f 147/345/25 148/346/25 153/347/25 152/348/25
f 148/349/26 149/350/26 154/351/26 153/352/26
f 149/353/27 145/354/27 150/355/27 154/356/27
f 156/357/28 155/358/28 159/359/28
f 157/360/28 156/361/28 159/362/28
f 159/363/28 158/364/28 157/365/28
f 164/366/29 160/367/29 161/368/29
f 164/369/29 161/370/29 162/371/29
f 162/372/29 163/373/29 164/374/29
f 165/375/23 166/376/23 171/377/23 170/378/23
f 166/379/30 167/380/30 172/381/30 171/382/30
f 167/383/24 168/384/24 173/385/24 172/386/24
f 168/387/26 169/388/26 174/389/26 173/390/26
f 169/391/27 165/392/27 170/393/27 174/394/27
f 176/395/28 175/396/28 179/397/28
f 177/398/28 176/399/28 179/400/28
f 179/401/28 178/402/28 177/403/28
f 184/404/29 180/405/29 181/406/29
f 184/407/29 181/408/29 182/409/29
f 182/410/29 183/411/29 184/412/29
f 185/413/26 186/414/26 191/415/26 190/416/26
f 186/417/31 187/418/31 192/419/31 191/420/31
f 187/421/27 188/422/27 193/423/27 192/424/27
f 188/425/23 189/426/23 194/427/23 193/428/23
f 189/429/24 185/430/24 190/431/24 194/432/24
f 196/433/28 195/434/28 199/435/28
f 197/436/28 196/437/28 199/438/28
f 199/439/28 198/440/28 197/441/28
f 204/442/29 200/443/29 201/444/29
f 204/445/29 201/446/29 202/447/29
f 202/448/29 203/449/29 204/450/29
f 205/451/26 206/452/26 211/453/26 210/454/26
f 206/455/27 207/456/27 212/457/27 211/458/27
f 207/459/32 208/460/32 213/461/32 212/462/32
f 208/463/23 209/464/23 214/465/23 213/466/23
f 209/467/24 205/468/24 210/469/24 214/470/24
f 216/471/28 215/472/28 219/473/28
f 217/474/28 216/475/28 219/476/28
f 219/477/28 218/478/28 217/479/28
f 224/480/29 220/481/29 221/482/29
f 224/483/29 221/484/29 222/485/29
f 222/486/29 223/487/29 224/488/29
o arm_port_port
usemtl fluid_pipe
v 0.05 0.16875 0.16875
v 0.05 0.16875 0.83125
v 0.05 0.83125 0.83125
v 0.05 0.83125 0.16875
v 0.04375 0.1625 0.1625
v 0.04375 0.1625 0.8375
v 0.04375 0.8375 0.8375
v 0.04375 0.8375 0.1625
v 0.00625 0.1625 0.1625
v 0.00625 0.1625 0.8375
v 0.00625 0.8375 0.8375
v 0.00625 0.8375 0.1625
v 0 0.16875 0.16875
v 0 0.16875 0.83125
v 0 0.83125 0.83125
v 0 0.83125 0.16875
v 0.05 0.75625 0.24375
v 0.05 0.75625 0.75625
v 0.05 0.24375 0.75625
v 0.05 0.24375 0.24375
v 0.04375 0.75 0.25
v 0.04375 0.75 0.75
v 0.04375 0.25 0.75
v 0.04375 0.25 0.25
v 0.00625 0.75 0.25
v 0.00625 0.75 0.75
v 0.00625 0.25 0.75
v 0.00625 0.25 0.25
v 0 0.75625 0.24375
v 0 0.75625 0.75625
v 0 0.24375 0.75625
v 0 0.24375 0.24375
v 0.05 0.16875 0.16875
v 0.05 0.16875 0.83125
v 0.05 0.83125 0.83125
v 0.05 0.83125 0.16875
v 0.05 0.75625 0.24375
v 0.05 0.75625 0.75625
v 0.05 0.24375 0.75625
v 0.05 0.24375 0.24375
v 0 0.16875 0.16875
v 0 0.16875 0.83125
v 0 0.83125 0.83125
v 0 0.83125 0.16875
v 0 0.75625 0.24375
v 0 0.75625 0.75625
v 0 0.24375 0.75625
v 0 0.24375 0.24375
vt 0.854236 0.022318
vt 0.956458 0.022318
vt 0.957422 0.023682
vt 0.853271 0.023682
vt 0.53197 0.069193
vt 0.634192 0.069193
vt 0.635156 0.070557
vt 0.531006 0.070557
vt 0.002185 0.019388
vt 0.104407 0.019388
vt 0.105371 0.020752
vt 0.001221 0.020752
vt 0.637927 0.069193
vt 0.740149 0.069193
vt 0.741113 0.070557
vt 0.636963 0.070557
vt 0.319092 0.151196
vt 0.423242 0.151196
vt 0.423242 0.156982
vt 0.319092 0.156982
vt 0.425049 0.151196
vt 0.529199 0.151196
vt 0.529199 0.156982
vt 0.425049 0.156982
vt 0.531006 0.151196
vt 0.635156 0.151196
vt 0.635156 0.156982
vt 0.531006 0.156982
vt 0.636963 0.151196
vt 0.741113 0.151196
vt 0.741113 0.156982
vt 0.636963 0.156982
vt 0.74292 0.069193
vt 0.84707 0.069193
vt 0.846106 0.070557
vt 0.743884 0.070557
vt 0.319092 0.031107
vt 0.423242 0.031107
vt 0.422278 0.032471
vt 0.320056 0.032471
vt 0.848877 0.069193
vt 0.953027 0.069193
vt 0.952063 0.070557
vt 0.849841 0.070557
vt 0.425049 0.031107
vt 0.529199 0.031107
vt 0.528235 0.032471
vt 0.426013 0.032471
vt 0.484619 0.042826
vt 0.563696 0.042826
vt 0.562732 0.044189
vt 0.485583 0.044189
vt 0.645752 0.036966
vt 0.724829 0.036966
vt 0.723865 0.03833
vt 0.646716 0.03833
vt 0.565186 0.042826
vt 0.644263 0.042826
vt 0.643298 0.044189
vt 0.56615 0.044189
vt 0.726318 0.036966
vt 0.805396 0.036966
vt 0.804431 0.03833
vt 0.727283 0.03833
vt 0.001221 0.121899
vt 0.078369 0.121899
vt 0.078369 0.127686
vt 0.001221 0.127686
vt 0.079834 0.121899
vt 0.156982 0.121899
vt 0.156982 0.127686
vt 0.079834 0.127686
vt 0.158447 0.121899
vt 0.235596 0.121899
vt 0.235596 0.127686
vt 0.158447 0.127686
vt 0.237061 0.121899
vt 0.314209 0.121899
vt 0.314209 0.127686
vt 0.237061 0.127686
vt 0.646716 0.042826
vt 0.723865 0.042826
vt 0.724829 0.044189
vt 0.645752 0.044189
vt 0.727283 0.042826
vt 0.804431 0.042826
vt 0.805396 0.044189
vt 0.726318 0.044189
vt 0.807849 0.042826
vt 0.884998 0.042826
vt 0.885962 0.044189
vt 0.806885 0.044189
vt 0.888416 0.042826
vt 0.965564 0.042826
vt 0.966528 0.044189
vt 0.887451 0.044189
vt 0.715894 0.987207
vt 0.727466 0.998779
vt 0.625244 0.998779
vt 0.636816 0.987207
vt 0.715894 0.987207
vt 0.625244 0.998779
vt 0.636816 0.987207
vt 0.625244 0.998779
vt 0.625244 0.896558
vt 0.636816 0.90813
vt 0.636816 0.987207
vt 0.625244 0.896558
vt 0.636816 0.90813
vt 0.625244 0.896558
vt 0.727466 0.896558
vt 0.715894 0.90813
vt 0.636816 0.90813
vt 0.727466 0.896558
vt 0.715894 0.987207
vt 0.715894 0.90813
vt 0.727466 0.896558
vt 0.727466 0.896558
vt 0.727466 0.998779
vt 0.715894 0.987207
vt 0.729248 0.896558
vt 0.83147 0.896558
vt 0.819897 0.90813
vt 0.729248 0.896558
vt 0.819897 0.90813
vt 0.74082 0.90813
vt 0.729248 0.998779
vt 0.729248 0.896558
vt 0.74082 0.90813
vt 0.729248 0.998779
vt 0.74082 0.90813
vt 0.74082 0.987207
vt 0.83147 0.998779
vt 0.729248 0.998779
vt 0.74082 0.987207
vt 0.83147 0.998779
vt 0.74082 0.987207
vt 0.819897 0.987207
vt 0.83147 0.998779
vt 0.819897 0.987207
vt 0.819897 0.90813
vt 0.819897 0.90813
vt 0.83147 0.896558
vt 0.83147 0.998779
vn 0.707107 -0.707107 0
vn 0.707107 0 0.707107
vn 0.707107 0.707107 0
vn 0.707107 0 -0.707107
vn 0 -1 0
vn 0 0 1
vn 0 1 0
vn 0 0 -1
vn -0.707107 -0.707107 0
vn -0.707107 0 0.707107
vn -0.707107 0.707107 0
vn -0.707107 0 -0.707107
vn 1 0 0
vn -1 0 0
f 225/489/33 226/490/33 230/491/33 229/492/33
f 226/493/34 227/494/34 231/495/34 230/496/34
f 227/497/35 228/498/35 232/499/35 231/500/35
f 228/501/36 225/502/36 229/503/36 232/504/36
f 229/505/37 230/506/37 234/507/37 233/508/37
f 230/509/38 231/510/38 235/511/38 234/512/38
f 231/513/39 232/514/39 236/515/39 235/516/39
f 232/517/40 229/518/40 233/519/40 236/520/40
f 233/521/41 234/522/41 238/523/41 237/524/41
f 234/525/42 235/526/42 239/527/42 238/528/42
f 235/529/43 236/530/43 240/531/43 239/532/43
f 236/533/44 233/534/44 237/535/44 240/536/44
f 241/537/33 242/538/33 246/539/33 245/540/33
f 242/541/36 243/542/36 247/543/36 246/544/36
f 243/545/35 244/546/35 248/547/35 247/548/35
f 244/549/34 241/550/34 245/551/34 248/552/34
f 245/553/37 246/554/37 250/555/37 249/556/37
f 246/557/40 247/558/40 251/559/40 250/560/40
f 247/561/39 248/562/39 252/563/39 251/564/39
f 248/565/38 245/566/38 249/567/38 252/568/38
f 249/569/41 250/570/41 254/571/41 253/572/41
f 250/573/44 251/574/44 255/575/44 254/576/44
f 251/577/43 252/578/43 256/579/43 255/580/43
f 252/581/42 249/582/42 253/583/42 256/584/42
f 262/585/45 259/586/45 258/587/45
f 263/588/45 262/589/45 258/590/45
f 263/591/45 258/592/45 257/593/45
f 264/594/45 263/595/45 257/596/45
f 264/597/45 257/598/45 260/599/45
f 261/600/45 264/601/45 260/602/45
f 262/603/45 261/604/45 260/605/45
f 260/606/45 259/607/45 262/608/45
f 266/609/46 267/610/46 270/611/46
f 266/612/46 270/613/46 271/614/46
f 265/615/46 266/616/46 271/617/46
f 265/618/46 271/619/46 272/620/46
f 268/621/46 265/622/46 272/623/46
f 268/624/46 272/625/46 269/626/46
f 268/627/46 269/628/46 270/629/46
f 270/630/46 267/631/46 268/632/46
o arm_port_port_nuts
usemtl fluid_pipe
v 0.071875 0.2225 0.232108
v 0.071875 0.235625 0.209375
v 0.071875 0.2225 0.186642
v 0.071875 0.19625 0.186642
v 0.071875 0.183125 0.209375
v 0.071875 0.19625 0.232108
v 0.05 0.2225 0.232108
v 0.05 0.235625 0.209375
v 0.05 0.2225 0.186642
v 0.05 0.19625 0.186642
v 0.05 0.183125 0.209375
v 0.05 0.19625 0.232108
v 0.071875 0.2225 0.232108
v 0.071875 0.235625 0.209375
v 0.071875 0.2225 0.186642
v 0.071875 0.19625 0.186642
v 0.071875 0.183125 0.209375
v 0.071875 0.19625 0.232108
v 0.05 0.2225 0.232108
v 0.05 0.235625 0.209375
v 0.05 0.2225 0.186642
v 0.05 0.19625 0.186642
v 0.05 0.183125 0.209375
v 0.05 0.19625 0.232108
v 0.071875 0.80375 0.232108
v 0.071875 0.816875 0.209375
v 0.071875 0.80375 0.186642
v 0.071875 0.7775 0.186642
v 0.071875 0.764375 0.209375
v 0.071875 0.7775 0.232108
v 0.05 0.80375 0.232108
v 0.05 0.816875 0.209375
v 0.05 0.80375 0.186642
v 0.05 0.7775 0.186642
v 0.05 0.764375 0.209375
v 0.05 0.7775 0.232108
v 0.071875 0.80375 0.232108
v 0.071875 0.816875 0.209375
v 0.071875 0.80375 0.186642
v 0.071875 0.7775 0.186642
v 0.071875 0.764375 0.209375
v 0.071875 0.7775 0.232108
v 0.05 0.80375 0.232108
v 0.05 0.816875 0.209375
v 0.05 0.80375 0.186642
v 0.05 0.7775 0.186642
v 0.05 0.764375 0.209375
v 0.05 0.7775 0.232108
v 0.071875 0.2225 0.813358
v 0.071875 0.235625 0.790625
v 0.071875 0.2225 0.767892
v 0.071875 0.19625 0.767892
v 0.071875 0.183125 0.790625
v 0.071875 0.19625 0.813358
v 0.05 0.2225 0.813358
v 0.05 0.235625 0.790625
v 0.05 0.2225 0.767892
v 0.05 0.19625 0.767892
v 0.05 0.183125 0.790625
v 0.05 0.19625 0.813358
v 0.071875 0.2225 0.813358
v 0.071875 0.235625 0.790625
v 0.071875 0.2225 0.767892
v 0.071875 0.19625 0.767892
v 0.071875 0.183125 0.790625
v 0.071875 0.19625 0.813358
v 0.05 0.2225 0.813358
v 0.05 0.235625 0.790625
v 0.05 0.2225 0.767892
v 0.05 0.19625 0.767892
v 0.05 0.183125 0.790625
v 0.05 0.19625 0.813358
v 0.071875 0.80375 0.813358
v 0.071875 0.816875 0.790625
v 0.071875 0.80375 0.767892
v 0.071875 0.7775 0.767892
v 0.071875 0.764375 0.790625
v 0.071875 0.7775 0.813358
v 0.05 0.80375 0.813358
v 0.05 0.816875 0.790625
v 0.05 0.80375 0.767892
v 0.05 0.7775 0.767892
v 0.05 0.764375 0.790625
v 0.05 0.7775 0.813358
v 0.071875 0.80375 0.813358
v 0.071875 0.816875 0.790625
v 0.071875 0.80375 0.767892
v 0.071875 0.7775 0.767892
v 0.071875 0.764375 0.790625
v 0.071875 0.7775 0.813358
v 0.05 0.80375 0.813358
v 0.05 0.816875 0.790625
v 0.05 0.80375 0.767892
v 0.05 0.7775 0.767892
v 0.05 0.764375 0.790625
v 0.05 0.7775 0.813358
vt 0.820068 0.083295
vt 0.824119 0.083295
vt 0.824119 0.08667
vt 0.820068 0.08667
vt 0.825928 0.083295
vt 0.829978 0.083295
vt 0.829978 0.08667
vt 0.825928 0.08667
vt 0.831787 0.083295
vt 0.835837 0.083295
vt 0.835837 0.08667
vt 0.831787 0.08667
vt 0.374756 0.083295
vt 0.378806 0.083295
vt 0.378806 0.08667
vt 0.374756 0.08667
vt 0.837646 0.083295
vt 0.841697 0.083295
vt 0.841697 0.08667
vt 0.837646 0.08667
vt 0.843506 0.083295
vt 0.847556 0.083295
vt 0.847556 0.08667
vt 0.843506 0.08667
vt 0.526411 0.172518
vt 0.524386 0.176025
vt 0.520336 0.176025
vt 0.524386 0.16901
vt 0.526411 0.172518
vt 0.520336 0.176025
vt 0.520336 0.16901
vt 0.524386 0.16901
vt 0.520336 0.176025
vt 0.520336 0.176025
vt 0.518311 0.172518
vt 0.520336 0.16901
vt 0.530101 0.16901
vt 0.534152 0.16901
vt 0.536177 0.172518
vt 0.530101 0.16901
vt 0.536177 0.172518
vt 0.534152 0.176025
vt 0.530101 0.16901
vt 0.534152 0.176025
vt 0.530101 0.176025
vt 0.530101 0.176025
vt 0.528076 0.172518
vt 0.530101 0.16901
vt 0.849365 0.083295
vt 0.853416 0.083295
vt 0.853416 0.08667
vt 0.849365 0.08667
vt 0.380615 0.083295
vt 0.384666 0.083295
vt 0.384666 0.08667
vt 0.380615 0.08667
vt 0.855225 0.083295
vt 0.859275 0.083295
vt 0.859275 0.08667
vt 0.855225 0.08667
vt 0.861084 0.083295
vt 0.865134 0.083295
vt 0.865134 0.08667
vt 0.861084 0.08667
vt 0.866943 0.083295
vt 0.870994 0.083295
vt 0.870994 0.08667
vt 0.866943 0.08667
vt 0.872803 0.083295
vt 0.876853 0.083295
vt 0.876853 0.08667
vt 0.872803 0.08667
vt 0.545942 0.172518
vt 0.543917 0.176025
vt 0.539867 0.176025
vt 0.543917 0.16901
vt 0.545942 0.172518
vt 0.539867 0.176025
vt 0.539867 0.16901
vt 0.543917 0.16901
vt 0.539867 0.176025
vt 0.539867 0.176025
vt 0.537842 0.172518
vt 0.539867 0.16901
vt 0.549633 0.16901
vt 0.553683 0.16901
vt 0.555708 0.172518
vt 0.549633 0.16901
vt 0.555708 0.172518
vt 0.553683 0.176025
vt 0.549633 0.16901
vt 0.553683 0.176025
vt 0.549633 0.176025
vt 0.549633 0.176025
vt 0.547607 0.172518
vt 0.549633 0.16901
vt 0.878662 0.083295
vt 0.882712 0.083295
vt 0.882712 0.08667
vt 0.878662 0.08667
vt 0.884521 0.083295
vt 0.888572 0.083295
vt 0.888572 0.08667
vt 0.884521 0.08667
vt 0.890381 0.083295
vt 0.894431 0.083295
vt 0.894431 0.08667
vt 0.890381 0.08667
vt 0.89624 0.083295
vt 0.900291 0.083295
vt 0.900291 0.08667
vt 0.89624 0.08667
vt 0.386475 0.083295
vt 0.390525 0.083295
vt 0.390525 0.08667
vt 0.386475 0.08667
vt 0.9021 0.083295
vt 0.90615 0.083295
vt 0.90615 0.08667
vt 0.9021 0.08667
vt 0.565474 0.172518
vt 0.563448 0.176025
vt 0.559398 0.176025
vt 0.563448 0.16901
vt 0.565474 0.172518
vt 0.559398 0.176025
vt 0.559398 0.16901
vt 0.563448 0.16901
vt 0.559398 0.176025
vt 0.559398 0.176025
vt 0.557373 0.172518
vt 0.559398 0.16901
vt 0.569164 0.16901
vt 0.573214 0.16901
vt 0.575239 0.172518
vt 0.569164 0.16901
vt 0.575239 0.172518
vt 0.573214 0.176025
vt 0.569164 0.16901
vt 0.573214 0.176025
vt 0.569164 0.176025
vt 0.569164 0.176025
vt 0.567139 0.172518
vt 0.569164 0.16901
vt 0.392334 0.083295
vt 0.396384 0.083295
vt 0.396384 0.08667
vt 0.392334 0.08667
vt 0.907959 0.083295
vt 0.912009 0.083295
vt 0.912009 0.08667
vt 0.907959 0.08667
vt 0.913818 0.083295
vt 0.917869 0.083295
vt 0.917869 0.08667
vt 0.913818 0.08667
vt 0.919678 0.083295
vt 0.923728 0.083295
vt 0.923728 0.08667
vt 0.919678 0.08667
vt 0.925537 0.083295
vt 0.929587 0.083295
vt 0.929587 0.08667
vt 0.925537 0.08667
vt 0.931396 0.083295
vt 0.935447 0.083295
vt 0.935447 0.08667
vt 0.931396 0.08667
vt 0.585005 0.172518
vt 0.58298 0.176025
vt 0.578929 0.176025
vt 0.58298 0.16901
vt 0.585005 0.172518
vt 0.578929 0.176025
vt 0.578929 0.16901
vt 0.58298 0.16901
vt 0.578929 0.176025
vt 0.578929 0.176025
vt 0.576904 0.172518
vt 0.578929 0.16901
vt 0.588695 0.16901
vt 0.592745 0.16901
vt 0.594771 0.172518
vt 0.588695 0.16901
vt 0.594771 0.172518
vt 0.592745 0.176025
vt 0.588695 0.16901
vt 0.592745 0.176025
vt 0.588695 0.176025
vt 0.588695 0.176025
vt 0.58667 0.172518
vt 0.588695 0.16901
vn 0 0.866025 0.5
vn 0 0.866025 -0.5
vn 0 0 -1
vn 0 -0.866025 -0.5
vn 0 -0.866025 0.5
vn 0 0 1
vn 1 0 0
vn -1 0 0
f 273/633/47 274/634/47 280/635/47 279/636/47
f 274/637/48 275/638/48 281/639/48 280/640/48
f 275/641/49 276/642/49 282/643/49 281/644/49
f 276/645/50 277/646/50 283/647/50 282/648/50
f 277/649/51 278/650/51 284/651/51 283/652/51
f 278/653/52 273/654/52 279/655/52 284/656/52
f 286/657/53 285/658/53 290/659/53
f 287/660/53 286/661/53 290/662/53
f 288/663/53 287/664/53 290/665/53
f 290/666/53 289/667/53 288/668/53
f 296/669/54 291/670/54 292/671/54
f 296/672/54 292/673/54 293/674/54
f 296/675/54 293/676/54 294/677/54
f 294/678/54 295/679/54 296/680/54
f 297/681/47 298/682/47 304/683/47 303/684/47
f 298/685/48 299/686/48 305/687/48 304/688/48
f 299/689/49 300/690/49 306/691/49 305/692/49
f 300/693/50 301/694/50 307/695/50 306/696/50
f 301/697/51 302/698/51 308/699/51 307/700/51
f 302/701/52 297/702/52 303/703/52 308/704/52
f 310/705/53 309/706/53 314/707/53
f 311/708/53 310/709/53 314/710/53
f 312/711/53 311/712/53 314/713/53
f 314/714/53 313/715/53 312/716/53
f 320/717/54 315/718/54 316/719/54
f 320/720/54 316/721/54 317/722/54
f 320/723/54 317/724/54 318/725/54
f 318/726/54 319/727/54 320/728/54
f 321/729/47 322/730/47 328/731/47 327/732/47
f 322/733/48 323/734/48 329/735/48 328/736/48
f 323/737/49 324/738/49 330/739/49 329/740/49
f 324/741/50 325/742/50 331/743/50 330/744/50
f 325/745/51 326/746/51 332/747/51 331/748/51
f 326/749/52 321/750/52 327/751/52 332/752/52
f 334/753/53 333/754/53 338/755/53
f 335/756/53 334/757/53 338/758/53
f 336/759/53 335/760/53 338/761/53
f 338/762/53 337/763/53 336/764/53
f 344/765/54 339/766/54 340/767/54
f 344/768/54 340/769/54 341/770/54
f 344/771/54 341/772/54 342/773/54
f 342/774/54 343/775/54 344/776/54
f 345/777/47 346/778/47 352/779/47 351/780/47
f 346/781/48 347/782/48 353/783/48 352/784/48
f 347/785/49 348/786/49 354/787/49 353/788/49
f 348/789/50 349/790/50 355/791/50 354/792/50
f 349/793/51 350/794/51 356/795/51 355/796/51
f 350/797/52 345/798/52 351/799/52 356/800/52
f 358/801/53 357/802/53 362/803/53
f 359/804/53 358/805/53 362/806/53
f 360/807/53 359/808/53 362/809/53
f 362/810/53 361/811/53 360/812/53
f 368/813/54 363/814/54 364/815/54
f 368/816/54 364/817/54 365/818/54
f 368/819/54 365/820/54 366/821/54
f 366/822/54 367/823/54 368/824/54
