# AFL Fluid Pipe V2 arm_pipe_down, generated by tools/build-fluid-pipe-v2.mjs
mtllib fluid_pipe.mtl
o arm_pipe_flange
usemtl fluid_pipe
v 0.83125 0.2125 0.83125
v 0.16875 0.2125 0.83125
v 0.16875 0.2125 0.16875
v 0.83125 0.2125 0.16875
v 0.8375 0.20625 0.8375
v 0.1625 0.20625 0.8375
v 0.1625 0.20625 0.1625
v 0.8375 0.20625 0.1625
v 0.8375 0.16875 0.8375
v 0.1625 0.16875 0.8375
v 0.1625 0.16875 0.1625
v 0.8375 0.16875 0.1625
v 0.83125 0.1625 0.83125
v 0.16875 0.1625 0.83125
v 0.16875 0.1625 0.16875
v 0.83125 0.1625 0.16875
v 0.75625 0.2125 0.24375
v 0.24375 0.2125 0.24375
v 0.24375 0.2125 0.75625
v 0.75625 0.2125 0.75625
v 0.75 0.20625 0.25
v 0.25 0.20625 0.25
v 0.25 0.20625 0.75
v 0.75 0.20625 0.75
v 0.75 0.16875 0.25
v 0.25 0.16875 0.25
v 0.25 0.16875 0.75
v 0.75 0.16875 0.75
v 0.75625 0.1625 0.24375
v 0.24375 0.1625 0.24375
v 0.24375 0.1625 0.75625
v 0.75625 0.1625 0.75625
v 0.83125 0.2125 0.83125
v 0.16875 0.2125 0.83125
v 0.16875 0.2125 0.16875
v 0.83125 0.2125 0.16875
v 0.75625 0.2125 0.24375
v 0.24375 0.2125 0.24375
v 0.24375 0.2125 0.75625
v 0.75625 0.2125 0.75625
v 0.83125 0.1625 0.83125
v 0.16875 0.1625 0.83125
v 0.16875 0.1625 0.16875
v 0.83125 0.1625 0.16875
v 0.75625 0.1625 0.24375
v 0.24375 0.1625 0.24375
v 0.24375 0.1625 0.75625
v 0.75625 0.1625 0.75625
vt 0.637927 0.072123
vt 0.740149 0.072123
vt 0.741113 0.073486
vt 0.636963 0.073486
vt 0.888416 0.025248
vt 0.990637 0.025248
vt 0.991602 0.026611
vt 0.887451 0.026611
vt 0.743884 0.072123
vt 0.846106 0.072123
vt 0.84707 0.073486
vt 0.74292 0.073486
vt 0.002185 0.022318
vt 0.104407 0.022318
vt 0.105371 0.023682
vt 0.001221 0.023682
vt 0.452881 0.159009
vt 0.557031 0.159009
vt 0.557031 0.164795
vt 0.452881 0.164795
vt 0.558838 0.159009
vt 0.662988 0.159009
vt 0.662988 0.164795
vt 0.558838 0.164795
vt 0.664795 0.159009
vt 0.768945 0.159009
vt 0.768945 0.164795
vt 0.664795 0.164795
vt 0.770752 0.159009
vt 0.874902 0.159009
vt 0.874902 0.164795
vt 0.770752 0.164795
vt 0.848877 0.072123
vt 0.953027 0.072123
vt 0.952063 0.073486
vt 0.849841 0.073486
vt 0.857666 0.034037
vt 0.961816 0.034037
vt 0.960852 0.0354
vt 0.85863 0.0354
vt 0.001221 0.069193
vt 0.105371 0.069193
vt 0.104407 0.070557
vt 0.002185 0.070557
vt 0.001221 0.031107
vt 0.105371 0.031107
vt 0.104407 0.032471
vt 0.002185 0.032471
vt 0.484619 0.045755
vt 0.563696 0.045755
vt 0.562732 0.047119
vt 0.485583 0.047119
vt 0.574463 0.028177
vt 0.65354 0.028177
vt 0.652576 0.029541
vt 0.575427 0.029541
vt 0.565186 0.045755
vt 0.644263 0.045755
vt 0.643298 0.047119
vt 0.56615 0.047119
vt 0.655029 0.028177
vt 0.734106 0.028177
vt 0.733142 0.029541
vt 0.655994 0.029541
vt 0.315674 0.129224
vt 0.392822 0.129224
vt 0.392822 0.13501
vt 0.315674 0.13501
vt 0.394287 0.129224
vt 0.471436 0.129224
vt 0.471436 0.13501
vt 0.394287 0.13501
vt 0.4729 0.129224
vt 0.550049 0.129224
vt 0.550049 0.13501
vt 0.4729 0.13501
vt 0.551514 0.129224
vt 0.628662 0.129224
vt 0.628662 0.13501
vt 0.551514 0.13501
vt 0.646716 0.045755
vt 0.723865 0.045755
vt 0.724829 0.047119
vt 0.645752 0.047119
vt 0.727283 0.045755
vt 0.804431 0.045755
vt 0.805396 0.047119
vt 0.726318 0.047119
vt 0.807849 0.045755
vt 0.884998 0.045755
vt 0.885962 0.047119
vt 0.806885 0.047119
vt 0.888416 0.045755
vt 0.965564 0.045755
vt 0.966528 0.047119
vt 0.887451 0.047119
vt 0.299878 0.987207
vt 0.31145 0.998779
vt 0.209229 0.998779
vt 0.220801 0.987207
vt 0.299878 0.987207
vt 0.209229 0.998779
vt 0.220801 0.987207
vt 0.209229 0.998779
vt 0.209229 0.896558
vt 0.220801 0.90813
vt 0.220801 0.987207
vt 0.209229 0.896558
vt 0.220801 0.90813
vt 0.209229 0.896558
vt 0.31145 0.896558
vt 0.299878 0.90813
vt 0.220801 0.90813
vt 0.31145 0.896558
vt 0.299878 0.987207
vt 0.299878 0.90813
vt 0.31145 0.896558
vt 0.31145 0.896558
vt 0.31145 0.998779
vt 0.299878 0.987207
vt 0.313232 0.896558
vt 0.415454 0.896558
vt 0.403882 0.90813
vt 0.313232 0.896558
vt 0.403882 0.90813
vt 0.324805 0.90813
vt 0.313232 0.998779
vt 0.313232 0.896558
vt 0.324805 0.90813
vt 0.313232 0.998779
vt 0.324805 0.90813
vt 0.324805 0.987207
vt 0.415454 0.998779
vt 0.313232 0.998779
vt 0.324805 0.987207
vt 0.415454 0.998779
vt 0.324805 0.987207
vt 0.403882 0.987207
vt 0.415454 0.998779
vt 0.403882 0.987207
vt 0.403882 0.90813
vt 0.403882 0.90813
vt 0.415454 0.896558
vt 0.415454 0.998779
vn 0 0.707107 0.707107
vn -0.707107 0.707107 0
vn 0 0.707107 -0.707107
vn 0.707107 0.707107 0
vn 0 0 1
vn -1 0 0
vn 0 0 -1
vn 1 0 0
vn 0 -0.707107 0.707107
vn -0.707107 -0.707107 0
vn 0 -0.707107 -0.707107
vn 0.707107 -0.707107 0
vn 0 1 0
vn 0 -1 0
f 1/1/1 2/2/1 6/3/1 5/4/1
f 2/5/2 3/6/2 7/7/2 6/8/2
f 3/9/3 4/10/3 8/11/3 7/12/3
f 4/13/4 1/14/4 5/15/4 8/16/4
f 5/17/5 6/18/5 10/19/5 9/20/5
f 6/21/6 7/22/6 11/23/6 10/24/6
f 7/25/7 8/26/7 12/27/7 11/28/7
f 8/29/8 5/30/8 9/31/8 12/32/8
f 9/33/9 10/34/9 14/35/9 13/36/9
f 10/37/10 11/38/10 15/39/10 14/40/10
f 11/41/11 12/42/11 16/43/11 15/44/11
f 12/45/12 9/46/12 13/47/12 16/48/12
f 17/49/1 18/50/1 22/51/1 21/52/1
f 18/53/4 19/54/4 23/55/4 22/56/4
f 19/57/3 20/58/3 24/59/3 23/60/3
f 20/61/2 17/62/2 21/63/2 24/64/2
f 21/65/5 22/66/5 26/67/5 25/68/5
f 22/69/8 23/70/8 27/71/8 26/72/8
f 23/73/7 24/74/7 28/75/7 27/76/7
f 24/77/6 21/78/6 25/79/6 28/80/6
f 25/81/9 26/82/9 30/83/9 29/84/9
f 26/85/12 27/86/12 31/87/12 30/88/12
f 27/89/11 28/90/11 32/91/11 31/92/11
f 28/93/10 25/94/10 29/95/10 32/96/10
f 38/97/13 35/98/13 34/99/13
f 39/100/13 38/101/13 34/102/13
f 39/103/13 34/104/13 33/105/13
f 40/106/13 39/107/13 33/108/13
f 40/109/13 33/110/13 36/111/13
f 37/112/13 40/113/13 36/114/13
f 38/115/13 37/116/13 36/117/13
f 36/118/13 35/119/13 38/120/13
f 42/121/14 43/122/14 46/123/14
f 42/124/14 46/125/14 47/126/14
f 41/127/14 42/128/14 47/129/14
f 41/130/14 47/131/14 48/132/14
f 44/133/14 41/134/14 48/135/14
f 44/136/14 48/137/14 45/138/14
f 44/139/14 45/140/14 46/141/14
f 46/142/14 43/143/14 44/144/14
o arm_pipe_flange_nuts
usemtl fluid_pipe
v 0.767892 0.1625 0.7775
v 0.790625 0.1625 0.764375
v 0.813358 0.1625 0.7775
v 0.813358 0.1625 0.80375
v 0.790625 0.1625 0.816875
v 0.767892 0.1625 0.80375
v 0.767892 0.140625 0.7775
v 0.790625 0.140625 0.764375
v 0.813358 0.140625 0.7775
v 0.813358 0.140625 0.80375
v 0.790625 0.140625 0.816875
v 0.767892 0.140625 0.80375
v 0.767892 0.1625 0.7775
v 0.790625 0.1625 0.764375
v 0.813358 0.1625 0.7775
v 0.813358 0.1625 0.80375
v 0.790625 0.1625 0.816875
v 0.767892 0.1625 0.80375
v 0.767892 0.140625 0.7775
v 0.790625 0.140625 0.764375
v 0.813358 0.140625 0.7775
v 0.813358 0.140625 0.80375
v 0.790625 0.140625 0.816875
v 0.767892 0.140625 0.80375
v 0.767892 0.1625 0.19625
v 0.790625 0.1625 0.183125
v 0.813358 0.1625 0.19625
v 0.813358 0.1625 0.2225
v 0.790625 0.1625 0.235625
v 0.767892 0.1625 0.2225
v 0.767892 0.140625 0.19625
v 0.790625 0.140625 0.183125
v 0.813358 0.140625 0.19625
v 0.813358 0.140625 0.2225
v 0.790625 0.140625 0.235625
v 0.767892 0.140625 0.2225
v 0.767892 0.1625 0.19625
v 0.790625 0.1625 0.183125
v 0.813358 0.1625 0.19625
v 0.813358 0.1625 0.2225
v 0.790625 0.1625 0.235625
v 0.767892 0.1625 0.2225
v 0.767892 0.140625 0.19625
v 0.790625 0.140625 0.183125
v 0.813358 0.140625 0.19625
v 0.813358 0.140625 0.2225
v 0.790625 0.140625 0.235625
v 0.767892 0.140625 0.2225
v 0.186642 0.1625 0.7775
v 0.209375 0.1625 0.764375
v 0.232108 0.1625 0.7775
v 0.232108 0.1625 0.80375
v 0.209375 0.1625 0.816875
v 0.186642 0.1625 0.80375
v 0.186642 0.140625 0.7775
v 0.209375 0.140625 0.764375
v 0.232108 0.140625 0.7775
v 0.232108 0.140625 0.80375
v 0.209375 0.140625 0.816875
v 0.186642 0.140625 0.80375
v 0.186642 0.1625 0.7775
v 0.209375 0.1625 0.764375
v 0.232108 0.1625 0.7775
v 0.232108 0.1625 0.80375
v 0.209375 0.1625 0.816875
v 0.186642 0.1625 0.80375
v 0.186642 0.140625 0.7775
v 0.209375 0.140625 0.764375
v 0.232108 0.140625 0.7775
v 0.232108 0.140625 0.80375
v 0.209375 0.140625 0.816875
v 0.186642 0.140625 0.80375
v 0.186642 0.1625 0.19625
v 0.209375 0.1625 0.183125
v 0.232108 0.1625 0.19625
v 0.232108 0.1625 0.2225
v 0.209375 0.1625 0.235625
v 0.186642 0.1625 0.2225
v 0.186642 0.140625 0.19625
v 0.209375 0.140625 0.183125
v 0.232108 0.140625 0.19625
v 0.232108 0.140625 0.2225
v 0.209375 0.140625 0.235625
v 0.186642 0.140625 0.2225
v 0.186642 0.1625 0.19625
v 0.209375 0.1625 0.183125
v 0.232108 0.1625 0.19625
v 0.232108 0.1625 0.2225
v 0.209375 0.1625 0.235625
v 0.186642 0.1625 0.2225
v 0.186642 0.140625 0.19625
v 0.209375 0.140625 0.183125
v 0.232108 0.140625 0.19625
v 0.232108 0.140625 0.2225
v 0.209375 0.140625 0.235625
v 0.186642 0.140625 0.2225
vt 0.585693 0.083295
vt 0.589744 0.083295
vt 0.589744 0.08667
vt 0.585693 0.08667
vt 0.591553 0.083295
vt 0.595603 0.083295
vt 0.595603 0.08667
vt 0.591553 0.08667
vt 0.597412 0.083295
vt 0.601462 0.083295
vt 0.601462 0.08667
vt 0.597412 0.08667
vt 0.327881 0.083295
vt 0.331931 0.083295
vt 0.331931 0.08667
vt 0.327881 0.08667
vt 0.603271 0.083295
vt 0.607322 0.083295
vt 0.607322 0.08667
vt 0.603271 0.08667
vt 0.609131 0.083295
vt 0.613181 0.083295
vt 0.613181 0.08667
vt 0.609131 0.08667
vt 0.370161 0.172518
vt 0.368136 0.176025
vt 0.364086 0.176025
vt 0.368136 0.16901
vt 0.370161 0.172518
vt 0.364086 0.176025
vt 0.364086 0.16901
vt 0.368136 0.16901
vt 0.364086 0.176025
vt 0.364086 0.176025
vt 0.362061 0.172518
vt 0.364086 0.16901
vt 0.373851 0.16901
vt 0.377902 0.16901
vt 0.379927 0.172518
vt 0.373851 0.16901
vt 0.379927 0.172518
vt 0.377902 0.176025
vt 0.373851 0.16901
vt 0.377902 0.176025
vt 0.373851 0.176025
vt 0.373851 0.176025
vt 0.371826 0.172518
vt 0.373851 0.16901
vt 0.61499 0.083295
vt 0.619041 0.083295
vt 0.619041 0.08667
vt 0.61499 0.08667
vt 0.33374 0.083295
vt 0.337791 0.083295
vt 0.337791 0.08667
vt 0.33374 0.08667
vt 0.62085 0.083295
vt 0.6249 0.083295
vt 0.6249 0.08667
vt 0.62085 0.08667
vt 0.626709 0.083295
vt 0.630759 0.083295
vt 0.630759 0.08667
vt 0.626709 0.08667
vt 0.632568 0.083295
vt 0.636619 0.083295
vt 0.636619 0.08667
vt 0.632568 0.08667
vt 0.638428 0.083295
vt 0.642478 0.083295
vt 0.642478 0.08667
vt 0.638428 0.08667
vt 0.389692 0.172518
vt 0.387667 0.176025
vt 0.383617 0.176025
vt 0.387667 0.16901
vt 0.389692 0.172518
vt 0.383617 0.176025
vt 0.383617 0.16901
vt 0.387667 0.16901
vt 0.383617 0.176025
vt 0.383617 0.176025
vt 0.381592 0.172518
vt 0.383617 0.16901
vt 0.393383 0.16901
vt 0.397433 0.16901
vt 0.399458 0.172518
vt 0.393383 0.16901
vt 0.399458 0.172518
vt 0.397433 0.176025
vt 0.393383 0.16901
vt 0.397433 0.176025
vt 0.393383 0.176025
vt 0.393383 0.176025
vt 0.391357 0.172518
vt 0.393383 0.16901
vt 0.644287 0.083295
vt 0.648337 0.083295
vt 0.648337 0.08667
vt 0.644287 0.08667
vt 0.650146 0.083295
vt 0.654197 0.083295
vt 0.654197 0.08667
vt 0.650146 0.08667
vt 0.656006 0.083295
vt 0.660056 0.083295
vt 0.660056 0.08667
vt 0.656006 0.08667
vt 0.661865 0.083295
vt 0.665916 0.083295
vt 0.665916 0.08667
vt 0.661865 0.08667
vt 0.3396 0.083295
vt 0.34365 0.083295
vt 0.34365 0.08667
vt 0.3396 0.08667
vt 0.667725 0.083295
vt 0.671775 0.083295
vt 0.671775 0.08667
vt 0.667725 0.08667
vt 0.409224 0.172518
vt 0.407198 0.176025
vt 0.403148 0.176025
vt 0.407198 0.16901
vt 0.409224 0.172518
vt 0.403148 0.176025
vt 0.403148 0.16901
vt 0.407198 0.16901
vt 0.403148 0.176025
vt 0.403148 0.176025
vt 0.401123 0.172518
vt 0.403148 0.16901
vt 0.412914 0.16901
vt 0.416964 0.16901
vt 0.418989 0.172518
vt 0.412914 0.16901
vt 0.418989 0.172518
vt 0.416964 0.176025
vt 0.412914 0.16901
vt 0.416964 0.176025
vt 0.412914 0.176025
vt 0.412914 0.176025
vt 0.410889 0.172518
vt 0.412914 0.16901
vt 0.345459 0.083295
vt 0.349509 0.083295
vt 0.349509 0.08667
vt 0.345459 0.08667
vt 0.673584 0.083295
vt 0.677634 0.083295
vt 0.677634 0.08667
vt 0.673584 0.08667
vt 0.679443 0.083295
vt 0.683494 0.083295
vt 0.683494 0.08667
vt 0.679443 0.08667
vt 0.685303 0.083295
vt 0.689353 0.083295
vt 0.689353 0.08667
vt 0.685303 0.08667
vt 0.691162 0.083295
vt 0.695212 0.083295
vt 0.695212 0.08667
vt 0.691162 0.08667
vt 0.697021 0.083295
vt 0.701072 0.083295
vt 0.701072 0.08667
vt 0.697021 0.08667
vt 0.428755 0.172518
vt 0.42673 0.176025
vt 0.422679 0.176025
vt 0.42673 0.16901
vt 0.428755 0.172518
vt 0.422679 0.176025
vt 0.422679 0.16901
vt 0.42673 0.16901
vt 0.422679 0.176025
vt 0.422679 0.176025
vt 0.420654 0.172518
vt 0.422679 0.16901
vt 0.432445 0.16901
vt 0.436495 0.16901
vt 0.438521 0.172518
vt 0.432445 0.16901
vt 0.438521 0.172518
vt 0.436495 0.176025
vt 0.432445 0.16901
vt 0.436495 0.176025
vt 0.432445 0.176025
vt 0.432445 0.176025
vt 0.43042 0.172518
vt 0.432445 0.16901
vn -0.5 0 -0.866025
vn 0.5 0 -0.866025
vn 1 0 0
vn 0.5 0 0.866025
vn -0.5 0 0.866025
vn -1 0 0
vn 0 1 0
vn 0 -1 0
f 49/145/15 50/146/15 56/147/15 55/148/15
f 50/149/16 51/150/16 57/151/16 56/152/16
f 51/153/17 52/154/17 58/155/17 57/156/17
f 52/157/18 53/158/18 59/159/18 58/160/18
f 53/161/19 54/162/19 60/163/19 59/164/19
f 54/165/20 49/166/20 55/167/20 60/168/20
f 62/169/21 61/170/21 66/171/21
f 63/172/21 62/173/21 66/174/21
f 64/175/21 63/176/21 66/177/21
f 66/178/21 65/179/21 64/180/21
f 72/181/22 67/182/22 68/183/22
f 72/184/22 68/185/22 69/186/22
f 72/187/22 69/188/22 70/189/22
f 70/190/22 71/191/22 72/192/22
f 73/193/15 74/194/15 80/195/15 79/196/15
f 74/197/16 75/198/16 81/199/16 80/200/16
f 75/201/17 76/202/17 82/203/17 81/204/17
f 76/205/18 77/206/18 83/207/18 82/208/18
f 77/209/19 78/210/19 84/211/19 83/212/19
f 78/213/20 73/214/20 79/215/20 84/216/20
f 86/217/21 85/218/21 90/219/21
f 87/220/21 86/221/21 90/222/21
f 88/223/21 87/224/21 90/225/21
f 90/226/21 89/227/21 88/228/21
f 96/229/22 91/230/22 92/231/22
f 96/232/22 92/233/22 93/234/22
f 96/235/22 93/236/22 94/237/22
f 94/238/22 95/239/22 96/240/22
f 97/241/15 98/242/15 104/243/15 103/244/15
f 98/245/16 99/246/16 105/247/16 104/248/16
f 99/249/17 100/250/17 106/251/17 105/252/17
f 100/253/18 101/254/18 107/255/18 106/256/18
f 101/257/19 102/258/19 108/259/19 107/260/19
f 102/261/20 97/262/20 103/263/20 108/264/20
f 110/265/21 109/266/21 114/267/21
f 111/268/21 110/269/21 114/270/21
f 112/271/21 111/272/21 114/273/21
f 114/274/21 113/275/21 112/276/21
f 120/277/22 115/278/22 116/279/22
f 120/280/22 116/281/22 117/282/22
f 120/283/22 117/284/22 118/285/22
f 118/286/22 119/287/22 120/288/22
f 121/289/15 122/290/15 128/291/15 127/292/15
f 122/293/16 123/294/16 129/295/16 128/296/16
f 123/297/17 124/298/17 130/299/17 129/300/17
f 124/301/18 125/302/18 131/303/18 130/304/18
f 125/305/19 126/306/19 132/307/19 131/308/19
f 126/309/20 121/310/20 127/311/20 132/312/20
f 134/313/21 133/314/21 138/315/21
f 135/316/21 134/317/21 138/318/21
f 136/319/21 135/320/21 138/321/21
f 138/322/21 137/323/21 136/324/21
f 144/325/22 139/326/22 140/327/22
f 144/328/22 140/329/22 141/330/22
f 144/331/22 141/332/22 142/333/22
f 142/334/22 143/335/22 144/336/22
o arm_pipe_rails
usemtl fluid_pipe
v 0.66875 0.1625 0.66875
v 0.75 0.1625 0.66875
v 0.75 0.1625 0.73125
v 0.73125 0.1625 0.75
v 0.66875 0.1625 0.75
v 0.66875 0 0.66875
v 0.75 0 0.66875
v 0.75 0 0.73125
v 0.73125 0 0.75
v 0.66875 0 0.75
v 0.66875 0.1625 0.66875
v 0.75 0.1625 0.66875
v 0.75 0.1625 0.73125
v 0.73125 0.1625 0.75
v 0.66875 0.1625 0.75
v 0.66875 0 0.66875
v 0.75 0 0.66875
v 0.75 0 0.73125
v 0.73125 0 0.75
v 0.66875 0 0.75
v 0.66875 0.1625 0.25
v 0.73125 0.1625 0.25
v 0.75 0.1625 0.26875
v 0.75 0.1625 0.33125
v 0.66875 0.1625 0.33125
v 0.66875 0 0.25
v 0.73125 0 0.25
v 0.75 0 0.26875
v 0.75 0 0.33125
v 0.66875 0 0.33125
v 0.66875 0.1625 0.25
v 0.73125 0.1625 0.25
v 0.75 0.1625 0.26875
v 0.75 0.1625 0.33125
v 0.66875 0.1625 0.33125
v 0.66875 0 0.25
v 0.73125 0 0.25
v 0.75 0 0.26875
v 0.75 0 0.33125
v 0.66875 0 0.33125
v 0.33125 0.1625 0.75
v 0.26875 0.1625 0.75
v 0.25 0.1625 0.73125
v 0.25 0.1625 0.66875
v 0.33125 0.1625 0.66875
v 0.33125 0 0.75
v 0.26875 0 0.75
v 0.25 0 0.73125
v 0.25 0 0.66875
v 0.33125 0 0.66875
v 0.33125 0.1625 0.75
v 0.26875 0.1625 0.75
v 0.25 0.1625 0.73125
v 0.25 0.1625 0.66875
v 0.33125 0.1625 0.66875
v 0.33125 0 0.75
v 0.26875 0 0.75
v 0.25 0 0.73125
v 0.25 0 0.66875
v 0.33125 0 0.66875
v 0.33125 0.1625 0.33125
v 0.25 0.1625 0.33125
v 0.25 0.1625 0.26875
v 0.26875 0.1625 0.25
v 0.33125 0.1625 0.25
v 0.33125 0 0.33125
v 0.25 0 0.33125
v 0.25 0 0.26875
v 0.26875 0 0.25
v 0.33125 0 0.25
v 0.33125 0.1625 0.33125
v 0.25 0.1625 0.33125
v 0.25 0.1625 0.26875
v 0.26875 0.1625 0.25
v 0.33125 0.1625 0.25
v 0.33125 0 0.33125
v 0.25 0 0.33125
v 0.25 0 0.26875
v 0.26875 0 0.25
v 0.33125 0 0.25
vt 0.286377 0.304443
vt 0.286377 0.291907
vt 0.31145 0.291907
vt 0.31145 0.304443
vt 0.797119 0.187256
vt 0.797119 0.177612
vt 0.822192 0.177612
vt 0.822192 0.187256
vt 0.744385 0.092529
vt 0.744385 0.088438
vt 0.769458 0.088438
vt 0.769458 0.092529
vt 0.823975 0.187256
vt 0.823975 0.177612
vt 0.849048 0.177612
vt 0.849048 0.187256
vt 0.313232 0.304443
vt 0.313232 0.291907
vt 0.338306 0.291907
vt 0.338306 0.304443
vt 0.892664 0.291907
vt 0.892664 0.304443
vt 0.880127 0.304443
vt 0.88302 0.291907
vt 0.892664 0.291907
vt 0.880127 0.304443
vt 0.880127 0.304443
vt 0.880127 0.2948
vt 0.88302 0.291907
vt 0.894287 0.291907
vt 0.906824 0.291907
vt 0.906824 0.304443
vt 0.894287 0.291907
vt 0.906824 0.304443
vt 0.89718 0.304443
vt 0.89718 0.304443
vt 0.894287 0.30155
vt 0.894287 0.291907
vt 0.85083 0.187256
vt 0.85083 0.177612
vt 0.875903 0.177612
vt 0.875903 0.187256
vt 0.77124 0.092529
vt 0.77124 0.088438
vt 0.796313 0.088438
vt 0.796313 0.092529
vt 0.877686 0.187256
vt 0.877686 0.177612
vt 0.902759 0.177612
vt 0.902759 0.187256
vt 0.340088 0.304443
vt 0.340088 0.291907
vt 0.365161 0.291907
vt 0.365161 0.304443
vt 0.366943 0.304443
vt 0.366943 0.291907
vt 0.392017 0.291907
vt 0.392017 0.304443
vt 0.920984 0.2948
vt 0.920984 0.304443
vt 0.908447 0.304443
vt 0.918091 0.291907
vt 0.920984 0.2948
vt 0.908447 0.304443
vt 0.908447 0.304443
vt 0.908447 0.291907
vt 0.918091 0.291907
vt 0.922607 0.291907
vt 0.935144 0.291907
vt 0.935144 0.30155
vt 0.922607 0.291907
vt 0.935144 0.30155
vt 0.932251 0.304443
vt 0.932251 0.304443
vt 0.922607 0.304443
vt 0.922607 0.291907
vt 0.904541 0.187256
vt 0.904541 0.177612
vt 0.929614 0.177612
vt 0.929614 0.187256
vt 0.798096 0.092529
vt 0.798096 0.088438
vt 0.823169 0.088438
vt 0.823169 0.092529
vt 0.931396 0.187256
vt 0.931396 0.177612
vt 0.95647 0.177612
vt 0.95647 0.187256
vt 0.393799 0.304443
vt 0.393799 0.291907
vt 0.418872 0.291907
vt 0.418872 0.304443
vt 0.420654 0.304443
vt 0.420654 0.291907
vt 0.445728 0.291907
vt 0.445728 0.304443
vt 0.936768 0.30155
vt 0.936768 0.291907
vt 0.949304 0.291907
vt 0.939661 0.304443
vt 0.936768 0.30155
vt 0.949304 0.291907
vt 0.949304 0.291907
vt 0.949304 0.304443
vt 0.939661 0.304443
vt 0.963464 0.304443
vt 0.950928 0.304443
vt 0.950928 0.2948
vt 0.963464 0.304443
vt 0.950928 0.2948
vt 0.953821 0.291907
vt 0.953821 0.291907
vt 0.963464 0.291907
vt 0.963464 0.304443
vt 0.44751 0.304443
vt 0.44751 0.291907
vt 0.472583 0.291907
vt 0.472583 0.304443
vt 0.958252 0.187256
vt 0.958252 0.177612
vt 0.983325 0.177612
vt 0.983325 0.187256
vt 0.824951 0.092529
vt 0.824951 0.088438
vt 0.850024 0.088438
vt 0.850024 0.092529
vt 0.001221 0.176025
vt 0.001221 0.166382
vt 0.026294 0.166382
vt 0.026294 0.176025
vt 0.474365 0.304443
vt 0.474365 0.291907
vt 0.499438 0.291907
vt 0.499438 0.304443
vt 0.965088 0.304443
vt 0.965088 0.291907
vt 0.977625 0.291907
vt 0.974731 0.304443
vt 0.965088 0.304443
vt 0.977625 0.291907
vt 0.977625 0.291907
vt 0.977625 0.30155
vt 0.974731 0.304443
vt 0.991785 0.304443
vt 0.979248 0.304443
vt 0.979248 0.291907
vt 0.991785 0.304443
vt 0.979248 0.291907
vt 0.988892 0.291907
vt 0.988892 0.291907
vt 0.991785 0.2948
vt 0.991785 0.304443
vn 0 0 -1
vn 1 0 0
vn 0.707107 0 0.707107
vn 0 0 1
vn -1 0 0
vn 0 1 0
vn 0 -1 0
vn 0.707107 0 -0.707107
vn -0.707107 0 0.707107
vn -0.707107 0 -0.707107
f 145/337/23 146/338/23 151/339/23 150/340/23
f 146/341/24 147/342/24 152/343/24 151/344/24
f 147/345/25 148/346/25 153/347/25 152/348/25
f 148/349/26 149/350/26 154/351/26 153/352/26
f 149/353/27 145/354/27 150/355/27 154/356/27
f 156/357/28 155/358/28 159/359/28
f 157/360/28 156/361/28 159/362/28
f 159/363/28 158/364/28 157/365/28
f 164/366/29 160/367/29 161/368/29
f 164/369/29 161/370/29 162/371/29
f 162/372/29 163/373/29 164/374/29
f 165/375/23 166/376/23 171/377/23 170/378/23
f 166/379/30 167/380/30 172/381/30 171/382/30
f 167/383/24 168/384/24 173/385/24 172/386/24
f 168/387/26 169/388/26 174/389/26 173/390/26
f 169/391/27 165/392/27 170/393/27 174/394/27
f 176/395/28 175/396/28 179/397/28
f 177/398/28 176/399/28 179/400/28
f 179/401/28 178/402/28 177/403/28
f 184/404/29 180/405/29 181/406/29
f 184/407/29 181/408/29 182/409/29
f 182/410/29 183/411/29 184/412/29
f 185/413/26 186/414/26 191/415/26 190/416/26
f 186/417/31 187/418/31 192/419/31 191/420/31
f 187/421/27 188/422/27 193/423/27 192/424/27
f 188/425/23 189/426/23 194/427/23 193/428/23
f 189/429/24 185/430/24 190/431/24 194/432/24
f 196/433/28 195/434/28 199/435/28
f 197/436/28 196/437/28 199/438/28
f 199/439/28 198/440/28 197/441/28
f 204/442/29 200/443/29 201/444/29
f 204/445/29 201/446/29 202/447/29
f 202/448/29 203/449/29 204/450/29
f 205/451/26 206/452/26 211/453/26 210/454/26
f 206/455/27 207/456/27 212/457/27 211/458/27
f 207/459/32 208/460/32 213/461/32 212/462/32
f 208/463/23 209/464/23 214/465/23 213/466/23
f 209/467/24 205/468/24 210/469/24 214/470/24
f 216/471/28 215/472/28 219/473/28
f 217/474/28 216/475/28 219/476/28
f 219/477/28 218/478/28 217/479/28
f 224/480/29 220/481/29 221/482/29
f 224/483/29 221/484/29 222/485/29
f 222/486/29 223/487/29 224/488/29
