# AFL Fluid Pipe V2 arm_pipe_east (glass), generated by tools/build-fluid-pipe-v2.mjs
mtllib fluid_pipe.mtl
o arm_pipe_panes
usemtl fluid_pipe
v 0.8375 0.33125 0.740625
v 0.8375 0.66875 0.740625
v 1 0.66875 0.740625
v 1 0.33125 0.740625
v 0.8375 0.33125 0.725
v 0.8375 0.66875 0.725
v 1 0.66875 0.725
v 1 0.33125 0.725
v 0.8375 0.259375 0.66875
v 0.8375 0.259375 0.33125
v 1 0.259375 0.33125
v 1 0.259375 0.66875
v 0.8375 0.275 0.66875
v 0.8375 0.275 0.33125
v 1 0.275 0.33125
v 1 0.275 0.66875
v 0.8375 0.33125 0.275
v 0.8375 0.66875 0.275
v 1 0.66875 0.275
v 1 0.33125 0.275
v 0.8375 0.33125 0.259375
v 0.8375 0.66875 0.259375
v 1 0.66875 0.259375
v 1 0.33125 0.259375
v 0.8375 0.725 0.66875
v 0.8375 0.725 0.33125
v 1 0.725 0.33125
v 1 0.725 0.66875
v 0.8375 0.740625 0.66875
v 0.8375 0.740625 0.33125
v 1 0.740625 0.33125
v 1 0.740625 0.66875
vt 0.378491 0.436768
vt 0.326416 0.436768
vt 0.326416 0.411694
vt 0.378491 0.411694
vt 0.380127 0.411694
vt 0.432202 0.411694
vt 0.432202 0.436768
vt 0.380127 0.436768
vt 0.433838 0.411694
vt 0.485913 0.411694
vt 0.485913 0.436768
vt 0.433838 0.436768
vt 0.539624 0.436768
vt 0.487549 0.436768
vt 0.487549 0.411694
vt 0.539624 0.411694
vt 0.593335 0.436768
vt 0.54126 0.436768
vt 0.54126 0.411694
vt 0.593335 0.411694
vt 0.594971 0.411694
vt 0.647046 0.411694
vt 0.647046 0.436768
vt 0.594971 0.436768
vt 0.648682 0.411694
vt 0.700757 0.411694
vt 0.700757 0.436768
vt 0.648682 0.436768
vt 0.754468 0.436768
vt 0.702393 0.436768
vt 0.702393 0.411694
vt 0.754468 0.411694
vn 0 0 1
vn 0 0 -1
vn 0 -1 0
vn 0 1 0
f 4/1/1 3/2/1 2/3/1 1/4/1
f 5/5/2 6/6/2 7/7/2 8/8/2
f 9/9/3 10/10/3 11/11/3 12/12/3
f 16/13/4 15/14/4 14/15/4 13/16/4
f 20/17/1 19/18/1 18/19/1 17/20/1
f 21/21/2 22/22/2 23/23/2 24/24/2
f 25/25/3 26/26/3 27/27/3 28/28/3
f 32/29/4 31/30/4 30/31/4 29/32/4
