# AFL Fluid Pipe V2 band_x, generated by tools/build-fluid-pipe-v2.mjs
mtllib fluid_pipe.mtl
o band_band
usemtl fluid_pipe
v 0.44375 0.21875 0.78125
v 0.44375 0.21875 0.21875
v 0.44375 0.78125 0.21875
v 0.44375 0.78125 0.78125
v 0.45 0.2125 0.7875
v 0.45 0.2125 0.2125
v 0.45 0.7875 0.2125
v 0.45 0.7875 0.7875
v 0.55 0.2125 0.7875
v 0.55 0.2125 0.2125
v 0.55 0.7875 0.2125
v 0.55 0.7875 0.7875
v 0.55625 0.21875 0.78125
v 0.55625 0.21875 0.21875
v 0.55625 0.78125 0.21875
v 0.55625 0.78125 0.78125
v 0.44375 0.75625 0.75625
v 0.44375 0.75625 0.24375
v 0.44375 0.24375 0.24375
v 0.44375 0.24375 0.75625
v 0.45 0.75 0.75
v 0.45 0.75 0.25
v 0.45 0.25 0.25
v 0.45 0.25 0.75
v 0.55 0.75 0.75
v 0.55 0.75 0.25
v 0.55 0.25 0.25
v 0.55 0.25 0.75
v 0.55625 0.75625 0.75625
v 0.55625 0.75625 0.24375
v 0.55625 0.24375 0.24375
v 0.55625 0.24375 0.75625
v 0.44375 0.21875 0.78125
v 0.44375 0.21875 0.21875
v 0.44375 0.78125 0.21875
v 0.44375 0.78125 0.78125
v 0.44375 0.75625 0.75625
v 0.44375 0.75625 0.24375
v 0.44375 0.24375 0.24375
v 0.44375 0.24375 0.75625
v 0.55625 0.21875 0.78125
v 0.55625 0.21875 0.21875
v 0.55625 0.78125 0.21875
v 0.55625 0.78125 0.78125
v 0.55625 0.75625 0.75625
v 0.55625 0.75625 0.24375
v 0.55625 0.24375 0.24375
v 0.55625 0.24375 0.75625
vt 0.849841 0.054544
vt 0.936633 0.054544
vt 0.937598 0.055908
vt 0.848877 0.055908
vt 0.214099 0.028177
vt 0.300891 0.028177
vt 0.301855 0.029541
vt 0.213135 0.029541
vt 0.002185 0.051615
vt 0.088977 0.051615
vt 0.089941 0.052979
vt 0.001221 0.052979
vt 0.304431 0.028177
vt 0.391223 0.028177
vt 0.392188 0.029541
vt 0.303467 0.029541
vt 0.269775 0.367627
vt 0.358496 0.367627
vt 0.358496 0.383057
vt 0.269775 0.383057
vt 0.360107 0.367627
vt 0.448828 0.367627
vt 0.448828 0.383057
vt 0.360107 0.383057
vt 0.450439 0.367627
vt 0.53916 0.367627
vt 0.53916 0.383057
vt 0.450439 0.383057
vt 0.540771 0.367627
vt 0.629492 0.367627
vt 0.629492 0.383057
vt 0.540771 0.383057
vt 0.091553 0.051615
vt 0.180273 0.051615
vt 0.179309 0.052979
vt 0.092517 0.052979
vt 0.181885 0.051615
vt 0.270605 0.051615
vt 0.269641 0.052979
vt 0.182849 0.052979
vt 0.272217 0.051615
vt 0.360937 0.051615
vt 0.359973 0.052979
vt 0.273181 0.052979
vt 0.362549 0.051615
vt 0.45127 0.051615
vt 0.450305 0.052979
vt 0.363513 0.052979
vt 0.323486 0.048685
vt 0.402563 0.048685
vt 0.401599 0.050049
vt 0.324451 0.050049
vt 0.24292 0.025248
vt 0.321997 0.025248
vt 0.321033 0.026611
vt 0.243884 0.026611
vt 0.404053 0.048685
vt 0.48313 0.048685
vt 0.482166 0.050049
vt 0.405017 0.050049
vt 0.323486 0.025248
vt 0.402563 0.025248
vt 0.401599 0.026611
vt 0.324451 0.026611
vt 0.001221 0.348584
vt 0.078369 0.348584
vt 0.078369 0.364014
vt 0.001221 0.364014
vt 0.079834 0.348584
vt 0.156982 0.348584
vt 0.156982 0.364014
vt 0.079834 0.364014
vt 0.158447 0.348584
vt 0.235596 0.348584
vt 0.235596 0.364014
vt 0.158447 0.364014
vt 0.237061 0.348584
vt 0.314209 0.348584
vt 0.314209 0.364014
vt 0.237061 0.364014
vt 0.485583 0.048685
vt 0.562732 0.048685
vt 0.563696 0.050049
vt 0.484619 0.050049
vt 0.405017 0.025248
vt 0.482166 0.025248
vt 0.48313 0.026611
vt 0.404053 0.026611
vt 0.56615 0.048685
vt 0.643298 0.048685
vt 0.644263 0.050049
vt 0.565186 0.050049
vt 0.485583 0.025248
vt 0.562732 0.025248
vt 0.563696 0.026611
vt 0.484619 0.026611
vt 0.173022 0.68291
vt 0.17688 0.686768
vt 0.090088 0.686768
vt 0.093945 0.68291
vt 0.173022 0.68291
vt 0.090088 0.686768
vt 0.093945 0.68291
vt 0.090088 0.686768
vt 0.090088 0.599976
vt 0.093945 0.603833
vt 0.093945 0.68291
vt 0.090088 0.599976
vt 0.093945 0.603833
vt 0.090088 0.599976
vt 0.17688 0.599976
vt 0.173022 0.603833
vt 0.093945 0.603833
vt 0.17688 0.599976
vt 0.173022 0.68291
vt 0.173022 0.603833
vt 0.17688 0.599976
vt 0.17688 0.599976
vt 0.17688 0.686768
vt 0.173022 0.68291
vt 0.178467 0.599976
vt 0.265259 0.599976
vt 0.261401 0.603833
vt 0.178467 0.599976
vt 0.261401 0.603833
vt 0.182324 0.603833
vt 0.178467 0.686768
vt 0.178467 0.599976
vt 0.182324 0.603833
vt 0.178467 0.686768
vt 0.182324 0.603833
vt 0.182324 0.68291
vt 0.265259 0.686768
vt 0.178467 0.686768
vt 0.182324 0.68291
vt 0.265259 0.686768
vt 0.182324 0.68291
vt 0.261401 0.68291
vt 0.265259 0.686768
vt 0.261401 0.68291
vt 0.261401 0.603833
vt 0.261401 0.603833
vt 0.265259 0.599976
vt 0.265259 0.686768
vn -0.707107 -0.707107 0
vn -0.707107 0 -0.707107
vn -0.707107 0.707107 0
vn -0.707107 0 0.707107
vn 0 -1 0
vn 0 0 -1
vn 0 1 0
vn 0 0 1
vn 0.707107 -0.707107 0
vn 0.707107 0 -0.707107
vn 0.707107 0.707107 0
vn 0.707107 0 0.707107
vn -1 0 0
vn 1 0 0
f 1/1/1 2/2/1 6/3/1 5/4/1
f 2/5/2 3/6/2 7/7/2 6/8/2
f 3/9/3 4/10/3 8/11/3 7/12/3
f 4/13/4 1/14/4 5/15/4 8/16/4
f 5/17/5 6/18/5 10/19/5 9/20/5
f 6/21/6 7/22/6 11/23/6 10/24/6
f 7/25/7 8/26/7 12/27/7 11/28/7
f 8/29/8 5/30/8 9/31/8 12/32/8
f 9/33/9 10/34/9 14/35/9 13/36/9
f 10/37/10 11/38/10 15/39/10 14/40/10
f 11/41/11 12/42/11 16/43/11 15/44/11
f 12/45/12 9/46/12 13/47/12 16/48/12
f 17/49/1 18/50/1 22/51/1 21/52/1
f 18/53/4 19/54/4 23/55/4 22/56/4
f 19/57/3 20/58/3 24/59/3 23/60/3
f 20/61/2 17/62/2 21/63/2 24/64/2
f 21/65/5 22/66/5 26/67/5 25/68/5
f 22/69/8 23/70/8 27/71/8 26/72/8
f 23/73/7 24/74/7 28/75/7 27/76/7
f 24/77/6 21/78/6 25/79/6 28/80/6
f 25/81/9 26/82/9 30/83/9 29/84/9
f 26/85/12 27/86/12 31/87/12 30/88/12
f 27/89/11 28/90/11 32/91/11 31/92/11
f 28/93/10 25/94/10 29/95/10 32/96/10
f 38/97/13 35/98/13 34/99/13
f 39/100/13 38/101/13 34/102/13
f 39/103/13 34/104/13 33/105/13
f 40/106/13 39/107/13 33/108/13
f 40/109/13 33/110/13 36/111/13
f 37/112/13 40/113/13 36/114/13
f 38/115/13 37/116/13 36/117/13
f 36/118/13 35/119/13 38/120/13
f 42/121/14 43/122/14 46/123/14
f 42/124/14 46/125/14 47/126/14
f 41/127/14 42/128/14 47/129/14
f 41/130/14 47/131/14 48/132/14
f 44/133/14 41/134/14 48/135/14
f 44/136/14 48/137/14 45/138/14
f 44/139/14 45/140/14 46/141/14
f 46/142/14 43/143/14 44/144/14
o band_band_bolt
usemtl fluid_pipe
v 0.48125 0.818125 0.479432
v 0.48125 0.83 0.5
v 0.48125 0.818125 0.520568
v 0.48125 0.794375 0.520568
v 0.48125 0.7825 0.5
v 0.48125 0.794375 0.479432
v 0.51875 0.818125 0.479432
v 0.51875 0.83 0.5
v 0.51875 0.818125 0.520568
v 0.51875 0.794375 0.520568
v 0.51875 0.7825 0.5
v 0.51875 0.794375 0.479432
v 0.48125 0.818125 0.479432
v 0.48125 0.83 0.5
v 0.48125 0.818125 0.520568
v 0.48125 0.794375 0.520568
v 0.48125 0.7825 0.5
v 0.48125 0.794375 0.479432
v 0.51875 0.818125 0.479432
v 0.51875 0.83 0.5
v 0.51875 0.818125 0.520568
v 0.51875 0.794375 0.520568
v 0.51875 0.7825 0.5
v 0.51875 0.794375 0.479432
vt 0.008545 0.08667
vt 0.008545 0.083005
vt 0.014331 0.083005
vt 0.014331 0.08667
vt 0.957275 0.092529
vt 0.957275 0.088865
vt 0.963062 0.088865
vt 0.963062 0.092529
vt 0.927979 0.092529
vt 0.927979 0.088865
vt 0.933765 0.088865
vt 0.933765 0.092529
vt 0.9646 0.092529
vt 0.9646 0.088865
vt 0.970386 0.088865
vt 0.970386 0.092529
vt 0.971924 0.092529
vt 0.971924 0.088865
vt 0.97771 0.088865
vt 0.97771 0.092529
vt 0.935303 0.092529
vt 0.935303 0.088865
vt 0.941089 0.088865
vt 0.941089 0.092529
vt 0.99439 0.172852
vt 0.992557 0.176025
vt 0.988893 0.176025
vt 0.992557 0.169678
vt 0.99439 0.172852
vt 0.988893 0.176025
vt 0.988893 0.169678
vt 0.992557 0.169678
vt 0.988893 0.176025
vt 0.988893 0.176025
vt 0.987061 0.172852
vt 0.988893 0.169678
vt 0.003053 0.158448
vt 0.006718 0.158448
vt 0.00855 0.161621
vt 0.003053 0.158448
vt 0.00855 0.161621
vt 0.006718 0.164795
vt 0.003053 0.158448
vt 0.006718 0.164795
vt 0.003053 0.164795
vt 0.003053 0.164795
vt 0.001221 0.161621
vt 0.003053 0.158448
vn 0 0.866025 -0.5
vn 0 0.866025 0.5
vn 0 0 1
vn 0 -0.866025 0.5
vn 0 -0.866025 -0.5
vn 0 0 -1
vn -1 0 0
vn 1 0 0
f 49/145/15 50/146/15 56/147/15 55/148/15
f 50/149/16 51/150/16 57/151/16 56/152/16
f 51/153/17 52/154/17 58/155/17 57/156/17
f 52/157/18 53/158/18 59/159/18 58/160/18
f 53/161/19 54/162/19 60/163/19 59/164/19
f 54/165/20 49/166/20 55/167/20 60/168/20
f 62/169/21 61/170/21 66/171/21
f 63/172/21 62/173/21 66/174/21
f 64/175/21 63/176/21 66/177/21
f 66/178/21 65/179/21 64/180/21
f 72/181/22 67/182/22 68/183/22
f 72/184/22 68/185/22 69/186/22
f 72/187/22 69/188/22 70/189/22
f 70/190/22 71/191/22 72/192/22
o band_band_lug
usemtl fluid_pipe
v 0.471875 0.7875 0.546875
v 0.471875 0.7875 0.453125
v 0.528125 0.7875 0.453125
v 0.528125 0.7875 0.546875
v 0.471875 0.80625 0.546875
v 0.471875 0.80625 0.453125
v 0.528125 0.80625 0.453125
v 0.528125 0.80625 0.546875
v 0.471875 0.7875 0.546875
v 0.471875 0.7875 0.453125
v 0.471875 0.80625 0.453125
v 0.471875 0.80625 0.546875
v 0.528125 0.7875 0.546875
v 0.528125 0.7875 0.453125
v 0.528125 0.80625 0.453125
v 0.528125 0.80625 0.546875
v 0.471875 0.7875 0.546875
v 0.528125 0.7875 0.546875
v 0.528125 0.80625 0.546875
v 0.471875 0.80625 0.546875
v 0.471875 0.7875 0.453125
v 0.528125 0.7875 0.453125
v 0.528125 0.80625 0.453125
v 0.471875 0.80625 0.453125
vt 0.18042 0.167346
vt 0.194885 0.167346
vt 0.194885 0.176025
vt 0.18042 0.176025
vt 0.210999 0.176025
vt 0.196533 0.176025
vt 0.196533 0.167346
vt 0.210999 0.167346
vt 0.308655 0.081299
vt 0.294189 0.081299
vt 0.294189 0.078406
vt 0.308655 0.078406
vt 0.310303 0.078406
vt 0.324768 0.078406
vt 0.324768 0.081299
vt 0.310303 0.081299
vt 0.358643 0.078406
vt 0.367322 0.078406
vt 0.367322 0.081299
vt 0.358643 0.081299
vt 0.368896 0.078406
vt 0.377576 0.078406
vt 0.377576 0.081299
vt 0.368896 0.081299
vn 0 -1 0
vn 0 1 0
vn -1 0 0
vn 1 0 0
vn 0 0 1
vn 0 0 -1
f 73/193/23 74/194/23 75/195/23 76/196/23
f 80/197/24 79/198/24 78/199/24 77/200/24
f 84/201/25 83/202/25 82/203/25 81/204/25
f 85/205/26 86/206/26 87/207/26 88/208/26
f 89/209/27 90/210/27 91/211/27 92/212/27
f 96/213/28 95/214/28 94/215/28 93/216/28
