# AFL Fluid Pipe V2 box_glass_up (glass), generated by tools/build-fluid-pipe-v2.mjs
mtllib fluid_pipe.mtl
o box_glass_pane
usemtl fluid_pipe
v 0.2875 0.7625 0.7125
v 0.7125 0.7625 0.7125
v 0.7125 0.7625 0.2875
v 0.2875 0.7625 0.2875
v 0.2875 0.778125 0.7125
v 0.7125 0.778125 0.7125
v 0.7125 0.778125 0.2875
v 0.2875 0.778125 0.2875
vt 0.50918 0.621191
vt 0.50918 0.686768
vt 0.443604 0.686768
vt 0.443604 0.621191
vt 0.510986 0.686768
vt 0.510986 0.621191
vt 0.576562 0.621191
vt 0.576562 0.686768
vn 0 -1 0
vn 0 1 0
f 4/1/1 3/2/1 2/3/1 1/4/1
f 5/5/2 6/6/2 7/7/2 8/8/2
