# AFL Fluid Pipe V2 clamp_y_east, generated by tools/build-fluid-pipe-v2.mjs
mtllib fluid_pipe.mtl
o clamp_strap
usemtl fluid_pipe
v 0.7825 0.45625 0.7825
v 0.7825 0.45625 0.2175
v 0.2175 0.45625 0.2175
v 0.2175 0.45625 0.7825
v 0.7875 0.46125 0.7875
v 0.7875 0.46125 0.2125
v 0.2125 0.46125 0.2125
v 0.2125 0.46125 0.7875
v 0.7875 0.53875 0.7875
v 0.7875 0.53875 0.2125
v 0.2125 0.53875 0.2125
v 0.2125 0.53875 0.7875
v 0.7825 0.54375 0.7825
v 0.7825 0.54375 0.2175
v 0.2175 0.54375 0.2175
v 0.2175 0.54375 0.7825
v 0.245 0.45625 0.755
v 0.245 0.45625 0.245
v 0.755 0.45625 0.245
v 0.755 0.45625 0.755
v 0.25 0.46125 0.75
v 0.25 0.46125 0.25
v 0.75 0.46125 0.25
v 0.75 0.46125 0.75
v 0.25 0.53875 0.75
v 0.25 0.53875 0.25
v 0.75 0.53875 0.25
v 0.75 0.53875 0.75
v 0.245 0.54375 0.755
v 0.245 0.54375 0.245
v 0.755 0.54375 0.245
v 0.755 0.54375 0.755
v 0.7825 0.45625 0.7825
v 0.7825 0.45625 0.2175
v 0.2175 0.45625 0.2175
v 0.2175 0.45625 0.7825
v 0.245 0.45625 0.755
v 0.245 0.45625 0.245
v 0.755 0.45625 0.245
v 0.755 0.45625 0.755
v 0.7825 0.54375 0.7825
v 0.7825 0.54375 0.2175
v 0.2175 0.54375 0.2175
v 0.2175 0.54375 0.7825
v 0.245 0.54375 0.755
v 0.245 0.54375 0.245
v 0.755 0.54375 0.245
v 0.755 0.54375 0.755
vt 0.743691 0.019661
vt 0.830869 0.019661
vt 0.831641 0.020752
vt 0.74292 0.020752
vt 0.834023 0.019661
vt 0.921201 0.019661
vt 0.921973 0.020752
vt 0.833252 0.020752
vt 0.001992 0.016731
vt 0.08917 0.016731
vt 0.089941 0.017822
vt 0.001221 0.017822
vt 0.092324 0.016731
vt 0.179502 0.016731
vt 0.180273 0.017822
vt 0.091553 0.017822
vt 0.454346 0.278325
vt 0.543066 0.278325
vt 0.543066 0.290283
vt 0.454346 0.290283
vt 0.544678 0.278325
vt 0.633398 0.278325
vt 0.633398 0.290283
vt 0.544678 0.290283
vt 0.63501 0.278325
vt 0.72373 0.278325
vt 0.72373 0.290283
vt 0.63501 0.290283
vt 0.725342 0.278325
vt 0.814063 0.278325
vt 0.814063 0.290283
vt 0.725342 0.290283
vt 0.181885 0.016731
vt 0.270605 0.016731
vt 0.269834 0.017822
vt 0.182656 0.017822
vt 0.272217 0.016731
vt 0.360938 0.016731
vt 0.360166 0.017822
vt 0.272988 0.017822
vt 0.362549 0.016731
vt 0.45127 0.016731
vt 0.450498 0.017822
vt 0.36332 0.017822
vt 0.452881 0.016731
vt 0.541602 0.016731
vt 0.54083 0.017822
vt 0.453652 0.017822
vt 0.543213 0.016731
vt 0.621904 0.016731
vt 0.621133 0.017822
vt 0.543984 0.017822
vt 0.865479 0.016731
vt 0.94417 0.016731
vt 0.943398 0.017822
vt 0.86625 0.017822
vt 0.623779 0.016731
vt 0.702471 0.016731
vt 0.701699 0.017822
vt 0.624551 0.017822
vt 0.001221 0.013802
vt 0.079912 0.013802
vt 0.079141 0.014893
vt 0.001992 0.014893
vt 0.815674 0.278325
vt 0.892822 0.278325
vt 0.892822 0.290283
vt 0.815674 0.290283
vt 0.894287 0.278325
vt 0.971436 0.278325
vt 0.971436 0.290283
vt 0.894287 0.290283
vt 0.001221 0.264165
vt 0.078369 0.264165
vt 0.078369 0.276123
vt 0.001221 0.276123
vt 0.079834 0.264165
vt 0.156982 0.264165
vt 0.156982 0.276123
vt 0.079834 0.276123
vt 0.705117 0.016731
vt 0.782266 0.016731
vt 0.783037 0.017822
vt 0.704346 0.017822
vt 0.082559 0.013802
vt 0.159707 0.013802
vt 0.160479 0.014893
vt 0.081787 0.014893
vt 0.785684 0.016731
vt 0.862832 0.016731
vt 0.863604 0.017822
vt 0.784912 0.017822
vt 0.163125 0.013802
vt 0.240273 0.013802
vt 0.241045 0.014893
vt 0.162354 0.014893
vt 0.916187 0.786528
vt 0.92043 0.790771
vt 0.833252 0.790771
vt 0.837495 0.786528
vt 0.916187 0.786528
vt 0.833252 0.790771
vt 0.837495 0.786528
vt 0.833252 0.790771
vt 0.833252 0.703594
vt 0.837495 0.707837
vt 0.837495 0.786528
vt 0.833252 0.703594
vt 0.837495 0.707837
vt 0.833252 0.703594
vt 0.92043 0.703594
vt 0.916187 0.707837
vt 0.837495 0.707837
vt 0.92043 0.703594
vt 0.916187 0.786528
vt 0.916187 0.707837
vt 0.92043 0.703594
vt 0.92043 0.703594
vt 0.92043 0.790771
vt 0.916187 0.786528
vt 0.001221 0.59959
vt 0.088398 0.59959
vt 0.084155 0.603833
vt 0.001221 0.59959
vt 0.084155 0.603833
vt 0.005464 0.603833
vt 0.001221 0.686768
vt 0.001221 0.59959
vt 0.005464 0.603833
vt 0.001221 0.686768
vt 0.005464 0.603833
vt 0.005464 0.682524
vt 0.088398 0.686768
vt 0.001221 0.686768
vt 0.005464 0.682524
vt 0.088398 0.686768
vt 0.005464 0.682524
vt 0.084155 0.682524
vt 0.088398 0.686768
vt 0.084155 0.682524
vt 0.084155 0.603833
vt 0.084155 0.603833
vt 0.088398 0.59959
vt 0.088398 0.686768
vn 0.707107 -0.707107 0
vn 0 -0.707107 -0.707107
vn -0.707107 -0.707107 0
vn 0 -0.707107 0.707107
vn 1 0 0
vn 0 0 -1
vn -1 0 0
vn 0 0 1
vn 0.707107 0.707107 0
vn 0 0.707107 -0.707107
vn -0.707107 0.707107 0
vn 0 0.707107 0.707107
vn 0 -1 0
vn 0 1 0
f 1/1/1 2/2/1 6/3/1 5/4/1
f 2/5/2 3/6/2 7/7/2 6/8/2
f 3/9/3 4/10/3 8/11/3 7/12/3
f 4/13/4 1/14/4 5/15/4 8/16/4
f 5/17/5 6/18/5 10/19/5 9/20/5
f 6/21/6 7/22/6 11/23/6 10/24/6
f 7/25/7 8/26/7 12/27/7 11/28/7
f 8/29/8 5/30/8 9/31/8 12/32/8
f 9/33/9 10/34/9 14/35/9 13/36/9
f 10/37/10 11/38/10 15/39/10 14/40/10
f 11/41/11 12/42/11 16/43/11 15/44/11
f 12/45/12 9/46/12 13/47/12 16/48/12
f 17/49/1 18/50/1 22/51/1 21/52/1
f 18/53/4 19/54/4 23/55/4 22/56/4
f 19/57/3 20/58/3 24/59/3 23/60/3
f 20/61/2 17/62/2 21/63/2 24/64/2
f 21/65/5 22/66/5 26/67/5 25/68/5
f 22/69/8 23/70/8 27/71/8 26/72/8
f 23/73/7 24/74/7 28/75/7 27/76/7
f 24/77/6 21/78/6 25/79/6 28/80/6
f 25/81/9 26/82/9 30/83/9 29/84/9
f 26/85/12 27/86/12 31/87/12 30/88/12
f 27/89/11 28/90/11 32/91/11 31/92/11
f 28/93/10 25/94/10 29/95/10 32/96/10
f 38/97/13 35/98/13 34/99/13
f 39/100/13 38/101/13 34/102/13
f 39/103/13 34/104/13 33/105/13
f 40/106/13 39/107/13 33/108/13
f 40/109/13 33/110/13 36/111/13
f 37/112/13 40/113/13 36/114/13
f 38/115/13 37/116/13 36/117/13
f 36/118/13 35/119/13 38/120/13
f 42/121/14 43/122/14 46/123/14
f 42/124/14 46/125/14 47/126/14
f 41/127/14 42/128/14 47/129/14
f 41/130/14 47/131/14 48/132/14
f 44/133/14 41/134/14 48/135/14
f 44/136/14 48/137/14 45/138/14
f 44/139/14 45/140/14 46/141/14
f 46/142/14 43/143/14 44/144/14
o clamp_leg
usemtl fluid_pipe
v 0.96875 0.45625 0.56875
v 0.96875 0.45625 0.43125
v 0.96875 0.54375 0.43125
v 0.96875 0.54375 0.56875
v 0.7875 0.45625 0.56875
v 0.7875 0.45625 0.43125
v 0.7875 0.54375 0.43125
v 0.7875 0.54375 0.56875
v 0.96875 0.45625 0.56875
v 0.96875 0.45625 0.43125
v 0.7875 0.45625 0.43125
v 0.7875 0.45625 0.56875
v 0.96875 0.54375 0.56875
v 0.96875 0.54375 0.43125
v 0.7875 0.54375 0.43125
v 0.7875 0.54375 0.56875
v 0.96875 0.45625 0.56875
v 0.96875 0.54375 0.56875
v 0.7875 0.54375 0.56875
v 0.7875 0.45625 0.56875
v 0.96875 0.45625 0.43125
v 0.96875 0.54375 0.43125
v 0.7875 0.54375 0.43125
v 0.7875 0.45625 0.43125
vt 0.689697 0.350513
vt 0.710913 0.350513
vt 0.710913 0.364014
vt 0.689697 0.364014
vt 0.733862 0.364014
vt 0.712646 0.364014
vt 0.712646 0.350513
vt 0.733862 0.350513
vt 0.78407 0.415552
vt 0.78407 0.436768
vt 0.756104 0.436768
vt 0.756104 0.415552
vt 0.785889 0.436768
vt 0.785889 0.415552
vt 0.813855 0.415552
vt 0.813855 0.436768
vt 0.658093 0.350513
vt 0.658093 0.364014
vt 0.630127 0.364014
vt 0.630127 0.350513
vt 0.687878 0.350513
vt 0.687878 0.364014
vt 0.659912 0.364014
vt 0.659912 0.350513
vn 1 0 0
vn -1 0 0
vn 0 -1 0
vn 0 1 0
vn 0 0 1
vn 0 0 -1
f 49/145/15 50/146/15 51/147/15 52/148/15
f 56/149/16 55/150/16 54/151/16 53/152/16
f 60/153/17 59/154/17 58/155/17 57/156/17
f 61/157/18 62/158/18 63/159/18 64/160/18
f 65/161/19 66/162/19 67/163/19 68/164/19
f 72/165/20 71/166/20 70/167/20 69/168/20
o clamp_foot
usemtl fluid_pipe
v 1 0.39375 0.675
v 1 0.39375 0.325
v 0.96875 0.39375 0.325
v 0.96875 0.39375 0.675
v 1 0.60625 0.675
v 1 0.60625 0.325
v 0.96875 0.60625 0.325
v 0.96875 0.60625 0.675
v 1 0.39375 0.675
v 1 0.39375 0.325
v 0.96875 0.39375 0.325
v 0.96875 0.39375 0.675
v 1 0.60625 0.675
v 1 0.60625 0.325
v 0.96875 0.60625 0.325
v 0.96875 0.60625 0.675
vt 0.215088 0.403979
vt 0.269092 0.403979
vt 0.269092 0.436768
vt 0.215088 0.436768
vt 0.847412 0.105713
vt 0.847412 0.100891
vt 0.8802 0.100891
vt 0.8802 0.105713
vt 0.270752 0.403979
vt 0.324756 0.403979
vt 0.324756 0.436768
vt 0.270752 0.436768
vt 0.88208 0.105713
vt 0.88208 0.100891
vt 0.914868 0.100891
vt 0.914868 0.105713
vt 0.736084 0.100891
vt 0.790088 0.100891
vt 0.790088 0.105713
vt 0.790088 0.105713
vt 0.736084 0.105713
vt 0.736084 0.100891
vt 0.791748 0.105713
vt 0.791748 0.100891
vt 0.845752 0.100891
vt 0.845752 0.100891
vt 0.845752 0.105713
vt 0.791748 0.105713
vn 1 0 0
vn 0 0 -1
vn -1 0 0
vn 0 0 1
vn 0 -1 0
vn 0 1 0
f 73/169/21 74/170/21 78/171/21 77/172/21
f 74/173/22 75/174/22 79/175/22 78/176/22
f 75/177/23 76/178/23 80/179/23 79/180/23
f 76/181/24 73/182/24 77/183/24 80/184/24
f 82/185/25 81/186/25 84/187/25
f 84/188/25 83/189/25 82/190/25
f 88/191/26 85/192/26 86/193/26
f 86/194/26 87/195/26 88/196/26
o clamp_screws
usemtl fluid_pipe
v 0.96875 0.522733 0.611875
v 0.96875 0.5 0.59875
v 0.96875 0.477267 0.611875
v 0.96875 0.477267 0.638125
v 0.96875 0.5 0.65125
v 0.96875 0.522733 0.638125
v 0.95125 0.522733 0.611875
v 0.95125 0.5 0.59875
v 0.95125 0.477267 0.611875
v 0.95125 0.477267 0.638125
v 0.95125 0.5 0.65125
v 0.95125 0.522733 0.638125
v 0.96875 0.522733 0.611875
v 0.96875 0.5 0.59875
v 0.96875 0.477267 0.611875
v 0.96875 0.477267 0.638125
v 0.96875 0.5 0.65125
v 0.96875 0.522733 0.638125
v 0.95125 0.522733 0.611875
v 0.95125 0.5 0.59875
v 0.95125 0.477267 0.611875
v 0.95125 0.477267 0.638125
v 0.95125 0.5 0.65125
v 0.95125 0.522733 0.638125
v 0.96875 0.522733 0.361875
v 0.96875 0.5 0.34875
v 0.96875 0.477267 0.361875
v 0.96875 0.477267 0.388125
v 0.96875 0.5 0.40125
v 0.96875 0.522733 0.388125
v 0.95125 0.522733 0.361875
v 0.95125 0.5 0.34875
v 0.95125 0.477267 0.361875
v 0.95125 0.477267 0.388125
v 0.95125 0.5 0.40125
v 0.95125 0.522733 0.388125
v 0.96875 0.522733 0.361875
v 0.96875 0.5 0.34875
v 0.96875 0.477267 0.361875
v 0.96875 0.477267 0.388125
v 0.96875 0.5 0.40125
v 0.96875 0.522733 0.388125
v 0.95125 0.522733 0.361875
v 0.95125 0.5 0.34875
v 0.95125 0.477267 0.361875
v 0.95125 0.477267 0.388125
v 0.95125 0.5 0.40125
v 0.95125 0.522733 0.388125
vt 0.427146 0.081299
vt 0.423096 0.081299
vt 0.423096 0.078599
vt 0.427146 0.078599
vt 0.433005 0.081299
vt 0.428955 0.081299
vt 0.428955 0.078599
vt 0.433005 0.078599
vt 0.434814 0.078599
vt 0.438865 0.078599
vt 0.438865 0.081299
vt 0.434814 0.081299
vt 0.399658 0.078599
vt 0.403708 0.078599
vt 0.403708 0.081299
vt 0.399658 0.081299
vt 0.440674 0.078599
vt 0.444724 0.078599
vt 0.444724 0.081299
vt 0.440674 0.081299
vt 0.405518 0.078599
vt 0.409568 0.078599
vt 0.409568 0.081299
vt 0.405518 0.081299
vt 0.252974 0.172518
vt 0.250948 0.176025
vt 0.246898 0.176025
vt 0.250948 0.16901
vt 0.252974 0.172518
vt 0.246898 0.176025
vt 0.246898 0.16901
vt 0.250948 0.16901
vt 0.246898 0.176025
vt 0.246898 0.176025
vt 0.244873 0.172518
vt 0.246898 0.16901
vt 0.260714 0.176025
vt 0.256664 0.176025
vt 0.254639 0.172518
vt 0.260714 0.176025
vt 0.254639 0.172518
vt 0.256664 0.16901
vt 0.260714 0.176025
vt 0.256664 0.16901
vt 0.260714 0.16901
vt 0.260714 0.16901
vt 0.262739 0.172518
vt 0.260714 0.176025
vt 0.415427 0.081299
vt 0.411377 0.081299
vt 0.411377 0.078599
vt 0.415427 0.078599
vt 0.421287 0.081299
vt 0.417236 0.081299
vt 0.417236 0.078599
vt 0.421287 0.078599
vt 0.446533 0.078599
vt 0.450583 0.078599
vt 0.450583 0.081299
vt 0.446533 0.081299
vt 0.452393 0.078599
vt 0.456443 0.078599
vt 0.456443 0.081299
vt 0.452393 0.081299
vt 0.458252 0.078599
vt 0.462302 0.078599
vt 0.462302 0.081299
vt 0.458252 0.081299
vt 0.464111 0.078599
vt 0.468162 0.078599
vt 0.468162 0.081299
vt 0.464111 0.081299
vt 0.272505 0.172518
vt 0.27048 0.176025
vt 0.266429 0.176025
vt 0.27048 0.16901
vt 0.272505 0.172518
vt 0.266429 0.176025
vt 0.266429 0.16901
vt 0.27048 0.16901
vt 0.266429 0.176025
vt 0.266429 0.176025
vt 0.264404 0.172518
vt 0.266429 0.16901
vt 0.280245 0.176025
vt 0.276195 0.176025
vt 0.27417 0.172518
vt 0.280245 0.176025
vt 0.27417 0.172518
vt 0.276195 0.16901
vt 0.280245 0.176025
vt 0.276195 0.16901
vt 0.280245 0.16901
vt 0.280245 0.16901
vt 0.282271 0.172518
vt 0.280245 0.176025
vn 0 0.5 -0.866025
vn 0 -0.5 -0.866025
vn 0 -1 0
vn 0 -0.5 0.866025
vn 0 0.5 0.866025
vn 0 1 0
vn 1 0 0
vn -1 0 0
f 89/197/27 90/198/27 96/199/27 95/200/27
f 90/201/28 91/202/28 97/203/28 96/204/28
f 91/205/29 92/206/29 98/207/29 97/208/29
f 92/209/30 93/210/30 99/211/30 98/212/30
f 93/213/31 94/214/31 100/215/31 99/216/31
f 94/217/32 89/218/32 95/219/32 100/220/32
f 102/221/33 101/222/33 106/223/33
f 103/224/33 102/225/33 106/226/33
f 104/227/33 103/228/33 106/229/33
f 106/230/33 105/231/33 104/232/33
f 112/233/34 107/234/34 108/235/34
f 112/236/34 108/237/34 109/238/34
f 112/239/34 109/240/34 110/241/34
f 110/242/34 111/243/34 112/244/34
f 113/245/27 114/246/27 120/247/27 119/248/27
f 114/249/28 115/250/28 121/251/28 120/252/28
f 115/253/29 116/254/29 122/255/29 121/256/29
f 116/257/30 117/258/30 123/259/30 122/260/30
f 117/261/31 118/262/31 124/263/31 123/264/31
f 118/265/32 113/266/32 119/267/32 124/268/32
f 126/269/33 125/270/33 130/271/33
f 127/272/33 126/273/33 130/274/33
f 128/275/33 127/276/33 130/277/33
f 130/278/33 129/279/33 128/280/33
f 136/281/34 131/282/34 132/283/34
f 136/284/34 132/285/34 133/286/34
f 136/287/34 133/288/34 134/289/34
f 134/290/34 135/291/34 136/292/34
