# AFL Fluid Pipe V2 end_pipe_up, generated by tools/build-fluid-pipe-v2.mjs
mtllib fluid_pipe.mtl
o end_pipe_blind
usemtl fluid_pipe
v 0.16875 0.375 0.83125
v 0.83125 0.375 0.83125
v 0.83125 0.375 0.16875
v 0.16875 0.375 0.16875
v 0.1625 0.38125 0.8375
v 0.8375 0.38125 0.8375
v 0.8375 0.38125 0.1625
v 0.1625 0.38125 0.1625
v 0.1625 0.41875 0.8375
v 0.8375 0.41875 0.8375
v 0.8375 0.41875 0.1625
v 0.1625 0.41875 0.1625
v 0.16875 0.425 0.83125
v 0.83125 0.425 0.83125
v 0.83125 0.425 0.16875
v 0.16875 0.425 0.16875
v 0.16875 0.375 0.83125
v 0.83125 0.375 0.83125
v 0.83125 0.375 0.16875
v 0.16875 0.375 0.16875
v 0.16875 0.425 0.83125
v 0.83125 0.425 0.83125
v 0.83125 0.425 0.16875
v 0.16875 0.425 0.16875
vt 0.894763 0.079935
vt 0.996985 0.079935
vt 0.997949 0.081299
vt 0.893799 0.081299
vt 0.002185 0.066263
vt 0.104407 0.066263
vt 0.105371 0.067627
vt 0.001221 0.067627
vt 0.002185 0.075052
vt 0.104407 0.075052
vt 0.105371 0.076416
vt 0.001221 0.076416
vt 0.108142 0.066263
vt 0.210364 0.066263
vt 0.211328 0.067627
vt 0.107178 0.067627
vt 0.315674 0.114575
vt 0.419824 0.114575
vt 0.419824 0.120361
vt 0.315674 0.120361
vt 0.421631 0.114575
vt 0.525781 0.114575
vt 0.525781 0.120361
vt 0.421631 0.120361
vt 0.527588 0.114575
vt 0.631738 0.114575
vt 0.631738 0.120361
vt 0.527588 0.120361
vt 0.633545 0.114575
vt 0.737695 0.114575
vt 0.737695 0.120361
vt 0.633545 0.120361
vt 0.213135 0.066263
vt 0.317285 0.066263
vt 0.316321 0.067627
vt 0.214099 0.067627
vt 0.319092 0.066263
vt 0.423242 0.066263
vt 0.422278 0.067627
vt 0.320056 0.067627
vt 0.425049 0.066263
vt 0.529199 0.066263
vt 0.528235 0.067627
vt 0.426013 0.067627
vt 0.531006 0.066263
vt 0.635156 0.066263
vt 0.634192 0.067627
vt 0.53197 0.067627
vt 0.833252 0.998779
vt 0.833252 0.896558
vt 0.935474 0.896558
vt 0.935474 0.896558
vt 0.935474 0.998779
vt 0.833252 0.998779
vt 0.103442 0.894775
vt 0.001221 0.894775
vt 0.001221 0.792554
vt 0.001221 0.792554
vt 0.103442 0.792554
vt 0.103442 0.894775
vn 0 -0.707107 0.707107
vn 0.707107 -0.707107 0
vn 0 -0.707107 -0.707107
vn -0.707107 -0.707107 0
vn 0 0 1
vn 1 0 0
vn 0 0 -1
vn -1 0 0
vn 0 0.707107 0.707107
vn 0.707107 0.707107 0
vn 0 0.707107 -0.707107
vn -0.707107 0.707107 0
vn 0 -1 0
vn 0 1 0
f 1/1/1 2/2/1 6/3/1 5/4/1
f 2/5/2 3/6/2 7/7/2 6/8/2
f 3/9/3 4/10/3 8/11/3 7/12/3
f 4/13/4 1/14/4 5/15/4 8/16/4
f 5/17/5 6/18/5 10/19/5 9/20/5
f 6/21/6 7/22/6 11/23/6 10/24/6
f 7/25/7 8/26/7 12/27/7 11/28/7
f 8/29/8 5/30/8 9/31/8 12/32/8
f 9/33/9 10/34/9 14/35/9 13/36/9
f 10/37/10 11/38/10 15/39/10 14/40/10
f 11/41/11 12/42/11 16/43/11 15/44/11
f 12/45/12 9/46/12 13/47/12 16/48/12
f 18/49/13 17/50/13 20/51/13
f 20/52/13 19/53/13 18/54/13
f 24/55/14 21/56/14 22/57/14
f 22/58/14 23/59/14 24/60/14
o end_pipe_flange
usemtl fluid_pipe
v 0.16875 0.425 0.83125
v 0.83125 0.425 0.83125
v 0.83125 0.425 0.16875
v 0.16875 0.425 0.16875
v 0.1625 0.43125 0.8375
v 0.8375 0.43125 0.8375
v 0.8375 0.43125 0.1625
v 0.1625 0.43125 0.1625
v 0.1625 0.46875 0.8375
v 0.8375 0.46875 0.8375
v 0.8375 0.46875 0.1625
v 0.1625 0.46875 0.1625
v 0.16875 0.475 0.83125
v 0.83125 0.475 0.83125
v 0.83125 0.475 0.16875
v 0.16875 0.475 0.16875
v 0.24375 0.425 0.24375
v 0.75625 0.425 0.24375
v 0.75625 0.425 0.75625
v 0.24375 0.425 0.75625
v 0.25 0.43125 0.25
v 0.75 0.43125 0.25
v 0.75 0.43125 0.75
v 0.25 0.43125 0.75
v 0.25 0.46875 0.25
v 0.75 0.46875 0.25
v 0.75 0.46875 0.75
v 0.25 0.46875 0.75
v 0.24375 0.475 0.24375
v 0.75625 0.475 0.24375
v 0.75625 0.475 0.75625
v 0.24375 0.475 0.75625
v 0.16875 0.425 0.83125
v 0.83125 0.425 0.83125
v 0.83125 0.425 0.16875
v 0.16875 0.425 0.16875
v 0.24375 0.425 0.24375
v 0.75625 0.425 0.24375
v 0.75625 0.425 0.75625
v 0.24375 0.425 0.75625
v 0.16875 0.475 0.83125
v 0.83125 0.475 0.83125
v 0.83125 0.475 0.16875
v 0.16875 0.475 0.16875
v 0.24375 0.475 0.24375
v 0.75625 0.475 0.24375
v 0.75625 0.475 0.75625
v 0.24375 0.475 0.75625
vt 0.108142 0.075052
vt 0.210364 0.075052
vt 0.211328 0.076416
vt 0.107178 0.076416
vt 0.214099 0.075052
vt 0.316321 0.075052
vt 0.317285 0.076416
vt 0.213135 0.076416
vt 0.320056 0.075052
vt 0.422278 0.075052
vt 0.423242 0.076416
vt 0.319092 0.076416
vt 0.426013 0.075052
vt 0.528235 0.075052
vt 0.529199 0.076416
vt 0.425049 0.076416
vt 0.739502 0.114575
vt 0.843652 0.114575
vt 0.843652 0.120361
vt 0.739502 0.120361
vt 0.845459 0.114575
vt 0.949609 0.114575
vt 0.949609 0.120361
vt 0.845459 0.120361
vt 0.001221 0.107251
vt 0.105371 0.107251
vt 0.105371 0.113037
vt 0.001221 0.113037
vt 0.107178 0.107251
vt 0.211328 0.107251
vt 0.211328 0.113037
vt 0.107178 0.113037
vt 0.469971 0.079935
vt 0.574121 0.079935
vt 0.573157 0.081299
vt 0.470935 0.081299
vt 0.425049 0.054544
vt 0.529199 0.054544
vt 0.528235 0.055908
vt 0.426013 0.055908
vt 0.575928 0.079935
vt 0.680078 0.079935
vt 0.679114 0.081299
vt 0.576892 0.081299
vt 0.531006 0.054544
vt 0.635156 0.054544
vt 0.634192 0.055908
vt 0.53197 0.055908
vt 0.896729 0.028177
vt 0.975806 0.028177
vt 0.974841 0.029541
vt 0.897693 0.029541
vt 0.806885 0.036966
vt 0.885962 0.036966
vt 0.884998 0.03833
vt 0.807849 0.03833
vt 0.001221 0.025248
vt 0.080298 0.025248
vt 0.079333 0.026611
vt 0.002185 0.026611
vt 0.887451 0.036966
vt 0.966528 0.036966
vt 0.965564 0.03833
vt 0.888416 0.03833
vt 0.107178 0.099927
vt 0.184326 0.099927
vt 0.184326 0.105713
vt 0.107178 0.105713
vt 0.185791 0.099927
vt 0.262939 0.099927
vt 0.262939 0.105713
vt 0.185791 0.105713
vt 0.264404 0.099927
vt 0.341553 0.099927
vt 0.341553 0.105713
vt 0.264404 0.105713
vt 0.343018 0.099927
vt 0.420166 0.099927
vt 0.420166 0.105713
vt 0.343018 0.105713
vt 0.002185 0.048685
vt 0.079333 0.048685
vt 0.080298 0.050049
vt 0.001221 0.050049
vt 0.002185 0.039896
vt 0.079333 0.039896
vt 0.080298 0.04126
vt 0.001221 0.04126
vt 0.082751 0.048685
vt 0.1599 0.048685
vt 0.160864 0.050049
vt 0.081787 0.050049
vt 0.082751 0.039896
vt 0.1599 0.039896
vt 0.160864 0.04126
vt 0.081787 0.04126
vt 0.195874 0.883203
vt 0.207446 0.894775
vt 0.105225 0.894775
vt 0.116797 0.883203
vt 0.195874 0.883203
vt 0.105225 0.894775
vt 0.116797 0.883203
vt 0.105225 0.894775
vt 0.105225 0.792554
vt 0.116797 0.804126
vt 0.116797 0.883203
vt 0.105225 0.792554
vt 0.116797 0.804126
vt 0.105225 0.792554
vt 0.207446 0.792554
vt 0.195874 0.804126
vt 0.116797 0.804126
vt 0.207446 0.792554
vt 0.195874 0.883203
vt 0.195874 0.804126
vt 0.207446 0.792554
vt 0.207446 0.792554
vt 0.207446 0.894775
vt 0.195874 0.883203
vt 0.209229 0.792554
vt 0.31145 0.792554
vt 0.299878 0.804126
vt 0.209229 0.792554
vt 0.299878 0.804126
vt 0.220801 0.804126
vt 0.209229 0.894775
vt 0.209229 0.792554
vt 0.220801 0.804126
vt 0.209229 0.894775
vt 0.220801 0.804126
vt 0.220801 0.883203
vt 0.31145 0.894775
vt 0.209229 0.894775
vt 0.220801 0.883203
vt 0.31145 0.894775
vt 0.220801 0.883203
vt 0.299878 0.883203
vt 0.31145 0.894775
vt 0.299878 0.883203
vt 0.299878 0.804126
vt 0.299878 0.804126
vt 0.31145 0.792554
vt 0.31145 0.894775
vn 0 -0.707107 0.707107
vn 0.707107 -0.707107 0
vn 0 -0.707107 -0.707107
vn -0.707107 -0.707107 0
vn 0 0 1
vn 1 0 0
vn 0 0 -1
vn -1 0 0
vn 0 0.707107 0.707107
vn 0.707107 0.707107 0
vn 0 0.707107 -0.707107
vn -0.707107 0.707107 0
vn 0 -1 0
vn 0 1 0
f 25/61/15 26/62/15 30/63/15 29/64/15
f 26/65/16 27/66/16 31/67/16 30/68/16
f 27/69/17 28/70/17 32/71/17 31/72/17
f 28/73/18 25/74/18 29/75/18 32/76/18
f 29/77/19 30/78/19 34/79/19 33/80/19
f 30/81/20 31/82/20 35/83/20 34/84/20
f 31/85/21 32/86/21 36/87/21 35/88/21
f 32/89/22 29/90/22 33/91/22 36/92/22
f 33/93/23 34/94/23 38/95/23 37/96/23
f 34/97/24 35/98/24 39/99/24 38/100/24
f 35/101/25 36/102/25 40/103/25 39/104/25
f 36/105/26 33/106/26 37/107/26 40/108/26
f 41/109/15 42/110/15 46/111/15 45/112/15
f 42/113/18 43/114/18 47/115/18 46/116/18
f 43/117/17 44/118/17 48/119/17 47/120/17
f 44/121/16 41/122/16 45/123/16 48/124/16
f 45/125/19 46/126/19 50/127/19 49/128/19
f 46/129/22 47/130/22 51/131/22 50/132/22
f 47/133/21 48/134/21 52/135/21 51/136/21
f 48/137/20 45/138/20 49/139/20 52/140/20
f 49/141/23 50/142/23 54/143/23 53/144/23
f 50/145/26 51/146/26 55/147/26 54/148/26
f 51/149/25 52/150/25 56/151/25 55/152/25
f 52/153/24 49/154/24 53/155/24 56/156/24
f 62/157/27 59/158/27 58/159/27
f 63/160/27 62/161/27 58/162/27
f 63/163/27 58/164/27 57/165/27
f 64/166/27 63/167/27 57/168/27
f 64/169/27 57/170/27 60/171/27
f 61/172/27 64/173/27 60/174/27
f 62/175/27 61/176/27 60/177/27
f 60/178/27 59/179/27 62/180/27
f 66/181/28 67/182/28 70/183/28
f 66/184/28 70/185/28 71/186/28
f 65/187/28 66/188/28 71/189/28
f 65/190/28 71/191/28 72/192/28
f 68/193/28 65/194/28 72/195/28
f 68/196/28 72/197/28 69/198/28
f 68/199/28 69/200/28 70/201/28
f 70/202/28 67/203/28 68/204/28
o end_pipe_flange_nuts
usemtl fluid_pipe
v 0.232108 0.353125 0.7775
v 0.209375 0.353125 0.764375
v 0.186642 0.353125 0.7775
v 0.186642 0.353125 0.80375
v 0.209375 0.353125 0.816875
v 0.232108 0.353125 0.80375
v 0.232108 0.375 0.7775
v 0.209375 0.375 0.764375
v 0.186642 0.375 0.7775
v 0.186642 0.375 0.80375
v 0.209375 0.375 0.816875
v 0.232108 0.375 0.80375
v 0.232108 0.353125 0.7775
v 0.209375 0.353125 0.764375
v 0.186642 0.353125 0.7775
v 0.186642 0.353125 0.80375
v 0.209375 0.353125 0.816875
v 0.232108 0.353125 0.80375
v 0.232108 0.375 0.7775
v 0.209375 0.375 0.764375
v 0.186642 0.375 0.7775
v 0.186642 0.375 0.80375
v 0.209375 0.375 0.816875
v 0.232108 0.375 0.80375
v 0.232108 0.353125 0.19625
v 0.209375 0.353125 0.183125
v 0.186642 0.353125 0.19625
v 0.186642 0.353125 0.2225
v 0.209375 0.353125 0.235625
v 0.232108 0.353125 0.2225
v 0.232108 0.375 0.19625
v 0.209375 0.375 0.183125
v 0.186642 0.375 0.19625
v 0.186642 0.375 0.2225
v 0.209375 0.375 0.235625
v 0.232108 0.375 0.2225
v 0.232108 0.353125 0.19625
v 0.209375 0.353125 0.183125
v 0.186642 0.353125 0.19625
v 0.186642 0.353125 0.2225
v 0.209375 0.353125 0.235625
v 0.232108 0.353125 0.2225
v 0.232108 0.375 0.19625
v 0.209375 0.375 0.183125
v 0.186642 0.375 0.19625
v 0.186642 0.375 0.2225
v 0.209375 0.375 0.235625
v 0.232108 0.375 0.2225
v 0.813358 0.353125 0.7775
v 0.790625 0.353125 0.764375
v 0.767892 0.353125 0.7775
v 0.767892 0.353125 0.80375
v 0.790625 0.353125 0.816875
v 0.813358 0.353125 0.80375
v 0.813358 0.375 0.7775
v 0.790625 0.375 0.764375
v 0.767892 0.375 0.7775
v 0.767892 0.375 0.80375
v 0.790625 0.375 0.816875
v 0.813358 0.375 0.80375
v 0.813358 0.353125 0.7775
v 0.790625 0.353125 0.764375
v 0.767892 0.353125 0.7775
v 0.767892 0.353125 0.80375
v 0.790625 0.353125 0.816875
v 0.813358 0.353125 0.80375
v 0.813358 0.375 0.7775
v 0.790625 0.375 0.764375
v 0.767892 0.375 0.7775
v 0.767892 0.375 0.80375
v 0.790625 0.375 0.816875
v 0.813358 0.375 0.80375
v 0.813358 0.353125 0.19625
v 0.790625 0.353125 0.183125
v 0.767892 0.353125 0.19625
v 0.767892 0.353125 0.2225
v 0.790625 0.353125 0.235625
v 0.813358 0.353125 0.2225
v 0.813358 0.375 0.19625
v 0.790625 0.375 0.183125
v 0.767892 0.375 0.19625
v 0.767892 0.375 0.2225
v 0.790625 0.375 0.235625
v 0.813358 0.375 0.2225
v 0.813358 0.353125 0.19625
v 0.790625 0.353125 0.183125
v 0.767892 0.353125 0.19625
v 0.767892 0.353125 0.2225
v 0.790625 0.353125 0.235625
v 0.813358 0.353125 0.2225
v 0.813358 0.375 0.19625
v 0.790625 0.375 0.183125
v 0.767892 0.375 0.19625
v 0.767892 0.375 0.2225
v 0.790625 0.375 0.235625
v 0.813358 0.375 0.2225
vt 0.116943 0.083295
vt 0.120994 0.083295
vt 0.120994 0.08667
vt 0.116943 0.08667
vt 0.023193 0.083295
vt 0.027244 0.083295
vt 0.027244 0.08667
vt 0.023193 0.08667
vt 0.122803 0.083295
vt 0.126853 0.083295
vt 0.126853 0.08667
vt 0.122803 0.08667
vt 0.029053 0.083295
vt 0.033103 0.083295
vt 0.033103 0.08667
vt 0.029053 0.08667
vt 0.257568 0.083295
vt 0.261619 0.083295
vt 0.261619 0.08667
vt 0.257568 0.08667
vt 0.128662 0.083295
vt 0.132712 0.083295
vt 0.132712 0.08667
vt 0.128662 0.08667
vt 0.604536 0.172518
vt 0.602511 0.176025
vt 0.598461 0.176025
vt 0.602511 0.16901
vt 0.604536 0.172518
vt 0.598461 0.176025
vt 0.598461 0.16901
vt 0.602511 0.16901
vt 0.598461 0.176025
vt 0.598461 0.176025
vt 0.596436 0.172518
vt 0.598461 0.16901
vt 0.608226 0.16901
vt 0.612277 0.16901
vt 0.614302 0.172518
vt 0.608226 0.16901
vt 0.614302 0.172518
vt 0.612277 0.176025
vt 0.608226 0.16901
vt 0.612277 0.176025
vt 0.608226 0.176025
vt 0.608226 0.176025
vt 0.606201 0.172518
vt 0.608226 0.16901
vt 0.263428 0.083295
vt 0.267478 0.083295
vt 0.267478 0.08667
vt 0.263428 0.08667
vt 0.034912 0.083295
vt 0.038962 0.083295
vt 0.038962 0.08667
vt 0.034912 0.08667
vt 0.134521 0.083295
vt 0.138572 0.083295
vt 0.138572 0.08667
vt 0.134521 0.08667
vt 0.040771 0.083295
vt 0.044822 0.083295
vt 0.044822 0.08667
vt 0.040771 0.08667
vt 0.140381 0.083295
vt 0.144431 0.083295
vt 0.144431 0.08667
vt 0.140381 0.08667
vt 0.14624 0.083295
vt 0.150291 0.083295
vt 0.150291 0.08667
vt 0.14624 0.08667
vt 0.624067 0.172518
vt 0.622042 0.176025
vt 0.617992 0.176025
vt 0.622042 0.16901
vt 0.624067 0.172518
vt 0.617992 0.176025
vt 0.617992 0.16901
vt 0.622042 0.16901
vt 0.617992 0.176025
vt 0.617992 0.176025
vt 0.615967 0.172518
vt 0.617992 0.16901
vt 0.627758 0.16901
vt 0.631808 0.16901
vt 0.633833 0.172518
vt 0.627758 0.16901
vt 0.633833 0.172518
vt 0.631808 0.176025
vt 0.627758 0.16901
vt 0.631808 0.176025
vt 0.627758 0.176025
vt 0.627758 0.176025
vt 0.625732 0.172518
vt 0.627758 0.16901
vt 0.046631 0.083295
vt 0.050681 0.083295
vt 0.050681 0.08667
vt 0.046631 0.08667
vt 0.1521 0.083295
vt 0.15615 0.083295
vt 0.15615 0.08667
vt 0.1521 0.08667
vt 0.157959 0.083295
vt 0.162009 0.083295
vt 0.162009 0.08667
vt 0.157959 0.08667
vt 0.269287 0.083295
vt 0.273337 0.083295
vt 0.273337 0.08667
vt 0.269287 0.08667
vt 0.05249 0.083295
vt 0.056541 0.083295
vt 0.056541 0.08667
vt 0.05249 0.08667
vt 0.163818 0.083295
vt 0.167869 0.083295
vt 0.167869 0.08667
vt 0.163818 0.08667
vt 0.643599 0.172518
vt 0.641573 0.176025
vt 0.637523 0.176025
vt 0.641573 0.16901
vt 0.643599 0.172518
vt 0.637523 0.176025
vt 0.637523 0.16901
vt 0.641573 0.16901
vt 0.637523 0.176025
vt 0.637523 0.176025
vt 0.635498 0.172518
vt 0.637523 0.16901
vt 0.647289 0.16901
vt 0.651339 0.16901
vt 0.653364 0.172518
vt 0.647289 0.16901
vt 0.653364 0.172518
vt 0.651339 0.176025
vt 0.647289 0.16901
vt 0.651339 0.176025
vt 0.647289 0.176025
vt 0.647289 0.176025
vt 0.645264 0.172518
vt 0.647289 0.16901
vt 0.05835 0.083295
vt 0.0624 0.083295
vt 0.0624 0.08667
vt 0.05835 0.08667
vt 0.275146 0.083295
vt 0.279197 0.083295
vt 0.279197 0.08667
vt 0.275146 0.08667
vt 0.169678 0.083295
vt 0.173728 0.083295
vt 0.173728 0.08667
vt 0.169678 0.08667
vt 0.175537 0.083295
vt 0.179587 0.083295
vt 0.179587 0.08667
vt 0.175537 0.08667
vt 0.064209 0.083295
vt 0.068259 0.083295
vt 0.068259 0.08667
vt 0.064209 0.08667
vt 0.181396 0.083295
vt 0.185447 0.083295
vt 0.185447 0.08667
vt 0.181396 0.08667
vt 0.66313 0.172518
vt 0.661105 0.176025
vt 0.657054 0.176025
vt 0.661105 0.16901
vt 0.66313 0.172518
vt 0.657054 0.176025
vt 0.657054 0.16901
vt 0.661105 0.16901
vt 0.657054 0.176025
vt 0.657054 0.176025
vt 0.655029 0.172518
vt 0.657054 0.16901
vt 0.66682 0.16901
vt 0.67087 0.16901
vt 0.672896 0.172518
vt 0.66682 0.16901
vt 0.672896 0.172518
vt 0.67087 0.176025
vt 0.66682 0.16901
vt 0.67087 0.176025
vt 0.66682 0.176025
vt 0.66682 0.176025
vt 0.664795 0.172518
vt 0.66682 0.16901
vn 0.5 0 -0.866025
vn -0.5 0 -0.866025
vn -1 0 0
vn -0.5 0 0.866025
vn 0.5 0 0.866025
vn 1 0 0
vn 0 -1 0
vn 0 1 0
f 73/205/29 74/206/29 80/207/29 79/208/29
f 74/209/30 75/210/30 81/211/30 80/212/30
f 75/213/31 76/214/31 82/215/31 81/216/31
f 76/217/32 77/218/32 83/219/32 82/220/32
f 77/221/33 78/222/33 84/223/33 83/224/33
f 78/225/34 73/226/34 79/227/34 84/228/34
f 86/229/35 85/230/35 90/231/35
f 87/232/35 86/233/35 90/234/35
f 88/235/35 87/236/35 90/237/35
f 90/238/35 89/239/35 88/240/35
f 96/241/36 91/242/36 92/243/36
f 96/244/36 92/245/36 93/246/36
f 96/247/36 93/248/36 94/249/36
f 94/250/36 95/251/36 96/252/36
f 97/253/29 98/254/29 104/255/29 103/256/29
f 98/257/30 99/258/30 105/259/30 104/260/30
f 99/261/31 100/262/31 106/263/31 105/264/31
f 100/265/32 101/266/32 107/267/32 106/268/32
f 101/269/33 102/270/33 108/271/33 107/272/33
f 102/273/34 97/274/34 103/275/34 108/276/34
f 110/277/35 109/278/35 114/279/35
f 111/280/35 110/281/35 114/282/35
f 112/283/35 111/284/35 114/285/35
f 114/286/35 113/287/35 112/288/35
f 120/289/36 115/290/36 116/291/36
f 120/292/36 116/293/36 117/294/36
f 120/295/36 117/296/36 118/297/36
f 118/298/36 119/299/36 120/300/36
f 121/301/29 122/302/29 128/303/29 127/304/29
f 122/305/30 123/306/30 129/307/30 128/308/30
f 123/309/31 124/310/31 130/311/31 129/312/31
f 124/313/32 125/314/32 131/315/32 130/316/32
f 125/317/33 126/318/33 132/319/33 131/320/33
f 126/321/34 121/322/34 127/323/34 132/324/34
f 134/325/35 133/326/35 138/327/35
f 135/328/35 134/329/35 138/330/35
f 136/331/35 135/332/35 138/333/35
f 138/334/35 137/335/35 136/336/35
f 144/337/36 139/338/36 140/339/36
f 144/340/36 140/341/36 141/342/36
f 144/343/36 141/344/36 142/345/36
f 142/346/36 143/347/36 144/348/36
f 145/349/29 146/350/29 152/351/29 151/352/29
f 146/353/30 147/354/30 153/355/30 152/356/30
f 147/357/31 148/358/31 154/359/31 153/360/31
f 148/361/32 149/362/32 155/363/32 154/364/32
f 149/365/33 150/366/33 156/367/33 155/368/33
f 150/369/34 145/370/34 151/371/34 156/372/34
f 158/373/35 157/374/35 162/375/35
f 159/376/35 158/377/35 162/378/35
f 160/379/35 159/380/35 162/381/35
f 162/382/35 161/383/35 160/384/35
f 168/385/36 163/386/36 164/387/36
f 168/388/36 164/389/36 165/390/36
f 168/391/36 165/392/36 166/393/36
f 166/394/36 167/395/36 168/396/36
o end_pipe_rails
usemtl fluid_pipe
v 0.33125 0.475 0.66875
v 0.25 0.475 0.66875
v 0.25 0.475 0.73125
v 0.26875 0.475 0.75
v 0.33125 0.475 0.75
v 0.33125 1 0.66875
v 0.25 1 0.66875
v 0.25 1 0.73125
v 0.26875 1 0.75
v 0.33125 1 0.75
v 0.33125 0.475 0.66875
v 0.25 0.475 0.66875
v 0.25 0.475 0.73125
v 0.26875 0.475 0.75
v 0.33125 0.475 0.75
v 0.33125 1 0.66875
v 0.25 1 0.66875
v 0.25 1 0.73125
v 0.26875 1 0.75
v 0.33125 1 0.75
v 0.33125 0.475 0.25
v 0.26875 0.475 0.25
v 0.25 0.475 0.26875
v 0.25 0.475 0.33125
v 0.33125 0.475 0.33125
v 0.33125 1 0.25
v 0.26875 1 0.25
v 0.25 1 0.26875
v 0.25 1 0.33125
v 0.33125 1 0.33125
v 0.33125 0.475 0.25
v 0.26875 0.475 0.25
v 0.25 0.475 0.26875
v 0.25 0.475 0.33125
v 0.33125 0.475 0.33125
v 0.33125 1 0.25
v 0.26875 1 0.25
v 0.25 1 0.26875
v 0.25 1 0.33125
v 0.33125 1 0.33125
v 0.66875 0.475 0.75
v 0.73125 0.475 0.75
v 0.75 0.475 0.73125
v 0.75 0.475 0.66875
v 0.66875 0.475 0.66875
v 0.66875 1 0.75
v 0.73125 1 0.75
v 0.75 1 0.73125
v 0.75 1 0.66875
v 0.66875 1 0.66875
v 0.66875 0.475 0.75
v 0.73125 0.475 0.75
v 0.75 0.475 0.73125
v 0.75 0.475 0.66875
v 0.66875 0.475 0.66875
v 0.66875 1 0.75
v 0.73125 1 0.75
v 0.75 1 0.73125
v 0.75 1 0.66875
v 0.66875 1 0.66875
v 0.66875 0.475 0.33125
v 0.75 0.475 0.33125
v 0.75 0.475 0.26875
v 0.73125 0.475 0.25
v 0.66875 0.475 0.25
v 0.66875 1 0.33125
v 0.75 1 0.33125
v 0.75 1 0.26875
v 0.73125 1 0.25
v 0.66875 1 0.25
v 0.66875 0.475 0.33125
v 0.75 0.475 0.33125
v 0.75 0.475 0.26875
v 0.73125 0.475 0.25
v 0.66875 0.475 0.25
v 0.66875 1 0.33125
v 0.75 1 0.33125
v 0.75 1 0.26875
v 0.73125 1 0.25
v 0.66875 1 0.25
vt 0.751221 0.346924
vt 0.751221 0.334387
vt 0.832227 0.334387
vt 0.832227 0.346924
vt 0.251221 0.209717
vt 0.251221 0.200073
vt 0.332227 0.200073
vt 0.332227 0.209717
vt 0.501221 0.098389
vt 0.501221 0.094297
vt 0.582227 0.094297
vt 0.582227 0.098389
vt 0.33374 0.209717
vt 0.33374 0.200073
vt 0.414746 0.200073
vt 0.414746 0.209717
vt 0.83374 0.346924
vt 0.83374 0.334387
vt 0.914746 0.334387
vt 0.914746 0.346924
vt 0.127039 0.277747
vt 0.127039 0.290283
vt 0.114502 0.290283
vt 0.117395 0.277747
vt 0.127039 0.277747
vt 0.114502 0.290283
vt 0.114502 0.290283
vt 0.114502 0.28064
vt 0.117395 0.277747
vt 0.128662 0.277747
vt 0.141199 0.277747
vt 0.141199 0.290283
vt 0.128662 0.277747
vt 0.141199 0.290283
vt 0.131555 0.290283
vt 0.131555 0.290283
vt 0.128662 0.28739
vt 0.128662 0.277747
vt 0.41626 0.209717
vt 0.41626 0.200073
vt 0.497266 0.200073
vt 0.497266 0.209717
vt 0.58374 0.098389
vt 0.58374 0.094297
vt 0.664746 0.094297
vt 0.664746 0.098389
vt 0.498779 0.209717
vt 0.498779 0.200073
vt 0.579785 0.200073
vt 0.579785 0.209717
vt 0.91626 0.346924
vt 0.91626 0.334387
vt 0.997266 0.334387
vt 0.997266 0.346924
vt 0.001221 0.332764
vt 0.001221 0.320227
vt 0.082227 0.320227
vt 0.082227 0.332764
vt 0.155359 0.28064
vt 0.155359 0.290283
vt 0.142822 0.290283
vt 0.152466 0.277747
vt 0.155359 0.28064
vt 0.142822 0.290283
vt 0.142822 0.290283
vt 0.142822 0.277747
vt 0.152466 0.277747
vt 0.156982 0.277747
vt 0.169519 0.277747
vt 0.169519 0.28739
vt 0.156982 0.277747
vt 0.169519 0.28739
vt 0.166626 0.290283
vt 0.166626 0.290283
vt 0.156982 0.290283
vt 0.156982 0.277747
vt 0.581299 0.209717
vt 0.581299 0.200073
vt 0.662305 0.200073
vt 0.662305 0.209717
vt 0.66626 0.098389
vt 0.66626 0.094297
vt 0.747266 0.094297
vt 0.747266 0.098389
vt 0.663818 0.209717
vt 0.663818 0.200073
vt 0.744824 0.200073
vt 0.744824 0.209717
vt 0.08374 0.332764
vt 0.08374 0.320227
vt 0.164746 0.320227
vt 0.164746 0.332764
vt 0.16626 0.332764
vt 0.16626 0.320227
vt 0.247266 0.320227
vt 0.247266 0.332764
vt 0.171143 0.28739
vt 0.171143 0.277747
vt 0.183679 0.277747
vt 0.174036 0.290283
vt 0.171143 0.28739
vt 0.183679 0.277747
vt 0.183679 0.277747
vt 0.183679 0.290283
vt 0.174036 0.290283
vt 0.197839 0.290283
vt 0.185303 0.290283
vt 0.185303 0.28064
vt 0.197839 0.290283
vt 0.185303 0.28064
vt 0.188196 0.277747
vt 0.188196 0.277747
vt 0.197839 0.277747
vt 0.197839 0.290283
vt 0.248779 0.332764
vt 0.248779 0.320227
vt 0.329785 0.320227
vt 0.329785 0.332764
vt 0.746338 0.209717
vt 0.746338 0.200073
vt 0.827344 0.200073
vt 0.827344 0.209717
vt 0.748779 0.098389
vt 0.748779 0.094297
vt 0.829785 0.094297
vt 0.829785 0.098389
vt 0.828857 0.209717
vt 0.828857 0.200073
vt 0.909863 0.200073
vt 0.909863 0.209717
vt 0.331299 0.332764
vt 0.331299 0.320227
vt 0.412305 0.320227
vt 0.412305 0.332764
vt 0.199463 0.290283
vt 0.199463 0.277747
vt 0.212 0.277747
vt 0.209106 0.290283
vt 0.199463 0.290283
vt 0.212 0.277747
vt 0.212 0.277747
vt 0.212 0.28739
vt 0.209106 0.290283
vt 0.22616 0.290283
vt 0.213623 0.290283
vt 0.213623 0.277747
vt 0.22616 0.290283
vt 0.213623 0.277747
vt 0.223267 0.277747
vt 0.223267 0.277747
vt 0.22616 0.28064
vt 0.22616 0.290283
vn 0 0 -1
vn -1 0 0
vn -0.707107 0 0.707107
vn 0 0 1
vn 1 0 0
vn 0 -1 0
vn 0 1 0
vn -0.707107 0 -0.707107
vn 0.707107 0 0.707107
vn 0.707107 0 -0.707107
f 169/397/37 170/398/37 175/399/37 174/400/37
f 170/401/38 171/402/38 176/403/38 175/404/38
f 171/405/39 172/406/39 177/407/39 176/408/39
f 172/409/40 173/410/40 178/411/40 177/412/40
f 173/413/41 169/414/41 174/415/41 178/416/41
f 180/417/42 179/418/42 183/419/42
f 181/420/42 180/421/42 183/422/42
f 183/423/42 182/424/42 181/425/42
f 188/426/43 184/427/43 185/428/43
f 188/429/43 185/430/43 186/431/43
f 186/432/43 187/433/43 188/434/43
f 189/435/37 190/436/37 195/437/37 194/438/37
f 190/439/44 191/440/44 196/441/44 195/442/44
f 191/443/38 192/444/38 197/445/38 196/446/38
f 192/447/40 193/448/40 198/449/40 197/450/40
f 193/451/41 189/452/41 194/453/41 198/454/41
f 200/455/42 199/456/42 203/457/42
f 201/458/42 200/459/42 203/460/42
f 203/461/42 202/462/42 201/463/42
f 208/464/43 204/465/43 205/466/43
f 208/467/43 205/468/43 206/469/43
f 206/470/43 207/471/43 208/472/43
f 209/473/40 210/474/40 215/475/40 214/476/40
f 210/477/45 211/478/45 216/479/45 215/480/45
f 211/481/41 212/482/41 217/483/41 216/484/41
f 212/485/37 213/486/37 218/487/37 217/488/37
f 213/489/38 209/490/38 214/491/38 218/492/38
f 220/493/42 219/494/42 223/495/42
f 221/496/42 220/497/42 223/498/42
f 223/499/42 222/500/42 221/501/42
f 228/502/43 224/503/43 225/504/43
f 228/505/43 225/506/43 226/507/43
f 226/508/43 227/509/43 228/510/43
f 229/511/40 230/512/40 235/513/40 234/514/40
f 230/515/41 231/516/41 236/517/41 235/518/41
f 231/519/46 232/520/46 237/521/46 236/522/46
f 232/523/37 233/524/37 238/525/37 237/526/37
f 233/527/38 229/528/38 234/529/38 238/530/38
f 240/531/42 239/532/42 243/533/42
f 241/534/42 240/535/42 243/536/42
f 243/537/42 242/538/42 241/539/42
f 248/540/43 244/541/43 245/542/43
f 248/543/43 245/544/43 246/545/43
f 246/546/43 247/547/43 248/548/43
