# AFL Fluid Pipe V2 end_pipe_up (glass), generated by tools/build-fluid-pipe-v2.mjs
mtllib fluid_pipe.mtl
o end_pipe_panes
usemtl fluid_pipe
v 0.259375 0.475 0.66875
v 0.259375 0.475 0.33125
v 0.259375 1 0.33125
v 0.259375 1 0.66875
v 0.275 0.475 0.66875
v 0.275 0.475 0.33125
v 0.275 1 0.33125
v 0.275 1 0.66875
v 0.33125 0.475 0.740625
v 0.66875 0.475 0.740625
v 0.66875 1 0.740625
v 0.33125 1 0.740625
v 0.33125 0.475 0.725
v 0.66875 0.475 0.725
v 0.66875 1 0.725
v 0.33125 1 0.725
v 0.725 0.475 0.66875
v 0.725 0.475 0.33125
v 0.725 1 0.33125
v 0.725 1 0.66875
v 0.740625 0.475 0.66875
v 0.740625 0.475 0.33125
v 0.740625 1 0.33125
v 0.740625 1 0.66875
v 0.33125 0.475 0.275
v 0.66875 0.475 0.275
v 0.66875 1 0.275
v 0.33125 1 0.275
v 0.33125 0.475 0.259375
v 0.66875 0.475 0.259375
v 0.66875 1 0.259375
v 0.33125 1 0.259375
vt 0.707227 0.545825
vt 0.707227 0.5979
vt 0.626221 0.5979
vt 0.626221 0.545825
vt 0.70874 0.5979
vt 0.70874 0.545825
vt 0.789746 0.545825
vt 0.789746 0.5979
vt 0.79126 0.5979
vt 0.79126 0.545825
vt 0.872266 0.545825
vt 0.872266 0.5979
vt 0.954785 0.545825
vt 0.954785 0.5979
vt 0.873779 0.5979
vt 0.873779 0.545825
vt 0.082227 0.492114
vt 0.082227 0.544189
vt 0.001221 0.544189
vt 0.001221 0.492114
vt 0.08374 0.544189
vt 0.08374 0.492114
vt 0.164746 0.492114
vt 0.164746 0.544189
vt 0.16626 0.544189
vt 0.16626 0.492114
vt 0.247266 0.492114
vt 0.247266 0.544189
vt 0.329785 0.492114
vt 0.329785 0.544189
vt 0.248779 0.544189
vt 0.248779 0.492114
vn -1 0 0
vn 1 0 0
vn 0 0 1
vn 0 0 -1
f 4/1/1 3/2/1 2/3/1 1/4/1
f 5/5/2 6/6/2 7/7/2 8/8/2
f 9/9/3 10/10/3 11/11/3 12/12/3
f 16/13/4 15/14/4 14/15/4 13/16/4
f 20/17/1 19/18/1 18/19/1 17/20/1
f 21/21/2 22/22/2 23/23/2 24/24/2
f 25/25/3 26/26/3 27/27/3 28/28/3
f 32/29/4 31/30/4 30/31/4 29/32/4
