# AFL Fluid Pipe V2 end_port_up, generated by tools/build-fluid-pipe-v2.mjs
mtllib fluid_pipe.mtl
o end_port_blind
usemtl fluid_pipe
v 0.16875 0.375 0.83125
v 0.83125 0.375 0.83125
v 0.83125 0.375 0.16875
v 0.16875 0.375 0.16875
v 0.1625 0.38125 0.8375
v 0.8375 0.38125 0.8375
v 0.8375 0.38125 0.1625
v 0.1625 0.38125 0.1625
v 0.1625 0.41875 0.8375
v 0.8375 0.41875 0.8375
v 0.8375 0.41875 0.1625
v 0.1625 0.41875 0.1625
v 0.16875 0.425 0.83125
v 0.83125 0.425 0.83125
v 0.83125 0.425 0.16875
v 0.16875 0.425 0.16875
v 0.16875 0.375 0.83125
v 0.83125 0.375 0.83125
v 0.83125 0.375 0.16875
v 0.16875 0.375 0.16875
v 0.16875 0.425 0.83125
v 0.83125 0.425 0.83125
v 0.83125 0.425 0.16875
v 0.16875 0.425 0.16875
vt 0.53197 0.075052
vt 0.634192 0.075052
vt 0.635156 0.076416
vt 0.531006 0.076416
vt 0.637927 0.066263
vt 0.740149 0.066263
vt 0.741113 0.067627
vt 0.636963 0.067627
vt 0.637927 0.075052
vt 0.740149 0.075052
vt 0.741113 0.076416
vt 0.636963 0.076416
vt 0.743884 0.066263
vt 0.846106 0.066263
vt 0.84707 0.067627
vt 0.74292 0.067627
vt 0.213135 0.107251
vt 0.317285 0.107251
vt 0.317285 0.113037
vt 0.213135 0.113037
vt 0.319092 0.107251
vt 0.423242 0.107251
vt 0.423242 0.113037
vt 0.319092 0.113037
vt 0.425049 0.107251
vt 0.529199 0.107251
vt 0.529199 0.113037
vt 0.425049 0.113037
vt 0.531006 0.107251
vt 0.635156 0.107251
vt 0.635156 0.113037
vt 0.531006 0.113037
vt 0.848877 0.066263
vt 0.953027 0.066263
vt 0.952063 0.067627
vt 0.849841 0.067627
vt 0.001221 0.063333
vt 0.105371 0.063333
vt 0.104407 0.064697
vt 0.002185 0.064697
vt 0.107178 0.063333
vt 0.211328 0.063333
vt 0.210364 0.064697
vt 0.108142 0.064697
vt 0.213135 0.063333
vt 0.317285 0.063333
vt 0.316321 0.064697
vt 0.214099 0.064697
vt 0.313232 0.894775
vt 0.313232 0.792554
vt 0.415454 0.792554
vt 0.415454 0.792554
vt 0.415454 0.894775
vt 0.313232 0.894775
vt 0.519458 0.894775
vt 0.417236 0.894775
vt 0.417236 0.792554
vt 0.417236 0.792554
vt 0.519458 0.792554
vt 0.519458 0.894775
vn 0 -0.707107 0.707107
vn 0.707107 -0.707107 0
vn 0 -0.707107 -0.707107
vn -0.707107 -0.707107 0
vn 0 0 1
vn 1 0 0
vn 0 0 -1
vn -1 0 0
vn 0 0.707107 0.707107
vn 0.707107 0.707107 0
vn 0 0.707107 -0.707107
vn -0.707107 0.707107 0
vn 0 -1 0
vn 0 1 0
f 1/1/1 2/2/1 6/3/1 5/4/1
f 2/5/2 3/6/2 7/7/2 6/8/2
f 3/9/3 4/10/3 8/11/3 7/12/3
f 4/13/4 1/14/4 5/15/4 8/16/4
f 5/17/5 6/18/5 10/19/5 9/20/5
f 6/21/6 7/22/6 11/23/6 10/24/6
f 7/25/7 8/26/7 12/27/7 11/28/7
f 8/29/8 5/30/8 9/31/8 12/32/8
f 9/33/9 10/34/9 14/35/9 13/36/9
f 10/37/10 11/38/10 15/39/10 14/40/10
f 11/41/11 12/42/11 16/43/11 15/44/11
f 12/45/12 9/46/12 13/47/12 16/48/12
f 18/49/13 17/50/13 20/51/13
f 20/52/13 19/53/13 18/54/13
f 24/55/14 21/56/14 22/57/14
f 22/58/14 23/59/14 24/60/14
o end_port_flange
usemtl fluid_pipe
v 0.16875 0.425 0.83125
v 0.83125 0.425 0.83125
v 0.83125 0.425 0.16875
v 0.16875 0.425 0.16875
v 0.1625 0.43125 0.8375
v 0.8375 0.43125 0.8375
v 0.8375 0.43125 0.1625
v 0.1625 0.43125 0.1625
v 0.1625 0.46875 0.8375
v 0.8375 0.46875 0.8375
v 0.8375 0.46875 0.1625
v 0.1625 0.46875 0.1625
v 0.16875 0.475 0.83125
v 0.83125 0.475 0.83125
v 0.83125 0.475 0.16875
v 0.16875 0.475 0.16875
v 0.24375 0.425 0.24375
v 0.75625 0.425 0.24375
v 0.75625 0.425 0.75625
v 0.24375 0.425 0.75625
v 0.25 0.43125 0.25
v 0.75 0.43125 0.25
v 0.75 0.43125 0.75
v 0.25 0.43125 0.75
v 0.25 0.46875 0.25
v 0.75 0.46875 0.25
v 0.75 0.46875 0.75
v 0.25 0.46875 0.75
v 0.24375 0.475 0.24375
v 0.75625 0.475 0.24375
v 0.75625 0.475 0.75625
v 0.24375 0.475 0.75625
v 0.16875 0.425 0.83125
v 0.83125 0.425 0.83125
v 0.83125 0.425 0.16875
v 0.16875 0.425 0.16875
v 0.24375 0.425 0.24375
v 0.75625 0.425 0.24375
v 0.75625 0.425 0.75625
v 0.24375 0.425 0.75625
v 0.16875 0.475 0.83125
v 0.83125 0.475 0.83125
v 0.83125 0.475 0.16875
v 0.16875 0.475 0.16875
v 0.24375 0.475 0.24375
v 0.75625 0.475 0.24375
v 0.75625 0.475 0.75625
v 0.24375 0.475 0.75625
vt 0.743884 0.075052
vt 0.846106 0.075052
vt 0.84707 0.076416
vt 0.74292 0.076416
vt 0.849841 0.075052
vt 0.952063 0.075052
vt 0.953027 0.076416
vt 0.848877 0.076416
vt 0.002185 0.072123
vt 0.104407 0.072123
vt 0.105371 0.073486
vt 0.001221 0.073486
vt 0.108142 0.072123
vt 0.210364 0.072123
vt 0.211328 0.073486
vt 0.107178 0.073486
vt 0.636963 0.107251
vt 0.741113 0.107251
vt 0.741113 0.113037
vt 0.636963 0.113037
vt 0.74292 0.107251
vt 0.84707 0.107251
vt 0.84707 0.113037
vt 0.74292 0.113037
vt 0.848877 0.107251
vt 0.953027 0.107251
vt 0.953027 0.113037
vt 0.848877 0.113037
vt 0.001221 0.099927
vt 0.105371 0.099927
vt 0.105371 0.105713
vt 0.001221 0.105713
vt 0.681885 0.079935
vt 0.786035 0.079935
vt 0.785071 0.081299
vt 0.682849 0.081299
vt 0.636963 0.054544
vt 0.741113 0.054544
vt 0.740149 0.055908
vt 0.637927 0.055908
vt 0.787842 0.079935
vt 0.891992 0.079935
vt 0.891028 0.081299
vt 0.788806 0.081299
vt 0.74292 0.054544
vt 0.84707 0.054544
vt 0.846106 0.055908
vt 0.743884 0.055908
vt 0.081787 0.025248
vt 0.160864 0.025248
vt 0.1599 0.026611
vt 0.082751 0.026611
vt 0.001221 0.034037
vt 0.080298 0.034037
vt 0.079333 0.0354
vt 0.002185 0.0354
vt 0.162354 0.025248
vt 0.241431 0.025248
vt 0.240466 0.026611
vt 0.163318 0.026611
vt 0.081787 0.034037
vt 0.160864 0.034037
vt 0.1599 0.0354
vt 0.082751 0.0354
vt 0.421631 0.099927
vt 0.498779 0.099927
vt 0.498779 0.105713
vt 0.421631 0.105713
vt 0.500244 0.099927
vt 0.577393 0.099927
vt 0.577393 0.105713
vt 0.500244 0.105713
vt 0.578857 0.099927
vt 0.656006 0.099927
vt 0.656006 0.105713
vt 0.578857 0.105713
vt 0.657471 0.099927
vt 0.734619 0.099927
vt 0.734619 0.105713
vt 0.657471 0.105713
vt 0.163318 0.048685
vt 0.240466 0.048685
vt 0.241431 0.050049
vt 0.162354 0.050049
vt 0.163318 0.039896
vt 0.240466 0.039896
vt 0.241431 0.04126
vt 0.162354 0.04126
vt 0.243884 0.048685
vt 0.321033 0.048685
vt 0.321997 0.050049
vt 0.24292 0.050049
vt 0.243884 0.039896
vt 0.321033 0.039896
vt 0.321997 0.04126
vt 0.24292 0.04126
vt 0.61189 0.883203
vt 0.623462 0.894775
vt 0.52124 0.894775
vt 0.532813 0.883203
vt 0.61189 0.883203
vt 0.52124 0.894775
vt 0.532813 0.883203
vt 0.52124 0.894775
vt 0.52124 0.792554
vt 0.532813 0.804126
vt 0.532813 0.883203
vt 0.52124 0.792554
vt 0.532813 0.804126
vt 0.52124 0.792554
vt 0.623462 0.792554
vt 0.61189 0.804126
vt 0.532813 0.804126
vt 0.623462 0.792554
vt 0.61189 0.883203
vt 0.61189 0.804126
vt 0.623462 0.792554
vt 0.623462 0.792554
vt 0.623462 0.894775
vt 0.61189 0.883203
vt 0.625244 0.792554
vt 0.727466 0.792554
vt 0.715894 0.804126
vt 0.625244 0.792554
vt 0.715894 0.804126
vt 0.636816 0.804126
vt 0.625244 0.894775
vt 0.625244 0.792554
vt 0.636816 0.804126
vt 0.625244 0.894775
vt 0.636816 0.804126
vt 0.636816 0.883203
vt 0.727466 0.894775
vt 0.625244 0.894775
vt 0.636816 0.883203
vt 0.727466 0.894775
vt 0.636816 0.883203
vt 0.715894 0.883203
vt 0.727466 0.894775
vt 0.715894 0.883203
vt 0.715894 0.804126
vt 0.715894 0.804126
vt 0.727466 0.792554
vt 0.727466 0.894775
vn 0 -0.707107 0.707107
vn 0.707107 -0.707107 0
vn 0 -0.707107 -0.707107
vn -0.707107 -0.707107 0
vn 0 0 1
vn 1 0 0
vn 0 0 -1
vn -1 0 0
vn 0 0.707107 0.707107
vn 0.707107 0.707107 0
vn 0 0.707107 -0.707107
vn -0.707107 0.707107 0
vn 0 -1 0
vn 0 1 0
f 25/61/15 26/62/15 30/63/15 29/64/15
f 26/65/16 27/66/16 31/67/16 30/68/16
f 27/69/17 28/70/17 32/71/17 31/72/17
f 28/73/18 25/74/18 29/75/18 32/76/18
f 29/77/19 30/78/19 34/79/19 33/80/19
f 30/81/20 31/82/20 35/83/20 34/84/20
f 31/85/21 32/86/21 36/87/21 35/88/21
f 32/89/22 29/90/22 33/91/22 36/92/22
f 33/93/23 34/94/23 38/95/23 37/96/23
f 34/97/24 35/98/24 39/99/24 38/100/24
f 35/101/25 36/102/25 40/103/25 39/104/25
f 36/105/26 33/106/26 37/107/26 40/108/26
f 41/109/15 42/110/15 46/111/15 45/112/15
f 42/113/18 43/114/18 47/115/18 46/116/18
f 43/117/17 44/118/17 48/119/17 47/120/17
f 44/121/16 41/122/16 45/123/16 48/124/16
f 45/125/19 46/126/19 50/127/19 49/128/19
f 46/129/22 47/130/22 51/131/22 50/132/22
f 47/133/21 48/134/21 52/135/21 51/136/21
f 48/137/20 45/138/20 49/139/20 52/140/20
f 49/141/23 50/142/23 54/143/23 53/144/23
f 50/145/26 51/146/26 55/147/26 54/148/26
f 51/149/25 52/150/25 56/151/25 55/152/25
f 52/153/24 49/154/24 53/155/24 56/156/24
f 62/157/27 59/158/27 58/159/27
f 63/160/27 62/161/27 58/162/27
f 63/163/27 58/164/27 57/165/27
f 64/166/27 63/167/27 57/168/27
f 64/169/27 57/170/27 60/171/27
f 61/172/27 64/173/27 60/174/27
f 62/175/27 61/176/27 60/177/27
f 60/178/27 59/179/27 62/180/27
f 66/181/28 67/182/28 70/183/28
f 66/184/28 70/185/28 71/186/28
f 65/187/28 66/188/28 71/189/28
f 65/190/28 71/191/28 72/192/28
f 68/193/28 65/194/28 72/195/28
f 68/196/28 72/197/28 69/198/28
f 68/199/28 69/200/28 70/201/28
f 70/202/28 67/203/28 68/204/28
o end_port_flange_nuts
usemtl fluid_pipe
v 0.232108 0.353125 0.7775
v 0.209375 0.353125 0.764375
v 0.186642 0.353125 0.7775
v 0.186642 0.353125 0.80375
v 0.209375 0.353125 0.816875
v 0.232108 0.353125 0.80375
v 0.232108 0.375 0.7775
v 0.209375 0.375 0.764375
v 0.186642 0.375 0.7775
v 0.186642 0.375 0.80375
v 0.209375 0.375 0.816875
v 0.232108 0.375 0.80375
v 0.232108 0.353125 0.7775
v 0.209375 0.353125 0.764375
v 0.186642 0.353125 0.7775
v 0.186642 0.353125 0.80375
v 0.209375 0.353125 0.816875
v 0.232108 0.353125 0.80375
v 0.232108 0.375 0.7775
v 0.209375 0.375 0.764375
v 0.186642 0.375 0.7775
v 0.186642 0.375 0.80375
v 0.209375 0.375 0.816875
v 0.232108 0.375 0.80375
v 0.232108 0.353125 0.19625
v 0.209375 0.353125 0.183125
v 0.186642 0.353125 0.19625
v 0.186642 0.353125 0.2225
v 0.209375 0.353125 0.235625
v 0.232108 0.353125 0.2225
v 0.232108 0.375 0.19625
v 0.209375 0.375 0.183125
v 0.186642 0.375 0.19625
v 0.186642 0.375 0.2225
v 0.209375 0.375 0.235625
v 0.232108 0.375 0.2225
v 0.232108 0.353125 0.19625
v 0.209375 0.353125 0.183125
v 0.186642 0.353125 0.19625
v 0.186642 0.353125 0.2225
v 0.209375 0.353125 0.235625
v 0.232108 0.353125 0.2225
v 0.232108 0.375 0.19625
v 0.209375 0.375 0.183125
v 0.186642 0.375 0.19625
v 0.186642 0.375 0.2225
v 0.209375 0.375 0.235625
v 0.232108 0.375 0.2225
v 0.813358 0.353125 0.7775
v 0.790625 0.353125 0.764375
v 0.767892 0.353125 0.7775
v 0.767892 0.353125 0.80375
v 0.790625 0.353125 0.816875
v 0.813358 0.353125 0.80375
v 0.813358 0.375 0.7775
v 0.790625 0.375 0.764375
v 0.767892 0.375 0.7775
v 0.767892 0.375 0.80375
v 0.790625 0.375 0.816875
v 0.813358 0.375 0.80375
v 0.813358 0.353125 0.7775
v 0.790625 0.353125 0.764375
v 0.767892 0.353125 0.7775
v 0.767892 0.353125 0.80375
v 0.790625 0.353125 0.816875
v 0.813358 0.353125 0.80375
v 0.813358 0.375 0.7775
v 0.790625 0.375 0.764375
v 0.767892 0.375 0.7775
v 0.767892 0.375 0.80375
v 0.790625 0.375 0.816875
v 0.813358 0.375 0.80375
v 0.813358 0.353125 0.19625
v 0.790625 0.353125 0.183125
v 0.767892 0.353125 0.19625
v 0.767892 0.353125 0.2225
v 0.790625 0.353125 0.235625
v 0.813358 0.353125 0.2225
v 0.813358 0.375 0.19625
v 0.790625 0.375 0.183125
v 0.767892 0.375 0.19625
v 0.767892 0.375 0.2225
v 0.790625 0.375 0.235625
v 0.813358 0.375 0.2225
v 0.813358 0.353125 0.19625
v 0.790625 0.353125 0.183125
v 0.767892 0.353125 0.19625
v 0.767892 0.353125 0.2225
v 0.790625 0.353125 0.235625
v 0.813358 0.353125 0.2225
v 0.813358 0.375 0.19625
v 0.790625 0.375 0.183125
v 0.767892 0.375 0.19625
v 0.767892 0.375 0.2225
v 0.790625 0.375 0.235625
v 0.813358 0.375 0.2225
vt 0.187256 0.083295
vt 0.191306 0.083295
vt 0.191306 0.08667
vt 0.187256 0.08667
vt 0.070068 0.083295
vt 0.074119 0.083295
vt 0.074119 0.08667
vt 0.070068 0.08667
vt 0.193115 0.083295
vt 0.197166 0.083295
vt 0.197166 0.08667
vt 0.193115 0.08667
vt 0.075928 0.083295
vt 0.079978 0.083295
vt 0.079978 0.08667
vt 0.075928 0.08667
vt 0.281006 0.083295
vt 0.285056 0.083295
vt 0.285056 0.08667
vt 0.281006 0.08667
vt 0.198975 0.083295
vt 0.203025 0.083295
vt 0.203025 0.08667
vt 0.198975 0.08667
vt 0.682661 0.172518
vt 0.680636 0.176025
vt 0.676586 0.176025
vt 0.680636 0.16901
vt 0.682661 0.172518
vt 0.676586 0.176025
vt 0.676586 0.16901
vt 0.680636 0.16901
vt 0.676586 0.176025
vt 0.676586 0.176025
vt 0.674561 0.172518
vt 0.676586 0.16901
vt 0.686351 0.16901
vt 0.690402 0.16901
vt 0.692427 0.172518
vt 0.686351 0.16901
vt 0.692427 0.172518
vt 0.690402 0.176025
vt 0.686351 0.16901
vt 0.690402 0.176025
vt 0.686351 0.176025
vt 0.686351 0.176025
vt 0.684326 0.172518
vt 0.686351 0.16901
vt 0.286865 0.083295
vt 0.290916 0.083295
vt 0.290916 0.08667
vt 0.286865 0.08667
vt 0.081787 0.083295
vt 0.085837 0.083295
vt 0.085837 0.08667
vt 0.081787 0.08667
vt 0.204834 0.083295
vt 0.208884 0.083295
vt 0.208884 0.08667
vt 0.204834 0.08667
vt 0.087646 0.083295
vt 0.091697 0.083295
vt 0.091697 0.08667
vt 0.087646 0.08667
vt 0.210693 0.083295
vt 0.214744 0.083295
vt 0.214744 0.08667
vt 0.210693 0.08667
vt 0.216553 0.083295
vt 0.220603 0.083295
vt 0.220603 0.08667
vt 0.216553 0.08667
vt 0.702192 0.172518
vt 0.700167 0.176025
vt 0.696117 0.176025
vt 0.700167 0.16901
vt 0.702192 0.172518
vt 0.696117 0.176025
vt 0.696117 0.16901
vt 0.700167 0.16901
vt 0.696117 0.176025
vt 0.696117 0.176025
vt 0.694092 0.172518
vt 0.696117 0.16901
vt 0.705883 0.16901
vt 0.709933 0.16901
vt 0.711958 0.172518
vt 0.705883 0.16901
vt 0.711958 0.172518
vt 0.709933 0.176025
vt 0.705883 0.16901
vt 0.709933 0.176025
vt 0.705883 0.176025
vt 0.705883 0.176025
vt 0.703857 0.172518
vt 0.705883 0.16901
vt 0.093506 0.083295
vt 0.097556 0.083295
vt 0.097556 0.08667
vt 0.093506 0.08667
vt 0.222412 0.083295
vt 0.226462 0.083295
vt 0.226462 0.08667
vt 0.222412 0.08667
vt 0.228271 0.083295
vt 0.232322 0.083295
vt 0.232322 0.08667
vt 0.228271 0.08667
vt 0.292725 0.083295
vt 0.296775 0.083295
vt 0.296775 0.08667
vt 0.292725 0.08667
vt 0.099365 0.083295
vt 0.103416 0.083295
vt 0.103416 0.08667
vt 0.099365 0.08667
vt 0.234131 0.083295
vt 0.238181 0.083295
vt 0.238181 0.08667
vt 0.234131 0.08667
vt 0.721724 0.172518
vt 0.719698 0.176025
vt 0.715648 0.176025
vt 0.719698 0.16901
vt 0.721724 0.172518
vt 0.715648 0.176025
vt 0.715648 0.16901
vt 0.719698 0.16901
vt 0.715648 0.176025
vt 0.715648 0.176025
vt 0.713623 0.172518
vt 0.715648 0.16901
vt 0.725414 0.16901
vt 0.729464 0.16901
vt 0.731489 0.172518
vt 0.725414 0.16901
vt 0.731489 0.172518
vt 0.729464 0.176025
vt 0.725414 0.16901
vt 0.729464 0.176025
vt 0.725414 0.176025
vt 0.725414 0.176025
vt 0.723389 0.172518
vt 0.725414 0.16901
vt 0.105225 0.083295
vt 0.109275 0.083295
vt 0.109275 0.08667
vt 0.105225 0.08667
vt 0.298584 0.083295
vt 0.302634 0.083295
vt 0.302634 0.08667
vt 0.298584 0.08667
vt 0.23999 0.083295
vt 0.244041 0.083295
vt 0.244041 0.08667
vt 0.23999 0.08667
vt 0.24585 0.083295
vt 0.2499 0.083295
vt 0.2499 0.08667
vt 0.24585 0.08667
vt 0.111084 0.083295
vt 0.115134 0.083295
vt 0.115134 0.08667
vt 0.111084 0.08667
vt 0.251709 0.083295
vt 0.255759 0.083295
vt 0.255759 0.08667
vt 0.251709 0.08667
vt 0.741255 0.172518
vt 0.73923 0.176025
vt 0.735179 0.176025
vt 0.73923 0.16901
vt 0.741255 0.172518
vt 0.735179 0.176025
vt 0.735179 0.16901
vt 0.73923 0.16901
vt 0.735179 0.176025
vt 0.735179 0.176025
vt 0.733154 0.172518
vt 0.735179 0.16901
vt 0.744945 0.16901
vt 0.748995 0.16901
vt 0.751021 0.172518
vt 0.744945 0.16901
vt 0.751021 0.172518
vt 0.748995 0.176025
vt 0.744945 0.16901
vt 0.748995 0.176025
vt 0.744945 0.176025
vt 0.744945 0.176025
vt 0.74292 0.172518
vt 0.744945 0.16901
vn 0.5 0 -0.866025
vn -0.5 0 -0.866025
vn -1 0 0
vn -0.5 0 0.866025
vn 0.5 0 0.866025
vn 1 0 0
vn 0 -1 0
vn 0 1 0
f 73/205/29 74/206/29 80/207/29 79/208/29
f 74/209/30 75/210/30 81/211/30 80/212/30
f 75/213/31 76/214/31 82/215/31 81/216/31
f 76/217/32 77/218/32 83/219/32 82/220/32
f 77/221/33 78/222/33 84/223/33 83/224/33
f 78/225/34 73/226/34 79/227/34 84/228/34
f 86/229/35 85/230/35 90/231/35
f 87/232/35 86/233/35 90/234/35
f 88/235/35 87/236/35 90/237/35
f 90/238/35 89/239/35 88/240/35
f 96/241/36 91/242/36 92/243/36
f 96/244/36 92/245/36 93/246/36
f 96/247/36 93/248/36 94/249/36
f 94/250/36 95/251/36 96/252/36
f 97/253/29 98/254/29 104/255/29 103/256/29
f 98/257/30 99/258/30 105/259/30 104/260/30
f 99/261/31 100/262/31 106/263/31 105/264/31
f 100/265/32 101/266/32 107/267/32 106/268/32
f 101/269/33 102/270/33 108/271/33 107/272/33
f 102/273/34 97/274/34 103/275/34 108/276/34
f 110/277/35 109/278/35 114/279/35
f 111/280/35 110/281/35 114/282/35
f 112/283/35 111/284/35 114/285/35
f 114/286/35 113/287/35 112/288/35
f 120/289/36 115/290/36 116/291/36
f 120/292/36 116/293/36 117/294/36
f 120/295/36 117/296/36 118/297/36
f 118/298/36 119/299/36 120/300/36
f 121/301/29 122/302/29 128/303/29 127/304/29
f 122/305/30 123/306/30 129/307/30 128/308/30
f 123/309/31 124/310/31 130/311/31 129/312/31
f 124/313/32 125/314/32 131/315/32 130/316/32
f 125/317/33 126/318/33 132/319/33 131/320/33
f 126/321/34 121/322/34 127/323/34 132/324/34
f 134/325/35 133/326/35 138/327/35
f 135/328/35 134/329/35 138/330/35
f 136/331/35 135/332/35 138/333/35
f 138/334/35 137/335/35 136/336/35
f 144/337/36 139/338/36 140/339/36
f 144/340/36 140/341/36 141/342/36
f 144/343/36 141/344/36 142/345/36
f 142/346/36 143/347/36 144/348/36
f 145/349/29 146/350/29 152/351/29 151/352/29
f 146/353/30 147/354/30 153/355/30 152/356/30
f 147/357/31 148/358/31 154/359/31 153/360/31
f 148/361/32 149/362/32 155/363/32 154/364/32
f 149/365/33 150/366/33 156/367/33 155/368/33
f 150/369/34 145/370/34 151/371/34 156/372/34
f 158/373/35 157/374/35 162/375/35
f 159/376/35 158/377/35 162/378/35
f 160/379/35 159/380/35 162/381/35
f 162/382/35 161/383/35 160/384/35
f 168/385/36 163/386/36 164/387/36
f 168/388/36 164/389/36 165/390/36
f 168/391/36 165/392/36 166/393/36
f 166/394/36 167/395/36 168/396/36
o end_port_rails
usemtl fluid_pipe
v 0.33125 0.475 0.66875
v 0.25 0.475 0.66875
v 0.25 0.475 0.73125
v 0.26875 0.475 0.75
v 0.33125 0.475 0.75
v 0.33125 0.95 0.66875
v 0.25 0.95 0.66875
v 0.25 0.95 0.73125
v 0.26875 0.95 0.75
v 0.33125 0.95 0.75
v 0.33125 0.475 0.66875
v 0.25 0.475 0.66875
v 0.25 0.475 0.73125
v 0.26875 0.475 0.75
v 0.33125 0.475 0.75
v 0.33125 0.95 0.66875
v 0.25 0.95 0.66875
v 0.25 0.95 0.73125
v 0.26875 0.95 0.75
v 0.33125 0.95 0.75
v 0.33125 0.475 0.25
v 0.26875 0.475 0.25
v 0.25 0.475 0.26875
v 0.25 0.475 0.33125
v 0.33125 0.475 0.33125
v 0.33125 0.95 0.25
v 0.26875 0.95 0.25
v 0.25 0.95 0.26875
v 0.25 0.95 0.33125
v 0.33125 0.95 0.33125
v 0.33125 0.475 0.25
v 0.26875 0.475 0.25
v 0.25 0.475 0.26875
v 0.25 0.475 0.33125
v 0.33125 0.475 0.33125
v 0.33125 0.95 0.25
v 0.26875 0.95 0.25
v 0.25 0.95 0.26875
v 0.25 0.95 0.33125
v 0.33125 0.95 0.33125
v 0.66875 0.475 0.75
v 0.73125 0.475 0.75
v 0.75 0.475 0.73125
v 0.75 0.475 0.66875
v 0.66875 0.475 0.66875
v 0.66875 0.95 0.75
v 0.73125 0.95 0.75
v 0.75 0.95 0.73125
v 0.75 0.95 0.66875
v 0.66875 0.95 0.66875
v 0.66875 0.475 0.75
v 0.73125 0.475 0.75
v 0.75 0.475 0.73125
v 0.75 0.475 0.66875
v 0.66875 0.475 0.66875
v 0.66875 0.95 0.75
v 0.73125 0.95 0.75
v 0.75 0.95 0.73125
v 0.75 0.95 0.66875
v 0.66875 0.95 0.66875
v 0.66875 0.475 0.33125
v 0.75 0.475 0.33125
v 0.75 0.475 0.26875
v 0.73125 0.475 0.25
v 0.66875 0.475 0.25
v 0.66875 0.95 0.33125
v 0.75 0.95 0.33125
v 0.75 0.95 0.26875
v 0.73125 0.95 0.25
v 0.66875 0.95 0.25
v 0.66875 0.475 0.33125
v 0.75 0.475 0.33125
v 0.75 0.475 0.26875
v 0.73125 0.475 0.25
v 0.66875 0.475 0.25
v 0.66875 0.95 0.33125
v 0.75 0.95 0.33125
v 0.75 0.95 0.26875
v 0.73125 0.95 0.25
v 0.66875 0.95 0.25
vt 0.079834 0.318604
vt 0.079834 0.306067
vt 0.153125 0.306067
vt 0.153125 0.318604
vt 0.551514 0.198486
vt 0.551514 0.188843
vt 0.624805 0.188843
vt 0.624805 0.198486
vt 0.158447 0.092529
vt 0.158447 0.088438
vt 0.231738 0.088438
vt 0.231738 0.092529
vt 0.626709 0.198486
vt 0.626709 0.188843
vt 0.7 0.188843
vt 0.7 0.198486
vt 0.155029 0.318604
vt 0.155029 0.306067
vt 0.22832 0.306067
vt 0.22832 0.318604
vt 0.24032 0.277747
vt 0.24032 0.290283
vt 0.227783 0.290283
vt 0.230676 0.277747
vt 0.24032 0.277747
vt 0.227783 0.290283
vt 0.227783 0.290283
vt 0.227783 0.28064
vt 0.230676 0.277747
vt 0.241943 0.277747
vt 0.25448 0.277747
vt 0.25448 0.290283
vt 0.241943 0.277747
vt 0.25448 0.290283
vt 0.244836 0.290283
vt 0.244836 0.290283
vt 0.241943 0.28739
vt 0.241943 0.277747
vt 0.701904 0.198486
vt 0.701904 0.188843
vt 0.775195 0.188843
vt 0.775195 0.198486
vt 0.233643 0.092529
vt 0.233643 0.088438
vt 0.306934 0.088438
vt 0.306934 0.092529
vt 0.7771 0.198486
vt 0.7771 0.188843
vt 0.850391 0.188843
vt 0.850391 0.198486
vt 0.230225 0.318604
vt 0.230225 0.306067
vt 0.303516 0.306067
vt 0.303516 0.318604
vt 0.30542 0.318604
vt 0.30542 0.306067
vt 0.378711 0.306067
vt 0.378711 0.318604
vt 0.26864 0.28064
vt 0.26864 0.290283
vt 0.256104 0.290283
vt 0.265747 0.277747
vt 0.26864 0.28064
vt 0.256104 0.290283
vt 0.256104 0.290283
vt 0.256104 0.277747
vt 0.265747 0.277747
vt 0.270264 0.277747
vt 0.2828 0.277747
vt 0.2828 0.28739
vt 0.270264 0.277747
vt 0.2828 0.28739
vt 0.279907 0.290283
vt 0.279907 0.290283
vt 0.270264 0.290283
vt 0.270264 0.277747
vt 0.852295 0.198486
vt 0.852295 0.188843
vt 0.925586 0.188843
vt 0.925586 0.198486
vt 0.308838 0.092529
vt 0.308838 0.088438
vt 0.382129 0.088438
vt 0.382129 0.092529
vt 0.001221 0.187256
vt 0.001221 0.177612
vt 0.074512 0.177612
vt 0.074512 0.187256
vt 0.380615 0.318604
vt 0.380615 0.306067
vt 0.453906 0.306067
vt 0.453906 0.318604
vt 0.455811 0.318604
vt 0.455811 0.306067
vt 0.529102 0.306067
vt 0.529102 0.318604
vt 0.284424 0.28739
vt 0.284424 0.277747
vt 0.29696 0.277747
vt 0.287317 0.290283
vt 0.284424 0.28739
vt 0.29696 0.277747
vt 0.29696 0.277747
vt 0.29696 0.290283
vt 0.287317 0.290283
vt 0.311121 0.290283
vt 0.298584 0.290283
vt 0.298584 0.28064
vt 0.311121 0.290283
vt 0.298584 0.28064
vt 0.301477 0.277747
vt 0.301477 0.277747
vt 0.311121 0.277747
vt 0.311121 0.290283
vt 0.531006 0.318604
vt 0.531006 0.306067
vt 0.604297 0.306067
vt 0.604297 0.318604
vt 0.076416 0.187256
vt 0.076416 0.177612
vt 0.149707 0.177612
vt 0.149707 0.187256
vt 0.384033 0.092529
vt 0.384033 0.088438
vt 0.457324 0.088438
vt 0.457324 0.092529
vt 0.151611 0.187256
vt 0.151611 0.177612
vt 0.224902 0.177612
vt 0.224902 0.187256
vt 0.606201 0.318604
vt 0.606201 0.306067
vt 0.679492 0.306067
vt 0.679492 0.318604
vt 0.312744 0.290283
vt 0.312744 0.277747
vt 0.325281 0.277747
vt 0.322388 0.290283
vt 0.312744 0.290283
vt 0.325281 0.277747
vt 0.325281 0.277747
vt 0.325281 0.28739
vt 0.322388 0.290283
vt 0.339441 0.290283
vt 0.326904 0.290283
vt 0.326904 0.277747
vt 0.339441 0.290283
vt 0.326904 0.277747
vt 0.336548 0.277747
vt 0.336548 0.277747
vt 0.339441 0.28064
vt 0.339441 0.290283
vn 0 0 -1
vn -1 0 0
vn -0.707107 0 0.707107
vn 0 0 1
vn 1 0 0
vn 0 -1 0
vn 0 1 0
vn -0.707107 0 -0.707107
vn 0.707107 0 0.707107
vn 0.707107 0 -0.707107
f 169/397/37 170/398/37 175/399/37 174/400/37
f 170/401/38 171/402/38 176/403/38 175/404/38
f 171/405/39 172/406/39 177/407/39 176/408/39
f 172/409/40 173/410/40 178/411/40 177/412/40
f 173/413/41 169/414/41 174/415/41 178/416/41
f 180/417/42 179/418/42 183/419/42
f 181/420/42 180/421/42 183/422/42
f 183/423/42 182/424/42 181/425/42
f 188/426/43 184/427/43 185/428/43
f 188/429/43 185/430/43 186/431/43
f 186/432/43 187/433/43 188/434/43
f 189/435/37 190/436/37 195/437/37 194/438/37
f 190/439/44 191/440/44 196/441/44 195/442/44
f 191/443/38 192/444/38 197/445/38 196/446/38
f 192/447/40 193/448/40 198/449/40 197/450/40
f 193/451/41 189/452/41 194/453/41 198/454/41
f 200/455/42 199/456/42 203/457/42
f 201/458/42 200/459/42 203/460/42
f 203/461/42 202/462/42 201/463/42
f 208/464/43 204/465/43 205/466/43
f 208/467/43 205/468/43 206/469/43
f 206/470/43 207/471/43 208/472/43
f 209/473/40 210/474/40 215/475/40 214/476/40
f 210/477/45 211/478/45 216/479/45 215/480/45
f 211/481/41 212/482/41 217/483/41 216/484/41
f 212/485/37 213/486/37 218/487/37 217/488/37
f 213/489/38 209/490/38 214/491/38 218/492/38
f 220/493/42 219/494/42 223/495/42
f 221/496/42 220/497/42 223/498/42
f 223/499/42 222/500/42 221/501/42
f 228/502/43 224/503/43 225/504/43
f 228/505/43 225/506/43 226/507/43
f 226/508/43 227/509/43 228/510/43
f 229/511/40 230/512/40 235/513/40 234/514/40
f 230/515/41 231/516/41 236/517/41 235/518/41
f 231/519/46 232/520/46 237/521/46 236/522/46
f 232/523/37 233/524/37 238/525/37 237/526/37
f 233/527/38 229/528/38 234/529/38 238/530/38
f 240/531/42 239/532/42 243/533/42
f 241/534/42 240/535/42 243/536/42
f 243/537/42 242/538/42 241/539/42
f 248/540/43 244/541/43 245/542/43
f 248/543/43 245/544/43 246/545/43
f 246/546/43 247/547/43 248/548/43
o end_port_port
usemtl fluid_pipe
v 0.16875 0.95 0.83125
v 0.83125 0.95 0.83125
v 0.83125 0.95 0.16875
v 0.16875 0.95 0.16875
v 0.1625 0.95625 0.8375
v 0.8375 0.95625 0.8375
v 0.8375 0.95625 0.1625
v 0.1625 0.95625 0.1625
v 0.1625 0.99375 0.8375
v 0.8375 0.99375 0.8375
v 0.8375 0.99375 0.1625
v 0.1625 0.99375 0.1625
v 0.16875 1 0.83125
v 0.83125 1 0.83125
v 0.83125 1 0.16875
v 0.16875 1 0.16875
v 0.24375 0.95 0.24375
v 0.75625 0.95 0.24375
v 0.75625 0.95 0.75625
v 0.24375 0.95 0.75625
v 0.25 0.95625 0.25
v 0.75 0.95625 0.25
v 0.75 0.95625 0.75
v 0.25 0.95625 0.75
v 0.25 0.99375 0.25
v 0.75 0.99375 0.25
v 0.75 0.99375 0.75
v 0.25 0.99375 0.75
v 0.24375 1 0.24375
v 0.75625 1 0.24375
v 0.75625 1 0.75625
v 0.24375 1 0.75625
v 0.16875 0.95 0.83125
v 0.83125 0.95 0.83125
v 0.83125 0.95 0.16875
v 0.16875 0.95 0.16875
v 0.24375 0.95 0.24375
v 0.75625 0.95 0.24375
v 0.75625 0.95 0.75625
v 0.24375 0.95 0.75625
v 0.16875 1 0.83125
v 0.83125 1 0.83125
v 0.83125 1 0.16875
v 0.16875 1 0.16875
v 0.24375 1 0.24375
v 0.75625 1 0.24375
v 0.75625 1 0.75625
v 0.24375 1 0.75625
vt 0.108142 0.019388
vt 0.210364 0.019388
vt 0.211328 0.020752
vt 0.107178 0.020752
vt 0.320056 0.063333
vt 0.422278 0.063333
vt 0.423242 0.064697
vt 0.319092 0.064697
vt 0.214099 0.019388
vt 0.316321 0.019388
vt 0.317285 0.020752
vt 0.213135 0.020752
vt 0.426013 0.063333
vt 0.528235 0.063333
vt 0.529199 0.064697
vt 0.425049 0.064697
vt 0.74292 0.151196
vt 0.84707 0.151196
vt 0.84707 0.156982
vt 0.74292 0.156982
vt 0.848877 0.151196
vt 0.953027 0.151196
vt 0.953027 0.156982
vt 0.848877 0.156982
vt 0.001221 0.143872
vt 0.105371 0.143872
vt 0.105371 0.149658
vt 0.001221 0.149658
vt 0.107178 0.143872
vt 0.211328 0.143872
vt 0.211328 0.149658
vt 0.107178 0.149658
vt 0.531006 0.063333
vt 0.635156 0.063333
vt 0.634192 0.064697
vt 0.53197 0.064697
vt 0.531006 0.031107
vt 0.635156 0.031107
vt 0.634192 0.032471
vt 0.53197 0.032471
vt 0.636963 0.063333
vt 0.741113 0.063333
vt 0.740149 0.064697
vt 0.637927 0.064697
vt 0.636963 0.031107
vt 0.741113 0.031107
vt 0.740149 0.032471
vt 0.637927 0.032471
vt 0.323486 0.039896
vt 0.402563 0.039896
vt 0.401599 0.04126
vt 0.324451 0.04126
vt 0.162354 0.034037
vt 0.241431 0.034037
vt 0.240466 0.0354
vt 0.163318 0.0354
vt 0.404053 0.039896
vt 0.48313 0.039896
vt 0.482166 0.04126
vt 0.405017 0.04126
vt 0.24292 0.034037
vt 0.321997 0.034037
vt 0.321033 0.0354
vt 0.243884 0.0354
vt 0.315674 0.121899
vt 0.392822 0.121899
vt 0.392822 0.127686
vt 0.315674 0.127686
vt 0.394287 0.121899
vt 0.471436 0.121899
vt 0.471436 0.127686
vt 0.394287 0.127686
vt 0.4729 0.121899
vt 0.550049 0.121899
vt 0.550049 0.127686
vt 0.4729 0.127686
vt 0.551514 0.121899
vt 0.628662 0.121899
vt 0.628662 0.127686
vt 0.551514 0.127686
vt 0.485583 0.039896
vt 0.562732 0.039896
vt 0.563696 0.04126
vt 0.484619 0.04126
vt 0.56615 0.039896
vt 0.643298 0.039896
vt 0.644263 0.04126
vt 0.565186 0.04126
vt 0.646716 0.039896
vt 0.723865 0.039896
vt 0.724829 0.04126
vt 0.645752 0.04126
vt 0.727283 0.039896
vt 0.804431 0.039896
vt 0.805396 0.04126
vt 0.726318 0.04126
vt 0.819897 0.883203
vt 0.83147 0.894775
vt 0.729248 0.894775
vt 0.74082 0.883203
vt 0.819897 0.883203
vt 0.729248 0.894775
vt 0.74082 0.883203
vt 0.729248 0.894775
vt 0.729248 0.792554
vt 0.74082 0.804126
vt 0.74082 0.883203
vt 0.729248 0.792554
vt 0.74082 0.804126
vt 0.729248 0.792554
vt 0.83147 0.792554
vt 0.819897 0.804126
vt 0.74082 0.804126
vt 0.83147 0.792554
vt 0.819897 0.883203
vt 0.819897 0.804126
vt 0.83147 0.792554
vt 0.83147 0.792554
vt 0.83147 0.894775
vt 0.819897 0.883203
vt 0.833252 0.792554
vt 0.935474 0.792554
vt 0.923901 0.804126
vt 0.833252 0.792554
vt 0.923901 0.804126
vt 0.844824 0.804126
vt 0.833252 0.894775
vt 0.833252 0.792554
vt 0.844824 0.804126
vt 0.833252 0.894775
vt 0.844824 0.804126
vt 0.844824 0.883203
vt 0.935474 0.894775
vt 0.833252 0.894775
vt 0.844824 0.883203
vt 0.935474 0.894775
vt 0.844824 0.883203
vt 0.923901 0.883203
vt 0.935474 0.894775
vt 0.923901 0.883203
vt 0.923901 0.804126
vt 0.923901 0.804126
vt 0.935474 0.792554
vt 0.935474 0.894775
vn 0 -0.707107 0.707107
vn 0.707107 -0.707107 0
vn 0 -0.707107 -0.707107
vn -0.707107 -0.707107 0
vn 0 0 1
vn 1 0 0
vn 0 0 -1
vn -1 0 0
vn 0 0.707107 0.707107
vn 0.707107 0.707107 0
vn 0 0.707107 -0.707107
vn -0.707107 0.707107 0
vn 0 -1 0
vn 0 1 0
f 249/549/47 250/550/47 254/551/47 253/552/47
f 250/553/48 251/554/48 255/555/48 254/556/48
f 251/557/49 252/558/49 256/559/49 255/560/49
f 252/561/50 249/562/50 253/563/50 256/564/50
f 253/565/51 254/566/51 258/567/51 257/568/51
f 254/569/52 255/570/52 259/571/52 258/572/52
f 255/573/53 256/574/53 260/575/53 259/576/53
f 256/577/54 253/578/54 257/579/54 260/580/54
f 257/581/55 258/582/55 262/583/55 261/584/55
f 258/585/56 259/586/56 263/587/56 262/588/56
f 259/589/57 260/590/57 264/591/57 263/592/57
f 260/593/58 257/594/58 261/595/58 264/596/58
f 265/597/47 266/598/47 270/599/47 269/600/47
f 266/601/50 267/602/50 271/603/50 270/604/50
f 267/605/49 268/606/49 272/607/49 271/608/49
f 268/609/48 265/610/48 269/611/48 272/612/48
f 269/613/51 270/614/51 274/615/51 273/616/51
f 270/617/54 271/618/54 275/619/54 274/620/54
f 271/621/53 272/622/53 276/623/53 275/624/53
f 272/625/52 269/626/52 273/627/52 276/628/52
f 273/629/55 274/630/55 278/631/55 277/632/55
f 274/633/58 275/634/58 279/635/58 278/636/58
f 275/637/57 276/638/57 280/639/57 279/640/57
f 276/641/56 273/642/56 277/643/56 280/644/56
f 286/645/59 283/646/59 282/647/59
f 287/648/59 286/649/59 282/650/59
f 287/651/59 282/652/59 281/653/59
f 288/654/59 287/655/59 281/656/59
f 288/657/59 281/658/59 284/659/59
f 285/660/59 288/661/59 284/662/59
f 286/663/59 285/664/59 284/665/59
f 284/666/59 283/667/59 286/668/59
f 290/669/60 291/670/60 294/671/60
f 290/672/60 294/673/60 295/674/60
f 289/675/60 290/676/60 295/677/60
f 289/678/60 295/679/60 296/680/60
f 292/681/60 289/682/60 296/683/60
f 292/684/60 296/685/60 293/686/60
f 292/687/60 293/688/60 294/689/60
f 294/690/60 291/691/60 292/692/60
o end_port_port_nuts
usemtl fluid_pipe
v 0.232108 0.928125 0.7775
v 0.209375 0.928125 0.764375
v 0.186642 0.928125 0.7775
v 0.186642 0.928125 0.80375
v 0.209375 0.928125 0.816875
v 0.232108 0.928125 0.80375
v 0.232108 0.95 0.7775
v 0.209375 0.95 0.764375
v 0.186642 0.95 0.7775
v 0.186642 0.95 0.80375
v 0.209375 0.95 0.816875
v 0.232108 0.95 0.80375
v 0.232108 0.928125 0.7775
v 0.209375 0.928125 0.764375
v 0.186642 0.928125 0.7775
v 0.186642 0.928125 0.80375
v 0.209375 0.928125 0.816875
v 0.232108 0.928125 0.80375
v 0.232108 0.95 0.7775
v 0.209375 0.95 0.764375
v 0.186642 0.95 0.7775
v 0.186642 0.95 0.80375
v 0.209375 0.95 0.816875
v 0.232108 0.95 0.80375
v 0.232108 0.928125 0.19625
v 0.209375 0.928125 0.183125
v 0.186642 0.928125 0.19625
v 0.186642 0.928125 0.2225
v 0.209375 0.928125 0.235625
v 0.232108 0.928125 0.2225
v 0.232108 0.95 0.19625
v 0.209375 0.95 0.183125
v 0.186642 0.95 0.19625
v 0.186642 0.95 0.2225
v 0.209375 0.95 0.235625
v 0.232108 0.95 0.2225
v 0.232108 0.928125 0.19625
v 0.209375 0.928125 0.183125
v 0.186642 0.928125 0.19625
v 0.186642 0.928125 0.2225
v 0.209375 0.928125 0.235625
v 0.232108 0.928125 0.2225
v 0.232108 0.95 0.19625
v 0.209375 0.95 0.183125
v 0.186642 0.95 0.19625
v 0.186642 0.95 0.2225
v 0.209375 0.95 0.235625
v 0.232108 0.95 0.2225
v 0.813358 0.928125 0.7775
v 0.790625 0.928125 0.764375
v 0.767892 0.928125 0.7775
v 0.767892 0.928125 0.80375
v 0.790625 0.928125 0.816875
v 0.813358 0.928125 0.80375
v 0.813358 0.95 0.7775
v 0.790625 0.95 0.764375
v 0.767892 0.95 0.7775
v 0.767892 0.95 0.80375
v 0.790625 0.95 0.816875
v 0.813358 0.95 0.80375
v 0.813358 0.928125 0.7775
v 0.790625 0.928125 0.764375
v 0.767892 0.928125 0.7775
v 0.767892 0.928125 0.80375
v 0.790625 0.928125 0.816875
v 0.813358 0.928125 0.80375
v 0.813358 0.95 0.7775
v 0.790625 0.95 0.764375
v 0.767892 0.95 0.7775
v 0.767892 0.95 0.80375
v 0.790625 0.95 0.816875
v 0.813358 0.95 0.80375
v 0.813358 0.928125 0.19625
v 0.790625 0.928125 0.183125
v 0.767892 0.928125 0.19625
v 0.767892 0.928125 0.2225
v 0.790625 0.928125 0.235625
v 0.813358 0.928125 0.2225
v 0.813358 0.95 0.19625
v 0.790625 0.95 0.183125
v 0.767892 0.95 0.19625
v 0.767892 0.95 0.2225
v 0.790625 0.95 0.235625
v 0.813358 0.95 0.2225
v 0.813358 0.928125 0.19625
v 0.790625 0.928125 0.183125
v 0.767892 0.928125 0.19625
v 0.767892 0.928125 0.2225
v 0.790625 0.928125 0.235625
v 0.813358 0.928125 0.2225
v 0.813358 0.95 0.19625
v 0.790625 0.95 0.183125
v 0.767892 0.95 0.19625
v 0.767892 0.95 0.2225
v 0.790625 0.95 0.235625
v 0.813358 0.95 0.2225
vt 0.937256 0.083295
vt 0.941306 0.083295
vt 0.941306 0.08667
vt 0.937256 0.08667
vt 0.943115 0.083295
vt 0.947166 0.083295
vt 0.947166 0.08667
vt 0.943115 0.08667
vt 0.948975 0.083295
vt 0.953025 0.083295
vt 0.953025 0.08667
vt 0.948975 0.08667
vt 0.398193 0.083295
vt 0.402244 0.083295
vt 0.402244 0.08667
vt 0.398193 0.08667
vt 0.954834 0.083295
vt 0.958884 0.083295
vt 0.958884 0.08667
vt 0.954834 0.08667
vt 0.960693 0.083295
vt 0.964744 0.083295
vt 0.964744 0.08667
vt 0.960693 0.08667
vt 0.760786 0.172518
vt 0.758761 0.176025
vt 0.754711 0.176025
vt 0.758761 0.16901
vt 0.760786 0.172518
vt 0.754711 0.176025
vt 0.754711 0.16901
vt 0.758761 0.16901
vt 0.754711 0.176025
vt 0.754711 0.176025
vt 0.752686 0.172518
vt 0.754711 0.16901
vt 0.764476 0.16901
vt 0.768527 0.16901
vt 0.770552 0.172518
vt 0.764476 0.16901
vt 0.770552 0.172518
vt 0.768527 0.176025
vt 0.764476 0.16901
vt 0.768527 0.176025
vt 0.764476 0.176025
vt 0.764476 0.176025
vt 0.762451 0.172518
vt 0.764476 0.16901
vt 0.966553 0.083295
vt 0.970603 0.083295
vt 0.970603 0.08667
vt 0.966553 0.08667
vt 0.404053 0.083295
vt 0.408103 0.083295
vt 0.408103 0.08667
vt 0.404053 0.08667
vt 0.972412 0.083295
vt 0.976462 0.083295
vt 0.976462 0.08667
vt 0.972412 0.08667
vt 0.978271 0.083295
vt 0.982322 0.083295
vt 0.982322 0.08667
vt 0.978271 0.08667
vt 0.984131 0.083295
vt 0.988181 0.083295
vt 0.988181 0.08667
vt 0.984131 0.08667
vt 0.98999 0.083295
vt 0.994041 0.083295
vt 0.994041 0.08667
vt 0.98999 0.08667
vt 0.780317 0.172518
vt 0.778292 0.176025
vt 0.774242 0.176025
vt 0.778292 0.16901
vt 0.780317 0.172518
vt 0.774242 0.176025
vt 0.774242 0.16901
vt 0.778292 0.16901
vt 0.774242 0.176025
vt 0.774242 0.176025
vt 0.772217 0.172518
vt 0.774242 0.16901
vt 0.784008 0.16901
vt 0.788058 0.16901
vt 0.790083 0.172518
vt 0.784008 0.16901
vt 0.790083 0.172518
vt 0.788058 0.176025
vt 0.784008 0.16901
vt 0.788058 0.176025
vt 0.784008 0.176025
vt 0.784008 0.176025
vt 0.781982 0.172518
vt 0.784008 0.16901
vt 0.001221 0.077924
vt 0.005271 0.077924
vt 0.005271 0.081299
vt 0.001221 0.081299
vt 0.00708 0.077924
vt 0.01113 0.077924
vt 0.01113 0.081299
vt 0.00708 0.081299
vt 0.012939 0.077924
vt 0.01699 0.077924
vt 0.01699 0.081299
vt 0.012939 0.081299
vt 0.018799 0.077924
vt 0.022849 0.077924
vt 0.022849 0.081299
vt 0.018799 0.081299
vt 0.409912 0.083295
vt 0.413962 0.083295
vt 0.413962 0.08667
vt 0.409912 0.08667
vt 0.024658 0.077924
vt 0.028708 0.077924
vt 0.028708 0.081299
vt 0.024658 0.081299
vt 0.799849 0.172518
vt 0.797823 0.176025
vt 0.793773 0.176025
vt 0.797823 0.16901
vt 0.799849 0.172518
vt 0.793773 0.176025
vt 0.793773 0.16901
vt 0.797823 0.16901
vt 0.793773 0.176025
vt 0.793773 0.176025
vt 0.791748 0.172518
vt 0.793773 0.16901
vt 0.803539 0.16901
vt 0.807589 0.16901
vt 0.809614 0.172518
vt 0.803539 0.16901
vt 0.809614 0.172518
vt 0.807589 0.176025
vt 0.803539 0.16901
vt 0.807589 0.176025
vt 0.803539 0.176025
vt 0.803539 0.176025
vt 0.801514 0.172518
vt 0.803539 0.16901
vt 0.415771 0.083295
vt 0.419822 0.083295
vt 0.419822 0.08667
vt 0.415771 0.08667
vt 0.030518 0.077924
vt 0.034568 0.077924
vt 0.034568 0.081299
vt 0.030518 0.081299
vt 0.036377 0.077924
vt 0.040427 0.077924
vt 0.040427 0.081299
vt 0.036377 0.081299
vt 0.042236 0.077924
vt 0.046287 0.077924
vt 0.046287 0.081299
vt 0.042236 0.081299
vt 0.048096 0.077924
vt 0.052146 0.077924
vt 0.052146 0.081299
vt 0.048096 0.081299
vt 0.053955 0.077924
vt 0.058005 0.077924
vt 0.058005 0.081299
vt 0.053955 0.081299
vt 0.81938 0.172518
vt 0.817355 0.176025
vt 0.813304 0.176025
vt 0.817355 0.16901
vt 0.81938 0.172518
vt 0.813304 0.176025
vt 0.813304 0.16901
vt 0.817355 0.16901
vt 0.813304 0.176025
vt 0.813304 0.176025
vt 0.811279 0.172518
vt 0.813304 0.16901
vt 0.82307 0.16901
vt 0.82712 0.16901
vt 0.829146 0.172518
vt 0.82307 0.16901
vt 0.829146 0.172518
vt 0.82712 0.176025
vt 0.82307 0.16901
vt 0.82712 0.176025
vt 0.82307 0.176025
vt 0.82307 0.176025
vt 0.821045 0.172518
vt 0.82307 0.16901
vn 0.5 0 -0.866025
vn -0.5 0 -0.866025
vn -1 0 0
vn -0.5 0 0.866025
vn 0.5 0 0.866025
vn 1 0 0
vn 0 -1 0
vn 0 1 0
f 297/693/61 298/694/61 304/695/61 303/696/61
f 298/697/62 299/698/62 305/699/62 304/700/62
f 299/701/63 300/702/63 306/703/63 305/704/63
f 300/705/64 301/706/64 307/707/64 306/708/64
f 301/709/65 302/710/65 308/711/65 307/712/65
f 302/713/66 297/714/66 303/715/66 308/716/66
f 310/717/67 309/718/67 314/719/67
f 311/720/67 310/721/67 314/722/67
f 312/723/67 311/724/67 314/725/67
f 314/726/67 313/727/67 312/728/67
f 320/729/68 315/730/68 316/731/68
f 320/732/68 316/733/68 317/734/68
f 320/735/68 317/736/68 318/737/68
f 318/738/68 319/739/68 320/740/68
f 321/741/61 322/742/61 328/743/61 327/744/61
f 322/745/62 323/746/62 329/747/62 328/748/62
f 323/749/63 324/750/63 330/751/63 329/752/63
f 324/753/64 325/754/64 331/755/64 330/756/64
f 325/757/65 326/758/65 332/759/65 331/760/65
f 326/761/66 321/762/66 327/763/66 332/764/66
f 334/765/67 333/766/67 338/767/67
f 335/768/67 334/769/67 338/770/67
f 336/771/67 335/772/67 338/773/67
f 338/774/67 337/775/67 336/776/67
f 344/777/68 339/778/68 340/779/68
f 344/780/68 340/781/68 341/782/68
f 344/783/68 341/784/68 342/785/68
f 342/786/68 343/787/68 344/788/68
f 345/789/61 346/790/61 352/791/61 351/792/61
f 346/793/62 347/794/62 353/795/62 352/796/62
f 347/797/63 348/798/63 354/799/63 353/800/63
f 348/801/64 349/802/64 355/803/64 354/804/64
f 349/805/65 350/806/65 356/807/65 355/808/65
f 350/809/66 345/810/66 351/811/66 356/812/66
f 358/813/67 357/814/67 362/815/67
f 359/816/67 358/817/67 362/818/67
f 360/819/67 359/820/67 362/821/67
f 362/822/67 361/823/67 360/824/67
f 368/825/68 363/826/68 364/827/68
f 368/828/68 364/829/68 365/830/68
f 368/831/68 365/832/68 366/833/68
f 366/834/68 367/835/68 368/836/68
f 369/837/61 370/838/61 376/839/61 375/840/61
f 370/841/62 371/842/62 377/843/62 376/844/62
f 371/845/63 372/846/63 378/847/63 377/848/63
f 372/849/64 373/850/64 379/851/64 378/852/64
f 373/853/65 374/854/65 380/855/65 379/856/65
f 374/857/66 369/858/66 375/859/66 380/860/66
f 382/861/67 381/862/67 386/863/67
f 383/864/67 382/865/67 386/866/67
f 384/867/67 383/868/67 386/869/67
f 386/870/67 385/871/67 384/872/67
f 392/873/68 387/874/68 388/875/68
f 392/876/68 388/877/68 389/878/68
f 392/879/68 389/880/68 390/881/68
f 390/882/68 391/883/68 392/884/68
