# AFL Fluid Pipe V2 half_port_north (glass), generated by tools/build-fluid-pipe-v2.mjs
mtllib fluid_pipe.mtl
o half_port_panes
usemtl fluid_pipe
v 0.740625 0.33125 0.5
v 0.740625 0.66875 0.5
v 0.740625 0.66875 0.05
v 0.740625 0.33125 0.05
v 0.725 0.33125 0.5
v 0.725 0.66875 0.5
v 0.725 0.66875 0.05
v 0.725 0.33125 0.05
v 0.66875 0.259375 0.5
v 0.33125 0.259375 0.5
v 0.33125 0.259375 0.05
v 0.66875 0.259375 0.05
v 0.66875 0.275 0.5
v 0.33125 0.275 0.5
v 0.33125 0.275 0.05
v 0.66875 0.275 0.05
v 0.275 0.33125 0.5
v 0.275 0.66875 0.5
v 0.275 0.66875 0.05
v 0.275 0.33125 0.05
v 0.259375 0.33125 0.5
v 0.259375 0.66875 0.5
v 0.259375 0.66875 0.05
v 0.259375 0.33125 0.05
v 0.66875 0.725 0.5
v 0.33125 0.725 0.5
v 0.33125 0.725 0.05
v 0.66875 0.725 0.05
v 0.66875 0.740625 0.5
v 0.33125 0.740625 0.5
v 0.33125 0.740625 0.05
v 0.66875 0.740625 0.05
vt 0.672217 0.438403
vt 0.672217 0.490479
vt 0.602783 0.490479
vt 0.602783 0.438403
vt 0.674072 0.490479
vt 0.674072 0.438403
vt 0.743506 0.438403
vt 0.743506 0.490479
vt 0.745361 0.490479
vt 0.745361 0.438403
vt 0.814795 0.438403
vt 0.814795 0.490479
vt 0.886084 0.438403
vt 0.886084 0.490479
vt 0.81665 0.490479
vt 0.81665 0.438403
vt 0.957373 0.438403
vt 0.957373 0.490479
vt 0.887939 0.490479
vt 0.887939 0.438403
vt 0.001221 0.436768
vt 0.001221 0.384692
vt 0.070654 0.384692
vt 0.070654 0.436768
vt 0.07251 0.436768
vt 0.07251 0.384692
vt 0.141943 0.384692
vt 0.141943 0.436768
vt 0.213232 0.384692
vt 0.213232 0.436768
vt 0.143799 0.436768
vt 0.143799 0.384692
vn 1 0 0
vn -1 0 0
vn 0 -1 0
vn 0 1 0
f 4/1/1 3/2/1 2/3/1 1/4/1
f 5/5/2 6/6/2 7/7/2 8/8/2
f 9/9/3 10/10/3 11/11/3 12/12/3
f 16/13/4 15/14/4 14/15/4 13/16/4
f 20/17/1 19/18/1 18/19/1 17/20/1
f 21/21/2 22/22/2 23/23/2 24/24/2
f 25/25/3 26/26/3 27/27/3 28/28/3
f 32/29/4 31/30/4 30/31/4 29/32/4
