# AFL Fluid Pipe V2 half_pipe_east (glass), generated by tools/build-fluid-pipe-v2.mjs
mtllib fluid_pipe.mtl
o half_pipe_panes
usemtl fluid_pipe
v 0.5 0.33125 0.740625
v 0.5 0.66875 0.740625
v 1 0.66875 0.740625
v 1 0.33125 0.740625
v 0.5 0.33125 0.725
v 0.5 0.66875 0.725
v 1 0.66875 0.725
v 1 0.33125 0.725
v 0.5 0.259375 0.66875
v 0.5 0.259375 0.33125
v 1 0.259375 0.33125
v 1 0.259375 0.66875
v 0.5 0.275 0.66875
v 0.5 0.275 0.33125
v 1 0.275 0.33125
v 1 0.275 0.66875
v 0.5 0.33125 0.275
v 0.5 0.66875 0.275
v 1 0.66875 0.275
v 1 0.33125 0.275
v 0.5 0.33125 0.259375
v 0.5 0.66875 0.259375
v 1 0.66875 0.259375
v 1 0.33125 0.259375
v 0.5 0.725 0.66875
v 0.5 0.725 0.33125
v 1 0.725 0.33125
v 1 0.725 0.66875
v 0.5 0.740625 0.66875
v 0.5 0.740625 0.33125
v 1 0.740625 0.33125
v 1 0.740625 0.66875
vt 0.408447 0.492114
vt 0.408447 0.544189
vt 0.331299 0.544189
vt 0.331299 0.492114
vt 0.409912 0.544189
vt 0.409912 0.492114
vt 0.487061 0.492114
vt 0.487061 0.544189
vt 0.488525 0.544189
vt 0.488525 0.492114
vt 0.565674 0.492114
vt 0.565674 0.544189
vt 0.644287 0.492114
vt 0.644287 0.544189
vt 0.567139 0.544189
vt 0.567139 0.492114
vt 0.7229 0.492114
vt 0.7229 0.544189
vt 0.645752 0.544189
vt 0.645752 0.492114
vt 0.724365 0.544189
vt 0.724365 0.492114
vt 0.801514 0.492114
vt 0.801514 0.544189
vt 0.802979 0.544189
vt 0.802979 0.492114
vt 0.880127 0.492114
vt 0.880127 0.544189
vt 0.95874 0.492114
vt 0.95874 0.544189
vt 0.881592 0.544189
vt 0.881592 0.492114
vn 0 0 1
vn 0 0 -1
vn 0 -1 0
vn 0 1 0
f 4/1/1 3/2/1 2/3/1 1/4/1
f 5/5/2 6/6/2 7/7/2 8/8/2
f 9/9/3 10/10/3 11/11/3 12/12/3
f 16/13/4 15/14/4 14/15/4 13/16/4
f 20/17/1 19/18/1 18/19/1 17/20/1
f 21/21/2 22/22/2 23/23/2 24/24/2
f 25/25/3 26/26/3 27/27/3 28/28/3
f 32/29/4 31/30/4 30/31/4 29/32/4
