# AFL Fluid Pipe V2 half_pipe_down, generated by tools/build-fluid-pipe-v2.mjs
mtllib fluid_pipe.mtl
o half_pipe_rails
usemtl fluid_pipe
v 0.66875 0.5 0.66875
v 0.75 0.5 0.66875
v 0.75 0.5 0.73125
v 0.73125 0.5 0.75
v 0.66875 0.5 0.75
v 0.66875 0 0.66875
v 0.75 0 0.66875
v 0.75 0 0.73125
v 0.73125 0 0.75
v 0.66875 0 0.75
v 0.66875 0.5 0.66875
v 0.75 0.5 0.66875
v 0.75 0.5 0.73125
v 0.73125 0.5 0.75
v 0.66875 0.5 0.75
v 0.66875 0 0.66875
v 0.75 0 0.66875
v 0.75 0 0.73125
v 0.73125 0 0.75
v 0.66875 0 0.75
v 0.66875 0.5 0.25
v 0.73125 0.5 0.25
v 0.75 0.5 0.26875
v 0.75 0.5 0.33125
v 0.66875 0.5 0.33125
v 0.66875 0 0.25
v 0.73125 0 0.25
v 0.75 0 0.26875
v 0.75 0 0.33125
v 0.66875 0 0.33125
v 0.66875 0.5 0.25
v 0.73125 0.5 0.25
v 0.75 0.5 0.26875
v 0.75 0.5 0.33125
v 0.66875 0.5 0.33125
v 0.66875 0 0.25
v 0.73125 0 0.25
v 0.75 0 0.26875
v 0.75 0 0.33125
v 0.66875 0 0.33125
v 0.33125 0.5 0.75
v 0.26875 0.5 0.75
v 0.25 0.5 0.73125
v 0.25 0.5 0.66875
v 0.33125 0.5 0.66875
v 0.33125 0 0.75
v 0.26875 0 0.75
v 0.25 0 0.73125
v 0.25 0 0.66875
v 0.33125 0 0.66875
v 0.33125 0.5 0.75
v 0.26875 0.5 0.75
v 0.25 0.5 0.73125
v 0.25 0.5 0.66875
v 0.33125 0.5 0.66875
v 0.33125 0 0.75
v 0.26875 0 0.75
v 0.25 0 0.73125
v 0.25 0 0.66875
v 0.33125 0 0.66875
v 0.33125 0.5 0.33125
v 0.25 0.5 0.33125
v 0.25 0.5 0.26875
v 0.26875 0.5 0.25
v 0.33125 0.5 0.25
v 0.33125 0 0.33125
v 0.25 0 0.33125
v 0.25 0 0.26875
v 0.26875 0 0.25
v 0.33125 0 0.25
v 0.33125 0.5 0.33125
v 0.25 0.5 0.33125
v 0.25 0.5 0.26875
v 0.26875 0.5 0.25
v 0.33125 0.5 0.25
v 0.33125 0 0.33125
v 0.25 0 0.33125
v 0.25 0 0.26875
v 0.26875 0 0.25
v 0.33125 0 0.25
vt 0.413818 0.332764
vt 0.413818 0.320227
vt 0.490967 0.320227
vt 0.490967 0.332764
vt 0.911377 0.209717
vt 0.911377 0.200073
vt 0.988525 0.200073
vt 0.988525 0.209717
vt 0.831299 0.098389
vt 0.831299 0.094297
vt 0.908447 0.094297
vt 0.908447 0.098389
vt 0.001221 0.198486
vt 0.001221 0.188843
vt 0.078369 0.188843
vt 0.078369 0.198486
vt 0.492432 0.332764
vt 0.492432 0.320227
vt 0.56958 0.320227
vt 0.56958 0.332764
vt 0.666101 0.291907
vt 0.666101 0.304443
vt 0.653564 0.304443
vt 0.656458 0.291907
vt 0.666101 0.291907
vt 0.653564 0.304443
vt 0.653564 0.304443
vt 0.653564 0.2948
vt 0.656458 0.291907
vt 0.667725 0.291907
vt 0.680261 0.291907
vt 0.680261 0.304443
vt 0.667725 0.291907
vt 0.680261 0.304443
vt 0.670618 0.304443
vt 0.670618 0.304443
vt 0.667725 0.30155
vt 0.667725 0.291907
vt 0.079834 0.198486
vt 0.079834 0.188843
vt 0.156982 0.188843
vt 0.156982 0.198486
vt 0.909912 0.098389
vt 0.909912 0.094297
vt 0.987061 0.094297
vt 0.987061 0.098389
vt 0.158447 0.198486
vt 0.158447 0.188843
vt 0.235596 0.188843
vt 0.235596 0.198486
vt 0.571045 0.332764
vt 0.571045 0.320227
vt 0.648193 0.320227
vt 0.648193 0.332764
vt 0.649658 0.332764
vt 0.649658 0.320227
vt 0.726807 0.320227
vt 0.726807 0.332764
vt 0.694421 0.2948
vt 0.694421 0.304443
vt 0.681885 0.304443
vt 0.691528 0.291907
vt 0.694421 0.2948
vt 0.681885 0.304443
vt 0.681885 0.304443
vt 0.681885 0.291907
vt 0.691528 0.291907
vt 0.696045 0.291907
vt 0.708582 0.291907
vt 0.708582 0.30155
vt 0.696045 0.291907
vt 0.708582 0.30155
vt 0.705688 0.304443
vt 0.705688 0.304443
vt 0.696045 0.304443
vt 0.696045 0.291907
vt 0.237061 0.198486
vt 0.237061 0.188843
vt 0.314209 0.188843
vt 0.314209 0.198486
vt 0.001221 0.092529
vt 0.001221 0.088438
vt 0.078369 0.088438
vt 0.078369 0.092529
vt 0.315674 0.198486
vt 0.315674 0.188843
vt 0.392822 0.188843
vt 0.392822 0.198486
vt 0.728271 0.332764
vt 0.728271 0.320227
vt 0.80542 0.320227
vt 0.80542 0.332764
vt 0.806885 0.332764
vt 0.806885 0.320227
vt 0.884033 0.320227
vt 0.884033 0.332764
vt 0.710205 0.30155
vt 0.710205 0.291907
vt 0.722742 0.291907
vt 0.713098 0.304443
vt 0.710205 0.30155
vt 0.722742 0.291907
vt 0.722742 0.291907
vt 0.722742 0.304443
vt 0.713098 0.304443
vt 0.736902 0.304443
vt 0.724365 0.304443
vt 0.724365 0.2948
vt 0.736902 0.304443
vt 0.724365 0.2948
vt 0.727258 0.291907
vt 0.727258 0.291907
vt 0.736902 0.291907
vt 0.736902 0.304443
vt 0.885498 0.332764
vt 0.885498 0.320227
vt 0.962646 0.320227
vt 0.962646 0.332764
vt 0.394287 0.198486
vt 0.394287 0.188843
vt 0.471436 0.188843
vt 0.471436 0.198486
vt 0.079834 0.092529
vt 0.079834 0.088438
vt 0.156982 0.088438
vt 0.156982 0.092529
vt 0.4729 0.198486
vt 0.4729 0.188843
vt 0.550049 0.188843
vt 0.550049 0.198486
vt 0.001221 0.318604
vt 0.001221 0.306067
vt 0.078369 0.306067
vt 0.078369 0.318604
vt 0.738525 0.304443
vt 0.738525 0.291907
vt 0.751062 0.291907
vt 0.748169 0.304443
vt 0.738525 0.304443
vt 0.751062 0.291907
vt 0.751062 0.291907
vt 0.751062 0.30155
vt 0.748169 0.304443
vt 0.765222 0.304443
vt 0.752686 0.304443
vt 0.752686 0.291907
vt 0.765222 0.304443
vt 0.752686 0.291907
vt 0.762329 0.291907
vt 0.762329 0.291907
vt 0.765222 0.2948
vt 0.765222 0.304443
vn 0 0 -1
vn 1 0 0
vn 0.707107 0 0.707107
vn 0 0 1
vn -1 0 0
vn 0 1 0
vn 0 -1 0
vn 0.707107 0 -0.707107
vn -0.707107 0 0.707107
vn -0.707107 0 -0.707107
f 1/1/1 2/2/1 7/3/1 6/4/1
f 2/5/2 3/6/2 8/7/2 7/8/2
f 3/9/3 4/10/3 9/11/3 8/12/3
f 4/13/4 5/14/4 10/15/4 9/16/4
f 5/17/5 1/18/5 6/19/5 10/20/5
f 12/21/6 11/22/6 15/23/6
f 13/24/6 12/25/6 15/26/6
f 15/27/6 14/28/6 13/29/6
f 20/30/7 16/31/7 17/32/7
f 20/33/7 17/34/7 18/35/7
f 18/36/7 19/37/7 20/38/7
f 21/39/1 22/40/1 27/41/1 26/42/1
f 22/43/8 23/44/8 28/45/8 27/46/8
f 23/47/2 24/48/2 29/49/2 28/50/2
f 24/51/4 25/52/4 30/53/4 29/54/4
f 25/55/5 21/56/5 26/57/5 30/58/5
f 32/59/6 31/60/6 35/61/6
f 33/62/6 32/63/6 35/64/6
f 35/65/6 34/66/6 33/67/6
f 40/68/7 36/69/7 37/70/7
f 40/71/7 37/72/7 38/73/7
f 38/74/7 39/75/7 40/76/7
f 41/77/4 42/78/4 47/79/4 46/80/4
f 42/81/9 43/82/9 48/83/9 47/84/9
f 43/85/5 44/86/5 49/87/5 48/88/5
f 44/89/1 45/90/1 50/91/1 49/92/1
f 45/93/2 41/94/2 46/95/2 50/96/2
f 52/97/6 51/98/6 55/99/6
f 53/100/6 52/101/6 55/102/6
f 55/103/6 54/104/6 53/105/6
f 60/106/7 56/107/7 57/108/7
f 60/109/7 57/110/7 58/111/7
f 58/112/7 59/113/7 60/114/7
f 61/115/4 62/116/4 67/117/4 66/118/4
f 62/119/5 63/120/5 68/121/5 67/122/5
f 63/123/10 64/124/10 69/125/10 68/126/10
f 64/127/1 65/128/1 70/129/1 69/130/1
f 65/131/2 61/132/2 66/133/2 70/134/2
f 72/135/6 71/136/6 75/137/6
f 73/138/6 72/139/6 75/140/6
f 75/141/6 74/142/6 73/143/6
f 80/144/7 76/145/7 77/146/7
f 80/147/7 77/148/7 78/149/7
f 78/150/7 79/151/7 80/152/7
