# AFL Fluid Pipe V2 half_port_north, generated by tools/build-fluid-pipe-v2.mjs
mtllib fluid_pipe.mtl
o half_port_rails
usemtl fluid_pipe
v 0.66875 0.33125 0.5
v 0.75 0.33125 0.5
v 0.75 0.26875 0.5
v 0.73125 0.25 0.5
v 0.66875 0.25 0.5
v 0.66875 0.33125 0.05
v 0.75 0.33125 0.05
v 0.75 0.26875 0.05
v 0.73125 0.25 0.05
v 0.66875 0.25 0.05
v 0.66875 0.33125 0.5
v 0.75 0.33125 0.5
v 0.75 0.26875 0.5
v 0.73125 0.25 0.5
v 0.66875 0.25 0.5
v 0.66875 0.33125 0.05
v 0.75 0.33125 0.05
v 0.75 0.26875 0.05
v 0.73125 0.25 0.05
v 0.66875 0.25 0.05
v 0.66875 0.75 0.5
v 0.73125 0.75 0.5
v 0.75 0.73125 0.5
v 0.75 0.66875 0.5
v 0.66875 0.66875 0.5
v 0.66875 0.75 0.05
v 0.73125 0.75 0.05
v 0.75 0.73125 0.05
v 0.75 0.66875 0.05
v 0.66875 0.66875 0.05
v 0.66875 0.75 0.5
v 0.73125 0.75 0.5
v 0.75 0.73125 0.5
v 0.75 0.66875 0.5
v 0.66875 0.66875 0.5
v 0.66875 0.75 0.05
v 0.73125 0.75 0.05
v 0.75 0.73125 0.05
v 0.75 0.66875 0.05
v 0.66875 0.66875 0.05
v 0.33125 0.25 0.5
v 0.26875 0.25 0.5
v 0.25 0.26875 0.5
v 0.25 0.33125 0.5
v 0.33125 0.33125 0.5
v 0.33125 0.25 0.05
v 0.26875 0.25 0.05
v 0.25 0.26875 0.05
v 0.25 0.33125 0.05
v 0.33125 0.33125 0.05
v 0.33125 0.25 0.5
v 0.26875 0.25 0.5
v 0.25 0.26875 0.5
v 0.25 0.33125 0.5
v 0.33125 0.33125 0.5
v 0.33125 0.25 0.05
v 0.26875 0.25 0.05
v 0.25 0.26875 0.05
v 0.25 0.33125 0.05
v 0.33125 0.33125 0.05
v 0.33125 0.66875 0.5
v 0.25 0.66875 0.5
v 0.25 0.73125 0.5
v 0.26875 0.75 0.5
v 0.33125 0.75 0.5
v 0.33125 0.66875 0.05
v 0.25 0.66875 0.05
v 0.25 0.73125 0.05
v 0.26875 0.75 0.05
v 0.33125 0.75 0.05
v 0.33125 0.66875 0.5
v 0.25 0.66875 0.5
v 0.25 0.73125 0.5
v 0.26875 0.75 0.5
v 0.33125 0.75 0.5
v 0.33125 0.66875 0.05
v 0.25 0.66875 0.05
v 0.25 0.73125 0.05
v 0.26875 0.75 0.05
v 0.33125 0.75 0.05
vt 0.681396 0.318604
vt 0.681396 0.306067
vt 0.75083 0.306067
vt 0.75083 0.318604
vt 0.226807 0.187256
vt 0.226807 0.177612
vt 0.29624 0.177612
vt 0.29624 0.187256
vt 0.459229 0.092529
vt 0.459229 0.088438
vt 0.528662 0.088438
vt 0.528662 0.092529
vt 0.298096 0.187256
vt 0.298096 0.177612
vt 0.367529 0.177612
vt 0.367529 0.187256
vt 0.752686 0.318604
vt 0.752686 0.306067
vt 0.822119 0.306067
vt 0.822119 0.318604
vt 0.779382 0.291907
vt 0.779382 0.304443
vt 0.766846 0.304443
vt 0.769739 0.291907
vt 0.779382 0.291907
vt 0.766846 0.304443
vt 0.766846 0.304443
vt 0.766846 0.2948
vt 0.769739 0.291907
vt 0.781006 0.291907
vt 0.793542 0.291907
vt 0.793542 0.304443
vt 0.781006 0.291907
vt 0.793542 0.304443
vt 0.783899 0.304443
vt 0.783899 0.304443
vt 0.781006 0.30155
vt 0.781006 0.291907
vt 0.369385 0.187256
vt 0.369385 0.177612
vt 0.438818 0.177612
vt 0.438818 0.187256
vt 0.530518 0.092529
vt 0.530518 0.088438
vt 0.599951 0.088438
vt 0.599951 0.092529
vt 0.440674 0.187256
vt 0.440674 0.177612
vt 0.510107 0.177612
vt 0.510107 0.187256
vt 0.823975 0.318604
vt 0.823975 0.306067
vt 0.893408 0.306067
vt 0.893408 0.318604
vt 0.895264 0.318604
vt 0.895264 0.306067
vt 0.964697 0.306067
vt 0.964697 0.318604
vt 0.807703 0.2948
vt 0.807703 0.304443
vt 0.795166 0.304443
vt 0.80481 0.291907
vt 0.807703 0.2948
vt 0.795166 0.304443
vt 0.795166 0.304443
vt 0.795166 0.291907
vt 0.80481 0.291907
vt 0.809326 0.291907
vt 0.821863 0.291907
vt 0.821863 0.30155
vt 0.809326 0.291907
vt 0.821863 0.30155
vt 0.81897 0.304443
vt 0.81897 0.304443
vt 0.809326 0.304443
vt 0.809326 0.291907
vt 0.511963 0.187256
vt 0.511963 0.177612
vt 0.581396 0.177612
vt 0.581396 0.187256
vt 0.601807 0.092529
vt 0.601807 0.088438
vt 0.67124 0.088438
vt 0.67124 0.092529
vt 0.583252 0.187256
vt 0.583252 0.177612
vt 0.652686 0.177612
vt 0.652686 0.187256
vt 0.001221 0.304443
vt 0.001221 0.291907
vt 0.070654 0.291907
vt 0.070654 0.304443
vt 0.07251 0.304443
vt 0.07251 0.291907
vt 0.141943 0.291907
vt 0.141943 0.304443
vt 0.823486 0.30155
vt 0.823486 0.291907
vt 0.836023 0.291907
vt 0.826379 0.304443
vt 0.823486 0.30155
vt 0.836023 0.291907
vt 0.836023 0.291907
vt 0.836023 0.304443
vt 0.826379 0.304443
vt 0.850183 0.304443
vt 0.837646 0.304443
vt 0.837646 0.2948
vt 0.850183 0.304443
vt 0.837646 0.2948
vt 0.84054 0.291907
vt 0.84054 0.291907
vt 0.850183 0.291907
vt 0.850183 0.304443
vt 0.143799 0.304443
vt 0.143799 0.291907
vt 0.213232 0.291907
vt 0.213232 0.304443
vt 0.654541 0.187256
vt 0.654541 0.177612
vt 0.723975 0.177612
vt 0.723975 0.187256
vt 0.673096 0.092529
vt 0.673096 0.088438
vt 0.742529 0.088438
vt 0.742529 0.092529
vt 0.72583 0.187256
vt 0.72583 0.177612
vt 0.795264 0.177612
vt 0.795264 0.187256
vt 0.215088 0.304443
vt 0.215088 0.291907
vt 0.284521 0.291907
vt 0.284521 0.304443
vt 0.851807 0.304443
vt 0.851807 0.291907
vt 0.864343 0.291907
vt 0.86145 0.304443
vt 0.851807 0.304443
vt 0.864343 0.291907
vt 0.864343 0.291907
vt 0.864343 0.30155
vt 0.86145 0.304443
vt 0.878503 0.304443
vt 0.865967 0.304443
vt 0.865967 0.291907
vt 0.878503 0.304443
vt 0.865967 0.291907
vt 0.87561 0.291907
vt 0.87561 0.291907
vt 0.878503 0.2948
vt 0.878503 0.304443
vn 0 1 0
vn 1 0 0
vn 0.707107 -0.707107 0
vn 0 -1 0
vn -1 0 0
vn 0 0 1
vn 0 0 -1
vn 0.707107 0.707107 0
vn -0.707107 -0.707107 0
vn -0.707107 0.707107 0
f 1/1/1 2/2/1 7/3/1 6/4/1
f 2/5/2 3/6/2 8/7/2 7/8/2
f 3/9/3 4/10/3 9/11/3 8/12/3
f 4/13/4 5/14/4 10/15/4 9/16/4
f 5/17/5 1/18/5 6/19/5 10/20/5
f 12/21/6 11/22/6 15/23/6
f 13/24/6 12/25/6 15/26/6
f 15/27/6 14/28/6 13/29/6
f 20/30/7 16/31/7 17/32/7
f 20/33/7 17/34/7 18/35/7
f 18/36/7 19/37/7 20/38/7
f 21/39/1 22/40/1 27/41/1 26/42/1
f 22/43/8 23/44/8 28/45/8 27/46/8
f 23/47/2 24/48/2 29/49/2 28/50/2
f 24/51/4 25/52/4 30/53/4 29/54/4
f 25/55/5 21/56/5 26/57/5 30/58/5
f 32/59/6 31/60/6 35/61/6
f 33/62/6 32/63/6 35/64/6
f 35/65/6 34/66/6 33/67/6
f 40/68/7 36/69/7 37/70/7
f 40/71/7 37/72/7 38/73/7
f 38/74/7 39/75/7 40/76/7
f 41/77/4 42/78/4 47/79/4 46/80/4
f 42/81/9 43/82/9 48/83/9 47/84/9
f 43/85/5 44/86/5 49/87/5 48/88/5
f 44/89/1 45/90/1 50/91/1 49/92/1
f 45/93/2 41/94/2 46/95/2 50/96/2
f 52/97/6 51/98/6 55/99/6
f 53/100/6 52/101/6 55/102/6
f 55/103/6 54/104/6 53/105/6
f 60/106/7 56/107/7 57/108/7
f 60/109/7 57/110/7 58/111/7
f 58/112/7 59/113/7 60/114/7
f 61/115/4 62/116/4 67/117/4 66/118/4
f 62/119/5 63/120/5 68/121/5 67/122/5
f 63/123/10 64/124/10 69/125/10 68/126/10
f 64/127/1 65/128/1 70/129/1 69/130/1
f 65/131/2 61/132/2 66/133/2 70/134/2
f 72/135/6 71/136/6 75/137/6
f 73/138/6 72/139/6 75/140/6
f 75/141/6 74/142/6 73/143/6
f 80/144/7 76/145/7 77/146/7
f 80/147/7 77/148/7 78/149/7
f 78/150/7 79/151/7 80/152/7
o half_port_port
usemtl fluid_pipe
v 0.83125 0.16875 0.05
v 0.16875 0.16875 0.05
v 0.16875 0.83125 0.05
v 0.83125 0.83125 0.05
v 0.8375 0.1625 0.04375
v 0.1625 0.1625 0.04375
v 0.1625 0.8375 0.04375
v 0.8375 0.8375 0.04375
v 0.8375 0.1625 0.00625
v 0.1625 0.1625 0.00625
v 0.1625 0.8375 0.00625
v 0.8375 0.8375 0.00625
v 0.83125 0.16875 0
v 0.16875 0.16875 0
v 0.16875 0.83125 0
v 0.83125 0.83125 0
v 0.75625 0.75625 0.05
v 0.24375 0.75625 0.05
v 0.24375 0.24375 0.05
v 0.75625 0.24375 0.05
v 0.75 0.75 0.04375
v 0.25 0.75 0.04375
v 0.25 0.25 0.04375
v 0.75 0.25 0.04375
v 0.75 0.75 0.00625
v 0.25 0.75 0.00625
v 0.25 0.25 0.00625
v 0.75 0.25 0.00625
v 0.75625 0.75625 0
v 0.24375 0.75625 0
v 0.24375 0.24375 0
v 0.75625 0.24375 0
v 0.83125 0.16875 0.05
v 0.16875 0.16875 0.05
v 0.16875 0.83125 0.05
v 0.83125 0.83125 0.05
v 0.75625 0.75625 0.05
v 0.24375 0.75625 0.05
v 0.24375 0.24375 0.05
v 0.75625 0.24375 0.05
v 0.83125 0.16875 0
v 0.16875 0.16875 0
v 0.16875 0.83125 0
v 0.83125 0.83125 0
v 0.75625 0.75625 0
v 0.24375 0.75625 0
v 0.24375 0.24375 0
v 0.75625 0.24375 0
vt 0.642322 0.022318
vt 0.744543 0.022318
vt 0.745508 0.023682
vt 0.641357 0.023682
vt 0.214099 0.072123
vt 0.316321 0.072123
vt 0.317285 0.073486
vt 0.213135 0.073486
vt 0.748279 0.022318
vt 0.8505 0.022318
vt 0.851465 0.023682
vt 0.747314 0.023682
vt 0.320056 0.072123
vt 0.422278 0.072123
vt 0.423242 0.073486
vt 0.319092 0.073486
vt 0.029053 0.159009
vt 0.133203 0.159009
vt 0.133203 0.164795
vt 0.029053 0.164795
vt 0.13501 0.159009
vt 0.23916 0.159009
vt 0.23916 0.164795
vt 0.13501 0.164795
vt 0.240967 0.159009
vt 0.345117 0.159009
vt 0.345117 0.164795
vt 0.240967 0.164795
vt 0.346924 0.159009
vt 0.451074 0.159009
vt 0.451074 0.164795
vt 0.346924 0.164795
vt 0.425049 0.072123
vt 0.529199 0.072123
vt 0.528235 0.073486
vt 0.426013 0.073486
vt 0.645752 0.034037
vt 0.749902 0.034037
vt 0.748938 0.0354
vt 0.646716 0.0354
vt 0.531006 0.072123
vt 0.635156 0.072123
vt 0.634192 0.073486
vt 0.53197 0.073486
vt 0.751709 0.034037
vt 0.855859 0.034037
vt 0.854895 0.0354
vt 0.752673 0.0354
vt 0.001221 0.045755
vt 0.080298 0.045755
vt 0.079333 0.047119
vt 0.002185 0.047119
vt 0.484619 0.036966
vt 0.563696 0.036966
vt 0.562732 0.03833
vt 0.485583 0.03833
vt 0.081787 0.045755
vt 0.160864 0.045755
vt 0.1599 0.047119
vt 0.082751 0.047119
vt 0.565186 0.036966
vt 0.644263 0.036966
vt 0.643298 0.03833
vt 0.56615 0.03833
vt 0.001221 0.129224
vt 0.078369 0.129224
vt 0.078369 0.13501
vt 0.001221 0.13501
vt 0.079834 0.129224
vt 0.156982 0.129224
vt 0.156982 0.13501
vt 0.079834 0.13501
vt 0.158447 0.129224
vt 0.235596 0.129224
vt 0.235596 0.13501
vt 0.158447 0.13501
vt 0.237061 0.129224
vt 0.314209 0.129224
vt 0.314209 0.13501
vt 0.237061 0.13501
vt 0.163318 0.045755
vt 0.240466 0.045755
vt 0.241431 0.047119
vt 0.162354 0.047119
vt 0.243884 0.045755
vt 0.321033 0.045755
vt 0.321997 0.047119
vt 0.24292 0.047119
vt 0.324451 0.045755
vt 0.401599 0.045755
vt 0.402563 0.047119
vt 0.323486 0.047119
vt 0.405017 0.045755
vt 0.482166 0.045755
vt 0.48313 0.047119
vt 0.404053 0.047119
vt 0.09187 0.987207
vt 0.103442 0.998779
vt 0.001221 0.998779
vt 0.012793 0.987207
vt 0.09187 0.987207
vt 0.001221 0.998779
vt 0.012793 0.987207
vt 0.001221 0.998779
vt 0.001221 0.896558
vt 0.012793 0.90813
vt 0.012793 0.987207
vt 0.001221 0.896558
vt 0.012793 0.90813
vt 0.001221 0.896558
vt 0.103442 0.896558
vt 0.09187 0.90813
vt 0.012793 0.90813
vt 0.103442 0.896558
vt 0.09187 0.987207
vt 0.09187 0.90813
vt 0.103442 0.896558
vt 0.103442 0.896558
vt 0.103442 0.998779
vt 0.09187 0.987207
vt 0.105225 0.896558
vt 0.207446 0.896558
vt 0.195874 0.90813
vt 0.105225 0.896558
vt 0.195874 0.90813
vt 0.116797 0.90813
vt 0.105225 0.998779
vt 0.105225 0.896558
vt 0.116797 0.90813
vt 0.105225 0.998779
vt 0.116797 0.90813
vt 0.116797 0.987207
vt 0.207446 0.998779
vt 0.105225 0.998779
vt 0.116797 0.987207
vt 0.207446 0.998779
vt 0.116797 0.987207
vt 0.195874 0.987207
vt 0.207446 0.998779
vt 0.195874 0.987207
vt 0.195874 0.90813
vt 0.195874 0.90813
vt 0.207446 0.896558
vt 0.207446 0.998779
vn 0 -0.707107 0.707107
vn -0.707107 0 0.707107
vn 0 0.707107 0.707107
vn 0.707107 0 0.707107
vn 0 -1 0
vn -1 0 0
vn 0 1 0
vn 1 0 0
vn 0 -0.707107 -0.707107
vn -0.707107 0 -0.707107
vn 0 0.707107 -0.707107
vn 0.707107 0 -0.707107
vn 0 0 1
vn 0 0 -1
f 81/153/11 82/154/11 86/155/11 85/156/11
f 82/157/12 83/158/12 87/159/12 86/160/12
f 83/161/13 84/162/13 88/163/13 87/164/13
f 84/165/14 81/166/14 85/167/14 88/168/14
f 85/169/15 86/170/15 90/171/15 89/172/15
f 86/173/16 87/174/16 91/175/16 90/176/16
f 87/177/17 88/178/17 92/179/17 91/180/17
f 88/181/18 85/182/18 89/183/18 92/184/18
f 89/185/19 90/186/19 94/187/19 93/188/19
f 90/189/20 91/190/20 95/191/20 94/192/20
f 91/193/21 92/194/21 96/195/21 95/196/21
f 92/197/22 89/198/22 93/199/22 96/200/22
f 97/201/11 98/202/11 102/203/11 101/204/11
f 98/205/14 99/206/14 103/207/14 102/208/14
f 99/209/13 100/210/13 104/211/13 103/212/13
f 100/213/12 97/214/12 101/215/12 104/216/12
f 101/217/15 102/218/15 106/219/15 105/220/15
f 102/221/18 103/222/18 107/223/18 106/224/18
f 103/225/17 104/226/17 108/227/17 107/228/17
f 104/229/16 101/230/16 105/231/16 108/232/16
f 105/233/19 106/234/19 110/235/19 109/236/19
f 106/237/22 107/238/22 111/239/22 110/240/22
f 107/241/21 108/242/21 112/243/21 111/244/21
f 108/245/20 105/246/20 109/247/20 112/248/20
f 118/249/23 115/250/23 114/251/23
f 119/252/23 118/253/23 114/254/23
f 119/255/23 114/256/23 113/257/23
f 120/258/23 119/259/23 113/260/23
f 120/261/23 113/262/23 116/263/23
f 117/264/23 120/265/23 116/266/23
f 118/267/23 117/268/23 116/269/23
f 116/270/23 115/271/23 118/272/23
f 122/273/24 123/274/24 126/275/24
f 122/276/24 126/277/24 127/278/24
f 121/279/24 122/280/24 127/281/24
f 121/282/24 127/283/24 128/284/24
f 124/285/24 121/286/24 128/287/24
f 124/288/24 128/289/24 125/290/24
f 124/291/24 125/292/24 126/293/24
f 126/294/24 123/295/24 124/296/24
o half_port_port_nuts
usemtl fluid_pipe
v 0.767892 0.2225 0.071875
v 0.790625 0.235625 0.071875
v 0.813358 0.2225 0.071875
v 0.813358 0.19625 0.071875
v 0.790625 0.183125 0.071875
v 0.767892 0.19625 0.071875
v 0.767892 0.2225 0.05
v 0.790625 0.235625 0.05
v 0.813358 0.2225 0.05
v 0.813358 0.19625 0.05
v 0.790625 0.183125 0.05
v 0.767892 0.19625 0.05
v 0.767892 0.2225 0.071875
v 0.790625 0.235625 0.071875
v 0.813358 0.2225 0.071875
v 0.813358 0.19625 0.071875
v 0.790625 0.183125 0.071875
v 0.767892 0.19625 0.071875
v 0.767892 0.2225 0.05
v 0.790625 0.235625 0.05
v 0.813358 0.2225 0.05
v 0.813358 0.19625 0.05
v 0.790625 0.183125 0.05
v 0.767892 0.19625 0.05
v 0.767892 0.80375 0.071875
v 0.790625 0.816875 0.071875
v 0.813358 0.80375 0.071875
v 0.813358 0.7775 0.071875
v 0.790625 0.764375 0.071875
v 0.767892 0.7775 0.071875
v 0.767892 0.80375 0.05
v 0.790625 0.816875 0.05
v 0.813358 0.80375 0.05
v 0.813358 0.7775 0.05
v 0.790625 0.764375 0.05
v 0.767892 0.7775 0.05
v 0.767892 0.80375 0.071875
v 0.790625 0.816875 0.071875
v 0.813358 0.80375 0.071875
v 0.813358 0.7775 0.071875
v 0.790625 0.764375 0.071875
v 0.767892 0.7775 0.071875
v 0.767892 0.80375 0.05
v 0.790625 0.816875 0.05
v 0.813358 0.80375 0.05
v 0.813358 0.7775 0.05
v 0.790625 0.764375 0.05
v 0.767892 0.7775 0.05
v 0.186642 0.2225 0.071875
v 0.209375 0.235625 0.071875
v 0.232108 0.2225 0.071875
v 0.232108 0.19625 0.071875
v 0.209375 0.183125 0.071875
v 0.186642 0.19625 0.071875
v 0.186642 0.2225 0.05
v 0.209375 0.235625 0.05
v 0.232108 0.2225 0.05
v 0.232108 0.19625 0.05
v 0.209375 0.183125 0.05
v 0.186642 0.19625 0.05
v 0.186642 0.2225 0.071875
v 0.209375 0.235625 0.071875
v 0.232108 0.2225 0.071875
v 0.232108 0.19625 0.071875
v 0.209375 0.183125 0.071875
v 0.186642 0.19625 0.071875
v 0.186642 0.2225 0.05
v 0.209375 0.235625 0.05
v 0.232108 0.2225 0.05
v 0.232108 0.19625 0.05
v 0.209375 0.183125 0.05
v 0.186642 0.19625 0.05
v 0.186642 0.80375 0.071875
v 0.209375 0.816875 0.071875
v 0.232108 0.80375 0.071875
v 0.232108 0.7775 0.071875
v 0.209375 0.764375 0.071875
v 0.186642 0.7775 0.071875
v 0.186642 0.80375 0.05
v 0.209375 0.816875 0.05
v 0.232108 0.80375 0.05
v 0.232108 0.7775 0.05
v 0.209375 0.764375 0.05
v 0.186642 0.7775 0.05
v 0.186642 0.80375 0.071875
v 0.209375 0.816875 0.071875
v 0.232108 0.80375 0.071875
v 0.232108 0.7775 0.071875
v 0.209375 0.764375 0.071875
v 0.186642 0.7775 0.071875
v 0.186642 0.80375 0.05
v 0.209375 0.816875 0.05
v 0.232108 0.80375 0.05
v 0.232108 0.7775 0.05
v 0.209375 0.764375 0.05
v 0.186642 0.7775 0.05
vt 0.468506 0.083295
vt 0.472556 0.083295
vt 0.472556 0.08667
vt 0.468506 0.08667
vt 0.474365 0.083295
vt 0.478416 0.083295
vt 0.478416 0.08667
vt 0.474365 0.08667
vt 0.480225 0.083295
vt 0.484275 0.083295
vt 0.484275 0.08667
vt 0.480225 0.08667
vt 0.304443 0.083295
vt 0.308494 0.083295
vt 0.308494 0.08667
vt 0.304443 0.08667
vt 0.486084 0.083295
vt 0.490134 0.083295
vt 0.490134 0.08667
vt 0.486084 0.08667
vt 0.491943 0.083295
vt 0.495994 0.083295
vt 0.495994 0.08667
vt 0.491943 0.08667
vt 0.292036 0.172518
vt 0.290011 0.176025
vt 0.285961 0.176025
vt 0.290011 0.16901
vt 0.292036 0.172518
vt 0.285961 0.176025
vt 0.285961 0.16901
vt 0.290011 0.16901
vt 0.285961 0.176025
vt 0.285961 0.176025
vt 0.283936 0.172518
vt 0.285961 0.16901
vt 0.295726 0.16901
vt 0.299777 0.16901
vt 0.301802 0.172518
vt 0.295726 0.16901
vt 0.301802 0.172518
vt 0.299777 0.176025
vt 0.295726 0.16901
vt 0.299777 0.176025
vt 0.295726 0.176025
vt 0.295726 0.176025
vt 0.293701 0.172518
vt 0.295726 0.16901
vt 0.497803 0.083295
vt 0.501853 0.083295
vt 0.501853 0.08667
vt 0.497803 0.08667
vt 0.310303 0.083295
vt 0.314353 0.083295
vt 0.314353 0.08667
vt 0.310303 0.08667
vt 0.503662 0.083295
vt 0.507712 0.083295
vt 0.507712 0.08667
vt 0.503662 0.08667
vt 0.509521 0.083295
vt 0.513572 0.083295
vt 0.513572 0.08667
vt 0.509521 0.08667
vt 0.515381 0.083295
vt 0.519431 0.083295
vt 0.519431 0.08667
vt 0.515381 0.08667
vt 0.52124 0.083295
vt 0.525291 0.083295
vt 0.525291 0.08667
vt 0.52124 0.08667
vt 0.311567 0.172518
vt 0.309542 0.176025
vt 0.305492 0.176025
vt 0.309542 0.16901
vt 0.311567 0.172518
vt 0.305492 0.176025
vt 0.305492 0.16901
vt 0.309542 0.16901
vt 0.305492 0.176025
vt 0.305492 0.176025
vt 0.303467 0.172518
vt 0.305492 0.16901
vt 0.315258 0.16901
vt 0.319308 0.16901
vt 0.321333 0.172518
vt 0.315258 0.16901
vt 0.321333 0.172518
vt 0.319308 0.176025
vt 0.315258 0.16901
vt 0.319308 0.176025
vt 0.315258 0.176025
vt 0.315258 0.176025
vt 0.313232 0.172518
vt 0.315258 0.16901
vt 0.5271 0.083295
vt 0.53115 0.083295
vt 0.53115 0.08667
vt 0.5271 0.08667
vt 0.532959 0.083295
vt 0.537009 0.083295
vt 0.537009 0.08667
vt 0.532959 0.08667
vt 0.538818 0.083295
vt 0.542869 0.083295
vt 0.542869 0.08667
vt 0.538818 0.08667
vt 0.544678 0.083295
vt 0.548728 0.083295
vt 0.548728 0.08667
vt 0.544678 0.08667
vt 0.316162 0.083295
vt 0.320212 0.083295
vt 0.320212 0.08667
vt 0.316162 0.08667
vt 0.550537 0.083295
vt 0.554587 0.083295
vt 0.554587 0.08667
vt 0.550537 0.08667
vt 0.331099 0.172518
vt 0.329073 0.176025
vt 0.325023 0.176025
vt 0.329073 0.16901
vt 0.331099 0.172518
vt 0.325023 0.176025
vt 0.325023 0.16901
vt 0.329073 0.16901
vt 0.325023 0.176025
vt 0.325023 0.176025
vt 0.322998 0.172518
vt 0.325023 0.16901
vt 0.334789 0.16901
vt 0.338839 0.16901
vt 0.340864 0.172518
vt 0.334789 0.16901
vt 0.340864 0.172518
vt 0.338839 0.176025
vt 0.334789 0.16901
vt 0.338839 0.176025
vt 0.334789 0.176025
vt 0.334789 0.176025
vt 0.332764 0.172518
vt 0.334789 0.16901
vt 0.322021 0.083295
vt 0.326072 0.083295
vt 0.326072 0.08667
vt 0.322021 0.08667
vt 0.556396 0.083295
vt 0.560447 0.083295
vt 0.560447 0.08667
vt 0.556396 0.08667
vt 0.562256 0.083295
vt 0.566306 0.083295
vt 0.566306 0.08667
vt 0.562256 0.08667
vt 0.568115 0.083295
vt 0.572166 0.083295
vt 0.572166 0.08667
vt 0.568115 0.08667
vt 0.573975 0.083295
vt 0.578025 0.083295
vt 0.578025 0.08667
vt 0.573975 0.08667
vt 0.579834 0.083295
vt 0.583884 0.083295
vt 0.583884 0.08667
vt 0.579834 0.08667
vt 0.35063 0.172518
vt 0.348605 0.176025
vt 0.344554 0.176025
vt 0.348605 0.16901
vt 0.35063 0.172518
vt 0.344554 0.176025
vt 0.344554 0.16901
vt 0.348605 0.16901
vt 0.344554 0.176025
vt 0.344554 0.176025
vt 0.342529 0.172518
vt 0.344554 0.16901
vt 0.35432 0.16901
vt 0.35837 0.16901
vt 0.360396 0.172518
vt 0.35432 0.16901
vt 0.360396 0.172518
vt 0.35837 0.176025
vt 0.35432 0.16901
vt 0.35837 0.176025
vt 0.35432 0.176025
vt 0.35432 0.176025
vt 0.352295 0.172518
vt 0.35432 0.16901
vn -0.5 0.866025 0
vn 0.5 0.866025 0
vn 1 0 0
vn 0.5 -0.866025 0
vn -0.5 -0.866025 0
vn -1 0 0
vn 0 0 1
vn 0 0 -1
f 129/297/25 130/298/25 136/299/25 135/300/25
f 130/301/26 131/302/26 137/303/26 136/304/26
f 131/305/27 132/306/27 138/307/27 137/308/27
f 132/309/28 133/310/28 139/311/28 138/312/28
f 133/313/29 134/314/29 140/315/29 139/316/29
f 134/317/30 129/318/30 135/319/30 140/320/30
f 142/321/31 141/322/31 146/323/31
f 143/324/31 142/325/31 146/326/31
f 144/327/31 143/328/31 146/329/31
f 146/330/31 145/331/31 144/332/31
f 152/333/32 147/334/32 148/335/32
f 152/336/32 148/337/32 149/338/32
f 152/339/32 149/340/32 150/341/32
f 150/342/32 151/343/32 152/344/32
f 153/345/25 154/346/25 160/347/25 159/348/25
f 154/349/26 155/350/26 161/351/26 160/352/26
f 155/353/27 156/354/27 162/355/27 161/356/27
f 156/357/28 157/358/28 163/359/28 162/360/28
f 157/361/29 158/362/29 164/363/29 163/364/29
f 158/365/30 153/366/30 159/367/30 164/368/30
f 166/369/31 165/370/31 170/371/31
f 167/372/31 166/373/31 170/374/31
f 168/375/31 167/376/31 170/377/31
f 170/378/31 169/379/31 168/380/31
f 176/381/32 171/382/32 172/383/32
f 176/384/32 172/385/32 173/386/32
f 176/387/32 173/388/32 174/389/32
f 174/390/32 175/391/32 176/392/32
f 177/393/25 178/394/25 184/395/25 183/396/25
f 178/397/26 179/398/26 185/399/26 184/400/26
f 179/401/27 180/402/27 186/403/27 185/404/27
f 180/405/28 181/406/28 187/407/28 186/408/28
f 181/409/29 182/410/29 188/411/29 187/412/29
f 182/413/30 177/414/30 183/415/30 188/416/30
f 190/417/31 189/418/31 194/419/31
f 191/420/31 190/421/31 194/422/31
f 192/423/31 191/424/31 194/425/31
f 194/426/31 193/427/31 192/428/31
f 200/429/32 195/430/32 196/431/32
f 200/432/32 196/433/32 197/434/32
f 200/435/32 197/436/32 198/437/32
f 198/438/32 199/439/32 200/440/32
f 201/441/25 202/442/25 208/443/25 207/444/25
f 202/445/26 203/446/26 209/447/26 208/448/26
f 203/449/27 204/450/27 210/451/27 209/452/27
f 204/453/28 205/454/28 211/455/28 210/456/28
f 205/457/29 206/458/29 212/459/29 211/460/29
f 206/461/30 201/462/30 207/463/30 212/464/30
f 214/465/31 213/466/31 218/467/31
f 215/468/31 214/469/31 218/470/31
f 216/471/31 215/472/31 218/473/31
f 218/474/31 217/475/31 216/476/31
f 224/477/32 219/478/32 220/479/32
f 224/480/32 220/481/32 221/482/32
f 224/483/32 221/484/32 222/485/32
f 222/486/32 223/487/32 224/488/32
