# AFL Fluid Pipe V2 item, generated by tools/build-fluid-pipe-v2.mjs
mtllib fluid_pipe.mtl
o item_rails
usemtl fluid_pipe
v 0.33125 0.33125 0.1
v 0.25 0.33125 0.1
v 0.25 0.26875 0.1
v 0.26875 0.25 0.1
v 0.33125 0.25 0.1
v 0.33125 0.33125 0.9
v 0.25 0.33125 0.9
v 0.25 0.26875 0.9
v 0.26875 0.25 0.9
v 0.33125 0.25 0.9
v 0.33125 0.33125 0.1
v 0.25 0.33125 0.1
v 0.25 0.26875 0.1
v 0.26875 0.25 0.1
v 0.33125 0.25 0.1
v 0.33125 0.33125 0.9
v 0.25 0.33125 0.9
v 0.25 0.26875 0.9
v 0.26875 0.25 0.9
v 0.33125 0.25 0.9
v 0.33125 0.75 0.1
v 0.26875 0.75 0.1
v 0.25 0.73125 0.1
v 0.25 0.66875 0.1
v 0.33125 0.66875 0.1
v 0.33125 0.75 0.9
v 0.26875 0.75 0.9
v 0.25 0.73125 0.9
v 0.25 0.66875 0.9
v 0.33125 0.66875 0.9
v 0.33125 0.75 0.1
v 0.26875 0.75 0.1
v 0.25 0.73125 0.1
v 0.25 0.66875 0.1
v 0.33125 0.66875 0.1
v 0.33125 0.75 0.9
v 0.26875 0.75 0.9
v 0.25 0.73125 0.9
v 0.25 0.66875 0.9
v 0.33125 0.66875 0.9
v 0.66875 0.25 0.1
v 0.73125 0.25 0.1
v 0.75 0.26875 0.1
v 0.75 0.33125 0.1
v 0.66875 0.33125 0.1
v 0.66875 0.25 0.9
v 0.73125 0.25 0.9
v 0.75 0.26875 0.9
v 0.75 0.33125 0.9
v 0.66875 0.33125 0.9
v 0.66875 0.25 0.1
v 0.73125 0.25 0.1
v 0.75 0.26875 0.1
v 0.75 0.33125 0.1
v 0.66875 0.33125 0.1
v 0.66875 0.25 0.9
v 0.73125 0.25 0.9
v 0.75 0.26875 0.9
v 0.75 0.33125 0.9
v 0.66875 0.33125 0.9
v 0.66875 0.66875 0.1
v 0.75 0.66875 0.1
v 0.75 0.73125 0.1
v 0.73125 0.75 0.1
v 0.66875 0.75 0.1
v 0.66875 0.66875 0.9
v 0.75 0.66875 0.9
v 0.75 0.73125 0.9
v 0.73125 0.75 0.9
v 0.66875 0.75 0.9
v 0.66875 0.66875 0.1
v 0.75 0.66875 0.1
v 0.75 0.73125 0.1
v 0.73125 0.75 0.1
v 0.66875 0.75 0.1
v 0.66875 0.66875 0.9
v 0.75 0.66875 0.9
v 0.75 0.73125 0.9
v 0.73125 0.75 0.9
v 0.66875 0.75 0.9
vt 0.735596 0.364014
vt 0.735596 0.351477
vt 0.859033 0.351477
vt 0.859033 0.364014
vt 0.198975 0.2229
vt 0.198975 0.213257
vt 0.322412 0.213257
vt 0.322412 0.2229
vt 0.001221 0.098389
vt 0.001221 0.094297
vt 0.124658 0.094297
vt 0.124658 0.098389
vt 0.323975 0.2229
vt 0.323975 0.213257
vt 0.447412 0.213257
vt 0.447412 0.2229
vt 0.860596 0.364014
vt 0.860596 0.351477
vt 0.984033 0.351477
vt 0.984033 0.364014
vt 0.410242 0.277747
vt 0.410242 0.290283
vt 0.397705 0.290283
vt 0.400598 0.277747
vt 0.410242 0.277747
vt 0.397705 0.290283
vt 0.397705 0.290283
vt 0.397705 0.28064
vt 0.400598 0.277747
vt 0.411865 0.277747
vt 0.424402 0.277747
vt 0.424402 0.290283
vt 0.411865 0.277747
vt 0.424402 0.290283
vt 0.414758 0.290283
vt 0.414758 0.290283
vt 0.411865 0.28739
vt 0.411865 0.277747
vt 0.448975 0.2229
vt 0.448975 0.213257
vt 0.572412 0.213257
vt 0.572412 0.2229
vt 0.126221 0.098389
vt 0.126221 0.094297
vt 0.249658 0.094297
vt 0.249658 0.098389
vt 0.573975 0.2229
vt 0.573975 0.213257
vt 0.697412 0.213257
vt 0.697412 0.2229
vt 0.001221 0.346924
vt 0.001221 0.334387
vt 0.124658 0.334387
vt 0.124658 0.346924
vt 0.126221 0.346924
vt 0.126221 0.334387
vt 0.249658 0.334387
vt 0.249658 0.346924
vt 0.353601 0.28064
vt 0.353601 0.290283
vt 0.341064 0.290283
vt 0.350708 0.277747
vt 0.353601 0.28064
vt 0.341064 0.290283
vt 0.341064 0.290283
vt 0.341064 0.277747
vt 0.350708 0.277747
vt 0.355225 0.277747
vt 0.367761 0.277747
vt 0.367761 0.28739
vt 0.355225 0.277747
vt 0.367761 0.28739
vt 0.364868 0.290283
vt 0.364868 0.290283
vt 0.355225 0.290283
vt 0.355225 0.277747
vt 0.698975 0.2229
vt 0.698975 0.213257
vt 0.822412 0.213257
vt 0.822412 0.2229
vt 0.251221 0.098389
vt 0.251221 0.094297
vt 0.374658 0.094297
vt 0.374658 0.098389
vt 0.823975 0.2229
vt 0.823975 0.213257
vt 0.947412 0.213257
vt 0.947412 0.2229
vt 0.251221 0.346924
vt 0.251221 0.334387
vt 0.374658 0.334387
vt 0.374658 0.346924
vt 0.376221 0.346924
vt 0.376221 0.334387
vt 0.499658 0.334387
vt 0.499658 0.346924
vt 0.369385 0.28739
vt 0.369385 0.277747
vt 0.381921 0.277747
vt 0.372278 0.290283
vt 0.369385 0.28739
vt 0.381921 0.277747
vt 0.381921 0.277747
vt 0.381921 0.290283
vt 0.372278 0.290283
vt 0.396082 0.290283
vt 0.383545 0.290283
vt 0.383545 0.28064
vt 0.396082 0.290283
vt 0.383545 0.28064
vt 0.386438 0.277747
vt 0.386438 0.277747
vt 0.396082 0.277747
vt 0.396082 0.290283
vt 0.501221 0.346924
vt 0.501221 0.334387
vt 0.624658 0.334387
vt 0.624658 0.346924
vt 0.001221 0.209717
vt 0.001221 0.200073
vt 0.124658 0.200073
vt 0.124658 0.209717
vt 0.376221 0.098389
vt 0.376221 0.094297
vt 0.499658 0.094297
vt 0.499658 0.098389
vt 0.126221 0.209717
vt 0.126221 0.200073
vt 0.249658 0.200073
vt 0.249658 0.209717
vt 0.626221 0.346924
vt 0.626221 0.334387
vt 0.749658 0.334387
vt 0.749658 0.346924
vt 0.426025 0.290283
vt 0.426025 0.277747
vt 0.438562 0.277747
vt 0.435669 0.290283
vt 0.426025 0.290283
vt 0.438562 0.277747
vt 0.438562 0.277747
vt 0.438562 0.28739
vt 0.435669 0.290283
vt 0.452722 0.290283
vt 0.440186 0.290283
vt 0.440186 0.277747
vt 0.452722 0.290283
vt 0.440186 0.277747
vt 0.449829 0.277747
vt 0.449829 0.277747
vt 0.452722 0.28064
vt 0.452722 0.290283
vn 0 1 0
vn -1 0 0
vn -0.707107 -0.707107 0
vn 0 -1 0
vn 1 0 0
vn 0 0 -1
vn 0 0 1
vn -0.707107 0.707107 0
vn 0.707107 -0.707107 0
vn 0.707107 0.707107 0
f 1/1/1 2/2/1 7/3/1 6/4/1
f 2/5/2 3/6/2 8/7/2 7/8/2
f 3/9/3 4/10/3 9/11/3 8/12/3
f 4/13/4 5/14/4 10/15/4 9/16/4
f 5/17/5 1/18/5 6/19/5 10/20/5
f 12/21/6 11/22/6 15/23/6
f 13/24/6 12/25/6 15/26/6
f 15/27/6 14/28/6 13/29/6
f 20/30/7 16/31/7 17/32/7
f 20/33/7 17/34/7 18/35/7
f 18/36/7 19/37/7 20/38/7
f 21/39/1 22/40/1 27/41/1 26/42/1
f 22/43/8 23/44/8 28/45/8 27/46/8
f 23/47/2 24/48/2 29/49/2 28/50/2
f 24/51/4 25/52/4 30/53/4 29/54/4
f 25/55/5 21/56/5 26/57/5 30/58/5
f 32/59/6 31/60/6 35/61/6
f 33/62/6 32/63/6 35/64/6
f 35/65/6 34/66/6 33/67/6
f 40/68/7 36/69/7 37/70/7
f 40/71/7 37/72/7 38/73/7
f 38/74/7 39/75/7 40/76/7
f 41/77/4 42/78/4 47/79/4 46/80/4
f 42/81/9 43/82/9 48/83/9 47/84/9
f 43/85/5 44/86/5 49/87/5 48/88/5
f 44/89/1 45/90/1 50/91/1 49/92/1
f 45/93/2 41/94/2 46/95/2 50/96/2
f 52/97/6 51/98/6 55/99/6
f 53/100/6 52/101/6 55/102/6
f 55/103/6 54/104/6 53/105/6
f 60/106/7 56/107/7 57/108/7
f 60/109/7 57/110/7 58/111/7
f 58/112/7 59/113/7 60/114/7
f 61/115/4 62/116/4 67/117/4 66/118/4
f 62/119/5 63/120/5 68/121/5 67/122/5
f 63/123/10 64/124/10 69/125/10 68/126/10
f 64/127/1 65/128/1 70/129/1 69/130/1
f 65/131/2 61/132/2 66/133/2 70/134/2
f 72/135/6 71/136/6 75/137/6
f 73/138/6 72/139/6 75/140/6
f 75/141/6 74/142/6 73/143/6
f 80/144/7 76/145/7 77/146/7
f 80/147/7 77/148/7 78/149/7
f 78/150/7 79/151/7 80/152/7
o item_panes
usemtl fluid_pipe
v 0.259375 0.33125 0.1
v 0.259375 0.66875 0.1
v 0.259375 0.66875 0.9
v 0.259375 0.33125 0.9
v 0.275 0.33125 0.1
v 0.275 0.66875 0.1
v 0.275 0.66875 0.9
v 0.275 0.33125 0.9
v 0.33125 0.259375 0.1
v 0.66875 0.259375 0.1
v 0.66875 0.259375 0.9
v 0.33125 0.259375 0.9
v 0.33125 0.275 0.1
v 0.66875 0.275 0.1
v 0.66875 0.275 0.9
v 0.33125 0.275 0.9
v 0.725 0.33125 0.1
v 0.725 0.66875 0.1
v 0.725 0.66875 0.9
v 0.725 0.33125 0.9
v 0.740625 0.33125 0.1
v 0.740625 0.66875 0.1
v 0.740625 0.66875 0.9
v 0.740625 0.33125 0.9
v 0.33125 0.725 0.1
v 0.66875 0.725 0.1
v 0.66875 0.725 0.9
v 0.33125 0.725 0.9
v 0.33125 0.740625 0.1
v 0.66875 0.740625 0.1
v 0.66875 0.740625 0.9
v 0.33125 0.740625 0.9
vt 0.701807 0.634692
vt 0.701807 0.686768
vt 0.578369 0.686768
vt 0.578369 0.634692
vt 0.703369 0.686768
vt 0.703369 0.634692
vt 0.826807 0.634692
vt 0.826807 0.686768
vt 0.828369 0.686768
vt 0.828369 0.634692
vt 0.951807 0.634692
vt 0.951807 0.686768
vt 0.124658 0.545825
vt 0.124658 0.5979
vt 0.001221 0.5979
vt 0.001221 0.545825
vt 0.249658 0.545825
vt 0.249658 0.5979
vt 0.126221 0.5979
vt 0.126221 0.545825
vt 0.251221 0.5979
vt 0.251221 0.545825
vt 0.374658 0.545825
vt 0.374658 0.5979
vt 0.376221 0.5979
vt 0.376221 0.545825
vt 0.499658 0.545825
vt 0.499658 0.5979
vt 0.624658 0.545825
vt 0.624658 0.5979
vt 0.501221 0.5979
vt 0.501221 0.545825
vn -1 0 0
vn 1 0 0
vn 0 -1 0
vn 0 1 0
f 84/153/11 83/154/11 82/155/11 81/156/11
f 85/157/12 86/158/12 87/159/12 88/160/12
f 89/161/13 90/162/13 91/163/13 92/164/13
f 96/165/14 95/166/14 94/167/14 93/168/14
f 100/169/11 99/170/11 98/171/11 97/172/11
f 101/173/12 102/174/12 103/175/12 104/176/12
f 105/177/13 106/178/13 107/179/13 108/180/13
f 112/181/14 111/182/14 110/183/14 109/184/14
o item_band
usemtl fluid_pipe
v 0.21875 0.21875 0.44375
v 0.78125 0.21875 0.44375
v 0.78125 0.78125 0.44375
v 0.21875 0.78125 0.44375
v 0.2125 0.2125 0.45
v 0.7875 0.2125 0.45
v 0.7875 0.7875 0.45
v 0.2125 0.7875 0.45
v 0.2125 0.2125 0.55
v 0.7875 0.2125 0.55
v 0.7875 0.7875 0.55
v 0.2125 0.7875 0.55
v 0.21875 0.21875 0.55625
v 0.78125 0.21875 0.55625
v 0.78125 0.78125 0.55625
v 0.21875 0.78125 0.55625
v 0.24375 0.75625 0.44375
v 0.75625 0.75625 0.44375
v 0.75625 0.24375 0.44375
v 0.24375 0.24375 0.44375
v 0.25 0.75 0.45
v 0.75 0.75 0.45
v 0.75 0.25 0.45
v 0.25 0.25 0.45
v 0.25 0.75 0.55
v 0.75 0.75 0.55
v 0.75 0.25 0.55
v 0.25 0.25 0.55
v 0.24375 0.75625 0.55625
v 0.75625 0.75625 0.55625
v 0.75625 0.24375 0.55625
v 0.24375 0.24375 0.55625
v 0.21875 0.21875 0.44375
v 0.78125 0.21875 0.44375
v 0.78125 0.78125 0.44375
v 0.21875 0.78125 0.44375
v 0.24375 0.75625 0.44375
v 0.75625 0.75625 0.44375
v 0.75625 0.24375 0.44375
v 0.24375 0.24375 0.44375
v 0.21875 0.21875 0.55625
v 0.78125 0.21875 0.55625
v 0.78125 0.78125 0.55625
v 0.21875 0.78125 0.55625
v 0.24375 0.75625 0.55625
v 0.75625 0.75625 0.55625
v 0.75625 0.24375 0.55625
v 0.24375 0.24375 0.55625
vt 0.453845 0.051615
vt 0.540637 0.051615
vt 0.541602 0.052979
vt 0.452881 0.052979
vt 0.394763 0.028177
vt 0.481555 0.028177
vt 0.48252 0.029541
vt 0.393799 0.029541
vt 0.544177 0.051615
vt 0.630969 0.051615
vt 0.631934 0.052979
vt 0.543213 0.052979
vt 0.485095 0.028177
vt 0.571887 0.028177
vt 0.572852 0.029541
vt 0.484131 0.029541
vt 0.631104 0.367627
vt 0.719824 0.367627
vt 0.719824 0.383057
vt 0.631104 0.383057
vt 0.721436 0.367627
vt 0.810156 0.367627
vt 0.810156 0.383057
vt 0.721436 0.383057
vt 0.811768 0.367627
vt 0.900488 0.367627
vt 0.900488 0.383057
vt 0.811768 0.383057
vt 0.9021 0.367627
vt 0.99082 0.367627
vt 0.99082 0.383057
vt 0.9021 0.383057
vt 0.633545 0.051615
vt 0.722266 0.051615
vt 0.721301 0.052979
vt 0.634509 0.052979
vt 0.723877 0.051615
vt 0.812598 0.051615
vt 0.811633 0.052979
vt 0.724841 0.052979
vt 0.814209 0.051615
vt 0.90293 0.051615
vt 0.901965 0.052979
vt 0.815173 0.052979
vt 0.904541 0.051615
vt 0.993262 0.051615
vt 0.992297 0.052979
vt 0.905505 0.052979
vt 0.645752 0.048685
vt 0.724829 0.048685
vt 0.723865 0.050049
vt 0.646716 0.050049
vt 0.565186 0.025248
vt 0.644263 0.025248
vt 0.643298 0.026611
vt 0.56615 0.026611
vt 0.726318 0.048685
vt 0.805396 0.048685
vt 0.804431 0.050049
vt 0.727283 0.050049
vt 0.645752 0.025248
vt 0.724829 0.025248
vt 0.723865 0.026611
vt 0.646716 0.026611
vt 0.315674 0.348584
vt 0.392822 0.348584
vt 0.392822 0.364014
vt 0.315674 0.364014
vt 0.394287 0.348584
vt 0.471436 0.348584
vt 0.471436 0.364014
vt 0.394287 0.364014
vt 0.4729 0.348584
vt 0.550049 0.348584
vt 0.550049 0.364014
vt 0.4729 0.364014
vt 0.551514 0.348584
vt 0.628662 0.348584
vt 0.628662 0.364014
vt 0.551514 0.364014
vt 0.807849 0.048685
vt 0.884998 0.048685
vt 0.885962 0.050049
vt 0.806885 0.050049
vt 0.727283 0.025248
vt 0.804431 0.025248
vt 0.805396 0.026611
vt 0.726318 0.026611
vt 0.888416 0.048685
vt 0.965564 0.048685
vt 0.966528 0.050049
vt 0.887451 0.050049
vt 0.807849 0.025248
vt 0.884998 0.025248
vt 0.885962 0.026611
vt 0.806885 0.026611
vt 0.34978 0.68291
vt 0.353638 0.686768
vt 0.266846 0.686768
vt 0.270703 0.68291
vt 0.34978 0.68291
vt 0.266846 0.686768
vt 0.270703 0.68291
vt 0.266846 0.686768
vt 0.266846 0.599976
vt 0.270703 0.603833
vt 0.270703 0.68291
vt 0.266846 0.599976
vt 0.270703 0.603833
vt 0.266846 0.599976
vt 0.353638 0.599976
vt 0.34978 0.603833
vt 0.270703 0.603833
vt 0.353638 0.599976
vt 0.34978 0.68291
vt 0.34978 0.603833
vt 0.353638 0.599976
vt 0.353638 0.599976
vt 0.353638 0.686768
vt 0.34978 0.68291
vt 0.355225 0.599976
vt 0.442017 0.599976
vt 0.438159 0.603833
vt 0.355225 0.599976
vt 0.438159 0.603833
vt 0.359082 0.603833
vt 0.355225 0.686768
vt 0.355225 0.599976
vt 0.359082 0.603833
vt 0.355225 0.686768
vt 0.359082 0.603833
vt 0.359082 0.68291
vt 0.442017 0.686768
vt 0.355225 0.686768
vt 0.359082 0.68291
vt 0.442017 0.686768
vt 0.359082 0.68291
vt 0.438159 0.68291
vt 0.442017 0.686768
vt 0.438159 0.68291
vt 0.438159 0.603833
vt 0.438159 0.603833
vt 0.442017 0.599976
vt 0.442017 0.686768
vn 0 -0.707107 -0.707107
vn 0.707107 0 -0.707107
vn 0 0.707107 -0.707107
vn -0.707107 0 -0.707107
vn 0 -1 0
vn 1 0 0
vn 0 1 0
vn -1 0 0
vn 0 -0.707107 0.707107
vn 0.707107 0 0.707107
vn 0 0.707107 0.707107
vn -0.707107 0 0.707107
vn 0 0 -1
vn 0 0 1
f 113/185/15 114/186/15 118/187/15 117/188/15
f 114/189/16 115/190/16 119/191/16 118/192/16
f 115/193/17 116/194/17 120/195/17 119/196/17
f 116/197/18 113/198/18 117/199/18 120/200/18
f 117/201/19 118/202/19 122/203/19 121/204/19
f 118/205/20 119/206/20 123/207/20 122/208/20
f 119/209/21 120/210/21 124/211/21 123/212/21
f 120/213/22 117/214/22 121/215/22 124/216/22
f 121/217/23 122/218/23 126/219/23 125/220/23
f 122/221/24 123/222/24 127/223/24 126/224/24
f 123/225/25 124/226/25 128/227/25 127/228/25
f 124/229/26 121/230/26 125/231/26 128/232/26
f 129/233/15 130/234/15 134/235/15 133/236/15
f 130/237/18 131/238/18 135/239/18 134/240/18
f 131/241/17 132/242/17 136/243/17 135/244/17
f 132/245/16 129/246/16 133/247/16 136/248/16
f 133/249/19 134/250/19 138/251/19 137/252/19
f 134/253/22 135/254/22 139/255/22 138/256/22
f 135/257/21 136/258/21 140/259/21 139/260/21
f 136/261/20 133/262/20 137/263/20 140/264/20
f 137/265/23 138/266/23 142/267/23 141/268/23
f 138/269/26 139/270/26 143/271/26 142/272/26
f 139/273/25 140/274/25 144/275/25 143/276/25
f 140/277/24 137/278/24 141/279/24 144/280/24
f 150/281/27 147/282/27 146/283/27
f 151/284/27 150/285/27 146/286/27
f 151/287/27 146/288/27 145/289/27
f 152/290/27 151/291/27 145/292/27
f 152/293/27 145/294/27 148/295/27
f 149/296/27 152/297/27 148/298/27
f 150/299/27 149/300/27 148/301/27
f 148/302/27 147/303/27 150/304/27
f 154/305/28 155/306/28 158/307/28
f 154/308/28 158/309/28 159/310/28
f 153/311/28 154/312/28 159/313/28
f 153/314/28 159/315/28 160/316/28
f 156/317/28 153/318/28 160/319/28
f 156/320/28 160/321/28 157/322/28
f 156/323/28 157/324/28 158/325/28
f 158/326/28 155/327/28 156/328/28
o item_band_bolt
usemtl fluid_pipe
v 0.520568 0.818125 0.48125
v 0.5 0.83 0.48125
v 0.479432 0.818125 0.48125
v 0.479432 0.794375 0.48125
v 0.5 0.7825 0.48125
v 0.520568 0.794375 0.48125
v 0.520568 0.818125 0.51875
v 0.5 0.83 0.51875
v 0.479432 0.818125 0.51875
v 0.479432 0.794375 0.51875
v 0.5 0.7825 0.51875
v 0.520568 0.794375 0.51875
v 0.520568 0.818125 0.48125
v 0.5 0.83 0.48125
v 0.479432 0.818125 0.48125
v 0.479432 0.794375 0.48125
v 0.5 0.7825 0.48125
v 0.520568 0.794375 0.48125
v 0.520568 0.818125 0.51875
v 0.5 0.83 0.51875
v 0.479432 0.818125 0.51875
v 0.479432 0.794375 0.51875
v 0.5 0.7825 0.51875
v 0.520568 0.794375 0.51875
vt 0.015869 0.08667
vt 0.015869 0.083005
vt 0.021655 0.083005
vt 0.021655 0.08667
vt 0.979248 0.092529
vt 0.979248 0.088865
vt 0.985034 0.088865
vt 0.985034 0.092529
vt 0.942627 0.092529
vt 0.942627 0.088865
vt 0.948413 0.088865
vt 0.948413 0.092529
vt 0.986572 0.092529
vt 0.986572 0.088865
vt 0.992358 0.088865
vt 0.992358 0.092529
vt 0.001221 0.08667
vt 0.001221 0.083005
vt 0.007007 0.083005
vt 0.007007 0.08667
vt 0.949951 0.092529
vt 0.949951 0.088865
vt 0.955737 0.088865
vt 0.955737 0.092529
vt 0.017827 0.161621
vt 0.015995 0.164795
vt 0.01233 0.164795
vt 0.015995 0.158448
vt 0.017827 0.161621
vt 0.01233 0.164795
vt 0.01233 0.158448
vt 0.015995 0.158448
vt 0.01233 0.164795
vt 0.01233 0.164795
vt 0.010498 0.161621
vt 0.01233 0.158448
vt 0.021608 0.158448
vt 0.025272 0.158448
vt 0.027104 0.161621
vt 0.021608 0.158448
vt 0.027104 0.161621
vt 0.025272 0.164795
vt 0.021608 0.158448
vt 0.025272 0.164795
vt 0.021608 0.164795
vt 0.021608 0.164795
vt 0.019775 0.161621
vt 0.021608 0.158448
vn 0.5 0.866025 0
vn -0.5 0.866025 0
vn -1 0 0
vn -0.5 -0.866025 0
vn 0.5 -0.866025 0
vn 1 0 0
vn 0 0 -1
vn 0 0 1
f 161/329/29 162/330/29 168/331/29 167/332/29
f 162/333/30 163/334/30 169/335/30 168/336/30
f 163/337/31 164/338/31 170/339/31 169/340/31
f 164/341/32 165/342/32 171/343/32 170/344/32
f 165/345/33 166/346/33 172/347/33 171/348/33
f 166/349/34 161/350/34 167/351/34 172/352/34
f 174/353/35 173/354/35 178/355/35
f 175/356/35 174/357/35 178/358/35
f 176/359/35 175/360/35 178/361/35
f 178/362/35 177/363/35 176/364/35
f 184/365/36 179/366/36 180/367/36
f 184/368/36 180/369/36 181/370/36
f 184/371/36 181/372/36 182/373/36
f 182/374/36 183/375/36 184/376/36
o item_band_lug
usemtl fluid_pipe
v 0.453125 0.7875 0.471875
v 0.546875 0.7875 0.471875
v 0.546875 0.7875 0.528125
v 0.453125 0.7875 0.528125
v 0.453125 0.80625 0.471875
v 0.546875 0.80625 0.471875
v 0.546875 0.80625 0.528125
v 0.453125 0.80625 0.528125
v 0.453125 0.7875 0.471875
v 0.546875 0.7875 0.471875
v 0.546875 0.80625 0.471875
v 0.453125 0.80625 0.471875
v 0.453125 0.7875 0.528125
v 0.546875 0.7875 0.528125
v 0.546875 0.80625 0.528125
v 0.453125 0.80625 0.528125
v 0.453125 0.7875 0.471875
v 0.453125 0.7875 0.528125
v 0.453125 0.80625 0.528125
v 0.453125 0.80625 0.471875
v 0.546875 0.7875 0.471875
v 0.546875 0.7875 0.528125
v 0.546875 0.80625 0.528125
v 0.546875 0.80625 0.471875
vt 0.212646 0.167346
vt 0.227112 0.167346
vt 0.227112 0.176025
vt 0.212646 0.176025
vt 0.243225 0.176025
vt 0.22876 0.176025
vt 0.22876 0.167346
vt 0.243225 0.167346
vt 0.340881 0.081299
vt 0.326416 0.081299
vt 0.326416 0.078406
vt 0.340881 0.078406
vt 0.342529 0.078406
vt 0.356995 0.078406
vt 0.356995 0.081299
vt 0.342529 0.081299
vt 0.37915 0.078406
vt 0.38783 0.078406
vt 0.38783 0.081299
vt 0.37915 0.081299
vt 0.389404 0.078406
vt 0.398083 0.078406
vt 0.398083 0.081299
vt 0.389404 0.081299
vn 0 -1 0
vn 0 1 0
vn 0 0 -1
vn 0 0 1
vn -1 0 0
vn 1 0 0
f 185/377/37 186/378/37 187/379/37 188/380/37
f 192/381/38 191/382/38 190/383/38 189/384/38
f 196/385/39 195/386/39 194/387/39 193/388/39
f 197/389/40 198/390/40 199/391/40 200/392/40
f 201/393/41 202/394/41 203/395/41 204/396/41
f 208/397/42 207/398/42 206/399/42 205/400/42
o item_blind-1
usemtl fluid_pipe
v 0.16875 0.16875 0
v 0.83125 0.16875 0
v 0.83125 0.83125 0
v 0.16875 0.83125 0
v 0.1625 0.1625 0.00625
v 0.8375 0.1625 0.00625
v 0.8375 0.8375 0.00625
v 0.1625 0.8375 0.00625
v 0.1625 0.1625 0.04375
v 0.8375 0.1625 0.04375
v 0.8375 0.8375 0.04375
v 0.1625 0.8375 0.04375
v 0.16875 0.16875 0.05
v 0.83125 0.16875 0.05
v 0.83125 0.83125 0.05
v 0.16875 0.83125 0.05
v 0.16875 0.16875 0
v 0.83125 0.16875 0
v 0.83125 0.83125 0
v 0.16875 0.83125 0
v 0.16875 0.16875 0.05
v 0.83125 0.16875 0.05
v 0.83125 0.83125 0.05
v 0.16875 0.83125 0.05
vt 0.743884 0.063333
vt 0.846106 0.063333
vt 0.84707 0.064697
vt 0.74292 0.064697
vt 0.743884 0.031107
vt 0.846106 0.031107
vt 0.84707 0.032471
vt 0.74292 0.032471
vt 0.849841 0.063333
vt 0.952063 0.063333
vt 0.953027 0.064697
vt 0.848877 0.064697
vt 0.849841 0.031107
vt 0.952063 0.031107
vt 0.953027 0.032471
vt 0.848877 0.032471
vt 0.213135 0.143872
vt 0.317285 0.143872
vt 0.317285 0.149658
vt 0.213135 0.149658
vt 0.319092 0.143872
vt 0.423242 0.143872
vt 0.423242 0.149658
vt 0.319092 0.149658
vt 0.425049 0.143872
vt 0.529199 0.143872
vt 0.529199 0.149658
vt 0.425049 0.149658
vt 0.531006 0.143872
vt 0.635156 0.143872
vt 0.635156 0.149658
vt 0.531006 0.149658
vt 0.319092 0.019388
vt 0.423242 0.019388
vt 0.422278 0.020752
vt 0.320056 0.020752
vt 0.001221 0.060404
vt 0.105371 0.060404
vt 0.104407 0.061768
vt 0.002185 0.061768
vt 0.425049 0.019388
vt 0.529199 0.019388
vt 0.528235 0.020752
vt 0.426013 0.020752
vt 0.107178 0.060404
vt 0.211328 0.060404
vt 0.210364 0.061768
vt 0.108142 0.061768
vt 0.001221 0.790771
vt 0.001221 0.68855
vt 0.103442 0.68855
vt 0.103442 0.68855
vt 0.103442 0.790771
vt 0.001221 0.790771
vt 0.207446 0.790771
vt 0.105225 0.790771
vt 0.105225 0.68855
vt 0.105225 0.68855
vt 0.207446 0.68855
vt 0.207446 0.790771
vn 0 -0.707107 -0.707107
vn 0.707107 0 -0.707107
vn 0 0.707107 -0.707107
vn -0.707107 0 -0.707107
vn 0 -1 0
vn 1 0 0
vn 0 1 0
vn -1 0 0
vn 0 -0.707107 0.707107
vn 0.707107 0 0.707107
vn 0 0.707107 0.707107
vn -0.707107 0 0.707107
vn 0 0 -1
vn 0 0 1
f 209/401/43 210/402/43 214/403/43 213/404/43
f 210/405/44 211/406/44 215/407/44 214/408/44
f 211/409/45 212/410/45 216/411/45 215/412/45
f 212/413/46 209/414/46 213/415/46 216/416/46
f 213/417/47 214/418/47 218/419/47 217/420/47
f 214/421/48 215/422/48 219/423/48 218/424/48
f 215/425/49 216/426/49 220/427/49 219/428/49
f 216/429/50 213/430/50 217/431/50 220/432/50
f 217/433/51 218/434/51 222/435/51 221/436/51
f 218/437/52 219/438/52 223/439/52 222/440/52
f 219/441/53 220/442/53 224/443/53 223/444/53
f 220/445/54 217/446/54 221/447/54 224/448/54
f 226/449/55 225/450/55 228/451/55
f 228/452/55 227/453/55 226/454/55
f 232/455/56 229/456/56 230/457/56
f 230/458/56 231/459/56 232/460/56
o item_flange-1
usemtl fluid_pipe
v 0.16875 0.16875 0.05
v 0.83125 0.16875 0.05
v 0.83125 0.83125 0.05
v 0.16875 0.83125 0.05
v 0.1625 0.1625 0.05625
v 0.8375 0.1625 0.05625
v 0.8375 0.8375 0.05625
v 0.1625 0.8375 0.05625
v 0.1625 0.1625 0.09375
v 0.8375 0.1625 0.09375
v 0.8375 0.8375 0.09375
v 0.1625 0.8375 0.09375
v 0.16875 0.16875 0.1
v 0.83125 0.16875 0.1
v 0.83125 0.83125 0.1
v 0.16875 0.83125 0.1
v 0.24375 0.75625 0.05
v 0.75625 0.75625 0.05
v 0.75625 0.24375 0.05
v 0.24375 0.24375 0.05
v 0.25 0.75 0.05625
v 0.75 0.75 0.05625
v 0.75 0.25 0.05625
v 0.25 0.25 0.05625
v 0.25 0.75 0.09375
v 0.75 0.75 0.09375
v 0.75 0.25 0.09375
v 0.25 0.25 0.09375
v 0.24375 0.75625 0.1
v 0.75625 0.75625 0.1
v 0.75625 0.24375 0.1
v 0.24375 0.24375 0.1
v 0.16875 0.16875 0.05
v 0.83125 0.16875 0.05
v 0.83125 0.83125 0.05
v 0.16875 0.83125 0.05
v 0.24375 0.75625 0.05
v 0.75625 0.75625 0.05
v 0.75625 0.24375 0.05
v 0.24375 0.24375 0.05
v 0.16875 0.16875 0.1
v 0.83125 0.16875 0.1
v 0.83125 0.83125 0.1
v 0.16875 0.83125 0.1
v 0.24375 0.75625 0.1
v 0.75625 0.75625 0.1
v 0.75625 0.24375 0.1
v 0.24375 0.24375 0.1
vt 0.214099 0.060404
vt 0.316321 0.060404
vt 0.317285 0.061768
vt 0.213135 0.061768
vt 0.320056 0.060404
vt 0.422278 0.060404
vt 0.423242 0.061768
vt 0.319092 0.061768
vt 0.426013 0.060404
vt 0.528235 0.060404
vt 0.529199 0.061768
vt 0.425049 0.061768
vt 0.53197 0.060404
vt 0.634192 0.060404
vt 0.635156 0.061768
vt 0.531006 0.061768
vt 0.636963 0.143872
vt 0.741113 0.143872
vt 0.741113 0.149658
vt 0.636963 0.149658
vt 0.74292 0.143872
vt 0.84707 0.143872
vt 0.84707 0.149658
vt 0.74292 0.149658
vt 0.848877 0.143872
vt 0.953027 0.143872
vt 0.953027 0.149658
vt 0.848877 0.149658
vt 0.001221 0.136548
vt 0.105371 0.136548
vt 0.105371 0.142334
vt 0.001221 0.142334
vt 0.636963 0.060404
vt 0.741113 0.060404
vt 0.740149 0.061768
vt 0.637927 0.061768
vt 0.74292 0.060404
vt 0.84707 0.060404
vt 0.846106 0.061768
vt 0.743884 0.061768
vt 0.848877 0.060404
vt 0.953027 0.060404
vt 0.952063 0.061768
vt 0.849841 0.061768
vt 0.001221 0.057474
vt 0.105371 0.057474
vt 0.104407 0.058838
vt 0.002185 0.058838
vt 0.806885 0.039896
vt 0.885962 0.039896
vt 0.884998 0.04126
vt 0.807849 0.04126
vt 0.319092 0.022318
vt 0.398169 0.022318
vt 0.397205 0.023682
vt 0.320056 0.023682
vt 0.887451 0.039896
vt 0.966528 0.039896
vt 0.965564 0.04126
vt 0.888416 0.04126
vt 0.399658 0.022318
vt 0.478735 0.022318
vt 0.477771 0.023682
vt 0.400623 0.023682
vt 0.630127 0.121899
vt 0.707275 0.121899
vt 0.707275 0.127686
vt 0.630127 0.127686
vt 0.70874 0.121899
vt 0.785889 0.121899
vt 0.785889 0.127686
vt 0.70874 0.127686
vt 0.787354 0.121899
vt 0.864502 0.121899
vt 0.864502 0.127686
vt 0.787354 0.127686
vt 0.865967 0.121899
vt 0.943115 0.121899
vt 0.943115 0.127686
vt 0.865967 0.127686
vt 0.002185 0.036966
vt 0.079333 0.036966
vt 0.080298 0.03833
vt 0.001221 0.03833
vt 0.324451 0.034037
vt 0.401599 0.034037
vt 0.402563 0.0354
vt 0.323486 0.0354
vt 0.082751 0.036966
vt 0.1599 0.036966
vt 0.160864 0.03833
vt 0.081787 0.03833
vt 0.405017 0.034037
vt 0.482166 0.034037
vt 0.48313 0.0354
vt 0.404053 0.0354
vt 0.299878 0.779199
vt 0.31145 0.790771
vt 0.209229 0.790771
vt 0.220801 0.779199
vt 0.299878 0.779199
vt 0.209229 0.790771
vt 0.220801 0.779199
vt 0.209229 0.790771
vt 0.209229 0.68855
vt 0.220801 0.700122
vt 0.220801 0.779199
vt 0.209229 0.68855
vt 0.220801 0.700122
vt 0.209229 0.68855
vt 0.31145 0.68855
vt 0.299878 0.700122
vt 0.220801 0.700122
vt 0.31145 0.68855
vt 0.299878 0.779199
vt 0.299878 0.700122
vt 0.31145 0.68855
vt 0.31145 0.68855
vt 0.31145 0.790771
vt 0.299878 0.779199
vt 0.313232 0.68855
vt 0.415454 0.68855
vt 0.403882 0.700122
vt 0.313232 0.68855
vt 0.403882 0.700122
vt 0.324805 0.700122
vt 0.313232 0.790771
vt 0.313232 0.68855
vt 0.324805 0.700122
vt 0.313232 0.790771
vt 0.324805 0.700122
vt 0.324805 0.779199
vt 0.415454 0.790771
vt 0.313232 0.790771
vt 0.324805 0.779199
vt 0.415454 0.790771
vt 0.324805 0.779199
vt 0.403882 0.779199
vt 0.415454 0.790771
vt 0.403882 0.779199
vt 0.403882 0.700122
vt 0.403882 0.700122
vt 0.415454 0.68855
vt 0.415454 0.790771
vn 0 -0.707107 -0.707107
vn 0.707107 0 -0.707107
vn 0 0.707107 -0.707107
vn -0.707107 0 -0.707107
vn 0 -1 0
vn 1 0 0
vn 0 1 0
vn -1 0 0
vn 0 -0.707107 0.707107
vn 0.707107 0 0.707107
vn 0 0.707107 0.707107
vn -0.707107 0 0.707107
vn 0 0 -1
vn 0 0 1
f 233/461/57 234/462/57 238/463/57 237/464/57
f 234/465/58 235/466/58 239/467/58 238/468/58
f 235/469/59 236/470/59 240/471/59 239/472/59
f 236/473/60 233/474/60 237/475/60 240/476/60
f 237/477/61 238/478/61 242/479/61 241/480/61
f 238/481/62 239/482/62 243/483/62 242/484/62
f 239/485/63 240/486/63 244/487/63 243/488/63
f 240/489/64 237/490/64 241/491/64 244/492/64
f 241/493/65 242/494/65 246/495/65 245/496/65
f 242/497/66 243/498/66 247/499/66 246/500/66
f 243/501/67 244/502/67 248/503/67 247/504/67
f 244/505/68 241/506/68 245/507/68 248/508/68
f 249/509/57 250/510/57 254/511/57 253/512/57
f 250/513/60 251/514/60 255/515/60 254/516/60
f 251/517/59 252/518/59 256/519/59 255/520/59
f 252/521/58 249/522/58 253/523/58 256/524/58
f 253/525/61 254/526/61 258/527/61 257/528/61
f 254/529/64 255/530/64 259/531/64 258/532/64
f 255/533/63 256/534/63 260/535/63 259/536/63
f 256/537/62 253/538/62 257/539/62 260/540/62
f 257/541/65 258/542/65 262/543/65 261/544/65
f 258/545/68 259/546/68 263/547/68 262/548/68
f 259/549/67 260/550/67 264/551/67 263/552/67
f 260/553/66 257/554/66 261/555/66 264/556/66
f 270/557/69 267/558/69 266/559/69
f 271/560/69 270/561/69 266/562/69
f 271/563/69 266/564/69 265/565/69
f 272/566/69 271/567/69 265/568/69
f 272/569/69 265/570/69 268/571/69
f 269/572/69 272/573/69 268/574/69
f 270/575/69 269/576/69 268/577/69
f 268/578/69 267/579/69 270/580/69
f 274/581/70 275/582/70 278/583/70
f 274/584/70 278/585/70 279/586/70
f 273/587/70 274/588/70 279/589/70
f 273/590/70 279/591/70 280/592/70
f 276/593/70 273/594/70 280/595/70
f 276/596/70 280/597/70 277/598/70
f 276/599/70 277/600/70 278/601/70
f 278/602/70 275/603/70 276/604/70
o item_flange-1_nuts
usemtl fluid_pipe
v 0.232108 0.2225 -0.021875
v 0.209375 0.235625 -0.021875
v 0.186642 0.2225 -0.021875
v 0.186642 0.19625 -0.021875
v 0.209375 0.183125 -0.021875
v 0.232108 0.19625 -0.021875
v 0.232108 0.2225 0
v 0.209375 0.235625 0
v 0.186642 0.2225 0
v 0.186642 0.19625 0
v 0.209375 0.183125 0
v 0.232108 0.19625 0
v 0.232108 0.2225 -0.021875
v 0.209375 0.235625 -0.021875
v 0.186642 0.2225 -0.021875
v 0.186642 0.19625 -0.021875
v 0.209375 0.183125 -0.021875
v 0.232108 0.19625 -0.021875
v 0.232108 0.2225 0
v 0.209375 0.235625 0
v 0.186642 0.2225 0
v 0.186642 0.19625 0
v 0.209375 0.183125 0
v 0.232108 0.19625 0
v 0.232108 0.80375 -0.021875
v 0.209375 0.816875 -0.021875
v 0.186642 0.80375 -0.021875
v 0.186642 0.7775 -0.021875
v 0.209375 0.764375 -0.021875
v 0.232108 0.7775 -0.021875
v 0.232108 0.80375 0
v 0.209375 0.816875 0
v 0.186642 0.80375 0
v 0.186642 0.7775 0
v 0.209375 0.764375 0
v 0.232108 0.7775 0
v 0.232108 0.80375 -0.021875
v 0.209375 0.816875 -0.021875
v 0.186642 0.80375 -0.021875
v 0.186642 0.7775 -0.021875
v 0.209375 0.764375 -0.021875
v 0.232108 0.7775 -0.021875
v 0.232108 0.80375 0
v 0.209375 0.816875 0
v 0.186642 0.80375 0
v 0.186642 0.7775 0
v 0.209375 0.764375 0
v 0.232108 0.7775 0
v 0.813358 0.2225 -0.021875
v 0.790625 0.235625 -0.021875
v 0.767892 0.2225 -0.021875
v 0.767892 0.19625 -0.021875
v 0.790625 0.183125 -0.021875
v 0.813358 0.19625 -0.021875
v 0.813358 0.2225 0
v 0.790625 0.235625 0
v 0.767892 0.2225 0
v 0.767892 0.19625 0
v 0.790625 0.183125 0
v 0.813358 0.19625 0
v 0.813358 0.2225 -0.021875
v 0.790625 0.235625 -0.021875
v 0.767892 0.2225 -0.021875
v 0.767892 0.19625 -0.021875
v 0.790625 0.183125 -0.021875
v 0.813358 0.19625 -0.021875
v 0.813358 0.2225 0
v 0.790625 0.235625 0
v 0.767892 0.2225 0
v 0.767892 0.19625 0
v 0.790625 0.183125 0
v 0.813358 0.19625 0
v 0.813358 0.80375 -0.021875
v 0.790625 0.816875 -0.021875
v 0.767892 0.80375 -0.021875
v 0.767892 0.7775 -0.021875
v 0.790625 0.764375 -0.021875
v 0.813358 0.7775 -0.021875
v 0.813358 0.80375 0
v 0.790625 0.816875 0
v 0.767892 0.80375 0
v 0.767892 0.7775 0
v 0.790625 0.764375 0
v 0.813358 0.7775 0
v 0.813358 0.80375 -0.021875
v 0.790625 0.816875 -0.021875
v 0.767892 0.80375 -0.021875
v 0.767892 0.7775 -0.021875
v 0.790625 0.764375 -0.021875
v 0.813358 0.7775 -0.021875
v 0.813358 0.80375 0
v 0.790625 0.816875 0
v 0.767892 0.80375 0
v 0.767892 0.7775 0
v 0.790625 0.764375 0
v 0.813358 0.7775 0
vt 0.059814 0.077924
vt 0.063865 0.077924
vt 0.063865 0.081299
vt 0.059814 0.081299
vt 0.065674 0.077924
vt 0.069724 0.077924
vt 0.069724 0.081299
vt 0.065674 0.081299
vt 0.071533 0.077924
vt 0.075583 0.077924
vt 0.075583 0.081299
vt 0.071533 0.081299
vt 0.421631 0.083295
vt 0.425681 0.083295
vt 0.425681 0.08667
vt 0.421631 0.08667
vt 0.077393 0.077924
vt 0.081443 0.077924
vt 0.081443 0.081299
vt 0.077393 0.081299
vt 0.083252 0.077924
vt 0.087302 0.077924
vt 0.087302 0.081299
vt 0.083252 0.081299
vt 0.838911 0.172518
vt 0.836886 0.176025
vt 0.832836 0.176025
vt 0.836886 0.16901
vt 0.838911 0.172518
vt 0.832836 0.176025
vt 0.832836 0.16901
vt 0.836886 0.16901
vt 0.832836 0.176025
vt 0.832836 0.176025
vt 0.830811 0.172518
vt 0.832836 0.16901
vt 0.842601 0.16901
vt 0.846652 0.16901
vt 0.848677 0.172518
vt 0.842601 0.16901
vt 0.848677 0.172518
vt 0.846652 0.176025
vt 0.842601 0.16901
vt 0.846652 0.176025
vt 0.842601 0.176025
vt 0.842601 0.176025
vt 0.840576 0.172518
vt 0.842601 0.16901
vt 0.089111 0.077924
vt 0.093162 0.077924
vt 0.093162 0.081299
vt 0.089111 0.081299
vt 0.42749 0.083295
vt 0.431541 0.083295
vt 0.431541 0.08667
vt 0.42749 0.08667
vt 0.094971 0.077924
vt 0.099021 0.077924
vt 0.099021 0.081299
vt 0.094971 0.081299
vt 0.10083 0.077924
vt 0.10488 0.077924
vt 0.10488 0.081299
vt 0.10083 0.081299
vt 0.106689 0.077924
vt 0.11074 0.077924
vt 0.11074 0.081299
vt 0.106689 0.081299
vt 0.112549 0.077924
vt 0.116599 0.077924
vt 0.116599 0.081299
vt 0.112549 0.081299
vt 0.858442 0.172518
vt 0.856417 0.176025
vt 0.852367 0.176025
vt 0.856417 0.16901
vt 0.858442 0.172518
vt 0.852367 0.176025
vt 0.852367 0.16901
vt 0.856417 0.16901
vt 0.852367 0.176025
vt 0.852367 0.176025
vt 0.850342 0.172518
vt 0.852367 0.16901
vt 0.862133 0.16901
vt 0.866183 0.16901
vt 0.868208 0.172518
vt 0.862133 0.16901
vt 0.868208 0.172518
vt 0.866183 0.176025
vt 0.862133 0.16901
vt 0.866183 0.176025
vt 0.862133 0.176025
vt 0.862133 0.176025
vt 0.860107 0.172518
vt 0.862133 0.16901
vt 0.118408 0.077924
vt 0.122458 0.077924
vt 0.122458 0.081299
vt 0.118408 0.081299
vt 0.124268 0.077924
vt 0.128318 0.077924
vt 0.128318 0.081299
vt 0.124268 0.081299
vt 0.130127 0.077924
vt 0.134177 0.077924
vt 0.134177 0.081299
vt 0.130127 0.081299
vt 0.135986 0.077924
vt 0.140037 0.077924
vt 0.140037 0.081299
vt 0.135986 0.081299
vt 0.43335 0.083295
vt 0.4374 0.083295
vt 0.4374 0.08667
vt 0.43335 0.08667
vt 0.141846 0.077924
vt 0.145896 0.077924
vt 0.145896 0.081299
vt 0.141846 0.081299
vt 0.877974 0.172518
vt 0.875948 0.176025
vt 0.871898 0.176025
vt 0.875948 0.16901
vt 0.877974 0.172518
vt 0.871898 0.176025
vt 0.871898 0.16901
vt 0.875948 0.16901
vt 0.871898 0.176025
vt 0.871898 0.176025
vt 0.869873 0.172518
vt 0.871898 0.16901
vt 0.881664 0.16901
vt 0.885714 0.16901
vt 0.887739 0.172518
vt 0.881664 0.16901
vt 0.887739 0.172518
vt 0.885714 0.176025
vt 0.881664 0.16901
vt 0.885714 0.176025
vt 0.881664 0.176025
vt 0.881664 0.176025
vt 0.879639 0.172518
vt 0.881664 0.16901
vt 0.439209 0.083295
vt 0.443259 0.083295
vt 0.443259 0.08667
vt 0.439209 0.08667
vt 0.147705 0.077924
vt 0.151755 0.077924
vt 0.151755 0.081299
vt 0.147705 0.081299
vt 0.153564 0.077924
vt 0.157615 0.077924
vt 0.157615 0.081299
vt 0.153564 0.081299
vt 0.159424 0.077924
vt 0.163474 0.077924
vt 0.163474 0.081299
vt 0.159424 0.081299
vt 0.165283 0.077924
vt 0.169333 0.077924
vt 0.169333 0.081299
vt 0.165283 0.081299
vt 0.171143 0.077924
vt 0.175193 0.077924
vt 0.175193 0.081299
vt 0.171143 0.081299
vt 0.897505 0.172518
vt 0.89548 0.176025
vt 0.891429 0.176025
vt 0.89548 0.16901
vt 0.897505 0.172518
vt 0.891429 0.176025
vt 0.891429 0.16901
vt 0.89548 0.16901
vt 0.891429 0.176025
vt 0.891429 0.176025
vt 0.889404 0.172518
vt 0.891429 0.16901
vt 0.901195 0.16901
vt 0.905245 0.16901
vt 0.907271 0.172518
vt 0.901195 0.16901
vt 0.907271 0.172518
vt 0.905245 0.176025
vt 0.901195 0.16901
vt 0.905245 0.176025
vt 0.901195 0.176025
vt 0.901195 0.176025
vt 0.89917 0.172518
vt 0.901195 0.16901
vn 0.5 0.866025 0
vn -0.5 0.866025 0
vn -1 0 0
vn -0.5 -0.866025 0
vn 0.5 -0.866025 0
vn 1 0 0
vn 0 0 -1
vn 0 0 1
f 281/605/71 282/606/71 288/607/71 287/608/71
f 282/609/72 283/610/72 289/611/72 288/612/72
f 283/613/73 284/614/73 290/615/73 289/616/73
f 284/617/74 285/618/74 291/619/74 290/620/74
f 285/621/75 286/622/75 292/623/75 291/624/75
f 286/625/76 281/626/76 287/627/76 292/628/76
f 294/629/77 293/630/77 298/631/77
f 295/632/77 294/633/77 298/634/77
f 296/635/77 295/636/77 298/637/77
f 298/638/77 297/639/77 296/640/77
f 304/641/78 299/642/78 300/643/78
f 304/644/78 300/645/78 301/646/78
f 304/647/78 301/648/78 302/649/78
f 302/650/78 303/651/78 304/652/78
f 305/653/71 306/654/71 312/655/71 311/656/71
f 306/657/72 307/658/72 313/659/72 312/660/72
f 307/661/73 308/662/73 314/663/73 313/664/73
f 308/665/74 309/666/74 315/667/74 314/668/74
f 309/669/75 310/670/75 316/671/75 315/672/75
f 310/673/76 305/674/76 311/675/76 316/676/76
f 318/677/77 317/678/77 322/679/77
f 319/680/77 318/681/77 322/682/77
f 320/683/77 319/684/77 322/685/77
f 322/686/77 321/687/77 320/688/77
f 328/689/78 323/690/78 324/691/78
f 328/692/78 324/693/78 325/694/78
f 328/695/78 325/696/78 326/697/78
f 326/698/78 327/699/78 328/700/78
f 329/701/71 330/702/71 336/703/71 335/704/71
f 330/705/72 331/706/72 337/707/72 336/708/72
f 331/709/73 332/710/73 338/711/73 337/712/73
f 332/713/74 333/714/74 339/715/74 338/716/74
f 333/717/75 334/718/75 340/719/75 339/720/75
f 334/721/76 329/722/76 335/723/76 340/724/76
f 342/725/77 341/726/77 346/727/77
f 343/728/77 342/729/77 346/730/77
f 344/731/77 343/732/77 346/733/77
f 346/734/77 345/735/77 344/736/77
f 352/737/78 347/738/78 348/739/78
f 352/740/78 348/741/78 349/742/78
f 352/743/78 349/744/78 350/745/78
f 350/746/78 351/747/78 352/748/78
f 353/749/71 354/750/71 360/751/71 359/752/71
f 354/753/72 355/754/72 361/755/72 360/756/72
f 355/757/73 356/758/73 362/759/73 361/760/73
f 356/761/74 357/762/74 363/763/74 362/764/74
f 357/765/75 358/766/75 364/767/75 363/768/75
f 358/769/76 353/770/76 359/771/76 364/772/76
f 366/773/77 365/774/77 370/775/77
f 367/776/77 366/777/77 370/778/77
f 368/779/77 367/780/77 370/781/77
f 370/782/77 369/783/77 368/784/77
f 376/785/78 371/786/78 372/787/78
f 376/788/78 372/789/78 373/790/78
f 376/791/78 373/792/78 374/793/78
f 374/794/78 375/795/78 376/796/78
o item_blind1
usemtl fluid_pipe
v 0.16875 0.16875 0.95
v 0.83125 0.16875 0.95
v 0.83125 0.83125 0.95
v 0.16875 0.83125 0.95
v 0.1625 0.1625 0.95625
v 0.8375 0.1625 0.95625
v 0.8375 0.8375 0.95625
v 0.1625 0.8375 0.95625
v 0.1625 0.1625 0.99375
v 0.8375 0.1625 0.99375
v 0.8375 0.8375 0.99375
v 0.1625 0.8375 0.99375
v 0.16875 0.16875 1
v 0.83125 0.16875 1
v 0.83125 0.83125 1
v 0.16875 0.83125 1
v 0.16875 0.16875 0.95
v 0.83125 0.16875 0.95
v 0.83125 0.83125 0.95
v 0.16875 0.83125 0.95
v 0.16875 0.16875 1
v 0.83125 0.16875 1
v 0.83125 0.83125 1
v 0.16875 0.83125 1
vt 0.53197 0.019388
vt 0.634192 0.019388
vt 0.635156 0.020752
vt 0.531006 0.020752
vt 0.108142 0.057474
vt 0.210364 0.057474
vt 0.211328 0.058838
vt 0.107178 0.058838
vt 0.637927 0.019388
vt 0.740149 0.019388
vt 0.741113 0.020752
vt 0.636963 0.020752
vt 0.214099 0.057474
vt 0.316321 0.057474
vt 0.317285 0.058838
vt 0.213135 0.058838
vt 0.107178 0.136548
vt 0.211328 0.136548
vt 0.211328 0.142334
vt 0.107178 0.142334
vt 0.213135 0.136548
vt 0.317285 0.136548
vt 0.317285 0.142334
vt 0.213135 0.142334
vt 0.319092 0.136548
vt 0.423242 0.136548
vt 0.423242 0.142334
vt 0.319092 0.142334
vt 0.425049 0.136548
vt 0.529199 0.136548
vt 0.529199 0.142334
vt 0.425049 0.142334
vt 0.319092 0.057474
vt 0.423242 0.057474
vt 0.422278 0.058838
vt 0.320056 0.058838
vt 0.001221 0.028177
vt 0.105371 0.028177
vt 0.104407 0.029541
vt 0.002185 0.029541
vt 0.425049 0.057474
vt 0.529199 0.057474
vt 0.528235 0.058838
vt 0.426013 0.058838
vt 0.107178 0.028177
vt 0.211328 0.028177
vt 0.210364 0.029541
vt 0.108142 0.029541
vt 0.417236 0.790771
vt 0.417236 0.68855
vt 0.519458 0.68855
vt 0.519458 0.68855
vt 0.519458 0.790771
vt 0.417236 0.790771
vt 0.623462 0.790771
vt 0.52124 0.790771
vt 0.52124 0.68855
vt 0.52124 0.68855
vt 0.623462 0.68855
vt 0.623462 0.790771
vn 0 -0.707107 -0.707107
vn 0.707107 0 -0.707107
vn 0 0.707107 -0.707107
vn -0.707107 0 -0.707107
vn 0 -1 0
vn 1 0 0
vn 0 1 0
vn -1 0 0
vn 0 -0.707107 0.707107
vn 0.707107 0 0.707107
vn 0 0.707107 0.707107
vn -0.707107 0 0.707107
vn 0 0 -1
vn 0 0 1
f 377/797/79 378/798/79 382/799/79 381/800/79
f 378/801/80 379/802/80 383/803/80 382/804/80
f 379/805/81 380/806/81 384/807/81 383/808/81
f 380/809/82 377/810/82 381/811/82 384/812/82
f 381/813/83 382/814/83 386/815/83 385/816/83
f 382/817/84 383/818/84 387/819/84 386/820/84
f 383/821/85 384/822/85 388/823/85 387/824/85
f 384/825/86 381/826/86 385/827/86 388/828/86
f 385/829/87 386/830/87 390/831/87 389/832/87
f 386/833/88 387/834/88 391/835/88 390/836/88
f 387/837/89 388/838/89 392/839/89 391/840/89
f 388/841/90 385/842/90 389/843/90 392/844/90
f 394/845/91 393/846/91 396/847/91
f 396/848/91 395/849/91 394/850/91
f 400/851/92 397/852/92 398/853/92
f 398/854/92 399/855/92 400/856/92
o item_flange1
usemtl fluid_pipe
v 0.16875 0.16875 0.9
v 0.83125 0.16875 0.9
v 0.83125 0.83125 0.9
v 0.16875 0.83125 0.9
v 0.1625 0.1625 0.90625
v 0.8375 0.1625 0.90625
v 0.8375 0.8375 0.90625
v 0.1625 0.8375 0.90625
v 0.1625 0.1625 0.94375
v 0.8375 0.1625 0.94375
v 0.8375 0.8375 0.94375
v 0.1625 0.8375 0.94375
v 0.16875 0.16875 0.95
v 0.83125 0.16875 0.95
v 0.83125 0.83125 0.95
v 0.16875 0.83125 0.95
v 0.24375 0.75625 0.9
v 0.75625 0.75625 0.9
v 0.75625 0.24375 0.9
v 0.24375 0.24375 0.9
v 0.25 0.75 0.90625
v 0.75 0.75 0.90625
v 0.75 0.25 0.90625
v 0.25 0.25 0.90625
v 0.25 0.75 0.94375
v 0.75 0.75 0.94375
v 0.75 0.25 0.94375
v 0.25 0.25 0.94375
v 0.24375 0.75625 0.95
v 0.75625 0.75625 0.95
v 0.75625 0.24375 0.95
v 0.24375 0.24375 0.95
v 0.16875 0.16875 0.9
v 0.83125 0.16875 0.9
v 0.83125 0.83125 0.9
v 0.16875 0.83125 0.9
v 0.24375 0.75625 0.9
v 0.75625 0.75625 0.9
v 0.75625 0.24375 0.9
v 0.24375 0.24375 0.9
v 0.16875 0.16875 0.95
v 0.83125 0.16875 0.95
v 0.83125 0.83125 0.95
v 0.16875 0.83125 0.95
v 0.24375 0.75625 0.95
v 0.75625 0.75625 0.95
v 0.75625 0.24375 0.95
v 0.24375 0.24375 0.95
vt 0.53197 0.057474
vt 0.634192 0.057474
vt 0.635156 0.058838
vt 0.531006 0.058838
vt 0.637927 0.057474
vt 0.740149 0.057474
vt 0.741113 0.058838
vt 0.636963 0.058838
vt 0.743884 0.057474
vt 0.846106 0.057474
vt 0.84707 0.058838
vt 0.74292 0.058838
vt 0.849841 0.057474
vt 0.952063 0.057474
vt 0.953027 0.058838
vt 0.848877 0.058838
vt 0.531006 0.136548
vt 0.635156 0.136548
vt 0.635156 0.142334
vt 0.531006 0.142334
vt 0.636963 0.136548
vt 0.741113 0.136548
vt 0.741113 0.142334
vt 0.636963 0.142334
vt 0.74292 0.136548
vt 0.84707 0.136548
vt 0.84707 0.142334
vt 0.74292 0.142334
vt 0.848877 0.136548
vt 0.953027 0.136548
vt 0.953027 0.142334
vt 0.848877 0.142334
vt 0.001221 0.054544
vt 0.105371 0.054544
vt 0.104407 0.055908
vt 0.002185 0.055908
vt 0.107178 0.054544
vt 0.211328 0.054544
vt 0.210364 0.055908
vt 0.108142 0.055908
vt 0.213135 0.054544
vt 0.317285 0.054544
vt 0.316321 0.055908
vt 0.214099 0.055908
vt 0.319092 0.054544
vt 0.423242 0.054544
vt 0.422278 0.055908
vt 0.320056 0.055908
vt 0.162354 0.036966
vt 0.241431 0.036966
vt 0.240466 0.03833
vt 0.163318 0.03833
vt 0.484619 0.034037
vt 0.563696 0.034037
vt 0.562732 0.0354
vt 0.485583 0.0354
vt 0.24292 0.036966
vt 0.321997 0.036966
vt 0.321033 0.03833
vt 0.243884 0.03833
vt 0.565186 0.034037
vt 0.644263 0.034037
vt 0.643298 0.0354
vt 0.56615 0.0354
vt 0.001221 0.114575
vt 0.078369 0.114575
vt 0.078369 0.120361
vt 0.001221 0.120361
vt 0.079834 0.114575
vt 0.156982 0.114575
vt 0.156982 0.120361
vt 0.079834 0.120361
vt 0.158447 0.114575
vt 0.235596 0.114575
vt 0.235596 0.120361
vt 0.158447 0.120361
vt 0.237061 0.114575
vt 0.314209 0.114575
vt 0.314209 0.120361
vt 0.237061 0.120361
vt 0.324451 0.036966
vt 0.401599 0.036966
vt 0.402563 0.03833
vt 0.323486 0.03833
vt 0.481189 0.022318
vt 0.558337 0.022318
vt 0.559302 0.023682
vt 0.480225 0.023682
vt 0.405017 0.036966
vt 0.482166 0.036966
vt 0.48313 0.03833
vt 0.404053 0.03833
vt 0.561755 0.022318
vt 0.638904 0.022318
vt 0.639868 0.023682
vt 0.560791 0.023682
vt 0.715894 0.779199
vt 0.727466 0.790771
vt 0.625244 0.790771
vt 0.636816 0.779199
vt 0.715894 0.779199
vt 0.625244 0.790771
vt 0.636816 0.779199
vt 0.625244 0.790771
vt 0.625244 0.68855
vt 0.636816 0.700122
vt 0.636816 0.779199
vt 0.625244 0.68855
vt 0.636816 0.700122
vt 0.625244 0.68855
vt 0.727466 0.68855
vt 0.715894 0.700122
vt 0.636816 0.700122
vt 0.727466 0.68855
vt 0.715894 0.779199
vt 0.715894 0.700122
vt 0.727466 0.68855
vt 0.727466 0.68855
vt 0.727466 0.790771
vt 0.715894 0.779199
vt 0.729248 0.68855
vt 0.83147 0.68855
vt 0.819897 0.700122
vt 0.729248 0.68855
vt 0.819897 0.700122
vt 0.74082 0.700122
vt 0.729248 0.790771
vt 0.729248 0.68855
vt 0.74082 0.700122
vt 0.729248 0.790771
vt 0.74082 0.700122
vt 0.74082 0.779199
vt 0.83147 0.790771
vt 0.729248 0.790771
vt 0.74082 0.779199
vt 0.83147 0.790771
vt 0.74082 0.779199
vt 0.819897 0.779199
vt 0.83147 0.790771
vt 0.819897 0.779199
vt 0.819897 0.700122
vt 0.819897 0.700122
vt 0.83147 0.68855
vt 0.83147 0.790771
vn 0 -0.707107 -0.707107
vn 0.707107 0 -0.707107
vn 0 0.707107 -0.707107
vn -0.707107 0 -0.707107
vn 0 -1 0
vn 1 0 0
vn 0 1 0
vn -1 0 0
vn 0 -0.707107 0.707107
vn 0.707107 0 0.707107
vn 0 0.707107 0.707107
vn -0.707107 0 0.707107
vn 0 0 -1
vn 0 0 1
f 401/857/93 402/858/93 406/859/93 405/860/93
f 402/861/94 403/862/94 407/863/94 406/864/94
f 403/865/95 404/866/95 408/867/95 407/868/95
f 404/869/96 401/870/96 405/871/96 408/872/96
f 405/873/97 406/874/97 410/875/97 409/876/97
f 406/877/98 407/878/98 411/879/98 410/880/98
f 407/881/99 408/882/99 412/883/99 411/884/99
f 408/885/100 405/886/100 409/887/100 412/888/100
f 409/889/101 410/890/101 414/891/101 413/892/101
f 410/893/102 411/894/102 415/895/102 414/896/102
f 411/897/103 412/898/103 416/899/103 415/900/103
f 412/901/104 409/902/104 413/903/104 416/904/104
f 417/905/93 418/906/93 422/907/93 421/908/93
f 418/909/96 419/910/96 423/911/96 422/912/96
f 419/913/95 420/914/95 424/915/95 423/916/95
f 420/917/94 417/918/94 421/919/94 424/920/94
f 421/921/97 422/922/97 426/923/97 425/924/97
f 422/925/100 423/926/100 427/927/100 426/928/100
f 423/929/99 424/930/99 428/931/99 427/932/99
f 424/933/98 421/934/98 425/935/98 428/936/98
f 425/937/101 426/938/101 430/939/101 429/940/101
f 426/941/104 427/942/104 431/943/104 430/944/104
f 427/945/103 428/946/103 432/947/103 431/948/103
f 428/949/102 425/950/102 429/951/102 432/952/102
f 438/953/105 435/954/105 434/955/105
f 439/956/105 438/957/105 434/958/105
f 439/959/105 434/960/105 433/961/105
f 440/962/105 439/963/105 433/964/105
f 440/965/105 433/966/105 436/967/105
f 437/968/105 440/969/105 436/970/105
f 438/971/105 437/972/105 436/973/105
f 436/974/105 435/975/105 438/976/105
f 442/977/106 443/978/106 446/979/106
f 442/980/106 446/981/106 447/982/106
f 441/983/106 442/984/106 447/985/106
f 441/986/106 447/987/106 448/988/106
f 444/989/106 441/990/106 448/991/106
f 444/992/106 448/993/106 445/994/106
f 444/995/106 445/996/106 446/997/106
f 446/998/106 443/999/106 444/1000/106
o item_flange1_nuts
usemtl fluid_pipe
v 0.232108 0.2225 1
v 0.209375 0.235625 1
v 0.186642 0.2225 1
v 0.186642 0.19625 1
v 0.209375 0.183125 1
v 0.232108 0.19625 1
v 0.232108 0.2225 1.021875
v 0.209375 0.235625 1.021875
v 0.186642 0.2225 1.021875
v 0.186642 0.19625 1.021875
v 0.209375 0.183125 1.021875
v 0.232108 0.19625 1.021875
v 0.232108 0.2225 1
v 0.209375 0.235625 1
v 0.186642 0.2225 1
v 0.186642 0.19625 1
v 0.209375 0.183125 1
v 0.232108 0.19625 1
v 0.232108 0.2225 1.021875
v 0.209375 0.235625 1.021875
v 0.186642 0.2225 1.021875
v 0.186642 0.19625 1.021875
v 0.209375 0.183125 1.021875
v 0.232108 0.19625 1.021875
v 0.232108 0.80375 1
v 0.209375 0.816875 1
v 0.186642 0.80375 1
v 0.186642 0.7775 1
v 0.209375 0.764375 1
v 0.232108 0.7775 1
v 0.232108 0.80375 1.021875
v 0.209375 0.816875 1.021875
v 0.186642 0.80375 1.021875
v 0.186642 0.7775 1.021875
v 0.209375 0.764375 1.021875
v 0.232108 0.7775 1.021875
v 0.232108 0.80375 1
v 0.209375 0.816875 1
v 0.186642 0.80375 1
v 0.186642 0.7775 1
v 0.209375 0.764375 1
v 0.232108 0.7775 1
v 0.232108 0.80375 1.021875
v 0.209375 0.816875 1.021875
v 0.186642 0.80375 1.021875
v 0.186642 0.7775 1.021875
v 0.209375 0.764375 1.021875
v 0.232108 0.7775 1.021875
v 0.813358 0.2225 1
v 0.790625 0.235625 1
v 0.767892 0.2225 1
v 0.767892 0.19625 1
v 0.790625 0.183125 1
v 0.813358 0.19625 1
v 0.813358 0.2225 1.021875
v 0.790625 0.235625 1.021875
v 0.767892 0.2225 1.021875
v 0.767892 0.19625 1.021875
v 0.790625 0.183125 1.021875
v 0.813358 0.19625 1.021875
v 0.813358 0.2225 1
v 0.790625 0.235625 1
v 0.767892 0.2225 1
v 0.767892 0.19625 1
v 0.790625 0.183125 1
v 0.813358 0.19625 1
v 0.813358 0.2225 1.021875
v 0.790625 0.235625 1.021875
v 0.767892 0.2225 1.021875
v 0.767892 0.19625 1.021875
v 0.790625 0.183125 1.021875
v 0.813358 0.19625 1.021875
v 0.813358 0.80375 1
v 0.790625 0.816875 1
v 0.767892 0.80375 1
v 0.767892 0.7775 1
v 0.790625 0.764375 1
v 0.813358 0.7775 1
v 0.813358 0.80375 1.021875
v 0.790625 0.816875 1.021875
v 0.767892 0.80375 1.021875
v 0.767892 0.7775 1.021875
v 0.790625 0.764375 1.021875
v 0.813358 0.7775 1.021875
v 0.813358 0.80375 1
v 0.790625 0.816875 1
v 0.767892 0.80375 1
v 0.767892 0.7775 1
v 0.790625 0.764375 1
v 0.813358 0.7775 1
v 0.813358 0.80375 1.021875
v 0.790625 0.816875 1.021875
v 0.767892 0.80375 1.021875
v 0.767892 0.7775 1.021875
v 0.790625 0.764375 1.021875
v 0.813358 0.7775 1.021875
vt 0.177002 0.077924
vt 0.181052 0.077924
vt 0.181052 0.081299
vt 0.177002 0.081299
vt 0.182861 0.077924
vt 0.186912 0.077924
vt 0.186912 0.081299
vt 0.182861 0.081299
vt 0.188721 0.077924
vt 0.192771 0.077924
vt 0.192771 0.081299
vt 0.188721 0.081299
vt 0.445068 0.083295
vt 0.449119 0.083295
vt 0.449119 0.08667
vt 0.445068 0.08667
vt 0.19458 0.077924
vt 0.19863 0.077924
vt 0.19863 0.081299
vt 0.19458 0.081299
vt 0.200439 0.077924
vt 0.20449 0.077924
vt 0.20449 0.081299
vt 0.200439 0.081299
vt 0.917036 0.172518
vt 0.915011 0.176025
vt 0.910961 0.176025
vt 0.915011 0.16901
vt 0.917036 0.172518
vt 0.910961 0.176025
vt 0.910961 0.16901
vt 0.915011 0.16901
vt 0.910961 0.176025
vt 0.910961 0.176025
vt 0.908936 0.172518
vt 0.910961 0.16901
vt 0.920726 0.16901
vt 0.924777 0.16901
vt 0.926802 0.172518
vt 0.920726 0.16901
vt 0.926802 0.172518
vt 0.924777 0.176025
vt 0.920726 0.16901
vt 0.924777 0.176025
vt 0.920726 0.176025
vt 0.920726 0.176025
vt 0.918701 0.172518
vt 0.920726 0.16901
vt 0.206299 0.077924
vt 0.210349 0.077924
vt 0.210349 0.081299
vt 0.206299 0.081299
vt 0.450928 0.083295
vt 0.454978 0.083295
vt 0.454978 0.08667
vt 0.450928 0.08667
vt 0.212158 0.077924
vt 0.216208 0.077924
vt 0.216208 0.081299
vt 0.212158 0.081299
vt 0.218018 0.077924
vt 0.222068 0.077924
vt 0.222068 0.081299
vt 0.218018 0.081299
vt 0.223877 0.077924
vt 0.227927 0.077924
vt 0.227927 0.081299
vt 0.223877 0.081299
vt 0.229736 0.077924
vt 0.233787 0.077924
vt 0.233787 0.081299
vt 0.229736 0.081299
vt 0.936567 0.172518
vt 0.934542 0.176025
vt 0.930492 0.176025
vt 0.934542 0.16901
vt 0.936567 0.172518
vt 0.930492 0.176025
vt 0.930492 0.16901
vt 0.934542 0.16901
vt 0.930492 0.176025
vt 0.930492 0.176025
vt 0.928467 0.172518
vt 0.930492 0.16901
vt 0.940258 0.16901
vt 0.944308 0.16901
vt 0.946333 0.172518
vt 0.940258 0.16901
vt 0.946333 0.172518
vt 0.944308 0.176025
vt 0.940258 0.16901
vt 0.944308 0.176025
vt 0.940258 0.176025
vt 0.940258 0.176025
vt 0.938232 0.172518
vt 0.940258 0.16901
vt 0.235596 0.077924
vt 0.239646 0.077924
vt 0.239646 0.081299
vt 0.235596 0.081299
vt 0.241455 0.077924
vt 0.245505 0.077924
vt 0.245505 0.081299
vt 0.241455 0.081299
vt 0.247314 0.077924
vt 0.251365 0.077924
vt 0.251365 0.081299
vt 0.247314 0.081299
vt 0.253174 0.077924
vt 0.257224 0.077924
vt 0.257224 0.081299
vt 0.253174 0.081299
vt 0.456787 0.083295
vt 0.460837 0.083295
vt 0.460837 0.08667
vt 0.456787 0.08667
vt 0.259033 0.077924
vt 0.263083 0.077924
vt 0.263083 0.081299
vt 0.259033 0.081299
vt 0.956099 0.172518
vt 0.954073 0.176025
vt 0.950023 0.176025
vt 0.954073 0.16901
vt 0.956099 0.172518
vt 0.950023 0.176025
vt 0.950023 0.16901
vt 0.954073 0.16901
vt 0.950023 0.176025
vt 0.950023 0.176025
vt 0.947998 0.172518
vt 0.950023 0.16901
vt 0.959789 0.16901
vt 0.963839 0.16901
vt 0.965864 0.172518
vt 0.959789 0.16901
vt 0.965864 0.172518
vt 0.963839 0.176025
vt 0.959789 0.16901
vt 0.963839 0.176025
vt 0.959789 0.176025
vt 0.959789 0.176025
vt 0.957764 0.172518
vt 0.959789 0.16901
vt 0.462646 0.083295
vt 0.466697 0.083295
vt 0.466697 0.08667
vt 0.462646 0.08667
vt 0.264893 0.077924
vt 0.268943 0.077924
vt 0.268943 0.081299
vt 0.264893 0.081299
vt 0.270752 0.077924
vt 0.274802 0.077924
vt 0.274802 0.081299
vt 0.270752 0.081299
vt 0.276611 0.077924
vt 0.280662 0.077924
vt 0.280662 0.081299
vt 0.276611 0.081299
vt 0.282471 0.077924
vt 0.286521 0.077924
vt 0.286521 0.081299
vt 0.282471 0.081299
vt 0.28833 0.077924
vt 0.29238 0.077924
vt 0.29238 0.081299
vt 0.28833 0.081299
vt 0.97563 0.172518
vt 0.973605 0.176025
vt 0.969554 0.176025
vt 0.973605 0.16901
vt 0.97563 0.172518
vt 0.969554 0.176025
vt 0.969554 0.16901
vt 0.973605 0.16901
vt 0.969554 0.176025
vt 0.969554 0.176025
vt 0.967529 0.172518
vt 0.969554 0.16901
vt 0.97932 0.16901
vt 0.98337 0.16901
vt 0.985396 0.172518
vt 0.97932 0.16901
vt 0.985396 0.172518
vt 0.98337 0.176025
vt 0.97932 0.16901
vt 0.98337 0.176025
vt 0.97932 0.176025
vt 0.97932 0.176025
vt 0.977295 0.172518
vt 0.97932 0.16901
vn 0.5 0.866025 0
vn -0.5 0.866025 0
vn -1 0 0
vn -0.5 -0.866025 0
vn 0.5 -0.866025 0
vn 1 0 0
vn 0 0 -1
vn 0 0 1
f 449/1001/107 450/1002/107 456/1003/107 455/1004/107
f 450/1005/108 451/1006/108 457/1007/108 456/1008/108
f 451/1009/109 452/1010/109 458/1011/109 457/1012/109
f 452/1013/110 453/1014/110 459/1015/110 458/1016/110
f 453/1017/111 454/1018/111 460/1019/111 459/1020/111
f 454/1021/112 449/1022/112 455/1023/112 460/1024/112
f 462/1025/113 461/1026/113 466/1027/113
f 463/1028/113 462/1029/113 466/1030/113
f 464/1031/113 463/1032/113 466/1033/113
f 466/1034/113 465/1035/113 464/1036/113
f 472/1037/114 467/1038/114 468/1039/114
f 472/1040/114 468/1041/114 469/1042/114
f 472/1043/114 469/1044/114 470/1045/114
f 470/1046/114 471/1047/114 472/1048/114
f 473/1049/107 474/1050/107 480/1051/107 479/1052/107
f 474/1053/108 475/1054/108 481/1055/108 480/1056/108
f 475/1057/109 476/1058/109 482/1059/109 481/1060/109
f 476/1061/110 477/1062/110 483/1063/110 482/1064/110
f 477/1065/111 478/1066/111 484/1067/111 483/1068/111
f 478/1069/112 473/1070/112 479/1071/112 484/1072/112
f 486/1073/113 485/1074/113 490/1075/113
f 487/1076/113 486/1077/113 490/1078/113
f 488/1079/113 487/1080/113 490/1081/113
f 490/1082/113 489/1083/113 488/1084/113
f 496/1085/114 491/1086/114 492/1087/114
f 496/1088/114 492/1089/114 493/1090/114
f 496/1091/114 493/1092/114 494/1093/114
f 494/1094/114 495/1095/114 496/1096/114
f 497/1097/107 498/1098/107 504/1099/107 503/1100/107
f 498/1101/108 499/1102/108 505/1103/108 504/1104/108
f 499/1105/109 500/1106/109 506/1107/109 505/1108/109
f 500/1109/110 501/1110/110 507/1111/110 506/1112/110
f 501/1113/111 502/1114/111 508/1115/111 507/1116/111
f 502/1117/112 497/1118/112 503/1119/112 508/1120/112
f 510/1121/113 509/1122/113 514/1123/113
f 511/1124/113 510/1125/113 514/1126/113
f 512/1127/113 511/1128/113 514/1129/113
f 514/1130/113 513/1131/113 512/1132/113
f 520/1133/114 515/1134/114 516/1135/114
f 520/1136/114 516/1137/114 517/1138/114
f 520/1139/114 517/1140/114 518/1141/114
f 518/1142/114 519/1143/114 520/1144/114
f 521/1145/107 522/1146/107 528/1147/107 527/1148/107
f 522/1149/108 523/1150/108 529/1151/108 528/1152/108
f 523/1153/109 524/1154/109 530/1155/109 529/1156/109
f 524/1157/110 525/1158/110 531/1159/110 530/1160/110
f 525/1161/111 526/1162/111 532/1163/111 531/1164/111
f 526/1165/112 521/1166/112 527/1167/112 532/1168/112
f 534/1169/113 533/1170/113 538/1171/113
f 535/1172/113 534/1173/113 538/1174/113
f 536/1175/113 535/1176/113 538/1177/113
f 538/1178/113 537/1179/113 536/1180/113
f 544/1181/114 539/1182/114 540/1183/114
f 544/1184/114 540/1185/114 541/1186/114
f 544/1187/114 541/1188/114 542/1189/114
f 542/1190/114 543/1191/114 544/1192/114
