# AFL Fluid Pipe V2 arm_port_up, generated by tools/build-fluid-pipe-v2.mjs
mtllib heat_resistant_fluid_pipe.mtl
o arm_port_flange
usemtl heat_resistant_fluid_pipe
v 0.16875 0.7875 0.83125
v 0.83125 0.7875 0.83125
v 0.83125 0.7875 0.16875
v 0.16875 0.7875 0.16875
v 0.1625 0.79375 0.8375
v 0.8375 0.79375 0.8375
v 0.8375 0.79375 0.1625
v 0.1625 0.79375 0.1625
v 0.1625 0.83125 0.8375
v 0.8375 0.83125 0.8375
v 0.8375 0.83125 0.1625
v 0.1625 0.83125 0.1625
v 0.16875 0.8375 0.83125
v 0.83125 0.8375 0.83125
v 0.83125 0.8375 0.16875
v 0.16875 0.8375 0.16875
v 0.24375 0.7875 0.24375
v 0.75625 0.7875 0.24375
v 0.75625 0.7875 0.75625
v 0.24375 0.7875 0.75625
v 0.25 0.79375 0.25
v 0.75 0.79375 0.25
v 0.75 0.79375 0.75
v 0.25 0.79375 0.75
v 0.25 0.83125 0.25
v 0.75 0.83125 0.25
v 0.75 0.83125 0.75
v 0.25 0.83125 0.75
v 0.24375 0.8375 0.24375
v 0.75625 0.8375 0.24375
v 0.75625 0.8375 0.75625
v 0.24375 0.8375 0.75625
v 0.16875 0.7875 0.83125
v 0.83125 0.7875 0.83125
v 0.83125 0.7875 0.16875
v 0.16875 0.7875 0.16875
v 0.24375 0.7875 0.24375
v 0.75625 0.7875 0.24375
v 0.75625 0.7875 0.75625
v 0.24375 0.7875 0.75625
v 0.16875 0.8375 0.83125
v 0.83125 0.8375 0.83125
v 0.83125 0.8375 0.16875
v 0.16875 0.8375 0.16875
v 0.24375 0.8375 0.24375
v 0.75625 0.8375 0.24375
v 0.75625 0.8375 0.75625
v 0.24375 0.8375 0.75625
vt 0.689124 0.061972
vt 0.783582 0.061972
vt 0.784473 0.063232
vt 0.688232 0.063232
vt 0.347815 0.018027
vt 0.442273 0.018027
vt 0.443164 0.019287
vt 0.346924 0.019287
vt 0.787268 0.061972
vt 0.881726 0.061972
vt 0.882617 0.063232
vt 0.786377 0.063232
vt 0.445959 0.018027
vt 0.540417 0.018027
vt 0.541309 0.019287
vt 0.445068 0.019287
vt 0.688232 0.136987
vt 0.784473 0.136987
vt 0.784473 0.142334
vt 0.688232 0.142334
vt 0.786377 0.136987
vt 0.882617 0.136987
vt 0.882617 0.142334
vt 0.786377 0.142334
vt 0.884521 0.136987
vt 0.980762 0.136987
vt 0.980762 0.142334
vt 0.884521 0.142334
vt 0.001221 0.130151
vt 0.097461 0.130151
vt 0.097461 0.135498
vt 0.001221 0.135498
vt 0.884521 0.061972
vt 0.980762 0.061972
vt 0.979871 0.063232
vt 0.885413 0.063232
vt 0.543213 0.026816
vt 0.639453 0.026816
vt 0.638562 0.028076
vt 0.544104 0.028076
vt 0.001221 0.059043
vt 0.097461 0.059043
vt 0.09657 0.060303
vt 0.002112 0.060303
vt 0.641357 0.026816
vt 0.737598 0.026816
vt 0.736707 0.028076
vt 0.642249 0.028076
vt 0.748291 0.038535
vt 0.821362 0.038535
vt 0.820471 0.039795
vt 0.749182 0.039795
vt 0.075928 0.020957
vt 0.148999 0.020957
vt 0.148108 0.022217
vt 0.076819 0.022217
vt 0.822998 0.038535
vt 0.896069 0.038535
vt 0.895178 0.039795
vt 0.823889 0.039795
vt 0.150635 0.020957
vt 0.223706 0.020957
vt 0.222815 0.022217
vt 0.151526 0.022217
vt 0.146729 0.109644
vt 0.218018 0.109644
vt 0.218018 0.11499
vt 0.146729 0.11499
vt 0.219482 0.109644
vt 0.290771 0.109644
vt 0.290771 0.11499
vt 0.219482 0.11499
vt 0.292236 0.109644
vt 0.363525 0.109644
vt 0.363525 0.11499
vt 0.292236 0.11499
vt 0.36499 0.109644
vt 0.436279 0.109644
vt 0.436279 0.11499
vt 0.36499 0.11499
vt 0.898596 0.038535
vt 0.969885 0.038535
vt 0.970776 0.039795
vt 0.897705 0.039795
vt 0.002112 0.035605
vt 0.073401 0.035605
vt 0.074292 0.036865
vt 0.001221 0.036865
vt 0.076819 0.035605
vt 0.148108 0.035605
vt 0.148999 0.036865
vt 0.075928 0.036865
vt 0.151526 0.035605
vt 0.222815 0.035605
vt 0.223706 0.036865
vt 0.150635 0.036865
vt 0.469751 0.988086
vt 0.480444 0.998779
vt 0.385986 0.998779
vt 0.39668 0.988086
vt 0.469751 0.988086
vt 0.385986 0.998779
vt 0.39668 0.988086
vt 0.385986 0.998779
vt 0.385986 0.904321
vt 0.39668 0.915015
vt 0.39668 0.988086
vt 0.385986 0.904321
vt 0.39668 0.915015
vt 0.385986 0.904321
vt 0.480444 0.904321
vt 0.469751 0.915015
vt 0.39668 0.915015
vt 0.480444 0.904321
vt 0.469751 0.988086
vt 0.469751 0.915015
vt 0.480444 0.904321
vt 0.480444 0.904321
vt 0.480444 0.998779
vt 0.469751 0.988086
vt 0.482178 0.904321
vt 0.576636 0.904321
vt 0.565942 0.915015
vt 0.482178 0.904321
vt 0.565942 0.915015
vt 0.492871 0.915015
vt 0.482178 0.998779
vt 0.482178 0.904321
vt 0.492871 0.915015
vt 0.482178 0.998779
vt 0.492871 0.915015
vt 0.492871 0.988086
vt 0.576636 0.998779
vt 0.482178 0.998779
vt 0.492871 0.988086
vt 0.576636 0.998779
vt 0.492871 0.988086
vt 0.565942 0.988086
vt 0.576636 0.998779
vt 0.565942 0.988086
vt 0.565942 0.915015
vt 0.565942 0.915015
vt 0.576636 0.904321
vt 0.576636 0.998779
vn 0 -0.707107 0.707107
vn 0.707107 -0.707107 0
vn 0 -0.707107 -0.707107
vn -0.707107 -0.707107 0
vn 0 0 1
vn 1 0 0
vn 0 0 -1
vn -1 0 0
vn 0 0.707107 0.707107
vn 0.707107 0.707107 0
vn 0 0.707107 -0.707107
vn -0.707107 0.707107 0
vn 0 -1 0
vn 0 1 0
f 1/1/1 2/2/1 6/3/1 5/4/1
f 2/5/2 3/6/2 7/7/2 6/8/2
f 3/9/3 4/10/3 8/11/3 7/12/3
f 4/13/4 1/14/4 5/15/4 8/16/4
f 5/17/5 6/18/5 10/19/5 9/20/5
f 6/21/6 7/22/6 11/23/6 10/24/6
f 7/25/7 8/26/7 12/27/7 11/28/7
f 8/29/8 5/30/8 9/31/8 12/32/8
f 9/33/9 10/34/9 14/35/9 13/36/9
f 10/37/10 11/38/10 15/39/10 14/40/10
f 11/41/11 12/42/11 16/43/11 15/44/11
f 12/45/12 9/46/12 13/47/12 16/48/12
f 17/49/1 18/50/1 22/51/1 21/52/1
f 18/53/4 19/54/4 23/55/4 22/56/4
f 19/57/3 20/58/3 24/59/3 23/60/3
f 20/61/2 17/62/2 21/63/2 24/64/2
f 21/65/5 22/66/5 26/67/5 25/68/5
f 22/69/8 23/70/8 27/71/8 26/72/8
f 23/73/7 24/74/7 28/75/7 27/76/7
f 24/77/6 21/78/6 25/79/6 28/80/6
f 25/81/9 26/82/9 30/83/9 29/84/9
f 26/85/12 27/86/12 31/87/12 30/88/12
f 27/89/11 28/90/11 32/91/11 31/92/11
f 28/93/10 25/94/10 29/95/10 32/96/10
f 38/97/13 35/98/13 34/99/13
f 39/100/13 38/101/13 34/102/13
f 39/103/13 34/104/13 33/105/13
f 40/106/13 39/107/13 33/108/13
f 40/109/13 33/110/13 36/111/13
f 37/112/13 40/113/13 36/114/13
f 38/115/13 37/116/13 36/117/13
f 36/118/13 35/119/13 38/120/13
f 42/121/14 43/122/14 46/123/14
f 42/124/14 46/125/14 47/126/14
f 41/127/14 42/128/14 47/129/14
f 41/130/14 47/131/14 48/132/14
f 44/133/14 41/134/14 48/135/14
f 44/136/14 48/137/14 45/138/14
f 44/139/14 45/140/14 46/141/14
f 46/142/14 43/143/14 44/144/14
o arm_port_flange_lining
usemtl heat_resistant_fluid_pipe
v 0.25125 0.7875 0.74875
v 0.74875 0.7875 0.74875
v 0.74875 0.7875 0.25125
v 0.25125 0.7875 0.25125
v 0.25125 0.8375 0.74875
v 0.74875 0.8375 0.74875
v 0.74875 0.8375 0.25125
v 0.25125 0.8375 0.25125
v 0.28125 0.7875 0.28125
v 0.71875 0.7875 0.28125
v 0.71875 0.7875 0.71875
v 0.28125 0.7875 0.71875
v 0.28125 0.8375 0.28125
v 0.71875 0.8375 0.28125
v 0.71875 0.8375 0.71875
v 0.28125 0.8375 0.71875
v 0.25125 0.7875 0.74875
v 0.74875 0.7875 0.74875
v 0.74875 0.7875 0.25125
v 0.25125 0.7875 0.25125
v 0.28125 0.7875 0.28125
v 0.71875 0.7875 0.28125
v 0.71875 0.7875 0.71875
v 0.28125 0.7875 0.71875
v 0.25125 0.8375 0.74875
v 0.74875 0.8375 0.74875
v 0.74875 0.8375 0.25125
v 0.25125 0.8375 0.25125
v 0.28125 0.8375 0.28125
v 0.71875 0.8375 0.28125
v 0.71875 0.8375 0.71875
v 0.28125 0.8375 0.71875
vt 0.711182 0.17915
vt 0.782114 0.17915
vt 0.782114 0.186279
vt 0.711182 0.186279
vt 0.783936 0.17915
vt 0.854868 0.17915
vt 0.854868 0.186279
vt 0.783936 0.186279
vt 0.856689 0.17915
vt 0.927622 0.17915
vt 0.927622 0.186279
vt 0.856689 0.186279
vt 0.001221 0.170361
vt 0.072153 0.170361
vt 0.072153 0.17749
vt 0.001221 0.17749
vt 0.803955 0.161572
vt 0.866333 0.161572
vt 0.866333 0.168701
vt 0.803955 0.168701
vt 0.86792 0.161572
vt 0.930298 0.161572
vt 0.930298 0.168701
vt 0.86792 0.168701
vt 0.931885 0.161572
vt 0.994263 0.161572
vt 0.994263 0.168701
vt 0.931885 0.168701
vt 0.001221 0.152783
vt 0.063599 0.152783
vt 0.063599 0.159912
vt 0.001221 0.159912
vt 0.440923 0.705928
vt 0.4452 0.710205
vt 0.374268 0.710205
vt 0.378545 0.705928
vt 0.440923 0.705928
vt 0.374268 0.710205
vt 0.378545 0.705928
vt 0.374268 0.710205
vt 0.374268 0.639272
vt 0.378545 0.64355
vt 0.378545 0.705928
vt 0.374268 0.639272
vt 0.378545 0.64355
vt 0.374268 0.639272
vt 0.4452 0.639272
vt 0.440923 0.64355
vt 0.378545 0.64355
vt 0.4452 0.639272
vt 0.440923 0.705928
vt 0.440923 0.64355
vt 0.4452 0.639272
vt 0.4452 0.639272
vt 0.4452 0.710205
vt 0.440923 0.705928
vt 0.447021 0.639272
vt 0.517954 0.639272
vt 0.513677 0.64355
vt 0.447021 0.639272
vt 0.513677 0.64355
vt 0.451299 0.64355
vt 0.447021 0.710205
vt 0.447021 0.639272
vt 0.451299 0.64355
vt 0.447021 0.710205
vt 0.451299 0.64355
vt 0.451299 0.705928
vt 0.517954 0.710205
vt 0.447021 0.710205
vt 0.451299 0.705928
vt 0.517954 0.710205
vt 0.451299 0.705928
vt 0.513677 0.705928
vt 0.517954 0.710205
vt 0.513677 0.705928
vt 0.513677 0.64355
vt 0.513677 0.64355
vt 0.517954 0.639272
vt 0.517954 0.710205
vn 0 0 1
vn 1 0 0
vn 0 0 -1
vn -1 0 0
vn 0 -1 0
vn 0 1 0
f 49/145/15 50/146/15 54/147/15 53/148/15
f 50/149/16 51/150/16 55/151/16 54/152/16
f 51/153/17 52/154/17 56/155/17 55/156/17
f 52/157/18 49/158/18 53/159/18 56/160/18
f 57/161/15 58/162/15 62/163/15 61/164/15
f 58/165/18 59/166/18 63/167/18 62/168/18
f 59/169/17 60/170/17 64/171/17 63/172/17
f 60/173/16 57/174/16 61/175/16 64/176/16
f 70/177/19 67/178/19 66/179/19
f 71/180/19 70/181/19 66/182/19
f 71/183/19 66/184/19 65/185/19
f 72/186/19 71/187/19 65/188/19
f 72/189/19 65/190/19 68/191/19
f 69/192/19 72/193/19 68/194/19
f 70/195/19 69/196/19 68/197/19
f 68/198/19 67/199/19 70/200/19
f 74/201/20 75/202/20 78/203/20
f 74/204/20 78/205/20 79/206/20
f 73/207/20 74/208/20 79/209/20
f 73/210/20 79/211/20 80/212/20
f 76/213/20 73/214/20 80/215/20
f 76/216/20 80/217/20 77/218/20
f 76/219/20 77/220/20 78/221/20
f 78/222/20 75/223/20 76/224/20
o arm_port_flange_nuts
usemtl heat_resistant_fluid_pipe
v 0.232108 0.8375 0.7775
v 0.209375 0.8375 0.764375
v 0.186642 0.8375 0.7775
v 0.186642 0.8375 0.80375
v 0.209375 0.8375 0.816875
v 0.232108 0.8375 0.80375
v 0.232108 0.859375 0.7775
v 0.209375 0.859375 0.764375
v 0.186642 0.859375 0.7775
v 0.186642 0.859375 0.80375
v 0.209375 0.859375 0.816875
v 0.232108 0.859375 0.80375
v 0.232108 0.8375 0.7775
v 0.209375 0.8375 0.764375
v 0.186642 0.8375 0.7775
v 0.186642 0.8375 0.80375
v 0.209375 0.8375 0.816875
v 0.232108 0.8375 0.80375
v 0.232108 0.859375 0.7775
v 0.209375 0.859375 0.764375
v 0.186642 0.859375 0.7775
v 0.186642 0.859375 0.80375
v 0.209375 0.859375 0.816875
v 0.232108 0.859375 0.80375
v 0.232108 0.8375 0.19625
v 0.209375 0.8375 0.183125
v 0.186642 0.8375 0.19625
v 0.186642 0.8375 0.2225
v 0.209375 0.8375 0.235625
v 0.232108 0.8375 0.2225
v 0.232108 0.859375 0.19625
v 0.209375 0.859375 0.183125
v 0.186642 0.859375 0.19625
v 0.186642 0.859375 0.2225
v 0.209375 0.859375 0.235625
v 0.232108 0.859375 0.2225
v 0.232108 0.8375 0.19625
v 0.209375 0.8375 0.183125
v 0.186642 0.8375 0.19625
v 0.186642 0.8375 0.2225
v 0.209375 0.8375 0.235625
v 0.232108 0.8375 0.2225
v 0.232108 0.859375 0.19625
v 0.209375 0.859375 0.183125
v 0.186642 0.859375 0.19625
v 0.186642 0.859375 0.2225
v 0.209375 0.859375 0.235625
v 0.232108 0.859375 0.2225
v 0.813358 0.8375 0.7775
v 0.790625 0.8375 0.764375
v 0.767892 0.8375 0.7775
v 0.767892 0.8375 0.80375
v 0.790625 0.8375 0.816875
v 0.813358 0.8375 0.80375
v 0.813358 0.859375 0.7775
v 0.790625 0.859375 0.764375
v 0.767892 0.859375 0.7775
v 0.767892 0.859375 0.80375
v 0.790625 0.859375 0.816875
v 0.813358 0.859375 0.80375
v 0.813358 0.8375 0.7775
v 0.790625 0.8375 0.764375
v 0.767892 0.8375 0.7775
v 0.767892 0.8375 0.80375
v 0.790625 0.8375 0.816875
v 0.813358 0.8375 0.80375
v 0.813358 0.859375 0.7775
v 0.790625 0.859375 0.764375
v 0.767892 0.859375 0.7775
v 0.767892 0.859375 0.80375
v 0.790625 0.859375 0.816875
v 0.813358 0.859375 0.80375
v 0.813358 0.8375 0.19625
v 0.790625 0.8375 0.183125
v 0.767892 0.8375 0.19625
v 0.767892 0.8375 0.2225
v 0.790625 0.8375 0.235625
v 0.813358 0.8375 0.2225
v 0.813358 0.859375 0.19625
v 0.790625 0.859375 0.183125
v 0.767892 0.859375 0.19625
v 0.767892 0.859375 0.2225
v 0.790625 0.859375 0.235625
v 0.813358 0.859375 0.2225
v 0.813358 0.8375 0.19625
v 0.790625 0.8375 0.183125
v 0.767892 0.8375 0.19625
v 0.767892 0.8375 0.2225
v 0.790625 0.8375 0.235625
v 0.813358 0.8375 0.2225
v 0.813358 0.859375 0.19625
v 0.790625 0.859375 0.183125
v 0.767892 0.859375 0.19625
v 0.767892 0.859375 0.2225
v 0.790625 0.859375 0.235625
v 0.813358 0.859375 0.2225
vt 0.565186 0.072809
vt 0.568928 0.072809
vt 0.568928 0.075928
vt 0.565186 0.075928
vt 0.570557 0.072809
vt 0.574299 0.072809
vt 0.574299 0.075928
vt 0.570557 0.075928
vt 0.575928 0.072809
vt 0.57967 0.072809
vt 0.57967 0.075928
vt 0.575928 0.075928
vt 0.24292 0.072809
vt 0.246663 0.072809
vt 0.246663 0.075928
vt 0.24292 0.075928
vt 0.581299 0.072809
vt 0.585042 0.072809
vt 0.585042 0.075928
vt 0.581299 0.075928
vt 0.58667 0.072809
vt 0.590413 0.072809
vt 0.590413 0.075928
vt 0.58667 0.075928
vt 0.322183 0.147882
vt 0.320311 0.151123
vt 0.316569 0.151123
vt 0.320311 0.144641
vt 0.322183 0.147882
vt 0.316569 0.151123
vt 0.316569 0.144641
vt 0.320311 0.144641
vt 0.316569 0.151123
vt 0.316569 0.151123
vt 0.314697 0.147882
vt 0.316569 0.144641
vt 0.325846 0.144641
vt 0.329589 0.144641
vt 0.33146 0.147882
vt 0.325846 0.144641
vt 0.33146 0.147882
vt 0.329589 0.151123
vt 0.325846 0.144641
vt 0.329589 0.151123
vt 0.325846 0.151123
vt 0.325846 0.151123
vt 0.323975 0.147882
vt 0.325846 0.144641
vt 0.592041 0.072809
vt 0.595784 0.072809
vt 0.595784 0.075928
vt 0.592041 0.075928
vt 0.248291 0.072809
vt 0.252034 0.072809
vt 0.252034 0.075928
vt 0.248291 0.075928
vt 0.597412 0.072809
vt 0.601155 0.072809
vt 0.601155 0.075928
vt 0.597412 0.075928
vt 0.602783 0.072809
vt 0.606526 0.072809
vt 0.606526 0.075928
vt 0.602783 0.075928
vt 0.608154 0.072809
vt 0.611897 0.072809
vt 0.611897 0.075928
vt 0.608154 0.075928
vt 0.613525 0.072809
vt 0.617268 0.072809
vt 0.617268 0.075928
vt 0.613525 0.075928
vt 0.340737 0.147882
vt 0.338866 0.151123
vt 0.335123 0.151123
vt 0.338866 0.144641
vt 0.340737 0.147882
vt 0.335123 0.151123
vt 0.335123 0.144641
vt 0.338866 0.144641
vt 0.335123 0.151123
vt 0.335123 0.151123
vt 0.333252 0.147882
vt 0.335123 0.144641
vt 0.344401 0.144641
vt 0.348143 0.144641
vt 0.350015 0.147882
vt 0.344401 0.144641
vt 0.350015 0.147882
vt 0.348143 0.151123
vt 0.344401 0.144641
vt 0.348143 0.151123
vt 0.344401 0.151123
vt 0.344401 0.151123
vt 0.342529 0.147882
vt 0.344401 0.144641
vt 0.618896 0.072809
vt 0.622639 0.072809
vt 0.622639 0.075928
vt 0.618896 0.075928
vt 0.624268 0.072809
vt 0.62801 0.072809
vt 0.62801 0.075928
vt 0.624268 0.075928
vt 0.629639 0.072809
vt 0.633381 0.072809
vt 0.633381 0.075928
vt 0.629639 0.075928
vt 0.63501 0.072809
vt 0.638752 0.072809
vt 0.638752 0.075928
vt 0.63501 0.075928
vt 0.253662 0.072809
vt 0.257405 0.072809
vt 0.257405 0.075928
vt 0.253662 0.075928
vt 0.640381 0.072809
vt 0.644124 0.072809
vt 0.644124 0.075928
vt 0.640381 0.075928
vt 0.359292 0.147882
vt 0.357421 0.151123
vt 0.353678 0.151123
vt 0.357421 0.144641
vt 0.359292 0.147882
vt 0.353678 0.151123
vt 0.353678 0.144641
vt 0.357421 0.144641
vt 0.353678 0.151123
vt 0.353678 0.151123
vt 0.351807 0.147882
vt 0.353678 0.144641
vt 0.362955 0.144641
vt 0.366698 0.144641
vt 0.368569 0.147882
vt 0.362955 0.144641
vt 0.368569 0.147882
vt 0.366698 0.151123
vt 0.362955 0.144641
vt 0.366698 0.151123
vt 0.362955 0.151123
vt 0.362955 0.151123
vt 0.361084 0.147882
vt 0.362955 0.144641
vt 0.259033 0.072809
vt 0.262776 0.072809
vt 0.262776 0.075928
vt 0.259033 0.075928
vt 0.645752 0.072809
vt 0.649495 0.072809
vt 0.649495 0.075928
vt 0.645752 0.075928
vt 0.651123 0.072809
vt 0.654866 0.072809
vt 0.654866 0.075928
vt 0.651123 0.075928
vt 0.656494 0.072809
vt 0.660237 0.072809
vt 0.660237 0.075928
vt 0.656494 0.075928
vt 0.661865 0.072809
vt 0.665608 0.072809
vt 0.665608 0.075928
vt 0.661865 0.075928
vt 0.667236 0.072809
vt 0.670979 0.072809
vt 0.670979 0.075928
vt 0.667236 0.075928
vt 0.377847 0.147882
vt 0.375975 0.151123
vt 0.372233 0.151123
vt 0.375975 0.144641
vt 0.377847 0.147882
vt 0.372233 0.151123
vt 0.372233 0.144641
vt 0.375975 0.144641
vt 0.372233 0.151123
vt 0.372233 0.151123
vt 0.370361 0.147882
vt 0.372233 0.144641
vt 0.38151 0.144641
vt 0.385253 0.144641
vt 0.387124 0.147882
vt 0.38151 0.144641
vt 0.387124 0.147882
vt 0.385253 0.151123
vt 0.38151 0.144641
vt 0.385253 0.151123
vt 0.38151 0.151123
vt 0.38151 0.151123
vt 0.379639 0.147882
vt 0.38151 0.144641
vn 0.5 0 -0.866025
vn -0.5 0 -0.866025
vn -1 0 0
vn -0.5 0 0.866025
vn 0.5 0 0.866025
vn 1 0 0
vn 0 -1 0
vn 0 1 0
f 81/225/21 82/226/21 88/227/21 87/228/21
f 82/229/22 83/230/22 89/231/22 88/232/22
f 83/233/23 84/234/23 90/235/23 89/236/23
f 84/237/24 85/238/24 91/239/24 90/240/24
f 85/241/25 86/242/25 92/243/25 91/244/25
f 86/245/26 81/246/26 87/247/26 92/248/26
f 94/249/27 93/250/27 98/251/27
f 95/252/27 94/253/27 98/254/27
f 96/255/27 95/256/27 98/257/27
f 98/258/27 97/259/27 96/260/27
f 104/261/28 99/262/28 100/263/28
f 104/264/28 100/265/28 101/266/28
f 104/267/28 101/268/28 102/269/28
f 102/270/28 103/271/28 104/272/28
f 105/273/21 106/274/21 112/275/21 111/276/21
f 106/277/22 107/278/22 113/279/22 112/280/22
f 107/281/23 108/282/23 114/283/23 113/284/23
f 108/285/24 109/286/24 115/287/24 114/288/24
f 109/289/25 110/290/25 116/291/25 115/292/25
f 110/293/26 105/294/26 111/295/26 116/296/26
f 118/297/27 117/298/27 122/299/27
f 119/300/27 118/301/27 122/302/27
f 120/303/27 119/304/27 122/305/27
f 122/306/27 121/307/27 120/308/27
f 128/309/28 123/310/28 124/311/28
f 128/312/28 124/313/28 125/314/28
f 128/315/28 125/316/28 126/317/28
f 126/318/28 127/319/28 128/320/28
f 129/321/21 130/322/21 136/323/21 135/324/21
f 130/325/22 131/326/22 137/327/22 136/328/22
f 131/329/23 132/330/23 138/331/23 137/332/23
f 132/333/24 133/334/24 139/335/24 138/336/24
f 133/337/25 134/338/25 140/339/25 139/340/25
f 134/341/26 129/342/26 135/343/26 140/344/26
f 142/345/27 141/346/27 146/347/27
f 143/348/27 142/349/27 146/350/27
f 144/351/27 143/352/27 146/353/27
f 146/354/27 145/355/27 144/356/27
f 152/357/28 147/358/28 148/359/28
f 152/360/28 148/361/28 149/362/28
f 152/363/28 149/364/28 150/365/28
f 150/366/28 151/367/28 152/368/28
f 153/369/21 154/370/21 160/371/21 159/372/21
f 154/373/22 155/374/22 161/375/22 160/376/22
f 155/377/23 156/378/23 162/379/23 161/380/23
f 156/381/24 157/382/24 163/383/24 162/384/24
f 157/385/25 158/386/25 164/387/25 163/388/25
f 158/389/26 153/390/26 159/391/26 164/392/26
f 166/393/27 165/394/27 170/395/27
f 167/396/27 166/397/27 170/398/27
f 168/399/27 167/400/27 170/401/27
f 170/402/27 169/403/27 168/404/27
f 176/405/28 171/406/28 172/407/28
f 176/408/28 172/409/28 173/410/28
f 176/411/28 173/412/28 174/413/28
f 174/414/28 175/415/28 176/416/28
o arm_port_rails
usemtl heat_resistant_fluid_pipe
v 0.33125 0.8375 0.66875
v 0.25 0.8375 0.66875
v 0.25 0.8375 0.73125
v 0.26875 0.8375 0.75
v 0.33125 0.8375 0.75
v 0.33125 0.95 0.66875
v 0.25 0.95 0.66875
v 0.25 0.95 0.73125
v 0.26875 0.95 0.75
v 0.33125 0.95 0.75
v 0.33125 0.8375 0.66875
v 0.25 0.8375 0.66875
v 0.25 0.8375 0.73125
v 0.26875 0.8375 0.75
v 0.33125 0.8375 0.75
v 0.33125 0.95 0.66875
v 0.25 0.95 0.66875
v 0.25 0.95 0.73125
v 0.26875 0.95 0.75
v 0.33125 0.95 0.75
v 0.33125 0.8375 0.25
v 0.26875 0.8375 0.25
v 0.25 0.8375 0.26875
v 0.25 0.8375 0.33125
v 0.33125 0.8375 0.33125
v 0.33125 0.95 0.25
v 0.26875 0.95 0.25
v 0.25 0.95 0.26875
v 0.25 0.95 0.33125
v 0.33125 0.95 0.33125
v 0.33125 0.8375 0.25
v 0.26875 0.8375 0.25
v 0.25 0.8375 0.26875
v 0.25 0.8375 0.33125
v 0.33125 0.8375 0.33125
v 0.33125 0.95 0.25
v 0.26875 0.95 0.25
v 0.25 0.95 0.26875
v 0.25 0.95 0.33125
v 0.33125 0.95 0.33125
v 0.66875 0.8375 0.75
v 0.73125 0.8375 0.75
v 0.75 0.8375 0.73125
v 0.75 0.8375 0.66875
v 0.66875 0.8375 0.66875
v 0.66875 0.95 0.75
v 0.73125 0.95 0.75
v 0.75 0.95 0.73125
v 0.75 0.95 0.66875
v 0.66875 0.95 0.66875
v 0.66875 0.8375 0.75
v 0.73125 0.8375 0.75
v 0.75 0.8375 0.73125
v 0.75 0.8375 0.66875
v 0.66875 0.8375 0.66875
v 0.66875 0.95 0.75
v 0.73125 0.95 0.75
v 0.75 0.95 0.73125
v 0.75 0.95 0.66875
v 0.66875 0.95 0.66875
v 0.66875 0.8375 0.33125
v 0.75 0.8375 0.33125
v 0.75 0.8375 0.26875
v 0.73125 0.8375 0.25
v 0.66875 0.8375 0.25
v 0.66875 0.95 0.33125
v 0.75 0.95 0.33125
v 0.75 0.95 0.26875
v 0.73125 0.95 0.25
v 0.66875 0.95 0.25
v 0.66875 0.8375 0.33125
v 0.75 0.8375 0.33125
v 0.75 0.8375 0.26875
v 0.73125 0.8375 0.25
v 0.66875 0.8375 0.25
v 0.66875 0.95 0.33125
v 0.75 0.95 0.33125
v 0.75 0.95 0.26875
v 0.73125 0.95 0.25
v 0.66875 0.95 0.25
vt 0.866455 0.315186
vt 0.866455 0.303601
vt 0.882495 0.303601
vt 0.882495 0.315186
vt 0.727783 0.205811
vt 0.727783 0.196899
vt 0.743823 0.196899
vt 0.743823 0.205811
vt 0.787354 0.081299
vt 0.787354 0.077518
vt 0.803394 0.077518
vt 0.803394 0.081299
vt 0.745361 0.205811
vt 0.745361 0.196899
vt 0.761401 0.196899
vt 0.761401 0.205811
vt 0.884033 0.315186
vt 0.884033 0.303601
vt 0.900073 0.303601
vt 0.900073 0.315186
vt 0.34679 0.290417
vt 0.34679 0.302002
vt 0.335205 0.302002
vt 0.337878 0.290417
vt 0.34679 0.290417
vt 0.335205 0.302002
vt 0.335205 0.302002
vt 0.335205 0.293091
vt 0.337878 0.290417
vt 0.348389 0.290417
vt 0.359973 0.290417
vt 0.359973 0.302002
vt 0.348389 0.290417
vt 0.359973 0.302002
vt 0.351062 0.302002
vt 0.351062 0.302002
vt 0.348389 0.299329
vt 0.348389 0.290417
vt 0.762939 0.205811
vt 0.762939 0.196899
vt 0.778979 0.196899
vt 0.778979 0.205811
vt 0.804932 0.081299
vt 0.804932 0.077518
vt 0.820972 0.077518
vt 0.820972 0.081299
vt 0.780518 0.205811
vt 0.780518 0.196899
vt 0.796558 0.196899
vt 0.796558 0.205811
vt 0.901611 0.315186
vt 0.901611 0.303601
vt 0.917651 0.303601
vt 0.917651 0.315186
vt 0.919189 0.315186
vt 0.919189 0.303601
vt 0.935229 0.303601
vt 0.935229 0.315186
vt 0.373157 0.293091
vt 0.373157 0.302002
vt 0.361572 0.302002
vt 0.370483 0.290417
vt 0.373157 0.293091
vt 0.361572 0.302002
vt 0.361572 0.302002
vt 0.361572 0.290417
vt 0.370483 0.290417
vt 0.374756 0.290417
vt 0.38634 0.290417
vt 0.38634 0.299329
vt 0.374756 0.290417
vt 0.38634 0.299329
vt 0.383667 0.302002
vt 0.383667 0.302002
vt 0.374756 0.302002
vt 0.374756 0.290417
vt 0.798096 0.205811
vt 0.798096 0.196899
vt 0.814136 0.196899
vt 0.814136 0.205811
vt 0.82251 0.081299
vt 0.82251 0.077518
vt 0.83855 0.077518
vt 0.83855 0.081299
vt 0.815674 0.205811
vt 0.815674 0.196899
vt 0.831714 0.196899
vt 0.831714 0.205811
vt 0.936768 0.315186
vt 0.936768 0.303601
vt 0.952808 0.303601
vt 0.952808 0.315186
vt 0.954346 0.315186
vt 0.954346 0.303601
vt 0.970386 0.303601
vt 0.970386 0.315186
vt 0.387939 0.299329
vt 0.387939 0.290417
vt 0.399524 0.290417
vt 0.390613 0.302002
vt 0.387939 0.299329
vt 0.399524 0.290417
vt 0.399524 0.290417
vt 0.399524 0.302002
vt 0.390613 0.302002
vt 0.412708 0.302002
vt 0.401123 0.302002
vt 0.401123 0.293091
vt 0.412708 0.302002
vt 0.401123 0.293091
vt 0.403796 0.290417
vt 0.403796 0.290417
vt 0.412708 0.290417
vt 0.412708 0.302002
vt 0.971924 0.315186
vt 0.971924 0.303601
vt 0.987964 0.303601
vt 0.987964 0.315186
vt 0.833252 0.205811
vt 0.833252 0.196899
vt 0.849292 0.196899
vt 0.849292 0.205811
vt 0.840088 0.081299
vt 0.840088 0.077518
vt 0.856128 0.077518
vt 0.856128 0.081299
vt 0.85083 0.205811
vt 0.85083 0.196899
vt 0.86687 0.196899
vt 0.86687 0.205811
vt 0.001221 0.302002
vt 0.001221 0.290417
vt 0.017261 0.290417
vt 0.017261 0.302002
vt 0.414307 0.302002
vt 0.414307 0.290417
vt 0.425891 0.290417
vt 0.423218 0.302002
vt 0.414307 0.302002
vt 0.425891 0.290417
vt 0.425891 0.290417
vt 0.425891 0.299329
vt 0.423218 0.302002
vt 0.439075 0.302002
vt 0.42749 0.302002
vt 0.42749 0.290417
vt 0.439075 0.302002
vt 0.42749 0.290417
vt 0.436401 0.290417
vt 0.436401 0.290417
vt 0.439075 0.293091
vt 0.439075 0.302002
vn 0 0 -1
vn -1 0 0
vn -0.707107 0 0.707107
vn 0 0 1
vn 1 0 0
vn 0 -1 0
vn 0 1 0
vn -0.707107 0 -0.707107
vn 0.707107 0 0.707107
vn 0.707107 0 -0.707107
f 177/417/29 178/418/29 183/419/29 182/420/29
f 178/421/30 179/422/30 184/423/30 183/424/30
f 179/425/31 180/426/31 185/427/31 184/428/31
f 180/429/32 181/430/32 186/431/32 185/432/32
f 181/433/33 177/434/33 182/435/33 186/436/33
f 188/437/34 187/438/34 191/439/34
f 189/440/34 188/441/34 191/442/34
f 191/443/34 190/444/34 189/445/34
f 196/446/35 192/447/35 193/448/35
f 196/449/35 193/450/35 194/451/35
f 194/452/35 195/453/35 196/454/35
f 197/455/29 198/456/29 203/457/29 202/458/29
f 198/459/36 199/460/36 204/461/36 203/462/36
f 199/463/30 200/464/30 205/465/30 204/466/30
f 200/467/32 201/468/32 206/469/32 205/470/32
f 201/471/33 197/472/33 202/473/33 206/474/33
f 208/475/34 207/476/34 211/477/34
f 209/478/34 208/479/34 211/480/34
f 211/481/34 210/482/34 209/483/34
f 216/484/35 212/485/35 213/486/35
f 216/487/35 213/488/35 214/489/35
f 214/490/35 215/491/35 216/492/35
f 217/493/32 218/494/32 223/495/32 222/496/32
f 218/497/37 219/498/37 224/499/37 223/500/37
f 219/501/33 220/502/33 225/503/33 224/504/33
f 220/505/29 221/506/29 226/507/29 225/508/29
f 221/509/30 217/510/30 222/511/30 226/512/30
f 228/513/34 227/514/34 231/515/34
f 229/516/34 228/517/34 231/518/34
f 231/519/34 230/520/34 229/521/34
f 236/522/35 232/523/35 233/524/35
f 236/525/35 233/526/35 234/527/35
f 234/528/35 235/529/35 236/530/35
f 237/531/32 238/532/32 243/533/32 242/534/32
f 238/535/33 239/536/33 244/537/33 243/538/33
f 239/539/38 240/540/38 245/541/38 244/542/38
f 240/543/29 241/544/29 246/545/29 245/546/29
f 241/547/30 237/548/30 242/549/30 246/550/30
f 248/551/34 247/552/34 251/553/34
f 249/554/34 248/555/34 251/556/34
f 251/557/34 250/558/34 249/559/34
f 256/560/35 252/561/35 253/562/35
f 256/563/35 253/564/35 254/565/35
f 254/566/35 255/567/35 256/568/35
o arm_port_port
usemtl heat_resistant_fluid_pipe
v 0.16875 0.95 0.83125
v 0.83125 0.95 0.83125
v 0.83125 0.95 0.16875
v 0.16875 0.95 0.16875
v 0.1625 0.95625 0.8375
v 0.8375 0.95625 0.8375
v 0.8375 0.95625 0.1625
v 0.1625 0.95625 0.1625
v 0.1625 0.99375 0.8375
v 0.8375 0.99375 0.8375
v 0.8375 0.99375 0.1625
v 0.1625 0.99375 0.1625
v 0.16875 1 0.83125
v 0.83125 1 0.83125
v 0.83125 1 0.16875
v 0.16875 1 0.16875
v 0.24375 0.95 0.24375
v 0.75625 0.95 0.24375
v 0.75625 0.95 0.75625
v 0.24375 0.95 0.75625
v 0.25 0.95625 0.25
v 0.75 0.95625 0.25
v 0.75 0.95625 0.75
v 0.25 0.95625 0.75
v 0.25 0.99375 0.25
v 0.75 0.99375 0.25
v 0.75 0.99375 0.75
v 0.25 0.99375 0.75
v 0.24375 1 0.24375
v 0.75625 1 0.24375
v 0.75625 1 0.75625
v 0.24375 1 0.75625
v 0.16875 0.95 0.83125
v 0.83125 0.95 0.83125
v 0.83125 0.95 0.16875
v 0.16875 0.95 0.16875
v 0.24375 0.95 0.24375
v 0.75625 0.95 0.24375
v 0.75625 0.95 0.75625
v 0.24375 0.95 0.75625
v 0.16875 1 0.83125
v 0.83125 1 0.83125
v 0.83125 1 0.16875
v 0.16875 1 0.16875
v 0.24375 1 0.24375
v 0.75625 1 0.24375
v 0.75625 1 0.75625
v 0.24375 1 0.75625
vt 0.100256 0.015097
vt 0.194714 0.015097
vt 0.195605 0.016357
vt 0.099365 0.016357
vt 0.100256 0.059043
vt 0.194714 0.059043
vt 0.195605 0.060303
vt 0.099365 0.060303
vt 0.198401 0.015097
vt 0.292859 0.015097
vt 0.29375 0.016357
vt 0.19751 0.016357
vt 0.198401 0.059043
vt 0.292859 0.059043
vt 0.29375 0.060303
vt 0.19751 0.060303
vt 0.099365 0.130151
vt 0.195605 0.130151
vt 0.195605 0.135498
vt 0.099365 0.135498
vt 0.19751 0.130151
vt 0.29375 0.130151
vt 0.29375 0.135498
vt 0.19751 0.135498
vt 0.295654 0.130151
vt 0.391895 0.130151
vt 0.391895 0.135498
vt 0.295654 0.135498
vt 0.393799 0.130151
vt 0.490039 0.130151
vt 0.490039 0.135498
vt 0.393799 0.135498
vt 0.295654 0.059043
vt 0.391895 0.059043
vt 0.391003 0.060303
vt 0.296545 0.060303
vt 0.739502 0.026816
vt 0.835742 0.026816
vt 0.834851 0.028076
vt 0.740393 0.028076
vt 0.393799 0.059043
vt 0.490039 0.059043
vt 0.489148 0.060303
vt 0.39469 0.060303
vt 0.837646 0.026816
vt 0.933887 0.026816
vt 0.932996 0.028076
vt 0.838538 0.028076
vt 0.225342 0.035605
vt 0.298413 0.035605
vt 0.297522 0.036865
vt 0.226233 0.036865
vt 0.225342 0.029746
vt 0.298413 0.029746
vt 0.297522 0.031006
vt 0.226233 0.031006
vt 0.300049 0.035605
vt 0.37312 0.035605
vt 0.372229 0.036865
vt 0.30094 0.036865
vt 0.300049 0.029746
vt 0.37312 0.029746
vt 0.372229 0.031006
vt 0.30094 0.031006
vt 0.437744 0.109644
vt 0.509033 0.109644
vt 0.509033 0.11499
vt 0.437744 0.11499
vt 0.510498 0.109644
vt 0.581787 0.109644
vt 0.581787 0.11499
vt 0.510498 0.11499
vt 0.583252 0.109644
vt 0.654541 0.109644
vt 0.654541 0.11499
vt 0.583252 0.11499
vt 0.656006 0.109644
vt 0.727295 0.109644
vt 0.727295 0.11499
vt 0.656006 0.11499
vt 0.375647 0.035605
vt 0.446936 0.035605
vt 0.447827 0.036865
vt 0.374756 0.036865
vt 0.450354 0.035605
vt 0.521643 0.035605
vt 0.522534 0.036865
vt 0.449463 0.036865
vt 0.525061 0.035605
vt 0.59635 0.035605
vt 0.597241 0.036865
vt 0.52417 0.036865
vt 0.599768 0.035605
vt 0.671057 0.035605
vt 0.671948 0.036865
vt 0.598877 0.036865
vt 0.662134 0.988086
vt 0.672827 0.998779
vt 0.578369 0.998779
vt 0.589063 0.988086
vt 0.662134 0.988086
vt 0.578369 0.998779
vt 0.589063 0.988086
vt 0.578369 0.998779
vt 0.578369 0.904321
vt 0.589063 0.915015
vt 0.589063 0.988086
vt 0.578369 0.904321
vt 0.589063 0.915015
vt 0.578369 0.904321
vt 0.672827 0.904321
vt 0.662134 0.915015
vt 0.589063 0.915015
vt 0.672827 0.904321
vt 0.662134 0.988086
vt 0.662134 0.915015
vt 0.672827 0.904321
vt 0.672827 0.904321
vt 0.672827 0.998779
vt 0.662134 0.988086
vt 0.674561 0.904321
vt 0.769019 0.904321
vt 0.758325 0.915015
vt 0.674561 0.904321
vt 0.758325 0.915015
vt 0.685254 0.915015
vt 0.674561 0.998779
vt 0.674561 0.904321
vt 0.685254 0.915015
vt 0.674561 0.998779
vt 0.685254 0.915015
vt 0.685254 0.988086
vt 0.769019 0.998779
vt 0.674561 0.998779
vt 0.685254 0.988086
vt 0.769019 0.998779
vt 0.685254 0.988086
vt 0.758325 0.988086
vt 0.769019 0.998779
vt 0.758325 0.988086
vt 0.758325 0.915015
vt 0.758325 0.915015
vt 0.769019 0.904321
vt 0.769019 0.998779
vn 0 -0.707107 0.707107
vn 0.707107 -0.707107 0
vn 0 -0.707107 -0.707107
vn -0.707107 -0.707107 0
vn 0 0 1
vn 1 0 0
vn 0 0 -1
vn -1 0 0
vn 0 0.707107 0.707107
vn 0.707107 0.707107 0
vn 0 0.707107 -0.707107
vn -0.707107 0.707107 0
vn 0 -1 0
vn 0 1 0
f 257/569/39 258/570/39 262/571/39 261/572/39
f 258/573/40 259/574/40 263/575/40 262/576/40
f 259/577/41 260/578/41 264/579/41 263/580/41
f 260/581/42 257/582/42 261/583/42 264/584/42
f 261/585/43 262/586/43 266/587/43 265/588/43
f 262/589/44 263/590/44 267/591/44 266/592/44
f 263/593/45 264/594/45 268/595/45 267/596/45
f 264/597/46 261/598/46 265/599/46 268/600/46
f 265/601/47 266/602/47 270/603/47 269/604/47
f 266/605/48 267/606/48 271/607/48 270/608/48
f 267/609/49 268/610/49 272/611/49 271/612/49
f 268/613/50 265/614/50 269/615/50 272/616/50
f 273/617/39 274/618/39 278/619/39 277/620/39
f 274/621/42 275/622/42 279/623/42 278/624/42
f 275/625/41 276/626/41 280/627/41 279/628/41
f 276/629/40 273/630/40 277/631/40 280/632/40
f 277/633/43 278/634/43 282/635/43 281/636/43
f 278/637/46 279/638/46 283/639/46 282/640/46
f 279/641/45 280/642/45 284/643/45 283/644/45
f 280/645/44 277/646/44 281/647/44 284/648/44
f 281/649/47 282/650/47 286/651/47 285/652/47
f 282/653/50 283/654/50 287/655/50 286/656/50
f 283/657/49 284/658/49 288/659/49 287/660/49
f 284/661/48 281/662/48 285/663/48 288/664/48
f 294/665/51 291/666/51 290/667/51
f 295/668/51 294/669/51 290/670/51
f 295/671/51 290/672/51 289/673/51
f 296/674/51 295/675/51 289/676/51
f 296/677/51 289/678/51 292/679/51
f 293/680/51 296/681/51 292/682/51
f 294/683/51 293/684/51 292/685/51
f 292/686/51 291/687/51 294/688/51
f 298/689/52 299/690/52 302/691/52
f 298/692/52 302/693/52 303/694/52
f 297/695/52 298/696/52 303/697/52
f 297/698/52 303/699/52 304/700/52
f 300/701/52 297/702/52 304/703/52
f 300/704/52 304/705/52 301/706/52
f 300/707/52 301/708/52 302/709/52
f 302/710/52 299/711/52 300/712/52
o arm_port_port_lining
usemtl heat_resistant_fluid_pipe
v 0.25125 0.95 0.74875
v 0.74875 0.95 0.74875
v 0.74875 0.95 0.25125
v 0.25125 0.95 0.25125
v 0.25125 1 0.74875
v 0.74875 1 0.74875
v 0.74875 1 0.25125
v 0.25125 1 0.25125
v 0.28125 0.95 0.28125
v 0.71875 0.95 0.28125
v 0.71875 0.95 0.71875
v 0.28125 0.95 0.71875
v 0.28125 1 0.28125
v 0.71875 1 0.28125
v 0.71875 1 0.71875
v 0.28125 1 0.71875
v 0.25125 0.95 0.74875
v 0.74875 0.95 0.74875
v 0.74875 0.95 0.25125
v 0.25125 0.95 0.25125
v 0.28125 0.95 0.28125
v 0.71875 0.95 0.28125
v 0.71875 0.95 0.71875
v 0.28125 0.95 0.71875
v 0.25125 1 0.74875
v 0.74875 1 0.74875
v 0.74875 1 0.25125
v 0.25125 1 0.25125
v 0.28125 1 0.28125
v 0.71875 1 0.28125
v 0.71875 1 0.71875
v 0.28125 1 0.71875
vt 0.073975 0.170361
vt 0.144907 0.170361
vt 0.144907 0.17749
vt 0.073975 0.17749
vt 0.146729 0.170361
vt 0.217661 0.170361
vt 0.217661 0.17749
vt 0.146729 0.17749
vt 0.219482 0.170361
vt 0.290415 0.170361
vt 0.290415 0.17749
vt 0.219482 0.17749
vt 0.292236 0.170361
vt 0.363169 0.170361
vt 0.363169 0.17749
vt 0.292236 0.17749
vt 0.065186 0.152783
vt 0.127563 0.152783
vt 0.127563 0.159912
vt 0.065186 0.159912
vt 0.12915 0.152783
vt 0.191528 0.152783
vt 0.191528 0.159912
vt 0.12915 0.159912
vt 0.193115 0.152783
vt 0.255493 0.152783
vt 0.255493 0.159912
vt 0.193115 0.159912
vt 0.25708 0.152783
vt 0.319458 0.152783
vt 0.319458 0.159912
vt 0.25708 0.159912
vt 0.586431 0.705928
vt 0.590708 0.710205
vt 0.519775 0.710205
vt 0.524053 0.705928
vt 0.586431 0.705928
vt 0.519775 0.710205
vt 0.524053 0.705928
vt 0.519775 0.710205
vt 0.519775 0.639272
vt 0.524053 0.64355
vt 0.524053 0.705928
vt 0.519775 0.639272
vt 0.524053 0.64355
vt 0.519775 0.639272
vt 0.590708 0.639272
vt 0.586431 0.64355
vt 0.524053 0.64355
vt 0.590708 0.639272
vt 0.586431 0.705928
vt 0.586431 0.64355
vt 0.590708 0.639272
vt 0.590708 0.639272
vt 0.590708 0.710205
vt 0.586431 0.705928
vt 0.592529 0.639272
vt 0.663462 0.639272
vt 0.659185 0.64355
vt 0.592529 0.639272
vt 0.659185 0.64355
vt 0.596807 0.64355
vt 0.592529 0.710205
vt 0.592529 0.639272
vt 0.596807 0.64355
vt 0.592529 0.710205
vt 0.596807 0.64355
vt 0.596807 0.705928
vt 0.663462 0.710205
vt 0.592529 0.710205
vt 0.596807 0.705928
vt 0.663462 0.710205
vt 0.596807 0.705928
vt 0.659185 0.705928
vt 0.663462 0.710205
vt 0.659185 0.705928
vt 0.659185 0.64355
vt 0.659185 0.64355
vt 0.663462 0.639272
vt 0.663462 0.710205
vn 0 0 1
vn 1 0 0
vn 0 0 -1
vn -1 0 0
vn 0 -1 0
vn 0 1 0
f 305/713/53 306/714/53 310/715/53 309/716/53
f 306/717/54 307/718/54 311/719/54 310/720/54
f 307/721/55 308/722/55 312/723/55 311/724/55
f 308/725/56 305/726/56 309/727/56 312/728/56
f 313/729/53 314/730/53 318/731/53 317/732/53
f 314/733/56 315/734/56 319/735/56 318/736/56
f 315/737/55 316/738/55 320/739/55 319/740/55
f 316/741/54 313/742/54 317/743/54 320/744/54
f 326/745/57 323/746/57 322/747/57
f 327/748/57 326/749/57 322/750/57
f 327/751/57 322/752/57 321/753/57
f 328/754/57 327/755/57 321/756/57
f 328/757/57 321/758/57 324/759/57
f 325/760/57 328/761/57 324/762/57
f 326/763/57 325/764/57 324/765/57
f 324/766/57 323/767/57 326/768/57
f 330/769/58 331/770/58 334/771/58
f 330/772/58 334/773/58 335/774/58
f 329/775/58 330/776/58 335/777/58
f 329/778/58 335/779/58 336/780/58
f 332/781/58 329/782/58 336/783/58
f 332/784/58 336/785/58 333/786/58
f 332/787/58 333/788/58 334/789/58
f 334/790/58 331/791/58 332/792/58
o arm_port_port_nuts
usemtl heat_resistant_fluid_pipe
v 0.232108 0.928125 0.7775
v 0.209375 0.928125 0.764375
v 0.186642 0.928125 0.7775
v 0.186642 0.928125 0.80375
v 0.209375 0.928125 0.816875
v 0.232108 0.928125 0.80375
v 0.232108 0.95 0.7775
v 0.209375 0.95 0.764375
v 0.186642 0.95 0.7775
v 0.186642 0.95 0.80375
v 0.209375 0.95 0.816875
v 0.232108 0.95 0.80375
v 0.232108 0.928125 0.7775
v 0.209375 0.928125 0.764375
v 0.186642 0.928125 0.7775
v 0.186642 0.928125 0.80375
v 0.209375 0.928125 0.816875
v 0.232108 0.928125 0.80375
v 0.232108 0.95 0.7775
v 0.209375 0.95 0.764375
v 0.186642 0.95 0.7775
v 0.186642 0.95 0.80375
v 0.209375 0.95 0.816875
v 0.232108 0.95 0.80375
v 0.232108 0.928125 0.19625
v 0.209375 0.928125 0.183125
v 0.186642 0.928125 0.19625
v 0.186642 0.928125 0.2225
v 0.209375 0.928125 0.235625
v 0.232108 0.928125 0.2225
v 0.232108 0.95 0.19625
v 0.209375 0.95 0.183125
v 0.186642 0.95 0.19625
v 0.186642 0.95 0.2225
v 0.209375 0.95 0.235625
v 0.232108 0.95 0.2225
v 0.232108 0.928125 0.19625
v 0.209375 0.928125 0.183125
v 0.186642 0.928125 0.19625
v 0.186642 0.928125 0.2225
v 0.209375 0.928125 0.235625
v 0.232108 0.928125 0.2225
v 0.232108 0.95 0.19625
v 0.209375 0.95 0.183125
v 0.186642 0.95 0.19625
v 0.186642 0.95 0.2225
v 0.209375 0.95 0.235625
v 0.232108 0.95 0.2225
v 0.813358 0.928125 0.7775
v 0.790625 0.928125 0.764375
v 0.767892 0.928125 0.7775
v 0.767892 0.928125 0.80375
v 0.790625 0.928125 0.816875
v 0.813358 0.928125 0.80375
v 0.813358 0.95 0.7775
v 0.790625 0.95 0.764375
v 0.767892 0.95 0.7775
v 0.767892 0.95 0.80375
v 0.790625 0.95 0.816875
v 0.813358 0.95 0.80375
v 0.813358 0.928125 0.7775
v 0.790625 0.928125 0.764375
v 0.767892 0.928125 0.7775
v 0.767892 0.928125 0.80375
v 0.790625 0.928125 0.816875
v 0.813358 0.928125 0.80375
v 0.813358 0.95 0.7775
v 0.790625 0.95 0.764375
v 0.767892 0.95 0.7775
v 0.767892 0.95 0.80375
v 0.790625 0.95 0.816875
v 0.813358 0.95 0.80375
v 0.813358 0.928125 0.19625
v 0.790625 0.928125 0.183125
v 0.767892 0.928125 0.19625
v 0.767892 0.928125 0.2225
v 0.790625 0.928125 0.235625
v 0.813358 0.928125 0.2225
v 0.813358 0.95 0.19625
v 0.790625 0.95 0.183125
v 0.767892 0.95 0.19625
v 0.767892 0.95 0.2225
v 0.790625 0.95 0.235625
v 0.813358 0.95 0.2225
v 0.813358 0.928125 0.19625
v 0.790625 0.928125 0.183125
v 0.767892 0.928125 0.19625
v 0.767892 0.928125 0.2225
v 0.790625 0.928125 0.235625
v 0.813358 0.928125 0.2225
v 0.813358 0.95 0.19625
v 0.790625 0.95 0.183125
v 0.767892 0.95 0.19625
v 0.767892 0.95 0.2225
v 0.790625 0.95 0.235625
v 0.813358 0.95 0.2225
vt 0.672607 0.072809
vt 0.67635 0.072809
vt 0.67635 0.075928
vt 0.672607 0.075928
vt 0.677979 0.072809
vt 0.681721 0.072809
vt 0.681721 0.075928
vt 0.677979 0.075928
vt 0.68335 0.072809
vt 0.687092 0.072809
vt 0.687092 0.075928
vt 0.68335 0.075928
vt 0.264404 0.072809
vt 0.268147 0.072809
vt 0.268147 0.075928
vt 0.264404 0.075928
vt 0.688721 0.072809
vt 0.692463 0.072809
vt 0.692463 0.075928
vt 0.688721 0.075928
vt 0.694092 0.072809
vt 0.697834 0.072809
vt 0.697834 0.075928
vt 0.694092 0.075928
vt 0.396401 0.147882
vt 0.39453 0.151123
vt 0.390787 0.151123
vt 0.39453 0.144641
vt 0.396401 0.147882
vt 0.390787 0.151123
vt 0.390787 0.144641
vt 0.39453 0.144641
vt 0.390787 0.151123
vt 0.390787 0.151123
vt 0.388916 0.147882
vt 0.390787 0.144641
vt 0.400065 0.144641
vt 0.403807 0.144641
vt 0.405679 0.147882
vt 0.400065 0.144641
vt 0.405679 0.147882
vt 0.403807 0.151123
vt 0.400065 0.144641
vt 0.403807 0.151123
vt 0.400065 0.151123
vt 0.400065 0.151123
vt 0.398193 0.147882
vt 0.400065 0.144641
vt 0.699463 0.072809
vt 0.703206 0.072809
vt 0.703206 0.075928
vt 0.699463 0.075928
vt 0.269775 0.072809
vt 0.273518 0.072809
vt 0.273518 0.075928
vt 0.269775 0.075928
vt 0.704834 0.072809
vt 0.708577 0.072809
vt 0.708577 0.075928
vt 0.704834 0.075928
vt 0.710205 0.072809
vt 0.713948 0.072809
vt 0.713948 0.075928
vt 0.710205 0.075928
vt 0.715576 0.072809
vt 0.719319 0.072809
vt 0.719319 0.075928
vt 0.715576 0.075928
vt 0.720947 0.072809
vt 0.72469 0.072809
vt 0.72469 0.075928
vt 0.720947 0.075928
vt 0.414956 0.147882
vt 0.413085 0.151123
vt 0.409342 0.151123
vt 0.413085 0.144641
vt 0.414956 0.147882
vt 0.409342 0.151123
vt 0.409342 0.144641
vt 0.413085 0.144641
vt 0.409342 0.151123
vt 0.409342 0.151123
vt 0.407471 0.147882
vt 0.409342 0.144641
vt 0.418619 0.144641
vt 0.422362 0.144641
vt 0.424233 0.147882
vt 0.418619 0.144641
vt 0.424233 0.147882
vt 0.422362 0.151123
vt 0.418619 0.144641
vt 0.422362 0.151123
vt 0.418619 0.151123
vt 0.418619 0.151123
vt 0.416748 0.147882
vt 0.418619 0.144641
vt 0.726318 0.072809
vt 0.730061 0.072809
vt 0.730061 0.075928
vt 0.726318 0.075928
vt 0.731689 0.072809
vt 0.735432 0.072809
vt 0.735432 0.075928
vt 0.731689 0.075928
vt 0.737061 0.072809
vt 0.740803 0.072809
vt 0.740803 0.075928
vt 0.737061 0.075928
vt 0.742432 0.072809
vt 0.746174 0.072809
vt 0.746174 0.075928
vt 0.742432 0.075928
vt 0.275146 0.072809
vt 0.278889 0.072809
vt 0.278889 0.075928
vt 0.275146 0.075928
vt 0.747803 0.072809
vt 0.751545 0.072809
vt 0.751545 0.075928
vt 0.747803 0.075928
vt 0.433511 0.147882
vt 0.431639 0.151123
vt 0.427897 0.151123
vt 0.431639 0.144641
vt 0.433511 0.147882
vt 0.427897 0.151123
vt 0.427897 0.144641
vt 0.431639 0.144641
vt 0.427897 0.151123
vt 0.427897 0.151123
vt 0.426025 0.147882
vt 0.427897 0.144641
vt 0.437174 0.144641
vt 0.440917 0.144641
vt 0.442788 0.147882
vt 0.437174 0.144641
vt 0.442788 0.147882
vt 0.440917 0.151123
vt 0.437174 0.144641
vt 0.440917 0.151123
vt 0.437174 0.151123
vt 0.437174 0.151123
vt 0.435303 0.147882
vt 0.437174 0.144641
vt 0.280518 0.072809
vt 0.28426 0.072809
vt 0.28426 0.075928
vt 0.280518 0.075928
vt 0.753174 0.072809
vt 0.756917 0.072809
vt 0.756917 0.075928
vt 0.753174 0.075928
vt 0.758545 0.072809
vt 0.762288 0.072809
vt 0.762288 0.075928
vt 0.758545 0.075928
vt 0.763916 0.072809
vt 0.767659 0.072809
vt 0.767659 0.075928
vt 0.763916 0.075928
vt 0.769287 0.072809
vt 0.77303 0.072809
vt 0.77303 0.075928
vt 0.769287 0.075928
vt 0.774658 0.072809
vt 0.778401 0.072809
vt 0.778401 0.075928
vt 0.774658 0.075928
vt 0.452065 0.147882
vt 0.450194 0.151123
vt 0.446451 0.151123
vt 0.450194 0.144641
vt 0.452065 0.147882
vt 0.446451 0.151123
vt 0.446451 0.144641
vt 0.450194 0.144641
vt 0.446451 0.151123
vt 0.446451 0.151123
vt 0.44458 0.147882
vt 0.446451 0.144641
vt 0.455729 0.144641
vt 0.459471 0.144641
vt 0.461343 0.147882
vt 0.455729 0.144641
vt 0.461343 0.147882
vt 0.459471 0.151123
vt 0.455729 0.144641
vt 0.459471 0.151123
vt 0.455729 0.151123
vt 0.455729 0.151123
vt 0.453857 0.147882
vt 0.455729 0.144641
vn 0.5 0 -0.866025
vn -0.5 0 -0.866025
vn -1 0 0
vn -0.5 0 0.866025
vn 0.5 0 0.866025
vn 1 0 0
vn 0 -1 0
vn 0 1 0
f 337/793/59 338/794/59 344/795/59 343/796/59
f 338/797/60 339/798/60 345/799/60 344/800/60
f 339/801/61 340/802/61 346/803/61 345/804/61
f 340/805/62 341/806/62 347/807/62 346/808/62
f 341/809/63 342/810/63 348/811/63 347/812/63
f 342/813/64 337/814/64 343/815/64 348/816/64
f 350/817/65 349/818/65 354/819/65
f 351/820/65 350/821/65 354/822/65
f 352/823/65 351/824/65 354/825/65
f 354/826/65 353/827/65 352/828/65
f 360/829/66 355/830/66 356/831/66
f 360/832/66 356/833/66 357/834/66
f 360/835/66 357/836/66 358/837/66
f 358/838/66 359/839/66 360/840/66
f 361/841/59 362/842/59 368/843/59 367/844/59
f 362/845/60 363/846/60 369/847/60 368/848/60
f 363/849/61 364/850/61 370/851/61 369/852/61
f 364/853/62 365/854/62 371/855/62 370/856/62
f 365/857/63 366/858/63 372/859/63 371/860/63
f 366/861/64 361/862/64 367/863/64 372/864/64
f 374/865/65 373/866/65 378/867/65
f 375/868/65 374/869/65 378/870/65
f 376/871/65 375/872/65 378/873/65
f 378/874/65 377/875/65 376/876/65
f 384/877/66 379/878/66 380/879/66
f 384/880/66 380/881/66 381/882/66
f 384/883/66 381/884/66 382/885/66
f 382/886/66 383/887/66 384/888/66
f 385/889/59 386/890/59 392/891/59 391/892/59
f 386/893/60 387/894/60 393/895/60 392/896/60
f 387/897/61 388/898/61 394/899/61 393/900/61
f 388/901/62 389/902/62 395/903/62 394/904/62
f 389/905/63 390/906/63 396/907/63 395/908/63
f 390/909/64 385/910/64 391/911/64 396/912/64
f 398/913/65 397/914/65 402/915/65
f 399/916/65 398/917/65 402/918/65
f 400/919/65 399/920/65 402/921/65
f 402/922/65 401/923/65 400/924/65
f 408/925/66 403/926/66 404/927/66
f 408/928/66 404/929/66 405/930/66
f 408/931/66 405/932/66 406/933/66
f 406/934/66 407/935/66 408/936/66
f 409/937/59 410/938/59 416/939/59 415/940/59
f 410/941/60 411/942/60 417/943/60 416/944/60
f 411/945/61 412/946/61 418/947/61 417/948/61
f 412/949/62 413/950/62 419/951/62 418/952/62
f 413/953/63 414/954/63 420/955/63 419/956/63
f 414/957/64 409/958/64 415/959/64 420/960/64
f 422/961/65 421/962/65 426/963/65
f 423/964/65 422/965/65 426/966/65
f 424/967/65 423/968/65 426/969/65
f 426/970/65 425/971/65 424/972/65
f 432/973/66 427/974/66 428/975/66
f 432/976/66 428/977/66 429/978/66
f 432/979/66 429/980/66 430/981/66
f 430/982/66 431/983/66 432/984/66
