# AFL Fluid Pipe V2 arm_port_north (glass), generated by tools/build-fluid-pipe-v2.mjs
mtllib heat_resistant_fluid_pipe.mtl
o arm_port_panes
usemtl heat_resistant_fluid_pipe
v 0.740625 0.33125 0.1625
v 0.740625 0.66875 0.1625
v 0.740625 0.66875 0.05
v 0.740625 0.33125 0.05
v 0.725 0.33125 0.1625
v 0.725 0.66875 0.1625
v 0.725 0.66875 0.05
v 0.725 0.33125 0.05
v 0.66875 0.259375 0.1625
v 0.33125 0.259375 0.1625
v 0.33125 0.259375 0.05
v 0.66875 0.259375 0.05
v 0.66875 0.275 0.1625
v 0.33125 0.275 0.1625
v 0.33125 0.275 0.05
v 0.66875 0.275 0.05
v 0.275 0.33125 0.1625
v 0.275 0.66875 0.1625
v 0.275 0.66875 0.05
v 0.275 0.33125 0.05
v 0.259375 0.33125 0.1625
v 0.259375 0.66875 0.1625
v 0.259375 0.66875 0.05
v 0.259375 0.33125 0.05
v 0.66875 0.725 0.1625
v 0.33125 0.725 0.1625
v 0.33125 0.725 0.05
v 0.66875 0.725 0.05
v 0.66875 0.740625 0.1625
v 0.33125 0.740625 0.1625
v 0.33125 0.740625 0.05
v 0.66875 0.740625 0.05
vt 0.554224 0.406006
vt 0.506104 0.406006
vt 0.506104 0.389966
vt 0.554224 0.389966
vt 0.555908 0.389966
vt 0.604028 0.389966
vt 0.604028 0.406006
vt 0.555908 0.406006
vt 0.605713 0.389966
vt 0.653833 0.389966
vt 0.653833 0.406006
vt 0.605713 0.406006
vt 0.703638 0.406006
vt 0.655518 0.406006
vt 0.655518 0.389966
vt 0.703638 0.389966
vt 0.753442 0.406006
vt 0.705322 0.406006
vt 0.705322 0.389966
vt 0.753442 0.389966
vt 0.755127 0.389966
vt 0.803247 0.389966
vt 0.803247 0.406006
vt 0.755127 0.406006
vt 0.804932 0.389966
vt 0.853052 0.389966
vt 0.853052 0.406006
vt 0.804932 0.406006
vt 0.902856 0.406006
vt 0.854736 0.406006
vt 0.854736 0.389966
vt 0.902856 0.389966
vn 1 0 0
vn -1 0 0
vn 0 -1 0
vn 0 1 0
f 4/1/1 3/2/1 2/3/1 1/4/1
f 5/5/2 6/6/2 7/7/2 8/8/2
f 9/9/3 10/10/3 11/11/3 12/12/3
f 16/13/4 15/14/4 14/15/4 13/16/4
f 20/17/1 19/18/1 18/19/1 17/20/1
f 21/21/2 22/22/2 23/23/2 24/24/2
f 25/25/3 26/26/3 27/27/3 28/28/3
f 32/29/4 31/30/4 30/31/4 29/32/4
