# AFL Fluid Pipe V2 arm_pipe_up (glass), generated by tools/build-fluid-pipe-v2.mjs
mtllib heat_resistant_fluid_pipe.mtl
o arm_pipe_panes
usemtl heat_resistant_fluid_pipe
v 0.259375 0.8375 0.66875
v 0.259375 0.8375 0.33125
v 0.259375 1 0.33125
v 0.259375 1 0.66875
v 0.275 0.8375 0.66875
v 0.275 0.8375 0.33125
v 0.275 1 0.33125
v 0.275 1 0.66875
v 0.33125 0.8375 0.740625
v 0.66875 0.8375 0.740625
v 0.66875 1 0.740625
v 0.33125 1 0.740625
v 0.33125 0.8375 0.725
v 0.66875 0.8375 0.725
v 0.66875 1 0.725
v 0.33125 1 0.725
v 0.725 0.8375 0.66875
v 0.725 0.8375 0.33125
v 0.725 1 0.33125
v 0.725 1 0.66875
v 0.740625 0.8375 0.66875
v 0.740625 0.8375 0.33125
v 0.740625 1 0.33125
v 0.740625 1 0.66875
v 0.33125 0.8375 0.275
v 0.66875 0.8375 0.275
v 0.66875 1 0.275
v 0.33125 1 0.275
v 0.33125 0.8375 0.259375
v 0.66875 0.8375 0.259375
v 0.66875 1 0.259375
v 0.33125 1 0.259375
vt 0.101099 0.406006
vt 0.052979 0.406006
vt 0.052979 0.382837
vt 0.101099 0.382837
vt 0.102783 0.382837
vt 0.150903 0.382837
vt 0.150903 0.406006
vt 0.102783 0.406006
vt 0.152588 0.382837
vt 0.200708 0.382837
vt 0.200708 0.406006
vt 0.152588 0.406006
vt 0.250513 0.406006
vt 0.202393 0.406006
vt 0.202393 0.382837
vt 0.250513 0.382837
vt 0.300317 0.406006
vt 0.252197 0.406006
vt 0.252197 0.382837
vt 0.300317 0.382837
vt 0.302002 0.382837
vt 0.350122 0.382837
vt 0.350122 0.406006
vt 0.302002 0.406006
vt 0.351807 0.382837
vt 0.399927 0.382837
vt 0.399927 0.406006
vt 0.351807 0.406006
vt 0.449731 0.406006
vt 0.401611 0.406006
vt 0.401611 0.382837
vt 0.449731 0.382837
vn -1 0 0
vn 1 0 0
vn 0 0 1
vn 0 0 -1
f 4/1/1 3/2/1 2/3/1 1/4/1
f 5/5/2 6/6/2 7/7/2 8/8/2
f 9/9/3 10/10/3 11/11/3 12/12/3
f 16/13/4 15/14/4 14/15/4 13/16/4
f 20/17/1 19/18/1 18/19/1 17/20/1
f 21/21/2 22/22/2 23/23/2 24/24/2
f 25/25/3 26/26/3 27/27/3 28/28/3
f 32/29/4 31/30/4 30/31/4 29/32/4
