# AFL Fluid Pipe V2 arm_pipe_south, generated by tools/build-fluid-pipe-v2.mjs
mtllib heat_resistant_fluid_pipe.mtl
o arm_pipe_flange
usemtl heat_resistant_fluid_pipe
v 0.16875 0.16875 0.7875
v 0.83125 0.16875 0.7875
v 0.83125 0.83125 0.7875
v 0.16875 0.83125 0.7875
v 0.1625 0.1625 0.79375
v 0.8375 0.1625 0.79375
v 0.8375 0.8375 0.79375
v 0.1625 0.8375 0.79375
v 0.1625 0.1625 0.83125
v 0.8375 0.1625 0.83125
v 0.8375 0.8375 0.83125
v 0.1625 0.8375 0.83125
v 0.16875 0.16875 0.8375
v 0.83125 0.16875 0.8375
v 0.83125 0.83125 0.8375
v 0.16875 0.83125 0.8375
v 0.24375 0.75625 0.7875
v 0.75625 0.75625 0.7875
v 0.75625 0.24375 0.7875
v 0.24375 0.24375 0.7875
v 0.25 0.75 0.79375
v 0.75 0.75 0.79375
v 0.75 0.25 0.79375
v 0.25 0.25 0.79375
v 0.25 0.75 0.83125
v 0.75 0.75 0.83125
v 0.75 0.25 0.83125
v 0.25 0.25 0.83125
v 0.24375 0.75625 0.8375
v 0.75625 0.75625 0.8375
v 0.75625 0.24375 0.8375
v 0.24375 0.24375 0.8375
v 0.16875 0.16875 0.7875
v 0.83125 0.16875 0.7875
v 0.83125 0.83125 0.7875
v 0.16875 0.83125 0.7875
v 0.24375 0.75625 0.7875
v 0.75625 0.75625 0.7875
v 0.75625 0.24375 0.7875
v 0.24375 0.24375 0.7875
v 0.16875 0.16875 0.8375
v 0.83125 0.16875 0.8375
v 0.83125 0.83125 0.8375
v 0.16875 0.83125 0.8375
v 0.24375 0.75625 0.8375
v 0.75625 0.75625 0.8375
v 0.75625 0.24375 0.8375
v 0.24375 0.24375 0.8375
vt 0.296545 0.061972
vt 0.391003 0.061972
vt 0.391895 0.063232
vt 0.295654 0.063232
vt 0.151526 0.018027
vt 0.245984 0.018027
vt 0.246875 0.019287
vt 0.150635 0.019287
vt 0.39469 0.061972
vt 0.489148 0.061972
vt 0.490039 0.063232
vt 0.393799 0.063232
vt 0.24967 0.018027
vt 0.344128 0.018027
vt 0.34502 0.019287
vt 0.248779 0.019287
vt 0.295654 0.136987
vt 0.391895 0.136987
vt 0.391895 0.142334
vt 0.295654 0.142334
vt 0.393799 0.136987
vt 0.490039 0.136987
vt 0.490039 0.142334
vt 0.393799 0.142334
vt 0.491943 0.136987
vt 0.588184 0.136987
vt 0.588184 0.142334
vt 0.491943 0.142334
vt 0.590088 0.136987
vt 0.686328 0.136987
vt 0.686328 0.142334
vt 0.590088 0.142334
vt 0.491943 0.061972
vt 0.588184 0.061972
vt 0.587292 0.063232
vt 0.492834 0.063232
vt 0.346924 0.026816
vt 0.443164 0.026816
vt 0.442273 0.028076
vt 0.347815 0.028076
vt 0.590088 0.061972
vt 0.686328 0.061972
vt 0.685437 0.063232
vt 0.590979 0.063232
vt 0.445068 0.026816
vt 0.541309 0.026816
vt 0.540417 0.028076
vt 0.445959 0.028076
vt 0.300049 0.038535
vt 0.37312 0.038535
vt 0.372229 0.039795
vt 0.30094 0.039795
vt 0.924072 0.023886
vt 0.997144 0.023886
vt 0.996252 0.025146
vt 0.924963 0.025146
vt 0.374756 0.038535
vt 0.447827 0.038535
vt 0.446936 0.039795
vt 0.375647 0.039795
vt 0.001221 0.020957
vt 0.074292 0.020957
vt 0.073401 0.022217
vt 0.002112 0.022217
vt 0.782959 0.116479
vt 0.854248 0.116479
vt 0.854248 0.121826
vt 0.782959 0.121826
vt 0.855713 0.116479
vt 0.927002 0.116479
vt 0.927002 0.121826
vt 0.855713 0.121826
vt 0.001221 0.109644
vt 0.07251 0.109644
vt 0.07251 0.11499
vt 0.001221 0.11499
vt 0.073975 0.109644
vt 0.145264 0.109644
vt 0.145264 0.11499
vt 0.073975 0.11499
vt 0.450354 0.038535
vt 0.521643 0.038535
vt 0.522534 0.039795
vt 0.449463 0.039795
vt 0.525061 0.038535
vt 0.59635 0.038535
vt 0.597241 0.039795
vt 0.52417 0.039795
vt 0.599768 0.038535
vt 0.671057 0.038535
vt 0.671948 0.039795
vt 0.598877 0.039795
vt 0.674475 0.038535
vt 0.745764 0.038535
vt 0.746655 0.039795
vt 0.673584 0.039795
vt 0.277368 0.988086
vt 0.288062 0.998779
vt 0.193604 0.998779
vt 0.204297 0.988086
vt 0.277368 0.988086
vt 0.193604 0.998779
vt 0.204297 0.988086
vt 0.193604 0.998779
vt 0.193604 0.904321
vt 0.204297 0.915015
vt 0.204297 0.988086
vt 0.193604 0.904321
vt 0.204297 0.915015
vt 0.193604 0.904321
vt 0.288062 0.904321
vt 0.277368 0.915015
vt 0.204297 0.915015
vt 0.288062 0.904321
vt 0.277368 0.988086
vt 0.277368 0.915015
vt 0.288062 0.904321
vt 0.288062 0.904321
vt 0.288062 0.998779
vt 0.277368 0.988086
vt 0.289795 0.904321
vt 0.384253 0.904321
vt 0.37356 0.915015
vt 0.289795 0.904321
vt 0.37356 0.915015
vt 0.300488 0.915015
vt 0.289795 0.998779
vt 0.289795 0.904321
vt 0.300488 0.915015
vt 0.289795 0.998779
vt 0.300488 0.915015
vt 0.300488 0.988086
vt 0.384253 0.998779
vt 0.289795 0.998779
vt 0.300488 0.988086
vt 0.384253 0.998779
vt 0.300488 0.988086
vt 0.37356 0.988086
vt 0.384253 0.998779
vt 0.37356 0.988086
vt 0.37356 0.915015
vt 0.37356 0.915015
vt 0.384253 0.904321
vt 0.384253 0.998779
vn 0 -0.707107 -0.707107
vn 0.707107 0 -0.707107
vn 0 0.707107 -0.707107
vn -0.707107 0 -0.707107
vn 0 -1 0
vn 1 0 0
vn 0 1 0
vn -1 0 0
vn 0 -0.707107 0.707107
vn 0.707107 0 0.707107
vn 0 0.707107 0.707107
vn -0.707107 0 0.707107
vn 0 0 -1
vn 0 0 1
f 1/1/1 2/2/1 6/3/1 5/4/1
f 2/5/2 3/6/2 7/7/2 6/8/2
f 3/9/3 4/10/3 8/11/3 7/12/3
f 4/13/4 1/14/4 5/15/4 8/16/4
f 5/17/5 6/18/5 10/19/5 9/20/5
f 6/21/6 7/22/6 11/23/6 10/24/6
f 7/25/7 8/26/7 12/27/7 11/28/7
f 8/29/8 5/30/8 9/31/8 12/32/8
f 9/33/9 10/34/9 14/35/9 13/36/9
f 10/37/10 11/38/10 15/39/10 14/40/10
f 11/41/11 12/42/11 16/43/11 15/44/11
f 12/45/12 9/46/12 13/47/12 16/48/12
f 17/49/1 18/50/1 22/51/1 21/52/1
f 18/53/4 19/54/4 23/55/4 22/56/4
f 19/57/3 20/58/3 24/59/3 23/60/3
f 20/61/2 17/62/2 21/63/2 24/64/2
f 21/65/5 22/66/5 26/67/5 25/68/5
f 22/69/8 23/70/8 27/71/8 26/72/8
f 23/73/7 24/74/7 28/75/7 27/76/7
f 24/77/6 21/78/6 25/79/6 28/80/6
f 25/81/9 26/82/9 30/83/9 29/84/9
f 26/85/12 27/86/12 31/87/12 30/88/12
f 27/89/11 28/90/11 32/91/11 31/92/11
f 28/93/10 25/94/10 29/95/10 32/96/10
f 38/97/13 35/98/13 34/99/13
f 39/100/13 38/101/13 34/102/13
f 39/103/13 34/104/13 33/105/13
f 40/106/13 39/107/13 33/108/13
f 40/109/13 33/110/13 36/111/13
f 37/112/13 40/113/13 36/114/13
f 38/115/13 37/116/13 36/117/13
f 36/118/13 35/119/13 38/120/13
f 42/121/14 43/122/14 46/123/14
f 42/124/14 46/125/14 47/126/14
f 41/127/14 42/128/14 47/129/14
f 41/130/14 47/131/14 48/132/14
f 44/133/14 41/134/14 48/135/14
f 44/136/14 48/137/14 45/138/14
f 44/139/14 45/140/14 46/141/14
f 46/142/14 43/143/14 44/144/14
o arm_pipe_flange_lining
usemtl heat_resistant_fluid_pipe
v 0.25125 0.25125 0.7875
v 0.74875 0.25125 0.7875
v 0.74875 0.74875 0.7875
v 0.25125 0.74875 0.7875
v 0.25125 0.25125 0.8375
v 0.74875 0.25125 0.8375
v 0.74875 0.74875 0.8375
v 0.25125 0.74875 0.8375
v 0.28125 0.71875 0.7875
v 0.71875 0.71875 0.7875
v 0.71875 0.28125 0.7875
v 0.28125 0.28125 0.7875
v 0.28125 0.71875 0.8375
v 0.71875 0.71875 0.8375
v 0.71875 0.28125 0.8375
v 0.28125 0.28125 0.8375
v 0.25125 0.25125 0.7875
v 0.74875 0.25125 0.7875
v 0.74875 0.74875 0.7875
v 0.25125 0.74875 0.7875
v 0.28125 0.71875 0.7875
v 0.71875 0.71875 0.7875
v 0.71875 0.28125 0.7875
v 0.28125 0.28125 0.7875
v 0.25125 0.25125 0.8375
v 0.74875 0.25125 0.8375
v 0.74875 0.74875 0.8375
v 0.25125 0.74875 0.8375
v 0.28125 0.71875 0.8375
v 0.71875 0.71875 0.8375
v 0.71875 0.28125 0.8375
v 0.28125 0.28125 0.8375
vt 0.420166 0.17915
vt 0.491099 0.17915
vt 0.491099 0.186279
vt 0.420166 0.186279
vt 0.49292 0.17915
vt 0.563853 0.17915
vt 0.563853 0.186279
vt 0.49292 0.186279
vt 0.565674 0.17915
vt 0.636606 0.17915
vt 0.636606 0.186279
vt 0.565674 0.186279
vt 0.638428 0.17915
vt 0.70936 0.17915
vt 0.70936 0.186279
vt 0.638428 0.186279
vt 0.548096 0.161572
vt 0.610474 0.161572
vt 0.610474 0.168701
vt 0.548096 0.168701
vt 0.612061 0.161572
vt 0.674438 0.161572
vt 0.674438 0.168701
vt 0.612061 0.168701
vt 0.676025 0.161572
vt 0.738403 0.161572
vt 0.738403 0.168701
vt 0.676025 0.168701
vt 0.73999 0.161572
vt 0.802368 0.161572
vt 0.802368 0.168701
vt 0.73999 0.168701
vt 0.295415 0.705928
vt 0.299692 0.710205
vt 0.22876 0.710205
vt 0.233037 0.705928
vt 0.295415 0.705928
vt 0.22876 0.710205
vt 0.233037 0.705928
vt 0.22876 0.710205
vt 0.22876 0.639272
vt 0.233037 0.64355
vt 0.233037 0.705928
vt 0.22876 0.639272
vt 0.233037 0.64355
vt 0.22876 0.639272
vt 0.299692 0.639272
vt 0.295415 0.64355
vt 0.233037 0.64355
vt 0.299692 0.639272
vt 0.295415 0.705928
vt 0.295415 0.64355
vt 0.299692 0.639272
vt 0.299692 0.639272
vt 0.299692 0.710205
vt 0.295415 0.705928
vt 0.301514 0.639272
vt 0.372446 0.639272
vt 0.368169 0.64355
vt 0.301514 0.639272
vt 0.368169 0.64355
vt 0.305791 0.64355
vt 0.301514 0.710205
vt 0.301514 0.639272
vt 0.305791 0.64355
vt 0.301514 0.710205
vt 0.305791 0.64355
vt 0.305791 0.705928
vt 0.372446 0.710205
vt 0.301514 0.710205
vt 0.305791 0.705928
vt 0.372446 0.710205
vt 0.305791 0.705928
vt 0.368169 0.705928
vt 0.372446 0.710205
vt 0.368169 0.705928
vt 0.368169 0.64355
vt 0.368169 0.64355
vt 0.372446 0.639272
vt 0.372446 0.710205
vn 0 -1 0
vn 1 0 0
vn 0 1 0
vn -1 0 0
vn 0 0 -1
vn 0 0 1
f 49/145/15 50/146/15 54/147/15 53/148/15
f 50/149/16 51/150/16 55/151/16 54/152/16
f 51/153/17 52/154/17 56/155/17 55/156/17
f 52/157/18 49/158/18 53/159/18 56/160/18
f 57/161/15 58/162/15 62/163/15 61/164/15
f 58/165/18 59/166/18 63/167/18 62/168/18
f 59/169/17 60/170/17 64/171/17 63/172/17
f 60/173/16 57/174/16 61/175/16 64/176/16
f 70/177/19 67/178/19 66/179/19
f 71/180/19 70/181/19 66/182/19
f 71/183/19 66/184/19 65/185/19
f 72/186/19 71/187/19 65/188/19
f 72/189/19 65/190/19 68/191/19
f 69/192/19 72/193/19 68/194/19
f 70/195/19 69/196/19 68/197/19
f 68/198/19 67/199/19 70/200/19
f 74/201/20 75/202/20 78/203/20
f 74/204/20 78/205/20 79/206/20
f 73/207/20 74/208/20 79/209/20
f 73/210/20 79/211/20 80/212/20
f 76/213/20 73/214/20 80/215/20
f 76/216/20 80/217/20 77/218/20
f 76/219/20 77/220/20 78/221/20
f 78/222/20 75/223/20 76/224/20
o arm_pipe_flange_nuts
usemtl heat_resistant_fluid_pipe
v 0.232108 0.2225 0.8375
v 0.209375 0.235625 0.8375
v 0.186642 0.2225 0.8375
v 0.186642 0.19625 0.8375
v 0.209375 0.183125 0.8375
v 0.232108 0.19625 0.8375
v 0.232108 0.2225 0.859375
v 0.209375 0.235625 0.859375
v 0.186642 0.2225 0.859375
v 0.186642 0.19625 0.859375
v 0.209375 0.183125 0.859375
v 0.232108 0.19625 0.859375
v 0.232108 0.2225 0.8375
v 0.209375 0.235625 0.8375
v 0.186642 0.2225 0.8375
v 0.186642 0.19625 0.8375
v 0.209375 0.183125 0.8375
v 0.232108 0.19625 0.8375
v 0.232108 0.2225 0.859375
v 0.209375 0.235625 0.859375
v 0.186642 0.2225 0.859375
v 0.186642 0.19625 0.859375
v 0.209375 0.183125 0.859375
v 0.232108 0.19625 0.859375
v 0.232108 0.80375 0.8375
v 0.209375 0.816875 0.8375
v 0.186642 0.80375 0.8375
v 0.186642 0.7775 0.8375
v 0.209375 0.764375 0.8375
v 0.232108 0.7775 0.8375
v 0.232108 0.80375 0.859375
v 0.209375 0.816875 0.859375
v 0.186642 0.80375 0.859375
v 0.186642 0.7775 0.859375
v 0.209375 0.764375 0.859375
v 0.232108 0.7775 0.859375
v 0.232108 0.80375 0.8375
v 0.209375 0.816875 0.8375
v 0.186642 0.80375 0.8375
v 0.186642 0.7775 0.8375
v 0.209375 0.764375 0.8375
v 0.232108 0.7775 0.8375
v 0.232108 0.80375 0.859375
v 0.209375 0.816875 0.859375
v 0.186642 0.80375 0.859375
v 0.186642 0.7775 0.859375
v 0.209375 0.764375 0.859375
v 0.232108 0.7775 0.859375
v 0.813358 0.2225 0.8375
v 0.790625 0.235625 0.8375
v 0.767892 0.2225 0.8375
v 0.767892 0.19625 0.8375
v 0.790625 0.183125 0.8375
v 0.813358 0.19625 0.8375
v 0.813358 0.2225 0.859375
v 0.790625 0.235625 0.859375
v 0.767892 0.2225 0.859375
v 0.767892 0.19625 0.859375
v 0.790625 0.183125 0.859375
v 0.813358 0.19625 0.859375
v 0.813358 0.2225 0.8375
v 0.790625 0.235625 0.8375
v 0.767892 0.2225 0.8375
v 0.767892 0.19625 0.8375
v 0.790625 0.183125 0.8375
v 0.813358 0.19625 0.8375
v 0.813358 0.2225 0.859375
v 0.790625 0.235625 0.859375
v 0.767892 0.2225 0.859375
v 0.767892 0.19625 0.859375
v 0.790625 0.183125 0.859375
v 0.813358 0.19625 0.859375
v 0.813358 0.80375 0.8375
v 0.790625 0.816875 0.8375
v 0.767892 0.80375 0.8375
v 0.767892 0.7775 0.8375
v 0.790625 0.764375 0.8375
v 0.813358 0.7775 0.8375
v 0.813358 0.80375 0.859375
v 0.790625 0.816875 0.859375
v 0.767892 0.80375 0.859375
v 0.767892 0.7775 0.859375
v 0.790625 0.764375 0.859375
v 0.813358 0.7775 0.859375
v 0.813358 0.80375 0.8375
v 0.790625 0.816875 0.8375
v 0.767892 0.80375 0.8375
v 0.767892 0.7775 0.8375
v 0.790625 0.764375 0.8375
v 0.813358 0.7775 0.8375
v 0.813358 0.80375 0.859375
v 0.790625 0.816875 0.859375
v 0.767892 0.80375 0.859375
v 0.767892 0.7775 0.859375
v 0.790625 0.764375 0.859375
v 0.813358 0.7775 0.859375
vt 0.457764 0.072809
vt 0.461506 0.072809
vt 0.461506 0.075928
vt 0.457764 0.075928
vt 0.463135 0.072809
vt 0.466877 0.072809
vt 0.466877 0.075928
vt 0.463135 0.075928
vt 0.468506 0.072809
vt 0.472249 0.072809
vt 0.472249 0.075928
vt 0.468506 0.075928
vt 0.221436 0.072809
vt 0.225178 0.072809
vt 0.225178 0.075928
vt 0.221436 0.075928
vt 0.473877 0.072809
vt 0.47762 0.072809
vt 0.47762 0.075928
vt 0.473877 0.075928
vt 0.479248 0.072809
vt 0.482991 0.072809
vt 0.482991 0.075928
vt 0.479248 0.075928
vt 0.247964 0.147882
vt 0.246093 0.151123
vt 0.24235 0.151123
vt 0.246093 0.144641
vt 0.247964 0.147882
vt 0.24235 0.151123
vt 0.24235 0.144641
vt 0.246093 0.144641
vt 0.24235 0.151123
vt 0.24235 0.151123
vt 0.240479 0.147882
vt 0.24235 0.144641
vt 0.251627 0.144641
vt 0.25537 0.144641
vt 0.257241 0.147882
vt 0.251627 0.144641
vt 0.257241 0.147882
vt 0.25537 0.151123
vt 0.251627 0.144641
vt 0.25537 0.151123
vt 0.251627 0.151123
vt 0.251627 0.151123
vt 0.249756 0.147882
vt 0.251627 0.144641
vt 0.484619 0.072809
vt 0.488362 0.072809
vt 0.488362 0.075928
vt 0.484619 0.075928
vt 0.226807 0.072809
vt 0.230549 0.072809
vt 0.230549 0.075928
vt 0.226807 0.075928
vt 0.48999 0.072809
vt 0.493733 0.072809
vt 0.493733 0.075928
vt 0.48999 0.075928
vt 0.495361 0.072809
vt 0.499104 0.072809
vt 0.499104 0.075928
vt 0.495361 0.075928
vt 0.500732 0.072809
vt 0.504475 0.072809
vt 0.504475 0.075928
vt 0.500732 0.075928
vt 0.506104 0.072809
vt 0.509846 0.072809
vt 0.509846 0.075928
vt 0.506104 0.075928
vt 0.266519 0.147882
vt 0.264647 0.151123
vt 0.260905 0.151123
vt 0.264647 0.144641
vt 0.266519 0.147882
vt 0.260905 0.151123
vt 0.260905 0.144641
vt 0.264647 0.144641
vt 0.260905 0.151123
vt 0.260905 0.151123
vt 0.259033 0.147882
vt 0.260905 0.144641
vt 0.270182 0.144641
vt 0.273925 0.144641
vt 0.275796 0.147882
vt 0.270182 0.144641
vt 0.275796 0.147882
vt 0.273925 0.151123
vt 0.270182 0.144641
vt 0.273925 0.151123
vt 0.270182 0.151123
vt 0.270182 0.151123
vt 0.268311 0.147882
vt 0.270182 0.144641
vt 0.511475 0.072809
vt 0.515217 0.072809
vt 0.515217 0.075928
vt 0.511475 0.075928
vt 0.516846 0.072809
vt 0.520588 0.072809
vt 0.520588 0.075928
vt 0.516846 0.075928
vt 0.522217 0.072809
vt 0.525959 0.072809
vt 0.525959 0.075928
vt 0.522217 0.075928
vt 0.527588 0.072809
vt 0.531331 0.072809
vt 0.531331 0.075928
vt 0.527588 0.075928
vt 0.232178 0.072809
vt 0.23592 0.072809
vt 0.23592 0.075928
vt 0.232178 0.075928
vt 0.532959 0.072809
vt 0.536702 0.072809
vt 0.536702 0.075928
vt 0.532959 0.075928
vt 0.285073 0.147882
vt 0.283202 0.151123
vt 0.279459 0.151123
vt 0.283202 0.144641
vt 0.285073 0.147882
vt 0.279459 0.151123
vt 0.279459 0.144641
vt 0.283202 0.144641
vt 0.279459 0.151123
vt 0.279459 0.151123
vt 0.277588 0.147882
vt 0.279459 0.144641
vt 0.288737 0.144641
vt 0.292479 0.144641
vt 0.294351 0.147882
vt 0.288737 0.144641
vt 0.294351 0.147882
vt 0.292479 0.151123
vt 0.288737 0.144641
vt 0.292479 0.151123
vt 0.288737 0.151123
vt 0.288737 0.151123
vt 0.286865 0.147882
vt 0.288737 0.144641
vt 0.237549 0.072809
vt 0.241292 0.072809
vt 0.241292 0.075928
vt 0.237549 0.075928
vt 0.53833 0.072809
vt 0.542073 0.072809
vt 0.542073 0.075928
vt 0.53833 0.075928
vt 0.543701 0.072809
vt 0.547444 0.072809
vt 0.547444 0.075928
vt 0.543701 0.075928
vt 0.549072 0.072809
vt 0.552815 0.072809
vt 0.552815 0.075928
vt 0.549072 0.075928
vt 0.554443 0.072809
vt 0.558186 0.072809
vt 0.558186 0.075928
vt 0.554443 0.075928
vt 0.559814 0.072809
vt 0.563557 0.072809
vt 0.563557 0.075928
vt 0.559814 0.075928
vt 0.303628 0.147882
vt 0.301757 0.151123
vt 0.298014 0.151123
vt 0.301757 0.144641
vt 0.303628 0.147882
vt 0.298014 0.151123
vt 0.298014 0.144641
vt 0.301757 0.144641
vt 0.298014 0.151123
vt 0.298014 0.151123
vt 0.296143 0.147882
vt 0.298014 0.144641
vt 0.307291 0.144641
vt 0.311034 0.144641
vt 0.312905 0.147882
vt 0.307291 0.144641
vt 0.312905 0.147882
vt 0.311034 0.151123
vt 0.307291 0.144641
vt 0.311034 0.151123
vt 0.307291 0.151123
vt 0.307291 0.151123
vt 0.30542 0.147882
vt 0.307291 0.144641
vn 0.5 0.866025 0
vn -0.5 0.866025 0
vn -1 0 0
vn -0.5 -0.866025 0
vn 0.5 -0.866025 0
vn 1 0 0
vn 0 0 -1
vn 0 0 1
f 81/225/21 82/226/21 88/227/21 87/228/21
f 82/229/22 83/230/22 89/231/22 88/232/22
f 83/233/23 84/234/23 90/235/23 89/236/23
f 84/237/24 85/238/24 91/239/24 90/240/24
f 85/241/25 86/242/25 92/243/25 91/244/25
f 86/245/26 81/246/26 87/247/26 92/248/26
f 94/249/27 93/250/27 98/251/27
f 95/252/27 94/253/27 98/254/27
f 96/255/27 95/256/27 98/257/27
f 98/258/27 97/259/27 96/260/27
f 104/261/28 99/262/28 100/263/28
f 104/264/28 100/265/28 101/266/28
f 104/267/28 101/268/28 102/269/28
f 102/270/28 103/271/28 104/272/28
f 105/273/21 106/274/21 112/275/21 111/276/21
f 106/277/22 107/278/22 113/279/22 112/280/22
f 107/281/23 108/282/23 114/283/23 113/284/23
f 108/285/24 109/286/24 115/287/24 114/288/24
f 109/289/25 110/290/25 116/291/25 115/292/25
f 110/293/26 105/294/26 111/295/26 116/296/26
f 118/297/27 117/298/27 122/299/27
f 119/300/27 118/301/27 122/302/27
f 120/303/27 119/304/27 122/305/27
f 122/306/27 121/307/27 120/308/27
f 128/309/28 123/310/28 124/311/28
f 128/312/28 124/313/28 125/314/28
f 128/315/28 125/316/28 126/317/28
f 126/318/28 127/319/28 128/320/28
f 129/321/21 130/322/21 136/323/21 135/324/21
f 130/325/22 131/326/22 137/327/22 136/328/22
f 131/329/23 132/330/23 138/331/23 137/332/23
f 132/333/24 133/334/24 139/335/24 138/336/24
f 133/337/25 134/338/25 140/339/25 139/340/25
f 134/341/26 129/342/26 135/343/26 140/344/26
f 142/345/27 141/346/27 146/347/27
f 143/348/27 142/349/27 146/350/27
f 144/351/27 143/352/27 146/353/27
f 146/354/27 145/355/27 144/356/27
f 152/357/28 147/358/28 148/359/28
f 152/360/28 148/361/28 149/362/28
f 152/363/28 149/364/28 150/365/28
f 150/366/28 151/367/28 152/368/28
f 153/369/21 154/370/21 160/371/21 159/372/21
f 154/373/22 155/374/22 161/375/22 160/376/22
f 155/377/23 156/378/23 162/379/23 161/380/23
f 156/381/24 157/382/24 163/383/24 162/384/24
f 157/385/25 158/386/25 164/387/25 163/388/25
f 158/389/26 153/390/26 159/391/26 164/392/26
f 166/393/27 165/394/27 170/395/27
f 167/396/27 166/397/27 170/398/27
f 168/399/27 167/400/27 170/401/27
f 170/402/27 169/403/27 168/404/27
f 176/405/28 171/406/28 172/407/28
f 176/408/28 172/409/28 173/410/28
f 176/411/28 173/412/28 174/413/28
f 174/414/28 175/415/28 176/416/28
o arm_pipe_rails
usemtl heat_resistant_fluid_pipe
v 0.33125 0.33125 0.8375
v 0.25 0.33125 0.8375
v 0.25 0.26875 0.8375
v 0.26875 0.25 0.8375
v 0.33125 0.25 0.8375
v 0.33125 0.33125 1
v 0.25 0.33125 1
v 0.25 0.26875 1
v 0.26875 0.25 1
v 0.33125 0.25 1
v 0.33125 0.33125 0.8375
v 0.25 0.33125 0.8375
v 0.25 0.26875 0.8375
v 0.26875 0.25 0.8375
v 0.33125 0.25 0.8375
v 0.33125 0.33125 1
v 0.25 0.33125 1
v 0.25 0.26875 1
v 0.26875 0.25 1
v 0.33125 0.25 1
v 0.33125 0.75 0.8375
v 0.26875 0.75 0.8375
v 0.25 0.73125 0.8375
v 0.25 0.66875 0.8375
v 0.33125 0.66875 0.8375
v 0.33125 0.75 1
v 0.26875 0.75 1
v 0.25 0.73125 1
v 0.25 0.66875 1
v 0.33125 0.66875 1
v 0.33125 0.75 0.8375
v 0.26875 0.75 0.8375
v 0.25 0.73125 0.8375
v 0.25 0.66875 0.8375
v 0.33125 0.66875 0.8375
v 0.33125 0.75 1
v 0.26875 0.75 1
v 0.25 0.73125 1
v 0.25 0.66875 1
v 0.33125 0.66875 1
v 0.66875 0.25 0.8375
v 0.73125 0.25 0.8375
v 0.75 0.26875 0.8375
v 0.75 0.33125 0.8375
v 0.66875 0.33125 0.8375
v 0.66875 0.25 1
v 0.73125 0.25 1
v 0.75 0.26875 1
v 0.75 0.33125 1
v 0.66875 0.33125 1
v 0.66875 0.25 0.8375
v 0.73125 0.25 0.8375
v 0.75 0.26875 0.8375
v 0.75 0.33125 0.8375
v 0.66875 0.33125 0.8375
v 0.66875 0.25 1
v 0.73125 0.25 1
v 0.75 0.26875 1
v 0.75 0.33125 1
v 0.66875 0.33125 1
v 0.66875 0.66875 0.8375
v 0.75 0.66875 0.8375
v 0.75 0.73125 0.8375
v 0.73125 0.75 0.8375
v 0.66875 0.75 0.8375
v 0.66875 0.66875 1
v 0.75 0.66875 1
v 0.75 0.73125 1
v 0.73125 0.75 1
v 0.66875 0.75 1
v 0.66875 0.66875 0.8375
v 0.75 0.66875 0.8375
v 0.75 0.73125 0.8375
v 0.73125 0.75 0.8375
v 0.66875 0.75 0.8375
v 0.66875 0.66875 1
v 0.75 0.66875 1
v 0.75 0.73125 1
v 0.73125 0.75 1
v 0.66875 0.75 1
vt 0.667236 0.315186
vt 0.667236 0.303601
vt 0.690405 0.303601
vt 0.690405 0.315186
vt 0.528564 0.205811
vt 0.528564 0.196899
vt 0.551733 0.196899
vt 0.551733 0.205811
vt 0.687744 0.081299
vt 0.687744 0.077518
vt 0.710913 0.077518
vt 0.710913 0.081299
vt 0.553467 0.205811
vt 0.553467 0.196899
vt 0.576636 0.196899
vt 0.576636 0.205811
vt 0.692139 0.315186
vt 0.692139 0.303601
vt 0.715308 0.303601
vt 0.715308 0.315186
vt 0.241321 0.290417
vt 0.241321 0.302002
vt 0.229736 0.302002
vt 0.23241 0.290417
vt 0.241321 0.290417
vt 0.229736 0.302002
vt 0.229736 0.302002
vt 0.229736 0.293091
vt 0.23241 0.290417
vt 0.24292 0.290417
vt 0.254504 0.290417
vt 0.254504 0.302002
vt 0.24292 0.290417
vt 0.254504 0.302002
vt 0.245593 0.302002
vt 0.245593 0.302002
vt 0.24292 0.299329
vt 0.24292 0.290417
vt 0.578369 0.205811
vt 0.578369 0.196899
vt 0.601538 0.196899
vt 0.601538 0.205811
vt 0.712646 0.081299
vt 0.712646 0.077518
vt 0.735815 0.077518
vt 0.735815 0.081299
vt 0.603271 0.205811
vt 0.603271 0.196899
vt 0.62644 0.196899
vt 0.62644 0.205811
vt 0.717041 0.315186
vt 0.717041 0.303601
vt 0.74021 0.303601
vt 0.74021 0.315186
vt 0.741943 0.315186
vt 0.741943 0.303601
vt 0.765112 0.303601
vt 0.765112 0.315186
vt 0.267688 0.293091
vt 0.267688 0.302002
vt 0.256104 0.302002
vt 0.265015 0.290417
vt 0.267688 0.293091
vt 0.256104 0.302002
vt 0.256104 0.302002
vt 0.256104 0.290417
vt 0.265015 0.290417
vt 0.269287 0.290417
vt 0.280872 0.290417
vt 0.280872 0.299329
vt 0.269287 0.290417
vt 0.280872 0.299329
vt 0.278198 0.302002
vt 0.278198 0.302002
vt 0.269287 0.302002
vt 0.269287 0.290417
vt 0.628174 0.205811
vt 0.628174 0.196899
vt 0.651343 0.196899
vt 0.651343 0.205811
vt 0.737549 0.081299
vt 0.737549 0.077518
vt 0.760718 0.077518
vt 0.760718 0.081299
vt 0.653076 0.205811
vt 0.653076 0.196899
vt 0.676245 0.196899
vt 0.676245 0.205811
vt 0.766846 0.315186
vt 0.766846 0.303601
vt 0.790015 0.303601
vt 0.790015 0.315186
vt 0.791748 0.315186
vt 0.791748 0.303601
vt 0.814917 0.303601
vt 0.814917 0.315186
vt 0.282471 0.299329
vt 0.282471 0.290417
vt 0.294055 0.290417
vt 0.285144 0.302002
vt 0.282471 0.299329
vt 0.294055 0.290417
vt 0.294055 0.290417
vt 0.294055 0.302002
vt 0.285144 0.302002
vt 0.307239 0.302002
vt 0.295654 0.302002
vt 0.295654 0.293091
vt 0.307239 0.302002
vt 0.295654 0.293091
vt 0.298328 0.290417
vt 0.298328 0.290417
vt 0.307239 0.290417
vt 0.307239 0.302002
vt 0.81665 0.315186
vt 0.81665 0.303601
vt 0.839819 0.303601
vt 0.839819 0.315186
vt 0.677979 0.205811
vt 0.677979 0.196899
vt 0.701147 0.196899
vt 0.701147 0.205811
vt 0.762451 0.081299
vt 0.762451 0.077518
vt 0.78562 0.077518
vt 0.78562 0.081299
vt 0.702881 0.205811
vt 0.702881 0.196899
vt 0.72605 0.196899
vt 0.72605 0.205811
vt 0.841553 0.315186
vt 0.841553 0.303601
vt 0.864722 0.303601
vt 0.864722 0.315186
vt 0.308838 0.302002
vt 0.308838 0.290417
vt 0.320422 0.290417
vt 0.317749 0.302002
vt 0.308838 0.302002
vt 0.320422 0.290417
vt 0.320422 0.290417
vt 0.320422 0.299329
vt 0.317749 0.302002
vt 0.333606 0.302002
vt 0.322021 0.302002
vt 0.322021 0.290417
vt 0.333606 0.302002
vt 0.322021 0.290417
vt 0.330933 0.290417
vt 0.330933 0.290417
vt 0.333606 0.293091
vt 0.333606 0.302002
vn 0 1 0
vn -1 0 0
vn -0.707107 -0.707107 0
vn 0 -1 0
vn 1 0 0
vn 0 0 -1
vn 0 0 1
vn -0.707107 0.707107 0
vn 0.707107 -0.707107 0
vn 0.707107 0.707107 0
f 177/417/29 178/418/29 183/419/29 182/420/29
f 178/421/30 179/422/30 184/423/30 183/424/30
f 179/425/31 180/426/31 185/427/31 184/428/31
f 180/429/32 181/430/32 186/431/32 185/432/32
f 181/433/33 177/434/33 182/435/33 186/436/33
f 188/437/34 187/438/34 191/439/34
f 189/440/34 188/441/34 191/442/34
f 191/443/34 190/444/34 189/445/34
f 196/446/35 192/447/35 193/448/35
f 196/449/35 193/450/35 194/451/35
f 194/452/35 195/453/35 196/454/35
f 197/455/29 198/456/29 203/457/29 202/458/29
f 198/459/36 199/460/36 204/461/36 203/462/36
f 199/463/30 200/464/30 205/465/30 204/466/30
f 200/467/32 201/468/32 206/469/32 205/470/32
f 201/471/33 197/472/33 202/473/33 206/474/33
f 208/475/34 207/476/34 211/477/34
f 209/478/34 208/479/34 211/480/34
f 211/481/34 210/482/34 209/483/34
f 216/484/35 212/485/35 213/486/35
f 216/487/35 213/488/35 214/489/35
f 214/490/35 215/491/35 216/492/35
f 217/493/32 218/494/32 223/495/32 222/496/32
f 218/497/37 219/498/37 224/499/37 223/500/37
f 219/501/33 220/502/33 225/503/33 224/504/33
f 220/505/29 221/506/29 226/507/29 225/508/29
f 221/509/30 217/510/30 222/511/30 226/512/30
f 228/513/34 227/514/34 231/515/34
f 229/516/34 228/517/34 231/518/34
f 231/519/34 230/520/34 229/521/34
f 236/522/35 232/523/35 233/524/35
f 236/525/35 233/526/35 234/527/35
f 234/528/35 235/529/35 236/530/35
f 237/531/32 238/532/32 243/533/32 242/534/32
f 238/535/33 239/536/33 244/537/33 243/538/33
f 239/539/38 240/540/38 245/541/38 244/542/38
f 240/543/29 241/544/29 246/545/29 245/546/29
f 241/547/30 237/548/30 242/549/30 246/550/30
f 248/551/34 247/552/34 251/553/34
f 249/554/34 248/555/34 251/556/34
f 251/557/34 250/558/34 249/559/34
f 256/560/35 252/561/35 253/562/35
f 256/563/35 253/564/35 254/565/35
f 254/566/35 255/567/35 256/568/35
