# AFL Fluid Pipe V2 band_z, generated by tools/build-fluid-pipe-v2.mjs
mtllib heat_resistant_fluid_pipe.mtl
o band_band
usemtl heat_resistant_fluid_pipe
v 0.21875 0.21875 0.44375
v 0.78125 0.21875 0.44375
v 0.78125 0.78125 0.44375
v 0.21875 0.78125 0.44375
v 0.2125 0.2125 0.45
v 0.7875 0.2125 0.45
v 0.7875 0.7875 0.45
v 0.2125 0.7875 0.45
v 0.2125 0.2125 0.55
v 0.7875 0.2125 0.55
v 0.7875 0.7875 0.55
v 0.2125 0.7875 0.55
v 0.21875 0.21875 0.55625
v 0.78125 0.21875 0.55625
v 0.78125 0.78125 0.55625
v 0.21875 0.78125 0.55625
v 0.24375 0.75625 0.44375
v 0.75625 0.75625 0.44375
v 0.75625 0.24375 0.44375
v 0.24375 0.24375 0.44375
v 0.25 0.75 0.45
v 0.75 0.75 0.45
v 0.75 0.25 0.45
v 0.25 0.25 0.45
v 0.25 0.75 0.55
v 0.75 0.75 0.55
v 0.75 0.25 0.55
v 0.25 0.25 0.55
v 0.24375 0.75625 0.55625
v 0.75625 0.75625 0.55625
v 0.75625 0.24375 0.55625
v 0.24375 0.24375 0.55625
v 0.21875 0.21875 0.44375
v 0.78125 0.21875 0.44375
v 0.78125 0.78125 0.44375
v 0.21875 0.78125 0.44375
v 0.24375 0.75625 0.44375
v 0.75625 0.75625 0.44375
v 0.75625 0.24375 0.44375
v 0.24375 0.24375 0.44375
v 0.21875 0.21875 0.55625
v 0.78125 0.21875 0.55625
v 0.78125 0.78125 0.55625
v 0.21875 0.78125 0.55625
v 0.24375 0.75625 0.55625
v 0.75625 0.75625 0.55625
v 0.75625 0.24375 0.55625
v 0.24375 0.24375 0.55625
vt 0.885413 0.047324
vt 0.965613 0.047324
vt 0.966504 0.048584
vt 0.884521 0.048584
vt 0.590979 0.023886
vt 0.671179 0.023886
vt 0.67207 0.025146
vt 0.590088 0.025146
vt 0.002112 0.044394
vt 0.082312 0.044394
vt 0.083203 0.045654
vt 0.001221 0.045654
vt 0.674475 0.023886
vt 0.754675 0.023886
vt 0.755566 0.025146
vt 0.673584 0.025146
vt 0.904541 0.391748
vt 0.986523 0.391748
vt 0.986523 0.406006
vt 0.904541 0.406006
vt 0.001221 0.359521
vt 0.083203 0.359521
vt 0.083203 0.373779
vt 0.001221 0.373779
vt 0.084717 0.359521
vt 0.166699 0.359521
vt 0.166699 0.373779
vt 0.084717 0.373779
vt 0.168213 0.359521
vt 0.250195 0.359521
vt 0.250195 0.373779
vt 0.168213 0.373779
vt 0.084717 0.044394
vt 0.166699 0.044394
vt 0.165808 0.045654
vt 0.085608 0.045654
vt 0.168213 0.044394
vt 0.250195 0.044394
vt 0.249304 0.045654
vt 0.169104 0.045654
vt 0.251709 0.044394
vt 0.333691 0.044394
vt 0.3328 0.045654
vt 0.2526 0.045654
vt 0.335205 0.044394
vt 0.417187 0.044394
vt 0.416296 0.045654
vt 0.336096 0.045654
vt 0.225342 0.041464
vt 0.298413 0.041464
vt 0.297522 0.042725
vt 0.226233 0.042725
vt 0.52417 0.020957
vt 0.597241 0.020957
vt 0.59635 0.022217
vt 0.525061 0.022217
vt 0.300049 0.041464
vt 0.37312 0.041464
vt 0.372229 0.042725
vt 0.30094 0.042725
vt 0.598877 0.020957
vt 0.671948 0.020957
vt 0.671057 0.022217
vt 0.599768 0.022217
vt 0.585693 0.359521
vt 0.656982 0.359521
vt 0.656982 0.373779
vt 0.585693 0.373779
vt 0.658447 0.359521
vt 0.729736 0.359521
vt 0.729736 0.373779
vt 0.658447 0.373779
vt 0.731201 0.359521
vt 0.80249 0.359521
vt 0.80249 0.373779
vt 0.731201 0.373779
vt 0.803955 0.359521
vt 0.875244 0.359521
vt 0.875244 0.373779
vt 0.803955 0.373779
vt 0.375647 0.041464
vt 0.446936 0.041464
vt 0.447827 0.042725
vt 0.374756 0.042725
vt 0.674475 0.020957
vt 0.745764 0.020957
vt 0.746655 0.022217
vt 0.673584 0.022217
vt 0.450354 0.041464
vt 0.521643 0.041464
vt 0.522534 0.042725
vt 0.449463 0.042725
vt 0.749182 0.020957
vt 0.820471 0.020957
vt 0.821362 0.022217
vt 0.748291 0.022217
vt 0.819067 0.802832
vt 0.822632 0.806396
vt 0.742432 0.806396
vt 0.745996 0.802832
vt 0.819067 0.802832
vt 0.742432 0.806396
vt 0.745996 0.802832
vt 0.742432 0.806396
vt 0.742432 0.726196
vt 0.745996 0.729761
vt 0.745996 0.802832
vt 0.742432 0.726196
vt 0.745996 0.729761
vt 0.742432 0.726196
vt 0.822632 0.726196
vt 0.819067 0.729761
vt 0.745996 0.729761
vt 0.822632 0.726196
vt 0.819067 0.802832
vt 0.819067 0.729761
vt 0.822632 0.726196
vt 0.822632 0.726196
vt 0.822632 0.806396
vt 0.819067 0.802832
vt 0.824463 0.726196
vt 0.904663 0.726196
vt 0.901099 0.729761
vt 0.824463 0.726196
vt 0.901099 0.729761
vt 0.828027 0.729761
vt 0.824463 0.806396
vt 0.824463 0.726196
vt 0.828027 0.729761
vt 0.824463 0.806396
vt 0.828027 0.729761
vt 0.828027 0.802832
vt 0.904663 0.806396
vt 0.824463 0.806396
vt 0.828027 0.802832
vt 0.904663 0.806396
vt 0.828027 0.802832
vt 0.901099 0.802832
vt 0.904663 0.806396
vt 0.901099 0.802832
vt 0.901099 0.729761
vt 0.901099 0.729761
vt 0.904663 0.726196
vt 0.904663 0.806396
vn 0 -0.707107 -0.707107
vn 0.707107 0 -0.707107
vn 0 0.707107 -0.707107
vn -0.707107 0 -0.707107
vn 0 -1 0
vn 1 0 0
vn 0 1 0
vn -1 0 0
vn 0 -0.707107 0.707107
vn 0.707107 0 0.707107
vn 0 0.707107 0.707107
vn -0.707107 0 0.707107
vn 0 0 -1
vn 0 0 1
f 1/1/1 2/2/1 6/3/1 5/4/1
f 2/5/2 3/6/2 7/7/2 6/8/2
f 3/9/3 4/10/3 8/11/3 7/12/3
f 4/13/4 1/14/4 5/15/4 8/16/4
f 5/17/5 6/18/5 10/19/5 9/20/5
f 6/21/6 7/22/6 11/23/6 10/24/6
f 7/25/7 8/26/7 12/27/7 11/28/7
f 8/29/8 5/30/8 9/31/8 12/32/8
f 9/33/9 10/34/9 14/35/9 13/36/9
f 10/37/10 11/38/10 15/39/10 14/40/10
f 11/41/11 12/42/11 16/43/11 15/44/11
f 12/45/12 9/46/12 13/47/12 16/48/12
f 17/49/1 18/50/1 22/51/1 21/52/1
f 18/53/4 19/54/4 23/55/4 22/56/4
f 19/57/3 20/58/3 24/59/3 23/60/3
f 20/61/2 17/62/2 21/63/2 24/64/2
f 21/65/5 22/66/5 26/67/5 25/68/5
f 22/69/8 23/70/8 27/71/8 26/72/8
f 23/73/7 24/74/7 28/75/7 27/76/7
f 24/77/6 21/78/6 25/79/6 28/80/6
f 25/81/9 26/82/9 30/83/9 29/84/9
f 26/85/12 27/86/12 31/87/12 30/88/12
f 27/89/11 28/90/11 32/91/11 31/92/11
f 28/93/10 25/94/10 29/95/10 32/96/10
f 38/97/13 35/98/13 34/99/13
f 39/100/13 38/101/13 34/102/13
f 39/103/13 34/104/13 33/105/13
f 40/106/13 39/107/13 33/108/13
f 40/109/13 33/110/13 36/111/13
f 37/112/13 40/113/13 36/114/13
f 38/115/13 37/116/13 36/117/13
f 36/118/13 35/119/13 38/120/13
f 42/121/14 43/122/14 46/123/14
f 42/124/14 46/125/14 47/126/14
f 41/127/14 42/128/14 47/129/14
f 41/130/14 47/131/14 48/132/14
f 44/133/14 41/134/14 48/135/14
f 44/136/14 48/137/14 45/138/14
f 44/139/14 45/140/14 46/141/14
f 46/142/14 43/143/14 44/144/14
o band_band_bolt
usemtl heat_resistant_fluid_pipe
v 0.520568 0.818125 0.48125
v 0.5 0.83 0.48125
v 0.479432 0.818125 0.48125
v 0.479432 0.794375 0.48125
v 0.5 0.7825 0.48125
v 0.520568 0.794375 0.48125
v 0.520568 0.818125 0.51875
v 0.5 0.83 0.51875
v 0.479432 0.818125 0.51875
v 0.479432 0.794375 0.51875
v 0.5 0.7825 0.51875
v 0.520568 0.794375 0.51875
v 0.520568 0.818125 0.48125
v 0.5 0.83 0.48125
v 0.479432 0.818125 0.48125
v 0.479432 0.794375 0.48125
v 0.5 0.7825 0.48125
v 0.520568 0.794375 0.48125
v 0.520568 0.818125 0.51875
v 0.5 0.83 0.51875
v 0.479432 0.818125 0.51875
v 0.479432 0.794375 0.51875
v 0.5 0.7825 0.51875
v 0.520568 0.794375 0.51875
vt 0.926025 0.081299
vt 0.926025 0.077913
vt 0.931372 0.077913
vt 0.931372 0.081299
vt 0.88501 0.081299
vt 0.88501 0.077913
vt 0.890356 0.077913
vt 0.890356 0.081299
vt 0.857666 0.081299
vt 0.857666 0.077913
vt 0.863013 0.077913
vt 0.863013 0.081299
vt 0.891846 0.081299
vt 0.891846 0.077913
vt 0.897192 0.077913
vt 0.897192 0.081299
vt 0.898682 0.081299
vt 0.898682 0.077913
vt 0.904028 0.077913
vt 0.904028 0.081299
vt 0.864502 0.081299
vt 0.864502 0.077913
vt 0.869849 0.077913
vt 0.869849 0.081299
vt 0.841001 0.14819
vt 0.839308 0.151123
vt 0.835922 0.151123
vt 0.839308 0.145258
vt 0.841001 0.14819
vt 0.835922 0.151123
vt 0.835922 0.145258
vt 0.839308 0.145258
vt 0.835922 0.151123
vt 0.835922 0.151123
vt 0.834229 0.14819
vt 0.835922 0.145258
vt 0.844222 0.145258
vt 0.847609 0.145258
vt 0.849302 0.14819
vt 0.844222 0.145258
vt 0.849302 0.14819
vt 0.847609 0.151123
vt 0.844222 0.145258
vt 0.847609 0.151123
vt 0.844222 0.151123
vt 0.844222 0.151123
vt 0.842529 0.14819
vt 0.844222 0.145258
vn 0.5 0.866025 0
vn -0.5 0.866025 0
vn -1 0 0
vn -0.5 -0.866025 0
vn 0.5 -0.866025 0
vn 1 0 0
vn 0 0 -1
vn 0 0 1
f 49/145/15 50/146/15 56/147/15 55/148/15
f 50/149/16 51/150/16 57/151/16 56/152/16
f 51/153/17 52/154/17 58/155/17 57/156/17
f 52/157/18 53/158/18 59/159/18 58/160/18
f 53/161/19 54/162/19 60/163/19 59/164/19
f 54/165/20 49/166/20 55/167/20 60/168/20
f 62/169/21 61/170/21 66/171/21
f 63/172/21 62/173/21 66/174/21
f 64/175/21 63/176/21 66/177/21
f 66/178/21 65/179/21 64/180/21
f 72/181/22 67/182/22 68/183/22
f 72/184/22 68/185/22 69/186/22
f 72/187/22 69/188/22 70/189/22
f 70/190/22 71/191/22 72/192/22
o band_band_lug
usemtl heat_resistant_fluid_pipe
v 0.453125 0.7875 0.471875
v 0.546875 0.7875 0.471875
v 0.546875 0.7875 0.528125
v 0.453125 0.7875 0.528125
v 0.453125 0.80625 0.471875
v 0.546875 0.80625 0.471875
v 0.546875 0.80625 0.528125
v 0.453125 0.80625 0.528125
v 0.453125 0.7875 0.471875
v 0.546875 0.7875 0.471875
v 0.546875 0.80625 0.471875
v 0.453125 0.80625 0.471875
v 0.453125 0.7875 0.528125
v 0.546875 0.7875 0.528125
v 0.546875 0.80625 0.528125
v 0.453125 0.80625 0.528125
v 0.453125 0.7875 0.471875
v 0.453125 0.7875 0.528125
v 0.453125 0.80625 0.528125
v 0.453125 0.80625 0.471875
v 0.546875 0.7875 0.471875
v 0.546875 0.7875 0.528125
v 0.546875 0.80625 0.528125
v 0.546875 0.80625 0.471875
vt 0.868408 0.197791
vt 0.881775 0.197791
vt 0.881775 0.205811
vt 0.868408 0.205811
vt 0.896912 0.205811
vt 0.883545 0.205811
vt 0.883545 0.197791
vt 0.896912 0.197791
vt 0.116638 0.071045
vt 0.103271 0.071045
vt 0.103271 0.068372
vt 0.116638 0.068372
vt 0.118408 0.068372
vt 0.131775 0.068372
vt 0.131775 0.071045
vt 0.118408 0.071045
vt 0.163818 0.068372
vt 0.171838 0.068372
vt 0.171838 0.071045
vt 0.163818 0.071045
vt 0.173584 0.068372
vt 0.181604 0.068372
vt 0.181604 0.071045
vt 0.173584 0.071045
vn 0 -1 0
vn 0 1 0
vn 0 0 -1
vn 0 0 1
vn -1 0 0
vn 1 0 0
f 73/193/23 74/194/23 75/195/23 76/196/23
f 80/197/24 79/198/24 78/199/24 77/200/24
f 84/201/25 83/202/25 82/203/25 81/204/25
f 85/205/26 86/206/26 87/207/26 88/208/26
f 89/209/27 90/210/27 91/211/27 92/212/27
f 96/213/28 95/214/28 94/215/28 93/216/28
