# AFL Fluid Pipe V2 box, generated by tools/build-fluid-pipe-v2.mjs
mtllib heat_resistant_fluid_pipe.mtl
o box_frame
usemtl heat_resistant_fluid_pipe
v 0.2125 0.2125 0.2125
v 0.7875 0.2125 0.2125
v 0.7875 0.2125 0.2875
v 0.2125 0.2125 0.2875
v 0.2125 0.2875 0.2125
v 0.7875 0.2875 0.2125
v 0.7875 0.2875 0.2875
v 0.2125 0.2875 0.2875
v 0.2125 0.2125 0.2125
v 0.7875 0.2125 0.2125
v 0.7875 0.2875 0.2125
v 0.2125 0.2875 0.2125
v 0.2125 0.2125 0.2875
v 0.7875 0.2125 0.2875
v 0.7875 0.2875 0.2875
v 0.2125 0.2875 0.2875
v 0.2125 0.2125 0.2125
v 0.2125 0.2125 0.2875
v 0.2125 0.2875 0.2875
v 0.2125 0.2875 0.2125
v 0.7875 0.2125 0.2125
v 0.7875 0.2125 0.2875
v 0.7875 0.2875 0.2875
v 0.7875 0.2875 0.2125
v 0.2125 0.2875 0.2125
v 0.2875 0.2875 0.2125
v 0.2875 0.2875 0.2875
v 0.2125 0.2875 0.2875
v 0.2125 0.7125 0.2125
v 0.2875 0.7125 0.2125
v 0.2875 0.7125 0.2875
v 0.2125 0.7125 0.2875
v 0.2125 0.2875 0.2125
v 0.2875 0.2875 0.2125
v 0.2875 0.7125 0.2125
v 0.2125 0.7125 0.2125
v 0.2125 0.2875 0.2875
v 0.2875 0.2875 0.2875
v 0.2875 0.7125 0.2875
v 0.2125 0.7125 0.2875
v 0.2125 0.2875 0.2125
v 0.2125 0.2875 0.2875
v 0.2125 0.7125 0.2875
v 0.2125 0.7125 0.2125
v 0.2875 0.2875 0.2125
v 0.2875 0.2875 0.2875
v 0.2875 0.7125 0.2875
v 0.2875 0.7125 0.2125
v 0.2125 0.2125 0.2875
v 0.2875 0.2125 0.2875
v 0.2875 0.2125 0.7125
v 0.2125 0.2125 0.7125
v 0.2125 0.2875 0.2875
v 0.2875 0.2875 0.2875
v 0.2875 0.2875 0.7125
v 0.2125 0.2875 0.7125
v 0.2125 0.2125 0.2875
v 0.2875 0.2125 0.2875
v 0.2875 0.2875 0.2875
v 0.2125 0.2875 0.2875
v 0.2125 0.2125 0.7125
v 0.2875 0.2125 0.7125
v 0.2875 0.2875 0.7125
v 0.2125 0.2875 0.7125
v 0.2125 0.2125 0.2875
v 0.2125 0.2125 0.7125
v 0.2125 0.2875 0.7125
v 0.2125 0.2875 0.2875
v 0.2875 0.2125 0.2875
v 0.2875 0.2125 0.7125
v 0.2875 0.2875 0.7125
v 0.2875 0.2875 0.2875
v 0.2125 0.2125 0.7125
v 0.7875 0.2125 0.7125
v 0.7875 0.2125 0.7875
v 0.2125 0.2125 0.7875
v 0.2125 0.2875 0.7125
v 0.7875 0.2875 0.7125
v 0.7875 0.2875 0.7875
v 0.2125 0.2875 0.7875
v 0.2125 0.2125 0.7125
v 0.7875 0.2125 0.7125
v 0.7875 0.2875 0.7125
v 0.2125 0.2875 0.7125
v 0.2125 0.2125 0.7875
v 0.7875 0.2125 0.7875
v 0.7875 0.2875 0.7875
v 0.2125 0.2875 0.7875
v 0.2125 0.2125 0.7125
v 0.2125 0.2125 0.7875
v 0.2125 0.2875 0.7875
v 0.2125 0.2875 0.7125
v 0.7875 0.2125 0.7125
v 0.7875 0.2125 0.7875
v 0.7875 0.2875 0.7875
v 0.7875 0.2875 0.7125
v 0.2125 0.2875 0.7125
v 0.2875 0.2875 0.7125
v 0.2875 0.2875 0.7875
v 0.2125 0.2875 0.7875
v 0.2125 0.7125 0.7125
v 0.2875 0.7125 0.7125
v 0.2875 0.7125 0.7875
v 0.2125 0.7125 0.7875
v 0.2125 0.2875 0.7125
v 0.2875 0.2875 0.7125
v 0.2875 0.7125 0.7125
v 0.2125 0.7125 0.7125
v 0.2125 0.2875 0.7875
v 0.2875 0.2875 0.7875
v 0.2875 0.7125 0.7875
v 0.2125 0.7125 0.7875
v 0.2125 0.2875 0.7125
v 0.2125 0.2875 0.7875
v 0.2125 0.7125 0.7875
v 0.2125 0.7125 0.7125
v 0.2875 0.2875 0.7125
v 0.2875 0.2875 0.7875
v 0.2875 0.7125 0.7875
v 0.2875 0.7125 0.7125
v 0.2125 0.7125 0.2875
v 0.2875 0.7125 0.2875
v 0.2875 0.7125 0.7125
v 0.2125 0.7125 0.7125
v 0.2125 0.7875 0.2875
v 0.2875 0.7875 0.2875
v 0.2875 0.7875 0.7125
v 0.2125 0.7875 0.7125
v 0.2125 0.7125 0.2875
v 0.2875 0.7125 0.2875
v 0.2875 0.7875 0.2875
v 0.2125 0.7875 0.2875
v 0.2125 0.7125 0.7125
v 0.2875 0.7125 0.7125
v 0.2875 0.7875 0.7125
v 0.2125 0.7875 0.7125
v 0.2125 0.7125 0.2875
v 0.2125 0.7125 0.7125
v 0.2125 0.7875 0.7125
v 0.2125 0.7875 0.2875
v 0.2875 0.7125 0.2875
v 0.2875 0.7125 0.7125
v 0.2875 0.7875 0.7125
v 0.2875 0.7875 0.2875
v 0.2125 0.7125 0.2125
v 0.7875 0.7125 0.2125
v 0.7875 0.7125 0.2875
v 0.2125 0.7125 0.2875
v 0.2125 0.7875 0.2125
v 0.7875 0.7875 0.2125
v 0.7875 0.7875 0.2875
v 0.2125 0.7875 0.2875
v 0.2125 0.7125 0.2125
v 0.7875 0.7125 0.2125
v 0.7875 0.7875 0.2125
v 0.2125 0.7875 0.2125
v 0.2125 0.7125 0.2875
v 0.7875 0.7125 0.2875
v 0.7875 0.7875 0.2875
v 0.2125 0.7875 0.2875
v 0.2125 0.7125 0.2125
v 0.2125 0.7125 0.2875
v 0.2125 0.7875 0.2875
v 0.2125 0.7875 0.2125
v 0.7875 0.7125 0.2125
v 0.7875 0.7125 0.2875
v 0.7875 0.7875 0.2875
v 0.7875 0.7875 0.2125
v 0.7125 0.2875 0.2125
v 0.7875 0.2875 0.2125
v 0.7875 0.2875 0.2875
v 0.7125 0.2875 0.2875
v 0.7125 0.7125 0.2125
v 0.7875 0.7125 0.2125
v 0.7875 0.7125 0.2875
v 0.7125 0.7125 0.2875
v 0.7125 0.2875 0.2125
v 0.7875 0.2875 0.2125
v 0.7875 0.7125 0.2125
v 0.7125 0.7125 0.2125
v 0.7125 0.2875 0.2875
v 0.7875 0.2875 0.2875
v 0.7875 0.7125 0.2875
v 0.7125 0.7125 0.2875
v 0.7125 0.2875 0.2125
v 0.7125 0.2875 0.2875
v 0.7125 0.7125 0.2875
v 0.7125 0.7125 0.2125
v 0.7875 0.2875 0.2125
v 0.7875 0.2875 0.2875
v 0.7875 0.7125 0.2875
v 0.7875 0.7125 0.2125
v 0.7125 0.2125 0.2875
v 0.7875 0.2125 0.2875
v 0.7875 0.2125 0.7125
v 0.7125 0.2125 0.7125
v 0.7125 0.2875 0.2875
v 0.7875 0.2875 0.2875
v 0.7875 0.2875 0.7125
v 0.7125 0.2875 0.7125
v 0.7125 0.2125 0.2875
v 0.7875 0.2125 0.2875
v 0.7875 0.2875 0.2875
v 0.7125 0.2875 0.2875
v 0.7125 0.2125 0.7125
v 0.7875 0.2125 0.7125
v 0.7875 0.2875 0.7125
v 0.7125 0.2875 0.7125
v 0.7125 0.2125 0.2875
v 0.7125 0.2125 0.7125
v 0.7125 0.2875 0.7125
v 0.7125 0.2875 0.2875
v 0.7875 0.2125 0.2875
v 0.7875 0.2125 0.7125
v 0.7875 0.2875 0.7125
v 0.7875 0.2875 0.2875
v 0.2125 0.7125 0.7125
v 0.7875 0.7125 0.7125
v 0.7875 0.7125 0.7875
v 0.2125 0.7125 0.7875
v 0.2125 0.7875 0.7125
v 0.7875 0.7875 0.7125
v 0.7875 0.7875 0.7875
v 0.2125 0.7875 0.7875
v 0.2125 0.7125 0.7125
v 0.7875 0.7125 0.7125
v 0.7875 0.7875 0.7125
v 0.2125 0.7875 0.7125
v 0.2125 0.7125 0.7875
v 0.7875 0.7125 0.7875
v 0.7875 0.7875 0.7875
v 0.2125 0.7875 0.7875
v 0.2125 0.7125 0.7125
v 0.2125 0.7125 0.7875
v 0.2125 0.7875 0.7875
v 0.2125 0.7875 0.7125
v 0.7875 0.7125 0.7125
v 0.7875 0.7125 0.7875
v 0.7875 0.7875 0.7875
v 0.7875 0.7875 0.7125
v 0.7125 0.2875 0.7125
v 0.7875 0.2875 0.7125
v 0.7875 0.2875 0.7875
v 0.7125 0.2875 0.7875
v 0.7125 0.7125 0.7125
v 0.7875 0.7125 0.7125
v 0.7875 0.7125 0.7875
v 0.7125 0.7125 0.7875
v 0.7125 0.2875 0.7125
v 0.7875 0.2875 0.7125
v 0.7875 0.7125 0.7125
v 0.7125 0.7125 0.7125
v 0.7125 0.2875 0.7875
v 0.7875 0.2875 0.7875
v 0.7875 0.7125 0.7875
v 0.7125 0.7125 0.7875
v 0.7125 0.2875 0.7125
v 0.7125 0.2875 0.7875
v 0.7125 0.7125 0.7875
v 0.7125 0.7125 0.7125
v 0.7875 0.2875 0.7125
v 0.7875 0.2875 0.7875
v 0.7875 0.7125 0.7875
v 0.7875 0.7125 0.7125
v 0.7125 0.7125 0.2875
v 0.7875 0.7125 0.2875
v 0.7875 0.7125 0.7125
v 0.7125 0.7125 0.7125
v 0.7125 0.7875 0.2875
v 0.7875 0.7875 0.2875
v 0.7875 0.7875 0.7125
v 0.7125 0.7875 0.7125
v 0.7125 0.7125 0.2875
v 0.7875 0.7125 0.2875
v 0.7875 0.7875 0.2875
v 0.7125 0.7875 0.2875
v 0.7125 0.7125 0.7125
v 0.7875 0.7125 0.7125
v 0.7875 0.7875 0.7125
v 0.7125 0.7875 0.7125
v 0.7125 0.7125 0.2875
v 0.7125 0.7125 0.7125
v 0.7125 0.7875 0.7125
v 0.7125 0.7875 0.2875
v 0.7875 0.7125 0.2875
v 0.7875 0.7125 0.7125
v 0.7875 0.7875 0.7125
v 0.7875 0.7875 0.2875
vt 0.459229 0.278125
vt 0.541211 0.278125
vt 0.541211 0.288818
vt 0.459229 0.288818
vt 0.624707 0.288818
vt 0.542725 0.288818
vt 0.542725 0.278125
vt 0.624707 0.278125
vt 0.708203 0.288818
vt 0.626221 0.288818
vt 0.626221 0.278125
vt 0.708203 0.278125
vt 0.709717 0.278125
vt 0.791699 0.278125
vt 0.791699 0.288818
vt 0.709717 0.288818
vt 0.938721 0.241016
vt 0.949414 0.241016
vt 0.949414 0.251709
vt 0.938721 0.251709
vt 0.950928 0.241016
vt 0.961621 0.241016
vt 0.961621 0.251709
vt 0.950928 0.251709
vt 0.963135 0.251709
vt 0.963135 0.241016
vt 0.973828 0.241016
vt 0.973828 0.251709
vt 0.986035 0.241016
vt 0.986035 0.251709
vt 0.975342 0.251709
vt 0.975342 0.241016
vt 0.896777 0.26543
vt 0.896777 0.276123
vt 0.836182 0.276123
vt 0.836182 0.26543
vt 0.898682 0.276123
vt 0.898682 0.26543
vt 0.959277 0.26543
vt 0.959277 0.276123
vt 0.061816 0.253223
vt 0.061816 0.263916
vt 0.001221 0.263916
vt 0.001221 0.253223
vt 0.124316 0.253223
vt 0.124316 0.263916
vt 0.063721 0.263916
vt 0.063721 0.253223
vt 0.126221 0.263916
vt 0.126221 0.253223
vt 0.186816 0.253223
vt 0.186816 0.263916
vt 0.249316 0.253223
vt 0.249316 0.263916
vt 0.188721 0.263916
vt 0.188721 0.253223
vt 0.998242 0.241016
vt 0.998242 0.251709
vt 0.987549 0.251709
vt 0.987549 0.241016
vt 0.001221 0.239502
vt 0.001221 0.228809
vt 0.011914 0.228809
vt 0.011914 0.239502
vt 0.251221 0.253223
vt 0.311816 0.253223
vt 0.311816 0.263916
vt 0.251221 0.263916
vt 0.313721 0.253223
vt 0.374316 0.253223
vt 0.374316 0.263916
vt 0.313721 0.263916
vt 0.793213 0.278125
vt 0.875195 0.278125
vt 0.875195 0.288818
vt 0.793213 0.288818
vt 0.958691 0.288818
vt 0.876709 0.288818
vt 0.876709 0.278125
vt 0.958691 0.278125
vt 0.083203 0.276123
vt 0.001221 0.276123
vt 0.001221 0.26543
vt 0.083203 0.26543
vt 0.084717 0.26543
vt 0.166699 0.26543
vt 0.166699 0.276123
vt 0.084717 0.276123
vt 0.013428 0.228809
vt 0.024121 0.228809
vt 0.024121 0.239502
vt 0.013428 0.239502
vt 0.025635 0.228809
vt 0.036328 0.228809
vt 0.036328 0.239502
vt 0.025635 0.239502
vt 0.037842 0.239502
vt 0.037842 0.228809
vt 0.048535 0.228809
vt 0.048535 0.239502
vt 0.060742 0.228809
vt 0.060742 0.239502
vt 0.050049 0.239502
vt 0.050049 0.228809
vt 0.436816 0.253223
vt 0.436816 0.263916
vt 0.376221 0.263916
vt 0.376221 0.253223
vt 0.438721 0.263916
vt 0.438721 0.253223
vt 0.499316 0.253223
vt 0.499316 0.263916
vt 0.561816 0.253223
vt 0.561816 0.263916
vt 0.501221 0.263916
vt 0.501221 0.253223
vt 0.624316 0.253223
vt 0.624316 0.263916
vt 0.563721 0.263916
vt 0.563721 0.253223
vt 0.626221 0.263916
vt 0.626221 0.253223
vt 0.686816 0.253223
vt 0.686816 0.263916
vt 0.749316 0.253223
vt 0.749316 0.263916
vt 0.688721 0.263916
vt 0.688721 0.253223
vt 0.072949 0.228809
vt 0.072949 0.239502
vt 0.062256 0.239502
vt 0.062256 0.228809
vt 0.074463 0.239502
vt 0.074463 0.228809
vt 0.085156 0.228809
vt 0.085156 0.239502
vt 0.751221 0.253223
vt 0.811816 0.253223
vt 0.811816 0.263916
vt 0.751221 0.263916
vt 0.813721 0.253223
vt 0.874316 0.253223
vt 0.874316 0.263916
vt 0.813721 0.263916
vt 0.168213 0.26543
vt 0.250195 0.26543
vt 0.250195 0.276123
vt 0.168213 0.276123
vt 0.333691 0.276123
vt 0.251709 0.276123
vt 0.251709 0.26543
vt 0.333691 0.26543
vt 0.417187 0.276123
vt 0.335205 0.276123
vt 0.335205 0.26543
vt 0.417187 0.26543
vt 0.418701 0.26543
vt 0.500684 0.26543
vt 0.500684 0.276123
vt 0.418701 0.276123
vt 0.08667 0.228809
vt 0.097363 0.228809
vt 0.097363 0.239502
vt 0.08667 0.239502
vt 0.098877 0.228809
vt 0.10957 0.228809
vt 0.10957 0.239502
vt 0.098877 0.239502
vt 0.111084 0.239502
vt 0.111084 0.228809
vt 0.121777 0.228809
vt 0.121777 0.239502
vt 0.133984 0.228809
vt 0.133984 0.239502
vt 0.123291 0.239502
vt 0.123291 0.228809
vt 0.936816 0.253223
vt 0.936816 0.263916
vt 0.876221 0.263916
vt 0.876221 0.253223
vt 0.001221 0.251709
vt 0.001221 0.241016
vt 0.061816 0.241016
vt 0.061816 0.251709
vt 0.124316 0.241016
vt 0.124316 0.251709
vt 0.063721 0.251709
vt 0.063721 0.241016
vt 0.186816 0.241016
vt 0.186816 0.251709
vt 0.126221 0.251709
vt 0.126221 0.241016
vt 0.188721 0.251709
vt 0.188721 0.241016
vt 0.249316 0.241016
vt 0.249316 0.251709
vt 0.311816 0.241016
vt 0.311816 0.251709
vt 0.251221 0.251709
vt 0.251221 0.241016
vt 0.146191 0.228809
vt 0.146191 0.239502
vt 0.135498 0.239502
vt 0.135498 0.228809
vt 0.147705 0.239502
vt 0.147705 0.228809
vt 0.158398 0.228809
vt 0.158398 0.239502
vt 0.313721 0.241016
vt 0.374316 0.241016
vt 0.374316 0.251709
vt 0.313721 0.251709
vt 0.376221 0.241016
vt 0.436816 0.241016
vt 0.436816 0.251709
vt 0.376221 0.251709
vt 0.502197 0.26543
vt 0.58418 0.26543
vt 0.58418 0.276123
vt 0.502197 0.276123
vt 0.667676 0.276123
vt 0.585693 0.276123
vt 0.585693 0.26543
vt 0.667676 0.26543
vt 0.751172 0.276123
vt 0.669189 0.276123
vt 0.669189 0.26543
vt 0.751172 0.26543
vt 0.752686 0.26543
vt 0.834668 0.26543
vt 0.834668 0.276123
vt 0.752686 0.276123
vt 0.159912 0.228809
vt 0.170605 0.228809
vt 0.170605 0.239502
vt 0.159912 0.239502
vt 0.172119 0.228809
vt 0.182812 0.228809
vt 0.182812 0.239502
vt 0.172119 0.239502
vt 0.184326 0.239502
vt 0.184326 0.228809
vt 0.19502 0.228809
vt 0.19502 0.239502
vt 0.207227 0.228809
vt 0.207227 0.239502
vt 0.196533 0.239502
vt 0.196533 0.228809
vt 0.499316 0.241016
vt 0.499316 0.251709
vt 0.438721 0.251709
vt 0.438721 0.241016
vt 0.501221 0.251709
vt 0.501221 0.241016
vt 0.561816 0.241016
vt 0.561816 0.251709
vt 0.624316 0.241016
vt 0.624316 0.251709
vt 0.563721 0.251709
vt 0.563721 0.241016
vt 0.686816 0.241016
vt 0.686816 0.251709
vt 0.626221 0.251709
vt 0.626221 0.241016
vt 0.688721 0.251709
vt 0.688721 0.241016
vt 0.749316 0.241016
vt 0.749316 0.251709
vt 0.811816 0.241016
vt 0.811816 0.251709
vt 0.751221 0.251709
vt 0.751221 0.241016
vt 0.219434 0.228809
vt 0.219434 0.239502
vt 0.20874 0.239502
vt 0.20874 0.228809
vt 0.220947 0.239502
vt 0.220947 0.228809
vt 0.231641 0.228809
vt 0.231641 0.239502
vt 0.813721 0.241016
vt 0.874316 0.241016
vt 0.874316 0.251709
vt 0.813721 0.251709
vt 0.876221 0.241016
vt 0.936816 0.241016
vt 0.936816 0.251709
vt 0.876221 0.251709
vn 0 -1 0
vn 0 1 0
vn 0 0 -1
vn 0 0 1
vn -1 0 0
vn 1 0 0
f 1/1/1 2/2/1 3/3/1 4/4/1
f 8/5/2 7/6/2 6/7/2 5/8/2
f 12/9/3 11/10/3 10/11/3 9/12/3
f 13/13/4 14/14/4 15/15/4 16/16/4
f 17/17/5 18/18/5 19/19/5 20/20/5
f 24/21/6 23/22/6 22/23/6 21/24/6
f 25/25/1 26/26/1 27/27/1 28/28/1
f 32/29/2 31/30/2 30/31/2 29/32/2
f 36/33/3 35/34/3 34/35/3 33/36/3
f 37/37/4 38/38/4 39/39/4 40/40/4
f 41/41/5 42/42/5 43/43/5 44/44/5
f 48/45/6 47/46/6 46/47/6 45/48/6
f 49/49/1 50/50/1 51/51/1 52/52/1
f 56/53/2 55/54/2 54/55/2 53/56/2
f 60/57/3 59/58/3 58/59/3 57/60/3
f 61/61/4 62/62/4 63/63/4 64/64/4
f 65/65/5 66/66/5 67/67/5 68/68/5
f 72/69/6 71/70/6 70/71/6 69/72/6
f 73/73/1 74/74/1 75/75/1 76/76/1
f 80/77/2 79/78/2 78/79/2 77/80/2
f 84/81/3 83/82/3 82/83/3 81/84/3
f 85/85/4 86/86/4 87/87/4 88/88/4
f 89/89/5 90/90/5 91/91/5 92/92/5
f 96/93/6 95/94/6 94/95/6 93/96/6
f 97/97/1 98/98/1 99/99/1 100/100/1
f 104/101/2 103/102/2 102/103/2 101/104/2
f 108/105/3 107/106/3 106/107/3 105/108/3
f 109/109/4 110/110/4 111/111/4 112/112/4
f 113/113/5 114/114/5 115/115/5 116/116/5
f 120/117/6 119/118/6 118/119/6 117/120/6
f 121/121/1 122/122/1 123/123/1 124/124/1
f 128/125/2 127/126/2 126/127/2 125/128/2
f 132/129/3 131/130/3 130/131/3 129/132/3
f 133/133/4 134/134/4 135/135/4 136/136/4
f 137/137/5 138/138/5 139/139/5 140/140/5
f 144/141/6 143/142/6 142/143/6 141/144/6
f 145/145/1 146/146/1 147/147/1 148/148/1
f 152/149/2 151/150/2 150/151/2 149/152/2
f 156/153/3 155/154/3 154/155/3 153/156/3
f 157/157/4 158/158/4 159/159/4 160/160/4
f 161/161/5 162/162/5 163/163/5 164/164/5
f 168/165/6 167/166/6 166/167/6 165/168/6
f 169/169/1 170/170/1 171/171/1 172/172/1
f 176/173/2 175/174/2 174/175/2 173/176/2
f 180/177/3 179/178/3 178/179/3 177/180/3
f 181/181/4 182/182/4 183/183/4 184/184/4
f 185/185/5 186/186/5 187/187/5 188/188/5
f 192/189/6 191/190/6 190/191/6 189/192/6
f 193/193/1 194/194/1 195/195/1 196/196/1
f 200/197/2 199/198/2 198/199/2 197/200/2
f 204/201/3 203/202/3 202/203/3 201/204/3
f 205/205/4 206/206/4 207/207/4 208/208/4
f 209/209/5 210/210/5 211/211/5 212/212/5
f 216/213/6 215/214/6 214/215/6 213/216/6
f 217/217/1 218/218/1 219/219/1 220/220/1
f 224/221/2 223/222/2 222/223/2 221/224/2
f 228/225/3 227/226/3 226/227/3 225/228/3
f 229/229/4 230/230/4 231/231/4 232/232/4
f 233/233/5 234/234/5 235/235/5 236/236/5
f 240/237/6 239/238/6 238/239/6 237/240/6
f 241/241/1 242/242/1 243/243/1 244/244/1
f 248/245/2 247/246/2 246/247/2 245/248/2
f 252/249/3 251/250/3 250/251/3 249/252/3
f 253/253/4 254/254/4 255/255/4 256/256/4
f 257/257/5 258/258/5 259/259/5 260/260/5
f 264/261/6 263/262/6 262/263/6 261/264/6
f 265/265/1 266/266/1 267/267/1 268/268/1
f 272/269/2 271/270/2 270/271/2 269/272/2
f 276/273/3 275/274/3 274/275/3 273/276/3
f 277/277/4 278/278/4 279/279/4 280/280/4
f 281/281/5 282/282/5 283/283/5 284/284/5
f 288/285/6 287/286/6 286/287/6 285/288/6
