# AFL Fluid Pipe V2 box_glass_south (glass), generated by tools/build-fluid-pipe-v2.mjs
mtllib heat_resistant_fluid_pipe.mtl
o box_glass_pane
usemtl heat_resistant_fluid_pipe
v 0.2875 0.2875 0.7625
v 0.7125 0.2875 0.7625
v 0.7125 0.7125 0.7625
v 0.2875 0.7125 0.7625
v 0.2875 0.2875 0.778125
v 0.7125 0.2875 0.778125
v 0.7125 0.7125 0.778125
v 0.2875 0.7125 0.778125
vt 0.49834 0.567578
vt 0.49834 0.628174
vt 0.437744 0.628174
vt 0.437744 0.567578
vt 0.500244 0.628174
vt 0.500244 0.567578
vt 0.56084 0.567578
vt 0.56084 0.628174
vn 0 0 -1
vn 0 0 1
f 4/1/1 3/2/1 2/3/1 1/4/1
f 5/5/2 6/6/2 7/7/2 8/8/2
