# AFL Fluid Pipe V2 clamp_z_west, generated by tools/build-fluid-pipe-v2.mjs
mtllib heat_resistant_fluid_pipe.mtl
o clamp_strap
usemtl heat_resistant_fluid_pipe
v 0.2175 0.7825 0.45625
v 0.2175 0.2175 0.45625
v 0.7825 0.2175 0.45625
v 0.7825 0.7825 0.45625
v 0.2125 0.7875 0.46125
v 0.2125 0.2125 0.46125
v 0.7875 0.2125 0.46125
v 0.7875 0.7875 0.46125
v 0.2125 0.7875 0.53875
v 0.2125 0.2125 0.53875
v 0.7875 0.2125 0.53875
v 0.7875 0.7875 0.53875
v 0.2175 0.7825 0.54375
v 0.2175 0.2175 0.54375
v 0.7825 0.2175 0.54375
v 0.7825 0.7825 0.54375
v 0.755 0.755 0.45625
v 0.755 0.245 0.45625
v 0.245 0.245 0.45625
v 0.245 0.755 0.45625
v 0.75 0.75 0.46125
v 0.75 0.25 0.46125
v 0.25 0.25 0.46125
v 0.25 0.75 0.46125
v 0.75 0.75 0.53875
v 0.75 0.25 0.53875
v 0.25 0.25 0.53875
v 0.25 0.75 0.53875
v 0.755 0.755 0.54375
v 0.755 0.245 0.54375
v 0.245 0.245 0.54375
v 0.245 0.755 0.54375
v 0.2175 0.7825 0.45625
v 0.2175 0.2175 0.45625
v 0.7825 0.2175 0.45625
v 0.7825 0.7825 0.45625
v 0.755 0.755 0.45625
v 0.755 0.245 0.45625
v 0.245 0.245 0.45625
v 0.245 0.755 0.45625
v 0.2175 0.7825 0.54375
v 0.2175 0.2175 0.54375
v 0.7825 0.2175 0.54375
v 0.7825 0.7825 0.54375
v 0.755 0.755 0.54375
v 0.755 0.245 0.54375
v 0.245 0.245 0.54375
v 0.245 0.755 0.54375
vt 0.885234 0.015349
vt 0.965791 0.015349
vt 0.966504 0.016357
vt 0.884521 0.016357
vt 0.001934 0.01242
vt 0.08249 0.01242
vt 0.083203 0.013428
vt 0.001221 0.013428
vt 0.08543 0.01242
vt 0.165986 0.01242
vt 0.166699 0.013428
vt 0.084717 0.013428
vt 0.168926 0.01242
vt 0.249482 0.01242
vt 0.250195 0.013428
vt 0.168213 0.013428
vt 0.75708 0.290952
vt 0.839063 0.290952
vt 0.839063 0.302002
vt 0.75708 0.302002
vt 0.840576 0.290952
vt 0.922559 0.290952
vt 0.922559 0.302002
vt 0.840576 0.302002
vt 0.001221 0.277769
vt 0.083203 0.277769
vt 0.083203 0.288818
vt 0.001221 0.288818
vt 0.084717 0.277769
vt 0.166699 0.277769
vt 0.166699 0.288818
vt 0.084717 0.288818
vt 0.251709 0.01242
vt 0.333691 0.01242
vt 0.332979 0.013428
vt 0.252422 0.013428
vt 0.335205 0.01242
vt 0.417187 0.01242
vt 0.416475 0.013428
vt 0.335918 0.013428
vt 0.418701 0.01242
vt 0.500684 0.01242
vt 0.499971 0.013428
vt 0.419414 0.013428
vt 0.502197 0.01242
vt 0.58418 0.01242
vt 0.583467 0.013428
vt 0.50291 0.013428
vt 0.585693 0.01242
vt 0.658408 0.01242
vt 0.657695 0.013428
vt 0.586406 0.013428
vt 0.882568 0.01242
vt 0.955283 0.01242
vt 0.95457 0.013428
vt 0.883281 0.013428
vt 0.659912 0.01242
vt 0.732627 0.01242
vt 0.731914 0.013428
vt 0.660625 0.013428
vt 0.001221 0.00949
vt 0.073936 0.00949
vt 0.073223 0.010498
vt 0.001934 0.010498
vt 0.168213 0.277769
vt 0.239502 0.277769
vt 0.239502 0.288818
vt 0.168213 0.288818
vt 0.240967 0.277769
vt 0.312256 0.277769
vt 0.312256 0.288818
vt 0.240967 0.288818
vt 0.313721 0.277769
vt 0.38501 0.277769
vt 0.38501 0.288818
vt 0.313721 0.288818
vt 0.386475 0.277769
vt 0.457764 0.277769
vt 0.457764 0.288818
vt 0.386475 0.288818
vt 0.734844 0.01242
vt 0.806133 0.01242
vt 0.806846 0.013428
vt 0.734131 0.013428
vt 0.076152 0.00949
vt 0.147441 0.00949
vt 0.148154 0.010498
vt 0.075439 0.010498
vt 0.809063 0.01242
vt 0.880352 0.01242
vt 0.881064 0.013428
vt 0.80835 0.013428
vt 0.150371 0.00949
vt 0.22166 0.00949
vt 0.222373 0.010498
vt 0.149658 0.010498
vt 0.655005 0.802476
vt 0.658926 0.806396
vt 0.578369 0.806396
vt 0.58229 0.802476
vt 0.655005 0.802476
vt 0.578369 0.806396
vt 0.58229 0.802476
vt 0.578369 0.806396
vt 0.578369 0.72584
vt 0.58229 0.729761
vt 0.58229 0.802476
vt 0.578369 0.72584
vt 0.58229 0.729761
vt 0.578369 0.72584
vt 0.658926 0.72584
vt 0.655005 0.729761
vt 0.58229 0.729761
vt 0.658926 0.72584
vt 0.655005 0.802476
vt 0.655005 0.729761
vt 0.658926 0.72584
vt 0.658926 0.72584
vt 0.658926 0.806396
vt 0.655005 0.802476
vt 0.6604 0.72584
vt 0.740957 0.72584
vt 0.737036 0.729761
vt 0.6604 0.72584
vt 0.737036 0.729761
vt 0.664321 0.729761
vt 0.6604 0.806396
vt 0.6604 0.72584
vt 0.664321 0.729761
vt 0.6604 0.806396
vt 0.664321 0.729761
vt 0.664321 0.802476
vt 0.740957 0.806396
vt 0.6604 0.806396
vt 0.664321 0.802476
vt 0.740957 0.806396
vt 0.664321 0.802476
vt 0.737036 0.802476
vt 0.740957 0.806396
vt 0.737036 0.802476
vt 0.737036 0.729761
vt 0.737036 0.729761
vt 0.740957 0.72584
vt 0.740957 0.806396
vn -0.707107 0 -0.707107
vn 0 -0.707107 -0.707107
vn 0.707107 0 -0.707107
vn 0 0.707107 -0.707107
vn -1 0 0
vn 0 -1 0
vn 1 0 0
vn 0 1 0
vn -0.707107 0 0.707107
vn 0 -0.707107 0.707107
vn 0.707107 0 0.707107
vn 0 0.707107 0.707107
vn 0 0 -1
vn 0 0 1
f 1/1/1 2/2/1 6/3/1 5/4/1
f 2/5/2 3/6/2 7/7/2 6/8/2
f 3/9/3 4/10/3 8/11/3 7/12/3
f 4/13/4 1/14/4 5/15/4 8/16/4
f 5/17/5 6/18/5 10/19/5 9/20/5
f 6/21/6 7/22/6 11/23/6 10/24/6
f 7/25/7 8/26/7 12/27/7 11/28/7
f 8/29/8 5/30/8 9/31/8 12/32/8
f 9/33/9 10/34/9 14/35/9 13/36/9
f 10/37/10 11/38/10 15/39/10 14/40/10
f 11/41/11 12/42/11 16/43/11 15/44/11
f 12/45/12 9/46/12 13/47/12 16/48/12
f 17/49/1 18/50/1 22/51/1 21/52/1
f 18/53/4 19/54/4 23/55/4 22/56/4
f 19/57/3 20/58/3 24/59/3 23/60/3
f 20/61/2 17/62/2 21/63/2 24/64/2
f 21/65/5 22/66/5 26/67/5 25/68/5
f 22/69/8 23/70/8 27/71/8 26/72/8
f 23/73/7 24/74/7 28/75/7 27/76/7
f 24/77/6 21/78/6 25/79/6 28/80/6
f 25/81/9 26/82/9 30/83/9 29/84/9
f 26/85/12 27/86/12 31/87/12 30/88/12
f 27/89/11 28/90/11 32/91/11 31/92/11
f 28/93/10 25/94/10 29/95/10 32/96/10
f 38/97/13 35/98/13 34/99/13
f 39/100/13 38/101/13 34/102/13
f 39/103/13 34/104/13 33/105/13
f 40/106/13 39/107/13 33/108/13
f 40/109/13 33/110/13 36/111/13
f 37/112/13 40/113/13 36/114/13
f 38/115/13 37/116/13 36/117/13
f 36/118/13 35/119/13 38/120/13
f 42/121/14 43/122/14 46/123/14
f 42/124/14 46/125/14 47/126/14
f 41/127/14 42/128/14 47/129/14
f 41/130/14 47/131/14 48/132/14
f 44/133/14 41/134/14 48/135/14
f 44/136/14 48/137/14 45/138/14
f 44/139/14 45/140/14 46/141/14
f 46/142/14 43/143/14 44/144/14
o clamp_leg
usemtl heat_resistant_fluid_pipe
v 0.03125 0.56875 0.45625
v 0.03125 0.43125 0.45625
v 0.03125 0.43125 0.54375
v 0.03125 0.56875 0.54375
v 0.2125 0.56875 0.45625
v 0.2125 0.43125 0.45625
v 0.2125 0.43125 0.54375
v 0.2125 0.56875 0.54375
v 0.03125 0.56875 0.45625
v 0.03125 0.43125 0.45625
v 0.2125 0.43125 0.45625
v 0.2125 0.56875 0.45625
v 0.03125 0.56875 0.54375
v 0.03125 0.43125 0.54375
v 0.2125 0.43125 0.54375
v 0.2125 0.56875 0.54375
v 0.03125 0.56875 0.45625
v 0.03125 0.56875 0.54375
v 0.2125 0.56875 0.54375
v 0.2125 0.56875 0.45625
v 0.03125 0.43125 0.45625
v 0.03125 0.43125 0.54375
v 0.2125 0.43125 0.54375
v 0.2125 0.43125 0.45625
vt 0.27417 0.34519
vt 0.293774 0.34519
vt 0.293774 0.357666
vt 0.27417 0.357666
vt 0.315259 0.357666
vt 0.295654 0.357666
vt 0.295654 0.34519
vt 0.315259 0.34519
vt 0.477258 0.386401
vt 0.477258 0.406006
vt 0.451416 0.406006
vt 0.451416 0.386401
vt 0.47876 0.406006
vt 0.47876 0.386401
vt 0.504602 0.386401
vt 0.504602 0.406006
vt 0.245325 0.34519
vt 0.245325 0.357666
vt 0.219482 0.357666
vt 0.219482 0.34519
vt 0.272668 0.34519
vt 0.272668 0.357666
vt 0.246826 0.357666
vt 0.246826 0.34519
vn -1 0 0
vn 1 0 0
vn 0 0 -1
vn 0 0 1
vn 0 1 0
vn 0 -1 0
f 49/145/15 50/146/15 51/147/15 52/148/15
f 56/149/16 55/150/16 54/151/16 53/152/16
f 60/153/17 59/154/17 58/155/17 57/156/17
f 61/157/18 62/158/18 63/159/18 64/160/18
f 65/161/19 66/162/19 67/163/19 68/164/19
f 72/165/20 71/166/20 70/167/20 69/168/20
o clamp_foot
usemtl heat_resistant_fluid_pipe
v 0 0.675 0.39375
v 0 0.325 0.39375
v 0.03125 0.325 0.39375
v 0.03125 0.675 0.39375
v 0 0.675 0.60625
v 0 0.325 0.60625
v 0.03125 0.325 0.60625
v 0.03125 0.675 0.60625
v 0 0.675 0.39375
v 0 0.325 0.39375
v 0.03125 0.325 0.39375
v 0.03125 0.675 0.39375
v 0 0.675 0.60625
v 0 0.325 0.60625
v 0.03125 0.325 0.60625
v 0.03125 0.675 0.60625
vt 0.94458 0.425513
vt 0.994482 0.425513
vt 0.994482 0.455811
vt 0.94458 0.455811
vt 0.001221 0.087646
vt 0.001221 0.083191
vt 0.031519 0.083191
vt 0.031519 0.087646
vt 0.001221 0.375708
vt 0.051123 0.375708
vt 0.051123 0.406006
vt 0.001221 0.406006
vt 0.033447 0.087646
vt 0.033447 0.083191
vt 0.063745 0.083191
vt 0.063745 0.087646
vt 0.877686 0.090027
vt 0.927588 0.090027
vt 0.927588 0.094482
vt 0.927588 0.094482
vt 0.877686 0.094482
vt 0.877686 0.090027
vt 0.929443 0.094482
vt 0.929443 0.090027
vt 0.979346 0.090027
vt 0.979346 0.090027
vt 0.979346 0.094482
vt 0.929443 0.094482
vn -1 0 0
vn 0 -1 0
vn 1 0 0
vn 0 1 0
vn 0 0 -1
vn 0 0 1
f 73/169/21 74/170/21 78/171/21 77/172/21
f 74/173/22 75/174/22 79/175/22 78/176/22
f 75/177/23 76/178/23 80/179/23 79/180/23
f 76/181/24 73/182/24 77/183/24 80/184/24
f 82/185/25 81/186/25 84/187/25
f 84/188/25 83/189/25 82/190/25
f 88/191/26 85/192/26 86/193/26
f 86/194/26 87/195/26 88/196/26
o clamp_screws
usemtl heat_resistant_fluid_pipe
v 0.03125 0.611875 0.522733
v 0.03125 0.59875 0.5
v 0.03125 0.611875 0.477267
v 0.03125 0.638125 0.477267
v 0.03125 0.65125 0.5
v 0.03125 0.638125 0.522733
v 0.04875 0.611875 0.522733
v 0.04875 0.59875 0.5
v 0.04875 0.611875 0.477267
v 0.04875 0.638125 0.477267
v 0.04875 0.65125 0.5
v 0.04875 0.638125 0.522733
v 0.03125 0.611875 0.522733
v 0.03125 0.59875 0.5
v 0.03125 0.611875 0.477267
v 0.03125 0.638125 0.477267
v 0.03125 0.65125 0.5
v 0.03125 0.638125 0.522733
v 0.04875 0.611875 0.522733
v 0.04875 0.59875 0.5
v 0.04875 0.611875 0.477267
v 0.04875 0.638125 0.477267
v 0.04875 0.65125 0.5
v 0.04875 0.638125 0.522733
v 0.03125 0.361875 0.522733
v 0.03125 0.34875 0.5
v 0.03125 0.361875 0.477267
v 0.03125 0.388125 0.477267
v 0.03125 0.40125 0.5
v 0.03125 0.388125 0.522733
v 0.04875 0.361875 0.522733
v 0.04875 0.34875 0.5
v 0.04875 0.361875 0.477267
v 0.04875 0.388125 0.477267
v 0.04875 0.40125 0.5
v 0.04875 0.388125 0.522733
v 0.03125 0.361875 0.522733
v 0.03125 0.34875 0.5
v 0.03125 0.361875 0.477267
v 0.03125 0.388125 0.477267
v 0.03125 0.40125 0.5
v 0.03125 0.388125 0.522733
v 0.04875 0.361875 0.522733
v 0.04875 0.34875 0.5
v 0.04875 0.361875 0.477267
v 0.04875 0.388125 0.477267
v 0.04875 0.40125 0.5
v 0.04875 0.388125 0.522733
vt 0.228108 0.071045
vt 0.224365 0.071045
vt 0.224365 0.06855
vt 0.228108 0.06855
vt 0.233479 0.071045
vt 0.229736 0.071045
vt 0.229736 0.06855
vt 0.233479 0.06855
vt 0.235107 0.06855
vt 0.23885 0.06855
vt 0.23885 0.071045
vt 0.235107 0.071045
vt 0.202881 0.06855
vt 0.206624 0.06855
vt 0.206624 0.071045
vt 0.202881 0.071045
vt 0.240479 0.06855
vt 0.244221 0.06855
vt 0.244221 0.071045
vt 0.240479 0.071045
vt 0.208252 0.06855
vt 0.211995 0.06855
vt 0.211995 0.071045
vt 0.208252 0.071045
vt 0.136636 0.147882
vt 0.134764 0.151123
vt 0.131022 0.151123
vt 0.134764 0.144641
vt 0.136636 0.147882
vt 0.131022 0.151123
vt 0.131022 0.144641
vt 0.134764 0.144641
vt 0.131022 0.151123
vt 0.131022 0.151123
vt 0.12915 0.147882
vt 0.131022 0.144641
vt 0.144042 0.151123
vt 0.140299 0.151123
vt 0.138428 0.147882
vt 0.144042 0.151123
vt 0.138428 0.147882
vt 0.140299 0.144641
vt 0.144042 0.151123
vt 0.140299 0.144641
vt 0.144042 0.144641
vt 0.144042 0.144641
vt 0.145913 0.147882
vt 0.144042 0.151123
vt 0.217366 0.071045
vt 0.213623 0.071045
vt 0.213623 0.06855
vt 0.217366 0.06855
vt 0.222737 0.071045
vt 0.218994 0.071045
vt 0.218994 0.06855
vt 0.222737 0.06855
vt 0.24585 0.06855
vt 0.249592 0.06855
vt 0.249592 0.071045
vt 0.24585 0.071045
vt 0.251221 0.06855
vt 0.254963 0.06855
vt 0.254963 0.071045
vt 0.251221 0.071045
vt 0.256592 0.06855
vt 0.260334 0.06855
vt 0.260334 0.071045
vt 0.256592 0.071045
vt 0.261963 0.06855
vt 0.265706 0.06855
vt 0.265706 0.071045
vt 0.261963 0.071045
vt 0.15519 0.147882
vt 0.153319 0.151123
vt 0.149576 0.151123
vt 0.153319 0.144641
vt 0.15519 0.147882
vt 0.149576 0.151123
vt 0.149576 0.144641
vt 0.153319 0.144641
vt 0.149576 0.151123
vt 0.149576 0.151123
vt 0.147705 0.147882
vt 0.149576 0.144641
vt 0.162596 0.151123
vt 0.158854 0.151123
vt 0.156982 0.147882
vt 0.162596 0.151123
vt 0.156982 0.147882
vt 0.158854 0.144641
vt 0.162596 0.151123
vt 0.158854 0.144641
vt 0.162596 0.144641
vt 0.162596 0.144641
vt 0.164468 0.147882
vt 0.162596 0.151123
vn 0 -0.866025 0.5
vn 0 -0.866025 -0.5
vn 0 0 -1
vn 0 0.866025 -0.5
vn 0 0.866025 0.5
vn 0 0 1
vn -1 0 0
vn 1 0 0
f 89/197/27 90/198/27 96/199/27 95/200/27
f 90/201/28 91/202/28 97/203/28 96/204/28
f 91/205/29 92/206/29 98/207/29 97/208/29
f 92/209/30 93/210/30 99/211/30 98/212/30
f 93/213/31 94/214/31 100/215/31 99/216/31
f 94/217/32 89/218/32 95/219/32 100/220/32
f 102/221/33 101/222/33 106/223/33
f 103/224/33 102/225/33 106/226/33
f 104/227/33 103/228/33 106/229/33
f 106/230/33 105/231/33 104/232/33
f 112/233/34 107/234/34 108/235/34
f 112/236/34 108/237/34 109/238/34
f 112/239/34 109/240/34 110/241/34
f 110/242/34 111/243/34 112/244/34
f 113/245/27 114/246/27 120/247/27 119/248/27
f 114/249/28 115/250/28 121/251/28 120/252/28
f 115/253/29 116/254/29 122/255/29 121/256/29
f 116/257/30 117/258/30 123/259/30 122/260/30
f 117/261/31 118/262/31 124/263/31 123/264/31
f 118/265/32 113/266/32 119/267/32 124/268/32
f 126/269/33 125/270/33 130/271/33
f 127/272/33 126/273/33 130/274/33
f 128/275/33 127/276/33 130/277/33
f 130/278/33 129/279/33 128/280/33
f 136/281/34 131/282/34 132/283/34
f 136/284/34 132/285/34 133/286/34
f 136/287/34 133/288/34 134/289/34
f 134/290/34 135/291/34 136/292/34
