# AFL Fluid Pipe V2 end_pipe_north, generated by tools/build-fluid-pipe-v2.mjs
mtllib heat_resistant_fluid_pipe.mtl
o end_pipe_blind
usemtl heat_resistant_fluid_pipe
v 0.83125 0.16875 0.625
v 0.16875 0.16875 0.625
v 0.16875 0.83125 0.625
v 0.83125 0.83125 0.625
v 0.8375 0.1625 0.61875
v 0.1625 0.1625 0.61875
v 0.1625 0.8375 0.61875
v 0.8375 0.8375 0.61875
v 0.8375 0.1625 0.58125
v 0.1625 0.1625 0.58125
v 0.1625 0.8375 0.58125
v 0.8375 0.8375 0.58125
v 0.83125 0.16875 0.575
v 0.16875 0.16875 0.575
v 0.16875 0.83125 0.575
v 0.83125 0.83125 0.575
v 0.83125 0.16875 0.625
v 0.16875 0.16875 0.625
v 0.16875 0.83125 0.625
v 0.83125 0.83125 0.625
v 0.83125 0.16875 0.575
v 0.16875 0.16875 0.575
v 0.16875 0.83125 0.575
v 0.83125 0.83125 0.575
vt 0.660803 0.069785
vt 0.755261 0.069785
vt 0.756152 0.071045
vt 0.659912 0.071045
vt 0.492834 0.059043
vt 0.587292 0.059043
vt 0.588184 0.060303
vt 0.491943 0.060303
vt 0.758948 0.069785
vt 0.853406 0.069785
vt 0.854297 0.071045
vt 0.758057 0.071045
vt 0.590979 0.059043
vt 0.685437 0.059043
vt 0.686328 0.060303
vt 0.590088 0.060303
vt 0.656006 0.102808
vt 0.752246 0.102808
vt 0.752246 0.108154
vt 0.656006 0.108154
vt 0.75415 0.102808
vt 0.850391 0.102808
vt 0.850391 0.108154
vt 0.75415 0.108154
vt 0.852295 0.102808
vt 0.948535 0.102808
vt 0.948535 0.108154
vt 0.852295 0.108154
vt 0.001221 0.095972
vt 0.097461 0.095972
vt 0.097461 0.101318
vt 0.001221 0.101318
vt 0.688232 0.059043
vt 0.784473 0.059043
vt 0.783582 0.060303
vt 0.689124 0.060303
vt 0.786377 0.059043
vt 0.882617 0.059043
vt 0.881726 0.060303
vt 0.787268 0.060303
vt 0.884521 0.059043
vt 0.980762 0.059043
vt 0.979871 0.060303
vt 0.885413 0.060303
vt 0.001221 0.056113
vt 0.097461 0.056113
vt 0.09657 0.057373
vt 0.002112 0.057373
vt 0.770752 0.998779
vt 0.770752 0.904321
vt 0.86521 0.904321
vt 0.86521 0.904321
vt 0.86521 0.998779
vt 0.770752 0.998779
vt 0.961401 0.998779
vt 0.866943 0.998779
vt 0.866943 0.904321
vt 0.866943 0.904321
vt 0.961401 0.904321
vt 0.961401 0.998779
vn 0 -0.707107 0.707107
vn -0.707107 0 0.707107
vn 0 0.707107 0.707107
vn 0.707107 0 0.707107
vn 0 -1 0
vn -1 0 0
vn 0 1 0
vn 1 0 0
vn 0 -0.707107 -0.707107
vn -0.707107 0 -0.707107
vn 0 0.707107 -0.707107
vn 0.707107 0 -0.707107
vn 0 0 1
vn 0 0 -1
f 1/1/1 2/2/1 6/3/1 5/4/1
f 2/5/2 3/6/2 7/7/2 6/8/2
f 3/9/3 4/10/3 8/11/3 7/12/3
f 4/13/4 1/14/4 5/15/4 8/16/4
f 5/17/5 6/18/5 10/19/5 9/20/5
f 6/21/6 7/22/6 11/23/6 10/24/6
f 7/25/7 8/26/7 12/27/7 11/28/7
f 8/29/8 5/30/8 9/31/8 12/32/8
f 9/33/9 10/34/9 14/35/9 13/36/9
f 10/37/10 11/38/10 15/39/10 14/40/10
f 11/41/11 12/42/11 16/43/11 15/44/11
f 12/45/12 9/46/12 13/47/12 16/48/12
f 18/49/13 17/50/13 20/51/13
f 20/52/13 19/53/13 18/54/13
f 24/55/14 21/56/14 22/57/14
f 22/58/14 23/59/14 24/60/14
o end_pipe_flange
usemtl heat_resistant_fluid_pipe
v 0.83125 0.16875 0.575
v 0.16875 0.16875 0.575
v 0.16875 0.83125 0.575
v 0.83125 0.83125 0.575
v 0.8375 0.1625 0.56875
v 0.1625 0.1625 0.56875
v 0.1625 0.8375 0.56875
v 0.8375 0.8375 0.56875
v 0.8375 0.1625 0.53125
v 0.1625 0.1625 0.53125
v 0.1625 0.8375 0.53125
v 0.8375 0.8375 0.53125
v 0.83125 0.16875 0.525
v 0.16875 0.16875 0.525
v 0.16875 0.83125 0.525
v 0.83125 0.83125 0.525
v 0.75625 0.75625 0.575
v 0.24375 0.75625 0.575
v 0.24375 0.24375 0.575
v 0.75625 0.24375 0.575
v 0.75 0.75 0.56875
v 0.25 0.75 0.56875
v 0.25 0.25 0.56875
v 0.75 0.25 0.56875
v 0.75 0.75 0.53125
v 0.25 0.75 0.53125
v 0.25 0.25 0.53125
v 0.75 0.25 0.53125
v 0.75625 0.75625 0.525
v 0.24375 0.75625 0.525
v 0.24375 0.24375 0.525
v 0.75625 0.24375 0.525
v 0.83125 0.16875 0.575
v 0.16875 0.16875 0.575
v 0.16875 0.83125 0.575
v 0.83125 0.83125 0.575
v 0.75625 0.75625 0.575
v 0.24375 0.75625 0.575
v 0.24375 0.24375 0.575
v 0.75625 0.24375 0.575
v 0.83125 0.16875 0.525
v 0.16875 0.16875 0.525
v 0.16875 0.83125 0.525
v 0.83125 0.83125 0.525
v 0.75625 0.75625 0.525
v 0.24375 0.75625 0.525
v 0.24375 0.24375 0.525
v 0.75625 0.24375 0.525
vt 0.857092 0.069785
vt 0.95155 0.069785
vt 0.952441 0.071045
vt 0.856201 0.071045
vt 0.002112 0.064902
vt 0.09657 0.064902
vt 0.097461 0.066162
vt 0.001221 0.066162
vt 0.100256 0.064902
vt 0.194714 0.064902
vt 0.195605 0.066162
vt 0.099365 0.066162
vt 0.198401 0.064902
vt 0.292859 0.064902
vt 0.29375 0.066162
vt 0.19751 0.066162
vt 0.099365 0.095972
vt 0.195605 0.095972
vt 0.195605 0.101318
vt 0.099365 0.101318
vt 0.19751 0.095972
vt 0.29375 0.095972
vt 0.29375 0.101318
vt 0.19751 0.101318
vt 0.295654 0.095972
vt 0.391895 0.095972
vt 0.391895 0.101318
vt 0.295654 0.101318
vt 0.393799 0.095972
vt 0.490039 0.095972
vt 0.490039 0.101318
vt 0.393799 0.101318
vt 0.267334 0.069785
vt 0.363574 0.069785
vt 0.362683 0.071045
vt 0.268225 0.071045
vt 0.491943 0.047324
vt 0.588184 0.047324
vt 0.587292 0.048584
vt 0.492834 0.048584
vt 0.365479 0.069785
vt 0.461719 0.069785
vt 0.460828 0.071045
vt 0.36637 0.071045
vt 0.590088 0.047324
vt 0.686328 0.047324
vt 0.685437 0.048584
vt 0.590979 0.048584
vt 0.225342 0.020957
vt 0.298413 0.020957
vt 0.297522 0.022217
vt 0.226233 0.022217
vt 0.374756 0.029746
vt 0.447827 0.029746
vt 0.446936 0.031006
vt 0.375647 0.031006
vt 0.300049 0.020957
vt 0.37312 0.020957
vt 0.372229 0.022217
vt 0.30094 0.022217
vt 0.449463 0.029746
vt 0.522534 0.029746
vt 0.521643 0.031006
vt 0.450354 0.031006
vt 0.295654 0.089136
vt 0.366943 0.089136
vt 0.366943 0.094482
vt 0.295654 0.094482
vt 0.368408 0.089136
vt 0.439697 0.089136
vt 0.439697 0.094482
vt 0.368408 0.094482
vt 0.441162 0.089136
vt 0.512451 0.089136
vt 0.512451 0.094482
vt 0.441162 0.094482
vt 0.513916 0.089136
vt 0.585205 0.089136
vt 0.585205 0.094482
vt 0.513916 0.094482
vt 0.920569 0.044394
vt 0.991858 0.044394
vt 0.992749 0.045654
vt 0.919678 0.045654
vt 0.674475 0.035605
vt 0.745764 0.035605
vt 0.746655 0.036865
vt 0.673584 0.036865
vt 0.002112 0.041464
vt 0.073401 0.041464
vt 0.074292 0.042725
vt 0.001221 0.042725
vt 0.749182 0.035605
vt 0.820471 0.035605
vt 0.821362 0.036865
vt 0.748291 0.036865
vt 0.084985 0.891895
vt 0.095679 0.902588
vt 0.001221 0.902588
vt 0.011914 0.891895
vt 0.084985 0.891895
vt 0.001221 0.902588
vt 0.011914 0.891895
vt 0.001221 0.902588
vt 0.001221 0.80813
vt 0.011914 0.818823
vt 0.011914 0.891895
vt 0.001221 0.80813
vt 0.011914 0.818823
vt 0.001221 0.80813
vt 0.095679 0.80813
vt 0.084985 0.818823
vt 0.011914 0.818823
vt 0.095679 0.80813
vt 0.084985 0.891895
vt 0.084985 0.818823
vt 0.095679 0.80813
vt 0.095679 0.80813
vt 0.095679 0.902588
vt 0.084985 0.891895
vt 0.097412 0.80813
vt 0.19187 0.80813
vt 0.181177 0.818823
vt 0.097412 0.80813
vt 0.181177 0.818823
vt 0.108105 0.818823
vt 0.097412 0.902588
vt 0.097412 0.80813
vt 0.108105 0.818823
vt 0.097412 0.902588
vt 0.108105 0.818823
vt 0.108105 0.891895
vt 0.19187 0.902588
vt 0.097412 0.902588
vt 0.108105 0.891895
vt 0.19187 0.902588
vt 0.108105 0.891895
vt 0.181177 0.891895
vt 0.19187 0.902588
vt 0.181177 0.891895
vt 0.181177 0.818823
vt 0.181177 0.818823
vt 0.19187 0.80813
vt 0.19187 0.902588
vn 0 -0.707107 0.707107
vn -0.707107 0 0.707107
vn 0 0.707107 0.707107
vn 0.707107 0 0.707107
vn 0 -1 0
vn -1 0 0
vn 0 1 0
vn 1 0 0
vn 0 -0.707107 -0.707107
vn -0.707107 0 -0.707107
vn 0 0.707107 -0.707107
vn 0.707107 0 -0.707107
vn 0 0 1
vn 0 0 -1
f 25/61/15 26/62/15 30/63/15 29/64/15
f 26/65/16 27/66/16 31/67/16 30/68/16
f 27/69/17 28/70/17 32/71/17 31/72/17
f 28/73/18 25/74/18 29/75/18 32/76/18
f 29/77/19 30/78/19 34/79/19 33/80/19
f 30/81/20 31/82/20 35/83/20 34/84/20
f 31/85/21 32/86/21 36/87/21 35/88/21
f 32/89/22 29/90/22 33/91/22 36/92/22
f 33/93/23 34/94/23 38/95/23 37/96/23
f 34/97/24 35/98/24 39/99/24 38/100/24
f 35/101/25 36/102/25 40/103/25 39/104/25
f 36/105/26 33/106/26 37/107/26 40/108/26
f 41/109/15 42/110/15 46/111/15 45/112/15
f 42/113/18 43/114/18 47/115/18 46/116/18
f 43/117/17 44/118/17 48/119/17 47/120/17
f 44/121/16 41/122/16 45/123/16 48/124/16
f 45/125/19 46/126/19 50/127/19 49/128/19
f 46/129/22 47/130/22 51/131/22 50/132/22
f 47/133/21 48/134/21 52/135/21 51/136/21
f 48/137/20 45/138/20 49/139/20 52/140/20
f 49/141/23 50/142/23 54/143/23 53/144/23
f 50/145/26 51/146/26 55/147/26 54/148/26
f 51/149/25 52/150/25 56/151/25 55/152/25
f 52/153/24 49/154/24 53/155/24 56/156/24
f 62/157/27 59/158/27 58/159/27
f 63/160/27 62/161/27 58/162/27
f 63/163/27 58/164/27 57/165/27
f 64/166/27 63/167/27 57/168/27
f 64/169/27 57/170/27 60/171/27
f 61/172/27 64/173/27 60/174/27
f 62/175/27 61/176/27 60/177/27
f 60/178/27 59/179/27 62/180/27
f 66/181/28 67/182/28 70/183/28
f 66/184/28 70/185/28 71/186/28
f 65/187/28 66/188/28 71/189/28
f 65/190/28 71/191/28 72/192/28
f 68/193/28 65/194/28 72/195/28
f 68/196/28 72/197/28 69/198/28
f 68/199/28 69/200/28 70/201/28
f 70/202/28 67/203/28 68/204/28
o end_pipe_flange_lining
usemtl heat_resistant_fluid_pipe
v 0.74875 0.25125 0.575
v 0.25125 0.25125 0.575
v 0.25125 0.74875 0.575
v 0.74875 0.74875 0.575
v 0.74875 0.25125 0.525
v 0.25125 0.25125 0.525
v 0.25125 0.74875 0.525
v 0.74875 0.74875 0.525
v 0.71875 0.71875 0.575
v 0.28125 0.71875 0.575
v 0.28125 0.28125 0.575
v 0.71875 0.28125 0.575
v 0.71875 0.71875 0.525
v 0.28125 0.71875 0.525
v 0.28125 0.28125 0.525
v 0.71875 0.28125 0.525
v 0.74875 0.25125 0.575
v 0.25125 0.25125 0.575
v 0.25125 0.74875 0.575
v 0.74875 0.74875 0.575
v 0.71875 0.71875 0.575
v 0.28125 0.71875 0.575
v 0.28125 0.28125 0.575
v 0.71875 0.28125 0.575
v 0.74875 0.25125 0.525
v 0.25125 0.25125 0.525
v 0.25125 0.74875 0.525
v 0.74875 0.74875 0.525
v 0.71875 0.71875 0.525
v 0.28125 0.71875 0.525
v 0.28125 0.28125 0.525
v 0.71875 0.28125 0.525
vt 0.001221 0.187939
vt 0.072153 0.187939
vt 0.072153 0.195068
vt 0.001221 0.195068
vt 0.073975 0.187939
vt 0.144907 0.187939
vt 0.144907 0.195068
vt 0.073975 0.195068
vt 0.146729 0.187939
vt 0.217661 0.187939
vt 0.217661 0.195068
vt 0.146729 0.195068
vt 0.219482 0.187939
vt 0.290415 0.187939
vt 0.290415 0.195068
vt 0.219482 0.195068
vt 0.583252 0.187939
vt 0.64563 0.187939
vt 0.64563 0.195068
vt 0.583252 0.195068
vt 0.647217 0.187939
vt 0.709595 0.187939
vt 0.709595 0.195068
vt 0.647217 0.195068
vt 0.711182 0.187939
vt 0.77356 0.187939
vt 0.77356 0.195068
vt 0.711182 0.195068
vt 0.775146 0.187939
vt 0.837524 0.187939
vt 0.837524 0.195068
vt 0.775146 0.195068
vt 0.731938 0.705928
vt 0.736216 0.710205
vt 0.665283 0.710205
vt 0.669561 0.705928
vt 0.731938 0.705928
vt 0.665283 0.710205
vt 0.669561 0.705928
vt 0.665283 0.710205
vt 0.665283 0.639272
vt 0.669561 0.64355
vt 0.669561 0.705928
vt 0.665283 0.639272
vt 0.669561 0.64355
vt 0.665283 0.639272
vt 0.736216 0.639272
vt 0.731938 0.64355
vt 0.669561 0.64355
vt 0.736216 0.639272
vt 0.731938 0.705928
vt 0.731938 0.64355
vt 0.736216 0.639272
vt 0.736216 0.639272
vt 0.736216 0.710205
vt 0.731938 0.705928
vt 0.738037 0.639272
vt 0.80897 0.639272
vt 0.804692 0.64355
vt 0.738037 0.639272
vt 0.804692 0.64355
vt 0.742314 0.64355
vt 0.738037 0.710205
vt 0.738037 0.639272
vt 0.742314 0.64355
vt 0.738037 0.710205
vt 0.742314 0.64355
vt 0.742314 0.705928
vt 0.80897 0.710205
vt 0.738037 0.710205
vt 0.742314 0.705928
vt 0.80897 0.710205
vt 0.742314 0.705928
vt 0.804692 0.705928
vt 0.80897 0.710205
vt 0.804692 0.705928
vt 0.804692 0.64355
vt 0.804692 0.64355
vt 0.80897 0.639272
vt 0.80897 0.710205
vn 0 -1 0
vn -1 0 0
vn 0 1 0
vn 1 0 0
vn 0 0 1
vn 0 0 -1
f 73/205/29 74/206/29 78/207/29 77/208/29
f 74/209/30 75/210/30 79/211/30 78/212/30
f 75/213/31 76/214/31 80/215/31 79/216/31
f 76/217/32 73/218/32 77/219/32 80/220/32
f 81/221/29 82/222/29 86/223/29 85/224/29
f 82/225/32 83/226/32 87/227/32 86/228/32
f 83/229/31 84/230/31 88/231/31 87/232/31
f 84/233/30 81/234/30 85/235/30 88/236/30
f 94/237/33 91/238/33 90/239/33
f 95/240/33 94/241/33 90/242/33
f 95/243/33 90/244/33 89/245/33
f 96/246/33 95/247/33 89/248/33
f 96/249/33 89/250/33 92/251/33
f 93/252/33 96/253/33 92/254/33
f 94/255/33 93/256/33 92/257/33
f 92/258/33 91/259/33 94/260/33
f 98/261/34 99/262/34 102/263/34
f 98/264/34 102/265/34 103/266/34
f 97/267/34 98/268/34 103/269/34
f 97/270/34 103/271/34 104/272/34
f 100/273/34 97/274/34 104/275/34
f 100/276/34 104/277/34 101/278/34
f 100/279/34 101/280/34 102/281/34
f 102/282/34 99/283/34 100/284/34
o end_pipe_flange_nuts
usemtl heat_resistant_fluid_pipe
v 0.767892 0.2225 0.646875
v 0.790625 0.235625 0.646875
v 0.813358 0.2225 0.646875
v 0.813358 0.19625 0.646875
v 0.790625 0.183125 0.646875
v 0.767892 0.19625 0.646875
v 0.767892 0.2225 0.625
v 0.790625 0.235625 0.625
v 0.813358 0.2225 0.625
v 0.813358 0.19625 0.625
v 0.790625 0.183125 0.625
v 0.767892 0.19625 0.625
v 0.767892 0.2225 0.646875
v 0.790625 0.235625 0.646875
v 0.813358 0.2225 0.646875
v 0.813358 0.19625 0.646875
v 0.790625 0.183125 0.646875
v 0.767892 0.19625 0.646875
v 0.767892 0.2225 0.625
v 0.790625 0.235625 0.625
v 0.813358 0.2225 0.625
v 0.813358 0.19625 0.625
v 0.790625 0.183125 0.625
v 0.767892 0.19625 0.625
v 0.767892 0.80375 0.646875
v 0.790625 0.816875 0.646875
v 0.813358 0.80375 0.646875
v 0.813358 0.7775 0.646875
v 0.790625 0.764375 0.646875
v 0.767892 0.7775 0.646875
v 0.767892 0.80375 0.625
v 0.790625 0.816875 0.625
v 0.813358 0.80375 0.625
v 0.813358 0.7775 0.625
v 0.790625 0.764375 0.625
v 0.767892 0.7775 0.625
v 0.767892 0.80375 0.646875
v 0.790625 0.816875 0.646875
v 0.813358 0.80375 0.646875
v 0.813358 0.7775 0.646875
v 0.790625 0.764375 0.646875
v 0.767892 0.7775 0.646875
v 0.767892 0.80375 0.625
v 0.790625 0.816875 0.625
v 0.813358 0.80375 0.625
v 0.813358 0.7775 0.625
v 0.790625 0.764375 0.625
v 0.767892 0.7775 0.625
v 0.186642 0.2225 0.646875
v 0.209375 0.235625 0.646875
v 0.232108 0.2225 0.646875
v 0.232108 0.19625 0.646875
v 0.209375 0.183125 0.646875
v 0.186642 0.19625 0.646875
v 0.186642 0.2225 0.625
v 0.209375 0.235625 0.625
v 0.232108 0.2225 0.625
v 0.232108 0.19625 0.625
v 0.209375 0.183125 0.625
v 0.186642 0.19625 0.625
v 0.186642 0.2225 0.646875
v 0.209375 0.235625 0.646875
v 0.232108 0.2225 0.646875
v 0.232108 0.19625 0.646875
v 0.209375 0.183125 0.646875
v 0.186642 0.19625 0.646875
v 0.186642 0.2225 0.625
v 0.209375 0.235625 0.625
v 0.232108 0.2225 0.625
v 0.232108 0.19625 0.625
v 0.209375 0.183125 0.625
v 0.186642 0.19625 0.625
v 0.186642 0.80375 0.646875
v 0.209375 0.816875 0.646875
v 0.232108 0.80375 0.646875
v 0.232108 0.7775 0.646875
v 0.209375 0.764375 0.646875
v 0.186642 0.7775 0.646875
v 0.186642 0.80375 0.625
v 0.209375 0.816875 0.625
v 0.232108 0.80375 0.625
v 0.232108 0.7775 0.625
v 0.209375 0.764375 0.625
v 0.186642 0.7775 0.625
v 0.186642 0.80375 0.646875
v 0.209375 0.816875 0.646875
v 0.232108 0.80375 0.646875
v 0.232108 0.7775 0.646875
v 0.209375 0.764375 0.646875
v 0.186642 0.7775 0.646875
v 0.186642 0.80375 0.625
v 0.209375 0.816875 0.625
v 0.232108 0.80375 0.625
v 0.232108 0.7775 0.625
v 0.209375 0.764375 0.625
v 0.186642 0.7775 0.625
vt 0.028076 0.072809
vt 0.031819 0.072809
vt 0.031819 0.075928
vt 0.028076 0.075928
vt 0.939697 0.07818
vt 0.94344 0.07818
vt 0.94344 0.081299
vt 0.939697 0.081299
vt 0.033447 0.072809
vt 0.03719 0.072809
vt 0.03719 0.075928
vt 0.033447 0.075928
vt 0.945068 0.07818
vt 0.948811 0.07818
vt 0.948811 0.081299
vt 0.945068 0.081299
vt 0.156982 0.072809
vt 0.160725 0.072809
vt 0.160725 0.075928
vt 0.156982 0.075928
vt 0.038818 0.072809
vt 0.042561 0.072809
vt 0.042561 0.075928
vt 0.038818 0.075928
vt 0.47062 0.147882
vt 0.468749 0.151123
vt 0.465006 0.151123
vt 0.468749 0.144641
vt 0.47062 0.147882
vt 0.465006 0.151123
vt 0.465006 0.144641
vt 0.468749 0.144641
vt 0.465006 0.151123
vt 0.465006 0.151123
vt 0.463135 0.147882
vt 0.465006 0.144641
vt 0.474283 0.144641
vt 0.478026 0.144641
vt 0.479897 0.147882
vt 0.474283 0.144641
vt 0.479897 0.147882
vt 0.478026 0.151123
vt 0.474283 0.144641
vt 0.478026 0.151123
vt 0.474283 0.151123
vt 0.474283 0.151123
vt 0.472412 0.147882
vt 0.474283 0.144641
vt 0.162354 0.072809
vt 0.166096 0.072809
vt 0.166096 0.075928
vt 0.162354 0.075928
vt 0.950439 0.07818
vt 0.954182 0.07818
vt 0.954182 0.081299
vt 0.950439 0.081299
vt 0.044189 0.072809
vt 0.047932 0.072809
vt 0.047932 0.075928
vt 0.044189 0.075928
vt 0.955811 0.07818
vt 0.959553 0.07818
vt 0.959553 0.081299
vt 0.955811 0.081299
vt 0.049561 0.072809
vt 0.053303 0.072809
vt 0.053303 0.075928
vt 0.049561 0.075928
vt 0.054932 0.072809
vt 0.058674 0.072809
vt 0.058674 0.075928
vt 0.054932 0.075928
vt 0.489175 0.147882
vt 0.487303 0.151123
vt 0.483561 0.151123
vt 0.487303 0.144641
vt 0.489175 0.147882
vt 0.483561 0.151123
vt 0.483561 0.144641
vt 0.487303 0.144641
vt 0.483561 0.151123
vt 0.483561 0.151123
vt 0.481689 0.147882
vt 0.483561 0.144641
vt 0.492838 0.144641
vt 0.496581 0.144641
vt 0.498452 0.147882
vt 0.492838 0.144641
vt 0.498452 0.147882
vt 0.496581 0.151123
vt 0.492838 0.144641
vt 0.496581 0.151123
vt 0.492838 0.151123
vt 0.492838 0.151123
vt 0.490967 0.147882
vt 0.492838 0.144641
vt 0.961182 0.07818
vt 0.964924 0.07818
vt 0.964924 0.081299
vt 0.961182 0.081299
vt 0.060303 0.072809
vt 0.064045 0.072809
vt 0.064045 0.075928
vt 0.060303 0.075928
vt 0.065674 0.072809
vt 0.069417 0.072809
vt 0.069417 0.075928
vt 0.065674 0.075928
vt 0.167725 0.072809
vt 0.171467 0.072809
vt 0.171467 0.075928
vt 0.167725 0.075928
vt 0.966553 0.07818
vt 0.970295 0.07818
vt 0.970295 0.081299
vt 0.966553 0.081299
vt 0.071045 0.072809
vt 0.074788 0.072809
vt 0.074788 0.075928
vt 0.071045 0.075928
vt 0.507729 0.147882
vt 0.505858 0.151123
vt 0.502115 0.151123
vt 0.505858 0.144641
vt 0.507729 0.147882
vt 0.502115 0.151123
vt 0.502115 0.144641
vt 0.505858 0.144641
vt 0.502115 0.151123
vt 0.502115 0.151123
vt 0.500244 0.147882
vt 0.502115 0.144641
vt 0.511393 0.144641
vt 0.515135 0.144641
vt 0.517007 0.147882
vt 0.511393 0.144641
vt 0.517007 0.147882
vt 0.515135 0.151123
vt 0.511393 0.144641
vt 0.515135 0.151123
vt 0.511393 0.151123
vt 0.511393 0.151123
vt 0.509521 0.147882
vt 0.511393 0.144641
vt 0.971924 0.07818
vt 0.975667 0.07818
vt 0.975667 0.081299
vt 0.971924 0.081299
vt 0.173096 0.072809
vt 0.176838 0.072809
vt 0.176838 0.075928
vt 0.173096 0.075928
vt 0.076416 0.072809
vt 0.080159 0.072809
vt 0.080159 0.075928
vt 0.076416 0.075928
vt 0.081787 0.072809
vt 0.08553 0.072809
vt 0.08553 0.075928
vt 0.081787 0.075928
vt 0.977295 0.07818
vt 0.981038 0.07818
vt 0.981038 0.081299
vt 0.977295 0.081299
vt 0.087158 0.072809
vt 0.090901 0.072809
vt 0.090901 0.075928
vt 0.087158 0.075928
vt 0.526284 0.147882
vt 0.524413 0.151123
vt 0.52067 0.151123
vt 0.524413 0.144641
vt 0.526284 0.147882
vt 0.52067 0.151123
vt 0.52067 0.144641
vt 0.524413 0.144641
vt 0.52067 0.151123
vt 0.52067 0.151123
vt 0.518799 0.147882
vt 0.52067 0.144641
vt 0.529948 0.144641
vt 0.53369 0.144641
vt 0.535562 0.147882
vt 0.529948 0.144641
vt 0.535562 0.147882
vt 0.53369 0.151123
vt 0.529948 0.144641
vt 0.53369 0.151123
vt 0.529948 0.151123
vt 0.529948 0.151123
vt 0.528076 0.147882
vt 0.529948 0.144641
vn -0.5 0.866025 0
vn 0.5 0.866025 0
vn 1 0 0
vn 0.5 -0.866025 0
vn -0.5 -0.866025 0
vn -1 0 0
vn 0 0 1
vn 0 0 -1
f 105/285/35 106/286/35 112/287/35 111/288/35
f 106/289/36 107/290/36 113/291/36 112/292/36
f 107/293/37 108/294/37 114/295/37 113/296/37
f 108/297/38 109/298/38 115/299/38 114/300/38
f 109/301/39 110/302/39 116/303/39 115/304/39
f 110/305/40 105/306/40 111/307/40 116/308/40
f 118/309/41 117/310/41 122/311/41
f 119/312/41 118/313/41 122/314/41
f 120/315/41 119/316/41 122/317/41
f 122/318/41 121/319/41 120/320/41
f 128/321/42 123/322/42 124/323/42
f 128/324/42 124/325/42 125/326/42
f 128/327/42 125/328/42 126/329/42
f 126/330/42 127/331/42 128/332/42
f 129/333/35 130/334/35 136/335/35 135/336/35
f 130/337/36 131/338/36 137/339/36 136/340/36
f 131/341/37 132/342/37 138/343/37 137/344/37
f 132/345/38 133/346/38 139/347/38 138/348/38
f 133/349/39 134/350/39 140/351/39 139/352/39
f 134/353/40 129/354/40 135/355/40 140/356/40
f 142/357/41 141/358/41 146/359/41
f 143/360/41 142/361/41 146/362/41
f 144/363/41 143/364/41 146/365/41
f 146/366/41 145/367/41 144/368/41
f 152/369/42 147/370/42 148/371/42
f 152/372/42 148/373/42 149/374/42
f 152/375/42 149/376/42 150/377/42
f 150/378/42 151/379/42 152/380/42
f 153/381/35 154/382/35 160/383/35 159/384/35
f 154/385/36 155/386/36 161/387/36 160/388/36
f 155/389/37 156/390/37 162/391/37 161/392/37
f 156/393/38 157/394/38 163/395/38 162/396/38
f 157/397/39 158/398/39 164/399/39 163/400/39
f 158/401/40 153/402/40 159/403/40 164/404/40
f 166/405/41 165/406/41 170/407/41
f 167/408/41 166/409/41 170/410/41
f 168/411/41 167/412/41 170/413/41
f 170/414/41 169/415/41 168/416/41
f 176/417/42 171/418/42 172/419/42
f 176/420/42 172/421/42 173/422/42
f 176/423/42 173/424/42 174/425/42
f 174/426/42 175/427/42 176/428/42
f 177/429/35 178/430/35 184/431/35 183/432/35
f 178/433/36 179/434/36 185/435/36 184/436/36
f 179/437/37 180/438/37 186/439/37 185/440/37
f 180/441/38 181/442/38 187/443/38 186/444/38
f 181/445/39 182/446/39 188/447/39 187/448/39
f 182/449/40 177/450/40 183/451/40 188/452/40
f 190/453/41 189/454/41 194/455/41
f 191/456/41 190/457/41 194/458/41
f 192/459/41 191/460/41 194/461/41
f 194/462/41 193/463/41 192/464/41
f 200/465/42 195/466/42 196/467/42
f 200/468/42 196/469/42 197/470/42
f 200/471/42 197/472/42 198/473/42
f 198/474/42 199/475/42 200/476/42
o end_pipe_rails
usemtl heat_resistant_fluid_pipe
v 0.66875 0.33125 0.525
v 0.75 0.33125 0.525
v 0.75 0.26875 0.525
v 0.73125 0.25 0.525
v 0.66875 0.25 0.525
v 0.66875 0.33125 0
v 0.75 0.33125 0
v 0.75 0.26875 0
v 0.73125 0.25 0
v 0.66875 0.25 0
v 0.66875 0.33125 0.525
v 0.75 0.33125 0.525
v 0.75 0.26875 0.525
v 0.73125 0.25 0.525
v 0.66875 0.25 0.525
v 0.66875 0.33125 0
v 0.75 0.33125 0
v 0.75 0.26875 0
v 0.73125 0.25 0
v 0.66875 0.25 0
v 0.66875 0.75 0.525
v 0.73125 0.75 0.525
v 0.75 0.73125 0.525
v 0.75 0.66875 0.525
v 0.66875 0.66875 0.525
v 0.66875 0.75 0
v 0.73125 0.75 0
v 0.75 0.73125 0
v 0.75 0.66875 0
v 0.66875 0.66875 0
v 0.66875 0.75 0.525
v 0.73125 0.75 0.525
v 0.75 0.73125 0.525
v 0.75 0.66875 0.525
v 0.66875 0.66875 0.525
v 0.66875 0.75 0
v 0.73125 0.75 0
v 0.75 0.73125 0
v 0.75 0.66875 0
v 0.66875 0.66875 0
v 0.33125 0.25 0.525
v 0.26875 0.25 0.525
v 0.25 0.26875 0.525
v 0.25 0.33125 0.525
v 0.33125 0.33125 0.525
v 0.33125 0.25 0
v 0.26875 0.25 0
v 0.25 0.26875 0
v 0.25 0.33125 0
v 0.33125 0.33125 0
v 0.33125 0.25 0.525
v 0.26875 0.25 0.525
v 0.25 0.26875 0.525
v 0.25 0.33125 0.525
v 0.33125 0.33125 0.525
v 0.33125 0.25 0
v 0.26875 0.25 0
v 0.25 0.26875 0
v 0.25 0.33125 0
v 0.33125 0.33125 0
v 0.33125 0.66875 0.525
v 0.25 0.66875 0.525
v 0.25 0.73125 0.525
v 0.26875 0.75 0.525
v 0.33125 0.75 0.525
v 0.33125 0.66875 0
v 0.25 0.66875 0
v 0.25 0.73125 0
v 0.26875 0.75 0
v 0.33125 0.75 0
v 0.33125 0.66875 0.525
v 0.25 0.66875 0.525
v 0.25 0.73125 0.525
v 0.26875 0.75 0.525
v 0.33125 0.75 0.525
v 0.33125 0.66875 0
v 0.25 0.66875 0
v 0.25 0.73125 0
v 0.26875 0.75 0
v 0.33125 0.75 0
vt 0.348389 0.341553
vt 0.348389 0.329968
vt 0.423242 0.329968
vt 0.423242 0.341553
vt 0.232666 0.227295
vt 0.232666 0.218384
vt 0.30752 0.218384
vt 0.30752 0.227295
vt 0.528564 0.087646
vt 0.528564 0.083866
vt 0.603418 0.083866
vt 0.603418 0.087646
vt 0.309326 0.227295
vt 0.309326 0.218384
vt 0.38418 0.218384
vt 0.38418 0.227295
vt 0.425049 0.341553
vt 0.425049 0.329968
vt 0.499902 0.329968
vt 0.499902 0.341553
vt 0.452258 0.290417
vt 0.452258 0.302002
vt 0.440674 0.302002
vt 0.443347 0.290417
vt 0.452258 0.290417
vt 0.440674 0.302002
vt 0.440674 0.302002
vt 0.440674 0.293091
vt 0.443347 0.290417
vt 0.453857 0.290417
vt 0.465442 0.290417
vt 0.465442 0.302002
vt 0.453857 0.290417
vt 0.465442 0.302002
vt 0.456531 0.302002
vt 0.456531 0.302002
vt 0.453857 0.299329
vt 0.453857 0.290417
vt 0.385986 0.227295
vt 0.385986 0.218384
vt 0.46084 0.218384
vt 0.46084 0.227295
vt 0.605225 0.087646
vt 0.605225 0.083866
vt 0.680078 0.083866
vt 0.680078 0.087646
vt 0.462646 0.227295
vt 0.462646 0.218384
vt 0.5375 0.218384
vt 0.5375 0.227295
vt 0.501709 0.341553
vt 0.501709 0.329968
vt 0.576562 0.329968
vt 0.576562 0.341553
vt 0.578369 0.341553
vt 0.578369 0.329968
vt 0.653223 0.329968
vt 0.653223 0.341553
vt 0.478625 0.293091
vt 0.478625 0.302002
vt 0.467041 0.302002
vt 0.475952 0.290417
vt 0.478625 0.293091
vt 0.467041 0.302002
vt 0.467041 0.302002
vt 0.467041 0.290417
vt 0.475952 0.290417
vt 0.480225 0.290417
vt 0.491809 0.290417
vt 0.491809 0.299329
vt 0.480225 0.290417
vt 0.491809 0.299329
vt 0.489136 0.302002
vt 0.489136 0.302002
vt 0.480225 0.302002
vt 0.480225 0.290417
vt 0.539307 0.227295
vt 0.539307 0.218384
vt 0.61416 0.218384
vt 0.61416 0.227295
vt 0.681885 0.087646
vt 0.681885 0.083866
vt 0.756738 0.083866
vt 0.756738 0.087646
vt 0.615967 0.227295
vt 0.615967 0.218384
vt 0.69082 0.218384
vt 0.69082 0.227295
vt 0.655029 0.341553
vt 0.655029 0.329968
vt 0.729883 0.329968
vt 0.729883 0.341553
vt 0.731689 0.341553
vt 0.731689 0.329968
vt 0.806543 0.329968
vt 0.806543 0.341553
vt 0.493408 0.299329
vt 0.493408 0.290417
vt 0.504993 0.290417
vt 0.496082 0.302002
vt 0.493408 0.299329
vt 0.504993 0.290417
vt 0.504993 0.290417
vt 0.504993 0.302002
vt 0.496082 0.302002
vt 0.518176 0.302002
vt 0.506592 0.302002
vt 0.506592 0.293091
vt 0.518176 0.302002
vt 0.506592 0.293091
vt 0.509265 0.290417
vt 0.509265 0.290417
vt 0.518176 0.290417
vt 0.518176 0.302002
vt 0.80835 0.341553
vt 0.80835 0.329968
vt 0.883203 0.329968
vt 0.883203 0.341553
vt 0.692627 0.227295
vt 0.692627 0.218384
vt 0.76748 0.218384
vt 0.76748 0.227295
vt 0.758545 0.087646
vt 0.758545 0.083866
vt 0.833398 0.083866
vt 0.833398 0.087646
vt 0.769287 0.227295
vt 0.769287 0.218384
vt 0.844141 0.218384
vt 0.844141 0.227295
vt 0.88501 0.341553
vt 0.88501 0.329968
vt 0.959863 0.329968
vt 0.959863 0.341553
vt 0.519775 0.302002
vt 0.519775 0.290417
vt 0.53136 0.290417
vt 0.528687 0.302002
vt 0.519775 0.302002
vt 0.53136 0.290417
vt 0.53136 0.290417
vt 0.53136 0.299329
vt 0.528687 0.302002
vt 0.544543 0.302002
vt 0.532959 0.302002
vt 0.532959 0.290417
vt 0.544543 0.302002
vt 0.532959 0.290417
vt 0.54187 0.290417
vt 0.54187 0.290417
vt 0.544543 0.293091
vt 0.544543 0.302002
vn 0 1 0
vn 1 0 0
vn 0.707107 -0.707107 0
vn 0 -1 0
vn -1 0 0
vn 0 0 1
vn 0 0 -1
vn 0.707107 0.707107 0
vn -0.707107 -0.707107 0
vn -0.707107 0.707107 0
f 201/477/43 202/478/43 207/479/43 206/480/43
f 202/481/44 203/482/44 208/483/44 207/484/44
f 203/485/45 204/486/45 209/487/45 208/488/45
f 204/489/46 205/490/46 210/491/46 209/492/46
f 205/493/47 201/494/47 206/495/47 210/496/47
f 212/497/48 211/498/48 215/499/48
f 213/500/48 212/501/48 215/502/48
f 215/503/48 214/504/48 213/505/48
f 220/506/49 216/507/49 217/508/49
f 220/509/49 217/510/49 218/511/49
f 218/512/49 219/513/49 220/514/49
f 221/515/43 222/516/43 227/517/43 226/518/43
f 222/519/50 223/520/50 228/521/50 227/522/50
f 223/523/44 224/524/44 229/525/44 228/526/44
f 224/527/46 225/528/46 230/529/46 229/530/46
f 225/531/47 221/532/47 226/533/47 230/534/47
f 232/535/48 231/536/48 235/537/48
f 233/538/48 232/539/48 235/540/48
f 235/541/48 234/542/48 233/543/48
f 240/544/49 236/545/49 237/546/49
f 240/547/49 237/548/49 238/549/49
f 238/550/49 239/551/49 240/552/49
f 241/553/46 242/554/46 247/555/46 246/556/46
f 242/557/51 243/558/51 248/559/51 247/560/51
f 243/561/47 244/562/47 249/563/47 248/564/47
f 244/565/43 245/566/43 250/567/43 249/568/43
f 245/569/44 241/570/44 246/571/44 250/572/44
f 252/573/48 251/574/48 255/575/48
f 253/576/48 252/577/48 255/578/48
f 255/579/48 254/580/48 253/581/48
f 260/582/49 256/583/49 257/584/49
f 260/585/49 257/586/49 258/587/49
f 258/588/49 259/589/49 260/590/49
f 261/591/46 262/592/46 267/593/46 266/594/46
f 262/595/47 263/596/47 268/597/47 267/598/47
f 263/599/52 264/600/52 269/601/52 268/602/52
f 264/603/43 265/604/43 270/605/43 269/606/43
f 265/607/44 261/608/44 266/609/44 270/610/44
f 272/611/48 271/612/48 275/613/48
f 273/614/48 272/615/48 275/616/48
f 275/617/48 274/618/48 273/619/48
f 280/620/49 276/621/49 277/622/49
f 280/623/49 277/624/49 278/625/49
f 278/626/49 279/627/49 280/628/49
