# AFL Fluid Pipe V2 end_pipe_down (glass), generated by tools/build-fluid-pipe-v2.mjs
mtllib heat_resistant_fluid_pipe.mtl
o end_pipe_panes
usemtl heat_resistant_fluid_pipe
v 0.740625 0.525 0.66875
v 0.740625 0.525 0.33125
v 0.740625 0 0.33125
v 0.740625 0 0.66875
v 0.725 0.525 0.66875
v 0.725 0.525 0.33125
v 0.725 0 0.33125
v 0.725 0 0.66875
v 0.66875 0.525 0.740625
v 0.33125 0.525 0.740625
v 0.33125 0 0.740625
v 0.66875 0 0.740625
v 0.66875 0.525 0.725
v 0.33125 0.525 0.725
v 0.33125 0 0.725
v 0.66875 0 0.725
v 0.275 0.525 0.66875
v 0.275 0.525 0.33125
v 0.275 0 0.33125
v 0.275 0 0.66875
v 0.259375 0.525 0.66875
v 0.259375 0.525 0.33125
v 0.259375 0 0.33125
v 0.259375 0 0.66875
v 0.66875 0.525 0.275
v 0.33125 0.525 0.275
v 0.33125 0 0.275
v 0.66875 0 0.275
v 0.66875 0.525 0.259375
v 0.33125 0.525 0.259375
v 0.33125 0 0.259375
v 0.66875 0 0.259375
vt 0.654687 0.5073
vt 0.654687 0.55542
vt 0.579834 0.55542
vt 0.579834 0.5073
vt 0.656494 0.55542
vt 0.656494 0.5073
vt 0.731348 0.5073
vt 0.731348 0.55542
vt 0.733154 0.55542
vt 0.733154 0.5073
vt 0.808008 0.5073
vt 0.808008 0.55542
vt 0.884668 0.5073
vt 0.884668 0.55542
vt 0.809814 0.55542
vt 0.809814 0.5073
vt 0.961328 0.5073
vt 0.961328 0.55542
vt 0.886475 0.55542
vt 0.886475 0.5073
vt 0.001221 0.505615
vt 0.001221 0.457495
vt 0.076074 0.457495
vt 0.076074 0.505615
vt 0.077881 0.505615
vt 0.077881 0.457495
vt 0.152734 0.457495
vt 0.152734 0.505615
vt 0.229395 0.457495
vt 0.229395 0.505615
vt 0.154541 0.505615
vt 0.154541 0.457495
vn 1 0 0
vn -1 0 0
vn 0 0 1
vn 0 0 -1
f 4/1/1 3/2/1 2/3/1 1/4/1
f 5/5/2 6/6/2 7/7/2 8/8/2
f 9/9/3 10/10/3 11/11/3 12/12/3
f 16/13/4 15/14/4 14/15/4 13/16/4
f 20/17/1 19/18/1 18/19/1 17/20/1
f 21/21/2 22/22/2 23/23/2 24/24/2
f 25/25/3 26/26/3 27/27/3 28/28/3
f 32/29/4 31/30/4 30/31/4 29/32/4
