# AFL Fluid Pipe V2 end_port_south, generated by tools/build-fluid-pipe-v2.mjs
mtllib heat_resistant_fluid_pipe.mtl
o end_port_blind
usemtl heat_resistant_fluid_pipe
v 0.16875 0.16875 0.375
v 0.83125 0.16875 0.375
v 0.83125 0.83125 0.375
v 0.16875 0.83125 0.375
v 0.1625 0.1625 0.38125
v 0.8375 0.1625 0.38125
v 0.8375 0.8375 0.38125
v 0.1625 0.8375 0.38125
v 0.1625 0.1625 0.41875
v 0.8375 0.1625 0.41875
v 0.8375 0.8375 0.41875
v 0.1625 0.8375 0.41875
v 0.16875 0.16875 0.425
v 0.83125 0.16875 0.425
v 0.83125 0.83125 0.425
v 0.16875 0.83125 0.425
v 0.16875 0.16875 0.375
v 0.83125 0.16875 0.375
v 0.83125 0.83125 0.375
v 0.16875 0.83125 0.375
v 0.16875 0.16875 0.425
v 0.83125 0.16875 0.425
v 0.83125 0.83125 0.425
v 0.16875 0.83125 0.425
vt 0.296545 0.064902
vt 0.391003 0.064902
vt 0.391895 0.066162
vt 0.295654 0.066162
vt 0.100256 0.056113
vt 0.194714 0.056113
vt 0.195605 0.057373
vt 0.099365 0.057373
vt 0.39469 0.064902
vt 0.489148 0.064902
vt 0.490039 0.066162
vt 0.393799 0.066162
vt 0.198401 0.056113
vt 0.292859 0.056113
vt 0.29375 0.057373
vt 0.19751 0.057373
vt 0.491943 0.095972
vt 0.588184 0.095972
vt 0.588184 0.101318
vt 0.491943 0.101318
vt 0.590088 0.095972
vt 0.686328 0.095972
vt 0.686328 0.101318
vt 0.590088 0.101318
vt 0.688232 0.095972
vt 0.784473 0.095972
vt 0.784473 0.101318
vt 0.688232 0.101318
vt 0.786377 0.095972
vt 0.882617 0.095972
vt 0.882617 0.101318
vt 0.786377 0.101318
vt 0.295654 0.056113
vt 0.391895 0.056113
vt 0.391003 0.057373
vt 0.296545 0.057373
vt 0.393799 0.056113
vt 0.490039 0.056113
vt 0.489148 0.057373
vt 0.39469 0.057373
vt 0.491943 0.056113
vt 0.588184 0.056113
vt 0.587292 0.057373
vt 0.492834 0.057373
vt 0.590088 0.056113
vt 0.686328 0.056113
vt 0.685437 0.057373
vt 0.590979 0.057373
vt 0.193604 0.902588
vt 0.193604 0.80813
vt 0.288062 0.80813
vt 0.288062 0.80813
vt 0.288062 0.902588
vt 0.193604 0.902588
vt 0.384253 0.902588
vt 0.289795 0.902588
vt 0.289795 0.80813
vt 0.289795 0.80813
vt 0.384253 0.80813
vt 0.384253 0.902588
vn 0 -0.707107 -0.707107
vn 0.707107 0 -0.707107
vn 0 0.707107 -0.707107
vn -0.707107 0 -0.707107
vn 0 -1 0
vn 1 0 0
vn 0 1 0
vn -1 0 0
vn 0 -0.707107 0.707107
vn 0.707107 0 0.707107
vn 0 0.707107 0.707107
vn -0.707107 0 0.707107
vn 0 0 -1
vn 0 0 1
f 1/1/1 2/2/1 6/3/1 5/4/1
f 2/5/2 3/6/2 7/7/2 6/8/2
f 3/9/3 4/10/3 8/11/3 7/12/3
f 4/13/4 1/14/4 5/15/4 8/16/4
f 5/17/5 6/18/5 10/19/5 9/20/5
f 6/21/6 7/22/6 11/23/6 10/24/6
f 7/25/7 8/26/7 12/27/7 11/28/7
f 8/29/8 5/30/8 9/31/8 12/32/8
f 9/33/9 10/34/9 14/35/9 13/36/9
f 10/37/10 11/38/10 15/39/10 14/40/10
f 11/41/11 12/42/11 16/43/11 15/44/11
f 12/45/12 9/46/12 13/47/12 16/48/12
f 18/49/13 17/50/13 20/51/13
f 20/52/13 19/53/13 18/54/13
f 24/55/14 21/56/14 22/57/14
f 22/58/14 23/59/14 24/60/14
o end_port_flange
usemtl heat_resistant_fluid_pipe
v 0.16875 0.16875 0.425
v 0.83125 0.16875 0.425
v 0.83125 0.83125 0.425
v 0.16875 0.83125 0.425
v 0.1625 0.1625 0.43125
v 0.8375 0.1625 0.43125
v 0.8375 0.8375 0.43125
v 0.1625 0.8375 0.43125
v 0.1625 0.1625 0.46875
v 0.8375 0.1625 0.46875
v 0.8375 0.8375 0.46875
v 0.1625 0.8375 0.46875
v 0.16875 0.16875 0.475
v 0.83125 0.16875 0.475
v 0.83125 0.83125 0.475
v 0.16875 0.83125 0.475
v 0.24375 0.75625 0.425
v 0.75625 0.75625 0.425
v 0.75625 0.24375 0.425
v 0.24375 0.24375 0.425
v 0.25 0.75 0.43125
v 0.75 0.75 0.43125
v 0.75 0.25 0.43125
v 0.25 0.25 0.43125
v 0.25 0.75 0.46875
v 0.75 0.75 0.46875
v 0.75 0.25 0.46875
v 0.25 0.25 0.46875
v 0.24375 0.75625 0.475
v 0.75625 0.75625 0.475
v 0.75625 0.24375 0.475
v 0.24375 0.24375 0.475
v 0.16875 0.16875 0.425
v 0.83125 0.16875 0.425
v 0.83125 0.83125 0.425
v 0.16875 0.83125 0.425
v 0.24375 0.75625 0.425
v 0.75625 0.75625 0.425
v 0.75625 0.24375 0.425
v 0.24375 0.24375 0.425
v 0.16875 0.16875 0.475
v 0.83125 0.16875 0.475
v 0.83125 0.83125 0.475
v 0.16875 0.83125 0.475
v 0.24375 0.75625 0.475
v 0.75625 0.75625 0.475
v 0.75625 0.24375 0.475
v 0.24375 0.24375 0.475
vt 0.492834 0.064902
vt 0.587292 0.064902
vt 0.588184 0.066162
vt 0.491943 0.066162
vt 0.590979 0.064902
vt 0.685437 0.064902
vt 0.686328 0.066162
vt 0.590088 0.066162
vt 0.689124 0.064902
vt 0.783582 0.064902
vt 0.784473 0.066162
vt 0.688232 0.066162
vt 0.787268 0.064902
vt 0.881726 0.064902
vt 0.882617 0.066162
vt 0.786377 0.066162
vt 0.884521 0.095972
vt 0.980762 0.095972
vt 0.980762 0.101318
vt 0.884521 0.101318
vt 0.001221 0.089136
vt 0.097461 0.089136
vt 0.097461 0.094482
vt 0.001221 0.094482
vt 0.099365 0.089136
vt 0.195605 0.089136
vt 0.195605 0.094482
vt 0.099365 0.094482
vt 0.19751 0.089136
vt 0.29375 0.089136
vt 0.29375 0.094482
vt 0.19751 0.094482
vt 0.463623 0.069785
vt 0.559863 0.069785
vt 0.558972 0.071045
vt 0.464514 0.071045
vt 0.688232 0.047324
vt 0.784473 0.047324
vt 0.783582 0.048584
vt 0.689124 0.048584
vt 0.561768 0.069785
vt 0.658008 0.069785
vt 0.657117 0.071045
vt 0.562659 0.071045
vt 0.786377 0.047324
vt 0.882617 0.047324
vt 0.881726 0.048584
vt 0.787268 0.048584
vt 0.374756 0.020957
vt 0.447827 0.020957
vt 0.446936 0.022217
vt 0.375647 0.022217
vt 0.52417 0.029746
vt 0.597241 0.029746
vt 0.59635 0.031006
vt 0.525061 0.031006
vt 0.449463 0.020957
vt 0.522534 0.020957
vt 0.521643 0.022217
vt 0.450354 0.022217
vt 0.598877 0.029746
vt 0.671948 0.029746
vt 0.671057 0.031006
vt 0.599768 0.031006
vt 0.58667 0.089136
vt 0.657959 0.089136
vt 0.657959 0.094482
vt 0.58667 0.094482
vt 0.659424 0.089136
vt 0.730713 0.089136
vt 0.730713 0.094482
vt 0.659424 0.094482
vt 0.732178 0.089136
vt 0.803467 0.089136
vt 0.803467 0.094482
vt 0.732178 0.094482
vt 0.804932 0.089136
vt 0.876221 0.089136
vt 0.876221 0.094482
vt 0.804932 0.094482
vt 0.076819 0.041464
vt 0.148108 0.041464
vt 0.148999 0.042725
vt 0.075928 0.042725
vt 0.823889 0.035605
vt 0.895178 0.035605
vt 0.896069 0.036865
vt 0.822998 0.036865
vt 0.151526 0.041464
vt 0.222815 0.041464
vt 0.223706 0.042725
vt 0.150635 0.042725
vt 0.898596 0.035605
vt 0.969885 0.035605
vt 0.970776 0.036865
vt 0.897705 0.036865
vt 0.469751 0.891895
vt 0.480444 0.902588
vt 0.385986 0.902588
vt 0.39668 0.891895
vt 0.469751 0.891895
vt 0.385986 0.902588
vt 0.39668 0.891895
vt 0.385986 0.902588
vt 0.385986 0.80813
vt 0.39668 0.818823
vt 0.39668 0.891895
vt 0.385986 0.80813
vt 0.39668 0.818823
vt 0.385986 0.80813
vt 0.480444 0.80813
vt 0.469751 0.818823
vt 0.39668 0.818823
vt 0.480444 0.80813
vt 0.469751 0.891895
vt 0.469751 0.818823
vt 0.480444 0.80813
vt 0.480444 0.80813
vt 0.480444 0.902588
vt 0.469751 0.891895
vt 0.482178 0.80813
vt 0.576636 0.80813
vt 0.565942 0.818823
vt 0.482178 0.80813
vt 0.565942 0.818823
vt 0.492871 0.818823
vt 0.482178 0.902588
vt 0.482178 0.80813
vt 0.492871 0.818823
vt 0.482178 0.902588
vt 0.492871 0.818823
vt 0.492871 0.891895
vt 0.576636 0.902588
vt 0.482178 0.902588
vt 0.492871 0.891895
vt 0.576636 0.902588
vt 0.492871 0.891895
vt 0.565942 0.891895
vt 0.576636 0.902588
vt 0.565942 0.891895
vt 0.565942 0.818823
vt 0.565942 0.818823
vt 0.576636 0.80813
vt 0.576636 0.902588
vn 0 -0.707107 -0.707107
vn 0.707107 0 -0.707107
vn 0 0.707107 -0.707107
vn -0.707107 0 -0.707107
vn 0 -1 0
vn 1 0 0
vn 0 1 0
vn -1 0 0
vn 0 -0.707107 0.707107
vn 0.707107 0 0.707107
vn 0 0.707107 0.707107
vn -0.707107 0 0.707107
vn 0 0 -1
vn 0 0 1
f 25/61/15 26/62/15 30/63/15 29/64/15
f 26/65/16 27/66/16 31/67/16 30/68/16
f 27/69/17 28/70/17 32/71/17 31/72/17
f 28/73/18 25/74/18 29/75/18 32/76/18
f 29/77/19 30/78/19 34/79/19 33/80/19
f 30/81/20 31/82/20 35/83/20 34/84/20
f 31/85/21 32/86/21 36/87/21 35/88/21
f 32/89/22 29/90/22 33/91/22 36/92/22
f 33/93/23 34/94/23 38/95/23 37/96/23
f 34/97/24 35/98/24 39/99/24 38/100/24
f 35/101/25 36/102/25 40/103/25 39/104/25
f 36/105/26 33/106/26 37/107/26 40/108/26
f 41/109/15 42/110/15 46/111/15 45/112/15
f 42/113/18 43/114/18 47/115/18 46/116/18
f 43/117/17 44/118/17 48/119/17 47/120/17
f 44/121/16 41/122/16 45/123/16 48/124/16
f 45/125/19 46/126/19 50/127/19 49/128/19
f 46/129/22 47/130/22 51/131/22 50/132/22
f 47/133/21 48/134/21 52/135/21 51/136/21
f 48/137/20 45/138/20 49/139/20 52/140/20
f 49/141/23 50/142/23 54/143/23 53/144/23
f 50/145/26 51/146/26 55/147/26 54/148/26
f 51/149/25 52/150/25 56/151/25 55/152/25
f 52/153/24 49/154/24 53/155/24 56/156/24
f 62/157/27 59/158/27 58/159/27
f 63/160/27 62/161/27 58/162/27
f 63/163/27 58/164/27 57/165/27
f 64/166/27 63/167/27 57/168/27
f 64/169/27 57/170/27 60/171/27
f 61/172/27 64/173/27 60/174/27
f 62/175/27 61/176/27 60/177/27
f 60/178/27 59/179/27 62/180/27
f 66/181/28 67/182/28 70/183/28
f 66/184/28 70/185/28 71/186/28
f 65/187/28 66/188/28 71/189/28
f 65/190/28 71/191/28 72/192/28
f 68/193/28 65/194/28 72/195/28
f 68/196/28 72/197/28 69/198/28
f 68/199/28 69/200/28 70/201/28
f 70/202/28 67/203/28 68/204/28
o end_port_flange_lining
usemtl heat_resistant_fluid_pipe
v 0.25125 0.25125 0.425
v 0.74875 0.25125 0.425
v 0.74875 0.74875 0.425
v 0.25125 0.74875 0.425
v 0.25125 0.25125 0.475
v 0.74875 0.25125 0.475
v 0.74875 0.74875 0.475
v 0.25125 0.74875 0.475
v 0.28125 0.71875 0.425
v 0.71875 0.71875 0.425
v 0.71875 0.28125 0.425
v 0.28125 0.28125 0.425
v 0.28125 0.71875 0.475
v 0.71875 0.71875 0.475
v 0.71875 0.28125 0.475
v 0.28125 0.28125 0.475
v 0.25125 0.25125 0.425
v 0.74875 0.25125 0.425
v 0.74875 0.74875 0.425
v 0.25125 0.74875 0.425
v 0.28125 0.71875 0.425
v 0.71875 0.71875 0.425
v 0.71875 0.28125 0.425
v 0.28125 0.28125 0.425
v 0.25125 0.25125 0.475
v 0.74875 0.25125 0.475
v 0.74875 0.74875 0.475
v 0.25125 0.74875 0.475
v 0.28125 0.71875 0.475
v 0.71875 0.71875 0.475
v 0.71875 0.28125 0.475
v 0.28125 0.28125 0.475
vt 0.292236 0.187939
vt 0.363169 0.187939
vt 0.363169 0.195068
vt 0.292236 0.195068
vt 0.36499 0.187939
vt 0.435923 0.187939
vt 0.435923 0.195068
vt 0.36499 0.195068
vt 0.437744 0.187939
vt 0.508677 0.187939
vt 0.508677 0.195068
vt 0.437744 0.195068
vt 0.510498 0.187939
vt 0.581431 0.187939
vt 0.581431 0.195068
vt 0.510498 0.195068
vt 0.839111 0.187939
vt 0.901489 0.187939
vt 0.901489 0.195068
vt 0.839111 0.195068
vt 0.903076 0.187939
vt 0.965454 0.187939
vt 0.965454 0.195068
vt 0.903076 0.195068
vt 0.001221 0.17915
vt 0.063599 0.17915
vt 0.063599 0.186279
vt 0.001221 0.186279
vt 0.065186 0.17915
vt 0.127563 0.17915
vt 0.127563 0.186279
vt 0.065186 0.186279
vt 0.877446 0.705928
vt 0.881724 0.710205
vt 0.810791 0.710205
vt 0.815068 0.705928
vt 0.877446 0.705928
vt 0.810791 0.710205
vt 0.815068 0.705928
vt 0.810791 0.710205
vt 0.810791 0.639272
vt 0.815068 0.64355
vt 0.815068 0.705928
vt 0.810791 0.639272
vt 0.815068 0.64355
vt 0.810791 0.639272
vt 0.881724 0.639272
vt 0.877446 0.64355
vt 0.815068 0.64355
vt 0.881724 0.639272
vt 0.877446 0.705928
vt 0.877446 0.64355
vt 0.881724 0.639272
vt 0.881724 0.639272
vt 0.881724 0.710205
vt 0.877446 0.705928
vt 0.883545 0.639272
vt 0.954478 0.639272
vt 0.9502 0.64355
vt 0.883545 0.639272
vt 0.9502 0.64355
vt 0.887822 0.64355
vt 0.883545 0.710205
vt 0.883545 0.639272
vt 0.887822 0.64355
vt 0.883545 0.710205
vt 0.887822 0.64355
vt 0.887822 0.705928
vt 0.954478 0.710205
vt 0.883545 0.710205
vt 0.887822 0.705928
vt 0.954478 0.710205
vt 0.887822 0.705928
vt 0.9502 0.705928
vt 0.954478 0.710205
vt 0.9502 0.705928
vt 0.9502 0.64355
vt 0.9502 0.64355
vt 0.954478 0.639272
vt 0.954478 0.710205
vn 0 -1 0
vn 1 0 0
vn 0 1 0
vn -1 0 0
vn 0 0 -1
vn 0 0 1
f 73/205/29 74/206/29 78/207/29 77/208/29
f 74/209/30 75/210/30 79/211/30 78/212/30
f 75/213/31 76/214/31 80/215/31 79/216/31
f 76/217/32 73/218/32 77/219/32 80/220/32
f 81/221/29 82/222/29 86/223/29 85/224/29
f 82/225/32 83/226/32 87/227/32 86/228/32
f 83/229/31 84/230/31 88/231/31 87/232/31
f 84/233/30 81/234/30 85/235/30 88/236/30
f 94/237/33 91/238/33 90/239/33
f 95/240/33 94/241/33 90/242/33
f 95/243/33 90/244/33 89/245/33
f 96/246/33 95/247/33 89/248/33
f 96/249/33 89/250/33 92/251/33
f 93/252/33 96/253/33 92/254/33
f 94/255/33 93/256/33 92/257/33
f 92/258/33 91/259/33 94/260/33
f 98/261/34 99/262/34 102/263/34
f 98/264/34 102/265/34 103/266/34
f 97/267/34 98/268/34 103/269/34
f 97/270/34 103/271/34 104/272/34
f 100/273/34 97/274/34 104/275/34
f 100/276/34 104/277/34 101/278/34
f 100/279/34 101/280/34 102/281/34
f 102/282/34 99/283/34 100/284/34
o end_port_flange_nuts
usemtl heat_resistant_fluid_pipe
v 0.232108 0.2225 0.353125
v 0.209375 0.235625 0.353125
v 0.186642 0.2225 0.353125
v 0.186642 0.19625 0.353125
v 0.209375 0.183125 0.353125
v 0.232108 0.19625 0.353125
v 0.232108 0.2225 0.375
v 0.209375 0.235625 0.375
v 0.186642 0.2225 0.375
v 0.186642 0.19625 0.375
v 0.209375 0.183125 0.375
v 0.232108 0.19625 0.375
v 0.232108 0.2225 0.353125
v 0.209375 0.235625 0.353125
v 0.186642 0.2225 0.353125
v 0.186642 0.19625 0.353125
v 0.209375 0.183125 0.353125
v 0.232108 0.19625 0.353125
v 0.232108 0.2225 0.375
v 0.209375 0.235625 0.375
v 0.186642 0.2225 0.375
v 0.186642 0.19625 0.375
v 0.209375 0.183125 0.375
v 0.232108 0.19625 0.375
v 0.232108 0.80375 0.353125
v 0.209375 0.816875 0.353125
v 0.186642 0.80375 0.353125
v 0.186642 0.7775 0.353125
v 0.209375 0.764375 0.353125
v 0.232108 0.7775 0.353125
v 0.232108 0.80375 0.375
v 0.209375 0.816875 0.375
v 0.186642 0.80375 0.375
v 0.186642 0.7775 0.375
v 0.209375 0.764375 0.375
v 0.232108 0.7775 0.375
v 0.232108 0.80375 0.353125
v 0.209375 0.816875 0.353125
v 0.186642 0.80375 0.353125
v 0.186642 0.7775 0.353125
v 0.209375 0.764375 0.353125
v 0.232108 0.7775 0.353125
v 0.232108 0.80375 0.375
v 0.209375 0.816875 0.375
v 0.186642 0.80375 0.375
v 0.186642 0.7775 0.375
v 0.209375 0.764375 0.375
v 0.232108 0.7775 0.375
v 0.813358 0.2225 0.353125
v 0.790625 0.235625 0.353125
v 0.767892 0.2225 0.353125
v 0.767892 0.19625 0.353125
v 0.790625 0.183125 0.353125
v 0.813358 0.19625 0.353125
v 0.813358 0.2225 0.375
v 0.790625 0.235625 0.375
v 0.767892 0.2225 0.375
v 0.767892 0.19625 0.375
v 0.790625 0.183125 0.375
v 0.813358 0.19625 0.375
v 0.813358 0.2225 0.353125
v 0.790625 0.235625 0.353125
v 0.767892 0.2225 0.353125
v 0.767892 0.19625 0.353125
v 0.790625 0.183125 0.353125
v 0.813358 0.19625 0.353125
v 0.813358 0.2225 0.375
v 0.790625 0.235625 0.375
v 0.767892 0.2225 0.375
v 0.767892 0.19625 0.375
v 0.790625 0.183125 0.375
v 0.813358 0.19625 0.375
v 0.813358 0.80375 0.353125
v 0.790625 0.816875 0.353125
v 0.767892 0.80375 0.353125
v 0.767892 0.7775 0.353125
v 0.790625 0.764375 0.353125
v 0.813358 0.7775 0.353125
v 0.813358 0.80375 0.375
v 0.790625 0.816875 0.375
v 0.767892 0.80375 0.375
v 0.767892 0.7775 0.375
v 0.790625 0.764375 0.375
v 0.813358 0.7775 0.375
v 0.813358 0.80375 0.353125
v 0.790625 0.816875 0.353125
v 0.767892 0.80375 0.353125
v 0.767892 0.7775 0.353125
v 0.790625 0.764375 0.353125
v 0.813358 0.7775 0.353125
v 0.813358 0.80375 0.375
v 0.790625 0.816875 0.375
v 0.767892 0.80375 0.375
v 0.767892 0.7775 0.375
v 0.790625 0.764375 0.375
v 0.813358 0.7775 0.375
vt 0.092529 0.072809
vt 0.096272 0.072809
vt 0.096272 0.075928
vt 0.092529 0.075928
vt 0.982666 0.07818
vt 0.986409 0.07818
vt 0.986409 0.081299
vt 0.982666 0.081299
vt 0.0979 0.072809
vt 0.101643 0.072809
vt 0.101643 0.075928
vt 0.0979 0.075928
vt 0.988037 0.07818
vt 0.99178 0.07818
vt 0.99178 0.081299
vt 0.988037 0.081299
vt 0.178467 0.072809
vt 0.182209 0.072809
vt 0.182209 0.075928
vt 0.178467 0.075928
vt 0.103271 0.072809
vt 0.107014 0.072809
vt 0.107014 0.075928
vt 0.103271 0.075928
vt 0.544839 0.147882
vt 0.542968 0.151123
vt 0.539225 0.151123
vt 0.542968 0.144641
vt 0.544839 0.147882
vt 0.539225 0.151123
vt 0.539225 0.144641
vt 0.542968 0.144641
vt 0.539225 0.151123
vt 0.539225 0.151123
vt 0.537354 0.147882
vt 0.539225 0.144641
vt 0.548502 0.144641
vt 0.552245 0.144641
vt 0.554116 0.147882
vt 0.548502 0.144641
vt 0.554116 0.147882
vt 0.552245 0.151123
vt 0.548502 0.144641
vt 0.552245 0.151123
vt 0.548502 0.151123
vt 0.548502 0.151123
vt 0.546631 0.147882
vt 0.548502 0.144641
vt 0.183838 0.072809
vt 0.187581 0.072809
vt 0.187581 0.075928
vt 0.183838 0.075928
vt 0.993408 0.07818
vt 0.997151 0.07818
vt 0.997151 0.081299
vt 0.993408 0.081299
vt 0.108643 0.072809
vt 0.112385 0.072809
vt 0.112385 0.075928
vt 0.108643 0.075928
vt 0.001221 0.072809
vt 0.004963 0.072809
vt 0.004963 0.075928
vt 0.001221 0.075928
vt 0.114014 0.072809
vt 0.117756 0.072809
vt 0.117756 0.075928
vt 0.114014 0.075928
vt 0.119385 0.072809
vt 0.123127 0.072809
vt 0.123127 0.075928
vt 0.119385 0.075928
vt 0.563394 0.147882
vt 0.561522 0.151123
vt 0.55778 0.151123
vt 0.561522 0.144641
vt 0.563394 0.147882
vt 0.55778 0.151123
vt 0.55778 0.144641
vt 0.561522 0.144641
vt 0.55778 0.151123
vt 0.55778 0.151123
vt 0.555908 0.147882
vt 0.55778 0.144641
vt 0.567057 0.144641
vt 0.5708 0.144641
vt 0.572671 0.147882
vt 0.567057 0.144641
vt 0.572671 0.147882
vt 0.5708 0.151123
vt 0.567057 0.144641
vt 0.5708 0.151123
vt 0.567057 0.151123
vt 0.567057 0.151123
vt 0.565186 0.147882
vt 0.567057 0.144641
vt 0.006592 0.072809
vt 0.010334 0.072809
vt 0.010334 0.075928
vt 0.006592 0.075928
vt 0.124756 0.072809
vt 0.128499 0.072809
vt 0.128499 0.075928
vt 0.124756 0.075928
vt 0.130127 0.072809
vt 0.13387 0.072809
vt 0.13387 0.075928
vt 0.130127 0.075928
vt 0.189209 0.072809
vt 0.192952 0.072809
vt 0.192952 0.075928
vt 0.189209 0.075928
vt 0.011963 0.072809
vt 0.015706 0.072809
vt 0.015706 0.075928
vt 0.011963 0.075928
vt 0.135498 0.072809
vt 0.139241 0.072809
vt 0.139241 0.075928
vt 0.135498 0.075928
vt 0.581948 0.147882
vt 0.580077 0.151123
vt 0.576334 0.151123
vt 0.580077 0.144641
vt 0.581948 0.147882
vt 0.576334 0.151123
vt 0.576334 0.144641
vt 0.580077 0.144641
vt 0.576334 0.151123
vt 0.576334 0.151123
vt 0.574463 0.147882
vt 0.576334 0.144641
vt 0.585612 0.144641
vt 0.589354 0.144641
vt 0.591226 0.147882
vt 0.585612 0.144641
vt 0.591226 0.147882
vt 0.589354 0.151123
vt 0.585612 0.144641
vt 0.589354 0.151123
vt 0.585612 0.151123
vt 0.585612 0.151123
vt 0.58374 0.147882
vt 0.585612 0.144641
vt 0.017334 0.072809
vt 0.021077 0.072809
vt 0.021077 0.075928
vt 0.017334 0.075928
vt 0.19458 0.072809
vt 0.198323 0.072809
vt 0.198323 0.075928
vt 0.19458 0.075928
vt 0.140869 0.072809
vt 0.144612 0.072809
vt 0.144612 0.075928
vt 0.140869 0.075928
vt 0.14624 0.072809
vt 0.149983 0.072809
vt 0.149983 0.075928
vt 0.14624 0.075928
vt 0.022705 0.072809
vt 0.026448 0.072809
vt 0.026448 0.075928
vt 0.022705 0.075928
vt 0.151611 0.072809
vt 0.155354 0.072809
vt 0.155354 0.075928
vt 0.151611 0.075928
vt 0.600503 0.147882
vt 0.598632 0.151123
vt 0.594889 0.151123
vt 0.598632 0.144641
vt 0.600503 0.147882
vt 0.594889 0.151123
vt 0.594889 0.144641
vt 0.598632 0.144641
vt 0.594889 0.151123
vt 0.594889 0.151123
vt 0.593018 0.147882
vt 0.594889 0.144641
vt 0.604166 0.144641
vt 0.607909 0.144641
vt 0.60978 0.147882
vt 0.604166 0.144641
vt 0.60978 0.147882
vt 0.607909 0.151123
vt 0.604166 0.144641
vt 0.607909 0.151123
vt 0.604166 0.151123
vt 0.604166 0.151123
vt 0.602295 0.147882
vt 0.604166 0.144641
vn 0.5 0.866025 0
vn -0.5 0.866025 0
vn -1 0 0
vn -0.5 -0.866025 0
vn 0.5 -0.866025 0
vn 1 0 0
vn 0 0 -1
vn 0 0 1
f 105/285/35 106/286/35 112/287/35 111/288/35
f 106/289/36 107/290/36 113/291/36 112/292/36
f 107/293/37 108/294/37 114/295/37 113/296/37
f 108/297/38 109/298/38 115/299/38 114/300/38
f 109/301/39 110/302/39 116/303/39 115/304/39
f 110/305/40 105/306/40 111/307/40 116/308/40
f 118/309/41 117/310/41 122/311/41
f 119/312/41 118/313/41 122/314/41
f 120/315/41 119/316/41 122/317/41
f 122/318/41 121/319/41 120/320/41
f 128/321/42 123/322/42 124/323/42
f 128/324/42 124/325/42 125/326/42
f 128/327/42 125/328/42 126/329/42
f 126/330/42 127/331/42 128/332/42
f 129/333/35 130/334/35 136/335/35 135/336/35
f 130/337/36 131/338/36 137/339/36 136/340/36
f 131/341/37 132/342/37 138/343/37 137/344/37
f 132/345/38 133/346/38 139/347/38 138/348/38
f 133/349/39 134/350/39 140/351/39 139/352/39
f 134/353/40 129/354/40 135/355/40 140/356/40
f 142/357/41 141/358/41 146/359/41
f 143/360/41 142/361/41 146/362/41
f 144/363/41 143/364/41 146/365/41
f 146/366/41 145/367/41 144/368/41
f 152/369/42 147/370/42 148/371/42
f 152/372/42 148/373/42 149/374/42
f 152/375/42 149/376/42 150/377/42
f 150/378/42 151/379/42 152/380/42
f 153/381/35 154/382/35 160/383/35 159/384/35
f 154/385/36 155/386/36 161/387/36 160/388/36
f 155/389/37 156/390/37 162/391/37 161/392/37
f 156/393/38 157/394/38 163/395/38 162/396/38
f 157/397/39 158/398/39 164/399/39 163/400/39
f 158/401/40 153/402/40 159/403/40 164/404/40
f 166/405/41 165/406/41 170/407/41
f 167/408/41 166/409/41 170/410/41
f 168/411/41 167/412/41 170/413/41
f 170/414/41 169/415/41 168/416/41
f 176/417/42 171/418/42 172/419/42
f 176/420/42 172/421/42 173/422/42
f 176/423/42 173/424/42 174/425/42
f 174/426/42 175/427/42 176/428/42
f 177/429/35 178/430/35 184/431/35 183/432/35
f 178/433/36 179/434/36 185/435/36 184/436/36
f 179/437/37 180/438/37 186/439/37 185/440/37
f 180/441/38 181/442/38 187/443/38 186/444/38
f 181/445/39 182/446/39 188/447/39 187/448/39
f 182/449/40 177/450/40 183/451/40 188/452/40
f 190/453/41 189/454/41 194/455/41
f 191/456/41 190/457/41 194/458/41
f 192/459/41 191/460/41 194/461/41
f 194/462/41 193/463/41 192/464/41
f 200/465/42 195/466/42 196/467/42
f 200/468/42 196/469/42 197/470/42
f 200/471/42 197/472/42 198/473/42
f 198/474/42 199/475/42 200/476/42
o end_port_rails
usemtl heat_resistant_fluid_pipe
v 0.33125 0.33125 0.475
v 0.25 0.33125 0.475
v 0.25 0.26875 0.475
v 0.26875 0.25 0.475
v 0.33125 0.25 0.475
v 0.33125 0.33125 0.95
v 0.25 0.33125 0.95
v 0.25 0.26875 0.95
v 0.26875 0.25 0.95
v 0.33125 0.25 0.95
v 0.33125 0.33125 0.475
v 0.25 0.33125 0.475
v 0.25 0.26875 0.475
v 0.26875 0.25 0.475
v 0.33125 0.25 0.475
v 0.33125 0.33125 0.95
v 0.25 0.33125 0.95
v 0.25 0.26875 0.95
v 0.26875 0.25 0.95
v 0.33125 0.25 0.95
v 0.33125 0.75 0.475
v 0.26875 0.75 0.475
v 0.25 0.73125 0.475
v 0.25 0.66875 0.475
v 0.33125 0.66875 0.475
v 0.33125 0.75 0.95
v 0.26875 0.75 0.95
v 0.25 0.73125 0.95
v 0.25 0.66875 0.95
v 0.33125 0.66875 0.95
v 0.33125 0.75 0.475
v 0.26875 0.75 0.475
v 0.25 0.73125 0.475
v 0.25 0.66875 0.475
v 0.33125 0.66875 0.475
v 0.33125 0.75 0.95
v 0.26875 0.75 0.95
v 0.25 0.73125 0.95
v 0.25 0.66875 0.95
v 0.33125 0.66875 0.95
v 0.66875 0.25 0.475
v 0.73125 0.25 0.475
v 0.75 0.26875 0.475
v 0.75 0.33125 0.475
v 0.66875 0.33125 0.475
v 0.66875 0.25 0.95
v 0.73125 0.25 0.95
v 0.75 0.26875 0.95
v 0.75 0.33125 0.95
v 0.66875 0.33125 0.95
v 0.66875 0.25 0.475
v 0.73125 0.25 0.475
v 0.75 0.26875 0.475
v 0.75 0.33125 0.475
v 0.66875 0.33125 0.475
v 0.66875 0.25 0.95
v 0.73125 0.25 0.95
v 0.75 0.26875 0.95
v 0.75 0.33125 0.95
v 0.66875 0.33125 0.95
v 0.66875 0.66875 0.475
v 0.75 0.66875 0.475
v 0.75 0.73125 0.475
v 0.73125 0.75 0.475
v 0.66875 0.75 0.475
v 0.66875 0.66875 0.95
v 0.75 0.66875 0.95
v 0.75 0.73125 0.95
v 0.73125 0.75 0.95
v 0.66875 0.75 0.95
v 0.66875 0.66875 0.475
v 0.75 0.66875 0.475
v 0.75 0.73125 0.475
v 0.73125 0.75 0.475
v 0.66875 0.75 0.475
v 0.66875 0.66875 0.95
v 0.75 0.66875 0.95
v 0.75 0.73125 0.95
v 0.73125 0.75 0.95
v 0.66875 0.75 0.95
vt 0.583252 0.328369
vt 0.583252 0.316785
vt 0.650977 0.316785
vt 0.650977 0.328369
vt 0.437744 0.216553
vt 0.437744 0.207642
vt 0.505469 0.207642
vt 0.505469 0.216553
vt 0.146729 0.081299
vt 0.146729 0.077518
vt 0.214453 0.077518
vt 0.214453 0.081299
vt 0.50708 0.216553
vt 0.50708 0.207642
vt 0.574805 0.207642
vt 0.574805 0.216553
vt 0.652588 0.328369
vt 0.652588 0.316785
vt 0.720313 0.316785
vt 0.720313 0.328369
vt 0.557727 0.290417
vt 0.557727 0.302002
vt 0.546143 0.302002
vt 0.548816 0.290417
vt 0.557727 0.290417
vt 0.546143 0.302002
vt 0.546143 0.302002
vt 0.546143 0.293091
vt 0.548816 0.290417
vt 0.559326 0.290417
vt 0.570911 0.290417
vt 0.570911 0.302002
vt 0.559326 0.290417
vt 0.570911 0.302002
vt 0.562 0.302002
vt 0.562 0.302002
vt 0.559326 0.299329
vt 0.559326 0.290417
vt 0.576416 0.216553
vt 0.576416 0.207642
vt 0.644141 0.207642
vt 0.644141 0.216553
vt 0.216064 0.081299
vt 0.216064 0.077518
vt 0.283789 0.077518
vt 0.283789 0.081299
vt 0.645752 0.216553
vt 0.645752 0.207642
vt 0.713477 0.207642
vt 0.713477 0.216553
vt 0.721924 0.328369
vt 0.721924 0.316785
vt 0.789648 0.316785
vt 0.789648 0.328369
vt 0.79126 0.328369
vt 0.79126 0.316785
vt 0.858984 0.316785
vt 0.858984 0.328369
vt 0.584094 0.293091
vt 0.584094 0.302002
vt 0.57251 0.302002
vt 0.581421 0.290417
vt 0.584094 0.293091
vt 0.57251 0.302002
vt 0.57251 0.302002
vt 0.57251 0.290417
vt 0.581421 0.290417
vt 0.585693 0.290417
vt 0.597278 0.290417
vt 0.597278 0.299329
vt 0.585693 0.290417
vt 0.597278 0.299329
vt 0.594604 0.302002
vt 0.594604 0.302002
vt 0.585693 0.302002
vt 0.585693 0.290417
vt 0.715088 0.216553
vt 0.715088 0.207642
vt 0.782813 0.207642
vt 0.782813 0.216553
vt 0.2854 0.081299
vt 0.2854 0.077518
vt 0.353125 0.077518
vt 0.353125 0.081299
vt 0.784424 0.216553
vt 0.784424 0.207642
vt 0.852148 0.207642
vt 0.852148 0.216553
vt 0.860596 0.328369
vt 0.860596 0.316785
vt 0.92832 0.316785
vt 0.92832 0.328369
vt 0.929932 0.328369
vt 0.929932 0.316785
vt 0.997656 0.316785
vt 0.997656 0.328369
vt 0.598877 0.299329
vt 0.598877 0.290417
vt 0.610461 0.290417
vt 0.60155 0.302002
vt 0.598877 0.299329
vt 0.610461 0.290417
vt 0.610461 0.290417
vt 0.610461 0.302002
vt 0.60155 0.302002
vt 0.623645 0.302002
vt 0.612061 0.302002
vt 0.612061 0.293091
vt 0.623645 0.302002
vt 0.612061 0.293091
vt 0.614734 0.290417
vt 0.614734 0.290417
vt 0.623645 0.290417
vt 0.623645 0.302002
vt 0.001221 0.315186
vt 0.001221 0.303601
vt 0.068945 0.303601
vt 0.068945 0.315186
vt 0.85376 0.216553
vt 0.85376 0.207642
vt 0.921484 0.207642
vt 0.921484 0.216553
vt 0.354736 0.081299
vt 0.354736 0.077518
vt 0.422461 0.077518
vt 0.422461 0.081299
vt 0.923096 0.216553
vt 0.923096 0.207642
vt 0.99082 0.207642
vt 0.99082 0.216553
vt 0.070557 0.315186
vt 0.070557 0.303601
vt 0.138281 0.303601
vt 0.138281 0.315186
vt 0.625244 0.302002
vt 0.625244 0.290417
vt 0.636829 0.290417
vt 0.634155 0.302002
vt 0.625244 0.302002
vt 0.636829 0.290417
vt 0.636829 0.290417
vt 0.636829 0.299329
vt 0.634155 0.302002
vt 0.650012 0.302002
vt 0.638428 0.302002
vt 0.638428 0.290417
vt 0.650012 0.302002
vt 0.638428 0.290417
vt 0.647339 0.290417
vt 0.647339 0.290417
vt 0.650012 0.293091
vt 0.650012 0.302002
vn 0 1 0
vn -1 0 0
vn -0.707107 -0.707107 0
vn 0 -1 0
vn 1 0 0
vn 0 0 -1
vn 0 0 1
vn -0.707107 0.707107 0
vn 0.707107 -0.707107 0
vn 0.707107 0.707107 0
f 201/477/43 202/478/43 207/479/43 206/480/43
f 202/481/44 203/482/44 208/483/44 207/484/44
f 203/485/45 204/486/45 209/487/45 208/488/45
f 204/489/46 205/490/46 210/491/46 209/492/46
f 205/493/47 201/494/47 206/495/47 210/496/47
f 212/497/48 211/498/48 215/499/48
f 213/500/48 212/501/48 215/502/48
f 215/503/48 214/504/48 213/505/48
f 220/506/49 216/507/49 217/508/49
f 220/509/49 217/510/49 218/511/49
f 218/512/49 219/513/49 220/514/49
f 221/515/43 222/516/43 227/517/43 226/518/43
f 222/519/50 223/520/50 228/521/50 227/522/50
f 223/523/44 224/524/44 229/525/44 228/526/44
f 224/527/46 225/528/46 230/529/46 229/530/46
f 225/531/47 221/532/47 226/533/47 230/534/47
f 232/535/48 231/536/48 235/537/48
f 233/538/48 232/539/48 235/540/48
f 235/541/48 234/542/48 233/543/48
f 240/544/49 236/545/49 237/546/49
f 240/547/49 237/548/49 238/549/49
f 238/550/49 239/551/49 240/552/49
f 241/553/46 242/554/46 247/555/46 246/556/46
f 242/557/51 243/558/51 248/559/51 247/560/51
f 243/561/47 244/562/47 249/563/47 248/564/47
f 244/565/43 245/566/43 250/567/43 249/568/43
f 245/569/44 241/570/44 246/571/44 250/572/44
f 252/573/48 251/574/48 255/575/48
f 253/576/48 252/577/48 255/578/48
f 255/579/48 254/580/48 253/581/48
f 260/582/49 256/583/49 257/584/49
f 260/585/49 257/586/49 258/587/49
f 258/588/49 259/589/49 260/590/49
f 261/591/46 262/592/46 267/593/46 266/594/46
f 262/595/47 263/596/47 268/597/47 267/598/47
f 263/599/52 264/600/52 269/601/52 268/602/52
f 264/603/43 265/604/43 270/605/43 269/606/43
f 265/607/44 261/608/44 266/609/44 270/610/44
f 272/611/48 271/612/48 275/613/48
f 273/614/48 272/615/48 275/616/48
f 275/617/48 274/618/48 273/619/48
f 280/620/49 276/621/49 277/622/49
f 280/623/49 277/624/49 278/625/49
f 278/626/49 279/627/49 280/628/49
o end_port_port
usemtl heat_resistant_fluid_pipe
v 0.16875 0.16875 0.95
v 0.83125 0.16875 0.95
v 0.83125 0.83125 0.95
v 0.16875 0.83125 0.95
v 0.1625 0.1625 0.95625
v 0.8375 0.1625 0.95625
v 0.8375 0.8375 0.95625
v 0.1625 0.8375 0.95625
v 0.1625 0.1625 0.99375
v 0.8375 0.1625 0.99375
v 0.8375 0.8375 0.99375
v 0.1625 0.8375 0.99375
v 0.16875 0.16875 1
v 0.83125 0.16875 1
v 0.83125 0.83125 1
v 0.16875 0.83125 1
v 0.24375 0.75625 0.95
v 0.75625 0.75625 0.95
v 0.75625 0.24375 0.95
v 0.24375 0.24375 0.95
v 0.25 0.75 0.95625
v 0.75 0.75 0.95625
v 0.75 0.25 0.95625
v 0.25 0.25 0.95625
v 0.25 0.75 0.99375
v 0.75 0.75 0.99375
v 0.75 0.25 0.99375
v 0.25 0.25 0.99375
v 0.24375 0.75625 1
v 0.75625 0.75625 1
v 0.75625 0.24375 1
v 0.24375 0.24375 1
v 0.16875 0.16875 0.95
v 0.83125 0.16875 0.95
v 0.83125 0.83125 0.95
v 0.16875 0.83125 0.95
v 0.24375 0.75625 0.95
v 0.75625 0.75625 0.95
v 0.75625 0.24375 0.95
v 0.24375 0.24375 0.95
v 0.16875 0.16875 1
v 0.83125 0.16875 1
v 0.83125 0.83125 1
v 0.16875 0.83125 1
v 0.24375 0.75625 1
v 0.75625 0.75625 1
v 0.75625 0.24375 1
v 0.24375 0.24375 1
vt 0.296545 0.015097
vt 0.391003 0.015097
vt 0.391895 0.016357
vt 0.295654 0.016357
vt 0.689124 0.056113
vt 0.783582 0.056113
vt 0.784473 0.057373
vt 0.688232 0.057373
vt 0.39469 0.015097
vt 0.489148 0.015097
vt 0.490039 0.016357
vt 0.393799 0.016357
vt 0.787268 0.056113
vt 0.881726 0.056113
vt 0.882617 0.057373
vt 0.786377 0.057373
vt 0.491943 0.130151
vt 0.588184 0.130151
vt 0.588184 0.135498
vt 0.491943 0.135498
vt 0.590088 0.130151
vt 0.686328 0.130151
vt 0.686328 0.135498
vt 0.590088 0.135498
vt 0.688232 0.130151
vt 0.784473 0.130151
vt 0.784473 0.135498
vt 0.688232 0.135498
vt 0.786377 0.130151
vt 0.882617 0.130151
vt 0.882617 0.135498
vt 0.786377 0.135498
vt 0.884521 0.056113
vt 0.980762 0.056113
vt 0.979871 0.057373
vt 0.885413 0.057373
vt 0.001221 0.023886
vt 0.097461 0.023886
vt 0.09657 0.025146
vt 0.002112 0.025146
vt 0.001221 0.053183
vt 0.097461 0.053183
vt 0.09657 0.054443
vt 0.002112 0.054443
vt 0.099365 0.023886
vt 0.195605 0.023886
vt 0.194714 0.025146
vt 0.100256 0.025146
vt 0.001221 0.032675
vt 0.074292 0.032675
vt 0.073401 0.033936
vt 0.002112 0.033936
vt 0.673584 0.029746
vt 0.746655 0.029746
vt 0.745764 0.031006
vt 0.674475 0.031006
vt 0.075928 0.032675
vt 0.148999 0.032675
vt 0.148108 0.033936
vt 0.076819 0.033936
vt 0.748291 0.029746
vt 0.821362 0.029746
vt 0.820471 0.031006
vt 0.749182 0.031006
vt 0.72876 0.109644
vt 0.800049 0.109644
vt 0.800049 0.11499
vt 0.72876 0.11499
vt 0.801514 0.109644
vt 0.872803 0.109644
vt 0.872803 0.11499
vt 0.801514 0.11499
vt 0.874268 0.109644
vt 0.945557 0.109644
vt 0.945557 0.11499
vt 0.874268 0.11499
vt 0.001221 0.102808
vt 0.07251 0.102808
vt 0.07251 0.108154
vt 0.001221 0.108154
vt 0.151526 0.032675
vt 0.222815 0.032675
vt 0.223706 0.033936
vt 0.150635 0.033936
vt 0.226233 0.032675
vt 0.297522 0.032675
vt 0.298413 0.033936
vt 0.225342 0.033936
vt 0.30094 0.032675
vt 0.372229 0.032675
vt 0.37312 0.033936
vt 0.300049 0.033936
vt 0.375647 0.032675
vt 0.446936 0.032675
vt 0.447827 0.033936
vt 0.374756 0.033936
vt 0.662134 0.891895
vt 0.672827 0.902588
vt 0.578369 0.902588
vt 0.589063 0.891895
vt 0.662134 0.891895
vt 0.578369 0.902588
vt 0.589063 0.891895
vt 0.578369 0.902588
vt 0.578369 0.80813
vt 0.589063 0.818823
vt 0.589063 0.891895
vt 0.578369 0.80813
vt 0.589063 0.818823
vt 0.578369 0.80813
vt 0.672827 0.80813
vt 0.662134 0.818823
vt 0.589063 0.818823
vt 0.672827 0.80813
vt 0.662134 0.891895
vt 0.662134 0.818823
vt 0.672827 0.80813
vt 0.672827 0.80813
vt 0.672827 0.902588
vt 0.662134 0.891895
vt 0.674561 0.80813
vt 0.769019 0.80813
vt 0.758325 0.818823
vt 0.674561 0.80813
vt 0.758325 0.818823
vt 0.685254 0.818823
vt 0.674561 0.902588
vt 0.674561 0.80813
vt 0.685254 0.818823
vt 0.674561 0.902588
vt 0.685254 0.818823
vt 0.685254 0.891895
vt 0.769019 0.902588
vt 0.674561 0.902588
vt 0.685254 0.891895
vt 0.769019 0.902588
vt 0.685254 0.891895
vt 0.758325 0.891895
vt 0.769019 0.902588
vt 0.758325 0.891895
vt 0.758325 0.818823
vt 0.758325 0.818823
vt 0.769019 0.80813
vt 0.769019 0.902588
vn 0 -0.707107 -0.707107
vn 0.707107 0 -0.707107
vn 0 0.707107 -0.707107
vn -0.707107 0 -0.707107
vn 0 -1 0
vn 1 0 0
vn 0 1 0
vn -1 0 0
vn 0 -0.707107 0.707107
vn 0.707107 0 0.707107
vn 0 0.707107 0.707107
vn -0.707107 0 0.707107
vn 0 0 -1
vn 0 0 1
f 281/629/53 282/630/53 286/631/53 285/632/53
f 282/633/54 283/634/54 287/635/54 286/636/54
f 283/637/55 284/638/55 288/639/55 287/640/55
f 284/641/56 281/642/56 285/643/56 288/644/56
f 285/645/57 286/646/57 290/647/57 289/648/57
f 286/649/58 287/650/58 291/651/58 290/652/58
f 287/653/59 288/654/59 292/655/59 291/656/59
f 288/657/60 285/658/60 289/659/60 292/660/60
f 289/661/61 290/662/61 294/663/61 293/664/61
f 290/665/62 291/666/62 295/667/62 294/668/62
f 291/669/63 292/670/63 296/671/63 295/672/63
f 292/673/64 289/674/64 293/675/64 296/676/64
f 297/677/53 298/678/53 302/679/53 301/680/53
f 298/681/56 299/682/56 303/683/56 302/684/56
f 299/685/55 300/686/55 304/687/55 303/688/55
f 300/689/54 297/690/54 301/691/54 304/692/54
f 301/693/57 302/694/57 306/695/57 305/696/57
f 302/697/60 303/698/60 307/699/60 306/700/60
f 303/701/59 304/702/59 308/703/59 307/704/59
f 304/705/58 301/706/58 305/707/58 308/708/58
f 305/709/61 306/710/61 310/711/61 309/712/61
f 306/713/64 307/714/64 311/715/64 310/716/64
f 307/717/63 308/718/63 312/719/63 311/720/63
f 308/721/62 305/722/62 309/723/62 312/724/62
f 318/725/65 315/726/65 314/727/65
f 319/728/65 318/729/65 314/730/65
f 319/731/65 314/732/65 313/733/65
f 320/734/65 319/735/65 313/736/65
f 320/737/65 313/738/65 316/739/65
f 317/740/65 320/741/65 316/742/65
f 318/743/65 317/744/65 316/745/65
f 316/746/65 315/747/65 318/748/65
f 322/749/66 323/750/66 326/751/66
f 322/752/66 326/753/66 327/754/66
f 321/755/66 322/756/66 327/757/66
f 321/758/66 327/759/66 328/760/66
f 324/761/66 321/762/66 328/763/66
f 324/764/66 328/765/66 325/766/66
f 324/767/66 325/768/66 326/769/66
f 326/770/66 323/771/66 324/772/66
o end_port_port_lining
usemtl heat_resistant_fluid_pipe
v 0.25125 0.25125 0.95
v 0.74875 0.25125 0.95
v 0.74875 0.74875 0.95
v 0.25125 0.74875 0.95
v 0.25125 0.25125 1
v 0.74875 0.25125 1
v 0.74875 0.74875 1
v 0.25125 0.74875 1
v 0.28125 0.71875 0.95
v 0.71875 0.71875 0.95
v 0.71875 0.28125 0.95
v 0.28125 0.28125 0.95
v 0.28125 0.71875 1
v 0.71875 0.71875 1
v 0.71875 0.28125 1
v 0.28125 0.28125 1
v 0.25125 0.25125 0.95
v 0.74875 0.25125 0.95
v 0.74875 0.74875 0.95
v 0.25125 0.74875 0.95
v 0.28125 0.71875 0.95
v 0.71875 0.71875 0.95
v 0.71875 0.28125 0.95
v 0.28125 0.28125 0.95
v 0.25125 0.25125 1
v 0.74875 0.25125 1
v 0.74875 0.74875 1
v 0.25125 0.74875 1
v 0.28125 0.71875 1
v 0.71875 0.71875 1
v 0.71875 0.28125 1
v 0.28125 0.28125 1
vt 0.36499 0.170361
vt 0.435923 0.170361
vt 0.435923 0.17749
vt 0.36499 0.17749
vt 0.437744 0.170361
vt 0.508677 0.170361
vt 0.508677 0.17749
vt 0.437744 0.17749
vt 0.510498 0.170361
vt 0.581431 0.170361
vt 0.581431 0.17749
vt 0.510498 0.17749
vt 0.583252 0.170361
vt 0.654185 0.170361
vt 0.654185 0.17749
vt 0.583252 0.17749
vt 0.321045 0.152783
vt 0.383423 0.152783
vt 0.383423 0.159912
vt 0.321045 0.159912
vt 0.38501 0.152783
vt 0.447388 0.152783
vt 0.447388 0.159912
vt 0.38501 0.159912
vt 0.448975 0.152783
vt 0.511353 0.152783
vt 0.511353 0.159912
vt 0.448975 0.159912
vt 0.512939 0.152783
vt 0.575317 0.152783
vt 0.575317 0.159912
vt 0.512939 0.159912
vt 0.067876 0.623896
vt 0.072153 0.628174
vt 0.001221 0.628174
vt 0.005498 0.623896
vt 0.067876 0.623896
vt 0.001221 0.628174
vt 0.005498 0.623896
vt 0.001221 0.628174
vt 0.001221 0.557241
vt 0.005498 0.561519
vt 0.005498 0.623896
vt 0.001221 0.557241
vt 0.005498 0.561519
vt 0.001221 0.557241
vt 0.072153 0.557241
vt 0.067876 0.561519
vt 0.005498 0.561519
vt 0.072153 0.557241
vt 0.067876 0.623896
vt 0.067876 0.561519
vt 0.072153 0.557241
vt 0.072153 0.557241
vt 0.072153 0.628174
vt 0.067876 0.623896
vt 0.073975 0.557241
vt 0.144907 0.557241
vt 0.14063 0.561519
vt 0.073975 0.557241
vt 0.14063 0.561519
vt 0.078252 0.561519
vt 0.073975 0.628174
vt 0.073975 0.557241
vt 0.078252 0.561519
vt 0.073975 0.628174
vt 0.078252 0.561519
vt 0.078252 0.623896
vt 0.144907 0.628174
vt 0.073975 0.628174
vt 0.078252 0.623896
vt 0.144907 0.628174
vt 0.078252 0.623896
vt 0.14063 0.623896
vt 0.144907 0.628174
vt 0.14063 0.623896
vt 0.14063 0.561519
vt 0.14063 0.561519
vt 0.144907 0.557241
vt 0.144907 0.628174
vn 0 -1 0
vn 1 0 0
vn 0 1 0
vn -1 0 0
vn 0 0 -1
vn 0 0 1
f 329/773/67 330/774/67 334/775/67 333/776/67
f 330/777/68 331/778/68 335/779/68 334/780/68
f 331/781/69 332/782/69 336/783/69 335/784/69
f 332/785/70 329/786/70 333/787/70 336/788/70
f 337/789/67 338/790/67 342/791/67 341/792/67
f 338/793/70 339/794/70 343/795/70 342/796/70
f 339/797/69 340/798/69 344/799/69 343/800/69
f 340/801/68 337/802/68 341/803/68 344/804/68
f 350/805/71 347/806/71 346/807/71
f 351/808/71 350/809/71 346/810/71
f 351/811/71 346/812/71 345/813/71
f 352/814/71 351/815/71 345/816/71
f 352/817/71 345/818/71 348/819/71
f 349/820/71 352/821/71 348/822/71
f 350/823/71 349/824/71 348/825/71
f 348/826/71 347/827/71 350/828/71
f 354/829/72 355/830/72 358/831/72
f 354/832/72 358/833/72 359/834/72
f 353/835/72 354/836/72 359/837/72
f 353/838/72 359/839/72 360/840/72
f 356/841/72 353/842/72 360/843/72
f 356/844/72 360/845/72 357/846/72
f 356/847/72 357/848/72 358/849/72
f 358/850/72 355/851/72 356/852/72
o end_port_port_nuts
usemtl heat_resistant_fluid_pipe
v 0.232108 0.2225 0.928125
v 0.209375 0.235625 0.928125
v 0.186642 0.2225 0.928125
v 0.186642 0.19625 0.928125
v 0.209375 0.183125 0.928125
v 0.232108 0.19625 0.928125
v 0.232108 0.2225 0.95
v 0.209375 0.235625 0.95
v 0.186642 0.2225 0.95
v 0.186642 0.19625 0.95
v 0.209375 0.183125 0.95
v 0.232108 0.19625 0.95
v 0.232108 0.2225 0.928125
v 0.209375 0.235625 0.928125
v 0.186642 0.2225 0.928125
v 0.186642 0.19625 0.928125
v 0.209375 0.183125 0.928125
v 0.232108 0.19625 0.928125
v 0.232108 0.2225 0.95
v 0.209375 0.235625 0.95
v 0.186642 0.2225 0.95
v 0.186642 0.19625 0.95
v 0.209375 0.183125 0.95
v 0.232108 0.19625 0.95
v 0.232108 0.80375 0.928125
v 0.209375 0.816875 0.928125
v 0.186642 0.80375 0.928125
v 0.186642 0.7775 0.928125
v 0.209375 0.764375 0.928125
v 0.232108 0.7775 0.928125
v 0.232108 0.80375 0.95
v 0.209375 0.816875 0.95
v 0.186642 0.80375 0.95
v 0.186642 0.7775 0.95
v 0.209375 0.764375 0.95
v 0.232108 0.7775 0.95
v 0.232108 0.80375 0.928125
v 0.209375 0.816875 0.928125
v 0.186642 0.80375 0.928125
v 0.186642 0.7775 0.928125
v 0.209375 0.764375 0.928125
v 0.232108 0.7775 0.928125
v 0.232108 0.80375 0.95
v 0.209375 0.816875 0.95
v 0.186642 0.80375 0.95
v 0.186642 0.7775 0.95
v 0.209375 0.764375 0.95
v 0.232108 0.7775 0.95
v 0.813358 0.2225 0.928125
v 0.790625 0.235625 0.928125
v 0.767892 0.2225 0.928125
v 0.767892 0.19625 0.928125
v 0.790625 0.183125 0.928125
v 0.813358 0.19625 0.928125
v 0.813358 0.2225 0.95
v 0.790625 0.235625 0.95
v 0.767892 0.2225 0.95
v 0.767892 0.19625 0.95
v 0.790625 0.183125 0.95
v 0.813358 0.19625 0.95
v 0.813358 0.2225 0.928125
v 0.790625 0.235625 0.928125
v 0.767892 0.2225 0.928125
v 0.767892 0.19625 0.928125
v 0.790625 0.183125 0.928125
v 0.813358 0.19625 0.928125
v 0.813358 0.2225 0.95
v 0.790625 0.235625 0.95
v 0.767892 0.2225 0.95
v 0.767892 0.19625 0.95
v 0.790625 0.183125 0.95
v 0.813358 0.19625 0.95
v 0.813358 0.80375 0.928125
v 0.790625 0.816875 0.928125
v 0.767892 0.80375 0.928125
v 0.767892 0.7775 0.928125
v 0.790625 0.764375 0.928125
v 0.813358 0.7775 0.928125
v 0.813358 0.80375 0.95
v 0.790625 0.816875 0.95
v 0.767892 0.80375 0.95
v 0.767892 0.7775 0.95
v 0.790625 0.764375 0.95
v 0.813358 0.7775 0.95
v 0.813358 0.80375 0.928125
v 0.790625 0.816875 0.928125
v 0.767892 0.80375 0.928125
v 0.767892 0.7775 0.928125
v 0.790625 0.764375 0.928125
v 0.813358 0.7775 0.928125
v 0.813358 0.80375 0.95
v 0.790625 0.816875 0.95
v 0.767892 0.80375 0.95
v 0.767892 0.7775 0.95
v 0.790625 0.764375 0.95
v 0.813358 0.7775 0.95
vt 0.780029 0.072809
vt 0.783772 0.072809
vt 0.783772 0.075928
vt 0.780029 0.075928
vt 0.7854 0.072809
vt 0.789143 0.072809
vt 0.789143 0.075928
vt 0.7854 0.075928
vt 0.790771 0.072809
vt 0.794514 0.072809
vt 0.794514 0.075928
vt 0.790771 0.075928
vt 0.285889 0.072809
vt 0.289631 0.072809
vt 0.289631 0.075928
vt 0.285889 0.075928
vt 0.796143 0.072809
vt 0.799885 0.072809
vt 0.799885 0.075928
vt 0.796143 0.075928
vt 0.801514 0.072809
vt 0.805256 0.072809
vt 0.805256 0.075928
vt 0.801514 0.075928
vt 0.619058 0.147882
vt 0.617186 0.151123
vt 0.613444 0.151123
vt 0.617186 0.144641
vt 0.619058 0.147882
vt 0.613444 0.151123
vt 0.613444 0.144641
vt 0.617186 0.144641
vt 0.613444 0.151123
vt 0.613444 0.151123
vt 0.611572 0.147882
vt 0.613444 0.144641
vt 0.622721 0.144641
vt 0.626464 0.144641
vt 0.628335 0.147882
vt 0.622721 0.144641
vt 0.628335 0.147882
vt 0.626464 0.151123
vt 0.622721 0.144641
vt 0.626464 0.151123
vt 0.622721 0.151123
vt 0.622721 0.151123
vt 0.62085 0.147882
vt 0.622721 0.144641
vt 0.806885 0.072809
vt 0.810627 0.072809
vt 0.810627 0.075928
vt 0.806885 0.075928
vt 0.29126 0.072809
vt 0.295002 0.072809
vt 0.295002 0.075928
vt 0.29126 0.075928
vt 0.812256 0.072809
vt 0.815999 0.072809
vt 0.815999 0.075928
vt 0.812256 0.075928
vt 0.817627 0.072809
vt 0.82137 0.072809
vt 0.82137 0.075928
vt 0.817627 0.075928
vt 0.822998 0.072809
vt 0.826741 0.072809
vt 0.826741 0.075928
vt 0.822998 0.075928
vt 0.828369 0.072809
vt 0.832112 0.072809
vt 0.832112 0.075928
vt 0.828369 0.075928
vt 0.637612 0.147882
vt 0.635741 0.151123
vt 0.631998 0.151123
vt 0.635741 0.144641
vt 0.637612 0.147882
vt 0.631998 0.151123
vt 0.631998 0.144641
vt 0.635741 0.144641
vt 0.631998 0.151123
vt 0.631998 0.151123
vt 0.630127 0.147882
vt 0.631998 0.144641
vt 0.641276 0.144641
vt 0.645018 0.144641
vt 0.64689 0.147882
vt 0.641276 0.144641
vt 0.64689 0.147882
vt 0.645018 0.151123
vt 0.641276 0.144641
vt 0.645018 0.151123
vt 0.641276 0.151123
vt 0.641276 0.151123
vt 0.639404 0.147882
vt 0.641276 0.144641
vt 0.83374 0.072809
vt 0.837483 0.072809
vt 0.837483 0.075928
vt 0.83374 0.075928
vt 0.839111 0.072809
vt 0.842854 0.072809
vt 0.842854 0.075928
vt 0.839111 0.075928
vt 0.844482 0.072809
vt 0.848225 0.072809
vt 0.848225 0.075928
vt 0.844482 0.075928
vt 0.849854 0.072809
vt 0.853596 0.072809
vt 0.853596 0.075928
vt 0.849854 0.075928
vt 0.296631 0.072809
vt 0.300374 0.072809
vt 0.300374 0.075928
vt 0.296631 0.075928
vt 0.855225 0.072809
vt 0.858967 0.072809
vt 0.858967 0.075928
vt 0.855225 0.075928
vt 0.656167 0.147882
vt 0.654296 0.151123
vt 0.650553 0.151123
vt 0.654296 0.144641
vt 0.656167 0.147882
vt 0.650553 0.151123
vt 0.650553 0.144641
vt 0.654296 0.144641
vt 0.650553 0.151123
vt 0.650553 0.151123
vt 0.648682 0.147882
vt 0.650553 0.144641
vt 0.65983 0.144641
vt 0.663573 0.144641
vt 0.665444 0.147882
vt 0.65983 0.144641
vt 0.665444 0.147882
vt 0.663573 0.151123
vt 0.65983 0.144641
vt 0.663573 0.151123
vt 0.65983 0.151123
vt 0.65983 0.151123
vt 0.657959 0.147882
vt 0.65983 0.144641
vt 0.302002 0.072809
vt 0.305745 0.072809
vt 0.305745 0.075928
vt 0.302002 0.075928
vt 0.860596 0.072809
vt 0.864338 0.072809
vt 0.864338 0.075928
vt 0.860596 0.075928
vt 0.865967 0.072809
vt 0.869709 0.072809
vt 0.869709 0.075928
vt 0.865967 0.075928
vt 0.871338 0.072809
vt 0.875081 0.072809
vt 0.875081 0.075928
vt 0.871338 0.075928
vt 0.876709 0.072809
vt 0.880452 0.072809
vt 0.880452 0.075928
vt 0.876709 0.075928
vt 0.88208 0.072809
vt 0.885823 0.072809
vt 0.885823 0.075928
vt 0.88208 0.075928
vt 0.674722 0.147882
vt 0.67285 0.151123
vt 0.669108 0.151123
vt 0.67285 0.144641
vt 0.674722 0.147882
vt 0.669108 0.151123
vt 0.669108 0.144641
vt 0.67285 0.144641
vt 0.669108 0.151123
vt 0.669108 0.151123
vt 0.667236 0.147882
vt 0.669108 0.144641
vt 0.678385 0.144641
vt 0.682128 0.144641
vt 0.683999 0.147882
vt 0.678385 0.144641
vt 0.683999 0.147882
vt 0.682128 0.151123
vt 0.678385 0.144641
vt 0.682128 0.151123
vt 0.678385 0.151123
vt 0.678385 0.151123
vt 0.676514 0.147882
vt 0.678385 0.144641
vn 0.5 0.866025 0
vn -0.5 0.866025 0
vn -1 0 0
vn -0.5 -0.866025 0
vn 0.5 -0.866025 0
vn 1 0 0
vn 0 0 -1
vn 0 0 1
f 361/853/73 362/854/73 368/855/73 367/856/73
f 362/857/74 363/858/74 369/859/74 368/860/74
f 363/861/75 364/862/75 370/863/75 369/864/75
f 364/865/76 365/866/76 371/867/76 370/868/76
f 365/869/77 366/870/77 372/871/77 371/872/77
f 366/873/78 361/874/78 367/875/78 372/876/78
f 374/877/79 373/878/79 378/879/79
f 375/880/79 374/881/79 378/882/79
f 376/883/79 375/884/79 378/885/79
f 378/886/79 377/887/79 376/888/79
f 384/889/80 379/890/80 380/891/80
f 384/892/80 380/893/80 381/894/80
f 384/895/80 381/896/80 382/897/80
f 382/898/80 383/899/80 384/900/80
f 385/901/73 386/902/73 392/903/73 391/904/73
f 386/905/74 387/906/74 393/907/74 392/908/74
f 387/909/75 388/910/75 394/911/75 393/912/75
f 388/913/76 389/914/76 395/915/76 394/916/76
f 389/917/77 390/918/77 396/919/77 395/920/77
f 390/921/78 385/922/78 391/923/78 396/924/78
f 398/925/79 397/926/79 402/927/79
f 399/928/79 398/929/79 402/930/79
f 400/931/79 399/932/79 402/933/79
f 402/934/79 401/935/79 400/936/79
f 408/937/80 403/938/80 404/939/80
f 408/940/80 404/941/80 405/942/80
f 408/943/80 405/944/80 406/945/80
f 406/946/80 407/947/80 408/948/80
f 409/949/73 410/950/73 416/951/73 415/952/73
f 410/953/74 411/954/74 417/955/74 416/956/74
f 411/957/75 412/958/75 418/959/75 417/960/75
f 412/961/76 413/962/76 419/963/76 418/964/76
f 413/965/77 414/966/77 420/967/77 419/968/77
f 414/969/78 409/970/78 415/971/78 420/972/78
f 422/973/79 421/974/79 426/975/79
f 423/976/79 422/977/79 426/978/79
f 424/979/79 423/980/79 426/981/79
f 426/982/79 425/983/79 424/984/79
f 432/985/80 427/986/80 428/987/80
f 432/988/80 428/989/80 429/990/80
f 432/991/80 429/992/80 430/993/80
f 430/994/80 431/995/80 432/996/80
f 433/997/73 434/998/73 440/999/73 439/1000/73
f 434/1001/74 435/1002/74 441/1003/74 440/1004/74
f 435/1005/75 436/1006/75 442/1007/75 441/1008/75
f 436/1009/76 437/1010/76 443/1011/76 442/1012/76
f 437/1013/77 438/1014/77 444/1015/77 443/1016/77
f 438/1017/78 433/1018/78 439/1019/78 444/1020/78
f 446/1021/79 445/1022/79 450/1023/79
f 447/1024/79 446/1025/79 450/1026/79
f 448/1027/79 447/1028/79 450/1029/79
f 450/1030/79 449/1031/79 448/1032/79
f 456/1033/80 451/1034/80 452/1035/80
f 456/1036/80 452/1037/80 453/1038/80
f 456/1039/80 453/1040/80 454/1041/80
f 454/1042/80 455/1043/80 456/1044/80
