# AFL Fluid Pipe V2 end_port_west (glass), generated by tools/build-fluid-pipe-v2.mjs
mtllib heat_resistant_fluid_pipe.mtl
o end_port_panes
usemtl heat_resistant_fluid_pipe
v 0.525 0.33125 0.259375
v 0.525 0.66875 0.259375
v 0.05 0.66875 0.259375
v 0.05 0.33125 0.259375
v 0.525 0.33125 0.275
v 0.525 0.66875 0.275
v 0.05 0.66875 0.275
v 0.05 0.33125 0.275
v 0.525 0.259375 0.33125
v 0.525 0.259375 0.66875
v 0.05 0.259375 0.66875
v 0.05 0.259375 0.33125
v 0.525 0.275 0.33125
v 0.525 0.275 0.66875
v 0.05 0.275 0.66875
v 0.05 0.275 0.33125
v 0.525 0.33125 0.725
v 0.525 0.66875 0.725
v 0.05 0.66875 0.725
v 0.05 0.33125 0.725
v 0.525 0.33125 0.740625
v 0.525 0.66875 0.740625
v 0.05 0.66875 0.740625
v 0.05 0.33125 0.740625
v 0.525 0.725 0.33125
v 0.525 0.725 0.66875
v 0.05 0.725 0.66875
v 0.05 0.725 0.33125
v 0.525 0.740625 0.33125
v 0.525 0.740625 0.66875
v 0.05 0.740625 0.66875
v 0.05 0.740625 0.33125
vt 0.880957 0.457495
vt 0.880957 0.505615
vt 0.813232 0.505615
vt 0.813232 0.457495
vt 0.882568 0.505615
vt 0.882568 0.457495
vt 0.950293 0.457495
vt 0.950293 0.505615
vt 0.001221 0.455811
vt 0.001221 0.40769
vt 0.068945 0.40769
vt 0.068945 0.455811
vt 0.138281 0.40769
vt 0.138281 0.455811
vt 0.070557 0.455811
vt 0.070557 0.40769
vt 0.207617 0.40769
vt 0.207617 0.455811
vt 0.139893 0.455811
vt 0.139893 0.40769
vt 0.209229 0.455811
vt 0.209229 0.40769
vt 0.276953 0.40769
vt 0.276953 0.455811
vt 0.278564 0.455811
vt 0.278564 0.40769
vt 0.346289 0.40769
vt 0.346289 0.455811
vt 0.415625 0.40769
vt 0.415625 0.455811
vt 0.3479 0.455811
vt 0.3479 0.40769
vn 0 0 -1
vn 0 0 1
vn 0 -1 0
vn 0 1 0
f 4/1/1 3/2/1 2/3/1 1/4/1
f 5/5/2 6/6/2 7/7/2 8/8/2
f 9/9/3 10/10/3 11/11/3 12/12/3
f 16/13/4 15/14/4 14/15/4 13/16/4
f 20/17/1 19/18/1 18/19/1 17/20/1
f 21/21/2 22/22/2 23/23/2 24/24/2
f 25/25/3 26/26/3 27/27/3 28/28/3
f 32/29/4 31/30/4 30/31/4 29/32/4
