# AFL Fluid Pipe V2 half_pipe_west, generated by tools/build-fluid-pipe-v2.mjs
mtllib heat_resistant_fluid_pipe.mtl
o half_pipe_rails
usemtl heat_resistant_fluid_pipe
v 0.5 0.33125 0.33125
v 0.5 0.33125 0.25
v 0.5 0.26875 0.25
v 0.5 0.25 0.26875
v 0.5 0.25 0.33125
v 0 0.33125 0.33125
v 0 0.33125 0.25
v 0 0.26875 0.25
v 0 0.25 0.26875
v 0 0.25 0.33125
v 0.5 0.33125 0.33125
v 0.5 0.33125 0.25
v 0.5 0.26875 0.25
v 0.5 0.25 0.26875
v 0.5 0.25 0.33125
v 0 0.33125 0.33125
v 0 0.33125 0.25
v 0 0.26875 0.25
v 0 0.25 0.26875
v 0 0.25 0.33125
v 0.5 0.75 0.33125
v 0.5 0.75 0.26875
v 0.5 0.73125 0.25
v 0.5 0.66875 0.25
v 0.5 0.66875 0.33125
v 0 0.75 0.33125
v 0 0.75 0.26875
v 0 0.73125 0.25
v 0 0.66875 0.25
v 0 0.66875 0.33125
v 0.5 0.75 0.33125
v 0.5 0.75 0.26875
v 0.5 0.73125 0.25
v 0.5 0.66875 0.25
v 0.5 0.66875 0.33125
v 0 0.75 0.33125
v 0 0.75 0.26875
v 0 0.73125 0.25
v 0 0.66875 0.25
v 0 0.66875 0.33125
v 0.5 0.25 0.66875
v 0.5 0.25 0.73125
v 0.5 0.26875 0.75
v 0.5 0.33125 0.75
v 0.5 0.33125 0.66875
v 0 0.25 0.66875
v 0 0.25 0.73125
v 0 0.26875 0.75
v 0 0.33125 0.75
v 0 0.33125 0.66875
v 0.5 0.25 0.66875
v 0.5 0.25 0.73125
v 0.5 0.26875 0.75
v 0.5 0.33125 0.75
v 0.5 0.33125 0.66875
v 0 0.25 0.66875
v 0 0.25 0.73125
v 0 0.26875 0.75
v 0 0.33125 0.75
v 0 0.33125 0.66875
v 0.5 0.66875 0.66875
v 0.5 0.66875 0.75
v 0.5 0.73125 0.75
v 0.5 0.75 0.73125
v 0.5 0.75 0.66875
v 0 0.66875 0.66875
v 0 0.66875 0.75
v 0 0.73125 0.75
v 0 0.75 0.73125
v 0 0.75 0.66875
v 0.5 0.66875 0.66875
v 0.5 0.66875 0.75
v 0.5 0.73125 0.75
v 0.5 0.75 0.73125
v 0.5 0.75 0.66875
v 0 0.66875 0.66875
v 0 0.66875 0.75
v 0 0.73125 0.75
v 0 0.75 0.73125
v 0 0.75 0.66875
vt 0.001221 0.328369
vt 0.001221 0.316785
vt 0.07251 0.316785
vt 0.07251 0.328369
vt 0.845947 0.227295
vt 0.845947 0.218384
vt 0.917236 0.218384
vt 0.917236 0.227295
vt 0.835205 0.087646
vt 0.835205 0.083866
vt 0.906494 0.083866
vt 0.906494 0.087646
vt 0.918701 0.227295
vt 0.918701 0.218384
vt 0.98999 0.218384
vt 0.98999 0.227295
vt 0.073975 0.328369
vt 0.073975 0.316785
vt 0.145264 0.316785
vt 0.145264 0.328369
vt 0.030383 0.290417
vt 0.030383 0.302002
vt 0.018799 0.302002
vt 0.021472 0.290417
vt 0.030383 0.290417
vt 0.018799 0.302002
vt 0.018799 0.302002
vt 0.018799 0.293091
vt 0.021472 0.290417
vt 0.031982 0.290417
vt 0.043567 0.290417
vt 0.043567 0.302002
vt 0.031982 0.290417
vt 0.043567 0.302002
vt 0.034656 0.302002
vt 0.034656 0.302002
vt 0.031982 0.299329
vt 0.031982 0.290417
vt 0.001221 0.216553
vt 0.001221 0.207642
vt 0.07251 0.207642
vt 0.07251 0.216553
vt 0.907959 0.087646
vt 0.907959 0.083866
vt 0.979248 0.083866
vt 0.979248 0.087646
vt 0.073975 0.216553
vt 0.073975 0.207642
vt 0.145264 0.207642
vt 0.145264 0.216553
vt 0.146729 0.328369
vt 0.146729 0.316785
vt 0.218018 0.316785
vt 0.218018 0.328369
vt 0.219482 0.328369
vt 0.219482 0.316785
vt 0.290771 0.316785
vt 0.290771 0.328369
vt 0.05675 0.293091
vt 0.05675 0.302002
vt 0.045166 0.302002
vt 0.054077 0.290417
vt 0.05675 0.293091
vt 0.045166 0.302002
vt 0.045166 0.302002
vt 0.045166 0.290417
vt 0.054077 0.290417
vt 0.05835 0.290417
vt 0.069934 0.290417
vt 0.069934 0.299329
vt 0.05835 0.290417
vt 0.069934 0.299329
vt 0.067261 0.302002
vt 0.067261 0.302002
vt 0.05835 0.302002
vt 0.05835 0.290417
vt 0.146729 0.216553
vt 0.146729 0.207642
vt 0.218018 0.207642
vt 0.218018 0.216553
vt 0.001221 0.081299
vt 0.001221 0.077518
vt 0.07251 0.077518
vt 0.07251 0.081299
vt 0.219482 0.216553
vt 0.219482 0.207642
vt 0.290771 0.207642
vt 0.290771 0.216553
vt 0.292236 0.328369
vt 0.292236 0.316785
vt 0.363525 0.316785
vt 0.363525 0.328369
vt 0.36499 0.328369
vt 0.36499 0.316785
vt 0.436279 0.316785
vt 0.436279 0.328369
vt 0.071533 0.299329
vt 0.071533 0.290417
vt 0.083118 0.290417
vt 0.074207 0.302002
vt 0.071533 0.299329
vt 0.083118 0.290417
vt 0.083118 0.290417
vt 0.083118 0.302002
vt 0.074207 0.302002
vt 0.096301 0.302002
vt 0.084717 0.302002
vt 0.084717 0.293091
vt 0.096301 0.302002
vt 0.084717 0.293091
vt 0.08739 0.290417
vt 0.08739 0.290417
vt 0.096301 0.290417
vt 0.096301 0.302002
vt 0.437744 0.328369
vt 0.437744 0.316785
vt 0.509033 0.316785
vt 0.509033 0.328369
vt 0.292236 0.216553
vt 0.292236 0.207642
vt 0.363525 0.207642
vt 0.363525 0.216553
vt 0.073975 0.081299
vt 0.073975 0.077518
vt 0.145264 0.077518
vt 0.145264 0.081299
vt 0.36499 0.216553
vt 0.36499 0.207642
vt 0.436279 0.207642
vt 0.436279 0.216553
vt 0.510498 0.328369
vt 0.510498 0.316785
vt 0.581787 0.316785
vt 0.581787 0.328369
vt 0.0979 0.302002
vt 0.0979 0.290417
vt 0.109485 0.290417
vt 0.106812 0.302002
vt 0.0979 0.302002
vt 0.109485 0.290417
vt 0.109485 0.290417
vt 0.109485 0.299329
vt 0.106812 0.302002
vt 0.122668 0.302002
vt 0.111084 0.302002
vt 0.111084 0.290417
vt 0.122668 0.302002
vt 0.111084 0.290417
vt 0.119995 0.290417
vt 0.119995 0.290417
vt 0.122668 0.293091
vt 0.122668 0.302002
vn 0 1 0
vn 0 0 -1
vn 0 -0.707107 -0.707107
vn 0 -1 0
vn 0 0 1
vn 1 0 0
vn -1 0 0
vn 0 0.707107 -0.707107
vn 0 -0.707107 0.707107
vn 0 0.707107 0.707107
f 1/1/1 2/2/1 7/3/1 6/4/1
f 2/5/2 3/6/2 8/7/2 7/8/2
f 3/9/3 4/10/3 9/11/3 8/12/3
f 4/13/4 5/14/4 10/15/4 9/16/4
f 5/17/5 1/18/5 6/19/5 10/20/5
f 12/21/6 11/22/6 15/23/6
f 13/24/6 12/25/6 15/26/6
f 15/27/6 14/28/6 13/29/6
f 20/30/7 16/31/7 17/32/7
f 20/33/7 17/34/7 18/35/7
f 18/36/7 19/37/7 20/38/7
f 21/39/1 22/40/1 27/41/1 26/42/1
f 22/43/8 23/44/8 28/45/8 27/46/8
f 23/47/2 24/48/2 29/49/2 28/50/2
f 24/51/4 25/52/4 30/53/4 29/54/4
f 25/55/5 21/56/5 26/57/5 30/58/5
f 32/59/6 31/60/6 35/61/6
f 33/62/6 32/63/6 35/64/6
f 35/65/6 34/66/6 33/67/6
f 40/68/7 36/69/7 37/70/7
f 40/71/7 37/72/7 38/73/7
f 38/74/7 39/75/7 40/76/7
f 41/77/4 42/78/4 47/79/4 46/80/4
f 42/81/9 43/82/9 48/83/9 47/84/9
f 43/85/5 44/86/5 49/87/5 48/88/5
f 44/89/1 45/90/1 50/91/1 49/92/1
f 45/93/2 41/94/2 46/95/2 50/96/2
f 52/97/6 51/98/6 55/99/6
f 53/100/6 52/101/6 55/102/6
f 55/103/6 54/104/6 53/105/6
f 60/106/7 56/107/7 57/108/7
f 60/109/7 57/110/7 58/111/7
f 58/112/7 59/113/7 60/114/7
f 61/115/4 62/116/4 67/117/4 66/118/4
f 62/119/5 63/120/5 68/121/5 67/122/5
f 63/123/10 64/124/10 69/125/10 68/126/10
f 64/127/1 65/128/1 70/129/1 69/130/1
f 65/131/2 61/132/2 66/133/2 70/134/2
f 72/135/6 71/136/6 75/137/6
f 73/138/6 72/139/6 75/140/6
f 75/141/6 74/142/6 73/143/6
f 80/144/7 76/145/7 77/146/7
f 80/147/7 77/148/7 78/149/7
f 78/150/7 79/151/7 80/152/7
