# AFL Fluid Pipe V2 half_port_east, generated by tools/build-fluid-pipe-v2.mjs
mtllib heat_resistant_fluid_pipe.mtl
o half_port_rails
usemtl heat_resistant_fluid_pipe
v 0.5 0.33125 0.66875
v 0.5 0.33125 0.75
v 0.5 0.26875 0.75
v 0.5 0.25 0.73125
v 0.5 0.25 0.66875
v 0.95 0.33125 0.66875
v 0.95 0.33125 0.75
v 0.95 0.26875 0.75
v 0.95 0.25 0.73125
v 0.95 0.25 0.66875
v 0.5 0.33125 0.66875
v 0.5 0.33125 0.75
v 0.5 0.26875 0.75
v 0.5 0.25 0.73125
v 0.5 0.25 0.66875
v 0.95 0.33125 0.66875
v 0.95 0.33125 0.75
v 0.95 0.26875 0.75
v 0.95 0.25 0.73125
v 0.95 0.25 0.66875
v 0.5 0.75 0.66875
v 0.5 0.75 0.73125
v 0.5 0.73125 0.75
v 0.5 0.66875 0.75
v 0.5 0.66875 0.66875
v 0.95 0.75 0.66875
v 0.95 0.75 0.73125
v 0.95 0.73125 0.75
v 0.95 0.66875 0.75
v 0.95 0.66875 0.66875
v 0.5 0.75 0.66875
v 0.5 0.75 0.73125
v 0.5 0.73125 0.75
v 0.5 0.66875 0.75
v 0.5 0.66875 0.66875
v 0.95 0.75 0.66875
v 0.95 0.75 0.73125
v 0.95 0.73125 0.75
v 0.95 0.66875 0.75
v 0.95 0.66875 0.66875
v 0.5 0.25 0.33125
v 0.5 0.25 0.26875
v 0.5 0.26875 0.25
v 0.5 0.33125 0.25
v 0.5 0.33125 0.33125
v 0.95 0.25 0.33125
v 0.95 0.25 0.26875
v 0.95 0.26875 0.25
v 0.95 0.33125 0.25
v 0.95 0.33125 0.33125
v 0.5 0.25 0.33125
v 0.5 0.25 0.26875
v 0.5 0.26875 0.25
v 0.5 0.33125 0.25
v 0.5 0.33125 0.33125
v 0.95 0.25 0.33125
v 0.95 0.25 0.26875
v 0.95 0.26875 0.25
v 0.95 0.33125 0.25
v 0.95 0.33125 0.33125
v 0.5 0.66875 0.33125
v 0.5 0.66875 0.25
v 0.5 0.73125 0.25
v 0.5 0.75 0.26875
v 0.5 0.75 0.33125
v 0.95 0.66875 0.33125
v 0.95 0.66875 0.25
v 0.95 0.73125 0.25
v 0.95 0.75 0.26875
v 0.95 0.75 0.33125
v 0.5 0.66875 0.33125
v 0.5 0.66875 0.25
v 0.5 0.73125 0.25
v 0.5 0.75 0.26875
v 0.5 0.75 0.33125
v 0.95 0.66875 0.33125
v 0.95 0.66875 0.25
v 0.95 0.73125 0.25
v 0.95 0.75 0.26875
v 0.95 0.75 0.33125
vt 0.139893 0.315186
vt 0.139893 0.303601
vt 0.204053 0.303601
vt 0.204053 0.315186
vt 0.001221 0.205811
vt 0.001221 0.196899
vt 0.065381 0.196899
vt 0.065381 0.205811
vt 0.424072 0.081299
vt 0.424072 0.077518
vt 0.488232 0.077518
vt 0.488232 0.081299
vt 0.067139 0.205811
vt 0.067139 0.196899
vt 0.131299 0.196899
vt 0.131299 0.205811
vt 0.205811 0.315186
vt 0.205811 0.303601
vt 0.269971 0.303601
vt 0.269971 0.315186
vt 0.135852 0.290417
vt 0.135852 0.302002
vt 0.124268 0.302002
vt 0.126941 0.290417
vt 0.135852 0.290417
vt 0.124268 0.302002
vt 0.124268 0.302002
vt 0.124268 0.293091
vt 0.126941 0.290417
vt 0.137451 0.290417
vt 0.149036 0.290417
vt 0.149036 0.302002
vt 0.137451 0.290417
vt 0.149036 0.302002
vt 0.140125 0.302002
vt 0.140125 0.302002
vt 0.137451 0.299329
vt 0.137451 0.290417
vt 0.133057 0.205811
vt 0.133057 0.196899
vt 0.197217 0.196899
vt 0.197217 0.205811
vt 0.48999 0.081299
vt 0.48999 0.077518
vt 0.55415 0.077518
vt 0.55415 0.081299
vt 0.198975 0.205811
vt 0.198975 0.196899
vt 0.263135 0.196899
vt 0.263135 0.205811
vt 0.271729 0.315186
vt 0.271729 0.303601
vt 0.335889 0.303601
vt 0.335889 0.315186
vt 0.337646 0.315186
vt 0.337646 0.303601
vt 0.401807 0.303601
vt 0.401807 0.315186
vt 0.162219 0.293091
vt 0.162219 0.302002
vt 0.150635 0.302002
vt 0.159546 0.290417
vt 0.162219 0.293091
vt 0.150635 0.302002
vt 0.150635 0.302002
vt 0.150635 0.290417
vt 0.159546 0.290417
vt 0.163818 0.290417
vt 0.175403 0.290417
vt 0.175403 0.299329
vt 0.163818 0.290417
vt 0.175403 0.299329
vt 0.172729 0.302002
vt 0.172729 0.302002
vt 0.163818 0.302002
vt 0.163818 0.290417
vt 0.264893 0.205811
vt 0.264893 0.196899
vt 0.329053 0.196899
vt 0.329053 0.205811
vt 0.555908 0.081299
vt 0.555908 0.077518
vt 0.620068 0.077518
vt 0.620068 0.081299
vt 0.330811 0.205811
vt 0.330811 0.196899
vt 0.394971 0.196899
vt 0.394971 0.205811
vt 0.403564 0.315186
vt 0.403564 0.303601
vt 0.467725 0.303601
vt 0.467725 0.315186
vt 0.469482 0.315186
vt 0.469482 0.303601
vt 0.533643 0.303601
vt 0.533643 0.315186
vt 0.177002 0.299329
vt 0.177002 0.290417
vt 0.188586 0.290417
vt 0.179675 0.302002
vt 0.177002 0.299329
vt 0.188586 0.290417
vt 0.188586 0.290417
vt 0.188586 0.302002
vt 0.179675 0.302002
vt 0.20177 0.302002
vt 0.190186 0.302002
vt 0.190186 0.293091
vt 0.20177 0.302002
vt 0.190186 0.293091
vt 0.192859 0.290417
vt 0.192859 0.290417
vt 0.20177 0.290417
vt 0.20177 0.302002
vt 0.5354 0.315186
vt 0.5354 0.303601
vt 0.599561 0.303601
vt 0.599561 0.315186
vt 0.396729 0.205811
vt 0.396729 0.196899
vt 0.460889 0.196899
vt 0.460889 0.205811
vt 0.621826 0.081299
vt 0.621826 0.077518
vt 0.685986 0.077518
vt 0.685986 0.081299
vt 0.462646 0.205811
vt 0.462646 0.196899
vt 0.526807 0.196899
vt 0.526807 0.205811
vt 0.601318 0.315186
vt 0.601318 0.303601
vt 0.665479 0.303601
vt 0.665479 0.315186
vt 0.203369 0.302002
vt 0.203369 0.290417
vt 0.214954 0.290417
vt 0.21228 0.302002
vt 0.203369 0.302002
vt 0.214954 0.290417
vt 0.214954 0.290417
vt 0.214954 0.299329
vt 0.21228 0.302002
vt 0.228137 0.302002
vt 0.216553 0.302002
vt 0.216553 0.290417
vt 0.228137 0.302002
vt 0.216553 0.290417
vt 0.225464 0.290417
vt 0.225464 0.290417
vt 0.228137 0.293091
vt 0.228137 0.302002
vn 0 1 0
vn 0 0 1
vn 0 -0.707107 0.707107
vn 0 -1 0
vn 0 0 -1
vn -1 0 0
vn 1 0 0
vn 0 0.707107 0.707107
vn 0 -0.707107 -0.707107
vn 0 0.707107 -0.707107
f 1/1/1 2/2/1 7/3/1 6/4/1
f 2/5/2 3/6/2 8/7/2 7/8/2
f 3/9/3 4/10/3 9/11/3 8/12/3
f 4/13/4 5/14/4 10/15/4 9/16/4
f 5/17/5 1/18/5 6/19/5 10/20/5
f 12/21/6 11/22/6 15/23/6
f 13/24/6 12/25/6 15/26/6
f 15/27/6 14/28/6 13/29/6
f 20/30/7 16/31/7 17/32/7
f 20/33/7 17/34/7 18/35/7
f 18/36/7 19/37/7 20/38/7
f 21/39/1 22/40/1 27/41/1 26/42/1
f 22/43/8 23/44/8 28/45/8 27/46/8
f 23/47/2 24/48/2 29/49/2 28/50/2
f 24/51/4 25/52/4 30/53/4 29/54/4
f 25/55/5 21/56/5 26/57/5 30/58/5
f 32/59/6 31/60/6 35/61/6
f 33/62/6 32/63/6 35/64/6
f 35/65/6 34/66/6 33/67/6
f 40/68/7 36/69/7 37/70/7
f 40/71/7 37/72/7 38/73/7
f 38/74/7 39/75/7 40/76/7
f 41/77/4 42/78/4 47/79/4 46/80/4
f 42/81/9 43/82/9 48/83/9 47/84/9
f 43/85/5 44/86/5 49/87/5 48/88/5
f 44/89/1 45/90/1 50/91/1 49/92/1
f 45/93/2 41/94/2 46/95/2 50/96/2
f 52/97/6 51/98/6 55/99/6
f 53/100/6 52/101/6 55/102/6
f 55/103/6 54/104/6 53/105/6
f 60/106/7 56/107/7 57/108/7
f 60/109/7 57/110/7 58/111/7
f 58/112/7 59/113/7 60/114/7
f 61/115/4 62/116/4 67/117/4 66/118/4
f 62/119/5 63/120/5 68/121/5 67/122/5
f 63/123/10 64/124/10 69/125/10 68/126/10
f 64/127/1 65/128/1 70/129/1 69/130/1
f 65/131/2 61/132/2 66/133/2 70/134/2
f 72/135/6 71/136/6 75/137/6
f 73/138/6 72/139/6 75/140/6
f 75/141/6 74/142/6 73/143/6
f 80/144/7 76/145/7 77/146/7
f 80/147/7 77/148/7 78/149/7
f 78/150/7 79/151/7 80/152/7
o half_port_port
usemtl heat_resistant_fluid_pipe
v 0.95 0.16875 0.83125
v 0.95 0.16875 0.16875
v 0.95 0.83125 0.16875
v 0.95 0.83125 0.83125
v 0.95625 0.1625 0.8375
v 0.95625 0.1625 0.1625
v 0.95625 0.8375 0.1625
v 0.95625 0.8375 0.8375
v 0.99375 0.1625 0.8375
v 0.99375 0.1625 0.1625
v 0.99375 0.8375 0.1625
v 0.99375 0.8375 0.8375
v 1 0.16875 0.83125
v 1 0.16875 0.16875
v 1 0.83125 0.16875
v 1 0.83125 0.83125
v 0.95 0.75625 0.75625
v 0.95 0.75625 0.24375
v 0.95 0.24375 0.24375
v 0.95 0.24375 0.75625
v 0.95625 0.75 0.75
v 0.95625 0.75 0.25
v 0.95625 0.25 0.25
v 0.95625 0.25 0.75
v 0.99375 0.75 0.75
v 0.99375 0.75 0.25
v 0.99375 0.25 0.25
v 0.99375 0.25 0.75
v 1 0.75625 0.75625
v 1 0.75625 0.24375
v 1 0.24375 0.24375
v 1 0.24375 0.75625
v 0.95 0.16875 0.83125
v 0.95 0.16875 0.16875
v 0.95 0.83125 0.16875
v 0.95 0.83125 0.83125
v 0.95 0.75625 0.75625
v 0.95 0.75625 0.24375
v 0.95 0.24375 0.24375
v 0.95 0.24375 0.75625
v 1 0.16875 0.83125
v 1 0.16875 0.16875
v 1 0.83125 0.16875
v 1 0.83125 0.83125
v 1 0.75625 0.75625
v 1 0.75625 0.24375
v 1 0.24375 0.24375
v 1 0.24375 0.75625
vt 0.842932 0.018027
vt 0.93739 0.018027
vt 0.938281 0.019287
vt 0.842041 0.019287
vt 0.885413 0.064902
vt 0.979871 0.064902
vt 0.980762 0.066162
vt 0.884521 0.066162
vt 0.002112 0.015097
vt 0.09657 0.015097
vt 0.097461 0.016357
vt 0.001221 0.016357
vt 0.002112 0.061972
vt 0.09657 0.061972
vt 0.097461 0.063232
vt 0.001221 0.063232
vt 0.867432 0.145776
vt 0.963672 0.145776
vt 0.963672 0.151123
vt 0.867432 0.151123
vt 0.001221 0.136987
vt 0.097461 0.136987
vt 0.097461 0.142334
vt 0.001221 0.142334
vt 0.099365 0.136987
vt 0.195605 0.136987
vt 0.195605 0.142334
vt 0.099365 0.142334
vt 0.19751 0.136987
vt 0.29375 0.136987
vt 0.29375 0.142334
vt 0.19751 0.142334
vt 0.099365 0.061972
vt 0.195605 0.061972
vt 0.194714 0.063232
vt 0.100256 0.063232
vt 0.150635 0.026816
vt 0.246875 0.026816
vt 0.245984 0.028076
vt 0.151526 0.028076
vt 0.19751 0.061972
vt 0.29375 0.061972
vt 0.292859 0.063232
vt 0.198401 0.063232
vt 0.248779 0.026816
vt 0.34502 0.026816
vt 0.344128 0.028076
vt 0.24967 0.028076
vt 0.822998 0.041464
vt 0.896069 0.041464
vt 0.895178 0.042725
vt 0.823889 0.042725
vt 0.075928 0.029746
vt 0.148999 0.029746
vt 0.148108 0.031006
vt 0.076819 0.031006
vt 0.897705 0.041464
vt 0.970776 0.041464
vt 0.969885 0.042725
vt 0.898596 0.042725
vt 0.150635 0.029746
vt 0.223706 0.029746
vt 0.222815 0.031006
vt 0.151526 0.031006
vt 0.491943 0.116479
vt 0.563232 0.116479
vt 0.563232 0.121826
vt 0.491943 0.121826
vt 0.564697 0.116479
vt 0.635986 0.116479
vt 0.635986 0.121826
vt 0.564697 0.121826
vt 0.637451 0.116479
vt 0.70874 0.116479
vt 0.70874 0.121826
vt 0.637451 0.121826
vt 0.710205 0.116479
vt 0.781494 0.116479
vt 0.781494 0.121826
vt 0.710205 0.121826
vt 0.002112 0.038535
vt 0.073401 0.038535
vt 0.074292 0.039795
vt 0.001221 0.039795
vt 0.076819 0.038535
vt 0.148108 0.038535
vt 0.148999 0.039795
vt 0.075928 0.039795
vt 0.151526 0.038535
vt 0.222815 0.038535
vt 0.223706 0.039795
vt 0.150635 0.039795
vt 0.226233 0.038535
vt 0.297522 0.038535
vt 0.298413 0.039795
vt 0.225342 0.039795
vt 0.084985 0.988086
vt 0.095679 0.998779
vt 0.001221 0.998779
vt 0.011914 0.988086
vt 0.084985 0.988086
vt 0.001221 0.998779
vt 0.011914 0.988086
vt 0.001221 0.998779
vt 0.001221 0.904321
vt 0.011914 0.915015
vt 0.011914 0.988086
vt 0.001221 0.904321
vt 0.011914 0.915015
vt 0.001221 0.904321
vt 0.095679 0.904321
vt 0.084985 0.915015
vt 0.011914 0.915015
vt 0.095679 0.904321
vt 0.084985 0.988086
vt 0.084985 0.915015
vt 0.095679 0.904321
vt 0.095679 0.904321
vt 0.095679 0.998779
vt 0.084985 0.988086
vt 0.097412 0.904321
vt 0.19187 0.904321
vt 0.181177 0.915015
vt 0.097412 0.904321
vt 0.181177 0.915015
vt 0.108105 0.915015
vt 0.097412 0.998779
vt 0.097412 0.904321
vt 0.108105 0.915015
vt 0.097412 0.998779
vt 0.108105 0.915015
vt 0.108105 0.988086
vt 0.19187 0.998779
vt 0.097412 0.998779
vt 0.108105 0.988086
vt 0.19187 0.998779
vt 0.108105 0.988086
vt 0.181177 0.988086
vt 0.19187 0.998779
vt 0.181177 0.988086
vt 0.181177 0.915015
vt 0.181177 0.915015
vt 0.19187 0.904321
vt 0.19187 0.998779
vn -0.707107 -0.707107 0
vn -0.707107 0 -0.707107
vn -0.707107 0.707107 0
vn -0.707107 0 0.707107
vn 0 -1 0
vn 0 0 -1
vn 0 1 0
vn 0 0 1
vn 0.707107 -0.707107 0
vn 0.707107 0 -0.707107
vn 0.707107 0.707107 0
vn 0.707107 0 0.707107
vn -1 0 0
vn 1 0 0
f 81/153/11 82/154/11 86/155/11 85/156/11
f 82/157/12 83/158/12 87/159/12 86/160/12
f 83/161/13 84/162/13 88/163/13 87/164/13
f 84/165/14 81/166/14 85/167/14 88/168/14
f 85/169/15 86/170/15 90/171/15 89/172/15
f 86/173/16 87/174/16 91/175/16 90/176/16
f 87/177/17 88/178/17 92/179/17 91/180/17
f 88/181/18 85/182/18 89/183/18 92/184/18
f 89/185/19 90/186/19 94/187/19 93/188/19
f 90/189/20 91/190/20 95/191/20 94/192/20
f 91/193/21 92/194/21 96/195/21 95/196/21
f 92/197/22 89/198/22 93/199/22 96/200/22
f 97/201/11 98/202/11 102/203/11 101/204/11
f 98/205/14 99/206/14 103/207/14 102/208/14
f 99/209/13 100/210/13 104/211/13 103/212/13
f 100/213/12 97/214/12 101/215/12 104/216/12
f 101/217/15 102/218/15 106/219/15 105/220/15
f 102/221/18 103/222/18 107/223/18 106/224/18
f 103/225/17 104/226/17 108/227/17 107/228/17
f 104/229/16 101/230/16 105/231/16 108/232/16
f 105/233/19 106/234/19 110/235/19 109/236/19
f 106/237/22 107/238/22 111/239/22 110/240/22
f 107/241/21 108/242/21 112/243/21 111/244/21
f 108/245/20 105/246/20 109/247/20 112/248/20
f 118/249/23 115/250/23 114/251/23
f 119/252/23 118/253/23 114/254/23
f 119/255/23 114/256/23 113/257/23
f 120/258/23 119/259/23 113/260/23
f 120/261/23 113/262/23 116/263/23
f 117/264/23 120/265/23 116/266/23
f 118/267/23 117/268/23 116/269/23
f 116/270/23 115/271/23 118/272/23
f 122/273/24 123/274/24 126/275/24
f 122/276/24 126/277/24 127/278/24
f 121/279/24 122/280/24 127/281/24
f 121/282/24 127/283/24 128/284/24
f 124/285/24 121/286/24 128/287/24
f 124/288/24 128/289/24 125/290/24
f 124/291/24 125/292/24 126/293/24
f 126/294/24 123/295/24 124/296/24
o half_port_port_lining
usemtl heat_resistant_fluid_pipe
v 0.95 0.25125 0.74875
v 0.95 0.25125 0.25125
v 0.95 0.74875 0.25125
v 0.95 0.74875 0.74875
v 1 0.25125 0.74875
v 1 0.25125 0.25125
v 1 0.74875 0.25125
v 1 0.74875 0.74875
v 0.95 0.71875 0.71875
v 0.95 0.71875 0.28125
v 0.95 0.28125 0.28125
v 0.95 0.28125 0.71875
v 1 0.71875 0.71875
v 1 0.71875 0.28125
v 1 0.28125 0.28125
v 1 0.28125 0.71875
v 0.95 0.25125 0.74875
v 0.95 0.25125 0.25125
v 0.95 0.74875 0.25125
v 0.95 0.74875 0.74875
v 0.95 0.71875 0.71875
v 0.95 0.71875 0.28125
v 0.95 0.28125 0.28125
v 0.95 0.28125 0.71875
v 1 0.25125 0.74875
v 1 0.25125 0.25125
v 1 0.74875 0.25125
v 1 0.74875 0.74875
v 1 0.71875 0.71875
v 1 0.71875 0.28125
v 1 0.28125 0.28125
v 1 0.28125 0.71875
vt 0.12915 0.17915
vt 0.200083 0.17915
vt 0.200083 0.186279
vt 0.12915 0.186279
vt 0.201904 0.17915
vt 0.272837 0.17915
vt 0.272837 0.186279
vt 0.201904 0.186279
vt 0.274658 0.17915
vt 0.345591 0.17915
vt 0.345591 0.186279
vt 0.274658 0.186279
vt 0.347412 0.17915
vt 0.418345 0.17915
vt 0.418345 0.186279
vt 0.347412 0.186279
vt 0.292236 0.161572
vt 0.354614 0.161572
vt 0.354614 0.168701
vt 0.292236 0.168701
vt 0.356201 0.161572
vt 0.418579 0.161572
vt 0.418579 0.168701
vt 0.356201 0.168701
vt 0.420166 0.161572
vt 0.482544 0.161572
vt 0.482544 0.168701
vt 0.420166 0.168701
vt 0.484131 0.161572
vt 0.546509 0.161572
vt 0.546509 0.168701
vt 0.484131 0.168701
vt 0.149907 0.705928
vt 0.154185 0.710205
vt 0.083252 0.710205
vt 0.087529 0.705928
vt 0.149907 0.705928
vt 0.083252 0.710205
vt 0.087529 0.705928
vt 0.083252 0.710205
vt 0.083252 0.639272
vt 0.087529 0.64355
vt 0.087529 0.705928
vt 0.083252 0.639272
vt 0.087529 0.64355
vt 0.083252 0.639272
vt 0.154185 0.639272
vt 0.149907 0.64355
vt 0.087529 0.64355
vt 0.154185 0.639272
vt 0.149907 0.705928
vt 0.149907 0.64355
vt 0.154185 0.639272
vt 0.154185 0.639272
vt 0.154185 0.710205
vt 0.149907 0.705928
vt 0.156006 0.639272
vt 0.226938 0.639272
vt 0.222661 0.64355
vt 0.156006 0.639272
vt 0.222661 0.64355
vt 0.160283 0.64355
vt 0.156006 0.710205
vt 0.156006 0.639272
vt 0.160283 0.64355
vt 0.156006 0.710205
vt 0.160283 0.64355
vt 0.160283 0.705928
vt 0.226938 0.710205
vt 0.156006 0.710205
vt 0.160283 0.705928
vt 0.226938 0.710205
vt 0.160283 0.705928
vt 0.222661 0.705928
vt 0.226938 0.710205
vt 0.222661 0.705928
vt 0.222661 0.64355
vt 0.222661 0.64355
vt 0.226938 0.639272
vt 0.226938 0.710205
vn 0 -1 0
vn 0 0 -1
vn 0 1 0
vn 0 0 1
vn -1 0 0
vn 1 0 0
f 129/297/25 130/298/25 134/299/25 133/300/25
f 130/301/26 131/302/26 135/303/26 134/304/26
f 131/305/27 132/306/27 136/307/27 135/308/27
f 132/309/28 129/310/28 133/311/28 136/312/28
f 137/313/25 138/314/25 142/315/25 141/316/25
f 138/317/28 139/318/28 143/319/28 142/320/28
f 139/321/27 140/322/27 144/323/27 143/324/27
f 140/325/26 137/326/26 141/327/26 144/328/26
f 150/329/29 147/330/29 146/331/29
f 151/332/29 150/333/29 146/334/29
f 151/335/29 146/336/29 145/337/29
f 152/338/29 151/339/29 145/340/29
f 152/341/29 145/342/29 148/343/29
f 149/344/29 152/345/29 148/346/29
f 150/347/29 149/348/29 148/349/29
f 148/350/29 147/351/29 150/352/29
f 154/353/30 155/354/30 158/355/30
f 154/356/30 158/357/30 159/358/30
f 153/359/30 154/360/30 159/361/30
f 153/362/30 159/363/30 160/364/30
f 156/365/30 153/366/30 160/367/30
f 156/368/30 160/369/30 157/370/30
f 156/371/30 157/372/30 158/373/30
f 158/374/30 155/375/30 156/376/30
o half_port_port_nuts
usemtl heat_resistant_fluid_pipe
v 0.928125 0.2225 0.767892
v 0.928125 0.235625 0.790625
v 0.928125 0.2225 0.813358
v 0.928125 0.19625 0.813358
v 0.928125 0.183125 0.790625
v 0.928125 0.19625 0.767892
v 0.95 0.2225 0.767892
v 0.95 0.235625 0.790625
v 0.95 0.2225 0.813358
v 0.95 0.19625 0.813358
v 0.95 0.183125 0.790625
v 0.95 0.19625 0.767892
v 0.928125 0.2225 0.767892
v 0.928125 0.235625 0.790625
v 0.928125 0.2225 0.813358
v 0.928125 0.19625 0.813358
v 0.928125 0.183125 0.790625
v 0.928125 0.19625 0.767892
v 0.95 0.2225 0.767892
v 0.95 0.235625 0.790625
v 0.95 0.2225 0.813358
v 0.95 0.19625 0.813358
v 0.95 0.183125 0.790625
v 0.95 0.19625 0.767892
v 0.928125 0.80375 0.767892
v 0.928125 0.816875 0.790625
v 0.928125 0.80375 0.813358
v 0.928125 0.7775 0.813358
v 0.928125 0.764375 0.790625
v 0.928125 0.7775 0.767892
v 0.95 0.80375 0.767892
v 0.95 0.816875 0.790625
v 0.95 0.80375 0.813358
v 0.95 0.7775 0.813358
v 0.95 0.764375 0.790625
v 0.95 0.7775 0.767892
v 0.928125 0.80375 0.767892
v 0.928125 0.816875 0.790625
v 0.928125 0.80375 0.813358
v 0.928125 0.7775 0.813358
v 0.928125 0.764375 0.790625
v 0.928125 0.7775 0.767892
v 0.95 0.80375 0.767892
v 0.95 0.816875 0.790625
v 0.95 0.80375 0.813358
v 0.95 0.7775 0.813358
v 0.95 0.764375 0.790625
v 0.95 0.7775 0.767892
v 0.928125 0.2225 0.186642
v 0.928125 0.235625 0.209375
v 0.928125 0.2225 0.232108
v 0.928125 0.19625 0.232108
v 0.928125 0.183125 0.209375
v 0.928125 0.19625 0.186642
v 0.95 0.2225 0.186642
v 0.95 0.235625 0.209375
v 0.95 0.2225 0.232108
v 0.95 0.19625 0.232108
v 0.95 0.183125 0.209375
v 0.95 0.19625 0.186642
v 0.928125 0.2225 0.186642
v 0.928125 0.235625 0.209375
v 0.928125 0.2225 0.232108
v 0.928125 0.19625 0.232108
v 0.928125 0.183125 0.209375
v 0.928125 0.19625 0.186642
v 0.95 0.2225 0.186642
v 0.95 0.235625 0.209375
v 0.95 0.2225 0.232108
v 0.95 0.19625 0.232108
v 0.95 0.183125 0.209375
v 0.95 0.19625 0.186642
v 0.928125 0.80375 0.186642
v 0.928125 0.816875 0.209375
v 0.928125 0.80375 0.232108
v 0.928125 0.7775 0.232108
v 0.928125 0.764375 0.209375
v 0.928125 0.7775 0.186642
v 0.95 0.80375 0.186642
v 0.95 0.816875 0.209375
v 0.95 0.80375 0.232108
v 0.95 0.7775 0.232108
v 0.95 0.764375 0.209375
v 0.95 0.7775 0.186642
v 0.928125 0.80375 0.186642
v 0.928125 0.816875 0.209375
v 0.928125 0.80375 0.232108
v 0.928125 0.7775 0.232108
v 0.928125 0.764375 0.209375
v 0.928125 0.7775 0.186642
v 0.95 0.80375 0.186642
v 0.95 0.816875 0.209375
v 0.95 0.80375 0.232108
v 0.95 0.7775 0.232108
v 0.95 0.764375 0.209375
v 0.95 0.7775 0.186642
vt 0.350342 0.072809
vt 0.354084 0.072809
vt 0.354084 0.075928
vt 0.350342 0.075928
vt 0.355713 0.072809
vt 0.359456 0.072809
vt 0.359456 0.075928
vt 0.355713 0.075928
vt 0.361084 0.072809
vt 0.364827 0.072809
vt 0.364827 0.075928
vt 0.361084 0.075928
vt 0.199951 0.072809
vt 0.203694 0.072809
vt 0.203694 0.075928
vt 0.199951 0.075928
vt 0.366455 0.072809
vt 0.370198 0.072809
vt 0.370198 0.075928
vt 0.366455 0.075928
vt 0.371826 0.072809
vt 0.375569 0.072809
vt 0.375569 0.075928
vt 0.371826 0.075928
vt 0.173745 0.147882
vt 0.171874 0.151123
vt 0.168131 0.151123
vt 0.171874 0.144641
vt 0.173745 0.147882
vt 0.168131 0.151123
vt 0.168131 0.144641
vt 0.171874 0.144641
vt 0.168131 0.151123
vt 0.168131 0.151123
vt 0.16626 0.147882
vt 0.168131 0.144641
vt 0.177408 0.144641
vt 0.181151 0.144641
vt 0.183022 0.147882
vt 0.177408 0.144641
vt 0.183022 0.147882
vt 0.181151 0.151123
vt 0.177408 0.144641
vt 0.181151 0.151123
vt 0.177408 0.151123
vt 0.177408 0.151123
vt 0.175537 0.147882
vt 0.177408 0.144641
vt 0.377197 0.072809
vt 0.38094 0.072809
vt 0.38094 0.075928
vt 0.377197 0.075928
vt 0.205322 0.072809
vt 0.209065 0.072809
vt 0.209065 0.075928
vt 0.205322 0.075928
vt 0.382568 0.072809
vt 0.386311 0.072809
vt 0.386311 0.075928
vt 0.382568 0.075928
vt 0.387939 0.072809
vt 0.391682 0.072809
vt 0.391682 0.075928
vt 0.387939 0.075928
vt 0.393311 0.072809
vt 0.397053 0.072809
vt 0.397053 0.075928
vt 0.393311 0.075928
vt 0.398682 0.072809
vt 0.402424 0.072809
vt 0.402424 0.075928
vt 0.398682 0.075928
vt 0.1923 0.147882
vt 0.190428 0.151123
vt 0.186686 0.151123
vt 0.190428 0.144641
vt 0.1923 0.147882
vt 0.186686 0.151123
vt 0.186686 0.144641
vt 0.190428 0.144641
vt 0.186686 0.151123
vt 0.186686 0.151123
vt 0.184814 0.147882
vt 0.186686 0.144641
vt 0.195963 0.144641
vt 0.199706 0.144641
vt 0.201577 0.147882
vt 0.195963 0.144641
vt 0.201577 0.147882
vt 0.199706 0.151123
vt 0.195963 0.144641
vt 0.199706 0.151123
vt 0.195963 0.151123
vt 0.195963 0.151123
vt 0.194092 0.147882
vt 0.195963 0.144641
vt 0.404053 0.072809
vt 0.407795 0.072809
vt 0.407795 0.075928
vt 0.404053 0.075928
vt 0.409424 0.072809
vt 0.413167 0.072809
vt 0.413167 0.075928
vt 0.409424 0.075928
vt 0.414795 0.072809
vt 0.418538 0.072809
vt 0.418538 0.075928
vt 0.414795 0.075928
vt 0.420166 0.072809
vt 0.423909 0.072809
vt 0.423909 0.075928
vt 0.420166 0.075928
vt 0.210693 0.072809
vt 0.214436 0.072809
vt 0.214436 0.075928
vt 0.210693 0.075928
vt 0.425537 0.072809
vt 0.42928 0.072809
vt 0.42928 0.075928
vt 0.425537 0.075928
vt 0.210854 0.147882
vt 0.208983 0.151123
vt 0.20524 0.151123
vt 0.208983 0.144641
vt 0.210854 0.147882
vt 0.20524 0.151123
vt 0.20524 0.144641
vt 0.208983 0.144641
vt 0.20524 0.151123
vt 0.20524 0.151123
vt 0.203369 0.147882
vt 0.20524 0.144641
vt 0.214518 0.144641
vt 0.21826 0.144641
vt 0.220132 0.147882
vt 0.214518 0.144641
vt 0.220132 0.147882
vt 0.21826 0.151123
vt 0.214518 0.144641
vt 0.21826 0.151123
vt 0.214518 0.151123
vt 0.214518 0.151123
vt 0.212646 0.147882
vt 0.214518 0.144641
vt 0.216064 0.072809
vt 0.219807 0.072809
vt 0.219807 0.075928
vt 0.216064 0.075928
vt 0.430908 0.072809
vt 0.434651 0.072809
vt 0.434651 0.075928
vt 0.430908 0.075928
vt 0.436279 0.072809
vt 0.440022 0.072809
vt 0.440022 0.075928
vt 0.436279 0.075928
vt 0.44165 0.072809
vt 0.445393 0.072809
vt 0.445393 0.075928
vt 0.44165 0.075928
vt 0.447021 0.072809
vt 0.450764 0.072809
vt 0.450764 0.075928
vt 0.447021 0.075928
vt 0.452393 0.072809
vt 0.456135 0.072809
vt 0.456135 0.075928
vt 0.452393 0.075928
vt 0.229409 0.147882
vt 0.227538 0.151123
vt 0.223795 0.151123
vt 0.227538 0.144641
vt 0.229409 0.147882
vt 0.223795 0.151123
vt 0.223795 0.144641
vt 0.227538 0.144641
vt 0.223795 0.151123
vt 0.223795 0.151123
vt 0.221924 0.147882
vt 0.223795 0.144641
vt 0.233073 0.144641
vt 0.236815 0.144641
vt 0.238687 0.147882
vt 0.233073 0.144641
vt 0.238687 0.147882
vt 0.236815 0.151123
vt 0.233073 0.144641
vt 0.236815 0.151123
vt 0.233073 0.151123
vt 0.233073 0.151123
vt 0.231201 0.147882
vt 0.233073 0.144641
vn 0 0.866025 -0.5
vn 0 0.866025 0.5
vn 0 0 1
vn 0 -0.866025 0.5
vn 0 -0.866025 -0.5
vn 0 0 -1
vn -1 0 0
vn 1 0 0
f 161/377/31 162/378/31 168/379/31 167/380/31
f 162/381/32 163/382/32 169/383/32 168/384/32
f 163/385/33 164/386/33 170/387/33 169/388/33
f 164/389/34 165/390/34 171/391/34 170/392/34
f 165/393/35 166/394/35 172/395/35 171/396/35
f 166/397/36 161/398/36 167/399/36 172/400/36
f 174/401/37 173/402/37 178/403/37
f 175/404/37 174/405/37 178/406/37
f 176/407/37 175/408/37 178/409/37
f 178/410/37 177/411/37 176/412/37
f 184/413/38 179/414/38 180/415/38
f 184/416/38 180/417/38 181/418/38
f 184/419/38 181/420/38 182/421/38
f 182/422/38 183/423/38 184/424/38
f 185/425/31 186/426/31 192/427/31 191/428/31
f 186/429/32 187/430/32 193/431/32 192/432/32
f 187/433/33 188/434/33 194/435/33 193/436/33
f 188/437/34 189/438/34 195/439/34 194/440/34
f 189/441/35 190/442/35 196/443/35 195/444/35
f 190/445/36 185/446/36 191/447/36 196/448/36
f 198/449/37 197/450/37 202/451/37
f 199/452/37 198/453/37 202/454/37
f 200/455/37 199/456/37 202/457/37
f 202/458/37 201/459/37 200/460/37
f 208/461/38 203/462/38 204/463/38
f 208/464/38 204/465/38 205/466/38
f 208/467/38 205/468/38 206/469/38
f 206/470/38 207/471/38 208/472/38
f 209/473/31 210/474/31 216/475/31 215/476/31
f 210/477/32 211/478/32 217/479/32 216/480/32
f 211/481/33 212/482/33 218/483/33 217/484/33
f 212/485/34 213/486/34 219/487/34 218/488/34
f 213/489/35 214/490/35 220/491/35 219/492/35
f 214/493/36 209/494/36 215/495/36 220/496/36
f 222/497/37 221/498/37 226/499/37
f 223/500/37 222/501/37 226/502/37
f 224/503/37 223/504/37 226/505/37
f 226/506/37 225/507/37 224/508/37
f 232/509/38 227/510/38 228/511/38
f 232/512/38 228/513/38 229/514/38
f 232/515/38 229/516/38 230/517/38
f 230/518/38 231/519/38 232/520/38
f 233/521/31 234/522/31 240/523/31 239/524/31
f 234/525/32 235/526/32 241/527/32 240/528/32
f 235/529/33 236/530/33 242/531/33 241/532/33
f 236/533/34 237/534/34 243/535/34 242/536/34
f 237/537/35 238/538/35 244/539/35 243/540/35
f 238/541/36 233/542/36 239/543/36 244/544/36
f 246/545/37 245/546/37 250/547/37
f 247/548/37 246/549/37 250/550/37
f 248/551/37 247/552/37 250/553/37
f 250/554/37 249/555/37 248/556/37
f 256/557/38 251/558/38 252/559/38
f 256/560/38 252/561/38 253/562/38
f 256/563/38 253/564/38 254/565/38
f 254/566/38 255/567/38 256/568/38
