# AFL Fluid Pipe V2 half_port_east (glass), generated by tools/build-fluid-pipe-v2.mjs
mtllib heat_resistant_fluid_pipe.mtl
o half_port_panes
usemtl heat_resistant_fluid_pipe
v 0.5 0.33125 0.740625
v 0.5 0.66875 0.740625
v 0.95 0.66875 0.740625
v 0.95 0.33125 0.740625
v 0.5 0.33125 0.725
v 0.5 0.66875 0.725
v 0.95 0.66875 0.725
v 0.95 0.33125 0.725
v 0.5 0.259375 0.66875
v 0.5 0.259375 0.33125
v 0.95 0.259375 0.33125
v 0.95 0.259375 0.66875
v 0.5 0.275 0.66875
v 0.5 0.275 0.33125
v 0.95 0.275 0.33125
v 0.95 0.275 0.66875
v 0.5 0.33125 0.275
v 0.5 0.66875 0.275
v 0.95 0.66875 0.275
v 0.95 0.33125 0.275
v 0.5 0.33125 0.259375
v 0.5 0.66875 0.259375
v 0.95 0.66875 0.259375
v 0.95 0.33125 0.259375
v 0.5 0.725 0.66875
v 0.5 0.725 0.33125
v 0.95 0.725 0.33125
v 0.95 0.725 0.66875
v 0.5 0.740625 0.66875
v 0.5 0.740625 0.33125
v 0.95 0.740625 0.33125
v 0.95 0.740625 0.66875
vt 0.481396 0.40769
vt 0.481396 0.455811
vt 0.417236 0.455811
vt 0.417236 0.40769
vt 0.483154 0.455811
vt 0.483154 0.40769
vt 0.547314 0.40769
vt 0.547314 0.455811
vt 0.549072 0.455811
vt 0.549072 0.40769
vt 0.613232 0.40769
vt 0.613232 0.455811
vt 0.67915 0.40769
vt 0.67915 0.455811
vt 0.61499 0.455811
vt 0.61499 0.40769
vt 0.745068 0.40769
vt 0.745068 0.455811
vt 0.680908 0.455811
vt 0.680908 0.40769
vt 0.746826 0.455811
vt 0.746826 0.40769
vt 0.810986 0.40769
vt 0.810986 0.455811
vt 0.812744 0.455811
vt 0.812744 0.40769
vt 0.876904 0.40769
vt 0.876904 0.455811
vt 0.942822 0.40769
vt 0.942822 0.455811
vt 0.878662 0.455811
vt 0.878662 0.40769
vn 0 0 1
vn 0 0 -1
vn 0 -1 0
vn 0 1 0
f 4/1/1 3/2/1 2/3/1 1/4/1
f 5/5/2 6/6/2 7/7/2 8/8/2
f 9/9/3 10/10/3 11/11/3 12/12/3
f 16/13/4 15/14/4 14/15/4 13/16/4
f 20/17/1 19/18/1 18/19/1 17/20/1
f 21/21/2 22/22/2 23/23/2 24/24/2
f 25/25/3 26/26/3 27/27/3 28/28/3
f 32/29/4 31/30/4 30/31/4 29/32/4
