# AFL Fluid Pipe V2 half_pipe_east (glass), generated by tools/build-fluid-pipe-v2.mjs
mtllib heat_resistant_fluid_pipe.mtl
o half_pipe_panes
usemtl heat_resistant_fluid_pipe
v 0.5 0.33125 0.740625
v 0.5 0.66875 0.740625
v 1 0.66875 0.740625
v 1 0.33125 0.740625
v 0.5 0.33125 0.725
v 0.5 0.66875 0.725
v 1 0.66875 0.725
v 1 0.33125 0.725
v 0.5 0.259375 0.66875
v 0.5 0.259375 0.33125
v 1 0.259375 0.33125
v 1 0.259375 0.66875
v 0.5 0.275 0.66875
v 0.5 0.275 0.33125
v 1 0.275 0.33125
v 1 0.275 0.66875
v 0.5 0.33125 0.275
v 0.5 0.66875 0.275
v 1 0.66875 0.275
v 1 0.33125 0.275
v 0.5 0.33125 0.259375
v 0.5 0.66875 0.259375
v 1 0.66875 0.259375
v 1 0.33125 0.259375
v 0.5 0.725 0.66875
v 0.5 0.725 0.33125
v 1 0.725 0.33125
v 1 0.725 0.66875
v 0.5 0.740625 0.66875
v 0.5 0.740625 0.33125
v 1 0.740625 0.33125
v 1 0.740625 0.66875
vt 0.30249 0.457495
vt 0.30249 0.505615
vt 0.231201 0.505615
vt 0.231201 0.457495
vt 0.303955 0.505615
vt 0.303955 0.457495
vt 0.375244 0.457495
vt 0.375244 0.505615
vt 0.376709 0.505615
vt 0.376709 0.457495
vt 0.447998 0.457495
vt 0.447998 0.505615
vt 0.520752 0.457495
vt 0.520752 0.505615
vt 0.449463 0.505615
vt 0.449463 0.457495
vt 0.593506 0.457495
vt 0.593506 0.505615
vt 0.522217 0.505615
vt 0.522217 0.457495
vt 0.594971 0.505615
vt 0.594971 0.457495
vt 0.66626 0.457495
vt 0.66626 0.505615
vt 0.667725 0.505615
vt 0.667725 0.457495
vt 0.739014 0.457495
vt 0.739014 0.505615
vt 0.811768 0.457495
vt 0.811768 0.505615
vt 0.740479 0.505615
vt 0.740479 0.457495
vn 0 0 1
vn 0 0 -1
vn 0 -1 0
vn 0 1 0
f 4/1/1 3/2/1 2/3/1 1/4/1
f 5/5/2 6/6/2 7/7/2 8/8/2
f 9/9/3 10/10/3 11/11/3 12/12/3
f 16/13/4 15/14/4 14/15/4 13/16/4
f 20/17/1 19/18/1 18/19/1 17/20/1
f 21/21/2 22/22/2 23/23/2 24/24/2
f 25/25/3 26/26/3 27/27/3 28/28/3
f 32/29/4 31/30/4 30/31/4 29/32/4
