# AFL Fluid Pipe V2 item, generated by tools/build-fluid-pipe-v2.mjs
mtllib heat_resistant_fluid_pipe.mtl
o item_rails
usemtl heat_resistant_fluid_pipe
v 0.33125 0.33125 0.1
v 0.25 0.33125 0.1
v 0.25 0.26875 0.1
v 0.26875 0.25 0.1
v 0.33125 0.25 0.1
v 0.33125 0.33125 0.9
v 0.25 0.33125 0.9
v 0.25 0.26875 0.9
v 0.26875 0.25 0.9
v 0.33125 0.25 0.9
v 0.33125 0.33125 0.1
v 0.25 0.33125 0.1
v 0.25 0.26875 0.1
v 0.26875 0.25 0.1
v 0.33125 0.25 0.1
v 0.33125 0.33125 0.9
v 0.25 0.33125 0.9
v 0.25 0.26875 0.9
v 0.26875 0.25 0.9
v 0.33125 0.25 0.9
v 0.33125 0.75 0.1
v 0.26875 0.75 0.1
v 0.25 0.73125 0.1
v 0.25 0.66875 0.1
v 0.33125 0.66875 0.1
v 0.33125 0.75 0.9
v 0.26875 0.75 0.9
v 0.25 0.73125 0.9
v 0.25 0.66875 0.9
v 0.33125 0.66875 0.9
v 0.33125 0.75 0.1
v 0.26875 0.75 0.1
v 0.25 0.73125 0.1
v 0.25 0.66875 0.1
v 0.33125 0.66875 0.1
v 0.33125 0.75 0.9
v 0.26875 0.75 0.9
v 0.25 0.73125 0.9
v 0.25 0.66875 0.9
v 0.33125 0.66875 0.9
v 0.66875 0.25 0.1
v 0.73125 0.25 0.1
v 0.75 0.26875 0.1
v 0.75 0.33125 0.1
v 0.66875 0.33125 0.1
v 0.66875 0.25 0.9
v 0.73125 0.25 0.9
v 0.75 0.26875 0.9
v 0.75 0.33125 0.9
v 0.66875 0.33125 0.9
v 0.66875 0.25 0.1
v 0.73125 0.25 0.1
v 0.75 0.26875 0.1
v 0.75 0.33125 0.1
v 0.66875 0.33125 0.1
v 0.66875 0.25 0.9
v 0.73125 0.25 0.9
v 0.75 0.26875 0.9
v 0.75 0.33125 0.9
v 0.66875 0.33125 0.9
v 0.66875 0.66875 0.1
v 0.75 0.66875 0.1
v 0.75 0.73125 0.1
v 0.73125 0.75 0.1
v 0.66875 0.75 0.1
v 0.66875 0.66875 0.9
v 0.75 0.66875 0.9
v 0.75 0.73125 0.9
v 0.73125 0.75 0.9
v 0.66875 0.75 0.9
v 0.66875 0.66875 0.1
v 0.75 0.66875 0.1
v 0.75 0.73125 0.1
v 0.73125 0.75 0.1
v 0.66875 0.75 0.1
v 0.66875 0.66875 0.9
v 0.75 0.66875 0.9
v 0.75 0.73125 0.9
v 0.73125 0.75 0.9
v 0.66875 0.75 0.9
vt 0.317139 0.357666
vt 0.317139 0.346082
vt 0.431201 0.346082
vt 0.431201 0.357666
vt 0.233154 0.239502
vt 0.233154 0.230591
vt 0.347217 0.230591
vt 0.347217 0.239502
vt 0.065674 0.087646
vt 0.065674 0.083866
vt 0.179736 0.083866
vt 0.179736 0.087646
vt 0.348877 0.239502
vt 0.348877 0.230591
vt 0.462939 0.230591
vt 0.462939 0.239502
vt 0.432861 0.357666
vt 0.432861 0.346082
vt 0.546924 0.346082
vt 0.546924 0.357666
vt 0.71593 0.290417
vt 0.71593 0.302002
vt 0.704346 0.302002
vt 0.707019 0.290417
vt 0.71593 0.290417
vt 0.704346 0.302002
vt 0.704346 0.302002
vt 0.704346 0.293091
vt 0.707019 0.290417
vt 0.717529 0.290417
vt 0.729114 0.290417
vt 0.729114 0.302002
vt 0.717529 0.290417
vt 0.729114 0.302002
vt 0.720203 0.302002
vt 0.720203 0.302002
vt 0.717529 0.299329
vt 0.717529 0.290417
vt 0.4646 0.239502
vt 0.4646 0.230591
vt 0.578662 0.230591
vt 0.578662 0.239502
vt 0.181396 0.087646
vt 0.181396 0.083866
vt 0.295459 0.083866
vt 0.295459 0.087646
vt 0.580322 0.239502
vt 0.580322 0.230591
vt 0.694385 0.230591
vt 0.694385 0.239502
vt 0.548584 0.357666
vt 0.548584 0.346082
vt 0.662646 0.346082
vt 0.662646 0.357666
vt 0.664307 0.357666
vt 0.664307 0.346082
vt 0.778369 0.346082
vt 0.778369 0.357666
vt 0.663196 0.293091
vt 0.663196 0.302002
vt 0.651611 0.302002
vt 0.660522 0.290417
vt 0.663196 0.293091
vt 0.651611 0.302002
vt 0.651611 0.302002
vt 0.651611 0.290417
vt 0.660522 0.290417
vt 0.664795 0.290417
vt 0.676379 0.290417
vt 0.676379 0.299329
vt 0.664795 0.290417
vt 0.676379 0.299329
vt 0.673706 0.302002
vt 0.673706 0.302002
vt 0.664795 0.302002
vt 0.664795 0.290417
vt 0.696045 0.239502
vt 0.696045 0.230591
vt 0.810107 0.230591
vt 0.810107 0.239502
vt 0.297119 0.087646
vt 0.297119 0.083866
vt 0.411182 0.083866
vt 0.411182 0.087646
vt 0.811768 0.239502
vt 0.811768 0.230591
vt 0.92583 0.230591
vt 0.92583 0.239502
vt 0.780029 0.357666
vt 0.780029 0.346082
vt 0.894092 0.346082
vt 0.894092 0.357666
vt 0.001221 0.341553
vt 0.001221 0.329968
vt 0.115283 0.329968
vt 0.115283 0.341553
vt 0.677979 0.299329
vt 0.677979 0.290417
vt 0.689563 0.290417
vt 0.680652 0.302002
vt 0.677979 0.299329
vt 0.689563 0.290417
vt 0.689563 0.290417
vt 0.689563 0.302002
vt 0.680652 0.302002
vt 0.702747 0.302002
vt 0.691162 0.302002
vt 0.691162 0.293091
vt 0.702747 0.302002
vt 0.691162 0.293091
vt 0.693835 0.290417
vt 0.693835 0.290417
vt 0.702747 0.290417
vt 0.702747 0.302002
vt 0.116943 0.341553
vt 0.116943 0.329968
vt 0.231006 0.329968
vt 0.231006 0.341553
vt 0.001221 0.227295
vt 0.001221 0.218384
vt 0.115283 0.218384
vt 0.115283 0.227295
vt 0.412842 0.087646
vt 0.412842 0.083866
vt 0.526904 0.083866
vt 0.526904 0.087646
vt 0.116943 0.227295
vt 0.116943 0.218384
vt 0.231006 0.218384
vt 0.231006 0.227295
vt 0.232666 0.341553
vt 0.232666 0.329968
vt 0.346729 0.329968
vt 0.346729 0.341553
vt 0.730713 0.302002
vt 0.730713 0.290417
vt 0.742297 0.290417
vt 0.739624 0.302002
vt 0.730713 0.302002
vt 0.742297 0.290417
vt 0.742297 0.290417
vt 0.742297 0.299329
vt 0.739624 0.302002
vt 0.755481 0.302002
vt 0.743896 0.302002
vt 0.743896 0.290417
vt 0.755481 0.302002
vt 0.743896 0.290417
vt 0.752808 0.290417
vt 0.752808 0.290417
vt 0.755481 0.293091
vt 0.755481 0.302002
vn 0 1 0
vn -1 0 0
vn -0.707107 -0.707107 0
vn 0 -1 0
vn 1 0 0
vn 0 0 -1
vn 0 0 1
vn -0.707107 0.707107 0
vn 0.707107 -0.707107 0
vn 0.707107 0.707107 0
f 1/1/1 2/2/1 7/3/1 6/4/1
f 2/5/2 3/6/2 8/7/2 7/8/2
f 3/9/3 4/10/3 9/11/3 8/12/3
f 4/13/4 5/14/4 10/15/4 9/16/4
f 5/17/5 1/18/5 6/19/5 10/20/5
f 12/21/6 11/22/6 15/23/6
f 13/24/6 12/25/6 15/26/6
f 15/27/6 14/28/6 13/29/6
f 20/30/7 16/31/7 17/32/7
f 20/33/7 17/34/7 18/35/7
f 18/36/7 19/37/7 20/38/7
f 21/39/1 22/40/1 27/41/1 26/42/1
f 22/43/8 23/44/8 28/45/8 27/46/8
f 23/47/2 24/48/2 29/49/2 28/50/2
f 24/51/4 25/52/4 30/53/4 29/54/4
f 25/55/5 21/56/5 26/57/5 30/58/5
f 32/59/6 31/60/6 35/61/6
f 33/62/6 32/63/6 35/64/6
f 35/65/6 34/66/6 33/67/6
f 40/68/7 36/69/7 37/70/7
f 40/71/7 37/72/7 38/73/7
f 38/74/7 39/75/7 40/76/7
f 41/77/4 42/78/4 47/79/4 46/80/4
f 42/81/9 43/82/9 48/83/9 47/84/9
f 43/85/5 44/86/5 49/87/5 48/88/5
f 44/89/1 45/90/1 50/91/1 49/92/1
f 45/93/2 41/94/2 46/95/2 50/96/2
f 52/97/6 51/98/6 55/99/6
f 53/100/6 52/101/6 55/102/6
f 55/103/6 54/104/6 53/105/6
f 60/106/7 56/107/7 57/108/7
f 60/109/7 57/110/7 58/111/7
f 58/112/7 59/113/7 60/114/7
f 61/115/4 62/116/4 67/117/4 66/118/4
f 62/119/5 63/120/5 68/121/5 67/122/5
f 63/123/10 64/124/10 69/125/10 68/126/10
f 64/127/1 65/128/1 70/129/1 69/130/1
f 65/131/2 61/132/2 66/133/2 70/134/2
f 72/135/6 71/136/6 75/137/6
f 73/138/6 72/139/6 75/140/6
f 75/141/6 74/142/6 73/143/6
f 80/144/7 76/145/7 77/146/7
f 80/147/7 77/148/7 78/149/7
f 78/150/7 79/151/7 80/152/7
o item_panes
usemtl heat_resistant_fluid_pipe
v 0.259375 0.33125 0.1
v 0.259375 0.66875 0.1
v 0.259375 0.66875 0.9
v 0.259375 0.33125 0.9
v 0.275 0.33125 0.1
v 0.275 0.66875 0.1
v 0.275 0.66875 0.9
v 0.275 0.33125 0.9
v 0.33125 0.259375 0.1
v 0.66875 0.259375 0.1
v 0.66875 0.259375 0.9
v 0.33125 0.259375 0.9
v 0.33125 0.275 0.1
v 0.66875 0.275 0.1
v 0.66875 0.275 0.9
v 0.33125 0.275 0.9
v 0.725 0.33125 0.1
v 0.725 0.66875 0.1
v 0.725 0.66875 0.9
v 0.725 0.33125 0.9
v 0.740625 0.33125 0.1
v 0.740625 0.66875 0.1
v 0.740625 0.66875 0.9
v 0.740625 0.33125 0.9
v 0.33125 0.725 0.1
v 0.66875 0.725 0.1
v 0.66875 0.725 0.9
v 0.33125 0.725 0.9
v 0.33125 0.740625 0.1
v 0.66875 0.740625 0.1
v 0.66875 0.740625 0.9
v 0.33125 0.740625 0.9
vt 0.676807 0.580054
vt 0.676807 0.628174
vt 0.562744 0.628174
vt 0.562744 0.580054
vt 0.678467 0.628174
vt 0.678467 0.580054
vt 0.792529 0.580054
vt 0.792529 0.628174
vt 0.794189 0.628174
vt 0.794189 0.580054
vt 0.908252 0.580054
vt 0.908252 0.628174
vt 0.115283 0.5073
vt 0.115283 0.55542
vt 0.001221 0.55542
vt 0.001221 0.5073
vt 0.231006 0.5073
vt 0.231006 0.55542
vt 0.116943 0.55542
vt 0.116943 0.5073
vt 0.232666 0.55542
vt 0.232666 0.5073
vt 0.346729 0.5073
vt 0.346729 0.55542
vt 0.348389 0.55542
vt 0.348389 0.5073
vt 0.462451 0.5073
vt 0.462451 0.55542
vt 0.578174 0.5073
vt 0.578174 0.55542
vt 0.464111 0.55542
vt 0.464111 0.5073
vn -1 0 0
vn 1 0 0
vn 0 -1 0
vn 0 1 0
f 84/153/11 83/154/11 82/155/11 81/156/11
f 85/157/12 86/158/12 87/159/12 88/160/12
f 89/161/13 90/162/13 91/163/13 92/164/13
f 96/165/14 95/166/14 94/167/14 93/168/14
f 100/169/11 99/170/11 98/171/11 97/172/11
f 101/173/12 102/174/12 103/175/12 104/176/12
f 105/177/13 106/178/13 107/179/13 108/180/13
f 112/181/14 111/182/14 110/183/14 109/184/14
o item_band
usemtl heat_resistant_fluid_pipe
v 0.21875 0.21875 0.44375
v 0.78125 0.21875 0.44375
v 0.78125 0.78125 0.44375
v 0.21875 0.78125 0.44375
v 0.2125 0.2125 0.45
v 0.7875 0.2125 0.45
v 0.7875 0.7875 0.45
v 0.2125 0.7875 0.45
v 0.2125 0.2125 0.55
v 0.7875 0.2125 0.55
v 0.7875 0.7875 0.55
v 0.2125 0.7875 0.55
v 0.21875 0.21875 0.55625
v 0.78125 0.21875 0.55625
v 0.78125 0.78125 0.55625
v 0.21875 0.78125 0.55625
v 0.24375 0.75625 0.44375
v 0.75625 0.75625 0.44375
v 0.75625 0.24375 0.44375
v 0.24375 0.24375 0.44375
v 0.25 0.75 0.45
v 0.75 0.75 0.45
v 0.75 0.25 0.45
v 0.25 0.25 0.45
v 0.25 0.75 0.55
v 0.75 0.75 0.55
v 0.75 0.25 0.55
v 0.25 0.25 0.55
v 0.24375 0.75625 0.55625
v 0.75625 0.75625 0.55625
v 0.75625 0.24375 0.55625
v 0.24375 0.24375 0.55625
v 0.21875 0.21875 0.44375
v 0.78125 0.21875 0.44375
v 0.78125 0.78125 0.44375
v 0.21875 0.78125 0.44375
v 0.24375 0.75625 0.44375
v 0.75625 0.75625 0.44375
v 0.75625 0.24375 0.44375
v 0.24375 0.24375 0.44375
v 0.21875 0.21875 0.55625
v 0.78125 0.21875 0.55625
v 0.78125 0.78125 0.55625
v 0.21875 0.78125 0.55625
v 0.24375 0.75625 0.55625
v 0.75625 0.75625 0.55625
v 0.75625 0.24375 0.55625
v 0.24375 0.24375 0.55625
vt 0.419592 0.044394
vt 0.499792 0.044394
vt 0.500684 0.045654
vt 0.418701 0.045654
vt 0.757971 0.023886
vt 0.838171 0.023886
vt 0.839063 0.025146
vt 0.75708 0.025146
vt 0.503088 0.044394
vt 0.583289 0.044394
vt 0.58418 0.045654
vt 0.502197 0.045654
vt 0.841467 0.023886
vt 0.921667 0.023886
vt 0.922559 0.025146
vt 0.840576 0.025146
vt 0.251709 0.359521
vt 0.333691 0.359521
vt 0.333691 0.373779
vt 0.251709 0.373779
vt 0.335205 0.359521
vt 0.417187 0.359521
vt 0.417187 0.373779
vt 0.335205 0.373779
vt 0.418701 0.359521
vt 0.500684 0.359521
vt 0.500684 0.373779
vt 0.418701 0.373779
vt 0.502197 0.359521
vt 0.58418 0.359521
vt 0.58418 0.373779
vt 0.502197 0.373779
vt 0.585693 0.044394
vt 0.667676 0.044394
vt 0.666785 0.045654
vt 0.586584 0.045654
vt 0.669189 0.044394
vt 0.751172 0.044394
vt 0.750281 0.045654
vt 0.670081 0.045654
vt 0.752686 0.044394
vt 0.834668 0.044394
vt 0.833777 0.045654
vt 0.753577 0.045654
vt 0.836182 0.044394
vt 0.918164 0.044394
vt 0.917273 0.045654
vt 0.837073 0.045654
vt 0.52417 0.041464
vt 0.597241 0.041464
vt 0.59635 0.042725
vt 0.525061 0.042725
vt 0.822998 0.020957
vt 0.896069 0.020957
vt 0.895178 0.022217
vt 0.823889 0.022217
vt 0.598877 0.041464
vt 0.671948 0.041464
vt 0.671057 0.042725
vt 0.599768 0.042725
vt 0.897705 0.020957
vt 0.970776 0.020957
vt 0.969885 0.022217
vt 0.898596 0.022217
vt 0.876709 0.359521
vt 0.947998 0.359521
vt 0.947998 0.373779
vt 0.876709 0.373779
vt 0.001221 0.343408
vt 0.07251 0.343408
vt 0.07251 0.357666
vt 0.001221 0.357666
vt 0.073975 0.343408
vt 0.145264 0.343408
vt 0.145264 0.357666
vt 0.073975 0.357666
vt 0.146729 0.343408
vt 0.218018 0.343408
vt 0.218018 0.357666
vt 0.146729 0.357666
vt 0.674475 0.041464
vt 0.745764 0.041464
vt 0.746655 0.042725
vt 0.673584 0.042725
vt 0.002112 0.018027
vt 0.073401 0.018027
vt 0.074292 0.019287
vt 0.001221 0.019287
vt 0.749182 0.041464
vt 0.820471 0.041464
vt 0.821362 0.042725
vt 0.748291 0.042725
vt 0.076819 0.018027
vt 0.148108 0.018027
vt 0.148999 0.019287
vt 0.075928 0.019287
vt 0.98313 0.802832
vt 0.986694 0.806396
vt 0.906494 0.806396
vt 0.910059 0.802832
vt 0.98313 0.802832
vt 0.906494 0.806396
vt 0.910059 0.802832
vt 0.906494 0.806396
vt 0.906494 0.726196
vt 0.910059 0.729761
vt 0.910059 0.802832
vt 0.906494 0.726196
vt 0.910059 0.729761
vt 0.906494 0.726196
vt 0.986694 0.726196
vt 0.98313 0.729761
vt 0.910059 0.729761
vt 0.986694 0.726196
vt 0.98313 0.802832
vt 0.98313 0.729761
vt 0.986694 0.726196
vt 0.986694 0.726196
vt 0.986694 0.806396
vt 0.98313 0.802832
vt 0.001221 0.630005
vt 0.081421 0.630005
vt 0.077856 0.633569
vt 0.001221 0.630005
vt 0.077856 0.633569
vt 0.004785 0.633569
vt 0.001221 0.710205
vt 0.001221 0.630005
vt 0.004785 0.633569
vt 0.001221 0.710205
vt 0.004785 0.633569
vt 0.004785 0.706641
vt 0.081421 0.710205
vt 0.001221 0.710205
vt 0.004785 0.706641
vt 0.081421 0.710205
vt 0.004785 0.706641
vt 0.077856 0.706641
vt 0.081421 0.710205
vt 0.077856 0.706641
vt 0.077856 0.633569
vt 0.077856 0.633569
vt 0.081421 0.630005
vt 0.081421 0.710205
vn 0 -0.707107 -0.707107
vn 0.707107 0 -0.707107
vn 0 0.707107 -0.707107
vn -0.707107 0 -0.707107
vn 0 -1 0
vn 1 0 0
vn 0 1 0
vn -1 0 0
vn 0 -0.707107 0.707107
vn 0.707107 0 0.707107
vn 0 0.707107 0.707107
vn -0.707107 0 0.707107
vn 0 0 -1
vn 0 0 1
f 113/185/15 114/186/15 118/187/15 117/188/15
f 114/189/16 115/190/16 119/191/16 118/192/16
f 115/193/17 116/194/17 120/195/17 119/196/17
f 116/197/18 113/198/18 117/199/18 120/200/18
f 117/201/19 118/202/19 122/203/19 121/204/19
f 118/205/20 119/206/20 123/207/20 122/208/20
f 119/209/21 120/210/21 124/211/21 123/212/21
f 120/213/22 117/214/22 121/215/22 124/216/22
f 121/217/23 122/218/23 126/219/23 125/220/23
f 122/221/24 123/222/24 127/223/24 126/224/24
f 123/225/25 124/226/25 128/227/25 127/228/25
f 124/229/26 121/230/26 125/231/26 128/232/26
f 129/233/15 130/234/15 134/235/15 133/236/15
f 130/237/18 131/238/18 135/239/18 134/240/18
f 131/241/17 132/242/17 136/243/17 135/244/17
f 132/245/16 129/246/16 133/247/16 136/248/16
f 133/249/19 134/250/19 138/251/19 137/252/19
f 134/253/22 135/254/22 139/255/22 138/256/22
f 135/257/21 136/258/21 140/259/21 139/260/21
f 136/261/20 133/262/20 137/263/20 140/264/20
f 137/265/23 138/266/23 142/267/23 141/268/23
f 138/269/26 139/270/26 143/271/26 142/272/26
f 139/273/25 140/274/25 144/275/25 143/276/25
f 140/277/24 137/278/24 141/279/24 144/280/24
f 150/281/27 147/282/27 146/283/27
f 151/284/27 150/285/27 146/286/27
f 151/287/27 146/288/27 145/289/27
f 152/290/27 151/291/27 145/292/27
f 152/293/27 145/294/27 148/295/27
f 149/296/27 152/297/27 148/298/27
f 150/299/27 149/300/27 148/301/27
f 148/302/27 147/303/27 150/304/27
f 154/305/28 155/306/28 158/307/28
f 154/308/28 158/309/28 159/310/28
f 153/311/28 154/312/28 159/313/28
f 153/314/28 159/315/28 160/316/28
f 156/317/28 153/318/28 160/319/28
f 156/320/28 160/321/28 157/322/28
f 156/323/28 157/324/28 158/325/28
f 158/326/28 155/327/28 156/328/28
o item_band_bolt
usemtl heat_resistant_fluid_pipe
v 0.520568 0.818125 0.48125
v 0.5 0.83 0.48125
v 0.479432 0.818125 0.48125
v 0.479432 0.794375 0.48125
v 0.5 0.7825 0.48125
v 0.520568 0.794375 0.48125
v 0.520568 0.818125 0.51875
v 0.5 0.83 0.51875
v 0.479432 0.818125 0.51875
v 0.479432 0.794375 0.51875
v 0.5 0.7825 0.51875
v 0.520568 0.794375 0.51875
v 0.520568 0.818125 0.48125
v 0.5 0.83 0.48125
v 0.479432 0.818125 0.48125
v 0.479432 0.794375 0.48125
v 0.5 0.7825 0.48125
v 0.520568 0.794375 0.48125
v 0.520568 0.818125 0.51875
v 0.5 0.83 0.51875
v 0.479432 0.818125 0.51875
v 0.479432 0.794375 0.51875
v 0.5 0.7825 0.51875
v 0.520568 0.794375 0.51875
vt 0.932861 0.081299
vt 0.932861 0.077913
vt 0.938208 0.077913
vt 0.938208 0.081299
vt 0.905518 0.081299
vt 0.905518 0.077913
vt 0.910864 0.077913
vt 0.910864 0.081299
vt 0.871338 0.081299
vt 0.871338 0.077913
vt 0.876685 0.077913
vt 0.876685 0.081299
vt 0.912354 0.081299
vt 0.912354 0.077913
vt 0.9177 0.077913
vt 0.9177 0.081299
vt 0.919189 0.081299
vt 0.919189 0.077913
vt 0.924536 0.077913
vt 0.924536 0.081299
vt 0.878174 0.081299
vt 0.878174 0.077913
vt 0.883521 0.077913
vt 0.883521 0.081299
vt 0.857603 0.14819
vt 0.855909 0.151123
vt 0.852523 0.151123
vt 0.855909 0.145258
vt 0.857603 0.14819
vt 0.852523 0.151123
vt 0.852523 0.145258
vt 0.855909 0.145258
vt 0.852523 0.151123
vt 0.852523 0.151123
vt 0.85083 0.14819
vt 0.852523 0.145258
vt 0.860824 0.145258
vt 0.86421 0.145258
vt 0.865903 0.14819
vt 0.860824 0.145258
vt 0.865903 0.14819
vt 0.86421 0.151123
vt 0.860824 0.145258
vt 0.86421 0.151123
vt 0.860824 0.151123
vt 0.860824 0.151123
vt 0.859131 0.14819
vt 0.860824 0.145258
vn 0.5 0.866025 0
vn -0.5 0.866025 0
vn -1 0 0
vn -0.5 -0.866025 0
vn 0.5 -0.866025 0
vn 1 0 0
vn 0 0 -1
vn 0 0 1
f 161/329/29 162/330/29 168/331/29 167/332/29
f 162/333/30 163/334/30 169/335/30 168/336/30
f 163/337/31 164/338/31 170/339/31 169/340/31
f 164/341/32 165/342/32 171/343/32 170/344/32
f 165/345/33 166/346/33 172/347/33 171/348/33
f 166/349/34 161/350/34 167/351/34 172/352/34
f 174/353/35 173/354/35 178/355/35
f 175/356/35 174/357/35 178/358/35
f 176/359/35 175/360/35 178/361/35
f 178/362/35 177/363/35 176/364/35
f 184/365/36 179/366/36 180/367/36
f 184/368/36 180/369/36 181/370/36
f 184/371/36 181/372/36 182/373/36
f 182/374/36 183/375/36 184/376/36
o item_band_lug
usemtl heat_resistant_fluid_pipe
v 0.453125 0.7875 0.471875
v 0.546875 0.7875 0.471875
v 0.546875 0.7875 0.528125
v 0.453125 0.7875 0.528125
v 0.453125 0.80625 0.471875
v 0.546875 0.80625 0.471875
v 0.546875 0.80625 0.528125
v 0.453125 0.80625 0.528125
v 0.453125 0.7875 0.471875
v 0.546875 0.7875 0.471875
v 0.546875 0.80625 0.471875
v 0.453125 0.80625 0.471875
v 0.453125 0.7875 0.528125
v 0.546875 0.7875 0.528125
v 0.546875 0.80625 0.528125
v 0.453125 0.80625 0.528125
v 0.453125 0.7875 0.471875
v 0.453125 0.7875 0.528125
v 0.453125 0.80625 0.528125
v 0.453125 0.80625 0.471875
v 0.546875 0.7875 0.471875
v 0.546875 0.7875 0.528125
v 0.546875 0.80625 0.528125
v 0.546875 0.80625 0.471875
vt 0.898682 0.197791
vt 0.912048 0.197791
vt 0.912048 0.205811
vt 0.898682 0.205811
vt 0.927185 0.205811
vt 0.913818 0.205811
vt 0.913818 0.197791
vt 0.927185 0.197791
vt 0.146912 0.071045
vt 0.133545 0.071045
vt 0.133545 0.068372
vt 0.146912 0.068372
vt 0.148682 0.068372
vt 0.162048 0.068372
vt 0.162048 0.071045
vt 0.148682 0.071045
vt 0.18335 0.068372
vt 0.19137 0.068372
vt 0.19137 0.071045
vt 0.18335 0.071045
vt 0.193115 0.068372
vt 0.201135 0.068372
vt 0.201135 0.071045
vt 0.193115 0.071045
vn 0 -1 0
vn 0 1 0
vn 0 0 -1
vn 0 0 1
vn -1 0 0
vn 1 0 0
f 185/377/37 186/378/37 187/379/37 188/380/37
f 192/381/38 191/382/38 190/383/38 189/384/38
f 196/385/39 195/386/39 194/387/39 193/388/39
f 197/389/40 198/390/40 199/391/40 200/392/40
f 201/393/41 202/394/41 203/395/41 204/396/41
f 208/397/42 207/398/42 206/399/42 205/400/42
o item_blind-1
usemtl heat_resistant_fluid_pipe
v 0.16875 0.16875 0
v 0.83125 0.16875 0
v 0.83125 0.83125 0
v 0.16875 0.83125 0
v 0.1625 0.1625 0.00625
v 0.8375 0.1625 0.00625
v 0.8375 0.8375 0.00625
v 0.1625 0.8375 0.00625
v 0.1625 0.1625 0.04375
v 0.8375 0.1625 0.04375
v 0.8375 0.8375 0.04375
v 0.1625 0.8375 0.04375
v 0.16875 0.16875 0.05
v 0.83125 0.16875 0.05
v 0.83125 0.83125 0.05
v 0.16875 0.83125 0.05
v 0.16875 0.16875 0
v 0.83125 0.16875 0
v 0.83125 0.83125 0
v 0.16875 0.83125 0
v 0.16875 0.16875 0.05
v 0.83125 0.16875 0.05
v 0.83125 0.83125 0.05
v 0.16875 0.83125 0.05
vt 0.100256 0.053183
vt 0.194714 0.053183
vt 0.195605 0.054443
vt 0.099365 0.054443
vt 0.198401 0.023886
vt 0.292859 0.023886
vt 0.29375 0.025146
vt 0.19751 0.025146
vt 0.198401 0.053183
vt 0.292859 0.053183
vt 0.29375 0.054443
vt 0.19751 0.054443
vt 0.296545 0.023886
vt 0.391003 0.023886
vt 0.391895 0.025146
vt 0.295654 0.025146
vt 0.884521 0.130151
vt 0.980762 0.130151
vt 0.980762 0.135498
vt 0.884521 0.135498
vt 0.001221 0.123315
vt 0.097461 0.123315
vt 0.097461 0.128662
vt 0.001221 0.128662
vt 0.099365 0.123315
vt 0.195605 0.123315
vt 0.195605 0.128662
vt 0.099365 0.128662
vt 0.19751 0.123315
vt 0.29375 0.123315
vt 0.29375 0.128662
vt 0.19751 0.128662
vt 0.491943 0.015097
vt 0.588184 0.015097
vt 0.587292 0.016357
vt 0.492834 0.016357
vt 0.295654 0.053183
vt 0.391895 0.053183
vt 0.391003 0.054443
vt 0.296545 0.054443
vt 0.590088 0.015097
vt 0.686328 0.015097
vt 0.685437 0.016357
vt 0.590979 0.016357
vt 0.393799 0.053183
vt 0.490039 0.053183
vt 0.489148 0.054443
vt 0.39469 0.054443
vt 0.770752 0.902588
vt 0.770752 0.80813
vt 0.86521 0.80813
vt 0.86521 0.80813
vt 0.86521 0.902588
vt 0.770752 0.902588
vt 0.961401 0.902588
vt 0.866943 0.902588
vt 0.866943 0.80813
vt 0.866943 0.80813
vt 0.961401 0.80813
vt 0.961401 0.902588
vn 0 -0.707107 -0.707107
vn 0.707107 0 -0.707107
vn 0 0.707107 -0.707107
vn -0.707107 0 -0.707107
vn 0 -1 0
vn 1 0 0
vn 0 1 0
vn -1 0 0
vn 0 -0.707107 0.707107
vn 0.707107 0 0.707107
vn 0 0.707107 0.707107
vn -0.707107 0 0.707107
vn 0 0 -1
vn 0 0 1
f 209/401/43 210/402/43 214/403/43 213/404/43
f 210/405/44 211/406/44 215/407/44 214/408/44
f 211/409/45 212/410/45 216/411/45 215/412/45
f 212/413/46 209/414/46 213/415/46 216/416/46
f 213/417/47 214/418/47 218/419/47 217/420/47
f 214/421/48 215/422/48 219/423/48 218/424/48
f 215/425/49 216/426/49 220/427/49 219/428/49
f 216/429/50 213/430/50 217/431/50 220/432/50
f 217/433/51 218/434/51 222/435/51 221/436/51
f 218/437/52 219/438/52 223/439/52 222/440/52
f 219/441/53 220/442/53 224/443/53 223/444/53
f 220/445/54 217/446/54 221/447/54 224/448/54
f 226/449/55 225/450/55 228/451/55
f 228/452/55 227/453/55 226/454/55
f 232/455/56 229/456/56 230/457/56
f 230/458/56 231/459/56 232/460/56
o item_flange-1
usemtl heat_resistant_fluid_pipe
v 0.16875 0.16875 0.05
v 0.83125 0.16875 0.05
v 0.83125 0.83125 0.05
v 0.16875 0.83125 0.05
v 0.1625 0.1625 0.05625
v 0.8375 0.1625 0.05625
v 0.8375 0.8375 0.05625
v 0.1625 0.8375 0.05625
v 0.1625 0.1625 0.09375
v 0.8375 0.1625 0.09375
v 0.8375 0.8375 0.09375
v 0.1625 0.8375 0.09375
v 0.16875 0.16875 0.1
v 0.83125 0.16875 0.1
v 0.83125 0.83125 0.1
v 0.16875 0.83125 0.1
v 0.24375 0.75625 0.05
v 0.75625 0.75625 0.05
v 0.75625 0.24375 0.05
v 0.24375 0.24375 0.05
v 0.25 0.75 0.05625
v 0.75 0.75 0.05625
v 0.75 0.25 0.05625
v 0.25 0.25 0.05625
v 0.25 0.75 0.09375
v 0.75 0.75 0.09375
v 0.75 0.25 0.09375
v 0.25 0.25 0.09375
v 0.24375 0.75625 0.1
v 0.75625 0.75625 0.1
v 0.75625 0.24375 0.1
v 0.24375 0.24375 0.1
v 0.16875 0.16875 0.05
v 0.83125 0.16875 0.05
v 0.83125 0.83125 0.05
v 0.16875 0.83125 0.05
v 0.24375 0.75625 0.05
v 0.75625 0.75625 0.05
v 0.75625 0.24375 0.05
v 0.24375 0.24375 0.05
v 0.16875 0.16875 0.1
v 0.83125 0.16875 0.1
v 0.83125 0.83125 0.1
v 0.16875 0.83125 0.1
v 0.24375 0.75625 0.1
v 0.75625 0.75625 0.1
v 0.75625 0.24375 0.1
v 0.24375 0.24375 0.1
vt 0.492834 0.053183
vt 0.587292 0.053183
vt 0.588184 0.054443
vt 0.491943 0.054443
vt 0.590979 0.053183
vt 0.685437 0.053183
vt 0.686328 0.054443
vt 0.590088 0.054443
vt 0.689124 0.053183
vt 0.783582 0.053183
vt 0.784473 0.054443
vt 0.688232 0.054443
vt 0.787268 0.053183
vt 0.881726 0.053183
vt 0.882617 0.054443
vt 0.786377 0.054443
vt 0.295654 0.123315
vt 0.391895 0.123315
vt 0.391895 0.128662
vt 0.295654 0.128662
vt 0.393799 0.123315
vt 0.490039 0.123315
vt 0.490039 0.128662
vt 0.393799 0.128662
vt 0.491943 0.123315
vt 0.588184 0.123315
vt 0.588184 0.128662
vt 0.491943 0.128662
vt 0.590088 0.123315
vt 0.686328 0.123315
vt 0.686328 0.128662
vt 0.590088 0.128662
vt 0.884521 0.053183
vt 0.980762 0.053183
vt 0.979871 0.054443
vt 0.885413 0.054443
vt 0.001221 0.050253
vt 0.097461 0.050253
vt 0.09657 0.051514
vt 0.002112 0.051514
vt 0.099365 0.050253
vt 0.195605 0.050253
vt 0.194714 0.051514
vt 0.100256 0.051514
vt 0.19751 0.050253
vt 0.29375 0.050253
vt 0.292859 0.051514
vt 0.198401 0.051514
vt 0.449463 0.032675
vt 0.522534 0.032675
vt 0.521643 0.033936
vt 0.450354 0.033936
vt 0.543213 0.018027
vt 0.616284 0.018027
vt 0.615393 0.019287
vt 0.544104 0.019287
vt 0.52417 0.032675
vt 0.597241 0.032675
vt 0.59635 0.033936
vt 0.525061 0.033936
vt 0.61792 0.018027
vt 0.690991 0.018027
vt 0.6901 0.019287
vt 0.618811 0.019287
vt 0.073975 0.102808
vt 0.145264 0.102808
vt 0.145264 0.108154
vt 0.073975 0.108154
vt 0.146729 0.102808
vt 0.218018 0.102808
vt 0.218018 0.108154
vt 0.146729 0.108154
vt 0.219482 0.102808
vt 0.290771 0.102808
vt 0.290771 0.108154
vt 0.219482 0.108154
vt 0.292236 0.102808
vt 0.363525 0.102808
vt 0.363525 0.108154
vt 0.292236 0.108154
vt 0.599768 0.032675
vt 0.671057 0.032675
vt 0.671948 0.033936
vt 0.598877 0.033936
vt 0.823889 0.029746
vt 0.895178 0.029746
vt 0.896069 0.031006
vt 0.822998 0.031006
vt 0.674475 0.032675
vt 0.745764 0.032675
vt 0.746655 0.033936
vt 0.673584 0.033936
vt 0.898596 0.029746
vt 0.969885 0.029746
vt 0.970776 0.031006
vt 0.897705 0.031006
vt 0.084985 0.795703
vt 0.095679 0.806396
vt 0.001221 0.806396
vt 0.011914 0.795703
vt 0.084985 0.795703
vt 0.001221 0.806396
vt 0.011914 0.795703
vt 0.001221 0.806396
vt 0.001221 0.711938
vt 0.011914 0.722632
vt 0.011914 0.795703
vt 0.001221 0.711938
vt 0.011914 0.722632
vt 0.001221 0.711938
vt 0.095679 0.711938
vt 0.084985 0.722632
vt 0.011914 0.722632
vt 0.095679 0.711938
vt 0.084985 0.795703
vt 0.084985 0.722632
vt 0.095679 0.711938
vt 0.095679 0.711938
vt 0.095679 0.806396
vt 0.084985 0.795703
vt 0.097412 0.711938
vt 0.19187 0.711938
vt 0.181177 0.722632
vt 0.097412 0.711938
vt 0.181177 0.722632
vt 0.108105 0.722632
vt 0.097412 0.806396
vt 0.097412 0.711938
vt 0.108105 0.722632
vt 0.097412 0.806396
vt 0.108105 0.722632
vt 0.108105 0.795703
vt 0.19187 0.806396
vt 0.097412 0.806396
vt 0.108105 0.795703
vt 0.19187 0.806396
vt 0.108105 0.795703
vt 0.181177 0.795703
vt 0.19187 0.806396
vt 0.181177 0.795703
vt 0.181177 0.722632
vt 0.181177 0.722632
vt 0.19187 0.711938
vt 0.19187 0.806396
vn 0 -0.707107 -0.707107
vn 0.707107 0 -0.707107
vn 0 0.707107 -0.707107
vn -0.707107 0 -0.707107
vn 0 -1 0
vn 1 0 0
vn 0 1 0
vn -1 0 0
vn 0 -0.707107 0.707107
vn 0.707107 0 0.707107
vn 0 0.707107 0.707107
vn -0.707107 0 0.707107
vn 0 0 -1
vn 0 0 1
f 233/461/57 234/462/57 238/463/57 237/464/57
f 234/465/58 235/466/58 239/467/58 238/468/58
f 235/469/59 236/470/59 240/471/59 239/472/59
f 236/473/60 233/474/60 237/475/60 240/476/60
f 237/477/61 238/478/61 242/479/61 241/480/61
f 238/481/62 239/482/62 243/483/62 242/484/62
f 239/485/63 240/486/63 244/487/63 243/488/63
f 240/489/64 237/490/64 241/491/64 244/492/64
f 241/493/65 242/494/65 246/495/65 245/496/65
f 242/497/66 243/498/66 247/499/66 246/500/66
f 243/501/67 244/502/67 248/503/67 247/504/67
f 244/505/68 241/506/68 245/507/68 248/508/68
f 249/509/57 250/510/57 254/511/57 253/512/57
f 250/513/60 251/514/60 255/515/60 254/516/60
f 251/517/59 252/518/59 256/519/59 255/520/59
f 252/521/58 249/522/58 253/523/58 256/524/58
f 253/525/61 254/526/61 258/527/61 257/528/61
f 254/529/64 255/530/64 259/531/64 258/532/64
f 255/533/63 256/534/63 260/535/63 259/536/63
f 256/537/62 253/538/62 257/539/62 260/540/62
f 257/541/65 258/542/65 262/543/65 261/544/65
f 258/545/68 259/546/68 263/547/68 262/548/68
f 259/549/67 260/550/67 264/551/67 263/552/67
f 260/553/66 257/554/66 261/555/66 264/556/66
f 270/557/69 267/558/69 266/559/69
f 271/560/69 270/561/69 266/562/69
f 271/563/69 266/564/69 265/565/69
f 272/566/69 271/567/69 265/568/69
f 272/569/69 265/570/69 268/571/69
f 269/572/69 272/573/69 268/574/69
f 270/575/69 269/576/69 268/577/69
f 268/578/69 267/579/69 270/580/69
f 274/581/70 275/582/70 278/583/70
f 274/584/70 278/585/70 279/586/70
f 273/587/70 274/588/70 279/589/70
f 273/590/70 279/591/70 280/592/70
f 276/593/70 273/594/70 280/595/70
f 276/596/70 280/597/70 277/598/70
f 276/599/70 277/600/70 278/601/70
f 278/602/70 275/603/70 276/604/70
o item_flange-1_lining
usemtl heat_resistant_fluid_pipe
v 0.25125 0.25125 0.05
v 0.74875 0.25125 0.05
v 0.74875 0.74875 0.05
v 0.25125 0.74875 0.05
v 0.25125 0.25125 0.1
v 0.74875 0.25125 0.1
v 0.74875 0.74875 0.1
v 0.25125 0.74875 0.1
v 0.28125 0.71875 0.05
v 0.71875 0.71875 0.05
v 0.71875 0.28125 0.05
v 0.28125 0.28125 0.05
v 0.28125 0.71875 0.1
v 0.71875 0.71875 0.1
v 0.71875 0.28125 0.1
v 0.28125 0.28125 0.1
v 0.25125 0.25125 0.05
v 0.74875 0.25125 0.05
v 0.74875 0.74875 0.05
v 0.25125 0.74875 0.05
v 0.28125 0.71875 0.05
v 0.71875 0.71875 0.05
v 0.71875 0.28125 0.05
v 0.28125 0.28125 0.05
v 0.25125 0.25125 0.1
v 0.74875 0.25125 0.1
v 0.74875 0.74875 0.1
v 0.25125 0.74875 0.1
v 0.28125 0.71875 0.1
v 0.71875 0.71875 0.1
v 0.71875 0.28125 0.1
v 0.28125 0.28125 0.1
vt 0.656006 0.170361
vt 0.726938 0.170361
vt 0.726938 0.17749
vt 0.656006 0.17749
vt 0.72876 0.170361
vt 0.799692 0.170361
vt 0.799692 0.17749
vt 0.72876 0.17749
vt 0.801514 0.170361
vt 0.872446 0.170361
vt 0.872446 0.17749
vt 0.801514 0.17749
vt 0.874268 0.170361
vt 0.9452 0.170361
vt 0.9452 0.17749
vt 0.874268 0.17749
vt 0.576904 0.152783
vt 0.639282 0.152783
vt 0.639282 0.159912
vt 0.576904 0.159912
vt 0.640869 0.152783
vt 0.703247 0.152783
vt 0.703247 0.159912
vt 0.640869 0.159912
vt 0.704834 0.152783
vt 0.767212 0.152783
vt 0.767212 0.159912
vt 0.704834 0.159912
vt 0.768799 0.152783
vt 0.831177 0.152783
vt 0.831177 0.159912
vt 0.768799 0.159912
vt 0.213384 0.623896
vt 0.217661 0.628174
vt 0.146729 0.628174
vt 0.151006 0.623896
vt 0.213384 0.623896
vt 0.146729 0.628174
vt 0.151006 0.623896
vt 0.146729 0.628174
vt 0.146729 0.557241
vt 0.151006 0.561519
vt 0.151006 0.623896
vt 0.146729 0.557241
vt 0.151006 0.561519
vt 0.146729 0.557241
vt 0.217661 0.557241
vt 0.213384 0.561519
vt 0.151006 0.561519
vt 0.217661 0.557241
vt 0.213384 0.623896
vt 0.213384 0.561519
vt 0.217661 0.557241
vt 0.217661 0.557241
vt 0.217661 0.628174
vt 0.213384 0.623896
vt 0.219482 0.557241
vt 0.290415 0.557241
vt 0.286138 0.561519
vt 0.219482 0.557241
vt 0.286138 0.561519
vt 0.22376 0.561519
vt 0.219482 0.628174
vt 0.219482 0.557241
vt 0.22376 0.561519
vt 0.219482 0.628174
vt 0.22376 0.561519
vt 0.22376 0.623896
vt 0.290415 0.628174
vt 0.219482 0.628174
vt 0.22376 0.623896
vt 0.290415 0.628174
vt 0.22376 0.623896
vt 0.286138 0.623896
vt 0.290415 0.628174
vt 0.286138 0.623896
vt 0.286138 0.561519
vt 0.286138 0.561519
vt 0.290415 0.557241
vt 0.290415 0.628174
vn 0 -1 0
vn 1 0 0
vn 0 1 0
vn -1 0 0
vn 0 0 -1
vn 0 0 1
f 281/605/71 282/606/71 286/607/71 285/608/71
f 282/609/72 283/610/72 287/611/72 286/612/72
f 283/613/73 284/614/73 288/615/73 287/616/73
f 284/617/74 281/618/74 285/619/74 288/620/74
f 289/621/71 290/622/71 294/623/71 293/624/71
f 290/625/74 291/626/74 295/627/74 294/628/74
f 291/629/73 292/630/73 296/631/73 295/632/73
f 292/633/72 289/634/72 293/635/72 296/636/72
f 302/637/75 299/638/75 298/639/75
f 303/640/75 302/641/75 298/642/75
f 303/643/75 298/644/75 297/645/75
f 304/646/75 303/647/75 297/648/75
f 304/649/75 297/650/75 300/651/75
f 301/652/75 304/653/75 300/654/75
f 302/655/75 301/656/75 300/657/75
f 300/658/75 299/659/75 302/660/75
f 306/661/76 307/662/76 310/663/76
f 306/664/76 310/665/76 311/666/76
f 305/667/76 306/668/76 311/669/76
f 305/670/76 311/671/76 312/672/76
f 308/673/76 305/674/76 312/675/76
f 308/676/76 312/677/76 309/678/76
f 308/679/76 309/680/76 310/681/76
f 310/682/76 307/683/76 308/684/76
o item_flange-1_nuts
usemtl heat_resistant_fluid_pipe
v 0.232108 0.2225 -0.021875
v 0.209375 0.235625 -0.021875
v 0.186642 0.2225 -0.021875
v 0.186642 0.19625 -0.021875
v 0.209375 0.183125 -0.021875
v 0.232108 0.19625 -0.021875
v 0.232108 0.2225 0
v 0.209375 0.235625 0
v 0.186642 0.2225 0
v 0.186642 0.19625 0
v 0.209375 0.183125 0
v 0.232108 0.19625 0
v 0.232108 0.2225 -0.021875
v 0.209375 0.235625 -0.021875
v 0.186642 0.2225 -0.021875
v 0.186642 0.19625 -0.021875
v 0.209375 0.183125 -0.021875
v 0.232108 0.19625 -0.021875
v 0.232108 0.2225 0
v 0.209375 0.235625 0
v 0.186642 0.2225 0
v 0.186642 0.19625 0
v 0.209375 0.183125 0
v 0.232108 0.19625 0
v 0.232108 0.80375 -0.021875
v 0.209375 0.816875 -0.021875
v 0.186642 0.80375 -0.021875
v 0.186642 0.7775 -0.021875
v 0.209375 0.764375 -0.021875
v 0.232108 0.7775 -0.021875
v 0.232108 0.80375 0
v 0.209375 0.816875 0
v 0.186642 0.80375 0
v 0.186642 0.7775 0
v 0.209375 0.764375 0
v 0.232108 0.7775 0
v 0.232108 0.80375 -0.021875
v 0.209375 0.816875 -0.021875
v 0.186642 0.80375 -0.021875
v 0.186642 0.7775 -0.021875
v 0.209375 0.764375 -0.021875
v 0.232108 0.7775 -0.021875
v 0.232108 0.80375 0
v 0.209375 0.816875 0
v 0.186642 0.80375 0
v 0.186642 0.7775 0
v 0.209375 0.764375 0
v 0.232108 0.7775 0
v 0.813358 0.2225 -0.021875
v 0.790625 0.235625 -0.021875
v 0.767892 0.2225 -0.021875
v 0.767892 0.19625 -0.021875
v 0.790625 0.183125 -0.021875
v 0.813358 0.19625 -0.021875
v 0.813358 0.2225 0
v 0.790625 0.235625 0
v 0.767892 0.2225 0
v 0.767892 0.19625 0
v 0.790625 0.183125 0
v 0.813358 0.19625 0
v 0.813358 0.2225 -0.021875
v 0.790625 0.235625 -0.021875
v 0.767892 0.2225 -0.021875
v 0.767892 0.19625 -0.021875
v 0.790625 0.183125 -0.021875
v 0.813358 0.19625 -0.021875
v 0.813358 0.2225 0
v 0.790625 0.235625 0
v 0.767892 0.2225 0
v 0.767892 0.19625 0
v 0.790625 0.183125 0
v 0.813358 0.19625 0
v 0.813358 0.80375 -0.021875
v 0.790625 0.816875 -0.021875
v 0.767892 0.80375 -0.021875
v 0.767892 0.7775 -0.021875
v 0.790625 0.764375 -0.021875
v 0.813358 0.7775 -0.021875
v 0.813358 0.80375 0
v 0.790625 0.816875 0
v 0.767892 0.80375 0
v 0.767892 0.7775 0
v 0.790625 0.764375 0
v 0.813358 0.7775 0
v 0.813358 0.80375 -0.021875
v 0.790625 0.816875 -0.021875
v 0.767892 0.80375 -0.021875
v 0.767892 0.7775 -0.021875
v 0.790625 0.764375 -0.021875
v 0.813358 0.7775 -0.021875
v 0.813358 0.80375 0
v 0.790625 0.816875 0
v 0.767892 0.80375 0
v 0.767892 0.7775 0
v 0.790625 0.764375 0
v 0.813358 0.7775 0
vt 0.887451 0.072809
vt 0.891194 0.072809
vt 0.891194 0.075928
vt 0.887451 0.075928
vt 0.892822 0.072809
vt 0.896565 0.072809
vt 0.896565 0.075928
vt 0.892822 0.075928
vt 0.898193 0.072809
vt 0.901936 0.072809
vt 0.901936 0.075928
vt 0.898193 0.075928
vt 0.307373 0.072809
vt 0.311116 0.072809
vt 0.311116 0.075928
vt 0.307373 0.075928
vt 0.903564 0.072809
vt 0.907307 0.072809
vt 0.907307 0.075928
vt 0.903564 0.075928
vt 0.908936 0.072809
vt 0.912678 0.072809
vt 0.912678 0.075928
vt 0.908936 0.075928
vt 0.693276 0.147882
vt 0.691405 0.151123
vt 0.687662 0.151123
vt 0.691405 0.144641
vt 0.693276 0.147882
vt 0.687662 0.151123
vt 0.687662 0.144641
vt 0.691405 0.144641
vt 0.687662 0.151123
vt 0.687662 0.151123
vt 0.685791 0.147882
vt 0.687662 0.144641
vt 0.69694 0.144641
vt 0.700682 0.144641
vt 0.702554 0.147882
vt 0.69694 0.144641
vt 0.702554 0.147882
vt 0.700682 0.151123
vt 0.69694 0.144641
vt 0.700682 0.151123
vt 0.69694 0.151123
vt 0.69694 0.151123
vt 0.695068 0.147882
vt 0.69694 0.144641
vt 0.914307 0.072809
vt 0.918049 0.072809
vt 0.918049 0.075928
vt 0.914307 0.075928
vt 0.312744 0.072809
vt 0.316487 0.072809
vt 0.316487 0.075928
vt 0.312744 0.075928
vt 0.919678 0.072809
vt 0.92342 0.072809
vt 0.92342 0.075928
vt 0.919678 0.075928
vt 0.925049 0.072809
vt 0.928792 0.072809
vt 0.928792 0.075928
vt 0.925049 0.075928
vt 0.93042 0.072809
vt 0.934163 0.072809
vt 0.934163 0.075928
vt 0.93042 0.075928
vt 0.935791 0.072809
vt 0.939534 0.072809
vt 0.939534 0.075928
vt 0.935791 0.075928
vt 0.711831 0.147882
vt 0.70996 0.151123
vt 0.706217 0.151123
vt 0.70996 0.144641
vt 0.711831 0.147882
vt 0.706217 0.151123
vt 0.706217 0.144641
vt 0.70996 0.144641
vt 0.706217 0.151123
vt 0.706217 0.151123
vt 0.704346 0.147882
vt 0.706217 0.144641
vt 0.715494 0.144641
vt 0.719237 0.144641
vt 0.721108 0.147882
vt 0.715494 0.144641
vt 0.721108 0.147882
vt 0.719237 0.151123
vt 0.715494 0.144641
vt 0.719237 0.151123
vt 0.715494 0.151123
vt 0.715494 0.151123
vt 0.713623 0.147882
vt 0.715494 0.144641
vt 0.941162 0.072809
vt 0.944905 0.072809
vt 0.944905 0.075928
vt 0.941162 0.075928
vt 0.946533 0.072809
vt 0.950276 0.072809
vt 0.950276 0.075928
vt 0.946533 0.075928
vt 0.951904 0.072809
vt 0.955647 0.072809
vt 0.955647 0.075928
vt 0.951904 0.075928
vt 0.957275 0.072809
vt 0.961018 0.072809
vt 0.961018 0.075928
vt 0.957275 0.075928
vt 0.318115 0.072809
vt 0.321858 0.072809
vt 0.321858 0.075928
vt 0.318115 0.075928
vt 0.962646 0.072809
vt 0.966389 0.072809
vt 0.966389 0.075928
vt 0.962646 0.075928
vt 0.730386 0.147882
vt 0.728514 0.151123
vt 0.724772 0.151123
vt 0.728514 0.144641
vt 0.730386 0.147882
vt 0.724772 0.151123
vt 0.724772 0.144641
vt 0.728514 0.144641
vt 0.724772 0.151123
vt 0.724772 0.151123
vt 0.7229 0.147882
vt 0.724772 0.144641
vt 0.734049 0.144641
vt 0.737792 0.144641
vt 0.739663 0.147882
vt 0.734049 0.144641
vt 0.739663 0.147882
vt 0.737792 0.151123
vt 0.734049 0.144641
vt 0.737792 0.151123
vt 0.734049 0.151123
vt 0.734049 0.151123
vt 0.732178 0.147882
vt 0.734049 0.144641
vt 0.323486 0.072809
vt 0.327229 0.072809
vt 0.327229 0.075928
vt 0.323486 0.075928
vt 0.968018 0.072809
vt 0.97176 0.072809
vt 0.97176 0.075928
vt 0.968018 0.075928
vt 0.973389 0.072809
vt 0.977131 0.072809
vt 0.977131 0.075928
vt 0.973389 0.075928
vt 0.97876 0.072809
vt 0.982502 0.072809
vt 0.982502 0.075928
vt 0.97876 0.075928
vt 0.984131 0.072809
vt 0.987874 0.072809
vt 0.987874 0.075928
vt 0.984131 0.075928
vt 0.989502 0.072809
vt 0.993245 0.072809
vt 0.993245 0.075928
vt 0.989502 0.075928
vt 0.74894 0.147882
vt 0.747069 0.151123
vt 0.743326 0.151123
vt 0.747069 0.144641
vt 0.74894 0.147882
vt 0.743326 0.151123
vt 0.743326 0.144641
vt 0.747069 0.144641
vt 0.743326 0.151123
vt 0.743326 0.151123
vt 0.741455 0.147882
vt 0.743326 0.144641
vt 0.752604 0.144641
vt 0.756346 0.144641
vt 0.758218 0.147882
vt 0.752604 0.144641
vt 0.758218 0.147882
vt 0.756346 0.151123
vt 0.752604 0.144641
vt 0.756346 0.151123
vt 0.752604 0.151123
vt 0.752604 0.151123
vt 0.750732 0.147882
vt 0.752604 0.144641
vn 0.5 0.866025 0
vn -0.5 0.866025 0
vn -1 0 0
vn -0.5 -0.866025 0
vn 0.5 -0.866025 0
vn 1 0 0
vn 0 0 -1
vn 0 0 1
f 313/685/77 314/686/77 320/687/77 319/688/77
f 314/689/78 315/690/78 321/691/78 320/692/78
f 315/693/79 316/694/79 322/695/79 321/696/79
f 316/697/80 317/698/80 323/699/80 322/700/80
f 317/701/81 318/702/81 324/703/81 323/704/81
f 318/705/82 313/706/82 319/707/82 324/708/82
f 326/709/83 325/710/83 330/711/83
f 327/712/83 326/713/83 330/714/83
f 328/715/83 327/716/83 330/717/83
f 330/718/83 329/719/83 328/720/83
f 336/721/84 331/722/84 332/723/84
f 336/724/84 332/725/84 333/726/84
f 336/727/84 333/728/84 334/729/84
f 334/730/84 335/731/84 336/732/84
f 337/733/77 338/734/77 344/735/77 343/736/77
f 338/737/78 339/738/78 345/739/78 344/740/78
f 339/741/79 340/742/79 346/743/79 345/744/79
f 340/745/80 341/746/80 347/747/80 346/748/80
f 341/749/81 342/750/81 348/751/81 347/752/81
f 342/753/82 337/754/82 343/755/82 348/756/82
f 350/757/83 349/758/83 354/759/83
f 351/760/83 350/761/83 354/762/83
f 352/763/83 351/764/83 354/765/83
f 354/766/83 353/767/83 352/768/83
f 360/769/84 355/770/84 356/771/84
f 360/772/84 356/773/84 357/774/84
f 360/775/84 357/776/84 358/777/84
f 358/778/84 359/779/84 360/780/84
f 361/781/77 362/782/77 368/783/77 367/784/77
f 362/785/78 363/786/78 369/787/78 368/788/78
f 363/789/79 364/790/79 370/791/79 369/792/79
f 364/793/80 365/794/80 371/795/80 370/796/80
f 365/797/81 366/798/81 372/799/81 371/800/81
f 366/801/82 361/802/82 367/803/82 372/804/82
f 374/805/83 373/806/83 378/807/83
f 375/808/83 374/809/83 378/810/83
f 376/811/83 375/812/83 378/813/83
f 378/814/83 377/815/83 376/816/83
f 384/817/84 379/818/84 380/819/84
f 384/820/84 380/821/84 381/822/84
f 384/823/84 381/824/84 382/825/84
f 382/826/84 383/827/84 384/828/84
f 385/829/77 386/830/77 392/831/77 391/832/77
f 386/833/78 387/834/78 393/835/78 392/836/78
f 387/837/79 388/838/79 394/839/79 393/840/79
f 388/841/80 389/842/80 395/843/80 394/844/80
f 389/845/81 390/846/81 396/847/81 395/848/81
f 390/849/82 385/850/82 391/851/82 396/852/82
f 398/853/83 397/854/83 402/855/83
f 399/856/83 398/857/83 402/858/83
f 400/859/83 399/860/83 402/861/83
f 402/862/83 401/863/83 400/864/83
f 408/865/84 403/866/84 404/867/84
f 408/868/84 404/869/84 405/870/84
f 408/871/84 405/872/84 406/873/84
f 406/874/84 407/875/84 408/876/84
o item_blind1
usemtl heat_resistant_fluid_pipe
v 0.16875 0.16875 0.95
v 0.83125 0.16875 0.95
v 0.83125 0.83125 0.95
v 0.16875 0.83125 0.95
v 0.1625 0.1625 0.95625
v 0.8375 0.1625 0.95625
v 0.8375 0.8375 0.95625
v 0.1625 0.8375 0.95625
v 0.1625 0.1625 0.99375
v 0.8375 0.1625 0.99375
v 0.8375 0.8375 0.99375
v 0.1625 0.8375 0.99375
v 0.16875 0.16875 1
v 0.83125 0.16875 1
v 0.83125 0.83125 1
v 0.16875 0.83125 1
v 0.16875 0.16875 0.95
v 0.83125 0.16875 0.95
v 0.83125 0.83125 0.95
v 0.16875 0.83125 0.95
v 0.16875 0.16875 1
v 0.83125 0.16875 1
v 0.83125 0.83125 1
v 0.16875 0.83125 1
vt 0.689124 0.015097
vt 0.783582 0.015097
vt 0.784473 0.016357
vt 0.688232 0.016357
vt 0.296545 0.050253
vt 0.391003 0.050253
vt 0.391895 0.051514
vt 0.295654 0.051514
vt 0.787268 0.015097
vt 0.881726 0.015097
vt 0.882617 0.016357
vt 0.786377 0.016357
vt 0.39469 0.050253
vt 0.489148 0.050253
vt 0.490039 0.051514
vt 0.393799 0.051514
vt 0.688232 0.123315
vt 0.784473 0.123315
vt 0.784473 0.128662
vt 0.688232 0.128662
vt 0.786377 0.123315
vt 0.882617 0.123315
vt 0.882617 0.128662
vt 0.786377 0.128662
vt 0.884521 0.123315
vt 0.980762 0.123315
vt 0.980762 0.128662
vt 0.884521 0.128662
vt 0.001221 0.116479
vt 0.097461 0.116479
vt 0.097461 0.121826
vt 0.001221 0.121826
vt 0.491943 0.050253
vt 0.588184 0.050253
vt 0.587292 0.051514
vt 0.492834 0.051514
vt 0.393799 0.023886
vt 0.490039 0.023886
vt 0.489148 0.025146
vt 0.39469 0.025146
vt 0.590088 0.050253
vt 0.686328 0.050253
vt 0.685437 0.051514
vt 0.590979 0.051514
vt 0.491943 0.023886
vt 0.588184 0.023886
vt 0.587292 0.025146
vt 0.492834 0.025146
vt 0.193604 0.806396
vt 0.193604 0.711938
vt 0.288062 0.711938
vt 0.288062 0.711938
vt 0.288062 0.806396
vt 0.193604 0.806396
vt 0.384253 0.806396
vt 0.289795 0.806396
vt 0.289795 0.711938
vt 0.289795 0.711938
vt 0.384253 0.711938
vt 0.384253 0.806396
vn 0 -0.707107 -0.707107
vn 0.707107 0 -0.707107
vn 0 0.707107 -0.707107
vn -0.707107 0 -0.707107
vn 0 -1 0
vn 1 0 0
vn 0 1 0
vn -1 0 0
vn 0 -0.707107 0.707107
vn 0.707107 0 0.707107
vn 0 0.707107 0.707107
vn -0.707107 0 0.707107
vn 0 0 -1
vn 0 0 1
f 409/877/85 410/878/85 414/879/85 413/880/85
f 410/881/86 411/882/86 415/883/86 414/884/86
f 411/885/87 412/886/87 416/887/87 415/888/87
f 412/889/88 409/890/88 413/891/88 416/892/88
f 413/893/89 414/894/89 418/895/89 417/896/89
f 414/897/90 415/898/90 419/899/90 418/900/90
f 415/901/91 416/902/91 420/903/91 419/904/91
f 416/905/92 413/906/92 417/907/92 420/908/92
f 417/909/93 418/910/93 422/911/93 421/912/93
f 418/913/94 419/914/94 423/915/94 422/916/94
f 419/917/95 420/918/95 424/919/95 423/920/95
f 420/921/96 417/922/96 421/923/96 424/924/96
f 426/925/97 425/926/97 428/927/97
f 428/928/97 427/929/97 426/930/97
f 432/931/98 429/932/98 430/933/98
f 430/934/98 431/935/98 432/936/98
o item_flange1
usemtl heat_resistant_fluid_pipe
v 0.16875 0.16875 0.9
v 0.83125 0.16875 0.9
v 0.83125 0.83125 0.9
v 0.16875 0.83125 0.9
v 0.1625 0.1625 0.90625
v 0.8375 0.1625 0.90625
v 0.8375 0.8375 0.90625
v 0.1625 0.8375 0.90625
v 0.1625 0.1625 0.94375
v 0.8375 0.1625 0.94375
v 0.8375 0.8375 0.94375
v 0.1625 0.8375 0.94375
v 0.16875 0.16875 0.95
v 0.83125 0.16875 0.95
v 0.83125 0.83125 0.95
v 0.16875 0.83125 0.95
v 0.24375 0.75625 0.9
v 0.75625 0.75625 0.9
v 0.75625 0.24375 0.9
v 0.24375 0.24375 0.9
v 0.25 0.75 0.90625
v 0.75 0.75 0.90625
v 0.75 0.25 0.90625
v 0.25 0.25 0.90625
v 0.25 0.75 0.94375
v 0.75 0.75 0.94375
v 0.75 0.25 0.94375
v 0.25 0.25 0.94375
v 0.24375 0.75625 0.95
v 0.75625 0.75625 0.95
v 0.75625 0.24375 0.95
v 0.24375 0.24375 0.95
v 0.16875 0.16875 0.9
v 0.83125 0.16875 0.9
v 0.83125 0.83125 0.9
v 0.16875 0.83125 0.9
v 0.24375 0.75625 0.9
v 0.75625 0.75625 0.9
v 0.75625 0.24375 0.9
v 0.24375 0.24375 0.9
v 0.16875 0.16875 0.95
v 0.83125 0.16875 0.95
v 0.83125 0.83125 0.95
v 0.16875 0.83125 0.95
v 0.24375 0.75625 0.95
v 0.75625 0.75625 0.95
v 0.75625 0.24375 0.95
v 0.24375 0.24375 0.95
vt 0.689124 0.050253
vt 0.783582 0.050253
vt 0.784473 0.051514
vt 0.688232 0.051514
vt 0.787268 0.050253
vt 0.881726 0.050253
vt 0.882617 0.051514
vt 0.786377 0.051514
vt 0.885413 0.050253
vt 0.979871 0.050253
vt 0.980762 0.051514
vt 0.884521 0.051514
vt 0.002112 0.047324
vt 0.09657 0.047324
vt 0.097461 0.048584
vt 0.001221 0.048584
vt 0.099365 0.116479
vt 0.195605 0.116479
vt 0.195605 0.121826
vt 0.099365 0.121826
vt 0.19751 0.116479
vt 0.29375 0.116479
vt 0.29375 0.121826
vt 0.19751 0.121826
vt 0.295654 0.116479
vt 0.391895 0.116479
vt 0.391895 0.121826
vt 0.295654 0.121826
vt 0.393799 0.116479
vt 0.490039 0.116479
vt 0.490039 0.121826
vt 0.393799 0.121826
vt 0.099365 0.047324
vt 0.195605 0.047324
vt 0.194714 0.048584
vt 0.100256 0.048584
vt 0.19751 0.047324
vt 0.29375 0.047324
vt 0.292859 0.048584
vt 0.198401 0.048584
vt 0.295654 0.047324
vt 0.391895 0.047324
vt 0.391003 0.048584
vt 0.296545 0.048584
vt 0.393799 0.047324
vt 0.490039 0.047324
vt 0.489148 0.048584
vt 0.39469 0.048584
vt 0.748291 0.032675
vt 0.821362 0.032675
vt 0.820471 0.033936
vt 0.749182 0.033936
vt 0.001221 0.026816
vt 0.074292 0.026816
vt 0.073401 0.028076
vt 0.002112 0.028076
vt 0.822998 0.032675
vt 0.896069 0.032675
vt 0.895178 0.033936
vt 0.823889 0.033936
vt 0.075928 0.026816
vt 0.148999 0.026816
vt 0.148108 0.028076
vt 0.076819 0.028076
vt 0.36499 0.102808
vt 0.436279 0.102808
vt 0.436279 0.108154
vt 0.36499 0.108154
vt 0.437744 0.102808
vt 0.509033 0.102808
vt 0.509033 0.108154
vt 0.437744 0.108154
vt 0.510498 0.102808
vt 0.581787 0.102808
vt 0.581787 0.108154
vt 0.510498 0.108154
vt 0.583252 0.102808
vt 0.654541 0.102808
vt 0.654541 0.108154
vt 0.583252 0.108154
vt 0.898596 0.032675
vt 0.969885 0.032675
vt 0.970776 0.033936
vt 0.897705 0.033936
vt 0.693518 0.018027
vt 0.764807 0.018027
vt 0.765698 0.019287
vt 0.692627 0.019287
vt 0.002112 0.029746
vt 0.073401 0.029746
vt 0.074292 0.031006
vt 0.001221 0.031006
vt 0.768225 0.018027
vt 0.839514 0.018027
vt 0.840405 0.019287
vt 0.767334 0.019287
vt 0.469751 0.795703
vt 0.480444 0.806396
vt 0.385986 0.806396
vt 0.39668 0.795703
vt 0.469751 0.795703
vt 0.385986 0.806396
vt 0.39668 0.795703
vt 0.385986 0.806396
vt 0.385986 0.711938
vt 0.39668 0.722632
vt 0.39668 0.795703
vt 0.385986 0.711938
vt 0.39668 0.722632
vt 0.385986 0.711938
vt 0.480444 0.711938
vt 0.469751 0.722632
vt 0.39668 0.722632
vt 0.480444 0.711938
vt 0.469751 0.795703
vt 0.469751 0.722632
vt 0.480444 0.711938
vt 0.480444 0.711938
vt 0.480444 0.806396
vt 0.469751 0.795703
vt 0.482178 0.711938
vt 0.576636 0.711938
vt 0.565942 0.722632
vt 0.482178 0.711938
vt 0.565942 0.722632
vt 0.492871 0.722632
vt 0.482178 0.806396
vt 0.482178 0.711938
vt 0.492871 0.722632
vt 0.482178 0.806396
vt 0.492871 0.722632
vt 0.492871 0.795703
vt 0.576636 0.806396
vt 0.482178 0.806396
vt 0.492871 0.795703
vt 0.576636 0.806396
vt 0.492871 0.795703
vt 0.565942 0.795703
vt 0.576636 0.806396
vt 0.565942 0.795703
vt 0.565942 0.722632
vt 0.565942 0.722632
vt 0.576636 0.711938
vt 0.576636 0.806396
vn 0 -0.707107 -0.707107
vn 0.707107 0 -0.707107
vn 0 0.707107 -0.707107
vn -0.707107 0 -0.707107
vn 0 -1 0
vn 1 0 0
vn 0 1 0
vn -1 0 0
vn 0 -0.707107 0.707107
vn 0.707107 0 0.707107
vn 0 0.707107 0.707107
vn -0.707107 0 0.707107
vn 0 0 -1
vn 0 0 1
f 433/937/99 434/938/99 438/939/99 437/940/99
f 434/941/100 435/942/100 439/943/100 438/944/100
f 435/945/101 436/946/101 440/947/101 439/948/101
f 436/949/102 433/950/102 437/951/102 440/952/102
f 437/953/103 438/954/103 442/955/103 441/956/103
f 438/957/104 439/958/104 443/959/104 442/960/104
f 439/961/105 440/962/105 444/963/105 443/964/105
f 440/965/106 437/966/106 441/967/106 444/968/106
f 441/969/107 442/970/107 446/971/107 445/972/107
f 442/973/108 443/974/108 447/975/108 446/976/108
f 443/977/109 444/978/109 448/979/109 447/980/109
f 444/981/110 441/982/110 445/983/110 448/984/110
f 449/985/99 450/986/99 454/987/99 453/988/99
f 450/989/102 451/990/102 455/991/102 454/992/102
f 451/993/101 452/994/101 456/995/101 455/996/101
f 452/997/100 449/998/100 453/999/100 456/1000/100
f 453/1001/103 454/1002/103 458/1003/103 457/1004/103
f 454/1005/106 455/1006/106 459/1007/106 458/1008/106
f 455/1009/105 456/1010/105 460/1011/105 459/1012/105
f 456/1013/104 453/1014/104 457/1015/104 460/1016/104
f 457/1017/107 458/1018/107 462/1019/107 461/1020/107
f 458/1021/110 459/1022/110 463/1023/110 462/1024/110
f 459/1025/109 460/1026/109 464/1027/109 463/1028/109
f 460/1029/108 457/1030/108 461/1031/108 464/1032/108
f 470/1033/111 467/1034/111 466/1035/111
f 471/1036/111 470/1037/111 466/1038/111
f 471/1039/111 466/1040/111 465/1041/111
f 472/1042/111 471/1043/111 465/1044/111
f 472/1045/111 465/1046/111 468/1047/111
f 469/1048/111 472/1049/111 468/1050/111
f 470/1051/111 469/1052/111 468/1053/111
f 468/1054/111 467/1055/111 470/1056/111
f 474/1057/112 475/1058/112 478/1059/112
f 474/1060/112 478/1061/112 479/1062/112
f 473/1063/112 474/1064/112 479/1065/112
f 473/1066/112 479/1067/112 480/1068/112
f 476/1069/112 473/1070/112 480/1071/112
f 476/1072/112 480/1073/112 477/1074/112
f 476/1075/112 477/1076/112 478/1077/112
f 478/1078/112 475/1079/112 476/1080/112
o item_flange1_lining
usemtl heat_resistant_fluid_pipe
v 0.25125 0.25125 0.9
v 0.74875 0.25125 0.9
v 0.74875 0.74875 0.9
v 0.25125 0.74875 0.9
v 0.25125 0.25125 0.95
v 0.74875 0.25125 0.95
v 0.74875 0.74875 0.95
v 0.25125 0.74875 0.95
v 0.28125 0.71875 0.9
v 0.71875 0.71875 0.9
v 0.71875 0.28125 0.9
v 0.28125 0.28125 0.9
v 0.28125 0.71875 0.95
v 0.71875 0.71875 0.95
v 0.71875 0.28125 0.95
v 0.28125 0.28125 0.95
v 0.25125 0.25125 0.9
v 0.74875 0.25125 0.9
v 0.74875 0.74875 0.9
v 0.25125 0.74875 0.9
v 0.28125 0.71875 0.9
v 0.71875 0.71875 0.9
v 0.71875 0.28125 0.9
v 0.28125 0.28125 0.9
v 0.25125 0.25125 0.95
v 0.74875 0.25125 0.95
v 0.74875 0.74875 0.95
v 0.25125 0.74875 0.95
v 0.28125 0.71875 0.95
v 0.71875 0.71875 0.95
v 0.71875 0.28125 0.95
v 0.28125 0.28125 0.95
vt 0.001221 0.161572
vt 0.072153 0.161572
vt 0.072153 0.168701
vt 0.001221 0.168701
vt 0.073975 0.161572
vt 0.144907 0.161572
vt 0.144907 0.168701
vt 0.073975 0.168701
vt 0.146729 0.161572
vt 0.217661 0.161572
vt 0.217661 0.168701
vt 0.146729 0.168701
vt 0.219482 0.161572
vt 0.290415 0.161572
vt 0.290415 0.168701
vt 0.219482 0.168701
vt 0.832764 0.152783
vt 0.895142 0.152783
vt 0.895142 0.159912
vt 0.832764 0.159912
vt 0.896729 0.152783
vt 0.959106 0.152783
vt 0.959106 0.159912
vt 0.896729 0.159912
vt 0.001221 0.143994
vt 0.063599 0.143994
vt 0.063599 0.151123
vt 0.001221 0.151123
vt 0.065186 0.143994
vt 0.127563 0.143994
vt 0.127563 0.151123
vt 0.065186 0.151123
vt 0.358892 0.623896
vt 0.363169 0.628174
vt 0.292236 0.628174
vt 0.296514 0.623896
vt 0.358892 0.623896
vt 0.292236 0.628174
vt 0.296514 0.623896
vt 0.292236 0.628174
vt 0.292236 0.557241
vt 0.296514 0.561519
vt 0.296514 0.623896
vt 0.292236 0.557241
vt 0.296514 0.561519
vt 0.292236 0.557241
vt 0.363169 0.557241
vt 0.358892 0.561519
vt 0.296514 0.561519
vt 0.363169 0.557241
vt 0.358892 0.623896
vt 0.358892 0.561519
vt 0.363169 0.557241
vt 0.363169 0.557241
vt 0.363169 0.628174
vt 0.358892 0.623896
vt 0.36499 0.557241
vt 0.435923 0.557241
vt 0.431646 0.561519
vt 0.36499 0.557241
vt 0.431646 0.561519
vt 0.369268 0.561519
vt 0.36499 0.628174
vt 0.36499 0.557241
vt 0.369268 0.561519
vt 0.36499 0.628174
vt 0.369268 0.561519
vt 0.369268 0.623896
vt 0.435923 0.628174
vt 0.36499 0.628174
vt 0.369268 0.623896
vt 0.435923 0.628174
vt 0.369268 0.623896
vt 0.431646 0.623896
vt 0.435923 0.628174
vt 0.431646 0.623896
vt 0.431646 0.561519
vt 0.431646 0.561519
vt 0.435923 0.557241
vt 0.435923 0.628174
vn 0 -1 0
vn 1 0 0
vn 0 1 0
vn -1 0 0
vn 0 0 -1
vn 0 0 1
f 481/1081/113 482/1082/113 486/1083/113 485/1084/113
f 482/1085/114 483/1086/114 487/1087/114 486/1088/114
f 483/1089/115 484/1090/115 488/1091/115 487/1092/115
f 484/1093/116 481/1094/116 485/1095/116 488/1096/116
f 489/1097/113 490/1098/113 494/1099/113 493/1100/113
f 490/1101/116 491/1102/116 495/1103/116 494/1104/116
f 491/1105/115 492/1106/115 496/1107/115 495/1108/115
f 492/1109/114 489/1110/114 493/1111/114 496/1112/114
f 502/1113/117 499/1114/117 498/1115/117
f 503/1116/117 502/1117/117 498/1118/117
f 503/1119/117 498/1120/117 497/1121/117
f 504/1122/117 503/1123/117 497/1124/117
f 504/1125/117 497/1126/117 500/1127/117
f 501/1128/117 504/1129/117 500/1130/117
f 502/1131/117 501/1132/117 500/1133/117
f 500/1134/117 499/1135/117 502/1136/117
f 506/1137/118 507/1138/118 510/1139/118
f 506/1140/118 510/1141/118 511/1142/118
f 505/1143/118 506/1144/118 511/1145/118
f 505/1146/118 511/1147/118 512/1148/118
f 508/1149/118 505/1150/118 512/1151/118
f 508/1152/118 512/1153/118 509/1154/118
f 508/1155/118 509/1156/118 510/1157/118
f 510/1158/118 507/1159/118 508/1160/118
o item_flange1_nuts
usemtl heat_resistant_fluid_pipe
v 0.232108 0.2225 1
v 0.209375 0.235625 1
v 0.186642 0.2225 1
v 0.186642 0.19625 1
v 0.209375 0.183125 1
v 0.232108 0.19625 1
v 0.232108 0.2225 1.021875
v 0.209375 0.235625 1.021875
v 0.186642 0.2225 1.021875
v 0.186642 0.19625 1.021875
v 0.209375 0.183125 1.021875
v 0.232108 0.19625 1.021875
v 0.232108 0.2225 1
v 0.209375 0.235625 1
v 0.186642 0.2225 1
v 0.186642 0.19625 1
v 0.209375 0.183125 1
v 0.232108 0.19625 1
v 0.232108 0.2225 1.021875
v 0.209375 0.235625 1.021875
v 0.186642 0.2225 1.021875
v 0.186642 0.19625 1.021875
v 0.209375 0.183125 1.021875
v 0.232108 0.19625 1.021875
v 0.232108 0.80375 1
v 0.209375 0.816875 1
v 0.186642 0.80375 1
v 0.186642 0.7775 1
v 0.209375 0.764375 1
v 0.232108 0.7775 1
v 0.232108 0.80375 1.021875
v 0.209375 0.816875 1.021875
v 0.186642 0.80375 1.021875
v 0.186642 0.7775 1.021875
v 0.209375 0.764375 1.021875
v 0.232108 0.7775 1.021875
v 0.232108 0.80375 1
v 0.209375 0.816875 1
v 0.186642 0.80375 1
v 0.186642 0.7775 1
v 0.209375 0.764375 1
v 0.232108 0.7775 1
v 0.232108 0.80375 1.021875
v 0.209375 0.816875 1.021875
v 0.186642 0.80375 1.021875
v 0.186642 0.7775 1.021875
v 0.209375 0.764375 1.021875
v 0.232108 0.7775 1.021875
v 0.813358 0.2225 1
v 0.790625 0.235625 1
v 0.767892 0.2225 1
v 0.767892 0.19625 1
v 0.790625 0.183125 1
v 0.813358 0.19625 1
v 0.813358 0.2225 1.021875
v 0.790625 0.235625 1.021875
v 0.767892 0.2225 1.021875
v 0.767892 0.19625 1.021875
v 0.790625 0.183125 1.021875
v 0.813358 0.19625 1.021875
v 0.813358 0.2225 1
v 0.790625 0.235625 1
v 0.767892 0.2225 1
v 0.767892 0.19625 1
v 0.790625 0.183125 1
v 0.813358 0.19625 1
v 0.813358 0.2225 1.021875
v 0.790625 0.235625 1.021875
v 0.767892 0.2225 1.021875
v 0.767892 0.19625 1.021875
v 0.790625 0.183125 1.021875
v 0.813358 0.19625 1.021875
v 0.813358 0.80375 1
v 0.790625 0.816875 1
v 0.767892 0.80375 1
v 0.767892 0.7775 1
v 0.790625 0.764375 1
v 0.813358 0.7775 1
v 0.813358 0.80375 1.021875
v 0.790625 0.816875 1.021875
v 0.767892 0.80375 1.021875
v 0.767892 0.7775 1.021875
v 0.790625 0.764375 1.021875
v 0.813358 0.7775 1.021875
v 0.813358 0.80375 1
v 0.790625 0.816875 1
v 0.767892 0.80375 1
v 0.767892 0.7775 1
v 0.790625 0.764375 1
v 0.813358 0.7775 1
v 0.813358 0.80375 1.021875
v 0.790625 0.816875 1.021875
v 0.767892 0.80375 1.021875
v 0.767892 0.7775 1.021875
v 0.790625 0.764375 1.021875
v 0.813358 0.7775 1.021875
vt 0.994873 0.072809
vt 0.998616 0.072809
vt 0.998616 0.075928
vt 0.994873 0.075928
vt 0.001221 0.067926
vt 0.004963 0.067926
vt 0.004963 0.071045
vt 0.001221 0.071045
vt 0.006592 0.067926
vt 0.010334 0.067926
vt 0.010334 0.071045
vt 0.006592 0.071045
vt 0.328857 0.072809
vt 0.3326 0.072809
vt 0.3326 0.075928
vt 0.328857 0.075928
vt 0.011963 0.067926
vt 0.015706 0.067926
vt 0.015706 0.071045
vt 0.011963 0.071045
vt 0.017334 0.067926
vt 0.021077 0.067926
vt 0.021077 0.071045
vt 0.017334 0.071045
vt 0.767495 0.147882
vt 0.765624 0.151123
vt 0.761881 0.151123
vt 0.765624 0.144641
vt 0.767495 0.147882
vt 0.761881 0.151123
vt 0.761881 0.144641
vt 0.765624 0.144641
vt 0.761881 0.151123
vt 0.761881 0.151123
vt 0.76001 0.147882
vt 0.761881 0.144641
vt 0.771158 0.144641
vt 0.774901 0.144641
vt 0.776772 0.147882
vt 0.771158 0.144641
vt 0.776772 0.147882
vt 0.774901 0.151123
vt 0.771158 0.144641
vt 0.774901 0.151123
vt 0.771158 0.151123
vt 0.771158 0.151123
vt 0.769287 0.147882
vt 0.771158 0.144641
vt 0.022705 0.067926
vt 0.026448 0.067926
vt 0.026448 0.071045
vt 0.022705 0.071045
vt 0.334229 0.072809
vt 0.337971 0.072809
vt 0.337971 0.075928
vt 0.334229 0.075928
vt 0.028076 0.067926
vt 0.031819 0.067926
vt 0.031819 0.071045
vt 0.028076 0.071045
vt 0.033447 0.067926
vt 0.03719 0.067926
vt 0.03719 0.071045
vt 0.033447 0.071045
vt 0.038818 0.067926
vt 0.042561 0.067926
vt 0.042561 0.071045
vt 0.038818 0.071045
vt 0.044189 0.067926
vt 0.047932 0.067926
vt 0.047932 0.071045
vt 0.044189 0.071045
vt 0.78605 0.147882
vt 0.784178 0.151123
vt 0.780436 0.151123
vt 0.784178 0.144641
vt 0.78605 0.147882
vt 0.780436 0.151123
vt 0.780436 0.144641
vt 0.784178 0.144641
vt 0.780436 0.151123
vt 0.780436 0.151123
vt 0.778564 0.147882
vt 0.780436 0.144641
vt 0.789713 0.144641
vt 0.793456 0.144641
vt 0.795327 0.147882
vt 0.789713 0.144641
vt 0.795327 0.147882
vt 0.793456 0.151123
vt 0.789713 0.144641
vt 0.793456 0.151123
vt 0.789713 0.151123
vt 0.789713 0.151123
vt 0.787842 0.147882
vt 0.789713 0.144641
vt 0.049561 0.067926
vt 0.053303 0.067926
vt 0.053303 0.071045
vt 0.049561 0.071045
vt 0.054932 0.067926
vt 0.058674 0.067926
vt 0.058674 0.071045
vt 0.054932 0.071045
vt 0.060303 0.067926
vt 0.064045 0.067926
vt 0.064045 0.071045
vt 0.060303 0.071045
vt 0.065674 0.067926
vt 0.069417 0.067926
vt 0.069417 0.071045
vt 0.065674 0.071045
vt 0.3396 0.072809
vt 0.343342 0.072809
vt 0.343342 0.075928
vt 0.3396 0.075928
vt 0.071045 0.067926
vt 0.074788 0.067926
vt 0.074788 0.071045
vt 0.071045 0.071045
vt 0.804604 0.147882
vt 0.802733 0.151123
vt 0.79899 0.151123
vt 0.802733 0.144641
vt 0.804604 0.147882
vt 0.79899 0.151123
vt 0.79899 0.144641
vt 0.802733 0.144641
vt 0.79899 0.151123
vt 0.79899 0.151123
vt 0.797119 0.147882
vt 0.79899 0.144641
vt 0.808268 0.144641
vt 0.81201 0.144641
vt 0.813882 0.147882
vt 0.808268 0.144641
vt 0.813882 0.147882
vt 0.81201 0.151123
vt 0.808268 0.144641
vt 0.81201 0.151123
vt 0.808268 0.151123
vt 0.808268 0.151123
vt 0.806396 0.147882
vt 0.808268 0.144641
vt 0.344971 0.072809
vt 0.348713 0.072809
vt 0.348713 0.075928
vt 0.344971 0.075928
vt 0.076416 0.067926
vt 0.080159 0.067926
vt 0.080159 0.071045
vt 0.076416 0.071045
vt 0.081787 0.067926
vt 0.08553 0.067926
vt 0.08553 0.071045
vt 0.081787 0.071045
vt 0.087158 0.067926
vt 0.090901 0.067926
vt 0.090901 0.071045
vt 0.087158 0.071045
vt 0.092529 0.067926
vt 0.096272 0.067926
vt 0.096272 0.071045
vt 0.092529 0.071045
vt 0.0979 0.067926
vt 0.101643 0.067926
vt 0.101643 0.071045
vt 0.0979 0.071045
vt 0.823159 0.147882
vt 0.821288 0.151123
vt 0.817545 0.151123
vt 0.821288 0.144641
vt 0.823159 0.147882
vt 0.817545 0.151123
vt 0.817545 0.144641
vt 0.821288 0.144641
vt 0.817545 0.151123
vt 0.817545 0.151123
vt 0.815674 0.147882
vt 0.817545 0.144641
vt 0.826823 0.144641
vt 0.830565 0.144641
vt 0.832437 0.147882
vt 0.826823 0.144641
vt 0.832437 0.147882
vt 0.830565 0.151123
vt 0.826823 0.144641
vt 0.830565 0.151123
vt 0.826823 0.151123
vt 0.826823 0.151123
vt 0.824951 0.147882
vt 0.826823 0.144641
vn 0.5 0.866025 0
vn -0.5 0.866025 0
vn -1 0 0
vn -0.5 -0.866025 0
vn 0.5 -0.866025 0
vn 1 0 0
vn 0 0 -1
vn 0 0 1
f 513/1161/119 514/1162/119 520/1163/119 519/1164/119
f 514/1165/120 515/1166/120 521/1167/120 520/1168/120
f 515/1169/121 516/1170/121 522/1171/121 521/1172/121
f 516/1173/122 517/1174/122 523/1175/122 522/1176/122
f 517/1177/123 518/1178/123 524/1179/123 523/1180/123
f 518/1181/124 513/1182/124 519/1183/124 524/1184/124
f 526/1185/125 525/1186/125 530/1187/125
f 527/1188/125 526/1189/125 530/1190/125
f 528/1191/125 527/1192/125 530/1193/125
f 530/1194/125 529/1195/125 528/1196/125
f 536/1197/126 531/1198/126 532/1199/126
f 536/1200/126 532/1201/126 533/1202/126
f 536/1203/126 533/1204/126 534/1205/126
f 534/1206/126 535/1207/126 536/1208/126
f 537/1209/119 538/1210/119 544/1211/119 543/1212/119
f 538/1213/120 539/1214/120 545/1215/120 544/1216/120
f 539/1217/121 540/1218/121 546/1219/121 545/1220/121
f 540/1221/122 541/1222/122 547/1223/122 546/1224/122
f 541/1225/123 542/1226/123 548/1227/123 547/1228/123
f 542/1229/124 537/1230/124 543/1231/124 548/1232/124
f 550/1233/125 549/1234/125 554/1235/125
f 551/1236/125 550/1237/125 554/1238/125
f 552/1239/125 551/1240/125 554/1241/125
f 554/1242/125 553/1243/125 552/1244/125
f 560/1245/126 555/1246/126 556/1247/126
f 560/1248/126 556/1249/126 557/1250/126
f 560/1251/126 557/1252/126 558/1253/126
f 558/1254/126 559/1255/126 560/1256/126
f 561/1257/119 562/1258/119 568/1259/119 567/1260/119
f 562/1261/120 563/1262/120 569/1263/120 568/1264/120
f 563/1265/121 564/1266/121 570/1267/121 569/1268/121
f 564/1269/122 565/1270/122 571/1271/122 570/1272/122
f 565/1273/123 566/1274/123 572/1275/123 571/1276/123
f 566/1277/124 561/1278/124 567/1279/124 572/1280/124
f 574/1281/125 573/1282/125 578/1283/125
f 575/1284/125 574/1285/125 578/1286/125
f 576/1287/125 575/1288/125 578/1289/125
f 578/1290/125 577/1291/125 576/1292/125
f 584/1293/126 579/1294/126 580/1295/126
f 584/1296/126 580/1297/126 581/1298/126
f 584/1299/126 581/1300/126 582/1301/126
f 582/1302/126 583/1303/126 584/1304/126
f 585/1305/119 586/1306/119 592/1307/119 591/1308/119
f 586/1309/120 587/1310/120 593/1311/120 592/1312/120
f 587/1313/121 588/1314/121 594/1315/121 593/1316/121
f 588/1317/122 589/1318/122 595/1319/122 594/1320/122
f 589/1321/123 590/1322/123 596/1323/123 595/1324/123
f 590/1325/124 585/1326/124 591/1327/124 596/1328/124
f 598/1329/125 597/1330/125 602/1331/125
f 599/1332/125 598/1333/125 602/1334/125
f 600/1335/125 599/1336/125 602/1337/125
f 602/1338/125 601/1339/125 600/1340/125
f 608/1341/126 603/1342/126 604/1343/126
f 608/1344/126 604/1345/126 605/1346/126
f 608/1347/126 605/1348/126 606/1349/126
f 606/1350/126 607/1351/126 608/1352/126
