# AFL Storefront Glazing V1 left jamb / shared mullion, generated by tools/build-storefront-glazing-v1.mjs
mtllib frame_left.mtl
o frame_left_member
usemtl storefront_glazing
v 0.9375 0 0.1875
v 1 0 0.1875
v 1 0 0.3125
v 0.9375 0 0.3125
v 0.9375 1 0.1875
v 1 1 0.1875
v 1 1 0.3125
v 0.9375 1 0.3125
v 0.9375 0 0.1875
v 1 0 0.1875
v 1 1 0.1875
v 0.9375 1 0.1875
v 0.9375 0 0.3125
v 1 0 0.3125
v 1 1 0.3125
v 0.9375 1 0.3125
v 0.9375 0 0.1875
v 0.9375 0 0.3125
v 0.9375 1 0.3125
v 0.9375 1 0.1875
v 1 0 0.1875
v 1 0 0.3125
v 1 1 0.3125
v 1 1 0.1875
vt 0.508301 0.57373
vt 0.508301 0.558105
vt 0.539551 0.558105
vt 0.539551 0.57373
vt 0.57373 0.558105
vt 0.57373 0.57373
vt 0.54248 0.57373
vt 0.54248 0.558105
vt 0.758301 0.61084
vt 0.758301 0.626465
vt 0.508301 0.626465
vt 0.508301 0.61084
vt 0.002441 0.592285
vt 0.002441 0.57666
vt 0.252441 0.57666
vt 0.252441 0.592285
vt 0.505371 0.713379
vt 0.505371 0.744629
vt 0.255371 0.744629
vt 0.255371 0.713379
vt 0.758301 0.713379
vt 0.758301 0.744629
vt 0.508301 0.744629
vt 0.508301 0.713379
vn 0 -1 0
vn 0 1 0
vn 0 0 -1
vn 0 0 1
vn -1 0 0
vn 1 0 0
f 1/1/1 2/2/1 3/3/1 4/4/1
f 8/5/2 7/6/2 6/7/2 5/8/2
f 12/9/3 11/10/3 10/11/3 9/12/3
f 13/13/4 14/14/4 15/15/4 16/16/4
f 17/17/5 18/18/5 19/19/5 20/20/5
f 24/21/6 23/22/6 22/23/6 21/24/6
