# AFL Storefront Glazing V1 glass lite, generated by tools/build-storefront-glazing-v1.mjs
mtllib glass.mtl
o glass_lite
usemtl storefront_glazing
v 0 0 0.240625
v 1 0 0.240625
v 1 1 0.240625
v 0 1 0.240625
v 0 0 0.259375
v 1 0 0.259375
v 1 1 0.259375
v 0 1 0.259375
vt 0.127441 0.872559
vt 0.127441 0.872559
vt 0.127441 0.872559
vt 0.127441 0.872559
vt 0.380371 0.872559
vt 0.380371 0.872559
vt 0.380371 0.872559
vt 0.380371 0.872559
vn 0 0 -1
vn 0 0 1
f 4/1/1 3/2/1 2/3/1 1/4/1
f 5/5/2 6/6/2 7/7/2 8/8/2
