# AFL Storefront Glazing V1 (item), generated by tools/build-storefront-glazing-v1.mjs
mtllib item.mtl
o glass_lite
usemtl storefront_glazing
v 0 0 0.240625
v 1 0 0.240625
v 1 1 0.240625
v 0 1 0.240625
v 0 0 0.259375
v 1 0 0.259375
v 1 1 0.259375
v 0 1 0.259375
vt 0.127441 0.872559
vt 0.127441 0.872559
vt 0.127441 0.872559
vt 0.127441 0.872559
vt 0.380371 0.872559
vt 0.380371 0.872559
vt 0.380371 0.872559
vt 0.380371 0.872559
vn 0 0 -1
vn 0 0 1
f 4/1/1 3/2/1 2/3/1 1/4/1
f 5/5/2 6/6/2 7/7/2 8/8/2
o frame_left_member
usemtl storefront_glazing
v 0.9375 0 0.1875
v 1 0 0.1875
v 1 0 0.3125
v 0.9375 0 0.3125
v 0.9375 1 0.1875
v 1 1 0.1875
v 1 1 0.3125
v 0.9375 1 0.3125
v 0.9375 0 0.1875
v 1 0 0.1875
v 1 1 0.1875
v 0.9375 1 0.1875
v 0.9375 0 0.3125
v 1 0 0.3125
v 1 1 0.3125
v 0.9375 1 0.3125
v 0.9375 0 0.1875
v 0.9375 0 0.3125
v 0.9375 1 0.3125
v 0.9375 1 0.1875
v 1 0 0.1875
v 1 0 0.3125
v 1 1 0.3125
v 1 1 0.1875
vt 0.508301 0.57373
vt 0.508301 0.558105
vt 0.539551 0.558105
vt 0.539551 0.57373
vt 0.57373 0.558105
vt 0.57373 0.57373
vt 0.54248 0.57373
vt 0.54248 0.558105
vt 0.758301 0.61084
vt 0.758301 0.626465
vt 0.508301 0.626465
vt 0.508301 0.61084
vt 0.002441 0.592285
vt 0.002441 0.57666
vt 0.252441 0.57666
vt 0.252441 0.592285
vt 0.505371 0.713379
vt 0.505371 0.744629
vt 0.255371 0.744629
vt 0.255371 0.713379
vt 0.758301 0.713379
vt 0.758301 0.744629
vt 0.508301 0.744629
vt 0.508301 0.713379
vn 0 -1 0
vn 0 1 0
vn 0 0 -1
vn 0 0 1
vn -1 0 0
vn 1 0 0
f 9/9/3 10/10/3 11/11/3 12/12/3
f 16/13/4 15/14/4 14/15/4 13/16/4
f 20/17/5 19/18/5 18/19/5 17/20/5
f 21/21/6 22/22/6 23/23/6 24/24/6
f 25/25/7 26/26/7 27/27/7 28/28/7
f 32/29/8 31/30/8 30/31/8 29/32/8
o frame_right_member
usemtl storefront_glazing
v 0 0 0.1875
v 0.0625 0 0.1875
v 0.0625 0 0.3125
v 0 0 0.3125
v 0 1 0.1875
v 0.0625 1 0.1875
v 0.0625 1 0.3125
v 0 1 0.3125
v 0 0 0.1875
v 0.0625 0 0.1875
v 0.0625 1 0.1875
v 0 1 0.1875
v 0 0 0.3125
v 0.0625 0 0.3125
v 0.0625 1 0.3125
v 0 1 0.3125
v 0 0 0.1875
v 0 0 0.3125
v 0 1 0.3125
v 0 1 0.1875
v 0.0625 0 0.1875
v 0.0625 0 0.3125
v 0.0625 1 0.3125
v 0.0625 1 0.1875
vt 0.57666 0.57373
vt 0.57666 0.558105
vt 0.60791 0.558105
vt 0.60791 0.57373
vt 0.64209 0.558105
vt 0.64209 0.57373
vt 0.61084 0.57373
vt 0.61084 0.558105
vt 0.505371 0.57666
vt 0.505371 0.592285
vt 0.255371 0.592285
vt 0.255371 0.57666
vt 0.508301 0.592285
vt 0.508301 0.57666
vt 0.758301 0.57666
vt 0.758301 0.592285
vt 0.252441 0.663574
vt 0.252441 0.694824
vt 0.002441 0.694824
vt 0.002441 0.663574
vt 0.505371 0.663574
vt 0.505371 0.694824
vt 0.255371 0.694824
vt 0.255371 0.663574
vn 0 -1 0
vn 0 1 0
vn 0 0 -1
vn 0 0 1
vn -1 0 0
vn 1 0 0
f 33/33/9 34/34/9 35/35/9 36/36/9
f 40/37/10 39/38/10 38/39/10 37/40/10
f 44/41/11 43/42/11 42/43/11 41/44/11
f 45/45/12 46/46/12 47/47/12 48/48/12
f 49/49/13 50/50/13 51/51/13 52/52/13
f 56/53/14 55/54/14 54/55/14 53/56/14
o rail_top_member
usemtl storefront_glazing
v 0 0.9375 0.18875
v 1 0.9375 0.18875
v 1 0.9375 0.31125
v 0 0.9375 0.31125
v 0 0.99875 0.18875
v 1 0.99875 0.18875
v 1 0.99875 0.31125
v 0 0.99875 0.31125
v 0 0.9375 0.18875
v 1 0.9375 0.18875
v 1 0.99875 0.18875
v 0 0.99875 0.18875
v 0 0.9375 0.31125
v 1 0.9375 0.31125
v 1 0.99875 0.31125
v 0 0.99875 0.31125
vt 0.255371 0.63002
vt 0.505371 0.63002
vt 0.505371 0.660645
vt 0.255371 0.660645
vt 0.758301 0.660645
vt 0.508301 0.660645
vt 0.508301 0.63002
vt 0.758301 0.63002
vt 0.963379 0.57373
vt 0.713379 0.57373
vt 0.713379 0.558418
vt 0.963379 0.558418
vt 0.002441 0.539863
vt 0.252441 0.539863
vt 0.252441 0.555176
vt 0.002441 0.555176
vn 0 -1 0
vn 0 1 0
vn 0 0 -1
vn 0 0 1
f 57/57/15 58/58/15 59/59/15 60/60/15
f 64/61/16 63/62/16 62/63/16 61/64/16
f 68/65/17 67/66/17 66/67/17 65/68/17
f 69/69/18 70/70/18 71/71/18 72/72/18
o sill_rail
usemtl storefront_glazing
v 0 0.00125 0.18875
v 1 0.00125 0.18875
v 1 0.00125 0.31125
v 0 0.00125 0.31125
v 0 0.0625 0.18875
v 1 0.0625 0.18875
v 1 0.0625 0.31125
v 0 0.0625 0.31125
v 0 0.00125 0.18875
v 1 0.00125 0.18875
v 1 0.0625 0.18875
v 0 0.0625 0.18875
v 0 0.00125 0.31125
v 1 0.00125 0.31125
v 1 0.0625 0.31125
v 0 0.0625 0.31125
vt 0.002441 0.59584
vt 0.252441 0.59584
vt 0.252441 0.626465
vt 0.002441 0.626465
vt 0.505371 0.626465
vt 0.255371 0.626465
vt 0.255371 0.59584
vt 0.505371 0.59584
vt 0.505371 0.555176
vt 0.255371 0.555176
vt 0.255371 0.539863
vt 0.505371 0.539863
vt 0.508301 0.539863
vt 0.758301 0.539863
vt 0.758301 0.555176
vt 0.508301 0.555176
vn 0 -1 0
vn 0 1 0
vn 0 0 -1
vn 0 0 1
f 73/73/19 74/74/19 75/75/19 76/76/19
f 80/77/20 79/78/20 78/79/20 77/80/20
f 84/81/21 83/82/21 82/83/21 81/84/21
f 85/85/22 86/86/22 87/87/22 88/88/22
o sill_flashing
usemtl storefront_glazing
v 0 0 0
v 1 0 0
v 1 0 0.186875
v 0 0 0.186875
v 0 0.021875 0
v 1 0.021875 0
v 1 0.021875 0.186875
v 0 0.021875 0.186875
v 0 0 0
v 1 0 0
v 1 0.021875 0
v 0 0.021875 0
v 0 0 0.186875
v 1 0 0.186875
v 1 0.021875 0.186875
v 0 0.021875 0.186875
v 0 0 0
v 0 0 0.186875
v 0 0.021875 0.186875
v 0 0.021875 0
v 1 0 0
v 1 0 0.186875
v 1 0.021875 0.186875
v 1 0.021875 0
vt 0.508301 0.95084
vt 0.758301 0.95084
vt 0.758301 0.997559
vt 0.508301 0.997559
vt 0.252441 0.744629
vt 0.002441 0.744629
vt 0.002441 0.69791
vt 0.252441 0.69791
vt 0.526855 0.525879
vt 0.276855 0.525879
vt 0.276855 0.52041
vt 0.526855 0.52041
vt 0.529785 0.52041
vt 0.779785 0.52041
vt 0.779785 0.525879
vt 0.529785 0.525879
vt 0.782715 0.52041
vt 0.829434 0.52041
vt 0.829434 0.525879
vt 0.782715 0.525879
vt 0.83252 0.52041
vt 0.879238 0.52041
vt 0.879238 0.525879
vt 0.83252 0.525879
vn 0 -1 0
vn 0 1 0
vn 0 0 -1
vn 0 0 1
vn -1 0 0
vn 1 0 0
f 89/89/23 90/90/23 91/91/23 92/92/23
f 96/93/24 95/94/24 94/95/24 93/96/24
f 100/97/25 99/98/25 98/99/25 97/100/25
f 101/101/26 102/102/26 103/103/26 104/104/26
f 105/105/27 106/106/27 107/107/27 108/108/27
f 112/109/28 111/110/28 110/111/28 109/112/28
o sill_drip
usemtl storefront_glazing
v 0 -0.028125 -0.015625
v 1 -0.028125 -0.015625
v 1 -0.028125 0.015625
v 0 -0.028125 0.015625
v 0 0 -0.015625
v 1 0 -0.015625
v 1 0 0.015625
v 0 0 0.015625
v 0 -0.028125 -0.015625
v 1 -0.028125 -0.015625
v 1 0 -0.015625
v 0 0 -0.015625
v 0 -0.028125 0.015625
v 1 -0.028125 0.015625
v 1 0 0.015625
v 0 0 0.015625
v 0 -0.028125 -0.015625
v 0 -0.028125 0.015625
v 0 0 0.015625
v 0 0 -0.015625
v 1 -0.028125 -0.015625
v 1 -0.028125 0.015625
v 1 0 0.015625
v 1 0 -0.015625
vt 0.002441 0.528809
vt 0.252441 0.528809
vt 0.252441 0.536621
vt 0.002441 0.536621
vt 0.505371 0.536621
vt 0.255371 0.536621
vt 0.255371 0.528809
vt 0.505371 0.528809
vt 0.758301 0.536621
vt 0.508301 0.536621
vt 0.508301 0.52959
vt 0.758301 0.52959
vt 0.002441 0.518848
vt 0.252441 0.518848
vt 0.252441 0.525879
vt 0.002441 0.525879
vt 0.255371 0.518848
vt 0.263184 0.518848
vt 0.263184 0.525879
vt 0.255371 0.525879
vt 0.266113 0.518848
vt 0.273926 0.518848
vt 0.273926 0.525879
vt 0.266113 0.525879
vn 0 -1 0
vn 0 1 0
vn 0 0 -1
vn 0 0 1
vn -1 0 0
vn 1 0 0
f 113/113/29 114/114/29 115/115/29 116/116/29
f 120/117/30 119/118/30 118/119/30 117/120/30
f 124/121/31 123/122/31 122/123/31 121/124/31
f 125/125/32 126/126/32 127/127/32 128/128/32
f 129/129/33 130/130/33 131/131/33 132/132/33
f 136/133/34 135/134/34 134/135/34 133/136/34
