# AFL Storefront Glazing V1 head / transom, generated by tools/build-storefront-glazing-v1.mjs
mtllib rail_top.mtl
o rail_top_member
usemtl storefront_glazing
v 0 0.9375 0.18875
v 1 0.9375 0.18875
v 1 0.9375 0.31125
v 0 0.9375 0.31125
v 0 0.99875 0.18875
v 1 0.99875 0.18875
v 1 0.99875 0.31125
v 0 0.99875 0.31125
v 0 0.9375 0.18875
v 1 0.9375 0.18875
v 1 0.99875 0.18875
v 0 0.99875 0.18875
v 0 0.9375 0.31125
v 1 0.9375 0.31125
v 1 0.99875 0.31125
v 0 0.99875 0.31125
vt 0.255371 0.63002
vt 0.505371 0.63002
vt 0.505371 0.660645
vt 0.255371 0.660645
vt 0.758301 0.660645
vt 0.508301 0.660645
vt 0.508301 0.63002
vt 0.758301 0.63002
vt 0.963379 0.57373
vt 0.713379 0.57373
vt 0.713379 0.558418
vt 0.963379 0.558418
vt 0.002441 0.539863
vt 0.252441 0.539863
vt 0.252441 0.555176
vt 0.002441 0.555176
vn 0 -1 0
vn 0 1 0
vn 0 0 -1
vn 0 0 1
f 1/1/1 2/2/1 3/3/1 4/4/1
f 8/5/2 7/6/2 6/7/2 5/8/2
f 12/9/3 11/10/3 10/11/3 9/12/3
f 13/13/4 14/14/4 15/15/4 16/16/4
