# AFL Storefront Glazing V1 sill rail and flashing, generated by tools/build-storefront-glazing-v1.mjs
mtllib sill.mtl
o sill_rail
usemtl storefront_glazing
v 0 0.00125 0.18875
v 1 0.00125 0.18875
v 1 0.00125 0.31125
v 0 0.00125 0.31125
v 0 0.0625 0.18875
v 1 0.0625 0.18875
v 1 0.0625 0.31125
v 0 0.0625 0.31125
v 0 0.00125 0.18875
v 1 0.00125 0.18875
v 1 0.0625 0.18875
v 0 0.0625 0.18875
v 0 0.00125 0.31125
v 1 0.00125 0.31125
v 1 0.0625 0.31125
v 0 0.0625 0.31125
vt 0.002441 0.59584
vt 0.252441 0.59584
vt 0.252441 0.626465
vt 0.002441 0.626465
vt 0.505371 0.626465
vt 0.255371 0.626465
vt 0.255371 0.59584
vt 0.505371 0.59584
vt 0.505371 0.555176
vt 0.255371 0.555176
vt 0.255371 0.539863
vt 0.505371 0.539863
vt 0.508301 0.539863
vt 0.758301 0.539863
vt 0.758301 0.555176
vt 0.508301 0.555176
vn 0 -1 0
vn 0 1 0
vn 0 0 -1
vn 0 0 1
f 1/1/1 2/2/1 3/3/1 4/4/1
f 8/5/2 7/6/2 6/7/2 5/8/2
f 12/9/3 11/10/3 10/11/3 9/12/3
f 13/13/4 14/14/4 15/15/4 16/16/4
o sill_flashing
usemtl storefront_glazing
v 0 0 0
v 1 0 0
v 1 0 0.186875
v 0 0 0.186875
v 0 0.021875 0
v 1 0.021875 0
v 1 0.021875 0.186875
v 0 0.021875 0.186875
v 0 0 0
v 1 0 0
v 1 0.021875 0
v 0 0.021875 0
v 0 0 0.186875
v 1 0 0.186875
v 1 0.021875 0.186875
v 0 0.021875 0.186875
v 0 0 0
v 0 0 0.186875
v 0 0.021875 0.186875
v 0 0.021875 0
v 1 0 0
v 1 0 0.186875
v 1 0.021875 0.186875
v 1 0.021875 0
vt 0.508301 0.95084
vt 0.758301 0.95084
vt 0.758301 0.997559
vt 0.508301 0.997559
vt 0.252441 0.744629
vt 0.002441 0.744629
vt 0.002441 0.69791
vt 0.252441 0.69791
vt 0.758301 0.536621
vt 0.508301 0.536621
vt 0.508301 0.531152
vt 0.758301 0.531152
vt 0.002441 0.51748
vt 0.252441 0.51748
vt 0.252441 0.522949
vt 0.002441 0.522949
vt 0.255371 0.51748
vt 0.30209 0.51748
vt 0.30209 0.522949
vt 0.255371 0.522949
vt 0.305176 0.51748
vt 0.351895 0.51748
vt 0.351895 0.522949
vt 0.305176 0.522949
vn 0 -1 0
vn 0 1 0
vn 0 0 -1
vn 0 0 1
vn -1 0 0
vn 1 0 0
f 17/17/5 18/18/5 19/19/5 20/20/5
f 24/21/6 23/22/6 22/23/6 21/24/6
f 28/25/7 27/26/7 26/27/7 25/28/7
f 29/29/8 30/30/8 31/31/8 32/32/8
f 33/33/9 34/34/9 35/35/9 36/36/9
f 40/37/10 39/38/10 38/39/10 37/40/10
o sill_drip
usemtl storefront_glazing
v 0 -0.028125 -0.015625
v 1 -0.028125 -0.015625
v 1 -0.028125 0
v 0 -0.028125 0
v 0 0.0125 -0.015625
v 1 0.0125 -0.015625
v 1 0.0125 0
v 0 0.0125 0
v 0 -0.028125 -0.015625
v 1 -0.028125 -0.015625
v 1 0.0125 -0.015625
v 0 0.0125 -0.015625
v 0 -0.028125 0
v 1 -0.028125 0
v 1 0.0125 0
v 0 0.0125 0
v 0 -0.028125 -0.015625
v 0 -0.028125 0
v 0 0.0125 0
v 0 0.0125 -0.015625
v 1 -0.028125 -0.015625
v 1 -0.028125 0
v 1 0.0125 0
v 1 0.0125 -0.015625
vt 0.35498 0.519043
vt 0.60498 0.519043
vt 0.60498 0.522949
vt 0.35498 0.522949
vt 0.85791 0.522949
vt 0.60791 0.522949
vt 0.60791 0.519043
vt 0.85791 0.519043
vt 0.252441 0.536621
vt 0.002441 0.536621
vt 0.002441 0.526465
vt 0.252441 0.526465
vt 0.255371 0.526465
vt 0.505371 0.526465
vt 0.505371 0.536621
vt 0.255371 0.536621
vt 0.870996 0.519043
vt 0.870996 0.522949
vt 0.86084 0.522949
vt 0.86084 0.519043
vt 0.884668 0.519043
vt 0.884668 0.522949
vt 0.874512 0.522949
vt 0.874512 0.519043
vn 0 -1 0
vn 0 1 0
vn 0 0 -1
vn 0 0 1
vn -1 0 0
vn 1 0 0
f 41/41/11 42/42/11 43/43/11 44/44/11
f 48/45/12 47/46/12 46/47/12 45/48/12
f 52/49/13 51/50/13 50/51/13 49/52/13
f 53/53/14 54/54/14 55/55/14 56/56/14
f 57/57/15 58/58/15 59/59/15 60/60/15
f 64/61/16 63/62/16 62/63/16 61/64/16
