# AFL Building Lights V1 square panel light (off), generated by tools/build-building-lights-v1.mjs
mtllib off.mtl
o frame
usemtl panel
v 0.797 0 0.206395
v 0.796506 0 0.204553
v 0.795447 0 0.203494
v 0.793605 0 0.203
v 0.206395 0 0.203
v 0.204553 0 0.203494
v 0.203494 0 0.204553
v 0.203 0 0.206395
v 0.203 0 0.793605
v 0.203494 0 0.795447
v 0.204553 0 0.796506
v 0.206395 0 0.797
v 0.793605 0 0.797
v 0.795447 0 0.796506
v 0.796506 0 0.795447
v 0.797 0 0.793605
v 0.8 0.003 0.206
v 0.799196 0.003 0.203
v 0.797 0.003 0.200804
v 0.794 0.003 0.2
v 0.206 0.003 0.2
v 0.203 0.003 0.200804
v 0.200804 0.003 0.203
v 0.2 0.003 0.206
v 0.2 0.003 0.794
v 0.200804 0.003 0.797
v 0.203 0.003 0.799196
v 0.206 0.003 0.8
v 0.794 0.003 0.8
v 0.797 0.003 0.799196
v 0.799196 0.003 0.797
v 0.8 0.003 0.794
v 0.8 0.061 0.206
v 0.799196 0.061 0.203
v 0.797 0.061 0.200804
v 0.794 0.061 0.2
v 0.206 0.061 0.2
v 0.203 0.061 0.200804
v 0.200804 0.061 0.203
v 0.2 0.061 0.206
v 0.2 0.061 0.794
v 0.200804 0.061 0.797
v 0.203 0.061 0.799196
v 0.206 0.061 0.8
v 0.794 0.061 0.8
v 0.797 0.061 0.799196
v 0.799196 0.061 0.797
v 0.8 0.061 0.794
v 0.797 0.064 0.206395
v 0.796506 0.064 0.204553
v 0.795447 0.064 0.203494
v 0.793605 0.064 0.203
v 0.206395 0.064 0.203
v 0.204553 0.064 0.203494
v 0.203494 0.064 0.204553
v 0.203 0.064 0.206395
v 0.203 0.064 0.793605
v 0.203494 0.064 0.795447
v 0.204553 0.064 0.796506
v 0.206395 0.064 0.797
v 0.793605 0.064 0.797
v 0.795447 0.064 0.796506
v 0.796506 0.064 0.795447
v 0.797 0.064 0.793605
v 0.783 0 0.777395
v 0.782288 0 0.780053
v 0.780053 0 0.782288
v 0.777395 0 0.783
v 0.222605 0 0.783
v 0.219947 0 0.782288
v 0.217712 0 0.780053
v 0.217 0 0.777395
v 0.217 0 0.222605
v 0.217712 0 0.219947
v 0.219947 0 0.217712
v 0.222605 0 0.217
v 0.777395 0 0.217
v 0.780053 0 0.217712
v 0.782288 0 0.219947
v 0.783 0 0.222605
v 0.78 0.003 0.777
v 0.779598 0.003 0.7785
v 0.7785 0.003 0.779598
v 0.777 0.003 0.78
v 0.223 0.003 0.78
v 0.2215 0.003 0.779598
v 0.220402 0.003 0.7785
v 0.22 0.003 0.777
v 0.22 0.003 0.223
v 0.220402 0.003 0.2215
v 0.2215 0.003 0.220402
v 0.223 0.003 0.22
v 0.777 0.003 0.22
v 0.7785 0.003 0.220402
v 0.779598 0.003 0.2215
v 0.78 0.003 0.223
v 0.78 0.061 0.777
v 0.779598 0.061 0.7785
v 0.7785 0.061 0.779598
v 0.777 0.061 0.78
v 0.223 0.061 0.78
v 0.2215 0.061 0.779598
v 0.220402 0.061 0.7785
v 0.22 0.061 0.777
v 0.22 0.061 0.223
v 0.220402 0.061 0.2215
v 0.2215 0.061 0.220402
v 0.223 0.061 0.22
v 0.777 0.061 0.22
v 0.7785 0.061 0.220402
v 0.779598 0.061 0.2215
v 0.78 0.061 0.223
v 0.783 0.064 0.777395
v 0.782288 0.064 0.780053
v 0.780053 0.064 0.782288
v 0.777395 0.064 0.783
v 0.222605 0.064 0.783
v 0.219947 0.064 0.782288
v 0.217712 0.064 0.780053
v 0.217 0.064 0.777395
v 0.217 0.064 0.222605
v 0.217712 0.064 0.219947
v 0.219947 0.064 0.217712
v 0.222605 0.064 0.217
v 0.777395 0.064 0.217
v 0.780053 0.064 0.217712
v 0.782288 0.064 0.219947
v 0.783 0.064 0.222605
v 0.797 0 0.206395
v 0.796506 0 0.204553
v 0.795447 0 0.203494
v 0.793605 0 0.203
v 0.206395 0 0.203
v 0.204553 0 0.203494
v 0.203494 0 0.204553
v 0.203 0 0.206395
v 0.203 0 0.793605
v 0.203494 0 0.795447
v 0.204553 0 0.796506
v 0.206395 0 0.797
v 0.793605 0 0.797
v 0.795447 0 0.796506
v 0.796506 0 0.795447
v 0.797 0 0.793605
v 0.783 0 0.777395
v 0.782288 0 0.780053
v 0.780053 0 0.782288
v 0.777395 0 0.783
v 0.222605 0 0.783
v 0.219947 0 0.782288
v 0.217712 0 0.780053
v 0.217 0 0.777395
v 0.217 0 0.222605
v 0.217712 0 0.219947
v 0.219947 0 0.217712
v 0.222605 0 0.217
v 0.777395 0 0.217
v 0.780053 0 0.217712
v 0.782288 0 0.219947
v 0.783 0 0.222605
v 0.797 0.064 0.206395
v 0.796506 0.064 0.204553
v 0.795447 0.064 0.203494
v 0.793605 0.064 0.203
v 0.206395 0.064 0.203
v 0.204553 0.064 0.203494
v 0.203494 0.064 0.204553
v 0.203 0.064 0.206395
v 0.203 0.064 0.793605
v 0.203494 0.064 0.795447
v 0.204553 0.064 0.796506
v 0.206395 0.064 0.797
v 0.793605 0.064 0.797
v 0.795447 0.064 0.796506
v 0.796506 0.064 0.795447
v 0.797 0.064 0.793605
v 0.783 0.064 0.777395
v 0.782288 0.064 0.780053
v 0.780053 0.064 0.782288
v 0.777395 0.064 0.783
v 0.222605 0.064 0.783
v 0.219947 0.064 0.782288
v 0.217712 0.064 0.780053
v 0.217 0.064 0.777395
v 0.217 0.064 0.222605
v 0.217712 0.064 0.219947
v 0.219947 0.064 0.217712
v 0.222605 0.064 0.217
v 0.777395 0.064 0.217
v 0.780053 0.064 0.217712
v 0.782288 0.064 0.219947
v 0.783 0.064 0.222605
vt 0.486801 0.100437
vt 0.486014 0.100586
vt 0.485352 0.098889
vt 0.486634 0.098648
vt 0.602904 0.081055
vt 0.602539 0.080539
vt 0.603805 0.079228
vt 0.604561 0.080298
vt 0.251337 0.172852
vt 0.250566 0.172633
vt 0.250894 0.170865
vt 0.252149 0.171222
vt 0.250566 0.172633
vt 0.004886 0.15044
vt 0.004883 0.148642
vt 0.250894 0.170865
vt 0.662866 0.079351
vt 0.663151 0.080103
vt 0.661597 0.081055
vt 0.661133 0.079829
vt 0.624092 0.080539
vt 0.623728 0.081055
vt 0.62207 0.080298
vt 0.622827 0.079228
vt 0.741873 0.098648
vt 0.74266 0.098796
vt 0.742493 0.100586
vt 0.741211 0.100344
vt 0.74266 0.098796
vt 0.989341 0.098796
vt 0.989506 0.100586
vt 0.742493 0.100586
vt 0.729329 0.079598
vt 0.729478 0.080388
vt 0.727783 0.081055
vt 0.727539 0.079767
vt 0.613962 0.079228
vt 0.614327 0.079744
vt 0.613061 0.081055
vt 0.612305 0.079985
vt 0.259601 0.148642
vt 0.260372 0.148861
vt 0.260044 0.150629
vt 0.258789 0.150272
vt 0.260372 0.148861
vt 0.506053 0.171054
vt 0.506055 0.172852
vt 0.260044 0.150629
vt 0.671184 0.081055
vt 0.670898 0.080302
vt 0.672452 0.079351
vt 0.672916 0.080576
vt 0.631836 0.079744
vt 0.632201 0.079228
vt 0.633858 0.079985
vt 0.633102 0.081055
vt 0.743164 0.080388
vt 0.743314 0.079598
vt 0.745103 0.079767
vt 0.74486 0.081055
vt 0.733482 0.100437
vt 0.486801 0.100437
vt 0.486634 0.098648
vt 0.733646 0.098648
vt 0.875977 0.081055
vt 0.875977 0.079744
vt 0.900445 0.079744
vt 0.900445 0.081055
vt 0.750977 0.081055
vt 0.750977 0.079744
vt 0.775445 0.079744
vt 0.775445 0.081055
vt 0.907227 0.081055
vt 0.907227 0.079744
vt 0.931695 0.079744
vt 0.931695 0.081055
vt 0.24707 0.45307
vt 0.495133 0.45307
vt 0.495133 0.477539
vt 0.24707 0.477539
vt 0.938477 0.081055
vt 0.938477 0.079744
vt 0.962945 0.079744
vt 0.962945 0.081055
vt 0.806695 0.079744
vt 0.806695 0.081055
vt 0.782227 0.081055
vt 0.782227 0.079744
vt 0.994195 0.079744
vt 0.994195 0.081055
vt 0.969727 0.081055
vt 0.969727 0.079744
vt 0.50293 0.45307
vt 0.750992 0.45307
vt 0.750992 0.477539
vt 0.50293 0.477539
vt 0.029352 0.071932
vt 0.029352 0.073242
vt 0.004883 0.073242
vt 0.004883 0.071932
vt 0.837945 0.079744
vt 0.837945 0.081055
vt 0.813477 0.081055
vt 0.813477 0.079744
vt 0.036133 0.073242
vt 0.036133 0.071932
vt 0.060602 0.071932
vt 0.060602 0.073242
vt 0.004883 0.210883
vt 0.252945 0.210883
vt 0.252945 0.235352
vt 0.004883 0.235352
vt 0.067383 0.073242
vt 0.067383 0.071932
vt 0.091852 0.071932
vt 0.091852 0.073242
vt 0.844727 0.081055
vt 0.844727 0.079744
vt 0.869195 0.079744
vt 0.869195 0.081055
vt 0.098633 0.073242
vt 0.098633 0.071932
vt 0.123102 0.071932
vt 0.123102 0.073242
vt 0.508805 0.235352
vt 0.260742 0.235352
vt 0.260742 0.210883
vt 0.508805 0.210883
vt 0.006165 0.088867
vt 0.004883 0.088625
vt 0.005545 0.086929
vt 0.006332 0.087077
vt 0.563477 0.080298
vt 0.564233 0.079228
vt 0.565499 0.080539
vt 0.565134 0.081055
vt 0.485352 0.202472
vt 0.486607 0.202115
vt 0.486934 0.203883
vt 0.486164 0.204102
vt 0.486607 0.202115
vt 0.732618 0.179892
vt 0.732615 0.18169
vt 0.486934 0.203883
vt 0.641602 0.080576
vt 0.642066 0.079351
vt 0.643619 0.080302
vt 0.643334 0.081055
vt 0.584273 0.079228
vt 0.58503 0.080298
vt 0.583373 0.081055
vt 0.583008 0.080539
vt 0.260742 0.087171
vt 0.262024 0.086929
vt 0.262192 0.088719
vt 0.261404 0.088867
vt 0.262024 0.086929
vt 0.509037 0.086929
vt 0.508873 0.088719
vt 0.262192 0.088719
vt 0.721666 0.079767
vt 0.721422 0.081055
vt 0.719727 0.080388
vt 0.719876 0.079598
vt 0.575264 0.079985
vt 0.574508 0.081055
vt 0.573242 0.079744
vt 0.573607 0.079228
vt 0.986524 0.181522
vt 0.985269 0.181879
vt 0.984941 0.180111
vt 0.985712 0.179892
vt 0.985269 0.181879
vt 0.739258 0.204102
vt 0.739261 0.202304
vt 0.984941 0.180111
vt 0.653385 0.079829
vt 0.652921 0.081055
vt 0.651367 0.080103
vt 0.651652 0.079351
vt 0.59353 0.081055
vt 0.592773 0.079985
vt 0.594431 0.079228
vt 0.594796 0.079744
vt 0.735595 0.081055
vt 0.735352 0.079767
vt 0.737141 0.079598
vt 0.737291 0.080388
vt 0.253178 0.088867
vt 0.006165 0.088867
vt 0.006332 0.087077
vt 0.253013 0.087077
vt 0.989898 0.086956
vt 0.991033 0.087171
vt 0.990371 0.088867
vt 0.98973 0.088746
vt 0.506918 0.079966
vt 0.506148 0.081055
vt 0.504883 0.079744
vt 0.505261 0.07921
vt 0.238111 0.120318
vt 0.236999 0.120634
vt 0.236672 0.118866
vt 0.237299 0.118688
vt 0.236999 0.120634
vt 0.004883 0.141602
vt 0.004886 0.139804
vt 0.236672 0.118866
vt 0.70216 0.079969
vt 0.701749 0.081055
vt 0.700195 0.080103
vt 0.700427 0.079491
vt 0.515418 0.081055
vt 0.514648 0.079966
vt 0.516306 0.07921
vt 0.516684 0.079744
vt 0.23908 0.08084
vt 0.237944 0.081055
vt 0.237777 0.079265
vt 0.238418 0.079144
vt 0.237944 0.081055
vt 0.004883 0.081055
vt 0.005047 0.079265
vt 0.237777 0.079265
vt 0.129883 0.073073
vt 0.130099 0.071932
vt 0.131794 0.072599
vt 0.131672 0.073242
vt 0.524414 0.080298
vt 0.525184 0.07921
vt 0.52645 0.08052
vt 0.526071 0.081055
vt 0.245117 0.139972
vt 0.246229 0.139656
vt 0.246557 0.141423
vt 0.245929 0.141602
vt 0.246229 0.139656
vt 0.478346 0.118688
vt 0.478343 0.120486
vt 0.246557 0.141423
vt 0.709961 0.080576
vt 0.710372 0.079491
vt 0.711926 0.080442
vt 0.711694 0.081055
vt 0.535445 0.07921
vt 0.536215 0.080298
vt 0.534558 0.081055
vt 0.53418 0.08052
vt 0.147203 0.071932
vt 0.147419 0.073073
vt 0.14563 0.073242
vt 0.145508 0.072599
vt 0.756836 0.086956
vt 0.989898 0.086956
vt 0.98973 0.088746
vt 0.757 0.088746
vt 0.185602 0.072587
vt 0.185602 0.073242
vt 0.161133 0.073242
vt 0.161133 0.072587
vt 0.435602 0.072587
vt 0.435602 0.073242
vt 0.411133 0.073242
vt 0.411133 0.072587
vt 0.286133 0.073242
vt 0.286133 0.072587
vt 0.310602 0.072587
vt 0.310602 0.073242
vt 0.516602 0.210883
vt 0.75032 0.210883
vt 0.75032 0.235352
vt 0.516602 0.235352
vt 0.317383 0.073242
vt 0.317383 0.072587
vt 0.341852 0.072587
vt 0.341852 0.073242
vt 0.442383 0.073242
vt 0.442383 0.072587
vt 0.466852 0.072587
vt 0.466852 0.073242
vt 0.192383 0.073242
vt 0.192383 0.072587
vt 0.216852 0.072587
vt 0.216852 0.073242
vt 0.990555 0.235352
vt 0.756836 0.235352
vt 0.756836 0.210883
vt 0.990555 0.210883
vt 0.223633 0.073242
vt 0.223633 0.072587
vt 0.248102 0.072587
vt 0.248102 0.073242
vt 0.473633 0.073242
vt 0.473633 0.072587
vt 0.498102 0.072587
vt 0.498102 0.073242
vt 0.348633 0.073242
vt 0.348633 0.072587
vt 0.373102 0.072587
vt 0.373102 0.073242
vt 0.004883 0.179633
vt 0.238602 0.179633
vt 0.238602 0.204102
vt 0.004883 0.204102
vt 0.379883 0.073242
vt 0.379883 0.072587
vt 0.404352 0.072587
vt 0.404352 0.073242
vt 0.529352 0.072587
vt 0.529352 0.073242
vt 0.504883 0.073242
vt 0.504883 0.072587
vt 0.279352 0.072587
vt 0.279352 0.073242
vt 0.254883 0.073242
vt 0.254883 0.072587
vt 0.245117 0.179633
vt 0.478836 0.179633
vt 0.478836 0.204102
vt 0.245117 0.204102
vt 0.478011 0.079265
vt 0.478652 0.079144
vt 0.479315 0.08084
vt 0.478179 0.081055
vt 0.545603 0.07921
vt 0.545981 0.079744
vt 0.544715 0.081055
vt 0.543945 0.079966
vt 0.513507 0.149938
vt 0.514135 0.150116
vt 0.513807 0.151884
vt 0.512695 0.151568
vt 0.514135 0.150116
vt 0.745921 0.171054
vt 0.745924 0.172852
vt 0.513807 0.151884
vt 0.680896 0.081055
vt 0.680664 0.080442
vt 0.682218 0.079491
vt 0.682629 0.080576
vt 0.485352 0.079744
vt 0.48573 0.07921
vt 0.487387 0.079966
vt 0.486617 0.081055
vt 0.750137 0.088867
vt 0.749496 0.088746
vt 0.749663 0.086956
vt 0.750799 0.087171
vt 0.749496 0.088746
vt 0.516766 0.088746
vt 0.516602 0.086956
vt 0.749663 0.086956
vt 0.137817 0.073242
vt 0.137695 0.072599
vt 0.139391 0.071932
vt 0.139607 0.073073
vt 0.554089 0.081055
vt 0.553711 0.08052
vt 0.554977 0.07921
vt 0.555746 0.080298
vt 0.985346 0.172852
vt 0.984718 0.172673
vt 0.985046 0.170906
vt 0.986158 0.171222
vt 0.984718 0.172673
vt 0.752933 0.151736
vt 0.75293 0.149938
vt 0.985046 0.170906
vt 0.692162 0.079491
vt 0.692395 0.080103
vt 0.690841 0.081055
vt 0.69043 0.079969
vt 0.497153 0.08052
vt 0.496774 0.081055
vt 0.495117 0.080298
vt 0.495887 0.07921
vt 0.155232 0.072599
vt 0.15511 0.073242
vt 0.15332 0.073073
vt 0.153536 0.071932
vt 0.245282 0.079265
vt 0.478011 0.079265
vt 0.478179 0.081055
vt 0.245117 0.081055
vt 0.525069 0.744732
vt 0.525846 0.744523
vt 0.773576 0.744523
vt 0.524622 0.745179
vt 0.525069 0.744732
vt 0.773576 0.744523
vt 0.524414 0.745956
vt 0.524622 0.745179
vt 0.773576 0.744523
vt 0.524622 0.994462
vt 0.524414 0.993685
vt 0.524414 0.745956
vt 0.525069 0.994909
vt 0.524622 0.994462
vt 0.524414 0.745956
vt 0.525846 0.995117
vt 0.525069 0.994909
vt 0.524414 0.745956
vt 0.774353 0.994909
vt 0.773576 0.995117
vt 0.525846 0.995117
vt 0.7748 0.994462
vt 0.774353 0.994909
vt 0.525846 0.995117
vt 0.775008 0.993685
vt 0.7748 0.994462
vt 0.525846 0.995117
vt 0.769102 0.752794
vt 0.775008 0.745956
vt 0.775008 0.993685
vt 0.769102 0.986846
vt 0.769102 0.752794
vt 0.775008 0.993685
vt 0.768801 0.987968
vt 0.769102 0.986846
vt 0.775008 0.993685
vt 0.767858 0.98891
vt 0.768801 0.987968
vt 0.775008 0.993685
vt 0.766737 0.989211
vt 0.767858 0.98891
vt 0.775008 0.993685
vt 0.766737 0.989211
vt 0.775008 0.993685
vt 0.525846 0.995117
vt 0.532685 0.989211
vt 0.766737 0.989211
vt 0.525846 0.995117
vt 0.531564 0.98891
vt 0.532685 0.989211
vt 0.525846 0.995117
vt 0.530621 0.987968
vt 0.531564 0.98891
vt 0.525846 0.995117
vt 0.53032 0.986846
vt 0.530621 0.987968
vt 0.525846 0.995117
vt 0.53032 0.986846
vt 0.525846 0.995117
vt 0.524414 0.745956
vt 0.53032 0.752794
vt 0.53032 0.986846
vt 0.524414 0.745956
vt 0.530621 0.751673
vt 0.53032 0.752794
vt 0.524414 0.745956
vt 0.531564 0.75073
vt 0.530621 0.751673
vt 0.524414 0.745956
vt 0.532685 0.75043
vt 0.531564 0.75073
vt 0.524414 0.745956
vt 0.532685 0.75043
vt 0.524414 0.745956
vt 0.773576 0.744523
vt 0.766737 0.75043
vt 0.532685 0.75043
vt 0.773576 0.744523
vt 0.767858 0.75073
vt 0.766737 0.75043
vt 0.773576 0.744523
vt 0.768801 0.751673
vt 0.767858 0.75073
vt 0.773576 0.744523
vt 0.769102 0.752794
vt 0.768801 0.751673
vt 0.773576 0.744523
vt 0.775008 0.745956
vt 0.769102 0.752794
vt 0.773576 0.744523
vt 0.7748 0.745179
vt 0.775008 0.745956
vt 0.773576 0.744523
vt 0.773576 0.744523
vt 0.774353 0.744732
vt 0.7748 0.745179
vt 0.254044 0.735352
vt 0.006315 0.735352
vt 0.005538 0.735143
vt 0.254044 0.735352
vt 0.005538 0.735143
vt 0.005091 0.734696
vt 0.254044 0.735352
vt 0.005091 0.734696
vt 0.004883 0.733919
vt 0.004883 0.733919
vt 0.004883 0.48619
vt 0.005091 0.485413
vt 0.004883 0.733919
vt 0.005091 0.485413
vt 0.005538 0.484966
vt 0.004883 0.733919
vt 0.005538 0.484966
vt 0.006315 0.484758
vt 0.006315 0.484758
vt 0.254044 0.484758
vt 0.254821 0.484966
vt 0.006315 0.484758
vt 0.254821 0.484966
vt 0.255268 0.485413
vt 0.006315 0.484758
vt 0.255268 0.485413
vt 0.255477 0.48619
vt 0.255477 0.48619
vt 0.255477 0.733919
vt 0.24957 0.727081
vt 0.255477 0.48619
vt 0.24957 0.727081
vt 0.24957 0.493029
vt 0.255477 0.48619
vt 0.24957 0.493029
vt 0.24927 0.491907
vt 0.255477 0.48619
vt 0.24927 0.491907
vt 0.248327 0.490965
vt 0.255477 0.48619
vt 0.248327 0.490965
vt 0.247206 0.490664
vt 0.006315 0.484758
vt 0.255477 0.48619
vt 0.247206 0.490664
vt 0.006315 0.484758
vt 0.247206 0.490664
vt 0.013154 0.490664
vt 0.006315 0.484758
vt 0.013154 0.490664
vt 0.012032 0.490965
vt 0.006315 0.484758
vt 0.012032 0.490965
vt 0.01109 0.491907
vt 0.006315 0.484758
vt 0.01109 0.491907
vt 0.010789 0.493029
vt 0.004883 0.733919
vt 0.006315 0.484758
vt 0.010789 0.493029
vt 0.004883 0.733919
vt 0.010789 0.493029
vt 0.010789 0.727081
vt 0.004883 0.733919
vt 0.010789 0.727081
vt 0.01109 0.728202
vt 0.004883 0.733919
vt 0.01109 0.728202
vt 0.012032 0.729145
vt 0.004883 0.733919
vt 0.012032 0.729145
vt 0.013154 0.729445
vt 0.254044 0.735352
vt 0.004883 0.733919
vt 0.013154 0.729445
vt 0.254044 0.735352
vt 0.013154 0.729445
vt 0.247206 0.729445
vt 0.254044 0.735352
vt 0.247206 0.729445
vt 0.248327 0.729145
vt 0.254044 0.735352
vt 0.248327 0.729145
vt 0.24927 0.728202
vt 0.254044 0.735352
vt 0.24927 0.728202
vt 0.24957 0.727081
vt 0.254044 0.735352
vt 0.24957 0.727081
vt 0.255477 0.733919
vt 0.254044 0.735352
vt 0.255477 0.733919
vt 0.255268 0.734696
vt 0.255268 0.734696
vt 0.254821 0.735143
vt 0.254044 0.735352
vn 0.707055 -0.707158 -0.000777
vn 0.605607 -0.719232 -0.340508
vn 0.340508 -0.719232 -0.605607
vn 0.000777 -0.707158 -0.707055
vn -0.000777 -0.707158 -0.707055
vn -0.340508 -0.719232 -0.605607
vn -0.605607 -0.719232 -0.340508
vn -0.707055 -0.707158 -0.000777
vn -0.707055 -0.707158 0.000777
vn -0.605607 -0.719232 0.340508
vn -0.340508 -0.719232 0.605607
vn -0.000777 -0.707158 0.707055
vn 0.000777 -0.707158 0.707055
vn 0.340508 -0.719232 0.605607
vn 0.605607 -0.719232 0.340508
vn 0.707055 -0.707158 0.000777
vn 0.999999 0 -0.00136
vn 0.866025 0 -0.5
vn 0.5 0 -0.866025
vn 0.00136 0 -0.999999
vn -0.00136 0 -0.999999
vn -0.5 0 -0.866025
vn -0.866025 0 -0.5
vn -0.999999 0 -0.00136
vn -0.999999 0 0.00136
vn -0.866025 0 0.5
vn -0.5 0 0.866025
vn -0.00136 0 0.999999
vn 0.00136 0 0.999999
vn 0.5 0 0.866025
vn 0.866025 0 0.5
vn 0.999999 0 0.00136
vn 0.707055 0.707158 -0.000777
vn 0.605607 0.719232 -0.340508
vn 0.340508 0.719232 -0.605607
vn 0.000777 0.707158 -0.707055
vn -0.000777 0.707158 -0.707055
vn -0.340508 0.719232 -0.605607
vn -0.605607 0.719232 -0.340508
vn -0.707055 0.707158 -0.000777
vn -0.707055 0.707158 0.000777
vn -0.605607 0.719232 0.340508
vn -0.340508 0.719232 0.605607
vn -0.000777 0.707158 0.707055
vn 0.000777 0.707158 0.707055
vn 0.340508 0.719232 0.605607
vn 0.605607 0.719232 0.340508
vn 0.707055 0.707158 0.000777
vn -0.70706 -0.707153 -0.000708
vn -0.597427 -0.719229 -0.35467
vn -0.35467 -0.719229 -0.597427
vn -0.000708 -0.707153 -0.70706
vn 0.000708 -0.707153 -0.70706
vn 0.35467 -0.719229 -0.597427
vn 0.597427 -0.719229 -0.35467
vn 0.70706 -0.707153 -0.000708
vn 0.70706 -0.707153 0.000708
vn 0.597427 -0.719229 0.35467
vn 0.35467 -0.719229 0.597427
vn 0.000708 -0.707153 0.70706
vn -0.000708 -0.707153 0.70706
vn -0.35467 -0.719229 0.597427
vn -0.597427 -0.719229 0.35467
vn -0.70706 -0.707153 0.000708
vn -1 0 -0.000724
vn -0.000724 0 -1
vn 0.000724 0 -1
vn 1 0 -0.000724
vn 1 0 0.000724
vn 0.000724 0 1
vn -0.000724 0 1
vn -1 0 0.000724
vn -0.70706 0.707153 -0.000708
vn -0.597427 0.719229 -0.35467
vn -0.35467 0.719229 -0.597427
vn -0.000708 0.707153 -0.70706
vn 0.000708 0.707153 -0.70706
vn 0.35467 0.719229 -0.597427
vn 0.597427 0.719229 -0.35467
vn 0.70706 0.707153 -0.000708
vn 0.70706 0.707153 0.000708
vn 0.597427 0.719229 0.35467
vn 0.35467 0.719229 0.597427
vn 0.000708 0.707153 0.70706
vn -0.000708 0.707153 0.70706
vn -0.35467 0.719229 0.597427
vn -0.597427 0.719229 0.35467
vn -0.70706 0.707153 0.000708
vn 0 -1 0
vn 0 1 0
f 1/1/1 2/2/2 18/3/2 17/4/1
f 2/5/2 3/6/3 19/7/3 18/8/2
f 3/9/3 4/10/4 20/11/4 19/12/3
f 4/13/4 5/14/5 21/15/5 20/16/4
f 5/17/5 6/18/6 22/19/6 21/20/5
f 6/21/6 7/22/7 23/23/7 22/24/6
f 7/25/7 8/26/8 24/27/8 23/28/7
f 8/29/8 9/30/9 25/31/9 24/32/8
f 9/33/9 10/34/10 26/35/10 25/36/9
f 10/37/10 11/38/11 27/39/11 26/40/10
f 11/41/11 12/42/12 28/43/12 27/44/11
f 12/45/12 13/46/13 29/47/13 28/48/12
f 13/49/13 14/50/14 30/51/14 29/52/13
f 14/53/14 15/54/15 31/55/15 30/56/14
f 15/57/15 16/58/16 32/59/16 31/60/15
f 16/61/16 1/62/1 17/63/1 32/64/16
f 17/65/17 18/66/18 34/67/18 33/68/17
f 18/69/18 19/70/19 35/71/19 34/72/18
f 19/73/19 20/74/20 36/75/20 35/76/19
f 20/77/20 21/78/21 37/79/21 36/80/20
f 21/81/21 22/82/22 38/83/22 37/84/21
f 22/85/22 23/86/23 39/87/23 38/88/22
f 23/89/23 24/90/24 40/91/24 39/92/23
f 24/93/24 25/94/25 41/95/25 40/96/24
f 25/97/25 26/98/26 42/99/26 41/100/25
f 26/101/26 27/102/27 43/103/27 42/104/26
f 27/105/27 28/106/28 44/107/28 43/108/27
f 28/109/28 29/110/29 45/111/29 44/112/28
f 29/113/29 30/114/30 46/115/30 45/116/29
f 30/117/30 31/118/31 47/119/31 46/120/30
f 31/121/31 32/122/32 48/123/32 47/124/31
f 32/125/32 17/126/17 33/127/17 48/128/32
f 33/129/33 34/130/34 50/131/34 49/132/33
f 34/133/34 35/134/35 51/135/35 50/136/34
f 35/137/35 36/138/36 52/139/36 51/140/35
f 36/141/36 37/142/37 53/143/37 52/144/36
f 37/145/37 38/146/38 54/147/38 53/148/37
f 38/149/38 39/150/39 55/151/39 54/152/38
f 39/153/39 40/154/40 56/155/40 55/156/39
f 40/157/40 41/158/41 57/159/41 56/160/40
f 41/161/41 42/162/42 58/163/42 57/164/41
f 42/165/42 43/166/43 59/167/43 58/168/42
f 43/169/43 44/170/44 60/171/44 59/172/43
f 44/173/44 45/174/45 61/175/45 60/176/44
f 45/177/45 46/178/46 62/179/46 61/180/45
f 46/181/46 47/182/47 63/183/47 62/184/46
f 47/185/47 48/186/48 64/187/48 63/188/47
f 48/189/48 33/190/33 49/191/33 64/192/48
f 65/193/49 66/194/50 82/195/50 81/196/49
f 66/197/50 67/198/51 83/199/51 82/200/50
f 67/201/51 68/202/52 84/203/52 83/204/51
f 68/205/52 69/206/53 85/207/53 84/208/52
f 69/209/53 70/210/54 86/211/54 85/212/53
f 70/213/54 71/214/55 87/215/55 86/216/54
f 71/217/55 72/218/56 88/219/56 87/220/55
f 72/221/56 73/222/57 89/223/57 88/224/56
f 73/225/57 74/226/58 90/227/58 89/228/57
f 74/229/58 75/230/59 91/231/59 90/232/58
f 75/233/59 76/234/60 92/235/60 91/236/59
f 76/237/60 77/238/61 93/239/61 92/240/60
f 77/241/61 78/242/62 94/243/62 93/244/61
f 78/245/62 79/246/63 95/247/63 94/248/62
f 79/249/63 80/250/64 96/251/64 95/252/63
f 80/253/64 65/254/49 81/255/49 96/256/64
f 81/257/65 82/258/23 98/259/23 97/260/65
f 82/261/23 83/262/22 99/263/22 98/264/23
f 83/265/22 84/266/66 100/267/66 99/268/22
f 84/269/66 85/270/67 101/271/67 100/272/66
f 85/273/67 86/274/19 102/275/19 101/276/67
f 86/277/19 87/278/18 103/279/18 102/280/19
f 87/281/18 88/282/68 104/283/68 103/284/18
f 88/285/68 89/286/69 105/287/69 104/288/68
f 89/289/69 90/290/31 106/291/31 105/292/69
f 90/293/31 91/294/30 107/295/30 106/296/31
f 91/297/30 92/298/70 108/299/70 107/300/30
f 92/301/70 93/302/71 109/303/71 108/304/70
f 93/305/71 94/306/27 110/307/27 109/308/71
f 94/309/27 95/310/26 111/311/26 110/312/27
f 95/313/26 96/314/72 112/315/72 111/316/26
f 96/317/72 81/318/65 97/319/65 112/320/72
f 97/321/73 98/322/74 114/323/74 113/324/73
f 98/325/74 99/326/75 115/327/75 114/328/74
f 99/329/75 100/330/76 116/331/76 115/332/75
f 100/333/76 101/334/77 117/335/77 116/336/76
f 101/337/77 102/338/78 118/339/78 117/340/77
f 102/341/78 103/342/79 119/343/79 118/344/78
f 103/345/79 104/346/80 120/347/80 119/348/79
f 104/349/80 105/350/81 121/351/81 120/352/80
f 105/353/81 106/354/82 122/355/82 121/356/81
f 106/357/82 107/358/83 123/359/83 122/360/82
f 107/361/83 108/362/84 124/363/84 123/364/83
f 108/365/84 109/366/85 125/367/85 124/368/84
f 109/369/85 110/370/86 126/371/86 125/372/85
f 110/373/86 111/374/87 127/375/87 126/376/86
f 111/377/87 112/378/88 128/379/88 127/380/87
f 112/381/88 97/382/73 113/383/73 128/384/88
f 130/385/89 129/386/89 144/387/89
f 131/388/89 130/389/89 144/390/89
f 132/391/89 131/392/89 144/393/89
f 134/394/89 133/395/89 132/396/89
f 135/397/89 134/398/89 132/399/89
f 136/400/89 135/401/89 132/402/89
f 138/403/89 137/404/89 136/405/89
f 139/406/89 138/407/89 136/408/89
f 140/409/89 139/410/89 136/411/89
f 148/412/89 141/413/89 140/414/89
f 149/415/89 148/416/89 140/417/89
f 150/418/89 149/419/89 140/420/89
f 151/421/89 150/422/89 140/423/89
f 152/424/89 151/425/89 140/426/89
f 152/427/89 140/428/89 136/429/89
f 153/430/89 152/431/89 136/432/89
f 154/433/89 153/434/89 136/435/89
f 155/436/89 154/437/89 136/438/89
f 156/439/89 155/440/89 136/441/89
f 156/442/89 136/443/89 132/444/89
f 157/445/89 156/446/89 132/447/89
f 158/448/89 157/449/89 132/450/89
f 159/451/89 158/452/89 132/453/89
f 160/454/89 159/455/89 132/456/89
f 160/457/89 132/458/89 144/459/89
f 145/460/89 160/461/89 144/462/89
f 146/463/89 145/464/89 144/465/89
f 147/466/89 146/467/89 144/468/89
f 148/469/89 147/470/89 144/471/89
f 141/472/89 148/473/89 144/474/89
f 142/475/89 141/476/89 144/477/89
f 144/478/89 143/479/89 142/480/89
f 176/481/90 161/482/90 162/483/90
f 176/484/90 162/485/90 163/486/90
f 176/487/90 163/488/90 164/489/90
f 164/490/90 165/491/90 166/492/90
f 164/493/90 166/494/90 167/495/90
f 164/496/90 167/497/90 168/498/90
f 168/499/90 169/500/90 170/501/90
f 168/502/90 170/503/90 171/504/90
f 168/505/90 171/506/90 172/507/90
f 172/508/90 173/509/90 180/510/90
f 172/511/90 180/512/90 181/513/90
f 172/514/90 181/515/90 182/516/90
f 172/517/90 182/518/90 183/519/90
f 172/520/90 183/521/90 184/522/90
f 168/523/90 172/524/90 184/525/90
f 168/526/90 184/527/90 185/528/90
f 168/529/90 185/530/90 186/531/90
f 168/532/90 186/533/90 187/534/90
f 168/535/90 187/536/90 188/537/90
f 164/538/90 168/539/90 188/540/90
f 164/541/90 188/542/90 189/543/90
f 164/544/90 189/545/90 190/546/90
f 164/547/90 190/548/90 191/549/90
f 164/550/90 191/551/90 192/552/90
f 176/553/90 164/554/90 192/555/90
f 176/556/90 192/557/90 177/558/90
f 176/559/90 177/560/90 178/561/90
f 176/562/90 178/563/90 179/564/90
f 176/565/90 179/566/90 180/567/90
f 176/568/90 180/569/90 173/570/90
f 176/571/90 173/572/90 174/573/90
f 174/574/90 175/575/90 176/576/90
o lens_off
usemtl panel
v 0.7798 0.049 0.223
v 0.779425 0.049 0.2216
v 0.7784 0.049 0.220575
v 0.777 0.049 0.2202
v 0.223 0.049 0.2202
v 0.2216 0.049 0.220575
v 0.220575 0.049 0.2216
v 0.2202 0.049 0.223
v 0.2202 0.049 0.777
v 0.220575 0.049 0.7784
v 0.2216 0.049 0.779425
v 0.223 0.049 0.7798
v 0.777 0.049 0.7798
v 0.7784 0.049 0.779425
v 0.779425 0.049 0.7784
v 0.7798 0.049 0.777
v 0.7798 0.061 0.223
v 0.779425 0.061 0.2216
v 0.7784 0.061 0.220575
v 0.777 0.061 0.2202
v 0.223 0.061 0.2202
v 0.2216 0.061 0.220575
v 0.220575 0.061 0.2216
v 0.2202 0.061 0.223
v 0.2202 0.061 0.777
v 0.220575 0.061 0.7784
v 0.2216 0.061 0.779425
v 0.223 0.061 0.7798
v 0.777 0.061 0.7798
v 0.7784 0.061 0.779425
v 0.779425 0.061 0.7784
v 0.7798 0.061 0.777
v 0.7798 0.049 0.223
v 0.779425 0.049 0.2216
v 0.7784 0.049 0.220575
v 0.777 0.049 0.2202
v 0.223 0.049 0.2202
v 0.2216 0.049 0.220575
v 0.220575 0.049 0.2216
v 0.2202 0.049 0.223
v 0.2202 0.049 0.777
v 0.220575 0.049 0.7784
v 0.2216 0.049 0.779425
v 0.223 0.049 0.7798
v 0.777 0.049 0.7798
v 0.7784 0.049 0.779425
v 0.779425 0.049 0.7784
v 0.7798 0.049 0.777
v 0.7798 0.061 0.223
v 0.779425 0.061 0.2216
v 0.7784 0.061 0.220575
v 0.777 0.061 0.2202
v 0.223 0.061 0.2202
v 0.2216 0.061 0.220575
v 0.220575 0.061 0.2216
v 0.2202 0.061 0.223
v 0.2202 0.061 0.777
v 0.220575 0.061 0.7784
v 0.2216 0.061 0.779425
v 0.223 0.061 0.7798
v 0.777 0.061 0.7798
v 0.7784 0.061 0.779425
v 0.779425 0.061 0.7784
v 0.7798 0.061 0.777
vt 0.629883 0.073242
vt 0.629883 0.072631
vt 0.634945 0.072631
vt 0.634945 0.073242
vt 0.536133 0.073242
vt 0.536133 0.072631
vt 0.541195 0.072631
vt 0.541195 0.073242
vt 0.723633 0.073242
vt 0.723633 0.072631
vt 0.728695 0.072631
vt 0.728695 0.073242
vt 0.485352 0.136539
vt 0.71907 0.136539
vt 0.71907 0.141602
vt 0.485352 0.141602
vt 0.735352 0.073242
vt 0.735352 0.072631
vt 0.740414 0.072631
vt 0.740414 0.073242
vt 0.552914 0.072631
vt 0.552914 0.073242
vt 0.547852 0.073242
vt 0.547852 0.072631
vt 0.646664 0.072631
vt 0.646664 0.073242
vt 0.641602 0.073242
vt 0.641602 0.072631
vt 0.725586 0.136539
vt 0.959305 0.136539
vt 0.959305 0.141602
vt 0.725586 0.141602
vt 0.658383 0.072631
vt 0.658383 0.073242
vt 0.65332 0.073242
vt 0.65332 0.072631
vt 0.564633 0.072631
vt 0.564633 0.073242
vt 0.55957 0.073242
vt 0.55957 0.072631
vt 0.74707 0.073242
vt 0.74707 0.072631
vt 0.752133 0.072631
vt 0.752133 0.073242
vt 0.004883 0.107242
vt 0.238602 0.107242
vt 0.238602 0.112305
vt 0.004883 0.112305
vt 0.758789 0.073242
vt 0.758789 0.072631
vt 0.763852 0.072631
vt 0.763852 0.073242
vt 0.571289 0.073242
vt 0.571289 0.072631
vt 0.576352 0.072631
vt 0.576352 0.073242
vt 0.665039 0.073242
vt 0.665039 0.072631
vt 0.670102 0.072631
vt 0.670102 0.073242
vt 0.478836 0.112305
vt 0.245117 0.112305
vt 0.245117 0.107242
vt 0.478836 0.107242
vt 0.263286 0.499429
vt 0.263877 0.49927
vt 0.497595 0.49927
vt 0.262854 0.499861
vt 0.263286 0.499429
vt 0.497595 0.49927
vt 0.262695 0.500452
vt 0.262854 0.499861
vt 0.497595 0.49927
vt 0.262695 0.73417
vt 0.262695 0.500452
vt 0.497595 0.49927
vt 0.262854 0.734761
vt 0.262695 0.73417
vt 0.497595 0.49927
vt 0.263286 0.735193
vt 0.262854 0.734761
vt 0.497595 0.49927
vt 0.263877 0.735352
vt 0.263286 0.735193
vt 0.497595 0.49927
vt 0.497595 0.735352
vt 0.263877 0.735352
vt 0.497595 0.49927
vt 0.498186 0.735193
vt 0.497595 0.735352
vt 0.497595 0.49927
vt 0.498618 0.734761
vt 0.498186 0.735193
vt 0.497595 0.49927
vt 0.498777 0.73417
vt 0.498618 0.734761
vt 0.497595 0.49927
vt 0.498777 0.500452
vt 0.498777 0.73417
vt 0.497595 0.49927
vt 0.498618 0.499861
vt 0.498777 0.500452
vt 0.497595 0.49927
vt 0.497595 0.49927
vt 0.498186 0.499429
vt 0.498618 0.499861
vt 0.739783 0.735352
vt 0.506064 0.735352
vt 0.505473 0.735193
vt 0.739783 0.735352
vt 0.505473 0.735193
vt 0.505041 0.734761
vt 0.739783 0.735352
vt 0.505041 0.734761
vt 0.504883 0.73417
vt 0.739783 0.735352
vt 0.504883 0.73417
vt 0.504883 0.500452
vt 0.739783 0.735352
vt 0.504883 0.500452
vt 0.505041 0.499861
vt 0.739783 0.735352
vt 0.505041 0.499861
vt 0.505473 0.499429
vt 0.739783 0.735352
vt 0.505473 0.499429
vt 0.506064 0.49927
vt 0.739783 0.735352
vt 0.506064 0.49927
vt 0.739783 0.49927
vt 0.739783 0.735352
vt 0.739783 0.49927
vt 0.740373 0.499429
vt 0.739783 0.735352
vt 0.740373 0.499429
vt 0.740806 0.499861
vt 0.739783 0.735352
vt 0.740806 0.499861
vt 0.740964 0.500452
vt 0.739783 0.735352
vt 0.740964 0.500452
vt 0.740964 0.73417
vt 0.739783 0.735352
vt 0.740964 0.73417
vt 0.740806 0.734761
vt 0.740806 0.734761
vt 0.740373 0.735193
vt 0.739783 0.735352
vn 1 0 -0.000675
vn 0.866025 0 -0.5
vn 0.5 0 -0.866025
vn 0.000675 0 -1
vn -0.000675 0 -1
vn -0.5 0 -0.866025
vn -0.866025 0 -0.5
vn -1 0 -0.000675
vn -1 0 0.000675
vn -0.866025 0 0.5
vn -0.5 0 0.866025
vn -0.000675 0 1
vn 0.000675 0 1
vn 0.5 0 0.866025
vn 0.866025 0 0.5
vn 1 0 0.000675
vn 0 -1 0
vn 0 1 0
f 193/577/91 194/578/92 210/579/92 209/580/91
f 194/581/92 195/582/93 211/583/93 210/584/92
f 195/585/93 196/586/94 212/587/94 211/588/93
f 196/589/94 197/590/95 213/591/95 212/592/94
f 197/593/95 198/594/96 214/595/96 213/596/95
f 198/597/96 199/598/97 215/599/97 214/600/96
f 199/601/97 200/602/98 216/603/98 215/604/97
f 200/605/98 201/606/99 217/607/99 216/608/98
f 201/609/99 202/610/100 218/611/100 217/612/99
f 202/613/100 203/614/101 219/615/101 218/616/100
f 203/617/101 204/618/102 220/619/102 219/620/101
f 204/621/102 205/622/103 221/623/103 220/624/102
f 205/625/103 206/626/104 222/627/104 221/628/103
f 206/629/104 207/630/105 223/631/105 222/632/104
f 207/633/105 208/634/106 224/635/106 223/636/105
f 208/637/106 193/638/91 209/639/91 224/640/106
f 226/641/107 225/642/107 240/643/107
f 227/644/107 226/645/107 240/646/107
f 228/647/107 227/648/107 240/649/107
f 229/650/107 228/651/107 240/652/107
f 230/653/107 229/654/107 240/655/107
f 231/656/107 230/657/107 240/658/107
f 232/659/107 231/660/107 240/661/107
f 233/662/107 232/663/107 240/664/107
f 234/665/107 233/666/107 240/667/107
f 235/668/107 234/669/107 240/670/107
f 236/671/107 235/672/107 240/673/107
f 237/674/107 236/675/107 240/676/107
f 238/677/107 237/678/107 240/679/107
f 240/680/107 239/681/107 238/682/107
f 256/683/108 241/684/108 242/685/108
f 256/686/108 242/687/108 243/688/108
f 256/689/108 243/690/108 244/691/108
f 256/692/108 244/693/108 245/694/108
f 256/695/108 245/696/108 246/697/108
f 256/698/108 246/699/108 247/700/108
f 256/701/108 247/702/108 248/703/108
f 256/704/108 248/705/108 249/706/108
f 256/707/108 249/708/108 250/709/108
f 256/710/108 250/711/108 251/712/108
f 256/713/108 251/714/108 252/715/108
f 256/716/108 252/717/108 253/718/108
f 256/719/108 253/720/108 254/721/108
f 254/722/108 255/723/108 256/724/108
o seam
usemtl panel
v 0.80025 0.0183 0.206
v 0.799413 0.0183 0.202875
v 0.797125 0.0183 0.200587
v 0.794 0.0183 0.19975
v 0.206 0.0183 0.19975
v 0.202875 0.0183 0.200587
v 0.200587 0.0183 0.202875
v 0.19975 0.0183 0.206
v 0.19975 0.0183 0.794
v 0.200587 0.0183 0.797125
v 0.202875 0.0183 0.799413
v 0.206 0.0183 0.80025
v 0.794 0.0183 0.80025
v 0.797125 0.0183 0.799413
v 0.799413 0.0183 0.797125
v 0.80025 0.0183 0.794
v 0.80025 0.0197 0.206
v 0.799413 0.0197 0.202875
v 0.797125 0.0197 0.200587
v 0.794 0.0197 0.19975
v 0.206 0.0197 0.19975
v 0.202875 0.0197 0.200587
v 0.200587 0.0197 0.202875
v 0.19975 0.0197 0.206
v 0.19975 0.0197 0.794
v 0.200587 0.0197 0.797125
v 0.202875 0.0197 0.799413
v 0.206 0.0197 0.80025
v 0.794 0.0197 0.80025
v 0.797125 0.0197 0.799413
v 0.799413 0.0197 0.797125
v 0.80025 0.0197 0.794
v 0.798 0.0183 0.794
v 0.797464 0.0183 0.796
v 0.796 0.0183 0.797464
v 0.794 0.0183 0.798
v 0.206 0.0183 0.798
v 0.204 0.0183 0.797464
v 0.202536 0.0183 0.796
v 0.202 0.0183 0.794
v 0.202 0.0183 0.206
v 0.202536 0.0183 0.204
v 0.204 0.0183 0.202536
v 0.206 0.0183 0.202
v 0.794 0.0183 0.202
v 0.796 0.0183 0.202536
v 0.797464 0.0183 0.204
v 0.798 0.0183 0.206
v 0.798 0.0197 0.794
v 0.797464 0.0197 0.796
v 0.796 0.0197 0.797464
v 0.794 0.0197 0.798
v 0.206 0.0197 0.798
v 0.204 0.0197 0.797464
v 0.202536 0.0197 0.796
v 0.202 0.0197 0.794
v 0.202 0.0197 0.206
v 0.202536 0.0197 0.204
v 0.204 0.0197 0.202536
v 0.206 0.0197 0.202
v 0.794 0.0197 0.202
v 0.796 0.0197 0.202536
v 0.797464 0.0197 0.204
v 0.798 0.0197 0.206
v 0.80025 0.0183 0.206
v 0.799413 0.0183 0.202875
v 0.797125 0.0183 0.200587
v 0.794 0.0183 0.19975
v 0.206 0.0183 0.19975
v 0.202875 0.0183 0.200587
v 0.200587 0.0183 0.202875
v 0.19975 0.0183 0.206
v 0.19975 0.0183 0.794
v 0.200587 0.0183 0.797125
v 0.202875 0.0183 0.799413
v 0.206 0.0183 0.80025
v 0.794 0.0183 0.80025
v 0.797125 0.0183 0.799413
v 0.799413 0.0183 0.797125
v 0.80025 0.0183 0.794
v 0.798 0.0183 0.794
v 0.797464 0.0183 0.796
v 0.796 0.0183 0.797464
v 0.794 0.0183 0.798
v 0.206 0.0183 0.798
v 0.204 0.0183 0.797464
v 0.202536 0.0183 0.796
v 0.202 0.0183 0.794
v 0.202 0.0183 0.206
v 0.202536 0.0183 0.204
v 0.204 0.0183 0.202536
v 0.206 0.0183 0.202
v 0.794 0.0183 0.202
v 0.796 0.0183 0.202536
v 0.797464 0.0183 0.204
v 0.798 0.0183 0.206
v 0.80025 0.0197 0.206
v 0.799413 0.0197 0.202875
v 0.797125 0.0197 0.200587
v 0.794 0.0197 0.19975
v 0.206 0.0197 0.19975
v 0.202875 0.0197 0.200587
v 0.200587 0.0197 0.202875
v 0.19975 0.0197 0.206
v 0.19975 0.0197 0.794
v 0.200587 0.0197 0.797125
v 0.202875 0.0197 0.799413
v 0.206 0.0197 0.80025
v 0.794 0.0197 0.80025
v 0.797125 0.0197 0.799413
v 0.799413 0.0197 0.797125
v 0.80025 0.0197 0.794
v 0.798 0.0197 0.794
v 0.797464 0.0197 0.796
v 0.796 0.0197 0.797464
v 0.794 0.0197 0.798
v 0.206 0.0197 0.798
v 0.204 0.0197 0.797464
v 0.202536 0.0197 0.796
v 0.202 0.0197 0.794
v 0.202 0.0197 0.206
v 0.202536 0.0197 0.204
v 0.204 0.0197 0.202536
v 0.206 0.0197 0.202
v 0.794 0.0197 0.202
v 0.796 0.0197 0.202536
v 0.797464 0.0197 0.204
v 0.798 0.0197 0.206
vt 0.549216 0.049805
vt 0.547852 0.049805
vt 0.547852 0.049214
vt 0.549216 0.049214
vt 0.580466 0.049805
vt 0.579102 0.049805
vt 0.579102 0.049214
vt 0.580466 0.049214
vt 0.516602 0.049214
vt 0.517966 0.049214
vt 0.517966 0.049805
vt 0.516602 0.049805
vt 0.004883 0.064839
vt 0.252945 0.064839
vt 0.252945 0.06543
vt 0.004883 0.06543
vt 0.524414 0.049214
vt 0.525779 0.049214
vt 0.525779 0.049805
vt 0.524414 0.049805
vt 0.586914 0.049214
vt 0.588279 0.049214
vt 0.588279 0.049805
vt 0.586914 0.049805
vt 0.555664 0.049214
vt 0.557029 0.049214
vt 0.557029 0.049805
vt 0.555664 0.049805
vt 0.260742 0.064839
vt 0.508805 0.064839
vt 0.508805 0.06543
vt 0.260742 0.06543
vt 0.563477 0.049214
vt 0.564841 0.049214
vt 0.564841 0.049805
vt 0.563477 0.049805
vt 0.594727 0.049214
vt 0.596091 0.049214
vt 0.596091 0.049805
vt 0.594727 0.049805
vt 0.532227 0.049214
vt 0.533591 0.049214
vt 0.533591 0.049805
vt 0.532227 0.049805
vt 0.516602 0.064839
vt 0.764664 0.064839
vt 0.764664 0.06543
vt 0.516602 0.06543
vt 0.540039 0.049214
vt 0.541404 0.049214
vt 0.541404 0.049805
vt 0.540039 0.049805
vt 0.603904 0.049805
vt 0.602539 0.049805
vt 0.602539 0.049214
vt 0.603904 0.049214
vt 0.572654 0.049805
vt 0.571289 0.049805
vt 0.571289 0.049214
vt 0.572654 0.049214
vt 0.252945 0.057617
vt 0.004883 0.057617
vt 0.004883 0.057027
vt 0.252945 0.057027
vt 0.672852 0.049214
vt 0.673725 0.049214
vt 0.673725 0.049805
vt 0.672852 0.049805
vt 0.610352 0.049214
vt 0.611225 0.049214
vt 0.611225 0.049805
vt 0.610352 0.049805
vt 0.618164 0.049214
vt 0.619038 0.049214
vt 0.619038 0.049805
vt 0.618164 0.049805
vt 0.260742 0.057027
vt 0.508805 0.057027
vt 0.508805 0.057617
vt 0.260742 0.057617
vt 0.625977 0.049214
vt 0.62685 0.049214
vt 0.62685 0.049805
vt 0.625977 0.049805
vt 0.634663 0.049805
vt 0.633789 0.049805
vt 0.633789 0.049214
vt 0.634663 0.049214
vt 0.681538 0.049805
vt 0.680664 0.049805
vt 0.680664 0.049214
vt 0.681538 0.049214
vt 0.764664 0.057617
vt 0.516602 0.057617
vt 0.516602 0.057027
vt 0.764664 0.057027
vt 0.68935 0.049805
vt 0.688477 0.049805
vt 0.688477 0.049214
vt 0.68935 0.049214
vt 0.642475 0.049805
vt 0.641602 0.049805
vt 0.641602 0.049214
vt 0.642475 0.049214
vt 0.649414 0.049214
vt 0.650288 0.049214
vt 0.650288 0.049805
vt 0.649414 0.049805
vt 0.004883 0.049214
vt 0.252945 0.049214
vt 0.252945 0.049805
vt 0.004883 0.049805
vt 0.657227 0.049214
vt 0.6581 0.049214
vt 0.6581 0.049805
vt 0.657227 0.049805
vt 0.665039 0.049214
vt 0.665913 0.049214
vt 0.665913 0.049805
vt 0.665039 0.049805
vt 0.696289 0.049214
vt 0.697163 0.049214
vt 0.697163 0.049805
vt 0.696289 0.049805
vt 0.260742 0.049214
vt 0.508805 0.049214
vt 0.508805 0.049805
vt 0.260742 0.049805
vt 0.006201 0.742135
vt 0.00752 0.741781
vt 0.255582 0.741781
vt 0.004883 0.744418
vt 0.005236 0.7431
vt 0.006201 0.742135
vt 0.005236 0.993799
vt 0.004883 0.99248
vt 0.004883 0.744418
vt 0.00752 0.995117
vt 0.006201 0.994764
vt 0.005236 0.993799
vt 0.2569 0.994764
vt 0.255582 0.995117
vt 0.00752 0.995117
vt 0.258219 0.99248
vt 0.257865 0.993799
vt 0.2569 0.994764
vt 0.25727 0.744418
vt 0.258219 0.744418
vt 0.258219 0.99248
vt 0.25727 0.99248
vt 0.25727 0.744418
vt 0.258219 0.99248
vt 0.25727 0.99248
vt 0.258219 0.99248
vt 0.2569 0.994764
vt 0.257043 0.993324
vt 0.25727 0.99248
vt 0.2569 0.994764
vt 0.256426 0.993942
vt 0.257043 0.993324
vt 0.2569 0.994764
vt 0.255582 0.994168
vt 0.256426 0.993942
vt 0.2569 0.994764
vt 0.255582 0.994168
vt 0.2569 0.994764
vt 0.00752 0.995117
vt 0.00752 0.994168
vt 0.255582 0.994168
vt 0.00752 0.995117
vt 0.00752 0.994168
vt 0.00752 0.995117
vt 0.005236 0.993799
vt 0.006676 0.993942
vt 0.00752 0.994168
vt 0.005236 0.993799
vt 0.006058 0.993324
vt 0.006676 0.993942
vt 0.005236 0.993799
vt 0.005832 0.99248
vt 0.006058 0.993324
vt 0.005236 0.993799
vt 0.005832 0.99248
vt 0.005236 0.993799
vt 0.004883 0.744418
vt 0.005832 0.744418
vt 0.005832 0.99248
vt 0.004883 0.744418
vt 0.005832 0.744418
vt 0.004883 0.744418
vt 0.006201 0.742135
vt 0.006058 0.743574
vt 0.005832 0.744418
vt 0.006201 0.742135
vt 0.006676 0.742957
vt 0.006058 0.743574
vt 0.006201 0.742135
vt 0.00752 0.74273
vt 0.006676 0.742957
vt 0.006201 0.742135
vt 0.00752 0.74273
vt 0.006201 0.742135
vt 0.255582 0.741781
vt 0.255582 0.74273
vt 0.00752 0.74273
vt 0.255582 0.741781
vt 0.256426 0.742957
vt 0.255582 0.74273
vt 0.255582 0.741781
vt 0.257043 0.743574
vt 0.256426 0.742957
vt 0.255582 0.741781
vt 0.258219 0.744418
vt 0.25727 0.744418
vt 0.257043 0.743574
vt 0.258219 0.744418
vt 0.257043 0.743574
vt 0.255582 0.741781
vt 0.257865 0.7431
vt 0.258219 0.744418
vt 0.255582 0.741781
vt 0.255582 0.741781
vt 0.2569 0.742135
vt 0.257865 0.7431
vt 0.515348 0.995117
vt 0.267285 0.995117
vt 0.265967 0.994764
vt 0.265967 0.994764
vt 0.265002 0.993799
vt 0.264648 0.99248
vt 0.264648 0.99248
vt 0.264648 0.744418
vt 0.265002 0.7431
vt 0.265002 0.7431
vt 0.265967 0.742135
vt 0.267285 0.741781
vt 0.267285 0.741781
vt 0.515348 0.741781
vt 0.516666 0.742135
vt 0.516666 0.742135
vt 0.517631 0.7431
vt 0.517984 0.744418
vt 0.517984 0.744418
vt 0.517984 0.99248
vt 0.517035 0.99248
vt 0.517984 0.744418
vt 0.517035 0.99248
vt 0.517035 0.744418
vt 0.516666 0.742135
vt 0.517984 0.744418
vt 0.517035 0.744418
vt 0.516666 0.742135
vt 0.517035 0.744418
vt 0.516809 0.743574
vt 0.516666 0.742135
vt 0.516809 0.743574
vt 0.516191 0.742957
vt 0.516666 0.742135
vt 0.516191 0.742957
vt 0.515348 0.74273
vt 0.267285 0.741781
vt 0.516666 0.742135
vt 0.515348 0.74273
vt 0.267285 0.741781
vt 0.515348 0.74273
vt 0.267285 0.74273
vt 0.265002 0.7431
vt 0.267285 0.741781
vt 0.267285 0.74273
vt 0.265002 0.7431
vt 0.267285 0.74273
vt 0.266441 0.742957
vt 0.265002 0.7431
vt 0.266441 0.742957
vt 0.265824 0.743574
vt 0.265002 0.7431
vt 0.265824 0.743574
vt 0.265598 0.744418
vt 0.264648 0.99248
vt 0.265002 0.7431
vt 0.265598 0.744418
vt 0.264648 0.99248
vt 0.265598 0.744418
vt 0.265598 0.99248
vt 0.265967 0.994764
vt 0.264648 0.99248
vt 0.265598 0.99248
vt 0.265967 0.994764
vt 0.265598 0.99248
vt 0.265824 0.993324
vt 0.265967 0.994764
vt 0.265824 0.993324
vt 0.266441 0.993942
vt 0.265967 0.994764
vt 0.266441 0.993942
vt 0.267285 0.994168
vt 0.515348 0.995117
vt 0.265967 0.994764
vt 0.267285 0.994168
vt 0.515348 0.995117
vt 0.267285 0.994168
vt 0.515348 0.994168
vt 0.515348 0.995117
vt 0.515348 0.994168
vt 0.516191 0.993942
vt 0.515348 0.995117
vt 0.516191 0.993942
vt 0.516809 0.993324
vt 0.516809 0.993324
vt 0.517035 0.99248
vt 0.517984 0.99248
vt 0.515348 0.995117
vt 0.516809 0.993324
vt 0.517984 0.99248
vt 0.515348 0.995117
vt 0.517984 0.99248
vt 0.517631 0.993799
vt 0.517631 0.993799
vt 0.516666 0.994764
vt 0.515348 0.995117
vn 0.999999 0 -0.001417
vn 0.866025 0 -0.5
vn 0.5 0 -0.866025
vn 0.001417 0 -0.999999
vn -0.001417 0 -0.999999
vn -0.5 0 -0.866025
vn -0.866025 0 -0.5
vn -0.999999 0 -0.001417
vn -0.999999 0 0.001417
vn -0.866025 0 0.5
vn -0.5 0 0.866025
vn -0.001417 0 0.999999
vn 0.001417 0 0.999999
vn 0.5 0 0.866025
vn 0.866025 0 0.5
vn 0.999999 0 0.001417
vn -1 0 -0.000908
vn -0.000908 0 -1
vn 0.000908 0 -1
vn 1 0 -0.000908
vn 1 0 0.000908
vn 0.000908 0 1
vn -0.000908 0 1
vn -1 0 0.000908
vn 0 -1 0
vn 0 1 0
f 257/725/109 258/726/110 274/727/110 273/728/109
f 258/729/110 259/730/111 275/731/111 274/732/110
f 259/733/111 260/734/112 276/735/112 275/736/111
f 260/737/112 261/738/113 277/739/113 276/740/112
f 261/741/113 262/742/114 278/743/114 277/744/113
f 262/745/114 263/746/115 279/747/115 278/748/114
f 263/749/115 264/750/116 280/751/116 279/752/115
f 264/753/116 265/754/117 281/755/117 280/756/116
f 265/757/117 266/758/118 282/759/118 281/760/117
f 266/761/118 267/762/119 283/763/119 282/764/118
f 267/765/119 268/766/120 284/767/120 283/768/119
f 268/769/120 269/770/121 285/771/121 284/772/120
f 269/773/121 270/774/122 286/775/122 285/776/121
f 270/777/122 271/778/123 287/779/123 286/780/122
f 271/781/123 272/782/124 288/783/124 287/784/123
f 272/785/124 257/786/109 273/787/109 288/788/124
f 289/789/125 290/790/115 306/791/115 305/792/125
f 290/793/115 291/794/114 307/795/114 306/796/115
f 291/797/114 292/798/126 308/799/126 307/800/114
f 292/801/126 293/802/127 309/803/127 308/804/126
f 293/805/127 294/806/111 310/807/111 309/808/127
f 294/809/111 295/810/110 311/811/110 310/812/111
f 295/813/110 296/814/128 312/815/128 311/816/110
f 296/817/128 297/818/129 313/819/129 312/820/128
f 297/821/129 298/822/123 314/823/123 313/824/129
f 298/825/123 299/826/122 315/827/122 314/828/123
f 299/829/122 300/830/130 316/831/130 315/832/122
f 300/833/130 301/834/131 317/835/131 316/836/130
f 301/837/131 302/838/119 318/839/119 317/840/131
f 302/841/119 303/842/118 319/843/118 318/844/119
f 303/845/118 304/846/132 320/847/132 319/848/118
f 304/849/132 289/850/125 305/851/125 320/852/132
f 322/853/133 321/854/133 336/855/133
f 324/856/133 323/857/133 322/858/133
f 326/859/133 325/860/133 324/861/133
f 328/862/133 327/863/133 326/864/133
f 330/865/133 329/866/133 328/867/133
f 332/868/133 331/869/133 330/870/133
f 340/871/133 333/872/133 332/873/133
f 341/874/133 340/875/133 332/876/133
f 341/877/133 332/878/133 330/879/133
f 342/880/133 341/881/133 330/882/133
f 343/883/133 342/884/133 330/885/133
f 344/886/133 343/887/133 330/888/133
f 344/889/133 330/890/133 328/891/133
f 345/892/133 344/893/133 328/894/133
f 345/895/133 328/896/133 326/897/133
f 346/898/133 345/899/133 326/900/133
f 347/901/133 346/902/133 326/903/133
f 348/904/133 347/905/133 326/906/133
f 348/907/133 326/908/133 324/909/133
f 349/910/133 348/911/133 324/912/133
f 349/913/133 324/914/133 322/915/133
f 350/916/133 349/917/133 322/918/133
f 351/919/133 350/920/133 322/921/133
f 352/922/133 351/923/133 322/924/133
f 352/925/133 322/926/133 336/927/133
f 337/928/133 352/929/133 336/930/133
f 338/931/133 337/932/133 336/933/133
f 339/934/133 338/935/133 336/936/133
f 333/937/133 340/938/133 339/939/133
f 333/940/133 339/941/133 336/942/133
f 334/943/133 333/944/133 336/945/133
f 336/946/133 335/947/133 334/948/133
f 368/949/134 353/950/134 354/951/134
f 354/952/134 355/953/134 356/954/134
f 356/955/134 357/956/134 358/957/134
f 358/958/134 359/959/134 360/960/134
f 360/961/134 361/962/134 362/963/134
f 362/964/134 363/965/134 364/966/134
f 364/967/134 365/968/134 372/969/134
f 364/970/134 372/971/134 373/972/134
f 362/973/134 364/974/134 373/975/134
f 362/976/134 373/977/134 374/978/134
f 362/979/134 374/980/134 375/981/134
f 362/982/134 375/983/134 376/984/134
f 360/985/134 362/986/134 376/987/134
f 360/988/134 376/989/134 377/990/134
f 358/991/134 360/992/134 377/993/134
f 358/994/134 377/995/134 378/996/134
f 358/997/134 378/998/134 379/999/134
f 358/1000/134 379/1001/134 380/1002/134
f 356/1003/134 358/1004/134 380/1005/134
f 356/1006/134 380/1007/134 381/1008/134
f 354/1009/134 356/1010/134 381/1011/134
f 354/1012/134 381/1013/134 382/1014/134
f 354/1015/134 382/1016/134 383/1017/134
f 354/1018/134 383/1019/134 384/1020/134
f 368/1021/134 354/1022/134 384/1023/134
f 368/1024/134 384/1025/134 369/1026/134
f 368/1027/134 369/1028/134 370/1029/134
f 368/1030/134 370/1031/134 371/1032/134
f 371/1033/134 372/1034/134 365/1035/134
f 368/1036/134 371/1037/134 365/1038/134
f 368/1039/134 365/1040/134 366/1041/134
f 366/1042/134 367/1043/134 368/1044/134
