# AFL Power Cable V2 piece arm_cable_up, generated by tools/build-power-cable-v2.mjs
mtllib power_cable.mtl
o arm_cable_up
usemtl cable
v 0.549081 0.65 0.581674
v 0.52033 0.65 0.610425
v 0.47967 0.65 0.610425
v 0.450919 0.65 0.581674
v 0.450919 0.65 0.541013
v 0.47967 0.65 0.512262
v 0.52033 0.65 0.512262
v 0.549081 0.65 0.541013
v 0.549081 1 0.581674
v 0.52033 1 0.610425
v 0.47967 1 0.610425
v 0.450919 1 0.581674
v 0.450919 1 0.541013
v 0.47967 1 0.512262
v 0.52033 1 0.512262
v 0.549081 1 0.541013
v 0.495956 0.65 0.489658
v 0.467205 0.65 0.518409
v 0.426545 0.65 0.518409
v 0.397794 0.65 0.489658
v 0.397794 0.65 0.448998
v 0.426545 0.65 0.420247
v 0.467205 0.65 0.420247
v 0.495956 0.65 0.448998
v 0.495956 1 0.489658
v 0.467205 1 0.518409
v 0.426545 1 0.518409
v 0.397794 1 0.489658
v 0.397794 1 0.448998
v 0.426545 1 0.420247
v 0.467205 1 0.420247
v 0.495956 1 0.448998
v 0.602206 0.65 0.489658
v 0.573455 0.65 0.518409
v 0.532795 0.65 0.518409
v 0.504044 0.65 0.489658
v 0.504044 0.65 0.448998
v 0.532795 0.65 0.420247
v 0.573455 0.65 0.420247
v 0.602206 0.65 0.448998
v 0.602206 1 0.489658
v 0.573455 1 0.518409
v 0.532795 1 0.518409
v 0.504044 1 0.489658
v 0.504044 1 0.448998
v 0.532795 1 0.420247
v 0.573455 1 0.420247
v 0.602206 1 0.448998
v 0.632815 0.6625 0.535588
v 0.597227 0.6625 0.597227
v 0.535588 0.6625 0.632815
v 0.464412 0.6625 0.632815
v 0.402773 0.6625 0.597227
v 0.367185 0.6625 0.535588
v 0.367185 0.6625 0.464412
v 0.402773 0.6625 0.402773
v 0.464412 0.6625 0.367185
v 0.535588 0.6625 0.367185
v 0.597227 0.6625 0.402773
v 0.632815 0.6625 0.464412
v 0.632815 0.7125 0.535588
v 0.597227 0.7125 0.597227
v 0.535588 0.7125 0.632815
v 0.464412 0.7125 0.632815
v 0.402773 0.7125 0.597227
v 0.367185 0.7125 0.535588
v 0.367185 0.7125 0.464412
v 0.402773 0.7125 0.402773
v 0.464412 0.7125 0.367185
v 0.535588 0.7125 0.367185
v 0.597227 0.7125 0.402773
v 0.632815 0.7125 0.464412
v 0.5 0.6625 0.5
v 0.632815 0.6625 0.535588
v 0.597227 0.6625 0.597227
v 0.535588 0.6625 0.632815
v 0.464412 0.6625 0.632815
v 0.402773 0.6625 0.597227
v 0.367185 0.6625 0.535588
v 0.367185 0.6625 0.464412
v 0.402773 0.6625 0.402773
v 0.464412 0.6625 0.367185
v 0.535588 0.6625 0.367185
v 0.597227 0.6625 0.402773
v 0.632815 0.6625 0.464412
v 0.5 0.7125 0.5
v 0.632815 0.7125 0.535588
v 0.597227 0.7125 0.597227
v 0.535588 0.7125 0.632815
v 0.464412 0.7125 0.632815
v 0.402773 0.7125 0.597227
v 0.367185 0.7125 0.535588
v 0.367185 0.7125 0.464412
v 0.402773 0.7125 0.402773
v 0.464412 0.7125 0.367185
v 0.535588 0.7125 0.367185
v 0.597227 0.7125 0.402773
v 0.632815 0.7125 0.464412
vn 0.92388 0 0.382683
vn 0.382683 0 0.92388
vn -0.382683 0 0.92388
vn -0.92388 0 0.382683
vn -0.92388 0 -0.382683
vn -0.382683 0 -0.92388
vn 0.382683 0 -0.92388
vn 0.92388 0 -0.382683
vn 0.92388 0 0.382683
vn 0.382683 0 0.92388
vn -0.382683 0 0.92388
vn -0.92388 0 0.382683
vn -0.92388 0 -0.382683
vn -0.382683 0 -0.92388
vn 0.382683 0 -0.92388
vn 0.92388 0 -0.382683
vn 0.92388 0 0.382683
vn 0.382683 0 0.92388
vn -0.382683 0 0.92388
vn -0.92388 0 0.382683
vn -0.92388 0 -0.382683
vn -0.382683 0 -0.92388
vn 0.382683 0 -0.92388
vn 0.92388 0 -0.382683
vn 0.92388 0 0.382683
vn 0.382683 0 0.92388
vn -0.382683 0 0.92388
vn -0.92388 0 0.382683
vn -0.92388 0 -0.382683
vn -0.382683 0 -0.92388
vn 0.382683 0 -0.92388
vn 0.92388 0 -0.382683
vn 0.92388 0 0.382683
vn 0.382683 0 0.92388
vn -0.382683 0 0.92388
vn -0.92388 0 0.382683
vn -0.92388 0 -0.382683
vn -0.382683 0 -0.92388
vn 0.382683 0 -0.92388
vn 0.92388 0 -0.382683
vn 0.92388 0 0.382683
vn 0.382683 0 0.92388
vn -0.382683 0 0.92388
vn -0.92388 0 0.382683
vn -0.92388 0 -0.382683
vn -0.382683 0 -0.92388
vn 0.382683 0 -0.92388
vn 0.92388 0 -0.382683
vn 0.965926 0 0.258819
vn 0.707107 0 0.707107
vn 0.258819 0 0.965926
vn -0.258819 0 0.965926
vn -0.707107 0 0.707107
vn -0.965926 0 0.258819
vn -0.965926 0 -0.258819
vn -0.707107 0 -0.707107
vn -0.258819 0 -0.965926
vn 0.258819 0 -0.965926
vn 0.707107 0 -0.707107
vn 0.965926 0 -0.258819
vn 0.965926 0 0.258819
vn 0.707107 0 0.707107
vn 0.258819 0 0.965926
vn -0.258819 0 0.965926
vn -0.707107 0 0.707107
vn -0.965926 0 0.258819
vn -0.965926 0 -0.258819
vn -0.707107 0 -0.707107
vn -0.258819 0 -0.965926
vn 0.258819 0 -0.965926
vn 0.707107 0 -0.707107
vn 0.965926 0 -0.258819
vn 0 -1 0
vn 0 -1 0
vn 0 -1 0
vn 0 -1 0
vn 0 -1 0
vn 0 -1 0
vn 0 -1 0
vn 0 -1 0
vn 0 -1 0
vn 0 -1 0
vn 0 -1 0
vn 0 -1 0
vn 0 -1 0
vn 0 1 0
vn 0 1 0
vn 0 1 0
vn 0 1 0
vn 0 1 0
vn 0 1 0
vn 0 1 0
vn 0 1 0
vn 0 1 0
vn 0 1 0
vn 0 1 0
vn 0 1 0
vn 0 1 0
vt 0.03125 0.96875
vt 0.09375 0.96875
vt 0.09375 0.90625
vt 0.03125 0.90625
vt 0.15625 0.96875
vt 0.21875 0.96875
vt 0.21875 0.90625
vt 0.15625 0.90625
vt 0.28125 0.96875
vt 0.34375 0.96875
vt 0.34375 0.90625
vt 0.28125 0.90625
vt 0.40625 0.96875
vt 0.46875 0.96875
vt 0.46875 0.90625
vt 0.40625 0.90625
vt 0.53125 0.96875
vt 0.59375 0.96875
vt 0.59375 0.90625
vt 0.53125 0.90625
vt 0.65625 0.96875
vt 0.71875 0.96875
vt 0.71875 0.90625
vt 0.65625 0.90625
vt 0.78125 0.96875
vt 0.84375 0.96875
vt 0.84375 0.90625
vt 0.78125 0.90625
f 1/1/1 9/2/9 10/3/10 2/4/2
f 2/1/2 10/2/10 11/3/11 3/4/3
f 3/1/3 11/2/11 12/3/12 4/4/4
f 4/1/4 12/2/12 13/3/13 5/4/5
f 5/1/5 13/2/13 14/3/14 6/4/6
f 6/1/6 14/2/14 15/3/15 7/4/7
f 7/1/7 15/2/15 16/3/16 8/4/8
f 8/1/8 16/2/16 9/3/9 1/4/1
f 17/1/17 25/2/25 26/3/26 18/4/18
f 18/1/18 26/2/26 27/3/27 19/4/19
f 19/1/19 27/2/27 28/3/28 20/4/20
f 20/1/20 28/2/28 29/3/29 21/4/21
f 21/1/21 29/2/29 30/3/30 22/4/22
f 22/1/22 30/2/30 31/3/31 23/4/23
f 23/1/23 31/2/31 32/3/32 24/4/24
f 24/1/24 32/2/32 25/3/25 17/4/17
f 33/1/33 41/2/41 42/3/42 34/4/34
f 34/1/34 42/2/42 43/3/43 35/4/35
f 35/1/35 43/2/43 44/3/44 36/4/36
f 36/1/36 44/2/44 45/3/45 37/4/37
f 37/1/37 45/2/45 46/3/46 38/4/38
f 38/1/38 46/2/46 47/3/47 39/4/39
f 39/1/39 47/2/47 48/3/48 40/4/40
f 40/1/40 48/2/48 41/3/41 33/4/33
f 49/13/49 61/14/61 62/15/62 50/16/50
f 50/13/50 62/14/62 63/15/63 51/16/51
f 51/13/51 63/14/63 64/15/64 52/16/52
f 52/13/52 64/14/64 65/15/65 53/16/53
f 53/13/53 65/14/65 66/15/66 54/16/54
f 54/13/54 66/14/66 67/15/67 55/16/55
f 55/13/55 67/14/67 68/15/68 56/16/56
f 56/13/56 68/14/68 69/15/69 57/16/57
f 57/13/57 69/14/69 70/15/70 58/16/58
f 58/13/58 70/14/70 71/15/71 59/16/59
f 59/13/59 71/14/71 72/15/72 60/16/60
f 60/13/60 72/14/72 61/15/61 49/16/49
f 74/13/74 75/14/75 73/15/73
f 75/13/75 76/14/76 73/15/73
f 76/13/76 77/14/77 73/15/73
f 77/13/77 78/14/78 73/15/73
f 78/13/78 79/14/79 73/15/73
f 79/13/79 80/14/80 73/15/73
f 80/13/80 81/14/81 73/15/73
f 81/13/81 82/14/82 73/15/73
f 82/13/82 83/14/83 73/15/73
f 83/13/83 84/14/84 73/15/73
f 84/13/84 85/14/85 73/15/73
f 85/13/85 74/14/74 73/15/73
f 88/13/88 87/14/87 86/15/86
f 89/13/89 88/14/88 86/15/86
f 90/13/90 89/14/89 86/15/86
f 91/13/91 90/14/90 86/15/86
f 92/13/92 91/14/91 86/15/86
f 93/13/93 92/14/92 86/15/86
f 94/13/94 93/14/93 86/15/86
f 95/13/95 94/14/94 86/15/86
f 96/13/96 95/14/95 86/15/86
f 97/13/97 96/14/96 86/15/86
f 98/13/98 97/14/97 86/15/86
f 87/13/87 98/14/98 86/15/86
