# AFL Power Cable V2 piece arm_plug_south, generated by tools/build-power-cable-v2.mjs
mtllib power_cable.mtl
o arm_plug_south
usemtl cable
v 0.549081 0.581674 0.6875
v 0.52033 0.610425 0.6875
v 0.47967 0.610425 0.6875
v 0.450919 0.581674 0.6875
v 0.450919 0.541013 0.6875
v 0.47967 0.512262 0.6875
v 0.52033 0.512262 0.6875
v 0.549081 0.541013 0.6875
v 0.549081 0.581674 0.80625
v 0.52033 0.610425 0.80625
v 0.47967 0.610425 0.80625
v 0.450919 0.581674 0.80625
v 0.450919 0.541013 0.80625
v 0.47967 0.512262 0.80625
v 0.52033 0.512262 0.80625
v 0.549081 0.541013 0.80625
v 0.495956 0.489658 0.6875
v 0.467205 0.518409 0.6875
v 0.426545 0.518409 0.6875
v 0.397794 0.489658 0.6875
v 0.397794 0.448998 0.6875
v 0.426545 0.420247 0.6875
v 0.467205 0.420247 0.6875
v 0.495956 0.448998 0.6875
v 0.495956 0.489658 0.80625
v 0.467205 0.518409 0.80625
v 0.426545 0.518409 0.80625
v 0.397794 0.489658 0.80625
v 0.397794 0.448998 0.80625
v 0.426545 0.420247 0.80625
v 0.467205 0.420247 0.80625
v 0.495956 0.448998 0.80625
v 0.602206 0.489658 0.6875
v 0.573455 0.518409 0.6875
v 0.532795 0.518409 0.6875
v 0.504044 0.489658 0.6875
v 0.504044 0.448998 0.6875
v 0.532795 0.420247 0.6875
v 0.573455 0.420247 0.6875
v 0.602206 0.448998 0.6875
v 0.602206 0.489658 0.80625
v 0.573455 0.518409 0.80625
v 0.532795 0.518409 0.80625
v 0.504044 0.489658 0.80625
v 0.504044 0.448998 0.80625
v 0.532795 0.420247 0.80625
v 0.573455 0.420247 0.80625
v 0.602206 0.448998 0.80625
v 0.635833 0.536396 0.7
v 0.599437 0.599437 0.7
v 0.536396 0.635833 0.7
v 0.463604 0.635833 0.7
v 0.400563 0.599437 0.7
v 0.364167 0.536396 0.7
v 0.364167 0.463604 0.7
v 0.400563 0.400563 0.7
v 0.463604 0.364167 0.7
v 0.536396 0.364167 0.7
v 0.599437 0.400563 0.7
v 0.635833 0.463604 0.7
v 0.635833 0.536396 0.75
v 0.599437 0.599437 0.75
v 0.536396 0.635833 0.75
v 0.463604 0.635833 0.75
v 0.400563 0.599437 0.75
v 0.364167 0.536396 0.75
v 0.364167 0.463604 0.75
v 0.400563 0.400563 0.75
v 0.463604 0.364167 0.75
v 0.536396 0.364167 0.75
v 0.599437 0.400563 0.75
v 0.635833 0.463604 0.75
v 0.5 0.5 0.7
v 0.635833 0.536396 0.7
v 0.599437 0.599437 0.7
v 0.536396 0.635833 0.7
v 0.463604 0.635833 0.7
v 0.400563 0.599437 0.7
v 0.364167 0.536396 0.7
v 0.364167 0.463604 0.7
v 0.400563 0.400563 0.7
v 0.463604 0.364167 0.7
v 0.536396 0.364167 0.7
v 0.599437 0.400563 0.7
v 0.635833 0.463604 0.7
v 0.5 0.5 0.75
v 0.635833 0.536396 0.75
v 0.599437 0.599437 0.75
v 0.536396 0.635833 0.75
v 0.463604 0.635833 0.75
v 0.400563 0.599437 0.75
v 0.364167 0.536396 0.75
v 0.364167 0.463604 0.75
v 0.400563 0.400563 0.75
v 0.463604 0.364167 0.75
v 0.536396 0.364167 0.75
v 0.599437 0.400563 0.75
v 0.635833 0.463604 0.75
v 0.629796 0.534779 0.7875
v 0.595017 0.595017 0.7875
v 0.534779 0.629796 0.7875
v 0.465221 0.629796 0.7875
v 0.404983 0.595017 0.7875
v 0.370204 0.534779 0.7875
v 0.370204 0.465221 0.7875
v 0.404983 0.404983 0.7875
v 0.465221 0.370204 0.7875
v 0.534779 0.370204 0.7875
v 0.595017 0.404983 0.7875
v 0.629796 0.465221 0.7875
v 0.629796 0.534779 0.9125
v 0.595017 0.595017 0.9125
v 0.534779 0.629796 0.9125
v 0.465221 0.629796 0.9125
v 0.404983 0.595017 0.9125
v 0.370204 0.534779 0.9125
v 0.370204 0.465221 0.9125
v 0.404983 0.404983 0.9125
v 0.465221 0.370204 0.9125
v 0.534779 0.370204 0.9125
v 0.595017 0.404983 0.9125
v 0.629796 0.465221 0.9125
v 0.5 0.5 0.7875
v 0.629796 0.534779 0.7875
v 0.595017 0.595017 0.7875
v 0.534779 0.629796 0.7875
v 0.465221 0.629796 0.7875
v 0.404983 0.595017 0.7875
v 0.370204 0.534779 0.7875
v 0.370204 0.465221 0.7875
v 0.404983 0.404983 0.7875
v 0.465221 0.370204 0.7875
v 0.534779 0.370204 0.7875
v 0.595017 0.404983 0.7875
v 0.629796 0.465221 0.7875
v 0.5 0.5 0.9125
v 0.629796 0.534779 0.9125
v 0.595017 0.595017 0.9125
v 0.534779 0.629796 0.9125
v 0.465221 0.629796 0.9125
v 0.404983 0.595017 0.9125
v 0.370204 0.534779 0.9125
v 0.370204 0.465221 0.9125
v 0.404983 0.404983 0.9125
v 0.465221 0.370204 0.9125
v 0.534779 0.370204 0.9125
v 0.595017 0.404983 0.9125
v 0.629796 0.465221 0.9125
v 0.635316 0.578125 0.846875
v 0.5 0.65625 0.846875
v 0.364684 0.578125 0.846875
v 0.364684 0.421875 0.846875
v 0.5 0.34375 0.846875
v 0.635316 0.421875 0.846875
v 0.635316 0.578125 0.903125
v 0.5 0.65625 0.903125
v 0.364684 0.578125 0.903125
v 0.364684 0.421875 0.903125
v 0.5 0.34375 0.903125
v 0.635316 0.421875 0.903125
v 0.5 0.5 0.846875
v 0.635316 0.578125 0.846875
v 0.5 0.65625 0.846875
v 0.364684 0.578125 0.846875
v 0.364684 0.421875 0.846875
v 0.5 0.34375 0.846875
v 0.635316 0.421875 0.846875
v 0.5 0.5 0.903125
v 0.635316 0.578125 0.903125
v 0.5 0.65625 0.903125
v 0.364684 0.578125 0.903125
v 0.364684 0.421875 0.903125
v 0.5 0.34375 0.903125
v 0.635316 0.421875 0.903125
v 0.614704 0.530735 0.90625
v 0.583969 0.583969 0.90625
v 0.530735 0.614704 0.90625
v 0.469265 0.614704 0.90625
v 0.416031 0.583969 0.90625
v 0.385296 0.530735 0.90625
v 0.385296 0.469265 0.90625
v 0.416031 0.416031 0.90625
v 0.469265 0.385296 0.90625
v 0.530735 0.385296 0.90625
v 0.583969 0.416031 0.90625
v 0.614704 0.469265 0.90625
v 0.614704 0.530735 1
v 0.583969 0.583969 1
v 0.530735 0.614704 1
v 0.469265 0.614704 1
v 0.416031 0.583969 1
v 0.385296 0.530735 1
v 0.385296 0.469265 1
v 0.416031 0.416031 1
v 0.469265 0.385296 1
v 0.530735 0.385296 1
v 0.583969 0.416031 1
v 0.614704 0.469265 1
v 0.5 0.5 0.90625
v 0.614704 0.530735 0.90625
v 0.583969 0.583969 0.90625
v 0.530735 0.614704 0.90625
v 0.469265 0.614704 0.90625
v 0.416031 0.583969 0.90625
v 0.385296 0.530735 0.90625
v 0.385296 0.469265 0.90625
v 0.416031 0.416031 0.90625
v 0.469265 0.385296 0.90625
v 0.530735 0.385296 0.90625
v 0.583969 0.416031 0.90625
v 0.614704 0.469265 0.90625
v 0.5 0.5 1
v 0.614704 0.530735 1
v 0.583969 0.583969 1
v 0.530735 0.614704 1
v 0.469265 0.614704 1
v 0.416031 0.583969 1
v 0.385296 0.530735 1
v 0.385296 0.469265 1
v 0.416031 0.416031 1
v 0.469265 0.385296 1
v 0.530735 0.385296 1
v 0.583969 0.416031 1
v 0.614704 0.469265 1
vn 0.92388 0.382683 0
vn 0.382683 0.92388 0
vn -0.382683 0.92388 0
vn -0.92388 0.382683 0
vn -0.92388 -0.382683 0
vn -0.382683 -0.92388 0
vn 0.382683 -0.92388 0
vn 0.92388 -0.382683 0
vn 0.92388 0.382683 0
vn 0.382683 0.92388 0
vn -0.382683 0.92388 0
vn -0.92388 0.382683 0
vn -0.92388 -0.382683 0
vn -0.382683 -0.92388 0
vn 0.382683 -0.92388 0
vn 0.92388 -0.382683 0
vn 0.92388 0.382683 0
vn 0.382683 0.92388 0
vn -0.382683 0.92388 0
vn -0.92388 0.382683 0
vn -0.92388 -0.382683 0
vn -0.382683 -0.92388 0
vn 0.382683 -0.92388 0
vn 0.92388 -0.382683 0
vn 0.92388 0.382683 0
vn 0.382683 0.92388 0
vn -0.382683 0.92388 0
vn -0.92388 0.382683 0
vn -0.92388 -0.382683 0
vn -0.382683 -0.92388 0
vn 0.382683 -0.92388 0
vn 0.92388 -0.382683 0
vn 0.92388 0.382683 0
vn 0.382683 0.92388 0
vn -0.382683 0.92388 0
vn -0.92388 0.382683 0
vn -0.92388 -0.382683 0
vn -0.382683 -0.92388 0
vn 0.382683 -0.92388 0
vn 0.92388 -0.382683 0
vn 0.92388 0.382683 0
vn 0.382683 0.92388 0
vn -0.382683 0.92388 0
vn -0.92388 0.382683 0
vn -0.92388 -0.382683 0
vn -0.382683 -0.92388 0
vn 0.382683 -0.92388 0
vn 0.92388 -0.382683 0
vn 0.965926 0.258819 0
vn 0.707107 0.707107 0
vn 0.258819 0.965926 0
vn -0.258819 0.965926 0
vn -0.707107 0.707107 0
vn -0.965926 0.258819 0
vn -0.965926 -0.258819 0
vn -0.707107 -0.707107 0
vn -0.258819 -0.965926 0
vn 0.258819 -0.965926 0
vn 0.707107 -0.707107 0
vn 0.965926 -0.258819 0
vn 0.965926 0.258819 0
vn 0.707107 0.707107 0
vn 0.258819 0.965926 0
vn -0.258819 0.965926 0
vn -0.707107 0.707107 0
vn -0.965926 0.258819 0
vn -0.965926 -0.258819 0
vn -0.707107 -0.707107 0
vn -0.258819 -0.965926 0
vn 0.258819 -0.965926 0
vn 0.707107 -0.707107 0
vn 0.965926 -0.258819 0
vn 0 0 -1
vn 0 0 -1
vn 0 0 -1
vn 0 0 -1
vn 0 0 -1
vn 0 0 -1
vn 0 0 -1
vn 0 0 -1
vn 0 0 -1
vn 0 0 -1
vn 0 0 -1
vn 0 0 -1
vn 0 0 -1
vn 0 0 1
vn 0 0 1
vn 0 0 1
vn 0 0 1
vn 0 0 1
vn 0 0 1
vn 0 0 1
vn 0 0 1
vn 0 0 1
vn 0 0 1
vn 0 0 1
vn 0 0 1
vn 0 0 1
vn 0.965926 0.258819 0
vn 0.707107 0.707107 0
vn 0.258819 0.965926 0
vn -0.258819 0.965926 0
vn -0.707107 0.707107 0
vn -0.965926 0.258819 0
vn -0.965926 -0.258819 0
vn -0.707107 -0.707107 0
vn -0.258819 -0.965926 0
vn 0.258819 -0.965926 0
vn 0.707107 -0.707107 0
vn 0.965926 -0.258819 0
vn 0.965926 0.258819 0
vn 0.707107 0.707107 0
vn 0.258819 0.965926 0
vn -0.258819 0.965926 0
vn -0.707107 0.707107 0
vn -0.965926 0.258819 0
vn -0.965926 -0.258819 0
vn -0.707107 -0.707107 0
vn -0.258819 -0.965926 0
vn 0.258819 -0.965926 0
vn 0.707107 -0.707107 0
vn 0.965926 -0.258819 0
vn 0 0 -1
vn 0 0 -1
vn 0 0 -1
vn 0 0 -1
vn 0 0 -1
vn 0 0 -1
vn 0 0 -1
vn 0 0 -1
vn 0 0 -1
vn 0 0 -1
vn 0 0 -1
vn 0 0 -1
vn 0 0 -1
vn 0 0 1
vn 0 0 1
vn 0 0 1
vn 0 0 1
vn 0 0 1
vn 0 0 1
vn 0 0 1
vn 0 0 1
vn 0 0 1
vn 0 0 1
vn 0 0 1
vn 0 0 1
vn 0 0 1
vn 0.866025 0.5 0
vn 0 1 0
vn -0.866025 0.5 0
vn -0.866025 -0.5 0
vn 0 -1 0
vn 0.866025 -0.5 0
vn 0.866025 0.5 0
vn 0 1 0
vn -0.866025 0.5 0
vn -0.866025 -0.5 0
vn 0 -1 0
vn 0.866025 -0.5 0
vn 0 0 -1
vn 0 0 -1
vn 0 0 -1
vn 0 0 -1
vn 0 0 -1
vn 0 0 -1
vn 0 0 -1
vn 0 0 1
vn 0 0 1
vn 0 0 1
vn 0 0 1
vn 0 0 1
vn 0 0 1
vn 0 0 1
vn 0.965926 0.258819 0
vn 0.707107 0.707107 0
vn 0.258819 0.965926 0
vn -0.258819 0.965926 0
vn -0.707107 0.707107 0
vn -0.965926 0.258819 0
vn -0.965926 -0.258819 0
vn -0.707107 -0.707107 0
vn -0.258819 -0.965926 0
vn 0.258819 -0.965926 0
vn 0.707107 -0.707107 0
vn 0.965926 -0.258819 0
vn 0.965926 0.258819 0
vn 0.707107 0.707107 0
vn 0.258819 0.965926 0
vn -0.258819 0.965926 0
vn -0.707107 0.707107 0
vn -0.965926 0.258819 0
vn -0.965926 -0.258819 0
vn -0.707107 -0.707107 0
vn -0.258819 -0.965926 0
vn 0.258819 -0.965926 0
vn 0.707107 -0.707107 0
vn 0.965926 -0.258819 0
vn 0 0 -1
vn 0 0 -1
vn 0 0 -1
vn 0 0 -1
vn 0 0 -1
vn 0 0 -1
vn 0 0 -1
vn 0 0 -1
vn 0 0 -1
vn 0 0 -1
vn 0 0 -1
vn 0 0 -1
vn 0 0 -1
vn 0 0 1
vn 0 0 1
vn 0 0 1
vn 0 0 1
vn 0 0 1
vn 0 0 1
vn 0 0 1
vn 0 0 1
vn 0 0 1
vn 0 0 1
vn 0 0 1
vn 0 0 1
vn 0 0 1
vt 0.0625 0.9375
vt 0.1875 0.9375
vt 0.3125 0.9375
vt 0.4375 0.9375
vt 0.5625 0.9375
vt 0.6875 0.9375
vt 0.8125 0.9375
f 2/1/2 10/1/10 9/1/9 1/1/1
f 3/1/3 11/1/11 10/1/10 2/1/2
f 4/1/4 12/1/12 11/1/11 3/1/3
f 5/1/5 13/1/13 12/1/12 4/1/4
f 6/1/6 14/1/14 13/1/13 5/1/5
f 7/1/7 15/1/15 14/1/14 6/1/6
f 8/1/8 16/1/16 15/1/15 7/1/7
f 1/1/1 9/1/9 16/1/16 8/1/8
f 18/1/18 26/1/26 25/1/25 17/1/17
f 19/1/19 27/1/27 26/1/26 18/1/18
f 20/1/20 28/1/28 27/1/27 19/1/19
f 21/1/21 29/1/29 28/1/28 20/1/20
f 22/1/22 30/1/30 29/1/29 21/1/21
f 23/1/23 31/1/31 30/1/30 22/1/22
f 24/1/24 32/1/32 31/1/31 23/1/23
f 17/1/17 25/1/25 32/1/32 24/1/24
f 34/1/34 42/1/42 41/1/41 33/1/33
f 35/1/35 43/1/43 42/1/42 34/1/34
f 36/1/36 44/1/44 43/1/43 35/1/35
f 37/1/37 45/1/45 44/1/44 36/1/36
f 38/1/38 46/1/46 45/1/45 37/1/37
f 39/1/39 47/1/47 46/1/46 38/1/38
f 40/1/40 48/1/48 47/1/47 39/1/39
f 33/1/33 41/1/41 48/1/48 40/1/40
f 50/4/50 62/4/62 61/4/61 49/4/49
f 51/4/51 63/4/63 62/4/62 50/4/50
f 52/4/52 64/4/64 63/4/63 51/4/51
f 53/4/53 65/4/65 64/4/64 52/4/52
f 54/4/54 66/4/66 65/4/65 53/4/53
f 55/4/55 67/4/67 66/4/66 54/4/54
f 56/4/56 68/4/68 67/4/67 55/4/55
f 57/4/57 69/4/69 68/4/68 56/4/56
f 58/4/58 70/4/70 69/4/69 57/4/57
f 59/4/59 71/4/71 70/4/70 58/4/58
f 60/4/60 72/4/72 71/4/71 59/4/59
f 49/4/49 61/4/61 72/4/72 60/4/60
f 73/4/73 75/4/75 74/4/74
f 73/4/73 76/4/76 75/4/75
f 73/4/73 77/4/77 76/4/76
f 73/4/73 78/4/78 77/4/77
f 73/4/73 79/4/79 78/4/78
f 73/4/73 80/4/80 79/4/79
f 73/4/73 81/4/81 80/4/80
f 73/4/73 82/4/82 81/4/81
f 73/4/73 83/4/83 82/4/82
f 73/4/73 84/4/84 83/4/83
f 73/4/73 85/4/85 84/4/84
f 73/4/73 74/4/74 85/4/85
f 86/4/86 87/4/87 88/4/88
f 86/4/86 88/4/88 89/4/89
f 86/4/86 89/4/89 90/4/90
f 86/4/86 90/4/90 91/4/91
f 86/4/86 91/4/91 92/4/92
f 86/4/86 92/4/92 93/4/93
f 86/4/86 93/4/93 94/4/94
f 86/4/86 94/4/94 95/4/95
f 86/4/86 95/4/95 96/4/96
f 86/4/86 96/4/96 97/4/97
f 86/4/86 97/4/97 98/4/98
f 86/4/86 98/4/98 87/4/87
f 100/5/100 112/5/112 111/5/111 99/5/99
f 101/5/101 113/5/113 112/5/112 100/5/100
f 102/5/102 114/5/114 113/5/113 101/5/101
f 103/5/103 115/5/115 114/5/114 102/5/102
f 104/5/104 116/5/116 115/5/115 103/5/103
f 105/5/105 117/5/117 116/5/116 104/5/104
f 106/5/106 118/5/118 117/5/117 105/5/105
f 107/5/107 119/5/119 118/5/118 106/5/106
f 108/5/108 120/5/120 119/5/119 107/5/107
f 109/5/109 121/5/121 120/5/120 108/5/108
f 110/5/110 122/5/122 121/5/121 109/5/109
f 99/5/99 111/5/111 122/5/122 110/5/110
f 123/5/123 125/5/125 124/5/124
f 123/5/123 126/5/126 125/5/125
f 123/5/123 127/5/127 126/5/126
f 123/5/123 128/5/128 127/5/127
f 123/5/123 129/5/129 128/5/128
f 123/5/123 130/5/130 129/5/129
f 123/5/123 131/5/131 130/5/130
f 123/5/123 132/5/132 131/5/131
f 123/5/123 133/5/133 132/5/132
f 123/5/123 134/5/134 133/5/133
f 123/5/123 135/5/135 134/5/134
f 123/5/123 124/5/124 135/5/135
f 136/5/136 137/5/137 138/5/138
f 136/5/136 138/5/138 139/5/139
f 136/5/136 139/5/139 140/5/140
f 136/5/136 140/5/140 141/5/141
f 136/5/136 141/5/141 142/5/142
f 136/5/136 142/5/142 143/5/143
f 136/5/136 143/5/143 144/5/144
f 136/5/136 144/5/144 145/5/145
f 136/5/136 145/5/145 146/5/146
f 136/5/136 146/5/146 147/5/147
f 136/5/136 147/5/147 148/5/148
f 136/5/136 148/5/148 137/5/137
f 150/6/150 156/6/156 155/6/155 149/6/149
f 151/6/151 157/6/157 156/6/156 150/6/150
f 152/6/152 158/6/158 157/6/157 151/6/151
f 153/6/153 159/6/159 158/6/158 152/6/152
f 154/6/154 160/6/160 159/6/159 153/6/153
f 149/6/149 155/6/155 160/6/160 154/6/154
f 161/6/161 163/6/163 162/6/162
f 161/6/161 164/6/164 163/6/163
f 161/6/161 165/6/165 164/6/164
f 161/6/161 166/6/166 165/6/165
f 161/6/161 167/6/167 166/6/166
f 161/6/161 162/6/162 167/6/167
f 168/6/168 169/6/169 170/6/170
f 168/6/168 170/6/170 171/6/171
f 168/6/168 171/6/171 172/6/172
f 168/6/168 172/6/172 173/6/173
f 168/6/168 173/6/173 174/6/174
f 168/6/168 174/6/174 169/6/169
f 176/5/176 188/5/188 187/5/187 175/5/175
f 177/5/177 189/5/189 188/5/188 176/5/176
f 178/5/178 190/5/190 189/5/189 177/5/177
f 179/5/179 191/5/191 190/5/190 178/5/178
f 180/5/180 192/5/192 191/5/191 179/5/179
f 181/5/181 193/5/193 192/5/192 180/5/180
f 182/5/182 194/5/194 193/5/193 181/5/181
f 183/5/183 195/5/195 194/5/194 182/5/182
f 184/5/184 196/5/196 195/5/195 183/5/183
f 185/5/185 197/5/197 196/5/196 184/5/184
f 186/5/186 198/5/198 197/5/197 185/5/185
f 175/5/175 187/5/187 198/5/198 186/5/186
f 199/5/199 201/5/201 200/5/200
f 199/5/199 202/5/202 201/5/201
f 199/5/199 203/5/203 202/5/202
f 199/5/199 204/5/204 203/5/203
f 199/5/199 205/5/205 204/5/204
f 199/5/199 206/5/206 205/5/205
f 199/5/199 207/5/207 206/5/206
f 199/5/199 208/5/208 207/5/207
f 199/5/199 209/5/209 208/5/208
f 199/5/199 210/5/210 209/5/209
f 199/5/199 211/5/211 210/5/210
f 199/5/199 200/5/200 211/5/211
f 212/5/212 213/5/213 214/5/214
f 212/5/212 214/5/214 215/5/215
f 212/5/212 215/5/215 216/5/216
f 212/5/212 216/5/216 217/5/217
f 212/5/212 217/5/217 218/5/218
f 212/5/212 218/5/218 219/5/219
f 212/5/212 219/5/219 220/5/220
f 212/5/212 220/5/220 221/5/221
f 212/5/212 221/5/221 222/5/222
f 212/5/212 222/5/222 223/5/223
f 212/5/212 223/5/223 224/5/224
f 212/5/212 224/5/224 213/5/213
