# AFL Power Cable V2 piece arm_plug_down, generated by tools/build-power-cable-v2.mjs
mtllib power_cable.mtl
o arm_plug_down
usemtl cable
v 0.549081 0.35 0.581674
v 0.52033 0.35 0.610425
v 0.47967 0.35 0.610425
v 0.450919 0.35 0.581674
v 0.450919 0.35 0.541013
v 0.47967 0.35 0.512262
v 0.52033 0.35 0.512262
v 0.549081 0.35 0.541013
v 0.549081 0.19375 0.581674
v 0.52033 0.19375 0.610425
v 0.47967 0.19375 0.610425
v 0.450919 0.19375 0.581674
v 0.450919 0.19375 0.541013
v 0.47967 0.19375 0.512262
v 0.52033 0.19375 0.512262
v 0.549081 0.19375 0.541013
v 0.495956 0.35 0.489658
v 0.467205 0.35 0.518409
v 0.426545 0.35 0.518409
v 0.397794 0.35 0.489658
v 0.397794 0.35 0.448998
v 0.426545 0.35 0.420247
v 0.467205 0.35 0.420247
v 0.495956 0.35 0.448998
v 0.495956 0.19375 0.489658
v 0.467205 0.19375 0.518409
v 0.426545 0.19375 0.518409
v 0.397794 0.19375 0.489658
v 0.397794 0.19375 0.448998
v 0.426545 0.19375 0.420247
v 0.467205 0.19375 0.420247
v 0.495956 0.19375 0.448998
v 0.602206 0.35 0.489658
v 0.573455 0.35 0.518409
v 0.532795 0.35 0.518409
v 0.504044 0.35 0.489658
v 0.504044 0.35 0.448998
v 0.532795 0.35 0.420247
v 0.573455 0.35 0.420247
v 0.602206 0.35 0.448998
v 0.602206 0.19375 0.489658
v 0.573455 0.19375 0.518409
v 0.532795 0.19375 0.518409
v 0.504044 0.19375 0.489658
v 0.504044 0.19375 0.448998
v 0.532795 0.19375 0.420247
v 0.573455 0.19375 0.420247
v 0.602206 0.19375 0.448998
v 0.632815 0.3375 0.535588
v 0.597227 0.3375 0.597227
v 0.535588 0.3375 0.632815
v 0.464412 0.3375 0.632815
v 0.402773 0.3375 0.597227
v 0.367185 0.3375 0.535588
v 0.367185 0.3375 0.464412
v 0.402773 0.3375 0.402773
v 0.464412 0.3375 0.367185
v 0.535588 0.3375 0.367185
v 0.597227 0.3375 0.402773
v 0.632815 0.3375 0.464412
v 0.632815 0.2875 0.535588
v 0.597227 0.2875 0.597227
v 0.535588 0.2875 0.632815
v 0.464412 0.2875 0.632815
v 0.402773 0.2875 0.597227
v 0.367185 0.2875 0.535588
v 0.367185 0.2875 0.464412
v 0.402773 0.2875 0.402773
v 0.464412 0.2875 0.367185
v 0.535588 0.2875 0.367185
v 0.597227 0.2875 0.402773
v 0.632815 0.2875 0.464412
v 0.5 0.3375 0.5
v 0.632815 0.3375 0.535588
v 0.597227 0.3375 0.597227
v 0.535588 0.3375 0.632815
v 0.464412 0.3375 0.632815
v 0.402773 0.3375 0.597227
v 0.367185 0.3375 0.535588
v 0.367185 0.3375 0.464412
v 0.402773 0.3375 0.402773
v 0.464412 0.3375 0.367185
v 0.535588 0.3375 0.367185
v 0.597227 0.3375 0.402773
v 0.632815 0.3375 0.464412
v 0.5 0.2875 0.5
v 0.632815 0.2875 0.535588
v 0.597227 0.2875 0.597227
v 0.535588 0.2875 0.632815
v 0.464412 0.2875 0.632815
v 0.402773 0.2875 0.597227
v 0.367185 0.2875 0.535588
v 0.367185 0.2875 0.464412
v 0.402773 0.2875 0.402773
v 0.464412 0.2875 0.367185
v 0.535588 0.2875 0.367185
v 0.597227 0.2875 0.402773
v 0.632815 0.2875 0.464412
v 0.629796 0.2125 0.534779
v 0.595017 0.2125 0.595017
v 0.534779 0.2125 0.629796
v 0.465221 0.2125 0.629796
v 0.404983 0.2125 0.595017
v 0.370204 0.2125 0.534779
v 0.370204 0.2125 0.465221
v 0.404983 0.2125 0.404983
v 0.465221 0.2125 0.370204
v 0.534779 0.2125 0.370204
v 0.595017 0.2125 0.404983
v 0.629796 0.2125 0.465221
v 0.629796 0.0875 0.534779
v 0.595017 0.0875 0.595017
v 0.534779 0.0875 0.629796
v 0.465221 0.0875 0.629796
v 0.404983 0.0875 0.595017
v 0.370204 0.0875 0.534779
v 0.370204 0.0875 0.465221
v 0.404983 0.0875 0.404983
v 0.465221 0.0875 0.370204
v 0.534779 0.0875 0.370204
v 0.595017 0.0875 0.404983
v 0.629796 0.0875 0.465221
v 0.5 0.2125 0.5
v 0.629796 0.2125 0.534779
v 0.595017 0.2125 0.595017
v 0.534779 0.2125 0.629796
v 0.465221 0.2125 0.629796
v 0.404983 0.2125 0.595017
v 0.370204 0.2125 0.534779
v 0.370204 0.2125 0.465221
v 0.404983 0.2125 0.404983
v 0.465221 0.2125 0.370204
v 0.534779 0.2125 0.370204
v 0.595017 0.2125 0.404983
v 0.629796 0.2125 0.465221
v 0.5 0.0875 0.5
v 0.629796 0.0875 0.534779
v 0.595017 0.0875 0.595017
v 0.534779 0.0875 0.629796
v 0.465221 0.0875 0.629796
v 0.404983 0.0875 0.595017
v 0.370204 0.0875 0.534779
v 0.370204 0.0875 0.465221
v 0.404983 0.0875 0.404983
v 0.465221 0.0875 0.370204
v 0.534779 0.0875 0.370204
v 0.595017 0.0875 0.404983
v 0.629796 0.0875 0.465221
v 0.635316 0.153125 0.578125
v 0.5 0.153125 0.65625
v 0.364684 0.153125 0.578125
v 0.364684 0.153125 0.421875
v 0.5 0.153125 0.34375
v 0.635316 0.153125 0.421875
v 0.635316 0.096875 0.578125
v 0.5 0.096875 0.65625
v 0.364684 0.096875 0.578125
v 0.364684 0.096875 0.421875
v 0.5 0.096875 0.34375
v 0.635316 0.096875 0.421875
v 0.5 0.153125 0.5
v 0.635316 0.153125 0.578125
v 0.5 0.153125 0.65625
v 0.364684 0.153125 0.578125
v 0.364684 0.153125 0.421875
v 0.5 0.153125 0.34375
v 0.635316 0.153125 0.421875
v 0.5 0.096875 0.5
v 0.635316 0.096875 0.578125
v 0.5 0.096875 0.65625
v 0.364684 0.096875 0.578125
v 0.364684 0.096875 0.421875
v 0.5 0.096875 0.34375
v 0.635316 0.096875 0.421875
v 0.614704 0.09375 0.530735
v 0.583969 0.09375 0.583969
v 0.530735 0.09375 0.614704
v 0.469265 0.09375 0.614704
v 0.416031 0.09375 0.583969
v 0.385296 0.09375 0.530735
v 0.385296 0.09375 0.469265
v 0.416031 0.09375 0.416031
v 0.469265 0.09375 0.385296
v 0.530735 0.09375 0.385296
v 0.583969 0.09375 0.416031
v 0.614704 0.09375 0.469265
v 0.614704 0 0.530735
v 0.583969 0 0.583969
v 0.530735 0 0.614704
v 0.469265 0 0.614704
v 0.416031 0 0.583969
v 0.385296 0 0.530735
v 0.385296 0 0.469265
v 0.416031 0 0.416031
v 0.469265 0 0.385296
v 0.530735 0 0.385296
v 0.583969 0 0.416031
v 0.614704 0 0.469265
v 0.5 0.09375 0.5
v 0.614704 0.09375 0.530735
v 0.583969 0.09375 0.583969
v 0.530735 0.09375 0.614704
v 0.469265 0.09375 0.614704
v 0.416031 0.09375 0.583969
v 0.385296 0.09375 0.530735
v 0.385296 0.09375 0.469265
v 0.416031 0.09375 0.416031
v 0.469265 0.09375 0.385296
v 0.530735 0.09375 0.385296
v 0.583969 0.09375 0.416031
v 0.614704 0.09375 0.469265
v 0.5 0 0.5
v 0.614704 0 0.530735
v 0.583969 0 0.583969
v 0.530735 0 0.614704
v 0.469265 0 0.614704
v 0.416031 0 0.583969
v 0.385296 0 0.530735
v 0.385296 0 0.469265
v 0.416031 0 0.416031
v 0.469265 0 0.385296
v 0.530735 0 0.385296
v 0.583969 0 0.416031
v 0.614704 0 0.469265
vn 0.92388 0 0.382683
vn 0.382683 0 0.92388
vn -0.382683 0 0.92388
vn -0.92388 0 0.382683
vn -0.92388 0 -0.382683
vn -0.382683 0 -0.92388
vn 0.382683 0 -0.92388
vn 0.92388 0 -0.382683
vn 0.92388 0 0.382683
vn 0.382683 0 0.92388
vn -0.382683 0 0.92388
vn -0.92388 0 0.382683
vn -0.92388 0 -0.382683
vn -0.382683 0 -0.92388
vn 0.382683 0 -0.92388
vn 0.92388 0 -0.382683
vn 0.92388 0 0.382683
vn 0.382683 0 0.92388
vn -0.382683 0 0.92388
vn -0.92388 0 0.382683
vn -0.92388 0 -0.382683
vn -0.382683 0 -0.92388
vn 0.382683 0 -0.92388
vn 0.92388 0 -0.382683
vn 0.92388 0 0.382683
vn 0.382683 0 0.92388
vn -0.382683 0 0.92388
vn -0.92388 0 0.382683
vn -0.92388 0 -0.382683
vn -0.382683 0 -0.92388
vn 0.382683 0 -0.92388
vn 0.92388 0 -0.382683
vn 0.92388 0 0.382683
vn 0.382683 0 0.92388
vn -0.382683 0 0.92388
vn -0.92388 0 0.382683
vn -0.92388 0 -0.382683
vn -0.382683 0 -0.92388
vn 0.382683 0 -0.92388
vn 0.92388 0 -0.382683
vn 0.92388 0 0.382683
vn 0.382683 0 0.92388
vn -0.382683 0 0.92388
vn -0.92388 0 0.382683
vn -0.92388 0 -0.382683
vn -0.382683 0 -0.92388
vn 0.382683 0 -0.92388
vn 0.92388 0 -0.382683
vn 0.965926 0 0.258819
vn 0.707107 0 0.707107
vn 0.258819 0 0.965926
vn -0.258819 0 0.965926
vn -0.707107 0 0.707107
vn -0.965926 0 0.258819
vn -0.965926 0 -0.258819
vn -0.707107 0 -0.707107
vn -0.258819 0 -0.965926
vn 0.258819 0 -0.965926
vn 0.707107 0 -0.707107
vn 0.965926 0 -0.258819
vn 0.965926 0 0.258819
vn 0.707107 0 0.707107
vn 0.258819 0 0.965926
vn -0.258819 0 0.965926
vn -0.707107 0 0.707107
vn -0.965926 0 0.258819
vn -0.965926 0 -0.258819
vn -0.707107 0 -0.707107
vn -0.258819 0 -0.965926
vn 0.258819 0 -0.965926
vn 0.707107 0 -0.707107
vn 0.965926 0 -0.258819
vn 0 1 0
vn 0 1 0
vn 0 1 0
vn 0 1 0
vn 0 1 0
vn 0 1 0
vn 0 1 0
vn 0 1 0
vn 0 1 0
vn 0 1 0
vn 0 1 0
vn 0 1 0
vn 0 1 0
vn 0 -1 0
vn 0 -1 0
vn 0 -1 0
vn 0 -1 0
vn 0 -1 0
vn 0 -1 0
vn 0 -1 0
vn 0 -1 0
vn 0 -1 0
vn 0 -1 0
vn 0 -1 0
vn 0 -1 0
vn 0 -1 0
vn 0.965926 0 0.258819
vn 0.707107 0 0.707107
vn 0.258819 0 0.965926
vn -0.258819 0 0.965926
vn -0.707107 0 0.707107
vn -0.965926 0 0.258819
vn -0.965926 0 -0.258819
vn -0.707107 0 -0.707107
vn -0.258819 0 -0.965926
vn 0.258819 0 -0.965926
vn 0.707107 0 -0.707107
vn 0.965926 0 -0.258819
vn 0.965926 0 0.258819
vn 0.707107 0 0.707107
vn 0.258819 0 0.965926
vn -0.258819 0 0.965926
vn -0.707107 0 0.707107
vn -0.965926 0 0.258819
vn -0.965926 0 -0.258819
vn -0.707107 0 -0.707107
vn -0.258819 0 -0.965926
vn 0.258819 0 -0.965926
vn 0.707107 0 -0.707107
vn 0.965926 0 -0.258819
vn 0 1 0
vn 0 1 0
vn 0 1 0
vn 0 1 0
vn 0 1 0
vn 0 1 0
vn 0 1 0
vn 0 1 0
vn 0 1 0
vn 0 1 0
vn 0 1 0
vn 0 1 0
vn 0 1 0
vn 0 -1 0
vn 0 -1 0
vn 0 -1 0
vn 0 -1 0
vn 0 -1 0
vn 0 -1 0
vn 0 -1 0
vn 0 -1 0
vn 0 -1 0
vn 0 -1 0
vn 0 -1 0
vn 0 -1 0
vn 0 -1 0
vn 0.866025 0 0.5
vn 0 0 1
vn -0.866025 0 0.5
vn -0.866025 0 -0.5
vn 0 0 -1
vn 0.866025 0 -0.5
vn 0.866025 0 0.5
vn 0 0 1
vn -0.866025 0 0.5
vn -0.866025 0 -0.5
vn 0 0 -1
vn 0.866025 0 -0.5
vn 0 1 0
vn 0 1 0
vn 0 1 0
vn 0 1 0
vn 0 1 0
vn 0 1 0
vn 0 1 0
vn 0 -1 0
vn 0 -1 0
vn 0 -1 0
vn 0 -1 0
vn 0 -1 0
vn 0 -1 0
vn 0 -1 0
vn 0.965926 0 0.258819
vn 0.707107 0 0.707107
vn 0.258819 0 0.965926
vn -0.258819 0 0.965926
vn -0.707107 0 0.707107
vn -0.965926 0 0.258819
vn -0.965926 0 -0.258819
vn -0.707107 0 -0.707107
vn -0.258819 0 -0.965926
vn 0.258819 0 -0.965926
vn 0.707107 0 -0.707107
vn 0.965926 0 -0.258819
vn 0.965926 0 0.258819
vn 0.707107 0 0.707107
vn 0.258819 0 0.965926
vn -0.258819 0 0.965926
vn -0.707107 0 0.707107
vn -0.965926 0 0.258819
vn -0.965926 0 -0.258819
vn -0.707107 0 -0.707107
vn -0.258819 0 -0.965926
vn 0.258819 0 -0.965926
vn 0.707107 0 -0.707107
vn 0.965926 0 -0.258819
vn 0 1 0
vn 0 1 0
vn 0 1 0
vn 0 1 0
vn 0 1 0
vn 0 1 0
vn 0 1 0
vn 0 1 0
vn 0 1 0
vn 0 1 0
vn 0 1 0
vn 0 1 0
vn 0 1 0
vn 0 -1 0
vn 0 -1 0
vn 0 -1 0
vn 0 -1 0
vn 0 -1 0
vn 0 -1 0
vn 0 -1 0
vn 0 -1 0
vn 0 -1 0
vn 0 -1 0
vn 0 -1 0
vn 0 -1 0
vn 0 -1 0
vt 0.03125 0.96875
vt 0.09375 0.96875
vt 0.09375 0.90625
vt 0.03125 0.90625
vt 0.15625 0.96875
vt 0.21875 0.96875
vt 0.21875 0.90625
vt 0.15625 0.90625
vt 0.28125 0.96875
vt 0.34375 0.96875
vt 0.34375 0.90625
vt 0.28125 0.90625
vt 0.40625 0.96875
vt 0.46875 0.96875
vt 0.46875 0.90625
vt 0.40625 0.90625
vt 0.53125 0.96875
vt 0.59375 0.96875
vt 0.59375 0.90625
vt 0.53125 0.90625
vt 0.65625 0.96875
vt 0.71875 0.96875
vt 0.71875 0.90625
vt 0.65625 0.90625
vt 0.78125 0.96875
vt 0.84375 0.96875
vt 0.84375 0.90625
vt 0.78125 0.90625
f 2/1/2 10/2/10 9/3/9 1/4/1
f 3/1/3 11/2/11 10/3/10 2/4/2
f 4/1/4 12/2/12 11/3/11 3/4/3
f 5/1/5 13/2/13 12/3/12 4/4/4
f 6/1/6 14/2/14 13/3/13 5/4/5
f 7/1/7 15/2/15 14/3/14 6/4/6
f 8/1/8 16/2/16 15/3/15 7/4/7
f 1/1/1 9/2/9 16/3/16 8/4/8
f 18/1/18 26/2/26 25/3/25 17/4/17
f 19/1/19 27/2/27 26/3/26 18/4/18
f 20/1/20 28/2/28 27/3/27 19/4/19
f 21/1/21 29/2/29 28/3/28 20/4/20
f 22/1/22 30/2/30 29/3/29 21/4/21
f 23/1/23 31/2/31 30/3/30 22/4/22
f 24/1/24 32/2/32 31/3/31 23/4/23
f 17/1/17 25/2/25 32/3/32 24/4/24
f 34/1/34 42/2/42 41/3/41 33/4/33
f 35/1/35 43/2/43 42/3/42 34/4/34
f 36/1/36 44/2/44 43/3/43 35/4/35
f 37/1/37 45/2/45 44/3/44 36/4/36
f 38/1/38 46/2/46 45/3/45 37/4/37
f 39/1/39 47/2/47 46/3/46 38/4/38
f 40/1/40 48/2/48 47/3/47 39/4/39
f 33/1/33 41/2/41 48/3/48 40/4/40
f 50/13/50 62/14/62 61/15/61 49/16/49
f 51/13/51 63/14/63 62/15/62 50/16/50
f 52/13/52 64/14/64 63/15/63 51/16/51
f 53/13/53 65/14/65 64/15/64 52/16/52
f 54/13/54 66/14/66 65/15/65 53/16/53
f 55/13/55 67/14/67 66/15/66 54/16/54
f 56/13/56 68/14/68 67/15/67 55/16/55
f 57/13/57 69/14/69 68/15/68 56/16/56
f 58/13/58 70/14/70 69/15/69 57/16/57
f 59/13/59 71/14/71 70/15/70 58/16/58
f 60/13/60 72/14/72 71/15/71 59/16/59
f 49/13/49 61/14/61 72/15/72 60/16/60
f 73/13/73 75/14/75 74/15/74
f 73/13/73 76/14/76 75/15/75
f 73/13/73 77/14/77 76/15/76
f 73/13/73 78/14/78 77/15/77
f 73/13/73 79/14/79 78/15/78
f 73/13/73 80/14/80 79/15/79
f 73/13/73 81/14/81 80/15/80
f 73/13/73 82/14/82 81/15/81
f 73/13/73 83/14/83 82/15/82
f 73/13/73 84/14/84 83/15/83
f 73/13/73 85/14/85 84/15/84
f 73/13/73 74/14/74 85/15/85
f 86/13/86 87/14/87 88/15/88
f 86/13/86 88/14/88 89/15/89
f 86/13/86 89/14/89 90/15/90
f 86/13/86 90/14/90 91/15/91
f 86/13/86 91/14/91 92/15/92
f 86/13/86 92/14/92 93/15/93
f 86/13/86 93/14/93 94/15/94
f 86/13/86 94/14/94 95/15/95
f 86/13/86 95/14/95 96/15/96
f 86/13/86 96/14/96 97/15/97
f 86/13/86 97/14/97 98/15/98
f 86/13/86 98/14/98 87/15/87
f 100/17/100 112/18/112 111/19/111 99/20/99
f 101/17/101 113/18/113 112/19/112 100/20/100
f 102/17/102 114/18/114 113/19/113 101/20/101
f 103/17/103 115/18/115 114/19/114 102/20/102
f 104/17/104 116/18/116 115/19/115 103/20/103
f 105/17/105 117/18/117 116/19/116 104/20/104
f 106/17/106 118/18/118 117/19/117 105/20/105
f 107/17/107 119/18/119 118/19/118 106/20/106
f 108/17/108 120/18/120 119/19/119 107/20/107
f 109/17/109 121/18/121 120/19/120 108/20/108
f 110/17/110 122/18/122 121/19/121 109/20/109
f 99/17/99 111/18/111 122/19/122 110/20/110
f 123/17/123 125/18/125 124/19/124
f 123/17/123 126/18/126 125/19/125
f 123/17/123 127/18/127 126/19/126
f 123/17/123 128/18/128 127/19/127
f 123/17/123 129/18/129 128/19/128
f 123/17/123 130/18/130 129/19/129
f 123/17/123 131/18/131 130/19/130
f 123/17/123 132/18/132 131/19/131
f 123/17/123 133/18/133 132/19/132
f 123/17/123 134/18/134 133/19/133
f 123/17/123 135/18/135 134/19/134
f 123/17/123 124/18/124 135/19/135
f 136/17/136 137/18/137 138/19/138
f 136/17/136 138/18/138 139/19/139
f 136/17/136 139/18/139 140/19/140
f 136/17/136 140/18/140 141/19/141
f 136/17/136 141/18/141 142/19/142
f 136/17/136 142/18/142 143/19/143
f 136/17/136 143/18/143 144/19/144
f 136/17/136 144/18/144 145/19/145
f 136/17/136 145/18/145 146/19/146
f 136/17/136 146/18/146 147/19/147
f 136/17/136 147/18/147 148/19/148
f 136/17/136 148/18/148 137/19/137
f 150/21/150 156/22/156 155/23/155 149/24/149
f 151/21/151 157/22/157 156/23/156 150/24/150
f 152/21/152 158/22/158 157/23/157 151/24/151
f 153/21/153 159/22/159 158/23/158 152/24/152
f 154/21/154 160/22/160 159/23/159 153/24/153
f 149/21/149 155/22/155 160/23/160 154/24/154
f 161/21/161 163/22/163 162/23/162
f 161/21/161 164/22/164 163/23/163
f 161/21/161 165/22/165 164/23/164
f 161/21/161 166/22/166 165/23/165
f 161/21/161 167/22/167 166/23/166
f 161/21/161 162/22/162 167/23/167
f 168/21/168 169/22/169 170/23/170
f 168/21/168 170/22/170 171/23/171
f 168/21/168 171/22/171 172/23/172
f 168/21/168 172/22/172 173/23/173
f 168/21/168 173/22/173 174/23/174
f 168/21/168 174/22/174 169/23/169
f 176/17/176 188/18/188 187/19/187 175/20/175
f 177/17/177 189/18/189 188/19/188 176/20/176
f 178/17/178 190/18/190 189/19/189 177/20/177
f 179/17/179 191/18/191 190/19/190 178/20/178
f 180/17/180 192/18/192 191/19/191 179/20/179
f 181/17/181 193/18/193 192/19/192 180/20/180
f 182/17/182 194/18/194 193/19/193 181/20/181
f 183/17/183 195/18/195 194/19/194 182/20/182
f 184/17/184 196/18/196 195/19/195 183/20/183
f 185/17/185 197/18/197 196/19/196 184/20/184
f 186/17/186 198/18/198 197/19/197 185/20/185
f 175/17/175 187/18/187 198/19/198 186/20/186
f 199/17/199 201/18/201 200/19/200
f 199/17/199 202/18/202 201/19/201
f 199/17/199 203/18/203 202/19/202
f 199/17/199 204/18/204 203/19/203
f 199/17/199 205/18/205 204/19/204
f 199/17/199 206/18/206 205/19/205
f 199/17/199 207/18/207 206/19/206
f 199/17/199 208/18/208 207/19/207
f 199/17/199 209/18/209 208/19/208
f 199/17/199 210/18/210 209/19/209
f 199/17/199 211/18/211 210/19/210
f 199/17/199 200/18/200 211/19/211
f 212/17/212 213/18/213 214/19/214
f 212/17/212 214/18/214 215/19/215
f 212/17/212 215/18/215 216/19/216
f 212/17/212 216/18/216 217/19/217
f 212/17/212 217/18/217 218/19/218
f 212/17/212 218/18/218 219/19/219
f 212/17/212 219/18/219 220/19/220
f 212/17/212 220/18/220 221/19/221
f 212/17/212 221/18/221 222/19/222
f 212/17/212 222/18/222 223/19/223
f 212/17/212 223/18/223 224/19/224
f 212/17/212 224/18/224 213/19/213
