# AFL Power Cable V2 piece arm_plug_up, generated by tools/build-power-cable-v2.mjs
mtllib power_cable.mtl
o arm_plug_up
usemtl cable
v 0.549081 0.65 0.581674
v 0.52033 0.65 0.610425
v 0.47967 0.65 0.610425
v 0.450919 0.65 0.581674
v 0.450919 0.65 0.541013
v 0.47967 0.65 0.512262
v 0.52033 0.65 0.512262
v 0.549081 0.65 0.541013
v 0.549081 0.80625 0.581674
v 0.52033 0.80625 0.610425
v 0.47967 0.80625 0.610425
v 0.450919 0.80625 0.581674
v 0.450919 0.80625 0.541013
v 0.47967 0.80625 0.512262
v 0.52033 0.80625 0.512262
v 0.549081 0.80625 0.541013
v 0.495956 0.65 0.489658
v 0.467205 0.65 0.518409
v 0.426545 0.65 0.518409
v 0.397794 0.65 0.489658
v 0.397794 0.65 0.448998
v 0.426545 0.65 0.420247
v 0.467205 0.65 0.420247
v 0.495956 0.65 0.448998
v 0.495956 0.80625 0.489658
v 0.467205 0.80625 0.518409
v 0.426545 0.80625 0.518409
v 0.397794 0.80625 0.489658
v 0.397794 0.80625 0.448998
v 0.426545 0.80625 0.420247
v 0.467205 0.80625 0.420247
v 0.495956 0.80625 0.448998
v 0.602206 0.65 0.489658
v 0.573455 0.65 0.518409
v 0.532795 0.65 0.518409
v 0.504044 0.65 0.489658
v 0.504044 0.65 0.448998
v 0.532795 0.65 0.420247
v 0.573455 0.65 0.420247
v 0.602206 0.65 0.448998
v 0.602206 0.80625 0.489658
v 0.573455 0.80625 0.518409
v 0.532795 0.80625 0.518409
v 0.504044 0.80625 0.489658
v 0.504044 0.80625 0.448998
v 0.532795 0.80625 0.420247
v 0.573455 0.80625 0.420247
v 0.602206 0.80625 0.448998
v 0.632815 0.6625 0.535588
v 0.597227 0.6625 0.597227
v 0.535588 0.6625 0.632815
v 0.464412 0.6625 0.632815
v 0.402773 0.6625 0.597227
v 0.367185 0.6625 0.535588
v 0.367185 0.6625 0.464412
v 0.402773 0.6625 0.402773
v 0.464412 0.6625 0.367185
v 0.535588 0.6625 0.367185
v 0.597227 0.6625 0.402773
v 0.632815 0.6625 0.464412
v 0.632815 0.7125 0.535588
v 0.597227 0.7125 0.597227
v 0.535588 0.7125 0.632815
v 0.464412 0.7125 0.632815
v 0.402773 0.7125 0.597227
v 0.367185 0.7125 0.535588
v 0.367185 0.7125 0.464412
v 0.402773 0.7125 0.402773
v 0.464412 0.7125 0.367185
v 0.535588 0.7125 0.367185
v 0.597227 0.7125 0.402773
v 0.632815 0.7125 0.464412
v 0.5 0.6625 0.5
v 0.632815 0.6625 0.535588
v 0.597227 0.6625 0.597227
v 0.535588 0.6625 0.632815
v 0.464412 0.6625 0.632815
v 0.402773 0.6625 0.597227
v 0.367185 0.6625 0.535588
v 0.367185 0.6625 0.464412
v 0.402773 0.6625 0.402773
v 0.464412 0.6625 0.367185
v 0.535588 0.6625 0.367185
v 0.597227 0.6625 0.402773
v 0.632815 0.6625 0.464412
v 0.5 0.7125 0.5
v 0.632815 0.7125 0.535588
v 0.597227 0.7125 0.597227
v 0.535588 0.7125 0.632815
v 0.464412 0.7125 0.632815
v 0.402773 0.7125 0.597227
v 0.367185 0.7125 0.535588
v 0.367185 0.7125 0.464412
v 0.402773 0.7125 0.402773
v 0.464412 0.7125 0.367185
v 0.535588 0.7125 0.367185
v 0.597227 0.7125 0.402773
v 0.632815 0.7125 0.464412
v 0.629796 0.7875 0.534779
v 0.595017 0.7875 0.595017
v 0.534779 0.7875 0.629796
v 0.465221 0.7875 0.629796
v 0.404983 0.7875 0.595017
v 0.370204 0.7875 0.534779
v 0.370204 0.7875 0.465221
v 0.404983 0.7875 0.404983
v 0.465221 0.7875 0.370204
v 0.534779 0.7875 0.370204
v 0.595017 0.7875 0.404983
v 0.629796 0.7875 0.465221
v 0.629796 0.9125 0.534779
v 0.595017 0.9125 0.595017
v 0.534779 0.9125 0.629796
v 0.465221 0.9125 0.629796
v 0.404983 0.9125 0.595017
v 0.370204 0.9125 0.534779
v 0.370204 0.9125 0.465221
v 0.404983 0.9125 0.404983
v 0.465221 0.9125 0.370204
v 0.534779 0.9125 0.370204
v 0.595017 0.9125 0.404983
v 0.629796 0.9125 0.465221
v 0.5 0.7875 0.5
v 0.629796 0.7875 0.534779
v 0.595017 0.7875 0.595017
v 0.534779 0.7875 0.629796
v 0.465221 0.7875 0.629796
v 0.404983 0.7875 0.595017
v 0.370204 0.7875 0.534779
v 0.370204 0.7875 0.465221
v 0.404983 0.7875 0.404983
v 0.465221 0.7875 0.370204
v 0.534779 0.7875 0.370204
v 0.595017 0.7875 0.404983
v 0.629796 0.7875 0.465221
v 0.5 0.9125 0.5
v 0.629796 0.9125 0.534779
v 0.595017 0.9125 0.595017
v 0.534779 0.9125 0.629796
v 0.465221 0.9125 0.629796
v 0.404983 0.9125 0.595017
v 0.370204 0.9125 0.534779
v 0.370204 0.9125 0.465221
v 0.404983 0.9125 0.404983
v 0.465221 0.9125 0.370204
v 0.534779 0.9125 0.370204
v 0.595017 0.9125 0.404983
v 0.629796 0.9125 0.465221
v 0.635316 0.846875 0.578125
v 0.5 0.846875 0.65625
v 0.364684 0.846875 0.578125
v 0.364684 0.846875 0.421875
v 0.5 0.846875 0.34375
v 0.635316 0.846875 0.421875
v 0.635316 0.903125 0.578125
v 0.5 0.903125 0.65625
v 0.364684 0.903125 0.578125
v 0.364684 0.903125 0.421875
v 0.5 0.903125 0.34375
v 0.635316 0.903125 0.421875
v 0.5 0.846875 0.5
v 0.635316 0.846875 0.578125
v 0.5 0.846875 0.65625
v 0.364684 0.846875 0.578125
v 0.364684 0.846875 0.421875
v 0.5 0.846875 0.34375
v 0.635316 0.846875 0.421875
v 0.5 0.903125 0.5
v 0.635316 0.903125 0.578125
v 0.5 0.903125 0.65625
v 0.364684 0.903125 0.578125
v 0.364684 0.903125 0.421875
v 0.5 0.903125 0.34375
v 0.635316 0.903125 0.421875
v 0.614704 0.90625 0.530735
v 0.583969 0.90625 0.583969
v 0.530735 0.90625 0.614704
v 0.469265 0.90625 0.614704
v 0.416031 0.90625 0.583969
v 0.385296 0.90625 0.530735
v 0.385296 0.90625 0.469265
v 0.416031 0.90625 0.416031
v 0.469265 0.90625 0.385296
v 0.530735 0.90625 0.385296
v 0.583969 0.90625 0.416031
v 0.614704 0.90625 0.469265
v 0.614704 1 0.530735
v 0.583969 1 0.583969
v 0.530735 1 0.614704
v 0.469265 1 0.614704
v 0.416031 1 0.583969
v 0.385296 1 0.530735
v 0.385296 1 0.469265
v 0.416031 1 0.416031
v 0.469265 1 0.385296
v 0.530735 1 0.385296
v 0.583969 1 0.416031
v 0.614704 1 0.469265
v 0.5 0.90625 0.5
v 0.614704 0.90625 0.530735
v 0.583969 0.90625 0.583969
v 0.530735 0.90625 0.614704
v 0.469265 0.90625 0.614704
v 0.416031 0.90625 0.583969
v 0.385296 0.90625 0.530735
v 0.385296 0.90625 0.469265
v 0.416031 0.90625 0.416031
v 0.469265 0.90625 0.385296
v 0.530735 0.90625 0.385296
v 0.583969 0.90625 0.416031
v 0.614704 0.90625 0.469265
v 0.5 1 0.5
v 0.614704 1 0.530735
v 0.583969 1 0.583969
v 0.530735 1 0.614704
v 0.469265 1 0.614704
v 0.416031 1 0.583969
v 0.385296 1 0.530735
v 0.385296 1 0.469265
v 0.416031 1 0.416031
v 0.469265 1 0.385296
v 0.530735 1 0.385296
v 0.583969 1 0.416031
v 0.614704 1 0.469265
vn 0.92388 0 0.382683
vn 0.382683 0 0.92388
vn -0.382683 0 0.92388
vn -0.92388 0 0.382683
vn -0.92388 0 -0.382683
vn -0.382683 0 -0.92388
vn 0.382683 0 -0.92388
vn 0.92388 0 -0.382683
vn 0.92388 0 0.382683
vn 0.382683 0 0.92388
vn -0.382683 0 0.92388
vn -0.92388 0 0.382683
vn -0.92388 0 -0.382683
vn -0.382683 0 -0.92388
vn 0.382683 0 -0.92388
vn 0.92388 0 -0.382683
vn 0.92388 0 0.382683
vn 0.382683 0 0.92388
vn -0.382683 0 0.92388
vn -0.92388 0 0.382683
vn -0.92388 0 -0.382683
vn -0.382683 0 -0.92388
vn 0.382683 0 -0.92388
vn 0.92388 0 -0.382683
vn 0.92388 0 0.382683
vn 0.382683 0 0.92388
vn -0.382683 0 0.92388
vn -0.92388 0 0.382683
vn -0.92388 0 -0.382683
vn -0.382683 0 -0.92388
vn 0.382683 0 -0.92388
vn 0.92388 0 -0.382683
vn 0.92388 0 0.382683
vn 0.382683 0 0.92388
vn -0.382683 0 0.92388
vn -0.92388 0 0.382683
vn -0.92388 0 -0.382683
vn -0.382683 0 -0.92388
vn 0.382683 0 -0.92388
vn 0.92388 0 -0.382683
vn 0.92388 0 0.382683
vn 0.382683 0 0.92388
vn -0.382683 0 0.92388
vn -0.92388 0 0.382683
vn -0.92388 0 -0.382683
vn -0.382683 0 -0.92388
vn 0.382683 0 -0.92388
vn 0.92388 0 -0.382683
vn 0.965926 0 0.258819
vn 0.707107 0 0.707107
vn 0.258819 0 0.965926
vn -0.258819 0 0.965926
vn -0.707107 0 0.707107
vn -0.965926 0 0.258819
vn -0.965926 0 -0.258819
vn -0.707107 0 -0.707107
vn -0.258819 0 -0.965926
vn 0.258819 0 -0.965926
vn 0.707107 0 -0.707107
vn 0.965926 0 -0.258819
vn 0.965926 0 0.258819
vn 0.707107 0 0.707107
vn 0.258819 0 0.965926
vn -0.258819 0 0.965926
vn -0.707107 0 0.707107
vn -0.965926 0 0.258819
vn -0.965926 0 -0.258819
vn -0.707107 0 -0.707107
vn -0.258819 0 -0.965926
vn 0.258819 0 -0.965926
vn 0.707107 0 -0.707107
vn 0.965926 0 -0.258819
vn 0 -1 0
vn 0 -1 0
vn 0 -1 0
vn 0 -1 0
vn 0 -1 0
vn 0 -1 0
vn 0 -1 0
vn 0 -1 0
vn 0 -1 0
vn 0 -1 0
vn 0 -1 0
vn 0 -1 0
vn 0 -1 0
vn 0 1 0
vn 0 1 0
vn 0 1 0
vn 0 1 0
vn 0 1 0
vn 0 1 0
vn 0 1 0
vn 0 1 0
vn 0 1 0
vn 0 1 0
vn 0 1 0
vn 0 1 0
vn 0 1 0
vn 0.965926 0 0.258819
vn 0.707107 0 0.707107
vn 0.258819 0 0.965926
vn -0.258819 0 0.965926
vn -0.707107 0 0.707107
vn -0.965926 0 0.258819
vn -0.965926 0 -0.258819
vn -0.707107 0 -0.707107
vn -0.258819 0 -0.965926
vn 0.258819 0 -0.965926
vn 0.707107 0 -0.707107
vn 0.965926 0 -0.258819
vn 0.965926 0 0.258819
vn 0.707107 0 0.707107
vn 0.258819 0 0.965926
vn -0.258819 0 0.965926
vn -0.707107 0 0.707107
vn -0.965926 0 0.258819
vn -0.965926 0 -0.258819
vn -0.707107 0 -0.707107
vn -0.258819 0 -0.965926
vn 0.258819 0 -0.965926
vn 0.707107 0 -0.707107
vn 0.965926 0 -0.258819
vn 0 -1 0
vn 0 -1 0
vn 0 -1 0
vn 0 -1 0
vn 0 -1 0
vn 0 -1 0
vn 0 -1 0
vn 0 -1 0
vn 0 -1 0
vn 0 -1 0
vn 0 -1 0
vn 0 -1 0
vn 0 -1 0
vn 0 1 0
vn 0 1 0
vn 0 1 0
vn 0 1 0
vn 0 1 0
vn 0 1 0
vn 0 1 0
vn 0 1 0
vn 0 1 0
vn 0 1 0
vn 0 1 0
vn 0 1 0
vn 0 1 0
vn 0.866025 0 0.5
vn 0 0 1
vn -0.866025 0 0.5
vn -0.866025 0 -0.5
vn 0 0 -1
vn 0.866025 0 -0.5
vn 0.866025 0 0.5
vn 0 0 1
vn -0.866025 0 0.5
vn -0.866025 0 -0.5
vn 0 0 -1
vn 0.866025 0 -0.5
vn 0 -1 0
vn 0 -1 0
vn 0 -1 0
vn 0 -1 0
vn 0 -1 0
vn 0 -1 0
vn 0 -1 0
vn 0 1 0
vn 0 1 0
vn 0 1 0
vn 0 1 0
vn 0 1 0
vn 0 1 0
vn 0 1 0
vn 0.965926 0 0.258819
vn 0.707107 0 0.707107
vn 0.258819 0 0.965926
vn -0.258819 0 0.965926
vn -0.707107 0 0.707107
vn -0.965926 0 0.258819
vn -0.965926 0 -0.258819
vn -0.707107 0 -0.707107
vn -0.258819 0 -0.965926
vn 0.258819 0 -0.965926
vn 0.707107 0 -0.707107
vn 0.965926 0 -0.258819
vn 0.965926 0 0.258819
vn 0.707107 0 0.707107
vn 0.258819 0 0.965926
vn -0.258819 0 0.965926
vn -0.707107 0 0.707107
vn -0.965926 0 0.258819
vn -0.965926 0 -0.258819
vn -0.707107 0 -0.707107
vn -0.258819 0 -0.965926
vn 0.258819 0 -0.965926
vn 0.707107 0 -0.707107
vn 0.965926 0 -0.258819
vn 0 -1 0
vn 0 -1 0
vn 0 -1 0
vn 0 -1 0
vn 0 -1 0
vn 0 -1 0
vn 0 -1 0
vn 0 -1 0
vn 0 -1 0
vn 0 -1 0
vn 0 -1 0
vn 0 -1 0
vn 0 -1 0
vn 0 1 0
vn 0 1 0
vn 0 1 0
vn 0 1 0
vn 0 1 0
vn 0 1 0
vn 0 1 0
vn 0 1 0
vn 0 1 0
vn 0 1 0
vn 0 1 0
vn 0 1 0
vn 0 1 0
vt 0.0625 0.9375
vt 0.1875 0.9375
vt 0.3125 0.9375
vt 0.4375 0.9375
vt 0.5625 0.9375
vt 0.6875 0.9375
vt 0.8125 0.9375
f 1/1/1 9/1/9 10/1/10 2/1/2
f 2/1/2 10/1/10 11/1/11 3/1/3
f 3/1/3 11/1/11 12/1/12 4/1/4
f 4/1/4 12/1/12 13/1/13 5/1/5
f 5/1/5 13/1/13 14/1/14 6/1/6
f 6/1/6 14/1/14 15/1/15 7/1/7
f 7/1/7 15/1/15 16/1/16 8/1/8
f 8/1/8 16/1/16 9/1/9 1/1/1
f 17/1/17 25/1/25 26/1/26 18/1/18
f 18/1/18 26/1/26 27/1/27 19/1/19
f 19/1/19 27/1/27 28/1/28 20/1/20
f 20/1/20 28/1/28 29/1/29 21/1/21
f 21/1/21 29/1/29 30/1/30 22/1/22
f 22/1/22 30/1/30 31/1/31 23/1/23
f 23/1/23 31/1/31 32/1/32 24/1/24
f 24/1/24 32/1/32 25/1/25 17/1/17
f 33/1/33 41/1/41 42/1/42 34/1/34
f 34/1/34 42/1/42 43/1/43 35/1/35
f 35/1/35 43/1/43 44/1/44 36/1/36
f 36/1/36 44/1/44 45/1/45 37/1/37
f 37/1/37 45/1/45 46/1/46 38/1/38
f 38/1/38 46/1/46 47/1/47 39/1/39
f 39/1/39 47/1/47 48/1/48 40/1/40
f 40/1/40 48/1/48 41/1/41 33/1/33
f 49/4/49 61/4/61 62/4/62 50/4/50
f 50/4/50 62/4/62 63/4/63 51/4/51
f 51/4/51 63/4/63 64/4/64 52/4/52
f 52/4/52 64/4/64 65/4/65 53/4/53
f 53/4/53 65/4/65 66/4/66 54/4/54
f 54/4/54 66/4/66 67/4/67 55/4/55
f 55/4/55 67/4/67 68/4/68 56/4/56
f 56/4/56 68/4/68 69/4/69 57/4/57
f 57/4/57 69/4/69 70/4/70 58/4/58
f 58/4/58 70/4/70 71/4/71 59/4/59
f 59/4/59 71/4/71 72/4/72 60/4/60
f 60/4/60 72/4/72 61/4/61 49/4/49
f 74/4/74 75/4/75 73/4/73
f 75/4/75 76/4/76 73/4/73
f 76/4/76 77/4/77 73/4/73
f 77/4/77 78/4/78 73/4/73
f 78/4/78 79/4/79 73/4/73
f 79/4/79 80/4/80 73/4/73
f 80/4/80 81/4/81 73/4/73
f 81/4/81 82/4/82 73/4/73
f 82/4/82 83/4/83 73/4/73
f 83/4/83 84/4/84 73/4/73
f 84/4/84 85/4/85 73/4/73
f 85/4/85 74/4/74 73/4/73
f 88/4/88 87/4/87 86/4/86
f 89/4/89 88/4/88 86/4/86
f 90/4/90 89/4/89 86/4/86
f 91/4/91 90/4/90 86/4/86
f 92/4/92 91/4/91 86/4/86
f 93/4/93 92/4/92 86/4/86
f 94/4/94 93/4/93 86/4/86
f 95/4/95 94/4/94 86/4/86
f 96/4/96 95/4/95 86/4/86
f 97/4/97 96/4/96 86/4/86
f 98/4/98 97/4/97 86/4/86
f 87/4/87 98/4/98 86/4/86
f 99/5/99 111/5/111 112/5/112 100/5/100
f 100/5/100 112/5/112 113/5/113 101/5/101
f 101/5/101 113/5/113 114/5/114 102/5/102
f 102/5/102 114/5/114 115/5/115 103/5/103
f 103/5/103 115/5/115 116/5/116 104/5/104
f 104/5/104 116/5/116 117/5/117 105/5/105
f 105/5/105 117/5/117 118/5/118 106/5/106
f 106/5/106 118/5/118 119/5/119 107/5/107
f 107/5/107 119/5/119 120/5/120 108/5/108
f 108/5/108 120/5/120 121/5/121 109/5/109
f 109/5/109 121/5/121 122/5/122 110/5/110
f 110/5/110 122/5/122 111/5/111 99/5/99
f 124/5/124 125/5/125 123/5/123
f 125/5/125 126/5/126 123/5/123
f 126/5/126 127/5/127 123/5/123
f 127/5/127 128/5/128 123/5/123
f 128/5/128 129/5/129 123/5/123
f 129/5/129 130/5/130 123/5/123
f 130/5/130 131/5/131 123/5/123
f 131/5/131 132/5/132 123/5/123
f 132/5/132 133/5/133 123/5/123
f 133/5/133 134/5/134 123/5/123
f 134/5/134 135/5/135 123/5/123
f 135/5/135 124/5/124 123/5/123
f 138/5/138 137/5/137 136/5/136
f 139/5/139 138/5/138 136/5/136
f 140/5/140 139/5/139 136/5/136
f 141/5/141 140/5/140 136/5/136
f 142/5/142 141/5/141 136/5/136
f 143/5/143 142/5/142 136/5/136
f 144/5/144 143/5/143 136/5/136
f 145/5/145 144/5/144 136/5/136
f 146/5/146 145/5/145 136/5/136
f 147/5/147 146/5/146 136/5/136
f 148/5/148 147/5/147 136/5/136
f 137/5/137 148/5/148 136/5/136
f 149/6/149 155/6/155 156/6/156 150/6/150
f 150/6/150 156/6/156 157/6/157 151/6/151
f 151/6/151 157/6/157 158/6/158 152/6/152
f 152/6/152 158/6/158 159/6/159 153/6/153
f 153/6/153 159/6/159 160/6/160 154/6/154
f 154/6/154 160/6/160 155/6/155 149/6/149
f 162/6/162 163/6/163 161/6/161
f 163/6/163 164/6/164 161/6/161
f 164/6/164 165/6/165 161/6/161
f 165/6/165 166/6/166 161/6/161
f 166/6/166 167/6/167 161/6/161
f 167/6/167 162/6/162 161/6/161
f 170/6/170 169/6/169 168/6/168
f 171/6/171 170/6/170 168/6/168
f 172/6/172 171/6/171 168/6/168
f 173/6/173 172/6/172 168/6/168
f 174/6/174 173/6/173 168/6/168
f 169/6/169 174/6/174 168/6/168
f 175/5/175 187/5/187 188/5/188 176/5/176
f 176/5/176 188/5/188 189/5/189 177/5/177
f 177/5/177 189/5/189 190/5/190 178/5/178
f 178/5/178 190/5/190 191/5/191 179/5/179
f 179/5/179 191/5/191 192/5/192 180/5/180
f 180/5/180 192/5/192 193/5/193 181/5/181
f 181/5/181 193/5/193 194/5/194 182/5/182
f 182/5/182 194/5/194 195/5/195 183/5/183
f 183/5/183 195/5/195 196/5/196 184/5/184
f 184/5/184 196/5/196 197/5/197 185/5/185
f 185/5/185 197/5/197 198/5/198 186/5/186
f 186/5/186 198/5/198 187/5/187 175/5/175
f 200/5/200 201/5/201 199/5/199
f 201/5/201 202/5/202 199/5/199
f 202/5/202 203/5/203 199/5/199
f 203/5/203 204/5/204 199/5/199
f 204/5/204 205/5/205 199/5/199
f 205/5/205 206/5/206 199/5/199
f 206/5/206 207/5/207 199/5/199
f 207/5/207 208/5/208 199/5/199
f 208/5/208 209/5/209 199/5/199
f 209/5/209 210/5/210 199/5/199
f 210/5/210 211/5/211 199/5/199
f 211/5/211 200/5/200 199/5/199
f 214/5/214 213/5/213 212/5/212
f 215/5/215 214/5/214 212/5/212
f 216/5/216 215/5/215 212/5/212
f 217/5/217 216/5/216 212/5/212
f 218/5/218 217/5/217 212/5/212
f 219/5/219 218/5/218 212/5/212
f 220/5/220 219/5/219 212/5/212
f 221/5/221 220/5/220 212/5/212
f 222/5/222 221/5/221 212/5/212
f 223/5/223 222/5/222 212/5/212
f 224/5/224 223/5/223 212/5/212
f 213/5/213 224/5/224 212/5/212
