# AFL Power Cable V2 piece arm_plug_north, generated by tools/build-power-cable-v2.mjs
mtllib power_cable.mtl
o arm_plug_north
usemtl cable
v 0.549081 0.581674 0.35
v 0.52033 0.610425 0.35
v 0.47967 0.610425 0.35
v 0.450919 0.581674 0.35
v 0.450919 0.541013 0.35
v 0.47967 0.512262 0.35
v 0.52033 0.512262 0.35
v 0.549081 0.541013 0.35
v 0.549081 0.581674 0.19375
v 0.52033 0.610425 0.19375
v 0.47967 0.610425 0.19375
v 0.450919 0.581674 0.19375
v 0.450919 0.541013 0.19375
v 0.47967 0.512262 0.19375
v 0.52033 0.512262 0.19375
v 0.549081 0.541013 0.19375
v 0.495956 0.489658 0.35
v 0.467205 0.518409 0.35
v 0.426545 0.518409 0.35
v 0.397794 0.489658 0.35
v 0.397794 0.448998 0.35
v 0.426545 0.420247 0.35
v 0.467205 0.420247 0.35
v 0.495956 0.448998 0.35
v 0.495956 0.489658 0.19375
v 0.467205 0.518409 0.19375
v 0.426545 0.518409 0.19375
v 0.397794 0.489658 0.19375
v 0.397794 0.448998 0.19375
v 0.426545 0.420247 0.19375
v 0.467205 0.420247 0.19375
v 0.495956 0.448998 0.19375
v 0.602206 0.489658 0.35
v 0.573455 0.518409 0.35
v 0.532795 0.518409 0.35
v 0.504044 0.489658 0.35
v 0.504044 0.448998 0.35
v 0.532795 0.420247 0.35
v 0.573455 0.420247 0.35
v 0.602206 0.448998 0.35
v 0.602206 0.489658 0.19375
v 0.573455 0.518409 0.19375
v 0.532795 0.518409 0.19375
v 0.504044 0.489658 0.19375
v 0.504044 0.448998 0.19375
v 0.532795 0.420247 0.19375
v 0.573455 0.420247 0.19375
v 0.602206 0.448998 0.19375
v 0.632815 0.535588 0.3375
v 0.597227 0.597227 0.3375
v 0.535588 0.632815 0.3375
v 0.464412 0.632815 0.3375
v 0.402773 0.597227 0.3375
v 0.367185 0.535588 0.3375
v 0.367185 0.464412 0.3375
v 0.402773 0.402773 0.3375
v 0.464412 0.367185 0.3375
v 0.535588 0.367185 0.3375
v 0.597227 0.402773 0.3375
v 0.632815 0.464412 0.3375
v 0.632815 0.535588 0.2875
v 0.597227 0.597227 0.2875
v 0.535588 0.632815 0.2875
v 0.464412 0.632815 0.2875
v 0.402773 0.597227 0.2875
v 0.367185 0.535588 0.2875
v 0.367185 0.464412 0.2875
v 0.402773 0.402773 0.2875
v 0.464412 0.367185 0.2875
v 0.535588 0.367185 0.2875
v 0.597227 0.402773 0.2875
v 0.632815 0.464412 0.2875
v 0.5 0.5 0.3375
v 0.632815 0.535588 0.3375
v 0.597227 0.597227 0.3375
v 0.535588 0.632815 0.3375
v 0.464412 0.632815 0.3375
v 0.402773 0.597227 0.3375
v 0.367185 0.535588 0.3375
v 0.367185 0.464412 0.3375
v 0.402773 0.402773 0.3375
v 0.464412 0.367185 0.3375
v 0.535588 0.367185 0.3375
v 0.597227 0.402773 0.3375
v 0.632815 0.464412 0.3375
v 0.5 0.5 0.2875
v 0.632815 0.535588 0.2875
v 0.597227 0.597227 0.2875
v 0.535588 0.632815 0.2875
v 0.464412 0.632815 0.2875
v 0.402773 0.597227 0.2875
v 0.367185 0.535588 0.2875
v 0.367185 0.464412 0.2875
v 0.402773 0.402773 0.2875
v 0.464412 0.367185 0.2875
v 0.535588 0.367185 0.2875
v 0.597227 0.402773 0.2875
v 0.632815 0.464412 0.2875
v 0.629796 0.534779 0.2125
v 0.595017 0.595017 0.2125
v 0.534779 0.629796 0.2125
v 0.465221 0.629796 0.2125
v 0.404983 0.595017 0.2125
v 0.370204 0.534779 0.2125
v 0.370204 0.465221 0.2125
v 0.404983 0.404983 0.2125
v 0.465221 0.370204 0.2125
v 0.534779 0.370204 0.2125
v 0.595017 0.404983 0.2125
v 0.629796 0.465221 0.2125
v 0.629796 0.534779 0.0875
v 0.595017 0.595017 0.0875
v 0.534779 0.629796 0.0875
v 0.465221 0.629796 0.0875
v 0.404983 0.595017 0.0875
v 0.370204 0.534779 0.0875
v 0.370204 0.465221 0.0875
v 0.404983 0.404983 0.0875
v 0.465221 0.370204 0.0875
v 0.534779 0.370204 0.0875
v 0.595017 0.404983 0.0875
v 0.629796 0.465221 0.0875
v 0.5 0.5 0.2125
v 0.629796 0.534779 0.2125
v 0.595017 0.595017 0.2125
v 0.534779 0.629796 0.2125
v 0.465221 0.629796 0.2125
v 0.404983 0.595017 0.2125
v 0.370204 0.534779 0.2125
v 0.370204 0.465221 0.2125
v 0.404983 0.404983 0.2125
v 0.465221 0.370204 0.2125
v 0.534779 0.370204 0.2125
v 0.595017 0.404983 0.2125
v 0.629796 0.465221 0.2125
v 0.5 0.5 0.0875
v 0.629796 0.534779 0.0875
v 0.595017 0.595017 0.0875
v 0.534779 0.629796 0.0875
v 0.465221 0.629796 0.0875
v 0.404983 0.595017 0.0875
v 0.370204 0.534779 0.0875
v 0.370204 0.465221 0.0875
v 0.404983 0.404983 0.0875
v 0.465221 0.370204 0.0875
v 0.534779 0.370204 0.0875
v 0.595017 0.404983 0.0875
v 0.629796 0.465221 0.0875
v 0.635316 0.578125 0.153125
v 0.5 0.65625 0.153125
v 0.364684 0.578125 0.153125
v 0.364684 0.421875 0.153125
v 0.5 0.34375 0.153125
v 0.635316 0.421875 0.153125
v 0.635316 0.578125 0.096875
v 0.5 0.65625 0.096875
v 0.364684 0.578125 0.096875
v 0.364684 0.421875 0.096875
v 0.5 0.34375 0.096875
v 0.635316 0.421875 0.096875
v 0.5 0.5 0.153125
v 0.635316 0.578125 0.153125
v 0.5 0.65625 0.153125
v 0.364684 0.578125 0.153125
v 0.364684 0.421875 0.153125
v 0.5 0.34375 0.153125
v 0.635316 0.421875 0.153125
v 0.5 0.5 0.096875
v 0.635316 0.578125 0.096875
v 0.5 0.65625 0.096875
v 0.364684 0.578125 0.096875
v 0.364684 0.421875 0.096875
v 0.5 0.34375 0.096875
v 0.635316 0.421875 0.096875
v 0.614704 0.530735 0.09375
v 0.583969 0.583969 0.09375
v 0.530735 0.614704 0.09375
v 0.469265 0.614704 0.09375
v 0.416031 0.583969 0.09375
v 0.385296 0.530735 0.09375
v 0.385296 0.469265 0.09375
v 0.416031 0.416031 0.09375
v 0.469265 0.385296 0.09375
v 0.530735 0.385296 0.09375
v 0.583969 0.416031 0.09375
v 0.614704 0.469265 0.09375
v 0.614704 0.530735 0
v 0.583969 0.583969 0
v 0.530735 0.614704 0
v 0.469265 0.614704 0
v 0.416031 0.583969 0
v 0.385296 0.530735 0
v 0.385296 0.469265 0
v 0.416031 0.416031 0
v 0.469265 0.385296 0
v 0.530735 0.385296 0
v 0.583969 0.416031 0
v 0.614704 0.469265 0
v 0.5 0.5 0.09375
v 0.614704 0.530735 0.09375
v 0.583969 0.583969 0.09375
v 0.530735 0.614704 0.09375
v 0.469265 0.614704 0.09375
v 0.416031 0.583969 0.09375
v 0.385296 0.530735 0.09375
v 0.385296 0.469265 0.09375
v 0.416031 0.416031 0.09375
v 0.469265 0.385296 0.09375
v 0.530735 0.385296 0.09375
v 0.583969 0.416031 0.09375
v 0.614704 0.469265 0.09375
v 0.5 0.5 0
v 0.614704 0.530735 0
v 0.583969 0.583969 0
v 0.530735 0.614704 0
v 0.469265 0.614704 0
v 0.416031 0.583969 0
v 0.385296 0.530735 0
v 0.385296 0.469265 0
v 0.416031 0.416031 0
v 0.469265 0.385296 0
v 0.530735 0.385296 0
v 0.583969 0.416031 0
v 0.614704 0.469265 0
vn 0.92388 0.382683 0
vn 0.382683 0.92388 0
vn -0.382683 0.92388 0
vn -0.92388 0.382683 0
vn -0.92388 -0.382683 0
vn -0.382683 -0.92388 0
vn 0.382683 -0.92388 0
vn 0.92388 -0.382683 0
vn 0.92388 0.382683 0
vn 0.382683 0.92388 0
vn -0.382683 0.92388 0
vn -0.92388 0.382683 0
vn -0.92388 -0.382683 0
vn -0.382683 -0.92388 0
vn 0.382683 -0.92388 0
vn 0.92388 -0.382683 0
vn 0.92388 0.382683 0
vn 0.382683 0.92388 0
vn -0.382683 0.92388 0
vn -0.92388 0.382683 0
vn -0.92388 -0.382683 0
vn -0.382683 -0.92388 0
vn 0.382683 -0.92388 0
vn 0.92388 -0.382683 0
vn 0.92388 0.382683 0
vn 0.382683 0.92388 0
vn -0.382683 0.92388 0
vn -0.92388 0.382683 0
vn -0.92388 -0.382683 0
vn -0.382683 -0.92388 0
vn 0.382683 -0.92388 0
vn 0.92388 -0.382683 0
vn 0.92388 0.382683 0
vn 0.382683 0.92388 0
vn -0.382683 0.92388 0
vn -0.92388 0.382683 0
vn -0.92388 -0.382683 0
vn -0.382683 -0.92388 0
vn 0.382683 -0.92388 0
vn 0.92388 -0.382683 0
vn 0.92388 0.382683 0
vn 0.382683 0.92388 0
vn -0.382683 0.92388 0
vn -0.92388 0.382683 0
vn -0.92388 -0.382683 0
vn -0.382683 -0.92388 0
vn 0.382683 -0.92388 0
vn 0.92388 -0.382683 0
vn 0.965926 0.258819 0
vn 0.707107 0.707107 0
vn 0.258819 0.965926 0
vn -0.258819 0.965926 0
vn -0.707107 0.707107 0
vn -0.965926 0.258819 0
vn -0.965926 -0.258819 0
vn -0.707107 -0.707107 0
vn -0.258819 -0.965926 0
vn 0.258819 -0.965926 0
vn 0.707107 -0.707107 0
vn 0.965926 -0.258819 0
vn 0.965926 0.258819 0
vn 0.707107 0.707107 0
vn 0.258819 0.965926 0
vn -0.258819 0.965926 0
vn -0.707107 0.707107 0
vn -0.965926 0.258819 0
vn -0.965926 -0.258819 0
vn -0.707107 -0.707107 0
vn -0.258819 -0.965926 0
vn 0.258819 -0.965926 0
vn 0.707107 -0.707107 0
vn 0.965926 -0.258819 0
vn 0 0 1
vn 0 0 1
vn 0 0 1
vn 0 0 1
vn 0 0 1
vn 0 0 1
vn 0 0 1
vn 0 0 1
vn 0 0 1
vn 0 0 1
vn 0 0 1
vn 0 0 1
vn 0 0 1
vn 0 0 -1
vn 0 0 -1
vn 0 0 -1
vn 0 0 -1
vn 0 0 -1
vn 0 0 -1
vn 0 0 -1
vn 0 0 -1
vn 0 0 -1
vn 0 0 -1
vn 0 0 -1
vn 0 0 -1
vn 0 0 -1
vn 0.965926 0.258819 0
vn 0.707107 0.707107 0
vn 0.258819 0.965926 0
vn -0.258819 0.965926 0
vn -0.707107 0.707107 0
vn -0.965926 0.258819 0
vn -0.965926 -0.258819 0
vn -0.707107 -0.707107 0
vn -0.258819 -0.965926 0
vn 0.258819 -0.965926 0
vn 0.707107 -0.707107 0
vn 0.965926 -0.258819 0
vn 0.965926 0.258819 0
vn 0.707107 0.707107 0
vn 0.258819 0.965926 0
vn -0.258819 0.965926 0
vn -0.707107 0.707107 0
vn -0.965926 0.258819 0
vn -0.965926 -0.258819 0
vn -0.707107 -0.707107 0
vn -0.258819 -0.965926 0
vn 0.258819 -0.965926 0
vn 0.707107 -0.707107 0
vn 0.965926 -0.258819 0
vn 0 0 1
vn 0 0 1
vn 0 0 1
vn 0 0 1
vn 0 0 1
vn 0 0 1
vn 0 0 1
vn 0 0 1
vn 0 0 1
vn 0 0 1
vn 0 0 1
vn 0 0 1
vn 0 0 1
vn 0 0 -1
vn 0 0 -1
vn 0 0 -1
vn 0 0 -1
vn 0 0 -1
vn 0 0 -1
vn 0 0 -1
vn 0 0 -1
vn 0 0 -1
vn 0 0 -1
vn 0 0 -1
vn 0 0 -1
vn 0 0 -1
vn 0.866025 0.5 0
vn 0 1 0
vn -0.866025 0.5 0
vn -0.866025 -0.5 0
vn 0 -1 0
vn 0.866025 -0.5 0
vn 0.866025 0.5 0
vn 0 1 0
vn -0.866025 0.5 0
vn -0.866025 -0.5 0
vn 0 -1 0
vn 0.866025 -0.5 0
vn 0 0 1
vn 0 0 1
vn 0 0 1
vn 0 0 1
vn 0 0 1
vn 0 0 1
vn 0 0 1
vn 0 0 -1
vn 0 0 -1
vn 0 0 -1
vn 0 0 -1
vn 0 0 -1
vn 0 0 -1
vn 0 0 -1
vn 0.965926 0.258819 0
vn 0.707107 0.707107 0
vn 0.258819 0.965926 0
vn -0.258819 0.965926 0
vn -0.707107 0.707107 0
vn -0.965926 0.258819 0
vn -0.965926 -0.258819 0
vn -0.707107 -0.707107 0
vn -0.258819 -0.965926 0
vn 0.258819 -0.965926 0
vn 0.707107 -0.707107 0
vn 0.965926 -0.258819 0
vn 0.965926 0.258819 0
vn 0.707107 0.707107 0
vn 0.258819 0.965926 0
vn -0.258819 0.965926 0
vn -0.707107 0.707107 0
vn -0.965926 0.258819 0
vn -0.965926 -0.258819 0
vn -0.707107 -0.707107 0
vn -0.258819 -0.965926 0
vn 0.258819 -0.965926 0
vn 0.707107 -0.707107 0
vn 0.965926 -0.258819 0
vn 0 0 1
vn 0 0 1
vn 0 0 1
vn 0 0 1
vn 0 0 1
vn 0 0 1
vn 0 0 1
vn 0 0 1
vn 0 0 1
vn 0 0 1
vn 0 0 1
vn 0 0 1
vn 0 0 1
vn 0 0 -1
vn 0 0 -1
vn 0 0 -1
vn 0 0 -1
vn 0 0 -1
vn 0 0 -1
vn 0 0 -1
vn 0 0 -1
vn 0 0 -1
vn 0 0 -1
vn 0 0 -1
vn 0 0 -1
vn 0 0 -1
vt 0.03125 0.96875
vt 0.09375 0.96875
vt 0.09375 0.90625
vt 0.03125 0.90625
vt 0.15625 0.96875
vt 0.21875 0.96875
vt 0.21875 0.90625
vt 0.15625 0.90625
vt 0.28125 0.96875
vt 0.34375 0.96875
vt 0.34375 0.90625
vt 0.28125 0.90625
vt 0.40625 0.96875
vt 0.46875 0.96875
vt 0.46875 0.90625
vt 0.40625 0.90625
vt 0.53125 0.96875
vt 0.59375 0.96875
vt 0.59375 0.90625
vt 0.53125 0.90625
vt 0.65625 0.96875
vt 0.71875 0.96875
vt 0.71875 0.90625
vt 0.65625 0.90625
vt 0.78125 0.96875
vt 0.84375 0.96875
vt 0.84375 0.90625
vt 0.78125 0.90625
f 1/1/1 9/2/9 10/3/10 2/4/2
f 2/1/2 10/2/10 11/3/11 3/4/3
f 3/1/3 11/2/11 12/3/12 4/4/4
f 4/1/4 12/2/12 13/3/13 5/4/5
f 5/1/5 13/2/13 14/3/14 6/4/6
f 6/1/6 14/2/14 15/3/15 7/4/7
f 7/1/7 15/2/15 16/3/16 8/4/8
f 8/1/8 16/2/16 9/3/9 1/4/1
f 17/1/17 25/2/25 26/3/26 18/4/18
f 18/1/18 26/2/26 27/3/27 19/4/19
f 19/1/19 27/2/27 28/3/28 20/4/20
f 20/1/20 28/2/28 29/3/29 21/4/21
f 21/1/21 29/2/29 30/3/30 22/4/22
f 22/1/22 30/2/30 31/3/31 23/4/23
f 23/1/23 31/2/31 32/3/32 24/4/24
f 24/1/24 32/2/32 25/3/25 17/4/17
f 33/1/33 41/2/41 42/3/42 34/4/34
f 34/1/34 42/2/42 43/3/43 35/4/35
f 35/1/35 43/2/43 44/3/44 36/4/36
f 36/1/36 44/2/44 45/3/45 37/4/37
f 37/1/37 45/2/45 46/3/46 38/4/38
f 38/1/38 46/2/46 47/3/47 39/4/39
f 39/1/39 47/2/47 48/3/48 40/4/40
f 40/1/40 48/2/48 41/3/41 33/4/33
f 49/13/49 61/14/61 62/15/62 50/16/50
f 50/13/50 62/14/62 63/15/63 51/16/51
f 51/13/51 63/14/63 64/15/64 52/16/52
f 52/13/52 64/14/64 65/15/65 53/16/53
f 53/13/53 65/14/65 66/15/66 54/16/54
f 54/13/54 66/14/66 67/15/67 55/16/55
f 55/13/55 67/14/67 68/15/68 56/16/56
f 56/13/56 68/14/68 69/15/69 57/16/57
f 57/13/57 69/14/69 70/15/70 58/16/58
f 58/13/58 70/14/70 71/15/71 59/16/59
f 59/13/59 71/14/71 72/15/72 60/16/60
f 60/13/60 72/14/72 61/15/61 49/16/49
f 74/13/74 75/14/75 73/15/73
f 75/13/75 76/14/76 73/15/73
f 76/13/76 77/14/77 73/15/73
f 77/13/77 78/14/78 73/15/73
f 78/13/78 79/14/79 73/15/73
f 79/13/79 80/14/80 73/15/73
f 80/13/80 81/14/81 73/15/73
f 81/13/81 82/14/82 73/15/73
f 82/13/82 83/14/83 73/15/73
f 83/13/83 84/14/84 73/15/73
f 84/13/84 85/14/85 73/15/73
f 85/13/85 74/14/74 73/15/73
f 88/13/88 87/14/87 86/15/86
f 89/13/89 88/14/88 86/15/86
f 90/13/90 89/14/89 86/15/86
f 91/13/91 90/14/90 86/15/86
f 92/13/92 91/14/91 86/15/86
f 93/13/93 92/14/92 86/15/86
f 94/13/94 93/14/93 86/15/86
f 95/13/95 94/14/94 86/15/86
f 96/13/96 95/14/95 86/15/86
f 97/13/97 96/14/96 86/15/86
f 98/13/98 97/14/97 86/15/86
f 87/13/87 98/14/98 86/15/86
f 99/17/99 111/18/111 112/19/112 100/20/100
f 100/17/100 112/18/112 113/19/113 101/20/101
f 101/17/101 113/18/113 114/19/114 102/20/102
f 102/17/102 114/18/114 115/19/115 103/20/103
f 103/17/103 115/18/115 116/19/116 104/20/104
f 104/17/104 116/18/116 117/19/117 105/20/105
f 105/17/105 117/18/117 118/19/118 106/20/106
f 106/17/106 118/18/118 119/19/119 107/20/107
f 107/17/107 119/18/119 120/19/120 108/20/108
f 108/17/108 120/18/120 121/19/121 109/20/109
f 109/17/109 121/18/121 122/19/122 110/20/110
f 110/17/110 122/18/122 111/19/111 99/20/99
f 124/17/124 125/18/125 123/19/123
f 125/17/125 126/18/126 123/19/123
f 126/17/126 127/18/127 123/19/123
f 127/17/127 128/18/128 123/19/123
f 128/17/128 129/18/129 123/19/123
f 129/17/129 130/18/130 123/19/123
f 130/17/130 131/18/131 123/19/123
f 131/17/131 132/18/132 123/19/123
f 132/17/132 133/18/133 123/19/123
f 133/17/133 134/18/134 123/19/123
f 134/17/134 135/18/135 123/19/123
f 135/17/135 124/18/124 123/19/123
f 138/17/138 137/18/137 136/19/136
f 139/17/139 138/18/138 136/19/136
f 140/17/140 139/18/139 136/19/136
f 141/17/141 140/18/140 136/19/136
f 142/17/142 141/18/141 136/19/136
f 143/17/143 142/18/142 136/19/136
f 144/17/144 143/18/143 136/19/136
f 145/17/145 144/18/144 136/19/136
f 146/17/146 145/18/145 136/19/136
f 147/17/147 146/18/146 136/19/136
f 148/17/148 147/18/147 136/19/136
f 137/17/137 148/18/148 136/19/136
f 149/21/149 155/22/155 156/23/156 150/24/150
f 150/21/150 156/22/156 157/23/157 151/24/151
f 151/21/151 157/22/157 158/23/158 152/24/152
f 152/21/152 158/22/158 159/23/159 153/24/153
f 153/21/153 159/22/159 160/23/160 154/24/154
f 154/21/154 160/22/160 155/23/155 149/24/149
f 162/21/162 163/22/163 161/23/161
f 163/21/163 164/22/164 161/23/161
f 164/21/164 165/22/165 161/23/161
f 165/21/165 166/22/166 161/23/161
f 166/21/166 167/22/167 161/23/161
f 167/21/167 162/22/162 161/23/161
f 170/21/170 169/22/169 168/23/168
f 171/21/171 170/22/170 168/23/168
f 172/21/172 171/22/171 168/23/168
f 173/21/173 172/22/172 168/23/168
f 174/21/174 173/22/173 168/23/168
f 169/21/169 174/22/174 168/23/168
f 175/17/175 187/18/187 188/19/188 176/20/176
f 176/17/176 188/18/188 189/19/189 177/20/177
f 177/17/177 189/18/189 190/19/190 178/20/178
f 178/17/178 190/18/190 191/19/191 179/20/179
f 179/17/179 191/18/191 192/19/192 180/20/180
f 180/17/180 192/18/192 193/19/193 181/20/181
f 181/17/181 193/18/193 194/19/194 182/20/182
f 182/17/182 194/18/194 195/19/195 183/20/183
f 183/17/183 195/18/195 196/19/196 184/20/184
f 184/17/184 196/18/196 197/19/197 185/20/185
f 185/17/185 197/18/197 198/19/198 186/20/186
f 186/17/186 198/18/198 187/19/187 175/20/175
f 200/17/200 201/18/201 199/19/199
f 201/17/201 202/18/202 199/19/199
f 202/17/202 203/18/203 199/19/199
f 203/17/203 204/18/204 199/19/199
f 204/17/204 205/18/205 199/19/199
f 205/17/205 206/18/206 199/19/199
f 206/17/206 207/18/207 199/19/199
f 207/17/207 208/18/208 199/19/199
f 208/17/208 209/18/209 199/19/199
f 209/17/209 210/18/210 199/19/199
f 210/17/210 211/18/211 199/19/199
f 211/17/211 200/18/200 199/19/199
f 214/17/214 213/18/213 212/19/212
f 215/17/215 214/18/214 212/19/212
f 216/17/216 215/18/215 212/19/212
f 217/17/217 216/18/216 212/19/212
f 218/17/218 217/18/217 212/19/212
f 219/17/219 218/18/218 212/19/212
f 220/17/220 219/18/219 212/19/212
f 221/17/221 220/18/220 212/19/212
f 222/17/222 221/18/221 212/19/212
f 223/17/223 222/18/222 212/19/212
f 224/17/224 223/18/223 212/19/212
f 213/17/213 224/18/224 212/19/212
