# AFL Power Cable V2 piece band_y, generated by tools/build-power-cable-v2.mjs
mtllib power_cable.mtl
o band_y
usemtl cable
v 0.623759 0.471875 0.533161
v 0.590598 0.471875 0.590598
v 0.533161 0.471875 0.623759
v 0.466839 0.471875 0.623759
v 0.409402 0.471875 0.590598
v 0.376241 0.471875 0.533161
v 0.376241 0.471875 0.466839
v 0.409402 0.471875 0.409402
v 0.466839 0.471875 0.376241
v 0.533161 0.471875 0.376241
v 0.590598 0.471875 0.409402
v 0.623759 0.471875 0.466839
v 0.623759 0.528125 0.533161
v 0.590598 0.528125 0.590598
v 0.533161 0.528125 0.623759
v 0.466839 0.528125 0.623759
v 0.409402 0.528125 0.590598
v 0.376241 0.528125 0.533161
v 0.376241 0.528125 0.466839
v 0.409402 0.528125 0.409402
v 0.466839 0.528125 0.376241
v 0.533161 0.528125 0.376241
v 0.590598 0.528125 0.409402
v 0.623759 0.528125 0.466839
v 0.5 0.471875 0.5
v 0.623759 0.471875 0.533161
v 0.590598 0.471875 0.590598
v 0.533161 0.471875 0.623759
v 0.466839 0.471875 0.623759
v 0.409402 0.471875 0.590598
v 0.376241 0.471875 0.533161
v 0.376241 0.471875 0.466839
v 0.409402 0.471875 0.409402
v 0.466839 0.471875 0.376241
v 0.533161 0.471875 0.376241
v 0.590598 0.471875 0.409402
v 0.623759 0.471875 0.466839
v 0.5 0.528125 0.5
v 0.623759 0.528125 0.533161
v 0.590598 0.528125 0.590598
v 0.533161 0.528125 0.623759
v 0.466839 0.528125 0.623759
v 0.409402 0.528125 0.590598
v 0.376241 0.528125 0.533161
v 0.376241 0.528125 0.466839
v 0.409402 0.528125 0.409402
v 0.466839 0.528125 0.376241
v 0.533161 0.528125 0.376241
v 0.590598 0.528125 0.409402
v 0.623759 0.528125 0.466839
vn 0.965926 0 0.258819
vn 0.707107 0 0.707107
vn 0.258819 0 0.965926
vn -0.258819 0 0.965926
vn -0.707107 0 0.707107
vn -0.965926 0 0.258819
vn -0.965926 0 -0.258819
vn -0.707107 0 -0.707107
vn -0.258819 0 -0.965926
vn 0.258819 0 -0.965926
vn 0.707107 0 -0.707107
vn 0.965926 0 -0.258819
vn 0.965926 0 0.258819
vn 0.707107 0 0.707107
vn 0.258819 0 0.965926
vn -0.258819 0 0.965926
vn -0.707107 0 0.707107
vn -0.965926 0 0.258819
vn -0.965926 0 -0.258819
vn -0.707107 0 -0.707107
vn -0.258819 0 -0.965926
vn 0.258819 0 -0.965926
vn 0.707107 0 -0.707107
vn 0.965926 0 -0.258819
vn 0 -1 0
vn 0 -1 0
vn 0 -1 0
vn 0 -1 0
vn 0 -1 0
vn 0 -1 0
vn 0 -1 0
vn 0 -1 0
vn 0 -1 0
vn 0 -1 0
vn 0 -1 0
vn 0 -1 0
vn 0 -1 0
vn 0 1 0
vn 0 1 0
vn 0 1 0
vn 0 1 0
vn 0 1 0
vn 0 1 0
vn 0 1 0
vn 0 1 0
vn 0 1 0
vn 0 1 0
vn 0 1 0
vn 0 1 0
vn 0 1 0
vt 0.0625 0.9375
vt 0.1875 0.9375
vt 0.3125 0.9375
vt 0.4375 0.9375
vt 0.5625 0.9375
vt 0.6875 0.9375
vt 0.8125 0.9375
f 1/2/1 13/2/13 14/2/14 2/2/2
f 2/2/2 14/2/14 15/2/15 3/2/3
f 3/2/3 15/2/15 16/2/16 4/2/4
f 4/2/4 16/2/16 17/2/17 5/2/5
f 5/2/5 17/2/17 18/2/18 6/2/6
f 6/2/6 18/2/18 19/2/19 7/2/7
f 7/2/7 19/2/19 20/2/20 8/2/8
f 8/2/8 20/2/20 21/2/21 9/2/9
f 9/2/9 21/2/21 22/2/22 10/2/10
f 10/2/10 22/2/22 23/2/23 11/2/11
f 11/2/11 23/2/23 24/2/24 12/2/12
f 12/2/12 24/2/24 13/2/13 1/2/1
f 26/2/26 27/2/27 25/2/25
f 27/2/27 28/2/28 25/2/25
f 28/2/28 29/2/29 25/2/25
f 29/2/29 30/2/30 25/2/25
f 30/2/30 31/2/31 25/2/25
f 31/2/31 32/2/32 25/2/25
f 32/2/32 33/2/33 25/2/25
f 33/2/33 34/2/34 25/2/25
f 34/2/34 35/2/35 25/2/25
f 35/2/35 36/2/36 25/2/25
f 36/2/36 37/2/37 25/2/25
f 37/2/37 26/2/26 25/2/25
f 40/2/40 39/2/39 38/2/38
f 41/2/41 40/2/40 38/2/38
f 42/2/42 41/2/41 38/2/38
f 43/2/43 42/2/42 38/2/38
f 44/2/44 43/2/43 38/2/38
f 45/2/45 44/2/44 38/2/38
f 46/2/46 45/2/45 38/2/38
f 47/2/47 46/2/46 38/2/38
f 48/2/48 47/2/47 38/2/38
f 49/2/49 48/2/48 38/2/38
f 50/2/50 49/2/49 38/2/38
f 39/2/39 50/2/50 38/2/38
