# AFL Power Cable V2 piece band_x, generated by tools/build-power-cable-v2.mjs
mtllib power_cable.mtl
o band_x
usemtl cable
v 0.471875 0.533161 0.623759
v 0.471875 0.590598 0.590598
v 0.471875 0.623759 0.533161
v 0.471875 0.623759 0.466839
v 0.471875 0.590598 0.409402
v 0.471875 0.533161 0.376241
v 0.471875 0.466839 0.376241
v 0.471875 0.409402 0.409402
v 0.471875 0.376241 0.466839
v 0.471875 0.376241 0.533161
v 0.471875 0.409402 0.590598
v 0.471875 0.466839 0.623759
v 0.528125 0.533161 0.623759
v 0.528125 0.590598 0.590598
v 0.528125 0.623759 0.533161
v 0.528125 0.623759 0.466839
v 0.528125 0.590598 0.409402
v 0.528125 0.533161 0.376241
v 0.528125 0.466839 0.376241
v 0.528125 0.409402 0.409402
v 0.528125 0.376241 0.466839
v 0.528125 0.376241 0.533161
v 0.528125 0.409402 0.590598
v 0.528125 0.466839 0.623759
v 0.471875 0.5 0.5
v 0.471875 0.533161 0.623759
v 0.471875 0.590598 0.590598
v 0.471875 0.623759 0.533161
v 0.471875 0.623759 0.466839
v 0.471875 0.590598 0.409402
v 0.471875 0.533161 0.376241
v 0.471875 0.466839 0.376241
v 0.471875 0.409402 0.409402
v 0.471875 0.376241 0.466839
v 0.471875 0.376241 0.533161
v 0.471875 0.409402 0.590598
v 0.471875 0.466839 0.623759
v 0.528125 0.5 0.5
v 0.528125 0.533161 0.623759
v 0.528125 0.590598 0.590598
v 0.528125 0.623759 0.533161
v 0.528125 0.623759 0.466839
v 0.528125 0.590598 0.409402
v 0.528125 0.533161 0.376241
v 0.528125 0.466839 0.376241
v 0.528125 0.409402 0.409402
v 0.528125 0.376241 0.466839
v 0.528125 0.376241 0.533161
v 0.528125 0.409402 0.590598
v 0.528125 0.466839 0.623759
vn 0 0.258819 0.965926
vn 0 0.707107 0.707107
vn 0 0.965926 0.258819
vn 0 0.965926 -0.258819
vn 0 0.707107 -0.707107
vn 0 0.258819 -0.965926
vn 0 -0.258819 -0.965926
vn 0 -0.707107 -0.707107
vn 0 -0.965926 -0.258819
vn 0 -0.965926 0.258819
vn 0 -0.707107 0.707107
vn 0 -0.258819 0.965926
vn 0 0.258819 0.965926
vn 0 0.707107 0.707107
vn 0 0.965926 0.258819
vn 0 0.965926 -0.258819
vn 0 0.707107 -0.707107
vn 0 0.258819 -0.965926
vn 0 -0.258819 -0.965926
vn 0 -0.707107 -0.707107
vn 0 -0.965926 -0.258819
vn 0 -0.965926 0.258819
vn 0 -0.707107 0.707107
vn 0 -0.258819 0.965926
vn -1 0 0
vn -1 0 0
vn -1 0 0
vn -1 0 0
vn -1 0 0
vn -1 0 0
vn -1 0 0
vn -1 0 0
vn -1 0 0
vn -1 0 0
vn -1 0 0
vn -1 0 0
vn -1 0 0
vn 1 0 0
vn 1 0 0
vn 1 0 0
vn 1 0 0
vn 1 0 0
vn 1 0 0
vn 1 0 0
vn 1 0 0
vn 1 0 0
vn 1 0 0
vn 1 0 0
vn 1 0 0
vn 1 0 0
vt 0.03125 0.96875
vt 0.09375 0.96875
vt 0.09375 0.90625
vt 0.03125 0.90625
vt 0.15625 0.96875
vt 0.21875 0.96875
vt 0.21875 0.90625
vt 0.15625 0.90625
vt 0.28125 0.96875
vt 0.34375 0.96875
vt 0.34375 0.90625
vt 0.28125 0.90625
vt 0.40625 0.96875
vt 0.46875 0.96875
vt 0.46875 0.90625
vt 0.40625 0.90625
vt 0.53125 0.96875
vt 0.59375 0.96875
vt 0.59375 0.90625
vt 0.53125 0.90625
vt 0.65625 0.96875
vt 0.71875 0.96875
vt 0.71875 0.90625
vt 0.65625 0.90625
vt 0.78125 0.96875
vt 0.84375 0.96875
vt 0.84375 0.90625
vt 0.78125 0.90625
f 1/5/1 13/6/13 14/7/14 2/8/2
f 2/5/2 14/6/14 15/7/15 3/8/3
f 3/5/3 15/6/15 16/7/16 4/8/4
f 4/5/4 16/6/16 17/7/17 5/8/5
f 5/5/5 17/6/17 18/7/18 6/8/6
f 6/5/6 18/6/18 19/7/19 7/8/7
f 7/5/7 19/6/19 20/7/20 8/8/8
f 8/5/8 20/6/20 21/7/21 9/8/9
f 9/5/9 21/6/21 22/7/22 10/8/10
f 10/5/10 22/6/22 23/7/23 11/8/11
f 11/5/11 23/6/23 24/7/24 12/8/12
f 12/5/12 24/6/24 13/7/13 1/8/1
f 26/5/26 27/6/27 25/7/25
f 27/5/27 28/6/28 25/7/25
f 28/5/28 29/6/29 25/7/25
f 29/5/29 30/6/30 25/7/25
f 30/5/30 31/6/31 25/7/25
f 31/5/31 32/6/32 25/7/25
f 32/5/32 33/6/33 25/7/25
f 33/5/33 34/6/34 25/7/25
f 34/5/34 35/6/35 25/7/25
f 35/5/35 36/6/36 25/7/25
f 36/5/36 37/6/37 25/7/25
f 37/5/37 26/6/26 25/7/25
f 40/5/40 39/6/39 38/7/38
f 41/5/41 40/6/40 38/7/38
f 42/5/42 41/6/41 38/7/38
f 43/5/43 42/6/42 38/7/38
f 44/5/44 43/6/43 38/7/38
f 45/5/45 44/6/44 38/7/38
f 46/5/46 45/6/45 38/7/38
f 47/5/47 46/6/46 38/7/38
f 48/5/48 47/6/47 38/7/38
f 49/5/49 48/6/48 38/7/38
f 50/5/50 49/6/49 38/7/38
f 39/5/39 50/6/50 38/7/38
