# AFL Power Cable V2 piece band_z, generated by tools/build-power-cable-v2.mjs
mtllib power_cable.mtl
o band_z
usemtl cable
v 0.623759 0.533161 0.471875
v 0.590598 0.590598 0.471875
v 0.533161 0.623759 0.471875
v 0.466839 0.623759 0.471875
v 0.409402 0.590598 0.471875
v 0.376241 0.533161 0.471875
v 0.376241 0.466839 0.471875
v 0.409402 0.409402 0.471875
v 0.466839 0.376241 0.471875
v 0.533161 0.376241 0.471875
v 0.590598 0.409402 0.471875
v 0.623759 0.466839 0.471875
v 0.623759 0.533161 0.528125
v 0.590598 0.590598 0.528125
v 0.533161 0.623759 0.528125
v 0.466839 0.623759 0.528125
v 0.409402 0.590598 0.528125
v 0.376241 0.533161 0.528125
v 0.376241 0.466839 0.528125
v 0.409402 0.409402 0.528125
v 0.466839 0.376241 0.528125
v 0.533161 0.376241 0.528125
v 0.590598 0.409402 0.528125
v 0.623759 0.466839 0.528125
v 0.5 0.5 0.471875
v 0.623759 0.533161 0.471875
v 0.590598 0.590598 0.471875
v 0.533161 0.623759 0.471875
v 0.466839 0.623759 0.471875
v 0.409402 0.590598 0.471875
v 0.376241 0.533161 0.471875
v 0.376241 0.466839 0.471875
v 0.409402 0.409402 0.471875
v 0.466839 0.376241 0.471875
v 0.533161 0.376241 0.471875
v 0.590598 0.409402 0.471875
v 0.623759 0.466839 0.471875
v 0.5 0.5 0.528125
v 0.623759 0.533161 0.528125
v 0.590598 0.590598 0.528125
v 0.533161 0.623759 0.528125
v 0.466839 0.623759 0.528125
v 0.409402 0.590598 0.528125
v 0.376241 0.533161 0.528125
v 0.376241 0.466839 0.528125
v 0.409402 0.409402 0.528125
v 0.466839 0.376241 0.528125
v 0.533161 0.376241 0.528125
v 0.590598 0.409402 0.528125
v 0.623759 0.466839 0.528125
vn 0.965926 0.258819 0
vn 0.707107 0.707107 0
vn 0.258819 0.965926 0
vn -0.258819 0.965926 0
vn -0.707107 0.707107 0
vn -0.965926 0.258819 0
vn -0.965926 -0.258819 0
vn -0.707107 -0.707107 0
vn -0.258819 -0.965926 0
vn 0.258819 -0.965926 0
vn 0.707107 -0.707107 0
vn 0.965926 -0.258819 0
vn 0.965926 0.258819 0
vn 0.707107 0.707107 0
vn 0.258819 0.965926 0
vn -0.258819 0.965926 0
vn -0.707107 0.707107 0
vn -0.965926 0.258819 0
vn -0.965926 -0.258819 0
vn -0.707107 -0.707107 0
vn -0.258819 -0.965926 0
vn 0.258819 -0.965926 0
vn 0.707107 -0.707107 0
vn 0.965926 -0.258819 0
vn 0 0 -1
vn 0 0 -1
vn 0 0 -1
vn 0 0 -1
vn 0 0 -1
vn 0 0 -1
vn 0 0 -1
vn 0 0 -1
vn 0 0 -1
vn 0 0 -1
vn 0 0 -1
vn 0 0 -1
vn 0 0 -1
vn 0 0 1
vn 0 0 1
vn 0 0 1
vn 0 0 1
vn 0 0 1
vn 0 0 1
vn 0 0 1
vn 0 0 1
vn 0 0 1
vn 0 0 1
vn 0 0 1
vn 0 0 1
vn 0 0 1
vt 0.03125 0.96875
vt 0.09375 0.96875
vt 0.09375 0.90625
vt 0.03125 0.90625
vt 0.15625 0.96875
vt 0.21875 0.96875
vt 0.21875 0.90625
vt 0.15625 0.90625
vt 0.28125 0.96875
vt 0.34375 0.96875
vt 0.34375 0.90625
vt 0.28125 0.90625
vt 0.40625 0.96875
vt 0.46875 0.96875
vt 0.46875 0.90625
vt 0.40625 0.90625
vt 0.53125 0.96875
vt 0.59375 0.96875
vt 0.59375 0.90625
vt 0.53125 0.90625
vt 0.65625 0.96875
vt 0.71875 0.96875
vt 0.71875 0.90625
vt 0.65625 0.90625
vt 0.78125 0.96875
vt 0.84375 0.96875
vt 0.84375 0.90625
vt 0.78125 0.90625
f 2/5/2 14/6/14 13/7/13 1/8/1
f 3/5/3 15/6/15 14/7/14 2/8/2
f 4/5/4 16/6/16 15/7/15 3/8/3
f 5/5/5 17/6/17 16/7/16 4/8/4
f 6/5/6 18/6/18 17/7/17 5/8/5
f 7/5/7 19/6/19 18/7/18 6/8/6
f 8/5/8 20/6/20 19/7/19 7/8/7
f 9/5/9 21/6/21 20/7/20 8/8/8
f 10/5/10 22/6/22 21/7/21 9/8/9
f 11/5/11 23/6/23 22/7/22 10/8/10
f 12/5/12 24/6/24 23/7/23 11/8/11
f 1/5/1 13/6/13 24/7/24 12/8/12
f 25/5/25 27/6/27 26/7/26
f 25/5/25 28/6/28 27/7/27
f 25/5/25 29/6/29 28/7/28
f 25/5/25 30/6/30 29/7/29
f 25/5/25 31/6/31 30/7/30
f 25/5/25 32/6/32 31/7/31
f 25/5/25 33/6/33 32/7/32
f 25/5/25 34/6/34 33/7/33
f 25/5/25 35/6/35 34/7/34
f 25/5/25 36/6/36 35/7/35
f 25/5/25 37/6/37 36/7/36
f 25/5/25 26/6/26 37/7/37
f 38/5/38 39/6/39 40/7/40
f 38/5/38 40/6/40 41/7/41
f 38/5/38 41/6/41 42/7/42
f 38/5/38 42/6/42 43/7/43
f 38/5/38 43/6/43 44/7/44
f 38/5/38 44/6/44 45/7/45
f 38/5/38 45/6/45 46/7/46
f 38/5/38 46/6/46 47/7/47
f 38/5/38 47/6/47 48/7/48
f 38/5/38 48/6/48 49/7/49
f 38/5/38 49/6/49 50/7/50
f 38/5/38 50/6/50 39/7/39
