# AFL Power Cable V2 piece bend_down_west, generated by tools/build-power-cable-v2.mjs
mtllib power_cable.mtl
o bend_down_west
usemtl cable
v 0.549081 0 0.581674
v 0.52033 0 0.610425
v 0.47967 0 0.610425
v 0.450919 0 0.581674
v 0.450919 0 0.541013
v 0.47967 0 0.512262
v 0.52033 0 0.512262
v 0.549081 0 0.541013
v 0.533189 0.106058 0.584709
v 0.503206 0.100094 0.611518
v 0.463413 0.092178 0.608858
v 0.437119 0.086948 0.578289
v 0.439727 0.087467 0.537716
v 0.469709 0.093431 0.510906
v 0.509503 0.101346 0.513566
v 0.535797 0.106577 0.544136
v 0.497048 0.205884 0.587381
v 0.467245 0.193539 0.612133
v 0.430002 0.178113 0.606826
v 0.407134 0.16864 0.574568
v 0.412037 0.170671 0.534256
v 0.441839 0.183016 0.509504
v 0.479083 0.198443 0.514811
v 0.501951 0.207915 0.547069
v 0.442512 0.295677 0.589679
v 0.414402 0.276894 0.612269
v 0.381244 0.254739 0.604337
v 0.362461 0.242189 0.570529
v 0.369057 0.246596 0.53065
v 0.397167 0.265378 0.508061
v 0.430325 0.287534 0.515993
v 0.449107 0.300084 0.549801
v 0.372129 0.372129 0.591594
v 0.34723 0.34723 0.611924
v 0.319459 0.319459 0.6014
v 0.305083 0.305083 0.566187
v 0.312524 0.312524 0.526913
v 0.337424 0.337424 0.506583
v 0.365195 0.365195 0.517106
v 0.37957 0.37957 0.552319
v 0.289021 0.43255 0.593116
v 0.268761 0.402229 0.611099
v 0.24737 0.370215 0.598029
v 0.237379 0.355262 0.561563
v 0.24464 0.36613 0.52306
v 0.2649 0.396451 0.505077
v 0.286291 0.428464 0.518146
v 0.296282 0.443417 0.554613
v 0.196734 0.474957 0.594239
v 0.182358 0.440252 0.609799
v 0.167983 0.405546 0.594239
v 0.162028 0.39117 0.556674
v 0.167983 0.405546 0.519109
v 0.182358 0.440252 0.503549
v 0.196734 0.474957 0.519109
v 0.202688 0.489333 0.556674
v 0.099086 0.498137 0.594959
v 0.091574 0.460375 0.608029
v 0.08446 0.424608 0.590045
v 0.08191 0.41179 0.551543
v 0.085418 0.429428 0.515076
v 0.09293 0.46719 0.502006
v 0.100044 0.502956 0.51999
v 0.102594 0.515775 0.558492
v 0 0.501669 0.595272
v 0 0.462394 0.605796
v 0 0.427181 0.585465
v 0 0.416658 0.546191
v 0 0.436988 0.510978
v 0 0.476262 0.500454
v 0 0.511475 0.520785
v 0 0.521999 0.560059
v 0.495956 0 0.489658
v 0.467205 0 0.518409
v 0.426545 0 0.518409
v 0.397794 0 0.489658
v 0.397794 0 0.448998
v 0.426545 0 0.420247
v 0.467205 0 0.420247
v 0.495956 0 0.448998
v 0.487098 0.09689 0.489416
v 0.457116 0.090926 0.516225
v 0.417322 0.083011 0.513566
v 0.391028 0.07778 0.482996
v 0.393637 0.078299 0.442423
v 0.423619 0.084263 0.415614
v 0.463413 0.092178 0.418273
v 0.489707 0.097409 0.448843
v 0.459483 0.190324 0.489219
v 0.42968 0.177979 0.513971
v 0.392437 0.162553 0.508664
v 0.369569 0.15308 0.476406
v 0.374472 0.155111 0.436094
v 0.404274 0.167456 0.411342
v 0.441518 0.182883 0.416649
v 0.464386 0.192355 0.448907
v 0.414115 0.276703 0.489068
v 0.386005 0.25792 0.511658
v 0.352846 0.235764 0.503725
v 0.334064 0.223214 0.469918
v 0.34066 0.227621 0.430039
v 0.36877 0.246404 0.407449
v 0.401928 0.268559 0.415382
v 0.42071 0.28111 0.449189
v 0.352684 0.352684 0.488964
v 0.327785 0.327785 0.509294
v 0.300014 0.300014 0.498771
v 0.285638 0.285638 0.463558
v 0.293079 0.293079 0.424283
v 0.317978 0.317978 0.403953
v 0.34575 0.34575 0.414477
v 0.360125 0.360125 0.449689
v 0.277505 0.415315 0.488907
v 0.257245 0.384994 0.506891
v 0.235854 0.35298 0.493821
v 0.225863 0.338027 0.457354
v 0.233124 0.348895 0.418852
v 0.253384 0.379216 0.400868
v 0.274775 0.411229 0.413938
v 0.284766 0.426182 0.450405
v 0.191426 0.462144 0.488898
v 0.177051 0.427439 0.504458
v 0.162675 0.392733 0.488898
v 0.156721 0.378358 0.451333
v 0.162675 0.392733 0.413768
v 0.177051 0.427439 0.398208
v 0.191426 0.462144 0.413768
v 0.197381 0.47652 0.451333
v 0.09773 0.491322 0.488936
v 0.090219 0.453559 0.502006
v 0.083104 0.417793 0.484023
v 0.080554 0.404974 0.44552
v 0.084063 0.422612 0.409053
v 0.091574 0.460375 0.395984
v 0.098689 0.496141 0.413967
v 0.101238 0.50896 0.452469
v 0 0.501669 0.489022
v 0 0.462394 0.499546
v 0 0.427181 0.479215
v 0 0.416658 0.439941
v 0 0.436988 0.404728
v 0 0.476262 0.394204
v 0 0.511475 0.414535
v 0 0.521999 0.453809
v 0.602206 0 0.489658
v 0.573455 0 0.518409
v 0.532795 0 0.518409
v 0.504044 0 0.489658
v 0.504044 0 0.448998
v 0.532795 0 0.420247
v 0.573455 0 0.420247
v 0.602206 0 0.448998
v 0.591084 0.117574 0.496365
v 0.561101 0.11161 0.523174
v 0.521308 0.103695 0.520515
v 0.495014 0.098464 0.489945
v 0.497622 0.098983 0.449372
v 0.527604 0.104947 0.422563
v 0.567398 0.112862 0.425222
v 0.593692 0.118093 0.455792
v 0.556805 0.230636 0.503087
v 0.527003 0.218292 0.52784
v 0.489759 0.202865 0.522532
v 0.466891 0.193393 0.490275
v 0.471794 0.195424 0.449962
v 0.501597 0.207768 0.42521
v 0.53884 0.223195 0.430517
v 0.561708 0.232667 0.462775
v 0.500761 0.334598 0.509796
v 0.472651 0.315815 0.532386
v 0.439493 0.29366 0.524454
v 0.42071 0.28111 0.490646
v 0.427306 0.285517 0.450767
v 0.455416 0.304299 0.428178
v 0.488574 0.326455 0.43611
v 0.507356 0.339005 0.469918
v 0.425254 0.425254 0.516464
v 0.400355 0.400355 0.536794
v 0.372584 0.372584 0.52627
v 0.358208 0.358208 0.491057
v 0.365649 0.365649 0.451783
v 0.390549 0.390549 0.431453
v 0.41832 0.41832 0.441976
v 0.432695 0.432695 0.477189
v 0.333401 0.49897 0.52306
v 0.313141 0.468649 0.541044
v 0.29175 0.436635 0.527974
v 0.281759 0.421683 0.491507
v 0.289021 0.43255 0.453005
v 0.309281 0.462871 0.435021
v 0.330671 0.494884 0.448091
v 0.340662 0.509837 0.484558
v 0.228992 0.552834 0.529558
v 0.214616 0.518129 0.545118
v 0.20024 0.483423 0.529558
v 0.194286 0.469048 0.491993
v 0.20024 0.483423 0.454428
v 0.214616 0.518129 0.438868
v 0.228992 0.552834 0.454428
v 0.234946 0.56721 0.491993
v 0.116321 0.584783 0.535929
v 0.108809 0.547021 0.548999
v 0.101695 0.511255 0.531016
v 0.099145 0.498436 0.492513
v 0.102653 0.516074 0.456046
v 0.110165 0.553836 0.442977
v 0.117279 0.589603 0.46096
v 0.119829 0.602421 0.499462
v 0 0.593684 0.542147
v 0 0.554409 0.552671
v 0 0.519197 0.53234
v 0 0.508673 0.493066
v 0 0.529003 0.457853
v 0 0.568278 0.447329
v 0 0.60349 0.46766
v 0 0.614014 0.506934
v 0.349992 0.310218 0.376241
v 0.309378 0.269604 0.409402
v 0.28593 0.246155 0.466839
v 0.28593 0.246155 0.533161
v 0.309378 0.269604 0.590598
v 0.349992 0.310218 0.623759
v 0.396889 0.357115 0.623759
v 0.437503 0.397729 0.590598
v 0.460952 0.421177 0.533161
v 0.460952 0.421177 0.466839
v 0.437503 0.397729 0.409402
v 0.396889 0.357115 0.376241
v 0.310218 0.349992 0.376241
v 0.269604 0.309378 0.409402
v 0.246155 0.28593 0.466839
v 0.246155 0.28593 0.533161
v 0.269604 0.309378 0.590598
v 0.310218 0.349992 0.623759
v 0.357115 0.396889 0.623759
v 0.397729 0.437503 0.590598
v 0.421177 0.460952 0.533161
v 0.421177 0.460952 0.466839
v 0.397729 0.437503 0.409402
v 0.357115 0.396889 0.376241
v 0.373441 0.333666 0.5
v 0.349992 0.310218 0.376241
v 0.309378 0.269604 0.409402
v 0.28593 0.246155 0.466839
v 0.28593 0.246155 0.533161
v 0.309378 0.269604 0.590598
v 0.349992 0.310218 0.623759
v 0.396889 0.357115 0.623759
v 0.437503 0.397729 0.590598
v 0.460952 0.421177 0.533161
v 0.460952 0.421177 0.466839
v 0.437503 0.397729 0.409402
v 0.396889 0.357115 0.376241
v 0.333666 0.373441 0.5
v 0.310218 0.349992 0.376241
v 0.269604 0.309378 0.409402
v 0.246155 0.28593 0.466839
v 0.246155 0.28593 0.533161
v 0.269604 0.309378 0.590598
v 0.310218 0.349992 0.623759
v 0.357115 0.396889 0.623759
v 0.397729 0.437503 0.590598
v 0.421177 0.460952 0.533161
v 0.421177 0.460952 0.466839
v 0.397729 0.437503 0.409402
v 0.357115 0.396889 0.376241
vn 0.92388 0 0.382683
vn 0.382683 0 0.92388
vn -0.382683 0 0.92388
vn -0.92388 0 0.382683
vn -0.92388 0 -0.382683
vn -0.382683 0 -0.92388
vn 0.382683 0 -0.92388
vn 0.92388 0 -0.382683
vn 0.87964 0.174971 0.442289
vn 0.315263 0.06271 0.94693
vn -0.43379 -0.086286 0.896873
vn -0.928735 -0.184737 0.321439
vn -0.87964 -0.174971 -0.442289
vn -0.315263 -0.06271 -0.94693
vn 0.43379 0.086286 -0.896873
vn 0.928735 0.184737 -0.321439
vn 0.800103 0.331414 0.5
vn 0.239118 0.099046 0.965926
vn -0.46194 -0.191342 0.866025
vn -0.892399 -0.369644 0.258819
vn -0.800103 -0.331414 -0.5
vn -0.239118 -0.099046 -0.965926
vn 0.46194 0.191342 -0.866025
vn 0.892399 0.369644 -0.258819
vn 0.691342 0.46194 0.55557
vn 0.162212 0.108386 0.980785
vn -0.46194 -0.308658 0.83147
vn -0.815493 -0.544895 0.19509
vn -0.691342 -0.46194 -0.55557
vn -0.162212 -0.108386 -0.980785
vn 0.46194 0.308658 -0.83147
vn 0.815493 0.544895 -0.19509
vn 0.560986 0.560986 0.608761
vn 0.092296 0.092296 0.991445
vn -0.430459 -0.430459 0.793353
vn -0.701057 -0.701057 0.130526
vn -0.560986 -0.560986 -0.608761
vn -0.092296 -0.092296 -0.991445
vn 0.430459 0.430459 -0.793353
vn 0.701057 0.701057 -0.130526
vn 0.4177 0.625132 0.659346
vn 0.036336 0.054381 0.997859
vn -0.366313 -0.548226 0.75184
vn -0.554381 -0.829689 0.065403
vn -0.4177 -0.625132 -0.659346
vn -0.036336 -0.054381 -0.997859
vn 0.366313 0.548226 -0.75184
vn 0.554381 0.829689 -0.065403
vn 0.270598 0.653281 0.707107
vn 0 0 1
vn -0.270598 -0.653281 0.707107
vn -0.382683 -0.92388 0
vn -0.270598 -0.653281 -0.707107
vn 0 0 -1
vn 0.270598 0.653281 -0.707107
vn 0.382683 0.92388 0
vn 0.128632 0.646677 0.75184
vn -0.01276 -0.064146 0.997859
vn -0.146677 -0.737393 0.659346
vn -0.194673 -0.978685 -0.065403
vn -0.128632 -0.646677 -0.75184
vn 0.01276 0.064146 -0.997859
vn 0.146677 0.737393 -0.659346
vn 0.194673 0.978685 0.065403
vn 0 0.608761 0.793353
vn 0 -0.130526 0.991445
vn 0 -0.793353 0.608761
vn 0 -0.991445 -0.130526
vn 0 -0.608761 -0.793353
vn 0 0.130526 -0.991445
vn 0 0.793353 -0.608761
vn 0 0.991445 0.130526
vn 0.92388 0 0.382683
vn 0.382683 0 0.92388
vn -0.382683 0 0.92388
vn -0.92388 0 0.382683
vn -0.92388 0 -0.382683
vn -0.382683 0 -0.92388
vn 0.382683 0 -0.92388
vn 0.92388 0 -0.382683
vn 0.87964 0.174971 0.442289
vn 0.315263 0.06271 0.94693
vn -0.43379 -0.086286 0.896873
vn -0.928735 -0.184737 0.321439
vn -0.87964 -0.174971 -0.442289
vn -0.315263 -0.06271 -0.94693
vn 0.43379 0.086286 -0.896873
vn 0.928735 0.184737 -0.321439
vn 0.800103 0.331414 0.5
vn 0.239118 0.099046 0.965926
vn -0.46194 -0.191342 0.866025
vn -0.892399 -0.369644 0.258819
vn -0.800103 -0.331414 -0.5
vn -0.239118 -0.099046 -0.965926
vn 0.46194 0.191342 -0.866025
vn 0.892399 0.369644 -0.258819
vn 0.691342 0.46194 0.55557
vn 0.162212 0.108386 0.980785
vn -0.46194 -0.308658 0.83147
vn -0.815493 -0.544895 0.19509
vn -0.691342 -0.46194 -0.55557
vn -0.162212 -0.108386 -0.980785
vn 0.46194 0.308658 -0.83147
vn 0.815493 0.544895 -0.19509
vn 0.560986 0.560986 0.608761
vn 0.092296 0.092296 0.991445
vn -0.430459 -0.430459 0.793353
vn -0.701057 -0.701057 0.130526
vn -0.560986 -0.560986 -0.608761
vn -0.092296 -0.092296 -0.991445
vn 0.430459 0.430459 -0.793353
vn 0.701057 0.701057 -0.130526
vn 0.4177 0.625132 0.659346
vn 0.036336 0.054381 0.997859
vn -0.366313 -0.548226 0.75184
vn -0.554381 -0.829689 0.065403
vn -0.4177 -0.625132 -0.659346
vn -0.036336 -0.054381 -0.997859
vn 0.366313 0.548226 -0.75184
vn 0.554381 0.829689 -0.065403
vn 0.270598 0.653281 0.707107
vn 0 0 1
vn -0.270598 -0.653281 0.707107
vn -0.382683 -0.92388 0
vn -0.270598 -0.653281 -0.707107
vn 0 0 -1
vn 0.270598 0.653281 -0.707107
vn 0.382683 0.92388 0
vn 0.128632 0.646677 0.75184
vn -0.01276 -0.064146 0.997859
vn -0.146677 -0.737393 0.659346
vn -0.194673 -0.978685 -0.065403
vn -0.128632 -0.646677 -0.75184
vn 0.01276 0.064146 -0.997859
vn 0.146677 0.737393 -0.659346
vn 0.194673 0.978685 0.065403
vn 0 0.608761 0.793353
vn 0 -0.130526 0.991445
vn 0 -0.793353 0.608761
vn 0 -0.991445 -0.130526
vn 0 -0.608761 -0.793353
vn 0 0.130526 -0.991445
vn 0 0.793353 -0.608761
vn 0 0.991445 0.130526
vn 0.92388 0 0.382683
vn 0.382683 0 0.92388
vn -0.382683 0 0.92388
vn -0.92388 0 0.382683
vn -0.92388 0 -0.382683
vn -0.382683 0 -0.92388
vn 0.382683 0 -0.92388
vn 0.92388 0 -0.382683
vn 0.87964 0.174971 0.442289
vn 0.315263 0.06271 0.94693
vn -0.43379 -0.086286 0.896873
vn -0.928735 -0.184737 0.321439
vn -0.87964 -0.174971 -0.442289
vn -0.315263 -0.06271 -0.94693
vn 0.43379 0.086286 -0.896873
vn 0.928735 0.184737 -0.321439
vn 0.800103 0.331414 0.5
vn 0.239118 0.099046 0.965926
vn -0.46194 -0.191342 0.866025
vn -0.892399 -0.369644 0.258819
vn -0.800103 -0.331414 -0.5
vn -0.239118 -0.099046 -0.965926
vn 0.46194 0.191342 -0.866025
vn 0.892399 0.369644 -0.258819
vn 0.691342 0.46194 0.55557
vn 0.162212 0.108386 0.980785
vn -0.46194 -0.308658 0.83147
vn -0.815493 -0.544895 0.19509
vn -0.691342 -0.46194 -0.55557
vn -0.162212 -0.108386 -0.980785
vn 0.46194 0.308658 -0.83147
vn 0.815493 0.544895 -0.19509
vn 0.560986 0.560986 0.608761
vn 0.092296 0.092296 0.991445
vn -0.430459 -0.430459 0.793353
vn -0.701057 -0.701057 0.130526
vn -0.560986 -0.560986 -0.608761
vn -0.092296 -0.092296 -0.991445
vn 0.430459 0.430459 -0.793353
vn 0.701057 0.701057 -0.130526
vn 0.4177 0.625132 0.659346
vn 0.036336 0.054381 0.997859
vn -0.366313 -0.548226 0.75184
vn -0.554381 -0.829689 0.065403
vn -0.4177 -0.625132 -0.659346
vn -0.036336 -0.054381 -0.997859
vn 0.366313 0.548226 -0.75184
vn 0.554381 0.829689 -0.065403
vn 0.270598 0.653281 0.707107
vn 0 0 1
vn -0.270598 -0.653281 0.707107
vn -0.382683 -0.92388 0
vn -0.270598 -0.653281 -0.707107
vn 0 0 -1
vn 0.270598 0.653281 -0.707107
vn 0.382683 0.92388 0
vn 0.128632 0.646677 0.75184
vn -0.01276 -0.064146 0.997859
vn -0.146677 -0.737393 0.659346
vn -0.194673 -0.978685 -0.065403
vn -0.128632 -0.646677 -0.75184
vn 0.01276 0.064146 -0.997859
vn 0.146677 0.737393 -0.659346
vn 0.194673 0.978685 0.065403
vn 0 0.608761 0.793353
vn 0 -0.130526 0.991445
vn 0 -0.793353 0.608761
vn 0 -0.991445 -0.130526
vn 0 -0.608761 -0.793353
vn 0 0.130526 -0.991445
vn 0 0.793353 -0.608761
vn 0 0.991445 0.130526
vn -0.183013 -0.183013 -0.965926
vn -0.5 -0.5 -0.707107
vn -0.683013 -0.683013 -0.258819
vn -0.683013 -0.683013 0.258819
vn -0.5 -0.5 0.707107
vn -0.183013 -0.183013 0.965926
vn 0.183013 0.183013 0.965926
vn 0.5 0.5 0.707107
vn 0.683013 0.683013 0.258819
vn 0.683013 0.683013 -0.258819
vn 0.5 0.5 -0.707107
vn 0.183013 0.183013 -0.965926
vn -0.183013 -0.183013 -0.965926
vn -0.5 -0.5 -0.707107
vn -0.683013 -0.683013 -0.258819
vn -0.683013 -0.683013 0.258819
vn -0.5 -0.5 0.707107
vn -0.183013 -0.183013 0.965926
vn 0.183013 0.183013 0.965926
vn 0.5 0.5 0.707107
vn 0.683013 0.683013 0.258819
vn 0.683013 0.683013 -0.258819
vn 0.5 0.5 -0.707107
vn 0.183013 0.183013 -0.965926
vn 0.707107 -0.707107 0
vn 0.707107 -0.707107 0
vn 0.707107 -0.707107 0
vn 0.707107 -0.707107 0
vn 0.707107 -0.707107 0
vn 0.707107 -0.707107 0
vn 0.707107 -0.707107 0
vn 0.707107 -0.707107 0
vn 0.707107 -0.707107 0
vn 0.707107 -0.707107 0
vn 0.707107 -0.707107 0
vn 0.707107 -0.707107 0
vn 0.707107 -0.707107 0
vn -0.707107 0.707107 0
vn -0.707107 0.707107 0
vn -0.707107 0.707107 0
vn -0.707107 0.707107 0
vn -0.707107 0.707107 0
vn -0.707107 0.707107 0
vn -0.707107 0.707107 0
vn -0.707107 0.707107 0
vn -0.707107 0.707107 0
vn -0.707107 0.707107 0
vn -0.707107 0.707107 0
vn -0.707107 0.707107 0
vn -0.707107 0.707107 0
vt 0.0625 0.9375
vt 0.1875 0.9375
vt 0.3125 0.9375
vt 0.4375 0.9375
vt 0.5625 0.9375
vt 0.6875 0.9375
vt 0.8125 0.9375
f 1/1/1 9/1/9 10/1/10
f 1/1/1 10/1/10 2/1/2
f 2/1/2 10/1/10 11/1/11
f 2/1/2 11/1/11 3/1/3
f 3/1/3 11/1/11 12/1/12
f 3/1/3 12/1/12 4/1/4
f 4/1/4 12/1/12 13/1/13
f 4/1/4 13/1/13 5/1/5
f 5/1/5 13/1/13 14/1/14
f 5/1/5 14/1/14 6/1/6
f 6/1/6 14/1/14 15/1/15
f 6/1/6 15/1/15 7/1/7
f 7/1/7 15/1/15 16/1/16
f 7/1/7 16/1/16 8/1/8
f 8/1/8 16/1/16 9/1/9
f 8/1/8 9/1/9 1/1/1
f 9/1/9 17/1/17 18/1/18
f 9/1/9 18/1/18 10/1/10
f 10/1/10 18/1/18 19/1/19
f 10/1/10 19/1/19 11/1/11
f 11/1/11 19/1/19 20/1/20
f 11/1/11 20/1/20 12/1/12
f 12/1/12 20/1/20 21/1/21
f 12/1/12 21/1/21 13/1/13
f 13/1/13 21/1/21 22/1/22
f 13/1/13 22/1/22 14/1/14
f 14/1/14 22/1/22 23/1/23
f 14/1/14 23/1/23 15/1/15
f 15/1/15 23/1/23 24/1/24
f 15/1/15 24/1/24 16/1/16
f 16/1/16 24/1/24 17/1/17
f 16/1/16 17/1/17 9/1/9
f 17/1/17 25/1/25 26/1/26
f 17/1/17 26/1/26 18/1/18
f 18/1/18 26/1/26 27/1/27
f 18/1/18 27/1/27 19/1/19
f 19/1/19 27/1/27 28/1/28
f 19/1/19 28/1/28 20/1/20
f 20/1/20 28/1/28 29/1/29
f 20/1/20 29/1/29 21/1/21
f 21/1/21 29/1/29 30/1/30
f 21/1/21 30/1/30 22/1/22
f 22/1/22 30/1/30 31/1/31
f 22/1/22 31/1/31 23/1/23
f 23/1/23 31/1/31 32/1/32
f 23/1/23 32/1/32 24/1/24
f 24/1/24 32/1/32 25/1/25
f 24/1/24 25/1/25 17/1/17
f 25/1/25 33/1/33 34/1/34
f 25/1/25 34/1/34 26/1/26
f 26/1/26 34/1/34 35/1/35
f 26/1/26 35/1/35 27/1/27
f 27/1/27 35/1/35 36/1/36
f 27/1/27 36/1/36 28/1/28
f 28/1/28 36/1/36 37/1/37
f 28/1/28 37/1/37 29/1/29
f 29/1/29 37/1/37 38/1/38
f 29/1/29 38/1/38 30/1/30
f 30/1/30 38/1/38 39/1/39
f 30/1/30 39/1/39 31/1/31
f 31/1/31 39/1/39 40/1/40
f 31/1/31 40/1/40 32/1/32
f 32/1/32 40/1/40 33/1/33
f 32/1/32 33/1/33 25/1/25
f 33/1/33 41/1/41 42/1/42
f 33/1/33 42/1/42 34/1/34
f 34/1/34 42/1/42 43/1/43
f 34/1/34 43/1/43 35/1/35
f 35/1/35 43/1/43 44/1/44
f 35/1/35 44/1/44 36/1/36
f 36/1/36 44/1/44 45/1/45
f 36/1/36 45/1/45 37/1/37
f 37/1/37 45/1/45 46/1/46
f 37/1/37 46/1/46 38/1/38
f 38/1/38 46/1/46 47/1/47
f 38/1/38 47/1/47 39/1/39
f 39/1/39 47/1/47 48/1/48
f 39/1/39 48/1/48 40/1/40
f 40/1/40 48/1/48 41/1/41
f 40/1/40 41/1/41 33/1/33
f 41/1/41 49/1/49 50/1/50
f 41/1/41 50/1/50 42/1/42
f 42/1/42 50/1/50 51/1/51
f 42/1/42 51/1/51 43/1/43
f 43/1/43 51/1/51 52/1/52
f 43/1/43 52/1/52 44/1/44
f 44/1/44 52/1/52 53/1/53
f 44/1/44 53/1/53 45/1/45
f 45/1/45 53/1/53 54/1/54
f 45/1/45 54/1/54 46/1/46
f 46/1/46 54/1/54 55/1/55
f 46/1/46 55/1/55 47/1/47
f 47/1/47 55/1/55 56/1/56
f 47/1/47 56/1/56 48/1/48
f 48/1/48 56/1/56 49/1/49
f 48/1/48 49/1/49 41/1/41
f 49/1/49 57/1/57 58/1/58
f 49/1/49 58/1/58 50/1/50
f 50/1/50 58/1/58 59/1/59
f 50/1/50 59/1/59 51/1/51
f 51/1/51 59/1/59 60/1/60
f 51/1/51 60/1/60 52/1/52
f 52/1/52 60/1/60 61/1/61
f 52/1/52 61/1/61 53/1/53
f 53/1/53 61/1/61 62/1/62
f 53/1/53 62/1/62 54/1/54
f 54/1/54 62/1/62 63/1/63
f 54/1/54 63/1/63 55/1/55
f 55/1/55 63/1/63 64/1/64
f 55/1/55 64/1/64 56/1/56
f 56/1/56 64/1/64 57/1/57
f 56/1/56 57/1/57 49/1/49
f 57/1/57 65/1/65 66/1/66
f 57/1/57 66/1/66 58/1/58
f 58/1/58 66/1/66 67/1/67
f 58/1/58 67/1/67 59/1/59
f 59/1/59 67/1/67 68/1/68
f 59/1/59 68/1/68 60/1/60
f 60/1/60 68/1/68 69/1/69
f 60/1/60 69/1/69 61/1/61
f 61/1/61 69/1/69 70/1/70
f 61/1/61 70/1/70 62/1/62
f 62/1/62 70/1/70 71/1/71
f 62/1/62 71/1/71 63/1/63
f 63/1/63 71/1/71 72/1/72
f 63/1/63 72/1/72 64/1/64
f 64/1/64 72/1/72 65/1/65
f 64/1/64 65/1/65 57/1/57
f 73/1/73 81/1/81 82/1/82
f 73/1/73 82/1/82 74/1/74
f 74/1/74 82/1/82 83/1/83
f 74/1/74 83/1/83 75/1/75
f 75/1/75 83/1/83 84/1/84
f 75/1/75 84/1/84 76/1/76
f 76/1/76 84/1/84 85/1/85
f 76/1/76 85/1/85 77/1/77
f 77/1/77 85/1/85 86/1/86
f 77/1/77 86/1/86 78/1/78
f 78/1/78 86/1/86 87/1/87
f 78/1/78 87/1/87 79/1/79
f 79/1/79 87/1/87 88/1/88
f 79/1/79 88/1/88 80/1/80
f 80/1/80 88/1/88 81/1/81
f 80/1/80 81/1/81 73/1/73
f 81/1/81 89/1/89 90/1/90
f 81/1/81 90/1/90 82/1/82
f 82/1/82 90/1/90 91/1/91
f 82/1/82 91/1/91 83/1/83
f 83/1/83 91/1/91 92/1/92
f 83/1/83 92/1/92 84/1/84
f 84/1/84 92/1/92 93/1/93
f 84/1/84 93/1/93 85/1/85
f 85/1/85 93/1/93 94/1/94
f 85/1/85 94/1/94 86/1/86
f 86/1/86 94/1/94 95/1/95
f 86/1/86 95/1/95 87/1/87
f 87/1/87 95/1/95 96/1/96
f 87/1/87 96/1/96 88/1/88
f 88/1/88 96/1/96 89/1/89
f 88/1/88 89/1/89 81/1/81
f 89/1/89 97/1/97 98/1/98
f 89/1/89 98/1/98 90/1/90
f 90/1/90 98/1/98 99/1/99
f 90/1/90 99/1/99 91/1/91
f 91/1/91 99/1/99 100/1/100
f 91/1/91 100/1/100 92/1/92
f 92/1/92 100/1/100 101/1/101
f 92/1/92 101/1/101 93/1/93
f 93/1/93 101/1/101 102/1/102
f 93/1/93 102/1/102 94/1/94
f 94/1/94 102/1/102 103/1/103
f 94/1/94 103/1/103 95/1/95
f 95/1/95 103/1/103 104/1/104
f 95/1/95 104/1/104 96/1/96
f 96/1/96 104/1/104 97/1/97
f 96/1/96 97/1/97 89/1/89
f 97/1/97 105/1/105 106/1/106
f 97/1/97 106/1/106 98/1/98
f 98/1/98 106/1/106 107/1/107
f 98/1/98 107/1/107 99/1/99
f 99/1/99 107/1/107 108/1/108
f 99/1/99 108/1/108 100/1/100
f 100/1/100 108/1/108 109/1/109
f 100/1/100 109/1/109 101/1/101
f 101/1/101 109/1/109 110/1/110
f 101/1/101 110/1/110 102/1/102
f 102/1/102 110/1/110 111/1/111
f 102/1/102 111/1/111 103/1/103
f 103/1/103 111/1/111 112/1/112
f 103/1/103 112/1/112 104/1/104
f 104/1/104 112/1/112 105/1/105
f 104/1/104 105/1/105 97/1/97
f 105/1/105 113/1/113 114/1/114
f 105/1/105 114/1/114 106/1/106
f 106/1/106 114/1/114 115/1/115
f 106/1/106 115/1/115 107/1/107
f 107/1/107 115/1/115 116/1/116
f 107/1/107 116/1/116 108/1/108
f 108/1/108 116/1/116 117/1/117
f 108/1/108 117/1/117 109/1/109
f 109/1/109 117/1/117 118/1/118
f 109/1/109 118/1/118 110/1/110
f 110/1/110 118/1/118 119/1/119
f 110/1/110 119/1/119 111/1/111
f 111/1/111 119/1/119 120/1/120
f 111/1/111 120/1/120 112/1/112
f 112/1/112 120/1/120 113/1/113
f 112/1/112 113/1/113 105/1/105
f 113/1/113 121/1/121 122/1/122
f 113/1/113 122/1/122 114/1/114
f 114/1/114 122/1/122 123/1/123
f 114/1/114 123/1/123 115/1/115
f 115/1/115 123/1/123 124/1/124
f 115/1/115 124/1/124 116/1/116
f 116/1/116 124/1/124 125/1/125
f 116/1/116 125/1/125 117/1/117
f 117/1/117 125/1/125 126/1/126
f 117/1/117 126/1/126 118/1/118
f 118/1/118 126/1/126 127/1/127
f 118/1/118 127/1/127 119/1/119
f 119/1/119 127/1/127 128/1/128
f 119/1/119 128/1/128 120/1/120
f 120/1/120 128/1/128 121/1/121
f 120/1/120 121/1/121 113/1/113
f 121/1/121 129/1/129 130/1/130
f 121/1/121 130/1/130 122/1/122
f 122/1/122 130/1/130 131/1/131
f 122/1/122 131/1/131 123/1/123
f 123/1/123 131/1/131 132/1/132
f 123/1/123 132/1/132 124/1/124
f 124/1/124 132/1/132 133/1/133
f 124/1/124 133/1/133 125/1/125
f 125/1/125 133/1/133 134/1/134
f 125/1/125 134/1/134 126/1/126
f 126/1/126 134/1/134 135/1/135
f 126/1/126 135/1/135 127/1/127
f 127/1/127 135/1/135 136/1/136
f 127/1/127 136/1/136 128/1/128
f 128/1/128 136/1/136 129/1/129
f 128/1/128 129/1/129 121/1/121
f 129/1/129 137/1/137 138/1/138
f 129/1/129 138/1/138 130/1/130
f 130/1/130 138/1/138 139/1/139
f 130/1/130 139/1/139 131/1/131
f 131/1/131 139/1/139 140/1/140
f 131/1/131 140/1/140 132/1/132
f 132/1/132 140/1/140 141/1/141
f 132/1/132 141/1/141 133/1/133
f 133/1/133 141/1/141 142/1/142
f 133/1/133 142/1/142 134/1/134
f 134/1/134 142/1/142 143/1/143
f 134/1/134 143/1/143 135/1/135
f 135/1/135 143/1/143 144/1/144
f 135/1/135 144/1/144 136/1/136
f 136/1/136 144/1/144 137/1/137
f 136/1/136 137/1/137 129/1/129
f 145/1/145 153/1/153 154/1/154
f 145/1/145 154/1/154 146/1/146
f 146/1/146 154/1/154 155/1/155
f 146/1/146 155/1/155 147/1/147
f 147/1/147 155/1/155 156/1/156
f 147/1/147 156/1/156 148/1/148
f 148/1/148 156/1/156 157/1/157
f 148/1/148 157/1/157 149/1/149
f 149/1/149 157/1/157 158/1/158
f 149/1/149 158/1/158 150/1/150
f 150/1/150 158/1/158 159/1/159
f 150/1/150 159/1/159 151/1/151
f 151/1/151 159/1/159 160/1/160
f 151/1/151 160/1/160 152/1/152
f 152/1/152 160/1/160 153/1/153
f 152/1/152 153/1/153 145/1/145
f 153/1/153 161/1/161 162/1/162
f 153/1/153 162/1/162 154/1/154
f 154/1/154 162/1/162 163/1/163
f 154/1/154 163/1/163 155/1/155
f 155/1/155 163/1/163 164/1/164
f 155/1/155 164/1/164 156/1/156
f 156/1/156 164/1/164 165/1/165
f 156/1/156 165/1/165 157/1/157
f 157/1/157 165/1/165 166/1/166
f 157/1/157 166/1/166 158/1/158
f 158/1/158 166/1/166 167/1/167
f 158/1/158 167/1/167 159/1/159
f 159/1/159 167/1/167 168/1/168
f 159/1/159 168/1/168 160/1/160
f 160/1/160 168/1/168 161/1/161
f 160/1/160 161/1/161 153/1/153
f 161/1/161 169/1/169 170/1/170
f 161/1/161 170/1/170 162/1/162
f 162/1/162 170/1/170 171/1/171
f 162/1/162 171/1/171 163/1/163
f 163/1/163 171/1/171 172/1/172
f 163/1/163 172/1/172 164/1/164
f 164/1/164 172/1/172 173/1/173
f 164/1/164 173/1/173 165/1/165
f 165/1/165 173/1/173 174/1/174
f 165/1/165 174/1/174 166/1/166
f 166/1/166 174/1/174 175/1/175
f 166/1/166 175/1/175 167/1/167
f 167/1/167 175/1/175 176/1/176
f 167/1/167 176/1/176 168/1/168
f 168/1/168 176/1/176 169/1/169
f 168/1/168 169/1/169 161/1/161
f 169/1/169 177/1/177 178/1/178
f 169/1/169 178/1/178 170/1/170
f 170/1/170 178/1/178 179/1/179
f 170/1/170 179/1/179 171/1/171
f 171/1/171 179/1/179 180/1/180
f 171/1/171 180/1/180 172/1/172
f 172/1/172 180/1/180 181/1/181
f 172/1/172 181/1/181 173/1/173
f 173/1/173 181/1/181 182/1/182
f 173/1/173 182/1/182 174/1/174
f 174/1/174 182/1/182 183/1/183
f 174/1/174 183/1/183 175/1/175
f 175/1/175 183/1/183 184/1/184
f 175/1/175 184/1/184 176/1/176
f 176/1/176 184/1/184 177/1/177
f 176/1/176 177/1/177 169/1/169
f 177/1/177 185/1/185 186/1/186
f 177/1/177 186/1/186 178/1/178
f 178/1/178 186/1/186 187/1/187
f 178/1/178 187/1/187 179/1/179
f 179/1/179 187/1/187 188/1/188
f 179/1/179 188/1/188 180/1/180
f 180/1/180 188/1/188 189/1/189
f 180/1/180 189/1/189 181/1/181
f 181/1/181 189/1/189 190/1/190
f 181/1/181 190/1/190 182/1/182
f 182/1/182 190/1/190 191/1/191
f 182/1/182 191/1/191 183/1/183
f 183/1/183 191/1/191 192/1/192
f 183/1/183 192/1/192 184/1/184
f 184/1/184 192/1/192 185/1/185
f 184/1/184 185/1/185 177/1/177
f 185/1/185 193/1/193 194/1/194
f 185/1/185 194/1/194 186/1/186
f 186/1/186 194/1/194 195/1/195
f 186/1/186 195/1/195 187/1/187
f 187/1/187 195/1/195 196/1/196
f 187/1/187 196/1/196 188/1/188
f 188/1/188 196/1/196 197/1/197
f 188/1/188 197/1/197 189/1/189
f 189/1/189 197/1/197 198/1/198
f 189/1/189 198/1/198 190/1/190
f 190/1/190 198/1/198 199/1/199
f 190/1/190 199/1/199 191/1/191
f 191/1/191 199/1/199 200/1/200
f 191/1/191 200/1/200 192/1/192
f 192/1/192 200/1/200 193/1/193
f 192/1/192 193/1/193 185/1/185
f 193/1/193 201/1/201 202/1/202
f 193/1/193 202/1/202 194/1/194
f 194/1/194 202/1/202 203/1/203
f 194/1/194 203/1/203 195/1/195
f 195/1/195 203/1/203 204/1/204
f 195/1/195 204/1/204 196/1/196
f 196/1/196 204/1/204 205/1/205
f 196/1/196 205/1/205 197/1/197
f 197/1/197 205/1/205 206/1/206
f 197/1/197 206/1/206 198/1/198
f 198/1/198 206/1/206 207/1/207
f 198/1/198 207/1/207 199/1/199
f 199/1/199 207/1/207 208/1/208
f 199/1/199 208/1/208 200/1/200
f 200/1/200 208/1/208 201/1/201
f 200/1/200 201/1/201 193/1/193
f 201/1/201 209/1/209 210/1/210
f 201/1/201 210/1/210 202/1/202
f 202/1/202 210/1/210 211/1/211
f 202/1/202 211/1/211 203/1/203
f 203/1/203 211/1/211 212/1/212
f 203/1/203 212/1/212 204/1/204
f 204/1/204 212/1/212 213/1/213
f 204/1/204 213/1/213 205/1/205
f 205/1/205 213/1/213 214/1/214
f 205/1/205 214/1/214 206/1/206
f 206/1/206 214/1/214 215/1/215
f 206/1/206 215/1/215 207/1/207
f 207/1/207 215/1/215 216/1/216
f 207/1/207 216/1/216 208/1/208
f 208/1/208 216/1/216 209/1/209
f 208/1/208 209/1/209 201/1/201
f 218/2/218 230/2/230 229/2/229 217/2/217
f 219/2/219 231/2/231 230/2/230 218/2/218
f 220/2/220 232/2/232 231/2/231 219/2/219
f 221/2/221 233/2/233 232/2/232 220/2/220
f 222/2/222 234/2/234 233/2/233 221/2/221
f 223/2/223 235/2/235 234/2/234 222/2/222
f 224/2/224 236/2/236 235/2/235 223/2/223
f 225/2/225 237/2/237 236/2/236 224/2/224
f 226/2/226 238/2/238 237/2/237 225/2/225
f 227/2/227 239/2/239 238/2/238 226/2/226
f 228/2/228 240/2/240 239/2/239 227/2/227
f 217/2/217 229/2/229 240/2/240 228/2/228
f 241/2/241 243/2/243 242/2/242
f 241/2/241 244/2/244 243/2/243
f 241/2/241 245/2/245 244/2/244
f 241/2/241 246/2/246 245/2/245
f 241/2/241 247/2/247 246/2/246
f 241/2/241 248/2/248 247/2/247
f 241/2/241 249/2/249 248/2/248
f 241/2/241 250/2/250 249/2/249
f 241/2/241 251/2/251 250/2/250
f 241/2/241 252/2/252 251/2/251
f 241/2/241 253/2/253 252/2/252
f 241/2/241 242/2/242 253/2/253
f 254/2/254 255/2/255 256/2/256
f 254/2/254 256/2/256 257/2/257
f 254/2/254 257/2/257 258/2/258
f 254/2/254 258/2/258 259/2/259
f 254/2/254 259/2/259 260/2/260
f 254/2/254 260/2/260 261/2/261
f 254/2/254 261/2/261 262/2/262
f 254/2/254 262/2/262 263/2/263
f 254/2/254 263/2/263 264/2/264
f 254/2/254 264/2/264 265/2/265
f 254/2/254 265/2/265 266/2/266
f 254/2/254 266/2/266 255/2/255
