# AFL Power Cable V2 piece bend_up_south, generated by tools/build-power-cable-v2.mjs
mtllib power_cable.mtl
o bend_up_south
usemtl cable
v 0.549081 1 0.581674
v 0.52033 1 0.610425
v 0.47967 1 0.610425
v 0.450919 1 0.581674
v 0.450919 1 0.541013
v 0.47967 1 0.512262
v 0.52033 1 0.512262
v 0.549081 1 0.541013
v 0.549081 0.918389 0.589712
v 0.52033 0.923998 0.61791
v 0.47967 0.923998 0.61791
v 0.450919 0.918389 0.589712
v 0.450919 0.910456 0.549833
v 0.47967 0.904847 0.521634
v 0.52033 0.904847 0.521634
v 0.549081 0.910456 0.549833
v 0.549081 0.839913 0.613517
v 0.52033 0.850916 0.640079
v 0.47967 0.850916 0.640079
v 0.450919 0.839913 0.613517
v 0.450919 0.824353 0.575952
v 0.47967 0.813351 0.549389
v 0.52033 0.813351 0.549389
v 0.549081 0.824353 0.575952
v 0.549081 0.76759 0.652174
v 0.52033 0.783563 0.67608
v 0.47967 0.783563 0.67608
v 0.450919 0.76759 0.652174
v 0.450919 0.745001 0.618367
v 0.47967 0.729027 0.594461
v 0.52033 0.729027 0.594461
v 0.549081 0.745001 0.618367
v 0.549081 0.704199 0.704199
v 0.52033 0.724529 0.724529
v 0.47967 0.724529 0.724529
v 0.450919 0.704199 0.704199
v 0.450919 0.675447 0.675447
v 0.47967 0.655117 0.655117
v 0.52033 0.655117 0.655117
v 0.549081 0.675447 0.675447
v 0.549081 0.652174 0.76759
v 0.52033 0.67608 0.783563
v 0.47967 0.67608 0.783563
v 0.450919 0.652174 0.76759
v 0.450919 0.618367 0.745001
v 0.47967 0.594461 0.729027
v 0.52033 0.594461 0.729027
v 0.549081 0.618367 0.745001
v 0.549081 0.613517 0.839913
v 0.52033 0.640079 0.850916
v 0.47967 0.640079 0.850916
v 0.450919 0.613517 0.839913
v 0.450919 0.575952 0.824353
v 0.47967 0.549389 0.813351
v 0.52033 0.549389 0.813351
v 0.549081 0.575952 0.824353
v 0.549081 0.589712 0.918389
v 0.52033 0.61791 0.923998
v 0.47967 0.61791 0.923998
v 0.450919 0.589712 0.918389
v 0.450919 0.549833 0.910456
v 0.47967 0.521634 0.904847
v 0.52033 0.521634 0.904847
v 0.549081 0.549833 0.910456
v 0.549081 0.581674 1
v 0.52033 0.610425 1
v 0.47967 0.610425 1
v 0.450919 0.581674 1
v 0.450919 0.541013 1
v 0.47967 0.512262 1
v 0.52033 0.512262 1
v 0.549081 0.541013 1
v 0.495956 1 0.489658
v 0.467205 1 0.518409
v 0.426545 1 0.518409
v 0.397794 1 0.489658
v 0.397794 1 0.448998
v 0.426545 1 0.420247
v 0.467205 1 0.420247
v 0.495956 1 0.448998
v 0.495956 0.900437 0.499464
v 0.467205 0.906046 0.527663
v 0.426545 0.906046 0.527663
v 0.397794 0.900437 0.499464
v 0.397794 0.892505 0.459586
v 0.426545 0.886896 0.431387
v 0.467205 0.886896 0.431387
v 0.495956 0.892505 0.459586
v 0.495956 0.804701 0.528506
v 0.467205 0.815703 0.555068
v 0.426545 0.815703 0.555068
v 0.397794 0.804701 0.528506
v 0.397794 0.789141 0.490941
v 0.426545 0.778138 0.464378
v 0.467205 0.778138 0.464378
v 0.495956 0.789141 0.490941
v 0.495956 0.716469 0.575666
v 0.467205 0.732443 0.599572
v 0.426545 0.732443 0.599572
v 0.397794 0.716469 0.575666
v 0.397794 0.69388 0.541859
v 0.426545 0.677907 0.517953
v 0.467205 0.677907 0.517953
v 0.495956 0.69388 0.541859
v 0.495956 0.639134 0.639134
v 0.467205 0.659464 0.659464
v 0.426545 0.659464 0.659464
v 0.397794 0.639134 0.639134
v 0.397794 0.610383 0.610383
v 0.426545 0.590053 0.590053
v 0.467205 0.590053 0.590053
v 0.495956 0.610383 0.610383
v 0.495956 0.575666 0.716469
v 0.467205 0.599572 0.732443
v 0.426545 0.599572 0.732443
v 0.397794 0.575666 0.716469
v 0.397794 0.541859 0.69388
v 0.426545 0.517953 0.677907
v 0.467205 0.517953 0.677907
v 0.495956 0.541859 0.69388
v 0.495956 0.528506 0.804701
v 0.467205 0.555068 0.815703
v 0.426545 0.555068 0.815703
v 0.397794 0.528506 0.804701
v 0.397794 0.490941 0.789141
v 0.426545 0.464378 0.778138
v 0.467205 0.464378 0.778138
v 0.495956 0.490941 0.789141
v 0.495956 0.499464 0.900437
v 0.467205 0.527663 0.906046
v 0.426545 0.527663 0.906046
v 0.397794 0.499464 0.900437
v 0.397794 0.459586 0.892505
v 0.426545 0.431387 0.886896
v 0.467205 0.431387 0.886896
v 0.495956 0.459586 0.892505
v 0.495956 0.489658 1
v 0.467205 0.518409 1
v 0.426545 0.518409 1
v 0.397794 0.489658 1
v 0.397794 0.448998 1
v 0.426545 0.420247 1
v 0.467205 0.420247 1
v 0.495956 0.448998 1
v 0.602206 1 0.489658
v 0.573455 1 0.518409
v 0.532795 1 0.518409
v 0.504044 1 0.489658
v 0.504044 1 0.448998
v 0.532795 1 0.420247
v 0.573455 1 0.420247
v 0.602206 1 0.448998
v 0.602206 0.900437 0.499464
v 0.573455 0.906046 0.527663
v 0.532795 0.906046 0.527663
v 0.504044 0.900437 0.499464
v 0.504044 0.892505 0.459586
v 0.532795 0.886896 0.431387
v 0.573455 0.886896 0.431387
v 0.602206 0.892505 0.459586
v 0.602206 0.804701 0.528506
v 0.573455 0.815703 0.555068
v 0.532795 0.815703 0.555068
v 0.504044 0.804701 0.528506
v 0.504044 0.789141 0.490941
v 0.532795 0.778138 0.464378
v 0.573455 0.778138 0.464378
v 0.602206 0.789141 0.490941
v 0.602206 0.716469 0.575666
v 0.573455 0.732443 0.599572
v 0.532795 0.732443 0.599572
v 0.504044 0.716469 0.575666
v 0.504044 0.69388 0.541859
v 0.532795 0.677907 0.517953
v 0.573455 0.677907 0.517953
v 0.602206 0.69388 0.541859
v 0.602206 0.639134 0.639134
v 0.573455 0.659464 0.659464
v 0.532795 0.659464 0.659464
v 0.504044 0.639134 0.639134
v 0.504044 0.610383 0.610383
v 0.532795 0.590053 0.590053
v 0.573455 0.590053 0.590053
v 0.602206 0.610383 0.610383
v 0.602206 0.575666 0.716469
v 0.573455 0.599572 0.732443
v 0.532795 0.599572 0.732443
v 0.504044 0.575666 0.716469
v 0.504044 0.541859 0.69388
v 0.532795 0.517953 0.677907
v 0.573455 0.517953 0.677907
v 0.602206 0.541859 0.69388
v 0.602206 0.528506 0.804701
v 0.573455 0.555068 0.815703
v 0.532795 0.555068 0.815703
v 0.504044 0.528506 0.804701
v 0.504044 0.490941 0.789141
v 0.532795 0.464378 0.778138
v 0.573455 0.464378 0.778138
v 0.602206 0.490941 0.789141
v 0.602206 0.499464 0.900437
v 0.573455 0.527663 0.906046
v 0.532795 0.527663 0.906046
v 0.504044 0.499464 0.900437
v 0.504044 0.459586 0.892505
v 0.532795 0.431387 0.886896
v 0.573455 0.431387 0.886896
v 0.602206 0.459586 0.892505
v 0.602206 0.489658 1
v 0.573455 0.518409 1
v 0.532795 0.518409 1
v 0.504044 0.489658 1
v 0.504044 0.448998 1
v 0.532795 0.420247 1
v 0.573455 0.420247 1
v 0.602206 0.448998 1
v 0.376241 0.642885 0.603111
v 0.409402 0.602271 0.562497
v 0.466839 0.578823 0.539048
v 0.533161 0.578823 0.539048
v 0.590598 0.602271 0.562497
v 0.623759 0.642885 0.603111
v 0.623759 0.689782 0.650008
v 0.590598 0.730396 0.690622
v 0.533161 0.753845 0.71407
v 0.466839 0.753845 0.71407
v 0.409402 0.730396 0.690622
v 0.376241 0.689782 0.650008
v 0.376241 0.603111 0.642885
v 0.409402 0.562497 0.602271
v 0.466839 0.539048 0.578823
v 0.533161 0.539048 0.578823
v 0.590598 0.562497 0.602271
v 0.623759 0.603111 0.642885
v 0.623759 0.650008 0.689782
v 0.590598 0.690622 0.730396
v 0.533161 0.71407 0.753845
v 0.466839 0.71407 0.753845
v 0.409402 0.690622 0.730396
v 0.376241 0.650008 0.689782
v 0.5 0.666334 0.626559
v 0.376241 0.642885 0.603111
v 0.409402 0.602271 0.562497
v 0.466839 0.578823 0.539048
v 0.533161 0.578823 0.539048
v 0.590598 0.602271 0.562497
v 0.623759 0.642885 0.603111
v 0.623759 0.689782 0.650008
v 0.590598 0.730396 0.690622
v 0.533161 0.753845 0.71407
v 0.466839 0.753845 0.71407
v 0.409402 0.730396 0.690622
v 0.376241 0.689782 0.650008
v 0.5 0.626559 0.666334
v 0.376241 0.603111 0.642885
v 0.409402 0.562497 0.602271
v 0.466839 0.539048 0.578823
v 0.533161 0.539048 0.578823
v 0.590598 0.562497 0.602271
v 0.623759 0.603111 0.642885
v 0.623759 0.650008 0.689782
v 0.590598 0.690622 0.730396
v 0.533161 0.71407 0.753845
v 0.466839 0.71407 0.753845
v 0.409402 0.690622 0.730396
v 0.376241 0.650008 0.689782
vn 0.92388 0 0.382683
vn 0.382683 0 0.92388
vn -0.382683 0 0.92388
vn -0.92388 0 0.382683
vn -0.92388 0 -0.382683
vn -0.382683 0 -0.92388
vn 0.382683 0 -0.92388
vn 0.92388 0 -0.382683
vn 0.92388 0.074658 0.37533
vn 0.382683 0.18024 0.906127
vn -0.382683 0.18024 0.906127
vn -0.92388 0.074658 0.37533
vn -0.92388 -0.074658 -0.37533
vn -0.382683 -0.18024 -0.906127
vn 0.382683 -0.18024 -0.906127
vn 0.92388 -0.074658 -0.37533
vn 0.92388 0.146447 0.353553
vn 0.382683 0.353553 0.853553
vn -0.382683 0.353553 0.853553
vn -0.92388 0.146447 0.353553
vn -0.92388 -0.146447 -0.353553
vn -0.382683 -0.353553 -0.853553
vn 0.382683 -0.353553 -0.853553
vn 0.92388 -0.146447 -0.353553
vn 0.92388 0.212608 0.31819
vn 0.382683 0.51328 0.768178
vn -0.382683 0.51328 0.768178
vn -0.92388 0.212608 0.31819
vn -0.92388 -0.212608 -0.31819
vn -0.382683 -0.51328 -0.768178
vn 0.382683 -0.51328 -0.768178
vn 0.92388 -0.212608 -0.31819
vn 0.92388 0.270598 0.270598
vn 0.382683 0.653281 0.653281
vn -0.382683 0.653281 0.653281
vn -0.92388 0.270598 0.270598
vn -0.92388 -0.270598 -0.270598
vn -0.382683 -0.653281 -0.653281
vn 0.382683 -0.653281 -0.653281
vn 0.92388 -0.270598 -0.270598
vn 0.92388 0.31819 0.212608
vn 0.382683 0.768178 0.51328
vn -0.382683 0.768178 0.51328
vn -0.92388 0.31819 0.212608
vn -0.92388 -0.31819 -0.212608
vn -0.382683 -0.768178 -0.51328
vn 0.382683 -0.768178 -0.51328
vn 0.92388 -0.31819 -0.212608
vn 0.92388 0.353553 0.146447
vn 0.382683 0.853553 0.353553
vn -0.382683 0.853553 0.353553
vn -0.92388 0.353553 0.146447
vn -0.92388 -0.353553 -0.146447
vn -0.382683 -0.853553 -0.353553
vn 0.382683 -0.853553 -0.353553
vn 0.92388 -0.353553 -0.146447
vn 0.92388 0.37533 0.074658
vn 0.382683 0.906127 0.18024
vn -0.382683 0.906127 0.18024
vn -0.92388 0.37533 0.074658
vn -0.92388 -0.37533 -0.074658
vn -0.382683 -0.906127 -0.18024
vn 0.382683 -0.906127 -0.18024
vn 0.92388 -0.37533 -0.074658
vn 0.92388 0.382683 0
vn 0.382683 0.92388 0
vn -0.382683 0.92388 0
vn -0.92388 0.382683 0
vn -0.92388 -0.382683 0
vn -0.382683 -0.92388 0
vn 0.382683 -0.92388 0
vn 0.92388 -0.382683 0
vn 0.92388 0 0.382683
vn 0.382683 0 0.92388
vn -0.382683 0 0.92388
vn -0.92388 0 0.382683
vn -0.92388 0 -0.382683
vn -0.382683 0 -0.92388
vn 0.382683 0 -0.92388
vn 0.92388 0 -0.382683
vn 0.92388 0.074658 0.37533
vn 0.382683 0.18024 0.906127
vn -0.382683 0.18024 0.906127
vn -0.92388 0.074658 0.37533
vn -0.92388 -0.074658 -0.37533
vn -0.382683 -0.18024 -0.906127
vn 0.382683 -0.18024 -0.906127
vn 0.92388 -0.074658 -0.37533
vn 0.92388 0.146447 0.353553
vn 0.382683 0.353553 0.853553
vn -0.382683 0.353553 0.853553
vn -0.92388 0.146447 0.353553
vn -0.92388 -0.146447 -0.353553
vn -0.382683 -0.353553 -0.853553
vn 0.382683 -0.353553 -0.853553
vn 0.92388 -0.146447 -0.353553
vn 0.92388 0.212608 0.31819
vn 0.382683 0.51328 0.768178
vn -0.382683 0.51328 0.768178
vn -0.92388 0.212608 0.31819
vn -0.92388 -0.212608 -0.31819
vn -0.382683 -0.51328 -0.768178
vn 0.382683 -0.51328 -0.768178
vn 0.92388 -0.212608 -0.31819
vn 0.92388 0.270598 0.270598
vn 0.382683 0.653281 0.653281
vn -0.382683 0.653281 0.653281
vn -0.92388 0.270598 0.270598
vn -0.92388 -0.270598 -0.270598
vn -0.382683 -0.653281 -0.653281
vn 0.382683 -0.653281 -0.653281
vn 0.92388 -0.270598 -0.270598
vn 0.92388 0.31819 0.212608
vn 0.382683 0.768178 0.51328
vn -0.382683 0.768178 0.51328
vn -0.92388 0.31819 0.212608
vn -0.92388 -0.31819 -0.212608
vn -0.382683 -0.768178 -0.51328
vn 0.382683 -0.768178 -0.51328
vn 0.92388 -0.31819 -0.212608
vn 0.92388 0.353553 0.146447
vn 0.382683 0.853553 0.353553
vn -0.382683 0.853553 0.353553
vn -0.92388 0.353553 0.146447
vn -0.92388 -0.353553 -0.146447
vn -0.382683 -0.853553 -0.353553
vn 0.382683 -0.853553 -0.353553
vn 0.92388 -0.353553 -0.146447
vn 0.92388 0.37533 0.074658
vn 0.382683 0.906127 0.18024
vn -0.382683 0.906127 0.18024
vn -0.92388 0.37533 0.074658
vn -0.92388 -0.37533 -0.074658
vn -0.382683 -0.906127 -0.18024
vn 0.382683 -0.906127 -0.18024
vn 0.92388 -0.37533 -0.074658
vn 0.92388 0.382683 0
vn 0.382683 0.92388 0
vn -0.382683 0.92388 0
vn -0.92388 0.382683 0
vn -0.92388 -0.382683 0
vn -0.382683 -0.92388 0
vn 0.382683 -0.92388 0
vn 0.92388 -0.382683 0
vn 0.92388 0 0.382683
vn 0.382683 0 0.92388
vn -0.382683 0 0.92388
vn -0.92388 0 0.382683
vn -0.92388 0 -0.382683
vn -0.382683 0 -0.92388
vn 0.382683 0 -0.92388
vn 0.92388 0 -0.382683
vn 0.92388 0.074658 0.37533
vn 0.382683 0.18024 0.906127
vn -0.382683 0.18024 0.906127
vn -0.92388 0.074658 0.37533
vn -0.92388 -0.074658 -0.37533
vn -0.382683 -0.18024 -0.906127
vn 0.382683 -0.18024 -0.906127
vn 0.92388 -0.074658 -0.37533
vn 0.92388 0.146447 0.353553
vn 0.382683 0.353553 0.853553
vn -0.382683 0.353553 0.853553
vn -0.92388 0.146447 0.353553
vn -0.92388 -0.146447 -0.353553
vn -0.382683 -0.353553 -0.853553
vn 0.382683 -0.353553 -0.853553
vn 0.92388 -0.146447 -0.353553
vn 0.92388 0.212608 0.31819
vn 0.382683 0.51328 0.768178
vn -0.382683 0.51328 0.768178
vn -0.92388 0.212608 0.31819
vn -0.92388 -0.212608 -0.31819
vn -0.382683 -0.51328 -0.768178
vn 0.382683 -0.51328 -0.768178
vn 0.92388 -0.212608 -0.31819
vn 0.92388 0.270598 0.270598
vn 0.382683 0.653281 0.653281
vn -0.382683 0.653281 0.653281
vn -0.92388 0.270598 0.270598
vn -0.92388 -0.270598 -0.270598
vn -0.382683 -0.653281 -0.653281
vn 0.382683 -0.653281 -0.653281
vn 0.92388 -0.270598 -0.270598
vn 0.92388 0.31819 0.212608
vn 0.382683 0.768178 0.51328
vn -0.382683 0.768178 0.51328
vn -0.92388 0.31819 0.212608
vn -0.92388 -0.31819 -0.212608
vn -0.382683 -0.768178 -0.51328
vn 0.382683 -0.768178 -0.51328
vn 0.92388 -0.31819 -0.212608
vn 0.92388 0.353553 0.146447
vn 0.382683 0.853553 0.353553
vn -0.382683 0.853553 0.353553
vn -0.92388 0.353553 0.146447
vn -0.92388 -0.353553 -0.146447
vn -0.382683 -0.853553 -0.353553
vn 0.382683 -0.853553 -0.353553
vn 0.92388 -0.353553 -0.146447
vn 0.92388 0.37533 0.074658
vn 0.382683 0.906127 0.18024
vn -0.382683 0.906127 0.18024
vn -0.92388 0.37533 0.074658
vn -0.92388 -0.37533 -0.074658
vn -0.382683 -0.906127 -0.18024
vn 0.382683 -0.906127 -0.18024
vn 0.92388 -0.37533 -0.074658
vn 0.92388 0.382683 0
vn 0.382683 0.92388 0
vn -0.382683 0.92388 0
vn -0.92388 0.382683 0
vn -0.92388 -0.382683 0
vn -0.382683 -0.92388 0
vn 0.382683 -0.92388 0
vn 0.92388 -0.382683 0
vn -0.965926 -0.183013 -0.183013
vn -0.707107 -0.5 -0.5
vn -0.258819 -0.683013 -0.683013
vn 0.258819 -0.683013 -0.683013
vn 0.707107 -0.5 -0.5
vn 0.965926 -0.183013 -0.183013
vn 0.965926 0.183013 0.183013
vn 0.707107 0.5 0.5
vn 0.258819 0.683013 0.683013
vn -0.258819 0.683013 0.683013
vn -0.707107 0.5 0.5
vn -0.965926 0.183013 0.183013
vn -0.965926 -0.183013 -0.183013
vn -0.707107 -0.5 -0.5
vn -0.258819 -0.683013 -0.683013
vn 0.258819 -0.683013 -0.683013
vn 0.707107 -0.5 -0.5
vn 0.965926 -0.183013 -0.183013
vn 0.965926 0.183013 0.183013
vn 0.707107 0.5 0.5
vn 0.258819 0.683013 0.683013
vn -0.258819 0.683013 0.683013
vn -0.707107 0.5 0.5
vn -0.965926 0.183013 0.183013
vn 0 0.707107 -0.707107
vn 0 0.707107 -0.707107
vn 0 0.707107 -0.707107
vn 0 0.707107 -0.707107
vn 0 0.707107 -0.707107
vn 0 0.707107 -0.707107
vn 0 0.707107 -0.707107
vn 0 0.707107 -0.707107
vn 0 0.707107 -0.707107
vn 0 0.707107 -0.707107
vn 0 0.707107 -0.707107
vn 0 0.707107 -0.707107
vn 0 0.707107 -0.707107
vn 0 -0.707107 0.707107
vn 0 -0.707107 0.707107
vn 0 -0.707107 0.707107
vn 0 -0.707107 0.707107
vn 0 -0.707107 0.707107
vn 0 -0.707107 0.707107
vn 0 -0.707107 0.707107
vn 0 -0.707107 0.707107
vn 0 -0.707107 0.707107
vn 0 -0.707107 0.707107
vn 0 -0.707107 0.707107
vn 0 -0.707107 0.707107
vn 0 -0.707107 0.707107
vt 0.03125 0.96875
vt 0.09375 0.96875
vt 0.09375 0.90625
vt 0.03125 0.90625
vt 0.15625 0.96875
vt 0.21875 0.96875
vt 0.21875 0.90625
vt 0.15625 0.90625
vt 0.28125 0.96875
vt 0.34375 0.96875
vt 0.34375 0.90625
vt 0.28125 0.90625
vt 0.40625 0.96875
vt 0.46875 0.96875
vt 0.46875 0.90625
vt 0.40625 0.90625
vt 0.53125 0.96875
vt 0.59375 0.96875
vt 0.59375 0.90625
vt 0.53125 0.90625
vt 0.65625 0.96875
vt 0.71875 0.96875
vt 0.71875 0.90625
vt 0.65625 0.90625
vt 0.78125 0.96875
vt 0.84375 0.96875
vt 0.84375 0.90625
vt 0.78125 0.90625
f 10/1/10 9/2/9 1/3/1
f 2/1/2 10/2/10 1/3/1
f 11/1/11 10/2/10 2/3/2
f 3/1/3 11/2/11 2/3/2
f 12/1/12 11/2/11 3/3/3
f 4/1/4 12/2/12 3/3/3
f 13/1/13 12/2/12 4/3/4
f 5/1/5 13/2/13 4/3/4
f 14/1/14 13/2/13 5/3/5
f 6/1/6 14/2/14 5/3/5
f 15/1/15 14/2/14 6/3/6
f 7/1/7 15/2/15 6/3/6
f 16/1/16 15/2/15 7/3/7
f 8/1/8 16/2/16 7/3/7
f 9/1/9 16/2/16 8/3/8
f 1/1/1 9/2/9 8/3/8
f 18/1/18 17/2/17 9/3/9
f 10/1/10 18/2/18 9/3/9
f 19/1/19 18/2/18 10/3/10
f 11/1/11 19/2/19 10/3/10
f 20/1/20 19/2/19 11/3/11
f 12/1/12 20/2/20 11/3/11
f 21/1/21 20/2/20 12/3/12
f 13/1/13 21/2/21 12/3/12
f 22/1/22 21/2/21 13/3/13
f 14/1/14 22/2/22 13/3/13
f 23/1/23 22/2/22 14/3/14
f 15/1/15 23/2/23 14/3/14
f 24/1/24 23/2/23 15/3/15
f 16/1/16 24/2/24 15/3/15
f 17/1/17 24/2/24 16/3/16
f 9/1/9 17/2/17 16/3/16
f 26/1/26 25/2/25 17/3/17
f 18/1/18 26/2/26 17/3/17
f 27/1/27 26/2/26 18/3/18
f 19/1/19 27/2/27 18/3/18
f 28/1/28 27/2/27 19/3/19
f 20/1/20 28/2/28 19/3/19
f 29/1/29 28/2/28 20/3/20
f 21/1/21 29/2/29 20/3/20
f 30/1/30 29/2/29 21/3/21
f 22/1/22 30/2/30 21/3/21
f 31/1/31 30/2/30 22/3/22
f 23/1/23 31/2/31 22/3/22
f 32/1/32 31/2/31 23/3/23
f 24/1/24 32/2/32 23/3/23
f 25/1/25 32/2/32 24/3/24
f 17/1/17 25/2/25 24/3/24
f 34/1/34 33/2/33 25/3/25
f 26/1/26 34/2/34 25/3/25
f 35/1/35 34/2/34 26/3/26
f 27/1/27 35/2/35 26/3/26
f 36/1/36 35/2/35 27/3/27
f 28/1/28 36/2/36 27/3/27
f 37/1/37 36/2/36 28/3/28
f 29/1/29 37/2/37 28/3/28
f 38/1/38 37/2/37 29/3/29
f 30/1/30 38/2/38 29/3/29
f 39/1/39 38/2/38 30/3/30
f 31/1/31 39/2/39 30/3/30
f 40/1/40 39/2/39 31/3/31
f 32/1/32 40/2/40 31/3/31
f 33/1/33 40/2/40 32/3/32
f 25/1/25 33/2/33 32/3/32
f 42/1/42 41/2/41 33/3/33
f 34/1/34 42/2/42 33/3/33
f 43/1/43 42/2/42 34/3/34
f 35/1/35 43/2/43 34/3/34
f 44/1/44 43/2/43 35/3/35
f 36/1/36 44/2/44 35/3/35
f 45/1/45 44/2/44 36/3/36
f 37/1/37 45/2/45 36/3/36
f 46/1/46 45/2/45 37/3/37
f 38/1/38 46/2/46 37/3/37
f 47/1/47 46/2/46 38/3/38
f 39/1/39 47/2/47 38/3/38
f 48/1/48 47/2/47 39/3/39
f 40/1/40 48/2/48 39/3/39
f 41/1/41 48/2/48 40/3/40
f 33/1/33 41/2/41 40/3/40
f 50/1/50 49/2/49 41/3/41
f 42/1/42 50/2/50 41/3/41
f 51/1/51 50/2/50 42/3/42
f 43/1/43 51/2/51 42/3/42
f 52/1/52 51/2/51 43/3/43
f 44/1/44 52/2/52 43/3/43
f 53/1/53 52/2/52 44/3/44
f 45/1/45 53/2/53 44/3/44
f 54/1/54 53/2/53 45/3/45
f 46/1/46 54/2/54 45/3/45
f 55/1/55 54/2/54 46/3/46
f 47/1/47 55/2/55 46/3/46
f 56/1/56 55/2/55 47/3/47
f 48/1/48 56/2/56 47/3/47
f 49/1/49 56/2/56 48/3/48
f 41/1/41 49/2/49 48/3/48
f 58/1/58 57/2/57 49/3/49
f 50/1/50 58/2/58 49/3/49
f 59/1/59 58/2/58 50/3/50
f 51/1/51 59/2/59 50/3/50
f 60/1/60 59/2/59 51/3/51
f 52/1/52 60/2/60 51/3/51
f 61/1/61 60/2/60 52/3/52
f 53/1/53 61/2/61 52/3/52
f 62/1/62 61/2/61 53/3/53
f 54/1/54 62/2/62 53/3/53
f 63/1/63 62/2/62 54/3/54
f 55/1/55 63/2/63 54/3/54
f 64/1/64 63/2/63 55/3/55
f 56/1/56 64/2/64 55/3/55
f 57/1/57 64/2/64 56/3/56
f 49/1/49 57/2/57 56/3/56
f 66/1/66 65/2/65 57/3/57
f 58/1/58 66/2/66 57/3/57
f 67/1/67 66/2/66 58/3/58
f 59/1/59 67/2/67 58/3/58
f 68/1/68 67/2/67 59/3/59
f 60/1/60 68/2/68 59/3/59
f 69/1/69 68/2/68 60/3/60
f 61/1/61 69/2/69 60/3/60
f 70/1/70 69/2/69 61/3/61
f 62/1/62 70/2/70 61/3/61
f 71/1/71 70/2/70 62/3/62
f 63/1/63 71/2/71 62/3/62
f 72/1/72 71/2/71 63/3/63
f 64/1/64 72/2/72 63/3/63
f 65/1/65 72/2/72 64/3/64
f 57/1/57 65/2/65 64/3/64
f 82/1/82 81/2/81 73/3/73
f 74/1/74 82/2/82 73/3/73
f 83/1/83 82/2/82 74/3/74
f 75/1/75 83/2/83 74/3/74
f 84/1/84 83/2/83 75/3/75
f 76/1/76 84/2/84 75/3/75
f 85/1/85 84/2/84 76/3/76
f 77/1/77 85/2/85 76/3/76
f 86/1/86 85/2/85 77/3/77
f 78/1/78 86/2/86 77/3/77
f 87/1/87 86/2/86 78/3/78
f 79/1/79 87/2/87 78/3/78
f 88/1/88 87/2/87 79/3/79
f 80/1/80 88/2/88 79/3/79
f 81/1/81 88/2/88 80/3/80
f 73/1/73 81/2/81 80/3/80
f 90/1/90 89/2/89 81/3/81
f 82/1/82 90/2/90 81/3/81
f 91/1/91 90/2/90 82/3/82
f 83/1/83 91/2/91 82/3/82
f 92/1/92 91/2/91 83/3/83
f 84/1/84 92/2/92 83/3/83
f 93/1/93 92/2/92 84/3/84
f 85/1/85 93/2/93 84/3/84
f 94/1/94 93/2/93 85/3/85
f 86/1/86 94/2/94 85/3/85
f 95/1/95 94/2/94 86/3/86
f 87/1/87 95/2/95 86/3/86
f 96/1/96 95/2/95 87/3/87
f 88/1/88 96/2/96 87/3/87
f 89/1/89 96/2/96 88/3/88
f 81/1/81 89/2/89 88/3/88
f 98/1/98 97/2/97 89/3/89
f 90/1/90 98/2/98 89/3/89
f 99/1/99 98/2/98 90/3/90
f 91/1/91 99/2/99 90/3/90
f 100/1/100 99/2/99 91/3/91
f 92/1/92 100/2/100 91/3/91
f 101/1/101 100/2/100 92/3/92
f 93/1/93 101/2/101 92/3/92
f 102/1/102 101/2/101 93/3/93
f 94/1/94 102/2/102 93/3/93
f 103/1/103 102/2/102 94/3/94
f 95/1/95 103/2/103 94/3/94
f 104/1/104 103/2/103 95/3/95
f 96/1/96 104/2/104 95/3/95
f 97/1/97 104/2/104 96/3/96
f 89/1/89 97/2/97 96/3/96
f 106/1/106 105/2/105 97/3/97
f 98/1/98 106/2/106 97/3/97
f 107/1/107 106/2/106 98/3/98
f 99/1/99 107/2/107 98/3/98
f 108/1/108 107/2/107 99/3/99
f 100/1/100 108/2/108 99/3/99
f 109/1/109 108/2/108 100/3/100
f 101/1/101 109/2/109 100/3/100
f 110/1/110 109/2/109 101/3/101
f 102/1/102 110/2/110 101/3/101
f 111/1/111 110/2/110 102/3/102
f 103/1/103 111/2/111 102/3/102
f 112/1/112 111/2/111 103/3/103
f 104/1/104 112/2/112 103/3/103
f 105/1/105 112/2/112 104/3/104
f 97/1/97 105/2/105 104/3/104
f 114/1/114 113/2/113 105/3/105
f 106/1/106 114/2/114 105/3/105
f 115/1/115 114/2/114 106/3/106
f 107/1/107 115/2/115 106/3/106
f 116/1/116 115/2/115 107/3/107
f 108/1/108 116/2/116 107/3/107
f 117/1/117 116/2/116 108/3/108
f 109/1/109 117/2/117 108/3/108
f 118/1/118 117/2/117 109/3/109
f 110/1/110 118/2/118 109/3/109
f 119/1/119 118/2/118 110/3/110
f 111/1/111 119/2/119 110/3/110
f 120/1/120 119/2/119 111/3/111
f 112/1/112 120/2/120 111/3/111
f 113/1/113 120/2/120 112/3/112
f 105/1/105 113/2/113 112/3/112
f 122/1/122 121/2/121 113/3/113
f 114/1/114 122/2/122 113/3/113
f 123/1/123 122/2/122 114/3/114
f 115/1/115 123/2/123 114/3/114
f 124/1/124 123/2/123 115/3/115
f 116/1/116 124/2/124 115/3/115
f 125/1/125 124/2/124 116/3/116
f 117/1/117 125/2/125 116/3/116
f 126/1/126 125/2/125 117/3/117
f 118/1/118 126/2/126 117/3/117
f 127/1/127 126/2/126 118/3/118
f 119/1/119 127/2/127 118/3/118
f 128/1/128 127/2/127 119/3/119
f 120/1/120 128/2/128 119/3/119
f 121/1/121 128/2/128 120/3/120
f 113/1/113 121/2/121 120/3/120
f 130/1/130 129/2/129 121/3/121
f 122/1/122 130/2/130 121/3/121
f 131/1/131 130/2/130 122/3/122
f 123/1/123 131/2/131 122/3/122
f 132/1/132 131/2/131 123/3/123
f 124/1/124 132/2/132 123/3/123
f 133/1/133 132/2/132 124/3/124
f 125/1/125 133/2/133 124/3/124
f 134/1/134 133/2/133 125/3/125
f 126/1/126 134/2/134 125/3/125
f 135/1/135 134/2/134 126/3/126
f 127/1/127 135/2/135 126/3/126
f 136/1/136 135/2/135 127/3/127
f 128/1/128 136/2/136 127/3/127
f 129/1/129 136/2/136 128/3/128
f 121/1/121 129/2/129 128/3/128
f 138/1/138 137/2/137 129/3/129
f 130/1/130 138/2/138 129/3/129
f 139/1/139 138/2/138 130/3/130
f 131/1/131 139/2/139 130/3/130
f 140/1/140 139/2/139 131/3/131
f 132/1/132 140/2/140 131/3/131
f 141/1/141 140/2/140 132/3/132
f 133/1/133 141/2/141 132/3/132
f 142/1/142 141/2/141 133/3/133
f 134/1/134 142/2/142 133/3/133
f 143/1/143 142/2/142 134/3/134
f 135/1/135 143/2/143 134/3/134
f 144/1/144 143/2/143 135/3/135
f 136/1/136 144/2/144 135/3/135
f 137/1/137 144/2/144 136/3/136
f 129/1/129 137/2/137 136/3/136
f 154/1/154 153/2/153 145/3/145
f 146/1/146 154/2/154 145/3/145
f 155/1/155 154/2/154 146/3/146
f 147/1/147 155/2/155 146/3/146
f 156/1/156 155/2/155 147/3/147
f 148/1/148 156/2/156 147/3/147
f 157/1/157 156/2/156 148/3/148
f 149/1/149 157/2/157 148/3/148
f 158/1/158 157/2/157 149/3/149
f 150/1/150 158/2/158 149/3/149
f 159/1/159 158/2/158 150/3/150
f 151/1/151 159/2/159 150/3/150
f 160/1/160 159/2/159 151/3/151
f 152/1/152 160/2/160 151/3/151
f 153/1/153 160/2/160 152/3/152
f 145/1/145 153/2/153 152/3/152
f 162/1/162 161/2/161 153/3/153
f 154/1/154 162/2/162 153/3/153
f 163/1/163 162/2/162 154/3/154
f 155/1/155 163/2/163 154/3/154
f 164/1/164 163/2/163 155/3/155
f 156/1/156 164/2/164 155/3/155
f 165/1/165 164/2/164 156/3/156
f 157/1/157 165/2/165 156/3/156
f 166/1/166 165/2/165 157/3/157
f 158/1/158 166/2/166 157/3/157
f 167/1/167 166/2/166 158/3/158
f 159/1/159 167/2/167 158/3/158
f 168/1/168 167/2/167 159/3/159
f 160/1/160 168/2/168 159/3/159
f 161/1/161 168/2/168 160/3/160
f 153/1/153 161/2/161 160/3/160
f 170/1/170 169/2/169 161/3/161
f 162/1/162 170/2/170 161/3/161
f 171/1/171 170/2/170 162/3/162
f 163/1/163 171/2/171 162/3/162
f 172/1/172 171/2/171 163/3/163
f 164/1/164 172/2/172 163/3/163
f 173/1/173 172/2/172 164/3/164
f 165/1/165 173/2/173 164/3/164
f 174/1/174 173/2/173 165/3/165
f 166/1/166 174/2/174 165/3/165
f 175/1/175 174/2/174 166/3/166
f 167/1/167 175/2/175 166/3/166
f 176/1/176 175/2/175 167/3/167
f 168/1/168 176/2/176 167/3/167
f 169/1/169 176/2/176 168/3/168
f 161/1/161 169/2/169 168/3/168
f 178/1/178 177/2/177 169/3/169
f 170/1/170 178/2/178 169/3/169
f 179/1/179 178/2/178 170/3/170
f 171/1/171 179/2/179 170/3/170
f 180/1/180 179/2/179 171/3/171
f 172/1/172 180/2/180 171/3/171
f 181/1/181 180/2/180 172/3/172
f 173/1/173 181/2/181 172/3/172
f 182/1/182 181/2/181 173/3/173
f 174/1/174 182/2/182 173/3/173
f 183/1/183 182/2/182 174/3/174
f 175/1/175 183/2/183 174/3/174
f 184/1/184 183/2/183 175/3/175
f 176/1/176 184/2/184 175/3/175
f 177/1/177 184/2/184 176/3/176
f 169/1/169 177/2/177 176/3/176
f 186/1/186 185/2/185 177/3/177
f 178/1/178 186/2/186 177/3/177
f 187/1/187 186/2/186 178/3/178
f 179/1/179 187/2/187 178/3/178
f 188/1/188 187/2/187 179/3/179
f 180/1/180 188/2/188 179/3/179
f 189/1/189 188/2/188 180/3/180
f 181/1/181 189/2/189 180/3/180
f 190/1/190 189/2/189 181/3/181
f 182/1/182 190/2/190 181/3/181
f 191/1/191 190/2/190 182/3/182
f 183/1/183 191/2/191 182/3/182
f 192/1/192 191/2/191 183/3/183
f 184/1/184 192/2/192 183/3/183
f 185/1/185 192/2/192 184/3/184
f 177/1/177 185/2/185 184/3/184
f 194/1/194 193/2/193 185/3/185
f 186/1/186 194/2/194 185/3/185
f 195/1/195 194/2/194 186/3/186
f 187/1/187 195/2/195 186/3/186
f 196/1/196 195/2/195 187/3/187
f 188/1/188 196/2/196 187/3/187
f 197/1/197 196/2/196 188/3/188
f 189/1/189 197/2/197 188/3/188
f 198/1/198 197/2/197 189/3/189
f 190/1/190 198/2/198 189/3/189
f 199/1/199 198/2/198 190/3/190
f 191/1/191 199/2/199 190/3/190
f 200/1/200 199/2/199 191/3/191
f 192/1/192 200/2/200 191/3/191
f 193/1/193 200/2/200 192/3/192
f 185/1/185 193/2/193 192/3/192
f 202/1/202 201/2/201 193/3/193
f 194/1/194 202/2/202 193/3/193
f 203/1/203 202/2/202 194/3/194
f 195/1/195 203/2/203 194/3/194
f 204/1/204 203/2/203 195/3/195
f 196/1/196 204/2/204 195/3/195
f 205/1/205 204/2/204 196/3/196
f 197/1/197 205/2/205 196/3/196
f 206/1/206 205/2/205 197/3/197
f 198/1/198 206/2/206 197/3/197
f 207/1/207 206/2/206 198/3/198
f 199/1/199 207/2/207 198/3/198
f 208/1/208 207/2/207 199/3/199
f 200/1/200 208/2/208 199/3/199
f 201/1/201 208/2/208 200/3/200
f 193/1/193 201/2/201 200/3/200
f 210/1/210 209/2/209 201/3/201
f 202/1/202 210/2/210 201/3/201
f 211/1/211 210/2/210 202/3/202
f 203/1/203 211/2/211 202/3/202
f 212/1/212 211/2/211 203/3/203
f 204/1/204 212/2/212 203/3/203
f 213/1/213 212/2/212 204/3/204
f 205/1/205 213/2/213 204/3/204
f 214/1/214 213/2/213 205/3/205
f 206/1/206 214/2/214 205/3/205
f 215/1/215 214/2/214 206/3/206
f 207/1/207 215/2/215 206/3/206
f 216/1/216 215/2/215 207/3/207
f 208/1/208 216/2/216 207/3/207
f 209/1/209 216/2/216 208/3/208
f 201/1/201 209/2/209 208/3/208
f 218/5/218 230/6/230 229/7/229 217/8/217
f 219/5/219 231/6/231 230/7/230 218/8/218
f 220/5/220 232/6/232 231/7/231 219/8/219
f 221/5/221 233/6/233 232/7/232 220/8/220
f 222/5/222 234/6/234 233/7/233 221/8/221
f 223/5/223 235/6/235 234/7/234 222/8/222
f 224/5/224 236/6/236 235/7/235 223/8/223
f 225/5/225 237/6/237 236/7/236 224/8/224
f 226/5/226 238/6/238 237/7/237 225/8/225
f 227/5/227 239/6/239 238/7/238 226/8/226
f 228/5/228 240/6/240 239/7/239 227/8/227
f 217/5/217 229/6/229 240/7/240 228/8/228
f 241/5/241 243/6/243 242/7/242
f 241/5/241 244/6/244 243/7/243
f 241/5/241 245/6/245 244/7/244
f 241/5/241 246/6/246 245/7/245
f 241/5/241 247/6/247 246/7/246
f 241/5/241 248/6/248 247/7/247
f 241/5/241 249/6/249 248/7/248
f 241/5/241 250/6/250 249/7/249
f 241/5/241 251/6/251 250/7/250
f 241/5/241 252/6/252 251/7/251
f 241/5/241 253/6/253 252/7/252
f 241/5/241 242/6/242 253/7/253
f 254/5/254 255/6/255 256/7/256
f 254/5/254 256/6/256 257/7/257
f 254/5/254 257/6/257 258/7/258
f 254/5/254 258/6/258 259/7/259
f 254/5/254 259/6/259 260/7/260
f 254/5/254 260/6/260 261/7/261
f 254/5/254 261/6/261 262/7/262
f 254/5/254 262/6/262 263/7/263
f 254/5/254 263/6/263 264/7/264
f 254/5/254 264/6/264 265/7/265
f 254/5/254 265/6/265 266/7/266
f 254/5/254 266/6/266 255/7/255
