# AFL Power Cable V2 piece bend_down_north, generated by tools/build-power-cable-v2.mjs
mtllib power_cable.mtl
o bend_down_north
usemtl cable
v 0.549081 0 0.581674
v 0.52033 0 0.610425
v 0.47967 0 0.610425
v 0.450919 0 0.581674
v 0.450919 0 0.541013
v 0.47967 0 0.512262
v 0.52033 0 0.512262
v 0.549081 0 0.541013
v 0.549081 0.113479 0.570497
v 0.52033 0.119088 0.598695
v 0.47967 0.119088 0.598695
v 0.450919 0.113479 0.570497
v 0.450919 0.105546 0.530618
v 0.47967 0.099937 0.502419
v 0.52033 0.099937 0.502419
v 0.549081 0.105546 0.530618
v 0.549081 0.222597 0.537396
v 0.52033 0.233599 0.563959
v 0.47967 0.233599 0.563959
v 0.450919 0.222597 0.537396
v 0.450919 0.207037 0.499831
v 0.47967 0.196034 0.473269
v 0.52033 0.196034 0.473269
v 0.549081 0.207037 0.499831
v 0.549081 0.32316 0.483644
v 0.52033 0.339134 0.507549
v 0.47967 0.339134 0.507549
v 0.450919 0.32316 0.483644
v 0.450919 0.300571 0.449836
v 0.47967 0.284598 0.425931
v 0.52033 0.284598 0.425931
v 0.549081 0.300571 0.449836
v 0.549081 0.411305 0.411305
v 0.52033 0.431635 0.431635
v 0.47967 0.431635 0.431635
v 0.450919 0.411305 0.411305
v 0.450919 0.382554 0.382554
v 0.47967 0.362224 0.362224
v 0.52033 0.362224 0.362224
v 0.549081 0.382554 0.382554
v 0.549081 0.483644 0.32316
v 0.52033 0.507549 0.339134
v 0.47967 0.507549 0.339134
v 0.450919 0.483644 0.32316
v 0.450919 0.449836 0.300571
v 0.47967 0.425931 0.284598
v 0.52033 0.425931 0.284598
v 0.549081 0.449836 0.300571
v 0.549081 0.537396 0.222597
v 0.52033 0.563959 0.233599
v 0.47967 0.563959 0.233599
v 0.450919 0.537396 0.222597
v 0.450919 0.499831 0.207037
v 0.47967 0.473269 0.196034
v 0.52033 0.473269 0.196034
v 0.549081 0.499831 0.207037
v 0.549081 0.570497 0.113479
v 0.52033 0.598695 0.119088
v 0.47967 0.598695 0.119088
v 0.450919 0.570497 0.113479
v 0.450919 0.530618 0.105546
v 0.47967 0.502419 0.099937
v 0.52033 0.502419 0.099937
v 0.549081 0.530618 0.105546
v 0.549081 0.581674 0
v 0.52033 0.610425 0
v 0.47967 0.610425 0
v 0.450919 0.581674 0
v 0.450919 0.541013 0
v 0.47967 0.512262 0
v 0.52033 0.512262 0
v 0.549081 0.541013 0
v 0.495956 0 0.489658
v 0.467205 0 0.518409
v 0.426545 0 0.518409
v 0.397794 0 0.489658
v 0.397794 0 0.448998
v 0.426545 0 0.420247
v 0.467205 0 0.420247
v 0.495956 0 0.448998
v 0.495956 0.095528 0.48025
v 0.467205 0.101137 0.508448
v 0.426545 0.101137 0.508448
v 0.397794 0.095528 0.48025
v 0.397794 0.087595 0.440371
v 0.426545 0.081986 0.412172
v 0.467205 0.081986 0.412172
v 0.495956 0.087595 0.440371
v 0.495956 0.187384 0.452385
v 0.467205 0.198387 0.478948
v 0.426545 0.198387 0.478948
v 0.397794 0.187384 0.452385
v 0.397794 0.171824 0.41482
v 0.426545 0.160822 0.388258
v 0.467205 0.160822 0.388258
v 0.495956 0.171824 0.41482
v 0.495956 0.27204 0.407136
v 0.467205 0.288013 0.431042
v 0.426545 0.288013 0.431042
v 0.397794 0.27204 0.407136
v 0.397794 0.24945 0.373328
v 0.426545 0.233477 0.349423
v 0.467205 0.233477 0.349423
v 0.495956 0.24945 0.373328
v 0.495956 0.346241 0.346241
v 0.467205 0.366571 0.366571
v 0.426545 0.366571 0.366571
v 0.397794 0.346241 0.346241
v 0.397794 0.31749 0.31749
v 0.426545 0.29716 0.29716
v 0.467205 0.29716 0.29716
v 0.495956 0.31749 0.31749
v 0.495956 0.407136 0.27204
v 0.467205 0.431042 0.288013
v 0.426545 0.431042 0.288013
v 0.397794 0.407136 0.27204
v 0.397794 0.373328 0.24945
v 0.426545 0.349423 0.233477
v 0.467205 0.349423 0.233477
v 0.495956 0.373328 0.24945
v 0.495956 0.452385 0.187384
v 0.467205 0.478948 0.198387
v 0.426545 0.478948 0.198387
v 0.397794 0.452385 0.187384
v 0.397794 0.41482 0.171824
v 0.426545 0.388258 0.160822
v 0.467205 0.388258 0.160822
v 0.495956 0.41482 0.171824
v 0.495956 0.48025 0.095528
v 0.467205 0.508448 0.101137
v 0.426545 0.508448 0.101137
v 0.397794 0.48025 0.095528
v 0.397794 0.440371 0.087595
v 0.426545 0.412172 0.081986
v 0.467205 0.412172 0.081986
v 0.495956 0.440371 0.087595
v 0.495956 0.489658 0
v 0.467205 0.518409 0
v 0.426545 0.518409 0
v 0.397794 0.489658 0
v 0.397794 0.448998 0
v 0.426545 0.420247 0
v 0.467205 0.420247 0
v 0.495956 0.448998 0
v 0.602206 0 0.489658
v 0.573455 0 0.518409
v 0.532795 0 0.518409
v 0.504044 0 0.489658
v 0.504044 0 0.448998
v 0.532795 0 0.420247
v 0.573455 0 0.420247
v 0.602206 0 0.448998
v 0.602206 0.095528 0.48025
v 0.573455 0.101137 0.508448
v 0.532795 0.101137 0.508448
v 0.504044 0.095528 0.48025
v 0.504044 0.087595 0.440371
v 0.532795 0.081986 0.412172
v 0.573455 0.081986 0.412172
v 0.602206 0.087595 0.440371
v 0.602206 0.187384 0.452385
v 0.573455 0.198387 0.478948
v 0.532795 0.198387 0.478948
v 0.504044 0.187384 0.452385
v 0.504044 0.171824 0.41482
v 0.532795 0.160822 0.388258
v 0.573455 0.160822 0.388258
v 0.602206 0.171824 0.41482
v 0.602206 0.27204 0.407136
v 0.573455 0.288013 0.431042
v 0.532795 0.288013 0.431042
v 0.504044 0.27204 0.407136
v 0.504044 0.24945 0.373328
v 0.532795 0.233477 0.349423
v 0.573455 0.233477 0.349423
v 0.602206 0.24945 0.373328
v 0.602206 0.346241 0.346241
v 0.573455 0.366571 0.366571
v 0.532795 0.366571 0.366571
v 0.504044 0.346241 0.346241
v 0.504044 0.31749 0.31749
v 0.532795 0.29716 0.29716
v 0.573455 0.29716 0.29716
v 0.602206 0.31749 0.31749
v 0.602206 0.407136 0.27204
v 0.573455 0.431042 0.288013
v 0.532795 0.431042 0.288013
v 0.504044 0.407136 0.27204
v 0.504044 0.373328 0.24945
v 0.532795 0.349423 0.233477
v 0.573455 0.349423 0.233477
v 0.602206 0.373328 0.24945
v 0.602206 0.452385 0.187384
v 0.573455 0.478948 0.198387
v 0.532795 0.478948 0.198387
v 0.504044 0.452385 0.187384
v 0.504044 0.41482 0.171824
v 0.532795 0.388258 0.160822
v 0.573455 0.388258 0.160822
v 0.602206 0.41482 0.171824
v 0.602206 0.48025 0.095528
v 0.573455 0.508448 0.101137
v 0.532795 0.508448 0.101137
v 0.504044 0.48025 0.095528
v 0.504044 0.440371 0.087595
v 0.532795 0.412172 0.081986
v 0.573455 0.412172 0.081986
v 0.602206 0.440371 0.087595
v 0.602206 0.489658 0
v 0.573455 0.518409 0
v 0.532795 0.518409 0
v 0.504044 0.489658 0
v 0.504044 0.448998 0
v 0.532795 0.420247 0
v 0.573455 0.420247 0
v 0.602206 0.448998 0
v 0.623759 0.310218 0.349992
v 0.590598 0.269604 0.309378
v 0.533161 0.246155 0.28593
v 0.466839 0.246155 0.28593
v 0.409402 0.269604 0.309378
v 0.376241 0.310218 0.349992
v 0.376241 0.357115 0.396889
v 0.409402 0.397729 0.437503
v 0.466839 0.421177 0.460952
v 0.533161 0.421177 0.460952
v 0.590598 0.397729 0.437503
v 0.623759 0.357115 0.396889
v 0.623759 0.349992 0.310218
v 0.590598 0.309378 0.269604
v 0.533161 0.28593 0.246155
v 0.466839 0.28593 0.246155
v 0.409402 0.309378 0.269604
v 0.376241 0.349992 0.310218
v 0.376241 0.396889 0.357115
v 0.409402 0.437503 0.397729
v 0.466839 0.460952 0.421177
v 0.533161 0.460952 0.421177
v 0.590598 0.437503 0.397729
v 0.623759 0.396889 0.357115
v 0.5 0.333666 0.373441
v 0.623759 0.310218 0.349992
v 0.590598 0.269604 0.309378
v 0.533161 0.246155 0.28593
v 0.466839 0.246155 0.28593
v 0.409402 0.269604 0.309378
v 0.376241 0.310218 0.349992
v 0.376241 0.357115 0.396889
v 0.409402 0.397729 0.437503
v 0.466839 0.421177 0.460952
v 0.533161 0.421177 0.460952
v 0.590598 0.397729 0.437503
v 0.623759 0.357115 0.396889
v 0.5 0.373441 0.333666
v 0.623759 0.349992 0.310218
v 0.590598 0.309378 0.269604
v 0.533161 0.28593 0.246155
v 0.466839 0.28593 0.246155
v 0.409402 0.309378 0.269604
v 0.376241 0.349992 0.310218
v 0.376241 0.396889 0.357115
v 0.409402 0.437503 0.397729
v 0.466839 0.460952 0.421177
v 0.533161 0.460952 0.421177
v 0.590598 0.437503 0.397729
v 0.623759 0.396889 0.357115
vn 0.92388 0 0.382683
vn 0.382683 0 0.92388
vn -0.382683 0 0.92388
vn -0.92388 0 0.382683
vn -0.92388 0 -0.382683
vn -0.382683 0 -0.92388
vn 0.382683 0 -0.92388
vn 0.92388 0 -0.382683
vn 0.92388 0.074658 0.37533
vn 0.382683 0.18024 0.906127
vn -0.382683 0.18024 0.906127
vn -0.92388 0.074658 0.37533
vn -0.92388 -0.074658 -0.37533
vn -0.382683 -0.18024 -0.906127
vn 0.382683 -0.18024 -0.906127
vn 0.92388 -0.074658 -0.37533
vn 0.92388 0.146447 0.353553
vn 0.382683 0.353553 0.853553
vn -0.382683 0.353553 0.853553
vn -0.92388 0.146447 0.353553
vn -0.92388 -0.146447 -0.353553
vn -0.382683 -0.353553 -0.853553
vn 0.382683 -0.353553 -0.853553
vn 0.92388 -0.146447 -0.353553
vn 0.92388 0.212608 0.31819
vn 0.382683 0.51328 0.768178
vn -0.382683 0.51328 0.768178
vn -0.92388 0.212608 0.31819
vn -0.92388 -0.212608 -0.31819
vn -0.382683 -0.51328 -0.768178
vn 0.382683 -0.51328 -0.768178
vn 0.92388 -0.212608 -0.31819
vn 0.92388 0.270598 0.270598
vn 0.382683 0.653281 0.653281
vn -0.382683 0.653281 0.653281
vn -0.92388 0.270598 0.270598
vn -0.92388 -0.270598 -0.270598
vn -0.382683 -0.653281 -0.653281
vn 0.382683 -0.653281 -0.653281
vn 0.92388 -0.270598 -0.270598
vn 0.92388 0.31819 0.212608
vn 0.382683 0.768178 0.51328
vn -0.382683 0.768178 0.51328
vn -0.92388 0.31819 0.212608
vn -0.92388 -0.31819 -0.212608
vn -0.382683 -0.768178 -0.51328
vn 0.382683 -0.768178 -0.51328
vn 0.92388 -0.31819 -0.212608
vn 0.92388 0.353553 0.146447
vn 0.382683 0.853553 0.353553
vn -0.382683 0.853553 0.353553
vn -0.92388 0.353553 0.146447
vn -0.92388 -0.353553 -0.146447
vn -0.382683 -0.853553 -0.353553
vn 0.382683 -0.853553 -0.353553
vn 0.92388 -0.353553 -0.146447
vn 0.92388 0.37533 0.074658
vn 0.382683 0.906127 0.18024
vn -0.382683 0.906127 0.18024
vn -0.92388 0.37533 0.074658
vn -0.92388 -0.37533 -0.074658
vn -0.382683 -0.906127 -0.18024
vn 0.382683 -0.906127 -0.18024
vn 0.92388 -0.37533 -0.074658
vn 0.92388 0.382683 0
vn 0.382683 0.92388 0
vn -0.382683 0.92388 0
vn -0.92388 0.382683 0
vn -0.92388 -0.382683 0
vn -0.382683 -0.92388 0
vn 0.382683 -0.92388 0
vn 0.92388 -0.382683 0
vn 0.92388 0 0.382683
vn 0.382683 0 0.92388
vn -0.382683 0 0.92388
vn -0.92388 0 0.382683
vn -0.92388 0 -0.382683
vn -0.382683 0 -0.92388
vn 0.382683 0 -0.92388
vn 0.92388 0 -0.382683
vn 0.92388 0.074658 0.37533
vn 0.382683 0.18024 0.906127
vn -0.382683 0.18024 0.906127
vn -0.92388 0.074658 0.37533
vn -0.92388 -0.074658 -0.37533
vn -0.382683 -0.18024 -0.906127
vn 0.382683 -0.18024 -0.906127
vn 0.92388 -0.074658 -0.37533
vn 0.92388 0.146447 0.353553
vn 0.382683 0.353553 0.853553
vn -0.382683 0.353553 0.853553
vn -0.92388 0.146447 0.353553
vn -0.92388 -0.146447 -0.353553
vn -0.382683 -0.353553 -0.853553
vn 0.382683 -0.353553 -0.853553
vn 0.92388 -0.146447 -0.353553
vn 0.92388 0.212608 0.31819
vn 0.382683 0.51328 0.768178
vn -0.382683 0.51328 0.768178
vn -0.92388 0.212608 0.31819
vn -0.92388 -0.212608 -0.31819
vn -0.382683 -0.51328 -0.768178
vn 0.382683 -0.51328 -0.768178
vn 0.92388 -0.212608 -0.31819
vn 0.92388 0.270598 0.270598
vn 0.382683 0.653281 0.653281
vn -0.382683 0.653281 0.653281
vn -0.92388 0.270598 0.270598
vn -0.92388 -0.270598 -0.270598
vn -0.382683 -0.653281 -0.653281
vn 0.382683 -0.653281 -0.653281
vn 0.92388 -0.270598 -0.270598
vn 0.92388 0.31819 0.212608
vn 0.382683 0.768178 0.51328
vn -0.382683 0.768178 0.51328
vn -0.92388 0.31819 0.212608
vn -0.92388 -0.31819 -0.212608
vn -0.382683 -0.768178 -0.51328
vn 0.382683 -0.768178 -0.51328
vn 0.92388 -0.31819 -0.212608
vn 0.92388 0.353553 0.146447
vn 0.382683 0.853553 0.353553
vn -0.382683 0.853553 0.353553
vn -0.92388 0.353553 0.146447
vn -0.92388 -0.353553 -0.146447
vn -0.382683 -0.853553 -0.353553
vn 0.382683 -0.853553 -0.353553
vn 0.92388 -0.353553 -0.146447
vn 0.92388 0.37533 0.074658
vn 0.382683 0.906127 0.18024
vn -0.382683 0.906127 0.18024
vn -0.92388 0.37533 0.074658
vn -0.92388 -0.37533 -0.074658
vn -0.382683 -0.906127 -0.18024
vn 0.382683 -0.906127 -0.18024
vn 0.92388 -0.37533 -0.074658
vn 0.92388 0.382683 0
vn 0.382683 0.92388 0
vn -0.382683 0.92388 0
vn -0.92388 0.382683 0
vn -0.92388 -0.382683 0
vn -0.382683 -0.92388 0
vn 0.382683 -0.92388 0
vn 0.92388 -0.382683 0
vn 0.92388 0 0.382683
vn 0.382683 0 0.92388
vn -0.382683 0 0.92388
vn -0.92388 0 0.382683
vn -0.92388 0 -0.382683
vn -0.382683 0 -0.92388
vn 0.382683 0 -0.92388
vn 0.92388 0 -0.382683
vn 0.92388 0.074658 0.37533
vn 0.382683 0.18024 0.906127
vn -0.382683 0.18024 0.906127
vn -0.92388 0.074658 0.37533
vn -0.92388 -0.074658 -0.37533
vn -0.382683 -0.18024 -0.906127
vn 0.382683 -0.18024 -0.906127
vn 0.92388 -0.074658 -0.37533
vn 0.92388 0.146447 0.353553
vn 0.382683 0.353553 0.853553
vn -0.382683 0.353553 0.853553
vn -0.92388 0.146447 0.353553
vn -0.92388 -0.146447 -0.353553
vn -0.382683 -0.353553 -0.853553
vn 0.382683 -0.353553 -0.853553
vn 0.92388 -0.146447 -0.353553
vn 0.92388 0.212608 0.31819
vn 0.382683 0.51328 0.768178
vn -0.382683 0.51328 0.768178
vn -0.92388 0.212608 0.31819
vn -0.92388 -0.212608 -0.31819
vn -0.382683 -0.51328 -0.768178
vn 0.382683 -0.51328 -0.768178
vn 0.92388 -0.212608 -0.31819
vn 0.92388 0.270598 0.270598
vn 0.382683 0.653281 0.653281
vn -0.382683 0.653281 0.653281
vn -0.92388 0.270598 0.270598
vn -0.92388 -0.270598 -0.270598
vn -0.382683 -0.653281 -0.653281
vn 0.382683 -0.653281 -0.653281
vn 0.92388 -0.270598 -0.270598
vn 0.92388 0.31819 0.212608
vn 0.382683 0.768178 0.51328
vn -0.382683 0.768178 0.51328
vn -0.92388 0.31819 0.212608
vn -0.92388 -0.31819 -0.212608
vn -0.382683 -0.768178 -0.51328
vn 0.382683 -0.768178 -0.51328
vn 0.92388 -0.31819 -0.212608
vn 0.92388 0.353553 0.146447
vn 0.382683 0.853553 0.353553
vn -0.382683 0.853553 0.353553
vn -0.92388 0.353553 0.146447
vn -0.92388 -0.353553 -0.146447
vn -0.382683 -0.853553 -0.353553
vn 0.382683 -0.853553 -0.353553
vn 0.92388 -0.353553 -0.146447
vn 0.92388 0.37533 0.074658
vn 0.382683 0.906127 0.18024
vn -0.382683 0.906127 0.18024
vn -0.92388 0.37533 0.074658
vn -0.92388 -0.37533 -0.074658
vn -0.382683 -0.906127 -0.18024
vn 0.382683 -0.906127 -0.18024
vn 0.92388 -0.37533 -0.074658
vn 0.92388 0.382683 0
vn 0.382683 0.92388 0
vn -0.382683 0.92388 0
vn -0.92388 0.382683 0
vn -0.92388 -0.382683 0
vn -0.382683 -0.92388 0
vn 0.382683 -0.92388 0
vn 0.92388 -0.382683 0
vn 0.965926 -0.183013 -0.183013
vn 0.707107 -0.5 -0.5
vn 0.258819 -0.683013 -0.683013
vn -0.258819 -0.683013 -0.683013
vn -0.707107 -0.5 -0.5
vn -0.965926 -0.183013 -0.183013
vn -0.965926 0.183013 0.183013
vn -0.707107 0.5 0.5
vn -0.258819 0.683013 0.683013
vn 0.258819 0.683013 0.683013
vn 0.707107 0.5 0.5
vn 0.965926 0.183013 0.183013
vn 0.965926 -0.183013 -0.183013
vn 0.707107 -0.5 -0.5
vn 0.258819 -0.683013 -0.683013
vn -0.258819 -0.683013 -0.683013
vn -0.707107 -0.5 -0.5
vn -0.965926 -0.183013 -0.183013
vn -0.965926 0.183013 0.183013
vn -0.707107 0.5 0.5
vn -0.258819 0.683013 0.683013
vn 0.258819 0.683013 0.683013
vn 0.707107 0.5 0.5
vn 0.965926 0.183013 0.183013
vn 0 -0.707107 0.707107
vn 0 -0.707107 0.707107
vn 0 -0.707107 0.707107
vn 0 -0.707107 0.707107
vn 0 -0.707107 0.707107
vn 0 -0.707107 0.707107
vn 0 -0.707107 0.707107
vn 0 -0.707107 0.707107
vn 0 -0.707107 0.707107
vn 0 -0.707107 0.707107
vn 0 -0.707107 0.707107
vn 0 -0.707107 0.707107
vn 0 -0.707107 0.707107
vn 0 0.707107 -0.707107
vn 0 0.707107 -0.707107
vn 0 0.707107 -0.707107
vn 0 0.707107 -0.707107
vn 0 0.707107 -0.707107
vn 0 0.707107 -0.707107
vn 0 0.707107 -0.707107
vn 0 0.707107 -0.707107
vn 0 0.707107 -0.707107
vn 0 0.707107 -0.707107
vn 0 0.707107 -0.707107
vn 0 0.707107 -0.707107
vn 0 0.707107 -0.707107
vt 0.0625 0.9375
vt 0.1875 0.9375
vt 0.3125 0.9375
vt 0.4375 0.9375
vt 0.5625 0.9375
vt 0.6875 0.9375
vt 0.8125 0.9375
f 1/1/1 9/1/9 10/1/10
f 1/1/1 10/1/10 2/1/2
f 2/1/2 10/1/10 11/1/11
f 2/1/2 11/1/11 3/1/3
f 3/1/3 11/1/11 12/1/12
f 3/1/3 12/1/12 4/1/4
f 4/1/4 12/1/12 13/1/13
f 4/1/4 13/1/13 5/1/5
f 5/1/5 13/1/13 14/1/14
f 5/1/5 14/1/14 6/1/6
f 6/1/6 14/1/14 15/1/15
f 6/1/6 15/1/15 7/1/7
f 7/1/7 15/1/15 16/1/16
f 7/1/7 16/1/16 8/1/8
f 8/1/8 16/1/16 9/1/9
f 8/1/8 9/1/9 1/1/1
f 9/1/9 17/1/17 18/1/18
f 9/1/9 18/1/18 10/1/10
f 10/1/10 18/1/18 19/1/19
f 10/1/10 19/1/19 11/1/11
f 11/1/11 19/1/19 20/1/20
f 11/1/11 20/1/20 12/1/12
f 12/1/12 20/1/20 21/1/21
f 12/1/12 21/1/21 13/1/13
f 13/1/13 21/1/21 22/1/22
f 13/1/13 22/1/22 14/1/14
f 14/1/14 22/1/22 23/1/23
f 14/1/14 23/1/23 15/1/15
f 15/1/15 23/1/23 24/1/24
f 15/1/15 24/1/24 16/1/16
f 16/1/16 24/1/24 17/1/17
f 16/1/16 17/1/17 9/1/9
f 17/1/17 25/1/25 26/1/26
f 17/1/17 26/1/26 18/1/18
f 18/1/18 26/1/26 27/1/27
f 18/1/18 27/1/27 19/1/19
f 19/1/19 27/1/27 28/1/28
f 19/1/19 28/1/28 20/1/20
f 20/1/20 28/1/28 29/1/29
f 20/1/20 29/1/29 21/1/21
f 21/1/21 29/1/29 30/1/30
f 21/1/21 30/1/30 22/1/22
f 22/1/22 30/1/30 31/1/31
f 22/1/22 31/1/31 23/1/23
f 23/1/23 31/1/31 32/1/32
f 23/1/23 32/1/32 24/1/24
f 24/1/24 32/1/32 25/1/25
f 24/1/24 25/1/25 17/1/17
f 25/1/25 33/1/33 34/1/34
f 25/1/25 34/1/34 26/1/26
f 26/1/26 34/1/34 35/1/35
f 26/1/26 35/1/35 27/1/27
f 27/1/27 35/1/35 36/1/36
f 27/1/27 36/1/36 28/1/28
f 28/1/28 36/1/36 37/1/37
f 28/1/28 37/1/37 29/1/29
f 29/1/29 37/1/37 38/1/38
f 29/1/29 38/1/38 30/1/30
f 30/1/30 38/1/38 39/1/39
f 30/1/30 39/1/39 31/1/31
f 31/1/31 39/1/39 40/1/40
f 31/1/31 40/1/40 32/1/32
f 32/1/32 40/1/40 33/1/33
f 32/1/32 33/1/33 25/1/25
f 33/1/33 41/1/41 42/1/42
f 33/1/33 42/1/42 34/1/34
f 34/1/34 42/1/42 43/1/43
f 34/1/34 43/1/43 35/1/35
f 35/1/35 43/1/43 44/1/44
f 35/1/35 44/1/44 36/1/36
f 36/1/36 44/1/44 45/1/45
f 36/1/36 45/1/45 37/1/37
f 37/1/37 45/1/45 46/1/46
f 37/1/37 46/1/46 38/1/38
f 38/1/38 46/1/46 47/1/47
f 38/1/38 47/1/47 39/1/39
f 39/1/39 47/1/47 48/1/48
f 39/1/39 48/1/48 40/1/40
f 40/1/40 48/1/48 41/1/41
f 40/1/40 41/1/41 33/1/33
f 41/1/41 49/1/49 50/1/50
f 41/1/41 50/1/50 42/1/42
f 42/1/42 50/1/50 51/1/51
f 42/1/42 51/1/51 43/1/43
f 43/1/43 51/1/51 52/1/52
f 43/1/43 52/1/52 44/1/44
f 44/1/44 52/1/52 53/1/53
f 44/1/44 53/1/53 45/1/45
f 45/1/45 53/1/53 54/1/54
f 45/1/45 54/1/54 46/1/46
f 46/1/46 54/1/54 55/1/55
f 46/1/46 55/1/55 47/1/47
f 47/1/47 55/1/55 56/1/56
f 47/1/47 56/1/56 48/1/48
f 48/1/48 56/1/56 49/1/49
f 48/1/48 49/1/49 41/1/41
f 49/1/49 57/1/57 58/1/58
f 49/1/49 58/1/58 50/1/50
f 50/1/50 58/1/58 59/1/59
f 50/1/50 59/1/59 51/1/51
f 51/1/51 59/1/59 60/1/60
f 51/1/51 60/1/60 52/1/52
f 52/1/52 60/1/60 61/1/61
f 52/1/52 61/1/61 53/1/53
f 53/1/53 61/1/61 62/1/62
f 53/1/53 62/1/62 54/1/54
f 54/1/54 62/1/62 63/1/63
f 54/1/54 63/1/63 55/1/55
f 55/1/55 63/1/63 64/1/64
f 55/1/55 64/1/64 56/1/56
f 56/1/56 64/1/64 57/1/57
f 56/1/56 57/1/57 49/1/49
f 57/1/57 65/1/65 66/1/66
f 57/1/57 66/1/66 58/1/58
f 58/1/58 66/1/66 67/1/67
f 58/1/58 67/1/67 59/1/59
f 59/1/59 67/1/67 68/1/68
f 59/1/59 68/1/68 60/1/60
f 60/1/60 68/1/68 69/1/69
f 60/1/60 69/1/69 61/1/61
f 61/1/61 69/1/69 70/1/70
f 61/1/61 70/1/70 62/1/62
f 62/1/62 70/1/70 71/1/71
f 62/1/62 71/1/71 63/1/63
f 63/1/63 71/1/71 72/1/72
f 63/1/63 72/1/72 64/1/64
f 64/1/64 72/1/72 65/1/65
f 64/1/64 65/1/65 57/1/57
f 73/1/73 81/1/81 82/1/82
f 73/1/73 82/1/82 74/1/74
f 74/1/74 82/1/82 83/1/83
f 74/1/74 83/1/83 75/1/75
f 75/1/75 83/1/83 84/1/84
f 75/1/75 84/1/84 76/1/76
f 76/1/76 84/1/84 85/1/85
f 76/1/76 85/1/85 77/1/77
f 77/1/77 85/1/85 86/1/86
f 77/1/77 86/1/86 78/1/78
f 78/1/78 86/1/86 87/1/87
f 78/1/78 87/1/87 79/1/79
f 79/1/79 87/1/87 88/1/88
f 79/1/79 88/1/88 80/1/80
f 80/1/80 88/1/88 81/1/81
f 80/1/80 81/1/81 73/1/73
f 81/1/81 89/1/89 90/1/90
f 81/1/81 90/1/90 82/1/82
f 82/1/82 90/1/90 91/1/91
f 82/1/82 91/1/91 83/1/83
f 83/1/83 91/1/91 92/1/92
f 83/1/83 92/1/92 84/1/84
f 84/1/84 92/1/92 93/1/93
f 84/1/84 93/1/93 85/1/85
f 85/1/85 93/1/93 94/1/94
f 85/1/85 94/1/94 86/1/86
f 86/1/86 94/1/94 95/1/95
f 86/1/86 95/1/95 87/1/87
f 87/1/87 95/1/95 96/1/96
f 87/1/87 96/1/96 88/1/88
f 88/1/88 96/1/96 89/1/89
f 88/1/88 89/1/89 81/1/81
f 89/1/89 97/1/97 98/1/98
f 89/1/89 98/1/98 90/1/90
f 90/1/90 98/1/98 99/1/99
f 90/1/90 99/1/99 91/1/91
f 91/1/91 99/1/99 100/1/100
f 91/1/91 100/1/100 92/1/92
f 92/1/92 100/1/100 101/1/101
f 92/1/92 101/1/101 93/1/93
f 93/1/93 101/1/101 102/1/102
f 93/1/93 102/1/102 94/1/94
f 94/1/94 102/1/102 103/1/103
f 94/1/94 103/1/103 95/1/95
f 95/1/95 103/1/103 104/1/104
f 95/1/95 104/1/104 96/1/96
f 96/1/96 104/1/104 97/1/97
f 96/1/96 97/1/97 89/1/89
f 97/1/97 105/1/105 106/1/106
f 97/1/97 106/1/106 98/1/98
f 98/1/98 106/1/106 107/1/107
f 98/1/98 107/1/107 99/1/99
f 99/1/99 107/1/107 108/1/108
f 99/1/99 108/1/108 100/1/100
f 100/1/100 108/1/108 109/1/109
f 100/1/100 109/1/109 101/1/101
f 101/1/101 109/1/109 110/1/110
f 101/1/101 110/1/110 102/1/102
f 102/1/102 110/1/110 111/1/111
f 102/1/102 111/1/111 103/1/103
f 103/1/103 111/1/111 112/1/112
f 103/1/103 112/1/112 104/1/104
f 104/1/104 112/1/112 105/1/105
f 104/1/104 105/1/105 97/1/97
f 105/1/105 113/1/113 114/1/114
f 105/1/105 114/1/114 106/1/106
f 106/1/106 114/1/114 115/1/115
f 106/1/106 115/1/115 107/1/107
f 107/1/107 115/1/115 116/1/116
f 107/1/107 116/1/116 108/1/108
f 108/1/108 116/1/116 117/1/117
f 108/1/108 117/1/117 109/1/109
f 109/1/109 117/1/117 118/1/118
f 109/1/109 118/1/118 110/1/110
f 110/1/110 118/1/118 119/1/119
f 110/1/110 119/1/119 111/1/111
f 111/1/111 119/1/119 120/1/120
f 111/1/111 120/1/120 112/1/112
f 112/1/112 120/1/120 113/1/113
f 112/1/112 113/1/113 105/1/105
f 113/1/113 121/1/121 122/1/122
f 113/1/113 122/1/122 114/1/114
f 114/1/114 122/1/122 123/1/123
f 114/1/114 123/1/123 115/1/115
f 115/1/115 123/1/123 124/1/124
f 115/1/115 124/1/124 116/1/116
f 116/1/116 124/1/124 125/1/125
f 116/1/116 125/1/125 117/1/117
f 117/1/117 125/1/125 126/1/126
f 117/1/117 126/1/126 118/1/118
f 118/1/118 126/1/126 127/1/127
f 118/1/118 127/1/127 119/1/119
f 119/1/119 127/1/127 128/1/128
f 119/1/119 128/1/128 120/1/120
f 120/1/120 128/1/128 121/1/121
f 120/1/120 121/1/121 113/1/113
f 121/1/121 129/1/129 130/1/130
f 121/1/121 130/1/130 122/1/122
f 122/1/122 130/1/130 131/1/131
f 122/1/122 131/1/131 123/1/123
f 123/1/123 131/1/131 132/1/132
f 123/1/123 132/1/132 124/1/124
f 124/1/124 132/1/132 133/1/133
f 124/1/124 133/1/133 125/1/125
f 125/1/125 133/1/133 134/1/134
f 125/1/125 134/1/134 126/1/126
f 126/1/126 134/1/134 135/1/135
f 126/1/126 135/1/135 127/1/127
f 127/1/127 135/1/135 136/1/136
f 127/1/127 136/1/136 128/1/128
f 128/1/128 136/1/136 129/1/129
f 128/1/128 129/1/129 121/1/121
f 129/1/129 137/1/137 138/1/138
f 129/1/129 138/1/138 130/1/130
f 130/1/130 138/1/138 139/1/139
f 130/1/130 139/1/139 131/1/131
f 131/1/131 139/1/139 140/1/140
f 131/1/131 140/1/140 132/1/132
f 132/1/132 140/1/140 141/1/141
f 132/1/132 141/1/141 133/1/133
f 133/1/133 141/1/141 142/1/142
f 133/1/133 142/1/142 134/1/134
f 134/1/134 142/1/142 143/1/143
f 134/1/134 143/1/143 135/1/135
f 135/1/135 143/1/143 144/1/144
f 135/1/135 144/1/144 136/1/136
f 136/1/136 144/1/144 137/1/137
f 136/1/136 137/1/137 129/1/129
f 145/1/145 153/1/153 154/1/154
f 145/1/145 154/1/154 146/1/146
f 146/1/146 154/1/154 155/1/155
f 146/1/146 155/1/155 147/1/147
f 147/1/147 155/1/155 156/1/156
f 147/1/147 156/1/156 148/1/148
f 148/1/148 156/1/156 157/1/157
f 148/1/148 157/1/157 149/1/149
f 149/1/149 157/1/157 158/1/158
f 149/1/149 158/1/158 150/1/150
f 150/1/150 158/1/158 159/1/159
f 150/1/150 159/1/159 151/1/151
f 151/1/151 159/1/159 160/1/160
f 151/1/151 160/1/160 152/1/152
f 152/1/152 160/1/160 153/1/153
f 152/1/152 153/1/153 145/1/145
f 153/1/153 161/1/161 162/1/162
f 153/1/153 162/1/162 154/1/154
f 154/1/154 162/1/162 163/1/163
f 154/1/154 163/1/163 155/1/155
f 155/1/155 163/1/163 164/1/164
f 155/1/155 164/1/164 156/1/156
f 156/1/156 164/1/164 165/1/165
f 156/1/156 165/1/165 157/1/157
f 157/1/157 165/1/165 166/1/166
f 157/1/157 166/1/166 158/1/158
f 158/1/158 166/1/166 167/1/167
f 158/1/158 167/1/167 159/1/159
f 159/1/159 167/1/167 168/1/168
f 159/1/159 168/1/168 160/1/160
f 160/1/160 168/1/168 161/1/161
f 160/1/160 161/1/161 153/1/153
f 161/1/161 169/1/169 170/1/170
f 161/1/161 170/1/170 162/1/162
f 162/1/162 170/1/170 171/1/171
f 162/1/162 171/1/171 163/1/163
f 163/1/163 171/1/171 172/1/172
f 163/1/163 172/1/172 164/1/164
f 164/1/164 172/1/172 173/1/173
f 164/1/164 173/1/173 165/1/165
f 165/1/165 173/1/173 174/1/174
f 165/1/165 174/1/174 166/1/166
f 166/1/166 174/1/174 175/1/175
f 166/1/166 175/1/175 167/1/167
f 167/1/167 175/1/175 176/1/176
f 167/1/167 176/1/176 168/1/168
f 168/1/168 176/1/176 169/1/169
f 168/1/168 169/1/169 161/1/161
f 169/1/169 177/1/177 178/1/178
f 169/1/169 178/1/178 170/1/170
f 170/1/170 178/1/178 179/1/179
f 170/1/170 179/1/179 171/1/171
f 171/1/171 179/1/179 180/1/180
f 171/1/171 180/1/180 172/1/172
f 172/1/172 180/1/180 181/1/181
f 172/1/172 181/1/181 173/1/173
f 173/1/173 181/1/181 182/1/182
f 173/1/173 182/1/182 174/1/174
f 174/1/174 182/1/182 183/1/183
f 174/1/174 183/1/183 175/1/175
f 175/1/175 183/1/183 184/1/184
f 175/1/175 184/1/184 176/1/176
f 176/1/176 184/1/184 177/1/177
f 176/1/176 177/1/177 169/1/169
f 177/1/177 185/1/185 186/1/186
f 177/1/177 186/1/186 178/1/178
f 178/1/178 186/1/186 187/1/187
f 178/1/178 187/1/187 179/1/179
f 179/1/179 187/1/187 188/1/188
f 179/1/179 188/1/188 180/1/180
f 180/1/180 188/1/188 189/1/189
f 180/1/180 189/1/189 181/1/181
f 181/1/181 189/1/189 190/1/190
f 181/1/181 190/1/190 182/1/182
f 182/1/182 190/1/190 191/1/191
f 182/1/182 191/1/191 183/1/183
f 183/1/183 191/1/191 192/1/192
f 183/1/183 192/1/192 184/1/184
f 184/1/184 192/1/192 185/1/185
f 184/1/184 185/1/185 177/1/177
f 185/1/185 193/1/193 194/1/194
f 185/1/185 194/1/194 186/1/186
f 186/1/186 194/1/194 195/1/195
f 186/1/186 195/1/195 187/1/187
f 187/1/187 195/1/195 196/1/196
f 187/1/187 196/1/196 188/1/188
f 188/1/188 196/1/196 197/1/197
f 188/1/188 197/1/197 189/1/189
f 189/1/189 197/1/197 198/1/198
f 189/1/189 198/1/198 190/1/190
f 190/1/190 198/1/198 199/1/199
f 190/1/190 199/1/199 191/1/191
f 191/1/191 199/1/199 200/1/200
f 191/1/191 200/1/200 192/1/192
f 192/1/192 200/1/200 193/1/193
f 192/1/192 193/1/193 185/1/185
f 193/1/193 201/1/201 202/1/202
f 193/1/193 202/1/202 194/1/194
f 194/1/194 202/1/202 203/1/203
f 194/1/194 203/1/203 195/1/195
f 195/1/195 203/1/203 204/1/204
f 195/1/195 204/1/204 196/1/196
f 196/1/196 204/1/204 205/1/205
f 196/1/196 205/1/205 197/1/197
f 197/1/197 205/1/205 206/1/206
f 197/1/197 206/1/206 198/1/198
f 198/1/198 206/1/206 207/1/207
f 198/1/198 207/1/207 199/1/199
f 199/1/199 207/1/207 208/1/208
f 199/1/199 208/1/208 200/1/200
f 200/1/200 208/1/208 201/1/201
f 200/1/200 201/1/201 193/1/193
f 201/1/201 209/1/209 210/1/210
f 201/1/201 210/1/210 202/1/202
f 202/1/202 210/1/210 211/1/211
f 202/1/202 211/1/211 203/1/203
f 203/1/203 211/1/211 212/1/212
f 203/1/203 212/1/212 204/1/204
f 204/1/204 212/1/212 213/1/213
f 204/1/204 213/1/213 205/1/205
f 205/1/205 213/1/213 214/1/214
f 205/1/205 214/1/214 206/1/206
f 206/1/206 214/1/214 215/1/215
f 206/1/206 215/1/215 207/1/207
f 207/1/207 215/1/215 216/1/216
f 207/1/207 216/1/216 208/1/208
f 208/1/208 216/1/216 209/1/209
f 208/1/208 209/1/209 201/1/201
f 218/2/218 230/2/230 229/2/229 217/2/217
f 219/2/219 231/2/231 230/2/230 218/2/218
f 220/2/220 232/2/232 231/2/231 219/2/219
f 221/2/221 233/2/233 232/2/232 220/2/220
f 222/2/222 234/2/234 233/2/233 221/2/221
f 223/2/223 235/2/235 234/2/234 222/2/222
f 224/2/224 236/2/236 235/2/235 223/2/223
f 225/2/225 237/2/237 236/2/236 224/2/224
f 226/2/226 238/2/238 237/2/237 225/2/225
f 227/2/227 239/2/239 238/2/238 226/2/226
f 228/2/228 240/2/240 239/2/239 227/2/227
f 217/2/217 229/2/229 240/2/240 228/2/228
f 241/2/241 243/2/243 242/2/242
f 241/2/241 244/2/244 243/2/243
f 241/2/241 245/2/245 244/2/244
f 241/2/241 246/2/246 245/2/245
f 241/2/241 247/2/247 246/2/246
f 241/2/241 248/2/248 247/2/247
f 241/2/241 249/2/249 248/2/248
f 241/2/241 250/2/250 249/2/249
f 241/2/241 251/2/251 250/2/250
f 241/2/241 252/2/252 251/2/251
f 241/2/241 253/2/253 252/2/252
f 241/2/241 242/2/242 253/2/253
f 254/2/254 255/2/255 256/2/256
f 254/2/254 256/2/256 257/2/257
f 254/2/254 257/2/257 258/2/258
f 254/2/254 258/2/258 259/2/259
f 254/2/254 259/2/259 260/2/260
f 254/2/254 260/2/260 261/2/261
f 254/2/254 261/2/261 262/2/262
f 254/2/254 262/2/262 263/2/263
f 254/2/254 263/2/263 264/2/264
f 254/2/254 264/2/264 265/2/265
f 254/2/254 265/2/265 266/2/266
f 254/2/254 266/2/266 255/2/255
