# AFL Power Cable V2 piece bend_up_north, generated by tools/build-power-cable-v2.mjs
mtllib power_cable.mtl
o bend_up_north
usemtl cable
v 0.549081 1 0.581674
v 0.52033 1 0.610425
v 0.47967 1 0.610425
v 0.450919 1 0.581674
v 0.450919 1 0.541013
v 0.47967 1 0.512262
v 0.52033 1 0.512262
v 0.549081 1 0.541013
v 0.559322 0.887907 0.563528
v 0.534569 0.881614 0.595166
v 0.494257 0.880579 0.600372
v 0.461999 0.885408 0.576095
v 0.456692 0.893272 0.536557
v 0.481444 0.899565 0.504919
v 0.521757 0.900601 0.499714
v 0.554015 0.895772 0.523991
v 0.568547 0.783329 0.523089
v 0.548217 0.769854 0.555621
v 0.508943 0.765827 0.565344
v 0.47373 0.773607 0.546561
v 0.463206 0.788637 0.510276
v 0.483536 0.802112 0.477744
v 0.522811 0.806139 0.468021
v 0.558024 0.798359 0.486804
v 0.5766 0.690729 0.462857
v 0.56104 0.669858 0.494092
v 0.523475 0.661214 0.507029
v 0.48591 0.669858 0.494092
v 0.47035 0.690729 0.462857
v 0.48591 0.711599 0.431623
v 0.523475 0.720243 0.418686
v 0.56104 0.711599 0.431623
v 0.583342 0.613785 0.386215
v 0.572819 0.586013 0.413987
v 0.537606 0.571638 0.428362
v 0.498331 0.579079 0.420921
v 0.478001 0.603978 0.396022
v 0.488525 0.63175 0.36825
v 0.523738 0.646125 0.353875
v 0.563012 0.638684 0.361316
v 0.588658 0.555233 0.297184
v 0.583351 0.521714 0.31958
v 0.551093 0.501133 0.333332
v 0.510781 0.505546 0.330384
v 0.486029 0.532368 0.312462
v 0.491336 0.565886 0.290066
v 0.523594 0.586467 0.276314
v 0.563906 0.582054 0.279263
v 0.592457 0.516768 0.200161
v 0.592457 0.479203 0.215721
v 0.563706 0.452641 0.226724
v 0.523046 0.452641 0.226724
v 0.494295 0.479203 0.215721
v 0.494295 0.516768 0.200161
v 0.523046 0.543331 0.189159
v 0.563706 0.543331 0.189159
v 0.594675 0.499033 0.099648
v 0.599982 0.459496 0.107513
v 0.57523 0.427858 0.113806
v 0.534917 0.422653 0.114842
v 0.502659 0.446929 0.110013
v 0.497352 0.486467 0.102148
v 0.522105 0.518105 0.095855
v 0.562417 0.52331 0.09482
v 0.595272 0.501669 0
v 0.605796 0.462394 0
v 0.585465 0.427181 0
v 0.546191 0.416658 0
v 0.510978 0.436988 0
v 0.500454 0.476262 0
v 0.520785 0.511475 0
v 0.560059 0.521999 0
v 0.495956 1 0.489658
v 0.467205 1 0.518409
v 0.426545 1 0.518409
v 0.397794 1 0.489658
v 0.397794 1 0.448998
v 0.426545 1 0.420247
v 0.467205 1 0.420247
v 0.495956 1 0.448998
v 0.494641 0.904352 0.480854
v 0.469889 0.898059 0.512492
v 0.429576 0.897024 0.517697
v 0.397318 0.901853 0.493421
v 0.392011 0.909717 0.453883
v 0.416764 0.91601 0.422245
v 0.457076 0.917046 0.41704
v 0.489334 0.912217 0.441316
v 0.493417 0.81208 0.453678
v 0.473087 0.798605 0.48621
v 0.433813 0.794578 0.495933
v 0.3986 0.802358 0.47715
v 0.388076 0.817388 0.440865
v 0.408406 0.830863 0.408333
v 0.447681 0.83489 0.39861
v 0.482894 0.82711 0.417393
v 0.492306 0.726663 0.409077
v 0.476746 0.705793 0.440311
v 0.439181 0.697149 0.453249
v 0.401616 0.705793 0.440311
v 0.386056 0.726663 0.409077
v 0.401616 0.747533 0.377843
v 0.439181 0.756178 0.364905
v 0.476746 0.747533 0.377843
v 0.491327 0.65135 0.34865
v 0.480803 0.623578 0.376422
v 0.445591 0.609203 0.390797
v 0.406316 0.616644 0.383356
v 0.385986 0.641543 0.358457
v 0.39651 0.669315 0.330685
v 0.431722 0.68369 0.31631
v 0.470997 0.676249 0.323751
v 0.490496 0.58904 0.274595
v 0.485189 0.555522 0.296991
v 0.452931 0.534941 0.310743
v 0.412619 0.539354 0.307794
v 0.387867 0.566175 0.289872
v 0.393174 0.599694 0.267476
v 0.425432 0.620274 0.253725
v 0.465744 0.615862 0.256673
v 0.489828 0.542174 0.189638
v 0.489828 0.504609 0.205198
v 0.461077 0.478047 0.2162
v 0.420417 0.478047 0.2162
v 0.391666 0.504609 0.205198
v 0.391666 0.542174 0.189638
v 0.420417 0.568737 0.178635
v 0.461077 0.568737 0.178635
v 0.489334 0.512635 0.096943
v 0.494641 0.473098 0.104807
v 0.469889 0.44146 0.111101
v 0.429576 0.436254 0.112136
v 0.397318 0.460531 0.107307
v 0.392011 0.500069 0.099442
v 0.416764 0.531707 0.093149
v 0.457076 0.536912 0.092114
v 0.489022 0.501669 0
v 0.499546 0.462394 0
v 0.479215 0.427181 0
v 0.439941 0.416658 0
v 0.404728 0.436988 0
v 0.394204 0.476262 0
v 0.414535 0.511475 0
v 0.453809 0.521999 0
v 0.602206 1 0.489658
v 0.573455 1 0.518409
v 0.532795 1 0.518409
v 0.504044 1 0.489658
v 0.504044 1 0.448998
v 0.532795 1 0.420247
v 0.573455 1 0.420247
v 0.602206 1 0.448998
v 0.599982 0.907058 0.467252
v 0.57523 0.900765 0.49889
v 0.534917 0.899729 0.504095
v 0.502659 0.904558 0.479819
v 0.497352 0.912423 0.440281
v 0.522105 0.918716 0.408643
v 0.562417 0.919751 0.403438
v 0.594675 0.914922 0.427715
v 0.596047 0.822604 0.428272
v 0.575717 0.809129 0.460804
v 0.536442 0.805102 0.470526
v 0.501229 0.812882 0.451744
v 0.490706 0.827911 0.415459
v 0.511036 0.841387 0.382927
v 0.550311 0.845414 0.373204
v 0.585523 0.837634 0.391987
v 0.590469 0.749253 0.37527
v 0.574909 0.728383 0.406504
v 0.537344 0.719738 0.419441
v 0.499778 0.728383 0.406504
v 0.484219 0.749253 0.37527
v 0.499778 0.770123 0.344035
v 0.537344 0.778768 0.331098
v 0.574909 0.770123 0.344035
v 0.583342 0.688915 0.311085
v 0.572819 0.661144 0.338856
v 0.537606 0.646768 0.353232
v 0.498331 0.654209 0.345791
v 0.478001 0.679108 0.320892
v 0.488525 0.70688 0.29312
v 0.523738 0.721255 0.278745
v 0.563012 0.713814 0.286186
v 0.57479 0.64282 0.23866
v 0.569483 0.609302 0.261056
v 0.537225 0.588721 0.274808
v 0.496913 0.593134 0.271859
v 0.47216 0.619955 0.253938
v 0.477468 0.653474 0.231541
v 0.509725 0.674055 0.21779
v 0.550038 0.669642 0.220738
v 0.564958 0.611586 0.160887
v 0.564958 0.574021 0.176446
v 0.536207 0.547458 0.187449
v 0.495547 0.547458 0.187449
v 0.466796 0.574021 0.176446
v 0.466796 0.611586 0.160887
v 0.495547 0.638148 0.149884
v 0.536207 0.638148 0.149884
v 0.554015 0.59531 0.080498
v 0.559322 0.555772 0.088362
v 0.534569 0.524134 0.094656
v 0.494257 0.518929 0.095691
v 0.461999 0.543205 0.090862
v 0.456692 0.582743 0.082998
v 0.481444 0.614381 0.076704
v 0.521757 0.619586 0.075669
v 0.542147 0.593684 0
v 0.552671 0.554409 0
v 0.53234 0.519197 0
v 0.493066 0.508673 0
v 0.457853 0.529003 0
v 0.447329 0.568278 0
v 0.46766 0.60349 0
v 0.506934 0.614014 0
v 0.623759 0.642885 0.396889
v 0.590598 0.602271 0.437503
v 0.533161 0.578823 0.460952
v 0.466839 0.578823 0.460952
v 0.409402 0.602271 0.437503
v 0.376241 0.642885 0.396889
v 0.376241 0.689782 0.349992
v 0.409402 0.730396 0.309378
v 0.466839 0.753845 0.28593
v 0.533161 0.753845 0.28593
v 0.590598 0.730396 0.309378
v 0.623759 0.689782 0.349992
v 0.623759 0.603111 0.357115
v 0.590598 0.562497 0.397729
v 0.533161 0.539048 0.421177
v 0.466839 0.539048 0.421177
v 0.409402 0.562497 0.397729
v 0.376241 0.603111 0.357115
v 0.376241 0.650008 0.310218
v 0.409402 0.690622 0.269604
v 0.466839 0.71407 0.246155
v 0.533161 0.71407 0.246155
v 0.590598 0.690622 0.269604
v 0.623759 0.650008 0.310218
v 0.5 0.666334 0.373441
v 0.623759 0.642885 0.396889
v 0.590598 0.602271 0.437503
v 0.533161 0.578823 0.460952
v 0.466839 0.578823 0.460952
v 0.409402 0.602271 0.437503
v 0.376241 0.642885 0.396889
v 0.376241 0.689782 0.349992
v 0.409402 0.730396 0.309378
v 0.466839 0.753845 0.28593
v 0.533161 0.753845 0.28593
v 0.590598 0.730396 0.309378
v 0.623759 0.689782 0.349992
v 0.5 0.626559 0.333666
v 0.623759 0.603111 0.357115
v 0.590598 0.562497 0.397729
v 0.533161 0.539048 0.421177
v 0.466839 0.539048 0.421177
v 0.409402 0.562497 0.397729
v 0.376241 0.603111 0.357115
v 0.376241 0.650008 0.310218
v 0.409402 0.690622 0.269604
v 0.466839 0.71407 0.246155
v 0.533161 0.71407 0.246155
v 0.590598 0.690622 0.269604
v 0.623759 0.650008 0.310218
vn 0.92388 0 0.382683
vn 0.382683 0 0.92388
vn -0.382683 0 0.92388
vn -0.92388 0 0.382683
vn -0.92388 0 -0.382683
vn -0.382683 0 -0.92388
vn 0.382683 0 -0.92388
vn 0.92388 0 -0.382683
vn 0.965926 -0.050493 0.253846
vn 0.5 -0.168953 0.849385
vn -0.258819 -0.188443 0.947366
vn -0.866025 -0.097545 0.490393
vn -0.965926 0.050493 -0.253846
vn -0.5 0.168953 -0.849385
vn 0.258819 0.188443 -0.947366
vn 0.866025 0.097545 -0.490393
vn 0.991445 -0.04995 0.12059
vn 0.608761 -0.303603 0.732963
vn -0.130526 -0.37941 0.915976
vn -0.793353 -0.232963 0.562422
vn -0.991445 0.04995 -0.12059
vn -0.608761 0.303603 -0.732963
vn 0.130526 0.37941 -0.915976
vn 0.793353 0.232963 -0.562422
vn 1 0 0
vn 0.707107 -0.392847 0.587938
vn 0 -0.55557 0.83147
vn -0.707107 -0.392847 0.587938
vn -1 0 0
vn -0.707107 0.392847 -0.587938
vn 0 0.55557 -0.83147
vn 0.707107 0.392847 -0.587938
vn 0.991445 0.092296 -0.092296
vn 0.793353 -0.430459 0.430459
vn 0.130526 -0.701057 0.701057
vn -0.608761 -0.560986 0.560986
vn -0.991445 -0.092296 0.092296
vn -0.793353 0.430459 -0.430459
vn -0.130526 0.701057 -0.701057
vn 0.608761 0.560986 -0.560986
vn 0.965926 0.2152 -0.143792
vn 0.866025 -0.415735 0.277785
vn 0.258819 -0.803138 0.53664
vn -0.5 -0.720074 0.481138
vn -0.965926 -0.2152 0.143792
vn -0.866025 0.415735 -0.277785
vn -0.258819 0.803138 -0.53664
vn 0.5 0.720074 -0.481138
vn 0.92388 0.353553 -0.146447
vn 0.92388 -0.353553 0.146447
vn 0.382683 -0.853553 0.353553
vn -0.382683 -0.853553 0.353553
vn -0.92388 -0.353553 0.146447
vn -0.92388 0.353553 -0.146447
vn -0.382683 0.853553 -0.353553
vn 0.382683 0.853553 -0.353553
vn 0.866025 0.490393 -0.097545
vn 0.965926 -0.253846 0.050493
vn 0.5 -0.849385 0.168953
vn -0.258819 -0.947366 0.188443
vn -0.866025 -0.490393 0.097545
vn -0.965926 0.253846 -0.050493
vn -0.5 0.849385 -0.168953
vn 0.258819 0.947366 -0.188443
vn 0.793353 0.608761 0
vn 0.991445 -0.130526 0
vn 0.608761 -0.793353 0
vn -0.130526 -0.991445 0
vn -0.793353 -0.608761 0
vn -0.991445 0.130526 0
vn -0.608761 0.793353 0
vn 0.130526 0.991445 0
vn 0.92388 0 0.382683
vn 0.382683 0 0.92388
vn -0.382683 0 0.92388
vn -0.92388 0 0.382683
vn -0.92388 0 -0.382683
vn -0.382683 0 -0.92388
vn 0.382683 0 -0.92388
vn 0.92388 0 -0.382683
vn 0.965926 -0.050493 0.253846
vn 0.5 -0.168953 0.849385
vn -0.258819 -0.188443 0.947366
vn -0.866025 -0.097545 0.490393
vn -0.965926 0.050493 -0.253846
vn -0.5 0.168953 -0.849385
vn 0.258819 0.188443 -0.947366
vn 0.866025 0.097545 -0.490393
vn 0.991445 -0.04995 0.12059
vn 0.608761 -0.303603 0.732963
vn -0.130526 -0.37941 0.915976
vn -0.793353 -0.232963 0.562422
vn -0.991445 0.04995 -0.12059
vn -0.608761 0.303603 -0.732963
vn 0.130526 0.37941 -0.915976
vn 0.793353 0.232963 -0.562422
vn 1 0 0
vn 0.707107 -0.392847 0.587938
vn 0 -0.55557 0.83147
vn -0.707107 -0.392847 0.587938
vn -1 0 0
vn -0.707107 0.392847 -0.587938
vn 0 0.55557 -0.83147
vn 0.707107 0.392847 -0.587938
vn 0.991445 0.092296 -0.092296
vn 0.793353 -0.430459 0.430459
vn 0.130526 -0.701057 0.701057
vn -0.608761 -0.560986 0.560986
vn -0.991445 -0.092296 0.092296
vn -0.793353 0.430459 -0.430459
vn -0.130526 0.701057 -0.701057
vn 0.608761 0.560986 -0.560986
vn 0.965926 0.2152 -0.143792
vn 0.866025 -0.415735 0.277785
vn 0.258819 -0.803138 0.53664
vn -0.5 -0.720074 0.481138
vn -0.965926 -0.2152 0.143792
vn -0.866025 0.415735 -0.277785
vn -0.258819 0.803138 -0.53664
vn 0.5 0.720074 -0.481138
vn 0.92388 0.353553 -0.146447
vn 0.92388 -0.353553 0.146447
vn 0.382683 -0.853553 0.353553
vn -0.382683 -0.853553 0.353553
vn -0.92388 -0.353553 0.146447
vn -0.92388 0.353553 -0.146447
vn -0.382683 0.853553 -0.353553
vn 0.382683 0.853553 -0.353553
vn 0.866025 0.490393 -0.097545
vn 0.965926 -0.253846 0.050493
vn 0.5 -0.849385 0.168953
vn -0.258819 -0.947366 0.188443
vn -0.866025 -0.490393 0.097545
vn -0.965926 0.253846 -0.050493
vn -0.5 0.849385 -0.168953
vn 0.258819 0.947366 -0.188443
vn 0.793353 0.608761 0
vn 0.991445 -0.130526 0
vn 0.608761 -0.793353 0
vn -0.130526 -0.991445 0
vn -0.793353 -0.608761 0
vn -0.991445 0.130526 0
vn -0.608761 0.793353 0
vn 0.130526 0.991445 0
vn 0.92388 0 0.382683
vn 0.382683 0 0.92388
vn -0.382683 0 0.92388
vn -0.92388 0 0.382683
vn -0.92388 0 -0.382683
vn -0.382683 0 -0.92388
vn 0.382683 0 -0.92388
vn 0.92388 0 -0.382683
vn 0.965926 -0.050493 0.253846
vn 0.5 -0.168953 0.849385
vn -0.258819 -0.188443 0.947366
vn -0.866025 -0.097545 0.490393
vn -0.965926 0.050493 -0.253846
vn -0.5 0.168953 -0.849385
vn 0.258819 0.188443 -0.947366
vn 0.866025 0.097545 -0.490393
vn 0.991445 -0.04995 0.12059
vn 0.608761 -0.303603 0.732963
vn -0.130526 -0.37941 0.915976
vn -0.793353 -0.232963 0.562422
vn -0.991445 0.04995 -0.12059
vn -0.608761 0.303603 -0.732963
vn 0.130526 0.37941 -0.915976
vn 0.793353 0.232963 -0.562422
vn 1 0 0
vn 0.707107 -0.392847 0.587938
vn 0 -0.55557 0.83147
vn -0.707107 -0.392847 0.587938
vn -1 0 0
vn -0.707107 0.392847 -0.587938
vn 0 0.55557 -0.83147
vn 0.707107 0.392847 -0.587938
vn 0.991445 0.092296 -0.092296
vn 0.793353 -0.430459 0.430459
vn 0.130526 -0.701057 0.701057
vn -0.608761 -0.560986 0.560986
vn -0.991445 -0.092296 0.092296
vn -0.793353 0.430459 -0.430459
vn -0.130526 0.701057 -0.701057
vn 0.608761 0.560986 -0.560986
vn 0.965926 0.2152 -0.143792
vn 0.866025 -0.415735 0.277785
vn 0.258819 -0.803138 0.53664
vn -0.5 -0.720074 0.481138
vn -0.965926 -0.2152 0.143792
vn -0.866025 0.415735 -0.277785
vn -0.258819 0.803138 -0.53664
vn 0.5 0.720074 -0.481138
vn 0.92388 0.353553 -0.146447
vn 0.92388 -0.353553 0.146447
vn 0.382683 -0.853553 0.353553
vn -0.382683 -0.853553 0.353553
vn -0.92388 -0.353553 0.146447
vn -0.92388 0.353553 -0.146447
vn -0.382683 0.853553 -0.353553
vn 0.382683 0.853553 -0.353553
vn 0.866025 0.490393 -0.097545
vn 0.965926 -0.253846 0.050493
vn 0.5 -0.849385 0.168953
vn -0.258819 -0.947366 0.188443
vn -0.866025 -0.490393 0.097545
vn -0.965926 0.253846 -0.050493
vn -0.5 0.849385 -0.168953
vn 0.258819 0.947366 -0.188443
vn 0.793353 0.608761 0
vn 0.991445 -0.130526 0
vn 0.608761 -0.793353 0
vn -0.130526 -0.991445 0
vn -0.793353 -0.608761 0
vn -0.991445 0.130526 0
vn -0.608761 0.793353 0
vn 0.130526 0.991445 0
vn 0.965926 -0.183013 0.183013
vn 0.707107 -0.5 0.5
vn 0.258819 -0.683013 0.683013
vn -0.258819 -0.683013 0.683013
vn -0.707107 -0.5 0.5
vn -0.965926 -0.183013 0.183013
vn -0.965926 0.183013 -0.183013
vn -0.707107 0.5 -0.5
vn -0.258819 0.683013 -0.683013
vn 0.258819 0.683013 -0.683013
vn 0.707107 0.5 -0.5
vn 0.965926 0.183013 -0.183013
vn 0.965926 -0.183013 0.183013
vn 0.707107 -0.5 0.5
vn 0.258819 -0.683013 0.683013
vn -0.258819 -0.683013 0.683013
vn -0.707107 -0.5 0.5
vn -0.965926 -0.183013 0.183013
vn -0.965926 0.183013 -0.183013
vn -0.707107 0.5 -0.5
vn -0.258819 0.683013 -0.683013
vn 0.258819 0.683013 -0.683013
vn 0.707107 0.5 -0.5
vn 0.965926 0.183013 -0.183013
vn 0 0.707107 0.707107
vn 0 0.707107 0.707107
vn 0 0.707107 0.707107
vn 0 0.707107 0.707107
vn 0 0.707107 0.707107
vn 0 0.707107 0.707107
vn 0 0.707107 0.707107
vn 0 0.707107 0.707107
vn 0 0.707107 0.707107
vn 0 0.707107 0.707107
vn 0 0.707107 0.707107
vn 0 0.707107 0.707107
vn 0 0.707107 0.707107
vn 0 -0.707107 -0.707107
vn 0 -0.707107 -0.707107
vn 0 -0.707107 -0.707107
vn 0 -0.707107 -0.707107
vn 0 -0.707107 -0.707107
vn 0 -0.707107 -0.707107
vn 0 -0.707107 -0.707107
vn 0 -0.707107 -0.707107
vn 0 -0.707107 -0.707107
vn 0 -0.707107 -0.707107
vn 0 -0.707107 -0.707107
vn 0 -0.707107 -0.707107
vn 0 -0.707107 -0.707107
vt 0.0625 0.9375
vt 0.1875 0.9375
vt 0.3125 0.9375
vt 0.4375 0.9375
vt 0.5625 0.9375
vt 0.6875 0.9375
vt 0.8125 0.9375
f 10/1/10 9/1/9 1/1/1
f 2/1/2 10/1/10 1/1/1
f 11/1/11 10/1/10 2/1/2
f 3/1/3 11/1/11 2/1/2
f 12/1/12 11/1/11 3/1/3
f 4/1/4 12/1/12 3/1/3
f 13/1/13 12/1/12 4/1/4
f 5/1/5 13/1/13 4/1/4
f 14/1/14 13/1/13 5/1/5
f 6/1/6 14/1/14 5/1/5
f 15/1/15 14/1/14 6/1/6
f 7/1/7 15/1/15 6/1/6
f 16/1/16 15/1/15 7/1/7
f 8/1/8 16/1/16 7/1/7
f 9/1/9 16/1/16 8/1/8
f 1/1/1 9/1/9 8/1/8
f 18/1/18 17/1/17 9/1/9
f 10/1/10 18/1/18 9/1/9
f 19/1/19 18/1/18 10/1/10
f 11/1/11 19/1/19 10/1/10
f 20/1/20 19/1/19 11/1/11
f 12/1/12 20/1/20 11/1/11
f 21/1/21 20/1/20 12/1/12
f 13/1/13 21/1/21 12/1/12
f 22/1/22 21/1/21 13/1/13
f 14/1/14 22/1/22 13/1/13
f 23/1/23 22/1/22 14/1/14
f 15/1/15 23/1/23 14/1/14
f 24/1/24 23/1/23 15/1/15
f 16/1/16 24/1/24 15/1/15
f 17/1/17 24/1/24 16/1/16
f 9/1/9 17/1/17 16/1/16
f 26/1/26 25/1/25 17/1/17
f 18/1/18 26/1/26 17/1/17
f 27/1/27 26/1/26 18/1/18
f 19/1/19 27/1/27 18/1/18
f 28/1/28 27/1/27 19/1/19
f 20/1/20 28/1/28 19/1/19
f 29/1/29 28/1/28 20/1/20
f 21/1/21 29/1/29 20/1/20
f 30/1/30 29/1/29 21/1/21
f 22/1/22 30/1/30 21/1/21
f 31/1/31 30/1/30 22/1/22
f 23/1/23 31/1/31 22/1/22
f 32/1/32 31/1/31 23/1/23
f 24/1/24 32/1/32 23/1/23
f 25/1/25 32/1/32 24/1/24
f 17/1/17 25/1/25 24/1/24
f 34/1/34 33/1/33 25/1/25
f 26/1/26 34/1/34 25/1/25
f 35/1/35 34/1/34 26/1/26
f 27/1/27 35/1/35 26/1/26
f 36/1/36 35/1/35 27/1/27
f 28/1/28 36/1/36 27/1/27
f 37/1/37 36/1/36 28/1/28
f 29/1/29 37/1/37 28/1/28
f 38/1/38 37/1/37 29/1/29
f 30/1/30 38/1/38 29/1/29
f 39/1/39 38/1/38 30/1/30
f 31/1/31 39/1/39 30/1/30
f 40/1/40 39/1/39 31/1/31
f 32/1/32 40/1/40 31/1/31
f 33/1/33 40/1/40 32/1/32
f 25/1/25 33/1/33 32/1/32
f 42/1/42 41/1/41 33/1/33
f 34/1/34 42/1/42 33/1/33
f 43/1/43 42/1/42 34/1/34
f 35/1/35 43/1/43 34/1/34
f 44/1/44 43/1/43 35/1/35
f 36/1/36 44/1/44 35/1/35
f 45/1/45 44/1/44 36/1/36
f 37/1/37 45/1/45 36/1/36
f 46/1/46 45/1/45 37/1/37
f 38/1/38 46/1/46 37/1/37
f 47/1/47 46/1/46 38/1/38
f 39/1/39 47/1/47 38/1/38
f 48/1/48 47/1/47 39/1/39
f 40/1/40 48/1/48 39/1/39
f 41/1/41 48/1/48 40/1/40
f 33/1/33 41/1/41 40/1/40
f 50/1/50 49/1/49 41/1/41
f 42/1/42 50/1/50 41/1/41
f 51/1/51 50/1/50 42/1/42
f 43/1/43 51/1/51 42/1/42
f 52/1/52 51/1/51 43/1/43
f 44/1/44 52/1/52 43/1/43
f 53/1/53 52/1/52 44/1/44
f 45/1/45 53/1/53 44/1/44
f 54/1/54 53/1/53 45/1/45
f 46/1/46 54/1/54 45/1/45
f 55/1/55 54/1/54 46/1/46
f 47/1/47 55/1/55 46/1/46
f 56/1/56 55/1/55 47/1/47
f 48/1/48 56/1/56 47/1/47
f 49/1/49 56/1/56 48/1/48
f 41/1/41 49/1/49 48/1/48
f 58/1/58 57/1/57 49/1/49
f 50/1/50 58/1/58 49/1/49
f 59/1/59 58/1/58 50/1/50
f 51/1/51 59/1/59 50/1/50
f 60/1/60 59/1/59 51/1/51
f 52/1/52 60/1/60 51/1/51
f 61/1/61 60/1/60 52/1/52
f 53/1/53 61/1/61 52/1/52
f 62/1/62 61/1/61 53/1/53
f 54/1/54 62/1/62 53/1/53
f 63/1/63 62/1/62 54/1/54
f 55/1/55 63/1/63 54/1/54
f 64/1/64 63/1/63 55/1/55
f 56/1/56 64/1/64 55/1/55
f 57/1/57 64/1/64 56/1/56
f 49/1/49 57/1/57 56/1/56
f 66/1/66 65/1/65 57/1/57
f 58/1/58 66/1/66 57/1/57
f 67/1/67 66/1/66 58/1/58
f 59/1/59 67/1/67 58/1/58
f 68/1/68 67/1/67 59/1/59
f 60/1/60 68/1/68 59/1/59
f 69/1/69 68/1/68 60/1/60
f 61/1/61 69/1/69 60/1/60
f 70/1/70 69/1/69 61/1/61
f 62/1/62 70/1/70 61/1/61
f 71/1/71 70/1/70 62/1/62
f 63/1/63 71/1/71 62/1/62
f 72/1/72 71/1/71 63/1/63
f 64/1/64 72/1/72 63/1/63
f 65/1/65 72/1/72 64/1/64
f 57/1/57 65/1/65 64/1/64
f 82/1/82 81/1/81 73/1/73
f 74/1/74 82/1/82 73/1/73
f 83/1/83 82/1/82 74/1/74
f 75/1/75 83/1/83 74/1/74
f 84/1/84 83/1/83 75/1/75
f 76/1/76 84/1/84 75/1/75
f 85/1/85 84/1/84 76/1/76
f 77/1/77 85/1/85 76/1/76
f 86/1/86 85/1/85 77/1/77
f 78/1/78 86/1/86 77/1/77
f 87/1/87 86/1/86 78/1/78
f 79/1/79 87/1/87 78/1/78
f 88/1/88 87/1/87 79/1/79
f 80/1/80 88/1/88 79/1/79
f 81/1/81 88/1/88 80/1/80
f 73/1/73 81/1/81 80/1/80
f 90/1/90 89/1/89 81/1/81
f 82/1/82 90/1/90 81/1/81
f 91/1/91 90/1/90 82/1/82
f 83/1/83 91/1/91 82/1/82
f 92/1/92 91/1/91 83/1/83
f 84/1/84 92/1/92 83/1/83
f 93/1/93 92/1/92 84/1/84
f 85/1/85 93/1/93 84/1/84
f 94/1/94 93/1/93 85/1/85
f 86/1/86 94/1/94 85/1/85
f 95/1/95 94/1/94 86/1/86
f 87/1/87 95/1/95 86/1/86
f 96/1/96 95/1/95 87/1/87
f 88/1/88 96/1/96 87/1/87
f 89/1/89 96/1/96 88/1/88
f 81/1/81 89/1/89 88/1/88
f 98/1/98 97/1/97 89/1/89
f 90/1/90 98/1/98 89/1/89
f 99/1/99 98/1/98 90/1/90
f 91/1/91 99/1/99 90/1/90
f 100/1/100 99/1/99 91/1/91
f 92/1/92 100/1/100 91/1/91
f 101/1/101 100/1/100 92/1/92
f 93/1/93 101/1/101 92/1/92
f 102/1/102 101/1/101 93/1/93
f 94/1/94 102/1/102 93/1/93
f 103/1/103 102/1/102 94/1/94
f 95/1/95 103/1/103 94/1/94
f 104/1/104 103/1/103 95/1/95
f 96/1/96 104/1/104 95/1/95
f 97/1/97 104/1/104 96/1/96
f 89/1/89 97/1/97 96/1/96
f 106/1/106 105/1/105 97/1/97
f 98/1/98 106/1/106 97/1/97
f 107/1/107 106/1/106 98/1/98
f 99/1/99 107/1/107 98/1/98
f 108/1/108 107/1/107 99/1/99
f 100/1/100 108/1/108 99/1/99
f 109/1/109 108/1/108 100/1/100
f 101/1/101 109/1/109 100/1/100
f 110/1/110 109/1/109 101/1/101
f 102/1/102 110/1/110 101/1/101
f 111/1/111 110/1/110 102/1/102
f 103/1/103 111/1/111 102/1/102
f 112/1/112 111/1/111 103/1/103
f 104/1/104 112/1/112 103/1/103
f 105/1/105 112/1/112 104/1/104
f 97/1/97 105/1/105 104/1/104
f 114/1/114 113/1/113 105/1/105
f 106/1/106 114/1/114 105/1/105
f 115/1/115 114/1/114 106/1/106
f 107/1/107 115/1/115 106/1/106
f 116/1/116 115/1/115 107/1/107
f 108/1/108 116/1/116 107/1/107
f 117/1/117 116/1/116 108/1/108
f 109/1/109 117/1/117 108/1/108
f 118/1/118 117/1/117 109/1/109
f 110/1/110 118/1/118 109/1/109
f 119/1/119 118/1/118 110/1/110
f 111/1/111 119/1/119 110/1/110
f 120/1/120 119/1/119 111/1/111
f 112/1/112 120/1/120 111/1/111
f 113/1/113 120/1/120 112/1/112
f 105/1/105 113/1/113 112/1/112
f 122/1/122 121/1/121 113/1/113
f 114/1/114 122/1/122 113/1/113
f 123/1/123 122/1/122 114/1/114
f 115/1/115 123/1/123 114/1/114
f 124/1/124 123/1/123 115/1/115
f 116/1/116 124/1/124 115/1/115
f 125/1/125 124/1/124 116/1/116
f 117/1/117 125/1/125 116/1/116
f 126/1/126 125/1/125 117/1/117
f 118/1/118 126/1/126 117/1/117
f 127/1/127 126/1/126 118/1/118
f 119/1/119 127/1/127 118/1/118
f 128/1/128 127/1/127 119/1/119
f 120/1/120 128/1/128 119/1/119
f 121/1/121 128/1/128 120/1/120
f 113/1/113 121/1/121 120/1/120
f 130/1/130 129/1/129 121/1/121
f 122/1/122 130/1/130 121/1/121
f 131/1/131 130/1/130 122/1/122
f 123/1/123 131/1/131 122/1/122
f 132/1/132 131/1/131 123/1/123
f 124/1/124 132/1/132 123/1/123
f 133/1/133 132/1/132 124/1/124
f 125/1/125 133/1/133 124/1/124
f 134/1/134 133/1/133 125/1/125
f 126/1/126 134/1/134 125/1/125
f 135/1/135 134/1/134 126/1/126
f 127/1/127 135/1/135 126/1/126
f 136/1/136 135/1/135 127/1/127
f 128/1/128 136/1/136 127/1/127
f 129/1/129 136/1/136 128/1/128
f 121/1/121 129/1/129 128/1/128
f 138/1/138 137/1/137 129/1/129
f 130/1/130 138/1/138 129/1/129
f 139/1/139 138/1/138 130/1/130
f 131/1/131 139/1/139 130/1/130
f 140/1/140 139/1/139 131/1/131
f 132/1/132 140/1/140 131/1/131
f 141/1/141 140/1/140 132/1/132
f 133/1/133 141/1/141 132/1/132
f 142/1/142 141/1/141 133/1/133
f 134/1/134 142/1/142 133/1/133
f 143/1/143 142/1/142 134/1/134
f 135/1/135 143/1/143 134/1/134
f 144/1/144 143/1/143 135/1/135
f 136/1/136 144/1/144 135/1/135
f 137/1/137 144/1/144 136/1/136
f 129/1/129 137/1/137 136/1/136
f 154/1/154 153/1/153 145/1/145
f 146/1/146 154/1/154 145/1/145
f 155/1/155 154/1/154 146/1/146
f 147/1/147 155/1/155 146/1/146
f 156/1/156 155/1/155 147/1/147
f 148/1/148 156/1/156 147/1/147
f 157/1/157 156/1/156 148/1/148
f 149/1/149 157/1/157 148/1/148
f 158/1/158 157/1/157 149/1/149
f 150/1/150 158/1/158 149/1/149
f 159/1/159 158/1/158 150/1/150
f 151/1/151 159/1/159 150/1/150
f 160/1/160 159/1/159 151/1/151
f 152/1/152 160/1/160 151/1/151
f 153/1/153 160/1/160 152/1/152
f 145/1/145 153/1/153 152/1/152
f 162/1/162 161/1/161 153/1/153
f 154/1/154 162/1/162 153/1/153
f 163/1/163 162/1/162 154/1/154
f 155/1/155 163/1/163 154/1/154
f 164/1/164 163/1/163 155/1/155
f 156/1/156 164/1/164 155/1/155
f 165/1/165 164/1/164 156/1/156
f 157/1/157 165/1/165 156/1/156
f 166/1/166 165/1/165 157/1/157
f 158/1/158 166/1/166 157/1/157
f 167/1/167 166/1/166 158/1/158
f 159/1/159 167/1/167 158/1/158
f 168/1/168 167/1/167 159/1/159
f 160/1/160 168/1/168 159/1/159
f 161/1/161 168/1/168 160/1/160
f 153/1/153 161/1/161 160/1/160
f 170/1/170 169/1/169 161/1/161
f 162/1/162 170/1/170 161/1/161
f 171/1/171 170/1/170 162/1/162
f 163/1/163 171/1/171 162/1/162
f 172/1/172 171/1/171 163/1/163
f 164/1/164 172/1/172 163/1/163
f 173/1/173 172/1/172 164/1/164
f 165/1/165 173/1/173 164/1/164
f 174/1/174 173/1/173 165/1/165
f 166/1/166 174/1/174 165/1/165
f 175/1/175 174/1/174 166/1/166
f 167/1/167 175/1/175 166/1/166
f 176/1/176 175/1/175 167/1/167
f 168/1/168 176/1/176 167/1/167
f 169/1/169 176/1/176 168/1/168
f 161/1/161 169/1/169 168/1/168
f 178/1/178 177/1/177 169/1/169
f 170/1/170 178/1/178 169/1/169
f 179/1/179 178/1/178 170/1/170
f 171/1/171 179/1/179 170/1/170
f 180/1/180 179/1/179 171/1/171
f 172/1/172 180/1/180 171/1/171
f 181/1/181 180/1/180 172/1/172
f 173/1/173 181/1/181 172/1/172
f 182/1/182 181/1/181 173/1/173
f 174/1/174 182/1/182 173/1/173
f 183/1/183 182/1/182 174/1/174
f 175/1/175 183/1/183 174/1/174
f 184/1/184 183/1/183 175/1/175
f 176/1/176 184/1/184 175/1/175
f 177/1/177 184/1/184 176/1/176
f 169/1/169 177/1/177 176/1/176
f 186/1/186 185/1/185 177/1/177
f 178/1/178 186/1/186 177/1/177
f 187/1/187 186/1/186 178/1/178
f 179/1/179 187/1/187 178/1/178
f 188/1/188 187/1/187 179/1/179
f 180/1/180 188/1/188 179/1/179
f 189/1/189 188/1/188 180/1/180
f 181/1/181 189/1/189 180/1/180
f 190/1/190 189/1/189 181/1/181
f 182/1/182 190/1/190 181/1/181
f 191/1/191 190/1/190 182/1/182
f 183/1/183 191/1/191 182/1/182
f 192/1/192 191/1/191 183/1/183
f 184/1/184 192/1/192 183/1/183
f 185/1/185 192/1/192 184/1/184
f 177/1/177 185/1/185 184/1/184
f 194/1/194 193/1/193 185/1/185
f 186/1/186 194/1/194 185/1/185
f 195/1/195 194/1/194 186/1/186
f 187/1/187 195/1/195 186/1/186
f 196/1/196 195/1/195 187/1/187
f 188/1/188 196/1/196 187/1/187
f 197/1/197 196/1/196 188/1/188
f 189/1/189 197/1/197 188/1/188
f 198/1/198 197/1/197 189/1/189
f 190/1/190 198/1/198 189/1/189
f 199/1/199 198/1/198 190/1/190
f 191/1/191 199/1/199 190/1/190
f 200/1/200 199/1/199 191/1/191
f 192/1/192 200/1/200 191/1/191
f 193/1/193 200/1/200 192/1/192
f 185/1/185 193/1/193 192/1/192
f 202/1/202 201/1/201 193/1/193
f 194/1/194 202/1/202 193/1/193
f 203/1/203 202/1/202 194/1/194
f 195/1/195 203/1/203 194/1/194
f 204/1/204 203/1/203 195/1/195
f 196/1/196 204/1/204 195/1/195
f 205/1/205 204/1/204 196/1/196
f 197/1/197 205/1/205 196/1/196
f 206/1/206 205/1/205 197/1/197
f 198/1/198 206/1/206 197/1/197
f 207/1/207 206/1/206 198/1/198
f 199/1/199 207/1/207 198/1/198
f 208/1/208 207/1/207 199/1/199
f 200/1/200 208/1/208 199/1/199
f 201/1/201 208/1/208 200/1/200
f 193/1/193 201/1/201 200/1/200
f 210/1/210 209/1/209 201/1/201
f 202/1/202 210/1/210 201/1/201
f 211/1/211 210/1/210 202/1/202
f 203/1/203 211/1/211 202/1/202
f 212/1/212 211/1/211 203/1/203
f 204/1/204 212/1/212 203/1/203
f 213/1/213 212/1/212 204/1/204
f 205/1/205 213/1/213 204/1/204
f 214/1/214 213/1/213 205/1/205
f 206/1/206 214/1/214 205/1/205
f 215/1/215 214/1/214 206/1/206
f 207/1/207 215/1/215 206/1/206
f 216/1/216 215/1/215 207/1/207
f 208/1/208 216/1/216 207/1/207
f 209/1/209 216/1/216 208/1/208
f 201/1/201 209/1/209 208/1/208
f 218/2/218 230/2/230 229/2/229 217/2/217
f 219/2/219 231/2/231 230/2/230 218/2/218
f 220/2/220 232/2/232 231/2/231 219/2/219
f 221/2/221 233/2/233 232/2/232 220/2/220
f 222/2/222 234/2/234 233/2/233 221/2/221
f 223/2/223 235/2/235 234/2/234 222/2/222
f 224/2/224 236/2/236 235/2/235 223/2/223
f 225/2/225 237/2/237 236/2/236 224/2/224
f 226/2/226 238/2/238 237/2/237 225/2/225
f 227/2/227 239/2/239 238/2/238 226/2/226
f 228/2/228 240/2/240 239/2/239 227/2/227
f 217/2/217 229/2/229 240/2/240 228/2/228
f 241/2/241 243/2/243 242/2/242
f 241/2/241 244/2/244 243/2/243
f 241/2/241 245/2/245 244/2/244
f 241/2/241 246/2/246 245/2/245
f 241/2/241 247/2/247 246/2/246
f 241/2/241 248/2/248 247/2/247
f 241/2/241 249/2/249 248/2/248
f 241/2/241 250/2/250 249/2/249
f 241/2/241 251/2/251 250/2/250
f 241/2/241 252/2/252 251/2/251
f 241/2/241 253/2/253 252/2/252
f 241/2/241 242/2/242 253/2/253
f 254/2/254 255/2/255 256/2/256
f 254/2/254 256/2/256 257/2/257
f 254/2/254 257/2/257 258/2/258
f 254/2/254 258/2/258 259/2/259
f 254/2/254 259/2/259 260/2/260
f 254/2/254 260/2/260 261/2/261
f 254/2/254 261/2/261 262/2/262
f 254/2/254 262/2/262 263/2/263
f 254/2/254 263/2/263 264/2/264
f 254/2/254 264/2/264 265/2/265
f 254/2/254 265/2/265 266/2/266
f 254/2/254 266/2/266 255/2/255
