# AFL Power Cable V2 piece bend_south_east, generated by tools/build-power-cable-v2.mjs
mtllib power_cable.mtl
o bend_south_east
usemtl cable
v 0.549081 0.581674 1
v 0.52033 0.610425 1
v 0.47967 0.610425 1
v 0.450919 0.581674 1
v 0.450919 0.541013 1
v 0.47967 0.512262 1
v 0.52033 0.512262 1
v 0.549081 0.541013 1
v 0.557745 0.581674 0.91203
v 0.529547 0.610425 0.906421
v 0.489668 0.610425 0.898489
v 0.461469 0.581674 0.89288
v 0.461469 0.541013 0.89288
v 0.489668 0.512262 0.898489
v 0.529547 0.512262 0.906421
v 0.557745 0.541013 0.91203
v 0.583405 0.581674 0.827441
v 0.556843 0.610425 0.816438
v 0.519278 0.610425 0.800878
v 0.492715 0.581674 0.789876
v 0.492715 0.541013 0.789876
v 0.519278 0.512262 0.800878
v 0.556843 0.512262 0.816438
v 0.583405 0.541013 0.827441
v 0.625075 0.581674 0.749483
v 0.601169 0.610425 0.73351
v 0.567361 0.610425 0.71092
v 0.543456 0.581674 0.694947
v 0.543456 0.541013 0.694947
v 0.567361 0.512262 0.71092
v 0.601169 0.512262 0.73351
v 0.625075 0.541013 0.749483
v 0.681152 0.581674 0.681152
v 0.660822 0.610425 0.660822
v 0.632071 0.610425 0.632071
v 0.611741 0.581674 0.611741
v 0.611741 0.541013 0.611741
v 0.632071 0.512262 0.632071
v 0.660822 0.512262 0.660822
v 0.681152 0.541013 0.681152
v 0.749483 0.581674 0.625075
v 0.73351 0.610425 0.601169
v 0.71092 0.610425 0.567361
v 0.694947 0.581674 0.543456
v 0.694947 0.541013 0.543456
v 0.71092 0.512262 0.567361
v 0.73351 0.512262 0.601169
v 0.749483 0.541013 0.625075
v 0.827441 0.581674 0.583405
v 0.816438 0.610425 0.556843
v 0.800878 0.610425 0.519278
v 0.789876 0.581674 0.492715
v 0.789876 0.541013 0.492715
v 0.800878 0.512262 0.519278
v 0.816438 0.512262 0.556843
v 0.827441 0.541013 0.583405
v 0.91203 0.581674 0.557745
v 0.906421 0.610425 0.529547
v 0.898489 0.610425 0.489668
v 0.89288 0.581674 0.461469
v 0.89288 0.541013 0.461469
v 0.898489 0.512262 0.489668
v 0.906421 0.512262 0.529547
v 0.91203 0.541013 0.557745
v 1 0.581674 0.549081
v 1 0.610425 0.52033
v 1 0.610425 0.47967
v 1 0.581674 0.450919
v 1 0.541013 0.450919
v 1 0.512262 0.47967
v 1 0.512262 0.52033
v 1 0.541013 0.549081
v 0.495956 0.489658 1
v 0.467205 0.518409 1
v 0.426545 0.518409 1
v 0.397794 0.489658 1
v 0.397794 0.448998 1
v 0.426545 0.420247 1
v 0.467205 0.420247 1
v 0.495956 0.448998 1
v 0.505641 0.489658 0.901666
v 0.477443 0.518409 0.896057
v 0.437564 0.518409 0.888124
v 0.409365 0.489658 0.882515
v 0.409365 0.448998 0.882515
v 0.437564 0.420247 0.888124
v 0.477443 0.420247 0.896057
v 0.505641 0.448998 0.901666
v 0.534324 0.489658 0.807111
v 0.507762 0.518409 0.796108
v 0.470197 0.518409 0.780548
v 0.443634 0.489658 0.769546
v 0.443634 0.448998 0.769546
v 0.470197 0.420247 0.780548
v 0.507762 0.420247 0.796108
v 0.534324 0.448998 0.807111
v 0.580903 0.489658 0.719968
v 0.556997 0.518409 0.703995
v 0.52319 0.518409 0.681405
v 0.499284 0.489658 0.665432
v 0.499284 0.448998 0.665432
v 0.52319 0.420247 0.681405
v 0.556997 0.420247 0.703995
v 0.580903 0.448998 0.719968
v 0.643587 0.489658 0.643587
v 0.623257 0.518409 0.623257
v 0.594506 0.518409 0.594506
v 0.574176 0.489658 0.574176
v 0.574176 0.448998 0.574176
v 0.594506 0.420247 0.594506
v 0.623257 0.420247 0.623257
v 0.643587 0.448998 0.643587
v 0.719968 0.489658 0.580903
v 0.703995 0.518409 0.556997
v 0.681405 0.518409 0.52319
v 0.665432 0.489658 0.499284
v 0.665432 0.448998 0.499284
v 0.681405 0.420247 0.52319
v 0.703995 0.420247 0.556997
v 0.719968 0.448998 0.580903
v 0.807111 0.489658 0.534324
v 0.796108 0.518409 0.507762
v 0.780548 0.518409 0.470197
v 0.769546 0.489658 0.443634
v 0.769546 0.448998 0.443634
v 0.780548 0.420247 0.470197
v 0.796108 0.420247 0.507762
v 0.807111 0.448998 0.534324
v 0.901666 0.489658 0.505641
v 0.896057 0.518409 0.477443
v 0.888124 0.518409 0.437564
v 0.882515 0.489658 0.409365
v 0.882515 0.448998 0.409365
v 0.888124 0.420247 0.437564
v 0.896057 0.420247 0.477443
v 0.901666 0.448998 0.505641
v 1 0.489658 0.495956
v 1 0.518409 0.467205
v 1 0.518409 0.426545
v 1 0.489658 0.397794
v 1 0.448998 0.397794
v 1 0.420247 0.426545
v 1 0.420247 0.467205
v 1 0.448998 0.495956
v 0.602206 0.489658 1
v 0.573455 0.518409 1
v 0.532795 0.518409 1
v 0.504044 0.489658 1
v 0.504044 0.448998 1
v 0.532795 0.420247 1
v 0.573455 0.420247 1
v 0.602206 0.448998 1
v 0.60985 0.489658 0.922394
v 0.581651 0.518409 0.916785
v 0.541772 0.518409 0.908853
v 0.513574 0.489658 0.903244
v 0.513574 0.448998 0.903244
v 0.541772 0.420247 0.908853
v 0.581651 0.420247 0.916785
v 0.60985 0.448998 0.922394
v 0.632486 0.489658 0.847771
v 0.605924 0.518409 0.836768
v 0.568359 0.518409 0.821208
v 0.541796 0.489658 0.810206
v 0.541796 0.448998 0.810206
v 0.568359 0.420247 0.821208
v 0.605924 0.420247 0.836768
v 0.632486 0.448998 0.847771
v 0.669246 0.489658 0.778998
v 0.645341 0.518409 0.763024
v 0.611533 0.518409 0.740435
v 0.587628 0.489658 0.724462
v 0.587628 0.448998 0.724462
v 0.611533 0.420247 0.740435
v 0.645341 0.420247 0.763024
v 0.669246 0.448998 0.778998
v 0.718717 0.489658 0.718717
v 0.698387 0.518409 0.698387
v 0.669636 0.518409 0.669636
v 0.649306 0.489658 0.649306
v 0.649306 0.448998 0.649306
v 0.669636 0.420247 0.669636
v 0.698387 0.420247 0.698387
v 0.718717 0.448998 0.718717
v 0.778998 0.489658 0.669246
v 0.763024 0.518409 0.645341
v 0.740435 0.518409 0.611533
v 0.724462 0.489658 0.587628
v 0.724462 0.448998 0.587628
v 0.740435 0.420247 0.611533
v 0.763024 0.420247 0.645341
v 0.778998 0.448998 0.669246
v 0.847771 0.489658 0.632486
v 0.836768 0.518409 0.605924
v 0.821208 0.518409 0.568359
v 0.810206 0.489658 0.541796
v 0.810206 0.448998 0.541796
v 0.821208 0.420247 0.568359
v 0.836768 0.420247 0.605924
v 0.847771 0.448998 0.632486
v 0.922394 0.489658 0.60985
v 0.916785 0.518409 0.581651
v 0.908853 0.518409 0.541772
v 0.903244 0.489658 0.513574
v 0.903244 0.448998 0.513574
v 0.908853 0.420247 0.541772
v 0.916785 0.420247 0.581651
v 0.922394 0.448998 0.60985
v 1 0.489658 0.602206
v 1 0.518409 0.573455
v 1 0.518409 0.532795
v 1 0.489658 0.504044
v 1 0.448998 0.504044
v 1 0.420247 0.532795
v 1 0.420247 0.573455
v 1 0.448998 0.602206
v 0.71407 0.466839 0.753845
v 0.690622 0.409402 0.730396
v 0.650008 0.376241 0.689782
v 0.603111 0.376241 0.642885
v 0.562497 0.409402 0.602271
v 0.539048 0.466839 0.578823
v 0.539048 0.533161 0.578823
v 0.562497 0.590598 0.602271
v 0.603111 0.623759 0.642885
v 0.650008 0.623759 0.689782
v 0.690622 0.590598 0.730396
v 0.71407 0.533161 0.753845
v 0.753845 0.466839 0.71407
v 0.730396 0.409402 0.690622
v 0.689782 0.376241 0.650008
v 0.642885 0.376241 0.603111
v 0.602271 0.409402 0.562497
v 0.578823 0.466839 0.539048
v 0.578823 0.533161 0.539048
v 0.602271 0.590598 0.562497
v 0.642885 0.623759 0.603111
v 0.689782 0.623759 0.650008
v 0.730396 0.590598 0.690622
v 0.753845 0.533161 0.71407
v 0.626559 0.5 0.666334
v 0.71407 0.466839 0.753845
v 0.690622 0.409402 0.730396
v 0.650008 0.376241 0.689782
v 0.603111 0.376241 0.642885
v 0.562497 0.409402 0.602271
v 0.539048 0.466839 0.578823
v 0.539048 0.533161 0.578823
v 0.562497 0.590598 0.602271
v 0.603111 0.623759 0.642885
v 0.650008 0.623759 0.689782
v 0.690622 0.590598 0.730396
v 0.71407 0.533161 0.753845
v 0.666334 0.5 0.626559
v 0.753845 0.466839 0.71407
v 0.730396 0.409402 0.690622
v 0.689782 0.376241 0.650008
v 0.642885 0.376241 0.603111
v 0.602271 0.409402 0.562497
v 0.578823 0.466839 0.539048
v 0.578823 0.533161 0.539048
v 0.602271 0.590598 0.562497
v 0.642885 0.623759 0.603111
v 0.689782 0.623759 0.650008
v 0.730396 0.590598 0.690622
v 0.753845 0.533161 0.71407
vn 0.92388 0.382683 0
vn 0.382683 0.92388 0
vn -0.382683 0.92388 0
vn -0.92388 0.382683 0
vn -0.92388 -0.382683 0
vn -0.382683 -0.92388 0
vn 0.382683 -0.92388 0
vn 0.92388 -0.382683 0
vn 0.906127 0.382683 0.18024
vn 0.37533 0.92388 0.074658
vn -0.37533 0.92388 -0.074658
vn -0.906127 0.382683 -0.18024
vn -0.906127 -0.382683 -0.18024
vn -0.37533 -0.92388 -0.074658
vn 0.37533 -0.92388 0.074658
vn 0.906127 -0.382683 0.18024
vn 0.853553 0.382683 0.353553
vn 0.353553 0.92388 0.146447
vn -0.353553 0.92388 -0.146447
vn -0.853553 0.382683 -0.353553
vn -0.853553 -0.382683 -0.353553
vn -0.353553 -0.92388 -0.146447
vn 0.353553 -0.92388 0.146447
vn 0.853553 -0.382683 0.353553
vn 0.768178 0.382683 0.51328
vn 0.31819 0.92388 0.212608
vn -0.31819 0.92388 -0.212608
vn -0.768178 0.382683 -0.51328
vn -0.768178 -0.382683 -0.51328
vn -0.31819 -0.92388 -0.212608
vn 0.31819 -0.92388 0.212608
vn 0.768178 -0.382683 0.51328
vn 0.653281 0.382683 0.653281
vn 0.270598 0.92388 0.270598
vn -0.270598 0.92388 -0.270598
vn -0.653281 0.382683 -0.653281
vn -0.653281 -0.382683 -0.653281
vn -0.270598 -0.92388 -0.270598
vn 0.270598 -0.92388 0.270598
vn 0.653281 -0.382683 0.653281
vn 0.51328 0.382683 0.768178
vn 0.212608 0.92388 0.31819
vn -0.212608 0.92388 -0.31819
vn -0.51328 0.382683 -0.768178
vn -0.51328 -0.382683 -0.768178
vn -0.212608 -0.92388 -0.31819
vn 0.212608 -0.92388 0.31819
vn 0.51328 -0.382683 0.768178
vn 0.353553 0.382683 0.853553
vn 0.146447 0.92388 0.353553
vn -0.146447 0.92388 -0.353553
vn -0.353553 0.382683 -0.853553
vn -0.353553 -0.382683 -0.853553
vn -0.146447 -0.92388 -0.353553
vn 0.146447 -0.92388 0.353553
vn 0.353553 -0.382683 0.853553
vn 0.18024 0.382683 0.906127
vn 0.074658 0.92388 0.37533
vn -0.074658 0.92388 -0.37533
vn -0.18024 0.382683 -0.906127
vn -0.18024 -0.382683 -0.906127
vn -0.074658 -0.92388 -0.37533
vn 0.074658 -0.92388 0.37533
vn 0.18024 -0.382683 0.906127
vn 0 0.382683 0.92388
vn 0 0.92388 0.382683
vn 0 0.92388 -0.382683
vn 0 0.382683 -0.92388
vn 0 -0.382683 -0.92388
vn 0 -0.92388 -0.382683
vn 0 -0.92388 0.382683
vn 0 -0.382683 0.92388
vn 0.92388 0.382683 0
vn 0.382683 0.92388 0
vn -0.382683 0.92388 0
vn -0.92388 0.382683 0
vn -0.92388 -0.382683 0
vn -0.382683 -0.92388 0
vn 0.382683 -0.92388 0
vn 0.92388 -0.382683 0
vn 0.906127 0.382683 0.18024
vn 0.37533 0.92388 0.074658
vn -0.37533 0.92388 -0.074658
vn -0.906127 0.382683 -0.18024
vn -0.906127 -0.382683 -0.18024
vn -0.37533 -0.92388 -0.074658
vn 0.37533 -0.92388 0.074658
vn 0.906127 -0.382683 0.18024
vn 0.853553 0.382683 0.353553
vn 0.353553 0.92388 0.146447
vn -0.353553 0.92388 -0.146447
vn -0.853553 0.382683 -0.353553
vn -0.853553 -0.382683 -0.353553
vn -0.353553 -0.92388 -0.146447
vn 0.353553 -0.92388 0.146447
vn 0.853553 -0.382683 0.353553
vn 0.768178 0.382683 0.51328
vn 0.31819 0.92388 0.212608
vn -0.31819 0.92388 -0.212608
vn -0.768178 0.382683 -0.51328
vn -0.768178 -0.382683 -0.51328
vn -0.31819 -0.92388 -0.212608
vn 0.31819 -0.92388 0.212608
vn 0.768178 -0.382683 0.51328
vn 0.653281 0.382683 0.653281
vn 0.270598 0.92388 0.270598
vn -0.270598 0.92388 -0.270598
vn -0.653281 0.382683 -0.653281
vn -0.653281 -0.382683 -0.653281
vn -0.270598 -0.92388 -0.270598
vn 0.270598 -0.92388 0.270598
vn 0.653281 -0.382683 0.653281
vn 0.51328 0.382683 0.768178
vn 0.212608 0.92388 0.31819
vn -0.212608 0.92388 -0.31819
vn -0.51328 0.382683 -0.768178
vn -0.51328 -0.382683 -0.768178
vn -0.212608 -0.92388 -0.31819
vn 0.212608 -0.92388 0.31819
vn 0.51328 -0.382683 0.768178
vn 0.353553 0.382683 0.853553
vn 0.146447 0.92388 0.353553
vn -0.146447 0.92388 -0.353553
vn -0.353553 0.382683 -0.853553
vn -0.353553 -0.382683 -0.853553
vn -0.146447 -0.92388 -0.353553
vn 0.146447 -0.92388 0.353553
vn 0.353553 -0.382683 0.853553
vn 0.18024 0.382683 0.906127
vn 0.074658 0.92388 0.37533
vn -0.074658 0.92388 -0.37533
vn -0.18024 0.382683 -0.906127
vn -0.18024 -0.382683 -0.906127
vn -0.074658 -0.92388 -0.37533
vn 0.074658 -0.92388 0.37533
vn 0.18024 -0.382683 0.906127
vn 0 0.382683 0.92388
vn 0 0.92388 0.382683
vn 0 0.92388 -0.382683
vn 0 0.382683 -0.92388
vn 0 -0.382683 -0.92388
vn 0 -0.92388 -0.382683
vn 0 -0.92388 0.382683
vn 0 -0.382683 0.92388
vn 0.92388 0.382683 0
vn 0.382683 0.92388 0
vn -0.382683 0.92388 0
vn -0.92388 0.382683 0
vn -0.92388 -0.382683 0
vn -0.382683 -0.92388 0
vn 0.382683 -0.92388 0
vn 0.92388 -0.382683 0
vn 0.906127 0.382683 0.18024
vn 0.37533 0.92388 0.074658
vn -0.37533 0.92388 -0.074658
vn -0.906127 0.382683 -0.18024
vn -0.906127 -0.382683 -0.18024
vn -0.37533 -0.92388 -0.074658
vn 0.37533 -0.92388 0.074658
vn 0.906127 -0.382683 0.18024
vn 0.853553 0.382683 0.353553
vn 0.353553 0.92388 0.146447
vn -0.353553 0.92388 -0.146447
vn -0.853553 0.382683 -0.353553
vn -0.853553 -0.382683 -0.353553
vn -0.353553 -0.92388 -0.146447
vn 0.353553 -0.92388 0.146447
vn 0.853553 -0.382683 0.353553
vn 0.768178 0.382683 0.51328
vn 0.31819 0.92388 0.212608
vn -0.31819 0.92388 -0.212608
vn -0.768178 0.382683 -0.51328
vn -0.768178 -0.382683 -0.51328
vn -0.31819 -0.92388 -0.212608
vn 0.31819 -0.92388 0.212608
vn 0.768178 -0.382683 0.51328
vn 0.653281 0.382683 0.653281
vn 0.270598 0.92388 0.270598
vn -0.270598 0.92388 -0.270598
vn -0.653281 0.382683 -0.653281
vn -0.653281 -0.382683 -0.653281
vn -0.270598 -0.92388 -0.270598
vn 0.270598 -0.92388 0.270598
vn 0.653281 -0.382683 0.653281
vn 0.51328 0.382683 0.768178
vn 0.212608 0.92388 0.31819
vn -0.212608 0.92388 -0.31819
vn -0.51328 0.382683 -0.768178
vn -0.51328 -0.382683 -0.768178
vn -0.212608 -0.92388 -0.31819
vn 0.212608 -0.92388 0.31819
vn 0.51328 -0.382683 0.768178
vn 0.353553 0.382683 0.853553
vn 0.146447 0.92388 0.353553
vn -0.146447 0.92388 -0.353553
vn -0.353553 0.382683 -0.853553
vn -0.353553 -0.382683 -0.853553
vn -0.146447 -0.92388 -0.353553
vn 0.146447 -0.92388 0.353553
vn 0.353553 -0.382683 0.853553
vn 0.18024 0.382683 0.906127
vn 0.074658 0.92388 0.37533
vn -0.074658 0.92388 -0.37533
vn -0.18024 0.382683 -0.906127
vn -0.18024 -0.382683 -0.906127
vn -0.074658 -0.92388 -0.37533
vn 0.074658 -0.92388 0.37533
vn 0.18024 -0.382683 0.906127
vn 0 0.382683 0.92388
vn 0 0.92388 0.382683
vn 0 0.92388 -0.382683
vn 0 0.382683 -0.92388
vn 0 -0.382683 -0.92388
vn 0 -0.92388 -0.382683
vn 0 -0.92388 0.382683
vn 0 -0.382683 0.92388
vn 0.683013 -0.258819 0.683013
vn 0.5 -0.707107 0.5
vn 0.183013 -0.965926 0.183013
vn -0.183013 -0.965926 -0.183013
vn -0.5 -0.707107 -0.5
vn -0.683013 -0.258819 -0.683013
vn -0.683013 0.258819 -0.683013
vn -0.5 0.707107 -0.5
vn -0.183013 0.965926 -0.183013
vn 0.183013 0.965926 0.183013
vn 0.5 0.707107 0.5
vn 0.683013 0.258819 0.683013
vn 0.683013 -0.258819 0.683013
vn 0.5 -0.707107 0.5
vn 0.183013 -0.965926 0.183013
vn -0.183013 -0.965926 -0.183013
vn -0.5 -0.707107 -0.5
vn -0.683013 -0.258819 -0.683013
vn -0.683013 0.258819 -0.683013
vn -0.5 0.707107 -0.5
vn -0.183013 0.965926 -0.183013
vn 0.183013 0.965926 0.183013
vn 0.5 0.707107 0.5
vn 0.683013 0.258819 0.683013
vn -0.707107 0 0.707107
vn -0.707107 0 0.707107
vn -0.707107 0 0.707107
vn -0.707107 0 0.707107
vn -0.707107 0 0.707107
vn -0.707107 0 0.707107
vn -0.707107 0 0.707107
vn -0.707107 0 0.707107
vn -0.707107 0 0.707107
vn -0.707107 0 0.707107
vn -0.707107 0 0.707107
vn -0.707107 0 0.707107
vn -0.707107 0 0.707107
vn 0.707107 0 -0.707107
vn 0.707107 0 -0.707107
vn 0.707107 0 -0.707107
vn 0.707107 0 -0.707107
vn 0.707107 0 -0.707107
vn 0.707107 0 -0.707107
vn 0.707107 0 -0.707107
vn 0.707107 0 -0.707107
vn 0.707107 0 -0.707107
vn 0.707107 0 -0.707107
vn 0.707107 0 -0.707107
vn 0.707107 0 -0.707107
vn 0.707107 0 -0.707107
vt 0.03125 0.96875
vt 0.09375 0.96875
vt 0.09375 0.90625
vt 0.03125 0.90625
vt 0.15625 0.96875
vt 0.21875 0.96875
vt 0.21875 0.90625
vt 0.15625 0.90625
vt 0.28125 0.96875
vt 0.34375 0.96875
vt 0.34375 0.90625
vt 0.28125 0.90625
vt 0.40625 0.96875
vt 0.46875 0.96875
vt 0.46875 0.90625
vt 0.40625 0.90625
vt 0.53125 0.96875
vt 0.59375 0.96875
vt 0.59375 0.90625
vt 0.53125 0.90625
vt 0.65625 0.96875
vt 0.71875 0.96875
vt 0.71875 0.90625
vt 0.65625 0.90625
vt 0.78125 0.96875
vt 0.84375 0.96875
vt 0.84375 0.90625
vt 0.78125 0.90625
f 1/1/1 9/2/9 10/3/10
f 1/1/1 10/2/10 2/3/2
f 2/1/2 10/2/10 11/3/11
f 2/1/2 11/2/11 3/3/3
f 3/1/3 11/2/11 12/3/12
f 3/1/3 12/2/12 4/3/4
f 4/1/4 12/2/12 13/3/13
f 4/1/4 13/2/13 5/3/5
f 5/1/5 13/2/13 14/3/14
f 5/1/5 14/2/14 6/3/6
f 6/1/6 14/2/14 15/3/15
f 6/1/6 15/2/15 7/3/7
f 7/1/7 15/2/15 16/3/16
f 7/1/7 16/2/16 8/3/8
f 8/1/8 16/2/16 9/3/9
f 8/1/8 9/2/9 1/3/1
f 9/1/9 17/2/17 18/3/18
f 9/1/9 18/2/18 10/3/10
f 10/1/10 18/2/18 19/3/19
f 10/1/10 19/2/19 11/3/11
f 11/1/11 19/2/19 20/3/20
f 11/1/11 20/2/20 12/3/12
f 12/1/12 20/2/20 21/3/21
f 12/1/12 21/2/21 13/3/13
f 13/1/13 21/2/21 22/3/22
f 13/1/13 22/2/22 14/3/14
f 14/1/14 22/2/22 23/3/23
f 14/1/14 23/2/23 15/3/15
f 15/1/15 23/2/23 24/3/24
f 15/1/15 24/2/24 16/3/16
f 16/1/16 24/2/24 17/3/17
f 16/1/16 17/2/17 9/3/9
f 17/1/17 25/2/25 26/3/26
f 17/1/17 26/2/26 18/3/18
f 18/1/18 26/2/26 27/3/27
f 18/1/18 27/2/27 19/3/19
f 19/1/19 27/2/27 28/3/28
f 19/1/19 28/2/28 20/3/20
f 20/1/20 28/2/28 29/3/29
f 20/1/20 29/2/29 21/3/21
f 21/1/21 29/2/29 30/3/30
f 21/1/21 30/2/30 22/3/22
f 22/1/22 30/2/30 31/3/31
f 22/1/22 31/2/31 23/3/23
f 23/1/23 31/2/31 32/3/32
f 23/1/23 32/2/32 24/3/24
f 24/1/24 32/2/32 25/3/25
f 24/1/24 25/2/25 17/3/17
f 25/1/25 33/2/33 34/3/34
f 25/1/25 34/2/34 26/3/26
f 26/1/26 34/2/34 35/3/35
f 26/1/26 35/2/35 27/3/27
f 27/1/27 35/2/35 36/3/36
f 27/1/27 36/2/36 28/3/28
f 28/1/28 36/2/36 37/3/37
f 28/1/28 37/2/37 29/3/29
f 29/1/29 37/2/37 38/3/38
f 29/1/29 38/2/38 30/3/30
f 30/1/30 38/2/38 39/3/39
f 30/1/30 39/2/39 31/3/31
f 31/1/31 39/2/39 40/3/40
f 31/1/31 40/2/40 32/3/32
f 32/1/32 40/2/40 33/3/33
f 32/1/32 33/2/33 25/3/25
f 33/1/33 41/2/41 42/3/42
f 33/1/33 42/2/42 34/3/34
f 34/1/34 42/2/42 43/3/43
f 34/1/34 43/2/43 35/3/35
f 35/1/35 43/2/43 44/3/44
f 35/1/35 44/2/44 36/3/36
f 36/1/36 44/2/44 45/3/45
f 36/1/36 45/2/45 37/3/37
f 37/1/37 45/2/45 46/3/46
f 37/1/37 46/2/46 38/3/38
f 38/1/38 46/2/46 47/3/47
f 38/1/38 47/2/47 39/3/39
f 39/1/39 47/2/47 48/3/48
f 39/1/39 48/2/48 40/3/40
f 40/1/40 48/2/48 41/3/41
f 40/1/40 41/2/41 33/3/33
f 41/1/41 49/2/49 50/3/50
f 41/1/41 50/2/50 42/3/42
f 42/1/42 50/2/50 51/3/51
f 42/1/42 51/2/51 43/3/43
f 43/1/43 51/2/51 52/3/52
f 43/1/43 52/2/52 44/3/44
f 44/1/44 52/2/52 53/3/53
f 44/1/44 53/2/53 45/3/45
f 45/1/45 53/2/53 54/3/54
f 45/1/45 54/2/54 46/3/46
f 46/1/46 54/2/54 55/3/55
f 46/1/46 55/2/55 47/3/47
f 47/1/47 55/2/55 56/3/56
f 47/1/47 56/2/56 48/3/48
f 48/1/48 56/2/56 49/3/49
f 48/1/48 49/2/49 41/3/41
f 49/1/49 57/2/57 58/3/58
f 49/1/49 58/2/58 50/3/50
f 50/1/50 58/2/58 59/3/59
f 50/1/50 59/2/59 51/3/51
f 51/1/51 59/2/59 60/3/60
f 51/1/51 60/2/60 52/3/52
f 52/1/52 60/2/60 61/3/61
f 52/1/52 61/2/61 53/3/53
f 53/1/53 61/2/61 62/3/62
f 53/1/53 62/2/62 54/3/54
f 54/1/54 62/2/62 63/3/63
f 54/1/54 63/2/63 55/3/55
f 55/1/55 63/2/63 64/3/64
f 55/1/55 64/2/64 56/3/56
f 56/1/56 64/2/64 57/3/57
f 56/1/56 57/2/57 49/3/49
f 57/1/57 65/2/65 66/3/66
f 57/1/57 66/2/66 58/3/58
f 58/1/58 66/2/66 67/3/67
f 58/1/58 67/2/67 59/3/59
f 59/1/59 67/2/67 68/3/68
f 59/1/59 68/2/68 60/3/60
f 60/1/60 68/2/68 69/3/69
f 60/1/60 69/2/69 61/3/61
f 61/1/61 69/2/69 70/3/70
f 61/1/61 70/2/70 62/3/62
f 62/1/62 70/2/70 71/3/71
f 62/1/62 71/2/71 63/3/63
f 63/1/63 71/2/71 72/3/72
f 63/1/63 72/2/72 64/3/64
f 64/1/64 72/2/72 65/3/65
f 64/1/64 65/2/65 57/3/57
f 73/1/73 81/2/81 82/3/82
f 73/1/73 82/2/82 74/3/74
f 74/1/74 82/2/82 83/3/83
f 74/1/74 83/2/83 75/3/75
f 75/1/75 83/2/83 84/3/84
f 75/1/75 84/2/84 76/3/76
f 76/1/76 84/2/84 85/3/85
f 76/1/76 85/2/85 77/3/77
f 77/1/77 85/2/85 86/3/86
f 77/1/77 86/2/86 78/3/78
f 78/1/78 86/2/86 87/3/87
f 78/1/78 87/2/87 79/3/79
f 79/1/79 87/2/87 88/3/88
f 79/1/79 88/2/88 80/3/80
f 80/1/80 88/2/88 81/3/81
f 80/1/80 81/2/81 73/3/73
f 81/1/81 89/2/89 90/3/90
f 81/1/81 90/2/90 82/3/82
f 82/1/82 90/2/90 91/3/91
f 82/1/82 91/2/91 83/3/83
f 83/1/83 91/2/91 92/3/92
f 83/1/83 92/2/92 84/3/84
f 84/1/84 92/2/92 93/3/93
f 84/1/84 93/2/93 85/3/85
f 85/1/85 93/2/93 94/3/94
f 85/1/85 94/2/94 86/3/86
f 86/1/86 94/2/94 95/3/95
f 86/1/86 95/2/95 87/3/87
f 87/1/87 95/2/95 96/3/96
f 87/1/87 96/2/96 88/3/88
f 88/1/88 96/2/96 89/3/89
f 88/1/88 89/2/89 81/3/81
f 89/1/89 97/2/97 98/3/98
f 89/1/89 98/2/98 90/3/90
f 90/1/90 98/2/98 99/3/99
f 90/1/90 99/2/99 91/3/91
f 91/1/91 99/2/99 100/3/100
f 91/1/91 100/2/100 92/3/92
f 92/1/92 100/2/100 101/3/101
f 92/1/92 101/2/101 93/3/93
f 93/1/93 101/2/101 102/3/102
f 93/1/93 102/2/102 94/3/94
f 94/1/94 102/2/102 103/3/103
f 94/1/94 103/2/103 95/3/95
f 95/1/95 103/2/103 104/3/104
f 95/1/95 104/2/104 96/3/96
f 96/1/96 104/2/104 97/3/97
f 96/1/96 97/2/97 89/3/89
f 97/1/97 105/2/105 106/3/106
f 97/1/97 106/2/106 98/3/98
f 98/1/98 106/2/106 107/3/107
f 98/1/98 107/2/107 99/3/99
f 99/1/99 107/2/107 108/3/108
f 99/1/99 108/2/108 100/3/100
f 100/1/100 108/2/108 109/3/109
f 100/1/100 109/2/109 101/3/101
f 101/1/101 109/2/109 110/3/110
f 101/1/101 110/2/110 102/3/102
f 102/1/102 110/2/110 111/3/111
f 102/1/102 111/2/111 103/3/103
f 103/1/103 111/2/111 112/3/112
f 103/1/103 112/2/112 104/3/104
f 104/1/104 112/2/112 105/3/105
f 104/1/104 105/2/105 97/3/97
f 105/1/105 113/2/113 114/3/114
f 105/1/105 114/2/114 106/3/106
f 106/1/106 114/2/114 115/3/115
f 106/1/106 115/2/115 107/3/107
f 107/1/107 115/2/115 116/3/116
f 107/1/107 116/2/116 108/3/108
f 108/1/108 116/2/116 117/3/117
f 108/1/108 117/2/117 109/3/109
f 109/1/109 117/2/117 118/3/118
f 109/1/109 118/2/118 110/3/110
f 110/1/110 118/2/118 119/3/119
f 110/1/110 119/2/119 111/3/111
f 111/1/111 119/2/119 120/3/120
f 111/1/111 120/2/120 112/3/112
f 112/1/112 120/2/120 113/3/113
f 112/1/112 113/2/113 105/3/105
f 113/1/113 121/2/121 122/3/122
f 113/1/113 122/2/122 114/3/114
f 114/1/114 122/2/122 123/3/123
f 114/1/114 123/2/123 115/3/115
f 115/1/115 123/2/123 124/3/124
f 115/1/115 124/2/124 116/3/116
f 116/1/116 124/2/124 125/3/125
f 116/1/116 125/2/125 117/3/117
f 117/1/117 125/2/125 126/3/126
f 117/1/117 126/2/126 118/3/118
f 118/1/118 126/2/126 127/3/127
f 118/1/118 127/2/127 119/3/119
f 119/1/119 127/2/127 128/3/128
f 119/1/119 128/2/128 120/3/120
f 120/1/120 128/2/128 121/3/121
f 120/1/120 121/2/121 113/3/113
f 121/1/121 129/2/129 130/3/130
f 121/1/121 130/2/130 122/3/122
f 122/1/122 130/2/130 131/3/131
f 122/1/122 131/2/131 123/3/123
f 123/1/123 131/2/131 132/3/132
f 123/1/123 132/2/132 124/3/124
f 124/1/124 132/2/132 133/3/133
f 124/1/124 133/2/133 125/3/125
f 125/1/125 133/2/133 134/3/134
f 125/1/125 134/2/134 126/3/126
f 126/1/126 134/2/134 135/3/135
f 126/1/126 135/2/135 127/3/127
f 127/1/127 135/2/135 136/3/136
f 127/1/127 136/2/136 128/3/128
f 128/1/128 136/2/136 129/3/129
f 128/1/128 129/2/129 121/3/121
f 129/1/129 137/2/137 138/3/138
f 129/1/129 138/2/138 130/3/130
f 130/1/130 138/2/138 139/3/139
f 130/1/130 139/2/139 131/3/131
f 131/1/131 139/2/139 140/3/140
f 131/1/131 140/2/140 132/3/132
f 132/1/132 140/2/140 141/3/141
f 132/1/132 141/2/141 133/3/133
f 133/1/133 141/2/141 142/3/142
f 133/1/133 142/2/142 134/3/134
f 134/1/134 142/2/142 143/3/143
f 134/1/134 143/2/143 135/3/135
f 135/1/135 143/2/143 144/3/144
f 135/1/135 144/2/144 136/3/136
f 136/1/136 144/2/144 137/3/137
f 136/1/136 137/2/137 129/3/129
f 145/1/145 153/2/153 154/3/154
f 145/1/145 154/2/154 146/3/146
f 146/1/146 154/2/154 155/3/155
f 146/1/146 155/2/155 147/3/147
f 147/1/147 155/2/155 156/3/156
f 147/1/147 156/2/156 148/3/148
f 148/1/148 156/2/156 157/3/157
f 148/1/148 157/2/157 149/3/149
f 149/1/149 157/2/157 158/3/158
f 149/1/149 158/2/158 150/3/150
f 150/1/150 158/2/158 159/3/159
f 150/1/150 159/2/159 151/3/151
f 151/1/151 159/2/159 160/3/160
f 151/1/151 160/2/160 152/3/152
f 152/1/152 160/2/160 153/3/153
f 152/1/152 153/2/153 145/3/145
f 153/1/153 161/2/161 162/3/162
f 153/1/153 162/2/162 154/3/154
f 154/1/154 162/2/162 163/3/163
f 154/1/154 163/2/163 155/3/155
f 155/1/155 163/2/163 164/3/164
f 155/1/155 164/2/164 156/3/156
f 156/1/156 164/2/164 165/3/165
f 156/1/156 165/2/165 157/3/157
f 157/1/157 165/2/165 166/3/166
f 157/1/157 166/2/166 158/3/158
f 158/1/158 166/2/166 167/3/167
f 158/1/158 167/2/167 159/3/159
f 159/1/159 167/2/167 168/3/168
f 159/1/159 168/2/168 160/3/160
f 160/1/160 168/2/168 161/3/161
f 160/1/160 161/2/161 153/3/153
f 161/1/161 169/2/169 170/3/170
f 161/1/161 170/2/170 162/3/162
f 162/1/162 170/2/170 171/3/171
f 162/1/162 171/2/171 163/3/163
f 163/1/163 171/2/171 172/3/172
f 163/1/163 172/2/172 164/3/164
f 164/1/164 172/2/172 173/3/173
f 164/1/164 173/2/173 165/3/165
f 165/1/165 173/2/173 174/3/174
f 165/1/165 174/2/174 166/3/166
f 166/1/166 174/2/174 175/3/175
f 166/1/166 175/2/175 167/3/167
f 167/1/167 175/2/175 176/3/176
f 167/1/167 176/2/176 168/3/168
f 168/1/168 176/2/176 169/3/169
f 168/1/168 169/2/169 161/3/161
f 169/1/169 177/2/177 178/3/178
f 169/1/169 178/2/178 170/3/170
f 170/1/170 178/2/178 179/3/179
f 170/1/170 179/2/179 171/3/171
f 171/1/171 179/2/179 180/3/180
f 171/1/171 180/2/180 172/3/172
f 172/1/172 180/2/180 181/3/181
f 172/1/172 181/2/181 173/3/173
f 173/1/173 181/2/181 182/3/182
f 173/1/173 182/2/182 174/3/174
f 174/1/174 182/2/182 183/3/183
f 174/1/174 183/2/183 175/3/175
f 175/1/175 183/2/183 184/3/184
f 175/1/175 184/2/184 176/3/176
f 176/1/176 184/2/184 177/3/177
f 176/1/176 177/2/177 169/3/169
f 177/1/177 185/2/185 186/3/186
f 177/1/177 186/2/186 178/3/178
f 178/1/178 186/2/186 187/3/187
f 178/1/178 187/2/187 179/3/179
f 179/1/179 187/2/187 188/3/188
f 179/1/179 188/2/188 180/3/180
f 180/1/180 188/2/188 189/3/189
f 180/1/180 189/2/189 181/3/181
f 181/1/181 189/2/189 190/3/190
f 181/1/181 190/2/190 182/3/182
f 182/1/182 190/2/190 191/3/191
f 182/1/182 191/2/191 183/3/183
f 183/1/183 191/2/191 192/3/192
f 183/1/183 192/2/192 184/3/184
f 184/1/184 192/2/192 185/3/185
f 184/1/184 185/2/185 177/3/177
f 185/1/185 193/2/193 194/3/194
f 185/1/185 194/2/194 186/3/186
f 186/1/186 194/2/194 195/3/195
f 186/1/186 195/2/195 187/3/187
f 187/1/187 195/2/195 196/3/196
f 187/1/187 196/2/196 188/3/188
f 188/1/188 196/2/196 197/3/197
f 188/1/188 197/2/197 189/3/189
f 189/1/189 197/2/197 198/3/198
f 189/1/189 198/2/198 190/3/190
f 190/1/190 198/2/198 199/3/199
f 190/1/190 199/2/199 191/3/191
f 191/1/191 199/2/199 200/3/200
f 191/1/191 200/2/200 192/3/192
f 192/1/192 200/2/200 193/3/193
f 192/1/192 193/2/193 185/3/185
f 193/1/193 201/2/201 202/3/202
f 193/1/193 202/2/202 194/3/194
f 194/1/194 202/2/202 203/3/203
f 194/1/194 203/2/203 195/3/195
f 195/1/195 203/2/203 204/3/204
f 195/1/195 204/2/204 196/3/196
f 196/1/196 204/2/204 205/3/205
f 196/1/196 205/2/205 197/3/197
f 197/1/197 205/2/205 206/3/206
f 197/1/197 206/2/206 198/3/198
f 198/1/198 206/2/206 207/3/207
f 198/1/198 207/2/207 199/3/199
f 199/1/199 207/2/207 208/3/208
f 199/1/199 208/2/208 200/3/200
f 200/1/200 208/2/208 201/3/201
f 200/1/200 201/2/201 193/3/193
f 201/1/201 209/2/209 210/3/210
f 201/1/201 210/2/210 202/3/202
f 202/1/202 210/2/210 211/3/211
f 202/1/202 211/2/211 203/3/203
f 203/1/203 211/2/211 212/3/212
f 203/1/203 212/2/212 204/3/204
f 204/1/204 212/2/212 213/3/213
f 204/1/204 213/2/213 205/3/205
f 205/1/205 213/2/213 214/3/214
f 205/1/205 214/2/214 206/3/206
f 206/1/206 214/2/214 215/3/215
f 206/1/206 215/2/215 207/3/207
f 207/1/207 215/2/215 216/3/216
f 207/1/207 216/2/216 208/3/208
f 208/1/208 216/2/216 209/3/209
f 208/1/208 209/2/209 201/3/201
f 218/5/218 230/6/230 229/7/229 217/8/217
f 219/5/219 231/6/231 230/7/230 218/8/218
f 220/5/220 232/6/232 231/7/231 219/8/219
f 221/5/221 233/6/233 232/7/232 220/8/220
f 222/5/222 234/6/234 233/7/233 221/8/221
f 223/5/223 235/6/235 234/7/234 222/8/222
f 224/5/224 236/6/236 235/7/235 223/8/223
f 225/5/225 237/6/237 236/7/236 224/8/224
f 226/5/226 238/6/238 237/7/237 225/8/225
f 227/5/227 239/6/239 238/7/238 226/8/226
f 228/5/228 240/6/240 239/7/239 227/8/227
f 217/5/217 229/6/229 240/7/240 228/8/228
f 241/5/241 243/6/243 242/7/242
f 241/5/241 244/6/244 243/7/243
f 241/5/241 245/6/245 244/7/244
f 241/5/241 246/6/246 245/7/245
f 241/5/241 247/6/247 246/7/246
f 241/5/241 248/6/248 247/7/247
f 241/5/241 249/6/249 248/7/248
f 241/5/241 250/6/250 249/7/249
f 241/5/241 251/6/251 250/7/250
f 241/5/241 252/6/252 251/7/251
f 241/5/241 253/6/253 252/7/252
f 241/5/241 242/6/242 253/7/253
f 254/5/254 255/6/255 256/7/256
f 254/5/254 256/6/256 257/7/257
f 254/5/254 257/6/257 258/7/258
f 254/5/254 258/6/258 259/7/259
f 254/5/254 259/6/259 260/7/260
f 254/5/254 260/6/260 261/7/261
f 254/5/254 261/6/261 262/7/262
f 254/5/254 262/6/262 263/7/263
f 254/5/254 263/6/263 264/7/264
f 254/5/254 264/6/264 265/7/265
f 254/5/254 265/6/265 266/7/266
f 254/5/254 266/6/266 255/7/255
