# AFL Power Cable V2 piece box, generated by tools/build-power-cable-v2.mjs
mtllib power_cable.mtl
o box
usemtl cable
v 0.3 0.321875 0.678125
v 0.3 0.678125 0.678125
v 0.3 0.678125 0.321875
v 0.3 0.321875 0.321875
v 0.7 0.321875 0.321875
v 0.7 0.678125 0.321875
v 0.7 0.678125 0.678125
v 0.7 0.321875 0.678125
v 0.321875 0.3 0.321875
v 0.678125 0.3 0.321875
v 0.678125 0.3 0.678125
v 0.321875 0.3 0.678125
v 0.321875 0.7 0.678125
v 0.678125 0.7 0.678125
v 0.678125 0.7 0.321875
v 0.321875 0.7 0.321875
v 0.321875 0.678125 0.3
v 0.678125 0.678125 0.3
v 0.678125 0.321875 0.3
v 0.321875 0.321875 0.3
v 0.321875 0.321875 0.7
v 0.678125 0.321875 0.7
v 0.678125 0.678125 0.7
v 0.321875 0.678125 0.7
v 0.321875 0.3 0.321875
v 0.321875 0.3 0.678125
v 0.3 0.321875 0.678125
v 0.3 0.321875 0.321875
v 0.3 0.678125 0.321875
v 0.3 0.678125 0.678125
v 0.321875 0.7 0.678125
v 0.321875 0.7 0.321875
v 0.7 0.321875 0.321875
v 0.7 0.321875 0.678125
v 0.678125 0.3 0.678125
v 0.678125 0.3 0.321875
v 0.678125 0.7 0.321875
v 0.678125 0.7 0.678125
v 0.7 0.678125 0.678125
v 0.7 0.678125 0.321875
v 0.3 0.321875 0.321875
v 0.3 0.678125 0.321875
v 0.321875 0.678125 0.3
v 0.321875 0.321875 0.3
v 0.321875 0.321875 0.7
v 0.321875 0.678125 0.7
v 0.3 0.678125 0.678125
v 0.3 0.321875 0.678125
v 0.678125 0.321875 0.3
v 0.678125 0.678125 0.3
v 0.7 0.678125 0.321875
v 0.7 0.321875 0.321875
v 0.7 0.321875 0.678125
v 0.7 0.678125 0.678125
v 0.678125 0.678125 0.7
v 0.678125 0.321875 0.7
v 0.321875 0.321875 0.3
v 0.678125 0.321875 0.3
v 0.678125 0.3 0.321875
v 0.321875 0.3 0.321875
v 0.321875 0.3 0.678125
v 0.678125 0.3 0.678125
v 0.678125 0.321875 0.7
v 0.321875 0.321875 0.7
v 0.321875 0.7 0.321875
v 0.678125 0.7 0.321875
v 0.678125 0.678125 0.3
v 0.321875 0.678125 0.3
v 0.321875 0.678125 0.7
v 0.678125 0.678125 0.7
v 0.678125 0.7 0.678125
v 0.321875 0.7 0.678125
v 0.321875 0.321875 0.3
v 0.321875 0.3 0.321875
v 0.3 0.321875 0.321875
v 0.3 0.321875 0.678125
v 0.321875 0.3 0.678125
v 0.321875 0.321875 0.7
v 0.3 0.678125 0.321875
v 0.321875 0.7 0.321875
v 0.321875 0.678125 0.3
v 0.321875 0.678125 0.7
v 0.321875 0.7 0.678125
v 0.3 0.678125 0.678125
v 0.7 0.321875 0.321875
v 0.678125 0.3 0.321875
v 0.678125 0.321875 0.3
v 0.678125 0.321875 0.7
v 0.678125 0.3 0.678125
v 0.7 0.321875 0.678125
v 0.678125 0.678125 0.3
v 0.678125 0.7 0.321875
v 0.7 0.678125 0.321875
v 0.7 0.678125 0.678125
v 0.678125 0.7 0.678125
v 0.678125 0.678125 0.7
v 0.334375 0.69875 0.334375
v 0.334375 0.70875 0.334375
v 0.665625 0.70875 0.334375
v 0.665625 0.69875 0.334375
v 0.334375 0.69875 0.665625
v 0.665625 0.69875 0.665625
v 0.665625 0.70875 0.665625
v 0.334375 0.70875 0.665625
v 0.334375 0.69875 0.334375
v 0.665625 0.69875 0.334375
v 0.665625 0.69875 0.665625
v 0.334375 0.69875 0.665625
v 0.334375 0.70875 0.334375
v 0.334375 0.70875 0.665625
v 0.665625 0.70875 0.665625
v 0.665625 0.70875 0.334375
v 0.334375 0.69875 0.334375
v 0.334375 0.69875 0.665625
v 0.334375 0.70875 0.665625
v 0.334375 0.70875 0.334375
v 0.665625 0.69875 0.334375
v 0.665625 0.70875 0.334375
v 0.665625 0.70875 0.665625
v 0.665625 0.69875 0.665625
vn -1 0 0
vn -1 0 0
vn -1 0 0
vn -1 0 0
vn 1 0 0
vn 1 0 0
vn 1 0 0
vn 1 0 0
vn 0 -1 0
vn 0 -1 0
vn 0 -1 0
vn 0 -1 0
vn 0 1 0
vn 0 1 0
vn 0 1 0
vn 0 1 0
vn 0 0 -1
vn 0 0 -1
vn 0 0 -1
vn 0 0 -1
vn 0 0 1
vn 0 0 1
vn 0 0 1
vn 0 0 1
vn -0.707107 -0.707107 0
vn -0.707107 -0.707107 0
vn -0.707107 -0.707107 0
vn -0.707107 -0.707107 0
vn -0.707107 0.707107 0
vn -0.707107 0.707107 0
vn -0.707107 0.707107 0
vn -0.707107 0.707107 0
vn 0.707107 -0.707107 0
vn 0.707107 -0.707107 0
vn 0.707107 -0.707107 0
vn 0.707107 -0.707107 0
vn 0.707107 0.707107 0
vn 0.707107 0.707107 0
vn 0.707107 0.707107 0
vn 0.707107 0.707107 0
vn -0.707107 0 -0.707107
vn -0.707107 0 -0.707107
vn -0.707107 0 -0.707107
vn -0.707107 0 -0.707107
vn -0.707107 0 0.707107
vn -0.707107 0 0.707107
vn -0.707107 0 0.707107
vn -0.707107 0 0.707107
vn 0.707107 0 -0.707107
vn 0.707107 0 -0.707107
vn 0.707107 0 -0.707107
vn 0.707107 0 -0.707107
vn 0.707107 0 0.707107
vn 0.707107 0 0.707107
vn 0.707107 0 0.707107
vn 0.707107 0 0.707107
vn 0 -0.707107 -0.707107
vn 0 -0.707107 -0.707107
vn 0 -0.707107 -0.707107
vn 0 -0.707107 -0.707107
vn 0 -0.707107 0.707107
vn 0 -0.707107 0.707107
vn 0 -0.707107 0.707107
vn 0 -0.707107 0.707107
vn 0 0.707107 -0.707107
vn 0 0.707107 -0.707107
vn 0 0.707107 -0.707107
vn 0 0.707107 -0.707107
vn 0 0.707107 0.707107
vn 0 0.707107 0.707107
vn 0 0.707107 0.707107
vn 0 0.707107 0.707107
vn -0.57735 -0.57735 -0.57735
vn -0.57735 -0.57735 -0.57735
vn -0.57735 -0.57735 -0.57735
vn -0.57735 -0.57735 0.57735
vn -0.57735 -0.57735 0.57735
vn -0.57735 -0.57735 0.57735
vn -0.57735 0.57735 -0.57735
vn -0.57735 0.57735 -0.57735
vn -0.57735 0.57735 -0.57735
vn -0.57735 0.57735 0.57735
vn -0.57735 0.57735 0.57735
vn -0.57735 0.57735 0.57735
vn 0.57735 -0.57735 -0.57735
vn 0.57735 -0.57735 -0.57735
vn 0.57735 -0.57735 -0.57735
vn 0.57735 -0.57735 0.57735
vn 0.57735 -0.57735 0.57735
vn 0.57735 -0.57735 0.57735
vn 0.57735 0.57735 -0.57735
vn 0.57735 0.57735 -0.57735
vn 0.57735 0.57735 -0.57735
vn 0.57735 0.57735 0.57735
vn 0.57735 0.57735 0.57735
vn 0.57735 0.57735 0.57735
vn 0 0 -1
vn 0 0 -1
vn 0 0 -1
vn 0 0 -1
vn 0 0 1
vn 0 0 1
vn 0 0 1
vn 0 0 1
vn 0 -1 0
vn 0 -1 0
vn 0 -1 0
vn 0 -1 0
vn 0 1 0
vn 0 1 0
vn 0 1 0
vn 0 1 0
vn -1 0 0
vn -1 0 0
vn -1 0 0
vn -1 0 0
vn 1 0 0
vn 1 0 0
vn 1 0 0
vn 1 0 0
vt 0.0625 0.9375
vt 0.1875 0.9375
vt 0.3125 0.9375
vt 0.4375 0.9375
vt 0.5625 0.9375
vt 0.6875 0.9375
vt 0.8125 0.9375
f 1/3/1 2/3/2 3/3/3 4/3/4
f 5/3/5 6/3/6 7/3/7 8/3/8
f 9/3/9 10/3/10 11/3/11 12/3/12
f 13/3/13 14/3/14 15/3/15 16/3/16
f 17/3/17 18/3/18 19/3/19 20/3/20
f 21/3/21 22/3/22 23/3/23 24/3/24
f 25/3/25 26/3/26 27/3/27 28/3/28
f 29/3/29 30/3/30 31/3/31 32/3/32
f 33/3/33 34/3/34 35/3/35 36/3/36
f 37/3/37 38/3/38 39/3/39 40/3/40
f 41/3/41 42/3/42 43/3/43 44/3/44
f 45/3/45 46/3/46 47/3/47 48/3/48
f 49/3/49 50/3/50 51/3/51 52/3/52
f 53/3/53 54/3/54 55/3/55 56/3/56
f 57/3/57 58/3/58 59/3/59 60/3/60
f 61/3/61 62/3/62 63/3/63 64/3/64
f 65/3/65 66/3/66 67/3/67 68/3/68
f 69/3/69 70/3/70 71/3/71 72/3/72
f 73/3/73 74/3/74 75/3/75
f 76/3/76 77/3/77 78/3/78
f 79/3/79 80/3/80 81/3/81
f 82/3/82 83/3/83 84/3/84
f 85/3/85 86/3/86 87/3/87
f 88/3/88 89/3/89 90/3/90
f 91/3/91 92/3/92 93/3/93
f 94/3/94 95/3/95 96/3/96
f 97/2/97 98/2/98 99/2/99 100/2/100
f 101/2/101 102/2/102 103/2/103 104/2/104
f 105/2/105 106/2/106 107/2/107 108/2/108
f 109/2/109 110/2/110 111/2/111 112/2/112
f 113/2/113 114/2/114 115/2/115 116/2/116
f 117/2/117 118/2/118 119/2/119 120/2/120
