# AFL Power Cable V2 piece clamp_z_down, generated by tools/build-power-cable-v2.mjs
mtllib power_cable.mtl
o clamp_z_down
usemtl cable
v 0.627985 0.534294 0.46875
v 0.593692 0.593692 0.46875
v 0.534294 0.627985 0.46875
v 0.465706 0.627985 0.46875
v 0.406308 0.593692 0.46875
v 0.372015 0.534294 0.46875
v 0.372015 0.465706 0.46875
v 0.406308 0.406308 0.46875
v 0.465706 0.372015 0.46875
v 0.534294 0.372015 0.46875
v 0.593692 0.406308 0.46875
v 0.627985 0.465706 0.46875
v 0.627985 0.534294 0.53125
v 0.593692 0.593692 0.53125
v 0.534294 0.627985 0.53125
v 0.465706 0.627985 0.53125
v 0.406308 0.593692 0.53125
v 0.372015 0.534294 0.53125
v 0.372015 0.465706 0.53125
v 0.406308 0.406308 0.53125
v 0.465706 0.372015 0.53125
v 0.534294 0.372015 0.53125
v 0.593692 0.406308 0.53125
v 0.627985 0.465706 0.53125
v 0.5 0.5 0.46875
v 0.627985 0.534294 0.46875
v 0.593692 0.593692 0.46875
v 0.534294 0.627985 0.46875
v 0.465706 0.627985 0.46875
v 0.406308 0.593692 0.46875
v 0.372015 0.534294 0.46875
v 0.372015 0.465706 0.46875
v 0.406308 0.406308 0.46875
v 0.465706 0.372015 0.46875
v 0.534294 0.372015 0.46875
v 0.593692 0.406308 0.46875
v 0.627985 0.465706 0.46875
v 0.5 0.5 0.53125
v 0.627985 0.534294 0.53125
v 0.593692 0.593692 0.53125
v 0.534294 0.627985 0.53125
v 0.465706 0.627985 0.53125
v 0.406308 0.593692 0.53125
v 0.372015 0.534294 0.53125
v 0.372015 0.465706 0.53125
v 0.406308 0.406308 0.53125
v 0.465706 0.372015 0.53125
v 0.534294 0.372015 0.53125
v 0.593692 0.406308 0.53125
v 0.627985 0.465706 0.53125
v 0.471875 0.025 0.46875
v 0.471875 0.375 0.46875
v 0.528125 0.375 0.46875
v 0.528125 0.025 0.46875
v 0.471875 0.025 0.53125
v 0.528125 0.025 0.53125
v 0.528125 0.375 0.53125
v 0.471875 0.375 0.53125
v 0.471875 0.025 0.46875
v 0.528125 0.025 0.46875
v 0.528125 0.025 0.53125
v 0.471875 0.025 0.53125
v 0.471875 0.375 0.46875
v 0.471875 0.375 0.53125
v 0.528125 0.375 0.53125
v 0.528125 0.375 0.46875
v 0.471875 0.025 0.46875
v 0.471875 0.025 0.53125
v 0.471875 0.375 0.53125
v 0.471875 0.375 0.46875
v 0.528125 0.025 0.46875
v 0.528125 0.375 0.46875
v 0.528125 0.375 0.53125
v 0.528125 0.025 0.53125
v 0.4 0 0.4375
v 0.4 0.025 0.4375
v 0.6 0.025 0.4375
v 0.6 0 0.4375
v 0.4 0 0.5625
v 0.6 0 0.5625
v 0.6 0.025 0.5625
v 0.4 0.025 0.5625
v 0.4 0 0.4375
v 0.6 0 0.4375
v 0.6 0 0.5625
v 0.4 0 0.5625
v 0.4 0.025 0.4375
v 0.4 0.025 0.5625
v 0.6 0.025 0.5625
v 0.6 0.025 0.4375
v 0.4 0 0.4375
v 0.4 0 0.5625
v 0.4 0.025 0.5625
v 0.4 0.025 0.4375
v 0.6 0 0.4375
v 0.6 0.025 0.4375
v 0.6 0.025 0.5625
v 0.6 0 0.5625
v 0.454943 0.03875 0.511875
v 0.434375 0.03875 0.52375
v 0.413807 0.03875 0.511875
v 0.413807 0.03875 0.488125
v 0.434375 0.03875 0.47625
v 0.454943 0.03875 0.488125
v 0.454943 0.025 0.511875
v 0.434375 0.025 0.52375
v 0.413807 0.025 0.511875
v 0.413807 0.025 0.488125
v 0.434375 0.025 0.47625
v 0.454943 0.025 0.488125
v 0.434375 0.03875 0.5
v 0.454943 0.03875 0.511875
v 0.434375 0.03875 0.52375
v 0.413807 0.03875 0.511875
v 0.413807 0.03875 0.488125
v 0.434375 0.03875 0.47625
v 0.454943 0.03875 0.488125
v 0.434375 0.025 0.5
v 0.454943 0.025 0.511875
v 0.434375 0.025 0.52375
v 0.413807 0.025 0.511875
v 0.413807 0.025 0.488125
v 0.434375 0.025 0.47625
v 0.454943 0.025 0.488125
v 0.586193 0.03875 0.511875
v 0.565625 0.03875 0.52375
v 0.545057 0.03875 0.511875
v 0.545057 0.03875 0.488125
v 0.565625 0.03875 0.47625
v 0.586193 0.03875 0.488125
v 0.586193 0.025 0.511875
v 0.565625 0.025 0.52375
v 0.545057 0.025 0.511875
v 0.545057 0.025 0.488125
v 0.565625 0.025 0.47625
v 0.586193 0.025 0.488125
v 0.565625 0.03875 0.5
v 0.586193 0.03875 0.511875
v 0.565625 0.03875 0.52375
v 0.545057 0.03875 0.511875
v 0.545057 0.03875 0.488125
v 0.565625 0.03875 0.47625
v 0.586193 0.03875 0.488125
v 0.565625 0.025 0.5
v 0.586193 0.025 0.511875
v 0.565625 0.025 0.52375
v 0.545057 0.025 0.511875
v 0.545057 0.025 0.488125
v 0.565625 0.025 0.47625
v 0.586193 0.025 0.488125
vn 0.965926 0.258819 0
vn 0.707107 0.707107 0
vn 0.258819 0.965926 0
vn -0.258819 0.965926 0
vn -0.707107 0.707107 0
vn -0.965926 0.258819 0
vn -0.965926 -0.258819 0
vn -0.707107 -0.707107 0
vn -0.258819 -0.965926 0
vn 0.258819 -0.965926 0
vn 0.707107 -0.707107 0
vn 0.965926 -0.258819 0
vn 0.965926 0.258819 0
vn 0.707107 0.707107 0
vn 0.258819 0.965926 0
vn -0.258819 0.965926 0
vn -0.707107 0.707107 0
vn -0.965926 0.258819 0
vn -0.965926 -0.258819 0
vn -0.707107 -0.707107 0
vn -0.258819 -0.965926 0
vn 0.258819 -0.965926 0
vn 0.707107 -0.707107 0
vn 0.965926 -0.258819 0
vn 0 0 -1
vn 0 0 -1
vn 0 0 -1
vn 0 0 -1
vn 0 0 -1
vn 0 0 -1
vn 0 0 -1
vn 0 0 -1
vn 0 0 -1
vn 0 0 -1
vn 0 0 -1
vn 0 0 -1
vn 0 0 -1
vn 0 0 1
vn 0 0 1
vn 0 0 1
vn 0 0 1
vn 0 0 1
vn 0 0 1
vn 0 0 1
vn 0 0 1
vn 0 0 1
vn 0 0 1
vn 0 0 1
vn 0 0 1
vn 0 0 1
vn 0 0 -1
vn 0 0 -1
vn 0 0 -1
vn 0 0 -1
vn 0 0 1
vn 0 0 1
vn 0 0 1
vn 0 0 1
vn 0 -1 0
vn 0 -1 0
vn 0 -1 0
vn 0 -1 0
vn 0 1 0
vn 0 1 0
vn 0 1 0
vn 0 1 0
vn -1 0 0
vn -1 0 0
vn -1 0 0
vn -1 0 0
vn 1 0 0
vn 1 0 0
vn 1 0 0
vn 1 0 0
vn 0 0 -1
vn 0 0 -1
vn 0 0 -1
vn 0 0 -1
vn 0 0 1
vn 0 0 1
vn 0 0 1
vn 0 0 1
vn 0 -1 0
vn 0 -1 0
vn 0 -1 0
vn 0 -1 0
vn 0 1 0
vn 0 1 0
vn 0 1 0
vn 0 1 0
vn -1 0 0
vn -1 0 0
vn -1 0 0
vn -1 0 0
vn 1 0 0
vn 1 0 0
vn 1 0 0
vn 1 0 0
vn 0.866025 0 0.5
vn 0 0 1
vn -0.866025 0 0.5
vn -0.866025 0 -0.5
vn 0 0 -1
vn 0.866025 0 -0.5
vn 0.866025 0 0.5
vn 0 0 1
vn -0.866025 0 0.5
vn -0.866025 0 -0.5
vn 0 0 -1
vn 0.866025 0 -0.5
vn 0 1 0
vn 0 1 0
vn 0 1 0
vn 0 1 0
vn 0 1 0
vn 0 1 0
vn 0 1 0
vn 0 -1 0
vn 0 -1 0
vn 0 -1 0
vn 0 -1 0
vn 0 -1 0
vn 0 -1 0
vn 0 -1 0
vn 0.866025 0 0.5
vn 0 0 1
vn -0.866025 0 0.5
vn -0.866025 0 -0.5
vn 0 0 -1
vn 0.866025 0 -0.5
vn 0.866025 0 0.5
vn 0 0 1
vn -0.866025 0 0.5
vn -0.866025 0 -0.5
vn 0 0 -1
vn 0.866025 0 -0.5
vn 0 1 0
vn 0 1 0
vn 0 1 0
vn 0 1 0
vn 0 1 0
vn 0 1 0
vn 0 1 0
vn 0 -1 0
vn 0 -1 0
vn 0 -1 0
vn 0 -1 0
vn 0 -1 0
vn 0 -1 0
vn 0 -1 0
vt 0.03125 0.96875
vt 0.09375 0.96875
vt 0.09375 0.90625
vt 0.03125 0.90625
vt 0.15625 0.96875
vt 0.21875 0.96875
vt 0.21875 0.90625
vt 0.15625 0.90625
vt 0.28125 0.96875
vt 0.34375 0.96875
vt 0.34375 0.90625
vt 0.28125 0.90625
vt 0.40625 0.96875
vt 0.46875 0.96875
vt 0.46875 0.90625
vt 0.40625 0.90625
vt 0.53125 0.96875
vt 0.59375 0.96875
vt 0.59375 0.90625
vt 0.53125 0.90625
vt 0.65625 0.96875
vt 0.71875 0.96875
vt 0.71875 0.90625
vt 0.65625 0.90625
vt 0.78125 0.96875
vt 0.84375 0.96875
vt 0.84375 0.90625
vt 0.78125 0.90625
f 2/5/2 14/6/14 13/7/13 1/8/1
f 3/5/3 15/6/15 14/7/14 2/8/2
f 4/5/4 16/6/16 15/7/15 3/8/3
f 5/5/5 17/6/17 16/7/16 4/8/4
f 6/5/6 18/6/18 17/7/17 5/8/5
f 7/5/7 19/6/19 18/7/18 6/8/6
f 8/5/8 20/6/20 19/7/19 7/8/7
f 9/5/9 21/6/21 20/7/20 8/8/8
f 10/5/10 22/6/22 21/7/21 9/8/9
f 11/5/11 23/6/23 22/7/22 10/8/10
f 12/5/12 24/6/24 23/7/23 11/8/11
f 1/5/1 13/6/13 24/7/24 12/8/12
f 25/5/25 27/6/27 26/7/26
f 25/5/25 28/6/28 27/7/27
f 25/5/25 29/6/29 28/7/28
f 25/5/25 30/6/30 29/7/29
f 25/5/25 31/6/31 30/7/30
f 25/5/25 32/6/32 31/7/31
f 25/5/25 33/6/33 32/7/32
f 25/5/25 34/6/34 33/7/33
f 25/5/25 35/6/35 34/7/34
f 25/5/25 36/6/36 35/7/35
f 25/5/25 37/6/37 36/7/36
f 25/5/25 26/6/26 37/7/37
f 38/5/38 39/6/39 40/7/40
f 38/5/38 40/6/40 41/7/41
f 38/5/38 41/6/41 42/7/42
f 38/5/38 42/6/42 43/7/43
f 38/5/38 43/6/43 44/7/44
f 38/5/38 44/6/44 45/7/45
f 38/5/38 45/6/45 46/7/46
f 38/5/38 46/6/46 47/7/47
f 38/5/38 47/6/47 48/7/48
f 38/5/38 48/6/48 49/7/49
f 38/5/38 49/6/49 50/7/50
f 38/5/38 50/6/50 39/7/39
f 51/5/51 52/6/52 53/7/53 54/8/54
f 55/5/55 56/6/56 57/7/57 58/8/58
f 59/5/59 60/6/60 61/7/61 62/8/62
f 63/5/63 64/6/64 65/7/65 66/8/66
f 67/5/67 68/6/68 69/7/69 70/8/70
f 71/5/71 72/6/72 73/7/73 74/8/74
f 75/5/75 76/6/76 77/7/77 78/8/78
f 79/5/79 80/6/80 81/7/81 82/8/82
f 83/5/83 84/6/84 85/7/85 86/8/86
f 87/5/87 88/6/88 89/7/89 90/8/90
f 91/5/91 92/6/92 93/7/93 94/8/94
f 95/5/95 96/6/96 97/7/97 98/8/98
f 100/21/100 106/22/106 105/23/105 99/24/99
f 101/21/101 107/22/107 106/23/106 100/24/100
f 102/21/102 108/22/108 107/23/107 101/24/101
f 103/21/103 109/22/109 108/23/108 102/24/102
f 104/21/104 110/22/110 109/23/109 103/24/103
f 99/21/99 105/22/105 110/23/110 104/24/104
f 111/21/111 113/22/113 112/23/112
f 111/21/111 114/22/114 113/23/113
f 111/21/111 115/22/115 114/23/114
f 111/21/111 116/22/116 115/23/115
f 111/21/111 117/22/117 116/23/116
f 111/21/111 112/22/112 117/23/117
f 118/21/118 119/22/119 120/23/120
f 118/21/118 120/22/120 121/23/121
f 118/21/118 121/22/121 122/23/122
f 118/21/118 122/22/122 123/23/123
f 118/21/118 123/22/123 124/23/124
f 118/21/118 124/22/124 119/23/119
f 126/21/126 132/22/132 131/23/131 125/24/125
f 127/21/127 133/22/133 132/23/132 126/24/126
f 128/21/128 134/22/134 133/23/133 127/24/127
f 129/21/129 135/22/135 134/23/134 128/24/128
f 130/21/130 136/22/136 135/23/135 129/24/129
f 125/21/125 131/22/131 136/23/136 130/24/130
f 137/21/137 139/22/139 138/23/138
f 137/21/137 140/22/140 139/23/139
f 137/21/137 141/22/141 140/23/140
f 137/21/137 142/22/142 141/23/141
f 137/21/137 143/22/143 142/23/142
f 137/21/137 138/22/138 143/23/143
f 144/21/144 145/22/145 146/23/146
f 144/21/144 146/22/146 147/23/147
f 144/21/144 147/22/147 148/23/148
f 144/21/144 148/22/148 149/23/149
f 144/21/144 149/22/149 150/23/150
f 144/21/144 150/22/150 145/23/145
