# AFL Power Cable V2 piece clamp_z_west, generated by tools/build-power-cable-v2.mjs
mtllib power_cable.mtl
o clamp_z_west
usemtl cable
v 0.627985 0.534294 0.46875
v 0.593692 0.593692 0.46875
v 0.534294 0.627985 0.46875
v 0.465706 0.627985 0.46875
v 0.406308 0.593692 0.46875
v 0.372015 0.534294 0.46875
v 0.372015 0.465706 0.46875
v 0.406308 0.406308 0.46875
v 0.465706 0.372015 0.46875
v 0.534294 0.372015 0.46875
v 0.593692 0.406308 0.46875
v 0.627985 0.465706 0.46875
v 0.627985 0.534294 0.53125
v 0.593692 0.593692 0.53125
v 0.534294 0.627985 0.53125
v 0.465706 0.627985 0.53125
v 0.406308 0.593692 0.53125
v 0.372015 0.534294 0.53125
v 0.372015 0.465706 0.53125
v 0.406308 0.406308 0.53125
v 0.465706 0.372015 0.53125
v 0.534294 0.372015 0.53125
v 0.593692 0.406308 0.53125
v 0.627985 0.465706 0.53125
v 0.5 0.5 0.46875
v 0.627985 0.534294 0.46875
v 0.593692 0.593692 0.46875
v 0.534294 0.627985 0.46875
v 0.465706 0.627985 0.46875
v 0.406308 0.593692 0.46875
v 0.372015 0.534294 0.46875
v 0.372015 0.465706 0.46875
v 0.406308 0.406308 0.46875
v 0.465706 0.372015 0.46875
v 0.534294 0.372015 0.46875
v 0.593692 0.406308 0.46875
v 0.627985 0.465706 0.46875
v 0.5 0.5 0.53125
v 0.627985 0.534294 0.53125
v 0.593692 0.593692 0.53125
v 0.534294 0.627985 0.53125
v 0.465706 0.627985 0.53125
v 0.406308 0.593692 0.53125
v 0.372015 0.534294 0.53125
v 0.372015 0.465706 0.53125
v 0.406308 0.406308 0.53125
v 0.465706 0.372015 0.53125
v 0.534294 0.372015 0.53125
v 0.593692 0.406308 0.53125
v 0.627985 0.465706 0.53125
v 0.025 0.471875 0.46875
v 0.025 0.528125 0.46875
v 0.375 0.528125 0.46875
v 0.375 0.471875 0.46875
v 0.025 0.471875 0.53125
v 0.375 0.471875 0.53125
v 0.375 0.528125 0.53125
v 0.025 0.528125 0.53125
v 0.025 0.471875 0.46875
v 0.375 0.471875 0.46875
v 0.375 0.471875 0.53125
v 0.025 0.471875 0.53125
v 0.025 0.528125 0.46875
v 0.025 0.528125 0.53125
v 0.375 0.528125 0.53125
v 0.375 0.528125 0.46875
v 0.025 0.471875 0.46875
v 0.025 0.471875 0.53125
v 0.025 0.528125 0.53125
v 0.025 0.528125 0.46875
v 0.375 0.471875 0.46875
v 0.375 0.528125 0.46875
v 0.375 0.528125 0.53125
v 0.375 0.471875 0.53125
v 0 0.4 0.4375
v 0 0.6 0.4375
v 0.025 0.6 0.4375
v 0.025 0.4 0.4375
v 0 0.4 0.5625
v 0.025 0.4 0.5625
v 0.025 0.6 0.5625
v 0 0.6 0.5625
v 0 0.4 0.4375
v 0.025 0.4 0.4375
v 0.025 0.4 0.5625
v 0 0.4 0.5625
v 0 0.6 0.4375
v 0 0.6 0.5625
v 0.025 0.6 0.5625
v 0.025 0.6 0.4375
v 0 0.4 0.4375
v 0 0.4 0.5625
v 0 0.6 0.5625
v 0 0.6 0.4375
v 0.025 0.4 0.4375
v 0.025 0.6 0.4375
v 0.025 0.6 0.5625
v 0.025 0.4 0.5625
v 0.03875 0.44625 0.520568
v 0.03875 0.458125 0.5
v 0.03875 0.44625 0.479432
v 0.03875 0.4225 0.479432
v 0.03875 0.410625 0.5
v 0.03875 0.4225 0.520568
v 0.025 0.44625 0.520568
v 0.025 0.458125 0.5
v 0.025 0.44625 0.479432
v 0.025 0.4225 0.479432
v 0.025 0.410625 0.5
v 0.025 0.4225 0.520568
v 0.03875 0.434375 0.5
v 0.03875 0.44625 0.520568
v 0.03875 0.458125 0.5
v 0.03875 0.44625 0.479432
v 0.03875 0.4225 0.479432
v 0.03875 0.410625 0.5
v 0.03875 0.4225 0.520568
v 0.025 0.434375 0.5
v 0.025 0.44625 0.520568
v 0.025 0.458125 0.5
v 0.025 0.44625 0.479432
v 0.025 0.4225 0.479432
v 0.025 0.410625 0.5
v 0.025 0.4225 0.520568
v 0.03875 0.5775 0.520568
v 0.03875 0.589375 0.5
v 0.03875 0.5775 0.479432
v 0.03875 0.55375 0.479432
v 0.03875 0.541875 0.5
v 0.03875 0.55375 0.520568
v 0.025 0.5775 0.520568
v 0.025 0.589375 0.5
v 0.025 0.5775 0.479432
v 0.025 0.55375 0.479432
v 0.025 0.541875 0.5
v 0.025 0.55375 0.520568
v 0.03875 0.565625 0.5
v 0.03875 0.5775 0.520568
v 0.03875 0.589375 0.5
v 0.03875 0.5775 0.479432
v 0.03875 0.55375 0.479432
v 0.03875 0.541875 0.5
v 0.03875 0.55375 0.520568
v 0.025 0.565625 0.5
v 0.025 0.5775 0.520568
v 0.025 0.589375 0.5
v 0.025 0.5775 0.479432
v 0.025 0.55375 0.479432
v 0.025 0.541875 0.5
v 0.025 0.55375 0.520568
vn 0.965926 0.258819 0
vn 0.707107 0.707107 0
vn 0.258819 0.965926 0
vn -0.258819 0.965926 0
vn -0.707107 0.707107 0
vn -0.965926 0.258819 0
vn -0.965926 -0.258819 0
vn -0.707107 -0.707107 0
vn -0.258819 -0.965926 0
vn 0.258819 -0.965926 0
vn 0.707107 -0.707107 0
vn 0.965926 -0.258819 0
vn 0.965926 0.258819 0
vn 0.707107 0.707107 0
vn 0.258819 0.965926 0
vn -0.258819 0.965926 0
vn -0.707107 0.707107 0
vn -0.965926 0.258819 0
vn -0.965926 -0.258819 0
vn -0.707107 -0.707107 0
vn -0.258819 -0.965926 0
vn 0.258819 -0.965926 0
vn 0.707107 -0.707107 0
vn 0.965926 -0.258819 0
vn 0 0 -1
vn 0 0 -1
vn 0 0 -1
vn 0 0 -1
vn 0 0 -1
vn 0 0 -1
vn 0 0 -1
vn 0 0 -1
vn 0 0 -1
vn 0 0 -1
vn 0 0 -1
vn 0 0 -1
vn 0 0 -1
vn 0 0 1
vn 0 0 1
vn 0 0 1
vn 0 0 1
vn 0 0 1
vn 0 0 1
vn 0 0 1
vn 0 0 1
vn 0 0 1
vn 0 0 1
vn 0 0 1
vn 0 0 1
vn 0 0 1
vn 0 0 -1
vn 0 0 -1
vn 0 0 -1
vn 0 0 -1
vn 0 0 1
vn 0 0 1
vn 0 0 1
vn 0 0 1
vn 0 -1 0
vn 0 -1 0
vn 0 -1 0
vn 0 -1 0
vn 0 1 0
vn 0 1 0
vn 0 1 0
vn 0 1 0
vn -1 0 0
vn -1 0 0
vn -1 0 0
vn -1 0 0
vn 1 0 0
vn 1 0 0
vn 1 0 0
vn 1 0 0
vn 0 0 -1
vn 0 0 -1
vn 0 0 -1
vn 0 0 -1
vn 0 0 1
vn 0 0 1
vn 0 0 1
vn 0 0 1
vn 0 -1 0
vn 0 -1 0
vn 0 -1 0
vn 0 -1 0
vn 0 1 0
vn 0 1 0
vn 0 1 0
vn 0 1 0
vn -1 0 0
vn -1 0 0
vn -1 0 0
vn -1 0 0
vn 1 0 0
vn 1 0 0
vn 1 0 0
vn 1 0 0
vn 0 0.5 0.866025
vn 0 1 0
vn 0 0.5 -0.866025
vn 0 -0.5 -0.866025
vn 0 -1 0
vn 0 -0.5 0.866025
vn 0 0.5 0.866025
vn 0 1 0
vn 0 0.5 -0.866025
vn 0 -0.5 -0.866025
vn 0 -1 0
vn 0 -0.5 0.866025
vn 1 0 0
vn 1 0 0
vn 1 0 0
vn 1 0 0
vn 1 0 0
vn 1 0 0
vn 1 0 0
vn -1 0 0
vn -1 0 0
vn -1 0 0
vn -1 0 0
vn -1 0 0
vn -1 0 0
vn -1 0 0
vn 0 0.5 0.866025
vn 0 1 0
vn 0 0.5 -0.866025
vn 0 -0.5 -0.866025
vn 0 -1 0
vn 0 -0.5 0.866025
vn 0 0.5 0.866025
vn 0 1 0
vn 0 0.5 -0.866025
vn 0 -0.5 -0.866025
vn 0 -1 0
vn 0 -0.5 0.866025
vn 1 0 0
vn 1 0 0
vn 1 0 0
vn 1 0 0
vn 1 0 0
vn 1 0 0
vn 1 0 0
vn -1 0 0
vn -1 0 0
vn -1 0 0
vn -1 0 0
vn -1 0 0
vn -1 0 0
vn -1 0 0
vt 0.0625 0.9375
vt 0.1875 0.9375
vt 0.3125 0.9375
vt 0.4375 0.9375
vt 0.5625 0.9375
vt 0.6875 0.9375
vt 0.8125 0.9375
f 2/2/2 14/2/14 13/2/13 1/2/1
f 3/2/3 15/2/15 14/2/14 2/2/2
f 4/2/4 16/2/16 15/2/15 3/2/3
f 5/2/5 17/2/17 16/2/16 4/2/4
f 6/2/6 18/2/18 17/2/17 5/2/5
f 7/2/7 19/2/19 18/2/18 6/2/6
f 8/2/8 20/2/20 19/2/19 7/2/7
f 9/2/9 21/2/21 20/2/20 8/2/8
f 10/2/10 22/2/22 21/2/21 9/2/9
f 11/2/11 23/2/23 22/2/22 10/2/10
f 12/2/12 24/2/24 23/2/23 11/2/11
f 1/2/1 13/2/13 24/2/24 12/2/12
f 25/2/25 27/2/27 26/2/26
f 25/2/25 28/2/28 27/2/27
f 25/2/25 29/2/29 28/2/28
f 25/2/25 30/2/30 29/2/29
f 25/2/25 31/2/31 30/2/30
f 25/2/25 32/2/32 31/2/31
f 25/2/25 33/2/33 32/2/32
f 25/2/25 34/2/34 33/2/33
f 25/2/25 35/2/35 34/2/34
f 25/2/25 36/2/36 35/2/35
f 25/2/25 37/2/37 36/2/36
f 25/2/25 26/2/26 37/2/37
f 38/2/38 39/2/39 40/2/40
f 38/2/38 40/2/40 41/2/41
f 38/2/38 41/2/41 42/2/42
f 38/2/38 42/2/42 43/2/43
f 38/2/38 43/2/43 44/2/44
f 38/2/38 44/2/44 45/2/45
f 38/2/38 45/2/45 46/2/46
f 38/2/38 46/2/46 47/2/47
f 38/2/38 47/2/47 48/2/48
f 38/2/38 48/2/48 49/2/49
f 38/2/38 49/2/49 50/2/50
f 38/2/38 50/2/50 39/2/39
f 51/2/51 52/2/52 53/2/53 54/2/54
f 55/2/55 56/2/56 57/2/57 58/2/58
f 59/2/59 60/2/60 61/2/61 62/2/62
f 63/2/63 64/2/64 65/2/65 66/2/66
f 67/2/67 68/2/68 69/2/69 70/2/70
f 71/2/71 72/2/72 73/2/73 74/2/74
f 75/2/75 76/2/76 77/2/77 78/2/78
f 79/2/79 80/2/80 81/2/81 82/2/82
f 83/2/83 84/2/84 85/2/85 86/2/86
f 87/2/87 88/2/88 89/2/89 90/2/90
f 91/2/91 92/2/92 93/2/93 94/2/94
f 95/2/95 96/2/96 97/2/97 98/2/98
f 100/6/100 106/6/106 105/6/105 99/6/99
f 101/6/101 107/6/107 106/6/106 100/6/100
f 102/6/102 108/6/108 107/6/107 101/6/101
f 103/6/103 109/6/109 108/6/108 102/6/102
f 104/6/104 110/6/110 109/6/109 103/6/103
f 99/6/99 105/6/105 110/6/110 104/6/104
f 111/6/111 113/6/113 112/6/112
f 111/6/111 114/6/114 113/6/113
f 111/6/111 115/6/115 114/6/114
f 111/6/111 116/6/116 115/6/115
f 111/6/111 117/6/117 116/6/116
f 111/6/111 112/6/112 117/6/117
f 118/6/118 119/6/119 120/6/120
f 118/6/118 120/6/120 121/6/121
f 118/6/118 121/6/121 122/6/122
f 118/6/118 122/6/122 123/6/123
f 118/6/118 123/6/123 124/6/124
f 118/6/118 124/6/124 119/6/119
f 126/6/126 132/6/132 131/6/131 125/6/125
f 127/6/127 133/6/133 132/6/132 126/6/126
f 128/6/128 134/6/134 133/6/133 127/6/127
f 129/6/129 135/6/135 134/6/134 128/6/128
f 130/6/130 136/6/136 135/6/135 129/6/129
f 125/6/125 131/6/131 136/6/136 130/6/130
f 137/6/137 139/6/139 138/6/138
f 137/6/137 140/6/140 139/6/139
f 137/6/137 141/6/141 140/6/140
f 137/6/137 142/6/142 141/6/141
f 137/6/137 143/6/143 142/6/142
f 137/6/137 138/6/138 143/6/143
f 144/6/144 145/6/145 146/6/146
f 144/6/144 146/6/146 147/6/147
f 144/6/144 147/6/147 148/6/148
f 144/6/144 148/6/148 149/6/149
f 144/6/144 149/6/149 150/6/150
f 144/6/144 150/6/150 145/6/145
