# AFL Power Cable V2 piece clamp_y_north, generated by tools/build-power-cable-v2.mjs
mtllib power_cable.mtl
o clamp_y_north
usemtl cable
v 0.627985 0.46875 0.534294
v 0.593692 0.46875 0.593692
v 0.534294 0.46875 0.627985
v 0.465706 0.46875 0.627985
v 0.406308 0.46875 0.593692
v 0.372015 0.46875 0.534294
v 0.372015 0.46875 0.465706
v 0.406308 0.46875 0.406308
v 0.465706 0.46875 0.372015
v 0.534294 0.46875 0.372015
v 0.593692 0.46875 0.406308
v 0.627985 0.46875 0.465706
v 0.627985 0.53125 0.534294
v 0.593692 0.53125 0.593692
v 0.534294 0.53125 0.627985
v 0.465706 0.53125 0.627985
v 0.406308 0.53125 0.593692
v 0.372015 0.53125 0.534294
v 0.372015 0.53125 0.465706
v 0.406308 0.53125 0.406308
v 0.465706 0.53125 0.372015
v 0.534294 0.53125 0.372015
v 0.593692 0.53125 0.406308
v 0.627985 0.53125 0.465706
v 0.5 0.46875 0.5
v 0.627985 0.46875 0.534294
v 0.593692 0.46875 0.593692
v 0.534294 0.46875 0.627985
v 0.465706 0.46875 0.627985
v 0.406308 0.46875 0.593692
v 0.372015 0.46875 0.534294
v 0.372015 0.46875 0.465706
v 0.406308 0.46875 0.406308
v 0.465706 0.46875 0.372015
v 0.534294 0.46875 0.372015
v 0.593692 0.46875 0.406308
v 0.627985 0.46875 0.465706
v 0.5 0.53125 0.5
v 0.627985 0.53125 0.534294
v 0.593692 0.53125 0.593692
v 0.534294 0.53125 0.627985
v 0.465706 0.53125 0.627985
v 0.406308 0.53125 0.593692
v 0.372015 0.53125 0.534294
v 0.372015 0.53125 0.465706
v 0.406308 0.53125 0.406308
v 0.465706 0.53125 0.372015
v 0.534294 0.53125 0.372015
v 0.593692 0.53125 0.406308
v 0.627985 0.53125 0.465706
v 0.471875 0.46875 0.025
v 0.471875 0.53125 0.025
v 0.528125 0.53125 0.025
v 0.528125 0.46875 0.025
v 0.471875 0.46875 0.375
v 0.528125 0.46875 0.375
v 0.528125 0.53125 0.375
v 0.471875 0.53125 0.375
v 0.471875 0.46875 0.025
v 0.528125 0.46875 0.025
v 0.528125 0.46875 0.375
v 0.471875 0.46875 0.375
v 0.471875 0.53125 0.025
v 0.471875 0.53125 0.375
v 0.528125 0.53125 0.375
v 0.528125 0.53125 0.025
v 0.471875 0.46875 0.025
v 0.471875 0.46875 0.375
v 0.471875 0.53125 0.375
v 0.471875 0.53125 0.025
v 0.528125 0.46875 0.025
v 0.528125 0.53125 0.025
v 0.528125 0.53125 0.375
v 0.528125 0.46875 0.375
v 0.4 0.4375 0
v 0.4 0.5625 0
v 0.6 0.5625 0
v 0.6 0.4375 0
v 0.4 0.4375 0.025
v 0.6 0.4375 0.025
v 0.6 0.5625 0.025
v 0.4 0.5625 0.025
v 0.4 0.4375 0
v 0.6 0.4375 0
v 0.6 0.4375 0.025
v 0.4 0.4375 0.025
v 0.4 0.5625 0
v 0.4 0.5625 0.025
v 0.6 0.5625 0.025
v 0.6 0.5625 0
v 0.4 0.4375 0
v 0.4 0.4375 0.025
v 0.4 0.5625 0.025
v 0.4 0.5625 0
v 0.6 0.4375 0
v 0.6 0.5625 0
v 0.6 0.5625 0.025
v 0.6 0.4375 0.025
v 0.454943 0.511875 0.03875
v 0.434375 0.52375 0.03875
v 0.413807 0.511875 0.03875
v 0.413807 0.488125 0.03875
v 0.434375 0.47625 0.03875
v 0.454943 0.488125 0.03875
v 0.454943 0.511875 0.025
v 0.434375 0.52375 0.025
v 0.413807 0.511875 0.025
v 0.413807 0.488125 0.025
v 0.434375 0.47625 0.025
v 0.454943 0.488125 0.025
v 0.434375 0.5 0.03875
v 0.454943 0.511875 0.03875
v 0.434375 0.52375 0.03875
v 0.413807 0.511875 0.03875
v 0.413807 0.488125 0.03875
v 0.434375 0.47625 0.03875
v 0.454943 0.488125 0.03875
v 0.434375 0.5 0.025
v 0.454943 0.511875 0.025
v 0.434375 0.52375 0.025
v 0.413807 0.511875 0.025
v 0.413807 0.488125 0.025
v 0.434375 0.47625 0.025
v 0.454943 0.488125 0.025
v 0.586193 0.511875 0.03875
v 0.565625 0.52375 0.03875
v 0.545057 0.511875 0.03875
v 0.545057 0.488125 0.03875
v 0.565625 0.47625 0.03875
v 0.586193 0.488125 0.03875
v 0.586193 0.511875 0.025
v 0.565625 0.52375 0.025
v 0.545057 0.511875 0.025
v 0.545057 0.488125 0.025
v 0.565625 0.47625 0.025
v 0.586193 0.488125 0.025
v 0.565625 0.5 0.03875
v 0.586193 0.511875 0.03875
v 0.565625 0.52375 0.03875
v 0.545057 0.511875 0.03875
v 0.545057 0.488125 0.03875
v 0.565625 0.47625 0.03875
v 0.586193 0.488125 0.03875
v 0.565625 0.5 0.025
v 0.586193 0.511875 0.025
v 0.565625 0.52375 0.025
v 0.545057 0.511875 0.025
v 0.545057 0.488125 0.025
v 0.565625 0.47625 0.025
v 0.586193 0.488125 0.025
vn 0.965926 0 0.258819
vn 0.707107 0 0.707107
vn 0.258819 0 0.965926
vn -0.258819 0 0.965926
vn -0.707107 0 0.707107
vn -0.965926 0 0.258819
vn -0.965926 0 -0.258819
vn -0.707107 0 -0.707107
vn -0.258819 0 -0.965926
vn 0.258819 0 -0.965926
vn 0.707107 0 -0.707107
vn 0.965926 0 -0.258819
vn 0.965926 0 0.258819
vn 0.707107 0 0.707107
vn 0.258819 0 0.965926
vn -0.258819 0 0.965926
vn -0.707107 0 0.707107
vn -0.965926 0 0.258819
vn -0.965926 0 -0.258819
vn -0.707107 0 -0.707107
vn -0.258819 0 -0.965926
vn 0.258819 0 -0.965926
vn 0.707107 0 -0.707107
vn 0.965926 0 -0.258819
vn 0 -1 0
vn 0 -1 0
vn 0 -1 0
vn 0 -1 0
vn 0 -1 0
vn 0 -1 0
vn 0 -1 0
vn 0 -1 0
vn 0 -1 0
vn 0 -1 0
vn 0 -1 0
vn 0 -1 0
vn 0 -1 0
vn 0 1 0
vn 0 1 0
vn 0 1 0
vn 0 1 0
vn 0 1 0
vn 0 1 0
vn 0 1 0
vn 0 1 0
vn 0 1 0
vn 0 1 0
vn 0 1 0
vn 0 1 0
vn 0 1 0
vn 0 0 -1
vn 0 0 -1
vn 0 0 -1
vn 0 0 -1
vn 0 0 1
vn 0 0 1
vn 0 0 1
vn 0 0 1
vn 0 -1 0
vn 0 -1 0
vn 0 -1 0
vn 0 -1 0
vn 0 1 0
vn 0 1 0
vn 0 1 0
vn 0 1 0
vn -1 0 0
vn -1 0 0
vn -1 0 0
vn -1 0 0
vn 1 0 0
vn 1 0 0
vn 1 0 0
vn 1 0 0
vn 0 0 -1
vn 0 0 -1
vn 0 0 -1
vn 0 0 -1
vn 0 0 1
vn 0 0 1
vn 0 0 1
vn 0 0 1
vn 0 -1 0
vn 0 -1 0
vn 0 -1 0
vn 0 -1 0
vn 0 1 0
vn 0 1 0
vn 0 1 0
vn 0 1 0
vn -1 0 0
vn -1 0 0
vn -1 0 0
vn -1 0 0
vn 1 0 0
vn 1 0 0
vn 1 0 0
vn 1 0 0
vn 0.866025 0.5 0
vn 0 1 0
vn -0.866025 0.5 0
vn -0.866025 -0.5 0
vn 0 -1 0
vn 0.866025 -0.5 0
vn 0.866025 0.5 0
vn 0 1 0
vn -0.866025 0.5 0
vn -0.866025 -0.5 0
vn 0 -1 0
vn 0.866025 -0.5 0
vn 0 0 1
vn 0 0 1
vn 0 0 1
vn 0 0 1
vn 0 0 1
vn 0 0 1
vn 0 0 1
vn 0 0 -1
vn 0 0 -1
vn 0 0 -1
vn 0 0 -1
vn 0 0 -1
vn 0 0 -1
vn 0 0 -1
vn 0.866025 0.5 0
vn 0 1 0
vn -0.866025 0.5 0
vn -0.866025 -0.5 0
vn 0 -1 0
vn 0.866025 -0.5 0
vn 0.866025 0.5 0
vn 0 1 0
vn -0.866025 0.5 0
vn -0.866025 -0.5 0
vn 0 -1 0
vn 0.866025 -0.5 0
vn 0 0 1
vn 0 0 1
vn 0 0 1
vn 0 0 1
vn 0 0 1
vn 0 0 1
vn 0 0 1
vn 0 0 -1
vn 0 0 -1
vn 0 0 -1
vn 0 0 -1
vn 0 0 -1
vn 0 0 -1
vn 0 0 -1
vt 0.03125 0.96875
vt 0.09375 0.96875
vt 0.09375 0.90625
vt 0.03125 0.90625
vt 0.15625 0.96875
vt 0.21875 0.96875
vt 0.21875 0.90625
vt 0.15625 0.90625
vt 0.28125 0.96875
vt 0.34375 0.96875
vt 0.34375 0.90625
vt 0.28125 0.90625
vt 0.40625 0.96875
vt 0.46875 0.96875
vt 0.46875 0.90625
vt 0.40625 0.90625
vt 0.53125 0.96875
vt 0.59375 0.96875
vt 0.59375 0.90625
vt 0.53125 0.90625
vt 0.65625 0.96875
vt 0.71875 0.96875
vt 0.71875 0.90625
vt 0.65625 0.90625
vt 0.78125 0.96875
vt 0.84375 0.96875
vt 0.84375 0.90625
vt 0.78125 0.90625
f 1/5/1 13/6/13 14/7/14 2/8/2
f 2/5/2 14/6/14 15/7/15 3/8/3
f 3/5/3 15/6/15 16/7/16 4/8/4
f 4/5/4 16/6/16 17/7/17 5/8/5
f 5/5/5 17/6/17 18/7/18 6/8/6
f 6/5/6 18/6/18 19/7/19 7/8/7
f 7/5/7 19/6/19 20/7/20 8/8/8
f 8/5/8 20/6/20 21/7/21 9/8/9
f 9/5/9 21/6/21 22/7/22 10/8/10
f 10/5/10 22/6/22 23/7/23 11/8/11
f 11/5/11 23/6/23 24/7/24 12/8/12
f 12/5/12 24/6/24 13/7/13 1/8/1
f 26/5/26 27/6/27 25/7/25
f 27/5/27 28/6/28 25/7/25
f 28/5/28 29/6/29 25/7/25
f 29/5/29 30/6/30 25/7/25
f 30/5/30 31/6/31 25/7/25
f 31/5/31 32/6/32 25/7/25
f 32/5/32 33/6/33 25/7/25
f 33/5/33 34/6/34 25/7/25
f 34/5/34 35/6/35 25/7/25
f 35/5/35 36/6/36 25/7/25
f 36/5/36 37/6/37 25/7/25
f 37/5/37 26/6/26 25/7/25
f 40/5/40 39/6/39 38/7/38
f 41/5/41 40/6/40 38/7/38
f 42/5/42 41/6/41 38/7/38
f 43/5/43 42/6/42 38/7/38
f 44/5/44 43/6/43 38/7/38
f 45/5/45 44/6/44 38/7/38
f 46/5/46 45/6/45 38/7/38
f 47/5/47 46/6/46 38/7/38
f 48/5/48 47/6/47 38/7/38
f 49/5/49 48/6/48 38/7/38
f 50/5/50 49/6/49 38/7/38
f 39/5/39 50/6/50 38/7/38
f 51/5/51 52/6/52 53/7/53 54/8/54
f 55/5/55 56/6/56 57/7/57 58/8/58
f 59/5/59 60/6/60 61/7/61 62/8/62
f 63/5/63 64/6/64 65/7/65 66/8/66
f 67/5/67 68/6/68 69/7/69 70/8/70
f 71/5/71 72/6/72 73/7/73 74/8/74
f 75/5/75 76/6/76 77/7/77 78/8/78
f 79/5/79 80/6/80 81/7/81 82/8/82
f 83/5/83 84/6/84 85/7/85 86/8/86
f 87/5/87 88/6/88 89/7/89 90/8/90
f 91/5/91 92/6/92 93/7/93 94/8/94
f 95/5/95 96/6/96 97/7/97 98/8/98
f 99/21/99 105/22/105 106/23/106 100/24/100
f 100/21/100 106/22/106 107/23/107 101/24/101
f 101/21/101 107/22/107 108/23/108 102/24/102
f 102/21/102 108/22/108 109/23/109 103/24/103
f 103/21/103 109/22/109 110/23/110 104/24/104
f 104/21/104 110/22/110 105/23/105 99/24/99
f 112/21/112 113/22/113 111/23/111
f 113/21/113 114/22/114 111/23/111
f 114/21/114 115/22/115 111/23/111
f 115/21/115 116/22/116 111/23/111
f 116/21/116 117/22/117 111/23/111
f 117/21/117 112/22/112 111/23/111
f 120/21/120 119/22/119 118/23/118
f 121/21/121 120/22/120 118/23/118
f 122/21/122 121/22/121 118/23/118
f 123/21/123 122/22/122 118/23/118
f 124/21/124 123/22/123 118/23/118
f 119/21/119 124/22/124 118/23/118
f 125/21/125 131/22/131 132/23/132 126/24/126
f 126/21/126 132/22/132 133/23/133 127/24/127
f 127/21/127 133/22/133 134/23/134 128/24/128
f 128/21/128 134/22/134 135/23/135 129/24/129
f 129/21/129 135/22/135 136/23/136 130/24/130
f 130/21/130 136/22/136 131/23/131 125/24/125
f 138/21/138 139/22/139 137/23/137
f 139/21/139 140/22/140 137/23/137
f 140/21/140 141/22/141 137/23/137
f 141/21/141 142/22/142 137/23/137
f 142/21/142 143/22/143 137/23/137
f 143/21/143 138/22/138 137/23/137
f 146/21/146 145/22/145 144/23/144
f 147/21/147 146/22/146 144/23/144
f 148/21/148 147/22/147 144/23/144
f 149/21/149 148/22/148 144/23/144
f 150/21/150 149/22/149 144/23/144
f 145/21/145 150/22/150 144/23/144
