# AFL Power Cable V2 piece end_plug_west, generated by tools/build-power-cable-v2.mjs
mtllib power_cable.mtl
o end_plug_west
usemtl cable
v 0.425 0.581674 0.549081
v 0.425 0.610425 0.52033
v 0.425 0.610425 0.47967
v 0.425 0.581674 0.450919
v 0.425 0.541013 0.450919
v 0.425 0.512262 0.47967
v 0.425 0.512262 0.52033
v 0.425 0.541013 0.549081
v 0.19375 0.581674 0.549081
v 0.19375 0.610425 0.52033
v 0.19375 0.610425 0.47967
v 0.19375 0.581674 0.450919
v 0.19375 0.541013 0.450919
v 0.19375 0.512262 0.47967
v 0.19375 0.512262 0.52033
v 0.19375 0.541013 0.549081
v 0.425 0.489658 0.495956
v 0.425 0.518409 0.467205
v 0.425 0.518409 0.426545
v 0.425 0.489658 0.397794
v 0.425 0.448998 0.397794
v 0.425 0.420247 0.426545
v 0.425 0.420247 0.467205
v 0.425 0.448998 0.495956
v 0.19375 0.489658 0.495956
v 0.19375 0.518409 0.467205
v 0.19375 0.518409 0.426545
v 0.19375 0.489658 0.397794
v 0.19375 0.448998 0.397794
v 0.19375 0.420247 0.426545
v 0.19375 0.420247 0.467205
v 0.19375 0.448998 0.495956
v 0.425 0.489658 0.602206
v 0.425 0.518409 0.573455
v 0.425 0.518409 0.532795
v 0.425 0.489658 0.504044
v 0.425 0.448998 0.504044
v 0.425 0.420247 0.532795
v 0.425 0.420247 0.573455
v 0.425 0.448998 0.602206
v 0.19375 0.489658 0.602206
v 0.19375 0.518409 0.573455
v 0.19375 0.518409 0.532795
v 0.19375 0.489658 0.504044
v 0.19375 0.448998 0.504044
v 0.19375 0.420247 0.532795
v 0.19375 0.420247 0.573455
v 0.19375 0.448998 0.602206
v 0.2125 0.534779 0.629796
v 0.2125 0.595017 0.595017
v 0.2125 0.629796 0.534779
v 0.2125 0.629796 0.465221
v 0.2125 0.595017 0.404983
v 0.2125 0.534779 0.370204
v 0.2125 0.465221 0.370204
v 0.2125 0.404983 0.404983
v 0.2125 0.370204 0.465221
v 0.2125 0.370204 0.534779
v 0.2125 0.404983 0.595017
v 0.2125 0.465221 0.629796
v 0.0875 0.534779 0.629796
v 0.0875 0.595017 0.595017
v 0.0875 0.629796 0.534779
v 0.0875 0.629796 0.465221
v 0.0875 0.595017 0.404983
v 0.0875 0.534779 0.370204
v 0.0875 0.465221 0.370204
v 0.0875 0.404983 0.404983
v 0.0875 0.370204 0.465221
v 0.0875 0.370204 0.534779
v 0.0875 0.404983 0.595017
v 0.0875 0.465221 0.629796
v 0.2125 0.5 0.5
v 0.2125 0.534779 0.629796
v 0.2125 0.595017 0.595017
v 0.2125 0.629796 0.534779
v 0.2125 0.629796 0.465221
v 0.2125 0.595017 0.404983
v 0.2125 0.534779 0.370204
v 0.2125 0.465221 0.370204
v 0.2125 0.404983 0.404983
v 0.2125 0.370204 0.465221
v 0.2125 0.370204 0.534779
v 0.2125 0.404983 0.595017
v 0.2125 0.465221 0.629796
v 0.0875 0.5 0.5
v 0.0875 0.534779 0.629796
v 0.0875 0.595017 0.595017
v 0.0875 0.629796 0.534779
v 0.0875 0.629796 0.465221
v 0.0875 0.595017 0.404983
v 0.0875 0.534779 0.370204
v 0.0875 0.465221 0.370204
v 0.0875 0.404983 0.404983
v 0.0875 0.370204 0.465221
v 0.0875 0.370204 0.534779
v 0.0875 0.404983 0.595017
v 0.0875 0.465221 0.629796
v 0.153125 0.578125 0.635316
v 0.153125 0.65625 0.5
v 0.153125 0.578125 0.364684
v 0.153125 0.421875 0.364684
v 0.153125 0.34375 0.5
v 0.153125 0.421875 0.635316
v 0.096875 0.578125 0.635316
v 0.096875 0.65625 0.5
v 0.096875 0.578125 0.364684
v 0.096875 0.421875 0.364684
v 0.096875 0.34375 0.5
v 0.096875 0.421875 0.635316
v 0.153125 0.5 0.5
v 0.153125 0.578125 0.635316
v 0.153125 0.65625 0.5
v 0.153125 0.578125 0.364684
v 0.153125 0.421875 0.364684
v 0.153125 0.34375 0.5
v 0.153125 0.421875 0.635316
v 0.096875 0.5 0.5
v 0.096875 0.578125 0.635316
v 0.096875 0.65625 0.5
v 0.096875 0.578125 0.364684
v 0.096875 0.421875 0.364684
v 0.096875 0.34375 0.5
v 0.096875 0.421875 0.635316
v 0.09375 0.530735 0.614704
v 0.09375 0.583969 0.583969
v 0.09375 0.614704 0.530735
v 0.09375 0.614704 0.469265
v 0.09375 0.583969 0.416031
v 0.09375 0.530735 0.385296
v 0.09375 0.469265 0.385296
v 0.09375 0.416031 0.416031
v 0.09375 0.385296 0.469265
v 0.09375 0.385296 0.530735
v 0.09375 0.416031 0.583969
v 0.09375 0.469265 0.614704
v 0 0.530735 0.614704
v 0 0.583969 0.583969
v 0 0.614704 0.530735
v 0 0.614704 0.469265
v 0 0.583969 0.416031
v 0 0.530735 0.385296
v 0 0.469265 0.385296
v 0 0.416031 0.416031
v 0 0.385296 0.469265
v 0 0.385296 0.530735
v 0 0.416031 0.583969
v 0 0.469265 0.614704
v 0.09375 0.5 0.5
v 0.09375 0.530735 0.614704
v 0.09375 0.583969 0.583969
v 0.09375 0.614704 0.530735
v 0.09375 0.614704 0.469265
v 0.09375 0.583969 0.416031
v 0.09375 0.530735 0.385296
v 0.09375 0.469265 0.385296
v 0.09375 0.416031 0.416031
v 0.09375 0.385296 0.469265
v 0.09375 0.385296 0.530735
v 0.09375 0.416031 0.583969
v 0.09375 0.469265 0.614704
v 0 0.5 0.5
v 0 0.530735 0.614704
v 0 0.583969 0.583969
v 0 0.614704 0.530735
v 0 0.614704 0.469265
v 0 0.583969 0.416031
v 0 0.530735 0.385296
v 0 0.469265 0.385296
v 0 0.416031 0.416031
v 0 0.385296 0.469265
v 0 0.385296 0.530735
v 0 0.416031 0.583969
v 0 0.469265 0.614704
v 0.5375 0.53397 0.626778
v 0.5375 0.592808 0.592808
v 0.5375 0.626778 0.53397
v 0.5375 0.626778 0.46603
v 0.5375 0.592808 0.407192
v 0.5375 0.53397 0.373222
v 0.5375 0.46603 0.373222
v 0.5375 0.407192 0.407192
v 0.5375 0.373222 0.46603
v 0.5375 0.373222 0.53397
v 0.5375 0.407192 0.592808
v 0.5375 0.46603 0.626778
v 0.4 0.53397 0.626778
v 0.4 0.592808 0.592808
v 0.4 0.626778 0.53397
v 0.4 0.626778 0.46603
v 0.4 0.592808 0.407192
v 0.4 0.53397 0.373222
v 0.4 0.46603 0.373222
v 0.4 0.407192 0.407192
v 0.4 0.373222 0.46603
v 0.4 0.373222 0.53397
v 0.4 0.407192 0.592808
v 0.4 0.46603 0.626778
v 0.5375 0.5 0.5
v 0.5375 0.53397 0.626778
v 0.5375 0.592808 0.592808
v 0.5375 0.626778 0.53397
v 0.5375 0.626778 0.46603
v 0.5375 0.592808 0.407192
v 0.5375 0.53397 0.373222
v 0.5375 0.46603 0.373222
v 0.5375 0.407192 0.407192
v 0.5375 0.373222 0.46603
v 0.5375 0.373222 0.53397
v 0.5375 0.407192 0.592808
v 0.5375 0.46603 0.626778
v 0.4 0.5 0.5
v 0.4 0.53397 0.626778
v 0.4 0.592808 0.592808
v 0.4 0.626778 0.53397
v 0.4 0.626778 0.46603
v 0.4 0.592808 0.407192
v 0.4 0.53397 0.373222
v 0.4 0.46603 0.373222
v 0.4 0.407192 0.407192
v 0.4 0.373222 0.46603
v 0.4 0.373222 0.53397
v 0.4 0.407192 0.592808
v 0.4 0.46603 0.626778
vn 0 0.382683 0.92388
vn 0 0.92388 0.382683
vn 0 0.92388 -0.382683
vn 0 0.382683 -0.92388
vn 0 -0.382683 -0.92388
vn 0 -0.92388 -0.382683
vn 0 -0.92388 0.382683
vn 0 -0.382683 0.92388
vn 0 0.382683 0.92388
vn 0 0.92388 0.382683
vn 0 0.92388 -0.382683
vn 0 0.382683 -0.92388
vn 0 -0.382683 -0.92388
vn 0 -0.92388 -0.382683
vn 0 -0.92388 0.382683
vn 0 -0.382683 0.92388
vn 0 0.382683 0.92388
vn 0 0.92388 0.382683
vn 0 0.92388 -0.382683
vn 0 0.382683 -0.92388
vn 0 -0.382683 -0.92388
vn 0 -0.92388 -0.382683
vn 0 -0.92388 0.382683
vn 0 -0.382683 0.92388
vn 0 0.382683 0.92388
vn 0 0.92388 0.382683
vn 0 0.92388 -0.382683
vn 0 0.382683 -0.92388
vn 0 -0.382683 -0.92388
vn 0 -0.92388 -0.382683
vn 0 -0.92388 0.382683
vn 0 -0.382683 0.92388
vn 0 0.382683 0.92388
vn 0 0.92388 0.382683
vn 0 0.92388 -0.382683
vn 0 0.382683 -0.92388
vn 0 -0.382683 -0.92388
vn 0 -0.92388 -0.382683
vn 0 -0.92388 0.382683
vn 0 -0.382683 0.92388
vn 0 0.382683 0.92388
vn 0 0.92388 0.382683
vn 0 0.92388 -0.382683
vn 0 0.382683 -0.92388
vn 0 -0.382683 -0.92388
vn 0 -0.92388 -0.382683
vn 0 -0.92388 0.382683
vn 0 -0.382683 0.92388
vn 0 0.258819 0.965926
vn 0 0.707107 0.707107
vn 0 0.965926 0.258819
vn 0 0.965926 -0.258819
vn 0 0.707107 -0.707107
vn 0 0.258819 -0.965926
vn 0 -0.258819 -0.965926
vn 0 -0.707107 -0.707107
vn 0 -0.965926 -0.258819
vn 0 -0.965926 0.258819
vn 0 -0.707107 0.707107
vn 0 -0.258819 0.965926
vn 0 0.258819 0.965926
vn 0 0.707107 0.707107
vn 0 0.965926 0.258819
vn 0 0.965926 -0.258819
vn 0 0.707107 -0.707107
vn 0 0.258819 -0.965926
vn 0 -0.258819 -0.965926
vn 0 -0.707107 -0.707107
vn 0 -0.965926 -0.258819
vn 0 -0.965926 0.258819
vn 0 -0.707107 0.707107
vn 0 -0.258819 0.965926
vn 1 0 0
vn 1 0 0
vn 1 0 0
vn 1 0 0
vn 1 0 0
vn 1 0 0
vn 1 0 0
vn 1 0 0
vn 1 0 0
vn 1 0 0
vn 1 0 0
vn 1 0 0
vn 1 0 0
vn -1 0 0
vn -1 0 0
vn -1 0 0
vn -1 0 0
vn -1 0 0
vn -1 0 0
vn -1 0 0
vn -1 0 0
vn -1 0 0
vn -1 0 0
vn -1 0 0
vn -1 0 0
vn -1 0 0
vn 0 0.5 0.866025
vn 0 1 0
vn 0 0.5 -0.866025
vn 0 -0.5 -0.866025
vn 0 -1 0
vn 0 -0.5 0.866025
vn 0 0.5 0.866025
vn 0 1 0
vn 0 0.5 -0.866025
vn 0 -0.5 -0.866025
vn 0 -1 0
vn 0 -0.5 0.866025
vn 1 0 0
vn 1 0 0
vn 1 0 0
vn 1 0 0
vn 1 0 0
vn 1 0 0
vn 1 0 0
vn -1 0 0
vn -1 0 0
vn -1 0 0
vn -1 0 0
vn -1 0 0
vn -1 0 0
vn -1 0 0
vn 0 0.258819 0.965926
vn 0 0.707107 0.707107
vn 0 0.965926 0.258819
vn 0 0.965926 -0.258819
vn 0 0.707107 -0.707107
vn 0 0.258819 -0.965926
vn 0 -0.258819 -0.965926
vn 0 -0.707107 -0.707107
vn 0 -0.965926 -0.258819
vn 0 -0.965926 0.258819
vn 0 -0.707107 0.707107
vn 0 -0.258819 0.965926
vn 0 0.258819 0.965926
vn 0 0.707107 0.707107
vn 0 0.965926 0.258819
vn 0 0.965926 -0.258819
vn 0 0.707107 -0.707107
vn 0 0.258819 -0.965926
vn 0 -0.258819 -0.965926
vn 0 -0.707107 -0.707107
vn 0 -0.965926 -0.258819
vn 0 -0.965926 0.258819
vn 0 -0.707107 0.707107
vn 0 -0.258819 0.965926
vn 1 0 0
vn 1 0 0
vn 1 0 0
vn 1 0 0
vn 1 0 0
vn 1 0 0
vn 1 0 0
vn 1 0 0
vn 1 0 0
vn 1 0 0
vn 1 0 0
vn 1 0 0
vn 1 0 0
vn -1 0 0
vn -1 0 0
vn -1 0 0
vn -1 0 0
vn -1 0 0
vn -1 0 0
vn -1 0 0
vn -1 0 0
vn -1 0 0
vn -1 0 0
vn -1 0 0
vn -1 0 0
vn -1 0 0
vn 0 0.258819 0.965926
vn 0 0.707107 0.707107
vn 0 0.965926 0.258819
vn 0 0.965926 -0.258819
vn 0 0.707107 -0.707107
vn 0 0.258819 -0.965926
vn 0 -0.258819 -0.965926
vn 0 -0.707107 -0.707107
vn 0 -0.965926 -0.258819
vn 0 -0.965926 0.258819
vn 0 -0.707107 0.707107
vn 0 -0.258819 0.965926
vn 0 0.258819 0.965926
vn 0 0.707107 0.707107
vn 0 0.965926 0.258819
vn 0 0.965926 -0.258819
vn 0 0.707107 -0.707107
vn 0 0.258819 -0.965926
vn 0 -0.258819 -0.965926
vn 0 -0.707107 -0.707107
vn 0 -0.965926 -0.258819
vn 0 -0.965926 0.258819
vn 0 -0.707107 0.707107
vn 0 -0.258819 0.965926
vn 1 0 0
vn 1 0 0
vn 1 0 0
vn 1 0 0
vn 1 0 0
vn 1 0 0
vn 1 0 0
vn 1 0 0
vn 1 0 0
vn 1 0 0
vn 1 0 0
vn 1 0 0
vn 1 0 0
vn -1 0 0
vn -1 0 0
vn -1 0 0
vn -1 0 0
vn -1 0 0
vn -1 0 0
vn -1 0 0
vn -1 0 0
vn -1 0 0
vn -1 0 0
vn -1 0 0
vn -1 0 0
vn -1 0 0
vt 0.03125 0.96875
vt 0.09375 0.96875
vt 0.09375 0.90625
vt 0.03125 0.90625
vt 0.15625 0.96875
vt 0.21875 0.96875
vt 0.21875 0.90625
vt 0.15625 0.90625
vt 0.28125 0.96875
vt 0.34375 0.96875
vt 0.34375 0.90625
vt 0.28125 0.90625
vt 0.40625 0.96875
vt 0.46875 0.96875
vt 0.46875 0.90625
vt 0.40625 0.90625
vt 0.53125 0.96875
vt 0.59375 0.96875
vt 0.59375 0.90625
vt 0.53125 0.90625
vt 0.65625 0.96875
vt 0.71875 0.96875
vt 0.71875 0.90625
vt 0.65625 0.90625
vt 0.78125 0.96875
vt 0.84375 0.96875
vt 0.84375 0.90625
vt 0.78125 0.90625
f 2/1/2 10/2/10 9/3/9 1/4/1
f 3/1/3 11/2/11 10/3/10 2/4/2
f 4/1/4 12/2/12 11/3/11 3/4/3
f 5/1/5 13/2/13 12/3/12 4/4/4
f 6/1/6 14/2/14 13/3/13 5/4/5
f 7/1/7 15/2/15 14/3/14 6/4/6
f 8/1/8 16/2/16 15/3/15 7/4/7
f 1/1/1 9/2/9 16/3/16 8/4/8
f 18/1/18 26/2/26 25/3/25 17/4/17
f 19/1/19 27/2/27 26/3/26 18/4/18
f 20/1/20 28/2/28 27/3/27 19/4/19
f 21/1/21 29/2/29 28/3/28 20/4/20
f 22/1/22 30/2/30 29/3/29 21/4/21
f 23/1/23 31/2/31 30/3/30 22/4/22
f 24/1/24 32/2/32 31/3/31 23/4/23
f 17/1/17 25/2/25 32/3/32 24/4/24
f 34/1/34 42/2/42 41/3/41 33/4/33
f 35/1/35 43/2/43 42/3/42 34/4/34
f 36/1/36 44/2/44 43/3/43 35/4/35
f 37/1/37 45/2/45 44/3/44 36/4/36
f 38/1/38 46/2/46 45/3/45 37/4/37
f 39/1/39 47/2/47 46/3/46 38/4/38
f 40/1/40 48/2/48 47/3/47 39/4/39
f 33/1/33 41/2/41 48/3/48 40/4/40
f 50/17/50 62/18/62 61/19/61 49/20/49
f 51/17/51 63/18/63 62/19/62 50/20/50
f 52/17/52 64/18/64 63/19/63 51/20/51
f 53/17/53 65/18/65 64/19/64 52/20/52
f 54/17/54 66/18/66 65/19/65 53/20/53
f 55/17/55 67/18/67 66/19/66 54/20/54
f 56/17/56 68/18/68 67/19/67 55/20/55
f 57/17/57 69/18/69 68/19/68 56/20/56
f 58/17/58 70/18/70 69/19/69 57/20/57
f 59/17/59 71/18/71 70/19/70 58/20/58
f 60/17/60 72/18/72 71/19/71 59/20/59
f 49/17/49 61/18/61 72/19/72 60/20/60
f 73/17/73 75/18/75 74/19/74
f 73/17/73 76/18/76 75/19/75
f 73/17/73 77/18/77 76/19/76
f 73/17/73 78/18/78 77/19/77
f 73/17/73 79/18/79 78/19/78
f 73/17/73 80/18/80 79/19/79
f 73/17/73 81/18/81 80/19/80
f 73/17/73 82/18/82 81/19/81
f 73/17/73 83/18/83 82/19/82
f 73/17/73 84/18/84 83/19/83
f 73/17/73 85/18/85 84/19/84
f 73/17/73 74/18/74 85/19/85
f 86/17/86 87/18/87 88/19/88
f 86/17/86 88/18/88 89/19/89
f 86/17/86 89/18/89 90/19/90
f 86/17/86 90/18/90 91/19/91
f 86/17/86 91/18/91 92/19/92
f 86/17/86 92/18/92 93/19/93
f 86/17/86 93/18/93 94/19/94
f 86/17/86 94/18/94 95/19/95
f 86/17/86 95/18/95 96/19/96
f 86/17/86 96/18/96 97/19/97
f 86/17/86 97/18/97 98/19/98
f 86/17/86 98/18/98 87/19/87
f 100/21/100 106/22/106 105/23/105 99/24/99
f 101/21/101 107/22/107 106/23/106 100/24/100
f 102/21/102 108/22/108 107/23/107 101/24/101
f 103/21/103 109/22/109 108/23/108 102/24/102
f 104/21/104 110/22/110 109/23/109 103/24/103
f 99/21/99 105/22/105 110/23/110 104/24/104
f 111/21/111 113/22/113 112/23/112
f 111/21/111 114/22/114 113/23/113
f 111/21/111 115/22/115 114/23/114
f 111/21/111 116/22/116 115/23/115
f 111/21/111 117/22/117 116/23/116
f 111/21/111 112/22/112 117/23/117
f 118/21/118 119/22/119 120/23/120
f 118/21/118 120/22/120 121/23/121
f 118/21/118 121/22/121 122/23/122
f 118/21/118 122/22/122 123/23/123
f 118/21/118 123/22/123 124/23/124
f 118/21/118 124/22/124 119/23/119
f 126/17/126 138/18/138 137/19/137 125/20/125
f 127/17/127 139/18/139 138/19/138 126/20/126
f 128/17/128 140/18/140 139/19/139 127/20/127
f 129/17/129 141/18/141 140/19/140 128/20/128
f 130/17/130 142/18/142 141/19/141 129/20/129
f 131/17/131 143/18/143 142/19/142 130/20/130
f 132/17/132 144/18/144 143/19/143 131/20/131
f 133/17/133 145/18/145 144/19/144 132/20/132
f 134/17/134 146/18/146 145/19/145 133/20/133
f 135/17/135 147/18/147 146/19/146 134/20/134
f 136/17/136 148/18/148 147/19/147 135/20/135
f 125/17/125 137/18/137 148/19/148 136/20/136
f 149/17/149 151/18/151 150/19/150
f 149/17/149 152/18/152 151/19/151
f 149/17/149 153/18/153 152/19/152
f 149/17/149 154/18/154 153/19/153
f 149/17/149 155/18/155 154/19/154
f 149/17/149 156/18/156 155/19/155
f 149/17/149 157/18/157 156/19/156
f 149/17/149 158/18/158 157/19/157
f 149/17/149 159/18/159 158/19/158
f 149/17/149 160/18/160 159/19/159
f 149/17/149 161/18/161 160/19/160
f 149/17/149 150/18/150 161/19/161
f 162/17/162 163/18/163 164/19/164
f 162/17/162 164/18/164 165/19/165
f 162/17/162 165/18/165 166/19/166
f 162/17/162 166/18/166 167/19/167
f 162/17/162 167/18/167 168/19/168
f 162/17/162 168/18/168 169/19/169
f 162/17/162 169/18/169 170/19/170
f 162/17/162 170/18/170 171/19/171
f 162/17/162 171/18/171 172/19/172
f 162/17/162 172/18/172 173/19/173
f 162/17/162 173/18/173 174/19/174
f 162/17/162 174/18/174 163/19/163
f 176/25/176 188/26/188 187/27/187 175/28/175
f 177/25/177 189/26/189 188/27/188 176/28/176
f 178/25/178 190/26/190 189/27/189 177/28/177
f 179/25/179 191/26/191 190/27/190 178/28/178
f 180/25/180 192/26/192 191/27/191 179/28/179
f 181/25/181 193/26/193 192/27/192 180/28/180
f 182/25/182 194/26/194 193/27/193 181/28/181
f 183/25/183 195/26/195 194/27/194 182/28/182
f 184/25/184 196/26/196 195/27/195 183/28/183
f 185/25/185 197/26/197 196/27/196 184/28/184
f 186/25/186 198/26/198 197/27/197 185/28/185
f 175/25/175 187/26/187 198/27/198 186/28/186
f 199/25/199 201/26/201 200/27/200
f 199/25/199 202/26/202 201/27/201
f 199/25/199 203/26/203 202/27/202
f 199/25/199 204/26/204 203/27/203
f 199/25/199 205/26/205 204/27/204
f 199/25/199 206/26/206 205/27/205
f 199/25/199 207/26/207 206/27/206
f 199/25/199 208/26/208 207/27/207
f 199/25/199 209/26/209 208/27/208
f 199/25/199 210/26/210 209/27/209
f 199/25/199 211/26/211 210/27/210
f 199/25/199 200/26/200 211/27/211
f 212/25/212 213/26/213 214/27/214
f 212/25/212 214/26/214 215/27/215
f 212/25/212 215/26/215 216/27/216
f 212/25/212 216/26/216 217/27/217
f 212/25/212 217/26/217 218/27/218
f 212/25/212 218/26/218 219/27/219
f 212/25/212 219/26/219 220/27/220
f 212/25/212 220/26/220 221/27/221
f 212/25/212 221/26/221 222/27/222
f 212/25/212 222/26/222 223/27/223
f 212/25/212 223/26/223 224/27/224
f 212/25/212 224/26/224 213/27/213
