# AFL Power Cable V2 piece end_plug_east, generated by tools/build-power-cable-v2.mjs
mtllib power_cable.mtl
o end_plug_east
usemtl cable
v 0.575 0.581674 0.549081
v 0.575 0.610425 0.52033
v 0.575 0.610425 0.47967
v 0.575 0.581674 0.450919
v 0.575 0.541013 0.450919
v 0.575 0.512262 0.47967
v 0.575 0.512262 0.52033
v 0.575 0.541013 0.549081
v 0.80625 0.581674 0.549081
v 0.80625 0.610425 0.52033
v 0.80625 0.610425 0.47967
v 0.80625 0.581674 0.450919
v 0.80625 0.541013 0.450919
v 0.80625 0.512262 0.47967
v 0.80625 0.512262 0.52033
v 0.80625 0.541013 0.549081
v 0.575 0.489658 0.495956
v 0.575 0.518409 0.467205
v 0.575 0.518409 0.426545
v 0.575 0.489658 0.397794
v 0.575 0.448998 0.397794
v 0.575 0.420247 0.426545
v 0.575 0.420247 0.467205
v 0.575 0.448998 0.495956
v 0.80625 0.489658 0.495956
v 0.80625 0.518409 0.467205
v 0.80625 0.518409 0.426545
v 0.80625 0.489658 0.397794
v 0.80625 0.448998 0.397794
v 0.80625 0.420247 0.426545
v 0.80625 0.420247 0.467205
v 0.80625 0.448998 0.495956
v 0.575 0.489658 0.602206
v 0.575 0.518409 0.573455
v 0.575 0.518409 0.532795
v 0.575 0.489658 0.504044
v 0.575 0.448998 0.504044
v 0.575 0.420247 0.532795
v 0.575 0.420247 0.573455
v 0.575 0.448998 0.602206
v 0.80625 0.489658 0.602206
v 0.80625 0.518409 0.573455
v 0.80625 0.518409 0.532795
v 0.80625 0.489658 0.504044
v 0.80625 0.448998 0.504044
v 0.80625 0.420247 0.532795
v 0.80625 0.420247 0.573455
v 0.80625 0.448998 0.602206
v 0.7875 0.534779 0.629796
v 0.7875 0.595017 0.595017
v 0.7875 0.629796 0.534779
v 0.7875 0.629796 0.465221
v 0.7875 0.595017 0.404983
v 0.7875 0.534779 0.370204
v 0.7875 0.465221 0.370204
v 0.7875 0.404983 0.404983
v 0.7875 0.370204 0.465221
v 0.7875 0.370204 0.534779
v 0.7875 0.404983 0.595017
v 0.7875 0.465221 0.629796
v 0.9125 0.534779 0.629796
v 0.9125 0.595017 0.595017
v 0.9125 0.629796 0.534779
v 0.9125 0.629796 0.465221
v 0.9125 0.595017 0.404983
v 0.9125 0.534779 0.370204
v 0.9125 0.465221 0.370204
v 0.9125 0.404983 0.404983
v 0.9125 0.370204 0.465221
v 0.9125 0.370204 0.534779
v 0.9125 0.404983 0.595017
v 0.9125 0.465221 0.629796
v 0.7875 0.5 0.5
v 0.7875 0.534779 0.629796
v 0.7875 0.595017 0.595017
v 0.7875 0.629796 0.534779
v 0.7875 0.629796 0.465221
v 0.7875 0.595017 0.404983
v 0.7875 0.534779 0.370204
v 0.7875 0.465221 0.370204
v 0.7875 0.404983 0.404983
v 0.7875 0.370204 0.465221
v 0.7875 0.370204 0.534779
v 0.7875 0.404983 0.595017
v 0.7875 0.465221 0.629796
v 0.9125 0.5 0.5
v 0.9125 0.534779 0.629796
v 0.9125 0.595017 0.595017
v 0.9125 0.629796 0.534779
v 0.9125 0.629796 0.465221
v 0.9125 0.595017 0.404983
v 0.9125 0.534779 0.370204
v 0.9125 0.465221 0.370204
v 0.9125 0.404983 0.404983
v 0.9125 0.370204 0.465221
v 0.9125 0.370204 0.534779
v 0.9125 0.404983 0.595017
v 0.9125 0.465221 0.629796
v 0.846875 0.578125 0.635316
v 0.846875 0.65625 0.5
v 0.846875 0.578125 0.364684
v 0.846875 0.421875 0.364684
v 0.846875 0.34375 0.5
v 0.846875 0.421875 0.635316
v 0.903125 0.578125 0.635316
v 0.903125 0.65625 0.5
v 0.903125 0.578125 0.364684
v 0.903125 0.421875 0.364684
v 0.903125 0.34375 0.5
v 0.903125 0.421875 0.635316
v 0.846875 0.5 0.5
v 0.846875 0.578125 0.635316
v 0.846875 0.65625 0.5
v 0.846875 0.578125 0.364684
v 0.846875 0.421875 0.364684
v 0.846875 0.34375 0.5
v 0.846875 0.421875 0.635316
v 0.903125 0.5 0.5
v 0.903125 0.578125 0.635316
v 0.903125 0.65625 0.5
v 0.903125 0.578125 0.364684
v 0.903125 0.421875 0.364684
v 0.903125 0.34375 0.5
v 0.903125 0.421875 0.635316
v 0.90625 0.530735 0.614704
v 0.90625 0.583969 0.583969
v 0.90625 0.614704 0.530735
v 0.90625 0.614704 0.469265
v 0.90625 0.583969 0.416031
v 0.90625 0.530735 0.385296
v 0.90625 0.469265 0.385296
v 0.90625 0.416031 0.416031
v 0.90625 0.385296 0.469265
v 0.90625 0.385296 0.530735
v 0.90625 0.416031 0.583969
v 0.90625 0.469265 0.614704
v 1 0.530735 0.614704
v 1 0.583969 0.583969
v 1 0.614704 0.530735
v 1 0.614704 0.469265
v 1 0.583969 0.416031
v 1 0.530735 0.385296
v 1 0.469265 0.385296
v 1 0.416031 0.416031
v 1 0.385296 0.469265
v 1 0.385296 0.530735
v 1 0.416031 0.583969
v 1 0.469265 0.614704
v 0.90625 0.5 0.5
v 0.90625 0.530735 0.614704
v 0.90625 0.583969 0.583969
v 0.90625 0.614704 0.530735
v 0.90625 0.614704 0.469265
v 0.90625 0.583969 0.416031
v 0.90625 0.530735 0.385296
v 0.90625 0.469265 0.385296
v 0.90625 0.416031 0.416031
v 0.90625 0.385296 0.469265
v 0.90625 0.385296 0.530735
v 0.90625 0.416031 0.583969
v 0.90625 0.469265 0.614704
v 1 0.5 0.5
v 1 0.530735 0.614704
v 1 0.583969 0.583969
v 1 0.614704 0.530735
v 1 0.614704 0.469265
v 1 0.583969 0.416031
v 1 0.530735 0.385296
v 1 0.469265 0.385296
v 1 0.416031 0.416031
v 1 0.385296 0.469265
v 1 0.385296 0.530735
v 1 0.416031 0.583969
v 1 0.469265 0.614704
v 0.4625 0.53397 0.626778
v 0.4625 0.592808 0.592808
v 0.4625 0.626778 0.53397
v 0.4625 0.626778 0.46603
v 0.4625 0.592808 0.407192
v 0.4625 0.53397 0.373222
v 0.4625 0.46603 0.373222
v 0.4625 0.407192 0.407192
v 0.4625 0.373222 0.46603
v 0.4625 0.373222 0.53397
v 0.4625 0.407192 0.592808
v 0.4625 0.46603 0.626778
v 0.6 0.53397 0.626778
v 0.6 0.592808 0.592808
v 0.6 0.626778 0.53397
v 0.6 0.626778 0.46603
v 0.6 0.592808 0.407192
v 0.6 0.53397 0.373222
v 0.6 0.46603 0.373222
v 0.6 0.407192 0.407192
v 0.6 0.373222 0.46603
v 0.6 0.373222 0.53397
v 0.6 0.407192 0.592808
v 0.6 0.46603 0.626778
v 0.4625 0.5 0.5
v 0.4625 0.53397 0.626778
v 0.4625 0.592808 0.592808
v 0.4625 0.626778 0.53397
v 0.4625 0.626778 0.46603
v 0.4625 0.592808 0.407192
v 0.4625 0.53397 0.373222
v 0.4625 0.46603 0.373222
v 0.4625 0.407192 0.407192
v 0.4625 0.373222 0.46603
v 0.4625 0.373222 0.53397
v 0.4625 0.407192 0.592808
v 0.4625 0.46603 0.626778
v 0.6 0.5 0.5
v 0.6 0.53397 0.626778
v 0.6 0.592808 0.592808
v 0.6 0.626778 0.53397
v 0.6 0.626778 0.46603
v 0.6 0.592808 0.407192
v 0.6 0.53397 0.373222
v 0.6 0.46603 0.373222
v 0.6 0.407192 0.407192
v 0.6 0.373222 0.46603
v 0.6 0.373222 0.53397
v 0.6 0.407192 0.592808
v 0.6 0.46603 0.626778
vn 0 0.382683 0.92388
vn 0 0.92388 0.382683
vn 0 0.92388 -0.382683
vn 0 0.382683 -0.92388
vn 0 -0.382683 -0.92388
vn 0 -0.92388 -0.382683
vn 0 -0.92388 0.382683
vn 0 -0.382683 0.92388
vn 0 0.382683 0.92388
vn 0 0.92388 0.382683
vn 0 0.92388 -0.382683
vn 0 0.382683 -0.92388
vn 0 -0.382683 -0.92388
vn 0 -0.92388 -0.382683
vn 0 -0.92388 0.382683
vn 0 -0.382683 0.92388
vn 0 0.382683 0.92388
vn 0 0.92388 0.382683
vn 0 0.92388 -0.382683
vn 0 0.382683 -0.92388
vn 0 -0.382683 -0.92388
vn 0 -0.92388 -0.382683
vn 0 -0.92388 0.382683
vn 0 -0.382683 0.92388
vn 0 0.382683 0.92388
vn 0 0.92388 0.382683
vn 0 0.92388 -0.382683
vn 0 0.382683 -0.92388
vn 0 -0.382683 -0.92388
vn 0 -0.92388 -0.382683
vn 0 -0.92388 0.382683
vn 0 -0.382683 0.92388
vn 0 0.382683 0.92388
vn 0 0.92388 0.382683
vn 0 0.92388 -0.382683
vn 0 0.382683 -0.92388
vn 0 -0.382683 -0.92388
vn 0 -0.92388 -0.382683
vn 0 -0.92388 0.382683
vn 0 -0.382683 0.92388
vn 0 0.382683 0.92388
vn 0 0.92388 0.382683
vn 0 0.92388 -0.382683
vn 0 0.382683 -0.92388
vn 0 -0.382683 -0.92388
vn 0 -0.92388 -0.382683
vn 0 -0.92388 0.382683
vn 0 -0.382683 0.92388
vn 0 0.258819 0.965926
vn 0 0.707107 0.707107
vn 0 0.965926 0.258819
vn 0 0.965926 -0.258819
vn 0 0.707107 -0.707107
vn 0 0.258819 -0.965926
vn 0 -0.258819 -0.965926
vn 0 -0.707107 -0.707107
vn 0 -0.965926 -0.258819
vn 0 -0.965926 0.258819
vn 0 -0.707107 0.707107
vn 0 -0.258819 0.965926
vn 0 0.258819 0.965926
vn 0 0.707107 0.707107
vn 0 0.965926 0.258819
vn 0 0.965926 -0.258819
vn 0 0.707107 -0.707107
vn 0 0.258819 -0.965926
vn 0 -0.258819 -0.965926
vn 0 -0.707107 -0.707107
vn 0 -0.965926 -0.258819
vn 0 -0.965926 0.258819
vn 0 -0.707107 0.707107
vn 0 -0.258819 0.965926
vn -1 0 0
vn -1 0 0
vn -1 0 0
vn -1 0 0
vn -1 0 0
vn -1 0 0
vn -1 0 0
vn -1 0 0
vn -1 0 0
vn -1 0 0
vn -1 0 0
vn -1 0 0
vn -1 0 0
vn 1 0 0
vn 1 0 0
vn 1 0 0
vn 1 0 0
vn 1 0 0
vn 1 0 0
vn 1 0 0
vn 1 0 0
vn 1 0 0
vn 1 0 0
vn 1 0 0
vn 1 0 0
vn 1 0 0
vn 0 0.5 0.866025
vn 0 1 0
vn 0 0.5 -0.866025
vn 0 -0.5 -0.866025
vn 0 -1 0
vn 0 -0.5 0.866025
vn 0 0.5 0.866025
vn 0 1 0
vn 0 0.5 -0.866025
vn 0 -0.5 -0.866025
vn 0 -1 0
vn 0 -0.5 0.866025
vn -1 0 0
vn -1 0 0
vn -1 0 0
vn -1 0 0
vn -1 0 0
vn -1 0 0
vn -1 0 0
vn 1 0 0
vn 1 0 0
vn 1 0 0
vn 1 0 0
vn 1 0 0
vn 1 0 0
vn 1 0 0
vn 0 0.258819 0.965926
vn 0 0.707107 0.707107
vn 0 0.965926 0.258819
vn 0 0.965926 -0.258819
vn 0 0.707107 -0.707107
vn 0 0.258819 -0.965926
vn 0 -0.258819 -0.965926
vn 0 -0.707107 -0.707107
vn 0 -0.965926 -0.258819
vn 0 -0.965926 0.258819
vn 0 -0.707107 0.707107
vn 0 -0.258819 0.965926
vn 0 0.258819 0.965926
vn 0 0.707107 0.707107
vn 0 0.965926 0.258819
vn 0 0.965926 -0.258819
vn 0 0.707107 -0.707107
vn 0 0.258819 -0.965926
vn 0 -0.258819 -0.965926
vn 0 -0.707107 -0.707107
vn 0 -0.965926 -0.258819
vn 0 -0.965926 0.258819
vn 0 -0.707107 0.707107
vn 0 -0.258819 0.965926
vn -1 0 0
vn -1 0 0
vn -1 0 0
vn -1 0 0
vn -1 0 0
vn -1 0 0
vn -1 0 0
vn -1 0 0
vn -1 0 0
vn -1 0 0
vn -1 0 0
vn -1 0 0
vn -1 0 0
vn 1 0 0
vn 1 0 0
vn 1 0 0
vn 1 0 0
vn 1 0 0
vn 1 0 0
vn 1 0 0
vn 1 0 0
vn 1 0 0
vn 1 0 0
vn 1 0 0
vn 1 0 0
vn 1 0 0
vn 0 0.258819 0.965926
vn 0 0.707107 0.707107
vn 0 0.965926 0.258819
vn 0 0.965926 -0.258819
vn 0 0.707107 -0.707107
vn 0 0.258819 -0.965926
vn 0 -0.258819 -0.965926
vn 0 -0.707107 -0.707107
vn 0 -0.965926 -0.258819
vn 0 -0.965926 0.258819
vn 0 -0.707107 0.707107
vn 0 -0.258819 0.965926
vn 0 0.258819 0.965926
vn 0 0.707107 0.707107
vn 0 0.965926 0.258819
vn 0 0.965926 -0.258819
vn 0 0.707107 -0.707107
vn 0 0.258819 -0.965926
vn 0 -0.258819 -0.965926
vn 0 -0.707107 -0.707107
vn 0 -0.965926 -0.258819
vn 0 -0.965926 0.258819
vn 0 -0.707107 0.707107
vn 0 -0.258819 0.965926
vn -1 0 0
vn -1 0 0
vn -1 0 0
vn -1 0 0
vn -1 0 0
vn -1 0 0
vn -1 0 0
vn -1 0 0
vn -1 0 0
vn -1 0 0
vn -1 0 0
vn -1 0 0
vn -1 0 0
vn 1 0 0
vn 1 0 0
vn 1 0 0
vn 1 0 0
vn 1 0 0
vn 1 0 0
vn 1 0 0
vn 1 0 0
vn 1 0 0
vn 1 0 0
vn 1 0 0
vn 1 0 0
vn 1 0 0
vt 0.03125 0.96875
vt 0.09375 0.96875
vt 0.09375 0.90625
vt 0.03125 0.90625
vt 0.15625 0.96875
vt 0.21875 0.96875
vt 0.21875 0.90625
vt 0.15625 0.90625
vt 0.28125 0.96875
vt 0.34375 0.96875
vt 0.34375 0.90625
vt 0.28125 0.90625
vt 0.40625 0.96875
vt 0.46875 0.96875
vt 0.46875 0.90625
vt 0.40625 0.90625
vt 0.53125 0.96875
vt 0.59375 0.96875
vt 0.59375 0.90625
vt 0.53125 0.90625
vt 0.65625 0.96875
vt 0.71875 0.96875
vt 0.71875 0.90625
vt 0.65625 0.90625
vt 0.78125 0.96875
vt 0.84375 0.96875
vt 0.84375 0.90625
vt 0.78125 0.90625
f 1/1/1 9/2/9 10/3/10 2/4/2
f 2/1/2 10/2/10 11/3/11 3/4/3
f 3/1/3 11/2/11 12/3/12 4/4/4
f 4/1/4 12/2/12 13/3/13 5/4/5
f 5/1/5 13/2/13 14/3/14 6/4/6
f 6/1/6 14/2/14 15/3/15 7/4/7
f 7/1/7 15/2/15 16/3/16 8/4/8
f 8/1/8 16/2/16 9/3/9 1/4/1
f 17/1/17 25/2/25 26/3/26 18/4/18
f 18/1/18 26/2/26 27/3/27 19/4/19
f 19/1/19 27/2/27 28/3/28 20/4/20
f 20/1/20 28/2/28 29/3/29 21/4/21
f 21/1/21 29/2/29 30/3/30 22/4/22
f 22/1/22 30/2/30 31/3/31 23/4/23
f 23/1/23 31/2/31 32/3/32 24/4/24
f 24/1/24 32/2/32 25/3/25 17/4/17
f 33/1/33 41/2/41 42/3/42 34/4/34
f 34/1/34 42/2/42 43/3/43 35/4/35
f 35/1/35 43/2/43 44/3/44 36/4/36
f 36/1/36 44/2/44 45/3/45 37/4/37
f 37/1/37 45/2/45 46/3/46 38/4/38
f 38/1/38 46/2/46 47/3/47 39/4/39
f 39/1/39 47/2/47 48/3/48 40/4/40
f 40/1/40 48/2/48 41/3/41 33/4/33
f 49/17/49 61/18/61 62/19/62 50/20/50
f 50/17/50 62/18/62 63/19/63 51/20/51
f 51/17/51 63/18/63 64/19/64 52/20/52
f 52/17/52 64/18/64 65/19/65 53/20/53
f 53/17/53 65/18/65 66/19/66 54/20/54
f 54/17/54 66/18/66 67/19/67 55/20/55
f 55/17/55 67/18/67 68/19/68 56/20/56
f 56/17/56 68/18/68 69/19/69 57/20/57
f 57/17/57 69/18/69 70/19/70 58/20/58
f 58/17/58 70/18/70 71/19/71 59/20/59
f 59/17/59 71/18/71 72/19/72 60/20/60
f 60/17/60 72/18/72 61/19/61 49/20/49
f 74/17/74 75/18/75 73/19/73
f 75/17/75 76/18/76 73/19/73
f 76/17/76 77/18/77 73/19/73
f 77/17/77 78/18/78 73/19/73
f 78/17/78 79/18/79 73/19/73
f 79/17/79 80/18/80 73/19/73
f 80/17/80 81/18/81 73/19/73
f 81/17/81 82/18/82 73/19/73
f 82/17/82 83/18/83 73/19/73
f 83/17/83 84/18/84 73/19/73
f 84/17/84 85/18/85 73/19/73
f 85/17/85 74/18/74 73/19/73
f 88/17/88 87/18/87 86/19/86
f 89/17/89 88/18/88 86/19/86
f 90/17/90 89/18/89 86/19/86
f 91/17/91 90/18/90 86/19/86
f 92/17/92 91/18/91 86/19/86
f 93/17/93 92/18/92 86/19/86
f 94/17/94 93/18/93 86/19/86
f 95/17/95 94/18/94 86/19/86
f 96/17/96 95/18/95 86/19/86
f 97/17/97 96/18/96 86/19/86
f 98/17/98 97/18/97 86/19/86
f 87/17/87 98/18/98 86/19/86
f 99/21/99 105/22/105 106/23/106 100/24/100
f 100/21/100 106/22/106 107/23/107 101/24/101
f 101/21/101 107/22/107 108/23/108 102/24/102
f 102/21/102 108/22/108 109/23/109 103/24/103
f 103/21/103 109/22/109 110/23/110 104/24/104
f 104/21/104 110/22/110 105/23/105 99/24/99
f 112/21/112 113/22/113 111/23/111
f 113/21/113 114/22/114 111/23/111
f 114/21/114 115/22/115 111/23/111
f 115/21/115 116/22/116 111/23/111
f 116/21/116 117/22/117 111/23/111
f 117/21/117 112/22/112 111/23/111
f 120/21/120 119/22/119 118/23/118
f 121/21/121 120/22/120 118/23/118
f 122/21/122 121/22/121 118/23/118
f 123/21/123 122/22/122 118/23/118
f 124/21/124 123/22/123 118/23/118
f 119/21/119 124/22/124 118/23/118
f 125/17/125 137/18/137 138/19/138 126/20/126
f 126/17/126 138/18/138 139/19/139 127/20/127
f 127/17/127 139/18/139 140/19/140 128/20/128
f 128/17/128 140/18/140 141/19/141 129/20/129
f 129/17/129 141/18/141 142/19/142 130/20/130
f 130/17/130 142/18/142 143/19/143 131/20/131
f 131/17/131 143/18/143 144/19/144 132/20/132
f 132/17/132 144/18/144 145/19/145 133/20/133
f 133/17/133 145/18/145 146/19/146 134/20/134
f 134/17/134 146/18/146 147/19/147 135/20/135
f 135/17/135 147/18/147 148/19/148 136/20/136
f 136/17/136 148/18/148 137/19/137 125/20/125
f 150/17/150 151/18/151 149/19/149
f 151/17/151 152/18/152 149/19/149
f 152/17/152 153/18/153 149/19/149
f 153/17/153 154/18/154 149/19/149
f 154/17/154 155/18/155 149/19/149
f 155/17/155 156/18/156 149/19/149
f 156/17/156 157/18/157 149/19/149
f 157/17/157 158/18/158 149/19/149
f 158/17/158 159/18/159 149/19/149
f 159/17/159 160/18/160 149/19/149
f 160/17/160 161/18/161 149/19/149
f 161/17/161 150/18/150 149/19/149
f 164/17/164 163/18/163 162/19/162
f 165/17/165 164/18/164 162/19/162
f 166/17/166 165/18/165 162/19/162
f 167/17/167 166/18/166 162/19/162
f 168/17/168 167/18/167 162/19/162
f 169/17/169 168/18/168 162/19/162
f 170/17/170 169/18/169 162/19/162
f 171/17/171 170/18/170 162/19/162
f 172/17/172 171/18/171 162/19/162
f 173/17/173 172/18/172 162/19/162
f 174/17/174 173/18/173 162/19/162
f 163/17/163 174/18/174 162/19/162
f 175/25/175 187/26/187 188/27/188 176/28/176
f 176/25/176 188/26/188 189/27/189 177/28/177
f 177/25/177 189/26/189 190/27/190 178/28/178
f 178/25/178 190/26/190 191/27/191 179/28/179
f 179/25/179 191/26/191 192/27/192 180/28/180
f 180/25/180 192/26/192 193/27/193 181/28/181
f 181/25/181 193/26/193 194/27/194 182/28/182
f 182/25/182 194/26/194 195/27/195 183/28/183
f 183/25/183 195/26/195 196/27/196 184/28/184
f 184/25/184 196/26/196 197/27/197 185/28/185
f 185/25/185 197/26/197 198/27/198 186/28/186
f 186/25/186 198/26/198 187/27/187 175/28/175
f 200/25/200 201/26/201 199/27/199
f 201/25/201 202/26/202 199/27/199
f 202/25/202 203/26/203 199/27/199
f 203/25/203 204/26/204 199/27/199
f 204/25/204 205/26/205 199/27/199
f 205/25/205 206/26/206 199/27/199
f 206/25/206 207/26/207 199/27/199
f 207/25/207 208/26/208 199/27/199
f 208/25/208 209/26/209 199/27/199
f 209/25/209 210/26/210 199/27/199
f 210/25/210 211/26/211 199/27/199
f 211/25/211 200/26/200 199/27/199
f 214/25/214 213/26/213 212/27/212
f 215/25/215 214/26/214 212/27/212
f 216/25/216 215/26/215 212/27/212
f 217/25/217 216/26/216 212/27/212
f 218/25/218 217/26/217 212/27/212
f 219/25/219 218/26/218 212/27/212
f 220/25/220 219/26/219 212/27/212
f 221/25/221 220/26/220 212/27/212
f 222/25/222 221/26/221 212/27/212
f 223/25/223 222/26/222 212/27/212
f 224/25/224 223/26/223 212/27/212
f 213/25/213 224/26/224 212/27/212
