# AFL Power Cable V2 piece end_cable_south, generated by tools/build-power-cable-v2.mjs
mtllib power_cable.mtl
o end_cable_south
usemtl cable
v 0.549081 0.581674 0.575
v 0.52033 0.610425 0.575
v 0.47967 0.610425 0.575
v 0.450919 0.581674 0.575
v 0.450919 0.541013 0.575
v 0.47967 0.512262 0.575
v 0.52033 0.512262 0.575
v 0.549081 0.541013 0.575
v 0.549081 0.581674 1
v 0.52033 0.610425 1
v 0.47967 0.610425 1
v 0.450919 0.581674 1
v 0.450919 0.541013 1
v 0.47967 0.512262 1
v 0.52033 0.512262 1
v 0.549081 0.541013 1
v 0.495956 0.489658 0.575
v 0.467205 0.518409 0.575
v 0.426545 0.518409 0.575
v 0.397794 0.489658 0.575
v 0.397794 0.448998 0.575
v 0.426545 0.420247 0.575
v 0.467205 0.420247 0.575
v 0.495956 0.448998 0.575
v 0.495956 0.489658 1
v 0.467205 0.518409 1
v 0.426545 0.518409 1
v 0.397794 0.489658 1
v 0.397794 0.448998 1
v 0.426545 0.420247 1
v 0.467205 0.420247 1
v 0.495956 0.448998 1
v 0.602206 0.489658 0.575
v 0.573455 0.518409 0.575
v 0.532795 0.518409 0.575
v 0.504044 0.489658 0.575
v 0.504044 0.448998 0.575
v 0.532795 0.420247 0.575
v 0.573455 0.420247 0.575
v 0.602206 0.448998 0.575
v 0.602206 0.489658 1
v 0.573455 0.518409 1
v 0.532795 0.518409 1
v 0.504044 0.489658 1
v 0.504044 0.448998 1
v 0.532795 0.420247 1
v 0.573455 0.420247 1
v 0.602206 0.448998 1
v 0.626778 0.53397 0.4625
v 0.592808 0.592808 0.4625
v 0.53397 0.626778 0.4625
v 0.46603 0.626778 0.4625
v 0.407192 0.592808 0.4625
v 0.373222 0.53397 0.4625
v 0.373222 0.46603 0.4625
v 0.407192 0.407192 0.4625
v 0.46603 0.373222 0.4625
v 0.53397 0.373222 0.4625
v 0.592808 0.407192 0.4625
v 0.626778 0.46603 0.4625
v 0.626778 0.53397 0.6
v 0.592808 0.592808 0.6
v 0.53397 0.626778 0.6
v 0.46603 0.626778 0.6
v 0.407192 0.592808 0.6
v 0.373222 0.53397 0.6
v 0.373222 0.46603 0.6
v 0.407192 0.407192 0.6
v 0.46603 0.373222 0.6
v 0.53397 0.373222 0.6
v 0.592808 0.407192 0.6
v 0.626778 0.46603 0.6
v 0.5 0.5 0.4625
v 0.626778 0.53397 0.4625
v 0.592808 0.592808 0.4625
v 0.53397 0.626778 0.4625
v 0.46603 0.626778 0.4625
v 0.407192 0.592808 0.4625
v 0.373222 0.53397 0.4625
v 0.373222 0.46603 0.4625
v 0.407192 0.407192 0.4625
v 0.46603 0.373222 0.4625
v 0.53397 0.373222 0.4625
v 0.592808 0.407192 0.4625
v 0.626778 0.46603 0.4625
v 0.5 0.5 0.6
v 0.626778 0.53397 0.6
v 0.592808 0.592808 0.6
v 0.53397 0.626778 0.6
v 0.46603 0.626778 0.6
v 0.407192 0.592808 0.6
v 0.373222 0.53397 0.6
v 0.373222 0.46603 0.6
v 0.407192 0.407192 0.6
v 0.46603 0.373222 0.6
v 0.53397 0.373222 0.6
v 0.592808 0.407192 0.6
v 0.626778 0.46603 0.6
vn 0.92388 0.382683 0
vn 0.382683 0.92388 0
vn -0.382683 0.92388 0
vn -0.92388 0.382683 0
vn -0.92388 -0.382683 0
vn -0.382683 -0.92388 0
vn 0.382683 -0.92388 0
vn 0.92388 -0.382683 0
vn 0.92388 0.382683 0
vn 0.382683 0.92388 0
vn -0.382683 0.92388 0
vn -0.92388 0.382683 0
vn -0.92388 -0.382683 0
vn -0.382683 -0.92388 0
vn 0.382683 -0.92388 0
vn 0.92388 -0.382683 0
vn 0.92388 0.382683 0
vn 0.382683 0.92388 0
vn -0.382683 0.92388 0
vn -0.92388 0.382683 0
vn -0.92388 -0.382683 0
vn -0.382683 -0.92388 0
vn 0.382683 -0.92388 0
vn 0.92388 -0.382683 0
vn 0.92388 0.382683 0
vn 0.382683 0.92388 0
vn -0.382683 0.92388 0
vn -0.92388 0.382683 0
vn -0.92388 -0.382683 0
vn -0.382683 -0.92388 0
vn 0.382683 -0.92388 0
vn 0.92388 -0.382683 0
vn 0.92388 0.382683 0
vn 0.382683 0.92388 0
vn -0.382683 0.92388 0
vn -0.92388 0.382683 0
vn -0.92388 -0.382683 0
vn -0.382683 -0.92388 0
vn 0.382683 -0.92388 0
vn 0.92388 -0.382683 0
vn 0.92388 0.382683 0
vn 0.382683 0.92388 0
vn -0.382683 0.92388 0
vn -0.92388 0.382683 0
vn -0.92388 -0.382683 0
vn -0.382683 -0.92388 0
vn 0.382683 -0.92388 0
vn 0.92388 -0.382683 0
vn 0.965926 0.258819 0
vn 0.707107 0.707107 0
vn 0.258819 0.965926 0
vn -0.258819 0.965926 0
vn -0.707107 0.707107 0
vn -0.965926 0.258819 0
vn -0.965926 -0.258819 0
vn -0.707107 -0.707107 0
vn -0.258819 -0.965926 0
vn 0.258819 -0.965926 0
vn 0.707107 -0.707107 0
vn 0.965926 -0.258819 0
vn 0.965926 0.258819 0
vn 0.707107 0.707107 0
vn 0.258819 0.965926 0
vn -0.258819 0.965926 0
vn -0.707107 0.707107 0
vn -0.965926 0.258819 0
vn -0.965926 -0.258819 0
vn -0.707107 -0.707107 0
vn -0.258819 -0.965926 0
vn 0.258819 -0.965926 0
vn 0.707107 -0.707107 0
vn 0.965926 -0.258819 0
vn 0 0 -1
vn 0 0 -1
vn 0 0 -1
vn 0 0 -1
vn 0 0 -1
vn 0 0 -1
vn 0 0 -1
vn 0 0 -1
vn 0 0 -1
vn 0 0 -1
vn 0 0 -1
vn 0 0 -1
vn 0 0 -1
vn 0 0 1
vn 0 0 1
vn 0 0 1
vn 0 0 1
vn 0 0 1
vn 0 0 1
vn 0 0 1
vn 0 0 1
vn 0 0 1
vn 0 0 1
vn 0 0 1
vn 0 0 1
vn 0 0 1
vt 0.03125 0.96875
vt 0.09375 0.96875
vt 0.09375 0.90625
vt 0.03125 0.90625
vt 0.15625 0.96875
vt 0.21875 0.96875
vt 0.21875 0.90625
vt 0.15625 0.90625
vt 0.28125 0.96875
vt 0.34375 0.96875
vt 0.34375 0.90625
vt 0.28125 0.90625
vt 0.40625 0.96875
vt 0.46875 0.96875
vt 0.46875 0.90625
vt 0.40625 0.90625
vt 0.53125 0.96875
vt 0.59375 0.96875
vt 0.59375 0.90625
vt 0.53125 0.90625
vt 0.65625 0.96875
vt 0.71875 0.96875
vt 0.71875 0.90625
vt 0.65625 0.90625
vt 0.78125 0.96875
vt 0.84375 0.96875
vt 0.84375 0.90625
vt 0.78125 0.90625
f 2/1/2 10/2/10 9/3/9 1/4/1
f 3/1/3 11/2/11 10/3/10 2/4/2
f 4/1/4 12/2/12 11/3/11 3/4/3
f 5/1/5 13/2/13 12/3/12 4/4/4
f 6/1/6 14/2/14 13/3/13 5/4/5
f 7/1/7 15/2/15 14/3/14 6/4/6
f 8/1/8 16/2/16 15/3/15 7/4/7
f 1/1/1 9/2/9 16/3/16 8/4/8
f 18/1/18 26/2/26 25/3/25 17/4/17
f 19/1/19 27/2/27 26/3/26 18/4/18
f 20/1/20 28/2/28 27/3/27 19/4/19
f 21/1/21 29/2/29 28/3/28 20/4/20
f 22/1/22 30/2/30 29/3/29 21/4/21
f 23/1/23 31/2/31 30/3/30 22/4/22
f 24/1/24 32/2/32 31/3/31 23/4/23
f 17/1/17 25/2/25 32/3/32 24/4/24
f 34/1/34 42/2/42 41/3/41 33/4/33
f 35/1/35 43/2/43 42/3/42 34/4/34
f 36/1/36 44/2/44 43/3/43 35/4/35
f 37/1/37 45/2/45 44/3/44 36/4/36
f 38/1/38 46/2/46 45/3/45 37/4/37
f 39/1/39 47/2/47 46/3/46 38/4/38
f 40/1/40 48/2/48 47/3/47 39/4/39
f 33/1/33 41/2/41 48/3/48 40/4/40
f 50/25/50 62/26/62 61/27/61 49/28/49
f 51/25/51 63/26/63 62/27/62 50/28/50
f 52/25/52 64/26/64 63/27/63 51/28/51
f 53/25/53 65/26/65 64/27/64 52/28/52
f 54/25/54 66/26/66 65/27/65 53/28/53
f 55/25/55 67/26/67 66/27/66 54/28/54
f 56/25/56 68/26/68 67/27/67 55/28/55
f 57/25/57 69/26/69 68/27/68 56/28/56
f 58/25/58 70/26/70 69/27/69 57/28/57
f 59/25/59 71/26/71 70/27/70 58/28/58
f 60/25/60 72/26/72 71/27/71 59/28/59
f 49/25/49 61/26/61 72/27/72 60/28/60
f 73/25/73 75/26/75 74/27/74
f 73/25/73 76/26/76 75/27/75
f 73/25/73 77/26/77 76/27/76
f 73/25/73 78/26/78 77/27/77
f 73/25/73 79/26/79 78/27/78
f 73/25/73 80/26/80 79/27/79
f 73/25/73 81/26/81 80/27/80
f 73/25/73 82/26/82 81/27/81
f 73/25/73 83/26/83 82/27/82
f 73/25/73 84/26/84 83/27/83
f 73/25/73 85/26/85 84/27/84
f 73/25/73 74/26/74 85/27/85
f 86/25/86 87/26/87 88/27/88
f 86/25/86 88/26/88 89/27/89
f 86/25/86 89/26/89 90/27/90
f 86/25/86 90/26/90 91/27/91
f 86/25/86 91/26/91 92/27/92
f 86/25/86 92/26/92 93/27/93
f 86/25/86 93/26/93 94/27/94
f 86/25/86 94/26/94 95/27/95
f 86/25/86 95/26/95 96/27/96
f 86/25/86 96/26/96 97/27/97
f 86/25/86 97/26/97 98/27/98
f 86/25/86 98/26/98 87/27/87
