# AFL Power Cable V2 piece end_cable_east, generated by tools/build-power-cable-v2.mjs
mtllib power_cable.mtl
o end_cable_east
usemtl cable
v 0.575 0.581674 0.549081
v 0.575 0.610425 0.52033
v 0.575 0.610425 0.47967
v 0.575 0.581674 0.450919
v 0.575 0.541013 0.450919
v 0.575 0.512262 0.47967
v 0.575 0.512262 0.52033
v 0.575 0.541013 0.549081
v 1 0.581674 0.549081
v 1 0.610425 0.52033
v 1 0.610425 0.47967
v 1 0.581674 0.450919
v 1 0.541013 0.450919
v 1 0.512262 0.47967
v 1 0.512262 0.52033
v 1 0.541013 0.549081
v 0.575 0.489658 0.495956
v 0.575 0.518409 0.467205
v 0.575 0.518409 0.426545
v 0.575 0.489658 0.397794
v 0.575 0.448998 0.397794
v 0.575 0.420247 0.426545
v 0.575 0.420247 0.467205
v 0.575 0.448998 0.495956
v 1 0.489658 0.495956
v 1 0.518409 0.467205
v 1 0.518409 0.426545
v 1 0.489658 0.397794
v 1 0.448998 0.397794
v 1 0.420247 0.426545
v 1 0.420247 0.467205
v 1 0.448998 0.495956
v 0.575 0.489658 0.602206
v 0.575 0.518409 0.573455
v 0.575 0.518409 0.532795
v 0.575 0.489658 0.504044
v 0.575 0.448998 0.504044
v 0.575 0.420247 0.532795
v 0.575 0.420247 0.573455
v 0.575 0.448998 0.602206
v 1 0.489658 0.602206
v 1 0.518409 0.573455
v 1 0.518409 0.532795
v 1 0.489658 0.504044
v 1 0.448998 0.504044
v 1 0.420247 0.532795
v 1 0.420247 0.573455
v 1 0.448998 0.602206
v 0.4625 0.53397 0.626778
v 0.4625 0.592808 0.592808
v 0.4625 0.626778 0.53397
v 0.4625 0.626778 0.46603
v 0.4625 0.592808 0.407192
v 0.4625 0.53397 0.373222
v 0.4625 0.46603 0.373222
v 0.4625 0.407192 0.407192
v 0.4625 0.373222 0.46603
v 0.4625 0.373222 0.53397
v 0.4625 0.407192 0.592808
v 0.4625 0.46603 0.626778
v 0.6 0.53397 0.626778
v 0.6 0.592808 0.592808
v 0.6 0.626778 0.53397
v 0.6 0.626778 0.46603
v 0.6 0.592808 0.407192
v 0.6 0.53397 0.373222
v 0.6 0.46603 0.373222
v 0.6 0.407192 0.407192
v 0.6 0.373222 0.46603
v 0.6 0.373222 0.53397
v 0.6 0.407192 0.592808
v 0.6 0.46603 0.626778
v 0.4625 0.5 0.5
v 0.4625 0.53397 0.626778
v 0.4625 0.592808 0.592808
v 0.4625 0.626778 0.53397
v 0.4625 0.626778 0.46603
v 0.4625 0.592808 0.407192
v 0.4625 0.53397 0.373222
v 0.4625 0.46603 0.373222
v 0.4625 0.407192 0.407192
v 0.4625 0.373222 0.46603
v 0.4625 0.373222 0.53397
v 0.4625 0.407192 0.592808
v 0.4625 0.46603 0.626778
v 0.6 0.5 0.5
v 0.6 0.53397 0.626778
v 0.6 0.592808 0.592808
v 0.6 0.626778 0.53397
v 0.6 0.626778 0.46603
v 0.6 0.592808 0.407192
v 0.6 0.53397 0.373222
v 0.6 0.46603 0.373222
v 0.6 0.407192 0.407192
v 0.6 0.373222 0.46603
v 0.6 0.373222 0.53397
v 0.6 0.407192 0.592808
v 0.6 0.46603 0.626778
vn 0 0.382683 0.92388
vn 0 0.92388 0.382683
vn 0 0.92388 -0.382683
vn 0 0.382683 -0.92388
vn 0 -0.382683 -0.92388
vn 0 -0.92388 -0.382683
vn 0 -0.92388 0.382683
vn 0 -0.382683 0.92388
vn 0 0.382683 0.92388
vn 0 0.92388 0.382683
vn 0 0.92388 -0.382683
vn 0 0.382683 -0.92388
vn 0 -0.382683 -0.92388
vn 0 -0.92388 -0.382683
vn 0 -0.92388 0.382683
vn 0 -0.382683 0.92388
vn 0 0.382683 0.92388
vn 0 0.92388 0.382683
vn 0 0.92388 -0.382683
vn 0 0.382683 -0.92388
vn 0 -0.382683 -0.92388
vn 0 -0.92388 -0.382683
vn 0 -0.92388 0.382683
vn 0 -0.382683 0.92388
vn 0 0.382683 0.92388
vn 0 0.92388 0.382683
vn 0 0.92388 -0.382683
vn 0 0.382683 -0.92388
vn 0 -0.382683 -0.92388
vn 0 -0.92388 -0.382683
vn 0 -0.92388 0.382683
vn 0 -0.382683 0.92388
vn 0 0.382683 0.92388
vn 0 0.92388 0.382683
vn 0 0.92388 -0.382683
vn 0 0.382683 -0.92388
vn 0 -0.382683 -0.92388
vn 0 -0.92388 -0.382683
vn 0 -0.92388 0.382683
vn 0 -0.382683 0.92388
vn 0 0.382683 0.92388
vn 0 0.92388 0.382683
vn 0 0.92388 -0.382683
vn 0 0.382683 -0.92388
vn 0 -0.382683 -0.92388
vn 0 -0.92388 -0.382683
vn 0 -0.92388 0.382683
vn 0 -0.382683 0.92388
vn 0 0.258819 0.965926
vn 0 0.707107 0.707107
vn 0 0.965926 0.258819
vn 0 0.965926 -0.258819
vn 0 0.707107 -0.707107
vn 0 0.258819 -0.965926
vn 0 -0.258819 -0.965926
vn 0 -0.707107 -0.707107
vn 0 -0.965926 -0.258819
vn 0 -0.965926 0.258819
vn 0 -0.707107 0.707107
vn 0 -0.258819 0.965926
vn 0 0.258819 0.965926
vn 0 0.707107 0.707107
vn 0 0.965926 0.258819
vn 0 0.965926 -0.258819
vn 0 0.707107 -0.707107
vn 0 0.258819 -0.965926
vn 0 -0.258819 -0.965926
vn 0 -0.707107 -0.707107
vn 0 -0.965926 -0.258819
vn 0 -0.965926 0.258819
vn 0 -0.707107 0.707107
vn 0 -0.258819 0.965926
vn -1 0 0
vn -1 0 0
vn -1 0 0
vn -1 0 0
vn -1 0 0
vn -1 0 0
vn -1 0 0
vn -1 0 0
vn -1 0 0
vn -1 0 0
vn -1 0 0
vn -1 0 0
vn -1 0 0
vn 1 0 0
vn 1 0 0
vn 1 0 0
vn 1 0 0
vn 1 0 0
vn 1 0 0
vn 1 0 0
vn 1 0 0
vn 1 0 0
vn 1 0 0
vn 1 0 0
vn 1 0 0
vn 1 0 0
vt 0.0625 0.9375
vt 0.1875 0.9375
vt 0.3125 0.9375
vt 0.4375 0.9375
vt 0.5625 0.9375
vt 0.6875 0.9375
vt 0.8125 0.9375
f 1/1/1 9/1/9 10/1/10 2/1/2
f 2/1/2 10/1/10 11/1/11 3/1/3
f 3/1/3 11/1/11 12/1/12 4/1/4
f 4/1/4 12/1/12 13/1/13 5/1/5
f 5/1/5 13/1/13 14/1/14 6/1/6
f 6/1/6 14/1/14 15/1/15 7/1/7
f 7/1/7 15/1/15 16/1/16 8/1/8
f 8/1/8 16/1/16 9/1/9 1/1/1
f 17/1/17 25/1/25 26/1/26 18/1/18
f 18/1/18 26/1/26 27/1/27 19/1/19
f 19/1/19 27/1/27 28/1/28 20/1/20
f 20/1/20 28/1/28 29/1/29 21/1/21
f 21/1/21 29/1/29 30/1/30 22/1/22
f 22/1/22 30/1/30 31/1/31 23/1/23
f 23/1/23 31/1/31 32/1/32 24/1/24
f 24/1/24 32/1/32 25/1/25 17/1/17
f 33/1/33 41/1/41 42/1/42 34/1/34
f 34/1/34 42/1/42 43/1/43 35/1/35
f 35/1/35 43/1/43 44/1/44 36/1/36
f 36/1/36 44/1/44 45/1/45 37/1/37
f 37/1/37 45/1/45 46/1/46 38/1/38
f 38/1/38 46/1/46 47/1/47 39/1/39
f 39/1/39 47/1/47 48/1/48 40/1/40
f 40/1/40 48/1/48 41/1/41 33/1/33
f 49/7/49 61/7/61 62/7/62 50/7/50
f 50/7/50 62/7/62 63/7/63 51/7/51
f 51/7/51 63/7/63 64/7/64 52/7/52
f 52/7/52 64/7/64 65/7/65 53/7/53
f 53/7/53 65/7/65 66/7/66 54/7/54
f 54/7/54 66/7/66 67/7/67 55/7/55
f 55/7/55 67/7/67 68/7/68 56/7/56
f 56/7/56 68/7/68 69/7/69 57/7/57
f 57/7/57 69/7/69 70/7/70 58/7/58
f 58/7/58 70/7/70 71/7/71 59/7/59
f 59/7/59 71/7/71 72/7/72 60/7/60
f 60/7/60 72/7/72 61/7/61 49/7/49
f 74/7/74 75/7/75 73/7/73
f 75/7/75 76/7/76 73/7/73
f 76/7/76 77/7/77 73/7/73
f 77/7/77 78/7/78 73/7/73
f 78/7/78 79/7/79 73/7/73
f 79/7/79 80/7/80 73/7/73
f 80/7/80 81/7/81 73/7/73
f 81/7/81 82/7/82 73/7/73
f 82/7/82 83/7/83 73/7/73
f 83/7/83 84/7/84 73/7/73
f 84/7/84 85/7/85 73/7/73
f 85/7/85 74/7/74 73/7/73
f 88/7/88 87/7/87 86/7/86
f 89/7/89 88/7/88 86/7/86
f 90/7/90 89/7/89 86/7/86
f 91/7/91 90/7/90 86/7/86
f 92/7/92 91/7/91 86/7/86
f 93/7/93 92/7/92 86/7/86
f 94/7/94 93/7/93 86/7/86
f 95/7/95 94/7/94 86/7/86
f 96/7/96 95/7/95 86/7/86
f 97/7/97 96/7/96 86/7/86
f 98/7/98 97/7/97 86/7/86
f 87/7/87 98/7/98 86/7/86
