# AFL Power Cable V2 piece end_cable_down, generated by tools/build-power-cable-v2.mjs
mtllib power_cable.mtl
o end_cable_down
usemtl cable
v 0.549081 0.425 0.581674
v 0.52033 0.425 0.610425
v 0.47967 0.425 0.610425
v 0.450919 0.425 0.581674
v 0.450919 0.425 0.541013
v 0.47967 0.425 0.512262
v 0.52033 0.425 0.512262
v 0.549081 0.425 0.541013
v 0.549081 0 0.581674
v 0.52033 0 0.610425
v 0.47967 0 0.610425
v 0.450919 0 0.581674
v 0.450919 0 0.541013
v 0.47967 0 0.512262
v 0.52033 0 0.512262
v 0.549081 0 0.541013
v 0.495956 0.425 0.489658
v 0.467205 0.425 0.518409
v 0.426545 0.425 0.518409
v 0.397794 0.425 0.489658
v 0.397794 0.425 0.448998
v 0.426545 0.425 0.420247
v 0.467205 0.425 0.420247
v 0.495956 0.425 0.448998
v 0.495956 0 0.489658
v 0.467205 0 0.518409
v 0.426545 0 0.518409
v 0.397794 0 0.489658
v 0.397794 0 0.448998
v 0.426545 0 0.420247
v 0.467205 0 0.420247
v 0.495956 0 0.448998
v 0.602206 0.425 0.489658
v 0.573455 0.425 0.518409
v 0.532795 0.425 0.518409
v 0.504044 0.425 0.489658
v 0.504044 0.425 0.448998
v 0.532795 0.425 0.420247
v 0.573455 0.425 0.420247
v 0.602206 0.425 0.448998
v 0.602206 0 0.489658
v 0.573455 0 0.518409
v 0.532795 0 0.518409
v 0.504044 0 0.489658
v 0.504044 0 0.448998
v 0.532795 0 0.420247
v 0.573455 0 0.420247
v 0.602206 0 0.448998
v 0.626778 0.5375 0.53397
v 0.592808 0.5375 0.592808
v 0.53397 0.5375 0.626778
v 0.46603 0.5375 0.626778
v 0.407192 0.5375 0.592808
v 0.373222 0.5375 0.53397
v 0.373222 0.5375 0.46603
v 0.407192 0.5375 0.407192
v 0.46603 0.5375 0.373222
v 0.53397 0.5375 0.373222
v 0.592808 0.5375 0.407192
v 0.626778 0.5375 0.46603
v 0.626778 0.4 0.53397
v 0.592808 0.4 0.592808
v 0.53397 0.4 0.626778
v 0.46603 0.4 0.626778
v 0.407192 0.4 0.592808
v 0.373222 0.4 0.53397
v 0.373222 0.4 0.46603
v 0.407192 0.4 0.407192
v 0.46603 0.4 0.373222
v 0.53397 0.4 0.373222
v 0.592808 0.4 0.407192
v 0.626778 0.4 0.46603
v 0.5 0.5375 0.5
v 0.626778 0.5375 0.53397
v 0.592808 0.5375 0.592808
v 0.53397 0.5375 0.626778
v 0.46603 0.5375 0.626778
v 0.407192 0.5375 0.592808
v 0.373222 0.5375 0.53397
v 0.373222 0.5375 0.46603
v 0.407192 0.5375 0.407192
v 0.46603 0.5375 0.373222
v 0.53397 0.5375 0.373222
v 0.592808 0.5375 0.407192
v 0.626778 0.5375 0.46603
v 0.5 0.4 0.5
v 0.626778 0.4 0.53397
v 0.592808 0.4 0.592808
v 0.53397 0.4 0.626778
v 0.46603 0.4 0.626778
v 0.407192 0.4 0.592808
v 0.373222 0.4 0.53397
v 0.373222 0.4 0.46603
v 0.407192 0.4 0.407192
v 0.46603 0.4 0.373222
v 0.53397 0.4 0.373222
v 0.592808 0.4 0.407192
v 0.626778 0.4 0.46603
vn 0.92388 0 0.382683
vn 0.382683 0 0.92388
vn -0.382683 0 0.92388
vn -0.92388 0 0.382683
vn -0.92388 0 -0.382683
vn -0.382683 0 -0.92388
vn 0.382683 0 -0.92388
vn 0.92388 0 -0.382683
vn 0.92388 0 0.382683
vn 0.382683 0 0.92388
vn -0.382683 0 0.92388
vn -0.92388 0 0.382683
vn -0.92388 0 -0.382683
vn -0.382683 0 -0.92388
vn 0.382683 0 -0.92388
vn 0.92388 0 -0.382683
vn 0.92388 0 0.382683
vn 0.382683 0 0.92388
vn -0.382683 0 0.92388
vn -0.92388 0 0.382683
vn -0.92388 0 -0.382683
vn -0.382683 0 -0.92388
vn 0.382683 0 -0.92388
vn 0.92388 0 -0.382683
vn 0.92388 0 0.382683
vn 0.382683 0 0.92388
vn -0.382683 0 0.92388
vn -0.92388 0 0.382683
vn -0.92388 0 -0.382683
vn -0.382683 0 -0.92388
vn 0.382683 0 -0.92388
vn 0.92388 0 -0.382683
vn 0.92388 0 0.382683
vn 0.382683 0 0.92388
vn -0.382683 0 0.92388
vn -0.92388 0 0.382683
vn -0.92388 0 -0.382683
vn -0.382683 0 -0.92388
vn 0.382683 0 -0.92388
vn 0.92388 0 -0.382683
vn 0.92388 0 0.382683
vn 0.382683 0 0.92388
vn -0.382683 0 0.92388
vn -0.92388 0 0.382683
vn -0.92388 0 -0.382683
vn -0.382683 0 -0.92388
vn 0.382683 0 -0.92388
vn 0.92388 0 -0.382683
vn 0.965926 0 0.258819
vn 0.707107 0 0.707107
vn 0.258819 0 0.965926
vn -0.258819 0 0.965926
vn -0.707107 0 0.707107
vn -0.965926 0 0.258819
vn -0.965926 0 -0.258819
vn -0.707107 0 -0.707107
vn -0.258819 0 -0.965926
vn 0.258819 0 -0.965926
vn 0.707107 0 -0.707107
vn 0.965926 0 -0.258819
vn 0.965926 0 0.258819
vn 0.707107 0 0.707107
vn 0.258819 0 0.965926
vn -0.258819 0 0.965926
vn -0.707107 0 0.707107
vn -0.965926 0 0.258819
vn -0.965926 0 -0.258819
vn -0.707107 0 -0.707107
vn -0.258819 0 -0.965926
vn 0.258819 0 -0.965926
vn 0.707107 0 -0.707107
vn 0.965926 0 -0.258819
vn 0 1 0
vn 0 1 0
vn 0 1 0
vn 0 1 0
vn 0 1 0
vn 0 1 0
vn 0 1 0
vn 0 1 0
vn 0 1 0
vn 0 1 0
vn 0 1 0
vn 0 1 0
vn 0 1 0
vn 0 -1 0
vn 0 -1 0
vn 0 -1 0
vn 0 -1 0
vn 0 -1 0
vn 0 -1 0
vn 0 -1 0
vn 0 -1 0
vn 0 -1 0
vn 0 -1 0
vn 0 -1 0
vn 0 -1 0
vn 0 -1 0
vt 0.0625 0.9375
vt 0.1875 0.9375
vt 0.3125 0.9375
vt 0.4375 0.9375
vt 0.5625 0.9375
vt 0.6875 0.9375
vt 0.8125 0.9375
f 2/1/2 10/1/10 9/1/9 1/1/1
f 3/1/3 11/1/11 10/1/10 2/1/2
f 4/1/4 12/1/12 11/1/11 3/1/3
f 5/1/5 13/1/13 12/1/12 4/1/4
f 6/1/6 14/1/14 13/1/13 5/1/5
f 7/1/7 15/1/15 14/1/14 6/1/6
f 8/1/8 16/1/16 15/1/15 7/1/7
f 1/1/1 9/1/9 16/1/16 8/1/8
f 18/1/18 26/1/26 25/1/25 17/1/17
f 19/1/19 27/1/27 26/1/26 18/1/18
f 20/1/20 28/1/28 27/1/27 19/1/19
f 21/1/21 29/1/29 28/1/28 20/1/20
f 22/1/22 30/1/30 29/1/29 21/1/21
f 23/1/23 31/1/31 30/1/30 22/1/22
f 24/1/24 32/1/32 31/1/31 23/1/23
f 17/1/17 25/1/25 32/1/32 24/1/24
f 34/1/34 42/1/42 41/1/41 33/1/33
f 35/1/35 43/1/43 42/1/42 34/1/34
f 36/1/36 44/1/44 43/1/43 35/1/35
f 37/1/37 45/1/45 44/1/44 36/1/36
f 38/1/38 46/1/46 45/1/45 37/1/37
f 39/1/39 47/1/47 46/1/46 38/1/38
f 40/1/40 48/1/48 47/1/47 39/1/39
f 33/1/33 41/1/41 48/1/48 40/1/40
f 50/7/50 62/7/62 61/7/61 49/7/49
f 51/7/51 63/7/63 62/7/62 50/7/50
f 52/7/52 64/7/64 63/7/63 51/7/51
f 53/7/53 65/7/65 64/7/64 52/7/52
f 54/7/54 66/7/66 65/7/65 53/7/53
f 55/7/55 67/7/67 66/7/66 54/7/54
f 56/7/56 68/7/68 67/7/67 55/7/55
f 57/7/57 69/7/69 68/7/68 56/7/56
f 58/7/58 70/7/70 69/7/69 57/7/57
f 59/7/59 71/7/71 70/7/70 58/7/58
f 60/7/60 72/7/72 71/7/71 59/7/59
f 49/7/49 61/7/61 72/7/72 60/7/60
f 73/7/73 75/7/75 74/7/74
f 73/7/73 76/7/76 75/7/75
f 73/7/73 77/7/77 76/7/76
f 73/7/73 78/7/78 77/7/77
f 73/7/73 79/7/79 78/7/78
f 73/7/73 80/7/80 79/7/79
f 73/7/73 81/7/81 80/7/80
f 73/7/73 82/7/82 81/7/81
f 73/7/73 83/7/83 82/7/82
f 73/7/73 84/7/84 83/7/83
f 73/7/73 85/7/85 84/7/84
f 73/7/73 74/7/74 85/7/85
f 86/7/86 87/7/87 88/7/88
f 86/7/86 88/7/88 89/7/89
f 86/7/86 89/7/89 90/7/90
f 86/7/86 90/7/90 91/7/91
f 86/7/86 91/7/91 92/7/92
f 86/7/86 92/7/92 93/7/93
f 86/7/86 93/7/93 94/7/94
f 86/7/86 94/7/94 95/7/95
f 86/7/86 95/7/95 96/7/96
f 86/7/86 96/7/96 97/7/97
f 86/7/86 97/7/97 98/7/98
f 86/7/86 98/7/98 87/7/87
