# AFL Power Cable V2 piece half_cable_down, generated by tools/build-power-cable-v2.mjs
mtllib power_cable.mtl
o half_cable_down
usemtl cable
v 0.549081 0.5 0.581674
v 0.52033 0.5 0.610425
v 0.47967 0.5 0.610425
v 0.450919 0.5 0.581674
v 0.450919 0.5 0.541013
v 0.47967 0.5 0.512262
v 0.52033 0.5 0.512262
v 0.549081 0.5 0.541013
v 0.549081 0 0.581674
v 0.52033 0 0.610425
v 0.47967 0 0.610425
v 0.450919 0 0.581674
v 0.450919 0 0.541013
v 0.47967 0 0.512262
v 0.52033 0 0.512262
v 0.549081 0 0.541013
v 0.495956 0.5 0.489658
v 0.467205 0.5 0.518409
v 0.426545 0.5 0.518409
v 0.397794 0.5 0.489658
v 0.397794 0.5 0.448998
v 0.426545 0.5 0.420247
v 0.467205 0.5 0.420247
v 0.495956 0.5 0.448998
v 0.495956 0 0.489658
v 0.467205 0 0.518409
v 0.426545 0 0.518409
v 0.397794 0 0.489658
v 0.397794 0 0.448998
v 0.426545 0 0.420247
v 0.467205 0 0.420247
v 0.495956 0 0.448998
v 0.602206 0.5 0.489658
v 0.573455 0.5 0.518409
v 0.532795 0.5 0.518409
v 0.504044 0.5 0.489658
v 0.504044 0.5 0.448998
v 0.532795 0.5 0.420247
v 0.573455 0.5 0.420247
v 0.602206 0.5 0.448998
v 0.602206 0 0.489658
v 0.573455 0 0.518409
v 0.532795 0 0.518409
v 0.504044 0 0.489658
v 0.504044 0 0.448998
v 0.532795 0 0.420247
v 0.573455 0 0.420247
v 0.602206 0 0.448998
vn 0.92388 0 0.382683
vn 0.382683 0 0.92388
vn -0.382683 0 0.92388
vn -0.92388 0 0.382683
vn -0.92388 0 -0.382683
vn -0.382683 0 -0.92388
vn 0.382683 0 -0.92388
vn 0.92388 0 -0.382683
vn 0.92388 0 0.382683
vn 0.382683 0 0.92388
vn -0.382683 0 0.92388
vn -0.92388 0 0.382683
vn -0.92388 0 -0.382683
vn -0.382683 0 -0.92388
vn 0.382683 0 -0.92388
vn 0.92388 0 -0.382683
vn 0.92388 0 0.382683
vn 0.382683 0 0.92388
vn -0.382683 0 0.92388
vn -0.92388 0 0.382683
vn -0.92388 0 -0.382683
vn -0.382683 0 -0.92388
vn 0.382683 0 -0.92388
vn 0.92388 0 -0.382683
vn 0.92388 0 0.382683
vn 0.382683 0 0.92388
vn -0.382683 0 0.92388
vn -0.92388 0 0.382683
vn -0.92388 0 -0.382683
vn -0.382683 0 -0.92388
vn 0.382683 0 -0.92388
vn 0.92388 0 -0.382683
vn 0.92388 0 0.382683
vn 0.382683 0 0.92388
vn -0.382683 0 0.92388
vn -0.92388 0 0.382683
vn -0.92388 0 -0.382683
vn -0.382683 0 -0.92388
vn 0.382683 0 -0.92388
vn 0.92388 0 -0.382683
vn 0.92388 0 0.382683
vn 0.382683 0 0.92388
vn -0.382683 0 0.92388
vn -0.92388 0 0.382683
vn -0.92388 0 -0.382683
vn -0.382683 0 -0.92388
vn 0.382683 0 -0.92388
vn 0.92388 0 -0.382683
vt 0.0625 0.9375
vt 0.1875 0.9375
vt 0.3125 0.9375
vt 0.4375 0.9375
vt 0.5625 0.9375
vt 0.6875 0.9375
vt 0.8125 0.9375
f 2/1/2 10/1/10 9/1/9 1/1/1
f 3/1/3 11/1/11 10/1/10 2/1/2
f 4/1/4 12/1/12 11/1/11 3/1/3
f 5/1/5 13/1/13 12/1/12 4/1/4
f 6/1/6 14/1/14 13/1/13 5/1/5
f 7/1/7 15/1/15 14/1/14 6/1/6
f 8/1/8 16/1/16 15/1/15 7/1/7
f 1/1/1 9/1/9 16/1/16 8/1/8
f 18/1/18 26/1/26 25/1/25 17/1/17
f 19/1/19 27/1/27 26/1/26 18/1/18
f 20/1/20 28/1/28 27/1/27 19/1/19
f 21/1/21 29/1/29 28/1/28 20/1/20
f 22/1/22 30/1/30 29/1/29 21/1/21
f 23/1/23 31/1/31 30/1/30 22/1/22
f 24/1/24 32/1/32 31/1/31 23/1/23
f 17/1/17 25/1/25 32/1/32 24/1/24
f 34/1/34 42/1/42 41/1/41 33/1/33
f 35/1/35 43/1/43 42/1/42 34/1/34
f 36/1/36 44/1/44 43/1/43 35/1/35
f 37/1/37 45/1/45 44/1/44 36/1/36
f 38/1/38 46/1/46 45/1/45 37/1/37
f 39/1/39 47/1/47 46/1/46 38/1/38
f 40/1/40 48/1/48 47/1/47 39/1/39
f 33/1/33 41/1/41 48/1/48 40/1/40
