# AFL Power Cable V2 piece half_plug_west, generated by tools/build-power-cable-v2.mjs
mtllib power_cable.mtl
o half_plug_west
usemtl cable
v 0.5 0.581674 0.549081
v 0.5 0.610425 0.52033
v 0.5 0.610425 0.47967
v 0.5 0.581674 0.450919
v 0.5 0.541013 0.450919
v 0.5 0.512262 0.47967
v 0.5 0.512262 0.52033
v 0.5 0.541013 0.549081
v 0.19375 0.581674 0.549081
v 0.19375 0.610425 0.52033
v 0.19375 0.610425 0.47967
v 0.19375 0.581674 0.450919
v 0.19375 0.541013 0.450919
v 0.19375 0.512262 0.47967
v 0.19375 0.512262 0.52033
v 0.19375 0.541013 0.549081
v 0.5 0.489658 0.495956
v 0.5 0.518409 0.467205
v 0.5 0.518409 0.426545
v 0.5 0.489658 0.397794
v 0.5 0.448998 0.397794
v 0.5 0.420247 0.426545
v 0.5 0.420247 0.467205
v 0.5 0.448998 0.495956
v 0.19375 0.489658 0.495956
v 0.19375 0.518409 0.467205
v 0.19375 0.518409 0.426545
v 0.19375 0.489658 0.397794
v 0.19375 0.448998 0.397794
v 0.19375 0.420247 0.426545
v 0.19375 0.420247 0.467205
v 0.19375 0.448998 0.495956
v 0.5 0.489658 0.602206
v 0.5 0.518409 0.573455
v 0.5 0.518409 0.532795
v 0.5 0.489658 0.504044
v 0.5 0.448998 0.504044
v 0.5 0.420247 0.532795
v 0.5 0.420247 0.573455
v 0.5 0.448998 0.602206
v 0.19375 0.489658 0.602206
v 0.19375 0.518409 0.573455
v 0.19375 0.518409 0.532795
v 0.19375 0.489658 0.504044
v 0.19375 0.448998 0.504044
v 0.19375 0.420247 0.532795
v 0.19375 0.420247 0.573455
v 0.19375 0.448998 0.602206
v 0.2125 0.534779 0.629796
v 0.2125 0.595017 0.595017
v 0.2125 0.629796 0.534779
v 0.2125 0.629796 0.465221
v 0.2125 0.595017 0.404983
v 0.2125 0.534779 0.370204
v 0.2125 0.465221 0.370204
v 0.2125 0.404983 0.404983
v 0.2125 0.370204 0.465221
v 0.2125 0.370204 0.534779
v 0.2125 0.404983 0.595017
v 0.2125 0.465221 0.629796
v 0.0875 0.534779 0.629796
v 0.0875 0.595017 0.595017
v 0.0875 0.629796 0.534779
v 0.0875 0.629796 0.465221
v 0.0875 0.595017 0.404983
v 0.0875 0.534779 0.370204
v 0.0875 0.465221 0.370204
v 0.0875 0.404983 0.404983
v 0.0875 0.370204 0.465221
v 0.0875 0.370204 0.534779
v 0.0875 0.404983 0.595017
v 0.0875 0.465221 0.629796
v 0.2125 0.5 0.5
v 0.2125 0.534779 0.629796
v 0.2125 0.595017 0.595017
v 0.2125 0.629796 0.534779
v 0.2125 0.629796 0.465221
v 0.2125 0.595017 0.404983
v 0.2125 0.534779 0.370204
v 0.2125 0.465221 0.370204
v 0.2125 0.404983 0.404983
v 0.2125 0.370204 0.465221
v 0.2125 0.370204 0.534779
v 0.2125 0.404983 0.595017
v 0.2125 0.465221 0.629796
v 0.0875 0.5 0.5
v 0.0875 0.534779 0.629796
v 0.0875 0.595017 0.595017
v 0.0875 0.629796 0.534779
v 0.0875 0.629796 0.465221
v 0.0875 0.595017 0.404983
v 0.0875 0.534779 0.370204
v 0.0875 0.465221 0.370204
v 0.0875 0.404983 0.404983
v 0.0875 0.370204 0.465221
v 0.0875 0.370204 0.534779
v 0.0875 0.404983 0.595017
v 0.0875 0.465221 0.629796
v 0.153125 0.578125 0.635316
v 0.153125 0.65625 0.5
v 0.153125 0.578125 0.364684
v 0.153125 0.421875 0.364684
v 0.153125 0.34375 0.5
v 0.153125 0.421875 0.635316
v 0.096875 0.578125 0.635316
v 0.096875 0.65625 0.5
v 0.096875 0.578125 0.364684
v 0.096875 0.421875 0.364684
v 0.096875 0.34375 0.5
v 0.096875 0.421875 0.635316
v 0.153125 0.5 0.5
v 0.153125 0.578125 0.635316
v 0.153125 0.65625 0.5
v 0.153125 0.578125 0.364684
v 0.153125 0.421875 0.364684
v 0.153125 0.34375 0.5
v 0.153125 0.421875 0.635316
v 0.096875 0.5 0.5
v 0.096875 0.578125 0.635316
v 0.096875 0.65625 0.5
v 0.096875 0.578125 0.364684
v 0.096875 0.421875 0.364684
v 0.096875 0.34375 0.5
v 0.096875 0.421875 0.635316
v 0.09375 0.530735 0.614704
v 0.09375 0.583969 0.583969
v 0.09375 0.614704 0.530735
v 0.09375 0.614704 0.469265
v 0.09375 0.583969 0.416031
v 0.09375 0.530735 0.385296
v 0.09375 0.469265 0.385296
v 0.09375 0.416031 0.416031
v 0.09375 0.385296 0.469265
v 0.09375 0.385296 0.530735
v 0.09375 0.416031 0.583969
v 0.09375 0.469265 0.614704
v 0 0.530735 0.614704
v 0 0.583969 0.583969
v 0 0.614704 0.530735
v 0 0.614704 0.469265
v 0 0.583969 0.416031
v 0 0.530735 0.385296
v 0 0.469265 0.385296
v 0 0.416031 0.416031
v 0 0.385296 0.469265
v 0 0.385296 0.530735
v 0 0.416031 0.583969
v 0 0.469265 0.614704
v 0.09375 0.5 0.5
v 0.09375 0.530735 0.614704
v 0.09375 0.583969 0.583969
v 0.09375 0.614704 0.530735
v 0.09375 0.614704 0.469265
v 0.09375 0.583969 0.416031
v 0.09375 0.530735 0.385296
v 0.09375 0.469265 0.385296
v 0.09375 0.416031 0.416031
v 0.09375 0.385296 0.469265
v 0.09375 0.385296 0.530735
v 0.09375 0.416031 0.583969
v 0.09375 0.469265 0.614704
v 0 0.5 0.5
v 0 0.530735 0.614704
v 0 0.583969 0.583969
v 0 0.614704 0.530735
v 0 0.614704 0.469265
v 0 0.583969 0.416031
v 0 0.530735 0.385296
v 0 0.469265 0.385296
v 0 0.416031 0.416031
v 0 0.385296 0.469265
v 0 0.385296 0.530735
v 0 0.416031 0.583969
v 0 0.469265 0.614704
vn 0 0.382683 0.92388
vn 0 0.92388 0.382683
vn 0 0.92388 -0.382683
vn 0 0.382683 -0.92388
vn 0 -0.382683 -0.92388
vn 0 -0.92388 -0.382683
vn 0 -0.92388 0.382683
vn 0 -0.382683 0.92388
vn 0 0.382683 0.92388
vn 0 0.92388 0.382683
vn 0 0.92388 -0.382683
vn 0 0.382683 -0.92388
vn 0 -0.382683 -0.92388
vn 0 -0.92388 -0.382683
vn 0 -0.92388 0.382683
vn 0 -0.382683 0.92388
vn 0 0.382683 0.92388
vn 0 0.92388 0.382683
vn 0 0.92388 -0.382683
vn 0 0.382683 -0.92388
vn 0 -0.382683 -0.92388
vn 0 -0.92388 -0.382683
vn 0 -0.92388 0.382683
vn 0 -0.382683 0.92388
vn 0 0.382683 0.92388
vn 0 0.92388 0.382683
vn 0 0.92388 -0.382683
vn 0 0.382683 -0.92388
vn 0 -0.382683 -0.92388
vn 0 -0.92388 -0.382683
vn 0 -0.92388 0.382683
vn 0 -0.382683 0.92388
vn 0 0.382683 0.92388
vn 0 0.92388 0.382683
vn 0 0.92388 -0.382683
vn 0 0.382683 -0.92388
vn 0 -0.382683 -0.92388
vn 0 -0.92388 -0.382683
vn 0 -0.92388 0.382683
vn 0 -0.382683 0.92388
vn 0 0.382683 0.92388
vn 0 0.92388 0.382683
vn 0 0.92388 -0.382683
vn 0 0.382683 -0.92388
vn 0 -0.382683 -0.92388
vn 0 -0.92388 -0.382683
vn 0 -0.92388 0.382683
vn 0 -0.382683 0.92388
vn 0 0.258819 0.965926
vn 0 0.707107 0.707107
vn 0 0.965926 0.258819
vn 0 0.965926 -0.258819
vn 0 0.707107 -0.707107
vn 0 0.258819 -0.965926
vn 0 -0.258819 -0.965926
vn 0 -0.707107 -0.707107
vn 0 -0.965926 -0.258819
vn 0 -0.965926 0.258819
vn 0 -0.707107 0.707107
vn 0 -0.258819 0.965926
vn 0 0.258819 0.965926
vn 0 0.707107 0.707107
vn 0 0.965926 0.258819
vn 0 0.965926 -0.258819
vn 0 0.707107 -0.707107
vn 0 0.258819 -0.965926
vn 0 -0.258819 -0.965926
vn 0 -0.707107 -0.707107
vn 0 -0.965926 -0.258819
vn 0 -0.965926 0.258819
vn 0 -0.707107 0.707107
vn 0 -0.258819 0.965926
vn 1 0 0
vn 1 0 0
vn 1 0 0
vn 1 0 0
vn 1 0 0
vn 1 0 0
vn 1 0 0
vn 1 0 0
vn 1 0 0
vn 1 0 0
vn 1 0 0
vn 1 0 0
vn 1 0 0
vn -1 0 0
vn -1 0 0
vn -1 0 0
vn -1 0 0
vn -1 0 0
vn -1 0 0
vn -1 0 0
vn -1 0 0
vn -1 0 0
vn -1 0 0
vn -1 0 0
vn -1 0 0
vn -1 0 0
vn 0 0.5 0.866025
vn 0 1 0
vn 0 0.5 -0.866025
vn 0 -0.5 -0.866025
vn 0 -1 0
vn 0 -0.5 0.866025
vn 0 0.5 0.866025
vn 0 1 0
vn 0 0.5 -0.866025
vn 0 -0.5 -0.866025
vn 0 -1 0
vn 0 -0.5 0.866025
vn 1 0 0
vn 1 0 0
vn 1 0 0
vn 1 0 0
vn 1 0 0
vn 1 0 0
vn 1 0 0
vn -1 0 0
vn -1 0 0
vn -1 0 0
vn -1 0 0
vn -1 0 0
vn -1 0 0
vn -1 0 0
vn 0 0.258819 0.965926
vn 0 0.707107 0.707107
vn 0 0.965926 0.258819
vn 0 0.965926 -0.258819
vn 0 0.707107 -0.707107
vn 0 0.258819 -0.965926
vn 0 -0.258819 -0.965926
vn 0 -0.707107 -0.707107
vn 0 -0.965926 -0.258819
vn 0 -0.965926 0.258819
vn 0 -0.707107 0.707107
vn 0 -0.258819 0.965926
vn 0 0.258819 0.965926
vn 0 0.707107 0.707107
vn 0 0.965926 0.258819
vn 0 0.965926 -0.258819
vn 0 0.707107 -0.707107
vn 0 0.258819 -0.965926
vn 0 -0.258819 -0.965926
vn 0 -0.707107 -0.707107
vn 0 -0.965926 -0.258819
vn 0 -0.965926 0.258819
vn 0 -0.707107 0.707107
vn 0 -0.258819 0.965926
vn 1 0 0
vn 1 0 0
vn 1 0 0
vn 1 0 0
vn 1 0 0
vn 1 0 0
vn 1 0 0
vn 1 0 0
vn 1 0 0
vn 1 0 0
vn 1 0 0
vn 1 0 0
vn 1 0 0
vn -1 0 0
vn -1 0 0
vn -1 0 0
vn -1 0 0
vn -1 0 0
vn -1 0 0
vn -1 0 0
vn -1 0 0
vn -1 0 0
vn -1 0 0
vn -1 0 0
vn -1 0 0
vn -1 0 0
vt 0.0625 0.9375
vt 0.1875 0.9375
vt 0.3125 0.9375
vt 0.4375 0.9375
vt 0.5625 0.9375
vt 0.6875 0.9375
vt 0.8125 0.9375
f 2/1/2 10/1/10 9/1/9 1/1/1
f 3/1/3 11/1/11 10/1/10 2/1/2
f 4/1/4 12/1/12 11/1/11 3/1/3
f 5/1/5 13/1/13 12/1/12 4/1/4
f 6/1/6 14/1/14 13/1/13 5/1/5
f 7/1/7 15/1/15 14/1/14 6/1/6
f 8/1/8 16/1/16 15/1/15 7/1/7
f 1/1/1 9/1/9 16/1/16 8/1/8
f 18/1/18 26/1/26 25/1/25 17/1/17
f 19/1/19 27/1/27 26/1/26 18/1/18
f 20/1/20 28/1/28 27/1/27 19/1/19
f 21/1/21 29/1/29 28/1/28 20/1/20
f 22/1/22 30/1/30 29/1/29 21/1/21
f 23/1/23 31/1/31 30/1/30 22/1/22
f 24/1/24 32/1/32 31/1/31 23/1/23
f 17/1/17 25/1/25 32/1/32 24/1/24
f 34/1/34 42/1/42 41/1/41 33/1/33
f 35/1/35 43/1/43 42/1/42 34/1/34
f 36/1/36 44/1/44 43/1/43 35/1/35
f 37/1/37 45/1/45 44/1/44 36/1/36
f 38/1/38 46/1/46 45/1/45 37/1/37
f 39/1/39 47/1/47 46/1/46 38/1/38
f 40/1/40 48/1/48 47/1/47 39/1/39
f 33/1/33 41/1/41 48/1/48 40/1/40
f 50/5/50 62/5/62 61/5/61 49/5/49
f 51/5/51 63/5/63 62/5/62 50/5/50
f 52/5/52 64/5/64 63/5/63 51/5/51
f 53/5/53 65/5/65 64/5/64 52/5/52
f 54/5/54 66/5/66 65/5/65 53/5/53
f 55/5/55 67/5/67 66/5/66 54/5/54
f 56/5/56 68/5/68 67/5/67 55/5/55
f 57/5/57 69/5/69 68/5/68 56/5/56
f 58/5/58 70/5/70 69/5/69 57/5/57
f 59/5/59 71/5/71 70/5/70 58/5/58
f 60/5/60 72/5/72 71/5/71 59/5/59
f 49/5/49 61/5/61 72/5/72 60/5/60
f 73/5/73 75/5/75 74/5/74
f 73/5/73 76/5/76 75/5/75
f 73/5/73 77/5/77 76/5/76
f 73/5/73 78/5/78 77/5/77
f 73/5/73 79/5/79 78/5/78
f 73/5/73 80/5/80 79/5/79
f 73/5/73 81/5/81 80/5/80
f 73/5/73 82/5/82 81/5/81
f 73/5/73 83/5/83 82/5/82
f 73/5/73 84/5/84 83/5/83
f 73/5/73 85/5/85 84/5/84
f 73/5/73 74/5/74 85/5/85
f 86/5/86 87/5/87 88/5/88
f 86/5/86 88/5/88 89/5/89
f 86/5/86 89/5/89 90/5/90
f 86/5/86 90/5/90 91/5/91
f 86/5/86 91/5/91 92/5/92
f 86/5/86 92/5/92 93/5/93
f 86/5/86 93/5/93 94/5/94
f 86/5/86 94/5/94 95/5/95
f 86/5/86 95/5/95 96/5/96
f 86/5/86 96/5/96 97/5/97
f 86/5/86 97/5/97 98/5/98
f 86/5/86 98/5/98 87/5/87
f 100/6/100 106/6/106 105/6/105 99/6/99
f 101/6/101 107/6/107 106/6/106 100/6/100
f 102/6/102 108/6/108 107/6/107 101/6/101
f 103/6/103 109/6/109 108/6/108 102/6/102
f 104/6/104 110/6/110 109/6/109 103/6/103
f 99/6/99 105/6/105 110/6/110 104/6/104
f 111/6/111 113/6/113 112/6/112
f 111/6/111 114/6/114 113/6/113
f 111/6/111 115/6/115 114/6/114
f 111/6/111 116/6/116 115/6/115
f 111/6/111 117/6/117 116/6/116
f 111/6/111 112/6/112 117/6/117
f 118/6/118 119/6/119 120/6/120
f 118/6/118 120/6/120 121/6/121
f 118/6/118 121/6/121 122/6/122
f 118/6/118 122/6/122 123/6/123
f 118/6/118 123/6/123 124/6/124
f 118/6/118 124/6/124 119/6/119
f 126/5/126 138/5/138 137/5/137 125/5/125
f 127/5/127 139/5/139 138/5/138 126/5/126
f 128/5/128 140/5/140 139/5/139 127/5/127
f 129/5/129 141/5/141 140/5/140 128/5/128
f 130/5/130 142/5/142 141/5/141 129/5/129
f 131/5/131 143/5/143 142/5/142 130/5/130
f 132/5/132 144/5/144 143/5/143 131/5/131
f 133/5/133 145/5/145 144/5/144 132/5/132
f 134/5/134 146/5/146 145/5/145 133/5/133
f 135/5/135 147/5/147 146/5/146 134/5/134
f 136/5/136 148/5/148 147/5/147 135/5/135
f 125/5/125 137/5/137 148/5/148 136/5/136
f 149/5/149 151/5/151 150/5/150
f 149/5/149 152/5/152 151/5/151
f 149/5/149 153/5/153 152/5/152
f 149/5/149 154/5/154 153/5/153
f 149/5/149 155/5/155 154/5/154
f 149/5/149 156/5/156 155/5/155
f 149/5/149 157/5/157 156/5/156
f 149/5/149 158/5/158 157/5/157
f 149/5/149 159/5/159 158/5/158
f 149/5/149 160/5/160 159/5/159
f 149/5/149 161/5/161 160/5/160
f 149/5/149 150/5/150 161/5/161
f 162/5/162 163/5/163 164/5/164
f 162/5/162 164/5/164 165/5/165
f 162/5/162 165/5/165 166/5/166
f 162/5/162 166/5/166 167/5/167
f 162/5/162 167/5/167 168/5/168
f 162/5/162 168/5/168 169/5/169
f 162/5/162 169/5/169 170/5/170
f 162/5/162 170/5/170 171/5/171
f 162/5/162 171/5/171 172/5/172
f 162/5/162 172/5/172 173/5/173
f 162/5/162 173/5/173 174/5/174
f 162/5/162 174/5/174 163/5/163
