# AFL Power Cable V2 piece half_plug_north, generated by tools/build-power-cable-v2.mjs
mtllib power_cable.mtl
o half_plug_north
usemtl cable
v 0.549081 0.581674 0.5
v 0.52033 0.610425 0.5
v 0.47967 0.610425 0.5
v 0.450919 0.581674 0.5
v 0.450919 0.541013 0.5
v 0.47967 0.512262 0.5
v 0.52033 0.512262 0.5
v 0.549081 0.541013 0.5
v 0.549081 0.581674 0.19375
v 0.52033 0.610425 0.19375
v 0.47967 0.610425 0.19375
v 0.450919 0.581674 0.19375
v 0.450919 0.541013 0.19375
v 0.47967 0.512262 0.19375
v 0.52033 0.512262 0.19375
v 0.549081 0.541013 0.19375
v 0.495956 0.489658 0.5
v 0.467205 0.518409 0.5
v 0.426545 0.518409 0.5
v 0.397794 0.489658 0.5
v 0.397794 0.448998 0.5
v 0.426545 0.420247 0.5
v 0.467205 0.420247 0.5
v 0.495956 0.448998 0.5
v 0.495956 0.489658 0.19375
v 0.467205 0.518409 0.19375
v 0.426545 0.518409 0.19375
v 0.397794 0.489658 0.19375
v 0.397794 0.448998 0.19375
v 0.426545 0.420247 0.19375
v 0.467205 0.420247 0.19375
v 0.495956 0.448998 0.19375
v 0.602206 0.489658 0.5
v 0.573455 0.518409 0.5
v 0.532795 0.518409 0.5
v 0.504044 0.489658 0.5
v 0.504044 0.448998 0.5
v 0.532795 0.420247 0.5
v 0.573455 0.420247 0.5
v 0.602206 0.448998 0.5
v 0.602206 0.489658 0.19375
v 0.573455 0.518409 0.19375
v 0.532795 0.518409 0.19375
v 0.504044 0.489658 0.19375
v 0.504044 0.448998 0.19375
v 0.532795 0.420247 0.19375
v 0.573455 0.420247 0.19375
v 0.602206 0.448998 0.19375
v 0.629796 0.534779 0.2125
v 0.595017 0.595017 0.2125
v 0.534779 0.629796 0.2125
v 0.465221 0.629796 0.2125
v 0.404983 0.595017 0.2125
v 0.370204 0.534779 0.2125
v 0.370204 0.465221 0.2125
v 0.404983 0.404983 0.2125
v 0.465221 0.370204 0.2125
v 0.534779 0.370204 0.2125
v 0.595017 0.404983 0.2125
v 0.629796 0.465221 0.2125
v 0.629796 0.534779 0.0875
v 0.595017 0.595017 0.0875
v 0.534779 0.629796 0.0875
v 0.465221 0.629796 0.0875
v 0.404983 0.595017 0.0875
v 0.370204 0.534779 0.0875
v 0.370204 0.465221 0.0875
v 0.404983 0.404983 0.0875
v 0.465221 0.370204 0.0875
v 0.534779 0.370204 0.0875
v 0.595017 0.404983 0.0875
v 0.629796 0.465221 0.0875
v 0.5 0.5 0.2125
v 0.629796 0.534779 0.2125
v 0.595017 0.595017 0.2125
v 0.534779 0.629796 0.2125
v 0.465221 0.629796 0.2125
v 0.404983 0.595017 0.2125
v 0.370204 0.534779 0.2125
v 0.370204 0.465221 0.2125
v 0.404983 0.404983 0.2125
v 0.465221 0.370204 0.2125
v 0.534779 0.370204 0.2125
v 0.595017 0.404983 0.2125
v 0.629796 0.465221 0.2125
v 0.5 0.5 0.0875
v 0.629796 0.534779 0.0875
v 0.595017 0.595017 0.0875
v 0.534779 0.629796 0.0875
v 0.465221 0.629796 0.0875
v 0.404983 0.595017 0.0875
v 0.370204 0.534779 0.0875
v 0.370204 0.465221 0.0875
v 0.404983 0.404983 0.0875
v 0.465221 0.370204 0.0875
v 0.534779 0.370204 0.0875
v 0.595017 0.404983 0.0875
v 0.629796 0.465221 0.0875
v 0.635316 0.578125 0.153125
v 0.5 0.65625 0.153125
v 0.364684 0.578125 0.153125
v 0.364684 0.421875 0.153125
v 0.5 0.34375 0.153125
v 0.635316 0.421875 0.153125
v 0.635316 0.578125 0.096875
v 0.5 0.65625 0.096875
v 0.364684 0.578125 0.096875
v 0.364684 0.421875 0.096875
v 0.5 0.34375 0.096875
v 0.635316 0.421875 0.096875
v 0.5 0.5 0.153125
v 0.635316 0.578125 0.153125
v 0.5 0.65625 0.153125
v 0.364684 0.578125 0.153125
v 0.364684 0.421875 0.153125
v 0.5 0.34375 0.153125
v 0.635316 0.421875 0.153125
v 0.5 0.5 0.096875
v 0.635316 0.578125 0.096875
v 0.5 0.65625 0.096875
v 0.364684 0.578125 0.096875
v 0.364684 0.421875 0.096875
v 0.5 0.34375 0.096875
v 0.635316 0.421875 0.096875
v 0.614704 0.530735 0.09375
v 0.583969 0.583969 0.09375
v 0.530735 0.614704 0.09375
v 0.469265 0.614704 0.09375
v 0.416031 0.583969 0.09375
v 0.385296 0.530735 0.09375
v 0.385296 0.469265 0.09375
v 0.416031 0.416031 0.09375
v 0.469265 0.385296 0.09375
v 0.530735 0.385296 0.09375
v 0.583969 0.416031 0.09375
v 0.614704 0.469265 0.09375
v 0.614704 0.530735 0
v 0.583969 0.583969 0
v 0.530735 0.614704 0
v 0.469265 0.614704 0
v 0.416031 0.583969 0
v 0.385296 0.530735 0
v 0.385296 0.469265 0
v 0.416031 0.416031 0
v 0.469265 0.385296 0
v 0.530735 0.385296 0
v 0.583969 0.416031 0
v 0.614704 0.469265 0
v 0.5 0.5 0.09375
v 0.614704 0.530735 0.09375
v 0.583969 0.583969 0.09375
v 0.530735 0.614704 0.09375
v 0.469265 0.614704 0.09375
v 0.416031 0.583969 0.09375
v 0.385296 0.530735 0.09375
v 0.385296 0.469265 0.09375
v 0.416031 0.416031 0.09375
v 0.469265 0.385296 0.09375
v 0.530735 0.385296 0.09375
v 0.583969 0.416031 0.09375
v 0.614704 0.469265 0.09375
v 0.5 0.5 0
v 0.614704 0.530735 0
v 0.583969 0.583969 0
v 0.530735 0.614704 0
v 0.469265 0.614704 0
v 0.416031 0.583969 0
v 0.385296 0.530735 0
v 0.385296 0.469265 0
v 0.416031 0.416031 0
v 0.469265 0.385296 0
v 0.530735 0.385296 0
v 0.583969 0.416031 0
v 0.614704 0.469265 0
vn 0.92388 0.382683 0
vn 0.382683 0.92388 0
vn -0.382683 0.92388 0
vn -0.92388 0.382683 0
vn -0.92388 -0.382683 0
vn -0.382683 -0.92388 0
vn 0.382683 -0.92388 0
vn 0.92388 -0.382683 0
vn 0.92388 0.382683 0
vn 0.382683 0.92388 0
vn -0.382683 0.92388 0
vn -0.92388 0.382683 0
vn -0.92388 -0.382683 0
vn -0.382683 -0.92388 0
vn 0.382683 -0.92388 0
vn 0.92388 -0.382683 0
vn 0.92388 0.382683 0
vn 0.382683 0.92388 0
vn -0.382683 0.92388 0
vn -0.92388 0.382683 0
vn -0.92388 -0.382683 0
vn -0.382683 -0.92388 0
vn 0.382683 -0.92388 0
vn 0.92388 -0.382683 0
vn 0.92388 0.382683 0
vn 0.382683 0.92388 0
vn -0.382683 0.92388 0
vn -0.92388 0.382683 0
vn -0.92388 -0.382683 0
vn -0.382683 -0.92388 0
vn 0.382683 -0.92388 0
vn 0.92388 -0.382683 0
vn 0.92388 0.382683 0
vn 0.382683 0.92388 0
vn -0.382683 0.92388 0
vn -0.92388 0.382683 0
vn -0.92388 -0.382683 0
vn -0.382683 -0.92388 0
vn 0.382683 -0.92388 0
vn 0.92388 -0.382683 0
vn 0.92388 0.382683 0
vn 0.382683 0.92388 0
vn -0.382683 0.92388 0
vn -0.92388 0.382683 0
vn -0.92388 -0.382683 0
vn -0.382683 -0.92388 0
vn 0.382683 -0.92388 0
vn 0.92388 -0.382683 0
vn 0.965926 0.258819 0
vn 0.707107 0.707107 0
vn 0.258819 0.965926 0
vn -0.258819 0.965926 0
vn -0.707107 0.707107 0
vn -0.965926 0.258819 0
vn -0.965926 -0.258819 0
vn -0.707107 -0.707107 0
vn -0.258819 -0.965926 0
vn 0.258819 -0.965926 0
vn 0.707107 -0.707107 0
vn 0.965926 -0.258819 0
vn 0.965926 0.258819 0
vn 0.707107 0.707107 0
vn 0.258819 0.965926 0
vn -0.258819 0.965926 0
vn -0.707107 0.707107 0
vn -0.965926 0.258819 0
vn -0.965926 -0.258819 0
vn -0.707107 -0.707107 0
vn -0.258819 -0.965926 0
vn 0.258819 -0.965926 0
vn 0.707107 -0.707107 0
vn 0.965926 -0.258819 0
vn 0 0 1
vn 0 0 1
vn 0 0 1
vn 0 0 1
vn 0 0 1
vn 0 0 1
vn 0 0 1
vn 0 0 1
vn 0 0 1
vn 0 0 1
vn 0 0 1
vn 0 0 1
vn 0 0 1
vn 0 0 -1
vn 0 0 -1
vn 0 0 -1
vn 0 0 -1
vn 0 0 -1
vn 0 0 -1
vn 0 0 -1
vn 0 0 -1
vn 0 0 -1
vn 0 0 -1
vn 0 0 -1
vn 0 0 -1
vn 0 0 -1
vn 0.866025 0.5 0
vn 0 1 0
vn -0.866025 0.5 0
vn -0.866025 -0.5 0
vn 0 -1 0
vn 0.866025 -0.5 0
vn 0.866025 0.5 0
vn 0 1 0
vn -0.866025 0.5 0
vn -0.866025 -0.5 0
vn 0 -1 0
vn 0.866025 -0.5 0
vn 0 0 1
vn 0 0 1
vn 0 0 1
vn 0 0 1
vn 0 0 1
vn 0 0 1
vn 0 0 1
vn 0 0 -1
vn 0 0 -1
vn 0 0 -1
vn 0 0 -1
vn 0 0 -1
vn 0 0 -1
vn 0 0 -1
vn 0.965926 0.258819 0
vn 0.707107 0.707107 0
vn 0.258819 0.965926 0
vn -0.258819 0.965926 0
vn -0.707107 0.707107 0
vn -0.965926 0.258819 0
vn -0.965926 -0.258819 0
vn -0.707107 -0.707107 0
vn -0.258819 -0.965926 0
vn 0.258819 -0.965926 0
vn 0.707107 -0.707107 0
vn 0.965926 -0.258819 0
vn 0.965926 0.258819 0
vn 0.707107 0.707107 0
vn 0.258819 0.965926 0
vn -0.258819 0.965926 0
vn -0.707107 0.707107 0
vn -0.965926 0.258819 0
vn -0.965926 -0.258819 0
vn -0.707107 -0.707107 0
vn -0.258819 -0.965926 0
vn 0.258819 -0.965926 0
vn 0.707107 -0.707107 0
vn 0.965926 -0.258819 0
vn 0 0 1
vn 0 0 1
vn 0 0 1
vn 0 0 1
vn 0 0 1
vn 0 0 1
vn 0 0 1
vn 0 0 1
vn 0 0 1
vn 0 0 1
vn 0 0 1
vn 0 0 1
vn 0 0 1
vn 0 0 -1
vn 0 0 -1
vn 0 0 -1
vn 0 0 -1
vn 0 0 -1
vn 0 0 -1
vn 0 0 -1
vn 0 0 -1
vn 0 0 -1
vn 0 0 -1
vn 0 0 -1
vn 0 0 -1
vn 0 0 -1
vt 0.0625 0.9375
vt 0.1875 0.9375
vt 0.3125 0.9375
vt 0.4375 0.9375
vt 0.5625 0.9375
vt 0.6875 0.9375
vt 0.8125 0.9375
f 1/1/1 9/1/9 10/1/10 2/1/2
f 2/1/2 10/1/10 11/1/11 3/1/3
f 3/1/3 11/1/11 12/1/12 4/1/4
f 4/1/4 12/1/12 13/1/13 5/1/5
f 5/1/5 13/1/13 14/1/14 6/1/6
f 6/1/6 14/1/14 15/1/15 7/1/7
f 7/1/7 15/1/15 16/1/16 8/1/8
f 8/1/8 16/1/16 9/1/9 1/1/1
f 17/1/17 25/1/25 26/1/26 18/1/18
f 18/1/18 26/1/26 27/1/27 19/1/19
f 19/1/19 27/1/27 28/1/28 20/1/20
f 20/1/20 28/1/28 29/1/29 21/1/21
f 21/1/21 29/1/29 30/1/30 22/1/22
f 22/1/22 30/1/30 31/1/31 23/1/23
f 23/1/23 31/1/31 32/1/32 24/1/24
f 24/1/24 32/1/32 25/1/25 17/1/17
f 33/1/33 41/1/41 42/1/42 34/1/34
f 34/1/34 42/1/42 43/1/43 35/1/35
f 35/1/35 43/1/43 44/1/44 36/1/36
f 36/1/36 44/1/44 45/1/45 37/1/37
f 37/1/37 45/1/45 46/1/46 38/1/38
f 38/1/38 46/1/46 47/1/47 39/1/39
f 39/1/39 47/1/47 48/1/48 40/1/40
f 40/1/40 48/1/48 41/1/41 33/1/33
f 49/5/49 61/5/61 62/5/62 50/5/50
f 50/5/50 62/5/62 63/5/63 51/5/51
f 51/5/51 63/5/63 64/5/64 52/5/52
f 52/5/52 64/5/64 65/5/65 53/5/53
f 53/5/53 65/5/65 66/5/66 54/5/54
f 54/5/54 66/5/66 67/5/67 55/5/55
f 55/5/55 67/5/67 68/5/68 56/5/56
f 56/5/56 68/5/68 69/5/69 57/5/57
f 57/5/57 69/5/69 70/5/70 58/5/58
f 58/5/58 70/5/70 71/5/71 59/5/59
f 59/5/59 71/5/71 72/5/72 60/5/60
f 60/5/60 72/5/72 61/5/61 49/5/49
f 74/5/74 75/5/75 73/5/73
f 75/5/75 76/5/76 73/5/73
f 76/5/76 77/5/77 73/5/73
f 77/5/77 78/5/78 73/5/73
f 78/5/78 79/5/79 73/5/73
f 79/5/79 80/5/80 73/5/73
f 80/5/80 81/5/81 73/5/73
f 81/5/81 82/5/82 73/5/73
f 82/5/82 83/5/83 73/5/73
f 83/5/83 84/5/84 73/5/73
f 84/5/84 85/5/85 73/5/73
f 85/5/85 74/5/74 73/5/73
f 88/5/88 87/5/87 86/5/86
f 89/5/89 88/5/88 86/5/86
f 90/5/90 89/5/89 86/5/86
f 91/5/91 90/5/90 86/5/86
f 92/5/92 91/5/91 86/5/86
f 93/5/93 92/5/92 86/5/86
f 94/5/94 93/5/93 86/5/86
f 95/5/95 94/5/94 86/5/86
f 96/5/96 95/5/95 86/5/86
f 97/5/97 96/5/96 86/5/86
f 98/5/98 97/5/97 86/5/86
f 87/5/87 98/5/98 86/5/86
f 99/6/99 105/6/105 106/6/106 100/6/100
f 100/6/100 106/6/106 107/6/107 101/6/101
f 101/6/101 107/6/107 108/6/108 102/6/102
f 102/6/102 108/6/108 109/6/109 103/6/103
f 103/6/103 109/6/109 110/6/110 104/6/104
f 104/6/104 110/6/110 105/6/105 99/6/99
f 112/6/112 113/6/113 111/6/111
f 113/6/113 114/6/114 111/6/111
f 114/6/114 115/6/115 111/6/111
f 115/6/115 116/6/116 111/6/111
f 116/6/116 117/6/117 111/6/111
f 117/6/117 112/6/112 111/6/111
f 120/6/120 119/6/119 118/6/118
f 121/6/121 120/6/120 118/6/118
f 122/6/122 121/6/121 118/6/118
f 123/6/123 122/6/122 118/6/118
f 124/6/124 123/6/123 118/6/118
f 119/6/119 124/6/124 118/6/118
f 125/5/125 137/5/137 138/5/138 126/5/126
f 126/5/126 138/5/138 139/5/139 127/5/127
f 127/5/127 139/5/139 140/5/140 128/5/128
f 128/5/128 140/5/140 141/5/141 129/5/129
f 129/5/129 141/5/141 142/5/142 130/5/130
f 130/5/130 142/5/142 143/5/143 131/5/131
f 131/5/131 143/5/143 144/5/144 132/5/132
f 132/5/132 144/5/144 145/5/145 133/5/133
f 133/5/133 145/5/145 146/5/146 134/5/134
f 134/5/134 146/5/146 147/5/147 135/5/135
f 135/5/135 147/5/147 148/5/148 136/5/136
f 136/5/136 148/5/148 137/5/137 125/5/125
f 150/5/150 151/5/151 149/5/149
f 151/5/151 152/5/152 149/5/149
f 152/5/152 153/5/153 149/5/149
f 153/5/153 154/5/154 149/5/149
f 154/5/154 155/5/155 149/5/149
f 155/5/155 156/5/156 149/5/149
f 156/5/156 157/5/157 149/5/149
f 157/5/157 158/5/158 149/5/149
f 158/5/158 159/5/159 149/5/149
f 159/5/159 160/5/160 149/5/149
f 160/5/160 161/5/161 149/5/149
f 161/5/161 150/5/150 149/5/149
f 164/5/164 163/5/163 162/5/162
f 165/5/165 164/5/164 162/5/162
f 166/5/166 165/5/165 162/5/162
f 167/5/167 166/5/166 162/5/162
f 168/5/168 167/5/167 162/5/162
f 169/5/169 168/5/168 162/5/162
f 170/5/170 169/5/169 162/5/162
f 171/5/171 170/5/170 162/5/162
f 172/5/172 171/5/171 162/5/162
f 173/5/173 172/5/172 162/5/162
f 174/5/174 173/5/173 162/5/162
f 163/5/163 174/5/174 162/5/162
