# AFL Power Cable V2 piece half_cable_south, generated by tools/build-power-cable-v2.mjs
mtllib power_cable.mtl
o half_cable_south
usemtl cable
v 0.549081 0.581674 0.5
v 0.52033 0.610425 0.5
v 0.47967 0.610425 0.5
v 0.450919 0.581674 0.5
v 0.450919 0.541013 0.5
v 0.47967 0.512262 0.5
v 0.52033 0.512262 0.5
v 0.549081 0.541013 0.5
v 0.549081 0.581674 1
v 0.52033 0.610425 1
v 0.47967 0.610425 1
v 0.450919 0.581674 1
v 0.450919 0.541013 1
v 0.47967 0.512262 1
v 0.52033 0.512262 1
v 0.549081 0.541013 1
v 0.495956 0.489658 0.5
v 0.467205 0.518409 0.5
v 0.426545 0.518409 0.5
v 0.397794 0.489658 0.5
v 0.397794 0.448998 0.5
v 0.426545 0.420247 0.5
v 0.467205 0.420247 0.5
v 0.495956 0.448998 0.5
v 0.495956 0.489658 1
v 0.467205 0.518409 1
v 0.426545 0.518409 1
v 0.397794 0.489658 1
v 0.397794 0.448998 1
v 0.426545 0.420247 1
v 0.467205 0.420247 1
v 0.495956 0.448998 1
v 0.602206 0.489658 0.5
v 0.573455 0.518409 0.5
v 0.532795 0.518409 0.5
v 0.504044 0.489658 0.5
v 0.504044 0.448998 0.5
v 0.532795 0.420247 0.5
v 0.573455 0.420247 0.5
v 0.602206 0.448998 0.5
v 0.602206 0.489658 1
v 0.573455 0.518409 1
v 0.532795 0.518409 1
v 0.504044 0.489658 1
v 0.504044 0.448998 1
v 0.532795 0.420247 1
v 0.573455 0.420247 1
v 0.602206 0.448998 1
vn 0.92388 0.382683 0
vn 0.382683 0.92388 0
vn -0.382683 0.92388 0
vn -0.92388 0.382683 0
vn -0.92388 -0.382683 0
vn -0.382683 -0.92388 0
vn 0.382683 -0.92388 0
vn 0.92388 -0.382683 0
vn 0.92388 0.382683 0
vn 0.382683 0.92388 0
vn -0.382683 0.92388 0
vn -0.92388 0.382683 0
vn -0.92388 -0.382683 0
vn -0.382683 -0.92388 0
vn 0.382683 -0.92388 0
vn 0.92388 -0.382683 0
vn 0.92388 0.382683 0
vn 0.382683 0.92388 0
vn -0.382683 0.92388 0
vn -0.92388 0.382683 0
vn -0.92388 -0.382683 0
vn -0.382683 -0.92388 0
vn 0.382683 -0.92388 0
vn 0.92388 -0.382683 0
vn 0.92388 0.382683 0
vn 0.382683 0.92388 0
vn -0.382683 0.92388 0
vn -0.92388 0.382683 0
vn -0.92388 -0.382683 0
vn -0.382683 -0.92388 0
vn 0.382683 -0.92388 0
vn 0.92388 -0.382683 0
vn 0.92388 0.382683 0
vn 0.382683 0.92388 0
vn -0.382683 0.92388 0
vn -0.92388 0.382683 0
vn -0.92388 -0.382683 0
vn -0.382683 -0.92388 0
vn 0.382683 -0.92388 0
vn 0.92388 -0.382683 0
vn 0.92388 0.382683 0
vn 0.382683 0.92388 0
vn -0.382683 0.92388 0
vn -0.92388 0.382683 0
vn -0.92388 -0.382683 0
vn -0.382683 -0.92388 0
vn 0.382683 -0.92388 0
vn 0.92388 -0.382683 0
vt 0.03125 0.96875
vt 0.09375 0.96875
vt 0.09375 0.90625
vt 0.03125 0.90625
vt 0.15625 0.96875
vt 0.21875 0.96875
vt 0.21875 0.90625
vt 0.15625 0.90625
vt 0.28125 0.96875
vt 0.34375 0.96875
vt 0.34375 0.90625
vt 0.28125 0.90625
vt 0.40625 0.96875
vt 0.46875 0.96875
vt 0.46875 0.90625
vt 0.40625 0.90625
vt 0.53125 0.96875
vt 0.59375 0.96875
vt 0.59375 0.90625
vt 0.53125 0.90625
vt 0.65625 0.96875
vt 0.71875 0.96875
vt 0.71875 0.90625
vt 0.65625 0.90625
vt 0.78125 0.96875
vt 0.84375 0.96875
vt 0.84375 0.90625
vt 0.78125 0.90625
f 2/1/2 10/2/10 9/3/9 1/4/1
f 3/1/3 11/2/11 10/3/10 2/4/2
f 4/1/4 12/2/12 11/3/11 3/4/3
f 5/1/5 13/2/13 12/3/12 4/4/4
f 6/1/6 14/2/14 13/3/13 5/4/5
f 7/1/7 15/2/15 14/3/14 6/4/6
f 8/1/8 16/2/16 15/3/15 7/4/7
f 1/1/1 9/2/9 16/3/16 8/4/8
f 18/1/18 26/2/26 25/3/25 17/4/17
f 19/1/19 27/2/27 26/3/26 18/4/18
f 20/1/20 28/2/28 27/3/27 19/4/19
f 21/1/21 29/2/29 28/3/28 20/4/20
f 22/1/22 30/2/30 29/3/29 21/4/21
f 23/1/23 31/2/31 30/3/30 22/4/22
f 24/1/24 32/2/32 31/3/31 23/4/23
f 17/1/17 25/2/25 32/3/32 24/4/24
f 34/1/34 42/2/42 41/3/41 33/4/33
f 35/1/35 43/2/43 42/3/42 34/4/34
f 36/1/36 44/2/44 43/3/43 35/4/35
f 37/1/37 45/2/45 44/3/44 36/4/36
f 38/1/38 46/2/46 45/3/45 37/4/37
f 39/1/39 47/2/47 46/3/46 38/4/38
f 40/1/40 48/2/48 47/3/47 39/4/39
f 33/1/33 41/2/41 48/3/48 40/4/40
