# AFL Power Cable V2 piece item, generated by tools/build-power-cable-v2.mjs
mtllib power_cable.mtl
o item
usemtl cable
v 0 0.581674 0.549081
v 0 0.610425 0.52033
v 0 0.610425 0.47967
v 0 0.581674 0.450919
v 0 0.541013 0.450919
v 0 0.512262 0.47967
v 0 0.512262 0.52033
v 0 0.541013 0.549081
v 1 0.581674 0.549081
v 1 0.610425 0.52033
v 1 0.610425 0.47967
v 1 0.581674 0.450919
v 1 0.541013 0.450919
v 1 0.512262 0.47967
v 1 0.512262 0.52033
v 1 0.541013 0.549081
v 0 0.561343 0.5
v 0 0.581674 0.549081
v 0 0.610425 0.52033
v 0 0.610425 0.47967
v 0 0.581674 0.450919
v 0 0.541013 0.450919
v 0 0.512262 0.47967
v 0 0.512262 0.52033
v 0 0.541013 0.549081
v 1 0.561343 0.5
v 1 0.581674 0.549081
v 1 0.610425 0.52033
v 1 0.610425 0.47967
v 1 0.581674 0.450919
v 1 0.541013 0.450919
v 1 0.512262 0.47967
v 1 0.512262 0.52033
v 1 0.541013 0.549081
v 0 0.489658 0.495956
v 0 0.518409 0.467205
v 0 0.518409 0.426545
v 0 0.489658 0.397794
v 0 0.448998 0.397794
v 0 0.420247 0.426545
v 0 0.420247 0.467205
v 0 0.448998 0.495956
v 1 0.489658 0.495956
v 1 0.518409 0.467205
v 1 0.518409 0.426545
v 1 0.489658 0.397794
v 1 0.448998 0.397794
v 1 0.420247 0.426545
v 1 0.420247 0.467205
v 1 0.448998 0.495956
v 0 0.469328 0.446875
v 0 0.489658 0.495956
v 0 0.518409 0.467205
v 0 0.518409 0.426545
v 0 0.489658 0.397794
v 0 0.448998 0.397794
v 0 0.420247 0.426545
v 0 0.420247 0.467205
v 0 0.448998 0.495956
v 1 0.469328 0.446875
v 1 0.489658 0.495956
v 1 0.518409 0.467205
v 1 0.518409 0.426545
v 1 0.489658 0.397794
v 1 0.448998 0.397794
v 1 0.420247 0.426545
v 1 0.420247 0.467205
v 1 0.448998 0.495956
v 0 0.489658 0.602206
v 0 0.518409 0.573455
v 0 0.518409 0.532795
v 0 0.489658 0.504044
v 0 0.448998 0.504044
v 0 0.420247 0.532795
v 0 0.420247 0.573455
v 0 0.448998 0.602206
v 1 0.489658 0.602206
v 1 0.518409 0.573455
v 1 0.518409 0.532795
v 1 0.489658 0.504044
v 1 0.448998 0.504044
v 1 0.420247 0.532795
v 1 0.420247 0.573455
v 1 0.448998 0.602206
v 0 0.469328 0.553125
v 0 0.489658 0.602206
v 0 0.518409 0.573455
v 0 0.518409 0.532795
v 0 0.489658 0.504044
v 0 0.448998 0.504044
v 0 0.420247 0.532795
v 0 0.420247 0.573455
v 0 0.448998 0.602206
v 1 0.469328 0.553125
v 1 0.489658 0.602206
v 1 0.518409 0.573455
v 1 0.518409 0.532795
v 1 0.489658 0.504044
v 1 0.448998 0.504044
v 1 0.420247 0.532795
v 1 0.420247 0.573455
v 1 0.448998 0.602206
v 0.471875 0.533161 0.623759
v 0.471875 0.590598 0.590598
v 0.471875 0.623759 0.533161
v 0.471875 0.623759 0.466839
v 0.471875 0.590598 0.409402
v 0.471875 0.533161 0.376241
v 0.471875 0.466839 0.376241
v 0.471875 0.409402 0.409402
v 0.471875 0.376241 0.466839
v 0.471875 0.376241 0.533161
v 0.471875 0.409402 0.590598
v 0.471875 0.466839 0.623759
v 0.528125 0.533161 0.623759
v 0.528125 0.590598 0.590598
v 0.528125 0.623759 0.533161
v 0.528125 0.623759 0.466839
v 0.528125 0.590598 0.409402
v 0.528125 0.533161 0.376241
v 0.528125 0.466839 0.376241
v 0.528125 0.409402 0.409402
v 0.528125 0.376241 0.466839
v 0.528125 0.376241 0.533161
v 0.528125 0.409402 0.590598
v 0.528125 0.466839 0.623759
v 0.471875 0.5 0.5
v 0.471875 0.533161 0.623759
v 0.471875 0.590598 0.590598
v 0.471875 0.623759 0.533161
v 0.471875 0.623759 0.466839
v 0.471875 0.590598 0.409402
v 0.471875 0.533161 0.376241
v 0.471875 0.466839 0.376241
v 0.471875 0.409402 0.409402
v 0.471875 0.376241 0.466839
v 0.471875 0.376241 0.533161
v 0.471875 0.409402 0.590598
v 0.471875 0.466839 0.623759
v 0.528125 0.5 0.5
v 0.528125 0.533161 0.623759
v 0.528125 0.590598 0.590598
v 0.528125 0.623759 0.533161
v 0.528125 0.623759 0.466839
v 0.528125 0.590598 0.409402
v 0.528125 0.533161 0.376241
v 0.528125 0.466839 0.376241
v 0.528125 0.409402 0.409402
v 0.528125 0.376241 0.466839
v 0.528125 0.376241 0.533161
v 0.528125 0.409402 0.590598
v 0.528125 0.466839 0.623759
vn 0 0.382683 0.92388
vn 0 0.92388 0.382683
vn 0 0.92388 -0.382683
vn 0 0.382683 -0.92388
vn 0 -0.382683 -0.92388
vn 0 -0.92388 -0.382683
vn 0 -0.92388 0.382683
vn 0 -0.382683 0.92388
vn 0 0.382683 0.92388
vn 0 0.92388 0.382683
vn 0 0.92388 -0.382683
vn 0 0.382683 -0.92388
vn 0 -0.382683 -0.92388
vn 0 -0.92388 -0.382683
vn 0 -0.92388 0.382683
vn 0 -0.382683 0.92388
vn -1 0 0
vn -1 0 0
vn -1 0 0
vn -1 0 0
vn -1 0 0
vn -1 0 0
vn -1 0 0
vn -1 0 0
vn -1 0 0
vn 1 0 0
vn 1 0 0
vn 1 0 0
vn 1 0 0
vn 1 0 0
vn 1 0 0
vn 1 0 0
vn 1 0 0
vn 1 0 0
vn 0 0.382683 0.92388
vn 0 0.92388 0.382683
vn 0 0.92388 -0.382683
vn 0 0.382683 -0.92388
vn 0 -0.382683 -0.92388
vn 0 -0.92388 -0.382683
vn 0 -0.92388 0.382683
vn 0 -0.382683 0.92388
vn 0 0.382683 0.92388
vn 0 0.92388 0.382683
vn 0 0.92388 -0.382683
vn 0 0.382683 -0.92388
vn 0 -0.382683 -0.92388
vn 0 -0.92388 -0.382683
vn 0 -0.92388 0.382683
vn 0 -0.382683 0.92388
vn -1 0 0
vn -1 0 0
vn -1 0 0
vn -1 0 0
vn -1 0 0
vn -1 0 0
vn -1 0 0
vn -1 0 0
vn -1 0 0
vn 1 0 0
vn 1 0 0
vn 1 0 0
vn 1 0 0
vn 1 0 0
vn 1 0 0
vn 1 0 0
vn 1 0 0
vn 1 0 0
vn 0 0.382683 0.92388
vn 0 0.92388 0.382683
vn 0 0.92388 -0.382683
vn 0 0.382683 -0.92388
vn 0 -0.382683 -0.92388
vn 0 -0.92388 -0.382683
vn 0 -0.92388 0.382683
vn 0 -0.382683 0.92388
vn 0 0.382683 0.92388
vn 0 0.92388 0.382683
vn 0 0.92388 -0.382683
vn 0 0.382683 -0.92388
vn 0 -0.382683 -0.92388
vn 0 -0.92388 -0.382683
vn 0 -0.92388 0.382683
vn 0 -0.382683 0.92388
vn -1 0 0
vn -1 0 0
vn -1 0 0
vn -1 0 0
vn -1 0 0
vn -1 0 0
vn -1 0 0
vn -1 0 0
vn -1 0 0
vn 1 0 0
vn 1 0 0
vn 1 0 0
vn 1 0 0
vn 1 0 0
vn 1 0 0
vn 1 0 0
vn 1 0 0
vn 1 0 0
vn 0 0.258819 0.965926
vn 0 0.707107 0.707107
vn 0 0.965926 0.258819
vn 0 0.965926 -0.258819
vn 0 0.707107 -0.707107
vn 0 0.258819 -0.965926
vn 0 -0.258819 -0.965926
vn 0 -0.707107 -0.707107
vn 0 -0.965926 -0.258819
vn 0 -0.965926 0.258819
vn 0 -0.707107 0.707107
vn 0 -0.258819 0.965926
vn 0 0.258819 0.965926
vn 0 0.707107 0.707107
vn 0 0.965926 0.258819
vn 0 0.965926 -0.258819
vn 0 0.707107 -0.707107
vn 0 0.258819 -0.965926
vn 0 -0.258819 -0.965926
vn 0 -0.707107 -0.707107
vn 0 -0.965926 -0.258819
vn 0 -0.965926 0.258819
vn 0 -0.707107 0.707107
vn 0 -0.258819 0.965926
vn -1 0 0
vn -1 0 0
vn -1 0 0
vn -1 0 0
vn -1 0 0
vn -1 0 0
vn -1 0 0
vn -1 0 0
vn -1 0 0
vn -1 0 0
vn -1 0 0
vn -1 0 0
vn -1 0 0
vn 1 0 0
vn 1 0 0
vn 1 0 0
vn 1 0 0
vn 1 0 0
vn 1 0 0
vn 1 0 0
vn 1 0 0
vn 1 0 0
vn 1 0 0
vn 1 0 0
vn 1 0 0
vn 1 0 0
vt 0.0625 0.9375
vt 0.1875 0.9375
vt 0.3125 0.9375
vt 0.4375 0.9375
vt 0.5625 0.9375
vt 0.6875 0.9375
vt 0.8125 0.9375
f 1/1/1 9/1/9 10/1/10 2/1/2
f 2/1/2 10/1/10 11/1/11 3/1/3
f 3/1/3 11/1/11 12/1/12 4/1/4
f 4/1/4 12/1/12 13/1/13 5/1/5
f 5/1/5 13/1/13 14/1/14 6/1/6
f 6/1/6 14/1/14 15/1/15 7/1/7
f 7/1/7 15/1/15 16/1/16 8/1/8
f 8/1/8 16/1/16 9/1/9 1/1/1
f 18/1/18 19/1/19 17/1/17
f 19/1/19 20/1/20 17/1/17
f 20/1/20 21/1/21 17/1/17
f 21/1/21 22/1/22 17/1/17
f 22/1/22 23/1/23 17/1/17
f 23/1/23 24/1/24 17/1/17
f 24/1/24 25/1/25 17/1/17
f 25/1/25 18/1/18 17/1/17
f 28/1/28 27/1/27 26/1/26
f 29/1/29 28/1/28 26/1/26
f 30/1/30 29/1/29 26/1/26
f 31/1/31 30/1/30 26/1/26
f 32/1/32 31/1/31 26/1/26
f 33/1/33 32/1/32 26/1/26
f 34/1/34 33/1/33 26/1/26
f 27/1/27 34/1/34 26/1/26
f 35/1/35 43/1/43 44/1/44 36/1/36
f 36/1/36 44/1/44 45/1/45 37/1/37
f 37/1/37 45/1/45 46/1/46 38/1/38
f 38/1/38 46/1/46 47/1/47 39/1/39
f 39/1/39 47/1/47 48/1/48 40/1/40
f 40/1/40 48/1/48 49/1/49 41/1/41
f 41/1/41 49/1/49 50/1/50 42/1/42
f 42/1/42 50/1/50 43/1/43 35/1/35
f 52/1/52 53/1/53 51/1/51
f 53/1/53 54/1/54 51/1/51
f 54/1/54 55/1/55 51/1/51
f 55/1/55 56/1/56 51/1/51
f 56/1/56 57/1/57 51/1/51
f 57/1/57 58/1/58 51/1/51
f 58/1/58 59/1/59 51/1/51
f 59/1/59 52/1/52 51/1/51
f 62/1/62 61/1/61 60/1/60
f 63/1/63 62/1/62 60/1/60
f 64/1/64 63/1/63 60/1/60
f 65/1/65 64/1/64 60/1/60
f 66/1/66 65/1/65 60/1/60
f 67/1/67 66/1/66 60/1/60
f 68/1/68 67/1/67 60/1/60
f 61/1/61 68/1/68 60/1/60
f 69/1/69 77/1/77 78/1/78 70/1/70
f 70/1/70 78/1/78 79/1/79 71/1/71
f 71/1/71 79/1/79 80/1/80 72/1/72
f 72/1/72 80/1/80 81/1/81 73/1/73
f 73/1/73 81/1/81 82/1/82 74/1/74
f 74/1/74 82/1/82 83/1/83 75/1/75
f 75/1/75 83/1/83 84/1/84 76/1/76
f 76/1/76 84/1/84 77/1/77 69/1/69
f 86/1/86 87/1/87 85/1/85
f 87/1/87 88/1/88 85/1/85
f 88/1/88 89/1/89 85/1/85
f 89/1/89 90/1/90 85/1/85
f 90/1/90 91/1/91 85/1/85
f 91/1/91 92/1/92 85/1/85
f 92/1/92 93/1/93 85/1/85
f 93/1/93 86/1/86 85/1/85
f 96/1/96 95/1/95 94/1/94
f 97/1/97 96/1/96 94/1/94
f 98/1/98 97/1/97 94/1/94
f 99/1/99 98/1/98 94/1/94
f 100/1/100 99/1/99 94/1/94
f 101/1/101 100/1/100 94/1/94
f 102/1/102 101/1/101 94/1/94
f 95/1/95 102/1/102 94/1/94
f 103/2/103 115/2/115 116/2/116 104/2/104
f 104/2/104 116/2/116 117/2/117 105/2/105
f 105/2/105 117/2/117 118/2/118 106/2/106
f 106/2/106 118/2/118 119/2/119 107/2/107
f 107/2/107 119/2/119 120/2/120 108/2/108
f 108/2/108 120/2/120 121/2/121 109/2/109
f 109/2/109 121/2/121 122/2/122 110/2/110
f 110/2/110 122/2/122 123/2/123 111/2/111
f 111/2/111 123/2/123 124/2/124 112/2/112
f 112/2/112 124/2/124 125/2/125 113/2/113
f 113/2/113 125/2/125 126/2/126 114/2/114
f 114/2/114 126/2/126 115/2/115 103/2/103
f 128/2/128 129/2/129 127/2/127
f 129/2/129 130/2/130 127/2/127
f 130/2/130 131/2/131 127/2/127
f 131/2/131 132/2/132 127/2/127
f 132/2/132 133/2/133 127/2/127
f 133/2/133 134/2/134 127/2/127
f 134/2/134 135/2/135 127/2/127
f 135/2/135 136/2/136 127/2/127
f 136/2/136 137/2/137 127/2/127
f 137/2/137 138/2/138 127/2/127
f 138/2/138 139/2/139 127/2/127
f 139/2/139 128/2/128 127/2/127
f 142/2/142 141/2/141 140/2/140
f 143/2/143 142/2/142 140/2/140
f 144/2/144 143/2/143 140/2/140
f 145/2/145 144/2/144 140/2/140
f 146/2/146 145/2/145 140/2/140
f 147/2/147 146/2/146 140/2/140
f 148/2/148 147/2/147 140/2/140
f 149/2/149 148/2/148 140/2/140
f 150/2/150 149/2/149 140/2/140
f 151/2/151 150/2/150 140/2/140
f 152/2/152 151/2/151 140/2/140
f 141/2/141 152/2/152 140/2/140
