# AFL Fluid Tank V2 deck_top, generated by tools/build-fluid-tank-v2.mjs
mtllib deck_top.mtl
o deck_top__deck_top_plate
usemtl fluid_tank
v 0 0.9625 1
v 1 0.9625 1
v 1 0.9625 0
v 0 0.9625 0
v 0 1 1
v 1 1 1
v 1 1 0
v 0 1 0
v 0.25 0.9625 0.25
v 0.75 0.9625 0.25
v 0.75 0.9625 0.75
v 0.25 0.9625 0.75
v 0.25 1 0.25
v 0.75 1 0.25
v 0.75 1 0.75
v 0.25 1 0.75
v 0 0.9625 1
v 1 0.9625 1
v 1 0.9625 0
v 0 0.9625 0
v 0.25 0.9625 0.25
v 0.75 0.9625 0.25
v 0.75 0.9625 0.75
v 0.25 0.9625 0.75
v 0 1 1
v 1 1 1
v 1 1 0
v 0 1 0
v 0.25 1 0.25
v 0.75 1 0.25
v 0.75 1 0.75
v 0.25 1 0.75
vt 0.197754 0.111865
vt 0.404785 0.111865
vt 0.404785 0.119629
vt 0.197754 0.119629
vt 0.614746 0.119629
vt 0.407715 0.119629
vt 0.407715 0.111865
vt 0.614746 0.111865
vt 0.617676 0.111865
vt 0.824707 0.111865
vt 0.824707 0.119629
vt 0.617676 0.119629
vt 0.002441 0.100146
vt 0.209473 0.100146
vt 0.209473 0.10791
vt 0.002441 0.10791
vt 0.002441 0.057178
vt 0.105957 0.057178
vt 0.105957 0.064941
vt 0.002441 0.064941
vt 0.108887 0.057178
vt 0.212402 0.057178
vt 0.212402 0.064941
vt 0.108887 0.064941
vt 0.215332 0.057178
vt 0.318848 0.057178
vt 0.318848 0.064941
vt 0.215332 0.064941
vt 0.425293 0.064941
vt 0.321777 0.064941
vt 0.321777 0.057178
vt 0.425293 0.057178
vt 0.157715 0.842285
vt 0.209473 0.790527
vt 0.209473 0.997559
vt 0.157715 0.945801
vt 0.157715 0.842285
vt 0.209473 0.997559
vt 0.157715 0.945801
vt 0.209473 0.997559
vt 0.002441 0.997559
vt 0.054199 0.945801
vt 0.157715 0.945801
vt 0.002441 0.997559
vt 0.054199 0.842285
vt 0.054199 0.945801
vt 0.002441 0.997559
vt 0.209473 0.790527
vt 0.157715 0.842285
vt 0.054199 0.842285
vt 0.002441 0.790527
vt 0.209473 0.790527
vt 0.054199 0.842285
vt 0.002441 0.997559
vt 0.002441 0.790527
vt 0.054199 0.842285
vt 0.419434 0.790527
vt 0.419434 0.997559
vt 0.367676 0.945801
vt 0.419434 0.790527
vt 0.367676 0.945801
vt 0.367676 0.842285
vt 0.212402 0.790527
vt 0.419434 0.790527
vt 0.367676 0.842285
vt 0.212402 0.790527
vt 0.367676 0.842285
vt 0.26416 0.842285
vt 0.212402 0.790527
vt 0.26416 0.842285
vt 0.26416 0.945801
vt 0.26416 0.945801
vt 0.367676 0.945801
vt 0.419434 0.997559
vt 0.26416 0.945801
vt 0.419434 0.997559
vt 0.212402 0.997559
vt 0.26416 0.945801
vt 0.212402 0.997559
vt 0.212402 0.790527
vn 0 0 1
vn 1 0 0
vn 0 0 -1
vn -1 0 0
vn 0 -1 0
vn 0 1 0
f 1/1/1 2/2/1 6/3/1 5/4/1
f 2/5/2 3/6/2 7/7/2 6/8/2
f 3/9/3 4/10/3 8/11/3 7/12/3
f 4/13/4 1/14/4 5/15/4 8/16/4
f 9/17/1 10/18/1 14/19/1 13/20/1
f 10/21/4 11/22/4 15/23/4 14/24/4
f 11/25/3 12/26/3 16/27/3 15/28/3
f 12/29/2 9/30/2 13/31/2 16/32/2
f 23/33/5 18/34/5 17/35/5
f 24/36/5 23/37/5 17/38/5
f 24/39/5 17/40/5 20/41/5
f 21/42/5 24/43/5 20/44/5
f 22/45/5 21/46/5 20/47/5
f 18/48/5 23/49/5 22/50/5
f 19/51/5 18/52/5 22/53/5
f 20/54/5 19/55/5 22/56/5
f 25/57/6 26/58/6 31/59/6
f 25/60/6 31/61/6 32/62/6
f 28/63/6 25/64/6 32/65/6
f 28/66/6 32/67/6 29/68/6
f 28/69/6 29/70/6 30/71/6
f 30/72/6 31/73/6 26/74/6
f 30/75/6 26/76/6 27/77/6
f 30/78/6 27/79/6 28/80/6
o deck_top__deck_top_throat
usemtl fluid_tank
v 0.25 0.93125 0.75
v 0.75 0.93125 0.75
v 0.75 0.93125 0.25
v 0.25 0.93125 0.25
v 0.25 0.96375 0.75
v 0.75 0.96375 0.75
v 0.75 0.96375 0.25
v 0.25 0.96375 0.25
v 0.25 0.93125 0.75
v 0.75 0.93125 0.75
v 0.75 0.93125 0.25
v 0.25 0.93125 0.25
v 0.25 0.96375 0.75
v 0.75 0.96375 0.75
v 0.75 0.96375 0.25
v 0.25 0.96375 0.25
vt 0.20166 0.025986
vt 0.305176 0.025986
vt 0.305176 0.032715
vt 0.20166 0.032715
vt 0.411621 0.032715
vt 0.308105 0.032715
vt 0.308105 0.025986
vt 0.411621 0.025986
vt 0.414551 0.025986
vt 0.518066 0.025986
vt 0.518066 0.032715
vt 0.414551 0.032715
vt 0.520996 0.025986
vt 0.624512 0.025986
vt 0.624512 0.032715
vt 0.520996 0.032715
vt 0.691895 0.518066
vt 0.691895 0.621582
vt 0.588379 0.621582
vt 0.588379 0.621582
vt 0.588379 0.518066
vt 0.691895 0.518066
vt 0.694824 0.518066
vt 0.79834 0.518066
vt 0.79834 0.621582
vt 0.79834 0.621582
vt 0.694824 0.621582
vt 0.694824 0.518066
vn 0 0 1
vn 1 0 0
vn 0 0 -1
vn -1 0 0
vn 0 -1 0
vn 0 1 0
f 33/81/7 34/82/7 38/83/7 37/84/7
f 34/85/8 35/86/8 39/87/8 38/88/8
f 35/89/9 36/90/9 40/91/9 39/92/9
f 36/93/10 33/94/10 37/95/10 40/96/10
f 42/97/11 41/98/11 44/99/11
f 44/100/11 43/101/11 42/102/11
f 48/103/12 45/104/12 46/105/12
f 46/106/12 47/107/12 48/108/12
o deck_top__deck_top_studs
usemtl fluid_tank
v 0.232108 1 0.19625
v 0.209375 1 0.183125
v 0.186642 1 0.19625
v 0.186642 1 0.2225
v 0.209375 1 0.235625
v 0.232108 1 0.2225
v 0.232108 1.02 0.19625
v 0.209375 1.02 0.183125
v 0.186642 1.02 0.19625
v 0.186642 1.02 0.2225
v 0.209375 1.02 0.235625
v 0.232108 1.02 0.2225
v 0.232108 1 0.19625
v 0.209375 1 0.183125
v 0.186642 1 0.19625
v 0.186642 1 0.2225
v 0.209375 1 0.235625
v 0.232108 1 0.2225
v 0.232108 1.02 0.19625
v 0.209375 1.02 0.183125
v 0.186642 1.02 0.19625
v 0.186642 1.02 0.2225
v 0.209375 1.02 0.235625
v 0.232108 1.02 0.2225
v 0.232108 1 0.7775
v 0.209375 1 0.764375
v 0.186642 1 0.7775
v 0.186642 1 0.80375
v 0.209375 1 0.816875
v 0.232108 1 0.80375
v 0.232108 1.02 0.7775
v 0.209375 1.02 0.764375
v 0.186642 1.02 0.7775
v 0.186642 1.02 0.80375
v 0.209375 1.02 0.816875
v 0.232108 1.02 0.80375
v 0.232108 1 0.7775
v 0.209375 1 0.764375
v 0.186642 1 0.7775
v 0.186642 1 0.80375
v 0.209375 1 0.816875
v 0.232108 1 0.80375
v 0.232108 1.02 0.7775
v 0.209375 1.02 0.764375
v 0.186642 1.02 0.7775
v 0.186642 1.02 0.80375
v 0.209375 1.02 0.816875
v 0.232108 1.02 0.80375
v 0.813358 1 0.19625
v 0.790625 1 0.183125
v 0.767892 1 0.19625
v 0.767892 1 0.2225
v 0.790625 1 0.235625
v 0.813358 1 0.2225
v 0.813358 1.02 0.19625
v 0.790625 1.02 0.183125
v 0.767892 1.02 0.19625
v 0.767892 1.02 0.2225
v 0.790625 1.02 0.235625
v 0.813358 1.02 0.2225
v 0.813358 1 0.19625
v 0.790625 1 0.183125
v 0.767892 1 0.19625
v 0.767892 1 0.2225
v 0.790625 1 0.235625
v 0.813358 1 0.2225
v 0.813358 1.02 0.19625
v 0.790625 1.02 0.183125
v 0.767892 1.02 0.19625
v 0.767892 1.02 0.2225
v 0.790625 1.02 0.235625
v 0.813358 1.02 0.2225
v 0.813358 1 0.7775
v 0.790625 1 0.764375
v 0.767892 1 0.7775
v 0.767892 1 0.80375
v 0.790625 1 0.816875
v 0.813358 1 0.80375
v 0.813358 1.02 0.7775
v 0.790625 1.02 0.764375
v 0.767892 1.02 0.7775
v 0.767892 1.02 0.80375
v 0.790625 1.02 0.816875
v 0.813358 1.02 0.80375
v 0.813358 1 0.7775
v 0.790625 1 0.764375
v 0.767892 1 0.7775
v 0.767892 1 0.80375
v 0.790625 1 0.816875
v 0.813358 1 0.80375
v 0.813358 1.02 0.7775
v 0.790625 1.02 0.764375
v 0.767892 1.02 0.7775
v 0.767892 1.02 0.80375
v 0.790625 1.02 0.816875
v 0.813358 1.02 0.80375
vt 0.114321 0.021973
vt 0.108887 0.021973
vt 0.108887 0.017832
vt 0.114321 0.017832
vt 0.390137 0.017832
vt 0.395571 0.017832
vt 0.395571 0.021973
vt 0.390137 0.021973
vt 0.117676 0.017832
vt 0.12311 0.017832
vt 0.12311 0.021973
vt 0.117676 0.021973
vt 0.460449 0.017832
vt 0.465884 0.017832
vt 0.465884 0.021973
vt 0.460449 0.021973
vt 0.131899 0.021973
vt 0.126465 0.021973
vt 0.126465 0.017832
vt 0.131899 0.017832
vt 0.140688 0.021973
vt 0.135254 0.021973
vt 0.135254 0.017832
vt 0.140688 0.017832
vt 0.979004 0.293633
vt 0.981721 0.288927
vt 0.987156 0.288927
vt 0.981721 0.29834
vt 0.979004 0.293633
vt 0.987156 0.288927
vt 0.987156 0.29834
vt 0.981721 0.29834
vt 0.987156 0.288927
vt 0.987156 0.288927
vt 0.989873 0.293633
vt 0.987156 0.29834
vt 0.010593 0.272949
vt 0.005159 0.272949
vt 0.002441 0.268243
vt 0.010593 0.272949
vt 0.002441 0.268243
vt 0.005159 0.263536
vt 0.010593 0.272949
vt 0.005159 0.263536
vt 0.010593 0.263536
vt 0.010593 0.263536
vt 0.013311 0.268243
vt 0.010593 0.272949
vt 0.149478 0.021973
vt 0.144043 0.021973
vt 0.144043 0.017832
vt 0.149478 0.017832
vt 0.469238 0.017832
vt 0.474673 0.017832
vt 0.474673 0.021973
vt 0.469238 0.021973
vt 0.152832 0.017832
vt 0.158267 0.017832
vt 0.158267 0.021973
vt 0.152832 0.021973
vt 0.398926 0.017832
vt 0.40436 0.017832
vt 0.40436 0.021973
vt 0.398926 0.021973
vt 0.167056 0.021973
vt 0.161621 0.021973
vt 0.161621 0.017832
vt 0.167056 0.017832
vt 0.175845 0.021973
vt 0.17041 0.021973
vt 0.17041 0.017832
vt 0.175845 0.017832
vt 0.01709 0.268243
vt 0.019807 0.263536
vt 0.025242 0.263536
vt 0.019807 0.272949
vt 0.01709 0.268243
vt 0.025242 0.263536
vt 0.025242 0.272949
vt 0.019807 0.272949
vt 0.025242 0.263536
vt 0.025242 0.263536
vt 0.027959 0.268243
vt 0.025242 0.272949
vt 0.03989 0.272949
vt 0.034456 0.272949
vt 0.031738 0.268243
vt 0.03989 0.272949
vt 0.031738 0.268243
vt 0.034456 0.263536
vt 0.03989 0.272949
vt 0.034456 0.263536
vt 0.03989 0.263536
vt 0.03989 0.263536
vt 0.042607 0.268243
vt 0.03989 0.272949
vt 0.413149 0.021973
vt 0.407715 0.021973
vt 0.407715 0.017832
vt 0.413149 0.017832
vt 0.179199 0.017832
vt 0.184634 0.017832
vt 0.184634 0.021973
vt 0.179199 0.021973
vt 0.187988 0.017832
vt 0.193423 0.017832
vt 0.193423 0.021973
vt 0.187988 0.021973
vt 0.196777 0.017832
vt 0.202212 0.017832
vt 0.202212 0.021973
vt 0.196777 0.021973
vt 0.483462 0.021973
vt 0.478027 0.021973
vt 0.478027 0.017832
vt 0.483462 0.017832
vt 0.211001 0.021973
vt 0.205566 0.021973
vt 0.205566 0.017832
vt 0.211001 0.017832
vt 0.046387 0.268243
vt 0.049104 0.263536
vt 0.054539 0.263536
vt 0.049104 0.272949
vt 0.046387 0.268243
vt 0.054539 0.263536
vt 0.054539 0.272949
vt 0.049104 0.272949
vt 0.054539 0.263536
vt 0.054539 0.263536
vt 0.057256 0.268243
vt 0.054539 0.272949
vt 0.069187 0.272949
vt 0.063752 0.272949
vt 0.061035 0.268243
vt 0.069187 0.272949
vt 0.061035 0.268243
vt 0.063752 0.263536
vt 0.069187 0.272949
vt 0.063752 0.263536
vt 0.069187 0.263536
vt 0.069187 0.263536
vt 0.071904 0.268243
vt 0.069187 0.272949
vt 0.492251 0.021973
vt 0.486816 0.021973
vt 0.486816 0.017832
vt 0.492251 0.017832
vt 0.214355 0.017832
vt 0.21979 0.017832
vt 0.21979 0.021973
vt 0.214355 0.021973
vt 0.223145 0.017832
vt 0.228579 0.017832
vt 0.228579 0.021973
vt 0.223145 0.021973
vt 0.231934 0.017832
vt 0.237368 0.017832
vt 0.237368 0.021973
vt 0.231934 0.021973
vt 0.421938 0.021973
vt 0.416504 0.021973
vt 0.416504 0.017832
vt 0.421938 0.017832
vt 0.246157 0.021973
vt 0.240723 0.021973
vt 0.240723 0.017832
vt 0.246157 0.017832
vt 0.075684 0.268243
vt 0.078401 0.263536
vt 0.083835 0.263536
vt 0.078401 0.272949
vt 0.075684 0.268243
vt 0.083835 0.263536
vt 0.083835 0.272949
vt 0.078401 0.272949
vt 0.083835 0.263536
vt 0.083835 0.263536
vt 0.086553 0.268243
vt 0.083835 0.272949
vt 0.098484 0.272949
vt 0.093049 0.272949
vt 0.090332 0.268243
vt 0.098484 0.272949
vt 0.090332 0.268243
vt 0.093049 0.263536
vt 0.098484 0.272949
vt 0.093049 0.263536
vt 0.098484 0.263536
vt 0.098484 0.263536
vt 0.101201 0.268243
vt 0.098484 0.272949
vn 0.5 0 -0.866025
vn -0.5 0 -0.866025
vn -1 0 0
vn -0.5 0 0.866025
vn 0.5 0 0.866025
vn 1 0 0
vn 0 -1 0
vn 0 1 0
f 49/109/13 50/110/13 56/111/13 55/112/13
f 50/113/14 51/114/14 57/115/14 56/116/14
f 51/117/15 52/118/15 58/119/15 57/120/15
f 52/121/16 53/122/16 59/123/16 58/124/16
f 53/125/17 54/126/17 60/127/17 59/128/17
f 54/129/18 49/130/18 55/131/18 60/132/18
f 62/133/19 61/134/19 66/135/19
f 63/136/19 62/137/19 66/138/19
f 64/139/19 63/140/19 66/141/19
f 66/142/19 65/143/19 64/144/19
f 72/145/20 67/146/20 68/147/20
f 72/148/20 68/149/20 69/150/20
f 72/151/20 69/152/20 70/153/20
f 70/154/20 71/155/20 72/156/20
f 73/157/13 74/158/13 80/159/13 79/160/13
f 74/161/14 75/162/14 81/163/14 80/164/14
f 75/165/15 76/166/15 82/167/15 81/168/15
f 76/169/16 77/170/16 83/171/16 82/172/16
f 77/173/17 78/174/17 84/175/17 83/176/17
f 78/177/18 73/178/18 79/179/18 84/180/18
f 86/181/19 85/182/19 90/183/19
f 87/184/19 86/185/19 90/186/19
f 88/187/19 87/188/19 90/189/19
f 90/190/19 89/191/19 88/192/19
f 96/193/20 91/194/20 92/195/20
f 96/196/20 92/197/20 93/198/20
f 96/199/20 93/200/20 94/201/20
f 94/202/20 95/203/20 96/204/20
f 97/205/13 98/206/13 104/207/13 103/208/13
f 98/209/14 99/210/14 105/211/14 104/212/14
f 99/213/15 100/214/15 106/215/15 105/216/15
f 100/217/16 101/218/16 107/219/16 106/220/16
f 101/221/17 102/222/17 108/223/17 107/224/17
f 102/225/18 97/226/18 103/227/18 108/228/18
f 110/229/19 109/230/19 114/231/19
f 111/232/19 110/233/19 114/234/19
f 112/235/19 111/236/19 114/237/19
f 114/238/19 113/239/19 112/240/19
f 120/241/20 115/242/20 116/243/20
f 120/244/20 116/245/20 117/246/20
f 120/247/20 117/248/20 118/249/20
f 118/250/20 119/251/20 120/252/20
f 121/253/13 122/254/13 128/255/13 127/256/13
f 122/257/14 123/258/14 129/259/14 128/260/14
f 123/261/15 124/262/15 130/263/15 129/264/15
f 124/265/16 125/266/16 131/267/16 130/268/16
f 125/269/17 126/270/17 132/271/17 131/272/17
f 126/273/18 121/274/18 127/275/18 132/276/18
f 134/277/19 133/278/19 138/279/19
f 135/280/19 134/281/19 138/282/19
f 136/283/19 135/284/19 138/285/19
f 138/286/19 137/287/19 136/288/19
f 144/289/20 139/290/20 140/291/20
f 144/292/20 140/293/20 141/294/20
f 144/295/20 141/296/20 142/297/20
f 142/298/20 143/299/20 144/300/20
