# AFL Fluid Tank V2 glass_east_south, generated by tools/build-fluid-tank-v2.mjs
mtllib glass_east_south.mtl
o glass_east_south__glass_east_south
usemtl fluid_tank
v 0.86875 0.0375 0.89375
v 0.86875 0.9625 0.89375
v 0.86875 0.9625 1
v 0.86875 0.0375 1
v 0.88125 0.0375 0.89375
v 0.88125 0.9625 0.89375
v 0.88125 0.9625 1
v 0.88125 0.0375 1
vt 0.779883 0.29834
vt 0.588379 0.29834
vt 0.588379 0.276343
vt 0.779883 0.276343
vt 0.783691 0.276343
vt 0.975195 0.276343
vt 0.975195 0.29834
vt 0.783691 0.29834
vn -1 0 0
vn 1 0 0
f 4/1/1 3/2/1 2/3/1 1/4/1
f 5/5/2 6/6/2 7/7/2 8/8/2
