# AFL Fluid Tank V2 glass_west_south, generated by tools/build-fluid-tank-v2.mjs
mtllib glass_west_south.mtl
o glass_west_south__glass_west_south
usemtl fluid_tank
v 0.11875 0.0375 0.89375
v 0.11875 0.9625 0.89375
v 0.11875 0.9625 1
v 0.11875 0.0375 1
v 0.13125 0.0375 0.89375
v 0.13125 0.9625 0.89375
v 0.13125 0.9625 1
v 0.13125 0.0375 1
vt 0.975195 0.32373
vt 0.783691 0.32373
vt 0.783691 0.301733
vt 0.975195 0.301733
vt 0.002441 0.276343
vt 0.193945 0.276343
vt 0.193945 0.29834
vt 0.002441 0.29834
vn -1 0 0
vn 1 0 0
f 4/1/1 3/2/1 2/3/1 1/4/1
f 5/5/2 6/6/2 7/7/2 8/8/2
