# AFL Fluid Tank V2 glass_south_east_up, generated by tools/build-fluid-tank-v2.mjs
mtllib glass_south_east_up.mtl
o glass_south_east_up__glass_south_east_up
usemtl fluid_tank
v 0.89375 0.9625 0.86875
v 1 0.9625 0.86875
v 1 1 0.86875
v 0.89375 1 0.86875
v 0.89375 0.9625 0.88125
v 1 0.9625 0.88125
v 1 1 0.88125
v 0.89375 1 0.88125
vt 0.151392 0.054199
vt 0.129395 0.054199
vt 0.129395 0.046436
vt 0.151392 0.046436
vt 0.154785 0.046436
vt 0.176782 0.046436
vt 0.176782 0.054199
vt 0.154785 0.054199
vn 0 0 -1
vn 0 0 1
f 4/1/1 3/2/1 2/3/1 1/4/1
f 5/5/2 6/6/2 7/7/2 8/8/2
