# AFL Fluid Tank V2 glass_west_north, generated by tools/build-fluid-tank-v2.mjs
mtllib glass_west_north.mtl
o glass_west_north__glass_west_north
usemtl fluid_tank
v 0.11875 0.0375 0
v 0.11875 0.9625 0
v 0.11875 0.9625 0.10625
v 0.11875 0.0375 0.10625
v 0.13125 0.0375 0
v 0.13125 0.9625 0
v 0.13125 0.9625 0.10625
v 0.13125 0.0375 0.10625
vt 0.58457 0.32373
vt 0.393066 0.32373
vt 0.393066 0.301733
vt 0.58457 0.301733
vt 0.588379 0.301733
vt 0.779883 0.301733
vt 0.779883 0.32373
vt 0.588379 0.32373
vn -1 0 0
vn 1 0 0
f 4/1/1 3/2/1 2/3/1 1/4/1
f 5/5/2 6/6/2 7/7/2 8/8/2
