# AFL Fluid Tank V2 glass_east_north_down, generated by tools/build-fluid-tank-v2.mjs
mtllib glass_east_north_down.mtl
o glass_east_north_down__glass_east_north_down
usemtl fluid_tank
v 0.86875 0 0
v 0.86875 0.0375 0
v 0.86875 0.0375 0.10625
v 0.86875 0 0.10625
v 0.88125 0 0
v 0.88125 0.0375 0
v 0.88125 0.0375 0.10625
v 0.88125 0 0.10625
vt 0.608423 0.046436
vt 0.608423 0.054199
vt 0.586426 0.054199
vt 0.586426 0.046436
vt 0.611816 0.054199
vt 0.611816 0.046436
vt 0.633813 0.046436
vt 0.633813 0.054199
vn -1 0 0
vn 1 0 0
f 4/1/1 3/2/1 2/3/1 1/4/1
f 5/5/2 6/6/2 7/7/2 8/8/2
