# AFL Fluid Tank V2 glass_north_west_up, generated by tools/build-fluid-tank-v2.mjs
mtllib glass_north_west_up.mtl
o glass_north_west_up__glass_north_west_up
usemtl fluid_tank
v 0 0.9625 0.11875
v 0.10625 0.9625 0.11875
v 0.10625 1 0.11875
v 0 1 0.11875
v 0 0.9625 0.13125
v 0.10625 0.9625 0.13125
v 0.10625 1 0.13125
v 0 1 0.13125
vt 0.876001 0.064941
vt 0.854004 0.064941
vt 0.854004 0.057178
vt 0.876001 0.057178
vt 0.879395 0.057178
vt 0.901392 0.057178
vt 0.901392 0.064941
vt 0.879395 0.064941
vn 0 0 -1
vn 0 0 1
f 4/1/1 3/2/1 2/3/1 1/4/1
f 5/5/2 6/6/2 7/7/2 8/8/2
