# AFL Fluid Tank V2 glass_west_down, generated by tools/build-fluid-tank-v2.mjs
mtllib glass_west_down.mtl
o glass_west_down__glass_west_down
usemtl fluid_tank
v 0.11875 0 0.10625
v 0.11875 0.0375 0.10625
v 0.11875 0.0375 0.89375
v 0.11875 0 0.89375
v 0.13125 0 0.10625
v 0.13125 0.0375 0.10625
v 0.13125 0.0375 0.89375
v 0.13125 0 0.89375
vt 0.165479 0.06792
vt 0.165479 0.075684
vt 0.002441 0.075684
vt 0.002441 0.06792
vt 0.168457 0.075684
vt 0.168457 0.06792
vt 0.331494 0.06792
vt 0.331494 0.075684
vn -1 0 0
vn 1 0 0
f 4/1/1 3/2/1 2/3/1 1/4/1
f 5/5/2 6/6/2 7/7/2 8/8/2
