# AFL Fluid Tank V2 glass_south_down, generated by tools/build-fluid-tank-v2.mjs
mtllib glass_south_down.mtl
o glass_south_down__glass_south_down
usemtl fluid_tank
v 0.10625 0 0.86875
v 0.89375 0 0.86875
v 0.89375 0.0375 0.86875
v 0.10625 0.0375 0.86875
v 0.10625 0 0.88125
v 0.89375 0 0.88125
v 0.89375 0.0375 0.88125
v 0.10625 0.0375 0.88125
vt 0.49751 0.086426
vt 0.334473 0.086426
vt 0.334473 0.078662
vt 0.49751 0.078662
vt 0.500488 0.078662
vt 0.663525 0.078662
vt 0.663525 0.086426
vt 0.500488 0.086426
vn 0 0 -1
vn 0 0 1
f 4/1/1 3/2/1 2/3/1 1/4/1
f 5/5/2 6/6/2 7/7/2 8/8/2
