# AFL Fluid Tank V2 glass_west_north_down, generated by tools/build-fluid-tank-v2.mjs
mtllib glass_west_north_down.mtl
o glass_west_north_down__glass_west_north_down
usemtl fluid_tank
v 0.11875 0 0
v 0.11875 0.0375 0
v 0.11875 0.0375 0.10625
v 0.11875 0 0.10625
v 0.13125 0 0
v 0.13125 0.0375 0
v 0.13125 0.0375 0.10625
v 0.13125 0 0.10625
vt 0.405298 0.046436
vt 0.405298 0.054199
vt 0.383301 0.054199
vt 0.383301 0.046436
vt 0.408691 0.054199
vt 0.408691 0.046436
vt 0.430688 0.046436
vt 0.430688 0.054199
vn -1 0 0
vn 1 0 0
f 4/1/1 3/2/1 2/3/1 1/4/1
f 5/5/2 6/6/2 7/7/2 8/8/2
