# AFL Fluid Tank V2 glass_east_down, generated by tools/build-fluid-tank-v2.mjs
mtllib glass_east_down.mtl
o glass_east_down__glass_east_down
usemtl fluid_tank
v 0.86875 0 0.10625
v 0.86875 0.0375 0.10625
v 0.86875 0.0375 0.89375
v 0.86875 0 0.89375
v 0.88125 0 0.10625
v 0.88125 0.0375 0.10625
v 0.88125 0.0375 0.89375
v 0.88125 0 0.89375
vt 0.829541 0.06792
vt 0.829541 0.075684
vt 0.666504 0.075684
vt 0.666504 0.06792
vt 0.83252 0.075684
vt 0.83252 0.06792
vt 0.995557 0.06792
vt 0.995557 0.075684
vn -1 0 0
vn 1 0 0
f 4/1/1 3/2/1 2/3/1 1/4/1
f 5/5/2 6/6/2 7/7/2 8/8/2
