# AFL Fluid Tank V2 glass_south_west_down, generated by tools/build-fluid-tank-v2.mjs
mtllib glass_south_west_down.mtl
o glass_south_west_down__glass_south_west_down
usemtl fluid_tank
v 0 0 0.86875
v 0.10625 0 0.86875
v 0.10625 0.0375 0.86875
v 0 0.0375 0.86875
v 0 0 0.88125
v 0.10625 0 0.88125
v 0.10625 0.0375 0.88125
v 0 0.0375 0.88125
vt 0.202173 0.054199
vt 0.180176 0.054199
vt 0.180176 0.046436
vt 0.202173 0.046436
vt 0.205566 0.046436
vt 0.227563 0.046436
vt 0.227563 0.054199
vt 0.205566 0.054199
vn 0 0 -1
vn 0 0 1
f 4/1/1 3/2/1 2/3/1 1/4/1
f 5/5/2 6/6/2 7/7/2 8/8/2
