# AFL Fluid Tank V2 glass_south_west, generated by tools/build-fluid-tank-v2.mjs
mtllib glass_south_west.mtl
o glass_south_west__glass_south_west
usemtl fluid_tank
v 0 0.0375 0.86875
v 0.10625 0.0375 0.86875
v 0.10625 0.9625 0.86875
v 0 0.9625 0.86875
v 0 0.0375 0.88125
v 0.10625 0.0375 0.88125
v 0.10625 0.9625 0.88125
v 0 0.9625 0.88125
vt 0.779883 0.327124
vt 0.779883 0.349121
vt 0.588379 0.349121
vt 0.588379 0.327124
vt 0.783691 0.349121
vt 0.783691 0.327124
vt 0.975195 0.327124
vt 0.975195 0.349121
vn 0 0 -1
vn 0 0 1
f 4/1/1 3/2/1 2/3/1 1/4/1
f 5/5/2 6/6/2 7/7/2 8/8/2
