# AFL Fluid Tank V2 glass_south_east, generated by tools/build-fluid-tank-v2.mjs
mtllib glass_south_east.mtl
o glass_south_east__glass_south_east
usemtl fluid_tank
v 0.89375 0.0375 0.86875
v 1 0.0375 0.86875
v 1 0.9625 0.86875
v 0.89375 0.9625 0.86875
v 0.89375 0.0375 0.88125
v 1 0.0375 0.88125
v 1 0.9625 0.88125
v 0.89375 0.9625 0.88125
vt 0.193945 0.301733
vt 0.193945 0.32373
vt 0.002441 0.32373
vt 0.002441 0.301733
vt 0.197754 0.32373
vt 0.197754 0.301733
vt 0.389258 0.301733
vt 0.389258 0.32373
vn 0 0 -1
vn 0 0 1
f 4/1/1 3/2/1 2/3/1 1/4/1
f 5/5/2 6/6/2 7/7/2 8/8/2
