# AFL Fluid Tank V2 glass_west_up, generated by tools/build-fluid-tank-v2.mjs
mtllib glass_west_up.mtl
o glass_west_up__glass_west_up
usemtl fluid_tank
v 0.11875 0.9625 0.10625
v 0.11875 1 0.10625
v 0.11875 1 0.89375
v 0.11875 0.9625 0.89375
v 0.13125 0.9625 0.10625
v 0.13125 1 0.10625
v 0.13125 1 0.89375
v 0.13125 0.9625 0.89375
vt 0.829541 0.078662
vt 0.829541 0.086426
vt 0.666504 0.086426
vt 0.666504 0.078662
vt 0.83252 0.086426
vt 0.83252 0.078662
vt 0.995557 0.078662
vt 0.995557 0.086426
vn -1 0 0
vn 1 0 0
f 4/1/1 3/2/1 2/3/1 1/4/1
f 5/5/2 6/6/2 7/7/2 8/8/2
