# AFL Fluid Tank V2 glass_east_north, generated by tools/build-fluid-tank-v2.mjs
mtllib glass_east_north.mtl
o glass_east_north__glass_east_north
usemtl fluid_tank
v 0.86875 0.0375 0
v 0.86875 0.9625 0
v 0.86875 0.9625 0.10625
v 0.86875 0.0375 0.10625
v 0.88125 0.0375 0
v 0.88125 0.9625 0
v 0.88125 0.9625 0.10625
v 0.88125 0.0375 0.10625
vt 0.389258 0.29834
vt 0.197754 0.29834
vt 0.197754 0.276343
vt 0.389258 0.276343
vt 0.393066 0.276343
vt 0.58457 0.276343
vt 0.58457 0.29834
vt 0.393066 0.29834
vn -1 0 0
vn 1 0 0
f 4/1/1 3/2/1 2/3/1 1/4/1
f 5/5/2 6/6/2 7/7/2 8/8/2
