# AFL Fluid Tank V2 glass_south_up, generated by tools/build-fluid-tank-v2.mjs
mtllib glass_south_up.mtl
o glass_south_up__glass_south_up
usemtl fluid_tank
v 0.10625 0.9625 0.86875
v 0.89375 0.9625 0.86875
v 0.89375 1 0.86875
v 0.10625 1 0.86875
v 0.10625 0.9625 0.88125
v 0.89375 0.9625 0.88125
v 0.89375 1 0.88125
v 0.10625 1 0.88125
vt 0.165479 0.086426
vt 0.002441 0.086426
vt 0.002441 0.078662
vt 0.165479 0.078662
vt 0.168457 0.078662
vt 0.331494 0.078662
vt 0.331494 0.086426
vt 0.168457 0.086426
vn 0 0 -1
vn 0 0 1
f 4/1/1 3/2/1 2/3/1 1/4/1
f 5/5/2 6/6/2 7/7/2 8/8/2
