# AFL Fluid Tank V2 glass_east, generated by tools/build-fluid-tank-v2.mjs
mtllib glass_east.mtl
o glass_east__glass_east
usemtl fluid_tank
v 0.86875 0.0375 0.10625
v 0.86875 0.9625 0.10625
v 0.86875 0.9625 0.89375
v 0.86875 0.0375 0.89375
v 0.88125 0.0375 0.10625
v 0.88125 0.9625 0.10625
v 0.88125 0.9625 0.89375
v 0.88125 0.0375 0.89375
vt 0.389258 0.621582
vt 0.197754 0.621582
vt 0.197754 0.458545
vt 0.389258 0.458545
vt 0.393066 0.458545
vt 0.58457 0.458545
vt 0.58457 0.621582
vt 0.393066 0.621582
vn -1 0 0
vn 1 0 0
f 4/1/1 3/2/1 2/3/1 1/4/1
f 5/5/2 6/6/2 7/7/2 8/8/2
