# AFL Fluid Tank V2 glass_west_south_up, generated by tools/build-fluid-tank-v2.mjs
mtllib glass_west_south_up.mtl
o glass_west_south_up__glass_west_south_up
usemtl fluid_tank
v 0.11875 0.9625 0.89375
v 0.11875 1 0.89375
v 0.11875 1 1
v 0.11875 0.9625 1
v 0.13125 0.9625 0.89375
v 0.13125 1 0.89375
v 0.13125 1 1
v 0.13125 0.9625 1
vt 0.354517 0.046436
vt 0.354517 0.054199
vt 0.33252 0.054199
vt 0.33252 0.046436
vt 0.35791 0.054199
vt 0.35791 0.046436
vt 0.379907 0.046436
vt 0.379907 0.054199
vn -1 0 0
vn 1 0 0
f 4/1/1 3/2/1 2/3/1 1/4/1
f 5/5/2 6/6/2 7/7/2 8/8/2
