# AFL Fluid Tank V2 glass_north_west_down, generated by tools/build-fluid-tank-v2.mjs
mtllib glass_north_west_down.mtl
o glass_north_west_down__glass_north_west_down
usemtl fluid_tank
v 0 0 0.11875
v 0.10625 0 0.11875
v 0.10625 0.0375 0.11875
v 0 0.0375 0.11875
v 0 0 0.13125
v 0.10625 0 0.13125
v 0.10625 0.0375 0.13125
v 0 0.0375 0.13125
vt 0.977563 0.064941
vt 0.955566 0.064941
vt 0.955566 0.057178
vt 0.977563 0.057178
vt 0.002441 0.046436
vt 0.024438 0.046436
vt 0.024438 0.054199
vt 0.002441 0.054199
vn 0 0 -1
vn 0 0 1
f 4/1/1 3/2/1 2/3/1 1/4/1
f 5/5/2 6/6/2 7/7/2 8/8/2
