# AFL Fluid Tank V2 glass_north_east, generated by tools/build-fluid-tank-v2.mjs
mtllib glass_north_east.mtl
o glass_north_east__glass_north_east
usemtl fluid_tank
v 0.89375 0.0375 0.11875
v 1 0.0375 0.11875
v 1 0.9625 0.11875
v 0.89375 0.9625 0.11875
v 0.89375 0.0375 0.13125
v 1 0.0375 0.13125
v 1 0.9625 0.13125
v 0.89375 0.9625 0.13125
vt 0.389258 0.327124
vt 0.389258 0.349121
vt 0.197754 0.349121
vt 0.197754 0.327124
vt 0.393066 0.349121
vt 0.393066 0.327124
vt 0.58457 0.327124
vt 0.58457 0.349121
vn 0 0 -1
vn 0 0 1
f 4/1/1 3/2/1 2/3/1 1/4/1
f 5/5/2 6/6/2 7/7/2 8/8/2
