# AFL Fluid Tank V2 glass_east_south_down, generated by tools/build-fluid-tank-v2.mjs
mtllib glass_east_south_down.mtl
o glass_east_south_down__glass_east_south_down
usemtl fluid_tank
v 0.86875 0 0.89375
v 0.86875 0.0375 0.89375
v 0.86875 0.0375 1
v 0.86875 0 1
v 0.88125 0 0.89375
v 0.88125 0.0375 0.89375
v 0.88125 0.0375 1
v 0.88125 0 1
vt 0.659204 0.046436
vt 0.659204 0.054199
vt 0.637207 0.054199
vt 0.637207 0.046436
vt 0.662598 0.054199
vt 0.662598 0.046436
vt 0.684595 0.046436
vt 0.684595 0.054199
vn -1 0 0
vn 1 0 0
f 4/1/1 3/2/1 2/3/1 1/4/1
f 5/5/2 6/6/2 7/7/2 8/8/2
