# AFL Fluid Tank V2 glass_west_south_down, generated by tools/build-fluid-tank-v2.mjs
mtllib glass_west_south_down.mtl
o glass_west_south_down__glass_west_south_down
usemtl fluid_tank
v 0.11875 0 0.89375
v 0.11875 0.0375 0.89375
v 0.11875 0.0375 1
v 0.11875 0 1
v 0.13125 0 0.89375
v 0.13125 0.0375 0.89375
v 0.13125 0.0375 1
v 0.13125 0 1
vt 0.456079 0.046436
vt 0.456079 0.054199
vt 0.434082 0.054199
vt 0.434082 0.046436
vt 0.459473 0.054199
vt 0.459473 0.046436
vt 0.48147 0.046436
vt 0.48147 0.054199
vn -1 0 0
vn 1 0 0
f 4/1/1 3/2/1 2/3/1 1/4/1
f 5/5/2 6/6/2 7/7/2 8/8/2
