# AFL Fluid Tank V2 single tank, generated by tools/build-fluid-tank-v2.mjs
mtllib item.mtl
o glass_north__glass_north
usemtl fluid_tank
v 0.10625 0.0375 0.11875
v 0.89375 0.0375 0.11875
v 0.89375 0.9625 0.11875
v 0.10625 0.9625 0.11875
v 0.10625 0.0375 0.13125
v 0.89375 0.0375 0.13125
v 0.89375 0.9625 0.13125
v 0.10625 0.9625 0.13125
vt 0.193945 0.624561
vt 0.193945 0.787598
vt 0.002441 0.787598
vt 0.002441 0.624561
vt 0.197754 0.787598
vt 0.197754 0.624561
vt 0.389258 0.624561
vt 0.389258 0.787598
vn 0 0 -1
vn 0 0 1
f 4/1/1 3/2/1 2/3/1 1/4/1
f 5/5/2 6/6/2 7/7/2 8/8/2
o glass_south__glass_south
usemtl fluid_tank
v 0.10625 0.0375 0.86875
v 0.89375 0.0375 0.86875
v 0.89375 0.9625 0.86875
v 0.10625 0.9625 0.86875
v 0.10625 0.0375 0.88125
v 0.89375 0.0375 0.88125
v 0.89375 0.9625 0.88125
v 0.10625 0.9625 0.88125
vt 0.58457 0.624561
vt 0.58457 0.787598
vt 0.393066 0.787598
vt 0.393066 0.624561
vt 0.588379 0.787598
vt 0.588379 0.624561
vt 0.779883 0.624561
vt 0.779883 0.787598
vn 0 0 -1
vn 0 0 1
f 12/9/3 11/10/3 10/11/3 9/12/3
f 13/13/4 14/14/4 15/15/4 16/16/4
o glass_west__glass_west
usemtl fluid_tank
v 0.11875 0.0375 0.10625
v 0.11875 0.9625 0.10625
v 0.11875 0.9625 0.89375
v 0.11875 0.0375 0.89375
v 0.13125 0.0375 0.10625
v 0.13125 0.9625 0.10625
v 0.13125 0.9625 0.89375
v 0.13125 0.0375 0.89375
vt 0.975195 0.787598
vt 0.783691 0.787598
vt 0.783691 0.624561
vt 0.975195 0.624561
vt 0.002441 0.458545
vt 0.193945 0.458545
vt 0.193945 0.621582
vt 0.002441 0.621582
vn -1 0 0
vn 1 0 0
f 20/17/5 19/18/5 18/19/5 17/20/5
f 21/21/6 22/22/6 23/23/6 24/24/6
o glass_east__glass_east
usemtl fluid_tank
v 0.86875 0.0375 0.10625
v 0.86875 0.9625 0.10625
v 0.86875 0.9625 0.89375
v 0.86875 0.0375 0.89375
v 0.88125 0.0375 0.10625
v 0.88125 0.9625 0.10625
v 0.88125 0.9625 0.89375
v 0.88125 0.0375 0.89375
vt 0.389258 0.621582
vt 0.197754 0.621582
vt 0.197754 0.458545
vt 0.389258 0.458545
vt 0.393066 0.458545
vt 0.58457 0.458545
vt 0.58457 0.621582
vt 0.393066 0.621582
vn -1 0 0
vn 1 0 0
f 28/25/7 27/26/7 26/27/7 25/28/7
f 29/29/8 30/30/8 31/31/8 32/32/8
o post_ne__post_ne
usemtl fluid_tank
v 0.988764 0.0375 0.125149
v 0.974299 0.0375 0.160071
v 0.947571 0.0375 0.186799
v 0.912649 0.0375 0.201264
v 0.874851 0.0375 0.201264
v 0.839929 0.0375 0.186799
v 0.813201 0.0375 0.160071
v 0.798736 0.0375 0.125149
v 0.798736 0.0375 0.087351
v 0.813201 0.0375 0.052429
v 0.839929 0.0375 0.025701
v 0.874851 0.0375 0.011236
v 0.912649 0.0375 0.011236
v 0.947571 0.0375 0.025701
v 0.974299 0.0375 0.052429
v 0.988764 0.0375 0.087351
v 0.988764 0.9625 0.125149
v 0.974299 0.9625 0.160071
v 0.947571 0.9625 0.186799
v 0.912649 0.9625 0.201264
v 0.874851 0.9625 0.201264
v 0.839929 0.9625 0.186799
v 0.813201 0.9625 0.160071
v 0.798736 0.9625 0.125149
v 0.798736 0.9625 0.087351
v 0.813201 0.9625 0.052429
v 0.839929 0.9625 0.025701
v 0.874851 0.9625 0.011236
v 0.912649 0.9625 0.011236
v 0.947571 0.9625 0.025701
v 0.974299 0.9625 0.052429
v 0.988764 0.9625 0.087351
v 0.89375 0.0375 0.10625
v 0.89375 0.9625 0.10625
vt 0.193945 0.252428
vt 0.193945 0.260254
vt 0.002441 0.260254
vt 0.002441 0.252428
vt 0.389258 0.170397
vt 0.389258 0.178223
vt 0.197754 0.178223
vt 0.197754 0.170397
vt 0.975195 0.24071
vt 0.975195 0.248535
vt 0.783691 0.248535
vt 0.783691 0.24071
vt 0.58457 0.170397
vt 0.58457 0.178223
vt 0.393066 0.178223
vt 0.393066 0.170397
vt 0.588379 0.178223
vt 0.588379 0.170397
vt 0.779883 0.170397
vt 0.779883 0.178223
vt 0.393066 0.189941
vt 0.393066 0.182116
vt 0.58457 0.182116
vt 0.58457 0.189941
vt 0.783691 0.178223
vt 0.783691 0.170397
vt 0.975195 0.170397
vt 0.975195 0.178223
vt 0.783691 0.236816
vt 0.783691 0.228991
vt 0.975195 0.228991
vt 0.975195 0.236816
vt 0.783691 0.131348
vt 0.783691 0.123522
vt 0.975195 0.123522
vt 0.975195 0.131348
vt 0.588379 0.260254
vt 0.588379 0.252428
vt 0.779883 0.252428
vt 0.779883 0.260254
vt 0.002441 0.166504
vt 0.002441 0.158678
vt 0.193945 0.158678
vt 0.193945 0.166504
vt 0.193945 0.217272
vt 0.193945 0.225098
vt 0.002441 0.225098
vt 0.002441 0.217272
vt 0.389258 0.158678
vt 0.389258 0.166504
vt 0.197754 0.166504
vt 0.197754 0.158678
vt 0.975195 0.252428
vt 0.975195 0.260254
vt 0.783691 0.260254
vt 0.783691 0.252428
vt 0.58457 0.158678
vt 0.58457 0.166504
vt 0.393066 0.166504
vt 0.393066 0.158678
vt 0.389258 0.217272
vt 0.389258 0.225098
vt 0.197754 0.225098
vt 0.197754 0.217272
vt 0.128557 0.435896
vt 0.13247 0.416225
vt 0.1397 0.41922
vt 0.128557 0.435896
vt 0.1397 0.41922
vt 0.145234 0.424753
vt 0.128557 0.435896
vt 0.145234 0.424753
vt 0.148228 0.431983
vt 0.128557 0.435896
vt 0.148228 0.431983
vt 0.148228 0.439808
vt 0.128557 0.435896
vt 0.148228 0.439808
vt 0.145234 0.447038
vt 0.128557 0.435896
vt 0.145234 0.447038
vt 0.1397 0.452572
vt 0.128557 0.435896
vt 0.1397 0.452572
vt 0.13247 0.455566
vt 0.128557 0.435896
vt 0.13247 0.455566
vt 0.124645 0.455566
vt 0.128557 0.435896
vt 0.124645 0.455566
vt 0.117415 0.452572
vt 0.128557 0.435896
vt 0.117415 0.452572
vt 0.111881 0.447038
vt 0.128557 0.435896
vt 0.111881 0.447038
vt 0.108887 0.439808
vt 0.128557 0.435896
vt 0.108887 0.439808
vt 0.108887 0.431983
vt 0.128557 0.435896
vt 0.108887 0.431983
vt 0.111881 0.424753
vt 0.128557 0.435896
vt 0.111881 0.424753
vt 0.117415 0.41922
vt 0.128557 0.435896
vt 0.117415 0.41922
vt 0.124645 0.416225
vt 0.128557 0.435896
vt 0.124645 0.416225
vt 0.13247 0.416225
vt 0.182669 0.452572
vt 0.175439 0.455566
vt 0.171526 0.435896
vt 0.188202 0.447038
vt 0.182669 0.452572
vt 0.171526 0.435896
vt 0.191197 0.439808
vt 0.188202 0.447038
vt 0.171526 0.435896
vt 0.191197 0.431983
vt 0.191197 0.439808
vt 0.171526 0.435896
vt 0.188202 0.424753
vt 0.191197 0.431983
vt 0.171526 0.435896
vt 0.182669 0.41922
vt 0.188202 0.424753
vt 0.171526 0.435896
vt 0.175439 0.416225
vt 0.182669 0.41922
vt 0.171526 0.435896
vt 0.167613 0.416225
vt 0.175439 0.416225
vt 0.171526 0.435896
vt 0.160384 0.41922
vt 0.167613 0.416225
vt 0.171526 0.435896
vt 0.15485 0.424753
vt 0.160384 0.41922
vt 0.171526 0.435896
vt 0.151855 0.431983
vt 0.15485 0.424753
vt 0.171526 0.435896
vt 0.151855 0.439808
vt 0.151855 0.431983
vt 0.171526 0.435896
vt 0.15485 0.447038
vt 0.151855 0.439808
vt 0.171526 0.435896
vt 0.160384 0.452572
vt 0.15485 0.447038
vt 0.171526 0.435896
vt 0.167613 0.455566
vt 0.160384 0.452572
vt 0.171526 0.435896
vt 0.175439 0.455566
vt 0.167613 0.455566
vt 0.171526 0.435896
vn 0.980785 0 0.19509
vn 0.83147 0 0.55557
vn 0.55557 0 0.83147
vn 0.19509 0 0.980785
vn -0.19509 0 0.980785
vn -0.55557 0 0.83147
vn -0.83147 0 0.55557
vn -0.980785 0 0.19509
vn -0.980785 0 -0.19509
vn -0.83147 0 -0.55557
vn -0.55557 0 -0.83147
vn -0.19509 0 -0.980785
vn 0.19509 0 -0.980785
vn 0.55557 0 -0.83147
vn 0.83147 0 -0.55557
vn 0.980785 0 -0.19509
vn 0 -1 0
vn 0 1 0
f 49/33/9 50/34/10 34/35/10 33/36/9
f 50/37/10 51/38/11 35/39/11 34/40/10
f 51/41/11 52/42/12 36/43/12 35/44/11
f 52/45/12 53/46/13 37/47/13 36/48/12
f 53/49/13 54/50/14 38/51/14 37/52/13
f 54/53/14 55/54/15 39/55/15 38/56/14
f 55/57/15 56/58/16 40/59/16 39/60/15
f 56/61/16 57/62/17 41/63/17 40/64/16
f 57/65/17 58/66/18 42/67/18 41/68/17
f 58/69/18 59/70/19 43/71/19 42/72/18
f 59/73/19 60/74/20 44/75/20 43/76/19
f 60/77/20 61/78/21 45/79/21 44/80/20
f 61/81/21 62/82/22 46/83/22 45/84/21
f 62/85/22 63/86/23 47/87/23 46/88/22
f 63/89/23 64/90/24 48/91/24 47/92/23
f 64/93/24 49/94/9 33/95/9 48/96/24
f 65/97/25 33/98/25 34/99/25
f 65/100/25 34/101/25 35/102/25
f 65/103/25 35/104/25 36/105/25
f 65/106/25 36/107/25 37/108/25
f 65/109/25 37/110/25 38/111/25
f 65/112/25 38/113/25 39/114/25
f 65/115/25 39/116/25 40/117/25
f 65/118/25 40/119/25 41/120/25
f 65/121/25 41/122/25 42/123/25
f 65/124/25 42/125/25 43/126/25
f 65/127/25 43/128/25 44/129/25
f 65/130/25 44/131/25 45/132/25
f 65/133/25 45/134/25 46/135/25
f 65/136/25 46/137/25 47/138/25
f 65/139/25 47/140/25 48/141/25
f 65/142/25 48/143/25 33/144/25
f 50/145/26 49/146/26 66/147/26
f 51/148/26 50/149/26 66/150/26
f 52/151/26 51/152/26 66/153/26
f 53/154/26 52/155/26 66/156/26
f 54/157/26 53/158/26 66/159/26
f 55/160/26 54/161/26 66/162/26
f 56/163/26 55/164/26 66/165/26
f 57/166/26 56/167/26 66/168/26
f 58/169/26 57/170/26 66/171/26
f 59/172/26 58/173/26 66/174/26
f 60/175/26 59/176/26 66/177/26
f 61/178/26 60/179/26 66/180/26
f 62/181/26 61/182/26 66/183/26
f 63/184/26 62/185/26 66/186/26
f 64/187/26 63/188/26 66/189/26
f 49/190/26 64/191/26 66/192/26
o post_nw__post_nw
usemtl fluid_tank
v 0.201264 0.0375 0.125149
v 0.186799 0.0375 0.160071
v 0.160071 0.0375 0.186799
v 0.125149 0.0375 0.201264
v 0.087351 0.0375 0.201264
v 0.052429 0.0375 0.186799
v 0.025701 0.0375 0.160071
v 0.011236 0.0375 0.125149
v 0.011236 0.0375 0.087351
v 0.025701 0.0375 0.052429
v 0.052429 0.0375 0.025701
v 0.087351 0.0375 0.011236
v 0.125149 0.0375 0.011236
v 0.160071 0.0375 0.025701
v 0.186799 0.0375 0.052429
v 0.201264 0.0375 0.087351
v 0.201264 0.9625 0.125149
v 0.186799 0.9625 0.160071
v 0.160071 0.9625 0.186799
v 0.125149 0.9625 0.201264
v 0.087351 0.9625 0.201264
v 0.052429 0.9625 0.186799
v 0.025701 0.9625 0.160071
v 0.011236 0.9625 0.125149
v 0.011236 0.9625 0.087351
v 0.025701 0.9625 0.052429
v 0.052429 0.9625 0.025701
v 0.087351 0.9625 0.011236
v 0.125149 0.9625 0.011236
v 0.160071 0.9625 0.025701
v 0.186799 0.9625 0.052429
v 0.201264 0.9625 0.087351
v 0.10625 0.0375 0.10625
v 0.10625 0.9625 0.10625
vt 0.779883 0.228991
vt 0.779883 0.236816
vt 0.588379 0.236816
vt 0.588379 0.228991
vt 0.58457 0.217272
vt 0.58457 0.225098
vt 0.393066 0.225098
vt 0.393066 0.217272
vt 0.193945 0.228991
vt 0.193945 0.236816
vt 0.002441 0.236816
vt 0.002441 0.228991
vt 0.779883 0.158678
vt 0.779883 0.166504
vt 0.588379 0.166504
vt 0.588379 0.158678
vt 0.783691 0.166504
vt 0.783691 0.158678
vt 0.975195 0.158678
vt 0.975195 0.166504
vt 0.588379 0.131348
vt 0.588379 0.123522
vt 0.779883 0.123522
vt 0.779883 0.131348
vt 0.002441 0.119629
vt 0.002441 0.111803
vt 0.193945 0.111803
vt 0.193945 0.119629
vt 0.588379 0.225098
vt 0.588379 0.217272
vt 0.779883 0.217272
vt 0.779883 0.225098
vt 0.002441 0.154785
vt 0.002441 0.14696
vt 0.193945 0.14696
vt 0.193945 0.154785
vt 0.002441 0.248535
vt 0.002441 0.24071
vt 0.193945 0.24071
vt 0.193945 0.248535
vt 0.197754 0.154785
vt 0.197754 0.14696
vt 0.389258 0.14696
vt 0.389258 0.154785
vt 0.975195 0.217272
vt 0.975195 0.225098
vt 0.783691 0.225098
vt 0.783691 0.217272
vt 0.58457 0.14696
vt 0.58457 0.154785
vt 0.393066 0.154785
vt 0.393066 0.14696
vt 0.389258 0.24071
vt 0.389258 0.248535
vt 0.197754 0.248535
vt 0.197754 0.24071
vt 0.779883 0.14696
vt 0.779883 0.154785
vt 0.588379 0.154785
vt 0.588379 0.14696
vt 0.193945 0.205553
vt 0.193945 0.213379
vt 0.002441 0.213379
vt 0.002441 0.205553
vt 0.300432 0.435896
vt 0.304345 0.416225
vt 0.311575 0.41922
vt 0.300432 0.435896
vt 0.311575 0.41922
vt 0.317109 0.424753
vt 0.300432 0.435896
vt 0.317109 0.424753
vt 0.320103 0.431983
vt 0.300432 0.435896
vt 0.320103 0.431983
vt 0.320103 0.439808
vt 0.300432 0.435896
vt 0.320103 0.439808
vt 0.317109 0.447038
vt 0.300432 0.435896
vt 0.317109 0.447038
vt 0.311575 0.452572
vt 0.300432 0.435896
vt 0.311575 0.452572
vt 0.304345 0.455566
vt 0.300432 0.435896
vt 0.304345 0.455566
vt 0.29652 0.455566
vt 0.300432 0.435896
vt 0.29652 0.455566
vt 0.28929 0.452572
vt 0.300432 0.435896
vt 0.28929 0.452572
vt 0.283756 0.447038
vt 0.300432 0.435896
vt 0.283756 0.447038
vt 0.280762 0.439808
vt 0.300432 0.435896
vt 0.280762 0.439808
vt 0.280762 0.431983
vt 0.300432 0.435896
vt 0.280762 0.431983
vt 0.283756 0.424753
vt 0.300432 0.435896
vt 0.283756 0.424753
vt 0.28929 0.41922
vt 0.300432 0.435896
vt 0.28929 0.41922
vt 0.29652 0.416225
vt 0.300432 0.435896
vt 0.29652 0.416225
vt 0.304345 0.416225
vt 0.354544 0.452572
vt 0.347314 0.455566
vt 0.343401 0.435896
vt 0.360077 0.447038
vt 0.354544 0.452572
vt 0.343401 0.435896
vt 0.363072 0.439808
vt 0.360077 0.447038
vt 0.343401 0.435896
vt 0.363072 0.431983
vt 0.363072 0.439808
vt 0.343401 0.435896
vt 0.360077 0.424753
vt 0.363072 0.431983
vt 0.343401 0.435896
vt 0.354544 0.41922
vt 0.360077 0.424753
vt 0.343401 0.435896
vt 0.347314 0.416225
vt 0.354544 0.41922
vt 0.343401 0.435896
vt 0.339488 0.416225
vt 0.347314 0.416225
vt 0.343401 0.435896
vt 0.332259 0.41922
vt 0.339488 0.416225
vt 0.343401 0.435896
vt 0.326725 0.424753
vt 0.332259 0.41922
vt 0.343401 0.435896
vt 0.32373 0.431983
vt 0.326725 0.424753
vt 0.343401 0.435896
vt 0.32373 0.439808
vt 0.32373 0.431983
vt 0.343401 0.435896
vt 0.326725 0.447038
vt 0.32373 0.439808
vt 0.343401 0.435896
vt 0.332259 0.452572
vt 0.326725 0.447038
vt 0.343401 0.435896
vt 0.339488 0.455566
vt 0.332259 0.452572
vt 0.343401 0.435896
vt 0.347314 0.455566
vt 0.339488 0.455566
vt 0.343401 0.435896
vn 0.980785 0 0.19509
vn 0.83147 0 0.55557
vn 0.55557 0 0.83147
vn 0.19509 0 0.980785
vn -0.19509 0 0.980785
vn -0.55557 0 0.83147
vn -0.83147 0 0.55557
vn -0.980785 0 0.19509
vn -0.980785 0 -0.19509
vn -0.83147 0 -0.55557
vn -0.55557 0 -0.83147
vn -0.19509 0 -0.980785
vn 0.19509 0 -0.980785
vn 0.55557 0 -0.83147
vn 0.83147 0 -0.55557
vn 0.980785 0 -0.19509
vn 0 -1 0
vn 0 1 0
f 83/193/27 84/194/28 68/195/28 67/196/27
f 84/197/28 85/198/29 69/199/29 68/200/28
f 85/201/29 86/202/30 70/203/30 69/204/29
f 86/205/30 87/206/31 71/207/31 70/208/30
f 87/209/31 88/210/32 72/211/32 71/212/31
f 88/213/32 89/214/33 73/215/33 72/216/32
f 89/217/33 90/218/34 74/219/34 73/220/33
f 90/221/34 91/222/35 75/223/35 74/224/34
f 91/225/35 92/226/36 76/227/36 75/228/35
f 92/229/36 93/230/37 77/231/37 76/232/36
f 93/233/37 94/234/38 78/235/38 77/236/37
f 94/237/38 95/238/39 79/239/39 78/240/38
f 95/241/39 96/242/40 80/243/40 79/244/39
f 96/245/40 97/246/41 81/247/41 80/248/40
f 97/249/41 98/250/42 82/251/42 81/252/41
f 98/253/42 83/254/27 67/255/27 82/256/42
f 99/257/43 67/258/43 68/259/43
f 99/260/43 68/261/43 69/262/43
f 99/263/43 69/264/43 70/265/43
f 99/266/43 70/267/43 71/268/43
f 99/269/43 71/270/43 72/271/43
f 99/272/43 72/273/43 73/274/43
f 99/275/43 73/276/43 74/277/43
f 99/278/43 74/279/43 75/280/43
f 99/281/43 75/282/43 76/283/43
f 99/284/43 76/285/43 77/286/43
f 99/287/43 77/288/43 78/289/43
f 99/290/43 78/291/43 79/292/43
f 99/293/43 79/294/43 80/295/43
f 99/296/43 80/297/43 81/298/43
f 99/299/43 81/300/43 82/301/43
f 99/302/43 82/303/43 67/304/43
f 84/305/44 83/306/44 100/307/44
f 85/308/44 84/309/44 100/310/44
f 86/311/44 85/312/44 100/313/44
f 87/314/44 86/315/44 100/316/44
f 88/317/44 87/318/44 100/319/44
f 89/320/44 88/321/44 100/322/44
f 90/323/44 89/324/44 100/325/44
f 91/326/44 90/327/44 100/328/44
f 92/329/44 91/330/44 100/331/44
f 93/332/44 92/333/44 100/334/44
f 94/335/44 93/336/44 100/337/44
f 95/338/44 94/339/44 100/340/44
f 96/341/44 95/342/44 100/343/44
f 97/344/44 96/345/44 100/346/44
f 98/347/44 97/348/44 100/349/44
f 83/350/44 98/351/44 100/352/44
o post_se__post_se
usemtl fluid_tank
v 0.988764 0.0375 0.912649
v 0.974299 0.0375 0.947571
v 0.947571 0.0375 0.974299
v 0.912649 0.0375 0.988764
v 0.874851 0.0375 0.988764
v 0.839929 0.0375 0.974299
v 0.813201 0.0375 0.947571
v 0.798736 0.0375 0.912649
v 0.798736 0.0375 0.874851
v 0.813201 0.0375 0.839929
v 0.839929 0.0375 0.813201
v 0.874851 0.0375 0.798736
v 0.912649 0.0375 0.798736
v 0.947571 0.0375 0.813201
v 0.974299 0.0375 0.839929
v 0.988764 0.0375 0.874851
v 0.988764 0.9625 0.912649
v 0.974299 0.9625 0.947571
v 0.947571 0.9625 0.974299
v 0.912649 0.9625 0.988764
v 0.874851 0.9625 0.988764
v 0.839929 0.9625 0.974299
v 0.813201 0.9625 0.947571
v 0.798736 0.9625 0.912649
v 0.798736 0.9625 0.874851
v 0.813201 0.9625 0.839929
v 0.839929 0.9625 0.813201
v 0.874851 0.9625 0.798736
v 0.912649 0.9625 0.798736
v 0.947571 0.9625 0.813201
v 0.974299 0.9625 0.839929
v 0.988764 0.9625 0.874851
v 0.89375 0.0375 0.89375
v 0.89375 0.9625 0.89375
vt 0.389258 0.252428
vt 0.389258 0.260254
vt 0.197754 0.260254
vt 0.197754 0.252428
vt 0.389258 0.205553
vt 0.389258 0.213379
vt 0.197754 0.213379
vt 0.197754 0.205553
vt 0.389258 0.228991
vt 0.389258 0.236816
vt 0.197754 0.236816
vt 0.197754 0.228991
vt 0.975195 0.14696
vt 0.975195 0.154785
vt 0.783691 0.154785
vt 0.783691 0.14696
vt 0.393066 0.213379
vt 0.393066 0.205553
vt 0.58457 0.205553
vt 0.58457 0.213379
vt 0.393066 0.236816
vt 0.393066 0.228991
vt 0.58457 0.228991
vt 0.58457 0.236816
vt 0.588379 0.213379
vt 0.588379 0.205553
vt 0.779883 0.205553
vt 0.779883 0.213379
vt 0.783691 0.213379
vt 0.783691 0.205553
vt 0.975195 0.205553
vt 0.975195 0.213379
vt 0.002441 0.143066
vt 0.002441 0.135241
vt 0.193945 0.135241
vt 0.193945 0.143066
vt 0.612793 0.272949
vt 0.612793 0.265124
vt 0.804297 0.265124
vt 0.804297 0.272949
vt 0.197754 0.143066
vt 0.197754 0.135241
vt 0.389258 0.135241
vt 0.389258 0.143066
vt 0.193945 0.193835
vt 0.193945 0.20166
vt 0.002441 0.20166
vt 0.002441 0.193835
vt 0.389258 0.193835
vt 0.389258 0.20166
vt 0.197754 0.20166
vt 0.197754 0.193835
vt 0.58457 0.24071
vt 0.58457 0.248535
vt 0.393066 0.248535
vt 0.393066 0.24071
vt 0.58457 0.135241
vt 0.58457 0.143066
vt 0.393066 0.143066
vt 0.393066 0.135241
vt 0.58457 0.193835
vt 0.58457 0.20166
vt 0.393066 0.20166
vt 0.393066 0.193835
vt 0.472307 0.435896
vt 0.47622 0.416225
vt 0.48345 0.41922
vt 0.472307 0.435896
vt 0.48345 0.41922
vt 0.488984 0.424753
vt 0.472307 0.435896
vt 0.488984 0.424753
vt 0.491978 0.431983
vt 0.472307 0.435896
vt 0.491978 0.431983
vt 0.491978 0.439808
vt 0.472307 0.435896
vt 0.491978 0.439808
vt 0.488984 0.447038
vt 0.472307 0.435896
vt 0.488984 0.447038
vt 0.48345 0.452572
vt 0.472307 0.435896
vt 0.48345 0.452572
vt 0.47622 0.455566
vt 0.472307 0.435896
vt 0.47622 0.455566
vt 0.468395 0.455566
vt 0.472307 0.435896
vt 0.468395 0.455566
vt 0.461165 0.452572
vt 0.472307 0.435896
vt 0.461165 0.452572
vt 0.455631 0.447038
vt 0.472307 0.435896
vt 0.455631 0.447038
vt 0.452637 0.439808
vt 0.472307 0.435896
vt 0.452637 0.439808
vt 0.452637 0.431983
vt 0.472307 0.435896
vt 0.452637 0.431983
vt 0.455631 0.424753
vt 0.472307 0.435896
vt 0.455631 0.424753
vt 0.461165 0.41922
vt 0.472307 0.435896
vt 0.461165 0.41922
vt 0.468395 0.416225
vt 0.472307 0.435896
vt 0.468395 0.416225
vt 0.47622 0.416225
vt 0.526419 0.452572
vt 0.519189 0.455566
vt 0.515276 0.435896
vt 0.531952 0.447038
vt 0.526419 0.452572
vt 0.515276 0.435896
vt 0.534947 0.439808
vt 0.531952 0.447038
vt 0.515276 0.435896
vt 0.534947 0.431983
vt 0.534947 0.439808
vt 0.515276 0.435896
vt 0.531952 0.424753
vt 0.534947 0.431983
vt 0.515276 0.435896
vt 0.526419 0.41922
vt 0.531952 0.424753
vt 0.515276 0.435896
vt 0.519189 0.416225
vt 0.526419 0.41922
vt 0.515276 0.435896
vt 0.511363 0.416225
vt 0.519189 0.416225
vt 0.515276 0.435896
vt 0.504134 0.41922
vt 0.511363 0.416225
vt 0.515276 0.435896
vt 0.4986 0.424753
vt 0.504134 0.41922
vt 0.515276 0.435896
vt 0.495605 0.431983
vt 0.4986 0.424753
vt 0.515276 0.435896
vt 0.495605 0.439808
vt 0.495605 0.431983
vt 0.515276 0.435896
vt 0.4986 0.447038
vt 0.495605 0.439808
vt 0.515276 0.435896
vt 0.504134 0.452572
vt 0.4986 0.447038
vt 0.515276 0.435896
vt 0.511363 0.455566
vt 0.504134 0.452572
vt 0.515276 0.435896
vt 0.519189 0.455566
vt 0.511363 0.455566
vt 0.515276 0.435896
vn 0.980785 0 0.19509
vn 0.83147 0 0.55557
vn 0.55557 0 0.83147
vn 0.19509 0 0.980785
vn -0.19509 0 0.980785
vn -0.55557 0 0.83147
vn -0.83147 0 0.55557
vn -0.980785 0 0.19509
vn -0.980785 0 -0.19509
vn -0.83147 0 -0.55557
vn -0.55557 0 -0.83147
vn -0.19509 0 -0.980785
vn 0.19509 0 -0.980785
vn 0.55557 0 -0.83147
vn 0.83147 0 -0.55557
vn 0.980785 0 -0.19509
vn 0 -1 0
vn 0 1 0
f 117/353/45 118/354/46 102/355/46 101/356/45
f 118/357/46 119/358/47 103/359/47 102/360/46
f 119/361/47 120/362/48 104/363/48 103/364/47
f 120/365/48 121/366/49 105/367/49 104/368/48
f 121/369/49 122/370/50 106/371/50 105/372/49
f 122/373/50 123/374/51 107/375/51 106/376/50
f 123/377/51 124/378/52 108/379/52 107/380/51
f 124/381/52 125/382/53 109/383/53 108/384/52
f 125/385/53 126/386/54 110/387/54 109/388/53
f 126/389/54 127/390/55 111/391/55 110/392/54
f 127/393/55 128/394/56 112/395/56 111/396/55
f 128/397/56 129/398/57 113/399/57 112/400/56
f 129/401/57 130/402/58 114/403/58 113/404/57
f 130/405/58 131/406/59 115/407/59 114/408/58
f 131/409/59 132/410/60 116/411/60 115/412/59
f 132/413/60 117/414/45 101/415/45 116/416/60
f 133/417/61 101/418/61 102/419/61
f 133/420/61 102/421/61 103/422/61
f 133/423/61 103/424/61 104/425/61
f 133/426/61 104/427/61 105/428/61
f 133/429/61 105/430/61 106/431/61
f 133/432/61 106/433/61 107/434/61
f 133/435/61 107/436/61 108/437/61
f 133/438/61 108/439/61 109/440/61
f 133/441/61 109/442/61 110/443/61
f 133/444/61 110/445/61 111/446/61
f 133/447/61 111/448/61 112/449/61
f 133/450/61 112/451/61 113/452/61
f 133/453/61 113/454/61 114/455/61
f 133/456/61 114/457/61 115/458/61
f 133/459/61 115/460/61 116/461/61
f 133/462/61 116/463/61 101/464/61
f 118/465/62 117/466/62 134/467/62
f 119/468/62 118/469/62 134/470/62
f 120/471/62 119/472/62 134/473/62
f 121/474/62 120/475/62 134/476/62
f 122/477/62 121/478/62 134/479/62
f 123/480/62 122/481/62 134/482/62
f 124/483/62 123/484/62 134/485/62
f 125/486/62 124/487/62 134/488/62
f 126/489/62 125/490/62 134/491/62
f 127/492/62 126/493/62 134/494/62
f 128/495/62 127/496/62 134/497/62
f 129/498/62 128/499/62 134/500/62
f 130/501/62 129/502/62 134/503/62
f 131/504/62 130/505/62 134/506/62
f 132/507/62 131/508/62 134/509/62
f 117/510/62 132/511/62 134/512/62
o post_sw__post_sw
usemtl fluid_tank
v 0.201264 0.0375 0.912649
v 0.186799 0.0375 0.947571
v 0.160071 0.0375 0.974299
v 0.125149 0.0375 0.988764
v 0.087351 0.0375 0.988764
v 0.052429 0.0375 0.974299
v 0.025701 0.0375 0.947571
v 0.011236 0.0375 0.912649
v 0.011236 0.0375 0.874851
v 0.025701 0.0375 0.839929
v 0.052429 0.0375 0.813201
v 0.087351 0.0375 0.798736
v 0.125149 0.0375 0.798736
v 0.160071 0.0375 0.813201
v 0.186799 0.0375 0.839929
v 0.201264 0.0375 0.874851
v 0.201264 0.9625 0.912649
v 0.186799 0.9625 0.947571
v 0.160071 0.9625 0.974299
v 0.125149 0.9625 0.988764
v 0.087351 0.9625 0.988764
v 0.052429 0.9625 0.974299
v 0.025701 0.9625 0.947571
v 0.011236 0.9625 0.912649
v 0.011236 0.9625 0.874851
v 0.025701 0.9625 0.839929
v 0.052429 0.9625 0.813201
v 0.087351 0.9625 0.798736
v 0.125149 0.9625 0.798736
v 0.160071 0.9625 0.813201
v 0.186799 0.9625 0.839929
v 0.201264 0.9625 0.874851
v 0.10625 0.0375 0.89375
v 0.10625 0.9625 0.89375
vt 0.58457 0.252428
vt 0.58457 0.260254
vt 0.393066 0.260254
vt 0.393066 0.252428
vt 0.779883 0.135241
vt 0.779883 0.143066
vt 0.588379 0.143066
vt 0.588379 0.135241
vt 0.608984 0.265124
vt 0.608984 0.272949
vt 0.41748 0.272949
vt 0.41748 0.265124
vt 0.975195 0.135241
vt 0.975195 0.143066
vt 0.783691 0.143066
vt 0.783691 0.135241
vt 0.002441 0.131348
vt 0.002441 0.123522
vt 0.193945 0.123522
vt 0.193945 0.131348
vt 0.588379 0.189941
vt 0.588379 0.182116
vt 0.779883 0.182116
vt 0.779883 0.189941
vt 0.783691 0.189941
vt 0.783691 0.182116
vt 0.975195 0.182116
vt 0.975195 0.189941
vt 0.588379 0.20166
vt 0.588379 0.193835
vt 0.779883 0.193835
vt 0.779883 0.20166
vt 0.783691 0.20166
vt 0.783691 0.193835
vt 0.975195 0.193835
vt 0.975195 0.20166
vt 0.222168 0.272949
vt 0.222168 0.265124
vt 0.413672 0.265124
vt 0.413672 0.272949
vt 0.197754 0.131348
vt 0.197754 0.123522
vt 0.389258 0.123522
vt 0.389258 0.131348
vt 0.193945 0.182116
vt 0.193945 0.189941
vt 0.002441 0.189941
vt 0.002441 0.182116
vt 0.58457 0.123522
vt 0.58457 0.131348
vt 0.393066 0.131348
vt 0.393066 0.123522
vt 0.779883 0.24071
vt 0.779883 0.248535
vt 0.588379 0.248535
vt 0.588379 0.24071
vt 0.193945 0.170397
vt 0.193945 0.178223
vt 0.002441 0.178223
vt 0.002441 0.170397
vt 0.389258 0.182116
vt 0.389258 0.189941
vt 0.197754 0.189941
vt 0.197754 0.182116
vt 0.644182 0.435896
vt 0.648095 0.416225
vt 0.655325 0.41922
vt 0.644182 0.435896
vt 0.655325 0.41922
vt 0.660859 0.424753
vt 0.644182 0.435896
vt 0.660859 0.424753
vt 0.663853 0.431983
vt 0.644182 0.435896
vt 0.663853 0.431983
vt 0.663853 0.439808
vt 0.644182 0.435896
vt 0.663853 0.439808
vt 0.660859 0.447038
vt 0.644182 0.435896
vt 0.660859 0.447038
vt 0.655325 0.452572
vt 0.644182 0.435896
vt 0.655325 0.452572
vt 0.648095 0.455566
vt 0.644182 0.435896
vt 0.648095 0.455566
vt 0.64027 0.455566
vt 0.644182 0.435896
vt 0.64027 0.455566
vt 0.63304 0.452572
vt 0.644182 0.435896
vt 0.63304 0.452572
vt 0.627506 0.447038
vt 0.644182 0.435896
vt 0.627506 0.447038
vt 0.624512 0.439808
vt 0.644182 0.435896
vt 0.624512 0.439808
vt 0.624512 0.431983
vt 0.644182 0.435896
vt 0.624512 0.431983
vt 0.627506 0.424753
vt 0.644182 0.435896
vt 0.627506 0.424753
vt 0.63304 0.41922
vt 0.644182 0.435896
vt 0.63304 0.41922
vt 0.64027 0.416225
vt 0.644182 0.435896
vt 0.64027 0.416225
vt 0.648095 0.416225
vt 0.698294 0.452572
vt 0.691064 0.455566
vt 0.687151 0.435896
vt 0.703827 0.447038
vt 0.698294 0.452572
vt 0.687151 0.435896
vt 0.706822 0.439808
vt 0.703827 0.447038
vt 0.687151 0.435896
vt 0.706822 0.431983
vt 0.706822 0.439808
vt 0.687151 0.435896
vt 0.703827 0.424753
vt 0.706822 0.431983
vt 0.687151 0.435896
vt 0.698294 0.41922
vt 0.703827 0.424753
vt 0.687151 0.435896
vt 0.691064 0.416225
vt 0.698294 0.41922
vt 0.687151 0.435896
vt 0.683238 0.416225
vt 0.691064 0.416225
vt 0.687151 0.435896
vt 0.676009 0.41922
vt 0.683238 0.416225
vt 0.687151 0.435896
vt 0.670475 0.424753
vt 0.676009 0.41922
vt 0.687151 0.435896
vt 0.66748 0.431983
vt 0.670475 0.424753
vt 0.687151 0.435896
vt 0.66748 0.439808
vt 0.66748 0.431983
vt 0.687151 0.435896
vt 0.670475 0.447038
vt 0.66748 0.439808
vt 0.687151 0.435896
vt 0.676009 0.452572
vt 0.670475 0.447038
vt 0.687151 0.435896
vt 0.683238 0.455566
vt 0.676009 0.452572
vt 0.687151 0.435896
vt 0.691064 0.455566
vt 0.683238 0.455566
vt 0.687151 0.435896
vn 0.980785 0 0.19509
vn 0.83147 0 0.55557
vn 0.55557 0 0.83147
vn 0.19509 0 0.980785
vn -0.19509 0 0.980785
vn -0.55557 0 0.83147
vn -0.83147 0 0.55557
vn -0.980785 0 0.19509
vn -0.980785 0 -0.19509
vn -0.83147 0 -0.55557
vn -0.55557 0 -0.83147
vn -0.19509 0 -0.980785
vn 0.19509 0 -0.980785
vn 0.55557 0 -0.83147
vn 0.83147 0 -0.55557
vn 0.980785 0 -0.19509
vn 0 -1 0
vn 0 1 0
f 151/513/63 152/514/64 136/515/64 135/516/63
f 152/517/64 153/518/65 137/519/65 136/520/64
f 153/521/65 154/522/66 138/523/66 137/524/65
f 154/525/66 155/526/67 139/527/67 138/528/66
f 155/529/67 156/530/68 140/531/68 139/532/67
f 156/533/68 157/534/69 141/535/69 140/536/68
f 157/537/69 158/538/70 142/539/70 141/540/69
f 158/541/70 159/542/71 143/543/71 142/544/70
f 159/545/71 160/546/72 144/547/72 143/548/71
f 160/549/72 161/550/73 145/551/73 144/552/72
f 161/553/73 162/554/74 146/555/74 145/556/73
f 162/557/74 163/558/75 147/559/75 146/560/74
f 163/561/75 164/562/76 148/563/76 147/564/75
f 164/565/76 165/566/77 149/567/77 148/568/76
f 165/569/77 166/570/78 150/571/78 149/572/77
f 166/573/78 151/574/63 135/575/63 150/576/78
f 167/577/79 135/578/79 136/579/79
f 167/580/79 136/581/79 137/582/79
f 167/583/79 137/584/79 138/585/79
f 167/586/79 138/587/79 139/588/79
f 167/589/79 139/590/79 140/591/79
f 167/592/79 140/593/79 141/594/79
f 167/595/79 141/596/79 142/597/79
f 167/598/79 142/599/79 143/600/79
f 167/601/79 143/602/79 144/603/79
f 167/604/79 144/605/79 145/606/79
f 167/607/79 145/608/79 146/609/79
f 167/610/79 146/611/79 147/612/79
f 167/613/79 147/614/79 148/615/79
f 167/616/79 148/617/79 149/618/79
f 167/619/79 149/620/79 150/621/79
f 167/622/79 150/623/79 135/624/79
f 152/625/80 151/626/80 168/627/80
f 153/628/80 152/629/80 168/630/80
f 154/631/80 153/632/80 168/633/80
f 155/634/80 154/635/80 168/636/80
f 156/637/80 155/638/80 168/639/80
f 157/640/80 156/641/80 168/642/80
f 158/643/80 157/644/80 168/645/80
f 159/646/80 158/647/80 168/648/80
f 160/649/80 159/650/80 168/651/80
f 161/652/80 160/653/80 168/654/80
f 162/655/80 161/656/80 168/657/80
f 163/658/80 162/659/80 168/660/80
f 164/661/80 163/662/80 168/663/80
f 165/664/80 164/665/80 168/666/80
f 166/667/80 165/668/80 168/669/80
f 151/670/80 166/671/80 168/672/80
o deck_top__deck_top_plate
usemtl fluid_tank
v 0 0.9625 1
v 1 0.9625 1
v 1 0.9625 0
v 0 0.9625 0
v 0 1 1
v 1 1 1
v 1 1 0
v 0 1 0
v 0.25 0.9625 0.25
v 0.75 0.9625 0.25
v 0.75 0.9625 0.75
v 0.25 0.9625 0.75
v 0.25 1 0.25
v 0.75 1 0.25
v 0.75 1 0.75
v 0.25 1 0.75
v 0 0.9625 1
v 1 0.9625 1
v 1 0.9625 0
v 0 0.9625 0
v 0.25 0.9625 0.25
v 0.75 0.9625 0.25
v 0.75 0.9625 0.75
v 0.25 0.9625 0.75
v 0 1 1
v 1 1 1
v 1 1 0
v 0 1 0
v 0.25 1 0.25
v 0.75 1 0.25
v 0.75 1 0.75
v 0.25 1 0.75
vt 0.197754 0.111865
vt 0.404785 0.111865
vt 0.404785 0.119629
vt 0.197754 0.119629
vt 0.614746 0.119629
vt 0.407715 0.119629
vt 0.407715 0.111865
vt 0.614746 0.111865
vt 0.617676 0.111865
vt 0.824707 0.111865
vt 0.824707 0.119629
vt 0.617676 0.119629
vt 0.002441 0.100146
vt 0.209473 0.100146
vt 0.209473 0.10791
vt 0.002441 0.10791
vt 0.002441 0.057178
vt 0.105957 0.057178
vt 0.105957 0.064941
vt 0.002441 0.064941
vt 0.108887 0.057178
vt 0.212402 0.057178
vt 0.212402 0.064941
vt 0.108887 0.064941
vt 0.215332 0.057178
vt 0.318848 0.057178
vt 0.318848 0.064941
vt 0.215332 0.064941
vt 0.425293 0.064941
vt 0.321777 0.064941
vt 0.321777 0.057178
vt 0.425293 0.057178
vt 0.157715 0.842285
vt 0.209473 0.790527
vt 0.209473 0.997559
vt 0.157715 0.945801
vt 0.157715 0.842285
vt 0.209473 0.997559
vt 0.157715 0.945801
vt 0.209473 0.997559
vt 0.002441 0.997559
vt 0.054199 0.945801
vt 0.157715 0.945801
vt 0.002441 0.997559
vt 0.054199 0.842285
vt 0.054199 0.945801
vt 0.002441 0.997559
vt 0.209473 0.790527
vt 0.157715 0.842285
vt 0.054199 0.842285
vt 0.002441 0.790527
vt 0.209473 0.790527
vt 0.054199 0.842285
vt 0.002441 0.997559
vt 0.002441 0.790527
vt 0.054199 0.842285
vt 0.419434 0.790527
vt 0.419434 0.997559
vt 0.367676 0.945801
vt 0.419434 0.790527
vt 0.367676 0.945801
vt 0.367676 0.842285
vt 0.212402 0.790527
vt 0.419434 0.790527
vt 0.367676 0.842285
vt 0.212402 0.790527
vt 0.367676 0.842285
vt 0.26416 0.842285
vt 0.212402 0.790527
vt 0.26416 0.842285
vt 0.26416 0.945801
vt 0.26416 0.945801
vt 0.367676 0.945801
vt 0.419434 0.997559
vt 0.26416 0.945801
vt 0.419434 0.997559
vt 0.212402 0.997559
vt 0.26416 0.945801
vt 0.212402 0.997559
vt 0.212402 0.790527
vn 0 0 1
vn 1 0 0
vn 0 0 -1
vn -1 0 0
vn 0 -1 0
vn 0 1 0
f 169/673/81 170/674/81 174/675/81 173/676/81
f 170/677/82 171/678/82 175/679/82 174/680/82
f 171/681/83 172/682/83 176/683/83 175/684/83
f 172/685/84 169/686/84 173/687/84 176/688/84
f 177/689/81 178/690/81 182/691/81 181/692/81
f 178/693/84 179/694/84 183/695/84 182/696/84
f 179/697/83 180/698/83 184/699/83 183/700/83
f 180/701/82 177/702/82 181/703/82 184/704/82
f 191/705/85 186/706/85 185/707/85
f 192/708/85 191/709/85 185/710/85
f 192/711/85 185/712/85 188/713/85
f 189/714/85 192/715/85 188/716/85
f 190/717/85 189/718/85 188/719/85
f 186/720/85 191/721/85 190/722/85
f 187/723/85 186/724/85 190/725/85
f 188/726/85 187/727/85 190/728/85
f 193/729/86 194/730/86 199/731/86
f 193/732/86 199/733/86 200/734/86
f 196/735/86 193/736/86 200/737/86
f 196/738/86 200/739/86 197/740/86
f 196/741/86 197/742/86 198/743/86
f 198/744/86 199/745/86 194/746/86
f 198/747/86 194/748/86 195/749/86
f 198/750/86 195/751/86 196/752/86
o deck_top__deck_top_throat
usemtl fluid_tank
v 0.25 0.93125 0.75
v 0.75 0.93125 0.75
v 0.75 0.93125 0.25
v 0.25 0.93125 0.25
v 0.25 0.96375 0.75
v 0.75 0.96375 0.75
v 0.75 0.96375 0.25
v 0.25 0.96375 0.25
v 0.25 0.93125 0.75
v 0.75 0.93125 0.75
v 0.75 0.93125 0.25
v 0.25 0.93125 0.25
v 0.25 0.96375 0.75
v 0.75 0.96375 0.75
v 0.75 0.96375 0.25
v 0.25 0.96375 0.25
vt 0.20166 0.025986
vt 0.305176 0.025986
vt 0.305176 0.032715
vt 0.20166 0.032715
vt 0.411621 0.032715
vt 0.308105 0.032715
vt 0.308105 0.025986
vt 0.411621 0.025986
vt 0.414551 0.025986
vt 0.518066 0.025986
vt 0.518066 0.032715
vt 0.414551 0.032715
vt 0.520996 0.025986
vt 0.624512 0.025986
vt 0.624512 0.032715
vt 0.520996 0.032715
vt 0.691895 0.518066
vt 0.691895 0.621582
vt 0.588379 0.621582
vt 0.588379 0.621582
vt 0.588379 0.518066
vt 0.691895 0.518066
vt 0.694824 0.518066
vt 0.79834 0.518066
vt 0.79834 0.621582
vt 0.79834 0.621582
vt 0.694824 0.621582
vt 0.694824 0.518066
vn 0 0 1
vn 1 0 0
vn 0 0 -1
vn -1 0 0
vn 0 -1 0
vn 0 1 0
f 201/753/87 202/754/87 206/755/87 205/756/87
f 202/757/88 203/758/88 207/759/88 206/760/88
f 203/761/89 204/762/89 208/763/89 207/764/89
f 204/765/90 201/766/90 205/767/90 208/768/90
f 210/769/91 209/770/91 212/771/91
f 212/772/91 211/773/91 210/774/91
f 216/775/92 213/776/92 214/777/92
f 214/778/92 215/779/92 216/780/92
o deck_top__deck_top_studs
usemtl fluid_tank
v 0.232108 1 0.19625
v 0.209375 1 0.183125
v 0.186642 1 0.19625
v 0.186642 1 0.2225
v 0.209375 1 0.235625
v 0.232108 1 0.2225
v 0.232108 1.02 0.19625
v 0.209375 1.02 0.183125
v 0.186642 1.02 0.19625
v 0.186642 1.02 0.2225
v 0.209375 1.02 0.235625
v 0.232108 1.02 0.2225
v 0.232108 1 0.19625
v 0.209375 1 0.183125
v 0.186642 1 0.19625
v 0.186642 1 0.2225
v 0.209375 1 0.235625
v 0.232108 1 0.2225
v 0.232108 1.02 0.19625
v 0.209375 1.02 0.183125
v 0.186642 1.02 0.19625
v 0.186642 1.02 0.2225
v 0.209375 1.02 0.235625
v 0.232108 1.02 0.2225
v 0.232108 1 0.7775
v 0.209375 1 0.764375
v 0.186642 1 0.7775
v 0.186642 1 0.80375
v 0.209375 1 0.816875
v 0.232108 1 0.80375
v 0.232108 1.02 0.7775
v 0.209375 1.02 0.764375
v 0.186642 1.02 0.7775
v 0.186642 1.02 0.80375
v 0.209375 1.02 0.816875
v 0.232108 1.02 0.80375
v 0.232108 1 0.7775
v 0.209375 1 0.764375
v 0.186642 1 0.7775
v 0.186642 1 0.80375
v 0.209375 1 0.816875
v 0.232108 1 0.80375
v 0.232108 1.02 0.7775
v 0.209375 1.02 0.764375
v 0.186642 1.02 0.7775
v 0.186642 1.02 0.80375
v 0.209375 1.02 0.816875
v 0.232108 1.02 0.80375
v 0.813358 1 0.19625
v 0.790625 1 0.183125
v 0.767892 1 0.19625
v 0.767892 1 0.2225
v 0.790625 1 0.235625
v 0.813358 1 0.2225
v 0.813358 1.02 0.19625
v 0.790625 1.02 0.183125
v 0.767892 1.02 0.19625
v 0.767892 1.02 0.2225
v 0.790625 1.02 0.235625
v 0.813358 1.02 0.2225
v 0.813358 1 0.19625
v 0.790625 1 0.183125
v 0.767892 1 0.19625
v 0.767892 1 0.2225
v 0.790625 1 0.235625
v 0.813358 1 0.2225
v 0.813358 1.02 0.19625
v 0.790625 1.02 0.183125
v 0.767892 1.02 0.19625
v 0.767892 1.02 0.2225
v 0.790625 1.02 0.235625
v 0.813358 1.02 0.2225
v 0.813358 1 0.7775
v 0.790625 1 0.764375
v 0.767892 1 0.7775
v 0.767892 1 0.80375
v 0.790625 1 0.816875
v 0.813358 1 0.80375
v 0.813358 1.02 0.7775
v 0.790625 1.02 0.764375
v 0.767892 1.02 0.7775
v 0.767892 1.02 0.80375
v 0.790625 1.02 0.816875
v 0.813358 1.02 0.80375
v 0.813358 1 0.7775
v 0.790625 1 0.764375
v 0.767892 1 0.7775
v 0.767892 1 0.80375
v 0.790625 1 0.816875
v 0.813358 1 0.80375
v 0.813358 1.02 0.7775
v 0.790625 1.02 0.764375
v 0.767892 1.02 0.7775
v 0.767892 1.02 0.80375
v 0.790625 1.02 0.816875
v 0.813358 1.02 0.80375
vt 0.114321 0.021973
vt 0.108887 0.021973
vt 0.108887 0.017832
vt 0.114321 0.017832
vt 0.390137 0.017832
vt 0.395571 0.017832
vt 0.395571 0.021973
vt 0.390137 0.021973
vt 0.117676 0.017832
vt 0.12311 0.017832
vt 0.12311 0.021973
vt 0.117676 0.021973
vt 0.460449 0.017832
vt 0.465884 0.017832
vt 0.465884 0.021973
vt 0.460449 0.021973
vt 0.131899 0.021973
vt 0.126465 0.021973
vt 0.126465 0.017832
vt 0.131899 0.017832
vt 0.140688 0.021973
vt 0.135254 0.021973
vt 0.135254 0.017832
vt 0.140688 0.017832
vt 0.979004 0.293633
vt 0.981721 0.288927
vt 0.987156 0.288927
vt 0.981721 0.29834
vt 0.979004 0.293633
vt 0.987156 0.288927
vt 0.987156 0.29834
vt 0.981721 0.29834
vt 0.987156 0.288927
vt 0.987156 0.288927
vt 0.989873 0.293633
vt 0.987156 0.29834
vt 0.010593 0.272949
vt 0.005159 0.272949
vt 0.002441 0.268243
vt 0.010593 0.272949
vt 0.002441 0.268243
vt 0.005159 0.263536
vt 0.010593 0.272949
vt 0.005159 0.263536
vt 0.010593 0.263536
vt 0.010593 0.263536
vt 0.013311 0.268243
vt 0.010593 0.272949
vt 0.149478 0.021973
vt 0.144043 0.021973
vt 0.144043 0.017832
vt 0.149478 0.017832
vt 0.469238 0.017832
vt 0.474673 0.017832
vt 0.474673 0.021973
vt 0.469238 0.021973
vt 0.152832 0.017832
vt 0.158267 0.017832
vt 0.158267 0.021973
vt 0.152832 0.021973
vt 0.398926 0.017832
vt 0.40436 0.017832
vt 0.40436 0.021973
vt 0.398926 0.021973
vt 0.167056 0.021973
vt 0.161621 0.021973
vt 0.161621 0.017832
vt 0.167056 0.017832
vt 0.175845 0.021973
vt 0.17041 0.021973
vt 0.17041 0.017832
vt 0.175845 0.017832
vt 0.01709 0.268243
vt 0.019807 0.263536
vt 0.025242 0.263536
vt 0.019807 0.272949
vt 0.01709 0.268243
vt 0.025242 0.263536
vt 0.025242 0.272949
vt 0.019807 0.272949
vt 0.025242 0.263536
vt 0.025242 0.263536
vt 0.027959 0.268243
vt 0.025242 0.272949
vt 0.03989 0.272949
vt 0.034456 0.272949
vt 0.031738 0.268243
vt 0.03989 0.272949
vt 0.031738 0.268243
vt 0.034456 0.263536
vt 0.03989 0.272949
vt 0.034456 0.263536
vt 0.03989 0.263536
vt 0.03989 0.263536
vt 0.042607 0.268243
vt 0.03989 0.272949
vt 0.413149 0.021973
vt 0.407715 0.021973
vt 0.407715 0.017832
vt 0.413149 0.017832
vt 0.179199 0.017832
vt 0.184634 0.017832
vt 0.184634 0.021973
vt 0.179199 0.021973
vt 0.187988 0.017832
vt 0.193423 0.017832
vt 0.193423 0.021973
vt 0.187988 0.021973
vt 0.196777 0.017832
vt 0.202212 0.017832
vt 0.202212 0.021973
vt 0.196777 0.021973
vt 0.483462 0.021973
vt 0.478027 0.021973
vt 0.478027 0.017832
vt 0.483462 0.017832
vt 0.211001 0.021973
vt 0.205566 0.021973
vt 0.205566 0.017832
vt 0.211001 0.017832
vt 0.046387 0.268243
vt 0.049104 0.263536
vt 0.054539 0.263536
vt 0.049104 0.272949
vt 0.046387 0.268243
vt 0.054539 0.263536
vt 0.054539 0.272949
vt 0.049104 0.272949
vt 0.054539 0.263536
vt 0.054539 0.263536
vt 0.057256 0.268243
vt 0.054539 0.272949
vt 0.069187 0.272949
vt 0.063752 0.272949
vt 0.061035 0.268243
vt 0.069187 0.272949
vt 0.061035 0.268243
vt 0.063752 0.263536
vt 0.069187 0.272949
vt 0.063752 0.263536
vt 0.069187 0.263536
vt 0.069187 0.263536
vt 0.071904 0.268243
vt 0.069187 0.272949
vt 0.492251 0.021973
vt 0.486816 0.021973
vt 0.486816 0.017832
vt 0.492251 0.017832
vt 0.214355 0.017832
vt 0.21979 0.017832
vt 0.21979 0.021973
vt 0.214355 0.021973
vt 0.223145 0.017832
vt 0.228579 0.017832
vt 0.228579 0.021973
vt 0.223145 0.021973
vt 0.231934 0.017832
vt 0.237368 0.017832
vt 0.237368 0.021973
vt 0.231934 0.021973
vt 0.421938 0.021973
vt 0.416504 0.021973
vt 0.416504 0.017832
vt 0.421938 0.017832
vt 0.246157 0.021973
vt 0.240723 0.021973
vt 0.240723 0.017832
vt 0.246157 0.017832
vt 0.075684 0.268243
vt 0.078401 0.263536
vt 0.083835 0.263536
vt 0.078401 0.272949
vt 0.075684 0.268243
vt 0.083835 0.263536
vt 0.083835 0.272949
vt 0.078401 0.272949
vt 0.083835 0.263536
vt 0.083835 0.263536
vt 0.086553 0.268243
vt 0.083835 0.272949
vt 0.098484 0.272949
vt 0.093049 0.272949
vt 0.090332 0.268243
vt 0.098484 0.272949
vt 0.090332 0.268243
vt 0.093049 0.263536
vt 0.098484 0.272949
vt 0.093049 0.263536
vt 0.098484 0.263536
vt 0.098484 0.263536
vt 0.101201 0.268243
vt 0.098484 0.272949
vn 0.5 0 -0.866025
vn -0.5 0 -0.866025
vn -1 0 0
vn -0.5 0 0.866025
vn 0.5 0 0.866025
vn 1 0 0
vn 0 -1 0
vn 0 1 0
f 217/781/93 218/782/93 224/783/93 223/784/93
f 218/785/94 219/786/94 225/787/94 224/788/94
f 219/789/95 220/790/95 226/791/95 225/792/95
f 220/793/96 221/794/96 227/795/96 226/796/96
f 221/797/97 222/798/97 228/799/97 227/800/97
f 222/801/98 217/802/98 223/803/98 228/804/98
f 230/805/99 229/806/99 234/807/99
f 231/808/99 230/809/99 234/810/99
f 232/811/99 231/812/99 234/813/99
f 234/814/99 233/815/99 232/816/99
f 240/817/100 235/818/100 236/819/100
f 240/820/100 236/821/100 237/822/100
f 240/823/100 237/824/100 238/825/100
f 238/826/100 239/827/100 240/828/100
f 241/829/93 242/830/93 248/831/93 247/832/93
f 242/833/94 243/834/94 249/835/94 248/836/94
f 243/837/95 244/838/95 250/839/95 249/840/95
f 244/841/96 245/842/96 251/843/96 250/844/96
f 245/845/97 246/846/97 252/847/97 251/848/97
f 246/849/98 241/850/98 247/851/98 252/852/98
f 254/853/99 253/854/99 258/855/99
f 255/856/99 254/857/99 258/858/99
f 256/859/99 255/860/99 258/861/99
f 258/862/99 257/863/99 256/864/99
f 264/865/100 259/866/100 260/867/100
f 264/868/100 260/869/100 261/870/100
f 264/871/100 261/872/100 262/873/100
f 262/874/100 263/875/100 264/876/100
f 265/877/93 266/878/93 272/879/93 271/880/93
f 266/881/94 267/882/94 273/883/94 272/884/94
f 267/885/95 268/886/95 274/887/95 273/888/95
f 268/889/96 269/890/96 275/891/96 274/892/96
f 269/893/97 270/894/97 276/895/97 275/896/97
f 270/897/98 265/898/98 271/899/98 276/900/98
f 278/901/99 277/902/99 282/903/99
f 279/904/99 278/905/99 282/906/99
f 280/907/99 279/908/99 282/909/99
f 282/910/99 281/911/99 280/912/99
f 288/913/100 283/914/100 284/915/100
f 288/916/100 284/917/100 285/918/100
f 288/919/100 285/920/100 286/921/100
f 286/922/100 287/923/100 288/924/100
f 289/925/93 290/926/93 296/927/93 295/928/93
f 290/929/94 291/930/94 297/931/94 296/932/94
f 291/933/95 292/934/95 298/935/95 297/936/95
f 292/937/96 293/938/96 299/939/96 298/940/96
f 293/941/97 294/942/97 300/943/97 299/944/97
f 294/945/98 289/946/98 295/947/98 300/948/98
f 302/949/99 301/950/99 306/951/99
f 303/952/99 302/953/99 306/954/99
f 304/955/99 303/956/99 306/957/99
f 306/958/99 305/959/99 304/960/99
f 312/961/100 307/962/100 308/963/100
f 312/964/100 308/965/100 309/966/100
f 312/967/100 309/968/100 310/969/100
f 310/970/100 311/971/100 312/972/100
o deck_bottom__deck_bottom_plate
usemtl fluid_tank
v 0 0 1
v 1 0 1
v 1 0 0
v 0 0 0
v 0 0.0375 1
v 1 0.0375 1
v 1 0.0375 0
v 0 0.0375 0
v 0.25 0 0.25
v 0.75 0 0.25
v 0.75 0 0.75
v 0.25 0 0.75
v 0.25 0.0375 0.25
v 0.75 0.0375 0.25
v 0.75 0.0375 0.75
v 0.25 0.0375 0.75
v 0 0 1
v 1 0 1
v 1 0 0
v 0 0 0
v 0.25 0 0.25
v 0.75 0 0.25
v 0.75 0 0.75
v 0.25 0 0.75
v 0 0.0375 1
v 1 0.0375 1
v 1 0.0375 0
v 0 0.0375 0
v 0.25 0.0375 0.25
v 0.75 0.0375 0.25
v 0.75 0.0375 0.75
v 0.25 0.0375 0.75
vt 0.212402 0.100146
vt 0.419434 0.100146
vt 0.419434 0.10791
vt 0.212402 0.10791
vt 0.629395 0.10791
vt 0.422363 0.10791
vt 0.422363 0.100146
vt 0.629395 0.100146
vt 0.632324 0.100146
vt 0.839355 0.100146
vt 0.839355 0.10791
vt 0.632324 0.10791
vt 0.002441 0.089404
vt 0.209473 0.089404
vt 0.209473 0.097168
vt 0.002441 0.097168
vt 0.428223 0.057178
vt 0.531738 0.057178
vt 0.531738 0.064941
vt 0.428223 0.064941
vt 0.534668 0.057178
vt 0.638184 0.057178
vt 0.638184 0.064941
vt 0.534668 0.064941
vt 0.641113 0.057178
vt 0.744629 0.057178
vt 0.744629 0.064941
vt 0.641113 0.064941
vt 0.851074 0.064941
vt 0.747559 0.064941
vt 0.747559 0.057178
vt 0.851074 0.057178
vt 0.577637 0.842285
vt 0.629395 0.790527
vt 0.629395 0.997559
vt 0.577637 0.945801
vt 0.577637 0.842285
vt 0.629395 0.997559
vt 0.577637 0.945801
vt 0.629395 0.997559
vt 0.422363 0.997559
vt 0.474121 0.945801
vt 0.577637 0.945801
vt 0.422363 0.997559
vt 0.474121 0.842285
vt 0.474121 0.945801
vt 0.422363 0.997559
vt 0.629395 0.790527
vt 0.577637 0.842285
vt 0.474121 0.842285
vt 0.422363 0.790527
vt 0.629395 0.790527
vt 0.474121 0.842285
vt 0.422363 0.997559
vt 0.422363 0.790527
vt 0.474121 0.842285
vt 0.839355 0.790527
vt 0.839355 0.997559
vt 0.787598 0.945801
vt 0.839355 0.790527
vt 0.787598 0.945801
vt 0.787598 0.842285
vt 0.632324 0.790527
vt 0.839355 0.790527
vt 0.787598 0.842285
vt 0.632324 0.790527
vt 0.787598 0.842285
vt 0.684082 0.842285
vt 0.632324 0.790527
vt 0.684082 0.842285
vt 0.684082 0.945801
vt 0.684082 0.945801
vt 0.787598 0.945801
vt 0.839355 0.997559
vt 0.684082 0.945801
vt 0.839355 0.997559
vt 0.632324 0.997559
vt 0.684082 0.945801
vt 0.632324 0.997559
vt 0.632324 0.790527
vn 0 0 1
vn 1 0 0
vn 0 0 -1
vn -1 0 0
vn 0 -1 0
vn 0 1 0
f 313/973/101 314/974/101 318/975/101 317/976/101
f 314/977/102 315/978/102 319/979/102 318/980/102
f 315/981/103 316/982/103 320/983/103 319/984/103
f 316/985/104 313/986/104 317/987/104 320/988/104
f 321/989/101 322/990/101 326/991/101 325/992/101
f 322/993/104 323/994/104 327/995/104 326/996/104
f 323/997/103 324/998/103 328/999/103 327/1000/103
f 324/1001/102 321/1002/102 325/1003/102 328/1004/102
f 335/1005/105 330/1006/105 329/1007/105
f 336/1008/105 335/1009/105 329/1010/105
f 336/1011/105 329/1012/105 332/1013/105
f 333/1014/105 336/1015/105 332/1016/105
f 334/1017/105 333/1018/105 332/1019/105
f 330/1020/105 335/1021/105 334/1022/105
f 331/1023/105 330/1024/105 334/1025/105
f 332/1026/105 331/1027/105 334/1028/105
f 337/1029/106 338/1030/106 343/1031/106
f 337/1032/106 343/1033/106 344/1034/106
f 340/1035/106 337/1036/106 344/1037/106
f 340/1038/106 344/1039/106 341/1040/106
f 340/1041/106 341/1042/106 342/1043/106
f 342/1044/106 343/1045/106 338/1046/106
f 342/1047/106 338/1048/106 339/1049/106
f 342/1050/106 339/1051/106 340/1052/106
o deck_bottom__deck_bottom_throat
usemtl fluid_tank
v 0.25 0.03625 0.75
v 0.75 0.03625 0.75
v 0.75 0.03625 0.25
v 0.25 0.03625 0.25
v 0.25 0.06875 0.75
v 0.75 0.06875 0.75
v 0.75 0.06875 0.25
v 0.25 0.06875 0.25
v 0.25 0.03625 0.75
v 0.75 0.03625 0.75
v 0.75 0.03625 0.25
v 0.25 0.03625 0.25
v 0.25 0.06875 0.75
v 0.75 0.06875 0.75
v 0.75 0.06875 0.25
v 0.25 0.06875 0.25
vt 0.627441 0.025986
vt 0.730957 0.025986
vt 0.730957 0.032715
vt 0.627441 0.032715
vt 0.837402 0.032715
vt 0.733887 0.032715
vt 0.733887 0.025986
vt 0.837402 0.025986
vt 0.840332 0.025986
vt 0.943848 0.025986
vt 0.943848 0.032715
vt 0.840332 0.032715
vt 0.002441 0.015244
vt 0.105957 0.015244
vt 0.105957 0.021973
vt 0.002441 0.021973
vt 0.904785 0.518066
vt 0.904785 0.621582
vt 0.80127 0.621582
vt 0.80127 0.621582
vt 0.80127 0.518066
vt 0.904785 0.518066
vt 0.002441 0.352051
vt 0.105957 0.352051
vt 0.105957 0.455566
vt 0.105957 0.455566
vt 0.002441 0.455566
vt 0.002441 0.352051
vn 0 0 1
vn 1 0 0
vn 0 0 -1
vn -1 0 0
vn 0 -1 0
vn 0 1 0
f 345/1053/107 346/1054/107 350/1055/107 349/1056/107
f 346/1057/108 347/1058/108 351/1059/108 350/1060/108
f 347/1061/109 348/1062/109 352/1063/109 351/1064/109
f 348/1065/110 345/1066/110 349/1067/110 352/1068/110
f 354/1069/111 353/1070/111 356/1071/111
f 356/1072/111 355/1073/111 354/1074/111
f 360/1075/112 357/1076/112 358/1077/112
f 358/1078/112 359/1079/112 360/1080/112
o deck_bottom__deck_bottom_studs
usemtl fluid_tank
v 0.232108 -0.02 0.19625
v 0.209375 -0.02 0.183125
v 0.186642 -0.02 0.19625
v 0.186642 -0.02 0.2225
v 0.209375 -0.02 0.235625
v 0.232108 -0.02 0.2225
v 0.232108 0 0.19625
v 0.209375 0 0.183125
v 0.186642 0 0.19625
v 0.186642 0 0.2225
v 0.209375 0 0.235625
v 0.232108 0 0.2225
v 0.232108 -0.02 0.19625
v 0.209375 -0.02 0.183125
v 0.186642 -0.02 0.19625
v 0.186642 -0.02 0.2225
v 0.209375 -0.02 0.235625
v 0.232108 -0.02 0.2225
v 0.232108 0 0.19625
v 0.209375 0 0.183125
v 0.186642 0 0.19625
v 0.186642 0 0.2225
v 0.209375 0 0.235625
v 0.232108 0 0.2225
v 0.232108 -0.02 0.7775
v 0.209375 -0.02 0.764375
v 0.186642 -0.02 0.7775
v 0.186642 -0.02 0.80375
v 0.209375 -0.02 0.816875
v 0.232108 -0.02 0.80375
v 0.232108 0 0.7775
v 0.209375 0 0.764375
v 0.186642 0 0.7775
v 0.186642 0 0.80375
v 0.209375 0 0.816875
v 0.232108 0 0.80375
v 0.232108 -0.02 0.7775
v 0.209375 -0.02 0.764375
v 0.186642 -0.02 0.7775
v 0.186642 -0.02 0.80375
v 0.209375 -0.02 0.816875
v 0.232108 -0.02 0.80375
v 0.232108 0 0.7775
v 0.209375 0 0.764375
v 0.186642 0 0.7775
v 0.186642 0 0.80375
v 0.209375 0 0.816875
v 0.232108 0 0.80375
v 0.813358 -0.02 0.19625
v 0.790625 -0.02 0.183125
v 0.767892 -0.02 0.19625
v 0.767892 -0.02 0.2225
v 0.790625 -0.02 0.235625
v 0.813358 -0.02 0.2225
v 0.813358 0 0.19625
v 0.790625 0 0.183125
v 0.767892 0 0.19625
v 0.767892 0 0.2225
v 0.790625 0 0.235625
v 0.813358 0 0.2225
v 0.813358 -0.02 0.19625
v 0.790625 -0.02 0.183125
v 0.767892 -0.02 0.19625
v 0.767892 -0.02 0.2225
v 0.790625 -0.02 0.235625
v 0.813358 -0.02 0.2225
v 0.813358 0 0.19625
v 0.790625 0 0.183125
v 0.767892 0 0.19625
v 0.767892 0 0.2225
v 0.790625 0 0.235625
v 0.813358 0 0.2225
v 0.813358 -0.02 0.7775
v 0.790625 -0.02 0.764375
v 0.767892 -0.02 0.7775
v 0.767892 -0.02 0.80375
v 0.790625 -0.02 0.816875
v 0.813358 -0.02 0.80375
v 0.813358 0 0.7775
v 0.790625 0 0.764375
v 0.767892 0 0.7775
v 0.767892 0 0.80375
v 0.790625 0 0.816875
v 0.813358 0 0.80375
v 0.813358 -0.02 0.7775
v 0.790625 -0.02 0.764375
v 0.767892 -0.02 0.7775
v 0.767892 -0.02 0.80375
v 0.790625 -0.02 0.816875
v 0.813358 -0.02 0.80375
v 0.813358 0 0.7775
v 0.790625 0 0.764375
v 0.767892 0 0.7775
v 0.767892 0 0.80375
v 0.790625 0 0.816875
v 0.813358 0 0.80375
vt 0.254946 0.021973
vt 0.249512 0.021973
vt 0.249512 0.017832
vt 0.254946 0.017832
vt 0.425293 0.017832
vt 0.430728 0.017832
vt 0.430728 0.021973
vt 0.425293 0.021973
vt 0.258301 0.017832
vt 0.263735 0.017832
vt 0.263735 0.021973
vt 0.258301 0.021973
vt 0.495605 0.017832
vt 0.50104 0.017832
vt 0.50104 0.021973
vt 0.495605 0.021973
vt 0.272524 0.021973
vt 0.26709 0.021973
vt 0.26709 0.017832
vt 0.272524 0.017832
vt 0.281313 0.021973
vt 0.275879 0.021973
vt 0.275879 0.017832
vt 0.281313 0.017832
vt 0.10498 0.268243
vt 0.107698 0.263536
vt 0.113132 0.263536
vt 0.107698 0.272949
vt 0.10498 0.268243
vt 0.113132 0.263536
vt 0.113132 0.272949
vt 0.107698 0.272949
vt 0.113132 0.263536
vt 0.113132 0.263536
vt 0.11585 0.268243
vt 0.113132 0.272949
vt 0.127781 0.272949
vt 0.122346 0.272949
vt 0.119629 0.268243
vt 0.127781 0.272949
vt 0.119629 0.268243
vt 0.122346 0.263536
vt 0.127781 0.272949
vt 0.122346 0.263536
vt 0.127781 0.263536
vt 0.127781 0.263536
vt 0.130498 0.268243
vt 0.127781 0.272949
vt 0.290103 0.021973
vt 0.284668 0.021973
vt 0.284668 0.017832
vt 0.290103 0.017832
vt 0.504395 0.017832
vt 0.509829 0.017832
vt 0.509829 0.021973
vt 0.504395 0.021973
vt 0.293457 0.017832
vt 0.298892 0.017832
vt 0.298892 0.021973
vt 0.293457 0.021973
vt 0.434082 0.017832
vt 0.439517 0.017832
vt 0.439517 0.021973
vt 0.434082 0.021973
vt 0.307681 0.021973
vt 0.302246 0.021973
vt 0.302246 0.017832
vt 0.307681 0.017832
vt 0.31647 0.021973
vt 0.311035 0.021973
vt 0.311035 0.017832
vt 0.31647 0.017832
vt 0.134277 0.268243
vt 0.136995 0.263536
vt 0.142429 0.263536
vt 0.136995 0.272949
vt 0.134277 0.268243
vt 0.142429 0.263536
vt 0.142429 0.272949
vt 0.136995 0.272949
vt 0.142429 0.263536
vt 0.142429 0.263536
vt 0.145146 0.268243
vt 0.142429 0.272949
vt 0.157078 0.272949
vt 0.151643 0.272949
vt 0.148926 0.268243
vt 0.157078 0.272949
vt 0.148926 0.268243
vt 0.151643 0.263536
vt 0.157078 0.272949
vt 0.151643 0.263536
vt 0.157078 0.263536
vt 0.157078 0.263536
vt 0.159795 0.268243
vt 0.157078 0.272949
vt 0.448306 0.021973
vt 0.442871 0.021973
vt 0.442871 0.017832
vt 0.448306 0.017832
vt 0.319824 0.017832
vt 0.325259 0.017832
vt 0.325259 0.021973
vt 0.319824 0.021973
vt 0.328613 0.017832
vt 0.334048 0.017832
vt 0.334048 0.021973
vt 0.328613 0.021973
vt 0.337402 0.017832
vt 0.342837 0.017832
vt 0.342837 0.021973
vt 0.337402 0.021973
vt 0.518618 0.021973
vt 0.513184 0.021973
vt 0.513184 0.017832
vt 0.518618 0.017832
vt 0.351626 0.021973
vt 0.346191 0.021973
vt 0.346191 0.017832
vt 0.351626 0.017832
vt 0.163574 0.268243
vt 0.166292 0.263536
vt 0.171726 0.263536
vt 0.166292 0.272949
vt 0.163574 0.268243
vt 0.171726 0.263536
vt 0.171726 0.272949
vt 0.166292 0.272949
vt 0.171726 0.263536
vt 0.171726 0.263536
vt 0.174443 0.268243
vt 0.171726 0.272949
vt 0.186375 0.272949
vt 0.18094 0.272949
vt 0.178223 0.268243
vt 0.186375 0.272949
vt 0.178223 0.268243
vt 0.18094 0.263536
vt 0.186375 0.272949
vt 0.18094 0.263536
vt 0.186375 0.263536
vt 0.186375 0.263536
vt 0.189092 0.268243
vt 0.186375 0.272949
vt 0.527407 0.021973
vt 0.521973 0.021973
vt 0.521973 0.017832
vt 0.527407 0.017832
vt 0.35498 0.017832
vt 0.360415 0.017832
vt 0.360415 0.021973
vt 0.35498 0.021973
vt 0.36377 0.017832
vt 0.369204 0.017832
vt 0.369204 0.021973
vt 0.36377 0.021973
vt 0.372559 0.017832
vt 0.377993 0.017832
vt 0.377993 0.021973
vt 0.372559 0.021973
vt 0.457095 0.021973
vt 0.45166 0.021973
vt 0.45166 0.017832
vt 0.457095 0.017832
vt 0.386782 0.021973
vt 0.381348 0.021973
vt 0.381348 0.017832
vt 0.386782 0.017832
vt 0.192871 0.268243
vt 0.195588 0.263536
vt 0.201023 0.263536
vt 0.195588 0.272949
vt 0.192871 0.268243
vt 0.201023 0.263536
vt 0.201023 0.272949
vt 0.195588 0.272949
vt 0.201023 0.263536
vt 0.201023 0.263536
vt 0.20374 0.268243
vt 0.201023 0.272949
vt 0.215671 0.272949
vt 0.210237 0.272949
vt 0.20752 0.268243
vt 0.215671 0.272949
vt 0.20752 0.268243
vt 0.210237 0.263536
vt 0.215671 0.272949
vt 0.210237 0.263536
vt 0.215671 0.263536
vt 0.215671 0.263536
vt 0.218389 0.268243
vt 0.215671 0.272949
vn 0.5 0 -0.866025
vn -0.5 0 -0.866025
vn -1 0 0
vn -0.5 0 0.866025
vn 0.5 0 0.866025
vn 1 0 0
vn 0 -1 0
vn 0 1 0
f 361/1081/113 362/1082/113 368/1083/113 367/1084/113
f 362/1085/114 363/1086/114 369/1087/114 368/1088/114
f 363/1089/115 364/1090/115 370/1091/115 369/1092/115
f 364/1093/116 365/1094/116 371/1095/116 370/1096/116
f 365/1097/117 366/1098/117 372/1099/117 371/1100/117
f 366/1101/118 361/1102/118 367/1103/118 372/1104/118
f 374/1105/119 373/1106/119 378/1107/119
f 375/1108/119 374/1109/119 378/1110/119
f 376/1111/119 375/1112/119 378/1113/119
f 378/1114/119 377/1115/119 376/1116/119
f 384/1117/120 379/1118/120 380/1119/120
f 384/1120/120 380/1121/120 381/1122/120
f 384/1123/120 381/1124/120 382/1125/120
f 382/1126/120 383/1127/120 384/1128/120
f 385/1129/113 386/1130/113 392/1131/113 391/1132/113
f 386/1133/114 387/1134/114 393/1135/114 392/1136/114
f 387/1137/115 388/1138/115 394/1139/115 393/1140/115
f 388/1141/116 389/1142/116 395/1143/116 394/1144/116
f 389/1145/117 390/1146/117 396/1147/117 395/1148/117
f 390/1149/118 385/1150/118 391/1151/118 396/1152/118
f 398/1153/119 397/1154/119 402/1155/119
f 399/1156/119 398/1157/119 402/1158/119
f 400/1159/119 399/1160/119 402/1161/119
f 402/1162/119 401/1163/119 400/1164/119
f 408/1165/120 403/1166/120 404/1167/120
f 408/1168/120 404/1169/120 405/1170/120
f 408/1171/120 405/1172/120 406/1173/120
f 406/1174/120 407/1175/120 408/1176/120
f 409/1177/113 410/1178/113 416/1179/113 415/1180/113
f 410/1181/114 411/1182/114 417/1183/114 416/1184/114
f 411/1185/115 412/1186/115 418/1187/115 417/1188/115
f 412/1189/116 413/1190/116 419/1191/116 418/1192/116
f 413/1193/117 414/1194/117 420/1195/117 419/1196/117
f 414/1197/118 409/1198/118 415/1199/118 420/1200/118
f 422/1201/119 421/1202/119 426/1203/119
f 423/1204/119 422/1205/119 426/1206/119
f 424/1207/119 423/1208/119 426/1209/119
f 426/1210/119 425/1211/119 424/1212/119
f 432/1213/120 427/1214/120 428/1215/120
f 432/1216/120 428/1217/120 429/1218/120
f 432/1219/120 429/1220/120 430/1221/120
f 430/1222/120 431/1223/120 432/1224/120
f 433/1225/113 434/1226/113 440/1227/113 439/1228/113
f 434/1229/114 435/1230/114 441/1231/114 440/1232/114
f 435/1233/115 436/1234/115 442/1235/115 441/1236/115
f 436/1237/116 437/1238/116 443/1239/116 442/1240/116
f 437/1241/117 438/1242/117 444/1243/117 443/1244/117
f 438/1245/118 433/1246/118 439/1247/118 444/1248/118
f 446/1249/119 445/1250/119 450/1251/119
f 447/1252/119 446/1253/119 450/1254/119
f 448/1255/119 447/1256/119 450/1257/119
f 450/1258/119 449/1259/119 448/1260/119
f 456/1261/120 451/1262/120 452/1263/120
f 456/1264/120 452/1265/120 453/1266/120
f 456/1267/120 453/1268/120 454/1269/120
f 454/1270/120 455/1271/120 456/1272/120
