# AFL Fluid Tank V2 post_ne_down, generated by tools/build-fluid-tank-v2.mjs
mtllib post_ne_down.mtl
o post_ne_down__post_ne_down
usemtl fluid_tank
v 0.988764 0 0.125149
v 0.974299 0 0.160071
v 0.947571 0 0.186799
v 0.912649 0 0.201264
v 0.874851 0 0.201264
v 0.839929 0 0.186799
v 0.813201 0 0.160071
v 0.798736 0 0.125149
v 0.798736 0 0.087351
v 0.813201 0 0.052429
v 0.839929 0 0.025701
v 0.874851 0 0.011236
v 0.912649 0 0.011236
v 0.947571 0 0.025701
v 0.974299 0 0.052429
v 0.988764 0 0.087351
v 0.988764 0.0375 0.125149
v 0.974299 0.0375 0.160071
v 0.947571 0.0375 0.186799
v 0.912649 0.0375 0.201264
v 0.874851 0.0375 0.201264
v 0.839929 0.0375 0.186799
v 0.813201 0.0375 0.160071
v 0.798736 0.0375 0.125149
v 0.798736 0.0375 0.087351
v 0.813201 0.0375 0.052429
v 0.839929 0.0375 0.025701
v 0.874851 0.0375 0.011236
v 0.912649 0.0375 0.011236
v 0.947571 0.0375 0.025701
v 0.974299 0.0375 0.052429
v 0.988764 0.0375 0.087351
v 0.89375 0 0.10625
vt 0.723145 0.046436
vt 0.73097 0.046436
vt 0.73097 0.054199
vt 0.723145 0.054199
vt 0.646973 0.035693
vt 0.654798 0.035693
vt 0.654798 0.043457
vt 0.646973 0.043457
vt 0.658691 0.035693
vt 0.666517 0.035693
vt 0.666517 0.043457
vt 0.658691 0.043457
vt 0.678236 0.043457
vt 0.67041 0.043457
vt 0.67041 0.035693
vt 0.678236 0.035693
vt 0.689954 0.043457
vt 0.682129 0.043457
vt 0.682129 0.035693
vt 0.689954 0.035693
vt 0.080579 0.043457
vt 0.072754 0.043457
vt 0.072754 0.035693
vt 0.080579 0.035693
vt 0.701673 0.043457
vt 0.693848 0.043457
vt 0.693848 0.035693
vt 0.701673 0.035693
vt 0.092298 0.043457
vt 0.084473 0.043457
vt 0.084473 0.035693
vt 0.092298 0.035693
vt 0.033704 0.032715
vt 0.025879 0.032715
vt 0.025879 0.024951
vt 0.033704 0.024951
vt 0.742689 0.054199
vt 0.734863 0.054199
vt 0.734863 0.046436
vt 0.742689 0.046436
vt 0.713392 0.043457
vt 0.705566 0.043457
vt 0.705566 0.035693
vt 0.713392 0.035693
vt 0.104017 0.043457
vt 0.096191 0.043457
vt 0.096191 0.035693
vt 0.104017 0.035693
vt 0.002441 0.024951
vt 0.010267 0.024951
vt 0.010267 0.032715
vt 0.002441 0.032715
vt 0.746582 0.046436
vt 0.754408 0.046436
vt 0.754408 0.054199
vt 0.746582 0.054199
vt 0.717285 0.035693
vt 0.725111 0.035693
vt 0.725111 0.043457
vt 0.717285 0.043457
vt 0.10791 0.035693
vt 0.115736 0.035693
vt 0.115736 0.043457
vt 0.10791 0.043457
vt 0.257464 0.435896
vt 0.261377 0.416225
vt 0.268606 0.41922
vt 0.257464 0.435896
vt 0.268606 0.41922
vt 0.27414 0.424753
vt 0.257464 0.435896
vt 0.27414 0.424753
vt 0.277135 0.431983
vt 0.257464 0.435896
vt 0.277135 0.431983
vt 0.277135 0.439808
vt 0.257464 0.435896
vt 0.277135 0.439808
vt 0.27414 0.447038
vt 0.257464 0.435896
vt 0.27414 0.447038
vt 0.268606 0.452572
vt 0.257464 0.435896
vt 0.268606 0.452572
vt 0.261377 0.455566
vt 0.257464 0.435896
vt 0.261377 0.455566
vt 0.253551 0.455566
vt 0.257464 0.435896
vt 0.253551 0.455566
vt 0.246321 0.452572
vt 0.257464 0.435896
vt 0.246321 0.452572
vt 0.240788 0.447038
vt 0.257464 0.435896
vt 0.240788 0.447038
vt 0.237793 0.439808
vt 0.257464 0.435896
vt 0.237793 0.439808
vt 0.237793 0.431983
vt 0.257464 0.435896
vt 0.237793 0.431983
vt 0.240788 0.424753
vt 0.257464 0.435896
vt 0.240788 0.424753
vt 0.246321 0.41922
vt 0.257464 0.435896
vt 0.246321 0.41922
vt 0.253551 0.416225
vt 0.257464 0.435896
vt 0.253551 0.416225
vt 0.261377 0.416225
vn 0.980785 0 0.19509
vn 0.83147 0 0.55557
vn 0.55557 0 0.83147
vn 0.19509 0 0.980785
vn -0.19509 0 0.980785
vn -0.55557 0 0.83147
vn -0.83147 0 0.55557
vn -0.980785 0 0.19509
vn -0.980785 0 -0.19509
vn -0.83147 0 -0.55557
vn -0.55557 0 -0.83147
vn -0.19509 0 -0.980785
vn 0.19509 0 -0.980785
vn 0.55557 0 -0.83147
vn 0.83147 0 -0.55557
vn 0.980785 0 -0.19509
vn 0 -1 0
f 17/1/1 18/2/2 2/3/2 1/4/1
f 18/5/2 19/6/3 3/7/3 2/8/2
f 19/9/3 20/10/4 4/11/4 3/12/3
f 20/13/4 21/14/5 5/15/5 4/16/4
f 21/17/5 22/18/6 6/19/6 5/20/5
f 22/21/6 23/22/7 7/23/7 6/24/6
f 23/25/7 24/26/8 8/27/8 7/28/7
f 24/29/8 25/30/9 9/31/9 8/32/8
f 25/33/9 26/34/10 10/35/10 9/36/9
f 26/37/10 27/38/11 11/39/11 10/40/10
f 27/41/11 28/42/12 12/43/12 11/44/11
f 28/45/12 29/46/13 13/47/13 12/48/12
f 29/49/13 30/50/14 14/51/14 13/52/13
f 30/53/14 31/54/15 15/55/15 14/56/14
f 31/57/15 32/58/16 16/59/16 15/60/15
f 32/61/16 17/62/1 1/63/1 16/64/16
f 33/65/17 1/66/17 2/67/17
f 33/68/17 2/69/17 3/70/17
f 33/71/17 3/72/17 4/73/17
f 33/74/17 4/75/17 5/76/17
f 33/77/17 5/78/17 6/79/17
f 33/80/17 6/81/17 7/82/17
f 33/83/17 7/84/17 8/85/17
f 33/86/17 8/87/17 9/88/17
f 33/89/17 9/90/17 10/91/17
f 33/92/17 10/93/17 11/94/17
f 33/95/17 11/96/17 12/97/17
f 33/98/17 12/99/17 13/100/17
f 33/101/17 13/102/17 14/103/17
f 33/104/17 14/105/17 15/106/17
f 33/107/17 15/108/17 16/109/17
f 33/110/17 16/111/17 1/112/17
