# AFL Fluid Tank V2 post_se_up, generated by tools/build-fluid-tank-v2.mjs
mtllib post_se_up.mtl
o post_se_up__post_se_up
usemtl fluid_tank
v 0.988764 0.9625 0.912649
v 0.974299 0.9625 0.947571
v 0.947571 0.9625 0.974299
v 0.912649 0.9625 0.988764
v 0.874851 0.9625 0.988764
v 0.839929 0.9625 0.974299
v 0.813201 0.9625 0.947571
v 0.798736 0.9625 0.912649
v 0.798736 0.9625 0.874851
v 0.813201 0.9625 0.839929
v 0.839929 0.9625 0.813201
v 0.874851 0.9625 0.798736
v 0.912649 0.9625 0.798736
v 0.947571 0.9625 0.813201
v 0.974299 0.9625 0.839929
v 0.988764 0.9625 0.874851
v 0.988764 1 0.912649
v 0.974299 1 0.947571
v 0.947571 1 0.974299
v 0.912649 1 0.988764
v 0.874851 1 0.988764
v 0.839929 1 0.974299
v 0.813201 1 0.947571
v 0.798736 1 0.912649
v 0.798736 1 0.874851
v 0.813201 1 0.839929
v 0.839929 1 0.813201
v 0.874851 1 0.798736
v 0.912649 1 0.798736
v 0.947571 1 0.813201
v 0.974299 1 0.839929
v 0.988764 1 0.874851
v 0.89375 1 0.89375
vt 0.236816 0.035693
vt 0.244642 0.035693
vt 0.244642 0.043457
vt 0.236816 0.043457
vt 0.061035 0.024951
vt 0.068861 0.024951
vt 0.068861 0.032715
vt 0.061035 0.032715
vt 0.002441 0.035693
vt 0.010267 0.035693
vt 0.010267 0.043457
vt 0.002441 0.043457
vt 0.854017 0.043457
vt 0.846191 0.043457
vt 0.846191 0.035693
vt 0.854017 0.035693
vt 0.865736 0.043457
vt 0.85791 0.043457
vt 0.85791 0.035693
vt 0.865736 0.035693
vt 0.836439 0.054199
vt 0.828613 0.054199
vt 0.828613 0.046436
vt 0.836439 0.046436
vt 0.256361 0.043457
vt 0.248535 0.043457
vt 0.248535 0.035693
vt 0.256361 0.035693
vt 0.268079 0.043457
vt 0.260254 0.043457
vt 0.260254 0.035693
vt 0.268079 0.035693
vt 0.080579 0.032715
vt 0.072754 0.032715
vt 0.072754 0.024951
vt 0.080579 0.024951
vt 0.848158 0.054199
vt 0.840332 0.054199
vt 0.840332 0.046436
vt 0.848158 0.046436
vt 0.877454 0.043457
vt 0.869629 0.043457
vt 0.869629 0.035693
vt 0.877454 0.035693
vt 0.279798 0.043457
vt 0.271973 0.043457
vt 0.271973 0.035693
vt 0.279798 0.035693
vt 0.283691 0.035693
vt 0.291517 0.035693
vt 0.291517 0.043457
vt 0.283691 0.043457
vt 0.852051 0.046436
vt 0.859876 0.046436
vt 0.859876 0.054199
vt 0.852051 0.054199
vt 0.084473 0.024951
vt 0.092298 0.024951
vt 0.092298 0.032715
vt 0.084473 0.032715
vt 0.29541 0.035693
vt 0.303236 0.035693
vt 0.303236 0.043457
vt 0.29541 0.043457
vt 0.569388 0.452572
vt 0.562158 0.455566
vt 0.558245 0.435896
vt 0.574921 0.447038
vt 0.569388 0.452572
vt 0.558245 0.435896
vt 0.577916 0.439808
vt 0.574921 0.447038
vt 0.558245 0.435896
vt 0.577916 0.431983
vt 0.577916 0.439808
vt 0.558245 0.435896
vt 0.574921 0.424753
vt 0.577916 0.431983
vt 0.558245 0.435896
vt 0.569388 0.41922
vt 0.574921 0.424753
vt 0.558245 0.435896
vt 0.562158 0.416225
vt 0.569388 0.41922
vt 0.558245 0.435896
vt 0.554332 0.416225
vt 0.562158 0.416225
vt 0.558245 0.435896
vt 0.547102 0.41922
vt 0.554332 0.416225
vt 0.558245 0.435896
vt 0.541569 0.424753
vt 0.547102 0.41922
vt 0.558245 0.435896
vt 0.538574 0.431983
vt 0.541569 0.424753
vt 0.558245 0.435896
vt 0.538574 0.439808
vt 0.538574 0.431983
vt 0.558245 0.435896
vt 0.541569 0.447038
vt 0.538574 0.439808
vt 0.558245 0.435896
vt 0.547102 0.452572
vt 0.541569 0.447038
vt 0.558245 0.435896
vt 0.554332 0.455566
vt 0.547102 0.452572
vt 0.558245 0.435896
vt 0.562158 0.455566
vt 0.554332 0.455566
vt 0.558245 0.435896
vn 0.980785 0 0.19509
vn 0.83147 0 0.55557
vn 0.55557 0 0.83147
vn 0.19509 0 0.980785
vn -0.19509 0 0.980785
vn -0.55557 0 0.83147
vn -0.83147 0 0.55557
vn -0.980785 0 0.19509
vn -0.980785 0 -0.19509
vn -0.83147 0 -0.55557
vn -0.55557 0 -0.83147
vn -0.19509 0 -0.980785
vn 0.19509 0 -0.980785
vn 0.55557 0 -0.83147
vn 0.83147 0 -0.55557
vn 0.980785 0 -0.19509
vn 0 1 0
f 17/1/1 18/2/2 2/3/2 1/4/1
f 18/5/2 19/6/3 3/7/3 2/8/2
f 19/9/3 20/10/4 4/11/4 3/12/3
f 20/13/4 21/14/5 5/15/5 4/16/4
f 21/17/5 22/18/6 6/19/6 5/20/5
f 22/21/6 23/22/7 7/23/7 6/24/6
f 23/25/7 24/26/8 8/27/8 7/28/7
f 24/29/8 25/30/9 9/31/9 8/32/8
f 25/33/9 26/34/10 10/35/10 9/36/9
f 26/37/10 27/38/11 11/39/11 10/40/10
f 27/41/11 28/42/12 12/43/12 11/44/11
f 28/45/12 29/46/13 13/47/13 12/48/12
f 29/49/13 30/50/14 14/51/14 13/52/13
f 30/53/14 31/54/15 15/55/15 14/56/14
f 31/57/15 32/58/16 16/59/16 15/60/15
f 32/61/16 17/62/1 1/63/1 16/64/16
f 18/65/17 17/66/17 33/67/17
f 19/68/17 18/69/17 33/70/17
f 20/71/17 19/72/17 33/73/17
f 21/74/17 20/75/17 33/76/17
f 22/77/17 21/78/17 33/79/17
f 23/80/17 22/81/17 33/82/17
f 24/83/17 23/84/17 33/85/17
f 25/86/17 24/87/17 33/88/17
f 26/89/17 25/90/17 33/91/17
f 27/92/17 26/93/17 33/94/17
f 28/95/17 27/96/17 33/97/17
f 29/98/17 28/99/17 33/100/17
f 30/101/17 29/102/17 33/103/17
f 31/104/17 30/105/17 33/106/17
f 32/107/17 31/108/17 33/109/17
f 17/110/17 32/111/17 33/112/17
