# AFL Fluid Tank V2 post_nw, generated by tools/build-fluid-tank-v2.mjs
mtllib post_nw.mtl
o post_nw__post_nw
usemtl fluid_tank
v 0.201264 0.0375 0.125149
v 0.186799 0.0375 0.160071
v 0.160071 0.0375 0.186799
v 0.125149 0.0375 0.201264
v 0.087351 0.0375 0.201264
v 0.052429 0.0375 0.186799
v 0.025701 0.0375 0.160071
v 0.011236 0.0375 0.125149
v 0.011236 0.0375 0.087351
v 0.025701 0.0375 0.052429
v 0.052429 0.0375 0.025701
v 0.087351 0.0375 0.011236
v 0.125149 0.0375 0.011236
v 0.160071 0.0375 0.025701
v 0.186799 0.0375 0.052429
v 0.201264 0.0375 0.087351
v 0.201264 0.9625 0.125149
v 0.186799 0.9625 0.160071
v 0.160071 0.9625 0.186799
v 0.125149 0.9625 0.201264
v 0.087351 0.9625 0.201264
v 0.052429 0.9625 0.186799
v 0.025701 0.9625 0.160071
v 0.011236 0.9625 0.125149
v 0.011236 0.9625 0.087351
v 0.025701 0.9625 0.052429
v 0.052429 0.9625 0.025701
v 0.087351 0.9625 0.011236
v 0.125149 0.9625 0.011236
v 0.160071 0.9625 0.025701
v 0.186799 0.9625 0.052429
v 0.201264 0.9625 0.087351
v 0.10625 0.0375 0.10625
v 0.10625 0.9625 0.10625
vt 0.779883 0.228991
vt 0.779883 0.236816
vt 0.588379 0.236816
vt 0.588379 0.228991
vt 0.58457 0.217272
vt 0.58457 0.225098
vt 0.393066 0.225098
vt 0.393066 0.217272
vt 0.193945 0.228991
vt 0.193945 0.236816
vt 0.002441 0.236816
vt 0.002441 0.228991
vt 0.779883 0.158678
vt 0.779883 0.166504
vt 0.588379 0.166504
vt 0.588379 0.158678
vt 0.783691 0.166504
vt 0.783691 0.158678
vt 0.975195 0.158678
vt 0.975195 0.166504
vt 0.588379 0.131348
vt 0.588379 0.123522
vt 0.779883 0.123522
vt 0.779883 0.131348
vt 0.002441 0.119629
vt 0.002441 0.111803
vt 0.193945 0.111803
vt 0.193945 0.119629
vt 0.588379 0.225098
vt 0.588379 0.217272
vt 0.779883 0.217272
vt 0.779883 0.225098
vt 0.002441 0.154785
vt 0.002441 0.14696
vt 0.193945 0.14696
vt 0.193945 0.154785
vt 0.002441 0.248535
vt 0.002441 0.24071
vt 0.193945 0.24071
vt 0.193945 0.248535
vt 0.197754 0.154785
vt 0.197754 0.14696
vt 0.389258 0.14696
vt 0.389258 0.154785
vt 0.975195 0.217272
vt 0.975195 0.225098
vt 0.783691 0.225098
vt 0.783691 0.217272
vt 0.58457 0.14696
vt 0.58457 0.154785
vt 0.393066 0.154785
vt 0.393066 0.14696
vt 0.389258 0.24071
vt 0.389258 0.248535
vt 0.197754 0.248535
vt 0.197754 0.24071
vt 0.779883 0.14696
vt 0.779883 0.154785
vt 0.588379 0.154785
vt 0.588379 0.14696
vt 0.193945 0.205553
vt 0.193945 0.213379
vt 0.002441 0.213379
vt 0.002441 0.205553
vt 0.300432 0.435896
vt 0.304345 0.416225
vt 0.311575 0.41922
vt 0.300432 0.435896
vt 0.311575 0.41922
vt 0.317109 0.424753
vt 0.300432 0.435896
vt 0.317109 0.424753
vt 0.320103 0.431983
vt 0.300432 0.435896
vt 0.320103 0.431983
vt 0.320103 0.439808
vt 0.300432 0.435896
vt 0.320103 0.439808
vt 0.317109 0.447038
vt 0.300432 0.435896
vt 0.317109 0.447038
vt 0.311575 0.452572
vt 0.300432 0.435896
vt 0.311575 0.452572
vt 0.304345 0.455566
vt 0.300432 0.435896
vt 0.304345 0.455566
vt 0.29652 0.455566
vt 0.300432 0.435896
vt 0.29652 0.455566
vt 0.28929 0.452572
vt 0.300432 0.435896
vt 0.28929 0.452572
vt 0.283756 0.447038
vt 0.300432 0.435896
vt 0.283756 0.447038
vt 0.280762 0.439808
vt 0.300432 0.435896
vt 0.280762 0.439808
vt 0.280762 0.431983
vt 0.300432 0.435896
vt 0.280762 0.431983
vt 0.283756 0.424753
vt 0.300432 0.435896
vt 0.283756 0.424753
vt 0.28929 0.41922
vt 0.300432 0.435896
vt 0.28929 0.41922
vt 0.29652 0.416225
vt 0.300432 0.435896
vt 0.29652 0.416225
vt 0.304345 0.416225
vt 0.354544 0.452572
vt 0.347314 0.455566
vt 0.343401 0.435896
vt 0.360077 0.447038
vt 0.354544 0.452572
vt 0.343401 0.435896
vt 0.363072 0.439808
vt 0.360077 0.447038
vt 0.343401 0.435896
vt 0.363072 0.431983
vt 0.363072 0.439808
vt 0.343401 0.435896
vt 0.360077 0.424753
vt 0.363072 0.431983
vt 0.343401 0.435896
vt 0.354544 0.41922
vt 0.360077 0.424753
vt 0.343401 0.435896
vt 0.347314 0.416225
vt 0.354544 0.41922
vt 0.343401 0.435896
vt 0.339488 0.416225
vt 0.347314 0.416225
vt 0.343401 0.435896
vt 0.332259 0.41922
vt 0.339488 0.416225
vt 0.343401 0.435896
vt 0.326725 0.424753
vt 0.332259 0.41922
vt 0.343401 0.435896
vt 0.32373 0.431983
vt 0.326725 0.424753
vt 0.343401 0.435896
vt 0.32373 0.439808
vt 0.32373 0.431983
vt 0.343401 0.435896
vt 0.326725 0.447038
vt 0.32373 0.439808
vt 0.343401 0.435896
vt 0.332259 0.452572
vt 0.326725 0.447038
vt 0.343401 0.435896
vt 0.339488 0.455566
vt 0.332259 0.452572
vt 0.343401 0.435896
vt 0.347314 0.455566
vt 0.339488 0.455566
vt 0.343401 0.435896
vn 0.980785 0 0.19509
vn 0.83147 0 0.55557
vn 0.55557 0 0.83147
vn 0.19509 0 0.980785
vn -0.19509 0 0.980785
vn -0.55557 0 0.83147
vn -0.83147 0 0.55557
vn -0.980785 0 0.19509
vn -0.980785 0 -0.19509
vn -0.83147 0 -0.55557
vn -0.55557 0 -0.83147
vn -0.19509 0 -0.980785
vn 0.19509 0 -0.980785
vn 0.55557 0 -0.83147
vn 0.83147 0 -0.55557
vn 0.980785 0 -0.19509
vn 0 -1 0
vn 0 1 0
f 17/1/1 18/2/2 2/3/2 1/4/1
f 18/5/2 19/6/3 3/7/3 2/8/2
f 19/9/3 20/10/4 4/11/4 3/12/3
f 20/13/4 21/14/5 5/15/5 4/16/4
f 21/17/5 22/18/6 6/19/6 5/20/5
f 22/21/6 23/22/7 7/23/7 6/24/6
f 23/25/7 24/26/8 8/27/8 7/28/7
f 24/29/8 25/30/9 9/31/9 8/32/8
f 25/33/9 26/34/10 10/35/10 9/36/9
f 26/37/10 27/38/11 11/39/11 10/40/10
f 27/41/11 28/42/12 12/43/12 11/44/11
f 28/45/12 29/46/13 13/47/13 12/48/12
f 29/49/13 30/50/14 14/51/14 13/52/13
f 30/53/14 31/54/15 15/55/15 14/56/14
f 31/57/15 32/58/16 16/59/16 15/60/15
f 32/61/16 17/62/1 1/63/1 16/64/16
f 33/65/17 1/66/17 2/67/17
f 33/68/17 2/69/17 3/70/17
f 33/71/17 3/72/17 4/73/17
f 33/74/17 4/75/17 5/76/17
f 33/77/17 5/78/17 6/79/17
f 33/80/17 6/81/17 7/82/17
f 33/83/17 7/84/17 8/85/17
f 33/86/17 8/87/17 9/88/17
f 33/89/17 9/90/17 10/91/17
f 33/92/17 10/93/17 11/94/17
f 33/95/17 11/96/17 12/97/17
f 33/98/17 12/99/17 13/100/17
f 33/101/17 13/102/17 14/103/17
f 33/104/17 14/105/17 15/106/17
f 33/107/17 15/108/17 16/109/17
f 33/110/17 16/111/17 1/112/17
f 18/113/18 17/114/18 34/115/18
f 19/116/18 18/117/18 34/118/18
f 20/119/18 19/120/18 34/121/18
f 21/122/18 20/123/18 34/124/18
f 22/125/18 21/126/18 34/127/18
f 23/128/18 22/129/18 34/130/18
f 24/131/18 23/132/18 34/133/18
f 25/134/18 24/135/18 34/136/18
f 26/137/18 25/138/18 34/139/18
f 27/140/18 26/141/18 34/142/18
f 28/143/18 27/144/18 34/145/18
f 29/146/18 28/147/18 34/148/18
f 30/149/18 29/150/18 34/151/18
f 31/152/18 30/153/18 34/154/18
f 32/155/18 31/156/18 34/157/18
f 17/158/18 32/159/18 34/160/18
