# AFL Heat-Resistant Fluid Tank band_south, generated by tools/build-fluid-tank-v2.mjs
mtllib band_south.mtl
o band_south__band_south
usemtl heat_resistant_fluid_tank
v 0 0.90625 0.90125
v 1 0.90625 0.90125
v 1 0.90625 0.8825
v 0 0.90625 0.8825
v 0 0.95625 0.90125
v 1 0.95625 0.90125
v 1 0.95625 0.8825
v 0 0.95625 0.8825
v 0 0.90625 0.90125
v 1 0.90625 0.90125
v 1 0.90625 0.8825
v 0 0.90625 0.8825
v 0 0.95625 0.90125
v 1 0.95625 0.90125
v 1 0.95625 0.8825
v 0 0.95625 0.8825
vt 0.58252 0.30127
vt 0.777832 0.30127
vt 0.777832 0.311035
vt 0.58252 0.311035
vt 0.226074 0.010254
vt 0.226074 0.006592
vt 0.23584 0.006592
vt 0.23584 0.010254
vt 0.780762 0.30127
vt 0.976074 0.30127
vt 0.976074 0.311035
vt 0.780762 0.311035
vt 0.248535 0.006592
vt 0.248535 0.010254
vt 0.23877 0.010254
vt 0.23877 0.006592
vt 0.197754 0.01709
vt 0.002441 0.01709
vt 0.002441 0.013428
vt 0.002441 0.013428
vt 0.197754 0.013428
vt 0.197754 0.01709
vt 0.395996 0.013428
vt 0.395996 0.01709
vt 0.200684 0.01709
vt 0.200684 0.01709
vt 0.200684 0.013428
vt 0.395996 0.013428
vn 0 0 1
vn 1 0 0
vn 0 0 -1
vn -1 0 0
vn 0 -1 0
vn 0 1 0
f 1/1/1 2/2/1 6/3/1 5/4/1
f 2/5/2 3/6/2 7/7/2 6/8/2
f 3/9/3 4/10/3 8/11/3 7/12/3
f 4/13/4 1/14/4 5/15/4 8/16/4
f 10/17/5 9/18/5 12/19/5
f 12/20/5 11/21/5 10/22/5
f 16/23/6 13/24/6 14/25/6
f 14/26/6 15/27/6 16/28/6
