# AFL Heat-Resistant Fluid Tank band_west, generated by tools/build-fluid-tank-v2.mjs
mtllib band_west.mtl
o band_west__band_west
usemtl heat_resistant_fluid_tank
v 0.09875 0.909375 1
v 0.1175 0.909375 1
v 0.1175 0.909375 0
v 0.09875 0.909375 0
v 0.09875 0.953125 1
v 0.1175 0.953125 1
v 0.1175 0.953125 0
v 0.09875 0.953125 0
v 0.09875 0.909375 1
v 0.1175 0.909375 1
v 0.1175 0.909375 0
v 0.09875 0.909375 0
v 0.09875 0.953125 1
v 0.1175 0.953125 1
v 0.1175 0.953125 0
v 0.09875 0.953125 0
vt 0.251465 0.010254
vt 0.251465 0.006592
vt 0.26001 0.006592
vt 0.26001 0.010254
vt 0.402832 0.286621
vt 0.20752 0.286621
vt 0.20752 0.278076
vt 0.402832 0.278076
vt 0.263184 0.010254
vt 0.263184 0.006592
vt 0.271729 0.006592
vt 0.271729 0.010254
vt 0.405762 0.278076
vt 0.601074 0.278076
vt 0.601074 0.286621
vt 0.405762 0.286621
vt 0.594238 0.013428
vt 0.594238 0.01709
vt 0.398926 0.01709
vt 0.398926 0.01709
vt 0.398926 0.013428
vt 0.594238 0.013428
vt 0.597168 0.013428
vt 0.79248 0.013428
vt 0.79248 0.01709
vt 0.79248 0.01709
vt 0.597168 0.01709
vt 0.597168 0.013428
vn 0 0 1
vn 1 0 0
vn 0 0 -1
vn -1 0 0
vn 0 -1 0
vn 0 1 0
f 1/1/1 2/2/1 6/3/1 5/4/1
f 2/5/2 3/6/2 7/7/2 6/8/2
f 3/9/3 4/10/3 8/11/3 7/12/3
f 4/13/4 1/14/4 5/15/4 8/16/4
f 10/17/5 9/18/5 12/19/5
f 12/20/5 11/21/5 10/22/5
f 16/23/6 13/24/6 14/25/6
f 14/26/6 15/27/6 16/28/6
