# AFL Heat-Resistant Fluid Tank band_east, generated by tools/build-fluid-tank-v2.mjs
mtllib band_east.mtl
o band_east__band_east
usemtl heat_resistant_fluid_tank
v 0.8825 0.909375 1
v 0.90125 0.909375 1
v 0.90125 0.909375 0
v 0.8825 0.909375 0
v 0.8825 0.953125 1
v 0.90125 0.953125 1
v 0.90125 0.953125 0
v 0.8825 0.953125 0
v 0.8825 0.909375 1
v 0.90125 0.909375 1
v 0.90125 0.909375 0
v 0.8825 0.909375 0
v 0.8825 0.953125 1
v 0.90125 0.953125 1
v 0.90125 0.953125 0
v 0.8825 0.953125 0
vt 0.274902 0.010254
vt 0.274902 0.006592
vt 0.283447 0.006592
vt 0.283447 0.010254
vt 0.799316 0.286621
vt 0.604004 0.286621
vt 0.604004 0.278076
vt 0.799316 0.278076
vt 0.286621 0.010254
vt 0.286621 0.006592
vt 0.295166 0.006592
vt 0.295166 0.010254
vt 0.802246 0.278076
vt 0.997559 0.278076
vt 0.997559 0.286621
vt 0.802246 0.286621
vt 0.990723 0.013428
vt 0.990723 0.01709
vt 0.79541 0.01709
vt 0.79541 0.01709
vt 0.79541 0.013428
vt 0.990723 0.013428
vt 0.002441 0.006592
vt 0.197754 0.006592
vt 0.197754 0.010254
vt 0.197754 0.010254
vt 0.002441 0.010254
vt 0.002441 0.006592
vn 0 0 1
vn 1 0 0
vn 0 0 -1
vn -1 0 0
vn 0 -1 0
vn 0 1 0
f 1/1/1 2/2/1 6/3/1 5/4/1
f 2/5/2 3/6/2 7/7/2 6/8/2
f 3/9/3 4/10/3 8/11/3 7/12/3
f 4/13/4 1/14/4 5/15/4 8/16/4
f 10/17/5 9/18/5 12/19/5
f 12/20/5 11/21/5 10/22/5
f 16/23/6 13/24/6 14/25/6
f 14/26/6 15/27/6 16/28/6
