# AFL Heat-Resistant Fluid Tank deck_top, generated by tools/build-fluid-tank-v2.mjs
mtllib deck_top.mtl
o deck_top__deck_top_plate
usemtl heat_resistant_fluid_tank
v 0 0.9625 1
v 1 0.9625 1
v 1 0.9625 0
v 0 0.9625 0
v 0 1 1
v 1 1 1
v 1 1 0
v 0 1 0
v 0.19375 0.9625 0.19375
v 0.80625 0.9625 0.19375
v 0.80625 0.9625 0.80625
v 0.19375 0.9625 0.80625
v 0.19375 1 0.19375
v 0.80625 1 0.19375
v 0.80625 1 0.80625
v 0.19375 1 0.80625
v 0 0.9625 1
v 1 0.9625 1
v 1 0.9625 0
v 0 0.9625 0
v 0.19375 0.9625 0.19375
v 0.80625 0.9625 0.19375
v 0.80625 0.9625 0.80625
v 0.19375 0.9625 0.80625
v 0 1 1
v 1 1 1
v 1 1 0
v 0 1 0
v 0.19375 1 0.19375
v 0.80625 1 0.19375
v 0.80625 1 0.80625
v 0.19375 1 0.80625
vt 0.736816 0.137695
vt 0.932129 0.137695
vt 0.932129 0.14502
vt 0.736816 0.14502
vt 0.197754 0.134277
vt 0.002441 0.134277
vt 0.002441 0.126953
vt 0.197754 0.126953
vt 0.200684 0.126953
vt 0.395996 0.126953
vt 0.395996 0.134277
vt 0.200684 0.134277
vt 0.398926 0.126953
vt 0.594238 0.126953
vt 0.594238 0.134277
vt 0.398926 0.134277
vt 0.159668 0.083984
vt 0.279297 0.083984
vt 0.279297 0.091309
vt 0.159668 0.091309
vt 0.282715 0.083984
vt 0.402344 0.083984
vt 0.402344 0.091309
vt 0.282715 0.091309
vt 0.405762 0.083984
vt 0.525391 0.083984
vt 0.525391 0.091309
vt 0.405762 0.091309
vt 0.648438 0.091309
vt 0.528809 0.091309
vt 0.528809 0.083984
vt 0.648438 0.083984
vt 0.159912 0.840088
vt 0.197754 0.802246
vt 0.197754 0.997559
vt 0.159912 0.959717
vt 0.159912 0.840088
vt 0.197754 0.997559
vt 0.159912 0.959717
vt 0.197754 0.997559
vt 0.002441 0.997559
vt 0.040283 0.959717
vt 0.159912 0.959717
vt 0.002441 0.997559
vt 0.040283 0.840088
vt 0.040283 0.959717
vt 0.002441 0.997559
vt 0.197754 0.802246
vt 0.159912 0.840088
vt 0.040283 0.840088
vt 0.002441 0.802246
vt 0.197754 0.802246
vt 0.040283 0.840088
vt 0.002441 0.997559
vt 0.002441 0.802246
vt 0.040283 0.840088
vt 0.395996 0.802246
vt 0.395996 0.997559
vt 0.358154 0.959717
vt 0.395996 0.802246
vt 0.358154 0.959717
vt 0.358154 0.840088
vt 0.200684 0.802246
vt 0.395996 0.802246
vt 0.358154 0.840088
vt 0.200684 0.802246
vt 0.358154 0.840088
vt 0.238525 0.840088
vt 0.200684 0.802246
vt 0.238525 0.840088
vt 0.238525 0.959717
vt 0.238525 0.959717
vt 0.358154 0.959717
vt 0.395996 0.997559
vt 0.238525 0.959717
vt 0.395996 0.997559
vt 0.200684 0.997559
vt 0.238525 0.959717
vt 0.200684 0.997559
vt 0.200684 0.802246
vn 0 0 1
vn 1 0 0
vn 0 0 -1
vn -1 0 0
vn 0 -1 0
vn 0 1 0
f 1/1/1 2/2/1 6/3/1 5/4/1
f 2/5/2 3/6/2 7/7/2 6/8/2
f 3/9/3 4/10/3 8/11/3 7/12/3
f 4/13/4 1/14/4 5/15/4 8/16/4
f 9/17/1 10/18/1 14/19/1 13/20/1
f 10/21/4 11/22/4 15/23/4 14/24/4
f 11/25/3 12/26/3 16/27/3 15/28/3
f 12/29/2 9/30/2 13/31/2 16/32/2
f 23/33/5 18/34/5 17/35/5
f 24/36/5 23/37/5 17/38/5
f 24/39/5 17/40/5 20/41/5
f 21/42/5 24/43/5 20/44/5
f 22/45/5 21/46/5 20/47/5
f 18/48/5 23/49/5 22/50/5
f 19/51/5 18/52/5 22/53/5
f 20/54/5 19/55/5 22/56/5
f 25/57/6 26/58/6 31/59/6
f 25/60/6 31/61/6 32/62/6
f 28/63/6 25/64/6 32/65/6
f 28/66/6 32/67/6 29/68/6
f 28/69/6 29/70/6 30/71/6
f 30/72/6 31/73/6 26/74/6
f 30/75/6 26/76/6 27/77/6
f 30/78/6 27/79/6 28/80/6
o deck_top__deck_top_lining
usemtl heat_resistant_fluid_tank
v 0.19375 0.9625 0.80625
v 0.80625 0.9625 0.80625
v 0.80625 0.9625 0.19375
v 0.19375 0.9625 0.19375
v 0.19375 1 0.80625
v 0.80625 1 0.80625
v 0.80625 1 0.19375
v 0.19375 1 0.19375
v 0.25 0.9625 0.25
v 0.75 0.9625 0.25
v 0.75 0.9625 0.75
v 0.25 0.9625 0.75
v 0.25 1 0.25
v 0.75 1 0.25
v 0.75 1 0.75
v 0.25 1 0.75
v 0.19375 0.9625 0.80625
v 0.80625 0.9625 0.80625
v 0.80625 0.9625 0.19375
v 0.19375 0.9625 0.19375
v 0.25 0.9625 0.25
v 0.75 0.9625 0.25
v 0.75 0.9625 0.75
v 0.25 0.9625 0.75
v 0.19375 1 0.80625
v 0.80625 1 0.80625
v 0.80625 1 0.19375
v 0.19375 1 0.19375
v 0.25 1 0.25
v 0.75 1 0.25
v 0.75 1 0.75
v 0.25 1 0.75
vt 0.651855 0.083984
vt 0.771484 0.083984
vt 0.771484 0.091309
vt 0.651855 0.091309
vt 0.894531 0.091309
vt 0.774902 0.091309
vt 0.774902 0.083984
vt 0.894531 0.083984
vt 0.002441 0.073242
vt 0.12207 0.073242
vt 0.12207 0.080566
vt 0.002441 0.080566
vt 0.125488 0.073242
vt 0.245117 0.073242
vt 0.245117 0.080566
vt 0.125488 0.080566
vt 0.248535 0.0625
vt 0.346191 0.0625
vt 0.346191 0.069824
vt 0.248535 0.069824
vt 0.349121 0.0625
vt 0.446777 0.0625
vt 0.446777 0.069824
vt 0.349121 0.069824
vt 0.449707 0.0625
vt 0.547363 0.0625
vt 0.547363 0.069824
vt 0.449707 0.069824
vt 0.647949 0.069824
vt 0.550293 0.069824
vt 0.550293 0.0625
vt 0.647949 0.0625
vt 0.478271 0.533447
vt 0.489258 0.522461
vt 0.489258 0.64209
vt 0.478271 0.631104
vt 0.478271 0.533447
vt 0.489258 0.64209
vt 0.478271 0.631104
vt 0.489258 0.64209
vt 0.369629 0.64209
vt 0.380615 0.631104
vt 0.478271 0.631104
vt 0.369629 0.64209
vt 0.380615 0.533447
vt 0.380615 0.631104
vt 0.369629 0.64209
vt 0.489258 0.522461
vt 0.478271 0.533447
vt 0.380615 0.533447
vt 0.369629 0.522461
vt 0.489258 0.522461
vt 0.380615 0.533447
vt 0.369629 0.64209
vt 0.369629 0.522461
vt 0.380615 0.533447
vt 0.612305 0.522461
vt 0.612305 0.64209
vt 0.601318 0.631104
vt 0.612305 0.522461
vt 0.601318 0.631104
vt 0.601318 0.533447
vt 0.492676 0.522461
vt 0.612305 0.522461
vt 0.601318 0.533447
vt 0.492676 0.522461
vt 0.601318 0.533447
vt 0.503662 0.533447
vt 0.492676 0.522461
vt 0.503662 0.533447
vt 0.503662 0.631104
vt 0.503662 0.631104
vt 0.601318 0.631104
vt 0.612305 0.64209
vt 0.503662 0.631104
vt 0.612305 0.64209
vt 0.492676 0.64209
vt 0.503662 0.631104
vt 0.492676 0.64209
vt 0.492676 0.522461
vn 0 0 1
vn 1 0 0
vn 0 0 -1
vn -1 0 0
vn 0 -1 0
vn 0 1 0
f 33/81/7 34/82/7 38/83/7 37/84/7
f 34/85/8 35/86/8 39/87/8 38/88/8
f 35/89/9 36/90/9 40/91/9 39/92/9
f 36/93/10 33/94/10 37/95/10 40/96/10
f 41/97/7 42/98/7 46/99/7 45/100/7
f 42/101/10 43/102/10 47/103/10 46/104/10
f 43/105/9 44/106/9 48/107/9 47/108/9
f 44/109/8 41/110/8 45/111/8 48/112/8
f 55/113/11 50/114/11 49/115/11
f 56/116/11 55/117/11 49/118/11
f 56/119/11 49/120/11 52/121/11
f 53/122/11 56/123/11 52/124/11
f 54/125/11 53/126/11 52/127/11
f 50/128/11 55/129/11 54/130/11
f 51/131/11 50/132/11 54/133/11
f 52/134/11 51/135/11 54/136/11
f 57/137/12 58/138/12 63/139/12
f 57/140/12 63/141/12 64/142/12
f 60/143/12 57/144/12 64/145/12
f 60/146/12 64/147/12 61/148/12
f 60/149/12 61/150/12 62/151/12
f 62/152/12 63/153/12 58/154/12
f 62/155/12 58/156/12 59/157/12
f 62/158/12 59/159/12 60/160/12
o deck_top__deck_top_throat
usemtl heat_resistant_fluid_tank
v 0.25 0.93125 0.75
v 0.75 0.93125 0.75
v 0.75 0.93125 0.25
v 0.25 0.93125 0.25
v 0.25 0.96375 0.75
v 0.75 0.96375 0.75
v 0.75 0.96375 0.25
v 0.25 0.96375 0.25
v 0.25 0.93125 0.75
v 0.75 0.93125 0.75
v 0.75 0.93125 0.25
v 0.25 0.93125 0.25
v 0.25 0.96375 0.75
v 0.75 0.96375 0.75
v 0.75 0.96375 0.25
v 0.25 0.96375 0.25
vt 0.281738 0.03125
vt 0.379395 0.03125
vt 0.379395 0.037598
vt 0.281738 0.037598
vt 0.47998 0.037598
vt 0.382324 0.037598
vt 0.382324 0.03125
vt 0.47998 0.03125
vt 0.48291 0.03125
vt 0.580566 0.03125
vt 0.580566 0.037598
vt 0.48291 0.037598
vt 0.583496 0.03125
vt 0.681152 0.03125
vt 0.681152 0.037598
vt 0.583496 0.037598
vt 0.959473 0.544434
vt 0.959473 0.64209
vt 0.861816 0.64209
vt 0.861816 0.64209
vt 0.861816 0.544434
vt 0.959473 0.544434
vt 0.002441 0.387207
vt 0.100098 0.387207
vt 0.100098 0.484863
vt 0.100098 0.484863
vt 0.002441 0.484863
vt 0.002441 0.387207
vn 0 0 1
vn 1 0 0
vn 0 0 -1
vn -1 0 0
vn 0 -1 0
vn 0 1 0
f 65/161/13 66/162/13 70/163/13 69/164/13
f 66/165/14 67/166/14 71/167/14 70/168/14
f 67/169/15 68/170/15 72/171/15 71/172/15
f 68/173/16 65/174/16 69/175/16 72/176/16
f 74/177/17 73/178/17 76/179/17
f 76/180/17 75/181/17 74/182/17
f 80/183/18 77/184/18 78/185/18
f 78/186/18 79/187/18 80/188/18
o deck_top__deck_top_studs
usemtl heat_resistant_fluid_tank
v 0.232108 1 0.19625
v 0.209375 1 0.183125
v 0.186642 1 0.19625
v 0.186642 1 0.2225
v 0.209375 1 0.235625
v 0.232108 1 0.2225
v 0.232108 1.02 0.19625
v 0.209375 1.02 0.183125
v 0.186642 1.02 0.19625
v 0.186642 1.02 0.2225
v 0.209375 1.02 0.235625
v 0.232108 1.02 0.2225
v 0.232108 1 0.19625
v 0.209375 1 0.183125
v 0.186642 1 0.19625
v 0.186642 1 0.2225
v 0.209375 1 0.235625
v 0.232108 1 0.2225
v 0.232108 1.02 0.19625
v 0.209375 1.02 0.183125
v 0.186642 1.02 0.19625
v 0.186642 1.02 0.2225
v 0.209375 1.02 0.235625
v 0.232108 1.02 0.2225
v 0.232108 1 0.7775
v 0.209375 1 0.764375
v 0.186642 1 0.7775
v 0.186642 1 0.80375
v 0.209375 1 0.816875
v 0.232108 1 0.80375
v 0.232108 1.02 0.7775
v 0.209375 1.02 0.764375
v 0.186642 1.02 0.7775
v 0.186642 1.02 0.80375
v 0.209375 1.02 0.816875
v 0.232108 1.02 0.80375
v 0.232108 1 0.7775
v 0.209375 1 0.764375
v 0.186642 1 0.7775
v 0.186642 1 0.80375
v 0.209375 1 0.816875
v 0.232108 1 0.80375
v 0.232108 1.02 0.7775
v 0.209375 1.02 0.764375
v 0.186642 1.02 0.7775
v 0.186642 1.02 0.80375
v 0.209375 1.02 0.816875
v 0.232108 1.02 0.80375
v 0.813358 1 0.19625
v 0.790625 1 0.183125
v 0.767892 1 0.19625
v 0.767892 1 0.2225
v 0.790625 1 0.235625
v 0.813358 1 0.2225
v 0.813358 1.02 0.19625
v 0.790625 1.02 0.183125
v 0.767892 1.02 0.19625
v 0.767892 1.02 0.2225
v 0.790625 1.02 0.235625
v 0.813358 1.02 0.2225
v 0.813358 1 0.19625
v 0.790625 1 0.183125
v 0.767892 1 0.19625
v 0.767892 1 0.2225
v 0.790625 1 0.235625
v 0.813358 1 0.2225
v 0.813358 1.02 0.19625
v 0.790625 1.02 0.183125
v 0.767892 1.02 0.19625
v 0.767892 1.02 0.2225
v 0.790625 1.02 0.235625
v 0.813358 1.02 0.2225
v 0.813358 1 0.7775
v 0.790625 1 0.764375
v 0.767892 1 0.7775
v 0.767892 1 0.80375
v 0.790625 1 0.816875
v 0.813358 1 0.80375
v 0.813358 1.02 0.7775
v 0.790625 1.02 0.764375
v 0.767892 1.02 0.7775
v 0.767892 1.02 0.80375
v 0.790625 1.02 0.816875
v 0.813358 1.02 0.80375
v 0.813358 1 0.7775
v 0.790625 1 0.764375
v 0.767892 1 0.7775
v 0.767892 1 0.80375
v 0.790625 1 0.816875
v 0.813358 1 0.80375
v 0.813358 1.02 0.7775
v 0.790625 1.02 0.764375
v 0.767892 1.02 0.7775
v 0.767892 1.02 0.80375
v 0.790625 1.02 0.816875
v 0.813358 1.02 0.80375
vt 0.108154 0.026855
vt 0.103027 0.026855
vt 0.103027 0.022949
vt 0.108154 0.022949
vt 0.384277 0.022949
vt 0.389404 0.022949
vt 0.389404 0.026855
vt 0.384277 0.026855
vt 0.111816 0.022949
vt 0.116943 0.022949
vt 0.116943 0.026855
vt 0.111816 0.026855
vt 0.45459 0.022949
vt 0.459717 0.022949
vt 0.459717 0.026855
vt 0.45459 0.026855
vt 0.125732 0.026855
vt 0.120605 0.026855
vt 0.120605 0.022949
vt 0.125732 0.022949
vt 0.134521 0.026855
vt 0.129395 0.026855
vt 0.129395 0.022949
vt 0.134521 0.022949
vt 0.979004 0.306595
vt 0.981567 0.302155
vt 0.986694 0.302155
vt 0.981567 0.311035
vt 0.979004 0.306595
vt 0.986694 0.302155
vt 0.986694 0.311035
vt 0.981567 0.311035
vt 0.986694 0.302155
vt 0.986694 0.302155
vt 0.989258 0.306595
vt 0.986694 0.311035
vt 0.010132 0.286621
vt 0.005005 0.286621
vt 0.002441 0.282181
vt 0.010132 0.286621
vt 0.002441 0.282181
vt 0.005005 0.277741
vt 0.010132 0.286621
vt 0.005005 0.277741
vt 0.010132 0.277741
vt 0.010132 0.277741
vt 0.012695 0.282181
vt 0.010132 0.286621
vt 0.143311 0.026855
vt 0.138184 0.026855
vt 0.138184 0.022949
vt 0.143311 0.022949
vt 0.463379 0.022949
vt 0.468506 0.022949
vt 0.468506 0.026855
vt 0.463379 0.026855
vt 0.146973 0.022949
vt 0.1521 0.022949
vt 0.1521 0.026855
vt 0.146973 0.026855
vt 0.393066 0.022949
vt 0.398193 0.022949
vt 0.398193 0.026855
vt 0.393066 0.026855
vt 0.160889 0.026855
vt 0.155762 0.026855
vt 0.155762 0.022949
vt 0.160889 0.022949
vt 0.169678 0.026855
vt 0.164551 0.026855
vt 0.164551 0.022949
vt 0.169678 0.022949
vt 0.016113 0.282181
vt 0.018677 0.277741
vt 0.023804 0.277741
vt 0.018677 0.286621
vt 0.016113 0.282181
vt 0.023804 0.277741
vt 0.023804 0.286621
vt 0.018677 0.286621
vt 0.023804 0.277741
vt 0.023804 0.277741
vt 0.026367 0.282181
vt 0.023804 0.286621
vt 0.037476 0.286621
vt 0.032349 0.286621
vt 0.029785 0.282181
vt 0.037476 0.286621
vt 0.029785 0.282181
vt 0.032349 0.277741
vt 0.037476 0.286621
vt 0.032349 0.277741
vt 0.037476 0.277741
vt 0.037476 0.277741
vt 0.040039 0.282181
vt 0.037476 0.286621
vt 0.406982 0.026855
vt 0.401855 0.026855
vt 0.401855 0.022949
vt 0.406982 0.022949
vt 0.17334 0.022949
vt 0.178467 0.022949
vt 0.178467 0.026855
vt 0.17334 0.026855
vt 0.182129 0.022949
vt 0.187256 0.022949
vt 0.187256 0.026855
vt 0.182129 0.026855
vt 0.190918 0.022949
vt 0.196045 0.022949
vt 0.196045 0.026855
vt 0.190918 0.026855
vt 0.477295 0.026855
vt 0.472168 0.026855
vt 0.472168 0.022949
vt 0.477295 0.022949
vt 0.204834 0.026855
vt 0.199707 0.026855
vt 0.199707 0.022949
vt 0.204834 0.022949
vt 0.043457 0.282181
vt 0.046021 0.277741
vt 0.051147 0.277741
vt 0.046021 0.286621
vt 0.043457 0.282181
vt 0.051147 0.277741
vt 0.051147 0.286621
vt 0.046021 0.286621
vt 0.051147 0.277741
vt 0.051147 0.277741
vt 0.053711 0.282181
vt 0.051147 0.286621
vt 0.064819 0.286621
vt 0.059692 0.286621
vt 0.057129 0.282181
vt 0.064819 0.286621
vt 0.057129 0.282181
vt 0.059692 0.277741
vt 0.064819 0.286621
vt 0.059692 0.277741
vt 0.064819 0.277741
vt 0.064819 0.277741
vt 0.067383 0.282181
vt 0.064819 0.286621
vt 0.486084 0.026855
vt 0.480957 0.026855
vt 0.480957 0.022949
vt 0.486084 0.022949
vt 0.208496 0.022949
vt 0.213623 0.022949
vt 0.213623 0.026855
vt 0.208496 0.026855
vt 0.217285 0.022949
vt 0.222412 0.022949
vt 0.222412 0.026855
vt 0.217285 0.026855
vt 0.226074 0.022949
vt 0.231201 0.022949
vt 0.231201 0.026855
vt 0.226074 0.026855
vt 0.415771 0.026855
vt 0.410645 0.026855
vt 0.410645 0.022949
vt 0.415771 0.022949
vt 0.23999 0.026855
vt 0.234863 0.026855
vt 0.234863 0.022949
vt 0.23999 0.022949
vt 0.070801 0.282181
vt 0.073364 0.277741
vt 0.078491 0.277741
vt 0.073364 0.286621
vt 0.070801 0.282181
vt 0.078491 0.277741
vt 0.078491 0.286621
vt 0.073364 0.286621
vt 0.078491 0.277741
vt 0.078491 0.277741
vt 0.081055 0.282181
vt 0.078491 0.286621
vt 0.092163 0.286621
vt 0.087036 0.286621
vt 0.084473 0.282181
vt 0.092163 0.286621
vt 0.084473 0.282181
vt 0.087036 0.277741
vt 0.092163 0.286621
vt 0.087036 0.277741
vt 0.092163 0.277741
vt 0.092163 0.277741
vt 0.094727 0.282181
vt 0.092163 0.286621
vn 0.5 0 -0.866025
vn -0.5 0 -0.866025
vn -1 0 0
vn -0.5 0 0.866025
vn 0.5 0 0.866025
vn 1 0 0
vn 0 -1 0
vn 0 1 0
f 81/189/19 82/190/19 88/191/19 87/192/19
f 82/193/20 83/194/20 89/195/20 88/196/20
f 83/197/21 84/198/21 90/199/21 89/200/21
f 84/201/22 85/202/22 91/203/22 90/204/22
f 85/205/23 86/206/23 92/207/23 91/208/23
f 86/209/24 81/210/24 87/211/24 92/212/24
f 94/213/25 93/214/25 98/215/25
f 95/216/25 94/217/25 98/218/25
f 96/219/25 95/220/25 98/221/25
f 98/222/25 97/223/25 96/224/25
f 104/225/26 99/226/26 100/227/26
f 104/228/26 100/229/26 101/230/26
f 104/231/26 101/232/26 102/233/26
f 102/234/26 103/235/26 104/236/26
f 105/237/19 106/238/19 112/239/19 111/240/19
f 106/241/20 107/242/20 113/243/20 112/244/20
f 107/245/21 108/246/21 114/247/21 113/248/21
f 108/249/22 109/250/22 115/251/22 114/252/22
f 109/253/23 110/254/23 116/255/23 115/256/23
f 110/257/24 105/258/24 111/259/24 116/260/24
f 118/261/25 117/262/25 122/263/25
f 119/264/25 118/265/25 122/266/25
f 120/267/25 119/268/25 122/269/25
f 122/270/25 121/271/25 120/272/25
f 128/273/26 123/274/26 124/275/26
f 128/276/26 124/277/26 125/278/26
f 128/279/26 125/280/26 126/281/26
f 126/282/26 127/283/26 128/284/26
f 129/285/19 130/286/19 136/287/19 135/288/19
f 130/289/20 131/290/20 137/291/20 136/292/20
f 131/293/21 132/294/21 138/295/21 137/296/21
f 132/297/22 133/298/22 139/299/22 138/300/22
f 133/301/23 134/302/23 140/303/23 139/304/23
f 134/305/24 129/306/24 135/307/24 140/308/24
f 142/309/25 141/310/25 146/311/25
f 143/312/25 142/313/25 146/314/25
f 144/315/25 143/316/25 146/317/25
f 146/318/25 145/319/25 144/320/25
f 152/321/26 147/322/26 148/323/26
f 152/324/26 148/325/26 149/326/26
f 152/327/26 149/328/26 150/329/26
f 150/330/26 151/331/26 152/332/26
f 153/333/19 154/334/19 160/335/19 159/336/19
f 154/337/20 155/338/20 161/339/20 160/340/20
f 155/341/21 156/342/21 162/343/21 161/344/21
f 156/345/22 157/346/22 163/347/22 162/348/22
f 157/349/23 158/350/23 164/351/23 163/352/23
f 158/353/24 153/354/24 159/355/24 164/356/24
f 166/357/25 165/358/25 170/359/25
f 167/360/25 166/361/25 170/362/25
f 168/363/25 167/364/25 170/365/25
f 170/366/25 169/367/25 168/368/25
f 176/369/26 171/370/26 172/371/26
f 176/372/26 172/373/26 173/374/26
f 176/375/26 173/376/26 174/377/26
f 174/378/26 175/379/26 176/380/26
