# AFL Heat-Resistant Fluid Tank glass_west_north_down, generated by tools/build-fluid-tank-v2.mjs
mtllib glass_west_north_down.mtl
o glass_west_north_down__glass_west_north_down
usemtl heat_resistant_fluid_tank
v 0.11875 0 0
v 0.11875 0.0375 0
v 0.11875 0.0375 0.10625
v 0.11875 0 0.10625
v 0.13125 0 0
v 0.13125 0.0375 0
v 0.13125 0.0375 0.10625
v 0.13125 0 0.10625
vt 0.612061 0.051758
vt 0.612061 0.059082
vt 0.591309 0.059082
vt 0.591309 0.051758
vt 0.615723 0.059082
vt 0.615723 0.051758
vt 0.636475 0.051758
vt 0.636475 0.059082
vn -1 0 0
vn 1 0 0
f 4/1/1 3/2/1 2/3/1 1/4/1
f 5/5/2 6/6/2 7/7/2 8/8/2
