# AFL Heat-Resistant Fluid Tank glass_north_east, generated by tools/build-fluid-tank-v2.mjs
mtllib glass_north_east.mtl
o glass_north_east__glass_north_east
usemtl heat_resistant_fluid_tank
v 0.89375 0.0375 0.11875
v 1 0.0375 0.11875
v 1 0.9625 0.11875
v 0.89375 0.9625 0.11875
v 0.89375 0.0375 0.13125
v 1 0.0375 0.13125
v 1 0.9625 0.13125
v 0.89375 0.9625 0.13125
vt 0.550293 0.363525
vt 0.550293 0.384277
vt 0.369629 0.384277
vt 0.369629 0.363525
vt 0.553223 0.384277
vt 0.553223 0.363525
vt 0.733887 0.363525
vt 0.733887 0.384277
vn 0 0 -1
vn 0 0 1
f 4/1/1 3/2/1 2/3/1 1/4/1
f 5/5/2 6/6/2 7/7/2 8/8/2
