# AFL Heat-Resistant Fluid Tank glass_north_east_down, generated by tools/build-fluid-tank-v2.mjs
mtllib glass_north_east_down.mtl
o glass_north_east_down__glass_north_east_down
usemtl heat_resistant_fluid_tank
v 0.89375 0 0.11875
v 1 0 0.11875
v 1 0.0375 0.11875
v 0.89375 0.0375 0.11875
v 0.89375 0 0.13125
v 1 0 0.13125
v 1 0.0375 0.13125
v 0.89375 0.0375 0.13125
vt 0.270264 0.059082
vt 0.249512 0.059082
vt 0.249512 0.051758
vt 0.270264 0.051758
vt 0.273926 0.051758
vt 0.294678 0.051758
vt 0.294678 0.059082
vt 0.273926 0.059082
vn 0 0 -1
vn 0 0 1
f 4/1/1 3/2/1 2/3/1 1/4/1
f 5/5/2 6/6/2 7/7/2 8/8/2
