# AFL Heat-Resistant Fluid Tank glass_south_west_down, generated by tools/build-fluid-tank-v2.mjs
mtllib glass_south_west_down.mtl
o glass_south_west_down__glass_south_west_down
usemtl heat_resistant_fluid_tank
v 0 0 0.86875
v 0.10625 0 0.86875
v 0.10625 0.0375 0.86875
v 0 0.0375 0.86875
v 0 0 0.88125
v 0.10625 0 0.88125
v 0.10625 0.0375 0.88125
v 0 0.0375 0.88125
vt 0.416748 0.059082
vt 0.395996 0.059082
vt 0.395996 0.051758
vt 0.416748 0.051758
vt 0.42041 0.051758
vt 0.441162 0.051758
vt 0.441162 0.059082
vt 0.42041 0.059082
vn 0 0 -1
vn 0 0 1
f 4/1/1 3/2/1 2/3/1 1/4/1
f 5/5/2 6/6/2 7/7/2 8/8/2
