# AFL Heat-Resistant Fluid Tank glass_west, generated by tools/build-fluid-tank-v2.mjs
mtllib glass_west.mtl
o glass_west__glass_west
usemtl heat_resistant_fluid_tank
v 0.11875 0.0375 0.10625
v 0.11875 0.9625 0.10625
v 0.11875 0.9625 0.89375
v 0.11875 0.0375 0.89375
v 0.13125 0.0375 0.10625
v 0.13125 0.9625 0.10625
v 0.13125 0.9625 0.89375
v 0.13125 0.0375 0.89375
vt 0.733887 0.799316
vt 0.553223 0.799316
vt 0.553223 0.645508
vt 0.733887 0.645508
vt 0.736816 0.645508
vt 0.91748 0.645508
vt 0.91748 0.799316
vt 0.736816 0.799316
vn -1 0 0
vn 1 0 0
f 4/1/1 3/2/1 2/3/1 1/4/1
f 5/5/2 6/6/2 7/7/2 8/8/2
