# AFL Heat-Resistant Fluid Tank glass_east, generated by tools/build-fluid-tank-v2.mjs
mtllib glass_east.mtl
o glass_east__glass_east
usemtl heat_resistant_fluid_tank
v 0.86875 0.0375 0.10625
v 0.86875 0.9625 0.10625
v 0.86875 0.9625 0.89375
v 0.86875 0.0375 0.89375
v 0.88125 0.0375 0.10625
v 0.88125 0.9625 0.10625
v 0.88125 0.9625 0.89375
v 0.88125 0.0375 0.89375
vt 0.183105 0.64209
vt 0.002441 0.64209
vt 0.002441 0.488281
vt 0.183105 0.488281
vt 0.186035 0.488281
vt 0.366699 0.488281
vt 0.366699 0.64209
vt 0.186035 0.64209
vn -1 0 0
vn 1 0 0
f 4/1/1 3/2/1 2/3/1 1/4/1
f 5/5/2 6/6/2 7/7/2 8/8/2
