# AFL Heat-Resistant Fluid Tank glass_east_north, generated by tools/build-fluid-tank-v2.mjs
mtllib glass_east_north.mtl
o glass_east_north__glass_east_north
usemtl heat_resistant_fluid_tank
v 0.86875 0.0375 0
v 0.86875 0.9625 0
v 0.86875 0.9625 0.10625
v 0.86875 0.0375 0.10625
v 0.88125 0.0375 0
v 0.88125 0.9625 0
v 0.88125 0.9625 0.10625
v 0.88125 0.0375 0.10625
vt 0.550293 0.335449
vt 0.369629 0.335449
vt 0.369629 0.314697
vt 0.550293 0.314697
vt 0.553223 0.314697
vt 0.733887 0.314697
vt 0.733887 0.335449
vt 0.553223 0.335449
vn -1 0 0
vn 1 0 0
f 4/1/1 3/2/1 2/3/1 1/4/1
f 5/5/2 6/6/2 7/7/2 8/8/2
