# AFL Heat-Resistant Fluid Tank glass_west_north_up, generated by tools/build-fluid-tank-v2.mjs
mtllib glass_west_north_up.mtl
o glass_west_north_up__glass_west_north_up
usemtl heat_resistant_fluid_tank
v 0.11875 0.9625 0
v 0.11875 1 0
v 0.11875 1 0.10625
v 0.11875 0.9625 0.10625
v 0.13125 0.9625 0
v 0.13125 1 0
v 0.13125 1 0.10625
v 0.13125 0.9625 0.10625
vt 0.514404 0.051758
vt 0.514404 0.059082
vt 0.493652 0.059082
vt 0.493652 0.051758
vt 0.518066 0.059082
vt 0.518066 0.051758
vt 0.538818 0.051758
vt 0.538818 0.059082
vn -1 0 0
vn 1 0 0
f 4/1/1 3/2/1 2/3/1 1/4/1
f 5/5/2 6/6/2 7/7/2 8/8/2
