# AFL Heat-Resistant Fluid Tank glass_east_south_down, generated by tools/build-fluid-tank-v2.mjs
mtllib glass_east_south_down.mtl
o glass_east_south_down__glass_east_south_down
usemtl heat_resistant_fluid_tank
v 0.86875 0 0.89375
v 0.86875 0.0375 0.89375
v 0.86875 0.0375 1
v 0.86875 0 1
v 0.88125 0 0.89375
v 0.88125 0.0375 0.89375
v 0.88125 0.0375 1
v 0.88125 0 1
vt 0.856201 0.051758
vt 0.856201 0.059082
vt 0.835449 0.059082
vt 0.835449 0.051758
vt 0.859863 0.059082
vt 0.859863 0.051758
vt 0.880615 0.051758
vt 0.880615 0.059082
vn -1 0 0
vn 1 0 0
f 4/1/1 3/2/1 2/3/1 1/4/1
f 5/5/2 6/6/2 7/7/2 8/8/2
