# AFL Heat-Resistant Fluid Tank glass_south_east_down, generated by tools/build-fluid-tank-v2.mjs
mtllib glass_south_east_down.mtl
o glass_south_east_down__glass_south_east_down
usemtl heat_resistant_fluid_tank
v 0.89375 0 0.86875
v 1 0 0.86875
v 1 0.0375 0.86875
v 0.89375 0.0375 0.86875
v 0.89375 0 0.88125
v 1 0 0.88125
v 1 0.0375 0.88125
v 0.89375 0.0375 0.88125
vt 0.465576 0.059082
vt 0.444824 0.059082
vt 0.444824 0.051758
vt 0.465576 0.051758
vt 0.469238 0.051758
vt 0.48999 0.051758
vt 0.48999 0.059082
vt 0.469238 0.059082
vn 0 0 -1
vn 0 0 1
f 4/1/1 3/2/1 2/3/1 1/4/1
f 5/5/2 6/6/2 7/7/2 8/8/2
