# AFL Heat-Resistant Fluid Tank glass_north, generated by tools/build-fluid-tank-v2.mjs
mtllib glass_north.mtl
o glass_north__glass_north
usemtl heat_resistant_fluid_tank
v 0.10625 0.0375 0.11875
v 0.89375 0.0375 0.11875
v 0.89375 0.9625 0.11875
v 0.10625 0.9625 0.11875
v 0.10625 0.0375 0.13125
v 0.89375 0.0375 0.13125
v 0.89375 0.9625 0.13125
v 0.10625 0.9625 0.13125
vt 0.976074 0.84375
vt 0.976074 0.997559
vt 0.79541 0.997559
vt 0.79541 0.84375
vt 0.002441 0.799316
vt 0.002441 0.645508
vt 0.183105 0.645508
vt 0.183105 0.799316
vn 0 0 -1
vn 0 0 1
f 4/1/1 3/2/1 2/3/1 1/4/1
f 5/5/2 6/6/2 7/7/2 8/8/2
