# AFL Heat-Resistant Fluid Tank glass_east_north_down, generated by tools/build-fluid-tank-v2.mjs
mtllib glass_east_north_down.mtl
o glass_east_north_down__glass_east_north_down
usemtl heat_resistant_fluid_tank
v 0.86875 0 0
v 0.86875 0.0375 0
v 0.86875 0.0375 0.10625
v 0.86875 0 0.10625
v 0.88125 0 0
v 0.88125 0.0375 0
v 0.88125 0.0375 0.10625
v 0.88125 0 0.10625
vt 0.807373 0.051758
vt 0.807373 0.059082
vt 0.786621 0.059082
vt 0.786621 0.051758
vt 0.811035 0.059082
vt 0.811035 0.051758
vt 0.831787 0.051758
vt 0.831787 0.059082
vn -1 0 0
vn 1 0 0
f 4/1/1 3/2/1 2/3/1 1/4/1
f 5/5/2 6/6/2 7/7/2 8/8/2
