# AFL Heat-Resistant Fluid Tank glass_east_up, generated by tools/build-fluid-tank-v2.mjs
mtllib glass_east_up.mtl
o glass_east_up__glass_east_up
usemtl heat_resistant_fluid_tank
v 0.86875 0.9625 0.10625
v 0.86875 1 0.10625
v 0.86875 1 0.89375
v 0.86875 0.9625 0.89375
v 0.88125 0.9625 0.10625
v 0.88125 1 0.10625
v 0.88125 1 0.89375
v 0.88125 0.9625 0.89375
vt 0.62793 0.094727
vt 0.62793 0.102051
vt 0.474121 0.102051
vt 0.474121 0.094727
vt 0.631348 0.102051
vt 0.631348 0.094727
vt 0.785156 0.094727
vt 0.785156 0.102051
vn -1 0 0
vn 1 0 0
f 4/1/1 3/2/1 2/3/1 1/4/1
f 5/5/2 6/6/2 7/7/2 8/8/2
