# AFL Heat-Resistant Fluid Tank glass_west_up, generated by tools/build-fluid-tank-v2.mjs
mtllib glass_west_up.mtl
o glass_west_up__glass_west_up
usemtl heat_resistant_fluid_tank
v 0.11875 0.9625 0.10625
v 0.11875 1 0.10625
v 0.11875 1 0.89375
v 0.11875 0.9625 0.89375
v 0.13125 0.9625 0.10625
v 0.13125 1 0.10625
v 0.13125 1 0.89375
v 0.13125 0.9625 0.89375
vt 0.942383 0.105469
vt 0.942383 0.112793
vt 0.788574 0.112793
vt 0.788574 0.105469
vt 0.002441 0.102051
vt 0.002441 0.094727
vt 0.15625 0.094727
vt 0.15625 0.102051
vn -1 0 0
vn 1 0 0
f 4/1/1 3/2/1 2/3/1 1/4/1
f 5/5/2 6/6/2 7/7/2 8/8/2
