# AFL Heat-Resistant Fluid Tank glass_south_west, generated by tools/build-fluid-tank-v2.mjs
mtllib glass_south_west.mtl
o glass_south_west__glass_south_west
usemtl heat_resistant_fluid_tank
v 0 0.0375 0.86875
v 0.10625 0.0375 0.86875
v 0.10625 0.9625 0.86875
v 0 0.9625 0.86875
v 0 0.0375 0.88125
v 0.10625 0.0375 0.88125
v 0.10625 0.9625 0.88125
v 0 0.9625 0.88125
vt 0.91748 0.363525
vt 0.91748 0.384277
vt 0.736816 0.384277
vt 0.736816 0.363525
vt 0.002441 0.359863
vt 0.002441 0.339111
vt 0.183105 0.339111
vt 0.183105 0.359863
vn 0 0 -1
vn 0 0 1
f 4/1/1 3/2/1 2/3/1 1/4/1
f 5/5/2 6/6/2 7/7/2 8/8/2
