# AFL Heat-Resistant Fluid Tank glass_north_east_up, generated by tools/build-fluid-tank-v2.mjs
mtllib glass_north_east_up.mtl
o glass_north_east_up__glass_north_east_up
usemtl heat_resistant_fluid_tank
v 0.89375 0.9625 0.11875
v 1 0.9625 0.11875
v 1 1 0.11875
v 0.89375 1 0.11875
v 0.89375 0.9625 0.13125
v 1 0.9625 0.13125
v 1 1 0.13125
v 0.89375 1 0.13125
vt 0.172607 0.059082
vt 0.151855 0.059082
vt 0.151855 0.051758
vt 0.172607 0.051758
vt 0.17627 0.051758
vt 0.197021 0.051758
vt 0.197021 0.059082
vt 0.17627 0.059082
vn 0 0 -1
vn 0 0 1
f 4/1/1 3/2/1 2/3/1 1/4/1
f 5/5/2 6/6/2 7/7/2 8/8/2
