# AFL Heat-Resistant Fluid Tank glass_north_west_up, generated by tools/build-fluid-tank-v2.mjs
mtllib glass_north_west_up.mtl
o glass_north_west_up__glass_north_west_up
usemtl heat_resistant_fluid_tank
v 0 0.9625 0.11875
v 0.10625 0.9625 0.11875
v 0.10625 1 0.11875
v 0 1 0.11875
v 0 0.9625 0.13125
v 0.10625 0.9625 0.13125
v 0.10625 1 0.13125
v 0 1 0.13125
vt 0.123779 0.059082
vt 0.103027 0.059082
vt 0.103027 0.051758
vt 0.123779 0.051758
vt 0.127441 0.051758
vt 0.148193 0.051758
vt 0.148193 0.059082
vt 0.127441 0.059082
vn 0 0 -1
vn 0 0 1
f 4/1/1 3/2/1 2/3/1 1/4/1
f 5/5/2 6/6/2 7/7/2 8/8/2
