# AFL Heat-Resistant Fluid Tank glass_west_south, generated by tools/build-fluid-tank-v2.mjs
mtllib glass_west_south.mtl
o glass_west_south__glass_west_south
usemtl heat_resistant_fluid_tank
v 0.11875 0.0375 0.89375
v 0.11875 0.9625 0.89375
v 0.11875 0.9625 1
v 0.11875 0.0375 1
v 0.13125 0.0375 0.89375
v 0.13125 0.9625 0.89375
v 0.13125 0.9625 1
v 0.13125 0.0375 1
vt 0.183105 0.335449
vt 0.002441 0.335449
vt 0.002441 0.314697
vt 0.183105 0.314697
vt 0.186035 0.314697
vt 0.366699 0.314697
vt 0.366699 0.335449
vt 0.186035 0.335449
vn -1 0 0
vn 1 0 0
f 4/1/1 3/2/1 2/3/1 1/4/1
f 5/5/2 6/6/2 7/7/2 8/8/2
