# AFL Heat-Resistant Fluid Tank glass_west_south_up, generated by tools/build-fluid-tank-v2.mjs
mtllib glass_west_south_up.mtl
o glass_west_south_up__glass_west_south_up
usemtl heat_resistant_fluid_tank
v 0.11875 0.9625 0.89375
v 0.11875 1 0.89375
v 0.11875 1 1
v 0.11875 0.9625 1
v 0.13125 0.9625 0.89375
v 0.13125 1 0.89375
v 0.13125 1 1
v 0.13125 0.9625 1
vt 0.563232 0.051758
vt 0.563232 0.059082
vt 0.54248 0.059082
vt 0.54248 0.051758
vt 0.566895 0.059082
vt 0.566895 0.051758
vt 0.587646 0.051758
vt 0.587646 0.059082
vn -1 0 0
vn 1 0 0
f 4/1/1 3/2/1 2/3/1 1/4/1
f 5/5/2 6/6/2 7/7/2 8/8/2
