# AFL Heat-Resistant Fluid Tank glass_east_south, generated by tools/build-fluid-tank-v2.mjs
mtllib glass_east_south.mtl
o glass_east_south__glass_east_south
usemtl heat_resistant_fluid_tank
v 0.86875 0.0375 0.89375
v 0.86875 0.9625 0.89375
v 0.86875 0.9625 1
v 0.86875 0.0375 1
v 0.88125 0.0375 0.89375
v 0.88125 0.9625 0.89375
v 0.88125 0.9625 1
v 0.88125 0.0375 1
vt 0.91748 0.335449
vt 0.736816 0.335449
vt 0.736816 0.314697
vt 0.91748 0.314697
vt 0.002441 0.290283
vt 0.183105 0.290283
vt 0.183105 0.311035
vt 0.002441 0.311035
vn -1 0 0
vn 1 0 0
f 4/1/1 3/2/1 2/3/1 1/4/1
f 5/5/2 6/6/2 7/7/2 8/8/2
