# AFL Heat-Resistant Fluid Tank glass_south, generated by tools/build-fluid-tank-v2.mjs
mtllib glass_south.mtl
o glass_south__glass_south
usemtl heat_resistant_fluid_tank
v 0.10625 0.0375 0.86875
v 0.89375 0.0375 0.86875
v 0.89375 0.9625 0.86875
v 0.10625 0.9625 0.86875
v 0.10625 0.0375 0.88125
v 0.89375 0.0375 0.88125
v 0.89375 0.9625 0.88125
v 0.10625 0.9625 0.88125
vt 0.366699 0.645508
vt 0.366699 0.799316
vt 0.186035 0.799316
vt 0.186035 0.645508
vt 0.369629 0.799316
vt 0.369629 0.645508
vt 0.550293 0.645508
vt 0.550293 0.799316
vn 0 0 -1
vn 0 0 1
f 4/1/1 3/2/1 2/3/1 1/4/1
f 5/5/2 6/6/2 7/7/2 8/8/2
