# AFL Heat-Resistant Fluid Tank glass_north_up, generated by tools/build-fluid-tank-v2.mjs
mtllib glass_north_up.mtl
o glass_north_up__glass_north_up
usemtl heat_resistant_fluid_tank
v 0.10625 0.9625 0.11875
v 0.89375 0.9625 0.11875
v 0.89375 1 0.11875
v 0.10625 1 0.11875
v 0.10625 0.9625 0.13125
v 0.89375 0.9625 0.13125
v 0.89375 1 0.13125
v 0.10625 1 0.13125
vt 0.552734 0.123535
vt 0.398926 0.123535
vt 0.398926 0.116211
vt 0.552734 0.116211
vt 0.556152 0.116211
vt 0.709961 0.116211
vt 0.709961 0.123535
vt 0.556152 0.123535
vn 0 0 -1
vn 0 0 1
f 4/1/1 3/2/1 2/3/1 1/4/1
f 5/5/2 6/6/2 7/7/2 8/8/2
