# AFL Heat-Resistant Fluid Tank single tank, generated by tools/build-fluid-tank-v2.mjs
mtllib item.mtl
o glass_north__glass_north
usemtl heat_resistant_fluid_tank
v 0.10625 0.0375 0.11875
v 0.89375 0.0375 0.11875
v 0.89375 0.9625 0.11875
v 0.10625 0.9625 0.11875
v 0.10625 0.0375 0.13125
v 0.89375 0.0375 0.13125
v 0.89375 0.9625 0.13125
v 0.10625 0.9625 0.13125
vt 0.976074 0.84375
vt 0.976074 0.997559
vt 0.79541 0.997559
vt 0.79541 0.84375
vt 0.002441 0.799316
vt 0.002441 0.645508
vt 0.183105 0.645508
vt 0.183105 0.799316
vn 0 0 -1
vn 0 0 1
f 4/1/1 3/2/1 2/3/1 1/4/1
f 5/5/2 6/6/2 7/7/2 8/8/2
o glass_south__glass_south
usemtl heat_resistant_fluid_tank
v 0.10625 0.0375 0.86875
v 0.89375 0.0375 0.86875
v 0.89375 0.9625 0.86875
v 0.10625 0.9625 0.86875
v 0.10625 0.0375 0.88125
v 0.89375 0.0375 0.88125
v 0.89375 0.9625 0.88125
v 0.10625 0.9625 0.88125
vt 0.366699 0.645508
vt 0.366699 0.799316
vt 0.186035 0.799316
vt 0.186035 0.645508
vt 0.369629 0.799316
vt 0.369629 0.645508
vt 0.550293 0.645508
vt 0.550293 0.799316
vn 0 0 -1
vn 0 0 1
f 12/9/3 11/10/3 10/11/3 9/12/3
f 13/13/4 14/14/4 15/15/4 16/16/4
o glass_west__glass_west
usemtl heat_resistant_fluid_tank
v 0.11875 0.0375 0.10625
v 0.11875 0.9625 0.10625
v 0.11875 0.9625 0.89375
v 0.11875 0.0375 0.89375
v 0.13125 0.0375 0.10625
v 0.13125 0.9625 0.10625
v 0.13125 0.9625 0.89375
v 0.13125 0.0375 0.89375
vt 0.733887 0.799316
vt 0.553223 0.799316
vt 0.553223 0.645508
vt 0.733887 0.645508
vt 0.736816 0.645508
vt 0.91748 0.645508
vt 0.91748 0.799316
vt 0.736816 0.799316
vn -1 0 0
vn 1 0 0
f 20/17/5 19/18/5 18/19/5 17/20/5
f 21/21/6 22/22/6 23/23/6 24/24/6
o glass_east__glass_east
usemtl heat_resistant_fluid_tank
v 0.86875 0.0375 0.10625
v 0.86875 0.9625 0.10625
v 0.86875 0.9625 0.89375
v 0.86875 0.0375 0.89375
v 0.88125 0.0375 0.10625
v 0.88125 0.9625 0.10625
v 0.88125 0.9625 0.89375
v 0.88125 0.0375 0.89375
vt 0.183105 0.64209
vt 0.002441 0.64209
vt 0.002441 0.488281
vt 0.183105 0.488281
vt 0.186035 0.488281
vt 0.366699 0.488281
vt 0.366699 0.64209
vt 0.186035 0.64209
vn -1 0 0
vn 1 0 0
f 28/25/7 27/26/7 26/27/7 25/28/7
f 29/29/8 30/30/8 31/31/8 32/32/8
o post_ne__post_ne
usemtl heat_resistant_fluid_tank
v 0.988764 0.0375 0.125149
v 0.974299 0.0375 0.160071
v 0.947571 0.0375 0.186799
v 0.912649 0.0375 0.201264
v 0.874851 0.0375 0.201264
v 0.839929 0.0375 0.186799
v 0.813201 0.0375 0.160071
v 0.798736 0.0375 0.125149
v 0.798736 0.0375 0.087351
v 0.813201 0.0375 0.052429
v 0.839929 0.0375 0.025701
v 0.874851 0.0375 0.011236
v 0.912649 0.0375 0.011236
v 0.947571 0.0375 0.025701
v 0.974299 0.0375 0.052429
v 0.988764 0.0375 0.087351
v 0.988764 0.9625 0.125149
v 0.974299 0.9625 0.160071
v 0.947571 0.9625 0.186799
v 0.912649 0.9625 0.201264
v 0.874851 0.9625 0.201264
v 0.839929 0.9625 0.186799
v 0.813201 0.9625 0.160071
v 0.798736 0.9625 0.125149
v 0.798736 0.9625 0.087351
v 0.813201 0.9625 0.052429
v 0.839929 0.9625 0.025701
v 0.874851 0.9625 0.011236
v 0.912649 0.9625 0.011236
v 0.947571 0.9625 0.025701
v 0.974299 0.9625 0.052429
v 0.988764 0.9625 0.087351
v 0.89375 0.0375 0.10625
v 0.89375 0.9625 0.10625
vt 0.733887 0.266543
vt 0.733887 0.273926
vt 0.553223 0.273926
vt 0.553223 0.266543
vt 0.91748 0.191348
vt 0.91748 0.19873
vt 0.736816 0.19873
vt 0.736816 0.191348
vt 0.550293 0.245059
vt 0.550293 0.252441
vt 0.369629 0.252441
vt 0.369629 0.245059
vt 0.183105 0.180606
vt 0.183105 0.187988
vt 0.002441 0.187988
vt 0.002441 0.180606
vt 0.186035 0.187988
vt 0.186035 0.180606
vt 0.366699 0.180606
vt 0.366699 0.187988
vt 0.002441 0.19873
vt 0.002441 0.191348
vt 0.183105 0.191348
vt 0.183105 0.19873
vt 0.369629 0.187988
vt 0.369629 0.180606
vt 0.550293 0.180606
vt 0.550293 0.187988
vt 0.370605 0.241699
vt 0.370605 0.234317
vt 0.55127 0.234317
vt 0.55127 0.241699
vt 0.369629 0.14502
vt 0.369629 0.137637
vt 0.550293 0.137637
vt 0.550293 0.14502
vt 0.187012 0.263184
vt 0.187012 0.255801
vt 0.367676 0.255801
vt 0.367676 0.263184
vt 0.553223 0.187988
vt 0.553223 0.180606
vt 0.733887 0.180606
vt 0.733887 0.187988
vt 0.734863 0.234317
vt 0.734863 0.241699
vt 0.554199 0.241699
vt 0.554199 0.234317
vt 0.91748 0.180606
vt 0.91748 0.187988
vt 0.736816 0.187988
vt 0.736816 0.180606
vt 0.55127 0.255801
vt 0.55127 0.263184
vt 0.370605 0.263184
vt 0.370605 0.255801
vt 0.183105 0.169864
vt 0.183105 0.177246
vt 0.002441 0.177246
vt 0.002441 0.169864
vt 0.918457 0.234317
vt 0.918457 0.241699
vt 0.737793 0.241699
vt 0.737793 0.234317
vt 0.322757 0.466306
vt 0.326448 0.447749
vt 0.333268 0.450574
vt 0.322757 0.466306
vt 0.333268 0.450574
vt 0.338489 0.455794
vt 0.322757 0.466306
vt 0.338489 0.455794
vt 0.341314 0.462615
vt 0.322757 0.466306
vt 0.341314 0.462615
vt 0.341314 0.469997
vt 0.322757 0.466306
vt 0.341314 0.469997
vt 0.338489 0.476818
vt 0.322757 0.466306
vt 0.338489 0.476818
vt 0.333268 0.482038
vt 0.322757 0.466306
vt 0.333268 0.482038
vt 0.326448 0.484863
vt 0.322757 0.466306
vt 0.326448 0.484863
vt 0.319065 0.484863
vt 0.322757 0.466306
vt 0.319065 0.484863
vt 0.312245 0.482038
vt 0.322757 0.466306
vt 0.312245 0.482038
vt 0.307024 0.476818
vt 0.322757 0.466306
vt 0.307024 0.476818
vt 0.304199 0.469997
vt 0.322757 0.466306
vt 0.304199 0.469997
vt 0.304199 0.462615
vt 0.322757 0.466306
vt 0.304199 0.462615
vt 0.307024 0.455794
vt 0.322757 0.466306
vt 0.307024 0.455794
vt 0.312245 0.450574
vt 0.322757 0.466306
vt 0.312245 0.450574
vt 0.319065 0.447749
vt 0.322757 0.466306
vt 0.319065 0.447749
vt 0.326448 0.447749
vt 0.374284 0.482038
vt 0.367463 0.484863
vt 0.363772 0.466306
vt 0.379504 0.476818
vt 0.374284 0.482038
vt 0.363772 0.466306
vt 0.38233 0.469997
vt 0.379504 0.476818
vt 0.363772 0.466306
vt 0.38233 0.462615
vt 0.38233 0.469997
vt 0.363772 0.466306
vt 0.379504 0.455794
vt 0.38233 0.462615
vt 0.363772 0.466306
vt 0.374284 0.450574
vt 0.379504 0.455794
vt 0.363772 0.466306
vt 0.367463 0.447749
vt 0.374284 0.450574
vt 0.363772 0.466306
vt 0.360081 0.447749
vt 0.367463 0.447749
vt 0.363772 0.466306
vt 0.35326 0.450574
vt 0.360081 0.447749
vt 0.363772 0.466306
vt 0.34804 0.455794
vt 0.35326 0.450574
vt 0.363772 0.466306
vt 0.345215 0.462615
vt 0.34804 0.455794
vt 0.363772 0.466306
vt 0.345215 0.469997
vt 0.345215 0.462615
vt 0.363772 0.466306
vt 0.34804 0.476818
vt 0.345215 0.469997
vt 0.363772 0.466306
vt 0.35326 0.482038
vt 0.34804 0.476818
vt 0.363772 0.466306
vt 0.360081 0.484863
vt 0.35326 0.482038
vt 0.363772 0.466306
vt 0.367463 0.484863
vt 0.360081 0.484863
vt 0.363772 0.466306
vn 0.980785 0 0.19509
vn 0.83147 0 0.55557
vn 0.55557 0 0.83147
vn 0.19509 0 0.980785
vn -0.19509 0 0.980785
vn -0.55557 0 0.83147
vn -0.83147 0 0.55557
vn -0.980785 0 0.19509
vn -0.980785 0 -0.19509
vn -0.83147 0 -0.55557
vn -0.55557 0 -0.83147
vn -0.19509 0 -0.980785
vn 0.19509 0 -0.980785
vn 0.55557 0 -0.83147
vn 0.83147 0 -0.55557
vn 0.980785 0 -0.19509
vn 0 -1 0
vn 0 1 0
f 49/33/9 50/34/10 34/35/10 33/36/9
f 50/37/10 51/38/11 35/39/11 34/40/10
f 51/41/11 52/42/12 36/43/12 35/44/11
f 52/45/12 53/46/13 37/47/13 36/48/12
f 53/49/13 54/50/14 38/51/14 37/52/13
f 54/53/14 55/54/15 39/55/15 38/56/14
f 55/57/15 56/58/16 40/59/16 39/60/15
f 56/61/16 57/62/17 41/63/17 40/64/16
f 57/65/17 58/66/18 42/67/18 41/68/17
f 58/69/18 59/70/19 43/71/19 42/72/18
f 59/73/19 60/74/20 44/75/20 43/76/19
f 60/77/20 61/78/21 45/79/21 44/80/20
f 61/81/21 62/82/22 46/83/22 45/84/21
f 62/85/22 63/86/23 47/87/23 46/88/22
f 63/89/23 64/90/24 48/91/24 47/92/23
f 64/93/24 49/94/9 33/95/9 48/96/24
f 65/97/25 33/98/25 34/99/25
f 65/100/25 34/101/25 35/102/25
f 65/103/25 35/104/25 36/105/25
f 65/106/25 36/107/25 37/108/25
f 65/109/25 37/110/25 38/111/25
f 65/112/25 38/113/25 39/114/25
f 65/115/25 39/116/25 40/117/25
f 65/118/25 40/119/25 41/120/25
f 65/121/25 41/122/25 42/123/25
f 65/124/25 42/125/25 43/126/25
f 65/127/25 43/128/25 44/129/25
f 65/130/25 44/131/25 45/132/25
f 65/133/25 45/134/25 46/135/25
f 65/136/25 46/137/25 47/138/25
f 65/139/25 47/140/25 48/141/25
f 65/142/25 48/143/25 33/144/25
f 50/145/26 49/146/26 66/147/26
f 51/148/26 50/149/26 66/150/26
f 52/151/26 51/152/26 66/153/26
f 53/154/26 52/155/26 66/156/26
f 54/157/26 53/158/26 66/159/26
f 55/160/26 54/161/26 66/162/26
f 56/163/26 55/164/26 66/165/26
f 57/166/26 56/167/26 66/168/26
f 58/169/26 57/170/26 66/171/26
f 59/172/26 58/173/26 66/174/26
f 60/175/26 59/176/26 66/177/26
f 61/178/26 60/179/26 66/180/26
f 62/181/26 61/182/26 66/183/26
f 63/184/26 62/185/26 66/186/26
f 64/187/26 63/188/26 66/189/26
f 49/190/26 64/191/26 66/192/26
o post_nw__post_nw
usemtl heat_resistant_fluid_tank
v 0.201264 0.0375 0.125149
v 0.186799 0.0375 0.160071
v 0.160071 0.0375 0.186799
v 0.125149 0.0375 0.201264
v 0.087351 0.0375 0.201264
v 0.052429 0.0375 0.186799
v 0.025701 0.0375 0.160071
v 0.011236 0.0375 0.125149
v 0.011236 0.0375 0.087351
v 0.025701 0.0375 0.052429
v 0.052429 0.0375 0.025701
v 0.087351 0.0375 0.011236
v 0.125149 0.0375 0.011236
v 0.160071 0.0375 0.025701
v 0.186799 0.0375 0.052429
v 0.201264 0.0375 0.087351
v 0.201264 0.9625 0.125149
v 0.186799 0.9625 0.160071
v 0.160071 0.9625 0.186799
v 0.125149 0.9625 0.201264
v 0.087351 0.9625 0.201264
v 0.052429 0.9625 0.186799
v 0.025701 0.9625 0.160071
v 0.011236 0.9625 0.125149
v 0.011236 0.9625 0.087351
v 0.025701 0.9625 0.052429
v 0.052429 0.9625 0.025701
v 0.087351 0.9625 0.011236
v 0.125149 0.9625 0.011236
v 0.160071 0.9625 0.025701
v 0.186799 0.9625 0.052429
v 0.201264 0.9625 0.087351
v 0.10625 0.0375 0.10625
v 0.10625 0.9625 0.10625
vt 0.366699 0.234317
vt 0.366699 0.241699
vt 0.186035 0.241699
vt 0.186035 0.234317
vt 0.183105 0.223574
vt 0.183105 0.230957
vt 0.002441 0.230957
vt 0.002441 0.223574
vt 0.733887 0.245059
vt 0.733887 0.252441
vt 0.553223 0.252441
vt 0.553223 0.245059
vt 0.366699 0.169864
vt 0.366699 0.177246
vt 0.186035 0.177246
vt 0.186035 0.169864
vt 0.369629 0.177246
vt 0.369629 0.169864
vt 0.550293 0.169864
vt 0.550293 0.177246
vt 0.186035 0.14502
vt 0.186035 0.137637
vt 0.366699 0.137637
vt 0.366699 0.14502
vt 0.553223 0.14502
vt 0.553223 0.137637
vt 0.733887 0.137637
vt 0.733887 0.14502
vt 0.186035 0.230957
vt 0.186035 0.223574
vt 0.366699 0.223574
vt 0.366699 0.230957
vt 0.553223 0.177246
vt 0.553223 0.169864
vt 0.733887 0.169864
vt 0.733887 0.177246
vt 0.554199 0.263184
vt 0.554199 0.255801
vt 0.734863 0.255801
vt 0.734863 0.263184
vt 0.736816 0.177246
vt 0.736816 0.169864
vt 0.91748 0.169864
vt 0.91748 0.177246
vt 0.550293 0.223574
vt 0.550293 0.230957
vt 0.369629 0.230957
vt 0.369629 0.223574
vt 0.183105 0.159121
vt 0.183105 0.166504
vt 0.002441 0.166504
vt 0.002441 0.159121
vt 0.918457 0.255801
vt 0.918457 0.263184
vt 0.737793 0.263184
vt 0.737793 0.255801
vt 0.366699 0.159121
vt 0.366699 0.166504
vt 0.186035 0.166504
vt 0.186035 0.159121
vt 0.733887 0.223574
vt 0.733887 0.230957
vt 0.553223 0.230957
vt 0.553223 0.223574
vt 0.486819 0.466306
vt 0.49051 0.447749
vt 0.497331 0.450574
vt 0.486819 0.466306
vt 0.497331 0.450574
vt 0.502551 0.455794
vt 0.486819 0.466306
vt 0.502551 0.455794
vt 0.505376 0.462615
vt 0.486819 0.466306
vt 0.505376 0.462615
vt 0.505376 0.469997
vt 0.486819 0.466306
vt 0.505376 0.469997
vt 0.502551 0.476818
vt 0.486819 0.466306
vt 0.502551 0.476818
vt 0.497331 0.482038
vt 0.486819 0.466306
vt 0.497331 0.482038
vt 0.49051 0.484863
vt 0.486819 0.466306
vt 0.49051 0.484863
vt 0.483128 0.484863
vt 0.486819 0.466306
vt 0.483128 0.484863
vt 0.476307 0.482038
vt 0.486819 0.466306
vt 0.476307 0.482038
vt 0.471087 0.476818
vt 0.486819 0.466306
vt 0.471087 0.476818
vt 0.468262 0.469997
vt 0.486819 0.466306
vt 0.468262 0.469997
vt 0.468262 0.462615
vt 0.486819 0.466306
vt 0.468262 0.462615
vt 0.471087 0.455794
vt 0.486819 0.466306
vt 0.471087 0.455794
vt 0.476307 0.450574
vt 0.486819 0.466306
vt 0.476307 0.450574
vt 0.483128 0.447749
vt 0.486819 0.466306
vt 0.483128 0.447749
vt 0.49051 0.447749
vt 0.538347 0.482038
vt 0.531526 0.484863
vt 0.527835 0.466306
vt 0.543567 0.476818
vt 0.538347 0.482038
vt 0.527835 0.466306
vt 0.546392 0.469997
vt 0.543567 0.476818
vt 0.527835 0.466306
vt 0.546392 0.462615
vt 0.546392 0.469997
vt 0.527835 0.466306
vt 0.543567 0.455794
vt 0.546392 0.462615
vt 0.527835 0.466306
vt 0.538347 0.450574
vt 0.543567 0.455794
vt 0.527835 0.466306
vt 0.531526 0.447749
vt 0.538347 0.450574
vt 0.527835 0.466306
vt 0.524143 0.447749
vt 0.531526 0.447749
vt 0.527835 0.466306
vt 0.517323 0.450574
vt 0.524143 0.447749
vt 0.527835 0.466306
vt 0.512103 0.455794
vt 0.517323 0.450574
vt 0.527835 0.466306
vt 0.509277 0.462615
vt 0.512103 0.455794
vt 0.527835 0.466306
vt 0.509277 0.469997
vt 0.509277 0.462615
vt 0.527835 0.466306
vt 0.512103 0.476818
vt 0.509277 0.469997
vt 0.527835 0.466306
vt 0.517323 0.482038
vt 0.512103 0.476818
vt 0.527835 0.466306
vt 0.524143 0.484863
vt 0.517323 0.482038
vt 0.527835 0.466306
vt 0.531526 0.484863
vt 0.524143 0.484863
vt 0.527835 0.466306
vn 0.980785 0 0.19509
vn 0.83147 0 0.55557
vn 0.55557 0 0.83147
vn 0.19509 0 0.980785
vn -0.19509 0 0.980785
vn -0.55557 0 0.83147
vn -0.83147 0 0.55557
vn -0.980785 0 0.19509
vn -0.980785 0 -0.19509
vn -0.83147 0 -0.55557
vn -0.55557 0 -0.83147
vn -0.19509 0 -0.980785
vn 0.19509 0 -0.980785
vn 0.55557 0 -0.83147
vn 0.83147 0 -0.55557
vn 0.980785 0 -0.19509
vn 0 -1 0
vn 0 1 0
f 83/193/27 84/194/28 68/195/28 67/196/27
f 84/197/28 85/198/29 69/199/29 68/200/28
f 85/201/29 86/202/30 70/203/30 69/204/29
f 86/205/30 87/206/31 71/207/31 70/208/30
f 87/209/31 88/210/32 72/211/32 71/212/31
f 88/213/32 89/214/33 73/215/33 72/216/32
f 89/217/33 90/218/34 74/219/34 73/220/33
f 90/221/34 91/222/35 75/223/35 74/224/34
f 91/225/35 92/226/36 76/227/36 75/228/35
f 92/229/36 93/230/37 77/231/37 76/232/36
f 93/233/37 94/234/38 78/235/38 77/236/37
f 94/237/38 95/238/39 79/239/39 78/240/38
f 95/241/39 96/242/40 80/243/40 79/244/39
f 96/245/40 97/246/41 81/247/41 80/248/40
f 97/249/41 98/250/42 82/251/42 81/252/41
f 98/253/42 83/254/27 67/255/27 82/256/42
f 99/257/43 67/258/43 68/259/43
f 99/260/43 68/261/43 69/262/43
f 99/263/43 69/264/43 70/265/43
f 99/266/43 70/267/43 71/268/43
f 99/269/43 71/270/43 72/271/43
f 99/272/43 72/273/43 73/274/43
f 99/275/43 73/276/43 74/277/43
f 99/278/43 74/279/43 75/280/43
f 99/281/43 75/282/43 76/283/43
f 99/284/43 76/285/43 77/286/43
f 99/287/43 77/288/43 78/289/43
f 99/290/43 78/291/43 79/292/43
f 99/293/43 79/294/43 80/295/43
f 99/296/43 80/297/43 81/298/43
f 99/299/43 81/300/43 82/301/43
f 99/302/43 82/303/43 67/304/43
f 84/305/44 83/306/44 100/307/44
f 85/308/44 84/309/44 100/310/44
f 86/311/44 85/312/44 100/313/44
f 87/314/44 86/315/44 100/316/44
f 88/317/44 87/318/44 100/319/44
f 89/320/44 88/321/44 100/322/44
f 90/323/44 89/324/44 100/325/44
f 91/326/44 90/327/44 100/328/44
f 92/329/44 91/330/44 100/331/44
f 93/332/44 92/333/44 100/334/44
f 94/335/44 93/336/44 100/337/44
f 95/338/44 94/339/44 100/340/44
f 96/341/44 95/342/44 100/343/44
f 97/344/44 96/345/44 100/346/44
f 98/347/44 97/348/44 100/349/44
f 83/350/44 98/351/44 100/352/44
o post_se__post_se
usemtl heat_resistant_fluid_tank
v 0.988764 0.0375 0.912649
v 0.974299 0.0375 0.947571
v 0.947571 0.0375 0.974299
v 0.912649 0.0375 0.988764
v 0.874851 0.0375 0.988764
v 0.839929 0.0375 0.974299
v 0.813201 0.0375 0.947571
v 0.798736 0.0375 0.912649
v 0.798736 0.0375 0.874851
v 0.813201 0.0375 0.839929
v 0.839929 0.0375 0.813201
v 0.874851 0.0375 0.798736
v 0.912649 0.0375 0.798736
v 0.947571 0.0375 0.813201
v 0.974299 0.0375 0.839929
v 0.988764 0.0375 0.874851
v 0.988764 0.9625 0.912649
v 0.974299 0.9625 0.947571
v 0.947571 0.9625 0.974299
v 0.912649 0.9625 0.988764
v 0.874851 0.9625 0.988764
v 0.839929 0.9625 0.974299
v 0.813201 0.9625 0.947571
v 0.798736 0.9625 0.912649
v 0.798736 0.9625 0.874851
v 0.813201 0.9625 0.839929
v 0.839929 0.9625 0.813201
v 0.874851 0.9625 0.798736
v 0.912649 0.9625 0.798736
v 0.947571 0.9625 0.813201
v 0.974299 0.9625 0.839929
v 0.988764 0.9625 0.874851
v 0.89375 0.0375 0.89375
v 0.89375 0.9625 0.89375
vt 0.918457 0.266543
vt 0.918457 0.273926
vt 0.737793 0.273926
vt 0.737793 0.266543
vt 0.91748 0.223574
vt 0.91748 0.230957
vt 0.736816 0.230957
vt 0.736816 0.223574
vt 0.91748 0.245059
vt 0.91748 0.252441
vt 0.736816 0.252441
vt 0.736816 0.245059
vt 0.550293 0.159121
vt 0.550293 0.166504
vt 0.369629 0.166504
vt 0.369629 0.159121
vt 0.002441 0.220215
vt 0.002441 0.212832
vt 0.183105 0.212832
vt 0.183105 0.220215
vt 0.002441 0.241699
vt 0.002441 0.234317
vt 0.183105 0.234317
vt 0.183105 0.241699
vt 0.186035 0.220215
vt 0.186035 0.212832
vt 0.366699 0.212832
vt 0.366699 0.220215
vt 0.369629 0.220215
vt 0.369629 0.212832
vt 0.550293 0.212832
vt 0.550293 0.220215
vt 0.553223 0.166504
vt 0.553223 0.159121
vt 0.733887 0.159121
vt 0.733887 0.166504
vt 0.369629 0.273926
vt 0.369629 0.266543
vt 0.550293 0.266543
vt 0.550293 0.273926
vt 0.736816 0.166504
vt 0.736816 0.159121
vt 0.91748 0.159121
vt 0.91748 0.166504
vt 0.733887 0.212832
vt 0.733887 0.220215
vt 0.553223 0.220215
vt 0.553223 0.212832
vt 0.91748 0.212832
vt 0.91748 0.220215
vt 0.736816 0.220215
vt 0.736816 0.212832
vt 0.183105 0.245059
vt 0.183105 0.252441
vt 0.002441 0.252441
vt 0.002441 0.245059
vt 0.183105 0.148379
vt 0.183105 0.155762
vt 0.002441 0.155762
vt 0.002441 0.148379
vt 0.183105 0.20209
vt 0.183105 0.209473
vt 0.002441 0.209473
vt 0.002441 0.20209
vt 0.650882 0.466306
vt 0.654573 0.447749
vt 0.661393 0.450574
vt 0.650882 0.466306
vt 0.661393 0.450574
vt 0.666614 0.455794
vt 0.650882 0.466306
vt 0.666614 0.455794
vt 0.669439 0.462615
vt 0.650882 0.466306
vt 0.669439 0.462615
vt 0.669439 0.469997
vt 0.650882 0.466306
vt 0.669439 0.469997
vt 0.666614 0.476818
vt 0.650882 0.466306
vt 0.666614 0.476818
vt 0.661393 0.482038
vt 0.650882 0.466306
vt 0.661393 0.482038
vt 0.654573 0.484863
vt 0.650882 0.466306
vt 0.654573 0.484863
vt 0.64719 0.484863
vt 0.650882 0.466306
vt 0.64719 0.484863
vt 0.64037 0.482038
vt 0.650882 0.466306
vt 0.64037 0.482038
vt 0.635149 0.476818
vt 0.650882 0.466306
vt 0.635149 0.476818
vt 0.632324 0.469997
vt 0.650882 0.466306
vt 0.632324 0.469997
vt 0.632324 0.462615
vt 0.650882 0.466306
vt 0.632324 0.462615
vt 0.635149 0.455794
vt 0.650882 0.466306
vt 0.635149 0.455794
vt 0.64037 0.450574
vt 0.650882 0.466306
vt 0.64037 0.450574
vt 0.64719 0.447749
vt 0.650882 0.466306
vt 0.64719 0.447749
vt 0.654573 0.447749
vt 0.702409 0.482038
vt 0.695588 0.484863
vt 0.691897 0.466306
vt 0.707629 0.476818
vt 0.702409 0.482038
vt 0.691897 0.466306
vt 0.710455 0.469997
vt 0.707629 0.476818
vt 0.691897 0.466306
vt 0.710455 0.462615
vt 0.710455 0.469997
vt 0.691897 0.466306
vt 0.707629 0.455794
vt 0.710455 0.462615
vt 0.691897 0.466306
vt 0.702409 0.450574
vt 0.707629 0.455794
vt 0.691897 0.466306
vt 0.695588 0.447749
vt 0.702409 0.450574
vt 0.691897 0.466306
vt 0.688206 0.447749
vt 0.695588 0.447749
vt 0.691897 0.466306
vt 0.681385 0.450574
vt 0.688206 0.447749
vt 0.691897 0.466306
vt 0.676165 0.455794
vt 0.681385 0.450574
vt 0.691897 0.466306
vt 0.67334 0.462615
vt 0.676165 0.455794
vt 0.691897 0.466306
vt 0.67334 0.469997
vt 0.67334 0.462615
vt 0.691897 0.466306
vt 0.676165 0.476818
vt 0.67334 0.469997
vt 0.691897 0.466306
vt 0.681385 0.482038
vt 0.676165 0.476818
vt 0.691897 0.466306
vt 0.688206 0.484863
vt 0.681385 0.482038
vt 0.691897 0.466306
vt 0.695588 0.484863
vt 0.688206 0.484863
vt 0.691897 0.466306
vn 0.980785 0 0.19509
vn 0.83147 0 0.55557
vn 0.55557 0 0.83147
vn 0.19509 0 0.980785
vn -0.19509 0 0.980785
vn -0.55557 0 0.83147
vn -0.83147 0 0.55557
vn -0.980785 0 0.19509
vn -0.980785 0 -0.19509
vn -0.83147 0 -0.55557
vn -0.55557 0 -0.83147
vn -0.19509 0 -0.980785
vn 0.19509 0 -0.980785
vn 0.55557 0 -0.83147
vn 0.83147 0 -0.55557
vn 0.980785 0 -0.19509
vn 0 -1 0
vn 0 1 0
f 117/353/45 118/354/46 102/355/46 101/356/45
f 118/357/46 119/358/47 103/359/47 102/360/46
f 119/361/47 120/362/48 104/363/48 103/364/47
f 120/365/48 121/366/49 105/367/49 104/368/48
f 121/369/49 122/370/50 106/371/50 105/372/49
f 122/373/50 123/374/51 107/375/51 106/376/50
f 123/377/51 124/378/52 108/379/52 107/380/51
f 124/381/52 125/382/53 109/383/53 108/384/52
f 125/385/53 126/386/54 110/387/54 109/388/53
f 126/389/54 127/390/55 111/391/55 110/392/54
f 127/393/55 128/394/56 112/395/56 111/396/55
f 128/397/56 129/398/57 113/399/57 112/400/56
f 129/401/57 130/402/58 114/403/58 113/404/57
f 130/405/58 131/406/59 115/407/59 114/408/58
f 131/409/59 132/410/60 116/411/60 115/412/59
f 132/413/60 117/414/45 101/415/45 116/416/60
f 133/417/61 101/418/61 102/419/61
f 133/420/61 102/421/61 103/422/61
f 133/423/61 103/424/61 104/425/61
f 133/426/61 104/427/61 105/428/61
f 133/429/61 105/430/61 106/431/61
f 133/432/61 106/433/61 107/434/61
f 133/435/61 107/436/61 108/437/61
f 133/438/61 108/439/61 109/440/61
f 133/441/61 109/442/61 110/443/61
f 133/444/61 110/445/61 111/446/61
f 133/447/61 111/448/61 112/449/61
f 133/450/61 112/451/61 113/452/61
f 133/453/61 113/454/61 114/455/61
f 133/456/61 114/457/61 115/458/61
f 133/459/61 115/460/61 116/461/61
f 133/462/61 116/463/61 101/464/61
f 118/465/62 117/466/62 134/467/62
f 119/468/62 118/469/62 134/470/62
f 120/471/62 119/472/62 134/473/62
f 121/474/62 120/475/62 134/476/62
f 122/477/62 121/478/62 134/479/62
f 123/480/62 122/481/62 134/482/62
f 124/483/62 123/484/62 134/485/62
f 125/486/62 124/487/62 134/488/62
f 126/489/62 125/490/62 134/491/62
f 127/492/62 126/493/62 134/494/62
f 128/495/62 127/496/62 134/497/62
f 129/498/62 128/499/62 134/500/62
f 130/501/62 129/502/62 134/503/62
f 131/504/62 130/505/62 134/506/62
f 132/507/62 131/508/62 134/509/62
f 117/510/62 132/511/62 134/512/62
o post_sw__post_sw
usemtl heat_resistant_fluid_tank
v 0.201264 0.0375 0.912649
v 0.186799 0.0375 0.947571
v 0.160071 0.0375 0.974299
v 0.125149 0.0375 0.988764
v 0.087351 0.0375 0.988764
v 0.052429 0.0375 0.974299
v 0.025701 0.0375 0.947571
v 0.011236 0.0375 0.912649
v 0.011236 0.0375 0.874851
v 0.025701 0.0375 0.839929
v 0.052429 0.0375 0.813201
v 0.087351 0.0375 0.798736
v 0.125149 0.0375 0.798736
v 0.160071 0.0375 0.813201
v 0.186799 0.0375 0.839929
v 0.201264 0.0375 0.874851
v 0.201264 0.9625 0.912649
v 0.186799 0.9625 0.947571
v 0.160071 0.9625 0.974299
v 0.125149 0.9625 0.988764
v 0.087351 0.9625 0.988764
v 0.052429 0.9625 0.974299
v 0.025701 0.9625 0.947571
v 0.011236 0.9625 0.912649
v 0.011236 0.9625 0.874851
v 0.025701 0.9625 0.839929
v 0.052429 0.9625 0.813201
v 0.087351 0.9625 0.798736
v 0.125149 0.9625 0.798736
v 0.160071 0.9625 0.813201
v 0.186799 0.9625 0.839929
v 0.201264 0.9625 0.874851
v 0.10625 0.0375 0.89375
v 0.10625 0.9625 0.89375
vt 0.183105 0.255801
vt 0.183105 0.263184
vt 0.002441 0.263184
vt 0.002441 0.255801
vt 0.366699 0.148379
vt 0.366699 0.155762
vt 0.186035 0.155762
vt 0.186035 0.148379
vt 0.366699 0.266543
vt 0.366699 0.273926
vt 0.186035 0.273926
vt 0.186035 0.266543
vt 0.550293 0.148379
vt 0.550293 0.155762
vt 0.369629 0.155762
vt 0.369629 0.148379
vt 0.553223 0.155762
vt 0.553223 0.148379
vt 0.733887 0.148379
vt 0.733887 0.155762
vt 0.186035 0.19873
vt 0.186035 0.191348
vt 0.366699 0.191348
vt 0.366699 0.19873
vt 0.369629 0.19873
vt 0.369629 0.191348
vt 0.550293 0.191348
vt 0.550293 0.19873
vt 0.186035 0.209473
vt 0.186035 0.20209
vt 0.366699 0.20209
vt 0.366699 0.209473
vt 0.369629 0.209473
vt 0.369629 0.20209
vt 0.550293 0.20209
vt 0.550293 0.209473
vt 0.002441 0.273926
vt 0.002441 0.266543
vt 0.183105 0.266543
vt 0.183105 0.273926
vt 0.736816 0.155762
vt 0.736816 0.148379
vt 0.91748 0.148379
vt 0.91748 0.155762
vt 0.733887 0.20209
vt 0.733887 0.209473
vt 0.553223 0.209473
vt 0.553223 0.20209
vt 0.183105 0.137637
vt 0.183105 0.14502
vt 0.002441 0.14502
vt 0.002441 0.137637
vt 0.366699 0.245059
vt 0.366699 0.252441
vt 0.186035 0.252441
vt 0.186035 0.245059
vt 0.733887 0.191348
vt 0.733887 0.19873
vt 0.553223 0.19873
vt 0.553223 0.191348
vt 0.91748 0.20209
vt 0.91748 0.209473
vt 0.736816 0.209473
vt 0.736816 0.20209
vt 0.814944 0.466306
vt 0.818635 0.447749
vt 0.825456 0.450574
vt 0.814944 0.466306
vt 0.825456 0.450574
vt 0.830676 0.455794
vt 0.814944 0.466306
vt 0.830676 0.455794
vt 0.833501 0.462615
vt 0.814944 0.466306
vt 0.833501 0.462615
vt 0.833501 0.469997
vt 0.814944 0.466306
vt 0.833501 0.469997
vt 0.830676 0.476818
vt 0.814944 0.466306
vt 0.830676 0.476818
vt 0.825456 0.482038
vt 0.814944 0.466306
vt 0.825456 0.482038
vt 0.818635 0.484863
vt 0.814944 0.466306
vt 0.818635 0.484863
vt 0.811253 0.484863
vt 0.814944 0.466306
vt 0.811253 0.484863
vt 0.804432 0.482038
vt 0.814944 0.466306
vt 0.804432 0.482038
vt 0.799212 0.476818
vt 0.814944 0.466306
vt 0.799212 0.476818
vt 0.796387 0.469997
vt 0.814944 0.466306
vt 0.796387 0.469997
vt 0.796387 0.462615
vt 0.814944 0.466306
vt 0.796387 0.462615
vt 0.799212 0.455794
vt 0.814944 0.466306
vt 0.799212 0.455794
vt 0.804432 0.450574
vt 0.814944 0.466306
vt 0.804432 0.450574
vt 0.811253 0.447749
vt 0.814944 0.466306
vt 0.811253 0.447749
vt 0.818635 0.447749
vt 0.866472 0.482038
vt 0.859651 0.484863
vt 0.85596 0.466306
vt 0.871692 0.476818
vt 0.866472 0.482038
vt 0.85596 0.466306
vt 0.874517 0.469997
vt 0.871692 0.476818
vt 0.85596 0.466306
vt 0.874517 0.462615
vt 0.874517 0.469997
vt 0.85596 0.466306
vt 0.871692 0.455794
vt 0.874517 0.462615
vt 0.85596 0.466306
vt 0.866472 0.450574
vt 0.871692 0.455794
vt 0.85596 0.466306
vt 0.859651 0.447749
vt 0.866472 0.450574
vt 0.85596 0.466306
vt 0.852268 0.447749
vt 0.859651 0.447749
vt 0.85596 0.466306
vt 0.845448 0.450574
vt 0.852268 0.447749
vt 0.85596 0.466306
vt 0.840228 0.455794
vt 0.845448 0.450574
vt 0.85596 0.466306
vt 0.837402 0.462615
vt 0.840228 0.455794
vt 0.85596 0.466306
vt 0.837402 0.469997
vt 0.837402 0.462615
vt 0.85596 0.466306
vt 0.840228 0.476818
vt 0.837402 0.469997
vt 0.85596 0.466306
vt 0.845448 0.482038
vt 0.840228 0.476818
vt 0.85596 0.466306
vt 0.852268 0.484863
vt 0.845448 0.482038
vt 0.85596 0.466306
vt 0.859651 0.484863
vt 0.852268 0.484863
vt 0.85596 0.466306
vn 0.980785 0 0.19509
vn 0.83147 0 0.55557
vn 0.55557 0 0.83147
vn 0.19509 0 0.980785
vn -0.19509 0 0.980785
vn -0.55557 0 0.83147
vn -0.83147 0 0.55557
vn -0.980785 0 0.19509
vn -0.980785 0 -0.19509
vn -0.83147 0 -0.55557
vn -0.55557 0 -0.83147
vn -0.19509 0 -0.980785
vn 0.19509 0 -0.980785
vn 0.55557 0 -0.83147
vn 0.83147 0 -0.55557
vn 0.980785 0 -0.19509
vn 0 -1 0
vn 0 1 0
f 151/513/63 152/514/64 136/515/64 135/516/63
f 152/517/64 153/518/65 137/519/65 136/520/64
f 153/521/65 154/522/66 138/523/66 137/524/65
f 154/525/66 155/526/67 139/527/67 138/528/66
f 155/529/67 156/530/68 140/531/68 139/532/67
f 156/533/68 157/534/69 141/535/69 140/536/68
f 157/537/69 158/538/70 142/539/70 141/540/69
f 158/541/70 159/542/71 143/543/71 142/544/70
f 159/545/71 160/546/72 144/547/72 143/548/71
f 160/549/72 161/550/73 145/551/73 144/552/72
f 161/553/73 162/554/74 146/555/74 145/556/73
f 162/557/74 163/558/75 147/559/75 146/560/74
f 163/561/75 164/562/76 148/563/76 147/564/75
f 164/565/76 165/566/77 149/567/77 148/568/76
f 165/569/77 166/570/78 150/571/78 149/572/77
f 166/573/78 151/574/63 135/575/63 150/576/78
f 167/577/79 135/578/79 136/579/79
f 167/580/79 136/581/79 137/582/79
f 167/583/79 137/584/79 138/585/79
f 167/586/79 138/587/79 139/588/79
f 167/589/79 139/590/79 140/591/79
f 167/592/79 140/593/79 141/594/79
f 167/595/79 141/596/79 142/597/79
f 167/598/79 142/599/79 143/600/79
f 167/601/79 143/602/79 144/603/79
f 167/604/79 144/605/79 145/606/79
f 167/607/79 145/608/79 146/609/79
f 167/610/79 146/611/79 147/612/79
f 167/613/79 147/614/79 148/615/79
f 167/616/79 148/617/79 149/618/79
f 167/619/79 149/620/79 150/621/79
f 167/622/79 150/623/79 135/624/79
f 152/625/80 151/626/80 168/627/80
f 153/628/80 152/629/80 168/630/80
f 154/631/80 153/632/80 168/633/80
f 155/634/80 154/635/80 168/636/80
f 156/637/80 155/638/80 168/639/80
f 157/640/80 156/641/80 168/642/80
f 158/643/80 157/644/80 168/645/80
f 159/646/80 158/647/80 168/648/80
f 160/649/80 159/650/80 168/651/80
f 161/652/80 160/653/80 168/654/80
f 162/655/80 161/656/80 168/657/80
f 163/658/80 162/659/80 168/660/80
f 164/661/80 163/662/80 168/663/80
f 165/664/80 164/665/80 168/666/80
f 166/667/80 165/668/80 168/669/80
f 151/670/80 166/671/80 168/672/80
o deck_top__deck_top_plate
usemtl heat_resistant_fluid_tank
v 0 0.9625 1
v 1 0.9625 1
v 1 0.9625 0
v 0 0.9625 0
v 0 1 1
v 1 1 1
v 1 1 0
v 0 1 0
v 0.19375 0.9625 0.19375
v 0.80625 0.9625 0.19375
v 0.80625 0.9625 0.80625
v 0.19375 0.9625 0.80625
v 0.19375 1 0.19375
v 0.80625 1 0.19375
v 0.80625 1 0.80625
v 0.19375 1 0.80625
v 0 0.9625 1
v 1 0.9625 1
v 1 0.9625 0
v 0 0.9625 0
v 0.19375 0.9625 0.19375
v 0.80625 0.9625 0.19375
v 0.80625 0.9625 0.80625
v 0.19375 0.9625 0.80625
v 0 1 1
v 1 1 1
v 1 1 0
v 0 1 0
v 0.19375 1 0.19375
v 0.80625 1 0.19375
v 0.80625 1 0.80625
v 0.19375 1 0.80625
vt 0.736816 0.137695
vt 0.932129 0.137695
vt 0.932129 0.14502
vt 0.736816 0.14502
vt 0.197754 0.134277
vt 0.002441 0.134277
vt 0.002441 0.126953
vt 0.197754 0.126953
vt 0.200684 0.126953
vt 0.395996 0.126953
vt 0.395996 0.134277
vt 0.200684 0.134277
vt 0.398926 0.126953
vt 0.594238 0.126953
vt 0.594238 0.134277
vt 0.398926 0.134277
vt 0.159668 0.083984
vt 0.279297 0.083984
vt 0.279297 0.091309
vt 0.159668 0.091309
vt 0.282715 0.083984
vt 0.402344 0.083984
vt 0.402344 0.091309
vt 0.282715 0.091309
vt 0.405762 0.083984
vt 0.525391 0.083984
vt 0.525391 0.091309
vt 0.405762 0.091309
vt 0.648438 0.091309
vt 0.528809 0.091309
vt 0.528809 0.083984
vt 0.648438 0.083984
vt 0.159912 0.840088
vt 0.197754 0.802246
vt 0.197754 0.997559
vt 0.159912 0.959717
vt 0.159912 0.840088
vt 0.197754 0.997559
vt 0.159912 0.959717
vt 0.197754 0.997559
vt 0.002441 0.997559
vt 0.040283 0.959717
vt 0.159912 0.959717
vt 0.002441 0.997559
vt 0.040283 0.840088
vt 0.040283 0.959717
vt 0.002441 0.997559
vt 0.197754 0.802246
vt 0.159912 0.840088
vt 0.040283 0.840088
vt 0.002441 0.802246
vt 0.197754 0.802246
vt 0.040283 0.840088
vt 0.002441 0.997559
vt 0.002441 0.802246
vt 0.040283 0.840088
vt 0.395996 0.802246
vt 0.395996 0.997559
vt 0.358154 0.959717
vt 0.395996 0.802246
vt 0.358154 0.959717
vt 0.358154 0.840088
vt 0.200684 0.802246
vt 0.395996 0.802246
vt 0.358154 0.840088
vt 0.200684 0.802246
vt 0.358154 0.840088
vt 0.238525 0.840088
vt 0.200684 0.802246
vt 0.238525 0.840088
vt 0.238525 0.959717
vt 0.238525 0.959717
vt 0.358154 0.959717
vt 0.395996 0.997559
vt 0.238525 0.959717
vt 0.395996 0.997559
vt 0.200684 0.997559
vt 0.238525 0.959717
vt 0.200684 0.997559
vt 0.200684 0.802246
vn 0 0 1
vn 1 0 0
vn 0 0 -1
vn -1 0 0
vn 0 -1 0
vn 0 1 0
f 169/673/81 170/674/81 174/675/81 173/676/81
f 170/677/82 171/678/82 175/679/82 174/680/82
f 171/681/83 172/682/83 176/683/83 175/684/83
f 172/685/84 169/686/84 173/687/84 176/688/84
f 177/689/81 178/690/81 182/691/81 181/692/81
f 178/693/84 179/694/84 183/695/84 182/696/84
f 179/697/83 180/698/83 184/699/83 183/700/83
f 180/701/82 177/702/82 181/703/82 184/704/82
f 191/705/85 186/706/85 185/707/85
f 192/708/85 191/709/85 185/710/85
f 192/711/85 185/712/85 188/713/85
f 189/714/85 192/715/85 188/716/85
f 190/717/85 189/718/85 188/719/85
f 186/720/85 191/721/85 190/722/85
f 187/723/85 186/724/85 190/725/85
f 188/726/85 187/727/85 190/728/85
f 193/729/86 194/730/86 199/731/86
f 193/732/86 199/733/86 200/734/86
f 196/735/86 193/736/86 200/737/86
f 196/738/86 200/739/86 197/740/86
f 196/741/86 197/742/86 198/743/86
f 198/744/86 199/745/86 194/746/86
f 198/747/86 194/748/86 195/749/86
f 198/750/86 195/751/86 196/752/86
o deck_top__deck_top_lining
usemtl heat_resistant_fluid_tank
v 0.19375 0.9625 0.80625
v 0.80625 0.9625 0.80625
v 0.80625 0.9625 0.19375
v 0.19375 0.9625 0.19375
v 0.19375 1 0.80625
v 0.80625 1 0.80625
v 0.80625 1 0.19375
v 0.19375 1 0.19375
v 0.25 0.9625 0.25
v 0.75 0.9625 0.25
v 0.75 0.9625 0.75
v 0.25 0.9625 0.75
v 0.25 1 0.25
v 0.75 1 0.25
v 0.75 1 0.75
v 0.25 1 0.75
v 0.19375 0.9625 0.80625
v 0.80625 0.9625 0.80625
v 0.80625 0.9625 0.19375
v 0.19375 0.9625 0.19375
v 0.25 0.9625 0.25
v 0.75 0.9625 0.25
v 0.75 0.9625 0.75
v 0.25 0.9625 0.75
v 0.19375 1 0.80625
v 0.80625 1 0.80625
v 0.80625 1 0.19375
v 0.19375 1 0.19375
v 0.25 1 0.25
v 0.75 1 0.25
v 0.75 1 0.75
v 0.25 1 0.75
vt 0.651855 0.083984
vt 0.771484 0.083984
vt 0.771484 0.091309
vt 0.651855 0.091309
vt 0.894531 0.091309
vt 0.774902 0.091309
vt 0.774902 0.083984
vt 0.894531 0.083984
vt 0.002441 0.073242
vt 0.12207 0.073242
vt 0.12207 0.080566
vt 0.002441 0.080566
vt 0.125488 0.073242
vt 0.245117 0.073242
vt 0.245117 0.080566
vt 0.125488 0.080566
vt 0.248535 0.0625
vt 0.346191 0.0625
vt 0.346191 0.069824
vt 0.248535 0.069824
vt 0.349121 0.0625
vt 0.446777 0.0625
vt 0.446777 0.069824
vt 0.349121 0.069824
vt 0.449707 0.0625
vt 0.547363 0.0625
vt 0.547363 0.069824
vt 0.449707 0.069824
vt 0.647949 0.069824
vt 0.550293 0.069824
vt 0.550293 0.0625
vt 0.647949 0.0625
vt 0.478271 0.533447
vt 0.489258 0.522461
vt 0.489258 0.64209
vt 0.478271 0.631104
vt 0.478271 0.533447
vt 0.489258 0.64209
vt 0.478271 0.631104
vt 0.489258 0.64209
vt 0.369629 0.64209
vt 0.380615 0.631104
vt 0.478271 0.631104
vt 0.369629 0.64209
vt 0.380615 0.533447
vt 0.380615 0.631104
vt 0.369629 0.64209
vt 0.489258 0.522461
vt 0.478271 0.533447
vt 0.380615 0.533447
vt 0.369629 0.522461
vt 0.489258 0.522461
vt 0.380615 0.533447
vt 0.369629 0.64209
vt 0.369629 0.522461
vt 0.380615 0.533447
vt 0.612305 0.522461
vt 0.612305 0.64209
vt 0.601318 0.631104
vt 0.612305 0.522461
vt 0.601318 0.631104
vt 0.601318 0.533447
vt 0.492676 0.522461
vt 0.612305 0.522461
vt 0.601318 0.533447
vt 0.492676 0.522461
vt 0.601318 0.533447
vt 0.503662 0.533447
vt 0.492676 0.522461
vt 0.503662 0.533447
vt 0.503662 0.631104
vt 0.503662 0.631104
vt 0.601318 0.631104
vt 0.612305 0.64209
vt 0.503662 0.631104
vt 0.612305 0.64209
vt 0.492676 0.64209
vt 0.503662 0.631104
vt 0.492676 0.64209
vt 0.492676 0.522461
vn 0 0 1
vn 1 0 0
vn 0 0 -1
vn -1 0 0
vn 0 -1 0
vn 0 1 0
f 201/753/87 202/754/87 206/755/87 205/756/87
f 202/757/88 203/758/88 207/759/88 206/760/88
f 203/761/89 204/762/89 208/763/89 207/764/89
f 204/765/90 201/766/90 205/767/90 208/768/90
f 209/769/87 210/770/87 214/771/87 213/772/87
f 210/773/90 211/774/90 215/775/90 214/776/90
f 211/777/89 212/778/89 216/779/89 215/780/89
f 212/781/88 209/782/88 213/783/88 216/784/88
f 223/785/91 218/786/91 217/787/91
f 224/788/91 223/789/91 217/790/91
f 224/791/91 217/792/91 220/793/91
f 221/794/91 224/795/91 220/796/91
f 222/797/91 221/798/91 220/799/91
f 218/800/91 223/801/91 222/802/91
f 219/803/91 218/804/91 222/805/91
f 220/806/91 219/807/91 222/808/91
f 225/809/92 226/810/92 231/811/92
f 225/812/92 231/813/92 232/814/92
f 228/815/92 225/816/92 232/817/92
f 228/818/92 232/819/92 229/820/92
f 228/821/92 229/822/92 230/823/92
f 230/824/92 231/825/92 226/826/92
f 230/827/92 226/828/92 227/829/92
f 230/830/92 227/831/92 228/832/92
o deck_top__deck_top_throat
usemtl heat_resistant_fluid_tank
v 0.25 0.93125 0.75
v 0.75 0.93125 0.75
v 0.75 0.93125 0.25
v 0.25 0.93125 0.25
v 0.25 0.96375 0.75
v 0.75 0.96375 0.75
v 0.75 0.96375 0.25
v 0.25 0.96375 0.25
v 0.25 0.93125 0.75
v 0.75 0.93125 0.75
v 0.75 0.93125 0.25
v 0.25 0.93125 0.25
v 0.25 0.96375 0.75
v 0.75 0.96375 0.75
v 0.75 0.96375 0.25
v 0.25 0.96375 0.25
vt 0.281738 0.03125
vt 0.379395 0.03125
vt 0.379395 0.037598
vt 0.281738 0.037598
vt 0.47998 0.037598
vt 0.382324 0.037598
vt 0.382324 0.03125
vt 0.47998 0.03125
vt 0.48291 0.03125
vt 0.580566 0.03125
vt 0.580566 0.037598
vt 0.48291 0.037598
vt 0.583496 0.03125
vt 0.681152 0.03125
vt 0.681152 0.037598
vt 0.583496 0.037598
vt 0.959473 0.544434
vt 0.959473 0.64209
vt 0.861816 0.64209
vt 0.861816 0.64209
vt 0.861816 0.544434
vt 0.959473 0.544434
vt 0.002441 0.387207
vt 0.100098 0.387207
vt 0.100098 0.484863
vt 0.100098 0.484863
vt 0.002441 0.484863
vt 0.002441 0.387207
vn 0 0 1
vn 1 0 0
vn 0 0 -1
vn -1 0 0
vn 0 -1 0
vn 0 1 0
f 233/833/93 234/834/93 238/835/93 237/836/93
f 234/837/94 235/838/94 239/839/94 238/840/94
f 235/841/95 236/842/95 240/843/95 239/844/95
f 236/845/96 233/846/96 237/847/96 240/848/96
f 242/849/97 241/850/97 244/851/97
f 244/852/97 243/853/97 242/854/97
f 248/855/98 245/856/98 246/857/98
f 246/858/98 247/859/98 248/860/98
o deck_top__deck_top_studs
usemtl heat_resistant_fluid_tank
v 0.232108 1 0.19625
v 0.209375 1 0.183125
v 0.186642 1 0.19625
v 0.186642 1 0.2225
v 0.209375 1 0.235625
v 0.232108 1 0.2225
v 0.232108 1.02 0.19625
v 0.209375 1.02 0.183125
v 0.186642 1.02 0.19625
v 0.186642 1.02 0.2225
v 0.209375 1.02 0.235625
v 0.232108 1.02 0.2225
v 0.232108 1 0.19625
v 0.209375 1 0.183125
v 0.186642 1 0.19625
v 0.186642 1 0.2225
v 0.209375 1 0.235625
v 0.232108 1 0.2225
v 0.232108 1.02 0.19625
v 0.209375 1.02 0.183125
v 0.186642 1.02 0.19625
v 0.186642 1.02 0.2225
v 0.209375 1.02 0.235625
v 0.232108 1.02 0.2225
v 0.232108 1 0.7775
v 0.209375 1 0.764375
v 0.186642 1 0.7775
v 0.186642 1 0.80375
v 0.209375 1 0.816875
v 0.232108 1 0.80375
v 0.232108 1.02 0.7775
v 0.209375 1.02 0.764375
v 0.186642 1.02 0.7775
v 0.186642 1.02 0.80375
v 0.209375 1.02 0.816875
v 0.232108 1.02 0.80375
v 0.232108 1 0.7775
v 0.209375 1 0.764375
v 0.186642 1 0.7775
v 0.186642 1 0.80375
v 0.209375 1 0.816875
v 0.232108 1 0.80375
v 0.232108 1.02 0.7775
v 0.209375 1.02 0.764375
v 0.186642 1.02 0.7775
v 0.186642 1.02 0.80375
v 0.209375 1.02 0.816875
v 0.232108 1.02 0.80375
v 0.813358 1 0.19625
v 0.790625 1 0.183125
v 0.767892 1 0.19625
v 0.767892 1 0.2225
v 0.790625 1 0.235625
v 0.813358 1 0.2225
v 0.813358 1.02 0.19625
v 0.790625 1.02 0.183125
v 0.767892 1.02 0.19625
v 0.767892 1.02 0.2225
v 0.790625 1.02 0.235625
v 0.813358 1.02 0.2225
v 0.813358 1 0.19625
v 0.790625 1 0.183125
v 0.767892 1 0.19625
v 0.767892 1 0.2225
v 0.790625 1 0.235625
v 0.813358 1 0.2225
v 0.813358 1.02 0.19625
v 0.790625 1.02 0.183125
v 0.767892 1.02 0.19625
v 0.767892 1.02 0.2225
v 0.790625 1.02 0.235625
v 0.813358 1.02 0.2225
v 0.813358 1 0.7775
v 0.790625 1 0.764375
v 0.767892 1 0.7775
v 0.767892 1 0.80375
v 0.790625 1 0.816875
v 0.813358 1 0.80375
v 0.813358 1.02 0.7775
v 0.790625 1.02 0.764375
v 0.767892 1.02 0.7775
v 0.767892 1.02 0.80375
v 0.790625 1.02 0.816875
v 0.813358 1.02 0.80375
v 0.813358 1 0.7775
v 0.790625 1 0.764375
v 0.767892 1 0.7775
v 0.767892 1 0.80375
v 0.790625 1 0.816875
v 0.813358 1 0.80375
v 0.813358 1.02 0.7775
v 0.790625 1.02 0.764375
v 0.767892 1.02 0.7775
v 0.767892 1.02 0.80375
v 0.790625 1.02 0.816875
v 0.813358 1.02 0.80375
vt 0.108154 0.026855
vt 0.103027 0.026855
vt 0.103027 0.022949
vt 0.108154 0.022949
vt 0.384277 0.022949
vt 0.389404 0.022949
vt 0.389404 0.026855
vt 0.384277 0.026855
vt 0.111816 0.022949
vt 0.116943 0.022949
vt 0.116943 0.026855
vt 0.111816 0.026855
vt 0.45459 0.022949
vt 0.459717 0.022949
vt 0.459717 0.026855
vt 0.45459 0.026855
vt 0.125732 0.026855
vt 0.120605 0.026855
vt 0.120605 0.022949
vt 0.125732 0.022949
vt 0.134521 0.026855
vt 0.129395 0.026855
vt 0.129395 0.022949
vt 0.134521 0.022949
vt 0.979004 0.306595
vt 0.981567 0.302155
vt 0.986694 0.302155
vt 0.981567 0.311035
vt 0.979004 0.306595
vt 0.986694 0.302155
vt 0.986694 0.311035
vt 0.981567 0.311035
vt 0.986694 0.302155
vt 0.986694 0.302155
vt 0.989258 0.306595
vt 0.986694 0.311035
vt 0.010132 0.286621
vt 0.005005 0.286621
vt 0.002441 0.282181
vt 0.010132 0.286621
vt 0.002441 0.282181
vt 0.005005 0.277741
vt 0.010132 0.286621
vt 0.005005 0.277741
vt 0.010132 0.277741
vt 0.010132 0.277741
vt 0.012695 0.282181
vt 0.010132 0.286621
vt 0.143311 0.026855
vt 0.138184 0.026855
vt 0.138184 0.022949
vt 0.143311 0.022949
vt 0.463379 0.022949
vt 0.468506 0.022949
vt 0.468506 0.026855
vt 0.463379 0.026855
vt 0.146973 0.022949
vt 0.1521 0.022949
vt 0.1521 0.026855
vt 0.146973 0.026855
vt 0.393066 0.022949
vt 0.398193 0.022949
vt 0.398193 0.026855
vt 0.393066 0.026855
vt 0.160889 0.026855
vt 0.155762 0.026855
vt 0.155762 0.022949
vt 0.160889 0.022949
vt 0.169678 0.026855
vt 0.164551 0.026855
vt 0.164551 0.022949
vt 0.169678 0.022949
vt 0.016113 0.282181
vt 0.018677 0.277741
vt 0.023804 0.277741
vt 0.018677 0.286621
vt 0.016113 0.282181
vt 0.023804 0.277741
vt 0.023804 0.286621
vt 0.018677 0.286621
vt 0.023804 0.277741
vt 0.023804 0.277741
vt 0.026367 0.282181
vt 0.023804 0.286621
vt 0.037476 0.286621
vt 0.032349 0.286621
vt 0.029785 0.282181
vt 0.037476 0.286621
vt 0.029785 0.282181
vt 0.032349 0.277741
vt 0.037476 0.286621
vt 0.032349 0.277741
vt 0.037476 0.277741
vt 0.037476 0.277741
vt 0.040039 0.282181
vt 0.037476 0.286621
vt 0.406982 0.026855
vt 0.401855 0.026855
vt 0.401855 0.022949
vt 0.406982 0.022949
vt 0.17334 0.022949
vt 0.178467 0.022949
vt 0.178467 0.026855
vt 0.17334 0.026855
vt 0.182129 0.022949
vt 0.187256 0.022949
vt 0.187256 0.026855
vt 0.182129 0.026855
vt 0.190918 0.022949
vt 0.196045 0.022949
vt 0.196045 0.026855
vt 0.190918 0.026855
vt 0.477295 0.026855
vt 0.472168 0.026855
vt 0.472168 0.022949
vt 0.477295 0.022949
vt 0.204834 0.026855
vt 0.199707 0.026855
vt 0.199707 0.022949
vt 0.204834 0.022949
vt 0.043457 0.282181
vt 0.046021 0.277741
vt 0.051147 0.277741
vt 0.046021 0.286621
vt 0.043457 0.282181
vt 0.051147 0.277741
vt 0.051147 0.286621
vt 0.046021 0.286621
vt 0.051147 0.277741
vt 0.051147 0.277741
vt 0.053711 0.282181
vt 0.051147 0.286621
vt 0.064819 0.286621
vt 0.059692 0.286621
vt 0.057129 0.282181
vt 0.064819 0.286621
vt 0.057129 0.282181
vt 0.059692 0.277741
vt 0.064819 0.286621
vt 0.059692 0.277741
vt 0.064819 0.277741
vt 0.064819 0.277741
vt 0.067383 0.282181
vt 0.064819 0.286621
vt 0.486084 0.026855
vt 0.480957 0.026855
vt 0.480957 0.022949
vt 0.486084 0.022949
vt 0.208496 0.022949
vt 0.213623 0.022949
vt 0.213623 0.026855
vt 0.208496 0.026855
vt 0.217285 0.022949
vt 0.222412 0.022949
vt 0.222412 0.026855
vt 0.217285 0.026855
vt 0.226074 0.022949
vt 0.231201 0.022949
vt 0.231201 0.026855
vt 0.226074 0.026855
vt 0.415771 0.026855
vt 0.410645 0.026855
vt 0.410645 0.022949
vt 0.415771 0.022949
vt 0.23999 0.026855
vt 0.234863 0.026855
vt 0.234863 0.022949
vt 0.23999 0.022949
vt 0.070801 0.282181
vt 0.073364 0.277741
vt 0.078491 0.277741
vt 0.073364 0.286621
vt 0.070801 0.282181
vt 0.078491 0.277741
vt 0.078491 0.286621
vt 0.073364 0.286621
vt 0.078491 0.277741
vt 0.078491 0.277741
vt 0.081055 0.282181
vt 0.078491 0.286621
vt 0.092163 0.286621
vt 0.087036 0.286621
vt 0.084473 0.282181
vt 0.092163 0.286621
vt 0.084473 0.282181
vt 0.087036 0.277741
vt 0.092163 0.286621
vt 0.087036 0.277741
vt 0.092163 0.277741
vt 0.092163 0.277741
vt 0.094727 0.282181
vt 0.092163 0.286621
vn 0.5 0 -0.866025
vn -0.5 0 -0.866025
vn -1 0 0
vn -0.5 0 0.866025
vn 0.5 0 0.866025
vn 1 0 0
vn 0 -1 0
vn 0 1 0
f 249/861/99 250/862/99 256/863/99 255/864/99
f 250/865/100 251/866/100 257/867/100 256/868/100
f 251/869/101 252/870/101 258/871/101 257/872/101
f 252/873/102 253/874/102 259/875/102 258/876/102
f 253/877/103 254/878/103 260/879/103 259/880/103
f 254/881/104 249/882/104 255/883/104 260/884/104
f 262/885/105 261/886/105 266/887/105
f 263/888/105 262/889/105 266/890/105
f 264/891/105 263/892/105 266/893/105
f 266/894/105 265/895/105 264/896/105
f 272/897/106 267/898/106 268/899/106
f 272/900/106 268/901/106 269/902/106
f 272/903/106 269/904/106 270/905/106
f 270/906/106 271/907/106 272/908/106
f 273/909/99 274/910/99 280/911/99 279/912/99
f 274/913/100 275/914/100 281/915/100 280/916/100
f 275/917/101 276/918/101 282/919/101 281/920/101
f 276/921/102 277/922/102 283/923/102 282/924/102
f 277/925/103 278/926/103 284/927/103 283/928/103
f 278/929/104 273/930/104 279/931/104 284/932/104
f 286/933/105 285/934/105 290/935/105
f 287/936/105 286/937/105 290/938/105
f 288/939/105 287/940/105 290/941/105
f 290/942/105 289/943/105 288/944/105
f 296/945/106 291/946/106 292/947/106
f 296/948/106 292/949/106 293/950/106
f 296/951/106 293/952/106 294/953/106
f 294/954/106 295/955/106 296/956/106
f 297/957/99 298/958/99 304/959/99 303/960/99
f 298/961/100 299/962/100 305/963/100 304/964/100
f 299/965/101 300/966/101 306/967/101 305/968/101
f 300/969/102 301/970/102 307/971/102 306/972/102
f 301/973/103 302/974/103 308/975/103 307/976/103
f 302/977/104 297/978/104 303/979/104 308/980/104
f 310/981/105 309/982/105 314/983/105
f 311/984/105 310/985/105 314/986/105
f 312/987/105 311/988/105 314/989/105
f 314/990/105 313/991/105 312/992/105
f 320/993/106 315/994/106 316/995/106
f 320/996/106 316/997/106 317/998/106
f 320/999/106 317/1000/106 318/1001/106
f 318/1002/106 319/1003/106 320/1004/106
f 321/1005/99 322/1006/99 328/1007/99 327/1008/99
f 322/1009/100 323/1010/100 329/1011/100 328/1012/100
f 323/1013/101 324/1014/101 330/1015/101 329/1016/101
f 324/1017/102 325/1018/102 331/1019/102 330/1020/102
f 325/1021/103 326/1022/103 332/1023/103 331/1024/103
f 326/1025/104 321/1026/104 327/1027/104 332/1028/104
f 334/1029/105 333/1030/105 338/1031/105
f 335/1032/105 334/1033/105 338/1034/105
f 336/1035/105 335/1036/105 338/1037/105
f 338/1038/105 337/1039/105 336/1040/105
f 344/1041/106 339/1042/106 340/1043/106
f 344/1044/106 340/1045/106 341/1046/106
f 344/1047/106 341/1048/106 342/1049/106
f 342/1050/106 343/1051/106 344/1052/106
o band_north__band_north
usemtl heat_resistant_fluid_tank
v 0 0.90625 0.1175
v 1 0.90625 0.1175
v 1 0.90625 0.09875
v 0 0.90625 0.09875
v 0 0.95625 0.1175
v 1 0.95625 0.1175
v 1 0.95625 0.09875
v 0 0.95625 0.09875
v 0 0.90625 0.1175
v 1 0.90625 0.1175
v 1 0.90625 0.09875
v 0 0.90625 0.09875
v 0 0.95625 0.1175
v 1 0.95625 0.1175
v 1 0.95625 0.09875
v 0 0.95625 0.09875
vt 0.186035 0.30127
vt 0.381348 0.30127
vt 0.381348 0.311035
vt 0.186035 0.311035
vt 0.200684 0.010254
vt 0.200684 0.006592
vt 0.210449 0.006592
vt 0.210449 0.010254
vt 0.384277 0.30127
vt 0.57959 0.30127
vt 0.57959 0.311035
vt 0.384277 0.311035
vt 0.223145 0.006592
vt 0.223145 0.010254
vt 0.213379 0.010254
vt 0.213379 0.006592
vt 0.720215 0.026855
vt 0.524902 0.026855
vt 0.524902 0.023193
vt 0.524902 0.023193
vt 0.720215 0.023193
vt 0.720215 0.026855
vt 0.918457 0.023193
vt 0.918457 0.026855
vt 0.723145 0.026855
vt 0.723145 0.026855
vt 0.723145 0.023193
vt 0.918457 0.023193
vn 0 0 1
vn 1 0 0
vn 0 0 -1
vn -1 0 0
vn 0 -1 0
vn 0 1 0
f 345/1053/107 346/1054/107 350/1055/107 349/1056/107
f 346/1057/108 347/1058/108 351/1059/108 350/1060/108
f 347/1061/109 348/1062/109 352/1063/109 351/1064/109
f 348/1065/110 345/1066/110 349/1067/110 352/1068/110
f 354/1069/111 353/1070/111 356/1071/111
f 356/1072/111 355/1073/111 354/1074/111
f 360/1075/112 357/1076/112 358/1077/112
f 358/1078/112 359/1079/112 360/1080/112
o band_south__band_south
usemtl heat_resistant_fluid_tank
v 0 0.90625 0.90125
v 1 0.90625 0.90125
v 1 0.90625 0.8825
v 0 0.90625 0.8825
v 0 0.95625 0.90125
v 1 0.95625 0.90125
v 1 0.95625 0.8825
v 0 0.95625 0.8825
v 0 0.90625 0.90125
v 1 0.90625 0.90125
v 1 0.90625 0.8825
v 0 0.90625 0.8825
v 0 0.95625 0.90125
v 1 0.95625 0.90125
v 1 0.95625 0.8825
v 0 0.95625 0.8825
vt 0.58252 0.30127
vt 0.777832 0.30127
vt 0.777832 0.311035
vt 0.58252 0.311035
vt 0.226074 0.010254
vt 0.226074 0.006592
vt 0.23584 0.006592
vt 0.23584 0.010254
vt 0.780762 0.30127
vt 0.976074 0.30127
vt 0.976074 0.311035
vt 0.780762 0.311035
vt 0.248535 0.006592
vt 0.248535 0.010254
vt 0.23877 0.010254
vt 0.23877 0.006592
vt 0.197754 0.01709
vt 0.002441 0.01709
vt 0.002441 0.013428
vt 0.002441 0.013428
vt 0.197754 0.013428
vt 0.197754 0.01709
vt 0.395996 0.013428
vt 0.395996 0.01709
vt 0.200684 0.01709
vt 0.200684 0.01709
vt 0.200684 0.013428
vt 0.395996 0.013428
vn 0 0 1
vn 1 0 0
vn 0 0 -1
vn -1 0 0
vn 0 -1 0
vn 0 1 0
f 361/1081/113 362/1082/113 366/1083/113 365/1084/113
f 362/1085/114 363/1086/114 367/1087/114 366/1088/114
f 363/1089/115 364/1090/115 368/1091/115 367/1092/115
f 364/1093/116 361/1094/116 365/1095/116 368/1096/116
f 370/1097/117 369/1098/117 372/1099/117
f 372/1100/117 371/1101/117 370/1102/117
f 376/1103/118 373/1104/118 374/1105/118
f 374/1106/118 375/1107/118 376/1108/118
o band_west__band_west
usemtl heat_resistant_fluid_tank
v 0.09875 0.909375 1
v 0.1175 0.909375 1
v 0.1175 0.909375 0
v 0.09875 0.909375 0
v 0.09875 0.953125 1
v 0.1175 0.953125 1
v 0.1175 0.953125 0
v 0.09875 0.953125 0
v 0.09875 0.909375 1
v 0.1175 0.909375 1
v 0.1175 0.909375 0
v 0.09875 0.909375 0
v 0.09875 0.953125 1
v 0.1175 0.953125 1
v 0.1175 0.953125 0
v 0.09875 0.953125 0
vt 0.251465 0.010254
vt 0.251465 0.006592
vt 0.26001 0.006592
vt 0.26001 0.010254
vt 0.402832 0.286621
vt 0.20752 0.286621
vt 0.20752 0.278076
vt 0.402832 0.278076
vt 0.263184 0.010254
vt 0.263184 0.006592
vt 0.271729 0.006592
vt 0.271729 0.010254
vt 0.405762 0.278076
vt 0.601074 0.278076
vt 0.601074 0.286621
vt 0.405762 0.286621
vt 0.594238 0.013428
vt 0.594238 0.01709
vt 0.398926 0.01709
vt 0.398926 0.01709
vt 0.398926 0.013428
vt 0.594238 0.013428
vt 0.597168 0.013428
vt 0.79248 0.013428
vt 0.79248 0.01709
vt 0.79248 0.01709
vt 0.597168 0.01709
vt 0.597168 0.013428
vn 0 0 1
vn 1 0 0
vn 0 0 -1
vn -1 0 0
vn 0 -1 0
vn 0 1 0
f 377/1109/119 378/1110/119 382/1111/119 381/1112/119
f 378/1113/120 379/1114/120 383/1115/120 382/1116/120
f 379/1117/121 380/1118/121 384/1119/121 383/1120/121
f 380/1121/122 377/1122/122 381/1123/122 384/1124/122
f 386/1125/123 385/1126/123 388/1127/123
f 388/1128/123 387/1129/123 386/1130/123
f 392/1131/124 389/1132/124 390/1133/124
f 390/1134/124 391/1135/124 392/1136/124
o band_east__band_east
usemtl heat_resistant_fluid_tank
v 0.8825 0.909375 1
v 0.90125 0.909375 1
v 0.90125 0.909375 0
v 0.8825 0.909375 0
v 0.8825 0.953125 1
v 0.90125 0.953125 1
v 0.90125 0.953125 0
v 0.8825 0.953125 0
v 0.8825 0.909375 1
v 0.90125 0.909375 1
v 0.90125 0.909375 0
v 0.8825 0.909375 0
v 0.8825 0.953125 1
v 0.90125 0.953125 1
v 0.90125 0.953125 0
v 0.8825 0.953125 0
vt 0.274902 0.010254
vt 0.274902 0.006592
vt 0.283447 0.006592
vt 0.283447 0.010254
vt 0.799316 0.286621
vt 0.604004 0.286621
vt 0.604004 0.278076
vt 0.799316 0.278076
vt 0.286621 0.010254
vt 0.286621 0.006592
vt 0.295166 0.006592
vt 0.295166 0.010254
vt 0.802246 0.278076
vt 0.997559 0.278076
vt 0.997559 0.286621
vt 0.802246 0.286621
vt 0.990723 0.013428
vt 0.990723 0.01709
vt 0.79541 0.01709
vt 0.79541 0.01709
vt 0.79541 0.013428
vt 0.990723 0.013428
vt 0.002441 0.006592
vt 0.197754 0.006592
vt 0.197754 0.010254
vt 0.197754 0.010254
vt 0.002441 0.010254
vt 0.002441 0.006592
vn 0 0 1
vn 1 0 0
vn 0 0 -1
vn -1 0 0
vn 0 -1 0
vn 0 1 0
f 393/1137/125 394/1138/125 398/1139/125 397/1140/125
f 394/1141/126 395/1142/126 399/1143/126 398/1144/126
f 395/1145/127 396/1146/127 400/1147/127 399/1148/127
f 396/1149/128 393/1150/128 397/1151/128 400/1152/128
f 402/1153/129 401/1154/129 404/1155/129
f 404/1156/129 403/1157/129 402/1158/129
f 408/1159/130 405/1160/130 406/1161/130
f 406/1162/130 407/1163/130 408/1164/130
o deck_bottom__deck_bottom_plate
usemtl heat_resistant_fluid_tank
v 0 0 1
v 1 0 1
v 1 0 0
v 0 0 0
v 0 0.0375 1
v 1 0.0375 1
v 1 0.0375 0
v 0 0.0375 0
v 0.19375 0 0.19375
v 0.80625 0 0.19375
v 0.80625 0 0.80625
v 0.19375 0 0.80625
v 0.19375 0.0375 0.19375
v 0.80625 0.0375 0.19375
v 0.80625 0.0375 0.80625
v 0.19375 0.0375 0.80625
v 0 0 1
v 1 0 1
v 1 0 0
v 0 0 0
v 0.19375 0 0.19375
v 0.80625 0 0.19375
v 0.80625 0 0.80625
v 0.19375 0 0.80625
v 0 0.0375 1
v 1 0.0375 1
v 1 0.0375 0
v 0 0.0375 0
v 0.19375 0.0375 0.19375
v 0.80625 0.0375 0.19375
v 0.80625 0.0375 0.80625
v 0.19375 0.0375 0.80625
vt 0.597168 0.126953
vt 0.79248 0.126953
vt 0.79248 0.134277
vt 0.597168 0.134277
vt 0.990723 0.134277
vt 0.79541 0.134277
vt 0.79541 0.126953
vt 0.990723 0.126953
vt 0.002441 0.116211
vt 0.197754 0.116211
vt 0.197754 0.123535
vt 0.002441 0.123535
vt 0.200684 0.116211
vt 0.395996 0.116211
vt 0.395996 0.123535
vt 0.200684 0.123535
vt 0.248535 0.073242
vt 0.368164 0.073242
vt 0.368164 0.080566
vt 0.248535 0.080566
vt 0.371582 0.073242
vt 0.491211 0.073242
vt 0.491211 0.080566
vt 0.371582 0.080566
vt 0.494629 0.073242
vt 0.614258 0.073242
vt 0.614258 0.080566
vt 0.494629 0.080566
vt 0.737305 0.080566
vt 0.617676 0.080566
vt 0.617676 0.073242
vt 0.737305 0.073242
vt 0.556396 0.840088
vt 0.594238 0.802246
vt 0.594238 0.997559
vt 0.556396 0.959717
vt 0.556396 0.840088
vt 0.594238 0.997559
vt 0.556396 0.959717
vt 0.594238 0.997559
vt 0.398926 0.997559
vt 0.436768 0.959717
vt 0.556396 0.959717
vt 0.398926 0.997559
vt 0.436768 0.840088
vt 0.436768 0.959717
vt 0.398926 0.997559
vt 0.594238 0.802246
vt 0.556396 0.840088
vt 0.436768 0.840088
vt 0.398926 0.802246
vt 0.594238 0.802246
vt 0.436768 0.840088
vt 0.398926 0.997559
vt 0.398926 0.802246
vt 0.436768 0.840088
vt 0.79248 0.802246
vt 0.79248 0.997559
vt 0.754639 0.959717
vt 0.79248 0.802246
vt 0.754639 0.959717
vt 0.754639 0.840088
vt 0.597168 0.802246
vt 0.79248 0.802246
vt 0.754639 0.840088
vt 0.597168 0.802246
vt 0.754639 0.840088
vt 0.63501 0.840088
vt 0.597168 0.802246
vt 0.63501 0.840088
vt 0.63501 0.959717
vt 0.63501 0.959717
vt 0.754639 0.959717
vt 0.79248 0.997559
vt 0.63501 0.959717
vt 0.79248 0.997559
vt 0.597168 0.997559
vt 0.63501 0.959717
vt 0.597168 0.997559
vt 0.597168 0.802246
vn 0 0 1
vn 1 0 0
vn 0 0 -1
vn -1 0 0
vn 0 -1 0
vn 0 1 0
f 409/1165/131 410/1166/131 414/1167/131 413/1168/131
f 410/1169/132 411/1170/132 415/1171/132 414/1172/132
f 411/1173/133 412/1174/133 416/1175/133 415/1176/133
f 412/1177/134 409/1178/134 413/1179/134 416/1180/134
f 417/1181/131 418/1182/131 422/1183/131 421/1184/131
f 418/1185/134 419/1186/134 423/1187/134 422/1188/134
f 419/1189/133 420/1190/133 424/1191/133 423/1192/133
f 420/1193/132 417/1194/132 421/1195/132 424/1196/132
f 431/1197/135 426/1198/135 425/1199/135
f 432/1200/135 431/1201/135 425/1202/135
f 432/1203/135 425/1204/135 428/1205/135
f 429/1206/135 432/1207/135 428/1208/135
f 430/1209/135 429/1210/135 428/1211/135
f 426/1212/135 431/1213/135 430/1214/135
f 427/1215/135 426/1216/135 430/1217/135
f 428/1218/135 427/1219/135 430/1220/135
f 433/1221/136 434/1222/136 439/1223/136
f 433/1224/136 439/1225/136 440/1226/136
f 436/1227/136 433/1228/136 440/1229/136
f 436/1230/136 440/1231/136 437/1232/136
f 436/1233/136 437/1234/136 438/1235/136
f 438/1236/136 439/1237/136 434/1238/136
f 438/1239/136 434/1240/136 435/1241/136
f 438/1242/136 435/1243/136 436/1244/136
o deck_bottom__deck_bottom_lining
usemtl heat_resistant_fluid_tank
v 0.19375 0 0.80625
v 0.80625 0 0.80625
v 0.80625 0 0.19375
v 0.19375 0 0.19375
v 0.19375 0.0375 0.80625
v 0.80625 0.0375 0.80625
v 0.80625 0.0375 0.19375
v 0.19375 0.0375 0.19375
v 0.25 0 0.25
v 0.75 0 0.25
v 0.75 0 0.75
v 0.25 0 0.75
v 0.25 0.0375 0.25
v 0.75 0.0375 0.25
v 0.75 0.0375 0.75
v 0.25 0.0375 0.75
v 0.19375 0 0.80625
v 0.80625 0 0.80625
v 0.80625 0 0.19375
v 0.19375 0 0.19375
v 0.25 0 0.25
v 0.75 0 0.25
v 0.75 0 0.75
v 0.25 0 0.75
v 0.19375 0.0375 0.80625
v 0.80625 0.0375 0.80625
v 0.80625 0.0375 0.19375
v 0.19375 0.0375 0.19375
v 0.25 0.0375 0.25
v 0.75 0.0375 0.25
v 0.75 0.0375 0.75
v 0.25 0.0375 0.75
vt 0.740723 0.073242
vt 0.860352 0.073242
vt 0.860352 0.080566
vt 0.740723 0.080566
vt 0.983398 0.080566
vt 0.86377 0.080566
vt 0.86377 0.073242
vt 0.983398 0.073242
vt 0.002441 0.0625
vt 0.12207 0.0625
vt 0.12207 0.069824
vt 0.002441 0.069824
vt 0.125488 0.0625
vt 0.245117 0.0625
vt 0.245117 0.069824
vt 0.125488 0.069824
vt 0.650879 0.0625
vt 0.748535 0.0625
vt 0.748535 0.069824
vt 0.650879 0.069824
vt 0.751465 0.0625
vt 0.849121 0.0625
vt 0.849121 0.069824
vt 0.751465 0.069824
vt 0.852051 0.0625
vt 0.949707 0.0625
vt 0.949707 0.069824
vt 0.852051 0.069824
vt 0.100098 0.059082
vt 0.002441 0.059082
vt 0.002441 0.051758
vt 0.100098 0.051758
vt 0.724365 0.533447
vt 0.735352 0.522461
vt 0.735352 0.64209
vt 0.724365 0.631104
vt 0.724365 0.533447
vt 0.735352 0.64209
vt 0.724365 0.631104
vt 0.735352 0.64209
vt 0.615723 0.64209
vt 0.626709 0.631104
vt 0.724365 0.631104
vt 0.615723 0.64209
vt 0.626709 0.533447
vt 0.626709 0.631104
vt 0.615723 0.64209
vt 0.735352 0.522461
vt 0.724365 0.533447
vt 0.626709 0.533447
vt 0.615723 0.522461
vt 0.735352 0.522461
vt 0.626709 0.533447
vt 0.615723 0.64209
vt 0.615723 0.522461
vt 0.626709 0.533447
vt 0.858398 0.522461
vt 0.858398 0.64209
vt 0.847412 0.631104
vt 0.858398 0.522461
vt 0.847412 0.631104
vt 0.847412 0.533447
vt 0.73877 0.522461
vt 0.858398 0.522461
vt 0.847412 0.533447
vt 0.73877 0.522461
vt 0.847412 0.533447
vt 0.749756 0.533447
vt 0.73877 0.522461
vt 0.749756 0.533447
vt 0.749756 0.631104
vt 0.749756 0.631104
vt 0.847412 0.631104
vt 0.858398 0.64209
vt 0.749756 0.631104
vt 0.858398 0.64209
vt 0.73877 0.64209
vt 0.749756 0.631104
vt 0.73877 0.64209
vt 0.73877 0.522461
vn 0 0 1
vn 1 0 0
vn 0 0 -1
vn -1 0 0
vn 0 -1 0
vn 0 1 0
f 441/1245/137 442/1246/137 446/1247/137 445/1248/137
f 442/1249/138 443/1250/138 447/1251/138 446/1252/138
f 443/1253/139 444/1254/139 448/1255/139 447/1256/139
f 444/1257/140 441/1258/140 445/1259/140 448/1260/140
f 449/1261/137 450/1262/137 454/1263/137 453/1264/137
f 450/1265/140 451/1266/140 455/1267/140 454/1268/140
f 451/1269/139 452/1270/139 456/1271/139 455/1272/139
f 452/1273/138 449/1274/138 453/1275/138 456/1276/138
f 463/1277/141 458/1278/141 457/1279/141
f 464/1280/141 463/1281/141 457/1282/141
f 464/1283/141 457/1284/141 460/1285/141
f 461/1286/141 464/1287/141 460/1288/141
f 462/1289/141 461/1290/141 460/1291/141
f 458/1292/141 463/1293/141 462/1294/141
f 459/1295/141 458/1296/141 462/1297/141
f 460/1298/141 459/1299/141 462/1300/141
f 465/1301/142 466/1302/142 471/1303/142
f 465/1304/142 471/1305/142 472/1306/142
f 468/1307/142 465/1308/142 472/1309/142
f 468/1310/142 472/1311/142 469/1312/142
f 468/1313/142 469/1314/142 470/1315/142
f 470/1316/142 471/1317/142 466/1318/142
f 470/1319/142 466/1320/142 467/1321/142
f 470/1322/142 467/1323/142 468/1324/142
o deck_bottom__deck_bottom_throat
usemtl heat_resistant_fluid_tank
v 0.25 0.03625 0.75
v 0.75 0.03625 0.75
v 0.75 0.03625 0.25
v 0.25 0.03625 0.25
v 0.25 0.06875 0.75
v 0.75 0.06875 0.75
v 0.75 0.06875 0.25
v 0.25 0.06875 0.25
v 0.25 0.03625 0.75
v 0.75 0.03625 0.75
v 0.75 0.03625 0.25
v 0.25 0.03625 0.25
v 0.25 0.06875 0.75
v 0.75 0.06875 0.75
v 0.75 0.06875 0.25
v 0.25 0.06875 0.25
vt 0.684082 0.03125
vt 0.781738 0.03125
vt 0.781738 0.037598
vt 0.684082 0.037598
vt 0.882324 0.037598
vt 0.784668 0.037598
vt 0.784668 0.03125
vt 0.882324 0.03125
vt 0.885254 0.03125
vt 0.98291 0.03125
vt 0.98291 0.037598
vt 0.885254 0.037598
vt 0.002441 0.020508
vt 0.100098 0.020508
vt 0.100098 0.026855
vt 0.002441 0.026855
vt 0.200684 0.387207
vt 0.200684 0.484863
vt 0.103027 0.484863
vt 0.103027 0.484863
vt 0.103027 0.387207
vt 0.200684 0.387207
vt 0.203613 0.387207
vt 0.30127 0.387207
vt 0.30127 0.484863
vt 0.30127 0.484863
vt 0.203613 0.484863
vt 0.203613 0.387207
vn 0 0 1
vn 1 0 0
vn 0 0 -1
vn -1 0 0
vn 0 -1 0
vn 0 1 0
f 473/1325/143 474/1326/143 478/1327/143 477/1328/143
f 474/1329/144 475/1330/144 479/1331/144 478/1332/144
f 475/1333/145 476/1334/145 480/1335/145 479/1336/145
f 476/1337/146 473/1338/146 477/1339/146 480/1340/146
f 482/1341/147 481/1342/147 484/1343/147
f 484/1344/147 483/1345/147 482/1346/147
f 488/1347/148 485/1348/148 486/1349/148
f 486/1350/148 487/1351/148 488/1352/148
o deck_bottom__deck_bottom_studs
usemtl heat_resistant_fluid_tank
v 0.232108 -0.02 0.19625
v 0.209375 -0.02 0.183125
v 0.186642 -0.02 0.19625
v 0.186642 -0.02 0.2225
v 0.209375 -0.02 0.235625
v 0.232108 -0.02 0.2225
v 0.232108 0 0.19625
v 0.209375 0 0.183125
v 0.186642 0 0.19625
v 0.186642 0 0.2225
v 0.209375 0 0.235625
v 0.232108 0 0.2225
v 0.232108 -0.02 0.19625
v 0.209375 -0.02 0.183125
v 0.186642 -0.02 0.19625
v 0.186642 -0.02 0.2225
v 0.209375 -0.02 0.235625
v 0.232108 -0.02 0.2225
v 0.232108 0 0.19625
v 0.209375 0 0.183125
v 0.186642 0 0.19625
v 0.186642 0 0.2225
v 0.209375 0 0.235625
v 0.232108 0 0.2225
v 0.232108 -0.02 0.7775
v 0.209375 -0.02 0.764375
v 0.186642 -0.02 0.7775
v 0.186642 -0.02 0.80375
v 0.209375 -0.02 0.816875
v 0.232108 -0.02 0.80375
v 0.232108 0 0.7775
v 0.209375 0 0.764375
v 0.186642 0 0.7775
v 0.186642 0 0.80375
v 0.209375 0 0.816875
v 0.232108 0 0.80375
v 0.232108 -0.02 0.7775
v 0.209375 -0.02 0.764375
v 0.186642 -0.02 0.7775
v 0.186642 -0.02 0.80375
v 0.209375 -0.02 0.816875
v 0.232108 -0.02 0.80375
v 0.232108 0 0.7775
v 0.209375 0 0.764375
v 0.186642 0 0.7775
v 0.186642 0 0.80375
v 0.209375 0 0.816875
v 0.232108 0 0.80375
v 0.813358 -0.02 0.19625
v 0.790625 -0.02 0.183125
v 0.767892 -0.02 0.19625
v 0.767892 -0.02 0.2225
v 0.790625 -0.02 0.235625
v 0.813358 -0.02 0.2225
v 0.813358 0 0.19625
v 0.790625 0 0.183125
v 0.767892 0 0.19625
v 0.767892 0 0.2225
v 0.790625 0 0.235625
v 0.813358 0 0.2225
v 0.813358 -0.02 0.19625
v 0.790625 -0.02 0.183125
v 0.767892 -0.02 0.19625
v 0.767892 -0.02 0.2225
v 0.790625 -0.02 0.235625
v 0.813358 -0.02 0.2225
v 0.813358 0 0.19625
v 0.790625 0 0.183125
v 0.767892 0 0.19625
v 0.767892 0 0.2225
v 0.790625 0 0.235625
v 0.813358 0 0.2225
v 0.813358 -0.02 0.7775
v 0.790625 -0.02 0.764375
v 0.767892 -0.02 0.7775
v 0.767892 -0.02 0.80375
v 0.790625 -0.02 0.816875
v 0.813358 -0.02 0.80375
v 0.813358 0 0.7775
v 0.790625 0 0.764375
v 0.767892 0 0.7775
v 0.767892 0 0.80375
v 0.790625 0 0.816875
v 0.813358 0 0.80375
v 0.813358 -0.02 0.7775
v 0.790625 -0.02 0.764375
v 0.767892 -0.02 0.7775
v 0.767892 -0.02 0.80375
v 0.790625 -0.02 0.816875
v 0.813358 -0.02 0.80375
v 0.813358 0 0.7775
v 0.790625 0 0.764375
v 0.767892 0 0.7775
v 0.767892 0 0.80375
v 0.790625 0 0.816875
v 0.813358 0 0.80375
vt 0.248779 0.026855
vt 0.243652 0.026855
vt 0.243652 0.022949
vt 0.248779 0.022949
vt 0.419434 0.022949
vt 0.424561 0.022949
vt 0.424561 0.026855
vt 0.419434 0.026855
vt 0.252441 0.022949
vt 0.257568 0.022949
vt 0.257568 0.026855
vt 0.252441 0.026855
vt 0.489746 0.022949
vt 0.494873 0.022949
vt 0.494873 0.026855
vt 0.489746 0.026855
vt 0.266357 0.026855
vt 0.26123 0.026855
vt 0.26123 0.022949
vt 0.266357 0.022949
vt 0.275146 0.026855
vt 0.27002 0.026855
vt 0.27002 0.022949
vt 0.275146 0.022949
vt 0.098145 0.282181
vt 0.100708 0.277741
vt 0.105835 0.277741
vt 0.100708 0.286621
vt 0.098145 0.282181
vt 0.105835 0.277741
vt 0.105835 0.286621
vt 0.100708 0.286621
vt 0.105835 0.277741
vt 0.105835 0.277741
vt 0.108398 0.282181
vt 0.105835 0.286621
vt 0.119507 0.286621
vt 0.11438 0.286621
vt 0.111816 0.282181
vt 0.119507 0.286621
vt 0.111816 0.282181
vt 0.11438 0.277741
vt 0.119507 0.286621
vt 0.11438 0.277741
vt 0.119507 0.277741
vt 0.119507 0.277741
vt 0.12207 0.282181
vt 0.119507 0.286621
vt 0.283936 0.026855
vt 0.278809 0.026855
vt 0.278809 0.022949
vt 0.283936 0.022949
vt 0.498535 0.022949
vt 0.503662 0.022949
vt 0.503662 0.026855
vt 0.498535 0.026855
vt 0.287598 0.022949
vt 0.292725 0.022949
vt 0.292725 0.026855
vt 0.287598 0.026855
vt 0.428223 0.022949
vt 0.43335 0.022949
vt 0.43335 0.026855
vt 0.428223 0.026855
vt 0.301514 0.026855
vt 0.296387 0.026855
vt 0.296387 0.022949
vt 0.301514 0.022949
vt 0.310303 0.026855
vt 0.305176 0.026855
vt 0.305176 0.022949
vt 0.310303 0.022949
vt 0.125488 0.282181
vt 0.128052 0.277741
vt 0.133179 0.277741
vt 0.128052 0.286621
vt 0.125488 0.282181
vt 0.133179 0.277741
vt 0.133179 0.286621
vt 0.128052 0.286621
vt 0.133179 0.277741
vt 0.133179 0.277741
vt 0.135742 0.282181
vt 0.133179 0.286621
vt 0.146851 0.286621
vt 0.141724 0.286621
vt 0.13916 0.282181
vt 0.146851 0.286621
vt 0.13916 0.282181
vt 0.141724 0.277741
vt 0.146851 0.286621
vt 0.141724 0.277741
vt 0.146851 0.277741
vt 0.146851 0.277741
vt 0.149414 0.282181
vt 0.146851 0.286621
vt 0.442139 0.026855
vt 0.437012 0.026855
vt 0.437012 0.022949
vt 0.442139 0.022949
vt 0.313965 0.022949
vt 0.319092 0.022949
vt 0.319092 0.026855
vt 0.313965 0.026855
vt 0.322754 0.022949
vt 0.327881 0.022949
vt 0.327881 0.026855
vt 0.322754 0.026855
vt 0.331543 0.022949
vt 0.33667 0.022949
vt 0.33667 0.026855
vt 0.331543 0.026855
vt 0.512451 0.026855
vt 0.507324 0.026855
vt 0.507324 0.022949
vt 0.512451 0.022949
vt 0.345459 0.026855
vt 0.340332 0.026855
vt 0.340332 0.022949
vt 0.345459 0.022949
vt 0.152832 0.282181
vt 0.155396 0.277741
vt 0.160522 0.277741
vt 0.155396 0.286621
vt 0.152832 0.282181
vt 0.160522 0.277741
vt 0.160522 0.286621
vt 0.155396 0.286621
vt 0.160522 0.277741
vt 0.160522 0.277741
vt 0.163086 0.282181
vt 0.160522 0.286621
vt 0.174194 0.286621
vt 0.169067 0.286621
vt 0.166504 0.282181
vt 0.174194 0.286621
vt 0.166504 0.282181
vt 0.169067 0.277741
vt 0.174194 0.286621
vt 0.169067 0.277741
vt 0.174194 0.277741
vt 0.174194 0.277741
vt 0.176758 0.282181
vt 0.174194 0.286621
vt 0.52124 0.026855
vt 0.516113 0.026855
vt 0.516113 0.022949
vt 0.52124 0.022949
vt 0.349121 0.022949
vt 0.354248 0.022949
vt 0.354248 0.026855
vt 0.349121 0.026855
vt 0.35791 0.022949
vt 0.363037 0.022949
vt 0.363037 0.026855
vt 0.35791 0.026855
vt 0.366699 0.022949
vt 0.371826 0.022949
vt 0.371826 0.026855
vt 0.366699 0.026855
vt 0.450928 0.026855
vt 0.445801 0.026855
vt 0.445801 0.022949
vt 0.450928 0.022949
vt 0.380615 0.026855
vt 0.375488 0.026855
vt 0.375488 0.022949
vt 0.380615 0.022949
vt 0.180176 0.282181
vt 0.182739 0.277741
vt 0.187866 0.277741
vt 0.182739 0.286621
vt 0.180176 0.282181
vt 0.187866 0.277741
vt 0.187866 0.286621
vt 0.182739 0.286621
vt 0.187866 0.277741
vt 0.187866 0.277741
vt 0.19043 0.282181
vt 0.187866 0.286621
vt 0.201538 0.286621
vt 0.196411 0.286621
vt 0.193848 0.282181
vt 0.201538 0.286621
vt 0.193848 0.282181
vt 0.196411 0.277741
vt 0.201538 0.286621
vt 0.196411 0.277741
vt 0.201538 0.277741
vt 0.201538 0.277741
vt 0.204102 0.282181
vt 0.201538 0.286621
vn 0.5 0 -0.866025
vn -0.5 0 -0.866025
vn -1 0 0
vn -0.5 0 0.866025
vn 0.5 0 0.866025
vn 1 0 0
vn 0 -1 0
vn 0 1 0
f 489/1353/149 490/1354/149 496/1355/149 495/1356/149
f 490/1357/150 491/1358/150 497/1359/150 496/1360/150
f 491/1361/151 492/1362/151 498/1363/151 497/1364/151
f 492/1365/152 493/1366/152 499/1367/152 498/1368/152
f 493/1369/153 494/1370/153 500/1371/153 499/1372/153
f 494/1373/154 489/1374/154 495/1375/154 500/1376/154
f 502/1377/155 501/1378/155 506/1379/155
f 503/1380/155 502/1381/155 506/1382/155
f 504/1383/155 503/1384/155 506/1385/155
f 506/1386/155 505/1387/155 504/1388/155
f 512/1389/156 507/1390/156 508/1391/156
f 512/1392/156 508/1393/156 509/1394/156
f 512/1395/156 509/1396/156 510/1397/156
f 510/1398/156 511/1399/156 512/1400/156
f 513/1401/149 514/1402/149 520/1403/149 519/1404/149
f 514/1405/150 515/1406/150 521/1407/150 520/1408/150
f 515/1409/151 516/1410/151 522/1411/151 521/1412/151
f 516/1413/152 517/1414/152 523/1415/152 522/1416/152
f 517/1417/153 518/1418/153 524/1419/153 523/1420/153
f 518/1421/154 513/1422/154 519/1423/154 524/1424/154
f 526/1425/155 525/1426/155 530/1427/155
f 527/1428/155 526/1429/155 530/1430/155
f 528/1431/155 527/1432/155 530/1433/155
f 530/1434/155 529/1435/155 528/1436/155
f 536/1437/156 531/1438/156 532/1439/156
f 536/1440/156 532/1441/156 533/1442/156
f 536/1443/156 533/1444/156 534/1445/156
f 534/1446/156 535/1447/156 536/1448/156
f 537/1449/149 538/1450/149 544/1451/149 543/1452/149
f 538/1453/150 539/1454/150 545/1455/150 544/1456/150
f 539/1457/151 540/1458/151 546/1459/151 545/1460/151
f 540/1461/152 541/1462/152 547/1463/152 546/1464/152
f 541/1465/153 542/1466/153 548/1467/153 547/1468/153
f 542/1469/154 537/1470/154 543/1471/154 548/1472/154
f 550/1473/155 549/1474/155 554/1475/155
f 551/1476/155 550/1477/155 554/1478/155
f 552/1479/155 551/1480/155 554/1481/155
f 554/1482/155 553/1483/155 552/1484/155
f 560/1485/156 555/1486/156 556/1487/156
f 560/1488/156 556/1489/156 557/1490/156
f 560/1491/156 557/1492/156 558/1493/156
f 558/1494/156 559/1495/156 560/1496/156
f 561/1497/149 562/1498/149 568/1499/149 567/1500/149
f 562/1501/150 563/1502/150 569/1503/150 568/1504/150
f 563/1505/151 564/1506/151 570/1507/151 569/1508/151
f 564/1509/152 565/1510/152 571/1511/152 570/1512/152
f 565/1513/153 566/1514/153 572/1515/153 571/1516/153
f 566/1517/154 561/1518/154 567/1519/154 572/1520/154
f 574/1521/155 573/1522/155 578/1523/155
f 575/1524/155 574/1525/155 578/1526/155
f 576/1527/155 575/1528/155 578/1529/155
f 578/1530/155 577/1531/155 576/1532/155
f 584/1533/156 579/1534/156 580/1535/156
f 584/1536/156 580/1537/156 581/1538/156
f 584/1539/156 581/1540/156 582/1541/156
f 582/1542/156 583/1543/156 584/1544/156
