# AFL Heat-Resistant Fluid Tank post_sw, generated by tools/build-fluid-tank-v2.mjs
mtllib post_sw.mtl
o post_sw__post_sw
usemtl heat_resistant_fluid_tank
v 0.201264 0.0375 0.912649
v 0.186799 0.0375 0.947571
v 0.160071 0.0375 0.974299
v 0.125149 0.0375 0.988764
v 0.087351 0.0375 0.988764
v 0.052429 0.0375 0.974299
v 0.025701 0.0375 0.947571
v 0.011236 0.0375 0.912649
v 0.011236 0.0375 0.874851
v 0.025701 0.0375 0.839929
v 0.052429 0.0375 0.813201
v 0.087351 0.0375 0.798736
v 0.125149 0.0375 0.798736
v 0.160071 0.0375 0.813201
v 0.186799 0.0375 0.839929
v 0.201264 0.0375 0.874851
v 0.201264 0.9625 0.912649
v 0.186799 0.9625 0.947571
v 0.160071 0.9625 0.974299
v 0.125149 0.9625 0.988764
v 0.087351 0.9625 0.988764
v 0.052429 0.9625 0.974299
v 0.025701 0.9625 0.947571
v 0.011236 0.9625 0.912649
v 0.011236 0.9625 0.874851
v 0.025701 0.9625 0.839929
v 0.052429 0.9625 0.813201
v 0.087351 0.9625 0.798736
v 0.125149 0.9625 0.798736
v 0.160071 0.9625 0.813201
v 0.186799 0.9625 0.839929
v 0.201264 0.9625 0.874851
v 0.10625 0.0375 0.89375
v 0.10625 0.9625 0.89375
vt 0.183105 0.255801
vt 0.183105 0.263184
vt 0.002441 0.263184
vt 0.002441 0.255801
vt 0.366699 0.148379
vt 0.366699 0.155762
vt 0.186035 0.155762
vt 0.186035 0.148379
vt 0.366699 0.266543
vt 0.366699 0.273926
vt 0.186035 0.273926
vt 0.186035 0.266543
vt 0.550293 0.148379
vt 0.550293 0.155762
vt 0.369629 0.155762
vt 0.369629 0.148379
vt 0.553223 0.155762
vt 0.553223 0.148379
vt 0.733887 0.148379
vt 0.733887 0.155762
vt 0.186035 0.19873
vt 0.186035 0.191348
vt 0.366699 0.191348
vt 0.366699 0.19873
vt 0.369629 0.19873
vt 0.369629 0.191348
vt 0.550293 0.191348
vt 0.550293 0.19873
vt 0.186035 0.209473
vt 0.186035 0.20209
vt 0.366699 0.20209
vt 0.366699 0.209473
vt 0.369629 0.209473
vt 0.369629 0.20209
vt 0.550293 0.20209
vt 0.550293 0.209473
vt 0.002441 0.273926
vt 0.002441 0.266543
vt 0.183105 0.266543
vt 0.183105 0.273926
vt 0.736816 0.155762
vt 0.736816 0.148379
vt 0.91748 0.148379
vt 0.91748 0.155762
vt 0.733887 0.20209
vt 0.733887 0.209473
vt 0.553223 0.209473
vt 0.553223 0.20209
vt 0.183105 0.137637
vt 0.183105 0.14502
vt 0.002441 0.14502
vt 0.002441 0.137637
vt 0.366699 0.245059
vt 0.366699 0.252441
vt 0.186035 0.252441
vt 0.186035 0.245059
vt 0.733887 0.191348
vt 0.733887 0.19873
vt 0.553223 0.19873
vt 0.553223 0.191348
vt 0.91748 0.20209
vt 0.91748 0.209473
vt 0.736816 0.209473
vt 0.736816 0.20209
vt 0.814944 0.466306
vt 0.818635 0.447749
vt 0.825456 0.450574
vt 0.814944 0.466306
vt 0.825456 0.450574
vt 0.830676 0.455794
vt 0.814944 0.466306
vt 0.830676 0.455794
vt 0.833501 0.462615
vt 0.814944 0.466306
vt 0.833501 0.462615
vt 0.833501 0.469997
vt 0.814944 0.466306
vt 0.833501 0.469997
vt 0.830676 0.476818
vt 0.814944 0.466306
vt 0.830676 0.476818
vt 0.825456 0.482038
vt 0.814944 0.466306
vt 0.825456 0.482038
vt 0.818635 0.484863
vt 0.814944 0.466306
vt 0.818635 0.484863
vt 0.811253 0.484863
vt 0.814944 0.466306
vt 0.811253 0.484863
vt 0.804432 0.482038
vt 0.814944 0.466306
vt 0.804432 0.482038
vt 0.799212 0.476818
vt 0.814944 0.466306
vt 0.799212 0.476818
vt 0.796387 0.469997
vt 0.814944 0.466306
vt 0.796387 0.469997
vt 0.796387 0.462615
vt 0.814944 0.466306
vt 0.796387 0.462615
vt 0.799212 0.455794
vt 0.814944 0.466306
vt 0.799212 0.455794
vt 0.804432 0.450574
vt 0.814944 0.466306
vt 0.804432 0.450574
vt 0.811253 0.447749
vt 0.814944 0.466306
vt 0.811253 0.447749
vt 0.818635 0.447749
vt 0.866472 0.482038
vt 0.859651 0.484863
vt 0.85596 0.466306
vt 0.871692 0.476818
vt 0.866472 0.482038
vt 0.85596 0.466306
vt 0.874517 0.469997
vt 0.871692 0.476818
vt 0.85596 0.466306
vt 0.874517 0.462615
vt 0.874517 0.469997
vt 0.85596 0.466306
vt 0.871692 0.455794
vt 0.874517 0.462615
vt 0.85596 0.466306
vt 0.866472 0.450574
vt 0.871692 0.455794
vt 0.85596 0.466306
vt 0.859651 0.447749
vt 0.866472 0.450574
vt 0.85596 0.466306
vt 0.852268 0.447749
vt 0.859651 0.447749
vt 0.85596 0.466306
vt 0.845448 0.450574
vt 0.852268 0.447749
vt 0.85596 0.466306
vt 0.840228 0.455794
vt 0.845448 0.450574
vt 0.85596 0.466306
vt 0.837402 0.462615
vt 0.840228 0.455794
vt 0.85596 0.466306
vt 0.837402 0.469997
vt 0.837402 0.462615
vt 0.85596 0.466306
vt 0.840228 0.476818
vt 0.837402 0.469997
vt 0.85596 0.466306
vt 0.845448 0.482038
vt 0.840228 0.476818
vt 0.85596 0.466306
vt 0.852268 0.484863
vt 0.845448 0.482038
vt 0.85596 0.466306
vt 0.859651 0.484863
vt 0.852268 0.484863
vt 0.85596 0.466306
vn 0.980785 0 0.19509
vn 0.83147 0 0.55557
vn 0.55557 0 0.83147
vn 0.19509 0 0.980785
vn -0.19509 0 0.980785
vn -0.55557 0 0.83147
vn -0.83147 0 0.55557
vn -0.980785 0 0.19509
vn -0.980785 0 -0.19509
vn -0.83147 0 -0.55557
vn -0.55557 0 -0.83147
vn -0.19509 0 -0.980785
vn 0.19509 0 -0.980785
vn 0.55557 0 -0.83147
vn 0.83147 0 -0.55557
vn 0.980785 0 -0.19509
vn 0 -1 0
vn 0 1 0
f 17/1/1 18/2/2 2/3/2 1/4/1
f 18/5/2 19/6/3 3/7/3 2/8/2
f 19/9/3 20/10/4 4/11/4 3/12/3
f 20/13/4 21/14/5 5/15/5 4/16/4
f 21/17/5 22/18/6 6/19/6 5/20/5
f 22/21/6 23/22/7 7/23/7 6/24/6
f 23/25/7 24/26/8 8/27/8 7/28/7
f 24/29/8 25/30/9 9/31/9 8/32/8
f 25/33/9 26/34/10 10/35/10 9/36/9
f 26/37/10 27/38/11 11/39/11 10/40/10
f 27/41/11 28/42/12 12/43/12 11/44/11
f 28/45/12 29/46/13 13/47/13 12/48/12
f 29/49/13 30/50/14 14/51/14 13/52/13
f 30/53/14 31/54/15 15/55/15 14/56/14
f 31/57/15 32/58/16 16/59/16 15/60/15
f 32/61/16 17/62/1 1/63/1 16/64/16
f 33/65/17 1/66/17 2/67/17
f 33/68/17 2/69/17 3/70/17
f 33/71/17 3/72/17 4/73/17
f 33/74/17 4/75/17 5/76/17
f 33/77/17 5/78/17 6/79/17
f 33/80/17 6/81/17 7/82/17
f 33/83/17 7/84/17 8/85/17
f 33/86/17 8/87/17 9/88/17
f 33/89/17 9/90/17 10/91/17
f 33/92/17 10/93/17 11/94/17
f 33/95/17 11/96/17 12/97/17
f 33/98/17 12/99/17 13/100/17
f 33/101/17 13/102/17 14/103/17
f 33/104/17 14/105/17 15/106/17
f 33/107/17 15/108/17 16/109/17
f 33/110/17 16/111/17 1/112/17
f 18/113/18 17/114/18 34/115/18
f 19/116/18 18/117/18 34/118/18
f 20/119/18 19/120/18 34/121/18
f 21/122/18 20/123/18 34/124/18
f 22/125/18 21/126/18 34/127/18
f 23/128/18 22/129/18 34/130/18
f 24/131/18 23/132/18 34/133/18
f 25/134/18 24/135/18 34/136/18
f 26/137/18 25/138/18 34/139/18
f 27/140/18 26/141/18 34/142/18
f 28/143/18 27/144/18 34/145/18
f 29/146/18 28/147/18 34/148/18
f 30/149/18 29/150/18 34/151/18
f 31/152/18 30/153/18 34/154/18
f 32/155/18 31/156/18 34/157/18
f 17/158/18 32/159/18 34/160/18
