# AFL Heat-Resistant Fluid Tank post_ne_up, generated by tools/build-fluid-tank-v2.mjs
mtllib post_ne_up.mtl
o post_ne_up__post_ne_up
usemtl heat_resistant_fluid_tank
v 0.988764 0.9625 0.125149
v 0.974299 0.9625 0.160071
v 0.947571 0.9625 0.186799
v 0.912649 0.9625 0.201264
v 0.874851 0.9625 0.201264
v 0.839929 0.9625 0.186799
v 0.813201 0.9625 0.160071
v 0.798736 0.9625 0.125149
v 0.798736 0.9625 0.087351
v 0.813201 0.9625 0.052429
v 0.839929 0.9625 0.025701
v 0.874851 0.9625 0.011236
v 0.912649 0.9625 0.011236
v 0.947571 0.9625 0.025701
v 0.974299 0.9625 0.052429
v 0.988764 0.9625 0.087351
v 0.988764 1 0.125149
v 0.974299 1 0.160071
v 0.947571 1 0.186799
v 0.912649 1 0.201264
v 0.874851 1 0.201264
v 0.839929 1 0.186799
v 0.813201 1 0.160071
v 0.798736 1 0.125149
v 0.798736 1 0.087351
v 0.813201 1 0.052429
v 0.839929 1 0.025701
v 0.874851 1 0.011236
v 0.912649 1 0.011236
v 0.947571 1 0.025701
v 0.974299 1 0.052429
v 0.988764 1 0.087351
v 0.89375 1 0.10625
vt 0.884277 0.051758
vt 0.89166 0.051758
vt 0.89166 0.059082
vt 0.884277 0.059082
vt 0.689941 0.041016
vt 0.697324 0.041016
vt 0.697324 0.04834
vt 0.689941 0.04834
vt 0.700684 0.041016
vt 0.708066 0.041016
vt 0.708066 0.04834
vt 0.700684 0.04834
vt 0.718808 0.04834
vt 0.711426 0.04834
vt 0.711426 0.041016
vt 0.718808 0.041016
vt 0.729551 0.04834
vt 0.722168 0.04834
vt 0.722168 0.041016
vt 0.729551 0.041016
vt 0.203183 0.04834
vt 0.195801 0.04834
vt 0.195801 0.041016
vt 0.203183 0.041016
vt 0.740293 0.04834
vt 0.73291 0.04834
vt 0.73291 0.041016
vt 0.740293 0.041016
vt 0.213926 0.04834
vt 0.206543 0.04834
vt 0.206543 0.041016
vt 0.213926 0.041016
vt 0.117246 0.037598
vt 0.109863 0.037598
vt 0.109863 0.030273
vt 0.117246 0.030273
vt 0.902402 0.059082
vt 0.89502 0.059082
vt 0.89502 0.051758
vt 0.902402 0.051758
vt 0.751035 0.04834
vt 0.743652 0.04834
vt 0.743652 0.041016
vt 0.751035 0.041016
vt 0.224668 0.04834
vt 0.217285 0.04834
vt 0.217285 0.041016
vt 0.224668 0.041016
vt 0.088379 0.030273
vt 0.095761 0.030273
vt 0.095761 0.037598
vt 0.088379 0.037598
vt 0.905762 0.051758
vt 0.913144 0.051758
vt 0.913144 0.059082
vt 0.905762 0.059082
vt 0.754395 0.041016
vt 0.761777 0.041016
vt 0.761777 0.04834
vt 0.754395 0.04834
vt 0.228027 0.041016
vt 0.23541 0.041016
vt 0.23541 0.04834
vt 0.228027 0.04834
vt 0.4153 0.482038
vt 0.408479 0.484863
vt 0.404788 0.466306
vt 0.42052 0.476818
vt 0.4153 0.482038
vt 0.404788 0.466306
vt 0.423345 0.469997
vt 0.42052 0.476818
vt 0.404788 0.466306
vt 0.423345 0.462615
vt 0.423345 0.469997
vt 0.404788 0.466306
vt 0.42052 0.455794
vt 0.423345 0.462615
vt 0.404788 0.466306
vt 0.4153 0.450574
vt 0.42052 0.455794
vt 0.404788 0.466306
vt 0.408479 0.447749
vt 0.4153 0.450574
vt 0.404788 0.466306
vt 0.401097 0.447749
vt 0.408479 0.447749
vt 0.404788 0.466306
vt 0.394276 0.450574
vt 0.401097 0.447749
vt 0.404788 0.466306
vt 0.389056 0.455794
vt 0.394276 0.450574
vt 0.404788 0.466306
vt 0.38623 0.462615
vt 0.389056 0.455794
vt 0.404788 0.466306
vt 0.38623 0.469997
vt 0.38623 0.462615
vt 0.404788 0.466306
vt 0.389056 0.476818
vt 0.38623 0.469997
vt 0.404788 0.466306
vt 0.394276 0.482038
vt 0.389056 0.476818
vt 0.404788 0.466306
vt 0.401097 0.484863
vt 0.394276 0.482038
vt 0.404788 0.466306
vt 0.408479 0.484863
vt 0.401097 0.484863
vt 0.404788 0.466306
vn 0.980785 0 0.19509
vn 0.83147 0 0.55557
vn 0.55557 0 0.83147
vn 0.19509 0 0.980785
vn -0.19509 0 0.980785
vn -0.55557 0 0.83147
vn -0.83147 0 0.55557
vn -0.980785 0 0.19509
vn -0.980785 0 -0.19509
vn -0.83147 0 -0.55557
vn -0.55557 0 -0.83147
vn -0.19509 0 -0.980785
vn 0.19509 0 -0.980785
vn 0.55557 0 -0.83147
vn 0.83147 0 -0.55557
vn 0.980785 0 -0.19509
vn 0 1 0
f 17/1/1 18/2/2 2/3/2 1/4/1
f 18/5/2 19/6/3 3/7/3 2/8/2
f 19/9/3 20/10/4 4/11/4 3/12/3
f 20/13/4 21/14/5 5/15/5 4/16/4
f 21/17/5 22/18/6 6/19/6 5/20/5
f 22/21/6 23/22/7 7/23/7 6/24/6
f 23/25/7 24/26/8 8/27/8 7/28/7
f 24/29/8 25/30/9 9/31/9 8/32/8
f 25/33/9 26/34/10 10/35/10 9/36/9
f 26/37/10 27/38/11 11/39/11 10/40/10
f 27/41/11 28/42/12 12/43/12 11/44/11
f 28/45/12 29/46/13 13/47/13 12/48/12
f 29/49/13 30/50/14 14/51/14 13/52/13
f 30/53/14 31/54/15 15/55/15 14/56/14
f 31/57/15 32/58/16 16/59/16 15/60/15
f 32/61/16 17/62/1 1/63/1 16/64/16
f 18/65/17 17/66/17 33/67/17
f 19/68/17 18/69/17 33/70/17
f 20/71/17 19/72/17 33/73/17
f 21/74/17 20/75/17 33/76/17
f 22/77/17 21/78/17 33/79/17
f 23/80/17 22/81/17 33/82/17
f 24/83/17 23/84/17 33/85/17
f 25/86/17 24/87/17 33/88/17
f 26/89/17 25/90/17 33/91/17
f 27/92/17 26/93/17 33/94/17
f 28/95/17 27/96/17 33/97/17
f 29/98/17 28/99/17 33/100/17
f 30/101/17 29/102/17 33/103/17
f 31/104/17 30/105/17 33/106/17
f 32/107/17 31/108/17 33/109/17
f 17/110/17 32/111/17 33/112/17
