# AFL Heat-Resistant Fluid Tank post_sw_down, generated by tools/build-fluid-tank-v2.mjs
mtllib post_sw_down.mtl
o post_sw_down__post_sw_down
usemtl heat_resistant_fluid_tank
v 0.201264 0 0.912649
v 0.186799 0 0.947571
v 0.160071 0 0.974299
v 0.125149 0 0.988764
v 0.087351 0 0.988764
v 0.052429 0 0.974299
v 0.025701 0 0.947571
v 0.011236 0 0.912649
v 0.011236 0 0.874851
v 0.025701 0 0.839929
v 0.052429 0 0.813201
v 0.087351 0 0.798736
v 0.125149 0 0.798736
v 0.160071 0 0.813201
v 0.186799 0 0.839929
v 0.201264 0 0.874851
v 0.201264 0.0375 0.912649
v 0.186799 0.0375 0.947571
v 0.160071 0.0375 0.974299
v 0.125149 0.0375 0.988764
v 0.087351 0.0375 0.988764
v 0.052429 0.0375 0.974299
v 0.025701 0.0375 0.947571
v 0.011236 0.0375 0.912649
v 0.011236 0.0375 0.874851
v 0.025701 0.0375 0.839929
v 0.052429 0.0375 0.813201
v 0.087351 0.0375 0.798736
v 0.125149 0.0375 0.798736
v 0.160071 0.0375 0.813201
v 0.186799 0.0375 0.839929
v 0.201264 0.0375 0.874851
v 0.10625 0 0.89375
vt 0.131348 0.041016
vt 0.13873 0.041016
vt 0.13873 0.04834
vt 0.131348 0.04834
vt 0.260254 0.030273
vt 0.267636 0.030273
vt 0.267636 0.037598
vt 0.260254 0.037598
vt 0.561035 0.041016
vt 0.568418 0.041016
vt 0.568418 0.04834
vt 0.561035 0.04834
vt 0.063535 0.037598
vt 0.056152 0.037598
vt 0.056152 0.030273
vt 0.063535 0.030273
vt 0.67584 0.04834
vt 0.668457 0.04834
vt 0.668457 0.041016
vt 0.67584 0.041016
vt 0.149472 0.04834
vt 0.14209 0.04834
vt 0.14209 0.041016
vt 0.149472 0.041016
vt 0.686582 0.04834
vt 0.679199 0.04834
vt 0.679199 0.041016
vt 0.686582 0.041016
vt 0.57916 0.04834
vt 0.571777 0.04834
vt 0.571777 0.041016
vt 0.57916 0.041016
vt 0.074277 0.037598
vt 0.066895 0.037598
vt 0.066895 0.030273
vt 0.074277 0.030273
vt 0.160215 0.04834
vt 0.152832 0.04834
vt 0.152832 0.041016
vt 0.160215 0.041016
vt 0.278379 0.037598
vt 0.270996 0.037598
vt 0.270996 0.030273
vt 0.278379 0.030273
vt 0.589902 0.04834
vt 0.58252 0.04834
vt 0.58252 0.041016
vt 0.589902 0.041016
vt 0.077637 0.030273
vt 0.085019 0.030273
vt 0.085019 0.037598
vt 0.077637 0.037598
vt 0.163574 0.041016
vt 0.170957 0.041016
vt 0.170957 0.04834
vt 0.163574 0.04834
vt 0.228027 0.030273
vt 0.23541 0.030273
vt 0.23541 0.037598
vt 0.228027 0.037598
vt 0.593262 0.041016
vt 0.600644 0.041016
vt 0.600644 0.04834
vt 0.593262 0.04834
vt 0.937991 0.466306
vt 0.941682 0.447749
vt 0.948503 0.450574
vt 0.937991 0.466306
vt 0.948503 0.450574
vt 0.953723 0.455794
vt 0.937991 0.466306
vt 0.953723 0.455794
vt 0.956548 0.462615
vt 0.937991 0.466306
vt 0.956548 0.462615
vt 0.956548 0.469997
vt 0.937991 0.466306
vt 0.956548 0.469997
vt 0.953723 0.476818
vt 0.937991 0.466306
vt 0.953723 0.476818
vt 0.948503 0.482038
vt 0.937991 0.466306
vt 0.948503 0.482038
vt 0.941682 0.484863
vt 0.937991 0.466306
vt 0.941682 0.484863
vt 0.9343 0.484863
vt 0.937991 0.466306
vt 0.9343 0.484863
vt 0.927479 0.482038
vt 0.937991 0.466306
vt 0.927479 0.482038
vt 0.922259 0.476818
vt 0.937991 0.466306
vt 0.922259 0.476818
vt 0.919434 0.469997
vt 0.937991 0.466306
vt 0.919434 0.469997
vt 0.919434 0.462615
vt 0.937991 0.466306
vt 0.919434 0.462615
vt 0.922259 0.455794
vt 0.937991 0.466306
vt 0.922259 0.455794
vt 0.927479 0.450574
vt 0.937991 0.466306
vt 0.927479 0.450574
vt 0.9343 0.447749
vt 0.937991 0.466306
vt 0.9343 0.447749
vt 0.941682 0.447749
vn 0.980785 0 0.19509
vn 0.83147 0 0.55557
vn 0.55557 0 0.83147
vn 0.19509 0 0.980785
vn -0.19509 0 0.980785
vn -0.55557 0 0.83147
vn -0.83147 0 0.55557
vn -0.980785 0 0.19509
vn -0.980785 0 -0.19509
vn -0.83147 0 -0.55557
vn -0.55557 0 -0.83147
vn -0.19509 0 -0.980785
vn 0.19509 0 -0.980785
vn 0.55557 0 -0.83147
vn 0.83147 0 -0.55557
vn 0.980785 0 -0.19509
vn 0 -1 0
f 17/1/1 18/2/2 2/3/2 1/4/1
f 18/5/2 19/6/3 3/7/3 2/8/2
f 19/9/3 20/10/4 4/11/4 3/12/3
f 20/13/4 21/14/5 5/15/5 4/16/4
f 21/17/5 22/18/6 6/19/6 5/20/5
f 22/21/6 23/22/7 7/23/7 6/24/6
f 23/25/7 24/26/8 8/27/8 7/28/7
f 24/29/8 25/30/9 9/31/9 8/32/8
f 25/33/9 26/34/10 10/35/10 9/36/9
f 26/37/10 27/38/11 11/39/11 10/40/10
f 27/41/11 28/42/12 12/43/12 11/44/11
f 28/45/12 29/46/13 13/47/13 12/48/12
f 29/49/13 30/50/14 14/51/14 13/52/13
f 30/53/14 31/54/15 15/55/15 14/56/14
f 31/57/15 32/58/16 16/59/16 15/60/15
f 32/61/16 17/62/1 1/63/1 16/64/16
f 33/65/17 1/66/17 2/67/17
f 33/68/17 2/69/17 3/70/17
f 33/71/17 3/72/17 4/73/17
f 33/74/17 4/75/17 5/76/17
f 33/77/17 5/78/17 6/79/17
f 33/80/17 6/81/17 7/82/17
f 33/83/17 7/84/17 8/85/17
f 33/86/17 8/87/17 9/88/17
f 33/89/17 9/90/17 10/91/17
f 33/92/17 10/93/17 11/94/17
f 33/95/17 11/96/17 12/97/17
f 33/98/17 12/99/17 13/100/17
f 33/101/17 13/102/17 14/103/17
f 33/104/17 14/105/17 15/106/17
f 33/107/17 15/108/17 16/109/17
f 33/110/17 16/111/17 1/112/17
