# AFL Office Props V2 monitor (on desk), generated by tools/build-office-props-v2.mjs
mtllib modern_lcd_monitor_lowered.mtl
o monitor_bezel
usemtl monitor
v 0.995 0.621217 0.428125
v 0.993005 0.628662 0.428125
v 0.988037 0.63363 0.428125
v 0.980592 0.635625 0.428125
v 0.019408 0.635625 0.428125
v 0.011963 0.63363 0.428125
v 0.006995 0.628662 0.428125
v 0.005 0.621217 0.428125
v 0.005 0.053783 0.428125
v 0.006995 0.046338 0.428125
v 0.011963 0.04137 0.428125
v 0.019408 0.039375 0.428125
v 0.980592 0.039375 0.428125
v 0.988037 0.04137 0.428125
v 0.993005 0.046338 0.428125
v 0.995 0.053783 0.428125
v 1 0.621875 0.433125
v 0.997488 0.63125 0.433125
v 0.990625 0.638113 0.433125
v 0.98125 0.640625 0.433125
v 0.01875 0.640625 0.433125
v 0.009375 0.638113 0.433125
v 0.002512 0.63125 0.433125
v 0 0.621875 0.433125
v 0 0.053125 0.433125
v 0.002512 0.04375 0.433125
v 0.009375 0.036887 0.433125
v 0.01875 0.034375 0.433125
v 0.98125 0.034375 0.433125
v 0.990625 0.036887 0.433125
v 0.997488 0.04375 0.433125
v 1 0.053125 0.433125
v 1 0.621875 0.4575
v 0.997488 0.63125 0.4575
v 0.990625 0.638113 0.4575
v 0.98125 0.640625 0.4575
v 0.01875 0.640625 0.4575
v 0.009375 0.638113 0.4575
v 0.002512 0.63125 0.4575
v 0 0.621875 0.4575
v 0 0.053125 0.4575
v 0.002512 0.04375 0.4575
v 0.009375 0.036887 0.4575
v 0.01875 0.034375 0.4575
v 0.98125 0.034375 0.4575
v 0.990625 0.036887 0.4575
v 0.997488 0.04375 0.4575
v 1 0.053125 0.4575
v 0.995 0.621217 0.4625
v 0.993005 0.628662 0.4625
v 0.988037 0.63363 0.4625
v 0.980592 0.635625 0.4625
v 0.019408 0.635625 0.4625
v 0.011963 0.63363 0.4625
v 0.006995 0.628662 0.4625
v 0.005 0.621217 0.4625
v 0.005 0.053783 0.4625
v 0.006995 0.046338 0.4625
v 0.011963 0.04137 0.4625
v 0.019408 0.039375 0.4625
v 0.980592 0.039375 0.4625
v 0.988037 0.04137 0.4625
v 0.993005 0.046338 0.4625
v 0.995 0.053783 0.4625
v 0.995 0.621217 0.428125
v 0.993005 0.628662 0.428125
v 0.988037 0.63363 0.428125
v 0.980592 0.635625 0.428125
v 0.019408 0.635625 0.428125
v 0.011963 0.63363 0.428125
v 0.006995 0.628662 0.428125
v 0.005 0.621217 0.428125
v 0.005 0.053783 0.428125
v 0.006995 0.046338 0.428125
v 0.011963 0.04137 0.428125
v 0.019408 0.039375 0.428125
v 0.980592 0.039375 0.428125
v 0.988037 0.04137 0.428125
v 0.993005 0.046338 0.428125
v 0.995 0.053783 0.428125
v 0.995 0.621217 0.4625
v 0.993005 0.628662 0.4625
v 0.988037 0.63363 0.4625
v 0.980592 0.635625 0.4625
v 0.019408 0.635625 0.4625
v 0.011963 0.63363 0.4625
v 0.006995 0.628662 0.4625
v 0.005 0.621217 0.4625
v 0.005 0.053783 0.4625
v 0.006995 0.046338 0.4625
v 0.011963 0.04137 0.4625
v 0.019408 0.039375 0.4625
v 0.980592 0.039375 0.4625
v 0.988037 0.04137 0.4625
v 0.993005 0.046338 0.4625
v 0.995 0.053783 0.4625
vt 0.884308 0.193626
vt 0.887174 0.193358
vt 0.887917 0.195952
vt 0.884308 0.196289
vt 0.874526 0.035434
vt 0.877161 0.035434
vt 0.877663 0.038086
vt 0.874023 0.038086
vt 0.570079 0.30078
vt 0.572944 0.301048
vt 0.572944 0.303711
vt 0.569336 0.303374
vt 0.572944 0.301048
vt 0.930305 0.267638
vt 0.930794 0.270255
vt 0.572944 0.303711
vt 0.864505 0.035434
vt 0.867395 0.035434
vt 0.867897 0.038086
vt 0.864258 0.038086
vt 0.952651 0.035434
vt 0.955286 0.035434
vt 0.955788 0.038086
vt 0.952148 0.038086
vt 0.450938 0.193358
vt 0.453804 0.193626
vt 0.453804 0.196289
vt 0.450195 0.195952
vt 0.453804 0.193626
vt 0.664771 0.173902
vt 0.66526 0.17652
vt 0.453804 0.196289
vt 0.981692 0.035434
vt 0.984583 0.035434
vt 0.985085 0.038086
vt 0.981445 0.038086
vt 0.903823 0.035434
vt 0.906458 0.035434
vt 0.90696 0.038086
vt 0.90332 0.038086
vt 0.374766 0.236327
vt 0.377632 0.236595
vt 0.377632 0.239258
vt 0.374023 0.23892
vt 0.377632 0.236595
vt 0.734992 0.203185
vt 0.735482 0.205802
vt 0.377632 0.239258
vt 0.884036 0.035434
vt 0.886926 0.035434
vt 0.887429 0.038086
vt 0.883789 0.038086
vt 0.991713 0.035434
vt 0.994348 0.035434
vt 0.994851 0.038086
vt 0.991211 0.038086
vt 0.913588 0.035434
vt 0.916479 0.035434
vt 0.916726 0.038086
vt 0.913086 0.038086
vt 0.673341 0.173902
vt 0.884308 0.193626
vt 0.884308 0.196289
vt 0.672852 0.17652
vt 0.223633 0.038086
vt 0.223633 0.034446
vt 0.232773 0.034446
vt 0.232773 0.038086
vt 0.098633 0.038086
vt 0.098633 0.034446
vt 0.107773 0.034446
vt 0.107773 0.038086
vt 0.114258 0.038086
vt 0.114258 0.034446
vt 0.123398 0.034446
vt 0.123398 0.038086
vt 0.454102 0.103164
vt 0.815039 0.103164
vt 0.815039 0.112305
vt 0.454102 0.112305
vt 0.129883 0.038086
vt 0.129883 0.034446
vt 0.139023 0.034446
vt 0.139023 0.038086
vt 0.145508 0.038086
vt 0.145508 0.034446
vt 0.154648 0.034446
vt 0.154648 0.038086
vt 0.239258 0.038086
vt 0.239258 0.034446
vt 0.248398 0.034446
vt 0.248398 0.038086
vt 0.37207 0.087539
vt 0.585352 0.087539
vt 0.585352 0.09668
vt 0.37207 0.09668
vt 0.254883 0.038086
vt 0.254883 0.034446
vt 0.264023 0.034446
vt 0.264023 0.038086
vt 0.192383 0.038086
vt 0.192383 0.034446
vt 0.201523 0.034446
vt 0.201523 0.038086
vt 0.161133 0.038086
vt 0.161133 0.034446
vt 0.170273 0.034446
vt 0.170273 0.038086
vt 0.004883 0.087539
vt 0.36582 0.087539
vt 0.36582 0.09668
vt 0.004883 0.09668
vt 0.176758 0.038086
vt 0.176758 0.034446
vt 0.185898 0.034446
vt 0.185898 0.038086
vt 0.270508 0.038086
vt 0.270508 0.034446
vt 0.279648 0.034446
vt 0.279648 0.038086
vt 0.208008 0.038086
vt 0.208008 0.034446
vt 0.217148 0.034446
vt 0.217148 0.038086
vt 0.592773 0.087539
vt 0.806055 0.087539
vt 0.806055 0.09668
vt 0.592773 0.09668
vt 0.216339 0.173902
vt 0.219948 0.17424
vt 0.219205 0.176833
vt 0.216339 0.176565
vt 0.961914 0.035434
vt 0.965554 0.035434
vt 0.965051 0.038086
vt 0.962416 0.038086
vt 0.200195 0.267975
vt 0.203804 0.267638
vt 0.203804 0.270301
vt 0.200938 0.270569
vt 0.203804 0.267638
vt 0.561653 0.301094
vt 0.561164 0.303711
vt 0.203804 0.270301
vt 0.893555 0.035434
vt 0.897194 0.035434
vt 0.896692 0.038086
vt 0.893802 0.038086
vt 0.014648 0.023716
vt 0.018288 0.023716
vt 0.017786 0.026367
vt 0.015151 0.026367
vt 0.227539 0.17424
vt 0.231148 0.173902
vt 0.231148 0.176565
vt 0.228282 0.176833
vt 0.231148 0.173902
vt 0.442604 0.193672
vt 0.442115 0.196289
vt 0.231148 0.176565
vt 0.922852 0.035434
vt 0.926491 0.035434
vt 0.925989 0.038086
vt 0.923098 0.038086
vt 0.932617 0.035434
vt 0.936257 0.035434
vt 0.935754 0.038086
vt 0.93312 0.038086
vt 0.004883 0.203522
vt 0.008491 0.203185
vt 0.008491 0.205848
vt 0.005626 0.206116
vt 0.008491 0.203185
vt 0.366341 0.23664
vt 0.365851 0.239258
vt 0.008491 0.205848
vt 0.97168 0.035434
vt 0.975319 0.035434
vt 0.974817 0.038086
vt 0.971927 0.038086
vt 0.004883 0.023716
vt 0.008522 0.023716
vt 0.00802 0.026367
vt 0.005385 0.026367
vt 0.942383 0.035434
vt 0.946022 0.035434
vt 0.945776 0.038086
vt 0.942885 0.038086
vt 0.004883 0.193672
vt 0.216339 0.173902
vt 0.216339 0.176565
vt 0.005372 0.196289
vt 0.005631 0.992506
vt 0.004883 0.989714
vt 0.004883 0.776927
vt 0.007494 0.994369
vt 0.005631 0.992506
vt 0.004883 0.776927
vt 0.010286 0.995117
vt 0.007494 0.994369
vt 0.004883 0.776927
vt 0.37073 0.995117
vt 0.010286 0.995117
vt 0.004883 0.776927
vt 0.373522 0.994369
vt 0.37073 0.995117
vt 0.004883 0.776927
vt 0.375385 0.992506
vt 0.373522 0.994369
vt 0.004883 0.776927
vt 0.376133 0.989714
vt 0.375385 0.992506
vt 0.004883 0.776927
vt 0.376133 0.776927
vt 0.376133 0.989714
vt 0.004883 0.776927
vt 0.375385 0.774135
vt 0.376133 0.776927
vt 0.004883 0.776927
vt 0.373522 0.772272
vt 0.375385 0.774135
vt 0.004883 0.776927
vt 0.37073 0.771523
vt 0.373522 0.772272
vt 0.004883 0.776927
vt 0.010286 0.771523
vt 0.37073 0.771523
vt 0.004883 0.776927
vt 0.007494 0.772272
vt 0.010286 0.771523
vt 0.004883 0.776927
vt 0.004883 0.776927
vt 0.005631 0.774135
vt 0.007494 0.772272
vt 0.755039 0.776927
vt 0.755039 0.989714
vt 0.754291 0.992506
vt 0.755039 0.776927
vt 0.754291 0.992506
vt 0.752428 0.994369
vt 0.755039 0.776927
vt 0.752428 0.994369
vt 0.749636 0.995117
vt 0.755039 0.776927
vt 0.749636 0.995117
vt 0.389192 0.995117
vt 0.755039 0.776927
vt 0.389192 0.995117
vt 0.3864 0.994369
vt 0.755039 0.776927
vt 0.3864 0.994369
vt 0.384537 0.992506
vt 0.755039 0.776927
vt 0.384537 0.992506
vt 0.383789 0.989714
vt 0.755039 0.776927
vt 0.383789 0.989714
vt 0.383789 0.776927
vt 0.755039 0.776927
vt 0.383789 0.776927
vt 0.384537 0.774135
vt 0.755039 0.776927
vt 0.384537 0.774135
vt 0.3864 0.772272
vt 0.755039 0.776927
vt 0.3864 0.772272
vt 0.389192 0.771523
vt 0.755039 0.776927
vt 0.389192 0.771523
vt 0.749636 0.771523
vt 0.755039 0.776927
vt 0.749636 0.771523
vt 0.752428 0.772272
vt 0.752428 0.772272
vt 0.754291 0.774135
vt 0.755039 0.776927
vn 0.706922 0.002763 -0.707286
vn 0.603522 0.344153 -0.71925
vn 0.344153 0.603522 -0.71925
vn 0.001642 0.706998 -0.707214
vn -0.001642 0.706998 -0.707214
vn -0.344153 0.603522 -0.71925
vn -0.603522 0.344153 -0.71925
vn -0.706922 0.002763 -0.707286
vn -0.706922 -0.002763 -0.707286
vn -0.603522 -0.344153 -0.71925
vn -0.344153 -0.603522 -0.71925
vn -0.001642 -0.706998 -0.707214
vn 0.001642 -0.706998 -0.707214
vn 0.344153 -0.603522 -0.71925
vn 0.603522 -0.344153 -0.71925
vn 0.706922 -0.002763 -0.707286
vn 0.999991 0.004345 0
vn 0.866025 0.5 0
vn 0.5 0.866025 0
vn 0.002585 0.999997 0
vn -0.002585 0.999997 0
vn -0.5 0.866025 0
vn -0.866025 0.5 0
vn -0.999991 0.004345 0
vn -0.999991 -0.004345 0
vn -0.866025 -0.5 0
vn -0.5 -0.866025 0
vn -0.002585 -0.999997 0
vn 0.002585 -0.999997 0
vn 0.5 -0.866025 0
vn 0.866025 -0.5 0
vn 0.999991 -0.004345 0
vn 0.706922 0.002763 0.707286
vn 0.603522 0.344153 0.71925
vn 0.344153 0.603522 0.71925
vn 0.001642 0.706998 0.707214
vn -0.001642 0.706998 0.707214
vn -0.344153 0.603522 0.71925
vn -0.603522 0.344153 0.71925
vn -0.706922 0.002763 0.707286
vn -0.706922 -0.002763 0.707286
vn -0.603522 -0.344153 0.71925
vn -0.344153 -0.603522 0.71925
vn -0.001642 -0.706998 0.707214
vn 0.001642 -0.706998 0.707214
vn 0.344153 -0.603522 0.71925
vn 0.603522 -0.344153 0.71925
vn 0.706922 -0.002763 0.707286
vn 0 0 -1
vn 0 0 1
f 1/1/1 2/2/2 18/3/2 17/4/1
f 2/5/2 3/6/3 19/7/3 18/8/2
f 3/9/3 4/10/4 20/11/4 19/12/3
f 4/13/4 5/14/5 21/15/5 20/16/4
f 5/17/5 6/18/6 22/19/6 21/20/5
f 6/21/6 7/22/7 23/23/7 22/24/6
f 7/25/7 8/26/8 24/27/8 23/28/7
f 8/29/8 9/30/9 25/31/9 24/32/8
f 9/33/9 10/34/10 26/35/10 25/36/9
f 10/37/10 11/38/11 27/39/11 26/40/10
f 11/41/11 12/42/12 28/43/12 27/44/11
f 12/45/12 13/46/13 29/47/13 28/48/12
f 13/49/13 14/50/14 30/51/14 29/52/13
f 14/53/14 15/54/15 31/55/15 30/56/14
f 15/57/15 16/58/16 32/59/16 31/60/15
f 16/61/16 1/62/1 17/63/1 32/64/16
f 17/65/17 18/66/18 34/67/18 33/68/17
f 18/69/18 19/70/19 35/71/19 34/72/18
f 19/73/19 20/74/20 36/75/20 35/76/19
f 20/77/20 21/78/21 37/79/21 36/80/20
f 21/81/21 22/82/22 38/83/22 37/84/21
f 22/85/22 23/86/23 39/87/23 38/88/22
f 23/89/23 24/90/24 40/91/24 39/92/23
f 24/93/24 25/94/25 41/95/25 40/96/24
f 25/97/25 26/98/26 42/99/26 41/100/25
f 26/101/26 27/102/27 43/103/27 42/104/26
f 27/105/27 28/106/28 44/107/28 43/108/27
f 28/109/28 29/110/29 45/111/29 44/112/28
f 29/113/29 30/114/30 46/115/30 45/116/29
f 30/117/30 31/118/31 47/119/31 46/120/30
f 31/121/31 32/122/32 48/123/32 47/124/31
f 32/125/32 17/126/17 33/127/17 48/128/32
f 33/129/33 34/130/34 50/131/34 49/132/33
f 34/133/34 35/134/35 51/135/35 50/136/34
f 35/137/35 36/138/36 52/139/36 51/140/35
f 36/141/36 37/142/37 53/143/37 52/144/36
f 37/145/37 38/146/38 54/147/38 53/148/37
f 38/149/38 39/150/39 55/151/39 54/152/38
f 39/153/39 40/154/40 56/155/40 55/156/39
f 40/157/40 41/158/41 57/159/41 56/160/40
f 41/161/41 42/162/42 58/163/42 57/164/41
f 42/165/42 43/166/43 59/167/43 58/168/42
f 43/169/43 44/170/44 60/171/44 59/172/43
f 44/173/44 45/174/45 61/175/45 60/176/44
f 45/177/45 46/178/46 62/179/46 61/180/45
f 46/181/46 47/182/47 63/183/47 62/184/46
f 47/185/47 48/186/48 64/187/48 63/188/47
f 48/189/48 33/190/33 49/191/33 64/192/48
f 66/193/49 65/194/49 80/195/49
f 67/196/49 66/197/49 80/198/49
f 68/199/49 67/200/49 80/201/49
f 69/202/49 68/203/49 80/204/49
f 70/205/49 69/206/49 80/207/49
f 71/208/49 70/209/49 80/210/49
f 72/211/49 71/212/49 80/213/49
f 73/214/49 72/215/49 80/216/49
f 74/217/49 73/218/49 80/219/49
f 75/220/49 74/221/49 80/222/49
f 76/223/49 75/224/49 80/225/49
f 77/226/49 76/227/49 80/228/49
f 78/229/49 77/230/49 80/231/49
f 80/232/49 79/233/49 78/234/49
f 96/235/50 81/236/50 82/237/50
f 96/238/50 82/239/50 83/240/50
f 96/241/50 83/242/50 84/243/50
f 96/244/50 84/245/50 85/246/50
f 96/247/50 85/248/50 86/249/50
f 96/250/50 86/251/50 87/252/50
f 96/253/50 87/254/50 88/255/50
f 96/256/50 88/257/50 89/258/50
f 96/259/50 89/260/50 90/261/50
f 96/262/50 90/263/50 91/264/50
f 96/265/50 91/266/50 92/267/50
f 96/268/50 92/269/50 93/270/50
f 96/271/50 93/272/50 94/273/50
f 94/274/50 95/275/50 96/276/50
o monitor_screen
usemtl monitor
v 0.025 0.08125 0.425
v 0.975 0.08125 0.425
v 0.975 0.615625 0.425
v 0.025 0.615625 0.425
v 0.025 0.08125 0.428125
v 0.975 0.08125 0.428125
v 0.975 0.615625 0.428125
v 0.025 0.615625 0.428125
v 0.025 0.08125 0.425
v 0.975 0.08125 0.425
v 0.975 0.615625 0.425
v 0.025 0.615625 0.425
v 0.025 0.08125 0.428125
v 0.975 0.08125 0.428125
v 0.975 0.615625 0.428125
v 0.025 0.615625 0.428125
vt 0.024414 0.025195
vt 0.380664 0.025195
vt 0.380664 0.026367
vt 0.024414 0.026367
vt 0.750977 0.025195
vt 0.951367 0.025195
vt 0.951367 0.026367
vt 0.750977 0.026367
vt 0.387695 0.025195
vt 0.743945 0.025195
vt 0.743945 0.026367
vt 0.387695 0.026367
vt 0.004883 0.01543
vt 0.205273 0.01543
vt 0.205273 0.016602
vt 0.004883 0.016602
vt 0.004883 0.564258
vt 0.361133 0.564258
vt 0.361133 0.764648
vt 0.361133 0.764648
vt 0.004883 0.764648
vt 0.004883 0.564258
vt 0.368164 0.764648
vt 0.368164 0.564258
vt 0.724414 0.564258
vt 0.724414 0.564258
vt 0.724414 0.764648
vt 0.368164 0.764648
vn 0 -1 0
vn 1 0 0
vn 0 1 0
vn -1 0 0
vn 0 0 -1
vn 0 0 1
f 97/277/51 98/278/51 102/279/51 101/280/51
f 98/281/52 99/282/52 103/283/52 102/284/52
f 99/285/53 100/286/53 104/287/53 103/288/53
f 100/289/54 97/290/54 101/291/54 104/292/54
f 106/293/55 105/294/55 108/295/55
f 108/296/55 107/297/55 106/298/55
f 112/299/56 109/300/56 110/301/56
f 110/302/56 111/303/56 112/304/56
o monitor_rear_housing
usemtl monitor
v 0.9375 0.5 0.459375
v 0.931791 0.528701 0.459375
v 0.915533 0.553033 0.459375
v 0.891201 0.569291 0.459375
v 0.8625 0.575 0.459375
v 0.1375 0.575 0.459375
v 0.108799 0.569291 0.459375
v 0.084467 0.553033 0.459375
v 0.068209 0.528701 0.459375
v 0.0625 0.5 0.459375
v 0.0625 0.175 0.459375
v 0.068209 0.146299 0.459375
v 0.084467 0.121967 0.459375
v 0.108799 0.105709 0.459375
v 0.1375 0.1 0.459375
v 0.8625 0.1 0.459375
v 0.891201 0.105709 0.459375
v 0.915533 0.121967 0.459375
v 0.931791 0.146299 0.459375
v 0.9375 0.175 0.459375
v 0.9375 0.5 0.489375
v 0.931791 0.528701 0.489375
v 0.915533 0.553033 0.489375
v 0.891201 0.569291 0.489375
v 0.8625 0.575 0.489375
v 0.1375 0.575 0.489375
v 0.108799 0.569291 0.489375
v 0.084467 0.553033 0.489375
v 0.068209 0.528701 0.489375
v 0.0625 0.5 0.489375
v 0.0625 0.175 0.489375
v 0.068209 0.146299 0.489375
v 0.084467 0.121967 0.489375
v 0.108799 0.105709 0.489375
v 0.1375 0.1 0.489375
v 0.8625 0.1 0.489375
v 0.891201 0.105709 0.489375
v 0.915533 0.121967 0.489375
v 0.931791 0.146299 0.489375
v 0.9375 0.175 0.489375
v 0.93455 0.498525 0.504204
v 0.928954 0.526662 0.504204
v 0.913015 0.550515 0.504204
v 0.889162 0.566454 0.504204
v 0.861025 0.57205 0.504204
v 0.138975 0.57205 0.504204
v 0.110838 0.566454 0.504204
v 0.086985 0.550515 0.504204
v 0.071046 0.526662 0.504204
v 0.06545 0.498525 0.504204
v 0.06545 0.176475 0.504204
v 0.071046 0.148338 0.504204
v 0.086985 0.124485 0.504204
v 0.110838 0.108546 0.504204
v 0.138975 0.10295 0.504204
v 0.861025 0.10295 0.504204
v 0.889162 0.108546 0.504204
v 0.913015 0.124485 0.504204
v 0.928954 0.148338 0.504204
v 0.93455 0.176475 0.504204
v 0.92615 0.494325 0.516775
v 0.920873 0.520855 0.516775
v 0.905846 0.543346 0.516775
v 0.883355 0.558373 0.516775
v 0.856825 0.56365 0.516775
v 0.143175 0.56365 0.516775
v 0.116645 0.558373 0.516775
v 0.094154 0.543346 0.516775
v 0.079127 0.520855 0.516775
v 0.07385 0.494325 0.516775
v 0.07385 0.180675 0.516775
v 0.079127 0.154145 0.516775
v 0.094154 0.131654 0.516775
v 0.116645 0.116627 0.516775
v 0.143175 0.11135 0.516775
v 0.856825 0.11135 0.516775
v 0.883355 0.116627 0.516775
v 0.905846 0.131654 0.516775
v 0.920873 0.154145 0.516775
v 0.92615 0.180675 0.516775
v 0.913579 0.488039 0.525175
v 0.90878 0.512164 0.525175
v 0.895115 0.532615 0.525175
v 0.874664 0.54628 0.525175
v 0.850539 0.551079 0.525175
v 0.149461 0.551079 0.525175
v 0.125336 0.54628 0.525175
v 0.104885 0.532615 0.525175
v 0.09122 0.512164 0.525175
v 0.086421 0.488039 0.525175
v 0.086421 0.186961 0.525175
v 0.09122 0.162836 0.525175
v 0.104885 0.142385 0.525175
v 0.125336 0.12872 0.525175
v 0.149461 0.123921 0.525175
v 0.850539 0.123921 0.525175
v 0.874664 0.12872 0.525175
v 0.895115 0.142385 0.525175
v 0.90878 0.162836 0.525175
v 0.913579 0.186961 0.525175
v 0.89875 0.480625 0.528125
v 0.894516 0.501912 0.528125
v 0.882458 0.519958 0.528125
v 0.864412 0.532016 0.528125
v 0.843125 0.53625 0.528125
v 0.156875 0.53625 0.528125
v 0.135588 0.532016 0.528125
v 0.117542 0.519958 0.528125
v 0.105484 0.501912 0.528125
v 0.10125 0.480625 0.528125
v 0.10125 0.194375 0.528125
v 0.105484 0.173088 0.528125
v 0.117542 0.155042 0.528125
v 0.135588 0.142984 0.528125
v 0.156875 0.13875 0.528125
v 0.843125 0.13875 0.528125
v 0.864412 0.142984 0.528125
v 0.882458 0.155042 0.528125
v 0.894516 0.173088 0.528125
v 0.89875 0.194375 0.528125
v 0.5 0.3375 0.459375
v 0.5 0.3375 0.528125
vt 0.460156 0.119645
vt 0.471077 0.119755
vt 0.471077 0.130946
vt 0.460156 0.130836
vt 0.782227 0.137651
vt 0.782227 0.126677
vt 0.793401 0.126677
vt 0.793401 0.137651
vt 0.875977 0.137695
vt 0.875977 0.126721
vt 0.887151 0.126721
vt 0.887151 0.137695
vt 0.157227 0.147551
vt 0.168147 0.14744
vt 0.168147 0.158632
vt 0.157227 0.158742
vt 0.168147 0.14744
vt 0.438715 0.150162
vt 0.438715 0.161353
vt 0.168147 0.158632
vt 0.735352 0.137369
vt 0.735352 0.126395
vt 0.746539 0.126395
vt 0.746539 0.137369
vt 0.899414 0.137651
vt 0.899414 0.126677
vt 0.910589 0.126677
vt 0.910589 0.137651
vt 0.805664 0.137695
vt 0.805664 0.126721
vt 0.816839 0.126721
vt 0.816839 0.137695
vt 0.200195 0.119755
vt 0.211116 0.119645
vt 0.211116 0.130836
vt 0.200195 0.130946
vt 0.211116 0.119645
vt 0.332405 0.120866
vt 0.332405 0.132057
vt 0.211116 0.130836
vt 0.688477 0.137369
vt 0.688477 0.126395
vt 0.699664 0.126395
vt 0.699664 0.137369
vt 0.758789 0.137651
vt 0.758789 0.126677
vt 0.769964 0.126677
vt 0.769964 0.137651
vt 0.829102 0.137695
vt 0.829102 0.126721
vt 0.840276 0.126721
vt 0.840276 0.137695
vt 0.446289 0.147551
vt 0.45721 0.14744
vt 0.45721 0.158632
vt 0.446289 0.158742
vt 0.45721 0.14744
vt 0.727778 0.150162
vt 0.727778 0.161353
vt 0.45721 0.158632
vt 0.665039 0.137369
vt 0.665039 0.126395
vt 0.676226 0.126395
vt 0.676226 0.137369
vt 0.922852 0.137651
vt 0.922852 0.126677
vt 0.934026 0.126677
vt 0.934026 0.137651
vt 0.852539 0.137695
vt 0.852539 0.126721
vt 0.863714 0.126721
vt 0.863714 0.137695
vt 0.711914 0.137695
vt 0.711914 0.126721
vt 0.723101 0.126721
vt 0.723101 0.137695
vt 0.338867 0.120866
vt 0.460156 0.119645
vt 0.460156 0.130836
vt 0.338867 0.132057
vt 0.460156 0.130836
vt 0.471077 0.130946
vt 0.47042 0.136594
vt 0.459714 0.136486
vt 0.793401 0.137651
vt 0.793401 0.126677
vt 0.799076 0.126937
vt 0.799076 0.137695
vt 0.887151 0.137695
vt 0.887151 0.126721
vt 0.892826 0.126677
vt 0.892826 0.137435
vt 0.157227 0.158742
vt 0.168147 0.158632
vt 0.16859 0.164281
vt 0.157883 0.164389
vt 0.168147 0.158632
vt 0.438715 0.161353
vt 0.438057 0.166992
vt 0.16859 0.164281
vt 0.746539 0.137369
vt 0.746539 0.126395
vt 0.752194 0.126937
vt 0.752194 0.137695
vt 0.910589 0.137651
vt 0.910589 0.126677
vt 0.916264 0.126937
vt 0.916264 0.137695
vt 0.816839 0.137695
vt 0.816839 0.126721
vt 0.822514 0.126677
vt 0.822514 0.137435
vt 0.200195 0.130946
vt 0.211116 0.130836
vt 0.211558 0.136486
vt 0.200852 0.136594
vt 0.211116 0.130836
vt 0.332405 0.132057
vt 0.331747 0.137695
vt 0.211558 0.136486
vt 0.699664 0.137369
vt 0.699664 0.126395
vt 0.705319 0.126937
vt 0.705319 0.137695
vt 0.769964 0.137651
vt 0.769964 0.126677
vt 0.775639 0.126937
vt 0.775639 0.137695
vt 0.840276 0.137695
vt 0.840276 0.126721
vt 0.845951 0.126677
vt 0.845951 0.137435
vt 0.446289 0.158742
vt 0.45721 0.158632
vt 0.457652 0.164281
vt 0.446946 0.164389
vt 0.45721 0.158632
vt 0.727778 0.161353
vt 0.727119 0.166992
vt 0.457652 0.164281
vt 0.676226 0.137369
vt 0.676226 0.126395
vt 0.681882 0.126937
vt 0.681882 0.137695
vt 0.934026 0.137651
vt 0.934026 0.126677
vt 0.939701 0.126937
vt 0.939701 0.137695
vt 0.863714 0.137695
vt 0.863714 0.126721
vt 0.869389 0.126677
vt 0.869389 0.137435
vt 0.723101 0.137695
vt 0.723101 0.126721
vt 0.728757 0.126395
vt 0.728757 0.137153
vt 0.338867 0.132057
vt 0.460156 0.130836
vt 0.459714 0.136486
vt 0.339526 0.137695
vt 0.435031 0.058615
vt 0.445582 0.059832
vt 0.443405 0.06543
vt 0.433456 0.064282
vt 0.370244 0.045747
vt 0.381002 0.045747
vt 0.380261 0.051758
vt 0.370117 0.051758
vt 0.44043 0.045747
vt 0.451188 0.045747
vt 0.451315 0.051758
vt 0.441171 0.051758
vt 0.452148 0.059832
vt 0.4627 0.058615
vt 0.464275 0.064282
vt 0.454326 0.06543
vt 0.4627 0.058615
vt 0.733469 0.058615
vt 0.731894 0.064282
vt 0.464275 0.064282
vt 0.733469 0.058615
vt 0.74402 0.059832
vt 0.741842 0.06543
vt 0.731894 0.064282
vt 0.387823 0.045747
vt 0.398581 0.045747
vt 0.397839 0.051758
vt 0.387695 0.051758
vt 0.317383 0.045747
vt 0.328141 0.045747
vt 0.328268 0.051758
vt 0.318125 0.051758
vt 0.750977 0.059832
vt 0.761528 0.058615
vt 0.763103 0.064282
vt 0.753154 0.06543
vt 0.761528 0.058615
vt 0.882297 0.058615
vt 0.880722 0.064282
vt 0.763103 0.064282
vt 0.882297 0.058615
vt 0.892848 0.059832
vt 0.89067 0.06543
vt 0.880722 0.064282
vt 0.335088 0.045747
vt 0.345846 0.045747
vt 0.345104 0.051758
vt 0.334961 0.051758
vt 0.405273 0.045747
vt 0.416031 0.045747
vt 0.416159 0.051758
vt 0.406015 0.051758
vt 0.004883 0.059832
vt 0.015434 0.058615
vt 0.017009 0.064282
vt 0.007061 0.06543
vt 0.015434 0.058615
vt 0.286203 0.058615
vt 0.284628 0.064282
vt 0.017009 0.064282
vt 0.286203 0.058615
vt 0.296754 0.059832
vt 0.294577 0.06543
vt 0.284628 0.064282
vt 0.422979 0.045747
vt 0.433737 0.045747
vt 0.432995 0.051758
vt 0.422852 0.051758
vt 0.352539 0.045747
vt 0.363297 0.045747
vt 0.363424 0.051758
vt 0.353281 0.051758
vt 0.303711 0.059832
vt 0.314262 0.058615
vt 0.315837 0.064282
vt 0.305889 0.06543
vt 0.314262 0.058615
vt 0.435031 0.058615
vt 0.433456 0.064282
vt 0.315837 0.064282
vt 0.131007 0.145349
vt 0.141132 0.145876
vt 0.138517 0.151727
vt 0.12931 0.151248
vt 0.141132 0.145876
vt 0.150251 0.149697
vt 0.146809 0.155202
vt 0.138517 0.151727
vt 0.290039 0.312996
vt 0.2996 0.310089
vt 0.301644 0.316166
vt 0.292949 0.318809
vt 0.2996 0.310089
vt 0.30973 0.310543
vt 0.310855 0.316579
vt 0.301644 0.316166
vt 0.30973 0.310543
vt 0.569125 0.367029
vt 0.565681 0.37207
vt 0.310855 0.316579
vt 0.177168 0.074821
vt 0.18713 0.073169
vt 0.185817 0.079445
vt 0.176758 0.080947
vt 0.18713 0.073169
vt 0.197064 0.074939
vt 0.194851 0.081055
vt 0.185817 0.079445
vt 0.743164 0.211844
vt 0.752725 0.208937
vt 0.754769 0.215014
vt 0.746074 0.217657
vt 0.752725 0.208937
vt 0.762855 0.209391
vt 0.76398 0.215427
vt 0.754769 0.215014
vt 0.762855 0.209391
vt 0.87686 0.234217
vt 0.873415 0.239258
vt 0.76398 0.215427
vt 0.149824 0.074821
vt 0.159786 0.073169
vt 0.158473 0.079445
vt 0.149414 0.080947
vt 0.159786 0.073169
vt 0.169721 0.074939
vt 0.167507 0.081055
vt 0.158473 0.079445
vt 0.004883 0.312996
vt 0.014444 0.310089
vt 0.016487 0.316166
vt 0.007793 0.318809
vt 0.014444 0.310089
vt 0.024574 0.310543
vt 0.025699 0.316579
vt 0.016487 0.316166
vt 0.024574 0.310543
vt 0.283969 0.367029
vt 0.280525 0.37207
vt 0.025699 0.316579
vt 0.204511 0.074821
vt 0.214473 0.073169
vt 0.21316 0.079445
vt 0.204102 0.080947
vt 0.214473 0.073169
vt 0.224408 0.074939
vt 0.222194 0.081055
vt 0.21316 0.079445
vt 0.299805 0.045349
vt 0.309948 0.045349
vt 0.310139 0.051758
vt 0.300915 0.051758
vt 0.004883 0.161901
vt 0.014472 0.159055
vt 0.017446 0.164404
vt 0.008726 0.166992
vt 0.014472 0.159055
vt 0.131007 0.145349
vt 0.12931 0.151248
vt 0.017446 0.164404
vt 0.647217 0.533977
vt 0.645418 0.543024
vt 0.640053 0.539179
vt 0.64164 0.531197
vt 0.645418 0.543024
vt 0.640294 0.550693
vt 0.635532 0.545947
vt 0.640053 0.539179
vt 0.640294 0.550693
vt 0.632626 0.555818
vt 0.628765 0.550468
vt 0.635532 0.545947
vt 0.632626 0.555818
vt 0.62358 0.557617
vt 0.620783 0.552056
vt 0.628765 0.550468
vt 0.62358 0.557617
vt 0.360705 0.557617
vt 0.363469 0.552056
vt 0.620783 0.552056
vt 0.360705 0.557617
vt 0.35166 0.555818
vt 0.355487 0.550468
vt 0.363469 0.552056
vt 0.35166 0.555818
vt 0.343991 0.550693
vt 0.34872 0.545947
vt 0.355487 0.550468
vt 0.343991 0.550693
vt 0.338867 0.543024
vt 0.344199 0.539179
vt 0.34872 0.545947
vt 0.362443 0.079286
vt 0.353396 0.081055
vt 0.350616 0.075385
vt 0.358599 0.073824
vt 0.353396 0.081055
vt 0.240492 0.081055
vt 0.243272 0.075385
vt 0.350616 0.075385
vt 0.240492 0.081055
vt 0.231445 0.079286
vt 0.23529 0.073824
vt 0.243272 0.075385
vt 0.338867 0.412026
vt 0.343991 0.404357
vt 0.34872 0.409103
vt 0.344199 0.415871
vt 0.343991 0.404357
vt 0.35166 0.399232
vt 0.355487 0.404582
vt 0.34872 0.409103
vt 0.35166 0.399232
vt 0.360705 0.397433
vt 0.363469 0.402994
vt 0.355487 0.404582
vt 0.360705 0.397433
vt 0.62358 0.397433
vt 0.620783 0.402994
vt 0.363469 0.402994
vt 0.62358 0.397433
vt 0.632626 0.399232
vt 0.628765 0.404582
vt 0.620783 0.402994
vt 0.632626 0.399232
vt 0.640294 0.404357
vt 0.635532 0.409103
vt 0.628765 0.404582
vt 0.640294 0.404357
vt 0.645418 0.412026
vt 0.640053 0.415871
vt 0.635532 0.409103
vt 0.645418 0.412026
vt 0.647217 0.421073
vt 0.64164 0.423853
vt 0.640053 0.415871
vt 0.647217 0.421073
vt 0.647217 0.533977
vt 0.64164 0.531197
vt 0.64164 0.423853
vt 0.007024 0.540255
vt 0.004883 0.529492
vt 0.168945 0.468555
vt 0.01312 0.54938
vt 0.007024 0.540255
vt 0.168945 0.468555
vt 0.022245 0.555476
vt 0.01312 0.54938
vt 0.168945 0.468555
vt 0.033008 0.557617
vt 0.022245 0.555476
vt 0.168945 0.468555
vt 0.304883 0.557617
vt 0.033008 0.557617
vt 0.168945 0.468555
vt 0.315646 0.555476
vt 0.304883 0.557617
vt 0.168945 0.468555
vt 0.32477 0.54938
vt 0.315646 0.555476
vt 0.168945 0.468555
vt 0.330867 0.540255
vt 0.32477 0.54938
vt 0.168945 0.468555
vt 0.333008 0.529492
vt 0.330867 0.540255
vt 0.168945 0.468555
vt 0.333008 0.407617
vt 0.333008 0.529492
vt 0.168945 0.468555
vt 0.330867 0.396854
vt 0.333008 0.407617
vt 0.168945 0.468555
vt 0.32477 0.38773
vt 0.330867 0.396854
vt 0.168945 0.468555
vt 0.315646 0.381633
vt 0.32477 0.38773
vt 0.168945 0.468555
vt 0.304883 0.379492
vt 0.315646 0.381633
vt 0.168945 0.468555
vt 0.033008 0.379492
vt 0.304883 0.379492
vt 0.168945 0.468555
vt 0.022245 0.381633
vt 0.033008 0.379492
vt 0.168945 0.468555
vt 0.01312 0.38773
vt 0.022245 0.381633
vt 0.168945 0.468555
vt 0.007024 0.396854
vt 0.01312 0.38773
vt 0.168945 0.468555
vt 0.004883 0.407617
vt 0.007024 0.396854
vt 0.168945 0.468555
vt 0.004883 0.529492
vt 0.004883 0.407617
vt 0.168945 0.468555
vt 0.492126 0.477525
vt 0.64164 0.531197
vt 0.640053 0.539179
vt 0.492126 0.477525
vt 0.640053 0.539179
vt 0.635532 0.545947
vt 0.492126 0.477525
vt 0.635532 0.545947
vt 0.628765 0.550468
vt 0.492126 0.477525
vt 0.628765 0.550468
vt 0.620783 0.552056
vt 0.492126 0.477525
vt 0.620783 0.552056
vt 0.363469 0.552056
vt 0.492126 0.477525
vt 0.363469 0.552056
vt 0.355487 0.550468
vt 0.492126 0.477525
vt 0.355487 0.550468
vt 0.34872 0.545947
vt 0.492126 0.477525
vt 0.34872 0.545947
vt 0.344199 0.539179
vt 0.492126 0.477525
vt 0.344199 0.539179
vt 0.342612 0.531197
vt 0.492126 0.477525
vt 0.342612 0.531197
vt 0.342612 0.423853
vt 0.492126 0.477525
vt 0.342612 0.423853
vt 0.344199 0.415871
vt 0.492126 0.477525
vt 0.344199 0.415871
vt 0.34872 0.409103
vt 0.492126 0.477525
vt 0.34872 0.409103
vt 0.355487 0.404582
vt 0.492126 0.477525
vt 0.355487 0.404582
vt 0.363469 0.402994
vt 0.492126 0.477525
vt 0.363469 0.402994
vt 0.620783 0.402994
vt 0.492126 0.477525
vt 0.620783 0.402994
vt 0.628765 0.404582
vt 0.492126 0.477525
vt 0.628765 0.404582
vt 0.635532 0.409103
vt 0.492126 0.477525
vt 0.635532 0.409103
vt 0.640053 0.415871
vt 0.492126 0.477525
vt 0.640053 0.415871
vt 0.64164 0.423853
vt 0.492126 0.477525
vt 0.64164 0.423853
vt 0.64164 0.531197
vn 0.99987 0.016139 0
vn 0.92388 0.382683 0
vn 0.921266 0.381601 0.07517
vn 0.997693 0.016078 0.065953
vn 0.707107 0.707107 0
vn 0.704916 0.704916 0.078657
vn 0.382683 0.92388 0
vn 0.381601 0.921266 0.07517
vn 0.007574 0.999971 0
vn 0.007539 0.997805 0.065798
vn -0.007574 0.999971 0
vn -0.007539 0.997805 0.065798
vn -0.382683 0.92388 0
vn -0.381601 0.921266 0.07517
vn -0.707107 0.707107 0
vn -0.704916 0.704916 0.078657
vn -0.92388 0.382683 0
vn -0.921266 0.381601 0.07517
vn -0.99987 0.016139 0
vn -0.997693 0.016078 0.065953
vn -0.99987 -0.016139 0
vn -0.997693 -0.016078 0.065953
vn -0.92388 -0.382683 0
vn -0.921266 -0.381601 0.07517
vn -0.707107 -0.707107 0
vn -0.704916 -0.704916 0.078657
vn -0.382683 -0.92388 0
vn -0.381601 -0.921266 0.07517
vn -0.007574 -0.999971 0
vn -0.007539 -0.997805 0.065798
vn 0.007574 -0.999971 0
vn 0.007539 -0.997805 0.065798
vn 0.382683 -0.92388 0
vn 0.381601 -0.921266 0.07517
vn 0.707107 -0.707107 0
vn 0.704916 -0.704916 0.078657
vn 0.92388 -0.382683 0
vn 0.921266 -0.381601 0.07517
vn 0.99987 -0.016139 0
vn 0.997693 -0.016078 0.065953
vn 0.835334 0.346007 0.427196
vn 0.923452 0.014702 0.383433
vn 0.633836 0.633836 0.443287
vn 0.346007 0.835334 0.427196
vn 0.006851 0.923705 0.383043
vn -0.006851 0.923705 0.383043
vn -0.346007 0.835334 0.427196
vn -0.633836 0.633836 0.443287
vn -0.835334 0.346007 0.427196
vn -0.923452 0.014702 0.383433
vn -0.923452 -0.014702 0.383433
vn -0.835334 -0.346007 0.427196
vn -0.633836 -0.633836 0.443287
vn -0.346007 -0.835334 0.427196
vn -0.006851 -0.923705 0.383043
vn 0.006851 -0.923705 0.383043
vn 0.346007 -0.835334 0.427196
vn 0.633836 -0.633836 0.443287
vn 0.835334 -0.346007 0.427196
vn 0.923452 -0.014702 0.383433
vn 0.610471 0.252865 0.750589
vn 0.706946 0.010967 0.707183
vn 0.455148 0.455148 0.765298
vn 0.252865 0.610471 0.750589
vn 0.005041 0.707043 0.707152
vn -0.005041 0.707043 0.707152
vn -0.252865 0.610471 0.750589
vn -0.455148 0.455148 0.765298
vn -0.610471 0.252865 0.750589
vn -0.706946 0.010967 0.707183
vn -0.706946 -0.010967 0.707183
vn -0.610471 -0.252865 0.750589
vn -0.455148 -0.455148 0.765298
vn -0.252865 -0.610471 0.750589
vn -0.005041 -0.707043 0.707152
vn 0.005041 -0.707043 0.707152
vn 0.252865 -0.610471 0.750589
vn 0.455148 -0.455148 0.765298
vn 0.610471 -0.252865 0.750589
vn 0.706946 -0.010967 0.707183
vn 0.320776 0.13287 0.937789
vn 0.38489 0.005745 0.922945
vn 0.235807 0.235807 0.942757
vn 0.13287 0.320776 0.937789
vn 0.002582 0.383677 0.923464
vn -0.002582 0.383677 0.923464
vn -0.13287 0.320776 0.937789
vn -0.235807 0.235807 0.942757
vn -0.320776 0.13287 0.937789
vn -0.38489 0.005745 0.922945
vn -0.38489 -0.005745 0.922945
vn -0.320776 -0.13287 0.937789
vn -0.235807 -0.235807 0.942757
vn -0.13287 -0.320776 0.937789
vn -0.002582 -0.383677 0.923464
vn 0.002582 -0.383677 0.923464
vn 0.13287 -0.320776 0.937789
vn 0.235807 -0.235807 0.942757
vn 0.320776 -0.13287 0.937789
vn 0.38489 -0.005745 0.922945
vn 0.012531 0.005191 0.999908
vn 0.014065 0.000201 0.999901
vn 0.010166 0.010166 0.999897
vn 0.00677 0.016344 0.999844
vn 0.000163 0.025857 0.999666
vn -0.000163 0.025857 0.999666
vn -0.00677 0.016344 0.999844
vn -0.010166 0.010166 0.999897
vn -0.012531 0.005191 0.999908
vn -0.014065 0.000201 0.999901
vn -0.014065 -0.000201 0.999901
vn -0.012531 -0.005191 0.999908
vn -0.010166 -0.010166 0.999897
vn -0.00677 -0.016344 0.999844
vn -0.000163 -0.025857 0.999666
vn 0.000163 -0.025857 0.999666
vn 0.00677 -0.016344 0.999844
vn 0.010166 -0.010166 0.999897
vn 0.012531 -0.005191 0.999908
vn 0.014065 -0.000201 0.999901
vn 0 0 -1
vn 0 0 1
f 113/305/57 114/306/58 134/307/59 133/308/60
f 114/309/58 115/310/61 135/311/62 134/312/59
f 115/313/61 116/314/63 136/315/64 135/316/62
f 116/317/63 117/318/65 137/319/66 136/320/64
f 117/321/65 118/322/67 138/323/68 137/324/66
f 118/325/67 119/326/69 139/327/70 138/328/68
f 119/329/69 120/330/71 140/331/72 139/332/70
f 120/333/71 121/334/73 141/335/74 140/336/72
f 121/337/73 122/338/75 142/339/76 141/340/74
f 122/341/75 123/342/77 143/343/78 142/344/76
f 123/345/77 124/346/79 144/347/80 143/348/78
f 124/349/79 125/350/81 145/351/82 144/352/80
f 125/353/81 126/354/83 146/355/84 145/356/82
f 126/357/83 127/358/85 147/359/86 146/360/84
f 127/361/85 128/362/87 148/363/88 147/364/86
f 128/365/87 129/366/89 149/367/90 148/368/88
f 129/369/89 130/370/91 150/371/92 149/372/90
f 130/373/91 131/374/93 151/375/94 150/376/92
f 131/377/93 132/378/95 152/379/96 151/380/94
f 132/381/95 113/382/57 133/383/60 152/384/96
f 133/385/60 134/386/59 154/387/97 153/388/98
f 134/389/59 135/390/62 155/391/99 154/392/97
f 135/393/62 136/394/64 156/395/100 155/396/99
f 136/397/64 137/398/66 157/399/101 156/400/100
f 137/401/66 138/402/68 158/403/102 157/404/101
f 138/405/68 139/406/70 159/407/103 158/408/102
f 139/409/70 140/410/72 160/411/104 159/412/103
f 140/413/72 141/414/74 161/415/105 160/416/104
f 141/417/74 142/418/76 162/419/106 161/420/105
f 142/421/76 143/422/78 163/423/107 162/424/106
f 143/425/78 144/426/80 164/427/108 163/428/107
f 144/429/80 145/430/82 165/431/109 164/432/108
f 145/433/82 146/434/84 166/435/110 165/436/109
f 146/437/84 147/438/86 167/439/111 166/440/110
f 147/441/86 148/442/88 168/443/112 167/444/111
f 148/445/88 149/446/90 169/447/113 168/448/112
f 149/449/90 150/450/92 170/451/114 169/452/113
f 150/453/92 151/454/94 171/455/115 170/456/114
f 151/457/94 152/458/96 172/459/116 171/460/115
f 152/461/96 133/462/60 153/463/98 172/464/116
f 153/465/98 154/466/97 174/467/117 173/468/118
f 154/469/97 155/470/99 175/471/119 174/472/117
f 155/473/99 156/474/100 176/475/120 175/476/119
f 156/477/100 157/478/101 177/479/121 176/480/120
f 157/481/101 158/482/102 178/483/122 177/484/121
f 158/485/102 159/486/103 179/487/123 178/488/122
f 159/489/103 160/490/104 180/491/124 179/492/123
f 160/493/104 161/494/105 181/495/125 180/496/124
f 161/497/105 162/498/106 182/499/126 181/500/125
f 162/501/106 163/502/107 183/503/127 182/504/126
f 163/505/107 164/506/108 184/507/128 183/508/127
f 164/509/108 165/510/109 185/511/129 184/512/128
f 165/513/109 166/514/110 186/515/130 185/516/129
f 166/517/110 167/518/111 187/519/131 186/520/130
f 167/521/111 168/522/112 188/523/132 187/524/131
f 168/525/112 169/526/113 189/527/133 188/528/132
f 169/529/113 170/530/114 190/531/134 189/532/133
f 170/533/114 171/534/115 191/535/135 190/536/134
f 171/537/115 172/538/116 192/539/136 191/540/135
f 172/541/116 153/542/98 173/543/118 192/544/136
f 173/545/118 174/546/117 194/547/137 193/548/138
f 174/549/117 175/550/119 195/551/139 194/552/137
f 175/553/119 176/554/120 196/555/140 195/556/139
f 176/557/120 177/558/121 197/559/141 196/560/140
f 177/561/121 178/562/122 198/563/142 197/564/141
f 178/565/122 179/566/123 199/567/143 198/568/142
f 179/569/123 180/570/124 200/571/144 199/572/143
f 180/573/124 181/574/125 201/575/145 200/576/144
f 181/577/125 182/578/126 202/579/146 201/580/145
f 182/581/126 183/582/127 203/583/147 202/584/146
f 183/585/127 184/586/128 204/587/148 203/588/147
f 184/589/128 185/590/129 205/591/149 204/592/148
f 185/593/129 186/594/130 206/595/150 205/596/149
f 186/597/130 187/598/131 207/599/151 206/600/150
f 187/601/131 188/602/132 208/603/152 207/604/151
f 188/605/132 189/606/133 209/607/153 208/608/152
f 189/609/133 190/610/134 210/611/154 209/612/153
f 190/613/134 191/614/135 211/615/155 210/616/154
f 191/617/135 192/618/136 212/619/156 211/620/155
f 192/621/136 173/622/118 193/623/138 212/624/156
f 193/625/138 194/626/137 214/627/157 213/628/158
f 194/629/137 195/630/139 215/631/159 214/632/157
f 195/633/139 196/634/140 216/635/160 215/636/159
f 196/637/140 197/638/141 217/639/161 216/640/160
f 197/641/141 198/642/142 218/643/162 217/644/161
f 198/645/142 199/646/143 219/647/163 218/648/162
f 199/649/143 200/650/144 220/651/164 219/652/163
f 200/653/144 201/654/145 221/655/165 220/656/164
f 201/657/145 202/658/146 222/659/166 221/660/165
f 202/661/146 203/662/147 223/663/167 222/664/166
f 203/665/147 204/666/148 224/667/168 223/668/167
f 204/669/148 205/670/149 225/671/169 224/672/168
f 205/673/149 206/674/150 226/675/170 225/676/169
f 206/677/150 207/678/151 227/679/171 226/680/170
f 207/681/151 208/682/152 228/683/172 227/684/171
f 208/685/152 209/686/153 229/687/173 228/688/172
f 209/689/153 210/690/154 230/691/174 229/692/173
f 210/693/154 211/694/155 231/695/175 230/696/174
f 211/697/155 212/698/156 232/699/176 231/700/175
f 212/701/156 193/702/138 213/703/158 232/704/176
f 114/705/177 113/706/177 233/707/177
f 115/708/177 114/709/177 233/710/177
f 116/711/177 115/712/177 233/713/177
f 117/714/177 116/715/177 233/716/177
f 118/717/177 117/718/177 233/719/177
f 119/720/177 118/721/177 233/722/177
f 120/723/177 119/724/177 233/725/177
f 121/726/177 120/727/177 233/728/177
f 122/729/177 121/730/177 233/731/177
f 123/732/177 122/733/177 233/734/177
f 124/735/177 123/736/177 233/737/177
f 125/738/177 124/739/177 233/740/177
f 126/741/177 125/742/177 233/743/177
f 127/744/177 126/745/177 233/746/177
f 128/747/177 127/748/177 233/749/177
f 129/750/177 128/751/177 233/752/177
f 130/753/177 129/754/177 233/755/177
f 131/756/177 130/757/177 233/758/177
f 132/759/177 131/760/177 233/761/177
f 113/762/177 132/763/177 233/764/177
f 234/765/178 213/766/158 214/767/157
f 234/768/178 214/769/157 215/770/159
f 234/771/178 215/772/159 216/773/160
f 234/774/178 216/775/160 217/776/161
f 234/777/178 217/778/161 218/779/162
f 234/780/178 218/781/162 219/782/163
f 234/783/178 219/784/163 220/785/164
f 234/786/178 220/787/164 221/788/165
f 234/789/178 221/790/165 222/791/166
f 234/792/178 222/793/166 223/794/167
f 234/795/178 223/796/167 224/797/168
f 234/798/178 224/799/168 225/800/169
f 234/801/178 225/802/169 226/803/170
f 234/804/178 226/805/170 227/806/171
f 234/807/178 227/808/171 228/809/172
f 234/810/178 228/811/172 229/812/173
f 234/813/178 229/814/173 230/815/174
f 234/816/178 230/817/174 231/818/175
f 234/819/178 231/820/175 232/821/176
f 234/822/178 232/823/176 213/824/158
o monitor_hinge
usemtl monitor
v 0.41875 0.2625 0.525
v 0.58125 0.2625 0.525
v 0.58125 0.425 0.525
v 0.41875 0.425 0.525
v 0.4125 0.25625 0.53125
v 0.5875 0.25625 0.53125
v 0.5875 0.43125 0.53125
v 0.4125 0.43125 0.53125
v 0.4125 0.25625 0.553125
v 0.5875 0.25625 0.553125
v 0.5875 0.43125 0.553125
v 0.4125 0.43125 0.553125
v 0.41875 0.2625 0.559375
v 0.58125 0.2625 0.559375
v 0.58125 0.425 0.559375
v 0.41875 0.425 0.559375
v 0.41875 0.2625 0.525
v 0.58125 0.2625 0.525
v 0.58125 0.425 0.525
v 0.41875 0.425 0.525
v 0.41875 0.2625 0.559375
v 0.58125 0.2625 0.559375
v 0.58125 0.425 0.559375
v 0.41875 0.425 0.559375
vt 0.577539 0.034771
vt 0.638477 0.034771
vt 0.64082 0.038086
vt 0.575195 0.038086
vt 0.433008 0.034771
vt 0.493945 0.034771
vt 0.496289 0.038086
vt 0.430664 0.038086
vt 0.649805 0.034771
vt 0.710742 0.034771
vt 0.713086 0.038086
vt 0.647461 0.038086
vt 0.505273 0.034771
vt 0.566211 0.034771
vt 0.568555 0.038086
vt 0.50293 0.038086
vt 0.004883 0.072852
vt 0.070508 0.072852
vt 0.070508 0.081055
vt 0.004883 0.081055
vt 0.844727 0.088477
vt 0.910352 0.088477
vt 0.910352 0.09668
vt 0.844727 0.09668
vt 0.077148 0.072852
vt 0.142773 0.072852
vt 0.142773 0.081055
vt 0.077148 0.081055
vt 0.916992 0.088477
vt 0.982617 0.088477
vt 0.982617 0.09668
vt 0.916992 0.09668
vt 0.719727 0.034771
vt 0.785352 0.034771
vt 0.783008 0.038086
vt 0.72207 0.038086
vt 0.286133 0.034771
vt 0.351758 0.034771
vt 0.349414 0.038086
vt 0.288477 0.038086
vt 0.791992 0.034771
vt 0.857617 0.034771
vt 0.855273 0.038086
vt 0.794336 0.038086
vt 0.358398 0.034771
vt 0.424023 0.034771
vt 0.42168 0.038086
vt 0.360742 0.038086
vt 0.575195 0.37207
vt 0.575195 0.311133
vt 0.636133 0.311133
vt 0.636133 0.311133
vt 0.636133 0.37207
vt 0.575195 0.37207
vt 0.704492 0.37207
vt 0.643555 0.37207
vt 0.643555 0.311133
vt 0.643555 0.311133
vt 0.704492 0.311133
vt 0.704492 0.37207
vn 0 -0.707107 -0.707107
vn 0.707107 0 -0.707107
vn 0 0.707107 -0.707107
vn -0.707107 0 -0.707107
vn 0 -1 0
vn 1 0 0
vn 0 1 0
vn -1 0 0
vn 0 -0.707107 0.707107
vn 0.707107 0 0.707107
vn 0 0.707107 0.707107
vn -0.707107 0 0.707107
vn 0 0 -1
vn 0 0 1
f 235/825/179 236/826/179 240/827/179 239/828/179
f 236/829/180 237/830/180 241/831/180 240/832/180
f 237/833/181 238/834/181 242/835/181 241/836/181
f 238/837/182 235/838/182 239/839/182 242/840/182
f 239/841/183 240/842/183 244/843/183 243/844/183
f 240/845/184 241/846/184 245/847/184 244/848/184
f 241/849/185 242/850/185 246/851/185 245/852/185
f 242/853/186 239/854/186 243/855/186 246/856/186
f 243/857/187 244/858/187 248/859/187 247/860/187
f 244/861/188 245/862/188 249/863/188 248/864/188
f 245/865/189 246/866/189 250/867/189 249/868/189
f 246/869/190 243/870/190 247/871/190 250/872/190
f 252/873/191 251/874/191 254/875/191
f 254/876/191 253/877/191 252/878/191
f 258/879/192 255/880/192 256/881/192
f 256/882/192 257/883/192 258/884/192
o monitor_neck
usemtl monitor
v 0.434375 -0.125 0.565625
v 0.434375 -0.125 0.590625
v 0.565625 -0.125 0.590625
v 0.565625 -0.125 0.565625
v 0.421875 -0.1125 0.553125
v 0.421875 -0.1125 0.603125
v 0.578125 -0.1125 0.603125
v 0.578125 -0.1125 0.553125
v 0.421875 0.3875 0.553125
v 0.421875 0.3875 0.603125
v 0.578125 0.3875 0.603125
v 0.578125 0.3875 0.553125
v 0.434375 0.4 0.565625
v 0.434375 0.4 0.590625
v 0.565625 0.4 0.590625
v 0.565625 0.4 0.565625
v 0.434375 -0.125 0.565625
v 0.434375 -0.125 0.590625
v 0.565625 -0.125 0.590625
v 0.565625 -0.125 0.565625
v 0.434375 0.4 0.565625
v 0.434375 0.4 0.590625
v 0.565625 0.4 0.590625
v 0.565625 0.4 0.565625
vt 0.20293 0.045129
vt 0.212305 0.045129
vt 0.216992 0.051758
vt 0.198242 0.051758
vt 0.138477 0.045129
vt 0.187695 0.045129
vt 0.192383 0.051758
vt 0.133789 0.051758
vt 0.237695 0.051758
vt 0.22832 0.051758
vt 0.223633 0.045129
vt 0.242383 0.045129
vt 0.123242 0.051758
vt 0.074023 0.051758
vt 0.069336 0.045129
vt 0.12793 0.045129
vt 0.922852 0.148242
vt 0.922852 0.166992
vt 0.735352 0.166992
vt 0.735352 0.148242
vt 0.711914 0.37207
vt 0.711914 0.313477
vt 0.899414 0.313477
vt 0.899414 0.37207
vt 0.004883 0.137695
vt 0.004883 0.118945
vt 0.192383 0.118945
vt 0.192383 0.137695
vt 0.004883 0.303711
vt 0.004883 0.245117
vt 0.192383 0.245117
vt 0.192383 0.303711
vt 0.249023 0.045129
vt 0.267773 0.045129
vt 0.263086 0.051758
vt 0.253711 0.051758
vt 0.958008 0.06543
vt 0.899414 0.06543
vt 0.904102 0.058801
vt 0.95332 0.058801
vt 0.293164 0.051758
vt 0.274414 0.051758
vt 0.279102 0.045129
vt 0.288477 0.045129
vt 0.004883 0.045129
vt 0.063477 0.045129
vt 0.058789 0.051758
vt 0.00957 0.051758
vt 0.34082 0.112305
vt 0.34082 0.10293
vt 0.390039 0.10293
vt 0.390039 0.10293
vt 0.390039 0.112305
vt 0.34082 0.112305
vt 0.397461 0.10293
vt 0.44668 0.10293
vt 0.44668 0.112305
vt 0.44668 0.112305
vt 0.397461 0.112305
vt 0.397461 0.10293
vn -0.707107 -0.707107 0
vn 0 -0.707107 0.707107
vn 0.707107 -0.707107 0
vn 0 -0.707107 -0.707107
vn -1 0 0
vn 0 0 1
vn 1 0 0
vn 0 0 -1
vn -0.707107 0.707107 0
vn 0 0.707107 0.707107
vn 0.707107 0.707107 0
vn 0 0.707107 -0.707107
vn 0 -1 0
vn 0 1 0
f 259/885/193 260/886/193 264/887/193 263/888/193
f 260/889/194 261/890/194 265/891/194 264/892/194
f 261/893/195 262/894/195 266/895/195 265/896/195
f 262/897/196 259/898/196 263/899/196 266/900/196
f 263/901/197 264/902/197 268/903/197 267/904/197
f 264/905/198 265/906/198 269/907/198 268/908/198
f 265/909/199 266/910/199 270/911/199 269/912/199
f 266/913/200 263/914/200 267/915/200 270/916/200
f 267/917/201 268/918/201 272/919/201 271/920/201
f 268/921/202 269/922/202 273/923/202 272/924/202
f 269/925/203 270/926/203 274/927/203 273/928/203
f 270/929/204 267/930/204 271/931/204 274/932/204
f 276/933/205 275/934/205 278/935/205
f 278/936/205 277/937/205 276/938/205
f 282/939/206 279/940/206 280/941/206
f 280/942/206 281/943/206 282/944/206
o monitor_base
usemtl monitor
v 0.716667 -0.15625 0.425902
v 0.713421 -0.15625 0.405409
v 0.704416 -0.15625 0.387735
v 0.69039 -0.15625 0.373709
v 0.672716 -0.15625 0.364704
v 0.652223 -0.15625 0.361458
v 0.347777 -0.15625 0.361458
v 0.327284 -0.15625 0.364704
v 0.30961 -0.15625 0.373709
v 0.295584 -0.15625 0.387735
v 0.286579 -0.15625 0.405409
v 0.283333 -0.15625 0.425902
v 0.283333 -0.15625 0.574098
v 0.286579 -0.15625 0.594591
v 0.295584 -0.15625 0.612265
v 0.30961 -0.15625 0.626291
v 0.327284 -0.15625 0.635296
v 0.347777 -0.15625 0.638542
v 0.652223 -0.15625 0.638542
v 0.672716 -0.15625 0.635296
v 0.69039 -0.15625 0.626291
v 0.704416 -0.15625 0.612265
v 0.713421 -0.15625 0.594591
v 0.716667 -0.15625 0.574098
v 0.728125 -0.144792 0.425
v 0.724454 -0.144792 0.401824
v 0.713801 -0.144792 0.380916
v 0.697209 -0.144792 0.364324
v 0.676301 -0.144792 0.353671
v 0.653125 -0.144792 0.35
v 0.346875 -0.144792 0.35
v 0.323699 -0.144792 0.353671
v 0.302791 -0.144792 0.364324
v 0.286199 -0.144792 0.380916
v 0.275546 -0.144792 0.401824
v 0.271875 -0.144792 0.425
v 0.271875 -0.144792 0.575
v 0.275546 -0.144792 0.598176
v 0.286199 -0.144792 0.619084
v 0.302791 -0.144792 0.635676
v 0.323699 -0.144792 0.646329
v 0.346875 -0.144792 0.65
v 0.653125 -0.144792 0.65
v 0.676301 -0.144792 0.646329
v 0.697209 -0.144792 0.635676
v 0.713801 -0.144792 0.619084
v 0.724454 -0.144792 0.598176
v 0.728125 -0.144792 0.575
v 0.728125 -0.133333 0.425
v 0.724454 -0.133333 0.401824
v 0.713801 -0.133333 0.380916
v 0.697209 -0.133333 0.364324
v 0.676301 -0.133333 0.353671
v 0.653125 -0.133333 0.35
v 0.346875 -0.133333 0.35
v 0.323699 -0.133333 0.353671
v 0.302791 -0.133333 0.364324
v 0.286199 -0.133333 0.380916
v 0.275546 -0.133333 0.401824
v 0.271875 -0.133333 0.425
v 0.271875 -0.133333 0.575
v 0.275546 -0.133333 0.598176
v 0.286199 -0.133333 0.619084
v 0.302791 -0.133333 0.635676
v 0.323699 -0.133333 0.646329
v 0.346875 -0.133333 0.65
v 0.653125 -0.133333 0.65
v 0.676301 -0.133333 0.646329
v 0.697209 -0.133333 0.635676
v 0.713801 -0.133333 0.619084
v 0.724454 -0.133333 0.598176
v 0.728125 -0.133333 0.575
v 0.716667 -0.121875 0.425902
v 0.713421 -0.121875 0.405409
v 0.704416 -0.121875 0.387735
v 0.69039 -0.121875 0.373709
v 0.672716 -0.121875 0.364704
v 0.652223 -0.121875 0.361458
v 0.347777 -0.121875 0.361458
v 0.327284 -0.121875 0.364704
v 0.30961 -0.121875 0.373709
v 0.295584 -0.121875 0.387735
v 0.286579 -0.121875 0.405409
v 0.283333 -0.121875 0.425902
v 0.283333 -0.121875 0.574098
v 0.286579 -0.121875 0.594591
v 0.295584 -0.121875 0.612265
v 0.30961 -0.121875 0.626291
v 0.327284 -0.121875 0.635296
v 0.347777 -0.121875 0.638542
v 0.652223 -0.121875 0.638542
v 0.672716 -0.121875 0.635296
v 0.69039 -0.121875 0.626291
v 0.704416 -0.121875 0.612265
v 0.713421 -0.121875 0.594591
v 0.716667 -0.121875 0.574098
v 0.716667 -0.15625 0.425902
v 0.713421 -0.15625 0.405409
v 0.704416 -0.15625 0.387735
v 0.69039 -0.15625 0.373709
v 0.672716 -0.15625 0.364704
v 0.652223 -0.15625 0.361458
v 0.347777 -0.15625 0.361458
v 0.327284 -0.15625 0.364704
v 0.30961 -0.15625 0.373709
v 0.295584 -0.15625 0.387735
v 0.286579 -0.15625 0.405409
v 0.283333 -0.15625 0.425902
v 0.283333 -0.15625 0.574098
v 0.286579 -0.15625 0.594591
v 0.295584 -0.15625 0.612265
v 0.30961 -0.15625 0.626291
v 0.327284 -0.15625 0.635296
v 0.347777 -0.15625 0.638542
v 0.652223 -0.15625 0.638542
v 0.672716 -0.15625 0.635296
v 0.69039 -0.15625 0.626291
v 0.704416 -0.15625 0.612265
v 0.713421 -0.15625 0.594591
v 0.716667 -0.15625 0.574098
v 0.716667 -0.121875 0.425902
v 0.713421 -0.121875 0.405409
v 0.704416 -0.121875 0.387735
v 0.69039 -0.121875 0.373709
v 0.672716 -0.121875 0.364704
v 0.652223 -0.121875 0.361458
v 0.347777 -0.121875 0.361458
v 0.327284 -0.121875 0.364704
v 0.30961 -0.121875 0.373709
v 0.295584 -0.121875 0.387735
v 0.286579 -0.121875 0.405409
v 0.283333 -0.121875 0.425902
v 0.283333 -0.121875 0.574098
v 0.286579 -0.121875 0.594591
v 0.295584 -0.121875 0.612265
v 0.30961 -0.121875 0.626291
v 0.327284 -0.121875 0.635296
v 0.347777 -0.121875 0.638542
v 0.652223 -0.121875 0.638542
v 0.672716 -0.121875 0.635296
v 0.69039 -0.121875 0.626291
v 0.704416 -0.121875 0.612265
v 0.713421 -0.121875 0.594591
v 0.716667 -0.121875 0.574098
vt 0.182165 0.109001
vt 0.174437 0.109877
vt 0.173079 0.103915
vt 0.181819 0.102926
vt 0.174437 0.109877
vt 0.16764 0.112305
vt 0.165039 0.106788
vt 0.173079 0.103915
vt 0.516607 0.127415
vt 0.510779 0.131964
vt 0.506501 0.127595
vt 0.513396 0.122214
vt 0.510779 0.131964
vt 0.506109 0.137695
vt 0.500977 0.134375
vt 0.506501 0.127595
vt 0.778343 0.081055
vt 0.770658 0.08019
vt 0.770996 0.074114
vt 0.779687 0.075091
vt 0.770658 0.08019
vt 0.65649 0.08019
vt 0.656152 0.074114
vt 0.770996 0.074114
vt 0.65649 0.08019
vt 0.648805 0.081055
vt 0.647461 0.075091
vt 0.656152 0.074114
vt 0.646734 0.122214
vt 0.651404 0.127945
vt 0.647126 0.132314
vt 0.641602 0.125534
vt 0.651404 0.127945
vt 0.657232 0.132494
vt 0.654021 0.137695
vt 0.647126 0.132314
vt 0.087587 0.102914
vt 0.094484 0.105351
vt 0.09312 0.111311
vt 0.084961 0.108429
vt 0.094484 0.105351
vt 0.10221 0.106229
vt 0.101857 0.112305
vt 0.09312 0.111311
vt 0.10221 0.106229
vt 0.157194 0.106229
vt 0.157511 0.112305
vt 0.101857 0.112305
vt 0.969727 0.131622
vt 0.977409 0.130734
vt 0.978786 0.136692
vt 0.970098 0.137695
vt 0.977409 0.130734
vt 0.984381 0.128273
vt 0.987033 0.13378
vt 0.978786 0.136692
vt 0.571289 0.132494
vt 0.577117 0.127945
vt 0.581396 0.132314
vt 0.574501 0.137695
vt 0.577117 0.127945
vt 0.581787 0.122214
vt 0.58692 0.125534
vt 0.581396 0.132314
vt 0.371462 0.074114
vt 0.379146 0.074978
vt 0.378808 0.081055
vt 0.370117 0.080077
vt 0.379146 0.074978
vt 0.493314 0.074978
vt 0.493652 0.081055
vt 0.378808 0.081055
vt 0.493314 0.074978
vt 0.500999 0.074114
vt 0.502343 0.080077
vt 0.493652 0.081055
vt 0.605225 0.137695
vt 0.600555 0.131964
vt 0.604833 0.127595
vt 0.610357 0.134375
vt 0.600555 0.131964
vt 0.594727 0.127415
vt 0.597938 0.122214
vt 0.604833 0.127595
vt 0.820475 0.09668
vt 0.813477 0.094158
vt 0.814896 0.088211
vt 0.823175 0.091193
vt 0.245145 0.109877
vt 0.237554 0.109001
vt 0.237883 0.102926
vt 0.246468 0.103915
vt 0.237554 0.109001
vt 0.182165 0.109001
vt 0.181819 0.102926
vt 0.237883 0.102926
vt 0.775293 0.051758
vt 0.766602 0.051758
vt 0.766602 0.047461
vt 0.775293 0.047461
vt 0.982432 0.051758
vt 0.973633 0.051758
vt 0.973633 0.047461
vt 0.982432 0.047461
vt 0.935557 0.051758
vt 0.926758 0.051758
vt 0.926758 0.047461
vt 0.935557 0.047461
vt 0.013682 0.038086
vt 0.004883 0.038086
vt 0.004883 0.033789
vt 0.013682 0.033789
vt 0.489258 0.047461
vt 0.497949 0.047461
vt 0.497949 0.051758
vt 0.489258 0.051758
vt 0.497949 0.047461
vt 0.612793 0.047461
vt 0.612793 0.051758
vt 0.497949 0.051758
vt 0.612793 0.047461
vt 0.621484 0.047461
vt 0.621484 0.051758
vt 0.612793 0.051758
vt 0.020508 0.033789
vt 0.029307 0.033789
vt 0.029307 0.038086
vt 0.020508 0.038086
vt 0.036133 0.033789
vt 0.044932 0.033789
vt 0.044932 0.038086
vt 0.036133 0.038086
vt 0.958008 0.047461
vt 0.966807 0.047461
vt 0.966807 0.051758
vt 0.958008 0.051758
vt 0.84668 0.047461
vt 0.855371 0.047461
vt 0.855371 0.051758
vt 0.84668 0.051758
vt 0.855371 0.047461
vt 0.911621 0.047461
vt 0.911621 0.051758
vt 0.855371 0.051758
vt 0.911621 0.047461
vt 0.920312 0.047461
vt 0.920312 0.051758
vt 0.911621 0.051758
vt 0.942383 0.047461
vt 0.951182 0.047461
vt 0.951182 0.051758
vt 0.942383 0.051758
vt 0.473633 0.047461
vt 0.482432 0.047461
vt 0.482432 0.051758
vt 0.473633 0.051758
vt 0.458008 0.047461
vt 0.466807 0.047461
vt 0.466807 0.051758
vt 0.458008 0.051758
vt 0.62793 0.047461
vt 0.636621 0.047461
vt 0.636621 0.051758
vt 0.62793 0.051758
vt 0.636621 0.047461
vt 0.751465 0.047461
vt 0.751465 0.051758
vt 0.636621 0.051758
vt 0.751465 0.047461
vt 0.760156 0.047461
vt 0.760156 0.051758
vt 0.751465 0.051758
vt 0.091807 0.038086
vt 0.083008 0.038086
vt 0.083008 0.033789
vt 0.091807 0.033789
vt 0.060557 0.038086
vt 0.051758 0.038086
vt 0.051758 0.033789
vt 0.060557 0.033789
vt 0.076182 0.038086
vt 0.067383 0.038086
vt 0.067383 0.033789
vt 0.076182 0.033789
vt 0.840234 0.051758
vt 0.831543 0.051758
vt 0.831543 0.047461
vt 0.840234 0.047461
vt 0.831543 0.051758
vt 0.775293 0.051758
vt 0.775293 0.047461
vt 0.831543 0.047461
vt 0.26971 0.112305
vt 0.26097 0.111315
vt 0.262327 0.105354
vt 0.270055 0.106229
vt 0.26097 0.111315
vt 0.25293 0.108443
vt 0.255531 0.102926
vt 0.262327 0.105354
vt 0.536833 0.137695
vt 0.529938 0.132314
vt 0.534217 0.127945
vt 0.540045 0.132494
vt 0.529938 0.132314
vt 0.524414 0.125534
vt 0.529547 0.122214
vt 0.534217 0.127945
vt 0.786133 0.075091
vt 0.794824 0.074114
vt 0.795162 0.08019
vt 0.787477 0.081055
vt 0.794824 0.074114
vt 0.909668 0.074114
vt 0.909329 0.08019
vt 0.795162 0.08019
vt 0.909668 0.074114
vt 0.918359 0.075091
vt 0.917014 0.081055
vt 0.909329 0.08019
vt 0.618164 0.134375
vt 0.623688 0.127595
vt 0.627967 0.131964
vt 0.623297 0.137695
vt 0.623688 0.127595
vt 0.630583 0.122214
vt 0.633795 0.127415
vt 0.627967 0.131964
vt 0.004883 0.10679
vt 0.013042 0.103908
vt 0.014406 0.109868
vt 0.007509 0.112305
vt 0.013042 0.103908
vt 0.021779 0.102914
vt 0.022132 0.10899
vt 0.014406 0.109868
vt 0.021779 0.102914
vt 0.077433 0.102914
vt 0.077116 0.10899
vt 0.022132 0.10899
vt 0.94666 0.128273
vt 0.955349 0.129276
vt 0.953972 0.135234
vt 0.946289 0.134347
vt 0.955349 0.129276
vt 0.963596 0.132188
vt 0.960943 0.137695
vt 0.953972 0.135234
vt 0.480751 0.122214
vt 0.487646 0.127595
vt 0.483367 0.131964
vt 0.477539 0.127415
vt 0.487646 0.127595
vt 0.49317 0.134375
vt 0.488037 0.137695
vt 0.483367 0.131964
vt 0.641015 0.080077
vt 0.632324 0.081055
vt 0.631986 0.074978
vt 0.639671 0.074114
vt 0.632324 0.081055
vt 0.51748 0.081055
vt 0.517818 0.074978
vt 0.631986 0.074978
vt 0.51748 0.081055
vt 0.508789 0.080077
vt 0.510133 0.074114
vt 0.517818 0.074978
vt 0.563482 0.125534
vt 0.557958 0.132314
vt 0.55368 0.127945
vt 0.55835 0.122214
vt 0.557958 0.132314
vt 0.551063 0.137695
vt 0.547852 0.132494
vt 0.55368 0.127945
vt 0.8388 0.093697
vt 0.830521 0.09668
vt 0.829102 0.090732
vt 0.8361 0.088211
vt 0.334358 0.111315
vt 0.325774 0.112305
vt 0.325445 0.106229
vt 0.333036 0.105354
vt 0.325774 0.112305
vt 0.26971 0.112305
vt 0.270055 0.106229
vt 0.325445 0.106229
vt 0.814603 0.470192
vt 0.81582 0.477877
vt 0.81582 0.533451
vt 0.811226 0.463565
vt 0.814603 0.470192
vt 0.81582 0.533451
vt 0.805967 0.458305
vt 0.811226 0.463565
vt 0.81582 0.533451
vt 0.799339 0.454928
vt 0.805967 0.458305
vt 0.81582 0.533451
vt 0.791654 0.453711
vt 0.799339 0.454928
vt 0.81582 0.533451
vt 0.677487 0.453711
vt 0.791654 0.453711
vt 0.81582 0.533451
vt 0.669802 0.454928
vt 0.677487 0.453711
vt 0.81582 0.533451
vt 0.663174 0.458305
vt 0.669802 0.454928
vt 0.81582 0.533451
vt 0.657914 0.463565
vt 0.663174 0.458305
vt 0.81582 0.533451
vt 0.654537 0.470192
vt 0.657914 0.463565
vt 0.81582 0.533451
vt 0.65332 0.477877
vt 0.654537 0.470192
vt 0.81582 0.533451
vt 0.65332 0.533451
vt 0.65332 0.477877
vt 0.81582 0.533451
vt 0.654537 0.541136
vt 0.65332 0.533451
vt 0.81582 0.533451
vt 0.657914 0.547763
vt 0.654537 0.541136
vt 0.81582 0.533451
vt 0.663174 0.553023
vt 0.657914 0.547763
vt 0.81582 0.533451
vt 0.669802 0.5564
vt 0.663174 0.553023
vt 0.81582 0.533451
vt 0.677487 0.557617
vt 0.669802 0.5564
vt 0.81582 0.533451
vt 0.791654 0.557617
vt 0.677487 0.557617
vt 0.81582 0.533451
vt 0.799339 0.5564
vt 0.791654 0.557617
vt 0.81582 0.533451
vt 0.805967 0.553023
vt 0.799339 0.5564
vt 0.81582 0.533451
vt 0.811226 0.547763
vt 0.805967 0.553023
vt 0.81582 0.533451
vt 0.81582 0.533451
vt 0.814603 0.541136
vt 0.811226 0.547763
vt 0.823242 0.533451
vt 0.823242 0.477877
vt 0.824459 0.470192
vt 0.823242 0.533451
vt 0.824459 0.470192
vt 0.827836 0.463565
vt 0.823242 0.533451
vt 0.827836 0.463565
vt 0.833096 0.458305
vt 0.823242 0.533451
vt 0.833096 0.458305
vt 0.839724 0.454928
vt 0.823242 0.533451
vt 0.839724 0.454928
vt 0.847408 0.453711
vt 0.823242 0.533451
vt 0.847408 0.453711
vt 0.961576 0.453711
vt 0.823242 0.533451
vt 0.961576 0.453711
vt 0.969261 0.454928
vt 0.823242 0.533451
vt 0.969261 0.454928
vt 0.975888 0.458305
vt 0.823242 0.533451
vt 0.975888 0.458305
vt 0.981148 0.463565
vt 0.823242 0.533451
vt 0.981148 0.463565
vt 0.984525 0.470192
vt 0.823242 0.533451
vt 0.984525 0.470192
vt 0.985742 0.477877
vt 0.823242 0.533451
vt 0.985742 0.477877
vt 0.985742 0.533451
vt 0.823242 0.533451
vt 0.985742 0.533451
vt 0.984525 0.541136
vt 0.823242 0.533451
vt 0.984525 0.541136
vt 0.981148 0.547763
vt 0.823242 0.533451
vt 0.981148 0.547763
vt 0.975888 0.553023
vt 0.823242 0.533451
vt 0.975888 0.553023
vt 0.969261 0.5564
vt 0.823242 0.533451
vt 0.969261 0.5564
vt 0.961576 0.557617
vt 0.823242 0.533451
vt 0.961576 0.557617
vt 0.847408 0.557617
vt 0.823242 0.533451
vt 0.847408 0.557617
vt 0.839724 0.5564
vt 0.823242 0.533451
vt 0.839724 0.5564
vt 0.833096 0.553023
vt 0.823242 0.533451
vt 0.833096 0.553023
vt 0.827836 0.547763
vt 0.827836 0.547763
vt 0.824459 0.541136
vt 0.823242 0.533451
vn 0.706472 -0.707597 -0.014293
vn 0.668679 -0.711472 -0.216046
vn 0.568507 -0.711473 -0.413045
vn 0.413045 -0.711473 -0.568507
vn 0.216046 -0.711472 -0.668679
vn 0.007471 -0.707381 -0.706793
vn -0.007471 -0.707381 -0.706793
vn -0.216046 -0.711472 -0.668679
vn -0.413045 -0.711473 -0.568507
vn -0.568507 -0.711473 -0.413045
vn -0.668679 -0.711472 -0.216046
vn -0.706472 -0.707597 -0.014293
vn -0.706472 -0.707597 0.014293
vn -0.668679 -0.711472 0.216046
vn -0.568507 -0.711473 0.413045
vn -0.413045 -0.711473 0.568507
vn -0.216046 -0.711472 0.668679
vn -0.007471 -0.707381 0.706793
vn 0.007471 -0.707381 0.706793
vn 0.216046 -0.711472 0.668679
vn 0.413045 -0.711473 0.568507
vn 0.568507 -0.711473 0.413045
vn 0.668679 -0.711472 0.216046
vn 0.706472 -0.707597 0.014293
vn 0.999775 0 -0.021192
vn 0.951057 0 -0.309017
vn 0.809017 0 -0.587785
vn 0.587785 0 -0.809017
vn 0.309017 0 -0.951057
vn 0.011142 0 -0.999938
vn -0.011142 0 -0.999938
vn -0.309017 0 -0.951057
vn -0.587785 0 -0.809017
vn -0.809017 0 -0.587785
vn -0.951057 0 -0.309017
vn -0.999775 0 -0.021192
vn -0.999775 0 0.021192
vn -0.951057 0 0.309017
vn -0.809017 0 0.587785
vn -0.587785 0 0.809017
vn -0.309017 0 0.951057
vn -0.011142 0 0.999938
vn 0.011142 0 0.999938
vn 0.309017 0 0.951057
vn 0.587785 0 0.809017
vn 0.809017 0 0.587785
vn 0.951057 0 0.309017
vn 0.999775 0 0.021192
vn 0.706472 0.707597 -0.014293
vn 0.668679 0.711472 -0.216046
vn 0.568507 0.711473 -0.413045
vn 0.413045 0.711473 -0.568507
vn 0.216046 0.711472 -0.668679
vn 0.007471 0.707381 -0.706793
vn -0.007471 0.707381 -0.706793
vn -0.216046 0.711472 -0.668679
vn -0.413045 0.711473 -0.568507
vn -0.568507 0.711473 -0.413045
vn -0.668679 0.711472 -0.216046
vn -0.706472 0.707597 -0.014293
vn -0.706472 0.707597 0.014293
vn -0.668679 0.711472 0.216046
vn -0.568507 0.711473 0.413045
vn -0.413045 0.711473 0.568507
vn -0.216046 0.711472 0.668679
vn -0.007471 0.707381 0.706793
vn 0.007471 0.707381 0.706793
vn 0.216046 0.711472 0.668679
vn 0.413045 0.711473 0.568507
vn 0.568507 0.711473 0.413045
vn 0.668679 0.711472 0.216046
vn 0.706472 0.707597 0.014293
vn 0 -1 0
vn 0 1 0
f 283/945/207 284/946/208 308/947/208 307/948/207
f 284/949/208 285/950/209 309/951/209 308/952/208
f 285/953/209 286/954/210 310/955/210 309/956/209
f 286/957/210 287/958/211 311/959/211 310/960/210
f 287/961/211 288/962/212 312/963/212 311/964/211
f 288/965/212 289/966/213 313/967/213 312/968/212
f 289/969/213 290/970/214 314/971/214 313/972/213
f 290/973/214 291/974/215 315/975/215 314/976/214
f 291/977/215 292/978/216 316/979/216 315/980/215
f 292/981/216 293/982/217 317/983/217 316/984/216
f 293/985/217 294/986/218 318/987/218 317/988/217
f 294/989/218 295/990/219 319/991/219 318/992/218
f 295/993/219 296/994/220 320/995/220 319/996/219
f 296/997/220 297/998/221 321/999/221 320/1000/220
f 297/1001/221 298/1002/222 322/1003/222 321/1004/221
f 298/1005/222 299/1006/223 323/1007/223 322/1008/222
f 299/1009/223 300/1010/224 324/1011/224 323/1012/223
f 300/1013/224 301/1014/225 325/1015/225 324/1016/224
f 301/1017/225 302/1018/226 326/1019/226 325/1020/225
f 302/1021/226 303/1022/227 327/1023/227 326/1024/226
f 303/1025/227 304/1026/228 328/1027/228 327/1028/227
f 304/1029/228 305/1030/229 329/1031/229 328/1032/228
f 305/1033/229 306/1034/230 330/1035/230 329/1036/229
f 306/1037/230 283/1038/207 307/1039/207 330/1040/230
f 307/1041/231 308/1042/232 332/1043/232 331/1044/231
f 308/1045/232 309/1046/233 333/1047/233 332/1048/232
f 309/1049/233 310/1050/234 334/1051/234 333/1052/233
f 310/1053/234 311/1054/235 335/1055/235 334/1056/234
f 311/1057/235 312/1058/236 336/1059/236 335/1060/235
f 312/1061/236 313/1062/237 337/1063/237 336/1064/236
f 313/1065/237 314/1066/238 338/1067/238 337/1068/237
f 314/1069/238 315/1070/239 339/1071/239 338/1072/238
f 315/1073/239 316/1074/240 340/1075/240 339/1076/239
f 316/1077/240 317/1078/241 341/1079/241 340/1080/240
f 317/1081/241 318/1082/242 342/1083/242 341/1084/241
f 318/1085/242 319/1086/243 343/1087/243 342/1088/242
f 319/1089/243 320/1090/244 344/1091/244 343/1092/243
f 320/1093/244 321/1094/245 345/1095/245 344/1096/244
f 321/1097/245 322/1098/246 346/1099/246 345/1100/245
f 322/1101/246 323/1102/247 347/1103/247 346/1104/246
f 323/1105/247 324/1106/248 348/1107/248 347/1108/247
f 324/1109/248 325/1110/249 349/1111/249 348/1112/248
f 325/1113/249 326/1114/250 350/1115/250 349/1116/249
f 326/1117/250 327/1118/251 351/1119/251 350/1120/250
f 327/1121/251 328/1122/252 352/1123/252 351/1124/251
f 328/1125/252 329/1126/253 353/1127/253 352/1128/252
f 329/1129/253 330/1130/254 354/1131/254 353/1132/253
f 330/1133/254 307/1134/231 331/1135/231 354/1136/254
f 331/1137/255 332/1138/256 356/1139/256 355/1140/255
f 332/1141/256 333/1142/257 357/1143/257 356/1144/256
f 333/1145/257 334/1146/258 358/1147/258 357/1148/257
f 334/1149/258 335/1150/259 359/1151/259 358/1152/258
f 335/1153/259 336/1154/260 360/1155/260 359/1156/259
f 336/1157/260 337/1158/261 361/1159/261 360/1160/260
f 337/1161/261 338/1162/262 362/1163/262 361/1164/261
f 338/1165/262 339/1166/263 363/1167/263 362/1168/262
f 339/1169/263 340/1170/264 364/1171/264 363/1172/263
f 340/1173/264 341/1174/265 365/1175/265 364/1176/264
f 341/1177/265 342/1178/266 366/1179/266 365/1180/265
f 342/1181/266 343/1182/267 367/1183/267 366/1184/266
f 343/1185/267 344/1186/268 368/1187/268 367/1188/267
f 344/1189/268 345/1190/269 369/1191/269 368/1192/268
f 345/1193/269 346/1194/270 370/1195/270 369/1196/269
f 346/1197/270 347/1198/271 371/1199/271 370/1200/270
f 347/1201/271 348/1202/272 372/1203/272 371/1204/271
f 348/1205/272 349/1206/273 373/1207/273 372/1208/272
f 349/1209/273 350/1210/274 374/1211/274 373/1212/273
f 350/1213/274 351/1214/275 375/1215/275 374/1216/274
f 351/1217/275 352/1218/276 376/1219/276 375/1220/275
f 352/1221/276 353/1222/277 377/1223/277 376/1224/276
f 353/1225/277 354/1226/278 378/1227/278 377/1228/277
f 354/1229/278 331/1230/255 355/1231/255 378/1232/278
f 380/1233/279 379/1234/279 402/1235/279
f 381/1236/279 380/1237/279 402/1238/279
f 382/1239/279 381/1240/279 402/1241/279
f 383/1242/279 382/1243/279 402/1244/279
f 384/1245/279 383/1246/279 402/1247/279
f 385/1248/279 384/1249/279 402/1250/279
f 386/1251/279 385/1252/279 402/1253/279
f 387/1254/279 386/1255/279 402/1256/279
f 388/1257/279 387/1258/279 402/1259/279
f 389/1260/279 388/1261/279 402/1262/279
f 390/1263/279 389/1264/279 402/1265/279
f 391/1266/279 390/1267/279 402/1268/279
f 392/1269/279 391/1270/279 402/1271/279
f 393/1272/279 392/1273/279 402/1274/279
f 394/1275/279 393/1276/279 402/1277/279
f 395/1278/279 394/1279/279 402/1280/279
f 396/1281/279 395/1282/279 402/1283/279
f 397/1284/279 396/1285/279 402/1286/279
f 398/1287/279 397/1288/279 402/1289/279
f 399/1290/279 398/1291/279 402/1292/279
f 400/1293/279 399/1294/279 402/1295/279
f 402/1296/279 401/1297/279 400/1298/279
f 426/1299/280 403/1300/280 404/1301/280
f 426/1302/280 404/1303/280 405/1304/280
f 426/1305/280 405/1306/280 406/1307/280
f 426/1308/280 406/1309/280 407/1310/280
f 426/1311/280 407/1312/280 408/1313/280
f 426/1314/280 408/1315/280 409/1316/280
f 426/1317/280 409/1318/280 410/1319/280
f 426/1320/280 410/1321/280 411/1322/280
f 426/1323/280 411/1324/280 412/1325/280
f 426/1326/280 412/1327/280 413/1328/280
f 426/1329/280 413/1330/280 414/1331/280
f 426/1332/280 414/1333/280 415/1334/280
f 426/1335/280 415/1336/280 416/1337/280
f 426/1338/280 416/1339/280 417/1340/280
f 426/1341/280 417/1342/280 418/1343/280
f 426/1344/280 418/1345/280 419/1346/280
f 426/1347/280 419/1348/280 420/1349/280
f 426/1350/280 420/1351/280 421/1352/280
f 426/1353/280 421/1354/280 422/1355/280
f 426/1356/280 422/1357/280 423/1358/280
f 426/1359/280 423/1360/280 424/1361/280
f 424/1362/280 425/1363/280 426/1364/280
