# AFL Office Props V2 keyboard (on desk), generated by tools/build-office-props-v2.mjs
mtllib office_keyboard_lowered.mtl
o keyboard_body
usemtl keyboard
v 0.114063 -0.14875 0.395
v 0.114063 -0.14875 0.600313
v 0.114063 -0.115805 0.600313
v 0.114063 -0.136773 0.395
v 0.121563 -0.15625 0.3875
v 0.121563 -0.15625 0.607812
v 0.121563 -0.1075 0.607812
v 0.121563 -0.13 0.3875
v 0.878437 -0.15625 0.3875
v 0.878437 -0.15625 0.607812
v 0.878437 -0.1075 0.607812
v 0.878437 -0.13 0.3875
v 0.885938 -0.14875 0.395
v 0.885938 -0.14875 0.600313
v 0.885938 -0.115805 0.600313
v 0.885938 -0.136773 0.395
v 0.114063 -0.14875 0.395
v 0.114063 -0.14875 0.600313
v 0.114063 -0.115805 0.600313
v 0.114063 -0.136773 0.395
v 0.885938 -0.14875 0.395
v 0.885938 -0.14875 0.600313
v 0.885938 -0.115805 0.600313
v 0.885938 -0.136773 0.395
vt 0.317383 0.017879
vt 0.534253 0.017879
vt 0.52687 0.02832
vt 0.324766 0.02832
vt 0.935684 0.02832
vt 0.887695 0.02832
vt 0.895871 0.017879
vt 0.928301 0.017879
vt 0.222315 0.452148
vt 0.004883 0.436447
vt 0.012285 0.426513
vt 0.214913 0.441146
vt 0.821289 0.017879
vt 0.847129 0.017879
vt 0.839746 0.02832
vt 0.827956 0.02832
vt 0.749932 0.553638
vt 0.749932 0.770508
vt 0.004883 0.770508
vt 0.004883 0.553638
vt 0.749932 0.49791
vt 0.749932 0.545898
vt 0.004883 0.545898
vt 0.004883 0.49791
vt 0.004883 0.995117
vt 0.004883 0.777119
vt 0.749932 0.777119
vt 0.749932 0.995117
vt 0.213867 0.491211
vt 0.213867 0.465371
vt 0.958916 0.465371
vt 0.958916 0.491211
vt 0.549375 0.017879
vt 0.751479 0.017879
vt 0.758862 0.02832
vt 0.541992 0.02832
vt 0.773984 0.017879
vt 0.806415 0.017879
vt 0.81459 0.02832
vt 0.766602 0.02832
vt 0.439522 0.437516
vt 0.236894 0.452148
vt 0.229492 0.442215
vt 0.446924 0.426513
vt 0.873665 0.02832
vt 0.861875 0.02832
vt 0.854492 0.017879
vt 0.880332 0.017879
vt 0.756836 0.525258
vt 0.756836 0.513468
vt 0.95894 0.513468
vt 0.95894 0.513468
vt 0.95894 0.545898
vt 0.756836 0.525258
vt 0.206987 0.491211
vt 0.004883 0.491211
vt 0.004883 0.479421
vt 0.004883 0.479421
vt 0.206987 0.458781
vt 0.206987 0.491211
vn -0.707107 -0.707107 0
vn -0.707107 0 0.707107
vn -0.707107 0.703448 -0.071841
vn -0.707107 0 -0.707107
vn 0 -1 0
vn 0 0 1
vn 0 0.994825 -0.101599
vn 0 0 -1
vn 0.707107 -0.707107 0
vn 0.707107 0 0.707107
vn 0.707107 0.703448 -0.071841
vn 0.707107 0 -0.707107
vn -1 0 0
vn 1 0 0
f 5/1/1 6/2/1 2/3/1 1/4/1
f 6/5/2 7/6/2 3/7/2 2/8/2
f 7/9/3 8/10/3 4/11/3 3/12/3
f 8/13/4 5/14/4 1/15/4 4/16/4
f 9/17/5 10/18/5 6/19/5 5/20/5
f 10/21/6 11/22/6 7/23/6 6/24/6
f 11/25/7 12/26/7 8/27/7 7/28/7
f 12/29/8 9/30/8 5/31/8 8/32/8
f 13/33/9 14/34/9 10/35/9 9/36/9
f 14/37/10 15/38/10 11/39/10 10/40/10
f 15/41/11 16/42/11 12/43/11 11/44/11
f 16/45/12 13/46/12 9/47/12 12/48/12
f 20/49/13 17/50/13 18/51/13
f 18/52/13 19/53/13 20/54/13
f 22/55/14 21/56/14 24/57/14
f 24/58/14 23/59/14 22/60/14
o keyboard_keys
usemtl keyboard
v 0.823125 -0.112765 0.568561
v 0.84875 -0.112765 0.568561
v 0.84875 -0.110162 0.594053
v 0.823125 -0.110162 0.594053
v 0.826562 -0.098597 0.571951
v 0.845313 -0.098597 0.571951
v 0.845313 -0.096692 0.590604
v 0.826562 -0.096692 0.590604
v 0.760625 -0.112765 0.568561
v 0.78625 -0.112765 0.568561
v 0.78625 -0.110162 0.594053
v 0.760625 -0.110162 0.594053
v 0.764062 -0.098597 0.571951
v 0.782813 -0.098597 0.571951
v 0.782813 -0.096692 0.590604
v 0.764062 -0.096692 0.590604
v 0.729375 -0.112765 0.568561
v 0.755 -0.112765 0.568561
v 0.755 -0.110162 0.594053
v 0.729375 -0.110162 0.594053
v 0.732812 -0.098597 0.571951
v 0.751563 -0.098597 0.571951
v 0.751563 -0.096692 0.590604
v 0.732812 -0.096692 0.590604
v 0.698125 -0.112765 0.568561
v 0.72375 -0.112765 0.568561
v 0.72375 -0.110162 0.594053
v 0.698125 -0.110162 0.594053
v 0.701562 -0.098597 0.571951
v 0.720313 -0.098597 0.571951
v 0.720313 -0.096692 0.590604
v 0.701562 -0.096692 0.590604
v 0.666875 -0.112765 0.568561
v 0.6925 -0.112765 0.568561
v 0.6925 -0.110162 0.594053
v 0.666875 -0.110162 0.594053
v 0.670312 -0.098597 0.571951
v 0.689063 -0.098597 0.571951
v 0.689063 -0.096692 0.590604
v 0.670312 -0.096692 0.590604
v 0.62 -0.112765 0.568561
v 0.645625 -0.112765 0.568561
v 0.645625 -0.110162 0.594053
v 0.62 -0.110162 0.594053
v 0.623437 -0.098597 0.571951
v 0.642188 -0.098597 0.571951
v 0.642188 -0.096692 0.590604
v 0.623437 -0.096692 0.590604
v 0.58875 -0.112765 0.568561
v 0.614375 -0.112765 0.568561
v 0.614375 -0.110162 0.594053
v 0.58875 -0.110162 0.594053
v 0.592187 -0.098597 0.571951
v 0.610938 -0.098597 0.571951
v 0.610938 -0.096692 0.590604
v 0.592187 -0.096692 0.590604
v 0.5575 -0.112765 0.568561
v 0.583125 -0.112765 0.568561
v 0.583125 -0.110162 0.594053
v 0.5575 -0.110162 0.594053
v 0.560937 -0.098597 0.571951
v 0.579688 -0.098597 0.571951
v 0.579688 -0.096692 0.590604
v 0.560937 -0.096692 0.590604
v 0.52625 -0.112765 0.568561
v 0.551875 -0.112765 0.568561
v 0.551875 -0.110162 0.594053
v 0.52625 -0.110162 0.594053
v 0.529687 -0.098597 0.571951
v 0.548438 -0.098597 0.571951
v 0.548438 -0.096692 0.590604
v 0.529687 -0.096692 0.590604
v 0.479375 -0.112765 0.568561
v 0.505 -0.112765 0.568561
v 0.505 -0.110162 0.594053
v 0.479375 -0.110162 0.594053
v 0.482812 -0.098597 0.571951
v 0.501563 -0.098597 0.571951
v 0.501563 -0.096692 0.590604
v 0.482812 -0.096692 0.590604
v 0.448125 -0.112765 0.568561
v 0.47375 -0.112765 0.568561
v 0.47375 -0.110162 0.594053
v 0.448125 -0.110162 0.594053
v 0.451562 -0.098597 0.571951
v 0.470313 -0.098597 0.571951
v 0.470313 -0.096692 0.590604
v 0.451562 -0.096692 0.590604
v 0.416875 -0.112765 0.568561
v 0.4425 -0.112765 0.568561
v 0.4425 -0.110162 0.594053
v 0.416875 -0.110162 0.594053
v 0.420312 -0.098597 0.571951
v 0.439063 -0.098597 0.571951
v 0.439063 -0.096692 0.590604
v 0.420312 -0.096692 0.590604
v 0.385625 -0.112765 0.568561
v 0.41125 -0.112765 0.568561
v 0.41125 -0.110162 0.594053
v 0.385625 -0.110162 0.594053
v 0.389062 -0.098597 0.571951
v 0.407813 -0.098597 0.571951
v 0.407813 -0.096692 0.590604
v 0.389062 -0.096692 0.590604
v 0.346562 -0.112765 0.568561
v 0.372188 -0.112765 0.568561
v 0.372188 -0.110162 0.594053
v 0.346562 -0.110162 0.594053
v 0.35 -0.098597 0.571951
v 0.36875 -0.098597 0.571951
v 0.36875 -0.096692 0.590604
v 0.35 -0.096692 0.590604
v 0.315312 -0.112765 0.568561
v 0.340938 -0.112765 0.568561
v 0.340938 -0.110162 0.594053
v 0.315312 -0.110162 0.594053
v 0.31875 -0.098597 0.571951
v 0.3375 -0.098597 0.571951
v 0.3375 -0.096692 0.590604
v 0.31875 -0.096692 0.590604
v 0.284062 -0.112765 0.568561
v 0.309688 -0.112765 0.568561
v 0.309688 -0.110162 0.594053
v 0.284062 -0.110162 0.594053
v 0.2875 -0.098597 0.571951
v 0.30625 -0.098597 0.571951
v 0.30625 -0.096692 0.590604
v 0.2875 -0.096692 0.590604
v 0.823125 -0.116734 0.529701
v 0.84875 -0.116734 0.529701
v 0.84875 -0.11413 0.555193
v 0.823125 -0.11413 0.555193
v 0.826562 -0.102566 0.533091
v 0.845313 -0.102566 0.533091
v 0.845313 -0.100661 0.551744
v 0.826562 -0.100661 0.551744
v 0.791875 -0.116734 0.529701
v 0.8175 -0.116734 0.529701
v 0.8175 -0.11413 0.555193
v 0.791875 -0.11413 0.555193
v 0.795312 -0.102566 0.533091
v 0.814063 -0.102566 0.533091
v 0.814063 -0.100661 0.551744
v 0.795312 -0.100661 0.551744
v 0.760625 -0.116734 0.529701
v 0.78625 -0.116734 0.529701
v 0.78625 -0.11413 0.555193
v 0.760625 -0.11413 0.555193
v 0.764062 -0.102566 0.533091
v 0.782813 -0.102566 0.533091
v 0.782813 -0.100661 0.551744
v 0.764062 -0.100661 0.551744
v 0.729375 -0.116734 0.529701
v 0.755 -0.116734 0.529701
v 0.755 -0.11413 0.555193
v 0.729375 -0.11413 0.555193
v 0.732812 -0.102566 0.533091
v 0.751563 -0.102566 0.533091
v 0.751563 -0.100661 0.551744
v 0.732812 -0.100661 0.551744
v 0.698125 -0.116734 0.529701
v 0.72375 -0.116734 0.529701
v 0.72375 -0.11413 0.555193
v 0.698125 -0.11413 0.555193
v 0.701562 -0.102566 0.533091
v 0.720313 -0.102566 0.533091
v 0.720313 -0.100661 0.551744
v 0.701562 -0.100661 0.551744
v 0.666875 -0.116734 0.529701
v 0.6925 -0.116734 0.529701
v 0.6925 -0.11413 0.555193
v 0.666875 -0.11413 0.555193
v 0.670312 -0.102566 0.533091
v 0.689063 -0.102566 0.533091
v 0.689063 -0.100661 0.551744
v 0.670312 -0.100661 0.551744
v 0.635625 -0.116734 0.529701
v 0.66125 -0.116734 0.529701
v 0.66125 -0.11413 0.555193
v 0.635625 -0.11413 0.555193
v 0.639062 -0.102566 0.533091
v 0.657813 -0.102566 0.533091
v 0.657813 -0.100661 0.551744
v 0.639062 -0.100661 0.551744
v 0.604375 -0.116734 0.529701
v 0.63 -0.116734 0.529701
v 0.63 -0.11413 0.555193
v 0.604375 -0.11413 0.555193
v 0.607812 -0.102566 0.533091
v 0.626563 -0.102566 0.533091
v 0.626563 -0.100661 0.551744
v 0.607812 -0.100661 0.551744
v 0.573125 -0.116734 0.529701
v 0.59875 -0.116734 0.529701
v 0.59875 -0.11413 0.555193
v 0.573125 -0.11413 0.555193
v 0.576562 -0.102566 0.533091
v 0.595313 -0.102566 0.533091
v 0.595313 -0.100661 0.551744
v 0.576562 -0.100661 0.551744
v 0.541875 -0.116734 0.529701
v 0.5675 -0.116734 0.529701
v 0.5675 -0.11413 0.555193
v 0.541875 -0.11413 0.555193
v 0.545312 -0.102566 0.533091
v 0.564063 -0.102566 0.533091
v 0.564063 -0.100661 0.551744
v 0.545312 -0.100661 0.551744
v 0.510625 -0.116734 0.529701
v 0.53625 -0.116734 0.529701
v 0.53625 -0.11413 0.555193
v 0.510625 -0.11413 0.555193
v 0.514062 -0.102566 0.533091
v 0.532813 -0.102566 0.533091
v 0.532813 -0.100661 0.551744
v 0.514062 -0.100661 0.551744
v 0.479375 -0.116734 0.529701
v 0.505 -0.116734 0.529701
v 0.505 -0.11413 0.555193
v 0.479375 -0.11413 0.555193
v 0.482812 -0.102566 0.533091
v 0.501563 -0.102566 0.533091
v 0.501563 -0.100661 0.551744
v 0.482812 -0.100661 0.551744
v 0.448125 -0.116734 0.529701
v 0.47375 -0.116734 0.529701
v 0.47375 -0.11413 0.555193
v 0.448125 -0.11413 0.555193
v 0.451562 -0.102566 0.533091
v 0.470313 -0.102566 0.533091
v 0.470313 -0.100661 0.551744
v 0.451562 -0.100661 0.551744
v 0.385625 -0.116734 0.529701
v 0.4425 -0.116734 0.529701
v 0.4425 -0.11413 0.555193
v 0.385625 -0.11413 0.555193
v 0.389062 -0.102566 0.533091
v 0.439063 -0.102566 0.533091
v 0.439063 -0.100661 0.551744
v 0.389062 -0.100661 0.551744
v 0.346562 -0.116734 0.529701
v 0.372188 -0.116734 0.529701
v 0.372188 -0.11413 0.555193
v 0.346562 -0.11413 0.555193
v 0.35 -0.102566 0.533091
v 0.36875 -0.102566 0.533091
v 0.36875 -0.100661 0.551744
v 0.35 -0.100661 0.551744
v 0.315312 -0.116734 0.529701
v 0.340938 -0.116734 0.529701
v 0.340938 -0.11413 0.555193
v 0.315312 -0.11413 0.555193
v 0.31875 -0.102566 0.533091
v 0.3375 -0.102566 0.533091
v 0.3375 -0.100661 0.551744
v 0.31875 -0.100661 0.551744
v 0.284062 -0.116734 0.529701
v 0.309688 -0.116734 0.529701
v 0.309688 -0.11413 0.555193
v 0.284062 -0.11413 0.555193
v 0.2875 -0.102566 0.533091
v 0.30625 -0.102566 0.533091
v 0.30625 -0.100661 0.551744
v 0.2875 -0.100661 0.551744
v 0.245 -0.116734 0.529701
v 0.270625 -0.116734 0.529701
v 0.270625 -0.11413 0.555193
v 0.245 -0.11413 0.555193
v 0.248437 -0.102566 0.533091
v 0.267188 -0.102566 0.533091
v 0.267188 -0.100661 0.551744
v 0.248437 -0.100661 0.551744
v 0.21375 -0.116734 0.529701
v 0.239375 -0.116734 0.529701
v 0.239375 -0.11413 0.555193
v 0.21375 -0.11413 0.555193
v 0.217187 -0.102566 0.533091
v 0.235938 -0.102566 0.533091
v 0.235938 -0.100661 0.551744
v 0.217187 -0.100661 0.551744
v 0.1825 -0.116734 0.529701
v 0.208125 -0.116734 0.529701
v 0.208125 -0.11413 0.555193
v 0.1825 -0.11413 0.555193
v 0.185937 -0.102566 0.533091
v 0.204688 -0.102566 0.533091
v 0.204688 -0.100661 0.551744
v 0.185937 -0.100661 0.551744
v 0.15125 -0.116734 0.529701
v 0.176875 -0.116734 0.529701
v 0.176875 -0.11413 0.555193
v 0.15125 -0.11413 0.555193
v 0.154687 -0.102566 0.533091
v 0.173438 -0.102566 0.533091
v 0.173438 -0.100661 0.551744
v 0.154687 -0.100661 0.551744
v 0.8075 -0.119909 0.498612
v 0.84875 -0.119909 0.498612
v 0.84875 -0.117305 0.524105
v 0.8075 -0.117305 0.524105
v 0.810937 -0.105741 0.502003
v 0.845313 -0.105741 0.502003
v 0.845313 -0.103836 0.520656
v 0.810937 -0.103836 0.520656
v 0.77625 -0.119909 0.498612
v 0.801875 -0.119909 0.498612
v 0.801875 -0.117305 0.524105
v 0.77625 -0.117305 0.524105
v 0.779687 -0.105741 0.502003
v 0.798438 -0.105741 0.502003
v 0.798438 -0.103836 0.520656
v 0.779687 -0.103836 0.520656
v 0.745 -0.119909 0.498612
v 0.770625 -0.119909 0.498612
v 0.770625 -0.117305 0.524105
v 0.745 -0.117305 0.524105
v 0.748437 -0.105741 0.502003
v 0.767188 -0.105741 0.502003
v 0.767188 -0.103836 0.520656
v 0.748437 -0.103836 0.520656
v 0.71375 -0.119909 0.498612
v 0.739375 -0.119909 0.498612
v 0.739375 -0.117305 0.524105
v 0.71375 -0.117305 0.524105
v 0.717187 -0.105741 0.502003
v 0.735938 -0.105741 0.502003
v 0.735938 -0.103836 0.520656
v 0.717187 -0.103836 0.520656
v 0.6825 -0.119909 0.498612
v 0.708125 -0.119909 0.498612
v 0.708125 -0.117305 0.524105
v 0.6825 -0.117305 0.524105
v 0.685937 -0.105741 0.502003
v 0.704688 -0.105741 0.502003
v 0.704688 -0.103836 0.520656
v 0.685937 -0.103836 0.520656
v 0.65125 -0.119909 0.498612
v 0.676875 -0.119909 0.498612
v 0.676875 -0.117305 0.524105
v 0.65125 -0.117305 0.524105
v 0.654687 -0.105741 0.502003
v 0.673438 -0.105741 0.502003
v 0.673438 -0.103836 0.520656
v 0.654687 -0.103836 0.520656
v 0.62 -0.119909 0.498612
v 0.645625 -0.119909 0.498612
v 0.645625 -0.117305 0.524105
v 0.62 -0.117305 0.524105
v 0.623437 -0.105741 0.502003
v 0.642188 -0.105741 0.502003
v 0.642188 -0.103836 0.520656
v 0.623437 -0.103836 0.520656
v 0.58875 -0.119909 0.498612
v 0.614375 -0.119909 0.498612
v 0.614375 -0.117305 0.524105
v 0.58875 -0.117305 0.524105
v 0.592187 -0.105741 0.502003
v 0.610938 -0.105741 0.502003
v 0.610938 -0.103836 0.520656
v 0.592187 -0.103836 0.520656
v 0.5575 -0.119909 0.498612
v 0.583125 -0.119909 0.498612
v 0.583125 -0.117305 0.524105
v 0.5575 -0.117305 0.524105
v 0.560937 -0.105741 0.502003
v 0.579688 -0.105741 0.502003
v 0.579688 -0.103836 0.520656
v 0.560937 -0.103836 0.520656
v 0.52625 -0.119909 0.498612
v 0.551875 -0.119909 0.498612
v 0.551875 -0.117305 0.524105
v 0.52625 -0.117305 0.524105
v 0.529687 -0.105741 0.502003
v 0.548438 -0.105741 0.502003
v 0.548438 -0.103836 0.520656
v 0.529687 -0.103836 0.520656
v 0.495 -0.119909 0.498612
v 0.520625 -0.119909 0.498612
v 0.520625 -0.117305 0.524105
v 0.495 -0.117305 0.524105
v 0.498437 -0.105741 0.502003
v 0.517188 -0.105741 0.502003
v 0.517188 -0.103836 0.520656
v 0.498437 -0.103836 0.520656
v 0.46375 -0.119909 0.498612
v 0.489375 -0.119909 0.498612
v 0.489375 -0.117305 0.524105
v 0.46375 -0.117305 0.524105
v 0.467187 -0.105741 0.502003
v 0.485938 -0.105741 0.502003
v 0.485938 -0.103836 0.520656
v 0.467187 -0.103836 0.520656
v 0.4325 -0.119909 0.498612
v 0.458125 -0.119909 0.498612
v 0.458125 -0.117305 0.524105
v 0.4325 -0.117305 0.524105
v 0.435937 -0.105741 0.502003
v 0.454688 -0.105741 0.502003
v 0.454688 -0.103836 0.520656
v 0.435937 -0.103836 0.520656
v 0.385625 -0.119909 0.498612
v 0.426875 -0.119909 0.498612
v 0.426875 -0.117305 0.524105
v 0.385625 -0.117305 0.524105
v 0.389062 -0.105741 0.502003
v 0.423438 -0.105741 0.502003
v 0.423438 -0.103836 0.520656
v 0.389062 -0.103836 0.520656
v 0.346562 -0.119909 0.498612
v 0.372188 -0.119909 0.498612
v 0.372188 -0.117305 0.524105
v 0.346562 -0.117305 0.524105
v 0.35 -0.105741 0.502003
v 0.36875 -0.105741 0.502003
v 0.36875 -0.103836 0.520656
v 0.35 -0.103836 0.520656
v 0.315312 -0.119909 0.498612
v 0.340938 -0.119909 0.498612
v 0.340938 -0.117305 0.524105
v 0.315312 -0.117305 0.524105
v 0.31875 -0.105741 0.502003
v 0.3375 -0.105741 0.502003
v 0.3375 -0.103836 0.520656
v 0.31875 -0.103836 0.520656
v 0.284062 -0.119909 0.498612
v 0.309688 -0.119909 0.498612
v 0.309688 -0.117305 0.524105
v 0.284062 -0.117305 0.524105
v 0.2875 -0.105741 0.502003
v 0.30625 -0.105741 0.502003
v 0.30625 -0.103836 0.520656
v 0.2875 -0.103836 0.520656
v 0.245 -0.119909 0.498612
v 0.270625 -0.119909 0.498612
v 0.270625 -0.117305 0.524105
v 0.245 -0.117305 0.524105
v 0.248437 -0.105741 0.502003
v 0.267188 -0.105741 0.502003
v 0.267188 -0.103836 0.520656
v 0.248437 -0.103836 0.520656
v 0.21375 -0.119909 0.498612
v 0.239375 -0.119909 0.498612
v 0.239375 -0.117305 0.524105
v 0.21375 -0.117305 0.524105
v 0.217187 -0.105741 0.502003
v 0.235938 -0.105741 0.502003
v 0.235938 -0.103836 0.520656
v 0.217187 -0.103836 0.520656
v 0.1825 -0.119909 0.498612
v 0.208125 -0.119909 0.498612
v 0.208125 -0.117305 0.524105
v 0.1825 -0.117305 0.524105
v 0.185937 -0.105741 0.502003
v 0.204688 -0.105741 0.502003
v 0.204688 -0.103836 0.520656
v 0.185937 -0.103836 0.520656
v 0.799687 -0.123084 0.467524
v 0.84875 -0.123084 0.467524
v 0.84875 -0.12048 0.493016
v 0.799687 -0.12048 0.493016
v 0.803125 -0.108916 0.470915
v 0.845313 -0.108916 0.470915
v 0.845313 -0.107011 0.489567
v 0.803125 -0.107011 0.489567
v 0.768437 -0.123084 0.467524
v 0.794063 -0.123084 0.467524
v 0.794063 -0.12048 0.493016
v 0.768437 -0.12048 0.493016
v 0.771875 -0.108916 0.470915
v 0.790625 -0.108916 0.470915
v 0.790625 -0.107011 0.489567
v 0.771875 -0.107011 0.489567
v 0.737187 -0.123084 0.467524
v 0.762813 -0.123084 0.467524
v 0.762813 -0.12048 0.493016
v 0.737187 -0.12048 0.493016
v 0.740625 -0.108916 0.470915
v 0.759375 -0.108916 0.470915
v 0.759375 -0.107011 0.489567
v 0.740625 -0.107011 0.489567
v 0.705937 -0.123084 0.467524
v 0.731563 -0.123084 0.467524
v 0.731563 -0.12048 0.493016
v 0.705937 -0.12048 0.493016
v 0.709375 -0.108916 0.470915
v 0.728125 -0.108916 0.470915
v 0.728125 -0.107011 0.489567
v 0.709375 -0.107011 0.489567
v 0.674687 -0.123084 0.467524
v 0.700313 -0.123084 0.467524
v 0.700313 -0.12048 0.493016
v 0.674687 -0.12048 0.493016
v 0.678125 -0.108916 0.470915
v 0.696875 -0.108916 0.470915
v 0.696875 -0.107011 0.489567
v 0.678125 -0.107011 0.489567
v 0.643437 -0.123084 0.467524
v 0.669063 -0.123084 0.467524
v 0.669063 -0.12048 0.493016
v 0.643437 -0.12048 0.493016
v 0.646875 -0.108916 0.470915
v 0.665625 -0.108916 0.470915
v 0.665625 -0.107011 0.489567
v 0.646875 -0.107011 0.489567
v 0.612187 -0.123084 0.467524
v 0.637813 -0.123084 0.467524
v 0.637813 -0.12048 0.493016
v 0.612187 -0.12048 0.493016
v 0.615625 -0.108916 0.470915
v 0.634375 -0.108916 0.470915
v 0.634375 -0.107011 0.489567
v 0.615625 -0.107011 0.489567
v 0.580937 -0.123084 0.467524
v 0.606563 -0.123084 0.467524
v 0.606563 -0.12048 0.493016
v 0.580937 -0.12048 0.493016
v 0.584375 -0.108916 0.470915
v 0.603125 -0.108916 0.470915
v 0.603125 -0.107011 0.489567
v 0.584375 -0.107011 0.489567
v 0.549687 -0.123084 0.467524
v 0.575313 -0.123084 0.467524
v 0.575313 -0.12048 0.493016
v 0.549687 -0.12048 0.493016
v 0.553125 -0.108916 0.470915
v 0.571875 -0.108916 0.470915
v 0.571875 -0.107011 0.489567
v 0.553125 -0.107011 0.489567
v 0.518437 -0.123084 0.467524
v 0.544063 -0.123084 0.467524
v 0.544063 -0.12048 0.493016
v 0.518437 -0.12048 0.493016
v 0.521875 -0.108916 0.470915
v 0.540625 -0.108916 0.470915
v 0.540625 -0.107011 0.489567
v 0.521875 -0.107011 0.489567
v 0.487187 -0.123084 0.467524
v 0.512813 -0.123084 0.467524
v 0.512813 -0.12048 0.493016
v 0.487187 -0.12048 0.493016
v 0.490625 -0.108916 0.470915
v 0.509375 -0.108916 0.470915
v 0.509375 -0.107011 0.489567
v 0.490625 -0.107011 0.489567
v 0.455937 -0.123084 0.467524
v 0.481563 -0.123084 0.467524
v 0.481563 -0.12048 0.493016
v 0.455937 -0.12048 0.493016
v 0.459375 -0.108916 0.470915
v 0.478125 -0.108916 0.470915
v 0.478125 -0.107011 0.489567
v 0.459375 -0.107011 0.489567
v 0.385625 -0.123084 0.467524
v 0.450313 -0.123084 0.467524
v 0.450313 -0.12048 0.493016
v 0.385625 -0.12048 0.493016
v 0.389062 -0.108916 0.470915
v 0.446875 -0.108916 0.470915
v 0.446875 -0.107011 0.489567
v 0.389062 -0.107011 0.489567
v 0.245 -0.123084 0.467524
v 0.270625 -0.123084 0.467524
v 0.270625 -0.12048 0.493016
v 0.245 -0.12048 0.493016
v 0.248437 -0.108916 0.470915
v 0.267188 -0.108916 0.470915
v 0.267188 -0.107011 0.489567
v 0.248437 -0.107011 0.489567
v 0.21375 -0.123084 0.467524
v 0.239375 -0.123084 0.467524
v 0.239375 -0.12048 0.493016
v 0.21375 -0.12048 0.493016
v 0.217187 -0.108916 0.470915
v 0.235938 -0.108916 0.470915
v 0.235938 -0.107011 0.489567
v 0.217187 -0.107011 0.489567
v 0.1825 -0.123084 0.467524
v 0.208125 -0.123084 0.467524
v 0.208125 -0.12048 0.493016
v 0.1825 -0.12048 0.493016
v 0.185937 -0.108916 0.470915
v 0.204688 -0.108916 0.470915
v 0.204688 -0.107011 0.489567
v 0.185937 -0.107011 0.489567
v 0.784062 -0.126259 0.436436
v 0.84875 -0.126259 0.436436
v 0.84875 -0.123655 0.461928
v 0.784062 -0.123655 0.461928
v 0.7875 -0.112091 0.439826
v 0.845313 -0.112091 0.439826
v 0.845313 -0.110186 0.458479
v 0.7875 -0.110186 0.458479
v 0.752812 -0.126259 0.436436
v 0.778438 -0.126259 0.436436
v 0.778438 -0.123655 0.461928
v 0.752812 -0.123655 0.461928
v 0.75625 -0.112091 0.439826
v 0.775 -0.112091 0.439826
v 0.775 -0.110186 0.458479
v 0.75625 -0.110186 0.458479
v 0.721562 -0.126259 0.436436
v 0.747188 -0.126259 0.436436
v 0.747188 -0.123655 0.461928
v 0.721562 -0.123655 0.461928
v 0.725 -0.112091 0.439826
v 0.74375 -0.112091 0.439826
v 0.74375 -0.110186 0.458479
v 0.725 -0.110186 0.458479
v 0.690312 -0.126259 0.436436
v 0.715938 -0.126259 0.436436
v 0.715938 -0.123655 0.461928
v 0.690312 -0.123655 0.461928
v 0.69375 -0.112091 0.439826
v 0.7125 -0.112091 0.439826
v 0.7125 -0.110186 0.458479
v 0.69375 -0.110186 0.458479
v 0.659062 -0.126259 0.436436
v 0.684688 -0.126259 0.436436
v 0.684688 -0.123655 0.461928
v 0.659062 -0.123655 0.461928
v 0.6625 -0.112091 0.439826
v 0.68125 -0.112091 0.439826
v 0.68125 -0.110186 0.458479
v 0.6625 -0.110186 0.458479
v 0.627812 -0.126259 0.436436
v 0.653438 -0.126259 0.436436
v 0.653438 -0.123655 0.461928
v 0.627812 -0.123655 0.461928
v 0.63125 -0.112091 0.439826
v 0.65 -0.112091 0.439826
v 0.65 -0.110186 0.458479
v 0.63125 -0.110186 0.458479
v 0.596562 -0.126259 0.436436
v 0.622188 -0.126259 0.436436
v 0.622188 -0.123655 0.461928
v 0.596562 -0.123655 0.461928
v 0.6 -0.112091 0.439826
v 0.61875 -0.112091 0.439826
v 0.61875 -0.110186 0.458479
v 0.6 -0.110186 0.458479
v 0.565312 -0.126259 0.436436
v 0.590938 -0.126259 0.436436
v 0.590938 -0.123655 0.461928
v 0.565312 -0.123655 0.461928
v 0.56875 -0.112091 0.439826
v 0.5875 -0.112091 0.439826
v 0.5875 -0.110186 0.458479
v 0.56875 -0.110186 0.458479
v 0.534062 -0.126259 0.436436
v 0.559688 -0.126259 0.436436
v 0.559688 -0.123655 0.461928
v 0.534062 -0.123655 0.461928
v 0.5375 -0.112091 0.439826
v 0.55625 -0.112091 0.439826
v 0.55625 -0.110186 0.458479
v 0.5375 -0.110186 0.458479
v 0.502812 -0.126259 0.436436
v 0.528438 -0.126259 0.436436
v 0.528438 -0.123655 0.461928
v 0.502812 -0.123655 0.461928
v 0.50625 -0.112091 0.439826
v 0.525 -0.112091 0.439826
v 0.525 -0.110186 0.458479
v 0.50625 -0.110186 0.458479
v 0.471562 -0.126259 0.436436
v 0.497188 -0.126259 0.436436
v 0.497188 -0.123655 0.461928
v 0.471562 -0.123655 0.461928
v 0.475 -0.112091 0.439826
v 0.49375 -0.112091 0.439826
v 0.49375 -0.110186 0.458479
v 0.475 -0.110186 0.458479
v 0.385625 -0.126259 0.436436
v 0.465938 -0.126259 0.436436
v 0.465938 -0.123655 0.461928
v 0.385625 -0.123655 0.461928
v 0.389062 -0.112091 0.439826
v 0.4625 -0.112091 0.439826
v 0.4625 -0.110186 0.458479
v 0.389062 -0.110186 0.458479
v 0.315312 -0.126259 0.436436
v 0.340938 -0.126259 0.436436
v 0.340938 -0.123655 0.461928
v 0.315312 -0.123655 0.461928
v 0.31875 -0.112091 0.439826
v 0.3375 -0.112091 0.439826
v 0.3375 -0.110186 0.458479
v 0.31875 -0.110186 0.458479
v 0.245 -0.126259 0.436436
v 0.270625 -0.126259 0.436436
v 0.270625 -0.123655 0.461928
v 0.245 -0.123655 0.461928
v 0.248437 -0.112091 0.439826
v 0.267188 -0.112091 0.439826
v 0.267188 -0.110186 0.458479
v 0.248437 -0.110186 0.458479
v 0.21375 -0.126259 0.436436
v 0.239375 -0.126259 0.436436
v 0.239375 -0.123655 0.461928
v 0.21375 -0.123655 0.461928
v 0.217187 -0.112091 0.439826
v 0.235938 -0.112091 0.439826
v 0.235938 -0.110186 0.458479
v 0.217187 -0.110186 0.458479
v 0.1825 -0.126259 0.436436
v 0.208125 -0.126259 0.436436
v 0.208125 -0.123655 0.461928
v 0.1825 -0.123655 0.461928
v 0.185937 -0.112091 0.439826
v 0.204688 -0.112091 0.439826
v 0.204688 -0.110186 0.458479
v 0.185937 -0.110186 0.458479
v 0.815312 -0.129434 0.405347
v 0.84875 -0.129434 0.405347
v 0.84875 -0.12683 0.43084
v 0.815312 -0.12683 0.43084
v 0.81875 -0.115266 0.408738
v 0.845313 -0.115266 0.408738
v 0.845313 -0.113361 0.427391
v 0.81875 -0.113361 0.427391
v 0.77625 -0.129434 0.405347
v 0.809688 -0.129434 0.405347
v 0.809688 -0.12683 0.43084
v 0.77625 -0.12683 0.43084
v 0.779687 -0.115266 0.408738
v 0.80625 -0.115266 0.408738
v 0.80625 -0.113361 0.427391
v 0.779687 -0.113361 0.427391
v 0.737187 -0.129434 0.405347
v 0.770625 -0.129434 0.405347
v 0.770625 -0.12683 0.43084
v 0.737187 -0.12683 0.43084
v 0.740625 -0.115266 0.408738
v 0.767188 -0.115266 0.408738
v 0.767188 -0.113361 0.427391
v 0.740625 -0.113361 0.427391
v 0.541875 -0.129434 0.405347
v 0.731563 -0.129434 0.405347
v 0.731563 -0.12683 0.43084
v 0.541875 -0.12683 0.43084
v 0.545312 -0.115266 0.408738
v 0.728125 -0.115266 0.408738
v 0.728125 -0.113361 0.427391
v 0.545312 -0.113361 0.427391
v 0.502812 -0.129434 0.405347
v 0.53625 -0.129434 0.405347
v 0.53625 -0.12683 0.43084
v 0.502812 -0.12683 0.43084
v 0.50625 -0.115266 0.408738
v 0.532813 -0.115266 0.408738
v 0.532813 -0.113361 0.427391
v 0.50625 -0.113361 0.427391
v 0.46375 -0.129434 0.405347
v 0.497188 -0.129434 0.405347
v 0.497188 -0.12683 0.43084
v 0.46375 -0.12683 0.43084
v 0.467187 -0.115266 0.408738
v 0.49375 -0.115266 0.408738
v 0.49375 -0.113361 0.427391
v 0.467187 -0.113361 0.427391
v 0.424687 -0.129434 0.405347
v 0.458125 -0.129434 0.405347
v 0.458125 -0.12683 0.43084
v 0.424687 -0.12683 0.43084
v 0.428125 -0.115266 0.408738
v 0.454688 -0.115266 0.408738
v 0.454688 -0.113361 0.427391
v 0.428125 -0.113361 0.427391
v 0.385625 -0.129434 0.405347
v 0.419063 -0.129434 0.405347
v 0.419063 -0.12683 0.43084
v 0.385625 -0.12683 0.43084
v 0.389062 -0.115266 0.408738
v 0.415625 -0.115266 0.408738
v 0.415625 -0.113361 0.427391
v 0.389062 -0.113361 0.427391
v 0.346562 -0.129434 0.405347
v 0.372188 -0.129434 0.405347
v 0.372188 -0.12683 0.43084
v 0.346562 -0.12683 0.43084
v 0.35 -0.115266 0.408738
v 0.36875 -0.115266 0.408738
v 0.36875 -0.113361 0.427391
v 0.35 -0.113361 0.427391
v 0.315312 -0.129434 0.405347
v 0.340938 -0.129434 0.405347
v 0.340938 -0.12683 0.43084
v 0.315312 -0.12683 0.43084
v 0.31875 -0.115266 0.408738
v 0.3375 -0.115266 0.408738
v 0.3375 -0.113361 0.427391
v 0.31875 -0.113361 0.427391
v 0.284062 -0.129434 0.405347
v 0.309688 -0.129434 0.405347
v 0.309688 -0.12683 0.43084
v 0.284062 -0.12683 0.43084
v 0.2875 -0.115266 0.408738
v 0.30625 -0.115266 0.408738
v 0.30625 -0.113361 0.427391
v 0.2875 -0.113361 0.427391
v 0.21375 -0.129434 0.405347
v 0.270625 -0.129434 0.405347
v 0.270625 -0.12683 0.43084
v 0.21375 -0.12683 0.43084
v 0.217187 -0.115266 0.408738
v 0.267188 -0.115266 0.408738
v 0.267188 -0.113361 0.427391
v 0.217187 -0.113361 0.427391
v 0.1825 -0.129434 0.405347
v 0.208125 -0.129434 0.405347
v 0.208125 -0.12683 0.43084
v 0.1825 -0.12683 0.43084
v 0.185937 -0.115266 0.408738
v 0.204688 -0.115266 0.408738
v 0.204688 -0.113361 0.427391
v 0.185937 -0.113361 0.427391
v 0.15125 -0.123084 0.467524
v 0.176875 -0.123084 0.467524
v 0.176875 -0.117305 0.524105
v 0.15125 -0.117305 0.524105
v 0.154687 -0.108916 0.470915
v 0.173438 -0.108916 0.470915
v 0.173438 -0.103836 0.520656
v 0.154687 -0.103836 0.520656
v 0.15125 -0.129434 0.405347
v 0.176875 -0.129434 0.405347
v 0.176875 -0.123655 0.461928
v 0.15125 -0.123655 0.461928
v 0.154687 -0.115266 0.408738
v 0.173438 -0.115266 0.408738
v 0.173438 -0.110186 0.458479
v 0.154687 -0.110186 0.458479
vt 0.83584 0.433691
vt 0.83584 0.452148
vt 0.817383 0.452148
vt 0.817383 0.433691
vt 0.868521 0.157227
vt 0.850063 0.157227
vt 0.84668 0.142886
vt 0.871904 0.142886
vt 0.633221 0.234673
vt 0.651589 0.232853
vt 0.654985 0.246536
vt 0.629883 0.249023
vt 0.737661 0.114258
vt 0.719204 0.114258
vt 0.71582 0.100571
vt 0.741045 0.100571
vt 0.985573 0.368164
vt 0.967206 0.366344
vt 0.963867 0.351993
vt 0.988969 0.35448
vt 0.86123 0.433691
vt 0.86123 0.452148
vt 0.842773 0.452148
vt 0.842773 0.433691
vt 0.899771 0.157227
vt 0.881313 0.157227
vt 0.87793 0.142886
vt 0.903154 0.142886
vt 0.101971 0.304985
vt 0.120339 0.303165
vt 0.123735 0.316849
vt 0.098633 0.319336
vt 0.768911 0.114258
vt 0.750454 0.114258
vt 0.74707 0.100571
vt 0.772295 0.100571
vt 0.151589 0.319336
vt 0.133221 0.317516
vt 0.129883 0.303165
vt 0.154985 0.305652
vt 0.962793 0.433691
vt 0.962793 0.452148
vt 0.944336 0.452148
vt 0.944336 0.433691
vt 0.776724 0.202148
vt 0.758267 0.202148
vt 0.754883 0.187808
vt 0.780107 0.187808
vt 0.164471 0.304985
vt 0.182839 0.303165
vt 0.186235 0.316849
vt 0.161133 0.319336
vt 0.800161 0.114258
vt 0.781704 0.114258
vt 0.77832 0.100571
vt 0.803545 0.100571
vt 0.026589 0.342773
vt 0.008221 0.340954
vt 0.004883 0.326603
vt 0.029985 0.32909
vt 0.265527 0.349707
vt 0.265527 0.368164
vt 0.24707 0.368164
vt 0.24707 0.349707
vt 0.347036 0.114258
vt 0.328579 0.114258
vt 0.325195 0.099918
vt 0.35042 0.099918
vt 0.508221 0.328423
vt 0.526589 0.326603
vt 0.529985 0.340286
vt 0.504883 0.342773
vt 0.831411 0.114258
vt 0.812954 0.114258
vt 0.80957 0.100571
vt 0.834795 0.100571
vt 0.276589 0.295898
vt 0.258221 0.294079
vt 0.254883 0.279728
vt 0.279985 0.282215
vt 0.937402 0.433691
vt 0.937402 0.452148
vt 0.918945 0.452148
vt 0.918945 0.433691
vt 0.378286 0.114258
vt 0.359829 0.114258
vt 0.356445 0.099918
vt 0.38167 0.099918
vt 0.539471 0.328423
vt 0.557839 0.326603
vt 0.561235 0.340286
vt 0.536133 0.342773
vt 0.706411 0.114258
vt 0.687954 0.114258
vt 0.68457 0.100571
vt 0.709795 0.100571
vt 0.307839 0.295898
vt 0.289471 0.294079
vt 0.286133 0.279728
vt 0.311235 0.282215
vt 0.290918 0.349707
vt 0.290918 0.368164
vt 0.272461 0.368164
vt 0.272461 0.349707
vt 0.931021 0.157227
vt 0.912563 0.157227
vt 0.90918 0.142886
vt 0.934404 0.142886
vt 0.320721 0.328423
vt 0.339089 0.326603
vt 0.342485 0.340286
vt 0.317383 0.342773
vt 0.681021 0.092773
vt 0.662563 0.092773
vt 0.65918 0.079087
vt 0.684404 0.079087
vt 0.339089 0.295898
vt 0.320721 0.294079
vt 0.317383 0.279728
vt 0.342485 0.282215
vt 0.886621 0.433691
vt 0.886621 0.452148
vt 0.868164 0.452148
vt 0.868164 0.433691
vt 0.962271 0.157227
vt 0.943813 0.157227
vt 0.94043 0.142886
vt 0.965654 0.142886
vt 0.914471 0.328423
vt 0.932839 0.326603
vt 0.936235 0.340286
vt 0.911133 0.342773
vt 0.057974 0.092773
vt 0.039517 0.092773
vt 0.036133 0.079087
vt 0.061357 0.079087
vt 0.370339 0.295898
vt 0.351971 0.294079
vt 0.348633 0.279728
vt 0.373735 0.282215
vt 0.533105 0.375098
vt 0.533105 0.393555
vt 0.514648 0.393555
vt 0.514648 0.375098
vt 0.370474 0.135742
vt 0.352017 0.135742
vt 0.348633 0.121402
vt 0.373857 0.121402
vt 0.258221 0.328423
vt 0.276589 0.326603
vt 0.279985 0.340286
vt 0.254883 0.342773
vt 0.120474 0.092773
vt 0.102017 0.092773
vt 0.098633 0.079087
vt 0.123857 0.079087
vt 0.401589 0.295898
vt 0.383221 0.294079
vt 0.379883 0.279728
vt 0.404985 0.282215
vt 0.124902 0.349707
vt 0.124902 0.368164
vt 0.106445 0.368164
vt 0.106445 0.349707
vt 0.526724 0.135742
vt 0.508267 0.135742
vt 0.504883 0.121402
vt 0.530107 0.121402
vt 0.945721 0.328423
vt 0.964089 0.326603
vt 0.967485 0.340286
vt 0.942383 0.342773
vt 0.745474 0.071289
vt 0.727017 0.071289
vt 0.723633 0.057602
vt 0.748857 0.057602
vt 0.214089 0.319336
vt 0.195721 0.317516
vt 0.192383 0.303165
vt 0.217485 0.305652
vt 0.964746 0.375098
vt 0.964746 0.393555
vt 0.946289 0.393555
vt 0.946289 0.375098
vt 0.401724 0.135742
vt 0.383267 0.135742
vt 0.379883 0.121402
vt 0.405107 0.121402
vt 0.570721 0.328423
vt 0.589089 0.326603
vt 0.592485 0.340286
vt 0.567383 0.342773
vt 0.776724 0.071289
vt 0.758267 0.071289
vt 0.754883 0.057602
vt 0.780107 0.057602
vt 0.620339 0.342773
vt 0.601971 0.340954
vt 0.598633 0.326603
vt 0.623735 0.32909
vt 0.150293 0.349707
vt 0.150293 0.368164
vt 0.131836 0.368164
vt 0.131836 0.349707
vt 0.557974 0.135742
vt 0.539517 0.135742
vt 0.536133 0.121402
vt 0.561357 0.121402
vt 0.351971 0.328423
vt 0.370339 0.326603
vt 0.373735 0.340286
vt 0.348633 0.342773
vt 0.807974 0.071289
vt 0.789517 0.071289
vt 0.786133 0.057602
vt 0.811357 0.057602
vt 0.307839 0.342773
vt 0.289471 0.340954
vt 0.286133 0.326603
vt 0.311235 0.32909
vt 0.558496 0.375098
vt 0.558496 0.393555
vt 0.540039 0.393555
vt 0.540039 0.375098
vt 0.432974 0.135742
vt 0.414517 0.135742
vt 0.411133 0.121402
vt 0.436357 0.121402
vt 0.039471 0.328423
vt 0.057839 0.326603
vt 0.061235 0.340286
vt 0.036133 0.342773
vt 0.589224 0.071289
vt 0.570767 0.071289
vt 0.567383 0.057602
vt 0.592607 0.057602
vt 0.432839 0.295898
vt 0.414471 0.294079
vt 0.411133 0.279728
vt 0.436235 0.282215
vt 0.912012 0.433691
vt 0.912012 0.452148
vt 0.893555 0.452148
vt 0.893555 0.433691
vt 0.026724 0.135742
vt 0.008267 0.135742
vt 0.004883 0.121402
vt 0.030107 0.121402
vt 0.070721 0.328423
vt 0.089089 0.326603
vt 0.092485 0.340286
vt 0.067383 0.342773
vt 0.089224 0.092773
vt 0.070767 0.092773
vt 0.067383 0.079087
vt 0.092607 0.079087
vt 0.026589 0.319336
vt 0.008221 0.317516
vt 0.004883 0.303165
vt 0.029985 0.305652
vt 0.316309 0.349707
vt 0.316309 0.368164
vt 0.297852 0.368164
vt 0.297852 0.349707
vt 0.409536 0.114258
vt 0.391079 0.114258
vt 0.387695 0.099918
vt 0.41292 0.099918
vt 0.935956 0.353813
vt 0.954323 0.351993
vt 0.957719 0.365677
vt 0.932617 0.368164
vt 0.712271 0.092773
vt 0.693813 0.092773
vt 0.69043 0.079087
vt 0.715654 0.079087
vt 0.401589 0.342773
vt 0.383221 0.340954
vt 0.379883 0.326603
vt 0.404985 0.32909
vt 0.341699 0.349707
vt 0.341699 0.368164
vt 0.323242 0.368164
vt 0.323242 0.349707
vt 0.440786 0.114258
vt 0.422329 0.114258
vt 0.418945 0.099918
vt 0.44417 0.099918
vt 0.101971 0.328423
vt 0.120339 0.326603
vt 0.123735 0.340286
vt 0.098633 0.342773
vt 0.862661 0.114258
vt 0.844204 0.114258
vt 0.84082 0.100571
vt 0.866045 0.100571
vt 0.651589 0.342773
vt 0.633221 0.340954
vt 0.629883 0.326603
vt 0.654985 0.32909
vt 0.36709 0.349707
vt 0.36709 0.368164
vt 0.348633 0.368164
vt 0.348633 0.349707
vt 0.472036 0.114258
vt 0.453579 0.114258
vt 0.450195 0.099918
vt 0.47542 0.099918
vt 0.226971 0.304985
vt 0.245339 0.303165
vt 0.248735 0.316849
vt 0.223633 0.319336
vt 0.893911 0.114258
vt 0.875454 0.114258
vt 0.87207 0.100571
vt 0.897295 0.100571
vt 0.682839 0.342773
vt 0.664471 0.340954
vt 0.661133 0.326603
vt 0.686235 0.32909
vt 0.279199 0.393555
vt 0.260742 0.393555
vt 0.260742 0.375098
vt 0.279199 0.375098
vt 0.807974 0.202148
vt 0.789517 0.202148
vt 0.786133 0.187808
vt 0.811357 0.187808
vt 0.726971 0.25811
vt 0.745339 0.25629
vt 0.748735 0.269974
vt 0.723633 0.272461
vt 0.878286 0.049805
vt 0.859829 0.049805
vt 0.856445 0.036118
vt 0.88167 0.036118
vt 0.651589 0.225586
vt 0.633221 0.223766
vt 0.629883 0.209415
vt 0.654985 0.211902
vt 0.30459 0.393555
vt 0.286133 0.393555
vt 0.286133 0.375098
vt 0.30459 0.375098
vt 0.839224 0.202148
vt 0.820767 0.202148
vt 0.817383 0.187808
vt 0.842607 0.187808
vt 0.945721 0.211235
vt 0.964089 0.209415
vt 0.967485 0.223099
vt 0.942383 0.225586
vt 0.909536 0.049805
vt 0.891079 0.049805
vt 0.887695 0.036118
vt 0.91292 0.036118
vt 0.245339 0.272461
vt 0.226971 0.270641
vt 0.223633 0.25629
vt 0.248735 0.258777
vt 0.32998 0.393555
vt 0.311523 0.393555
vt 0.311523 0.375098
vt 0.32998 0.375098
vt 0.870474 0.202148
vt 0.852017 0.202148
vt 0.848633 0.187808
vt 0.873857 0.187808
vt 0.226971 0.187798
vt 0.245339 0.185978
vt 0.248735 0.199661
vt 0.223633 0.202148
vt 0.940786 0.049805
vt 0.922329 0.049805
vt 0.918945 0.036118
vt 0.94417 0.036118
vt 0.464089 0.202148
vt 0.445721 0.200329
vt 0.442383 0.185978
vt 0.467485 0.188465
vt 0.583887 0.393555
vt 0.56543 0.393555
vt 0.56543 0.375098
vt 0.583887 0.375098
vt 0.057974 0.135742
vt 0.039517 0.135742
vt 0.036133 0.121402
vt 0.061357 0.121402
vt 0.851971 0.234673
vt 0.870339 0.232853
vt 0.873735 0.246536
vt 0.848633 0.249023
vt 0.690786 0.049805
vt 0.672329 0.049805
vt 0.668945 0.036118
vt 0.69417 0.036118
vt 0.682839 0.225586
vt 0.664471 0.223766
vt 0.661133 0.209415
vt 0.686235 0.211902
vt 0.671777 0.349707
vt 0.671777 0.368164
vt 0.65332 0.368164
vt 0.65332 0.349707
vt 0.901724 0.202148
vt 0.883267 0.202148
vt 0.879883 0.187808
vt 0.905107 0.187808
vt 0.258221 0.25811
vt 0.276589 0.25629
vt 0.279985 0.269974
vt 0.254883 0.272461
vt 0.722036 0.049805
vt 0.703579 0.049805
vt 0.700195 0.036118
vt 0.72542 0.036118
vt 0.870339 0.225586
vt 0.851971 0.223766
vt 0.848633 0.209415
vt 0.873735 0.211902
vt 0.697168 0.349707
vt 0.697168 0.368164
vt 0.678711 0.368164
vt 0.678711 0.349707
vt 0.682974 0.202148
vt 0.664517 0.202148
vt 0.661133 0.187808
vt 0.686357 0.187808
vt 0.883221 0.234673
vt 0.901589 0.232853
vt 0.904985 0.246536
vt 0.879883 0.249023
vt 0.847036 0.049805
vt 0.828579 0.049805
vt 0.825195 0.036118
vt 0.85042 0.036118
vt 0.714089 0.225586
vt 0.695721 0.223766
vt 0.692383 0.209415
vt 0.717485 0.211902
vt 0.722559 0.349707
vt 0.722559 0.368164
vt 0.704102 0.368164
vt 0.704102 0.349707
vt 0.932974 0.202148
vt 0.914517 0.202148
vt 0.911133 0.187808
vt 0.936357 0.187808
vt 0.320721 0.211235
vt 0.339089 0.209415
vt 0.342485 0.223099
vt 0.317383 0.225586
vt 0.972036 0.049805
vt 0.953579 0.049805
vt 0.950195 0.036118
vt 0.97542 0.036118
vt 0.745339 0.225586
vt 0.726971 0.223766
vt 0.723633 0.209415
vt 0.748735 0.211902
vt 0.837793 0.375098
vt 0.837793 0.393555
vt 0.819336 0.393555
vt 0.819336 0.375098
vt 0.964224 0.202148
vt 0.945767 0.202148
vt 0.942383 0.187808
vt 0.967607 0.187808
vt 0.758221 0.25811
vt 0.776589 0.25629
vt 0.779985 0.269974
vt 0.754883 0.272461
vt 0.026724 0.02832
vt 0.008267 0.02832
vt 0.004883 0.014634
vt 0.030107 0.014634
vt 0.026589 0.202148
vt 0.008221 0.200329
vt 0.004883 0.185978
vt 0.029985 0.188465
vt 0.609277 0.393555
vt 0.59082 0.393555
vt 0.59082 0.375098
vt 0.609277 0.375098
vt 0.089224 0.135742
vt 0.070767 0.135742
vt 0.067383 0.121402
vt 0.092607 0.121402
vt 0.914471 0.234673
vt 0.932839 0.232853
vt 0.936235 0.246536
vt 0.911133 0.249023
vt 0.057974 0.02832
vt 0.039517 0.02832
vt 0.036133 0.014634
vt 0.061357 0.014634
vt 0.682839 0.272461
vt 0.664471 0.270641
vt 0.661133 0.25629
vt 0.686235 0.258777
vt 0.863184 0.375098
vt 0.863184 0.393555
vt 0.844727 0.393555
vt 0.844727 0.375098
vt 0.651724 0.178711
vt 0.633267 0.178711
vt 0.629883 0.164371
vt 0.655107 0.164371
vt 0.289471 0.25811
vt 0.307839 0.25629
vt 0.311235 0.269974
vt 0.286133 0.272461
vt 0.784536 0.049805
vt 0.766079 0.049805
vt 0.762695 0.036118
vt 0.78792 0.036118
vt 0.276589 0.202148
vt 0.258221 0.200329
vt 0.254883 0.185978
vt 0.279985 0.188465
vt 0.074121 0.349707
vt 0.074121 0.368164
vt 0.055664 0.368164
vt 0.055664 0.349707
vt 0.776724 0.178711
vt 0.758267 0.178711
vt 0.754883 0.164371
vt 0.780107 0.164371
vt 0.258221 0.211235
vt 0.276589 0.209415
vt 0.279985 0.223099
vt 0.254883 0.225586
vt 0.815786 0.049805
vt 0.797329 0.049805
vt 0.793945 0.036118
vt 0.81917 0.036118
vt 0.307839 0.225586
vt 0.289471 0.223766
vt 0.286133 0.209415
vt 0.311235 0.211902
vt 0.888574 0.375098
vt 0.888574 0.393555
vt 0.870117 0.393555
vt 0.870117 0.375098
vt 0.682974 0.178711
vt 0.664517 0.178711
vt 0.661133 0.164371
vt 0.686357 0.164371
vt 0.945721 0.234673
vt 0.964089 0.232853
vt 0.967485 0.246536
vt 0.942383 0.249023
vt 0.276724 0.02832
vt 0.258267 0.02832
vt 0.254883 0.014634
vt 0.280107 0.014634
vt 0.776589 0.225586
vt 0.758221 0.223766
vt 0.754883 0.209415
vt 0.779985 0.211902
vt 0.099512 0.349707
vt 0.099512 0.368164
vt 0.081055 0.368164
vt 0.081055 0.349707
vt 0.807974 0.178711
vt 0.789517 0.178711
vt 0.786133 0.164371
vt 0.811357 0.164371
vt 0.008221 0.211235
vt 0.026589 0.209415
vt 0.029985 0.223099
vt 0.004883 0.225586
vt 0.307974 0.02832
vt 0.289517 0.02832
vt 0.286133 0.014634
vt 0.311357 0.014634
vt 0.057839 0.225586
vt 0.039471 0.223766
vt 0.036133 0.209415
vt 0.061235 0.211902
vt 0.054102 0.393555
vt 0.004883 0.393555
vt 0.004883 0.375098
vt 0.054102 0.375098
vt 0.557485 0.202148
vt 0.508267 0.202148
vt 0.504883 0.187808
vt 0.560869 0.187808
vt 0.289471 0.187798
vt 0.307839 0.185978
vt 0.311235 0.199661
vt 0.286133 0.202148
vt 0.659048 0.049805
vt 0.609829 0.049805
vt 0.606445 0.036118
vt 0.662432 0.036118
vt 0.307839 0.249023
vt 0.289471 0.247204
vt 0.286133 0.232853
vt 0.311235 0.23534
vt 0.747949 0.349707
vt 0.747949 0.368164
vt 0.729492 0.368164
vt 0.729492 0.349707
vt 0.026724 0.178711
vt 0.008267 0.178711
vt 0.004883 0.164371
vt 0.030107 0.164371
vt 0.789471 0.25811
vt 0.807839 0.25629
vt 0.811235 0.269974
vt 0.786133 0.272461
vt 0.089224 0.02832
vt 0.070767 0.02832
vt 0.067383 0.014634
vt 0.092607 0.014634
vt 0.089089 0.225586
vt 0.070721 0.223766
vt 0.067383 0.209415
vt 0.092485 0.211902
vt 0.77334 0.349707
vt 0.77334 0.368164
vt 0.754883 0.368164
vt 0.754883 0.349707
vt 0.057974 0.178711
vt 0.039517 0.178711
vt 0.036133 0.164371
vt 0.061357 0.164371
vt 0.883221 0.211235
vt 0.901589 0.209415
vt 0.904985 0.223099
vt 0.879883 0.225586
vt 0.120474 0.02832
vt 0.102017 0.02832
vt 0.098633 0.014634
vt 0.123857 0.014634
vt 0.120339 0.225586
vt 0.101971 0.223766
vt 0.098633 0.209415
vt 0.123735 0.211902
vt 0.79873 0.349707
vt 0.79873 0.368164
vt 0.780273 0.368164
vt 0.780273 0.349707
vt 0.089224 0.178711
vt 0.070767 0.178711
vt 0.067383 0.164371
vt 0.092607 0.164371
vt 0.320721 0.25811
vt 0.339089 0.25629
vt 0.342485 0.269974
vt 0.317383 0.272461
vt 0.151724 0.02832
vt 0.133267 0.02832
vt 0.129883 0.014634
vt 0.155107 0.014634
vt 0.370339 0.272461
vt 0.351971 0.270641
vt 0.348633 0.25629
vt 0.373735 0.258777
vt 0.634668 0.393555
vt 0.616211 0.393555
vt 0.616211 0.375098
vt 0.634668 0.375098
vt 0.120474 0.135742
vt 0.102017 0.135742
vt 0.098633 0.121402
vt 0.123857 0.121402
vt 0.383221 0.25811
vt 0.401589 0.25629
vt 0.404985 0.269974
vt 0.379883 0.272461
vt 0.753286 0.049805
vt 0.734829 0.049805
vt 0.731445 0.036118
vt 0.75667 0.036118
vt 0.151589 0.225586
vt 0.133221 0.223766
vt 0.129883 0.209415
vt 0.154985 0.211902
vt 0.355371 0.393555
vt 0.336914 0.393555
vt 0.336914 0.375098
vt 0.355371 0.375098
vt 0.120474 0.178711
vt 0.102017 0.178711
vt 0.098633 0.164371
vt 0.123857 0.164371
vt 0.383221 0.187798
vt 0.401589 0.185978
vt 0.404985 0.199661
vt 0.379883 0.202148
vt 0.182974 0.02832
vt 0.164517 0.02832
vt 0.161133 0.014634
vt 0.186357 0.014634
vt 0.839089 0.272461
vt 0.820721 0.270641
vt 0.817383 0.25629
vt 0.842485 0.258777
vt 0.380762 0.393555
vt 0.362305 0.393555
vt 0.362305 0.375098
vt 0.380762 0.375098
vt 0.151724 0.178711
vt 0.133267 0.178711
vt 0.129883 0.164371
vt 0.155107 0.164371
vt 0.789471 0.211235
vt 0.807839 0.209415
vt 0.811235 0.223099
vt 0.786133 0.225586
vt 0.214224 0.02832
vt 0.195767 0.02832
vt 0.192383 0.014634
vt 0.217607 0.014634
vt 0.620339 0.225586
vt 0.601971 0.223766
vt 0.598633 0.209415
vt 0.623735 0.211902
vt 0.406152 0.393555
vt 0.387695 0.393555
vt 0.387695 0.375098
vt 0.406152 0.375098
vt 0.182974 0.178711
vt 0.164517 0.178711
vt 0.161133 0.164371
vt 0.186357 0.164371
vt 0.414471 0.187798
vt 0.432839 0.185978
vt 0.436235 0.199661
vt 0.411133 0.202148
vt 0.245474 0.02832
vt 0.227017 0.02832
vt 0.223633 0.014634
vt 0.248857 0.014634
vt 0.339089 0.202148
vt 0.320721 0.200329
vt 0.317383 0.185978
vt 0.342485 0.188465
vt 0.398096 0.418945
vt 0.364258 0.418945
vt 0.364258 0.400488
vt 0.398096 0.400488
vt 0.651479 0.202148
vt 0.617642 0.202148
vt 0.614258 0.187808
vt 0.654863 0.187808
vt 0.476971 0.234673
vt 0.495339 0.232853
vt 0.498735 0.246536
vt 0.473633 0.249023
vt 0.571401 0.092773
vt 0.537563 0.092773
vt 0.53418 0.079087
vt 0.574785 0.079087
vt 0.276589 0.319336
vt 0.258221 0.317516
vt 0.254883 0.303165
vt 0.279985 0.305652
vt 0.087793 0.418945
vt 0.069336 0.418945
vt 0.069336 0.400488
vt 0.087793 0.400488
vt 0.214224 0.178711
vt 0.195767 0.178711
vt 0.192383 0.164371
vt 0.217607 0.164371
vt 0.289471 0.304985
vt 0.307839 0.303165
vt 0.311235 0.316849
vt 0.286133 0.319336
vt 0.743521 0.092773
vt 0.725063 0.092773
vt 0.72168 0.079087
vt 0.746904 0.079087
vt 0.526589 0.225586
vt 0.508221 0.223766
vt 0.504883 0.209415
vt 0.529985 0.211902
vt 0.566309 0.418945
vt 0.547852 0.418945
vt 0.547852 0.400488
vt 0.566309 0.400488
vt 0.245474 0.178711
vt 0.227017 0.178711
vt 0.223633 0.164371
vt 0.248857 0.164371
vt 0.508221 0.234673
vt 0.526589 0.232853
vt 0.529985 0.246536
vt 0.504883 0.249023
vt 0.774771 0.092773
vt 0.756313 0.092773
vt 0.75293 0.079087
vt 0.778154 0.079087
vt 0.589089 0.319336
vt 0.570721 0.317516
vt 0.567383 0.303165
vt 0.592485 0.305652
vt 0.39248 0.349707
vt 0.39248 0.368164
vt 0.374023 0.368164
vt 0.374023 0.349707
vt 0.276724 0.178711
vt 0.258267 0.178711
vt 0.254883 0.164371
vt 0.280107 0.164371
vt 0.601971 0.304985
vt 0.620339 0.303165
vt 0.623735 0.316849
vt 0.598633 0.319336
vt 0.806021 0.092773
vt 0.787563 0.092773
vt 0.78418 0.079087
vt 0.809404 0.079087
vt 0.651589 0.319336
vt 0.633221 0.317516
vt 0.629883 0.303165
vt 0.654985 0.305652
vt 0.163965 0.418945
vt 0.145508 0.418945
vt 0.145508 0.400488
vt 0.163965 0.400488
vt 0.714224 0.202148
vt 0.695767 0.202148
vt 0.692383 0.187808
vt 0.717607 0.187808
vt 0.070721 0.281548
vt 0.089089 0.279728
vt 0.092485 0.293411
vt 0.067383 0.295898
vt 0.837271 0.092773
vt 0.818813 0.092773
vt 0.81543 0.079087
vt 0.840654 0.079087
vt 0.682839 0.319336
vt 0.664471 0.317516
vt 0.661133 0.303165
vt 0.686235 0.305652
vt 0.417871 0.349707
vt 0.417871 0.368164
vt 0.399414 0.368164
vt 0.399414 0.349707
vt 0.307974 0.178711
vt 0.289517 0.178711
vt 0.286133 0.164371
vt 0.311357 0.164371
vt 0.414471 0.328423
vt 0.432839 0.326603
vt 0.436235 0.340286
vt 0.411133 0.342773
vt 0.868521 0.092773
vt 0.850063 0.092773
vt 0.84668 0.079087
vt 0.871904 0.079087
vt 0.589089 0.225586
vt 0.570721 0.223766
vt 0.567383 0.209415
vt 0.592485 0.211902
vt 0.71084 0.375098
vt 0.71084 0.393555
vt 0.692383 0.393555
vt 0.692383 0.375098
vt 0.339224 0.178711
vt 0.320767 0.178711
vt 0.317383 0.164371
vt 0.342607 0.164371
vt 0.695721 0.304985
vt 0.714089 0.303165
vt 0.717485 0.316849
vt 0.692383 0.319336
vt 0.925161 0.114258
vt 0.906704 0.114258
vt 0.90332 0.100571
vt 0.928545 0.100571
vt 0.745339 0.319336
vt 0.726971 0.317516
vt 0.723633 0.303165
vt 0.748735 0.305652
vt 0.591699 0.418945
vt 0.573242 0.418945
vt 0.573242 0.400488
vt 0.591699 0.400488
vt 0.745474 0.202148
vt 0.727017 0.202148
vt 0.723633 0.187808
vt 0.748857 0.187808
vt 0.133221 0.234673
vt 0.151589 0.232853
vt 0.154985 0.246536
vt 0.129883 0.249023
vt 0.956411 0.114258
vt 0.937954 0.114258
vt 0.93457 0.100571
vt 0.959795 0.100571
vt 0.776589 0.319336
vt 0.758221 0.317516
vt 0.754883 0.303165
vt 0.779985 0.305652
vt 0.73623 0.375098
vt 0.73623 0.393555
vt 0.717773 0.393555
vt 0.717773 0.375098
vt 0.714224 0.178711
vt 0.695767 0.178711
vt 0.692383 0.164371
vt 0.717607 0.164371
vt 0.539471 0.234673
vt 0.557839 0.232853
vt 0.561235 0.246536
vt 0.536133 0.249023
vt 0.839224 0.071289
vt 0.820767 0.071289
vt 0.817383 0.057602
vt 0.842607 0.057602
vt 0.807839 0.319336
vt 0.789471 0.317516
vt 0.786133 0.303165
vt 0.811235 0.305652
vt 0.761621 0.375098
vt 0.761621 0.393555
vt 0.743164 0.393555
vt 0.743164 0.375098
vt 0.589224 0.178711
vt 0.570767 0.178711
vt 0.567383 0.164371
vt 0.592607 0.164371
vt 0.320721 0.304985
vt 0.339089 0.303165
vt 0.342485 0.316849
vt 0.317383 0.319336
vt 0.682974 0.071289
vt 0.664517 0.071289
vt 0.661133 0.057602
vt 0.686357 0.057602
vt 0.370339 0.319336
vt 0.351971 0.317516
vt 0.348633 0.303165
vt 0.373735 0.305652
vt 0.769434 0.400488
vt 0.769434 0.418945
vt 0.750977 0.418945
vt 0.750977 0.400488
vt 0.620474 0.178711
vt 0.602017 0.178711
vt 0.598633 0.164371
vt 0.623857 0.164371
vt 0.883221 0.328423
vt 0.901589 0.326603
vt 0.904985 0.340286
vt 0.879883 0.342773
vt 0.557974 0.071289
vt 0.539517 0.071289
vt 0.536133 0.057602
vt 0.561357 0.057602
vt 0.401589 0.319336
vt 0.383221 0.317516
vt 0.379883 0.303165
vt 0.404985 0.305652
vt 0.990137 0.375098
vt 0.990137 0.393555
vt 0.97168 0.393555
vt 0.97168 0.375098
vt 0.745474 0.178711
vt 0.727017 0.178711
vt 0.723633 0.164371
vt 0.748857 0.164371
vt 0.445721 0.328423
vt 0.464089 0.326603
vt 0.467485 0.340286
vt 0.442383 0.342773
vt 0.714224 0.071289
vt 0.695767 0.071289
vt 0.692383 0.057602
vt 0.717607 0.057602
vt 0.432839 0.319336
vt 0.414471 0.317516
vt 0.411133 0.303165
vt 0.436235 0.305652
vt 0.744043 0.400488
vt 0.744043 0.418945
vt 0.725586 0.418945
vt 0.725586 0.400488
vt 0.370474 0.178711
vt 0.352017 0.178711
vt 0.348633 0.164371
vt 0.373857 0.164371
vt 0.445721 0.304985
vt 0.464089 0.303165
vt 0.467485 0.316849
vt 0.442383 0.319336
vt 0.870474 0.071289
vt 0.852017 0.071289
vt 0.848633 0.057602
vt 0.873857 0.057602
vt 0.495339 0.319336
vt 0.476971 0.317516
vt 0.473633 0.303165
vt 0.498735 0.305652
vt 0.439111 0.418945
vt 0.405273 0.418945
vt 0.405273 0.400488
vt 0.439111 0.400488
vt 0.604604 0.202148
vt 0.570767 0.202148
vt 0.567383 0.187808
vt 0.607988 0.187808
vt 0.570721 0.234673
vt 0.589089 0.232853
vt 0.592485 0.246536
vt 0.567383 0.249023
vt 0.518667 0.114258
vt 0.484829 0.114258
vt 0.481445 0.100571
vt 0.522051 0.100571
vt 0.839089 0.319336
vt 0.820721 0.317516
vt 0.817383 0.303165
vt 0.842485 0.305652
vt 0.443262 0.349707
vt 0.443262 0.368164
vt 0.424805 0.368164
vt 0.424805 0.349707
vt 0.401724 0.178711
vt 0.383267 0.178711
vt 0.379883 0.164371
vt 0.405107 0.164371
vt 0.508221 0.304985
vt 0.526589 0.303165
vt 0.529985 0.316849
vt 0.504883 0.319336
vt 0.987661 0.114258
vt 0.969204 0.114258
vt 0.96582 0.100571
vt 0.991045 0.100571
vt 0.495339 0.342773
vt 0.476971 0.340954
vt 0.473633 0.326603
vt 0.498735 0.32909
vt 0.468652 0.349707
vt 0.468652 0.368164
vt 0.450195 0.368164
vt 0.450195 0.349707
vt 0.432974 0.178711
vt 0.414517 0.178711
vt 0.411133 0.164371
vt 0.436357 0.164371
vt 0.851971 0.304985
vt 0.870339 0.303165
vt 0.873735 0.316849
vt 0.848633 0.319336
vt 0.899771 0.092773
vt 0.881313 0.092773
vt 0.87793 0.079087
vt 0.903154 0.079087
vt 0.557839 0.319336
vt 0.539471 0.317516
vt 0.536133 0.303165
vt 0.561235 0.305652
vt 0.494043 0.349707
vt 0.494043 0.368164
vt 0.475586 0.368164
vt 0.475586 0.349707
vt 0.464224 0.178711
vt 0.445767 0.178711
vt 0.442383 0.164371
vt 0.467607 0.164371
vt 0.883221 0.304985
vt 0.901589 0.303165
vt 0.904985 0.316849
vt 0.879883 0.319336
vt 0.931021 0.092773
vt 0.912563 0.092773
vt 0.90918 0.079087
vt 0.934404 0.079087
vt 0.932839 0.319336
vt 0.914471 0.317516
vt 0.911133 0.303165
vt 0.936235 0.305652
vt 0.61709 0.418945
vt 0.598633 0.418945
vt 0.598633 0.400488
vt 0.61709 0.400488
vt 0.495474 0.178711
vt 0.477017 0.178711
vt 0.473633 0.164371
vt 0.498857 0.164371
vt 0.945721 0.304985
vt 0.964089 0.303165
vt 0.967485 0.316849
vt 0.942383 0.319336
vt 0.962271 0.092773
vt 0.943813 0.092773
vt 0.94043 0.079087
vt 0.965654 0.079087
vt 0.026589 0.295898
vt 0.008221 0.294079
vt 0.004883 0.279728
vt 0.029985 0.282215
vt 0.113184 0.418945
vt 0.094727 0.418945
vt 0.094727 0.400488
vt 0.113184 0.400488
vt 0.526724 0.178711
vt 0.508267 0.178711
vt 0.504883 0.164371
vt 0.530107 0.164371
vt 0.039471 0.281548
vt 0.057839 0.279728
vt 0.061235 0.293411
vt 0.036133 0.295898
vt 0.026724 0.071289
vt 0.008267 0.071289
vt 0.004883 0.057602
vt 0.030107 0.057602
vt 0.464089 0.249023
vt 0.445721 0.247204
vt 0.442383 0.232853
vt 0.467485 0.23534
vt 0.138574 0.418945
vt 0.120117 0.418945
vt 0.120117 0.400488
vt 0.138574 0.400488
vt 0.557974 0.178711
vt 0.539517 0.178711
vt 0.536133 0.164371
vt 0.561357 0.164371
vt 0.539471 0.211235
vt 0.557839 0.209415
vt 0.561235 0.223099
vt 0.536133 0.225586
vt 0.057974 0.071289
vt 0.039517 0.071289
vt 0.036133 0.057602
vt 0.061357 0.057602
vt 0.214089 0.202148
vt 0.195721 0.200329
vt 0.192383 0.185978
vt 0.217485 0.188465
vt 0.356958 0.418945
vt 0.31543 0.418945
vt 0.31543 0.400488
vt 0.356958 0.400488
vt 0.893545 0.135742
vt 0.852017 0.135742
vt 0.848633 0.121402
vt 0.896929 0.121402
vt 0.664471 0.234673
vt 0.682839 0.232853
vt 0.686235 0.246536
vt 0.661133 0.249023
vt 0.524404 0.092773
vt 0.482876 0.092773
vt 0.479492 0.079087
vt 0.527788 0.079087
vt 0.964089 0.295898
vt 0.945721 0.294079
vt 0.942383 0.279728
vt 0.967485 0.282215
vt 0.464746 0.418945
vt 0.446289 0.418945
vt 0.446289 0.400488
vt 0.464746 0.400488
vt 0.151724 0.135742
vt 0.133267 0.135742
vt 0.129883 0.121402
vt 0.155107 0.121402
vt 0.695721 0.328423
vt 0.714089 0.326603
vt 0.717485 0.340286
vt 0.692383 0.342773
vt 0.159536 0.049805
vt 0.141079 0.049805
vt 0.137695 0.036118
vt 0.16292 0.036118
vt 0.120339 0.295898
vt 0.101971 0.294079
vt 0.098633 0.279728
vt 0.123735 0.282215
vt 0.64248 0.418945
vt 0.624023 0.418945
vt 0.624023 0.400488
vt 0.64248 0.400488
vt 0.589224 0.135742
vt 0.570767 0.135742
vt 0.567383 0.121402
vt 0.592607 0.121402
vt 0.445721 0.281548
vt 0.464089 0.279728
vt 0.467485 0.293411
vt 0.442383 0.295898
vt 0.190786 0.049805
vt 0.172329 0.049805
vt 0.168945 0.036118
vt 0.19417 0.036118
vt 0.495339 0.295898
vt 0.476971 0.294079
vt 0.473633 0.279728
vt 0.498735 0.282215
vt 0.519434 0.349707
vt 0.519434 0.368164
vt 0.500977 0.368164
vt 0.500977 0.349707
vt 0.182974 0.135742
vt 0.164517 0.135742
vt 0.161133 0.121402
vt 0.186357 0.121402
vt 0.726971 0.328423
vt 0.745339 0.326603
vt 0.748735 0.340286
vt 0.723633 0.342773
vt 0.222036 0.049805
vt 0.203579 0.049805
vt 0.200195 0.036118
vt 0.22542 0.036118
vt 0.151589 0.295898
vt 0.133221 0.294079
vt 0.129883 0.279728
vt 0.154985 0.282215
vt 0.667871 0.418945
vt 0.649414 0.418945
vt 0.649414 0.400488
vt 0.667871 0.400488
vt 0.214224 0.135742
vt 0.195767 0.135742
vt 0.192383 0.121402
vt 0.217607 0.121402
vt 0.508221 0.281548
vt 0.526589 0.279728
vt 0.529985 0.293411
vt 0.504883 0.295898
vt 0.128286 0.049805
vt 0.109829 0.049805
vt 0.106445 0.036118
vt 0.13167 0.036118
vt 0.182839 0.295898
vt 0.164471 0.294079
vt 0.161133 0.279728
vt 0.186235 0.282215
vt 0.544824 0.349707
vt 0.544824 0.368164
vt 0.526367 0.368164
vt 0.526367 0.349707
vt 0.245474 0.135742
vt 0.227017 0.135742
vt 0.223633 0.121402
vt 0.248857 0.121402
vt 0.539471 0.281548
vt 0.557839 0.279728
vt 0.561235 0.293411
vt 0.536133 0.295898
vt 0.253286 0.049805
vt 0.234829 0.049805
vt 0.231445 0.036118
vt 0.25667 0.036118
vt 0.182839 0.342773
vt 0.164471 0.340954
vt 0.161133 0.326603
vt 0.186235 0.32909
vt 0.787012 0.375098
vt 0.787012 0.393555
vt 0.768555 0.393555
vt 0.768555 0.375098
vt 0.956411 0.135742
vt 0.937954 0.135742
vt 0.93457 0.121402
vt 0.959795 0.121402
vt 0.570721 0.281548
vt 0.589089 0.279728
vt 0.592485 0.293411
vt 0.567383 0.295898
vt 0.284536 0.049805
vt 0.266079 0.049805
vt 0.262695 0.036118
vt 0.28792 0.036118
vt 0.620339 0.295898
vt 0.601971 0.294079
vt 0.598633 0.279728
vt 0.623735 0.282215
vt 0.540918 0.418945
vt 0.522461 0.418945
vt 0.522461 0.400488
vt 0.540918 0.400488
vt 0.925161 0.135742
vt 0.906704 0.135742
vt 0.90332 0.121402
vt 0.928545 0.121402
vt 0.164471 0.234673
vt 0.182839 0.232853
vt 0.186235 0.246536
vt 0.161133 0.249023
vt 0.315786 0.049805
vt 0.297329 0.049805
vt 0.293945 0.036118
vt 0.31917 0.036118
vt 0.214089 0.295898
vt 0.195721 0.294079
vt 0.192383 0.279728
vt 0.217485 0.282215
vt 0.812402 0.375098
vt 0.812402 0.393555
vt 0.793945 0.393555
vt 0.793945 0.375098
vt 0.464224 0.135742
vt 0.445767 0.135742
vt 0.442383 0.121402
vt 0.467607 0.121402
vt 0.195721 0.234673
vt 0.214089 0.232853
vt 0.217485 0.246536
vt 0.192383 0.249023
vt 0.565786 0.049805
vt 0.547329 0.049805
vt 0.543945 0.036118
vt 0.56917 0.036118
vt 0.651589 0.295898
vt 0.633221 0.294079
vt 0.629883 0.279728
vt 0.654985 0.282215
vt 0.02334 0.349707
vt 0.02334 0.368164
vt 0.004883 0.368164
vt 0.004883 0.349707
vt 0.495474 0.135742
vt 0.477017 0.135742
vt 0.473633 0.121402
vt 0.498857 0.121402
vt 0.664471 0.281548
vt 0.682839 0.279728
vt 0.686235 0.293411
vt 0.661133 0.295898
vt 0.620474 0.071289
vt 0.602017 0.071289
vt 0.598633 0.057602
vt 0.623857 0.057602
vt 0.714089 0.249023
vt 0.695721 0.247204
vt 0.692383 0.232853
vt 0.717485 0.23534
vt 0.794824 0.400488
vt 0.794824 0.418945
vt 0.776367 0.418945
vt 0.776367 0.400488
vt 0.276724 0.135742
vt 0.258267 0.135742
vt 0.254883 0.121402
vt 0.280107 0.121402
vt 0.226971 0.281548
vt 0.245339 0.279728
vt 0.248735 0.293411
vt 0.223633 0.295898
vt 0.597036 0.049805
vt 0.578579 0.049805
vt 0.575195 0.036118
vt 0.60042 0.036118
vt 0.620339 0.249023
vt 0.601971 0.247204
vt 0.598633 0.232853
vt 0.623735 0.23534
vt 0.04873 0.349707
vt 0.04873 0.368164
vt 0.030273 0.368164
vt 0.030273 0.349707
vt 0.120474 0.114258
vt 0.102017 0.114258
vt 0.098633 0.099918
vt 0.123857 0.099918
vt 0.726971 0.234673
vt 0.745339 0.232853
vt 0.748735 0.246536
vt 0.723633 0.249023
vt 0.651724 0.071289
vt 0.633267 0.071289
vt 0.629883 0.057602
vt 0.655107 0.057602
vt 0.714089 0.295898
vt 0.695721 0.294079
vt 0.692383 0.279728
vt 0.717485 0.282215
vt 0.061792 0.418945
vt 0.004883 0.418945
vt 0.004883 0.400488
vt 0.061792 0.400488
vt 0.838613 0.135742
vt 0.781704 0.135742
vt 0.77832 0.121402
vt 0.841997 0.121402
vt 0.726971 0.281548
vt 0.745339 0.279728
vt 0.748735 0.293411
vt 0.723633 0.295898
vt 0.940176 0.071289
vt 0.883267 0.071289
vt 0.879883 0.057602
vt 0.94356 0.057602
vt 0.776589 0.295898
vt 0.758221 0.294079
vt 0.754883 0.279728
vt 0.779985 0.282215
vt 0.693262 0.418945
vt 0.674805 0.418945
vt 0.674805 0.400488
vt 0.693262 0.400488
vt 0.987661 0.135742
vt 0.969204 0.135742
vt 0.96582 0.121402
vt 0.991045 0.121402
vt 0.133221 0.328423
vt 0.151589 0.326603
vt 0.154985 0.340286
vt 0.129883 0.342773
vt 0.347036 0.049805
vt 0.328579 0.049805
vt 0.325195 0.036118
vt 0.35042 0.036118
vt 0.807839 0.295898
vt 0.789471 0.294079
vt 0.786133 0.279728
vt 0.811235 0.282215
vt 0.490137 0.418945
vt 0.47168 0.418945
vt 0.47168 0.400488
vt 0.490137 0.400488
vt 0.026724 0.114258
vt 0.008267 0.114258
vt 0.004883 0.099918
vt 0.030107 0.099918
vt 0.820721 0.281548
vt 0.839089 0.279728
vt 0.842485 0.293411
vt 0.817383 0.295898
vt 0.378286 0.049805
vt 0.359829 0.049805
vt 0.356445 0.036118
vt 0.38167 0.036118
vt 0.870339 0.295898
vt 0.851971 0.294079
vt 0.848633 0.279728
vt 0.873735 0.282215
vt 0.515527 0.418945
vt 0.49707 0.418945
vt 0.49707 0.400488
vt 0.515527 0.400488
vt 0.307974 0.135742
vt 0.289517 0.135742
vt 0.286133 0.121402
vt 0.311357 0.121402
vt 0.883221 0.281548
vt 0.901589 0.279728
vt 0.904985 0.293411
vt 0.879883 0.295898
vt 0.409536 0.049805
vt 0.391079 0.049805
vt 0.387695 0.036118
vt 0.41292 0.036118
vt 0.932839 0.295898
vt 0.914471 0.294079
vt 0.911133 0.279728
vt 0.936235 0.282215
vt 0.307886 0.418945
vt 0.250977 0.418945
vt 0.250977 0.400488
vt 0.307886 0.400488
vt 0.190176 0.114258
vt 0.133267 0.114258
vt 0.129883 0.099918
vt 0.19356 0.099918
vt 0.414471 0.25811
vt 0.432839 0.25629
vt 0.436235 0.269974
vt 0.411133 0.272461
vt 0.469473 0.092773
vt 0.412563 0.092773
vt 0.40918 0.079087
vt 0.472856 0.079087
vt 0.870339 0.272461
vt 0.851971 0.270641
vt 0.848633 0.25629
vt 0.873735 0.258777
vt 0.431543 0.393555
vt 0.413086 0.393555
vt 0.413086 0.375098
vt 0.431543 0.375098
vt 0.222036 0.114258
vt 0.203579 0.114258
vt 0.200195 0.099918
vt 0.22542 0.099918
vt 0.914471 0.211235
vt 0.932839 0.209415
vt 0.936235 0.223099
vt 0.911133 0.225586
vt 0.440786 0.049805
vt 0.422329 0.049805
vt 0.418945 0.036118
vt 0.44417 0.036118
vt 0.057839 0.202148
vt 0.039471 0.200329
vt 0.036133 0.185978
vt 0.061235 0.188465
vt 0.570215 0.349707
vt 0.570215 0.368164
vt 0.551758 0.368164
vt 0.551758 0.349707
vt 0.532583 0.157227
vt 0.514126 0.157227
vt 0.510742 0.142886
vt 0.535967 0.142886
vt 0.445721 0.211235
vt 0.464089 0.209415
vt 0.467485 0.223099
vt 0.442383 0.225586
vt 0.089224 0.071289
vt 0.070767 0.071289
vt 0.067383 0.057602
vt 0.092607 0.057602
vt 0.026589 0.272461
vt 0.008221 0.270641
vt 0.004883 0.25629
vt 0.029985 0.258777
vt 0.824121 0.349707
vt 0.824121 0.368164
vt 0.805664 0.368164
vt 0.805664 0.349707
vt 0.563833 0.157227
vt 0.545376 0.157227
vt 0.541992 0.142886
vt 0.567217 0.142886
vt 0.445721 0.25811
vt 0.464089 0.25629
vt 0.467485 0.269974
vt 0.442383 0.272461
vt 0.120474 0.071289
vt 0.102017 0.071289
vt 0.098633 0.057602
vt 0.123857 0.057602
vt 0.495339 0.272461
vt 0.476971 0.270641
vt 0.473633 0.25629
vt 0.498735 0.258777
vt 0.595605 0.349707
vt 0.595605 0.368164
vt 0.577148 0.368164
vt 0.577148 0.349707
vt 0.595083 0.157227
vt 0.576626 0.157227
vt 0.573242 0.142886
vt 0.598467 0.142886
vt 0.508221 0.25811
vt 0.526589 0.25629
vt 0.529985 0.269974
vt 0.504883 0.272461
vt 0.151724 0.071289
vt 0.133267 0.071289
vt 0.129883 0.057602
vt 0.155107 0.057602
vt 0.557839 0.272461
vt 0.539471 0.270641
vt 0.536133 0.25629
vt 0.561235 0.258777
vt 0.620996 0.349707
vt 0.620996 0.368164
vt 0.602539 0.368164
vt 0.602539 0.349707
vt 0.626333 0.157227
vt 0.607876 0.157227
vt 0.604492 0.142886
vt 0.629717 0.142886
vt 0.570721 0.25811
vt 0.589089 0.25629
vt 0.592485 0.269974
vt 0.567383 0.272461
vt 0.182974 0.071289
vt 0.164517 0.071289
vt 0.161133 0.057602
vt 0.186357 0.057602
vt 0.182839 0.225586
vt 0.164471 0.223766
vt 0.161133 0.209415
vt 0.186235 0.211902
vt 0.660059 0.393555
vt 0.641602 0.393555
vt 0.641602 0.375098
vt 0.660059 0.375098
vt 0.057974 0.114258
vt 0.039517 0.114258
vt 0.036133 0.099918
vt 0.061357 0.099918
vt 0.195721 0.211235
vt 0.214089 0.209415
vt 0.217485 0.223099
vt 0.192383 0.225586
vt 0.214224 0.071289
vt 0.195767 0.071289
vt 0.192383 0.057602
vt 0.217607 0.057602
vt 0.839089 0.225586
vt 0.820721 0.223766
vt 0.817383 0.209415
vt 0.842485 0.211902
vt 0.685449 0.393555
vt 0.666992 0.393555
vt 0.666992 0.375098
vt 0.685449 0.375098
vt 0.089224 0.114258
vt 0.070767 0.114258
vt 0.067383 0.099918
vt 0.092607 0.099918
vt 0.383221 0.234673
vt 0.401589 0.232853
vt 0.404985 0.246536
vt 0.379883 0.249023
vt 0.245474 0.071289
vt 0.227017 0.071289
vt 0.223633 0.057602
vt 0.248857 0.057602
vt 0.776589 0.249023
vt 0.758221 0.247204
vt 0.754883 0.232853
vt 0.779985 0.23534
vt 0.849512 0.349707
vt 0.849512 0.368164
vt 0.831055 0.368164
vt 0.831055 0.349707
vt 0.682974 0.135742
vt 0.664517 0.135742
vt 0.661133 0.121402
vt 0.686357 0.121402
vt 0.883221 0.25811
vt 0.901589 0.25629
vt 0.904985 0.269974
vt 0.879883 0.272461
vt 0.026724 0.092773
vt 0.008267 0.092773
vt 0.004883 0.079087
vt 0.030107 0.079087
vt 0.089089 0.202148
vt 0.070721 0.200329
vt 0.067383 0.185978
vt 0.092485 0.188465
vt 0.913965 0.375098
vt 0.913965 0.393555
vt 0.895508 0.393555
vt 0.895508 0.375098
vt 0.284536 0.114258
vt 0.266079 0.114258
vt 0.262695 0.099918
vt 0.28792 0.099918
vt 0.914471 0.25811
vt 0.932839 0.25629
vt 0.936235 0.269974
vt 0.911133 0.272461
vt 0.276724 0.071289
vt 0.258267 0.071289
vt 0.254883 0.057602
vt 0.280107 0.057602
vt 0.495339 0.225586
vt 0.476971 0.223766
vt 0.473633 0.209415
vt 0.498735 0.211902
vt 0.939355 0.375098
vt 0.939355 0.393555
vt 0.920898 0.393555
vt 0.920898 0.375098
vt 0.315786 0.114258
vt 0.297329 0.114258
vt 0.293945 0.099918
vt 0.31917 0.099918
vt 0.601971 0.25811
vt 0.620339 0.25629
vt 0.623735 0.269974
vt 0.598633 0.272461
vt 0.307974 0.071289
vt 0.289517 0.071289
vt 0.286133 0.057602
vt 0.311357 0.057602
vt 0.182839 0.202148
vt 0.164471 0.200329
vt 0.161133 0.185978
vt 0.186235 0.188465
vt 0.243188 0.418945
vt 0.170898 0.418945
vt 0.170898 0.400488
vt 0.243188 0.400488
vt 0.768057 0.135742
vt 0.695767 0.135742
vt 0.692383 0.121402
vt 0.77144 0.121402
vt 0.351971 0.211235
vt 0.370339 0.209415
vt 0.373735 0.223099
vt 0.348633 0.225586
vt 0.398916 0.092773
vt 0.326626 0.092773
vt 0.323242 0.079087
vt 0.4023 0.079087
vt 0.339089 0.249023
vt 0.320721 0.247204
vt 0.317383 0.232853
vt 0.342485 0.23534
vt 0.646387 0.349707
vt 0.646387 0.368164
vt 0.62793 0.368164
vt 0.62793 0.349707
vt 0.657583 0.157227
vt 0.639126 0.157227
vt 0.635742 0.142886
vt 0.660967 0.142886
vt 0.039471 0.25811
vt 0.057839 0.25629
vt 0.061235 0.269974
vt 0.036133 0.272461
vt 0.339224 0.071289
vt 0.320767 0.071289
vt 0.317383 0.057602
vt 0.342607 0.057602
vt 0.370339 0.249023
vt 0.351971 0.247204
vt 0.348633 0.232853
vt 0.373735 0.23534
vt 0.718652 0.418945
vt 0.700195 0.418945
vt 0.700195 0.400488
vt 0.718652 0.400488
vt 0.620474 0.135742
vt 0.602017 0.135742
vt 0.598633 0.121402
vt 0.623857 0.121402
vt 0.945721 0.25811
vt 0.964089 0.25629
vt 0.967485 0.269974
vt 0.942383 0.272461
vt 0.370474 0.071289
vt 0.352017 0.071289
vt 0.348633 0.057602
vt 0.373857 0.057602
vt 0.401589 0.225586
vt 0.383221 0.223766
vt 0.379883 0.209415
vt 0.404985 0.211902
vt 0.456934 0.393555
vt 0.438477 0.393555
vt 0.438477 0.375098
vt 0.456934 0.375098
vt 0.651724 0.135742
vt 0.633267 0.135742
vt 0.629883 0.121402
vt 0.655107 0.121402
vt 0.101971 0.187798
vt 0.120339 0.185978
vt 0.123735 0.199661
vt 0.098633 0.202148
vt 0.401724 0.071289
vt 0.383267 0.071289
vt 0.379883 0.057602
vt 0.405107 0.057602
vt 0.714089 0.272461
vt 0.695721 0.270641
vt 0.692383 0.25629
vt 0.717485 0.258777
vt 0.482324 0.393555
vt 0.463867 0.393555
vt 0.463867 0.375098
vt 0.482324 0.375098
vt 0.253286 0.114258
vt 0.234829 0.114258
vt 0.231445 0.099918
vt 0.25667 0.099918
vt 0.008221 0.234673
vt 0.026589 0.232853
vt 0.029985 0.246536
vt 0.004883 0.249023
vt 0.472036 0.049805
vt 0.453579 0.049805
vt 0.450195 0.036118
vt 0.47542 0.036118
vt 0.495339 0.202148
vt 0.476971 0.200329
vt 0.473633 0.185978
vt 0.498735 0.188465
vt 0.087671 0.393555
vt 0.061523 0.393555
vt 0.061523 0.375098
vt 0.087671 0.375098
vt 0.227773 0.157227
vt 0.201626 0.157227
vt 0.198242 0.142886
vt 0.231157 0.142886
vt 0.633221 0.25811
vt 0.651589 0.25629
vt 0.654985 0.269974
vt 0.629883 0.272461
vt 0.557852 0.114258
vt 0.531704 0.114258
vt 0.52832 0.100571
vt 0.561235 0.100571
vt 0.151589 0.202148
vt 0.133221 0.200329
vt 0.129883 0.185978
vt 0.154985 0.188465
vt 0.120874 0.393555
vt 0.094727 0.393555
vt 0.094727 0.375098
vt 0.120874 0.375098
vt 0.266836 0.157227
vt 0.240688 0.157227
vt 0.237305 0.142886
vt 0.27022 0.142886
vt 0.414471 0.211235
vt 0.432839 0.209415
vt 0.436235 0.223099
vt 0.411133 0.225586
vt 0.596914 0.114258
vt 0.570767 0.114258
vt 0.567383 0.100571
vt 0.600298 0.100571
vt 0.214089 0.342773
vt 0.195721 0.340954
vt 0.192383 0.326603
vt 0.217485 0.32909
vt 0.240015 0.368164
vt 0.213867 0.368164
vt 0.213867 0.349707
vt 0.240015 0.349707
vt 0.759023 0.157227
vt 0.732876 0.157227
vt 0.729492 0.142886
vt 0.762407 0.142886
vt 0.351971 0.187798
vt 0.370339 0.185978
vt 0.373735 0.199661
vt 0.348633 0.202148
vt 0.635977 0.114258
vt 0.609829 0.114258
vt 0.606445 0.100571
vt 0.63936 0.100571
vt 0.089089 0.272461
vt 0.070721 0.270641
vt 0.067383 0.25629
vt 0.092485 0.258777
vt 0.981714 0.418945
vt 0.801758 0.418945
vt 0.801758 0.400488
vt 0.981714 0.400488
vt 0.188223 0.157227
vt 0.008267 0.157227
vt 0.004883 0.142886
vt 0.191606 0.142886
vt 0.039471 0.234673
vt 0.057839 0.232853
vt 0.061235 0.246536
vt 0.036133 0.249023
vt 0.313223 0.092773
vt 0.133267 0.092773
vt 0.129883 0.079087
vt 0.316606 0.079087
vt 0.120339 0.272461
vt 0.101971 0.270641
vt 0.098633 0.25629
vt 0.123735 0.258777
vt 0.220483 0.393555
vt 0.194336 0.393555
vt 0.194336 0.375098
vt 0.220483 0.375098
vt 0.305898 0.157227
vt 0.279751 0.157227
vt 0.276367 0.142886
vt 0.309282 0.142886
vt 0.226971 0.234673
vt 0.245339 0.232853
vt 0.248735 0.246536
vt 0.223633 0.249023
vt 0.096914 0.049805
vt 0.070767 0.049805
vt 0.067383 0.036118
vt 0.100298 0.036118
vt 0.276589 0.249023
vt 0.258221 0.247204
vt 0.254883 0.232853
vt 0.279985 0.23534
vt 0.253687 0.393555
vt 0.227539 0.393555
vt 0.227539 0.375098
vt 0.253687 0.375098
vt 0.837148 0.157227
vt 0.811001 0.157227
vt 0.807617 0.142886
vt 0.840532 0.142886
vt 0.758221 0.328423
vt 0.776589 0.326603
vt 0.779985 0.340286
vt 0.754883 0.342773
vt 0.675039 0.114258
vt 0.648892 0.114258
vt 0.645508 0.100571
vt 0.678423 0.100571
vt 0.807839 0.249023
vt 0.789471 0.247204
vt 0.786133 0.232853
vt 0.811235 0.23534
vt 0.18728 0.393555
vt 0.161133 0.393555
vt 0.161133 0.375098
vt 0.18728 0.375098
vt 0.344961 0.157227
vt 0.318813 0.157227
vt 0.31543 0.142886
vt 0.348345 0.142886
vt 0.820721 0.234673
vt 0.839089 0.232853
vt 0.842485 0.246536
vt 0.817383 0.249023
vt 0.649648 0.092773
vt 0.623501 0.092773
vt 0.620117 0.079087
vt 0.653032 0.079087
vt 0.057839 0.319336
vt 0.039471 0.317516
vt 0.036133 0.303165
vt 0.061235 0.305652
vt 0.154077 0.393555
vt 0.12793 0.393555
vt 0.12793 0.375098
vt 0.154077 0.375098
vt 0.798086 0.157227
vt 0.771938 0.157227
vt 0.768555 0.142886
vt 0.80147 0.142886
vt 0.070721 0.234673
vt 0.089089 0.232853
vt 0.092485 0.246536
vt 0.067383 0.249023
vt 0.610586 0.092773
vt 0.584438 0.092773
vt 0.581055 0.079087
vt 0.61397 0.079087
vt 0.432839 0.249023
vt 0.414471 0.247204
vt 0.411133 0.232853
vt 0.436235 0.23534
vt 0.900293 0.349707
vt 0.900293 0.368164
vt 0.881836 0.368164
vt 0.881836 0.349707
vt 0.376333 0.157227
vt 0.357876 0.157227
vt 0.354492 0.142886
vt 0.379717 0.142886
vt 0.133221 0.25811
vt 0.151589 0.25629
vt 0.154985 0.269974
vt 0.129883 0.272461
vt 0.432974 0.071289
vt 0.414517 0.071289
vt 0.411133 0.057602
vt 0.436357 0.057602
vt 0.089089 0.319336
vt 0.070721 0.317516
vt 0.067383 0.303165
vt 0.092485 0.305652
vt 0.925684 0.349707
vt 0.925684 0.368164
vt 0.907227 0.368164
vt 0.907227 0.349707
vt 0.407583 0.157227
vt 0.389126 0.157227
vt 0.385742 0.142886
vt 0.410967 0.142886
vt 0.101971 0.234673
vt 0.120339 0.232853
vt 0.123735 0.246536
vt 0.098633 0.249023
vt 0.464224 0.071289
vt 0.445767 0.071289
vt 0.442383 0.057602
vt 0.467607 0.057602
vt 0.870339 0.342773
vt 0.851971 0.340954
vt 0.848633 0.326603
vt 0.873735 0.32909
vt 0.874902 0.349707
vt 0.874902 0.368164
vt 0.856445 0.368164
vt 0.856445 0.349707
vt 0.438833 0.157227
vt 0.420376 0.157227
vt 0.416992 0.142886
vt 0.442217 0.142886
vt 0.164471 0.25811
vt 0.182839 0.25629
vt 0.186235 0.269974
vt 0.161133 0.272461
vt 0.495474 0.071289
vt 0.477017 0.071289
vt 0.473633 0.057602
vt 0.498857 0.057602
vt 0.807839 0.342773
vt 0.789471 0.340954
vt 0.786133 0.326603
vt 0.811235 0.32909
vt 0.206445 0.368164
vt 0.157227 0.368164
vt 0.157227 0.349707
vt 0.206445 0.349707
vt 0.719595 0.157227
vt 0.670376 0.157227
vt 0.666992 0.142886
vt 0.722979 0.142886
vt 0.226971 0.328423
vt 0.245339 0.326603
vt 0.248735 0.340286
vt 0.223633 0.342773
vt 0.057485 0.049805
vt 0.008267 0.049805
vt 0.004883 0.036118
vt 0.060869 0.036118
vt 0.839089 0.342773
vt 0.820721 0.340954
vt 0.817383 0.326603
vt 0.842485 0.32909
vt 0.507715 0.393555
vt 0.489258 0.393555
vt 0.489258 0.375098
vt 0.507715 0.375098
vt 0.470083 0.157227
vt 0.451626 0.157227
vt 0.448242 0.142886
vt 0.473467 0.142886
vt 0.195721 0.25811
vt 0.214089 0.25629
vt 0.217485 0.269974
vt 0.192383 0.272461
vt 0.503286 0.049805
vt 0.484829 0.049805
vt 0.481445 0.036118
vt 0.50667 0.036118
vt 0.245339 0.225586
vt 0.226971 0.223766
vt 0.223633 0.209415
vt 0.248735 0.211902
vt 0.75332 0.433691
vt 0.75332 0.452148
vt 0.704102 0.452148
vt 0.704102 0.433691
vt 0.339224 0.135742
vt 0.320767 0.135742
vt 0.317383 0.121402
vt 0.342607 0.121402
vt 0.45744 0.437798
vt 0.506419 0.432945
vt 0.509815 0.446628
vt 0.454102 0.452148
vt 0.526724 0.071289
vt 0.508267 0.071289
vt 0.504883 0.057602
vt 0.530107 0.057602
vt 0.693919 0.452148
vt 0.64494 0.447296
vt 0.641602 0.432945
vt 0.697315 0.438465
vt 0.809961 0.433691
vt 0.809961 0.452148
vt 0.760742 0.452148
vt 0.760742 0.433691
vt 0.501333 0.157227
vt 0.482876 0.157227
vt 0.479492 0.142886
vt 0.504717 0.142886
vt 0.58244 0.437798
vt 0.631419 0.432945
vt 0.634815 0.446628
vt 0.579102 0.452148
vt 0.534536 0.049805
vt 0.516079 0.049805
vt 0.512695 0.036118
vt 0.53792 0.036118
vt 0.568919 0.452148
vt 0.51994 0.447296
vt 0.516602 0.432945
vt 0.572315 0.438465
vn 0 0.994825 -0.101599
vn 0 0.232746 -0.972538
vn 0.970143 0.241281 -0.024641
vn 0 0.248048 0.968748
vn -0.970143 0.241281 -0.024641
f 32/61/15 31/62/15 30/63/15 29/64/15
f 29/65/16 30/66/16 26/67/16 25/68/16
f 30/69/17 31/70/17 27/71/17 26/72/17
f 31/73/18 32/74/18 28/75/18 27/76/18
f 32/77/19 29/78/19 25/79/19 28/80/19
f 40/81/15 39/82/15 38/83/15 37/84/15
f 37/85/16 38/86/16 34/87/16 33/88/16
f 38/89/17 39/90/17 35/91/17 34/92/17
f 39/93/18 40/94/18 36/95/18 35/96/18
f 40/97/19 37/98/19 33/99/19 36/100/19
f 48/101/15 47/102/15 46/103/15 45/104/15
f 45/105/16 46/106/16 42/107/16 41/108/16
f 46/109/17 47/110/17 43/111/17 42/112/17
f 47/113/18 48/114/18 44/115/18 43/116/18
f 48/117/19 45/118/19 41/119/19 44/120/19
f 56/121/15 55/122/15 54/123/15 53/124/15
f 53/125/16 54/126/16 50/127/16 49/128/16
f 54/129/17 55/130/17 51/131/17 50/132/17
f 55/133/18 56/134/18 52/135/18 51/136/18
f 56/137/19 53/138/19 49/139/19 52/140/19
f 64/141/15 63/142/15 62/143/15 61/144/15
f 61/145/16 62/146/16 58/147/16 57/148/16
f 62/149/17 63/150/17 59/151/17 58/152/17
f 63/153/18 64/154/18 60/155/18 59/156/18
f 64/157/19 61/158/19 57/159/19 60/160/19
f 72/161/15 71/162/15 70/163/15 69/164/15
f 69/165/16 70/166/16 66/167/16 65/168/16
f 70/169/17 71/170/17 67/171/17 66/172/17
f 71/173/18 72/174/18 68/175/18 67/176/18
f 72/177/19 69/178/19 65/179/19 68/180/19
f 80/181/15 79/182/15 78/183/15 77/184/15
f 77/185/16 78/186/16 74/187/16 73/188/16
f 78/189/17 79/190/17 75/191/17 74/192/17
f 79/193/18 80/194/18 76/195/18 75/196/18
f 80/197/19 77/198/19 73/199/19 76/200/19
f 88/201/15 87/202/15 86/203/15 85/204/15
f 85/205/16 86/206/16 82/207/16 81/208/16
f 86/209/17 87/210/17 83/211/17 82/212/17
f 87/213/18 88/214/18 84/215/18 83/216/18
f 88/217/19 85/218/19 81/219/19 84/220/19
f 96/221/15 95/222/15 94/223/15 93/224/15
f 93/225/16 94/226/16 90/227/16 89/228/16
f 94/229/17 95/230/17 91/231/17 90/232/17
f 95/233/18 96/234/18 92/235/18 91/236/18
f 96/237/19 93/238/19 89/239/19 92/240/19
f 104/241/15 103/242/15 102/243/15 101/244/15
f 101/245/16 102/246/16 98/247/16 97/248/16
f 102/249/17 103/250/17 99/251/17 98/252/17
f 103/253/18 104/254/18 100/255/18 99/256/18
f 104/257/19 101/258/19 97/259/19 100/260/19
f 112/261/15 111/262/15 110/263/15 109/264/15
f 109/265/16 110/266/16 106/267/16 105/268/16
f 110/269/17 111/270/17 107/271/17 106/272/17
f 111/273/18 112/274/18 108/275/18 107/276/18
f 112/277/19 109/278/19 105/279/19 108/280/19
f 120/281/15 119/282/15 118/283/15 117/284/15
f 117/285/16 118/286/16 114/287/16 113/288/16
f 118/289/17 119/290/17 115/291/17 114/292/17
f 119/293/18 120/294/18 116/295/18 115/296/18
f 120/297/19 117/298/19 113/299/19 116/300/19
f 128/301/15 127/302/15 126/303/15 125/304/15
f 125/305/16 126/306/16 122/307/16 121/308/16
f 126/309/17 127/310/17 123/311/17 122/312/17
f 127/313/18 128/314/18 124/315/18 123/316/18
f 128/317/19 125/318/19 121/319/19 124/320/19
f 136/321/15 135/322/15 134/323/15 133/324/15
f 133/325/16 134/326/16 130/327/16 129/328/16
f 134/329/17 135/330/17 131/331/17 130/332/17
f 135/333/18 136/334/18 132/335/18 131/336/18
f 136/337/19 133/338/19 129/339/19 132/340/19
f 144/341/15 143/342/15 142/343/15 141/344/15
f 141/345/16 142/346/16 138/347/16 137/348/16
f 142/349/17 143/350/17 139/351/17 138/352/17
f 143/353/18 144/354/18 140/355/18 139/356/18
f 144/357/19 141/358/19 137/359/19 140/360/19
f 152/361/15 151/362/15 150/363/15 149/364/15
f 149/365/16 150/366/16 146/367/16 145/368/16
f 150/369/17 151/370/17 147/371/17 146/372/17
f 151/373/18 152/374/18 148/375/18 147/376/18
f 152/377/19 149/378/19 145/379/19 148/380/19
f 160/381/15 159/382/15 158/383/15 157/384/15
f 157/385/16 158/386/16 154/387/16 153/388/16
f 158/389/17 159/390/17 155/391/17 154/392/17
f 159/393/18 160/394/18 156/395/18 155/396/18
f 160/397/19 157/398/19 153/399/19 156/400/19
f 168/401/15 167/402/15 166/403/15 165/404/15
f 165/405/16 166/406/16 162/407/16 161/408/16
f 166/409/17 167/410/17 163/411/17 162/412/17
f 167/413/18 168/414/18 164/415/18 163/416/18
f 168/417/19 165/418/19 161/419/19 164/420/19
f 176/421/15 175/422/15 174/423/15 173/424/15
f 173/425/16 174/426/16 170/427/16 169/428/16
f 174/429/17 175/430/17 171/431/17 170/432/17
f 175/433/18 176/434/18 172/435/18 171/436/18
f 176/437/19 173/438/19 169/439/19 172/440/19
f 184/441/15 183/442/15 182/443/15 181/444/15
f 181/445/16 182/446/16 178/447/16 177/448/16
f 182/449/17 183/450/17 179/451/17 178/452/17
f 183/453/18 184/454/18 180/455/18 179/456/18
f 184/457/19 181/458/19 177/459/19 180/460/19
f 192/461/15 191/462/15 190/463/15 189/464/15
f 189/465/16 190/466/16 186/467/16 185/468/16
f 190/469/17 191/470/17 187/471/17 186/472/17
f 191/473/18 192/474/18 188/475/18 187/476/18
f 192/477/19 189/478/19 185/479/19 188/480/19
f 200/481/15 199/482/15 198/483/15 197/484/15
f 197/485/16 198/486/16 194/487/16 193/488/16
f 198/489/17 199/490/17 195/491/17 194/492/17
f 199/493/18 200/494/18 196/495/18 195/496/18
f 200/497/19 197/498/19 193/499/19 196/500/19
f 208/501/15 207/502/15 206/503/15 205/504/15
f 205/505/16 206/506/16 202/507/16 201/508/16
f 206/509/17 207/510/17 203/511/17 202/512/17
f 207/513/18 208/514/18 204/515/18 203/516/18
f 208/517/19 205/518/19 201/519/19 204/520/19
f 216/521/15 215/522/15 214/523/15 213/524/15
f 213/525/16 214/526/16 210/527/16 209/528/16
f 214/529/17 215/530/17 211/531/17 210/532/17
f 215/533/18 216/534/18 212/535/18 211/536/18
f 216/537/19 213/538/19 209/539/19 212/540/19
f 224/541/15 223/542/15 222/543/15 221/544/15
f 221/545/16 222/546/16 218/547/16 217/548/16
f 222/549/17 223/550/17 219/551/17 218/552/17
f 223/553/18 224/554/18 220/555/18 219/556/18
f 224/557/19 221/558/19 217/559/19 220/560/19
f 232/561/15 231/562/15 230/563/15 229/564/15
f 229/565/16 230/566/16 226/567/16 225/568/16
f 230/569/17 231/570/17 227/571/17 226/572/17
f 231/573/18 232/574/18 228/575/18 227/576/18
f 232/577/19 229/578/19 225/579/19 228/580/19
f 240/581/15 239/582/15 238/583/15 237/584/15
f 237/585/16 238/586/16 234/587/16 233/588/16
f 238/589/17 239/590/17 235/591/17 234/592/17
f 239/593/18 240/594/18 236/595/18 235/596/18
f 240/597/19 237/598/19 233/599/19 236/600/19
f 248/601/15 247/602/15 246/603/15 245/604/15
f 245/605/16 246/606/16 242/607/16 241/608/16
f 246/609/17 247/610/17 243/611/17 242/612/17
f 247/613/18 248/614/18 244/615/18 243/616/18
f 248/617/19 245/618/19 241/619/19 244/620/19
f 256/621/15 255/622/15 254/623/15 253/624/15
f 253/625/16 254/626/16 250/627/16 249/628/16
f 254/629/17 255/630/17 251/631/17 250/632/17
f 255/633/18 256/634/18 252/635/18 251/636/18
f 256/637/19 253/638/19 249/639/19 252/640/19
f 264/641/15 263/642/15 262/643/15 261/644/15
f 261/645/16 262/646/16 258/647/16 257/648/16
f 262/649/17 263/650/17 259/651/17 258/652/17
f 263/653/18 264/654/18 260/655/18 259/656/18
f 264/657/19 261/658/19 257/659/19 260/660/19
f 272/661/15 271/662/15 270/663/15 269/664/15
f 269/665/16 270/666/16 266/667/16 265/668/16
f 270/669/17 271/670/17 267/671/17 266/672/17
f 271/673/18 272/674/18 268/675/18 267/676/18
f 272/677/19 269/678/19 265/679/19 268/680/19
f 280/681/15 279/682/15 278/683/15 277/684/15
f 277/685/16 278/686/16 274/687/16 273/688/16
f 278/689/17 279/690/17 275/691/17 274/692/17
f 279/693/18 280/694/18 276/695/18 275/696/18
f 280/697/19 277/698/19 273/699/19 276/700/19
f 288/701/15 287/702/15 286/703/15 285/704/15
f 285/705/16 286/706/16 282/707/16 281/708/16
f 286/709/17 287/710/17 283/711/17 282/712/17
f 287/713/18 288/714/18 284/715/18 283/716/18
f 288/717/19 285/718/19 281/719/19 284/720/19
f 296/721/15 295/722/15 294/723/15 293/724/15
f 293/725/16 294/726/16 290/727/16 289/728/16
f 294/729/17 295/730/17 291/731/17 290/732/17
f 295/733/18 296/734/18 292/735/18 291/736/18
f 296/737/19 293/738/19 289/739/19 292/740/19
f 304/741/15 303/742/15 302/743/15 301/744/15
f 301/745/16 302/746/16 298/747/16 297/748/16
f 302/749/17 303/750/17 299/751/17 298/752/17
f 303/753/18 304/754/18 300/755/18 299/756/18
f 304/757/19 301/758/19 297/759/19 300/760/19
f 312/761/15 311/762/15 310/763/15 309/764/15
f 309/765/16 310/766/16 306/767/16 305/768/16
f 310/769/17 311/770/17 307/771/17 306/772/17
f 311/773/18 312/774/18 308/775/18 307/776/18
f 312/777/19 309/778/19 305/779/19 308/780/19
f 320/781/15 319/782/15 318/783/15 317/784/15
f 317/785/16 318/786/16 314/787/16 313/788/16
f 318/789/17 319/790/17 315/791/17 314/792/17
f 319/793/18 320/794/18 316/795/18 315/796/18
f 320/797/19 317/798/19 313/799/19 316/800/19
f 328/801/15 327/802/15 326/803/15 325/804/15
f 325/805/16 326/806/16 322/807/16 321/808/16
f 326/809/17 327/810/17 323/811/17 322/812/17
f 327/813/18 328/814/18 324/815/18 323/816/18
f 328/817/19 325/818/19 321/819/19 324/820/19
f 336/821/15 335/822/15 334/823/15 333/824/15
f 333/825/16 334/826/16 330/827/16 329/828/16
f 334/829/17 335/830/17 331/831/17 330/832/17
f 335/833/18 336/834/18 332/835/18 331/836/18
f 336/837/19 333/838/19 329/839/19 332/840/19
f 344/841/15 343/842/15 342/843/15 341/844/15
f 341/845/16 342/846/16 338/847/16 337/848/16
f 342/849/17 343/850/17 339/851/17 338/852/17
f 343/853/18 344/854/18 340/855/18 339/856/18
f 344/857/19 341/858/19 337/859/19 340/860/19
f 352/861/15 351/862/15 350/863/15 349/864/15
f 349/865/16 350/866/16 346/867/16 345/868/16
f 350/869/17 351/870/17 347/871/17 346/872/17
f 351/873/18 352/874/18 348/875/18 347/876/18
f 352/877/19 349/878/19 345/879/19 348/880/19
f 360/881/15 359/882/15 358/883/15 357/884/15
f 357/885/16 358/886/16 354/887/16 353/888/16
f 358/889/17 359/890/17 355/891/17 354/892/17
f 359/893/18 360/894/18 356/895/18 355/896/18
f 360/897/19 357/898/19 353/899/19 356/900/19
f 368/901/15 367/902/15 366/903/15 365/904/15
f 365/905/16 366/906/16 362/907/16 361/908/16
f 366/909/17 367/910/17 363/911/17 362/912/17
f 367/913/18 368/914/18 364/915/18 363/916/18
f 368/917/19 365/918/19 361/919/19 364/920/19
f 376/921/15 375/922/15 374/923/15 373/924/15
f 373/925/16 374/926/16 370/927/16 369/928/16
f 374/929/17 375/930/17 371/931/17 370/932/17
f 375/933/18 376/934/18 372/935/18 371/936/18
f 376/937/19 373/938/19 369/939/19 372/940/19
f 384/941/15 383/942/15 382/943/15 381/944/15
f 381/945/16 382/946/16 378/947/16 377/948/16
f 382/949/17 383/950/17 379/951/17 378/952/17
f 383/953/18 384/954/18 380/955/18 379/956/18
f 384/957/19 381/958/19 377/959/19 380/960/19
f 392/961/15 391/962/15 390/963/15 389/964/15
f 389/965/16 390/966/16 386/967/16 385/968/16
f 390/969/17 391/970/17 387/971/17 386/972/17
f 391/973/18 392/974/18 388/975/18 387/976/18
f 392/977/19 389/978/19 385/979/19 388/980/19
f 400/981/15 399/982/15 398/983/15 397/984/15
f 397/985/16 398/986/16 394/987/16 393/988/16
f 398/989/17 399/990/17 395/991/17 394/992/17
f 399/993/18 400/994/18 396/995/18 395/996/18
f 400/997/19 397/998/19 393/999/19 396/1000/19
f 408/1001/15 407/1002/15 406/1003/15 405/1004/15
f 405/1005/16 406/1006/16 402/1007/16 401/1008/16
f 406/1009/17 407/1010/17 403/1011/17 402/1012/17
f 407/1013/18 408/1014/18 404/1015/18 403/1016/18
f 408/1017/19 405/1018/19 401/1019/19 404/1020/19
f 416/1021/15 415/1022/15 414/1023/15 413/1024/15
f 413/1025/16 414/1026/16 410/1027/16 409/1028/16
f 414/1029/17 415/1030/17 411/1031/17 410/1032/17
f 415/1033/18 416/1034/18 412/1035/18 411/1036/18
f 416/1037/19 413/1038/19 409/1039/19 412/1040/19
f 424/1041/15 423/1042/15 422/1043/15 421/1044/15
f 421/1045/16 422/1046/16 418/1047/16 417/1048/16
f 422/1049/17 423/1050/17 419/1051/17 418/1052/17
f 423/1053/18 424/1054/18 420/1055/18 419/1056/18
f 424/1057/19 421/1058/19 417/1059/19 420/1060/19
f 432/1061/15 431/1062/15 430/1063/15 429/1064/15
f 429/1065/16 430/1066/16 426/1067/16 425/1068/16
f 430/1069/17 431/1070/17 427/1071/17 426/1072/17
f 431/1073/18 432/1074/18 428/1075/18 427/1076/18
f 432/1077/19 429/1078/19 425/1079/19 428/1080/19
f 440/1081/15 439/1082/15 438/1083/15 437/1084/15
f 437/1085/16 438/1086/16 434/1087/16 433/1088/16
f 438/1089/17 439/1090/17 435/1091/17 434/1092/17
f 439/1093/18 440/1094/18 436/1095/18 435/1096/18
f 440/1097/19 437/1098/19 433/1099/19 436/1100/19
f 448/1101/15 447/1102/15 446/1103/15 445/1104/15
f 445/1105/16 446/1106/16 442/1107/16 441/1108/16
f 446/1109/17 447/1110/17 443/1111/17 442/1112/17
f 447/1113/18 448/1114/18 444/1115/18 443/1116/18
f 448/1117/19 445/1118/19 441/1119/19 444/1120/19
f 456/1121/15 455/1122/15 454/1123/15 453/1124/15
f 453/1125/16 454/1126/16 450/1127/16 449/1128/16
f 454/1129/17 455/1130/17 451/1131/17 450/1132/17
f 455/1133/18 456/1134/18 452/1135/18 451/1136/18
f 456/1137/19 453/1138/19 449/1139/19 452/1140/19
f 464/1141/15 463/1142/15 462/1143/15 461/1144/15
f 461/1145/16 462/1146/16 458/1147/16 457/1148/16
f 462/1149/17 463/1150/17 459/1151/17 458/1152/17
f 463/1153/18 464/1154/18 460/1155/18 459/1156/18
f 464/1157/19 461/1158/19 457/1159/19 460/1160/19
f 472/1161/15 471/1162/15 470/1163/15 469/1164/15
f 469/1165/16 470/1166/16 466/1167/16 465/1168/16
f 470/1169/17 471/1170/17 467/1171/17 466/1172/17
f 471/1173/18 472/1174/18 468/1175/18 467/1176/18
f 472/1177/19 469/1178/19 465/1179/19 468/1180/19
f 480/1181/15 479/1182/15 478/1183/15 477/1184/15
f 477/1185/16 478/1186/16 474/1187/16 473/1188/16
f 478/1189/17 479/1190/17 475/1191/17 474/1192/17
f 479/1193/18 480/1194/18 476/1195/18 475/1196/18
f 480/1197/19 477/1198/19 473/1199/19 476/1200/19
f 488/1201/15 487/1202/15 486/1203/15 485/1204/15
f 485/1205/16 486/1206/16 482/1207/16 481/1208/16
f 486/1209/17 487/1210/17 483/1211/17 482/1212/17
f 487/1213/18 488/1214/18 484/1215/18 483/1216/18
f 488/1217/19 485/1218/19 481/1219/19 484/1220/19
f 496/1221/15 495/1222/15 494/1223/15 493/1224/15
f 493/1225/16 494/1226/16 490/1227/16 489/1228/16
f 494/1229/17 495/1230/17 491/1231/17 490/1232/17
f 495/1233/18 496/1234/18 492/1235/18 491/1236/18
f 496/1237/19 493/1238/19 489/1239/19 492/1240/19
f 504/1241/15 503/1242/15 502/1243/15 501/1244/15
f 501/1245/16 502/1246/16 498/1247/16 497/1248/16
f 502/1249/17 503/1250/17 499/1251/17 498/1252/17
f 503/1253/18 504/1254/18 500/1255/18 499/1256/18
f 504/1257/19 501/1258/19 497/1259/19 500/1260/19
f 512/1261/15 511/1262/15 510/1263/15 509/1264/15
f 509/1265/16 510/1266/16 506/1267/16 505/1268/16
f 510/1269/17 511/1270/17 507/1271/17 506/1272/17
f 511/1273/18 512/1274/18 508/1275/18 507/1276/18
f 512/1277/19 509/1278/19 505/1279/19 508/1280/19
f 520/1281/15 519/1282/15 518/1283/15 517/1284/15
f 517/1285/16 518/1286/16 514/1287/16 513/1288/16
f 518/1289/17 519/1290/17 515/1291/17 514/1292/17
f 519/1293/18 520/1294/18 516/1295/18 515/1296/18
f 520/1297/19 517/1298/19 513/1299/19 516/1300/19
f 528/1301/15 527/1302/15 526/1303/15 525/1304/15
f 525/1305/16 526/1306/16 522/1307/16 521/1308/16
f 526/1309/17 527/1310/17 523/1311/17 522/1312/17
f 527/1313/18 528/1314/18 524/1315/18 523/1316/18
f 528/1317/19 525/1318/19 521/1319/19 524/1320/19
f 536/1321/15 535/1322/15 534/1323/15 533/1324/15
f 533/1325/16 534/1326/16 530/1327/16 529/1328/16
f 534/1329/17 535/1330/17 531/1331/17 530/1332/17
f 535/1333/18 536/1334/18 532/1335/18 531/1336/18
f 536/1337/19 533/1338/19 529/1339/19 532/1340/19
f 544/1341/15 543/1342/15 542/1343/15 541/1344/15
f 541/1345/16 542/1346/16 538/1347/16 537/1348/16
f 542/1349/17 543/1350/17 539/1351/17 538/1352/17
f 543/1353/18 544/1354/18 540/1355/18 539/1356/18
f 544/1357/19 541/1358/19 537/1359/19 540/1360/19
f 552/1361/15 551/1362/15 550/1363/15 549/1364/15
f 549/1365/16 550/1366/16 546/1367/16 545/1368/16
f 550/1369/17 551/1370/17 547/1371/17 546/1372/17
f 551/1373/18 552/1374/18 548/1375/18 547/1376/18
f 552/1377/19 549/1378/19 545/1379/19 548/1380/19
f 560/1381/15 559/1382/15 558/1383/15 557/1384/15
f 557/1385/16 558/1386/16 554/1387/16 553/1388/16
f 558/1389/17 559/1390/17 555/1391/17 554/1392/17
f 559/1393/18 560/1394/18 556/1395/18 555/1396/18
f 560/1397/19 557/1398/19 553/1399/19 556/1400/19
f 568/1401/15 567/1402/15 566/1403/15 565/1404/15
f 565/1405/16 566/1406/16 562/1407/16 561/1408/16
f 566/1409/17 567/1410/17 563/1411/17 562/1412/17
f 567/1413/18 568/1414/18 564/1415/18 563/1416/18
f 568/1417/19 565/1418/19 561/1419/19 564/1420/19
f 576/1421/15 575/1422/15 574/1423/15 573/1424/15
f 573/1425/16 574/1426/16 570/1427/16 569/1428/16
f 574/1429/17 575/1430/17 571/1431/17 570/1432/17
f 575/1433/18 576/1434/18 572/1435/18 571/1436/18
f 576/1437/19 573/1438/19 569/1439/19 572/1440/19
f 584/1441/15 583/1442/15 582/1443/15 581/1444/15
f 581/1445/16 582/1446/16 578/1447/16 577/1448/16
f 582/1449/17 583/1450/17 579/1451/17 578/1452/17
f 583/1453/18 584/1454/18 580/1455/18 579/1456/18
f 584/1457/19 581/1458/19 577/1459/19 580/1460/19
f 592/1461/15 591/1462/15 590/1463/15 589/1464/15
f 589/1465/16 590/1466/16 586/1467/16 585/1468/16
f 590/1469/17 591/1470/17 587/1471/17 586/1472/17
f 591/1473/18 592/1474/18 588/1475/18 587/1476/18
f 592/1477/19 589/1478/19 585/1479/19 588/1480/19
f 600/1481/15 599/1482/15 598/1483/15 597/1484/15
f 597/1485/16 598/1486/16 594/1487/16 593/1488/16
f 598/1489/17 599/1490/17 595/1491/17 594/1492/17
f 599/1493/18 600/1494/18 596/1495/18 595/1496/18
f 600/1497/19 597/1498/19 593/1499/19 596/1500/19
f 608/1501/15 607/1502/15 606/1503/15 605/1504/15
f 605/1505/16 606/1506/16 602/1507/16 601/1508/16
f 606/1509/17 607/1510/17 603/1511/17 602/1512/17
f 607/1513/18 608/1514/18 604/1515/18 603/1516/18
f 608/1517/19 605/1518/19 601/1519/19 604/1520/19
f 616/1521/15 615/1522/15 614/1523/15 613/1524/15
f 613/1525/16 614/1526/16 610/1527/16 609/1528/16
f 614/1529/17 615/1530/17 611/1531/17 610/1532/17
f 615/1533/18 616/1534/18 612/1535/18 611/1536/18
f 616/1537/19 613/1538/19 609/1539/19 612/1540/19
f 624/1541/15 623/1542/15 622/1543/15 621/1544/15
f 621/1545/16 622/1546/16 618/1547/16 617/1548/16
f 622/1549/17 623/1550/17 619/1551/17 618/1552/17
f 623/1553/18 624/1554/18 620/1555/18 619/1556/18
f 624/1557/19 621/1558/19 617/1559/19 620/1560/19
f 632/1561/15 631/1562/15 630/1563/15 629/1564/15
f 629/1565/16 630/1566/16 626/1567/16 625/1568/16
f 630/1569/17 631/1570/17 627/1571/17 626/1572/17
f 631/1573/18 632/1574/18 628/1575/18 627/1576/18
f 632/1577/19 629/1578/19 625/1579/19 628/1580/19
f 640/1581/15 639/1582/15 638/1583/15 637/1584/15
f 637/1585/16 638/1586/16 634/1587/16 633/1588/16
f 638/1589/17 639/1590/17 635/1591/17 634/1592/17
f 639/1593/18 640/1594/18 636/1595/18 635/1596/18
f 640/1597/19 637/1598/19 633/1599/19 636/1600/19
f 648/1601/15 647/1602/15 646/1603/15 645/1604/15
f 645/1605/16 646/1606/16 642/1607/16 641/1608/16
f 646/1609/17 647/1610/17 643/1611/17 642/1612/17
f 647/1613/18 648/1614/18 644/1615/18 643/1616/18
f 648/1617/19 645/1618/19 641/1619/19 644/1620/19
f 656/1621/15 655/1622/15 654/1623/15 653/1624/15
f 653/1625/16 654/1626/16 650/1627/16 649/1628/16
f 654/1629/17 655/1630/17 651/1631/17 650/1632/17
f 655/1633/18 656/1634/18 652/1635/18 651/1636/18
f 656/1637/19 653/1638/19 649/1639/19 652/1640/19
f 664/1641/15 663/1642/15 662/1643/15 661/1644/15
f 661/1645/16 662/1646/16 658/1647/16 657/1648/16
f 662/1649/17 663/1650/17 659/1651/17 658/1652/17
f 663/1653/18 664/1654/18 660/1655/18 659/1656/18
f 664/1657/19 661/1658/19 657/1659/19 660/1660/19
f 672/1661/15 671/1662/15 670/1663/15 669/1664/15
f 669/1665/16 670/1666/16 666/1667/16 665/1668/16
f 670/1669/17 671/1670/17 667/1671/17 666/1672/17
f 671/1673/18 672/1674/18 668/1675/18 667/1676/18
f 672/1677/19 669/1678/19 665/1679/19 668/1680/19
f 680/1681/15 679/1682/15 678/1683/15 677/1684/15
f 677/1685/16 678/1686/16 674/1687/16 673/1688/16
f 678/1689/17 679/1690/17 675/1691/17 674/1692/17
f 679/1693/18 680/1694/18 676/1695/18 675/1696/18
f 680/1697/19 677/1698/19 673/1699/19 676/1700/19
f 688/1701/15 687/1702/15 686/1703/15 685/1704/15
f 685/1705/16 686/1706/16 682/1707/16 681/1708/16
f 686/1709/17 687/1710/17 683/1711/17 682/1712/17
f 687/1713/18 688/1714/18 684/1715/18 683/1716/18
f 688/1717/19 685/1718/19 681/1719/19 684/1720/19
f 696/1721/15 695/1722/15 694/1723/15 693/1724/15
f 693/1725/16 694/1726/16 690/1727/16 689/1728/16
f 694/1729/17 695/1730/17 691/1731/17 690/1732/17
f 695/1733/18 696/1734/18 692/1735/18 691/1736/18
f 696/1737/19 693/1738/19 689/1739/19 692/1740/19
f 704/1741/15 703/1742/15 702/1743/15 701/1744/15
f 701/1745/16 702/1746/16 698/1747/16 697/1748/16
f 702/1749/17 703/1750/17 699/1751/17 698/1752/17
f 703/1753/18 704/1754/18 700/1755/18 699/1756/18
f 704/1757/19 701/1758/19 697/1759/19 700/1760/19
f 712/1761/15 711/1762/15 710/1763/15 709/1764/15
f 709/1765/16 710/1766/16 706/1767/16 705/1768/16
f 710/1769/17 711/1770/17 707/1771/17 706/1772/17
f 711/1773/18 712/1774/18 708/1775/18 707/1776/18
f 712/1777/19 709/1778/19 705/1779/19 708/1780/19
f 720/1781/15 719/1782/15 718/1783/15 717/1784/15
f 717/1785/16 718/1786/16 714/1787/16 713/1788/16
f 718/1789/17 719/1790/17 715/1791/17 714/1792/17
f 719/1793/18 720/1794/18 716/1795/18 715/1796/18
f 720/1797/19 717/1798/19 713/1799/19 716/1800/19
f 728/1801/15 727/1802/15 726/1803/15 725/1804/15
f 725/1805/16 726/1806/16 722/1807/16 721/1808/16
f 726/1809/17 727/1810/17 723/1811/17 722/1812/17
f 727/1813/18 728/1814/18 724/1815/18 723/1816/18
f 728/1817/19 725/1818/19 721/1819/19 724/1820/19
f 736/1821/15 735/1822/15 734/1823/15 733/1824/15
f 733/1825/16 734/1826/16 730/1827/16 729/1828/16
f 734/1829/17 735/1830/17 731/1831/17 730/1832/17
f 735/1833/18 736/1834/18 732/1835/18 731/1836/18
f 736/1837/19 733/1838/19 729/1839/19 732/1840/19
f 744/1841/15 743/1842/15 742/1843/15 741/1844/15
f 741/1845/16 742/1846/16 738/1847/16 737/1848/16
f 742/1849/17 743/1850/17 739/1851/17 738/1852/17
f 743/1853/18 744/1854/18 740/1855/18 739/1856/18
f 744/1857/19 741/1858/19 737/1859/19 740/1860/19
f 752/1861/15 751/1862/15 750/1863/15 749/1864/15
f 749/1865/16 750/1866/16 746/1867/16 745/1868/16
f 750/1869/17 751/1870/17 747/1871/17 746/1872/17
f 751/1873/18 752/1874/18 748/1875/18 747/1876/18
f 752/1877/19 749/1878/19 745/1879/19 748/1880/19
f 760/1881/15 759/1882/15 758/1883/15 757/1884/15
f 757/1885/16 758/1886/16 754/1887/16 753/1888/16
f 758/1889/17 759/1890/17 755/1891/17 754/1892/17
f 759/1893/18 760/1894/18 756/1895/18 755/1896/18
f 760/1897/19 757/1898/19 753/1899/19 756/1900/19
f 768/1901/15 767/1902/15 766/1903/15 765/1904/15
f 765/1905/16 766/1906/16 762/1907/16 761/1908/16
f 766/1909/17 767/1910/17 763/1911/17 762/1912/17
f 767/1913/18 768/1914/18 764/1915/18 763/1916/18
f 768/1917/19 765/1918/19 761/1919/19 764/1920/19
f 776/1921/15 775/1922/15 774/1923/15 773/1924/15
f 773/1925/16 774/1926/16 770/1927/16 769/1928/16
f 774/1929/17 775/1930/17 771/1931/17 770/1932/17
f 775/1933/18 776/1934/18 772/1935/18 771/1936/18
f 776/1937/19 773/1938/19 769/1939/19 772/1940/19
f 784/1941/15 783/1942/15 782/1943/15 781/1944/15
f 781/1945/16 782/1946/16 778/1947/16 777/1948/16
f 782/1949/17 783/1950/17 779/1951/17 778/1952/17
f 783/1953/18 784/1954/18 780/1955/18 779/1956/18
f 784/1957/19 781/1958/19 777/1959/19 780/1960/19
f 792/1961/15 791/1962/15 790/1963/15 789/1964/15
f 789/1965/16 790/1966/16 786/1967/16 785/1968/16
f 790/1969/17 791/1970/17 787/1971/17 786/1972/17
f 791/1973/18 792/1974/18 788/1975/18 787/1976/18
f 792/1977/19 789/1978/19 785/1979/19 788/1980/19
f 800/1981/15 799/1982/15 798/1983/15 797/1984/15
f 797/1985/16 798/1986/16 794/1987/16 793/1988/16
f 798/1989/17 799/1990/17 795/1991/17 794/1992/17
f 799/1993/18 800/1994/18 796/1995/18 795/1996/18
f 800/1997/19 797/1998/19 793/1999/19 796/2000/19
f 808/2001/15 807/2002/15 806/2003/15 805/2004/15
f 805/2005/16 806/2006/16 802/2007/16 801/2008/16
f 806/2009/17 807/2010/17 803/2011/17 802/2012/17
f 807/2013/18 808/2014/18 804/2015/18 803/2016/18
f 808/2017/19 805/2018/19 801/2019/19 804/2020/19
f 816/2021/15 815/2022/15 814/2023/15 813/2024/15
f 813/2025/16 814/2026/16 810/2027/16 809/2028/16
f 814/2029/17 815/2030/17 811/2031/17 810/2032/17
f 815/2033/18 816/2034/18 812/2035/18 811/2036/18
f 816/2037/19 813/2038/19 809/2039/19 812/2040/19
f 824/2041/15 823/2042/15 822/2043/15 821/2044/15
f 821/2045/16 822/2046/16 818/2047/16 817/2048/16
f 822/2049/17 823/2050/17 819/2051/17 818/2052/17
f 823/2053/18 824/2054/18 820/2055/18 819/2056/18
f 824/2057/19 821/2058/19 817/2059/19 820/2060/19
f 832/2061/15 831/2062/15 830/2063/15 829/2064/15
f 829/2065/16 830/2066/16 826/2067/16 825/2068/16
f 830/2069/17 831/2070/17 827/2071/17 826/2072/17
f 831/2073/18 832/2074/18 828/2075/18 827/2076/18
f 832/2077/19 829/2078/19 825/2079/19 828/2080/19
f 840/2081/15 839/2082/15 838/2083/15 837/2084/15
f 837/2085/16 838/2086/16 834/2087/16 833/2088/16
f 838/2089/17 839/2090/17 835/2091/17 834/2092/17
f 839/2093/18 840/2094/18 836/2095/18 835/2096/18
f 840/2097/19 837/2098/19 833/2099/19 836/2100/19
f 848/2101/15 847/2102/15 846/2103/15 845/2104/15
f 845/2105/16 846/2106/16 842/2107/16 841/2108/16
f 846/2109/17 847/2110/17 843/2111/17 842/2112/17
f 847/2113/18 848/2114/18 844/2115/18 843/2116/18
f 848/2117/19 845/2118/19 841/2119/19 844/2120/19
f 856/2121/15 855/2122/15 854/2123/15 853/2124/15
f 853/2125/16 854/2126/16 850/2127/16 849/2128/16
f 854/2129/17 855/2130/17 851/2131/17 850/2132/17
f 855/2133/18 856/2134/18 852/2135/18 851/2136/18
f 856/2137/19 853/2138/19 849/2139/19 852/2140/19
