# AFL Office Props V2 mouse (on desk), generated by tools/build-office-props-v2.mjs
mtllib office_mouse_lowered.mtl
o mouse_shell
usemtl mouse
v 0.501763 -0.15625 0.409375
v 0.501875 -0.14625 0.409375
v 0.501826 -0.140947 0.409375
v 0.501679 -0.137449 0.409375
v 0.501436 -0.13476 0.409375
v 0.5011 -0.132821 0.409375
v 0.500663 -0.131645 0.409375
v 0.5 -0.13125 0.409375
v 0.499337 -0.131645 0.409375
v 0.4989 -0.132821 0.409375
v 0.498564 -0.13476 0.409375
v 0.498321 -0.137449 0.409375
v 0.498174 -0.140947 0.409375
v 0.498125 -0.14625 0.409375
v 0.498237 -0.15625 0.409375
v 0.517308 -0.15625 0.41065
v 0.518412 -0.14625 0.41065
v 0.517928 -0.14077 0.41065
v 0.516484 -0.137157 0.41065
v 0.514103 -0.134378 0.41065
v 0.510803 -0.132375 0.41065
v 0.50651 -0.131159 0.41065
v 0.5 -0.130752 0.41065
v 0.49349 -0.131159 0.41065
v 0.489197 -0.132375 0.41065
v 0.485897 -0.134378 0.41065
v 0.483516 -0.137157 0.41065
v 0.482072 -0.14077 0.41065
v 0.481588 -0.14625 0.41065
v 0.482692 -0.15625 0.41065
v 0.527216 -0.15625 0.413625
v 0.528954 -0.14625 0.413625
v 0.528192 -0.140257 0.413625
v 0.525921 -0.136304 0.413625
v 0.522178 -0.133266 0.413625
v 0.516988 -0.131074 0.413625
v 0.510237 -0.129745 0.413625
v 0.5 -0.129299 0.413625
v 0.489763 -0.129745 0.413625
v 0.483012 -0.131074 0.413625
v 0.477822 -0.133266 0.413625
v 0.474079 -0.136304 0.413625
v 0.471808 -0.140257 0.413625
v 0.471046 -0.14625 0.413625
v 0.472784 -0.15625 0.413625
v 0.536482 -0.15625 0.418938
v 0.538811 -0.14625 0.418938
v 0.53779 -0.139044 0.418938
v 0.534746 -0.134292 0.418938
v 0.529729 -0.130639 0.418938
v 0.522772 -0.128004 0.418938
v 0.513722 -0.126405 0.418938
v 0.5 -0.125869 0.418938
v 0.486278 -0.126405 0.418938
v 0.477228 -0.128004 0.418938
v 0.470271 -0.130639 0.418938
v 0.465254 -0.134292 0.418938
v 0.46221 -0.139044 0.418938
v 0.461189 -0.14625 0.418938
v 0.463518 -0.15625 0.418938
v 0.545982 -0.15625 0.4285
v 0.548917 -0.14625 0.4285
v 0.54763 -0.136279 0.4285
v 0.543793 -0.129702 0.4285
v 0.53747 -0.124647 0.4285
v 0.528701 -0.121001 0.4285
v 0.517295 -0.118789 0.4285
v 0.5 -0.118047 0.4285
v 0.482705 -0.118789 0.4285
v 0.471299 -0.121001 0.4285
v 0.46253 -0.124647 0.4285
v 0.456207 -0.129702 0.4285
v 0.45237 -0.136279 0.4285
v 0.451083 -0.14625 0.4285
v 0.454018 -0.15625 0.4285
v 0.55415 -0.15625 0.443375
v 0.557607 -0.14625 0.443375
v 0.556091 -0.132067 0.443375
v 0.551573 -0.122712 0.443375
v 0.544126 -0.115521 0.443375
v 0.5338 -0.110335 0.443375
v 0.520367 -0.107189 0.443375
v 0.5 -0.106133 0.443375
v 0.479633 -0.107189 0.443375
v 0.4662 -0.110335 0.443375
v 0.455874 -0.115521 0.443375
v 0.448427 -0.122712 0.443375
v 0.443909 -0.132067 0.443375
v 0.442393 -0.14625 0.443375
v 0.44585 -0.15625 0.443375
v 0.559359 -0.15625 0.4625
v 0.563147 -0.14625 0.4625
v 0.561486 -0.129315 0.4625
v 0.556533 -0.118146 0.4625
v 0.54837 -0.10956 0.4625
v 0.53705 -0.103368 0.4625
v 0.522326 -0.099611 0.4625
v 0.5 -0.09835 0.4625
v 0.477674 -0.099611 0.4625
v 0.46295 -0.103368 0.4625
v 0.45163 -0.10956 0.4625
v 0.443467 -0.118146 0.4625
v 0.438514 -0.129315 0.4625
v 0.436853 -0.14625 0.4625
v 0.440641 -0.15625 0.4625
v 0.561462 -0.15625 0.48375
v 0.565385 -0.14625 0.48375
v 0.563664 -0.128172 0.48375
v 0.558536 -0.116249 0.48375
v 0.550084 -0.107084 0.48375
v 0.538363 -0.100474 0.48375
v 0.523117 -0.096464 0.48375
v 0.5 -0.095118 0.48375
v 0.476883 -0.096464 0.48375
v 0.461637 -0.100474 0.48375
v 0.449916 -0.107084 0.48375
v 0.441464 -0.116249 0.48375
v 0.436336 -0.128172 0.48375
v 0.434615 -0.14625 0.48375
v 0.438538 -0.15625 0.48375
v 0.561358 -0.15625 0.505
v 0.565274 -0.14625 0.505
v 0.563556 -0.128397 0.505
v 0.558437 -0.116623 0.505
v 0.549999 -0.107571 0.505
v 0.538298 -0.101044 0.505
v 0.523078 -0.097083 0.505
v 0.5 -0.095754 0.505
v 0.476922 -0.097083 0.505
v 0.461702 -0.101044 0.505
v 0.450001 -0.107571 0.505
v 0.441563 -0.116623 0.505
v 0.436444 -0.128397 0.505
v 0.434726 -0.14625 0.505
v 0.438642 -0.15625 0.505
v 0.559827 -0.15625 0.52625
v 0.563646 -0.14625 0.52625
v 0.561971 -0.129506 0.52625
v 0.556979 -0.118462 0.52625
v 0.548751 -0.109973 0.52625
v 0.537343 -0.103851 0.52625
v 0.522502 -0.100136 0.52625
v 0.5 -0.09889 0.52625
v 0.477498 -0.100136 0.52625
v 0.462657 -0.103851 0.52625
v 0.451249 -0.109973 0.52625
v 0.443021 -0.118462 0.52625
v 0.438029 -0.129506 0.52625
v 0.436354 -0.14625 0.52625
v 0.440173 -0.15625 0.52625
v 0.557124 -0.15625 0.5475
v 0.56077 -0.14625 0.5475
v 0.559171 -0.130954 0.5475
v 0.554405 -0.120867 0.5475
v 0.546549 -0.113112 0.5475
v 0.535656 -0.107519 0.5475
v 0.521486 -0.104126 0.5475
v 0.5 -0.102988 0.5475
v 0.478514 -0.104126 0.5475
v 0.464344 -0.107519 0.5475
v 0.453451 -0.113112 0.5475
v 0.445595 -0.120867 0.5475
v 0.440829 -0.130954 0.5475
v 0.43923 -0.14625 0.5475
v 0.442876 -0.15625 0.5475
v 0.552593 -0.15625 0.56875
v 0.55595 -0.14625 0.56875
v 0.554478 -0.132837 0.56875
v 0.550089 -0.123992 0.56875
v 0.542857 -0.117192 0.56875
v 0.532827 -0.112288 0.56875
v 0.519781 -0.109312 0.56875
v 0.5 -0.108314 0.56875
v 0.480219 -0.109312 0.56875
v 0.467173 -0.112288 0.56875
v 0.457143 -0.117192 0.56875
v 0.449911 -0.123992 0.56875
v 0.445522 -0.132837 0.56875
v 0.44405 -0.14625 0.56875
v 0.447407 -0.15625 0.56875
v 0.546031 -0.15625 0.587875
v 0.54897 -0.14625 0.587875
v 0.547681 -0.134936 0.587875
v 0.54384 -0.127475 0.587875
v 0.53751 -0.121739 0.587875
v 0.528732 -0.117602 0.587875
v 0.517314 -0.115092 0.587875
v 0.5 -0.11425 0.587875
v 0.482686 -0.115092 0.587875
v 0.471268 -0.117602 0.587875
v 0.46249 -0.121739 0.587875
v 0.45616 -0.127475 0.587875
v 0.452319 -0.134936 0.587875
v 0.45103 -0.14625 0.587875
v 0.453969 -0.15625 0.587875
v 0.537918 -0.15625 0.60275
v 0.540339 -0.14625 0.60275
v 0.539277 -0.137079 0.60275
v 0.536113 -0.131031 0.60275
v 0.530899 -0.126382 0.60275
v 0.523668 -0.123029 0.60275
v 0.514262 -0.120995 0.60275
v 0.5 -0.120312 0.60275
v 0.485738 -0.120995 0.60275
v 0.476332 -0.123029 0.60275
v 0.469101 -0.126382 0.60275
v 0.463887 -0.131031 0.60275
v 0.460723 -0.137079 0.60275
v 0.459661 -0.14625 0.60275
v 0.462082 -0.15625 0.60275
v 0.529528 -0.15625 0.612313
v 0.531413 -0.14625 0.612313
v 0.530586 -0.138318 0.612313
v 0.528123 -0.133087 0.612313
v 0.524062 -0.129065 0.612313
v 0.518431 -0.126165 0.612313
v 0.511106 -0.124405 0.612313
v 0.5 -0.123815 0.612313
v 0.488894 -0.124405 0.612313
v 0.481569 -0.126165 0.612313
v 0.475938 -0.129065 0.612313
v 0.471877 -0.133087 0.612313
v 0.469414 -0.138318 0.612313
v 0.468587 -0.14625 0.612313
v 0.470472 -0.15625 0.612313
v 0.521807 -0.15625 0.617625
v 0.523199 -0.14625 0.617625
v 0.522589 -0.138857 0.617625
v 0.520769 -0.133982 0.617625
v 0.51777 -0.130234 0.617625
v 0.513612 -0.127531 0.617625
v 0.508202 -0.125891 0.617625
v 0.5 -0.125341 0.617625
v 0.491798 -0.125891 0.617625
v 0.486388 -0.127531 0.617625
v 0.48223 -0.130234 0.617625
v 0.479231 -0.133982 0.617625
v 0.477411 -0.138857 0.617625
v 0.476801 -0.14625 0.617625
v 0.478193 -0.15625 0.617625
v 0.513791 -0.15625 0.6206
v 0.514671 -0.14625 0.6206
v 0.514285 -0.139094 0.6206
v 0.513134 -0.134375 0.6206
v 0.511238 -0.130747 0.6206
v 0.508608 -0.12813 0.6206
v 0.505187 -0.126543 0.6206
v 0.5 -0.12601 0.6206
v 0.494813 -0.126543 0.6206
v 0.491392 -0.12813 0.6206
v 0.488762 -0.130747 0.6206
v 0.486866 -0.134375 0.6206
v 0.485715 -0.139094 0.6206
v 0.485329 -0.14625 0.6206
v 0.486209 -0.15625 0.6206
v 0.501763 -0.15625 0.621875
v 0.501875 -0.14625 0.621875
v 0.501826 -0.139179 0.621875
v 0.501679 -0.134515 0.621875
v 0.501436 -0.13093 0.621875
v 0.5011 -0.128345 0.621875
v 0.500663 -0.126776 0.621875
v 0.5 -0.12625 0.621875
v 0.499337 -0.126776 0.621875
v 0.4989 -0.128345 0.621875
v 0.498564 -0.13093 0.621875
v 0.498321 -0.134515 0.621875
v 0.498174 -0.139179 0.621875
v 0.498125 -0.14625 0.621875
v 0.498237 -0.15625 0.621875
v 0.5 -0.139433 0.409375
v 0.5 -0.136716 0.621875
vt 0.29636 0.369264
vt 0.29608 0.394103
vt 0.254918 0.394139
vt 0.257661 0.369302
vt 0.29608 0.394103
vt 0.296203 0.407276
vt 0.256121 0.407751
vt 0.254918 0.394139
vt 0.296203 0.407276
vt 0.296568 0.415964
vt 0.259707 0.41673
vt 0.256121 0.407751
vt 0.296568 0.415964
vt 0.29717 0.422643
vt 0.265618 0.423634
vt 0.259707 0.41673
vt 0.29717 0.422643
vt 0.298004 0.42746
vt 0.273813 0.428615
vt 0.265618 0.423634
vt 0.298004 0.42746
vt 0.29909 0.430383
vt 0.284474 0.431641
vt 0.90757 0.048828
vt 0.896484 0.048828
vt 0.919376 0.040563
vt 0.056641 0.021484
vt 0.056641 0.019568
vt 0.059982 0.018934
vt 0.488346 0.568213
vt 0.472143 0.568115
vt 0.486585 0.564401
vt 0.857422 0.040821
vt 0.859315 0.040552
vt 0.872357 0.047791
vt 0.504444 0.567097
vt 0.488346 0.568213
vt 0.488281 0.564936
vt 0.302382 0.430385
vt 0.303468 0.427463
vt 0.327466 0.428647
vt 0.883382 0.048828
vt 0.872357 0.047791
vt 0.859315 0.040552
vt 0.303468 0.427463
vt 0.304303 0.422647
vt 0.335662 0.423675
vt 0.327466 0.428647
vt 0.304303 0.422647
vt 0.304905 0.415969
vt 0.341572 0.416778
vt 0.335662 0.423675
vt 0.304905 0.415969
vt 0.30527 0.407281
vt 0.345158 0.407803
vt 0.341572 0.416778
vt 0.30527 0.407281
vt 0.305392 0.394108
vt 0.346361 0.394193
vt 0.345158 0.407803
vt 0.305392 0.394108
vt 0.305113 0.369269
vt 0.343618 0.369353
vt 0.346361 0.394193
vt 0.009766 0.841919
vt 0.009766 0.833161
vt 0.012933 0.794542
vt 0.012933 0.880538
vt 0.257661 0.369302
vt 0.254918 0.394139
vt 0.228516 0.394266
vt 0.23283 0.36943
vt 0.254918 0.394139
vt 0.256121 0.407751
vt 0.230408 0.409154
vt 0.228516 0.394266
vt 0.256121 0.407751
vt 0.259707 0.41673
vt 0.236047 0.418975
vt 0.230408 0.409154
vt 0.563331 0.070442
vt 0.572067 0.072631
vt 0.55684 0.087891
vt 0.544922 0.086856
vt 0.572067 0.072631
vt 0.581652 0.072319
vt 0.570602 0.085662
vt 0.55684 0.087891
vt 0.461333 0.566643
vt 0.472143 0.568115
vt 0.463081 0.576426
vt 0.446158 0.574977
vt 0.472143 0.568115
vt 0.488346 0.568213
vt 0.488536 0.576289
vt 0.463081 0.576426
vt 0.488346 0.568213
vt 0.504444 0.567097
vt 0.513875 0.574825
vt 0.488536 0.576289
vt 0.504444 0.567097
vt 0.514936 0.564953
vt 0.530451 0.57232
vt 0.513875 0.574825
vt 0.011703 0.431641
vt 0.011833 0.42205
vt 0.026599 0.406563
vt 0.024841 0.420372
vt 0.011833 0.42205
vt 0.009766 0.413365
vt 0.025504 0.39467
vt 0.026599 0.406563
vt 0.892953 0.430735
vt 0.895862 0.421584
vt 0.922338 0.421543
vt 0.917558 0.431641
vt 0.895862 0.421584
vt 0.896328 0.407926
vt 0.923385 0.406576
vt 0.922338 0.421543
vt 0.896328 0.407926
vt 0.892578 0.383257
vt 0.918172 0.381988
vt 0.923385 0.406576
vt 0.012933 0.880538
vt 0.012933 0.794542
vt 0.020324 0.769924
vt 0.020324 0.905156
vt 0.892578 0.103953
vt 0.917559 0.106961
vt 0.918429 0.134766
vt 0.893395 0.130471
vt 0.917559 0.106961
vt 0.932372 0.104839
vt 0.936229 0.131986
vt 0.918429 0.134766
vt 0.080078 0.328223
vt 0.081985 0.317169
vt 0.105478 0.328274
vt 0.103631 0.34209
vt 0.081985 0.317169
vt 0.080616 0.305323
vt 0.103097 0.313164
vt 0.105478 0.328274
vt 0.432996 0.572123
vt 0.446158 0.574977
vt 0.43221 0.590559
vt 0.414606 0.587184
vt 0.446158 0.574977
vt 0.463081 0.576426
vt 0.45487 0.592229
vt 0.43221 0.590559
vt 0.463081 0.576426
vt 0.488536 0.576289
vt 0.488983 0.591953
vt 0.45487 0.592229
vt 0.488536 0.576289
vt 0.513875 0.574825
vt 0.522956 0.590083
vt 0.488983 0.591953
vt 0.513875 0.574825
vt 0.530451 0.57232
vt 0.5452 0.586997
vt 0.522956 0.590083
vt 0.024841 0.420372
vt 0.026599 0.406563
vt 0.046979 0.394184
vt 0.044132 0.412294
vt 0.026599 0.406563
vt 0.025504 0.39467
vt 0.046192 0.378799
vt 0.046979 0.394184
vt 0.025504 0.39467
vt 0.021422 0.384658
vt 0.041604 0.366102
vt 0.046192 0.378799
vt 0.922338 0.421543
vt 0.923385 0.406576
vt 0.950959 0.405313
vt 0.949458 0.423321
vt 0.923385 0.406576
vt 0.918172 0.381988
vt 0.944378 0.3808
vt 0.950959 0.405313
vt 0.020324 0.905156
vt 0.020324 0.769924
vt 0.033522 0.746904
vt 0.033522 0.928176
vt 0.611841 0.134766
vt 0.611328 0.109268
vt 0.645294 0.102877
vt 0.644781 0.128759
vt 0.451266 0.084546
vt 0.451172 0.066466
vt 0.485764 0.062913
vt 0.48567 0.087891
vt 0.103631 0.34209
vt 0.105478 0.328274
vt 0.139313 0.335026
vt 0.136223 0.353516
vt 0.105478 0.328274
vt 0.103097 0.313164
vt 0.136898 0.315156
vt 0.139313 0.335026
vt 0.414606 0.587184
vt 0.43221 0.590559
vt 0.418412 0.620453
vt 0.396182 0.615715
vt 0.43221 0.590559
vt 0.45487 0.592229
vt 0.446999 0.622851
vt 0.418412 0.620453
vt 0.45487 0.592229
vt 0.488983 0.591953
vt 0.490004 0.622602
vt 0.446999 0.622851
vt 0.488983 0.591953
vt 0.522956 0.590083
vt 0.532815 0.620146
vt 0.490004 0.622602
vt 0.522956 0.590083
vt 0.5452 0.586997
vt 0.560824 0.615964
vt 0.532815 0.620146
vt 0.044132 0.412294
vt 0.046979 0.394184
vt 0.079727 0.385867
vt 0.076665 0.409124
vt 0.046979 0.394184
vt 0.046192 0.378799
vt 0.078003 0.365878
vt 0.079727 0.385867
vt 0.240234 0.083265
vt 0.240757 0.069268
vt 0.274808 0.063294
vt 0.274606 0.082207
vt 0.498047 0.084337
vt 0.498141 0.066257
vt 0.532545 0.062913
vt 0.532639 0.087891
vt 0.564453 0.128375
vt 0.564966 0.102877
vt 0.597906 0.108884
vt 0.598419 0.134766
vt 0.033522 0.928176
vt 0.033522 0.746904
vt 0.057279 0.723303
vt 0.057279 0.951777
vt 0.443777 0.291016
vt 0.443359 0.265149
vt 0.485238 0.258167
vt 0.485204 0.284453
vt 0.759929 0.288527
vt 0.759766 0.263551
vt 0.802817 0.255579
vt 0.802654 0.291016
vt 0.18211 0.087395
vt 0.181641 0.0685
vt 0.226354 0.062097
vt 0.225885 0.087891
vt 0.334546 0.084858
vt 0.333984 0.064767
vt 0.380308 0.062199
vt 0.380308 0.062199
vt 0.379609 0.087891
vt 0.334546 0.084858
vt 0.396182 0.615715
vt 0.418412 0.620453
vt 0.407154 0.666292
vt 0.380859 0.659386
vt 0.418412 0.620453
vt 0.446999 0.622851
vt 0.44089 0.669922
vt 0.407154 0.666292
vt 0.446999 0.622851
vt 0.490004 0.622602
vt 0.491557 0.669899
vt 0.44089 0.669922
vt 0.490004 0.622602
vt 0.532815 0.620146
vt 0.54195 0.666736
vt 0.491557 0.669899
vt 0.532815 0.620146
vt 0.560824 0.615964
vt 0.574864 0.661006
vt 0.54195 0.666736
vt 0.076665 0.409124
vt 0.079727 0.385867
vt 0.124842 0.383986
vt 0.122683 0.412557
vt 0.392578 0.085359
vt 0.393121 0.065267
vt 0.438186 0.062201
vt 0.438186 0.062201
vt 0.4389 0.087891
vt 0.392578 0.085359
vt 0.274606 0.082207
vt 0.274808 0.063294
vt 0.318211 0.062131
vt 0.319226 0.087891
vt 0.818359 0.283044
vt 0.818522 0.258068
vt 0.861248 0.255579
vt 0.86141 0.291016
vt 0.337891 0.279582
vt 0.338308 0.253715
vt 0.379736 0.260278
vt 0.379769 0.286564
vt 0.057279 0.951777
vt 0.057279 0.723303
vt 0.094234 0.703011
vt 0.094234 0.972069
vt 0.485204 0.284453
vt 0.485238 0.258167
vt 0.534211 0.253715
vt 0.533891 0.280268
vt 0.240274 0.351629
vt 0.240234 0.316193
vt 0.289146 0.310697
vt 0.289147 0.352973
vt 0.009885 0.181641
vt 0.009766 0.155847
vt 0.059037 0.150467
vt 0.059038 0.180821
vt 0.775618 0.134348
vt 0.775391 0.108647
vt 0.825799 0.105279
vt 0.825759 0.134712
vt 0.28767 0.5114
vt 0.28837 0.482819
vt 0.339211 0.484056
vt 0.338137 0.515845
vt 0.28837 0.482819
vt 0.287109 0.448887
vt 0.338014 0.446584
vt 0.339211 0.484056
vt 0.224866 0.564559
vt 0.275288 0.565991
vt 0.274385 0.617051
vt 0.219125 0.615408
vt 0.275288 0.565991
vt 0.325955 0.565917
vt 0.329937 0.616896
vt 0.274385 0.617051
vt 0.325955 0.565917
vt 0.359654 0.56412
vt 0.366914 0.614708
vt 0.329937 0.616896
vt 0.345703 0.179955
vt 0.345927 0.151261
vt 0.396472 0.149035
vt 0.39651 0.181089
vt 0.658203 0.129916
vt 0.658431 0.104215
vt 0.708571 0.103851
vt 0.708611 0.133284
vt 0.177734 0.17397
vt 0.177853 0.148176
vt 0.227007 0.148996
vt 0.227006 0.17935
vt 0.408203 0.345723
vt 0.408242 0.310287
vt 0.457115 0.308943
vt 0.457115 0.351219
vt 0.379769 0.286564
vt 0.379736 0.260278
vt 0.428422 0.264463
vt 0.428743 0.291016
vt 0.094234 0.972069
vt 0.094234 0.703011
vt 0.141748 0.690071
vt 0.141748 0.985009
vt 0.650392 0.226484
vt 0.650391 0.199917
vt 0.702766 0.197954
vt 0.702787 0.224639
vt 0.289147 0.352973
vt 0.289146 0.310697
vt 0.342231 0.3084
vt 0.342214 0.353516
vt 0.059038 0.180821
vt 0.059037 0.150467
vt 0.112214 0.148176
vt 0.112164 0.180418
vt 0.825759 0.134712
vt 0.825799 0.105279
vt 0.878813 0.103797
vt 0.878658 0.134766
vt 0.338137 0.515845
vt 0.339211 0.484056
vt 0.392233 0.484484
vt 0.391001 0.517578
vt 0.339211 0.484056
vt 0.338014 0.446584
vt 0.391067 0.445575
vt 0.392233 0.484484
vt 0.219125 0.615408
vt 0.274385 0.617051
vt 0.27401 0.669922
vt 0.216797 0.668191
vt 0.274385 0.617051
vt 0.329937 0.616896
vt 0.331536 0.669733
vt 0.27401 0.669922
vt 0.587891 0.613348
vt 0.58796 0.575623
vt 0.640324 0.573942
vt 0.640238 0.613067
vt 0.39651 0.181089
vt 0.396472 0.149035
vt 0.449414 0.148216
vt 0.449564 0.181641
vt 0.708611 0.133284
vt 0.708571 0.103851
vt 0.761471 0.103797
vt 0.761626 0.134766
vt 0.227006 0.17935
vt 0.227007 0.148996
vt 0.280133 0.149399
vt 0.280183 0.181641
vt 0.457115 0.351219
vt 0.457115 0.308943
vt 0.510183 0.3084
vt 0.510199 0.353516
vt 0.373047 0.230458
vt 0.373049 0.203891
vt 0.425444 0.205737
vt 0.425423 0.232422
vt 0.141748 0.985009
vt 0.141748 0.690071
vt 0.194541 0.684845
vt 0.194541 0.990234
vt 0.702787 0.224639
vt 0.702766 0.197954
vt 0.755476 0.198051
vt 0.755496 0.22473
vt 0.342214 0.353516
vt 0.342231 0.3084
vt 0.394551 0.30893
vt 0.394541 0.353489
vt 0.112164 0.180418
vt 0.112214 0.148176
vt 0.164398 0.148924
vt 0.164367 0.18082
vt 0.009973 0.133595
vt 0.009766 0.102642
vt 0.061894 0.103352
vt 0.062071 0.134079
vt 0.0104 0.517308
vt 0.009766 0.484117
vt 0.062103 0.484511
vt 0.06271 0.517578
vt 0.009766 0.484117
vt 0.010616 0.445318
vt 0.062968 0.445819
vt 0.062103 0.484511
vt 0.552887 0.957862
vt 0.552734 0.900338
vt 0.604658 0.90041
vt 0.604802 0.957835
vt 0.640658 0.669922
vt 0.640238 0.613067
vt 0.693043 0.612839
vt 0.693464 0.66959
vt 0.640238 0.613067
vt 0.640324 0.573942
vt 0.693124 0.573803
vt 0.693043 0.612839
vt 0.009766 0.230954
vt 0.009956 0.197541
vt 0.062081 0.197167
vt 0.06192 0.230441
vt 0.287109 0.134766
vt 0.287317 0.103812
vt 0.339414 0.103329
vt 0.339238 0.134056
vt 0.280183 0.181641
vt 0.280133 0.149399
vt 0.332336 0.148996
vt 0.332367 0.180893
vt 0.510199 0.353516
vt 0.510183 0.3084
vt 0.56251 0.308427
vt 0.56252 0.352986
vt 0.425423 0.232422
vt 0.425444 0.205737
vt 0.478152 0.205645
vt 0.478132 0.232325
vt 0.194541 0.990234
vt 0.194541 0.684845
vt 0.247334 0.685104
vt 0.247334 0.989976
vt 0.755496 0.22473
vt 0.755476 0.198051
vt 0.808402 0.19948
vt 0.808408 0.226073
vt 0.576244 0.353516
vt 0.576172 0.308959
vt 0.628771 0.311288
vt 0.628808 0.353095
vt 0.463098 0.180551
vt 0.462891 0.148669
vt 0.515618 0.151254
vt 0.515724 0.181358
vt 0.062071 0.134079
vt 0.061894 0.103352
vt 0.114984 0.105397
vt 0.115052 0.134766
vt 0.06271 0.517578
vt 0.062103 0.484511
vt 0.115393 0.484996
vt 0.115896 0.517007
vt 0.062103 0.484511
vt 0.062968 0.445819
vt 0.11629 0.44741
vt 0.115393 0.484996
vt 0.604802 0.957835
vt 0.604658 0.90041
vt 0.657899 0.900765
vt 0.658014 0.956753
vt 0.604658 0.90041
vt 0.605915 0.843286
vt 0.659098 0.845061
vt 0.657899 0.900765
vt 0.693043 0.612839
vt 0.693124 0.573803
vt 0.746207 0.574662
vt 0.746145 0.612646
vt 0.06192 0.230441
vt 0.062081 0.197167
vt 0.115217 0.197146
vt 0.115156 0.229311
vt 0.339238 0.134056
vt 0.339414 0.103329
vt 0.392395 0.102642
vt 0.392328 0.13201
vt 0.685547 0.181641
vt 0.685754 0.149759
vt 0.73838 0.148952
vt 0.738274 0.179056
vt 0.009766 0.291016
vt 0.009838 0.246459
vt 0.062401 0.24688
vt 0.062364 0.288686
vt 0.478132 0.232325
vt 0.478152 0.205645
vt 0.531064 0.204302
vt 0.531058 0.230895
vt 0.247334 0.989976
vt 0.247334 0.685104
vt 0.300127 0.688908
vt 0.300127 0.986172
vt 0.808408 0.226073
vt 0.808402 0.19948
vt 0.861505 0.202003
vt 0.861486 0.228445
vt 0.628808 0.353095
vt 0.628771 0.311288
vt 0.681972 0.314144
vt 0.681972 0.352351
vt 0.515724 0.181358
vt 0.515618 0.151254
vt 0.568991 0.153923
vt 0.568991 0.181641
vt 0.115052 0.134766
vt 0.114984 0.105397
vt 0.168603 0.107069
vt 0.168558 0.134492
vt 0.115896 0.517007
vt 0.115393 0.484996
vt 0.169109 0.484626
vt 0.169497 0.514949
vt 0.115393 0.484996
vt 0.11629 0.44741
vt 0.170021 0.448884
vt 0.169109 0.484626
vt 0.658014 0.956753
vt 0.657899 0.900765
vt 0.711648 0.90123
vt 0.71173 0.954682
vt 0.657899 0.900765
vt 0.659098 0.845061
vt 0.712766 0.848036
vt 0.711648 0.90123
vt 0.746145 0.612646
vt 0.746207 0.574662
vt 0.799407 0.576847
vt 0.799366 0.613036
vt 0.115156 0.229311
vt 0.115217 0.197146
vt 0.168847 0.198377
vt 0.168891 0.228797
vt 0.392328 0.13201
vt 0.392395 0.102642
vt 0.445902 0.102915
vt 0.445947 0.130339
vt 0.738274 0.179056
vt 0.73838 0.148952
vt 0.791647 0.148669
vt 0.791647 0.176387
vt 0.062364 0.288686
vt 0.062401 0.24688
vt 0.115566 0.247623
vt 0.115565 0.28583
vt 0.531058 0.230895
vt 0.531064 0.204302
vt 0.584143 0.20193
vt 0.584161 0.228372
vt 0.300127 0.986172
vt 0.300127 0.688908
vt 0.35292 0.695622
vt 0.35292 0.979458
vt 0.861486 0.228445
vt 0.861505 0.202003
vt 0.914884 0.206234
vt 0.914825 0.232422
vt 0.681972 0.352351
vt 0.681972 0.314144
vt 0.736108 0.317584
vt 0.736074 0.351105
vt 0.568991 0.181641
vt 0.568991 0.153923
vt 0.623335 0.156361
vt 0.623237 0.180888
vt 0.168558 0.134492
vt 0.168603 0.107069
vt 0.222983 0.107787
vt 0.222836 0.132437
vt 0.169497 0.514949
vt 0.169109 0.484626
vt 0.223399 0.482686
vt 0.223667 0.51037
vt 0.713177 0.990234
vt 0.71173 0.954682
vt 0.766093 0.951041
vt 0.767347 0.983756
vt 0.71173 0.954682
vt 0.711648 0.90123
vt 0.766044 0.901834
vt 0.766093 0.951041
vt 0.711648 0.90123
vt 0.712766 0.848036
vt 0.767047 0.852854
vt 0.766044 0.901834
vt 0.009766 0.577342
vt 0.011264 0.541398
vt 0.065125 0.547003
vt 0.063874 0.580053
vt 0.168891 0.228797
vt 0.168847 0.198377
vt 0.223167 0.201804
vt 0.223305 0.22953
vt 0.445947 0.130339
vt 0.445902 0.102915
vt 0.50018 0.104971
vt 0.500327 0.12962
vt 0.791647 0.176387
vt 0.791647 0.148669
vt 0.845894 0.149422
vt 0.845991 0.173949
vt 0.115565 0.28583
vt 0.115566 0.247623
vt 0.169668 0.248869
vt 0.169702 0.28239
vt 0.584161 0.228372
vt 0.584143 0.20193
vt 0.637481 0.197954
vt 0.637541 0.224142
vt 0.35292 0.979458
vt 0.35292 0.695622
vt 0.405713 0.70688
vt 0.405713 0.9682
vt 0.654713 0.280794
vt 0.654297 0.254609
vt 0.704501 0.259471
vt 0.704517 0.285365
vt 0.736074 0.351105
vt 0.736108 0.317584
vt 0.786091 0.321013
vt 0.78604 0.349301
vt 0.623237 0.180888
vt 0.623335 0.156361
vt 0.673496 0.157551
vt 0.673349 0.178388
vt 0.222836 0.132437
vt 0.222983 0.107787
vt 0.272833 0.106431
vt 0.272636 0.127625
vt 0.223667 0.51037
vt 0.223399 0.482686
vt 0.27287 0.47836
vt 0.273048 0.502442
vt 0.767347 0.983756
vt 0.766093 0.951041
vt 0.815629 0.945572
vt 0.816677 0.974195
vt 0.766093 0.951041
vt 0.766044 0.901834
vt 0.815602 0.902508
vt 0.815629 0.945572
vt 0.766044 0.901834
vt 0.767047 0.852854
vt 0.816463 0.859635
vt 0.815602 0.902508
vt 0.063874 0.580053
vt 0.065125 0.547003
vt 0.114639 0.555577
vt 0.113625 0.584476
vt 0.223305 0.22953
vt 0.223167 0.201804
vt 0.272828 0.208335
vt 0.273012 0.232422
vt 0.500327 0.12962
vt 0.50018 0.104971
vt 0.54998 0.109782
vt 0.550176 0.130977
vt 0.845991 0.173949
vt 0.845894 0.149422
vt 0.896005 0.151922
vt 0.896152 0.172758
vt 0.169702 0.28239
vt 0.169668 0.248869
vt 0.219634 0.250673
vt 0.219685 0.278961
vt 0.548828 0.291016
vt 0.549245 0.26483
vt 0.599049 0.26026
vt 0.599032 0.286154
vt 0.405713 0.9682
vt 0.405713 0.70688
vt 0.453227 0.72318
vt 0.453227 0.951899
vt 0.704517 0.285365
vt 0.704501 0.259471
vt 0.746605 0.265482
vt 0.746128 0.291016
vt 0.611328 0.407056
vt 0.613152 0.378919
vt 0.655114 0.384048
vt 0.653609 0.406854
vt 0.009766 0.087891
vt 0.009817 0.067042
vt 0.052191 0.066204
vt 0.052085 0.08316
vt 0.362946 0.431641
vt 0.361328 0.410614
vt 0.402463 0.403571
vt 0.403708 0.420785
vt 0.361328 0.410614
vt 0.363478 0.386812
vt 0.404296 0.384041
vt 0.402463 0.403571
vt 0.791016 0.431641
vt 0.791394 0.40261
vt 0.83169 0.398859
vt 0.831345 0.422753
vt 0.117113 0.669922
vt 0.114643 0.627442
vt 0.154495 0.625694
vt 0.15652 0.66069
vt 0.114643 0.627442
vt 0.113625 0.584476
vt 0.153647 0.590305
vt 0.154495 0.625694
vt 0.113625 0.584476
vt 0.114639 0.555577
vt 0.154454 0.566508
vt 0.153647 0.590305
vt 0.114639 0.555577
vt 0.117321 0.532724
vt 0.156616 0.547699
vt 0.154454 0.566508
vt 0.232825 0.270396
vt 0.232422 0.249183
vt 0.273806 0.256856
vt 0.274218 0.274199
vt 0.095755 0.082592
vt 0.095703 0.061744
vt 0.138023 0.066475
vt 0.138129 0.083431
vt 0.702996 0.431641
vt 0.701172 0.403504
vt 0.743453 0.403705
vt 0.744958 0.426512
vt 0.599032 0.286154
vt 0.599049 0.26026
vt 0.640659 0.254609
vt 0.641137 0.280142
vt 0.453227 0.951899
vt 0.453227 0.72318
vt 0.490182 0.743337
vt 0.490182 0.931743
vt 0.657488 0.431641
vt 0.653609 0.406854
vt 0.686 0.406646
vt 0.689053 0.431445
vt 0.653609 0.406854
vt 0.655114 0.384048
vt 0.68716 0.386922
vt 0.686 0.406646
vt 0.052085 0.08316
vt 0.052191 0.066204
vt 0.083134 0.061744
vt 0.083389 0.076102
vt 0.403708 0.420785
vt 0.402463 0.403571
vt 0.430595 0.393315
vt 0.432027 0.407283
vt 0.402463 0.403571
vt 0.404296 0.384041
vt 0.43169 0.377701
vt 0.430595 0.393315
vt 0.831345 0.422753
vt 0.83169 0.398859
vt 0.857513 0.393338
vt 0.857419 0.412052
vt 0.15652 0.66069
vt 0.154495 0.625694
vt 0.179775 0.624685
vt 0.181403 0.65192
vt 0.154495 0.625694
vt 0.153647 0.590305
vt 0.179165 0.597109
vt 0.179775 0.624685
vt 0.153647 0.590305
vt 0.154454 0.566508
vt 0.179945 0.578527
vt 0.179165 0.597109
vt 0.154454 0.566508
vt 0.156616 0.547699
vt 0.181878 0.563796
vt 0.179945 0.578527
vt 0.274218 0.274199
vt 0.273806 0.256856
vt 0.303289 0.26759
vt 0.303181 0.281788
vt 0.138129 0.083431
vt 0.138023 0.066475
vt 0.169327 0.073532
vt 0.169071 0.087891
vt 0.744958 0.426512
vt 0.743453 0.403705
vt 0.775844 0.403913
vt 0.777004 0.423638
vt 0.743453 0.403705
vt 0.747332 0.378919
vt 0.778896 0.379115
vt 0.775844 0.403913
vt 0.490182 0.931743
vt 0.490182 0.743337
vt 0.513938 0.764181
vt 0.513938 0.910899
vt 0.009766 0.309528
vt 0.03398 0.303041
vt 0.036123 0.327102
vt 0.01178 0.332503
vt 0.03398 0.303041
vt 0.053793 0.303016
vt 0.054547 0.326727
vt 0.036123 0.327102
vt 0.053793 0.303016
vt 0.06736 0.307232
vt 0.067068 0.329605
vt 0.054547 0.326727
vt 0.432027 0.407283
vt 0.430595 0.393315
vt 0.447817 0.382054
vt 0.449769 0.393461
vt 0.430595 0.393315
vt 0.43169 0.377701
vt 0.44798 0.369735
vt 0.44798 0.369735
vt 0.447817 0.382054
vt 0.430595 0.393315
vt 0.857419 0.412052
vt 0.857513 0.393338
vt 0.871742 0.38725
vt 0.872011 0.401278
vt 0.181403 0.65192
vt 0.179775 0.624685
vt 0.193457 0.624245
vt 0.194757 0.644326
vt 0.179775 0.624685
vt 0.179165 0.597109
vt 0.193105 0.603846
vt 0.193457 0.624245
vt 0.179165 0.597109
vt 0.179945 0.578527
vt 0.193974 0.590025
vt 0.193105 0.603846
vt 0.647319 0.071591
vt 0.663035 0.071123
vt 0.650979 0.087891
vt 0.650979 0.087891
vt 0.638672 0.087529
vt 0.647319 0.071591
vt 0.303181 0.281788
vt 0.303289 0.26759
vt 0.322418 0.279188
vt 0.321505 0.291016
vt 0.168565 0.308641
vt 0.182539 0.305684
vt 0.179788 0.329273
vt 0.167007 0.331001
vt 0.182539 0.305684
vt 0.202248 0.307475
vt 0.198076 0.331287
vt 0.179788 0.329273
vt 0.202248 0.307475
vt 0.22561 0.316045
vt 0.221688 0.338794
vt 0.198076 0.331287
vt 0.513938 0.910899
vt 0.513938 0.764181
vt 0.527137 0.783362
vt 0.527137 0.891718
vt 0.01178 0.332503
vt 0.036123 0.327102
vt 0.038349 0.349244
vt 0.013872 0.353516
vt 0.036123 0.327102
vt 0.054547 0.326727
vt 0.056129 0.348428
vt 0.038349 0.349244
vt 0.054547 0.326727
vt 0.067068 0.329605
vt 0.068089 0.349867
vt 0.056129 0.348428
vt 0.595703 0.071011
vt 0.607626 0.070796
vt 0.617045 0.085991
vt 0.607105 0.087891
vt 0.220703 0.038649
vt 0.232991 0.038006
vt 0.243173 0.048384
vt 0.626222 0.086742
vt 0.617045 0.085991
vt 0.607626 0.070796
vt 0.872011 0.401278
vt 0.871742 0.38725
vt 0.879881 0.380385
vt 0.25252 0.048828
vt 0.243173 0.048384
vt 0.232991 0.038006
vt 0.194757 0.644326
vt 0.193457 0.624245
vt 0.200959 0.624052
vt 0.201941 0.636698
vt 0.193457 0.624245
vt 0.193105 0.603846
vt 0.200896 0.611099
vt 0.200959 0.624052
vt 0.273996 0.039996
vt 0.288004 0.039451
vt 0.276925 0.048828
vt 0.276925 0.048828
vt 0.267578 0.048474
vt 0.273996 0.039996
vt 0.194278 0.036457
vt 0.206534 0.035436
vt 0.194714 0.048828
vt 0.194714 0.048828
vt 0.185547 0.048069
vt 0.194278 0.036457
vt 0.156368 0.335781
vt 0.167007 0.331001
vt 0.164083 0.35106
vt 0.154297 0.353516
vt 0.167007 0.331001
vt 0.179788 0.329273
vt 0.176145 0.350704
vt 0.164083 0.35106
vt 0.179788 0.329273
vt 0.198076 0.331287
vt 0.193744 0.353095
vt 0.176145 0.350704
vt 0.163551 0.431641
vt 0.138708 0.428186
vt 0.13868 0.407967
vt 0.163523 0.410152
vt 0.527137 0.891718
vt 0.527137 0.783362
vt 0.534528 0.803278
vt 0.534528 0.871802
vt 0.287109 0.199665
vt 0.311935 0.197495
vt 0.311957 0.229433
vt 0.287125 0.229711
vt 0.311935 0.197495
vt 0.329708 0.198447
vt 0.329517 0.229555
vt 0.311957 0.229433
vt 0.329708 0.198447
vt 0.341439 0.201284
vt 0.341099 0.229918
vt 0.329517 0.229555
vt 0.341439 0.201284
vt 0.350465 0.20596
vt 0.350004 0.230515
vt 0.341099 0.229918
vt 0.350465 0.20596
vt 0.356986 0.212444
vt 0.356428 0.231344
vt 0.350004 0.230515
vt 0.931641 0.040977
vt 0.940961 0.041827
vt 0.950325 0.048828
vt 0.360327 0.232422
vt 0.356428 0.231344
vt 0.356986 0.212444
vt 0.201941 0.636698
vt 0.200959 0.624052
vt 0.204134 0.623983
vt 0.952409 0.048577
vt 0.950325 0.048828
vt 0.940961 0.041827
vt 0.200959 0.624052
vt 0.200896 0.611099
vt 0.204521 0.622195
vt 0.075467 0.019011
vt 0.075467 0.021114
vt 0.072266 0.021484
vt 0.31006 0.039911
vt 0.319429 0.039911
vt 0.302734 0.048828
vt 0.043834 0.016995
vt 0.044881 0.020902
vt 0.033203 0.021484
vt 0.208542 0.395103
vt 0.202041 0.401631
vt 0.201575 0.377165
vt 0.207998 0.376331
vt 0.202041 0.401631
vt 0.193026 0.406338
vt 0.192668 0.377767
vt 0.201575 0.377165
vt 0.193026 0.406338
vt 0.181301 0.409194
vt 0.181083 0.378132
vt 0.192668 0.377767
vt 0.181301 0.409194
vt 0.163523 0.410152
vt 0.163515 0.378254
vt 0.181083 0.378132
vt 0.163523 0.410152
vt 0.13868 0.407967
vt 0.138672 0.377975
vt 0.163515 0.378254
vt 0.534528 0.871802
vt 0.534528 0.803278
vt 0.537695 0.833161
vt 0.537695 0.841919
vt 0.29608 0.394103
vt 0.29636 0.369264
vt 0.300736 0.411038
vt 0.296203 0.407276
vt 0.29608 0.394103
vt 0.300736 0.411038
vt 0.296568 0.415964
vt 0.296203 0.407276
vt 0.300736 0.411038
vt 0.29717 0.422643
vt 0.296568 0.415964
vt 0.300736 0.411038
vt 0.298004 0.42746
vt 0.29717 0.422643
vt 0.300736 0.411038
vt 0.29909 0.430383
vt 0.298004 0.42746
vt 0.300736 0.411038
vt 0.300736 0.431364
vt 0.29909 0.430383
vt 0.300736 0.411038
vt 0.302382 0.430385
vt 0.300736 0.431364
vt 0.300736 0.411038
vt 0.303468 0.427463
vt 0.302382 0.430385
vt 0.300736 0.411038
vt 0.304303 0.422647
vt 0.303468 0.427463
vt 0.300736 0.411038
vt 0.304905 0.415969
vt 0.304303 0.422647
vt 0.300736 0.411038
vt 0.30527 0.407281
vt 0.304905 0.415969
vt 0.300736 0.411038
vt 0.305392 0.394108
vt 0.30527 0.407281
vt 0.300736 0.411038
vt 0.305113 0.369269
vt 0.305392 0.394108
vt 0.300736 0.411038
vt 0.29636 0.369264
vt 0.305113 0.369269
vt 0.300736 0.411038
vt 0.187202 0.3736
vt 0.138674 0.369226
vt 0.163517 0.368947
vt 0.187202 0.3736
vt 0.163517 0.368947
vt 0.181084 0.369069
vt 0.187202 0.3736
vt 0.181084 0.369069
vt 0.19267 0.369434
vt 0.187202 0.3736
vt 0.19267 0.369434
vt 0.201576 0.370036
vt 0.187202 0.3736
vt 0.201576 0.370036
vt 0.207999 0.37087
vt 0.187202 0.3736
vt 0.207999 0.37087
vt 0.211896 0.371955
vt 0.187202 0.3736
vt 0.211896 0.371955
vt 0.213203 0.3736
vt 0.187202 0.3736
vt 0.213203 0.3736
vt 0.211895 0.375246
vt 0.187202 0.3736
vt 0.211895 0.375246
vt 0.207998 0.376331
vt 0.187202 0.3736
vt 0.207998 0.376331
vt 0.201575 0.377165
vt 0.187202 0.3736
vt 0.201575 0.377165
vt 0.192668 0.377767
vt 0.187202 0.3736
vt 0.192668 0.377767
vt 0.181083 0.378132
vt 0.187202 0.3736
vt 0.181083 0.378132
vt 0.163515 0.378254
vt 0.187202 0.3736
vt 0.163515 0.378254
vt 0.138672 0.377975
vt 0.187202 0.3736
vt 0.138672 0.377975
vt 0.138674 0.369226
vn 0.063681 -0.003876 -0.997963
vn 0.074414 -0.001652 -0.997226
vn 0.159765 -0.006755 -0.987132
vn 0.159698 -0.018801 -0.986987
vn 0.075315 0.008944 -0.99712
vn 0.162212 0.035664 -0.986111
vn 0.080944 0.027116 -0.99635
vn 0.170832 0.105953 -0.979587
vn 0.091079 0.060585 -0.993999
vn 0.182844 0.22518 -0.957007
vn 0.106089 0.140128 -0.984433
vn 0.177638 0.329709 -0.92722
vn 0.089408 0.033227 -0.995441
vn 0.139443 0.275765 -0.951057
vn 0.153592 0.650537 -0.743782
vn 0.181548 0.465173 -0.866403
vn 0.09373 0.837666 -0.53808
vn -0.001703 0.931356 -0.364105
vn 0.003821 0.888954 -0.457981
vn 0.100465 0.795461 -0.597619
vn -0.03724 0.062541 -0.997347
vn -0.104704 0.202642 -0.973639
vn -0.17062 0.694505 -0.698965
vn -0.098812 0.845546 -0.524679
vn -0.098471 0.078364 -0.99205
vn -0.179819 0.31428 -0.932144
vn -0.183394 0.44848 -0.874775
vn -0.1097 0.802549 -0.586414
vn -0.091079 0.060585 -0.993999
vn -0.182844 0.22518 -0.957007
vn -0.080944 0.027116 -0.99635
vn -0.170832 0.105953 -0.979587
vn -0.075315 0.008944 -0.99712
vn -0.162212 0.035664 -0.986111
vn -0.074414 -0.001652 -0.997226
vn -0.159765 -0.006755 -0.987132
vn -0.063681 -0.003876 -0.997963
vn -0.159698 -0.018801 -0.986987
vn 0 -1 0
vn 0.38609 -0.024128 -0.922146
vn 0.38538 -0.069879 -0.920108
vn 0.382216 0.115916 -0.916774
vn 0.359631 0.307673 -0.88091
vn 0.304471 0.517231 -0.799856
vn 0.208924 0.70475 -0.677996
vn 0.204584 0.602272 -0.77163
vn 0.086525 0.823352 -0.560896
vn 0.097701 0.836036 -0.539906
vn 0 0.852915 -0.52205
vn -0.103846 0.822229 -0.559603
vn -0.086525 0.823352 -0.560896
vn -0.106118 0.813953 -0.571157
vn -0.211488 0.622597 -0.753423
vn -0.208924 0.70475 -0.677996
vn -0.304471 0.517231 -0.799856
vn -0.359631 0.307673 -0.88091
vn -0.382216 0.115916 -0.916774
vn -0.38609 -0.024128 -0.922146
vn -0.38538 -0.069879 -0.920108
vn 0.609153 -0.046252 -0.791703
vn 0.602674 -0.145723 -0.784569
vn 0.584575 0.188739 -0.789082
vn 0.482545 0.439498 -0.757622
vn 0.343204 0.620696 -0.704945
vn 0.202936 0.728774 -0.653992
vn 0.077192 0.781994 -0.618487
vn 0 0.794024 -0.607887
vn -0.077192 0.781994 -0.618487
vn -0.202936 0.728774 -0.653992
vn -0.343204 0.620696 -0.704945
vn -0.482545 0.439498 -0.757622
vn -0.584575 0.188739 -0.789082
vn -0.609153 -0.046252 -0.791703
vn -0.602674 -0.145723 -0.784569
vn 0.801002 -0.064593 -0.595167
vn 0.779654 -0.231952 -0.581668
vn 0.760944 0.222317 -0.60954
vn 0.599712 0.494264 -0.629324
vn 0.36869 0.671103 -0.643186
vn 0.22802 0.740975 -0.631636
vn 0.08442 0.773875 -0.627687
vn 0 0.780069 -0.625694
vn -0.08442 0.773875 -0.627687
vn -0.22802 0.740975 -0.631636
vn -0.403211 0.659867 -0.634032
vn -0.609299 0.474814 -0.635064
vn -0.760944 0.222317 -0.60954
vn -0.801002 -0.064593 -0.595167
vn -0.779654 -0.231952 -0.581668
vn 0.923988 -0.074151 -0.375164
vn 0.882894 -0.303349 -0.358439
vn 0.889384 0.229025 -0.395656
vn 0.748293 0.515153 -0.417942
vn 0.503014 0.725566 -0.469607
vn 0.288173 0.825387 -0.485482
vn 0.107015 0.864661 -0.490824
vn 0 0.871219 -0.490894
vn -0.107015 0.864661 -0.490824
vn -0.288173 0.825387 -0.485482
vn -0.501576 0.73303 -0.459444
vn -0.727176 0.528238 -0.438382
vn -0.889384 0.229025 -0.395656
vn -0.923988 -0.074151 -0.375164
vn -0.882894 -0.303349 -0.358439
vn 0.979736 -0.077494 -0.184693
vn 0.922451 -0.345498 -0.172383
vn 0.953909 0.22663 -0.196714
vn 0.809921 0.542812 -0.222224
vn 0.582681 0.775435 -0.243275
vn 0.342264 0.904446 -0.254621
vn 0.128447 0.957506 -0.258231
vn 0 0.966111 -0.258126
vn -0.128447 0.957506 -0.258231
vn -0.342264 0.904446 -0.254621
vn -0.582681 0.775435 -0.243275
vn -0.809921 0.542812 -0.222224
vn -0.953909 0.22663 -0.196714
vn -0.979736 -0.077494 -0.184693
vn -0.922451 -0.345498 -0.172383
vn 0.995717 -0.078358 -0.049074
vn 0.931084 -0.361994 -0.045196
vn 0.973122 0.224401 -0.051738
vn 0.836915 0.544422 -0.056373
vn 0.611076 0.789327 -0.059567
vn 0.36258 0.92998 -0.060603
vn 0.136658 0.988781 -0.060302
vn 0 0.998202 -0.059934
vn -0.136658 0.988781 -0.060302
vn -0.36258 0.92998 -0.060603
vn -0.611076 0.789327 -0.059567
vn -0.836915 0.544422 -0.056373
vn -0.973122 0.224401 -0.051738
vn -0.995717 -0.078358 -0.049074
vn -0.931084 -0.361994 -0.045196
vn 0.996067 -0.078798 0.040521
vn 0.931217 -0.362586 0.036971
vn 0.973042 0.226043 0.045756
vn 0.834955 0.547165 0.058825
vn 0.607748 0.790836 0.072262
vn 0.359722 0.929475 0.081702
vn 0.135412 0.987015 0.086406
vn 0 0.996185 0.087265
vn -0.135412 0.987015 0.086406
vn -0.359722 0.929475 0.081702
vn -0.607748 0.790836 0.072262
vn -0.834955 0.547165 0.058825
vn -0.973042 0.226043 0.045756
vn -0.996067 -0.078798 0.040521
vn -0.931217 -0.362586 0.036971
vn 0.991389 -0.079334 0.104185
vn 0.930497 -0.353592 0.095648
vn 0.966118 0.231826 0.113457
vn 0.82076 0.555578 0.132989
vn 0.590103 0.793166 0.150552
vn 0.346265 0.924169 0.161284
vn 0.129841 0.977583 0.165749
vn 0 0.986085 0.166244
vn -0.129841 0.977583 0.165749
vn -0.346265 0.924169 0.161284
vn -0.590103 0.793166 0.150552
vn -0.82076 0.555578 0.132989
vn -0.966118 0.231826 0.113457
vn -0.991389 -0.079334 0.104185
vn -0.930497 -0.353592 0.095648
vn 0.981363 -0.07912 0.17512
vn 0.927805 -0.335591 0.162962
vn 0.953213 0.238822 0.185334
vn 0.799837 0.565304 0.201726
vn 0.567086 0.79586 0.21218
vn 0.329802 0.91907 0.215735
vn 0.123228 0.968726 0.215371
vn 0 0.976729 0.214479
vn -0.123228 0.968726 0.215371
vn -0.329802 0.91907 0.215735
vn -0.567086 0.79586 0.21218
vn -0.799837 0.565304 0.201726
vn -0.953213 0.238822 0.185334
vn -0.981363 -0.07912 0.17512
vn -0.927805 -0.335591 0.162962
vn 0.958497 -0.076631 0.274612
vn 0.916111 -0.305423 0.259727
vn 0.927626 0.242588 0.284008
vn 0.769914 0.567983 0.290908
vn 0.540106 0.791188 0.286892
vn 0.31232 0.908463 0.277761
vn 0.116502 0.955956 0.269397
vn 0 0.963888 0.266309
vn -0.116502 0.955956 0.269397
vn -0.31232 0.908463 0.277761
vn -0.540106 0.791188 0.286892
vn -0.769914 0.567983 0.290908
vn -0.927626 0.242588 0.284008
vn -0.958497 -0.076631 0.274612
vn -0.916111 -0.305423 0.259727
vn 0.910338 -0.070161 0.407876
vn 0.882177 -0.259597 0.392904
vn 0.878538 0.237828 0.414256
vn 0.726275 0.554627 0.406095
vn 0.508897 0.771679 0.38149
vn 0.29469 0.887319 0.354715
vn 0.11016 0.935699 0.335161
vn 0 0.944333 0.328992
vn -0.11016 0.935699 0.335161
vn -0.29469 0.887319 0.354715
vn -0.508897 0.771679 0.38149
vn -0.726275 0.554627 0.406095
vn -0.878538 0.237828 0.414256
vn -0.910338 -0.070161 0.407876
vn -0.882177 -0.259597 0.392904
vn 0.81805 -0.058008 0.572215
vn 0.804047 -0.198853 0.560326
vn 0.791783 0.215016 0.571706
vn 0.668646 0.512222 0.539019
vn 0.481754 0.732815 0.480515
vn 0.285039 0.860955 0.421318
vn 0.107847 0.918928 0.379394
vn 0 0.93026 0.3669
vn -0.107847 0.918928 0.379394
vn -0.285039 0.860955 0.421318
vn -0.481754 0.732815 0.480515
vn -0.668646 0.512222 0.539019
vn -0.791783 0.215016 0.571706
vn -0.81805 -0.058008 0.572215
vn -0.804047 -0.198853 0.560326
vn 0.664645 -0.040292 0.746072
vn 0.661122 -0.130169 0.738901
vn 0.65288 0.164234 0.739443
vn 0.593213 0.420956 0.686218
vn 0.47008 0.662377 0.583337
vn 0.288862 0.848549 0.44331
vn 0.117291 0.925768 0.359439
vn 0 0.944181 0.329428
vn -0.117291 0.925768 0.359439
vn -0.299073 0.836792 0.458623
vn -0.472024 0.660716 0.583651
vn -0.593213 0.420956 0.686218
vn -0.65288 0.164234 0.739443
vn -0.664645 -0.040292 0.746072
vn -0.661122 -0.130169 0.738901
vn 0.452676 -0.021146 0.891424
vn 0.453563 -0.066133 0.888767
vn 0.452865 0.092333 0.886785
vn 0.454157 0.261211 0.851769
vn 0.431318 0.435716 0.79001
vn 0.322192 0.779028 0.537873
vn 0.132942 0.933137 0.334038
vn 0 0.9606 0.277936
vn -0.144357 0.923499 0.355402
vn -0.301419 0.785849 0.539989
vn -0.42892 0.494383 0.756051
vn -0.318033 0.754508 0.574084
vn -0.454157 0.261211 0.851769
vn -0.452865 0.092333 0.886785
vn -0.452676 -0.021146 0.891424
vn -0.453563 -0.066133 0.888767
vn 0.200368 -0.006166 0.979701
vn 0.201225 -0.019 0.979361
vn 0.202796 0.027875 0.978824
vn 0.216928 0.084115 0.972557
vn 0.224597 0.142462 0.963982
vn 0.258409 0.323576 0.910233
vn 0.177639 0.881898 0.436693
vn 0.181186 0.871693 0.455327
vn 0.337792 0.519808 0.784663
vn 0 0.963469 0.267819
vn 0.16902 0.910294 0.377885
vn -0.141259 0.927576 0.345903
vn -0.006898 0.963647 0.267088
vn -0.308749 0.611732 0.728325
vn -0.343443 0.673527 0.654528
vn -0.241323 0.185808 0.952491
vn -0.250404 0.406136 0.878835
vn -0.373515 0.621903 0.688276
vn -0.216928 0.084115 0.972557
vn -0.202796 0.027875 0.978824
vn -0.200368 -0.006166 0.979701
vn -0.201225 -0.019 0.979361
vn 0.094337 -0.001536 0.995539
vn 0.075468 -0.003746 0.997141
vn 0.095744 0.007028 0.995381
vn 0.103118 0.021353 0.99444
vn 0.116463 0.047888 0.99204
vn 0.246721 0.269217 0.930941
vn 0.124738 0.062699 0.990207
vn 0.276205 0.707058 0.650984
vn 0.132258 0.162382 0.977824
vn 0.100402 0.977784 0.184003
vn 0.040798 0.051388 0.997845
vn 0.277914 0.576398 0.768458
vn -0.089701 0.873573 0.478356
vn -0.615145 0.774814 0.145807
vn -0.092184 0.963351 0.251907
vn -0.193048 0.235995 0.952386
vn -0.229855 0.345664 0.909771
vn -0.137087 0.111929 0.984215
vn -0.10187 0.028393 0.994392
vn -0.215048 0.208858 0.954009
vn -0.116463 0.047888 0.99204
vn -0.103118 0.021353 0.99444
vn -0.095744 0.007028 0.995381
vn -0.094337 -0.001536 0.995539
vn -0.075468 -0.003746 0.997141
vn 0 0 -1
vn 0 0 1
f 1/1/1 2/2/2 17/3/3 16/4/4
f 2/5/2 3/6/5 18/7/6 17/8/3
f 3/9/5 4/10/7 19/11/8 18/12/6
f 4/13/7 5/14/9 20/15/10 19/16/8
f 5/17/9 6/18/11 21/19/12 20/20/10
f 6/21/11 7/22/13 22/23/14
f 22/24/15 21/25/16 6/26/11
f 7/27/17 8/28/18 23/29/19
f 23/30/19 22/31/20 7/32/17
f 8/33/21 9/34/22 24/35/23
f 24/36/24 23/37/19 8/38/18
f 9/39/22 10/40/25 25/41/26
f 25/42/27 24/43/28 9/44/22
f 10/45/25 11/46/29 26/47/30 25/48/26
f 11/49/29 12/50/31 27/51/32 26/52/30
f 12/53/31 13/54/33 28/55/34 27/56/32
f 13/57/33 14/58/35 29/59/36 28/60/34
f 14/61/35 15/62/37 30/63/38 29/64/36
f 15/65/39 1/66/39 16/67/39 30/68/39
f 16/69/4 17/70/3 32/71/40 31/72/41
f 17/73/3 18/74/6 33/75/42 32/76/40
f 18/77/6 19/78/8 34/79/43 33/80/42
f 19/81/8 20/82/10 35/83/44 34/84/43
f 20/85/10 21/86/16 36/87/45 35/88/44
f 21/89/46 22/90/20 37/91/47 36/92/45
f 22/93/48 23/94/19 38/95/49 37/96/47
f 23/97/19 24/98/50 39/99/51 38/100/49
f 24/101/52 25/102/53 40/103/54 39/104/51
f 25/105/27 26/106/30 41/107/55 40/108/54
f 26/109/30 27/110/32 42/111/56 41/112/55
f 27/113/32 28/114/34 43/115/57 42/116/56
f 28/117/34 29/118/36 44/119/58 43/120/57
f 29/121/36 30/122/38 45/123/59 44/124/58
f 30/125/39 16/126/39 31/127/39 45/128/39
f 31/129/41 32/130/40 47/131/60 46/132/61
f 32/133/40 33/134/42 48/135/62 47/136/60
f 33/137/42 34/138/43 49/139/63 48/140/62
f 34/141/43 35/142/44 50/143/64 49/144/63
f 35/145/44 36/146/45 51/147/65 50/148/64
f 36/149/45 37/150/47 52/151/66 51/152/65
f 37/153/47 38/154/49 53/155/67 52/156/66
f 38/157/49 39/158/51 54/159/68 53/160/67
f 39/161/51 40/162/54 55/163/69 54/164/68
f 40/165/54 41/166/55 56/167/70 55/168/69
f 41/169/55 42/170/56 57/171/71 56/172/70
f 42/173/56 43/174/57 58/175/72 57/176/71
f 43/177/57 44/178/58 59/179/73 58/180/72
f 44/181/58 45/182/59 60/183/74 59/184/73
f 45/185/39 31/186/39 46/187/39 60/188/39
f 46/189/61 47/190/60 62/191/75 61/192/76
f 47/193/60 48/194/62 63/195/77 62/196/75
f 48/197/62 49/198/63 64/199/78 63/200/77
f 49/201/63 50/202/64 65/203/79 64/204/78
f 50/205/64 51/206/65 66/207/80 65/208/79
f 51/209/65 52/210/66 67/211/81 66/212/80
f 52/213/66 53/214/67 68/215/82 67/216/81
f 53/217/67 54/218/68 69/219/83 68/220/82
f 54/221/68 55/222/69 70/223/84 69/224/83
f 55/225/69 56/226/70 71/227/85 70/228/84
f 56/229/70 57/230/71 72/231/86 71/232/85
f 57/233/71 58/234/72 73/235/87 72/236/86
f 58/237/72 59/238/73 74/239/88 73/240/87
f 59/241/73 60/242/74 75/243/89 74/244/88
f 60/245/39 46/246/39 61/247/39 75/248/39
f 61/249/76 62/250/75 77/251/90 76/252/91
f 62/253/75 63/254/77 78/255/92 77/256/90
f 63/257/77 64/258/78 79/259/93 78/260/92
f 64/261/78 65/262/79 80/263/94
f 80/264/94 79/265/93 64/266/78
f 65/267/79 66/268/80 81/269/95 80/270/94
f 66/271/80 67/272/81 82/273/96 81/274/95
f 67/275/81 68/276/82 83/277/97 82/278/96
f 68/279/82 69/280/83 84/281/98 83/282/97
f 69/283/83 70/284/84 85/285/99 84/286/98
f 70/287/84 71/288/85 86/289/100 85/290/99
f 71/291/85 72/292/86 87/293/101
f 87/294/101 86/295/100 71/296/85
f 72/297/86 73/298/87 88/299/102 87/300/101
f 73/301/87 74/302/88 89/303/103 88/304/102
f 74/305/88 75/306/89 90/307/104 89/308/103
f 75/309/39 61/310/39 76/311/39 90/312/39
f 76/313/91 77/314/90 92/315/105 91/316/106
f 77/317/90 78/318/92 93/319/107 92/320/105
f 78/321/92 79/322/93 94/323/108 93/324/107
f 79/325/93 80/326/94 95/327/109 94/328/108
f 80/329/94 81/330/95 96/331/110 95/332/109
f 81/333/95 82/334/96 97/335/111 96/336/110
f 82/337/96 83/338/97 98/339/112 97/340/111
f 83/341/97 84/342/98 99/343/113 98/344/112
f 84/345/98 85/346/99 100/347/114 99/348/113
f 85/349/99 86/350/100 101/351/115 100/352/114
f 86/353/100 87/354/101 102/355/116 101/356/115
f 87/357/101 88/358/102 103/359/117 102/360/116
f 88/361/102 89/362/103 104/363/118 103/364/117
f 89/365/103 90/366/104 105/367/119 104/368/118
f 90/369/39 76/370/39 91/371/39 105/372/39
f 91/373/106 92/374/105 107/375/120 106/376/121
f 92/377/105 93/378/107 108/379/122 107/380/120
f 93/381/107 94/382/108 109/383/123 108/384/122
f 94/385/108 95/386/109 110/387/124 109/388/123
f 95/389/109 96/390/110 111/391/125 110/392/124
f 96/393/110 97/394/111 112/395/126 111/396/125
f 97/397/111 98/398/112 113/399/127 112/400/126
f 98/401/112 99/402/113 114/403/128 113/404/127
f 99/405/113 100/406/114 115/407/129 114/408/128
f 100/409/114 101/410/115 116/411/130 115/412/129
f 101/413/115 102/414/116 117/415/131 116/416/130
f 102/417/116 103/418/117 118/419/132 117/420/131
f 103/421/117 104/422/118 119/423/133 118/424/132
f 104/425/118 105/426/119 120/427/134 119/428/133
f 105/429/39 91/430/39 106/431/39 120/432/39
f 106/433/121 107/434/120 122/435/135 121/436/136
f 107/437/120 108/438/122 123/439/137 122/440/135
f 108/441/122 109/442/123 124/443/138 123/444/137
f 109/445/123 110/446/124 125/447/139 124/448/138
f 110/449/124 111/450/125 126/451/140 125/452/139
f 111/453/125 112/454/126 127/455/141 126/456/140
f 112/457/126 113/458/127 128/459/142 127/460/141
f 113/461/127 114/462/128 129/463/143 128/464/142
f 114/465/128 115/466/129 130/467/144 129/468/143
f 115/469/129 116/470/130 131/471/145 130/472/144
f 116/473/130 117/474/131 132/475/146 131/476/145
f 117/477/131 118/478/132 133/479/147 132/480/146
f 118/481/132 119/482/133 134/483/148 133/484/147
f 119/485/133 120/486/134 135/487/149 134/488/148
f 120/489/39 106/490/39 121/491/39 135/492/39
f 121/493/136 122/494/135 137/495/150 136/496/151
f 122/497/135 123/498/137 138/499/152 137/500/150
f 123/501/137 124/502/138 139/503/153 138/504/152
f 124/505/138 125/506/139 140/507/154 139/508/153
f 125/509/139 126/510/140 141/511/155 140/512/154
f 126/513/140 127/514/141 142/515/156 141/516/155
f 127/517/141 128/518/142 143/519/157 142/520/156
f 128/521/142 129/522/143 144/523/158 143/524/157
f 129/525/143 130/526/144 145/527/159 144/528/158
f 130/529/144 131/530/145 146/531/160 145/532/159
f 131/533/145 132/534/146 147/535/161 146/536/160
f 132/537/146 133/538/147 148/539/162 147/540/161
f 133/541/147 134/542/148 149/543/163 148/544/162
f 134/545/148 135/546/149 150/547/164 149/548/163
f 135/549/39 121/550/39 136/551/39 150/552/39
f 136/553/151 137/554/150 152/555/165 151/556/166
f 137/557/150 138/558/152 153/559/167 152/560/165
f 138/561/152 139/562/153 154/563/168 153/564/167
f 139/565/153 140/566/154 155/567/169 154/568/168
f 140/569/154 141/570/155 156/571/170 155/572/169
f 141/573/155 142/574/156 157/575/171 156/576/170
f 142/577/156 143/578/157 158/579/172 157/580/171
f 143/581/157 144/582/158 159/583/173 158/584/172
f 144/585/158 145/586/159 160/587/174 159/588/173
f 145/589/159 146/590/160 161/591/175 160/592/174
f 146/593/160 147/594/161 162/595/176 161/596/175
f 147/597/161 148/598/162 163/599/177 162/600/176
f 148/601/162 149/602/163 164/603/178 163/604/177
f 149/605/163 150/606/164 165/607/179 164/608/178
f 150/609/39 136/610/39 151/611/39 165/612/39
f 151/613/166 152/614/165 167/615/180 166/616/181
f 152/617/165 153/618/167 168/619/182 167/620/180
f 153/621/167 154/622/168 169/623/183 168/624/182
f 154/625/168 155/626/169 170/627/184 169/628/183
f 155/629/169 156/630/170 171/631/185 170/632/184
f 156/633/170 157/634/171 172/635/186 171/636/185
f 157/637/171 158/638/172 173/639/187 172/640/186
f 158/641/172 159/642/173 174/643/188 173/644/187
f 159/645/173 160/646/174 175/647/189 174/648/188
f 160/649/174 161/650/175 176/651/190 175/652/189
f 161/653/175 162/654/176 177/655/191 176/656/190
f 162/657/176 163/658/177 178/659/192 177/660/191
f 163/661/177 164/662/178 179/663/193 178/664/192
f 164/665/178 165/666/179 180/667/194 179/668/193
f 165/669/39 151/670/39 166/671/39 180/672/39
f 166/673/181 167/674/180 182/675/195 181/676/196
f 167/677/180 168/678/182 183/679/197 182/680/195
f 168/681/182 169/682/183 184/683/198 183/684/197
f 169/685/183 170/686/184 185/687/199 184/688/198
f 170/689/184 171/690/185 186/691/200 185/692/199
f 171/693/185 172/694/186 187/695/201 186/696/200
f 172/697/186 173/698/187 188/699/202 187/700/201
f 173/701/187 174/702/188 189/703/203 188/704/202
f 174/705/188 175/706/189 190/707/204 189/708/203
f 175/709/189 176/710/190 191/711/205 190/712/204
f 176/713/190 177/714/191 192/715/206 191/716/205
f 177/717/191 178/718/192 193/719/207 192/720/206
f 178/721/192 179/722/193 194/723/208 193/724/207
f 179/725/193 180/726/194 195/727/209 194/728/208
f 180/729/39 166/730/39 181/731/39 195/732/39
f 181/733/196 182/734/195 197/735/210 196/736/211
f 182/737/195 183/738/197 198/739/212 197/740/210
f 183/741/197 184/742/198 199/743/213 198/744/212
f 184/745/198 185/746/199 200/747/214 199/748/213
f 185/749/199 186/750/200 201/751/215 200/752/214
f 186/753/200 187/754/201 202/755/216 201/756/215
f 187/757/201 188/758/202 203/759/217 202/760/216
f 188/761/202 189/762/203 204/763/218 203/764/217
f 189/765/203 190/766/204 205/767/219 204/768/218
f 190/769/204 191/770/205 206/771/220 205/772/219
f 191/773/205 192/774/206 207/775/221 206/776/220
f 192/777/206 193/778/207 208/779/222 207/780/221
f 193/781/207 194/782/208 209/783/223 208/784/222
f 194/785/208 195/786/209 210/787/224 209/788/223
f 195/789/39 181/790/39 196/791/39 210/792/39
f 196/793/211 197/794/210 212/795/225 211/796/226
f 197/797/210 198/798/212 213/799/227 212/800/225
f 198/801/212 199/802/213 214/803/228 213/804/227
f 199/805/213 200/806/214 215/807/229 214/808/228
f 200/809/214 201/810/215 216/811/230 215/812/229
f 201/813/215 202/814/216 217/815/231 216/816/230
f 202/817/216 203/818/217 218/819/232 217/820/231
f 203/821/217 204/822/218 219/823/233 218/824/232
f 204/825/218 205/826/219 220/827/234 219/828/233
f 205/829/219 206/830/220 221/831/235 220/832/234
f 206/833/220 207/834/221 222/835/236 221/836/235
f 207/837/221 208/838/222 223/839/237 222/840/236
f 208/841/222 209/842/223 224/843/238 223/844/237
f 209/845/223 210/846/224 225/847/239 224/848/238
f 210/849/39 196/850/39 211/851/39 225/852/39
f 211/853/226 212/854/225 227/855/240 226/856/241
f 212/857/225 213/858/227 228/859/242 227/860/240
f 213/861/227 214/862/228 229/863/243 228/864/242
f 214/865/228 215/866/229 230/867/244 229/868/243
f 215/869/229 216/870/230 231/871/245
f 231/872/245 230/873/244 215/874/229
f 216/875/230 217/876/231 232/877/246 231/878/245
f 217/879/231 218/880/232 233/881/247 232/882/246
f 218/883/232 219/884/233 234/885/248 233/886/247
f 219/887/233 220/888/234 235/889/249 234/890/248
f 220/891/234 221/892/235 236/893/250
f 236/894/250 235/895/251 220/896/234
f 221/897/235 222/898/236 237/899/252 236/900/250
f 222/901/236 223/902/237 238/903/253 237/904/252
f 223/905/237 224/906/238 239/907/254 238/908/253
f 224/909/238 225/910/239 240/911/255 239/912/254
f 225/913/39 211/914/39 226/915/39 240/916/39
f 226/917/241 227/918/240 242/919/256 241/920/257
f 227/921/240 228/922/242 243/923/258 242/924/256
f 228/925/242 229/926/243 244/927/259 243/928/258
f 229/929/243 230/930/244 245/931/260 244/932/259
f 230/933/244 231/934/245 246/935/261
f 246/936/261 245/937/260 230/938/244
f 231/939/245 232/940/246 247/941/262
f 247/942/263 246/943/264 231/944/245
f 232/945/246 233/946/247 248/947/265 247/948/266
f 233/949/247 234/950/248 249/951/267 248/952/268
f 234/953/248 235/954/251 250/955/269
f 250/956/270 249/957/267 234/958/248
f 235/959/251 236/960/250 251/961/271
f 251/962/271 250/963/272 235/964/273
f 236/965/250 237/966/252 252/967/274 251/968/271
f 237/969/252 238/970/253 253/971/275 252/972/274
f 238/973/253 239/974/254 254/975/276 253/976/275
f 239/977/254 240/978/255 255/979/277 254/980/276
f 240/981/39 226/982/39 241/983/39 255/984/39
f 241/985/257 242/986/256 257/987/278 256/988/279
f 242/989/256 243/990/258 258/991/280 257/992/278
f 243/993/258 244/994/259 259/995/281 258/996/280
f 244/997/259 245/998/260 260/999/282 259/1000/281
f 245/1001/260 246/1002/283 261/1003/284 260/1004/282
f 246/1005/261 247/1006/285 262/1007/286
f 262/1008/286 261/1009/284 246/1010/283
f 247/1011/266 248/1012/265 263/1013/287
f 263/1014/288 262/1015/286 247/1016/289
f 248/1017/265 249/1018/267 264/1019/290
f 264/1020/291 263/1021/291 248/1022/292
f 249/1023/293 250/1024/294 265/1025/295
f 265/1026/295 264/1027/296 249/1028/293
f 250/1029/297 251/1030/271 266/1031/298 265/1032/295
f 251/1033/271 252/1034/274 267/1035/299 266/1036/298
f 252/1037/274 253/1038/275 268/1039/300 267/1040/299
f 253/1041/275 254/1042/276 269/1043/301 268/1044/300
f 254/1045/276 255/1046/277 270/1047/302 269/1048/301
f 255/1049/39 241/1050/39 256/1051/39 270/1052/39
f 2/1053/2 1/1054/1 271/1055/303
f 3/1056/5 2/1057/2 271/1058/303
f 4/1059/7 3/1060/5 271/1061/303
f 5/1062/9 4/1063/7 271/1064/303
f 6/1065/11 5/1066/9 271/1067/303
f 7/1068/13 6/1069/11 271/1070/303
f 8/1071/21 7/1072/13 271/1073/303
f 9/1074/22 8/1075/21 271/1076/303
f 10/1077/25 9/1078/22 271/1079/303
f 11/1080/29 10/1081/25 271/1082/303
f 12/1083/31 11/1084/29 271/1085/303
f 13/1086/33 12/1087/31 271/1088/303
f 14/1089/35 13/1090/33 271/1091/303
f 15/1092/37 14/1093/35 271/1094/303
f 1/1095/1 15/1096/37 271/1097/303
f 272/1098/304 256/1099/279 257/1100/278
f 272/1101/304 257/1102/278 258/1103/280
f 272/1104/304 258/1105/280 259/1106/281
f 272/1107/304 259/1108/281 260/1109/282
f 272/1110/304 260/1111/282 261/1112/284
f 272/1113/304 261/1114/284 262/1115/286
f 272/1116/304 262/1117/286 263/1118/288
f 272/1119/304 263/1120/288 264/1121/296
f 272/1122/304 264/1123/296 265/1124/295
f 272/1125/304 265/1126/295 266/1127/298
f 272/1128/304 266/1129/298 267/1130/299
f 272/1131/304 267/1132/299 268/1133/300
f 272/1134/304 268/1135/300 269/1136/301
f 272/1137/304 269/1138/301 270/1139/302
f 272/1140/304 270/1141/302 256/1142/279
o mouse_button_split
usemtl mouse
v 0.50175 -0.096643 0.515625
v 0.50175 -0.098518 0.515625
v 0.49825 -0.098518 0.515625
v 0.49825 -0.096643 0.515625
v 0.50175 -0.097844 0.523062
v 0.50175 -0.099719 0.523062
v 0.49825 -0.099719 0.523062
v 0.49825 -0.097844 0.523062
v 0.50175 -0.09913 0.5305
v 0.50175 -0.101005 0.5305
v 0.49825 -0.101005 0.5305
v 0.49825 -0.09913 0.5305
v 0.50175 -0.100478 0.537938
v 0.50175 -0.102353 0.537938
v 0.49825 -0.102353 0.537938
v 0.49825 -0.100478 0.537938
v 0.50175 -0.102016 0.545375
v 0.50175 -0.103891 0.545375
v 0.49825 -0.103891 0.545375
v 0.49825 -0.102016 0.545375
v 0.50175 -0.103724 0.552813
v 0.50175 -0.105599 0.552813
v 0.49825 -0.105599 0.552813
v 0.49825 -0.103724 0.552813
v 0.50175 -0.105571 0.56025
v 0.50175 -0.107446 0.56025
v 0.49825 -0.107446 0.56025
v 0.49825 -0.105571 0.56025
v 0.50175 -0.107527 0.567688
v 0.50175 -0.109402 0.567688
v 0.49825 -0.109402 0.567688
v 0.49825 -0.107527 0.567688
v 0.50175 -0.109563 0.575125
v 0.50175 -0.111438 0.575125
v 0.49825 -0.111438 0.575125
v 0.49825 -0.109563 0.575125
v 0.50175 -0.111794 0.582563
v 0.50175 -0.113669 0.582563
v 0.49825 -0.113669 0.582563
v 0.49825 -0.111794 0.582563
v 0.50175 -0.114588 0.59
v 0.50175 -0.116463 0.59
v 0.49825 -0.116463 0.59
v 0.49825 -0.114588 0.59
v 0.50175 -0.11764 0.597438
v 0.50175 -0.119515 0.597438
v 0.49825 -0.119515 0.597438
v 0.49825 -0.11764 0.597438
v 0.50175 -0.12065 0.604875
v 0.50175 -0.122525 0.604875
v 0.49825 -0.122525 0.604875
v 0.49825 -0.12065 0.604875
v 0.50175 -0.123315 0.612313
v 0.50175 -0.12519 0.612313
v 0.49825 -0.12519 0.612313
v 0.49825 -0.123315 0.612313
v 0.5 -0.097581 0.515625
v 0.5 -0.124252 0.612313
vt 0.422774 0.44964
vt 0.422774 0.454299
vt 0.404297 0.451315
vt 0.404297 0.446657
vt 0.352593 0.040133
vt 0.352593 0.048828
vt 0.333984 0.048828
vt 0.333984 0.040133
vt 0.676681 0.509936
vt 0.676681 0.514595
vt 0.658203 0.517578
vt 0.658203 0.51292
vt 0.614312 0.040133
vt 0.614312 0.048828
vt 0.595703 0.048828
vt 0.595703 0.040133
vt 0.441252 0.452835
vt 0.441252 0.457493
vt 0.422774 0.454299
vt 0.422774 0.44964
vt 0.371258 0.040133
vt 0.371258 0.048828
vt 0.352593 0.048828
vt 0.352593 0.040133
vt 0.695158 0.506742
vt 0.695158 0.5114
vt 0.676681 0.514595
vt 0.676681 0.509936
vt 0.632977 0.040133
vt 0.632977 0.048828
vt 0.614312 0.048828
vt 0.614312 0.040133
vt 0.459729 0.456184
vt 0.459729 0.460842
vt 0.441252 0.457493
vt 0.441252 0.452835
vt 0.389964 0.040133
vt 0.389964 0.048828
vt 0.371258 0.048828
vt 0.371258 0.040133
vt 0.713636 0.503393
vt 0.713636 0.508051
vt 0.695158 0.5114
vt 0.695158 0.506742
vt 0.651683 0.040133
vt 0.651683 0.048828
vt 0.632977 0.048828
vt 0.632977 0.040133
vt 0.478207 0.460005
vt 0.478207 0.464663
vt 0.459729 0.460842
vt 0.459729 0.456184
vt 0.408795 0.040133
vt 0.408795 0.048828
vt 0.389964 0.048828
vt 0.389964 0.040133
vt 0.732113 0.499572
vt 0.732113 0.50423
vt 0.713636 0.508051
vt 0.713636 0.503393
vt 0.670513 0.040133
vt 0.670513 0.048828
vt 0.651683 0.048828
vt 0.651683 0.040133
vt 0.496685 0.464248
vt 0.496685 0.468906
vt 0.478207 0.464663
vt 0.478207 0.460005
vt 0.427736 0.040133
vt 0.427736 0.048828
vt 0.408795 0.048828
vt 0.408795 0.040133
vt 0.750591 0.495329
vt 0.750591 0.499987
vt 0.732113 0.50423
vt 0.732113 0.499572
vt 0.689455 0.040133
vt 0.689455 0.048828
vt 0.670513 0.048828
vt 0.670513 0.040133
vt 0.515162 0.468837
vt 0.515162 0.473495
vt 0.496685 0.468906
vt 0.496685 0.464248
vt 0.44677 0.040133
vt 0.44677 0.048828
vt 0.427736 0.048828
vt 0.427736 0.040133
vt 0.769068 0.49074
vt 0.769068 0.495398
vt 0.750591 0.499987
vt 0.750591 0.495329
vt 0.708489 0.040133
vt 0.708489 0.048828
vt 0.689455 0.048828
vt 0.689455 0.040133
vt 0.53364 0.473697
vt 0.53364 0.478356
vt 0.515162 0.473495
vt 0.515162 0.468837
vt 0.465875 0.040133
vt 0.465875 0.048828
vt 0.44677 0.048828
vt 0.44677 0.040133
vt 0.787546 0.485879
vt 0.787546 0.490538
vt 0.769068 0.495398
vt 0.769068 0.49074
vt 0.727594 0.040133
vt 0.727594 0.048828
vt 0.708489 0.048828
vt 0.708489 0.040133
vt 0.552117 0.478755
vt 0.552117 0.483413
vt 0.53364 0.478356
vt 0.53364 0.473697
vt 0.485032 0.040133
vt 0.485032 0.048828
vt 0.465875 0.048828
vt 0.465875 0.040133
vt 0.806023 0.480822
vt 0.806023 0.485481
vt 0.787546 0.490538
vt 0.787546 0.485879
vt 0.746751 0.040133
vt 0.746751 0.048828
vt 0.727594 0.048828
vt 0.727594 0.040133
vt 0.570595 0.484297
vt 0.570595 0.488955
vt 0.552117 0.483413
vt 0.552117 0.478755
vt 0.504317 0.040133
vt 0.504317 0.048828
vt 0.485032 0.048828
vt 0.485032 0.040133
vt 0.824501 0.47528
vt 0.824501 0.479938
vt 0.806023 0.485481
vt 0.806023 0.480822
vt 0.766036 0.040133
vt 0.766036 0.048828
vt 0.746751 0.048828
vt 0.746751 0.040133
vt 0.589072 0.491239
vt 0.589072 0.495897
vt 0.570595 0.488955
vt 0.570595 0.484297
vt 0.523972 0.040133
vt 0.523972 0.048828
vt 0.504317 0.048828
vt 0.504317 0.040133
vt 0.842979 0.468338
vt 0.842979 0.472997
vt 0.824501 0.479938
vt 0.824501 0.47528
vt 0.785691 0.040133
vt 0.785691 0.048828
vt 0.766036 0.048828
vt 0.766036 0.040133
vt 0.60755 0.498822
vt 0.60755 0.503481
vt 0.589072 0.495897
vt 0.589072 0.491239
vt 0.543797 0.040133
vt 0.543797 0.048828
vt 0.523972 0.048828
vt 0.523972 0.040133
vt 0.861456 0.460755
vt 0.861456 0.465413
vt 0.842979 0.472997
vt 0.842979 0.468338
vt 0.805516 0.040133
vt 0.805516 0.048828
vt 0.785691 0.048828
vt 0.785691 0.040133
vt 0.626027 0.506299
vt 0.626027 0.510957
vt 0.60755 0.503481
vt 0.60755 0.498822
vt 0.563594 0.040133
vt 0.563594 0.048828
vt 0.543797 0.048828
vt 0.543797 0.040133
vt 0.879934 0.453278
vt 0.879934 0.457936
vt 0.861456 0.465413
vt 0.861456 0.460755
vt 0.825312 0.040133
vt 0.825312 0.048828
vt 0.805516 0.048828
vt 0.805516 0.040133
vt 0.644505 0.51292
vt 0.644505 0.517578
vt 0.626027 0.510957
vt 0.626027 0.506299
vt 0.583164 0.040133
vt 0.583164 0.048828
vt 0.563594 0.048828
vt 0.563594 0.040133
vt 0.898411 0.446657
vt 0.898411 0.451315
vt 0.879934 0.457936
vt 0.879934 0.453278
vt 0.844883 0.040133
vt 0.844883 0.048828
vt 0.825312 0.048828
vt 0.825312 0.040133
vt 0.971145 0.046499
vt 0.966797 0.048828
vt 0.966797 0.04417
vt 0.971145 0.046499
vt 0.966797 0.04417
vt 0.975492 0.04417
vt 0.971145 0.046499
vt 0.975492 0.04417
vt 0.975492 0.048828
vt 0.971145 0.046499
vt 0.975492 0.048828
vt 0.966797 0.048828
vt 0.018461 0.016826
vt 0.018461 0.021484
vt 0.014113 0.019155
vt 0.009766 0.016826
vt 0.018461 0.016826
vt 0.014113 0.019155
vt 0.009766 0.021484
vt 0.009766 0.016826
vt 0.014113 0.019155
vt 0.018461 0.021484
vt 0.009766 0.021484
vt 0.014113 0.019155
vn 1 0 0
vn 0 -0.986314 -0.16488
vn 0 -0.987214 -0.159399
vn -1 0 0
vn 0 0.986314 0.16488
vn 0 0.987214 0.159399
vn 0 -0.984682 -0.17436
vn 0 0.984682 0.17436
vn 0 -0.981691 -0.190479
vn 0 0.981691 0.190479
vn 0 -0.977012 -0.213183
vn 0 0.977012 0.213183
vn 0 -0.972611 -0.232439
vn 0 0.972611 0.232439
vn 0 -0.968827 -0.247738
vn 0 0.968827 0.247738
vn 0 -0.965823 -0.259202
vn 0 0.965823 0.259202
vn 0 -0.961244 -0.275698
vn 0 0.961244 0.275698
vn 0 -0.947402 -0.320045
vn 0 0.947402 0.320045
vn 0 -0.930687 -0.365816
vn 0 0.930687 0.365816
vn 0 -0.92605 -0.3774
vn 0 0.92605 0.3774
vn 0 -0.934324 -0.356426
vn 0 0.934324 0.356426
vn 0 -0.941391 -0.337317
vn 0 0.941391 0.337317
vn 0 0 -1
vn 0 0 1
f 277/1143/305 278/1144/305 274/1145/305 273/1146/305
f 278/1147/306 279/1148/306 275/1149/307 274/1150/307
f 279/1151/308 280/1152/308 276/1153/308 275/1154/308
f 280/1155/309 277/1156/309 273/1157/310 276/1158/310
f 281/1159/305 282/1160/305 278/1161/305 277/1162/305
f 282/1163/311 283/1164/311 279/1165/306 278/1166/306
f 283/1167/308 284/1168/308 280/1169/308 279/1170/308
f 284/1171/312 281/1172/312 277/1173/309 280/1174/309
f 285/1175/305 286/1176/305 282/1177/305 281/1178/305
f 286/1179/313 287/1180/313 283/1181/311 282/1182/311
f 287/1183/308 288/1184/308 284/1185/308 283/1186/308
f 288/1187/314 285/1188/314 281/1189/312 284/1190/312
f 289/1191/305 290/1192/305 286/1193/305 285/1194/305
f 290/1195/315 291/1196/315 287/1197/313 286/1198/313
f 291/1199/308 292/1200/308 288/1201/308 287/1202/308
f 292/1203/316 289/1204/316 285/1205/314 288/1206/314
f 293/1207/305 294/1208/305 290/1209/305 289/1210/305
f 294/1211/317 295/1212/317 291/1213/315 290/1214/315
f 295/1215/308 296/1216/308 292/1217/308 291/1218/308
f 296/1219/318 293/1220/318 289/1221/316 292/1222/316
f 297/1223/305 298/1224/305 294/1225/305 293/1226/305
f 298/1227/319 299/1228/319 295/1229/317 294/1230/317
f 299/1231/308 300/1232/308 296/1233/308 295/1234/308
f 300/1235/320 297/1236/320 293/1237/318 296/1238/318
f 301/1239/305 302/1240/305 298/1241/305 297/1242/305
f 302/1243/321 303/1244/321 299/1245/319 298/1246/319
f 303/1247/308 304/1248/308 300/1249/308 299/1250/308
f 304/1251/322 301/1252/322 297/1253/320 300/1254/320
f 305/1255/305 306/1256/305 302/1257/305 301/1258/305
f 306/1259/323 307/1260/323 303/1261/321 302/1262/321
f 307/1263/308 308/1264/308 304/1265/308 303/1266/308
f 308/1267/324 305/1268/324 301/1269/322 304/1270/322
f 309/1271/305 310/1272/305 306/1273/305 305/1274/305
f 310/1275/325 311/1276/325 307/1277/323 306/1278/323
f 311/1279/308 312/1280/308 308/1281/308 307/1282/308
f 312/1283/326 309/1284/326 305/1285/324 308/1286/324
f 313/1287/305 314/1288/305 310/1289/305 309/1290/305
f 314/1291/327 315/1292/327 311/1293/325 310/1294/325
f 315/1295/308 316/1296/308 312/1297/308 311/1298/308
f 316/1299/328 313/1300/328 309/1301/326 312/1302/326
f 317/1303/305 318/1304/305 314/1305/305 313/1306/305
f 318/1307/329 319/1308/329 315/1309/327 314/1310/327
f 319/1311/308 320/1312/308 316/1313/308 315/1314/308
f 320/1315/330 317/1316/330 313/1317/328 316/1318/328
f 321/1319/305 322/1320/305 318/1321/305 317/1322/305
f 322/1323/331 323/1324/331 319/1325/329 318/1326/329
f 323/1327/308 324/1328/308 320/1329/308 319/1330/308
f 324/1331/332 321/1332/332 317/1333/330 320/1334/330
f 325/1335/305 326/1336/305 322/1337/305 321/1338/305
f 326/1339/333 327/1340/333 323/1341/331 322/1342/331
f 327/1343/308 328/1344/308 324/1345/308 323/1346/308
f 328/1347/334 325/1348/334 321/1349/332 324/1350/332
f 329/1351/335 273/1352/335 274/1353/335
f 329/1354/335 274/1355/335 275/1356/335
f 329/1357/335 275/1358/335 276/1359/335
f 329/1360/335 276/1361/335 273/1362/335
f 326/1363/336 325/1364/336 330/1365/336
f 327/1366/336 326/1367/336 330/1368/336
f 328/1369/336 327/1370/336 330/1371/336
f 325/1372/336 328/1373/336 330/1374/336
o mouse_scroll_wheel
usemtl mouse
v 0.495312 -0.11111 0.583062
v 0.495312 -0.106098 0.580648
v 0.495312 -0.10263 0.576299
v 0.495312 -0.101392 0.570875
v 0.495312 -0.10263 0.565451
v 0.495312 -0.106098 0.561102
v 0.495312 -0.11111 0.558688
v 0.495312 -0.116673 0.558688
v 0.495312 -0.121685 0.561102
v 0.495312 -0.125154 0.565451
v 0.495312 -0.126392 0.570875
v 0.495312 -0.125154 0.576299
v 0.495312 -0.121685 0.580648
v 0.495312 -0.116673 0.583062
v 0.504687 -0.11111 0.583062
v 0.504687 -0.106098 0.580648
v 0.504687 -0.10263 0.576299
v 0.504687 -0.101392 0.570875
v 0.504687 -0.10263 0.565451
v 0.504687 -0.106098 0.561102
v 0.504687 -0.11111 0.558688
v 0.504687 -0.116673 0.558688
v 0.504687 -0.121685 0.561102
v 0.504687 -0.125154 0.565451
v 0.504687 -0.126392 0.570875
v 0.504687 -0.125154 0.576299
v 0.504687 -0.121685 0.580648
v 0.504687 -0.116673 0.583062
v 0.495312 -0.113892 0.570875
v 0.504687 -0.113892 0.570875
vt 0.818359 0.087891
vt 0.818359 0.07407
vt 0.84165 0.07407
vt 0.84165 0.087891
vt 0.150391 0.048828
vt 0.150391 0.035007
vt 0.173682 0.035007
vt 0.173682 0.048828
vt 0.712891 0.087891
vt 0.712891 0.07407
vt 0.736182 0.07407
vt 0.736182 0.087891
vt 0.853516 0.087891
vt 0.853516 0.07407
vt 0.876807 0.07407
vt 0.876807 0.087891
vt 0.748047 0.087891
vt 0.748047 0.07407
vt 0.771338 0.07407
vt 0.771338 0.087891
vt 0.958984 0.087891
vt 0.958984 0.07407
vt 0.982275 0.07407
vt 0.982275 0.087891
vt 0.888672 0.087891
vt 0.888672 0.07407
vt 0.911963 0.07407
vt 0.911963 0.087891
vt 0.033057 0.035007
vt 0.033057 0.048828
vt 0.009766 0.048828
vt 0.009766 0.035007
vt 0.947119 0.07407
vt 0.947119 0.087891
vt 0.923828 0.087891
vt 0.923828 0.07407
vt 0.701025 0.07407
vt 0.701025 0.087891
vt 0.677734 0.087891
vt 0.677734 0.07407
vt 0.103369 0.035007
vt 0.103369 0.048828
vt 0.080078 0.048828
vt 0.080078 0.035007
vt 0.138525 0.035007
vt 0.138525 0.048828
vt 0.115234 0.048828
vt 0.115234 0.035007
vt 0.806494 0.07407
vt 0.806494 0.087891
vt 0.783203 0.087891
vt 0.783203 0.07407
vt 0.068213 0.035007
vt 0.068213 0.048828
vt 0.044922 0.048828
vt 0.044922 0.035007
vt 0.493945 0.401365
vt 0.487035 0.431641
vt 0.474583 0.425644
vt 0.493945 0.401365
vt 0.474583 0.425644
vt 0.465966 0.414839
vt 0.493945 0.401365
vt 0.465966 0.414839
vt 0.462891 0.401365
vt 0.493945 0.401365
vt 0.462891 0.401365
vt 0.465966 0.38789
vt 0.493945 0.401365
vt 0.465966 0.38789
vt 0.474583 0.377085
vt 0.493945 0.401365
vt 0.474583 0.377085
vt 0.487035 0.371088
vt 0.493945 0.401365
vt 0.487035 0.371088
vt 0.500856 0.371088
vt 0.493945 0.401365
vt 0.500856 0.371088
vt 0.513308 0.377085
vt 0.493945 0.401365
vt 0.513308 0.377085
vt 0.521925 0.38789
vt 0.493945 0.401365
vt 0.521925 0.38789
vt 0.525 0.401365
vt 0.493945 0.401365
vt 0.525 0.401365
vt 0.521925 0.414839
vt 0.493945 0.401365
vt 0.521925 0.414839
vt 0.513308 0.425644
vt 0.493945 0.401365
vt 0.513308 0.425644
vt 0.500856 0.431641
vt 0.493945 0.401365
vt 0.500856 0.431641
vt 0.487035 0.431641
vt 0.587526 0.425644
vt 0.575074 0.431641
vt 0.568164 0.401365
vt 0.596143 0.414839
vt 0.587526 0.425644
vt 0.568164 0.401365
vt 0.599219 0.401365
vt 0.596143 0.414839
vt 0.568164 0.401365
vt 0.596143 0.38789
vt 0.599219 0.401365
vt 0.568164 0.401365
vt 0.587526 0.377085
vt 0.596143 0.38789
vt 0.568164 0.401365
vt 0.575074 0.371088
vt 0.587526 0.377085
vt 0.568164 0.401365
vt 0.561254 0.371088
vt 0.575074 0.371088
vt 0.568164 0.401365
vt 0.548802 0.377085
vt 0.561254 0.371088
vt 0.568164 0.401365
vt 0.540185 0.38789
vt 0.548802 0.377085
vt 0.568164 0.401365
vt 0.537109 0.401365
vt 0.540185 0.38789
vt 0.568164 0.401365
vt 0.540185 0.414839
vt 0.537109 0.401365
vt 0.568164 0.401365
vt 0.548802 0.425644
vt 0.540185 0.414839
vt 0.568164 0.401365
vt 0.561254 0.431641
vt 0.548802 0.425644
vt 0.568164 0.401365
vt 0.575074 0.431641
vt 0.561254 0.431641
vt 0.568164 0.401365
vn 0 0.433884 0.900969
vn 0 0.62349 0.781831
vn 0 0.900969 0.433884
vn 0 1 0
vn 0 0.900969 -0.433884
vn 0 0.62349 -0.781831
vn 0 0.222521 -0.974928
vn 0 -0.222521 -0.974928
vn 0 -0.62349 -0.781831
vn 0 -0.900969 -0.433884
vn 0 -1 0
vn 0 -0.900969 0.433884
vn 0 -0.62349 0.781831
vn 0 -0.433884 0.900969
vn 0 0 -1
vn -1 0 0
vn 1 0 0
f 345/1375/337 346/1376/338 332/1377/338 331/1378/337
f 346/1379/338 347/1380/339 333/1381/339 332/1382/338
f 347/1383/339 348/1384/340 334/1385/340 333/1386/339
f 348/1387/340 349/1388/341 335/1389/341 334/1390/340
f 349/1391/341 350/1392/342 336/1393/342 335/1394/341
f 350/1395/342 351/1396/343 337/1397/343 336/1398/342
f 351/1399/343 352/1400/344 338/1401/344 337/1402/343
f 352/1403/344 353/1404/345 339/1405/345 338/1406/344
f 353/1407/345 354/1408/346 340/1409/346 339/1410/345
f 354/1411/346 355/1412/347 341/1413/347 340/1414/346
f 355/1415/347 356/1416/348 342/1417/348 341/1418/347
f 356/1419/348 357/1420/349 343/1421/349 342/1422/348
f 357/1423/349 358/1424/350 344/1425/350 343/1426/349
f 344/1427/351 331/1428/351 345/1429/351 358/1430/351
f 359/1431/352 331/1432/352 332/1433/352
f 359/1434/352 332/1435/352 333/1436/352
f 359/1437/352 333/1438/352 334/1439/352
f 359/1440/352 334/1441/352 335/1442/352
f 359/1443/352 335/1444/352 336/1445/352
f 359/1446/352 336/1447/352 337/1448/352
f 359/1449/352 337/1450/352 338/1451/352
f 359/1452/352 338/1453/352 339/1454/352
f 359/1455/352 339/1456/352 340/1457/352
f 359/1458/352 340/1459/352 341/1460/352
f 359/1461/352 341/1462/352 342/1463/352
f 359/1464/352 342/1465/352 343/1466/352
f 359/1467/352 343/1468/352 344/1469/352
f 359/1470/352 344/1471/352 331/1472/352
f 346/1473/353 345/1474/353 360/1475/353
f 347/1476/353 346/1477/353 360/1478/353
f 348/1479/353 347/1480/353 360/1481/353
f 349/1482/353 348/1483/353 360/1484/353
f 350/1485/353 349/1486/353 360/1487/353
f 351/1488/353 350/1489/353 360/1490/353
f 352/1491/353 351/1492/353 360/1493/353
f 353/1494/353 352/1495/353 360/1496/353
f 354/1497/353 353/1498/353 360/1499/353
f 355/1500/353 354/1501/353 360/1502/353
f 356/1503/353 355/1504/353 360/1505/353
f 357/1506/353 356/1507/353 360/1508/353
f 358/1509/353 357/1510/353 360/1511/353
f 345/1512/353 358/1513/353 360/1514/353
