# AFL Power Outlets V1 C13 connector, generated by tools/build-power-outlets-v1.mjs
mtllib power_connector.mtl
o connector_mate
usemtl strip
v 0.488 0.48875 0.5
v 0.512 0.48875 0.5
v 0.518 0.49475 0.5
v 0.518 0.51125 0.5
v 0.482 0.51125 0.5
v 0.482 0.49475 0.5
v 0.488 0.48875 0.51275
v 0.512 0.48875 0.51275
v 0.518 0.49475 0.51275
v 0.518 0.51125 0.51275
v 0.482 0.51125 0.51275
v 0.482 0.49475 0.51275
v 0.488 0.48875 0.5
v 0.512 0.48875 0.5
v 0.518 0.49475 0.5
v 0.518 0.51125 0.5
v 0.482 0.51125 0.5
v 0.482 0.49475 0.5
v 0.488 0.48875 0.51275
v 0.512 0.48875 0.51275
v 0.518 0.49475 0.51275
v 0.518 0.51125 0.51275
v 0.482 0.51125 0.51275
v 0.482 0.49475 0.51275
vt 0.959961 0.347961
vt 0.986961 0.347961
vt 0.986961 0.362305
vt 0.959961 0.362305
vt 0.286133 0.239258
vt 0.286133 0.229712
vt 0.300477 0.229712
vt 0.300477 0.239258
vt 0.004883 0.316711
vt 0.023445 0.316711
vt 0.023445 0.331055
vt 0.004883 0.331055
vt 0.913086 0.347961
vt 0.953586 0.347961
vt 0.953586 0.362305
vt 0.913086 0.362305
vt 0.030273 0.316711
vt 0.048836 0.316711
vt 0.048836 0.331055
vt 0.030273 0.331055
vt 0.307617 0.239258
vt 0.307617 0.229712
vt 0.321961 0.229712
vt 0.321961 0.239258
vt 0.767492 0.381914
vt 0.794492 0.381914
vt 0.801242 0.388664
vt 0.760742 0.388664
vt 0.767492 0.381914
vt 0.801242 0.388664
vt 0.760742 0.407227
vt 0.760742 0.388664
vt 0.801242 0.388664
vt 0.801242 0.388664
vt 0.801242 0.407227
vt 0.760742 0.407227
vt 0.807617 0.388664
vt 0.814367 0.381914
vt 0.841367 0.381914
vt 0.807617 0.388664
vt 0.841367 0.381914
vt 0.848117 0.388664
vt 0.807617 0.388664
vt 0.848117 0.388664
vt 0.848117 0.407227
vt 0.848117 0.407227
vt 0.807617 0.407227
vt 0.807617 0.388664
vn 0 -1 0
vn 0.707107 -0.707107 0
vn 1 0 0
vn 0 1 0
vn -1 0 0
vn -0.707107 -0.707107 0
vn 0 0 -1
vn 0 0 1
f 1/1/1 2/2/1 8/3/1 7/4/1
f 2/5/2 3/6/2 9/7/2 8/8/2
f 3/9/3 4/10/3 10/11/3 9/12/3
f 4/13/4 5/14/4 11/15/4 10/16/4
f 5/17/5 6/18/5 12/19/5 11/20/5
f 6/21/6 1/22/6 7/23/6 12/24/6
f 14/25/7 13/26/7 18/27/7
f 15/28/7 14/29/7 18/30/7
f 16/31/7 15/32/7 18/33/7
f 18/34/7 17/35/7 16/36/7
f 24/37/8 19/38/8 20/39/8
f 24/40/8 20/41/8 21/42/8
f 24/43/8 21/44/8 22/45/8
f 22/46/8 23/47/8 24/48/8
o connector_body
usemtl strip
v 0.52325 0.512 0.51275
v 0.522547 0.514625 0.51275
v 0.520625 0.516547 0.51275
v 0.518 0.51725 0.51275
v 0.482 0.51725 0.51275
v 0.479375 0.516547 0.51275
v 0.477453 0.514625 0.51275
v 0.47675 0.512 0.51275
v 0.47675 0.488 0.51275
v 0.477453 0.485375 0.51275
v 0.479375 0.483453 0.51275
v 0.482 0.48275 0.51275
v 0.518 0.48275 0.51275
v 0.520625 0.483453 0.51275
v 0.522547 0.485375 0.51275
v 0.52325 0.488 0.51275
v 0.52325 0.512 0.51575
v 0.522547 0.514625 0.51575
v 0.520625 0.516547 0.51575
v 0.518 0.51725 0.51575
v 0.482 0.51725 0.51575
v 0.479375 0.516547 0.51575
v 0.477453 0.514625 0.51575
v 0.47675 0.512 0.51575
v 0.47675 0.488 0.51575
v 0.477453 0.485375 0.51575
v 0.479375 0.483453 0.51575
v 0.482 0.48275 0.51575
v 0.518 0.48275 0.51575
v 0.520625 0.483453 0.51575
v 0.522547 0.485375 0.51575
v 0.52325 0.488 0.51575
v 0.521375 0.50825 0.536
v 0.52037 0.512 0.536
v 0.517625 0.514745 0.536
v 0.513875 0.51575 0.536
v 0.486125 0.51575 0.536
v 0.482375 0.514745 0.536
v 0.47963 0.512 0.536
v 0.478625 0.50825 0.536
v 0.478625 0.49175 0.536
v 0.47963 0.488 0.536
v 0.482375 0.485255 0.536
v 0.486125 0.48425 0.536
v 0.513875 0.48425 0.536
v 0.517625 0.485255 0.536
v 0.52037 0.488 0.536
v 0.521375 0.49175 0.536
v 0.51425 0.500015 0.545
v 0.512544 0.506382 0.545
v 0.507883 0.511044 0.545
v 0.501515 0.51275 0.545
v 0.498485 0.51275 0.545
v 0.492117 0.511044 0.545
v 0.487456 0.506382 0.545
v 0.48575 0.500015 0.545
v 0.48575 0.499985 0.545
v 0.487456 0.493617 0.545
v 0.492117 0.488956 0.545
v 0.498485 0.48725 0.545
v 0.501515 0.48725 0.545
v 0.507883 0.488956 0.545
v 0.512544 0.493617 0.545
v 0.51425 0.499985 0.545
v 0.51125 0.500015 0.5465
v 0.509745 0.505633 0.5465
v 0.505633 0.509745 0.5465
v 0.500015 0.51125 0.5465
v 0.499985 0.51125 0.5465
v 0.494368 0.509745 0.5465
v 0.490255 0.505633 0.5465
v 0.48875 0.500015 0.5465
v 0.48875 0.499985 0.5465
v 0.490255 0.494368 0.5465
v 0.494368 0.490255 0.5465
v 0.499985 0.48875 0.5465
v 0.500015 0.48875 0.5465
v 0.505633 0.490255 0.5465
v 0.509745 0.494368 0.5465
v 0.51125 0.499985 0.5465
v 0.51215 0.500015 0.54725
v 0.510524 0.506082 0.54725
v 0.506082 0.510524 0.54725
v 0.500015 0.51215 0.54725
v 0.499985 0.51215 0.54725
v 0.493918 0.510524 0.54725
v 0.489476 0.506082 0.54725
v 0.48785 0.500015 0.54725
v 0.48785 0.499985 0.54725
v 0.489476 0.493918 0.54725
v 0.493918 0.489476 0.54725
v 0.499985 0.48785 0.54725
v 0.500015 0.48785 0.54725
v 0.506082 0.489476 0.54725
v 0.510524 0.493918 0.54725
v 0.51215 0.499985 0.54725
v 0.51215 0.500015 0.55025
v 0.510524 0.506082 0.55025
v 0.506082 0.510524 0.55025
v 0.500015 0.51215 0.55025
v 0.499985 0.51215 0.55025
v 0.493918 0.510524 0.55025
v 0.489476 0.506082 0.55025
v 0.48785 0.500015 0.55025
v 0.48785 0.499985 0.55025
v 0.489476 0.493918 0.55025
v 0.493918 0.489476 0.55025
v 0.499985 0.48785 0.55025
v 0.500015 0.48785 0.55025
v 0.506082 0.489476 0.55025
v 0.510524 0.493918 0.55025
v 0.51215 0.499985 0.55025
v 0.51095 0.500015 0.551
v 0.509485 0.505482 0.551
v 0.505482 0.509485 0.551
v 0.500015 0.51095 0.551
v 0.499985 0.51095 0.551
v 0.494517 0.509485 0.551
v 0.490515 0.505482 0.551
v 0.48905 0.500015 0.551
v 0.48905 0.499985 0.551
v 0.490515 0.494517 0.551
v 0.494517 0.490515 0.551
v 0.499985 0.48905 0.551
v 0.500015 0.48905 0.551
v 0.505482 0.490515 0.551
v 0.509485 0.494517 0.551
v 0.51095 0.499985 0.551
v 0.51095 0.500015 0.554
v 0.509485 0.505482 0.554
v 0.505482 0.509485 0.554
v 0.500015 0.51095 0.554
v 0.499985 0.51095 0.554
v 0.494517 0.509485 0.554
v 0.490515 0.505482 0.554
v 0.48905 0.500015 0.554
v 0.48905 0.499985 0.554
v 0.490515 0.494517 0.554
v 0.494517 0.490515 0.554
v 0.499985 0.48905 0.554
v 0.500015 0.48905 0.554
v 0.505482 0.490515 0.554
v 0.509485 0.494517 0.554
v 0.51095 0.499985 0.554
v 0.5117 0.500015 0.55475
v 0.510135 0.505857 0.55475
v 0.505857 0.510135 0.55475
v 0.500015 0.5117 0.55475
v 0.499985 0.5117 0.55475
v 0.494142 0.510135 0.55475
v 0.489865 0.505857 0.55475
v 0.4883 0.500015 0.55475
v 0.4883 0.499985 0.55475
v 0.489865 0.494142 0.55475
v 0.494142 0.489865 0.55475
v 0.499985 0.4883 0.55475
v 0.500015 0.4883 0.55475
v 0.505857 0.489865 0.55475
v 0.510135 0.494142 0.55475
v 0.5117 0.499985 0.55475
v 0.5117 0.500015 0.55775
v 0.510135 0.505857 0.55775
v 0.505857 0.510135 0.55775
v 0.500015 0.5117 0.55775
v 0.499985 0.5117 0.55775
v 0.494142 0.510135 0.55775
v 0.489865 0.505857 0.55775
v 0.4883 0.500015 0.55775
v 0.4883 0.499985 0.55775
v 0.489865 0.494142 0.55775
v 0.494142 0.489865 0.55775
v 0.499985 0.4883 0.55775
v 0.500015 0.4883 0.55775
v 0.505857 0.489865 0.55775
v 0.510135 0.494142 0.55775
v 0.5117 0.499985 0.55775
v 0.5105 0.500015 0.5585
v 0.509095 0.505258 0.5585
v 0.505258 0.509095 0.5585
v 0.500015 0.5105 0.5585
v 0.499985 0.5105 0.5585
v 0.494743 0.509095 0.5585
v 0.490905 0.505258 0.5585
v 0.4895 0.500015 0.5585
v 0.4895 0.499985 0.5585
v 0.490905 0.494742 0.5585
v 0.494742 0.490905 0.5585
v 0.499985 0.4895 0.5585
v 0.500015 0.4895 0.5585
v 0.505258 0.490905 0.5585
v 0.509095 0.494742 0.5585
v 0.5105 0.499985 0.5585
v 0.5105 0.500015 0.5615
v 0.509095 0.505258 0.5615
v 0.505258 0.509095 0.5615
v 0.500015 0.5105 0.5615
v 0.499985 0.5105 0.5615
v 0.494743 0.509095 0.5615
v 0.490905 0.505258 0.5615
v 0.4895 0.500015 0.5615
v 0.4895 0.499985 0.5615
v 0.490905 0.494742 0.5615
v 0.494742 0.490905 0.5615
v 0.499985 0.4895 0.5615
v 0.500015 0.4895 0.5615
v 0.505258 0.490905 0.5615
v 0.509095 0.494742 0.5615
v 0.5105 0.499985 0.5615
v 0.50795 0.500015 0.569
v 0.506887 0.503982 0.569
v 0.503982 0.506887 0.569
v 0.500015 0.50795 0.569
v 0.499985 0.50795 0.569
v 0.496018 0.506887 0.569
v 0.493113 0.503982 0.569
v 0.49205 0.500015 0.569
v 0.49205 0.499985 0.569
v 0.493113 0.496018 0.569
v 0.496018 0.493113 0.569
v 0.499985 0.49205 0.569
v 0.500015 0.49205 0.569
v 0.503982 0.493113 0.569
v 0.506887 0.496018 0.569
v 0.50795 0.499985 0.569
v 0.50645 0.500015 0.575
v 0.505588 0.503232 0.575
v 0.503232 0.505588 0.575
v 0.500015 0.50645 0.575
v 0.499985 0.50645 0.575
v 0.496768 0.505588 0.575
v 0.494412 0.503232 0.575
v 0.49355 0.500015 0.575
v 0.49355 0.499985 0.575
v 0.494412 0.496767 0.575
v 0.496767 0.494412 0.575
v 0.499985 0.49355 0.575
v 0.500015 0.49355 0.575
v 0.503232 0.494412 0.575
v 0.505588 0.496767 0.575
v 0.50645 0.499985 0.575
v 0.5 0.5 0.51275
v 0.5 0.5 0.575
vt 0.55957 0.218151
vt 0.55957 0.215093
vt 0.562937 0.215093
vt 0.562937 0.218151
vt 0.241211 0.193979
vt 0.241211 0.190922
vt 0.244574 0.190922
vt 0.244574 0.193979
vt 0.038086 0.22168
vt 0.038086 0.218622
vt 0.041454 0.218622
vt 0.041454 0.22168
vt 0.713867 0.381026
vt 0.754367 0.381026
vt 0.754367 0.384399
vt 0.713867 0.384399
vt 0.071289 0.217634
vt 0.071289 0.214577
vt 0.074658 0.214577
vt 0.074658 0.217634
vt 0.208008 0.193382
vt 0.208008 0.190325
vt 0.211371 0.190325
vt 0.211371 0.193382
vt 0.625977 0.22168
vt 0.625977 0.218622
vt 0.629344 0.218622
vt 0.629344 0.22168
vt 0.633789 0.381001
vt 0.660789 0.381001
vt 0.660789 0.384372
vt 0.633789 0.384372
vt 0.592773 0.218151
vt 0.592773 0.215093
vt 0.596141 0.215093
vt 0.596141 0.218151
vt 0.37793 0.193979
vt 0.37793 0.190922
vt 0.381293 0.190922
vt 0.381293 0.193979
vt 0.942383 0.239258
vt 0.942383 0.236201
vt 0.945751 0.236201
vt 0.945751 0.239258
vt 0.666992 0.381026
vt 0.707492 0.381026
vt 0.707492 0.384399
vt 0.666992 0.384399
vt 0.004883 0.217634
vt 0.004883 0.214577
vt 0.008251 0.214577
vt 0.008251 0.217634
vt 0.333008 0.193382
vt 0.333008 0.190325
vt 0.336371 0.190325
vt 0.336371 0.193382
vt 0.526367 0.22168
vt 0.526367 0.218622
vt 0.529734 0.218622
vt 0.529734 0.22168
vt 0.600586 0.381001
vt 0.627586 0.381001
vt 0.627586 0.384372
vt 0.600586 0.384372
vt 0.562937 0.218151
vt 0.562937 0.215093
vt 0.585879 0.217312
vt 0.585879 0.22168
vt 0.244574 0.193979
vt 0.244574 0.190922
vt 0.267594 0.189968
vt 0.267594 0.194336
vt 0.041454 0.22168
vt 0.041454 0.218622
vt 0.064367 0.214577
vt 0.064367 0.218944
vt 0.713867 0.384399
vt 0.754367 0.384399
vt 0.749727 0.407227
vt 0.718508 0.407227
vt 0.074658 0.217634
vt 0.074658 0.214577
vt 0.09757 0.217312
vt 0.09757 0.22168
vt 0.211371 0.193382
vt 0.211371 0.190325
vt 0.234391 0.189968
vt 0.234391 0.194336
vt 0.629344 0.22168
vt 0.629344 0.218622
vt 0.652285 0.215093
vt 0.652285 0.219461
vt 0.633789 0.384372
vt 0.660789 0.384372
vt 0.65657 0.407227
vt 0.638008 0.407227
vt 0.596141 0.218151
vt 0.596141 0.215093
vt 0.619082 0.217312
vt 0.619082 0.22168
vt 0.381293 0.193979
vt 0.381293 0.190922
vt 0.404313 0.189968
vt 0.404313 0.194336
vt 0.945751 0.239258
vt 0.945751 0.236201
vt 0.968664 0.232155
vt 0.968664 0.236522
vt 0.666992 0.384399
vt 0.707492 0.384399
vt 0.702852 0.407227
vt 0.671633 0.407227
vt 0.008251 0.217634
vt 0.008251 0.214577
vt 0.031164 0.217312
vt 0.031164 0.22168
vt 0.336371 0.193382
vt 0.336371 0.190325
vt 0.359391 0.189968
vt 0.359391 0.194336
vt 0.529734 0.22168
vt 0.529734 0.218622
vt 0.552676 0.215093
vt 0.552676 0.219461
vt 0.600586 0.384372
vt 0.627586 0.384372
vt 0.623367 0.407227
vt 0.604805 0.407227
vt 0.074084 0.31676
vt 0.07841 0.317161
vt 0.073228 0.331055
vt 0.065883 0.330374
vt 0.50293 0.274414
vt 0.50293 0.270046
vt 0.517568 0.265241
vt 0.517568 0.272657
vt 0.567383 0.318825
vt 0.57175 0.318825
vt 0.584308 0.331055
vt 0.576892 0.331055
vt 0.040039 0.28132
vt 0.071258 0.28132
vt 0.057353 0.291992
vt 0.053944 0.291992
vt 0.509628 0.318825
vt 0.513996 0.318825
vt 0.504486 0.331055
vt 0.49707 0.331055
vt 0.477539 0.268852
vt 0.477539 0.264484
vt 0.492178 0.266241
vt 0.492178 0.273658
vt 0.084961 0.317161
vt 0.089287 0.31676
vt 0.097488 0.330374
vt 0.090143 0.331055
vt 0.089287 0.31676
vt 0.107707 0.318296
vt 0.097522 0.330377
vt 0.097488 0.330374
vt 0.768555 0.324181
vt 0.768555 0.319813
vt 0.782884 0.323639
vt 0.782884 0.331055
vt 0.553711 0.274414
vt 0.553711 0.270046
vt 0.56835 0.265241
vt 0.56835 0.272657
vt 0.520508 0.318825
vt 0.524875 0.318825
vt 0.537433 0.331055
vt 0.530017 0.331055
vt 0.077148 0.28132
vt 0.108367 0.28132
vt 0.094462 0.291992
vt 0.091053 0.291992
vt 0.556503 0.318825
vt 0.560871 0.318825
vt 0.551361 0.331055
vt 0.543945 0.331055
vt 0.52832 0.268852
vt 0.52832 0.264484
vt 0.542959 0.266241
vt 0.542959 0.273658
vt 0.74707 0.331055
vt 0.74707 0.326687
vt 0.7614 0.319813
vt 0.7614 0.327229
vt 0.055664 0.318296
vt 0.074084 0.31676
vt 0.065883 0.330374
vt 0.065849 0.330377
vt 0.390986 0.20272
vt 0.39815 0.204437
vt 0.397306 0.208008
vt 0.390986 0.206493
vt 0.517568 0.272657
vt 0.517568 0.265241
vt 0.520838 0.264484
vt 0.520838 0.271027
vt 0.473633 0.151113
vt 0.480796 0.149654
vt 0.482484 0.152033
vt 0.476164 0.15332
vt 0.480796 0.149654
vt 0.484205 0.149654
vt 0.482517 0.152033
vt 0.482484 0.152033
vt 0.484205 0.149654
vt 0.491368 0.151113
vt 0.488837 0.15332
vt 0.482517 0.152033
vt 0.492178 0.273658
vt 0.492178 0.266241
vt 0.495447 0.267871
vt 0.495447 0.274414
vt 0.362305 0.204437
vt 0.369468 0.20272
vt 0.369468 0.206493
vt 0.363148 0.208008
vt 0.369468 0.20272
vt 0.369502 0.20272
vt 0.369502 0.206493
vt 0.369468 0.206493
vt 0.369502 0.20272
vt 0.376665 0.204437
vt 0.375822 0.208008
vt 0.369502 0.206493
vt 0.56835 0.272657
vt 0.56835 0.265241
vt 0.571619 0.264484
vt 0.571619 0.271027
vt 0.499023 0.151113
vt 0.506187 0.149654
vt 0.507874 0.152033
vt 0.501555 0.15332
vt 0.506187 0.149654
vt 0.509596 0.149654
vt 0.507908 0.152033
vt 0.507874 0.152033
vt 0.509596 0.149654
vt 0.516759 0.151113
vt 0.514228 0.15332
vt 0.507908 0.152033
vt 0.542959 0.273658
vt 0.542959 0.266241
vt 0.546228 0.267871
vt 0.546228 0.274414
vt 0.383789 0.204437
vt 0.390952 0.20272
vt 0.390952 0.206493
vt 0.384633 0.208008
vt 0.390952 0.20272
vt 0.390986 0.20272
vt 0.390986 0.206493
vt 0.390952 0.206493
vt 0.265649 0.11294
vt 0.271968 0.111639
vt 0.272475 0.112853
vt 0.265649 0.114258
vt 0.680926 0.058279
vt 0.687469 0.058279
vt 0.687731 0.05957
vt 0.680664 0.05957
vt 0.216327 0.111639
vt 0.222646 0.11294
vt 0.222646 0.114258
vt 0.21582 0.112853
vt 0.222646 0.11294
vt 0.22268 0.11294
vt 0.22268 0.114258
vt 0.222646 0.114258
vt 0.22268 0.11294
vt 0.229 0.111639
vt 0.229506 0.112853
vt 0.22268 0.114258
vt 0.653582 0.058279
vt 0.660125 0.058279
vt 0.660387 0.05957
vt 0.65332 0.05957
vt 0.28078 0.111639
vt 0.287099 0.11294
vt 0.287099 0.114258
vt 0.280273 0.112853
vt 0.287099 0.11294
vt 0.287133 0.11294
vt 0.287133 0.114258
vt 0.287099 0.114258
vt 0.287133 0.11294
vt 0.293453 0.111639
vt 0.293959 0.112853
vt 0.287133 0.114258
vt 0.721942 0.058279
vt 0.728484 0.058279
vt 0.728746 0.05957
vt 0.72168 0.05957
vt 0.173358 0.111639
vt 0.179677 0.11294
vt 0.179677 0.114258
vt 0.172852 0.112853
vt 0.179677 0.11294
vt 0.179711 0.11294
vt 0.179711 0.114258
vt 0.179677 0.114258
vt 0.179711 0.11294
vt 0.186031 0.111639
vt 0.186537 0.112853
vt 0.179711 0.114258
vt 0.749285 0.058279
vt 0.755828 0.058279
vt 0.75609 0.05957
vt 0.749023 0.05957
vt 0.259295 0.111639
vt 0.265615 0.11294
vt 0.265615 0.114258
vt 0.258789 0.112853
vt 0.265615 0.11294
vt 0.265649 0.11294
vt 0.265649 0.114258
vt 0.265615 0.114258
vt 0.086914 0.14018
vt 0.093981 0.14018
vt 0.093981 0.143555
vt 0.086914 0.143555
vt 0.045898 0.14018
vt 0.052965 0.14018
vt 0.052965 0.143555
vt 0.045898 0.143555
vt 0.018555 0.14018
vt 0.025621 0.14018
vt 0.025621 0.143555
vt 0.018555 0.143555
vt 0.59082 0.012695
vt 0.59082 0.012662
vt 0.594195 0.012662
vt 0.594195 0.012695
vt 0.100586 0.14018
vt 0.107653 0.14018
vt 0.107653 0.143555
vt 0.100586 0.143555
vt 0.866211 0.149945
vt 0.873278 0.149945
vt 0.873278 0.15332
vt 0.866211 0.15332
vt 0.12793 0.14018
vt 0.134996 0.14018
vt 0.134996 0.143555
vt 0.12793 0.143555
vt 0.600586 0.012695
vt 0.600586 0.012662
vt 0.603961 0.012662
vt 0.603961 0.012695
vt 0.93457 0.149945
vt 0.941637 0.149945
vt 0.941637 0.15332
vt 0.93457 0.15332
vt 0.168945 0.14018
vt 0.176012 0.14018
vt 0.176012 0.143555
vt 0.168945 0.143555
vt 0.948242 0.149945
vt 0.955309 0.149945
vt 0.955309 0.15332
vt 0.948242 0.15332
vt 0.610352 0.012695
vt 0.610352 0.012662
vt 0.613727 0.012662
vt 0.613727 0.012695
vt 0.961914 0.149945
vt 0.968981 0.149945
vt 0.968981 0.15332
vt 0.961914 0.15332
vt 0.182617 0.14018
vt 0.189684 0.14018
vt 0.189684 0.143555
vt 0.182617 0.143555
vt 0.975586 0.149945
vt 0.982653 0.149945
vt 0.982653 0.15332
vt 0.975586 0.15332
vt 0.483398 0.012695
vt 0.483398 0.012662
vt 0.486773 0.012662
vt 0.486773 0.012695
vt 0.783227 0.130799
vt 0.790053 0.13235
vt 0.789378 0.133789
vt 0.783227 0.132391
vt 0.520508 0.073642
vt 0.527575 0.073642
vt 0.527225 0.075195
vt 0.520857 0.075195
vt 0.733398 0.13235
vt 0.740224 0.130799
vt 0.740224 0.132391
vt 0.734073 0.133789
vt 0.740224 0.130799
vt 0.740258 0.130799
vt 0.740258 0.132391
vt 0.740224 0.132391
vt 0.740258 0.130799
vt 0.747084 0.13235
vt 0.746409 0.133789
vt 0.740258 0.132391
vt 0.479492 0.073642
vt 0.486559 0.073642
vt 0.48621 0.075195
vt 0.479842 0.075195
vt 0.797852 0.13235
vt 0.804678 0.130799
vt 0.804678 0.132391
vt 0.798527 0.133789
vt 0.804678 0.130799
vt 0.804711 0.130799
vt 0.804711 0.132391
vt 0.804678 0.132391
vt 0.804711 0.130799
vt 0.811537 0.13235
vt 0.810862 0.133789
vt 0.804711 0.132391
vt 0.383789 0.073642
vt 0.390856 0.073642
vt 0.390506 0.075195
vt 0.384138 0.075195
vt 0.754883 0.13235
vt 0.761709 0.130799
vt 0.761709 0.132391
vt 0.755558 0.133789
vt 0.761709 0.130799
vt 0.761742 0.130799
vt 0.761742 0.132391
vt 0.761709 0.132391
vt 0.761742 0.130799
vt 0.768568 0.13235
vt 0.767893 0.133789
vt 0.761742 0.132391
vt 0.438477 0.073642
vt 0.445543 0.073642
vt 0.445194 0.075195
vt 0.438826 0.075195
vt 0.776367 0.13235
vt 0.783193 0.130799
vt 0.783193 0.132391
vt 0.777042 0.133789
vt 0.783193 0.130799
vt 0.783227 0.130799
vt 0.783227 0.132391
vt 0.783193 0.132391
vt 0.879883 0.14018
vt 0.886251 0.14018
vt 0.886251 0.143555
vt 0.879883 0.143555
vt 0.893555 0.14018
vt 0.899923 0.14018
vt 0.899923 0.143555
vt 0.893555 0.143555
vt 0.838867 0.14018
vt 0.845235 0.14018
vt 0.845235 0.143555
vt 0.838867 0.143555
vt 0.678711 0.012695
vt 0.678711 0.012662
vt 0.682086 0.012662
vt 0.682086 0.012695
vt 0.93457 0.14018
vt 0.940938 0.14018
vt 0.940938 0.143555
vt 0.93457 0.143555
vt 0.702148 0.14018
vt 0.708516 0.14018
vt 0.708516 0.143555
vt 0.702148 0.143555
vt 0.948242 0.14018
vt 0.95461 0.14018
vt 0.95461 0.143555
vt 0.948242 0.143555
vt 0.688477 0.012695
vt 0.688477 0.012662
vt 0.691852 0.012662
vt 0.691852 0.012695
vt 0.78418 0.14018
vt 0.790548 0.14018
vt 0.790548 0.143555
vt 0.78418 0.143555
vt 0.018555 0.130414
vt 0.024923 0.130414
vt 0.024923 0.133789
vt 0.018555 0.133789
vt 0.797852 0.14018
vt 0.804219 0.14018
vt 0.804219 0.143555
vt 0.797852 0.143555
vt 0.698242 0.012695
vt 0.698242 0.012662
vt 0.701617 0.012662
vt 0.701617 0.012695
vt 0.729492 0.14018
vt 0.73586 0.14018
vt 0.73586 0.143555
vt 0.729492 0.143555
vt 0.975586 0.14018
vt 0.981954 0.14018
vt 0.981954 0.143555
vt 0.975586 0.143555
vt 0.811523 0.14018
vt 0.817891 0.14018
vt 0.817891 0.143555
vt 0.811523 0.143555
vt 0.522461 0.012695
vt 0.522461 0.012662
vt 0.525836 0.012662
vt 0.525836 0.012695
vt 0.626121 0.083773
vt 0.632435 0.083193
vt 0.632757 0.084341
vt 0.62601 0.084961
vt 0.323461 0.019335
vt 0.329828 0.019335
vt 0.330047 0.020508
vt 0.323242 0.020508
vt 0.612627 0.083193
vt 0.618941 0.083773
vt 0.619052 0.084961
vt 0.612305 0.084341
vt 0.618941 0.083773
vt 0.618975 0.08377
vt 0.619086 0.084958
vt 0.619052 0.084961
vt 0.501195 0.019335
vt 0.507563 0.019335
vt 0.507781 0.020508
vt 0.500977 0.020508
vt 0.446507 0.019335
vt 0.452875 0.019335
vt 0.453094 0.020508
vt 0.446289 0.020508
vt 0.63997 0.083193
vt 0.646285 0.083773
vt 0.646396 0.084961
vt 0.639648 0.084341
vt 0.646285 0.083773
vt 0.646318 0.08377
vt 0.646429 0.084958
vt 0.646396 0.084961
vt 0.487523 0.019335
vt 0.493891 0.019335
vt 0.494109 0.020508
vt 0.487305 0.020508
vt 0.528539 0.019335
vt 0.534907 0.019335
vt 0.535125 0.020508
vt 0.52832 0.020508
vt 0.571611 0.083193
vt 0.577925 0.083773
vt 0.578037 0.084961
vt 0.571289 0.084341
vt 0.577925 0.083773
vt 0.577959 0.08377
vt 0.57807 0.084958
vt 0.578037 0.084961
vt 0.473851 0.019335
vt 0.480219 0.019335
vt 0.480437 0.020508
vt 0.473633 0.020508
vt 0.39182 0.019335
vt 0.398188 0.019335
vt 0.398406 0.020508
vt 0.391602 0.020508
vt 0.296117 0.019335
vt 0.302485 0.019335
vt 0.302703 0.020508
vt 0.295898 0.020508
vt 0.626088 0.08377
vt 0.626121 0.083773
vt 0.62601 0.084961
vt 0.625977 0.084958
vt 0.415039 0.14018
vt 0.421844 0.14018
vt 0.421844 0.143555
vt 0.415039 0.143555
vt 0.374023 0.14018
vt 0.380828 0.14018
vt 0.380828 0.143555
vt 0.374023 0.143555
vt 0.34668 0.14018
vt 0.353484 0.14018
vt 0.353484 0.143555
vt 0.34668 0.143555
vt 0.620117 0.012695
vt 0.620117 0.012662
vt 0.623492 0.012662
vt 0.623492 0.012695
vt 0.428711 0.14018
vt 0.435516 0.14018
vt 0.435516 0.143555
vt 0.428711 0.143555
vt 0.223633 0.14018
vt 0.230437 0.14018
vt 0.230437 0.143555
vt 0.223633 0.143555
vt 0.456055 0.14018
vt 0.462859 0.14018
vt 0.462859 0.143555
vt 0.456055 0.143555
vt 0.629883 0.012695
vt 0.629883 0.012662
vt 0.633258 0.012662
vt 0.633258 0.012695
vt 0.305664 0.14018
vt 0.312469 0.14018
vt 0.312469 0.143555
vt 0.305664 0.143555
vt 0.510742 0.14018
vt 0.517547 0.14018
vt 0.517547 0.143555
vt 0.510742 0.143555
vt 0.237305 0.14018
vt 0.244109 0.14018
vt 0.244109 0.143555
vt 0.237305 0.143555
vt 0.639648 0.012695
vt 0.639648 0.012662
vt 0.643023 0.012662
vt 0.643023 0.012695
vt 0.250977 0.14018
vt 0.257781 0.14018
vt 0.257781 0.143555
vt 0.250977 0.143555
vt 0.483398 0.14018
vt 0.490203 0.14018
vt 0.490203 0.143555
vt 0.483398 0.143555
vt 0.319336 0.14018
vt 0.326141 0.14018
vt 0.326141 0.143555
vt 0.319336 0.143555
vt 0.50293 0.012695
vt 0.50293 0.012662
vt 0.506305 0.012662
vt 0.506305 0.012695
vt 0.909927 0.130857
vt 0.9165 0.13235
vt 0.915825 0.133789
vt 0.909927 0.132449
vt 0.411133 0.073642
vt 0.417937 0.073642
vt 0.417588 0.075195
vt 0.411482 0.075195
vt 0.981445 0.13235
vt 0.988018 0.130857
vt 0.988018 0.132449
vt 0.98212 0.133789
vt 0.988018 0.130857
vt 0.988052 0.130857
vt 0.988052 0.132449
vt 0.988018 0.132449
vt 0.988052 0.130857
vt 0.994625 0.13235
vt 0.99395 0.133789
vt 0.988052 0.132449
vt 0.342773 0.073642
vt 0.349578 0.073642
vt 0.349229 0.075195
vt 0.343123 0.075195
vt 0.942383 0.13235
vt 0.948956 0.130857
vt 0.948956 0.132449
vt 0.943058 0.133789
vt 0.948956 0.130857
vt 0.948989 0.130857
vt 0.948989 0.132449
vt 0.948956 0.132449
vt 0.948989 0.130857
vt 0.955562 0.13235
vt 0.954887 0.133789
vt 0.948989 0.132449
vt 0.46582 0.073642
vt 0.472625 0.073642
vt 0.472276 0.075195
vt 0.46617 0.075195
vt 0.004883 0.122585
vt 0.011456 0.121091
vt 0.011456 0.122683
vt 0.005558 0.124023
vt 0.011456 0.121091
vt 0.011489 0.121091
vt 0.011489 0.122683
vt 0.011456 0.122683
vt 0.011489 0.121091
vt 0.018062 0.122585
vt 0.017387 0.124023
vt 0.011489 0.122683
vt 0.424805 0.073642
vt 0.431609 0.073642
vt 0.43126 0.075195
vt 0.425154 0.075195
vt 0.90332 0.13235
vt 0.909893 0.130857
vt 0.909893 0.132449
vt 0.903995 0.133789
vt 0.909893 0.130857
vt 0.909927 0.130857
vt 0.909927 0.132449
vt 0.909893 0.132449
vt 0.237305 0.130414
vt 0.243411 0.130414
vt 0.243411 0.133789
vt 0.237305 0.133789
vt 0.209961 0.130414
vt 0.216067 0.130414
vt 0.216067 0.133789
vt 0.209961 0.133789
vt 0.182617 0.130414
vt 0.188723 0.130414
vt 0.188723 0.133789
vt 0.182617 0.133789
vt 0.391602 0.012695
vt 0.391602 0.012662
vt 0.394977 0.012662
vt 0.394977 0.012695
vt 0.264648 0.130414
vt 0.270754 0.130414
vt 0.270754 0.133789
vt 0.264648 0.133789
vt 0.114258 0.130414
vt 0.120364 0.130414
vt 0.120364 0.133789
vt 0.114258 0.133789
vt 0.291992 0.130414
vt 0.298098 0.130414
vt 0.298098 0.133789
vt 0.291992 0.133789
vt 0.401367 0.012695
vt 0.401367 0.012662
vt 0.404742 0.012662
vt 0.404742 0.012695
vt 0.12793 0.130414
vt 0.134036 0.130414
vt 0.134036 0.133789
vt 0.12793 0.133789
vt 0.319336 0.130414
vt 0.325442 0.130414
vt 0.325442 0.133789
vt 0.319336 0.133789
vt 0.045898 0.130414
vt 0.052004 0.130414
vt 0.052004 0.133789
vt 0.045898 0.133789
vt 0.411133 0.012695
vt 0.411133 0.012662
vt 0.414508 0.012662
vt 0.414508 0.012695
vt 0.141602 0.130414
vt 0.147707 0.130414
vt 0.147707 0.133789
vt 0.141602 0.133789
vt 0.34668 0.130414
vt 0.352786 0.130414
vt 0.352786 0.133789
vt 0.34668 0.133789
vt 0.155273 0.130414
vt 0.161379 0.130414
vt 0.161379 0.133789
vt 0.155273 0.133789
vt 0.200195 0.012695
vt 0.200195 0.012662
vt 0.20357 0.012662
vt 0.20357 0.012695
vt 0.245117 0.208008
vt 0.245117 0.201902
vt 0.253991 0.202644
vt 0.253991 0.207265
vt 0.174805 0.208008
vt 0.174805 0.201902
vt 0.183678 0.202644
vt 0.183678 0.207265
vt 0.22168 0.208008
vt 0.22168 0.201902
vt 0.230553 0.202644
vt 0.230553 0.207265
vt 0.450195 0.012695
vt 0.450195 0.012662
vt 0.4591 0.012662
vt 0.4591 0.012695
vt 0.268555 0.208008
vt 0.268555 0.201902
vt 0.277428 0.202644
vt 0.277428 0.207265
vt 0.081055 0.208008
vt 0.081055 0.201902
vt 0.089928 0.202644
vt 0.089928 0.207265
vt 0.291992 0.208008
vt 0.291992 0.201902
vt 0.300866 0.202644
vt 0.300866 0.207265
vt 0.286133 0.012695
vt 0.286133 0.012662
vt 0.295037 0.012662
vt 0.295037 0.012695
vt 0.198242 0.208008
vt 0.198242 0.201902
vt 0.207116 0.202644
vt 0.207116 0.207265
vt 0.338867 0.208008
vt 0.338867 0.201902
vt 0.347741 0.202644
vt 0.347741 0.207265
vt 0.104492 0.208008
vt 0.104492 0.201902
vt 0.113366 0.202644
vt 0.113366 0.207265
vt 0.30957 0.012695
vt 0.30957 0.012662
vt 0.318475 0.012662
vt 0.318475 0.012695
vt 0.151367 0.208008
vt 0.151367 0.201902
vt 0.160241 0.202644
vt 0.160241 0.207265
vt 0.31543 0.208008
vt 0.31543 0.201902
vt 0.324303 0.202644
vt 0.324303 0.207265
vt 0.12793 0.208008
vt 0.12793 0.201902
vt 0.136803 0.202644
vt 0.136803 0.207265
vt 0.166992 0.012695
vt 0.166992 0.012662
vt 0.175896 0.012662
vt 0.175896 0.012695
vt 0.253991 0.207265
vt 0.253991 0.202644
vt 0.260929 0.203081
vt 0.260929 0.206829
vt 0.183678 0.207265
vt 0.183678 0.202644
vt 0.190617 0.203081
vt 0.190617 0.206829
vt 0.230553 0.207265
vt 0.230553 0.202644
vt 0.237492 0.203081
vt 0.237492 0.206829
vt 0.4591 0.012695
vt 0.4591 0.012662
vt 0.466051 0.012662
vt 0.466051 0.012695
vt 0.277428 0.207265
vt 0.277428 0.202644
vt 0.284367 0.203081
vt 0.284367 0.206829
vt 0.089928 0.207265
vt 0.089928 0.202644
vt 0.096867 0.203081
vt 0.096867 0.206829
vt 0.300866 0.207265
vt 0.300866 0.202644
vt 0.307804 0.203081
vt 0.307804 0.206829
vt 0.295037 0.012695
vt 0.295037 0.012662
vt 0.301989 0.012662
vt 0.301989 0.012695
vt 0.207116 0.207265
vt 0.207116 0.202644
vt 0.214054 0.203081
vt 0.214054 0.206829
vt 0.347741 0.207265
vt 0.347741 0.202644
vt 0.354679 0.203081
vt 0.354679 0.206829
vt 0.113366 0.207265
vt 0.113366 0.202644
vt 0.120304 0.203081
vt 0.120304 0.206829
vt 0.318475 0.012695
vt 0.318475 0.012662
vt 0.325426 0.012662
vt 0.325426 0.012695
vt 0.160241 0.207265
vt 0.160241 0.202644
vt 0.167179 0.203081
vt 0.167179 0.206829
vt 0.324303 0.207265
vt 0.324303 0.202644
vt 0.331242 0.203081
vt 0.331242 0.206829
vt 0.136803 0.207265
vt 0.136803 0.202644
vt 0.143742 0.203081
vt 0.143742 0.206829
vt 0.175896 0.012695
vt 0.175896 0.012662
vt 0.182848 0.012662
vt 0.182848 0.012695
vt 0.845518 0.499977
vt 0.844727 0.497023
vt 0.870883 0.483523
vt 0.84768 0.502138
vt 0.845518 0.499977
vt 0.870883 0.483523
vt 0.850633 0.50293
vt 0.84768 0.502138
vt 0.870883 0.483523
vt 0.891133 0.50293
vt 0.850633 0.50293
vt 0.870883 0.483523
vt 0.894086 0.502138
vt 0.891133 0.50293
vt 0.870883 0.483523
vt 0.896248 0.499977
vt 0.894086 0.502138
vt 0.870883 0.483523
vt 0.897039 0.497023
vt 0.896248 0.499977
vt 0.870883 0.483523
vt 0.897039 0.470023
vt 0.897039 0.497023
vt 0.870883 0.483523
vt 0.896248 0.46707
vt 0.897039 0.470023
vt 0.870883 0.483523
vt 0.894086 0.464908
vt 0.896248 0.46707
vt 0.870883 0.483523
vt 0.891133 0.464117
vt 0.894086 0.464908
vt 0.870883 0.483523
vt 0.850633 0.464117
vt 0.891133 0.464117
vt 0.870883 0.483523
vt 0.84768 0.464908
vt 0.850633 0.464117
vt 0.870883 0.483523
vt 0.845518 0.46707
vt 0.84768 0.464908
vt 0.870883 0.483523
vt 0.844727 0.470023
vt 0.845518 0.46707
vt 0.870883 0.483523
vt 0.844727 0.497023
vt 0.844727 0.470023
vt 0.870883 0.483523
vt 0.898858 0.355048
vt 0.898875 0.347792
vt 0.902494 0.348762
vt 0.898858 0.355048
vt 0.902494 0.348762
vt 0.905144 0.351412
vt 0.898858 0.355048
vt 0.905144 0.351412
vt 0.906114 0.355032
vt 0.898858 0.355048
vt 0.906114 0.355032
vt 0.906114 0.355065
vt 0.898858 0.355048
vt 0.906114 0.355065
vt 0.905144 0.358685
vt 0.898858 0.355048
vt 0.905144 0.358685
vt 0.902494 0.361335
vt 0.898858 0.355048
vt 0.902494 0.361335
vt 0.898875 0.362305
vt 0.898858 0.355048
vt 0.898875 0.362305
vt 0.898841 0.362305
vt 0.898858 0.355048
vt 0.898841 0.362305
vt 0.895221 0.361335
vt 0.898858 0.355048
vt 0.895221 0.361335
vt 0.892571 0.358685
vt 0.898858 0.355048
vt 0.892571 0.358685
vt 0.891602 0.355065
vt 0.898858 0.355048
vt 0.891602 0.355065
vt 0.891602 0.355032
vt 0.898858 0.355048
vt 0.891602 0.355032
vt 0.892571 0.351412
vt 0.898858 0.355048
vt 0.892571 0.351412
vt 0.895221 0.348762
vt 0.898858 0.355048
vt 0.895221 0.348762
vt 0.898841 0.347792
vt 0.898858 0.355048
vt 0.898841 0.347792
vt 0.898875 0.347792
vn 0.999651 0.026408 0
vn 0.866025 0.5 0
vn 0.857576 0.495121 0.139352
vn 0.995799 0.03485 0.084673
vn 0.5 0.866025 0
vn 0.495526 0.858276 0.133479
vn 0.018207 0.999834 0
vn 0.023436 0.997426 0.067772
vn -0.018207 0.999834 0
vn -0.023436 0.997426 0.067772
vn -0.5 0.866025 0
vn -0.495526 0.858276 0.133479
vn -0.866025 0.5 0
vn -0.857576 0.495121 0.139352
vn -0.999651 0.026408 0
vn -0.995799 0.03485 0.084673
vn -0.999651 -0.026408 0
vn -0.995799 -0.03485 0.084673
vn -0.866025 -0.5 0
vn -0.857576 -0.495121 0.139352
vn -0.5 -0.866025 0
vn -0.495526 -0.858276 0.133479
vn -0.018207 -0.999834 0
vn -0.023436 -0.997426 0.067772
vn 0.018207 -0.999834 0
vn 0.023436 -0.997426 0.067772
vn 0.5 -0.866025 0
vn 0.495526 -0.858276 0.133479
vn 0.866025 -0.5 0
vn 0.857576 -0.495121 0.139352
vn 0.999651 -0.026408 0
vn 0.995799 -0.03485 0.084673
vn 0.855428 0.493882 0.155962
vn 0.981384 0.030917 0.189551
vn 0.494387 0.856303 0.149419
vn 0.032607 0.988393 0.148379
vn 0.420644 0.862307 0.281931
vn -0.032607 0.988393 0.148379
vn -0.420644 0.862307 0.281931
vn -0.855428 0.493882 0.155962
vn -0.494387 0.856303 0.149419
vn -0.981384 0.030917 0.189551
vn -0.981384 -0.030917 0.189551
vn -0.855428 -0.493882 0.155962
vn -0.494387 -0.856303 0.149419
vn -0.032607 -0.988393 0.148379
vn -0.420644 -0.862307 0.281931
vn 0.032607 -0.988393 0.148379
vn 0.420644 -0.862307 0.281931
vn 0.855428 -0.493882 0.155962
vn 0.494387 -0.856303 0.149419
vn 0.981384 -0.030917 0.189551
vn 0.74678 0.075974 0.660717
vn 0.592751 0.342225 0.729059
vn 0.555175 0.320531 0.76749
vn 0.717962 0.081335 0.691315
vn 0.372125 0.64454 0.6679
vn 0.354125 0.613363 0.705961
vn 0.347867 0.794057 0.498459
vn 0.067532 0.902974 0.424355
vn -0.067532 0.902974 0.424355
vn -0.347867 0.794057 0.498459
vn -0.354125 0.613363 0.705961
vn -0.372125 0.64454 0.6679
vn -0.592751 0.342225 0.729059
vn -0.555175 0.320531 0.76749
vn -0.74678 0.075974 0.660717
vn -0.717962 0.081335 0.691315
vn -0.967234 0.047985 0.249311
vn -0.967234 -0.047985 0.249311
vn -0.717962 -0.081335 0.691315
vn -0.74678 -0.075974 0.660717
vn -0.592751 -0.342225 0.729059
vn -0.555175 -0.320531 0.76749
vn -0.372125 -0.64454 0.6679
vn -0.354125 -0.613363 0.705961
vn -0.347867 -0.794057 0.498459
vn -0.067532 -0.902974 0.424355
vn 0.067532 -0.902974 0.424355
vn 0.347867 -0.794057 0.498459
vn 0.354125 -0.613363 0.705961
vn 0.372125 -0.64454 0.6679
vn 0.592751 -0.342225 0.729059
vn 0.555175 -0.320531 0.76749
vn 0.74678 -0.075974 0.660717
vn 0.717962 -0.081335 0.691315
vn 0.967234 -0.047985 0.249311
vn 0.967234 0.047985 0.249311
vn 0.409065 0.236174 0.881412
vn 0.444068 0.118395 0.888136
vn 0.27735 0.480384 0.83205
vn 0.134514 0.630188 0.764702
vn -0.134514 0.630188 0.764702
vn -0.27735 0.480384 0.83205
vn -0.409065 0.236174 0.881412
vn -0.444068 0.118395 0.888136
vn -0.444068 -0.118395 0.888136
vn -0.409065 -0.236174 0.881412
vn -0.27735 -0.480384 0.83205
vn -0.134514 -0.630188 0.764702
vn 0.134514 -0.630188 0.764702
vn 0.27735 -0.480384 0.83205
vn 0.409065 -0.236174 0.881412
vn 0.444068 -0.118395 0.888136
vn 0.631061 0.168228 -0.757273
vn 0.554416 0.320092 -0.768221
vn 0.320092 0.554416 -0.768221
vn 0.168228 0.631061 -0.757273
vn -0.168228 0.631061 -0.757273
vn -0.320092 0.554416 -0.768221
vn -0.554416 0.320092 -0.768221
vn -0.631061 0.168228 -0.757273
vn -0.631061 -0.168228 -0.757273
vn -0.554416 -0.320092 -0.768221
vn -0.320092 -0.554416 -0.768221
vn -0.168228 -0.631061 -0.757273
vn 0.168228 -0.631061 -0.757273
vn 0.320092 -0.554416 -0.768221
vn 0.554416 -0.320092 -0.768221
vn 0.631061 -0.168228 -0.757273
vn 0.966244 0.25763 0
vn 0.25763 0.966244 0
vn -0.25763 0.966244 0
vn -0.966244 0.25763 0
vn -0.966244 -0.25763 0
vn -0.25763 -0.966244 0
vn 0.25763 -0.966244 0
vn 0.966244 -0.25763 0
vn 0.524788 0.139889 0.83966
vn 0.458993 0.264999 0.847998
vn 0.264999 0.458993 0.847998
vn 0.139889 0.524788 0.83966
vn -0.139889 0.524788 0.83966
vn -0.264999 0.458993 0.847998
vn -0.458993 0.264999 0.847998
vn -0.524788 0.139889 0.83966
vn -0.524788 -0.139889 0.83966
vn -0.458993 -0.264999 0.847998
vn -0.264999 -0.458993 0.847998
vn -0.139889 -0.524788 0.83966
vn 0.139889 -0.524788 0.83966
vn 0.264999 -0.458993 0.847998
vn 0.458993 -0.264999 0.847998
vn 0.524788 -0.139889 0.83966
vn 0.966278 0.257501 0
vn 0.257501 0.966278 0
vn -0.257501 0.966278 0
vn -0.966278 0.257501 0
vn -0.966278 -0.257501 0
vn -0.257501 -0.966278 0
vn 0.257501 -0.966278 0
vn 0.966278 -0.257501 0
vn 0.694873 0.185208 -0.694873
vn 0.612372 0.353553 -0.707107
vn 0.353553 0.612372 -0.707107
vn 0.185208 0.694873 -0.694873
vn -0.185208 0.694873 -0.694873
vn -0.353553 0.612372 -0.707107
vn -0.612372 0.353553 -0.707107
vn -0.694873 0.185208 -0.694873
vn -0.694873 -0.185208 -0.694873
vn -0.612372 -0.353553 -0.707107
vn -0.353553 -0.612372 -0.707107
vn -0.185208 -0.694873 -0.694873
vn 0.185208 -0.694873 -0.694873
vn 0.353553 -0.612372 -0.707107
vn 0.612372 -0.353553 -0.707107
vn 0.694873 -0.185208 -0.694873
vn 0.966256 0.257585 0
vn 0.257585 0.966256 0
vn -0.257585 0.966256 0
vn -0.966256 0.257585 0
vn -0.966256 -0.257585 0
vn -0.257585 -0.966256 0
vn 0.257585 -0.966256 0
vn 0.966256 -0.257585 0
vn 0.52479 0.13986 0.839664
vn 0.13986 0.52479 0.839664
vn -0.13986 0.52479 0.839664
vn -0.52479 0.13986 0.839664
vn -0.52479 -0.13986 0.839664
vn -0.13986 -0.52479 0.839664
vn 0.13986 -0.52479 0.839664
vn 0.52479 -0.13986 0.839664
vn 0.966293 0.257444 0
vn 0.843318 0.48689 0.227491
vn 0.942596 0.250995 0.22026
vn 0.48689 0.843318 0.227491
vn 0.257444 0.966293 0
vn 0.250995 0.942596 0.22026
vn -0.257444 0.966293 0
vn -0.250995 0.942596 0.22026
vn -0.48689 0.843318 0.227491
vn -0.843318 0.48689 0.227491
vn -0.966293 0.257444 0
vn -0.942596 0.250995 0.22026
vn -0.966293 -0.257444 0
vn -0.942596 -0.250995 0.22026
vn -0.843318 -0.48689 0.227491
vn -0.48689 -0.843318 0.227491
vn -0.257444 -0.966293 0
vn -0.250995 -0.942596 0.22026
vn 0.257444 -0.966293 0
vn 0.250995 -0.942596 0.22026
vn 0.48689 -0.843318 0.227491
vn 0.843318 -0.48689 0.227491
vn 0.966293 -0.257444 0
vn 0.942596 -0.250995 0.22026
vn 0.828257 0.478195 0.292096
vn 0.92687 0.246574 0.283044
vn 0.478195 0.828257 0.292096
vn 0.246574 0.92687 0.283044
vn -0.246574 0.92687 0.283044
vn -0.478195 0.828257 0.292096
vn -0.828257 0.478195 0.292096
vn -0.92687 0.246574 0.283044
vn -0.92687 -0.246574 0.283044
vn -0.828257 -0.478195 0.292096
vn -0.478195 -0.828257 0.292096
vn -0.246574 -0.92687 0.283044
vn 0.246574 -0.92687 0.283044
vn 0.478195 -0.828257 0.292096
vn 0.828257 -0.478195 0.292096
vn 0.92687 -0.246574 0.283044
vn 0.840168 0.485071 0.242536
vn 0.939428 0.249634 0.234857
vn 0.485071 0.840168 0.242536
vn 0.249634 0.939428 0.234857
vn -0.249634 0.939428 0.234857
vn -0.485071 0.840168 0.242536
vn -0.840168 0.485071 0.242536
vn -0.939428 0.249634 0.234857
vn -0.939428 -0.249634 0.234857
vn -0.840168 -0.485071 0.242536
vn -0.485071 -0.840168 0.242536
vn -0.249634 -0.939428 0.234857
vn 0.249634 -0.939428 0.234857
vn 0.485071 -0.840168 0.242536
vn 0.840168 -0.485071 0.242536
vn 0.939428 -0.249634 0.234857
vn 0 0 -1
vn 0 0 1
f 25/49/9 26/50/10 42/51/11 41/52/12
f 26/53/10 27/54/13 43/55/14 42/56/11
f 27/57/13 28/58/15 44/59/16 43/60/14
f 28/61/15 29/62/17 45/63/18 44/64/16
f 29/65/17 30/66/19 46/67/20 45/68/18
f 30/69/19 31/70/21 47/71/22 46/72/20
f 31/73/21 32/74/23 48/75/24 47/76/22
f 32/77/23 33/78/25 49/79/26 48/80/24
f 33/81/25 34/82/27 50/83/28 49/84/26
f 34/85/27 35/86/29 51/87/30 50/88/28
f 35/89/29 36/90/31 52/91/32 51/92/30
f 36/93/31 37/94/33 53/95/34 52/96/32
f 37/97/33 38/98/35 54/99/36 53/100/34
f 38/101/35 39/102/37 55/103/38 54/104/36
f 39/105/37 40/106/39 56/107/40 55/108/38
f 40/109/39 25/110/9 41/111/12 56/112/40
f 41/113/12 42/114/11 58/115/41 57/116/42
f 42/117/11 43/118/14 59/119/43 58/120/41
f 43/121/14 44/122/16 60/123/44 59/124/45
f 44/125/16 45/126/18 61/127/46 60/128/44
f 45/129/18 46/130/20 62/131/47 61/132/46
f 46/133/20 47/134/22 63/135/48 62/136/49
f 47/137/22 48/138/24 64/139/50 63/140/48
f 48/141/24 49/142/26 65/143/51 64/144/50
f 49/145/26 50/146/28 66/147/52 65/148/51
f 50/149/28 51/150/30 67/151/53 66/152/52
f 51/153/30 52/154/32 68/155/54 67/156/55
f 52/157/32 53/158/34 69/159/56 68/160/54
f 53/161/34 54/162/36 70/163/57 69/164/56
f 54/165/36 55/166/38 71/167/58 70/168/59
f 55/169/38 56/170/40 72/171/60 71/172/58
f 56/173/40 41/174/12 57/175/42 72/176/60
f 57/177/61 58/178/62 74/179/63 73/180/64
f 58/181/62 59/182/65 75/183/66 74/184/63
f 59/185/67 60/186/44 76/187/68 75/188/66
f 60/189/44 61/190/46 77/191/69 76/192/68
f 61/193/46 62/194/70 78/195/71 77/196/69
f 62/197/72 63/198/73 79/199/74 78/200/71
f 63/201/73 64/202/75 80/203/76 79/204/74
f 64/205/77 65/206/78 81/207/79 80/208/76
f 65/209/80 66/210/81 82/211/82 81/212/79
f 66/213/81 67/214/83 83/215/84 82/216/82
f 67/217/85 68/218/54 84/219/86 83/220/84
f 68/221/54 69/222/56 85/223/87 84/224/86
f 69/225/56 70/226/88 86/227/89 85/228/87
f 70/229/90 71/230/91 87/231/92 86/232/89
f 71/233/91 72/234/93 88/235/94 87/236/92
f 72/237/95 57/238/96 73/239/64 88/240/94
f 73/241/64 74/242/63 90/243/97 89/244/98
f 74/245/63 75/246/66 91/247/99 90/248/97
f 75/249/66 76/250/68 92/251/100 91/252/99
f 76/253/68 77/254/69 93/255/101 92/256/100
f 77/257/69 78/258/71 94/259/102 93/260/101
f 78/261/71 79/262/74 95/263/103 94/264/102
f 79/265/74 80/266/76 96/267/104 95/268/103
f 80/269/76 81/270/79 97/271/105 96/272/104
f 81/273/79 82/274/82 98/275/106 97/276/105
f 82/277/82 83/278/84 99/279/107 98/280/106
f 83/281/84 84/282/86 100/283/108 99/284/107
f 84/285/86 85/286/87 101/287/109 100/288/108
f 85/289/87 86/290/89 102/291/110 101/292/109
f 86/293/89 87/294/92 103/295/111 102/296/110
f 87/297/92 88/298/94 104/299/112 103/300/111
f 88/301/94 73/302/64 89/303/98 104/304/112
f 89/305/113 90/306/114 106/307/114 105/308/113
f 90/309/114 91/310/115 107/311/115 106/312/114
f 91/313/115 92/314/116 108/315/116 107/316/115
f 92/317/116 93/318/117 109/319/117 108/320/116
f 93/321/117 94/322/118 110/323/118 109/324/117
f 94/325/118 95/326/119 111/327/119 110/328/118
f 95/329/119 96/330/120 112/331/120 111/332/119
f 96/333/120 97/334/121 113/335/121 112/336/120
f 97/337/121 98/338/122 114/339/122 113/340/121
f 98/341/122 99/342/123 115/343/123 114/344/122
f 99/345/123 100/346/124 116/347/124 115/348/123
f 100/349/124 101/350/125 117/351/125 116/352/124
f 101/353/125 102/354/126 118/355/126 117/356/125
f 102/357/126 103/358/127 119/359/127 118/360/126
f 103/361/127 104/362/128 120/363/128 119/364/127
f 104/365/128 89/366/113 105/367/113 120/368/128
f 105/369/129 106/370/10 122/371/10 121/372/129
f 106/373/10 107/374/13 123/375/13 122/376/10
f 107/377/13 108/378/130 124/379/130 123/380/13
f 108/381/130 109/382/131 125/383/131 124/384/130
f 109/385/131 110/386/19 126/387/19 125/388/131
f 110/389/19 111/390/21 127/391/21 126/392/19
f 111/393/21 112/394/132 128/395/132 127/396/21
f 112/397/132 113/398/133 129/399/133 128/400/132
f 113/401/133 114/402/27 130/403/27 129/404/133
f 114/405/27 115/406/29 131/407/29 130/408/27
f 115/409/29 116/410/134 132/411/134 131/412/29
f 116/413/134 117/414/135 133/415/135 132/416/134
f 117/417/135 118/418/35 134/419/35 133/420/135
f 118/421/35 119/422/37 135/423/37 134/424/35
f 119/425/37 120/426/136 136/427/136 135/428/37
f 120/429/136 105/430/129 121/431/129 136/432/136
f 121/433/137 122/434/138 138/435/138 137/436/137
f 122/437/138 123/438/139 139/439/139 138/440/138
f 123/441/139 124/442/140 140/443/140 139/444/139
f 124/445/140 125/446/141 141/447/141 140/448/140
f 125/449/141 126/450/142 142/451/142 141/452/141
f 126/453/142 127/454/143 143/455/143 142/456/142
f 127/457/143 128/458/144 144/459/144 143/460/143
f 128/461/144 129/462/145 145/463/145 144/464/144
f 129/465/145 130/466/146 146/467/146 145/468/145
f 130/469/146 131/470/147 147/471/147 146/472/146
f 131/473/147 132/474/148 148/475/148 147/476/147
f 132/477/148 133/478/149 149/479/149 148/480/148
f 133/481/149 134/482/150 150/483/150 149/484/149
f 134/485/150 135/486/151 151/487/151 150/488/150
f 135/489/151 136/490/152 152/491/152 151/492/151
f 136/493/152 121/494/137 137/495/137 152/496/152
f 137/497/153 138/498/10 154/499/10 153/500/153
f 138/501/10 139/502/13 155/503/13 154/504/10
f 139/505/13 140/506/154 156/507/154 155/508/13
f 140/509/154 141/510/155 157/511/155 156/512/154
f 141/513/155 142/514/19 158/515/19 157/516/155
f 142/517/19 143/518/21 159/519/21 158/520/19
f 143/521/21 144/522/156 160/523/156 159/524/21
f 144/525/156 145/526/157 161/527/157 160/528/156
f 145/529/157 146/530/27 162/531/27 161/532/157
f 146/533/27 147/534/29 163/535/29 162/536/27
f 147/537/29 148/538/158 164/539/158 163/540/29
f 148/541/158 149/542/159 165/543/159 164/544/158
f 149/545/159 150/546/35 166/547/35 165/548/159
f 150/549/35 151/550/37 167/551/37 166/552/35
f 151/553/37 152/554/160 168/555/160 167/556/37
f 152/557/160 137/558/153 153/559/153 168/560/160
f 153/561/161 154/562/162 170/563/162 169/564/161
f 154/565/162 155/566/163 171/567/163 170/568/162
f 155/569/163 156/570/164 172/571/164 171/572/163
f 156/573/164 157/574/165 173/575/165 172/576/164
f 157/577/165 158/578/166 174/579/166 173/580/165
f 158/581/166 159/582/167 175/583/167 174/584/166
f 159/585/167 160/586/168 176/587/168 175/588/167
f 160/589/168 161/590/169 177/591/169 176/592/168
f 161/593/169 162/594/170 178/595/170 177/596/169
f 162/597/170 163/598/171 179/599/171 178/600/170
f 163/601/171 164/602/172 180/603/172 179/604/171
f 164/605/172 165/606/173 181/607/173 180/608/172
f 165/609/173 166/610/174 182/611/174 181/612/173
f 166/613/174 167/614/175 183/615/175 182/616/174
f 167/617/175 168/618/176 184/619/176 183/620/175
f 168/621/176 153/622/161 169/623/161 184/624/176
f 169/625/177 170/626/10 186/627/10 185/628/177
f 170/629/10 171/630/13 187/631/13 186/632/10
f 171/633/13 172/634/178 188/635/178 187/636/13
f 172/637/178 173/638/179 189/639/179 188/640/178
f 173/641/179 174/642/19 190/643/19 189/644/179
f 174/645/19 175/646/21 191/647/21 190/648/19
f 175/649/21 176/650/180 192/651/180 191/652/21
f 176/653/180 177/654/181 193/655/181 192/656/180
f 177/657/181 178/658/27 194/659/27 193/660/181
f 178/661/27 179/662/29 195/663/29 194/664/27
f 179/665/29 180/666/182 196/667/182 195/668/29
f 180/669/182 181/670/183 197/671/183 196/672/182
f 181/673/183 182/674/35 198/675/35 197/676/183
f 182/677/35 183/678/37 199/679/37 198/680/35
f 183/681/37 184/682/184 200/683/184 199/684/37
f 184/685/184 169/686/177 185/687/177 200/688/184
f 185/689/185 186/690/138 202/691/138 201/692/185
f 186/693/138 187/694/139 203/695/139 202/696/138
f 187/697/139 188/698/186 204/699/186 203/700/139
f 188/701/186 189/702/187 205/703/187 204/704/186
f 189/705/187 190/706/142 206/707/142 205/708/187
f 190/709/142 191/710/143 207/711/143 206/712/142
f 191/713/143 192/714/188 208/715/188 207/716/143
f 192/717/188 193/718/189 209/719/189 208/720/188
f 193/721/189 194/722/146 210/723/146 209/724/189
f 194/725/146 195/726/147 211/727/147 210/728/146
f 195/729/147 196/730/190 212/731/190 211/732/147
f 196/733/190 197/734/191 213/735/191 212/736/190
f 197/737/191 198/738/150 214/739/150 213/740/191
f 198/741/150 199/742/151 215/743/151 214/744/150
f 199/745/151 200/746/192 216/747/192 215/748/151
f 200/749/192 185/750/185 201/751/185 216/752/192
f 201/753/193 202/754/10 218/755/194 217/756/195
f 202/757/10 203/758/13 219/759/196 218/760/194
f 203/761/13 204/762/197 220/763/198 219/764/196
f 204/765/197 205/766/199 221/767/200 220/768/198
f 205/769/199 206/770/19 222/771/201 221/772/200
f 206/773/19 207/774/21 223/775/202 222/776/201
f 207/777/21 208/778/203 224/779/204 223/780/202
f 208/781/203 209/782/205 225/783/206 224/784/204
f 209/785/205 210/786/27 226/787/207 225/788/206
f 210/789/27 211/790/29 227/791/208 226/792/207
f 211/793/29 212/794/209 228/795/210 227/796/208
f 212/797/209 213/798/211 229/799/212 228/800/210
f 213/801/211 214/802/35 230/803/213 229/804/212
f 214/805/35 215/806/37 231/807/214 230/808/213
f 215/809/37 216/810/215 232/811/216 231/812/214
f 216/813/215 201/814/193 217/815/195 232/816/216
f 217/817/195 218/818/194 234/819/217 233/820/218
f 218/821/194 219/822/196 235/823/219 234/824/217
f 219/825/196 220/826/198 236/827/220 235/828/219
f 220/829/198 221/830/200 237/831/221 236/832/220
f 221/833/200 222/834/201 238/835/222 237/836/221
f 222/837/201 223/838/202 239/839/223 238/840/222
f 223/841/202 224/842/204 240/843/224 239/844/223
f 224/845/204 225/846/206 241/847/225 240/848/224
f 225/849/206 226/850/207 242/851/226 241/852/225
f 226/853/207 227/854/208 243/855/227 242/856/226
f 227/857/208 228/858/210 244/859/228 243/860/227
f 228/861/210 229/862/212 245/863/229 244/864/228
f 229/865/212 230/866/213 246/867/230 245/868/229
f 230/869/213 231/870/214 247/871/231 246/872/230
f 231/873/214 232/874/216 248/875/232 247/876/231
f 232/877/216 217/878/195 233/879/218 248/880/232
f 233/881/218 234/882/217 250/883/233 249/884/234
f 234/885/217 235/886/219 251/887/235 250/888/233
f 235/889/219 236/890/220 252/891/236 251/892/235
f 236/893/220 237/894/221 253/895/237 252/896/236
f 237/897/221 238/898/222 254/899/238 253/900/237
f 238/901/222 239/902/223 255/903/239 254/904/238
f 239/905/223 240/906/224 256/907/240 255/908/239
f 240/909/224 241/910/225 257/911/241 256/912/240
f 241/913/225 242/914/226 258/915/242 257/916/241
f 242/917/226 243/918/227 259/919/243 258/920/242
f 243/921/227 244/922/228 260/923/244 259/924/243
f 244/925/228 245/926/229 261/927/245 260/928/244
f 245/929/229 246/930/230 262/931/246 261/932/245
f 246/933/230 247/934/231 263/935/247 262/936/246
f 247/937/231 248/938/232 264/939/248 263/940/247
f 248/941/232 233/942/218 249/943/234 264/944/248
f 26/945/249 25/946/249 265/947/249
f 27/948/249 26/949/249 265/950/249
f 28/951/249 27/952/249 265/953/249
f 29/954/249 28/955/249 265/956/249
f 30/957/249 29/958/249 265/959/249
f 31/960/249 30/961/249 265/962/249
f 32/963/249 31/964/249 265/965/249
f 33/966/249 32/967/249 265/968/249
f 34/969/249 33/970/249 265/971/249
f 35/972/249 34/973/249 265/974/249
f 36/975/249 35/976/249 265/977/249
f 37/978/249 36/979/249 265/980/249
f 38/981/249 37/982/249 265/983/249
f 39/984/249 38/985/249 265/986/249
f 40/987/249 39/988/249 265/989/249
f 25/990/249 40/991/249 265/992/249
f 266/993/250 249/994/250 250/995/250
f 266/996/250 250/997/250 251/998/250
f 266/999/250 251/1000/250 252/1001/250
f 266/1002/250 252/1003/250 253/1004/250
f 266/1005/250 253/1006/250 254/1007/250
f 266/1008/250 254/1009/250 255/1010/250
f 266/1011/250 255/1012/250 256/1013/250
f 266/1014/250 256/1015/250 257/1016/250
f 266/1017/250 257/1018/250 258/1019/250
f 266/1020/250 258/1021/250 259/1022/250
f 266/1023/250 259/1024/250 260/1025/250
f 266/1026/250 260/1027/250 261/1028/250
f 266/1029/250 261/1030/250 262/1031/250
f 266/1032/250 262/1033/250 263/1034/250
f 266/1035/250 263/1036/250 264/1037/250
f 266/1038/250 264/1039/250 249/1040/250
