# AFL Power Outlets V1 plug, generated by tools/build-power-outlets-v1.mjs
mtllib power_plug.mtl
o plug_body
usemtl strip
v 0.5225 0.51875 0.5
v 0.521495 0.5225 0.5
v 0.51875 0.525245 0.5
v 0.515 0.52625 0.5
v 0.485 0.52625 0.5
v 0.48125 0.525245 0.5
v 0.478505 0.5225 0.5
v 0.4775 0.51875 0.5
v 0.4775 0.48125 0.5
v 0.478505 0.4775 0.5
v 0.48125 0.474755 0.5
v 0.485 0.47375 0.5
v 0.515 0.47375 0.5
v 0.51875 0.474755 0.5
v 0.521495 0.4775 0.5
v 0.5225 0.48125 0.5
v 0.5225 0.51875 0.5045
v 0.521495 0.5225 0.5045
v 0.51875 0.525245 0.5045
v 0.515 0.52625 0.5045
v 0.485 0.52625 0.5045
v 0.48125 0.525245 0.5045
v 0.478505 0.5225 0.5045
v 0.4775 0.51875 0.5045
v 0.4775 0.48125 0.5045
v 0.478505 0.4775 0.5045
v 0.48125 0.474755 0.5045
v 0.485 0.47375 0.5045
v 0.515 0.47375 0.5045
v 0.51875 0.474755 0.5045
v 0.521495 0.4775 0.5045
v 0.5225 0.48125 0.5045
v 0.520625 0.5135 0.521
v 0.519419 0.518 0.521
v 0.516125 0.521294 0.521
v 0.511625 0.5225 0.521
v 0.488375 0.5225 0.521
v 0.483875 0.521294 0.521
v 0.480581 0.518 0.521
v 0.479375 0.5135 0.521
v 0.479375 0.4865 0.521
v 0.480581 0.482 0.521
v 0.483875 0.478706 0.521
v 0.488375 0.4775 0.521
v 0.511625 0.4775 0.521
v 0.516125 0.478706 0.521
v 0.519419 0.482 0.521
v 0.520625 0.4865 0.521
v 0.51575 0.504125 0.536
v 0.514142 0.510125 0.536
v 0.50975 0.514517 0.536
v 0.50375 0.516125 0.536
v 0.49625 0.516125 0.536
v 0.49025 0.514517 0.536
v 0.485858 0.510125 0.536
v 0.48425 0.504125 0.536
v 0.48425 0.495875 0.536
v 0.485858 0.489875 0.536
v 0.49025 0.485483 0.536
v 0.49625 0.483875 0.536
v 0.50375 0.483875 0.536
v 0.50975 0.485483 0.536
v 0.514142 0.489875 0.536
v 0.51575 0.495875 0.536
v 0.51125 0.500015 0.545
v 0.509745 0.505633 0.545
v 0.505633 0.509745 0.545
v 0.500015 0.51125 0.545
v 0.499985 0.51125 0.545
v 0.494368 0.509745 0.545
v 0.490255 0.505633 0.545
v 0.48875 0.500015 0.545
v 0.48875 0.499985 0.545
v 0.490255 0.494368 0.545
v 0.494368 0.490255 0.545
v 0.499985 0.48875 0.545
v 0.500015 0.48875 0.545
v 0.505633 0.490255 0.545
v 0.509745 0.494368 0.545
v 0.51125 0.499985 0.545
v 0.51125 0.500015 0.54725
v 0.509745 0.505633 0.54725
v 0.505633 0.509745 0.54725
v 0.500015 0.51125 0.54725
v 0.499985 0.51125 0.54725
v 0.494368 0.509745 0.54725
v 0.490255 0.505633 0.54725
v 0.48875 0.500015 0.54725
v 0.48875 0.499985 0.54725
v 0.490255 0.494368 0.54725
v 0.494368 0.490255 0.54725
v 0.499985 0.48875 0.54725
v 0.500015 0.48875 0.54725
v 0.505633 0.490255 0.54725
v 0.509745 0.494368 0.54725
v 0.51125 0.499985 0.54725
v 0.51215 0.500015 0.548
v 0.510524 0.506082 0.548
v 0.506082 0.510524 0.548
v 0.500015 0.51215 0.548
v 0.499985 0.51215 0.548
v 0.493918 0.510524 0.548
v 0.489476 0.506082 0.548
v 0.48785 0.500015 0.548
v 0.48785 0.499985 0.548
v 0.489476 0.493918 0.548
v 0.493918 0.489476 0.548
v 0.499985 0.48785 0.548
v 0.500015 0.48785 0.548
v 0.506082 0.489476 0.548
v 0.510524 0.493918 0.548
v 0.51215 0.499985 0.548
v 0.51215 0.500015 0.551
v 0.510524 0.506082 0.551
v 0.506082 0.510524 0.551
v 0.500015 0.51215 0.551
v 0.499985 0.51215 0.551
v 0.493918 0.510524 0.551
v 0.489476 0.506082 0.551
v 0.48785 0.500015 0.551
v 0.48785 0.499985 0.551
v 0.489476 0.493918 0.551
v 0.493918 0.489476 0.551
v 0.499985 0.48785 0.551
v 0.500015 0.48785 0.551
v 0.506082 0.489476 0.551
v 0.510524 0.493918 0.551
v 0.51215 0.499985 0.551
v 0.51095 0.500015 0.55175
v 0.509485 0.505482 0.55175
v 0.505482 0.509485 0.55175
v 0.500015 0.51095 0.55175
v 0.499985 0.51095 0.55175
v 0.494517 0.509485 0.55175
v 0.490515 0.505482 0.55175
v 0.48905 0.500015 0.55175
v 0.48905 0.499985 0.55175
v 0.490515 0.494517 0.55175
v 0.494517 0.490515 0.55175
v 0.499985 0.48905 0.55175
v 0.500015 0.48905 0.55175
v 0.505482 0.490515 0.55175
v 0.509485 0.494517 0.55175
v 0.51095 0.499985 0.55175
v 0.51095 0.500015 0.55475
v 0.509485 0.505482 0.55475
v 0.505482 0.509485 0.55475
v 0.500015 0.51095 0.55475
v 0.499985 0.51095 0.55475
v 0.494517 0.509485 0.55475
v 0.490515 0.505482 0.55475
v 0.48905 0.500015 0.55475
v 0.48905 0.499985 0.55475
v 0.490515 0.494517 0.55475
v 0.494517 0.490515 0.55475
v 0.499985 0.48905 0.55475
v 0.500015 0.48905 0.55475
v 0.505482 0.490515 0.55475
v 0.509485 0.494517 0.55475
v 0.51095 0.499985 0.55475
v 0.5117 0.500015 0.5555
v 0.510135 0.505857 0.5555
v 0.505857 0.510135 0.5555
v 0.500015 0.5117 0.5555
v 0.499985 0.5117 0.5555
v 0.494142 0.510135 0.5555
v 0.489865 0.505857 0.5555
v 0.4883 0.500015 0.5555
v 0.4883 0.499985 0.5555
v 0.489865 0.494142 0.5555
v 0.494142 0.489865 0.5555
v 0.499985 0.4883 0.5555
v 0.500015 0.4883 0.5555
v 0.505857 0.489865 0.5555
v 0.510135 0.494142 0.5555
v 0.5117 0.499985 0.5555
v 0.5117 0.500015 0.5585
v 0.510135 0.505857 0.5585
v 0.505857 0.510135 0.5585
v 0.500015 0.5117 0.5585
v 0.499985 0.5117 0.5585
v 0.494142 0.510135 0.5585
v 0.489865 0.505857 0.5585
v 0.4883 0.500015 0.5585
v 0.4883 0.499985 0.5585
v 0.489865 0.494142 0.5585
v 0.494142 0.489865 0.5585
v 0.499985 0.4883 0.5585
v 0.500015 0.4883 0.5585
v 0.505857 0.489865 0.5585
v 0.510135 0.494142 0.5585
v 0.5117 0.499985 0.5585
v 0.5105 0.500015 0.55925
v 0.509095 0.505258 0.55925
v 0.505258 0.509095 0.55925
v 0.500015 0.5105 0.55925
v 0.499985 0.5105 0.55925
v 0.494743 0.509095 0.55925
v 0.490905 0.505258 0.55925
v 0.4895 0.500015 0.55925
v 0.4895 0.499985 0.55925
v 0.490905 0.494742 0.55925
v 0.494742 0.490905 0.55925
v 0.499985 0.4895 0.55925
v 0.500015 0.4895 0.55925
v 0.505258 0.490905 0.55925
v 0.509095 0.494742 0.55925
v 0.5105 0.499985 0.55925
v 0.5105 0.500015 0.56225
v 0.509095 0.505258 0.56225
v 0.505258 0.509095 0.56225
v 0.500015 0.5105 0.56225
v 0.499985 0.5105 0.56225
v 0.494743 0.509095 0.56225
v 0.490905 0.505258 0.56225
v 0.4895 0.500015 0.56225
v 0.4895 0.499985 0.56225
v 0.490905 0.494742 0.56225
v 0.494742 0.490905 0.56225
v 0.499985 0.4895 0.56225
v 0.500015 0.4895 0.56225
v 0.505258 0.490905 0.56225
v 0.509095 0.494742 0.56225
v 0.5105 0.499985 0.56225
v 0.51125 0.500015 0.563
v 0.509745 0.505633 0.563
v 0.505633 0.509745 0.563
v 0.500015 0.51125 0.563
v 0.499985 0.51125 0.563
v 0.494368 0.509745 0.563
v 0.490255 0.505633 0.563
v 0.48875 0.500015 0.563
v 0.48875 0.499985 0.563
v 0.490255 0.494368 0.563
v 0.494368 0.490255 0.563
v 0.499985 0.48875 0.563
v 0.500015 0.48875 0.563
v 0.505633 0.490255 0.563
v 0.509745 0.494368 0.563
v 0.51125 0.499985 0.563
v 0.51125 0.500015 0.566
v 0.509745 0.505633 0.566
v 0.505633 0.509745 0.566
v 0.500015 0.51125 0.566
v 0.499985 0.51125 0.566
v 0.494368 0.509745 0.566
v 0.490255 0.505633 0.566
v 0.48875 0.500015 0.566
v 0.48875 0.499985 0.566
v 0.490255 0.494368 0.566
v 0.494368 0.490255 0.566
v 0.499985 0.48875 0.566
v 0.500015 0.48875 0.566
v 0.505633 0.490255 0.566
v 0.509745 0.494368 0.566
v 0.51125 0.499985 0.566
v 0.50795 0.500015 0.575
v 0.506887 0.503982 0.575
v 0.503982 0.506887 0.575
v 0.500015 0.50795 0.575
v 0.499985 0.50795 0.575
v 0.496018 0.506887 0.575
v 0.493113 0.503982 0.575
v 0.49205 0.500015 0.575
v 0.49205 0.499985 0.575
v 0.493113 0.496018 0.575
v 0.496018 0.493113 0.575
v 0.499985 0.49205 0.575
v 0.500015 0.49205 0.575
v 0.503982 0.493113 0.575
v 0.506887 0.496018 0.575
v 0.50795 0.499985 0.575
v 0.50645 0.500015 0.581
v 0.505588 0.503232 0.581
v 0.503232 0.505588 0.581
v 0.500015 0.50645 0.581
v 0.499985 0.50645 0.581
v 0.496768 0.505588 0.581
v 0.494412 0.503232 0.581
v 0.49355 0.500015 0.581
v 0.49355 0.499985 0.581
v 0.494412 0.496767 0.581
v 0.496767 0.494412 0.581
v 0.499985 0.49355 0.581
v 0.500015 0.49355 0.581
v 0.503232 0.494412 0.581
v 0.505588 0.496767 0.581
v 0.50645 0.499985 0.581
v 0.5 0.5 0.5
v 0.5 0.5 0.581
vt 0.391602 0.234099
vt 0.391602 0.229731
vt 0.396641 0.229731
vt 0.396641 0.234099
vt 0.274414 0.194336
vt 0.274414 0.189968
vt 0.279477 0.189968
vt 0.279477 0.194336
vt 0.286133 0.194336
vt 0.286133 0.189968
vt 0.291195 0.189968
vt 0.291195 0.194336
vt 0.854492 0.383278
vt 0.888242 0.383278
vt 0.888242 0.388309
vt 0.854492 0.388309
vt 0.297852 0.194336
vt 0.297852 0.189968
vt 0.302914 0.189968
vt 0.302914 0.194336
vt 0.30957 0.194336
vt 0.30957 0.189968
vt 0.314633 0.189968
vt 0.314633 0.194336
vt 0.422852 0.239258
vt 0.422852 0.23489
vt 0.427891 0.23489
vt 0.427891 0.239258
vt 0.795898 0.461762
vt 0.838086 0.461762
vt 0.838086 0.466773
vt 0.795898 0.466773
vt 0.360352 0.234099
vt 0.360352 0.229731
vt 0.365391 0.229731
vt 0.365391 0.234099
vt 0.411133 0.194336
vt 0.411133 0.189968
vt 0.416195 0.189968
vt 0.416195 0.194336
vt 0.321289 0.194336
vt 0.321289 0.189968
vt 0.326352 0.189968
vt 0.326352 0.194336
vt 0.895508 0.383278
vt 0.929258 0.383278
vt 0.929258 0.388309
vt 0.895508 0.388309
vt 0.196289 0.194336
vt 0.196289 0.189968
vt 0.201352 0.189968
vt 0.201352 0.194336
vt 0.366211 0.194336
vt 0.366211 0.189968
vt 0.371273 0.189968
vt 0.371273 0.194336
vt 0.329102 0.239258
vt 0.329102 0.23489
vt 0.334141 0.23489
vt 0.334141 0.239258
vt 0.74707 0.461762
vt 0.789258 0.461762
vt 0.789258 0.466773
vt 0.74707 0.466773
vt 0.396641 0.234099
vt 0.396641 0.229731
vt 0.415458 0.234017
vt 0.415458 0.239258
vt 0.963867 0.219751
vt 0.963867 0.215384
vt 0.983153 0.216439
vt 0.983153 0.22168
vt 0.372269 0.407227
vt 0.37207 0.402883
vt 0.39086 0.399792
vt 0.391098 0.405005
vt 0.854492 0.388309
vt 0.888242 0.388309
vt 0.884445 0.407227
vt 0.858289 0.407227
vt 0.727539 0.350389
vt 0.727539 0.346021
vt 0.746477 0.347723
vt 0.746477 0.352964
vt 0.004883 0.208008
vt 0.004883 0.20364
vt 0.024168 0.201712
vt 0.024168 0.206953
vt 0.427891 0.239258
vt 0.427891 0.23489
vt 0.446708 0.229731
vt 0.446708 0.234972
vt 0.795898 0.466773
vt 0.838086 0.466773
vt 0.83218 0.485447
vt 0.801805 0.485447
vt 0.365391 0.234099
vt 0.365391 0.229731
vt 0.384208 0.234017
vt 0.384208 0.239258
vt 0.030273 0.20608
vt 0.030273 0.201712
vt 0.049559 0.202767
vt 0.049559 0.208008
vt 0.315628 0.407227
vt 0.31543 0.402883
vt 0.33422 0.399792
vt 0.334458 0.405005
vt 0.895508 0.388309
vt 0.929258 0.388309
vt 0.925461 0.407227
vt 0.899305 0.407227
vt 0.670898 0.350389
vt 0.670898 0.346021
vt 0.689837 0.347723
vt 0.689837 0.352964
vt 0.055664 0.208008
vt 0.055664 0.20364
vt 0.07495 0.201712
vt 0.07495 0.206953
vt 0.334141 0.239258
vt 0.334141 0.23489
vt 0.352958 0.229731
vt 0.352958 0.234972
vt 0.74707 0.466773
vt 0.789258 0.466773
vt 0.783352 0.485447
vt 0.752977 0.485447
vt 0.936523 0.388646
vt 0.936739 0.383425
vt 0.955106 0.391124
vt 0.954819 0.398085
vt 0.825195 0.237115
vt 0.825195 0.231874
vt 0.845043 0.232194
vt 0.845043 0.239182
vt 0.391098 0.405005
vt 0.39086 0.399792
vt 0.409738 0.392163
vt 0.410056 0.399113
vt 0.39086 0.399792
vt 0.392634 0.373958
vt 0.410311 0.383829
vt 0.409738 0.392163
vt 0.746477 0.352964
vt 0.746477 0.347723
vt 0.765676 0.352677
vt 0.765676 0.359665
vt 0.864258 0.239258
vt 0.864258 0.234017
vt 0.884105 0.23195
vt 0.884105 0.238938
vt 0.005098 0.362305
vt 0.004883 0.357084
vt 0.023179 0.347644
vt 0.023466 0.354605
vt 0.801805 0.485447
vt 0.83218 0.485447
vt 0.821633 0.50293
vt 0.812352 0.50293
vt 0.59668 0.350381
vt 0.59668 0.34514
vt 0.615345 0.352161
vt 0.615345 0.359149
vt 0.786133 0.237115
vt 0.786133 0.231874
vt 0.80598 0.232194
vt 0.80598 0.239182
vt 0.334458 0.405005
vt 0.33422 0.399792
vt 0.353098 0.392163
vt 0.353415 0.399113
vt 0.33422 0.399792
vt 0.335993 0.373958
vt 0.35367 0.383829
vt 0.353098 0.392163
vt 0.689837 0.352964
vt 0.689837 0.347723
vt 0.709035 0.352677
vt 0.709035 0.359665
vt 0.90332 0.239258
vt 0.90332 0.234017
vt 0.923168 0.23195
vt 0.923168 0.238938
vt 0.633789 0.362305
vt 0.633789 0.357064
vt 0.652454 0.348296
vt 0.652454 0.355284
vt 0.752977 0.485447
vt 0.783352 0.485447
vt 0.772805 0.50293
vt 0.763523 0.50293
vt 0.954819 0.398085
vt 0.955106 0.391124
vt 0.966743 0.395246
vt 0.966474 0.401764
vt 0.845043 0.239182
vt 0.845043 0.232194
vt 0.857389 0.232715
vt 0.857389 0.239258
vt 0.410056 0.399113
vt 0.409738 0.392163
vt 0.421496 0.38887
vt 0.421793 0.395377
vt 0.409738 0.392163
vt 0.410311 0.383829
vt 0.421498 0.388837
vt 0.421496 0.38887
vt 0.765676 0.359665
vt 0.765676 0.352677
vt 0.777561 0.355762
vt 0.777561 0.362305
vt 0.884105 0.238938
vt 0.884105 0.23195
vt 0.896451 0.231874
vt 0.896451 0.238417
vt 0.023466 0.354605
vt 0.023179 0.347644
vt 0.034834 0.343966
vt 0.035102 0.350483
vt 0.023179 0.347644
vt 0.023929 0.338503
vt 0.034837 0.343932
vt 0.034834 0.343966
vt 0.615345 0.359149
vt 0.615345 0.352161
vt 0.627144 0.355762
vt 0.627144 0.362305
vt 0.80598 0.239182
vt 0.80598 0.232194
vt 0.818326 0.232715
vt 0.818326 0.239258
vt 0.353415 0.399113
vt 0.353098 0.392163
vt 0.364855 0.38887
vt 0.365152 0.395377
vt 0.353098 0.392163
vt 0.35367 0.383829
vt 0.364858 0.388837
vt 0.364855 0.38887
vt 0.709035 0.359665
vt 0.709035 0.352677
vt 0.72092 0.355762
vt 0.72092 0.362305
vt 0.923168 0.238938
vt 0.923168 0.23195
vt 0.935514 0.231874
vt 0.935514 0.238417
vt 0.652454 0.355284
vt 0.652454 0.348296
vt 0.664254 0.34514
vt 0.664254 0.351682
vt 0.955569 0.407227
vt 0.954819 0.398085
vt 0.966474 0.401764
vt 0.966477 0.401797
vt 0.418945 0.111727
vt 0.425488 0.111727
vt 0.425488 0.114258
vt 0.418945 0.114258
vt 0.405273 0.111727
vt 0.411816 0.111727
vt 0.411816 0.114258
vt 0.405273 0.114258
vt 0.391602 0.111727
vt 0.398144 0.111727
vt 0.398144 0.114258
vt 0.391602 0.114258
vt 0.420898 0.012695
vt 0.420898 0.012662
vt 0.42343 0.012662
vt 0.42343 0.012695
vt 0.432617 0.111727
vt 0.43916 0.111727
vt 0.43916 0.114258
vt 0.432617 0.114258
vt 0.323242 0.111727
vt 0.329785 0.111727
vt 0.329785 0.114258
vt 0.323242 0.114258
vt 0.446289 0.111727
vt 0.452832 0.111727
vt 0.452832 0.114258
vt 0.446289 0.114258
vt 0.430664 0.012695
vt 0.430664 0.012662
vt 0.433195 0.012662
vt 0.433195 0.012695
vt 0.364258 0.111727
vt 0.3708 0.111727
vt 0.3708 0.114258
vt 0.364258 0.114258
vt 0.459961 0.111727
vt 0.466504 0.111727
vt 0.466504 0.114258
vt 0.459961 0.114258
vt 0.336914 0.111727
vt 0.343457 0.111727
vt 0.343457 0.114258
vt 0.336914 0.114258
vt 0.44043 0.012695
vt 0.44043 0.012662
vt 0.442961 0.012662
vt 0.442961 0.012695
vt 0.350586 0.111727
vt 0.357129 0.111727
vt 0.357129 0.114258
vt 0.350586 0.114258
vt 0.473633 0.111727
vt 0.480175 0.111727
vt 0.480175 0.114258
vt 0.473633 0.114258
vt 0.37793 0.111727
vt 0.384472 0.111727
vt 0.384472 0.114258
vt 0.37793 0.114258
vt 0.157227 0.012695
vt 0.157227 0.012662
vt 0.159758 0.012662
vt 0.159758 0.012695
vt 0.244164 0.11294
vt 0.250484 0.111639
vt 0.25099 0.112853
vt 0.244164 0.114258
vt 0.667254 0.058279
vt 0.673797 0.058279
vt 0.674059 0.05957
vt 0.666992 0.05957
vt 0.302264 0.111639
vt 0.308584 0.11294
vt 0.308584 0.114258
vt 0.301758 0.112853
vt 0.308584 0.11294
vt 0.308617 0.11294
vt 0.308617 0.114258
vt 0.308584 0.114258
vt 0.308617 0.11294
vt 0.314937 0.111639
vt 0.315443 0.112853
vt 0.308617 0.114258
vt 0.70827 0.058279
vt 0.714812 0.058279
vt 0.715075 0.05957
vt 0.708008 0.05957
vt 0.194842 0.111639
vt 0.201162 0.11294
vt 0.201162 0.114258
vt 0.194336 0.112853
vt 0.201162 0.11294
vt 0.201196 0.11294
vt 0.201196 0.114258
vt 0.201162 0.114258
vt 0.201196 0.11294
vt 0.207515 0.111639
vt 0.208022 0.112853
vt 0.201196 0.114258
vt 0.735614 0.058279
vt 0.742156 0.058279
vt 0.742418 0.05957
vt 0.735352 0.05957
vt 0.151873 0.111639
vt 0.158193 0.11294
vt 0.158193 0.114258
vt 0.151367 0.112853
vt 0.158193 0.11294
vt 0.158227 0.11294
vt 0.158227 0.114258
vt 0.158193 0.114258
vt 0.158227 0.11294
vt 0.164547 0.111639
vt 0.165053 0.112853
vt 0.158227 0.114258
vt 0.694598 0.058279
vt 0.701141 0.058279
vt 0.701403 0.05957
vt 0.694336 0.05957
vt 0.237811 0.111639
vt 0.244131 0.11294
vt 0.244131 0.114258
vt 0.237305 0.112853
vt 0.244131 0.11294
vt 0.244164 0.11294
vt 0.244164 0.114258
vt 0.244131 0.114258
vt 0.05957 0.14018
vt 0.066637 0.14018
vt 0.066637 0.143555
vt 0.05957 0.143555
vt 0.032227 0.14018
vt 0.039293 0.14018
vt 0.039293 0.143555
vt 0.032227 0.143555
vt 0.004883 0.14018
vt 0.01195 0.14018
vt 0.01195 0.143555
vt 0.004883 0.143555
vt 0.532227 0.012695
vt 0.532227 0.012662
vt 0.535602 0.012662
vt 0.535602 0.012695
vt 0.073242 0.14018
vt 0.080309 0.14018
vt 0.080309 0.143555
vt 0.073242 0.143555
vt 0.852539 0.149945
vt 0.859606 0.149945
vt 0.859606 0.15332
vt 0.852539 0.15332
vt 0.114258 0.14018
vt 0.121325 0.14018
vt 0.121325 0.143555
vt 0.114258 0.143555
vt 0.541992 0.012695
vt 0.541992 0.012662
vt 0.545367 0.012662
vt 0.545367 0.012695
vt 0.893555 0.149945
vt 0.900621 0.149945
vt 0.900621 0.15332
vt 0.893555 0.15332
vt 0.141602 0.14018
vt 0.148668 0.14018
vt 0.148668 0.143555
vt 0.141602 0.143555
vt 0.907227 0.149945
vt 0.914293 0.149945
vt 0.914293 0.15332
vt 0.907227 0.15332
vt 0.551758 0.012695
vt 0.551758 0.012662
vt 0.555133 0.012662
vt 0.555133 0.012695
vt 0.920898 0.149945
vt 0.927965 0.149945
vt 0.927965 0.15332
vt 0.920898 0.15332
vt 0.155273 0.14018
vt 0.16234 0.14018
vt 0.16234 0.143555
vt 0.155273 0.143555
vt 0.879883 0.149945
vt 0.88695 0.149945
vt 0.88695 0.15332
vt 0.879883 0.15332
vt 0.473633 0.012695
vt 0.473633 0.012662
vt 0.477008 0.012662
vt 0.477008 0.012695
vt 0.826196 0.130799
vt 0.833022 0.13235
vt 0.832347 0.133789
vt 0.826196 0.132391
vt 0.493164 0.073642
vt 0.500231 0.073642
vt 0.499881 0.075195
vt 0.493513 0.075195
vt 0.862305 0.13235
vt 0.869131 0.130799
vt 0.869131 0.132391
vt 0.86298 0.133789
vt 0.869131 0.130799
vt 0.869164 0.130799
vt 0.869164 0.132391
vt 0.869131 0.132391
vt 0.869164 0.130799
vt 0.87599 0.13235
vt 0.875315 0.133789
vt 0.869164 0.132391
vt 0.370117 0.073642
vt 0.377184 0.073642
vt 0.376835 0.075195
vt 0.370467 0.075195
vt 0.84082 0.13235
vt 0.847646 0.130799
vt 0.847646 0.132391
vt 0.841495 0.133789
vt 0.847646 0.130799
vt 0.84768 0.130799
vt 0.84768 0.132391
vt 0.847646 0.132391
vt 0.84768 0.130799
vt 0.854506 0.13235
vt 0.853831 0.133789
vt 0.84768 0.132391
vt 0.397461 0.073642
vt 0.404528 0.073642
vt 0.404178 0.075195
vt 0.39781 0.075195
vt 0.711914 0.13235
vt 0.71874 0.130799
vt 0.71874 0.132391
vt 0.712589 0.133789
vt 0.71874 0.130799
vt 0.718774 0.130799
vt 0.718774 0.132391
vt 0.71874 0.132391
vt 0.718774 0.130799
vt 0.7256 0.13235
vt 0.724925 0.133789
vt 0.718774 0.132391
vt 0.547852 0.073642
vt 0.554918 0.073642
vt 0.554569 0.075195
vt 0.548201 0.075195
vt 0.819336 0.13235
vt 0.826162 0.130799
vt 0.826162 0.132391
vt 0.820011 0.133789
vt 0.826162 0.130799
vt 0.826196 0.130799
vt 0.826196 0.132391
vt 0.826162 0.132391
vt 0.852539 0.14018
vt 0.858907 0.14018
vt 0.858907 0.143555
vt 0.852539 0.143555
vt 0.866211 0.14018
vt 0.872579 0.14018
vt 0.872579 0.143555
vt 0.866211 0.143555
vt 0.825195 0.14018
vt 0.831563 0.14018
vt 0.831563 0.143555
vt 0.825195 0.143555
vt 0.649414 0.012695
vt 0.649414 0.012662
vt 0.652789 0.012662
vt 0.652789 0.012695
vt 0.907227 0.14018
vt 0.913594 0.14018
vt 0.913594 0.143555
vt 0.907227 0.143555
vt 0.688477 0.14018
vt 0.694844 0.14018
vt 0.694844 0.143555
vt 0.688477 0.143555
vt 0.920898 0.14018
vt 0.927266 0.14018
vt 0.927266 0.143555
vt 0.920898 0.143555
vt 0.65918 0.012695
vt 0.65918 0.012662
vt 0.662555 0.012662
vt 0.662555 0.012695
vt 0.743164 0.14018
vt 0.749532 0.14018
vt 0.749532 0.143555
vt 0.743164 0.143555
vt 0.004883 0.130414
vt 0.011251 0.130414
vt 0.011251 0.133789
vt 0.004883 0.133789
vt 0.756836 0.14018
vt 0.763204 0.14018
vt 0.763204 0.143555
vt 0.756836 0.143555
vt 0.668945 0.012695
vt 0.668945 0.012662
vt 0.67232 0.012662
vt 0.67232 0.012695
vt 0.71582 0.14018
vt 0.722188 0.14018
vt 0.722188 0.143555
vt 0.71582 0.143555
vt 0.961914 0.14018
vt 0.968282 0.14018
vt 0.968282 0.143555
vt 0.961914 0.143555
vt 0.770508 0.14018
vt 0.776876 0.14018
vt 0.776876 0.143555
vt 0.770508 0.143555
vt 0.512695 0.012695
vt 0.512695 0.012662
vt 0.51607 0.012662
vt 0.51607 0.012695
vt 0.557762 0.083773
vt 0.564076 0.083193
vt 0.564398 0.084341
vt 0.557651 0.084961
vt 0.309789 0.019335
vt 0.316157 0.019335
vt 0.316375 0.020508
vt 0.30957 0.020508
vt 0.585283 0.083193
vt 0.591597 0.083773
vt 0.591708 0.084961
vt 0.584961 0.084341
vt 0.591597 0.083773
vt 0.591631 0.08377
vt 0.591742 0.084958
vt 0.591708 0.084961
vt 0.364476 0.019335
vt 0.370844 0.019335
vt 0.371062 0.020508
vt 0.364258 0.020508
vt 0.460179 0.019335
vt 0.466547 0.019335
vt 0.466766 0.020508
vt 0.459961 0.020508
vt 0.598955 0.083193
vt 0.605269 0.083773
vt 0.60538 0.084961
vt 0.598633 0.084341
vt 0.605269 0.083773
vt 0.605303 0.08377
vt 0.605414 0.084958
vt 0.60538 0.084961
vt 0.282445 0.019335
vt 0.288813 0.019335
vt 0.289031 0.020508
vt 0.282227 0.020508
vt 0.378148 0.019335
vt 0.384516 0.019335
vt 0.384734 0.020508
vt 0.37793 0.020508
vt 0.544267 0.083193
vt 0.550582 0.083773
vt 0.550693 0.084961
vt 0.543945 0.084341
vt 0.550582 0.083773
vt 0.550615 0.08377
vt 0.550726 0.084958
vt 0.550693 0.084961
vt 0.350804 0.019335
vt 0.357172 0.019335
vt 0.357391 0.020508
vt 0.350586 0.020508
vt 0.514867 0.019335
vt 0.521235 0.019335
vt 0.521453 0.020508
vt 0.514648 0.020508
vt 0.255101 0.019335
vt 0.261469 0.019335
vt 0.261687 0.020508
vt 0.254883 0.020508
vt 0.557728 0.08377
vt 0.557762 0.083773
vt 0.557651 0.084961
vt 0.557617 0.084958
vt 0.387695 0.14018
vt 0.3945 0.14018
vt 0.3945 0.143555
vt 0.387695 0.143555
vt 0.360352 0.14018
vt 0.367156 0.14018
vt 0.367156 0.143555
vt 0.360352 0.143555
vt 0.333008 0.14018
vt 0.339812 0.14018
vt 0.339812 0.143555
vt 0.333008 0.143555
vt 0.561523 0.012695
vt 0.561523 0.012662
vt 0.564898 0.012662
vt 0.564898 0.012695
vt 0.401367 0.14018
vt 0.408172 0.14018
vt 0.408172 0.143555
vt 0.401367 0.143555
vt 0.196289 0.14018
vt 0.203094 0.14018
vt 0.203094 0.143555
vt 0.196289 0.143555
vt 0.442383 0.14018
vt 0.449187 0.14018
vt 0.449187 0.143555
vt 0.442383 0.143555
vt 0.571289 0.012695
vt 0.571289 0.012662
vt 0.574664 0.012662
vt 0.574664 0.012695
vt 0.264648 0.14018
vt 0.271453 0.14018
vt 0.271453 0.143555
vt 0.264648 0.143555
vt 0.49707 0.14018
vt 0.503875 0.14018
vt 0.503875 0.143555
vt 0.49707 0.143555
vt 0.209961 0.14018
vt 0.216766 0.14018
vt 0.216766 0.143555
vt 0.209961 0.143555
vt 0.581055 0.012695
vt 0.581055 0.012662
vt 0.58443 0.012662
vt 0.58443 0.012695
vt 0.27832 0.14018
vt 0.285125 0.14018
vt 0.285125 0.143555
vt 0.27832 0.143555
vt 0.469727 0.14018
vt 0.476531 0.14018
vt 0.476531 0.143555
vt 0.469727 0.143555
vt 0.291992 0.14018
vt 0.298797 0.14018
vt 0.298797 0.143555
vt 0.291992 0.143555
vt 0.493164 0.012695
vt 0.493164 0.012662
vt 0.496539 0.012662
vt 0.496539 0.012695
vt 0.929458 0.130857
vt 0.936031 0.13235
vt 0.935356 0.133789
vt 0.929458 0.132449
vt 0.53418 0.073642
vt 0.540984 0.073642
vt 0.540635 0.075195
vt 0.534529 0.075195
vt 0.961914 0.13235
vt 0.968487 0.130857
vt 0.968487 0.132449
vt 0.962589 0.133789
vt 0.968487 0.130857
vt 0.968521 0.130857
vt 0.968521 0.132449
vt 0.968487 0.132449
vt 0.968521 0.130857
vt 0.975093 0.13235
vt 0.974418 0.133789
vt 0.968521 0.132449
vt 0.452148 0.073642
vt 0.458953 0.073642
vt 0.458604 0.075195
vt 0.452498 0.075195
vt 0.024414 0.122585
vt 0.030987 0.121091
vt 0.030987 0.122683
vt 0.025089 0.124023
vt 0.030987 0.121091
vt 0.031021 0.121091
vt 0.031021 0.122683
vt 0.030987 0.122683
vt 0.031021 0.121091
vt 0.037593 0.122585
vt 0.036918 0.124023
vt 0.031021 0.122683
vt 0.356445 0.073642
vt 0.36325 0.073642
vt 0.362901 0.075195
vt 0.356795 0.075195
vt 0.883789 0.13235
vt 0.890362 0.130857
vt 0.890362 0.132449
vt 0.884464 0.133789
vt 0.890362 0.130857
vt 0.890396 0.130857
vt 0.890396 0.132449
vt 0.890362 0.132449
vt 0.890396 0.130857
vt 0.896968 0.13235
vt 0.896293 0.133789
vt 0.890396 0.132449
vt 0.506836 0.073642
vt 0.513641 0.073642
vt 0.513291 0.075195
vt 0.507185 0.075195
vt 0.922852 0.13235
vt 0.929424 0.130857
vt 0.929424 0.132449
vt 0.923527 0.133789
vt 0.929424 0.130857
vt 0.929458 0.130857
vt 0.929458 0.132449
vt 0.929424 0.132449
vt 0.223633 0.130414
vt 0.229739 0.130414
vt 0.229739 0.133789
vt 0.223633 0.133789
vt 0.196289 0.130414
vt 0.202395 0.130414
vt 0.202395 0.133789
vt 0.196289 0.133789
vt 0.168945 0.130414
vt 0.175051 0.130414
vt 0.175051 0.133789
vt 0.168945 0.133789
vt 0.362305 0.012695
vt 0.362305 0.012662
vt 0.36568 0.012662
vt 0.36568 0.012695
vt 0.250977 0.130414
vt 0.257082 0.130414
vt 0.257082 0.133789
vt 0.250977 0.133789
vt 0.05957 0.130414
vt 0.065676 0.130414
vt 0.065676 0.133789
vt 0.05957 0.133789
vt 0.27832 0.130414
vt 0.284426 0.130414
vt 0.284426 0.133789
vt 0.27832 0.133789
vt 0.37207 0.012695
vt 0.37207 0.012662
vt 0.375445 0.012662
vt 0.375445 0.012695
vt 0.073242 0.130414
vt 0.079348 0.130414
vt 0.079348 0.133789
vt 0.073242 0.133789
vt 0.305664 0.130414
vt 0.31177 0.130414
vt 0.31177 0.133789
vt 0.305664 0.133789
vt 0.032227 0.130414
vt 0.038332 0.130414
vt 0.038332 0.133789
vt 0.032227 0.133789
vt 0.381836 0.012695
vt 0.381836 0.012662
vt 0.385211 0.012662
vt 0.385211 0.012695
vt 0.086914 0.130414
vt 0.09302 0.130414
vt 0.09302 0.133789
vt 0.086914 0.133789
vt 0.333008 0.130414
vt 0.339114 0.130414
vt 0.339114 0.133789
vt 0.333008 0.133789
vt 0.100586 0.130414
vt 0.106692 0.130414
vt 0.106692 0.133789
vt 0.100586 0.133789
vt 0.19043 0.012695
vt 0.19043 0.012662
vt 0.193805 0.012662
vt 0.193805 0.012695
vt 0.915184 0.083773
vt 0.921238 0.083217
vt 0.92156 0.084365
vt 0.915073 0.084961
vt 0.268773 0.019335
vt 0.274879 0.019335
vt 0.275097 0.020508
vt 0.268555 0.020508
vt 0.901689 0.083217
vt 0.907744 0.083773
vt 0.907855 0.084961
vt 0.901367 0.084365
vt 0.907744 0.083773
vt 0.907777 0.08377
vt 0.907888 0.084958
vt 0.907855 0.084961
vt 0.555882 0.019335
vt 0.561988 0.019335
vt 0.562207 0.020508
vt 0.555664 0.020508
vt 0.542211 0.019335
vt 0.548316 0.019335
vt 0.548535 0.020508
vt 0.541992 0.020508
vt 0.929033 0.083217
vt 0.935087 0.083773
vt 0.935199 0.084961
vt 0.928711 0.084365
vt 0.935087 0.083773
vt 0.935121 0.08377
vt 0.935232 0.084958
vt 0.935199 0.084961
vt 0.405492 0.019335
vt 0.411598 0.019335
vt 0.411816 0.020508
vt 0.405273 0.020508
vt 0.337132 0.019335
vt 0.343238 0.019335
vt 0.343457 0.020508
vt 0.336914 0.020508
vt 0.888017 0.083217
vt 0.894072 0.083773
vt 0.894183 0.084961
vt 0.887695 0.084365
vt 0.894072 0.083773
vt 0.894105 0.08377
vt 0.894216 0.084958
vt 0.894183 0.084961
vt 0.419164 0.019335
vt 0.42527 0.019335
vt 0.425488 0.020508
vt 0.418945 0.020508
vt 0.569554 0.019335
vt 0.57566 0.019335
vt 0.575879 0.020508
vt 0.569336 0.020508
vt 0.432836 0.019335
vt 0.438941 0.019335
vt 0.43916 0.020508
vt 0.432617 0.020508
vt 0.91515 0.08377
vt 0.915184 0.083773
vt 0.915073 0.084961
vt 0.915039 0.084958
vt 0.606445 0.14018
vt 0.612988 0.14018
vt 0.612988 0.143555
vt 0.606445 0.143555
vt 0.620117 0.14018
vt 0.62666 0.14018
vt 0.62666 0.143555
vt 0.620117 0.143555
vt 0.592773 0.14018
vt 0.599316 0.14018
vt 0.599316 0.143555
vt 0.592773 0.143555
vt 0.333008 0.012695
vt 0.333008 0.012662
vt 0.336383 0.012662
vt 0.336383 0.012695
vt 0.647461 0.14018
vt 0.654004 0.14018
vt 0.654004 0.143555
vt 0.647461 0.143555
vt 0.524414 0.14018
vt 0.530957 0.14018
vt 0.530957 0.143555
vt 0.524414 0.143555
vt 0.633789 0.14018
vt 0.640332 0.14018
vt 0.640332 0.143555
vt 0.633789 0.143555
vt 0.342773 0.012695
vt 0.342773 0.012662
vt 0.346148 0.012662
vt 0.346148 0.012695
vt 0.579102 0.14018
vt 0.585644 0.14018
vt 0.585644 0.143555
vt 0.579102 0.143555
vt 0.661133 0.14018
vt 0.667675 0.14018
vt 0.667675 0.143555
vt 0.661133 0.143555
vt 0.538086 0.14018
vt 0.544629 0.14018
vt 0.544629 0.143555
vt 0.538086 0.143555
vt 0.352539 0.012695
vt 0.352539 0.012662
vt 0.355914 0.012662
vt 0.355914 0.012695
vt 0.551758 0.14018
vt 0.5583 0.14018
vt 0.5583 0.143555
vt 0.551758 0.143555
vt 0.674805 0.14018
vt 0.681347 0.14018
vt 0.681347 0.143555
vt 0.674805 0.143555
vt 0.56543 0.14018
vt 0.571972 0.14018
vt 0.571972 0.143555
vt 0.56543 0.143555
vt 0.147461 0.012695
vt 0.147461 0.012662
vt 0.150836 0.012662
vt 0.150836 0.012695
vt 0.836914 0.22168
vt 0.836914 0.215137
vt 0.847641 0.216098
vt 0.847641 0.220719
vt 0.811523 0.22168
vt 0.811523 0.215137
vt 0.82225 0.216098
vt 0.82225 0.220719
vt 0.786133 0.22168
vt 0.786133 0.215137
vt 0.79686 0.216098
vt 0.79686 0.220719
vt 0.260742 0.012695
vt 0.260742 0.012662
vt 0.271511 0.012662
vt 0.271511 0.012695
vt 0.862305 0.22168
vt 0.862305 0.215137
vt 0.873032 0.216098
vt 0.873032 0.220719
vt 0.65918 0.22168
vt 0.65918 0.215137
vt 0.669907 0.216098
vt 0.669907 0.220719
vt 0.887695 0.22168
vt 0.887695 0.215137
vt 0.898422 0.216098
vt 0.898422 0.220719
vt 0.235352 0.012695
vt 0.235352 0.012662
vt 0.24612 0.012662
vt 0.24612 0.012695
vt 0.735352 0.22168
vt 0.735352 0.215137
vt 0.746078 0.216098
vt 0.746078 0.220719
vt 0.913086 0.22168
vt 0.913086 0.215137
vt 0.923813 0.216098
vt 0.923813 0.220719
vt 0.68457 0.22168
vt 0.68457 0.215137
vt 0.695297 0.216098
vt 0.695297 0.220719
vt 0.209961 0.012695
vt 0.209961 0.012662
vt 0.22073 0.012662
vt 0.22073 0.012695
vt 0.709961 0.22168
vt 0.709961 0.215137
vt 0.720688 0.216098
vt 0.720688 0.220719
vt 0.938477 0.22168
vt 0.938477 0.215137
vt 0.949203 0.216098
vt 0.949203 0.220719
vt 0.760742 0.22168
vt 0.760742 0.215137
vt 0.771469 0.216098
vt 0.771469 0.220719
vt 0.12207 0.012695
vt 0.12207 0.012662
vt 0.132839 0.012662
vt 0.132839 0.012695
vt 0.847641 0.220719
vt 0.847641 0.216098
vt 0.854576 0.216535
vt 0.854576 0.220282
vt 0.82225 0.220719
vt 0.82225 0.216098
vt 0.829185 0.216535
vt 0.829185 0.220282
vt 0.79686 0.220719
vt 0.79686 0.216098
vt 0.803794 0.216535
vt 0.803794 0.220282
vt 0.271511 0.012695
vt 0.271511 0.012662
vt 0.278459 0.012662
vt 0.278459 0.012695
vt 0.873032 0.220719
vt 0.873032 0.216098
vt 0.879966 0.216535
vt 0.879966 0.220282
vt 0.669907 0.220719
vt 0.669907 0.216098
vt 0.676841 0.216535
vt 0.676841 0.220282
vt 0.898422 0.220719
vt 0.898422 0.216098
vt 0.905357 0.216535
vt 0.905357 0.220282
vt 0.24612 0.012695
vt 0.24612 0.012662
vt 0.253068 0.012662
vt 0.253068 0.012695
vt 0.746078 0.220719
vt 0.746078 0.216098
vt 0.753013 0.216535
vt 0.753013 0.220282
vt 0.923813 0.220719
vt 0.923813 0.216098
vt 0.930748 0.216535
vt 0.930748 0.220282
vt 0.695297 0.220719
vt 0.695297 0.216098
vt 0.702232 0.216535
vt 0.702232 0.220282
vt 0.22073 0.012695
vt 0.22073 0.012662
vt 0.227678 0.012662
vt 0.227678 0.012695
vt 0.720688 0.220719
vt 0.720688 0.216098
vt 0.727623 0.216535
vt 0.727623 0.220282
vt 0.949203 0.220719
vt 0.949203 0.216098
vt 0.956138 0.216535
vt 0.956138 0.220282
vt 0.771469 0.220719
vt 0.771469 0.216098
vt 0.778404 0.216535
vt 0.778404 0.220282
vt 0.132839 0.012695
vt 0.132839 0.012662
vt 0.139787 0.012662
vt 0.139787 0.012695
vt 0.719883 0.812346
vt 0.715664 0.813477
vt 0.69457 0.788164
vt 0.722971 0.809258
vt 0.719883 0.812346
vt 0.69457 0.788164
vt 0.724102 0.805039
vt 0.722971 0.809258
vt 0.69457 0.788164
vt 0.724102 0.771289
vt 0.724102 0.805039
vt 0.69457 0.788164
vt 0.722971 0.76707
vt 0.724102 0.771289
vt 0.69457 0.788164
vt 0.719883 0.763982
vt 0.722971 0.76707
vt 0.69457 0.788164
vt 0.715664 0.762852
vt 0.719883 0.763982
vt 0.69457 0.788164
vt 0.673477 0.762852
vt 0.715664 0.762852
vt 0.69457 0.788164
vt 0.669258 0.763982
vt 0.673477 0.762852
vt 0.69457 0.788164
vt 0.666169 0.76707
vt 0.669258 0.763982
vt 0.69457 0.788164
vt 0.665039 0.771289
vt 0.666169 0.76707
vt 0.69457 0.788164
vt 0.665039 0.805039
vt 0.665039 0.771289
vt 0.69457 0.788164
vt 0.666169 0.809258
vt 0.665039 0.805039
vt 0.69457 0.788164
vt 0.669258 0.812346
vt 0.666169 0.809258
vt 0.69457 0.788164
vt 0.673477 0.813477
vt 0.669258 0.812346
vt 0.69457 0.788164
vt 0.715664 0.813477
vt 0.673477 0.813477
vt 0.69457 0.788164
vt 0.877373 0.355048
vt 0.87739 0.347792
vt 0.88101 0.348762
vt 0.877373 0.355048
vt 0.88101 0.348762
vt 0.88366 0.351412
vt 0.877373 0.355048
vt 0.88366 0.351412
vt 0.88463 0.355032
vt 0.877373 0.355048
vt 0.88463 0.355032
vt 0.88463 0.355065
vt 0.877373 0.355048
vt 0.88463 0.355065
vt 0.88366 0.358685
vt 0.877373 0.355048
vt 0.88366 0.358685
vt 0.88101 0.361335
vt 0.877373 0.355048
vt 0.88101 0.361335
vt 0.87739 0.362305
vt 0.877373 0.355048
vt 0.87739 0.362305
vt 0.877357 0.362305
vt 0.877373 0.355048
vt 0.877357 0.362305
vt 0.873737 0.361335
vt 0.877373 0.355048
vt 0.873737 0.361335
vt 0.871087 0.358685
vt 0.877373 0.355048
vt 0.871087 0.358685
vt 0.870117 0.355065
vt 0.877373 0.355048
vt 0.870117 0.355065
vt 0.870117 0.355032
vt 0.877373 0.355048
vt 0.870117 0.355032
vt 0.871087 0.351412
vt 0.877373 0.355048
vt 0.871087 0.351412
vt 0.873737 0.348762
vt 0.877373 0.355048
vt 0.873737 0.348762
vt 0.877357 0.347792
vt 0.877373 0.355048
vt 0.877357 0.347792
vt 0.87739 0.347792
vn 0.999703 0.024352 0
vn 0.866025 0.5 0
vn 0.849761 0.49061 0.192892
vn 0.995181 0.028823 0.093724
vn 0.5 0.866025 0
vn 0.487287 0.844005 0.224068
vn 0.029759 0.999557 0
vn 0.033953 0.983517 0.177597
vn -0.029759 0.999557 0
vn -0.033953 0.983517 0.177597
vn -0.5 0.866025 0
vn -0.487287 0.844005 0.224068
vn -0.866025 0.5 0
vn -0.849761 0.49061 0.192892
vn -0.999703 0.024352 0
vn -0.995181 0.028823 0.093724
vn -0.999703 -0.024352 0
vn -0.995181 -0.028823 0.093724
vn -0.866025 -0.5 0
vn -0.849761 -0.49061 0.192892
vn -0.5 -0.866025 0
vn -0.487287 -0.844005 0.224068
vn -0.029759 -0.999557 0
vn -0.033953 -0.983517 0.177597
vn 0.029759 -0.999557 0
vn 0.033953 -0.983517 0.177597
vn 0.5 -0.866025 0
vn 0.487287 -0.844005 0.224068
vn 0.866025 -0.5 0
vn 0.849761 -0.49061 0.192892
vn 0.999703 -0.024352 0
vn 0.995181 -0.028823 0.093724
vn 0.799041 0.461327 0.38563
vn 0.977711 0.040773 0.205956
vn 0.454783 0.787708 0.415558
vn 0.045821 0.951341 0.304715
vn -0.045821 0.951341 0.304715
vn -0.454783 0.787708 0.415558
vn -0.799041 0.461327 0.38563
vn -0.977711 0.040773 0.205956
vn -0.977711 -0.040773 0.205956
vn -0.799041 -0.461327 0.38563
vn -0.454783 -0.787708 0.415558
vn -0.045821 -0.951341 0.304715
vn 0.045821 -0.951341 0.304715
vn 0.454783 -0.787708 0.415558
vn 0.799041 -0.461327 0.38563
vn 0.977711 -0.040773 0.205956
vn 0.739564 0.426988 0.520314
vn 0.923785 0.074962 0.375502
vn 0.421639 0.7303 0.537478
vn 0.079359 0.894053 0.440875
vn -0.079359 0.894053 0.440875
vn -0.421639 0.7303 0.537478
vn -0.739564 0.426988 0.520314
vn -0.923785 0.074962 0.375502
vn -0.923785 -0.074962 0.375502
vn -0.739564 -0.426988 0.520314
vn -0.421639 -0.7303 0.537478
vn -0.079359 -0.894053 0.440875
vn 0.079359 -0.894053 0.440875
vn 0.421639 -0.7303 0.537478
vn 0.739564 -0.426988 0.520314
vn 0.923785 -0.074962 0.375502
vn 0.754708 0.407129 0.514452
vn 0.884101 0.15041 0.442427
vn 0.447326 0.725549 0.522951
vn 0.729938 0.450032 0.514452
vn 0.153553 0.872787 0.463318
vn 0.404681 0.75017 0.522951
vn -0.153553 0.872787 0.463318
vn -0.404681 0.75017 0.522951
vn -0.729938 0.450032 0.514452
vn -0.447326 0.725549 0.522951
vn -0.884101 0.15041 0.442427
vn -0.754708 0.407129 0.514452
vn -0.884101 -0.15041 0.442427
vn -0.754708 -0.407129 0.514452
vn -0.447326 -0.725549 0.522951
vn -0.729938 -0.450032 0.514452
vn -0.153553 -0.872787 0.463318
vn -0.404681 -0.75017 0.522951
vn 0.153553 -0.872787 0.463318
vn 0.404681 -0.75017 0.522951
vn 0.729938 -0.450032 0.514452
vn 0.447326 -0.725549 0.522951
vn 0.884101 -0.15041 0.442427
vn 0.754708 -0.407129 0.514452
vn 0.869892 0.312527 0.381594
vn 0.966269 0.257536 0
vn 0.688284 0.58243 0.43248
vn 0.58243 0.688284 0.43248
vn 0.310267 0.863601 0.397401
vn 0.257536 0.966269 0
vn -0.257536 0.966269 0
vn -0.310267 0.863601 0.397401
vn -0.58243 0.688284 0.43248
vn -0.688284 0.58243 0.43248
vn -0.869892 0.312527 0.381594
vn -0.966269 0.257536 0
vn -0.966269 -0.257536 0
vn -0.869892 -0.312527 0.381594
vn -0.688284 -0.58243 0.43248
vn -0.58243 -0.688284 0.43248
vn -0.310267 -0.863601 0.397401
vn -0.257536 -0.966269 0
vn 0.257536 -0.966269 0
vn 0.310267 -0.863601 0.397401
vn 0.58243 -0.688284 0.43248
vn 0.688284 -0.58243 0.43248
vn 0.869892 -0.312527 0.381594
vn 0.966269 -0.257536 0
vn 0.631061 0.168228 -0.757273
vn 0.554416 0.320092 -0.768221
vn 0.320092 0.554416 -0.768221
vn 0.168228 0.631061 -0.757273
vn -0.168228 0.631061 -0.757273
vn -0.320092 0.554416 -0.768221
vn -0.554416 0.320092 -0.768221
vn -0.631061 0.168228 -0.757273
vn -0.631061 -0.168228 -0.757273
vn -0.554416 -0.320092 -0.768221
vn -0.320092 -0.554416 -0.768221
vn -0.168228 -0.631061 -0.757273
vn 0.168228 -0.631061 -0.757273
vn 0.320092 -0.554416 -0.768221
vn 0.554416 -0.320092 -0.768221
vn 0.631061 -0.168228 -0.757273
vn 0.966244 0.25763 0
vn 0.25763 0.966244 0
vn -0.25763 0.966244 0
vn -0.966244 0.25763 0
vn -0.966244 -0.25763 0
vn -0.25763 -0.966244 0
vn 0.25763 -0.966244 0
vn 0.966244 -0.25763 0
vn 0.524788 0.139889 0.83966
vn 0.458993 0.264999 0.847998
vn 0.264999 0.458993 0.847998
vn 0.139889 0.524788 0.83966
vn -0.139889 0.524788 0.83966
vn -0.264999 0.458993 0.847998
vn -0.458993 0.264999 0.847998
vn -0.524788 0.139889 0.83966
vn -0.524788 -0.139889 0.83966
vn -0.458993 -0.264999 0.847998
vn -0.264999 -0.458993 0.847998
vn -0.139889 -0.524788 0.83966
vn 0.139889 -0.524788 0.83966
vn 0.264999 -0.458993 0.847998
vn 0.458993 -0.264999 0.847998
vn 0.524788 -0.139889 0.83966
vn 0.966278 0.257501 0
vn 0.257501 0.966278 0
vn -0.257501 0.966278 0
vn -0.966278 0.257501 0
vn -0.966278 -0.257501 0
vn -0.257501 -0.966278 0
vn 0.257501 -0.966278 0
vn 0.966278 -0.257501 0
vn 0.694873 0.185208 -0.694873
vn 0.612372 0.353553 -0.707107
vn 0.353553 0.612372 -0.707107
vn 0.185208 0.694873 -0.694873
vn -0.185208 0.694873 -0.694873
vn -0.353553 0.612372 -0.707107
vn -0.612372 0.353553 -0.707107
vn -0.694873 0.185208 -0.694873
vn -0.694873 -0.185208 -0.694873
vn -0.612372 -0.353553 -0.707107
vn -0.353553 -0.612372 -0.707107
vn -0.185208 -0.694873 -0.694873
vn 0.185208 -0.694873 -0.694873
vn 0.353553 -0.612372 -0.707107
vn 0.612372 -0.353553 -0.707107
vn 0.694873 -0.185208 -0.694873
vn 0.966256 0.257585 0
vn 0.257585 0.966256 0
vn -0.257585 0.966256 0
vn -0.966256 0.257585 0
vn -0.966256 -0.257585 0
vn -0.257585 -0.966256 0
vn 0.257585 -0.966256 0
vn 0.966256 -0.257585 0
vn 0.52479 0.13986 0.839664
vn 0.13986 0.52479 0.839664
vn -0.13986 0.52479 0.839664
vn -0.52479 0.13986 0.839664
vn -0.52479 -0.13986 0.839664
vn -0.13986 -0.52479 0.839664
vn 0.13986 -0.52479 0.839664
vn 0.52479 -0.13986 0.839664
vn 0.966293 0.257444 0
vn 0.257444 0.966293 0
vn -0.257444 0.966293 0
vn -0.966293 0.257444 0
vn -0.966293 -0.257444 0
vn -0.257444 -0.966293 0
vn 0.257444 -0.966293 0
vn 0.966293 -0.257444 0
vn 0.694879 0.185169 -0.694879
vn 0.185169 0.694879 -0.694879
vn -0.185169 0.694879 -0.694879
vn -0.694879 0.185169 -0.694879
vn -0.694879 -0.185169 -0.694879
vn -0.185169 -0.694879 -0.694879
vn 0.185169 -0.694879 -0.694879
vn 0.694879 -0.185169 -0.694879
vn 0.837409 0.483478 0.254941
vn 0.936384 0.249407 0.246944
vn 0.483478 0.837409 0.254941
vn 0.249407 0.936384 0.246944
vn -0.249407 0.936384 0.246944
vn -0.483478 0.837409 0.254941
vn -0.837409 0.483478 0.254941
vn -0.936384 0.249407 0.246944
vn -0.936384 -0.249407 0.246944
vn -0.837409 -0.483478 0.254941
vn -0.483478 -0.837409 0.254941
vn -0.249407 -0.936384 0.246944
vn 0.249407 -0.936384 0.246944
vn 0.483478 -0.837409 0.254941
vn 0.837409 -0.483478 0.254941
vn 0.936384 -0.249407 0.246944
vn 0.822942 0.475126 0.311484
vn 0.92127 0.245148 0.301935
vn 0.475126 0.822942 0.311484
vn 0.245148 0.92127 0.301935
vn -0.245148 0.92127 0.301935
vn -0.475126 0.822942 0.311484
vn -0.822942 0.475126 0.311484
vn -0.92127 0.245148 0.301935
vn -0.92127 -0.245148 0.301935
vn -0.822942 -0.475126 0.311484
vn -0.475126 -0.822942 0.311484
vn -0.245148 -0.92127 0.301935
vn 0.245148 -0.92127 0.301935
vn 0.475126 -0.822942 0.311484
vn 0.822942 -0.475126 0.311484
vn 0.92127 -0.245148 0.301935
vn 0.840168 0.485071 0.242536
vn 0.939428 0.249634 0.234857
vn 0.485071 0.840168 0.242536
vn 0.249634 0.939428 0.234857
vn -0.249634 0.939428 0.234857
vn -0.485071 0.840168 0.242536
vn -0.840168 0.485071 0.242536
vn -0.939428 0.249634 0.234857
vn -0.939428 -0.249634 0.234857
vn -0.840168 -0.485071 0.242536
vn -0.485071 -0.840168 0.242536
vn -0.249634 -0.939428 0.234857
vn 0.249634 -0.939428 0.234857
vn 0.485071 -0.840168 0.242536
vn 0.840168 -0.485071 0.242536
vn 0.939428 -0.249634 0.234857
vn 0 0 -1
vn 0 0 1
f 1/1/1 2/2/2 18/3/3 17/4/4
f 2/5/2 3/6/5 19/7/6 18/8/3
f 3/9/5 4/10/7 20/11/8 19/12/6
f 4/13/7 5/14/9 21/15/10 20/16/8
f 5/17/9 6/18/11 22/19/12 21/20/10
f 6/21/11 7/22/13 23/23/14 22/24/12
f 7/25/13 8/26/15 24/27/16 23/28/14
f 8/29/15 9/30/17 25/31/18 24/32/16
f 9/33/17 10/34/19 26/35/20 25/36/18
f 10/37/19 11/38/21 27/39/22 26/40/20
f 11/41/21 12/42/23 28/43/24 27/44/22
f 12/45/23 13/46/25 29/47/26 28/48/24
f 13/49/25 14/50/27 30/51/28 29/52/26
f 14/53/27 15/54/29 31/55/30 30/56/28
f 15/57/29 16/58/31 32/59/32 31/60/30
f 16/61/31 1/62/1 17/63/4 32/64/32
f 17/65/4 18/66/3 34/67/33 33/68/34
f 18/69/3 19/70/6 35/71/35 34/72/33
f 19/73/6 20/74/8 36/75/36 35/76/35
f 20/77/8 21/78/10 37/79/37 36/80/36
f 21/81/10 22/82/12 38/83/38 37/84/37
f 22/85/12 23/86/14 39/87/39 38/88/38
f 23/89/14 24/90/16 40/91/40 39/92/39
f 24/93/16 25/94/18 41/95/41 40/96/40
f 25/97/18 26/98/20 42/99/42 41/100/41
f 26/101/20 27/102/22 43/103/43 42/104/42
f 27/105/22 28/106/24 44/107/44 43/108/43
f 28/109/24 29/110/26 45/111/45 44/112/44
f 29/113/26 30/114/28 46/115/46 45/116/45
f 30/117/28 31/118/30 47/119/47 46/120/46
f 31/121/30 32/122/32 48/123/48 47/124/47
f 32/125/32 17/126/4 33/127/34 48/128/48
f 33/129/34 34/130/33 50/131/49 49/132/50
f 34/133/33 35/134/35 51/135/51 50/136/49
f 35/137/35 36/138/36 52/139/52 51/140/51
f 36/141/36 37/142/37 53/143/53 52/144/52
f 37/145/37 38/146/38 54/147/54 53/148/53
f 38/149/38 39/150/39 55/151/55 54/152/54
f 39/153/39 40/154/40 56/155/56 55/156/55
f 40/157/40 41/158/41 57/159/57 56/160/56
f 41/161/41 42/162/42 58/163/58 57/164/57
f 42/165/42 43/166/43 59/167/59 58/168/58
f 43/169/43 44/170/44 60/171/60 59/172/59
f 44/173/44 45/174/45 61/175/61 60/176/60
f 45/177/45 46/178/46 62/179/62 61/180/61
f 46/181/46 47/182/47 63/183/63 62/184/62
f 47/185/47 48/186/48 64/187/64 63/188/63
f 48/189/48 33/190/34 49/191/50 64/192/64
f 49/193/50 50/194/49 66/195/65 65/196/66
f 50/197/49 51/198/51 67/199/67 66/200/68
f 51/201/51 52/202/52 68/203/69 67/204/70
f 52/205/52 53/206/53 69/207/71 68/208/69
f 53/209/53 54/210/54 70/211/72 69/212/71
f 54/213/54 55/214/55 71/215/73 70/216/74
f 55/217/55 56/218/56 72/219/75 71/220/76
f 56/221/56 57/222/57 73/223/77 72/224/75
f 57/225/57 58/226/58 74/227/78 73/228/77
f 58/229/58 59/230/59 75/231/79 74/232/80
f 59/233/59 60/234/60 76/235/81 75/236/82
f 60/237/60 61/238/61 77/239/83 76/240/81
f 61/241/61 62/242/62 78/243/84 77/244/83
f 62/245/62 63/246/63 79/247/85 78/248/86
f 63/249/63 64/250/64 80/251/87 79/252/88
f 64/253/64 49/254/50 65/255/66 80/256/87
f 65/257/66 66/258/89 82/259/2 81/260/90
f 66/261/91 67/262/92 83/263/5 82/264/2
f 67/265/93 68/266/69 84/267/94 83/268/5
f 68/269/69 69/270/71 85/271/95 84/272/94
f 69/273/71 70/274/96 86/275/11 85/276/95
f 70/277/97 71/278/98 87/279/13 86/280/11
f 71/281/99 72/282/75 88/283/100 87/284/13
f 72/285/75 73/286/77 89/287/101 88/288/100
f 73/289/77 74/290/102 90/291/19 89/292/101
f 74/293/103 75/294/104 91/295/21 90/296/19
f 75/297/105 76/298/81 92/299/106 91/300/21
f 76/301/81 77/302/83 93/303/107 92/304/106
f 77/305/83 78/306/108 94/307/27 93/308/107
f 78/309/109 79/310/110 95/311/29 94/312/27
f 79/313/111 80/314/87 96/315/112 95/316/29
f 80/317/87 65/318/66 81/319/90 96/320/112
f 81/321/113 82/322/114 98/323/114 97/324/113
f 82/325/114 83/326/115 99/327/115 98/328/114
f 83/329/115 84/330/116 100/331/116 99/332/115
f 84/333/116 85/334/117 101/335/117 100/336/116
f 85/337/117 86/338/118 102/339/118 101/340/117
f 86/341/118 87/342/119 103/343/119 102/344/118
f 87/345/119 88/346/120 104/347/120 103/348/119
f 88/349/120 89/350/121 105/351/121 104/352/120
f 89/353/121 90/354/122 106/355/122 105/356/121
f 90/357/122 91/358/123 107/359/123 106/360/122
f 91/361/123 92/362/124 108/363/124 107/364/123
f 92/365/124 93/366/125 109/367/125 108/368/124
f 93/369/125 94/370/126 110/371/126 109/372/125
f 94/373/126 95/374/127 111/375/127 110/376/126
f 95/377/127 96/378/128 112/379/128 111/380/127
f 96/381/128 81/382/113 97/383/113 112/384/128
f 97/385/129 98/386/2 114/387/2 113/388/129
f 98/389/2 99/390/5 115/391/5 114/392/2
f 99/393/5 100/394/130 116/395/130 115/396/5
f 100/397/130 101/398/131 117/399/131 116/400/130
f 101/401/131 102/402/11 118/403/11 117/404/131
f 102/405/11 103/406/13 119/407/13 118/408/11
f 103/409/13 104/410/132 120/411/132 119/412/13
f 104/413/132 105/414/133 121/415/133 120/416/132
f 105/417/133 106/418/19 122/419/19 121/420/133
f 106/421/19 107/422/21 123/423/21 122/424/19
f 107/425/21 108/426/134 124/427/134 123/428/21
f 108/429/134 109/430/135 125/431/135 124/432/134
f 109/433/135 110/434/27 126/435/27 125/436/135
f 110/437/27 111/438/29 127/439/29 126/440/27
f 111/441/29 112/442/136 128/443/136 127/444/29
f 112/445/136 97/446/129 113/447/129 128/448/136
f 113/449/137 114/450/138 130/451/138 129/452/137
f 114/453/138 115/454/139 131/455/139 130/456/138
f 115/457/139 116/458/140 132/459/140 131/460/139
f 116/461/140 117/462/141 133/463/141 132/464/140
f 117/465/141 118/466/142 134/467/142 133/468/141
f 118/469/142 119/470/143 135/471/143 134/472/142
f 119/473/143 120/474/144 136/475/144 135/476/143
f 120/477/144 121/478/145 137/479/145 136/480/144
f 121/481/145 122/482/146 138/483/146 137/484/145
f 122/485/146 123/486/147 139/487/147 138/488/146
f 123/489/147 124/490/148 140/491/148 139/492/147
f 124/493/148 125/494/149 141/495/149 140/496/148
f 125/497/149 126/498/150 142/499/150 141/500/149
f 126/501/150 127/502/151 143/503/151 142/504/150
f 127/505/151 128/506/152 144/507/152 143/508/151
f 128/509/152 113/510/137 129/511/137 144/512/152
f 129/513/153 130/514/2 146/515/2 145/516/153
f 130/517/2 131/518/5 147/519/5 146/520/2
f 131/521/5 132/522/154 148/523/154 147/524/5
f 132/525/154 133/526/155 149/527/155 148/528/154
f 133/529/155 134/530/11 150/531/11 149/532/155
f 134/533/11 135/534/13 151/535/13 150/536/11
f 135/537/13 136/538/156 152/539/156 151/540/13
f 136/541/156 137/542/157 153/543/157 152/544/156
f 137/545/157 138/546/19 154/547/19 153/548/157
f 138/549/19 139/550/21 155/551/21 154/552/19
f 139/553/21 140/554/158 156/555/158 155/556/21
f 140/557/158 141/558/159 157/559/159 156/560/158
f 141/561/159 142/562/27 158/563/27 157/564/159
f 142/565/27 143/566/29 159/567/29 158/568/27
f 143/569/29 144/570/160 160/571/160 159/572/29
f 144/573/160 129/574/153 145/575/153 160/576/160
f 145/577/161 146/578/162 162/579/162 161/580/161
f 146/581/162 147/582/163 163/583/163 162/584/162
f 147/585/163 148/586/164 164/587/164 163/588/163
f 148/589/164 149/590/165 165/591/165 164/592/164
f 149/593/165 150/594/166 166/595/166 165/596/165
f 150/597/166 151/598/167 167/599/167 166/600/166
f 151/601/167 152/602/168 168/603/168 167/604/167
f 152/605/168 153/606/169 169/607/169 168/608/168
f 153/609/169 154/610/170 170/611/170 169/612/169
f 154/613/170 155/614/171 171/615/171 170/616/170
f 155/617/171 156/618/172 172/619/172 171/620/171
f 156/621/172 157/622/173 173/623/173 172/624/172
f 157/625/173 158/626/174 174/627/174 173/628/173
f 158/629/174 159/630/175 175/631/175 174/632/174
f 159/633/175 160/634/176 176/635/176 175/636/175
f 160/637/176 145/638/161 161/639/161 176/640/176
f 161/641/177 162/642/2 178/643/2 177/644/177
f 162/645/2 163/646/5 179/647/5 178/648/2
f 163/649/5 164/650/178 180/651/178 179/652/5
f 164/653/178 165/654/179 181/655/179 180/656/178
f 165/657/179 166/658/11 182/659/11 181/660/179
f 166/661/11 167/662/13 183/663/13 182/664/11
f 167/665/13 168/666/180 184/667/180 183/668/13
f 168/669/180 169/670/181 185/671/181 184/672/180
f 169/673/181 170/674/19 186/675/19 185/676/181
f 170/677/19 171/678/21 187/679/21 186/680/19
f 171/681/21 172/682/182 188/683/182 187/684/21
f 172/685/182 173/686/183 189/687/183 188/688/182
f 173/689/183 174/690/27 190/691/27 189/692/183
f 174/693/27 175/694/29 191/695/29 190/696/27
f 175/697/29 176/698/184 192/699/184 191/700/29
f 176/701/184 161/702/177 177/703/177 192/704/184
f 177/705/185 178/706/138 194/707/138 193/708/185
f 178/709/138 179/710/139 195/711/139 194/712/138
f 179/713/139 180/714/186 196/715/186 195/716/139
f 180/717/186 181/718/187 197/719/187 196/720/186
f 181/721/187 182/722/142 198/723/142 197/724/187
f 182/725/142 183/726/143 199/727/143 198/728/142
f 183/729/143 184/730/188 200/731/188 199/732/143
f 184/733/188 185/734/189 201/735/189 200/736/188
f 185/737/189 186/738/146 202/739/146 201/740/189
f 186/741/146 187/742/147 203/743/147 202/744/146
f 187/745/147 188/746/190 204/747/190 203/748/147
f 188/749/190 189/750/191 205/751/191 204/752/190
f 189/753/191 190/754/150 206/755/150 205/756/191
f 190/757/150 191/758/151 207/759/151 206/760/150
f 191/761/151 192/762/192 208/763/192 207/764/151
f 192/765/192 177/766/185 193/767/185 208/768/192
f 193/769/193 194/770/2 210/771/2 209/772/193
f 194/773/2 195/774/5 211/775/5 210/776/2
f 195/777/5 196/778/194 212/779/194 211/780/5
f 196/781/194 197/782/195 213/783/195 212/784/194
f 197/785/195 198/786/11 214/787/11 213/788/195
f 198/789/11 199/790/13 215/791/13 214/792/11
f 199/793/13 200/794/196 216/795/196 215/796/13
f 200/797/196 201/798/197 217/799/197 216/800/196
f 201/801/197 202/802/19 218/803/19 217/804/197
f 202/805/19 203/806/21 219/807/21 218/808/19
f 203/809/21 204/810/198 220/811/198 219/812/21
f 204/813/198 205/814/199 221/815/199 220/816/198
f 205/817/199 206/818/27 222/819/27 221/820/199
f 206/821/27 207/822/29 223/823/29 222/824/27
f 207/825/29 208/826/200 224/827/200 223/828/29
f 208/829/200 193/830/193 209/831/193 224/832/200
f 209/833/201 210/834/162 226/835/162 225/836/201
f 210/837/162 211/838/163 227/839/163 226/840/162
f 211/841/163 212/842/202 228/843/202 227/844/163
f 212/845/202 213/846/203 229/847/203 228/848/202
f 213/849/203 214/850/166 230/851/166 229/852/203
f 214/853/166 215/854/167 231/855/167 230/856/166
f 215/857/167 216/858/204 232/859/204 231/860/167
f 216/861/204 217/862/205 233/863/205 232/864/204
f 217/865/205 218/866/170 234/867/170 233/868/205
f 218/869/170 219/870/171 235/871/171 234/872/170
f 219/873/171 220/874/206 236/875/206 235/876/171
f 220/877/206 221/878/207 237/879/207 236/880/206
f 221/881/207 222/882/174 238/883/174 237/884/207
f 222/885/174 223/886/175 239/887/175 238/888/174
f 223/889/175 224/890/208 240/891/208 239/892/175
f 224/893/208 209/894/201 225/895/201 240/896/208
f 225/897/90 226/898/2 242/899/209 241/900/210
f 226/901/2 227/902/5 243/903/211 242/904/209
f 227/905/5 228/906/94 244/907/212 243/908/211
f 228/909/94 229/910/95 245/911/213 244/912/212
f 229/913/95 230/914/11 246/915/214 245/916/213
f 230/917/11 231/918/13 247/919/215 246/920/214
f 231/921/13 232/922/100 248/923/216 247/924/215
f 232/925/100 233/926/101 249/927/217 248/928/216
f 233/929/101 234/930/19 250/931/218 249/932/217
f 234/933/19 235/934/21 251/935/219 250/936/218
f 235/937/21 236/938/106 252/939/220 251/940/219
f 236/941/106 237/942/107 253/943/221 252/944/220
f 237/945/107 238/946/27 254/947/222 253/948/221
f 238/949/27 239/950/29 255/951/223 254/952/222
f 239/953/29 240/954/112 256/955/224 255/956/223
f 240/957/112 225/958/90 241/959/210 256/960/224
f 241/961/210 242/962/209 258/963/225 257/964/226
f 242/965/209 243/966/211 259/967/227 258/968/225
f 243/969/211 244/970/212 260/971/228 259/972/227
f 244/973/212 245/974/213 261/975/229 260/976/228
f 245/977/213 246/978/214 262/979/230 261/980/229
f 246/981/214 247/982/215 263/983/231 262/984/230
f 247/985/215 248/986/216 264/987/232 263/988/231
f 248/989/216 249/990/217 265/991/233 264/992/232
f 249/993/217 250/994/218 266/995/234 265/996/233
f 250/997/218 251/998/219 267/999/235 266/1000/234
f 251/1001/219 252/1002/220 268/1003/236 267/1004/235
f 252/1005/220 253/1006/221 269/1007/237 268/1008/236
f 253/1009/221 254/1010/222 270/1011/238 269/1012/237
f 254/1013/222 255/1014/223 271/1015/239 270/1016/238
f 255/1017/223 256/1018/224 272/1019/240 271/1020/239
f 256/1021/224 241/1022/210 257/1023/226 272/1024/240
f 257/1025/226 258/1026/225 274/1027/241 273/1028/242
f 258/1029/225 259/1030/227 275/1031/243 274/1032/241
f 259/1033/227 260/1034/228 276/1035/244 275/1036/243
f 260/1037/228 261/1038/229 277/1039/245 276/1040/244
f 261/1041/229 262/1042/230 278/1043/246 277/1044/245
f 262/1045/230 263/1046/231 279/1047/247 278/1048/246
f 263/1049/231 264/1050/232 280/1051/248 279/1052/247
f 264/1053/232 265/1054/233 281/1055/249 280/1056/248
f 265/1057/233 266/1058/234 282/1059/250 281/1060/249
f 266/1061/234 267/1062/235 283/1063/251 282/1064/250
f 267/1065/235 268/1066/236 284/1067/252 283/1068/251
f 268/1069/236 269/1070/237 285/1071/253 284/1072/252
f 269/1073/237 270/1074/238 286/1075/254 285/1076/253
f 270/1077/238 271/1078/239 287/1079/255 286/1080/254
f 271/1081/239 272/1082/240 288/1083/256 287/1084/255
f 272/1085/240 257/1086/226 273/1087/242 288/1088/256
f 2/1089/257 1/1090/257 289/1091/257
f 3/1092/257 2/1093/257 289/1094/257
f 4/1095/257 3/1096/257 289/1097/257
f 5/1098/257 4/1099/257 289/1100/257
f 6/1101/257 5/1102/257 289/1103/257
f 7/1104/257 6/1105/257 289/1106/257
f 8/1107/257 7/1108/257 289/1109/257
f 9/1110/257 8/1111/257 289/1112/257
f 10/1113/257 9/1114/257 289/1115/257
f 11/1116/257 10/1117/257 289/1118/257
f 12/1119/257 11/1120/257 289/1121/257
f 13/1122/257 12/1123/257 289/1124/257
f 14/1125/257 13/1126/257 289/1127/257
f 15/1128/257 14/1129/257 289/1130/257
f 16/1131/257 15/1132/257 289/1133/257
f 1/1134/257 16/1135/257 289/1136/257
f 290/1137/258 273/1138/258 274/1139/258
f 290/1140/258 274/1141/258 275/1142/258
f 290/1143/258 275/1144/258 276/1145/258
f 290/1146/258 276/1147/258 277/1148/258
f 290/1149/258 277/1150/258 278/1151/258
f 290/1152/258 278/1153/258 279/1154/258
f 290/1155/258 279/1156/258 280/1157/258
f 290/1158/258 280/1159/258 281/1160/258
f 290/1161/258 281/1162/258 282/1163/258
f 290/1164/258 282/1165/258 283/1166/258
f 290/1167/258 283/1168/258 284/1169/258
f 290/1170/258 284/1171/258 285/1172/258
f 290/1173/258 285/1174/258 286/1175/258
f 290/1176/258 286/1177/258 287/1178/258
f 290/1179/258 287/1180/258 288/1181/258
f 290/1182/258 288/1183/258 273/1184/258
o plug_blade_n
usemtl strip
v 0.48935 0.499325 0.476
v 0.48935 0.499325 0.5015
v 0.48935 0.511175 0.5015
v 0.48935 0.511175 0.476
v 0.4916 0.499325 0.476
v 0.4916 0.499325 0.5015
v 0.4916 0.511175 0.5015
v 0.4916 0.511175 0.476
v 0.48935 0.503927 0.48457
v 0.48935 0.50311 0.483445
v 0.48935 0.50311 0.482055
v 0.48935 0.503927 0.48093
v 0.48935 0.50525 0.4805
v 0.48935 0.506573 0.48093
v 0.48935 0.50739 0.482055
v 0.48935 0.50739 0.483445
v 0.48935 0.506573 0.48457
v 0.48935 0.50525 0.485
v 0.4916 0.503927 0.48457
v 0.4916 0.50311 0.483445
v 0.4916 0.50311 0.482055
v 0.4916 0.503927 0.48093
v 0.4916 0.50525 0.4805
v 0.4916 0.506573 0.48093
v 0.4916 0.50739 0.482055
v 0.4916 0.50739 0.483445
v 0.4916 0.506573 0.48457
v 0.4916 0.50525 0.485
v 0.48935 0.499325 0.476
v 0.48935 0.499325 0.5015
v 0.48935 0.511175 0.5015
v 0.48935 0.511175 0.476
v 0.48935 0.503927 0.48457
v 0.48935 0.50311 0.483445
v 0.48935 0.50311 0.482055
v 0.48935 0.503927 0.48093
v 0.48935 0.50525 0.4805
v 0.48935 0.506573 0.48093
v 0.48935 0.50739 0.482055
v 0.48935 0.50739 0.483445
v 0.48935 0.506573 0.48457
v 0.48935 0.50525 0.485
v 0.4916 0.499325 0.476
v 0.4916 0.499325 0.5015
v 0.4916 0.511175 0.5015
v 0.4916 0.511175 0.476
v 0.4916 0.503927 0.48457
v 0.4916 0.50311 0.483445
v 0.4916 0.50311 0.482055
v 0.4916 0.503927 0.48093
v 0.4916 0.50525 0.4805
v 0.4916 0.506573 0.48093
v 0.4916 0.50739 0.482055
v 0.4916 0.50739 0.483445
v 0.4916 0.506573 0.48457
v 0.4916 0.50525 0.485
vt 0.487305 0.111727
vt 0.515992 0.111727
vt 0.515992 0.114258
vt 0.487305 0.114258
vt 0.62793 0.111727
vt 0.641261 0.111727
vt 0.641261 0.114258
vt 0.62793 0.114258
vt 0.551148 0.114258
vt 0.522461 0.114258
vt 0.522461 0.111727
vt 0.551148 0.111727
vt 0.660792 0.114258
vt 0.647461 0.114258
vt 0.647461 0.111727
vt 0.660792 0.111727
vt 0.186523 0.075195
vt 0.186523 0.073631
vt 0.189055 0.073631
vt 0.189055 0.075195
vt 0.264648 0.075195
vt 0.264648 0.073631
vt 0.26718 0.073631
vt 0.26718 0.075195
vt 0.147461 0.075195
vt 0.147461 0.073631
vt 0.149992 0.073631
vt 0.149992 0.075195
vt 0.274414 0.075195
vt 0.274414 0.073631
vt 0.276945 0.073631
vt 0.276945 0.075195
vt 0.228117 0.073631
vt 0.228117 0.075195
vt 0.225586 0.075195
vt 0.225586 0.073631
vt 0.19882 0.073631
vt 0.19882 0.075195
vt 0.196289 0.075195
vt 0.196289 0.073631
vt 0.286711 0.073631
vt 0.286711 0.075195
vt 0.28418 0.075195
vt 0.28418 0.073631
vt 0.159758 0.073631
vt 0.159758 0.075195
vt 0.157227 0.075195
vt 0.157227 0.073631
vt 0.296477 0.073631
vt 0.296477 0.075195
vt 0.293945 0.075195
vt 0.293945 0.073631
vt 0.235352 0.075195
vt 0.235352 0.073631
vt 0.237883 0.073631
vt 0.237883 0.075195
vt 0.142945 0.317723
vt 0.124383 0.324389
vt 0.123899 0.322901
vt 0.142945 0.317723
vt 0.123899 0.322901
vt 0.122634 0.321982
vt 0.114258 0.317723
vt 0.142945 0.317723
vt 0.122634 0.321982
vt 0.114258 0.317723
vt 0.122634 0.321982
vt 0.121069 0.321982
vt 0.114258 0.317723
vt 0.121069 0.321982
vt 0.119804 0.322901
vt 0.114258 0.331055
vt 0.114258 0.317723
vt 0.119804 0.322901
vt 0.114258 0.331055
vt 0.119804 0.322901
vt 0.11932 0.324389
vt 0.114258 0.331055
vt 0.11932 0.324389
vt 0.119804 0.325877
vt 0.114258 0.331055
vt 0.119804 0.325877
vt 0.121069 0.326796
vt 0.114258 0.331055
vt 0.121069 0.326796
vt 0.122634 0.326796
vt 0.123899 0.325877
vt 0.124383 0.324389
vt 0.142945 0.317723
vt 0.122634 0.326796
vt 0.123899 0.325877
vt 0.142945 0.317723
vt 0.114258 0.331055
vt 0.122634 0.326796
vt 0.142945 0.317723
vt 0.142945 0.317723
vt 0.142945 0.331055
vt 0.114258 0.331055
vt 0.159056 0.325877
vt 0.159539 0.324389
vt 0.178102 0.331055
vt 0.15779 0.326796
vt 0.159056 0.325877
vt 0.178102 0.331055
vt 0.15779 0.326796
vt 0.178102 0.331055
vt 0.149414 0.331055
vt 0.156226 0.326796
vt 0.15779 0.326796
vt 0.149414 0.331055
vt 0.15496 0.325877
vt 0.156226 0.326796
vt 0.149414 0.331055
vt 0.15496 0.325877
vt 0.149414 0.331055
vt 0.149414 0.317723
vt 0.154477 0.324389
vt 0.15496 0.325877
vt 0.149414 0.317723
vt 0.15496 0.322901
vt 0.154477 0.324389
vt 0.149414 0.317723
vt 0.156226 0.321982
vt 0.15496 0.322901
vt 0.149414 0.317723
vt 0.15779 0.321982
vt 0.156226 0.321982
vt 0.149414 0.317723
vt 0.178102 0.331055
vt 0.159539 0.324389
vt 0.159056 0.322901
vt 0.178102 0.331055
vt 0.159056 0.322901
vt 0.15779 0.321982
vt 0.178102 0.331055
vt 0.15779 0.321982
vt 0.149414 0.317723
vt 0.149414 0.317723
vt 0.178102 0.317723
vt 0.178102 0.331055
vn 0 -1 0
vn 0 0 1
vn 0 1 0
vn 0 0 -1
vn 0 0.809017 -0.587785
vn 0 0.951057 -0.309017
vn 0 0.951057 0.309017
vn 0 0.809017 0.587785
vn 0 0.309017 0.951057
vn 0 -0.309017 0.951057
vn 0 -0.809017 0.587785
vn 0 -0.951057 0.309017
vn 0 -0.809017 -0.587785
vn 0 -0.587785 -0.809017
vn 0 0.309017 -0.951057
vn -1 0 0
vn 1 0 0
f 295/1185/259 296/1186/259 292/1187/259 291/1188/259
f 296/1189/260 297/1190/260 293/1191/260 292/1192/260
f 297/1193/261 298/1194/261 294/1195/261 293/1196/261
f 298/1197/262 295/1198/262 291/1199/262 294/1200/262
f 309/1201/263 310/1202/264 300/1203/264 299/1204/263
f 310/1205/264 311/1206/265 301/1207/265 300/1208/264
f 311/1209/265 312/1210/266 302/1211/266 301/1212/265
f 312/1213/267 313/1214/260 303/1215/260 302/1216/267
f 313/1217/260 314/1218/268 304/1219/268 303/1220/260
f 314/1221/269 315/1222/270 305/1223/270 304/1224/269
f 315/1225/270 316/1226/259 306/1227/259 305/1228/270
f 316/1229/271 317/1230/272 307/1231/272 306/1232/271
f 317/1233/272 318/1234/262 308/1235/262 307/1236/272
f 318/1237/262 309/1238/273 299/1239/273 308/1240/262
f 320/1241/274 332/1242/274 323/1243/274
f 320/1244/274 323/1245/274 324/1246/274
f 319/1247/274 320/1248/274 324/1249/274
f 319/1250/274 324/1251/274 325/1252/274
f 319/1253/274 325/1254/274 326/1255/274
f 322/1256/274 319/1257/274 326/1258/274
f 322/1259/274 326/1260/274 327/1261/274
f 322/1262/274 327/1263/274 328/1264/274
f 322/1265/274 328/1266/274 329/1267/274
f 322/1268/274 329/1269/274 330/1270/274
f 331/1271/274 332/1272/274 320/1273/274
f 330/1274/274 331/1275/274 320/1276/274
f 322/1277/274 330/1278/274 320/1279/274
f 320/1280/274 321/1281/274 322/1282/274
f 337/1283/275 346/1284/275 334/1285/275
f 338/1286/275 337/1287/275 334/1288/275
f 338/1289/275 334/1290/275 333/1291/275
f 339/1292/275 338/1293/275 333/1294/275
f 340/1295/275 339/1296/275 333/1297/275
f 340/1298/275 333/1299/275 336/1300/275
f 341/1301/275 340/1302/275 336/1303/275
f 342/1304/275 341/1305/275 336/1306/275
f 343/1307/275 342/1308/275 336/1309/275
f 344/1310/275 343/1311/275 336/1312/275
f 334/1313/275 346/1314/275 345/1315/275
f 334/1316/275 345/1317/275 344/1318/275
f 334/1319/275 344/1320/275 336/1321/275
f 336/1322/275 335/1323/275 334/1324/275
o plug_blade_h
usemtl strip
v 0.5084 0.500487 0.476
v 0.5084 0.500487 0.5015
v 0.5084 0.510012 0.5015
v 0.5084 0.510012 0.476
v 0.51065 0.500487 0.476
v 0.51065 0.500487 0.5015
v 0.51065 0.510012 0.5015
v 0.51065 0.510012 0.476
v 0.5084 0.503927 0.48457
v 0.5084 0.50311 0.483445
v 0.5084 0.50311 0.482055
v 0.5084 0.503927 0.48093
v 0.5084 0.50525 0.4805
v 0.5084 0.506573 0.48093
v 0.5084 0.50739 0.482055
v 0.5084 0.50739 0.483445
v 0.5084 0.506573 0.48457
v 0.5084 0.50525 0.485
v 0.51065 0.503927 0.48457
v 0.51065 0.50311 0.483445
v 0.51065 0.50311 0.482055
v 0.51065 0.503927 0.48093
v 0.51065 0.50525 0.4805
v 0.51065 0.506573 0.48093
v 0.51065 0.50739 0.482055
v 0.51065 0.50739 0.483445
v 0.51065 0.506573 0.48457
v 0.51065 0.50525 0.485
v 0.5084 0.500487 0.476
v 0.5084 0.500487 0.5015
v 0.5084 0.510012 0.5015
v 0.5084 0.510012 0.476
v 0.5084 0.503927 0.48457
v 0.5084 0.50311 0.483445
v 0.5084 0.50311 0.482055
v 0.5084 0.503927 0.48093
v 0.5084 0.50525 0.4805
v 0.5084 0.506573 0.48093
v 0.5084 0.50739 0.482055
v 0.5084 0.50739 0.483445
v 0.5084 0.506573 0.48457
v 0.5084 0.50525 0.485
v 0.51065 0.500487 0.476
v 0.51065 0.500487 0.5015
v 0.51065 0.510012 0.5015
v 0.51065 0.510012 0.476
v 0.51065 0.503927 0.48457
v 0.51065 0.50311 0.483445
v 0.51065 0.50311 0.482055
v 0.51065 0.503927 0.48093
v 0.51065 0.50525 0.4805
v 0.51065 0.506573 0.48093
v 0.51065 0.50739 0.482055
v 0.51065 0.50739 0.483445
v 0.51065 0.506573 0.48457
v 0.51065 0.50525 0.485
vt 0.557617 0.111727
vt 0.586305 0.111727
vt 0.586305 0.114258
vt 0.557617 0.114258
vt 0.666992 0.111727
vt 0.677708 0.111727
vt 0.677708 0.114258
vt 0.666992 0.114258
vt 0.621461 0.114258
vt 0.592773 0.114258
vt 0.592773 0.111727
vt 0.621461 0.111727
vt 0.695286 0.114258
vt 0.68457 0.114258
vt 0.68457 0.111727
vt 0.695286 0.111727
vt 0.206055 0.075195
vt 0.206055 0.073631
vt 0.208586 0.073631
vt 0.208586 0.075195
vt 0.303711 0.075195
vt 0.303711 0.073631
vt 0.306242 0.073631
vt 0.306242 0.075195
vt 0.166992 0.075195
vt 0.166992 0.073631
vt 0.169523 0.073631
vt 0.169523 0.075195
vt 0.313477 0.075195
vt 0.313477 0.073631
vt 0.316008 0.073631
vt 0.316008 0.075195
vt 0.247648 0.073631
vt 0.247648 0.075195
vt 0.245117 0.075195
vt 0.245117 0.073631
vt 0.218352 0.073631
vt 0.218352 0.075195
vt 0.21582 0.075195
vt 0.21582 0.073631
vt 0.325773 0.073631
vt 0.325773 0.075195
vt 0.323242 0.075195
vt 0.323242 0.073631
vt 0.179289 0.073631
vt 0.179289 0.075195
vt 0.176758 0.075195
vt 0.176758 0.073631
vt 0.335539 0.073631
vt 0.335539 0.075195
vt 0.333008 0.075195
vt 0.333008 0.073631
vt 0.254883 0.075195
vt 0.254883 0.073631
vt 0.257414 0.073631
vt 0.257414 0.075195
vt 0.03357 0.281277
vt 0.015008 0.286634
vt 0.014524 0.285147
vt 0.03357 0.281277
vt 0.014524 0.285147
vt 0.013259 0.284227
vt 0.004883 0.281277
vt 0.03357 0.281277
vt 0.013259 0.284227
vt 0.004883 0.281277
vt 0.013259 0.284227
vt 0.011694 0.284227
vt 0.004883 0.281277
vt 0.011694 0.284227
vt 0.010429 0.285147
vt 0.004883 0.291992
vt 0.004883 0.281277
vt 0.010429 0.285147
vt 0.004883 0.291992
vt 0.010429 0.285147
vt 0.009945 0.286634
vt 0.004883 0.291992
vt 0.009945 0.286634
vt 0.010429 0.288122
vt 0.004883 0.291992
vt 0.010429 0.288122
vt 0.011694 0.289042
vt 0.004883 0.291992
vt 0.011694 0.289042
vt 0.013259 0.289042
vt 0.014524 0.288122
vt 0.015008 0.286634
vt 0.03357 0.281277
vt 0.013259 0.289042
vt 0.014524 0.288122
vt 0.03357 0.281277
vt 0.013259 0.289042
vt 0.03357 0.281277
vt 0.03357 0.291992
vt 0.013259 0.289042
vt 0.03357 0.291992
vt 0.004883 0.291992
vt 0.967649 0.3057
vt 0.968133 0.304212
vt 0.986695 0.30957
vt 0.966384 0.30662
vt 0.967649 0.3057
vt 0.986695 0.30957
vt 0.966384 0.30662
vt 0.986695 0.30957
vt 0.958008 0.30957
vt 0.964819 0.30662
vt 0.966384 0.30662
vt 0.958008 0.30957
vt 0.963554 0.3057
vt 0.964819 0.30662
vt 0.958008 0.30957
vt 0.963554 0.3057
vt 0.958008 0.30957
vt 0.958008 0.298855
vt 0.96307 0.304212
vt 0.963554 0.3057
vt 0.958008 0.298855
vt 0.963554 0.302725
vt 0.96307 0.304212
vt 0.958008 0.298855
vt 0.964819 0.301805
vt 0.963554 0.302725
vt 0.958008 0.298855
vt 0.966384 0.301805
vt 0.964819 0.301805
vt 0.958008 0.298855
vt 0.986695 0.30957
vt 0.968133 0.304212
vt 0.967649 0.302725
vt 0.986695 0.30957
vt 0.967649 0.302725
vt 0.966384 0.301805
vt 0.986695 0.298855
vt 0.986695 0.30957
vt 0.966384 0.301805
vt 0.958008 0.298855
vt 0.986695 0.298855
vt 0.966384 0.301805
vn 0 -1 0
vn 0 0 1
vn 0 1 0
vn 0 0 -1
vn 0 0.809017 -0.587785
vn 0 0.951057 -0.309017
vn 0 0.951057 0.309017
vn 0 0.809017 0.587785
vn 0 0.309017 0.951057
vn 0 -0.309017 0.951057
vn 0 -0.809017 0.587785
vn 0 -0.951057 0.309017
vn 0 -0.809017 -0.587785
vn 0 -0.587785 -0.809017
vn 0 0.309017 -0.951057
vn -1 0 0
vn 1 0 0
f 351/1325/276 352/1326/276 348/1327/276 347/1328/276
f 352/1329/277 353/1330/277 349/1331/277 348/1332/277
f 353/1333/278 354/1334/278 350/1335/278 349/1336/278
f 354/1337/279 351/1338/279 347/1339/279 350/1340/279
f 365/1341/280 366/1342/281 356/1343/281 355/1344/280
f 366/1345/281 367/1346/282 357/1347/282 356/1348/281
f 367/1349/282 368/1350/283 358/1351/283 357/1352/282
f 368/1353/284 369/1354/277 359/1355/277 358/1356/284
f 369/1357/277 370/1358/285 360/1359/285 359/1360/277
f 370/1361/286 371/1362/287 361/1363/287 360/1364/286
f 371/1365/287 372/1366/276 362/1367/276 361/1368/287
f 372/1369/288 373/1370/289 363/1371/289 362/1372/288
f 373/1373/289 374/1374/279 364/1375/279 363/1376/289
f 374/1377/279 365/1378/290 355/1379/290 364/1380/279
f 376/1381/291 388/1382/291 379/1383/291
f 376/1384/291 379/1385/291 380/1386/291
f 375/1387/291 376/1388/291 380/1389/291
f 375/1390/291 380/1391/291 381/1392/291
f 375/1393/291 381/1394/291 382/1395/291
f 378/1396/291 375/1397/291 382/1398/291
f 378/1399/291 382/1400/291 383/1401/291
f 378/1402/291 383/1403/291 384/1404/291
f 378/1405/291 384/1406/291 385/1407/291
f 378/1408/291 385/1409/291 386/1410/291
f 387/1411/291 388/1412/291 376/1413/291
f 386/1414/291 387/1415/291 376/1416/291
f 386/1417/291 376/1418/291 377/1419/291
f 386/1420/291 377/1421/291 378/1422/291
f 393/1423/292 402/1424/292 390/1425/292
f 394/1426/292 393/1427/292 390/1428/292
f 394/1429/292 390/1430/292 389/1431/292
f 395/1432/292 394/1433/292 389/1434/292
f 396/1435/292 395/1436/292 389/1437/292
f 396/1438/292 389/1439/292 392/1440/292
f 397/1441/292 396/1442/292 392/1443/292
f 398/1444/292 397/1445/292 392/1446/292
f 399/1447/292 398/1448/292 392/1449/292
f 400/1450/292 399/1451/292 392/1452/292
f 390/1453/292 402/1454/292 401/1455/292
f 390/1456/292 401/1457/292 400/1458/292
f 391/1459/292 390/1460/292 400/1461/292
f 392/1462/292 391/1463/292 400/1464/292
o plug_pin
usemtl strip
v 0.503477 0.489532 0.4745
v 0.502546 0.491146 0.4745
v 0.500932 0.492077 0.4745
v 0.499068 0.492077 0.4745
v 0.497454 0.491146 0.4745
v 0.496523 0.489532 0.4745
v 0.496523 0.487668 0.4745
v 0.497454 0.486054 0.4745
v 0.499068 0.485123 0.4745
v 0.500932 0.485123 0.4745
v 0.502546 0.486054 0.4745
v 0.503477 0.487668 0.4745
v 0.503477 0.489532 0.5015
v 0.502546 0.491146 0.5015
v 0.500932 0.492077 0.5015
v 0.499068 0.492077 0.5015
v 0.497454 0.491146 0.5015
v 0.496523 0.489532 0.5015
v 0.496523 0.487668 0.5015
v 0.497454 0.486054 0.5015
v 0.499068 0.485123 0.5015
v 0.500932 0.485123 0.5015
v 0.502546 0.486054 0.5015
v 0.503477 0.487668 0.5015
v 0.5 0.4886 0.4745
v 0.5 0.4886 0.5015
vt 0.50293 0.094727
vt 0.50293 0.09263
vt 0.533305 0.09263
vt 0.533305 0.094727
vt 0.194336 0.094727
vt 0.194336 0.09263
vt 0.224711 0.09263
vt 0.224711 0.094727
vt 0.305664 0.094727
vt 0.305664 0.09263
vt 0.336039 0.09263
vt 0.336039 0.094727
vt 0.231445 0.094727
vt 0.231445 0.09263
vt 0.26182 0.09263
vt 0.26182 0.094727
vt 0.352539 0.094727
vt 0.352539 0.09263
vt 0.382914 0.09263
vt 0.382914 0.094727
vt 0.389648 0.094727
vt 0.389648 0.09263
vt 0.420023 0.09263
vt 0.420023 0.094727
vt 0.540039 0.094727
vt 0.540039 0.09263
vt 0.570414 0.09263
vt 0.570414 0.094727
vt 0.456055 0.094727
vt 0.456055 0.09263
vt 0.48643 0.09263
vt 0.48643 0.094727
vt 0.147461 0.094727
vt 0.147461 0.09263
vt 0.177836 0.09263
vt 0.177836 0.094727
vt 0.268555 0.094727
vt 0.268555 0.09263
vt 0.29893 0.09263
vt 0.29893 0.094727
vt 0.59668 0.094727
vt 0.59668 0.09263
vt 0.627055 0.09263
vt 0.627055 0.094727
vt 0.11143 0.09263
vt 0.11143 0.094727
vt 0.081055 0.094727
vt 0.081055 0.09263
vt 0.636659 0.23821
vt 0.634843 0.239258
vt 0.633795 0.235346
vt 0.637707 0.236394
vt 0.636659 0.23821
vt 0.633795 0.235346
vt 0.637707 0.234298
vt 0.637707 0.236394
vt 0.633795 0.235346
vt 0.636659 0.232482
vt 0.637707 0.234298
vt 0.633795 0.235346
vt 0.634843 0.231434
vt 0.636659 0.232482
vt 0.633795 0.235346
vt 0.632747 0.231434
vt 0.634843 0.231434
vt 0.633795 0.235346
vt 0.630931 0.232482
vt 0.632747 0.231434
vt 0.633795 0.235346
vt 0.629883 0.234298
vt 0.630931 0.232482
vt 0.633795 0.235346
vt 0.629883 0.236394
vt 0.629883 0.234298
vt 0.633795 0.235346
vt 0.630931 0.23821
vt 0.629883 0.236394
vt 0.633795 0.235346
vt 0.632747 0.239258
vt 0.630931 0.23821
vt 0.633795 0.235346
vt 0.634843 0.239258
vt 0.632747 0.239258
vt 0.633795 0.235346
vt 0.64942 0.235346
vt 0.650468 0.231434
vt 0.652284 0.232482
vt 0.64942 0.235346
vt 0.652284 0.232482
vt 0.653332 0.234298
vt 0.64942 0.235346
vt 0.653332 0.234298
vt 0.653332 0.236394
vt 0.64942 0.235346
vt 0.653332 0.236394
vt 0.652284 0.23821
vt 0.64942 0.235346
vt 0.652284 0.23821
vt 0.650468 0.239258
vt 0.64942 0.235346
vt 0.650468 0.239258
vt 0.648372 0.239258
vt 0.64942 0.235346
vt 0.648372 0.239258
vt 0.646556 0.23821
vt 0.64942 0.235346
vt 0.646556 0.23821
vt 0.645508 0.236394
vt 0.64942 0.235346
vt 0.645508 0.236394
vt 0.645508 0.234298
vt 0.64942 0.235346
vt 0.645508 0.234298
vt 0.646556 0.232482
vt 0.64942 0.235346
vt 0.646556 0.232482
vt 0.648372 0.231434
vt 0.64942 0.235346
vt 0.648372 0.231434
vt 0.650468 0.231434
vn 0.866025 0.5 0
vn 0.707107 0.707107 0
vn 0.258819 0.965926 0
vn -0.258819 0.965926 0
vn -0.707107 0.707107 0
vn -0.965926 0.258819 0
vn -0.965926 -0.258819 0
vn -0.707107 -0.707107 0
vn -0.258819 -0.965926 0
vn 0.258819 -0.965926 0
vn 0.707107 -0.707107 0
vn 0.866025 -0.5 0
vn -1 0 0
vn 0 0 -1
vn 0 0 1
f 403/1465/293 404/1466/294 416/1467/294 415/1468/293
f 404/1469/294 405/1470/295 417/1471/295 416/1472/294
f 405/1473/295 406/1474/296 418/1475/296 417/1476/295
f 406/1477/296 407/1478/297 419/1479/297 418/1480/296
f 407/1481/297 408/1482/298 420/1483/298 419/1484/297
f 408/1485/298 409/1486/299 421/1487/299 420/1488/298
f 409/1489/299 410/1490/300 422/1491/300 421/1492/299
f 410/1493/300 411/1494/301 423/1495/301 422/1496/300
f 411/1497/301 412/1498/302 424/1499/302 423/1500/301
f 412/1501/302 413/1502/303 425/1503/303 424/1504/302
f 413/1505/303 414/1506/304 426/1507/304 425/1508/303
f 426/1509/305 415/1510/305 403/1511/305 414/1512/305
f 404/1513/306 403/1514/306 427/1515/306
f 405/1516/306 404/1517/306 427/1518/306
f 406/1519/306 405/1520/306 427/1521/306
f 407/1522/306 406/1523/306 427/1524/306
f 408/1525/306 407/1526/306 427/1527/306
f 409/1528/306 408/1529/306 427/1530/306
f 410/1531/306 409/1532/306 427/1533/306
f 411/1534/306 410/1535/306 427/1536/306
f 412/1537/306 411/1538/306 427/1539/306
f 413/1540/306 412/1541/306 427/1542/306
f 414/1543/306 413/1544/306 427/1545/306
f 403/1546/306 414/1547/306 427/1548/306
f 428/1549/307 415/1550/307 416/1551/307
f 428/1552/307 416/1553/307 417/1554/307
f 428/1555/307 417/1556/307 418/1557/307
f 428/1558/307 418/1559/307 419/1560/307
f 428/1561/307 419/1562/307 420/1563/307
f 428/1564/307 420/1565/307 421/1566/307
f 428/1567/307 421/1568/307 422/1569/307
f 428/1570/307 422/1571/307 423/1572/307
f 428/1573/307 423/1574/307 424/1575/307
f 428/1576/307 424/1577/307 425/1578/307
f 428/1579/307 425/1580/307 426/1581/307
f 428/1582/307 426/1583/307 415/1584/307
o plug_pin_tip
usemtl strip
v 0.502028 0.489144 0.4715
v 0.501485 0.490085 0.4715
v 0.500544 0.490628 0.4715
v 0.499456 0.490628 0.4715
v 0.498515 0.490085 0.4715
v 0.497972 0.489144 0.4715
v 0.497972 0.488056 0.4715
v 0.498515 0.487115 0.4715
v 0.499456 0.486572 0.4715
v 0.500544 0.486572 0.4715
v 0.501485 0.487115 0.4715
v 0.502028 0.488056 0.4715
v 0.503477 0.489532 0.4745
v 0.502546 0.491146 0.4745
v 0.500932 0.492077 0.4745
v 0.499068 0.492077 0.4745
v 0.497454 0.491146 0.4745
v 0.496523 0.489532 0.4745
v 0.496523 0.487668 0.4745
v 0.497454 0.486054 0.4745
v 0.499068 0.485123 0.4745
v 0.500932 0.485123 0.4745
v 0.502546 0.486054 0.4745
v 0.503477 0.487668 0.4745
v 0.5 0.4886 0.4715
v 0.5 0.4886 0.4745
vt 0.577148 0.09429
vt 0.577148 0.093067
vt 0.580896 0.09263
vt 0.580896 0.094727
vt 0.426758 0.09429
vt 0.426758 0.093067
vt 0.430506 0.09263
vt 0.430506 0.094727
vt 0.342773 0.09429
vt 0.342773 0.093067
vt 0.346521 0.09263
vt 0.346521 0.094727
vt 0.446289 0.09429
vt 0.446289 0.093067
vt 0.450037 0.09263
vt 0.450037 0.094727
vt 0.118164 0.09429
vt 0.118164 0.093067
vt 0.121912 0.09263
vt 0.121912 0.094727
vt 0.12793 0.09429
vt 0.12793 0.093067
vt 0.131678 0.09263
vt 0.131678 0.094727
vt 0.633789 0.09429
vt 0.633789 0.093067
vt 0.637537 0.09263
vt 0.637537 0.094727
vt 0.493164 0.09429
vt 0.493164 0.093067
vt 0.496912 0.09263
vt 0.496912 0.094727
vt 0.18457 0.09429
vt 0.18457 0.093067
vt 0.188318 0.09263
vt 0.188318 0.094727
vt 0.436523 0.09429
vt 0.436523 0.093067
vt 0.440271 0.09263
vt 0.440271 0.094727
vt 0.586914 0.09429
vt 0.586914 0.093067
vt 0.590662 0.09263
vt 0.590662 0.094727
vt 0.141443 0.09263
vt 0.141443 0.094727
vt 0.137695 0.09429
vt 0.137695 0.093067
vt 0.409226 0.207396
vt 0.408167 0.208008
vt 0.407555 0.205726
vt 0.409837 0.206337
vt 0.409226 0.207396
vt 0.407555 0.205726
vt 0.409837 0.205114
vt 0.409837 0.206337
vt 0.407555 0.205726
vt 0.409226 0.204055
vt 0.409837 0.205114
vt 0.407555 0.205726
vt 0.408167 0.203444
vt 0.409226 0.204055
vt 0.407555 0.205726
vt 0.406944 0.203444
vt 0.408167 0.203444
vt 0.407555 0.205726
vt 0.405885 0.204055
vt 0.406944 0.203444
vt 0.407555 0.205726
vt 0.405273 0.205114
vt 0.405885 0.204055
vt 0.407555 0.205726
vt 0.405273 0.206337
vt 0.405273 0.205114
vt 0.407555 0.205726
vt 0.405885 0.207396
vt 0.405273 0.206337
vt 0.407555 0.205726
vt 0.406944 0.208008
vt 0.405885 0.207396
vt 0.407555 0.205726
vt 0.408167 0.208008
vt 0.406944 0.208008
vt 0.407555 0.205726
vt 0.665045 0.235346
vt 0.666093 0.231434
vt 0.667909 0.232482
vt 0.665045 0.235346
vt 0.667909 0.232482
vt 0.668957 0.234298
vt 0.665045 0.235346
vt 0.668957 0.234298
vt 0.668957 0.236394
vt 0.665045 0.235346
vt 0.668957 0.236394
vt 0.667909 0.23821
vt 0.665045 0.235346
vt 0.667909 0.23821
vt 0.666093 0.239258
vt 0.665045 0.235346
vt 0.666093 0.239258
vt 0.663997 0.239258
vt 0.665045 0.235346
vt 0.663997 0.239258
vt 0.662181 0.23821
vt 0.665045 0.235346
vt 0.662181 0.23821
vt 0.661133 0.236394
vt 0.665045 0.235346
vt 0.661133 0.236394
vt 0.661133 0.234298
vt 0.665045 0.235346
vt 0.661133 0.234298
vt 0.662181 0.232482
vt 0.665045 0.235346
vt 0.662181 0.232482
vt 0.663997 0.231434
vt 0.665045 0.235346
vt 0.663997 0.231434
vt 0.666093 0.231434
vn 0.779838 0.45024 -0.434898
vn 0.632456 0.632456 -0.447214
vn 0.231495 0.86395 -0.447214
vn -0.231495 0.86395 -0.447214
vn -0.632456 0.632456 -0.447214
vn -0.86395 0.231495 -0.447214
vn -0.86395 -0.231495 -0.447214
vn -0.632456 -0.632456 -0.447214
vn -0.231495 -0.86395 -0.447214
vn 0.231495 -0.86395 -0.447214
vn 0.632456 -0.632456 -0.447214
vn 0.779838 -0.45024 -0.434898
vn -0.90048 0 0.434898
vn 0 0 -1
vn 0 0 1
f 429/1585/308 430/1586/309 442/1587/309 441/1588/308
f 430/1589/309 431/1590/310 443/1591/310 442/1592/309
f 431/1593/310 432/1594/311 444/1595/311 443/1596/310
f 432/1597/311 433/1598/312 445/1599/312 444/1600/311
f 433/1601/312 434/1602/313 446/1603/313 445/1604/312
f 434/1605/313 435/1606/314 447/1607/314 446/1608/313
f 435/1609/314 436/1610/315 448/1611/315 447/1612/314
f 436/1613/315 437/1614/316 449/1615/316 448/1616/315
f 437/1617/316 438/1618/317 450/1619/317 449/1620/316
f 438/1621/317 439/1622/318 451/1623/318 450/1624/317
f 439/1625/318 440/1626/319 452/1627/319 451/1628/318
f 452/1629/320 441/1630/320 429/1631/320 440/1632/320
f 430/1633/321 429/1634/321 453/1635/321
f 431/1636/321 430/1637/321 453/1638/321
f 432/1639/321 431/1640/321 453/1641/321
f 433/1642/321 432/1643/321 453/1644/321
f 434/1645/321 433/1646/321 453/1647/321
f 435/1648/321 434/1649/321 453/1650/321
f 436/1651/321 435/1652/321 453/1653/321
f 437/1654/321 436/1655/321 453/1656/321
f 438/1657/321 437/1658/321 453/1659/321
f 439/1660/321 438/1661/321 453/1662/321
f 440/1663/321 439/1664/321 453/1665/321
f 429/1666/321 440/1667/321 453/1668/321
f 454/1669/322 441/1670/322 442/1671/322
f 454/1672/322 442/1673/322 443/1674/322
f 454/1675/322 443/1676/322 444/1677/322
f 454/1678/322 444/1679/322 445/1680/322
f 454/1681/322 445/1682/322 446/1683/322
f 454/1684/322 446/1685/322 447/1686/322
f 454/1687/322 447/1688/322 448/1689/322
f 454/1690/322 448/1691/322 449/1692/322
f 454/1693/322 449/1694/322 450/1695/322
f 454/1696/322 450/1697/322 451/1698/322
f 454/1699/322 451/1700/322 452/1701/322
f 454/1702/322 452/1703/322 441/1704/322
