# AFL Restroom Fixtures V2 wall mirror, generated by tools/build-restroom-fixtures-v2.mjs
mtllib wall_mirror.mtl
o frame
usemtl mirror
v 0.274 0.0035 0.98
v 0.726 0.0035 0.98
v 0.726 0.7595 0.98
v 0.274 0.7595 0.98
v 0.2715 0.001 0.9825
v 0.7285 0.001 0.9825
v 0.7285 0.762 0.9825
v 0.2715 0.762 0.9825
v 0.2715 0.001 0.9971
v 0.7285 0.001 0.9971
v 0.7285 0.762 0.9971
v 0.2715 0.762 0.9971
v 0.274 0.0035 0.9996
v 0.726 0.0035 0.9996
v 0.726 0.7595 0.9996
v 0.274 0.7595 0.9996
v 0.285 0.7485 0.98
v 0.715 0.7485 0.98
v 0.715 0.0145 0.98
v 0.285 0.0145 0.98
v 0.2875 0.746 0.9825
v 0.7125 0.746 0.9825
v 0.7125 0.017 0.9825
v 0.2875 0.017 0.9825
v 0.2875 0.746 0.9971
v 0.7125 0.746 0.9971
v 0.7125 0.017 0.9971
v 0.2875 0.017 0.9971
v 0.285 0.7485 0.9996
v 0.715 0.7485 0.9996
v 0.715 0.0145 0.9996
v 0.285 0.0145 0.9996
v 0.274 0.0035 0.98
v 0.726 0.0035 0.98
v 0.726 0.7595 0.98
v 0.274 0.7595 0.98
v 0.285 0.7485 0.98
v 0.715 0.7485 0.98
v 0.715 0.0145 0.98
v 0.285 0.0145 0.98
v 0.274 0.0035 0.9996
v 0.726 0.0035 0.9996
v 0.726 0.7595 0.9996
v 0.274 0.7595 0.9996
v 0.285 0.7485 0.9996
v 0.715 0.7485 0.9996
v 0.715 0.0145 0.9996
v 0.285 0.0145 0.9996
vt 0.011328 0.198962
vt 0.293828 0.198962
vt 0.295391 0.201172
vt 0.009766 0.201172
vt 0.011328 0.230212
vt 0.483828 0.230212
vt 0.485391 0.232422
vt 0.009766 0.232422
vt 0.011328 0.167712
vt 0.293828 0.167712
vt 0.295391 0.169922
vt 0.009766 0.169922
vt 0.011328 0.277087
vt 0.483828 0.277087
vt 0.485391 0.279297
vt 0.009766 0.279297
vt 0.009766 0.356109
vt 0.295391 0.356109
vt 0.295391 0.365234
vt 0.009766 0.365234
vt 0.009766 0.402984
vt 0.485391 0.402984
vt 0.485391 0.412109
vt 0.009766 0.412109
vt 0.310547 0.356109
vt 0.596172 0.356109
vt 0.596172 0.365234
vt 0.310547 0.365234
vt 0.498047 0.402984
vt 0.973672 0.402984
vt 0.973672 0.412109
vt 0.498047 0.412109
vt 0.310547 0.198962
vt 0.596172 0.198962
vt 0.594609 0.201172
vt 0.312109 0.201172
vt 0.009766 0.261462
vt 0.485391 0.261462
vt 0.483828 0.263672
vt 0.011328 0.263672
vt 0.482422 0.214587
vt 0.768047 0.214587
vt 0.766484 0.216797
vt 0.483984 0.216797
vt 0.498047 0.277087
vt 0.973672 0.277087
vt 0.972109 0.279297
vt 0.499609 0.279297
vt 0.291016 0.296618
vt 0.559766 0.296618
vt 0.558203 0.298828
vt 0.292578 0.298828
vt 0.498047 0.230212
vt 0.956797 0.230212
vt 0.955234 0.232422
vt 0.499609 0.232422
vt 0.498047 0.261462
vt 0.766797 0.261462
vt 0.765234 0.263672
vt 0.499609 0.263672
vt 0.009766 0.214587
vt 0.468516 0.214587
vt 0.466953 0.216797
vt 0.011328 0.216797
vt 0.611328 0.356109
vt 0.876953 0.356109
vt 0.876953 0.365234
vt 0.611328 0.365234
vt 0.009766 0.379547
vt 0.465391 0.379547
vt 0.465391 0.388672
vt 0.009766 0.388672
vt 0.009766 0.332672
vt 0.275391 0.332672
vt 0.275391 0.341797
vt 0.009766 0.341797
vt 0.478516 0.379547
vt 0.934141 0.379547
vt 0.934141 0.388672
vt 0.478516 0.388672
vt 0.292578 0.245837
vt 0.558203 0.245837
vt 0.559766 0.248047
vt 0.291016 0.248047
vt 0.011328 0.183337
vt 0.466953 0.183337
vt 0.468516 0.185547
vt 0.009766 0.185547
vt 0.011328 0.245837
vt 0.276953 0.245837
vt 0.278516 0.248047
vt 0.009766 0.248047
vt 0.483984 0.183337
vt 0.939609 0.183337
vt 0.941172 0.185547
vt 0.482422 0.185547
vt 0.475391 0.983359
vt 0.482266 0.990234
vt 0.009766 0.990234
vt 0.016641 0.983359
vt 0.475391 0.983359
vt 0.009766 0.990234
vt 0.016641 0.983359
vt 0.009766 0.990234
vt 0.009766 0.707734
vt 0.016641 0.714609
vt 0.016641 0.983359
vt 0.009766 0.707734
vt 0.016641 0.714609
vt 0.009766 0.707734
vt 0.482266 0.707734
vt 0.475391 0.714609
vt 0.016641 0.714609
vt 0.482266 0.707734
vt 0.475391 0.983359
vt 0.475391 0.714609
vt 0.482266 0.707734
vt 0.482266 0.707734
vt 0.482266 0.990234
vt 0.475391 0.983359
vt 0.494141 0.707734
vt 0.966641 0.707734
vt 0.959766 0.714609
vt 0.494141 0.707734
vt 0.959766 0.714609
vt 0.501016 0.714609
vt 0.494141 0.990234
vt 0.494141 0.707734
vt 0.501016 0.714609
vt 0.494141 0.990234
vt 0.501016 0.714609
vt 0.501016 0.983359
vt 0.966641 0.990234
vt 0.494141 0.990234
vt 0.501016 0.983359
vt 0.966641 0.990234
vt 0.501016 0.983359
vt 0.959766 0.983359
vt 0.966641 0.990234
vt 0.959766 0.983359
vt 0.959766 0.714609
vt 0.959766 0.714609
vt 0.966641 0.707734
vt 0.966641 0.990234
vn 0 -0.707107 -0.707107
vn 0.707107 0 -0.707107
vn 0 0.707107 -0.707107
vn -0.707107 0 -0.707107
vn 0 -1 0
vn 1 0 0
vn 0 1 0
vn -1 0 0
vn 0 -0.707107 0.707107
vn 0.707107 0 0.707107
vn 0 0.707107 0.707107
vn -0.707107 0 0.707107
vn 0 0 -1
vn 0 0 1
f 1/1/1 2/2/1 6/3/1 5/4/1
f 2/5/2 3/6/2 7/7/2 6/8/2
f 3/9/3 4/10/3 8/11/3 7/12/3
f 4/13/4 1/14/4 5/15/4 8/16/4
f 5/17/5 6/18/5 10/19/5 9/20/5
f 6/21/6 7/22/6 11/23/6 10/24/6
f 7/25/7 8/26/7 12/27/7 11/28/7
f 8/29/8 5/30/8 9/31/8 12/32/8
f 9/33/9 10/34/9 14/35/9 13/36/9
f 10/37/10 11/38/10 15/39/10 14/40/10
f 11/41/11 12/42/11 16/43/11 15/44/11
f 12/45/12 9/46/12 13/47/12 16/48/12
f 17/49/1 18/50/1 22/51/1 21/52/1
f 18/53/4 19/54/4 23/55/4 22/56/4
f 19/57/3 20/58/3 24/59/3 23/60/3
f 20/61/2 17/62/2 21/63/2 24/64/2
f 21/65/5 22/66/5 26/67/5 25/68/5
f 22/69/8 23/70/8 27/71/8 26/72/8
f 23/73/7 24/74/7 28/75/7 27/76/7
f 24/77/6 21/78/6 25/79/6 28/80/6
f 25/81/9 26/82/9 30/83/9 29/84/9
f 26/85/12 27/86/12 31/87/12 30/88/12
f 27/89/11 28/90/11 32/91/11 31/92/11
f 28/93/10 25/94/10 29/95/10 32/96/10
f 38/97/13 35/98/13 34/99/13
f 39/100/13 38/101/13 34/102/13
f 39/103/13 34/104/13 33/105/13
f 40/106/13 39/107/13 33/108/13
f 40/109/13 33/110/13 36/111/13
f 37/112/13 40/113/13 36/114/13
f 38/115/13 37/116/13 36/117/13
f 36/118/13 35/119/13 38/120/13
f 42/121/14 43/122/14 46/123/14
f 42/124/14 46/125/14 47/126/14
f 41/127/14 42/128/14 47/129/14
f 41/130/14 47/131/14 48/132/14
f 44/133/14 41/134/14 48/135/14
f 44/136/14 48/137/14 45/138/14
f 44/139/14 45/140/14 46/141/14
f 46/142/14 43/143/14 44/144/14
o glass
usemtl mirror
v 0.2865 0.016 0.985
v 0.7135 0.016 0.985
v 0.7135 0.747 0.985
v 0.2865 0.747 0.985
v 0.2865 0.016 0.9966
v 0.7135 0.016 0.9966
v 0.7135 0.747 0.9966
v 0.2865 0.747 0.9966
v 0.2865 0.016 0.985
v 0.7135 0.016 0.985
v 0.7135 0.747 0.985
v 0.2865 0.747 0.985
v 0.2865 0.016 0.9966
v 0.7135 0.016 0.9966
v 0.7135 0.747 0.9966
v 0.2865 0.747 0.9966
vt 0.478516 0.311109
vt 0.745391 0.311109
vt 0.745391 0.318359
vt 0.478516 0.318359
vt 0.287109 0.334547
vt 0.743984 0.334547
vt 0.743984 0.341797
vt 0.287109 0.341797
vt 0.009766 0.291578
vt 0.276641 0.291578
vt 0.276641 0.298828
vt 0.009766 0.298828
vt 0.009766 0.311109
vt 0.466641 0.311109
vt 0.466641 0.318359
vt 0.009766 0.318359
vt 0.009766 0.693359
vt 0.009766 0.426484
vt 0.466641 0.426484
vt 0.466641 0.426484
vt 0.466641 0.693359
vt 0.009766 0.693359
vt 0.935391 0.693359
vt 0.478516 0.693359
vt 0.478516 0.426484
vt 0.478516 0.426484
vt 0.935391 0.426484
vt 0.935391 0.693359
vn 0 -1 0
vn 1 0 0
vn 0 1 0
vn -1 0 0
vn 0 0 -1
vn 0 0 1
f 49/145/15 50/146/15 54/147/15 53/148/15
f 50/149/16 51/150/16 55/151/16 54/152/16
f 51/153/17 52/154/17 56/155/17 55/156/17
f 52/157/18 49/158/18 53/159/18 56/160/18
f 58/161/19 57/162/19 60/163/19
f 60/164/19 59/165/19 58/166/19
f 64/167/20 61/168/20 62/169/20
f 62/170/20 63/171/20 64/172/20
