# AFL Building Lights V1 emergency light (on), generated by tools/build-building-lights-v1.mjs
mtllib on.mtl
o body
usemtl emergency
v 0.719 0.50921 0.8918
v 0.717611 0.514394 0.8918
v 0.714394 0.517611 0.8918
v 0.70921 0.519 0.8918
v 0.29079 0.519 0.8918
v 0.285606 0.517611 0.8918
v 0.282389 0.514394 0.8918
v 0.281 0.50921 0.8918
v 0.281 0.39079 0.8918
v 0.282389 0.385606 0.8918
v 0.285606 0.382389 0.8918
v 0.29079 0.381 0.8918
v 0.70921 0.381 0.8918
v 0.714394 0.382389 0.8918
v 0.717611 0.385606 0.8918
v 0.719 0.39079 0.8918
v 0.725 0.51 0.8978
v 0.72299 0.5175 0.8978
v 0.7175 0.52299 0.8978
v 0.71 0.525 0.8978
v 0.29 0.525 0.8978
v 0.2825 0.52299 0.8978
v 0.27701 0.5175 0.8978
v 0.275 0.51 0.8978
v 0.275 0.39 0.8978
v 0.27701 0.3825 0.8978
v 0.2825 0.37701 0.8978
v 0.29 0.375 0.8978
v 0.71 0.375 0.8978
v 0.7175 0.37701 0.8978
v 0.72299 0.3825 0.8978
v 0.725 0.39 0.8978
v 0.725 0.51 0.9938
v 0.72299 0.5175 0.9938
v 0.7175 0.52299 0.9938
v 0.71 0.525 0.9938
v 0.29 0.525 0.9938
v 0.2825 0.52299 0.9938
v 0.27701 0.5175 0.9938
v 0.275 0.51 0.9938
v 0.275 0.39 0.9938
v 0.27701 0.3825 0.9938
v 0.2825 0.37701 0.9938
v 0.29 0.375 0.9938
v 0.71 0.375 0.9938
v 0.7175 0.37701 0.9938
v 0.72299 0.3825 0.9938
v 0.725 0.39 0.9938
v 0.719 0.50921 0.9998
v 0.717611 0.514394 0.9998
v 0.714394 0.517611 0.9998
v 0.70921 0.519 0.9998
v 0.29079 0.519 0.9998
v 0.285606 0.517611 0.9998
v 0.282389 0.514394 0.9998
v 0.281 0.50921 0.9998
v 0.281 0.39079 0.9998
v 0.282389 0.385606 0.9998
v 0.285606 0.382389 0.9998
v 0.29079 0.381 0.9998
v 0.70921 0.381 0.9998
v 0.714394 0.382389 0.9998
v 0.717611 0.385606 0.9998
v 0.719 0.39079 0.9998
v 0.719 0.50921 0.8918
v 0.717611 0.514394 0.8918
v 0.714394 0.517611 0.8918
v 0.70921 0.519 0.8918
v 0.29079 0.519 0.8918
v 0.285606 0.517611 0.8918
v 0.282389 0.514394 0.8918
v 0.281 0.50921 0.8918
v 0.281 0.39079 0.8918
v 0.282389 0.385606 0.8918
v 0.285606 0.382389 0.8918
v 0.29079 0.381 0.8918
v 0.70921 0.381 0.8918
v 0.714394 0.382389 0.8918
v 0.717611 0.385606 0.8918
v 0.719 0.39079 0.8918
v 0.719 0.50921 0.9998
v 0.717611 0.514394 0.9998
v 0.714394 0.517611 0.9998
v 0.70921 0.519 0.9998
v 0.29079 0.519 0.9998
v 0.285606 0.517611 0.9998
v 0.282389 0.514394 0.9998
v 0.281 0.50921 0.9998
v 0.281 0.39079 0.9998
v 0.282389 0.385606 0.9998
v 0.285606 0.382389 0.9998
v 0.29079 0.381 0.9998
v 0.70921 0.381 0.9998
v 0.714394 0.382389 0.9998
v 0.717611 0.385606 0.9998
v 0.719 0.39079 0.9998
vt 0.788707 0.200196
vt 0.794194 0.199683
vt 0.796646 0.208242
vt 0.788707 0.208984
vt 0.376953 0.094045
vt 0.376953 0.089354
vt 0.385704 0.087696
vt 0.385704 0.095703
vt 0.012217 0.375464
vt 0.017704 0.375977
vt 0.017704 0.384766
vt 0.009766 0.384023
vt 0.017704 0.375977
vt 0.445509 0.335981
vt 0.447124 0.344619
vt 0.017704 0.384766
vt 0.033203 0.071451
vt 0.033203 0.065916
vt 0.041954 0.064258
vt 0.041954 0.072266
vt 0.146484 0.094045
vt 0.146484 0.089354
vt 0.155235 0.087696
vt 0.155235 0.095703
vt 0.379405 0.199683
vt 0.384892 0.200196
vt 0.384892 0.208984
vt 0.376953 0.208242
vt 0.384892 0.200196
vt 0.505968 0.188877
vt 0.507583 0.197514
vt 0.384892 0.208984
vt 0.169922 0.094889
vt 0.169922 0.089354
vt 0.178672 0.087696
vt 0.178672 0.095703
vt 0.876953 0.094045
vt 0.876953 0.089354
vt 0.885704 0.087696
vt 0.885704 0.095703
vt 0.461436 0.437964
vt 0.466923 0.438477
vt 0.466923 0.447266
vt 0.458984 0.446523
vt 0.466923 0.438477
vt 0.894727 0.398481
vt 0.896343 0.407119
vt 0.466923 0.447266
vt 0.009766 0.071451
vt 0.009766 0.065916
vt 0.018516 0.064258
vt 0.018516 0.072266
vt 0.970703 0.094045
vt 0.970703 0.089354
vt 0.979454 0.087696
vt 0.979454 0.095703
vt 0.193359 0.094045
vt 0.193359 0.088511
vt 0.20211 0.087696
vt 0.20211 0.095703
vt 0.667631 0.188877
vt 0.788707 0.200196
vt 0.788707 0.208984
vt 0.666016 0.197514
vt 0.533203 0.072266
vt 0.533203 0.064258
vt 0.632203 0.064258
vt 0.632203 0.072266
vt 0.423828 0.095703
vt 0.423828 0.087696
vt 0.522828 0.087696
vt 0.522828 0.095703
vt 0.263672 0.095703
vt 0.263672 0.087696
vt 0.362672 0.087696
vt 0.362672 0.095703
vt 0.009766 0.734984
vt 0.442891 0.734984
vt 0.442891 0.833984
vt 0.009766 0.833984
vt 0.537109 0.095703
vt 0.537109 0.087696
vt 0.636109 0.087696
vt 0.636109 0.095703
vt 0.033203 0.095703
vt 0.033203 0.087696
vt 0.132203 0.087696
vt 0.132203 0.095703
vt 0.646484 0.072266
vt 0.646484 0.064258
vt 0.745484 0.064258
vt 0.745484 0.072266
vt 0.009766 0.621703
vt 0.133516 0.621703
vt 0.133516 0.720703
vt 0.009766 0.720703
vt 0.056641 0.072266
vt 0.056641 0.064258
vt 0.155641 0.064258
vt 0.155641 0.072266
vt 0.650391 0.095703
vt 0.650391 0.087696
vt 0.749391 0.087696
vt 0.749391 0.095703
vt 0.169922 0.072266
vt 0.169922 0.064258
vt 0.268922 0.064258
vt 0.268922 0.072266
vt 0.455078 0.734984
vt 0.888203 0.734984
vt 0.888203 0.833984
vt 0.455078 0.833984
vt 0.283203 0.072266
vt 0.283203 0.064258
vt 0.382203 0.064258
vt 0.382203 0.072266
vt 0.763672 0.095703
vt 0.763672 0.087696
vt 0.862672 0.087696
vt 0.862672 0.095703
vt 0.396484 0.072266
vt 0.396484 0.064258
vt 0.495484 0.064258
vt 0.495484 0.072266
vt 0.146484 0.621703
vt 0.270234 0.621703
vt 0.270234 0.720703
vt 0.146484 0.720703
vt 0.644176 0.188877
vt 0.652114 0.189619
vt 0.649663 0.198178
vt 0.644176 0.197665
vt 0.400391 0.095703
vt 0.400391 0.087696
vt 0.409141 0.089354
vt 0.409141 0.094045
vt 0.009766 0.399224
vt 0.017704 0.398481
vt 0.017704 0.40727
vt 0.012217 0.407783
vt 0.017704 0.398481
vt 0.447124 0.438628
vt 0.445509 0.447266
vt 0.017704 0.40727
vt 0.900391 0.095703
vt 0.900391 0.087696
vt 0.909141 0.089354
vt 0.909141 0.094889
vt 0.009766 0.095703
vt 0.009766 0.087696
vt 0.018516 0.089354
vt 0.018516 0.094045
vt 0.232422 0.189619
vt 0.240361 0.188877
vt 0.240361 0.197665
vt 0.234873 0.198178
vt 0.240361 0.188877
vt 0.363052 0.200347
vt 0.361437 0.208984
vt 0.240361 0.197665
vt 0.216797 0.095703
vt 0.216797 0.087696
vt 0.225547 0.089354
vt 0.225547 0.094889
vt 0.509766 0.072266
vt 0.509766 0.064258
vt 0.518516 0.065916
vt 0.518516 0.070608
vt 0.478516 0.46563
vt 0.486454 0.464888
vt 0.486454 0.473676
vt 0.480967 0.474189
vt 0.486454 0.464888
vt 0.915874 0.505035
vt 0.914259 0.513672
vt 0.486454 0.473676
vt 0.923828 0.095703
vt 0.923828 0.087696
vt 0.932579 0.089354
vt 0.932579 0.094889
vt 0.947266 0.095703
vt 0.947266 0.087696
vt 0.956016 0.089354
vt 0.956016 0.094045
vt 0.240234 0.095703
vt 0.240234 0.087696
vt 0.248985 0.088511
vt 0.248985 0.094045
vt 0.521484 0.200347
vt 0.644176 0.188877
vt 0.644176 0.197665
vt 0.5231 0.208984
vt 0.011198 0.985485
vt 0.009766 0.980139
vt 0.009766 0.858018
vt 0.014515 0.988802
vt 0.011198 0.985485
vt 0.009766 0.858018
vt 0.019861 0.990234
vt 0.014515 0.988802
vt 0.009766 0.858018
vt 0.451357 0.990234
vt 0.019861 0.990234
vt 0.009766 0.858018
vt 0.456703 0.988802
vt 0.451357 0.990234
vt 0.009766 0.858018
vt 0.460021 0.985485
vt 0.456703 0.988802
vt 0.009766 0.858018
vt 0.461453 0.980139
vt 0.460021 0.985485
vt 0.009766 0.858018
vt 0.461453 0.858018
vt 0.461453 0.980139
vt 0.009766 0.858018
vt 0.460021 0.852672
vt 0.461453 0.858018
vt 0.009766 0.858018
vt 0.456703 0.849354
vt 0.460021 0.852672
vt 0.009766 0.858018
vt 0.451357 0.847922
vt 0.456703 0.849354
vt 0.009766 0.858018
vt 0.019861 0.847922
vt 0.451357 0.847922
vt 0.009766 0.858018
vt 0.014515 0.849354
vt 0.019861 0.847922
vt 0.009766 0.858018
vt 0.009766 0.858018
vt 0.011198 0.852672
vt 0.014515 0.849354
vt 0.926297 0.858018
vt 0.926297 0.980139
vt 0.924864 0.985485
vt 0.926297 0.858018
vt 0.924864 0.985485
vt 0.921547 0.988802
vt 0.926297 0.858018
vt 0.921547 0.988802
vt 0.916201 0.990234
vt 0.926297 0.858018
vt 0.916201 0.990234
vt 0.484705 0.990234
vt 0.926297 0.858018
vt 0.484705 0.990234
vt 0.479359 0.988802
vt 0.926297 0.858018
vt 0.479359 0.988802
vt 0.476042 0.985485
vt 0.926297 0.858018
vt 0.476042 0.985485
vt 0.474609 0.980139
vt 0.926297 0.858018
vt 0.474609 0.980139
vt 0.474609 0.858018
vt 0.926297 0.858018
vt 0.474609 0.858018
vt 0.476042 0.852672
vt 0.926297 0.858018
vt 0.476042 0.852672
vt 0.479359 0.849354
vt 0.926297 0.858018
vt 0.479359 0.849354
vt 0.484705 0.847922
vt 0.926297 0.858018
vt 0.484705 0.847922
vt 0.916201 0.847922
vt 0.926297 0.858018
vt 0.916201 0.847922
vt 0.921547 0.849354
vt 0.921547 0.849354
vt 0.924864 0.852672
vt 0.926297 0.858018
vn 0.706445 0.009562 -0.707704
vn 0.604649 0.342186 -0.719242
vn 0.342186 0.604649 -0.719242
vn 0.002823 0.706918 -0.70729
vn -0.002823 0.706918 -0.70729
vn -0.342186 0.604649 -0.719242
vn -0.604649 0.342186 -0.719242
vn -0.706445 0.009562 -0.707704
vn -0.706445 -0.009562 -0.707704
vn -0.604649 -0.342186 -0.719242
vn -0.342186 -0.604649 -0.719242
vn -0.002823 -0.706918 -0.70729
vn 0.002823 -0.706918 -0.70729
vn 0.342186 -0.604649 -0.719242
vn 0.604649 -0.342186 -0.719242
vn 0.706445 -0.009562 -0.707704
vn 0.999876 0.01576 0
vn 0.866025 0.5 0
vn 0.5 0.866025 0
vn 0.004701 0.999989 0
vn -0.004701 0.999989 0
vn -0.5 0.866025 0
vn -0.866025 0.5 0
vn -0.999876 0.01576 0
vn -0.999876 -0.01576 0
vn -0.866025 -0.5 0
vn -0.5 -0.866025 0
vn -0.004701 -0.999989 0
vn 0.004701 -0.999989 0
vn 0.5 -0.866025 0
vn 0.866025 -0.5 0
vn 0.999876 -0.01576 0
vn 0.706445 0.009562 0.707704
vn 0.604649 0.342186 0.719242
vn 0.342186 0.604649 0.719242
vn 0.002823 0.706918 0.70729
vn -0.002823 0.706918 0.70729
vn -0.342186 0.604649 0.719242
vn -0.604649 0.342186 0.719242
vn -0.706445 0.009562 0.707704
vn -0.706445 -0.009562 0.707704
vn -0.604649 -0.342186 0.719242
vn -0.342186 -0.604649 0.719242
vn -0.002823 -0.706918 0.70729
vn 0.002823 -0.706918 0.70729
vn 0.342186 -0.604649 0.719242
vn 0.604649 -0.342186 0.719242
vn 0.706445 -0.009562 0.707704
vn 0 0 -1
vn 0 0 1
f 1/1/1 2/2/2 18/3/2 17/4/1
f 2/5/2 3/6/3 19/7/3 18/8/2
f 3/9/3 4/10/4 20/11/4 19/12/3
f 4/13/4 5/14/5 21/15/5 20/16/4
f 5/17/5 6/18/6 22/19/6 21/20/5
f 6/21/6 7/22/7 23/23/7 22/24/6
f 7/25/7 8/26/8 24/27/8 23/28/7
f 8/29/8 9/30/9 25/31/9 24/32/8
f 9/33/9 10/34/10 26/35/10 25/36/9
f 10/37/10 11/38/11 27/39/11 26/40/10
f 11/41/11 12/42/12 28/43/12 27/44/11
f 12/45/12 13/46/13 29/47/13 28/48/12
f 13/49/13 14/50/14 30/51/14 29/52/13
f 14/53/14 15/54/15 31/55/15 30/56/14
f 15/57/15 16/58/16 32/59/16 31/60/15
f 16/61/16 1/62/1 17/63/1 32/64/16
f 17/65/17 18/66/18 34/67/18 33/68/17
f 18/69/18 19/70/19 35/71/19 34/72/18
f 19/73/19 20/74/20 36/75/20 35/76/19
f 20/77/20 21/78/21 37/79/21 36/80/20
f 21/81/21 22/82/22 38/83/22 37/84/21
f 22/85/22 23/86/23 39/87/23 38/88/22
f 23/89/23 24/90/24 40/91/24 39/92/23
f 24/93/24 25/94/25 41/95/25 40/96/24
f 25/97/25 26/98/26 42/99/26 41/100/25
f 26/101/26 27/102/27 43/103/27 42/104/26
f 27/105/27 28/106/28 44/107/28 43/108/27
f 28/109/28 29/110/29 45/111/29 44/112/28
f 29/113/29 30/114/30 46/115/30 45/116/29
f 30/117/30 31/118/31 47/119/31 46/120/30
f 31/121/31 32/122/32 48/123/32 47/124/31
f 32/125/32 17/126/17 33/127/17 48/128/32
f 33/129/33 34/130/34 50/131/34 49/132/33
f 34/133/34 35/134/35 51/135/35 50/136/34
f 35/137/35 36/138/36 52/139/36 51/140/35
f 36/141/36 37/142/37 53/143/37 52/144/36
f 37/145/37 38/146/38 54/147/38 53/148/37
f 38/149/38 39/150/39 55/151/39 54/152/38
f 39/153/39 40/154/40 56/155/40 55/156/39
f 40/157/40 41/158/41 57/159/41 56/160/40
f 41/161/41 42/162/42 58/163/42 57/164/41
f 42/165/42 43/166/43 59/167/43 58/168/42
f 43/169/43 44/170/44 60/171/44 59/172/43
f 44/173/44 45/174/45 61/175/45 60/176/44
f 45/177/45 46/178/46 62/179/46 61/180/45
f 46/181/46 47/182/47 63/183/47 62/184/46
f 47/185/47 48/186/48 64/187/48 63/188/47
f 48/189/48 33/190/33 49/191/33 64/192/48
f 66/193/49 65/194/49 80/195/49
f 67/196/49 66/197/49 80/198/49
f 68/199/49 67/200/49 80/201/49
f 69/202/49 68/203/49 80/204/49
f 70/205/49 69/206/49 80/207/49
f 71/208/49 70/209/49 80/210/49
f 72/211/49 71/212/49 80/213/49
f 73/214/49 72/215/49 80/216/49
f 74/217/49 73/218/49 80/219/49
f 75/220/49 74/221/49 80/222/49
f 76/223/49 75/224/49 80/225/49
f 77/226/49 76/227/49 80/228/49
f 78/229/49 77/230/49 80/231/49
f 80/232/49 79/233/49 78/234/49
f 96/235/50 81/236/50 82/237/50
f 96/238/50 82/239/50 83/240/50
f 96/241/50 83/242/50 84/243/50
f 96/244/50 84/245/50 85/246/50
f 96/247/50 85/248/50 86/249/50
f 96/250/50 86/251/50 87/252/50
f 96/253/50 87/254/50 88/255/50
f 96/256/50 88/257/50 89/258/50
f 96/259/50 89/260/50 90/261/50
f 96/262/50 90/263/50 91/264/50
f 96/265/50 91/266/50 92/267/50
f 96/268/50 92/269/50 93/270/50
f 96/271/50 93/272/50 94/273/50
f 94/274/50 95/275/50 96/276/50
o vent_0
usemtl emergency
v 0.6785 0.414 0.8912
v 0.6875 0.414 0.8912
v 0.6875 0.486 0.8912
v 0.6785 0.486 0.8912
v 0.6785 0.414 0.8922
v 0.6875 0.414 0.8922
v 0.6875 0.486 0.8922
v 0.6785 0.486 0.8922
v 0.6785 0.414 0.8912
v 0.6875 0.414 0.8912
v 0.6875 0.486 0.8912
v 0.6785 0.486 0.8912
v 0.6785 0.414 0.8922
v 0.6875 0.414 0.8922
v 0.6875 0.486 0.8922
v 0.6785 0.486 0.8922
vt 0.279297 0.012641
vt 0.288578 0.012641
vt 0.288578 0.013672
vt 0.279297 0.013672
vt 0.150391 0.028266
vt 0.224641 0.028266
vt 0.224641 0.029297
vt 0.150391 0.029297
vt 0.302734 0.012641
vt 0.312016 0.012641
vt 0.312016 0.013672
vt 0.302734 0.013672
vt 0.240234 0.028266
vt 0.314484 0.028266
vt 0.314484 0.029297
vt 0.240234 0.029297
vt 0.392578 0.142578
vt 0.392578 0.133297
vt 0.466828 0.133297
vt 0.466828 0.133297
vt 0.466828 0.142578
vt 0.392578 0.142578
vt 0.556672 0.142578
vt 0.482422 0.142578
vt 0.482422 0.133297
vt 0.482422 0.133297
vt 0.556672 0.133297
vt 0.556672 0.142578
vn 0 -1 0
vn 1 0 0
vn 0 1 0
vn -1 0 0
vn 0 0 -1
vn 0 0 1
f 97/277/51 98/278/51 102/279/51 101/280/51
f 98/281/52 99/282/52 103/283/52 102/284/52
f 99/285/53 100/286/53 104/287/53 103/288/53
f 100/289/54 97/290/54 101/291/54 104/292/54
f 106/293/55 105/294/55 108/295/55
f 108/296/55 107/297/55 106/298/55
f 112/299/56 109/300/56 110/301/56
f 110/302/56 111/303/56 112/304/56
o vent_1
usemtl emergency
v 0.659 0.414 0.8912
v 0.668 0.414 0.8912
v 0.668 0.486 0.8912
v 0.659 0.486 0.8912
v 0.659 0.414 0.8922
v 0.668 0.414 0.8922
v 0.668 0.486 0.8922
v 0.659 0.486 0.8922
v 0.659 0.414 0.8912
v 0.668 0.414 0.8912
v 0.668 0.486 0.8912
v 0.659 0.486 0.8912
v 0.659 0.414 0.8922
v 0.668 0.414 0.8922
v 0.668 0.486 0.8922
v 0.659 0.486 0.8922
vt 0.326172 0.012641
vt 0.335453 0.012641
vt 0.335453 0.013672
vt 0.326172 0.013672
vt 0.330078 0.028266
vt 0.404328 0.028266
vt 0.404328 0.029297
vt 0.330078 0.029297
vt 0.349609 0.012641
vt 0.358891 0.012641
vt 0.358891 0.013672
vt 0.349609 0.013672
vt 0.419922 0.028266
vt 0.494172 0.028266
vt 0.494172 0.029297
vt 0.419922 0.029297
vt 0.572266 0.142578
vt 0.572266 0.133297
vt 0.646516 0.133297
vt 0.646516 0.133297
vt 0.646516 0.142578
vt 0.572266 0.142578
vt 0.736359 0.142578
vt 0.662109 0.142578
vt 0.662109 0.133297
vt 0.662109 0.133297
vt 0.736359 0.133297
vt 0.736359 0.142578
vn 0 -1 0
vn 1 0 0
vn 0 1 0
vn -1 0 0
vn 0 0 -1
vn 0 0 1
f 113/305/57 114/306/57 118/307/57 117/308/57
f 114/309/58 115/310/58 119/311/58 118/312/58
f 115/313/59 116/314/59 120/315/59 119/316/59
f 116/317/60 113/318/60 117/319/60 120/320/60
f 122/321/61 121/322/61 124/323/61
f 124/324/61 123/325/61 122/326/61
f 128/327/62 125/328/62 126/329/62
f 126/330/62 127/331/62 128/332/62
o vent_2
usemtl emergency
v 0.6395 0.414 0.8912
v 0.6485 0.414 0.8912
v 0.6485 0.486 0.8912
v 0.6395 0.486 0.8912
v 0.6395 0.414 0.8922
v 0.6485 0.414 0.8922
v 0.6485 0.486 0.8922
v 0.6395 0.486 0.8922
v 0.6395 0.414 0.8912
v 0.6485 0.414 0.8912
v 0.6485 0.486 0.8912
v 0.6395 0.486 0.8912
v 0.6395 0.414 0.8922
v 0.6485 0.414 0.8922
v 0.6485 0.486 0.8922
v 0.6395 0.486 0.8922
vt 0.513672 0.012641
vt 0.522953 0.012641
vt 0.522953 0.013672
vt 0.513672 0.013672
vt 0.509766 0.028266
vt 0.584016 0.028266
vt 0.584016 0.029297
vt 0.509766 0.029297
vt 0.537109 0.012641
vt 0.546391 0.012641
vt 0.546391 0.013672
vt 0.537109 0.013672
vt 0.599609 0.028266
vt 0.673859 0.028266
vt 0.673859 0.029297
vt 0.599609 0.029297
vt 0.369141 0.119141
vt 0.369141 0.109859
vt 0.443391 0.109859
vt 0.443391 0.109859
vt 0.443391 0.119141
vt 0.369141 0.119141
vt 0.533234 0.119141
vt 0.458984 0.119141
vt 0.458984 0.109859
vt 0.458984 0.109859
vt 0.533234 0.109859
vt 0.533234 0.119141
vn 0 -1 0
vn 1 0 0
vn 0 1 0
vn -1 0 0
vn 0 0 -1
vn 0 0 1
f 129/333/63 130/334/63 134/335/63 133/336/63
f 130/337/64 131/338/64 135/339/64 134/340/64
f 131/341/65 132/342/65 136/343/65 135/344/65
f 132/345/66 129/346/66 133/347/66 136/348/66
f 138/349/67 137/350/67 140/351/67
f 140/352/67 139/353/67 138/354/67
f 144/355/68 141/356/68 142/357/68
f 142/358/68 143/359/68 144/360/68
o vent_3
usemtl emergency
v 0.62 0.414 0.8912
v 0.629 0.414 0.8912
v 0.629 0.486 0.8912
v 0.62 0.486 0.8912
v 0.62 0.414 0.8922
v 0.629 0.414 0.8922
v 0.629 0.486 0.8922
v 0.62 0.486 0.8922
v 0.62 0.414 0.8912
v 0.629 0.414 0.8912
v 0.629 0.486 0.8912
v 0.62 0.486 0.8912
v 0.62 0.414 0.8922
v 0.629 0.414 0.8922
v 0.629 0.486 0.8922
v 0.62 0.486 0.8922
vt 0.373047 0.012641
vt 0.382328 0.012641
vt 0.382328 0.013672
vt 0.373047 0.013672
vt 0.689453 0.028266
vt 0.763703 0.028266
vt 0.763703 0.029297
vt 0.689453 0.029297
vt 0.396484 0.012641
vt 0.405766 0.012641
vt 0.405766 0.013672
vt 0.396484 0.013672
vt 0.779297 0.028266
vt 0.853547 0.028266
vt 0.853547 0.029297
vt 0.779297 0.029297
vt 0.751953 0.142578
vt 0.751953 0.133297
vt 0.826203 0.133297
vt 0.826203 0.133297
vt 0.826203 0.142578
vt 0.751953 0.142578
vt 0.916047 0.142578
vt 0.841797 0.142578
vt 0.841797 0.133297
vt 0.841797 0.133297
vt 0.916047 0.133297
vt 0.916047 0.142578
vn 0 -1 0
vn 1 0 0
vn 0 1 0
vn -1 0 0
vn 0 0 -1
vn 0 0 1
f 145/361/69 146/362/69 150/363/69 149/364/69
f 146/365/70 147/366/70 151/367/70 150/368/70
f 147/369/71 148/370/71 152/371/71 151/372/71
f 148/373/72 145/374/72 149/375/72 152/376/72
f 154/377/73 153/378/73 156/379/73
f 156/380/73 155/381/73 154/382/73
f 160/383/74 157/384/74 158/385/74
f 158/386/74 159/387/74 160/388/74
o vent_4
usemtl emergency
v 0.6005 0.414 0.8912
v 0.6095 0.414 0.8912
v 0.6095 0.486 0.8912
v 0.6005 0.486 0.8912
v 0.6005 0.414 0.8922
v 0.6095 0.414 0.8922
v 0.6095 0.486 0.8922
v 0.6005 0.486 0.8922
v 0.6005 0.414 0.8912
v 0.6095 0.414 0.8912
v 0.6095 0.486 0.8912
v 0.6005 0.486 0.8912
v 0.6005 0.414 0.8922
v 0.6095 0.414 0.8922
v 0.6095 0.486 0.8922
v 0.6005 0.486 0.8922
vt 0.419922 0.012641
vt 0.429203 0.012641
vt 0.429203 0.013672
vt 0.419922 0.013672
vt 0.869141 0.028266
vt 0.943391 0.028266
vt 0.943391 0.029297
vt 0.869141 0.029297
vt 0.443359 0.012641
vt 0.452641 0.012641
vt 0.452641 0.013672
vt 0.443359 0.013672
vt 0.009766 0.012641
vt 0.084016 0.012641
vt 0.084016 0.013672
vt 0.009766 0.013672
vt 0.009766 0.119141
vt 0.009766 0.109859
vt 0.084016 0.109859
vt 0.084016 0.109859
vt 0.084016 0.119141
vt 0.009766 0.119141
vt 0.173859 0.119141
vt 0.099609 0.119141
vt 0.099609 0.109859
vt 0.099609 0.109859
vt 0.173859 0.109859
vt 0.173859 0.119141
vn 0 -1 0
vn 1 0 0
vn 0 1 0
vn -1 0 0
vn 0 0 -1
vn 0 0 1
f 161/389/75 162/390/75 166/391/75 165/392/75
f 162/393/76 163/394/76 167/395/76 166/396/76
f 163/397/77 164/398/77 168/399/77 167/400/77
f 164/401/78 161/402/78 165/403/78 168/404/78
f 170/405/79 169/406/79 172/407/79
f 172/408/79 171/409/79 170/410/79
f 176/411/80 173/412/80 174/413/80
f 174/414/80 175/415/80 176/416/80
o vent_5
usemtl emergency
v 0.581 0.414 0.8912
v 0.59 0.414 0.8912
v 0.59 0.486 0.8912
v 0.581 0.486 0.8912
v 0.581 0.414 0.8922
v 0.59 0.414 0.8922
v 0.59 0.486 0.8922
v 0.581 0.486 0.8922
v 0.581 0.414 0.8912
v 0.59 0.414 0.8912
v 0.59 0.486 0.8912
v 0.581 0.486 0.8912
v 0.581 0.414 0.8922
v 0.59 0.414 0.8922
v 0.59 0.486 0.8922
v 0.581 0.486 0.8922
vt 0.466797 0.012641
vt 0.476078 0.012641
vt 0.476078 0.013672
vt 0.466797 0.013672
vt 0.099609 0.012641
vt 0.173859 0.012641
vt 0.173859 0.013672
vt 0.099609 0.013672
vt 0.490234 0.012641
vt 0.499516 0.012641
vt 0.499516 0.013672
vt 0.490234 0.013672
vt 0.189453 0.012641
vt 0.263703 0.012641
vt 0.263703 0.013672
vt 0.189453 0.013672
vt 0.189453 0.119141
vt 0.189453 0.109859
vt 0.263703 0.109859
vt 0.263703 0.109859
vt 0.263703 0.119141
vt 0.189453 0.119141
vt 0.353547 0.119141
vt 0.279297 0.119141
vt 0.279297 0.109859
vt 0.279297 0.109859
vt 0.353547 0.109859
vt 0.353547 0.119141
vn 0 -1 0
vn 1 0 0
vn 0 1 0
vn -1 0 0
vn 0 0 -1
vn 0 0 1
f 177/417/81 178/418/81 182/419/81 181/420/81
f 178/421/82 179/422/82 183/423/82 182/424/82
f 179/425/83 180/426/83 184/427/83 183/428/83
f 180/429/84 177/430/84 181/431/84 184/432/84
f 186/433/85 185/434/85 188/435/85
f 188/436/85 187/437/85 186/438/85
f 192/439/86 189/440/86 190/441/86
f 190/442/86 191/443/86 192/444/86
o test
usemtl emergency
v 0.352798 0.434048 0.8873
v 0.35123 0.437833 0.8873
v 0.348333 0.44073 0.8873
v 0.344548 0.442298 0.8873
v 0.340452 0.442298 0.8873
v 0.336667 0.44073 0.8873
v 0.33377 0.437833 0.8873
v 0.332202 0.434048 0.8873
v 0.332202 0.429952 0.8873
v 0.33377 0.426167 0.8873
v 0.336667 0.42327 0.8873
v 0.340452 0.421702 0.8873
v 0.344548 0.421702 0.8873
v 0.348333 0.42327 0.8873
v 0.35123 0.426167 0.8873
v 0.352798 0.429952 0.8873
v 0.352798 0.434048 0.8928
v 0.35123 0.437833 0.8928
v 0.348333 0.44073 0.8928
v 0.344548 0.442298 0.8928
v 0.340452 0.442298 0.8928
v 0.336667 0.44073 0.8928
v 0.33377 0.437833 0.8928
v 0.332202 0.434048 0.8928
v 0.332202 0.429952 0.8928
v 0.33377 0.426167 0.8928
v 0.336667 0.42327 0.8928
v 0.340452 0.421702 0.8928
v 0.344548 0.421702 0.8928
v 0.348333 0.42327 0.8928
v 0.35123 0.426167 0.8928
v 0.352798 0.429952 0.8928
v 0.3425 0.432 0.8873
v 0.3425 0.432 0.8928
vt 0.443359 0.048828
vt 0.443359 0.044603
vt 0.449031 0.044603
vt 0.449031 0.048828
vt 0.228516 0.048828
vt 0.228516 0.044603
vt 0.234187 0.044603
vt 0.234187 0.048828
vt 0.462891 0.048828
vt 0.462891 0.044603
vt 0.468562 0.044603
vt 0.468562 0.048828
vt 0.306641 0.048828
vt 0.306641 0.044603
vt 0.312312 0.044603
vt 0.312312 0.048828
vt 0.404297 0.048828
vt 0.404297 0.044603
vt 0.409969 0.044603
vt 0.409969 0.048828
vt 0.248047 0.048828
vt 0.248047 0.044603
vt 0.253719 0.044603
vt 0.253719 0.048828
vt 0.482422 0.048828
vt 0.482422 0.044603
vt 0.488094 0.044603
vt 0.488094 0.048828
vt 0.326172 0.048828
vt 0.326172 0.044603
vt 0.331844 0.044603
vt 0.331844 0.048828
vt 0.345703 0.048828
vt 0.345703 0.044603
vt 0.351375 0.044603
vt 0.351375 0.048828
vt 0.267578 0.048828
vt 0.267578 0.044603
vt 0.27325 0.044603
vt 0.27325 0.048828
vt 0.501953 0.048828
vt 0.501953 0.044603
vt 0.507625 0.044603
vt 0.507625 0.048828
vt 0.365234 0.048828
vt 0.365234 0.044603
vt 0.370906 0.044603
vt 0.370906 0.048828
vt 0.423828 0.048828
vt 0.423828 0.044603
vt 0.4295 0.044603
vt 0.4295 0.048828
vt 0.287109 0.048828
vt 0.287109 0.044603
vt 0.292781 0.044603
vt 0.292781 0.048828
vt 0.521484 0.048828
vt 0.521484 0.044603
vt 0.527156 0.044603
vt 0.527156 0.048828
vt 0.390437 0.044603
vt 0.390437 0.048828
vt 0.384766 0.048828
vt 0.384766 0.044603
vt 0.178745 0.207368
vt 0.174842 0.208984
vt 0.172729 0.198364
vt 0.181733 0.20438
vt 0.178745 0.207368
vt 0.172729 0.198364
vt 0.18335 0.200477
vt 0.181733 0.20438
vt 0.172729 0.198364
vt 0.18335 0.196252
vt 0.18335 0.200477
vt 0.172729 0.198364
vt 0.181733 0.192349
vt 0.18335 0.196252
vt 0.172729 0.198364
vt 0.178745 0.189361
vt 0.181733 0.192349
vt 0.172729 0.198364
vt 0.174842 0.187744
vt 0.178745 0.189361
vt 0.172729 0.198364
vt 0.170617 0.187744
vt 0.174842 0.187744
vt 0.172729 0.198364
vt 0.166714 0.189361
vt 0.170617 0.187744
vt 0.172729 0.198364
vt 0.163726 0.192349
vt 0.166714 0.189361
vt 0.172729 0.198364
vt 0.162109 0.196252
vt 0.163726 0.192349
vt 0.172729 0.198364
vt 0.162109 0.200477
vt 0.162109 0.196252
vt 0.172729 0.198364
vt 0.163726 0.20438
vt 0.162109 0.200477
vt 0.172729 0.198364
vt 0.166714 0.207368
vt 0.163726 0.20438
vt 0.172729 0.198364
vt 0.170617 0.208984
vt 0.166714 0.207368
vt 0.172729 0.198364
vt 0.174842 0.208984
vt 0.170617 0.208984
vt 0.172729 0.198364
vt 0.207886 0.198364
vt 0.209998 0.187744
vt 0.213901 0.189361
vt 0.207886 0.198364
vt 0.213901 0.189361
vt 0.216889 0.192349
vt 0.207886 0.198364
vt 0.216889 0.192349
vt 0.218506 0.196252
vt 0.207886 0.198364
vt 0.218506 0.196252
vt 0.218506 0.200477
vt 0.207886 0.198364
vt 0.218506 0.200477
vt 0.216889 0.20438
vt 0.207886 0.198364
vt 0.216889 0.20438
vt 0.213901 0.207368
vt 0.207886 0.198364
vt 0.213901 0.207368
vt 0.209998 0.208984
vt 0.207886 0.198364
vt 0.209998 0.208984
vt 0.205773 0.208984
vt 0.207886 0.198364
vt 0.205773 0.208984
vt 0.20187 0.207368
vt 0.207886 0.198364
vt 0.20187 0.207368
vt 0.198882 0.20438
vt 0.207886 0.198364
vt 0.198882 0.20438
vt 0.197266 0.200477
vt 0.207886 0.198364
vt 0.197266 0.200477
vt 0.197266 0.196252
vt 0.207886 0.198364
vt 0.197266 0.196252
vt 0.198882 0.192349
vt 0.207886 0.198364
vt 0.198882 0.192349
vt 0.20187 0.189361
vt 0.207886 0.198364
vt 0.20187 0.189361
vt 0.205773 0.187744
vt 0.207886 0.198364
vt 0.205773 0.187744
vt 0.209998 0.187744
vn 0.92388 0.382683 0
vn 0.83147 0.55557 0
vn 0.55557 0.83147 0
vn 0.19509 0.980785 0
vn -0.19509 0.980785 0
vn -0.55557 0.83147 0
vn -0.83147 0.55557 0
vn -0.980785 0.19509 0
vn -0.980785 -0.19509 0
vn -0.83147 -0.55557 0
vn -0.55557 -0.83147 0
vn -0.19509 -0.980785 0
vn 0.19509 -0.980785 0
vn 0.55557 -0.83147 0
vn 0.83147 -0.55557 0
vn 0.92388 -0.382683 0
vn -1 0 0
vn 0 0 -1
vn 0 0 1
f 193/445/87 194/446/88 210/447/88 209/448/87
f 194/449/88 195/450/89 211/451/89 210/452/88
f 195/453/89 196/454/90 212/455/90 211/456/89
f 196/457/90 197/458/91 213/459/91 212/460/90
f 197/461/91 198/462/92 214/463/92 213/464/91
f 198/465/92 199/466/93 215/467/93 214/468/92
f 199/469/93 200/470/94 216/471/94 215/472/93
f 200/473/94 201/474/95 217/475/95 216/476/94
f 201/477/95 202/478/96 218/479/96 217/480/95
f 202/481/96 203/482/97 219/483/97 218/484/96
f 203/485/97 204/486/98 220/487/98 219/488/97
f 204/489/98 205/490/99 221/491/99 220/492/98
f 205/493/99 206/494/100 222/495/100 221/496/99
f 206/497/100 207/498/101 223/499/101 222/500/100
f 207/501/101 208/502/102 224/503/102 223/504/101
f 224/505/103 209/506/103 193/507/103 208/508/103
f 194/509/104 193/510/104 225/511/104
f 195/512/104 194/513/104 225/514/104
f 196/515/104 195/516/104 225/517/104
f 197/518/104 196/519/104 225/520/104
f 198/521/104 197/522/104 225/523/104
f 199/524/104 198/525/104 225/526/104
f 200/527/104 199/528/104 225/529/104
f 201/530/104 200/531/104 225/532/104
f 202/533/104 201/534/104 225/535/104
f 203/536/104 202/537/104 225/538/104
f 204/539/104 203/540/104 225/541/104
f 205/542/104 204/543/104 225/544/104
f 206/545/104 205/546/104 225/547/104
f 207/548/104 206/549/104 225/550/104
f 208/551/104 207/552/104 225/553/104
f 193/554/104 208/555/104 225/556/104
f 226/557/105 209/558/105 210/559/105
f 226/560/105 210/561/105 211/562/105
f 226/563/105 211/564/105 212/565/105
f 226/566/105 212/567/105 213/568/105
f 226/569/105 213/570/105 214/571/105
f 226/572/105 214/573/105 215/574/105
f 226/575/105 215/576/105 216/577/105
f 226/578/105 216/579/105 217/580/105
f 226/581/105 217/582/105 218/583/105
f 226/584/105 218/585/105 219/586/105
f 226/587/105 219/588/105 220/589/105
f 226/590/105 220/591/105 221/592/105
f 226/593/105 221/594/105 222/595/105
f 226/596/105 222/597/105 223/598/105
f 226/599/105 223/600/105 224/601/105
f 226/602/105 224/603/105 209/604/105
o led_off
usemtl emergency
v 0.347716 0.472398 0.8903
v 0.346318 0.474818 0.8903
v 0.343898 0.476216 0.8903
v 0.341102 0.476216 0.8903
v 0.338682 0.474818 0.8903
v 0.337284 0.472398 0.8903
v 0.337284 0.469602 0.8903
v 0.338682 0.467182 0.8903
v 0.341102 0.465784 0.8903
v 0.343898 0.465784 0.8903
v 0.346318 0.467182 0.8903
v 0.347716 0.469602 0.8903
v 0.347716 0.472398 0.8928
v 0.346318 0.474818 0.8928
v 0.343898 0.476216 0.8928
v 0.341102 0.476216 0.8928
v 0.338682 0.474818 0.8928
v 0.337284 0.472398 0.8928
v 0.337284 0.469602 0.8928
v 0.338682 0.467182 0.8928
v 0.341102 0.465784 0.8928
v 0.343898 0.465784 0.8928
v 0.346318 0.467182 0.8928
v 0.347716 0.469602 0.8928
v 0.3425 0.471 0.8903
v 0.3425 0.471 0.8928
vt 0.916016 0.04625
vt 0.918898 0.04625
vt 0.918898 0.048828
vt 0.916016 0.048828
vt 0.931641 0.04625
vt 0.934523 0.04625
vt 0.934523 0.048828
vt 0.931641 0.048828
vt 0.759766 0.04625
vt 0.762648 0.04625
vt 0.762648 0.048828
vt 0.759766 0.048828
vt 0.947266 0.04625
vt 0.950148 0.04625
vt 0.950148 0.048828
vt 0.947266 0.048828
vt 0.962891 0.04625
vt 0.965773 0.04625
vt 0.965773 0.048828
vt 0.962891 0.048828
vt 0.775391 0.04625
vt 0.778273 0.04625
vt 0.778273 0.048828
vt 0.775391 0.048828
vt 0.978516 0.04625
vt 0.981398 0.04625
vt 0.981398 0.048828
vt 0.978516 0.048828
vt 0.009766 0.026719
vt 0.012648 0.026719
vt 0.012648 0.029297
vt 0.009766 0.029297
vt 0.791016 0.04625
vt 0.793898 0.04625
vt 0.793898 0.048828
vt 0.791016 0.048828
vt 0.884766 0.04625
vt 0.887648 0.04625
vt 0.887648 0.048828
vt 0.884766 0.048828
vt 0.025391 0.026719
vt 0.028273 0.026719
vt 0.028273 0.029297
vt 0.025391 0.029297
vt 0.809523 0.048828
vt 0.806641 0.048828
vt 0.806641 0.04625
vt 0.809523 0.04625
vt 0.183145 0.168481
vt 0.180648 0.169922
vt 0.179207 0.164543
vt 0.184586 0.165984
vt 0.183145 0.168481
vt 0.179207 0.164543
vt 0.184586 0.163102
vt 0.184586 0.165984
vt 0.179207 0.164543
vt 0.183145 0.160605
vt 0.184586 0.163102
vt 0.179207 0.164543
vt 0.180648 0.159164
vt 0.183145 0.160605
vt 0.179207 0.164543
vt 0.177766 0.159164
vt 0.180648 0.159164
vt 0.179207 0.164543
vt 0.175269 0.160605
vt 0.177766 0.159164
vt 0.179207 0.164543
vt 0.173828 0.163102
vt 0.175269 0.160605
vt 0.179207 0.164543
vt 0.173828 0.165984
vt 0.173828 0.163102
vt 0.179207 0.164543
vt 0.175269 0.168481
vt 0.173828 0.165984
vt 0.179207 0.164543
vt 0.177766 0.169922
vt 0.175269 0.168481
vt 0.179207 0.164543
vt 0.180648 0.169922
vt 0.177766 0.169922
vt 0.179207 0.164543
vt 0.202645 0.164543
vt 0.204086 0.159164
vt 0.206582 0.160605
vt 0.202645 0.164543
vt 0.206582 0.160605
vt 0.208024 0.163102
vt 0.202645 0.164543
vt 0.208024 0.163102
vt 0.208024 0.165984
vt 0.202645 0.164543
vt 0.208024 0.165984
vt 0.206582 0.168481
vt 0.202645 0.164543
vt 0.206582 0.168481
vt 0.204086 0.169922
vt 0.202645 0.164543
vt 0.204086 0.169922
vt 0.201203 0.169922
vt 0.202645 0.164543
vt 0.201203 0.169922
vt 0.198707 0.168481
vt 0.202645 0.164543
vt 0.198707 0.168481
vt 0.197266 0.165984
vt 0.202645 0.164543
vt 0.197266 0.165984
vt 0.197266 0.163102
vt 0.202645 0.164543
vt 0.197266 0.163102
vt 0.198707 0.160605
vt 0.202645 0.164543
vt 0.198707 0.160605
vt 0.201203 0.159164
vt 0.202645 0.164543
vt 0.201203 0.159164
vt 0.204086 0.159164
vn 0.866025 0.5 0
vn 0.707107 0.707107 0
vn 0.258819 0.965926 0
vn -0.258819 0.965926 0
vn -0.707107 0.707107 0
vn -0.965926 0.258819 0
vn -0.965926 -0.258819 0
vn -0.707107 -0.707107 0
vn -0.258819 -0.965926 0
vn 0.258819 -0.965926 0
vn 0.707107 -0.707107 0
vn 0.866025 -0.5 0
vn -1 0 0
vn 0 0 -1
vn 0 0 1
f 227/605/106 228/606/107 240/607/107 239/608/106
f 228/609/107 229/610/108 241/611/108 240/612/107
f 229/613/108 230/614/109 242/615/109 241/616/108
f 230/617/109 231/618/110 243/619/110 242/620/109
f 231/621/110 232/622/111 244/623/111 243/624/110
f 232/625/111 233/626/112 245/627/112 244/628/111
f 233/629/112 234/630/113 246/631/113 245/632/112
f 234/633/113 235/634/114 247/635/114 246/636/113
f 235/637/114 236/638/115 248/639/115 247/640/114
f 236/641/115 237/642/116 249/643/116 248/644/115
f 237/645/116 238/646/117 250/647/117 249/648/116
f 250/649/118 239/650/118 227/651/118 238/652/118
f 228/653/119 227/654/119 251/655/119
f 229/656/119 228/657/119 251/658/119
f 230/659/119 229/660/119 251/661/119
f 231/662/119 230/663/119 251/664/119
f 232/665/119 231/666/119 251/667/119
f 233/668/119 232/669/119 251/670/119
f 234/671/119 233/672/119 251/673/119
f 235/674/119 234/675/119 251/676/119
f 236/677/119 235/678/119 251/679/119
f 237/680/119 236/681/119 251/682/119
f 238/683/119 237/684/119 251/685/119
f 227/686/119 238/687/119 251/688/119
f 252/689/120 239/690/120 240/691/120
f 252/692/120 240/693/120 241/694/120
f 252/695/120 241/696/120 242/697/120
f 252/698/120 242/699/120 243/700/120
f 252/701/120 243/702/120 244/703/120
f 252/704/120 244/705/120 245/706/120
f 252/707/120 245/708/120 246/709/120
f 252/710/120 246/711/120 247/712/120
f 252/713/120 247/714/120 248/715/120
f 252/716/120 248/717/120 249/718/120
f 252/719/120 249/720/120 250/721/120
f 252/722/120 250/723/120 239/724/120
o yoke_l
usemtl emergency
v 0.338 0.524 0.9128
v 0.338 0.524 0.9488
v 0.362 0.524 0.9488
v 0.362 0.524 0.9128
v 0.338 0.564 0.9128
v 0.338 0.564 0.9488
v 0.362 0.564 0.9488
v 0.362 0.564 0.9128
v 0.338 0.524 0.9128
v 0.338 0.524 0.9488
v 0.362 0.524 0.9488
v 0.362 0.524 0.9128
v 0.338 0.564 0.9128
v 0.338 0.564 0.9488
v 0.362 0.564 0.9488
v 0.362 0.564 0.9128
vt 0.863516 0.285141
vt 0.863516 0.322266
vt 0.822266 0.322266
vt 0.822266 0.285141
vt 0.720703 0.259766
vt 0.720703 0.235016
vt 0.761953 0.235016
vt 0.761953 0.259766
vt 0.876953 0.322266
vt 0.876953 0.285141
vt 0.918203 0.285141
vt 0.918203 0.322266
vt 0.775391 0.259766
vt 0.775391 0.235016
vt 0.816641 0.235016
vt 0.816641 0.259766
vt 0.976578 0.259766
vt 0.939453 0.259766
vt 0.939453 0.235016
vt 0.939453 0.235016
vt 0.976578 0.235016
vt 0.976578 0.259766
vt 0.009766 0.208984
vt 0.009766 0.184234
vt 0.046891 0.184234
vt 0.046891 0.184234
vt 0.046891 0.208984
vt 0.009766 0.208984
vn -1 0 0
vn 0 0 1
vn 1 0 0
vn 0 0 -1
vn 0 -1 0
vn 0 1 0
f 253/725/121 254/726/121 258/727/121 257/728/121
f 254/729/122 255/730/122 259/731/122 258/732/122
f 255/733/123 256/734/123 260/735/123 259/736/123
f 256/737/124 253/738/124 257/739/124 260/740/124
f 262/741/125 261/742/125 264/743/125
f 264/744/125 263/745/125 262/746/125
f 268/747/126 265/748/126 266/749/126
f 266/750/126 267/751/126 268/752/126
o head_l
usemtl emergency
v 0.378145 0.552553 0.885434
v 0.37173 0.563587 0.880711
v 0.362166 0.572974 0.878334
v 0.35039 0.579794 0.878535
v 0.337555 0.58338 0.881295
v 0.324916 0.58338 0.886343
v 0.313711 0.579794 0.893185
v 0.305036 0.572974 0.901152
v 0.299742 0.563587 0.909464
v 0.298346 0.552553 0.917307
v 0.300985 0.54095 0.923913
v 0.3074 0.529915 0.928636
v 0.316963 0.520528 0.931013
v 0.328739 0.513709 0.930812
v 0.341575 0.510123 0.928053
v 0.354214 0.510123 0.923005
v 0.365419 0.513709 0.916162
v 0.374093 0.520528 0.908195
v 0.379387 0.529915 0.899883
v 0.380784 0.54095 0.89204
v 0.399015 0.58705 0.937687
v 0.3926 0.598085 0.932964
v 0.383037 0.607472 0.930587
v 0.371261 0.614291 0.930788
v 0.358425 0.617877 0.933547
v 0.345786 0.617877 0.938595
v 0.334581 0.614291 0.945438
v 0.325907 0.607472 0.953405
v 0.320613 0.598085 0.961717
v 0.319216 0.58705 0.96956
v 0.321855 0.575447 0.976166
v 0.32827 0.564413 0.980889
v 0.337834 0.555026 0.983266
v 0.34961 0.548206 0.983065
v 0.362445 0.54462 0.980305
v 0.375084 0.54462 0.975257
v 0.386289 0.548206 0.968415
v 0.394964 0.555026 0.960448
v 0.400258 0.564413 0.952136
v 0.401654 0.575447 0.944293
v 0.339565 0.546751 0.904674
v 0.360435 0.581249 0.956926
vt 0.663838 0.322266
vt 0.658203 0.309411
vt 0.72054 0.282087
vt 0.726175 0.294942
vt 0.559664 0.259766
vt 0.556641 0.24606
vt 0.623105 0.231396
vt 0.626129 0.245102
vt 0.091797 0.168652
vt 0.092059 0.15462
vt 0.160109 0.155889
vt 0.159848 0.169922
vt 0.228516 0.242879
vt 0.231998 0.229283
vt 0.297932 0.246169
vt 0.29445 0.259766
vt 0.248047 0.29339
vt 0.254001 0.280681
vt 0.315635 0.309556
vt 0.30968 0.322266
vt 0.693359 0.348279
vt 0.700883 0.336431
vt 0.75834 0.372918
vt 0.750816 0.384766
vt 0.775391 0.566956
vt 0.783735 0.555671
vt 0.838462 0.596137
vt 0.830118 0.607422
vt 0.552734 0.56585
vt 0.561307 0.554737
vt 0.615198 0.596309
vt 0.606626 0.607422
vt 0.166016 0.473618
vt 0.174275 0.46227
vt 0.229304 0.502324
vt 0.221044 0.513672
vt 0.771484 0.34919
vt 0.77882 0.337225
vt 0.836845 0.3728
vt 0.829509 0.384766
vt 0.494141 0.294942
vt 0.499775 0.282087
vt 0.562112 0.309411
vt 0.556478 0.322266
vt 0.392578 0.245102
vt 0.395602 0.231396
vt 0.462066 0.24606
vt 0.459042 0.259766
vt 0.89284 0.208984
vt 0.892578 0.194952
vt 0.960629 0.193682
vt 0.960891 0.207715
vt 0.149967 0.259766
vt 0.146484 0.246169
vt 0.212419 0.229283
vt 0.215901 0.242879
vt 0.336033 0.322266
vt 0.330078 0.309556
vt 0.391712 0.280681
vt 0.397666 0.29339
vt 0.466508 0.384766
vt 0.458984 0.372918
vt 0.516441 0.336431
vt 0.523965 0.348279
vt 0.86186 0.607422
vt 0.853516 0.596137
vt 0.908243 0.555671
vt 0.916587 0.566956
vt 0.635526 0.607422
vt 0.626953 0.596309
vt 0.680845 0.554737
vt 0.689417 0.56585
vt 0.2524 0.513672
vt 0.244141 0.502324
vt 0.299169 0.46227
vt 0.307429 0.473618
vt 0.91497 0.3728
vt 0.907634 0.384766
vt 0.849609 0.34919
vt 0.856945 0.337225
vt 0.448623 0.635789
vt 0.460174 0.643761
vt 0.429229 0.676239
vt 0.435174 0.631776
vt 0.448623 0.635789
vt 0.429229 0.676239
vt 0.421143 0.632115
vt 0.435174 0.631776
vt 0.429229 0.676239
vt 0.407903 0.636773
vt 0.421143 0.632115
vt 0.429229 0.676239
vt 0.396751 0.645295
vt 0.407903 0.636773
vt 0.429229 0.676239
vt 0.388779 0.656846
vt 0.396751 0.645295
vt 0.429229 0.676239
vt 0.384766 0.670295
vt 0.388779 0.656846
vt 0.429229 0.676239
vt 0.385105 0.684326
vt 0.384766 0.670295
vt 0.429229 0.676239
vt 0.389763 0.697565
vt 0.385105 0.684326
vt 0.429229 0.676239
vt 0.398285 0.708717
vt 0.389763 0.697565
vt 0.429229 0.676239
vt 0.409836 0.71669
vt 0.398285 0.708717
vt 0.429229 0.676239
vt 0.423285 0.720703
vt 0.409836 0.71669
vt 0.429229 0.676239
vt 0.437316 0.720364
vt 0.423285 0.720703
vt 0.429229 0.676239
vt 0.450556 0.715705
vt 0.437316 0.720364
vt 0.429229 0.676239
vt 0.461707 0.707184
vt 0.450556 0.715705
vt 0.429229 0.676239
vt 0.46968 0.695633
vt 0.461707 0.707184
vt 0.429229 0.676239
vt 0.473693 0.682184
vt 0.46968 0.695633
vt 0.429229 0.676239
vt 0.473354 0.668153
vt 0.473693 0.682184
vt 0.429229 0.676239
vt 0.468695 0.654913
vt 0.473354 0.668153
vt 0.429229 0.676239
vt 0.460174 0.643761
vt 0.468695 0.654913
vt 0.429229 0.676239
vt 0.530792 0.676239
vt 0.499848 0.643761
vt 0.511398 0.635789
vt 0.530792 0.676239
vt 0.511398 0.635789
vt 0.524848 0.631776
vt 0.530792 0.676239
vt 0.524848 0.631776
vt 0.538879 0.632115
vt 0.530792 0.676239
vt 0.538879 0.632115
vt 0.552118 0.636773
vt 0.530792 0.676239
vt 0.552118 0.636773
vt 0.56327 0.645295
vt 0.530792 0.676239
vt 0.56327 0.645295
vt 0.571243 0.656846
vt 0.530792 0.676239
vt 0.571243 0.656846
vt 0.575256 0.670295
vt 0.530792 0.676239
vt 0.575256 0.670295
vt 0.574916 0.684326
vt 0.530792 0.676239
vt 0.574916 0.684326
vt 0.570258 0.697565
vt 0.530792 0.676239
vt 0.570258 0.697565
vt 0.561736 0.708717
vt 0.530792 0.676239
vt 0.561736 0.708717
vt 0.550185 0.71669
vt 0.530792 0.676239
vt 0.550185 0.71669
vt 0.536736 0.720703
vt 0.530792 0.676239
vt 0.536736 0.720703
vt 0.522705 0.720364
vt 0.530792 0.676239
vt 0.522705 0.720364
vt 0.509466 0.715705
vt 0.530792 0.676239
vt 0.509466 0.715705
vt 0.498314 0.707184
vt 0.530792 0.676239
vt 0.498314 0.707184
vt 0.490341 0.695633
vt 0.530792 0.676239
vt 0.490341 0.695633
vt 0.486328 0.682184
vt 0.530792 0.676239
vt 0.486328 0.682184
vt 0.486667 0.668153
vt 0.530792 0.676239
vt 0.486667 0.668153
vt 0.491326 0.654913
vt 0.530792 0.676239
vt 0.491326 0.654913
vt 0.499848 0.643761
vn 0.823302 0.263445 -0.502764
vn 0.739429 0.387038 -0.55086
vn 0.519574 0.602826 -0.605511
vn 0.248861 0.759605 -0.60089
vn -0.046213 0.842029 -0.53745
vn -0.336764 0.842029 -0.4214
vn -0.594349 0.759605 -0.264101
vn -0.793756 0.602826 -0.08095
vn -0.915464 0.387038 0.110125
vn -0.94756 0.133364 0.29042
vn -0.886902 -0.133364 0.442287
vn -0.739429 -0.387038 0.55086
vn -0.519574 -0.602826 0.605511
vn -0.248861 -0.759605 0.60089
vn 0.046213 -0.842029 0.53745
vn 0.336764 -0.842029 0.4214
vn 0.594349 -0.759605 0.264101
vn 0.793756 -0.602826 0.08095
vn 0.915464 -0.387038 -0.110125
vn 0.943123 -0.263445 -0.202769
vn -0.928665 0 0.37092
vn -0.316219 -0.522687 -0.791709
vn 0.316219 0.522687 0.791709
f 269/753/127 270/754/128 290/755/128 289/756/127
f 270/757/128 271/758/129 291/759/129 290/760/128
f 271/761/129 272/762/130 292/763/130 291/764/129
f 272/765/130 273/766/131 293/767/131 292/768/130
f 273/769/131 274/770/132 294/771/132 293/772/131
f 274/773/132 275/774/133 295/775/133 294/776/132
f 275/777/133 276/778/134 296/779/134 295/780/133
f 276/781/134 277/782/135 297/783/135 296/784/134
f 277/785/135 278/786/136 298/787/136 297/788/135
f 278/789/136 279/790/137 299/791/137 298/792/136
f 279/793/137 280/794/138 300/795/138 299/796/137
f 280/797/138 281/798/139 301/799/139 300/800/138
f 281/801/139 282/802/140 302/803/140 301/804/139
f 282/805/140 283/806/141 303/807/141 302/808/140
f 283/809/141 284/810/142 304/811/142 303/812/141
f 284/813/142 285/814/143 305/815/143 304/816/142
f 285/817/143 286/818/144 306/819/144 305/820/143
f 286/821/144 287/822/145 307/823/145 306/824/144
f 287/825/145 288/826/146 308/827/146 307/828/145
f 308/829/147 289/830/147 269/831/147 288/832/147
f 270/833/148 269/834/148 309/835/148
f 271/836/148 270/837/148 309/838/148
f 272/839/148 271/840/148 309/841/148
f 273/842/148 272/843/148 309/844/148
f 274/845/148 273/846/148 309/847/148
f 275/848/148 274/849/148 309/850/148
f 276/851/148 275/852/148 309/853/148
f 277/854/148 276/855/148 309/856/148
f 278/857/148 277/858/148 309/859/148
f 279/860/148 278/861/148 309/862/148
f 280/863/148 279/864/148 309/865/148
f 281/866/148 280/867/148 309/868/148
f 282/869/148 281/870/148 309/871/148
f 283/872/148 282/873/148 309/874/148
f 284/875/148 283/876/148 309/877/148
f 285/878/148 284/879/148 309/880/148
f 286/881/148 285/882/148 309/883/148
f 287/884/148 286/885/148 309/886/148
f 288/887/148 287/888/148 309/889/148
f 269/890/148 288/891/148 309/892/148
f 310/893/149 289/894/149 290/895/149
f 310/896/149 290/897/149 291/898/149
f 310/899/149 291/900/149 292/901/149
f 310/902/149 292/903/149 293/904/149
f 310/905/149 293/906/149 294/907/149
f 310/908/149 294/909/149 295/910/149
f 310/911/149 295/912/149 296/913/149
f 310/914/149 296/915/149 297/916/149
f 310/917/149 297/918/149 298/919/149
f 310/920/149 298/921/149 299/922/149
f 310/923/149 299/924/149 300/925/149
f 310/926/149 300/927/149 301/928/149
f 310/929/149 301/930/149 302/931/149
f 310/932/149 302/933/149 303/934/149
f 310/935/149 303/936/149 304/937/149
f 310/938/149 304/939/149 305/940/149
f 310/941/149 305/942/149 306/943/149
f 310/944/149 306/945/149 307/946/149
f 310/947/149 307/948/149 308/949/149
f 310/950/149 308/951/149 289/952/149
o lens_l_on
usemtl emergency_glow
v 0.37292 0.550912 0.886331
v 0.367279 0.560615 0.882178
v 0.358869 0.568869 0.880088
v 0.348515 0.574865 0.880264
v 0.337228 0.578018 0.882691
v 0.326114 0.578018 0.88713
v 0.316262 0.574865 0.893147
v 0.308634 0.568869 0.900152
v 0.303979 0.560615 0.907461
v 0.302751 0.550912 0.914357
v 0.305072 0.540709 0.920166
v 0.310712 0.531006 0.924319
v 0.319122 0.522752 0.926409
v 0.329477 0.516756 0.926233
v 0.340763 0.513603 0.923806
v 0.351877 0.513603 0.919367
v 0.361729 0.516756 0.91335
v 0.369357 0.522752 0.906345
v 0.374012 0.531006 0.899036
v 0.37524 0.540709 0.89214
v 0.373963 0.552637 0.888944
v 0.368322 0.56234 0.884791
v 0.359913 0.570593 0.8827
v 0.349558 0.57659 0.882877
v 0.338271 0.579743 0.885304
v 0.327158 0.579743 0.889743
v 0.317305 0.57659 0.895759
v 0.309678 0.570593 0.902765
v 0.305023 0.56234 0.910073
v 0.303795 0.552637 0.91697
v 0.306115 0.542434 0.922779
v 0.311756 0.532731 0.926932
v 0.320165 0.524477 0.929022
v 0.33052 0.51848 0.928845
v 0.341807 0.515328 0.926419
v 0.35292 0.515328 0.92198
v 0.362773 0.51848 0.915963
v 0.3704 0.524477 0.908957
v 0.375056 0.532731 0.901649
v 0.376283 0.542434 0.894753
v 0.338996 0.54581 0.903249
v 0.340039 0.547535 0.905861
vt 0.958984 0.116024
vt 0.970287 0.111069
vt 0.971654 0.114186
vt 0.960351 0.119141
vt 0.146484 0.045505
vt 0.158536 0.042846
vt 0.159269 0.046169
vt 0.147218 0.048828
vt 0.677798 0.045195
vt 0.690137 0.045426
vt 0.690073 0.048828
vt 0.677734 0.048598
vt 0.787954 0.065907
vt 0.799909 0.068969
vt 0.799065 0.072266
vt 0.787109 0.069204
vt 0.741678 0.110823
vt 0.752854 0.116059
vt 0.75141 0.119141
vt 0.740234 0.113905
vt 0.952996 0.160433
vt 0.963414 0.167049
vt 0.96159 0.169922
vt 0.951172 0.163306
vt 0.679758 0.159848
vt 0.689681 0.167186
vt 0.687658 0.169922
vt 0.677734 0.162585
vt 0.461063 0.159689
vt 0.470835 0.167227
vt 0.468756 0.169922
vt 0.458984 0.162384
vt 0.734425 0.159908
vt 0.744403 0.16717
vt 0.7424 0.169922
vt 0.732422 0.162659
vt 0.312326 0.133226
vt 0.322847 0.139677
vt 0.321068 0.142578
vt 0.310547 0.136128
vt 0.850976 0.111069
vt 0.862279 0.116024
vt 0.860912 0.119141
vt 0.849609 0.114186
vt 0.09253 0.042846
vt 0.104581 0.045505
vt 0.103848 0.048828
vt 0.091797 0.046169
vt 0.568359 0.045426
vt 0.580698 0.045195
vt 0.580762 0.048598
vt 0.568423 0.048828
vt 0.896484 0.068969
vt 0.90844 0.065907
vt 0.909284 0.069204
vt 0.897329 0.072266
vt 0.576172 0.116059
vt 0.587347 0.110823
vt 0.588791 0.113905
vt 0.577616 0.119141
vt 0.091797 0.139705
vt 0.102215 0.133089
vt 0.104039 0.135962
vt 0.093621 0.142578
vt 0.513672 0.167186
vt 0.523595 0.159848
vt 0.525618 0.162585
vt 0.515695 0.169922
vt 0.294922 0.167227
vt 0.304694 0.159689
vt 0.306772 0.162384
vt 0.297 0.169922
vt 0.841797 0.16717
vt 0.851775 0.159908
vt 0.853778 0.162659
vt 0.8438 0.169922
vt 0.211693 0.142578
vt 0.201172 0.136128
vt 0.202951 0.133226
vt 0.213472 0.139677
vt 0.200794 0.551272
vt 0.207805 0.541115
vt 0.236363 0.568324
vt 0.197266 0.563098
vt 0.200794 0.551272
vt 0.236363 0.568324
vt 0.197564 0.575435
vt 0.197266 0.563098
vt 0.236363 0.568324
vt 0.20166 0.587077
vt 0.197564 0.575435
vt 0.236363 0.568324
vt 0.209154 0.596883
vt 0.20166 0.587077
vt 0.236363 0.568324
vt 0.21931 0.603893
vt 0.209154 0.596883
vt 0.236363 0.568324
vt 0.231136 0.607422
vt 0.21931 0.603893
vt 0.236363 0.568324
vt 0.243474 0.607124
vt 0.231136 0.607422
vt 0.236363 0.568324
vt 0.255115 0.603027
vt 0.243474 0.607124
vt 0.236363 0.568324
vt 0.264921 0.595534
vt 0.255115 0.603027
vt 0.236363 0.568324
vt 0.271932 0.585377
vt 0.264921 0.595534
vt 0.236363 0.568324
vt 0.275461 0.573551
vt 0.271932 0.585377
vt 0.236363 0.568324
vt 0.275162 0.561214
vt 0.275461 0.573551
vt 0.236363 0.568324
vt 0.271066 0.549572
vt 0.275162 0.561214
vt 0.236363 0.568324
vt 0.263573 0.539766
vt 0.271066 0.549572
vt 0.236363 0.568324
vt 0.253416 0.532756
vt 0.263573 0.539766
vt 0.236363 0.568324
vt 0.24159 0.529227
vt 0.253416 0.532756
vt 0.236363 0.568324
vt 0.229252 0.529525
vt 0.24159 0.529227
vt 0.236363 0.568324
vt 0.217611 0.533622
vt 0.229252 0.529525
vt 0.236363 0.568324
vt 0.207805 0.541115
vt 0.217611 0.533622
vt 0.236363 0.568324
vt 0.048863 0.568324
vt 0.021654 0.539766
vt 0.03181 0.532756
vt 0.048863 0.568324
vt 0.03181 0.532756
vt 0.043636 0.529227
vt 0.048863 0.568324
vt 0.043636 0.529227
vt 0.055974 0.529525
vt 0.048863 0.568324
vt 0.055974 0.529525
vt 0.067615 0.533622
vt 0.048863 0.568324
vt 0.067615 0.533622
vt 0.077421 0.541115
vt 0.048863 0.568324
vt 0.077421 0.541115
vt 0.084432 0.551272
vt 0.048863 0.568324
vt 0.084432 0.551272
vt 0.087961 0.563098
vt 0.048863 0.568324
vt 0.087961 0.563098
vt 0.087662 0.575435
vt 0.048863 0.568324
vt 0.087662 0.575435
vt 0.083566 0.587077
vt 0.048863 0.568324
vt 0.083566 0.587077
vt 0.076073 0.596883
vt 0.048863 0.568324
vt 0.076073 0.596883
vt 0.065916 0.603893
vt 0.048863 0.568324
vt 0.065916 0.603893
vt 0.05409 0.607422
vt 0.048863 0.568324
vt 0.05409 0.607422
vt 0.041752 0.607124
vt 0.048863 0.568324
vt 0.041752 0.607124
vt 0.030111 0.603027
vt 0.048863 0.568324
vt 0.030111 0.603027
vt 0.020305 0.595534
vt 0.048863 0.568324
vt 0.020305 0.595534
vt 0.013294 0.585377
vt 0.048863 0.568324
vt 0.013294 0.585377
vt 0.009766 0.573551
vt 0.048863 0.568324
vt 0.009766 0.573551
vt 0.010064 0.561214
vt 0.048863 0.568324
vt 0.010064 0.561214
vt 0.01416 0.549572
vt 0.048863 0.568324
vt 0.01416 0.549572
vt 0.021654 0.539766
vn 0.823302 0.263445 -0.502764
vn 0.739429 0.387038 -0.55086
vn 0.519574 0.602826 -0.605511
vn 0.248861 0.759605 -0.60089
vn -0.046213 0.842029 -0.53745
vn -0.336764 0.842029 -0.4214
vn -0.594349 0.759605 -0.264101
vn -0.793756 0.602826 -0.08095
vn -0.915464 0.387038 0.110125
vn -0.94756 0.133364 0.29042
vn -0.886902 -0.133364 0.442287
vn -0.739429 -0.387038 0.55086
vn -0.519574 -0.602826 0.605511
vn -0.248861 -0.759605 0.60089
vn 0.046213 -0.842029 0.53745
vn 0.336764 -0.842029 0.4214
vn 0.594349 -0.759605 0.264101
vn 0.793756 -0.602826 0.08095
vn 0.915464 -0.387038 -0.110125
vn 0.943123 -0.263445 -0.202769
vn -0.928665 0 0.37092
vn -0.316219 -0.522687 -0.791709
vn 0.316219 0.522687 0.791709
f 311/953/150 312/954/151 332/955/151 331/956/150
f 312/957/151 313/958/152 333/959/152 332/960/151
f 313/961/152 314/962/153 334/963/153 333/964/152
f 314/965/153 315/966/154 335/967/154 334/968/153
f 315/969/154 316/970/155 336/971/155 335/972/154
f 316/973/155 317/974/156 337/975/156 336/976/155
f 317/977/156 318/978/157 338/979/157 337/980/156
f 318/981/157 319/982/158 339/983/158 338/984/157
f 319/985/158 320/986/159 340/987/159 339/988/158
f 320/989/159 321/990/160 341/991/160 340/992/159
f 321/993/160 322/994/161 342/995/161 341/996/160
f 322/997/161 323/998/162 343/999/162 342/1000/161
f 323/1001/162 324/1002/163 344/1003/163 343/1004/162
f 324/1005/163 325/1006/164 345/1007/164 344/1008/163
f 325/1009/164 326/1010/165 346/1011/165 345/1012/164
f 326/1013/165 327/1014/166 347/1015/166 346/1016/165
f 327/1017/166 328/1018/167 348/1019/167 347/1020/166
f 328/1021/167 329/1022/168 349/1023/168 348/1024/167
f 329/1025/168 330/1026/169 350/1027/169 349/1028/168
f 350/1029/170 331/1030/170 311/1031/170 330/1032/170
f 312/1033/171 311/1034/171 351/1035/171
f 313/1036/171 312/1037/171 351/1038/171
f 314/1039/171 313/1040/171 351/1041/171
f 315/1042/171 314/1043/171 351/1044/171
f 316/1045/171 315/1046/171 351/1047/171
f 317/1048/171 316/1049/171 351/1050/171
f 318/1051/171 317/1052/171 351/1053/171
f 319/1054/171 318/1055/171 351/1056/171
f 320/1057/171 319/1058/171 351/1059/171
f 321/1060/171 320/1061/171 351/1062/171
f 322/1063/171 321/1064/171 351/1065/171
f 323/1066/171 322/1067/171 351/1068/171
f 324/1069/171 323/1070/171 351/1071/171
f 325/1072/171 324/1073/171 351/1074/171
f 326/1075/171 325/1076/171 351/1077/171
f 327/1078/171 326/1079/171 351/1080/171
f 328/1081/171 327/1082/171 351/1083/171
f 329/1084/171 328/1085/171 351/1086/171
f 330/1087/171 329/1088/171 351/1089/171
f 311/1090/171 330/1091/171 351/1092/171
f 352/1093/172 331/1094/172 332/1095/172
f 352/1096/172 332/1097/172 333/1098/172
f 352/1099/172 333/1100/172 334/1101/172
f 352/1102/172 334/1103/172 335/1104/172
f 352/1105/172 335/1106/172 336/1107/172
f 352/1108/172 336/1109/172 337/1110/172
f 352/1111/172 337/1112/172 338/1113/172
f 352/1114/172 338/1115/172 339/1116/172
f 352/1117/172 339/1118/172 340/1119/172
f 352/1120/172 340/1121/172 341/1122/172
f 352/1123/172 341/1124/172 342/1125/172
f 352/1126/172 342/1127/172 343/1128/172
f 352/1129/172 343/1130/172 344/1131/172
f 352/1132/172 344/1133/172 345/1134/172
f 352/1135/172 345/1136/172 346/1137/172
f 352/1138/172 346/1139/172 347/1140/172
f 352/1141/172 347/1142/172 348/1143/172
f 352/1144/172 348/1145/172 349/1146/172
f 352/1147/172 349/1148/172 350/1149/172
f 352/1150/172 350/1151/172 331/1152/172
o yoke_r
usemtl emergency
v 0.638 0.524 0.9128
v 0.638 0.524 0.9488
v 0.662 0.524 0.9488
v 0.662 0.524 0.9128
v 0.638 0.564 0.9128
v 0.638 0.564 0.9488
v 0.662 0.564 0.9488
v 0.662 0.564 0.9128
v 0.638 0.524 0.9128
v 0.638 0.524 0.9488
v 0.662 0.524 0.9488
v 0.662 0.524 0.9128
v 0.638 0.564 0.9128
v 0.638 0.564 0.9488
v 0.662 0.564 0.9488
v 0.662 0.564 0.9128
vt 0.972891 0.285141
vt 0.972891 0.322266
vt 0.931641 0.322266
vt 0.931641 0.285141
vt 0.830078 0.259766
vt 0.830078 0.235016
vt 0.871328 0.235016
vt 0.871328 0.259766
vt 0.009766 0.259766
vt 0.009766 0.222641
vt 0.051016 0.222641
vt 0.051016 0.259766
vt 0.884766 0.259766
vt 0.884766 0.235016
vt 0.926016 0.235016
vt 0.926016 0.259766
vt 0.097672 0.208984
vt 0.060547 0.208984
vt 0.060547 0.184234
vt 0.060547 0.184234
vt 0.097672 0.184234
vt 0.097672 0.208984
vt 0.111328 0.208984
vt 0.111328 0.184234
vt 0.148453 0.184234
vt 0.148453 0.184234
vt 0.148453 0.208984
vt 0.111328 0.208984
vn -1 0 0
vn 0 0 1
vn 1 0 0
vn 0 0 -1
vn 0 -1 0
vn 0 1 0
f 353/1153/173 354/1154/173 358/1155/173 357/1156/173
f 354/1157/174 355/1158/174 359/1159/174 358/1160/174
f 355/1161/175 356/1162/175 360/1163/175 359/1164/175
f 356/1165/176 353/1166/176 357/1167/176 360/1168/176
f 362/1169/177 361/1170/177 364/1171/177
f 364/1172/177 363/1173/177 362/1174/177
f 368/1175/178 365/1176/178 366/1177/178
f 366/1178/178 367/1179/178 368/1180/178
o head_r
usemtl emergency
v 0.701654 0.552553 0.917307
v 0.700258 0.563587 0.909464
v 0.694964 0.572974 0.901152
v 0.686289 0.579794 0.893185
v 0.675084 0.58338 0.886343
v 0.662445 0.58338 0.881295
v 0.64961 0.579794 0.878535
v 0.637834 0.572974 0.878334
v 0.62827 0.563587 0.880711
v 0.621855 0.552553 0.885434
v 0.619216 0.54095 0.89204
v 0.620613 0.529915 0.899883
v 0.625907 0.520528 0.908195
v 0.634581 0.513709 0.916162
v 0.645786 0.510123 0.923005
v 0.658425 0.510123 0.928053
v 0.671261 0.513709 0.930812
v 0.683037 0.520528 0.931013
v 0.6926 0.529915 0.928636
v 0.699015 0.54095 0.923913
v 0.680784 0.58705 0.96956
v 0.679387 0.598085 0.961717
v 0.674093 0.607472 0.953405
v 0.665419 0.614291 0.945438
v 0.654214 0.617877 0.938595
v 0.641575 0.617877 0.933547
v 0.628739 0.614291 0.930788
v 0.616963 0.607472 0.930587
v 0.6074 0.598085 0.932964
v 0.600985 0.58705 0.937687
v 0.598346 0.575447 0.944293
v 0.599742 0.564413 0.952136
v 0.605036 0.555026 0.960448
v 0.613711 0.548206 0.968415
v 0.624916 0.54462 0.975257
v 0.637555 0.54462 0.980305
v 0.65039 0.548206 0.983065
v 0.662166 0.555026 0.983266
v 0.67173 0.564413 0.980889
v 0.678145 0.575447 0.976166
v 0.660435 0.546751 0.904674
v 0.639565 0.581249 0.956926
vt 0.40865 0.513672
vt 0.400391 0.502324
vt 0.455419 0.46227
vt 0.463679 0.473618
vt 0.709744 0.607422
vt 0.701172 0.596309
vt 0.755063 0.554737
vt 0.763636 0.56585
vt 0.01811 0.513672
vt 0.009766 0.502387
vt 0.064493 0.461921
vt 0.072837 0.473206
vt 0.622758 0.384766
vt 0.615234 0.372918
vt 0.672691 0.336431
vt 0.680215 0.348279
vt 0.17197 0.322266
vt 0.166016 0.309556
vt 0.227649 0.280681
vt 0.233604 0.29339
vt 0.314029 0.259766
vt 0.310547 0.246169
vt 0.376481 0.229283
vt 0.379963 0.242879
vt 0.010027 0.169922
vt 0.009766 0.155889
vt 0.077816 0.15462
vt 0.078078 0.168652
vt 0.638672 0.245102
vt 0.641696 0.231396
vt 0.70816 0.24606
vt 0.705136 0.259766
vt 0.740234 0.294942
vt 0.745869 0.282087
vt 0.808206 0.309411
vt 0.802572 0.322266
vt 0.009766 0.28669
vt 0.017102 0.274725
vt 0.075127 0.3103
vt 0.067791 0.322266
vt 0.322266 0.473618
vt 0.330525 0.46227
vt 0.385554 0.502324
vt 0.377294 0.513672
vt 0.478516 0.56585
vt 0.487088 0.554737
vt 0.54098 0.596309
vt 0.532407 0.607422
vt 0.087891 0.473206
vt 0.096235 0.461921
vt 0.150962 0.502387
vt 0.142618 0.513672
vt 0.537109 0.348279
vt 0.544633 0.336431
vt 0.60209 0.372918
vt 0.594566 0.384766
vt 0.412109 0.29339
vt 0.418064 0.280681
vt 0.479697 0.309556
vt 0.473743 0.322266
vt 0.064453 0.242879
vt 0.067935 0.229283
vt 0.13387 0.246169
vt 0.130387 0.259766
vt 0.810547 0.207715
vt 0.810809 0.193682
vt 0.878859 0.194952
vt 0.878598 0.208984
vt 0.477633 0.259766
vt 0.474609 0.24606
vt 0.541073 0.231396
vt 0.544097 0.245102
vt 0.581806 0.322266
vt 0.576172 0.309411
vt 0.638509 0.282087
vt 0.644143 0.294942
vt 0.153252 0.3103
vt 0.145916 0.322266
vt 0.087891 0.28669
vt 0.095227 0.274725
vt 0.676479 0.684326
vt 0.67182 0.697565
vt 0.632354 0.676239
vt 0.676818 0.670295
vt 0.676479 0.684326
vt 0.632354 0.676239
vt 0.672805 0.656846
vt 0.676818 0.670295
vt 0.632354 0.676239
vt 0.664832 0.645295
vt 0.672805 0.656846
vt 0.632354 0.676239
vt 0.653681 0.636773
vt 0.664832 0.645295
vt 0.632354 0.676239
vt 0.640441 0.632115
vt 0.653681 0.636773
vt 0.632354 0.676239
vt 0.62641 0.631776
vt 0.640441 0.632115
vt 0.632354 0.676239
vt 0.612961 0.635789
vt 0.62641 0.631776
vt 0.632354 0.676239
vt 0.60141 0.643761
vt 0.612961 0.635789
vt 0.632354 0.676239
vt 0.592888 0.654913
vt 0.60141 0.643761
vt 0.632354 0.676239
vt 0.58823 0.668153
vt 0.592888 0.654913
vt 0.632354 0.676239
vt 0.587891 0.682184
vt 0.58823 0.668153
vt 0.632354 0.676239
vt 0.591904 0.695633
vt 0.587891 0.682184
vt 0.632354 0.676239
vt 0.599876 0.707184
vt 0.591904 0.695633
vt 0.632354 0.676239
vt 0.611028 0.715705
vt 0.599876 0.707184
vt 0.632354 0.676239
vt 0.624268 0.720364
vt 0.611028 0.715705
vt 0.632354 0.676239
vt 0.638299 0.720703
vt 0.624268 0.720364
vt 0.632354 0.676239
vt 0.651748 0.71669
vt 0.638299 0.720703
vt 0.632354 0.676239
vt 0.663299 0.708717
vt 0.651748 0.71669
vt 0.632354 0.676239
vt 0.67182 0.697565
vt 0.663299 0.708717
vt 0.632354 0.676239
vt 0.327667 0.676239
vt 0.348993 0.715705
vt 0.335754 0.720364
vt 0.327667 0.676239
vt 0.335754 0.720364
vt 0.321723 0.720703
vt 0.327667 0.676239
vt 0.321723 0.720703
vt 0.308273 0.71669
vt 0.327667 0.676239
vt 0.308273 0.71669
vt 0.296723 0.708717
vt 0.327667 0.676239
vt 0.296723 0.708717
vt 0.288201 0.697565
vt 0.327667 0.676239
vt 0.288201 0.697565
vt 0.283542 0.684326
vt 0.327667 0.676239
vt 0.283542 0.684326
vt 0.283203 0.670295
vt 0.327667 0.676239
vt 0.283203 0.670295
vt 0.287216 0.656846
vt 0.327667 0.676239
vt 0.287216 0.656846
vt 0.295189 0.645295
vt 0.327667 0.676239
vt 0.295189 0.645295
vt 0.306341 0.636773
vt 0.327667 0.676239
vt 0.306341 0.636773
vt 0.31958 0.632115
vt 0.327667 0.676239
vt 0.31958 0.632115
vt 0.333611 0.631776
vt 0.327667 0.676239
vt 0.333611 0.631776
vt 0.34706 0.635789
vt 0.327667 0.676239
vt 0.34706 0.635789
vt 0.358611 0.643761
vt 0.327667 0.676239
vt 0.358611 0.643761
vt 0.367133 0.654913
vt 0.327667 0.676239
vt 0.367133 0.654913
vt 0.371791 0.668153
vt 0.327667 0.676239
vt 0.371791 0.668153
vt 0.372131 0.682184
vt 0.327667 0.676239
vt 0.372131 0.682184
vt 0.368118 0.695633
vt 0.327667 0.676239
vt 0.368118 0.695633
vt 0.360145 0.707184
vt 0.327667 0.676239
vt 0.360145 0.707184
vt 0.348993 0.715705
vn 0.943123 0.263445 0.202769
vn 0.915464 0.387038 0.110125
vn 0.793756 0.602826 -0.08095
vn 0.594349 0.759605 -0.264101
vn 0.336764 0.842029 -0.4214
vn 0.046213 0.842029 -0.53745
vn -0.248861 0.759605 -0.60089
vn -0.519574 0.602826 -0.605511
vn -0.739429 0.387038 -0.55086
vn -0.886902 0.133364 -0.442287
vn -0.94756 -0.133364 -0.29042
vn -0.915464 -0.387038 -0.110125
vn -0.793756 -0.602826 0.08095
vn -0.594349 -0.759605 0.264101
vn -0.336764 -0.842029 0.4214
vn -0.046213 -0.842029 0.53745
vn 0.248861 -0.759605 0.60089
vn 0.519574 -0.602826 0.605511
vn 0.739429 -0.387038 0.55086
vn 0.823302 -0.263445 0.502764
vn -0.928665 0 -0.37092
vn 0.316219 -0.522687 -0.791709
vn -0.316219 0.522687 0.791709
f 369/1181/179 370/1182/180 390/1183/180 389/1184/179
f 370/1185/180 371/1186/181 391/1187/181 390/1188/180
f 371/1189/181 372/1190/182 392/1191/182 391/1192/181
f 372/1193/182 373/1194/183 393/1195/183 392/1196/182
f 373/1197/183 374/1198/184 394/1199/184 393/1200/183
f 374/1201/184 375/1202/185 395/1203/185 394/1204/184
f 375/1205/185 376/1206/186 396/1207/186 395/1208/185
f 376/1209/186 377/1210/187 397/1211/187 396/1212/186
f 377/1213/187 378/1214/188 398/1215/188 397/1216/187
f 378/1217/188 379/1218/189 399/1219/189 398/1220/188
f 379/1221/189 380/1222/190 400/1223/190 399/1224/189
f 380/1225/190 381/1226/191 401/1227/191 400/1228/190
f 381/1229/191 382/1230/192 402/1231/192 401/1232/191
f 382/1233/192 383/1234/193 403/1235/193 402/1236/192
f 383/1237/193 384/1238/194 404/1239/194 403/1240/193
f 384/1241/194 385/1242/195 405/1243/195 404/1244/194
f 385/1245/195 386/1246/196 406/1247/196 405/1248/195
f 386/1249/196 387/1250/197 407/1251/197 406/1252/196
f 387/1253/197 388/1254/198 408/1255/198 407/1256/197
f 408/1257/199 389/1258/199 369/1259/199 388/1260/199
f 370/1261/200 369/1262/200 409/1263/200
f 371/1264/200 370/1265/200 409/1266/200
f 372/1267/200 371/1268/200 409/1269/200
f 373/1270/200 372/1271/200 409/1272/200
f 374/1273/200 373/1274/200 409/1275/200
f 375/1276/200 374/1277/200 409/1278/200
f 376/1279/200 375/1280/200 409/1281/200
f 377/1282/200 376/1283/200 409/1284/200
f 378/1285/200 377/1286/200 409/1287/200
f 379/1288/200 378/1289/200 409/1290/200
f 380/1291/200 379/1292/200 409/1293/200
f 381/1294/200 380/1295/200 409/1296/200
f 382/1297/200 381/1298/200 409/1299/200
f 383/1300/200 382/1301/200 409/1302/200
f 384/1303/200 383/1304/200 409/1305/200
f 385/1306/200 384/1307/200 409/1308/200
f 386/1309/200 385/1310/200 409/1311/200
f 387/1312/200 386/1313/200 409/1314/200
f 388/1315/200 387/1316/200 409/1317/200
f 369/1318/200 388/1319/200 409/1320/200
f 410/1321/201 389/1322/201 390/1323/201
f 410/1324/201 390/1325/201 391/1326/201
f 410/1327/201 391/1328/201 392/1329/201
f 410/1330/201 392/1331/201 393/1332/201
f 410/1333/201 393/1334/201 394/1335/201
f 410/1336/201 394/1337/201 395/1338/201
f 410/1339/201 395/1340/201 396/1341/201
f 410/1342/201 396/1343/201 397/1344/201
f 410/1345/201 397/1346/201 398/1347/201
f 410/1348/201 398/1349/201 399/1350/201
f 410/1351/201 399/1352/201 400/1353/201
f 410/1354/201 400/1355/201 401/1356/201
f 410/1357/201 401/1358/201 402/1359/201
f 410/1360/201 402/1361/201 403/1362/201
f 410/1363/201 403/1364/201 404/1365/201
f 410/1366/201 404/1367/201 405/1368/201
f 410/1369/201 405/1370/201 406/1371/201
f 410/1372/201 406/1373/201 407/1374/201
f 410/1375/201 407/1376/201 408/1377/201
f 410/1378/201 408/1379/201 389/1380/201
o lens_r_on
usemtl emergency_glow
v 0.697249 0.550912 0.914357
v 0.696021 0.560615 0.907461
v 0.691366 0.568869 0.900152
v 0.683738 0.574865 0.893147
v 0.673886 0.578018 0.88713
v 0.662772 0.578018 0.882691
v 0.651485 0.574865 0.880264
v 0.641131 0.568869 0.880088
v 0.632721 0.560615 0.882178
v 0.62708 0.550912 0.886331
v 0.62476 0.540709 0.89214
v 0.625988 0.531006 0.899036
v 0.630643 0.522752 0.906345
v 0.638271 0.516756 0.91335
v 0.648123 0.513603 0.919367
v 0.659237 0.513603 0.923806
v 0.670523 0.516756 0.926233
v 0.680878 0.522752 0.926409
v 0.689288 0.531006 0.924319
v 0.694928 0.540709 0.920166
v 0.696205 0.552637 0.91697
v 0.694977 0.56234 0.910073
v 0.690322 0.570593 0.902765
v 0.682695 0.57659 0.895759
v 0.672842 0.579743 0.889743
v 0.661729 0.579743 0.885304
v 0.650442 0.57659 0.882877
v 0.640087 0.570593 0.8827
v 0.631678 0.56234 0.884791
v 0.626037 0.552637 0.888944
v 0.623717 0.542434 0.894753
v 0.624944 0.532731 0.901649
v 0.6296 0.524477 0.908957
v 0.637227 0.51848 0.915963
v 0.64708 0.515328 0.92198
v 0.658193 0.515328 0.926419
v 0.66948 0.51848 0.928845
v 0.679835 0.524477 0.929022
v 0.688244 0.532731 0.926932
v 0.693885 0.542434 0.922779
v 0.661004 0.54581 0.903249
v 0.659961 0.547535 0.905861
vt 0.787109 0.16717
vt 0.797087 0.159908
vt 0.79909 0.162659
vt 0.789112 0.169922
vt 0.404297 0.167227
vt 0.414069 0.159689
vt 0.416147 0.162384
vt 0.406375 0.169922
vt 0.568359 0.167186
vt 0.578283 0.159848
vt 0.580306 0.162585
vt 0.570383 0.169922
vt 0.037109 0.139705
vt 0.047527 0.133089
vt 0.049352 0.135962
vt 0.038934 0.142578
vt 0.685547 0.116059
vt 0.696722 0.110823
vt 0.698166 0.113905
vt 0.686991 0.119141
vt 0.841797 0.068969
vt 0.853752 0.065907
vt 0.854597 0.069204
vt 0.842641 0.072266
vt 0.732422 0.045426
vt 0.744761 0.045195
vt 0.744824 0.048598
vt 0.732485 0.048828
vt 0.037843 0.042846
vt 0.049894 0.045505
vt 0.049161 0.048828
vt 0.037109 0.046169
vt 0.905663 0.111069
vt 0.916966 0.116024
vt 0.9156 0.119141
vt 0.904297 0.114186
vt 0.257638 0.133226
vt 0.268159 0.139677
vt 0.266381 0.142578
vt 0.255859 0.136128
vt 0.898487 0.159908
vt 0.908465 0.16717
vt 0.906462 0.169922
vt 0.896484 0.162659
vt 0.351688 0.159689
vt 0.36146 0.167227
vt 0.359381 0.169922
vt 0.349609 0.162384
vt 0.62507 0.159848
vt 0.634993 0.167186
vt 0.63297 0.169922
vt 0.623047 0.162585
vt 0.148309 0.133089
vt 0.158727 0.139705
vt 0.156902 0.142578
vt 0.146484 0.135962
vt 0.632303 0.110823
vt 0.643479 0.116059
vt 0.642035 0.119141
vt 0.630859 0.113905
vt 0.952016 0.065907
vt 0.963972 0.068969
vt 0.963127 0.072266
vt 0.951172 0.069204
vt 0.62311 0.045195
vt 0.635449 0.045426
vt 0.635386 0.048828
vt 0.623047 0.048598
vt 0.201172 0.045505
vt 0.213223 0.042846
vt 0.213956 0.046169
vt 0.201905 0.048828
vt 0.794922 0.116024
vt 0.806225 0.111069
vt 0.807591 0.114186
vt 0.796288 0.119141
vt 0.375756 0.142578
vt 0.365234 0.136128
vt 0.367013 0.133226
vt 0.377534 0.139677
vt 0.430974 0.529525
vt 0.442615 0.533622
vt 0.423863 0.568324
vt 0.418636 0.529227
vt 0.430974 0.529525
vt 0.423863 0.568324
vt 0.40681 0.532756
vt 0.418636 0.529227
vt 0.423863 0.568324
vt 0.396654 0.539766
vt 0.40681 0.532756
vt 0.423863 0.568324
vt 0.38916 0.549572
vt 0.396654 0.539766
vt 0.423863 0.568324
vt 0.385064 0.561214
vt 0.38916 0.549572
vt 0.423863 0.568324
vt 0.384766 0.573551
vt 0.385064 0.561214
vt 0.423863 0.568324
vt 0.388294 0.585377
vt 0.384766 0.573551
vt 0.423863 0.568324
vt 0.395305 0.595534
vt 0.388294 0.585377
vt 0.423863 0.568324
vt 0.405111 0.603027
vt 0.395305 0.595534
vt 0.423863 0.568324
vt 0.416752 0.607124
vt 0.405111 0.603027
vt 0.423863 0.568324
vt 0.42909 0.607422
vt 0.416752 0.607124
vt 0.423863 0.568324
vt 0.440916 0.603893
vt 0.42909 0.607422
vt 0.423863 0.568324
vt 0.451073 0.596883
vt 0.440916 0.603893
vt 0.423863 0.568324
vt 0.458566 0.587077
vt 0.451073 0.596883
vt 0.423863 0.568324
vt 0.462662 0.575435
vt 0.458566 0.587077
vt 0.423863 0.568324
vt 0.462961 0.563098
vt 0.462662 0.575435
vt 0.423863 0.568324
vt 0.459432 0.551272
vt 0.462961 0.563098
vt 0.423863 0.568324
vt 0.452421 0.541115
vt 0.459432 0.551272
vt 0.423863 0.568324
vt 0.442615 0.533622
vt 0.452421 0.541115
vt 0.423863 0.568324
vt 0.822301 0.681606
vt 0.841053 0.716308
vt 0.829411 0.720405
vt 0.822301 0.681606
vt 0.829411 0.720405
vt 0.817074 0.720703
vt 0.822301 0.681606
vt 0.817074 0.720703
vt 0.805248 0.717174
vt 0.822301 0.681606
vt 0.805248 0.717174
vt 0.795091 0.710164
vt 0.822301 0.681606
vt 0.795091 0.710164
vt 0.787598 0.700358
vt 0.822301 0.681606
vt 0.787598 0.700358
vt 0.783501 0.688716
vt 0.822301 0.681606
vt 0.783501 0.688716
vt 0.783203 0.676379
vt 0.822301 0.681606
vt 0.783203 0.676379
vt 0.786732 0.664553
vt 0.822301 0.681606
vt 0.786732 0.664553
vt 0.793742 0.654396
vt 0.822301 0.681606
vt 0.793742 0.654396
vt 0.803548 0.646903
vt 0.822301 0.681606
vt 0.803548 0.646903
vt 0.81519 0.642807
vt 0.822301 0.681606
vt 0.81519 0.642807
vt 0.827527 0.642508
vt 0.822301 0.681606
vt 0.827527 0.642508
vt 0.839353 0.646037
vt 0.822301 0.681606
vt 0.839353 0.646037
vt 0.84951 0.653047
vt 0.822301 0.681606
vt 0.84951 0.653047
vt 0.857003 0.662853
vt 0.822301 0.681606
vt 0.857003 0.662853
vt 0.8611 0.674495
vt 0.822301 0.681606
vt 0.8611 0.674495
vt 0.861398 0.686833
vt 0.822301 0.681606
vt 0.861398 0.686833
vt 0.857869 0.698659
vt 0.822301 0.681606
vt 0.857869 0.698659
vt 0.850859 0.708815
vt 0.822301 0.681606
vt 0.850859 0.708815
vt 0.841053 0.716308
vn 0.943123 0.263445 0.202769
vn 0.915464 0.387038 0.110125
vn 0.793756 0.602826 -0.08095
vn 0.594349 0.759605 -0.264101
vn 0.336764 0.842029 -0.4214
vn 0.046213 0.842029 -0.53745
vn -0.248861 0.759605 -0.60089
vn -0.519574 0.602826 -0.605511
vn -0.739429 0.387038 -0.55086
vn -0.886902 0.133364 -0.442287
vn -0.94756 -0.133364 -0.29042
vn -0.915464 -0.387038 -0.110125
vn -0.793756 -0.602826 0.08095
vn -0.594349 -0.759605 0.264101
vn -0.336764 -0.842029 0.4214
vn -0.046213 -0.842029 0.53745
vn 0.248861 -0.759605 0.60089
vn 0.519574 -0.602826 0.605511
vn 0.739429 -0.387038 0.55086
vn 0.823302 -0.263445 0.502764
vn -0.928665 0 -0.37092
vn 0.316219 -0.522687 -0.791709
vn -0.316219 0.522687 0.791709
f 411/1381/202 412/1382/203 432/1383/203 431/1384/202
f 412/1385/203 413/1386/204 433/1387/204 432/1388/203
f 413/1389/204 414/1390/205 434/1391/205 433/1392/204
f 414/1393/205 415/1394/206 435/1395/206 434/1396/205
f 415/1397/206 416/1398/207 436/1399/207 435/1400/206
f 416/1401/207 417/1402/208 437/1403/208 436/1404/207
f 417/1405/208 418/1406/209 438/1407/209 437/1408/208
f 418/1409/209 419/1410/210 439/1411/210 438/1412/209
f 419/1413/210 420/1414/211 440/1415/211 439/1416/210
f 420/1417/211 421/1418/212 441/1419/212 440/1420/211
f 421/1421/212 422/1422/213 442/1423/213 441/1424/212
f 422/1425/213 423/1426/214 443/1427/214 442/1428/213
f 423/1429/214 424/1430/215 444/1431/215 443/1432/214
f 424/1433/215 425/1434/216 445/1435/216 444/1436/215
f 425/1437/216 426/1438/217 446/1439/217 445/1440/216
f 426/1441/217 427/1442/218 447/1443/218 446/1444/217
f 427/1445/218 428/1446/219 448/1447/219 447/1448/218
f 428/1449/219 429/1450/220 449/1451/220 448/1452/219
f 429/1453/220 430/1454/221 450/1455/221 449/1456/220
f 450/1457/222 431/1458/222 411/1459/222 430/1460/222
f 412/1461/223 411/1462/223 451/1463/223
f 413/1464/223 412/1465/223 451/1466/223
f 414/1467/223 413/1468/223 451/1469/223
f 415/1470/223 414/1471/223 451/1472/223
f 416/1473/223 415/1474/223 451/1475/223
f 417/1476/223 416/1477/223 451/1478/223
f 418/1479/223 417/1480/223 451/1481/223
f 419/1482/223 418/1483/223 451/1484/223
f 420/1485/223 419/1486/223 451/1487/223
f 421/1488/223 420/1489/223 451/1490/223
f 422/1491/223 421/1492/223 451/1493/223
f 423/1494/223 422/1495/223 451/1496/223
f 424/1497/223 423/1498/223 451/1499/223
f 425/1500/223 424/1501/223 451/1502/223
f 426/1503/223 425/1504/223 451/1505/223
f 427/1506/223 426/1507/223 451/1508/223
f 428/1509/223 427/1510/223 451/1511/223
f 429/1512/223 428/1513/223 451/1514/223
f 430/1515/223 429/1516/223 451/1517/223
f 411/1518/223 430/1519/223 451/1520/223
f 452/1521/224 431/1522/224 432/1523/224
f 452/1524/224 432/1525/224 433/1526/224
f 452/1527/224 433/1528/224 434/1529/224
f 452/1530/224 434/1531/224 435/1532/224
f 452/1533/224 435/1534/224 436/1535/224
f 452/1536/224 436/1537/224 437/1538/224
f 452/1539/224 437/1540/224 438/1541/224
f 452/1542/224 438/1543/224 439/1544/224
f 452/1545/224 439/1546/224 440/1547/224
f 452/1548/224 440/1549/224 441/1550/224
f 452/1551/224 441/1552/224 442/1553/224
f 452/1554/224 442/1555/224 443/1556/224
f 452/1557/224 443/1558/224 444/1559/224
f 452/1560/224 444/1561/224 445/1562/224
f 452/1563/224 445/1564/224 446/1565/224
f 452/1566/224 446/1567/224 447/1568/224
f 452/1569/224 447/1570/224 448/1571/224
f 452/1572/224 448/1573/224 449/1574/224
f 452/1575/224 449/1576/224 450/1577/224
f 452/1578/224 450/1579/224 431/1580/224
