# AFL Building Lights V1 linear light (lit, caps both), generated by tools/build-building-lights-v1.mjs
mtllib lit_both.mtl
o housing
usemtl linear
v 0 0 0.46
v 0 0 0.54
v 0 0.055 0.54
v 0 0.058536 0.538536
v 0 0.06 0.535
v 0 0.06 0.533
v 0 0.012 0.533
v 0 0.012 0.467
v 0 0.06 0.467
v 0 0.06 0.465
v 0 0.058536 0.461464
v 0 0.055 0.46
v 1 0 0.46
v 1 0 0.54
v 1 0.055 0.54
v 1 0.058536 0.538536
v 1 0.06 0.535
v 1 0.06 0.533
v 1 0.012 0.533
v 1 0.012 0.467
v 1 0.06 0.467
v 1 0.06 0.465
v 1 0.058536 0.461464
v 1 0.055 0.46
v 0 0 0.46
v 0 0 0.54
v 0 0.055 0.54
v 0 0.058536 0.538536
v 0 0.06 0.535
v 0 0.06 0.533
v 0 0.012 0.533
v 0 0.012 0.467
v 0 0.06 0.467
v 0 0.06 0.465
v 0 0.058536 0.461464
v 0 0.055 0.46
v 1 0 0.46
v 1 0 0.54
v 1 0.055 0.54
v 1 0.058536 0.538536
v 1 0.06 0.535
v 1 0.06 0.533
v 1 0.012 0.533
v 1 0.012 0.467
v 1 0.06 0.467
v 1 0.06 0.465
v 1 0.058536 0.461464
v 1 0.055 0.46
vt 0.754883 0.935117
vt 0.754883 0.995117
vt 0.004883 0.995117
vt 0.004883 0.935117
vt 0.954102 0.717539
vt 0.954102 0.758789
vt 0.204102 0.758789
vt 0.204102 0.717539
vt 0.004883 0.385742
vt 0.004883 0.382872
vt 0.754883 0.382872
vt 0.754883 0.385742
vt 0.004883 0.366211
vt 0.004883 0.363341
vt 0.754883 0.363341
vt 0.754883 0.366211
vt 0.004883 0.338867
vt 0.004883 0.337367
vt 0.754883 0.337367
vt 0.754883 0.338867
vt 0.004883 0.655273
vt 0.004883 0.619273
vt 0.754883 0.619273
vt 0.754883 0.655273
vt 0.004883 0.928711
vt 0.004883 0.879211
vt 0.754883 0.879211
vt 0.754883 0.928711
vt 0.754883 0.576305
vt 0.754883 0.612305
vt 0.004883 0.612305
vt 0.004883 0.576305
vt 0.004883 0.331055
vt 0.004883 0.329555
vt 0.754883 0.329555
vt 0.754883 0.331055
vt 0.004883 0.356445
vt 0.004883 0.353575
vt 0.754883 0.353575
vt 0.754883 0.356445
vt 0.004883 0.375977
vt 0.004883 0.373106
vt 0.754883 0.373106
vt 0.754883 0.375977
vt 0.004883 0.704102
vt 0.004883 0.662852
vt 0.754883 0.662852
vt 0.754883 0.704102
vt 0.131289 0.713789
vt 0.131289 0.755039
vt 0.130191 0.757691
vt 0.131289 0.713789
vt 0.130191 0.757691
vt 0.127539 0.758789
vt 0.131289 0.713789
vt 0.127539 0.758789
vt 0.126039 0.758789
vt 0.131289 0.713789
vt 0.126039 0.758789
vt 0.126039 0.722789
vt 0.071289 0.713789
vt 0.131289 0.713789
vt 0.126039 0.722789
vt 0.071289 0.713789
vt 0.126039 0.722789
vt 0.076539 0.722789
vt 0.071289 0.755039
vt 0.071289 0.713789
vt 0.076539 0.722789
vt 0.071289 0.755039
vt 0.076539 0.722789
vt 0.076539 0.758789
vt 0.071289 0.755039
vt 0.076539 0.758789
vt 0.075039 0.758789
vt 0.075039 0.758789
vt 0.072387 0.757691
vt 0.071289 0.755039
vt 0.196597 0.714887
vt 0.197695 0.717539
vt 0.197695 0.758789
vt 0.193945 0.713789
vt 0.196597 0.714887
vt 0.197695 0.758789
vt 0.192445 0.713789
vt 0.193945 0.713789
vt 0.197695 0.758789
vt 0.192445 0.749789
vt 0.192445 0.713789
vt 0.197695 0.758789
vt 0.192445 0.749789
vt 0.197695 0.758789
vt 0.137695 0.758789
vt 0.142945 0.749789
vt 0.192445 0.749789
vt 0.137695 0.758789
vt 0.142945 0.749789
vt 0.137695 0.758789
vt 0.137695 0.717539
vt 0.142945 0.713789
vt 0.142945 0.749789
vt 0.137695 0.717539
vt 0.141445 0.713789
vt 0.142945 0.713789
vt 0.137695 0.717539
vt 0.137695 0.717539
vt 0.138794 0.714887
vt 0.141445 0.713789
vn 0 -1 0
vn 0 0 1
vn 0 0.025011 0.999687
vn 0 0.382683 0.92388
vn 0 0.92388 0.382683
vn 0 0.966741 0.255758
vn 0 1 0
vn 0 0 -1
vn 0 0.966741 -0.255758
vn 0 0.92388 -0.382683
vn 0 0.382683 -0.92388
vn 0 0.025011 -0.999687
vn -1 0 0
vn 1 0 0
f 13/1/1 14/2/1 2/3/1 1/4/1
f 14/5/2 15/6/3 3/7/3 2/8/2
f 15/9/3 16/10/4 4/11/4 3/12/3
f 16/13/5 17/14/6 5/15/6 4/16/5
f 17/17/6 18/18/7 6/19/7 5/20/6
f 18/21/8 19/22/8 7/23/8 6/24/8
f 19/25/7 20/26/7 8/27/7 7/28/7
f 20/29/2 21/30/2 9/31/2 8/32/2
f 21/33/7 22/34/9 10/35/9 9/36/7
f 22/37/9 23/38/10 11/39/10 10/40/9
f 23/41/11 24/42/12 12/43/12 11/44/11
f 24/45/12 13/46/8 1/47/8 12/48/12
f 26/49/13 27/50/13 28/51/13
f 26/52/13 28/53/13 29/54/13
f 26/55/13 29/56/13 30/57/13
f 26/58/13 30/59/13 31/60/13
f 25/61/13 26/62/13 31/63/13
f 25/64/13 31/65/13 32/66/13
f 36/67/13 25/68/13 32/69/13
f 36/70/13 32/71/13 33/72/13
f 36/73/13 33/74/13 34/75/13
f 34/76/13 35/77/13 36/78/13
f 40/79/14 39/80/14 38/81/14
f 41/82/14 40/83/14 38/84/14
f 42/85/14 41/86/14 38/87/14
f 43/88/14 42/89/14 38/90/14
f 43/91/14 38/92/14 37/93/14
f 44/94/14 43/95/14 37/96/14
f 44/97/14 37/98/14 48/99/14
f 45/100/14 44/101/14 48/102/14
f 46/103/14 45/104/14 48/105/14
f 48/106/14 47/107/14 46/108/14
o lens_lit
usemtl linear_glow
v 0 0.054 0.4672
v 0 0.054 0.5328
v 0 0.06 0.5328
v 0 0.062296 0.5246
v 0 0.064243 0.5164
v 0 0.065543 0.5082
v 0 0.066 0.5
v 0 0.065543 0.4918
v 0 0.064243 0.4836
v 0 0.062296 0.4754
v 0 0.06 0.4672
v 1 0.054 0.4672
v 1 0.054 0.5328
v 1 0.06 0.5328
v 1 0.062296 0.5246
v 1 0.064243 0.5164
v 1 0.065543 0.5082
v 1 0.066 0.5
v 1 0.065543 0.4918
v 1 0.064243 0.4836
v 1 0.062296 0.4754
v 1 0.06 0.4672
v 0 0.054 0.4672
v 0 0.054 0.5328
v 0 0.06 0.5328
v 0 0.062296 0.5246
v 0 0.064243 0.5164
v 0 0.065543 0.5082
v 0 0.066 0.5
v 0 0.065543 0.4918
v 0 0.064243 0.4836
v 0 0.062296 0.4754
v 0 0.06 0.4672
v 1 0.054 0.4672
v 1 0.054 0.5328
v 1 0.06 0.5328
v 1 0.062296 0.5246
v 1 0.064243 0.5164
v 1 0.065543 0.5082
v 1 0.066 0.5
v 1 0.065543 0.4918
v 1 0.064243 0.4836
v 1 0.062296 0.4754
v 1 0.06 0.4672
vt 0.754883 0.76623
vt 0.754883 0.81543
vt 0.004883 0.81543
vt 0.004883 0.76623
vt 0.754883 0.40468
vt 0.754883 0.40918
vt 0.004883 0.40918
vt 0.004883 0.40468
vt 0.004883 0.532227
vt 0.004883 0.525903
vt 0.754883 0.525903
vt 0.754883 0.532227
vt 0.004883 0.525903
vt 0.004883 0.519614
vt 0.754883 0.519614
vt 0.754883 0.525903
vt 0.004883 0.519614
vt 0.004883 0.513389
vt 0.754883 0.513389
vt 0.754883 0.519614
vt 0.004883 0.513389
vt 0.004883 0.507247
vt 0.754883 0.507247
vt 0.754883 0.513389
vt 0.004883 0.507247
vt 0.004883 0.501197
vt 0.754883 0.501197
vt 0.754883 0.507247
vt 0.004883 0.469727
vt 0.004883 0.463512
vt 0.754883 0.463512
vt 0.754883 0.469727
vt 0.004883 0.463512
vt 0.004883 0.457192
vt 0.754883 0.457192
vt 0.754883 0.463512
vt 0.004883 0.457192
vt 0.004883 0.450814
vt 0.754883 0.450814
vt 0.754883 0.457192
vt 0.004883 0.397461
vt 0.004883 0.392961
vt 0.754883 0.392961
vt 0.754883 0.397461
vt 0.874023 0.465227
vt 0.874023 0.460727
vt 0.923223 0.460727
vt 0.874023 0.465227
vt 0.923223 0.460727
vt 0.923223 0.465227
vt 0.874023 0.465227
vt 0.923223 0.465227
vt 0.917073 0.466949
vt 0.874023 0.465227
vt 0.917073 0.466949
vt 0.910923 0.468409
vt 0.874023 0.465227
vt 0.910923 0.468409
vt 0.904773 0.469384
vt 0.874023 0.465227
vt 0.904773 0.469384
vt 0.898623 0.469727
vt 0.874023 0.465227
vt 0.898623 0.469727
vt 0.892473 0.469384
vt 0.874023 0.465227
vt 0.892473 0.469384
vt 0.886323 0.468409
vt 0.886323 0.468409
vt 0.880173 0.466949
vt 0.874023 0.465227
vt 0.979864 0.469727
vt 0.930664 0.469727
vt 0.930664 0.465227
vt 0.979864 0.465227
vt 0.979864 0.469727
vt 0.930664 0.465227
vt 0.973714 0.463504
vt 0.979864 0.465227
vt 0.930664 0.465227
vt 0.967564 0.462045
vt 0.973714 0.463504
vt 0.930664 0.465227
vt 0.961414 0.461069
vt 0.967564 0.462045
vt 0.930664 0.465227
vt 0.955264 0.460727
vt 0.961414 0.461069
vt 0.930664 0.465227
vt 0.949114 0.461069
vt 0.955264 0.460727
vt 0.930664 0.465227
vt 0.942964 0.462045
vt 0.949114 0.461069
vt 0.930664 0.465227
vt 0.930664 0.465227
vt 0.936814 0.463504
vt 0.942964 0.462045
vn 0 -1 0
vn 0 0 1
vn 0 0.962961 0.269641
vn 0 0.968129 0.250453
vn 0 0.980956 0.194228
vn 0 0.994308 0.106546
vn 0 1 0
vn 0 0.994308 -0.106546
vn 0 0.980956 -0.194228
vn 0 0.968129 -0.250453
vn 0 0.962961 -0.269641
vn 0 0 -1
vn -1 0 0
vn 1 0 0
f 60/109/15 61/110/15 50/111/15 49/112/15
f 61/113/16 62/114/16 51/115/16 50/116/16
f 62/117/17 63/118/18 52/119/18 51/120/17
f 63/121/18 64/122/19 53/123/19 52/124/18
f 64/125/19 65/126/20 54/127/20 53/128/19
f 65/129/20 66/130/21 55/131/21 54/132/20
f 66/133/21 67/134/22 56/135/22 55/136/21
f 67/137/22 68/138/23 57/139/23 56/140/22
f 68/141/23 69/142/24 58/143/24 57/144/23
f 69/145/24 70/146/25 59/147/25 58/148/24
f 70/149/26 60/150/26 49/151/26 59/152/26
f 81/153/27 71/154/27 72/155/27
f 81/156/27 72/157/27 73/158/27
f 81/159/27 73/160/27 74/161/27
f 81/162/27 74/163/27 75/164/27
f 81/165/27 75/166/27 76/167/27
f 81/168/27 76/169/27 77/170/27
f 81/171/27 77/172/27 78/173/27
f 81/174/27 78/175/27 79/176/27
f 79/177/27 80/178/27 81/179/27
f 83/180/28 82/181/28 92/182/28
f 84/183/28 83/184/28 92/185/28
f 85/186/28 84/187/28 92/188/28
f 86/189/28 85/190/28 92/191/28
f 87/192/28 86/193/28 92/194/28
f 88/195/28 87/196/28 92/197/28
f 89/198/28 88/199/28 92/200/28
f 90/201/28 89/202/28 92/203/28
f 92/204/28 91/205/28 90/206/28
o cap_neg
usemtl linear
v -0.0004 0.060695 0.5398
v -0.0004 0.063386 0.539079
v -0.0004 0.065279 0.537186
v -0.0004 0.066 0.534495
v -0.0004 0.066 0.465505
v -0.0004 0.065279 0.462814
v -0.0004 0.063386 0.460921
v -0.0004 0.060695 0.4602
v -0.0004 0.006405 0.4602
v -0.0004 0.003714 0.460921
v -0.0004 0.001821 0.462814
v -0.0004 0.0011 0.465505
v -0.0004 0.0011 0.534495
v -0.0004 0.001821 0.537186
v -0.0004 0.003714 0.539079
v -0.0004 0.006405 0.5398
v 0.0004 0.0608 0.5406
v 0.0004 0.0638 0.539796
v 0.0004 0.065996 0.5376
v 0.0004 0.0668 0.5346
v 0.0004 0.0668 0.4654
v 0.0004 0.065996 0.4624
v 0.0004 0.0638 0.460204
v 0.0004 0.0608 0.4594
v 0.0004 0.0063 0.4594
v 0.0004 0.0033 0.460204
v 0.0004 0.001104 0.4624
v 0.0004 0.0003 0.4654
v 0.0004 0.0003 0.5346
v 0.0004 0.001104 0.5376
v 0.0004 0.0033 0.539796
v 0.0004 0.0063 0.5406
v 0.0027 0.0608 0.5406
v 0.0027 0.0638 0.539796
v 0.0027 0.065996 0.5376
v 0.0027 0.0668 0.5346
v 0.0027 0.0668 0.4654
v 0.0027 0.065996 0.4624
v 0.0027 0.0638 0.460204
v 0.0027 0.0608 0.4594
v 0.0027 0.0063 0.4594
v 0.0027 0.0033 0.460204
v 0.0027 0.001104 0.4624
v 0.0027 0.0003 0.4654
v 0.0027 0.0003 0.5346
v 0.0027 0.001104 0.5376
v 0.0027 0.0033 0.539796
v 0.0027 0.0063 0.5406
v 0.0035 0.060695 0.5398
v 0.0035 0.063386 0.539079
v 0.0035 0.065279 0.537186
v 0.0035 0.066 0.534495
v 0.0035 0.066 0.465505
v 0.0035 0.065279 0.462814
v 0.0035 0.063386 0.460921
v 0.0035 0.060695 0.4602
v 0.0035 0.006405 0.4602
v 0.0035 0.003714 0.460921
v 0.0035 0.001821 0.462814
v 0.0035 0.0011 0.465505
v 0.0035 0.0011 0.534495
v 0.0035 0.001821 0.537186
v 0.0035 0.003714 0.539079
v 0.0035 0.006405 0.5398
v -0.0004 0.060695 0.5398
v -0.0004 0.063386 0.539079
v -0.0004 0.065279 0.537186
v -0.0004 0.066 0.534495
v -0.0004 0.066 0.465505
v -0.0004 0.065279 0.462814
v -0.0004 0.063386 0.460921
v -0.0004 0.060695 0.4602
v -0.0004 0.006405 0.4602
v -0.0004 0.003714 0.460921
v -0.0004 0.001821 0.462814
v -0.0004 0.0011 0.465505
v -0.0004 0.0011 0.534495
v -0.0004 0.001821 0.537186
v -0.0004 0.003714 0.539079
v -0.0004 0.006405 0.5398
v 0.0035 0.060695 0.5398
v 0.0035 0.063386 0.539079
v 0.0035 0.065279 0.537186
v 0.0035 0.066 0.534495
v 0.0035 0.066 0.465505
v 0.0035 0.065279 0.462814
v 0.0035 0.063386 0.460921
v 0.0035 0.060695 0.4602
v 0.0035 0.006405 0.4602
v 0.0035 0.003714 0.460921
v 0.0035 0.001821 0.462814
v 0.0035 0.0011 0.465505
v 0.0035 0.0011 0.534495
v 0.0035 0.001821 0.537186
v 0.0035 0.003714 0.539079
v 0.0035 0.006405 0.5398
vt 0.300083 0.440674
vt 0.297852 0.440041
vt 0.298237 0.439268
vt 0.300238 0.439836
vt 0.772768 0.3551
vt 0.770866 0.356445
vt 0.770508 0.35566
vt 0.772147 0.3545
vt 0.179936 0.322812
vt 0.177657 0.323242
vt 0.177578 0.322394
vt 0.179622 0.322008
vt 0.177657 0.323242
vt 0.125977 0.323242
vt 0.126055 0.322394
vt 0.177578 0.322394
vt 0.782562 0.331055
vt 0.780273 0.330621
vt 0.780589 0.329817
vt 0.782642 0.330206
vt 0.762644 0.356445
vt 0.760742 0.3551
vt 0.761363 0.3545
vt 0.763003 0.35566
vt 0.249023 0.443563
vt 0.251255 0.44293
vt 0.25141 0.443768
vt 0.249408 0.444336
vt 0.251255 0.44293
vt 0.291792 0.439268
vt 0.29179 0.44012
vt 0.25141 0.443768
vt 0.651594 0.345118
vt 0.653772 0.345943
vt 0.653321 0.34668
vt 0.651367 0.345939
vt 0.80957 0.355845
vt 0.811472 0.3545
vt 0.811831 0.355286
vt 0.810191 0.356445
vt 0.186523 0.322438
vt 0.188803 0.322008
vt 0.188882 0.322856
vt 0.186837 0.323242
vt 0.188803 0.322008
vt 0.240483 0.322008
vt 0.240405 0.322856
vt 0.188882 0.322856
vt 0.799885 0.329817
vt 0.802174 0.330251
vt 0.801858 0.331055
vt 0.799805 0.330666
vt 0.907585 0.3545
vt 0.909487 0.355845
vt 0.908866 0.356445
vt 0.907227 0.355286
vt 0.663538 0.345854
vt 0.66136 0.34668
vt 0.661133 0.345858
vt 0.663087 0.345118
vt 0.34062 0.444336
vt 0.300083 0.440674
vt 0.300238 0.439836
vt 0.340619 0.443484
vt 0.563477 0.344955
vt 0.565806 0.344955
vt 0.565806 0.34668
vt 0.563477 0.34668
vt 0.370493 0.34668
vt 0.368164 0.34668
vt 0.368164 0.344955
vt 0.370493 0.344955
vt 0.409556 0.34668
vt 0.407227 0.34668
vt 0.407227 0.344955
vt 0.409556 0.344955
vt 0.968892 0.356445
vt 0.916992 0.356445
vt 0.916992 0.35472
vt 0.968892 0.35472
vt 0.419322 0.34668
vt 0.416992 0.34668
vt 0.416992 0.344955
vt 0.419322 0.344955
vt 0.380259 0.34668
vt 0.37793 0.34668
vt 0.37793 0.344955
vt 0.380259 0.344955
vt 0.575572 0.34668
vt 0.573242 0.34668
vt 0.573242 0.344955
vt 0.575572 0.344955
vt 0.315289 0.34668
vt 0.274414 0.34668
vt 0.274414 0.344955
vt 0.315289 0.344955
vt 0.46815 0.34668
vt 0.46582 0.34668
vt 0.46582 0.344955
vt 0.46815 0.344955
vt 0.504883 0.344955
vt 0.507212 0.344955
vt 0.507212 0.34668
vt 0.504883 0.34668
vt 0.514648 0.344955
vt 0.516978 0.344955
vt 0.516978 0.34668
vt 0.514648 0.34668
vt 0.004883 0.344955
vt 0.056783 0.344955
vt 0.056783 0.34668
vt 0.004883 0.34668
vt 0.524414 0.344955
vt 0.526743 0.344955
vt 0.526743 0.34668
vt 0.524414 0.34668
vt 0.475586 0.344955
vt 0.477915 0.344955
vt 0.477915 0.34668
vt 0.475586 0.34668
vt 0.446289 0.344955
vt 0.448618 0.344955
vt 0.448618 0.34668
vt 0.446289 0.34668
vt 0.180664 0.344955
vt 0.221539 0.344955
vt 0.221539 0.34668
vt 0.180664 0.34668
vt 0.142921 0.439836
vt 0.144922 0.439268
vt 0.145307 0.440041
vt 0.143076 0.440674
vt 0.791678 0.356445
vt 0.790039 0.355286
vt 0.790398 0.3545
vt 0.7923 0.355845
vt 0.95306 0.331055
vt 0.951015 0.330669
vt 0.951094 0.32982
vt 0.953374 0.33025
vt 0.951015 0.330669
vt 0.899492 0.330669
vt 0.899414 0.32982
vt 0.951094 0.32982
vt 0.763111 0.330666
vt 0.761058 0.331055
vt 0.760742 0.330251
vt 0.763031 0.329817
vt 0.821596 0.355286
vt 0.819957 0.356445
vt 0.819336 0.355845
vt 0.821238 0.3545
vt 0.047266 0.444336
vt 0.045264 0.443768
vt 0.04542 0.44293
vt 0.047651 0.443563
vt 0.045264 0.443768
vt 0.004884 0.44012
vt 0.004883 0.439268
vt 0.04542 0.44293
vt 0.624475 0.345939
vt 0.622521 0.34668
vt 0.62207 0.345943
vt 0.624249 0.345118
vt 0.829723 0.3545
vt 0.831362 0.35566
vt 0.831003 0.356445
vt 0.829102 0.3551
vt 0.005197 0.322008
vt 0.007241 0.322394
vt 0.007162 0.323242
vt 0.004883 0.322812
vt 0.007241 0.322394
vt 0.058765 0.322394
vt 0.058843 0.323242
vt 0.007162 0.323242
vt 0.819336 0.330206
vt 0.821389 0.329817
vt 0.821705 0.330621
vt 0.819416 0.331055
vt 0.838867 0.35566
vt 0.840507 0.3545
vt 0.841128 0.3551
vt 0.839226 0.356445
vt 0.60299 0.345118
vt 0.604944 0.345858
vt 0.604717 0.34668
vt 0.602539 0.345854
vt 0.10254 0.443484
vt 0.142921 0.439836
vt 0.143076 0.440674
vt 0.102539 0.444336
vt 0.953255 0.770734
vt 0.953255 0.811451
vt 0.952714 0.813469
vt 0.953255 0.770734
vt 0.952714 0.813469
vt 0.951294 0.814889
vt 0.953255 0.770734
vt 0.951294 0.814889
vt 0.949276 0.81543
vt 0.953255 0.770734
vt 0.949276 0.81543
vt 0.897534 0.81543
vt 0.953255 0.770734
vt 0.897534 0.81543
vt 0.895515 0.814889
vt 0.953255 0.770734
vt 0.895515 0.814889
vt 0.894096 0.813469
vt 0.953255 0.770734
vt 0.894096 0.813469
vt 0.893555 0.811451
vt 0.953255 0.770734
vt 0.893555 0.811451
vt 0.893555 0.770734
vt 0.953255 0.770734
vt 0.893555 0.770734
vt 0.894096 0.768715
vt 0.953255 0.770734
vt 0.894096 0.768715
vt 0.895515 0.767296
vt 0.953255 0.770734
vt 0.895515 0.767296
vt 0.897534 0.766755
vt 0.953255 0.770734
vt 0.897534 0.766755
vt 0.949276 0.766755
vt 0.953255 0.770734
vt 0.949276 0.766755
vt 0.951294 0.767296
vt 0.951294 0.767296
vt 0.952714 0.768715
vt 0.953255 0.770734
vt 0.819901 0.768715
vt 0.820442 0.770734
vt 0.820442 0.811451
vt 0.818482 0.767296
vt 0.819901 0.768715
vt 0.820442 0.811451
vt 0.816463 0.766755
vt 0.818482 0.767296
vt 0.820442 0.811451
vt 0.764721 0.766755
vt 0.816463 0.766755
vt 0.820442 0.811451
vt 0.762703 0.767296
vt 0.764721 0.766755
vt 0.820442 0.811451
vt 0.761283 0.768715
vt 0.762703 0.767296
vt 0.820442 0.811451
vt 0.760742 0.770734
vt 0.761283 0.768715
vt 0.820442 0.811451
vt 0.760742 0.811451
vt 0.760742 0.770734
vt 0.820442 0.811451
vt 0.761283 0.813469
vt 0.760742 0.811451
vt 0.820442 0.811451
vt 0.762703 0.814889
vt 0.761283 0.813469
vt 0.820442 0.811451
vt 0.764721 0.81543
vt 0.762703 0.814889
vt 0.820442 0.811451
vt 0.816463 0.81543
vt 0.764721 0.81543
vt 0.820442 0.811451
vt 0.818482 0.814889
vt 0.816463 0.81543
vt 0.820442 0.811451
vt 0.820442 0.811451
vt 0.819901 0.813469
vt 0.818482 0.814889
vn -0.707695 0.00941 0.706456
vn -0.719254 0.345867 0.602537
vn -0.719254 0.602537 0.345867
vn -0.70758 0.706594 0.007489
vn -0.70758 0.706594 -0.007489
vn -0.719254 0.602537 -0.345867
vn -0.719254 0.345867 -0.602537
vn -0.707695 0.00941 -0.706456
vn -0.707695 -0.00941 -0.706456
vn -0.719254 -0.345867 -0.602537
vn -0.719254 -0.602537 -0.345867
vn -0.70758 -0.706594 -0.007489
vn -0.70758 -0.706594 0.007489
vn -0.719254 -0.602537 0.345867
vn -0.719254 -0.345867 0.602537
vn -0.707695 -0.00941 0.706456
vn 0 0.013979 0.999902
vn 0 0.5 0.866025
vn 0 0.866025 0.5
vn 0 0.999938 0.011133
vn 0 0.999938 -0.011133
vn 0 0.866025 -0.5
vn 0 0.5 -0.866025
vn 0 0.013979 -0.999902
vn 0 -0.013979 -0.999902
vn 0 -0.5 -0.866025
vn 0 -0.866025 -0.5
vn 0 -0.999938 -0.011133
vn 0 -0.999938 0.011133
vn 0 -0.866025 0.5
vn 0 -0.5 0.866025
vn 0 -0.013979 0.999902
vn 0.707695 0.00941 0.706456
vn 0.719254 0.345867 0.602537
vn 0.719254 0.602537 0.345867
vn 0.70758 0.706594 0.007489
vn 0.70758 0.706594 -0.007489
vn 0.719254 0.602537 -0.345867
vn 0.719254 0.345867 -0.602537
vn 0.707695 0.00941 -0.706456
vn 0.707695 -0.00941 -0.706456
vn 0.719254 -0.345867 -0.602537
vn 0.719254 -0.602537 -0.345867
vn 0.70758 -0.706594 -0.007489
vn 0.70758 -0.706594 0.007489
vn 0.719254 -0.602537 0.345867
vn 0.719254 -0.345867 0.602537
vn 0.707695 -0.00941 0.706456
vn -1 0 0
vn 1 0 0
f 109/207/29 110/208/30 94/209/30 93/210/29
f 110/211/30 111/212/31 95/213/31 94/214/30
f 111/215/31 112/216/32 96/217/32 95/218/31
f 112/219/32 113/220/33 97/221/33 96/222/32
f 113/223/33 114/224/34 98/225/34 97/226/33
f 114/227/34 115/228/35 99/229/35 98/230/34
f 115/231/35 116/232/36 100/233/36 99/234/35
f 116/235/36 117/236/37 101/237/37 100/238/36
f 117/239/37 118/240/38 102/241/38 101/242/37
f 118/243/38 119/244/39 103/245/39 102/246/38
f 119/247/39 120/248/40 104/249/40 103/250/39
f 120/251/40 121/252/41 105/253/41 104/254/40
f 121/255/41 122/256/42 106/257/42 105/258/41
f 122/259/42 123/260/43 107/261/43 106/262/42
f 123/263/43 124/264/44 108/265/44 107/266/43
f 124/267/44 109/268/29 93/269/29 108/270/44
f 125/271/45 126/272/46 110/273/46 109/274/45
f 126/275/46 127/276/47 111/277/47 110/278/46
f 127/279/47 128/280/48 112/281/48 111/282/47
f 128/283/48 129/284/49 113/285/49 112/286/48
f 129/287/49 130/288/50 114/289/50 113/290/49
f 130/291/50 131/292/51 115/293/51 114/294/50
f 131/295/51 132/296/52 116/297/52 115/298/51
f 132/299/52 133/300/53 117/301/53 116/302/52
f 133/303/53 134/304/54 118/305/54 117/306/53
f 134/307/54 135/308/55 119/309/55 118/310/54
f 135/311/55 136/312/56 120/313/56 119/314/55
f 136/315/56 137/316/57 121/317/57 120/318/56
f 137/319/57 138/320/58 122/321/58 121/322/57
f 138/323/58 139/324/59 123/325/59 122/326/58
f 139/327/59 140/328/60 124/329/60 123/330/59
f 140/331/60 125/332/45 109/333/45 124/334/60
f 141/335/61 142/336/62 126/337/62 125/338/61
f 142/339/62 143/340/63 127/341/63 126/342/62
f 143/343/63 144/344/64 128/345/64 127/346/63
f 144/347/64 145/348/65 129/349/65 128/350/64
f 145/351/65 146/352/66 130/353/66 129/354/65
f 146/355/66 147/356/67 131/357/67 130/358/66
f 147/359/67 148/360/68 132/361/68 131/362/67
f 148/363/68 149/364/69 133/365/69 132/366/68
f 149/367/69 150/368/70 134/369/70 133/370/69
f 150/371/70 151/372/71 135/373/71 134/374/70
f 151/375/71 152/376/72 136/377/72 135/378/71
f 152/379/72 153/380/73 137/381/73 136/382/72
f 153/383/73 154/384/74 138/385/74 137/386/73
f 154/387/74 155/388/75 139/389/75 138/390/74
f 155/391/75 156/392/76 140/393/76 139/394/75
f 156/395/76 141/396/61 125/397/61 140/398/76
f 172/399/77 157/400/77 158/401/77
f 172/402/77 158/403/77 159/404/77
f 172/405/77 159/406/77 160/407/77
f 172/408/77 160/409/77 161/410/77
f 172/411/77 161/412/77 162/413/77
f 172/414/77 162/415/77 163/416/77
f 172/417/77 163/418/77 164/419/77
f 172/420/77 164/421/77 165/422/77
f 172/423/77 165/424/77 166/425/77
f 172/426/77 166/427/77 167/428/77
f 172/429/77 167/430/77 168/431/77
f 172/432/77 168/433/77 169/434/77
f 172/435/77 169/436/77 170/437/77
f 170/438/77 171/439/77 172/440/77
f 174/441/78 173/442/78 188/443/78
f 175/444/78 174/445/78 188/446/78
f 176/447/78 175/448/78 188/449/78
f 177/450/78 176/451/78 188/452/78
f 178/453/78 177/454/78 188/455/78
f 179/456/78 178/457/78 188/458/78
f 180/459/78 179/460/78 188/461/78
f 181/462/78 180/463/78 188/464/78
f 182/465/78 181/466/78 188/467/78
f 183/468/78 182/469/78 188/470/78
f 184/471/78 183/472/78 188/473/78
f 185/474/78 184/475/78 188/476/78
f 186/477/78 185/478/78 188/479/78
f 188/480/78 187/481/78 186/482/78
o cap_pos
usemtl linear
v 0.9965 0.060695 0.5398
v 0.9965 0.063386 0.539079
v 0.9965 0.065279 0.537186
v 0.9965 0.066 0.534495
v 0.9965 0.066 0.465505
v 0.9965 0.065279 0.462814
v 0.9965 0.063386 0.460921
v 0.9965 0.060695 0.4602
v 0.9965 0.006405 0.4602
v 0.9965 0.003714 0.460921
v 0.9965 0.001821 0.462814
v 0.9965 0.0011 0.465505
v 0.9965 0.0011 0.534495
v 0.9965 0.001821 0.537186
v 0.9965 0.003714 0.539079
v 0.9965 0.006405 0.5398
v 0.9973 0.0608 0.5406
v 0.9973 0.0638 0.539796
v 0.9973 0.065996 0.5376
v 0.9973 0.0668 0.5346
v 0.9973 0.0668 0.4654
v 0.9973 0.065996 0.4624
v 0.9973 0.0638 0.460204
v 0.9973 0.0608 0.4594
v 0.9973 0.0063 0.4594
v 0.9973 0.0033 0.460204
v 0.9973 0.001104 0.4624
v 0.9973 0.0003 0.4654
v 0.9973 0.0003 0.5346
v 0.9973 0.001104 0.5376
v 0.9973 0.0033 0.539796
v 0.9973 0.0063 0.5406
v 0.9996 0.0608 0.5406
v 0.9996 0.0638 0.539796
v 0.9996 0.065996 0.5376
v 0.9996 0.0668 0.5346
v 0.9996 0.0668 0.4654
v 0.9996 0.065996 0.4624
v 0.9996 0.0638 0.460204
v 0.9996 0.0608 0.4594
v 0.9996 0.0063 0.4594
v 0.9996 0.0033 0.460204
v 0.9996 0.001104 0.4624
v 0.9996 0.0003 0.4654
v 0.9996 0.0003 0.5346
v 0.9996 0.001104 0.5376
v 0.9996 0.0033 0.539796
v 0.9996 0.0063 0.5406
v 1.0004 0.060695 0.5398
v 1.0004 0.063386 0.539079
v 1.0004 0.065279 0.537186
v 1.0004 0.066 0.534495
v 1.0004 0.066 0.465505
v 1.0004 0.065279 0.462814
v 1.0004 0.063386 0.460921
v 1.0004 0.060695 0.4602
v 1.0004 0.006405 0.4602
v 1.0004 0.003714 0.460921
v 1.0004 0.001821 0.462814
v 1.0004 0.0011 0.465505
v 1.0004 0.0011 0.534495
v 1.0004 0.001821 0.537186
v 1.0004 0.003714 0.539079
v 1.0004 0.006405 0.5398
v 0.9965 0.060695 0.5398
v 0.9965 0.063386 0.539079
v 0.9965 0.065279 0.537186
v 0.9965 0.066 0.534495
v 0.9965 0.066 0.465505
v 0.9965 0.065279 0.462814
v 0.9965 0.063386 0.460921
v 0.9965 0.060695 0.4602
v 0.9965 0.006405 0.4602
v 0.9965 0.003714 0.460921
v 0.9965 0.001821 0.462814
v 0.9965 0.0011 0.465505
v 0.9965 0.0011 0.534495
v 0.9965 0.001821 0.537186
v 0.9965 0.003714 0.539079
v 0.9965 0.006405 0.5398
v 1.0004 0.060695 0.5398
v 1.0004 0.063386 0.539079
v 1.0004 0.065279 0.537186
v 1.0004 0.066 0.534495
v 1.0004 0.066 0.465505
v 1.0004 0.065279 0.462814
v 1.0004 0.063386 0.460921
v 1.0004 0.060695 0.4602
v 1.0004 0.006405 0.4602
v 1.0004 0.003714 0.460921
v 1.0004 0.001821 0.462814
v 1.0004 0.0011 0.465505
v 1.0004 0.0011 0.534495
v 1.0004 0.001821 0.537186
v 1.0004 0.003714 0.539079
v 1.0004 0.006405 0.5398
vt 0.153599 0.440674
vt 0.151367 0.440041
vt 0.151752 0.439268
vt 0.153754 0.439836
vt 0.802065 0.3551
vt 0.800163 0.356445
vt 0.799805 0.35566
vt 0.801444 0.3545
vt 0.361577 0.322812
vt 0.359298 0.323242
vt 0.359218 0.322394
vt 0.361263 0.322008
vt 0.359298 0.323242
vt 0.307617 0.323242
vt 0.307695 0.322394
vt 0.359218 0.322394
vt 0.772796 0.331055
vt 0.770508 0.330621
vt 0.770824 0.329817
vt 0.772877 0.330206
vt 0.850535 0.356445
vt 0.848633 0.3551
vt 0.849254 0.3545
vt 0.850893 0.35566
vt 0.053711 0.443563
vt 0.055942 0.44293
vt 0.056098 0.443768
vt 0.054096 0.444336
vt 0.055942 0.44293
vt 0.096479 0.439268
vt 0.096478 0.44012
vt 0.056098 0.443768
vt 0.632063 0.345118
vt 0.634241 0.345943
vt 0.63379 0.34668
vt 0.631836 0.345939
vt 0.858398 0.355845
vt 0.8603 0.3545
vt 0.860659 0.355286
vt 0.85902 0.356445
vt 0.06543 0.322438
vt 0.067709 0.322008
vt 0.067788 0.322856
vt 0.065744 0.323242
vt 0.067709 0.322008
vt 0.119389 0.322008
vt 0.119311 0.322856
vt 0.067788 0.322856
vt 0.829182 0.329817
vt 0.831471 0.330251
vt 0.831155 0.331055
vt 0.829102 0.330666
vt 0.878288 0.3545
vt 0.88019 0.355845
vt 0.879569 0.356445
vt 0.87793 0.355286
vt 0.644007 0.345854
vt 0.641828 0.34668
vt 0.641602 0.345858
vt 0.643556 0.345118
vt 0.194136 0.444336
vt 0.153599 0.440674
vt 0.153754 0.439836
vt 0.194134 0.443484
vt 0.583008 0.344955
vt 0.585337 0.344955
vt 0.585337 0.34668
vt 0.583008 0.34668
vt 0.390025 0.34668
vt 0.387695 0.34668
vt 0.387695 0.344955
vt 0.390025 0.344955
vt 0.429087 0.34668
vt 0.426758 0.34668
vt 0.426758 0.344955
vt 0.429087 0.344955
vt 0.115377 0.34668
vt 0.063477 0.34668
vt 0.063477 0.344955
vt 0.115377 0.344955
vt 0.438853 0.34668
vt 0.436523 0.34668
vt 0.436523 0.344955
vt 0.438853 0.344955
vt 0.39979 0.34668
vt 0.397461 0.34668
vt 0.397461 0.344955
vt 0.39979 0.344955
vt 0.595103 0.34668
vt 0.592773 0.34668
vt 0.592773 0.344955
vt 0.595103 0.344955
vt 0.362164 0.34668
vt 0.321289 0.34668
vt 0.321289 0.344955
vt 0.362164 0.344955
vt 0.487681 0.34668
vt 0.485352 0.34668
vt 0.485352 0.344955
vt 0.487681 0.344955
vt 0.53418 0.344955
vt 0.536509 0.344955
vt 0.536509 0.34668
vt 0.53418 0.34668
vt 0.543945 0.344955
vt 0.546275 0.344955
vt 0.546275 0.34668
vt 0.543945 0.34668
vt 0.12207 0.344955
vt 0.17397 0.344955
vt 0.17397 0.34668
vt 0.12207 0.34668
vt 0.553711 0.344955
vt 0.55604 0.344955
vt 0.55604 0.34668
vt 0.553711 0.34668
vt 0.495117 0.344955
vt 0.497447 0.344955
vt 0.497447 0.34668
vt 0.495117 0.34668
vt 0.456055 0.344955
vt 0.458384 0.344955
vt 0.458384 0.34668
vt 0.456055 0.34668
vt 0.227539 0.344955
vt 0.268414 0.344955
vt 0.268414 0.34668
vt 0.227539 0.34668
vt 0.240577 0.439836
vt 0.242579 0.439268
vt 0.242964 0.440041
vt 0.240732 0.440674
vt 0.781913 0.356445
vt 0.780273 0.355286
vt 0.780632 0.3545
vt 0.782534 0.355845
vt 0.892513 0.331055
vt 0.890468 0.330669
vt 0.890548 0.32982
vt 0.892827 0.33025
vt 0.890468 0.330669
vt 0.838945 0.330669
vt 0.838867 0.32982
vt 0.890548 0.32982
vt 0.792408 0.330666
vt 0.790355 0.331055
vt 0.790039 0.330251
vt 0.792328 0.329817
vt 0.899721 0.355286
vt 0.898082 0.356445
vt 0.897461 0.355845
vt 0.899363 0.3545
vt 0.389063 0.444336
vt 0.387061 0.443768
vt 0.387217 0.44293
vt 0.389448 0.443563
vt 0.387061 0.443768
vt 0.346681 0.44012
vt 0.34668 0.439268
vt 0.387217 0.44293
vt 0.61471 0.345939
vt 0.612756 0.34668
vt 0.612305 0.345943
vt 0.614483 0.345118
vt 0.868785 0.3545
vt 0.870425 0.35566
vt 0.870066 0.356445
vt 0.868164 0.3551
vt 0.247384 0.322008
vt 0.249429 0.322394
vt 0.24935 0.323242
vt 0.24707 0.322812
vt 0.249429 0.322394
vt 0.300952 0.322394
vt 0.30103 0.323242
vt 0.24935 0.323242
vt 0.80957 0.330206
vt 0.811623 0.329817
vt 0.811939 0.330621
vt 0.809651 0.331055
vt 0.887695 0.35566
vt 0.889335 0.3545
vt 0.889956 0.3551
vt 0.888054 0.356445
vt 0.671349 0.345118
vt 0.673303 0.345858
vt 0.673077 0.34668
vt 0.670898 0.345854
vt 0.200197 0.443484
vt 0.240577 0.439836
vt 0.240732 0.440674
vt 0.200195 0.444336
vt 0.886848 0.770734
vt 0.886848 0.811451
vt 0.886308 0.813469
vt 0.886848 0.770734
vt 0.886308 0.813469
vt 0.884888 0.814889
vt 0.886848 0.770734
vt 0.884888 0.814889
vt 0.882869 0.81543
vt 0.886848 0.770734
vt 0.882869 0.81543
vt 0.831127 0.81543
vt 0.886848 0.770734
vt 0.831127 0.81543
vt 0.829109 0.814889
vt 0.886848 0.770734
vt 0.829109 0.814889
vt 0.827689 0.813469
vt 0.886848 0.770734
vt 0.827689 0.813469
vt 0.827148 0.811451
vt 0.886848 0.770734
vt 0.827148 0.811451
vt 0.827148 0.770734
vt 0.886848 0.770734
vt 0.827148 0.770734
vt 0.827689 0.768715
vt 0.886848 0.770734
vt 0.827689 0.768715
vt 0.829109 0.767296
vt 0.886848 0.770734
vt 0.829109 0.767296
vt 0.831127 0.766755
vt 0.886848 0.770734
vt 0.831127 0.766755
vt 0.882869 0.766755
vt 0.886848 0.770734
vt 0.882869 0.766755
vt 0.884888 0.767296
vt 0.884888 0.767296
vt 0.886308 0.768715
vt 0.886848 0.770734
vt 0.064042 0.712075
vt 0.064583 0.714093
vt 0.064583 0.75481
vt 0.062622 0.710655
vt 0.064042 0.712075
vt 0.064583 0.75481
vt 0.060604 0.710114
vt 0.062622 0.710655
vt 0.064583 0.75481
vt 0.008862 0.710114
vt 0.060604 0.710114
vt 0.064583 0.75481
vt 0.006843 0.710655
vt 0.008862 0.710114
vt 0.064583 0.75481
vt 0.005424 0.712075
vt 0.006843 0.710655
vt 0.064583 0.75481
vt 0.004883 0.714093
vt 0.005424 0.712075
vt 0.064583 0.75481
vt 0.004883 0.75481
vt 0.004883 0.714093
vt 0.064583 0.75481
vt 0.005424 0.756828
vt 0.004883 0.75481
vt 0.064583 0.75481
vt 0.006843 0.758248
vt 0.005424 0.756828
vt 0.064583 0.75481
vt 0.008862 0.758789
vt 0.006843 0.758248
vt 0.064583 0.75481
vt 0.060604 0.758789
vt 0.008862 0.758789
vt 0.064583 0.75481
vt 0.062622 0.758248
vt 0.060604 0.758789
vt 0.064583 0.75481
vt 0.064583 0.75481
vt 0.064042 0.756828
vt 0.062622 0.758248
vn -0.707695 0.00941 0.706456
vn -0.719254 0.345867 0.602537
vn -0.719254 0.602537 0.345867
vn -0.70758 0.706594 0.007489
vn -0.70758 0.706594 -0.007489
vn -0.719254 0.602537 -0.345867
vn -0.719254 0.345867 -0.602537
vn -0.707695 0.00941 -0.706456
vn -0.707695 -0.00941 -0.706456
vn -0.719254 -0.345867 -0.602537
vn -0.719254 -0.602537 -0.345867
vn -0.70758 -0.706594 -0.007489
vn -0.70758 -0.706594 0.007489
vn -0.719254 -0.602537 0.345867
vn -0.719254 -0.345867 0.602537
vn -0.707695 -0.00941 0.706456
vn 0 0.013979 0.999902
vn 0 0.5 0.866025
vn 0 0.866025 0.5
vn 0 0.999938 0.011133
vn 0 0.999938 -0.011133
vn 0 0.866025 -0.5
vn 0 0.5 -0.866025
vn 0 0.013979 -0.999902
vn 0 -0.013979 -0.999902
vn 0 -0.5 -0.866025
vn 0 -0.866025 -0.5
vn 0 -0.999938 -0.011133
vn 0 -0.999938 0.011133
vn 0 -0.866025 0.5
vn 0 -0.5 0.866025
vn 0 -0.013979 0.999902
vn 0.707695 0.00941 0.706456
vn 0.719254 0.345867 0.602537
vn 0.719254 0.602537 0.345867
vn 0.70758 0.706594 0.007489
vn 0.70758 0.706594 -0.007489
vn 0.719254 0.602537 -0.345867
vn 0.719254 0.345867 -0.602537
vn 0.707695 0.00941 -0.706456
vn 0.707695 -0.00941 -0.706456
vn 0.719254 -0.345867 -0.602537
vn 0.719254 -0.602537 -0.345867
vn 0.70758 -0.706594 -0.007489
vn 0.70758 -0.706594 0.007489
vn 0.719254 -0.602537 0.345867
vn 0.719254 -0.345867 0.602537
vn 0.707695 -0.00941 0.706456
vn -1 0 0
vn 1 0 0
f 205/483/79 206/484/80 190/485/80 189/486/79
f 206/487/80 207/488/81 191/489/81 190/490/80
f 207/491/81 208/492/82 192/493/82 191/494/81
f 208/495/82 209/496/83 193/497/83 192/498/82
f 209/499/83 210/500/84 194/501/84 193/502/83
f 210/503/84 211/504/85 195/505/85 194/506/84
f 211/507/85 212/508/86 196/509/86 195/510/85
f 212/511/86 213/512/87 197/513/87 196/514/86
f 213/515/87 214/516/88 198/517/88 197/518/87
f 214/519/88 215/520/89 199/521/89 198/522/88
f 215/523/89 216/524/90 200/525/90 199/526/89
f 216/527/90 217/528/91 201/529/91 200/530/90
f 217/531/91 218/532/92 202/533/92 201/534/91
f 218/535/92 219/536/93 203/537/93 202/538/92
f 219/539/93 220/540/94 204/541/94 203/542/93
f 220/543/94 205/544/79 189/545/79 204/546/94
f 221/547/95 222/548/96 206/549/96 205/550/95
f 222/551/96 223/552/97 207/553/97 206/554/96
f 223/555/97 224/556/98 208/557/98 207/558/97
f 224/559/98 225/560/99 209/561/99 208/562/98
f 225/563/99 226/564/100 210/565/100 209/566/99
f 226/567/100 227/568/101 211/569/101 210/570/100
f 227/571/101 228/572/102 212/573/102 211/574/101
f 228/575/102 229/576/103 213/577/103 212/578/102
f 229/579/103 230/580/104 214/581/104 213/582/103
f 230/583/104 231/584/105 215/585/105 214/586/104
f 231/587/105 232/588/106 216/589/106 215/590/105
f 232/591/106 233/592/107 217/593/107 216/594/106
f 233/595/107 234/596/108 218/597/108 217/598/107
f 234/599/108 235/600/109 219/601/109 218/602/108
f 235/603/109 236/604/110 220/605/110 219/606/109
f 236/607/110 221/608/95 205/609/95 220/610/110
f 237/611/111 238/612/112 222/613/112 221/614/111
f 238/615/112 239/616/113 223/617/113 222/618/112
f 239/619/113 240/620/114 224/621/114 223/622/113
f 240/623/114 241/624/115 225/625/115 224/626/114
f 241/627/115 242/628/116 226/629/116 225/630/115
f 242/631/116 243/632/117 227/633/117 226/634/116
f 243/635/117 244/636/118 228/637/118 227/638/117
f 244/639/118 245/640/119 229/641/119 228/642/118
f 245/643/119 246/644/120 230/645/120 229/646/119
f 246/647/120 247/648/121 231/649/121 230/650/120
f 247/651/121 248/652/122 232/653/122 231/654/121
f 248/655/122 249/656/123 233/657/123 232/658/122
f 249/659/123 250/660/124 234/661/124 233/662/123
f 250/663/124 251/664/125 235/665/125 234/666/124
f 251/667/125 252/668/126 236/669/126 235/670/125
f 252/671/126 237/672/111 221/673/111 236/674/126
f 268/675/127 253/676/127 254/677/127
f 268/678/127 254/679/127 255/680/127
f 268/681/127 255/682/127 256/683/127
f 268/684/127 256/685/127 257/686/127
f 268/687/127 257/688/127 258/689/127
f 268/690/127 258/691/127 259/692/127
f 268/693/127 259/694/127 260/695/127
f 268/696/127 260/697/127 261/698/127
f 268/699/127 261/700/127 262/701/127
f 268/702/127 262/703/127 263/704/127
f 268/705/127 263/706/127 264/707/127
f 268/708/127 264/709/127 265/710/127
f 268/711/127 265/712/127 266/713/127
f 266/714/127 267/715/127 268/716/127
f 270/717/128 269/718/128 284/719/128
f 271/720/128 270/721/128 284/722/128
f 272/723/128 271/724/128 284/725/128
f 273/726/128 272/727/128 284/728/128
f 274/729/128 273/730/128 284/731/128
f 275/732/128 274/733/128 284/734/128
f 276/735/128 275/736/128 284/737/128
f 277/738/128 276/739/128 284/740/128
f 278/741/128 277/742/128 284/743/128
f 279/744/128 278/745/128 284/746/128
f 280/747/128 279/748/128 284/749/128
f 281/750/128 280/751/128 284/752/128
f 282/753/128 281/754/128 284/755/128
f 284/756/128 283/757/128 282/758/128
