# AFL Building Lights V1 linear light (off, caps none), generated by tools/build-building-lights-v1.mjs
mtllib off_none.mtl
o housing
usemtl linear
v 0 0 0.46
v 0 0 0.54
v 0 0.055 0.54
v 0 0.058536 0.538536
v 0 0.06 0.535
v 0 0.06 0.533
v 0 0.012 0.533
v 0 0.012 0.467
v 0 0.06 0.467
v 0 0.06 0.465
v 0 0.058536 0.461464
v 0 0.055 0.46
v 1 0 0.46
v 1 0 0.54
v 1 0.055 0.54
v 1 0.058536 0.538536
v 1 0.06 0.535
v 1 0.06 0.533
v 1 0.012 0.533
v 1 0.012 0.467
v 1 0.06 0.467
v 1 0.06 0.465
v 1 0.058536 0.461464
v 1 0.055 0.46
v 0 0 0.46
v 0 0 0.54
v 0 0.055 0.54
v 0 0.058536 0.538536
v 0 0.06 0.535
v 0 0.06 0.533
v 0 0.012 0.533
v 0 0.012 0.467
v 0 0.06 0.467
v 0 0.06 0.465
v 0 0.058536 0.461464
v 0 0.055 0.46
v 1 0 0.46
v 1 0 0.54
v 1 0.055 0.54
v 1 0.058536 0.538536
v 1 0.06 0.535
v 1 0.06 0.533
v 1 0.012 0.533
v 1 0.012 0.467
v 1 0.06 0.467
v 1 0.06 0.465
v 1 0.058536 0.461464
v 1 0.055 0.46
vt 0.754883 0.935117
vt 0.754883 0.995117
vt 0.004883 0.995117
vt 0.004883 0.935117
vt 0.954102 0.717539
vt 0.954102 0.758789
vt 0.204102 0.758789
vt 0.204102 0.717539
vt 0.004883 0.385742
vt 0.004883 0.382872
vt 0.754883 0.382872
vt 0.754883 0.385742
vt 0.004883 0.366211
vt 0.004883 0.363341
vt 0.754883 0.363341
vt 0.754883 0.366211
vt 0.004883 0.338867
vt 0.004883 0.337367
vt 0.754883 0.337367
vt 0.754883 0.338867
vt 0.004883 0.655273
vt 0.004883 0.619273
vt 0.754883 0.619273
vt 0.754883 0.655273
vt 0.004883 0.928711
vt 0.004883 0.879211
vt 0.754883 0.879211
vt 0.754883 0.928711
vt 0.754883 0.576305
vt 0.754883 0.612305
vt 0.004883 0.612305
vt 0.004883 0.576305
vt 0.004883 0.331055
vt 0.004883 0.329555
vt 0.754883 0.329555
vt 0.754883 0.331055
vt 0.004883 0.356445
vt 0.004883 0.353575
vt 0.754883 0.353575
vt 0.754883 0.356445
vt 0.004883 0.375977
vt 0.004883 0.373106
vt 0.754883 0.373106
vt 0.754883 0.375977
vt 0.004883 0.704102
vt 0.004883 0.662852
vt 0.754883 0.662852
vt 0.754883 0.704102
vt 0.131289 0.713789
vt 0.131289 0.755039
vt 0.130191 0.757691
vt 0.131289 0.713789
vt 0.130191 0.757691
vt 0.127539 0.758789
vt 0.131289 0.713789
vt 0.127539 0.758789
vt 0.126039 0.758789
vt 0.131289 0.713789
vt 0.126039 0.758789
vt 0.126039 0.722789
vt 0.071289 0.713789
vt 0.131289 0.713789
vt 0.126039 0.722789
vt 0.071289 0.713789
vt 0.126039 0.722789
vt 0.076539 0.722789
vt 0.071289 0.755039
vt 0.071289 0.713789
vt 0.076539 0.722789
vt 0.071289 0.755039
vt 0.076539 0.722789
vt 0.076539 0.758789
vt 0.071289 0.755039
vt 0.076539 0.758789
vt 0.075039 0.758789
vt 0.075039 0.758789
vt 0.072387 0.757691
vt 0.071289 0.755039
vt 0.196597 0.714887
vt 0.197695 0.717539
vt 0.197695 0.758789
vt 0.193945 0.713789
vt 0.196597 0.714887
vt 0.197695 0.758789
vt 0.192445 0.713789
vt 0.193945 0.713789
vt 0.197695 0.758789
vt 0.192445 0.749789
vt 0.192445 0.713789
vt 0.197695 0.758789
vt 0.192445 0.749789
vt 0.197695 0.758789
vt 0.137695 0.758789
vt 0.142945 0.749789
vt 0.192445 0.749789
vt 0.137695 0.758789
vt 0.142945 0.749789
vt 0.137695 0.758789
vt 0.137695 0.717539
vt 0.142945 0.713789
vt 0.142945 0.749789
vt 0.137695 0.717539
vt 0.141445 0.713789
vt 0.142945 0.713789
vt 0.137695 0.717539
vt 0.137695 0.717539
vt 0.138794 0.714887
vt 0.141445 0.713789
vn 0 -1 0
vn 0 0 1
vn 0 0.025011 0.999687
vn 0 0.382683 0.92388
vn 0 0.92388 0.382683
vn 0 0.966741 0.255758
vn 0 1 0
vn 0 0 -1
vn 0 0.966741 -0.255758
vn 0 0.92388 -0.382683
vn 0 0.382683 -0.92388
vn 0 0.025011 -0.999687
vn -1 0 0
vn 1 0 0
f 13/1/1 14/2/1 2/3/1 1/4/1
f 14/5/2 15/6/3 3/7/3 2/8/2
f 15/9/3 16/10/4 4/11/4 3/12/3
f 16/13/5 17/14/6 5/15/6 4/16/5
f 17/17/6 18/18/7 6/19/7 5/20/6
f 18/21/8 19/22/8 7/23/8 6/24/8
f 19/25/7 20/26/7 8/27/7 7/28/7
f 20/29/2 21/30/2 9/31/2 8/32/2
f 21/33/7 22/34/9 10/35/9 9/36/7
f 22/37/9 23/38/10 11/39/10 10/40/9
f 23/41/11 24/42/12 12/43/12 11/44/11
f 24/45/12 13/46/8 1/47/8 12/48/12
f 26/49/13 27/50/13 28/51/13
f 26/52/13 28/53/13 29/54/13
f 26/55/13 29/56/13 30/57/13
f 26/58/13 30/59/13 31/60/13
f 25/61/13 26/62/13 31/63/13
f 25/64/13 31/65/13 32/66/13
f 36/67/13 25/68/13 32/69/13
f 36/70/13 32/71/13 33/72/13
f 36/73/13 33/74/13 34/75/13
f 34/76/13 35/77/13 36/78/13
f 40/79/14 39/80/14 38/81/14
f 41/82/14 40/83/14 38/84/14
f 42/85/14 41/86/14 38/87/14
f 43/88/14 42/89/14 38/90/14
f 43/91/14 38/92/14 37/93/14
f 44/94/14 43/95/14 37/96/14
f 44/97/14 37/98/14 48/99/14
f 45/100/14 44/101/14 48/102/14
f 46/103/14 45/104/14 48/105/14
f 48/106/14 47/107/14 46/108/14
o lens_off
usemtl linear
v 0 0.054 0.4672
v 0 0.054 0.5328
v 0 0.06 0.5328
v 0 0.062296 0.5246
v 0 0.064243 0.5164
v 0 0.065543 0.5082
v 0 0.066 0.5
v 0 0.065543 0.4918
v 0 0.064243 0.4836
v 0 0.062296 0.4754
v 0 0.06 0.4672
v 1 0.054 0.4672
v 1 0.054 0.5328
v 1 0.06 0.5328
v 1 0.062296 0.5246
v 1 0.064243 0.5164
v 1 0.065543 0.5082
v 1 0.066 0.5
v 1 0.065543 0.4918
v 1 0.064243 0.4836
v 1 0.062296 0.4754
v 1 0.06 0.4672
v 0 0.054 0.4672
v 0 0.054 0.5328
v 0 0.06 0.5328
v 0 0.062296 0.5246
v 0 0.064243 0.5164
v 0 0.065543 0.5082
v 0 0.066 0.5
v 0 0.065543 0.4918
v 0 0.064243 0.4836
v 0 0.062296 0.4754
v 0 0.06 0.4672
v 1 0.054 0.4672
v 1 0.054 0.5328
v 1 0.06 0.5328
v 1 0.062296 0.5246
v 1 0.064243 0.5164
v 1 0.065543 0.5082
v 1 0.066 0.5
v 1 0.065543 0.4918
v 1 0.064243 0.4836
v 1 0.062296 0.4754
v 1 0.06 0.4672
vt 0.754883 0.82287
vt 0.754883 0.87207
vt 0.004883 0.87207
vt 0.004883 0.82287
vt 0.754883 0.428117
vt 0.754883 0.432617
vt 0.004883 0.432617
vt 0.004883 0.428117
vt 0.004883 0.569336
vt 0.004883 0.563012
vt 0.754883 0.563012
vt 0.754883 0.569336
vt 0.004883 0.563012
vt 0.004883 0.556723
vt 0.754883 0.556723
vt 0.754883 0.563012
vt 0.004883 0.556723
vt 0.004883 0.550498
vt 0.754883 0.550498
vt 0.754883 0.556723
vt 0.004883 0.550498
vt 0.004883 0.544357
vt 0.754883 0.544357
vt 0.754883 0.550498
vt 0.004883 0.544357
vt 0.004883 0.538306
vt 0.754883 0.538306
vt 0.754883 0.544357
vt 0.004883 0.495117
vt 0.004883 0.488903
vt 0.754883 0.488903
vt 0.754883 0.495117
vt 0.004883 0.488903
vt 0.004883 0.482583
vt 0.754883 0.482583
vt 0.754883 0.488903
vt 0.004883 0.482583
vt 0.004883 0.476205
vt 0.754883 0.476205
vt 0.754883 0.482583
vt 0.004883 0.420898
vt 0.004883 0.416398
vt 0.754883 0.416398
vt 0.754883 0.420898
vt 0.760742 0.465227
vt 0.760742 0.460727
vt 0.809942 0.460727
vt 0.760742 0.465227
vt 0.809942 0.460727
vt 0.809942 0.465227
vt 0.760742 0.465227
vt 0.809942 0.465227
vt 0.803792 0.466949
vt 0.760742 0.465227
vt 0.803792 0.466949
vt 0.797642 0.468409
vt 0.760742 0.465227
vt 0.797642 0.468409
vt 0.791492 0.469384
vt 0.760742 0.465227
vt 0.791492 0.469384
vt 0.785342 0.469727
vt 0.760742 0.465227
vt 0.785342 0.469727
vt 0.779192 0.469384
vt 0.760742 0.465227
vt 0.779192 0.469384
vt 0.773042 0.468409
vt 0.773042 0.468409
vt 0.766892 0.466949
vt 0.760742 0.465227
vt 0.866583 0.469727
vt 0.817383 0.469727
vt 0.817383 0.465227
vt 0.866583 0.465227
vt 0.866583 0.469727
vt 0.817383 0.465227
vt 0.860433 0.463504
vt 0.866583 0.465227
vt 0.817383 0.465227
vt 0.854283 0.462045
vt 0.860433 0.463504
vt 0.817383 0.465227
vt 0.848133 0.461069
vt 0.854283 0.462045
vt 0.817383 0.465227
vt 0.841983 0.460727
vt 0.848133 0.461069
vt 0.817383 0.465227
vt 0.835833 0.461069
vt 0.841983 0.460727
vt 0.817383 0.465227
vt 0.829683 0.462045
vt 0.835833 0.461069
vt 0.817383 0.465227
vt 0.817383 0.465227
vt 0.823533 0.463504
vt 0.829683 0.462045
vn 0 -1 0
vn 0 0 1
vn 0 0.962961 0.269641
vn 0 0.968129 0.250453
vn 0 0.980956 0.194228
vn 0 0.994308 0.106546
vn 0 1 0
vn 0 0.994308 -0.106546
vn 0 0.980956 -0.194228
vn 0 0.968129 -0.250453
vn 0 0.962961 -0.269641
vn 0 0 -1
vn -1 0 0
vn 1 0 0
f 60/109/15 61/110/15 50/111/15 49/112/15
f 61/113/16 62/114/16 51/115/16 50/116/16
f 62/117/17 63/118/18 52/119/18 51/120/17
f 63/121/18 64/122/19 53/123/19 52/124/18
f 64/125/19 65/126/20 54/127/20 53/128/19
f 65/129/20 66/130/21 55/131/21 54/132/20
f 66/133/21 67/134/22 56/135/22 55/136/21
f 67/137/22 68/138/23 57/139/23 56/140/22
f 68/141/23 69/142/24 58/143/24 57/144/23
f 69/145/24 70/146/25 59/147/25 58/148/24
f 70/149/26 60/150/26 49/151/26 59/152/26
f 81/153/27 71/154/27 72/155/27
f 81/156/27 72/157/27 73/158/27
f 81/159/27 73/160/27 74/161/27
f 81/162/27 74/163/27 75/164/27
f 81/165/27 75/166/27 76/167/27
f 81/168/27 76/169/27 77/170/27
f 81/171/27 77/172/27 78/173/27
f 81/174/27 78/175/27 79/176/27
f 79/177/27 80/178/27 81/179/27
f 83/180/28 82/181/28 92/182/28
f 84/183/28 83/184/28 92/185/28
f 85/186/28 84/187/28 92/188/28
f 86/189/28 85/190/28 92/191/28
f 87/192/28 86/193/28 92/194/28
f 88/195/28 87/196/28 92/197/28
f 89/198/28 88/199/28 92/200/28
f 90/201/28 89/202/28 92/203/28
f 92/204/28 91/205/28 90/206/28
