# AFL Storage Rack V1 core_upper, generated by tools/build-storage-rack-v1.mjs
mtllib core_upper.mtl
o core_upper__core_upper_beams
usemtl storage_rack
v 0.125 0.36875 0.3625
v 0.125 0.36875 0.375
v 0.125 0.421875 0.375
v 0.125 0.421875 0.409375
v 0.125 0.4375 0.409375
v 0.125 0.4375 0.3625
v 0.875 0.36875 0.3625
v 0.875 0.36875 0.375
v 0.875 0.421875 0.375
v 0.875 0.421875 0.409375
v 0.875 0.4375 0.409375
v 0.875 0.4375 0.3625
v 0.125 0.36875 0.3625
v 0.125 0.36875 0.375
v 0.125 0.421875 0.375
v 0.125 0.421875 0.409375
v 0.125 0.4375 0.409375
v 0.125 0.4375 0.3625
v 0.875 0.36875 0.3625
v 0.875 0.36875 0.375
v 0.875 0.421875 0.375
v 0.875 0.421875 0.409375
v 0.875 0.4375 0.409375
v 0.875 0.4375 0.3625
v 0.125 0.4375 0.9875
v 0.125 0.4375 0.940625
v 0.125 0.421875 0.940625
v 0.125 0.421875 0.975
v 0.125 0.36875 0.975
v 0.125 0.36875 0.9875
v 0.875 0.4375 0.9875
v 0.875 0.4375 0.940625
v 0.875 0.421875 0.940625
v 0.875 0.421875 0.975
v 0.875 0.36875 0.975
v 0.875 0.36875 0.9875
v 0.125 0.4375 0.9875
v 0.125 0.4375 0.940625
v 0.125 0.421875 0.940625
v 0.125 0.421875 0.975
v 0.125 0.36875 0.975
v 0.125 0.36875 0.9875
v 0.875 0.4375 0.9875
v 0.875 0.4375 0.940625
v 0.875 0.421875 0.940625
v 0.875 0.421875 0.975
v 0.875 0.36875 0.975
v 0.875 0.36875 0.9875
v 0.125 0.81875 0.3625
v 0.125 0.81875 0.375
v 0.125 0.871875 0.375
v 0.125 0.871875 0.409375
v 0.125 0.8875 0.409375
v 0.125 0.8875 0.3625
v 0.875 0.81875 0.3625
v 0.875 0.81875 0.375
v 0.875 0.871875 0.375
v 0.875 0.871875 0.409375
v 0.875 0.8875 0.409375
v 0.875 0.8875 0.3625
v 0.125 0.81875 0.3625
v 0.125 0.81875 0.375
v 0.125 0.871875 0.375
v 0.125 0.871875 0.409375
v 0.125 0.8875 0.409375
v 0.125 0.8875 0.3625
v 0.875 0.81875 0.3625
v 0.875 0.81875 0.375
v 0.875 0.871875 0.375
v 0.875 0.871875 0.409375
v 0.875 0.8875 0.409375
v 0.875 0.8875 0.3625
v 0.125 0.8875 0.9875
v 0.125 0.8875 0.940625
v 0.125 0.871875 0.940625
v 0.125 0.871875 0.975
v 0.125 0.81875 0.975
v 0.125 0.81875 0.9875
v 0.875 0.8875 0.9875
v 0.875 0.8875 0.940625
v 0.875 0.871875 0.940625
v 0.875 0.871875 0.975
v 0.875 0.81875 0.975
v 0.875 0.81875 0.9875
v 0.125 0.8875 0.9875
v 0.125 0.8875 0.940625
v 0.125 0.871875 0.940625
v 0.125 0.871875 0.975
v 0.125 0.81875 0.975
v 0.125 0.81875 0.9875
v 0.875 0.8875 0.9875
v 0.875 0.8875 0.940625
v 0.875 0.871875 0.940625
v 0.875 0.871875 0.975
v 0.875 0.81875 0.975
v 0.875 0.81875 0.9875
vt 0.163574 0.084717
vt 0.163574 0.087402
vt 0.002441 0.087402
vt 0.002441 0.084717
vt 0.163574 0.388489
vt 0.163574 0.399902
vt 0.002441 0.399902
vt 0.002441 0.388489
vt 0.163574 0.204041
vt 0.163574 0.211426
vt 0.002441 0.211426
vt 0.002441 0.204041
vt 0.163574 0.179749
vt 0.163574 0.183105
vt 0.002441 0.183105
vt 0.002441 0.179749
vt 0.494629 0.312988
vt 0.494629 0.302917
vt 0.655762 0.302917
vt 0.655762 0.312988
vt 0.822754 0.598145
vt 0.822754 0.583374
vt 0.983887 0.583374
vt 0.983887 0.598145
vt 0.596191 0.289246
vt 0.610962 0.289246
vt 0.610962 0.291931
vt 0.596191 0.289246
vt 0.610962 0.291931
vt 0.599548 0.291931
vt 0.596191 0.289246
vt 0.599548 0.291931
vt 0.599548 0.299316
vt 0.599548 0.299316
vt 0.596191 0.299316
vt 0.596191 0.289246
vt 0.614746 0.291931
vt 0.614746 0.289246
vt 0.629517 0.289246
vt 0.62616 0.291931
vt 0.614746 0.291931
vt 0.629517 0.289246
vt 0.62616 0.299316
vt 0.62616 0.291931
vt 0.629517 0.289246
vt 0.629517 0.289246
vt 0.629517 0.299316
vt 0.62616 0.299316
vt 0.658691 0.312988
vt 0.658691 0.302917
vt 0.819824 0.302917
vt 0.819824 0.312988
vt 0.166504 0.183105
vt 0.166504 0.179749
vt 0.327637 0.179749
vt 0.327637 0.183105
vt 0.327637 0.204041
vt 0.327637 0.211426
vt 0.166504 0.211426
vt 0.166504 0.204041
vt 0.166504 0.399902
vt 0.166504 0.388489
vt 0.327637 0.388489
vt 0.327637 0.399902
vt 0.327637 0.084717
vt 0.327637 0.087402
vt 0.166504 0.087402
vt 0.166504 0.084717
vt 0.163574 0.562866
vt 0.163574 0.577637
vt 0.002441 0.577637
vt 0.002441 0.562866
vt 0.633301 0.299316
vt 0.633301 0.289246
vt 0.636658 0.289246
vt 0.633301 0.299316
vt 0.636658 0.289246
vt 0.636658 0.296631
vt 0.648071 0.299316
vt 0.633301 0.299316
vt 0.636658 0.296631
vt 0.636658 0.296631
vt 0.648071 0.296631
vt 0.648071 0.299316
vt 0.663269 0.289246
vt 0.666626 0.289246
vt 0.666626 0.299316
vt 0.663269 0.296631
vt 0.663269 0.289246
vt 0.666626 0.299316
vt 0.663269 0.296631
vt 0.666626 0.299316
vt 0.651855 0.299316
vt 0.651855 0.299316
vt 0.651855 0.296631
vt 0.663269 0.296631
vt 0.491699 0.084717
vt 0.491699 0.087402
vt 0.330566 0.087402
vt 0.330566 0.084717
vt 0.491699 0.388489
vt 0.491699 0.399902
vt 0.330566 0.399902
vt 0.330566 0.388489
vt 0.491699 0.204041
vt 0.491699 0.211426
vt 0.330566 0.211426
vt 0.330566 0.204041
vt 0.491699 0.179749
vt 0.491699 0.183105
vt 0.330566 0.183105
vt 0.330566 0.179749
vt 0.822754 0.312988
vt 0.822754 0.302917
vt 0.983887 0.302917
vt 0.983887 0.312988
vt 0.166504 0.577637
vt 0.166504 0.562866
vt 0.327637 0.562866
vt 0.327637 0.577637
vt 0.67041 0.289246
vt 0.685181 0.289246
vt 0.685181 0.291931
vt 0.67041 0.289246
vt 0.685181 0.291931
vt 0.673767 0.291931
vt 0.67041 0.289246
vt 0.673767 0.291931
vt 0.673767 0.299316
vt 0.673767 0.299316
vt 0.67041 0.299316
vt 0.67041 0.289246
vt 0.688965 0.291931
vt 0.688965 0.289246
vt 0.703735 0.289246
vt 0.700378 0.291931
vt 0.688965 0.291931
vt 0.703735 0.289246
vt 0.700378 0.299316
vt 0.700378 0.291931
vt 0.703735 0.289246
vt 0.703735 0.289246
vt 0.703735 0.299316
vt 0.700378 0.299316
vt 0.002441 0.299316
vt 0.002441 0.289246
vt 0.163574 0.289246
vt 0.163574 0.299316
vt 0.494629 0.183105
vt 0.494629 0.179749
vt 0.655762 0.179749
vt 0.655762 0.183105
vt 0.655762 0.204041
vt 0.655762 0.211426
vt 0.494629 0.211426
vt 0.494629 0.204041
vt 0.494629 0.399902
vt 0.494629 0.388489
vt 0.655762 0.388489
vt 0.655762 0.399902
vt 0.655762 0.084717
vt 0.655762 0.087402
vt 0.494629 0.087402
vt 0.494629 0.084717
vt 0.491699 0.562866
vt 0.491699 0.577637
vt 0.330566 0.577637
vt 0.330566 0.562866
vt 0.70752 0.299316
vt 0.70752 0.289246
vt 0.710876 0.289246
vt 0.70752 0.299316
vt 0.710876 0.289246
vt 0.710876 0.296631
vt 0.72229 0.299316
vt 0.70752 0.299316
vt 0.710876 0.296631
vt 0.710876 0.296631
vt 0.72229 0.296631
vt 0.72229 0.299316
vt 0.737488 0.289246
vt 0.740845 0.289246
vt 0.740845 0.299316
vt 0.737488 0.296631
vt 0.737488 0.289246
vt 0.740845 0.299316
vt 0.737488 0.296631
vt 0.740845 0.299316
vt 0.726074 0.299316
vt 0.726074 0.299316
vt 0.726074 0.296631
vt 0.737488 0.296631
vn 0 -1 0
vn 0 0 1
vn 0 1 0
vn 0 0 -1
vn -1 0 0
vn 1 0 0
f 7/1/1 8/2/1 2/3/1 1/4/1
f 8/5/2 9/6/2 3/7/2 2/8/2
f 9/9/1 10/10/1 4/11/1 3/12/1
f 10/13/2 11/14/2 5/15/2 4/16/2
f 11/17/3 12/18/3 6/19/3 5/20/3
f 12/21/4 7/22/4 1/23/4 6/24/4
f 18/25/5 13/26/5 14/27/5
f 18/28/5 14/29/5 15/30/5
f 18/31/5 15/32/5 16/33/5
f 16/34/5 17/35/5 18/36/5
f 20/37/6 19/38/6 24/39/6
f 21/40/6 20/41/6 24/42/6
f 22/43/6 21/44/6 24/45/6
f 24/46/6 23/47/6 22/48/6
f 31/49/3 32/50/3 26/51/3 25/52/3
f 32/53/4 33/54/4 27/55/4 26/56/4
f 33/57/1 34/58/1 28/59/1 27/60/1
f 34/61/4 35/62/4 29/63/4 28/64/4
f 35/65/1 36/66/1 30/67/1 29/68/1
f 36/69/2 31/70/2 25/71/2 30/72/2
f 37/73/5 38/74/5 39/75/5
f 37/76/5 39/77/5 40/78/5
f 42/79/5 37/80/5 40/81/5
f 40/82/5 41/83/5 42/84/5
f 45/85/6 44/86/6 43/87/6
f 46/88/6 45/89/6 43/90/6
f 46/91/6 43/92/6 48/93/6
f 48/94/6 47/95/6 46/96/6
f 55/97/1 56/98/1 50/99/1 49/100/1
f 56/101/2 57/102/2 51/103/2 50/104/2
f 57/105/1 58/106/1 52/107/1 51/108/1
f 58/109/2 59/110/2 53/111/2 52/112/2
f 59/113/3 60/114/3 54/115/3 53/116/3
f 60/117/4 55/118/4 49/119/4 54/120/4
f 66/121/5 61/122/5 62/123/5
f 66/124/5 62/125/5 63/126/5
f 66/127/5 63/128/5 64/129/5
f 64/130/5 65/131/5 66/132/5
f 68/133/6 67/134/6 72/135/6
f 69/136/6 68/137/6 72/138/6
f 70/139/6 69/140/6 72/141/6
f 72/142/6 71/143/6 70/144/6
f 79/145/3 80/146/3 74/147/3 73/148/3
f 80/149/4 81/150/4 75/151/4 74/152/4
f 81/153/1 82/154/1 76/155/1 75/156/1
f 82/157/4 83/158/4 77/159/4 76/160/4
f 83/161/1 84/162/1 78/163/1 77/164/1
f 84/165/2 79/166/2 73/167/2 78/168/2
f 85/169/5 86/170/5 87/171/5
f 85/172/5 87/173/5 88/174/5
f 90/175/5 85/176/5 88/177/5
f 88/178/5 89/179/5 90/180/5
f 93/181/6 92/182/6 91/183/6
f 94/184/6 93/185/6 91/186/6
f 94/187/6 91/188/6 96/189/6
f 96/190/6 95/191/6 94/192/6
o core_upper__core_upper_deck
usemtl storage_rack
v 0.125 0.409375 0.940625
v 0.875 0.409375 0.940625
v 0.875 0.409375 0.409375
v 0.125 0.409375 0.409375
v 0.125 0.421875 0.940625
v 0.875 0.421875 0.940625
v 0.875 0.421875 0.409375
v 0.125 0.421875 0.409375
v 0.125 0.409375 0.940625
v 0.875 0.409375 0.940625
v 0.875 0.409375 0.409375
v 0.125 0.409375 0.409375
v 0.125 0.421875 0.940625
v 0.875 0.421875 0.940625
v 0.875 0.421875 0.409375
v 0.125 0.421875 0.409375
v 0.125 0.859375 0.940625
v 0.875 0.859375 0.940625
v 0.875 0.859375 0.409375
v 0.125 0.859375 0.409375
v 0.125 0.871875 0.940625
v 0.875 0.871875 0.940625
v 0.875 0.871875 0.409375
v 0.125 0.871875 0.409375
v 0.125 0.859375 0.940625
v 0.875 0.859375 0.940625
v 0.875 0.859375 0.409375
v 0.125 0.859375 0.409375
v 0.125 0.871875 0.940625
v 0.875 0.871875 0.940625
v 0.875 0.871875 0.409375
v 0.125 0.871875 0.409375
vt 0.746582 0.067139
vt 0.907715 0.067139
vt 0.907715 0.069824
vt 0.746582 0.069824
vt 0.116577 0.046387
vt 0.002441 0.046387
vt 0.002441 0.043701
vt 0.116577 0.043701
vt 0.002441 0.061279
vt 0.163574 0.061279
vt 0.163574 0.063965
vt 0.002441 0.063965
vt 0.119629 0.043701
vt 0.233765 0.043701
vt 0.233765 0.046387
vt 0.119629 0.046387
vt 0.163574 0.880371
vt 0.002441 0.880371
vt 0.002441 0.766235
vt 0.002441 0.766235
vt 0.163574 0.766235
vt 0.163574 0.880371
vt 0.327637 0.766235
vt 0.327637 0.880371
vt 0.166504 0.880371
vt 0.166504 0.880371
vt 0.166504 0.766235
vt 0.327637 0.766235
vt 0.166504 0.061279
vt 0.327637 0.061279
vt 0.327637 0.063965
vt 0.166504 0.063965
vt 0.350952 0.046387
vt 0.236816 0.046387
vt 0.236816 0.043701
vt 0.350952 0.043701
vt 0.330566 0.061279
vt 0.491699 0.061279
vt 0.491699 0.063965
vt 0.330566 0.063965
vt 0.354004 0.043701
vt 0.46814 0.043701
vt 0.46814 0.046387
vt 0.354004 0.046387
vt 0.491699 0.880371
vt 0.330566 0.880371
vt 0.330566 0.766235
vt 0.330566 0.766235
vt 0.491699 0.766235
vt 0.491699 0.880371
vt 0.655762 0.766235
vt 0.655762 0.880371
vt 0.494629 0.880371
vt 0.494629 0.880371
vt 0.494629 0.766235
vt 0.655762 0.766235
vn 0 0 1
vn 1 0 0
vn 0 0 -1
vn -1 0 0
vn 0 -1 0
vn 0 1 0
f 97/193/7 98/194/7 102/195/7 101/196/7
f 98/197/8 99/198/8 103/199/8 102/200/8
f 99/201/9 100/202/9 104/203/9 103/204/9
f 100/205/10 97/206/10 101/207/10 104/208/10
f 106/209/11 105/210/11 108/211/11
f 108/212/11 107/213/11 106/214/11
f 112/215/12 109/216/12 110/217/12
f 110/218/12 111/219/12 112/220/12
f 113/221/7 114/222/7 118/223/7 117/224/7
f 114/225/8 115/226/8 119/227/8 118/228/8
f 115/229/9 116/230/9 120/231/9 119/232/9
f 116/233/10 113/234/10 117/235/10 120/236/10
f 122/237/11 121/238/11 124/239/11
f 124/240/11 123/241/11 122/242/11
f 128/243/12 125/244/12 126/245/12
f 126/246/12 127/247/12 128/248/12
