# AFL Storage Rack V1 end_left_upper, generated by tools/build-storage-rack-v1.mjs
mtllib end_left_upper.mtl
o end_left_upper__end_left_upper_beams
usemtl storage_rack
v 0.08125 0.36875 0.3625
v 0.08125 0.36875 0.375
v 0.08125 0.421875 0.375
v 0.08125 0.421875 0.409375
v 0.08125 0.4375 0.409375
v 0.08125 0.4375 0.3625
v 0.125 0.36875 0.3625
v 0.125 0.36875 0.375
v 0.125 0.421875 0.375
v 0.125 0.421875 0.409375
v 0.125 0.4375 0.409375
v 0.125 0.4375 0.3625
v 0.08125 0.36875 0.3625
v 0.08125 0.36875 0.375
v 0.08125 0.421875 0.375
v 0.08125 0.421875 0.409375
v 0.08125 0.4375 0.409375
v 0.08125 0.4375 0.3625
v 0.125 0.36875 0.3625
v 0.125 0.36875 0.375
v 0.125 0.421875 0.375
v 0.125 0.421875 0.409375
v 0.125 0.4375 0.409375
v 0.125 0.4375 0.3625
v 0.08125 0.4375 0.9875
v 0.08125 0.4375 0.940625
v 0.08125 0.421875 0.940625
v 0.08125 0.421875 0.975
v 0.08125 0.36875 0.975
v 0.08125 0.36875 0.9875
v 0.125 0.4375 0.9875
v 0.125 0.4375 0.940625
v 0.125 0.421875 0.940625
v 0.125 0.421875 0.975
v 0.125 0.36875 0.975
v 0.125 0.36875 0.9875
v 0.08125 0.4375 0.9875
v 0.08125 0.4375 0.940625
v 0.08125 0.421875 0.940625
v 0.08125 0.421875 0.975
v 0.08125 0.36875 0.975
v 0.08125 0.36875 0.9875
v 0.125 0.4375 0.9875
v 0.125 0.4375 0.940625
v 0.125 0.421875 0.940625
v 0.125 0.421875 0.975
v 0.125 0.36875 0.975
v 0.125 0.36875 0.9875
v 0.08125 0.3875 0.90625
v 0.095 0.3875 0.90625
v 0.095 0.3875 0.44375
v 0.08125 0.3875 0.44375
v 0.08125 0.4375 0.90625
v 0.095 0.4375 0.90625
v 0.095 0.4375 0.44375
v 0.08125 0.4375 0.44375
v 0.08125 0.3875 0.90625
v 0.095 0.3875 0.90625
v 0.095 0.3875 0.44375
v 0.08125 0.3875 0.44375
v 0.08125 0.4375 0.90625
v 0.095 0.4375 0.90625
v 0.095 0.4375 0.44375
v 0.08125 0.4375 0.44375
v 0.08125 0.81875 0.3625
v 0.08125 0.81875 0.375
v 0.08125 0.871875 0.375
v 0.08125 0.871875 0.409375
v 0.08125 0.8875 0.409375
v 0.08125 0.8875 0.3625
v 0.125 0.81875 0.3625
v 0.125 0.81875 0.375
v 0.125 0.871875 0.375
v 0.125 0.871875 0.409375
v 0.125 0.8875 0.409375
v 0.125 0.8875 0.3625
v 0.08125 0.81875 0.3625
v 0.08125 0.81875 0.375
v 0.08125 0.871875 0.375
v 0.08125 0.871875 0.409375
v 0.08125 0.8875 0.409375
v 0.08125 0.8875 0.3625
v 0.125 0.81875 0.3625
v 0.125 0.81875 0.375
v 0.125 0.871875 0.375
v 0.125 0.871875 0.409375
v 0.125 0.8875 0.409375
v 0.125 0.8875 0.3625
v 0.08125 0.8875 0.9875
v 0.08125 0.8875 0.940625
v 0.08125 0.871875 0.940625
v 0.08125 0.871875 0.975
v 0.08125 0.81875 0.975
v 0.08125 0.81875 0.9875
v 0.125 0.8875 0.9875
v 0.125 0.8875 0.940625
v 0.125 0.871875 0.940625
v 0.125 0.871875 0.975
v 0.125 0.81875 0.975
v 0.125 0.81875 0.9875
v 0.08125 0.8875 0.9875
v 0.08125 0.8875 0.940625
v 0.08125 0.871875 0.940625
v 0.08125 0.871875 0.975
v 0.08125 0.81875 0.975
v 0.08125 0.81875 0.9875
v 0.125 0.8875 0.9875
v 0.125 0.8875 0.940625
v 0.125 0.871875 0.940625
v 0.125 0.871875 0.975
v 0.125 0.81875 0.975
v 0.125 0.81875 0.9875
v 0.08125 0.8375 0.90625
v 0.095 0.8375 0.90625
v 0.095 0.8375 0.44375
v 0.08125 0.8375 0.44375
v 0.08125 0.8875 0.90625
v 0.095 0.8875 0.90625
v 0.095 0.8875 0.44375
v 0.08125 0.8875 0.44375
v 0.08125 0.8375 0.90625
v 0.095 0.8375 0.90625
v 0.095 0.8375 0.44375
v 0.08125 0.8375 0.44375
v 0.08125 0.8875 0.90625
v 0.095 0.8875 0.90625
v 0.095 0.8875 0.44375
v 0.08125 0.8875 0.44375
vt 0.271606 0.078857
vt 0.271606 0.081543
vt 0.262207 0.081543
vt 0.262207 0.078857
vt 0.855957 0.262573
vt 0.867371 0.262573
vt 0.867371 0.271973
vt 0.855957 0.271973
vt 0.271606 0.193298
vt 0.271606 0.200684
vt 0.262207 0.200684
vt 0.262207 0.193298
vt 0.271606 0.172913
vt 0.271606 0.17627
vt 0.262207 0.17627
vt 0.262207 0.172913
vt 0.337708 0.258301
vt 0.327637 0.258301
vt 0.327637 0.248901
vt 0.337708 0.248901
vt 0.499634 0.271973
vt 0.484863 0.271973
vt 0.484863 0.262573
vt 0.499634 0.262573
vt 0.744629 0.289246
vt 0.759399 0.289246
vt 0.759399 0.291931
vt 0.744629 0.289246
vt 0.759399 0.291931
vt 0.747986 0.291931
vt 0.744629 0.289246
vt 0.747986 0.291931
vt 0.747986 0.299316
vt 0.747986 0.299316
vt 0.744629 0.299316
vt 0.744629 0.289246
vt 0.763184 0.291931
vt 0.763184 0.289246
vt 0.777954 0.289246
vt 0.774597 0.291931
vt 0.763184 0.291931
vt 0.777954 0.289246
vt 0.774597 0.299316
vt 0.774597 0.291931
vt 0.777954 0.289246
vt 0.777954 0.289246
vt 0.777954 0.299316
vt 0.774597 0.299316
vt 0.351379 0.258301
vt 0.341309 0.258301
vt 0.341309 0.248901
vt 0.351379 0.248901
vt 0.274902 0.17627
vt 0.274902 0.172913
vt 0.284302 0.172913
vt 0.284302 0.17627
vt 0.284302 0.193298
vt 0.284302 0.200684
vt 0.274902 0.200684
vt 0.274902 0.193298
vt 0.882019 0.271973
vt 0.870605 0.271973
vt 0.870605 0.262573
vt 0.882019 0.262573
vt 0.284302 0.078857
vt 0.284302 0.081543
vt 0.274902 0.081543
vt 0.274902 0.078857
vt 0.503418 0.262573
vt 0.518188 0.262573
vt 0.518188 0.271973
vt 0.503418 0.271973
vt 0.781738 0.299316
vt 0.781738 0.289246
vt 0.785095 0.289246
vt 0.781738 0.299316
vt 0.785095 0.289246
vt 0.785095 0.296631
vt 0.796509 0.299316
vt 0.781738 0.299316
vt 0.785095 0.296631
vt 0.785095 0.296631
vt 0.796509 0.296631
vt 0.796509 0.299316
vt 0.811707 0.289246
vt 0.815063 0.289246
vt 0.815063 0.299316
vt 0.811707 0.296631
vt 0.811707 0.289246
vt 0.815063 0.299316
vt 0.811707 0.296631
vt 0.815063 0.299316
vt 0.800293 0.299316
vt 0.800293 0.299316
vt 0.800293 0.296631
vt 0.811707 0.296631
vt 0.67334 0.101074
vt 0.67334 0.09812
vt 0.684082 0.09812
vt 0.684082 0.101074
vt 0.802979 0.370605
vt 0.703613 0.370605
vt 0.703613 0.359863
vt 0.802979 0.359863
vt 0.687988 0.101074
vt 0.687988 0.09812
vt 0.69873 0.09812
vt 0.69873 0.101074
vt 0.806152 0.359863
vt 0.905518 0.359863
vt 0.905518 0.370605
vt 0.806152 0.370605
vt 0.306885 0.104956
vt 0.306885 0.10791
vt 0.20752 0.10791
vt 0.20752 0.10791
vt 0.20752 0.104956
vt 0.306885 0.104956
vt 0.310059 0.104956
vt 0.409424 0.104956
vt 0.409424 0.10791
vt 0.409424 0.10791
vt 0.310059 0.10791
vt 0.310059 0.104956
vt 0.296997 0.078857
vt 0.296997 0.081543
vt 0.287598 0.081543
vt 0.287598 0.078857
vt 0.885254 0.262573
vt 0.896667 0.262573
vt 0.896667 0.271973
vt 0.885254 0.271973
vt 0.296997 0.193298
vt 0.296997 0.200684
vt 0.287598 0.200684
vt 0.287598 0.193298
vt 0.296997 0.172913
vt 0.296997 0.17627
vt 0.287598 0.17627
vt 0.287598 0.172913
vt 0.365051 0.258301
vt 0.35498 0.258301
vt 0.35498 0.248901
vt 0.365051 0.248901
vt 0.536743 0.271973
vt 0.521973 0.271973
vt 0.521973 0.262573
vt 0.536743 0.262573
vt 0.818848 0.289246
vt 0.833618 0.289246
vt 0.833618 0.291931
vt 0.818848 0.289246
vt 0.833618 0.291931
vt 0.822205 0.291931
vt 0.818848 0.289246
vt 0.822205 0.291931
vt 0.822205 0.299316
vt 0.822205 0.299316
vt 0.818848 0.299316
vt 0.818848 0.289246
vt 0.837402 0.291931
vt 0.837402 0.289246
vt 0.852173 0.289246
vt 0.848816 0.291931
vt 0.837402 0.291931
vt 0.852173 0.289246
vt 0.848816 0.299316
vt 0.848816 0.291931
vt 0.852173 0.289246
vt 0.852173 0.289246
vt 0.852173 0.299316
vt 0.848816 0.299316
vt 0.378723 0.258301
vt 0.368652 0.258301
vt 0.368652 0.248901
vt 0.378723 0.248901
vt 0.300293 0.17627
vt 0.300293 0.172913
vt 0.309692 0.172913
vt 0.309692 0.17627
vt 0.309692 0.193298
vt 0.309692 0.200684
vt 0.300293 0.200684
vt 0.300293 0.193298
vt 0.911316 0.271973
vt 0.899902 0.271973
vt 0.899902 0.262573
vt 0.911316 0.262573
vt 0.309692 0.078857
vt 0.309692 0.081543
vt 0.300293 0.081543
vt 0.300293 0.078857
vt 0.540527 0.262573
vt 0.555298 0.262573
vt 0.555298 0.271973
vt 0.540527 0.271973
vt 0.855957 0.299316
vt 0.855957 0.289246
vt 0.859314 0.289246
vt 0.855957 0.299316
vt 0.859314 0.289246
vt 0.859314 0.296631
vt 0.870728 0.299316
vt 0.855957 0.299316
vt 0.859314 0.296631
vt 0.859314 0.296631
vt 0.870728 0.296631
vt 0.870728 0.299316
vt 0.885925 0.289246
vt 0.889282 0.289246
vt 0.889282 0.299316
vt 0.885925 0.296631
vt 0.885925 0.289246
vt 0.889282 0.299316
vt 0.885925 0.296631
vt 0.889282 0.299316
vt 0.874512 0.299316
vt 0.874512 0.299316
vt 0.874512 0.296631
vt 0.885925 0.296631
vt 0.702637 0.101074
vt 0.702637 0.09812
vt 0.713379 0.09812
vt 0.713379 0.101074
vt 0.101807 0.355957
vt 0.002441 0.355957
vt 0.002441 0.345215
vt 0.101807 0.345215
vt 0.717285 0.101074
vt 0.717285 0.09812
vt 0.728027 0.09812
vt 0.728027 0.101074
vt 0.10498 0.345215
vt 0.204346 0.345215
vt 0.204346 0.355957
vt 0.10498 0.355957
vt 0.511963 0.104956
vt 0.511963 0.10791
vt 0.412598 0.10791
vt 0.412598 0.10791
vt 0.412598 0.104956
vt 0.511963 0.104956
vt 0.515137 0.104956
vt 0.614502 0.104956
vt 0.614502 0.10791
vt 0.614502 0.10791
vt 0.515137 0.10791
vt 0.515137 0.104956
vn 0 -1 0
vn 0 0 1
vn 0 1 0
vn 0 0 -1
vn -1 0 0
vn 1 0 0
f 7/1/1 8/2/1 2/3/1 1/4/1
f 8/5/2 9/6/2 3/7/2 2/8/2
f 9/9/1 10/10/1 4/11/1 3/12/1
f 10/13/2 11/14/2 5/15/2 4/16/2
f 11/17/3 12/18/3 6/19/3 5/20/3
f 12/21/4 7/22/4 1/23/4 6/24/4
f 18/25/5 13/26/5 14/27/5
f 18/28/5 14/29/5 15/30/5
f 18/31/5 15/32/5 16/33/5
f 16/34/5 17/35/5 18/36/5
f 20/37/6 19/38/6 24/39/6
f 21/40/6 20/41/6 24/42/6
f 22/43/6 21/44/6 24/45/6
f 24/46/6 23/47/6 22/48/6
f 31/49/3 32/50/3 26/51/3 25/52/3
f 32/53/4 33/54/4 27/55/4 26/56/4
f 33/57/1 34/58/1 28/59/1 27/60/1
f 34/61/4 35/62/4 29/63/4 28/64/4
f 35/65/1 36/66/1 30/67/1 29/68/1
f 36/69/2 31/70/2 25/71/2 30/72/2
f 37/73/5 38/74/5 39/75/5
f 37/76/5 39/77/5 40/78/5
f 42/79/5 37/80/5 40/81/5
f 40/82/5 41/83/5 42/84/5
f 45/85/6 44/86/6 43/87/6
f 46/88/6 45/89/6 43/90/6
f 46/91/6 43/92/6 48/93/6
f 48/94/6 47/95/6 46/96/6
f 49/97/2 50/98/2 54/99/2 53/100/2
f 50/101/6 51/102/6 55/103/6 54/104/6
f 51/105/4 52/106/4 56/107/4 55/108/4
f 52/109/5 49/110/5 53/111/5 56/112/5
f 58/113/1 57/114/1 60/115/1
f 60/116/1 59/117/1 58/118/1
f 64/119/3 61/120/3 62/121/3
f 62/122/3 63/123/3 64/124/3
f 71/125/1 72/126/1 66/127/1 65/128/1
f 72/129/2 73/130/2 67/131/2 66/132/2
f 73/133/1 74/134/1 68/135/1 67/136/1
f 74/137/2 75/138/2 69/139/2 68/140/2
f 75/141/3 76/142/3 70/143/3 69/144/3
f 76/145/4 71/146/4 65/147/4 70/148/4
f 82/149/5 77/150/5 78/151/5
f 82/152/5 78/153/5 79/154/5
f 82/155/5 79/156/5 80/157/5
f 80/158/5 81/159/5 82/160/5
f 84/161/6 83/162/6 88/163/6
f 85/164/6 84/165/6 88/166/6
f 86/167/6 85/168/6 88/169/6
f 88/170/6 87/171/6 86/172/6
f 95/173/3 96/174/3 90/175/3 89/176/3
f 96/177/4 97/178/4 91/179/4 90/180/4
f 97/181/1 98/182/1 92/183/1 91/184/1
f 98/185/4 99/186/4 93/187/4 92/188/4
f 99/189/1 100/190/1 94/191/1 93/192/1
f 100/193/2 95/194/2 89/195/2 94/196/2
f 101/197/5 102/198/5 103/199/5
f 101/200/5 103/201/5 104/202/5
f 106/203/5 101/204/5 104/205/5
f 104/206/5 105/207/5 106/208/5
f 109/209/6 108/210/6 107/211/6
f 110/212/6 109/213/6 107/214/6
f 110/215/6 107/216/6 112/217/6
f 112/218/6 111/219/6 110/220/6
f 113/221/2 114/222/2 118/223/2 117/224/2
f 114/225/6 115/226/6 119/227/6 118/228/6
f 115/229/4 116/230/4 120/231/4 119/232/4
f 116/233/5 113/234/5 117/235/5 120/236/5
f 122/237/1 121/238/1 124/239/1
f 124/240/1 123/241/1 122/242/1
f 128/243/3 125/244/3 126/245/3
f 126/246/3 127/247/3 128/248/3
o end_left_upper__end_left_upper_deck
usemtl storage_rack
v 0.088125 0.409375 0.940625
v 0.125 0.409375 0.940625
v 0.125 0.409375 0.409375
v 0.088125 0.409375 0.409375
v 0.088125 0.421875 0.940625
v 0.125 0.421875 0.940625
v 0.125 0.421875 0.409375
v 0.088125 0.421875 0.409375
v 0.088125 0.409375 0.940625
v 0.125 0.409375 0.940625
v 0.125 0.409375 0.409375
v 0.088125 0.409375 0.409375
v 0.088125 0.421875 0.940625
v 0.125 0.421875 0.940625
v 0.125 0.421875 0.409375
v 0.088125 0.421875 0.409375
v 0.088125 0.859375 0.940625
v 0.125 0.859375 0.940625
v 0.125 0.859375 0.409375
v 0.088125 0.859375 0.409375
v 0.088125 0.871875 0.940625
v 0.125 0.871875 0.940625
v 0.125 0.871875 0.409375
v 0.088125 0.871875 0.409375
v 0.088125 0.859375 0.940625
v 0.125 0.859375 0.940625
v 0.125 0.859375 0.409375
v 0.088125 0.859375 0.409375
v 0.088125 0.871875 0.940625
v 0.125 0.871875 0.940625
v 0.125 0.871875 0.409375
v 0.088125 0.871875 0.409375
vt 0.900879 0.031982
vt 0.908801 0.031982
vt 0.908801 0.034668
vt 0.900879 0.034668
vt 0.585327 0.046387
vt 0.471191 0.046387
vt 0.471191 0.043701
vt 0.585327 0.043701
vt 0.912598 0.031982
vt 0.92052 0.031982
vt 0.92052 0.034668
vt 0.912598 0.034668
vt 0.588379 0.043701
vt 0.702515 0.043701
vt 0.702515 0.046387
vt 0.588379 0.046387
vt 0.116577 0.225964
vt 0.116577 0.233887
vt 0.002441 0.233887
vt 0.002441 0.233887
vt 0.002441 0.225964
vt 0.116577 0.225964
vt 0.119629 0.225964
vt 0.233765 0.225964
vt 0.233765 0.233887
vt 0.233765 0.233887
vt 0.119629 0.233887
vt 0.119629 0.225964
vt 0.924316 0.031982
vt 0.932239 0.031982
vt 0.932239 0.034668
vt 0.924316 0.034668
vt 0.819702 0.046387
vt 0.705566 0.046387
vt 0.705566 0.043701
vt 0.819702 0.043701
vt 0.936035 0.031982
vt 0.943958 0.031982
vt 0.943958 0.034668
vt 0.936035 0.034668
vt 0.822754 0.043701
vt 0.93689 0.043701
vt 0.93689 0.046387
vt 0.822754 0.046387
vt 0.350952 0.225964
vt 0.350952 0.233887
vt 0.236816 0.233887
vt 0.236816 0.233887
vt 0.236816 0.225964
vt 0.350952 0.225964
vt 0.354004 0.225964
vt 0.46814 0.225964
vt 0.46814 0.233887
vt 0.46814 0.233887
vt 0.354004 0.233887
vt 0.354004 0.225964
vn 0 0 1
vn 1 0 0
vn 0 0 -1
vn -1 0 0
vn 0 -1 0
vn 0 1 0
f 129/249/7 130/250/7 134/251/7 133/252/7
f 130/253/8 131/254/8 135/255/8 134/256/8
f 131/257/9 132/258/9 136/259/9 135/260/9
f 132/261/10 129/262/10 133/263/10 136/264/10
f 138/265/11 137/266/11 140/267/11
f 140/268/11 139/269/11 138/270/11
f 144/271/12 141/272/12 142/273/12
f 142/274/12 143/275/12 144/276/12
f 145/277/7 146/278/7 150/279/7 149/280/7
f 146/281/8 147/282/8 151/283/8 150/284/8
f 147/285/9 148/286/9 152/287/9 151/288/9
f 148/289/10 145/290/10 149/291/10 152/292/10
f 154/293/11 153/294/11 156/295/11
f 156/296/11 155/297/11 154/298/11
f 160/299/12 157/300/12 158/301/12
f 158/302/12 159/303/12 160/304/12
o end_left_upper__end_left_upper_posts
usemtl storage_rack
v 0 0 0.44375
v 0.01375 0 0.44375
v 0.01375 0 0.37625
v 0.08125 0 0.37625
v 0.08125 0 0.3625
v 0 0 0.3625
v 0 0.95 0.44375
v 0.01375 0.95 0.44375
v 0.01375 0.95 0.37625
v 0.08125 0.95 0.37625
v 0.08125 0.95 0.3625
v 0 0.95 0.3625
v 0 0 0.44375
v 0.01375 0 0.44375
v 0.01375 0 0.37625
v 0.08125 0 0.37625
v 0.08125 0 0.3625
v 0 0 0.3625
v 0 0.95 0.44375
v 0.01375 0.95 0.44375
v 0.01375 0.95 0.37625
v 0.08125 0.95 0.37625
v 0.08125 0.95 0.3625
v 0 0.95 0.3625
v 0 0 0.9875
v 0.08125 0 0.9875
v 0.08125 0 0.97375
v 0.01375 0 0.97375
v 0.01375 0 0.90625
v 0 0 0.90625
v 0 0.95 0.9875
v 0.08125 0.95 0.9875
v 0.08125 0.95 0.97375
v 0.01375 0.95 0.97375
v 0.01375 0.95 0.90625
v 0 0.95 0.90625
v 0 0 0.9875
v 0.08125 0 0.9875
v 0.08125 0 0.97375
v 0.01375 0 0.97375
v 0.01375 0 0.90625
v 0 0 0.90625
v 0 0.95 0.9875
v 0.08125 0.95 0.9875
v 0.08125 0.95 0.97375
v 0.01375 0.95 0.97375
v 0.01375 0.95 0.90625
v 0 0.95 0.90625
vt 0.002441 0.135254
vt 0.002441 0.1323
vt 0.206543 0.1323
vt 0.206543 0.135254
vt 0.430176 0.487793
vt 0.430176 0.473291
vt 0.634277 0.473291
vt 0.634277 0.487793
vt 0.637207 0.487793
vt 0.637207 0.473291
vt 0.841309 0.473291
vt 0.841309 0.487793
vt 0.430176 0.162598
vt 0.430176 0.159644
vt 0.634277 0.159644
vt 0.634277 0.162598
vt 0.644043 0.680176
vt 0.644043 0.66272
vt 0.848145 0.66272
vt 0.848145 0.680176
vt 0.848145 0.724243
vt 0.848145 0.741699
vt 0.644043 0.741699
vt 0.644043 0.724243
vt 0.142944 0.615698
vt 0.142944 0.618652
vt 0.125488 0.618652
vt 0.128442 0.615698
vt 0.142944 0.615698
vt 0.125488 0.618652
vt 0.128442 0.601196
vt 0.128442 0.615698
vt 0.125488 0.618652
vt 0.125488 0.618652
vt 0.125488 0.601196
vt 0.128442 0.601196
vt 0.871582 0.621704
vt 0.889038 0.621704
vt 0.889038 0.624658
vt 0.871582 0.621704
vt 0.889038 0.624658
vt 0.874536 0.624658
vt 0.871582 0.621704
vt 0.874536 0.624658
vt 0.874536 0.63916
vt 0.874536 0.63916
vt 0.871582 0.63916
vt 0.871582 0.621704
vt 0.002441 0.659668
vt 0.002441 0.642212
vt 0.206543 0.642212
vt 0.206543 0.659668
vt 0.209473 0.135254
vt 0.209473 0.1323
vt 0.413574 0.1323
vt 0.413574 0.135254
vt 0.002441 0.470215
vt 0.002441 0.455713
vt 0.206543 0.455713
vt 0.206543 0.470215
vt 0.209473 0.470215
vt 0.209473 0.455713
vt 0.413574 0.455713
vt 0.413574 0.470215
vt 0.416504 0.135254
vt 0.416504 0.1323
vt 0.620605 0.1323
vt 0.620605 0.135254
vt 0.413574 0.642212
vt 0.413574 0.659668
vt 0.209473 0.659668
vt 0.209473 0.642212
vt 0.4271 0.601196
vt 0.430054 0.601196
vt 0.430054 0.618652
vt 0.4271 0.615698
vt 0.4271 0.601196
vt 0.430054 0.618652
vt 0.4271 0.615698
vt 0.430054 0.618652
vt 0.412598 0.618652
vt 0.412598 0.618652
vt 0.412598 0.615698
vt 0.4271 0.615698
vt 0.450562 0.601196
vt 0.450562 0.618652
vt 0.447607 0.618652
vt 0.450562 0.601196
vt 0.447607 0.618652
vt 0.447607 0.60415
vt 0.433105 0.601196
vt 0.450562 0.601196
vt 0.447607 0.60415
vt 0.447607 0.60415
vt 0.433105 0.60415
vt 0.433105 0.601196
vn 0 0 1
vn 1 0 0
vn 0 0 -1
vn -1 0 0
vn 0 -1 0
vn 0 1 0
f 161/305/13 162/306/13 168/307/13 167/308/13
f 162/309/14 163/310/14 169/311/14 168/312/14
f 163/313/13 164/314/13 170/315/13 169/316/13
f 164/317/14 165/318/14 171/319/14 170/320/14
f 165/321/15 166/322/15 172/323/15 171/324/15
f 166/325/16 161/326/16 167/327/16 172/328/16
f 174/329/17 173/330/17 178/331/17
f 175/332/17 174/333/17 178/334/17
f 176/335/17 175/336/17 178/337/17
f 178/338/17 177/339/17 176/340/17
f 184/341/18 179/342/18 180/343/18
f 184/344/18 180/345/18 181/346/18
f 184/347/18 181/348/18 182/349/18
f 182/350/18 183/351/18 184/352/18
f 185/353/13 186/354/13 192/355/13 191/356/13
f 186/357/14 187/358/14 193/359/14 192/360/14
f 187/361/15 188/362/15 194/363/15 193/364/15
f 188/365/14 189/366/14 195/367/14 194/368/14
f 189/369/15 190/370/15 196/371/15 195/372/15
f 190/373/16 185/374/16 191/375/16 196/376/16
f 199/377/17 198/378/17 197/379/17
f 200/380/17 199/381/17 197/382/17
f 200/383/17 197/384/17 202/385/17
f 202/386/17 201/387/17 200/388/17
f 203/389/18 204/390/18 205/391/18
f 203/392/18 205/393/18 206/394/18
f 208/395/18 203/396/18 206/397/18
f 206/398/18 207/399/18 208/400/18
