# AFL Storage Rack V1 end_left_lower, generated by tools/build-storage-rack-v1.mjs
mtllib end_left_lower.mtl
o end_left_lower__end_left_lower_beams
usemtl storage_rack
v 0.08125 0.01875 0.3625
v 0.08125 0.01875 0.375
v 0.08125 0.071875 0.375
v 0.08125 0.071875 0.409375
v 0.08125 0.0875 0.409375
v 0.08125 0.0875 0.3625
v 0.125 0.01875 0.3625
v 0.125 0.01875 0.375
v 0.125 0.071875 0.375
v 0.125 0.071875 0.409375
v 0.125 0.0875 0.409375
v 0.125 0.0875 0.3625
v 0.08125 0.01875 0.3625
v 0.08125 0.01875 0.375
v 0.08125 0.071875 0.375
v 0.08125 0.071875 0.409375
v 0.08125 0.0875 0.409375
v 0.08125 0.0875 0.3625
v 0.125 0.01875 0.3625
v 0.125 0.01875 0.375
v 0.125 0.071875 0.375
v 0.125 0.071875 0.409375
v 0.125 0.0875 0.409375
v 0.125 0.0875 0.3625
v 0.08125 0.0875 0.9875
v 0.08125 0.0875 0.940625
v 0.08125 0.071875 0.940625
v 0.08125 0.071875 0.975
v 0.08125 0.01875 0.975
v 0.08125 0.01875 0.9875
v 0.125 0.0875 0.9875
v 0.125 0.0875 0.940625
v 0.125 0.071875 0.940625
v 0.125 0.071875 0.975
v 0.125 0.01875 0.975
v 0.125 0.01875 0.9875
v 0.08125 0.0875 0.9875
v 0.08125 0.0875 0.940625
v 0.08125 0.071875 0.940625
v 0.08125 0.071875 0.975
v 0.08125 0.01875 0.975
v 0.08125 0.01875 0.9875
v 0.125 0.0875 0.9875
v 0.125 0.0875 0.940625
v 0.125 0.071875 0.940625
v 0.125 0.071875 0.975
v 0.125 0.01875 0.975
v 0.125 0.01875 0.9875
v 0.08125 0.0375 0.90625
v 0.095 0.0375 0.90625
v 0.095 0.0375 0.44375
v 0.08125 0.0375 0.44375
v 0.08125 0.0875 0.90625
v 0.095 0.0875 0.90625
v 0.095 0.0875 0.44375
v 0.08125 0.0875 0.44375
v 0.08125 0.0375 0.90625
v 0.095 0.0375 0.90625
v 0.095 0.0375 0.44375
v 0.08125 0.0375 0.44375
v 0.08125 0.0875 0.90625
v 0.095 0.0875 0.90625
v 0.095 0.0875 0.44375
v 0.08125 0.0875 0.44375
v 0.08125 0.46875 0.3625
v 0.08125 0.46875 0.375
v 0.08125 0.521875 0.375
v 0.08125 0.521875 0.409375
v 0.08125 0.5375 0.409375
v 0.08125 0.5375 0.3625
v 0.125 0.46875 0.3625
v 0.125 0.46875 0.375
v 0.125 0.521875 0.375
v 0.125 0.521875 0.409375
v 0.125 0.5375 0.409375
v 0.125 0.5375 0.3625
v 0.08125 0.46875 0.3625
v 0.08125 0.46875 0.375
v 0.08125 0.521875 0.375
v 0.08125 0.521875 0.409375
v 0.08125 0.5375 0.409375
v 0.08125 0.5375 0.3625
v 0.125 0.46875 0.3625
v 0.125 0.46875 0.375
v 0.125 0.521875 0.375
v 0.125 0.521875 0.409375
v 0.125 0.5375 0.409375
v 0.125 0.5375 0.3625
v 0.08125 0.5375 0.9875
v 0.08125 0.5375 0.940625
v 0.08125 0.521875 0.940625
v 0.08125 0.521875 0.975
v 0.08125 0.46875 0.975
v 0.08125 0.46875 0.9875
v 0.125 0.5375 0.9875
v 0.125 0.5375 0.940625
v 0.125 0.521875 0.940625
v 0.125 0.521875 0.975
v 0.125 0.46875 0.975
v 0.125 0.46875 0.9875
v 0.08125 0.5375 0.9875
v 0.08125 0.5375 0.940625
v 0.08125 0.521875 0.940625
v 0.08125 0.521875 0.975
v 0.08125 0.46875 0.975
v 0.08125 0.46875 0.9875
v 0.125 0.5375 0.9875
v 0.125 0.5375 0.940625
v 0.125 0.521875 0.940625
v 0.125 0.521875 0.975
v 0.125 0.46875 0.975
v 0.125 0.46875 0.9875
v 0.08125 0.4875 0.90625
v 0.095 0.4875 0.90625
v 0.095 0.4875 0.44375
v 0.08125 0.4875 0.44375
v 0.08125 0.5375 0.90625
v 0.095 0.5375 0.90625
v 0.095 0.5375 0.44375
v 0.08125 0.5375 0.44375
v 0.08125 0.4875 0.90625
v 0.095 0.4875 0.90625
v 0.095 0.4875 0.44375
v 0.08125 0.4875 0.44375
v 0.08125 0.5375 0.90625
v 0.095 0.5375 0.90625
v 0.095 0.5375 0.44375
v 0.08125 0.5375 0.44375
v 0.08125 0.91875 0.3625
v 0.08125 0.91875 0.375
v 0.08125 0.971875 0.375
v 0.08125 0.971875 0.409375
v 0.08125 0.9875 0.409375
v 0.08125 0.9875 0.3625
v 0.125 0.91875 0.3625
v 0.125 0.91875 0.375
v 0.125 0.971875 0.375
v 0.125 0.971875 0.409375
v 0.125 0.9875 0.409375
v 0.125 0.9875 0.3625
v 0.08125 0.91875 0.3625
v 0.08125 0.91875 0.375
v 0.08125 0.971875 0.375
v 0.08125 0.971875 0.409375
v 0.08125 0.9875 0.409375
v 0.08125 0.9875 0.3625
v 0.125 0.91875 0.3625
v 0.125 0.91875 0.375
v 0.125 0.971875 0.375
v 0.125 0.971875 0.409375
v 0.125 0.9875 0.409375
v 0.125 0.9875 0.3625
v 0.08125 0.9875 0.9875
v 0.08125 0.9875 0.940625
v 0.08125 0.971875 0.940625
v 0.08125 0.971875 0.975
v 0.08125 0.91875 0.975
v 0.08125 0.91875 0.9875
v 0.125 0.9875 0.9875
v 0.125 0.9875 0.940625
v 0.125 0.971875 0.940625
v 0.125 0.971875 0.975
v 0.125 0.91875 0.975
v 0.125 0.91875 0.9875
v 0.08125 0.9875 0.9875
v 0.08125 0.9875 0.940625
v 0.08125 0.971875 0.940625
v 0.08125 0.971875 0.975
v 0.08125 0.91875 0.975
v 0.08125 0.91875 0.9875
v 0.125 0.9875 0.9875
v 0.125 0.9875 0.940625
v 0.125 0.971875 0.940625
v 0.125 0.971875 0.975
v 0.125 0.91875 0.975
v 0.125 0.91875 0.9875
v 0.08125 0.9375 0.90625
v 0.095 0.9375 0.90625
v 0.095 0.9375 0.44375
v 0.08125 0.9375 0.44375
v 0.08125 0.9875 0.90625
v 0.095 0.9875 0.90625
v 0.095 0.9875 0.44375
v 0.08125 0.9875 0.44375
v 0.08125 0.9375 0.90625
v 0.095 0.9375 0.90625
v 0.095 0.9375 0.44375
v 0.08125 0.9375 0.44375
v 0.08125 0.9875 0.90625
v 0.095 0.9875 0.90625
v 0.095 0.9875 0.44375
v 0.08125 0.9875 0.44375
vt 0.119263 0.078857
vt 0.119263 0.081543
vt 0.109863 0.081543
vt 0.109863 0.078857
vt 0.973145 0.262573
vt 0.984558 0.262573
vt 0.984558 0.271973
vt 0.973145 0.271973
vt 0.119263 0.193298
vt 0.119263 0.200684
vt 0.109863 0.200684
vt 0.109863 0.193298
vt 0.119263 0.172913
vt 0.119263 0.17627
vt 0.109863 0.17627
vt 0.109863 0.172913
vt 0.173645 0.258301
vt 0.163574 0.258301
vt 0.163574 0.248901
vt 0.173645 0.248901
vt 0.648071 0.271973
vt 0.633301 0.271973
vt 0.633301 0.262573
vt 0.648071 0.262573
vt 0.466309 0.275574
vt 0.481079 0.275574
vt 0.481079 0.278259
vt 0.466309 0.275574
vt 0.481079 0.278259
vt 0.469666 0.278259
vt 0.466309 0.275574
vt 0.469666 0.278259
vt 0.469666 0.285645
vt 0.469666 0.285645
vt 0.466309 0.285645
vt 0.466309 0.275574
vt 0.484863 0.278259
vt 0.484863 0.275574
vt 0.499634 0.275574
vt 0.496277 0.278259
vt 0.484863 0.278259
vt 0.499634 0.275574
vt 0.496277 0.285645
vt 0.496277 0.278259
vt 0.499634 0.275574
vt 0.499634 0.275574
vt 0.499634 0.285645
vt 0.496277 0.285645
vt 0.187317 0.258301
vt 0.177246 0.258301
vt 0.177246 0.248901
vt 0.187317 0.248901
vt 0.122559 0.17627
vt 0.122559 0.172913
vt 0.131958 0.172913
vt 0.131958 0.17627
vt 0.131958 0.193298
vt 0.131958 0.200684
vt 0.122559 0.200684
vt 0.122559 0.193298
vt 0.013855 0.258301
vt 0.002441 0.258301
vt 0.002441 0.248901
vt 0.013855 0.248901
vt 0.131958 0.078857
vt 0.131958 0.081543
vt 0.122559 0.081543
vt 0.122559 0.078857
vt 0.651855 0.262573
vt 0.666626 0.262573
vt 0.666626 0.271973
vt 0.651855 0.271973
vt 0.503418 0.285645
vt 0.503418 0.275574
vt 0.506775 0.275574
vt 0.503418 0.285645
vt 0.506775 0.275574
vt 0.506775 0.282959
vt 0.518188 0.285645
vt 0.503418 0.285645
vt 0.506775 0.282959
vt 0.506775 0.282959
vt 0.518188 0.282959
vt 0.518188 0.285645
vt 0.533386 0.275574
vt 0.536743 0.275574
vt 0.536743 0.285645
vt 0.533386 0.282959
vt 0.533386 0.275574
vt 0.536743 0.285645
vt 0.533386 0.282959
vt 0.536743 0.285645
vt 0.521973 0.285645
vt 0.521973 0.285645
vt 0.521973 0.282959
vt 0.533386 0.282959
vt 0.849121 0.101074
vt 0.849121 0.09812
vt 0.859863 0.09812
vt 0.859863 0.101074
vt 0.204346 0.341309
vt 0.10498 0.341309
vt 0.10498 0.330566
vt 0.204346 0.330566
vt 0.862793 0.101074
vt 0.862793 0.09812
vt 0.873535 0.09812
vt 0.873535 0.101074
vt 0.20752 0.330566
vt 0.306885 0.330566
vt 0.306885 0.341309
vt 0.20752 0.341309
vt 0.308838 0.118628
vt 0.308838 0.121582
vt 0.209473 0.121582
vt 0.209473 0.121582
vt 0.209473 0.118628
vt 0.308838 0.118628
vt 0.312012 0.118628
vt 0.411377 0.118628
vt 0.411377 0.121582
vt 0.411377 0.121582
vt 0.312012 0.121582
vt 0.312012 0.118628
vt 0.144653 0.078857
vt 0.144653 0.081543
vt 0.135254 0.081543
vt 0.135254 0.078857
vt 0.046387 0.248901
vt 0.0578 0.248901
vt 0.0578 0.258301
vt 0.046387 0.258301
vt 0.144653 0.193298
vt 0.144653 0.200684
vt 0.135254 0.200684
vt 0.135254 0.193298
vt 0.144653 0.172913
vt 0.144653 0.17627
vt 0.135254 0.17627
vt 0.135254 0.172913
vt 0.200989 0.258301
vt 0.190918 0.258301
vt 0.190918 0.248901
vt 0.200989 0.248901
vt 0.72229 0.271973
vt 0.70752 0.271973
vt 0.70752 0.262573
vt 0.72229 0.262573
vt 0.911621 0.275574
vt 0.926392 0.275574
vt 0.926392 0.278259
vt 0.911621 0.275574
vt 0.926392 0.278259
vt 0.914978 0.278259
vt 0.911621 0.275574
vt 0.914978 0.278259
vt 0.914978 0.285645
vt 0.914978 0.285645
vt 0.911621 0.285645
vt 0.911621 0.275574
vt 0.930176 0.278259
vt 0.930176 0.275574
vt 0.944946 0.275574
vt 0.941589 0.278259
vt 0.930176 0.278259
vt 0.944946 0.275574
vt 0.941589 0.285645
vt 0.941589 0.278259
vt 0.944946 0.275574
vt 0.944946 0.275574
vt 0.944946 0.285645
vt 0.941589 0.285645
vt 0.214661 0.258301
vt 0.20459 0.258301
vt 0.20459 0.248901
vt 0.214661 0.248901
vt 0.147949 0.17627
vt 0.147949 0.172913
vt 0.157349 0.172913
vt 0.157349 0.17627
vt 0.157349 0.193298
vt 0.157349 0.200684
vt 0.147949 0.200684
vt 0.147949 0.193298
vt 0.072449 0.258301
vt 0.061035 0.258301
vt 0.061035 0.248901
vt 0.072449 0.248901
vt 0.157349 0.078857
vt 0.157349 0.081543
vt 0.147949 0.081543
vt 0.147949 0.078857
vt 0.726074 0.262573
vt 0.740845 0.262573
vt 0.740845 0.271973
vt 0.726074 0.271973
vt 0.94873 0.285645
vt 0.94873 0.275574
vt 0.952087 0.275574
vt 0.94873 0.285645
vt 0.952087 0.275574
vt 0.952087 0.282959
vt 0.963501 0.285645
vt 0.94873 0.285645
vt 0.952087 0.282959
vt 0.952087 0.282959
vt 0.963501 0.282959
vt 0.963501 0.285645
vt 0.978699 0.275574
vt 0.982056 0.275574
vt 0.982056 0.285645
vt 0.978699 0.282959
vt 0.978699 0.275574
vt 0.982056 0.285645
vt 0.978699 0.282959
vt 0.982056 0.285645
vt 0.967285 0.285645
vt 0.967285 0.285645
vt 0.967285 0.282959
vt 0.978699 0.282959
vt 0.931152 0.101074
vt 0.931152 0.09812
vt 0.941895 0.09812
vt 0.941895 0.101074
vt 0.81958 0.341309
vt 0.720215 0.341309
vt 0.720215 0.330566
vt 0.81958 0.330566
vt 0.944824 0.101074
vt 0.944824 0.09812
vt 0.955566 0.09812
vt 0.955566 0.101074
vt 0.822754 0.330566
vt 0.922119 0.330566
vt 0.922119 0.341309
vt 0.822754 0.341309
vt 0.513916 0.118628
vt 0.513916 0.121582
vt 0.414551 0.121582
vt 0.414551 0.121582
vt 0.414551 0.118628
vt 0.513916 0.118628
vt 0.51709 0.118628
vt 0.616455 0.118628
vt 0.616455 0.121582
vt 0.616455 0.121582
vt 0.51709 0.121582
vt 0.51709 0.118628
vt 0.170044 0.078857
vt 0.170044 0.081543
vt 0.160645 0.081543
vt 0.160645 0.078857
vt 0.075684 0.248901
vt 0.087097 0.248901
vt 0.087097 0.258301
vt 0.075684 0.258301
vt 0.170044 0.193298
vt 0.170044 0.200684
vt 0.160645 0.200684
vt 0.160645 0.193298
vt 0.170044 0.172913
vt 0.170044 0.17627
vt 0.160645 0.17627
vt 0.160645 0.172913
vt 0.228333 0.258301
vt 0.218262 0.258301
vt 0.218262 0.248901
vt 0.228333 0.248901
vt 0.759399 0.271973
vt 0.744629 0.271973
vt 0.744629 0.262573
vt 0.759399 0.262573
vt 0.002441 0.261902
vt 0.017212 0.261902
vt 0.017212 0.264587
vt 0.002441 0.261902
vt 0.017212 0.264587
vt 0.005798 0.264587
vt 0.002441 0.261902
vt 0.005798 0.264587
vt 0.005798 0.271973
vt 0.005798 0.271973
vt 0.002441 0.271973
vt 0.002441 0.261902
vt 0.020996 0.264587
vt 0.020996 0.261902
vt 0.035767 0.261902
vt 0.03241 0.264587
vt 0.020996 0.264587
vt 0.035767 0.261902
vt 0.03241 0.271973
vt 0.03241 0.264587
vt 0.035767 0.261902
vt 0.035767 0.261902
vt 0.035767 0.271973
vt 0.03241 0.271973
vt 0.242004 0.258301
vt 0.231934 0.258301
vt 0.231934 0.248901
vt 0.242004 0.248901
vt 0.17334 0.17627
vt 0.17334 0.172913
vt 0.182739 0.172913
vt 0.182739 0.17627
vt 0.182739 0.193298
vt 0.182739 0.200684
vt 0.17334 0.200684
vt 0.17334 0.193298
vt 0.101746 0.258301
vt 0.090332 0.258301
vt 0.090332 0.248901
vt 0.101746 0.248901
vt 0.182739 0.078857
vt 0.182739 0.081543
vt 0.17334 0.081543
vt 0.17334 0.078857
vt 0.763184 0.262573
vt 0.777954 0.262573
vt 0.777954 0.271973
vt 0.763184 0.271973
vt 0.039551 0.271973
vt 0.039551 0.261902
vt 0.042908 0.261902
vt 0.039551 0.271973
vt 0.042908 0.261902
vt 0.042908 0.269287
vt 0.054321 0.271973
vt 0.039551 0.271973
vt 0.042908 0.269287
vt 0.042908 0.269287
vt 0.054321 0.269287
vt 0.054321 0.271973
vt 0.069519 0.261902
vt 0.072876 0.261902
vt 0.072876 0.271973
vt 0.069519 0.269287
vt 0.069519 0.261902
vt 0.072876 0.271973
vt 0.069519 0.269287
vt 0.072876 0.271973
vt 0.058105 0.271973
vt 0.058105 0.271973
vt 0.058105 0.269287
vt 0.069519 0.269287
vt 0.585449 0.101074
vt 0.585449 0.09812
vt 0.596191 0.09812
vt 0.596191 0.101074
vt 0.187744 0.370605
vt 0.088379 0.370605
vt 0.088379 0.359863
vt 0.187744 0.359863
vt 0.600098 0.101074
vt 0.600098 0.09812
vt 0.61084 0.09812
vt 0.61084 0.101074
vt 0.190918 0.359863
vt 0.290283 0.359863
vt 0.290283 0.370605
vt 0.190918 0.370605
vt 0.718994 0.118628
vt 0.718994 0.121582
vt 0.619629 0.121582
vt 0.619629 0.121582
vt 0.619629 0.118628
vt 0.718994 0.118628
vt 0.722168 0.118628
vt 0.821533 0.118628
vt 0.821533 0.121582
vt 0.821533 0.121582
vt 0.722168 0.121582
vt 0.722168 0.118628
vn 0 -1 0
vn 0 0 1
vn 0 1 0
vn 0 0 -1
vn -1 0 0
vn 1 0 0
f 7/1/1 8/2/1 2/3/1 1/4/1
f 8/5/2 9/6/2 3/7/2 2/8/2
f 9/9/1 10/10/1 4/11/1 3/12/1
f 10/13/2 11/14/2 5/15/2 4/16/2
f 11/17/3 12/18/3 6/19/3 5/20/3
f 12/21/4 7/22/4 1/23/4 6/24/4
f 18/25/5 13/26/5 14/27/5
f 18/28/5 14/29/5 15/30/5
f 18/31/5 15/32/5 16/33/5
f 16/34/5 17/35/5 18/36/5
f 20/37/6 19/38/6 24/39/6
f 21/40/6 20/41/6 24/42/6
f 22/43/6 21/44/6 24/45/6
f 24/46/6 23/47/6 22/48/6
f 31/49/3 32/50/3 26/51/3 25/52/3
f 32/53/4 33/54/4 27/55/4 26/56/4
f 33/57/1 34/58/1 28/59/1 27/60/1
f 34/61/4 35/62/4 29/63/4 28/64/4
f 35/65/1 36/66/1 30/67/1 29/68/1
f 36/69/2 31/70/2 25/71/2 30/72/2
f 37/73/5 38/74/5 39/75/5
f 37/76/5 39/77/5 40/78/5
f 42/79/5 37/80/5 40/81/5
f 40/82/5 41/83/5 42/84/5
f 45/85/6 44/86/6 43/87/6
f 46/88/6 45/89/6 43/90/6
f 46/91/6 43/92/6 48/93/6
f 48/94/6 47/95/6 46/96/6
f 49/97/2 50/98/2 54/99/2 53/100/2
f 50/101/6 51/102/6 55/103/6 54/104/6
f 51/105/4 52/106/4 56/107/4 55/108/4
f 52/109/5 49/110/5 53/111/5 56/112/5
f 58/113/1 57/114/1 60/115/1
f 60/116/1 59/117/1 58/118/1
f 64/119/3 61/120/3 62/121/3
f 62/122/3 63/123/3 64/124/3
f 71/125/1 72/126/1 66/127/1 65/128/1
f 72/129/2 73/130/2 67/131/2 66/132/2
f 73/133/1 74/134/1 68/135/1 67/136/1
f 74/137/2 75/138/2 69/139/2 68/140/2
f 75/141/3 76/142/3 70/143/3 69/144/3
f 76/145/4 71/146/4 65/147/4 70/148/4
f 82/149/5 77/150/5 78/151/5
f 82/152/5 78/153/5 79/154/5
f 82/155/5 79/156/5 80/157/5
f 80/158/5 81/159/5 82/160/5
f 84/161/6 83/162/6 88/163/6
f 85/164/6 84/165/6 88/166/6
f 86/167/6 85/168/6 88/169/6
f 88/170/6 87/171/6 86/172/6
f 95/173/3 96/174/3 90/175/3 89/176/3
f 96/177/4 97/178/4 91/179/4 90/180/4
f 97/181/1 98/182/1 92/183/1 91/184/1
f 98/185/4 99/186/4 93/187/4 92/188/4
f 99/189/1 100/190/1 94/191/1 93/192/1
f 100/193/2 95/194/2 89/195/2 94/196/2
f 101/197/5 102/198/5 103/199/5
f 101/200/5 103/201/5 104/202/5
f 106/203/5 101/204/5 104/205/5
f 104/206/5 105/207/5 106/208/5
f 109/209/6 108/210/6 107/211/6
f 110/212/6 109/213/6 107/214/6
f 110/215/6 107/216/6 112/217/6
f 112/218/6 111/219/6 110/220/6
f 113/221/2 114/222/2 118/223/2 117/224/2
f 114/225/6 115/226/6 119/227/6 118/228/6
f 115/229/4 116/230/4 120/231/4 119/232/4
f 116/233/5 113/234/5 117/235/5 120/236/5
f 122/237/1 121/238/1 124/239/1
f 124/240/1 123/241/1 122/242/1
f 128/243/3 125/244/3 126/245/3
f 126/246/3 127/247/3 128/248/3
f 135/249/1 136/250/1 130/251/1 129/252/1
f 136/253/2 137/254/2 131/255/2 130/256/2
f 137/257/1 138/258/1 132/259/1 131/260/1
f 138/261/2 139/262/2 133/263/2 132/264/2
f 139/265/3 140/266/3 134/267/3 133/268/3
f 140/269/4 135/270/4 129/271/4 134/272/4
f 146/273/5 141/274/5 142/275/5
f 146/276/5 142/277/5 143/278/5
f 146/279/5 143/280/5 144/281/5
f 144/282/5 145/283/5 146/284/5
f 148/285/6 147/286/6 152/287/6
f 149/288/6 148/289/6 152/290/6
f 150/291/6 149/292/6 152/293/6
f 152/294/6 151/295/6 150/296/6
f 159/297/3 160/298/3 154/299/3 153/300/3
f 160/301/4 161/302/4 155/303/4 154/304/4
f 161/305/1 162/306/1 156/307/1 155/308/1
f 162/309/4 163/310/4 157/311/4 156/312/4
f 163/313/1 164/314/1 158/315/1 157/316/1
f 164/317/2 159/318/2 153/319/2 158/320/2
f 165/321/5 166/322/5 167/323/5
f 165/324/5 167/325/5 168/326/5
f 170/327/5 165/328/5 168/329/5
f 168/330/5 169/331/5 170/332/5
f 173/333/6 172/334/6 171/335/6
f 174/336/6 173/337/6 171/338/6
f 174/339/6 171/340/6 176/341/6
f 176/342/6 175/343/6 174/344/6
f 177/345/2 178/346/2 182/347/2 181/348/2
f 178/349/6 179/350/6 183/351/6 182/352/6
f 179/353/4 180/354/4 184/355/4 183/356/4
f 180/357/5 177/358/5 181/359/5 184/360/5
f 186/361/1 185/362/1 188/363/1
f 188/364/1 187/365/1 186/366/1
f 192/367/3 189/368/3 190/369/3
f 190/370/3 191/371/3 192/372/3
o end_left_lower__end_left_lower_deck
usemtl storage_rack
v 0.088125 0.059375 0.940625
v 0.125 0.059375 0.940625
v 0.125 0.059375 0.409375
v 0.088125 0.059375 0.409375
v 0.088125 0.071875 0.940625
v 0.125 0.071875 0.940625
v 0.125 0.071875 0.409375
v 0.088125 0.071875 0.409375
v 0.088125 0.059375 0.940625
v 0.125 0.059375 0.940625
v 0.125 0.059375 0.409375
v 0.088125 0.059375 0.409375
v 0.088125 0.071875 0.940625
v 0.125 0.071875 0.940625
v 0.125 0.071875 0.409375
v 0.088125 0.071875 0.409375
v 0.088125 0.509375 0.940625
v 0.125 0.509375 0.940625
v 0.125 0.509375 0.409375
v 0.088125 0.509375 0.409375
v 0.088125 0.521875 0.940625
v 0.125 0.521875 0.940625
v 0.125 0.521875 0.409375
v 0.088125 0.521875 0.409375
v 0.088125 0.509375 0.940625
v 0.125 0.509375 0.940625
v 0.125 0.509375 0.409375
v 0.088125 0.509375 0.409375
v 0.088125 0.521875 0.940625
v 0.125 0.521875 0.940625
v 0.125 0.521875 0.409375
v 0.088125 0.521875 0.409375
v 0.088125 0.959375 0.940625
v 0.125 0.959375 0.940625
v 0.125 0.959375 0.409375
v 0.088125 0.959375 0.409375
v 0.088125 0.971875 0.940625
v 0.125 0.971875 0.940625
v 0.125 0.971875 0.409375
v 0.088125 0.971875 0.409375
v 0.088125 0.959375 0.940625
v 0.125 0.959375 0.940625
v 0.125 0.959375 0.409375
v 0.088125 0.959375 0.409375
v 0.088125 0.971875 0.940625
v 0.125 0.971875 0.940625
v 0.125 0.971875 0.409375
v 0.088125 0.971875 0.409375
vt 0.043457 0.067139
vt 0.051379 0.067139
vt 0.051379 0.069824
vt 0.043457 0.069824
vt 0.116577 0.075684
vt 0.002441 0.075684
vt 0.002441 0.072998
vt 0.116577 0.072998
vt 0.055176 0.067139
vt 0.063098 0.067139
vt 0.063098 0.069824
vt 0.055176 0.069824
vt 0.119629 0.072998
vt 0.233765 0.072998
vt 0.233765 0.075684
vt 0.119629 0.075684
vt 0.551147 0.250378
vt 0.551147 0.258301
vt 0.437012 0.258301
vt 0.437012 0.258301
vt 0.437012 0.250378
vt 0.551147 0.250378
vt 0.554199 0.250378
vt 0.668335 0.250378
vt 0.668335 0.258301
vt 0.668335 0.258301
vt 0.554199 0.258301
vt 0.554199 0.250378
vt 0.807129 0.031982
vt 0.815051 0.031982
vt 0.815051 0.034668
vt 0.807129 0.034668
vt 0.116577 0.058105
vt 0.002441 0.058105
vt 0.002441 0.05542
vt 0.116577 0.05542
vt 0.818848 0.031982
vt 0.82677 0.031982
vt 0.82677 0.034668
vt 0.818848 0.034668
vt 0.119629 0.05542
vt 0.233765 0.05542
vt 0.233765 0.058105
vt 0.119629 0.058105
vt 0.785522 0.250378
vt 0.785522 0.258301
vt 0.671387 0.258301
vt 0.671387 0.258301
vt 0.671387 0.250378
vt 0.785522 0.250378
vt 0.788574 0.250378
vt 0.90271 0.250378
vt 0.90271 0.258301
vt 0.90271 0.258301
vt 0.788574 0.258301
vt 0.788574 0.250378
vt 0.830566 0.031982
vt 0.838489 0.031982
vt 0.838489 0.034668
vt 0.830566 0.034668
vt 0.350952 0.058105
vt 0.236816 0.058105
vt 0.236816 0.05542
vt 0.350952 0.05542
vt 0.842285 0.031982
vt 0.850208 0.031982
vt 0.850208 0.034668
vt 0.842285 0.034668
vt 0.354004 0.05542
vt 0.46814 0.05542
vt 0.46814 0.058105
vt 0.354004 0.058105
vt 0.116577 0.237683
vt 0.116577 0.245605
vt 0.002441 0.245605
vt 0.002441 0.245605
vt 0.002441 0.237683
vt 0.116577 0.237683
vt 0.119629 0.237683
vt 0.233765 0.237683
vt 0.233765 0.245605
vt 0.233765 0.245605
vt 0.119629 0.245605
vt 0.119629 0.237683
vn 0 0 1
vn 1 0 0
vn 0 0 -1
vn -1 0 0
vn 0 -1 0
vn 0 1 0
f 193/373/7 194/374/7 198/375/7 197/376/7
f 194/377/8 195/378/8 199/379/8 198/380/8
f 195/381/9 196/382/9 200/383/9 199/384/9
f 196/385/10 193/386/10 197/387/10 200/388/10
f 202/389/11 201/390/11 204/391/11
f 204/392/11 203/393/11 202/394/11
f 208/395/12 205/396/12 206/397/12
f 206/398/12 207/399/12 208/400/12
f 209/401/7 210/402/7 214/403/7 213/404/7
f 210/405/8 211/406/8 215/407/8 214/408/8
f 211/409/9 212/410/9 216/411/9 215/412/9
f 212/413/10 209/414/10 213/415/10 216/416/10
f 218/417/11 217/418/11 220/419/11
f 220/420/11 219/421/11 218/422/11
f 224/423/12 221/424/12 222/425/12
f 222/426/12 223/427/12 224/428/12
f 225/429/7 226/430/7 230/431/7 229/432/7
f 226/433/8 227/434/8 231/435/8 230/436/8
f 227/437/9 228/438/9 232/439/9 231/440/9
f 228/441/10 225/442/10 229/443/10 232/444/10
f 234/445/11 233/446/11 236/447/11
f 236/448/11 235/449/11 234/450/11
f 240/451/12 237/452/12 238/453/12
f 238/454/12 239/455/12 240/456/12
o end_left_lower__end_left_lower_posts
usemtl storage_rack
v 0 0.021875 0.44375
v 0.01375 0.021875 0.44375
v 0.01375 0.021875 0.37625
v 0.08125 0.021875 0.37625
v 0.08125 0.021875 0.3625
v 0 0.021875 0.3625
v 0 1 0.44375
v 0.01375 1 0.44375
v 0.01375 1 0.37625
v 0.08125 1 0.37625
v 0.08125 1 0.3625
v 0 1 0.3625
v 0 0.021875 0.44375
v 0.01375 0.021875 0.44375
v 0.01375 0.021875 0.37625
v 0.08125 0.021875 0.37625
v 0.08125 0.021875 0.3625
v 0 0.021875 0.3625
v 0 1 0.44375
v 0.01375 1 0.44375
v 0.01375 1 0.37625
v 0.08125 1 0.37625
v 0.08125 1 0.3625
v 0 1 0.3625
v 0 0.021875 0.9875
v 0.08125 0.021875 0.9875
v 0.08125 0.021875 0.97375
v 0.01375 0.021875 0.97375
v 0.01375 0.021875 0.90625
v 0 0.021875 0.90625
v 0 1 0.9875
v 0.08125 1 0.9875
v 0.08125 1 0.97375
v 0.01375 1 0.97375
v 0.01375 1 0.90625
v 0 1 0.90625
v 0 0.021875 0.9875
v 0.08125 0.021875 0.9875
v 0.08125 0.021875 0.97375
v 0.01375 0.021875 0.97375
v 0.01375 0.021875 0.90625
v 0 0.021875 0.90625
v 0 1 0.9875
v 0.08125 1 0.9875
v 0.08125 1 0.97375
v 0.01375 1 0.97375
v 0.01375 1 0.90625
v 0 1 0.90625
vt 0.693848 0.155762
vt 0.693848 0.152808
vt 0.903992 0.152808
vt 0.903992 0.155762
vt 0.002441 0.540527
vt 0.002441 0.526025
vt 0.212585 0.526025
vt 0.212585 0.540527
vt 0.216309 0.540527
vt 0.216309 0.526025
vt 0.426453 0.526025
vt 0.426453 0.540527
vt 0.209473 0.169434
vt 0.209473 0.166479
vt 0.419617 0.166479
vt 0.419617 0.169434
vt 0.45752 0.721191
vt 0.45752 0.703735
vt 0.667664 0.703735
vt 0.667664 0.721191
vt 0.212585 0.724243
vt 0.212585 0.741699
vt 0.002441 0.741699
vt 0.002441 0.724243
vt 0.930054 0.636206
vt 0.930054 0.63916
vt 0.912598 0.63916
vt 0.915552 0.636206
vt 0.930054 0.636206
vt 0.912598 0.63916
vt 0.915552 0.621704
vt 0.915552 0.636206
vt 0.912598 0.63916
vt 0.912598 0.63916
vt 0.912598 0.621704
vt 0.915552 0.621704
vt 0.933105 0.621704
vt 0.950562 0.621704
vt 0.950562 0.624658
vt 0.933105 0.621704
vt 0.950562 0.624658
vt 0.93606 0.624658
vt 0.933105 0.621704
vt 0.93606 0.624658
vt 0.93606 0.63916
vt 0.93606 0.63916
vt 0.933105 0.63916
vt 0.933105 0.621704
vt 0.671387 0.721191
vt 0.671387 0.703735
vt 0.881531 0.703735
vt 0.881531 0.721191
vt 0.002441 0.148926
vt 0.002441 0.145972
vt 0.212585 0.145972
vt 0.212585 0.148926
vt 0.430176 0.540527
vt 0.430176 0.526025
vt 0.64032 0.526025
vt 0.64032 0.540527
vt 0.644043 0.540527
vt 0.644043 0.526025
vt 0.854187 0.526025
vt 0.854187 0.540527
vt 0.216309 0.148926
vt 0.216309 0.145972
vt 0.426453 0.145972
vt 0.426453 0.148926
vt 0.212585 0.683228
vt 0.212585 0.700684
vt 0.002441 0.700684
vt 0.002441 0.683228
vt 0.222021 0.601196
vt 0.224976 0.601196
vt 0.224976 0.618652
vt 0.222021 0.615698
vt 0.222021 0.601196
vt 0.224976 0.618652
vt 0.222021 0.615698
vt 0.224976 0.618652
vt 0.20752 0.618652
vt 0.20752 0.618652
vt 0.20752 0.615698
vt 0.222021 0.615698
vt 0.245483 0.601196
vt 0.245483 0.618652
vt 0.242529 0.618652
vt 0.245483 0.601196
vt 0.242529 0.618652
vt 0.242529 0.60415
vt 0.228027 0.601196
vt 0.245483 0.601196
vt 0.242529 0.60415
vt 0.242529 0.60415
vt 0.228027 0.60415
vt 0.228027 0.601196
vn 0 0 1
vn 1 0 0
vn 0 0 -1
vn -1 0 0
vn 0 -1 0
vn 0 1 0
f 241/457/13 242/458/13 248/459/13 247/460/13
f 242/461/14 243/462/14 249/463/14 248/464/14
f 243/465/13 244/466/13 250/467/13 249/468/13
f 244/469/14 245/470/14 251/471/14 250/472/14
f 245/473/15 246/474/15 252/475/15 251/476/15
f 246/477/16 241/478/16 247/479/16 252/480/16
f 254/481/17 253/482/17 258/483/17
f 255/484/17 254/485/17 258/486/17
f 256/487/17 255/488/17 258/489/17
f 258/490/17 257/491/17 256/492/17
f 264/493/18 259/494/18 260/495/18
f 264/496/18 260/497/18 261/498/18
f 264/499/18 261/500/18 262/501/18
f 262/502/18 263/503/18 264/504/18
f 265/505/13 266/506/13 272/507/13 271/508/13
f 266/509/14 267/510/14 273/511/14 272/512/14
f 267/513/15 268/514/15 274/515/15 273/516/15
f 268/517/14 269/518/14 275/519/14 274/520/14
f 269/521/15 270/522/15 276/523/15 275/524/15
f 270/525/16 265/526/16 271/527/16 276/528/16
f 279/529/17 278/530/17 277/531/17
f 280/532/17 279/533/17 277/534/17
f 280/535/17 277/536/17 282/537/17
f 282/538/17 281/539/17 280/540/17
f 283/541/18 284/542/18 285/543/18
f 283/544/18 285/545/18 286/546/18
f 288/547/18 283/548/18 286/549/18
f 286/550/18 287/551/18 288/552/18
o end_left_lower__end_left_lower_foot-1
usemtl storage_rack
v 0 0 0.44375
v 0.08125 0 0.44375
v 0.08125 0 0.3625
v 0 0 0.3625
v 0 0.021875 0.44375
v 0.08125 0.021875 0.44375
v 0.08125 0.021875 0.3625
v 0 0.021875 0.3625
v 0 0 0.44375
v 0.08125 0 0.44375
v 0.08125 0 0.3625
v 0 0 0.3625
v 0 0.021875 0.44375
v 0.08125 0.021875 0.44375
v 0.08125 0.021875 0.3625
v 0 0.021875 0.3625
vt 0.568848 0.195984
vt 0.586304 0.195984
vt 0.586304 0.200684
vt 0.568848 0.200684
vt 0.463257 0.200684
vt 0.445801 0.200684
vt 0.445801 0.195984
vt 0.463257 0.195984
vt 0.589355 0.195984
vt 0.606812 0.195984
vt 0.606812 0.200684
vt 0.589355 0.200684
vt 0.466309 0.195984
vt 0.483765 0.195984
vt 0.483765 0.200684
vt 0.466309 0.200684
vt 0.971069 0.621704
vt 0.971069 0.63916
vt 0.953613 0.63916
vt 0.953613 0.63916
vt 0.953613 0.621704
vt 0.971069 0.621704
vt 0.974121 0.621704
vt 0.991577 0.621704
vt 0.991577 0.63916
vt 0.991577 0.63916
vt 0.974121 0.63916
vt 0.974121 0.621704
vn 0 0 1
vn 1 0 0
vn 0 0 -1
vn -1 0 0
vn 0 -1 0
vn 0 1 0
f 289/553/19 290/554/19 294/555/19 293/556/19
f 290/557/20 291/558/20 295/559/20 294/560/20
f 291/561/21 292/562/21 296/563/21 295/564/21
f 292/565/22 289/566/22 293/567/22 296/568/22
f 298/569/23 297/570/23 300/571/23
f 300/572/23 299/573/23 298/574/23
f 304/575/24 301/576/24 302/577/24
f 302/578/24 303/579/24 304/580/24
o end_left_lower__end_left_lower_foot1
usemtl storage_rack
v 0 0 0.9875
v 0.08125 0 0.9875
v 0.08125 0 0.90625
v 0 0 0.90625
v 0 0.021875 0.9875
v 0.08125 0.021875 0.9875
v 0.08125 0.021875 0.90625
v 0 0.021875 0.90625
v 0 0 0.9875
v 0.08125 0 0.9875
v 0.08125 0 0.90625
v 0 0 0.90625
v 0 0.021875 0.9875
v 0.08125 0.021875 0.9875
v 0.08125 0.021875 0.90625
v 0 0.021875 0.90625
vt 0.609863 0.195984
vt 0.627319 0.195984
vt 0.627319 0.200684
vt 0.609863 0.200684
vt 0.647827 0.200684
vt 0.630371 0.200684
vt 0.630371 0.195984
vt 0.647827 0.195984
vt 0.650879 0.195984
vt 0.668335 0.195984
vt 0.668335 0.200684
vt 0.650879 0.200684
vt 0.671387 0.195984
vt 0.688843 0.195984
vt 0.688843 0.200684
vt 0.671387 0.200684
vt 0.265991 0.601196
vt 0.265991 0.618652
vt 0.248535 0.618652
vt 0.248535 0.618652
vt 0.248535 0.601196
vt 0.265991 0.601196
vt 0.269043 0.601196
vt 0.286499 0.601196
vt 0.286499 0.618652
vt 0.286499 0.618652
vt 0.269043 0.618652
vt 0.269043 0.601196
vn 0 0 1
vn 1 0 0
vn 0 0 -1
vn -1 0 0
vn 0 -1 0
vn 0 1 0
f 305/581/25 306/582/25 310/583/25 309/584/25
f 306/585/26 307/586/26 311/587/26 310/588/26
f 307/589/27 308/590/27 312/591/27 311/592/27
f 308/593/28 305/594/28 309/595/28 312/596/28
f 314/597/29 313/598/29 316/599/29
f 316/600/29 315/601/29 314/602/29
f 320/603/30 317/604/30 318/605/30
f 318/606/30 319/607/30 320/608/30
