# AFL Storage Rack V1 end_right_upper, generated by tools/build-storage-rack-v1.mjs
mtllib end_right_upper.mtl
o end_right_upper__end_right_upper_beams
usemtl storage_rack
v 0.875 0.36875 0.3625
v 0.875 0.36875 0.375
v 0.875 0.421875 0.375
v 0.875 0.421875 0.409375
v 0.875 0.4375 0.409375
v 0.875 0.4375 0.3625
v 0.91875 0.36875 0.3625
v 0.91875 0.36875 0.375
v 0.91875 0.421875 0.375
v 0.91875 0.421875 0.409375
v 0.91875 0.4375 0.409375
v 0.91875 0.4375 0.3625
v 0.875 0.36875 0.3625
v 0.875 0.36875 0.375
v 0.875 0.421875 0.375
v 0.875 0.421875 0.409375
v 0.875 0.4375 0.409375
v 0.875 0.4375 0.3625
v 0.91875 0.36875 0.3625
v 0.91875 0.36875 0.375
v 0.91875 0.421875 0.375
v 0.91875 0.421875 0.409375
v 0.91875 0.4375 0.409375
v 0.91875 0.4375 0.3625
v 0.875 0.4375 0.9875
v 0.875 0.4375 0.940625
v 0.875 0.421875 0.940625
v 0.875 0.421875 0.975
v 0.875 0.36875 0.975
v 0.875 0.36875 0.9875
v 0.91875 0.4375 0.9875
v 0.91875 0.4375 0.940625
v 0.91875 0.421875 0.940625
v 0.91875 0.421875 0.975
v 0.91875 0.36875 0.975
v 0.91875 0.36875 0.9875
v 0.875 0.4375 0.9875
v 0.875 0.4375 0.940625
v 0.875 0.421875 0.940625
v 0.875 0.421875 0.975
v 0.875 0.36875 0.975
v 0.875 0.36875 0.9875
v 0.91875 0.4375 0.9875
v 0.91875 0.4375 0.940625
v 0.91875 0.421875 0.940625
v 0.91875 0.421875 0.975
v 0.91875 0.36875 0.975
v 0.91875 0.36875 0.9875
v 0.905 0.3875 0.90625
v 0.91875 0.3875 0.90625
v 0.91875 0.3875 0.44375
v 0.905 0.3875 0.44375
v 0.905 0.4375 0.90625
v 0.91875 0.4375 0.90625
v 0.91875 0.4375 0.44375
v 0.905 0.4375 0.44375
v 0.905 0.3875 0.90625
v 0.91875 0.3875 0.90625
v 0.91875 0.3875 0.44375
v 0.905 0.3875 0.44375
v 0.905 0.4375 0.90625
v 0.91875 0.4375 0.90625
v 0.91875 0.4375 0.44375
v 0.905 0.4375 0.44375
v 0.875 0.81875 0.3625
v 0.875 0.81875 0.375
v 0.875 0.871875 0.375
v 0.875 0.871875 0.409375
v 0.875 0.8875 0.409375
v 0.875 0.8875 0.3625
v 0.91875 0.81875 0.3625
v 0.91875 0.81875 0.375
v 0.91875 0.871875 0.375
v 0.91875 0.871875 0.409375
v 0.91875 0.8875 0.409375
v 0.91875 0.8875 0.3625
v 0.875 0.81875 0.3625
v 0.875 0.81875 0.375
v 0.875 0.871875 0.375
v 0.875 0.871875 0.409375
v 0.875 0.8875 0.409375
v 0.875 0.8875 0.3625
v 0.91875 0.81875 0.3625
v 0.91875 0.81875 0.375
v 0.91875 0.871875 0.375
v 0.91875 0.871875 0.409375
v 0.91875 0.8875 0.409375
v 0.91875 0.8875 0.3625
v 0.875 0.8875 0.9875
v 0.875 0.8875 0.940625
v 0.875 0.871875 0.940625
v 0.875 0.871875 0.975
v 0.875 0.81875 0.975
v 0.875 0.81875 0.9875
v 0.91875 0.8875 0.9875
v 0.91875 0.8875 0.940625
v 0.91875 0.871875 0.940625
v 0.91875 0.871875 0.975
v 0.91875 0.81875 0.975
v 0.91875 0.81875 0.9875
v 0.875 0.8875 0.9875
v 0.875 0.8875 0.940625
v 0.875 0.871875 0.940625
v 0.875 0.871875 0.975
v 0.875 0.81875 0.975
v 0.875 0.81875 0.9875
v 0.91875 0.8875 0.9875
v 0.91875 0.8875 0.940625
v 0.91875 0.871875 0.940625
v 0.91875 0.871875 0.975
v 0.91875 0.81875 0.975
v 0.91875 0.81875 0.9875
v 0.905 0.8375 0.90625
v 0.91875 0.8375 0.90625
v 0.91875 0.8375 0.44375
v 0.905 0.8375 0.44375
v 0.905 0.8875 0.90625
v 0.91875 0.8875 0.90625
v 0.91875 0.8875 0.44375
v 0.905 0.8875 0.44375
v 0.905 0.8375 0.90625
v 0.91875 0.8375 0.90625
v 0.91875 0.8375 0.44375
v 0.905 0.8375 0.44375
v 0.905 0.8875 0.90625
v 0.91875 0.8875 0.90625
v 0.91875 0.8875 0.44375
v 0.905 0.8875 0.44375
vt 0.322388 0.078857
vt 0.322388 0.081543
vt 0.312988 0.081543
vt 0.312988 0.078857
vt 0.914551 0.262573
vt 0.925964 0.262573
vt 0.925964 0.271973
vt 0.914551 0.271973
vt 0.322388 0.193298
vt 0.322388 0.200684
vt 0.312988 0.200684
vt 0.312988 0.193298
vt 0.322388 0.172913
vt 0.322388 0.17627
vt 0.312988 0.17627
vt 0.312988 0.172913
vt 0.392395 0.258301
vt 0.382324 0.258301
vt 0.382324 0.248901
vt 0.392395 0.248901
vt 0.573853 0.271973
vt 0.559082 0.271973
vt 0.559082 0.262573
vt 0.573853 0.262573
vt 0.058105 0.275574
vt 0.072876 0.275574
vt 0.072876 0.278259
vt 0.058105 0.275574
vt 0.072876 0.278259
vt 0.061462 0.278259
vt 0.058105 0.275574
vt 0.061462 0.278259
vt 0.061462 0.285645
vt 0.061462 0.285645
vt 0.058105 0.285645
vt 0.058105 0.275574
vt 0.07666 0.278259
vt 0.07666 0.275574
vt 0.091431 0.275574
vt 0.088074 0.278259
vt 0.07666 0.278259
vt 0.091431 0.275574
vt 0.088074 0.285645
vt 0.088074 0.278259
vt 0.091431 0.275574
vt 0.091431 0.275574
vt 0.091431 0.285645
vt 0.088074 0.285645
vt 0.406067 0.258301
vt 0.395996 0.258301
vt 0.395996 0.248901
vt 0.406067 0.248901
vt 0.325684 0.17627
vt 0.325684 0.172913
vt 0.335083 0.172913
vt 0.335083 0.17627
vt 0.335083 0.193298
vt 0.335083 0.200684
vt 0.325684 0.200684
vt 0.325684 0.193298
vt 0.940613 0.271973
vt 0.929199 0.271973
vt 0.929199 0.262573
vt 0.940613 0.262573
vt 0.335083 0.078857
vt 0.335083 0.081543
vt 0.325684 0.081543
vt 0.325684 0.078857
vt 0.577637 0.262573
vt 0.592407 0.262573
vt 0.592407 0.271973
vt 0.577637 0.271973
vt 0.095215 0.285645
vt 0.095215 0.275574
vt 0.098572 0.275574
vt 0.095215 0.285645
vt 0.098572 0.275574
vt 0.098572 0.282959
vt 0.109985 0.285645
vt 0.095215 0.285645
vt 0.098572 0.282959
vt 0.098572 0.282959
vt 0.109985 0.282959
vt 0.109985 0.285645
vt 0.125183 0.275574
vt 0.12854 0.275574
vt 0.12854 0.285645
vt 0.125183 0.282959
vt 0.125183 0.275574
vt 0.12854 0.285645
vt 0.125183 0.282959
vt 0.12854 0.285645
vt 0.11377 0.285645
vt 0.11377 0.285645
vt 0.11377 0.282959
vt 0.125183 0.282959
vt 0.731934 0.101074
vt 0.731934 0.09812
vt 0.742676 0.09812
vt 0.742676 0.101074
vt 0.306885 0.355957
vt 0.20752 0.355957
vt 0.20752 0.345215
vt 0.306885 0.345215
vt 0.746582 0.101074
vt 0.746582 0.09812
vt 0.757324 0.09812
vt 0.757324 0.101074
vt 0.310059 0.345215
vt 0.409424 0.345215
vt 0.409424 0.355957
vt 0.310059 0.355957
vt 0.717041 0.104956
vt 0.717041 0.10791
vt 0.617676 0.10791
vt 0.617676 0.10791
vt 0.617676 0.104956
vt 0.717041 0.104956
vt 0.720215 0.104956
vt 0.81958 0.104956
vt 0.81958 0.10791
vt 0.81958 0.10791
vt 0.720215 0.10791
vt 0.720215 0.104956
vt 0.347778 0.078857
vt 0.347778 0.081543
vt 0.338379 0.081543
vt 0.338379 0.078857
vt 0.943848 0.262573
vt 0.955261 0.262573
vt 0.955261 0.271973
vt 0.943848 0.271973
vt 0.347778 0.193298
vt 0.347778 0.200684
vt 0.338379 0.200684
vt 0.338379 0.193298
vt 0.347778 0.172913
vt 0.347778 0.17627
vt 0.338379 0.17627
vt 0.338379 0.172913
vt 0.419739 0.258301
vt 0.409668 0.258301
vt 0.409668 0.248901
vt 0.419739 0.248901
vt 0.610962 0.271973
vt 0.596191 0.271973
vt 0.596191 0.262573
vt 0.610962 0.262573
vt 0.132324 0.275574
vt 0.147095 0.275574
vt 0.147095 0.278259
vt 0.132324 0.275574
vt 0.147095 0.278259
vt 0.135681 0.278259
vt 0.132324 0.275574
vt 0.135681 0.278259
vt 0.135681 0.285645
vt 0.135681 0.285645
vt 0.132324 0.285645
vt 0.132324 0.275574
vt 0.150879 0.278259
vt 0.150879 0.275574
vt 0.165649 0.275574
vt 0.162292 0.278259
vt 0.150879 0.278259
vt 0.165649 0.275574
vt 0.162292 0.285645
vt 0.162292 0.278259
vt 0.165649 0.275574
vt 0.165649 0.275574
vt 0.165649 0.285645
vt 0.162292 0.285645
vt 0.433411 0.258301
vt 0.42334 0.258301
vt 0.42334 0.248901
vt 0.433411 0.248901
vt 0.351074 0.17627
vt 0.351074 0.172913
vt 0.360474 0.172913
vt 0.360474 0.17627
vt 0.360474 0.193298
vt 0.360474 0.200684
vt 0.351074 0.200684
vt 0.351074 0.193298
vt 0.96991 0.271973
vt 0.958496 0.271973
vt 0.958496 0.262573
vt 0.96991 0.262573
vt 0.360474 0.078857
vt 0.360474 0.081543
vt 0.351074 0.081543
vt 0.351074 0.078857
vt 0.614746 0.262573
vt 0.629517 0.262573
vt 0.629517 0.271973
vt 0.614746 0.271973
vt 0.169434 0.285645
vt 0.169434 0.275574
vt 0.172791 0.275574
vt 0.169434 0.285645
vt 0.172791 0.275574
vt 0.172791 0.282959
vt 0.184204 0.285645
vt 0.169434 0.285645
vt 0.172791 0.282959
vt 0.172791 0.282959
vt 0.184204 0.282959
vt 0.184204 0.285645
vt 0.199402 0.275574
vt 0.202759 0.275574
vt 0.202759 0.285645
vt 0.199402 0.282959
vt 0.199402 0.275574
vt 0.202759 0.285645
vt 0.199402 0.282959
vt 0.202759 0.285645
vt 0.187988 0.285645
vt 0.187988 0.285645
vt 0.187988 0.282959
vt 0.199402 0.282959
vt 0.76123 0.101074
vt 0.76123 0.09812
vt 0.771973 0.09812
vt 0.771973 0.101074
vt 0.511963 0.355957
vt 0.412598 0.355957
vt 0.412598 0.345215
vt 0.511963 0.345215
vt 0.775879 0.101074
vt 0.775879 0.09812
vt 0.786621 0.09812
vt 0.786621 0.101074
vt 0.515137 0.345215
vt 0.614502 0.345215
vt 0.614502 0.355957
vt 0.515137 0.355957
vt 0.922119 0.104956
vt 0.922119 0.10791
vt 0.822754 0.10791
vt 0.822754 0.10791
vt 0.822754 0.104956
vt 0.922119 0.104956
vt 0.002441 0.09812
vt 0.101807 0.09812
vt 0.101807 0.101074
vt 0.101807 0.101074
vt 0.002441 0.101074
vt 0.002441 0.09812
vn 0 -1 0
vn 0 0 1
vn 0 1 0
vn 0 0 -1
vn -1 0 0
vn 1 0 0
f 7/1/1 8/2/1 2/3/1 1/4/1
f 8/5/2 9/6/2 3/7/2 2/8/2
f 9/9/1 10/10/1 4/11/1 3/12/1
f 10/13/2 11/14/2 5/15/2 4/16/2
f 11/17/3 12/18/3 6/19/3 5/20/3
f 12/21/4 7/22/4 1/23/4 6/24/4
f 18/25/5 13/26/5 14/27/5
f 18/28/5 14/29/5 15/30/5
f 18/31/5 15/32/5 16/33/5
f 16/34/5 17/35/5 18/36/5
f 20/37/6 19/38/6 24/39/6
f 21/40/6 20/41/6 24/42/6
f 22/43/6 21/44/6 24/45/6
f 24/46/6 23/47/6 22/48/6
f 31/49/3 32/50/3 26/51/3 25/52/3
f 32/53/4 33/54/4 27/55/4 26/56/4
f 33/57/1 34/58/1 28/59/1 27/60/1
f 34/61/4 35/62/4 29/63/4 28/64/4
f 35/65/1 36/66/1 30/67/1 29/68/1
f 36/69/2 31/70/2 25/71/2 30/72/2
f 37/73/5 38/74/5 39/75/5
f 37/76/5 39/77/5 40/78/5
f 42/79/5 37/80/5 40/81/5
f 40/82/5 41/83/5 42/84/5
f 45/85/6 44/86/6 43/87/6
f 46/88/6 45/89/6 43/90/6
f 46/91/6 43/92/6 48/93/6
f 48/94/6 47/95/6 46/96/6
f 49/97/2 50/98/2 54/99/2 53/100/2
f 50/101/6 51/102/6 55/103/6 54/104/6
f 51/105/4 52/106/4 56/107/4 55/108/4
f 52/109/5 49/110/5 53/111/5 56/112/5
f 58/113/1 57/114/1 60/115/1
f 60/116/1 59/117/1 58/118/1
f 64/119/3 61/120/3 62/121/3
f 62/122/3 63/123/3 64/124/3
f 71/125/1 72/126/1 66/127/1 65/128/1
f 72/129/2 73/130/2 67/131/2 66/132/2
f 73/133/1 74/134/1 68/135/1 67/136/1
f 74/137/2 75/138/2 69/139/2 68/140/2
f 75/141/3 76/142/3 70/143/3 69/144/3
f 76/145/4 71/146/4 65/147/4 70/148/4
f 82/149/5 77/150/5 78/151/5
f 82/152/5 78/153/5 79/154/5
f 82/155/5 79/156/5 80/157/5
f 80/158/5 81/159/5 82/160/5
f 84/161/6 83/162/6 88/163/6
f 85/164/6 84/165/6 88/166/6
f 86/167/6 85/168/6 88/169/6
f 88/170/6 87/171/6 86/172/6
f 95/173/3 96/174/3 90/175/3 89/176/3
f 96/177/4 97/178/4 91/179/4 90/180/4
f 97/181/1 98/182/1 92/183/1 91/184/1
f 98/185/4 99/186/4 93/187/4 92/188/4
f 99/189/1 100/190/1 94/191/1 93/192/1
f 100/193/2 95/194/2 89/195/2 94/196/2
f 101/197/5 102/198/5 103/199/5
f 101/200/5 103/201/5 104/202/5
f 106/203/5 101/204/5 104/205/5
f 104/206/5 105/207/5 106/208/5
f 109/209/6 108/210/6 107/211/6
f 110/212/6 109/213/6 107/214/6
f 110/215/6 107/216/6 112/217/6
f 112/218/6 111/219/6 110/220/6
f 113/221/2 114/222/2 118/223/2 117/224/2
f 114/225/6 115/226/6 119/227/6 118/228/6
f 115/229/4 116/230/4 120/231/4 119/232/4
f 116/233/5 113/234/5 117/235/5 120/236/5
f 122/237/1 121/238/1 124/239/1
f 124/240/1 123/241/1 122/242/1
f 128/243/3 125/244/3 126/245/3
f 126/246/3 127/247/3 128/248/3
o end_right_upper__end_right_upper_deck
usemtl storage_rack
v 0.875 0.409375 0.940625
v 0.911875 0.409375 0.940625
v 0.911875 0.409375 0.409375
v 0.875 0.409375 0.409375
v 0.875 0.421875 0.940625
v 0.911875 0.421875 0.940625
v 0.911875 0.421875 0.409375
v 0.875 0.421875 0.409375
v 0.875 0.409375 0.940625
v 0.911875 0.409375 0.940625
v 0.911875 0.409375 0.409375
v 0.875 0.409375 0.409375
v 0.875 0.421875 0.940625
v 0.911875 0.421875 0.940625
v 0.911875 0.421875 0.409375
v 0.875 0.421875 0.409375
v 0.875 0.859375 0.940625
v 0.911875 0.859375 0.940625
v 0.911875 0.859375 0.409375
v 0.875 0.859375 0.409375
v 0.875 0.871875 0.940625
v 0.911875 0.871875 0.940625
v 0.911875 0.871875 0.409375
v 0.875 0.871875 0.409375
v 0.875 0.859375 0.940625
v 0.911875 0.859375 0.940625
v 0.911875 0.859375 0.409375
v 0.875 0.859375 0.409375
v 0.875 0.871875 0.940625
v 0.911875 0.871875 0.940625
v 0.911875 0.871875 0.409375
v 0.875 0.871875 0.409375
vt 0.947754 0.031982
vt 0.955676 0.031982
vt 0.955676 0.034668
vt 0.947754 0.034668
vt 0.585327 0.040527
vt 0.471191 0.040527
vt 0.471191 0.037842
vt 0.585327 0.037842
vt 0.959473 0.031982
vt 0.967395 0.031982
vt 0.967395 0.034668
vt 0.959473 0.034668
vt 0.588379 0.037842
vt 0.702515 0.037842
vt 0.702515 0.040527
vt 0.588379 0.040527
vt 0.585327 0.225964
vt 0.585327 0.233887
vt 0.471191 0.233887
vt 0.471191 0.233887
vt 0.471191 0.225964
vt 0.585327 0.225964
vt 0.588379 0.225964
vt 0.702515 0.225964
vt 0.702515 0.233887
vt 0.702515 0.233887
vt 0.588379 0.233887
vt 0.588379 0.225964
vt 0.971191 0.031982
vt 0.979114 0.031982
vt 0.979114 0.034668
vt 0.971191 0.034668
vt 0.819702 0.040527
vt 0.705566 0.040527
vt 0.705566 0.037842
vt 0.819702 0.037842
vt 0.98291 0.031982
vt 0.990833 0.031982
vt 0.990833 0.034668
vt 0.98291 0.034668
vt 0.822754 0.037842
vt 0.93689 0.037842
vt 0.93689 0.040527
vt 0.822754 0.040527
vt 0.819702 0.225964
vt 0.819702 0.233887
vt 0.705566 0.233887
vt 0.705566 0.233887
vt 0.705566 0.225964
vt 0.819702 0.225964
vt 0.822754 0.225964
vt 0.93689 0.225964
vt 0.93689 0.233887
vt 0.93689 0.233887
vt 0.822754 0.233887
vt 0.822754 0.225964
vn 0 0 1
vn 1 0 0
vn 0 0 -1
vn -1 0 0
vn 0 -1 0
vn 0 1 0
f 129/249/7 130/250/7 134/251/7 133/252/7
f 130/253/8 131/254/8 135/255/8 134/256/8
f 131/257/9 132/258/9 136/259/9 135/260/9
f 132/261/10 129/262/10 133/263/10 136/264/10
f 138/265/11 137/266/11 140/267/11
f 140/268/11 139/269/11 138/270/11
f 144/271/12 141/272/12 142/273/12
f 142/274/12 143/275/12 144/276/12
f 145/277/7 146/278/7 150/279/7 149/280/7
f 146/281/8 147/282/8 151/283/8 150/284/8
f 147/285/9 148/286/9 152/287/9 151/288/9
f 148/289/10 145/290/10 149/291/10 152/292/10
f 154/293/11 153/294/11 156/295/11
f 156/296/11 155/297/11 154/298/11
f 160/299/12 157/300/12 158/301/12
f 158/302/12 159/303/12 160/304/12
o end_right_upper__end_right_upper_posts
usemtl storage_rack
v 1 0 0.3625
v 0.91875 0 0.3625
v 0.91875 0 0.37625
v 0.98625 0 0.37625
v 0.98625 0 0.44375
v 1 0 0.44375
v 1 0.95 0.3625
v 0.91875 0.95 0.3625
v 0.91875 0.95 0.37625
v 0.98625 0.95 0.37625
v 0.98625 0.95 0.44375
v 1 0.95 0.44375
v 1 0 0.3625
v 0.91875 0 0.3625
v 0.91875 0 0.37625
v 0.98625 0 0.37625
v 0.98625 0 0.44375
v 1 0 0.44375
v 1 0.95 0.3625
v 0.91875 0.95 0.3625
v 0.91875 0.95 0.37625
v 0.98625 0.95 0.37625
v 0.98625 0.95 0.44375
v 1 0.95 0.44375
v 1 0 0.90625
v 0.98625 0 0.90625
v 0.98625 0 0.97375
v 0.91875 0 0.97375
v 0.91875 0 0.9875
v 1 0 0.9875
v 1 0.95 0.90625
v 0.98625 0.95 0.90625
v 0.98625 0.95 0.97375
v 0.91875 0.95 0.97375
v 0.91875 0.95 0.9875
v 1 0.95 0.9875
v 1 0 0.90625
v 0.98625 0 0.90625
v 0.98625 0 0.97375
v 0.91875 0 0.97375
v 0.91875 0 0.9875
v 1 0 0.9875
v 1 0.95 0.90625
v 0.98625 0.95 0.90625
v 0.98625 0.95 0.97375
v 0.91875 0.95 0.97375
v 0.91875 0.95 0.9875
v 1 0.95 0.9875
vt 0.416504 0.659668
vt 0.416504 0.642212
vt 0.620605 0.642212
vt 0.620605 0.659668
vt 0.841309 0.159644
vt 0.841309 0.162598
vt 0.637207 0.162598
vt 0.637207 0.159644
vt 0.416504 0.470215
vt 0.416504 0.455713
vt 0.620605 0.455713
vt 0.620605 0.470215
vt 0.827637 0.455713
vt 0.827637 0.470215
vt 0.623535 0.470215
vt 0.623535 0.455713
vt 0.623535 0.135254
vt 0.623535 0.1323
vt 0.827637 0.1323
vt 0.827637 0.135254
vt 0.002441 0.721191
vt 0.002441 0.703735
vt 0.206543 0.703735
vt 0.206543 0.721191
vt 0.14895 0.618652
vt 0.145996 0.618652
vt 0.145996 0.601196
vt 0.14895 0.60415
vt 0.14895 0.618652
vt 0.145996 0.601196
vt 0.14895 0.60415
vt 0.145996 0.601196
vt 0.163452 0.601196
vt 0.163452 0.601196
vt 0.163452 0.60415
vt 0.14895 0.60415
vt 0.166504 0.618652
vt 0.166504 0.601196
vt 0.169458 0.601196
vt 0.166504 0.618652
vt 0.169458 0.601196
vt 0.169458 0.615698
vt 0.18396 0.618652
vt 0.166504 0.618652
vt 0.169458 0.615698
vt 0.169458 0.615698
vt 0.18396 0.615698
vt 0.18396 0.618652
vt 0.002441 0.128418
vt 0.002441 0.125464
vt 0.206543 0.125464
vt 0.206543 0.128418
vt 0.206543 0.438135
vt 0.206543 0.452637
vt 0.002441 0.452637
vt 0.002441 0.438135
vt 0.209473 0.452637
vt 0.209473 0.438135
vt 0.413574 0.438135
vt 0.413574 0.452637
vt 0.413574 0.125464
vt 0.413574 0.128418
vt 0.209473 0.128418
vt 0.209473 0.125464
vt 0.623535 0.659668
vt 0.623535 0.642212
vt 0.827637 0.642212
vt 0.827637 0.659668
vt 0.002441 0.63916
vt 0.002441 0.621704
vt 0.206543 0.621704
vt 0.206543 0.63916
vt 0.453613 0.60415
vt 0.453613 0.601196
vt 0.471069 0.601196
vt 0.468115 0.60415
vt 0.453613 0.60415
vt 0.471069 0.601196
vt 0.468115 0.618652
vt 0.468115 0.60415
vt 0.471069 0.601196
vt 0.471069 0.601196
vt 0.471069 0.618652
vt 0.468115 0.618652
vt 0.491577 0.618652
vt 0.474121 0.618652
vt 0.474121 0.615698
vt 0.491577 0.618652
vt 0.474121 0.615698
vt 0.488623 0.615698
vt 0.491577 0.618652
vt 0.488623 0.615698
vt 0.488623 0.601196
vt 0.488623 0.601196
vt 0.491577 0.601196
vt 0.491577 0.618652
vn 0 0 -1
vn -1 0 0
vn 0 0 1
vn 1 0 0
vn 0 -1 0
vn 0 1 0
f 161/305/13 162/306/13 168/307/13 167/308/13
f 162/309/14 163/310/14 169/311/14 168/312/14
f 163/313/15 164/314/15 170/315/15 169/316/15
f 164/317/14 165/318/14 171/319/14 170/320/14
f 165/321/15 166/322/15 172/323/15 171/324/15
f 166/325/16 161/326/16 167/327/16 172/328/16
f 175/329/17 174/330/17 173/331/17
f 176/332/17 175/333/17 173/334/17
f 176/335/17 173/336/17 178/337/17
f 178/338/17 177/339/17 176/340/17
f 179/341/18 180/342/18 181/343/18
f 179/344/18 181/345/18 182/346/18
f 184/347/18 179/348/18 182/349/18
f 182/350/18 183/351/18 184/352/18
f 185/353/13 186/354/13 192/355/13 191/356/13
f 186/357/14 187/358/14 193/359/14 192/360/14
f 187/361/13 188/362/13 194/363/13 193/364/13
f 188/365/14 189/366/14 195/367/14 194/368/14
f 189/369/15 190/370/15 196/371/15 195/372/15
f 190/373/16 185/374/16 191/375/16 196/376/16
f 198/377/17 197/378/17 202/379/17
f 199/380/17 198/381/17 202/382/17
f 200/383/17 199/384/17 202/385/17
f 202/386/17 201/387/17 200/388/17
f 208/389/18 203/390/18 204/391/18
f 208/392/18 204/393/18 205/394/18
f 208/395/18 205/396/18 206/397/18
f 206/398/18 207/399/18 208/400/18
