# AFL Storage Rack V1 joint_right_upper, generated by tools/build-storage-rack-v1.mjs
mtllib joint_right_upper.mtl
o joint_right_upper__joint_right_upper_beams
usemtl storage_rack
v 0.875 0.36875 0.3625
v 0.875 0.36875 0.375
v 0.875 0.421875 0.375
v 0.875 0.421875 0.409375
v 0.875 0.4375 0.409375
v 0.875 0.4375 0.3625
v 0.959375 0.36875 0.3625
v 0.959375 0.36875 0.375
v 0.959375 0.421875 0.375
v 0.959375 0.421875 0.409375
v 0.959375 0.4375 0.409375
v 0.959375 0.4375 0.3625
v 0.875 0.36875 0.3625
v 0.875 0.36875 0.375
v 0.875 0.421875 0.375
v 0.875 0.421875 0.409375
v 0.875 0.4375 0.409375
v 0.875 0.4375 0.3625
v 0.959375 0.36875 0.3625
v 0.959375 0.36875 0.375
v 0.959375 0.421875 0.375
v 0.959375 0.421875 0.409375
v 0.959375 0.4375 0.409375
v 0.959375 0.4375 0.3625
v 0.875 0.4375 0.9875
v 0.875 0.4375 0.940625
v 0.875 0.421875 0.940625
v 0.875 0.421875 0.975
v 0.875 0.36875 0.975
v 0.875 0.36875 0.9875
v 0.959375 0.4375 0.9875
v 0.959375 0.4375 0.940625
v 0.959375 0.421875 0.940625
v 0.959375 0.421875 0.975
v 0.959375 0.36875 0.975
v 0.959375 0.36875 0.9875
v 0.875 0.4375 0.9875
v 0.875 0.4375 0.940625
v 0.875 0.421875 0.940625
v 0.875 0.421875 0.975
v 0.875 0.36875 0.975
v 0.875 0.36875 0.9875
v 0.959375 0.4375 0.9875
v 0.959375 0.4375 0.940625
v 0.959375 0.421875 0.940625
v 0.959375 0.421875 0.975
v 0.959375 0.36875 0.975
v 0.959375 0.36875 0.9875
v 0.945625 0.3875 0.90625
v 0.959375 0.3875 0.90625
v 0.959375 0.3875 0.44375
v 0.945625 0.3875 0.44375
v 0.945625 0.4375 0.90625
v 0.959375 0.4375 0.90625
v 0.959375 0.4375 0.44375
v 0.945625 0.4375 0.44375
v 0.945625 0.3875 0.90625
v 0.959375 0.3875 0.90625
v 0.959375 0.3875 0.44375
v 0.945625 0.3875 0.44375
v 0.945625 0.4375 0.90625
v 0.959375 0.4375 0.90625
v 0.959375 0.4375 0.44375
v 0.945625 0.4375 0.44375
v 0.875 0.81875 0.3625
v 0.875 0.81875 0.375
v 0.875 0.871875 0.375
v 0.875 0.871875 0.409375
v 0.875 0.8875 0.409375
v 0.875 0.8875 0.3625
v 0.959375 0.81875 0.3625
v 0.959375 0.81875 0.375
v 0.959375 0.871875 0.375
v 0.959375 0.871875 0.409375
v 0.959375 0.8875 0.409375
v 0.959375 0.8875 0.3625
v 0.875 0.81875 0.3625
v 0.875 0.81875 0.375
v 0.875 0.871875 0.375
v 0.875 0.871875 0.409375
v 0.875 0.8875 0.409375
v 0.875 0.8875 0.3625
v 0.959375 0.81875 0.3625
v 0.959375 0.81875 0.375
v 0.959375 0.871875 0.375
v 0.959375 0.871875 0.409375
v 0.959375 0.8875 0.409375
v 0.959375 0.8875 0.3625
v 0.875 0.8875 0.9875
v 0.875 0.8875 0.940625
v 0.875 0.871875 0.940625
v 0.875 0.871875 0.975
v 0.875 0.81875 0.975
v 0.875 0.81875 0.9875
v 0.959375 0.8875 0.9875
v 0.959375 0.8875 0.940625
v 0.959375 0.871875 0.940625
v 0.959375 0.871875 0.975
v 0.959375 0.81875 0.975
v 0.959375 0.81875 0.9875
v 0.875 0.8875 0.9875
v 0.875 0.8875 0.940625
v 0.875 0.871875 0.940625
v 0.875 0.871875 0.975
v 0.875 0.81875 0.975
v 0.875 0.81875 0.9875
v 0.959375 0.8875 0.9875
v 0.959375 0.8875 0.940625
v 0.959375 0.871875 0.940625
v 0.959375 0.871875 0.975
v 0.959375 0.81875 0.975
v 0.959375 0.81875 0.9875
v 0.945625 0.8375 0.90625
v 0.959375 0.8375 0.90625
v 0.959375 0.8375 0.44375
v 0.945625 0.8375 0.44375
v 0.945625 0.8875 0.90625
v 0.959375 0.8875 0.90625
v 0.959375 0.8875 0.44375
v 0.945625 0.8875 0.44375
v 0.945625 0.8375 0.90625
v 0.959375 0.8375 0.90625
v 0.959375 0.8375 0.44375
v 0.945625 0.8375 0.44375
v 0.945625 0.8875 0.90625
v 0.959375 0.8875 0.90625
v 0.959375 0.8875 0.44375
v 0.945625 0.8875 0.44375
vt 0.042053 0.078857
vt 0.042053 0.081543
vt 0.023926 0.081543
vt 0.023926 0.078857
vt 0.762756 0.388489
vt 0.762756 0.399902
vt 0.744629 0.399902
vt 0.744629 0.388489
vt 0.042053 0.193298
vt 0.042053 0.200684
vt 0.023926 0.200684
vt 0.023926 0.193298
vt 0.042053 0.172913
vt 0.042053 0.17627
vt 0.023926 0.17627
vt 0.023926 0.172913
vt 0.510254 0.299316
vt 0.510254 0.289246
vt 0.528381 0.289246
vt 0.528381 0.299316
vt 0.580566 0.577637
vt 0.580566 0.562866
vt 0.598694 0.562866
vt 0.598694 0.577637
vt 0.206543 0.275574
vt 0.221313 0.275574
vt 0.221313 0.278259
vt 0.206543 0.275574
vt 0.221313 0.278259
vt 0.2099 0.278259
vt 0.206543 0.275574
vt 0.2099 0.278259
vt 0.2099 0.285645
vt 0.2099 0.285645
vt 0.206543 0.285645
vt 0.206543 0.275574
vt 0.225098 0.278259
vt 0.225098 0.275574
vt 0.239868 0.275574
vt 0.236511 0.278259
vt 0.225098 0.278259
vt 0.239868 0.275574
vt 0.236511 0.285645
vt 0.236511 0.278259
vt 0.239868 0.275574
vt 0.239868 0.275574
vt 0.239868 0.285645
vt 0.236511 0.285645
vt 0.531738 0.299316
vt 0.531738 0.289246
vt 0.549866 0.289246
vt 0.549866 0.299316
vt 0.04541 0.17627
vt 0.04541 0.172913
vt 0.063538 0.172913
vt 0.063538 0.17627
vt 0.063538 0.193298
vt 0.063538 0.200684
vt 0.04541 0.200684
vt 0.04541 0.193298
vt 0.766113 0.399902
vt 0.766113 0.388489
vt 0.784241 0.388489
vt 0.784241 0.399902
vt 0.063538 0.078857
vt 0.063538 0.081543
vt 0.04541 0.081543
vt 0.04541 0.078857
vt 0.620178 0.562866
vt 0.620178 0.577637
vt 0.602051 0.577637
vt 0.602051 0.562866
vt 0.243652 0.285645
vt 0.243652 0.275574
vt 0.247009 0.275574
vt 0.243652 0.285645
vt 0.247009 0.275574
vt 0.247009 0.282959
vt 0.258423 0.285645
vt 0.243652 0.285645
vt 0.247009 0.282959
vt 0.247009 0.282959
vt 0.258423 0.282959
vt 0.258423 0.285645
vt 0.273621 0.275574
vt 0.276978 0.275574
vt 0.276978 0.285645
vt 0.273621 0.282959
vt 0.273621 0.275574
vt 0.276978 0.285645
vt 0.273621 0.282959
vt 0.276978 0.285645
vt 0.262207 0.285645
vt 0.262207 0.285645
vt 0.262207 0.282959
vt 0.273621 0.282959
vt 0.790527 0.101074
vt 0.790527 0.09812
vt 0.80127 0.09812
vt 0.80127 0.101074
vt 0.717041 0.355957
vt 0.617676 0.355957
vt 0.617676 0.345215
vt 0.717041 0.345215
vt 0.805176 0.101074
vt 0.805176 0.09812
vt 0.815918 0.09812
vt 0.815918 0.101074
vt 0.720215 0.345215
vt 0.81958 0.345215
vt 0.81958 0.355957
vt 0.720215 0.355957
vt 0.204346 0.09812
vt 0.204346 0.101074
vt 0.10498 0.101074
vt 0.10498 0.101074
vt 0.10498 0.09812
vt 0.204346 0.09812
vt 0.20752 0.09812
vt 0.306885 0.09812
vt 0.306885 0.101074
vt 0.306885 0.101074
vt 0.20752 0.101074
vt 0.20752 0.09812
vt 0.085022 0.078857
vt 0.085022 0.081543
vt 0.066895 0.081543
vt 0.066895 0.078857
vt 0.805725 0.388489
vt 0.805725 0.399902
vt 0.787598 0.399902
vt 0.787598 0.388489
vt 0.085022 0.193298
vt 0.085022 0.200684
vt 0.066895 0.200684
vt 0.066895 0.193298
vt 0.085022 0.172913
vt 0.085022 0.17627
vt 0.066895 0.17627
vt 0.066895 0.172913
vt 0.553223 0.299316
vt 0.553223 0.289246
vt 0.57135 0.289246
vt 0.57135 0.299316
vt 0.623535 0.577637
vt 0.623535 0.562866
vt 0.641663 0.562866
vt 0.641663 0.577637
vt 0.280762 0.275574
vt 0.295532 0.275574
vt 0.295532 0.278259
vt 0.280762 0.275574
vt 0.295532 0.278259
vt 0.284119 0.278259
vt 0.280762 0.275574
vt 0.284119 0.278259
vt 0.284119 0.285645
vt 0.284119 0.285645
vt 0.280762 0.285645
vt 0.280762 0.275574
vt 0.299316 0.278259
vt 0.299316 0.275574
vt 0.314087 0.275574
vt 0.31073 0.278259
vt 0.299316 0.278259
vt 0.314087 0.275574
vt 0.31073 0.285645
vt 0.31073 0.278259
vt 0.314087 0.275574
vt 0.314087 0.275574
vt 0.314087 0.285645
vt 0.31073 0.285645
vt 0.574707 0.299316
vt 0.574707 0.289246
vt 0.592834 0.289246
vt 0.592834 0.299316
vt 0.088379 0.17627
vt 0.088379 0.172913
vt 0.106506 0.172913
vt 0.106506 0.17627
vt 0.106506 0.193298
vt 0.106506 0.200684
vt 0.088379 0.200684
vt 0.088379 0.193298
vt 0.809082 0.399902
vt 0.809082 0.388489
vt 0.827209 0.388489
vt 0.827209 0.399902
vt 0.106506 0.078857
vt 0.106506 0.081543
vt 0.088379 0.081543
vt 0.088379 0.078857
vt 0.663147 0.562866
vt 0.663147 0.577637
vt 0.64502 0.577637
vt 0.64502 0.562866
vt 0.317871 0.285645
vt 0.317871 0.275574
vt 0.321228 0.275574
vt 0.317871 0.285645
vt 0.321228 0.275574
vt 0.321228 0.282959
vt 0.332642 0.285645
vt 0.317871 0.285645
vt 0.321228 0.282959
vt 0.321228 0.282959
vt 0.332642 0.282959
vt 0.332642 0.285645
vt 0.347839 0.275574
vt 0.351196 0.275574
vt 0.351196 0.285645
vt 0.347839 0.282959
vt 0.347839 0.275574
vt 0.351196 0.285645
vt 0.347839 0.282959
vt 0.351196 0.285645
vt 0.336426 0.285645
vt 0.336426 0.285645
vt 0.336426 0.282959
vt 0.347839 0.282959
vt 0.819824 0.101074
vt 0.819824 0.09812
vt 0.830566 0.09812
vt 0.830566 0.101074
vt 0.922119 0.355957
vt 0.822754 0.355957
vt 0.822754 0.345215
vt 0.922119 0.345215
vt 0.834473 0.101074
vt 0.834473 0.09812
vt 0.845215 0.09812
vt 0.845215 0.101074
vt 0.002441 0.330566
vt 0.101807 0.330566
vt 0.101807 0.341309
vt 0.002441 0.341309
vt 0.409424 0.09812
vt 0.409424 0.101074
vt 0.310059 0.101074
vt 0.310059 0.101074
vt 0.310059 0.09812
vt 0.409424 0.09812
vt 0.412598 0.09812
vt 0.511963 0.09812
vt 0.511963 0.101074
vt 0.511963 0.101074
vt 0.412598 0.101074
vt 0.412598 0.09812
vn 0 -1 0
vn 0 0 1
vn 0 1 0
vn 0 0 -1
vn -1 0 0
vn 1 0 0
f 7/1/1 8/2/1 2/3/1 1/4/1
f 8/5/2 9/6/2 3/7/2 2/8/2
f 9/9/1 10/10/1 4/11/1 3/12/1
f 10/13/2 11/14/2 5/15/2 4/16/2
f 11/17/3 12/18/3 6/19/3 5/20/3
f 12/21/4 7/22/4 1/23/4 6/24/4
f 18/25/5 13/26/5 14/27/5
f 18/28/5 14/29/5 15/30/5
f 18/31/5 15/32/5 16/33/5
f 16/34/5 17/35/5 18/36/5
f 20/37/6 19/38/6 24/39/6
f 21/40/6 20/41/6 24/42/6
f 22/43/6 21/44/6 24/45/6
f 24/46/6 23/47/6 22/48/6
f 31/49/3 32/50/3 26/51/3 25/52/3
f 32/53/4 33/54/4 27/55/4 26/56/4
f 33/57/1 34/58/1 28/59/1 27/60/1
f 34/61/4 35/62/4 29/63/4 28/64/4
f 35/65/1 36/66/1 30/67/1 29/68/1
f 36/69/2 31/70/2 25/71/2 30/72/2
f 37/73/5 38/74/5 39/75/5
f 37/76/5 39/77/5 40/78/5
f 42/79/5 37/80/5 40/81/5
f 40/82/5 41/83/5 42/84/5
f 45/85/6 44/86/6 43/87/6
f 46/88/6 45/89/6 43/90/6
f 46/91/6 43/92/6 48/93/6
f 48/94/6 47/95/6 46/96/6
f 49/97/2 50/98/2 54/99/2 53/100/2
f 50/101/6 51/102/6 55/103/6 54/104/6
f 51/105/4 52/106/4 56/107/4 55/108/4
f 52/109/5 49/110/5 53/111/5 56/112/5
f 58/113/1 57/114/1 60/115/1
f 60/116/1 59/117/1 58/118/1
f 64/119/3 61/120/3 62/121/3
f 62/122/3 63/123/3 64/124/3
f 71/125/1 72/126/1 66/127/1 65/128/1
f 72/129/2 73/130/2 67/131/2 66/132/2
f 73/133/1 74/134/1 68/135/1 67/136/1
f 74/137/2 75/138/2 69/139/2 68/140/2
f 75/141/3 76/142/3 70/143/3 69/144/3
f 76/145/4 71/146/4 65/147/4 70/148/4
f 82/149/5 77/150/5 78/151/5
f 82/152/5 78/153/5 79/154/5
f 82/155/5 79/156/5 80/157/5
f 80/158/5 81/159/5 82/160/5
f 84/161/6 83/162/6 88/163/6
f 85/164/6 84/165/6 88/166/6
f 86/167/6 85/168/6 88/169/6
f 88/170/6 87/171/6 86/172/6
f 95/173/3 96/174/3 90/175/3 89/176/3
f 96/177/4 97/178/4 91/179/4 90/180/4
f 97/181/1 98/182/1 92/183/1 91/184/1
f 98/185/4 99/186/4 93/187/4 92/188/4
f 99/189/1 100/190/1 94/191/1 93/192/1
f 100/193/2 95/194/2 89/195/2 94/196/2
f 101/197/5 102/198/5 103/199/5
f 101/200/5 103/201/5 104/202/5
f 106/203/5 101/204/5 104/205/5
f 104/206/5 105/207/5 106/208/5
f 109/209/6 108/210/6 107/211/6
f 110/212/6 109/213/6 107/214/6
f 110/215/6 107/216/6 112/217/6
f 112/218/6 111/219/6 110/220/6
f 113/221/2 114/222/2 118/223/2 117/224/2
f 114/225/6 115/226/6 119/227/6 118/228/6
f 115/229/4 116/230/4 120/231/4 119/232/4
f 116/233/5 113/234/5 117/235/5 120/236/5
f 122/237/1 121/238/1 124/239/1
f 124/240/1 123/241/1 122/242/1
f 128/243/3 125/244/3 126/245/3
f 126/246/3 127/247/3 128/248/3
o joint_right_upper__joint_right_upper_deck
usemtl storage_rack
v 0.875 0.409375 0.940625
v 0.9525 0.409375 0.940625
v 0.9525 0.409375 0.409375
v 0.875 0.409375 0.409375
v 0.875 0.421875 0.940625
v 0.9525 0.421875 0.940625
v 0.9525 0.421875 0.409375
v 0.875 0.421875 0.409375
v 0.875 0.409375 0.940625
v 0.9525 0.409375 0.940625
v 0.9525 0.409375 0.409375
v 0.875 0.409375 0.409375
v 0.875 0.421875 0.940625
v 0.9525 0.421875 0.940625
v 0.9525 0.421875 0.409375
v 0.875 0.421875 0.409375
v 0.875 0.859375 0.940625
v 0.9525 0.859375 0.940625
v 0.9525 0.859375 0.409375
v 0.875 0.859375 0.409375
v 0.875 0.871875 0.940625
v 0.9525 0.871875 0.940625
v 0.9525 0.871875 0.409375
v 0.875 0.871875 0.409375
v 0.875 0.859375 0.940625
v 0.9525 0.859375 0.940625
v 0.9525 0.859375 0.409375
v 0.875 0.859375 0.409375
v 0.875 0.871875 0.940625
v 0.9525 0.871875 0.940625
v 0.9525 0.871875 0.409375
v 0.875 0.871875 0.409375
vt 0.725098 0.031982
vt 0.741748 0.031982
vt 0.741748 0.034668
vt 0.725098 0.034668
vt 0.116577 0.034668
vt 0.002441 0.034668
vt 0.002441 0.031982
vt 0.116577 0.031982
vt 0.745605 0.031982
vt 0.762256 0.031982
vt 0.762256 0.034668
vt 0.745605 0.034668
vt 0.119629 0.031982
vt 0.233765 0.031982
vt 0.233765 0.034668
vt 0.119629 0.034668
vt 0.46814 0.581494
vt 0.46814 0.598145
vt 0.354004 0.598145
vt 0.354004 0.598145
vt 0.354004 0.581494
vt 0.46814 0.581494
vt 0.471191 0.581494
vt 0.585327 0.581494
vt 0.585327 0.598145
vt 0.585327 0.598145
vt 0.471191 0.598145
vt 0.471191 0.581494
vt 0.766113 0.031982
vt 0.782764 0.031982
vt 0.782764 0.034668
vt 0.766113 0.034668
vt 0.350952 0.034668
vt 0.236816 0.034668
vt 0.236816 0.031982
vt 0.350952 0.031982
vt 0.786621 0.031982
vt 0.803271 0.031982
vt 0.803271 0.034668
vt 0.786621 0.034668
vt 0.354004 0.031982
vt 0.46814 0.031982
vt 0.46814 0.034668
vt 0.354004 0.034668
vt 0.702515 0.581494
vt 0.702515 0.598145
vt 0.588379 0.598145
vt 0.588379 0.598145
vt 0.588379 0.581494
vt 0.702515 0.581494
vt 0.705566 0.581494
vt 0.819702 0.581494
vt 0.819702 0.598145
vt 0.819702 0.598145
vt 0.705566 0.598145
vt 0.705566 0.581494
vn 0 0 1
vn 1 0 0
vn 0 0 -1
vn -1 0 0
vn 0 -1 0
vn 0 1 0
f 129/249/7 130/250/7 134/251/7 133/252/7
f 130/253/8 131/254/8 135/255/8 134/256/8
f 131/257/9 132/258/9 136/259/9 135/260/9
f 132/261/10 129/262/10 133/263/10 136/264/10
f 138/265/11 137/266/11 140/267/11
f 140/268/11 139/269/11 138/270/11
f 144/271/12 141/272/12 142/273/12
f 142/274/12 143/275/12 144/276/12
f 145/277/7 146/278/7 150/279/7 149/280/7
f 146/281/8 147/282/8 151/283/8 150/284/8
f 147/285/9 148/286/9 152/287/9 151/288/9
f 148/289/10 145/290/10 149/291/10 152/292/10
f 154/293/11 153/294/11 156/295/11
f 156/296/11 155/297/11 154/298/11
f 160/299/12 157/300/12 158/301/12
f 158/302/12 159/303/12 160/304/12
o joint_right_upper__joint_right_upper_posts
usemtl storage_rack
v 1.040625 0 0.3625
v 0.959375 0 0.3625
v 0.959375 0 0.37625
v 1.026875 0 0.37625
v 1.026875 0 0.44375
v 1.040625 0 0.44375
v 1.040625 0.95 0.3625
v 0.959375 0.95 0.3625
v 0.959375 0.95 0.37625
v 1.026875 0.95 0.37625
v 1.026875 0.95 0.44375
v 1.040625 0.95 0.44375
v 1.040625 0 0.3625
v 0.959375 0 0.3625
v 0.959375 0 0.37625
v 1.026875 0 0.37625
v 1.026875 0 0.44375
v 1.040625 0 0.44375
v 1.040625 0.95 0.3625
v 0.959375 0.95 0.3625
v 0.959375 0.95 0.37625
v 1.026875 0.95 0.37625
v 1.026875 0.95 0.44375
v 1.040625 0.95 0.44375
v 0.959375 0 0.37625
v 1.026875 0 0.37625
v 1.026875 0 0.3625
v 0.959375 0 0.3625
v 0.959375 0.95 0.37625
v 1.026875 0.95 0.37625
v 1.026875 0.95 0.3625
v 0.959375 0.95 0.3625
v 0.959375 0 0.37625
v 1.026875 0 0.37625
v 1.026875 0 0.3625
v 0.959375 0 0.3625
v 0.959375 0.95 0.37625
v 1.026875 0.95 0.37625
v 1.026875 0.95 0.3625
v 0.959375 0.95 0.3625
v 1.040625 0 0.90625
v 1.026875 0 0.90625
v 1.026875 0 0.97375
v 0.959375 0 0.97375
v 0.959375 0 0.9875
v 1.040625 0 0.9875
v 1.040625 0.95 0.90625
v 1.026875 0.95 0.90625
v 1.026875 0.95 0.97375
v 0.959375 0.95 0.97375
v 0.959375 0.95 0.9875
v 1.040625 0.95 0.9875
v 1.040625 0 0.90625
v 1.026875 0 0.90625
v 1.026875 0 0.97375
v 0.959375 0 0.97375
v 0.959375 0 0.9875
v 1.040625 0 0.9875
v 1.040625 0.95 0.90625
v 1.026875 0.95 0.90625
v 1.026875 0.95 0.97375
v 0.959375 0.95 0.97375
v 0.959375 0.95 0.9875
v 1.040625 0.95 0.9875
v 0.959375 0 0.9875
v 1.026875 0 0.9875
v 1.026875 0 0.97375
v 0.959375 0 0.97375
v 0.959375 0.95 0.9875
v 1.026875 0.95 0.9875
v 1.026875 0.95 0.97375
v 0.959375 0.95 0.97375
v 0.959375 0 0.9875
v 1.026875 0 0.9875
v 1.026875 0 0.97375
v 0.959375 0 0.97375
v 0.959375 0.95 0.9875
v 1.026875 0.95 0.9875
v 1.026875 0.95 0.97375
v 0.959375 0.95 0.97375
vt 0.209473 0.63916
vt 0.209473 0.621704
vt 0.413574 0.621704
vt 0.413574 0.63916
vt 0.206543 0.152808
vt 0.206543 0.155762
vt 0.002441 0.155762
vt 0.002441 0.152808
vt 0.430176 0.41748
vt 0.430176 0.402979
vt 0.634277 0.402979
vt 0.634277 0.41748
vt 0.620605 0.438135
vt 0.620605 0.452637
vt 0.416504 0.452637
vt 0.416504 0.438135
vt 0.791504 0.17627
vt 0.791504 0.173315
vt 0.995605 0.173315
vt 0.995605 0.17627
vt 0.209473 0.721191
vt 0.209473 0.703735
vt 0.413574 0.703735
vt 0.413574 0.721191
vt 0.189966 0.618652
vt 0.187012 0.618652
vt 0.187012 0.601196
vt 0.189966 0.60415
vt 0.189966 0.618652
vt 0.187012 0.601196
vt 0.189966 0.60415
vt 0.187012 0.601196
vt 0.204468 0.601196
vt 0.204468 0.601196
vt 0.204468 0.60415
vt 0.189966 0.60415
vt 0.89209 0.63916
vt 0.89209 0.621704
vt 0.895044 0.621704
vt 0.89209 0.63916
vt 0.895044 0.621704
vt 0.895044 0.636206
vt 0.909546 0.63916
vt 0.89209 0.63916
vt 0.895044 0.636206
vt 0.895044 0.636206
vt 0.909546 0.636206
vt 0.909546 0.63916
vt 0.623535 0.452637
vt 0.623535 0.438135
vt 0.827637 0.438135
vt 0.827637 0.452637
vt 0.209473 0.155762
vt 0.209473 0.152808
vt 0.413574 0.152808
vt 0.413574 0.155762
vt 0.002441 0.435059
vt 0.002441 0.420557
vt 0.206543 0.420557
vt 0.206543 0.435059
vt 0.620605 0.152808
vt 0.620605 0.155762
vt 0.416504 0.155762
vt 0.416504 0.152808
vt 0.673193 0.155762
vt 0.658691 0.155762
vt 0.658691 0.152808
vt 0.658691 0.152808
vt 0.673193 0.152808
vt 0.673193 0.155762
vt 0.690771 0.152808
vt 0.690771 0.155762
vt 0.67627 0.155762
vt 0.67627 0.155762
vt 0.67627 0.152808
vt 0.690771 0.152808
vt 0.002441 0.169434
vt 0.002441 0.166479
vt 0.206543 0.166479
vt 0.206543 0.169434
vt 0.413574 0.420557
vt 0.413574 0.435059
vt 0.209473 0.435059
vt 0.209473 0.420557
vt 0.637207 0.41748
vt 0.637207 0.402979
vt 0.841309 0.402979
vt 0.841309 0.41748
vt 0.620605 0.125464
vt 0.620605 0.128418
vt 0.416504 0.128418
vt 0.416504 0.125464
vt 0.416504 0.63916
vt 0.416504 0.621704
vt 0.620605 0.621704
vt 0.620605 0.63916
vt 0.623535 0.63916
vt 0.623535 0.621704
vt 0.827637 0.621704
vt 0.827637 0.63916
vt 0.494629 0.60415
vt 0.494629 0.601196
vt 0.512085 0.601196
vt 0.509131 0.60415
vt 0.494629 0.60415
vt 0.512085 0.601196
vt 0.509131 0.618652
vt 0.509131 0.60415
vt 0.512085 0.601196
vt 0.512085 0.601196
vt 0.512085 0.618652
vt 0.509131 0.618652
vt 0.532593 0.618652
vt 0.515137 0.618652
vt 0.515137 0.615698
vt 0.532593 0.618652
vt 0.515137 0.615698
vt 0.529639 0.615698
vt 0.532593 0.618652
vt 0.529639 0.615698
vt 0.529639 0.601196
vt 0.529639 0.601196
vt 0.532593 0.601196
vt 0.532593 0.618652
vt 0.416504 0.435059
vt 0.416504 0.420557
vt 0.620605 0.420557
vt 0.620605 0.435059
vt 0.623535 0.128418
vt 0.623535 0.125464
vt 0.827637 0.125464
vt 0.827637 0.128418
vt 0.623535 0.435059
vt 0.623535 0.420557
vt 0.827637 0.420557
vt 0.827637 0.435059
vt 0.206543 0.118628
vt 0.206543 0.121582
vt 0.002441 0.121582
vt 0.002441 0.118628
vt 0.564795 0.101074
vt 0.550293 0.101074
vt 0.550293 0.09812
vt 0.550293 0.09812
vt 0.564795 0.09812
vt 0.564795 0.101074
vt 0.582373 0.09812
vt 0.582373 0.101074
vt 0.567871 0.101074
vt 0.567871 0.101074
vt 0.567871 0.09812
vt 0.582373 0.09812
vn 0 0 -1
vn -1 0 0
vn 0 0 1
vn 1 0 0
vn 0 -1 0
vn 0 1 0
f 161/305/13 162/306/13 168/307/13 167/308/13
f 162/309/14 163/310/14 169/311/14 168/312/14
f 163/313/15 164/314/15 170/315/15 169/316/15
f 164/317/14 165/318/14 171/319/14 170/320/14
f 165/321/15 166/322/15 172/323/15 171/324/15
f 166/325/16 161/326/16 167/327/16 172/328/16
f 175/329/17 174/330/17 173/331/17
f 176/332/17 175/333/17 173/334/17
f 176/335/17 173/336/17 178/337/17
f 178/338/17 177/339/17 176/340/17
f 179/341/18 180/342/18 181/343/18
f 179/344/18 181/345/18 182/346/18
f 184/347/18 179/348/18 182/349/18
f 182/350/18 183/351/18 184/352/18
f 185/353/15 186/354/15 190/355/15 189/356/15
f 186/357/16 187/358/16 191/359/16 190/360/16
f 187/361/13 188/362/13 192/363/13 191/364/13
f 188/365/14 185/366/14 189/367/14 192/368/14
f 194/369/17 193/370/17 196/371/17
f 196/372/17 195/373/17 194/374/17
f 200/375/18 197/376/18 198/377/18
f 198/378/18 199/379/18 200/380/18
f 201/381/13 202/382/13 208/383/13 207/384/13
f 202/385/14 203/386/14 209/387/14 208/388/14
f 203/389/13 204/390/13 210/391/13 209/392/13
f 204/393/14 205/394/14 211/395/14 210/396/14
f 205/397/15 206/398/15 212/399/15 211/400/15
f 206/401/16 201/402/16 207/403/16 212/404/16
f 214/405/17 213/406/17 218/407/17
f 215/408/17 214/409/17 218/410/17
f 216/411/17 215/412/17 218/413/17
f 218/414/17 217/415/17 216/416/17
f 224/417/18 219/418/18 220/419/18
f 224/420/18 220/421/18 221/422/18
f 224/423/18 221/424/18 222/425/18
f 222/426/18 223/427/18 224/428/18
f 225/429/15 226/430/15 230/431/15 229/432/15
f 226/433/16 227/434/16 231/435/16 230/436/16
f 227/437/13 228/438/13 232/439/13 231/440/13
f 228/441/14 225/442/14 229/443/14 232/444/14
f 234/445/17 233/446/17 236/447/17
f 236/448/17 235/449/17 234/450/17
f 240/451/18 237/452/18 238/453/18
f 238/454/18 239/455/18 240/456/18
