# AFL Storage Rack V1 joint_left_upper, generated by tools/build-storage-rack-v1.mjs
mtllib joint_left_upper.mtl
o joint_left_upper__joint_left_upper_beams
usemtl storage_rack
v 0.040625 0.36875 0.3625
v 0.040625 0.36875 0.375
v 0.040625 0.421875 0.375
v 0.040625 0.421875 0.409375
v 0.040625 0.4375 0.409375
v 0.040625 0.4375 0.3625
v 0.125 0.36875 0.3625
v 0.125 0.36875 0.375
v 0.125 0.421875 0.375
v 0.125 0.421875 0.409375
v 0.125 0.4375 0.409375
v 0.125 0.4375 0.3625
v 0.040625 0.36875 0.3625
v 0.040625 0.36875 0.375
v 0.040625 0.421875 0.375
v 0.040625 0.421875 0.409375
v 0.040625 0.4375 0.409375
v 0.040625 0.4375 0.3625
v 0.125 0.36875 0.3625
v 0.125 0.36875 0.375
v 0.125 0.421875 0.375
v 0.125 0.421875 0.409375
v 0.125 0.4375 0.409375
v 0.125 0.4375 0.3625
v 0.040625 0.4375 0.9875
v 0.040625 0.4375 0.940625
v 0.040625 0.421875 0.940625
v 0.040625 0.421875 0.975
v 0.040625 0.36875 0.975
v 0.040625 0.36875 0.9875
v 0.125 0.4375 0.9875
v 0.125 0.4375 0.940625
v 0.125 0.421875 0.940625
v 0.125 0.421875 0.975
v 0.125 0.36875 0.975
v 0.125 0.36875 0.9875
v 0.040625 0.4375 0.9875
v 0.040625 0.4375 0.940625
v 0.040625 0.421875 0.940625
v 0.040625 0.421875 0.975
v 0.040625 0.36875 0.975
v 0.040625 0.36875 0.9875
v 0.125 0.4375 0.9875
v 0.125 0.4375 0.940625
v 0.125 0.421875 0.940625
v 0.125 0.421875 0.975
v 0.125 0.36875 0.975
v 0.125 0.36875 0.9875
v 0.040625 0.81875 0.3625
v 0.040625 0.81875 0.375
v 0.040625 0.871875 0.375
v 0.040625 0.871875 0.409375
v 0.040625 0.8875 0.409375
v 0.040625 0.8875 0.3625
v 0.125 0.81875 0.3625
v 0.125 0.81875 0.375
v 0.125 0.871875 0.375
v 0.125 0.871875 0.409375
v 0.125 0.8875 0.409375
v 0.125 0.8875 0.3625
v 0.040625 0.81875 0.3625
v 0.040625 0.81875 0.375
v 0.040625 0.871875 0.375
v 0.040625 0.871875 0.409375
v 0.040625 0.8875 0.409375
v 0.040625 0.8875 0.3625
v 0.125 0.81875 0.3625
v 0.125 0.81875 0.375
v 0.125 0.871875 0.375
v 0.125 0.871875 0.409375
v 0.125 0.8875 0.409375
v 0.125 0.8875 0.3625
v 0.040625 0.8875 0.9875
v 0.040625 0.8875 0.940625
v 0.040625 0.871875 0.940625
v 0.040625 0.871875 0.975
v 0.040625 0.81875 0.975
v 0.040625 0.81875 0.9875
v 0.125 0.8875 0.9875
v 0.125 0.8875 0.940625
v 0.125 0.871875 0.940625
v 0.125 0.871875 0.975
v 0.125 0.81875 0.975
v 0.125 0.81875 0.9875
v 0.040625 0.8875 0.9875
v 0.040625 0.8875 0.940625
v 0.040625 0.871875 0.940625
v 0.040625 0.871875 0.975
v 0.040625 0.81875 0.975
v 0.040625 0.81875 0.9875
v 0.125 0.8875 0.9875
v 0.125 0.8875 0.940625
v 0.125 0.871875 0.940625
v 0.125 0.871875 0.975
v 0.125 0.81875 0.975
v 0.125 0.81875 0.9875
vt 0.934631 0.084717
vt 0.934631 0.087402
vt 0.916504 0.087402
vt 0.916504 0.084717
vt 0.676819 0.388489
vt 0.676819 0.399902
vt 0.658691 0.399902
vt 0.658691 0.388489
vt 0.934631 0.204041
vt 0.934631 0.211426
vt 0.916504 0.211426
vt 0.916504 0.204041
vt 0.934631 0.179749
vt 0.934631 0.183105
vt 0.916504 0.183105
vt 0.916504 0.179749
vt 0.424316 0.299316
vt 0.424316 0.289246
vt 0.442444 0.289246
vt 0.442444 0.299316
vt 0.494629 0.577637
vt 0.494629 0.562866
vt 0.512756 0.562866
vt 0.512756 0.577637
vt 0.893066 0.289246
vt 0.907837 0.289246
vt 0.907837 0.291931
vt 0.893066 0.289246
vt 0.907837 0.291931
vt 0.896423 0.291931
vt 0.893066 0.289246
vt 0.896423 0.291931
vt 0.896423 0.299316
vt 0.896423 0.299316
vt 0.893066 0.299316
vt 0.893066 0.289246
vt 0.911621 0.291931
vt 0.911621 0.289246
vt 0.926392 0.289246
vt 0.923035 0.291931
vt 0.911621 0.291931
vt 0.926392 0.289246
vt 0.923035 0.299316
vt 0.923035 0.291931
vt 0.926392 0.289246
vt 0.926392 0.289246
vt 0.926392 0.299316
vt 0.923035 0.299316
vt 0.445801 0.299316
vt 0.445801 0.289246
vt 0.463928 0.289246
vt 0.463928 0.299316
vt 0.937988 0.183105
vt 0.937988 0.179749
vt 0.956116 0.179749
vt 0.956116 0.183105
vt 0.956116 0.204041
vt 0.956116 0.211426
vt 0.937988 0.211426
vt 0.937988 0.204041
vt 0.680176 0.399902
vt 0.680176 0.388489
vt 0.698303 0.388489
vt 0.698303 0.399902
vt 0.956116 0.084717
vt 0.956116 0.087402
vt 0.937988 0.087402
vt 0.937988 0.084717
vt 0.534241 0.562866
vt 0.534241 0.577637
vt 0.516113 0.577637
vt 0.516113 0.562866
vt 0.930176 0.299316
vt 0.930176 0.289246
vt 0.933533 0.289246
vt 0.930176 0.299316
vt 0.933533 0.289246
vt 0.933533 0.296631
vt 0.944946 0.299316
vt 0.930176 0.299316
vt 0.933533 0.296631
vt 0.933533 0.296631
vt 0.944946 0.296631
vt 0.944946 0.299316
vt 0.960144 0.289246
vt 0.963501 0.289246
vt 0.963501 0.299316
vt 0.960144 0.296631
vt 0.960144 0.289246
vt 0.963501 0.299316
vt 0.960144 0.296631
vt 0.963501 0.299316
vt 0.94873 0.299316
vt 0.94873 0.299316
vt 0.94873 0.296631
vt 0.960144 0.296631
vt 0.9776 0.084717
vt 0.9776 0.087402
vt 0.959473 0.087402
vt 0.959473 0.084717
vt 0.719788 0.388489
vt 0.719788 0.399902
vt 0.70166 0.399902
vt 0.70166 0.388489
vt 0.9776 0.204041
vt 0.9776 0.211426
vt 0.959473 0.211426
vt 0.959473 0.204041
vt 0.9776 0.179749
vt 0.9776 0.183105
vt 0.959473 0.183105
vt 0.959473 0.179749
vt 0.467285 0.299316
vt 0.467285 0.289246
vt 0.485413 0.289246
vt 0.485413 0.299316
vt 0.537598 0.577637
vt 0.537598 0.562866
vt 0.555725 0.562866
vt 0.555725 0.577637
vt 0.967285 0.289246
vt 0.982056 0.289246
vt 0.982056 0.291931
vt 0.967285 0.289246
vt 0.982056 0.291931
vt 0.970642 0.291931
vt 0.967285 0.289246
vt 0.970642 0.291931
vt 0.970642 0.299316
vt 0.970642 0.299316
vt 0.967285 0.299316
vt 0.967285 0.289246
vt 0.002441 0.278259
vt 0.002441 0.275574
vt 0.017212 0.275574
vt 0.013855 0.278259
vt 0.002441 0.278259
vt 0.017212 0.275574
vt 0.013855 0.285645
vt 0.013855 0.278259
vt 0.017212 0.275574
vt 0.017212 0.275574
vt 0.017212 0.285645
vt 0.013855 0.285645
vt 0.48877 0.299316
vt 0.48877 0.289246
vt 0.506897 0.289246
vt 0.506897 0.299316
vt 0.002441 0.17627
vt 0.002441 0.172913
vt 0.020569 0.172913
vt 0.020569 0.17627
vt 0.020569 0.193298
vt 0.020569 0.200684
vt 0.002441 0.200684
vt 0.002441 0.193298
vt 0.723145 0.399902
vt 0.723145 0.388489
vt 0.741272 0.388489
vt 0.741272 0.399902
vt 0.020569 0.078857
vt 0.020569 0.081543
vt 0.002441 0.081543
vt 0.002441 0.078857
vt 0.577209 0.562866
vt 0.577209 0.577637
vt 0.559082 0.577637
vt 0.559082 0.562866
vt 0.020996 0.285645
vt 0.020996 0.275574
vt 0.024353 0.275574
vt 0.020996 0.285645
vt 0.024353 0.275574
vt 0.024353 0.282959
vt 0.035767 0.285645
vt 0.020996 0.285645
vt 0.024353 0.282959
vt 0.024353 0.282959
vt 0.035767 0.282959
vt 0.035767 0.285645
vt 0.050964 0.275574
vt 0.054321 0.275574
vt 0.054321 0.285645
vt 0.050964 0.282959
vt 0.050964 0.275574
vt 0.054321 0.285645
vt 0.050964 0.282959
vt 0.054321 0.285645
vt 0.039551 0.285645
vt 0.039551 0.285645
vt 0.039551 0.282959
vt 0.050964 0.282959
vn 0 -1 0
vn 0 0 1
vn 0 1 0
vn 0 0 -1
vn -1 0 0
vn 1 0 0
f 7/1/1 8/2/1 2/3/1 1/4/1
f 8/5/2 9/6/2 3/7/2 2/8/2
f 9/9/1 10/10/1 4/11/1 3/12/1
f 10/13/2 11/14/2 5/15/2 4/16/2
f 11/17/3 12/18/3 6/19/3 5/20/3
f 12/21/4 7/22/4 1/23/4 6/24/4
f 18/25/5 13/26/5 14/27/5
f 18/28/5 14/29/5 15/30/5
f 18/31/5 15/32/5 16/33/5
f 16/34/5 17/35/5 18/36/5
f 20/37/6 19/38/6 24/39/6
f 21/40/6 20/41/6 24/42/6
f 22/43/6 21/44/6 24/45/6
f 24/46/6 23/47/6 22/48/6
f 31/49/3 32/50/3 26/51/3 25/52/3
f 32/53/4 33/54/4 27/55/4 26/56/4
f 33/57/1 34/58/1 28/59/1 27/60/1
f 34/61/4 35/62/4 29/63/4 28/64/4
f 35/65/1 36/66/1 30/67/1 29/68/1
f 36/69/2 31/70/2 25/71/2 30/72/2
f 37/73/5 38/74/5 39/75/5
f 37/76/5 39/77/5 40/78/5
f 42/79/5 37/80/5 40/81/5
f 40/82/5 41/83/5 42/84/5
f 45/85/6 44/86/6 43/87/6
f 46/88/6 45/89/6 43/90/6
f 46/91/6 43/92/6 48/93/6
f 48/94/6 47/95/6 46/96/6
f 55/97/1 56/98/1 50/99/1 49/100/1
f 56/101/2 57/102/2 51/103/2 50/104/2
f 57/105/1 58/106/1 52/107/1 51/108/1
f 58/109/2 59/110/2 53/111/2 52/112/2
f 59/113/3 60/114/3 54/115/3 53/116/3
f 60/117/4 55/118/4 49/119/4 54/120/4
f 66/121/5 61/122/5 62/123/5
f 66/124/5 62/125/5 63/126/5
f 66/127/5 63/128/5 64/129/5
f 64/130/5 65/131/5 66/132/5
f 68/133/6 67/134/6 72/135/6
f 69/136/6 68/137/6 72/138/6
f 70/139/6 69/140/6 72/141/6
f 72/142/6 71/143/6 70/144/6
f 79/145/3 80/146/3 74/147/3 73/148/3
f 80/149/4 81/150/4 75/151/4 74/152/4
f 81/153/1 82/154/1 76/155/1 75/156/1
f 82/157/4 83/158/4 77/159/4 76/160/4
f 83/161/1 84/162/1 78/163/1 77/164/1
f 84/165/2 79/166/2 73/167/2 78/168/2
f 85/169/5 86/170/5 87/171/5
f 85/172/5 87/173/5 88/174/5
f 90/175/5 85/176/5 88/177/5
f 88/178/5 89/179/5 90/180/5
f 93/181/6 92/182/6 91/183/6
f 94/184/6 93/185/6 91/186/6
f 94/187/6 91/188/6 96/189/6
f 96/190/6 95/191/6 94/192/6
o joint_left_upper__joint_left_upper_deck
usemtl storage_rack
v 0.040625 0.409375 0.940625
v 0.125 0.409375 0.940625
v 0.125 0.409375 0.409375
v 0.040625 0.409375 0.409375
v 0.040625 0.421875 0.940625
v 0.125 0.421875 0.940625
v 0.125 0.421875 0.409375
v 0.040625 0.421875 0.409375
v 0.040625 0.409375 0.940625
v 0.125 0.409375 0.940625
v 0.125 0.409375 0.409375
v 0.040625 0.409375 0.409375
v 0.040625 0.421875 0.940625
v 0.125 0.421875 0.940625
v 0.125 0.421875 0.409375
v 0.040625 0.421875 0.409375
v 0.040625 0.859375 0.940625
v 0.125 0.859375 0.940625
v 0.125 0.859375 0.409375
v 0.040625 0.859375 0.409375
v 0.040625 0.871875 0.940625
v 0.125 0.871875 0.940625
v 0.125 0.871875 0.409375
v 0.040625 0.871875 0.409375
v 0.040625 0.859375 0.940625
v 0.125 0.859375 0.940625
v 0.125 0.859375 0.409375
v 0.040625 0.859375 0.409375
v 0.040625 0.871875 0.940625
v 0.125 0.871875 0.940625
v 0.125 0.871875 0.409375
v 0.040625 0.871875 0.409375
vt 0.557129 0.031982
vt 0.575256 0.031982
vt 0.575256 0.034668
vt 0.557129 0.034668
vt 0.116577 0.040527
vt 0.002441 0.040527
vt 0.002441 0.037842
vt 0.116577 0.037842
vt 0.578613 0.031982
vt 0.596741 0.031982
vt 0.596741 0.034668
vt 0.578613 0.034668
vt 0.119629 0.037842
vt 0.233765 0.037842
vt 0.233765 0.040527
vt 0.119629 0.040527
vt 0.585327 0.745056
vt 0.585327 0.763184
vt 0.471191 0.763184
vt 0.471191 0.763184
vt 0.471191 0.745056
vt 0.585327 0.745056
vt 0.588379 0.745056
vt 0.702515 0.745056
vt 0.702515 0.763184
vt 0.702515 0.763184
vt 0.588379 0.763184
vt 0.588379 0.745056
vt 0.600098 0.031982
vt 0.618225 0.031982
vt 0.618225 0.034668
vt 0.600098 0.034668
vt 0.350952 0.040527
vt 0.236816 0.040527
vt 0.236816 0.037842
vt 0.350952 0.037842
vt 0.621582 0.031982
vt 0.639709 0.031982
vt 0.639709 0.034668
vt 0.621582 0.034668
vt 0.354004 0.037842
vt 0.46814 0.037842
vt 0.46814 0.040527
vt 0.354004 0.040527
vt 0.819702 0.745056
vt 0.819702 0.763184
vt 0.705566 0.763184
vt 0.705566 0.763184
vt 0.705566 0.745056
vt 0.819702 0.745056
vt 0.822754 0.745056
vt 0.93689 0.745056
vt 0.93689 0.763184
vt 0.93689 0.763184
vt 0.822754 0.763184
vt 0.822754 0.745056
vn 0 0 1
vn 1 0 0
vn 0 0 -1
vn -1 0 0
vn 0 -1 0
vn 0 1 0
f 97/193/7 98/194/7 102/195/7 101/196/7
f 98/197/8 99/198/8 103/199/8 102/200/8
f 99/201/9 100/202/9 104/203/9 103/204/9
f 100/205/10 97/206/10 101/207/10 104/208/10
f 106/209/11 105/210/11 108/211/11
f 108/212/11 107/213/11 106/214/11
f 112/215/12 109/216/12 110/217/12
f 110/218/12 111/219/12 112/220/12
f 113/221/7 114/222/7 118/223/7 117/224/7
f 114/225/8 115/226/8 119/227/8 118/228/8
f 115/229/9 116/230/9 120/231/9 119/232/9
f 116/233/10 113/234/10 117/235/10 120/236/10
f 122/237/11 121/238/11 124/239/11
f 124/240/11 123/241/11 122/242/11
f 128/243/12 125/244/12 126/245/12
f 126/246/12 127/247/12 128/248/12
