# AFL Storage Rack V1 joint_right_lower, generated by tools/build-storage-rack-v1.mjs
mtllib joint_right_lower.mtl
o joint_right_lower__joint_right_lower_beams
usemtl storage_rack
v 0.875 0.01875 0.3625
v 0.875 0.01875 0.375
v 0.875 0.071875 0.375
v 0.875 0.071875 0.409375
v 0.875 0.0875 0.409375
v 0.875 0.0875 0.3625
v 0.959375 0.01875 0.3625
v 0.959375 0.01875 0.375
v 0.959375 0.071875 0.375
v 0.959375 0.071875 0.409375
v 0.959375 0.0875 0.409375
v 0.959375 0.0875 0.3625
v 0.875 0.01875 0.3625
v 0.875 0.01875 0.375
v 0.875 0.071875 0.375
v 0.875 0.071875 0.409375
v 0.875 0.0875 0.409375
v 0.875 0.0875 0.3625
v 0.959375 0.01875 0.3625
v 0.959375 0.01875 0.375
v 0.959375 0.071875 0.375
v 0.959375 0.071875 0.409375
v 0.959375 0.0875 0.409375
v 0.959375 0.0875 0.3625
v 0.875 0.0875 0.9875
v 0.875 0.0875 0.940625
v 0.875 0.071875 0.940625
v 0.875 0.071875 0.975
v 0.875 0.01875 0.975
v 0.875 0.01875 0.9875
v 0.959375 0.0875 0.9875
v 0.959375 0.0875 0.940625
v 0.959375 0.071875 0.940625
v 0.959375 0.071875 0.975
v 0.959375 0.01875 0.975
v 0.959375 0.01875 0.9875
v 0.875 0.0875 0.9875
v 0.875 0.0875 0.940625
v 0.875 0.071875 0.940625
v 0.875 0.071875 0.975
v 0.875 0.01875 0.975
v 0.875 0.01875 0.9875
v 0.959375 0.0875 0.9875
v 0.959375 0.0875 0.940625
v 0.959375 0.071875 0.940625
v 0.959375 0.071875 0.975
v 0.959375 0.01875 0.975
v 0.959375 0.01875 0.9875
v 0.945625 0.0375 0.90625
v 0.959375 0.0375 0.90625
v 0.959375 0.0375 0.44375
v 0.945625 0.0375 0.44375
v 0.945625 0.0875 0.90625
v 0.959375 0.0875 0.90625
v 0.959375 0.0875 0.44375
v 0.945625 0.0875 0.44375
v 0.945625 0.0375 0.90625
v 0.959375 0.0375 0.90625
v 0.959375 0.0375 0.44375
v 0.945625 0.0375 0.44375
v 0.945625 0.0875 0.90625
v 0.959375 0.0875 0.90625
v 0.959375 0.0875 0.44375
v 0.945625 0.0875 0.44375
v 0.875 0.46875 0.3625
v 0.875 0.46875 0.375
v 0.875 0.521875 0.375
v 0.875 0.521875 0.409375
v 0.875 0.5375 0.409375
v 0.875 0.5375 0.3625
v 0.959375 0.46875 0.3625
v 0.959375 0.46875 0.375
v 0.959375 0.521875 0.375
v 0.959375 0.521875 0.409375
v 0.959375 0.5375 0.409375
v 0.959375 0.5375 0.3625
v 0.875 0.46875 0.3625
v 0.875 0.46875 0.375
v 0.875 0.521875 0.375
v 0.875 0.521875 0.409375
v 0.875 0.5375 0.409375
v 0.875 0.5375 0.3625
v 0.959375 0.46875 0.3625
v 0.959375 0.46875 0.375
v 0.959375 0.521875 0.375
v 0.959375 0.521875 0.409375
v 0.959375 0.5375 0.409375
v 0.959375 0.5375 0.3625
v 0.875 0.5375 0.9875
v 0.875 0.5375 0.940625
v 0.875 0.521875 0.940625
v 0.875 0.521875 0.975
v 0.875 0.46875 0.975
v 0.875 0.46875 0.9875
v 0.959375 0.5375 0.9875
v 0.959375 0.5375 0.940625
v 0.959375 0.521875 0.940625
v 0.959375 0.521875 0.975
v 0.959375 0.46875 0.975
v 0.959375 0.46875 0.9875
v 0.875 0.5375 0.9875
v 0.875 0.5375 0.940625
v 0.875 0.521875 0.940625
v 0.875 0.521875 0.975
v 0.875 0.46875 0.975
v 0.875 0.46875 0.9875
v 0.959375 0.5375 0.9875
v 0.959375 0.5375 0.940625
v 0.959375 0.521875 0.940625
v 0.959375 0.521875 0.975
v 0.959375 0.46875 0.975
v 0.959375 0.46875 0.9875
v 0.945625 0.4875 0.90625
v 0.959375 0.4875 0.90625
v 0.959375 0.4875 0.44375
v 0.945625 0.4875 0.44375
v 0.945625 0.5375 0.90625
v 0.959375 0.5375 0.90625
v 0.959375 0.5375 0.44375
v 0.945625 0.5375 0.44375
v 0.945625 0.4875 0.90625
v 0.959375 0.4875 0.90625
v 0.959375 0.4875 0.44375
v 0.945625 0.4875 0.44375
v 0.945625 0.5375 0.90625
v 0.959375 0.5375 0.90625
v 0.959375 0.5375 0.44375
v 0.945625 0.5375 0.44375
v 0.875 0.91875 0.3625
v 0.875 0.91875 0.375
v 0.875 0.971875 0.375
v 0.875 0.971875 0.409375
v 0.875 0.9875 0.409375
v 0.875 0.9875 0.3625
v 0.959375 0.91875 0.3625
v 0.959375 0.91875 0.375
v 0.959375 0.971875 0.375
v 0.959375 0.971875 0.409375
v 0.959375 0.9875 0.409375
v 0.959375 0.9875 0.3625
v 0.875 0.91875 0.3625
v 0.875 0.91875 0.375
v 0.875 0.971875 0.375
v 0.875 0.971875 0.409375
v 0.875 0.9875 0.409375
v 0.875 0.9875 0.3625
v 0.959375 0.91875 0.3625
v 0.959375 0.91875 0.375
v 0.959375 0.971875 0.375
v 0.959375 0.971875 0.409375
v 0.959375 0.9875 0.409375
v 0.959375 0.9875 0.3625
v 0.875 0.9875 0.9875
v 0.875 0.9875 0.940625
v 0.875 0.971875 0.940625
v 0.875 0.971875 0.975
v 0.875 0.91875 0.975
v 0.875 0.91875 0.9875
v 0.959375 0.9875 0.9875
v 0.959375 0.9875 0.940625
v 0.959375 0.971875 0.940625
v 0.959375 0.971875 0.975
v 0.959375 0.91875 0.975
v 0.959375 0.91875 0.9875
v 0.875 0.9875 0.9875
v 0.875 0.9875 0.940625
v 0.875 0.971875 0.940625
v 0.875 0.971875 0.975
v 0.875 0.91875 0.975
v 0.875 0.91875 0.9875
v 0.959375 0.9875 0.9875
v 0.959375 0.9875 0.940625
v 0.959375 0.971875 0.940625
v 0.959375 0.971875 0.975
v 0.959375 0.91875 0.975
v 0.959375 0.91875 0.9875
v 0.945625 0.9375 0.90625
v 0.959375 0.9375 0.90625
v 0.959375 0.9375 0.44375
v 0.945625 0.9375 0.44375
v 0.945625 0.9875 0.90625
v 0.959375 0.9875 0.90625
v 0.959375 0.9875 0.44375
v 0.945625 0.9875 0.44375
v 0.945625 0.9375 0.90625
v 0.959375 0.9375 0.90625
v 0.959375 0.9375 0.44375
v 0.945625 0.9375 0.44375
v 0.945625 0.9875 0.90625
v 0.959375 0.9875 0.90625
v 0.959375 0.9875 0.44375
v 0.945625 0.9875 0.44375
vt 0.805725 0.084717
vt 0.805725 0.087402
vt 0.787598 0.087402
vt 0.787598 0.084717
vt 0.2276 0.37384
vt 0.2276 0.385254
vt 0.209473 0.385254
vt 0.209473 0.37384
vt 0.805725 0.204041
vt 0.805725 0.211426
vt 0.787598 0.211426
vt 0.787598 0.204041
vt 0.805725 0.179749
vt 0.805725 0.183105
vt 0.787598 0.183105
vt 0.787598 0.179749
vt 0.29541 0.299316
vt 0.29541 0.289246
vt 0.313538 0.289246
vt 0.313538 0.299316
vt 0.04541 0.559082
vt 0.04541 0.544312
vt 0.063538 0.544312
vt 0.063538 0.559082
vt 0.688965 0.275574
vt 0.703735 0.275574
vt 0.703735 0.278259
vt 0.688965 0.275574
vt 0.703735 0.278259
vt 0.692322 0.278259
vt 0.688965 0.275574
vt 0.692322 0.278259
vt 0.692322 0.285645
vt 0.692322 0.285645
vt 0.688965 0.285645
vt 0.688965 0.275574
vt 0.70752 0.278259
vt 0.70752 0.275574
vt 0.72229 0.275574
vt 0.718933 0.278259
vt 0.70752 0.278259
vt 0.72229 0.275574
vt 0.718933 0.285645
vt 0.718933 0.278259
vt 0.72229 0.275574
vt 0.72229 0.275574
vt 0.72229 0.285645
vt 0.718933 0.285645
vt 0.316895 0.299316
vt 0.316895 0.289246
vt 0.335022 0.289246
vt 0.335022 0.299316
vt 0.809082 0.183105
vt 0.809082 0.179749
vt 0.827209 0.179749
vt 0.827209 0.183105
vt 0.827209 0.204041
vt 0.827209 0.211426
vt 0.809082 0.211426
vt 0.809082 0.204041
vt 0.230957 0.385254
vt 0.230957 0.37384
vt 0.249084 0.37384
vt 0.249084 0.385254
vt 0.827209 0.084717
vt 0.827209 0.087402
vt 0.809082 0.087402
vt 0.809082 0.084717
vt 0.085022 0.544312
vt 0.085022 0.559082
vt 0.066895 0.559082
vt 0.066895 0.544312
vt 0.726074 0.285645
vt 0.726074 0.275574
vt 0.729431 0.275574
vt 0.726074 0.285645
vt 0.729431 0.275574
vt 0.729431 0.282959
vt 0.740845 0.285645
vt 0.726074 0.285645
vt 0.729431 0.282959
vt 0.729431 0.282959
vt 0.740845 0.282959
vt 0.740845 0.285645
vt 0.756042 0.275574
vt 0.759399 0.275574
vt 0.759399 0.285645
vt 0.756042 0.282959
vt 0.756042 0.275574
vt 0.759399 0.285645
vt 0.756042 0.282959
vt 0.759399 0.285645
vt 0.744629 0.285645
vt 0.744629 0.285645
vt 0.744629 0.282959
vt 0.756042 0.282959
vt 0.903809 0.101074
vt 0.903809 0.09812
vt 0.914551 0.09812
vt 0.914551 0.101074
vt 0.614502 0.341309
vt 0.515137 0.341309
vt 0.515137 0.330566
vt 0.614502 0.330566
vt 0.91748 0.101074
vt 0.91748 0.09812
vt 0.928223 0.09812
vt 0.928223 0.101074
vt 0.617676 0.330566
vt 0.717041 0.330566
vt 0.717041 0.341309
vt 0.617676 0.341309
vt 0.614502 0.111792
vt 0.614502 0.114746
vt 0.515137 0.114746
vt 0.515137 0.114746
vt 0.515137 0.111792
vt 0.614502 0.111792
vt 0.617676 0.111792
vt 0.717041 0.111792
vt 0.717041 0.114746
vt 0.717041 0.114746
vt 0.617676 0.114746
vt 0.617676 0.111792
vt 0.848694 0.084717
vt 0.848694 0.087402
vt 0.830566 0.087402
vt 0.830566 0.084717
vt 0.020569 0.359192
vt 0.020569 0.370605
vt 0.002441 0.370605
vt 0.002441 0.359192
vt 0.848694 0.204041
vt 0.848694 0.211426
vt 0.830566 0.211426
vt 0.830566 0.204041
vt 0.848694 0.179749
vt 0.848694 0.183105
vt 0.830566 0.183105
vt 0.830566 0.179749
vt 0.338379 0.299316
vt 0.338379 0.289246
vt 0.356506 0.289246
vt 0.356506 0.299316
vt 0.830566 0.559082
vt 0.830566 0.544312
vt 0.848694 0.544312
vt 0.848694 0.559082
vt 0.35498 0.261902
vt 0.369751 0.261902
vt 0.369751 0.264587
vt 0.35498 0.261902
vt 0.369751 0.264587
vt 0.358337 0.264587
vt 0.35498 0.261902
vt 0.358337 0.264587
vt 0.358337 0.271973
vt 0.358337 0.271973
vt 0.35498 0.271973
vt 0.35498 0.261902
vt 0.373535 0.278259
vt 0.373535 0.275574
vt 0.388306 0.275574
vt 0.384949 0.278259
vt 0.373535 0.278259
vt 0.388306 0.275574
vt 0.384949 0.285645
vt 0.384949 0.278259
vt 0.388306 0.275574
vt 0.388306 0.275574
vt 0.388306 0.285645
vt 0.384949 0.285645
vt 0.359863 0.299316
vt 0.359863 0.289246
vt 0.377991 0.289246
vt 0.377991 0.299316
vt 0.852051 0.183105
vt 0.852051 0.179749
vt 0.870178 0.179749
vt 0.870178 0.183105
vt 0.870178 0.204041
vt 0.870178 0.211426
vt 0.852051 0.211426
vt 0.852051 0.204041
vt 0.023926 0.370605
vt 0.023926 0.359192
vt 0.042053 0.359192
vt 0.042053 0.370605
vt 0.870178 0.084717
vt 0.870178 0.087402
vt 0.852051 0.087402
vt 0.852051 0.084717
vt 0.870178 0.544312
vt 0.870178 0.559082
vt 0.852051 0.559082
vt 0.852051 0.544312
vt 0.373535 0.271973
vt 0.373535 0.261902
vt 0.376892 0.261902
vt 0.373535 0.271973
vt 0.376892 0.261902
vt 0.376892 0.269287
vt 0.388306 0.271973
vt 0.373535 0.271973
vt 0.376892 0.269287
vt 0.376892 0.269287
vt 0.388306 0.269287
vt 0.388306 0.271973
vt 0.403503 0.261902
vt 0.40686 0.261902
vt 0.40686 0.271973
vt 0.403503 0.269287
vt 0.403503 0.261902
vt 0.40686 0.271973
vt 0.403503 0.269287
vt 0.40686 0.271973
vt 0.39209 0.271973
vt 0.39209 0.271973
vt 0.39209 0.269287
vt 0.403503 0.269287
vt 0.98584 0.101074
vt 0.98584 0.09812
vt 0.996582 0.09812
vt 0.996582 0.101074
vt 0.306885 0.32666
vt 0.20752 0.32666
vt 0.20752 0.315918
vt 0.306885 0.315918
vt 0.002441 0.094238
vt 0.002441 0.091284
vt 0.013184 0.091284
vt 0.013184 0.094238
vt 0.310059 0.315918
vt 0.409424 0.315918
vt 0.409424 0.32666
vt 0.310059 0.32666
vt 0.81958 0.111792
vt 0.81958 0.114746
vt 0.720215 0.114746
vt 0.720215 0.114746
vt 0.720215 0.111792
vt 0.81958 0.111792
vt 0.822754 0.111792
vt 0.922119 0.111792
vt 0.922119 0.114746
vt 0.922119 0.114746
vt 0.822754 0.114746
vt 0.822754 0.111792
vt 0.891663 0.084717
vt 0.891663 0.087402
vt 0.873535 0.087402
vt 0.873535 0.084717
vt 0.063538 0.359192
vt 0.063538 0.370605
vt 0.04541 0.370605
vt 0.04541 0.359192
vt 0.891663 0.204041
vt 0.891663 0.211426
vt 0.873535 0.211426
vt 0.873535 0.204041
vt 0.891663 0.179749
vt 0.891663 0.183105
vt 0.873535 0.183105
vt 0.873535 0.179749
vt 0.381348 0.299316
vt 0.381348 0.289246
vt 0.399475 0.289246
vt 0.399475 0.299316
vt 0.873535 0.559082
vt 0.873535 0.544312
vt 0.891663 0.544312
vt 0.891663 0.559082
vt 0.410645 0.261902
vt 0.425415 0.261902
vt 0.425415 0.264587
vt 0.410645 0.261902
vt 0.425415 0.264587
vt 0.414001 0.264587
vt 0.410645 0.261902
vt 0.414001 0.264587
vt 0.414001 0.271973
vt 0.414001 0.271973
vt 0.410645 0.271973
vt 0.410645 0.261902
vt 0.429199 0.264587
vt 0.429199 0.261902
vt 0.44397 0.261902
vt 0.440613 0.264587
vt 0.429199 0.264587
vt 0.44397 0.261902
vt 0.440613 0.271973
vt 0.440613 0.264587
vt 0.44397 0.261902
vt 0.44397 0.261902
vt 0.44397 0.271973
vt 0.440613 0.271973
vt 0.402832 0.299316
vt 0.402832 0.289246
vt 0.420959 0.289246
vt 0.420959 0.299316
vt 0.89502 0.183105
vt 0.89502 0.179749
vt 0.913147 0.179749
vt 0.913147 0.183105
vt 0.913147 0.204041
vt 0.913147 0.211426
vt 0.89502 0.211426
vt 0.89502 0.204041
vt 0.066895 0.370605
vt 0.066895 0.359192
vt 0.085022 0.359192
vt 0.085022 0.370605
vt 0.913147 0.084717
vt 0.913147 0.087402
vt 0.89502 0.087402
vt 0.89502 0.084717
vt 0.913147 0.544312
vt 0.913147 0.559082
vt 0.89502 0.559082
vt 0.89502 0.544312
vt 0.447754 0.271973
vt 0.447754 0.261902
vt 0.451111 0.261902
vt 0.447754 0.271973
vt 0.451111 0.261902
vt 0.451111 0.269287
vt 0.462524 0.271973
vt 0.447754 0.271973
vt 0.451111 0.269287
vt 0.451111 0.269287
vt 0.462524 0.269287
vt 0.462524 0.271973
vt 0.477722 0.261902
vt 0.481079 0.261902
vt 0.481079 0.271973
vt 0.477722 0.269287
vt 0.477722 0.261902
vt 0.481079 0.271973
vt 0.477722 0.269287
vt 0.481079 0.271973
vt 0.466309 0.271973
vt 0.466309 0.271973
vt 0.466309 0.269287
vt 0.477722 0.269287
vt 0.644043 0.101074
vt 0.644043 0.09812
vt 0.654785 0.09812
vt 0.654785 0.101074
vt 0.5979 0.370605
vt 0.498535 0.370605
vt 0.498535 0.359863
vt 0.5979 0.359863
vt 0.658691 0.101074
vt 0.658691 0.09812
vt 0.669434 0.09812
vt 0.669434 0.101074
vt 0.601074 0.359863
vt 0.700439 0.359863
vt 0.700439 0.370605
vt 0.601074 0.370605
vt 0.101807 0.104956
vt 0.101807 0.10791
vt 0.002441 0.10791
vt 0.002441 0.10791
vt 0.002441 0.104956
vt 0.101807 0.104956
vt 0.10498 0.104956
vt 0.204346 0.104956
vt 0.204346 0.10791
vt 0.204346 0.10791
vt 0.10498 0.10791
vt 0.10498 0.104956
vn 0 -1 0
vn 0 0 1
vn 0 1 0
vn 0 0 -1
vn -1 0 0
vn 1 0 0
f 7/1/1 8/2/1 2/3/1 1/4/1
f 8/5/2 9/6/2 3/7/2 2/8/2
f 9/9/1 10/10/1 4/11/1 3/12/1
f 10/13/2 11/14/2 5/15/2 4/16/2
f 11/17/3 12/18/3 6/19/3 5/20/3
f 12/21/4 7/22/4 1/23/4 6/24/4
f 18/25/5 13/26/5 14/27/5
f 18/28/5 14/29/5 15/30/5
f 18/31/5 15/32/5 16/33/5
f 16/34/5 17/35/5 18/36/5
f 20/37/6 19/38/6 24/39/6
f 21/40/6 20/41/6 24/42/6
f 22/43/6 21/44/6 24/45/6
f 24/46/6 23/47/6 22/48/6
f 31/49/3 32/50/3 26/51/3 25/52/3
f 32/53/4 33/54/4 27/55/4 26/56/4
f 33/57/1 34/58/1 28/59/1 27/60/1
f 34/61/4 35/62/4 29/63/4 28/64/4
f 35/65/1 36/66/1 30/67/1 29/68/1
f 36/69/2 31/70/2 25/71/2 30/72/2
f 37/73/5 38/74/5 39/75/5
f 37/76/5 39/77/5 40/78/5
f 42/79/5 37/80/5 40/81/5
f 40/82/5 41/83/5 42/84/5
f 45/85/6 44/86/6 43/87/6
f 46/88/6 45/89/6 43/90/6
f 46/91/6 43/92/6 48/93/6
f 48/94/6 47/95/6 46/96/6
f 49/97/2 50/98/2 54/99/2 53/100/2
f 50/101/6 51/102/6 55/103/6 54/104/6
f 51/105/4 52/106/4 56/107/4 55/108/4
f 52/109/5 49/110/5 53/111/5 56/112/5
f 58/113/1 57/114/1 60/115/1
f 60/116/1 59/117/1 58/118/1
f 64/119/3 61/120/3 62/121/3
f 62/122/3 63/123/3 64/124/3
f 71/125/1 72/126/1 66/127/1 65/128/1
f 72/129/2 73/130/2 67/131/2 66/132/2
f 73/133/1 74/134/1 68/135/1 67/136/1
f 74/137/2 75/138/2 69/139/2 68/140/2
f 75/141/3 76/142/3 70/143/3 69/144/3
f 76/145/4 71/146/4 65/147/4 70/148/4
f 82/149/5 77/150/5 78/151/5
f 82/152/5 78/153/5 79/154/5
f 82/155/5 79/156/5 80/157/5
f 80/158/5 81/159/5 82/160/5
f 84/161/6 83/162/6 88/163/6
f 85/164/6 84/165/6 88/166/6
f 86/167/6 85/168/6 88/169/6
f 88/170/6 87/171/6 86/172/6
f 95/173/3 96/174/3 90/175/3 89/176/3
f 96/177/4 97/178/4 91/179/4 90/180/4
f 97/181/1 98/182/1 92/183/1 91/184/1
f 98/185/4 99/186/4 93/187/4 92/188/4
f 99/189/1 100/190/1 94/191/1 93/192/1
f 100/193/2 95/194/2 89/195/2 94/196/2
f 101/197/5 102/198/5 103/199/5
f 101/200/5 103/201/5 104/202/5
f 106/203/5 101/204/5 104/205/5
f 104/206/5 105/207/5 106/208/5
f 109/209/6 108/210/6 107/211/6
f 110/212/6 109/213/6 107/214/6
f 110/215/6 107/216/6 112/217/6
f 112/218/6 111/219/6 110/220/6
f 113/221/2 114/222/2 118/223/2 117/224/2
f 114/225/6 115/226/6 119/227/6 118/228/6
f 115/229/4 116/230/4 120/231/4 119/232/4
f 116/233/5 113/234/5 117/235/5 120/236/5
f 122/237/1 121/238/1 124/239/1
f 124/240/1 123/241/1 122/242/1
f 128/243/3 125/244/3 126/245/3
f 126/246/3 127/247/3 128/248/3
f 135/249/1 136/250/1 130/251/1 129/252/1
f 136/253/2 137/254/2 131/255/2 130/256/2
f 137/257/1 138/258/1 132/259/1 131/260/1
f 138/261/2 139/262/2 133/263/2 132/264/2
f 139/265/3 140/266/3 134/267/3 133/268/3
f 140/269/4 135/270/4 129/271/4 134/272/4
f 146/273/5 141/274/5 142/275/5
f 146/276/5 142/277/5 143/278/5
f 146/279/5 143/280/5 144/281/5
f 144/282/5 145/283/5 146/284/5
f 148/285/6 147/286/6 152/287/6
f 149/288/6 148/289/6 152/290/6
f 150/291/6 149/292/6 152/293/6
f 152/294/6 151/295/6 150/296/6
f 159/297/3 160/298/3 154/299/3 153/300/3
f 160/301/4 161/302/4 155/303/4 154/304/4
f 161/305/1 162/306/1 156/307/1 155/308/1
f 162/309/4 163/310/4 157/311/4 156/312/4
f 163/313/1 164/314/1 158/315/1 157/316/1
f 164/317/2 159/318/2 153/319/2 158/320/2
f 165/321/5 166/322/5 167/323/5
f 165/324/5 167/325/5 168/326/5
f 170/327/5 165/328/5 168/329/5
f 168/330/5 169/331/5 170/332/5
f 173/333/6 172/334/6 171/335/6
f 174/336/6 173/337/6 171/338/6
f 174/339/6 171/340/6 176/341/6
f 176/342/6 175/343/6 174/344/6
f 177/345/2 178/346/2 182/347/2 181/348/2
f 178/349/6 179/350/6 183/351/6 182/352/6
f 179/353/4 180/354/4 184/355/4 183/356/4
f 180/357/5 177/358/5 181/359/5 184/360/5
f 186/361/1 185/362/1 188/363/1
f 188/364/1 187/365/1 186/366/1
f 192/367/3 189/368/3 190/369/3
f 190/370/3 191/371/3 192/372/3
o joint_right_lower__joint_right_lower_deck
usemtl storage_rack
v 0.875 0.059375 0.940625
v 0.9525 0.059375 0.940625
v 0.9525 0.059375 0.409375
v 0.875 0.059375 0.409375
v 0.875 0.071875 0.940625
v 0.9525 0.071875 0.940625
v 0.9525 0.071875 0.409375
v 0.875 0.071875 0.409375
v 0.875 0.059375 0.940625
v 0.9525 0.059375 0.940625
v 0.9525 0.059375 0.409375
v 0.875 0.059375 0.409375
v 0.875 0.071875 0.940625
v 0.9525 0.071875 0.940625
v 0.9525 0.071875 0.409375
v 0.875 0.071875 0.409375
v 0.875 0.509375 0.940625
v 0.9525 0.509375 0.940625
v 0.9525 0.509375 0.409375
v 0.875 0.509375 0.409375
v 0.875 0.521875 0.940625
v 0.9525 0.521875 0.940625
v 0.9525 0.521875 0.409375
v 0.875 0.521875 0.409375
v 0.875 0.509375 0.940625
v 0.9525 0.509375 0.940625
v 0.9525 0.509375 0.409375
v 0.875 0.509375 0.409375
v 0.875 0.521875 0.940625
v 0.9525 0.521875 0.940625
v 0.9525 0.521875 0.409375
v 0.875 0.521875 0.409375
v 0.875 0.959375 0.940625
v 0.9525 0.959375 0.940625
v 0.9525 0.959375 0.409375
v 0.875 0.959375 0.409375
v 0.875 0.971875 0.940625
v 0.9525 0.971875 0.940625
v 0.9525 0.971875 0.409375
v 0.875 0.971875 0.409375
v 0.875 0.959375 0.940625
v 0.9525 0.959375 0.940625
v 0.9525 0.959375 0.409375
v 0.875 0.959375 0.409375
v 0.875 0.971875 0.940625
v 0.9525 0.971875 0.940625
v 0.9525 0.971875 0.409375
v 0.875 0.971875 0.409375
vt 0.002441 0.067139
vt 0.019092 0.067139
vt 0.019092 0.069824
vt 0.002441 0.069824
vt 0.819702 0.075684
vt 0.705566 0.075684
vt 0.705566 0.072998
vt 0.819702 0.072998
vt 0.022949 0.067139
vt 0.0396 0.067139
vt 0.0396 0.069824
vt 0.022949 0.069824
vt 0.822754 0.072998
vt 0.93689 0.072998
vt 0.93689 0.075684
vt 0.822754 0.075684
vt 0.64978 0.602002
vt 0.64978 0.618652
vt 0.535645 0.618652
vt 0.535645 0.618652
vt 0.535645 0.602002
vt 0.64978 0.602002
vt 0.652832 0.602002
vt 0.766968 0.602002
vt 0.766968 0.618652
vt 0.766968 0.618652
vt 0.652832 0.618652
vt 0.652832 0.602002
vt 0.643066 0.031982
vt 0.659717 0.031982
vt 0.659717 0.034668
vt 0.643066 0.034668
vt 0.585327 0.052246
vt 0.471191 0.052246
vt 0.471191 0.049561
vt 0.585327 0.049561
vt 0.663574 0.031982
vt 0.680225 0.031982
vt 0.680225 0.034668
vt 0.663574 0.034668
vt 0.588379 0.049561
vt 0.702515 0.049561
vt 0.702515 0.052246
vt 0.588379 0.052246
vt 0.884155 0.602002
vt 0.884155 0.618652
vt 0.77002 0.618652
vt 0.77002 0.618652
vt 0.77002 0.602002
vt 0.884155 0.602002
vt 0.002441 0.581494
vt 0.116577 0.581494
vt 0.116577 0.598145
vt 0.116577 0.598145
vt 0.002441 0.598145
vt 0.002441 0.581494
vt 0.684082 0.031982
vt 0.700732 0.031982
vt 0.700732 0.034668
vt 0.684082 0.034668
vt 0.819702 0.052246
vt 0.705566 0.052246
vt 0.705566 0.049561
vt 0.819702 0.049561
vt 0.70459 0.031982
vt 0.72124 0.031982
vt 0.72124 0.034668
vt 0.70459 0.034668
vt 0.822754 0.049561
vt 0.93689 0.049561
vt 0.93689 0.052246
vt 0.822754 0.052246
vt 0.233765 0.581494
vt 0.233765 0.598145
vt 0.119629 0.598145
vt 0.119629 0.598145
vt 0.119629 0.581494
vt 0.233765 0.581494
vt 0.236816 0.581494
vt 0.350952 0.581494
vt 0.350952 0.598145
vt 0.350952 0.598145
vt 0.236816 0.598145
vt 0.236816 0.581494
vn 0 0 1
vn 1 0 0
vn 0 0 -1
vn -1 0 0
vn 0 -1 0
vn 0 1 0
f 193/373/7 194/374/7 198/375/7 197/376/7
f 194/377/8 195/378/8 199/379/8 198/380/8
f 195/381/9 196/382/9 200/383/9 199/384/9
f 196/385/10 193/386/10 197/387/10 200/388/10
f 202/389/11 201/390/11 204/391/11
f 204/392/11 203/393/11 202/394/11
f 208/395/12 205/396/12 206/397/12
f 206/398/12 207/399/12 208/400/12
f 209/401/7 210/402/7 214/403/7 213/404/7
f 210/405/8 211/406/8 215/407/8 214/408/8
f 211/409/9 212/410/9 216/411/9 215/412/9
f 212/413/10 209/414/10 213/415/10 216/416/10
f 218/417/11 217/418/11 220/419/11
f 220/420/11 219/421/11 218/422/11
f 224/423/12 221/424/12 222/425/12
f 222/426/12 223/427/12 224/428/12
f 225/429/7 226/430/7 230/431/7 229/432/7
f 226/433/8 227/434/8 231/435/8 230/436/8
f 227/437/9 228/438/9 232/439/9 231/440/9
f 228/441/10 225/442/10 229/443/10 232/444/10
f 234/445/11 233/446/11 236/447/11
f 236/448/11 235/449/11 234/450/11
f 240/451/12 237/452/12 238/453/12
f 238/454/12 239/455/12 240/456/12
o joint_right_lower__joint_right_lower_posts
usemtl storage_rack
v 1.040625 0.021875 0.3625
v 0.959375 0.021875 0.3625
v 0.959375 0.021875 0.37625
v 1.026875 0.021875 0.37625
v 1.026875 0.021875 0.44375
v 1.040625 0.021875 0.44375
v 1.040625 1 0.3625
v 0.959375 1 0.3625
v 0.959375 1 0.37625
v 1.026875 1 0.37625
v 1.026875 1 0.44375
v 1.040625 1 0.44375
v 1.040625 0.021875 0.3625
v 0.959375 0.021875 0.3625
v 0.959375 0.021875 0.37625
v 1.026875 0.021875 0.37625
v 1.026875 0.021875 0.44375
v 1.040625 0.021875 0.44375
v 1.040625 1 0.3625
v 0.959375 1 0.3625
v 0.959375 1 0.37625
v 1.026875 1 0.37625
v 1.026875 1 0.44375
v 1.040625 1 0.44375
v 0.959375 0.021875 0.37625
v 1.026875 0.021875 0.37625
v 1.026875 0.021875 0.3625
v 0.959375 0.021875 0.3625
v 0.959375 1 0.37625
v 1.026875 1 0.37625
v 1.026875 1 0.3625
v 0.959375 1 0.3625
v 0.959375 0.021875 0.37625
v 1.026875 0.021875 0.37625
v 1.026875 0.021875 0.3625
v 0.959375 0.021875 0.3625
v 0.959375 1 0.37625
v 1.026875 1 0.37625
v 1.026875 1 0.3625
v 0.959375 1 0.3625
v 1.040625 0.021875 0.90625
v 1.026875 0.021875 0.90625
v 1.026875 0.021875 0.97375
v 0.959375 0.021875 0.97375
v 0.959375 0.021875 0.9875
v 1.040625 0.021875 0.9875
v 1.040625 1 0.90625
v 1.026875 1 0.90625
v 1.026875 1 0.97375
v 0.959375 1 0.97375
v 0.959375 1 0.9875
v 1.040625 1 0.9875
v 1.040625 0.021875 0.90625
v 1.026875 0.021875 0.90625
v 1.026875 0.021875 0.97375
v 0.959375 0.021875 0.97375
v 0.959375 0.021875 0.9875
v 1.040625 0.021875 0.9875
v 1.040625 1 0.90625
v 1.026875 1 0.90625
v 1.026875 1 0.97375
v 0.959375 1 0.97375
v 0.959375 1 0.9875
v 1.040625 1 0.9875
v 0.959375 0.021875 0.9875
v 1.026875 0.021875 0.9875
v 1.026875 0.021875 0.97375
v 0.959375 0.021875 0.97375
v 0.959375 1 0.9875
v 1.026875 1 0.9875
v 1.026875 1 0.97375
v 0.959375 1 0.97375
v 0.959375 0.021875 0.9875
v 1.026875 0.021875 0.9875
v 1.026875 0.021875 0.97375
v 0.959375 0.021875 0.97375
v 0.959375 1 0.9875
v 1.026875 1 0.9875
v 1.026875 1 0.97375
v 0.959375 1 0.97375
vt 0.002441 0.680176
vt 0.002441 0.66272
vt 0.212585 0.66272
vt 0.212585 0.680176
vt 0.847351 0.166479
vt 0.847351 0.169434
vt 0.637207 0.169434
vt 0.637207 0.166479
vt 0.002441 0.41748
vt 0.002441 0.402979
vt 0.212585 0.402979
vt 0.212585 0.41748
vt 0.212585 0.490869
vt 0.212585 0.505371
vt 0.002441 0.505371
vt 0.002441 0.490869
vt 0.36377 0.17627
vt 0.36377 0.173315
vt 0.573914 0.173315
vt 0.573914 0.17627
vt 0.430176 0.741699
vt 0.430176 0.724243
vt 0.64032 0.724243
vt 0.64032 0.741699
vt 0.087427 0.618652
vt 0.084473 0.618652
vt 0.084473 0.601196
vt 0.087427 0.60415
vt 0.087427 0.618652
vt 0.084473 0.601196
vt 0.087427 0.60415
vt 0.084473 0.601196
vt 0.101929 0.601196
vt 0.101929 0.601196
vt 0.101929 0.60415
vt 0.087427 0.60415
vt 0.10498 0.618652
vt 0.10498 0.601196
vt 0.107935 0.601196
vt 0.10498 0.618652
vt 0.107935 0.601196
vt 0.107935 0.615698
vt 0.122437 0.618652
vt 0.10498 0.618652
vt 0.107935 0.615698
vt 0.107935 0.615698
vt 0.122437 0.615698
vt 0.122437 0.618652
vt 0.216309 0.505371
vt 0.216309 0.490869
vt 0.426453 0.490869
vt 0.426453 0.505371
vt 0.002441 0.162598
vt 0.002441 0.159644
vt 0.212585 0.159644
vt 0.212585 0.162598
vt 0.430176 0.505371
vt 0.430176 0.490869
vt 0.64032 0.490869
vt 0.64032 0.505371
vt 0.426453 0.159644
vt 0.426453 0.162598
vt 0.216309 0.162598
vt 0.216309 0.159644
vt 0.638037 0.155762
vt 0.623535 0.155762
vt 0.623535 0.152808
vt 0.623535 0.152808
vt 0.638037 0.152808
vt 0.638037 0.155762
vt 0.655615 0.152808
vt 0.655615 0.155762
vt 0.641113 0.155762
vt 0.641113 0.155762
vt 0.641113 0.152808
vt 0.655615 0.152808
vt 0.577637 0.17627
vt 0.577637 0.173315
vt 0.787781 0.173315
vt 0.787781 0.17627
vt 0.854187 0.490869
vt 0.854187 0.505371
vt 0.644043 0.505371
vt 0.644043 0.490869
vt 0.216309 0.41748
vt 0.216309 0.402979
vt 0.426453 0.402979
vt 0.426453 0.41748
vt 0.426453 0.139136
vt 0.426453 0.14209
vt 0.216309 0.14209
vt 0.216309 0.139136
vt 0.216309 0.680176
vt 0.216309 0.66272
vt 0.426453 0.66272
vt 0.426453 0.680176
vt 0.430176 0.680176
vt 0.430176 0.66272
vt 0.64032 0.66272
vt 0.64032 0.680176
vt 0.371582 0.60415
vt 0.371582 0.601196
vt 0.389038 0.601196
vt 0.386084 0.60415
vt 0.371582 0.60415
vt 0.389038 0.601196
vt 0.386084 0.618652
vt 0.386084 0.60415
vt 0.389038 0.601196
vt 0.389038 0.601196
vt 0.389038 0.618652
vt 0.386084 0.618652
vt 0.409546 0.618652
vt 0.39209 0.618652
vt 0.39209 0.615698
vt 0.409546 0.618652
vt 0.39209 0.615698
vt 0.406592 0.615698
vt 0.409546 0.618652
vt 0.406592 0.615698
vt 0.406592 0.601196
vt 0.406592 0.601196
vt 0.409546 0.601196
vt 0.409546 0.618652
vt 0.002441 0.487793
vt 0.002441 0.473291
vt 0.212585 0.473291
vt 0.212585 0.487793
vt 0.430176 0.14209
vt 0.430176 0.139136
vt 0.64032 0.139136
vt 0.64032 0.14209
vt 0.216309 0.487793
vt 0.216309 0.473291
vt 0.426453 0.473291
vt 0.426453 0.487793
vt 0.854187 0.139136
vt 0.854187 0.14209
vt 0.644043 0.14209
vt 0.644043 0.139136
vt 0.529639 0.101074
vt 0.515137 0.101074
vt 0.515137 0.09812
vt 0.515137 0.09812
vt 0.529639 0.09812
vt 0.529639 0.101074
vt 0.547217 0.09812
vt 0.547217 0.101074
vt 0.532715 0.101074
vt 0.532715 0.101074
vt 0.532715 0.09812
vt 0.547217 0.09812
vn 0 0 -1
vn -1 0 0
vn 0 0 1
vn 1 0 0
vn 0 -1 0
vn 0 1 0
f 241/457/13 242/458/13 248/459/13 247/460/13
f 242/461/14 243/462/14 249/463/14 248/464/14
f 243/465/15 244/466/15 250/467/15 249/468/15
f 244/469/14 245/470/14 251/471/14 250/472/14
f 245/473/15 246/474/15 252/475/15 251/476/15
f 246/477/16 241/478/16 247/479/16 252/480/16
f 255/481/17 254/482/17 253/483/17
f 256/484/17 255/485/17 253/486/17
f 256/487/17 253/488/17 258/489/17
f 258/490/17 257/491/17 256/492/17
f 259/493/18 260/494/18 261/495/18
f 259/496/18 261/497/18 262/498/18
f 264/499/18 259/500/18 262/501/18
f 262/502/18 263/503/18 264/504/18
f 265/505/15 266/506/15 270/507/15 269/508/15
f 266/509/16 267/510/16 271/511/16 270/512/16
f 267/513/13 268/514/13 272/515/13 271/516/13
f 268/517/14 265/518/14 269/519/14 272/520/14
f 274/521/17 273/522/17 276/523/17
f 276/524/17 275/525/17 274/526/17
f 280/527/18 277/528/18 278/529/18
f 278/530/18 279/531/18 280/532/18
f 281/533/13 282/534/13 288/535/13 287/536/13
f 282/537/14 283/538/14 289/539/14 288/540/14
f 283/541/13 284/542/13 290/543/13 289/544/13
f 284/545/14 285/546/14 291/547/14 290/548/14
f 285/549/15 286/550/15 292/551/15 291/552/15
f 286/553/16 281/554/16 287/555/16 292/556/16
f 294/557/17 293/558/17 298/559/17
f 295/560/17 294/561/17 298/562/17
f 296/563/17 295/564/17 298/565/17
f 298/566/17 297/567/17 296/568/17
f 304/569/18 299/570/18 300/571/18
f 304/572/18 300/573/18 301/574/18
f 304/575/18 301/576/18 302/577/18
f 302/578/18 303/579/18 304/580/18
f 305/581/15 306/582/15 310/583/15 309/584/15
f 306/585/16 307/586/16 311/587/16 310/588/16
f 307/589/13 308/590/13 312/591/13 311/592/13
f 308/593/14 305/594/14 309/595/14 312/596/14
f 314/597/17 313/598/17 316/599/17
f 316/600/17 315/601/17 314/602/17
f 320/603/18 317/604/18 318/605/18
f 318/606/18 319/607/18 320/608/18
o joint_right_lower__joint_right_lower_foot-1
usemtl storage_rack
v 0.959375 0 0.44375
v 1.040625 0 0.44375
v 1.040625 0 0.3625
v 0.959375 0 0.3625
v 0.959375 0.021875 0.44375
v 1.040625 0.021875 0.44375
v 1.040625 0.021875 0.3625
v 0.959375 0.021875 0.3625
v 0.959375 0 0.44375
v 1.040625 0 0.44375
v 1.040625 0 0.3625
v 0.959375 0 0.3625
v 0.959375 0.021875 0.44375
v 1.040625 0.021875 0.44375
v 1.040625 0.021875 0.3625
v 0.959375 0.021875 0.3625
vt 0.36377 0.195984
vt 0.381226 0.195984
vt 0.381226 0.200684
vt 0.36377 0.200684
vt 0.545288 0.200684
vt 0.527832 0.200684
vt 0.527832 0.195984
vt 0.545288 0.195984
vt 0.384277 0.195984
vt 0.401733 0.195984
vt 0.401733 0.200684
vt 0.384277 0.200684
vt 0.54834 0.195984
vt 0.565796 0.195984
vt 0.565796 0.200684
vt 0.54834 0.200684
vt 0.43396 0.721191
vt 0.416504 0.721191
vt 0.416504 0.703735
vt 0.416504 0.703735
vt 0.43396 0.703735
vt 0.43396 0.721191
vt 0.454468 0.703735
vt 0.454468 0.721191
vt 0.437012 0.721191
vt 0.437012 0.721191
vt 0.437012 0.703735
vt 0.454468 0.703735
vn 0 0 1
vn 1 0 0
vn 0 0 -1
vn -1 0 0
vn 0 -1 0
vn 0 1 0
f 321/609/19 322/610/19 326/611/19 325/612/19
f 322/613/20 323/614/20 327/615/20 326/616/20
f 323/617/21 324/618/21 328/619/21 327/620/21
f 324/621/22 321/622/22 325/623/22 328/624/22
f 330/625/23 329/626/23 332/627/23
f 332/628/23 331/629/23 330/630/23
f 336/631/24 333/632/24 334/633/24
f 334/634/24 335/635/24 336/636/24
o joint_right_lower__joint_right_lower_foot1
usemtl storage_rack
v 0.959375 0 0.9875
v 1.040625 0 0.9875
v 1.040625 0 0.90625
v 0.959375 0 0.90625
v 0.959375 0.021875 0.9875
v 1.040625 0.021875 0.9875
v 1.040625 0.021875 0.90625
v 0.959375 0.021875 0.90625
v 0.959375 0 0.9875
v 1.040625 0 0.9875
v 1.040625 0 0.90625
v 0.959375 0 0.90625
v 0.959375 0.021875 0.9875
v 1.040625 0.021875 0.9875
v 1.040625 0.021875 0.90625
v 0.959375 0.021875 0.90625
vt 0.404785 0.195984
vt 0.422241 0.195984
vt 0.422241 0.200684
vt 0.404785 0.200684
vt 0.832397 0.200684
vt 0.814941 0.200684
vt 0.814941 0.195984
vt 0.832397 0.195984
vt 0.425293 0.195984
vt 0.442749 0.195984
vt 0.442749 0.200684
vt 0.425293 0.200684
vt 0.835449 0.195984
vt 0.852905 0.195984
vt 0.852905 0.200684
vt 0.835449 0.200684
vt 0.848022 0.63916
vt 0.830566 0.63916
vt 0.830566 0.621704
vt 0.830566 0.621704
vt 0.848022 0.621704
vt 0.848022 0.63916
vt 0.86853 0.621704
vt 0.86853 0.63916
vt 0.851074 0.63916
vt 0.851074 0.63916
vt 0.851074 0.621704
vt 0.86853 0.621704
vn 0 0 1
vn 1 0 0
vn 0 0 -1
vn -1 0 0
vn 0 -1 0
vn 0 1 0
f 337/637/25 338/638/25 342/639/25 341/640/25
f 338/641/26 339/642/26 343/643/26 342/644/26
f 339/645/27 340/646/27 344/647/27 343/648/27
f 340/649/28 337/650/28 341/651/28 344/652/28
f 346/653/29 345/654/29 348/655/29
f 348/656/29 347/657/29 346/658/29
f 352/659/30 349/660/30 350/661/30
f 350/662/30 351/663/30 352/664/30
