# AFL Storage Rack V1 joint_left_lower, generated by tools/build-storage-rack-v1.mjs
mtllib joint_left_lower.mtl
o joint_left_lower__joint_left_lower_beams
usemtl storage_rack
v 0.040625 0.01875 0.3625
v 0.040625 0.01875 0.375
v 0.040625 0.071875 0.375
v 0.040625 0.071875 0.409375
v 0.040625 0.0875 0.409375
v 0.040625 0.0875 0.3625
v 0.125 0.01875 0.3625
v 0.125 0.01875 0.375
v 0.125 0.071875 0.375
v 0.125 0.071875 0.409375
v 0.125 0.0875 0.409375
v 0.125 0.0875 0.3625
v 0.040625 0.01875 0.3625
v 0.040625 0.01875 0.375
v 0.040625 0.071875 0.375
v 0.040625 0.071875 0.409375
v 0.040625 0.0875 0.409375
v 0.040625 0.0875 0.3625
v 0.125 0.01875 0.3625
v 0.125 0.01875 0.375
v 0.125 0.071875 0.375
v 0.125 0.071875 0.409375
v 0.125 0.0875 0.409375
v 0.125 0.0875 0.3625
v 0.040625 0.0875 0.9875
v 0.040625 0.0875 0.940625
v 0.040625 0.071875 0.940625
v 0.040625 0.071875 0.975
v 0.040625 0.01875 0.975
v 0.040625 0.01875 0.9875
v 0.125 0.0875 0.9875
v 0.125 0.0875 0.940625
v 0.125 0.071875 0.940625
v 0.125 0.071875 0.975
v 0.125 0.01875 0.975
v 0.125 0.01875 0.9875
v 0.040625 0.0875 0.9875
v 0.040625 0.0875 0.940625
v 0.040625 0.071875 0.940625
v 0.040625 0.071875 0.975
v 0.040625 0.01875 0.975
v 0.040625 0.01875 0.9875
v 0.125 0.0875 0.9875
v 0.125 0.0875 0.940625
v 0.125 0.071875 0.940625
v 0.125 0.071875 0.975
v 0.125 0.01875 0.975
v 0.125 0.01875 0.9875
v 0.040625 0.46875 0.3625
v 0.040625 0.46875 0.375
v 0.040625 0.521875 0.375
v 0.040625 0.521875 0.409375
v 0.040625 0.5375 0.409375
v 0.040625 0.5375 0.3625
v 0.125 0.46875 0.3625
v 0.125 0.46875 0.375
v 0.125 0.521875 0.375
v 0.125 0.521875 0.409375
v 0.125 0.5375 0.409375
v 0.125 0.5375 0.3625
v 0.040625 0.46875 0.3625
v 0.040625 0.46875 0.375
v 0.040625 0.521875 0.375
v 0.040625 0.521875 0.409375
v 0.040625 0.5375 0.409375
v 0.040625 0.5375 0.3625
v 0.125 0.46875 0.3625
v 0.125 0.46875 0.375
v 0.125 0.521875 0.375
v 0.125 0.521875 0.409375
v 0.125 0.5375 0.409375
v 0.125 0.5375 0.3625
v 0.040625 0.5375 0.9875
v 0.040625 0.5375 0.940625
v 0.040625 0.521875 0.940625
v 0.040625 0.521875 0.975
v 0.040625 0.46875 0.975
v 0.040625 0.46875 0.9875
v 0.125 0.5375 0.9875
v 0.125 0.5375 0.940625
v 0.125 0.521875 0.940625
v 0.125 0.521875 0.975
v 0.125 0.46875 0.975
v 0.125 0.46875 0.9875
v 0.040625 0.5375 0.9875
v 0.040625 0.5375 0.940625
v 0.040625 0.521875 0.940625
v 0.040625 0.521875 0.975
v 0.040625 0.46875 0.975
v 0.040625 0.46875 0.9875
v 0.125 0.5375 0.9875
v 0.125 0.5375 0.940625
v 0.125 0.521875 0.940625
v 0.125 0.521875 0.975
v 0.125 0.46875 0.975
v 0.125 0.46875 0.9875
v 0.040625 0.91875 0.3625
v 0.040625 0.91875 0.375
v 0.040625 0.971875 0.375
v 0.040625 0.971875 0.409375
v 0.040625 0.9875 0.409375
v 0.040625 0.9875 0.3625
v 0.125 0.91875 0.3625
v 0.125 0.91875 0.375
v 0.125 0.971875 0.375
v 0.125 0.971875 0.409375
v 0.125 0.9875 0.409375
v 0.125 0.9875 0.3625
v 0.040625 0.91875 0.3625
v 0.040625 0.91875 0.375
v 0.040625 0.971875 0.375
v 0.040625 0.971875 0.409375
v 0.040625 0.9875 0.409375
v 0.040625 0.9875 0.3625
v 0.125 0.91875 0.3625
v 0.125 0.91875 0.375
v 0.125 0.971875 0.375
v 0.125 0.971875 0.409375
v 0.125 0.9875 0.409375
v 0.125 0.9875 0.3625
v 0.040625 0.9875 0.9875
v 0.040625 0.9875 0.940625
v 0.040625 0.971875 0.940625
v 0.040625 0.971875 0.975
v 0.040625 0.91875 0.975
v 0.040625 0.91875 0.9875
v 0.125 0.9875 0.9875
v 0.125 0.9875 0.940625
v 0.125 0.971875 0.940625
v 0.125 0.971875 0.975
v 0.125 0.91875 0.975
v 0.125 0.91875 0.9875
v 0.040625 0.9875 0.9875
v 0.040625 0.9875 0.940625
v 0.040625 0.971875 0.940625
v 0.040625 0.971875 0.975
v 0.040625 0.91875 0.975
v 0.040625 0.91875 0.9875
v 0.125 0.9875 0.9875
v 0.125 0.9875 0.940625
v 0.125 0.971875 0.940625
v 0.125 0.971875 0.975
v 0.125 0.91875 0.975
v 0.125 0.91875 0.9875
vt 0.676819 0.084717
vt 0.676819 0.087402
vt 0.658691 0.087402
vt 0.658691 0.084717
vt 0.184631 0.37384
vt 0.184631 0.385254
vt 0.166504 0.385254
vt 0.166504 0.37384
vt 0.676819 0.204041
vt 0.676819 0.211426
vt 0.658691 0.211426
vt 0.658691 0.204041
vt 0.676819 0.179749
vt 0.676819 0.183105
vt 0.658691 0.183105
vt 0.658691 0.179749
vt 0.166504 0.299316
vt 0.166504 0.289246
vt 0.184631 0.289246
vt 0.184631 0.299316
vt 0.002441 0.559082
vt 0.002441 0.544312
vt 0.020569 0.544312
vt 0.020569 0.559082
vt 0.540527 0.275574
vt 0.555298 0.275574
vt 0.555298 0.278259
vt 0.540527 0.275574
vt 0.555298 0.278259
vt 0.543884 0.278259
vt 0.540527 0.275574
vt 0.543884 0.278259
vt 0.543884 0.285645
vt 0.543884 0.285645
vt 0.540527 0.285645
vt 0.540527 0.275574
vt 0.559082 0.278259
vt 0.559082 0.275574
vt 0.573853 0.275574
vt 0.570496 0.278259
vt 0.559082 0.278259
vt 0.573853 0.275574
vt 0.570496 0.285645
vt 0.570496 0.278259
vt 0.573853 0.275574
vt 0.573853 0.275574
vt 0.573853 0.285645
vt 0.570496 0.285645
vt 0.187988 0.299316
vt 0.187988 0.289246
vt 0.206116 0.289246
vt 0.206116 0.299316
vt 0.680176 0.183105
vt 0.680176 0.179749
vt 0.698303 0.179749
vt 0.698303 0.183105
vt 0.698303 0.204041
vt 0.698303 0.211426
vt 0.680176 0.211426
vt 0.680176 0.204041
vt 0.187988 0.385254
vt 0.187988 0.37384
vt 0.206116 0.37384
vt 0.206116 0.385254
vt 0.698303 0.084717
vt 0.698303 0.087402
vt 0.680176 0.087402
vt 0.680176 0.084717
vt 0.042053 0.544312
vt 0.042053 0.559082
vt 0.023926 0.559082
vt 0.023926 0.544312
vt 0.577637 0.285645
vt 0.577637 0.275574
vt 0.580994 0.275574
vt 0.577637 0.285645
vt 0.580994 0.275574
vt 0.580994 0.282959
vt 0.592407 0.285645
vt 0.577637 0.285645
vt 0.580994 0.282959
vt 0.580994 0.282959
vt 0.592407 0.282959
vt 0.592407 0.285645
vt 0.607605 0.275574
vt 0.610962 0.275574
vt 0.610962 0.285645
vt 0.607605 0.282959
vt 0.607605 0.275574
vt 0.610962 0.285645
vt 0.607605 0.282959
vt 0.610962 0.285645
vt 0.596191 0.285645
vt 0.596191 0.285645
vt 0.596191 0.282959
vt 0.607605 0.282959
vt 0.719788 0.084717
vt 0.719788 0.087402
vt 0.70166 0.087402
vt 0.70166 0.084717
vt 0.926819 0.37384
vt 0.926819 0.385254
vt 0.908691 0.385254
vt 0.908691 0.37384
vt 0.719788 0.204041
vt 0.719788 0.211426
vt 0.70166 0.211426
vt 0.70166 0.204041
vt 0.719788 0.179749
vt 0.719788 0.183105
vt 0.70166 0.183105
vt 0.70166 0.179749
vt 0.209473 0.299316
vt 0.209473 0.289246
vt 0.2276 0.289246
vt 0.2276 0.299316
vt 0.744629 0.559082
vt 0.744629 0.544312
vt 0.762756 0.544312
vt 0.762756 0.559082
vt 0.35498 0.275574
vt 0.369751 0.275574
vt 0.369751 0.278259
vt 0.35498 0.275574
vt 0.369751 0.278259
vt 0.358337 0.278259
vt 0.35498 0.275574
vt 0.358337 0.278259
vt 0.358337 0.285645
vt 0.358337 0.285645
vt 0.35498 0.285645
vt 0.35498 0.275574
vt 0.07666 0.264587
vt 0.07666 0.261902
vt 0.091431 0.261902
vt 0.088074 0.264587
vt 0.07666 0.264587
vt 0.091431 0.261902
vt 0.088074 0.271973
vt 0.088074 0.264587
vt 0.091431 0.261902
vt 0.091431 0.261902
vt 0.091431 0.271973
vt 0.088074 0.271973
vt 0.230957 0.299316
vt 0.230957 0.289246
vt 0.249084 0.289246
vt 0.249084 0.299316
vt 0.723145 0.183105
vt 0.723145 0.179749
vt 0.741272 0.179749
vt 0.741272 0.183105
vt 0.741272 0.204041
vt 0.741272 0.211426
vt 0.723145 0.211426
vt 0.723145 0.204041
vt 0.930176 0.385254
vt 0.930176 0.37384
vt 0.948303 0.37384
vt 0.948303 0.385254
vt 0.741272 0.084717
vt 0.741272 0.087402
vt 0.723145 0.087402
vt 0.723145 0.084717
vt 0.784241 0.544312
vt 0.784241 0.559082
vt 0.766113 0.559082
vt 0.766113 0.544312
vt 0.095215 0.271973
vt 0.095215 0.261902
vt 0.098572 0.261902
vt 0.095215 0.271973
vt 0.098572 0.261902
vt 0.098572 0.269287
vt 0.109985 0.271973
vt 0.095215 0.271973
vt 0.098572 0.269287
vt 0.098572 0.269287
vt 0.109985 0.269287
vt 0.109985 0.271973
vt 0.125183 0.261902
vt 0.12854 0.261902
vt 0.12854 0.271973
vt 0.125183 0.269287
vt 0.125183 0.261902
vt 0.12854 0.271973
vt 0.125183 0.269287
vt 0.12854 0.271973
vt 0.11377 0.271973
vt 0.11377 0.271973
vt 0.11377 0.269287
vt 0.125183 0.269287
vt 0.762756 0.084717
vt 0.762756 0.087402
vt 0.744629 0.087402
vt 0.744629 0.084717
vt 0.969788 0.37384
vt 0.969788 0.385254
vt 0.95166 0.385254
vt 0.95166 0.37384
vt 0.762756 0.204041
vt 0.762756 0.211426
vt 0.744629 0.211426
vt 0.744629 0.204041
vt 0.762756 0.179749
vt 0.762756 0.183105
vt 0.744629 0.183105
vt 0.744629 0.179749
vt 0.252441 0.299316
vt 0.252441 0.289246
vt 0.270569 0.289246
vt 0.270569 0.299316
vt 0.787598 0.559082
vt 0.787598 0.544312
vt 0.805725 0.544312
vt 0.805725 0.559082
vt 0.132324 0.261902
vt 0.147095 0.261902
vt 0.147095 0.264587
vt 0.132324 0.261902
vt 0.147095 0.264587
vt 0.135681 0.264587
vt 0.132324 0.261902
vt 0.135681 0.264587
vt 0.135681 0.271973
vt 0.135681 0.271973
vt 0.132324 0.271973
vt 0.132324 0.261902
vt 0.150879 0.264587
vt 0.150879 0.261902
vt 0.165649 0.261902
vt 0.162292 0.264587
vt 0.150879 0.264587
vt 0.165649 0.261902
vt 0.162292 0.271973
vt 0.162292 0.264587
vt 0.165649 0.261902
vt 0.165649 0.261902
vt 0.165649 0.271973
vt 0.162292 0.271973
vt 0.273926 0.299316
vt 0.273926 0.289246
vt 0.292053 0.289246
vt 0.292053 0.299316
vt 0.766113 0.183105
vt 0.766113 0.179749
vt 0.784241 0.179749
vt 0.784241 0.183105
vt 0.784241 0.204041
vt 0.784241 0.211426
vt 0.766113 0.211426
vt 0.766113 0.204041
vt 0.973145 0.385254
vt 0.973145 0.37384
vt 0.991272 0.37384
vt 0.991272 0.385254
vt 0.784241 0.084717
vt 0.784241 0.087402
vt 0.766113 0.087402
vt 0.766113 0.084717
vt 0.827209 0.544312
vt 0.827209 0.559082
vt 0.809082 0.559082
vt 0.809082 0.544312
vt 0.169434 0.271973
vt 0.169434 0.261902
vt 0.172791 0.261902
vt 0.169434 0.271973
vt 0.172791 0.261902
vt 0.172791 0.269287
vt 0.184204 0.271973
vt 0.169434 0.271973
vt 0.172791 0.269287
vt 0.172791 0.269287
vt 0.184204 0.269287
vt 0.184204 0.271973
vt 0.199402 0.261902
vt 0.202759 0.261902
vt 0.202759 0.271973
vt 0.199402 0.269287
vt 0.199402 0.261902
vt 0.202759 0.271973
vt 0.199402 0.269287
vt 0.202759 0.271973
vt 0.187988 0.271973
vt 0.187988 0.271973
vt 0.187988 0.269287
vt 0.199402 0.269287
vn 0 -1 0
vn 0 0 1
vn 0 1 0
vn 0 0 -1
vn -1 0 0
vn 1 0 0
f 7/1/1 8/2/1 2/3/1 1/4/1
f 8/5/2 9/6/2 3/7/2 2/8/2
f 9/9/1 10/10/1 4/11/1 3/12/1
f 10/13/2 11/14/2 5/15/2 4/16/2
f 11/17/3 12/18/3 6/19/3 5/20/3
f 12/21/4 7/22/4 1/23/4 6/24/4
f 18/25/5 13/26/5 14/27/5
f 18/28/5 14/29/5 15/30/5
f 18/31/5 15/32/5 16/33/5
f 16/34/5 17/35/5 18/36/5
f 20/37/6 19/38/6 24/39/6
f 21/40/6 20/41/6 24/42/6
f 22/43/6 21/44/6 24/45/6
f 24/46/6 23/47/6 22/48/6
f 31/49/3 32/50/3 26/51/3 25/52/3
f 32/53/4 33/54/4 27/55/4 26/56/4
f 33/57/1 34/58/1 28/59/1 27/60/1
f 34/61/4 35/62/4 29/63/4 28/64/4
f 35/65/1 36/66/1 30/67/1 29/68/1
f 36/69/2 31/70/2 25/71/2 30/72/2
f 37/73/5 38/74/5 39/75/5
f 37/76/5 39/77/5 40/78/5
f 42/79/5 37/80/5 40/81/5
f 40/82/5 41/83/5 42/84/5
f 45/85/6 44/86/6 43/87/6
f 46/88/6 45/89/6 43/90/6
f 46/91/6 43/92/6 48/93/6
f 48/94/6 47/95/6 46/96/6
f 55/97/1 56/98/1 50/99/1 49/100/1
f 56/101/2 57/102/2 51/103/2 50/104/2
f 57/105/1 58/106/1 52/107/1 51/108/1
f 58/109/2 59/110/2 53/111/2 52/112/2
f 59/113/3 60/114/3 54/115/3 53/116/3
f 60/117/4 55/118/4 49/119/4 54/120/4
f 66/121/5 61/122/5 62/123/5
f 66/124/5 62/125/5 63/126/5
f 66/127/5 63/128/5 64/129/5
f 64/130/5 65/131/5 66/132/5
f 68/133/6 67/134/6 72/135/6
f 69/136/6 68/137/6 72/138/6
f 70/139/6 69/140/6 72/141/6
f 72/142/6 71/143/6 70/144/6
f 79/145/3 80/146/3 74/147/3 73/148/3
f 80/149/4 81/150/4 75/151/4 74/152/4
f 81/153/1 82/154/1 76/155/1 75/156/1
f 82/157/4 83/158/4 77/159/4 76/160/4
f 83/161/1 84/162/1 78/163/1 77/164/1
f 84/165/2 79/166/2 73/167/2 78/168/2
f 85/169/5 86/170/5 87/171/5
f 85/172/5 87/173/5 88/174/5
f 90/175/5 85/176/5 88/177/5
f 88/178/5 89/179/5 90/180/5
f 93/181/6 92/182/6 91/183/6
f 94/184/6 93/185/6 91/186/6
f 94/187/6 91/188/6 96/189/6
f 96/190/6 95/191/6 94/192/6
f 103/193/1 104/194/1 98/195/1 97/196/1
f 104/197/2 105/198/2 99/199/2 98/200/2
f 105/201/1 106/202/1 100/203/1 99/204/1
f 106/205/2 107/206/2 101/207/2 100/208/2
f 107/209/3 108/210/3 102/211/3 101/212/3
f 108/213/4 103/214/4 97/215/4 102/216/4
f 114/217/5 109/218/5 110/219/5
f 114/220/5 110/221/5 111/222/5
f 114/223/5 111/224/5 112/225/5
f 112/226/5 113/227/5 114/228/5
f 116/229/6 115/230/6 120/231/6
f 117/232/6 116/233/6 120/234/6
f 118/235/6 117/236/6 120/237/6
f 120/238/6 119/239/6 118/240/6
f 127/241/3 128/242/3 122/243/3 121/244/3
f 128/245/4 129/246/4 123/247/4 122/248/4
f 129/249/1 130/250/1 124/251/1 123/252/1
f 130/253/4 131/254/4 125/255/4 124/256/4
f 131/257/1 132/258/1 126/259/1 125/260/1
f 132/261/2 127/262/2 121/263/2 126/264/2
f 133/265/5 134/266/5 135/267/5
f 133/268/5 135/269/5 136/270/5
f 138/271/5 133/272/5 136/273/5
f 136/274/5 137/275/5 138/276/5
f 141/277/6 140/278/6 139/279/6
f 142/280/6 141/281/6 139/282/6
f 142/283/6 139/284/6 144/285/6
f 144/286/6 143/287/6 142/288/6
o joint_left_lower__joint_left_lower_deck
usemtl storage_rack
v 0.040625 0.059375 0.940625
v 0.125 0.059375 0.940625
v 0.125 0.059375 0.409375
v 0.040625 0.059375 0.409375
v 0.040625 0.071875 0.940625
v 0.125 0.071875 0.940625
v 0.125 0.071875 0.409375
v 0.040625 0.071875 0.409375
v 0.040625 0.059375 0.940625
v 0.125 0.059375 0.940625
v 0.125 0.059375 0.409375
v 0.040625 0.059375 0.409375
v 0.040625 0.071875 0.940625
v 0.125 0.071875 0.940625
v 0.125 0.071875 0.409375
v 0.040625 0.071875 0.409375
v 0.040625 0.509375 0.940625
v 0.125 0.509375 0.940625
v 0.125 0.509375 0.409375
v 0.040625 0.509375 0.409375
v 0.040625 0.521875 0.940625
v 0.125 0.521875 0.940625
v 0.125 0.521875 0.409375
v 0.040625 0.521875 0.409375
v 0.040625 0.509375 0.940625
v 0.125 0.509375 0.940625
v 0.125 0.509375 0.409375
v 0.040625 0.509375 0.409375
v 0.040625 0.521875 0.940625
v 0.125 0.521875 0.940625
v 0.125 0.521875 0.409375
v 0.040625 0.521875 0.409375
v 0.040625 0.959375 0.940625
v 0.125 0.959375 0.940625
v 0.125 0.959375 0.409375
v 0.040625 0.959375 0.409375
v 0.040625 0.971875 0.940625
v 0.125 0.971875 0.940625
v 0.125 0.971875 0.409375
v 0.040625 0.971875 0.409375
v 0.040625 0.959375 0.940625
v 0.125 0.959375 0.940625
v 0.125 0.959375 0.409375
v 0.040625 0.959375 0.409375
v 0.040625 0.971875 0.940625
v 0.125 0.971875 0.940625
v 0.125 0.971875 0.409375
v 0.040625 0.971875 0.409375
vt 0.939941 0.072998
vt 0.958069 0.072998
vt 0.958069 0.075684
vt 0.939941 0.075684
vt 0.350952 0.075684
vt 0.236816 0.075684
vt 0.236816 0.072998
vt 0.350952 0.072998
vt 0.961426 0.072998
vt 0.979553 0.072998
vt 0.979553 0.075684
vt 0.961426 0.075684
vt 0.354004 0.072998
vt 0.46814 0.072998
vt 0.46814 0.075684
vt 0.354004 0.075684
vt 0.772827 0.862244
vt 0.772827 0.880371
vt 0.658691 0.880371
vt 0.658691 0.880371
vt 0.658691 0.862244
vt 0.772827 0.862244
vt 0.775879 0.862244
vt 0.890015 0.862244
vt 0.890015 0.880371
vt 0.890015 0.880371
vt 0.775879 0.880371
vt 0.775879 0.862244
vt 0.471191 0.031982
vt 0.489319 0.031982
vt 0.489319 0.034668
vt 0.471191 0.034668
vt 0.585327 0.058105
vt 0.471191 0.058105
vt 0.471191 0.05542
vt 0.585327 0.05542
vt 0.492676 0.031982
vt 0.510803 0.031982
vt 0.510803 0.034668
vt 0.492676 0.034668
vt 0.588379 0.05542
vt 0.702515 0.05542
vt 0.702515 0.058105
vt 0.588379 0.058105
vt 0.116577 0.745056
vt 0.116577 0.763184
vt 0.002441 0.763184
vt 0.002441 0.763184
vt 0.002441 0.745056
vt 0.116577 0.745056
vt 0.119629 0.745056
vt 0.233765 0.745056
vt 0.233765 0.763184
vt 0.233765 0.763184
vt 0.119629 0.763184
vt 0.119629 0.745056
vt 0.51416 0.031982
vt 0.532288 0.031982
vt 0.532288 0.034668
vt 0.51416 0.034668
vt 0.819702 0.058105
vt 0.705566 0.058105
vt 0.705566 0.05542
vt 0.819702 0.05542
vt 0.535645 0.031982
vt 0.553772 0.031982
vt 0.553772 0.034668
vt 0.535645 0.034668
vt 0.822754 0.05542
vt 0.93689 0.05542
vt 0.93689 0.058105
vt 0.822754 0.058105
vt 0.350952 0.745056
vt 0.350952 0.763184
vt 0.236816 0.763184
vt 0.236816 0.763184
vt 0.236816 0.745056
vt 0.350952 0.745056
vt 0.354004 0.745056
vt 0.46814 0.745056
vt 0.46814 0.763184
vt 0.46814 0.763184
vt 0.354004 0.763184
vt 0.354004 0.745056
vn 0 0 1
vn 1 0 0
vn 0 0 -1
vn -1 0 0
vn 0 -1 0
vn 0 1 0
f 145/289/7 146/290/7 150/291/7 149/292/7
f 146/293/8 147/294/8 151/295/8 150/296/8
f 147/297/9 148/298/9 152/299/9 151/300/9
f 148/301/10 145/302/10 149/303/10 152/304/10
f 154/305/11 153/306/11 156/307/11
f 156/308/11 155/309/11 154/310/11
f 160/311/12 157/312/12 158/313/12
f 158/314/12 159/315/12 160/316/12
f 161/317/7 162/318/7 166/319/7 165/320/7
f 162/321/8 163/322/8 167/323/8 166/324/8
f 163/325/9 164/326/9 168/327/9 167/328/9
f 164/329/10 161/330/10 165/331/10 168/332/10
f 170/333/11 169/334/11 172/335/11
f 172/336/11 171/337/11 170/338/11
f 176/339/12 173/340/12 174/341/12
f 174/342/12 175/343/12 176/344/12
f 177/345/7 178/346/7 182/347/7 181/348/7
f 178/349/8 179/350/8 183/351/8 182/352/8
f 179/353/9 180/354/9 184/355/9 183/356/9
f 180/357/10 177/358/10 181/359/10 184/360/10
f 186/361/11 185/362/11 188/363/11
f 188/364/11 187/365/11 186/366/11
f 192/367/12 189/368/12 190/369/12
f 190/370/12 191/371/12 192/372/12
