# AFL Fuel Island V1 bollard on a curb, generated by tools/build-fuel-island-v1.mjs
mtllib bollard_on_curb.mtl
o bollard_post
usemtl fuel_island
v 0.588884 -0.78125 0.51768
v 0.575352 -0.78125 0.550349
v 0.550349 -0.78125 0.575352
v 0.51768 -0.78125 0.588884
v 0.48232 -0.78125 0.588884
v 0.449651 -0.78125 0.575352
v 0.424648 -0.78125 0.550349
v 0.411116 -0.78125 0.51768
v 0.411116 -0.78125 0.48232
v 0.424648 -0.78125 0.449651
v 0.449651 -0.78125 0.424648
v 0.48232 -0.78125 0.411116
v 0.51768 -0.78125 0.411116
v 0.550349 -0.78125 0.424648
v 0.575352 -0.78125 0.449651
v 0.588884 -0.78125 0.48232
v 0.588884 0.15625 0.51768
v 0.575352 0.15625 0.550349
v 0.550349 0.15625 0.575352
v 0.51768 0.15625 0.588884
v 0.48232 0.15625 0.588884
v 0.449651 0.15625 0.575352
v 0.424648 0.15625 0.550349
v 0.411116 0.15625 0.51768
v 0.411116 0.15625 0.48232
v 0.424648 0.15625 0.449651
v 0.449651 0.15625 0.424648
v 0.48232 0.15625 0.411116
v 0.51768 0.15625 0.411116
v 0.550349 0.15625 0.424648
v 0.575352 0.15625 0.449651
v 0.588884 0.15625 0.48232
v 0.569329 0.19375 0.51379
v 0.558775 0.19375 0.539272
v 0.539272 0.19375 0.558775
v 0.51379 0.19375 0.569329
v 0.48621 0.19375 0.569329
v 0.460728 0.19375 0.558775
v 0.441225 0.19375 0.539272
v 0.430671 0.19375 0.51379
v 0.430671 0.19375 0.48621
v 0.441225 0.19375 0.460728
v 0.460728 0.19375 0.441225
v 0.48621 0.19375 0.430671
v 0.51379 0.19375 0.430671
v 0.539272 0.19375 0.441225
v 0.558775 0.19375 0.460728
v 0.569329 0.19375 0.48621
v 0.531109 0.21875 0.506188
v 0.526373 0.21875 0.517622
v 0.517622 0.21875 0.526373
v 0.506188 0.21875 0.531109
v 0.493812 0.21875 0.531109
v 0.482378 0.21875 0.526373
v 0.473627 0.21875 0.517622
v 0.468891 0.21875 0.506188
v 0.468891 0.21875 0.493812
v 0.473627 0.21875 0.482378
v 0.482378 0.21875 0.473627
v 0.493812 0.21875 0.468891
v 0.506188 0.21875 0.468891
v 0.517622 0.21875 0.473627
v 0.526373 0.21875 0.482378
v 0.531109 0.21875 0.493812
v 0.503065 0.22375 0.50061
v 0.502598 0.22375 0.501736
v 0.501736 0.22375 0.502598
v 0.50061 0.22375 0.503065
v 0.49939 0.22375 0.503065
v 0.498264 0.22375 0.502598
v 0.497402 0.22375 0.501736
v 0.496935 0.22375 0.50061
v 0.496935 0.22375 0.49939
v 0.497402 0.22375 0.498264
v 0.498264 0.22375 0.497402
v 0.49939 0.22375 0.496935
v 0.50061 0.22375 0.496935
v 0.501736 0.22375 0.497402
v 0.502598 0.22375 0.498264
v 0.503065 0.22375 0.49939
v 0.5 0.22375 0.5
vt 0.701904 0.191005
vt 0.701904 0.199707
vt 0.471191 0.199707
vt 0.471191 0.191005
vt 0.936279 0.191005
vt 0.936279 0.199707
vt 0.705566 0.199707
vt 0.705566 0.191005
vt 0.233154 0.179286
vt 0.233154 0.187988
vt 0.002441 0.187988
vt 0.002441 0.179286
vt 0.467529 0.179286
vt 0.467529 0.187988
vt 0.236816 0.187988
vt 0.236816 0.179286
vt 0.484863 0.187988
vt 0.484863 0.179286
vt 0.715576 0.179286
vt 0.715576 0.187988
vt 0.002441 0.199707
vt 0.002441 0.191005
vt 0.233154 0.191005
vt 0.233154 0.199707
vt 0.719238 0.187988
vt 0.719238 0.179286
vt 0.949951 0.179286
vt 0.949951 0.187988
vt 0.002441 0.211426
vt 0.002441 0.202724
vt 0.233154 0.202724
vt 0.233154 0.211426
vt 0.002441 0.17627
vt 0.002441 0.167568
vt 0.233154 0.167568
vt 0.233154 0.17627
vt 0.236816 0.199707
vt 0.236816 0.191005
vt 0.467529 0.191005
vt 0.467529 0.199707
vt 0.471191 0.17627
vt 0.471191 0.167568
vt 0.701904 0.167568
vt 0.701904 0.17627
vt 0.467529 0.202724
vt 0.467529 0.211426
vt 0.236816 0.211426
vt 0.236816 0.202724
vt 0.936279 0.167568
vt 0.936279 0.17627
vt 0.705566 0.17627
vt 0.705566 0.167568
vt 0.936279 0.202724
vt 0.936279 0.211426
vt 0.705566 0.211426
vt 0.705566 0.202724
vt 0.467529 0.167568
vt 0.467529 0.17627
vt 0.236816 0.17627
vt 0.236816 0.167568
vt 0.701904 0.202724
vt 0.701904 0.211426
vt 0.471191 0.211426
vt 0.471191 0.202724
vt 0.811672 0.231158
vt 0.812948 0.237825
vt 0.802906 0.240723
vt 0.80127 0.232176
vt 0.676353 0.229325
vt 0.679201 0.235486
vt 0.670156 0.240723
vt 0.666504 0.232824
vt 0.500488 0.233065
vt 0.505017 0.228009
vt 0.513408 0.234241
vt 0.507602 0.240723
vt 0.471191 0.187031
vt 0.471191 0.180244
vt 0.481599 0.179286
vt 0.481599 0.187988
vt 0.554822 0.240723
vt 0.550293 0.235667
vt 0.557406 0.228009
vt 0.563213 0.234491
vt 0.633301 0.235486
vt 0.636149 0.229325
vt 0.645998 0.232824
vt 0.642346 0.240723
vt 0.830566 0.237825
vt 0.831843 0.231158
vt 0.842245 0.232176
vt 0.840608 0.240723
vt 0.939941 0.210469
vt 0.939941 0.203681
vt 0.950349 0.202724
vt 0.950349 0.211426
vt 0.817195 0.240723
vt 0.815918 0.234056
vt 0.82596 0.231158
vt 0.827597 0.239705
vt 0.652751 0.240723
vt 0.649902 0.234562
vt 0.658948 0.229325
vt 0.6626 0.237224
vt 0.546611 0.235667
vt 0.542082 0.240723
vt 0.533691 0.234491
vt 0.539498 0.228009
vt 0.964021 0.203681
vt 0.964021 0.210469
vt 0.953613 0.211426
vt 0.953613 0.202724
vt 0.525481 0.228009
vt 0.53001 0.233065
vt 0.522896 0.240723
vt 0.51709 0.234241
vt 0.629396 0.234562
vt 0.626548 0.240723
vt 0.616699 0.237224
vt 0.620351 0.229325
vt 0.856894 0.234056
vt 0.855617 0.240723
vt 0.845215 0.239705
vt 0.846852 0.231158
vt 0.977693 0.203681
vt 0.977693 0.210469
vt 0.967285 0.211426
vt 0.967285 0.202724
vt 0.944624 0.253917
vt 0.947497 0.252906
vt 0.952992 0.262884
vt 0.946589 0.265137
vt 0.947497 0.252906
vt 0.949823 0.251038
vt 0.958175 0.258721
vt 0.952992 0.262884
vt 0.572945 0.228014
vt 0.575737 0.229188
vt 0.573117 0.240276
vt 0.566895 0.237661
vt 0.575737 0.229188
vt 0.578759 0.229388
vt 0.579852 0.240723
vt 0.573117 0.240276
vt 0.926078 0.265137
vt 0.924612 0.262486
vt 0.933536 0.255402
vt 0.936802 0.261309
vt 0.924612 0.262486
vt 0.922363 0.260458
vt 0.928524 0.250881
vt 0.933536 0.255402
vt 0.60783 0.240723
vt 0.604966 0.239736
vt 0.606847 0.228499
vt 0.613229 0.230697
vt 0.604966 0.239736
vt 0.601937 0.239736
vt 0.600098 0.228499
vt 0.606847 0.228499
vt 0.964354 0.265137
vt 0.963326 0.262288
vt 0.973257 0.256703
vt 0.975549 0.263052
vt 0.963326 0.262288
vt 0.961426 0.259929
vt 0.969022 0.251447
vt 0.973257 0.256703
vt 0.590403 0.240723
vt 0.587611 0.239549
vt 0.590231 0.228461
vt 0.596453 0.231076
vt 0.587611 0.239549
vt 0.584588 0.239349
vt 0.583496 0.228014
vt 0.590231 0.228461
vt 0.915509 0.250881
vt 0.916975 0.253532
vt 0.908051 0.260616
vt 0.904785 0.254709
vt 0.916975 0.253532
vt 0.919224 0.25556
vt 0.913063 0.265137
vt 0.908051 0.260616
vt 0.952171 0.173392
vt 0.951173 0.17627
vt 0.939941 0.174356
vt 0.942164 0.167943
vt 0.941641 0.253917
vt 0.944624 0.253917
vt 0.946589 0.265137
vt 0.939941 0.265137
vt 0.894034 0.258229
vt 0.894311 0.258114
vt 0.898223 0.263971
vt 0.895409 0.265137
vt 0.894311 0.258114
vt 0.894523 0.257902
vt 0.900376 0.261818
vt 0.898223 0.263971
vt 0.894523 0.257902
vt 0.894638 0.257625
vt 0.901542 0.259004
vt 0.900376 0.261818
vt 0.894638 0.257625
vt 0.894638 0.257325
vt 0.901542 0.255958
vt 0.901542 0.259004
vt 0.894638 0.257325
vt 0.894523 0.257047
vt 0.900377 0.253144
vt 0.901542 0.255958
vt 0.894523 0.257047
vt 0.894311 0.256835
vt 0.898223 0.250991
vt 0.900377 0.253144
vt 0.894311 0.256835
vt 0.894034 0.25672
vt 0.895409 0.249825
vt 0.898223 0.250991
vt 0.894034 0.25672
vt 0.893734 0.25672
vt 0.892364 0.249825
vt 0.895409 0.249825
vt 0.508414 0.164551
vt 0.508301 0.164273
vt 0.514274 0.160355
vt 0.515424 0.163175
vt 0.893456 0.256835
vt 0.893244 0.257047
vt 0.887396 0.253144
vt 0.88955 0.250991
vt 0.893244 0.257047
vt 0.893129 0.257325
vt 0.886231 0.255958
vt 0.887396 0.253144
vt 0.893129 0.257325
vt 0.893129 0.257625
vt 0.88623 0.259004
vt 0.886231 0.255958
vt 0.893129 0.257625
vt 0.893244 0.257902
vt 0.887396 0.261818
vt 0.88623 0.259004
vt 0.893244 0.257902
vt 0.893456 0.258114
vt 0.88955 0.263971
vt 0.887396 0.261818
vt 0.893456 0.258114
vt 0.893734 0.258229
vt 0.892363 0.265137
vt 0.88955 0.263971
vt 0.893734 0.258229
vt 0.894034 0.258229
vt 0.895409 0.265137
vt 0.892363 0.265137
vt 0.894311 0.258114
vt 0.894034 0.258229
vt 0.893884 0.257475
vt 0.894523 0.257902
vt 0.894311 0.258114
vt 0.893884 0.257475
vt 0.894638 0.257625
vt 0.894523 0.257902
vt 0.893884 0.257475
vt 0.894638 0.257325
vt 0.894638 0.257625
vt 0.893884 0.257475
vt 0.894523 0.257047
vt 0.894638 0.257325
vt 0.893884 0.257475
vt 0.894311 0.256835
vt 0.894523 0.257047
vt 0.893884 0.257475
vt 0.894034 0.25672
vt 0.894311 0.256835
vt 0.893884 0.257475
vt 0.893734 0.25672
vt 0.894034 0.25672
vt 0.893884 0.257475
vt 0.893456 0.256835
vt 0.893734 0.25672
vt 0.893884 0.257475
vt 0.893244 0.257047
vt 0.893456 0.256835
vt 0.893884 0.257475
vt 0.893129 0.257325
vt 0.893244 0.257047
vt 0.893884 0.257475
vt 0.893129 0.257625
vt 0.893129 0.257325
vt 0.893884 0.257475
vt 0.893244 0.257902
vt 0.893129 0.257625
vt 0.893884 0.257475
vt 0.893456 0.258114
vt 0.893244 0.257902
vt 0.893884 0.257475
vt 0.893734 0.258229
vt 0.893456 0.258114
vt 0.893884 0.257475
vt 0.894034 0.258229
vt 0.893734 0.258229
vt 0.893884 0.257475
vn 0.980622 0.018274 0.195058
vn 0.831331 0.018274 0.555477
vn 0.83147 0 0.55557
vn 0.980785 0 0.19509
vn 0.555477 0.018274 0.831331
vn 0.55557 0 0.83147
vn 0.195058 0.018274 0.980622
vn 0.19509 0 0.980785
vn -0.195058 0.018274 0.980622
vn -0.19509 0 0.980785
vn -0.555477 0.018274 0.831331
vn -0.55557 0 0.83147
vn -0.831331 0.018274 0.555477
vn -0.83147 0 0.55557
vn -0.980622 0.018274 0.195058
vn -0.980785 0 0.19509
vn -0.980622 0.018274 -0.195058
vn -0.980785 0 -0.19509
vn -0.831331 0.018274 -0.555477
vn -0.83147 0 -0.55557
vn -0.555477 0.018274 -0.831331
vn -0.55557 0 -0.83147
vn -0.195058 0.018274 -0.980622
vn -0.19509 0 -0.980785
vn 0.195058 0.018274 -0.980622
vn 0.19509 0 -0.980785
vn 0.555477 0.018274 -0.831331
vn 0.55557 0 -0.83147
vn 0.831331 0.018274 -0.555477
vn 0.83147 0 -0.55557
vn 0.980622 0.018274 -0.195058
vn 0.980785 0 -0.19509
vn 0.752069 0.641882 0.149596
vn 0.637574 0.641882 0.426013
vn 0.426013 0.641882 0.637574
vn 0.149596 0.641882 0.752069
vn -0.149596 0.641882 0.752069
vn -0.426013 0.641882 0.637574
vn -0.637574 0.641882 0.426013
vn -0.752069 0.641882 0.149596
vn -0.752069 0.641882 -0.149596
vn -0.637574 0.641882 -0.426013
vn -0.426013 0.641882 -0.637574
vn -0.149596 0.641882 -0.752069
vn 0.149596 0.641882 -0.752069
vn 0.426013 0.641882 -0.637574
vn 0.637574 0.641882 -0.426013
vn 0.752069 0.641882 -0.149596
vn 0.471539 0.876843 0.093795
vn 0.399752 0.876843 0.267106
vn 0.267106 0.876843 0.399752
vn 0.093795 0.876843 0.471539
vn -0.093795 0.876843 0.471539
vn -0.267106 0.876843 0.399752
vn -0.399752 0.876843 0.267106
vn -0.471539 0.876843 0.093795
vn -0.471539 0.876843 -0.093795
vn -0.399752 0.876843 -0.267106
vn -0.267106 0.876843 -0.399752
vn -0.093795 0.876843 -0.471539
vn 0.093795 0.876843 -0.471539
vn 0.267106 0.876843 -0.399752
vn 0.399752 0.876843 -0.267106
vn 0.471539 0.876843 -0.093795
vn 0.167348 0.985336 0.033288
vn 0.141871 0.985336 0.094795
vn 0.094795 0.985336 0.141871
vn 0.033288 0.985336 0.167348
vn -0.033288 0.985336 0.167348
vn -0.094795 0.985336 0.141871
vn -0.141871 0.985336 0.094795
vn -0.167348 0.985336 0.033288
vn -0.167348 0.985336 -0.033288
vn -0.141871 0.985336 -0.094795
vn -0.094795 0.985336 -0.141871
vn -0.033288 0.985336 -0.167348
vn 0.033288 0.985336 -0.167348
vn 0.094795 0.985336 -0.141871
vn 0.141871 0.985336 -0.094795
vn 0.167348 0.985336 -0.033288
vn 0 1 0
f 17/1/1 18/2/2 2/3/3 1/4/4
f 18/5/2 19/6/5 3/7/6 2/8/3
f 19/9/5 20/10/7 4/11/8 3/12/6
f 20/13/7 21/14/9 5/15/10 4/16/8
f 21/17/9 22/18/11 6/19/12 5/20/10
f 22/21/11 23/22/13 7/23/14 6/24/12
f 23/25/13 24/26/15 8/27/16 7/28/14
f 24/29/15 25/30/17 9/31/18 8/32/16
f 25/33/17 26/34/19 10/35/20 9/36/18
f 26/37/19 27/38/21 11/39/22 10/40/20
f 27/41/21 28/42/23 12/43/24 11/44/22
f 28/45/23 29/46/25 13/47/26 12/48/24
f 29/49/25 30/50/27 14/51/28 13/52/26
f 30/53/27 31/54/29 15/55/30 14/56/28
f 31/57/29 32/58/31 16/59/32 15/60/30
f 32/61/31 17/62/1 1/63/4 16/64/32
f 33/65/33 34/66/34 18/67/2 17/68/1
f 34/69/34 35/70/35 19/71/5 18/72/2
f 35/73/35 36/74/36 20/75/7 19/76/5
f 36/77/36 37/78/37 21/79/9 20/80/7
f 37/81/37 38/82/38 22/83/11 21/84/9
f 38/85/38 39/86/39 23/87/13 22/88/11
f 39/89/39 40/90/40 24/91/15 23/92/13
f 40/93/40 41/94/41 25/95/17 24/96/15
f 41/97/41 42/98/42 26/99/19 25/100/17
f 42/101/42 43/102/43 27/103/21 26/104/19
f 43/105/43 44/106/44 28/107/23 27/108/21
f 44/109/44 45/110/45 29/111/25 28/112/23
f 45/113/45 46/114/46 30/115/27 29/116/25
f 46/117/46 47/118/47 31/119/29 30/120/27
f 47/121/47 48/122/48 32/123/31 31/124/29
f 48/125/48 33/126/33 17/127/1 32/128/31
f 49/129/49 50/130/50 34/131/34 33/132/33
f 50/133/50 51/134/51 35/135/35 34/136/34
f 51/137/51 52/138/52 36/139/36 35/140/35
f 52/141/52 53/142/53 37/143/37 36/144/36
f 53/145/53 54/146/54 38/147/38 37/148/37
f 54/149/54 55/150/55 39/151/39 38/152/38
f 55/153/55 56/154/56 40/155/40 39/156/39
f 56/157/56 57/158/57 41/159/41 40/160/40
f 57/161/57 58/162/58 42/163/42 41/164/41
f 58/165/58 59/166/59 43/167/43 42/168/42
f 59/169/59 60/170/60 44/171/44 43/172/43
f 60/173/60 61/174/61 45/175/45 44/176/44
f 61/177/61 62/178/62 46/179/46 45/180/45
f 62/181/62 63/182/63 47/183/47 46/184/46
f 63/185/63 64/186/64 48/187/48 47/188/47
f 64/189/64 49/190/49 33/191/33 48/192/48
f 65/193/65 66/194/66 50/195/50 49/196/49
f 66/197/66 67/198/67 51/199/51 50/200/50
f 67/201/67 68/202/68 52/203/52 51/204/51
f 68/205/68 69/206/69 53/207/53 52/208/52
f 69/209/69 70/210/70 54/211/54 53/212/53
f 70/213/70 71/214/71 55/215/55 54/216/54
f 71/217/71 72/218/72 56/219/56 55/220/55
f 72/221/72 73/222/73 57/223/57 56/224/56
f 73/225/73 74/226/74 58/227/58 57/228/57
f 74/229/74 75/230/75 59/231/59 58/232/58
f 75/233/75 76/234/76 60/235/60 59/236/59
f 76/237/76 77/238/77 61/239/61 60/240/60
f 77/241/77 78/242/78 62/243/62 61/244/61
f 78/245/78 79/246/79 63/247/63 62/248/62
f 79/249/79 80/250/80 64/251/64 63/252/63
f 80/253/80 65/254/65 49/255/49 64/256/64
f 66/257/66 65/258/65 81/259/81
f 67/260/67 66/261/66 81/262/81
f 68/263/68 67/264/67 81/265/81
f 69/266/69 68/267/68 81/268/81
f 70/269/70 69/270/69 81/271/81
f 71/272/71 70/273/70 81/274/81
f 72/275/72 71/276/71 81/277/81
f 73/278/73 72/279/72 81/280/81
f 74/281/74 73/282/73 81/283/81
f 75/284/75 74/285/74 81/286/81
f 76/287/76 75/288/75 81/289/81
f 77/290/77 76/291/76 81/292/81
f 78/293/78 77/294/77 81/295/81
f 79/296/79 78/297/78 81/298/81
f 80/299/80 79/300/79 81/301/81
f 65/302/65 80/303/80 81/304/81
o bollard_flange
usemtl fuel_island
v 0.659378 -0.8125 0.531702
v 0.635114 -0.8125 0.59028
v 0.59028 -0.8125 0.635114
v 0.531702 -0.8125 0.659378
v 0.468298 -0.8125 0.659378
v 0.40972 -0.8125 0.635114
v 0.364886 -0.8125 0.59028
v 0.340622 -0.8125 0.531702
v 0.340622 -0.8125 0.468298
v 0.364886 -0.8125 0.40972
v 0.40972 -0.8125 0.364886
v 0.468298 -0.8125 0.340622
v 0.531702 -0.8125 0.340622
v 0.59028 -0.8125 0.364886
v 0.635114 -0.8125 0.40972
v 0.659378 -0.8125 0.468298
v 0.659378 -0.790625 0.531702
v 0.635114 -0.790625 0.59028
v 0.59028 -0.790625 0.635114
v 0.531702 -0.790625 0.659378
v 0.468298 -0.790625 0.659378
v 0.40972 -0.790625 0.635114
v 0.364886 -0.790625 0.59028
v 0.340622 -0.790625 0.531702
v 0.340622 -0.790625 0.468298
v 0.364886 -0.790625 0.40972
v 0.40972 -0.790625 0.364886
v 0.468298 -0.790625 0.340622
v 0.531702 -0.790625 0.340622
v 0.59028 -0.790625 0.364886
v 0.635114 -0.790625 0.40972
v 0.659378 -0.790625 0.468298
v 0.640988 -0.78125 0.528044
v 0.619524 -0.78125 0.579863
v 0.579863 -0.78125 0.619524
v 0.528044 -0.78125 0.640988
v 0.471956 -0.78125 0.640988
v 0.420137 -0.78125 0.619524
v 0.380476 -0.78125 0.579863
v 0.359012 -0.78125 0.528044
v 0.359012 -0.78125 0.471956
v 0.380476 -0.78125 0.420137
v 0.420137 -0.78125 0.380476
v 0.471956 -0.78125 0.359012
v 0.528044 -0.78125 0.359012
v 0.579863 -0.78125 0.380476
v 0.619524 -0.78125 0.420137
v 0.640988 -0.78125 0.471956
v 0.588271 -0.78125 0.517558
v 0.574832 -0.78125 0.550001
v 0.550001 -0.78125 0.574832
v 0.517558 -0.78125 0.588271
v 0.482442 -0.78125 0.588271
v 0.449999 -0.78125 0.574832
v 0.425168 -0.78125 0.550001
v 0.411729 -0.78125 0.517558
v 0.411729 -0.78125 0.482442
v 0.425168 -0.78125 0.449999
v 0.449999 -0.78125 0.425168
v 0.482442 -0.78125 0.411729
v 0.517558 -0.78125 0.411729
v 0.550001 -0.78125 0.425168
v 0.574832 -0.78125 0.449999
v 0.588271 -0.78125 0.482442
v 0.5 -0.8125 0.5
v 0.5 -0.78125 0.5
vt 0.206543 0.159167
vt 0.222146 0.159167
vt 0.222146 0.164551
vt 0.206543 0.164551
vt 0.07666 0.159167
vt 0.092264 0.159167
vt 0.092264 0.164551
vt 0.07666 0.164551
vt 0.225098 0.159167
vt 0.240701 0.159167
vt 0.240701 0.164551
vt 0.225098 0.164551
vt 0.110818 0.164551
vt 0.095215 0.164551
vt 0.095215 0.159167
vt 0.110818 0.159167
vt 0.259256 0.164551
vt 0.243652 0.164551
vt 0.243652 0.159167
vt 0.259256 0.159167
vt 0.073709 0.164551
vt 0.058105 0.164551
vt 0.058105 0.159167
vt 0.073709 0.159167
vt 0.97117 0.17627
vt 0.955566 0.17627
vt 0.955566 0.170886
vt 0.97117 0.170886
vt 0.018045 0.164551
vt 0.002441 0.164551
vt 0.002441 0.159167
vt 0.018045 0.159167
vt 0.129373 0.164551
vt 0.11377 0.164551
vt 0.11377 0.159167
vt 0.129373 0.159167
vt 0.203592 0.164551
vt 0.187988 0.164551
vt 0.187988 0.159167
vt 0.203592 0.159167
vt 0.147928 0.164551
vt 0.132324 0.164551
vt 0.132324 0.159167
vt 0.147928 0.159167
vt 0.0366 0.164551
vt 0.020996 0.164551
vt 0.020996 0.159167
vt 0.0366 0.159167
vt 0.150879 0.159167
vt 0.166482 0.159167
vt 0.166482 0.164551
vt 0.150879 0.164551
vt 0.974121 0.170886
vt 0.989725 0.170886
vt 0.989725 0.17627
vt 0.974121 0.17627
vt 0.169434 0.159167
vt 0.185037 0.159167
vt 0.185037 0.164551
vt 0.169434 0.164551
vt 0.039551 0.159167
vt 0.055154 0.159167
vt 0.055154 0.164551
vt 0.039551 0.164551
vt 0.199513 0.260064
vt 0.212446 0.255241
vt 0.215064 0.259686
vt 0.200444 0.265137
vt 0.212446 0.255241
vt 0.222734 0.246331
vt 0.226694 0.249613
vt 0.215064 0.259686
vt 0.685881 0.229732
vt 0.698573 0.235022
vt 0.697453 0.240058
vt 0.683105 0.234078
vt 0.698573 0.235022
vt 0.712311 0.23561
vt 0.712983 0.240723
vt 0.697453 0.240058
vt 0.806152 0.31098
vt 0.818439 0.304807
vt 0.821527 0.30894
vt 0.807637 0.315918
vt 0.818439 0.304807
vt 0.827844 0.294776
vt 0.832158 0.2976
vt 0.821527 0.30894
vt 0.795613 0.240723
vt 0.782707 0.23598
vt 0.78361 0.230901
vt 0.7982 0.236262
vt 0.782707 0.23598
vt 0.768956 0.23598
vt 0.768066 0.230901
vt 0.78361 0.230901
vt 0.182028 0.251247
vt 0.169171 0.256124
vt 0.166525 0.251696
vt 0.181058 0.246182
vt 0.169171 0.256124
vt 0.158786 0.265137
vt 0.154785 0.261884
vt 0.166525 0.251696
vt 0.74341 0.240723
vt 0.730718 0.235433
vt 0.731838 0.230397
vt 0.746186 0.236377
vt 0.730718 0.235433
vt 0.716981 0.234845
vt 0.716309 0.229732
vt 0.731838 0.230397
vt 0.861455 0.299714
vt 0.849167 0.305886
vt 0.84608 0.301753
vt 0.85997 0.294776
vt 0.849167 0.305886
vt 0.839763 0.315918
vt 0.835449 0.313093
vt 0.84608 0.301753
vt 0.752115 0.230867
vt 0.765064 0.235645
vt 0.76415 0.240723
vt 0.749512 0.235321
vt 0.185903 0.260064
vt 0.199513 0.260064
vt 0.200444 0.265137
vt 0.185059 0.265137
vt 0.12349 0.484585
vt 0.131474 0.481278
vt 0.138823 0.492276
vt 0.12607 0.497559
vt 0.131474 0.481278
vt 0.137585 0.475167
vt 0.148583 0.482516
vt 0.138823 0.492276
vt 0.137585 0.475167
vt 0.140892 0.467183
vt 0.153865 0.469764
vt 0.148583 0.482516
vt 0.140892 0.467183
vt 0.140892 0.458541
vt 0.153865 0.455961
vt 0.153865 0.469764
vt 0.140892 0.458541
vt 0.137585 0.450557
vt 0.148583 0.443209
vt 0.153865 0.455961
vt 0.137585 0.450557
vt 0.131474 0.444447
vt 0.138823 0.433448
vt 0.148583 0.443209
vt 0.131474 0.444447
vt 0.12349 0.441139
vt 0.12607 0.428166
vt 0.138823 0.433448
vt 0.12349 0.441139
vt 0.114848 0.441139
vt 0.112267 0.428166
vt 0.12607 0.428166
vt 0.114848 0.441139
vt 0.106864 0.444447
vt 0.099515 0.433448
vt 0.112267 0.428166
vt 0.106864 0.444447
vt 0.100753 0.450557
vt 0.089755 0.443209
vt 0.099515 0.433448
vt 0.100753 0.450557
vt 0.097446 0.458541
vt 0.084473 0.455961
vt 0.089755 0.443209
vt 0.097446 0.458541
vt 0.097446 0.467183
vt 0.084473 0.469764
vt 0.084473 0.455961
vt 0.097446 0.467183
vt 0.100753 0.475167
vt 0.089755 0.482516
vt 0.084473 0.469764
vt 0.100753 0.475167
vt 0.106864 0.481278
vt 0.099515 0.492276
vt 0.089755 0.482516
vt 0.106864 0.481278
vt 0.114848 0.484585
vt 0.112267 0.497559
vt 0.099515 0.492276
vt 0.114848 0.484585
vt 0.12349 0.484585
vt 0.12607 0.497559
vt 0.112267 0.497559
vt 0.041663 0.458337
vt 0.049465 0.419115
vt 0.063881 0.425086
vt 0.041663 0.458337
vt 0.063881 0.425086
vt 0.074914 0.436119
vt 0.041663 0.458337
vt 0.074914 0.436119
vt 0.080885 0.450535
vt 0.041663 0.458337
vt 0.080885 0.450535
vt 0.080885 0.466138
vt 0.041663 0.458337
vt 0.080885 0.466138
vt 0.074914 0.480554
vt 0.041663 0.458337
vt 0.074914 0.480554
vt 0.063881 0.491587
vt 0.041663 0.458337
vt 0.063881 0.491587
vt 0.049465 0.497559
vt 0.041663 0.458337
vt 0.049465 0.497559
vt 0.033862 0.497559
vt 0.041663 0.458337
vt 0.033862 0.497559
vt 0.019446 0.491587
vt 0.041663 0.458337
vt 0.019446 0.491587
vt 0.008413 0.480554
vt 0.041663 0.458337
vt 0.008413 0.480554
vt 0.002441 0.466138
vt 0.041663 0.458337
vt 0.002441 0.466138
vt 0.002441 0.450535
vt 0.041663 0.458337
vt 0.002441 0.450535
vt 0.008413 0.436119
vt 0.041663 0.458337
vt 0.008413 0.436119
vt 0.019446 0.425086
vt 0.041663 0.458337
vt 0.019446 0.425086
vt 0.033862 0.419115
vt 0.041663 0.458337
vt 0.033862 0.419115
vt 0.049465 0.419115
vt 0.131474 0.481278
vt 0.12349 0.484585
vt 0.119169 0.462862
vt 0.137585 0.475167
vt 0.131474 0.481278
vt 0.119169 0.462862
vt 0.140892 0.467183
vt 0.137585 0.475167
vt 0.119169 0.462862
vt 0.140892 0.458541
vt 0.140892 0.467183
vt 0.119169 0.462862
vt 0.137585 0.450557
vt 0.140892 0.458541
vt 0.119169 0.462862
vt 0.131474 0.444447
vt 0.137585 0.450557
vt 0.119169 0.462862
vt 0.12349 0.441139
vt 0.131474 0.444447
vt 0.119169 0.462862
vt 0.114848 0.441139
vt 0.12349 0.441139
vt 0.119169 0.462862
vt 0.106864 0.444447
vt 0.114848 0.441139
vt 0.119169 0.462862
vt 0.100753 0.450557
vt 0.106864 0.444447
vt 0.119169 0.462862
vt 0.097446 0.458541
vt 0.100753 0.450557
vt 0.119169 0.462862
vt 0.097446 0.467183
vt 0.097446 0.458541
vt 0.119169 0.462862
vt 0.100753 0.475167
vt 0.097446 0.467183
vt 0.119169 0.462862
vt 0.106864 0.481278
vt 0.100753 0.475167
vt 0.119169 0.462862
vt 0.114848 0.484585
vt 0.106864 0.481278
vt 0.119169 0.462862
vt 0.12349 0.484585
vt 0.114848 0.484585
vt 0.119169 0.462862
vn 0.980785 0 0.19509
vn 0.83147 0 0.55557
vn 0.55557 0 0.83147
vn 0.19509 0 0.980785
vn -0.19509 0 0.980785
vn -0.55557 0 0.83147
vn -0.83147 0 0.55557
vn -0.980785 0 0.19509
vn -0.980785 0 -0.19509
vn -0.83147 0 -0.55557
vn -0.55557 0 -0.83147
vn -0.19509 0 -0.980785
vn 0.19509 0 -0.980785
vn 0.55557 0 -0.83147
vn 0.83147 0 -0.55557
vn 0.980785 0 -0.19509
vn 0.151966 0.987923 0.030228
vn 0.12883 0.987923 0.086082
vn 0.371845 0.894427 0.248459
vn 0.438621 0.894427 0.087247
vn 0.086082 0.987923 0.12883
vn 0.248459 0.894427 0.371845
vn 0.030228 0.987923 0.151966
vn 0.087247 0.894427 0.438621
vn -0.030228 0.987923 0.151966
vn -0.087247 0.894427 0.438621
vn -0.086082 0.987923 0.12883
vn -0.248459 0.894427 0.371845
vn -0.12883 0.987923 0.086082
vn -0.371845 0.894427 0.248459
vn -0.151966 0.987923 0.030228
vn -0.438621 0.894427 0.087247
vn -0.151966 0.987923 -0.030228
vn -0.438621 0.894427 -0.087247
vn -0.12883 0.987923 -0.086082
vn -0.371845 0.894427 -0.248459
vn -0.086082 0.987923 -0.12883
vn -0.248459 0.894427 -0.371845
vn -0.030228 0.987923 -0.151966
vn -0.087247 0.894427 -0.438621
vn 0.030228 0.987923 -0.151966
vn 0.087247 0.894427 -0.438621
vn 0.086082 0.987923 -0.12883
vn 0.248459 0.894427 -0.371845
vn 0.12883 0.987923 -0.086082
vn 0.371845 0.894427 -0.248459
vn 0.151966 0.987923 -0.030228
vn 0.438621 0.894427 -0.087247
vn 0 1 0
vn 0 -1 0
f 98/305/82 99/306/83 83/307/83 82/308/82
f 99/309/83 100/310/84 84/311/84 83/312/83
f 100/313/84 101/314/85 85/315/85 84/316/84
f 101/317/85 102/318/86 86/319/86 85/320/85
f 102/321/86 103/322/87 87/323/87 86/324/86
f 103/325/87 104/326/88 88/327/88 87/328/87
f 104/329/88 105/330/89 89/331/89 88/332/88
f 105/333/89 106/334/90 90/335/90 89/336/89
f 106/337/90 107/338/91 91/339/91 90/340/90
f 107/341/91 108/342/92 92/343/92 91/344/91
f 108/345/92 109/346/93 93/347/93 92/348/92
f 109/349/93 110/350/94 94/351/94 93/352/93
f 110/353/94 111/354/95 95/355/95 94/356/94
f 111/357/95 112/358/96 96/359/96 95/360/95
f 112/361/96 113/362/97 97/363/97 96/364/96
f 113/365/97 98/366/82 82/367/82 97/368/97
f 114/369/98 115/370/99 99/371/100 98/372/101
f 115/373/99 116/374/102 100/375/103 99/376/100
f 116/377/102 117/378/104 101/379/105 100/380/103
f 117/381/104 118/382/106 102/383/107 101/384/105
f 118/385/106 119/386/108 103/387/109 102/388/107
f 119/389/108 120/390/110 104/391/111 103/392/109
f 120/393/110 121/394/112 105/395/113 104/396/111
f 121/397/112 122/398/114 106/399/115 105/400/113
f 122/401/114 123/402/116 107/403/117 106/404/115
f 123/405/116 124/406/118 108/407/119 107/408/117
f 124/409/118 125/410/120 109/411/121 108/412/119
f 125/413/120 126/414/122 110/415/123 109/416/121
f 126/417/122 127/418/124 111/419/125 110/420/123
f 127/421/124 128/422/126 112/423/127 111/424/125
f 128/425/126 129/426/128 113/427/129 112/428/127
f 129/429/128 114/430/98 98/431/101 113/432/129
f 130/433/130 131/434/130 115/435/99 114/436/98
f 131/437/130 132/438/130 116/439/102 115/440/99
f 132/441/130 133/442/130 117/443/104 116/444/102
f 133/445/130 134/446/130 118/447/106 117/448/104
f 134/449/130 135/450/130 119/451/108 118/452/106
f 135/453/130 136/454/130 120/455/110 119/456/108
f 136/457/130 137/458/130 121/459/112 120/460/110
f 137/461/130 138/462/130 122/463/114 121/464/112
f 138/465/130 139/466/130 123/467/116 122/468/114
f 139/469/130 140/470/130 124/471/118 123/472/116
f 140/473/130 141/474/130 125/475/120 124/476/118
f 141/477/130 142/478/130 126/479/122 125/480/120
f 142/481/130 143/482/130 127/483/124 126/484/122
f 143/485/130 144/486/130 128/487/126 127/488/124
f 144/489/130 145/490/130 129/491/128 128/492/126
f 145/493/130 130/494/130 114/495/98 129/496/128
f 146/497/131 82/498/131 83/499/131
f 146/500/131 83/501/131 84/502/131
f 146/503/131 84/504/131 85/505/131
f 146/506/131 85/507/131 86/508/131
f 146/509/131 86/510/131 87/511/131
f 146/512/131 87/513/131 88/514/131
f 146/515/131 88/516/131 89/517/131
f 146/518/131 89/519/131 90/520/131
f 146/521/131 90/522/131 91/523/131
f 146/524/131 91/525/131 92/526/131
f 146/527/131 92/528/131 93/529/131
f 146/530/131 93/531/131 94/532/131
f 146/533/131 94/534/131 95/535/131
f 146/536/131 95/537/131 96/538/131
f 146/539/131 96/540/131 97/541/131
f 146/542/131 97/543/131 82/544/131
f 131/545/130 130/546/130 147/547/130
f 132/548/130 131/549/130 147/550/130
f 133/551/130 132/552/130 147/553/130
f 134/554/130 133/555/130 147/556/130
f 135/557/130 134/558/130 147/559/130
f 136/560/130 135/561/130 147/562/130
f 137/563/130 136/564/130 147/565/130
f 138/566/130 137/567/130 147/568/130
f 139/569/130 138/570/130 147/571/130
f 140/572/130 139/573/130 147/574/130
f 141/575/130 140/576/130 147/577/130
f 142/578/130 141/579/130 147/580/130
f 143/581/130 142/582/130 147/583/130
f 144/584/130 143/585/130 147/586/130
f 145/587/130 144/588/130 147/589/130
f 130/590/130 145/591/130 147/592/130
o bollard_bolts
usemtl fuel_island
v 0.605709 -0.784375 0.598388
v 0.588388 -0.784375 0.608388
v 0.571068 -0.784375 0.598388
v 0.571068 -0.784375 0.578388
v 0.588388 -0.784375 0.568388
v 0.605709 -0.784375 0.578388
v 0.605709 -0.765625 0.598388
v 0.588388 -0.765625 0.608388
v 0.571068 -0.765625 0.598388
v 0.571068 -0.765625 0.578388
v 0.588388 -0.765625 0.568388
v 0.605709 -0.765625 0.578388
v 0.598131 -0.76125 0.594013
v 0.588388 -0.76125 0.599638
v 0.578646 -0.76125 0.594013
v 0.578646 -0.76125 0.582763
v 0.588388 -0.76125 0.577138
v 0.598131 -0.76125 0.582763
v 0.588388 -0.76125 0.588388
v 0.428932 -0.784375 0.598388
v 0.411612 -0.784375 0.608388
v 0.394291 -0.784375 0.598388
v 0.394291 -0.784375 0.578388
v 0.411612 -0.784375 0.568388
v 0.428932 -0.784375 0.578388
v 0.428932 -0.765625 0.598388
v 0.411612 -0.765625 0.608388
v 0.394291 -0.765625 0.598388
v 0.394291 -0.765625 0.578388
v 0.411612 -0.765625 0.568388
v 0.428932 -0.765625 0.578388
v 0.421354 -0.76125 0.594013
v 0.411612 -0.76125 0.599638
v 0.401869 -0.76125 0.594013
v 0.401869 -0.76125 0.582763
v 0.411612 -0.76125 0.577138
v 0.421354 -0.76125 0.582763
v 0.411612 -0.76125 0.588388
v 0.428932 -0.784375 0.421612
v 0.411612 -0.784375 0.431612
v 0.394291 -0.784375 0.421612
v 0.394291 -0.784375 0.401612
v 0.411612 -0.784375 0.391612
v 0.428932 -0.784375 0.401612
v 0.428932 -0.765625 0.421612
v 0.411612 -0.765625 0.431612
v 0.394291 -0.765625 0.421612
v 0.394291 -0.765625 0.401612
v 0.411612 -0.765625 0.391612
v 0.428932 -0.765625 0.401612
v 0.421354 -0.76125 0.417237
v 0.411612 -0.76125 0.422862
v 0.401869 -0.76125 0.417237
v 0.401869 -0.76125 0.405987
v 0.411612 -0.76125 0.400362
v 0.421354 -0.76125 0.405987
v 0.411612 -0.76125 0.411612
v 0.605709 -0.784375 0.421612
v 0.588388 -0.784375 0.431612
v 0.571068 -0.784375 0.421612
v 0.571068 -0.784375 0.401612
v 0.588388 -0.784375 0.391612
v 0.605709 -0.784375 0.401612
v 0.605709 -0.765625 0.421612
v 0.588388 -0.765625 0.431612
v 0.571068 -0.765625 0.421612
v 0.571068 -0.765625 0.401612
v 0.588388 -0.765625 0.391612
v 0.605709 -0.765625 0.401612
v 0.598131 -0.76125 0.417237
v 0.588388 -0.76125 0.422862
v 0.578646 -0.76125 0.417237
v 0.578646 -0.76125 0.405987
v 0.588388 -0.76125 0.400362
v 0.598131 -0.76125 0.405987
v 0.588388 -0.76125 0.411612
vt 0.429199 0.159937
vt 0.434121 0.159937
vt 0.434121 0.164551
vt 0.429199 0.164551
vt 0.311074 0.164551
vt 0.306152 0.164551
vt 0.306152 0.159937
vt 0.311074 0.159937
vt 0.460488 0.164551
vt 0.455566 0.164551
vt 0.455566 0.159937
vt 0.460488 0.159937
vt 0.337441 0.164551
vt 0.33252 0.164551
vt 0.33252 0.159937
vt 0.337441 0.159937
vt 0.314941 0.159937
vt 0.319863 0.159937
vt 0.319863 0.164551
vt 0.314941 0.164551
vt 0.350098 0.159937
vt 0.35502 0.159937
vt 0.35502 0.164551
vt 0.350098 0.164551
vt 0.583633 0.160626
vt 0.585937 0.162162
vt 0.585638 0.164551
vt 0.581543 0.161821
vt 0.526855 0.162162
vt 0.529159 0.160626
vt 0.531249 0.161821
vt 0.527154 0.164551
vt 0.290466 0.155762
vt 0.287698 0.155762
vt 0.286621 0.153608
vt 0.291543 0.153608
vt 0.536972 0.164551
vt 0.534668 0.163015
vt 0.534967 0.160626
vt 0.539062 0.163356
vt 0.593749 0.163015
vt 0.591446 0.164551
vt 0.589355 0.163356
vt 0.593451 0.160626
vt 0.27012 0.153608
vt 0.272888 0.153608
vt 0.273965 0.155762
vt 0.269043 0.155762
vt 0.267744 0.162153
vt 0.26636 0.164551
vt 0.264976 0.162153
vt 0.26636 0.159756
vt 0.267744 0.162153
vt 0.264976 0.162153
vt 0.263591 0.159756
vt 0.26636 0.159756
vt 0.264976 0.162153
vt 0.262207 0.162153
vt 0.263591 0.159756
vt 0.264976 0.162153
vt 0.263591 0.164551
vt 0.262207 0.162153
vt 0.264976 0.162153
vt 0.26636 0.164551
vt 0.263591 0.164551
vt 0.264976 0.162153
vt 0.32373 0.159937
vt 0.328652 0.159937
vt 0.328652 0.164551
vt 0.32373 0.164551
vt 0.363809 0.164551
vt 0.358887 0.164551
vt 0.358887 0.159937
vt 0.363809 0.159937
vt 0.469277 0.164551
vt 0.464355 0.164551
vt 0.464355 0.159937
vt 0.469277 0.159937
vt 0.478066 0.164551
vt 0.473145 0.164551
vt 0.473145 0.159937
vt 0.478066 0.159937
vt 0.367676 0.159937
vt 0.372598 0.159937
vt 0.372598 0.164551
vt 0.367676 0.164551
vt 0.376465 0.159937
vt 0.381387 0.159937
vt 0.381387 0.164551
vt 0.376465 0.164551
vt 0.544571 0.160626
vt 0.546874 0.162162
vt 0.546576 0.164551
vt 0.54248 0.161821
vt 0.550293 0.162162
vt 0.552597 0.160626
vt 0.554687 0.161821
vt 0.550592 0.164551
vt 0.299255 0.155762
vt 0.296487 0.155762
vt 0.29541 0.153608
vt 0.300332 0.153608
vt 0.560409 0.164551
vt 0.558105 0.163015
vt 0.558404 0.160626
vt 0.562499 0.163356
vt 0.617187 0.163015
vt 0.614883 0.164551
vt 0.612793 0.163356
vt 0.616888 0.160626
vt 0.252542 0.153608
vt 0.25531 0.153608
vt 0.256387 0.155762
vt 0.251465 0.155762
vt 0.276533 0.162153
vt 0.275149 0.164551
vt 0.273765 0.162153
vt 0.275149 0.159756
vt 0.276533 0.162153
vt 0.273765 0.162153
vt 0.27238 0.159756
vt 0.275149 0.159756
vt 0.273765 0.162153
vt 0.270996 0.162153
vt 0.27238 0.159756
vt 0.273765 0.162153
vt 0.27238 0.164551
vt 0.270996 0.162153
vt 0.273765 0.162153
vt 0.275149 0.164551
vt 0.27238 0.164551
vt 0.273765 0.162153
vt 0.341309 0.159937
vt 0.34623 0.159937
vt 0.34623 0.164551
vt 0.341309 0.164551
vt 0.390176 0.164551
vt 0.385254 0.164551
vt 0.385254 0.159937
vt 0.390176 0.159937
vt 0.486855 0.164551
vt 0.481934 0.164551
vt 0.481934 0.159937
vt 0.486855 0.159937
vt 0.44291 0.164551
vt 0.437988 0.164551
vt 0.437988 0.159937
vt 0.44291 0.159937
vt 0.490723 0.159937
vt 0.495645 0.159937
vt 0.495645 0.164551
vt 0.490723 0.164551
vt 0.394043 0.159937
vt 0.398965 0.159937
vt 0.398965 0.164551
vt 0.394043 0.164551
vt 0.622696 0.160626
vt 0.624999 0.162162
vt 0.624701 0.164551
vt 0.620605 0.161821
vt 0.597168 0.162162
vt 0.599472 0.160626
vt 0.601562 0.161821
vt 0.597467 0.164551
vt 0.308044 0.155762
vt 0.305276 0.155762
vt 0.304199 0.153608
vt 0.309121 0.153608
vt 0.521347 0.164551
vt 0.519043 0.163015
vt 0.519342 0.160626
vt 0.523437 0.163356
vt 0.632812 0.163015
vt 0.630508 0.164551
vt 0.628418 0.163356
vt 0.632513 0.160626
vt 0.278909 0.153608
vt 0.281677 0.153608
vt 0.282754 0.155762
vt 0.277832 0.155762
vt 0.285322 0.162153
vt 0.283938 0.164551
vt 0.282554 0.162153
vt 0.283938 0.159756
vt 0.285322 0.162153
vt 0.282554 0.162153
vt 0.281169 0.159756
vt 0.283938 0.159756
vt 0.282554 0.162153
vt 0.279785 0.162153
vt 0.281169 0.159756
vt 0.282554 0.162153
vt 0.281169 0.164551
vt 0.279785 0.162153
vt 0.282554 0.162153
vt 0.283938 0.164551
vt 0.281169 0.164551
vt 0.282554 0.162153
vt 0.402832 0.159937
vt 0.407754 0.159937
vt 0.407754 0.164551
vt 0.402832 0.164551
vt 0.416543 0.164551
vt 0.411621 0.164551
vt 0.411621 0.159937
vt 0.416543 0.159937
vt 0.504434 0.164551
vt 0.499512 0.164551
vt 0.499512 0.159937
vt 0.504434 0.159937
vt 0.302285 0.164551
vt 0.297363 0.164551
vt 0.297363 0.159937
vt 0.302285 0.159937
vt 0.446777 0.159937
vt 0.451699 0.159937
vt 0.451699 0.164551
vt 0.446777 0.164551
vt 0.42041 0.159937
vt 0.425332 0.159937
vt 0.425332 0.164551
vt 0.42041 0.164551
vt 0.607071 0.160626
vt 0.609374 0.162162
vt 0.609076 0.164551
vt 0.60498 0.161821
vt 0.57373 0.162162
vt 0.576034 0.160626
vt 0.578124 0.161821
vt 0.574029 0.164551
vt 0.316833 0.155762
vt 0.314065 0.155762
vt 0.312988 0.153608
vt 0.31791 0.153608
vt 0.568222 0.164551
vt 0.565918 0.163015
vt 0.566217 0.160626
vt 0.570312 0.163356
vt 0.640624 0.163015
vt 0.638321 0.164551
vt 0.63623 0.163356
vt 0.640326 0.160626
vt 0.261331 0.153608
vt 0.264099 0.153608
vt 0.265176 0.155762
vt 0.260254 0.155762
vt 0.294111 0.162153
vt 0.292727 0.164551
vt 0.291343 0.162153
vt 0.292727 0.159756
vt 0.294111 0.162153
vt 0.291343 0.162153
vt 0.289958 0.159756
vt 0.292727 0.159756
vt 0.291343 0.162153
vt 0.288574 0.162153
vt 0.289958 0.159756
vt 0.291343 0.162153
vt 0.289958 0.164551
vt 0.288574 0.162153
vt 0.291343 0.162153
vt 0.292727 0.164551
vt 0.289958 0.164551
vt 0.291343 0.162153
vn 0.5 0 0.866025
vn -0.5 0 0.866025
vn -1 0 0
vn -0.5 0 -0.866025
vn 0.5 0 -0.866025
vn 1 0 0
vn 0.280096 0.946253 0.161713
vn 0 0.946253 0.323426
vn 0 0.894427 0.447214
vn 0.387298 0.894427 0.223607
vn -0.280096 0.946253 0.161713
vn -0.387298 0.894427 0.223607
vn -0.280096 0.946253 -0.161713
vn -0.387298 0.894427 -0.223607
vn 0 0.946253 -0.323426
vn 0 0.894427 -0.447214
vn 0.280096 0.946253 -0.161713
vn 0.387298 0.894427 -0.223607
vn 0 1 0
f 154/593/132 155/594/132 149/595/132 148/596/132
f 155/597/133 156/598/133 150/599/133 149/600/133
f 156/601/134 157/602/134 151/603/134 150/604/134
f 157/605/135 158/606/135 152/607/135 151/608/135
f 158/609/136 159/610/136 153/611/136 152/612/136
f 159/613/137 154/614/137 148/615/137 153/616/137
f 160/617/138 161/618/139 155/619/140 154/620/141
f 161/621/139 162/622/142 156/623/143 155/624/140
f 162/625/142 163/626/144 157/627/145 156/628/143
f 163/629/144 164/630/146 158/631/147 157/632/145
f 164/633/146 165/634/148 159/635/149 158/636/147
f 165/637/148 160/638/138 154/639/141 159/640/149
f 161/641/139 160/642/138 166/643/150
f 162/644/142 161/645/139 166/646/150
f 163/647/144 162/648/142 166/649/150
f 164/650/146 163/651/144 166/652/150
f 165/653/148 164/654/146 166/655/150
f 160/656/138 165/657/148 166/658/150
f 173/659/132 174/660/132 168/661/132 167/662/132
f 174/663/133 175/664/133 169/665/133 168/666/133
f 175/667/134 176/668/134 170/669/134 169/670/134
f 176/671/135 177/672/135 171/673/135 170/674/135
f 177/675/136 178/676/136 172/677/136 171/678/136
f 178/679/137 173/680/137 167/681/137 172/682/137
f 179/683/138 180/684/139 174/685/140 173/686/141
f 180/687/139 181/688/142 175/689/143 174/690/140
f 181/691/142 182/692/144 176/693/145 175/694/143
f 182/695/144 183/696/146 177/697/147 176/698/145
f 183/699/146 184/700/148 178/701/149 177/702/147
f 184/703/148 179/704/138 173/705/141 178/706/149
f 180/707/139 179/708/138 185/709/150
f 181/710/142 180/711/139 185/712/150
f 182/713/144 181/714/142 185/715/150
f 183/716/146 182/717/144 185/718/150
f 184/719/148 183/720/146 185/721/150
f 179/722/138 184/723/148 185/724/150
f 192/725/132 193/726/132 187/727/132 186/728/132
f 193/729/133 194/730/133 188/731/133 187/732/133
f 194/733/134 195/734/134 189/735/134 188/736/134
f 195/737/135 196/738/135 190/739/135 189/740/135
f 196/741/136 197/742/136 191/743/136 190/744/136
f 197/745/137 192/746/137 186/747/137 191/748/137
f 198/749/138 199/750/139 193/751/140 192/752/141
f 199/753/139 200/754/142 194/755/143 193/756/140
f 200/757/142 201/758/144 195/759/145 194/760/143
f 201/761/144 202/762/146 196/763/147 195/764/145
f 202/765/146 203/766/148 197/767/149 196/768/147
f 203/769/148 198/770/138 192/771/141 197/772/149
f 199/773/139 198/774/138 204/775/150
f 200/776/142 199/777/139 204/778/150
f 201/779/144 200/780/142 204/781/150
f 202/782/146 201/783/144 204/784/150
f 203/785/148 202/786/146 204/787/150
f 198/788/138 203/789/148 204/790/150
f 211/791/132 212/792/132 206/793/132 205/794/132
f 212/795/133 213/796/133 207/797/133 206/798/133
f 213/799/134 214/800/134 208/801/134 207/802/134
f 214/803/135 215/804/135 209/805/135 208/806/135
f 215/807/136 216/808/136 210/809/136 209/810/136
f 216/811/137 211/812/137 205/813/137 210/814/137
f 217/815/138 218/816/139 212/817/140 211/818/141
f 218/819/139 219/820/142 213/821/143 212/822/140
f 219/823/142 220/824/144 214/825/145 213/826/143
f 220/827/144 221/828/146 215/829/147 214/830/145
f 221/831/146 222/832/148 216/833/149 215/834/147
f 222/835/148 217/836/138 211/837/141 216/838/149
f 218/839/139 217/840/138 223/841/150
f 219/842/142 218/843/139 223/844/150
f 220/845/144 219/846/142 223/847/150
f 221/848/146 220/849/144 223/850/150
f 222/851/148 221/852/146 223/853/150
f 217/854/138 222/855/148 223/856/150
o bollard_band_0
usemtl fuel_island
v 0.591949 -0.125 0.51829
v 0.57795 -0.125 0.552085
v 0.552085 -0.125 0.57795
v 0.51829 -0.125 0.591949
v 0.48171 -0.125 0.591949
v 0.447915 -0.125 0.57795
v 0.42205 -0.125 0.552085
v 0.408051 -0.125 0.51829
v 0.408051 -0.125 0.48171
v 0.42205 -0.125 0.447915
v 0.447915 -0.125 0.42205
v 0.48171 -0.125 0.408051
v 0.51829 -0.125 0.408051
v 0.552085 -0.125 0.42205
v 0.57795 -0.125 0.447915
v 0.591949 -0.125 0.48171
v 0.591949 -0.05 0.51829
v 0.57795 -0.05 0.552085
v 0.552085 -0.05 0.57795
v 0.51829 -0.05 0.591949
v 0.48171 -0.05 0.591949
v 0.447915 -0.05 0.57795
v 0.42205 -0.05 0.552085
v 0.408051 -0.05 0.51829
v 0.408051 -0.05 0.48171
v 0.42205 -0.05 0.447915
v 0.447915 -0.05 0.42205
v 0.48171 -0.05 0.408051
v 0.51829 -0.05 0.408051
v 0.552085 -0.05 0.42205
v 0.57795 -0.05 0.447915
v 0.591949 -0.05 0.48171
v 0.5 -0.125 0.5
vt 0.265039 0.215119
vt 0.265039 0.224121
vt 0.246582 0.224121
vt 0.246582 0.215119
vt 0.308008 0.215119
vt 0.308008 0.224121
vt 0.289551 0.224121
vt 0.289551 0.215119
vt 0.243555 0.215119
vt 0.243555 0.224121
vt 0.225098 0.224121
vt 0.225098 0.215119
vt 0.329492 0.215119
vt 0.329492 0.224121
vt 0.311035 0.224121
vt 0.311035 0.215119
vt 0.459473 0.224121
vt 0.459473 0.215119
vt 0.47793 0.215119
vt 0.47793 0.224121
vt 0.070801 0.224121
vt 0.070801 0.215119
vt 0.089258 0.215119
vt 0.089258 0.224121
vt 0.518066 0.224121
vt 0.518066 0.215119
vt 0.536523 0.215119
vt 0.536523 0.224121
vt 0.859863 0.240723
vt 0.859863 0.231721
vt 0.87832 0.231721
vt 0.87832 0.240723
vt 0.625488 0.224121
vt 0.625488 0.215119
vt 0.643945 0.215119
vt 0.643945 0.224121
vt 0.156738 0.224121
vt 0.156738 0.215119
vt 0.175195 0.215119
vt 0.175195 0.224121
vt 0.58252 0.224121
vt 0.58252 0.215119
vt 0.600977 0.215119
vt 0.600977 0.224121
vt 0.899805 0.231721
vt 0.899805 0.240723
vt 0.881348 0.240723
vt 0.881348 0.231721
vt 0.66543 0.215119
vt 0.66543 0.224121
vt 0.646973 0.224121
vt 0.646973 0.215119
vt 0.110742 0.215119
vt 0.110742 0.224121
vt 0.092285 0.224121
vt 0.092285 0.215119
vt 0.622461 0.215119
vt 0.622461 0.224121
vt 0.604004 0.224121
vt 0.604004 0.215119
vt 0.921289 0.231721
vt 0.921289 0.240723
vt 0.902832 0.240723
vt 0.902832 0.231721
vt 0.353194 0.343095
vt 0.357695 0.320467
vt 0.366012 0.323912
vt 0.353194 0.343095
vt 0.366012 0.323912
vt 0.372377 0.330277
vt 0.353194 0.343095
vt 0.372377 0.330277
vt 0.375822 0.338594
vt 0.353194 0.343095
vt 0.375822 0.338594
vt 0.375822 0.347596
vt 0.353194 0.343095
vt 0.375822 0.347596
vt 0.372377 0.355912
vt 0.353194 0.343095
vt 0.372377 0.355912
vt 0.366012 0.362278
vt 0.353194 0.343095
vt 0.366012 0.362278
vt 0.357695 0.365723
vt 0.353194 0.343095
vt 0.357695 0.365723
vt 0.348693 0.365723
vt 0.353194 0.343095
vt 0.348693 0.365723
vt 0.340377 0.362278
vt 0.353194 0.343095
vt 0.340377 0.362278
vt 0.334011 0.355912
vt 0.353194 0.343095
vt 0.334011 0.355912
vt 0.330566 0.347596
vt 0.353194 0.343095
vt 0.330566 0.347596
vt 0.330566 0.338594
vt 0.353194 0.343095
vt 0.330566 0.338594
vt 0.334011 0.330277
vt 0.353194 0.343095
vt 0.334011 0.330277
vt 0.340377 0.323912
vt 0.353194 0.343095
vt 0.340377 0.323912
vt 0.348693 0.320467
vt 0.353194 0.343095
vt 0.348693 0.320467
vt 0.357695 0.320467
vn 0.980785 0 0.19509
vn 0.83147 0 0.55557
vn 0.55557 0 0.83147
vn 0.19509 0 0.980785
vn -0.19509 0 0.980785
vn -0.55557 0 0.83147
vn -0.83147 0 0.55557
vn -0.980785 0 0.19509
vn -0.980785 0 -0.19509
vn -0.83147 0 -0.55557
vn -0.55557 0 -0.83147
vn -0.19509 0 -0.980785
vn 0.19509 0 -0.980785
vn 0.55557 0 -0.83147
vn 0.83147 0 -0.55557
vn 0.980785 0 -0.19509
vn 0 -1 0
f 240/857/151 241/858/152 225/859/152 224/860/151
f 241/861/152 242/862/153 226/863/153 225/864/152
f 242/865/153 243/866/154 227/867/154 226/868/153
f 243/869/154 244/870/155 228/871/155 227/872/154
f 244/873/155 245/874/156 229/875/156 228/876/155
f 245/877/156 246/878/157 230/879/157 229/880/156
f 246/881/157 247/882/158 231/883/158 230/884/157
f 247/885/158 248/886/159 232/887/159 231/888/158
f 248/889/159 249/890/160 233/891/160 232/892/159
f 249/893/160 250/894/161 234/895/161 233/896/160
f 250/897/161 251/898/162 235/899/162 234/900/161
f 251/901/162 252/902/163 236/903/163 235/904/162
f 252/905/163 253/906/164 237/907/164 236/908/163
f 253/909/164 254/910/165 238/911/165 237/912/164
f 254/913/165 255/914/166 239/915/166 238/916/165
f 255/917/166 240/918/151 224/919/151 239/920/166
f 256/921/167 224/922/167 225/923/167
f 256/924/167 225/925/167 226/926/167
f 256/927/167 226/928/167 227/929/167
f 256/930/167 227/931/167 228/932/167
f 256/933/167 228/934/167 229/935/167
f 256/936/167 229/937/167 230/938/167
f 256/939/167 230/940/167 231/941/167
f 256/942/167 231/943/167 232/944/167
f 256/945/167 232/946/167 233/947/167
f 256/948/167 233/949/167 234/950/167
f 256/951/167 234/952/167 235/953/167
f 256/954/167 235/955/167 236/956/167
f 256/957/167 236/958/167 237/959/167
f 256/960/167 237/961/167 238/962/167
f 256/963/167 238/964/167 239/965/167
f 256/966/167 239/967/167 224/968/167
o bollard_band_1
usemtl fuel_island
v 0.591949 -0.05 0.51829
v 0.57795 -0.05 0.552085
v 0.552085 -0.05 0.57795
v 0.51829 -0.05 0.591949
v 0.48171 -0.05 0.591949
v 0.447915 -0.05 0.57795
v 0.42205 -0.05 0.552085
v 0.408051 -0.05 0.51829
v 0.408051 -0.05 0.48171
v 0.42205 -0.05 0.447915
v 0.447915 -0.05 0.42205
v 0.48171 -0.05 0.408051
v 0.51829 -0.05 0.408051
v 0.552085 -0.05 0.42205
v 0.57795 -0.05 0.447915
v 0.591949 -0.05 0.48171
v 0.591949 0 0.51829
v 0.57795 0 0.552085
v 0.552085 0 0.57795
v 0.51829 0 0.591949
v 0.48171 0 0.591949
v 0.447915 0 0.57795
v 0.42205 0 0.552085
v 0.408051 0 0.51829
v 0.408051 0 0.48171
v 0.42205 0 0.447915
v 0.447915 0 0.42205
v 0.48171 0 0.408051
v 0.51829 0 0.408051
v 0.552085 0 0.42205
v 0.57795 0 0.447915
v 0.591949 0 0.48171
vt 0.409277 0.215119
vt 0.409277 0.224121
vt 0.396973 0.224121
vt 0.396973 0.215119
vt 0.456152 0.215119
vt 0.456152 0.224121
vt 0.443848 0.224121
vt 0.443848 0.215119
vt 0.424902 0.215119
vt 0.424902 0.224121
vt 0.412598 0.224121
vt 0.412598 0.215119
vt 0.440527 0.215119
vt 0.440527 0.224121
vt 0.428223 0.224121
vt 0.428223 0.215119
vt 0.502441 0.224121
vt 0.502441 0.215119
vt 0.514746 0.215119
vt 0.514746 0.224121
vt 0.178223 0.224121
vt 0.178223 0.215119
vt 0.190527 0.215119
vt 0.190527 0.224121
vt 0.711426 0.224121
vt 0.711426 0.215119
vt 0.72373 0.215119
vt 0.72373 0.224121
vt 0.023926 0.224121
vt 0.023926 0.215119
vt 0.03623 0.215119
vt 0.03623 0.224121
vt 0.727051 0.224121
vt 0.727051 0.215119
vt 0.739355 0.215119
vt 0.739355 0.224121
vt 0.193848 0.224121
vt 0.193848 0.215119
vt 0.206152 0.215119
vt 0.206152 0.224121
vt 0.742676 0.224121
vt 0.742676 0.215119
vt 0.75498 0.215119
vt 0.75498 0.224121
vt 0.051855 0.215119
vt 0.051855 0.224121
vt 0.039551 0.224121
vt 0.039551 0.215119
vt 0.770605 0.215119
vt 0.770605 0.224121
vt 0.758301 0.224121
vt 0.758301 0.215119
vt 0.221777 0.215119
vt 0.221777 0.224121
vt 0.209473 0.224121
vt 0.209473 0.215119
vt 0.78623 0.215119
vt 0.78623 0.224121
vt 0.773926 0.224121
vt 0.773926 0.215119
vt 0.06748 0.215119
vt 0.06748 0.224121
vt 0.055176 0.224121
vt 0.055176 0.215119
vn 0.980785 0 0.19509
vn 0.83147 0 0.55557
vn 0.55557 0 0.83147
vn 0.19509 0 0.980785
vn -0.19509 0 0.980785
vn -0.55557 0 0.83147
vn -0.83147 0 0.55557
vn -0.980785 0 0.19509
vn -0.980785 0 -0.19509
vn -0.83147 0 -0.55557
vn -0.55557 0 -0.83147
vn -0.19509 0 -0.980785
vn 0.19509 0 -0.980785
vn 0.55557 0 -0.83147
vn 0.83147 0 -0.55557
vn 0.980785 0 -0.19509
f 273/969/168 274/970/169 258/971/169 257/972/168
f 274/973/169 275/974/170 259/975/170 258/976/169
f 275/977/170 276/978/171 260/979/171 259/980/170
f 276/981/171 277/982/172 261/983/172 260/984/171
f 277/985/172 278/986/173 262/987/173 261/988/172
f 278/989/173 279/990/174 263/991/174 262/992/173
f 279/993/174 280/994/175 264/995/175 263/996/174
f 280/997/175 281/998/176 265/999/176 264/1000/175
f 281/1001/176 282/1002/177 266/1003/177 265/1004/176
f 282/1005/177 283/1006/178 267/1007/178 266/1008/177
f 283/1009/178 284/1010/179 268/1011/179 267/1012/178
f 284/1013/179 285/1014/180 269/1015/180 268/1016/179
f 285/1017/180 286/1018/181 270/1019/181 269/1020/180
f 286/1021/181 287/1022/182 271/1023/182 270/1024/181
f 287/1025/182 288/1026/183 272/1027/183 271/1028/182
f 288/1029/183 273/1030/168 257/1031/168 272/1032/183
o bollard_band_2
usemtl fuel_island
v 0.591949 0 0.51829
v 0.57795 0 0.552085
v 0.552085 0 0.57795
v 0.51829 0 0.591949
v 0.48171 0 0.591949
v 0.447915 0 0.57795
v 0.42205 0 0.552085
v 0.408051 0 0.51829
v 0.408051 0 0.48171
v 0.42205 0 0.447915
v 0.447915 0 0.42205
v 0.48171 0 0.408051
v 0.51829 0 0.408051
v 0.552085 0 0.42205
v 0.57795 0 0.447915
v 0.591949 0 0.48171
v 0.591949 0.075 0.51829
v 0.57795 0.075 0.552085
v 0.552085 0.075 0.57795
v 0.51829 0.075 0.591949
v 0.48171 0.075 0.591949
v 0.447915 0.075 0.57795
v 0.42205 0.075 0.552085
v 0.408051 0.075 0.51829
v 0.408051 0.075 0.48171
v 0.42205 0.075 0.447915
v 0.447915 0.075 0.42205
v 0.48171 0.075 0.408051
v 0.51829 0.075 0.408051
v 0.552085 0.075 0.42205
v 0.57795 0.075 0.447915
v 0.591949 0.075 0.48171
v 0.5 0.075 0.5
vt 0.286523 0.215119
vt 0.286523 0.224121
vt 0.268066 0.224121
vt 0.268066 0.215119
vt 0.350977 0.215119
vt 0.350977 0.224121
vt 0.33252 0.224121
vt 0.33252 0.215119
vt 0.372461 0.215119
vt 0.372461 0.224121
vt 0.354004 0.224121
vt 0.354004 0.215119
vt 0.393945 0.215119
vt 0.393945 0.224121
vt 0.375488 0.224121
vt 0.375488 0.215119
vt 0.480957 0.224121
vt 0.480957 0.215119
vt 0.499414 0.215119
vt 0.499414 0.224121
vt 0.11377 0.224121
vt 0.11377 0.215119
vt 0.132227 0.215119
vt 0.132227 0.224121
vt 0.668457 0.224121
vt 0.668457 0.215119
vt 0.686914 0.215119
vt 0.686914 0.224121
vt 0.924316 0.240723
vt 0.924316 0.231721
vt 0.942773 0.231721
vt 0.942773 0.240723
vt 0.689941 0.224121
vt 0.689941 0.215119
vt 0.708398 0.215119
vt 0.708398 0.224121
vt 0.945801 0.240723
vt 0.945801 0.231721
vt 0.964258 0.231721
vt 0.964258 0.240723
vt 0.539551 0.224121
vt 0.539551 0.215119
vt 0.558008 0.215119
vt 0.558008 0.224121
vt 0.985742 0.231721
vt 0.985742 0.240723
vt 0.967285 0.240723
vt 0.967285 0.231721
vt 0.579492 0.215119
vt 0.579492 0.224121
vt 0.561035 0.224121
vt 0.561035 0.215119
vt 0.153711 0.215119
vt 0.153711 0.224121
vt 0.135254 0.224121
vt 0.135254 0.215119
vt 0.808008 0.215119
vt 0.808008 0.224121
vt 0.789551 0.224121
vt 0.789551 0.215119
vt 0.020898 0.215119
vt 0.020898 0.224121
vt 0.002441 0.224121
vt 0.002441 0.215119
vt 0.41484 0.362278
vt 0.406523 0.365723
vt 0.402023 0.343095
vt 0.421206 0.355912
vt 0.41484 0.362278
vt 0.402023 0.343095
vt 0.42465 0.347596
vt 0.421206 0.355912
vt 0.402023 0.343095
vt 0.42465 0.338594
vt 0.42465 0.347596
vt 0.402023 0.343095
vt 0.421206 0.330277
vt 0.42465 0.338594
vt 0.402023 0.343095
vt 0.41484 0.323912
vt 0.421206 0.330277
vt 0.402023 0.343095
vt 0.406523 0.320467
vt 0.41484 0.323912
vt 0.402023 0.343095
vt 0.397522 0.320467
vt 0.406523 0.320467
vt 0.402023 0.343095
vt 0.389205 0.323912
vt 0.397522 0.320467
vt 0.402023 0.343095
vt 0.382839 0.330277
vt 0.389205 0.323912
vt 0.402023 0.343095
vt 0.379395 0.338594
vt 0.382839 0.330277
vt 0.402023 0.343095
vt 0.379395 0.347596
vt 0.379395 0.338594
vt 0.402023 0.343095
vt 0.382839 0.355912
vt 0.379395 0.347596
vt 0.402023 0.343095
vt 0.389205 0.362278
vt 0.382839 0.355912
vt 0.402023 0.343095
vt 0.397522 0.365723
vt 0.389205 0.362278
vt 0.402023 0.343095
vt 0.406523 0.365723
vt 0.397522 0.365723
vt 0.402023 0.343095
vn 0.980785 0 0.19509
vn 0.83147 0 0.55557
vn 0.55557 0 0.83147
vn 0.19509 0 0.980785
vn -0.19509 0 0.980785
vn -0.55557 0 0.83147
vn -0.83147 0 0.55557
vn -0.980785 0 0.19509
vn -0.980785 0 -0.19509
vn -0.83147 0 -0.55557
vn -0.55557 0 -0.83147
vn -0.19509 0 -0.980785
vn 0.19509 0 -0.980785
vn 0.55557 0 -0.83147
vn 0.83147 0 -0.55557
vn 0.980785 0 -0.19509
vn 0 1 0
f 305/1033/184 306/1034/185 290/1035/185 289/1036/184
f 306/1037/185 307/1038/186 291/1039/186 290/1040/185
f 307/1041/186 308/1042/187 292/1043/187 291/1044/186
f 308/1045/187 309/1046/188 293/1047/188 292/1048/187
f 309/1049/188 310/1050/189 294/1051/189 293/1052/188
f 310/1053/189 311/1054/190 295/1055/190 294/1056/189
f 311/1057/190 312/1058/191 296/1059/191 295/1060/190
f 312/1061/191 313/1062/192 297/1063/192 296/1064/191
f 313/1065/192 314/1066/193 298/1067/193 297/1068/192
f 314/1069/193 315/1070/194 299/1071/194 298/1072/193
f 315/1073/194 316/1074/195 300/1075/195 299/1076/194
f 316/1077/195 317/1078/196 301/1079/196 300/1080/195
f 317/1081/196 318/1082/197 302/1083/197 301/1084/196
f 318/1085/197 319/1086/198 303/1087/198 302/1088/197
f 319/1089/198 320/1090/199 304/1091/199 303/1092/198
f 320/1093/199 305/1094/184 289/1095/184 304/1096/199
f 306/1097/200 305/1098/200 321/1099/200
f 307/1100/200 306/1101/200 321/1102/200
f 308/1103/200 307/1104/200 321/1105/200
f 309/1106/200 308/1107/200 321/1108/200
f 310/1109/200 309/1110/200 321/1111/200
f 311/1112/200 310/1113/200 321/1114/200
f 312/1115/200 311/1116/200 321/1117/200
f 313/1118/200 312/1119/200 321/1120/200
f 314/1121/200 313/1122/200 321/1123/200
f 315/1124/200 314/1125/200 321/1126/200
f 316/1127/200 315/1128/200 321/1129/200
f 317/1130/200 316/1131/200 321/1132/200
f 318/1133/200 317/1134/200 321/1135/200
f 319/1136/200 318/1137/200 321/1138/200
f 320/1139/200 319/1140/200 321/1141/200
f 305/1142/200 320/1143/200 321/1144/200
