# AFL Fuel Island V1 end, generated by tools/build-fuel-island-v1.mjs
mtllib end.mtl
o end_curb
usemtl fuel_island
v 0 0 1
v 0.5 0 1
v 0.565263 0 0.995722
v 0.62941 0 0.982963
v 0.691342 0 0.96194
v 0.75 0 0.933013
v 0.804381 0 0.896677
v 0.853553 0 0.853553
v 0.896677 0 0.804381
v 0.933013 0 0.75
v 0.96194 0 0.691342
v 0.982963 0 0.62941
v 0.995722 0 0.565263
v 1 0 0.5
v 0.995722 0 0.434737
v 0.982963 0 0.37059
v 0.96194 0 0.308658
v 0.933013 0 0.25
v 0.896677 0 0.195619
v 0.853553 0 0.146447
v 0.804381 0 0.103323
v 0.75 0 0.066987
v 0.691342 0 0.03806
v 0.62941 0 0.017037
v 0.565263 0 0.004278
v 0.5 0 0
v 0 0 0
v 0 0.1875 1
v 0.5 0.1875 1
v 0.565263 0.1875 0.995722
v 0.62941 0.1875 0.982963
v 0.691342 0.1875 0.96194
v 0.75 0.1875 0.933013
v 0.804381 0.1875 0.896677
v 0.853553 0.1875 0.853553
v 0.896677 0.1875 0.804381
v 0.933013 0.1875 0.75
v 0.96194 0.1875 0.691342
v 0.982963 0.1875 0.62941
v 0.995722 0.1875 0.565263
v 1 0.1875 0.5
v 0.995722 0.1875 0.434737
v 0.982963 0.1875 0.37059
v 0.96194 0.1875 0.308658
v 0.933013 0.1875 0.25
v 0.896677 0.1875 0.195619
v 0.853553 0.1875 0.146447
v 0.804381 0.1875 0.103323
v 0.75 0.1875 0.066987
v 0.691342 0.1875 0.03806
v 0.62941 0.1875 0.017037
v 0.565263 0.1875 0.004278
v 0.5 0.1875 0
v 0 0.1875 0
v 0 0 1
v 0.5 0 1
v 0.565263 0 0.995722
v 0.62941 0 0.982963
v 0.691342 0 0.96194
v 0.75 0 0.933013
v 0.804381 0 0.896677
v 0.853553 0 0.853553
v 0.896677 0 0.804381
v 0.933013 0 0.75
v 0.96194 0 0.691342
v 0.982963 0 0.62941
v 0.995722 0 0.565263
v 1 0 0.5
v 0.995722 0 0.434737
v 0.982963 0 0.37059
v 0.96194 0 0.308658
v 0.933013 0 0.25
v 0.896677 0 0.195619
v 0.853553 0 0.146447
v 0.804381 0 0.103323
v 0.75 0 0.066987
v 0.691342 0 0.03806
v 0.62941 0 0.017037
v 0.565263 0 0.004278
v 0.5 0 0
v 0 0 0
v 0 0.1875 1
v 0.5 0.1875 1
v 0.565263 0.1875 0.995722
v 0.62941 0.1875 0.982963
v 0.691342 0.1875 0.96194
v 0.75 0.1875 0.933013
v 0.804381 0.1875 0.896677
v 0.853553 0.1875 0.853553
v 0.896677 0.1875 0.804381
v 0.933013 0.1875 0.75
v 0.96194 0.1875 0.691342
v 0.982963 0.1875 0.62941
v 0.995722 0.1875 0.565263
v 1 0.1875 0.5
v 0.995722 0.1875 0.434737
v 0.982963 0.1875 0.37059
v 0.96194 0.1875 0.308658
v 0.933013 0.1875 0.25
v 0.896677 0.1875 0.195619
v 0.853553 0.1875 0.146447
v 0.804381 0.1875 0.103323
v 0.75 0.1875 0.066987
v 0.691342 0.1875 0.03806
v 0.62941 0.1875 0.017037
v 0.565263 0.1875 0.004278
v 0.5 0.1875 0
v 0 0.1875 0
vt 0.749512 0.369385
vt 0.871228 0.369385
vt 0.871228 0.415527
vt 0.749512 0.415527
vt 0.871228 0.369385
vt 0.88727 0.369385
vt 0.88727 0.415527
vt 0.871228 0.415527
vt 0.88727 0.369385
vt 0.903346 0.369385
vt 0.903346 0.415527
vt 0.88727 0.415527
vt 0.903346 0.369385
vt 0.919181 0.369385
vt 0.919181 0.415527
vt 0.903346 0.415527
vt 0.223303 0.365723
vt 0.207346 0.365723
vt 0.207346 0.31958
vt 0.223303 0.31958
vt 0.207346 0.365723
vt 0.191251 0.365723
vt 0.191251 0.31958
vt 0.207346 0.31958
vt 0.191251 0.365723
vt 0.175293 0.365723
vt 0.175293 0.31958
vt 0.191251 0.31958
vt 0.309241 0.497559
vt 0.293283 0.497559
vt 0.293283 0.451416
vt 0.309241 0.451416
vt 0.293283 0.497559
vt 0.277188 0.497559
vt 0.277188 0.451416
vt 0.293283 0.451416
vt 0.277188 0.497559
vt 0.26123 0.497559
vt 0.26123 0.451416
vt 0.277188 0.451416
vt 0.205725 0.497559
vt 0.189768 0.497559
vt 0.189768 0.451416
vt 0.205725 0.451416
vt 0.189768 0.497559
vt 0.173672 0.497559
vt 0.173672 0.451416
vt 0.189768 0.451416
vt 0.173672 0.497559
vt 0.157715 0.497559
vt 0.157715 0.451416
vt 0.173672 0.451416
vt 0.257483 0.497559
vt 0.241526 0.497559
vt 0.241526 0.451416
vt 0.257483 0.451416
vt 0.241526 0.497559
vt 0.22543 0.497559
vt 0.22543 0.451416
vt 0.241526 0.451416
vt 0.22543 0.497559
vt 0.209473 0.497559
vt 0.209473 0.451416
vt 0.22543 0.451416
vt 0.326819 0.365723
vt 0.310861 0.365723
vt 0.310861 0.31958
vt 0.326819 0.31958
vt 0.310861 0.365723
vt 0.294766 0.365723
vt 0.294766 0.31958
vt 0.310861 0.31958
vt 0.294766 0.365723
vt 0.278809 0.365723
vt 0.278809 0.31958
vt 0.294766 0.31958
vt 0.275061 0.365723
vt 0.259104 0.365723
vt 0.259104 0.31958
vt 0.275061 0.31958
vt 0.259104 0.365723
vt 0.243008 0.365723
vt 0.243008 0.31958
vt 0.259104 0.31958
vt 0.243008 0.365723
vt 0.227051 0.365723
vt 0.227051 0.31958
vt 0.243008 0.31958
vt 0.002441 0.31958
vt 0.018276 0.31958
vt 0.018276 0.365723
vt 0.002441 0.365723
vt 0.018276 0.31958
vt 0.034352 0.31958
vt 0.034352 0.365723
vt 0.018276 0.365723
vt 0.034352 0.31958
vt 0.050394 0.31958
vt 0.050394 0.365723
vt 0.034352 0.365723
vt 0.050394 0.31958
vt 0.172111 0.31958
vt 0.172111 0.365723
vt 0.050394 0.365723
vt 0.500488 0.369385
vt 0.746582 0.369385
vt 0.746582 0.415527
vt 0.500488 0.415527
vt 0.497559 0.623535
vt 0.497559 0.746582
vt 0.251465 0.746582
vt 0.496506 0.607474
vt 0.497559 0.623535
vt 0.251465 0.746582
vt 0.493366 0.591688
vt 0.496506 0.607474
vt 0.251465 0.746582
vt 0.488192 0.576447
vt 0.493366 0.591688
vt 0.251465 0.746582
vt 0.481073 0.562012
vt 0.488192 0.576447
vt 0.251465 0.746582
vt 0.472131 0.548629
vt 0.481073 0.562012
vt 0.251465 0.746582
vt 0.461519 0.536528
vt 0.472131 0.548629
vt 0.251465 0.746582
vt 0.449418 0.525916
vt 0.461519 0.536528
vt 0.251465 0.746582
vt 0.436035 0.516973
vt 0.449418 0.525916
vt 0.251465 0.746582
vt 0.4216 0.509855
vt 0.436035 0.516973
vt 0.251465 0.746582
vt 0.406359 0.504681
vt 0.4216 0.509855
vt 0.251465 0.746582
vt 0.390573 0.501541
vt 0.406359 0.504681
vt 0.251465 0.746582
vt 0.374512 0.500488
vt 0.390573 0.501541
vt 0.251465 0.746582
vt 0.358451 0.501541
vt 0.374512 0.500488
vt 0.251465 0.746582
vt 0.342665 0.504681
vt 0.358451 0.501541
vt 0.251465 0.746582
vt 0.327424 0.509855
vt 0.342665 0.504681
vt 0.251465 0.746582
vt 0.312988 0.516973
vt 0.327424 0.509855
vt 0.251465 0.746582
vt 0.299606 0.525916
vt 0.312988 0.516973
vt 0.251465 0.746582
vt 0.287504 0.536528
vt 0.299606 0.525916
vt 0.251465 0.746582
vt 0.276892 0.548629
vt 0.287504 0.536528
vt 0.251465 0.746582
vt 0.26795 0.562012
vt 0.276892 0.548629
vt 0.251465 0.746582
vt 0.260831 0.576447
vt 0.26795 0.562012
vt 0.251465 0.746582
vt 0.255658 0.591688
vt 0.260831 0.576447
vt 0.251465 0.746582
vt 0.252518 0.607474
vt 0.255658 0.591688
vt 0.251465 0.746582
vt 0.251465 0.746582
vt 0.251465 0.623535
vt 0.252518 0.607474
vt 0.500488 0.500488
vt 0.746582 0.500488
vt 0.746582 0.623535
vt 0.500488 0.500488
vt 0.746582 0.623535
vt 0.745529 0.639596
vt 0.500488 0.500488
vt 0.745529 0.639596
vt 0.742389 0.655382
vt 0.500488 0.500488
vt 0.742389 0.655382
vt 0.737216 0.670623
vt 0.500488 0.500488
vt 0.737216 0.670623
vt 0.730097 0.685059
vt 0.500488 0.500488
vt 0.730097 0.685059
vt 0.721155 0.698441
vt 0.500488 0.500488
vt 0.721155 0.698441
vt 0.710542 0.710542
vt 0.500488 0.500488
vt 0.710542 0.710542
vt 0.698441 0.721155
vt 0.500488 0.500488
vt 0.698441 0.721155
vt 0.685059 0.730097
vt 0.500488 0.500488
vt 0.685059 0.730097
vt 0.670623 0.737216
vt 0.500488 0.500488
vt 0.670623 0.737216
vt 0.655382 0.742389
vt 0.500488 0.500488
vt 0.655382 0.742389
vt 0.639596 0.745529
vt 0.500488 0.500488
vt 0.639596 0.745529
vt 0.623535 0.746582
vt 0.500488 0.500488
vt 0.623535 0.746582
vt 0.607474 0.745529
vt 0.500488 0.500488
vt 0.607474 0.745529
vt 0.591688 0.742389
vt 0.500488 0.500488
vt 0.591688 0.742389
vt 0.576447 0.737216
vt 0.500488 0.500488
vt 0.576447 0.737216
vt 0.562012 0.730097
vt 0.500488 0.500488
vt 0.562012 0.730097
vt 0.548629 0.721155
vt 0.500488 0.500488
vt 0.548629 0.721155
vt 0.536528 0.710542
vt 0.500488 0.500488
vt 0.536528 0.710542
vt 0.525916 0.698441
vt 0.500488 0.500488
vt 0.525916 0.698441
vt 0.516973 0.685059
vt 0.500488 0.500488
vt 0.516973 0.685059
vt 0.509855 0.670623
vt 0.500488 0.500488
vt 0.509855 0.670623
vt 0.504681 0.655382
vt 0.500488 0.500488
vt 0.504681 0.655382
vt 0.501541 0.639596
vt 0.501541 0.639596
vt 0.500488 0.623535
vt 0.500488 0.500488
vn 0 0 1
vn 0.007567 0 0.999971
vn 0.130526 0 0.991445
vn 0.258819 0 0.965926
vn 0.382683 0 0.92388
vn 0.5 0 0.866025
vn 0.608761 0 0.793353
vn 0.707107 0 0.707107
vn 0.793353 0 0.608761
vn 0.866025 0 0.5
vn 0.92388 0 0.382683
vn 0.965926 0 0.258819
vn 0.991445 0 0.130526
vn 1 0 0
vn 0.991445 0 -0.130526
vn 0.965926 0 -0.258819
vn 0.92388 0 -0.382683
vn 0.866025 0 -0.5
vn 0.793353 0 -0.608761
vn 0.707107 0 -0.707107
vn 0.608761 0 -0.793353
vn 0.5 0 -0.866025
vn 0.382683 0 -0.92388
vn 0.258819 0 -0.965926
vn 0.130526 0 -0.991445
vn 0.007567 0 -0.999971
vn 0 0 -1
vn -1 0 0
vn 0 -1 0
vn 0 1 0
f 1/1/1 2/2/2 29/3/2 28/4/1
f 2/5/2 3/6/3 30/7/3 29/8/2
f 3/9/3 4/10/4 31/11/4 30/12/3
f 4/13/4 5/14/5 32/15/5 31/16/4
f 5/17/5 6/18/6 33/19/6 32/20/5
f 6/21/6 7/22/7 34/23/7 33/24/6
f 7/25/7 8/26/8 35/27/8 34/28/7
f 8/29/8 9/30/9 36/31/9 35/32/8
f 9/33/9 10/34/10 37/35/10 36/36/9
f 10/37/10 11/38/11 38/39/11 37/40/10
f 11/41/11 12/42/12 39/43/12 38/44/11
f 12/45/12 13/46/13 40/47/13 39/48/12
f 13/49/13 14/50/14 41/51/14 40/52/13
f 14/53/14 15/54/15 42/55/15 41/56/14
f 15/57/15 16/58/16 43/59/16 42/60/15
f 16/61/16 17/62/17 44/63/17 43/64/16
f 17/65/17 18/66/18 45/67/18 44/68/17
f 18/69/18 19/70/19 46/71/19 45/72/18
f 19/73/19 20/74/20 47/75/20 46/76/19
f 20/77/20 21/78/21 48/79/21 47/80/20
f 21/81/21 22/82/22 49/83/22 48/84/21
f 22/85/22 23/86/23 50/87/23 49/88/22
f 23/89/23 24/90/24 51/91/24 50/92/23
f 24/93/24 25/94/25 52/95/25 51/96/24
f 25/97/25 26/98/26 53/99/26 52/100/25
f 26/101/26 27/102/27 54/103/27 53/104/26
f 27/105/28 1/106/28 28/107/28 54/108/28
f 56/109/29 55/110/29 81/111/29
f 57/112/29 56/113/29 81/114/29
f 58/115/29 57/116/29 81/117/29
f 59/118/29 58/119/29 81/120/29
f 60/121/29 59/122/29 81/123/29
f 61/124/29 60/125/29 81/126/29
f 62/127/29 61/128/29 81/129/29
f 63/130/29 62/131/29 81/132/29
f 64/133/29 63/134/29 81/135/29
f 65/136/29 64/137/29 81/138/29
f 66/139/29 65/140/29 81/141/29
f 67/142/29 66/143/29 81/144/29
f 68/145/29 67/146/29 81/147/29
f 69/148/29 68/149/29 81/150/29
f 70/151/29 69/152/29 81/153/29
f 71/154/29 70/155/29 81/156/29
f 72/157/29 71/158/29 81/159/29
f 73/160/29 72/161/29 81/162/29
f 74/163/29 73/164/29 81/165/29
f 75/166/29 74/167/29 81/168/29
f 76/169/29 75/170/29 81/171/29
f 77/172/29 76/173/29 81/174/29
f 78/175/29 77/176/29 81/177/29
f 79/178/29 78/179/29 81/180/29
f 81/181/29 80/182/29 79/183/29
f 108/184/30 82/185/30 83/186/30
f 108/187/30 83/188/30 84/189/30
f 108/190/30 84/191/30 85/192/30
f 108/193/30 85/194/30 86/195/30
f 108/196/30 86/197/30 87/198/30
f 108/199/30 87/200/30 88/201/30
f 108/202/30 88/203/30 89/204/30
f 108/205/30 89/206/30 90/207/30
f 108/208/30 90/209/30 91/210/30
f 108/211/30 91/212/30 92/213/30
f 108/214/30 92/215/30 93/216/30
f 108/217/30 93/218/30 94/219/30
f 108/220/30 94/221/30 95/222/30
f 108/223/30 95/224/30 96/225/30
f 108/226/30 96/227/30 97/228/30
f 108/229/30 97/230/30 98/231/30
f 108/232/30 98/233/30 99/234/30
f 108/235/30 99/236/30 100/237/30
f 108/238/30 100/239/30 101/240/30
f 108/241/30 101/242/30 102/243/30
f 108/244/30 102/245/30 103/246/30
f 108/247/30 103/248/30 104/249/30
f 108/250/30 104/251/30 105/252/30
f 108/253/30 105/254/30 106/255/30
f 106/256/30 107/257/30 108/258/30
o end_nosing
usemtl fuel_island
v 0.000625 0.1 -0.008125
v 0.000625 0.1 0.0025
v 0.000625 0.18375 0.0025
v 0.000625 0.18375 0.05625
v 0.000625 0.191875 0.05625
v 0.000625 0.191875 -0.008125
v 0.500266 0.1 -0.008125
v 0.499918 0.1 0.0025
v 0.499918 0.18375 0.0025
v 0.498159 0.18375 0.05625
v 0.498159 0.191875 0.05625
v 0.500266 0.191875 -0.008125
v 0.566326 0.1 -0.003795
v 0.564936 0.1 0.006761
v 0.564936 0.18375 0.006761
v 0.557905 0.18375 0.060166
v 0.557905 0.191875 0.060166
v 0.566326 0.191875 -0.003795
v 0.631517 0.1 0.009172
v 0.628761 0.1 0.019457
v 0.628761 0.18375 0.019457
v 0.61482 0.18375 0.071487
v 0.61482 0.191875 0.071487
v 0.631517 0.191875 0.009172
v 0.694458 0.1 0.030538
v 0.690383 0.1 0.040375
v 0.690383 0.18375 0.040375
v 0.66977 0.18375 0.09014
v 0.66977 0.191875 0.09014
v 0.694458 0.191875 0.030538
v 0.754071 0.1 0.059936
v 0.748747 0.1 0.069157
v 0.748747 0.18375 0.069157
v 0.721815 0.18375 0.115806
v 0.721815 0.191875 0.115806
v 0.754071 0.191875 0.059936
v 0.809338 0.1 0.096864
v 0.802856 0.1 0.105311
v 0.802856 0.18375 0.105311
v 0.770064 0.18375 0.148045
v 0.770064 0.191875 0.148045
v 0.809338 0.191875 0.096864
v 0.859311 0.1 0.140689
v 0.851782 0.1 0.148218
v 0.851782 0.18375 0.148218
v 0.813693 0.18375 0.186307
v 0.813693 0.191875 0.186307
v 0.859311 0.191875 0.140689
v 0.903136 0.1 0.190662
v 0.894689 0.1 0.197144
v 0.894689 0.18375 0.197144
v 0.851955 0.18375 0.229936
v 0.851955 0.191875 0.229936
v 0.903136 0.191875 0.190662
v 0.940064 0.1 0.245929
v 0.930843 0.1 0.251253
v 0.930843 0.18375 0.251253
v 0.884194 0.18375 0.278185
v 0.884194 0.191875 0.278185
v 0.940064 0.191875 0.245929
v 0.969462 0.1 0.305542
v 0.959625 0.1 0.309617
v 0.959625 0.18375 0.309617
v 0.90986 0.18375 0.33023
v 0.90986 0.191875 0.33023
v 0.969462 0.191875 0.305542
v 0.990828 0.1 0.368483
v 0.980543 0.1 0.371239
v 0.980543 0.18375 0.371239
v 0.928513 0.18375 0.38518
v 0.928513 0.191875 0.38518
v 0.990828 0.191875 0.368483
v 1.003795 0.1 0.433674
v 0.993239 0.1 0.435064
v 0.993239 0.18375 0.435064
v 0.939834 0.18375 0.442095
v 0.939834 0.191875 0.442095
v 1.003795 0.191875 0.433674
v 1.008142 0.1 0.5
v 0.997495 0.1 0.5
v 0.997495 0.18375 0.5
v 0.943629 0.18375 0.5
v 0.943629 0.191875 0.5
v 1.008142 0.191875 0.5
v 1.003795 0.1 0.566326
v 0.993239 0.1 0.564936
v 0.993239 0.18375 0.564936
v 0.939834 0.18375 0.557905
v 0.939834 0.191875 0.557905
v 1.003795 0.191875 0.566326
v 0.990828 0.1 0.631517
v 0.980543 0.1 0.628761
v 0.980543 0.18375 0.628761
v 0.928513 0.18375 0.61482
v 0.928513 0.191875 0.61482
v 0.990828 0.191875 0.631517
v 0.969462 0.1 0.694458
v 0.959625 0.1 0.690383
v 0.959625 0.18375 0.690383
v 0.90986 0.18375 0.66977
v 0.90986 0.191875 0.66977
v 0.969462 0.191875 0.694458
v 0.940064 0.1 0.754071
v 0.930843 0.1 0.748747
v 0.930843 0.18375 0.748747
v 0.884194 0.18375 0.721815
v 0.884194 0.191875 0.721815
v 0.940064 0.191875 0.754071
v 0.903136 0.1 0.809338
v 0.894689 0.1 0.802856
v 0.894689 0.18375 0.802856
v 0.851955 0.18375 0.770064
v 0.851955 0.191875 0.770064
v 0.903136 0.191875 0.809338
v 0.859311 0.1 0.859311
v 0.851782 0.1 0.851782
v 0.851782 0.18375 0.851782
v 0.813693 0.18375 0.813693
v 0.813693 0.191875 0.813693
v 0.859311 0.191875 0.859311
v 0.809338 0.1 0.903136
v 0.802856 0.1 0.894689
v 0.802856 0.18375 0.894689
v 0.770064 0.18375 0.851955
v 0.770064 0.191875 0.851955
v 0.809338 0.191875 0.903136
v 0.754071 0.1 0.940064
v 0.748747 0.1 0.930843
v 0.748747 0.18375 0.930843
v 0.721815 0.18375 0.884194
v 0.721815 0.191875 0.884194
v 0.754071 0.191875 0.940064
v 0.694458 0.1 0.969462
v 0.690383 0.1 0.959625
v 0.690383 0.18375 0.959625
v 0.66977 0.18375 0.90986
v 0.66977 0.191875 0.90986
v 0.694458 0.191875 0.969462
v 0.631517 0.1 0.990828
v 0.628761 0.1 0.980543
v 0.628761 0.18375 0.980543
v 0.61482 0.18375 0.928513
v 0.61482 0.191875 0.928513
v 0.631517 0.191875 0.990828
v 0.566326 0.1 1.003795
v 0.564936 0.1 0.993239
v 0.564936 0.18375 0.993239
v 0.557905 0.18375 0.939834
v 0.557905 0.191875 0.939834
v 0.566326 0.191875 1.003795
v 0.500266 0.1 1.008125
v 0.499918 0.1 0.9975
v 0.499918 0.18375 0.9975
v 0.498159 0.18375 0.94375
v 0.498159 0.191875 0.94375
v 0.500266 0.191875 1.008125
v 0.000625 0.1 1.008125
v 0.000625 0.1 0.9975
v 0.000625 0.18375 0.9975
v 0.000625 0.18375 0.94375
v 0.000625 0.191875 0.94375
v 0.000625 0.191875 1.008125
vt 0.002441 0.8746
vt 0.005056 0.874686
vt 0.005056 0.997559
vt 0.002441 0.997559
vt 0.669765 0.26894
vt 0.669765 0.289551
vt 0.548221 0.289551
vt 0.548221 0.26894
vt 0.994835 0.501719
vt 0.994835 0.514946
vt 0.872395 0.514946
vt 0.871962 0.501719
vt 0.940941 0.153762
vt 0.940941 0.155762
vt 0.819824 0.155762
vt 0.819824 0.153762
vt 0.27219 0.872055
vt 0.256348 0.872573
vt 0.256348 0.749615
vt 0.27219 0.749615
vt 0.300133 0.315918
vt 0.300133 0.293308
vt 0.421762 0.293308
vt 0.421762 0.315918
vt 0.003507 0.858343
vt 0.006105 0.858685
vt 0.005056 0.874686
vt 0.002441 0.8746
vt 0.548221 0.26894
vt 0.548221 0.289551
vt 0.532239 0.289551
vt 0.532239 0.26894
vt 0.871962 0.501719
vt 0.872395 0.514946
vt 0.857692 0.51591
vt 0.855962 0.502767
vt 0.955626 0.153762
vt 0.955626 0.155762
vt 0.940941 0.155762
vt 0.940941 0.153762
vt 0.273154 0.886758
vt 0.257413 0.88883
vt 0.256348 0.872573
vt 0.27219 0.872055
vt 0.283895 0.315918
vt 0.283895 0.293308
vt 0.300133 0.293308
vt 0.300133 0.315918
vt 0.006698 0.8423
vt 0.009229 0.842978
vt 0.006105 0.858685
vt 0.003507 0.858343
vt 0.532239 0.26894
vt 0.532239 0.289551
vt 0.516244 0.289551
vt 0.516244 0.26894
vt 0.855962 0.502767
vt 0.857692 0.51591
vt 0.843686 0.518696
vt 0.840255 0.505892
vt 0.96989 0.153762
vt 0.96989 0.155762
vt 0.955626 0.155762
vt 0.955626 0.153762
vt 0.27594 0.900764
vt 0.260604 0.904873
vt 0.257413 0.88883
vt 0.273154 0.886758
vt 0.267558 0.315918
vt 0.267558 0.293308
vt 0.283895 0.293308
vt 0.283895 0.315918
vt 0.011956 0.826811
vt 0.014377 0.827813
vt 0.009229 0.842978
vt 0.006698 0.8423
vt 0.516244 0.26894
vt 0.516244 0.289551
vt 0.500488 0.289551
vt 0.500488 0.26894
vt 0.840255 0.505892
vt 0.843686 0.518696
vt 0.830163 0.523286
vt 0.82509 0.51104
vt 0.983939 0.153762
vt 0.983939 0.155762
vt 0.96989 0.155762
vt 0.96989 0.153762
vt 0.28053 0.914287
vt 0.265862 0.920363
vt 0.260604 0.904873
vt 0.27594 0.900764
vt 0.251465 0.315918
vt 0.251465 0.293308
vt 0.267558 0.293308
vt 0.267558 0.315918
vt 0.019191 0.81214
vt 0.02146 0.81345
vt 0.014377 0.827813
vt 0.011956 0.826811
vt 0.846191 0.289551
vt 0.846191 0.26894
vt 0.862069 0.26894
vt 0.862069 0.289551
vt 0.82509 0.51104
vt 0.830163 0.523286
vt 0.817355 0.529603
vt 0.810727 0.518123
vt 0.414061 0.147903
vt 0.414061 0.149902
vt 0.399902 0.149902
vt 0.399902 0.147903
vt 0.286846 0.927095
vt 0.273097 0.935033
vt 0.265862 0.920363
vt 0.28053 0.914287
vt 0.667096 0.293308
vt 0.667096 0.315918
vt 0.650879 0.315918
vt 0.650879 0.293308
vt 0.028278 0.798539
vt 0.030357 0.800135
vt 0.02146 0.81345
vt 0.019191 0.81214
vt 0.862069 0.289551
vt 0.862069 0.26894
vt 0.878084 0.26894
vt 0.878084 0.289551
vt 0.810727 0.518123
vt 0.817355 0.529603
vt 0.805481 0.537537
vt 0.797411 0.52702
vt 0.428342 0.147903
vt 0.428342 0.149902
vt 0.414061 0.149902
vt 0.414061 0.147903
vt 0.29478 0.938969
vt 0.282185 0.948634
vt 0.273097 0.935033
vt 0.286846 0.927095
vt 0.683454 0.293308
vt 0.683454 0.315918
vt 0.667096 0.315918
vt 0.667096 0.293308
vt 0.039064 0.786241
vt 0.040916 0.788094
vt 0.030357 0.800135
vt 0.028278 0.798539
vt 0.878084 0.289551
vt 0.878084 0.26894
vt 0.893961 0.26894
vt 0.893961 0.289551
vt 0.797411 0.52702
vt 0.805481 0.537537
vt 0.794744 0.546952
vt 0.785371 0.537579
vt 0.4425 0.147903
vt 0.4425 0.149902
vt 0.428342 0.149902
vt 0.428342 0.147903
vt 0.304196 0.949706
vt 0.29297 0.960932
vt 0.282185 0.948634
vt 0.29478 0.938969
vt 0.699671 0.293308
vt 0.699671 0.315918
vt 0.683454 0.315918
vt 0.683454 0.293308
vt 0.051362 0.775456
vt 0.052957 0.777535
vt 0.040916 0.788094
vt 0.039064 0.786241
vt 0.104004 0.265137
vt 0.104004 0.244526
vt 0.119882 0.244526
vt 0.119882 0.265137
vt 0.785371 0.537579
vt 0.794744 0.546952
vt 0.785328 0.557689
vt 0.774812 0.54962
vt 0.276366 0.147903
vt 0.276366 0.149902
vt 0.262207 0.149902
vt 0.262207 0.147903
vt 0.314933 0.959122
vt 0.305268 0.971717
vt 0.29297 0.960932
vt 0.304196 0.949706
vt 0.770612 0.293308
vt 0.770612 0.315918
vt 0.754395 0.315918
vt 0.754395 0.293308
vt 0.064962 0.766368
vt 0.066273 0.768638
vt 0.052957 0.777535
vt 0.051362 0.775456
vt 0.119882 0.265137
vt 0.119882 0.244526
vt 0.135896 0.244526
vt 0.135896 0.265137
vt 0.774812 0.54962
vt 0.785328 0.557689
vt 0.777394 0.569563
vt 0.765914 0.562935
vt 0.290646 0.147903
vt 0.290646 0.149902
vt 0.276366 0.149902
vt 0.276366 0.147903
vt 0.326807 0.967056
vt 0.318869 0.980805
vt 0.305268 0.971717
vt 0.314933 0.959122
vt 0.786969 0.293308
vt 0.786969 0.315918
vt 0.770612 0.315918
vt 0.770612 0.293308
vt 0.079633 0.759134
vt 0.080636 0.761555
vt 0.066273 0.768638
vt 0.064962 0.766368
vt 0.135896 0.265137
vt 0.135896 0.244526
vt 0.151774 0.244526
vt 0.151774 0.265137
vt 0.765914 0.562935
vt 0.777394 0.569563
vt 0.771078 0.582371
vt 0.758831 0.577298
vt 0.304805 0.147903
vt 0.304805 0.149902
vt 0.290646 0.149902
vt 0.290646 0.147903
vt 0.339615 0.973372
vt 0.333539 0.98804
vt 0.318869 0.980805
vt 0.326807 0.967056
vt 0.803187 0.293308
vt 0.803187 0.315918
vt 0.786969 0.315918
vt 0.786969 0.293308
vt 0.095122 0.753876
vt 0.0958 0.756407
vt 0.080636 0.761555
vt 0.079633 0.759134
vt 0.896973 0.289551
vt 0.896973 0.26894
vt 0.91285 0.26894
vt 0.91285 0.289551
vt 0.758831 0.577298
vt 0.771078 0.582371
vt 0.766488 0.595894
vt 0.753683 0.592463
vt 0.184569 0.147903
vt 0.184569 0.149902
vt 0.17041 0.149902
vt 0.17041 0.147903
vt 0.353138 0.977962
vt 0.349029 0.993298
vt 0.333539 0.98804
vt 0.339615 0.973372
vt 0.44444 0.343113
vt 0.44444 0.365723
vt 0.428223 0.365723
vt 0.428223 0.343113
vt 0.111165 0.750685
vt 0.111507 0.753283
vt 0.0958 0.756407
vt 0.095122 0.753876
vt 0.91285 0.289551
vt 0.91285 0.26894
vt 0.928865 0.26894
vt 0.928865 0.289551
vt 0.753683 0.592463
vt 0.766488 0.595894
vt 0.763702 0.6099
vt 0.750559 0.60817
vt 0.198849 0.147903
vt 0.198849 0.149902
vt 0.184569 0.149902
vt 0.184569 0.147903
vt 0.367144 0.980748
vt 0.365072 0.996489
vt 0.349029 0.993298
vt 0.353138 0.977962
vt 0.460798 0.343113
vt 0.460798 0.365723
vt 0.44444 0.365723
vt 0.44444 0.343113
vt 0.127488 0.749615
vt 0.127488 0.752235
vt 0.111507 0.753283
vt 0.111165 0.750685
vt 0.928865 0.289551
vt 0.928865 0.26894
vt 0.944743 0.26894
vt 0.944743 0.289551
vt 0.750559 0.60817
vt 0.763702 0.6099
vt 0.762768 0.62415
vt 0.749512 0.62415
vt 0.213008 0.147903
vt 0.213008 0.149902
vt 0.198849 0.149902
vt 0.198849 0.147903
vt 0.381394 0.981682
vt 0.381394 0.997559
vt 0.365072 0.996489
vt 0.367144 0.980748
vt 0.477015 0.343113
vt 0.477015 0.365723
vt 0.460798 0.365723
vt 0.460798 0.343113
vt 0.14381 0.750685
vt 0.143468 0.753283
vt 0.127488 0.752235
vt 0.127488 0.749615
vt 0.947754 0.289551
vt 0.947754 0.26894
vt 0.963632 0.26894
vt 0.963632 0.289551
vt 0.749512 0.62415
vt 0.762768 0.62415
vt 0.763702 0.638401
vt 0.750559 0.640131
vt 0.230467 0.147903
vt 0.230467 0.149902
vt 0.216309 0.149902
vt 0.216309 0.147903
vt 0.395644 0.980748
vt 0.397716 0.996489
vt 0.381394 0.997559
vt 0.381394 0.981682
vt 0.496198 0.343113
vt 0.496198 0.365723
vt 0.47998 0.365723
vt 0.47998 0.343113
vt 0.159853 0.753876
vt 0.159175 0.756407
vt 0.143468 0.753283
vt 0.14381 0.750685
vt 0.963632 0.289551
vt 0.963632 0.26894
vt 0.979646 0.26894
vt 0.979646 0.289551
vt 0.750559 0.640131
vt 0.763702 0.638401
vt 0.766488 0.652407
vt 0.753683 0.655838
vt 0.244748 0.147903
vt 0.244748 0.149902
vt 0.230467 0.149902
vt 0.230467 0.147903
vt 0.40965 0.977962
vt 0.41376 0.993298
vt 0.397716 0.996489
vt 0.395644 0.980748
vt 0.512555 0.343113
vt 0.512555 0.365723
vt 0.496198 0.365723
vt 0.496198 0.343113
vt 0.175343 0.759134
vt 0.17434 0.761555
vt 0.159175 0.756407
vt 0.159853 0.753876
vt 0.979646 0.289551
vt 0.979646 0.26894
vt 0.995524 0.26894
vt 0.995524 0.289551
vt 0.753683 0.655838
vt 0.766488 0.652407
vt 0.771078 0.66593
vt 0.758831 0.671002
vt 0.258906 0.147903
vt 0.258906 0.149902
vt 0.244748 0.149902
vt 0.244748 0.147903
vt 0.423173 0.973372
vt 0.429249 0.98804
vt 0.41376 0.993298
vt 0.40965 0.977962
vt 0.528773 0.343113
vt 0.528773 0.365723
vt 0.512555 0.365723
vt 0.512555 0.343113
vt 0.190013 0.766368
vt 0.188703 0.768638
vt 0.17434 0.761555
vt 0.175343 0.759134
vt 0.053223 0.265137
vt 0.053223 0.244526
vt 0.0691 0.244526
vt 0.0691 0.265137
vt 0.758831 0.671002
vt 0.771078 0.66593
vt 0.777394 0.678738
vt 0.765914 0.685366
vt 0.322264 0.147903
vt 0.322264 0.149902
vt 0.308105 0.149902
vt 0.308105 0.147903
vt 0.435981 0.967056
vt 0.443919 0.980805
vt 0.429249 0.98804
vt 0.423173 0.973372
vt 0.718854 0.293308
vt 0.718854 0.315918
vt 0.702637 0.315918
vt 0.702637 0.293308
vt 0.203614 0.775456
vt 0.202019 0.777535
vt 0.188703 0.768638
vt 0.190013 0.766368
vt 0.0691 0.265137
vt 0.0691 0.244526
vt 0.085115 0.244526
vt 0.085115 0.265137
vt 0.765914 0.685366
vt 0.777394 0.678738
vt 0.785328 0.690612
vt 0.774812 0.698681
vt 0.336545 0.147903
vt 0.336545 0.149902
vt 0.322264 0.149902
vt 0.322264 0.147903
vt 0.447855 0.959122
vt 0.45752 0.971717
vt 0.443919 0.980805
vt 0.435981 0.967056
vt 0.735212 0.293308
vt 0.735212 0.315918
vt 0.718854 0.315918
vt 0.718854 0.293308
vt 0.215912 0.786241
vt 0.214059 0.788094
vt 0.202019 0.777535
vt 0.203614 0.775456
vt 0.085115 0.265137
vt 0.085115 0.244526
vt 0.100993 0.244526
vt 0.100993 0.265137
vt 0.774812 0.698681
vt 0.785328 0.690612
vt 0.794744 0.701348
vt 0.785371 0.710722
vt 0.350703 0.147903
vt 0.350703 0.149902
vt 0.336545 0.149902
vt 0.336545 0.147903
vt 0.458592 0.949706
vt 0.469818 0.960932
vt 0.45752 0.971717
vt 0.447855 0.959122
vt 0.751429 0.293308
vt 0.751429 0.315918
vt 0.735212 0.315918
vt 0.735212 0.293308
vt 0.226697 0.798539
vt 0.224618 0.800135
vt 0.214059 0.788094
vt 0.215912 0.786241
vt 0.002441 0.265137
vt 0.002441 0.244526
vt 0.018319 0.244526
vt 0.018319 0.265137
vt 0.785371 0.710722
vt 0.794744 0.701348
vt 0.805481 0.710764
vt 0.797411 0.721281
vt 0.368162 0.147903
vt 0.368162 0.149902
vt 0.354004 0.149902
vt 0.354004 0.147903
vt 0.468008 0.938969
vt 0.480603 0.948634
vt 0.469818 0.960932
vt 0.458592 0.949706
vt 0.615339 0.293308
vt 0.615339 0.315918
vt 0.599121 0.315918
vt 0.599121 0.293308
vt 0.235785 0.81214
vt 0.233516 0.81345
vt 0.224618 0.800135
vt 0.226697 0.798539
vt 0.018319 0.265137
vt 0.018319 0.244526
vt 0.034334 0.244526
vt 0.034334 0.265137
vt 0.797411 0.721281
vt 0.805481 0.710764
vt 0.817355 0.718698
vt 0.810727 0.730178
vt 0.382443 0.147903
vt 0.382443 0.149902
vt 0.368162 0.149902
vt 0.368162 0.147903
vt 0.475942 0.927095
vt 0.489691 0.935033
vt 0.480603 0.948634
vt 0.468008 0.938969
vt 0.631696 0.293308
vt 0.631696 0.315918
vt 0.615339 0.315918
vt 0.615339 0.293308
vt 0.24302 0.826811
vt 0.240599 0.827813
vt 0.233516 0.81345
vt 0.235785 0.81214
vt 0.034334 0.265137
vt 0.034334 0.244526
vt 0.050211 0.244526
vt 0.050211 0.265137
vt 0.810727 0.730178
vt 0.817355 0.718698
vt 0.830163 0.725014
vt 0.82509 0.737261
vt 0.396602 0.147903
vt 0.396602 0.149902
vt 0.382443 0.149902
vt 0.382443 0.147903
vt 0.482258 0.914287
vt 0.496926 0.920363
vt 0.489691 0.935033
vt 0.475942 0.927095
vt 0.647913 0.293308
vt 0.647913 0.315918
vt 0.631696 0.315918
vt 0.631696 0.293308
vt 0.248277 0.8423
vt 0.245746 0.842978
vt 0.240599 0.827813
vt 0.24302 0.826811
vt 0.842617 0.26894
vt 0.842617 0.289551
vt 0.826861 0.289551
vt 0.826861 0.26894
vt 0.82509 0.737261
vt 0.830163 0.725014
vt 0.843686 0.729605
vt 0.840255 0.742409
vt 0.016491 0.147903
vt 0.016491 0.149902
vt 0.002441 0.149902
vt 0.002441 0.147903
vt 0.486848 0.900764
vt 0.502184 0.904873
vt 0.496926 0.920363
vt 0.482258 0.914287
vt 0.579497 0.315918
vt 0.579497 0.293308
vt 0.59559 0.293308
vt 0.59559 0.315918
vt 0.251469 0.858343
vt 0.248871 0.858685
vt 0.245746 0.842978
vt 0.248277 0.8423
vt 0.826861 0.26894
vt 0.826861 0.289551
vt 0.810866 0.289551
vt 0.810866 0.26894
vt 0.840255 0.742409
vt 0.843686 0.729605
vt 0.857692 0.732391
vt 0.855962 0.745533
vt 0.030755 0.147903
vt 0.030755 0.149902
vt 0.016491 0.149902
vt 0.016491 0.147903
vt 0.489634 0.886758
vt 0.505375 0.88883
vt 0.502184 0.904873
vt 0.486848 0.900764
vt 0.56316 0.315918
vt 0.56316 0.293308
vt 0.579497 0.293308
vt 0.579497 0.315918
vt 0.252534 0.8746
vt 0.249919 0.874686
vt 0.248871 0.858685
vt 0.251469 0.858343
vt 0.810866 0.26894
vt 0.810866 0.289551
vt 0.794885 0.289551
vt 0.794885 0.26894
vt 0.855962 0.745533
vt 0.857692 0.732391
vt 0.872395 0.733354
vt 0.871962 0.746582
vt 0.04544 0.147903
vt 0.04544 0.149902
vt 0.030755 0.149902
vt 0.030755 0.147903
vt 0.490598 0.872055
vt 0.50644 0.872573
vt 0.505375 0.88883
vt 0.489634 0.886758
vt 0.546922 0.315918
vt 0.546922 0.293308
vt 0.56316 0.293308
vt 0.56316 0.315918
vt 0.252534 0.997559
vt 0.249919 0.997559
vt 0.249919 0.874686
vt 0.252534 0.8746
vt 0.794885 0.26894
vt 0.794885 0.289551
vt 0.67334 0.289551
vt 0.67334 0.26894
vt 0.871962 0.746582
vt 0.872395 0.733354
vt 0.994835 0.733354
vt 0.994835 0.746582
vt 0.166557 0.147903
vt 0.166557 0.149902
vt 0.04544 0.149902
vt 0.04544 0.147903
vt 0.490598 0.749615
vt 0.50644 0.749615
vt 0.50644 0.872573
vt 0.490598 0.872055
vt 0.425293 0.315918
vt 0.425293 0.293308
vt 0.546922 0.293308
vt 0.546922 0.315918
vt 0.803372 0.249294
vt 0.803372 0.251909
vt 0.782761 0.251909
vt 0.780762 0.249294
vt 0.782761 0.251909
vt 0.782761 0.265137
vt 0.780762 0.265137
vt 0.780762 0.249294
vt 0.807129 0.265137
vt 0.809128 0.262522
vt 0.829739 0.262522
vt 0.829739 0.265137
vt 0.807129 0.265137
vt 0.807129 0.249294
vt 0.809128 0.249294
vt 0.809128 0.262522
vn 0 -1 0
vn 0 0 -1
vn 0.007551 0 -0.999971
vn 0 1 0
vn -0.007027 0 0.999975
vn 0 0 1
vn 0.007654 0 -0.999971
vn 0.130485 0 -0.99145
vn -0.129509 0 0.991578
vn 0.130657 0 -0.991428
vn 0.258819 0 -0.965926
vn -0.258819 0 0.965926
vn 0.382683 0 -0.92388
vn -0.382683 0 0.92388
vn 0.5 0 -0.866025
vn -0.5 0 0.866025
vn 0.608761 0 -0.793353
vn -0.608761 0 0.793353
vn 0.707107 0 -0.707107
vn -0.707107 0 0.707107
vn 0.793353 0 -0.608761
vn -0.793353 0 0.608761
vn 0.866025 0 -0.5
vn -0.866025 0 0.5
vn 0.92388 0 -0.382683
vn -0.92388 0 0.382683
vn 0.965926 0 -0.258819
vn -0.965926 0 0.258819
vn 0.991445 0 -0.130526
vn -0.991445 0 0.130526
vn 1 0 0
vn -1 0 0
vn 0.991445 0 0.130526
vn -0.991445 0 -0.130526
vn 0.965926 0 0.258819
vn -0.965926 0 -0.258819
vn 0.92388 0 0.382683
vn -0.92388 0 -0.382683
vn 0.866025 0 0.5
vn -0.866025 0 -0.5
vn 0.793353 0 0.608761
vn -0.793353 0 -0.608761
vn 0.707107 0 0.707107
vn -0.707107 0 -0.707107
vn 0.608761 0 0.793353
vn -0.608761 0 -0.793353
vn 0.5 0 0.866025
vn -0.5 0 -0.866025
vn 0.382683 0 0.92388
vn -0.382683 0 -0.92388
vn 0.258819 0 0.965926
vn -0.258819 0 -0.965926
vn 0.130485 0 0.99145
vn -0.129509 0 -0.991578
vn 0.130657 0 0.991428
vn 0.007551 0 0.999971
vn -0.007027 0 -0.999975
vn 0.007654 0 0.999971
f 115/259/31 116/260/31 110/261/31 109/262/31
f 110/263/32 111/264/32 117/265/33 116/266/33
f 111/267/34 112/268/34 118/269/34 117/270/34
f 118/271/35 119/272/35 113/273/36 112/274/36
f 119/275/34 120/276/34 114/277/34 113/278/34
f 120/279/37 115/280/37 109/281/32 114/282/32
f 121/283/31 122/284/31 116/285/31 115/286/31
f 116/287/33 117/288/33 123/289/38 122/290/38
f 117/291/34 118/292/34 124/293/34 123/294/34
f 124/295/39 125/296/39 119/297/35 118/298/35
f 125/299/34 126/300/34 120/301/34 119/302/34
f 126/303/40 121/304/40 115/305/37 120/306/37
f 127/307/31 128/308/31 122/309/31 121/310/31
f 122/311/38 123/312/38 129/313/41 128/314/41
f 123/315/34 124/316/34 130/317/34 129/318/34
f 130/319/42 131/320/42 125/321/39 124/322/39
f 131/323/34 132/324/34 126/325/34 125/326/34
f 132/327/41 127/328/41 121/329/40 126/330/40
f 133/331/31 134/332/31 128/333/31 127/334/31
f 128/335/41 129/336/41 135/337/43 134/338/43
f 129/339/34 130/340/34 136/341/34 135/342/34
f 136/343/44 137/344/44 131/345/42 130/346/42
f 137/347/34 138/348/34 132/349/34 131/350/34
f 138/351/43 133/352/43 127/353/41 132/354/41
f 139/355/31 140/356/31 134/357/31 133/358/31
f 134/359/43 135/360/43 141/361/45 140/362/45
f 135/363/34 136/364/34 142/365/34 141/366/34
f 142/367/46 143/368/46 137/369/44 136/370/44
f 143/371/34 144/372/34 138/373/34 137/374/34
f 144/375/45 139/376/45 133/377/43 138/378/43
f 145/379/31 146/380/31 140/381/31 139/382/31
f 140/383/45 141/384/45 147/385/47 146/386/47
f 141/387/34 142/388/34 148/389/34 147/390/34
f 148/391/48 149/392/48 143/393/46 142/394/46
f 149/395/34 150/396/34 144/397/34 143/398/34
f 150/399/47 145/400/47 139/401/45 144/402/45
f 151/403/31 152/404/31 146/405/31 145/406/31
f 146/407/47 147/408/47 153/409/49 152/410/49
f 147/411/34 148/412/34 154/413/34 153/414/34
f 154/415/50 155/416/50 149/417/48 148/418/48
f 155/419/34 156/420/34 150/421/34 149/422/34
f 156/423/49 151/424/49 145/425/47 150/426/47
f 157/427/31 158/428/31 152/429/31 151/430/31
f 152/431/49 153/432/49 159/433/51 158/434/51
f 153/435/34 154/436/34 160/437/34 159/438/34
f 160/439/52 161/440/52 155/441/50 154/442/50
f 161/443/34 162/444/34 156/445/34 155/446/34
f 162/447/51 157/448/51 151/449/49 156/450/49
f 163/451/31 164/452/31 158/453/31 157/454/31
f 158/455/51 159/456/51 165/457/53 164/458/53
f 159/459/34 160/460/34 166/461/34 165/462/34
f 166/463/54 167/464/54 161/465/52 160/466/52
f 167/467/34 168/468/34 162/469/34 161/470/34
f 168/471/53 163/472/53 157/473/51 162/474/51
f 169/475/31 170/476/31 164/477/31 163/478/31
f 164/479/53 165/480/53 171/481/55 170/482/55
f 165/483/34 166/484/34 172/485/34 171/486/34
f 172/487/56 173/488/56 167/489/54 166/490/54
f 173/491/34 174/492/34 168/493/34 167/494/34
f 174/495/55 169/496/55 163/497/53 168/498/53
f 175/499/31 176/500/31 170/501/31 169/502/31
f 170/503/55 171/504/55 177/505/57 176/506/57
f 171/507/34 172/508/34 178/509/34 177/510/34
f 178/511/58 179/512/58 173/513/56 172/514/56
f 179/515/34 180/516/34 174/517/34 173/518/34
f 180/519/57 175/520/57 169/521/55 174/522/55
f 181/523/31 182/524/31 176/525/31 175/526/31
f 176/527/57 177/528/57 183/529/59 182/530/59
f 177/531/34 178/532/34 184/533/34 183/534/34
f 184/535/60 185/536/60 179/537/58 178/538/58
f 185/539/34 186/540/34 180/541/34 179/542/34
f 186/543/59 181/544/59 175/545/57 180/546/57
f 187/547/31 188/548/31 182/549/31 181/550/31
f 182/551/59 183/552/59 189/553/61 188/554/61
f 183/555/34 184/556/34 190/557/34 189/558/34
f 190/559/62 191/560/62 185/561/60 184/562/60
f 191/563/34 192/564/34 186/565/34 185/566/34
f 192/567/61 187/568/61 181/569/59 186/570/59
f 193/571/31 194/572/31 188/573/31 187/574/31
f 188/575/61 189/576/61 195/577/63 194/578/63
f 189/579/34 190/580/34 196/581/34 195/582/34
f 196/583/64 197/584/64 191/585/62 190/586/62
f 197/587/34 198/588/34 192/589/34 191/590/34
f 198/591/63 193/592/63 187/593/61 192/594/61
f 199/595/31 200/596/31 194/597/31 193/598/31
f 194/599/63 195/600/63 201/601/65 200/602/65
f 195/603/34 196/604/34 202/605/34 201/606/34
f 202/607/66 203/608/66 197/609/64 196/610/64
f 203/611/34 204/612/34 198/613/34 197/614/34
f 204/615/65 199/616/65 193/617/63 198/618/63
f 205/619/31 206/620/31 200/621/31 199/622/31
f 200/623/65 201/624/65 207/625/67 206/626/67
f 201/627/34 202/628/34 208/629/34 207/630/34
f 208/631/68 209/632/68 203/633/66 202/634/66
f 209/635/34 210/636/34 204/637/34 203/638/34
f 210/639/67 205/640/67 199/641/65 204/642/65
f 211/643/31 212/644/31 206/645/31 205/646/31
f 206/647/67 207/648/67 213/649/69 212/650/69
f 207/651/34 208/652/34 214/653/34 213/654/34
f 214/655/70 215/656/70 209/657/68 208/658/68
f 215/659/34 216/660/34 210/661/34 209/662/34
f 216/663/69 211/664/69 205/665/67 210/666/67
f 217/667/31 218/668/31 212/669/31 211/670/31
f 212/671/69 213/672/69 219/673/71 218/674/71
f 213/675/34 214/676/34 220/677/34 219/678/34
f 220/679/72 221/680/72 215/681/70 214/682/70
f 221/683/34 222/684/34 216/685/34 215/686/34
f 222/687/71 217/688/71 211/689/69 216/690/69
f 223/691/31 224/692/31 218/693/31 217/694/31
f 218/695/71 219/696/71 225/697/73 224/698/73
f 219/699/34 220/700/34 226/701/34 225/702/34
f 226/703/74 227/704/74 221/705/72 220/706/72
f 227/707/34 228/708/34 222/709/34 221/710/34
f 228/711/73 223/712/73 217/713/71 222/714/71
f 229/715/31 230/716/31 224/717/31 223/718/31
f 224/719/73 225/720/73 231/721/75 230/722/75
f 225/723/34 226/724/34 232/725/34 231/726/34
f 232/727/76 233/728/76 227/729/74 226/730/74
f 233/731/34 234/732/34 228/733/34 227/734/34
f 234/735/75 229/736/75 223/737/73 228/738/73
f 235/739/31 236/740/31 230/741/31 229/742/31
f 230/743/75 231/744/75 237/745/77 236/746/77
f 231/747/34 232/748/34 238/749/34 237/750/34
f 238/751/78 239/752/78 233/753/76 232/754/76
f 239/755/34 240/756/34 234/757/34 233/758/34
f 240/759/77 235/760/77 229/761/75 234/762/75
f 241/763/31 242/764/31 236/765/31 235/766/31
f 236/767/77 237/768/77 243/769/79 242/770/79
f 237/771/34 238/772/34 244/773/34 243/774/34
f 244/775/80 245/776/80 239/777/78 238/778/78
f 245/779/34 246/780/34 240/781/34 239/782/34
f 246/783/79 241/784/79 235/785/77 240/786/77
f 247/787/31 248/788/31 242/789/31 241/790/31
f 242/791/79 243/792/79 249/793/81 248/794/81
f 243/795/34 244/796/34 250/797/34 249/798/34
f 250/799/82 251/800/82 245/801/80 244/802/80
f 251/803/34 252/804/34 246/805/34 245/806/34
f 252/807/81 247/808/81 241/809/79 246/810/79
f 253/811/31 254/812/31 248/813/31 247/814/31
f 248/815/81 249/816/81 255/817/83 254/818/83
f 249/819/34 250/820/34 256/821/34 255/822/34
f 256/823/84 257/824/84 251/825/82 250/826/82
f 257/827/34 258/828/34 252/829/34 251/830/34
f 258/831/85 253/832/85 247/833/81 252/834/81
f 259/835/31 260/836/31 254/837/31 253/838/31
f 254/839/83 255/840/83 261/841/86 260/842/86
f 255/843/34 256/844/34 262/845/34 261/846/34
f 262/847/87 263/848/87 257/849/84 256/850/84
f 263/851/34 264/852/34 258/853/34 257/854/34
f 264/855/88 259/856/88 253/857/85 258/858/85
f 265/859/31 266/860/31 260/861/31 259/862/31
f 260/863/86 261/864/86 267/865/36 266/866/36
f 261/867/34 262/868/34 268/869/34 267/870/34
f 268/871/32 269/872/32 263/873/87 262/874/87
f 269/875/34 270/876/34 264/877/34 263/878/34
f 270/879/36 265/880/36 259/881/88 264/882/88
f 109/883/62 110/884/62 111/885/62 114/886/62
f 111/887/62 112/888/62 113/889/62 114/890/62
f 270/891/62 267/892/62 266/893/62 265/894/62
f 270/895/62 269/896/62 268/897/62 267/898/62
