# AFL Fuel Island V1 straight, generated by tools/build-fuel-island-v1.mjs
mtllib straight.mtl
o straight_curb
usemtl fuel_island
v 0 0 1
v 1 0 1
v 1 0 0
v 0 0 0
v 0 0.1875 1
v 1 0.1875 1
v 1 0.1875 0
v 0 0.1875 0
v 0 0 1
v 1 0 1
v 1 0 0
v 0 0 0
v 0 0.1875 1
v 1 0.1875 1
v 1 0.1875 0
v 0 0.1875 0
vt 0.312988 0.451416
vt 0.559082 0.451416
vt 0.559082 0.497559
vt 0.312988 0.497559
vt 0.808105 0.497559
vt 0.562012 0.497559
vt 0.562012 0.451416
vt 0.808105 0.451416
vt 0.002441 0.369385
vt 0.248535 0.369385
vt 0.248535 0.415527
vt 0.002441 0.415527
vt 0.251465 0.369385
vt 0.497559 0.369385
vt 0.497559 0.415527
vt 0.251465 0.415527
vt 0.756348 0.751465
vt 0.756348 0.997559
vt 0.510254 0.997559
vt 0.510254 0.997559
vt 0.510254 0.751465
vt 0.756348 0.751465
vt 0.002441 0.500488
vt 0.248535 0.500488
vt 0.248535 0.746582
vt 0.248535 0.746582
vt 0.002441 0.746582
vt 0.002441 0.500488
vn 0 0 1
vn 1 0 0
vn 0 0 -1
vn -1 0 0
vn 0 -1 0
vn 0 1 0
f 1/1/1 2/2/1 6/3/1 5/4/1
f 2/5/2 3/6/2 7/7/2 6/8/2
f 3/9/3 4/10/3 8/11/3 7/12/3
f 4/13/4 1/14/4 5/15/4 8/16/4
f 10/17/5 9/18/5 12/19/5
f 12/20/5 11/21/5 10/22/5
f 16/23/6 13/24/6 14/25/6
f 14/26/6 15/27/6 16/28/6
o straight_nosing
usemtl fuel_island
v 0.000625 0.1 -0.008125
v 0.000625 0.1 0.0025
v 0.000625 0.18375 0.0025
v 0.000625 0.18375 0.05625
v 0.000625 0.191875 0.05625
v 0.000625 0.191875 -0.008125
v 0.999375 0.1 -0.008125
v 0.999375 0.1 0.0025
v 0.999375 0.18375 0.0025
v 0.999375 0.18375 0.05625
v 0.999375 0.191875 0.05625
v 0.999375 0.191875 -0.008125
v 0.000625 0.1 -0.008125
v 0.000625 0.1 0.0025
v 0.000625 0.18375 0.0025
v 0.000625 0.18375 0.05625
v 0.000625 0.191875 0.05625
v 0.000625 0.191875 -0.008125
v 0.999375 0.1 -0.008125
v 0.999375 0.1 0.0025
v 0.999375 0.18375 0.0025
v 0.999375 0.18375 0.05625
v 0.999375 0.191875 0.05625
v 0.999375 0.191875 -0.008125
v 0.000625 0.191875 1.008125
v 0.000625 0.191875 0.94375
v 0.000625 0.18375 0.94375
v 0.000625 0.18375 0.9975
v 0.000625 0.1 0.9975
v 0.000625 0.1 1.008125
v 0.999375 0.191875 1.008125
v 0.999375 0.191875 0.94375
v 0.999375 0.18375 0.94375
v 0.999375 0.18375 0.9975
v 0.999375 0.1 0.9975
v 0.999375 0.1 1.008125
v 0.000625 0.191875 1.008125
v 0.000625 0.191875 0.94375
v 0.000625 0.18375 0.94375
v 0.000625 0.18375 0.9975
v 0.000625 0.1 0.9975
v 0.000625 0.1 1.008125
v 0.999375 0.191875 1.008125
v 0.999375 0.191875 0.94375
v 0.999375 0.18375 0.94375
v 0.999375 0.18375 0.9975
v 0.999375 0.1 0.9975
v 0.999375 0.1 1.008125
vt 0.889829 0.161936
vt 0.889829 0.164551
vt 0.644043 0.164551
vt 0.644043 0.161936
vt 0.248228 0.26894
vt 0.248228 0.289551
vt 0.002441 0.289551
vt 0.002441 0.26894
vt 0.248228 0.227495
vt 0.248228 0.240723
vt 0.002441 0.240723
vt 0.002441 0.227495
vt 0.567563 0.153762
vt 0.567563 0.155762
vt 0.321777 0.155762
vt 0.321777 0.153762
vt 0.22998 0.265137
vt 0.22998 0.249294
vt 0.475767 0.249294
vt 0.475767 0.265137
vt 0.531738 0.365723
vt 0.531738 0.343113
vt 0.777524 0.343113
vt 0.777524 0.365723
vt 0.833496 0.249294
vt 0.856106 0.249294
vt 0.856106 0.251909
vt 0.833496 0.249294
vt 0.856106 0.251909
vt 0.835496 0.251909
vt 0.833496 0.249294
vt 0.835496 0.251909
vt 0.835496 0.265137
vt 0.835496 0.265137
vt 0.833496 0.265137
vt 0.833496 0.249294
vt 0.859863 0.251909
vt 0.859863 0.249294
vt 0.882473 0.249294
vt 0.880474 0.251909
vt 0.859863 0.251909
vt 0.882473 0.249294
vt 0.880474 0.265137
vt 0.880474 0.251909
vt 0.882473 0.249294
vt 0.882473 0.249294
vt 0.882473 0.265137
vt 0.880474 0.265137
vt 0.479004 0.265137
vt 0.479004 0.249294
vt 0.72479 0.249294
vt 0.72479 0.265137
vt 0.570801 0.155762
vt 0.570801 0.153762
vt 0.816587 0.153762
vt 0.816587 0.155762
vt 0.497251 0.227495
vt 0.497251 0.240723
vt 0.251465 0.240723
vt 0.251465 0.227495
vt 0.251465 0.289551
vt 0.251465 0.26894
vt 0.497251 0.26894
vt 0.497251 0.289551
vt 0.248228 0.153147
vt 0.248228 0.155762
vt 0.002441 0.155762
vt 0.002441 0.153147
vt 0.248228 0.293308
vt 0.248228 0.315918
vt 0.002441 0.315918
vt 0.002441 0.293308
vt 0.728027 0.265137
vt 0.728027 0.249294
vt 0.730027 0.249294
vt 0.728027 0.265137
vt 0.730027 0.249294
vt 0.730027 0.262522
vt 0.750637 0.265137
vt 0.728027 0.265137
vt 0.730027 0.262522
vt 0.730027 0.262522
vt 0.750637 0.262522
vt 0.750637 0.265137
vt 0.775005 0.249294
vt 0.777004 0.249294
vt 0.777004 0.265137
vt 0.775005 0.262522
vt 0.775005 0.249294
vt 0.777004 0.265137
vt 0.775005 0.262522
vt 0.777004 0.265137
vt 0.754395 0.265137
vt 0.754395 0.265137
vt 0.754395 0.262522
vt 0.775005 0.262522
vn 0 -1 0
vn 0 0 1
vn 0 1 0
vn 0 0 -1
vn -1 0 0
vn 1 0 0
f 23/29/7 24/30/7 18/31/7 17/32/7
f 24/33/8 25/34/8 19/35/8 18/36/8
f 25/37/7 26/38/7 20/39/7 19/40/7
f 26/41/8 27/42/8 21/43/8 20/44/8
f 27/45/9 28/46/9 22/47/9 21/48/9
f 28/49/10 23/50/10 17/51/10 22/52/10
f 34/53/11 29/54/11 30/55/11
f 34/56/11 30/57/11 31/58/11
f 34/59/11 31/60/11 32/61/11
f 32/62/11 33/63/11 34/64/11
f 36/65/12 35/66/12 40/67/12
f 37/68/12 36/69/12 40/70/12
f 38/71/12 37/72/12 40/73/12
f 40/74/12 39/75/12 38/76/12
f 47/77/9 48/78/9 42/79/9 41/80/9
f 48/81/10 49/82/10 43/83/10 42/84/10
f 49/85/7 50/86/7 44/87/7 43/88/7
f 50/89/10 51/90/10 45/91/10 44/92/10
f 51/93/7 52/94/7 46/95/7 45/96/7
f 52/97/8 47/98/8 41/99/8 46/100/8
f 53/101/11 54/102/11 55/103/11
f 53/104/11 55/105/11 56/106/11
f 58/107/11 53/108/11 56/109/11
f 56/110/11 57/111/11 58/112/11
f 61/113/12 60/114/12 59/115/12
f 62/116/12 61/117/12 59/118/12
f 62/119/12 59/120/12 64/121/12
f 64/122/12 63/123/12 62/124/12
