# AFL Fuel Dispenser V1 diesel nozzle (held), generated by tools/build-fuel-dispenser-v1.mjs
mtllib held_diesel.mtl
o item_diesel_handle
usemtl fuel_dispenser
v 0.52625 0.482781 0.67
v 0.52625 0.486089 0.565238
v 0.52625 0.501781 0.55652
v 0.52625 0.543905 0.561476
v 0.52625 0.538335 0.656165
v 0.52625 0.524501 0.67
v 0.5175 0.47375 0.67875
v 0.5175 0.4775 0.56
v 0.5175 0.5 0.5475
v 0.5175 0.553125 0.55375
v 0.5175 0.546875 0.66
v 0.5175 0.528125 0.67875
v 0.4825 0.47375 0.67875
v 0.4825 0.4775 0.56
v 0.4825 0.5 0.5475
v 0.4825 0.553125 0.55375
v 0.4825 0.546875 0.66
v 0.4825 0.528125 0.67875
v 0.47375 0.482781 0.67
v 0.47375 0.486089 0.565238
v 0.47375 0.501781 0.55652
v 0.47375 0.543905 0.561476
v 0.47375 0.538335 0.656165
v 0.47375 0.524501 0.67
v 0.52625 0.482781 0.67
v 0.52625 0.486089 0.565238
v 0.52625 0.501781 0.55652
v 0.52625 0.543905 0.561476
v 0.52625 0.538335 0.656165
v 0.52625 0.524501 0.67
v 0.47375 0.482781 0.67
v 0.47375 0.486089 0.565238
v 0.47375 0.501781 0.55652
v 0.47375 0.543905 0.561476
v 0.47375 0.538335 0.656165
v 0.47375 0.524501 0.67
vt 0.246338 0.063008
vt 0.259793 0.063308
vt 0.2592 0.064697
vt 0.247329 0.064432
vt 0.268776 0.071197
vt 0.266484 0.072998
vt 0.265869 0.071698
vt 0.267468 0.070442
vt 0.073604 0.068604
vt 0.067627 0.067609
vt 0.068779 0.06638
vt 0.073519 0.067168
vt 0.638267 0.068604
vt 0.626221 0.068102
vt 0.626655 0.066718
vt 0.637391 0.067164
vt 0.055431 0.090576
vt 0.052979 0.088842
vt 0.054123 0.087934
vt 0.055933 0.089214
vt 0.766357 0.056948
vt 0.772517 0.056948
vt 0.771494 0.05835
vt 0.766768 0.05835
vt 0.038818 0.107119
vt 0.052277 0.107119
vt 0.052277 0.111084
vt 0.038818 0.111084
vt 0.457334 0.096938
vt 0.457334 0.099854
vt 0.453369 0.099854
vt 0.453369 0.096938
vt 0.104736 0.107119
vt 0.110796 0.107119
vt 0.110796 0.111084
vt 0.104736 0.111084
vt 0.095309 0.111084
vt 0.083252 0.111084
vt 0.083252 0.107119
vt 0.095309 0.107119
vt 0.388916 0.099854
vt 0.388916 0.09685
vt 0.392881 0.09685
vt 0.392881 0.099854
vt 0.067927 0.111084
vt 0.061768 0.111084
vt 0.061768 0.107119
vt 0.067927 0.107119
vt 0.262466 0.063273
vt 0.274337 0.063008
vt 0.27493 0.064397
vt 0.261475 0.064697
vt 0.275966 0.070442
vt 0.277566 0.071698
vt 0.276951 0.072998
vt 0.274658 0.071197
vt 0.083337 0.067168
vt 0.088077 0.06638
vt 0.089229 0.067609
vt 0.083252 0.068604
vt 0.610048 0.068157
vt 0.599312 0.068604
vt 0.598877 0.067219
vt 0.610923 0.066718
vt 0.065698 0.089297
vt 0.063889 0.090576
vt 0.062744 0.089669
vt 0.065197 0.087934
vt 0.779919 0.05835
vt 0.775193 0.05835
vt 0.77417 0.056948
vt 0.78033 0.056948
vt 0.242432 0.144042
vt 0.242432 0.139316
vt 0.254299 0.139691
vt 0.242432 0.144042
vt 0.254299 0.139691
vt 0.255287 0.141468
vt 0.242432 0.144042
vt 0.255287 0.141468
vt 0.254725 0.14624
vt 0.254725 0.14624
vt 0.243999 0.145609
vt 0.242432 0.144042
vt 0.268948 0.145865
vt 0.25708 0.14624
vt 0.25708 0.141514
vt 0.269935 0.144088
vt 0.268948 0.145865
vt 0.25708 0.141514
vt 0.269374 0.139316
vt 0.269935 0.144088
vt 0.25708 0.141514
vt 0.25708 0.141514
vt 0.258647 0.139947
vt 0.269374 0.139316
vn 0.707107 -0.706754 -0.022319
vn 0.707107 -0.343401 -0.618123
vn 0.721894 -0.051777 -0.690064
vn 0.707107 0.082619 -0.702264
vn 0.707107 0.705887 0.041523
vn 0.721046 0.680691 0.129434
vn 0.730945 0.167522 0.661555
vn 0.707107 0 0.707107
vn 0 -0.999502 -0.031563
vn 0 -0.485643 -0.874157
vn 0 -0.082364 -0.996602
vn 0 0.116841 -0.993151
vn 0 0.998274 0.058722
vn 0 0.707107 0.707107
vn 0 0 1
vn -0.707107 -0.706754 -0.022319
vn -0.707107 -0.343401 -0.618123
vn -0.721894 -0.051777 -0.690064
vn -0.707107 0.082619 -0.702264
vn -0.707107 0.705887 0.041523
vn -0.721046 0.680691 0.129434
vn -0.730945 0.167522 0.661555
vn -0.707107 0 0.707107
vn 1 0 0
vn -1 0 0
f 7/1/1 8/2/1 2/3/1 1/4/1
f 8/5/2 9/6/3 3/7/3 2/8/2
f 9/9/3 10/10/4 4/11/4 3/12/3
f 10/13/5 11/14/6 5/15/6 4/16/5
f 11/17/6 12/18/7 6/19/7 5/20/6
f 12/21/7 7/22/8 1/23/8 6/24/7
f 13/25/9 14/26/9 8/27/9 7/28/9
f 14/29/10 15/30/11 9/31/11 8/32/10
f 15/33/11 16/34/12 10/35/12 9/36/11
f 16/37/13 17/38/13 11/39/13 10/40/13
f 17/41/14 18/42/14 12/43/14 11/44/14
f 18/45/15 13/46/15 7/47/15 12/48/15
f 19/49/16 20/50/16 14/51/16 13/52/16
f 20/53/17 21/54/18 15/55/18 14/56/17
f 21/57/18 22/58/19 16/59/19 15/60/18
f 22/61/20 23/62/21 17/63/21 16/64/20
f 23/65/21 24/66/22 18/67/22 17/68/21
f 24/69/22 19/70/23 13/71/23 18/72/22
f 30/73/24 25/74/24 26/75/24
f 30/76/24 26/77/24 27/78/24
f 30/79/24 27/80/24 28/81/24
f 28/82/24 29/83/24 30/84/24
f 32/85/25 31/86/25 36/87/25
f 33/88/25 32/89/25 36/90/25
f 34/91/25 33/92/25 36/93/25
f 36/94/25 35/95/25 34/96/25
o item_diesel_cover
usemtl fuel_dispenser
v 0.5375 0.476689 0.562118
v 0.5375 0.47864 0.501172
v 0.5375 0.492438 0.475546
v 0.5375 0.521182 0.4622
v 0.5375 0.552539 0.459065
v 0.5375 0.573218 0.468955
v 0.5375 0.583385 0.492062
v 0.5375 0.577921 0.535772
v 0.5375 0.563076 0.563607
v 0.52375 0.4625 0.575625
v 0.52375 0.465 0.4975
v 0.52375 0.4825 0.465
v 0.52375 0.5175 0.44875
v 0.52375 0.555 0.445
v 0.52375 0.58375 0.45875
v 0.52375 0.5975 0.49
v 0.52375 0.59125 0.54
v 0.52375 0.57125 0.5775
v 0.47625 0.4625 0.575625
v 0.47625 0.465 0.4975
v 0.47625 0.4825 0.465
v 0.47625 0.5175 0.44875
v 0.47625 0.555 0.445
v 0.47625 0.58375 0.45875
v 0.47625 0.5975 0.49
v 0.47625 0.59125 0.54
v 0.47625 0.57125 0.5775
v 0.4625 0.476689 0.562118
v 0.4625 0.47864 0.501172
v 0.4625 0.492438 0.475546
v 0.4625 0.521182 0.4622
v 0.4625 0.552539 0.459065
v 0.4625 0.573218 0.468955
v 0.4625 0.583385 0.492062
v 0.4625 0.577921 0.535772
v 0.4625 0.563076 0.563607
v 0.5375 0.476689 0.562118
v 0.5375 0.47864 0.501172
v 0.5375 0.492438 0.475546
v 0.5375 0.521182 0.4622
v 0.5375 0.552539 0.459065
v 0.5375 0.573218 0.468955
v 0.5375 0.583385 0.492062
v 0.5375 0.577921 0.535772
v 0.5375 0.563076 0.563607
v 0.4625 0.476689 0.562118
v 0.4625 0.47864 0.501172
v 0.4625 0.492438 0.475546
v 0.4625 0.521182 0.4622
v 0.4625 0.552539 0.459065
v 0.4625 0.573218 0.468955
v 0.4625 0.583385 0.492062
v 0.4625 0.577921 0.535772
v 0.4625 0.563076 0.563607
vt 0.872803 0.070604
vt 0.881655 0.070804
vt 0.881239 0.072998
vt 0.874333 0.072842
vt 0.77217 0.101862
vt 0.776078 0.10335
vt 0.77481 0.105225
vt 0.771729 0.104051
vt 0.545912 0.126571
vt 0.542075 0.128601
vt 0.541279 0.126531
vt 0.544431 0.124863
vt 0.542075 0.128601
vt 0.537964 0.129639
vt 0.537842 0.127398
vt 0.541279 0.126531
vt 0.418274 0.105225
vt 0.415283 0.103202
vt 0.416996 0.101701
vt 0.419147 0.103156
vt 0.279571 0.098705
vt 0.275878 0.099854
vt 0.275635 0.097622
vt 0.278366 0.096773
vt 0.935618 0.094971
vt 0.929932 0.094468
vt 0.930412 0.092299
vt 0.935383 0.092739
vt 0.661975 0.105225
vt 0.657471 0.103526
vt 0.65914 0.101801
vt 0.662483 0.103062
vt 0.447998 0.070534
vt 0.460316 0.070834
vt 0.458682 0.072998
vt 0.448897 0.072759
vt 0.595459 0.13207
vt 0.604314 0.13207
vt 0.604314 0.137451
vt 0.595459 0.137451
vt 0.727793 0.112762
vt 0.727793 0.116943
vt 0.722412 0.116943
vt 0.722412 0.112762
vt 0.773203 0.125267
vt 0.773203 0.129639
vt 0.767822 0.129639
vt 0.767822 0.125267
vt 0.039316 0.118534
vt 0.039316 0.122803
vt 0.033936 0.122803
vt 0.033936 0.118534
vt 0.313232 0.105225
vt 0.313232 0.101614
vt 0.318613 0.101614
vt 0.318613 0.105225
vt 0.932373 0.111084
vt 0.932373 0.107216
vt 0.937754 0.107216
vt 0.937754 0.111084
vt 0.619234 0.137451
vt 0.613525 0.137451
vt 0.613525 0.13207
vt 0.619234 0.13207
vt 0.243408 0.129639
vt 0.243408 0.124824
vt 0.248789 0.124824
vt 0.248789 0.129639
vt 0.647331 0.137451
vt 0.63501 0.137451
vt 0.63501 0.13207
vt 0.647331 0.13207
vt 0.885075 0.07076
vt 0.891981 0.070604
vt 0.892397 0.072798
vt 0.883545 0.072998
vt 0.777588 0.103036
vt 0.780669 0.101862
vt 0.781937 0.103737
vt 0.778029 0.105225
vt 0.549089 0.124863
vt 0.55224 0.126531
vt 0.551444 0.128601
vt 0.547607 0.126571
vt 0.55224 0.126531
vt 0.555678 0.127398
vt 0.555555 0.129639
vt 0.551444 0.128601
vt 0.420654 0.103156
vt 0.422805 0.101701
vt 0.424518 0.103202
vt 0.421527 0.105225
vt 0.266647 0.099854
vt 0.263916 0.099004
vt 0.26416 0.096773
vt 0.267853 0.097922
vt 0.942707 0.094531
vt 0.937737 0.094971
vt 0.937256 0.092802
vt 0.942942 0.092299
vt 0.676155 0.103964
vt 0.672811 0.105225
vt 0.671143 0.1035
vt 0.675647 0.101801
vt 0.473577 0.072759
vt 0.463792 0.072998
vt 0.462158 0.070834
vt 0.474476 0.070534
vt 0.761334 0.234495
vt 0.77112 0.234664
vt 0.770899 0.241568
vt 0.761334 0.234495
vt 0.770899 0.241568
vt 0.769336 0.244471
vt 0.761334 0.234495
vt 0.769336 0.244471
vt 0.76608 0.245983
vt 0.761334 0.234495
vt 0.76608 0.245983
vt 0.762527 0.246338
vt 0.761334 0.234495
vt 0.762527 0.246338
vt 0.760185 0.245218
vt 0.761334 0.234495
vt 0.760185 0.245218
vt 0.759033 0.2426
vt 0.759033 0.2426
vt 0.759652 0.237648
vt 0.761334 0.234495
vt 0.772926 0.241568
vt 0.772705 0.234664
vt 0.782491 0.234495
vt 0.774489 0.244471
vt 0.772926 0.241568
vt 0.782491 0.234495
vt 0.777745 0.245983
vt 0.774489 0.244471
vt 0.782491 0.234495
vt 0.781297 0.246338
vt 0.777745 0.245983
vt 0.782491 0.234495
vt 0.78364 0.245218
vt 0.781297 0.246338
vt 0.782491 0.234495
vt 0.784792 0.2426
vt 0.78364 0.245218
vt 0.782491 0.234495
vt 0.782491 0.234495
vt 0.784173 0.237648
vt 0.784792 0.2426
vn 0.707107 -0.706745 -0.022616
vn 0.715336 -0.687574 -0.124647
vn 0.725382 -0.466863 -0.505825
vn 0.712072 -0.186242 -0.676955
vn 0.720125 0.097305 -0.686988
vn 0.729458 0.49831 -0.468593
vn 0.719289 0.692363 -0.057064
vn 0.712934 0.672987 0.197011
vn 0.707107 0.623918 0.332756
vn 0.707107 -0.01219 0.707002
vn 0 -0.999488 -0.031984
vn 0 -0.984047 -0.177907
vn 0 -0.880471 -0.4741
vn 0 -0.421111 -0.907009
vn 0 -0.265929 -0.963993
vn 0 0.149253 -0.988799
vn 0 0.431455 -0.902134
vn 0 0.915315 -0.402739
vn 0 0.995767 -0.091917
vn 0 0.957826 0.287348
vn 0 0.882353 0.470588
vn 0 -0.017239 0.999851
vn -0.707107 -0.706745 -0.022616
vn -0.715336 -0.687574 -0.124647
vn -0.725382 -0.466863 -0.505825
vn -0.712072 -0.186242 -0.676955
vn -0.720125 0.097305 -0.686988
vn -0.729458 0.49831 -0.468593
vn -0.719289 0.692363 -0.057064
vn -0.712934 0.672987 0.197011
vn -0.707107 0.623918 0.332756
vn -0.707107 -0.01219 0.707002
vn 1 0 0
vn -1 0 0
f 46/97/26 47/98/27 38/99/27 37/100/26
f 47/101/27 48/102/28 39/103/28 38/104/27
f 48/105/28 49/106/29 40/107/29 39/108/28
f 49/109/29 50/110/30 41/111/30 40/112/29
f 50/113/30 51/114/31 42/115/31 41/116/30
f 51/117/31 52/118/32 43/119/32 42/120/31
f 52/121/32 53/122/33 44/123/33 43/124/32
f 53/125/33 54/126/34 45/127/34 44/128/33
f 54/129/35 46/130/35 37/131/35 45/132/35
f 55/133/36 56/134/37 47/135/37 46/136/36
f 56/137/37 57/138/38 48/139/38 47/140/37
f 57/141/39 58/142/40 49/143/40 48/144/39
f 58/145/40 59/146/41 50/147/41 49/148/40
f 59/149/41 60/150/42 51/151/42 50/152/41
f 60/153/43 61/154/44 52/155/44 51/156/43
f 61/157/44 62/158/45 53/159/45 52/160/44
f 62/161/45 63/162/46 54/163/46 53/164/45
f 63/165/47 55/166/47 46/167/47 54/168/47
f 64/169/48 65/170/49 56/171/49 55/172/48
f 65/173/49 66/174/50 57/175/50 56/176/49
f 66/177/50 67/178/51 58/179/51 57/180/50
f 67/181/51 68/182/52 59/183/52 58/184/51
f 68/185/52 69/186/53 60/187/53 59/188/52
f 69/189/53 70/190/54 61/191/54 60/192/53
f 70/193/54 71/194/55 62/195/55 61/196/54
f 71/197/55 72/198/56 63/199/56 62/200/55
f 72/201/57 64/202/57 55/203/57 63/204/57
f 81/205/58 73/206/58 74/207/58
f 81/208/58 74/209/58 75/210/58
f 81/211/58 75/212/58 76/213/58
f 81/214/58 76/215/58 77/216/58
f 81/217/58 77/218/58 78/219/58
f 81/220/58 78/221/58 79/222/58
f 79/223/58 80/224/58 81/225/58
f 83/226/59 82/227/59 90/228/59
f 84/229/59 83/230/59 90/231/59
f 85/232/59 84/233/59 90/234/59
f 86/235/59 85/236/59 90/237/59
f 87/238/59 86/239/59 90/240/59
f 88/241/59 87/242/59 90/243/59
f 90/244/59 89/245/59 88/246/59
o item_diesel_guard
usemtl fuel_dispenser
v 0.51875 0.44 0.64125
v 0.51875 0.46 0.563125
v 0.51875 0.475 0.55875
v 0.51875 0.455 0.644375
v 0.48125 0.44 0.64125
v 0.48125 0.46 0.563125
v 0.48125 0.475 0.55875
v 0.48125 0.455 0.644375
v 0.51875 0.44 0.64125
v 0.51875 0.46 0.563125
v 0.51875 0.475 0.55875
v 0.51875 0.455 0.644375
v 0.48125 0.44 0.64125
v 0.48125 0.46 0.563125
v 0.48125 0.475 0.55875
v 0.48125 0.455 0.644375
v 0.5225 0.464592 0.531708
v 0.5225 0.412017 0.537822
v 0.5225 0.394897 0.603665
v 0.5225 0.405485 0.653292
v 0.5225 0.462564 0.678188
v 0.5225 0.460065 0.683917
v 0.5225 0.400042 0.657737
v 0.5225 0.388477 0.603523
v 0.5225 0.407045 0.532108
v 0.5225 0.46387 0.5255
v 0.51875 0.46875 0.535
v 0.51875 0.415 0.54125
v 0.51875 0.39875 0.60375
v 0.51875 0.40875 0.650625
v 0.51875 0.4675 0.67625
v 0.51875 0.462003 0.688853
v 0.51875 0.396777 0.660404
v 0.51875 0.384624 0.603438
v 0.51875 0.404061 0.528679
v 0.51875 0.467162 0.521342
v 0.48125 0.46875 0.535
v 0.48125 0.415 0.54125
v 0.48125 0.39875 0.60375
v 0.48125 0.40875 0.650625
v 0.48125 0.4675 0.67625
v 0.48125 0.462003 0.688853
v 0.48125 0.396777 0.660404
v 0.48125 0.384624 0.603438
v 0.48125 0.404061 0.528679
v 0.48125 0.467162 0.521342
v 0.4775 0.464592 0.531708
v 0.4775 0.412017 0.537822
v 0.4775 0.394897 0.603665
v 0.4775 0.405485 0.653292
v 0.4775 0.462564 0.678188
v 0.4775 0.460065 0.683917
v 0.4775 0.400042 0.657737
v 0.4775 0.388477 0.603523
v 0.4775 0.407045 0.532108
v 0.4775 0.46387 0.5255
v 0.5225 0.464592 0.531708
v 0.5225 0.412017 0.537822
v 0.5225 0.394897 0.603665
v 0.5225 0.405485 0.653292
v 0.5225 0.462564 0.678188
v 0.5225 0.460065 0.683917
v 0.5225 0.400042 0.657737
v 0.5225 0.388477 0.603523
v 0.5225 0.407045 0.532108
v 0.5225 0.46387 0.5255
v 0.4775 0.464592 0.531708
v 0.4775 0.412017 0.537822
v 0.4775 0.394897 0.603665
v 0.4775 0.405485 0.653292
v 0.4775 0.462564 0.678188
v 0.4775 0.460065 0.683917
v 0.4775 0.400042 0.657737
v 0.4775 0.388477 0.603523
v 0.4775 0.407045 0.532108
v 0.4775 0.46387 0.5255
vt 0.215088 0.112695
vt 0.224223 0.112695
vt 0.224223 0.116943
vt 0.215088 0.116943
vt 0.011328 0.062927
vt 0.011328 0.064697
vt 0.00708 0.064697
vt 0.00708 0.062927
vt 0.202588 0.116943
vt 0.192627 0.116943
vt 0.192627 0.112695
vt 0.202588 0.112695
vt 0.065674 0.064697
vt 0.065674 0.062962
vt 0.069922 0.062962
vt 0.069922 0.064697
vt 0.001221 0.108818
vt 0.001575 0.107119
vt 0.010425 0.109385
vt 0.010425 0.109385
vt 0.01092 0.111084
vt 0.001221 0.108818
vt 0.021655 0.108818
vt 0.012805 0.111084
vt 0.012451 0.109385
vt 0.012451 0.109385
vt 0.022151 0.107119
vt 0.021655 0.108818
vt 0.505615 0.064173
vt 0.511664 0.063179
vt 0.512048 0.063724
vt 0.506132 0.064697
vt 0.564568 0.068604
vt 0.557373 0.067281
vt 0.557383 0.066672
vt 0.564963 0.068065
vt 0.558164 0.063887
vt 0.552796 0.064697
vt 0.55249 0.064136
vt 0.558174 0.063278
vt 0.828689 0.116943
vt 0.82251 0.113131
vt 0.823187 0.112843
vt 0.829191 0.116547
vt 0.790307 0.027588
vt 0.788818 0.027129
vt 0.789401 0.02668
vt 0.790078 0.026889
vt 0.574951 0.12501
vt 0.581812 0.129242
vt 0.581311 0.129639
vt 0.574997 0.125744
vt 0.489014 0.064136
vt 0.495538 0.063152
vt 0.495528 0.063761
vt 0.489319 0.064697
vt 0.517344 0.066483
vt 0.52595 0.068065
vt 0.525555 0.068604
vt 0.517334 0.067092
vt 0.105001 0.06353
vt 0.0979 0.064697
vt 0.098222 0.064036
vt 0.104617 0.062984
vt 0.215664 0.020136
vt 0.214111 0.020264
vt 0.214485 0.01963
vt 0.215191 0.019572
vt 0.274929 0.116943
vt 0.268799 0.116943
vt 0.268799 0.112695
vt 0.274929 0.112695
vt 0.241935 0.116943
vt 0.234619 0.116943
vt 0.234619 0.112695
vt 0.241935 0.112695
vt 0.289365 0.116943
vt 0.283936 0.116943
vt 0.283936 0.112695
vt 0.289365 0.112695
vt 0.290708 0.122803
vt 0.283447 0.122803
vt 0.283447 0.118555
vt 0.290708 0.118555
vt 0.399658 0.064697
vt 0.399658 0.06314
vt 0.403906 0.06314
vt 0.403906 0.064697
vt 0.264893 0.118555
vt 0.272954 0.118555
vt 0.272954 0.122803
vt 0.264893 0.122803
vt 0.300537 0.118555
vt 0.307135 0.118555
vt 0.307135 0.122803
vt 0.300537 0.122803
vt 0.244873 0.118555
vt 0.253623 0.118555
vt 0.253623 0.122803
vt 0.244873 0.122803
vt 0.252197 0.112695
vt 0.259394 0.112695
vt 0.259394 0.116943
vt 0.252197 0.116943
vt 0.411377 0.064697
vt 0.411377 0.06314
vt 0.415625 0.06314
vt 0.415625 0.064697
vt 0.528133 0.064697
vt 0.522217 0.063724
vt 0.522601 0.063179
vt 0.52865 0.064173
vt 0.583517 0.06721
vt 0.575938 0.068604
vt 0.575928 0.067994
vt 0.583123 0.066672
vt 0.543526 0.064697
vt 0.537842 0.06384
vt 0.538147 0.063278
vt 0.543516 0.064088
vt 0.830811 0.116547
vt 0.836814 0.112843
vt 0.837491 0.113131
vt 0.831312 0.116943
vt 0.793496 0.027379
vt 0.792819 0.027588
vt 0.792236 0.027139
vt 0.793725 0.02668
vt 0.590555 0.125744
vt 0.584241 0.129639
vt 0.58374 0.129242
vt 0.590601 0.12501
vt 0.472718 0.063152
vt 0.478927 0.064088
vt 0.478937 0.064697
vt 0.472412 0.063713
vt 0.537842 0.067994
vt 0.546063 0.066483
vt 0.546458 0.067021
vt 0.537852 0.068604
vt 0.080707 0.062984
vt 0.087101 0.064036
vt 0.087423 0.064697
vt 0.080322 0.06353
vt 0.218609 0.020264
vt 0.217903 0.020206
vt 0.217529 0.019572
vt 0.219082 0.0197
vt 0.414674 0.165201
vt 0.413971 0.165283
vt 0.413278 0.159327
vt 0.400198 0.158587
vt 0.397377 0.165053
vt 0.396729 0.16477
vt 0.400198 0.158587
vt 0.396729 0.16477
vt 0.399694 0.157971
vt 0.40582 0.157388
vt 0.400198 0.158587
vt 0.399694 0.157971
vt 0.40582 0.157388
vt 0.399694 0.157971
vt 0.405836 0.156661
vt 0.413278 0.159327
vt 0.40582 0.157388
vt 0.405836 0.156661
vt 0.413278 0.159327
vt 0.405836 0.156661
vt 0.413926 0.158764
vt 0.413278 0.159327
vt 0.413926 0.158764
vt 0.414674 0.165201
vt 0.43281 0.162617
vt 0.433502 0.156661
vt 0.434205 0.156743
vt 0.41626 0.157174
vt 0.416909 0.156891
vt 0.419729 0.163357
vt 0.419225 0.163973
vt 0.41626 0.157174
vt 0.419729 0.163357
vt 0.419225 0.163973
vt 0.419729 0.163357
vt 0.425351 0.164556
vt 0.425367 0.165283
vt 0.419225 0.163973
vt 0.425351 0.164556
vt 0.425367 0.165283
vt 0.425351 0.164556
vt 0.43281 0.162617
vt 0.433457 0.16318
vt 0.425367 0.165283
vt 0.43281 0.162617
vt 0.434205 0.156743
vt 0.433457 0.16318
vt 0.43281 0.162617
vn 0 -0.968759 -0.248002
vn 0 -0.28 -0.96
vn 0 0.973789 0.227454
vn 0 -0.203954 0.97898
vn 1 0 0
vn -1 0 0
vn 0.707107 0.081671 0.702374
vn 0.707107 0.684354 0.177932
vn 0.716454 0.696509 0.039596
vn 0.707107 0.691545 -0.14753
vn 0.707107 0.282698 -0.648137
vn 0.707107 0.648137 0.282698
vn 0.707107 -0.282698 0.648137
vn 0.707107 -0.691545 0.14753
vn 0.71647 -0.696545 -0.038669
vn 0.707107 -0.684354 -0.177932
vn 0.707107 -0.081671 -0.702374
vn 0.707107 0.702374 -0.081671
vn 0 0.115501 0.993307
vn 0 0.967823 0.251634
vn 0 0.998371 0.05705
vn 0 0.977993 -0.208638
vn 0 0.399796 -0.916604
vn 0 0.916604 0.399796
vn 0 -0.399796 0.916604
vn 0 -0.977993 0.208638
vn 0 -0.998474 -0.055217
vn 0 -0.967823 -0.251634
vn 0 -0.115501 -0.993307
vn 0 0.993307 -0.115501
vn -0.707107 0.081671 0.702374
vn -0.707107 0.684354 0.177932
vn -0.716454 0.696509 0.039596
vn -0.707107 0.691545 -0.14753
vn -0.707107 0.282698 -0.648137
vn -0.707107 0.648137 0.282698
vn -0.707107 -0.282698 0.648137
vn -0.707107 -0.691545 0.14753
vn -0.71647 -0.696545 -0.038669
vn -0.707107 -0.684354 -0.177932
vn -0.707107 -0.081671 -0.702374
vn -0.707107 0.702374 -0.081671
f 95/247/60 96/248/60 92/249/60 91/250/60
f 96/251/61 97/252/61 93/253/61 92/254/61
f 97/255/62 98/256/62 94/257/62 93/258/62
f 98/259/63 95/260/63 91/261/63 94/262/63
f 102/263/64 99/264/64 100/265/64
f 100/266/64 101/267/64 102/268/64
f 104/269/65 103/270/65 106/271/65
f 106/272/65 105/273/65 104/274/65
f 117/275/66 118/276/66 108/277/66 107/278/66
f 118/279/67 119/280/68 109/281/68 108/282/67
f 119/283/68 120/284/69 110/285/69 109/286/68
f 120/287/70 121/288/70 111/289/70 110/290/70
f 121/291/71 122/292/71 112/293/71 111/294/71
f 122/295/72 123/296/72 113/297/72 112/298/72
f 123/299/73 124/300/74 114/301/74 113/302/73
f 124/303/74 125/304/75 115/305/75 114/306/74
f 125/307/76 126/308/76 116/309/76 115/310/76
f 126/311/77 117/312/77 107/313/77 116/314/77
f 127/315/78 128/316/78 118/317/78 117/318/78
f 128/319/79 129/320/80 119/321/80 118/322/79
f 129/323/80 130/324/81 120/325/81 119/326/80
f 130/327/82 131/328/82 121/329/82 120/330/82
f 131/331/83 132/332/83 122/333/83 121/334/83
f 132/335/84 133/336/84 123/337/84 122/338/84
f 133/339/85 134/340/86 124/341/86 123/342/85
f 134/343/86 135/344/87 125/345/87 124/346/86
f 135/347/88 136/348/88 126/349/88 125/350/88
f 136/351/89 127/352/89 117/353/89 126/354/89
f 137/355/90 138/356/90 128/357/90 127/358/90
f 138/359/91 139/360/92 129/361/92 128/362/91
f 139/363/92 140/364/93 130/365/93 129/366/92
f 140/367/94 141/368/94 131/369/94 130/370/94
f 141/371/95 142/372/95 132/373/95 131/374/95
f 142/375/96 143/376/96 133/377/96 132/378/96
f 143/379/97 144/380/98 134/381/98 133/382/97
f 144/383/98 145/384/99 135/385/99 134/386/98
f 145/387/100 146/388/100 136/389/100 135/390/100
f 146/391/101 137/392/101 127/393/101 136/394/101
f 156/395/64 147/396/64 148/397/64
f 150/398/64 151/399/64 152/400/64
f 150/401/64 152/402/64 153/403/64
f 149/404/64 150/405/64 153/406/64
f 149/407/64 153/408/64 154/409/64
f 148/410/64 149/411/64 154/412/64
f 148/413/64 154/414/64 155/415/64
f 148/416/64 155/417/64 156/418/64
f 158/419/65 157/420/65 166/421/65
f 162/422/65 161/423/65 160/424/65
f 163/425/65 162/426/65 160/427/65
f 163/428/65 160/429/65 159/430/65
f 164/431/65 163/432/65 159/433/65
f 164/434/65 159/435/65 158/436/65
f 165/437/65 164/438/65 158/439/65
f 166/440/65 165/441/65 158/442/65
o item_diesel_steel
usemtl fuel_dispenser
v 0.475035 0.508112 0.7225
v 0.484571 0.521237 0.7225
v 0.5 0.52625 0.7225
v 0.515429 0.521237 0.7225
v 0.524965 0.508112 0.7225
v 0.524965 0.491888 0.7225
v 0.515429 0.478763 0.7225
v 0.5 0.47375 0.7225
v 0.484571 0.478763 0.7225
v 0.475035 0.491888 0.7225
v 0.475035 0.508112 0.66
v 0.484571 0.521237 0.66
v 0.5 0.52625 0.66
v 0.515429 0.521237 0.66
v 0.524965 0.508112 0.66
v 0.524965 0.491888 0.66
v 0.515429 0.478763 0.66
v 0.5 0.47375 0.66
v 0.484571 0.478763 0.66
v 0.475035 0.491888 0.66
v 0.5 0.5 0.7225
v 0.5 0.5 0.66
v 0.512703 0.557238 0.456875
v 0.505262 0.549797 0.456875
v 0.494738 0.549797 0.456875
v 0.487297 0.557238 0.456875
v 0.487297 0.567762 0.456875
v 0.494738 0.575203 0.456875
v 0.505262 0.575203 0.456875
v 0.512703 0.567762 0.456875
v 0.512703 0.557238 0.418915
v 0.505262 0.549797 0.418915
v 0.494738 0.549797 0.418915
v 0.487297 0.557238 0.418915
v 0.487297 0.567762 0.418915
v 0.494738 0.575203 0.418915
v 0.505262 0.575203 0.418915
v 0.512703 0.567762 0.418915
v 0.512703 0.557238 0.381341
v 0.505262 0.549797 0.381341
v 0.494738 0.549797 0.381341
v 0.487297 0.557238 0.381341
v 0.487297 0.567762 0.381341
v 0.494738 0.575203 0.381341
v 0.505262 0.575203 0.381341
v 0.512703 0.567762 0.381341
v 0.512703 0.557238 0.342188
v 0.505262 0.549797 0.342188
v 0.494738 0.549797 0.342188
v 0.487297 0.557238 0.342188
v 0.487297 0.567762 0.342188
v 0.494738 0.575203 0.342188
v 0.505262 0.575203 0.342188
v 0.512703 0.567762 0.342188
v 0.512703 0.557238 0.30329
v 0.505262 0.549797 0.30329
v 0.494738 0.549797 0.30329
v 0.487297 0.557238 0.30329
v 0.487297 0.567762 0.30329
v 0.494738 0.575203 0.30329
v 0.505262 0.575203 0.30329
v 0.512703 0.567762 0.30329
v 0.512703 0.557238 0.288125
v 0.505262 0.549797 0.288125
v 0.494738 0.549797 0.288125
v 0.487297 0.557238 0.288125
v 0.487297 0.567762 0.288125
v 0.494738 0.575203 0.288125
v 0.505262 0.575203 0.288125
v 0.512703 0.567762 0.288125
v 0.5 0.5625 0.456875
v 0.5 0.5625 0.288125
vt 0.736572 0.068604
vt 0.736572 0.066766
vt 0.743652 0.066766
vt 0.743652 0.068604
vt 0.745361 0.068604
vt 0.745361 0.066766
vt 0.752441 0.066766
vt 0.752441 0.068604
vt 0.75415 0.068604
vt 0.75415 0.066766
vt 0.76123 0.066766
vt 0.76123 0.068604
vt 0.806885 0.068604
vt 0.806885 0.066766
vt 0.813965 0.066766
vt 0.813965 0.068604
vt 0.762939 0.068604
vt 0.762939 0.066766
vt 0.77002 0.066766
vt 0.77002 0.068604
vt 0.771729 0.068604
vt 0.771729 0.066766
vt 0.778809 0.066766
vt 0.778809 0.068604
vt 0.780518 0.068604
vt 0.780518 0.066766
vt 0.787598 0.066766
vt 0.787598 0.068604
vt 0.789307 0.068604
vt 0.789307 0.066766
vt 0.796387 0.066766
vt 0.796387 0.068604
vt 0.657471 0.068604
vt 0.657471 0.066766
vt 0.664551 0.066766
vt 0.664551 0.068604
vt 0.67334 0.066766
vt 0.67334 0.068604
vt 0.66626 0.068604
vt 0.66626 0.066766
vt 0.379159 0.136371
vt 0.377672 0.137451
vt 0.376753 0.134623
vt 0.379727 0.134623
vt 0.379159 0.136371
vt 0.376753 0.134623
vt 0.379159 0.132875
vt 0.379727 0.134623
vt 0.376753 0.134623
vt 0.377672 0.131795
vt 0.379159 0.132875
vt 0.376753 0.134623
vt 0.375834 0.131795
vt 0.377672 0.131795
vt 0.376753 0.134623
vt 0.374347 0.132875
vt 0.375834 0.131795
vt 0.376753 0.134623
vt 0.373779 0.134623
vt 0.374347 0.132875
vt 0.376753 0.134623
vt 0.374347 0.136371
vt 0.373779 0.134623
vt 0.376753 0.134623
vt 0.375834 0.137451
vt 0.374347 0.136371
vt 0.376753 0.134623
vt 0.377672 0.137451
vt 0.375834 0.137451
vt 0.376753 0.134623
vt 0.384565 0.134623
vt 0.385484 0.131795
vt 0.386971 0.132875
vt 0.384565 0.134623
vt 0.386971 0.132875
vt 0.387539 0.134623
vt 0.384565 0.134623
vt 0.387539 0.134623
vt 0.386971 0.136371
vt 0.384565 0.134623
vt 0.386971 0.136371
vt 0.385484 0.137451
vt 0.384565 0.134623
vt 0.385484 0.137451
vt 0.383647 0.137451
vt 0.384565 0.134623
vt 0.383647 0.137451
vt 0.38216 0.136371
vt 0.384565 0.134623
vt 0.38216 0.136371
vt 0.381592 0.134623
vt 0.384565 0.134623
vt 0.381592 0.134623
vt 0.38216 0.132875
vt 0.384565 0.134623
vt 0.38216 0.132875
vt 0.383647 0.131795
vt 0.384565 0.134623
vt 0.383647 0.131795
vt 0.385484 0.131795
vt 0.629639 0.046631
vt 0.629639 0.045439
vt 0.633939 0.045439
vt 0.633939 0.046631
vt 0.818604 0.046631
vt 0.818604 0.045439
vt 0.822904 0.045439
vt 0.822904 0.046631
vt 0.650635 0.046631
vt 0.650635 0.045439
vt 0.654935 0.045439
vt 0.654935 0.046631
vt 0.419678 0.046631
vt 0.419678 0.045439
vt 0.423978 0.045439
vt 0.423978 0.046631
vt 0.8396 0.046631
vt 0.8396 0.045439
vt 0.8439 0.045439
vt 0.8439 0.046631
vt 0.46167 0.046631
vt 0.46167 0.045439
vt 0.46597 0.045439
vt 0.46597 0.046631
vt 0.671631 0.046631
vt 0.671631 0.045439
vt 0.675931 0.045439
vt 0.675931 0.046631
vt 0.377686 0.046631
vt 0.377686 0.045439
vt 0.381986 0.045439
vt 0.381986 0.046631
vt 0.633939 0.046631
vt 0.633939 0.045439
vt 0.638195 0.045439
vt 0.638195 0.046631
vt 0.822904 0.046631
vt 0.822904 0.045439
vt 0.82716 0.045439
vt 0.82716 0.046631
vt 0.654935 0.046631
vt 0.654935 0.045439
vt 0.659191 0.045439
vt 0.659191 0.046631
vt 0.423978 0.046631
vt 0.423978 0.045439
vt 0.428234 0.045439
vt 0.428234 0.046631
vt 0.8439 0.046631
vt 0.8439 0.045439
vt 0.848156 0.045439
vt 0.848156 0.046631
vt 0.46597 0.046631
vt 0.46597 0.045439
vt 0.470227 0.045439
vt 0.470227 0.046631
vt 0.675931 0.046631
vt 0.675931 0.045439
vt 0.680187 0.045439
vt 0.680187 0.046631
vt 0.381986 0.046631
vt 0.381986 0.045439
vt 0.386242 0.045439
vt 0.386242 0.046631
vt 0.638195 0.046631
vt 0.638195 0.045439
vt 0.642631 0.045439
vt 0.642631 0.046631
vt 0.82716 0.046631
vt 0.82716 0.045439
vt 0.831595 0.045439
vt 0.831595 0.046631
vt 0.659191 0.046631
vt 0.659191 0.045439
vt 0.663627 0.045439
vt 0.663627 0.046631
vt 0.428234 0.046631
vt 0.428234 0.045439
vt 0.43267 0.045439
vt 0.43267 0.046631
vt 0.848156 0.046631
vt 0.848156 0.045439
vt 0.852591 0.045439
vt 0.852591 0.046631
vt 0.470227 0.046631
vt 0.470227 0.045439
vt 0.474662 0.045439
vt 0.474662 0.046631
vt 0.680187 0.046631
vt 0.680187 0.045439
vt 0.684623 0.045439
vt 0.684623 0.046631
vt 0.386242 0.046631
vt 0.386242 0.045439
vt 0.390677 0.045439
vt 0.390677 0.046631
vt 0.642631 0.046631
vt 0.642631 0.045439
vt 0.647037 0.045439
vt 0.647037 0.046631
vt 0.831595 0.046631
vt 0.831595 0.045439
vt 0.836002 0.045439
vt 0.836002 0.046631
vt 0.663627 0.046631
vt 0.663627 0.045439
vt 0.668033 0.045439
vt 0.668033 0.046631
vt 0.43267 0.046631
vt 0.43267 0.045439
vt 0.437076 0.045439
vt 0.437076 0.046631
vt 0.852591 0.046631
vt 0.852591 0.045439
vt 0.856998 0.045439
vt 0.856998 0.046631
vt 0.474662 0.046631
vt 0.474662 0.045439
vt 0.479068 0.045439
vt 0.479068 0.046631
vt 0.684623 0.046631
vt 0.684623 0.045439
vt 0.689029 0.045439
vt 0.689029 0.046631
vt 0.390677 0.046631
vt 0.390677 0.045439
vt 0.395084 0.045439
vt 0.395084 0.046631
vt 0.647037 0.046631
vt 0.647037 0.045439
vt 0.648755 0.045439
vt 0.648755 0.046631
vt 0.836002 0.046631
vt 0.836002 0.045439
vt 0.83772 0.045439
vt 0.83772 0.046631
vt 0.668033 0.046631
vt 0.668033 0.045439
vt 0.669751 0.045439
vt 0.669751 0.046631
vt 0.437076 0.046631
vt 0.437076 0.045439
vt 0.438794 0.045439
vt 0.438794 0.046631
vt 0.856998 0.046631
vt 0.856998 0.045439
vt 0.858716 0.045439
vt 0.858716 0.046631
vt 0.479068 0.046631
vt 0.479068 0.045439
vt 0.480786 0.045439
vt 0.480786 0.046631
vt 0.689029 0.046631
vt 0.689029 0.045439
vt 0.690747 0.045439
vt 0.690747 0.046631
vt 0.395084 0.046631
vt 0.395084 0.045439
vt 0.396802 0.045439
vt 0.396802 0.046631
vt 0.520752 0.097818
vt 0.521595 0.096975
vt 0.522191 0.098414
vt 0.520752 0.099011
vt 0.520752 0.097818
vt 0.522191 0.098414
vt 0.521595 0.099854
vt 0.520752 0.099011
vt 0.522191 0.098414
vt 0.522787 0.099854
vt 0.521595 0.099854
vt 0.522191 0.098414
vt 0.52363 0.099011
vt 0.522787 0.099854
vt 0.522191 0.098414
vt 0.52363 0.097818
vt 0.52363 0.099011
vt 0.522191 0.098414
vt 0.522787 0.096975
vt 0.52363 0.097818
vt 0.522191 0.098414
vt 0.521595 0.096975
vt 0.522787 0.096975
vt 0.522191 0.098414
vt 0.526586 0.098414
vt 0.525989 0.099854
vt 0.525146 0.099011
vt 0.526586 0.098414
vt 0.525146 0.099011
vt 0.525146 0.097818
vt 0.526586 0.098414
vt 0.525146 0.097818
vt 0.525989 0.096975
vt 0.526586 0.098414
vt 0.525989 0.096975
vt 0.527182 0.096975
vt 0.526586 0.098414
vt 0.527182 0.096975
vt 0.528025 0.097818
vt 0.526586 0.098414
vt 0.528025 0.097818
vt 0.528025 0.099011
vt 0.526586 0.098414
vt 0.528025 0.099011
vt 0.527182 0.099854
vt 0.526586 0.098414
vt 0.527182 0.099854
vt 0.525989 0.099854
vn -0.809017 0.587785 0
vn -0.587785 0.809017 0
vn 0 1 0
vn 0.587785 0.809017 0
vn 0.951057 0.309017 0
vn 0.951057 -0.309017 0
vn 0.587785 -0.809017 0
vn 0 -1 0
vn -0.587785 -0.809017 0
vn -0.809017 -0.587785 0
vn 1 0 0
vn 0 0 1
vn 0 0 -1
vn 0.92388 -0.382683 0
vn 0.382683 -0.92388 0
vn -0.382683 -0.92388 0
vn -0.92388 -0.382683 0
vn -0.92388 0.382683 0
vn -0.382683 0.92388 0
vn 0.382683 0.92388 0
vn 0.92388 0.382683 0
f 167/443/102 168/444/103 178/445/103 177/446/102
f 168/447/103 169/448/104 179/449/104 178/450/103
f 169/451/104 170/452/105 180/453/105 179/454/104
f 170/455/105 171/456/106 181/457/106 180/458/105
f 171/459/106 172/460/107 182/461/107 181/462/106
f 172/463/107 173/464/108 183/465/108 182/466/107
f 173/467/108 174/468/109 184/469/109 183/470/108
f 174/471/109 175/472/110 185/473/110 184/474/109
f 175/475/110 176/476/111 186/477/111 185/478/110
f 186/479/112 177/480/112 167/481/112 176/482/112
f 168/483/113 167/484/113 187/485/113
f 169/486/113 168/487/113 187/488/113
f 170/489/113 169/490/113 187/491/113
f 171/492/113 170/493/113 187/494/113
f 172/495/113 171/496/113 187/497/113
f 173/498/113 172/499/113 187/500/113
f 174/501/113 173/502/113 187/503/113
f 175/504/113 174/505/113 187/506/113
f 176/507/113 175/508/113 187/509/113
f 167/510/113 176/511/113 187/512/113
f 188/513/114 177/514/114 178/515/114
f 188/516/114 178/517/114 179/518/114
f 188/519/114 179/520/114 180/521/114
f 188/522/114 180/523/114 181/524/114
f 188/525/114 181/526/114 182/527/114
f 188/528/114 182/529/114 183/530/114
f 188/531/114 183/532/114 184/533/114
f 188/534/114 184/535/114 185/536/114
f 188/537/114 185/538/114 186/539/114
f 188/540/114 186/541/114 177/542/114
f 189/543/115 190/544/116 198/545/116 197/546/115
f 190/547/116 191/548/117 199/549/117 198/550/116
f 191/551/117 192/552/118 200/553/118 199/554/117
f 192/555/118 193/556/119 201/557/119 200/558/118
f 193/559/119 194/560/120 202/561/120 201/562/119
f 194/563/120 195/564/121 203/565/121 202/566/120
f 195/567/121 196/568/122 204/569/122 203/570/121
f 196/571/122 189/572/115 197/573/115 204/574/122
f 197/575/115 198/576/116 206/577/116 205/578/115
f 198/579/116 199/580/117 207/581/117 206/582/116
f 199/583/117 200/584/118 208/585/118 207/586/117
f 200/587/118 201/588/119 209/589/119 208/590/118
f 201/591/119 202/592/120 210/593/120 209/594/119
f 202/595/120 203/596/121 211/597/121 210/598/120
f 203/599/121 204/600/122 212/601/122 211/602/121
f 204/603/122 197/604/115 205/605/115 212/606/122
f 205/607/115 206/608/116 214/609/116 213/610/115
f 206/611/116 207/612/117 215/613/117 214/614/116
f 207/615/117 208/616/118 216/617/118 215/618/117
f 208/619/118 209/620/119 217/621/119 216/622/118
f 209/623/119 210/624/120 218/625/120 217/626/119
f 210/627/120 211/628/121 219/629/121 218/630/120
f 211/631/121 212/632/122 220/633/122 219/634/121
f 212/635/122 205/636/115 213/637/115 220/638/122
f 213/639/115 214/640/116 222/641/116 221/642/115
f 214/643/116 215/644/117 223/645/117 222/646/116
f 215/647/117 216/648/118 224/649/118 223/650/117
f 216/651/118 217/652/119 225/653/119 224/654/118
f 217/655/119 218/656/120 226/657/120 225/658/119
f 218/659/120 219/660/121 227/661/121 226/662/120
f 219/663/121 220/664/122 228/665/122 227/666/121
f 220/667/122 213/668/115 221/669/115 228/670/122
f 221/671/115 222/672/116 230/673/116 229/674/115
f 222/675/116 223/676/117 231/677/117 230/678/116
f 223/679/117 224/680/118 232/681/118 231/682/117
f 224/683/118 225/684/119 233/685/119 232/686/118
f 225/687/119 226/688/120 234/689/120 233/690/119
f 226/691/120 227/692/121 235/693/121 234/694/120
f 227/695/121 228/696/122 236/697/122 235/698/121
f 228/699/122 221/700/115 229/701/115 236/702/122
f 190/703/113 189/704/113 237/705/113
f 191/706/113 190/707/113 237/708/113
f 192/709/113 191/710/113 237/711/113
f 193/712/113 192/713/113 237/714/113
f 194/715/113 193/716/113 237/717/113
f 195/718/113 194/719/113 237/720/113
f 196/721/113 195/722/113 237/723/113
f 189/724/113 196/725/113 237/726/113
f 238/727/114 229/728/114 230/729/114
f 238/730/114 230/731/114 231/732/114
f 238/733/114 231/734/114 232/735/114
f 238/736/114 232/737/114 233/738/114
f 238/739/114 233/740/114 234/741/114
f 238/742/114 234/743/114 235/744/114
f 238/745/114 235/746/114 236/747/114
f 238/748/114 236/749/114 229/750/114
o item_diesel_collar
usemtl fuel_dispenser
v 0.480979 0.56868 0.463125
v 0.488244 0.57868 0.463125
v 0.5 0.5825 0.463125
v 0.511756 0.57868 0.463125
v 0.519021 0.56868 0.463125
v 0.519021 0.55632 0.463125
v 0.511756 0.54632 0.463125
v 0.5 0.5425 0.463125
v 0.488244 0.54632 0.463125
v 0.480979 0.55632 0.463125
v 0.480979 0.56868 0.431875
v 0.488244 0.57868 0.431875
v 0.5 0.5825 0.431875
v 0.511756 0.57868 0.431875
v 0.519021 0.56868 0.431875
v 0.519021 0.55632 0.431875
v 0.511756 0.54632 0.431875
v 0.5 0.5425 0.431875
v 0.488244 0.54632 0.431875
v 0.480979 0.55632 0.431875
v 0.5 0.5625 0.463125
v 0.5 0.5625 0.431875
vt 0.907471 0.05835
vt 0.907471 0.056949
vt 0.911011 0.056949
vt 0.911011 0.05835
vt 0.971924 0.05835
vt 0.971924 0.056949
vt 0.975464 0.056949
vt 0.975464 0.05835
vt 0.928955 0.05835
vt 0.928955 0.056949
vt 0.932495 0.056949
vt 0.932495 0.05835
vt 0.977295 0.05835
vt 0.977295 0.056949
vt 0.980835 0.056949
vt 0.980835 0.05835
vt 0.982666 0.05835
vt 0.982666 0.056949
vt 0.986206 0.056949
vt 0.986206 0.05835
vt 0.918213 0.05835
vt 0.918213 0.056949
vt 0.921753 0.056949
vt 0.921753 0.05835
vt 0.988037 0.05835
vt 0.988037 0.056949
vt 0.991577 0.056949
vt 0.991577 0.05835
vt 0.993408 0.05835
vt 0.993408 0.056949
vt 0.996948 0.056949
vt 0.996948 0.05835
vt 0.001221 0.05542
vt 0.001221 0.05402
vt 0.004761 0.05402
vt 0.004761 0.05542
vt 0.010132 0.05402
vt 0.010132 0.05542
vt 0.006592 0.05542
vt 0.006592 0.05402
vt 0.018015 0.12198
vt 0.016882 0.122803
vt 0.016182 0.120648
vt 0.018447 0.120648
vt 0.018015 0.12198
vt 0.016182 0.120648
vt 0.018015 0.119316
vt 0.018447 0.120648
vt 0.016182 0.120648
vt 0.016882 0.118493
vt 0.018015 0.119316
vt 0.016182 0.120648
vt 0.015482 0.118493
vt 0.016882 0.118493
vt 0.016182 0.120648
vt 0.014349 0.119316
vt 0.015482 0.118493
vt 0.016182 0.120648
vt 0.013916 0.120648
vt 0.014349 0.119316
vt 0.016182 0.120648
vt 0.014349 0.12198
vt 0.013916 0.120648
vt 0.016182 0.120648
vt 0.015482 0.122803
vt 0.014349 0.12198
vt 0.016182 0.120648
vt 0.016882 0.122803
vt 0.015482 0.122803
vt 0.016182 0.120648
vt 0.022529 0.120648
vt 0.023229 0.118493
vt 0.024362 0.119316
vt 0.022529 0.120648
vt 0.024362 0.119316
vt 0.024795 0.120648
vt 0.022529 0.120648
vt 0.024795 0.120648
vt 0.024362 0.12198
vt 0.022529 0.120648
vt 0.024362 0.12198
vt 0.023229 0.122803
vt 0.022529 0.120648
vt 0.023229 0.122803
vt 0.021829 0.122803
vt 0.022529 0.120648
vt 0.021829 0.122803
vt 0.020696 0.12198
vt 0.022529 0.120648
vt 0.020696 0.12198
vt 0.020264 0.120648
vt 0.022529 0.120648
vt 0.020264 0.120648
vt 0.020696 0.119316
vt 0.022529 0.120648
vt 0.020696 0.119316
vt 0.021829 0.118493
vt 0.022529 0.120648
vt 0.021829 0.118493
vt 0.023229 0.118493
vn -0.809017 0.587785 0
vn -0.587785 0.809017 0
vn -0.309017 0.951057 0
vn 0.309017 0.951057 0
vn 0.587785 0.809017 0
vn 0.809017 0.587785 0
vn 1 0 0
vn 0.951057 -0.309017 0
vn 0.587785 -0.809017 0
vn 0.309017 -0.951057 0
vn -0.309017 -0.951057 0
vn -0.587785 -0.809017 0
vn -0.809017 -0.587785 0
vn 0 0 1
vn 0 0 -1
f 239/751/123 240/752/124 250/753/124 249/754/123
f 240/755/124 241/756/125 251/757/125 250/758/124
f 241/759/126 242/760/127 252/761/127 251/762/126
f 242/763/127 243/764/128 253/765/128 252/766/127
f 243/767/129 244/768/130 254/769/130 253/770/129
f 244/771/130 245/772/131 255/773/131 254/774/130
f 245/775/131 246/776/132 256/777/132 255/778/131
f 246/779/133 247/780/134 257/781/134 256/782/133
f 247/783/134 248/784/135 258/785/135 257/786/134
f 258/787/129 249/788/129 239/789/129 248/790/129
f 240/791/136 239/792/136 259/793/136
f 241/794/136 240/795/136 259/796/136
f 242/797/136 241/798/136 259/799/136
f 243/800/136 242/801/136 259/802/136
f 244/803/136 243/804/136 259/805/136
f 245/806/136 244/807/136 259/808/136
f 246/809/136 245/810/136 259/811/136
f 247/812/136 246/813/136 259/814/136
f 248/815/136 247/816/136 259/817/136
f 239/818/136 248/819/136 259/820/136
f 260/821/137 249/822/137 250/823/137
f 260/824/137 250/825/137 251/826/137
f 260/827/137 251/828/137 252/829/137
f 260/830/137 252/831/137 253/832/137
f 260/833/137 253/834/137 254/835/137
f 260/836/137 254/837/137 255/838/137
f 260/839/137 255/840/137 256/841/137
f 260/842/137 256/843/137 257/844/137
f 260/845/137 257/846/137 258/847/137
f 260/848/137 258/849/137 249/850/137
