# AFL Fuel Dispenser V1 gasoline nozzle (held), generated by tools/build-fuel-dispenser-v1.mjs
mtllib held_gasoline.mtl
o item_gasoline_handle
usemtl fuel_dispenser
v 0.52625 0.482781 0.67
v 0.52625 0.486089 0.565238
v 0.52625 0.501781 0.55652
v 0.52625 0.543905 0.561476
v 0.52625 0.538335 0.656165
v 0.52625 0.524501 0.67
v 0.5175 0.47375 0.67875
v 0.5175 0.4775 0.56
v 0.5175 0.5 0.5475
v 0.5175 0.553125 0.55375
v 0.5175 0.546875 0.66
v 0.5175 0.528125 0.67875
v 0.4825 0.47375 0.67875
v 0.4825 0.4775 0.56
v 0.4825 0.5 0.5475
v 0.4825 0.553125 0.55375
v 0.4825 0.546875 0.66
v 0.4825 0.528125 0.67875
v 0.47375 0.482781 0.67
v 0.47375 0.486089 0.565238
v 0.47375 0.501781 0.55652
v 0.47375 0.543905 0.561476
v 0.47375 0.538335 0.656165
v 0.47375 0.524501 0.67
v 0.52625 0.482781 0.67
v 0.52625 0.486089 0.565238
v 0.52625 0.501781 0.55652
v 0.52625 0.543905 0.561476
v 0.52625 0.538335 0.656165
v 0.52625 0.524501 0.67
v 0.47375 0.482781 0.67
v 0.47375 0.486089 0.565238
v 0.47375 0.501781 0.55652
v 0.47375 0.543905 0.561476
v 0.47375 0.538335 0.656165
v 0.47375 0.524501 0.67
vt 0.553955 0.055195
vt 0.567411 0.055496
vt 0.566817 0.056885
vt 0.554947 0.05662
vt 0.78489 0.063384
vt 0.782597 0.065186
vt 0.781982 0.063886
vt 0.783581 0.062629
vt 0.581417 0.060791
vt 0.575439 0.059797
vt 0.576592 0.058567
vt 0.581331 0.059356
vt 0.963463 0.060791
vt 0.951416 0.06029
vt 0.951851 0.058905
vt 0.962587 0.059352
vt 0.926037 0.082764
vt 0.923584 0.081029
vt 0.924729 0.080122
vt 0.926538 0.081402
vt 0.983154 0.049135
vt 0.989314 0.049135
vt 0.988291 0.050537
vt 0.983565 0.050537
vt 0.510986 0.100771
vt 0.524445 0.100771
vt 0.524445 0.104736
vt 0.510986 0.104736
vt 0.300596 0.084731
vt 0.300596 0.087646
vt 0.296631 0.087646
vt 0.296631 0.084731
vt 0.584229 0.100771
vt 0.590288 0.100771
vt 0.590288 0.104736
vt 0.584229 0.104736
vt 0.568942 0.104736
vt 0.556885 0.104736
vt 0.556885 0.100771
vt 0.568942 0.100771
vt 0.17749 0.087646
vt 0.17749 0.084643
vt 0.181455 0.084643
vt 0.181455 0.087646
vt 0.547419 0.104736
vt 0.54126 0.104736
vt 0.54126 0.100771
vt 0.547419 0.100771
vt 0.570083 0.05546
vt 0.581954 0.055195
vt 0.582547 0.056584
vt 0.569092 0.056885
vt 0.79208 0.062629
vt 0.793679 0.063886
vt 0.793064 0.065186
vt 0.790771 0.063384
vt 0.59115 0.059356
vt 0.595889 0.058567
vt 0.597042 0.059797
vt 0.591064 0.060791
vt 0.935243 0.060344
vt 0.924507 0.060791
vt 0.924072 0.059406
vt 0.936119 0.058905
vt 0.936304 0.081484
vt 0.934494 0.082764
vt 0.93335 0.081856
vt 0.935802 0.080122
vt 0.996716 0.050537
vt 0.99199 0.050537
vt 0.990967 0.049135
vt 0.997126 0.049135
vt 0.787842 0.138671
vt 0.787842 0.133945
vt 0.799709 0.13432
vt 0.787842 0.138671
vt 0.799709 0.13432
vt 0.800697 0.136097
vt 0.787842 0.138671
vt 0.800697 0.136097
vt 0.800136 0.140869
vt 0.800136 0.140869
vt 0.789409 0.140238
vt 0.787842 0.138671
vt 0.814358 0.140494
vt 0.80249 0.140869
vt 0.80249 0.136143
vt 0.815345 0.138717
vt 0.814358 0.140494
vt 0.80249 0.136143
vt 0.814784 0.133945
vt 0.815345 0.138717
vt 0.80249 0.136143
vt 0.80249 0.136143
vt 0.804057 0.134576
vt 0.814784 0.133945
vn 0.707107 -0.706754 -0.022319
vn 0.707107 -0.343401 -0.618123
vn 0.721894 -0.051777 -0.690064
vn 0.707107 0.082619 -0.702264
vn 0.707107 0.705887 0.041523
vn 0.721046 0.680691 0.129434
vn 0.730945 0.167522 0.661555
vn 0.707107 0 0.707107
vn 0 -0.999502 -0.031563
vn 0 -0.485643 -0.874157
vn 0 -0.082364 -0.996602
vn 0 0.116841 -0.993151
vn 0 0.998274 0.058722
vn 0 0.707107 0.707107
vn 0 0 1
vn -0.707107 -0.706754 -0.022319
vn -0.707107 -0.343401 -0.618123
vn -0.721894 -0.051777 -0.690064
vn -0.707107 0.082619 -0.702264
vn -0.707107 0.705887 0.041523
vn -0.721046 0.680691 0.129434
vn -0.730945 0.167522 0.661555
vn -0.707107 0 0.707107
vn 1 0 0
vn -1 0 0
f 7/1/1 8/2/1 2/3/1 1/4/1
f 8/5/2 9/6/3 3/7/3 2/8/2
f 9/9/3 10/10/4 4/11/4 3/12/3
f 10/13/5 11/14/6 5/15/6 4/16/5
f 11/17/6 12/18/7 6/19/7 5/20/6
f 12/21/7 7/22/8 1/23/8 6/24/7
f 13/25/9 14/26/9 8/27/9 7/28/9
f 14/29/10 15/30/11 9/31/11 8/32/10
f 15/33/11 16/34/12 10/35/12 9/36/11
f 16/37/13 17/38/13 11/39/13 10/40/13
f 17/41/14 18/42/14 12/43/14 11/44/14
f 18/45/15 13/46/15 7/47/15 12/48/15
f 19/49/16 20/50/16 14/51/16 13/52/16
f 20/53/17 21/54/18 15/55/18 14/56/17
f 21/57/18 22/58/19 16/59/19 15/60/18
f 22/61/20 23/62/21 17/63/21 16/64/20
f 23/65/21 24/66/22 18/67/22 17/68/21
f 24/69/22 19/70/23 13/71/23 18/72/22
f 30/73/24 25/74/24 26/75/24
f 30/76/24 26/77/24 27/78/24
f 30/79/24 27/80/24 28/81/24
f 28/82/24 29/83/24 30/84/24
f 32/85/25 31/86/25 36/87/25
f 33/88/25 32/89/25 36/90/25
f 34/91/25 33/92/25 36/93/25
f 36/94/25 35/95/25 34/96/25
o item_gasoline_cover
usemtl fuel_dispenser
v 0.5375 0.476689 0.562118
v 0.5375 0.47864 0.501172
v 0.5375 0.492438 0.475546
v 0.5375 0.521182 0.4622
v 0.5375 0.552539 0.459065
v 0.5375 0.573218 0.468955
v 0.5375 0.583385 0.492062
v 0.5375 0.577921 0.535772
v 0.5375 0.563076 0.563607
v 0.52375 0.4625 0.575625
v 0.52375 0.465 0.4975
v 0.52375 0.4825 0.465
v 0.52375 0.5175 0.44875
v 0.52375 0.555 0.445
v 0.52375 0.58375 0.45875
v 0.52375 0.5975 0.49
v 0.52375 0.59125 0.54
v 0.52375 0.57125 0.5775
v 0.47625 0.4625 0.575625
v 0.47625 0.465 0.4975
v 0.47625 0.4825 0.465
v 0.47625 0.5175 0.44875
v 0.47625 0.555 0.445
v 0.47625 0.58375 0.45875
v 0.47625 0.5975 0.49
v 0.47625 0.59125 0.54
v 0.47625 0.57125 0.5775
v 0.4625 0.476689 0.562118
v 0.4625 0.47864 0.501172
v 0.4625 0.492438 0.475546
v 0.4625 0.521182 0.4622
v 0.4625 0.552539 0.459065
v 0.4625 0.573218 0.468955
v 0.4625 0.583385 0.492062
v 0.4625 0.577921 0.535772
v 0.4625 0.563076 0.563607
v 0.5375 0.476689 0.562118
v 0.5375 0.47864 0.501172
v 0.5375 0.492438 0.475546
v 0.5375 0.521182 0.4622
v 0.5375 0.552539 0.459065
v 0.5375 0.573218 0.468955
v 0.5375 0.583385 0.492062
v 0.5375 0.577921 0.535772
v 0.5375 0.563076 0.563607
v 0.4625 0.476689 0.562118
v 0.4625 0.47864 0.501172
v 0.4625 0.492438 0.475546
v 0.4625 0.521182 0.4622
v 0.4625 0.552539 0.459065
v 0.4625 0.573218 0.468955
v 0.4625 0.583385 0.492062
v 0.4625 0.577921 0.535772
v 0.4625 0.563076 0.563607
vt 0.376221 0.058397
vt 0.385073 0.058597
vt 0.384657 0.060791
vt 0.377751 0.060635
vt 0.509475 0.089655
vt 0.513382 0.091143
vt 0.512114 0.093018
vt 0.509033 0.091844
vt 0.831557 0.121199
vt 0.82772 0.12323
vt 0.826924 0.12116
vt 0.830075 0.119492
vt 0.82772 0.12323
vt 0.823609 0.124268
vt 0.823486 0.122027
vt 0.826924 0.12116
vt 0.156555 0.093018
vt 0.153564 0.090995
vt 0.155277 0.089494
vt 0.157428 0.090949
vt 0.068146 0.086498
vt 0.064453 0.087646
vt 0.064209 0.085415
vt 0.06694 0.084566
vt 0.798411 0.082764
vt 0.792725 0.082261
vt 0.793205 0.080092
vt 0.798176 0.080532
vt 0.404163 0.093018
vt 0.399658 0.091319
vt 0.401327 0.089594
vt 0.404671 0.090855
vt 0.940186 0.062722
vt 0.952503 0.063022
vt 0.950869 0.065186
vt 0.941084 0.064947
vt 0.862549 0.126699
vt 0.871403 0.126699
vt 0.871403 0.13208
vt 0.862549 0.13208
vt 0.20875 0.100555
vt 0.20875 0.104736
vt 0.203369 0.104736
vt 0.203369 0.100555
vt 0.213633 0.112572
vt 0.213633 0.116943
vt 0.208252 0.116943
vt 0.208252 0.112572
vt 0.474375 0.112674
vt 0.474375 0.116943
vt 0.468994 0.116943
vt 0.468994 0.112674
vt 0.894287 0.098877
vt 0.894287 0.095267
vt 0.899668 0.095267
vt 0.899668 0.098877
vt 0.516357 0.098877
vt 0.516357 0.095009
vt 0.521738 0.095009
vt 0.521738 0.098877
vt 0.889741 0.13208
vt 0.884033 0.13208
vt 0.884033 0.126699
vt 0.889741 0.126699
vt 0.506104 0.124268
vt 0.506104 0.119453
vt 0.511484 0.119453
vt 0.511484 0.124268
vt 0.911003 0.13208
vt 0.898682 0.13208
vt 0.898682 0.126699
vt 0.911003 0.126699
vt 0.388493 0.058553
vt 0.395399 0.058397
vt 0.395815 0.060591
vt 0.386963 0.060791
vt 0.514893 0.090829
vt 0.517974 0.089655
vt 0.519242 0.09153
vt 0.515334 0.093018
vt 0.834734 0.119492
vt 0.837885 0.12116
vt 0.837089 0.12323
vt 0.833252 0.121199
vt 0.837885 0.12116
vt 0.841323 0.122027
vt 0.8412 0.124268
vt 0.837089 0.12323
vt 0.158936 0.090949
vt 0.161086 0.089494
vt 0.162799 0.090995
vt 0.159809 0.093018
vt 0.055221 0.087646
vt 0.05249 0.086797
vt 0.052734 0.084566
vt 0.056427 0.085715
vt 0.8055 0.082324
vt 0.80053 0.082764
vt 0.800049 0.080595
vt 0.805735 0.080092
vt 0.418343 0.091757
vt 0.414999 0.093018
vt 0.41333 0.091293
vt 0.417835 0.089594
vt 0.965764 0.064947
vt 0.95598 0.065186
vt 0.954346 0.063022
vt 0.966663 0.062722
vt 0.234478 0.219847
vt 0.244264 0.220015
vt 0.244043 0.22692
vt 0.234478 0.219847
vt 0.244043 0.22692
vt 0.24248 0.229822
vt 0.234478 0.219847
vt 0.24248 0.229822
vt 0.239224 0.231334
vt 0.234478 0.219847
vt 0.239224 0.231334
vt 0.235672 0.231689
vt 0.234478 0.219847
vt 0.235672 0.231689
vt 0.23333 0.230569
vt 0.234478 0.219847
vt 0.23333 0.230569
vt 0.232178 0.227951
vt 0.232178 0.227951
vt 0.232797 0.223
vt 0.234478 0.219847
vt 0.246071 0.22692
vt 0.24585 0.220015
vt 0.255636 0.219847
vt 0.247634 0.229822
vt 0.246071 0.22692
vt 0.255636 0.219847
vt 0.25089 0.231334
vt 0.247634 0.229822
vt 0.255636 0.219847
vt 0.254442 0.231689
vt 0.25089 0.231334
vt 0.255636 0.219847
vt 0.256784 0.230569
vt 0.254442 0.231689
vt 0.255636 0.219847
vt 0.257936 0.227951
vt 0.256784 0.230569
vt 0.255636 0.219847
vt 0.255636 0.219847
vt 0.257317 0.223
vt 0.257936 0.227951
vn 0.707107 -0.706745 -0.022616
vn 0.715336 -0.687574 -0.124647
vn 0.725382 -0.466863 -0.505825
vn 0.712072 -0.186242 -0.676955
vn 0.720125 0.097305 -0.686988
vn 0.729458 0.49831 -0.468593
vn 0.719289 0.692363 -0.057064
vn 0.712934 0.672987 0.197011
vn 0.707107 0.623918 0.332756
vn 0.707107 -0.01219 0.707002
vn 0 -0.999488 -0.031984
vn 0 -0.984047 -0.177907
vn 0 -0.880471 -0.4741
vn 0 -0.421111 -0.907009
vn 0 -0.265929 -0.963993
vn 0 0.149253 -0.988799
vn 0 0.431455 -0.902134
vn 0 0.915315 -0.402739
vn 0 0.995767 -0.091917
vn 0 0.957826 0.287348
vn 0 0.882353 0.470588
vn 0 -0.017239 0.999851
vn -0.707107 -0.706745 -0.022616
vn -0.715336 -0.687574 -0.124647
vn -0.725382 -0.466863 -0.505825
vn -0.712072 -0.186242 -0.676955
vn -0.720125 0.097305 -0.686988
vn -0.729458 0.49831 -0.468593
vn -0.719289 0.692363 -0.057064
vn -0.712934 0.672987 0.197011
vn -0.707107 0.623918 0.332756
vn -0.707107 -0.01219 0.707002
vn 1 0 0
vn -1 0 0
f 46/97/26 47/98/27 38/99/27 37/100/26
f 47/101/27 48/102/28 39/103/28 38/104/27
f 48/105/28 49/106/29 40/107/29 39/108/28
f 49/109/29 50/110/30 41/111/30 40/112/29
f 50/113/30 51/114/31 42/115/31 41/116/30
f 51/117/31 52/118/32 43/119/32 42/120/31
f 52/121/32 53/122/33 44/123/33 43/124/32
f 53/125/33 54/126/34 45/127/34 44/128/33
f 54/129/35 46/130/35 37/131/35 45/132/35
f 55/133/36 56/134/37 47/135/37 46/136/36
f 56/137/37 57/138/38 48/139/38 47/140/37
f 57/141/39 58/142/40 49/143/40 48/144/39
f 58/145/40 59/146/41 50/147/41 49/148/40
f 59/149/41 60/150/42 51/151/42 50/152/41
f 60/153/43 61/154/44 52/155/44 51/156/43
f 61/157/44 62/158/45 53/159/45 52/160/44
f 62/161/45 63/162/46 54/163/46 53/164/45
f 63/165/47 55/166/47 46/167/47 54/168/47
f 64/169/48 65/170/49 56/171/49 55/172/48
f 65/173/49 66/174/50 57/175/50 56/176/49
f 66/177/50 67/178/51 58/179/51 57/180/50
f 67/181/51 68/182/52 59/183/52 58/184/51
f 68/185/52 69/186/53 60/187/53 59/188/52
f 69/189/53 70/190/54 61/191/54 60/192/53
f 70/193/54 71/194/55 62/195/55 61/196/54
f 71/197/55 72/198/56 63/199/56 62/200/55
f 72/201/57 64/202/57 55/203/57 63/204/57
f 81/205/58 73/206/58 74/207/58
f 81/208/58 74/209/58 75/210/58
f 81/211/58 75/212/58 76/213/58
f 81/214/58 76/215/58 77/216/58
f 81/217/58 77/218/58 78/219/58
f 81/220/58 78/221/58 79/222/58
f 79/223/58 80/224/58 81/225/58
f 83/226/59 82/227/59 90/228/59
f 84/229/59 83/230/59 90/231/59
f 85/232/59 84/233/59 90/234/59
f 86/235/59 85/236/59 90/237/59
f 87/238/59 86/239/59 90/240/59
f 88/241/59 87/242/59 90/243/59
f 90/244/59 89/245/59 88/246/59
o item_gasoline_guard
usemtl fuel_dispenser
v 0.51875 0.44 0.64125
v 0.51875 0.46 0.563125
v 0.51875 0.475 0.55875
v 0.51875 0.455 0.644375
v 0.48125 0.44 0.64125
v 0.48125 0.46 0.563125
v 0.48125 0.475 0.55875
v 0.48125 0.455 0.644375
v 0.51875 0.44 0.64125
v 0.51875 0.46 0.563125
v 0.51875 0.475 0.55875
v 0.51875 0.455 0.644375
v 0.48125 0.44 0.64125
v 0.48125 0.46 0.563125
v 0.48125 0.475 0.55875
v 0.48125 0.455 0.644375
v 0.5225 0.464592 0.531708
v 0.5225 0.412017 0.537822
v 0.5225 0.394897 0.603665
v 0.5225 0.405485 0.653292
v 0.5225 0.462564 0.678188
v 0.5225 0.460065 0.683917
v 0.5225 0.400042 0.657737
v 0.5225 0.388477 0.603523
v 0.5225 0.407045 0.532108
v 0.5225 0.46387 0.5255
v 0.51875 0.46875 0.535
v 0.51875 0.415 0.54125
v 0.51875 0.39875 0.60375
v 0.51875 0.40875 0.650625
v 0.51875 0.4675 0.67625
v 0.51875 0.462003 0.688853
v 0.51875 0.396777 0.660404
v 0.51875 0.384624 0.603438
v 0.51875 0.404061 0.528679
v 0.51875 0.467162 0.521342
v 0.48125 0.46875 0.535
v 0.48125 0.415 0.54125
v 0.48125 0.39875 0.60375
v 0.48125 0.40875 0.650625
v 0.48125 0.4675 0.67625
v 0.48125 0.462003 0.688853
v 0.48125 0.396777 0.660404
v 0.48125 0.384624 0.603438
v 0.48125 0.404061 0.528679
v 0.48125 0.467162 0.521342
v 0.4775 0.464592 0.531708
v 0.4775 0.412017 0.537822
v 0.4775 0.394897 0.603665
v 0.4775 0.405485 0.653292
v 0.4775 0.462564 0.678188
v 0.4775 0.460065 0.683917
v 0.4775 0.400042 0.657737
v 0.4775 0.388477 0.603523
v 0.4775 0.407045 0.532108
v 0.4775 0.46387 0.5255
v 0.5225 0.464592 0.531708
v 0.5225 0.412017 0.537822
v 0.5225 0.394897 0.603665
v 0.5225 0.405485 0.653292
v 0.5225 0.462564 0.678188
v 0.5225 0.460065 0.683917
v 0.5225 0.400042 0.657737
v 0.5225 0.388477 0.603523
v 0.5225 0.407045 0.532108
v 0.5225 0.46387 0.5255
v 0.4775 0.464592 0.531708
v 0.4775 0.412017 0.537822
v 0.4775 0.394897 0.603665
v 0.4775 0.405485 0.653292
v 0.4775 0.462564 0.678188
v 0.4775 0.460065 0.683917
v 0.4775 0.400042 0.657737
v 0.4775 0.388477 0.603523
v 0.4775 0.407045 0.532108
v 0.4775 0.46387 0.5255
vt 0.661865 0.106348
vt 0.671001 0.106348
vt 0.671001 0.110596
vt 0.661865 0.110596
vt 0.343359 0.055115
vt 0.343359 0.056885
vt 0.339111 0.056885
vt 0.339111 0.055115
vt 0.648389 0.110596
vt 0.638428 0.110596
vt 0.638428 0.106348
vt 0.648389 0.106348
vt 0.397705 0.056885
vt 0.397705 0.055149
vt 0.401953 0.055149
vt 0.401953 0.056885
vt 0.466064 0.102471
vt 0.466418 0.100771
vt 0.475269 0.103037
vt 0.475269 0.103037
vt 0.475764 0.104736
vt 0.466064 0.102471
vt 0.486499 0.102471
vt 0.477649 0.104736
vt 0.477295 0.103037
vt 0.477295 0.103037
vt 0.486995 0.100771
vt 0.486499 0.102471
vt 0.718018 0.056361
vt 0.724066 0.055366
vt 0.724451 0.055912
vt 0.718534 0.056885
vt 0.894158 0.060791
vt 0.886963 0.059468
vt 0.886973 0.058859
vt 0.894552 0.060253
vt 0.771543 0.056075
vt 0.766175 0.056885
vt 0.765869 0.056323
vt 0.771553 0.055466
vt 0.300369 0.104736
vt 0.294189 0.100924
vt 0.294866 0.100636
vt 0.30087 0.10434
vt 0.262963 0.017334
vt 0.261475 0.016875
vt 0.262058 0.016426
vt 0.262734 0.016635
vt 0.932861 0.119639
vt 0.939722 0.123871
vt 0.939221 0.124268
vt 0.932907 0.120373
vt 0.701416 0.056323
vt 0.707941 0.055339
vt 0.707931 0.055948
vt 0.701721 0.056885
vt 0.845957 0.058671
vt 0.854563 0.060253
vt 0.854168 0.060791
vt 0.845947 0.05928
vt 0.434103 0.055717
vt 0.427002 0.056885
vt 0.427324 0.056223
vt 0.433718 0.055171
vt 0.670254 0.012324
vt 0.668701 0.012451
vt 0.669075 0.011818
vt 0.669781 0.01176
vt 0.724636 0.110596
vt 0.718506 0.110596
vt 0.718506 0.106348
vt 0.724636 0.106348
vt 0.690665 0.110596
vt 0.68335 0.110596
vt 0.68335 0.106348
vt 0.690665 0.106348
vt 0.73956 0.110596
vt 0.734131 0.110596
vt 0.734131 0.106348
vt 0.73956 0.106348
vt 0.724302 0.116943
vt 0.717041 0.116943
vt 0.717041 0.112695
vt 0.724302 0.112695
vt 0.614502 0.056885
vt 0.614502 0.055327
vt 0.61875 0.055327
vt 0.61875 0.056885
vt 0.69751 0.112695
vt 0.705571 0.112695
vt 0.705571 0.116943
vt 0.69751 0.116943
vt 0.734619 0.112695
vt 0.741218 0.112695
vt 0.741218 0.116943
vt 0.734619 0.116943
vt 0.677002 0.112695
vt 0.685752 0.112695
vt 0.685752 0.116943
vt 0.677002 0.116943
vt 0.700928 0.106348
vt 0.708124 0.106348
vt 0.708124 0.110596
vt 0.700928 0.110596
vt 0.626221 0.056885
vt 0.626221 0.055327
vt 0.630469 0.055327
vt 0.630469 0.056885
vt 0.740536 0.056885
vt 0.734619 0.055912
vt 0.735004 0.055366
vt 0.741052 0.056361
vt 0.913107 0.059397
vt 0.905527 0.060791
vt 0.905518 0.060182
vt 0.912712 0.058859
vt 0.756905 0.056885
vt 0.751221 0.056027
vt 0.751526 0.055466
vt 0.756895 0.056276
vt 0.30249 0.10434
vt 0.308494 0.100636
vt 0.309171 0.100924
vt 0.302991 0.104736
vt 0.266152 0.017125
vt 0.265476 0.017334
vt 0.264893 0.016885
vt 0.266381 0.016426
vt 0.948465 0.120373
vt 0.942152 0.124268
vt 0.94165 0.123871
vt 0.948511 0.119639
vt 0.68512 0.055339
vt 0.691329 0.056276
vt 0.691339 0.056885
vt 0.684814 0.055901
vt 0.866455 0.060182
vt 0.874676 0.058671
vt 0.875071 0.059209
vt 0.866465 0.060791
vt 0.409808 0.055171
vt 0.416203 0.056223
vt 0.416525 0.056885
vt 0.409424 0.055717
vt 0.673199 0.012451
vt 0.672493 0.012393
vt 0.672119 0.01176
vt 0.673672 0.011887
vt 0.086549 0.151041
vt 0.085846 0.151123
vt 0.085153 0.145167
vt 0.072073 0.144427
vt 0.069252 0.150893
vt 0.068604 0.15061
vt 0.072073 0.144427
vt 0.068604 0.15061
vt 0.071569 0.143811
vt 0.077695 0.143228
vt 0.072073 0.144427
vt 0.071569 0.143811
vt 0.077695 0.143228
vt 0.071569 0.143811
vt 0.077711 0.142501
vt 0.085153 0.145167
vt 0.077695 0.143228
vt 0.077711 0.142501
vt 0.085153 0.145167
vt 0.077711 0.142501
vt 0.085801 0.144604
vt 0.085153 0.145167
vt 0.085801 0.144604
vt 0.086549 0.151041
vt 0.104685 0.148456
vt 0.105377 0.142501
vt 0.10608 0.142582
vt 0.088135 0.143013
vt 0.088784 0.14273
vt 0.091604 0.149196
vt 0.0911 0.149813
vt 0.088135 0.143013
vt 0.091604 0.149196
vt 0.0911 0.149813
vt 0.091604 0.149196
vt 0.097226 0.150396
vt 0.097242 0.151123
vt 0.0911 0.149813
vt 0.097226 0.150396
vt 0.097242 0.151123
vt 0.097226 0.150396
vt 0.104685 0.148456
vt 0.105332 0.14902
vt 0.097242 0.151123
vt 0.104685 0.148456
vt 0.10608 0.142582
vt 0.105332 0.14902
vt 0.104685 0.148456
vn 0 -0.968759 -0.248002
vn 0 -0.28 -0.96
vn 0 0.973789 0.227454
vn 0 -0.203954 0.97898
vn 1 0 0
vn -1 0 0
vn 0.707107 0.081671 0.702374
vn 0.707107 0.684354 0.177932
vn 0.716454 0.696509 0.039596
vn 0.707107 0.691545 -0.14753
vn 0.707107 0.282698 -0.648137
vn 0.707107 0.648137 0.282698
vn 0.707107 -0.282698 0.648137
vn 0.707107 -0.691545 0.14753
vn 0.71647 -0.696545 -0.038669
vn 0.707107 -0.684354 -0.177932
vn 0.707107 -0.081671 -0.702374
vn 0.707107 0.702374 -0.081671
vn 0 0.115501 0.993307
vn 0 0.967823 0.251634
vn 0 0.998371 0.05705
vn 0 0.977993 -0.208638
vn 0 0.399796 -0.916604
vn 0 0.916604 0.399796
vn 0 -0.399796 0.916604
vn 0 -0.977993 0.208638
vn 0 -0.998474 -0.055217
vn 0 -0.967823 -0.251634
vn 0 -0.115501 -0.993307
vn 0 0.993307 -0.115501
vn -0.707107 0.081671 0.702374
vn -0.707107 0.684354 0.177932
vn -0.716454 0.696509 0.039596
vn -0.707107 0.691545 -0.14753
vn -0.707107 0.282698 -0.648137
vn -0.707107 0.648137 0.282698
vn -0.707107 -0.282698 0.648137
vn -0.707107 -0.691545 0.14753
vn -0.71647 -0.696545 -0.038669
vn -0.707107 -0.684354 -0.177932
vn -0.707107 -0.081671 -0.702374
vn -0.707107 0.702374 -0.081671
f 95/247/60 96/248/60 92/249/60 91/250/60
f 96/251/61 97/252/61 93/253/61 92/254/61
f 97/255/62 98/256/62 94/257/62 93/258/62
f 98/259/63 95/260/63 91/261/63 94/262/63
f 102/263/64 99/264/64 100/265/64
f 100/266/64 101/267/64 102/268/64
f 104/269/65 103/270/65 106/271/65
f 106/272/65 105/273/65 104/274/65
f 117/275/66 118/276/66 108/277/66 107/278/66
f 118/279/67 119/280/68 109/281/68 108/282/67
f 119/283/68 120/284/69 110/285/69 109/286/68
f 120/287/70 121/288/70 111/289/70 110/290/70
f 121/291/71 122/292/71 112/293/71 111/294/71
f 122/295/72 123/296/72 113/297/72 112/298/72
f 123/299/73 124/300/74 114/301/74 113/302/73
f 124/303/74 125/304/75 115/305/75 114/306/74
f 125/307/76 126/308/76 116/309/76 115/310/76
f 126/311/77 117/312/77 107/313/77 116/314/77
f 127/315/78 128/316/78 118/317/78 117/318/78
f 128/319/79 129/320/80 119/321/80 118/322/79
f 129/323/80 130/324/81 120/325/81 119/326/80
f 130/327/82 131/328/82 121/329/82 120/330/82
f 131/331/83 132/332/83 122/333/83 121/334/83
f 132/335/84 133/336/84 123/337/84 122/338/84
f 133/339/85 134/340/86 124/341/86 123/342/85
f 134/343/86 135/344/87 125/345/87 124/346/86
f 135/347/88 136/348/88 126/349/88 125/350/88
f 136/351/89 127/352/89 117/353/89 126/354/89
f 137/355/90 138/356/90 128/357/90 127/358/90
f 138/359/91 139/360/92 129/361/92 128/362/91
f 139/363/92 140/364/93 130/365/93 129/366/92
f 140/367/94 141/368/94 131/369/94 130/370/94
f 141/371/95 142/372/95 132/373/95 131/374/95
f 142/375/96 143/376/96 133/377/96 132/378/96
f 143/379/97 144/380/98 134/381/98 133/382/97
f 144/383/98 145/384/99 135/385/99 134/386/98
f 145/387/100 146/388/100 136/389/100 135/390/100
f 146/391/101 137/392/101 127/393/101 136/394/101
f 156/395/64 147/396/64 148/397/64
f 150/398/64 151/399/64 152/400/64
f 150/401/64 152/402/64 153/403/64
f 149/404/64 150/405/64 153/406/64
f 149/407/64 153/408/64 154/409/64
f 148/410/64 149/411/64 154/412/64
f 148/413/64 154/414/64 155/415/64
f 148/416/64 155/417/64 156/418/64
f 158/419/65 157/420/65 166/421/65
f 162/422/65 161/423/65 160/424/65
f 163/425/65 162/426/65 160/427/65
f 163/428/65 160/429/65 159/430/65
f 164/431/65 163/432/65 159/433/65
f 164/434/65 159/435/65 158/436/65
f 165/437/65 164/438/65 158/439/65
f 166/440/65 165/441/65 158/442/65
o item_gasoline_steel
usemtl fuel_dispenser
v 0.475035 0.508112 0.7225
v 0.484571 0.521237 0.7225
v 0.5 0.52625 0.7225
v 0.515429 0.521237 0.7225
v 0.524965 0.508112 0.7225
v 0.524965 0.491888 0.7225
v 0.515429 0.478763 0.7225
v 0.5 0.47375 0.7225
v 0.484571 0.478763 0.7225
v 0.475035 0.491888 0.7225
v 0.475035 0.508112 0.66
v 0.484571 0.521237 0.66
v 0.5 0.52625 0.66
v 0.515429 0.521237 0.66
v 0.524965 0.508112 0.66
v 0.524965 0.491888 0.66
v 0.515429 0.478763 0.66
v 0.5 0.47375 0.66
v 0.484571 0.478763 0.66
v 0.475035 0.491888 0.66
v 0.5 0.5 0.7225
v 0.5 0.5 0.66
v 0.512703 0.557306 0.457716
v 0.505262 0.54996 0.458905
v 0.494738 0.54996 0.458905
v 0.487297 0.557306 0.457716
v 0.487297 0.567694 0.456034
v 0.494738 0.57504 0.454845
v 0.505262 0.57504 0.454845
v 0.512703 0.567694 0.456034
v 0.512703 0.551305 0.420649
v 0.505262 0.543986 0.421993
v 0.494738 0.543986 0.421993
v 0.487297 0.551305 0.420649
v 0.487297 0.561656 0.418749
v 0.494738 0.568975 0.417405
v 0.505262 0.568975 0.417405
v 0.512703 0.561656 0.418749
v 0.512703 0.546129 0.396713
v 0.505262 0.538982 0.398785
v 0.494738 0.538982 0.398785
v 0.487297 0.546129 0.396713
v 0.487297 0.556237 0.393782
v 0.494738 0.563384 0.39171
v 0.505262 0.563384 0.39171
v 0.512703 0.556237 0.393782
v 0.512703 0.535409 0.365833
v 0.505262 0.528493 0.368579
v 0.494738 0.528493 0.368579
v 0.487297 0.535409 0.365833
v 0.487297 0.54519 0.361949
v 0.494738 0.552106 0.359202
v 0.505262 0.552106 0.359202
v 0.512703 0.54519 0.361949
v 0.512703 0.524717 0.342783
v 0.505262 0.518112 0.346211
v 0.494738 0.518112 0.346211
v 0.487297 0.524717 0.342783
v 0.487297 0.534057 0.337935
v 0.494738 0.540662 0.334507
v 0.505262 0.540662 0.334507
v 0.512703 0.534057 0.337935
v 0.512703 0.516282 0.328945
v 0.505262 0.510155 0.333168
v 0.494738 0.510155 0.333168
v 0.487297 0.516282 0.328945
v 0.487297 0.524947 0.322972
v 0.494738 0.531074 0.318749
v 0.505262 0.531074 0.318749
v 0.512703 0.524947 0.322972
v 0.512703 0.506572 0.31647
v 0.505262 0.500963 0.321361
v 0.494738 0.500963 0.321361
v 0.487297 0.506572 0.31647
v 0.487297 0.514504 0.309554
v 0.494738 0.520112 0.304663
v 0.505262 0.520112 0.304663
v 0.512703 0.514504 0.309554
v 0.512703 0.495079 0.304644
v 0.505262 0.489969 0.310054
v 0.494738 0.489969 0.310054
v 0.487297 0.495079 0.304644
v 0.487297 0.502306 0.296994
v 0.494738 0.507416 0.291584
v 0.505262 0.507416 0.291584
v 0.512703 0.502306 0.296994
v 0.512703 0.484081 0.29525
v 0.505262 0.479245 0.300906
v 0.494738 0.479245 0.300906
v 0.487297 0.484081 0.29525
v 0.487297 0.490919 0.28725
v 0.494738 0.495755 0.281594
v 0.505262 0.495755 0.281594
v 0.512703 0.490919 0.28725
v 0.5 0.5625 0.456875
v 0.5 0.4875 0.29125
vt 0.018799 0.056885
vt 0.018799 0.055047
vt 0.025879 0.055047
vt 0.025879 0.056885
vt 0.027588 0.056885
vt 0.027588 0.055047
vt 0.034668 0.055047
vt 0.034668 0.056885
vt 0.036377 0.056885
vt 0.036377 0.055047
vt 0.043457 0.055047
vt 0.043457 0.056885
vt 0.141846 0.056885
vt 0.141846 0.055047
vt 0.148926 0.055047
vt 0.148926 0.056885
vt 0.045166 0.056885
vt 0.045166 0.055047
vt 0.052246 0.055047
vt 0.052246 0.056885
vt 0.053955 0.056885
vt 0.053955 0.055047
vt 0.061035 0.055047
vt 0.061035 0.056885
vt 0.062744 0.056885
vt 0.062744 0.055047
vt 0.069824 0.055047
vt 0.069824 0.056885
vt 0.071533 0.056885
vt 0.071533 0.055047
vt 0.078613 0.055047
vt 0.078613 0.056885
vt 0.97876 0.060791
vt 0.97876 0.058953
vt 0.98584 0.058953
vt 0.98584 0.060791
vt 0.994629 0.058953
vt 0.994629 0.060791
vt 0.987549 0.060791
vt 0.987549 0.058953
vt 0.641366 0.131
vt 0.639879 0.13208
vt 0.63896 0.129252
vt 0.641934 0.129252
vt 0.641366 0.131
vt 0.63896 0.129252
vt 0.641366 0.127504
vt 0.641934 0.129252
vt 0.63896 0.129252
vt 0.639879 0.126424
vt 0.641366 0.127504
vt 0.63896 0.129252
vt 0.638041 0.126424
vt 0.639879 0.126424
vt 0.63896 0.129252
vt 0.636554 0.127504
vt 0.638041 0.126424
vt 0.63896 0.129252
vt 0.635986 0.129252
vt 0.636554 0.127504
vt 0.63896 0.129252
vt 0.636554 0.131
vt 0.635986 0.129252
vt 0.63896 0.129252
vt 0.638041 0.13208
vt 0.636554 0.131
vt 0.63896 0.129252
vt 0.639879 0.13208
vt 0.638041 0.13208
vt 0.63896 0.129252
vt 0.646772 0.129252
vt 0.647691 0.126424
vt 0.649178 0.127504
vt 0.646772 0.129252
vt 0.649178 0.127504
vt 0.649746 0.129252
vt 0.646772 0.129252
vt 0.649746 0.129252
vt 0.649178 0.131
vt 0.646772 0.129252
vt 0.649178 0.131
vt 0.647691 0.13208
vt 0.646772 0.129252
vt 0.647691 0.13208
vt 0.645854 0.13208
vt 0.646772 0.129252
vt 0.645854 0.13208
vt 0.644367 0.131
vt 0.646772 0.129252
vt 0.644367 0.131
vt 0.643799 0.129252
vt 0.646772 0.129252
vt 0.643799 0.129252
vt 0.644367 0.127504
vt 0.646772 0.129252
vt 0.644367 0.127504
vt 0.645854 0.126424
vt 0.646772 0.129252
vt 0.645854 0.126424
vt 0.647691 0.126424
vt 0.141988 0.116943
vt 0.141846 0.11576
vt 0.14602 0.115266
vt 0.146179 0.116447
vt 0.974365 0.038818
vt 0.974365 0.037626
vt 0.978568 0.037626
vt 0.978568 0.038818
vt 0.175049 0.11365
vt 0.175191 0.112466
vt 0.179382 0.112963
vt 0.179223 0.114144
vt 0.001221 0.186285
vt 0.001411 0.185108
vt 0.005635 0.185792
vt 0.00542 0.186965
vt 0.862549 0.120731
vt 0.862691 0.119547
vt 0.866925 0.120049
vt 0.866765 0.12123
vt 0.744873 0.038818
vt 0.744873 0.037626
vt 0.749136 0.037626
vt 0.749136 0.038818
vt 0.897847 0.124268
vt 0.897705 0.123084
vt 0.901921 0.122584
vt 0.902081 0.123766
vt 0.940376 0.205811
vt 0.940186 0.204634
vt 0.944384 0.203954
vt 0.9446 0.205127
vt 0.146179 0.116447
vt 0.14602 0.115266
vt 0.148666 0.114851
vt 0.148909 0.116019
vt 0.978568 0.038818
vt 0.978568 0.037626
vt 0.98125 0.037626
vt 0.98125 0.038818
vt 0.179223 0.114144
vt 0.179382 0.112963
vt 0.182112 0.113391
vt 0.18187 0.114558
vt 0.00542 0.186965
vt 0.005635 0.185792
vt 0.008463 0.186406
vt 0.008131 0.187551
vt 0.866765 0.12123
vt 0.866925 0.120049
vt 0.869856 0.120512
vt 0.869613 0.121679
vt 0.749136 0.038818
vt 0.749136 0.037626
vt 0.752107 0.037626
vt 0.752107 0.038818
vt 0.902081 0.123766
vt 0.901921 0.122584
vt 0.904769 0.122136
vt 0.905012 0.123303
vt 0.9446 0.205127
vt 0.944384 0.203954
vt 0.947096 0.203368
vt 0.947428 0.204513
vt 0.148909 0.116019
vt 0.148666 0.114851
vt 0.152183 0.113984
vt 0.152504 0.115132
vt 0.98125 0.038818
vt 0.98125 0.037626
vt 0.984868 0.037626
vt 0.984868 0.038818
vt 0.18187 0.114558
vt 0.182112 0.113391
vt 0.185708 0.114278
vt 0.185386 0.115426
vt 0.008131 0.187551
vt 0.008463 0.186406
vt 0.012069 0.187658
vt 0.011629 0.188765
vt 0.869613 0.121679
vt 0.869856 0.120512
vt 0.87364 0.121445
vt 0.873319 0.122593
vt 0.752107 0.038818
vt 0.752107 0.037626
vt 0.756001 0.037626
vt 0.756001 0.038818
vt 0.905012 0.123303
vt 0.904769 0.122136
vt 0.908475 0.121222
vt 0.908797 0.12237
vt 0.947428 0.204513
vt 0.947096 0.203368
vt 0.950594 0.202153
vt 0.951034 0.203261
vt 0.152504 0.115132
vt 0.152183 0.113984
vt 0.154835 0.113125
vt 0.155237 0.114247
vt 0.984868 0.038818
vt 0.984868 0.037626
vt 0.987631 0.037626
vt 0.987631 0.038818
vt 0.185386 0.115426
vt 0.185708 0.114278
vt 0.18844 0.115163
vt 0.188038 0.116285
vt 0.011629 0.188765
vt 0.012069 0.187658
vt 0.01479 0.188919
vt 0.01424 0.189977
vt 0.873319 0.122593
vt 0.87364 0.121445
vt 0.876567 0.122392
vt 0.876165 0.123514
vt 0.756001 0.038818
vt 0.756001 0.037626
vt 0.75905 0.037626
vt 0.75905 0.038818
vt 0.908797 0.12237
vt 0.908475 0.121222
vt 0.911321 0.120301
vt 0.911723 0.121423
vt 0.951034 0.203261
vt 0.950594 0.202153
vt 0.953205 0.200942
vt 0.953754 0.202
vt 0.155237 0.114247
vt 0.154835 0.113125
vt 0.156415 0.112466
vt 0.156913 0.113549
vt 0.016357 0.035889
vt 0.016357 0.034697
vt 0.018065 0.034697
vt 0.018065 0.035889
vt 0.188038 0.116285
vt 0.18844 0.115163
vt 0.190116 0.115861
vt 0.189618 0.116943
vt 0.01424 0.189977
vt 0.01479 0.188919
vt 0.016485 0.189951
vt 0.015808 0.190932
vt 0.876165 0.123514
vt 0.876567 0.122392
vt 0.878476 0.123185
vt 0.877978 0.124268
vt 0.725342 0.038818
vt 0.725342 0.037626
vt 0.727403 0.037626
vt 0.727403 0.038818
vt 0.911723 0.121423
vt 0.911321 0.120301
vt 0.913134 0.119547
vt 0.913632 0.12063
vt 0.953754 0.202
vt 0.953205 0.200942
vt 0.954773 0.199986
vt 0.955449 0.200968
vt 0.231755 0.098877
vt 0.231201 0.097821
vt 0.232665 0.096976
vt 0.233302 0.097984
vt 0.018065 0.035889
vt 0.018065 0.034697
vt 0.019758 0.034697
vt 0.019758 0.035889
vt 0.244873 0.096034
vt 0.245427 0.094979
vt 0.246973 0.095872
vt 0.246337 0.09688
vt 0.015808 0.190932
vt 0.016485 0.189951
vt 0.018005 0.191134
vt 0.017221 0.192032
vt 0.176025 0.101608
vt 0.176579 0.100552
vt 0.178326 0.10156
vt 0.177689 0.102568
vt 0.727403 0.038818
vt 0.727403 0.037626
vt 0.729423 0.037626
vt 0.729423 0.038818
vt 0.190251 0.104736
vt 0.189697 0.103681
vt 0.191361 0.10272
vt 0.191997 0.103729
vt 0.955449 0.200968
vt 0.954773 0.199986
vt 0.956186 0.198887
vt 0.95697 0.199785
vt 0.233302 0.097984
vt 0.232665 0.096976
vt 0.234138 0.095965
vt 0.234842 0.096927
vt 0.019758 0.035889
vt 0.019758 0.034697
vt 0.021541 0.034697
vt 0.021541 0.035889
vt 0.246337 0.09688
vt 0.246973 0.095872
vt 0.248514 0.096929
vt 0.24781 0.097891
vt 0.017221 0.192032
vt 0.018005 0.191134
vt 0.019428 0.192516
vt 0.018561 0.193334
vt 0.177689 0.102568
vt 0.178326 0.10156
vt 0.180029 0.102727
vt 0.179325 0.103689
vt 0.729423 0.038818
vt 0.729423 0.037626
vt 0.731484 0.037626
vt 0.731484 0.038818
vt 0.191997 0.103729
vt 0.191361 0.10272
vt 0.192997 0.101599
vt 0.193701 0.102561
vt 0.95697 0.199785
vt 0.956186 0.198887
vt 0.957526 0.197585
vt 0.958392 0.198403
vt 0.234842 0.096927
vt 0.234138 0.095965
vt 0.235389 0.094979
vt 0.236126 0.095916
vt 0.021541 0.035889
vt 0.021541 0.034697
vt 0.023119 0.034697
vt 0.023119 0.035889
vt 0.24781 0.097891
vt 0.248514 0.096929
vt 0.249798 0.09794
vt 0.249061 0.098877
vt 0.018561 0.193334
vt 0.019428 0.192516
vt 0.020531 0.193805
vt 0.019625 0.19458
vt 0.179325 0.103689
vt 0.180029 0.102727
vt 0.181393 0.103799
vt 0.180656 0.104736
vt 0.731484 0.038818
vt 0.731484 0.037626
vt 0.733203 0.037626
vt 0.733203 0.038818
vt 0.193701 0.102561
vt 0.192997 0.101599
vt 0.194328 0.100552
vt 0.195065 0.101489
vt 0.958392 0.198403
vt 0.957526 0.197585
vt 0.95859 0.196339
vt 0.959496 0.197113
vt 0.398275 0.084768
vt 0.399118 0.085611
vt 0.397679 0.086207
vt 0.397083 0.084768
vt 0.398275 0.084768
vt 0.397679 0.086207
vt 0.39624 0.085611
vt 0.397083 0.084768
vt 0.397679 0.086207
vt 0.39624 0.086804
vt 0.39624 0.085611
vt 0.397679 0.086207
vt 0.397083 0.087646
vt 0.39624 0.086804
vt 0.397679 0.086207
vt 0.398275 0.087646
vt 0.397083 0.087646
vt 0.397679 0.086207
vt 0.399118 0.086804
vt 0.398275 0.087646
vt 0.397679 0.086207
vt 0.399118 0.085611
vt 0.399118 0.086804
vt 0.397679 0.086207
vt 0.38889 0.086207
vt 0.387451 0.085611
vt 0.388294 0.084768
vt 0.38889 0.086207
vt 0.388294 0.084768
vt 0.389486 0.084768
vt 0.38889 0.086207
vt 0.389486 0.084768
vt 0.390329 0.085611
vt 0.38889 0.086207
vt 0.390329 0.085611
vt 0.390329 0.086804
vt 0.38889 0.086207
vt 0.390329 0.086804
vt 0.389486 0.087646
vt 0.38889 0.086207
vt 0.389486 0.087646
vt 0.388294 0.087646
vt 0.38889 0.086207
vt 0.388294 0.087646
vt 0.387451 0.086804
vt 0.38889 0.086207
vt 0.387451 0.086804
vt 0.387451 0.085611
vn -0.809017 0.587785 0
vn -0.587785 0.809017 0
vn 0 1 0
vn 0.587785 0.809017 0
vn 0.951057 0.309017 0
vn 0.951057 -0.309017 0
vn 0.587785 -0.809017 0
vn 0 -1 0
vn -0.587785 -0.809017 0
vn -0.809017 -0.587785 0
vn 1 0 0
vn 0 0 1
vn 0 0 -1
vn 0.924264 -0.37685 0.060997
vn 0.383048 -0.911863 0.147581
vn 0.383991 -0.908297 0.165973
vn 0.925225 -0.373227 0.068267
vn -0.383048 -0.911863 0.147581
vn -0.383991 -0.908297 0.165973
vn -0.924264 -0.37685 0.060997
vn -0.925225 -0.373227 0.068267
vn -0.923466 0.378744 -0.061345
vn -0.922463 0.379687 -0.069993
vn -0.382251 0.912169 -0.147754
vn -0.381233 0.909133 -0.167744
vn 0.382251 0.912169 -0.147754
vn 0.381233 0.909133 -0.167744
vn 0.923466 0.378744 -0.061345
vn 0.922463 0.379687 -0.069993
vn 0.385348 -0.886248 0.257044
vn 0.926368 -0.361716 0.104903
vn -0.385348 -0.886248 0.257044
vn -0.926368 -0.361716 0.104903
vn -0.921565 0.372875 -0.108081
vn -0.380526 0.888214 -0.257441
vn 0.380526 0.888214 -0.257441
vn 0.921565 0.372875 -0.108081
vn 0.385144 -0.85774 0.340509
vn 0.926265 -0.350277 0.139062
vn -0.385144 -0.85774 0.340509
vn -0.926265 -0.350277 0.139062
vn -0.921535 0.360873 -0.14333
vn -0.380407 0.859502 -0.34139
vn 0.380407 0.859502 -0.34139
vn 0.921535 0.360873 -0.14333
vn 0.386644 -0.818879 0.424197
vn 0.927667 -0.331535 0.171807
vn -0.386644 -0.818879 0.424197
vn -0.927667 -0.331535 0.171807
vn -0.920172 0.347406 -0.180534
vn -0.379126 0.821042 -0.426795
vn 0.379126 0.821042 -0.426795
vn 0.920172 0.347406 -0.180534
vn 0.388147 -0.758563 0.523378
vn 0.929038 -0.304554 0.210085
vn -0.388147 -0.758563 0.523378
vn -0.929038 -0.304554 0.210085
vn -0.918841 0.325 -0.223844
vn -0.377898 0.762531 -0.52511
vn 0.377898 0.762531 -0.52511
vn 0.918841 0.325 -0.223844
vn 0.387525 -0.694418 0.606306
vn 0.928439 -0.279865 0.244289
vn -0.387525 -0.694418 0.606306
vn -0.928439 -0.279865 0.244289
vn -0.919475 0.296433 -0.25825
vn -0.378516 0.697959 -0.607931
vn 0.378516 0.697959 -0.607931
vn 0.919475 0.296433 -0.25825
vn 0.386186 -0.632555 0.671368
vn 0.927216 -0.256905 0.272526
vn -0.386186 -0.632555 0.671368
vn -0.927216 -0.256905 0.272526
vn -0.92065 0.268341 -0.283543
vn -0.379599 0.636065 -0.671808
vn 0.379599 0.636065 -0.671808
vn 0.92065 0.268341 -0.283543
vn 0.384961 -0.599061 0.702091
vn 0.926211 -0.244763 0.286746
vn -0.384961 -0.599061 0.702091
vn -0.926211 -0.244763 0.286746
vn -0.921417 0.252718 -0.295167
vn -0.380177 0.601658 -0.702477
vn 0.380177 0.601658 -0.702477
vn 0.921417 0.252718 -0.295167
vn 0 0.159833 0.987144
vn 0 -0.760088 -0.64982
f 167/443/102 168/444/103 178/445/103 177/446/102
f 168/447/103 169/448/104 179/449/104 178/450/103
f 169/451/104 170/452/105 180/453/105 179/454/104
f 170/455/105 171/456/106 181/457/106 180/458/105
f 171/459/106 172/460/107 182/461/107 181/462/106
f 172/463/107 173/464/108 183/465/108 182/466/107
f 173/467/108 174/468/109 184/469/109 183/470/108
f 174/471/109 175/472/110 185/473/110 184/474/109
f 175/475/110 176/476/111 186/477/111 185/478/110
f 186/479/112 177/480/112 167/481/112 176/482/112
f 168/483/113 167/484/113 187/485/113
f 169/486/113 168/487/113 187/488/113
f 170/489/113 169/490/113 187/491/113
f 171/492/113 170/493/113 187/494/113
f 172/495/113 171/496/113 187/497/113
f 173/498/113 172/499/113 187/500/113
f 174/501/113 173/502/113 187/503/113
f 175/504/113 174/505/113 187/506/113
f 176/507/113 175/508/113 187/509/113
f 167/510/113 176/511/113 187/512/113
f 188/513/114 177/514/114 178/515/114
f 188/516/114 178/517/114 179/518/114
f 188/519/114 179/520/114 180/521/114
f 188/522/114 180/523/114 181/524/114
f 188/525/114 181/526/114 182/527/114
f 188/528/114 182/529/114 183/530/114
f 188/531/114 183/532/114 184/533/114
f 188/534/114 184/535/114 185/536/114
f 188/537/114 185/538/114 186/539/114
f 188/540/114 186/541/114 177/542/114
f 189/543/115 190/544/116 198/545/117 197/546/118
f 190/547/116 191/548/119 199/549/120 198/550/117
f 191/551/119 192/552/121 200/553/122 199/554/120
f 192/555/121 193/556/123 201/557/124 200/558/122
f 193/559/123 194/560/125 202/561/126 201/562/124
f 194/563/125 195/564/127 203/565/128 202/566/126
f 195/567/127 196/568/129 204/569/130 203/570/128
f 196/571/129 189/572/115 197/573/118 204/574/130
f 197/575/118 198/576/117 206/577/131 205/578/132
f 198/579/117 199/580/120 207/581/133 206/582/131
f 199/583/120 200/584/122 208/585/134 207/586/133
f 200/587/122 201/588/124 209/589/135 208/590/134
f 201/591/124 202/592/126 210/593/136 209/594/135
f 202/595/126 203/596/128 211/597/137 210/598/136
f 203/599/128 204/600/130 212/601/138 211/602/137
f 204/603/130 197/604/118 205/605/132 212/606/138
f 205/607/132 206/608/131 214/609/139 213/610/140
f 206/611/131 207/612/133 215/613/141 214/614/139
f 207/615/133 208/616/134 216/617/142 215/618/141
f 208/619/134 209/620/135 217/621/143 216/622/142
f 209/623/135 210/624/136 218/625/144 217/626/143
f 210/627/136 211/628/137 219/629/145 218/630/144
f 211/631/137 212/632/138 220/633/146 219/634/145
f 212/635/138 205/636/132 213/637/140 220/638/146
f 213/639/140 214/640/139 222/641/147 221/642/148
f 214/643/139 215/644/141 223/645/149 222/646/147
f 215/647/141 216/648/142 224/649/150 223/650/149
f 216/651/142 217/652/143 225/653/151 224/654/150
f 217/655/143 218/656/144 226/657/152 225/658/151
f 218/659/144 219/660/145 227/661/153 226/662/152
f 219/663/145 220/664/146 228/665/154 227/666/153
f 220/667/146 213/668/140 221/669/148 228/670/154
f 221/671/148 222/672/147 230/673/155 229/674/156
f 222/675/147 223/676/149 231/677/157 230/678/155
f 223/679/149 224/680/150 232/681/158 231/682/157
f 224/683/150 225/684/151 233/685/159 232/686/158
f 225/687/151 226/688/152 234/689/160 233/690/159
f 226/691/152 227/692/153 235/693/161 234/694/160
f 227/695/153 228/696/154 236/697/162 235/698/161
f 228/699/154 221/700/148 229/701/156 236/702/162
f 229/703/156 230/704/155 238/705/163 237/706/164
f 230/707/155 231/708/157 239/709/165 238/710/163
f 231/711/157 232/712/158 240/713/166 239/714/165
f 232/715/158 233/716/159 241/717/167 240/718/166
f 233/719/159 234/720/160 242/721/168 241/722/167
f 234/723/160 235/724/161 243/725/169 242/726/168
f 235/727/161 236/728/162 244/729/170 243/730/169
f 236/731/162 229/732/156 237/733/164 244/734/170
f 237/735/164 238/736/163 246/737/171 245/738/172
f 238/739/163 239/740/165 247/741/173 246/742/171
f 239/743/165 240/744/166 248/745/174 247/746/173
f 240/747/166 241/748/167 249/749/175 248/750/174
f 241/751/167 242/752/168 250/753/176 249/754/175
f 242/755/168 243/756/169 251/757/177 250/758/176
f 243/759/169 244/760/170 252/761/178 251/762/177
f 244/763/170 237/764/164 245/765/172 252/766/178
f 245/767/172 246/768/171 254/769/179 253/770/180
f 246/771/171 247/772/173 255/773/181 254/774/179
f 247/775/173 248/776/174 256/777/182 255/778/181
f 248/779/174 249/780/175 257/781/183 256/782/182
f 249/783/175 250/784/176 258/785/184 257/786/183
f 250/787/176 251/788/177 259/789/185 258/790/184
f 251/791/177 252/792/178 260/793/186 259/794/185
f 252/795/178 245/796/172 253/797/180 260/798/186
f 190/799/187 189/800/187 261/801/187
f 191/802/187 190/803/187 261/804/187
f 192/805/187 191/806/187 261/807/187
f 193/808/187 192/809/187 261/810/187
f 194/811/187 193/812/187 261/813/187
f 195/814/187 194/815/187 261/816/187
f 196/817/187 195/818/187 261/819/187
f 189/820/187 196/821/187 261/822/187
f 262/823/188 253/824/188 254/825/188
f 262/826/188 254/827/188 255/828/188
f 262/829/188 255/830/188 256/831/188
f 262/832/188 256/833/188 257/834/188
f 262/835/188 257/836/188 258/837/188
f 262/838/188 258/839/188 259/840/188
f 262/841/188 259/842/188 260/843/188
f 262/844/188 260/845/188 253/846/188
o item_gasoline_collar
usemtl fuel_dispenser
v 0.480979 0.56868 0.463125
v 0.488244 0.57868 0.463125
v 0.5 0.5825 0.463125
v 0.511756 0.57868 0.463125
v 0.519021 0.56868 0.463125
v 0.519021 0.55632 0.463125
v 0.511756 0.54632 0.463125
v 0.5 0.5425 0.463125
v 0.488244 0.54632 0.463125
v 0.480979 0.55632 0.463125
v 0.480979 0.56868 0.431875
v 0.488244 0.57868 0.431875
v 0.5 0.5825 0.431875
v 0.511756 0.57868 0.431875
v 0.519021 0.56868 0.431875
v 0.519021 0.55632 0.431875
v 0.511756 0.54632 0.431875
v 0.5 0.5425 0.431875
v 0.488244 0.54632 0.431875
v 0.480979 0.55632 0.431875
v 0.5 0.5625 0.463125
v 0.5 0.5625 0.431875
vt 0.136963 0.047607
vt 0.136963 0.046207
vt 0.140503 0.046207
vt 0.140503 0.047607
vt 0.169189 0.047607
vt 0.169189 0.046207
vt 0.172729 0.046207
vt 0.172729 0.047607
vt 0.158447 0.047607
vt 0.158447 0.046207
vt 0.161987 0.046207
vt 0.161987 0.047607
vt 0.174561 0.047607
vt 0.174561 0.046207
vt 0.178101 0.046207
vt 0.178101 0.047607
vt 0.179932 0.047607
vt 0.179932 0.046207
vt 0.183472 0.046207
vt 0.183472 0.047607
vt 0.147705 0.047607
vt 0.147705 0.046207
vt 0.151245 0.046207
vt 0.151245 0.047607
vt 0.185303 0.047607
vt 0.185303 0.046207
vt 0.188843 0.046207
vt 0.188843 0.047607
vt 0.190674 0.047607
vt 0.190674 0.046207
vt 0.194214 0.046207
vt 0.194214 0.047607
vt 0.196045 0.047607
vt 0.196045 0.046207
vt 0.199585 0.046207
vt 0.199585 0.047607
vt 0.204956 0.046207
vt 0.204956 0.047607
vt 0.201416 0.047607
vt 0.201416 0.046207
vt 0.447702 0.11612
vt 0.446569 0.116943
vt 0.445869 0.114789
vt 0.448135 0.114789
vt 0.447702 0.11612
vt 0.445869 0.114789
vt 0.447702 0.113457
vt 0.448135 0.114789
vt 0.445869 0.114789
vt 0.446569 0.112634
vt 0.447702 0.113457
vt 0.445869 0.114789
vt 0.445169 0.112634
vt 0.446569 0.112634
vt 0.445869 0.114789
vt 0.444036 0.113457
vt 0.445169 0.112634
vt 0.445869 0.114789
vt 0.443604 0.114789
vt 0.444036 0.113457
vt 0.445869 0.114789
vt 0.444036 0.11612
vt 0.443604 0.114789
vt 0.445869 0.114789
vt 0.445169 0.116943
vt 0.444036 0.11612
vt 0.445869 0.114789
vt 0.446569 0.116943
vt 0.445169 0.116943
vt 0.445869 0.114789
vt 0.452217 0.114789
vt 0.452917 0.112634
vt 0.45405 0.113457
vt 0.452217 0.114789
vt 0.45405 0.113457
vt 0.454482 0.114789
vt 0.452217 0.114789
vt 0.454482 0.114789
vt 0.45405 0.11612
vt 0.452217 0.114789
vt 0.45405 0.11612
vt 0.452917 0.116943
vt 0.452217 0.114789
vt 0.452917 0.116943
vt 0.451517 0.116943
vt 0.452217 0.114789
vt 0.451517 0.116943
vt 0.450384 0.11612
vt 0.452217 0.114789
vt 0.450384 0.11612
vt 0.449951 0.114789
vt 0.452217 0.114789
vt 0.449951 0.114789
vt 0.450384 0.113457
vt 0.452217 0.114789
vt 0.450384 0.113457
vt 0.451517 0.112634
vt 0.452217 0.114789
vt 0.451517 0.112634
vt 0.452917 0.112634
vn -0.809017 0.587785 0
vn -0.587785 0.809017 0
vn -0.309017 0.951057 0
vn 0.309017 0.951057 0
vn 0.587785 0.809017 0
vn 0.809017 0.587785 0
vn 1 0 0
vn 0.951057 -0.309017 0
vn 0.587785 -0.809017 0
vn 0.309017 -0.951057 0
vn -0.309017 -0.951057 0
vn -0.587785 -0.809017 0
vn -0.809017 -0.587785 0
vn 0 0 1
vn 0 0 -1
f 263/847/189 264/848/190 274/849/190 273/850/189
f 264/851/190 265/852/191 275/853/191 274/854/190
f 265/855/192 266/856/193 276/857/193 275/858/192
f 266/859/193 267/860/194 277/861/194 276/862/193
f 267/863/195 268/864/196 278/865/196 277/866/195
f 268/867/196 269/868/197 279/869/197 278/870/196
f 269/871/197 270/872/198 280/873/198 279/874/197
f 270/875/199 271/876/200 281/877/200 280/878/199
f 271/879/200 272/880/201 282/881/201 281/882/200
f 282/883/195 273/884/195 263/885/195 272/886/195
f 264/887/202 263/888/202 283/889/202
f 265/890/202 264/891/202 283/892/202
f 266/893/202 265/894/202 283/895/202
f 267/896/202 266/897/202 283/898/202
f 268/899/202 267/900/202 283/901/202
f 269/902/202 268/903/202 283/904/202
f 270/905/202 269/906/202 283/907/202
f 271/908/202 270/909/202 283/910/202
f 272/911/202 271/912/202 283/913/202
f 263/914/202 272/915/202 283/916/202
f 284/917/203 273/918/203 274/919/203
f 284/920/203 274/921/203 275/922/203
f 284/923/203 275/924/203 276/925/203
f 284/926/203 276/927/203 277/928/203
f 284/929/203 277/930/203 278/931/203
f 284/932/203 278/933/203 279/934/203
f 284/935/203 279/936/203 280/937/203
f 284/938/203 280/939/203 281/940/203
f 284/941/203 281/942/203 282/943/203
f 284/944/203 282/945/203 273/946/203
