# AFL Fuel Dispenser V1 lamp lens (lit), generated by tools/build-fuel-dispenser-v1.mjs
mtllib lamp_lit.mtl
o lens_lit
usemtl fuel_dispenser
v 0.7375 2.384375 0.3875
v 0.7375 2.384375 0.6125
v 1.2625 2.384375 0.6125
v 1.2625 2.384375 0.3875
v 0.7375 2.403125 0.3875
v 0.7375 2.403125 0.6125
v 1.2625 2.403125 0.6125
v 1.2625 2.403125 0.3875
v 0.7375 2.384375 0.3875
v 0.7375 2.384375 0.6125
v 1.2625 2.384375 0.6125
v 1.2625 2.384375 0.3875
v 0.7375 2.403125 0.3875
v 0.7375 2.403125 0.6125
v 1.2625 2.403125 0.6125
v 1.2625 2.403125 0.3875
vt 0.968018 0.058667
vt 0.993506 0.058667
vt 0.993506 0.060791
vt 0.968018 0.060791
vt 0.79126 0.058667
vt 0.850732 0.058667
vt 0.850732 0.060791
vt 0.79126 0.060791
vt 0.026709 0.056885
vt 0.001221 0.056885
vt 0.001221 0.054761
vt 0.026709 0.054761
vt 0.852295 0.058667
vt 0.911768 0.058667
vt 0.911768 0.060791
vt 0.852295 0.060791
vt 0.50415 0.454834
vt 0.50415 0.429346
vt 0.563623 0.429346
vt 0.563623 0.429346
vt 0.563623 0.454834
vt 0.50415 0.454834
vt 0.565186 0.429346
vt 0.624658 0.429346
vt 0.624658 0.454834
vt 0.624658 0.454834
vt 0.565186 0.454834
vt 0.565186 0.429346
vn -1 0 0
vn 0 0 1
vn 1 0 0
vn 0 0 -1
vn 0 -1 0
vn 0 1 0
f 1/1/1 2/2/1 6/3/1 5/4/1
f 2/5/2 3/6/2 7/7/2 6/8/2
f 3/9/3 4/10/3 8/11/3 7/12/3
f 4/13/4 1/14/4 5/15/4 8/16/4
f 10/17/5 9/18/5 12/19/5
f 12/20/5 11/21/5 10/22/5
f 16/23/6 13/24/6 14/25/6
f 14/26/6 15/27/6 16/28/6
