# AFL Fuel Dispenser V1 lamp lens (unlit), generated by tools/build-fuel-dispenser-v1.mjs
mtllib lamp.mtl
o lens
usemtl fuel_dispenser
v 0.7375 2.384375 0.3875
v 0.7375 2.384375 0.6125
v 1.2625 2.384375 0.6125
v 1.2625 2.384375 0.3875
v 0.7375 2.403125 0.3875
v 0.7375 2.403125 0.6125
v 1.2625 2.403125 0.6125
v 1.2625 2.403125 0.3875
v 0.7375 2.384375 0.3875
v 0.7375 2.384375 0.6125
v 1.2625 2.384375 0.6125
v 1.2625 2.384375 0.3875
v 0.7375 2.403125 0.3875
v 0.7375 2.403125 0.6125
v 1.2625 2.403125 0.6125
v 1.2625 2.403125 0.3875
vt 0.91333 0.058667
vt 0.938818 0.058667
vt 0.938818 0.060791
vt 0.91333 0.060791
vt 0.669189 0.058667
vt 0.728662 0.058667
vt 0.728662 0.060791
vt 0.669189 0.060791
vt 0.966162 0.060791
vt 0.940674 0.060791
vt 0.940674 0.058667
vt 0.966162 0.058667
vt 0.730225 0.058667
vt 0.789697 0.058667
vt 0.789697 0.060791
vt 0.730225 0.060791
vt 0.38208 0.454834
vt 0.38208 0.429346
vt 0.441553 0.429346
vt 0.441553 0.429346
vt 0.441553 0.454834
vt 0.38208 0.454834
vt 0.443115 0.429346
vt 0.502588 0.429346
vt 0.502588 0.454834
vt 0.502588 0.454834
vt 0.443115 0.454834
vt 0.443115 0.429346
vn -1 0 0
vn 0 0 1
vn 1 0 0
vn 0 0 -1
vn 0 -1 0
vn 0 1 0
f 1/1/1 2/2/1 6/3/1 5/4/1
f 2/5/2 3/6/2 7/7/2 6/8/2
f 3/9/3 4/10/3 8/11/3 7/12/3
f 4/13/4 1/14/4 5/15/4 8/16/4
f 10/17/5 9/18/5 12/19/5
f 12/20/5 11/21/5 10/22/5
f 16/23/6 13/24/6 14/25/6
f 14/26/6 15/27/6 16/28/6
