# AFL Fuel Dispenser V1 front diesel nozzle and parked hose, generated by tools/build-fuel-dispenser-v1.mjs
mtllib nozzle_front_diesel.mtl
o nozzle_diesel_handle_front
usemtl fuel_dispenser
v 0.74875 0.815501 0.240955
v 0.74875 0.916158 0.270182
v 0.74875 0.929298 0.257952
v 0.74875 0.937602 0.216358
v 0.74875 0.845826 0.192395
v 0.74875 0.828393 0.201277
v 0.7575 0.804388 0.24684
v 0.7575 0.918485 0.27997
v 0.7575 0.937326 0.262433
v 0.7575 0.947799 0.209977
v 0.7575 0.844817 0.183088
v 0.7575 0.821191 0.195127
v 0.7925 0.804388 0.24684
v 0.7925 0.918485 0.27997
v 0.7925 0.937326 0.262433
v 0.7925 0.947799 0.209977
v 0.7925 0.844817 0.183088
v 0.7925 0.821191 0.195127
v 0.80125 0.815501 0.240955
v 0.80125 0.916158 0.270182
v 0.80125 0.929298 0.257952
v 0.80125 0.937602 0.216358
v 0.80125 0.845826 0.192395
v 0.80125 0.828393 0.201277
v 0.74875 0.815501 0.240955
v 0.74875 0.916158 0.270182
v 0.74875 0.929298 0.257952
v 0.74875 0.937602 0.216358
v 0.74875 0.845826 0.192395
v 0.74875 0.828393 0.201277
v 0.80125 0.815501 0.240955
v 0.80125 0.916158 0.270182
v 0.80125 0.929298 0.257952
v 0.80125 0.937602 0.216358
v 0.80125 0.845826 0.192395
v 0.80125 0.828393 0.201277
vt 0.255871 0.132339
vt 0.24342 0.137451
vt 0.243408 0.135941
vt 0.254392 0.131431
vt 0.353257 0.071234
vt 0.350935 0.072998
vt 0.350342 0.071688
vt 0.351961 0.070458
vt 0.104877 0.067756
vt 0.098877 0.068604
vt 0.099607 0.067085
vt 0.104364 0.066413
vt 0.882568 0.13646
vt 0.893879 0.132284
vt 0.894011 0.133729
vt 0.883931 0.137451
vt 0.009547 0.087923
vt 0.011984 0.089679
vt 0.010831 0.090576
vt 0.009033 0.08928
vt 0.968018 0.093696
vt 0.974021 0.092317
vt 0.973338 0.093912
vt 0.968732 0.094971
vt 0.127686 0.107119
vt 0.141144 0.107119
vt 0.141144 0.111084
vt 0.127686 0.111084
vt 0.465088 0.099854
vt 0.465088 0.096938
vt 0.469053 0.096938
vt 0.469053 0.099854
vt 0.272905 0.111084
vt 0.266846 0.111084
vt 0.266846 0.107119
vt 0.272905 0.107119
vt 0.198825 0.111084
vt 0.186768 0.111084
vt 0.186768 0.107119
vt 0.198825 0.107119
vt 0.4046 0.09685
vt 0.4046 0.099854
vt 0.400635 0.099854
vt 0.400635 0.09685
vt 0.235596 0.107119
vt 0.241755 0.107119
vt 0.241755 0.111084
vt 0.235596 0.111084
vt 0.301528 0.131431
vt 0.312511 0.135941
vt 0.312499 0.137451
vt 0.300049 0.132339
vt 0.356356 0.072998
vt 0.354736 0.071768
vt 0.35533 0.070458
vt 0.357651 0.072222
vt 0.135614 0.068604
vt 0.130857 0.067932
vt 0.130127 0.066413
vt 0.136127 0.06726
vt 0.932199 0.137451
vt 0.922119 0.133729
vt 0.922251 0.132284
vt 0.933562 0.13646
vt 0.016867 0.08928
vt 0.015069 0.090576
vt 0.013916 0.089679
vt 0.016353 0.087923
vt 0.992169 0.092317
vt 0.996775 0.093375
vt 0.997458 0.094971
vt 0.991455 0.093591
vt 0.825604 0.16822
vt 0.827064 0.172715
vt 0.815662 0.176025
vt 0.825604 0.16822
vt 0.815662 0.176025
vt 0.814173 0.17464
vt 0.825604 0.16822
vt 0.814173 0.17464
vt 0.813232 0.169928
vt 0.813232 0.169928
vt 0.823629 0.167214
vt 0.825604 0.16822
vt 0.84026 0.176025
vt 0.828857 0.172715
vt 0.830318 0.16822
vt 0.841749 0.17464
vt 0.84026 0.176025
vt 0.830318 0.16822
vt 0.842689 0.169928
vt 0.841749 0.17464
vt 0.830318 0.16822
vt 0.830318 0.16822
vt 0.832293 0.167214
vt 0.842689 0.169928
vn -0.707107 -0.197173 0.67906
vn -0.707107 0.481753 0.517605
vn -0.721894 0.64029 0.262484
vn -0.707107 0.693423 0.138436
vn -0.707107 0.17864 -0.684169
vn -0.721046 0.087246 -0.687373
vn -0.730945 -0.57741 -0.363755
vn -0.707107 -0.672499 -0.218508
vn 0 -0.278845 0.960336
vn 0 0.681301 0.732003
vn 0 0.922373 0.3863
vn 0 0.980648 0.195778
vn 0 0.252636 -0.967561
vn 0 -0.45399 -0.891007
vn 0 -0.951057 -0.309017
vn 0.707107 -0.197173 0.67906
vn 0.707107 0.481753 0.517605
vn 0.721894 0.64029 0.262484
vn 0.707107 0.693423 0.138436
vn 0.707107 0.17864 -0.684169
vn 0.721046 0.087246 -0.687373
vn 0.730945 -0.57741 -0.363755
vn 0.707107 -0.672499 -0.218508
vn -1 0 0
vn 1 0 0
f 7/1/1 8/2/1 2/3/1 1/4/1
f 8/5/2 9/6/3 3/7/3 2/8/2
f 9/9/3 10/10/4 4/11/4 3/12/3
f 10/13/5 11/14/6 5/15/6 4/16/5
f 11/17/6 12/18/7 6/19/7 5/20/6
f 12/21/7 7/22/8 1/23/8 6/24/7
f 13/25/9 14/26/9 8/27/9 7/28/9
f 14/29/10 15/30/11 9/31/11 8/32/10
f 15/33/11 16/34/12 10/35/12 9/36/11
f 16/37/13 17/38/13 11/39/13 10/40/13
f 17/41/14 18/42/14 12/43/14 11/44/14
f 18/45/15 13/46/15 7/47/15 12/48/15
f 19/49/16 20/50/16 14/51/16 13/52/16
f 20/53/17 21/54/18 15/55/18 14/56/17
f 21/57/18 22/58/19 16/59/19 15/60/18
f 22/61/20 23/62/21 17/63/21 16/64/20
f 23/65/21 24/66/22 18/67/22 17/68/21
f 24/69/22 19/70/23 13/71/23 18/72/22
f 30/73/24 25/74/24 26/75/24
f 30/76/24 26/77/24 27/78/24
f 30/79/24 27/80/24 28/81/24
f 28/82/24 29/83/24 30/84/24
f 32/85/25 31/86/25 36/87/25
f 33/88/25 32/89/25 36/90/25
f 34/91/25 33/92/25 36/93/25
f 36/94/25 35/95/25 34/96/25
o nozzle_diesel_cover_front
usemtl fuel_dispenser
v 0.7375 0.916221 0.280086
v 0.7375 0.974786 0.297065
v 0.7375 1.003422 0.29186
v 0.7375 1.024996 0.268648
v 0.7375 1.037669 0.239794
v 0.7375 1.034653 0.217071
v 0.7375 1.015818 0.200261
v 0.7375 0.972559 0.19195
v 0.7375 0.941499 0.197467
v 0.75125 0.89899 0.289407
v 0.75125 0.974063 0.311171
v 0.75125 1.010381 0.304571
v 0.75125 1.036651 0.276305
v 0.75125 1.051805 0.2418
v 0.75125 1.047613 0.210208
v 0.75125 1.022141 0.187474
v 0.75125 0.972657 0.177967
v 0.75125 0.930812 0.1854
v 0.79875 0.89899 0.289407
v 0.79875 0.974063 0.311171
v 0.79875 1.010381 0.304571
v 0.79875 1.036651 0.276305
v 0.79875 1.051805 0.2418
v 0.79875 1.047613 0.210208
v 0.79875 1.022141 0.187474
v 0.79875 0.972657 0.177967
v 0.79875 0.930812 0.1854
v 0.8125 0.916221 0.280086
v 0.8125 0.974786 0.297065
v 0.8125 1.003422 0.29186
v 0.8125 1.024996 0.268648
v 0.8125 1.037669 0.239794
v 0.8125 1.034653 0.217071
v 0.8125 1.015818 0.200261
v 0.8125 0.972559 0.19195
v 0.8125 0.941499 0.197467
v 0.7375 0.916221 0.280086
v 0.7375 0.974786 0.297065
v 0.7375 1.003422 0.29186
v 0.7375 1.024996 0.268648
v 0.7375 1.037669 0.239794
v 0.7375 1.034653 0.217071
v 0.7375 1.015818 0.200261
v 0.7375 0.972559 0.19195
v 0.7375 0.941499 0.197467
v 0.8125 0.916221 0.280086
v 0.8125 0.974786 0.297065
v 0.8125 1.003422 0.29186
v 0.8125 1.024996 0.268648
v 0.8125 1.037669 0.239794
v 0.8125 1.034653 0.217071
v 0.8125 1.015818 0.200261
v 0.8125 0.972559 0.19195
v 0.8125 0.941499 0.197467
vt 0.506492 0.12628
vt 0.498299 0.129639
vt 0.497803 0.127462
vt 0.504194 0.124841
vt 0.35781 0.099854
vt 0.35376 0.098813
vt 0.35481 0.096808
vt 0.358003 0.097629
vt 0.844662 0.13383
vt 0.840978 0.136126
vt 0.840038 0.134117
vt 0.843063 0.132231
vt 0.840978 0.136126
vt 0.83695 0.137451
vt 0.83667 0.135225
vt 0.840038 0.134117
vt 0.391046 0.072998
vt 0.387451 0.072661
vt 0.388232 0.070522
vt 0.390817 0.070764
vt 0.983744 0.111084
vt 0.980713 0.108682
vt 0.982418 0.107223
vt 0.98466 0.108999
vt 0.426025 0.103212
vt 0.431534 0.101715
vt 0.431834 0.103916
vt 0.427018 0.105225
vt 0.315931 0.096776
vt 0.320601 0.097949
vt 0.31914 0.099854
vt 0.315674 0.098983
vt 0.592529 0.127687
vt 0.604572 0.125082
vt 0.603493 0.127569
vt 0.593926 0.129639
vt 0.716553 0.13207
vt 0.725407 0.13207
vt 0.725407 0.137451
vt 0.716553 0.137451
vt 0.742441 0.112762
vt 0.742441 0.116943
vt 0.737061 0.116943
vt 0.737061 0.112762
vt 0.782471 0.129639
vt 0.782471 0.125267
vt 0.787852 0.125267
vt 0.787852 0.129639
vt 0.048584 0.122803
vt 0.048584 0.118534
vt 0.053965 0.118534
vt 0.053965 0.122803
vt 0.283936 0.105225
vt 0.283936 0.101614
vt 0.289316 0.101614
vt 0.289316 0.105225
vt 0.947021 0.111084
vt 0.947021 0.107216
vt 0.952402 0.107216
vt 0.952402 0.111084
vt 0.761812 0.137451
vt 0.756104 0.137451
vt 0.756104 0.13207
vt 0.761812 0.13207
vt 0.414307 0.129639
vt 0.414307 0.124824
vt 0.419687 0.124824
vt 0.419687 0.129639
vt 0.66333 0.13207
vt 0.675651 0.13207
vt 0.675651 0.137451
vt 0.66333 0.137451
vt 0.469339 0.124841
vt 0.475731 0.127462
vt 0.475234 0.129639
vt 0.467041 0.12628
vt 0.336182 0.097629
vt 0.339375 0.096808
vt 0.340425 0.098813
vt 0.336375 0.099854
vt 0.804001 0.137451
vt 0.800975 0.135565
vt 0.801915 0.133556
vt 0.8056 0.135852
vt 0.800975 0.135565
vt 0.797607 0.134457
vt 0.797888 0.132231
vt 0.801915 0.133556
vt 0.396188 0.072755
vt 0.393603 0.072998
vt 0.392822 0.070859
vt 0.396417 0.070522
vt 0.990519 0.109308
vt 0.988277 0.111084
vt 0.986572 0.109624
vt 0.989604 0.107223
vt 0.445489 0.105225
vt 0.440674 0.103916
vt 0.440974 0.101715
vt 0.446482 0.103212
vt 0.293257 0.098983
vt 0.289791 0.099854
vt 0.28833 0.097949
vt 0.292999 0.096776
vt 0.648614 0.125082
vt 0.65818 0.127151
vt 0.659259 0.129639
vt 0.647217 0.127033
vt 0.304107 0.235055
vt 0.306971 0.244415
vt 0.300336 0.246338
vt 0.304107 0.235055
vt 0.300336 0.246338
vt 0.297092 0.245748
vt 0.304107 0.235055
vt 0.297092 0.245748
vt 0.294648 0.243119
vt 0.304107 0.235055
vt 0.294648 0.243119
vt 0.293213 0.23985
vt 0.304107 0.235055
vt 0.293213 0.23985
vt 0.293555 0.237276
vt 0.304107 0.235055
vt 0.293555 0.237276
vt 0.295688 0.235372
vt 0.295688 0.235372
vt 0.300589 0.23443
vt 0.304107 0.235055
vt 0.315472 0.246338
vt 0.308838 0.244415
vt 0.311701 0.235055
vt 0.318716 0.245748
vt 0.315472 0.246338
vt 0.311701 0.235055
vt 0.32116 0.243119
vt 0.318716 0.245748
vt 0.311701 0.235055
vt 0.322596 0.23985
vt 0.32116 0.243119
vt 0.311701 0.235055
vt 0.322254 0.237276
vt 0.322596 0.23985
vt 0.311701 0.235055
vt 0.32012 0.235372
vt 0.322254 0.237276
vt 0.311701 0.235055
vt 0.311701 0.235055
vt 0.31522 0.23443
vt 0.32012 0.235372
vn -0.707107 -0.196887 0.679143
vn -0.715336 -0.093925 0.69244
vn -0.725382 0.336799 0.600322
vn -0.712072 0.58627 0.386317
vn -0.720125 0.683433 0.119748
vn -0.729458 0.599644 -0.329117
vn -0.719289 0.268223 -0.640843
vn -0.712934 0.020596 -0.700928
vn -0.707107 -0.123669 -0.696208
vn -0.707107 -0.676165 -0.206882
vn 0 -0.278441 0.960453
vn 0 -0.134888 0.990861
vn 0 0.178815 0.983883
vn 0 0.732486 0.680782
vn 0 0.834635 0.550804
vn 0 0.986525 0.163608
vn 0 0.991308 -0.131564
vn 0 0.665875 -0.746063
vn 0 0.395127 -0.918626
vn 0 0.022701 -0.999742
vn 0 -0.174894 -0.984587
vn 0 -0.956242 -0.292576
vn 0.707107 -0.196887 0.679143
vn 0.715336 -0.093925 0.69244
vn 0.725382 0.336799 0.600322
vn 0.712072 0.58627 0.386317
vn 0.720125 0.683433 0.119748
vn 0.729458 0.599644 -0.329117
vn 0.719289 0.268223 -0.640843
vn 0.712934 0.020596 -0.700928
vn 0.707107 -0.123669 -0.696208
vn 0.707107 -0.676165 -0.206882
vn -1 0 0
vn 1 0 0
f 46/97/26 47/98/27 38/99/27 37/100/26
f 47/101/27 48/102/28 39/103/28 38/104/27
f 48/105/28 49/106/29 40/107/29 39/108/28
f 49/109/29 50/110/30 41/111/30 40/112/29
f 50/113/30 51/114/31 42/115/31 41/116/30
f 51/117/31 52/118/32 43/119/32 42/120/31
f 52/121/32 53/122/33 44/123/33 43/124/32
f 53/125/33 54/126/34 45/127/34 44/128/33
f 54/129/35 46/130/35 37/131/35 45/132/35
f 55/133/36 56/134/37 47/135/37 46/136/36
f 56/137/37 57/138/38 48/139/38 47/140/37
f 57/141/39 58/142/40 49/143/40 48/144/39
f 58/145/40 59/146/41 50/147/41 49/148/40
f 59/149/41 60/150/42 51/151/42 50/152/41
f 60/153/43 61/154/44 52/155/44 51/156/43
f 61/157/44 62/158/45 53/159/45 52/160/44
f 62/161/45 63/162/46 54/163/46 53/164/45
f 63/165/47 55/166/47 46/167/47 54/168/47
f 64/169/48 65/170/49 56/171/49 55/172/48
f 65/173/49 66/174/50 57/175/50 56/176/49
f 66/177/50 67/178/51 58/179/51 57/180/50
f 67/181/51 68/182/52 59/183/52 58/184/51
f 68/185/52 69/186/53 60/187/53 59/188/52
f 69/189/53 70/190/54 61/191/54 60/192/53
f 70/193/54 71/194/55 62/195/55 61/196/54
f 71/197/55 72/198/56 63/199/56 62/200/55
f 72/201/57 64/202/57 55/203/57 63/204/57
f 81/205/58 73/206/58 74/207/58
f 81/208/58 74/209/58 75/210/58
f 81/211/58 75/212/58 76/213/58
f 81/214/58 76/215/58 77/216/58
f 81/217/58 77/218/58 78/219/58
f 81/220/58 78/221/58 79/222/58
f 79/223/58 80/224/58 81/225/58
f 83/226/59 82/227/59 90/228/59
f 84/229/59 83/230/59 90/231/59
f 85/232/59 84/233/59 90/234/59
f 86/235/59 85/236/59 90/237/59
f 87/238/59 86/239/59 90/240/59
f 88/241/59 87/242/59 90/243/59
f 90/244/59 89/245/59 88/246/59
o nozzle_diesel_guard_front
usemtl fuel_dispenser
v 0.75625 0.829624 0.290527
v 0.75625 0.910105 0.295647
v 0.75625 0.918901 0.282733
v 0.75625 0.831287 0.275295
v 0.79375 0.829624 0.290527
v 0.79375 0.910105 0.295647
v 0.79375 0.918901 0.282733
v 0.79375 0.831287 0.275295
v 0.75625 0.829624 0.290527
v 0.75625 0.910105 0.295647
v 0.75625 0.918901 0.282733
v 0.75625 0.831287 0.275295
v 0.79375 0.829624 0.290527
v 0.79375 0.910105 0.295647
v 0.79375 0.918901 0.282733
v 0.79375 0.831287 0.275295
v 0.7525 0.941403 0.300988
v 0.7525 0.919343 0.349101
v 0.7525 0.851432 0.345036
v 0.7525 0.807505 0.319632
v 0.7525 0.801466 0.257653
v 0.7525 0.795245 0.258259
v 0.7525 0.801596 0.323434
v 0.7525 0.849582 0.351187
v 0.7525 0.92324 0.355596
v 0.7525 0.947085 0.303593
v 0.75625 0.939558 0.296017
v 0.75625 0.917004 0.345205
v 0.75625 0.852541 0.341346
v 0.75625 0.811051 0.31735
v 0.75625 0.804835 0.253557
v 0.75625 0.791149 0.25489
v 0.75625 0.798051 0.325716
v 0.75625 0.848473 0.354877
v 0.75625 0.925579 0.359493
v 0.75625 0.952056 0.301748
v 0.79375 0.939558 0.296017
v 0.79375 0.917004 0.345205
v 0.79375 0.852541 0.341346
v 0.79375 0.811051 0.31735
v 0.79375 0.804835 0.253557
v 0.79375 0.791149 0.25489
v 0.79375 0.798051 0.325716
v 0.79375 0.848473 0.354877
v 0.79375 0.925579 0.359493
v 0.79375 0.952056 0.301748
v 0.7975 0.941403 0.300988
v 0.7975 0.919343 0.349101
v 0.7975 0.851432 0.345036
v 0.7975 0.807505 0.319632
v 0.7975 0.801466 0.257653
v 0.7975 0.795245 0.258259
v 0.7975 0.801596 0.323434
v 0.7975 0.849582 0.351187
v 0.7975 0.92324 0.355596
v 0.7975 0.947085 0.303593
v 0.7525 0.941403 0.300988
v 0.7525 0.919343 0.349101
v 0.7525 0.851432 0.345036
v 0.7525 0.807505 0.319632
v 0.7525 0.801466 0.257653
v 0.7525 0.795245 0.258259
v 0.7525 0.801596 0.323434
v 0.7525 0.849582 0.351187
v 0.7525 0.92324 0.355596
v 0.7525 0.947085 0.303593
v 0.7975 0.941403 0.300988
v 0.7975 0.919343 0.349101
v 0.7975 0.851432 0.345036
v 0.7975 0.807505 0.319632
v 0.7975 0.801466 0.257653
v 0.7975 0.795245 0.258259
v 0.7975 0.801596 0.323434
v 0.7975 0.849582 0.351187
v 0.7975 0.92324 0.355596
v 0.7975 0.947085 0.303593
vt 0.348877 0.112695
vt 0.358012 0.112695
vt 0.358012 0.116943
vt 0.348877 0.116943
vt 0.018799 0.064697
vt 0.018799 0.062927
vt 0.023047 0.062927
vt 0.023047 0.064697
vt 0.312939 0.116943
vt 0.302979 0.116943
vt 0.302979 0.112695
vt 0.312939 0.112695
vt 0.046484 0.062962
vt 0.046484 0.064697
vt 0.042236 0.064697
vt 0.042236 0.062962
vt 0.99015 0.070693
vt 0.990338 0.072418
vt 0.981221 0.072998
vt 0.981221 0.072998
vt 0.980225 0.071535
vt 0.99015 0.070693
vt 0.010338 0.068604
vt 0.001221 0.068023
vt 0.001409 0.066298
vt 0.001409 0.066298
vt 0.011334 0.067141
vt 0.010338 0.068604
vt 0.909912 0.072558
vt 0.915743 0.070667
vt 0.916205 0.071149
vt 0.910501 0.072998
vt 0.357417 0.054797
vt 0.364706 0.05418
vt 0.364857 0.05477
vt 0.357178 0.05542
vt 0.93335 0.116415
vt 0.937552 0.112977
vt 0.938102 0.113304
vt 0.933652 0.116943
vt 0.969402 0.046631
vt 0.962158 0.046132
vt 0.962623 0.045562
vt 0.969661 0.046047
vt 0.878662 0.021955
vt 0.880205 0.022168
vt 0.879702 0.022705
vt 0.879001 0.022608
vt 0.909424 0.045492
vt 0.917466 0.046047
vt 0.917207 0.046631
vt 0.909806 0.046121
vt 0.736611 0.125461
vt 0.731504 0.129639
vt 0.731201 0.12911
vt 0.736062 0.125134
vt 0.051444 0.054682
vt 0.042725 0.05542
vt 0.042964 0.054797
vt 0.051293 0.054092
vt 0.668222 0.097634
vt 0.661377 0.099854
vt 0.661596 0.099151
vt 0.66776 0.097152
vt 0.938721 0.046358
vt 0.940028 0.04551
vt 0.939998 0.046246
vt 0.939404 0.046631
vt 0.607666 0.112695
vt 0.613796 0.112695
vt 0.613796 0.116943
vt 0.607666 0.116943
vt 0.477286 0.116943
vt 0.469971 0.116943
vt 0.469971 0.112695
vt 0.477286 0.112695
vt 0.643857 0.116943
vt 0.638428 0.116943
vt 0.638428 0.112695
vt 0.643857 0.112695
vt 0.512388 0.116943
vt 0.505127 0.116943
vt 0.505127 0.112695
vt 0.512388 0.112695
vt 0.428955 0.064697
vt 0.428955 0.06314
vt 0.433203 0.06314
vt 0.433203 0.064697
vt 0.431885 0.112695
vt 0.439946 0.112695
vt 0.439946 0.116943
vt 0.431885 0.116943
vt 0.574951 0.112695
vt 0.58155 0.112695
vt 0.58155 0.116943
vt 0.574951 0.116943
vt 0.391357 0.112695
vt 0.400108 0.112695
vt 0.400108 0.116943
vt 0.391357 0.116943
vt 0.547479 0.116943
vt 0.540283 0.116943
vt 0.540283 0.112695
vt 0.547479 0.112695
vt 0.434814 0.064697
vt 0.434814 0.06314
vt 0.439063 0.06314
vt 0.439063 0.064697
vt 0.941751 0.070667
vt 0.947455 0.072516
vt 0.946993 0.072998
vt 0.941162 0.071107
vt 0.327748 0.05542
vt 0.320068 0.05477
vt 0.320219 0.05418
vt 0.327509 0.054797
vt 0.96319 0.116943
vt 0.95874 0.113304
vt 0.95929 0.112977
vt 0.963492 0.116415
vt 0.988216 0.046146
vt 0.981178 0.046631
vt 0.980713 0.046061
vt 0.987957 0.045562
vt 0.866194 0.022608
vt 0.865493 0.022705
vt 0.86499 0.022168
vt 0.866533 0.021955
vt 0.880509 0.046002
vt 0.88791 0.045492
vt 0.888169 0.046077
vt 0.880127 0.046631
vt 0.717102 0.125134
vt 0.721963 0.12911
vt 0.72166 0.129639
vt 0.716553 0.125461
vt 0.053129 0.054092
vt 0.061459 0.054797
vt 0.061698 0.05542
vt 0.052979 0.054682
vt 0.702917 0.099854
vt 0.696752 0.097855
vt 0.696533 0.097152
vt 0.703379 0.099372
vt 0.951063 0.046631
vt 0.950469 0.046246
vt 0.950439 0.04551
vt 0.951746 0.046358
vt 0.824463 0.240447
vt 0.825106 0.240152
vt 0.827606 0.245602
vt 0.840275 0.242264
vt 0.840959 0.235243
vt 0.841663 0.235311
vt 0.840275 0.242264
vt 0.841663 0.235311
vt 0.840944 0.242695
vt 0.835299 0.245142
vt 0.840275 0.242264
vt 0.840944 0.242695
vt 0.835299 0.245142
vt 0.840944 0.242695
vt 0.835508 0.245838
vt 0.827606 0.245602
vt 0.835299 0.245142
vt 0.835508 0.245838
vt 0.827606 0.245602
vt 0.835508 0.245838
vt 0.827164 0.246338
vt 0.827606 0.245602
vt 0.827164 0.246338
vt 0.824463 0.240447
vt 0.857564 0.245602
vt 0.860063 0.240152
vt 0.860706 0.240447
vt 0.843506 0.235311
vt 0.844211 0.235243
vt 0.844895 0.242264
vt 0.844225 0.242695
vt 0.843506 0.235311
vt 0.844895 0.242264
vt 0.844225 0.242695
vt 0.844895 0.242264
vt 0.849871 0.245142
vt 0.849661 0.245838
vt 0.844225 0.242695
vt 0.849871 0.245142
vt 0.849661 0.245838
vt 0.849871 0.245142
vt 0.857564 0.245602
vt 0.858005 0.246338
vt 0.849661 0.245838
vt 0.857564 0.245602
vt 0.860706 0.240447
vt 0.858005 0.246338
vt 0.857564 0.245602
vn 0 -0.063499 0.997982
vn 0 0.826489 0.562952
vn 0 0.084595 -0.996415
vn 0 -0.994091 -0.10855
vn -1 0 0
vn 1 0 0
vn -0.707107 -0.64276 -0.29472
vn -0.707107 0.042254 -0.705843
vn -0.716454 0.177576 -0.674655
vn -0.707107 0.354008 -0.61211
vn -0.707107 0.703774 -0.068576
vn -0.707107 -0.068576 -0.703774
vn -0.707107 -0.703774 0.068576
vn -0.707107 -0.354008 0.61211
vn -0.71647 -0.178468 0.674403
vn -0.707107 -0.042254 0.705843
vn -0.707107 0.64276 0.29472
vn -0.707107 0.29472 -0.64276
vn 0 -0.909 -0.416797
vn 0 0.059756 -0.998213
vn 0 0.254256 -0.967137
vn 0 0.500643 -0.865654
vn 0 0.995286 -0.096982
vn 0 -0.096982 -0.995286
vn 0 -0.995286 0.096982
vn 0 -0.500643 0.865654
vn 0 -0.256031 0.966669
vn 0 -0.059756 0.998213
vn 0 0.909 0.416797
vn 0 0.416797 -0.909
vn 0.707107 -0.64276 -0.29472
vn 0.707107 0.042254 -0.705843
vn 0.716454 0.177576 -0.674655
vn 0.707107 0.354008 -0.61211
vn 0.707107 0.703774 -0.068576
vn 0.707107 -0.068576 -0.703774
vn 0.707107 -0.703774 0.068576
vn 0.707107 -0.354008 0.61211
vn 0.71647 -0.178468 0.674403
vn 0.707107 -0.042254 0.705843
vn 0.707107 0.64276 0.29472
vn 0.707107 0.29472 -0.64276
f 95/247/60 96/248/60 92/249/60 91/250/60
f 96/251/61 97/252/61 93/253/61 92/254/61
f 97/255/62 98/256/62 94/257/62 93/258/62
f 98/259/63 95/260/63 91/261/63 94/262/63
f 102/263/64 99/264/64 100/265/64
f 100/266/64 101/267/64 102/268/64
f 104/269/65 103/270/65 106/271/65
f 106/272/65 105/273/65 104/274/65
f 117/275/66 118/276/66 108/277/66 107/278/66
f 118/279/67 119/280/68 109/281/68 108/282/67
f 119/283/68 120/284/69 110/285/69 109/286/68
f 120/287/70 121/288/70 111/289/70 110/290/70
f 121/291/71 122/292/71 112/293/71 111/294/71
f 122/295/72 123/296/72 113/297/72 112/298/72
f 123/299/73 124/300/74 114/301/74 113/302/73
f 124/303/74 125/304/75 115/305/75 114/306/74
f 125/307/76 126/308/76 116/309/76 115/310/76
f 126/311/77 117/312/77 107/313/77 116/314/77
f 127/315/78 128/316/78 118/317/78 117/318/78
f 128/319/79 129/320/80 119/321/80 118/322/79
f 129/323/80 130/324/81 120/325/81 119/326/80
f 130/327/82 131/328/82 121/329/82 120/330/82
f 131/331/83 132/332/83 122/333/83 121/334/83
f 132/335/84 133/336/84 123/337/84 122/338/84
f 133/339/85 134/340/86 124/341/86 123/342/85
f 134/343/86 135/344/87 125/345/87 124/346/86
f 135/347/88 136/348/88 126/349/88 125/350/88
f 136/351/89 127/352/89 117/353/89 126/354/89
f 137/355/90 138/356/90 128/357/90 127/358/90
f 138/359/91 139/360/92 129/361/92 128/362/91
f 139/363/92 140/364/93 130/365/93 129/366/92
f 140/367/94 141/368/94 131/369/94 130/370/94
f 141/371/95 142/372/95 132/373/95 131/374/95
f 142/375/96 143/376/96 133/377/96 132/378/96
f 143/379/97 144/380/98 134/381/98 133/382/97
f 144/383/98 145/384/99 135/385/99 134/386/98
f 145/387/100 146/388/100 136/389/100 135/390/100
f 146/391/101 137/392/101 127/393/101 136/394/101
f 156/395/64 147/396/64 148/397/64
f 150/398/64 151/399/64 152/400/64
f 150/401/64 152/402/64 153/403/64
f 149/404/64 150/405/64 153/406/64
f 149/407/64 153/408/64 154/409/64
f 148/410/64 149/411/64 154/412/64
f 148/413/64 154/414/64 155/415/64
f 148/416/64 155/417/64 156/418/64
f 158/419/65 157/420/65 166/421/65
f 162/422/65 161/423/65 160/424/65
f 163/425/65 162/426/65 160/427/65
f 163/428/65 160/429/65 159/430/65
f 164/431/65 163/432/65 159/433/65
f 164/434/65 159/435/65 158/436/65
f 165/437/65 164/438/65 158/439/65
f 166/440/65 165/441/65 158/442/65
o nozzle_diesel_steel_front
usemtl fuel_dispenser
v 0.799965 0.773398 0.200641
v 0.790429 0.777454 0.188158
v 0.775 0.779003 0.18339
v 0.759571 0.777454 0.188158
v 0.750035 0.773398 0.200641
v 0.750035 0.768385 0.21607
v 0.759571 0.764329 0.228553
v 0.775 0.76278 0.233321
v 0.790429 0.764329 0.228553
v 0.799965 0.768385 0.21607
v 0.799965 0.832839 0.219954
v 0.790429 0.836895 0.207472
v 0.775 0.838444 0.202704
v 0.759571 0.836895 0.207472
v 0.750035 0.832839 0.219954
v 0.750035 0.827826 0.235384
v 0.759571 0.82377 0.247866
v 0.775 0.822221 0.252634
v 0.790429 0.82377 0.247866
v 0.799965 0.827826 0.235384
v 0.775 0.770891 0.208356
v 0.775 0.830332 0.227669
v 0.762297 1.041203 0.236001
v 0.769738 1.038904 0.243079
v 0.780262 1.038904 0.243079
v 0.787703 1.041203 0.236001
v 0.787703 1.044455 0.225993
v 0.780262 1.046755 0.218916
v 0.769738 1.046755 0.218916
v 0.762297 1.044455 0.225993
v 0.762297 1.077305 0.247732
v 0.769738 1.075006 0.254809
v 0.780262 1.075006 0.254809
v 0.787703 1.077305 0.247732
v 0.787703 1.080557 0.237723
v 0.780262 1.082857 0.230646
v 0.769738 1.082857 0.230646
v 0.762297 1.080557 0.237723
v 0.762297 1.113041 0.259343
v 0.769738 1.110741 0.26642
v 0.780262 1.110741 0.26642
v 0.787703 1.113041 0.259343
v 0.787703 1.116293 0.249334
v 0.780262 1.118592 0.242257
v 0.769738 1.118592 0.242257
v 0.762297 1.116293 0.249334
v 0.762297 1.150277 0.271442
v 0.769738 1.147977 0.278519
v 0.780262 1.147977 0.278519
v 0.787703 1.150277 0.271442
v 0.787703 1.153529 0.261433
v 0.780262 1.155828 0.254356
v 0.769738 1.155828 0.254356
v 0.762297 1.153529 0.261433
v 0.762297 1.187271 0.283462
v 0.769738 1.184972 0.290539
v 0.780262 1.184972 0.290539
v 0.787703 1.187271 0.283462
v 0.787703 1.190523 0.273453
v 0.780262 1.192823 0.266376
v 0.769738 1.192823 0.266376
v 0.762297 1.190523 0.273453
v 0.762297 1.201694 0.288148
v 0.769738 1.199394 0.295225
v 0.780262 1.199394 0.295225
v 0.787703 1.201694 0.288148
v 0.787703 1.204946 0.278139
v 0.780262 1.207246 0.271062
v 0.769738 1.207246 0.271062
v 0.762297 1.204946 0.278139
v 0.775 1.042829 0.230997
v 0.775 1.20332 0.283144
vt 0.822021 0.127
vt 0.822706 0.125295
vt 0.829276 0.127933
vt 0.828591 0.129639
vt 0.541061 0.14624
vt 0.539795 0.144909
vt 0.544925 0.140029
vt 0.546192 0.141361
vt 0.473389 0.141361
vt 0.474655 0.140029
vt 0.479786 0.144909
vt 0.478519 0.14624
vt 0.837381 0.125295
vt 0.838065 0.127
vt 0.831495 0.129639
vt 0.830811 0.127933
vt 0.314595 0.107148
vt 0.315163 0.108896
vt 0.308429 0.111084
vt 0.307861 0.109336
vt 0.93406 0.125295
vt 0.934745 0.127
vt 0.928175 0.129639
vt 0.92749 0.127933
vt 0.448486 0.141361
vt 0.449753 0.140029
vt 0.454883 0.144909
vt 0.453617 0.14624
vt 0.499558 0.14624
vt 0.498291 0.144909
vt 0.503421 0.140029
vt 0.504688 0.141361
vt 0.883545 0.127
vt 0.88423 0.125295
vt 0.8908 0.127933
vt 0.890115 0.129639
vt 0.317218 0.111084
vt 0.31665 0.109336
vt 0.323384 0.107148
vt 0.323952 0.108896
vt 0.405597 0.132875
vt 0.407084 0.131795
vt 0.408003 0.134623
vt 0.405029 0.134623
vt 0.405597 0.132875
vt 0.408003 0.134623
vt 0.405597 0.136371
vt 0.405029 0.134623
vt 0.408003 0.134623
vt 0.407084 0.137451
vt 0.405597 0.136371
vt 0.408003 0.134623
vt 0.408922 0.137451
vt 0.407084 0.137451
vt 0.408003 0.134623
vt 0.410409 0.136371
vt 0.408922 0.137451
vt 0.408003 0.134623
vt 0.410977 0.134623
vt 0.410409 0.136371
vt 0.408003 0.134623
vt 0.410409 0.132875
vt 0.410977 0.134623
vt 0.408003 0.134623
vt 0.408922 0.131795
vt 0.410409 0.132875
vt 0.408003 0.134623
vt 0.407084 0.131795
vt 0.408922 0.131795
vt 0.408003 0.134623
vt 0.415815 0.134623
vt 0.414897 0.137451
vt 0.41341 0.136371
vt 0.415815 0.134623
vt 0.41341 0.136371
vt 0.412842 0.134623
vt 0.415815 0.134623
vt 0.412842 0.134623
vt 0.41341 0.132875
vt 0.415815 0.134623
vt 0.41341 0.132875
vt 0.414897 0.131795
vt 0.415815 0.134623
vt 0.414897 0.131795
vt 0.416734 0.131795
vt 0.415815 0.134623
vt 0.416734 0.131795
vt 0.418221 0.132875
vt 0.415815 0.134623
vt 0.418221 0.132875
vt 0.418789 0.134623
vt 0.415815 0.134623
vt 0.418789 0.134623
vt 0.418221 0.136371
vt 0.415815 0.134623
vt 0.418221 0.136371
vt 0.416734 0.137451
vt 0.415815 0.134623
vt 0.416734 0.137451
vt 0.414897 0.137451
vt 0.053747 0.188445
vt 0.054245 0.189528
vt 0.050337 0.191324
vt 0.04984 0.19024
vt 0.713623 0.046631
vt 0.713623 0.045439
vt 0.717923 0.045439
vt 0.717923 0.046631
vt 0.192627 0.189528
vt 0.193125 0.188445
vt 0.197032 0.19024
vt 0.196534 0.191324
vt 0.566162 0.149122
vt 0.566531 0.147988
vt 0.57062 0.149317
vt 0.570252 0.150451
vt 0.153564 0.189528
vt 0.154062 0.188445
vt 0.15797 0.19024
vt 0.157472 0.191324
vt 0.503662 0.046631
vt 0.503662 0.045439
vt 0.507962 0.045439
vt 0.507962 0.046631
vt 0.327185 0.188445
vt 0.327682 0.189528
vt 0.323775 0.191324
vt 0.323277 0.19024
vt 0.644401 0.147988
vt 0.64477 0.149122
vt 0.64068 0.150451
vt 0.640312 0.149317
vt 0.04984 0.19024
vt 0.050337 0.191324
vt 0.04647 0.193101
vt 0.045972 0.192018
vt 0.717923 0.046631
vt 0.717923 0.045439
vt 0.72218 0.045439
vt 0.72218 0.046631
vt 0.196534 0.191324
vt 0.197032 0.19024
vt 0.2009 0.192018
vt 0.200402 0.193101
vt 0.570252 0.150451
vt 0.57062 0.149317
vt 0.574668 0.150632
vt 0.5743 0.151766
vt 0.157472 0.191324
vt 0.15797 0.19024
vt 0.161837 0.192018
vt 0.16134 0.193101
vt 0.507962 0.046631
vt 0.507962 0.045439
vt 0.512219 0.045439
vt 0.512219 0.046631
vt 0.323277 0.19024
vt 0.323775 0.191324
vt 0.319907 0.193101
vt 0.31941 0.192018
vt 0.640312 0.149317
vt 0.64068 0.150451
vt 0.636632 0.151766
vt 0.636263 0.150632
vt 0.045972 0.192018
vt 0.04647 0.193101
vt 0.04244 0.194953
vt 0.041942 0.193869
vt 0.72218 0.046631
vt 0.72218 0.045439
vt 0.726615 0.045439
vt 0.726615 0.046631
vt 0.200402 0.193101
vt 0.2009 0.192018
vt 0.20493 0.193869
vt 0.204432 0.194953
vt 0.5743 0.151766
vt 0.574668 0.150632
vt 0.578886 0.152003
vt 0.578518 0.153137
vt 0.16134 0.193101
vt 0.161837 0.192018
vt 0.165867 0.193869
vt 0.16537 0.194953
vt 0.512219 0.046631
vt 0.512219 0.045439
vt 0.516654 0.045439
vt 0.516654 0.046631
vt 0.31941 0.192018
vt 0.319907 0.193101
vt 0.315877 0.194953
vt 0.315379 0.193869
vt 0.636263 0.150632
vt 0.636632 0.151766
vt 0.632414 0.153137
vt 0.632045 0.152003
vt 0.041942 0.193869
vt 0.04244 0.194953
vt 0.038436 0.196792
vt 0.037938 0.195709
vt 0.726615 0.046631
vt 0.726615 0.045439
vt 0.731021 0.045439
vt 0.731021 0.046631
vt 0.204432 0.194953
vt 0.20493 0.193869
vt 0.208934 0.195709
vt 0.208436 0.196792
vt 0.578518 0.153137
vt 0.578886 0.152003
vt 0.583077 0.153365
vt 0.582709 0.154498
vt 0.16537 0.194953
vt 0.165867 0.193869
vt 0.169871 0.195709
vt 0.169374 0.196792
vt 0.516654 0.046631
vt 0.516654 0.045439
vt 0.52106 0.045439
vt 0.52106 0.046631
vt 0.315379 0.193869
vt 0.315877 0.194953
vt 0.311873 0.196792
vt 0.311375 0.195709
vt 0.632045 0.152003
vt 0.632414 0.153137
vt 0.628223 0.154498
vt 0.627855 0.153365
vt 0.037938 0.195709
vt 0.038436 0.196792
vt 0.036875 0.19751
vt 0.036377 0.196427
vt 0.731021 0.046631
vt 0.731021 0.045439
vt 0.732739 0.045439
vt 0.732739 0.046631
vt 0.208436 0.196792
vt 0.208934 0.195709
vt 0.210495 0.196427
vt 0.209997 0.19751
vt 0.582709 0.154498
vt 0.583077 0.153365
vt 0.584711 0.153895
vt 0.584343 0.155029
vt 0.169374 0.196792
vt 0.169871 0.195709
vt 0.171432 0.196427
vt 0.170935 0.19751
vt 0.52106 0.046631
vt 0.52106 0.045439
vt 0.522778 0.045439
vt 0.522778 0.046631
vt 0.311375 0.195709
vt 0.311873 0.196792
vt 0.310312 0.19751
vt 0.309814 0.196427
vt 0.627855 0.153365
vt 0.628223 0.154498
vt 0.626589 0.155029
vt 0.626221 0.153895
vt 0.539173 0.099854
vt 0.53833 0.099011
vt 0.539769 0.098414
vt 0.540365 0.099854
vt 0.539173 0.099854
vt 0.539769 0.098414
vt 0.541208 0.099011
vt 0.540365 0.099854
vt 0.539769 0.098414
vt 0.541208 0.097818
vt 0.541208 0.099011
vt 0.539769 0.098414
vt 0.540365 0.096975
vt 0.541208 0.097818
vt 0.539769 0.098414
vt 0.539173 0.096975
vt 0.540365 0.096975
vt 0.539769 0.098414
vt 0.53833 0.097818
vt 0.539173 0.096975
vt 0.539769 0.098414
vt 0.53833 0.099011
vt 0.53833 0.097818
vt 0.539769 0.098414
vt 0.544164 0.098414
vt 0.545603 0.099011
vt 0.54476 0.099854
vt 0.544164 0.098414
vt 0.54476 0.099854
vt 0.543568 0.099854
vt 0.544164 0.098414
vt 0.543568 0.099854
vt 0.542725 0.099011
vt 0.544164 0.098414
vt 0.542725 0.099011
vt 0.542725 0.097818
vt 0.544164 0.098414
vt 0.542725 0.097818
vt 0.543568 0.096975
vt 0.544164 0.098414
vt 0.543568 0.096975
vt 0.54476 0.096975
vt 0.544164 0.098414
vt 0.54476 0.096975
vt 0.545603 0.097818
vt 0.544164 0.098414
vt 0.545603 0.097818
vt 0.545603 0.099011
vn 0.809017 0.181636 -0.559017
vn 0.587785 0.25 -0.769421
vn 0 0.309017 -0.951057
vn -0.587785 0.25 -0.769421
vn -0.951057 0.095492 -0.293893
vn -0.951057 -0.095492 0.293893
vn -0.587785 -0.25 0.769421
vn 0 -0.309017 0.951057
vn 0.587785 -0.25 0.769421
vn 0.809017 -0.181636 0.559017
vn -1 0 0
vn 0 -0.951057 -0.309017
vn 0 0.951057 0.309017
vn -0.92388 -0.118256 0.363954
vn -0.382683 -0.285494 0.878662
vn 0.382683 -0.285494 0.878662
vn 0.92388 -0.118256 0.363954
vn 0.92388 0.118256 -0.363954
vn 0.382683 0.285494 -0.878662
vn -0.382683 0.285494 -0.878662
vn -0.92388 0.118256 -0.363954
f 167/443/102 168/444/103 178/445/103 177/446/102
f 168/447/103 169/448/104 179/449/104 178/450/103
f 169/451/104 170/452/105 180/453/105 179/454/104
f 170/455/105 171/456/106 181/457/106 180/458/105
f 171/459/106 172/460/107 182/461/107 181/462/106
f 172/463/107 173/464/108 183/465/108 182/466/107
f 173/467/108 174/468/109 184/469/109 183/470/108
f 174/471/109 175/472/110 185/473/110 184/474/109
f 175/475/110 176/476/111 186/477/111 185/478/110
f 186/479/112 177/480/112 167/481/112 176/482/112
f 168/483/113 167/484/113 187/485/113
f 169/486/113 168/487/113 187/488/113
f 170/489/113 169/490/113 187/491/113
f 171/492/113 170/493/113 187/494/113
f 172/495/113 171/496/113 187/497/113
f 173/498/113 172/499/113 187/500/113
f 174/501/113 173/502/113 187/503/113
f 175/504/113 174/505/113 187/506/113
f 176/507/113 175/508/113 187/509/113
f 167/510/113 176/511/113 187/512/113
f 188/513/114 177/514/114 178/515/114
f 188/516/114 178/517/114 179/518/114
f 188/519/114 179/520/114 180/521/114
f 188/522/114 180/523/114 181/524/114
f 188/525/114 181/526/114 182/527/114
f 188/528/114 182/529/114 183/530/114
f 188/531/114 183/532/114 184/533/114
f 188/534/114 184/535/114 185/536/114
f 188/537/114 185/538/114 186/539/114
f 188/540/114 186/541/114 177/542/114
f 189/543/115 190/544/116 198/545/116 197/546/115
f 190/547/116 191/548/117 199/549/117 198/550/116
f 191/551/117 192/552/118 200/553/118 199/554/117
f 192/555/118 193/556/119 201/557/119 200/558/118
f 193/559/119 194/560/120 202/561/120 201/562/119
f 194/563/120 195/564/121 203/565/121 202/566/120
f 195/567/121 196/568/122 204/569/122 203/570/121
f 196/571/122 189/572/115 197/573/115 204/574/122
f 197/575/115 198/576/116 206/577/116 205/578/115
f 198/579/116 199/580/117 207/581/117 206/582/116
f 199/583/117 200/584/118 208/585/118 207/586/117
f 200/587/118 201/588/119 209/589/119 208/590/118
f 201/591/119 202/592/120 210/593/120 209/594/119
f 202/595/120 203/596/121 211/597/121 210/598/120
f 203/599/121 204/600/122 212/601/122 211/602/121
f 204/603/122 197/604/115 205/605/115 212/606/122
f 205/607/115 206/608/116 214/609/116 213/610/115
f 206/611/116 207/612/117 215/613/117 214/614/116
f 207/615/117 208/616/118 216/617/118 215/618/117
f 208/619/118 209/620/119 217/621/119 216/622/118
f 209/623/119 210/624/120 218/625/120 217/626/119
f 210/627/120 211/628/121 219/629/121 218/630/120
f 211/631/121 212/632/122 220/633/122 219/634/121
f 212/635/122 205/636/115 213/637/115 220/638/122
f 213/639/115 214/640/116 222/641/116 221/642/115
f 214/643/116 215/644/117 223/645/117 222/646/116
f 215/647/117 216/648/118 224/649/118 223/650/117
f 216/651/118 217/652/119 225/653/119 224/654/118
f 217/655/119 218/656/120 226/657/120 225/658/119
f 218/659/120 219/660/121 227/661/121 226/662/120
f 219/663/121 220/664/122 228/665/122 227/666/121
f 220/667/122 213/668/115 221/669/115 228/670/122
f 221/671/115 222/672/116 230/673/116 229/674/115
f 222/675/116 223/676/117 231/677/117 230/678/116
f 223/679/117 224/680/118 232/681/118 231/682/117
f 224/683/118 225/684/119 233/685/119 232/686/118
f 225/687/119 226/688/120 234/689/120 233/690/119
f 226/691/120 227/692/121 235/693/121 234/694/120
f 227/695/121 228/696/122 236/697/122 235/698/121
f 228/699/122 221/700/115 229/701/115 236/702/122
f 190/703/113 189/704/113 237/705/113
f 191/706/113 190/707/113 237/708/113
f 192/709/113 191/710/113 237/711/113
f 193/712/113 192/713/113 237/714/113
f 194/715/113 193/716/113 237/717/113
f 195/718/113 194/719/113 237/720/113
f 196/721/113 195/722/113 237/723/113
f 189/724/113 196/725/113 237/726/113
f 238/727/114 229/728/114 230/729/114
f 238/730/114 230/731/114 231/732/114
f 238/733/114 231/734/114 232/735/114
f 238/736/114 232/737/114 233/738/114
f 238/739/114 233/740/114 234/741/114
f 238/742/114 234/743/114 235/744/114
f 238/745/114 235/746/114 236/747/114
f 238/748/114 236/749/114 229/750/114
o nozzle_diesel_collar_front
usemtl fuel_dispenser
v 0.794021 1.038795 0.223188
v 0.786756 1.041885 0.213677
v 0.775 1.043065 0.210045
v 0.763244 1.041885 0.213677
v 0.755979 1.038795 0.223188
v 0.755979 1.034975 0.234944
v 0.763244 1.031885 0.244454
v 0.775 1.030705 0.248087
v 0.786756 1.031885 0.244454
v 0.794021 1.034975 0.234944
v 0.794021 1.068515 0.232845
v 0.786756 1.071606 0.223334
v 0.775 1.072786 0.219701
v 0.763244 1.071606 0.223334
v 0.755979 1.068515 0.232845
v 0.755979 1.064696 0.2446
v 0.763244 1.061606 0.254111
v 0.775 1.060425 0.257744
v 0.786756 1.061606 0.254111
v 0.794021 1.064696 0.2446
v 0.775 1.036885 0.229066
v 0.775 1.066606 0.238723
vt 0.137451 0.089257
vt 0.137973 0.087957
vt 0.141258 0.089277
vt 0.140736 0.090576
vt 0.566151 0.105225
vt 0.565186 0.10421
vt 0.567751 0.10177
vt 0.568716 0.102785
vt 0.570557 0.102785
vt 0.571522 0.10177
vt 0.574087 0.10421
vt 0.573122 0.105225
vt 0.113881 0.087957
vt 0.114403 0.089257
vt 0.111118 0.090576
vt 0.110596 0.089277
vt 0.490427 0.070572
vt 0.49086 0.071904
vt 0.487493 0.072998
vt 0.487061 0.071666
vt 0.092396 0.087957
vt 0.092918 0.089257
vt 0.089633 0.090576
vt 0.089111 0.089277
vt 0.575928 0.102785
vt 0.576893 0.10177
vt 0.579458 0.10421
vt 0.578493 0.105225
vt 0.528553 0.105225
vt 0.527588 0.10421
vt 0.530153 0.10177
vt 0.531118 0.102785
vt 0.121338 0.089257
vt 0.12186 0.087957
vt 0.125145 0.089277
vt 0.124623 0.090576
vt 0.492864 0.072998
vt 0.492432 0.071666
vt 0.495798 0.070572
vt 0.496231 0.071904
vt 0.958196 0.126152
vt 0.959329 0.125329
vt 0.960029 0.127484
vt 0.957764 0.127484
vt 0.958196 0.126152
vt 0.960029 0.127484
vt 0.958196 0.128816
vt 0.957764 0.127484
vt 0.960029 0.127484
vt 0.959329 0.129639
vt 0.958196 0.128816
vt 0.960029 0.127484
vt 0.960729 0.129639
vt 0.959329 0.129639
vt 0.960029 0.127484
vt 0.961862 0.128816
vt 0.960729 0.129639
vt 0.960029 0.127484
vt 0.962295 0.127484
vt 0.961862 0.128816
vt 0.960029 0.127484
vt 0.961862 0.126152
vt 0.962295 0.127484
vt 0.960029 0.127484
vt 0.960729 0.125329
vt 0.961862 0.126152
vt 0.960029 0.127484
vt 0.959329 0.125329
vt 0.960729 0.125329
vt 0.960029 0.127484
vt 0.966377 0.127484
vt 0.965677 0.129639
vt 0.964544 0.128816
vt 0.966377 0.127484
vt 0.964544 0.128816
vt 0.964111 0.127484
vt 0.966377 0.127484
vt 0.964111 0.127484
vt 0.964544 0.126152
vt 0.966377 0.127484
vt 0.964544 0.126152
vt 0.965677 0.125329
vt 0.966377 0.127484
vt 0.965677 0.125329
vt 0.967077 0.125329
vt 0.966377 0.127484
vt 0.967077 0.125329
vt 0.96821 0.126152
vt 0.966377 0.127484
vt 0.96821 0.126152
vt 0.968643 0.127484
vt 0.966377 0.127484
vt 0.968643 0.127484
vt 0.96821 0.128816
vt 0.966377 0.127484
vt 0.96821 0.128816
vt 0.967077 0.129639
vt 0.966377 0.127484
vt 0.967077 0.129639
vt 0.965677 0.129639
vn 0.809017 0.181636 -0.559017
vn 0.309017 0.293893 -0.904508
vn -0.309017 0.293893 -0.904508
vn -0.809017 0.181636 -0.559017
vn -0.951057 0.095492 -0.293893
vn -0.951057 -0.095492 0.293893
vn -0.809017 -0.181636 0.559017
vn -0.309017 -0.293893 0.904508
vn 0.309017 -0.293893 0.904508
vn 0.587785 -0.25 0.769421
vn 0.809017 -0.181636 0.559017
vn -1 0 0
vn 0 -0.951057 -0.309017
vn 0 0.951057 0.309017
f 239/751/123 240/752/123 250/753/123 249/754/123
f 240/755/124 241/756/124 251/757/124 250/758/124
f 241/759/125 242/760/125 252/761/125 251/762/125
f 242/763/126 243/764/127 253/765/127 252/766/126
f 243/767/127 244/768/128 254/769/128 253/770/127
f 244/771/128 245/772/129 255/773/129 254/774/128
f 245/775/130 246/776/130 256/777/130 255/778/130
f 246/779/131 247/780/132 257/781/132 256/782/131
f 247/783/132 248/784/133 258/785/133 257/786/132
f 258/787/134 249/788/134 239/789/134 248/790/134
f 240/791/135 239/792/135 259/793/135
f 241/794/135 240/795/135 259/796/135
f 242/797/135 241/798/135 259/799/135
f 243/800/135 242/801/135 259/802/135
f 244/803/135 243/804/135 259/805/135
f 245/806/135 244/807/135 259/808/135
f 246/809/135 245/810/135 259/811/135
f 247/812/135 246/813/135 259/814/135
f 248/815/135 247/816/135 259/817/135
f 239/818/135 248/819/135 259/820/135
f 260/821/136 249/822/136 250/823/136
f 260/824/136 250/825/136 251/826/136
f 260/827/136 251/828/136 252/829/136
f 260/830/136 252/831/136 253/832/136
f 260/833/136 253/834/136 254/835/136
f 260/836/136 254/837/136 255/838/136
f 260/839/136 255/840/136 256/841/136
f 260/842/136 256/843/136 257/844/136
f 260/845/136 257/846/136 258/847/136
f 260/848/136 258/849/136 249/850/136
o hose_diesel_front
usemtl fuel_dispenser
v 0.321205 2.465434 0.236751
v 0.306999 2.465684 0.222547
v 0.306999 2.465898 0.202457
v 0.321205 2.465953 0.18825
v 0.341295 2.465816 0.188249
v 0.355501 2.465566 0.202453
v 0.355501 2.465352 0.222543
v 0.341295 2.465297 0.23675
v 0.320333 2.338094 0.235389
v 0.306128 2.338486 0.221187
v 0.306129 2.338752 0.201097
v 0.320334 2.338736 0.18689
v 0.340423 2.338448 0.186887
v 0.354627 2.338056 0.20109
v 0.354627 2.33779 0.221179
v 0.340422 2.337806 0.235386
v 0.31745 2.203594 0.233289
v 0.303251 2.204243 0.21909
v 0.303253 2.204559 0.199002
v 0.317454 2.204357 0.184792
v 0.337536 2.203756 0.184784
v 0.351735 2.203108 0.198983
v 0.351733 2.202791 0.219071
v 0.337532 2.202993 0.233282
v 0.312281 2.069153 0.231155
v 0.298088 2.069976 0.216959
v 0.29809 2.070303 0.196871
v 0.312286 2.069942 0.182658
v 0.332359 2.069105 0.182646
v 0.346552 2.068282 0.196843
v 0.34655 2.067955 0.216931
v 0.332354 2.068316 0.231144
v 0.306591 1.94329 0.229055
v 0.292402 1.94419 0.21486
v 0.292405 1.944541 0.194772
v 0.306599 1.944138 0.180559
v 0.326668 1.943217 0.180546
v 0.340858 1.942317 0.194741
v 0.340855 1.941966 0.214828
v 0.326661 1.942369 0.229042
v 0.300392 1.810191 0.226627
v 0.286204 1.811113 0.212433
v 0.286209 1.811503 0.192346
v 0.300404 1.811133 0.178133
v 0.320474 1.810219 0.17812
v 0.334662 1.809297 0.192315
v 0.334657 1.808906 0.212402
v 0.320462 1.809277 0.226614
v 0.294435 1.676414 0.223865
v 0.280246 1.677326 0.20967
v 0.280253 1.677775 0.189585
v 0.294453 1.6775 0.175374
v 0.314526 1.67666 0.175362
v 0.328715 1.675749 0.189557
v 0.328707 1.675299 0.209643
v 0.314508 1.675575 0.223854
v 0.289449 1.548561 0.220765
v 0.275262 1.549515 0.206571
v 0.275272 1.550029 0.186487
v 0.289473 1.549802 0.172277
v 0.309547 1.548966 0.172266
v 0.323734 1.548012 0.18646
v 0.323724 1.547498 0.206544
v 0.309522 1.547726 0.220754
v 0.283868 1.422647 0.217369
v 0.269686 1.42371 0.203178
v 0.269698 1.424272 0.183095
v 0.283898 1.424003 0.168884
v 0.303967 1.42306 0.16887
v 0.318149 1.421996 0.183061
v 0.318136 1.421435 0.203144
v 0.303937 1.421704 0.217355
v 0.277522 1.294727 0.21366
v 0.263341 1.295818 0.19947
v 0.263356 1.296429 0.179388
v 0.277557 1.296202 0.165179
v 0.297626 1.295271 0.165165
v 0.311807 1.29418 0.179355
v 0.311793 1.293569 0.199437
v 0.297591 1.293796 0.213646
v 0.272037 1.167777 0.209605
v 0.257851 1.168726 0.19541
v 0.257868 1.169412 0.175331
v 0.27208 1.169435 0.161129
v 0.29216 1.16878 0.161125
v 0.306346 1.167831 0.175319
v 0.306329 1.167145 0.195398
v 0.292117 1.167122 0.2096
v 0.268946 1.031627 0.204656
v 0.254753 1.032235 0.190448
v 0.254773 1.033029 0.170373
v 0.268993 1.033544 0.15619
v 0.289083 1.033478 0.156207
v 0.303276 1.03287 0.170414
v 0.303256 1.032076 0.190489
v 0.289036 1.031561 0.204673
v 0.271189 0.904816 0.199203
v 0.257003 0.904994 0.184977
v 0.25702 0.905907 0.164907
v 0.271231 0.907021 0.150749
v 0.291311 0.907684 0.150797
v 0.305497 0.907506 0.165023
v 0.30548 0.906593 0.185093
v 0.291269 0.905479 0.199251
v 0.27748 0.773628 0.192923
v 0.263313 0.773411 0.178678
v 0.263325 0.774445 0.158614
v 0.277508 0.776125 0.144483
v 0.297554 0.777467 0.144564
v 0.31172 0.777685 0.158809
v 0.311708 0.776651 0.178873
v 0.297525 0.77497 0.193004
v 0.288924 0.641211 0.185621
v 0.274851 0.640118 0.171325
v 0.274833 0.641427 0.151277
v 0.288883 0.644373 0.137221
v 0.308769 0.647228 0.13739
v 0.322843 0.648321 0.151686
v 0.32286 0.647012 0.171734
v 0.308811 0.644067 0.18579
v 0.314855 0.515357 0.175987
v 0.30116 0.512582 0.161552
v 0.300994 0.514554 0.141559
v 0.314453 0.520118 0.12772
v 0.333655 0.526015 0.128141
v 0.34735 0.52879 0.142577
v 0.347516 0.526818 0.16257
v 0.334057 0.521254 0.176409
v 0.365277 0.394358 0.160637
v 0.352194 0.390033 0.146015
v 0.351783 0.392624 0.126096
v 0.364283 0.400615 0.112549
v 0.382372 0.409323 0.113308
v 0.395455 0.413649 0.127929
v 0.395866 0.411057 0.147848
v 0.383366 0.403066 0.161396
v 0.402831 0.334874 0.1507
v 0.390851 0.328717 0.135793
v 0.390208 0.331693 0.115934
v 0.401279 0.342059 0.102757
v 0.417577 0.353743 0.10398
v 0.429556 0.3599 0.118887
v 0.430199 0.356924 0.138746
v 0.419129 0.346558 0.151924
v 0.429295 0.306628 0.14544
v 0.419047 0.298521 0.130179
v 0.418348 0.30156 0.110331
v 0.427607 0.313965 0.097524
v 0.441402 0.328468 0.099259
v 0.45165 0.336575 0.11452
v 0.452349 0.333536 0.134367
v 0.443089 0.321131 0.147175
v 0.447671 0.293213 0.142747
v 0.43979 0.283328 0.127132
v 0.439112 0.286351 0.107282
v 0.446036 0.300511 0.094823
v 0.456505 0.317513 0.097055
v 0.464386 0.327398 0.11267
v 0.465063 0.324375 0.13252
v 0.45814 0.310215 0.144979
v 0.466168 0.284555 0.140813
v 0.460923 0.273447 0.124915
v 0.460155 0.276512 0.105074
v 0.464315 0.291954 0.092913
v 0.470966 0.310727 0.095556
v 0.476211 0.321834 0.111454
v 0.476979 0.31877 0.131295
v 0.472819 0.303328 0.143456
v 0.488256 0.279381 0.139031
v 0.485768 0.267649 0.122912
v 0.484763 0.270768 0.10309
v 0.485829 0.28691 0.091177
v 0.488342 0.30662 0.09415
v 0.49083 0.318352 0.110269
v 0.491835 0.315233 0.130091
v 0.490769 0.299091 0.142004
v 0.51919 0.278276 0.137145
v 0.519228 0.266483 0.12088
v 0.518091 0.269604 0.101066
v 0.516444 0.285813 0.089309
v 0.515252 0.305613 0.092497
v 0.515214 0.317407 0.108762
v 0.516352 0.314285 0.128576
v 0.517998 0.298077 0.140333
v 0.558854 0.284116 0.135734
v 0.561381 0.272706 0.119392
v 0.560323 0.27584 0.099575
v 0.5563 0.291682 0.087893
v 0.551667 0.310952 0.091187
v 0.549139 0.322362 0.10753
v 0.550197 0.319228 0.127346
v 0.554221 0.303386 0.139029
v 0.604102 0.298851 0.135873
v 0.608993 0.288209 0.119549
v 0.608285 0.291457 0.099735
v 0.602393 0.306691 0.088038
v 0.594767 0.324989 0.091309
v 0.589876 0.33563 0.107633
v 0.590584 0.332383 0.127447
v 0.596476 0.317148 0.139145
v 0.639665 0.317327 0.138296
v 0.647197 0.308039 0.122152
v 0.647104 0.311602 0.10238
v 0.63944 0.325928 0.090562
v 0.628696 0.342627 0.093622
v 0.621164 0.351915 0.109766
v 0.621257 0.348352 0.129538
v 0.62892 0.334025 0.141356
v 0.662953 0.335625 0.142234
v 0.67346 0.328682 0.126581
v 0.674033 0.33277 0.106918
v 0.664338 0.345495 0.094765
v 0.650052 0.359404 0.09724
v 0.639545 0.366347 0.112894
v 0.638971 0.362259 0.132556
v 0.648667 0.349534 0.144709
v 0.693724 0.37061 0.150937
v 0.706046 0.365827 0.135806
v 0.706798 0.370128 0.116196
v 0.69554 0.380993 0.103592
v 0.678866 0.392059 0.10538
v 0.666545 0.396842 0.12051
v 0.665792 0.392541 0.140121
v 0.67705 0.381676 0.152724
v 0.732911 0.436986 0.167119
v 0.746091 0.433658 0.152325
v 0.746669 0.437663 0.132646
v 0.734307 0.446655 0.119609
v 0.716246 0.455367 0.120852
v 0.703066 0.458695 0.135646
v 0.702488 0.45469 0.155325
v 0.71485 0.445697 0.168361
v 0.75744 0.499297 0.178924
v 0.771417 0.498159 0.164537
v 0.771644 0.5012 0.144679
v 0.757989 0.506641 0.130983
v 0.73845 0.511293 0.131472
v 0.724474 0.512432 0.145859
v 0.724246 0.50939 0.165717
v 0.737902 0.50395 0.179413
v 0.778699 0.624759 0.1965
v 0.792985 0.625294 0.182384
v 0.79326 0.628594 0.162568
v 0.779363 0.632727 0.14866
v 0.759435 0.635271 0.148807
v 0.745149 0.634736 0.162923
v 0.744873 0.631435 0.182739
v 0.75877 0.627303 0.196647
v 0.785868 0.719077 0.215862
v 0.800361 0.722087 0.202277
v 0.800783 0.727153 0.18284
v 0.786888 0.731308 0.168937
v 0.766815 0.732117 0.168711
v 0.752322 0.729107 0.182296
v 0.7519 0.724041 0.201733
v 0.765795 0.719886 0.215637
v 0.784516 0.780898 0.237329
v 0.799024 0.785721 0.224294
v 0.799459 0.792303 0.205317
v 0.785566 0.796788 0.191514
v 0.765484 0.796549 0.19097
v 0.750976 0.791726 0.204005
v 0.750541 0.785145 0.222982
v 0.764434 0.780659 0.236785
v 0.33125 2.465625 0.2125
v 0.775 0.788724 0.21415
vt 0.263989 0.276123
vt 0.263916 0.273848
vt 0.278317 0.273385
vt 0.278406 0.275659
vt 0.447534 0.208252
vt 0.44751 0.205976
vt 0.461913 0.205822
vt 0.461943 0.208098
vt 0.718018 0.328687
vt 0.718024 0.326411
vt 0.732434 0.326452
vt 0.73242 0.328727
vt 0.904681 0.749724
vt 0.904667 0.752
vt 0.890306 0.751902
vt 0.890337 0.749626
vt 0.220854 0.258712
vt 0.220781 0.260986
vt 0.206345 0.260523
vt 0.206434 0.258249
vt 0.789694 0.195234
vt 0.78967 0.19751
vt 0.775219 0.197355
vt 0.775249 0.19508
vt 0.484941 0.30785
vt 0.484947 0.310126
vt 0.470506 0.310167
vt 0.470492 0.307891
vt 0.248727 0.660041
vt 0.248741 0.662317
vt 0.234383 0.662415
vt 0.234352 0.660139
vt 0.278406 0.275659
vt 0.278317 0.273385
vt 0.293509 0.272686
vt 0.293627 0.274959
vt 0.461943 0.208098
vt 0.461913 0.205822
vt 0.477116 0.205585
vt 0.477152 0.207861
vt 0.73242 0.328727
vt 0.732434 0.326452
vt 0.747653 0.3266
vt 0.747618 0.328876
vt 0.890337 0.749626
vt 0.890306 0.751902
vt 0.875111 0.751576
vt 0.875178 0.749302
vt 0.206434 0.258249
vt 0.206345 0.260523
vt 0.191073 0.259822
vt 0.191191 0.257549
vt 0.775249 0.19508
vt 0.775219 0.197355
vt 0.759925 0.197117
vt 0.759961 0.194841
vt 0.470492 0.307891
vt 0.470506 0.310167
vt 0.455237 0.310317
vt 0.455202 0.308041
vt 0.234352 0.660139
vt 0.234383 0.662415
vt 0.219209 0.66274
vt 0.219143 0.660465
vt 0.293627 0.274959
vt 0.293509 0.272686
vt 0.308697 0.271801
vt 0.308835 0.274073
vt 0.477152 0.207861
vt 0.477116 0.205585
vt 0.492326 0.205344
vt 0.492363 0.20762
vt 0.747618 0.328876
vt 0.747653 0.3266
vt 0.762875 0.326931
vt 0.762822 0.329206
vt 0.875178 0.749302
vt 0.875111 0.751576
vt 0.85992 0.750992
vt 0.860013 0.748718
vt 0.191191 0.257549
vt 0.191073 0.259822
vt 0.175822 0.258935
vt 0.17596 0.256663
vt 0.759961 0.194841
vt 0.759925 0.197117
vt 0.744649 0.196875
vt 0.744686 0.194599
vt 0.455202 0.308041
vt 0.455237 0.310317
vt 0.439986 0.310648
vt 0.439932 0.308373
vt 0.219143 0.660465
vt 0.219209 0.66274
vt 0.204042 0.663324
vt 0.203949 0.66105
vt 0.308835 0.274073
vt 0.308697 0.271801
vt 0.322922 0.270896
vt 0.323069 0.273167
vt 0.492363 0.20762
vt 0.492326 0.205344
vt 0.506575 0.205107
vt 0.506615 0.207383
vt 0.762822 0.329206
vt 0.762875 0.326931
vt 0.777121 0.327301
vt 0.777063 0.329576
vt 0.860013 0.748718
vt 0.85992 0.750992
vt 0.845717 0.750348
vt 0.845819 0.748075
vt 0.17596 0.256663
vt 0.175822 0.258935
vt 0.161576 0.25803
vt 0.161723 0.255758
vt 0.744686 0.194599
vt 0.744649 0.196875
vt 0.730375 0.196637
vt 0.730414 0.194362
vt 0.439932 0.308373
vt 0.439986 0.310648
vt 0.425723 0.311019
vt 0.425665 0.308744
vt 0.203949 0.66105
vt 0.204042 0.663324
vt 0.189841 0.663967
vt 0.189739 0.661693
vt 0.323069 0.273167
vt 0.322922 0.270896
vt 0.337972 0.269908
vt 0.338121 0.272179
vt 0.506615 0.207383
vt 0.506575 0.205107
vt 0.521648 0.204833
vt 0.521692 0.207109
vt 0.777063 0.329576
vt 0.777121 0.327301
vt 0.792182 0.327691
vt 0.792128 0.329966
vt 0.845819 0.748075
vt 0.845717 0.750348
vt 0.830708 0.749649
vt 0.83081 0.747375
vt 0.161723 0.255758
vt 0.161576 0.25803
vt 0.146533 0.257043
vt 0.146682 0.254772
vt 0.730414 0.194362
vt 0.730375 0.196637
vt 0.715299 0.196363
vt 0.715343 0.194088
vt 0.425665 0.308744
vt 0.425723 0.311019
vt 0.410652 0.311409
vt 0.410598 0.309134
vt 0.189739 0.661693
vt 0.189841 0.663967
vt 0.174821 0.664667
vt 0.17472 0.662393
vt 0.338121 0.272179
vt 0.337972 0.269908
vt 0.353103 0.26891
vt 0.353251 0.271181
vt 0.521692 0.207109
vt 0.521648 0.204833
vt 0.536799 0.204521
vt 0.53685 0.206796
vt 0.792128 0.329966
vt 0.792182 0.327691
vt 0.807315 0.328035
vt 0.807271 0.33031
vt 0.83081 0.747375
vt 0.830708 0.749649
vt 0.815632 0.748977
vt 0.815725 0.746703
vt 0.146682 0.254772
vt 0.146533 0.257043
vt 0.131429 0.256048
vt 0.131577 0.253777
vt 0.715343 0.194088
vt 0.715299 0.196363
vt 0.700162 0.196051
vt 0.700213 0.193776
vt 0.410598 0.309134
vt 0.410652 0.311409
vt 0.395512 0.311754
vt 0.395469 0.309478
vt 0.17472 0.662393
vt 0.174821 0.664667
vt 0.159721 0.66534
vt 0.159628 0.663066
vt 0.353251 0.271181
vt 0.353103 0.26891
vt 0.36756 0.267976
vt 0.367713 0.270247
vt 0.53685 0.206796
vt 0.536799 0.204521
vt 0.551272 0.204171
vt 0.55133 0.206446
vt 0.807271 0.33031
vt 0.807315 0.328035
vt 0.821776 0.328269
vt 0.821738 0.330545
vt 0.815725 0.746703
vt 0.815632 0.748977
vt 0.801213 0.748415
vt 0.801306 0.746141
vt 0.131577 0.253777
vt 0.131429 0.256048
vt 0.11698 0.255116
vt 0.117133 0.252846
vt 0.700213 0.193776
vt 0.700162 0.196051
vt 0.685682 0.195701
vt 0.685741 0.193426
vt 0.395469 0.309478
vt 0.395512 0.311754
vt 0.381034 0.311989
vt 0.380996 0.309714
vt 0.159628 0.663066
vt 0.159721 0.66534
vt 0.145284 0.665902
vt 0.145191 0.663628
vt 0.367713 0.270247
vt 0.36756 0.267976
vt 0.381788 0.266976
vt 0.381953 0.269246
vt 0.55133 0.206446
vt 0.551272 0.204171
vt 0.56552 0.203787
vt 0.565583 0.206062
vt 0.821738 0.330545
vt 0.821776 0.328269
vt 0.836021 0.328528
vt 0.835979 0.330803
vt 0.801306 0.746141
vt 0.801213 0.748415
vt 0.786992 0.747785
vt 0.787096 0.745512
vt 0.117133 0.252846
vt 0.11698 0.255116
vt 0.102728 0.254116
vt 0.102893 0.251846
vt 0.685741 0.193426
vt 0.685682 0.195701
vt 0.6714 0.195316
vt 0.671463 0.193041
vt 0.380996 0.309714
vt 0.381034 0.311989
vt 0.366763 0.312248
vt 0.366721 0.309973
vt 0.145191 0.663628
vt 0.145284 0.665902
vt 0.131062 0.666532
vt 0.130957 0.664259
vt 0.381953 0.269246
vt 0.381788 0.266976
vt 0.39625 0.265885
vt 0.396418 0.268155
vt 0.565583 0.206062
vt 0.56552 0.203787
vt 0.580004 0.203368
vt 0.580073 0.205643
vt 0.835979 0.330803
vt 0.836021 0.328528
vt 0.850493 0.328824
vt 0.850455 0.3311
vt 0.787096 0.745512
vt 0.786992 0.747785
vt 0.772554 0.74707
vt 0.772657 0.744797
vt 0.102893 0.251846
vt 0.102728 0.254116
vt 0.088275 0.253026
vt 0.088443 0.250757
vt 0.671463 0.193041
vt 0.6714 0.195316
vt 0.656913 0.194897
vt 0.656982 0.192622
vt 0.366721 0.309973
vt 0.366763 0.312248
vt 0.35228 0.312545
vt 0.352242 0.31027
vt 0.130957 0.664259
vt 0.131062 0.666532
vt 0.116609 0.667248
vt 0.116506 0.664975
vt 0.396418 0.268155
vt 0.39625 0.265885
vt 0.410624 0.264836
vt 0.410776 0.267106
vt 0.580073 0.205643
vt 0.580004 0.203368
vt 0.594395 0.202909
vt 0.594473 0.205183
vt 0.850455 0.3311
vt 0.850493 0.328824
vt 0.864848 0.329023
vt 0.864838 0.331299
vt 0.772657 0.744797
vt 0.772554 0.74707
vt 0.758259 0.746454
vt 0.758331 0.744179
vt 0.088443 0.250757
vt 0.088275 0.253026
vt 0.073984 0.251984
vt 0.074137 0.249713
vt 0.656982 0.192622
vt 0.656913 0.194897
vt 0.642589 0.19444
vt 0.642667 0.192166
vt 0.352242 0.31027
vt 0.35228 0.312545
vt 0.337935 0.312744
vt 0.337925 0.310468
vt 0.116506 0.664975
vt 0.116609 0.667248
vt 0.102262 0.667866
vt 0.10219 0.665592
vt 0.410776 0.267106
vt 0.410624 0.264836
vt 0.42607 0.263885
vt 0.426184 0.266158
vt 0.594473 0.205183
vt 0.594395 0.202909
vt 0.609846 0.202348
vt 0.609935 0.204622
vt 0.864838 0.331299
vt 0.864848 0.329023
vt 0.880239 0.328964
vt 0.880285 0.331239
vt 0.758331 0.744179
vt 0.758259 0.746454
vt 0.742961 0.746109
vt 0.742966 0.743833
vt 0.074137 0.249713
vt 0.073984 0.251984
vt 0.058711 0.251045
vt 0.058825 0.248772
vt 0.642667 0.192166
vt 0.642589 0.19444
vt 0.627287 0.193885
vt 0.627377 0.19161
vt 0.337925 0.310468
vt 0.337935 0.312744
vt 0.322582 0.312685
vt 0.322628 0.31041
vt 0.10219 0.665592
vt 0.102262 0.667866
vt 0.086868 0.668213
vt 0.086863 0.665937
vt 0.426184 0.266158
vt 0.42607 0.263885
vt 0.440485 0.263341
vt 0.44055 0.265616
vt 0.609935 0.204622
vt 0.609846 0.202348
vt 0.624245 0.201728
vt 0.624349 0.204002
vt 0.880285 0.331239
vt 0.880239 0.328964
vt 0.894573 0.328429
vt 0.894687 0.330702
vt 0.742966 0.743833
vt 0.742961 0.746109
vt 0.728728 0.746365
vt 0.728651 0.744091
vt 0.058825 0.248772
vt 0.058711 0.251045
vt 0.044508 0.250511
vt 0.044573 0.248236
vt 0.627377 0.19161
vt 0.627287 0.193885
vt 0.613073 0.193273
vt 0.613177 0.190999
vt 0.322628 0.31041
vt 0.322582 0.312685
vt 0.308297 0.312152
vt 0.308411 0.309879
vt 0.086863 0.665937
vt 0.086868 0.668213
vt 0.07252 0.667955
vt 0.072597 0.66568
vt 0.44055 0.265616
vt 0.440485 0.263341
vt 0.455406 0.263047
vt 0.455426 0.265323
vt 0.624349 0.204002
vt 0.624245 0.201728
vt 0.639135 0.201014
vt 0.639252 0.203287
vt 0.894687 0.330702
vt 0.894573 0.328429
vt 0.909406 0.327505
vt 0.909584 0.329774
vt 0.728651 0.744091
vt 0.728728 0.746365
vt 0.713987 0.747077
vt 0.713833 0.744806
vt 0.044573 0.248236
vt 0.044508 0.250511
vt 0.029788 0.250222
vt 0.029808 0.247946
vt 0.613177 0.190999
vt 0.613073 0.193273
vt 0.598356 0.192567
vt 0.598473 0.190295
vt 0.308411 0.309879
vt 0.308297 0.312152
vt 0.293508 0.311232
vt 0.293686 0.308963
vt 0.072597 0.66568
vt 0.07252 0.667955
vt 0.05767 0.667237
vt 0.057823 0.664967
vt 0.455426 0.265323
vt 0.455406 0.263047
vt 0.470536 0.263083
vt 0.470456 0.265358
vt 0.639252 0.203287
vt 0.639135 0.201014
vt 0.654199 0.200182
vt 0.654347 0.202453
vt 0.909584 0.329774
vt 0.909406 0.327505
vt 0.924341 0.32609
vt 0.924662 0.328343
vt 0.713833 0.744806
vt 0.713987 0.747077
vt 0.699232 0.748353
vt 0.698907 0.7461
vt 0.029808 0.247946
vt 0.029788 0.250222
vt 0.015104 0.250253
vt 0.015025 0.247979
vt 0.598473 0.190295
vt 0.598356 0.192567
vt 0.583674 0.191757
vt 0.583823 0.189486
vt 0.293686 0.308963
vt 0.293508 0.311232
vt 0.27867 0.309828
vt 0.278991 0.307575
vt 0.057823 0.664967
vt 0.05767 0.667237
vt 0.042668 0.665936
vt 0.042994 0.663683
vt 0.470456 0.265358
vt 0.470536 0.263083
vt 0.485061 0.264121
vt 0.48479 0.26638
vt 0.654347 0.202453
vt 0.654199 0.200182
vt 0.668562 0.199078
vt 0.668785 0.201342
vt 0.924662 0.328343
vt 0.924341 0.32609
vt 0.938438 0.323347
vt 0.939057 0.325537
vt 0.698907 0.7461
vt 0.699232 0.748353
vt 0.68547 0.751179
vt 0.6848 0.749004
vt 0.015025 0.247979
vt 0.015104 0.250253
vt 0.001492 0.251219
vt 0.001221 0.24896
vt 0.583823 0.189486
vt 0.583674 0.191757
vt 0.570068 0.190716
vt 0.570292 0.188451
vt 0.278991 0.307575
vt 0.27867 0.309828
vt 0.264736 0.30712
vt 0.265355 0.30493
vt 0.042994 0.663683
vt 0.042668 0.665936
vt 0.028379 0.662991
vt 0.02905 0.660816
vt 0.608409 0.165283
vt 0.607666 0.163132
vt 0.62206 0.158923
vt 0.622623 0.161128
vt 0.026331 0.129639
vt 0.026123 0.127372
vt 0.04104 0.12567
vt 0.041322 0.127928
vt 0.939057 0.325537
vt 0.938438 0.323347
vt 0.952018 0.318192
vt 0.952913 0.320282
vt 0.6848 0.749004
vt 0.68547 0.751179
vt 0.672151 0.756709
vt 0.67116 0.75466
vt 0.801666 0.163134
vt 0.80092 0.165283
vt 0.787396 0.161307
vt 0.787964 0.159103
vt 0.16394 0.127372
vt 0.163733 0.129639
vt 0.149566 0.128019
vt 0.149848 0.12576
vt 0.265355 0.30493
vt 0.264736 0.30712
vt 0.251305 0.302019
vt 0.2522 0.299928
vt 0.02905 0.660816
vt 0.028379 0.662991
vt 0.014569 0.657268
vt 0.01556 0.655219
vt 0.622623 0.161128
vt 0.62206 0.158923
vt 0.630207 0.157374
vt 0.63053 0.159627
vt 0.041322 0.127928
vt 0.04104 0.12567
vt 0.049167 0.12449
vt 0.049501 0.126741
vt 0.952913 0.320282
vt 0.952018 0.318192
vt 0.958683 0.314462
vt 0.959848 0.316409
vt 0.67116 0.75466
vt 0.672151 0.756709
vt 0.665781 0.760703
vt 0.664448 0.758858
vt 0.787964 0.159103
vt 0.787396 0.161307
vt 0.780243 0.15994
vt 0.78057 0.157688
vt 0.149848 0.12576
vt 0.149566 0.128019
vt 0.142334 0.126962
vt 0.142667 0.12471
vt 0.2522 0.299928
vt 0.251305 0.302019
vt 0.244873 0.298413
vt 0.246038 0.296466
vt 0.01556 0.655219
vt 0.014569 0.657268
vt 0.007751 0.653006
vt 0.009083 0.651161
vt 0.63053 0.159627
vt 0.630207 0.157374
vt 0.634878 0.157094
vt 0.634906 0.15937
vt 0.238806 0.099854
vt 0.238525 0.097595
vt 0.24318 0.096997
vt 0.24347 0.099254
vt 0.253174 0.105225
vt 0.253252 0.102951
vt 0.257609 0.102726
vt 0.257839 0.104991
vt 0.664448 0.758858
vt 0.665781 0.760703
vt 0.662878 0.763406
vt 0.661223 0.761844
vt 0.78057 0.157688
vt 0.780243 0.15994
vt 0.776611 0.159733
vt 0.776644 0.157457
vt 0.423894 0.097595
vt 0.423615 0.099854
vt 0.419978 0.099387
vt 0.420267 0.097129
vt 0.148561 0.09758
vt 0.148645 0.099854
vt 0.144692 0.099653
vt 0.144915 0.097388
vt 0.009083 0.651161
vt 0.007751 0.653006
vt 0.004508 0.650005
vt 0.006163 0.648443
vt 0.199255 0.099854
vt 0.198486 0.097712
vt 0.201288 0.096951
vt 0.201735 0.099183
vt 0.24347 0.099254
vt 0.24318 0.096997
vt 0.24608 0.096626
vt 0.246367 0.098883
vt 0.257839 0.104991
vt 0.257609 0.102726
vt 0.260168 0.10225
vt 0.260726 0.104456
vt 0.661223 0.761844
vt 0.662878 0.763406
vt 0.661619 0.765118
vt 0.659676 0.763934
vt 0.488513 0.097712
vt 0.487745 0.099854
vt 0.48603 0.099398
vt 0.486477 0.097167
vt 0.420267 0.097129
vt 0.419978 0.099387
vt 0.418213 0.099161
vt 0.418498 0.096904
vt 0.144915 0.097388
vt 0.144692 0.099653
vt 0.142607 0.099265
vt 0.143159 0.097057
vt 0.006163 0.648443
vt 0.004508 0.650005
vt 0.002966 0.647921
vt 0.004908 0.646737
vt 0.201735 0.099183
vt 0.201288 0.096951
vt 0.203922 0.09662
vt 0.204041 0.098893
vt 0.572209 0.099854
vt 0.572021 0.097585
vt 0.574642 0.097369
vt 0.574841 0.099637
vt 0.260726 0.104456
vt 0.260168 0.10225
vt 0.262328 0.101532
vt 0.263211 0.103629
vt 0.659676 0.763934
vt 0.661619 0.765118
vt 0.660837 0.766757
vt 0.65869 0.766006
vt 0.486477 0.097167
vt 0.48603 0.099398
vt 0.484555 0.099214
vt 0.484673 0.096941
vt 0.292211 0.07073
vt 0.292022 0.072998
vt 0.290537 0.072878
vt 0.290737 0.070611
vt 0.143159 0.097057
vt 0.142607 0.099265
vt 0.140869 0.098695
vt 0.141747 0.096596
vt 0.004908 0.646737
vt 0.002966 0.647921
vt 0.001968 0.645824
vt 0.004115 0.645073
vt 0.204041 0.098893
vt 0.203922 0.09662
vt 0.206789 0.096666
vt 0.206591 0.098932
vt 0.574841 0.099637
vt 0.574642 0.097369
vt 0.577485 0.097103
vt 0.577712 0.099368
vt 0.177002 0.105105
vt 0.17726 0.102845
vt 0.179748 0.102951
vt 0.179847 0.105225
vt 0.65869 0.766006
vt 0.660837 0.766757
vt 0.660359 0.768727
vt 0.658103 0.768444
vt 0.484673 0.096941
vt 0.484555 0.099214
vt 0.482865 0.099235
vt 0.482666 0.096969
vt 0.290737 0.070611
vt 0.290537 0.072878
vt 0.288818 0.072717
vt 0.289046 0.070453
vt 0.493517 0.102877
vt 0.49377 0.105138
vt 0.491693 0.105225
vt 0.491798 0.102951
vt 0.004115 0.645073
vt 0.001968 0.645824
vt 0.001366 0.643321
vt 0.003622 0.643038
vt 0.678559 0.105156
vt 0.677979 0.102957
vt 0.681637 0.102181
vt 0.68194 0.104437
vt 0.722997 0.099854
vt 0.7229 0.09758
vt 0.726665 0.097403
vt 0.726777 0.099676
vt 0.179847 0.105225
vt 0.179748 0.102951
vt 0.183206 0.10259
vt 0.183611 0.104829
vt 0.658103 0.768444
vt 0.660359 0.768727
vt 0.660228 0.771776
vt 0.657959 0.771914
vt 0.121148 0.097521
vt 0.120568 0.09972
vt 0.117904 0.099148
vt 0.118207 0.096892
vt 0.195444 0.088302
vt 0.195346 0.090576
vt 0.192576 0.090444
vt 0.192689 0.08817
vt 0.491798 0.102951
vt 0.491693 0.105225
vt 0.488618 0.104899
vt 0.489028 0.102661
vt 0.003622 0.643038
vt 0.001366 0.643321
vt 0.001221 0.639815
vt 0.003489 0.639953
vt 0.68194 0.104437
vt 0.681637 0.102181
vt 0.686446 0.101802
vt 0.686465 0.104077
vt 0.726777 0.099676
vt 0.726665 0.097403
vt 0.731478 0.097161
vt 0.73158 0.099435
vt 0.183611 0.104829
vt 0.183206 0.10259
vt 0.187609 0.101525
vt 0.188276 0.1037
vt 0.657959 0.771914
vt 0.660228 0.771776
vt 0.660816 0.775902
vt 0.658606 0.77643
vt 0.118207 0.096892
vt 0.117904 0.099148
vt 0.114035 0.098836
vt 0.114053 0.09656
vt 0.192689 0.08817
vt 0.192576 0.090444
vt 0.188721 0.090245
vt 0.188824 0.087972
vt 0.489028 0.102661
vt 0.488618 0.104899
vt 0.484619 0.103923
vt 0.485292 0.101749
vt 0.003489 0.639953
vt 0.001221 0.639815
vt 0.001864 0.635321
vt 0.004074 0.635848
vt 0.686465 0.104077
vt 0.686446 0.101802
vt 0.692099 0.10209
vt 0.691837 0.104351
vt 0.246338 0.090248
vt 0.246366 0.087973
vt 0.252059 0.088071
vt 0.251989 0.090346
vt 0.862549 0.115138
vt 0.863146 0.112942
vt 0.86845 0.114107
vt 0.868067 0.11635
vt 0.658606 0.77643
vt 0.660816 0.775902
vt 0.662402 0.780785
vt 0.660302 0.781651
vt 0.114053 0.09656
vt 0.114035 0.098836
vt 0.109198 0.099082
vt 0.108936 0.096821
vt 0.328887 0.070458
vt 0.328916 0.072734
vt 0.324122 0.072814
vt 0.324052 0.070539
vt 0.160877 0.101465
vt 0.161476 0.103661
vt 0.156614 0.104729
vt 0.156231 0.102486
vt 0.004074 0.635848
vt 0.001864 0.635321
vt 0.003529 0.630196
vt 0.005629 0.631062
vt 0.691837 0.104351
vt 0.692099 0.10209
vt 0.696827 0.103028
vt 0.69624 0.105225
vt 0.251989 0.090346
vt 0.252059 0.088071
vt 0.256998 0.088305
vt 0.25685 0.090576
vt 0.868067 0.11635
vt 0.86845 0.114107
vt 0.873155 0.114651
vt 0.872997 0.116921
vt 0.660302 0.781651
vt 0.662402 0.780785
vt 0.664419 0.784626
vt 0.662502 0.785846
vt 0.108936 0.096821
vt 0.109198 0.099082
vt 0.105325 0.099854
vt 0.104736 0.097657
vt 0.324052 0.070539
vt 0.324122 0.072814
vt 0.320217 0.072998
vt 0.320068 0.070727
vt 0.156231 0.102486
vt 0.156614 0.104729
vt 0.152492 0.105205
vt 0.152332 0.102934
vt 0.005629 0.631062
vt 0.003529 0.630196
vt 0.005642 0.626169
vt 0.007559 0.627388
vt 0.135049 0.141581
vt 0.13501 0.139307
vt 0.13879 0.139599
vt 0.138401 0.141841
vt 0.099854 0.103688
vt 0.100129 0.101429
vt 0.103985 0.101994
vt 0.103614 0.104239
vt 0.872997 0.116921
vt 0.873155 0.114651
vt 0.876729 0.114672
vt 0.876862 0.116943
vt 0.662502 0.785846
vt 0.664419 0.784626
vt 0.666354 0.787043
vt 0.664759 0.788663
vt 0.377415 0.13972
vt 0.377377 0.141995
vt 0.374732 0.142204
vt 0.374341 0.139962
vt 0.620759 0.101781
vt 0.621034 0.10404
vt 0.618499 0.104415
vt 0.618128 0.10217
vt 0.152332 0.102934
vt 0.152492 0.105205
vt 0.149658 0.105225
vt 0.149791 0.102953
vt 0.007559 0.627388
vt 0.005642 0.626169
vt 0.007753 0.623534
vt 0.009349 0.625154
vt 0.138401 0.141841
vt 0.13879 0.139599
vt 0.144333 0.140904
vt 0.143628 0.143068
vt 0.103614 0.104239
vt 0.103985 0.101994
vt 0.1096 0.102985
vt 0.109197 0.105225
vt 0.669189 0.223807
vt 0.67032 0.221833
vt 0.675081 0.224319
vt 0.674199 0.226417
vt 0.664759 0.788663
vt 0.666354 0.787043
vt 0.670134 0.790301
vt 0.668867 0.792191
vt 0.374341 0.139962
vt 0.374732 0.142204
vt 0.370162 0.143273
vt 0.369455 0.141109
vt 0.618128 0.10217
vt 0.618499 0.104415
vt 0.613927 0.105225
vt 0.613525 0.102984
vt 0.926301 0.199079
vt 0.92743 0.201054
vt 0.923112 0.203314
vt 0.922231 0.201215
vt 0.009349 0.625154
vt 0.007753 0.623534
vt 0.011802 0.620055
vt 0.013069 0.621945
vt 0.143628 0.143068
vt 0.144333 0.140904
vt 0.152783 0.144144
vt 0.151897 0.14624
vt 0.510498 0.134185
vt 0.510975 0.13196
vt 0.519822 0.133869
vt 0.519384 0.136102
vt 0.674199 0.226417
vt 0.675081 0.224319
vt 0.683366 0.22735
vt 0.68272 0.229532
vt 0.668867 0.792191
vt 0.670134 0.790301
vt 0.677456 0.794524
vt 0.676461 0.796571
vt 0.369455 0.141109
vt 0.370162 0.143273
vt 0.36246 0.14624
vt 0.361572 0.144145
vt 0.090571 0.124501
vt 0.091048 0.126727
vt 0.082904 0.12849
vt 0.082467 0.126256
vt 0.922231 0.201215
vt 0.923112 0.203314
vt 0.915032 0.206264
vt 0.914387 0.204081
vt 0.013069 0.621945
vt 0.011802 0.620055
vt 0.019478 0.615627
vt 0.020473 0.617674
vt 0.686279 0.282847
vt 0.686446 0.280577
vt 0.694295 0.281487
vt 0.693864 0.283722
vt 0.519384 0.136102
vt 0.519822 0.133869
vt 0.527538 0.135198
vt 0.527216 0.137451
vt 0.68272 0.229532
vt 0.683366 0.22735
vt 0.69061 0.228914
vt 0.69039 0.231179
vt 0.676461 0.796571
vt 0.677456 0.794524
vt 0.683885 0.797031
vt 0.683357 0.799245
vt 0.970537 0.280735
vt 0.970705 0.283005
vt 0.964154 0.283747
vt 0.963722 0.281513
vt 0.082467 0.126256
vt 0.082904 0.12849
vt 0.07625 0.129639
vt 0.075928 0.127386
vt 0.914387 0.204081
vt 0.915032 0.206264
vt 0.907994 0.207782
vt 0.907775 0.205517
vt 0.020473 0.617674
vt 0.019478 0.615627
vt 0.026642 0.612858
vt 0.02717 0.615071
vt 0.693864 0.283722
vt 0.694295 0.281487
vt 0.708645 0.28483
vt 0.708024 0.28702
vt 0.513916 0.180001
vt 0.514262 0.177752
vt 0.528838 0.179772
vt 0.528463 0.182017
vt 0.69039 0.231179
vt 0.69061 0.228914
vt 0.705053 0.229416
vt 0.704983 0.231689
vt 0.683357 0.799245
vt 0.683885 0.797031
vt 0.698061 0.799395
vt 0.697775 0.801653
vt 0.963722 0.281513
vt 0.964154 0.283747
vt 0.950354 0.286967
vt 0.949732 0.284778
vt 0.254676 0.156549
vt 0.255022 0.158799
vt 0.241058 0.160721
vt 0.240683 0.158476
vt 0.907775 0.205517
vt 0.907994 0.207782
vt 0.893867 0.208252
vt 0.893799 0.205978
vt 0.02717 0.615071
vt 0.026642 0.612858
vt 0.040988 0.610463
vt 0.041274 0.61272
vt 0.708024 0.28702
vt 0.708645 0.28483
vt 0.719214 0.288554
vt 0.718322 0.290647
vt 0.528463 0.182017
vt 0.528838 0.179772
vt 0.540036 0.182069
vt 0.53946 0.18427
vt 0.584229 0.179968
vt 0.585033 0.177839
vt 0.595736 0.181757
vt 0.594929 0.183885
vt 0.697775 0.801653
vt 0.698061 0.799395
vt 0.709212 0.800217
vt 0.709125 0.80249
vt 0.949732 0.284778
vt 0.950354 0.286967
vt 0.940053 0.290603
vt 0.93916 0.288509
vt 0.240683 0.158476
vt 0.241058 0.160721
vt 0.230538 0.162873
vt 0.229962 0.160671
vt 0.585435 0.156766
vt 0.586242 0.158894
vt 0.576195 0.162579
vt 0.575386 0.160452
vt 0.041274 0.61272
vt 0.040988 0.610463
vt 0.051847 0.609665
vt 0.051934 0.611939
vt 0.718322 0.290647
vt 0.719214 0.288554
vt 0.725917 0.292189
vt 0.724833 0.294189
vt 0.53946 0.18427
vt 0.540036 0.182069
vt 0.547383 0.184618
vt 0.546635 0.186768
vt 0.594929 0.183885
vt 0.595736 0.181757
vt 0.603004 0.184654
vt 0.60216 0.186768
vt 0.709125 0.80249
vt 0.709212 0.800217
vt 0.71674 0.800049
vt 0.716775 0.802324
vt 0.93916 0.288509
vt 0.940053 0.290603
vt 0.933459 0.294189
vt 0.932373 0.29219
vt 0.229962 0.160671
vt 0.230538 0.162873
vt 0.223648 0.165283
vt 0.2229 0.163133
vt 0.575386 0.160452
vt 0.576195 0.162579
vt 0.56945 0.165283
vt 0.568604 0.16317
vt 0.051934 0.611939
vt 0.051847 0.609665
vt 0.059071 0.609834
vt 0.059036 0.612108
vt 0.486696 0.135842
vt 0.485086 0.137451
vt 0.483949 0.134704
vt 0.486696 0.133566
vt 0.486696 0.135842
vt 0.483949 0.134704
vt 0.485087 0.131957
vt 0.486696 0.133566
vt 0.483949 0.134704
vt 0.482811 0.131956
vt 0.485087 0.131957
vt 0.483949 0.134704
vt 0.481201 0.133566
vt 0.482811 0.131956
vt 0.483949 0.134704
vt 0.481201 0.135842
vt 0.481201 0.133566
vt 0.483949 0.134704
vt 0.48281 0.137451
vt 0.481201 0.135842
vt 0.483949 0.134704
vt 0.485086 0.137451
vt 0.48281 0.137451
vt 0.483949 0.134704
vt 0.462007 0.134672
vt 0.464786 0.135731
vt 0.463223 0.137386
vt 0.462007 0.134672
vt 0.463223 0.137386
vt 0.460948 0.137451
vt 0.462007 0.134672
vt 0.460948 0.137451
vt 0.459294 0.135889
vt 0.462007 0.134672
vt 0.459294 0.135889
vt 0.459229 0.133614
vt 0.462007 0.134672
vt 0.459229 0.133614
vt 0.460791 0.131959
vt 0.462007 0.134672
vt 0.460791 0.131959
vt 0.463066 0.131894
vt 0.462007 0.134672
vt 0.463066 0.131894
vt 0.464721 0.133456
vt 0.462007 0.134672
vt 0.464721 0.133456
vt 0.464786 0.135731
vn -0.382455 -0.007263 0.923945
vn -0.923801 0.002228 0.382867
vn -0.923718 0.008178 0.382985
vn -0.382358 -0.006734 0.92399
vn -0.923852 0.010413 -0.382608
vn -0.923751 0.018299 -0.382557
vn -0.382515 0.012497 -0.923865
vn -0.38235 0.017695 -0.923848
vn 0.382895 0.007256 -0.923763
vn 0.382988 0.006718 -0.923729
vn 0.923921 -0.002239 -0.382577
vn 0.92387 -0.008198 -0.382619
vn 0.923864 -0.010424 0.382578
vn 0.923797 -0.018313 0.382443
vn 0.382847 -0.012503 0.923727
vn 0.382876 -0.017706 0.92363
vn -0.923423 0.021616 0.383175
vn -0.382232 -0.003104 0.924061
vn -0.923391 0.03367 -0.382381
vn -0.382118 0.025985 -0.923748
vn 0.382929 0.00308 -0.923773
vn 0.923568 -0.02162 -0.382825
vn 0.923475 -0.03366 0.382179
vn 0.382753 -0.025995 0.923485
vn -0.923073 0.032275 0.383268
vn -0.382237 0.000914 0.924064
vn -0.923014 0.044725 -0.382159
vn -0.382068 0.030965 -0.923615
vn 0.382656 -0.000931 -0.92389
vn 0.92316 -0.032273 -0.383058
vn 0.923065 -0.044716 0.382037
vn 0.382451 -0.030975 0.923457
vn -0.922942 0.035671 0.383283
vn -0.382359 0.001398 0.924013
vn -0.922857 0.049048 -0.382007
vn -0.382107 0.03369 -0.923504
vn 0.382489 -0.001405 -0.923959
vn 0.922992 -0.035674 -0.383162
vn 0.922841 -0.049046 0.382047
vn 0.38217 -0.033692 0.923478
vn -0.923 0.034592 0.383242
vn -0.382538 -0.000541 0.92394
vn -0.922863 0.049465 -0.381938
vn -0.382137 0.035363 -0.923429
vn 0.382488 0.000542 -0.92396
vn 0.923033 -0.034597 -0.383163
vn 0.922796 -0.049466 0.3821
vn 0.381987 -0.035358 0.923491
vn -0.923193 0.03003 0.383162
vn -0.382711 -0.004693 0.923856
vn -0.922969 0.047164 -0.381973
vn -0.382085 0.036672 -0.923399
vn 0.382677 0.004695 -0.92387
vn 0.92324 -0.030033 -0.383049
vn 0.922889 -0.047164 0.382167
vn 0.381924 -0.036667 0.923466
vn -0.923232 0.028632 0.383175
vn -0.382723 -0.007714 0.923831
vn -0.922906 0.048206 -0.381996
vn -0.381848 0.039537 -0.923379
vn 0.382916 0.007704 -0.923751
vn 0.923314 -0.028642 -0.382976
vn 0.922869 -0.048209 0.382085
vn 0.381922 -0.039541 0.923348
vn -0.923059 0.032644 0.383271
vn -0.382739 -0.007875 0.923823
vn -0.922644 0.054042 -0.381848
vn -0.381662 0.043777 -0.923265
vn 0.382914 0.007864 -0.923751
vn 0.923132 -0.032651 -0.383095
vn 0.922613 -0.054039 0.381922
vn 0.381733 -0.043778 0.923235
vn -0.923164 0.031179 0.383139
vn -0.383099 -0.010355 0.923649
vn -0.922675 0.054458 -0.381713
vn -0.381822 0.045845 -0.923098
vn 0.382796 0.010365 -0.923775
vn 0.923166 -0.031196 -0.383132
vn 0.922545 -0.054473 0.382025
vn 0.381386 -0.045833 0.923279
vn -0.923772 0.017009 0.382566
vn -0.383788 -0.019088 0.923224
vn -0.923198 0.043156 -0.381894
vn -0.382263 0.044047 -0.923003
vn 0.382806 0.019111 -0.923631
vn 0.92368 -0.017055 -0.382786
vn 0.922917 -0.043216 0.382566
vn 0.381092 -0.044038 0.923488
vn -0.924322 -0.012113 0.38142
vn -0.384313 -0.035254 0.922529
vn -0.923691 0.018114 -0.382711
vn -0.382649 0.037749 -0.923122
vn 0.382789 0.035269 -0.923162
vn 0.924158 0.012092 -0.381819
vn 0.923291 -0.018182 0.383671
vn 0.380889 -0.037781 0.923848
vn -0.923806 -0.047829 0.379861
vn -0.384138 -0.05462 0.921659
vn -0.923261 -0.013076 -0.383951
vn -0.382622 0.029339 -0.923439
vn 0.382476 0.054601 -0.922351
vn 0.923626 0.047856 -0.380296
vn 0.922827 0.013026 0.384996
vn 0.380707 -0.029435 0.924227
vn -0.922176 -0.081593 0.378066
vn -0.383759 -0.073262 0.920523
vn -0.921972 -0.042243 -0.384946
vn -0.382823 0.021813 -0.923564
vn 0.381243 0.072979 -0.92159
vn 0.921939 0.081219 -0.378724
vn 0.921319 0.041808 0.386553
vn 0.379891 -0.022156 0.924766
vn -0.914288 -0.15705 0.373381
vn -0.38078 -0.115316 0.917447
vn -0.915501 -0.107196 -0.387771
vn -0.382673 0.005141 -0.92387
vn 0.375571 0.113949 -0.919762
vn 0.914021 0.155428 -0.374711
vn 0.914186 0.105539 0.391313
vn 0.376407 -0.006544 0.926431
vn -0.88002 -0.308701 0.360926
vn -0.360746 -0.203693 0.910149
vn -0.886871 -0.233975 -0.398391
vn -0.377376 -0.023019 -0.925774
vn 0.353837 0.201921 -0.913251
vn 0.879359 0.308773 -0.362474
vn 0.884896 0.232957 0.403349
vn 0.369193 0.020174 0.929134
vn -0.824361 -0.450164 0.343193
vn -0.330149 -0.286976 0.899248
vn -0.840638 -0.352445 -0.41123
vn -0.368577 -0.049657 -0.92827
vn 0.3211 0.283069 -0.903751
vn 0.823613 0.449451 -0.345912
vn 0.838763 0.349786 0.417285
vn 0.358397 0.043803 0.932541
vn -0.738397 -0.594508 0.318324
vn -0.289947 -0.364984 0.884713
vn -0.762928 -0.483165 -0.429526
vn -0.348652 -0.09312 -0.932615
vn 0.271832 0.353716 -0.894982
vn 0.735909 0.593303 -0.326235
vn 0.760377 0.477758 0.439971
vn 0.330439 0.077639 0.940629
vn -0.6229 -0.726728 0.28959
vn -0.245498 -0.430353 0.868635
vn -0.648867 -0.613769 -0.449733
vn -0.308966 -0.153793 -0.938556
vn 0.214352 0.400221 -0.890997
vn 0.618681 0.722348 -0.308946
vn 0.646143 0.603123 0.467698
vn 0.279278 0.117464 0.952998
vn -0.471136 -0.841918 0.263068
vn -0.185259 -0.488136 0.852879
vn -0.496535 -0.730402 -0.469005
vn -0.247013 -0.214171 -0.945048
vn 0.148022 0.432465 -0.889417
vn 0.464436 0.835404 -0.293938
vn 0.490801 0.714767 0.498219
vn 0.210692 0.149759 0.966013
vn -0.292787 -0.924268 0.244958
vn -0.102102 -0.526152 0.844239
vn -0.321841 -0.81205 -0.48682
vn -0.172705 -0.250186 -0.95267
vn 0.077996 0.463682 -0.882562
vn 0.288621 0.917258 -0.274474
vn 0.318195 0.793514 0.518736
vn 0.149185 0.177022 0.972834
vn -0.099244 -0.967591 0.232205
vn -0.005999 -0.540589 0.841265
vn -0.136397 -0.852648 -0.504368
vn -0.097228 -0.258539 -0.961095
vn -0.003414 0.49307 -0.869983
vn 0.092443 0.963116 -0.252711
vn 0.132321 0.839053 0.527713
vn 0.090483 0.202265 0.975142
vn 0.075544 -0.971621 0.224156
vn 0.075193 -0.535825 0.840974
vn 0.0333 -0.854776 -0.517928
vn -0.028214 -0.251167 -0.967533
vn -0.074719 0.503683 -0.860651
vn -0.077586 0.967869 -0.239186
vn -0.032925 0.846327 0.531646
vn 0.031076 0.214413 0.976249
vn 0.232683 -0.947328 0.220063
vn 0.139154 -0.52247 0.841226
vn 0.193062 -0.828732 -0.525292
vn 0.0426 -0.235063 -0.971046
vn -0.134344 0.498826 -0.856227
vn -0.233711 0.943952 -0.233095
vn -0.192645 0.823575 0.53349
vn -0.036353 0.209642 0.977102
vn 0.365348 -0.90452 0.219918
vn 0.182694 -0.509021 0.841143
vn 0.33856 -0.780779 -0.52513
vn 0.117602 -0.20985 -0.970635
vn -0.172655 0.48625 -0.856593
vn -0.362655 0.901723 -0.235323
vn -0.335497 0.777999 0.531186
vn -0.10717 0.187035 0.97649
vn 0.500206 -0.836196 0.224879
vn 0.220509 -0.497048 0.839237
vn 0.495716 -0.700421 -0.513494
vn 0.210369 -0.168463 -0.962998
vn -0.196948 0.466114 -0.862525
vn -0.49044 0.835071 -0.24925
vn -0.487902 0.699488 0.522176
vn -0.188641 0.137529 0.972368
vn 0.648057 -0.719156 0.250671
vn 0.259342 -0.464631 0.846675
vn 0.667355 -0.565784 -0.484278
vn 0.308931 -0.090749 -0.946745
vn -0.231901 0.440781 -0.867141
vn -0.643739 0.715276 -0.271992
vn -0.66863 0.55686 0.492789
vn -0.286963 0.061822 0.955945
vn 0.753039 -0.591568 0.288061
vn 0.290069 -0.412506 0.863539
vn 0.781212 -0.429569 -0.452966
vn 0.358326 -0.018739 -0.933408
vn -0.27554 0.404223 -0.872171
vn -0.751469 0.589812 -0.295662
vn -0.780665 0.423736 0.459358
vn -0.344791 0.006391 0.938658
vn 0.821304 -0.474805 0.31626
vn 0.324869 -0.351697 0.877935
vn 0.844104 -0.325022 -0.426438
vn 0.379188 0.013693 -0.925218
vn -0.309921 0.348539 -0.884573
vn -0.817695 0.479199 -0.318972
vn -0.839248 0.324095 0.436607
vn -0.362988 -0.022185 0.93153
vn 0.894088 -0.273984 0.354314
vn 0.365369 -0.230329 0.901917
vn 0.903413 -0.157905 -0.398637
vn 0.388286 0.049274 -0.920221
vn -0.355519 0.226259 -0.90687
vn -0.893786 0.269684 -0.358354
vn -0.901751 0.153627 0.404034
vn -0.377142 -0.0533 0.92462
vn 0.912294 -0.179818 0.367948
vn 0.370866 -0.200419 0.906802
vn 0.921581 -0.053928 -0.384422
vn 0.394193 0.103454 -0.913186
vn -0.363889 0.200209 -0.909671
vn -0.910072 0.179947 -0.373347
vn -0.921801 0.054341 0.383835
vn -0.389644 -0.103383 0.915145
vn 0.917028 -0.132819 0.376058
vn 0.368011 -0.248146 0.896098
vn 0.930395 0.059304 -0.361729
vn 0.402929 0.217055 -0.889121
vn -0.359429 0.248568 -0.899458
vn -0.913085 0.134608 -0.384912
vn -0.932156 -0.059046 0.35721
vn -0.400048 -0.218177 0.890146
vn 0.917525 -0.1129 0.381315
vn 0.365917 -0.298231 0.881568
vn 0.930356 0.136438 -0.340327
vn 0.404006 0.305665 -0.862176
vn -0.357282 0.298277 -0.885088
vn -0.913175 0.115607 -0.390828
vn -0.932462 -0.136877 0.334333
vn -0.401847 -0.308734 0.862092
vn 0.006848 0.999919 0.010693
vn -0.020079 0.944743 0.327197
f 261/851/137 262/852/138 270/853/139 269/854/140
f 262/855/138 263/856/141 271/857/142 270/858/139
f 263/859/141 264/860/143 272/861/144 271/862/142
f 264/863/143 265/864/145 273/865/146 272/866/144
f 265/867/145 266/868/147 274/869/148 273/870/146
f 266/871/147 267/872/149 275/873/150 274/874/148
f 267/875/149 268/876/151 276/877/152 275/878/150
f 268/879/151 261/880/137 269/881/140 276/882/152
f 269/883/140 270/884/139 278/885/153 277/886/154
f 270/887/139 271/888/142 279/889/155 278/890/153
f 271/891/142 272/892/144 280/893/156 279/894/155
f 272/895/144 273/896/146 281/897/157 280/898/156
f 273/899/146 274/900/148 282/901/158 281/902/157
f 274/903/148 275/904/150 283/905/159 282/906/158
f 275/907/150 276/908/152 284/909/160 283/910/159
f 276/911/152 269/912/140 277/913/154 284/914/160
f 277/915/154 278/916/153 286/917/161 285/918/162
f 278/919/153 279/920/155 287/921/163 286/922/161
f 279/923/155 280/924/156 288/925/164 287/926/163
f 280/927/156 281/928/157 289/929/165 288/930/164
f 281/931/157 282/932/158 290/933/166 289/934/165
f 282/935/158 283/936/159 291/937/167 290/938/166
f 283/939/159 284/940/160 292/941/168 291/942/167
f 284/943/160 277/944/154 285/945/162 292/946/168
f 285/947/162 286/948/161 294/949/169 293/950/170
f 286/951/161 287/952/163 295/953/171 294/954/169
f 287/955/163 288/956/164 296/957/172 295/958/171
f 288/959/164 289/960/165 297/961/173 296/962/172
f 289/963/165 290/964/166 298/965/174 297/966/173
f 290/967/166 291/968/167 299/969/175 298/970/174
f 291/971/167 292/972/168 300/973/176 299/974/175
f 292/975/168 285/976/162 293/977/170 300/978/176
f 293/979/170 294/980/169 302/981/177 301/982/178
f 294/983/169 295/984/171 303/985/179 302/986/177
f 295/987/171 296/988/172 304/989/180 303/990/179
f 296/991/172 297/992/173 305/993/181 304/994/180
f 297/995/173 298/996/174 306/997/182 305/998/181
f 298/999/174 299/1000/175 307/1001/183 306/1002/182
f 299/1003/175 300/1004/176 308/1005/184 307/1006/183
f 300/1007/176 293/1008/170 301/1009/178 308/1010/184
f 301/1011/178 302/1012/177 310/1013/185 309/1014/186
f 302/1015/177 303/1016/179 311/1017/187 310/1018/185
f 303/1019/179 304/1020/180 312/1021/188 311/1022/187
f 304/1023/180 305/1024/181 313/1025/189 312/1026/188
f 305/1027/181 306/1028/182 314/1029/190 313/1030/189
f 306/1031/182 307/1032/183 315/1033/191 314/1034/190
f 307/1035/183 308/1036/184 316/1037/192 315/1038/191
f 308/1039/184 301/1040/178 309/1041/186 316/1042/192
f 309/1043/186 310/1044/185 318/1045/193 317/1046/194
f 310/1047/185 311/1048/187 319/1049/195 318/1050/193
f 311/1051/187 312/1052/188 320/1053/196 319/1054/195
f 312/1055/188 313/1056/189 321/1057/197 320/1058/196
f 313/1059/189 314/1060/190 322/1061/198 321/1062/197
f 314/1063/190 315/1064/191 323/1065/199 322/1066/198
f 315/1067/191 316/1068/192 324/1069/200 323/1070/199
f 316/1071/192 309/1072/186 317/1073/194 324/1074/200
f 317/1075/194 318/1076/193 326/1077/201 325/1078/202
f 318/1079/193 319/1080/195 327/1081/203 326/1082/201
f 319/1083/195 320/1084/196 328/1085/204 327/1086/203
f 320/1087/196 321/1088/197 329/1089/205 328/1090/204
f 321/1091/197 322/1092/198 330/1093/206 329/1094/205
f 322/1095/198 323/1096/199 331/1097/207 330/1098/206
f 323/1099/199 324/1100/200 332/1101/208 331/1102/207
f 324/1103/200 317/1104/194 325/1105/202 332/1106/208
f 325/1107/202 326/1108/201 334/1109/209 333/1110/210
f 326/1111/201 327/1112/203 335/1113/211 334/1114/209
f 327/1115/203 328/1116/204 336/1117/212 335/1118/211
f 328/1119/204 329/1120/205 337/1121/213 336/1122/212
f 329/1123/205 330/1124/206 338/1125/214 337/1126/213
f 330/1127/206 331/1128/207 339/1129/215 338/1130/214
f 331/1131/207 332/1132/208 340/1133/216 339/1134/215
f 332/1135/208 325/1136/202 333/1137/210 340/1138/216
f 333/1139/210 334/1140/209 342/1141/217 341/1142/218
f 334/1143/209 335/1144/211 343/1145/219 342/1146/217
f 335/1147/211 336/1148/212 344/1149/220 343/1150/219
f 336/1151/212 337/1152/213 345/1153/221 344/1154/220
f 337/1155/213 338/1156/214 346/1157/222 345/1158/221
f 338/1159/214 339/1160/215 347/1161/223 346/1162/222
f 339/1163/215 340/1164/216 348/1165/224 347/1166/223
f 340/1167/216 333/1168/210 341/1169/218 348/1170/224
f 341/1171/218 342/1172/217 350/1173/225 349/1174/226
f 342/1175/217 343/1176/219 351/1177/227 350/1178/225
f 343/1179/219 344/1180/220 352/1181/228 351/1182/227
f 344/1183/220 345/1184/221 353/1185/229 352/1186/228
f 345/1187/221 346/1188/222 354/1189/230 353/1190/229
f 346/1191/222 347/1192/223 355/1193/231 354/1194/230
f 347/1195/223 348/1196/224 356/1197/232 355/1198/231
f 348/1199/224 341/1200/218 349/1201/226 356/1202/232
f 349/1203/226 350/1204/225 358/1205/233 357/1206/234
f 350/1207/225 351/1208/227 359/1209/235 358/1210/233
f 351/1211/227 352/1212/228 360/1213/236 359/1214/235
f 352/1215/228 353/1216/229 361/1217/237 360/1218/236
f 353/1219/229 354/1220/230 362/1221/238 361/1222/237
f 354/1223/230 355/1224/231 363/1225/239 362/1226/238
f 355/1227/231 356/1228/232 364/1229/240 363/1230/239
f 356/1231/232 349/1232/226 357/1233/234 364/1234/240
f 357/1235/234 358/1236/233 366/1237/241 365/1238/242
f 358/1239/233 359/1240/235 367/1241/243 366/1242/241
f 359/1243/235 360/1244/236 368/1245/244 367/1246/243
f 360/1247/236 361/1248/237 369/1249/245 368/1250/244
f 361/1251/237 362/1252/238 370/1253/246 369/1254/245
f 362/1255/238 363/1256/239 371/1257/247 370/1258/246
f 363/1259/239 364/1260/240 372/1261/248 371/1262/247
f 364/1263/240 357/1264/234 365/1265/242 372/1266/248
f 365/1267/242 366/1268/241 374/1269/249 373/1270/250
f 366/1271/241 367/1272/243 375/1273/251 374/1274/249
f 367/1275/243 368/1276/244 376/1277/252 375/1278/251
f 368/1279/244 369/1280/245 377/1281/253 376/1282/252
f 369/1283/245 370/1284/246 378/1285/254 377/1286/253
f 370/1287/246 371/1288/247 379/1289/255 378/1290/254
f 371/1291/247 372/1292/248 380/1293/256 379/1294/255
f 372/1295/248 365/1296/242 373/1297/250 380/1298/256
f 373/1299/250 374/1300/249 382/1301/257 381/1302/258
f 374/1303/249 375/1304/251 383/1305/259 382/1306/257
f 375/1307/251 376/1308/252 384/1309/260 383/1310/259
f 376/1311/252 377/1312/253 385/1313/261 384/1314/260
f 377/1315/253 378/1316/254 386/1317/262 385/1318/261
f 378/1319/254 379/1320/255 387/1321/263 386/1322/262
f 379/1323/255 380/1324/256 388/1325/264 387/1326/263
f 380/1327/256 373/1328/250 381/1329/258 388/1330/264
f 381/1331/258 382/1332/257 390/1333/265 389/1334/266
f 382/1335/257 383/1336/259 391/1337/267 390/1338/265
f 383/1339/259 384/1340/260 392/1341/268 391/1342/267
f 384/1343/260 385/1344/261 393/1345/269 392/1346/268
f 385/1347/261 386/1348/262 394/1349/270 393/1350/269
f 386/1351/262 387/1352/263 395/1353/271 394/1354/270
f 387/1355/263 388/1356/264 396/1357/272 395/1358/271
f 388/1359/264 381/1360/258 389/1361/266 396/1362/272
f 389/1363/266 390/1364/265 398/1365/273 397/1366/274
f 390/1367/265 391/1368/267 399/1369/275 398/1370/273
f 391/1371/267 392/1372/268 400/1373/276 399/1374/275
f 392/1375/268 393/1376/269 401/1377/277 400/1378/276
f 393/1379/269 394/1380/270 402/1381/278 401/1382/277
f 394/1383/270 395/1384/271 403/1385/279 402/1386/278
f 395/1387/271 396/1388/272 404/1389/280 403/1390/279
f 396/1391/272 389/1392/266 397/1393/274 404/1394/280
f 397/1395/274 398/1396/273 406/1397/281 405/1398/282
f 398/1399/273 399/1400/275 407/1401/283 406/1402/281
f 399/1403/275 400/1404/276 408/1405/284 407/1406/283
f 400/1407/276 401/1408/277 409/1409/285 408/1410/284
f 401/1411/277 402/1412/278 410/1413/286 409/1414/285
f 402/1415/278 403/1416/279 411/1417/287 410/1418/286
f 403/1419/279 404/1420/280 412/1421/288 411/1422/287
f 404/1423/280 397/1424/274 405/1425/282 412/1426/288
f 405/1427/282 406/1428/281 414/1429/289 413/1430/290
f 406/1431/281 407/1432/283 415/1433/291 414/1434/289
f 407/1435/283 408/1436/284 416/1437/292 415/1438/291
f 408/1439/284 409/1440/285 417/1441/293 416/1442/292
f 409/1443/285 410/1444/286 418/1445/294 417/1446/293
f 410/1447/286 411/1448/287 419/1449/295 418/1450/294
f 411/1451/287 412/1452/288 420/1453/296 419/1454/295
f 412/1455/288 405/1456/282 413/1457/290 420/1458/296
f 413/1459/290 414/1460/289 422/1461/297 421/1462/298
f 414/1463/289 415/1464/291 423/1465/299 422/1466/297
f 415/1467/291 416/1468/292 424/1469/300 423/1470/299
f 416/1471/292 417/1472/293 425/1473/301 424/1474/300
f 417/1475/293 418/1476/294 426/1477/302 425/1478/301
f 418/1479/294 419/1480/295 427/1481/303 426/1482/302
f 419/1483/295 420/1484/296 428/1485/304 427/1486/303
f 420/1487/296 413/1488/290 421/1489/298 428/1490/304
f 421/1491/298 422/1492/297 430/1493/305 429/1494/306
f 422/1495/297 423/1496/299 431/1497/307 430/1498/305
f 423/1499/299 424/1500/300 432/1501/308 431/1502/307
f 424/1503/300 425/1504/301 433/1505/309 432/1506/308
f 425/1507/301 426/1508/302 434/1509/310 433/1510/309
f 426/1511/302 427/1512/303 435/1513/311 434/1514/310
f 427/1515/303 428/1516/304 436/1517/312 435/1518/311
f 428/1519/304 421/1520/298 429/1521/306 436/1522/312
f 429/1523/306 430/1524/305 438/1525/313 437/1526/314
f 430/1527/305 431/1528/307 439/1529/315 438/1530/313
f 431/1531/307 432/1532/308 440/1533/316 439/1534/315
f 432/1535/308 433/1536/309 441/1537/317 440/1538/316
f 433/1539/309 434/1540/310 442/1541/318 441/1542/317
f 434/1543/310 435/1544/311 443/1545/319 442/1546/318
f 435/1547/311 436/1548/312 444/1549/320 443/1550/319
f 436/1551/312 429/1552/306 437/1553/314 444/1554/320
f 437/1555/314 438/1556/313 446/1557/321 445/1558/322
f 438/1559/313 439/1560/315 447/1561/323 446/1562/321
f 439/1563/315 440/1564/316 448/1565/324 447/1566/323
f 440/1567/316 441/1568/317 449/1569/325 448/1570/324
f 441/1571/317 442/1572/318 450/1573/326 449/1574/325
f 442/1575/318 443/1576/319 451/1577/327 450/1578/326
f 443/1579/319 444/1580/320 452/1581/328 451/1582/327
f 444/1583/320 437/1584/314 445/1585/322 452/1586/328
f 445/1587/322 446/1588/321 454/1589/329 453/1590/330
f 446/1591/321 447/1592/323 455/1593/331 454/1594/329
f 447/1595/323 448/1596/324 456/1597/332 455/1598/331
f 448/1599/324 449/1600/325 457/1601/333 456/1602/332
f 449/1603/325 450/1604/326 458/1605/334 457/1606/333
f 450/1607/326 451/1608/327 459/1609/335 458/1610/334
f 451/1611/327 452/1612/328 460/1613/336 459/1614/335
f 452/1615/328 445/1616/322 453/1617/330 460/1618/336
f 453/1619/330 454/1620/329 462/1621/337 461/1622/338
f 454/1623/329 455/1624/331 463/1625/339 462/1626/337
f 455/1627/331 456/1628/332 464/1629/340 463/1630/339
f 456/1631/332 457/1632/333 465/1633/341 464/1634/340
f 457/1635/333 458/1636/334 466/1637/342 465/1638/341
f 458/1639/334 459/1640/335 467/1641/343 466/1642/342
f 459/1643/335 460/1644/336 468/1645/344 467/1646/343
f 460/1647/336 453/1648/330 461/1649/338 468/1650/344
f 461/1651/338 462/1652/337 470/1653/345 469/1654/346
f 462/1655/337 463/1656/339 471/1657/347 470/1658/345
f 463/1659/339 464/1660/340 472/1661/348 471/1662/347
f 464/1663/340 465/1664/341 473/1665/349 472/1666/348
f 465/1667/341 466/1668/342 474/1669/350 473/1670/349
f 466/1671/342 467/1672/343 475/1673/351 474/1674/350
f 467/1675/343 468/1676/344 476/1677/352 475/1678/351
f 468/1679/344 461/1680/338 469/1681/346 476/1682/352
f 469/1683/346 470/1684/345 478/1685/353 477/1686/354
f 470/1687/345 471/1688/347 479/1689/355 478/1690/353
f 471/1691/347 472/1692/348 480/1693/356 479/1694/355
f 472/1695/348 473/1696/349 481/1697/357 480/1698/356
f 473/1699/349 474/1700/350 482/1701/358 481/1702/357
f 474/1703/350 475/1704/351 483/1705/359 482/1706/358
f 475/1707/351 476/1708/352 484/1709/360 483/1710/359
f 476/1711/352 469/1712/346 477/1713/354 484/1714/360
f 477/1715/354 478/1716/353 486/1717/361 485/1718/362
f 478/1719/353 479/1720/355 487/1721/363 486/1722/361
f 479/1723/355 480/1724/356 488/1725/364 487/1726/363
f 480/1727/356 481/1728/357 489/1729/365 488/1730/364
f 481/1731/357 482/1732/358 490/1733/366 489/1734/365
f 482/1735/358 483/1736/359 491/1737/367 490/1738/366
f 483/1739/359 484/1740/360 492/1741/368 491/1742/367
f 484/1743/360 477/1744/354 485/1745/362 492/1746/368
f 485/1747/362 486/1748/361 494/1749/369 493/1750/370
f 486/1751/361 487/1752/363 495/1753/371 494/1754/369
f 487/1755/363 488/1756/364 496/1757/372 495/1758/371
f 488/1759/364 489/1760/365 497/1761/373 496/1762/372
f 489/1763/365 490/1764/366 498/1765/374 497/1766/373
f 490/1767/366 491/1768/367 499/1769/375 498/1770/374
f 491/1771/367 492/1772/368 500/1773/376 499/1774/375
f 492/1775/368 485/1776/362 493/1777/370 500/1778/376
f 493/1779/370 494/1780/369 502/1781/377 501/1782/378
f 494/1783/369 495/1784/371 503/1785/379 502/1786/377
f 495/1787/371 496/1788/372 504/1789/380 503/1790/379
f 496/1791/372 497/1792/373 505/1793/381 504/1794/380
f 497/1795/373 498/1796/374 506/1797/382 505/1798/381
f 498/1799/374 499/1800/375 507/1801/383 506/1802/382
f 499/1803/375 500/1804/376 508/1805/384 507/1806/383
f 500/1807/376 493/1808/370 501/1809/378 508/1810/384
f 501/1811/378 502/1812/377 510/1813/385 509/1814/386
f 502/1815/377 503/1816/379 511/1817/387 510/1818/385
f 503/1819/379 504/1820/380 512/1821/388 511/1822/387
f 504/1823/380 505/1824/381 513/1825/389 512/1826/388
f 505/1827/381 506/1828/382 514/1829/390 513/1830/389
f 506/1831/382 507/1832/383 515/1833/391 514/1834/390
f 507/1835/383 508/1836/384 516/1837/392 515/1838/391
f 508/1839/384 501/1840/378 509/1841/386 516/1842/392
f 509/1843/386 510/1844/385 518/1845/393 517/1846/394
f 510/1847/385 511/1848/387 519/1849/395 518/1850/393
f 511/1851/387 512/1852/388 520/1853/396 519/1854/395
f 512/1855/388 513/1856/389 521/1857/397 520/1858/396
f 513/1859/389 514/1860/390 522/1861/398 521/1862/397
f 514/1863/390 515/1864/391 523/1865/399 522/1866/398
f 515/1867/391 516/1868/392 524/1869/400 523/1870/399
f 516/1871/392 509/1872/386 517/1873/394 524/1874/400
f 262/1875/401 261/1876/401 525/1877/401
f 263/1878/401 262/1879/401 525/1880/401
f 264/1881/401 263/1882/401 525/1883/401
f 265/1884/401 264/1885/401 525/1886/401
f 266/1887/401 265/1888/401 525/1889/401
f 267/1890/401 266/1891/401 525/1892/401
f 268/1893/401 267/1894/401 525/1895/401
f 261/1896/401 268/1897/401 525/1898/401
f 526/1899/402 517/1900/402 518/1901/402
f 526/1902/402 518/1903/402 519/1904/402
f 526/1905/402 519/1906/402 520/1907/402
f 526/1908/402 520/1909/402 521/1910/402
f 526/1911/402 521/1912/402 522/1913/402
f 526/1914/402 522/1915/402 523/1916/402
f 526/1917/402 523/1918/402 524/1919/402
f 526/1920/402 524/1921/402 517/1922/402
