# AFL Fuel Dispenser V1 back diesel nozzle and parked hose, generated by tools/build-fuel-dispenser-v1.mjs
mtllib nozzle_back_diesel.mtl
o nozzle_diesel_handle_back
usemtl fuel_dispenser
v 1.25125 0.815501 0.759045
v 1.25125 0.916158 0.729818
v 1.25125 0.929298 0.742048
v 1.25125 0.937602 0.783642
v 1.25125 0.845826 0.807605
v 1.25125 0.828393 0.798723
v 1.2425 0.804388 0.75316
v 1.2425 0.918485 0.72003
v 1.2425 0.937326 0.737567
v 1.2425 0.947799 0.790023
v 1.2425 0.844817 0.816912
v 1.2425 0.821191 0.804873
v 1.2075 0.804388 0.75316
v 1.2075 0.918485 0.72003
v 1.2075 0.937326 0.737567
v 1.2075 0.947799 0.790023
v 1.2075 0.844817 0.816912
v 1.2075 0.821191 0.804873
v 1.19875 0.815501 0.759045
v 1.19875 0.916158 0.729818
v 1.19875 0.929298 0.742048
v 1.19875 0.937602 0.783642
v 1.19875 0.845826 0.807605
v 1.19875 0.828393 0.798723
v 1.25125 0.815501 0.759045
v 1.25125 0.916158 0.729818
v 1.25125 0.929298 0.742048
v 1.25125 0.937602 0.783642
v 1.25125 0.845826 0.807605
v 1.25125 0.828393 0.798723
v 1.19875 0.815501 0.759045
v 1.19875 0.916158 0.729818
v 1.19875 0.929298 0.742048
v 1.19875 0.937602 0.783642
v 1.19875 0.845826 0.807605
v 1.19875 0.828393 0.798723
vt 0.271729 0.136543
vt 0.284179 0.131431
vt 0.284191 0.132941
vt 0.273207 0.137451
vt 0.359131 0.072222
vt 0.361453 0.070458
vt 0.362046 0.071768
vt 0.360427 0.072998
vt 0.114502 0.06726
vt 0.120502 0.066413
vt 0.119772 0.067932
vt 0.115015 0.068604
vt 0.907194 0.133275
vt 0.895884 0.137451
vt 0.895752 0.136006
vt 0.905832 0.132284
vt 0.021236 0.090576
vt 0.018799 0.08882
vt 0.019951 0.087923
vt 0.02175 0.089219
vt 0.989646 0.093591
vt 0.983643 0.094971
vt 0.984326 0.093375
vt 0.988932 0.092317
vt 0.157959 0.107119
vt 0.171418 0.107119
vt 0.171418 0.111084
vt 0.157959 0.111084
vt 0.480771 0.096938
vt 0.480771 0.099854
vt 0.476807 0.099854
vt 0.476807 0.096938
vt 0.282471 0.107119
vt 0.28853 0.107119
vt 0.28853 0.111084
vt 0.282471 0.111084
vt 0.226168 0.111084
vt 0.214111 0.111084
vt 0.214111 0.107119
vt 0.226168 0.107119
vt 0.412354 0.099854
vt 0.412354 0.09685
vt 0.416318 0.09685
vt 0.416318 0.099854
vt 0.25738 0.111084
vt 0.251221 0.111084
vt 0.251221 0.107119
vt 0.25738 0.107119
vt 0.339353 0.137451
vt 0.328369 0.132941
vt 0.328381 0.131431
vt 0.340831 0.136543
vt 0.364821 0.070458
vt 0.36644 0.071688
vt 0.365847 0.072998
vt 0.363525 0.071234
vt 0.146265 0.066413
vt 0.151022 0.067085
vt 0.151752 0.068604
vt 0.145752 0.067756
vt 0.949849 0.132284
vt 0.959929 0.136006
vt 0.959797 0.137451
vt 0.948486 0.133275
vt 0.023682 0.089219
vt 0.02548 0.087923
vt 0.026632 0.08882
vt 0.024195 0.090576
vt 0.00651 0.090576
vt 0.001904 0.089518
vt 0.001221 0.087923
vt 0.007224 0.089302
vt 0.877193 0.175019
vt 0.875732 0.170524
vt 0.887135 0.167214
vt 0.877193 0.175019
vt 0.887135 0.167214
vt 0.888624 0.168599
vt 0.877193 0.175019
vt 0.888624 0.168599
vt 0.889564 0.173311
vt 0.889564 0.173311
vt 0.879168 0.176025
vt 0.877193 0.175019
vt 0.893787 0.167214
vt 0.905189 0.170524
vt 0.903729 0.175019
vt 0.892298 0.168599
vt 0.893787 0.167214
vt 0.903729 0.175019
vt 0.891357 0.173311
vt 0.892298 0.168599
vt 0.903729 0.175019
vt 0.903729 0.175019
vt 0.901754 0.176025
vt 0.891357 0.173311
vn 0.707107 -0.197173 -0.67906
vn 0.707107 0.481753 -0.517605
vn 0.721894 0.64029 -0.262484
vn 0.707107 0.693423 -0.138436
vn 0.707107 0.17864 0.684169
vn 0.721046 0.087246 0.687373
vn 0.730945 -0.57741 0.363755
vn 0.707107 -0.672499 0.218508
vn 0 -0.278845 -0.960336
vn 0 0.681301 -0.732003
vn 0 0.922373 -0.3863
vn 0 0.980648 -0.195778
vn 0 0.252636 0.967561
vn 0 -0.45399 0.891007
vn 0 -0.951057 0.309017
vn -0.707107 -0.197173 -0.67906
vn -0.707107 0.481753 -0.517605
vn -0.721894 0.64029 -0.262484
vn -0.707107 0.693423 -0.138436
vn -0.707107 0.17864 0.684169
vn -0.721046 0.087246 0.687373
vn -0.730945 -0.57741 0.363755
vn -0.707107 -0.672499 0.218508
vn 1 0 0
vn -1 0 0
f 7/1/1 8/2/1 2/3/1 1/4/1
f 8/5/2 9/6/3 3/7/3 2/8/2
f 9/9/3 10/10/4 4/11/4 3/12/3
f 10/13/5 11/14/6 5/15/6 4/16/5
f 11/17/6 12/18/7 6/19/7 5/20/6
f 12/21/7 7/22/8 1/23/8 6/24/7
f 13/25/9 14/26/9 8/27/9 7/28/9
f 14/29/10 15/30/11 9/31/11 8/32/10
f 15/33/11 16/34/12 10/35/12 9/36/11
f 16/37/13 17/38/13 11/39/13 10/40/13
f 17/41/14 18/42/14 12/43/14 11/44/14
f 18/45/15 13/46/15 7/47/15 12/48/15
f 19/49/16 20/50/16 14/51/16 13/52/16
f 20/53/17 21/54/18 15/55/18 14/56/17
f 21/57/18 22/58/19 16/59/19 15/60/18
f 22/61/20 23/62/21 17/63/21 16/64/20
f 23/65/21 24/66/22 18/67/22 17/68/21
f 24/69/22 19/70/23 13/71/23 18/72/22
f 30/73/24 25/74/24 26/75/24
f 30/76/24 26/77/24 27/78/24
f 30/79/24 27/80/24 28/81/24
f 28/82/24 29/83/24 30/84/24
f 32/85/25 31/86/25 36/87/25
f 33/88/25 32/89/25 36/90/25
f 34/91/25 33/92/25 36/93/25
f 36/94/25 35/95/25 34/96/25
o nozzle_diesel_cover_back
usemtl fuel_dispenser
v 1.2625 0.916221 0.719914
v 1.2625 0.974786 0.702935
v 1.2625 1.003422 0.70814
v 1.2625 1.024996 0.731352
v 1.2625 1.037669 0.760206
v 1.2625 1.034653 0.782929
v 1.2625 1.015818 0.799739
v 1.2625 0.972559 0.80805
v 1.2625 0.941499 0.802533
v 1.24875 0.89899 0.710593
v 1.24875 0.974063 0.688829
v 1.24875 1.010381 0.695429
v 1.24875 1.036651 0.723695
v 1.24875 1.051805 0.7582
v 1.24875 1.047613 0.789792
v 1.24875 1.022141 0.812526
v 1.24875 0.972657 0.822033
v 1.24875 0.930812 0.8146
v 1.20125 0.89899 0.710593
v 1.20125 0.974063 0.688829
v 1.20125 1.010381 0.695429
v 1.20125 1.036651 0.723695
v 1.20125 1.051805 0.7582
v 1.20125 1.047613 0.789792
v 1.20125 1.022141 0.812526
v 1.20125 0.972657 0.822033
v 1.20125 0.930812 0.8146
v 1.1875 0.916221 0.719914
v 1.1875 0.974786 0.702935
v 1.1875 1.003422 0.70814
v 1.1875 1.024996 0.731352
v 1.1875 1.037669 0.760206
v 1.1875 1.034653 0.782929
v 1.1875 1.015818 0.799739
v 1.1875 0.972559 0.80805
v 1.1875 0.941499 0.802533
v 1.2625 0.916221 0.719914
v 1.2625 0.974786 0.702935
v 1.2625 1.003422 0.70814
v 1.2625 1.024996 0.731352
v 1.2625 1.037669 0.760206
v 1.2625 1.034653 0.782929
v 1.2625 1.015818 0.799739
v 1.2625 0.972559 0.80805
v 1.2625 0.941499 0.802533
v 1.1875 0.916221 0.719914
v 1.1875 0.974786 0.702935
v 1.1875 1.003422 0.70814
v 1.1875 1.024996 0.731352
v 1.1875 1.037669 0.760206
v 1.1875 1.034653 0.782929
v 1.1875 1.015818 0.799739
v 1.1875 0.972559 0.80805
v 1.1875 0.941499 0.802533
vt 0.508057 0.1282
vt 0.516249 0.124841
vt 0.516746 0.127018
vt 0.510355 0.129639
vt 0.365672 0.096808
vt 0.369722 0.097849
vt 0.368672 0.099854
vt 0.365479 0.099033
vt 0.846436 0.135852
vt 0.85012 0.133556
vt 0.85106 0.135565
vt 0.848034 0.137451
vt 0.85012 0.133556
vt 0.854147 0.132231
vt 0.854428 0.134457
vt 0.85106 0.135565
vt 0.408936 0.070522
vt 0.41253 0.070859
vt 0.411749 0.072998
vt 0.409164 0.072755
vt 0.993347 0.107223
vt 0.996378 0.109624
vt 0.994673 0.111084
vt 0.992432 0.109308
vt 0.439158 0.103728
vt 0.433649 0.105225
vt 0.43335 0.103023
vt 0.438165 0.101715
vt 0.334015 0.099854
vt 0.329346 0.098681
vt 0.330807 0.096776
vt 0.334272 0.097647
vt 0.618244 0.127033
vt 0.606201 0.129639
vt 0.60728 0.127151
vt 0.616847 0.125082
vt 0.738037 0.13207
vt 0.746892 0.13207
vt 0.746892 0.137451
vt 0.738037 0.137451
vt 0.75709 0.112762
vt 0.75709 0.116943
vt 0.751709 0.116943
vt 0.751709 0.112762
vt 0.8025 0.125267
vt 0.8025 0.129639
vt 0.797119 0.129639
vt 0.797119 0.125267
vt 0.068613 0.118534
vt 0.068613 0.122803
vt 0.063232 0.122803
vt 0.063232 0.118534
vt 0.303965 0.101614
vt 0.303965 0.105225
vt 0.298584 0.105225
vt 0.298584 0.101614
vt 0.967051 0.107216
vt 0.967051 0.111084
vt 0.96167 0.111084
vt 0.96167 0.107216
vt 0.77646 0.137451
vt 0.770752 0.137451
vt 0.770752 0.13207
vt 0.77646 0.13207
vt 0.428955 0.129639
vt 0.428955 0.124824
vt 0.434336 0.124824
vt 0.434336 0.129639
vt 0.703972 0.137451
vt 0.69165 0.137451
vt 0.69165 0.13207
vt 0.703972 0.13207
vt 0.49394 0.129639
vt 0.487549 0.127018
vt 0.488046 0.124841
vt 0.496238 0.1282
vt 0.346284 0.099033
vt 0.343091 0.099854
vt 0.342041 0.097849
vt 0.346091 0.096808
vt 0.828503 0.132231
vt 0.831529 0.134117
vt 0.830588 0.136126
vt 0.826904 0.13383
vt 0.831529 0.134117
vt 0.834896 0.135225
vt 0.834616 0.137451
vt 0.830588 0.136126
vt 0.414535 0.070764
vt 0.41712 0.070522
vt 0.417901 0.072661
vt 0.414307 0.072998
vt 0.001221 0.103139
vt 0.003462 0.101363
vt 0.005167 0.102823
vt 0.002136 0.105225
vt 0.448991 0.101715
vt 0.453806 0.103023
vt 0.453506 0.105225
vt 0.447998 0.103728
vt 0.302002 0.097647
vt 0.305468 0.096776
vt 0.306929 0.098681
vt 0.302259 0.099854
vt 0.698878 0.129639
vt 0.689312 0.127569
vt 0.688232 0.125082
vt 0.700275 0.127687
vt 0.358576 0.245713
vt 0.355713 0.236354
vt 0.362347 0.23443
vt 0.358576 0.245713
vt 0.362347 0.23443
vt 0.365591 0.23502
vt 0.358576 0.245713
vt 0.365591 0.23502
vt 0.368035 0.237649
vt 0.358576 0.245713
vt 0.368035 0.237649
vt 0.369471 0.240918
vt 0.358576 0.245713
vt 0.369471 0.240918
vt 0.369129 0.243492
vt 0.358576 0.245713
vt 0.369129 0.243492
vt 0.366995 0.245396
vt 0.366995 0.245396
vt 0.362095 0.246338
vt 0.358576 0.245713
vt 0.378461 0.23443
vt 0.385096 0.236354
vt 0.382232 0.245713
vt 0.375217 0.23502
vt 0.378461 0.23443
vt 0.382232 0.245713
vt 0.372773 0.237649
vt 0.375217 0.23502
vt 0.382232 0.245713
vt 0.371338 0.240918
vt 0.372773 0.237649
vt 0.382232 0.245713
vt 0.37168 0.243492
vt 0.371338 0.240918
vt 0.382232 0.245713
vt 0.373813 0.245396
vt 0.37168 0.243492
vt 0.382232 0.245713
vt 0.382232 0.245713
vt 0.378714 0.246338
vt 0.373813 0.245396
vn 0.707107 -0.196887 -0.679143
vn 0.715336 -0.093925 -0.69244
vn 0.725382 0.336799 -0.600322
vn 0.712072 0.58627 -0.386317
vn 0.720125 0.683433 -0.119748
vn 0.729458 0.599644 0.329117
vn 0.719289 0.268223 0.640843
vn 0.712934 0.020596 0.700928
vn 0.707107 -0.123669 0.696208
vn 0.707107 -0.676165 0.206882
vn 0 -0.278441 -0.960453
vn 0 -0.134888 -0.990861
vn 0 0.178815 -0.983883
vn 0 0.732486 -0.680782
vn 0 0.834635 -0.550804
vn 0 0.986525 -0.163608
vn 0 0.991308 0.131564
vn 0 0.665875 0.746063
vn 0 0.395127 0.918626
vn 0 0.022701 0.999742
vn 0 -0.174894 0.984587
vn 0 -0.956242 0.292576
vn -0.707107 -0.196887 -0.679143
vn -0.715336 -0.093925 -0.69244
vn -0.725382 0.336799 -0.600322
vn -0.712072 0.58627 -0.386317
vn -0.720125 0.683433 -0.119748
vn -0.729458 0.599644 0.329117
vn -0.719289 0.268223 0.640843
vn -0.712934 0.020596 0.700928
vn -0.707107 -0.123669 0.696208
vn -0.707107 -0.676165 0.206882
vn 1 0 0
vn -1 0 0
f 46/97/26 47/98/27 38/99/27 37/100/26
f 47/101/27 48/102/28 39/103/28 38/104/27
f 48/105/28 49/106/29 40/107/29 39/108/28
f 49/109/29 50/110/30 41/111/30 40/112/29
f 50/113/30 51/114/31 42/115/31 41/116/30
f 51/117/31 52/118/32 43/119/32 42/120/31
f 52/121/32 53/122/33 44/123/33 43/124/32
f 53/125/33 54/126/34 45/127/34 44/128/33
f 54/129/35 46/130/35 37/131/35 45/132/35
f 55/133/36 56/134/37 47/135/37 46/136/36
f 56/137/37 57/138/38 48/139/38 47/140/37
f 57/141/39 58/142/40 49/143/40 48/144/39
f 58/145/40 59/146/41 50/147/41 49/148/40
f 59/149/41 60/150/42 51/151/42 50/152/41
f 60/153/43 61/154/44 52/155/44 51/156/43
f 61/157/44 62/158/45 53/159/45 52/160/44
f 62/161/45 63/162/46 54/163/46 53/164/45
f 63/165/47 55/166/47 46/167/47 54/168/47
f 64/169/48 65/170/49 56/171/49 55/172/48
f 65/173/49 66/174/50 57/175/50 56/176/49
f 66/177/50 67/178/51 58/179/51 57/180/50
f 67/181/51 68/182/52 59/183/52 58/184/51
f 68/185/52 69/186/53 60/187/53 59/188/52
f 69/189/53 70/190/54 61/191/54 60/192/53
f 70/193/54 71/194/55 62/195/55 61/196/54
f 71/197/55 72/198/56 63/199/56 62/200/55
f 72/201/57 64/202/57 55/203/57 63/204/57
f 81/205/58 73/206/58 74/207/58
f 81/208/58 74/209/58 75/210/58
f 81/211/58 75/212/58 76/213/58
f 81/214/58 76/215/58 77/216/58
f 81/217/58 77/218/58 78/219/58
f 81/220/58 78/221/58 79/222/58
f 79/223/58 80/224/58 81/225/58
f 83/226/59 82/227/59 90/228/59
f 84/229/59 83/230/59 90/231/59
f 85/232/59 84/233/59 90/234/59
f 86/235/59 85/236/59 90/237/59
f 87/238/59 86/239/59 90/240/59
f 88/241/59 87/242/59 90/243/59
f 90/244/59 89/245/59 88/246/59
o nozzle_diesel_guard_back
usemtl fuel_dispenser
v 1.24375 0.829624 0.709473
v 1.24375 0.910105 0.704353
v 1.24375 0.918901 0.717267
v 1.24375 0.831287 0.724705
v 1.20625 0.829624 0.709473
v 1.20625 0.910105 0.704353
v 1.20625 0.918901 0.717267
v 1.20625 0.831287 0.724705
v 1.24375 0.829624 0.709473
v 1.24375 0.910105 0.704353
v 1.24375 0.918901 0.717267
v 1.24375 0.831287 0.724705
v 1.20625 0.829624 0.709473
v 1.20625 0.910105 0.704353
v 1.20625 0.918901 0.717267
v 1.20625 0.831287 0.724705
v 1.2475 0.941403 0.699012
v 1.2475 0.919343 0.650899
v 1.2475 0.851432 0.654964
v 1.2475 0.807505 0.680368
v 1.2475 0.801466 0.742347
v 1.2475 0.795245 0.741741
v 1.2475 0.801596 0.676566
v 1.2475 0.849582 0.648813
v 1.2475 0.92324 0.644404
v 1.2475 0.947085 0.696407
v 1.24375 0.939558 0.703983
v 1.24375 0.917004 0.654795
v 1.24375 0.852541 0.658654
v 1.24375 0.811051 0.68265
v 1.24375 0.804835 0.746443
v 1.24375 0.791149 0.74511
v 1.24375 0.798051 0.674284
v 1.24375 0.848473 0.645123
v 1.24375 0.925579 0.640507
v 1.24375 0.952056 0.698252
v 1.20625 0.939558 0.703983
v 1.20625 0.917004 0.654795
v 1.20625 0.852541 0.658654
v 1.20625 0.811051 0.68265
v 1.20625 0.804835 0.746443
v 1.20625 0.791149 0.74511
v 1.20625 0.798051 0.674284
v 1.20625 0.848473 0.645123
v 1.20625 0.925579 0.640507
v 1.20625 0.952056 0.698252
v 1.2025 0.941403 0.699012
v 1.2025 0.919343 0.650899
v 1.2025 0.851432 0.654964
v 1.2025 0.807505 0.680368
v 1.2025 0.801466 0.742347
v 1.2025 0.795245 0.741741
v 1.2025 0.801596 0.676566
v 1.2025 0.849582 0.648813
v 1.2025 0.92324 0.644404
v 1.2025 0.947085 0.696407
v 1.2475 0.941403 0.699012
v 1.2475 0.919343 0.650899
v 1.2475 0.851432 0.654964
v 1.2475 0.807505 0.680368
v 1.2475 0.801466 0.742347
v 1.2475 0.795245 0.741741
v 1.2475 0.801596 0.676566
v 1.2475 0.849582 0.648813
v 1.2475 0.92324 0.644404
v 1.2475 0.947085 0.696407
v 1.2025 0.941403 0.699012
v 1.2025 0.919343 0.650899
v 1.2025 0.851432 0.654964
v 1.2025 0.807505 0.680368
v 1.2025 0.801466 0.742347
v 1.2025 0.795245 0.741741
v 1.2025 0.801596 0.676566
v 1.2025 0.849582 0.648813
v 1.2025 0.92324 0.644404
v 1.2025 0.947085 0.696407
vt 0.370361 0.112695
vt 0.379497 0.112695
vt 0.379497 0.116943
vt 0.370361 0.116943
vt 0.034766 0.062927
vt 0.034766 0.064697
vt 0.030518 0.064697
vt 0.030518 0.062927
vt 0.336377 0.116943
vt 0.326416 0.116943
vt 0.326416 0.112695
vt 0.336377 0.112695
vt 0.053955 0.064697
vt 0.053955 0.062962
vt 0.058203 0.062962
vt 0.058203 0.064697
vt 0.036565 0.068604
vt 0.036377 0.066878
vt 0.045494 0.066298
vt 0.045494 0.066298
vt 0.04649 0.067761
vt 0.036565 0.068604
vt 0.049092 0.066298
vt 0.058209 0.066878
vt 0.058021 0.068604
vt 0.058021 0.068604
vt 0.048096 0.067761
vt 0.049092 0.066298
vt 0.939643 0.071107
vt 0.933812 0.072998
vt 0.93335 0.072516
vt 0.939053 0.070667
vt 0.383173 0.054803
vt 0.375883 0.05542
vt 0.375732 0.05483
vt 0.383412 0.05418
vt 0.950797 0.113506
vt 0.946594 0.116943
vt 0.946045 0.116617
vt 0.950494 0.112977
vt 0.971695 0.045562
vt 0.978938 0.046061
vt 0.978473 0.046631
vt 0.971436 0.046146
vt 0.887041 0.022705
vt 0.885498 0.022492
vt 0.886001 0.021955
vt 0.886702 0.022052
vt 0.936997 0.046631
vt 0.928955 0.046077
vt 0.929214 0.045492
vt 0.936615 0.046002
vt 0.738525 0.129312
vt 0.743633 0.125134
vt 0.743936 0.125663
vt 0.739075 0.129639
vt 0.073486 0.05483
vt 0.082205 0.054092
vt 0.081966 0.054715
vt 0.073637 0.05542
vt 0.678955 0.099372
vt 0.685801 0.097152
vt 0.685582 0.097855
vt 0.679417 0.099854
vt 0.942957 0.045783
vt 0.94165 0.046631
vt 0.94168 0.045896
vt 0.942274 0.04551
vt 0.629421 0.116943
vt 0.623291 0.116943
vt 0.623291 0.112695
vt 0.629421 0.112695
vt 0.494864 0.116943
vt 0.487549 0.116943
vt 0.487549 0.112695
vt 0.494864 0.112695
vt 0.653076 0.112695
vt 0.658506 0.112695
vt 0.658506 0.116943
vt 0.653076 0.116943
vt 0.522705 0.112695
vt 0.529966 0.112695
vt 0.529966 0.116943
vt 0.522705 0.116943
vt 0.452393 0.064697
vt 0.452393 0.06314
vt 0.456641 0.06314
vt 0.456641 0.064697
vt 0.459477 0.116943
vt 0.451416 0.116943
vt 0.451416 0.112695
vt 0.459477 0.112695
vt 0.598151 0.116943
vt 0.591553 0.116943
vt 0.591553 0.112695
vt 0.598151 0.112695
vt 0.411865 0.112695
vt 0.420616 0.112695
vt 0.420616 0.116943
vt 0.411865 0.116943
vt 0.557861 0.112695
vt 0.565058 0.112695
vt 0.565058 0.116943
vt 0.557861 0.116943
vt 0.4625 0.06314
vt 0.4625 0.064697
vt 0.458252 0.064697
vt 0.458252 0.06314
vt 0.954678 0.072998
vt 0.948975 0.071149
vt 0.949437 0.070667
vt 0.955268 0.072558
vt 0.338623 0.05418
vt 0.346302 0.05483
vt 0.346152 0.05542
vt 0.338862 0.054803
vt 0.971738 0.112977
vt 0.976188 0.116617
vt 0.975638 0.116943
vt 0.971436 0.113506
vt 0.98999 0.046047
vt 0.997028 0.045562
vt 0.997493 0.046132
vt 0.990249 0.046631
vt 0.872165 0.022052
vt 0.872866 0.021955
vt 0.873369 0.022492
vt 0.871826 0.022705
vt 0.897552 0.046121
vt 0.890152 0.046631
vt 0.889893 0.046047
vt 0.897935 0.045492
vt 0.728738 0.129639
vt 0.723877 0.125663
vt 0.72418 0.125134
vt 0.729287 0.129312
vt 0.092309 0.05542
vt 0.083979 0.054715
vt 0.08374 0.054092
vt 0.092459 0.05483
vt 0.714573 0.097152
vt 0.720738 0.099151
vt 0.720957 0.099854
vt 0.714111 0.097634
vt 0.954052 0.04551
vt 0.954646 0.045896
vt 0.954676 0.046631
vt 0.953369 0.045783
vt 0.917835 0.241134
vt 0.917192 0.241429
vt 0.914693 0.235978
vt 0.902024 0.239317
vt 0.901339 0.246338
vt 0.900635 0.246269
vt 0.902024 0.239317
vt 0.900635 0.246269
vt 0.901354 0.238886
vt 0.907 0.236439
vt 0.902024 0.239317
vt 0.901354 0.238886
vt 0.907 0.236439
vt 0.901354 0.238886
vt 0.90679 0.235742
vt 0.914693 0.235978
vt 0.907 0.236439
vt 0.90679 0.235742
vt 0.914693 0.235978
vt 0.90679 0.235742
vt 0.915134 0.235243
vt 0.914693 0.235978
vt 0.915134 0.235243
vt 0.917835 0.241134
vt 0.92282 0.235978
vt 0.920321 0.241429
vt 0.919678 0.241134
vt 0.936878 0.246269
vt 0.936174 0.246338
vt 0.935489 0.239317
vt 0.936159 0.238886
vt 0.936878 0.246269
vt 0.935489 0.239317
vt 0.936159 0.238886
vt 0.935489 0.239317
vt 0.930513 0.236439
vt 0.930723 0.235742
vt 0.936159 0.238886
vt 0.930513 0.236439
vt 0.930723 0.235742
vt 0.930513 0.236439
vt 0.92282 0.235978
vt 0.922379 0.235243
vt 0.930723 0.235742
vt 0.92282 0.235978
vt 0.919678 0.241134
vt 0.922379 0.235243
vt 0.92282 0.235978
vn 0 -0.063499 -0.997982
vn 0 0.826489 -0.562952
vn 0 0.084595 0.996415
vn 0 -0.994091 0.10855
vn 1 0 0
vn -1 0 0
vn 0.707107 -0.64276 0.29472
vn 0.707107 0.042254 0.705843
vn 0.716454 0.177576 0.674655
vn 0.707107 0.354008 0.61211
vn 0.707107 0.703774 0.068576
vn 0.707107 -0.068576 0.703774
vn 0.707107 -0.703774 -0.068576
vn 0.707107 -0.354008 -0.61211
vn 0.71647 -0.178468 -0.674403
vn 0.707107 -0.042254 -0.705843
vn 0.707107 0.64276 -0.29472
vn 0.707107 0.29472 0.64276
vn 0 -0.909 0.416797
vn 0 0.059756 0.998213
vn 0 0.254256 0.967137
vn 0 0.500643 0.865654
vn 0 0.995286 0.096982
vn 0 -0.096982 0.995286
vn 0 -0.995286 -0.096982
vn 0 -0.500643 -0.865654
vn 0 -0.256031 -0.966669
vn 0 -0.059756 -0.998213
vn 0 0.909 -0.416797
vn 0 0.416797 0.909
vn -0.707107 -0.64276 0.29472
vn -0.707107 0.042254 0.705843
vn -0.716454 0.177576 0.674655
vn -0.707107 0.354008 0.61211
vn -0.707107 0.703774 0.068576
vn -0.707107 -0.068576 0.703774
vn -0.707107 -0.703774 -0.068576
vn -0.707107 -0.354008 -0.61211
vn -0.71647 -0.178468 -0.674403
vn -0.707107 -0.042254 -0.705843
vn -0.707107 0.64276 -0.29472
vn -0.707107 0.29472 0.64276
f 95/247/60 96/248/60 92/249/60 91/250/60
f 96/251/61 97/252/61 93/253/61 92/254/61
f 97/255/62 98/256/62 94/257/62 93/258/62
f 98/259/63 95/260/63 91/261/63 94/262/63
f 102/263/64 99/264/64 100/265/64
f 100/266/64 101/267/64 102/268/64
f 104/269/65 103/270/65 106/271/65
f 106/272/65 105/273/65 104/274/65
f 117/275/66 118/276/66 108/277/66 107/278/66
f 118/279/67 119/280/68 109/281/68 108/282/67
f 119/283/68 120/284/69 110/285/69 109/286/68
f 120/287/70 121/288/70 111/289/70 110/290/70
f 121/291/71 122/292/71 112/293/71 111/294/71
f 122/295/72 123/296/72 113/297/72 112/298/72
f 123/299/73 124/300/74 114/301/74 113/302/73
f 124/303/74 125/304/75 115/305/75 114/306/74
f 125/307/76 126/308/76 116/309/76 115/310/76
f 126/311/77 117/312/77 107/313/77 116/314/77
f 127/315/78 128/316/78 118/317/78 117/318/78
f 128/319/79 129/320/80 119/321/80 118/322/79
f 129/323/80 130/324/81 120/325/81 119/326/80
f 130/327/82 131/328/82 121/329/82 120/330/82
f 131/331/83 132/332/83 122/333/83 121/334/83
f 132/335/84 133/336/84 123/337/84 122/338/84
f 133/339/85 134/340/86 124/341/86 123/342/85
f 134/343/86 135/344/87 125/345/87 124/346/86
f 135/347/88 136/348/88 126/349/88 125/350/88
f 136/351/89 127/352/89 117/353/89 126/354/89
f 137/355/90 138/356/90 128/357/90 127/358/90
f 138/359/91 139/360/92 129/361/92 128/362/91
f 139/363/92 140/364/93 130/365/93 129/366/92
f 140/367/94 141/368/94 131/369/94 130/370/94
f 141/371/95 142/372/95 132/373/95 131/374/95
f 142/375/96 143/376/96 133/377/96 132/378/96
f 143/379/97 144/380/98 134/381/98 133/382/97
f 144/383/98 145/384/99 135/385/99 134/386/98
f 145/387/100 146/388/100 136/389/100 135/390/100
f 146/391/101 137/392/101 127/393/101 136/394/101
f 156/395/64 147/396/64 148/397/64
f 150/398/64 151/399/64 152/400/64
f 150/401/64 152/402/64 153/403/64
f 149/404/64 150/405/64 153/406/64
f 149/407/64 153/408/64 154/409/64
f 148/410/64 149/411/64 154/412/64
f 148/413/64 154/414/64 155/415/64
f 148/416/64 155/417/64 156/418/64
f 158/419/65 157/420/65 166/421/65
f 162/422/65 161/423/65 160/424/65
f 163/425/65 162/426/65 160/427/65
f 163/428/65 160/429/65 159/430/65
f 164/431/65 163/432/65 159/433/65
f 164/434/65 159/435/65 158/436/65
f 165/437/65 164/438/65 158/439/65
f 166/440/65 165/441/65 158/442/65
o nozzle_diesel_steel_back
usemtl fuel_dispenser
v 1.200035 0.773398 0.799359
v 1.209571 0.777454 0.811842
v 1.225 0.779003 0.81661
v 1.240429 0.777454 0.811842
v 1.249965 0.773398 0.799359
v 1.249965 0.768385 0.78393
v 1.240429 0.764329 0.771447
v 1.225 0.76278 0.766679
v 1.209571 0.764329 0.771447
v 1.200035 0.768385 0.78393
v 1.200035 0.832839 0.780046
v 1.209571 0.836895 0.792528
v 1.225 0.838444 0.797296
v 1.240429 0.836895 0.792528
v 1.249965 0.832839 0.780046
v 1.249965 0.827826 0.764616
v 1.240429 0.82377 0.752134
v 1.225 0.822221 0.747366
v 1.209571 0.82377 0.752134
v 1.200035 0.827826 0.764616
v 1.225 0.770891 0.791644
v 1.225 0.830332 0.772331
v 1.237703 1.041203 0.763999
v 1.230262 1.038904 0.756921
v 1.219738 1.038904 0.756921
v 1.212297 1.041203 0.763999
v 1.212297 1.044455 0.774007
v 1.219738 1.046755 0.781084
v 1.230262 1.046755 0.781084
v 1.237703 1.044455 0.774007
v 1.237703 1.077305 0.752268
v 1.230262 1.075006 0.745191
v 1.219738 1.075006 0.745191
v 1.212297 1.077305 0.752268
v 1.212297 1.080557 0.762277
v 1.219738 1.082857 0.769354
v 1.230262 1.082857 0.769354
v 1.237703 1.080557 0.762277
v 1.237703 1.113041 0.740657
v 1.230262 1.110741 0.73358
v 1.219738 1.110741 0.73358
v 1.212297 1.113041 0.740657
v 1.212297 1.116293 0.750666
v 1.219738 1.118592 0.757743
v 1.230262 1.118592 0.757743
v 1.237703 1.116293 0.750666
v 1.237703 1.150277 0.728558
v 1.230262 1.147977 0.721481
v 1.219738 1.147977 0.721481
v 1.212297 1.150277 0.728558
v 1.212297 1.153529 0.738567
v 1.219738 1.155828 0.745644
v 1.230262 1.155828 0.745644
v 1.237703 1.153529 0.738567
v 1.237703 1.187271 0.716538
v 1.230262 1.184972 0.709461
v 1.219738 1.184972 0.709461
v 1.212297 1.187271 0.716538
v 1.212297 1.190523 0.726547
v 1.219738 1.192823 0.733624
v 1.230262 1.192823 0.733624
v 1.237703 1.190523 0.726547
v 1.237703 1.201694 0.711852
v 1.230262 1.199394 0.704775
v 1.219738 1.199394 0.704775
v 1.212297 1.201694 0.711852
v 1.212297 1.204946 0.721861
v 1.219738 1.207246 0.728938
v 1.230262 1.207246 0.728938
v 1.237703 1.204946 0.721861
v 1.225 1.042829 0.769003
v 1.225 1.20332 0.716856
vt 0.864433 0.127933
vt 0.863748 0.129639
vt 0.857178 0.127
vt 0.857863 0.125295
vt 0.561527 0.140029
vt 0.562793 0.141361
vt 0.557663 0.14624
vt 0.556396 0.144909
vt 0.496387 0.144909
vt 0.495121 0.14624
vt 0.48999 0.141361
vt 0.491257 0.140029
vt 0.866652 0.129639
vt 0.865967 0.127933
vt 0.872537 0.125295
vt 0.873222 0.127
vt 0.343585 0.111084
vt 0.343018 0.109336
vt 0.349751 0.107148
vt 0.350319 0.108896
vt 0.936964 0.129639
vt 0.936279 0.127933
vt 0.942849 0.125295
vt 0.943534 0.127
vt 0.463184 0.144909
vt 0.461917 0.14624
vt 0.456787 0.141361
vt 0.458054 0.140029
vt 0.511722 0.140029
vt 0.512989 0.141361
vt 0.507858 0.14624
vt 0.506592 0.144909
vt 0.908378 0.127933
vt 0.907693 0.129639
vt 0.901123 0.127
vt 0.901808 0.125295
vt 0.35854 0.107148
vt 0.359108 0.108896
vt 0.352375 0.111084
vt 0.351807 0.109336
vt 0.441659 0.136371
vt 0.440172 0.137451
vt 0.439253 0.134623
vt 0.442227 0.134623
vt 0.441659 0.136371
vt 0.439253 0.134623
vt 0.441659 0.132875
vt 0.442227 0.134623
vt 0.439253 0.134623
vt 0.440172 0.131795
vt 0.441659 0.132875
vt 0.439253 0.134623
vt 0.438334 0.131795
vt 0.440172 0.131795
vt 0.439253 0.134623
vt 0.436847 0.132875
vt 0.438334 0.131795
vt 0.439253 0.134623
vt 0.436279 0.134623
vt 0.436847 0.132875
vt 0.439253 0.134623
vt 0.436847 0.136371
vt 0.436279 0.134623
vt 0.439253 0.134623
vt 0.438334 0.137451
vt 0.436847 0.136371
vt 0.439253 0.134623
vt 0.440172 0.137451
vt 0.438334 0.137451
vt 0.439253 0.134623
vt 0.447065 0.134623
vt 0.447984 0.131795
vt 0.449471 0.132875
vt 0.447065 0.134623
vt 0.449471 0.132875
vt 0.450039 0.134623
vt 0.447065 0.134623
vt 0.450039 0.134623
vt 0.449471 0.136371
vt 0.447065 0.134623
vt 0.449471 0.136371
vt 0.447984 0.137451
vt 0.447065 0.134623
vt 0.447984 0.137451
vt 0.446147 0.137451
vt 0.447065 0.134623
vt 0.446147 0.137451
vt 0.44466 0.136371
vt 0.447065 0.134623
vt 0.44466 0.136371
vt 0.444092 0.134623
vt 0.447065 0.134623
vt 0.444092 0.134623
vt 0.44466 0.132875
vt 0.447065 0.134623
vt 0.44466 0.132875
vt 0.446147 0.131795
vt 0.447065 0.134623
vt 0.446147 0.131795
vt 0.447984 0.131795
vt 0.056406 0.19751
vt 0.055908 0.196427
vt 0.059816 0.194631
vt 0.060313 0.195714
vt 0.774731 0.045439
vt 0.774731 0.046631
vt 0.770431 0.046631
vt 0.770431 0.045439
vt 0.230026 0.196427
vt 0.229528 0.19751
vt 0.225621 0.195714
vt 0.226119 0.194631
vt 0.62475 0.153895
vt 0.624382 0.155029
vt 0.620292 0.1537
vt 0.62066 0.152567
vt 0.190964 0.196427
vt 0.190466 0.19751
vt 0.186558 0.195714
vt 0.187056 0.194631
vt 0.564771 0.045439
vt 0.564771 0.046631
vt 0.56047 0.046631
vt 0.56047 0.045439
vt 0.329843 0.19751
vt 0.329346 0.196427
vt 0.333253 0.194631
vt 0.333751 0.195714
vt 0.646609 0.155029
vt 0.64624 0.153895
vt 0.65033 0.152567
vt 0.650698 0.1537
vt 0.060313 0.195714
vt 0.059816 0.194631
vt 0.063683 0.192854
vt 0.064181 0.193937
vt 0.770431 0.045439
vt 0.770431 0.046631
vt 0.766175 0.046631
vt 0.766175 0.045439
vt 0.226119 0.194631
vt 0.225621 0.195714
vt 0.221753 0.193937
vt 0.222251 0.192854
vt 0.62066 0.152567
vt 0.620292 0.1537
vt 0.616244 0.152385
vt 0.616612 0.151251
vt 0.187056 0.194631
vt 0.186558 0.195714
vt 0.182691 0.193937
vt 0.183189 0.192854
vt 0.56047 0.045439
vt 0.56047 0.046631
vt 0.556214 0.046631
vt 0.556214 0.045439
vt 0.333751 0.195714
vt 0.333253 0.194631
vt 0.337121 0.192854
vt 0.337619 0.193937
vt 0.650698 0.1537
vt 0.65033 0.152567
vt 0.654378 0.151251
vt 0.654746 0.152385
vt 0.064181 0.193937
vt 0.063683 0.192854
vt 0.067713 0.191002
vt 0.068211 0.192085
vt 0.766175 0.045439
vt 0.766175 0.046631
vt 0.76174 0.046631
vt 0.76174 0.045439
vt 0.222251 0.192854
vt 0.221753 0.193937
vt 0.217723 0.192085
vt 0.218221 0.191002
vt 0.616612 0.151251
vt 0.616244 0.152385
vt 0.612026 0.151015
vt 0.612394 0.149881
vt 0.183189 0.192854
vt 0.182691 0.193937
vt 0.178661 0.192085
vt 0.179158 0.191002
vt 0.556214 0.045439
vt 0.556214 0.046631
vt 0.551779 0.046631
vt 0.551779 0.045439
vt 0.337619 0.193937
vt 0.337121 0.192854
vt 0.341151 0.191002
vt 0.341649 0.192085
vt 0.654746 0.152385
vt 0.654378 0.151251
vt 0.658596 0.149881
vt 0.658965 0.151015
vt 0.068211 0.192085
vt 0.067713 0.191002
vt 0.071717 0.189162
vt 0.072215 0.190245
vt 0.76174 0.045439
vt 0.76174 0.046631
vt 0.757333 0.046631
vt 0.757333 0.045439
vt 0.218221 0.191002
vt 0.217723 0.192085
vt 0.213719 0.190245
vt 0.214217 0.189162
vt 0.612394 0.149881
vt 0.612026 0.151015
vt 0.607835 0.149653
vt 0.608203 0.148519
vt 0.179158 0.191002
vt 0.178661 0.192085
vt 0.174657 0.190245
vt 0.175154 0.189162
vt 0.551779 0.045439
vt 0.551779 0.046631
vt 0.547372 0.046631
vt 0.547372 0.045439
vt 0.341649 0.192085
vt 0.341151 0.191002
vt 0.345155 0.189162
vt 0.345653 0.190245
vt 0.658965 0.151015
vt 0.658596 0.149881
vt 0.662787 0.148519
vt 0.663155 0.149653
vt 0.072215 0.190245
vt 0.071717 0.189162
vt 0.073278 0.188445
vt 0.073776 0.189528
vt 0.757333 0.045439
vt 0.757333 0.046631
vt 0.755615 0.046631
vt 0.755615 0.045439
vt 0.214217 0.189162
vt 0.213719 0.190245
vt 0.212158 0.189528
vt 0.212656 0.188445
vt 0.608203 0.148519
vt 0.607835 0.149653
vt 0.606201 0.149122
vt 0.60657 0.147988
vt 0.175154 0.189162
vt 0.174657 0.190245
vt 0.173096 0.189528
vt 0.173593 0.188445
vt 0.547372 0.045439
vt 0.547372 0.046631
vt 0.545654 0.046631
vt 0.545654 0.045439
vt 0.345653 0.190245
vt 0.345155 0.189162
vt 0.346716 0.188445
vt 0.347214 0.189528
vt 0.663155 0.149653
vt 0.662787 0.148519
vt 0.664421 0.147988
vt 0.664789 0.149122
vt 0.557943 0.096975
vt 0.558786 0.097818
vt 0.557347 0.098414
vt 0.556751 0.096975
vt 0.557943 0.096975
vt 0.557347 0.098414
vt 0.555908 0.097818
vt 0.556751 0.096975
vt 0.557347 0.098414
vt 0.555908 0.099011
vt 0.555908 0.097818
vt 0.557347 0.098414
vt 0.556751 0.099854
vt 0.555908 0.099011
vt 0.557347 0.098414
vt 0.557943 0.099854
vt 0.556751 0.099854
vt 0.557347 0.098414
vt 0.558786 0.099011
vt 0.557943 0.099854
vt 0.557347 0.098414
vt 0.558786 0.097818
vt 0.558786 0.099011
vt 0.557347 0.098414
vt 0.561742 0.098414
vt 0.560303 0.097818
vt 0.561146 0.096975
vt 0.561742 0.098414
vt 0.561146 0.096975
vt 0.562338 0.096975
vt 0.561742 0.098414
vt 0.562338 0.096975
vt 0.563181 0.097818
vt 0.561742 0.098414
vt 0.563181 0.097818
vt 0.563181 0.099011
vt 0.561742 0.098414
vt 0.563181 0.099011
vt 0.562338 0.099854
vt 0.561742 0.098414
vt 0.562338 0.099854
vt 0.561146 0.099854
vt 0.561742 0.098414
vt 0.561146 0.099854
vt 0.560303 0.099011
vt 0.561742 0.098414
vt 0.560303 0.099011
vt 0.560303 0.097818
vn -0.809017 0.181636 0.559017
vn -0.587785 0.25 0.769421
vn 0 0.309017 0.951057
vn 0.587785 0.25 0.769421
vn 0.951057 0.095492 0.293893
vn 0.951057 -0.095492 -0.293893
vn 0.587785 -0.25 -0.769421
vn 0 -0.309017 -0.951057
vn -0.587785 -0.25 -0.769421
vn -0.809017 -0.181636 -0.559017
vn 1 0 0
vn 0 -0.951057 0.309017
vn 0 0.951057 -0.309017
vn 0.92388 -0.118256 -0.363954
vn 0.382683 -0.285494 -0.878662
vn -0.382683 -0.285494 -0.878662
vn -0.92388 -0.118256 -0.363954
vn -0.92388 0.118256 0.363954
vn -0.382683 0.285494 0.878662
vn 0.382683 0.285494 0.878662
vn 0.92388 0.118256 0.363954
f 167/443/102 168/444/103 178/445/103 177/446/102
f 168/447/103 169/448/104 179/449/104 178/450/103
f 169/451/104 170/452/105 180/453/105 179/454/104
f 170/455/105 171/456/106 181/457/106 180/458/105
f 171/459/106 172/460/107 182/461/107 181/462/106
f 172/463/107 173/464/108 183/465/108 182/466/107
f 173/467/108 174/468/109 184/469/109 183/470/108
f 174/471/109 175/472/110 185/473/110 184/474/109
f 175/475/110 176/476/111 186/477/111 185/478/110
f 186/479/112 177/480/112 167/481/112 176/482/112
f 168/483/113 167/484/113 187/485/113
f 169/486/113 168/487/113 187/488/113
f 170/489/113 169/490/113 187/491/113
f 171/492/113 170/493/113 187/494/113
f 172/495/113 171/496/113 187/497/113
f 173/498/113 172/499/113 187/500/113
f 174/501/113 173/502/113 187/503/113
f 175/504/113 174/505/113 187/506/113
f 176/507/113 175/508/113 187/509/113
f 167/510/113 176/511/113 187/512/113
f 188/513/114 177/514/114 178/515/114
f 188/516/114 178/517/114 179/518/114
f 188/519/114 179/520/114 180/521/114
f 188/522/114 180/523/114 181/524/114
f 188/525/114 181/526/114 182/527/114
f 188/528/114 182/529/114 183/530/114
f 188/531/114 183/532/114 184/533/114
f 188/534/114 184/535/114 185/536/114
f 188/537/114 185/538/114 186/539/114
f 188/540/114 186/541/114 177/542/114
f 189/543/115 190/544/116 198/545/116 197/546/115
f 190/547/116 191/548/117 199/549/117 198/550/116
f 191/551/117 192/552/118 200/553/118 199/554/117
f 192/555/118 193/556/119 201/557/119 200/558/118
f 193/559/119 194/560/120 202/561/120 201/562/119
f 194/563/120 195/564/121 203/565/121 202/566/120
f 195/567/121 196/568/122 204/569/122 203/570/121
f 196/571/122 189/572/115 197/573/115 204/574/122
f 197/575/115 198/576/116 206/577/116 205/578/115
f 198/579/116 199/580/117 207/581/117 206/582/116
f 199/583/117 200/584/118 208/585/118 207/586/117
f 200/587/118 201/588/119 209/589/119 208/590/118
f 201/591/119 202/592/120 210/593/120 209/594/119
f 202/595/120 203/596/121 211/597/121 210/598/120
f 203/599/121 204/600/122 212/601/122 211/602/121
f 204/603/122 197/604/115 205/605/115 212/606/122
f 205/607/115 206/608/116 214/609/116 213/610/115
f 206/611/116 207/612/117 215/613/117 214/614/116
f 207/615/117 208/616/118 216/617/118 215/618/117
f 208/619/118 209/620/119 217/621/119 216/622/118
f 209/623/119 210/624/120 218/625/120 217/626/119
f 210/627/120 211/628/121 219/629/121 218/630/120
f 211/631/121 212/632/122 220/633/122 219/634/121
f 212/635/122 205/636/115 213/637/115 220/638/122
f 213/639/115 214/640/116 222/641/116 221/642/115
f 214/643/116 215/644/117 223/645/117 222/646/116
f 215/647/117 216/648/118 224/649/118 223/650/117
f 216/651/118 217/652/119 225/653/119 224/654/118
f 217/655/119 218/656/120 226/657/120 225/658/119
f 218/659/120 219/660/121 227/661/121 226/662/120
f 219/663/121 220/664/122 228/665/122 227/666/121
f 220/667/122 213/668/115 221/669/115 228/670/122
f 221/671/115 222/672/116 230/673/116 229/674/115
f 222/675/116 223/676/117 231/677/117 230/678/116
f 223/679/117 224/680/118 232/681/118 231/682/117
f 224/683/118 225/684/119 233/685/119 232/686/118
f 225/687/119 226/688/120 234/689/120 233/690/119
f 226/691/120 227/692/121 235/693/121 234/694/120
f 227/695/121 228/696/122 236/697/122 235/698/121
f 228/699/122 221/700/115 229/701/115 236/702/122
f 190/703/113 189/704/113 237/705/113
f 191/706/113 190/707/113 237/708/113
f 192/709/113 191/710/113 237/711/113
f 193/712/113 192/713/113 237/714/113
f 194/715/113 193/716/113 237/717/113
f 195/718/113 194/719/113 237/720/113
f 196/721/113 195/722/113 237/723/113
f 189/724/113 196/725/113 237/726/113
f 238/727/114 229/728/114 230/729/114
f 238/730/114 230/731/114 231/732/114
f 238/733/114 231/734/114 232/735/114
f 238/736/114 232/737/114 233/738/114
f 238/739/114 233/740/114 234/741/114
f 238/742/114 234/743/114 235/744/114
f 238/745/114 235/746/114 236/747/114
f 238/748/114 236/749/114 229/750/114
o nozzle_diesel_collar_back
usemtl fuel_dispenser
v 1.205979 1.038795 0.776812
v 1.213244 1.041885 0.786323
v 1.225 1.043065 0.789955
v 1.236756 1.041885 0.786323
v 1.244021 1.038795 0.776812
v 1.244021 1.034975 0.765056
v 1.236756 1.031885 0.755546
v 1.225 1.030705 0.751913
v 1.213244 1.031885 0.755546
v 1.205979 1.034975 0.765056
v 1.205979 1.068515 0.767155
v 1.213244 1.071606 0.776666
v 1.225 1.072786 0.780299
v 1.236756 1.071606 0.776666
v 1.244021 1.068515 0.767155
v 1.244021 1.064696 0.7554
v 1.236756 1.061606 0.745889
v 1.225 1.060425 0.742256
v 1.213244 1.061606 0.745889
v 1.205979 1.064696 0.7554
v 1.225 1.036885 0.770934
v 1.225 1.066606 0.761277
vt 0.152 0.089277
vt 0.151478 0.090576
vt 0.148193 0.089257
vt 0.148715 0.087957
vt 0.599977 0.10177
vt 0.600942 0.102785
vt 0.598377 0.105225
vt 0.597412 0.10421
vt 0.606313 0.10421
vt 0.605348 0.105225
vt 0.602783 0.102785
vt 0.603748 0.10177
vt 0.116489 0.090576
vt 0.115967 0.089277
vt 0.119252 0.087957
vt 0.119774 0.089257
vt 0.508978 0.072998
vt 0.508545 0.071666
vt 0.511912 0.070572
vt 0.512344 0.071904
vt 0.095004 0.090576
vt 0.094482 0.089277
vt 0.097767 0.087957
vt 0.098289 0.089257
vt 0.611684 0.10421
vt 0.610719 0.105225
vt 0.608154 0.102785
vt 0.609119 0.10177
vt 0.535524 0.10177
vt 0.536489 0.102785
vt 0.533924 0.105225
vt 0.532959 0.10421
vt 0.130516 0.089277
vt 0.129994 0.090576
vt 0.126709 0.089257
vt 0.127231 0.087957
vt 0.517283 0.070572
vt 0.517715 0.071904
vt 0.514349 0.072998
vt 0.513916 0.071666
vt 0.987253 0.128816
vt 0.98612 0.129639
vt 0.98542 0.127484
vt 0.987686 0.127484
vt 0.987253 0.128816
vt 0.98542 0.127484
vt 0.987253 0.126152
vt 0.987686 0.127484
vt 0.98542 0.127484
vt 0.98612 0.125329
vt 0.987253 0.126152
vt 0.98542 0.127484
vt 0.98472 0.125329
vt 0.98612 0.125329
vt 0.98542 0.127484
vt 0.983587 0.126152
vt 0.98472 0.125329
vt 0.98542 0.127484
vt 0.983154 0.127484
vt 0.983587 0.126152
vt 0.98542 0.127484
vt 0.983587 0.128816
vt 0.983154 0.127484
vt 0.98542 0.127484
vt 0.98472 0.129639
vt 0.983587 0.128816
vt 0.98542 0.127484
vt 0.98612 0.129639
vt 0.98472 0.129639
vt 0.98542 0.127484
vt 0.991768 0.127484
vt 0.992468 0.125329
vt 0.993601 0.126152
vt 0.991768 0.127484
vt 0.993601 0.126152
vt 0.994033 0.127484
vt 0.991768 0.127484
vt 0.994033 0.127484
vt 0.993601 0.128816
vt 0.991768 0.127484
vt 0.993601 0.128816
vt 0.992468 0.129639
vt 0.991768 0.127484
vt 0.992468 0.129639
vt 0.991067 0.129639
vt 0.991768 0.127484
vt 0.991067 0.129639
vt 0.989935 0.128816
vt 0.991768 0.127484
vt 0.989935 0.128816
vt 0.989502 0.127484
vt 0.991768 0.127484
vt 0.989502 0.127484
vt 0.989935 0.126152
vt 0.991768 0.127484
vt 0.989935 0.126152
vt 0.991067 0.125329
vt 0.991768 0.127484
vt 0.991067 0.125329
vt 0.992468 0.125329
vn -0.809017 0.181636 0.559017
vn -0.309017 0.293893 0.904508
vn 0 0.309017 0.951057
vn 0.309017 0.293893 0.904508
vn 0.809017 0.181636 0.559017
vn 0.951057 0.095492 0.293893
vn 0.951057 -0.095492 -0.293893
vn 0.809017 -0.181636 -0.559017
vn 0.309017 -0.293893 -0.904508
vn -0.309017 -0.293893 -0.904508
vn -0.809017 -0.181636 -0.559017
vn 1 0 0
vn 0 -0.951057 0.309017
vn 0 0.951057 -0.309017
f 239/751/123 240/752/123 250/753/123 249/754/123
f 240/755/124 241/756/125 251/757/125 250/758/124
f 241/759/125 242/760/126 252/761/126 251/762/125
f 242/763/127 243/764/128 253/765/128 252/766/127
f 243/767/128 244/768/129 254/769/129 253/770/128
f 244/771/129 245/772/130 255/773/130 254/774/129
f 245/775/131 246/776/131 256/777/131 255/778/131
f 246/779/132 247/780/132 257/781/132 256/782/132
f 247/783/133 248/784/133 258/785/133 257/786/133
f 258/787/134 249/788/134 239/789/134 248/790/134
f 240/791/135 239/792/135 259/793/135
f 241/794/135 240/795/135 259/796/135
f 242/797/135 241/798/135 259/799/135
f 243/800/135 242/801/135 259/802/135
f 244/803/135 243/804/135 259/805/135
f 245/806/135 244/807/135 259/808/135
f 246/809/135 245/810/135 259/811/135
f 247/812/135 246/813/135 259/814/135
f 248/815/135 247/816/135 259/817/135
f 239/818/135 248/819/135 259/820/135
f 260/821/136 249/822/136 250/823/136
f 260/824/136 250/825/136 251/826/136
f 260/827/136 251/828/136 252/829/136
f 260/830/136 252/831/136 253/832/136
f 260/833/136 253/834/136 254/835/136
f 260/836/136 254/837/136 255/838/136
f 260/839/136 255/840/136 256/841/136
f 260/842/136 256/843/136 257/844/136
f 260/845/136 257/846/136 258/847/136
f 260/848/136 258/849/136 249/850/136
o hose_diesel_back
usemtl fuel_dispenser
v 1.678795 2.465434 0.763249
v 1.693001 2.465684 0.777453
v 1.693001 2.465898 0.797543
v 1.678795 2.465953 0.81175
v 1.658705 2.465816 0.811751
v 1.644499 2.465566 0.797547
v 1.644499 2.465352 0.777457
v 1.658705 2.465297 0.76325
v 1.679667 2.338094 0.764611
v 1.693872 2.338486 0.778813
v 1.693871 2.338752 0.798903
v 1.679666 2.338736 0.81311
v 1.659577 2.338448 0.813113
v 1.645373 2.338056 0.79891
v 1.645373 2.33779 0.778821
v 1.659578 2.337806 0.764614
v 1.68255 2.203594 0.766711
v 1.696749 2.204243 0.78091
v 1.696747 2.204559 0.800998
v 1.682546 2.204357 0.815208
v 1.662464 2.203756 0.815216
v 1.648265 2.203108 0.801017
v 1.648267 2.202791 0.780929
v 1.662468 2.202993 0.766718
v 1.687719 2.069153 0.768845
v 1.701912 2.069976 0.783041
v 1.70191 2.070303 0.803129
v 1.687714 2.069942 0.817342
v 1.667641 2.069105 0.817354
v 1.653448 2.068282 0.803157
v 1.65345 2.067955 0.783069
v 1.667646 2.068316 0.768856
v 1.693409 1.94329 0.770945
v 1.707598 1.94419 0.78514
v 1.707595 1.944541 0.805228
v 1.693401 1.944138 0.819441
v 1.673332 1.943217 0.819454
v 1.659142 1.942317 0.805259
v 1.659145 1.941966 0.785172
v 1.673339 1.942369 0.770958
v 1.699608 1.810191 0.773373
v 1.713796 1.811113 0.787567
v 1.713791 1.811503 0.807654
v 1.699596 1.811133 0.821867
v 1.679526 1.810219 0.82188
v 1.665338 1.809297 0.807685
v 1.665343 1.808906 0.787598
v 1.679538 1.809277 0.773386
v 1.705565 1.676414 0.776135
v 1.719754 1.677326 0.79033
v 1.719747 1.677775 0.810415
v 1.705547 1.6775 0.824626
v 1.685474 1.67666 0.824638
v 1.671285 1.675749 0.810443
v 1.671293 1.675299 0.790357
v 1.685492 1.675575 0.776146
v 1.710551 1.548561 0.779235
v 1.724738 1.549515 0.793429
v 1.724728 1.550029 0.813513
v 1.710527 1.549802 0.827723
v 1.690453 1.548966 0.827734
v 1.676266 1.548012 0.81354
v 1.676276 1.547498 0.793456
v 1.690478 1.547726 0.779246
v 1.716132 1.422647 0.782631
v 1.730314 1.42371 0.796822
v 1.730302 1.424272 0.816905
v 1.716102 1.424003 0.831116
v 1.696033 1.42306 0.83113
v 1.681851 1.421996 0.816939
v 1.681864 1.421435 0.796856
v 1.696063 1.421704 0.782645
v 1.722478 1.294727 0.78634
v 1.736659 1.295818 0.80053
v 1.736644 1.296429 0.820612
v 1.722443 1.296202 0.834821
v 1.702374 1.295271 0.834835
v 1.688193 1.29418 0.820645
v 1.688207 1.293569 0.800563
v 1.702409 1.293796 0.786354
v 1.727963 1.167777 0.790395
v 1.742149 1.168726 0.80459
v 1.742132 1.169412 0.824669
v 1.72792 1.169435 0.838871
v 1.70784 1.16878 0.838875
v 1.693654 1.167831 0.824681
v 1.693671 1.167145 0.804602
v 1.707883 1.167122 0.7904
v 1.731054 1.031627 0.795344
v 1.745247 1.032235 0.809552
v 1.745227 1.033029 0.829627
v 1.731007 1.033544 0.84381
v 1.710917 1.033478 0.843793
v 1.696724 1.03287 0.829586
v 1.696744 1.032076 0.809511
v 1.710964 1.031561 0.795327
v 1.728811 0.904816 0.800797
v 1.742997 0.904994 0.815023
v 1.74298 0.905907 0.835093
v 1.728769 0.907021 0.849251
v 1.708689 0.907684 0.849203
v 1.694503 0.907506 0.834977
v 1.69452 0.906593 0.814907
v 1.708731 0.905479 0.800749
v 1.72252 0.773628 0.807077
v 1.736687 0.773411 0.821322
v 1.736675 0.774445 0.841386
v 1.722492 0.776125 0.855517
v 1.702446 0.777467 0.855436
v 1.68828 0.777685 0.841191
v 1.688292 0.776651 0.821127
v 1.702475 0.77497 0.806996
v 1.711076 0.641211 0.814379
v 1.725149 0.640118 0.828675
v 1.725167 0.641427 0.848723
v 1.711117 0.644373 0.862779
v 1.691231 0.647228 0.86261
v 1.677157 0.648321 0.848314
v 1.67714 0.647012 0.828266
v 1.691189 0.644067 0.81421
v 1.685145 0.515357 0.824013
v 1.69884 0.512582 0.838448
v 1.699006 0.514554 0.858441
v 1.685547 0.520118 0.87228
v 1.666345 0.526015 0.871859
v 1.65265 0.52879 0.857423
v 1.652484 0.526818 0.83743
v 1.665943 0.521254 0.823591
v 1.634723 0.394358 0.839363
v 1.647806 0.390033 0.853985
v 1.648217 0.392624 0.873904
v 1.635717 0.400615 0.887451
v 1.617628 0.409323 0.886692
v 1.604545 0.413649 0.872071
v 1.604134 0.411057 0.852152
v 1.616634 0.403066 0.838604
v 1.597169 0.334874 0.8493
v 1.609149 0.328717 0.864207
v 1.609792 0.331693 0.884066
v 1.598721 0.342059 0.897243
v 1.582423 0.353743 0.89602
v 1.570444 0.3599 0.881113
v 1.569801 0.356924 0.861254
v 1.580871 0.346558 0.848076
v 1.570705 0.306628 0.85456
v 1.580953 0.298521 0.869821
v 1.581652 0.30156 0.889669
v 1.572393 0.313965 0.902476
v 1.558598 0.328468 0.900741
v 1.54835 0.336575 0.88548
v 1.547651 0.333536 0.865633
v 1.556911 0.321131 0.852825
v 1.552329 0.293213 0.857253
v 1.56021 0.283328 0.872868
v 1.560888 0.286351 0.892718
v 1.553964 0.300511 0.905177
v 1.543495 0.317513 0.902945
v 1.535614 0.327398 0.88733
v 1.534937 0.324375 0.86748
v 1.54186 0.310215 0.855021
v 1.533832 0.284555 0.859187
v 1.539077 0.273447 0.875085
v 1.539845 0.276512 0.894926
v 1.535685 0.291954 0.907087
v 1.529034 0.310727 0.904444
v 1.523789 0.321834 0.888546
v 1.523021 0.31877 0.868705
v 1.527181 0.303328 0.856544
v 1.511744 0.279381 0.860969
v 1.514232 0.267649 0.877088
v 1.515237 0.270768 0.89691
v 1.514171 0.28691 0.908823
v 1.511658 0.30662 0.90585
v 1.50917 0.318352 0.889731
v 1.508165 0.315233 0.869909
v 1.509231 0.299091 0.857996
v 1.48081 0.278276 0.862855
v 1.480772 0.266483 0.87912
v 1.481909 0.269604 0.898934
v 1.483556 0.285813 0.910691
v 1.484748 0.305613 0.907503
v 1.484786 0.317407 0.891238
v 1.483648 0.314285 0.871424
v 1.482002 0.298077 0.859667
v 1.441146 0.284116 0.864266
v 1.438619 0.272706 0.880608
v 1.439677 0.27584 0.900425
v 1.4437 0.291682 0.912107
v 1.448333 0.310952 0.908813
v 1.450861 0.322362 0.89247
v 1.449803 0.319228 0.872654
v 1.445779 0.303386 0.860971
v 1.395898 0.298851 0.864127
v 1.391007 0.288209 0.880451
v 1.391715 0.291457 0.900265
v 1.397607 0.306691 0.911962
v 1.405233 0.324989 0.908691
v 1.410124 0.33563 0.892367
v 1.409416 0.332383 0.872553
v 1.403524 0.317148 0.860855
v 1.360335 0.317327 0.861704
v 1.352803 0.308039 0.877848
v 1.352896 0.311602 0.89762
v 1.36056 0.325928 0.909438
v 1.371304 0.342627 0.906378
v 1.378836 0.351915 0.890234
v 1.378743 0.348352 0.870462
v 1.37108 0.334025 0.858644
v 1.337047 0.335625 0.857766
v 1.32654 0.328682 0.873419
v 1.325967 0.33277 0.893082
v 1.335662 0.345495 0.905235
v 1.349948 0.359404 0.90276
v 1.360455 0.366347 0.887106
v 1.361029 0.362259 0.867444
v 1.351333 0.349534 0.855291
v 1.306276 0.37061 0.849063
v 1.293954 0.365827 0.864194
v 1.293202 0.370128 0.883804
v 1.30446 0.380993 0.896408
v 1.321134 0.392059 0.89462
v 1.333455 0.396842 0.87949
v 1.334208 0.392541 0.859879
v 1.32295 0.381676 0.847276
v 1.267089 0.436986 0.832881
v 1.253909 0.433658 0.847675
v 1.253331 0.437663 0.867354
v 1.265693 0.446655 0.880391
v 1.283754 0.455367 0.879148
v 1.296934 0.458695 0.864354
v 1.297512 0.45469 0.844675
v 1.28515 0.445697 0.831639
v 1.24256 0.499297 0.821076
v 1.228583 0.498159 0.835463
v 1.228356 0.5012 0.855321
v 1.242011 0.506641 0.869017
v 1.26155 0.511293 0.868528
v 1.275526 0.512432 0.854141
v 1.275754 0.50939 0.834283
v 1.262098 0.50395 0.820587
v 1.221301 0.624759 0.8035
v 1.207015 0.625294 0.817616
v 1.20674 0.628594 0.837432
v 1.220637 0.632727 0.85134
v 1.240565 0.635271 0.851193
v 1.254851 0.634736 0.837077
v 1.255127 0.631435 0.817261
v 1.24123 0.627303 0.803353
v 1.214132 0.719077 0.784138
v 1.199639 0.722087 0.797723
v 1.199217 0.727153 0.81716
v 1.213112 0.731308 0.831063
v 1.233185 0.732117 0.831289
v 1.247678 0.729107 0.817704
v 1.2481 0.724041 0.798267
v 1.234205 0.719886 0.784363
v 1.215484 0.780898 0.762671
v 1.200976 0.785721 0.775706
v 1.200541 0.792303 0.794683
v 1.214434 0.796788 0.808486
v 1.234516 0.796549 0.80903
v 1.249024 0.791726 0.795995
v 1.249459 0.785145 0.777018
v 1.235566 0.780659 0.763215
v 1.66875 2.465625 0.7875
v 1.225 0.788724 0.78585
vt 0.9303 0.263047
vt 0.930373 0.265322
vt 0.915973 0.265785
vt 0.915883 0.263511
vt 0.891905 0.199078
vt 0.891929 0.201353
vt 0.877526 0.201507
vt 0.877496 0.199232
vt 0.243051 0.298519
vt 0.243045 0.300795
vt 0.228635 0.300755
vt 0.228649 0.298479
vt 0.496478 0.675993
vt 0.496464 0.678269
vt 0.482103 0.678171
vt 0.482134 0.675896
vt 0.222412 0.250221
vt 0.222485 0.247946
vt 0.236921 0.24841
vt 0.236832 0.250684
vt 0.222412 0.179985
vt 0.222436 0.177709
vt 0.236887 0.177864
vt 0.236857 0.180139
vt 0.486578 0.30136
vt 0.486572 0.299084
vt 0.501013 0.299043
vt 0.501027 0.301319
vt 0.49775 0.660041
vt 0.497764 0.662317
vt 0.483406 0.662415
vt 0.483375 0.660139
vt 0.915883 0.263511
vt 0.915973 0.265785
vt 0.90078 0.266484
vt 0.900662 0.264211
vt 0.877496 0.199232
vt 0.877526 0.201507
vt 0.862323 0.201744
vt 0.862288 0.199469
vt 0.228649 0.298479
vt 0.228635 0.300755
vt 0.213415 0.300606
vt 0.21345 0.29833
vt 0.482134 0.675896
vt 0.482103 0.678171
vt 0.466908 0.677846
vt 0.466975 0.675571
vt 0.236832 0.250684
vt 0.236921 0.24841
vt 0.252193 0.249111
vt 0.252075 0.251384
vt 0.236857 0.180139
vt 0.236887 0.177864
vt 0.252181 0.178102
vt 0.252145 0.180378
vt 0.501027 0.301319
vt 0.501013 0.299043
vt 0.516282 0.298893
vt 0.516317 0.301169
vt 0.483375 0.660139
vt 0.483406 0.662415
vt 0.468233 0.66274
vt 0.468167 0.660465
vt 0.900662 0.264211
vt 0.90078 0.266484
vt 0.885593 0.267369
vt 0.885455 0.265097
vt 0.862288 0.199469
vt 0.862323 0.201744
vt 0.847113 0.201985
vt 0.847076 0.19971
vt 0.21345 0.29833
vt 0.213415 0.300606
vt 0.198193 0.300275
vt 0.198247 0.298
vt 0.466975 0.675571
vt 0.466908 0.677846
vt 0.451717 0.677261
vt 0.45181 0.674987
vt 0.252075 0.251384
vt 0.252193 0.249111
vt 0.267444 0.249998
vt 0.267306 0.252269
vt 0.252145 0.180378
vt 0.252181 0.178102
vt 0.267457 0.178344
vt 0.26742 0.18062
vt 0.516317 0.301169
vt 0.516282 0.298893
vt 0.531534 0.298561
vt 0.531587 0.300837
vt 0.468167 0.660465
vt 0.468233 0.66274
vt 0.453066 0.663324
vt 0.452973 0.66105
vt 0.885455 0.265097
vt 0.885593 0.267369
vt 0.871367 0.268274
vt 0.87122 0.266003
vt 0.847076 0.19971
vt 0.847113 0.201985
vt 0.832864 0.202222
vt 0.832825 0.199947
vt 0.198247 0.298
vt 0.198193 0.300275
vt 0.183947 0.299905
vt 0.184005 0.29763
vt 0.45181 0.674987
vt 0.451717 0.677261
vt 0.437513 0.676618
vt 0.437616 0.674344
vt 0.267306 0.252269
vt 0.267444 0.249998
vt 0.28169 0.250903
vt 0.281544 0.253174
vt 0.26742 0.18062
vt 0.267457 0.178344
vt 0.281731 0.178581
vt 0.281692 0.180857
vt 0.531587 0.300837
vt 0.531534 0.298561
vt 0.545796 0.298191
vt 0.545854 0.300466
vt 0.452973 0.66105
vt 0.453066 0.663324
vt 0.438865 0.663967
vt 0.438762 0.661693
vt 0.87122 0.266003
vt 0.871367 0.268274
vt 0.856318 0.269263
vt 0.856168 0.266992
vt 0.832825 0.199947
vt 0.832864 0.202222
vt 0.817791 0.202496
vt 0.817747 0.200221
vt 0.184005 0.29763
vt 0.183947 0.299905
vt 0.168886 0.299516
vt 0.168941 0.29724
vt 0.437616 0.674344
vt 0.437513 0.676618
vt 0.422505 0.675918
vt 0.422606 0.673645
vt 0.281544 0.253174
vt 0.28169 0.250903
vt 0.296734 0.25189
vt 0.296584 0.254161
vt 0.281692 0.180857
vt 0.281731 0.178581
vt 0.296807 0.178856
vt 0.296763 0.181131
vt 0.545854 0.300466
vt 0.545796 0.298191
vt 0.560867 0.297801
vt 0.560921 0.300076
vt 0.438762 0.661693
vt 0.438865 0.663967
vt 0.423845 0.664667
vt 0.423743 0.662393
vt 0.856168 0.266992
vt 0.856318 0.269263
vt 0.841187 0.27026
vt 0.841039 0.267989
vt 0.817747 0.200221
vt 0.817791 0.202496
vt 0.80264 0.202808
vt 0.802589 0.200533
vt 0.168941 0.29724
vt 0.168886 0.299516
vt 0.153754 0.299172
vt 0.153797 0.296896
vt 0.422606 0.673645
vt 0.422505 0.675918
vt 0.407429 0.675246
vt 0.407522 0.672972
vt 0.296584 0.254161
vt 0.296734 0.25189
vt 0.311837 0.252884
vt 0.31169 0.255155
vt 0.296763 0.181131
vt 0.296807 0.178856
vt 0.311944 0.179167
vt 0.311893 0.181443
vt 0.560921 0.300076
vt 0.560867 0.297801
vt 0.576007 0.297456
vt 0.576051 0.299732
vt 0.423743 0.662393
vt 0.423845 0.664667
vt 0.408745 0.66534
vt 0.408652 0.663066
vt 0.841039 0.267989
vt 0.841187 0.27026
vt 0.82673 0.271194
vt 0.826577 0.268923
vt 0.802589 0.200533
vt 0.80264 0.202808
vt 0.788167 0.203159
vt 0.788109 0.200884
vt 0.153797 0.296896
vt 0.153754 0.299172
vt 0.139293 0.298937
vt 0.139331 0.296661
vt 0.407522 0.672972
vt 0.407429 0.675246
vt 0.39301 0.674685
vt 0.393103 0.672411
vt 0.31169 0.255155
vt 0.311837 0.252884
vt 0.326286 0.253816
vt 0.326134 0.256087
vt 0.311893 0.181443
vt 0.311944 0.179167
vt 0.326424 0.179518
vt 0.326365 0.181793
vt 0.576051 0.299732
vt 0.576007 0.297456
vt 0.590485 0.297221
vt 0.590523 0.299496
vt 0.408652 0.663066
vt 0.408745 0.66534
vt 0.394307 0.665902
vt 0.394215 0.663628
vt 0.826577 0.268923
vt 0.82673 0.271194
vt 0.812502 0.272194
vt 0.812336 0.269924
vt 0.788109 0.200884
vt 0.788167 0.203159
vt 0.77392 0.203542
vt 0.773856 0.201267
vt 0.139331 0.296661
vt 0.139293 0.298937
vt 0.125047 0.298679
vt 0.12509 0.296403
vt 0.393103 0.672411
vt 0.39301 0.674685
vt 0.378788 0.674055
vt 0.378893 0.671782
vt 0.326134 0.256087
vt 0.326286 0.253816
vt 0.340538 0.254816
vt 0.340373 0.257086
vt 0.326365 0.181793
vt 0.326424 0.179518
vt 0.340706 0.179902
vt 0.340643 0.182177
vt 0.590523 0.299496
vt 0.590485 0.297221
vt 0.604756 0.296962
vt 0.604799 0.299237
vt 0.394215 0.663628
vt 0.394307 0.665902
vt 0.380085 0.666532
vt 0.37998 0.664259
vt 0.812336 0.269924
vt 0.812502 0.272194
vt 0.79804 0.273285
vt 0.797871 0.271016
vt 0.773856 0.201267
vt 0.77392 0.203542
vt 0.759435 0.203962
vt 0.759366 0.201687
vt 0.12509 0.296403
vt 0.125047 0.298679
vt 0.110576 0.298382
vt 0.110614 0.296107
vt 0.378893 0.671782
vt 0.378788 0.674055
vt 0.364351 0.67334
vt 0.364454 0.671066
vt 0.340373 0.257086
vt 0.340538 0.254816
vt 0.354992 0.255906
vt 0.354824 0.258176
vt 0.340643 0.182177
vt 0.340706 0.179902
vt 0.355193 0.180322
vt 0.355124 0.182597
vt 0.604799 0.299237
vt 0.604756 0.296962
vt 0.61924 0.296665
vt 0.619278 0.29894
vt 0.37998 0.664259
vt 0.380085 0.666532
vt 0.365633 0.667248
vt 0.365529 0.664975
vt 0.797871 0.271016
vt 0.79804 0.273285
vt 0.783665 0.274335
vt 0.783513 0.272064
vt 0.759366 0.201687
vt 0.759435 0.203962
vt 0.745044 0.204421
vt 0.744967 0.202146
vt 0.110614 0.296107
vt 0.110576 0.298382
vt 0.096221 0.298183
vt 0.09623 0.295907
vt 0.364454 0.671066
vt 0.364351 0.67334
vt 0.350056 0.672723
vt 0.350128 0.670449
vt 0.354824 0.258176
vt 0.354992 0.255906
vt 0.369282 0.256948
vt 0.36913 0.259219
vt 0.355124 0.182597
vt 0.355193 0.180322
vt 0.369517 0.180779
vt 0.369439 0.183053
vt 0.619278 0.29894
vt 0.61924 0.296665
vt 0.633584 0.296466
vt 0.633594 0.298741
vt 0.365529 0.664975
vt 0.365633 0.667248
vt 0.351286 0.667866
vt 0.351213 0.665592
vt 0.783513 0.272064
vt 0.783665 0.274335
vt 0.768219 0.275286
vt 0.768106 0.273013
vt 0.744967 0.202146
vt 0.745044 0.204421
vt 0.729594 0.204982
vt 0.729504 0.202708
vt 0.09623 0.295907
vt 0.096221 0.298183
vt 0.08083 0.298243
vt 0.080784 0.295967
vt 0.350128 0.670449
vt 0.350056 0.672723
vt 0.334757 0.672378
vt 0.334763 0.670103
vt 0.36913 0.259219
vt 0.369282 0.256948
vt 0.384555 0.257888
vt 0.384442 0.260161
vt 0.369439 0.183053
vt 0.369517 0.180779
vt 0.384819 0.181334
vt 0.384729 0.183608
vt 0.633594 0.298741
vt 0.633584 0.296466
vt 0.648938 0.296524
vt 0.648892 0.2988
vt 0.351213 0.665592
vt 0.351286 0.667866
vt 0.335892 0.668213
vt 0.335886 0.665937
vt 0.768106 0.273013
vt 0.768219 0.275286
vt 0.753804 0.275829
vt 0.753739 0.273554
vt 0.729504 0.202708
vt 0.729594 0.204982
vt 0.715194 0.205601
vt 0.715091 0.203328
vt 0.080784 0.295967
vt 0.08083 0.298243
vt 0.066496 0.298778
vt 0.066382 0.296505
vt 0.334763 0.670103
vt 0.334757 0.672378
vt 0.320524 0.672635
vt 0.320448 0.67036
vt 0.384442 0.260161
vt 0.384555 0.257888
vt 0.398758 0.258421
vt 0.398693 0.260696
vt 0.384729 0.183608
vt 0.384819 0.181334
vt 0.399033 0.181946
vt 0.398929 0.18422
vt 0.648892 0.2988
vt 0.648938 0.296524
vt 0.663222 0.297057
vt 0.663108 0.29933
vt 0.335886 0.665937
vt 0.335892 0.668213
vt 0.321544 0.667955
vt 0.32162 0.66568
vt 0.753739 0.273554
vt 0.753804 0.275829
vt 0.738884 0.276123
vt 0.738864 0.273847
vt 0.715091 0.203328
vt 0.715194 0.205601
vt 0.700304 0.206315
vt 0.700187 0.204042
vt 0.066382 0.296505
vt 0.066496 0.298778
vt 0.051662 0.299701
vt 0.051484 0.297433
vt 0.320448 0.67036
vt 0.320524 0.672635
vt 0.305784 0.673347
vt 0.30563 0.671076
vt 0.398693 0.260696
vt 0.398758 0.258421
vt 0.413478 0.258711
vt 0.413458 0.260986
vt 0.398929 0.18422
vt 0.399033 0.181946
vt 0.41375 0.182651
vt 0.413633 0.184924
vt 0.663108 0.29933
vt 0.663222 0.297057
vt 0.678011 0.297978
vt 0.677833 0.300247
vt 0.32162 0.66568
vt 0.321544 0.667955
vt 0.306693 0.667237
vt 0.306847 0.664967
vt 0.738864 0.273847
vt 0.738884 0.276123
vt 0.723754 0.276087
vt 0.723833 0.273813
vt 0.700187 0.204042
vt 0.700304 0.206315
vt 0.68524 0.207148
vt 0.685092 0.204877
vt 0.051484 0.297433
vt 0.051662 0.299701
vt 0.036728 0.301116
vt 0.036407 0.298863
vt 0.30563 0.671076
vt 0.305784 0.673347
vt 0.291029 0.674622
vt 0.290704 0.67237
vt 0.413458 0.260986
vt 0.413478 0.258711
vt 0.428162 0.258679
vt 0.428242 0.260954
vt 0.413633 0.184924
vt 0.41375 0.182651
vt 0.428432 0.183462
vt 0.428283 0.185733
vt 0.677833 0.300247
vt 0.678011 0.297978
vt 0.692849 0.299381
vt 0.692528 0.301635
vt 0.306847 0.664967
vt 0.306693 0.667237
vt 0.291692 0.665936
vt 0.292017 0.663683
vt 0.723833 0.273813
vt 0.723754 0.276087
vt 0.709229 0.27505
vt 0.709499 0.27279
vt 0.685092 0.204877
vt 0.68524 0.207148
vt 0.670878 0.208252
vt 0.670654 0.205987
vt 0.036407 0.298863
vt 0.036728 0.301116
vt 0.022631 0.303859
vt 0.022012 0.301669
vt 0.290704 0.67237
vt 0.291029 0.674622
vt 0.277267 0.677448
vt 0.276596 0.675274
vt 0.428242 0.260954
vt 0.428162 0.258679
vt 0.441775 0.257714
vt 0.442046 0.259973
vt 0.428283 0.185733
vt 0.428432 0.183462
vt 0.442038 0.184503
vt 0.441814 0.186768
vt 0.692528 0.301635
vt 0.692849 0.299381
vt 0.706783 0.30209
vt 0.706164 0.304279
vt 0.292017 0.663683
vt 0.291692 0.665936
vt 0.277402 0.662991
vt 0.278073 0.660816
vt 0.662972 0.157094
vt 0.663714 0.159245
vt 0.64932 0.163454
vt 0.648757 0.161249
vt 0.074195 0.12449
vt 0.074403 0.126756
vt 0.059486 0.128459
vt 0.059204 0.1262
vt 0.022012 0.301669
vt 0.022631 0.303859
vt 0.00905 0.309015
vt 0.008156 0.306924
vt 0.276596 0.675274
vt 0.277267 0.677448
vt 0.263948 0.682978
vt 0.262957 0.680929
vt 0.803467 0.159607
vt 0.804214 0.157457
vt 0.817737 0.161434
vt 0.81717 0.163638
vt 0.165771 0.126977
vt 0.165979 0.12471
vt 0.180146 0.12633
vt 0.179863 0.128588
vt 0.706164 0.304279
vt 0.706783 0.30209
vt 0.720214 0.307191
vt 0.71932 0.309282
vt 0.278073 0.660816
vt 0.277402 0.662991
vt 0.263592 0.657268
vt 0.264583 0.655219
vt 0.648757 0.161249
vt 0.64932 0.163454
vt 0.641174 0.165004
vt 0.64085 0.162751
vt 0.059204 0.1262
vt 0.059486 0.128459
vt 0.051359 0.129639
vt 0.051025 0.127387
vt 0.008156 0.306924
vt 0.00905 0.309015
vt 0.002385 0.312744
vt 0.001221 0.310797
vt 0.262957 0.680929
vt 0.263948 0.682978
vt 0.257577 0.686973
vt 0.256245 0.685128
vt 0.81717 0.163638
vt 0.817737 0.161434
vt 0.824891 0.1628
vt 0.824563 0.165053
vt 0.179863 0.128588
vt 0.180146 0.12633
vt 0.187378 0.127387
vt 0.187044 0.129639
vt 0.71932 0.309282
vt 0.720214 0.307191
vt 0.726646 0.310797
vt 0.725482 0.312744
vt 0.264583 0.655219
vt 0.263592 0.657268
vt 0.256775 0.653006
vt 0.258107 0.651161
vt 0.64085 0.162751
vt 0.641174 0.165004
vt 0.636503 0.165283
vt 0.636475 0.163008
vt 0.255852 0.096626
vt 0.256132 0.098884
vt 0.251478 0.099482
vt 0.251188 0.097225
vt 0.27493 0.101532
vt 0.274851 0.103806
vt 0.270494 0.10403
vt 0.270265 0.101766
vt 0.256245 0.685128
vt 0.257577 0.686973
vt 0.254675 0.689675
vt 0.25302 0.688114
vt 0.824563 0.165053
vt 0.824891 0.1628
vt 0.828522 0.163008
vt 0.828489 0.165283
vt 0.425537 0.099162
vt 0.425816 0.096904
vt 0.429453 0.09737
vt 0.429164 0.099628
vt 0.150231 0.09887
vt 0.150146 0.096596
vt 0.1541 0.096797
vt 0.153877 0.099062
vt 0.258107 0.651161
vt 0.256775 0.653006
vt 0.253531 0.650005
vt 0.255187 0.648443
vt 0.216275 0.09662
vt 0.217043 0.098762
vt 0.214241 0.099523
vt 0.213794 0.097291
vt 0.251188 0.097225
vt 0.251478 0.099482
vt 0.248578 0.099854
vt 0.248291 0.097596
vt 0.270265 0.101766
vt 0.270494 0.10403
vt 0.267936 0.104507
vt 0.267378 0.102301
vt 0.25302 0.688114
vt 0.254675 0.689675
vt 0.253416 0.691388
vt 0.251473 0.690204
vt 0.48999 0.099082
vt 0.490758 0.096941
vt 0.492473 0.097396
vt 0.492026 0.099628
vt 0.429164 0.099628
vt 0.429453 0.09737
vt 0.431218 0.097596
vt 0.430933 0.099854
vt 0.153877 0.099062
vt 0.1541 0.096797
vt 0.156185 0.097185
vt 0.155633 0.099393
vt 0.255187 0.648443
vt 0.253531 0.650005
vt 0.251989 0.647921
vt 0.253932 0.646737
vt 0.213794 0.097291
vt 0.214241 0.099523
vt 0.211607 0.099854
vt 0.211488 0.097581
vt 0.592172 0.097103
vt 0.59236 0.099371
vt 0.58974 0.099587
vt 0.589541 0.09732
vt 0.267378 0.102301
vt 0.267936 0.104507
vt 0.265776 0.105225
vt 0.264893 0.103128
vt 0.251473 0.690204
vt 0.253416 0.691388
vt 0.252634 0.693027
vt 0.250487 0.692276
vt 0.492026 0.099628
vt 0.492473 0.097396
vt 0.493948 0.097581
vt 0.49383 0.099854
vt 0.293701 0.072721
vt 0.29389 0.070453
vt 0.295376 0.070572
vt 0.295175 0.07284
vt 0.155633 0.099393
vt 0.156185 0.097185
vt 0.157923 0.097755
vt 0.157045 0.099854
vt 0.253932 0.646737
vt 0.251989 0.647921
vt 0.250992 0.645824
vt 0.253139 0.645073
vt 0.211488 0.097581
vt 0.211607 0.099854
vt 0.20874 0.099808
vt 0.208939 0.097542
vt 0.589541 0.09732
vt 0.58974 0.099587
vt 0.586896 0.099854
vt 0.58667 0.097589
vt 0.20146 0.101644
vt 0.201202 0.103905
vt 0.198714 0.103799
vt 0.198615 0.101525
vt 0.250487 0.692276
vt 0.252634 0.693027
vt 0.252156 0.694996
vt 0.2499 0.694714
vt 0.49383 0.099854
vt 0.493948 0.097581
vt 0.495638 0.097559
vt 0.495837 0.099825
vt 0.295175 0.07284
vt 0.295376 0.070572
vt 0.297094 0.070734
vt 0.296867 0.072998
vt 0.495614 0.104097
vt 0.495361 0.101835
vt 0.497438 0.101749
vt 0.497334 0.104023
vt 0.253139 0.645073
vt 0.250992 0.645824
vt 0.250389 0.643321
vt 0.252645 0.643038
vt 0.716755 0.10187
vt 0.717335 0.10407
vt 0.713677 0.104845
vt 0.713374 0.102589
vt 0.741738 0.097161
vt 0.741834 0.099435
vt 0.73807 0.099612
vt 0.737958 0.097339
vt 0.198615 0.101525
vt 0.198714 0.103799
vt 0.195256 0.10416
vt 0.194851 0.10192
vt 0.2499 0.694714
vt 0.252156 0.694996
vt 0.252025 0.698046
vt 0.249756 0.698183
vt 0.122803 0.098893
vt 0.123383 0.096693
vt 0.126046 0.097266
vt 0.125743 0.099522
vt 0.197021 0.090245
vt 0.197119 0.087972
vt 0.199889 0.088104
vt 0.199776 0.090377
vt 0.497334 0.104023
vt 0.497438 0.101749
vt 0.500514 0.102075
vt 0.500103 0.104313
vt 0.252645 0.643038
vt 0.250389 0.643321
vt 0.250244 0.639815
vt 0.252513 0.639953
vt 0.713374 0.102589
vt 0.713677 0.104845
vt 0.708868 0.105225
vt 0.708849 0.102949
vt 0.737958 0.097339
vt 0.73807 0.099612
vt 0.733257 0.099854
vt 0.733154 0.09758
vt 0.194851 0.10192
vt 0.195256 0.10416
vt 0.190853 0.105225
vt 0.190186 0.103049
vt 0.249756 0.698183
vt 0.252025 0.698046
vt 0.252613 0.702172
vt 0.250403 0.702699
vt 0.125743 0.099522
vt 0.126046 0.097266
vt 0.129915 0.097578
vt 0.129897 0.099854
vt 0.199776 0.090377
vt 0.199889 0.088104
vt 0.203744 0.088303
vt 0.203641 0.090576
vt 0.500103 0.104313
vt 0.500514 0.102075
vt 0.504512 0.103051
vt 0.503839 0.105225
vt 0.252513 0.639953
vt 0.250244 0.639815
vt 0.250888 0.635321
vt 0.253098 0.635848
vt 0.708849 0.102949
vt 0.708868 0.105225
vt 0.703215 0.104936
vt 0.703477 0.102675
vt 0.269205 0.0883
vt 0.269177 0.090576
vt 0.263485 0.090477
vt 0.263555 0.088203
vt 0.892975 0.114748
vt 0.892378 0.116943
vt 0.887075 0.115779
vt 0.887457 0.113535
vt 0.250403 0.702699
vt 0.252613 0.702172
vt 0.254199 0.707054
vt 0.252099 0.70792
vt 0.129897 0.099854
vt 0.129915 0.097578
vt 0.134752 0.097332
vt 0.135014 0.099593
vt 0.330839 0.072998
vt 0.330811 0.070722
vt 0.335604 0.070643
vt 0.335674 0.072917
vt 0.163928 0.105225
vt 0.16333 0.103029
vt 0.168191 0.101961
vt 0.168575 0.104205
vt 0.253098 0.635848
vt 0.250888 0.635321
vt 0.252552 0.630196
vt 0.254653 0.631062
vt 0.703477 0.102675
vt 0.703215 0.104936
vt 0.698486 0.103999
vt 0.699074 0.101802
vt 0.263555 0.088203
vt 0.263485 0.090477
vt 0.258545 0.090244
vt 0.258693 0.087973
vt 0.887457 0.113535
vt 0.887075 0.115779
vt 0.882369 0.115235
vt 0.882527 0.112964
vt 0.252099 0.70792
vt 0.254199 0.707054
vt 0.256216 0.710896
vt 0.254299 0.712115
vt 0.135014 0.099593
vt 0.134752 0.097332
vt 0.138626 0.09656
vt 0.139214 0.098757
vt 0.335674 0.072917
vt 0.335604 0.070643
vt 0.339509 0.070458
vt 0.339658 0.072729
vt 0.168575 0.104205
vt 0.168191 0.101961
vt 0.172314 0.101486
vt 0.172473 0.103756
vt 0.254653 0.631062
vt 0.252552 0.630196
vt 0.254666 0.626169
vt 0.256583 0.627388
vt 0.172275 0.143965
vt 0.172314 0.14624
vt 0.168534 0.145948
vt 0.168923 0.143706
vt 0.12083 0.102965
vt 0.120554 0.105225
vt 0.116698 0.10466
vt 0.11707 0.102414
vt 0.882527 0.112964
vt 0.882369 0.115235
vt 0.878796 0.115213
vt 0.878662 0.112942
vt 0.254299 0.712115
vt 0.256216 0.710896
vt 0.258151 0.713312
vt 0.256556 0.714933
vt 0.37915 0.14624
vt 0.379188 0.143965
vt 0.381833 0.143757
vt 0.382224 0.145999
vt 0.623078 0.105225
vt 0.622803 0.102965
vt 0.625338 0.102591
vt 0.625709 0.104836
vt 0.172473 0.103756
vt 0.172314 0.101486
vt 0.175148 0.101465
vt 0.175015 0.103737
vt 0.256583 0.627388
vt 0.254666 0.626169
vt 0.256777 0.623534
vt 0.258372 0.625154
vt 0.168923 0.143706
vt 0.168534 0.145948
vt 0.162991 0.144643
vt 0.163696 0.142479
vt 0.11707 0.102414
vt 0.116698 0.10466
vt 0.111084 0.103669
vt 0.111487 0.101429
vt 0.780248 0.229715
vt 0.779118 0.231689
vt 0.774356 0.229204
vt 0.775239 0.227106
vt 0.256556 0.714933
vt 0.258151 0.713312
vt 0.261931 0.71657
vt 0.260664 0.718461
vt 0.382224 0.145999
vt 0.381833 0.143757
vt 0.386403 0.142688
vt 0.38711 0.144851
vt 0.625709 0.104836
vt 0.625338 0.102591
vt 0.62991 0.101781
vt 0.630312 0.104021
vt 0.930084 0.208252
vt 0.928955 0.206277
vt 0.933273 0.204017
vt 0.934154 0.206115
vt 0.258372 0.625154
vt 0.256777 0.623534
vt 0.260825 0.620055
vt 0.262092 0.621945
vt 0.163696 0.142479
vt 0.162991 0.144643
vt 0.154541 0.141402
vt 0.155427 0.139307
vt 0.546093 0.135226
vt 0.545616 0.137451
vt 0.536769 0.135542
vt 0.537207 0.133309
vt 0.775239 0.227106
vt 0.774356 0.229204
vt 0.766072 0.226173
vt 0.766718 0.223991
vt 0.260664 0.718461
vt 0.261931 0.71657
vt 0.269252 0.720793
vt 0.268258 0.72284
vt 0.38711 0.144851
vt 0.386403 0.142688
vt 0.394105 0.13972
vt 0.394993 0.141816
vt 0.093006 0.129639
vt 0.092529 0.127413
vt 0.100673 0.12565
vt 0.10111 0.127883
vt 0.934154 0.206115
vt 0.933273 0.204017
vt 0.941353 0.201067
vt 0.941998 0.20325
vt 0.262092 0.621945
vt 0.260825 0.620055
vt 0.268501 0.615627
vt 0.269496 0.617674
vt 0.767421 0.29192
vt 0.767254 0.294189
vt 0.759406 0.293279
vt 0.759837 0.291045
vt 0.537207 0.133309
vt 0.536769 0.135542
vt 0.529053 0.134213
vt 0.529375 0.13196
vt 0.766718 0.223991
vt 0.766072 0.226173
vt 0.758827 0.224608
vt 0.759048 0.222343
vt 0.268258 0.72284
vt 0.269252 0.720793
vt 0.275682 0.723301
vt 0.275154 0.725514
vt 0.001389 0.276123
vt 0.001221 0.273854
vt 0.007772 0.273111
vt 0.008204 0.275345
vt 0.10111 0.127883
vt 0.100673 0.12565
vt 0.107327 0.124501
vt 0.107649 0.126754
vt 0.941998 0.20325
vt 0.941353 0.201067
vt 0.948391 0.199549
vt 0.948609 0.201814
vt 0.269496 0.617674
vt 0.268501 0.615627
vt 0.275665 0.612858
vt 0.276193 0.615071
vt 0.759837 0.291045
vt 0.759406 0.293279
vt 0.745055 0.289936
vt 0.745676 0.287747
vt 0.582539 0.184518
vt 0.582193 0.186768
vt 0.567616 0.184747
vt 0.567992 0.182502
vt 0.759048 0.222343
vt 0.758827 0.224608
vt 0.744385 0.224107
vt 0.744455 0.221833
vt 0.275154 0.725514
vt 0.275682 0.723301
vt 0.289858 0.725665
vt 0.289572 0.727922
vt 0.008204 0.275345
vt 0.007772 0.273111
vt 0.021572 0.269891
vt 0.022194 0.27208
vt 0.256937 0.165283
vt 0.256592 0.163034
vt 0.270555 0.161111
vt 0.27093 0.163356
vt 0.948609 0.201814
vt 0.948391 0.199549
vt 0.962518 0.199079
vt 0.962586 0.201353
vt 0.276193 0.615071
vt 0.275665 0.612858
vt 0.290011 0.610463
vt 0.290298 0.61272
vt 0.745676 0.287747
vt 0.745055 0.289936
vt 0.734487 0.286213
vt 0.735379 0.284119
vt 0.567992 0.182502
vt 0.567616 0.184747
vt 0.556419 0.182451
vt 0.556995 0.180249
vt 0.623511 0.184639
vt 0.622707 0.186768
vt 0.612004 0.18285
vt 0.612811 0.180722
vt 0.289572 0.727922
vt 0.289858 0.725665
vt 0.301009 0.726486
vt 0.300922 0.72876
vt 0.022194 0.27208
vt 0.021572 0.269891
vt 0.031873 0.266256
vt 0.032766 0.268349
vt 0.27093 0.163356
vt 0.270555 0.161111
vt 0.281076 0.15896
vt 0.281652 0.161162
vt 0.588942 0.165283
vt 0.588135 0.163155
vt 0.598182 0.15947
vt 0.598991 0.161597
vt 0.290298 0.61272
vt 0.290011 0.610463
vt 0.30087 0.609665
vt 0.300957 0.611939
vt 0.735379 0.284119
vt 0.734487 0.286213
vt 0.727783 0.282578
vt 0.728868 0.280577
vt 0.556995 0.180249
vt 0.556419 0.182451
vt 0.549072 0.179901
vt 0.549819 0.177752
vt 0.612811 0.180722
vt 0.612004 0.18285
vt 0.604736 0.179953
vt 0.60558 0.177839
vt 0.300922 0.72876
vt 0.301009 0.726486
vt 0.308537 0.726319
vt 0.308572 0.728593
vt 0.032766 0.268349
vt 0.031873 0.266256
vt 0.038467 0.262669
vt 0.039552 0.264669
vt 0.281652 0.161162
vt 0.281076 0.15896
vt 0.287966 0.156549
vt 0.288713 0.158699
vt 0.598991 0.161597
vt 0.598182 0.15947
vt 0.604927 0.156766
vt 0.605773 0.158879
vt 0.300957 0.611939
vt 0.30087 0.609665
vt 0.308095 0.609834
vt 0.30806 0.612108
vt 0.488526 0.133566
vt 0.490135 0.131956
vt 0.491273 0.134704
vt 0.488525 0.135842
vt 0.488526 0.133566
vt 0.491273 0.134704
vt 0.490135 0.137451
vt 0.488525 0.135842
vt 0.491273 0.134704
vt 0.492411 0.137451
vt 0.490135 0.137451
vt 0.491273 0.134704
vt 0.49402 0.135842
vt 0.492411 0.137451
vt 0.491273 0.134704
vt 0.49402 0.133566
vt 0.49402 0.135842
vt 0.491273 0.134704
vt 0.492411 0.131957
vt 0.49402 0.133566
vt 0.491273 0.134704
vt 0.490135 0.131956
vt 0.492411 0.131957
vt 0.491273 0.134704
vt 0.476656 0.134672
vt 0.473877 0.133614
vt 0.47544 0.131959
vt 0.476656 0.134672
vt 0.47544 0.131959
vt 0.477715 0.131894
vt 0.476656 0.134672
vt 0.477715 0.131894
vt 0.479369 0.133456
vt 0.476656 0.134672
vt 0.479369 0.133456
vt 0.479434 0.135731
vt 0.476656 0.134672
vt 0.479434 0.135731
vt 0.477872 0.137386
vt 0.476656 0.134672
vt 0.477872 0.137386
vt 0.475597 0.137451
vt 0.476656 0.134672
vt 0.475597 0.137451
vt 0.473942 0.135889
vt 0.476656 0.134672
vt 0.473942 0.135889
vt 0.473877 0.133614
vn 0.382455 -0.007263 -0.923945
vn 0.923801 0.002228 -0.382867
vn 0.923718 0.008178 -0.382985
vn 0.382358 -0.006734 -0.92399
vn 0.923852 0.010413 0.382608
vn 0.923751 0.018299 0.382557
vn 0.382515 0.012497 0.923865
vn 0.38235 0.017695 0.923848
vn -0.382895 0.007256 0.923763
vn -0.382988 0.006718 0.923729
vn -0.923921 -0.002239 0.382577
vn -0.92387 -0.008198 0.382619
vn -0.923864 -0.010424 -0.382578
vn -0.923797 -0.018313 -0.382443
vn -0.382847 -0.012503 -0.923727
vn -0.382876 -0.017706 -0.92363
vn 0.923423 0.021616 -0.383175
vn 0.382232 -0.003104 -0.924061
vn 0.923391 0.03367 0.382381
vn 0.382118 0.025985 0.923748
vn -0.382929 0.00308 0.923773
vn -0.923568 -0.02162 0.382825
vn -0.923475 -0.03366 -0.382179
vn -0.382753 -0.025995 -0.923485
vn 0.923073 0.032275 -0.383268
vn 0.382237 0.000914 -0.924064
vn 0.923014 0.044725 0.382159
vn 0.382068 0.030965 0.923615
vn -0.382656 -0.000931 0.92389
vn -0.92316 -0.032273 0.383058
vn -0.923065 -0.044716 -0.382037
vn -0.382451 -0.030975 -0.923457
vn 0.922942 0.035671 -0.383283
vn 0.382359 0.001398 -0.924013
vn 0.922857 0.049048 0.382007
vn 0.382107 0.03369 0.923504
vn -0.382489 -0.001405 0.923959
vn -0.922992 -0.035674 0.383162
vn -0.922841 -0.049046 -0.382047
vn -0.38217 -0.033692 -0.923478
vn 0.923 0.034592 -0.383242
vn 0.382538 -0.000541 -0.92394
vn 0.922863 0.049465 0.381938
vn 0.382137 0.035363 0.923429
vn -0.382488 0.000542 0.92396
vn -0.923033 -0.034597 0.383163
vn -0.922796 -0.049466 -0.3821
vn -0.381987 -0.035358 -0.923491
vn 0.923193 0.03003 -0.383162
vn 0.382711 -0.004693 -0.923856
vn 0.922969 0.047164 0.381973
vn 0.382085 0.036672 0.923399
vn -0.382677 0.004695 0.92387
vn -0.92324 -0.030033 0.383049
vn -0.922889 -0.047164 -0.382167
vn -0.381924 -0.036667 -0.923466
vn 0.923232 0.028632 -0.383175
vn 0.382723 -0.007714 -0.923831
vn 0.922906 0.048206 0.381996
vn 0.381848 0.039537 0.923379
vn -0.382916 0.007704 0.923751
vn -0.923314 -0.028642 0.382976
vn -0.922869 -0.048209 -0.382085
vn -0.381922 -0.039541 -0.923348
vn 0.923059 0.032644 -0.383271
vn 0.382739 -0.007875 -0.923823
vn 0.922644 0.054042 0.381848
vn 0.381662 0.043777 0.923265
vn -0.382914 0.007864 0.923751
vn -0.923132 -0.032651 0.383095
vn -0.922613 -0.054039 -0.381922
vn -0.381733 -0.043778 -0.923235
vn 0.923164 0.031179 -0.383139
vn 0.383099 -0.010355 -0.923649
vn 0.922675 0.054458 0.381713
vn 0.381822 0.045845 0.923098
vn -0.382796 0.010365 0.923775
vn -0.923166 -0.031196 0.383132
vn -0.922545 -0.054473 -0.382025
vn -0.381386 -0.045833 -0.923279
vn 0.923772 0.017009 -0.382566
vn 0.383788 -0.019088 -0.923224
vn 0.923198 0.043156 0.381894
vn 0.382263 0.044047 0.923003
vn -0.382806 0.019111 0.923631
vn -0.92368 -0.017055 0.382786
vn -0.922917 -0.043216 -0.382566
vn -0.381092 -0.044038 -0.923488
vn 0.924322 -0.012113 -0.38142
vn 0.384313 -0.035254 -0.922529
vn 0.923691 0.018114 0.382711
vn 0.382649 0.037749 0.923122
vn -0.382789 0.035269 0.923162
vn -0.924158 0.012092 0.381819
vn -0.923291 -0.018182 -0.383671
vn -0.380889 -0.037781 -0.923848
vn 0.923806 -0.047829 -0.379861
vn 0.384138 -0.05462 -0.921659
vn 0.923261 -0.013076 0.383951
vn 0.382622 0.029339 0.923439
vn -0.382476 0.054601 0.922351
vn -0.923626 0.047856 0.380296
vn -0.922827 0.013026 -0.384996
vn -0.380707 -0.029435 -0.924227
vn 0.922176 -0.081593 -0.378066
vn 0.383759 -0.073262 -0.920523
vn 0.921972 -0.042243 0.384946
vn 0.382823 0.021813 0.923564
vn -0.381243 0.072979 0.92159
vn -0.921939 0.081219 0.378724
vn -0.921319 0.041808 -0.386553
vn -0.379891 -0.022156 -0.924766
vn 0.914288 -0.15705 -0.373381
vn 0.38078 -0.115316 -0.917447
vn 0.915501 -0.107196 0.387771
vn 0.382673 0.005141 0.92387
vn -0.375571 0.113949 0.919762
vn -0.914021 0.155428 0.374711
vn -0.914186 0.105539 -0.391313
vn -0.376407 -0.006544 -0.926431
vn 0.88002 -0.308701 -0.360926
vn 0.360746 -0.203693 -0.910149
vn 0.886871 -0.233975 0.398391
vn 0.377376 -0.023019 0.925774
vn -0.353837 0.201921 0.913251
vn -0.879359 0.308773 0.362474
vn -0.884896 0.232957 -0.403349
vn -0.369193 0.020174 -0.929134
vn 0.824361 -0.450164 -0.343193
vn 0.330149 -0.286976 -0.899248
vn 0.840638 -0.352445 0.41123
vn 0.368577 -0.049657 0.92827
vn -0.3211 0.283069 0.903751
vn -0.823613 0.449451 0.345912
vn -0.838763 0.349786 -0.417285
vn -0.358397 0.043803 -0.932541
vn 0.738397 -0.594508 -0.318324
vn 0.289947 -0.364984 -0.884713
vn 0.762928 -0.483165 0.429526
vn 0.348652 -0.09312 0.932615
vn -0.271832 0.353716 0.894982
vn -0.735909 0.593303 0.326235
vn -0.760377 0.477758 -0.439971
vn -0.330439 0.077639 -0.940629
vn 0.6229 -0.726728 -0.28959
vn 0.245498 -0.430353 -0.868635
vn 0.648867 -0.613769 0.449733
vn 0.308966 -0.153793 0.938556
vn -0.214352 0.400221 0.890997
vn -0.618681 0.722348 0.308946
vn -0.646143 0.603123 -0.467698
vn -0.279278 0.117464 -0.952998
vn 0.471136 -0.841918 -0.263068
vn 0.185259 -0.488136 -0.852879
vn 0.496535 -0.730402 0.469005
vn 0.247013 -0.214171 0.945048
vn -0.148022 0.432465 0.889417
vn -0.464436 0.835404 0.293938
vn -0.490801 0.714767 -0.498219
vn -0.210692 0.149759 -0.966013
vn 0.292787 -0.924268 -0.244958
vn 0.102102 -0.526152 -0.844239
vn 0.321841 -0.81205 0.48682
vn 0.172705 -0.250186 0.95267
vn -0.077996 0.463682 0.882562
vn -0.288621 0.917258 0.274474
vn -0.318195 0.793514 -0.518736
vn -0.149185 0.177022 -0.972834
vn 0.099244 -0.967591 -0.232205
vn 0.005999 -0.540589 -0.841265
vn 0.136397 -0.852648 0.504368
vn 0.097228 -0.258539 0.961095
vn 0.003414 0.49307 0.869983
vn -0.092443 0.963116 0.252711
vn -0.132321 0.839053 -0.527713
vn -0.090483 0.202265 -0.975142
vn -0.075544 -0.971621 -0.224156
vn -0.075193 -0.535825 -0.840974
vn -0.0333 -0.854776 0.517928
vn 0.028214 -0.251167 0.967533
vn 0.074719 0.503683 0.860651
vn 0.077586 0.967869 0.239186
vn 0.032925 0.846327 -0.531646
vn -0.031076 0.214413 -0.976249
vn -0.232683 -0.947328 -0.220063
vn -0.139154 -0.52247 -0.841226
vn -0.193062 -0.828732 0.525292
vn -0.0426 -0.235063 0.971046
vn 0.134344 0.498826 0.856227
vn 0.233711 0.943952 0.233095
vn 0.192645 0.823575 -0.53349
vn 0.036353 0.209642 -0.977102
vn -0.365348 -0.90452 -0.219918
vn -0.182694 -0.509021 -0.841143
vn -0.33856 -0.780779 0.52513
vn -0.117602 -0.20985 0.970635
vn 0.172655 0.48625 0.856593
vn 0.362655 0.901723 0.235323
vn 0.335497 0.777999 -0.531186
vn 0.10717 0.187035 -0.97649
vn -0.500206 -0.836196 -0.224879
vn -0.220509 -0.497048 -0.839237
vn -0.495716 -0.700421 0.513494
vn -0.210369 -0.168463 0.962998
vn 0.196948 0.466114 0.862525
vn 0.49044 0.835071 0.24925
vn 0.487902 0.699488 -0.522176
vn 0.188641 0.137529 -0.972368
vn -0.648057 -0.719156 -0.250671
vn -0.259342 -0.464631 -0.846675
vn -0.667355 -0.565784 0.484278
vn -0.308931 -0.090749 0.946745
vn 0.231901 0.440781 0.867141
vn 0.643739 0.715276 0.271992
vn 0.66863 0.55686 -0.492789
vn 0.286963 0.061822 -0.955945
vn -0.753039 -0.591568 -0.288061
vn -0.290069 -0.412506 -0.863539
vn -0.781212 -0.429569 0.452966
vn -0.358326 -0.018739 0.933408
vn 0.27554 0.404223 0.872171
vn 0.751469 0.589812 0.295662
vn 0.780665 0.423736 -0.459358
vn 0.344791 0.006391 -0.938658
vn -0.821304 -0.474805 -0.31626
vn -0.324869 -0.351697 -0.877935
vn -0.844104 -0.325022 0.426438
vn -0.379188 0.013693 0.925218
vn 0.309921 0.348539 0.884573
vn 0.817695 0.479199 0.318972
vn 0.839248 0.324095 -0.436607
vn 0.362988 -0.022185 -0.93153
vn -0.894088 -0.273984 -0.354314
vn -0.365369 -0.230329 -0.901917
vn -0.903413 -0.157905 0.398637
vn -0.388286 0.049274 0.920221
vn 0.355519 0.226259 0.90687
vn 0.893786 0.269684 0.358354
vn 0.901751 0.153627 -0.404034
vn 0.377142 -0.0533 -0.92462
vn -0.912294 -0.179818 -0.367948
vn -0.370866 -0.200419 -0.906802
vn -0.921581 -0.053928 0.384422
vn -0.394193 0.103454 0.913186
vn 0.363889 0.200209 0.909671
vn 0.910072 0.179947 0.373347
vn 0.921801 0.054341 -0.383835
vn 0.389644 -0.103383 -0.915145
vn -0.917028 -0.132819 -0.376058
vn -0.368011 -0.248146 -0.896098
vn -0.930395 0.059304 0.361729
vn -0.402929 0.217055 0.889121
vn 0.359429 0.248568 0.899458
vn 0.913085 0.134608 0.384912
vn 0.932156 -0.059046 -0.35721
vn 0.400048 -0.218177 -0.890146
vn -0.917525 -0.1129 -0.381315
vn -0.365917 -0.298231 -0.881568
vn -0.930356 0.136438 0.340327
vn -0.404006 0.305665 0.862176
vn 0.357282 0.298277 0.885088
vn 0.913175 0.115607 0.390828
vn 0.932462 -0.136877 -0.334333
vn 0.401847 -0.308734 -0.862092
vn -0.006848 0.999919 -0.010693
vn 0.020079 0.944743 -0.327197
f 261/851/137 262/852/138 270/853/139 269/854/140
f 262/855/138 263/856/141 271/857/142 270/858/139
f 263/859/141 264/860/143 272/861/144 271/862/142
f 264/863/143 265/864/145 273/865/146 272/866/144
f 265/867/145 266/868/147 274/869/148 273/870/146
f 266/871/147 267/872/149 275/873/150 274/874/148
f 267/875/149 268/876/151 276/877/152 275/878/150
f 268/879/151 261/880/137 269/881/140 276/882/152
f 269/883/140 270/884/139 278/885/153 277/886/154
f 270/887/139 271/888/142 279/889/155 278/890/153
f 271/891/142 272/892/144 280/893/156 279/894/155
f 272/895/144 273/896/146 281/897/157 280/898/156
f 273/899/146 274/900/148 282/901/158 281/902/157
f 274/903/148 275/904/150 283/905/159 282/906/158
f 275/907/150 276/908/152 284/909/160 283/910/159
f 276/911/152 269/912/140 277/913/154 284/914/160
f 277/915/154 278/916/153 286/917/161 285/918/162
f 278/919/153 279/920/155 287/921/163 286/922/161
f 279/923/155 280/924/156 288/925/164 287/926/163
f 280/927/156 281/928/157 289/929/165 288/930/164
f 281/931/157 282/932/158 290/933/166 289/934/165
f 282/935/158 283/936/159 291/937/167 290/938/166
f 283/939/159 284/940/160 292/941/168 291/942/167
f 284/943/160 277/944/154 285/945/162 292/946/168
f 285/947/162 286/948/161 294/949/169 293/950/170
f 286/951/161 287/952/163 295/953/171 294/954/169
f 287/955/163 288/956/164 296/957/172 295/958/171
f 288/959/164 289/960/165 297/961/173 296/962/172
f 289/963/165 290/964/166 298/965/174 297/966/173
f 290/967/166 291/968/167 299/969/175 298/970/174
f 291/971/167 292/972/168 300/973/176 299/974/175
f 292/975/168 285/976/162 293/977/170 300/978/176
f 293/979/170 294/980/169 302/981/177 301/982/178
f 294/983/169 295/984/171 303/985/179 302/986/177
f 295/987/171 296/988/172 304/989/180 303/990/179
f 296/991/172 297/992/173 305/993/181 304/994/180
f 297/995/173 298/996/174 306/997/182 305/998/181
f 298/999/174 299/1000/175 307/1001/183 306/1002/182
f 299/1003/175 300/1004/176 308/1005/184 307/1006/183
f 300/1007/176 293/1008/170 301/1009/178 308/1010/184
f 301/1011/178 302/1012/177 310/1013/185 309/1014/186
f 302/1015/177 303/1016/179 311/1017/187 310/1018/185
f 303/1019/179 304/1020/180 312/1021/188 311/1022/187
f 304/1023/180 305/1024/181 313/1025/189 312/1026/188
f 305/1027/181 306/1028/182 314/1029/190 313/1030/189
f 306/1031/182 307/1032/183 315/1033/191 314/1034/190
f 307/1035/183 308/1036/184 316/1037/192 315/1038/191
f 308/1039/184 301/1040/178 309/1041/186 316/1042/192
f 309/1043/186 310/1044/185 318/1045/193 317/1046/194
f 310/1047/185 311/1048/187 319/1049/195 318/1050/193
f 311/1051/187 312/1052/188 320/1053/196 319/1054/195
f 312/1055/188 313/1056/189 321/1057/197 320/1058/196
f 313/1059/189 314/1060/190 322/1061/198 321/1062/197
f 314/1063/190 315/1064/191 323/1065/199 322/1066/198
f 315/1067/191 316/1068/192 324/1069/200 323/1070/199
f 316/1071/192 309/1072/186 317/1073/194 324/1074/200
f 317/1075/194 318/1076/193 326/1077/201 325/1078/202
f 318/1079/193 319/1080/195 327/1081/203 326/1082/201
f 319/1083/195 320/1084/196 328/1085/204 327/1086/203
f 320/1087/196 321/1088/197 329/1089/205 328/1090/204
f 321/1091/197 322/1092/198 330/1093/206 329/1094/205
f 322/1095/198 323/1096/199 331/1097/207 330/1098/206
f 323/1099/199 324/1100/200 332/1101/208 331/1102/207
f 324/1103/200 317/1104/194 325/1105/202 332/1106/208
f 325/1107/202 326/1108/201 334/1109/209 333/1110/210
f 326/1111/201 327/1112/203 335/1113/211 334/1114/209
f 327/1115/203 328/1116/204 336/1117/212 335/1118/211
f 328/1119/204 329/1120/205 337/1121/213 336/1122/212
f 329/1123/205 330/1124/206 338/1125/214 337/1126/213
f 330/1127/206 331/1128/207 339/1129/215 338/1130/214
f 331/1131/207 332/1132/208 340/1133/216 339/1134/215
f 332/1135/208 325/1136/202 333/1137/210 340/1138/216
f 333/1139/210 334/1140/209 342/1141/217 341/1142/218
f 334/1143/209 335/1144/211 343/1145/219 342/1146/217
f 335/1147/211 336/1148/212 344/1149/220 343/1150/219
f 336/1151/212 337/1152/213 345/1153/221 344/1154/220
f 337/1155/213 338/1156/214 346/1157/222 345/1158/221
f 338/1159/214 339/1160/215 347/1161/223 346/1162/222
f 339/1163/215 340/1164/216 348/1165/224 347/1166/223
f 340/1167/216 333/1168/210 341/1169/218 348/1170/224
f 341/1171/218 342/1172/217 350/1173/225 349/1174/226
f 342/1175/217 343/1176/219 351/1177/227 350/1178/225
f 343/1179/219 344/1180/220 352/1181/228 351/1182/227
f 344/1183/220 345/1184/221 353/1185/229 352/1186/228
f 345/1187/221 346/1188/222 354/1189/230 353/1190/229
f 346/1191/222 347/1192/223 355/1193/231 354/1194/230
f 347/1195/223 348/1196/224 356/1197/232 355/1198/231
f 348/1199/224 341/1200/218 349/1201/226 356/1202/232
f 349/1203/226 350/1204/225 358/1205/233 357/1206/234
f 350/1207/225 351/1208/227 359/1209/235 358/1210/233
f 351/1211/227 352/1212/228 360/1213/236 359/1214/235
f 352/1215/228 353/1216/229 361/1217/237 360/1218/236
f 353/1219/229 354/1220/230 362/1221/238 361/1222/237
f 354/1223/230 355/1224/231 363/1225/239 362/1226/238
f 355/1227/231 356/1228/232 364/1229/240 363/1230/239
f 356/1231/232 349/1232/226 357/1233/234 364/1234/240
f 357/1235/234 358/1236/233 366/1237/241 365/1238/242
f 358/1239/233 359/1240/235 367/1241/243 366/1242/241
f 359/1243/235 360/1244/236 368/1245/244 367/1246/243
f 360/1247/236 361/1248/237 369/1249/245 368/1250/244
f 361/1251/237 362/1252/238 370/1253/246 369/1254/245
f 362/1255/238 363/1256/239 371/1257/247 370/1258/246
f 363/1259/239 364/1260/240 372/1261/248 371/1262/247
f 364/1263/240 357/1264/234 365/1265/242 372/1266/248
f 365/1267/242 366/1268/241 374/1269/249 373/1270/250
f 366/1271/241 367/1272/243 375/1273/251 374/1274/249
f 367/1275/243 368/1276/244 376/1277/252 375/1278/251
f 368/1279/244 369/1280/245 377/1281/253 376/1282/252
f 369/1283/245 370/1284/246 378/1285/254 377/1286/253
f 370/1287/246 371/1288/247 379/1289/255 378/1290/254
f 371/1291/247 372/1292/248 380/1293/256 379/1294/255
f 372/1295/248 365/1296/242 373/1297/250 380/1298/256
f 373/1299/250 374/1300/249 382/1301/257 381/1302/258
f 374/1303/249 375/1304/251 383/1305/259 382/1306/257
f 375/1307/251 376/1308/252 384/1309/260 383/1310/259
f 376/1311/252 377/1312/253 385/1313/261 384/1314/260
f 377/1315/253 378/1316/254 386/1317/262 385/1318/261
f 378/1319/254 379/1320/255 387/1321/263 386/1322/262
f 379/1323/255 380/1324/256 388/1325/264 387/1326/263
f 380/1327/256 373/1328/250 381/1329/258 388/1330/264
f 381/1331/258 382/1332/257 390/1333/265 389/1334/266
f 382/1335/257 383/1336/259 391/1337/267 390/1338/265
f 383/1339/259 384/1340/260 392/1341/268 391/1342/267
f 384/1343/260 385/1344/261 393/1345/269 392/1346/268
f 385/1347/261 386/1348/262 394/1349/270 393/1350/269
f 386/1351/262 387/1352/263 395/1353/271 394/1354/270
f 387/1355/263 388/1356/264 396/1357/272 395/1358/271
f 388/1359/264 381/1360/258 389/1361/266 396/1362/272
f 389/1363/266 390/1364/265 398/1365/273 397/1366/274
f 390/1367/265 391/1368/267 399/1369/275 398/1370/273
f 391/1371/267 392/1372/268 400/1373/276 399/1374/275
f 392/1375/268 393/1376/269 401/1377/277 400/1378/276
f 393/1379/269 394/1380/270 402/1381/278 401/1382/277
f 394/1383/270 395/1384/271 403/1385/279 402/1386/278
f 395/1387/271 396/1388/272 404/1389/280 403/1390/279
f 396/1391/272 389/1392/266 397/1393/274 404/1394/280
f 397/1395/274 398/1396/273 406/1397/281 405/1398/282
f 398/1399/273 399/1400/275 407/1401/283 406/1402/281
f 399/1403/275 400/1404/276 408/1405/284 407/1406/283
f 400/1407/276 401/1408/277 409/1409/285 408/1410/284
f 401/1411/277 402/1412/278 410/1413/286 409/1414/285
f 402/1415/278 403/1416/279 411/1417/287 410/1418/286
f 403/1419/279 404/1420/280 412/1421/288 411/1422/287
f 404/1423/280 397/1424/274 405/1425/282 412/1426/288
f 405/1427/282 406/1428/281 414/1429/289 413/1430/290
f 406/1431/281 407/1432/283 415/1433/291 414/1434/289
f 407/1435/283 408/1436/284 416/1437/292 415/1438/291
f 408/1439/284 409/1440/285 417/1441/293 416/1442/292
f 409/1443/285 410/1444/286 418/1445/294 417/1446/293
f 410/1447/286 411/1448/287 419/1449/295 418/1450/294
f 411/1451/287 412/1452/288 420/1453/296 419/1454/295
f 412/1455/288 405/1456/282 413/1457/290 420/1458/296
f 413/1459/290 414/1460/289 422/1461/297 421/1462/298
f 414/1463/289 415/1464/291 423/1465/299 422/1466/297
f 415/1467/291 416/1468/292 424/1469/300 423/1470/299
f 416/1471/292 417/1472/293 425/1473/301 424/1474/300
f 417/1475/293 418/1476/294 426/1477/302 425/1478/301
f 418/1479/294 419/1480/295 427/1481/303 426/1482/302
f 419/1483/295 420/1484/296 428/1485/304 427/1486/303
f 420/1487/296 413/1488/290 421/1489/298 428/1490/304
f 421/1491/298 422/1492/297 430/1493/305 429/1494/306
f 422/1495/297 423/1496/299 431/1497/307 430/1498/305
f 423/1499/299 424/1500/300 432/1501/308 431/1502/307
f 424/1503/300 425/1504/301 433/1505/309 432/1506/308
f 425/1507/301 426/1508/302 434/1509/310 433/1510/309
f 426/1511/302 427/1512/303 435/1513/311 434/1514/310
f 427/1515/303 428/1516/304 436/1517/312 435/1518/311
f 428/1519/304 421/1520/298 429/1521/306 436/1522/312
f 429/1523/306 430/1524/305 438/1525/313 437/1526/314
f 430/1527/305 431/1528/307 439/1529/315 438/1530/313
f 431/1531/307 432/1532/308 440/1533/316 439/1534/315
f 432/1535/308 433/1536/309 441/1537/317 440/1538/316
f 433/1539/309 434/1540/310 442/1541/318 441/1542/317
f 434/1543/310 435/1544/311 443/1545/319 442/1546/318
f 435/1547/311 436/1548/312 444/1549/320 443/1550/319
f 436/1551/312 429/1552/306 437/1553/314 444/1554/320
f 437/1555/314 438/1556/313 446/1557/321 445/1558/322
f 438/1559/313 439/1560/315 447/1561/323 446/1562/321
f 439/1563/315 440/1564/316 448/1565/324 447/1566/323
f 440/1567/316 441/1568/317 449/1569/325 448/1570/324
f 441/1571/317 442/1572/318 450/1573/326 449/1574/325
f 442/1575/318 443/1576/319 451/1577/327 450/1578/326
f 443/1579/319 444/1580/320 452/1581/328 451/1582/327
f 444/1583/320 437/1584/314 445/1585/322 452/1586/328
f 445/1587/322 446/1588/321 454/1589/329 453/1590/330
f 446/1591/321 447/1592/323 455/1593/331 454/1594/329
f 447/1595/323 448/1596/324 456/1597/332 455/1598/331
f 448/1599/324 449/1600/325 457/1601/333 456/1602/332
f 449/1603/325 450/1604/326 458/1605/334 457/1606/333
f 450/1607/326 451/1608/327 459/1609/335 458/1610/334
f 451/1611/327 452/1612/328 460/1613/336 459/1614/335
f 452/1615/328 445/1616/322 453/1617/330 460/1618/336
f 453/1619/330 454/1620/329 462/1621/337 461/1622/338
f 454/1623/329 455/1624/331 463/1625/339 462/1626/337
f 455/1627/331 456/1628/332 464/1629/340 463/1630/339
f 456/1631/332 457/1632/333 465/1633/341 464/1634/340
f 457/1635/333 458/1636/334 466/1637/342 465/1638/341
f 458/1639/334 459/1640/335 467/1641/343 466/1642/342
f 459/1643/335 460/1644/336 468/1645/344 467/1646/343
f 460/1647/336 453/1648/330 461/1649/338 468/1650/344
f 461/1651/338 462/1652/337 470/1653/345 469/1654/346
f 462/1655/337 463/1656/339 471/1657/347 470/1658/345
f 463/1659/339 464/1660/340 472/1661/348 471/1662/347
f 464/1663/340 465/1664/341 473/1665/349 472/1666/348
f 465/1667/341 466/1668/342 474/1669/350 473/1670/349
f 466/1671/342 467/1672/343 475/1673/351 474/1674/350
f 467/1675/343 468/1676/344 476/1677/352 475/1678/351
f 468/1679/344 461/1680/338 469/1681/346 476/1682/352
f 469/1683/346 470/1684/345 478/1685/353 477/1686/354
f 470/1687/345 471/1688/347 479/1689/355 478/1690/353
f 471/1691/347 472/1692/348 480/1693/356 479/1694/355
f 472/1695/348 473/1696/349 481/1697/357 480/1698/356
f 473/1699/349 474/1700/350 482/1701/358 481/1702/357
f 474/1703/350 475/1704/351 483/1705/359 482/1706/358
f 475/1707/351 476/1708/352 484/1709/360 483/1710/359
f 476/1711/352 469/1712/346 477/1713/354 484/1714/360
f 477/1715/354 478/1716/353 486/1717/361 485/1718/362
f 478/1719/353 479/1720/355 487/1721/363 486/1722/361
f 479/1723/355 480/1724/356 488/1725/364 487/1726/363
f 480/1727/356 481/1728/357 489/1729/365 488/1730/364
f 481/1731/357 482/1732/358 490/1733/366 489/1734/365
f 482/1735/358 483/1736/359 491/1737/367 490/1738/366
f 483/1739/359 484/1740/360 492/1741/368 491/1742/367
f 484/1743/360 477/1744/354 485/1745/362 492/1746/368
f 485/1747/362 486/1748/361 494/1749/369 493/1750/370
f 486/1751/361 487/1752/363 495/1753/371 494/1754/369
f 487/1755/363 488/1756/364 496/1757/372 495/1758/371
f 488/1759/364 489/1760/365 497/1761/373 496/1762/372
f 489/1763/365 490/1764/366 498/1765/374 497/1766/373
f 490/1767/366 491/1768/367 499/1769/375 498/1770/374
f 491/1771/367 492/1772/368 500/1773/376 499/1774/375
f 492/1775/368 485/1776/362 493/1777/370 500/1778/376
f 493/1779/370 494/1780/369 502/1781/377 501/1782/378
f 494/1783/369 495/1784/371 503/1785/379 502/1786/377
f 495/1787/371 496/1788/372 504/1789/380 503/1790/379
f 496/1791/372 497/1792/373 505/1793/381 504/1794/380
f 497/1795/373 498/1796/374 506/1797/382 505/1798/381
f 498/1799/374 499/1800/375 507/1801/383 506/1802/382
f 499/1803/375 500/1804/376 508/1805/384 507/1806/383
f 500/1807/376 493/1808/370 501/1809/378 508/1810/384
f 501/1811/378 502/1812/377 510/1813/385 509/1814/386
f 502/1815/377 503/1816/379 511/1817/387 510/1818/385
f 503/1819/379 504/1820/380 512/1821/388 511/1822/387
f 504/1823/380 505/1824/381 513/1825/389 512/1826/388
f 505/1827/381 506/1828/382 514/1829/390 513/1830/389
f 506/1831/382 507/1832/383 515/1833/391 514/1834/390
f 507/1835/383 508/1836/384 516/1837/392 515/1838/391
f 508/1839/384 501/1840/378 509/1841/386 516/1842/392
f 509/1843/386 510/1844/385 518/1845/393 517/1846/394
f 510/1847/385 511/1848/387 519/1849/395 518/1850/393
f 511/1851/387 512/1852/388 520/1853/396 519/1854/395
f 512/1855/388 513/1856/389 521/1857/397 520/1858/396
f 513/1859/389 514/1860/390 522/1861/398 521/1862/397
f 514/1863/390 515/1864/391 523/1865/399 522/1866/398
f 515/1867/391 516/1868/392 524/1869/400 523/1870/399
f 516/1871/392 509/1872/386 517/1873/394 524/1874/400
f 262/1875/401 261/1876/401 525/1877/401
f 263/1878/401 262/1879/401 525/1880/401
f 264/1881/401 263/1882/401 525/1883/401
f 265/1884/401 264/1885/401 525/1886/401
f 266/1887/401 265/1888/401 525/1889/401
f 267/1890/401 266/1891/401 525/1892/401
f 268/1893/401 267/1894/401 525/1895/401
f 261/1896/401 268/1897/401 525/1898/401
f 526/1899/402 517/1900/402 518/1901/402
f 526/1902/402 518/1903/402 519/1904/402
f 526/1905/402 519/1906/402 520/1907/402
f 526/1908/402 520/1909/402 521/1910/402
f 526/1911/402 521/1912/402 522/1913/402
f 526/1914/402 522/1915/402 523/1916/402
f 526/1917/402 523/1918/402 524/1919/402
f 526/1920/402 524/1921/402 517/1922/402
