# AFL Fuel Dispenser V1 back gasoline nozzle and parked hose, generated by tools/build-fuel-dispenser-v1.mjs
mtllib nozzle_back_gasoline.mtl
o nozzle_gasoline_handle_back
usemtl fuel_dispenser
v 0.80125 0.815501 0.759045
v 0.80125 0.916158 0.729818
v 0.80125 0.929298 0.742048
v 0.80125 0.937602 0.783642
v 0.80125 0.845826 0.807605
v 0.80125 0.828393 0.798723
v 0.7925 0.804388 0.75316
v 0.7925 0.918485 0.72003
v 0.7925 0.937326 0.737567
v 0.7925 0.947799 0.790023
v 0.7925 0.844817 0.816912
v 0.7925 0.821191 0.804873
v 0.7575 0.804388 0.75316
v 0.7575 0.918485 0.72003
v 0.7575 0.937326 0.737567
v 0.7575 0.947799 0.790023
v 0.7575 0.844817 0.816912
v 0.7575 0.821191 0.804873
v 0.74875 0.815501 0.759045
v 0.74875 0.916158 0.729818
v 0.74875 0.929298 0.742048
v 0.74875 0.937602 0.783642
v 0.74875 0.845826 0.807605
v 0.74875 0.828393 0.798723
v 0.80125 0.815501 0.759045
v 0.80125 0.916158 0.729818
v 0.80125 0.929298 0.742048
v 0.80125 0.937602 0.783642
v 0.80125 0.845826 0.807605
v 0.80125 0.828393 0.798723
v 0.74875 0.815501 0.759045
v 0.74875 0.916158 0.729818
v 0.74875 0.929298 0.742048
v 0.74875 0.937602 0.783642
v 0.74875 0.845826 0.807605
v 0.74875 0.828393 0.798723
vt 0.592041 0.131172
vt 0.604491 0.12606
vt 0.604503 0.12757
vt 0.59352 0.13208
vt 0.866455 0.06441
vt 0.868777 0.062646
vt 0.86937 0.063955
vt 0.867751 0.065186
vt 0.653564 0.059448
vt 0.659565 0.058601
vt 0.658835 0.060119
vt 0.654077 0.060791
vt 0.231413 0.120091
vt 0.220103 0.124268
vt 0.219971 0.122822
vt 0.230051 0.1191
vt 0.921138 0.082764
vt 0.918701 0.081008
vt 0.919854 0.08011
vt 0.921652 0.081406
vt 0.835837 0.081384
vt 0.829834 0.082764
vt 0.830517 0.081168
vt 0.835123 0.08011
vt 0.630127 0.100771
vt 0.643586 0.100771
vt 0.643586 0.104736
vt 0.630127 0.104736
vt 0.324033 0.084731
vt 0.324033 0.087646
vt 0.320068 0.087646
vt 0.320068 0.084731
vt 0.761963 0.100771
vt 0.768022 0.100771
vt 0.768022 0.104736
vt 0.761963 0.104736
vt 0.699801 0.104736
vt 0.687744 0.104736
vt 0.687744 0.100771
vt 0.699801 0.100771
vt 0.200928 0.087646
vt 0.200928 0.084643
vt 0.204893 0.084643
vt 0.204893 0.087646
vt 0.736873 0.104736
vt 0.730713 0.104736
vt 0.730713 0.100771
vt 0.736873 0.100771
vt 0.546384 0.13208
vt 0.5354 0.12757
vt 0.535413 0.12606
vt 0.547863 0.131172
vt 0.894118 0.062646
vt 0.895737 0.063876
vt 0.895144 0.065186
vt 0.892822 0.063422
vt 0.622827 0.058601
vt 0.627585 0.059272
vt 0.628315 0.060791
vt 0.622314 0.059944
vt 0.155415 0.1191
vt 0.165495 0.122822
vt 0.165363 0.124268
vt 0.154053 0.120091
vt 0.908936 0.081406
vt 0.910734 0.08011
vt 0.911886 0.081008
vt 0.909449 0.082764
vt 0.858561 0.082764
vt 0.853955 0.081705
vt 0.853271 0.08011
vt 0.859275 0.081489
vt 0.585689 0.160859
vt 0.584229 0.156364
vt 0.595631 0.153053
vt 0.585689 0.160859
vt 0.595631 0.153053
vt 0.59712 0.154439
vt 0.585689 0.160859
vt 0.59712 0.154439
vt 0.59806 0.159151
vt 0.59806 0.159151
vt 0.587664 0.161865
vt 0.585689 0.160859
vt 0.602283 0.153053
vt 0.613685 0.156364
vt 0.612225 0.160859
vt 0.600794 0.154439
vt 0.602283 0.153053
vt 0.612225 0.160859
vt 0.599854 0.159151
vt 0.600794 0.154439
vt 0.612225 0.160859
vt 0.612225 0.160859
vt 0.61025 0.161865
vt 0.599854 0.159151
vn 0.707107 -0.197173 -0.67906
vn 0.707107 0.481753 -0.517605
vn 0.721894 0.64029 -0.262484
vn 0.707107 0.693423 -0.138436
vn 0.707107 0.17864 0.684169
vn 0.721046 0.087246 0.687373
vn 0.730945 -0.57741 0.363755
vn 0.707107 -0.672499 0.218508
vn 0 -0.278845 -0.960336
vn 0 0.681301 -0.732003
vn 0 0.922373 -0.3863
vn 0 0.980648 -0.195778
vn 0 0.252636 0.967561
vn 0 -0.45399 0.891007
vn 0 -0.951057 0.309017
vn -0.707107 -0.197173 -0.67906
vn -0.707107 0.481753 -0.517605
vn -0.721894 0.64029 -0.262484
vn -0.707107 0.693423 -0.138436
vn -0.707107 0.17864 0.684169
vn -0.721046 0.087246 0.687373
vn -0.730945 -0.57741 0.363755
vn -0.707107 -0.672499 0.218508
vn 1 0 0
vn -1 0 0
f 7/1/1 8/2/1 2/3/1 1/4/1
f 8/5/2 9/6/3 3/7/3 2/8/2
f 9/9/3 10/10/4 4/11/4 3/12/3
f 10/13/5 11/14/6 5/15/6 4/16/5
f 11/17/6 12/18/7 6/19/7 5/20/6
f 12/21/7 7/22/8 1/23/8 6/24/7
f 13/25/9 14/26/9 8/27/9 7/28/9
f 14/29/10 15/30/11 9/31/11 8/32/10
f 15/33/11 16/34/12 10/35/12 9/36/11
f 16/37/13 17/38/13 11/39/13 10/40/13
f 17/41/14 18/42/14 12/43/14 11/44/14
f 18/45/15 13/46/15 7/47/15 12/48/15
f 19/49/16 20/50/16 14/51/16 13/52/16
f 20/53/17 21/54/18 15/55/18 14/56/17
f 21/57/18 22/58/19 16/59/19 15/60/18
f 22/61/20 23/62/21 17/63/21 16/64/20
f 23/65/21 24/66/22 18/67/22 17/68/21
f 24/69/22 19/70/23 13/71/23 18/72/22
f 30/73/24 25/74/24 26/75/24
f 30/76/24 26/77/24 27/78/24
f 30/79/24 27/80/24 28/81/24
f 28/82/24 29/83/24 30/84/24
f 32/85/25 31/86/25 36/87/25
f 33/88/25 32/89/25 36/90/25
f 34/91/25 33/92/25 36/93/25
f 36/94/25 35/95/25 34/96/25
o nozzle_gasoline_cover_back
usemtl fuel_dispenser
v 0.8125 0.916221 0.719914
v 0.8125 0.974786 0.702935
v 0.8125 1.003422 0.70814
v 0.8125 1.024996 0.731352
v 0.8125 1.037669 0.760206
v 0.8125 1.034653 0.782929
v 0.8125 1.015818 0.799739
v 0.8125 0.972559 0.80805
v 0.8125 0.941499 0.802533
v 0.79875 0.89899 0.710593
v 0.79875 0.974063 0.688829
v 0.79875 1.010381 0.695429
v 0.79875 1.036651 0.723695
v 0.79875 1.051805 0.7582
v 0.79875 1.047613 0.789792
v 0.79875 1.022141 0.812526
v 0.79875 0.972657 0.822033
v 0.79875 0.930812 0.8146
v 0.75125 0.89899 0.710593
v 0.75125 0.974063 0.688829
v 0.75125 1.010381 0.695429
v 0.75125 1.036651 0.723695
v 0.75125 1.051805 0.7582
v 0.75125 1.047613 0.789792
v 0.75125 1.022141 0.812526
v 0.75125 0.972657 0.822033
v 0.75125 0.930812 0.8146
v 0.7375 0.916221 0.719914
v 0.7375 0.974786 0.702935
v 0.7375 1.003422 0.70814
v 0.7375 1.024996 0.731352
v 0.7375 1.037669 0.760206
v 0.7375 1.034653 0.782929
v 0.7375 1.015818 0.799739
v 0.7375 0.972559 0.80805
v 0.7375 0.941499 0.802533
v 0.8125 0.916221 0.719914
v 0.8125 0.974786 0.702935
v 0.8125 1.003422 0.70814
v 0.8125 1.024996 0.731352
v 0.8125 1.037669 0.760206
v 0.8125 1.034653 0.782929
v 0.8125 1.015818 0.799739
v 0.8125 0.972559 0.80805
v 0.8125 0.941499 0.802533
v 0.7375 0.916221 0.719914
v 0.7375 0.974786 0.702935
v 0.7375 1.003422 0.70814
v 0.7375 1.024996 0.731352
v 0.7375 1.037669 0.760206
v 0.7375 1.034653 0.782929
v 0.7375 1.015818 0.799739
v 0.7375 0.972559 0.80805
v 0.7375 0.941499 0.802533
vt 0.782471 0.122829
vt 0.790663 0.11947
vt 0.79116 0.121647
vt 0.784769 0.124268
vt 0.171824 0.084601
vt 0.175874 0.085642
vt 0.174824 0.087646
vt 0.171631 0.086826
vt 0.092041 0.122669
vt 0.095725 0.120372
vt 0.096665 0.122381
vt 0.09364 0.124268
vt 0.095725 0.120372
vt 0.099753 0.119047
vt 0.100033 0.121274
vt 0.096665 0.122381
vt 0.918701 0.062709
vt 0.922296 0.063046
vt 0.921515 0.065186
vt 0.918929 0.064943
vt 0.567077 0.095016
vt 0.570109 0.097417
vt 0.568404 0.098877
vt 0.566162 0.097101
vt 0.217478 0.091521
vt 0.21197 0.093018
vt 0.21167 0.090816
vt 0.216485 0.089508
vt 0.094269 0.087646
vt 0.0896 0.086473
vt 0.091061 0.084569
vt 0.094526 0.08544
vt 0.054279 0.114338
vt 0.042236 0.116943
vt 0.043316 0.114456
vt 0.052882 0.112386
vt 0.011963 0.118887
vt 0.020818 0.118887
vt 0.020818 0.124268
vt 0.011963 0.124268
vt 0.238047 0.100555
vt 0.238047 0.104736
vt 0.232666 0.104736
vt 0.232666 0.100555
vt 0.24293 0.112572
vt 0.24293 0.116943
vt 0.237549 0.116943
vt 0.237549 0.112572
vt 0.503672 0.112674
vt 0.503672 0.116943
vt 0.498291 0.116943
vt 0.498291 0.112674
vt 0.88502 0.095267
vt 0.88502 0.098877
vt 0.879639 0.098877
vt 0.879639 0.095267
vt 0.551035 0.095009
vt 0.551035 0.098877
vt 0.545654 0.098877
vt 0.545654 0.095009
vt 0.053804 0.124268
vt 0.048096 0.124268
vt 0.048096 0.118887
vt 0.053804 0.118887
vt 0.726807 0.124268
vt 0.726807 0.119453
vt 0.732187 0.119453
vt 0.732187 0.124268
vt 0.967643 0.13208
vt 0.955322 0.13208
vt 0.955322 0.126699
vt 0.967643 0.126699
vt 0.7581 0.124268
vt 0.751709 0.121647
vt 0.752206 0.11947
vt 0.760398 0.122829
vt 0.158296 0.086826
vt 0.155103 0.087646
vt 0.154053 0.085642
vt 0.158103 0.084601
vt 0.103405 0.119047
vt 0.106431 0.120933
vt 0.105491 0.122943
vt 0.101807 0.120646
vt 0.106431 0.120933
vt 0.109799 0.122041
vt 0.109518 0.124268
vt 0.105491 0.122943
vt 0.9243 0.062952
vt 0.926886 0.062709
vt 0.927667 0.064848
vt 0.924072 0.065186
vt 0.601318 0.096792
vt 0.60356 0.095016
vt 0.605265 0.096475
vt 0.602234 0.098877
vt 0.227311 0.089508
vt 0.232126 0.090816
vt 0.231827 0.093018
vt 0.226318 0.091521
vt 0.116943 0.08544
vt 0.120409 0.084569
vt 0.12187 0.086473
vt 0.117201 0.087646
vt 0.066554 0.116943
vt 0.056987 0.114874
vt 0.055908 0.112386
vt 0.067951 0.114992
vt 0.77508 0.245713
vt 0.772217 0.236354
vt 0.778851 0.23443
vt 0.77508 0.245713
vt 0.778851 0.23443
vt 0.782095 0.23502
vt 0.77508 0.245713
vt 0.782095 0.23502
vt 0.784539 0.237649
vt 0.77508 0.245713
vt 0.784539 0.237649
vt 0.785975 0.240918
vt 0.77508 0.245713
vt 0.785975 0.240918
vt 0.785633 0.243492
vt 0.77508 0.245713
vt 0.785633 0.243492
vt 0.783499 0.245396
vt 0.783499 0.245396
vt 0.778599 0.246338
vt 0.77508 0.245713
vt 0.794965 0.23443
vt 0.8016 0.236354
vt 0.798736 0.245713
vt 0.791721 0.23502
vt 0.794965 0.23443
vt 0.798736 0.245713
vt 0.789277 0.237649
vt 0.791721 0.23502
vt 0.798736 0.245713
vt 0.787842 0.240918
vt 0.789277 0.237649
vt 0.798736 0.245713
vt 0.788183 0.243492
vt 0.787842 0.240918
vt 0.798736 0.245713
vt 0.790317 0.245396
vt 0.788183 0.243492
vt 0.798736 0.245713
vt 0.798736 0.245713
vt 0.795218 0.246338
vt 0.790317 0.245396
vn 0.707107 -0.196887 -0.679143
vn 0.715336 -0.093925 -0.69244
vn 0.725382 0.336799 -0.600322
vn 0.712072 0.58627 -0.386317
vn 0.720125 0.683433 -0.119748
vn 0.729458 0.599644 0.329117
vn 0.719289 0.268223 0.640843
vn 0.712934 0.020596 0.700928
vn 0.707107 -0.123669 0.696208
vn 0.707107 -0.676165 0.206882
vn 0 -0.278441 -0.960453
vn 0 -0.134888 -0.990861
vn 0 0.178815 -0.983883
vn 0 0.732486 -0.680782
vn 0 0.834635 -0.550804
vn 0 0.986525 -0.163608
vn 0 0.991308 0.131564
vn 0 0.665875 0.746063
vn 0 0.395127 0.918626
vn 0 0.022701 0.999742
vn 0 -0.174894 0.984587
vn 0 -0.956242 0.292576
vn -0.707107 -0.196887 -0.679143
vn -0.715336 -0.093925 -0.69244
vn -0.725382 0.336799 -0.600322
vn -0.712072 0.58627 -0.386317
vn -0.720125 0.683433 -0.119748
vn -0.729458 0.599644 0.329117
vn -0.719289 0.268223 0.640843
vn -0.712934 0.020596 0.700928
vn -0.707107 -0.123669 0.696208
vn -0.707107 -0.676165 0.206882
vn 1 0 0
vn -1 0 0
f 46/97/26 47/98/27 38/99/27 37/100/26
f 47/101/27 48/102/28 39/103/28 38/104/27
f 48/105/28 49/106/29 40/107/29 39/108/28
f 49/109/29 50/110/30 41/111/30 40/112/29
f 50/113/30 51/114/31 42/115/31 41/116/30
f 51/117/31 52/118/32 43/119/32 42/120/31
f 52/121/32 53/122/33 44/123/33 43/124/32
f 53/125/33 54/126/34 45/127/34 44/128/33
f 54/129/35 46/130/35 37/131/35 45/132/35
f 55/133/36 56/134/37 47/135/37 46/136/36
f 56/137/37 57/138/38 48/139/38 47/140/37
f 57/141/39 58/142/40 49/143/40 48/144/39
f 58/145/40 59/146/41 50/147/41 49/148/40
f 59/149/41 60/150/42 51/151/42 50/152/41
f 60/153/43 61/154/44 52/155/44 51/156/43
f 61/157/44 62/158/45 53/159/45 52/160/44
f 62/161/45 63/162/46 54/163/46 53/164/45
f 63/165/47 55/166/47 46/167/47 54/168/47
f 64/169/48 65/170/49 56/171/49 55/172/48
f 65/173/49 66/174/50 57/175/50 56/176/49
f 66/177/50 67/178/51 58/179/51 57/180/50
f 67/181/51 68/182/52 59/183/52 58/184/51
f 68/185/52 69/186/53 60/187/53 59/188/52
f 69/189/53 70/190/54 61/191/54 60/192/53
f 70/193/54 71/194/55 62/195/55 61/196/54
f 71/197/55 72/198/56 63/199/56 62/200/55
f 72/201/57 64/202/57 55/203/57 63/204/57
f 81/205/58 73/206/58 74/207/58
f 81/208/58 74/209/58 75/210/58
f 81/211/58 75/212/58 76/213/58
f 81/214/58 76/215/58 77/216/58
f 81/217/58 77/218/58 78/219/58
f 81/220/58 78/221/58 79/222/58
f 79/223/58 80/224/58 81/225/58
f 83/226/59 82/227/59 90/228/59
f 84/229/59 83/230/59 90/231/59
f 85/232/59 84/233/59 90/234/59
f 86/235/59 85/236/59 90/237/59
f 87/238/59 86/239/59 90/240/59
f 88/241/59 87/242/59 90/243/59
f 90/244/59 89/245/59 88/246/59
o nozzle_gasoline_guard_back
usemtl fuel_dispenser
v 0.79375 0.829624 0.709473
v 0.79375 0.910105 0.704353
v 0.79375 0.918901 0.717267
v 0.79375 0.831287 0.724705
v 0.75625 0.829624 0.709473
v 0.75625 0.910105 0.704353
v 0.75625 0.918901 0.717267
v 0.75625 0.831287 0.724705
v 0.79375 0.829624 0.709473
v 0.79375 0.910105 0.704353
v 0.79375 0.918901 0.717267
v 0.79375 0.831287 0.724705
v 0.75625 0.829624 0.709473
v 0.75625 0.910105 0.704353
v 0.75625 0.918901 0.717267
v 0.75625 0.831287 0.724705
v 0.7975 0.941403 0.699012
v 0.7975 0.919343 0.650899
v 0.7975 0.851432 0.654964
v 0.7975 0.807505 0.680368
v 0.7975 0.801466 0.742347
v 0.7975 0.795245 0.741741
v 0.7975 0.801596 0.676566
v 0.7975 0.849582 0.648813
v 0.7975 0.92324 0.644404
v 0.7975 0.947085 0.696407
v 0.79375 0.939558 0.703983
v 0.79375 0.917004 0.654795
v 0.79375 0.852541 0.658654
v 0.79375 0.811051 0.68265
v 0.79375 0.804835 0.746443
v 0.79375 0.791149 0.74511
v 0.79375 0.798051 0.674284
v 0.79375 0.848473 0.645123
v 0.79375 0.925579 0.640507
v 0.79375 0.952056 0.698252
v 0.75625 0.939558 0.703983
v 0.75625 0.917004 0.654795
v 0.75625 0.852541 0.658654
v 0.75625 0.811051 0.68265
v 0.75625 0.804835 0.746443
v 0.75625 0.791149 0.74511
v 0.75625 0.798051 0.674284
v 0.75625 0.848473 0.645123
v 0.75625 0.925579 0.640507
v 0.75625 0.952056 0.698252
v 0.7525 0.941403 0.699012
v 0.7525 0.919343 0.650899
v 0.7525 0.851432 0.654964
v 0.7525 0.807505 0.680368
v 0.7525 0.801466 0.742347
v 0.7525 0.795245 0.741741
v 0.7525 0.801596 0.676566
v 0.7525 0.849582 0.648813
v 0.7525 0.92324 0.644404
v 0.7525 0.947085 0.696407
v 0.7975 0.941403 0.699012
v 0.7975 0.919343 0.650899
v 0.7975 0.851432 0.654964
v 0.7975 0.807505 0.680368
v 0.7975 0.801466 0.742347
v 0.7975 0.795245 0.741741
v 0.7975 0.801596 0.676566
v 0.7975 0.849582 0.648813
v 0.7975 0.92324 0.644404
v 0.7975 0.947085 0.696407
v 0.7525 0.941403 0.699012
v 0.7525 0.919343 0.650899
v 0.7525 0.851432 0.654964
v 0.7525 0.807505 0.680368
v 0.7525 0.801466 0.742347
v 0.7525 0.795245 0.741741
v 0.7525 0.801596 0.676566
v 0.7525 0.849582 0.648813
v 0.7525 0.92324 0.644404
v 0.7525 0.947085 0.696407
vt 0.817139 0.106348
vt 0.826274 0.106348
vt 0.826274 0.110596
vt 0.817139 0.110596
vt 0.544531 0.055115
vt 0.544531 0.056885
vt 0.540283 0.056885
vt 0.540283 0.055115
vt 0.782178 0.110596
vt 0.772217 0.110596
vt 0.772217 0.106348
vt 0.782178 0.106348
vt 0.563721 0.056885
vt 0.563721 0.055149
vt 0.567969 0.055149
vt 0.567969 0.056885
vt 0.528753 0.060791
vt 0.528564 0.059066
vt 0.537682 0.058485
vt 0.537682 0.058485
vt 0.538678 0.059948
vt 0.528753 0.060791
vt 0.54128 0.058485
vt 0.550397 0.059066
vt 0.550208 0.060791
vt 0.550208 0.060791
vt 0.540283 0.059948
vt 0.54128 0.058485
vt 0.44892 0.0589
vt 0.443089 0.060791
vt 0.442627 0.060309
vt 0.448331 0.05846
vt 0.818719 0.046502
vt 0.81143 0.047119
vt 0.811279 0.046529
vt 0.818959 0.045879
vt 0.458121 0.101299
vt 0.453918 0.104736
vt 0.453369 0.104409
vt 0.457819 0.10077
vt 0.522476 0.034331
vt 0.529719 0.03483
vt 0.529254 0.0354
vt 0.522217 0.034915
vt 0.347002 0.011963
vt 0.345459 0.01175
vt 0.345962 0.011213
vt 0.346663 0.01131
vt 0.422349 0.0354
vt 0.414307 0.034846
vt 0.414566 0.034262
vt 0.421966 0.034772
vt 0.134521 0.116617
vt 0.139629 0.112439
vt 0.139932 0.112968
vt 0.135071 0.116943
vt 0.545166 0.046529
vt 0.553885 0.045791
vt 0.553646 0.046414
vt 0.545317 0.047119
vt 0.554443 0.087165
vt 0.561289 0.084945
vt 0.56107 0.085648
vt 0.554905 0.087646
vt 0.443934 0.034553
vt 0.442627 0.0354
vt 0.442657 0.034665
vt 0.443251 0.03428
vt 0.082546 0.104736
vt 0.076416 0.104736
vt 0.076416 0.100488
vt 0.082546 0.100488
vt 0.943595 0.110596
vt 0.936279 0.110596
vt 0.936279 0.106348
vt 0.943595 0.106348
vt 0.106689 0.100488
vt 0.112119 0.100488
vt 0.112119 0.104736
vt 0.106689 0.104736
vt 0.971436 0.106348
vt 0.978696 0.106348
vt 0.978696 0.110596
vt 0.971436 0.110596
vt 0.839111 0.056885
vt 0.839111 0.055327
vt 0.843359 0.055327
vt 0.843359 0.056885
vt 0.907231 0.110596
vt 0.89917 0.110596
vt 0.89917 0.106348
vt 0.907231 0.106348
vt 0.050788 0.104736
vt 0.044189 0.104736
vt 0.044189 0.100488
vt 0.050788 0.100488
vt 0.859131 0.106348
vt 0.867881 0.106348
vt 0.867881 0.110596
vt 0.859131 0.110596
vt 0.01001 0.100488
vt 0.017206 0.100488
vt 0.017206 0.104736
vt 0.01001 0.104736
vt 0.849219 0.055327
vt 0.849219 0.056885
vt 0.844971 0.056885
vt 0.844971 0.055327
vt 0.456143 0.060791
vt 0.450439 0.058942
vt 0.450901 0.05846
vt 0.456732 0.060351
vt 0.848389 0.045879
vt 0.856068 0.046529
vt 0.855917 0.047119
vt 0.848628 0.046502
vt 0.428281 0.10077
vt 0.432731 0.104409
vt 0.432181 0.104736
vt 0.427979 0.101299
vt 0.503662 0.034816
vt 0.5107 0.034331
vt 0.511165 0.034901
vt 0.503921 0.0354
vt 0.35947 0.01131
vt 0.360171 0.011213
vt 0.360674 0.01175
vt 0.359131 0.011963
vt 0.373138 0.03489
vt 0.365738 0.0354
vt 0.365479 0.034816
vt 0.373521 0.034262
vt 0.095437 0.116943
vt 0.090576 0.112968
vt 0.090879 0.112439
vt 0.095986 0.116617
vt 0.512719 0.047119
vt 0.50439 0.046414
vt 0.50415 0.045791
vt 0.51287 0.046529
vt 0.519749 0.084945
vt 0.525914 0.086944
vt 0.526133 0.087646
vt 0.519287 0.085427
vt 0.455029 0.03428
vt 0.455623 0.034665
vt 0.455653 0.0354
vt 0.454346 0.034553
vt 0.485706 0.226485
vt 0.485063 0.22678
vt 0.482564 0.22133
vt 0.469895 0.224668
vt 0.469211 0.231689
vt 0.468506 0.231621
vt 0.469895 0.224668
vt 0.468506 0.231621
vt 0.469225 0.224238
vt 0.474871 0.221791
vt 0.469895 0.224668
vt 0.469225 0.224238
vt 0.474871 0.221791
vt 0.469225 0.224238
vt 0.474661 0.221094
vt 0.482564 0.22133
vt 0.474871 0.221791
vt 0.474661 0.221094
vt 0.482564 0.22133
vt 0.474661 0.221094
vt 0.483005 0.220594
vt 0.482564 0.22133
vt 0.483005 0.220594
vt 0.485706 0.226485
vt 0.490691 0.22133
vt 0.488192 0.22678
vt 0.487549 0.226485
vt 0.504749 0.231621
vt 0.504045 0.231689
vt 0.503361 0.224668
vt 0.50403 0.224238
vt 0.504749 0.231621
vt 0.503361 0.224668
vt 0.50403 0.224238
vt 0.503361 0.224668
vt 0.498385 0.221791
vt 0.498594 0.221094
vt 0.50403 0.224238
vt 0.498385 0.221791
vt 0.498594 0.221094
vt 0.498385 0.221791
vt 0.490691 0.22133
vt 0.49025 0.220594
vt 0.498594 0.221094
vt 0.490691 0.22133
vt 0.487549 0.226485
vt 0.49025 0.220594
vt 0.490691 0.22133
vn 0 -0.063499 -0.997982
vn 0 0.826489 -0.562952
vn 0 0.084595 0.996415
vn 0 -0.994091 0.10855
vn 1 0 0
vn -1 0 0
vn 0.707107 -0.64276 0.29472
vn 0.707107 0.042254 0.705843
vn 0.716454 0.177576 0.674655
vn 0.707107 0.354008 0.61211
vn 0.707107 0.703774 0.068576
vn 0.707107 -0.068576 0.703774
vn 0.707107 -0.703774 -0.068576
vn 0.707107 -0.354008 -0.61211
vn 0.71647 -0.178468 -0.674403
vn 0.707107 -0.042254 -0.705843
vn 0.707107 0.64276 -0.29472
vn 0.707107 0.29472 0.64276
vn 0 -0.909 0.416797
vn 0 0.059756 0.998213
vn 0 0.254256 0.967137
vn 0 0.500643 0.865654
vn 0 0.995286 0.096982
vn 0 -0.096982 0.995286
vn 0 -0.995286 -0.096982
vn 0 -0.500643 -0.865654
vn 0 -0.256031 -0.966669
vn 0 -0.059756 -0.998213
vn 0 0.909 -0.416797
vn 0 0.416797 0.909
vn -0.707107 -0.64276 0.29472
vn -0.707107 0.042254 0.705843
vn -0.716454 0.177576 0.674655
vn -0.707107 0.354008 0.61211
vn -0.707107 0.703774 0.068576
vn -0.707107 -0.068576 0.703774
vn -0.707107 -0.703774 -0.068576
vn -0.707107 -0.354008 -0.61211
vn -0.71647 -0.178468 -0.674403
vn -0.707107 -0.042254 -0.705843
vn -0.707107 0.64276 -0.29472
vn -0.707107 0.29472 0.64276
f 95/247/60 96/248/60 92/249/60 91/250/60
f 96/251/61 97/252/61 93/253/61 92/254/61
f 97/255/62 98/256/62 94/257/62 93/258/62
f 98/259/63 95/260/63 91/261/63 94/262/63
f 102/263/64 99/264/64 100/265/64
f 100/266/64 101/267/64 102/268/64
f 104/269/65 103/270/65 106/271/65
f 106/272/65 105/273/65 104/274/65
f 117/275/66 118/276/66 108/277/66 107/278/66
f 118/279/67 119/280/68 109/281/68 108/282/67
f 119/283/68 120/284/69 110/285/69 109/286/68
f 120/287/70 121/288/70 111/289/70 110/290/70
f 121/291/71 122/292/71 112/293/71 111/294/71
f 122/295/72 123/296/72 113/297/72 112/298/72
f 123/299/73 124/300/74 114/301/74 113/302/73
f 124/303/74 125/304/75 115/305/75 114/306/74
f 125/307/76 126/308/76 116/309/76 115/310/76
f 126/311/77 117/312/77 107/313/77 116/314/77
f 127/315/78 128/316/78 118/317/78 117/318/78
f 128/319/79 129/320/80 119/321/80 118/322/79
f 129/323/80 130/324/81 120/325/81 119/326/80
f 130/327/82 131/328/82 121/329/82 120/330/82
f 131/331/83 132/332/83 122/333/83 121/334/83
f 132/335/84 133/336/84 123/337/84 122/338/84
f 133/339/85 134/340/86 124/341/86 123/342/85
f 134/343/86 135/344/87 125/345/87 124/346/86
f 135/347/88 136/348/88 126/349/88 125/350/88
f 136/351/89 127/352/89 117/353/89 126/354/89
f 137/355/90 138/356/90 128/357/90 127/358/90
f 138/359/91 139/360/92 129/361/92 128/362/91
f 139/363/92 140/364/93 130/365/93 129/366/92
f 140/367/94 141/368/94 131/369/94 130/370/94
f 141/371/95 142/372/95 132/373/95 131/374/95
f 142/375/96 143/376/96 133/377/96 132/378/96
f 143/379/97 144/380/98 134/381/98 133/382/97
f 144/383/98 145/384/99 135/385/99 134/386/98
f 145/387/100 146/388/100 136/389/100 135/390/100
f 146/391/101 137/392/101 127/393/101 136/394/101
f 156/395/64 147/396/64 148/397/64
f 150/398/64 151/399/64 152/400/64
f 150/401/64 152/402/64 153/403/64
f 149/404/64 150/405/64 153/406/64
f 149/407/64 153/408/64 154/409/64
f 148/410/64 149/411/64 154/412/64
f 148/413/64 154/414/64 155/415/64
f 148/416/64 155/417/64 156/418/64
f 158/419/65 157/420/65 166/421/65
f 162/422/65 161/423/65 160/424/65
f 163/425/65 162/426/65 160/427/65
f 163/428/65 160/429/65 159/430/65
f 164/431/65 163/432/65 159/433/65
f 164/434/65 159/435/65 158/436/65
f 165/437/65 164/438/65 158/439/65
f 166/440/65 165/441/65 158/442/65
o nozzle_gasoline_steel_back
usemtl fuel_dispenser
v 0.750035 0.773398 0.799359
v 0.759571 0.777454 0.811842
v 0.775 0.779003 0.81661
v 0.790429 0.777454 0.811842
v 0.799965 0.773398 0.799359
v 0.799965 0.768385 0.78393
v 0.790429 0.764329 0.771447
v 0.775 0.76278 0.766679
v 0.759571 0.764329 0.771447
v 0.750035 0.768385 0.78393
v 0.750035 0.832839 0.780046
v 0.759571 0.836895 0.792528
v 0.775 0.838444 0.797296
v 0.790429 0.836895 0.792528
v 0.799965 0.832839 0.780046
v 0.799965 0.827826 0.764616
v 0.790429 0.82377 0.752134
v 0.775 0.822221 0.747366
v 0.759571 0.82377 0.752134
v 0.750035 0.827826 0.764616
v 0.775 0.770891 0.791644
v 0.775 0.830332 0.772331
v 0.787703 1.040424 0.764323
v 0.780262 1.037023 0.757704
v 0.769738 1.037023 0.757704
v 0.762297 1.040424 0.764323
v 0.762297 1.045234 0.773683
v 0.769738 1.048635 0.780302
v 0.780262 1.048635 0.780302
v 0.787703 1.045234 0.773683
v 0.787703 1.073822 0.747162
v 0.780262 1.070282 0.740616
v 0.769738 1.070282 0.740616
v 0.762297 1.073822 0.747162
v 0.762297 1.078829 0.756419
v 0.769738 1.082369 0.762964
v 0.780262 1.082369 0.762964
v 0.787703 1.078829 0.756419
v 0.787703 1.094988 0.734842
v 0.780262 1.090809 0.728685
v 0.769738 1.090809 0.728685
v 0.762297 1.094988 0.734842
v 0.762297 1.100898 0.743549
v 0.769738 1.105078 0.749706
v 0.780262 1.105078 0.749706
v 0.787703 1.100898 0.743549
v 0.787703 1.121044 0.715105
v 0.780262 1.116295 0.709376
v 0.769738 1.116295 0.709376
v 0.762297 1.121044 0.715105
v 0.762297 1.127761 0.723207
v 0.769738 1.13251 0.728936
v 0.780262 1.13251 0.728936
v 0.787703 1.127761 0.723207
v 0.787703 1.139662 0.697812
v 0.780262 1.13436 0.69259
v 0.769738 1.13436 0.69259
v 0.762297 1.139662 0.697812
v 0.762297 1.147158 0.705198
v 0.769738 1.152459 0.71042
v 0.780262 1.152459 0.71042
v 0.787703 1.147158 0.705198
v 0.787703 1.150216 0.685514
v 0.780262 1.144306 0.680992
v 0.769738 1.144306 0.680992
v 0.762297 1.150216 0.685514
v 0.762297 1.158574 0.691909
v 0.769738 1.164483 0.696431
v 0.780262 1.164483 0.696431
v 0.787703 1.158574 0.691909
v 0.787703 1.15908 0.672425
v 0.780262 1.152695 0.668602
v 0.769738 1.152695 0.668602
v 0.762297 1.15908 0.672425
v 0.762297 1.168109 0.677831
v 0.769738 1.174493 0.681654
v 0.780262 1.174493 0.681654
v 0.787703 1.168109 0.677831
v 0.787703 1.166775 0.65784
v 0.780262 1.160051 0.654652
v 0.769738 1.160051 0.654652
v 0.762297 1.166775 0.65784
v 0.762297 1.176284 0.662349
v 0.769738 1.183008 0.665537
v 0.780262 1.183008 0.665537
v 0.787703 1.176284 0.662349
v 0.787703 1.172311 0.644477
v 0.780262 1.165438 0.641626
v 0.769738 1.165438 0.641626
v 0.762297 1.172311 0.644477
v 0.762297 1.182032 0.648509
v 0.769738 1.188906 0.65136
v 0.780262 1.188906 0.65136
v 0.787703 1.182032 0.648509
v 0.775 1.042829 0.769003
v 0.775 1.177172 0.646493
vt 0.294608 0.115238
vt 0.293924 0.116943
vt 0.287354 0.114305
vt 0.288038 0.112599
vt 0.971683 0.134658
vt 0.97295 0.13599
vt 0.967819 0.140869
vt 0.966553 0.139537
vt 0.040821 0.130748
vt 0.039554 0.13208
vt 0.034424 0.127201
vt 0.03569 0.125869
vt 0.296828 0.116943
vt 0.296143 0.115238
vt 0.302713 0.112599
vt 0.303398 0.114305
vt 0.813312 0.104736
vt 0.812744 0.102988
vt 0.819478 0.100801
vt 0.820046 0.102548
vt 0.36714 0.116943
vt 0.366455 0.115238
vt 0.373025 0.112599
vt 0.37371 0.114305
vt 0.015918 0.130748
vt 0.014652 0.13208
vt 0.009521 0.127201
vt 0.010788 0.125869
vt 0.930179 0.134658
vt 0.931446 0.13599
vt 0.926315 0.140869
vt 0.925049 0.139537
vt 0.347343 0.115238
vt 0.346658 0.116943
vt 0.340088 0.114305
vt 0.340773 0.112599
vt 0.828267 0.100801
vt 0.828835 0.102548
vt 0.822101 0.104736
vt 0.821533 0.102988
vt 0.703866 0.131
vt 0.702379 0.13208
vt 0.70146 0.129252
vt 0.704434 0.129252
vt 0.703866 0.131
vt 0.70146 0.129252
vt 0.703866 0.127504
vt 0.704434 0.129252
vt 0.70146 0.129252
vt 0.702379 0.126424
vt 0.703866 0.127504
vt 0.70146 0.129252
vt 0.700541 0.126424
vt 0.702379 0.126424
vt 0.70146 0.129252
vt 0.699054 0.127504
vt 0.700541 0.126424
vt 0.70146 0.129252
vt 0.698486 0.129252
vt 0.699054 0.127504
vt 0.70146 0.129252
vt 0.699054 0.131
vt 0.698486 0.129252
vt 0.70146 0.129252
vt 0.700541 0.13208
vt 0.699054 0.131
vt 0.70146 0.129252
vt 0.702379 0.13208
vt 0.700541 0.13208
vt 0.70146 0.129252
vt 0.709272 0.129252
vt 0.710191 0.126424
vt 0.711678 0.127504
vt 0.709272 0.129252
vt 0.711678 0.127504
vt 0.712246 0.129252
vt 0.709272 0.129252
vt 0.712246 0.129252
vt 0.711678 0.131
vt 0.709272 0.129252
vt 0.711678 0.131
vt 0.710191 0.13208
vt 0.709272 0.129252
vt 0.710191 0.13208
vt 0.708354 0.13208
vt 0.709272 0.129252
vt 0.708354 0.13208
vt 0.706867 0.131
vt 0.709272 0.129252
vt 0.706867 0.131
vt 0.706299 0.129252
vt 0.709272 0.129252
vt 0.706299 0.129252
vt 0.706867 0.127504
vt 0.709272 0.129252
vt 0.706867 0.127504
vt 0.708354 0.126424
vt 0.709272 0.129252
vt 0.708354 0.126424
vt 0.710191 0.126424
vt 0.31167 0.230925
vt 0.310756 0.231689
vt 0.308065 0.228461
vt 0.308968 0.227683
vt 0.219564 0.034208
vt 0.219564 0.0354
vt 0.215362 0.0354
vt 0.215362 0.034208
vt 0.350307 0.220266
vt 0.351221 0.221031
vt 0.348519 0.224273
vt 0.347616 0.223495
vt 0.573415 0.293129
vt 0.57287 0.294189
vt 0.569064 0.292234
vt 0.569631 0.291185
vt 0.650296 0.234327
vt 0.651211 0.235092
vt 0.648481 0.238367
vt 0.647578 0.237588
vt 0.174089 0.034208
vt 0.174089 0.0354
vt 0.169826 0.0354
vt 0.169826 0.034208
vt 0.679531 0.245573
vt 0.678617 0.246338
vt 0.675898 0.243077
vt 0.676801 0.242299
vt 0.505184 0.294189
vt 0.504639 0.293129
vt 0.508422 0.291185
vt 0.508989 0.292234
vt 0.308968 0.227683
vt 0.308065 0.228461
vt 0.306274 0.226468
vt 0.30712 0.225628
vt 0.215362 0.034208
vt 0.215362 0.0354
vt 0.212679 0.0354
vt 0.212679 0.034208
vt 0.347616 0.223495
vt 0.348519 0.224273
vt 0.346671 0.226328
vt 0.345825 0.225488
vt 0.569631 0.291185
vt 0.569064 0.292234
vt 0.566564 0.290776
vt 0.567234 0.28979
vt 0.647578 0.237588
vt 0.648481 0.238367
vt 0.646494 0.240571
vt 0.645649 0.239731
vt 0.169826 0.034208
vt 0.169826 0.0354
vt 0.166855 0.0354
vt 0.166855 0.034208
vt 0.676801 0.242299
vt 0.675898 0.243077
vt 0.673969 0.240934
vt 0.674815 0.240094
vt 0.508989 0.292234
vt 0.508422 0.291185
vt 0.51082 0.28979
vt 0.511489 0.290776
vt 0.30712 0.225628
vt 0.306274 0.226468
vt 0.303629 0.223994
vt 0.304416 0.223098
vt 0.212679 0.034208
vt 0.212679 0.0354
vt 0.209061 0.0354
vt 0.209061 0.034208
vt 0.345825 0.225488
vt 0.346671 0.226328
vt 0.343966 0.228858
vt 0.34318 0.227962
vt 0.567234 0.28979
vt 0.566564 0.290776
vt 0.563521 0.288471
vt 0.564282 0.287554
vt 0.645649 0.239731
vt 0.646494 0.240571
vt 0.643648 0.243234
vt 0.642861 0.242339
vt 0.166855 0.034208
vt 0.166855 0.0354
vt 0.162962 0.0354
vt 0.162962 0.034208
vt 0.674815 0.240094
vt 0.673969 0.240934
vt 0.671181 0.238327
vt 0.671968 0.237431
vt 0.511489 0.290776
vt 0.51082 0.28979
vt 0.513771 0.287554
vt 0.514532 0.288471
vt 0.304416 0.223098
vt 0.303629 0.223994
vt 0.301463 0.22224
vt 0.302184 0.221291
vt 0.209061 0.034208
vt 0.209061 0.0354
vt 0.206299 0.0354
vt 0.206299 0.034208
vt 0.34318 0.227962
vt 0.343966 0.228858
vt 0.341735 0.230665
vt 0.341013 0.229716
vt 0.564282 0.287554
vt 0.563521 0.288471
vt 0.561324 0.286431
vt 0.562173 0.285595
vt 0.642861 0.242339
vt 0.643648 0.243234
vt 0.641258 0.245171
vt 0.640537 0.244222
vt 0.162962 0.034208
vt 0.162962 0.0354
vt 0.159912 0.0354
vt 0.159912 0.034208
vt 0.671968 0.237431
vt 0.671181 0.238327
vt 0.668857 0.236443
vt 0.669578 0.235494
vt 0.514532 0.288471
vt 0.513771 0.287554
vt 0.51588 0.285595
vt 0.51673 0.286431
vt 0.302184 0.221291
vt 0.301463 0.22224
vt 0.300049 0.221275
vt 0.300685 0.220266
vt 0.298998 0.034208
vt 0.298998 0.0354
vt 0.297291 0.0354
vt 0.297291 0.034208
vt 0.341013 0.229716
vt 0.341735 0.230665
vt 0.340235 0.231689
vt 0.3396 0.230681
vt 0.562173 0.285595
vt 0.561324 0.286431
vt 0.56003 0.284926
vt 0.560977 0.284202
vt 0.640537 0.244222
vt 0.641258 0.245171
vt 0.639552 0.246338
vt 0.638916 0.24533
vt 0.263965 0.034208
vt 0.263965 0.0354
vt 0.261903 0.0354
vt 0.261903 0.034208
vt 0.669578 0.235494
vt 0.668857 0.236443
vt 0.667236 0.235335
vt 0.667872 0.234327
vt 0.51673 0.286431
vt 0.51588 0.285595
vt 0.517076 0.284202
vt 0.518023 0.284926
vt 0.267729 0.086587
vt 0.267183 0.087646
vt 0.26565 0.086933
vt 0.26611 0.085833
vt 0.297291 0.034208
vt 0.297291 0.0354
vt 0.295598 0.0354
vt 0.295598 0.034208
vt 0.294526 0.084708
vt 0.295073 0.085767
vt 0.293454 0.086521
vt 0.292994 0.085421
vt 0.560977 0.284202
vt 0.56003 0.284926
vt 0.55895 0.283331
vt 0.559973 0.282719
vt 0.006441 0.08451
vt 0.006988 0.085569
vt 0.00516 0.086421
vt 0.0047 0.085321
vt 0.261903 0.034208
vt 0.261903 0.0354
vt 0.259884 0.0354
vt 0.259884 0.034208
vt 0.050933 0.086587
vt 0.050386 0.087646
vt 0.048645 0.086835
vt 0.049105 0.085736
vt 0.518023 0.284926
vt 0.517076 0.284202
vt 0.51808 0.282719
vt 0.519103 0.283331
vt 0.26611 0.085833
vt 0.26565 0.086933
vt 0.263977 0.086307
vt 0.264361 0.085179
vt 0.295598 0.034208
vt 0.295598 0.0354
vt 0.293814 0.0354
vt 0.293814 0.034208
vt 0.292994 0.085421
vt 0.293454 0.086521
vt 0.291704 0.087176
vt 0.291321 0.086047
vt 0.559973 0.282719
vt 0.55895 0.283331
vt 0.558024 0.281577
vt 0.559101 0.281067
vt 0.0047 0.085321
vt 0.00516 0.086421
vt 0.003226 0.087145
vt 0.002842 0.086016
vt 0.259884 0.034208
vt 0.259884 0.0354
vt 0.257823 0.0354
vt 0.257823 0.034208
vt 0.049105 0.085736
vt 0.048645 0.086835
vt 0.046787 0.08614
vt 0.047171 0.085011
vt 0.519103 0.283331
vt 0.51808 0.282719
vt 0.518952 0.281067
vt 0.520029 0.281577
vt 0.264361 0.085179
vt 0.263977 0.086307
vt 0.262451 0.085849
vt 0.262795 0.084708
vt 0.293814 0.034208
vt 0.293814 0.0354
vt 0.292236 0.0354
vt 0.292236 0.034208
vt 0.291321 0.086047
vt 0.291704 0.087176
vt 0.290139 0.087646
vt 0.289795 0.086505
vt 0.559101 0.281067
vt 0.558024 0.281577
vt 0.557373 0.28001
vt 0.558474 0.279553
vt 0.002842 0.086016
vt 0.003226 0.087145
vt 0.001565 0.087646
vt 0.001221 0.086505
vt 0.257823 0.034208
vt 0.257823 0.0354
vt 0.256104 0.0354
vt 0.256104 0.034208
vt 0.047171 0.085011
vt 0.046787 0.08614
vt 0.045166 0.085651
vt 0.04551 0.08451
vt 0.520029 0.281577
vt 0.518952 0.281067
vt 0.519579 0.279553
vt 0.52068 0.28001
vt 0.376303 0.084768
vt 0.377146 0.085611
vt 0.375707 0.086207
vt 0.375111 0.084768
vt 0.376303 0.084768
vt 0.375707 0.086207
vt 0.374268 0.085611
vt 0.375111 0.084768
vt 0.375707 0.086207
vt 0.374268 0.086804
vt 0.374268 0.085611
vt 0.375707 0.086207
vt 0.375111 0.087646
vt 0.374268 0.086804
vt 0.375707 0.086207
vt 0.376303 0.087646
vt 0.375111 0.087646
vt 0.375707 0.086207
vt 0.377146 0.086804
vt 0.376303 0.087646
vt 0.375707 0.086207
vt 0.377146 0.085611
vt 0.377146 0.086804
vt 0.375707 0.086207
vt 0.410863 0.086207
vt 0.409424 0.085611
vt 0.410267 0.084768
vt 0.410863 0.086207
vt 0.410267 0.084768
vt 0.411459 0.084768
vt 0.410863 0.086207
vt 0.411459 0.084768
vt 0.412302 0.085611
vt 0.410863 0.086207
vt 0.412302 0.085611
vt 0.412302 0.086804
vt 0.410863 0.086207
vt 0.412302 0.086804
vt 0.411459 0.087646
vt 0.410863 0.086207
vt 0.411459 0.087646
vt 0.410267 0.087646
vt 0.410863 0.086207
vt 0.410267 0.087646
vt 0.409424 0.086804
vt 0.410863 0.086207
vt 0.409424 0.086804
vt 0.409424 0.085611
vn -0.809017 0.181636 0.559017
vn -0.587785 0.25 0.769421
vn 0 0.309017 0.951057
vn 0.587785 0.25 0.769421
vn 0.951057 0.095492 0.293893
vn 0.951057 -0.095492 -0.293893
vn 0.587785 -0.25 -0.769421
vn 0 -0.309017 -0.951057
vn -0.587785 -0.25 -0.769421
vn -0.809017 -0.181636 -0.559017
vn 1 0 0
vn 0 -0.951057 0.309017
vn 0 0.951057 -0.309017
vn 0.924264 -0.174464 -0.339557
vn 0.383048 -0.422139 -0.821628
vn 0.383991 -0.438529 -0.812553
vn 0.925225 -0.180259 -0.333864
vn -0.383048 -0.422139 -0.821628
vn -0.383991 -0.438529 -0.812553
vn -0.924264 -0.174464 -0.339557
vn -0.925225 -0.180259 -0.333864
vn -0.923466 0.17538 0.34125
vn -0.922463 0.183897 0.339475
vn -0.382251 0.422399 0.821866
vn -0.381233 0.440472 0.812801
vn 0.382251 0.422399 0.821866
vn 0.381233 0.440472 0.812801
vn 0.923466 0.17538 0.34125
vn 0.922463 0.183897 0.339475
vn 0.385348 -0.518329 -0.763441
vn 0.926368 -0.211545 -0.311595
vn -0.385348 -0.518329 -0.763441
vn -0.926368 -0.211545 -0.311595
vn -0.921565 0.218016 0.321226
vn -0.380526 0.519314 0.765188
vn 0.380526 0.519314 0.765188
vn 0.921565 0.218016 0.321226
vn 0.385144 -0.5889 -0.710536
vn 0.926265 -0.240498 -0.290161
vn -0.385144 -0.5889 -0.710536
vn -0.926265 -0.240498 -0.290161
vn -0.921535 0.247831 0.298919
vn -0.380407 0.590282 0.71194
vn 0.380407 0.590282 0.71194
vn 0.921535 0.247831 0.298919
vn 0.386644 -0.656483 -0.647716
vn 0.927667 -0.265848 -0.262217
vn -0.386644 -0.656483 -0.647716
vn -0.927667 -0.265848 -0.262217
vn -0.920172 0.279053 0.274615
vn -0.379126 0.659622 0.64897
vn 0.379126 0.659622 0.64897
vn 0.920172 0.279053 0.274615
vn 0.388147 -0.732171 -0.559704
vn 0.929038 -0.293915 -0.224728
vn -0.388147 -0.732171 -0.559704
vn -0.929038 -0.293915 -0.224728
vn -0.918841 0.313319 0.239921
vn -0.377898 0.735044 0.562942
vn 0.377898 0.735044 0.562942
vn 0.918841 0.313319 0.239921
vn 0.387525 -0.791218 -0.473072
vn 0.928439 -0.318816 -0.190678
vn -0.387525 -0.791218 -0.473072
vn -0.928439 -0.318816 -0.190678
vn -0.919475 0.337213 0.20212
vn -0.378516 0.793858 0.475937
vn 0.378516 0.793858 0.475937
vn 0.919475 0.337213 0.20212
vn 0.386186 -0.833979 -0.394131
vn 0.927216 -0.338576 -0.160116
vn -0.386186 -0.833979 -0.394131
vn -0.927216 -0.338576 -0.160116
vn -0.92065 0.352587 0.167588
vn -0.379599 0.835482 0.397334
vn 0.379599 0.835482 0.397334
vn 0.92065 0.352587 0.167588
vn 0.384961 -0.852848 -0.352783
vn 0.926211 -0.348348 -0.144174
vn -0.384961 -0.852848 -0.352783
vn -0.926211 -0.348348 -0.144174
vn -0.921417 0.358815 0.149137
vn -0.380177 0.854017 0.355134
vn 0.380177 0.854017 0.355134
vn 0.921417 0.358815 0.149137
vn 0 -0.889439 0.457054
vn 0 0.383135 -0.923692
f 167/443/102 168/444/103 178/445/103 177/446/102
f 168/447/103 169/448/104 179/449/104 178/450/103
f 169/451/104 170/452/105 180/453/105 179/454/104
f 170/455/105 171/456/106 181/457/106 180/458/105
f 171/459/106 172/460/107 182/461/107 181/462/106
f 172/463/107 173/464/108 183/465/108 182/466/107
f 173/467/108 174/468/109 184/469/109 183/470/108
f 174/471/109 175/472/110 185/473/110 184/474/109
f 175/475/110 176/476/111 186/477/111 185/478/110
f 186/479/112 177/480/112 167/481/112 176/482/112
f 168/483/113 167/484/113 187/485/113
f 169/486/113 168/487/113 187/488/113
f 170/489/113 169/490/113 187/491/113
f 171/492/113 170/493/113 187/494/113
f 172/495/113 171/496/113 187/497/113
f 173/498/113 172/499/113 187/500/113
f 174/501/113 173/502/113 187/503/113
f 175/504/113 174/505/113 187/506/113
f 176/507/113 175/508/113 187/509/113
f 167/510/113 176/511/113 187/512/113
f 188/513/114 177/514/114 178/515/114
f 188/516/114 178/517/114 179/518/114
f 188/519/114 179/520/114 180/521/114
f 188/522/114 180/523/114 181/524/114
f 188/525/114 181/526/114 182/527/114
f 188/528/114 182/529/114 183/530/114
f 188/531/114 183/532/114 184/533/114
f 188/534/114 184/535/114 185/536/114
f 188/537/114 185/538/114 186/539/114
f 188/540/114 186/541/114 177/542/114
f 189/543/115 190/544/116 198/545/117 197/546/118
f 190/547/116 191/548/119 199/549/120 198/550/117
f 191/551/119 192/552/121 200/553/122 199/554/120
f 192/555/121 193/556/123 201/557/124 200/558/122
f 193/559/123 194/560/125 202/561/126 201/562/124
f 194/563/125 195/564/127 203/565/128 202/566/126
f 195/567/127 196/568/129 204/569/130 203/570/128
f 196/571/129 189/572/115 197/573/118 204/574/130
f 197/575/118 198/576/117 206/577/131 205/578/132
f 198/579/117 199/580/120 207/581/133 206/582/131
f 199/583/120 200/584/122 208/585/134 207/586/133
f 200/587/122 201/588/124 209/589/135 208/590/134
f 201/591/124 202/592/126 210/593/136 209/594/135
f 202/595/126 203/596/128 211/597/137 210/598/136
f 203/599/128 204/600/130 212/601/138 211/602/137
f 204/603/130 197/604/118 205/605/132 212/606/138
f 205/607/132 206/608/131 214/609/139 213/610/140
f 206/611/131 207/612/133 215/613/141 214/614/139
f 207/615/133 208/616/134 216/617/142 215/618/141
f 208/619/134 209/620/135 217/621/143 216/622/142
f 209/623/135 210/624/136 218/625/144 217/626/143
f 210/627/136 211/628/137 219/629/145 218/630/144
f 211/631/137 212/632/138 220/633/146 219/634/145
f 212/635/138 205/636/132 213/637/140 220/638/146
f 213/639/140 214/640/139 222/641/147 221/642/148
f 214/643/139 215/644/141 223/645/149 222/646/147
f 215/647/141 216/648/142 224/649/150 223/650/149
f 216/651/142 217/652/143 225/653/151 224/654/150
f 217/655/143 218/656/144 226/657/152 225/658/151
f 218/659/144 219/660/145 227/661/153 226/662/152
f 219/663/145 220/664/146 228/665/154 227/666/153
f 220/667/146 213/668/140 221/669/148 228/670/154
f 221/671/148 222/672/147 230/673/155 229/674/156
f 222/675/147 223/676/149 231/677/157 230/678/155
f 223/679/149 224/680/150 232/681/158 231/682/157
f 224/683/150 225/684/151 233/685/159 232/686/158
f 225/687/151 226/688/152 234/689/160 233/690/159
f 226/691/152 227/692/153 235/693/161 234/694/160
f 227/695/153 228/696/154 236/697/162 235/698/161
f 228/699/154 221/700/148 229/701/156 236/702/162
f 229/703/156 230/704/155 238/705/163 237/706/164
f 230/707/155 231/708/157 239/709/165 238/710/163
f 231/711/157 232/712/158 240/713/166 239/714/165
f 232/715/158 233/716/159 241/717/167 240/718/166
f 233/719/159 234/720/160 242/721/168 241/722/167
f 234/723/160 235/724/161 243/725/169 242/726/168
f 235/727/161 236/728/162 244/729/170 243/730/169
f 236/731/162 229/732/156 237/733/164 244/734/170
f 237/735/164 238/736/163 246/737/171 245/738/172
f 238/739/163 239/740/165 247/741/173 246/742/171
f 239/743/165 240/744/166 248/745/174 247/746/173
f 240/747/166 241/748/167 249/749/175 248/750/174
f 241/751/167 242/752/168 250/753/176 249/754/175
f 242/755/168 243/756/169 251/757/177 250/758/176
f 243/759/169 244/760/170 252/761/178 251/762/177
f 244/763/170 237/764/164 245/765/172 252/766/178
f 245/767/172 246/768/171 254/769/179 253/770/180
f 246/771/171 247/772/173 255/773/181 254/774/179
f 247/775/173 248/776/174 256/777/182 255/778/181
f 248/779/174 249/780/175 257/781/183 256/782/182
f 249/783/175 250/784/176 258/785/184 257/786/183
f 250/787/176 251/788/177 259/789/185 258/790/184
f 251/791/177 252/792/178 260/793/186 259/794/185
f 252/795/178 245/796/172 253/797/180 260/798/186
f 190/799/187 189/800/187 261/801/187
f 191/802/187 190/803/187 261/804/187
f 192/805/187 191/806/187 261/807/187
f 193/808/187 192/809/187 261/810/187
f 194/811/187 193/812/187 261/813/187
f 195/814/187 194/815/187 261/816/187
f 196/817/187 195/818/187 261/819/187
f 189/820/187 196/821/187 261/822/187
f 262/823/188 253/824/188 254/825/188
f 262/826/188 254/827/188 255/828/188
f 262/829/188 255/830/188 256/831/188
f 262/832/188 256/833/188 257/834/188
f 262/835/188 257/836/188 258/837/188
f 262/838/188 258/839/188 259/840/188
f 262/841/188 259/842/188 260/843/188
f 262/844/188 260/845/188 253/846/188
o nozzle_gasoline_collar_back
usemtl fuel_dispenser
v 0.755979 1.038795 0.776812
v 0.763244 1.041885 0.786323
v 0.775 1.043065 0.789955
v 0.786756 1.041885 0.786323
v 0.794021 1.038795 0.776812
v 0.794021 1.034975 0.765056
v 0.786756 1.031885 0.755546
v 0.775 1.030705 0.751913
v 0.763244 1.031885 0.755546
v 0.755979 1.034975 0.765056
v 0.755979 1.068515 0.767155
v 0.763244 1.071606 0.776666
v 0.775 1.072786 0.780299
v 0.786756 1.071606 0.776666
v 0.794021 1.068515 0.767155
v 0.794021 1.064696 0.7554
v 0.786756 1.061606 0.745889
v 0.775 1.060425 0.742256
v 0.763244 1.061606 0.745889
v 0.755979 1.064696 0.7554
v 0.775 1.036885 0.770934
v 0.775 1.066606 0.761277
vt 0.963035 0.081464
vt 0.962514 0.082764
vt 0.959229 0.081444
vt 0.95975 0.080145
vt 0.332887 0.089563
vt 0.333852 0.090578
vt 0.331287 0.093018
vt 0.330322 0.092003
vt 0.339224 0.092003
vt 0.338259 0.093018
vt 0.335693 0.090578
vt 0.336658 0.089563
vt 0.023227 0.078369
vt 0.022705 0.07707
vt 0.02599 0.07575
vt 0.026512 0.07705
vt 0.023138 0.060791
vt 0.022705 0.059459
vt 0.026072 0.058365
vt 0.026505 0.059697
vt 0.949008 0.082764
vt 0.948486 0.081464
vt 0.951771 0.080145
vt 0.952293 0.081444
vt 0.296255 0.092003
vt 0.29529 0.093018
vt 0.292725 0.090578
vt 0.29369 0.089563
vt 0.34363 0.089563
vt 0.344595 0.090578
vt 0.342029 0.093018
vt 0.341064 0.092003
vt 0.98452 0.081464
vt 0.983998 0.082764
vt 0.980713 0.081444
vt 0.981235 0.080145
vt 0.031443 0.058365
vt 0.031876 0.059697
vt 0.028509 0.060791
vt 0.028076 0.059459
vt 0.422311 0.11612
vt 0.421179 0.116943
vt 0.420479 0.114789
vt 0.422744 0.114789
vt 0.422311 0.11612
vt 0.420479 0.114789
vt 0.422311 0.113457
vt 0.422744 0.114789
vt 0.420479 0.114789
vt 0.421179 0.112634
vt 0.422311 0.113457
vt 0.420479 0.114789
vt 0.419778 0.112634
vt 0.421179 0.112634
vt 0.420479 0.114789
vt 0.418646 0.113457
vt 0.419778 0.112634
vt 0.420479 0.114789
vt 0.418213 0.114789
vt 0.418646 0.113457
vt 0.420479 0.114789
vt 0.418646 0.11612
vt 0.418213 0.114789
vt 0.420479 0.114789
vt 0.419778 0.116943
vt 0.418646 0.11612
vt 0.420479 0.114789
vt 0.421179 0.116943
vt 0.419778 0.116943
vt 0.420479 0.114789
vt 0.426826 0.114789
vt 0.427526 0.112634
vt 0.428659 0.113457
vt 0.426826 0.114789
vt 0.428659 0.113457
vt 0.429092 0.114789
vt 0.426826 0.114789
vt 0.429092 0.114789
vt 0.428659 0.11612
vt 0.426826 0.114789
vt 0.428659 0.11612
vt 0.427526 0.116943
vt 0.426826 0.114789
vt 0.427526 0.116943
vt 0.426126 0.116943
vt 0.426826 0.114789
vt 0.426126 0.116943
vt 0.424993 0.11612
vt 0.426826 0.114789
vt 0.424993 0.11612
vt 0.424561 0.114789
vt 0.426826 0.114789
vt 0.424561 0.114789
vt 0.424993 0.113457
vt 0.426826 0.114789
vt 0.424993 0.113457
vt 0.426126 0.112634
vt 0.426826 0.114789
vt 0.426126 0.112634
vt 0.427526 0.112634
vn -0.809017 0.181636 0.559017
vn -0.309017 0.293893 0.904508
vn 0 0.309017 0.951057
vn 0.309017 0.293893 0.904508
vn 0.809017 0.181636 0.559017
vn 0.951057 0.095492 0.293893
vn 0.951057 -0.095492 -0.293893
vn 0.587785 -0.25 -0.769421
vn 0.309017 -0.293893 -0.904508
vn -0.309017 -0.293893 -0.904508
vn -0.587785 -0.25 -0.769421
vn -0.809017 -0.181636 -0.559017
vn 1 0 0
vn 0 -0.951057 0.309017
vn 0 0.951057 -0.309017
f 263/847/189 264/848/189 274/849/189 273/850/189
f 264/851/190 265/852/191 275/853/191 274/854/190
f 265/855/191 266/856/192 276/857/192 275/858/191
f 266/859/193 267/860/194 277/861/194 276/862/193
f 267/863/194 268/864/195 278/865/195 277/866/194
f 268/867/195 269/868/196 279/869/196 278/870/195
f 269/871/196 270/872/197 280/873/197 279/874/196
f 270/875/198 271/876/199 281/877/199 280/878/198
f 271/879/199 272/880/200 282/881/200 281/882/199
f 282/883/201 273/884/201 263/885/201 272/886/201
f 264/887/202 263/888/202 283/889/202
f 265/890/202 264/891/202 283/892/202
f 266/893/202 265/894/202 283/895/202
f 267/896/202 266/897/202 283/898/202
f 268/899/202 267/900/202 283/901/202
f 269/902/202 268/903/202 283/904/202
f 270/905/202 269/906/202 283/907/202
f 271/908/202 270/909/202 283/910/202
f 272/911/202 271/912/202 283/913/202
f 263/914/202 272/915/202 283/916/202
f 284/917/203 273/918/203 274/919/203
f 284/920/203 274/921/203 275/922/203
f 284/923/203 275/924/203 276/925/203
f 284/926/203 276/927/203 277/928/203
f 284/929/203 277/930/203 278/931/203
f 284/932/203 278/933/203 279/934/203
f 284/935/203 279/936/203 280/937/203
f 284/938/203 280/939/203 281/940/203
f 284/941/203 281/942/203 282/943/203
f 284/944/203 282/945/203 273/946/203
o hose_gasoline_back
usemtl fuel_dispenser
v 0.341295 2.465297 0.76325
v 0.355501 2.465352 0.777457
v 0.355501 2.465566 0.797547
v 0.341295 2.465816 0.811751
v 0.321205 2.465953 0.81175
v 0.306999 2.465898 0.797543
v 0.306999 2.465684 0.777453
v 0.321205 2.465434 0.763249
v 0.340422 2.337806 0.764614
v 0.354627 2.33779 0.778821
v 0.354627 2.338056 0.79891
v 0.340423 2.338448 0.813113
v 0.320334 2.338736 0.81311
v 0.306129 2.338752 0.798903
v 0.306128 2.338486 0.778813
v 0.320333 2.338094 0.764611
v 0.337532 2.202993 0.766718
v 0.351733 2.202791 0.780929
v 0.351735 2.203108 0.801017
v 0.337536 2.203756 0.815216
v 0.317454 2.204357 0.815208
v 0.303253 2.204559 0.800998
v 0.303251 2.204243 0.78091
v 0.31745 2.203594 0.766711
v 0.332354 2.068316 0.768856
v 0.34655 2.067955 0.783069
v 0.346552 2.068282 0.803157
v 0.332359 2.069105 0.817354
v 0.312286 2.069942 0.817342
v 0.29809 2.070303 0.803129
v 0.298088 2.069976 0.783041
v 0.312281 2.069153 0.768845
v 0.326661 1.942369 0.770958
v 0.340855 1.941966 0.785172
v 0.340858 1.942317 0.805259
v 0.326668 1.943217 0.819454
v 0.306599 1.944138 0.819441
v 0.292405 1.944541 0.805228
v 0.292402 1.94419 0.78514
v 0.306591 1.94329 0.770945
v 0.320462 1.809277 0.773386
v 0.334657 1.808906 0.787598
v 0.334662 1.809297 0.807685
v 0.320474 1.810219 0.82188
v 0.300404 1.811133 0.821867
v 0.286209 1.811503 0.807654
v 0.286204 1.811113 0.787567
v 0.300392 1.810191 0.773373
v 0.314508 1.675575 0.776146
v 0.328707 1.675299 0.790357
v 0.328715 1.675749 0.810443
v 0.314526 1.67666 0.824638
v 0.294453 1.6775 0.824626
v 0.280253 1.677775 0.810415
v 0.280246 1.677326 0.79033
v 0.294435 1.676414 0.776135
v 0.309522 1.547726 0.779246
v 0.323724 1.547498 0.793456
v 0.323734 1.548012 0.81354
v 0.309547 1.548966 0.827734
v 0.289473 1.549802 0.827723
v 0.275272 1.550029 0.813513
v 0.275262 1.549515 0.793429
v 0.289449 1.548561 0.779235
v 0.303937 1.421704 0.782645
v 0.318136 1.421435 0.796856
v 0.318149 1.421996 0.816939
v 0.303967 1.42306 0.83113
v 0.283898 1.424003 0.831116
v 0.269698 1.424272 0.816905
v 0.269686 1.42371 0.796822
v 0.283868 1.422647 0.782631
v 0.297591 1.293796 0.786354
v 0.311793 1.293569 0.800563
v 0.311807 1.29418 0.820645
v 0.297626 1.295271 0.834835
v 0.277557 1.296202 0.834821
v 0.263356 1.296429 0.820612
v 0.263341 1.295818 0.80053
v 0.277522 1.294727 0.78634
v 0.292117 1.167122 0.7904
v 0.306329 1.167145 0.804602
v 0.306346 1.167831 0.824681
v 0.29216 1.16878 0.838875
v 0.27208 1.169435 0.838871
v 0.257868 1.169412 0.824669
v 0.257851 1.168726 0.80459
v 0.272037 1.167777 0.790395
v 0.289036 1.031561 0.795327
v 0.303256 1.032076 0.809511
v 0.303276 1.03287 0.829586
v 0.289083 1.033478 0.843793
v 0.268993 1.033544 0.84381
v 0.254773 1.033029 0.829627
v 0.254753 1.032235 0.809552
v 0.268946 1.031627 0.795344
v 0.291269 0.905479 0.800749
v 0.30548 0.906593 0.814907
v 0.305497 0.907506 0.834977
v 0.291311 0.907684 0.849203
v 0.271231 0.907021 0.849251
v 0.25702 0.905907 0.835093
v 0.257003 0.904994 0.815023
v 0.271189 0.904816 0.800797
v 0.297525 0.77497 0.806996
v 0.311708 0.776651 0.821127
v 0.31172 0.777685 0.841191
v 0.297554 0.777467 0.855436
v 0.277508 0.776125 0.855517
v 0.263325 0.774445 0.841386
v 0.263313 0.773411 0.821322
v 0.27748 0.773628 0.807077
v 0.308811 0.644067 0.81421
v 0.32286 0.647012 0.828266
v 0.322843 0.648321 0.848314
v 0.308769 0.647228 0.86261
v 0.288883 0.644373 0.862779
v 0.274833 0.641427 0.848723
v 0.274851 0.640118 0.828675
v 0.288924 0.641211 0.814379
v 0.334057 0.521254 0.823591
v 0.347516 0.526818 0.83743
v 0.34735 0.52879 0.857423
v 0.333655 0.526015 0.871859
v 0.314453 0.520118 0.87228
v 0.300994 0.514554 0.858441
v 0.30116 0.512582 0.838448
v 0.314855 0.515357 0.824013
v 0.383366 0.403066 0.838604
v 0.395866 0.411057 0.852152
v 0.395455 0.413649 0.872071
v 0.382372 0.409323 0.886692
v 0.364283 0.400615 0.887451
v 0.351783 0.392624 0.873904
v 0.352194 0.390033 0.853985
v 0.365277 0.394358 0.839363
v 0.419129 0.346558 0.848076
v 0.430199 0.356924 0.861254
v 0.429556 0.3599 0.881113
v 0.417577 0.353743 0.89602
v 0.401279 0.342059 0.897243
v 0.390208 0.331693 0.884066
v 0.390851 0.328717 0.864207
v 0.402831 0.334874 0.8493
v 0.443089 0.321131 0.852825
v 0.452349 0.333536 0.865633
v 0.45165 0.336575 0.88548
v 0.441402 0.328468 0.900741
v 0.427607 0.313965 0.902476
v 0.418348 0.30156 0.889669
v 0.419047 0.298521 0.869821
v 0.429295 0.306628 0.85456
v 0.45814 0.310215 0.855021
v 0.465063 0.324375 0.86748
v 0.464386 0.327398 0.88733
v 0.456505 0.317513 0.902945
v 0.446036 0.300511 0.905177
v 0.439112 0.286351 0.892718
v 0.43979 0.283328 0.872868
v 0.447671 0.293213 0.857253
v 0.472819 0.303328 0.856544
v 0.476979 0.31877 0.868705
v 0.476211 0.321834 0.888546
v 0.470966 0.310727 0.904444
v 0.464315 0.291954 0.907087
v 0.460155 0.276512 0.894926
v 0.460923 0.273447 0.875085
v 0.466168 0.284555 0.859187
v 0.490769 0.299091 0.857996
v 0.491835 0.315233 0.869909
v 0.49083 0.318352 0.889731
v 0.488342 0.30662 0.90585
v 0.485829 0.28691 0.908823
v 0.484763 0.270768 0.89691
v 0.485768 0.267649 0.877088
v 0.488256 0.279381 0.860969
v 0.517998 0.298077 0.859667
v 0.516352 0.314285 0.871424
v 0.515214 0.317407 0.891238
v 0.515252 0.305613 0.907503
v 0.516444 0.285813 0.910691
v 0.518091 0.269604 0.898934
v 0.519228 0.266483 0.87912
v 0.51919 0.278276 0.862855
v 0.554221 0.303386 0.860971
v 0.550197 0.319228 0.872654
v 0.549139 0.322362 0.89247
v 0.551667 0.310952 0.908813
v 0.5563 0.291682 0.912107
v 0.560323 0.27584 0.900425
v 0.561381 0.272706 0.880608
v 0.558854 0.284116 0.864266
v 0.596476 0.317148 0.860855
v 0.590584 0.332383 0.872553
v 0.589876 0.33563 0.892367
v 0.594767 0.324989 0.908691
v 0.602393 0.306691 0.911962
v 0.608285 0.291457 0.900265
v 0.608993 0.288209 0.880451
v 0.604102 0.298851 0.864127
v 0.62892 0.334025 0.858644
v 0.621257 0.348352 0.870462
v 0.621164 0.351915 0.890234
v 0.628696 0.342627 0.906378
v 0.63944 0.325928 0.909438
v 0.647104 0.311602 0.89762
v 0.647197 0.308039 0.877848
v 0.639665 0.317327 0.861704
v 0.648667 0.349534 0.855291
v 0.638971 0.362259 0.867444
v 0.639545 0.366347 0.887106
v 0.650052 0.359404 0.90276
v 0.664338 0.345495 0.905235
v 0.674033 0.33277 0.893082
v 0.67346 0.328682 0.873419
v 0.662953 0.335625 0.857766
v 0.67705 0.381676 0.847276
v 0.665792 0.392541 0.859879
v 0.666545 0.396842 0.87949
v 0.678866 0.392059 0.89462
v 0.69554 0.380993 0.896408
v 0.706798 0.370128 0.883804
v 0.706046 0.365827 0.864194
v 0.693724 0.37061 0.849063
v 0.71485 0.445697 0.831639
v 0.702488 0.45469 0.844675
v 0.703066 0.458695 0.864354
v 0.716246 0.455367 0.879148
v 0.734307 0.446655 0.880391
v 0.746669 0.437663 0.867354
v 0.746091 0.433658 0.847675
v 0.732911 0.436986 0.832881
v 0.737902 0.50395 0.820587
v 0.724246 0.50939 0.834283
v 0.724474 0.512432 0.854141
v 0.73845 0.511293 0.868528
v 0.757989 0.506641 0.869017
v 0.771644 0.5012 0.855321
v 0.771417 0.498159 0.835463
v 0.75744 0.499297 0.821076
v 0.75877 0.627303 0.803353
v 0.744873 0.631435 0.817261
v 0.745149 0.634736 0.837077
v 0.759435 0.635271 0.851193
v 0.779363 0.632727 0.85134
v 0.79326 0.628594 0.837432
v 0.792985 0.625294 0.817616
v 0.778699 0.624759 0.8035
v 0.765795 0.719886 0.784363
v 0.7519 0.724041 0.798267
v 0.752322 0.729107 0.817704
v 0.766815 0.732117 0.831289
v 0.786888 0.731308 0.831063
v 0.800783 0.727153 0.81716
v 0.800361 0.722087 0.797723
v 0.785868 0.719077 0.784138
v 0.764434 0.780659 0.763215
v 0.750541 0.785145 0.777018
v 0.750976 0.791726 0.795995
v 0.765484 0.796549 0.80903
v 0.785566 0.796788 0.808486
v 0.799459 0.792303 0.794683
v 0.799024 0.785721 0.775706
v 0.784516 0.780898 0.762671
v 0.33125 2.465625 0.7875
v 0.775 0.788724 0.78585
vt 0.241295 0.280529
vt 0.241288 0.282805
vt 0.226839 0.282764
vt 0.226853 0.280488
vt 0.768674 0.174291
vt 0.768698 0.176567
vt 0.754253 0.176721
vt 0.754223 0.174446
vt 0.220781 0.233298
vt 0.220854 0.235572
vt 0.206434 0.236035
vt 0.206345 0.233761
vt 0.247929 0.720593
vt 0.247943 0.722869
vt 0.233599 0.722967
vt 0.233568 0.720691
vt 0.474371 0.31935
vt 0.474365 0.317074
vt 0.488767 0.317033
vt 0.488782 0.319309
vt 0.266357 0.187681
vt 0.266382 0.185406
vt 0.280791 0.18556
vt 0.280761 0.187835
vt 0.606689 0.265322
vt 0.606763 0.263047
vt 0.62118 0.263511
vt 0.62109 0.265785
vt 0.994834 0.676108
vt 0.99482 0.678384
vt 0.980446 0.678286
vt 0.980477 0.67601
vt 0.226853 0.280488
vt 0.226839 0.282764
vt 0.211549 0.282614
vt 0.211585 0.280338
vt 0.754223 0.174446
vt 0.754253 0.176721
vt 0.738965 0.17696
vt 0.738929 0.174684
vt 0.206345 0.233761
vt 0.206434 0.236035
vt 0.191191 0.236735
vt 0.191073 0.234462
vt 0.233568 0.720691
vt 0.233599 0.722967
vt 0.218439 0.723291
vt 0.218373 0.721017
vt 0.488782 0.319309
vt 0.488767 0.317033
vt 0.503966 0.316885
vt 0.504001 0.319161
vt 0.280761 0.187835
vt 0.280791 0.18556
vt 0.295999 0.185797
vt 0.295964 0.188072
vt 0.62109 0.265785
vt 0.62118 0.263511
vt 0.636401 0.264211
vt 0.636282 0.266484
vt 0.980477 0.67601
vt 0.980446 0.678286
vt 0.965237 0.67796
vt 0.965303 0.675685
vt 0.211585 0.280338
vt 0.211549 0.282614
vt 0.19628 0.282282
vt 0.196333 0.280007
vt 0.738929 0.174684
vt 0.738965 0.17696
vt 0.72369 0.177202
vt 0.723653 0.174926
vt 0.191073 0.234462
vt 0.191191 0.236735
vt 0.17596 0.237621
vt 0.175822 0.235349
vt 0.218373 0.721017
vt 0.218439 0.723291
vt 0.203275 0.723875
vt 0.203182 0.721601
vt 0.504001 0.319161
vt 0.503966 0.316885
vt 0.51917 0.316555
vt 0.519223 0.31883
vt 0.295964 0.188072
vt 0.295999 0.185797
vt 0.311211 0.186038
vt 0.311174 0.188313
vt 0.636282 0.266484
vt 0.636401 0.264211
vt 0.651608 0.265097
vt 0.65147 0.267369
vt 0.965303 0.675685
vt 0.965237 0.67796
vt 0.950043 0.677375
vt 0.950136 0.675101
vt 0.196333 0.280007
vt 0.19628 0.282282
vt 0.182013 0.281911
vt 0.182071 0.279636
vt 0.723653 0.174926
vt 0.72369 0.177202
vt 0.709418 0.177439
vt 0.709378 0.175163
vt 0.175822 0.235349
vt 0.17596 0.237621
vt 0.161723 0.238525
vt 0.161576 0.236254
vt 0.203182 0.721601
vt 0.203275 0.723875
vt 0.189081 0.724518
vt 0.188978 0.722244
vt 0.519223 0.31883
vt 0.51917 0.316555
vt 0.533411 0.316185
vt 0.533469 0.31846
vt 0.311174 0.188313
vt 0.311211 0.186038
vt 0.325462 0.186275
vt 0.325423 0.18855
vt 0.65147 0.267369
vt 0.651608 0.265097
vt 0.665842 0.266003
vt 0.665696 0.268274
vt 0.950136 0.675101
vt 0.950043 0.677375
vt 0.935833 0.676731
vt 0.935935 0.674458
vt 0.182071 0.279636
vt 0.182013 0.281911
vt 0.166946 0.281521
vt 0.167 0.279246
vt 0.709378 0.175163
vt 0.709418 0.177439
vt 0.694347 0.177713
vt 0.694303 0.175438
vt 0.161576 0.236254
vt 0.161723 0.238525
vt 0.146682 0.239512
vt 0.146533 0.237241
vt 0.188978 0.722244
vt 0.189081 0.724518
vt 0.174071 0.725218
vt 0.17397 0.722944
vt 0.533469 0.31846
vt 0.533411 0.316185
vt 0.548476 0.315795
vt 0.54853 0.31807
vt 0.325423 0.18855
vt 0.325462 0.186275
vt 0.34054 0.186549
vt 0.340495 0.188825
vt 0.665696 0.268274
vt 0.665842 0.266003
vt 0.680895 0.266992
vt 0.680745 0.269263
vt 0.935935 0.674458
vt 0.935833 0.676731
vt 0.920814 0.676031
vt 0.920915 0.673758
vt 0.167 0.279246
vt 0.166946 0.281521
vt 0.151816 0.281177
vt 0.15186 0.278902
vt 0.694303 0.175438
vt 0.694347 0.177713
vt 0.679217 0.178025
vt 0.679166 0.175749
vt 0.146533 0.237241
vt 0.146682 0.239512
vt 0.131577 0.240507
vt 0.131429 0.238236
vt 0.17397 0.722944
vt 0.174071 0.725218
vt 0.158987 0.72589
vt 0.158894 0.723616
vt 0.54853 0.31807
vt 0.548476 0.315795
vt 0.563619 0.315451
vt 0.563663 0.317726
vt 0.340495 0.188825
vt 0.34054 0.186549
vt 0.355697 0.186861
vt 0.355646 0.189137
vt 0.680745 0.269263
vt 0.680895 0.266992
vt 0.696024 0.267989
vt 0.695876 0.27026
vt 0.920915 0.673758
vt 0.920814 0.676031
vt 0.905722 0.675359
vt 0.905815 0.673085
vt 0.15186 0.278902
vt 0.151816 0.281177
vt 0.137344 0.280942
vt 0.137382 0.278666
vt 0.679166 0.175749
vt 0.679217 0.178025
vt 0.664745 0.178375
vt 0.664686 0.1761
vt 0.131429 0.238236
vt 0.131577 0.240507
vt 0.117133 0.241438
vt 0.11698 0.239168
vt 0.158894 0.723616
vt 0.158987 0.72589
vt 0.144567 0.726452
vt 0.144475 0.724178
vt 0.563663 0.317726
vt 0.563619 0.315451
vt 0.578086 0.315216
vt 0.578124 0.317492
vt 0.355646 0.189137
vt 0.355697 0.186861
vt 0.370178 0.187212
vt 0.370119 0.189487
vt 0.695876 0.27026
vt 0.696024 0.267989
vt 0.710486 0.268923
vt 0.710333 0.271194
vt 0.905815 0.673085
vt 0.905722 0.675359
vt 0.891285 0.674796
vt 0.891378 0.672522
vt 0.137382 0.278666
vt 0.137344 0.280942
vt 0.123068 0.280682
vt 0.123111 0.278407
vt 0.664686 0.1761
vt 0.664745 0.178375
vt 0.650467 0.17876
vt 0.650404 0.176484
vt 0.11698 0.239168
vt 0.117133 0.241438
vt 0.102893 0.242438
vt 0.102728 0.240168
vt 0.144475 0.724178
vt 0.144567 0.726452
vt 0.130358 0.727081
vt 0.130253 0.724807
vt 0.578124 0.317492
vt 0.578086 0.315216
vt 0.592326 0.314958
vt 0.592369 0.317233
vt 0.370119 0.189487
vt 0.370178 0.187212
vt 0.384431 0.187595
vt 0.384367 0.189871
vt 0.710333 0.271194
vt 0.710486 0.268923
vt 0.724727 0.269924
vt 0.724561 0.272194
vt 0.891378 0.672522
vt 0.891285 0.674796
vt 0.877051 0.674166
vt 0.877155 0.671893
vt 0.123111 0.278407
vt 0.123068 0.280682
vt 0.108589 0.280385
vt 0.108627 0.27811
vt 0.650404 0.176484
vt 0.650467 0.17876
vt 0.635986 0.179179
vt 0.635917 0.176904
vt 0.102728 0.240168
vt 0.102893 0.242438
vt 0.088443 0.243527
vt 0.088275 0.241257
vt 0.130253 0.724807
vt 0.130358 0.727081
vt 0.115919 0.727796
vt 0.115816 0.725523
vt 0.592369 0.317233
vt 0.592326 0.314958
vt 0.606803 0.314661
vt 0.606841 0.316937
vt 0.384367 0.189871
vt 0.384431 0.187595
vt 0.398921 0.188015
vt 0.398852 0.19029
vt 0.724561 0.272194
vt 0.724727 0.269924
vt 0.739192 0.271016
vt 0.739023 0.273285
vt 0.877155 0.671893
vt 0.877051 0.674166
vt 0.8626 0.67345
vt 0.862703 0.671177
vt 0.108627 0.27811
vt 0.108589 0.280385
vt 0.094273 0.280187
vt 0.094283 0.277911
vt 0.635917 0.176904
vt 0.635986 0.179179
vt 0.621671 0.179635
vt 0.621593 0.177361
vt 0.088275 0.241257
vt 0.088443 0.243527
vt 0.074137 0.24457
vt 0.073984 0.2423
vt 0.115816 0.725523
vt 0.115919 0.727796
vt 0.101593 0.728414
vt 0.10152 0.726139
vt 0.606841 0.316937
vt 0.606803 0.314661
vt 0.621186 0.314462
vt 0.621196 0.316738
vt 0.398852 0.19029
vt 0.398921 0.188015
vt 0.41332 0.188474
vt 0.413242 0.190749
vt 0.739023 0.273285
vt 0.739192 0.271016
vt 0.75355 0.272064
vt 0.753397 0.274335
vt 0.862703 0.671177
vt 0.8626 0.67345
vt 0.848284 0.672833
vt 0.848356 0.670558
vt 0.094283 0.277911
vt 0.094273 0.280187
vt 0.078975 0.280245
vt 0.078929 0.27797
vt 0.621593 0.177361
vt 0.621671 0.179635
vt 0.606381 0.180191
vt 0.606291 0.177916
vt 0.073984 0.2423
vt 0.074137 0.24457
vt 0.058825 0.245512
vt 0.058711 0.243239
vt 0.10152 0.726139
vt 0.101593 0.728414
vt 0.086228 0.72876
vt 0.086222 0.726484
vt 0.621196 0.316738
vt 0.621186 0.314462
vt 0.636633 0.314522
vt 0.636587 0.316797
vt 0.413242 0.190749
vt 0.41332 0.188474
vt 0.428783 0.189036
vt 0.428693 0.19131
vt 0.753397 0.274335
vt 0.75355 0.272064
vt 0.768957 0.273013
vt 0.768843 0.275286
vt 0.848356 0.670558
vt 0.848284 0.672833
vt 0.832956 0.672488
vt 0.832962 0.670212
vt 0.078929 0.27797
vt 0.078975 0.280245
vt 0.064759 0.280776
vt 0.064645 0.278503
vt 0.606291 0.177916
vt 0.606381 0.180191
vt 0.592181 0.180802
vt 0.592077 0.178528
vt 0.058711 0.243239
vt 0.058825 0.245512
vt 0.044573 0.246048
vt 0.044508 0.243773
vt 0.086222 0.726484
vt 0.086228 0.72876
vt 0.071913 0.728502
vt 0.071989 0.726228
vt 0.636587 0.316797
vt 0.636633 0.314522
vt 0.651035 0.315059
vt 0.650921 0.317332
vt 0.428693 0.19131
vt 0.428783 0.189036
vt 0.443196 0.189656
vt 0.443093 0.19193
vt 0.768843 0.275286
vt 0.768957 0.273013
vt 0.783324 0.273554
vt 0.783259 0.275829
vt 0.832962 0.670212
vt 0.832956 0.672488
vt 0.818691 0.672744
vt 0.818614 0.67047
vt 0.064645 0.278503
vt 0.064759 0.280776
vt 0.050034 0.281692
vt 0.049856 0.279423
vt 0.592077 0.178528
vt 0.592181 0.180802
vt 0.577477 0.181506
vt 0.57736 0.179233
vt 0.044508 0.243773
vt 0.044573 0.246048
vt 0.029808 0.246338
vt 0.029788 0.244062
vt 0.071989 0.726228
vt 0.071913 0.728502
vt 0.057095 0.727786
vt 0.057249 0.725516
vt 0.650921 0.317332
vt 0.651035 0.315059
vt 0.665932 0.315987
vt 0.665754 0.318256
vt 0.443093 0.19193
vt 0.443196 0.189656
vt 0.4581 0.19037
vt 0.457983 0.192643
vt 0.783259 0.275829
vt 0.783324 0.273554
vt 0.798199 0.273847
vt 0.798179 0.276123
vt 0.818614 0.67047
vt 0.818691 0.672744
vt 0.803917 0.673458
vt 0.803763 0.671187
vt 0.049856 0.279423
vt 0.050034 0.281692
vt 0.035339 0.28308
vt 0.035018 0.280827
vt 0.57736 0.179233
vt 0.577477 0.181506
vt 0.562827 0.182315
vt 0.562678 0.180044
vt 0.029788 0.244062
vt 0.029808 0.246338
vt 0.015025 0.246305
vt 0.015104 0.244031
vt 0.057249 0.725516
vt 0.057095 0.727786
vt 0.042169 0.726493
vt 0.042494 0.72424
vt 0.665754 0.318256
vt 0.665932 0.315987
vt 0.68101 0.317417
vt 0.680688 0.319671
vt 0.457983 0.192643
vt 0.4581 0.19037
vt 0.473195 0.191205
vt 0.473047 0.193476
vt 0.798179 0.276123
vt 0.798199 0.273847
vt 0.81323 0.273813
vt 0.813309 0.276087
vt 0.803763 0.671187
vt 0.803917 0.673458
vt 0.789087 0.674742
vt 0.788762 0.672489
vt 0.035018 0.280827
vt 0.035339 0.28308
vt 0.021702 0.285725
vt 0.021084 0.283535
vt 0.562678 0.180044
vt 0.562827 0.182315
vt 0.549296 0.18335
vt 0.549072 0.181085
vt 0.015104 0.244031
vt 0.015025 0.246305
vt 0.001221 0.245324
vt 0.001492 0.243065
vt 0.042494 0.72424
vt 0.042169 0.726493
vt 0.028061 0.723589
vt 0.028732 0.721414
vt 0.680688 0.319671
vt 0.68101 0.317417
vt 0.695404 0.320224
vt 0.694786 0.322414
vt 0.473047 0.193476
vt 0.473195 0.191205
vt 0.487633 0.192315
vt 0.487409 0.19458
vt 0.813309 0.276087
vt 0.81323 0.273813
vt 0.827563 0.27279
vt 0.827834 0.27505
vt 0.788762 0.672489
vt 0.789087 0.674742
vt 0.775144 0.677608
vt 0.774473 0.675434
vt 0.021084 0.283535
vt 0.021702 0.285725
vt 0.008547 0.290727
vt 0.007653 0.288637
vt 0.504065 0.119339
vt 0.504272 0.121606
vt 0.49018 0.123217
vt 0.489898 0.120959
vt 0.485002 0.143297
vt 0.485749 0.145447
vt 0.472046 0.149477
vt 0.471478 0.147273
vt 0.028732 0.721414
vt 0.028061 0.723589
vt 0.014421 0.717933
vt 0.015413 0.715884
vt 0.694786 0.322414
vt 0.695404 0.320224
vt 0.70926 0.325479
vt 0.708366 0.327569
vt 0.27124 0.121385
vt 0.271448 0.119119
vt 0.286439 0.120829
vt 0.286157 0.123088
vt 0.405029 0.145085
vt 0.405772 0.142934
vt 0.419987 0.147089
vt 0.419424 0.149294
vt 0.774473 0.675434
vt 0.775144 0.677608
vt 0.761654 0.683205
vt 0.760662 0.681157
vt 0.007653 0.288637
vt 0.008547 0.290727
vt 0.002385 0.294189
vt 0.001221 0.292242
vt 0.489898 0.120959
vt 0.49018 0.123217
vt 0.482999 0.124268
vt 0.482666 0.122016
vt 0.471478 0.147273
vt 0.472046 0.149477
vt 0.464652 0.150892
vt 0.464325 0.14864
vt 0.015413 0.715884
vt 0.014421 0.717933
vt 0.00771 0.713735
vt 0.009042 0.71189
vt 0.708366 0.327569
vt 0.70926 0.325479
vt 0.716196 0.329352
vt 0.715031 0.331299
vt 0.286157 0.123088
vt 0.286439 0.120829
vt 0.294618 0.122016
vt 0.294285 0.124268
vt 0.419424 0.149294
vt 0.419987 0.147089
vt 0.427893 0.148591
vt 0.42757 0.150844
vt 0.760662 0.681157
vt 0.761654 0.683205
vt 0.755177 0.687263
vt 0.753845 0.685418
vt 0.909876 0.08976
vt 0.909791 0.092034
vt 0.906146 0.092226
vt 0.905922 0.089961
vt 0.240021 0.084696
vt 0.2403 0.086955
vt 0.236673 0.087421
vt 0.236385 0.085163
vt 0.464325 0.14864
vt 0.464652 0.150892
vt 0.460726 0.151123
vt 0.460693 0.148848
vt 0.009042 0.71189
vt 0.00771 0.713735
vt 0.004484 0.710748
vt 0.00614 0.709187
vt 0.829912 0.097458
vt 0.829834 0.095184
vt 0.834499 0.095418
vt 0.83427 0.097682
vt 0.962158 0.092048
vt 0.962439 0.08979
vt 0.967103 0.090389
vt 0.966813 0.092646
vt 0.42757 0.150844
vt 0.427893 0.148591
vt 0.432269 0.148848
vt 0.432241 0.151123
vt 0.753845 0.685418
vt 0.755177 0.687263
vt 0.752257 0.689981
vt 0.750602 0.68842
vt 0.905922 0.089961
vt 0.906146 0.092226
vt 0.904389 0.092557
vt 0.903837 0.090349
vt 0.236385 0.085163
vt 0.236673 0.087421
vt 0.234905 0.087646
vt 0.234619 0.085389
vt 0.358838 0.084734
vt 0.359606 0.086875
vt 0.35757 0.087421
vt 0.357124 0.085189
vt 0.00614 0.709187
vt 0.004484 0.710748
vt 0.002938 0.708659
vt 0.004881 0.707475
vt 0.83427 0.097682
vt 0.834499 0.095418
vt 0.837386 0.095953
vt 0.836828 0.098159
vt 0.966813 0.092646
vt 0.967103 0.090389
vt 0.969999 0.09076
vt 0.969712 0.093018
vt 0.921631 0.091926
vt 0.922399 0.089785
vt 0.92488 0.090455
vt 0.924433 0.092687
vt 0.750602 0.68842
vt 0.752257 0.689981
vt 0.751002 0.691688
vt 0.749059 0.690504
vt 0.903837 0.090349
vt 0.904389 0.092557
vt 0.902977 0.093018
vt 0.9021 0.090919
vt 0.807647 0.06264
vt 0.807836 0.064908
vt 0.806362 0.065027
vt 0.806162 0.06276
vt 0.357124 0.085189
vt 0.35757 0.087421
vt 0.355767 0.087646
vt 0.355649 0.085374
vt 0.004881 0.707475
vt 0.002938 0.708659
vt 0.001952 0.706587
vt 0.004099 0.705835
vt 0.836828 0.098159
vt 0.837386 0.095953
vt 0.839871 0.09678
vt 0.838988 0.098877
vt 0.428467 0.087164
vt 0.428655 0.084896
vt 0.431286 0.085113
vt 0.431087 0.08738
vt 0.924433 0.092687
vt 0.92488 0.090455
vt 0.927186 0.090745
vt 0.927067 0.093018
vt 0.749059 0.690504
vt 0.751002 0.691688
vt 0.750209 0.693352
vt 0.748062 0.6926
vt 0.27502 0.089628
vt 0.274767 0.09189
vt 0.273048 0.091816
vt 0.272943 0.089542
vt 0.806162 0.06276
vt 0.806362 0.065027
vt 0.804671 0.065186
vt 0.804443 0.062921
vt 0.355649 0.085374
vt 0.355767 0.087646
vt 0.35376 0.087618
vt 0.353959 0.085352
vt 0.004099 0.705835
vt 0.001952 0.706587
vt 0.001365 0.704148
vt 0.003621 0.703866
vt 0.80519 0.097557
vt 0.804932 0.095297
vt 0.807777 0.095177
vt 0.807678 0.097451
vt 0.431087 0.08738
vt 0.431286 0.085113
vt 0.434157 0.085382
vt 0.43393 0.087646
vt 0.927067 0.093018
vt 0.927186 0.090745
vt 0.929735 0.090706
vt 0.929934 0.092972
vt 0.748062 0.6926
vt 0.750209 0.693352
vt 0.749716 0.695386
vt 0.747459 0.695104
vt 0.272943 0.089542
vt 0.273048 0.091816
vt 0.270278 0.092106
vt 0.269868 0.089868
vt 0.100131 0.075765
vt 0.100229 0.078038
vt 0.097474 0.07817
vt 0.097361 0.075897
vt 0.8359 0.089858
vt 0.83648 0.092057
vt 0.833539 0.092686
vt 0.833236 0.09043
vt 0.003621 0.703866
vt 0.001365 0.704148
vt 0.001221 0.700679
vt 0.003489 0.700816
vt 0.807678 0.097451
vt 0.807777 0.095177
vt 0.811541 0.095572
vt 0.811136 0.097812
vt 0.602783 0.087228
vt 0.60288 0.084954
vt 0.60666 0.085131
vt 0.606548 0.087405
vt 0.488525 0.091863
vt 0.489106 0.089663
vt 0.492487 0.090382
vt 0.492183 0.092638
vt 0.747459 0.695104
vt 0.749716 0.695386
vt 0.749583 0.698472
vt 0.747314 0.698609
vt 0.269868 0.089868
vt 0.270278 0.092106
vt 0.266542 0.093018
vt 0.265869 0.090844
vt 0.097361 0.075897
vt 0.097474 0.07817
vt 0.093609 0.078369
vt 0.093506 0.076096
vt 0.833236 0.09043
vt 0.833539 0.092686
vt 0.829386 0.093018
vt 0.829367 0.090742
vt 0.003489 0.700816
vt 0.001221 0.700679
vt 0.001868 0.696163
vt 0.004078 0.69669
vt 0.811136 0.097812
vt 0.811541 0.095572
vt 0.816206 0.096702
vt 0.815538 0.098877
vt 0.606548 0.087405
vt 0.60666 0.085131
vt 0.611463 0.085373
vt 0.611361 0.087646
vt 0.492183 0.092638
vt 0.492487 0.090382
vt 0.497012 0.090742
vt 0.496993 0.093018
vt 0.747314 0.698609
vt 0.749583 0.698472
vt 0.750168 0.702576
vt 0.747958 0.703103
vt 0.736183 0.096682
vt 0.735584 0.098877
vt 0.730938 0.097857
vt 0.731321 0.095614
vt 0.838681 0.06291
vt 0.838652 0.065186
vt 0.833818 0.065105
vt 0.833888 0.06283
vt 0.829367 0.090742
vt 0.829386 0.093018
vt 0.824268 0.092757
vt 0.82453 0.090496
vt 0.004078 0.69669
vt 0.001868 0.696163
vt 0.003563 0.690942
vt 0.005663 0.691808
vt 0.399767 0.104736
vt 0.39917 0.102541
vt 0.404688 0.101328
vt 0.405071 0.103572
vt 0.114042 0.078369
vt 0.114014 0.076093
vt 0.119664 0.075996
vt 0.119734 0.07827
vt 0.496993 0.093018
vt 0.497012 0.090742
vt 0.502384 0.090468
vt 0.502646 0.092729
vt 0.747958 0.703103
vt 0.750168 0.702576
vt 0.751723 0.707363
vt 0.749623 0.708229
vt 0.731321 0.095614
vt 0.730938 0.097857
vt 0.727039 0.097408
vt 0.727199 0.095138
vt 0.833888 0.06283
vt 0.833818 0.065105
vt 0.829834 0.064917
vt 0.829982 0.062646
vt 0.82453 0.090496
vt 0.824268 0.092757
vt 0.820068 0.091921
vt 0.820657 0.089724
vt 0.005663 0.691808
vt 0.003563 0.690942
vt 0.005764 0.686747
vt 0.007681 0.687967
vt 0.405071 0.103572
vt 0.404688 0.101328
vt 0.409618 0.100757
vt 0.409777 0.103028
vt 0.119734 0.07827
vt 0.119664 0.075996
vt 0.124526 0.075766
vt 0.124674 0.078037
vt 0.502646 0.092729
vt 0.502384 0.090468
vt 0.506786 0.089595
vt 0.507374 0.091792
vt 0.749623 0.708229
vt 0.751723 0.707363
vt 0.753653 0.711036
vt 0.751736 0.712256
vt 0.727199 0.095138
vt 0.727039 0.097408
vt 0.724498 0.097389
vt 0.724365 0.095118
vt 0.39789 0.090758
vt 0.397615 0.093018
vt 0.394983 0.092629
vt 0.395354 0.090384
vt 0.914975 0.138594
vt 0.915012 0.140869
vt 0.911939 0.140628
vt 0.91233 0.138386
vt 0.007681 0.687967
vt 0.005764 0.686747
vt 0.008021 0.68393
vt 0.009616 0.68555
vt 0.409777 0.103028
vt 0.409618 0.100757
vt 0.413483 0.100735
vt 0.41335 0.103006
vt 0.677278 0.098877
vt 0.677002 0.096618
vt 0.680762 0.096066
vt 0.681134 0.098312
vt 0.768311 0.140869
vt 0.76835 0.138594
vt 0.771702 0.138335
vt 0.772091 0.140577
vt 0.751736 0.712256
vt 0.753653 0.711036
vt 0.755442 0.713271
vt 0.753847 0.714891
vt 0.105164 0.181374
vt 0.104036 0.18335
vt 0.099965 0.181213
vt 0.100846 0.179115
vt 0.395354 0.090384
vt 0.394983 0.092629
vt 0.390381 0.091814
vt 0.390783 0.089574
vt 0.91233 0.138386
vt 0.911939 0.140628
vt 0.907053 0.13948
vt 0.90776 0.137317
vt 0.009616 0.68555
vt 0.008021 0.68393
vt 0.012129 0.680402
vt 0.013395 0.682292
vt 0.533601 0.218018
vt 0.532471 0.216043
vt 0.53748 0.213434
vt 0.538363 0.215532
vt 0.681134 0.098312
vt 0.680762 0.096066
vt 0.686345 0.095081
vt 0.686748 0.097321
vt 0.772091 0.140577
vt 0.771702 0.138335
vt 0.776929 0.137107
vt 0.777634 0.139271
vt 0.753847 0.714891
vt 0.755442 0.713271
vt 0.759162 0.71648
vt 0.757896 0.71837
vt 0.100846 0.179115
vt 0.099965 0.181213
vt 0.092121 0.178348
vt 0.092766 0.176165
vt 0.410872 0.122042
vt 0.410395 0.124268
vt 0.402291 0.122512
vt 0.402729 0.120279
vt 0.90776 0.137317
vt 0.907053 0.13948
vt 0.89917 0.136444
vt 0.900058 0.134349
vt 0.013395 0.682292
vt 0.012129 0.680402
vt 0.019722 0.676022
vt 0.020717 0.678069
vt 0.538363 0.215532
vt 0.53748 0.213434
vt 0.546001 0.210319
vt 0.546647 0.212501
vt 0.844471 0.13208
vt 0.843994 0.129855
vt 0.85288 0.127938
vt 0.853318 0.130171
vt 0.777634 0.139271
vt 0.776929 0.137107
vt 0.785198 0.133935
vt 0.786084 0.136031
vt 0.757896 0.71837
vt 0.759162 0.71648
vt 0.766567 0.72075
vt 0.765572 0.722797
vt 0.092766 0.176165
vt 0.092121 0.178348
vt 0.08551 0.176911
vt 0.085728 0.174646
vt 0.402729 0.120279
vt 0.402291 0.122512
vt 0.395752 0.121383
vt 0.396074 0.11913
vt 0.079592 0.273854
vt 0.079423 0.276123
vt 0.072608 0.275345
vt 0.073041 0.273111
vt 0.020717 0.678069
vt 0.019722 0.676022
vt 0.026619 0.673348
vt 0.027147 0.675562
vt 0.546647 0.212501
vt 0.546001 0.210319
vt 0.553671 0.208672
vt 0.553892 0.210936
vt 0.853318 0.130171
vt 0.85288 0.127938
vt 0.860712 0.126589
vt 0.861034 0.128842
vt 0.951583 0.294189
vt 0.951416 0.29192
vt 0.959001 0.291045
vt 0.959432 0.293279
vt 0.765572 0.722797
vt 0.766567 0.72075
vt 0.773264 0.723353
vt 0.772735 0.725567
vt 0.085728 0.174646
vt 0.08551 0.176911
vt 0.071533 0.17645
vt 0.071601 0.174177
vt 0.067033 0.148874
vt 0.066688 0.151123
vt 0.052695 0.149196
vt 0.05307 0.146951
vt 0.073041 0.273111
vt 0.072608 0.275345
vt 0.058618 0.27208
vt 0.05924 0.269891
vt 0.027147 0.675562
vt 0.026619 0.673348
vt 0.041036 0.67094
vt 0.041323 0.673198
vt 0.553892 0.210936
vt 0.553671 0.208672
vt 0.568264 0.208161
vt 0.568334 0.210435
vt 0.036722 0.172607
vt 0.036377 0.170358
vt 0.050924 0.168342
vt 0.051299 0.170587
vt 0.959432 0.293279
vt 0.959001 0.291045
vt 0.973161 0.287747
vt 0.973782 0.289936
vt 0.772735 0.725567
vt 0.773264 0.723353
vt 0.787368 0.725704
vt 0.787081 0.727962
vt 0.277648 0.148995
vt 0.276841 0.151123
vt 0.266792 0.147437
vt 0.267601 0.14531
vt 0.05307 0.146951
vt 0.052695 0.149196
vt 0.041973 0.147001
vt 0.042549 0.1448
vt 0.05924 0.269891
vt 0.058618 0.27208
vt 0.048046 0.268349
vt 0.048939 0.266256
vt 0.041323 0.673198
vt 0.041036 0.67094
vt 0.052387 0.670103
vt 0.052474 0.672376
vt 0.204173 0.172607
vt 0.203369 0.170478
vt 0.21407 0.166561
vt 0.214877 0.16869
vt 0.051299 0.170587
vt 0.050924 0.168342
vt 0.061921 0.166089
vt 0.062497 0.16829
vt 0.973782 0.289936
vt 0.973161 0.287747
vt 0.983459 0.284119
vt 0.984351 0.286213
vt 0.787081 0.727962
vt 0.787368 0.725704
vt 0.798027 0.726486
vt 0.797941 0.72876
vt 0.267601 0.14531
vt 0.266792 0.147437
vt 0.26001 0.144719
vt 0.260856 0.142606
vt 0.042549 0.1448
vt 0.041973 0.147001
vt 0.034912 0.144539
vt 0.035659 0.142389
vt 0.048939 0.266256
vt 0.048046 0.268349
vt 0.04126 0.264669
vt 0.042346 0.262669
vt 0.052474 0.672376
vt 0.052387 0.670103
vt 0.060037 0.670269
vt 0.060002 0.672544
vt 0.214877 0.16869
vt 0.21407 0.166561
vt 0.221301 0.163679
vt 0.222144 0.165793
vt 0.062497 0.16829
vt 0.061921 0.166089
vt 0.069096 0.163591
vt 0.069844 0.165741
vt 0.984351 0.286213
vt 0.983459 0.284119
vt 0.989969 0.280577
vt 0.991054 0.282578
vt 0.797941 0.72876
vt 0.798027 0.726486
vt 0.80513 0.726316
vt 0.805165 0.728591
vt 0.782615 0.13208
vt 0.781006 0.130471
vt 0.783753 0.129333
vt 0.784891 0.13208
vt 0.782615 0.13208
vt 0.783753 0.129333
vt 0.786501 0.13047
vt 0.784891 0.13208
vt 0.783753 0.129333
vt 0.7865 0.128195
vt 0.786501 0.13047
vt 0.783753 0.129333
vt 0.784891 0.126585
vt 0.7865 0.128195
vt 0.783753 0.129333
vt 0.782615 0.126586
vt 0.784891 0.126585
vt 0.783753 0.129333
vt 0.781006 0.128195
vt 0.782615 0.126586
vt 0.783753 0.129333
vt 0.781006 0.130471
vt 0.781006 0.128195
vt 0.783753 0.129333
vt 0.747163 0.129301
vt 0.74445 0.128085
vt 0.746105 0.126523
vt 0.747163 0.129301
vt 0.746105 0.126523
vt 0.74838 0.126588
vt 0.747163 0.129301
vt 0.74838 0.126588
vt 0.749942 0.128242
vt 0.747163 0.129301
vt 0.749942 0.128242
vt 0.749877 0.130517
vt 0.747163 0.129301
vt 0.749877 0.130517
vt 0.748222 0.13208
vt 0.747163 0.129301
vt 0.748222 0.13208
vt 0.745947 0.132015
vt 0.747163 0.129301
vt 0.745947 0.132015
vt 0.744385 0.13036
vt 0.747163 0.129301
vt 0.744385 0.13036
vt 0.74445 0.128085
vn 0.382847 -0.012503 -0.923727
vn 0.923864 -0.010424 -0.382578
vn 0.923797 -0.018313 -0.382443
vn 0.382876 -0.017706 -0.92363
vn 0.923921 -0.002239 0.382577
vn 0.92387 -0.008198 0.382619
vn 0.382895 0.007256 0.923763
vn 0.382988 0.006718 0.923729
vn -0.382515 0.012497 0.923865
vn -0.38235 0.017695 0.923848
vn -0.923852 0.010413 0.382608
vn -0.923751 0.018299 0.382557
vn -0.923801 0.002228 -0.382867
vn -0.923718 0.008178 -0.382985
vn -0.382455 -0.007263 -0.923945
vn -0.382358 -0.006734 -0.92399
vn 0.923475 -0.03366 -0.382179
vn 0.382753 -0.025995 -0.923485
vn 0.923568 -0.02162 0.382825
vn 0.382929 0.00308 0.923773
vn -0.382118 0.025985 0.923748
vn -0.923391 0.03367 0.382381
vn -0.923423 0.021616 -0.383175
vn -0.382232 -0.003104 -0.924061
vn 0.923065 -0.044716 -0.382037
vn 0.382451 -0.030975 -0.923457
vn 0.92316 -0.032273 0.383058
vn 0.382656 -0.000931 0.92389
vn -0.382068 0.030965 0.923615
vn -0.923014 0.044725 0.382159
vn -0.923073 0.032275 -0.383268
vn -0.382237 0.000914 -0.924064
vn 0.922841 -0.049046 -0.382047
vn 0.38217 -0.033692 -0.923478
vn 0.922992 -0.035674 0.383162
vn 0.382489 -0.001405 0.923959
vn -0.382107 0.03369 0.923504
vn -0.922857 0.049048 0.382007
vn -0.922942 0.035671 -0.383283
vn -0.382359 0.001398 -0.924013
vn 0.922796 -0.049466 -0.3821
vn 0.381987 -0.035358 -0.923491
vn 0.923033 -0.034597 0.383163
vn 0.382488 0.000542 0.92396
vn -0.382137 0.035363 0.923429
vn -0.922863 0.049465 0.381938
vn -0.923 0.034592 -0.383242
vn -0.382538 -0.000541 -0.92394
vn 0.922889 -0.047164 -0.382167
vn 0.381924 -0.036667 -0.923466
vn 0.92324 -0.030033 0.383049
vn 0.382677 0.004695 0.92387
vn -0.382085 0.036672 0.923399
vn -0.922969 0.047164 0.381973
vn -0.923193 0.03003 -0.383162
vn -0.382711 -0.004693 -0.923856
vn 0.922869 -0.048209 -0.382085
vn 0.381922 -0.039541 -0.923348
vn 0.923314 -0.028642 0.382976
vn 0.382916 0.007704 0.923751
vn -0.381848 0.039537 0.923379
vn -0.922906 0.048206 0.381996
vn -0.923232 0.028632 -0.383175
vn -0.382723 -0.007714 -0.923831
vn 0.922613 -0.054039 -0.381922
vn 0.381733 -0.043778 -0.923235
vn 0.923132 -0.032651 0.383095
vn 0.382914 0.007864 0.923751
vn -0.381662 0.043777 0.923265
vn -0.922644 0.054042 0.381848
vn -0.923059 0.032644 -0.383271
vn -0.382739 -0.007875 -0.923823
vn 0.922545 -0.054473 -0.382025
vn 0.381386 -0.045833 -0.923279
vn 0.923166 -0.031196 0.383132
vn 0.382796 0.010365 0.923775
vn -0.381822 0.045845 0.923098
vn -0.922675 0.054458 0.381713
vn -0.923164 0.031179 -0.383139
vn -0.383099 -0.010355 -0.923649
vn 0.922917 -0.043216 -0.382566
vn 0.381092 -0.044038 -0.923488
vn 0.92368 -0.017055 0.382786
vn 0.382806 0.019111 0.923631
vn -0.382263 0.044047 0.923003
vn -0.923198 0.043156 0.381894
vn -0.923772 0.017009 -0.382566
vn -0.383788 -0.019088 -0.923224
vn 0.923291 -0.018182 -0.383671
vn 0.380889 -0.037781 -0.923848
vn 0.924158 0.012092 0.381819
vn 0.382789 0.035269 0.923162
vn -0.382649 0.037749 0.923122
vn -0.923691 0.018114 0.382711
vn -0.924322 -0.012113 -0.38142
vn -0.384313 -0.035254 -0.922529
vn 0.922827 0.013026 -0.384996
vn 0.380707 -0.029435 -0.924227
vn 0.923626 0.047856 0.380296
vn 0.382476 0.054601 0.922351
vn -0.382622 0.029339 0.923439
vn -0.923261 -0.013076 0.383951
vn -0.923806 -0.047829 -0.379861
vn -0.384138 -0.05462 -0.921659
vn 0.921319 0.041808 -0.386553
vn 0.379891 -0.022156 -0.924766
vn 0.921939 0.081219 0.378724
vn 0.381243 0.072979 0.92159
vn -0.382823 0.021813 0.923564
vn -0.921972 -0.042243 0.384946
vn -0.922176 -0.081593 -0.378066
vn -0.383759 -0.073262 -0.920523
vn 0.914186 0.105539 -0.391313
vn 0.376407 -0.006544 -0.926431
vn 0.914021 0.155428 0.374711
vn 0.375571 0.113949 0.919762
vn -0.382673 0.005141 0.92387
vn -0.915501 -0.107196 0.387771
vn -0.914288 -0.15705 -0.373381
vn -0.38078 -0.115316 -0.917447
vn 0.884896 0.232957 -0.403349
vn 0.369193 0.020174 -0.929134
vn 0.879359 0.308773 0.362474
vn 0.353837 0.201921 0.913251
vn -0.377376 -0.023019 0.925774
vn -0.886871 -0.233975 0.398391
vn -0.88002 -0.308701 -0.360926
vn -0.360746 -0.203693 -0.910149
vn 0.838763 0.349786 -0.417285
vn 0.358397 0.043803 -0.932541
vn 0.823613 0.449451 0.345912
vn 0.3211 0.283069 0.903751
vn -0.368577 -0.049657 0.92827
vn -0.840638 -0.352445 0.41123
vn -0.824361 -0.450164 -0.343193
vn -0.330149 -0.286976 -0.899248
vn 0.760377 0.477758 -0.439971
vn 0.330439 0.077639 -0.940629
vn 0.735909 0.593303 0.326235
vn 0.271832 0.353716 0.894982
vn -0.348652 -0.09312 0.932615
vn -0.762928 -0.483165 0.429526
vn -0.738397 -0.594508 -0.318324
vn -0.289947 -0.364984 -0.884713
vn 0.646143 0.603123 -0.467698
vn 0.279278 0.117464 -0.952998
vn 0.618681 0.722348 0.308946
vn 0.214352 0.400221 0.890997
vn -0.308966 -0.153793 0.938556
vn -0.648867 -0.613769 0.449733
vn -0.6229 -0.726728 -0.28959
vn -0.245498 -0.430353 -0.868635
vn 0.490801 0.714767 -0.498219
vn 0.210692 0.149759 -0.966013
vn 0.464436 0.835404 0.293938
vn 0.148022 0.432465 0.889417
vn -0.247013 -0.214171 0.945048
vn -0.496535 -0.730402 0.469005
vn -0.471136 -0.841918 -0.263068
vn -0.185259 -0.488136 -0.852879
vn 0.318195 0.793514 -0.518736
vn 0.149185 0.177022 -0.972834
vn 0.288621 0.917258 0.274474
vn 0.077996 0.463682 0.882562
vn -0.172705 -0.250186 0.95267
vn -0.321841 -0.81205 0.48682
vn -0.292787 -0.924268 -0.244958
vn -0.102102 -0.526152 -0.844239
vn 0.132321 0.839053 -0.527713
vn 0.090483 0.202265 -0.975142
vn 0.092443 0.963116 0.252711
vn -0.003414 0.49307 0.869983
vn -0.097228 -0.258539 0.961095
vn -0.136397 -0.852648 0.504368
vn -0.099244 -0.967591 -0.232205
vn -0.005999 -0.540589 -0.841265
vn -0.032925 0.846327 -0.531646
vn 0.031076 0.214413 -0.976249
vn -0.077586 0.967869 0.239186
vn -0.074719 0.503683 0.860651
vn -0.028214 -0.251167 0.967533
vn 0.0333 -0.854776 0.517928
vn 0.075544 -0.971621 -0.224156
vn 0.075193 -0.535825 -0.840974
vn -0.192645 0.823575 -0.53349
vn -0.036353 0.209642 -0.977102
vn -0.233711 0.943952 0.233095
vn -0.134344 0.498826 0.856227
vn 0.0426 -0.235063 0.971046
vn 0.193062 -0.828732 0.525292
vn 0.232683 -0.947328 -0.220063
vn 0.139154 -0.52247 -0.841226
vn -0.335497 0.777999 -0.531186
vn -0.10717 0.187035 -0.97649
vn -0.362655 0.901723 0.235323
vn -0.172655 0.48625 0.856593
vn 0.117602 -0.20985 0.970635
vn 0.33856 -0.780779 0.52513
vn 0.365348 -0.90452 -0.219918
vn 0.182694 -0.509021 -0.841143
vn -0.487902 0.699488 -0.522176
vn -0.188641 0.137529 -0.972368
vn -0.49044 0.835071 0.24925
vn -0.196948 0.466114 0.862525
vn 0.210369 -0.168463 0.962998
vn 0.495716 -0.700421 0.513494
vn 0.500206 -0.836196 -0.224879
vn 0.220509 -0.497048 -0.839237
vn -0.66863 0.55686 -0.492789
vn -0.286963 0.061822 -0.955945
vn -0.643739 0.715276 0.271992
vn -0.231901 0.440781 0.867141
vn 0.308931 -0.090749 0.946745
vn 0.667355 -0.565784 0.484278
vn 0.648057 -0.719156 -0.250671
vn 0.259342 -0.464631 -0.846675
vn -0.780665 0.423736 -0.459358
vn -0.344791 0.006391 -0.938658
vn -0.751469 0.589812 0.295662
vn -0.27554 0.404223 0.872171
vn 0.358326 -0.018739 0.933408
vn 0.781212 -0.429569 0.452966
vn 0.753039 -0.591568 -0.288061
vn 0.290069 -0.412506 -0.863539
vn -0.839248 0.324095 -0.436607
vn -0.362988 -0.022185 -0.93153
vn -0.817695 0.479199 0.318972
vn -0.309921 0.348539 0.884573
vn 0.379188 0.013693 0.925218
vn 0.844104 -0.325022 0.426438
vn 0.821304 -0.474805 -0.31626
vn 0.324869 -0.351697 -0.877935
vn -0.901751 0.153627 -0.404034
vn -0.377142 -0.0533 -0.92462
vn -0.893786 0.269684 0.358354
vn -0.355519 0.226259 0.90687
vn 0.388286 0.049274 0.920221
vn 0.903413 -0.157905 0.398637
vn 0.894088 -0.273984 -0.354314
vn 0.365369 -0.230329 -0.901917
vn -0.921801 0.054341 -0.383835
vn -0.389644 -0.103383 -0.915145
vn -0.910072 0.179947 0.373347
vn -0.363889 0.200209 0.909671
vn 0.394193 0.103454 0.913186
vn 0.921581 -0.053928 0.384422
vn 0.912294 -0.179818 -0.367948
vn 0.370866 -0.200419 -0.906802
vn -0.932156 -0.059046 -0.35721
vn -0.400048 -0.218177 -0.890146
vn -0.913085 0.134608 0.384912
vn -0.359429 0.248568 0.899458
vn 0.402929 0.217055 0.889121
vn 0.930395 0.059304 0.361729
vn 0.917028 -0.132819 -0.376058
vn 0.368011 -0.248146 -0.896098
vn -0.932462 -0.136877 -0.334333
vn -0.401847 -0.308734 -0.862092
vn -0.913175 0.115607 0.390828
vn -0.357282 0.298277 0.885088
vn 0.404006 0.305665 0.862176
vn 0.930356 0.136438 0.340327
vn 0.917525 -0.1129 -0.381315
vn 0.365917 -0.298231 -0.881568
vn 0.006848 0.999919 -0.010693
vn -0.020079 0.944743 -0.327197
f 285/947/204 286/948/205 294/949/206 293/950/207
f 286/951/205 287/952/208 295/953/209 294/954/206
f 287/955/208 288/956/210 296/957/211 295/958/209
f 288/959/210 289/960/212 297/961/213 296/962/211
f 289/963/212 290/964/214 298/965/215 297/966/213
f 290/967/214 291/968/216 299/969/217 298/970/215
f 291/971/216 292/972/218 300/973/219 299/974/217
f 292/975/218 285/976/204 293/977/207 300/978/219
f 293/979/207 294/980/206 302/981/220 301/982/221
f 294/983/206 295/984/209 303/985/222 302/986/220
f 295/987/209 296/988/211 304/989/223 303/990/222
f 296/991/211 297/992/213 305/993/224 304/994/223
f 297/995/213 298/996/215 306/997/225 305/998/224
f 298/999/215 299/1000/217 307/1001/226 306/1002/225
f 299/1003/217 300/1004/219 308/1005/227 307/1006/226
f 300/1007/219 293/1008/207 301/1009/221 308/1010/227
f 301/1011/221 302/1012/220 310/1013/228 309/1014/229
f 302/1015/220 303/1016/222 311/1017/230 310/1018/228
f 303/1019/222 304/1020/223 312/1021/231 311/1022/230
f 304/1023/223 305/1024/224 313/1025/232 312/1026/231
f 305/1027/224 306/1028/225 314/1029/233 313/1030/232
f 306/1031/225 307/1032/226 315/1033/234 314/1034/233
f 307/1035/226 308/1036/227 316/1037/235 315/1038/234
f 308/1039/227 301/1040/221 309/1041/229 316/1042/235
f 309/1043/229 310/1044/228 318/1045/236 317/1046/237
f 310/1047/228 311/1048/230 319/1049/238 318/1050/236
f 311/1051/230 312/1052/231 320/1053/239 319/1054/238
f 312/1055/231 313/1056/232 321/1057/240 320/1058/239
f 313/1059/232 314/1060/233 322/1061/241 321/1062/240
f 314/1063/233 315/1064/234 323/1065/242 322/1066/241
f 315/1067/234 316/1068/235 324/1069/243 323/1070/242
f 316/1071/235 309/1072/229 317/1073/237 324/1074/243
f 317/1075/237 318/1076/236 326/1077/244 325/1078/245
f 318/1079/236 319/1080/238 327/1081/246 326/1082/244
f 319/1083/238 320/1084/239 328/1085/247 327/1086/246
f 320/1087/239 321/1088/240 329/1089/248 328/1090/247
f 321/1091/240 322/1092/241 330/1093/249 329/1094/248
f 322/1095/241 323/1096/242 331/1097/250 330/1098/249
f 323/1099/242 324/1100/243 332/1101/251 331/1102/250
f 324/1103/243 317/1104/237 325/1105/245 332/1106/251
f 325/1107/245 326/1108/244 334/1109/252 333/1110/253
f 326/1111/244 327/1112/246 335/1113/254 334/1114/252
f 327/1115/246 328/1116/247 336/1117/255 335/1118/254
f 328/1119/247 329/1120/248 337/1121/256 336/1122/255
f 329/1123/248 330/1124/249 338/1125/257 337/1126/256
f 330/1127/249 331/1128/250 339/1129/258 338/1130/257
f 331/1131/250 332/1132/251 340/1133/259 339/1134/258
f 332/1135/251 325/1136/245 333/1137/253 340/1138/259
f 333/1139/253 334/1140/252 342/1141/260 341/1142/261
f 334/1143/252 335/1144/254 343/1145/262 342/1146/260
f 335/1147/254 336/1148/255 344/1149/263 343/1150/262
f 336/1151/255 337/1152/256 345/1153/264 344/1154/263
f 337/1155/256 338/1156/257 346/1157/265 345/1158/264
f 338/1159/257 339/1160/258 347/1161/266 346/1162/265
f 339/1163/258 340/1164/259 348/1165/267 347/1166/266
f 340/1167/259 333/1168/253 341/1169/261 348/1170/267
f 341/1171/261 342/1172/260 350/1173/268 349/1174/269
f 342/1175/260 343/1176/262 351/1177/270 350/1178/268
f 343/1179/262 344/1180/263 352/1181/271 351/1182/270
f 344/1183/263 345/1184/264 353/1185/272 352/1186/271
f 345/1187/264 346/1188/265 354/1189/273 353/1190/272
f 346/1191/265 347/1192/266 355/1193/274 354/1194/273
f 347/1195/266 348/1196/267 356/1197/275 355/1198/274
f 348/1199/267 341/1200/261 349/1201/269 356/1202/275
f 349/1203/269 350/1204/268 358/1205/276 357/1206/277
f 350/1207/268 351/1208/270 359/1209/278 358/1210/276
f 351/1211/270 352/1212/271 360/1213/279 359/1214/278
f 352/1215/271 353/1216/272 361/1217/280 360/1218/279
f 353/1219/272 354/1220/273 362/1221/281 361/1222/280
f 354/1223/273 355/1224/274 363/1225/282 362/1226/281
f 355/1227/274 356/1228/275 364/1229/283 363/1230/282
f 356/1231/275 349/1232/269 357/1233/277 364/1234/283
f 357/1235/277 358/1236/276 366/1237/284 365/1238/285
f 358/1239/276 359/1240/278 367/1241/286 366/1242/284
f 359/1243/278 360/1244/279 368/1245/287 367/1246/286
f 360/1247/279 361/1248/280 369/1249/288 368/1250/287
f 361/1251/280 362/1252/281 370/1253/289 369/1254/288
f 362/1255/281 363/1256/282 371/1257/290 370/1258/289
f 363/1259/282 364/1260/283 372/1261/291 371/1262/290
f 364/1263/283 357/1264/277 365/1265/285 372/1266/291
f 365/1267/285 366/1268/284 374/1269/292 373/1270/293
f 366/1271/284 367/1272/286 375/1273/294 374/1274/292
f 367/1275/286 368/1276/287 376/1277/295 375/1278/294
f 368/1279/287 369/1280/288 377/1281/296 376/1282/295
f 369/1283/288 370/1284/289 378/1285/297 377/1286/296
f 370/1287/289 371/1288/290 379/1289/298 378/1290/297
f 371/1291/290 372/1292/291 380/1293/299 379/1294/298
f 372/1295/291 365/1296/285 373/1297/293 380/1298/299
f 373/1299/293 374/1300/292 382/1301/300 381/1302/301
f 374/1303/292 375/1304/294 383/1305/302 382/1306/300
f 375/1307/294 376/1308/295 384/1309/303 383/1310/302
f 376/1311/295 377/1312/296 385/1313/304 384/1314/303
f 377/1315/296 378/1316/297 386/1317/305 385/1318/304
f 378/1319/297 379/1320/298 387/1321/306 386/1322/305
f 379/1323/298 380/1324/299 388/1325/307 387/1326/306
f 380/1327/299 373/1328/293 381/1329/301 388/1330/307
f 381/1331/301 382/1332/300 390/1333/308 389/1334/309
f 382/1335/300 383/1336/302 391/1337/310 390/1338/308
f 383/1339/302 384/1340/303 392/1341/311 391/1342/310
f 384/1343/303 385/1344/304 393/1345/312 392/1346/311
f 385/1347/304 386/1348/305 394/1349/313 393/1350/312
f 386/1351/305 387/1352/306 395/1353/314 394/1354/313
f 387/1355/306 388/1356/307 396/1357/315 395/1358/314
f 388/1359/307 381/1360/301 389/1361/309 396/1362/315
f 389/1363/309 390/1364/308 398/1365/316 397/1366/317
f 390/1367/308 391/1368/310 399/1369/318 398/1370/316
f 391/1371/310 392/1372/311 400/1373/319 399/1374/318
f 392/1375/311 393/1376/312 401/1377/320 400/1378/319
f 393/1379/312 394/1380/313 402/1381/321 401/1382/320
f 394/1383/313 395/1384/314 403/1385/322 402/1386/321
f 395/1387/314 396/1388/315 404/1389/323 403/1390/322
f 396/1391/315 389/1392/309 397/1393/317 404/1394/323
f 397/1395/317 398/1396/316 406/1397/324 405/1398/325
f 398/1399/316 399/1400/318 407/1401/326 406/1402/324
f 399/1403/318 400/1404/319 408/1405/327 407/1406/326
f 400/1407/319 401/1408/320 409/1409/328 408/1410/327
f 401/1411/320 402/1412/321 410/1413/329 409/1414/328
f 402/1415/321 403/1416/322 411/1417/330 410/1418/329
f 403/1419/322 404/1420/323 412/1421/331 411/1422/330
f 404/1423/323 397/1424/317 405/1425/325 412/1426/331
f 405/1427/325 406/1428/324 414/1429/332 413/1430/333
f 406/1431/324 407/1432/326 415/1433/334 414/1434/332
f 407/1435/326 408/1436/327 416/1437/335 415/1438/334
f 408/1439/327 409/1440/328 417/1441/336 416/1442/335
f 409/1443/328 410/1444/329 418/1445/337 417/1446/336
f 410/1447/329 411/1448/330 419/1449/338 418/1450/337
f 411/1451/330 412/1452/331 420/1453/339 419/1454/338
f 412/1455/331 405/1456/325 413/1457/333 420/1458/339
f 413/1459/333 414/1460/332 422/1461/340 421/1462/341
f 414/1463/332 415/1464/334 423/1465/342 422/1466/340
f 415/1467/334 416/1468/335 424/1469/343 423/1470/342
f 416/1471/335 417/1472/336 425/1473/344 424/1474/343
f 417/1475/336 418/1476/337 426/1477/345 425/1478/344
f 418/1479/337 419/1480/338 427/1481/346 426/1482/345
f 419/1483/338 420/1484/339 428/1485/347 427/1486/346
f 420/1487/339 413/1488/333 421/1489/341 428/1490/347
f 421/1491/341 422/1492/340 430/1493/348 429/1494/349
f 422/1495/340 423/1496/342 431/1497/350 430/1498/348
f 423/1499/342 424/1500/343 432/1501/351 431/1502/350
f 424/1503/343 425/1504/344 433/1505/352 432/1506/351
f 425/1507/344 426/1508/345 434/1509/353 433/1510/352
f 426/1511/345 427/1512/346 435/1513/354 434/1514/353
f 427/1515/346 428/1516/347 436/1517/355 435/1518/354
f 428/1519/347 421/1520/341 429/1521/349 436/1522/355
f 429/1523/349 430/1524/348 438/1525/356 437/1526/357
f 430/1527/348 431/1528/350 439/1529/358 438/1530/356
f 431/1531/350 432/1532/351 440/1533/359 439/1534/358
f 432/1535/351 433/1536/352 441/1537/360 440/1538/359
f 433/1539/352 434/1540/353 442/1541/361 441/1542/360
f 434/1543/353 435/1544/354 443/1545/362 442/1546/361
f 435/1547/354 436/1548/355 444/1549/363 443/1550/362
f 436/1551/355 429/1552/349 437/1553/357 444/1554/363
f 437/1555/357 438/1556/356 446/1557/364 445/1558/365
f 438/1559/356 439/1560/358 447/1561/366 446/1562/364
f 439/1563/358 440/1564/359 448/1565/367 447/1566/366
f 440/1567/359 441/1568/360 449/1569/368 448/1570/367
f 441/1571/360 442/1572/361 450/1573/369 449/1574/368
f 442/1575/361 443/1576/362 451/1577/370 450/1578/369
f 443/1579/362 444/1580/363 452/1581/371 451/1582/370
f 444/1583/363 437/1584/357 445/1585/365 452/1586/371
f 445/1587/365 446/1588/364 454/1589/372 453/1590/373
f 446/1591/364 447/1592/366 455/1593/374 454/1594/372
f 447/1595/366 448/1596/367 456/1597/375 455/1598/374
f 448/1599/367 449/1600/368 457/1601/376 456/1602/375
f 449/1603/368 450/1604/369 458/1605/377 457/1606/376
f 450/1607/369 451/1608/370 459/1609/378 458/1610/377
f 451/1611/370 452/1612/371 460/1613/379 459/1614/378
f 452/1615/371 445/1616/365 453/1617/373 460/1618/379
f 453/1619/373 454/1620/372 462/1621/380 461/1622/381
f 454/1623/372 455/1624/374 463/1625/382 462/1626/380
f 455/1627/374 456/1628/375 464/1629/383 463/1630/382
f 456/1631/375 457/1632/376 465/1633/384 464/1634/383
f 457/1635/376 458/1636/377 466/1637/385 465/1638/384
f 458/1639/377 459/1640/378 467/1641/386 466/1642/385
f 459/1643/378 460/1644/379 468/1645/387 467/1646/386
f 460/1647/379 453/1648/373 461/1649/381 468/1650/387
f 461/1651/381 462/1652/380 470/1653/388 469/1654/389
f 462/1655/380 463/1656/382 471/1657/390 470/1658/388
f 463/1659/382 464/1660/383 472/1661/391 471/1662/390
f 464/1663/383 465/1664/384 473/1665/392 472/1666/391
f 465/1667/384 466/1668/385 474/1669/393 473/1670/392
f 466/1671/385 467/1672/386 475/1673/394 474/1674/393
f 467/1675/386 468/1676/387 476/1677/395 475/1678/394
f 468/1679/387 461/1680/381 469/1681/389 476/1682/395
f 469/1683/389 470/1684/388 478/1685/396 477/1686/397
f 470/1687/388 471/1688/390 479/1689/398 478/1690/396
f 471/1691/390 472/1692/391 480/1693/399 479/1694/398
f 472/1695/391 473/1696/392 481/1697/400 480/1698/399
f 473/1699/392 474/1700/393 482/1701/401 481/1702/400
f 474/1703/393 475/1704/394 483/1705/402 482/1706/401
f 475/1707/394 476/1708/395 484/1709/403 483/1710/402
f 476/1711/395 469/1712/389 477/1713/397 484/1714/403
f 477/1715/397 478/1716/396 486/1717/404 485/1718/405
f 478/1719/396 479/1720/398 487/1721/406 486/1722/404
f 479/1723/398 480/1724/399 488/1725/407 487/1726/406
f 480/1727/399 481/1728/400 489/1729/408 488/1730/407
f 481/1731/400 482/1732/401 490/1733/409 489/1734/408
f 482/1735/401 483/1736/402 491/1737/410 490/1738/409
f 483/1739/402 484/1740/403 492/1741/411 491/1742/410
f 484/1743/403 477/1744/397 485/1745/405 492/1746/411
f 485/1747/405 486/1748/404 494/1749/412 493/1750/413
f 486/1751/404 487/1752/406 495/1753/414 494/1754/412
f 487/1755/406 488/1756/407 496/1757/415 495/1758/414
f 488/1759/407 489/1760/408 497/1761/416 496/1762/415
f 489/1763/408 490/1764/409 498/1765/417 497/1766/416
f 490/1767/409 491/1768/410 499/1769/418 498/1770/417
f 491/1771/410 492/1772/411 500/1773/419 499/1774/418
f 492/1775/411 485/1776/405 493/1777/413 500/1778/419
f 493/1779/413 494/1780/412 502/1781/420 501/1782/421
f 494/1783/412 495/1784/414 503/1785/422 502/1786/420
f 495/1787/414 496/1788/415 504/1789/423 503/1790/422
f 496/1791/415 497/1792/416 505/1793/424 504/1794/423
f 497/1795/416 498/1796/417 506/1797/425 505/1798/424
f 498/1799/417 499/1800/418 507/1801/426 506/1802/425
f 499/1803/418 500/1804/419 508/1805/427 507/1806/426
f 500/1807/419 493/1808/413 501/1809/421 508/1810/427
f 501/1811/421 502/1812/420 510/1813/428 509/1814/429
f 502/1815/420 503/1816/422 511/1817/430 510/1818/428
f 503/1819/422 504/1820/423 512/1821/431 511/1822/430
f 504/1823/423 505/1824/424 513/1825/432 512/1826/431
f 505/1827/424 506/1828/425 514/1829/433 513/1830/432
f 506/1831/425 507/1832/426 515/1833/434 514/1834/433
f 507/1835/426 508/1836/427 516/1837/435 515/1838/434
f 508/1839/427 501/1840/421 509/1841/429 516/1842/435
f 509/1843/429 510/1844/428 518/1845/436 517/1846/437
f 510/1847/428 511/1848/430 519/1849/438 518/1850/436
f 511/1851/430 512/1852/431 520/1853/439 519/1854/438
f 512/1855/431 513/1856/432 521/1857/440 520/1858/439
f 513/1859/432 514/1860/433 522/1861/441 521/1862/440
f 514/1863/433 515/1864/434 523/1865/442 522/1866/441
f 515/1867/434 516/1868/435 524/1869/443 523/1870/442
f 516/1871/435 509/1872/429 517/1873/437 524/1874/443
f 517/1875/437 518/1876/436 526/1877/444 525/1878/445
f 518/1879/436 519/1880/438 527/1881/446 526/1882/444
f 519/1883/438 520/1884/439 528/1885/447 527/1886/446
f 520/1887/439 521/1888/440 529/1889/448 528/1890/447
f 521/1891/440 522/1892/441 530/1893/449 529/1894/448
f 522/1895/441 523/1896/442 531/1897/450 530/1898/449
f 523/1899/442 524/1900/443 532/1901/451 531/1902/450
f 524/1903/443 517/1904/437 525/1905/445 532/1906/451
f 525/1907/445 526/1908/444 534/1909/452 533/1910/453
f 526/1911/444 527/1912/446 535/1913/454 534/1914/452
f 527/1915/446 528/1916/447 536/1917/455 535/1918/454
f 528/1919/447 529/1920/448 537/1921/456 536/1922/455
f 529/1923/448 530/1924/449 538/1925/457 537/1926/456
f 530/1927/449 531/1928/450 539/1929/458 538/1930/457
f 531/1931/450 532/1932/451 540/1933/459 539/1934/458
f 532/1935/451 525/1936/445 533/1937/453 540/1938/459
f 533/1939/453 534/1940/452 542/1941/460 541/1942/461
f 534/1943/452 535/1944/454 543/1945/462 542/1946/460
f 535/1947/454 536/1948/455 544/1949/463 543/1950/462
f 536/1951/455 537/1952/456 545/1953/464 544/1954/463
f 537/1955/456 538/1956/457 546/1957/465 545/1958/464
f 538/1959/457 539/1960/458 547/1961/466 546/1962/465
f 539/1963/458 540/1964/459 548/1965/467 547/1966/466
f 540/1967/459 533/1968/453 541/1969/461 548/1970/467
f 286/1971/468 285/1972/468 549/1973/468
f 287/1974/468 286/1975/468 549/1976/468
f 288/1977/468 287/1978/468 549/1979/468
f 289/1980/468 288/1981/468 549/1982/468
f 290/1983/468 289/1984/468 549/1985/468
f 291/1986/468 290/1987/468 549/1988/468
f 292/1989/468 291/1990/468 549/1991/468
f 285/1992/468 292/1993/468 549/1994/468
f 550/1995/469 541/1996/469 542/1997/469
f 550/1998/469 542/1999/469 543/2000/469
f 550/2001/469 543/2002/469 544/2003/469
f 550/2004/469 544/2005/469 545/2006/469
f 550/2007/469 545/2008/469 546/2009/469
f 550/2010/469 546/2011/469 547/2012/469
f 550/2013/469 547/2014/469 548/2015/469
f 550/2016/469 548/2017/469 541/2018/469
