# AFL Checkout Counter V1 end cap (right), generated by tools/build-checkout-counter-v1.mjs
mtllib cap_right.mtl
o counter_cap_m
usemtl counter
v 1.021875 0.007292 0.141667
v 1.021875 0.007292 0.967708
v 1.021875 0.992708 0.967708
v 1.021875 0.992708 0.141667
v 1.014583 0 0.134375
v 1.014583 0 0.975
v 1.014583 1 0.975
v 1.014583 1 0.134375
v 1.007292 0 0.134375
v 1.007292 0 0.975
v 1.007292 1 0.975
v 1.007292 1 0.134375
v 1 0.007292 0.141667
v 1 0.007292 0.967708
v 1 0.992708 0.967708
v 1 0.992708 0.141667
v 1.021875 0.007292 0.141667
v 1.021875 0.007292 0.967708
v 1.021875 0.992708 0.967708
v 1.021875 0.992708 0.141667
v 1 0.007292 0.141667
v 1 0.007292 0.967708
v 1 0.992708 0.967708
v 1 0.992708 0.141667
vt 0.003438 0.050293
vt 0.116374 0.050293
vt 0.117371 0.048883
vt 0.002441 0.048883
vt 0.270976 0.053766
vt 0.136251 0.053766
vt 0.135254 0.055176
vt 0.271973 0.055176
vt 0.668132 0.053766
vt 0.555196 0.053766
vt 0.554199 0.055176
vt 0.669128 0.055176
vt 0.791524 0.055176
vt 0.926249 0.055176
vt 0.927246 0.053766
vt 0.790527 0.053766
vt 0.002441 0.035645
vt 0.117371 0.035645
vt 0.117371 0.034648
vt 0.002441 0.034648
vt 0.668457 0.040527
vt 0.805176 0.040527
vt 0.805176 0.03953
vt 0.668457 0.03953
vt 0.235535 0.034648
vt 0.120605 0.034648
vt 0.120605 0.035645
vt 0.235535 0.035645
vt 0.944824 0.03953
vt 0.808105 0.03953
vt 0.808105 0.040527
vt 0.944824 0.040527
vt 0.120605 0.050293
vt 0.235535 0.050293
vt 0.234538 0.048883
vt 0.121602 0.048883
vt 0.274902 0.055176
vt 0.411621 0.055176
vt 0.410624 0.053766
vt 0.275899 0.053766
vt 0.787292 0.053766
vt 0.672363 0.053766
vt 0.67336 0.055176
vt 0.786296 0.055176
vt 0.55127 0.053766
vt 0.414551 0.053766
vt 0.415548 0.055176
vt 0.550273 0.055176
vt 0.369588 0.742676
vt 0.369588 0.62974
vt 0.234863 0.62974
vt 0.234863 0.62974
vt 0.234863 0.742676
vt 0.369588 0.742676
vt 0.507284 0.62974
vt 0.372559 0.62974
vt 0.372559 0.742676
vt 0.372559 0.742676
vt 0.507284 0.742676
vt 0.507284 0.62974
vn 0.707107 -0.707107 0
vn 0.707107 0 0.707107
vn 0.707107 0.707107 0
vn 0.707107 0 -0.707107
vn 0 -1 0
vn 0 0 1
vn 0 1 0
vn 0 0 -1
vn -0.707107 -0.707107 0
vn -0.707107 0 0.707107
vn -0.707107 0.707107 0
vn -0.707107 0 -0.707107
vn 1 0 0
vn -1 0 0
f 1/1/1 2/2/1 6/3/1 5/4/1
f 2/5/2 3/6/2 7/7/2 6/8/2
f 3/9/3 4/10/3 8/11/3 7/12/3
f 4/13/4 1/14/4 5/15/4 8/16/4
f 5/17/5 6/18/5 10/19/5 9/20/5
f 6/21/6 7/22/6 11/23/6 10/24/6
f 7/25/7 8/26/7 12/27/7 11/28/7
f 8/29/8 5/30/8 9/31/8 12/32/8
f 9/33/9 10/34/9 14/35/9 13/36/9
f 10/37/10 11/38/10 15/39/10 14/40/10
f 11/41/11 12/42/11 16/43/11 15/44/11
f 12/45/12 9/46/12 13/47/12 16/48/12
f 18/49/13 17/50/13 20/51/13
f 20/52/13 19/53/13 18/54/13
f 24/55/14 21/56/14 22/57/14
f 22/58/14 23/59/14 24/60/14
