# AFL Checkout Counter V1 end cap (left), generated by tools/build-checkout-counter-v1.mjs
mtllib cap_left.mtl
o counter_cap
usemtl counter
v -0.021875 0.007292 0.141667
v -0.021875 0.007292 0.967708
v -0.021875 0.992708 0.967708
v -0.021875 0.992708 0.141667
v -0.014583 0 0.134375
v -0.014583 0 0.975
v -0.014583 1 0.975
v -0.014583 1 0.134375
v -0.007292 0 0.134375
v -0.007292 0 0.975
v -0.007292 1 0.975
v -0.007292 1 0.134375
v 0 0.007292 0.141667
v 0 0.007292 0.967708
v 0 0.992708 0.967708
v 0 0.992708 0.141667
v -0.021875 0.007292 0.141667
v -0.021875 0.007292 0.967708
v -0.021875 0.992708 0.967708
v -0.021875 0.992708 0.141667
v 0 0.007292 0.141667
v 0 0.007292 0.967708
v 0 0.992708 0.967708
v 0 0.992708 0.141667
vt 0.002441 0.048883
vt 0.117371 0.048883
vt 0.116374 0.050293
vt 0.003438 0.050293
vt 0.271973 0.055176
vt 0.135254 0.055176
vt 0.136251 0.053766
vt 0.270976 0.053766
vt 0.669128 0.055176
vt 0.554199 0.055176
vt 0.555196 0.053766
vt 0.668132 0.053766
vt 0.790527 0.053766
vt 0.927246 0.053766
vt 0.926249 0.055176
vt 0.791524 0.055176
vt 0.002441 0.034648
vt 0.117371 0.034648
vt 0.117371 0.035645
vt 0.002441 0.035645
vt 0.668457 0.03953
vt 0.805176 0.03953
vt 0.805176 0.040527
vt 0.668457 0.040527
vt 0.235535 0.035645
vt 0.120605 0.035645
vt 0.120605 0.034648
vt 0.235535 0.034648
vt 0.944824 0.040527
vt 0.808105 0.040527
vt 0.808105 0.03953
vt 0.944824 0.03953
vt 0.121602 0.048883
vt 0.234538 0.048883
vt 0.235535 0.050293
vt 0.120605 0.050293
vt 0.275899 0.053766
vt 0.410624 0.053766
vt 0.411621 0.055176
vt 0.274902 0.055176
vt 0.786296 0.055176
vt 0.67336 0.055176
vt 0.672363 0.053766
vt 0.787292 0.053766
vt 0.550273 0.055176
vt 0.415548 0.055176
vt 0.414551 0.053766
vt 0.55127 0.053766
vt 0.234863 0.62974
vt 0.369588 0.62974
vt 0.369588 0.742676
vt 0.369588 0.742676
vt 0.234863 0.742676
vt 0.234863 0.62974
vt 0.372559 0.742676
vt 0.372559 0.62974
vt 0.507284 0.62974
vt 0.507284 0.62974
vt 0.507284 0.742676
vt 0.372559 0.742676
vn -0.707107 -0.707107 0
vn -0.707107 0 0.707107
vn -0.707107 0.707107 0
vn -0.707107 0 -0.707107
vn 0 -1 0
vn 0 0 1
vn 0 1 0
vn 0 0 -1
vn 0.707107 -0.707107 0
vn 0.707107 0 0.707107
vn 0.707107 0.707107 0
vn 0.707107 0 -0.707107
vn -1 0 0
vn 1 0 0
f 5/1/1 6/2/1 2/3/1 1/4/1
f 6/5/2 7/6/2 3/7/2 2/8/2
f 7/9/3 8/10/3 4/11/3 3/12/3
f 8/13/4 5/14/4 1/15/4 4/16/4
f 9/17/5 10/18/5 6/19/5 5/20/5
f 10/21/6 11/22/6 7/23/6 6/24/6
f 11/25/7 12/26/7 8/27/7 7/28/7
f 12/29/8 9/30/8 5/31/8 8/32/8
f 13/33/9 14/34/9 10/35/9 9/36/9
f 14/37/10 15/38/10 11/39/10 10/40/10
f 15/41/11 16/42/11 12/43/11 11/44/11
f 16/45/12 13/46/12 9/47/12 12/48/12
f 20/49/13 17/50/13 18/51/13
f 18/52/13 19/53/13 20/54/13
f 22/55/14 21/56/14 24/57/14
f 24/58/14 23/59/14 22/60/14
