# AFL Checkout Counter V1 gate (closed, item), generated by tools/build-checkout-counter-v1.mjs
mtllib gate_item.mtl
o counter_g_flap
usemtl counter
v 0 0.9375 0.15
v 0 0.9375 0.975
v 0 0.98875 0.975
v 0 1 0.96375
v 0 1 0.16125
v 0 0.98875 0.15
v 1 0.9375 0.15
v 1 0.9375 0.975
v 1 0.98875 0.975
v 1 1 0.96375
v 1 1 0.16125
v 1 0.98875 0.15
v 0 0.9375 0.15
v 0 0.9375 0.975
v 0 0.98875 0.975
v 0 1 0.96375
v 0 1 0.16125
v 0 0.98875 0.15
v 1 0.9375 0.15
v 1 0.9375 0.975
v 1 0.98875 0.975
v 1 1 0.96375
v 1 1 0.16125
v 1 0.98875 0.15
vt 0.786621 0.629883
vt 0.786621 0.742676
vt 0.649902 0.742676
vt 0.649902 0.629883
vt 0.418457 0.19563
vt 0.418457 0.202637
vt 0.281738 0.202637
vt 0.281738 0.19563
vt 0.14209 0.083496
vt 0.14209 0.081321
vt 0.278809 0.081321
vt 0.278809 0.083496
vt 0.499512 0.626465
vt 0.499512 0.516748
vt 0.63623 0.516748
vt 0.63623 0.626465
vt 0.281738 0.083496
vt 0.281738 0.081321
vt 0.418457 0.081321
vt 0.418457 0.083496
vt 0.421387 0.202637
vt 0.421387 0.19563
vt 0.558105 0.19563
vt 0.558105 0.202637
vt 0.76416 0.214771
vt 0.76416 0.207764
vt 0.876953 0.207764
vt 0.76416 0.214771
vt 0.876953 0.207764
vt 0.876953 0.214771
vt 0.76416 0.214771
vt 0.876953 0.214771
vt 0.875415 0.216309
vt 0.875415 0.216309
vt 0.765698 0.216309
vt 0.76416 0.214771
vt 0.993164 0.216309
vt 0.880371 0.216309
vt 0.880371 0.209302
vt 0.993164 0.209302
vt 0.993164 0.216309
vt 0.880371 0.209302
vt 0.991626 0.207764
vt 0.993164 0.209302
vt 0.880371 0.209302
vt 0.880371 0.209302
vt 0.881909 0.207764
vt 0.991626 0.207764
vn 0 -1 0
vn 0 0 1
vn 0 0.707107 0.707107
vn 0 1 0
vn 0 0.707107 -0.707107
vn 0 0 -1
vn -1 0 0
vn 1 0 0
f 7/1/1 8/2/1 2/3/1 1/4/1
f 8/5/2 9/6/2 3/7/2 2/8/2
f 9/9/3 10/10/3 4/11/3 3/12/3
f 10/13/4 11/14/4 5/15/4 4/16/4
f 11/17/5 12/18/5 6/19/5 5/20/5
f 12/21/6 7/22/6 1/23/6 6/24/6
f 18/25/7 13/26/7 14/27/7
f 18/28/7 14/29/7 15/30/7
f 18/31/7 15/32/7 16/33/7
f 16/34/7 17/35/7 18/36/7
f 20/37/8 19/38/8 24/39/8
f 21/40/8 20/41/8 24/42/8
f 22/43/8 21/44/8 24/45/8
f 24/46/8 23/47/8 22/48/8
o counter_g_flap_trim
usemtl counter
v 0 0.928125 0.134375
v 0 0.928125 0.15
v 0 1 0.15
v 0 1 0.134375
v 1 0.928125 0.134375
v 1 0.928125 0.15
v 1 1 0.15
v 1 1 0.134375
v 0 0.928125 0.134375
v 0 0.928125 0.15
v 0 1 0.15
v 0 1 0.134375
v 1 0.928125 0.134375
v 1 0.928125 0.15
v 1 1 0.15
v 1 1 0.134375
vt 0.418457 0.069641
vt 0.418457 0.071777
vt 0.281738 0.071777
vt 0.281738 0.069641
vt 0.788574 0.220154
vt 0.788574 0.22998
vt 0.651855 0.22998
vt 0.651855 0.220154
vt 0.421387 0.071777
vt 0.421387 0.069641
vt 0.558105 0.069641
vt 0.558105 0.071777
vt 0.791504 0.22998
vt 0.791504 0.220154
vt 0.928223 0.220154
vt 0.928223 0.22998
vt 0.643066 0.069641
vt 0.652893 0.069641
vt 0.652893 0.071777
vt 0.652893 0.071777
vt 0.643066 0.071777
vt 0.643066 0.069641
vt 0.656738 0.071777
vt 0.656738 0.069641
vt 0.666565 0.069641
vt 0.666565 0.069641
vt 0.666565 0.071777
vt 0.656738 0.071777
vn 0 -1 0
vn 0 0 1
vn 0 1 0
vn 0 0 -1
vn -1 0 0
vn 1 0 0
f 29/49/9 30/50/9 26/51/9 25/52/9
f 30/53/10 31/54/10 27/55/10 26/56/10
f 31/57/11 32/58/11 28/59/11 27/60/11
f 32/61/12 29/62/12 25/63/12 28/64/12
f 36/65/13 33/66/13 34/67/13
f 34/68/13 35/69/13 36/70/13
f 38/71/14 37/72/14 40/73/14
f 40/74/14 39/75/14 38/76/14
o counter_g_door
usemtl counter
v 0.0325 0.0825 0.1875
v 0.9675 0.0825 0.1875
v 0.9675 0.9175 0.1875
v 0.0325 0.9175 0.1875
v 0.025 0.075 0.195
v 0.975 0.075 0.195
v 0.975 0.925 0.195
v 0.025 0.925 0.195
v 0.025 0.075 0.23
v 0.975 0.075 0.23
v 0.975 0.925 0.23
v 0.025 0.925 0.23
v 0.0325 0.0825 0.2375
v 0.9675 0.0825 0.2375
v 0.9675 0.9175 0.2375
v 0.0325 0.9175 0.2375
v 0.0325 0.0825 0.1875
v 0.9675 0.0825 0.1875
v 0.9675 0.9175 0.1875
v 0.0325 0.9175 0.1875
v 0.0325 0.0825 0.2375
v 0.9675 0.0825 0.2375
v 0.9675 0.9175 0.2375
v 0.0325 0.9175 0.2375
vt 0.497607 0.058608
vt 0.625439 0.058608
vt 0.626465 0.060059
vt 0.496582 0.060059
vt 0.003467 0.058608
vt 0.117627 0.058608
vt 0.118652 0.060059
vt 0.002441 0.060059
vt 0.751514 0.058608
vt 0.879346 0.058608
vt 0.880371 0.060059
vt 0.750488 0.060059
vt 0.631396 0.058608
vt 0.745557 0.058608
vt 0.746582 0.060059
vt 0.630371 0.060059
vt 0.211426 0.120703
vt 0.341309 0.120703
vt 0.341309 0.125488
vt 0.211426 0.125488
vt 0.477051 0.120703
vt 0.593262 0.120703
vt 0.593262 0.125488
vt 0.477051 0.125488
vt 0.344238 0.120703
vt 0.474121 0.120703
vt 0.474121 0.125488
vt 0.344238 0.125488
vt 0.597168 0.120703
vt 0.713379 0.120703
vt 0.713379 0.125488
vt 0.597168 0.125488
vt 0.362793 0.058608
vt 0.492676 0.058608
vt 0.49165 0.060059
vt 0.363818 0.060059
vt 0.122559 0.058608
vt 0.23877 0.058608
vt 0.237744 0.060059
vt 0.123584 0.060059
vt 0.002441 0.053726
vt 0.132324 0.053726
vt 0.131299 0.055176
vt 0.003467 0.055176
vt 0.242676 0.058608
vt 0.358887 0.058608
vt 0.357861 0.060059
vt 0.243701 0.060059
vt 0.671387 0.749609
vt 0.799219 0.749609
vt 0.799219 0.86377
vt 0.799219 0.86377
vt 0.671387 0.86377
vt 0.671387 0.749609
vt 0.802246 0.86377
vt 0.802246 0.749609
vt 0.930078 0.749609
vt 0.930078 0.749609
vt 0.930078 0.86377
vt 0.802246 0.86377
vn 0 -0.707107 -0.707107
vn 0.707107 0 -0.707107
vn 0 0.707107 -0.707107
vn -0.707107 0 -0.707107
vn 0 -1 0
vn 1 0 0
vn 0 1 0
vn -1 0 0
vn 0 -0.707107 0.707107
vn 0.707107 0 0.707107
vn 0 0.707107 0.707107
vn -0.707107 0 0.707107
vn 0 0 -1
vn 0 0 1
f 41/77/15 42/78/15 46/79/15 45/80/15
f 42/81/16 43/82/16 47/83/16 46/84/16
f 43/85/17 44/86/17 48/87/17 47/88/17
f 44/89/18 41/90/18 45/91/18 48/92/18
f 45/93/19 46/94/19 50/95/19 49/96/19
f 46/97/20 47/98/20 51/99/20 50/100/20
f 47/101/21 48/102/21 52/103/21 51/104/21
f 48/105/22 45/106/22 49/107/22 52/108/22
f 49/109/23 50/110/23 54/111/23 53/112/23
f 50/113/24 51/114/24 55/115/24 54/116/24
f 51/117/25 52/118/25 56/119/25 55/120/25
f 52/121/26 49/122/26 53/123/26 56/124/26
f 58/125/27 57/126/27 60/127/27
f 60/128/27 59/129/27 58/130/27
f 64/131/28 61/132/28 62/133/28
f 62/134/28 63/135/28 64/136/28
o counter_g_door_trim
usemtl counter
v 0.0375 0.125 0.18125
v 0.9625 0.125 0.18125
v 0.9625 0.146875 0.18125
v 0.0375 0.146875 0.18125
v 0.0375 0.125 0.1875
v 0.9625 0.125 0.1875
v 0.9625 0.146875 0.1875
v 0.0375 0.146875 0.1875
v 0.0375 0.125 0.18125
v 0.9625 0.125 0.18125
v 0.9625 0.146875 0.18125
v 0.0375 0.146875 0.18125
v 0.0375 0.125 0.1875
v 0.9625 0.125 0.1875
v 0.9625 0.146875 0.1875
v 0.0375 0.146875 0.1875
vt 0.14209 0.022095
vt 0.268555 0.022095
vt 0.268555 0.022949
vt 0.14209 0.022949
vt 0.442871 0.022095
vt 0.445862 0.022095
vt 0.445862 0.022949
vt 0.442871 0.022949
vt 0.271973 0.022095
vt 0.398438 0.022095
vt 0.398438 0.022949
vt 0.271973 0.022949
vt 0.449707 0.022095
vt 0.452698 0.022095
vt 0.452698 0.022949
vt 0.449707 0.022949
vt 0.749512 0.105896
vt 0.875977 0.105896
vt 0.875977 0.108887
vt 0.875977 0.108887
vt 0.749512 0.108887
vt 0.749512 0.105896
vt 0.002441 0.102051
vt 0.002441 0.09906
vt 0.128906 0.09906
vt 0.128906 0.09906
vt 0.128906 0.102051
vt 0.002441 0.102051
vn 0 -1 0
vn 1 0 0
vn 0 1 0
vn -1 0 0
vn 0 0 -1
vn 0 0 1
f 65/137/29 66/138/29 70/139/29 69/140/29
f 66/141/30 67/142/30 71/143/30 70/144/30
f 67/145/31 68/146/31 72/147/31 71/148/31
f 68/149/32 65/150/32 69/151/32 72/152/32
f 74/153/33 73/154/33 76/155/33
f 76/156/33 75/157/33 74/158/33
f 80/159/34 77/160/34 78/161/34
f 78/162/34 79/163/34 80/164/34
o counter_g_door_pull
usemtl counter
v 0.8175 0.525 0.2425
v 0.8175 0.525 0.26375
v 0.8325 0.525 0.26375
v 0.8325 0.525 0.2425
v 0.8125 0.53 0.2375
v 0.8125 0.53 0.26875
v 0.8375 0.53 0.26875
v 0.8375 0.53 0.2375
v 0.8125 0.6575 0.2375
v 0.8125 0.6575 0.26875
v 0.8375 0.6575 0.26875
v 0.8375 0.6575 0.2375
v 0.8175 0.6625 0.2425
v 0.8175 0.6625 0.26375
v 0.8325 0.6625 0.26375
v 0.8325 0.6625 0.2425
v 0.8175 0.525 0.2425
v 0.8175 0.525 0.26375
v 0.8325 0.525 0.26375
v 0.8325 0.525 0.2425
v 0.8175 0.6625 0.2425
v 0.8175 0.6625 0.26375
v 0.8325 0.6625 0.26375
v 0.8325 0.6625 0.2425
vt 0.793164 0.029795
vt 0.796069 0.029795
vt 0.796753 0.030762
vt 0.79248 0.030762
vt 0.708203 0.025889
vt 0.710254 0.025889
vt 0.710938 0.026855
vt 0.70752 0.026855
vt 0.803882 0.030762
vt 0.800977 0.030762
vt 0.800293 0.029795
vt 0.804565 0.029795
vt 0.818652 0.030762
vt 0.816602 0.030762
vt 0.815918 0.029795
vt 0.819336 0.029795
vt 0.360693 0.112427
vt 0.360693 0.116699
vt 0.343262 0.116699
vt 0.343262 0.112427
vt 0.812012 0.116699
vt 0.812012 0.113281
vt 0.829443 0.113281
vt 0.829443 0.116699
vt 0.36377 0.116699
vt 0.36377 0.112427
vt 0.381201 0.112427
vt 0.381201 0.116699
vt 0.83252 0.116699
vt 0.83252 0.113281
vt 0.849951 0.113281
vt 0.849951 0.116699
vt 0.808105 0.029795
vt 0.812378 0.029795
vt 0.811694 0.030762
vt 0.808789 0.030762
vt 0.826172 0.030762
vt 0.822754 0.030762
vt 0.823438 0.029795
vt 0.825488 0.029795
vt 0.703979 0.026855
vt 0.699707 0.026855
vt 0.700391 0.025889
vt 0.703296 0.025889
vt 0.82959 0.029795
vt 0.833008 0.029795
vt 0.832324 0.030762
vt 0.830273 0.030762
vt 0.673315 0.071777
vt 0.67041 0.071777
vt 0.67041 0.069727
vt 0.67041 0.069727
vt 0.673315 0.069727
vt 0.673315 0.071777
vt 0.67627 0.071777
vt 0.67627 0.069727
vt 0.679175 0.069727
vt 0.679175 0.069727
vt 0.679175 0.071777
vt 0.67627 0.071777
vn -0.707107 -0.707107 0
vn 0 -0.707107 0.707107
vn 0.707107 -0.707107 0
vn 0 -0.707107 -0.707107
vn -1 0 0
vn 0 0 1
vn 1 0 0
vn 0 0 -1
vn -0.707107 0.707107 0
vn 0 0.707107 0.707107
vn 0.707107 0.707107 0
vn 0 0.707107 -0.707107
vn 0 -1 0
vn 0 1 0
f 81/165/35 82/166/35 86/167/35 85/168/35
f 82/169/36 83/170/36 87/171/36 86/172/36
f 83/173/37 84/174/37 88/175/37 87/176/37
f 84/177/38 81/178/38 85/179/38 88/180/38
f 85/181/39 86/182/39 90/183/39 89/184/39
f 86/185/40 87/186/40 91/187/40 90/188/40
f 87/189/41 88/190/41 92/191/41 91/192/41
f 88/193/42 85/194/42 89/195/42 92/196/42
f 89/197/43 90/198/43 94/199/43 93/200/43
f 90/201/44 91/202/44 95/203/44 94/204/44
f 91/205/45 92/206/45 96/207/45 95/208/45
f 92/209/46 89/210/46 93/211/46 96/212/46
f 98/213/47 97/214/47 100/215/47
f 100/216/47 99/217/47 98/218/47
f 104/219/48 101/220/48 102/221/48
f 102/222/48 103/223/48 104/224/48
o counter_g_hinges
usemtl counter
v 0.021805 0.1875 0.231521
v 0.031805 0.1875 0.224256
v 0.035625 0.1875 0.2125
v 0.031805 0.1875 0.200744
v 0.021805 0.1875 0.193479
v 0.009445 0.1875 0.193479
v -0.000555 0.1875 0.200744
v -0.004375 0.1875 0.2125
v -0.000555 0.1875 0.224256
v 0.009445 0.1875 0.231521
v 0.021805 0.275 0.231521
v 0.031805 0.275 0.224256
v 0.035625 0.275 0.2125
v 0.031805 0.275 0.200744
v 0.021805 0.275 0.193479
v 0.009445 0.275 0.193479
v -0.000555 0.275 0.200744
v -0.004375 0.275 0.2125
v -0.000555 0.275 0.224256
v 0.009445 0.275 0.231521
v 0.015625 0.1875 0.2125
v 0.015625 0.275 0.2125
v 0.021805 0.6375 0.231521
v 0.031805 0.6375 0.224256
v 0.035625 0.6375 0.2125
v 0.031805 0.6375 0.200744
v 0.021805 0.6375 0.193479
v 0.009445 0.6375 0.193479
v -0.000555 0.6375 0.200744
v -0.004375 0.6375 0.2125
v -0.000555 0.6375 0.224256
v 0.009445 0.6375 0.231521
v 0.021805 0.725 0.231521
v 0.031805 0.725 0.224256
v 0.035625 0.725 0.2125
v 0.031805 0.725 0.200744
v 0.021805 0.725 0.193479
v 0.009445 0.725 0.193479
v -0.000555 0.725 0.200744
v -0.004375 0.725 0.2125
v -0.000555 0.725 0.224256
v 0.009445 0.725 0.231521
v 0.015625 0.6375 0.2125
v 0.015625 0.725 0.2125
vt 0.635254 0.065918
vt 0.635254 0.064228
vt 0.647217 0.064228
vt 0.647217 0.065918
vt 0.682129 0.065918
vt 0.682129 0.064228
vt 0.694092 0.064228
vt 0.694092 0.065918
vt 0.869629 0.065918
vt 0.869629 0.064228
vt 0.881592 0.064228
vt 0.881592 0.065918
vt 0.697754 0.065918
vt 0.697754 0.064228
vt 0.709717 0.064228
vt 0.709717 0.065918
vt 0.713379 0.065918
vt 0.713379 0.064228
vt 0.725342 0.064228
vt 0.725342 0.065918
vt 0.897217 0.064228
vt 0.897217 0.065918
vt 0.885254 0.065918
vt 0.885254 0.064228
vt 0.740967 0.064228
vt 0.740967 0.065918
vt 0.729004 0.065918
vt 0.729004 0.064228
vt 0.756592 0.064228
vt 0.756592 0.065918
vt 0.744629 0.065918
vt 0.744629 0.064228
vt 0.944092 0.064228
vt 0.944092 0.065918
vt 0.932129 0.065918
vt 0.932129 0.064228
vt 0.772217 0.064228
vt 0.772217 0.065918
vt 0.760254 0.065918
vt 0.760254 0.064228
vt 0.906802 0.142073
vt 0.905435 0.143066
vt 0.90459 0.140466
vt 0.907324 0.140466
vt 0.906802 0.142073
vt 0.90459 0.140466
vt 0.906802 0.138859
vt 0.907324 0.140466
vt 0.90459 0.140466
vt 0.905435 0.137865
vt 0.906802 0.138859
vt 0.90459 0.140466
vt 0.903745 0.137865
vt 0.905435 0.137865
vt 0.90459 0.140466
vt 0.902378 0.138859
vt 0.903745 0.137865
vt 0.90459 0.140466
vt 0.901855 0.140466
vt 0.902378 0.138859
vt 0.90459 0.140466
vt 0.902378 0.142073
vt 0.901855 0.140466
vt 0.90459 0.140466
vt 0.903745 0.143066
vt 0.902378 0.142073
vt 0.90459 0.140466
vt 0.905435 0.143066
vt 0.903745 0.143066
vt 0.90459 0.140466
vt 0.913379 0.140466
vt 0.912534 0.143066
vt 0.911167 0.142073
vt 0.913379 0.140466
vt 0.911167 0.142073
vt 0.910645 0.140466
vt 0.913379 0.140466
vt 0.910645 0.140466
vt 0.911167 0.138859
vt 0.913379 0.140466
vt 0.911167 0.138859
vt 0.912534 0.137865
vt 0.913379 0.140466
vt 0.912534 0.137865
vt 0.914224 0.137865
vt 0.913379 0.140466
vt 0.914224 0.137865
vt 0.915591 0.138859
vt 0.913379 0.140466
vt 0.915591 0.138859
vt 0.916113 0.140466
vt 0.913379 0.140466
vt 0.916113 0.140466
vt 0.915591 0.142073
vt 0.913379 0.140466
vt 0.915591 0.142073
vt 0.914224 0.143066
vt 0.913379 0.140466
vt 0.914224 0.143066
vt 0.912534 0.143066
vt 0.650879 0.065918
vt 0.650879 0.064228
vt 0.662842 0.064228
vt 0.662842 0.065918
vt 0.666504 0.065918
vt 0.666504 0.064228
vt 0.678467 0.064228
vt 0.678467 0.065918
vt 0.916504 0.065918
vt 0.916504 0.064228
vt 0.928467 0.064228
vt 0.928467 0.065918
vt 0.775879 0.065918
vt 0.775879 0.064228
vt 0.787842 0.064228
vt 0.787842 0.065918
vt 0.791504 0.065918
vt 0.791504 0.064228
vt 0.803467 0.064228
vt 0.803467 0.065918
vt 0.912842 0.064228
vt 0.912842 0.065918
vt 0.900879 0.065918
vt 0.900879 0.064228
vt 0.819092 0.064228
vt 0.819092 0.065918
vt 0.807129 0.065918
vt 0.807129 0.064228
vt 0.834717 0.064228
vt 0.834717 0.065918
vt 0.822754 0.065918
vt 0.822754 0.064228
vt 0.850342 0.064228
vt 0.850342 0.065918
vt 0.838379 0.065918
vt 0.838379 0.064228
vt 0.865967 0.064228
vt 0.865967 0.065918
vt 0.854004 0.065918
vt 0.854004 0.064228
vt 0.92438 0.142073
vt 0.923013 0.143066
vt 0.922168 0.140466
vt 0.924902 0.140466
vt 0.92438 0.142073
vt 0.922168 0.140466
vt 0.92438 0.138859
vt 0.924902 0.140466
vt 0.922168 0.140466
vt 0.923013 0.137865
vt 0.92438 0.138859
vt 0.922168 0.140466
vt 0.921323 0.137865
vt 0.923013 0.137865
vt 0.922168 0.140466
vt 0.919956 0.138859
vt 0.921323 0.137865
vt 0.922168 0.140466
vt 0.919434 0.140466
vt 0.919956 0.138859
vt 0.922168 0.140466
vt 0.919956 0.142073
vt 0.919434 0.140466
vt 0.922168 0.140466
vt 0.921323 0.143066
vt 0.919956 0.142073
vt 0.922168 0.140466
vt 0.923013 0.143066
vt 0.921323 0.143066
vt 0.922168 0.140466
vt 0.930957 0.140466
vt 0.930112 0.143066
vt 0.928745 0.142073
vt 0.930957 0.140466
vt 0.928745 0.142073
vt 0.928223 0.140466
vt 0.930957 0.140466
vt 0.928223 0.140466
vt 0.928745 0.138859
vt 0.930957 0.140466
vt 0.928745 0.138859
vt 0.930112 0.137865
vt 0.930957 0.140466
vt 0.930112 0.137865
vt 0.931802 0.137865
vt 0.930957 0.140466
vt 0.931802 0.137865
vt 0.933169 0.138859
vt 0.930957 0.140466
vt 0.933169 0.138859
vt 0.933691 0.140466
vt 0.930957 0.140466
vt 0.933691 0.140466
vt 0.933169 0.142073
vt 0.930957 0.140466
vt 0.933169 0.142073
vt 0.931802 0.143066
vt 0.930957 0.140466
vt 0.931802 0.143066
vt 0.930112 0.143066
vn 0.587785 0 0.809017
vn 0.809017 0 0.587785
vn 0.951057 0 0.309017
vn 0.951057 0 -0.309017
vn 0.809017 0 -0.587785
vn 0.587785 0 -0.809017
vn 0 0 -1
vn -0.587785 0 -0.809017
vn -0.809017 0 -0.587785
vn -0.951057 0 -0.309017
vn -0.951057 0 0.309017
vn -0.809017 0 0.587785
vn -0.587785 0 0.809017
vn 0 -1 0
vn 0 1 0
f 105/225/49 106/226/50 116/227/50 115/228/49
f 106/229/50 107/230/51 117/231/51 116/232/50
f 107/233/52 108/234/53 118/235/53 117/236/52
f 108/237/53 109/238/54 119/239/54 118/240/53
f 109/241/55 110/242/55 120/243/55 119/244/55
f 110/245/56 111/246/57 121/247/57 120/248/56
f 111/249/57 112/250/58 122/251/58 121/252/57
f 112/253/59 113/254/60 123/255/60 122/256/59
f 113/257/60 114/258/61 124/259/61 123/260/60
f 124/261/55 115/262/55 105/263/55 114/264/55
f 106/265/62 105/266/62 125/267/62
f 107/268/62 106/269/62 125/270/62
f 108/271/62 107/272/62 125/273/62
f 109/274/62 108/275/62 125/276/62
f 110/277/62 109/278/62 125/279/62
f 111/280/62 110/281/62 125/282/62
f 112/283/62 111/284/62 125/285/62
f 113/286/62 112/287/62 125/288/62
f 114/289/62 113/290/62 125/291/62
f 105/292/62 114/293/62 125/294/62
f 126/295/63 115/296/63 116/297/63
f 126/298/63 116/299/63 117/300/63
f 126/301/63 117/302/63 118/303/63
f 126/304/63 118/305/63 119/306/63
f 126/307/63 119/308/63 120/309/63
f 126/310/63 120/311/63 121/312/63
f 126/313/63 121/314/63 122/315/63
f 126/316/63 122/317/63 123/318/63
f 126/319/63 123/320/63 124/321/63
f 126/322/63 124/323/63 115/324/63
f 127/325/49 128/326/50 138/327/50 137/328/49
f 128/329/50 129/330/51 139/331/51 138/332/50
f 129/333/52 130/334/53 140/335/53 139/336/52
f 130/337/53 131/338/54 141/339/54 140/340/53
f 131/341/55 132/342/55 142/343/55 141/344/55
f 132/345/56 133/346/57 143/347/57 142/348/56
f 133/349/57 134/350/58 144/351/58 143/352/57
f 134/353/59 135/354/60 145/355/60 144/356/59
f 135/357/60 136/358/61 146/359/61 145/360/60
f 146/361/55 137/362/55 127/363/55 136/364/55
f 128/365/62 127/366/62 147/367/62
f 129/368/62 128/369/62 147/370/62
f 130/371/62 129/372/62 147/373/62
f 131/374/62 130/375/62 147/376/62
f 132/377/62 131/378/62 147/379/62
f 133/380/62 132/381/62 147/382/62
f 134/383/62 133/384/62 147/385/62
f 135/386/62 134/387/62 147/388/62
f 136/389/62 135/390/62 147/391/62
f 127/392/62 136/393/62 147/394/62
f 148/395/63 137/396/63 138/397/63
f 148/398/63 138/399/63 139/400/63
f 148/401/63 139/402/63 140/403/63
f 148/404/63 140/405/63 141/406/63
f 148/407/63 141/408/63 142/409/63
f 148/410/63 142/411/63 143/412/63
f 148/413/63 143/414/63 144/415/63
f 148/416/63 144/417/63 145/418/63
f 148/419/63 145/420/63 146/421/63
f 148/422/63 146/423/63 137/424/63
