# AFL Checkout Counter V1 inner corner, generated by tools/build-checkout-counter-v1.mjs
mtllib inner.mtl
o counter_i_top
usemtl counter
v 0.01125 0.9375 0.96375
v 0.96375 0.9375 0.96375
v 0.96375 0.9375 0.01125
v 0.16125 0.9375 0.01125
v 0.16125 0.9375 0.16125
v 0.01125 0.9375 0.16125
v 0 0.94875 0.975
v 0.975 0.94875 0.975
v 0.975 0.94875 0
v 0.15 0.94875 0
v 0.15 0.94875 0.15
v 0 0.94875 0.15
v 0 0.98875 0.975
v 0.975 0.98875 0.975
v 0.975 0.98875 0
v 0.15 0.98875 0
v 0.15 0.98875 0.15
v 0 0.98875 0.15
v 0.01125 1 0.96375
v 0.96375 1 0.96375
v 0.96375 1 0.01125
v 0.16125 1 0.01125
v 0.16125 1 0.16125
v 0.01125 1 0.16125
v 0.01125 0.9375 0.96375
v 0.96375 0.9375 0.96375
v 0.96375 0.9375 0.01125
v 0.16125 0.9375 0.01125
v 0.16125 0.9375 0.16125
v 0.01125 0.9375 0.16125
v 0.01125 1 0.96375
v 0.96375 1 0.96375
v 0.96375 1 0.01125
v 0.16125 1 0.01125
v 0.16125 1 0.16125
v 0.01125 1 0.16125
vt 0.803784 0.075462
vt 0.934009 0.075462
vt 0.935547 0.077637
vt 0.802246 0.077637
vt 0.790454 0.089355
vt 0.660229 0.089355
vt 0.658691 0.08718
vt 0.791992 0.08718
vt 0.229907 0.077637
vt 0.12019 0.077637
vt 0.118652 0.075462
vt 0.231445 0.075462
vt 0.468823 0.075462
vt 0.489331 0.075462
vt 0.487793 0.077637
vt 0.467285 0.077637
vt 0.514722 0.077637
vt 0.494214 0.077637
vt 0.492676 0.075462
vt 0.513184 0.075462
vt 0.236401 0.075462
vt 0.346118 0.075462
vt 0.347656 0.077637
vt 0.234863 0.077637
vt 0.002441 0.146387
vt 0.135742 0.146387
vt 0.135742 0.151855
vt 0.002441 0.151855
vt 0.272461 0.151855
vt 0.13916 0.151855
vt 0.13916 0.146387
vt 0.272461 0.146387
vt 0.508301 0.146387
vt 0.621094 0.146387
vt 0.621094 0.151855
vt 0.508301 0.151855
vt 0.959473 0.146387
vt 0.97998 0.146387
vt 0.97998 0.151855
vt 0.959473 0.151855
vt 0.002441 0.137598
vt 0.022949 0.137598
vt 0.022949 0.143066
vt 0.002441 0.143066
vt 0.624512 0.146387
vt 0.737305 0.146387
vt 0.737305 0.151855
vt 0.624512 0.151855
vt 0.554688 0.083496
vt 0.421387 0.083496
vt 0.422925 0.081321
vt 0.553149 0.081321
vt 0.691406 0.083496
vt 0.558105 0.083496
vt 0.559644 0.081321
vt 0.689868 0.081321
vt 0.677246 0.075462
vt 0.790039 0.075462
vt 0.788501 0.077637
vt 0.678784 0.077637
vt 0.518066 0.075462
vt 0.538574 0.075462
vt 0.540112 0.077637
vt 0.519604 0.077637
vt 0.940503 0.075462
vt 0.961011 0.075462
vt 0.959473 0.077637
vt 0.938965 0.077637
vt 0.351074 0.075462
vt 0.463867 0.075462
vt 0.462329 0.077637
vt 0.352612 0.077637
vt 0.132666 0.867334
vt 0.132666 0.997559
vt 0.022949 0.997559
vt 0.002441 0.977051
vt 0.002441 0.867334
vt 0.132666 0.867334
vt 0.022949 0.977051
vt 0.002441 0.977051
vt 0.132666 0.867334
vt 0.022949 0.997559
vt 0.022949 0.977051
vt 0.132666 0.867334
vt 0.156738 0.867334
vt 0.266455 0.867334
vt 0.266455 0.997559
vt 0.266455 0.997559
vt 0.13623 0.997559
vt 0.13623 0.887842
vt 0.266455 0.997559
vt 0.13623 0.887842
vt 0.156738 0.887842
vt 0.266455 0.997559
vt 0.156738 0.887842
vt 0.156738 0.867334
vn 0 -0.707107 0.707107
vn 0.707107 -0.707107 0
vn 0 -0.707107 -0.707107
vn -0.707107 -0.707107 0
vn 0 0 1
vn 1 0 0
vn 0 0 -1
vn -1 0 0
vn 0 0.707107 0.707107
vn 0.707107 0.707107 0
vn 0 0.707107 -0.707107
vn -0.707107 0.707107 0
vn 0 -1 0
vn 0 1 0
f 1/1/1 2/2/1 8/3/1 7/4/1
f 2/5/2 3/6/2 9/7/2 8/8/2
f 3/9/3 4/10/3 10/11/3 9/12/3
f 4/13/4 5/14/4 11/15/4 10/16/4
f 5/17/3 6/18/3 12/19/3 11/20/3
f 6/21/4 1/22/4 7/23/4 12/24/4
f 7/25/5 8/26/5 14/27/5 13/28/5
f 8/29/6 9/30/6 15/31/6 14/32/6
f 9/33/7 10/34/7 16/35/7 15/36/7
f 10/37/8 11/38/8 17/39/8 16/40/8
f 11/41/7 12/42/7 18/43/7 17/44/7
f 12/45/8 7/46/8 13/47/8 18/48/8
f 13/49/9 14/50/9 20/51/9 19/52/9
f 14/53/10 15/54/10 21/55/10 20/56/10
f 15/57/11 16/58/11 22/59/11 21/60/11
f 16/61/12 17/62/12 23/63/12 22/64/12
f 17/65/11 18/66/11 24/67/11 23/68/11
f 18/69/12 13/70/12 19/71/12 24/72/12
f 26/73/13 25/74/13 30/75/13
f 28/76/13 27/77/13 26/78/13
f 29/79/13 28/80/13 26/81/13
f 30/82/13 29/83/13 26/84/13
f 36/85/14 31/86/14 32/87/14
f 32/88/14 33/89/14 34/90/14
f 32/91/14 34/92/14 35/93/14
f 32/94/14 35/95/14 36/96/14
o counter_i_top_trim
usemtl counter
v 0 0.928125 0.15
v 0.15 0.928125 0.15
v 0.15 0.928125 0
v 0.134375 0.928125 0
v 0.134375 0.928125 0.134375
v 0 0.928125 0.134375
v 0 1 0.15
v 0.15 1 0.15
v 0.15 1 0
v 0.134375 1 0
v 0.134375 1 0.134375
v 0 1 0.134375
v 0 0.928125 0.15
v 0.15 0.928125 0.15
v 0.15 0.928125 0
v 0.134375 0.928125 0
v 0.134375 0.928125 0.134375
v 0 0.928125 0.134375
v 0 1 0.15
v 0.15 1 0.15
v 0.15 1 0
v 0.134375 1 0
v 0.134375 1 0.134375
v 0 1 0.134375
vt 0.439941 0.206482
vt 0.460449 0.206482
vt 0.460449 0.216309
vt 0.439941 0.216309
vt 0.484863 0.216309
vt 0.464355 0.216309
vt 0.464355 0.206482
vt 0.484863 0.206482
vt 0.615723 0.071777
vt 0.615723 0.069641
vt 0.625549 0.069641
vt 0.625549 0.071777
vt 0.48877 0.206482
vt 0.507141 0.206482
vt 0.507141 0.216309
vt 0.48877 0.216309
vt 0.510254 0.206482
vt 0.528625 0.206482
vt 0.528625 0.216309
vt 0.510254 0.216309
vt 0.639221 0.069641
vt 0.639221 0.071777
vt 0.629395 0.071777
vt 0.629395 0.069641
vt 0.944824 0.281738
vt 0.944824 0.302246
vt 0.942688 0.302246
vt 0.924316 0.283875
vt 0.924316 0.281738
vt 0.944824 0.281738
vt 0.942688 0.283875
vt 0.924316 0.283875
vt 0.944824 0.281738
vt 0.942688 0.302246
vt 0.942688 0.283875
vt 0.944824 0.281738
vt 0.967102 0.281738
vt 0.969238 0.281738
vt 0.969238 0.302246
vt 0.969238 0.302246
vt 0.94873 0.302246
vt 0.94873 0.30011
vt 0.969238 0.302246
vt 0.94873 0.30011
vt 0.967102 0.30011
vt 0.969238 0.302246
vt 0.967102 0.30011
vt 0.967102 0.281738
vn 0 0 1
vn 1 0 0
vn 0 0 -1
vn -1 0 0
vn 0 -1 0
vn 0 1 0
f 37/97/15 38/98/15 44/99/15 43/100/15
f 38/101/16 39/102/16 45/103/16 44/104/16
f 39/105/17 40/106/17 46/107/17 45/108/17
f 40/109/18 41/110/18 47/111/18 46/112/18
f 41/113/17 42/114/17 48/115/17 47/116/17
f 42/117/18 37/118/18 43/119/18 48/120/18
f 50/121/19 49/122/19 54/123/19
f 52/124/19 51/125/19 50/126/19
f 53/127/19 52/128/19 50/129/19
f 54/130/19 53/131/19 50/132/19
f 60/133/20 55/134/20 56/135/20
f 56/136/20 57/137/20 58/138/20
f 56/139/20 58/140/20 59/141/20
f 56/142/20 59/143/20 60/144/20
o counter_i_panel
usemtl counter
v 0 0.075 0.1875
v 0 0.075 0.2375
v 0 0.9375 0.2375
v 0 0.9375 0.1875
v 0.2375 0.075 0.1875
v 0.2375 0.075 0.2375
v 0.2375 0.9375 0.2375
v 0.2375 0.9375 0.1875
v 0 0.075 0.1875
v 0 0.075 0.2375
v 0 0.9375 0.2375
v 0 0.9375 0.1875
v 0.2375 0.075 0.1875
v 0.2375 0.075 0.2375
v 0.2375 0.9375 0.2375
v 0.2375 0.9375 0.1875
v 0.1875 0.075 0
v 0.2375 0.075 0
v 0.2375 0.9375 0
v 0.1875 0.9375 0
v 0.1875 0.075 0.1875
v 0.2375 0.075 0.1875
v 0.2375 0.9375 0.1875
v 0.1875 0.9375 0.1875
v 0.1875 0.075 0
v 0.2375 0.075 0
v 0.2375 0.9375 0
v 0.1875 0.9375 0
v 0.1875 0.075 0.1875
v 0.2375 0.075 0.1875
v 0.2375 0.9375 0.1875
v 0.1875 0.9375 0.1875
vt 0.962646 0.164551
vt 0.962646 0.171387
vt 0.930176 0.171387
vt 0.930176 0.164551
vt 0.790527 0.371338
vt 0.908447 0.371338
vt 0.908447 0.403809
vt 0.790527 0.403809
vt 0.002441 0.161621
vt 0.002441 0.154785
vt 0.034912 0.154785
vt 0.034912 0.161621
vt 0.120361 0.302246
vt 0.002441 0.302246
vt 0.002441 0.269775
vt 0.120361 0.269775
vt 0.729004 0.174316
vt 0.846924 0.174316
vt 0.846924 0.181152
vt 0.846924 0.181152
vt 0.729004 0.181152
vt 0.729004 0.174316
vt 0.850098 0.181152
vt 0.850098 0.174316
vt 0.968018 0.174316
vt 0.968018 0.174316
vt 0.968018 0.181152
vt 0.850098 0.181152
vt 0.038574 0.161621
vt 0.038574 0.154785
vt 0.064209 0.154785
vt 0.064209 0.161621
vt 0.123535 0.276611
vt 0.241455 0.276611
vt 0.241455 0.302246
vt 0.123535 0.302246
vt 0.067871 0.161621
vt 0.067871 0.154785
vt 0.093506 0.154785
vt 0.093506 0.161621
vt 0.244629 0.276611
vt 0.362549 0.276611
vt 0.362549 0.302246
vt 0.244629 0.302246
vt 0.002441 0.171387
vt 0.002441 0.164551
vt 0.120361 0.164551
vt 0.120361 0.164551
vt 0.120361 0.171387
vt 0.002441 0.171387
vt 0.241455 0.171387
vt 0.123535 0.171387
vt 0.123535 0.164551
vt 0.123535 0.164551
vt 0.241455 0.164551
vt 0.241455 0.171387
vn 0 -1 0
vn 0 0 1
vn 0 1 0
vn 0 0 -1
vn -1 0 0
vn 1 0 0
f 65/145/21 66/146/21 62/147/21 61/148/21
f 66/149/22 67/150/22 63/151/22 62/152/22
f 67/153/23 68/154/23 64/155/23 63/156/23
f 68/157/24 65/158/24 61/159/24 64/160/24
f 72/161/25 69/162/25 70/163/25
f 70/164/25 71/165/25 72/166/25
f 74/167/26 73/168/26 76/169/26
f 76/170/26 75/171/26 74/172/26
f 77/173/21 78/174/21 82/175/21 81/176/21
f 78/177/26 79/178/26 83/179/26 82/180/26
f 79/181/23 80/182/23 84/183/23 83/184/23
f 80/185/25 77/186/25 81/187/25 84/188/25
f 86/189/24 85/190/24 88/191/24
f 88/192/24 87/193/24 86/194/24
f 92/195/22 89/196/22 90/197/22
f 90/198/22 91/199/22 92/200/22
o counter_i_back
usemtl counter
v 0 0.08125 0.93125
v 0 0.08125 0.96875
v 0 0.93125 0.96875
v 0 0.93125 0.93125
v 0.00625 0.075 0.925
v 0.00625 0.075 0.975
v 0.00625 0.9375 0.975
v 0.00625 0.9375 0.925
v 0.96875 0.075 0.925
v 0.96875 0.075 0.975
v 0.96875 0.9375 0.975
v 0.96875 0.9375 0.925
v 0.975 0.08125 0.93125
v 0.975 0.08125 0.96875
v 0.975 0.93125 0.96875
v 0.975 0.93125 0.93125
v 0 0.08125 0.93125
v 0 0.08125 0.96875
v 0 0.93125 0.96875
v 0 0.93125 0.93125
v 0.975 0.08125 0.93125
v 0.975 0.08125 0.96875
v 0.975 0.93125 0.96875
v 0.975 0.93125 0.93125
v 0.925 0.075 0
v 0.975 0.075 0
v 0.975 0.9375 0
v 0.925 0.9375 0
v 0.925 0.075 0.925
v 0.975 0.075 0.925
v 0.975 0.9375 0.925
v 0.925 0.9375 0.925
v 0.925 0.075 0
v 0.975 0.075 0
v 0.975 0.9375 0
v 0.925 0.9375 0
v 0.925 0.075 0.925
v 0.975 0.075 0.925
v 0.975 0.9375 0.925
v 0.925 0.9375 0.925
vt 0.211426 0.039319
vt 0.218262 0.039319
vt 0.217407 0.040527
vt 0.21228 0.040527
vt 0.846924 0.04541
vt 0.729004 0.04541
vt 0.729858 0.044202
vt 0.846069 0.044202
vt 0.228027 0.040527
vt 0.221191 0.040527
vt 0.222046 0.039319
vt 0.227173 0.039319
vt 0.447754 0.049085
vt 0.565674 0.049085
vt 0.564819 0.050293
vt 0.448608 0.050293
vt 0.555908 0.185059
vt 0.555908 0.191895
vt 0.424316 0.191895
vt 0.424316 0.185059
vt 0.273682 0.74585
vt 0.273682 0.86377
vt 0.14209 0.86377
vt 0.14209 0.74585
vt 0.559082 0.191895
vt 0.559082 0.185059
vt 0.690674 0.185059
vt 0.690674 0.191895
vt 0.276855 0.86377
vt 0.276855 0.74585
vt 0.408447 0.74585
vt 0.408447 0.86377
vt 0.231812 0.039319
vt 0.236938 0.039319
vt 0.237793 0.040527
vt 0.230957 0.040527
vt 0.850952 0.044202
vt 0.967163 0.044202
vt 0.968018 0.04541
vt 0.850098 0.04541
vt 0.246704 0.040527
vt 0.241577 0.040527
vt 0.240723 0.039319
vt 0.247559 0.039319
vt 0.685913 0.050293
vt 0.569702 0.050293
vt 0.568848 0.049085
vt 0.686768 0.049085
vt 0.486816 0.12915
vt 0.603027 0.12915
vt 0.603027 0.134277
vt 0.603027 0.134277
vt 0.486816 0.134277
vt 0.486816 0.12915
vt 0.605957 0.134277
vt 0.605957 0.12915
vt 0.722168 0.12915
vt 0.722168 0.12915
vt 0.722168 0.134277
vt 0.605957 0.134277
vt 0.693848 0.191895
vt 0.693848 0.185059
vt 0.820313 0.185059
vt 0.820313 0.191895
vt 0.411621 0.86377
vt 0.411621 0.74585
vt 0.538086 0.74585
vt 0.538086 0.86377
vt 0.82373 0.191895
vt 0.82373 0.185059
vt 0.950195 0.185059
vt 0.950195 0.191895
vt 0.541504 0.86377
vt 0.541504 0.74585
vt 0.667969 0.74585
vt 0.667969 0.86377
vt 0.244629 0.171387
vt 0.244629 0.164551
vt 0.362549 0.164551
vt 0.362549 0.164551
vt 0.362549 0.171387
vt 0.244629 0.171387
vt 0.483643 0.171387
vt 0.365723 0.171387
vt 0.365723 0.164551
vt 0.365723 0.164551
vt 0.483643 0.164551
vt 0.483643 0.171387
vn -0.707107 -0.707107 0
vn -0.707107 0 0.707107
vn -0.707107 0.707107 0
vn -0.707107 0 -0.707107
vn 0 -1 0
vn 0 0 1
vn 0 1 0
vn 0 0 -1
vn 0.707107 -0.707107 0
vn 0.707107 0 0.707107
vn 0.707107 0.707107 0
vn 0.707107 0 -0.707107
vn -1 0 0
vn 1 0 0
f 97/201/27 98/202/27 94/203/27 93/204/27
f 98/205/28 99/206/28 95/207/28 94/208/28
f 99/209/29 100/210/29 96/211/29 95/212/29
f 100/213/30 97/214/30 93/215/30 96/216/30
f 101/217/31 102/218/31 98/219/31 97/220/31
f 102/221/32 103/222/32 99/223/32 98/224/32
f 103/225/33 104/226/33 100/227/33 99/228/33
f 104/229/34 101/230/34 97/231/34 100/232/34
f 105/233/35 106/234/35 102/235/35 101/236/35
f 106/237/36 107/238/36 103/239/36 102/240/36
f 107/241/37 108/242/37 104/243/37 103/244/37
f 108/245/38 105/246/38 101/247/38 104/248/38
f 112/249/39 109/250/39 110/251/39
f 110/252/39 111/253/39 112/254/39
f 114/255/40 113/256/40 116/257/40
f 116/258/40 115/259/40 114/260/40
f 117/261/31 118/262/31 122/263/31 121/264/31
f 118/265/40 119/266/40 123/267/40 122/268/40
f 119/269/33 120/270/33 124/271/33 123/272/33
f 120/273/39 117/274/39 121/275/39 124/276/39
f 126/277/34 125/278/34 128/279/34
f 128/280/34 127/281/34 126/282/34
f 132/283/32 129/284/32 130/285/32
f 130/286/32 131/287/32 132/288/32
o counter_i_low_trim
usemtl counter
v 0 0.125 0.1875
v 0.1875 0.125 0.1875
v 0.1875 0.125 0
v 0.18125 0.125 0
v 0.18125 0.125 0.18125
v 0 0.125 0.18125
v 0 0.146875 0.1875
v 0.1875 0.146875 0.1875
v 0.1875 0.146875 0
v 0.18125 0.146875 0
v 0.18125 0.146875 0.18125
v 0 0.146875 0.18125
v 0 0.125 0.1875
v 0.1875 0.125 0.1875
v 0.1875 0.125 0
v 0.18125 0.125 0
v 0.18125 0.125 0.18125
v 0 0.125 0.18125
v 0 0.146875 0.1875
v 0.1875 0.146875 0.1875
v 0.1875 0.146875 0
v 0.18125 0.146875 0
v 0.18125 0.146875 0.18125
v 0 0.146875 0.18125
vt 0.591309 0.09906
vt 0.616943 0.09906
vt 0.616943 0.102051
vt 0.591309 0.102051
vt 0.64624 0.102051
vt 0.620605 0.102051
vt 0.620605 0.09906
vt 0.64624 0.09906
vt 0.429199 0.022949
vt 0.429199 0.022095
vt 0.43219 0.022095
vt 0.43219 0.022949
vt 0.649902 0.09906
vt 0.674683 0.09906
vt 0.674683 0.102051
vt 0.649902 0.102051
vt 0.678223 0.09906
vt 0.703003 0.09906
vt 0.703003 0.102051
vt 0.678223 0.102051
vt 0.439026 0.022095
vt 0.439026 0.022949
vt 0.436035 0.022949
vt 0.436035 0.022095
vt 0.391357 0.276611
vt 0.391357 0.302246
vt 0.390503 0.302246
vt 0.365723 0.277466
vt 0.365723 0.276611
vt 0.391357 0.276611
vt 0.390503 0.277466
vt 0.365723 0.277466
vt 0.391357 0.276611
vt 0.390503 0.302246
vt 0.390503 0.277466
vt 0.391357 0.276611
vt 0.4198 0.276611
vt 0.420654 0.276611
vt 0.420654 0.302246
vt 0.420654 0.302246
vt 0.39502 0.302246
vt 0.39502 0.301392
vt 0.420654 0.302246
vt 0.39502 0.301392
vt 0.4198 0.301392
vt 0.420654 0.302246
vt 0.4198 0.301392
vt 0.4198 0.276611
vn 0 0 1
vn 1 0 0
vn 0 0 -1
vn -1 0 0
vn 0 -1 0
vn 0 1 0
f 133/289/41 134/290/41 140/291/41 139/292/41
f 134/293/42 135/294/42 141/295/42 140/296/42
f 135/297/43 136/298/43 142/299/43 141/300/43
f 136/301/44 137/302/44 143/303/44 142/304/44
f 137/305/43 138/306/43 144/307/43 143/308/43
f 138/309/44 133/310/44 139/311/44 144/312/44
f 146/313/45 145/314/45 150/315/45
f 148/316/45 147/317/45 146/318/45
f 149/319/45 148/320/45 146/321/45
f 150/322/45 149/323/45 146/324/45
f 156/325/46 151/326/46 152/327/46
f 152/328/46 153/329/46 154/330/46
f 152/331/46 154/332/46 155/333/46
f 152/334/46 155/335/46 156/336/46
o counter_i_kick
usemtl counter
v 0 0 0.9375
v 0.9375 0 0.9375
v 0.9375 0 0
v 0.225 0 0
v 0.225 0 0.225
v 0 0 0.225
v 0 0.075 0.9375
v 0.9375 0.075 0.9375
v 0.9375 0.075 0
v 0.225 0.075 0
v 0.225 0.075 0.225
v 0 0.075 0.225
v 0 0 0.9375
v 0.9375 0 0.9375
v 0.9375 0 0
v 0.225 0 0
v 0.225 0 0.225
v 0 0 0.225
v 0 0.075 0.9375
v 0.9375 0.075 0.9375
v 0.9375 0.075 0
v 0.225 0.075 0
v 0.225 0.075 0.225
v 0 0.075 0.225
vt 0.14209 0.233398
vt 0.270264 0.233398
vt 0.270264 0.243652
vt 0.14209 0.243652
vt 0.4021 0.243652
vt 0.273926 0.243652
vt 0.273926 0.233398
vt 0.4021 0.233398
vt 0.103027 0.219727
vt 0.200439 0.219727
vt 0.200439 0.22998
vt 0.103027 0.22998
vt 0.304199 0.219727
vt 0.334961 0.219727
vt 0.334961 0.22998
vt 0.304199 0.22998
vt 0.338379 0.219727
vt 0.369141 0.219727
vt 0.369141 0.22998
vt 0.338379 0.22998
vt 0.203613 0.219727
vt 0.301025 0.219727
vt 0.301025 0.22998
vt 0.203613 0.22998
vt 0.398193 0.869385
vt 0.398193 0.997559
vt 0.300781 0.997559
vt 0.27002 0.966797
vt 0.27002 0.869385
vt 0.398193 0.869385
vt 0.300781 0.966797
vt 0.27002 0.966797
vt 0.398193 0.869385
vt 0.300781 0.997559
vt 0.300781 0.966797
vt 0.398193 0.869385
vt 0.432617 0.869385
vt 0.530029 0.869385
vt 0.530029 0.997559
vt 0.530029 0.997559
vt 0.401855 0.997559
vt 0.401855 0.900146
vt 0.530029 0.997559
vt 0.401855 0.900146
vt 0.432617 0.900146
vt 0.530029 0.997559
vt 0.432617 0.900146
vt 0.432617 0.869385
vn 0 0 1
vn 1 0 0
vn 0 0 -1
vn -1 0 0
vn 0 -1 0
vn 0 1 0
f 157/337/47 158/338/47 164/339/47 163/340/47
f 158/341/48 159/342/48 165/343/48 164/344/48
f 159/345/49 160/346/49 166/347/49 165/348/49
f 160/349/50 161/350/50 167/351/50 166/352/50
f 161/353/49 162/354/49 168/355/49 167/356/49
f 162/357/50 157/358/50 163/359/50 168/360/50
f 170/361/51 169/362/51 174/363/51
f 172/364/51 171/365/51 170/366/51
f 173/367/51 172/368/51 170/369/51
f 174/370/51 173/371/51 170/372/51
f 180/373/52 175/374/52 176/375/52
f 176/376/52 177/377/52 178/378/52
f 176/379/52 178/380/52 179/381/52
f 176/382/52 179/383/52 180/384/52
