# AFL Checkout Counter V1 item (display), generated by tools/build-checkout-counter-v1.mjs
mtllib item_display.mtl
o counter_top
usemtl counter
v 0 0.9375 0.15
v 0 0.9375 0.975
v 0 0.98875 0.975
v 0 1 0.96375
v 0 1 0.16125
v 0 0.98875 0.15
v 1 0.9375 0.15
v 1 0.9375 0.975
v 1 0.98875 0.975
v 1 1 0.96375
v 1 1 0.16125
v 1 0.98875 0.15
v 0 0.9375 0.15
v 0 0.9375 0.975
v 0 0.98875 0.975
v 0 1 0.96375
v 0 1 0.16125
v 0 0.98875 0.15
v 1 0.9375 0.15
v 1 0.9375 0.975
v 1 0.98875 0.975
v 1 1 0.96375
v 1 1 0.16125
v 1 0.98875 0.15
vt 0.646973 0.629883
vt 0.646973 0.742676
vt 0.510254 0.742676
vt 0.510254 0.629883
vt 0.13916 0.19563
vt 0.13916 0.202637
vt 0.002441 0.202637
vt 0.002441 0.19563
vt 0.79541 0.089355
vt 0.79541 0.08718
vt 0.932129 0.08718
vt 0.932129 0.089355
vt 0.359863 0.626465
vt 0.359863 0.516748
vt 0.496582 0.516748
vt 0.496582 0.626465
vt 0.002441 0.083496
vt 0.002441 0.081321
vt 0.13916 0.081321
vt 0.13916 0.083496
vt 0.14209 0.202637
vt 0.14209 0.19563
vt 0.278809 0.19563
vt 0.278809 0.202637
vt 0.531738 0.214771
vt 0.531738 0.207764
vt 0.644531 0.207764
vt 0.531738 0.214771
vt 0.644531 0.207764
vt 0.644531 0.214771
vt 0.531738 0.214771
vt 0.644531 0.214771
vt 0.642993 0.216309
vt 0.642993 0.216309
vt 0.533276 0.216309
vt 0.531738 0.214771
vt 0.760742 0.216309
vt 0.647949 0.216309
vt 0.647949 0.209302
vt 0.760742 0.209302
vt 0.760742 0.216309
vt 0.647949 0.209302
vt 0.759204 0.207764
vt 0.760742 0.209302
vt 0.647949 0.209302
vt 0.647949 0.209302
vt 0.649487 0.207764
vt 0.759204 0.207764
vn 0 -1 0
vn 0 0 1
vn 0 0.707107 0.707107
vn 0 1 0
vn 0 0.707107 -0.707107
vn 0 0 -1
vn -1 0 0
vn 1 0 0
f 7/1/1 8/2/1 2/3/1 1/4/1
f 8/5/2 9/6/2 3/7/2 2/8/2
f 9/9/3 10/10/3 4/11/3 3/12/3
f 10/13/4 11/14/4 5/15/4 4/16/4
f 11/17/5 12/18/5 6/19/5 5/20/5
f 12/21/6 7/22/6 1/23/6 6/24/6
f 18/25/7 13/26/7 14/27/7
f 18/28/7 14/29/7 15/30/7
f 18/31/7 15/32/7 16/33/7
f 16/34/7 17/35/7 18/36/7
f 20/37/8 19/38/8 24/39/8
f 21/40/8 20/41/8 24/42/8
f 22/43/8 21/44/8 24/45/8
f 24/46/8 23/47/8 22/48/8
o counter_top_trim
usemtl counter
v 0 0.928125 0.134375
v 0 0.928125 0.15
v 0 1 0.15
v 0 1 0.134375
v 1 0.928125 0.134375
v 1 0.928125 0.15
v 1 1 0.15
v 1 1 0.134375
v 0 0.928125 0.134375
v 0 0.928125 0.15
v 0 1 0.15
v 0 1 0.134375
v 1 0.928125 0.134375
v 1 0.928125 0.15
v 1 1 0.15
v 1 1 0.134375
vt 0.13916 0.069641
vt 0.13916 0.071777
vt 0.002441 0.071777
vt 0.002441 0.069641
vt 0.509277 0.220154
vt 0.509277 0.22998
vt 0.372559 0.22998
vt 0.372559 0.220154
vt 0.14209 0.071777
vt 0.14209 0.069641
vt 0.278809 0.069641
vt 0.278809 0.071777
vt 0.512207 0.22998
vt 0.512207 0.220154
vt 0.648926 0.220154
vt 0.648926 0.22998
vt 0.561035 0.069641
vt 0.570862 0.069641
vt 0.570862 0.071777
vt 0.570862 0.071777
vt 0.561035 0.071777
vt 0.561035 0.069641
vt 0.574707 0.071777
vt 0.574707 0.069641
vt 0.584534 0.069641
vt 0.584534 0.069641
vt 0.584534 0.071777
vt 0.574707 0.071777
vn 0 -1 0
vn 0 0 1
vn 0 1 0
vn 0 0 -1
vn -1 0 0
vn 1 0 0
f 29/49/9 30/50/9 26/51/9 25/52/9
f 30/53/10 31/54/10 27/55/10 26/56/10
f 31/57/11 32/58/11 28/59/11 27/60/11
f 32/61/12 29/62/12 25/63/12 28/64/12
f 36/65/13 33/66/13 34/67/13
f 34/68/13 35/69/13 36/70/13
f 38/71/14 37/72/14 40/73/14
f 40/74/14 39/75/14 38/76/14
o counter_panel
usemtl counter
v 0 0.075 0.1875
v 0 0.075 0.2375
v 0 0.9375 0.2375
v 0 0.9375 0.1875
v 1 0.075 0.1875
v 1 0.075 0.2375
v 1 0.9375 0.2375
v 1 0.9375 0.1875
v 0 0.075 0.1875
v 0 0.075 0.2375
v 0 0.9375 0.2375
v 0 0.9375 0.1875
v 1 0.075 0.1875
v 1 0.075 0.2375
v 1 0.9375 0.2375
v 1 0.9375 0.1875
vt 0.281738 0.185059
vt 0.281738 0.191895
vt 0.14502 0.191895
vt 0.14502 0.185059
vt 0.914551 0.879639
vt 0.914551 0.997559
vt 0.777832 0.997559
vt 0.777832 0.879639
vt 0.284668 0.191895
vt 0.284668 0.185059
vt 0.421387 0.185059
vt 0.421387 0.191895
vt 0.002441 0.86377
vt 0.002441 0.74585
vt 0.13916 0.74585
vt 0.13916 0.86377
vt 0.002441 0.174316
vt 0.120361 0.174316
vt 0.120361 0.181152
vt 0.120361 0.181152
vt 0.002441 0.181152
vt 0.002441 0.174316
vt 0.123535 0.181152
vt 0.123535 0.174316
vt 0.241455 0.174316
vt 0.241455 0.174316
vt 0.241455 0.181152
vt 0.123535 0.181152
vn 0 -1 0
vn 0 0 1
vn 0 1 0
vn 0 0 -1
vn -1 0 0
vn 1 0 0
f 45/77/15 46/78/15 42/79/15 41/80/15
f 46/81/16 47/82/16 43/83/16 42/84/16
f 47/85/17 48/86/17 44/87/17 43/88/17
f 48/89/18 45/90/18 41/91/18 44/92/18
f 52/93/19 49/94/19 50/95/19
f 50/96/19 51/97/19 52/98/19
f 54/99/20 53/100/20 56/101/20
f 56/102/20 55/103/20 54/104/20
o counter_low_trim
usemtl counter
v 0 0.125 0.18125
v 0 0.125 0.1875
v 0 0.146875 0.1875
v 0 0.146875 0.18125
v 1 0.125 0.18125
v 1 0.125 0.1875
v 1 0.146875 0.1875
v 1 0.146875 0.18125
v 0 0.125 0.18125
v 0 0.125 0.1875
v 0 0.146875 0.1875
v 0 0.146875 0.18125
v 1 0.125 0.18125
v 1 0.125 0.1875
v 1 0.146875 0.1875
v 1 0.146875 0.18125
vt 0.895996 0.026001
vt 0.895996 0.026855
vt 0.759277 0.026855
vt 0.759277 0.026001
vt 0.606934 0.105896
vt 0.606934 0.108887
vt 0.470215 0.108887
vt 0.470215 0.105896
vt 0.002441 0.022949
vt 0.002441 0.022095
vt 0.13916 0.022095
vt 0.13916 0.022949
vt 0.609863 0.108887
vt 0.609863 0.105896
vt 0.746582 0.105896
vt 0.746582 0.108887
vt 0.401855 0.022095
vt 0.404846 0.022095
vt 0.404846 0.022949
vt 0.404846 0.022949
vt 0.401855 0.022949
vt 0.401855 0.022095
vt 0.408691 0.022949
vt 0.408691 0.022095
vt 0.411682 0.022095
vt 0.411682 0.022095
vt 0.411682 0.022949
vt 0.408691 0.022949
vn 0 -1 0
vn 0 0 1
vn 0 1 0
vn 0 0 -1
vn -1 0 0
vn 1 0 0
f 61/105/21 62/106/21 58/107/21 57/108/21
f 62/109/22 63/110/22 59/111/22 58/112/22
f 63/113/23 64/114/23 60/115/23 59/116/23
f 64/117/24 61/118/24 57/119/24 60/120/24
f 68/121/25 65/122/25 66/123/25
f 66/124/25 67/125/25 68/126/25
f 70/127/26 69/128/26 72/129/26
f 72/130/26 71/131/26 70/132/26
o counter_kick
usemtl counter
v 0 0 0.225
v 0 0 0.9375
v 0 0.075 0.9375
v 0 0.075 0.225
v 1 0 0.225
v 1 0 0.9375
v 1 0.075 0.9375
v 1 0.075 0.225
v 0 0 0.225
v 0 0 0.9375
v 0 0.075 0.9375
v 0 0.075 0.225
v 1 0 0.225
v 1 0 0.9375
v 1 0.075 0.9375
v 1 0.075 0.225
vt 0.241699 0.306396
vt 0.241699 0.403809
vt 0.10498 0.403809
vt 0.10498 0.306396
vt 0.861816 0.255859
vt 0.861816 0.266113
vt 0.725098 0.266113
vt 0.725098 0.255859
vt 0.244629 0.403809
vt 0.244629 0.306396
vt 0.381348 0.306396
vt 0.381348 0.403809
vt 0.002441 0.243652
vt 0.002441 0.233398
vt 0.13916 0.233398
vt 0.13916 0.243652
vt 0.843262 0.243652
vt 0.843262 0.233398
vt 0.940674 0.233398
vt 0.940674 0.233398
vt 0.940674 0.243652
vt 0.843262 0.243652
vt 0.099854 0.22998
vt 0.002441 0.22998
vt 0.002441 0.219727
vt 0.002441 0.219727
vt 0.099854 0.219727
vt 0.099854 0.22998
vn 0 -1 0
vn 0 0 1
vn 0 1 0
vn 0 0 -1
vn -1 0 0
vn 1 0 0
f 77/133/27 78/134/27 74/135/27 73/136/27
f 78/137/28 79/138/28 75/139/28 74/140/28
f 79/141/29 80/142/29 76/143/29 75/144/29
f 80/145/30 77/146/30 73/147/30 76/148/30
f 84/149/31 81/150/31 82/151/31
f 82/152/31 83/153/31 84/154/31
f 86/155/32 85/156/32 88/157/32
f 88/158/32 87/159/32 86/160/32
o counter_ends
usemtl counter
v 0 0.08125 0.24375
v 0 0.08125 0.96875
v 0 0.93125 0.96875
v 0 0.93125 0.24375
v 0.00625 0.075 0.2375
v 0.00625 0.075 0.975
v 0.00625 0.9375 0.975
v 0.00625 0.9375 0.2375
v 0.04375 0.075 0.2375
v 0.04375 0.075 0.975
v 0.04375 0.9375 0.975
v 0.04375 0.9375 0.2375
v 0.05 0.08125 0.24375
v 0.05 0.08125 0.96875
v 0.05 0.93125 0.96875
v 0.05 0.93125 0.24375
v 0 0.08125 0.24375
v 0 0.08125 0.96875
v 0 0.93125 0.96875
v 0 0.93125 0.24375
v 0.05 0.08125 0.24375
v 0.05 0.08125 0.96875
v 0.05 0.93125 0.96875
v 0.05 0.93125 0.24375
v 0.95 0.08125 0.24375
v 0.95 0.08125 0.96875
v 0.95 0.93125 0.96875
v 0.95 0.93125 0.24375
v 0.95625 0.075 0.2375
v 0.95625 0.075 0.975
v 0.95625 0.9375 0.975
v 0.95625 0.9375 0.2375
v 0.99375 0.075 0.2375
v 0.99375 0.075 0.975
v 0.99375 0.9375 0.975
v 0.99375 0.9375 0.2375
v 1 0.08125 0.24375
v 1 0.08125 0.96875
v 1 0.93125 0.96875
v 1 0.93125 0.24375
v 0.95 0.08125 0.24375
v 0.95 0.08125 0.96875
v 0.95 0.93125 0.96875
v 0.95 0.93125 0.24375
v 1 0.08125 0.24375
v 1 0.08125 0.96875
v 1 0.93125 0.96875
v 1 0.93125 0.24375
vt 0.23877 0.049085
vt 0.3396 0.049085
vt 0.338745 0.050293
vt 0.239624 0.050293
vt 0.807861 0.050293
vt 0.689941 0.050293
vt 0.690796 0.049085
vt 0.807007 0.049085
vt 0.560303 0.040527
vt 0.459473 0.040527
vt 0.460327 0.039319
vt 0.559448 0.039319
vt 0.811035 0.049085
vt 0.928955 0.049085
vt 0.928101 0.050293
vt 0.81189 0.050293
vt 0.725098 0.12915
vt 0.825928 0.12915
vt 0.825928 0.134277
vt 0.725098 0.134277
vt 0.002441 0.12915
vt 0.120361 0.12915
vt 0.120361 0.134277
vt 0.002441 0.134277
vt 0.93042 0.134277
vt 0.82959 0.134277
vt 0.82959 0.12915
vt 0.93042 0.12915
vt 0.241455 0.134277
vt 0.123535 0.134277
vt 0.123535 0.12915
vt 0.241455 0.12915
vt 0.251343 0.039319
vt 0.350464 0.039319
vt 0.351318 0.040527
vt 0.250488 0.040527
vt 0.003296 0.044202
vt 0.119507 0.044202
vt 0.120361 0.04541
vt 0.002441 0.04541
vt 0.102417 0.040527
vt 0.003296 0.040527
vt 0.002441 0.039319
vt 0.103271 0.039319
vt 0.240601 0.04541
vt 0.12439 0.04541
vt 0.123535 0.044202
vt 0.241455 0.044202
vt 0.373535 0.412109
vt 0.489746 0.412109
vt 0.489746 0.51123
vt 0.489746 0.51123
vt 0.373535 0.51123
vt 0.373535 0.412109
vt 0.492676 0.51123
vt 0.492676 0.412109
vt 0.608887 0.412109
vt 0.608887 0.412109
vt 0.608887 0.51123
vt 0.492676 0.51123
vt 0.35498 0.039319
vt 0.455811 0.039319
vt 0.454956 0.040527
vt 0.355835 0.040527
vt 0.362549 0.04541
vt 0.244629 0.04541
vt 0.245483 0.044202
vt 0.361694 0.044202
vt 0.207764 0.040527
vt 0.106934 0.040527
vt 0.107788 0.039319
vt 0.206909 0.039319
vt 0.365723 0.044202
vt 0.483643 0.044202
vt 0.482788 0.04541
vt 0.366577 0.04541
vt 0.002441 0.120361
vt 0.103271 0.120361
vt 0.103271 0.125488
vt 0.002441 0.125488
vt 0.244629 0.12915
vt 0.362549 0.12915
vt 0.362549 0.134277
vt 0.244629 0.134277
vt 0.207764 0.125488
vt 0.106934 0.125488
vt 0.106934 0.120361
vt 0.207764 0.120361
vt 0.483643 0.134277
vt 0.365723 0.134277
vt 0.365723 0.12915
vt 0.483643 0.12915
vt 0.344116 0.049085
vt 0.443237 0.049085
vt 0.444092 0.050293
vt 0.343262 0.050293
vt 0.487671 0.044202
vt 0.603882 0.044202
vt 0.604736 0.04541
vt 0.486816 0.04541
vt 0.66394 0.040527
vt 0.564819 0.040527
vt 0.563965 0.039319
vt 0.664795 0.039319
vt 0.724976 0.04541
vt 0.608765 0.04541
vt 0.60791 0.044202
vt 0.72583 0.044202
vt 0.611816 0.412109
vt 0.728027 0.412109
vt 0.728027 0.51123
vt 0.728027 0.51123
vt 0.611816 0.51123
vt 0.611816 0.412109
vt 0.730957 0.51123
vt 0.730957 0.412109
vt 0.847168 0.412109
vt 0.847168 0.412109
vt 0.847168 0.51123
vt 0.730957 0.51123
vn -0.707107 -0.707107 0
vn -0.707107 0 0.707107
vn -0.707107 0.707107 0
vn -0.707107 0 -0.707107
vn 0 -1 0
vn 0 0 1
vn 0 1 0
vn 0 0 -1
vn 0.707107 -0.707107 0
vn 0.707107 0 0.707107
vn 0.707107 0.707107 0
vn 0.707107 0 -0.707107
vn -1 0 0
vn 1 0 0
f 93/161/33 94/162/33 90/163/33 89/164/33
f 94/165/34 95/166/34 91/167/34 90/168/34
f 95/169/35 96/170/35 92/171/35 91/172/35
f 96/173/36 93/174/36 89/175/36 92/176/36
f 97/177/37 98/178/37 94/179/37 93/180/37
f 98/181/38 99/182/38 95/183/38 94/184/38
f 99/185/39 100/186/39 96/187/39 95/188/39
f 100/189/40 97/190/40 93/191/40 96/192/40
f 101/193/41 102/194/41 98/195/41 97/196/41
f 102/197/42 103/198/42 99/199/42 98/200/42
f 103/201/43 104/202/43 100/203/43 99/204/43
f 104/205/44 101/206/44 97/207/44 100/208/44
f 108/209/45 105/210/45 106/211/45
f 106/212/45 107/213/45 108/214/45
f 110/215/46 109/216/46 112/217/46
f 112/218/46 111/219/46 110/220/46
f 117/221/33 118/222/33 114/223/33 113/224/33
f 118/225/34 119/226/34 115/227/34 114/228/34
f 119/229/35 120/230/35 116/231/35 115/232/35
f 120/233/36 117/234/36 113/235/36 116/236/36
f 121/237/37 122/238/37 118/239/37 117/240/37
f 122/241/38 123/242/38 119/243/38 118/244/38
f 123/245/39 124/246/39 120/247/39 119/248/39
f 124/249/40 121/250/40 117/251/40 120/252/40
f 125/253/41 126/254/41 122/255/41 121/256/41
f 126/257/42 127/258/42 123/259/42 122/260/42
f 127/261/43 128/262/43 124/263/43 123/264/43
f 128/265/44 125/266/44 121/267/44 124/268/44
f 132/269/45 129/270/45 130/271/45
f 130/272/45 131/273/45 132/274/45
f 134/275/46 133/276/46 136/277/46
f 136/278/46 135/279/46 134/280/46
o counter_deck
usemtl counter
v 0.055 0.075 0.2425
v 0.055 0.075 0.97
v 0.945 0.075 0.97
v 0.945 0.075 0.2425
v 0.05 0.08 0.2375
v 0.05 0.08 0.975
v 0.95 0.08 0.975
v 0.95 0.08 0.2375
v 0.05 0.12 0.2375
v 0.05 0.12 0.975
v 0.95 0.12 0.975
v 0.95 0.12 0.2375
v 0.055 0.125 0.2425
v 0.055 0.125 0.97
v 0.945 0.125 0.97
v 0.945 0.125 0.2425
v 0.055 0.075 0.2425
v 0.055 0.075 0.97
v 0.945 0.075 0.97
v 0.945 0.075 0.2425
v 0.055 0.125 0.2425
v 0.055 0.125 0.97
v 0.945 0.125 0.97
v 0.945 0.125 0.2425
vt 0.883008 0.034678
vt 0.982471 0.034678
vt 0.983154 0.035645
vt 0.882324 0.035645
vt 0.253125 0.034678
vt 0.374805 0.034678
vt 0.375488 0.035645
vt 0.252441 0.035645
vt 0.102588 0.030762
vt 0.003125 0.030762
vt 0.002441 0.029795
vt 0.103271 0.029795
vt 0.124805 0.026855
vt 0.003125 0.026855
vt 0.002441 0.025889
vt 0.125488 0.025889
vt 0.692871 0.137598
vt 0.793701 0.137598
vt 0.793701 0.143066
vt 0.692871 0.143066
vt 0.440918 0.137598
vt 0.563965 0.137598
vt 0.563965 0.143066
vt 0.440918 0.143066
vt 0.898193 0.143066
vt 0.797363 0.143066
vt 0.797363 0.137598
vt 0.898193 0.137598
vt 0.566895 0.137598
vt 0.689941 0.137598
vt 0.689941 0.143066
vt 0.566895 0.143066
vt 0.106934 0.029795
vt 0.207764 0.029795
vt 0.20708 0.030762
vt 0.107617 0.030762
vt 0.501465 0.035645
vt 0.378418 0.035645
vt 0.379102 0.034678
vt 0.500781 0.034678
vt 0.312256 0.030762
vt 0.211426 0.030762
vt 0.212109 0.029795
vt 0.311572 0.029795
vt 0.850098 0.029795
vt 0.973145 0.029795
vt 0.972461 0.030762
vt 0.850781 0.030762
vt 0.123535 0.51123
vt 0.123535 0.411768
vt 0.245215 0.411768
vt 0.245215 0.411768
vt 0.245215 0.51123
vt 0.123535 0.51123
vt 0.248535 0.411768
vt 0.370215 0.411768
vt 0.370215 0.51123
vt 0.370215 0.51123
vt 0.248535 0.51123
vt 0.248535 0.411768
vn -0.707107 -0.707107 0
vn 0 -0.707107 0.707107
vn 0.707107 -0.707107 0
vn 0 -0.707107 -0.707107
vn -1 0 0
vn 0 0 1
vn 1 0 0
vn 0 0 -1
vn -0.707107 0.707107 0
vn 0 0.707107 0.707107
vn 0.707107 0.707107 0
vn 0 0.707107 -0.707107
vn 0 -1 0
vn 0 1 0
f 137/281/47 138/282/47 142/283/47 141/284/47
f 138/285/48 139/286/48 143/287/48 142/288/48
f 139/289/49 140/290/49 144/291/49 143/292/49
f 140/293/50 137/294/50 141/295/50 144/296/50
f 141/297/51 142/298/51 146/299/51 145/300/51
f 142/301/52 143/302/52 147/303/52 146/304/52
f 143/305/53 144/306/53 148/307/53 147/308/53
f 144/309/54 141/310/54 145/311/54 148/312/54
f 145/313/55 146/314/55 150/315/55 149/316/55
f 146/317/56 147/318/56 151/319/56 150/320/56
f 147/321/57 148/322/57 152/323/57 151/324/57
f 148/325/58 145/326/58 149/327/58 152/328/58
f 154/329/59 153/330/59 156/331/59
f 156/332/59 155/333/59 154/334/59
f 160/335/60 157/336/60 158/337/60
f 158/338/60 159/339/60 160/340/60
o counter_divider
usemtl counter
v 0.475 0.13 0.2425
v 0.475 0.13 0.97
v 0.475 0.845 0.97
v 0.475 0.845 0.2425
v 0.48 0.125 0.2375
v 0.48 0.125 0.975
v 0.48 0.85 0.975
v 0.48 0.85 0.2375
v 0.52 0.125 0.2375
v 0.52 0.125 0.975
v 0.52 0.85 0.975
v 0.52 0.85 0.2375
v 0.525 0.13 0.2425
v 0.525 0.13 0.97
v 0.525 0.845 0.97
v 0.525 0.845 0.2425
v 0.475 0.13 0.2425
v 0.475 0.13 0.97
v 0.475 0.845 0.97
v 0.475 0.845 0.2425
v 0.525 0.13 0.2425
v 0.525 0.13 0.97
v 0.525 0.845 0.97
v 0.525 0.845 0.2425
vt 0.128418 0.025889
vt 0.229248 0.025889
vt 0.228564 0.026855
vt 0.129102 0.026855
vt 0.624023 0.030762
vt 0.524902 0.030762
vt 0.525586 0.029795
vt 0.62334 0.029795
vt 0.416748 0.030762
vt 0.315918 0.030762
vt 0.316602 0.029795
vt 0.416064 0.029795
vt 0.337402 0.025889
vt 0.436523 0.025889
vt 0.43584 0.026855
vt 0.338086 0.026855
vt 0.026855 0.137598
vt 0.127686 0.137598
vt 0.127686 0.143066
vt 0.026855 0.143066
vt 0.23584 0.137598
vt 0.334961 0.137598
vt 0.334961 0.143066
vt 0.23584 0.143066
vt 0.232178 0.143066
vt 0.131348 0.143066
vt 0.131348 0.137598
vt 0.232178 0.137598
vt 0.4375 0.143066
vt 0.338379 0.143066
vt 0.338379 0.137598
vt 0.4375 0.137598
vt 0.233594 0.025889
vt 0.333057 0.025889
vt 0.33374 0.026855
vt 0.23291 0.026855
vt 0.628125 0.029795
vt 0.725879 0.029795
vt 0.726563 0.030762
vt 0.627441 0.030762
vt 0.520557 0.030762
vt 0.421094 0.030762
vt 0.42041 0.029795
vt 0.52124 0.029795
vt 0.538379 0.026855
vt 0.440625 0.026855
vt 0.439941 0.025889
vt 0.539063 0.025889
vt 0.850098 0.51123
vt 0.850098 0.413477
vt 0.949561 0.413477
vt 0.949561 0.413477
vt 0.949561 0.51123
vt 0.850098 0.51123
vt 0.101904 0.403809
vt 0.002441 0.403809
vt 0.002441 0.306055
vt 0.002441 0.306055
vt 0.101904 0.306055
vt 0.101904 0.403809
vn -0.707107 -0.707107 0
vn -0.707107 0 0.707107
vn -0.707107 0.707107 0
vn -0.707107 0 -0.707107
vn 0 -1 0
vn 0 0 1
vn 0 1 0
vn 0 0 -1
vn 0.707107 -0.707107 0
vn 0.707107 0 0.707107
vn 0.707107 0.707107 0
vn 0.707107 0 -0.707107
vn -1 0 0
vn 1 0 0
f 165/341/61 166/342/61 162/343/61 161/344/61
f 166/345/62 167/346/62 163/347/62 162/348/62
f 167/349/63 168/350/63 164/351/63 163/352/63
f 168/353/64 165/354/64 161/355/64 164/356/64
f 169/357/65 170/358/65 166/359/65 165/360/65
f 170/361/66 171/362/66 167/363/66 166/364/66
f 171/365/67 172/366/67 168/367/67 167/368/67
f 172/369/68 169/370/68 165/371/68 168/372/68
f 173/373/69 174/374/69 170/375/69 169/376/69
f 174/377/70 175/378/70 171/379/70 170/380/70
f 175/381/71 176/382/71 172/383/71 171/384/71
f 176/385/72 173/386/72 169/387/72 172/388/72
f 180/389/73 177/390/73 178/391/73
f 178/392/73 179/393/73 180/394/73
f 182/395/74 181/396/74 184/397/74
f 184/398/74 183/399/74 182/400/74
o counter_shelf
usemtl counter
v 0.05375 0.4375 0.24125
v 0.05375 0.4375 0.95875
v 0.47125 0.4375 0.95875
v 0.47125 0.4375 0.24125
v 0.05 0.44125 0.2375
v 0.05 0.44125 0.9625
v 0.475 0.44125 0.9625
v 0.475 0.44125 0.2375
v 0.05 0.45875 0.2375
v 0.05 0.45875 0.9625
v 0.475 0.45875 0.9625
v 0.475 0.45875 0.2375
v 0.05375 0.4625 0.24125
v 0.05375 0.4625 0.95875
v 0.47125 0.4625 0.95875
v 0.47125 0.4625 0.24125
v 0.05375 0.4375 0.24125
v 0.05375 0.4375 0.95875
v 0.47125 0.4375 0.95875
v 0.47125 0.4375 0.24125
v 0.05375 0.4625 0.24125
v 0.05375 0.4625 0.95875
v 0.47125 0.4625 0.95875
v 0.47125 0.4625 0.24125
v 0.52875 0.4375 0.24125
v 0.52875 0.4375 0.95875
v 0.94625 0.4375 0.95875
v 0.94625 0.4375 0.24125
v 0.525 0.44125 0.2375
v 0.525 0.44125 0.9625
v 0.95 0.44125 0.9625
v 0.95 0.44125 0.2375
v 0.525 0.45875 0.2375
v 0.525 0.45875 0.9625
v 0.95 0.45875 0.9625
v 0.95 0.45875 0.2375
v 0.52875 0.4625 0.24125
v 0.52875 0.4625 0.95875
v 0.94625 0.4625 0.95875
v 0.94625 0.4625 0.24125
v 0.52875 0.4375 0.24125
v 0.52875 0.4375 0.95875
v 0.94625 0.4375 0.95875
v 0.94625 0.4375 0.24125
v 0.52875 0.4625 0.24125
v 0.52875 0.4625 0.95875
v 0.94625 0.4625 0.95875
v 0.94625 0.4625 0.24125
vt 0.532251 0.010505
vt 0.630347 0.010505
vt 0.630859 0.01123
vt 0.531738 0.01123
vt 0.870142 0.014412
vt 0.927222 0.014412
vt 0.927734 0.015137
vt 0.869629 0.015137
vt 0.353003 0.015137
vt 0.254907 0.015137
vt 0.254395 0.014412
vt 0.353516 0.014412
vt 0.988745 0.015137
vt 0.931665 0.015137
vt 0.931152 0.014412
vt 0.989258 0.014412
vt 0.002441 0.086963
vt 0.101563 0.086963
vt 0.101563 0.089355
vt 0.002441 0.089355
vt 0.412598 0.086963
vt 0.470703 0.086963
vt 0.470703 0.089355
vt 0.412598 0.089355
vt 0.204102 0.089355
vt 0.10498 0.089355
vt 0.10498 0.086963
vt 0.204102 0.086963
vt 0.474121 0.086963
vt 0.532227 0.086963
vt 0.532227 0.089355
vt 0.474121 0.089355
vt 0.356934 0.014412
vt 0.456055 0.014412
vt 0.455542 0.015137
vt 0.357446 0.015137
vt 0.306641 0.01123
vt 0.248535 0.01123
vt 0.249048 0.010505
vt 0.306128 0.010505
vt 0.558594 0.015137
vt 0.459473 0.015137
vt 0.459985 0.014412
vt 0.558081 0.014412
vt 0.002441 0.010505
vt 0.060547 0.010505
vt 0.060034 0.01123
vt 0.002954 0.01123
vt 0.482373 0.403809
vt 0.384277 0.403809
vt 0.384277 0.346729
vt 0.384277 0.346729
vt 0.482373 0.346729
vt 0.482373 0.403809
vt 0.48584 0.403809
vt 0.48584 0.346729
vt 0.583936 0.346729
vt 0.583936 0.346729
vt 0.583936 0.403809
vt 0.48584 0.403809
vt 0.562524 0.014412
vt 0.66062 0.014412
vt 0.661133 0.015137
vt 0.562012 0.015137
vt 0.064478 0.010505
vt 0.121558 0.010505
vt 0.12207 0.01123
vt 0.063965 0.01123
vt 0.732886 0.01123
vt 0.63479 0.01123
vt 0.634277 0.010505
vt 0.733398 0.010505
vt 0.183081 0.01123
vt 0.126001 0.01123
vt 0.125488 0.010505
vt 0.183594 0.010505
vt 0.20752 0.086963
vt 0.306641 0.086963
vt 0.306641 0.089355
vt 0.20752 0.089355
vt 0.535645 0.086963
vt 0.59375 0.086963
vt 0.59375 0.089355
vt 0.535645 0.089355
vt 0.40918 0.089355
vt 0.310059 0.089355
vt 0.310059 0.086963
vt 0.40918 0.086963
vt 0.597168 0.086963
vt 0.655273 0.086963
vt 0.655273 0.089355
vt 0.597168 0.089355
vt 0.664551 0.014412
vt 0.763672 0.014412
vt 0.763159 0.015137
vt 0.665063 0.015137
vt 0.245117 0.01123
vt 0.187012 0.01123
vt 0.187524 0.010505
vt 0.244604 0.010505
vt 0.866211 0.015137
vt 0.76709 0.015137
vt 0.767603 0.014412
vt 0.865698 0.014412
vt 0.310059 0.010505
vt 0.368164 0.010505
vt 0.367651 0.01123
vt 0.310571 0.01123
vt 0.685498 0.403809
vt 0.587402 0.403809
vt 0.587402 0.346729
vt 0.587402 0.346729
vt 0.685498 0.346729
vt 0.685498 0.403809
vt 0.688965 0.403809
vt 0.688965 0.346729
vt 0.787061 0.346729
vt 0.787061 0.346729
vt 0.787061 0.403809
vt 0.688965 0.403809
vn -0.707107 -0.707107 0
vn 0 -0.707107 0.707107
vn 0.707107 -0.707107 0
vn 0 -0.707107 -0.707107
vn -1 0 0
vn 0 0 1
vn 1 0 0
vn 0 0 -1
vn -0.707107 0.707107 0
vn 0 0.707107 0.707107
vn 0.707107 0.707107 0
vn 0 0.707107 -0.707107
vn 0 -1 0
vn 0 1 0
f 185/401/75 186/402/75 190/403/75 189/404/75
f 186/405/76 187/406/76 191/407/76 190/408/76
f 187/409/77 188/410/77 192/411/77 191/412/77
f 188/413/78 185/414/78 189/415/78 192/416/78
f 189/417/79 190/418/79 194/419/79 193/420/79
f 190/421/80 191/422/80 195/423/80 194/424/80
f 191/425/81 192/426/81 196/427/81 195/428/81
f 192/429/82 189/430/82 193/431/82 196/432/82
f 193/433/83 194/434/83 198/435/83 197/436/83
f 194/437/84 195/438/84 199/439/84 198/440/84
f 195/441/85 196/442/85 200/443/85 199/444/85
f 196/445/86 193/446/86 197/447/86 200/448/86
f 202/449/87 201/450/87 204/451/87
f 204/452/87 203/453/87 202/454/87
f 208/455/88 205/456/88 206/457/88
f 206/458/88 207/459/88 208/460/88
f 209/461/75 210/462/75 214/463/75 213/464/75
f 210/465/76 211/466/76 215/467/76 214/468/76
f 211/469/77 212/470/77 216/471/77 215/472/77
f 212/473/78 209/474/78 213/475/78 216/476/78
f 213/477/79 214/478/79 218/479/79 217/480/79
f 214/481/80 215/482/80 219/483/80 218/484/80
f 215/485/81 216/486/81 220/487/81 219/488/81
f 216/489/82 213/490/82 217/491/82 220/492/82
f 217/493/83 218/494/83 222/495/83 221/496/83
f 218/497/84 219/498/84 223/499/84 222/500/84
f 219/501/85 220/502/85 224/503/85 223/504/85
f 220/505/86 217/506/86 221/507/86 224/508/86
f 226/509/87 225/510/87 228/511/87
f 228/512/87 227/513/87 226/514/87
f 232/515/88 229/516/88 230/517/88
f 230/518/88 231/519/88 232/520/88
o counter_rail
usemtl counter
v 0.055 0.855 0.9375
v 0.945 0.855 0.9375
v 0.945 0.9325 0.9375
v 0.055 0.9325 0.9375
v 0.05 0.85 0.9425
v 0.95 0.85 0.9425
v 0.95 0.9375 0.9425
v 0.05 0.9375 0.9425
v 0.05 0.85 0.97
v 0.95 0.85 0.97
v 0.95 0.9375 0.97
v 0.05 0.9375 0.97
v 0.055 0.855 0.975
v 0.945 0.855 0.975
v 0.945 0.9325 0.975
v 0.055 0.9325 0.975
v 0.055 0.855 0.9375
v 0.945 0.855 0.9375
v 0.945 0.9325 0.9375
v 0.055 0.9325 0.9375
v 0.055 0.855 0.975
v 0.945 0.855 0.975
v 0.945 0.9325 0.975
v 0.055 0.9325 0.975
vt 0.558789 0.025889
vt 0.680469 0.025889
vt 0.681152 0.026855
vt 0.558105 0.026855
vt 0.730664 0.029795
vt 0.74126 0.029795
vt 0.741943 0.030762
vt 0.72998 0.030762
vt 0.505078 0.034678
vt 0.626758 0.034678
vt 0.627441 0.035645
vt 0.504395 0.035645
vt 0.746289 0.029795
vt 0.756885 0.029795
vt 0.757568 0.030762
vt 0.745605 0.030762
vt 0.438965 0.112939
vt 0.562012 0.112939
vt 0.562012 0.116699
vt 0.438965 0.116699
vt 0.690918 0.112939
vt 0.702881 0.112939
vt 0.702881 0.116699
vt 0.690918 0.116699
vt 0.564941 0.112939
vt 0.687988 0.112939
vt 0.687988 0.116699
vt 0.564941 0.116699
vt 0.706543 0.112939
vt 0.718506 0.112939
vt 0.718506 0.116699
vt 0.706543 0.116699
vt 0.630371 0.034678
vt 0.753418 0.034678
vt 0.752734 0.035645
vt 0.631055 0.035645
vt 0.76123 0.029795
vt 0.773193 0.029795
vt 0.77251 0.030762
vt 0.761914 0.030762
vt 0.756348 0.034678
vt 0.879395 0.034678
vt 0.878711 0.035645
vt 0.757031 0.035645
vt 0.776855 0.029795
vt 0.788818 0.029795
vt 0.788135 0.030762
vt 0.777539 0.030762
vt 0.475098 0.255518
vt 0.596777 0.255518
vt 0.596777 0.266113
vt 0.596777 0.266113
vt 0.475098 0.266113
vt 0.475098 0.255518
vt 0.600098 0.266113
vt 0.600098 0.255518
vt 0.721777 0.255518
vt 0.721777 0.255518
vt 0.721777 0.266113
vt 0.600098 0.266113
vn 0 -0.707107 -0.707107
vn 0.707107 0 -0.707107
vn 0 0.707107 -0.707107
vn -0.707107 0 -0.707107
vn 0 -1 0
vn 1 0 0
vn 0 1 0
vn -1 0 0
vn 0 -0.707107 0.707107
vn 0.707107 0 0.707107
vn 0 0.707107 0.707107
vn -0.707107 0 0.707107
vn 0 0 -1
vn 0 0 1
f 233/521/89 234/522/89 238/523/89 237/524/89
f 234/525/90 235/526/90 239/527/90 238/528/90
f 235/529/91 236/530/91 240/531/91 239/532/91
f 236/533/92 233/534/92 237/535/92 240/536/92
f 237/537/93 238/538/93 242/539/93 241/540/93
f 238/541/94 239/542/94 243/543/94 242/544/94
f 239/545/95 240/546/95 244/547/95 243/548/95
f 240/549/96 237/550/96 241/551/96 244/552/96
f 241/553/97 242/554/97 246/555/97 245/556/97
f 242/557/98 243/558/98 247/559/98 246/560/98
f 243/561/99 244/562/99 248/563/99 247/564/99
f 244/565/100 241/566/100 245/567/100 248/568/100
f 250/569/101 249/570/101 252/571/101
f 252/572/101 251/573/101 250/574/101
f 256/575/102 253/576/102 254/577/102
f 254/578/102 255/579/102 256/580/102
o counter_trays
usemtl counter
v 0.05375 0.1625 0.01625
v 0.05375 0.1625 0.18375
v 0.94625 0.1625 0.18375
v 0.94625 0.1625 0.01625
v 0.05 0.16625 0.0125
v 0.05 0.16625 0.1875
v 0.95 0.16625 0.1875
v 0.95 0.16625 0.0125
v 0.05 0.180625 0.0125
v 0.05 0.180625 0.1875
v 0.95 0.180625 0.1875
v 0.95 0.180625 0.0125
v 0.05375 0.184375 0.01625
v 0.05375 0.184375 0.18375
v 0.94625 0.184375 0.18375
v 0.94625 0.184375 0.01625
v 0.05375 0.1625 0.01625
v 0.05375 0.1625 0.18375
v 0.94625 0.1625 0.18375
v 0.94625 0.1625 0.01625
v 0.05375 0.184375 0.01625
v 0.05375 0.184375 0.18375
v 0.94625 0.184375 0.18375
v 0.94625 0.184375 0.01625
v 0.05 0.184375 0.0125
v 0.95 0.184375 0.0125
v 0.95 0.225 0.0125
v 0.05 0.225 0.0125
v 0.05 0.184375 0.03125
v 0.95 0.184375 0.03125
v 0.95 0.225 0.03125
v 0.05 0.225 0.03125
v 0.05 0.184375 0.0125
v 0.95 0.184375 0.0125
v 0.95 0.225 0.0125
v 0.05 0.225 0.0125
v 0.05 0.184375 0.03125
v 0.95 0.184375 0.03125
v 0.95 0.225 0.03125
v 0.05 0.225 0.03125
v 0.05 0.184375 0.03125
v 0.05 0.184375 0.1875
v 0.05 0.21875 0.1875
v 0.05 0.21875 0.03125
v 0.06875 0.184375 0.03125
v 0.06875 0.184375 0.1875
v 0.06875 0.21875 0.1875
v 0.06875 0.21875 0.03125
v 0.05 0.184375 0.03125
v 0.05 0.184375 0.1875
v 0.05 0.21875 0.1875
v 0.05 0.21875 0.03125
v 0.06875 0.184375 0.03125
v 0.06875 0.184375 0.1875
v 0.06875 0.21875 0.1875
v 0.06875 0.21875 0.03125
v 0.93125 0.184375 0.03125
v 0.93125 0.184375 0.1875
v 0.93125 0.21875 0.1875
v 0.93125 0.21875 0.03125
v 0.95 0.184375 0.03125
v 0.95 0.184375 0.1875
v 0.95 0.21875 0.1875
v 0.95 0.21875 0.03125
v 0.93125 0.184375 0.03125
v 0.93125 0.184375 0.1875
v 0.93125 0.21875 0.1875
v 0.93125 0.21875 0.03125
v 0.95 0.184375 0.03125
v 0.95 0.184375 0.1875
v 0.95 0.21875 0.1875
v 0.95 0.21875 0.03125
v 0.05375 0.3875 0.02875
v 0.05375 0.3875 0.18375
v 0.94625 0.3875 0.18375
v 0.94625 0.3875 0.02875
v 0.05 0.39125 0.025
v 0.05 0.39125 0.1875
v 0.95 0.39125 0.1875
v 0.95 0.39125 0.025
v 0.05 0.405625 0.025
v 0.05 0.405625 0.1875
v 0.95 0.405625 0.1875
v 0.95 0.405625 0.025
v 0.05375 0.409375 0.02875
v 0.05375 0.409375 0.18375
v 0.94625 0.409375 0.18375
v 0.94625 0.409375 0.02875
v 0.05375 0.3875 0.02875
v 0.05375 0.3875 0.18375
v 0.94625 0.3875 0.18375
v 0.94625 0.3875 0.02875
v 0.05375 0.409375 0.02875
v 0.05375 0.409375 0.18375
v 0.94625 0.409375 0.18375
v 0.94625 0.409375 0.02875
v 0.05 0.409375 0.025
v 0.95 0.409375 0.025
v 0.95 0.45 0.025
v 0.05 0.45 0.025
v 0.05 0.409375 0.04375
v 0.95 0.409375 0.04375
v 0.95 0.45 0.04375
v 0.05 0.45 0.04375
v 0.05 0.409375 0.025
v 0.95 0.409375 0.025
v 0.95 0.45 0.025
v 0.05 0.45 0.025
v 0.05 0.409375 0.04375
v 0.95 0.409375 0.04375
v 0.95 0.45 0.04375
v 0.05 0.45 0.04375
v 0.05 0.409375 0.04375
v 0.05 0.409375 0.1875
v 0.05 0.44375 0.1875
v 0.05 0.44375 0.04375
v 0.06875 0.409375 0.04375
v 0.06875 0.409375 0.1875
v 0.06875 0.44375 0.1875
v 0.06875 0.44375 0.04375
v 0.05 0.409375 0.04375
v 0.05 0.409375 0.1875
v 0.05 0.44375 0.1875
v 0.05 0.44375 0.04375
v 0.06875 0.409375 0.04375
v 0.06875 0.409375 0.1875
v 0.06875 0.44375 0.1875
v 0.06875 0.44375 0.04375
v 0.93125 0.409375 0.04375
v 0.93125 0.409375 0.1875
v 0.93125 0.44375 0.1875
v 0.93125 0.44375 0.04375
v 0.95 0.409375 0.04375
v 0.95 0.409375 0.1875
v 0.95 0.44375 0.1875
v 0.95 0.44375 0.04375
v 0.93125 0.409375 0.04375
v 0.93125 0.409375 0.1875
v 0.93125 0.44375 0.1875
v 0.93125 0.44375 0.04375
v 0.95 0.409375 0.04375
v 0.95 0.409375 0.1875
v 0.95 0.44375 0.1875
v 0.95 0.44375 0.04375
v 0.05375 0.6125 0.04125
v 0.05375 0.6125 0.18375
v 0.94625 0.6125 0.18375
v 0.94625 0.6125 0.04125
v 0.05 0.61625 0.0375
v 0.05 0.61625 0.1875
v 0.95 0.61625 0.1875
v 0.95 0.61625 0.0375
v 0.05 0.630625 0.0375
v 0.05 0.630625 0.1875
v 0.95 0.630625 0.1875
v 0.95 0.630625 0.0375
v 0.05375 0.634375 0.04125
v 0.05375 0.634375 0.18375
v 0.94625 0.634375 0.18375
v 0.94625 0.634375 0.04125
v 0.05375 0.6125 0.04125
v 0.05375 0.6125 0.18375
v 0.94625 0.6125 0.18375
v 0.94625 0.6125 0.04125
v 0.05375 0.634375 0.04125
v 0.05375 0.634375 0.18375
v 0.94625 0.634375 0.18375
v 0.94625 0.634375 0.04125
v 0.05 0.634375 0.0375
v 0.95 0.634375 0.0375
v 0.95 0.675 0.0375
v 0.05 0.675 0.0375
v 0.05 0.634375 0.05625
v 0.95 0.634375 0.05625
v 0.95 0.675 0.05625
v 0.05 0.675 0.05625
v 0.05 0.634375 0.0375
v 0.95 0.634375 0.0375
v 0.95 0.675 0.0375
v 0.05 0.675 0.0375
v 0.05 0.634375 0.05625
v 0.95 0.634375 0.05625
v 0.95 0.675 0.05625
v 0.05 0.675 0.05625
v 0.05 0.634375 0.05625
v 0.05 0.634375 0.1875
v 0.05 0.66875 0.1875
v 0.05 0.66875 0.05625
v 0.06875 0.634375 0.05625
v 0.06875 0.634375 0.1875
v 0.06875 0.66875 0.1875
v 0.06875 0.66875 0.05625
v 0.05 0.634375 0.05625
v 0.05 0.634375 0.1875
v 0.05 0.66875 0.1875
v 0.05 0.66875 0.05625
v 0.06875 0.634375 0.05625
v 0.06875 0.634375 0.1875
v 0.06875 0.66875 0.1875
v 0.06875 0.66875 0.05625
v 0.93125 0.634375 0.05625
v 0.93125 0.634375 0.1875
v 0.93125 0.66875 0.1875
v 0.93125 0.66875 0.05625
v 0.95 0.634375 0.05625
v 0.95 0.634375 0.1875
v 0.95 0.66875 0.1875
v 0.95 0.66875 0.05625
v 0.93125 0.634375 0.05625
v 0.93125 0.634375 0.1875
v 0.93125 0.66875 0.1875
v 0.93125 0.66875 0.05625
v 0.95 0.634375 0.05625
v 0.95 0.634375 0.1875
v 0.95 0.66875 0.1875
v 0.95 0.66875 0.05625
vt 0.372095 0.010505
vt 0.394995 0.010505
vt 0.395508 0.01123
vt 0.371582 0.01123
vt 0.254907 0.018318
vt 0.376929 0.018318
vt 0.377441 0.019043
vt 0.254395 0.019043
vt 0.422339 0.01123
vt 0.399438 0.01123
vt 0.398926 0.010505
vt 0.422852 0.010505
vt 0.502905 0.019043
vt 0.380884 0.019043
vt 0.380371 0.018318
vt 0.503418 0.018318
vt 0.279785 0.063953
vt 0.303711 0.063953
vt 0.303711 0.065918
vt 0.279785 0.065918
vt 0.027832 0.063953
vt 0.150879 0.063953
vt 0.150879 0.065918
vt 0.027832 0.065918
vt 0.331055 0.065918
vt 0.307129 0.065918
vt 0.307129 0.063953
vt 0.331055 0.063953
vt 0.153809 0.063953
vt 0.276855 0.063953
vt 0.276855 0.065918
vt 0.153809 0.065918
vt 0.42627 0.010505
vt 0.450195 0.010505
vt 0.449683 0.01123
vt 0.426782 0.01123
vt 0.931152 0.022949
vt 0.808105 0.022949
vt 0.808618 0.022224
vt 0.93064 0.022224
vt 0.477539 0.01123
vt 0.453613 0.01123
vt 0.454126 0.010505
vt 0.477026 0.010505
vt 0.002441 0.018318
vt 0.125488 0.018318
vt 0.124976 0.019043
vt 0.002954 0.019043
vt 0.424316 0.302246
vt 0.424316 0.279346
vt 0.546338 0.279346
vt 0.546338 0.279346
vt 0.546338 0.302246
vt 0.424316 0.302246
vt 0.549316 0.279346
vt 0.671338 0.279346
vt 0.671338 0.302246
vt 0.671338 0.302246
vt 0.549316 0.302246
vt 0.549316 0.279346
vt 0.706543 0.099487
vt 0.82959 0.099487
vt 0.82959 0.102051
vt 0.706543 0.102051
vt 0.818848 0.092651
vt 0.824402 0.092651
vt 0.824402 0.095215
vt 0.818848 0.095215
vt 0.83252 0.099487
vt 0.955566 0.099487
vt 0.955566 0.102051
vt 0.83252 0.102051
vt 0.827637 0.092651
vt 0.833191 0.092651
vt 0.833191 0.095215
vt 0.827637 0.095215
vt 0.620605 0.156067
vt 0.743652 0.156067
vt 0.743652 0.161621
vt 0.743652 0.161621
vt 0.620605 0.161621
vt 0.620605 0.156067
vt 0.746582 0.161621
vt 0.746582 0.156067
vt 0.869629 0.156067
vt 0.869629 0.156067
vt 0.869629 0.161621
vt 0.746582 0.161621
vt 0.506348 0.092651
vt 0.52771 0.092651
vt 0.52771 0.095215
vt 0.506348 0.095215
vt 0.898926 0.092651
vt 0.903625 0.092651
vt 0.903625 0.095215
vt 0.898926 0.095215
vt 0.552124 0.095215
vt 0.530762 0.095215
vt 0.530762 0.092651
vt 0.552124 0.092651
vt 0.911438 0.095215
vt 0.906738 0.095215
vt 0.906738 0.092651
vt 0.911438 0.092651
vt 0.245605 0.116699
vt 0.245605 0.112
vt 0.266968 0.112
vt 0.266968 0.112
vt 0.266968 0.116699
vt 0.245605 0.116699
vt 0.291382 0.116699
vt 0.27002 0.116699
vt 0.27002 0.112
vt 0.27002 0.112
vt 0.291382 0.112
vt 0.291382 0.116699
vt 0.555176 0.092651
vt 0.576538 0.092651
vt 0.576538 0.095215
vt 0.555176 0.095215
vt 0.914551 0.092651
vt 0.91925 0.092651
vt 0.91925 0.095215
vt 0.914551 0.095215
vt 0.600952 0.095215
vt 0.57959 0.095215
vt 0.57959 0.092651
vt 0.600952 0.092651
vt 0.927063 0.095215
vt 0.922363 0.095215
vt 0.922363 0.092651
vt 0.927063 0.092651
vt 0.294434 0.116699
vt 0.294434 0.112
vt 0.315796 0.112
vt 0.315796 0.112
vt 0.315796 0.116699
vt 0.294434 0.116699
vt 0.34021 0.116699
vt 0.318848 0.116699
vt 0.318848 0.112
vt 0.318848 0.112
vt 0.34021 0.112
vt 0.34021 0.116699
vt 0.709009 0.022224
vt 0.7302 0.022224
vt 0.730713 0.022949
vt 0.708496 0.022949
vt 0.50686 0.018318
vt 0.628882 0.018318
vt 0.629395 0.019043
vt 0.506348 0.019043
vt 0.755591 0.022949
vt 0.734399 0.022949
vt 0.733887 0.022224
vt 0.756104 0.022224
vt 0.754858 0.019043
vt 0.632837 0.019043
vt 0.632324 0.018318
vt 0.755371 0.018318
vt 0.961426 0.069812
vt 0.983643 0.069812
vt 0.983643 0.071777
vt 0.961426 0.071777
vt 0.709473 0.069812
vt 0.83252 0.069812
vt 0.83252 0.071777
vt 0.709473 0.071777
vt 0.024658 0.065918
vt 0.002441 0.065918
vt 0.002441 0.063953
vt 0.024658 0.063953
vt 0.835449 0.069812
vt 0.958496 0.069812
vt 0.958496 0.071777
vt 0.835449 0.071777
vt 0.480957 0.010505
vt 0.503174 0.010505
vt 0.502661 0.01123
vt 0.48147 0.01123
vt 0.881348 0.019043
vt 0.758301 0.019043
vt 0.758813 0.018318
vt 0.880835 0.018318
vt 0.528564 0.01123
vt 0.506348 0.01123
vt 0.50686 0.010505
vt 0.528052 0.010505
vt 0.002441 0.014412
vt 0.125488 0.014412
vt 0.124976 0.015137
vt 0.002954 0.015137
vt 0.674316 0.302246
vt 0.674316 0.281055
vt 0.796338 0.281055
vt 0.796338 0.281055
vt 0.796338 0.302246
vt 0.674316 0.302246
vt 0.799316 0.281055
vt 0.921338 0.281055
vt 0.921338 0.302246
vt 0.921338 0.302246
vt 0.799316 0.302246
vt 0.799316 0.281055
vt 0.002441 0.092651
vt 0.125488 0.092651
vt 0.125488 0.095215
vt 0.002441 0.095215
vt 0.783691 0.092651
vt 0.789246 0.092651
vt 0.789246 0.095215
vt 0.783691 0.095215
vt 0.128418 0.092651
vt 0.251465 0.092651
vt 0.251465 0.095215
vt 0.128418 0.095215
vt 0.79248 0.092651
vt 0.798035 0.092651
vt 0.798035 0.095215
vt 0.79248 0.095215
vt 0.116699 0.156067
vt 0.239746 0.156067
vt 0.239746 0.161621
vt 0.239746 0.161621
vt 0.116699 0.161621
vt 0.116699 0.156067
vt 0.242676 0.161621
vt 0.242676 0.156067
vt 0.365723 0.156067
vt 0.365723 0.156067
vt 0.365723 0.161621
vt 0.242676 0.161621
vt 0.604004 0.092651
vt 0.623657 0.092651
vt 0.623657 0.095215
vt 0.604004 0.095215
vt 0.836426 0.092651
vt 0.841125 0.092651
vt 0.841125 0.095215
vt 0.836426 0.095215
vt 0.647095 0.095215
vt 0.627441 0.095215
vt 0.627441 0.092651
vt 0.647095 0.092651
vt 0.848938 0.095215
vt 0.844238 0.095215
vt 0.844238 0.092651
vt 0.848938 0.092651
vt 0.717285 0.125488
vt 0.717285 0.120789
vt 0.736938 0.120789
vt 0.736938 0.120789
vt 0.736938 0.125488
vt 0.717285 0.125488
vt 0.760376 0.125488
vt 0.740723 0.125488
vt 0.740723 0.120789
vt 0.740723 0.120789
vt 0.760376 0.120789
vt 0.760376 0.125488
vt 0.650879 0.092651
vt 0.670532 0.092651
vt 0.670532 0.095215
vt 0.650879 0.095215
vt 0.852051 0.092651
vt 0.85675 0.092651
vt 0.85675 0.095215
vt 0.852051 0.095215
vt 0.69397 0.095215
vt 0.674316 0.095215
vt 0.674316 0.092651
vt 0.69397 0.092651
vt 0.864563 0.095215
vt 0.859863 0.095215
vt 0.859863 0.092651
vt 0.864563 0.092651
vt 0.76416 0.125488
vt 0.76416 0.120789
vt 0.783813 0.120789
vt 0.783813 0.120789
vt 0.783813 0.125488
vt 0.76416 0.125488
vt 0.807251 0.125488
vt 0.787598 0.125488
vt 0.787598 0.120789
vt 0.787598 0.120789
vt 0.807251 0.120789
vt 0.807251 0.125488
vt 0.75979 0.022224
vt 0.779272 0.022224
vt 0.779785 0.022949
vt 0.759277 0.022949
vt 0.128931 0.018318
vt 0.250952 0.018318
vt 0.251465 0.019043
vt 0.128418 0.019043
vt 0.803687 0.022949
vt 0.784204 0.022949
vt 0.783691 0.022224
vt 0.804199 0.022224
vt 0.250952 0.015137
vt 0.128931 0.015137
vt 0.128418 0.014412
vt 0.251465 0.014412
vt 0.586426 0.063953
vt 0.606934 0.063953
vt 0.606934 0.065918
vt 0.586426 0.065918
vt 0.334473 0.063953
vt 0.45752 0.063953
vt 0.45752 0.065918
vt 0.334473 0.065918
vt 0.631348 0.065918
vt 0.61084 0.065918
vt 0.61084 0.063953
vt 0.631348 0.063953
vt 0.460449 0.063953
vt 0.583496 0.063953
vt 0.583496 0.065918
vt 0.460449 0.065918
vt 0.934082 0.022224
vt 0.95459 0.022224
vt 0.954077 0.022949
vt 0.934595 0.022949
vt 0.57959 0.022949
vt 0.456543 0.022949
vt 0.457056 0.022224
vt 0.579077 0.022224
vt 0.979004 0.022949
vt 0.958496 0.022949
vt 0.959009 0.022224
vt 0.978491 0.022224
vt 0.58252 0.022224
vt 0.705566 0.022224
vt 0.705054 0.022949
vt 0.583032 0.022949
vt 0.002441 0.266113
vt 0.002441 0.246631
vt 0.124463 0.246631
vt 0.124463 0.246631
vt 0.124463 0.266113
vt 0.002441 0.266113
vt 0.127441 0.246631
vt 0.249463 0.246631
vt 0.249463 0.266113
vt 0.249463 0.266113
vt 0.127441 0.266113
vt 0.127441 0.246631
vt 0.254395 0.092651
vt 0.377441 0.092651
vt 0.377441 0.095215
vt 0.254395 0.095215
vt 0.80127 0.092651
vt 0.806824 0.092651
vt 0.806824 0.095215
vt 0.80127 0.095215
vt 0.380371 0.092651
vt 0.503418 0.092651
vt 0.503418 0.095215
vt 0.380371 0.095215
vt 0.810059 0.092651
vt 0.815613 0.092651
vt 0.815613 0.095215
vt 0.810059 0.095215
vt 0.368652 0.156067
vt 0.491699 0.156067
vt 0.491699 0.161621
vt 0.491699 0.161621
vt 0.368652 0.161621
vt 0.368652 0.156067
vt 0.494629 0.161621
vt 0.494629 0.156067
vt 0.617676 0.156067
vt 0.617676 0.156067
vt 0.617676 0.161621
vt 0.494629 0.161621
vt 0.697754 0.092651
vt 0.715698 0.092651
vt 0.715698 0.095215
vt 0.697754 0.095215
vt 0.867676 0.092651
vt 0.872375 0.092651
vt 0.872375 0.095215
vt 0.867676 0.095215
vt 0.737183 0.095215
vt 0.719238 0.095215
vt 0.719238 0.092651
vt 0.737183 0.092651
vt 0.880188 0.095215
vt 0.875488 0.095215
vt 0.875488 0.092651
vt 0.880188 0.092651
vt 0.811035 0.125488
vt 0.811035 0.120789
vt 0.828979 0.120789
vt 0.828979 0.120789
vt 0.828979 0.125488
vt 0.811035 0.125488
vt 0.850464 0.125488
vt 0.83252 0.125488
vt 0.83252 0.120789
vt 0.83252 0.120789
vt 0.850464 0.120789
vt 0.850464 0.125488
vt 0.740723 0.092651
vt 0.758667 0.092651
vt 0.758667 0.095215
vt 0.740723 0.095215
vt 0.883301 0.092651
vt 0.888 0.092651
vt 0.888 0.095215
vt 0.883301 0.095215
vt 0.780151 0.095215
vt 0.762207 0.095215
vt 0.762207 0.092651
vt 0.780151 0.092651
vt 0.895813 0.095215
vt 0.891113 0.095215
vt 0.891113 0.092651
vt 0.895813 0.092651
vt 0.854004 0.125488
vt 0.854004 0.120789
vt 0.871948 0.120789
vt 0.871948 0.120789
vt 0.871948 0.125488
vt 0.854004 0.125488
vt 0.893433 0.125488
vt 0.875488 0.125488
vt 0.875488 0.120789
vt 0.875488 0.120789
vt 0.893433 0.120789
vt 0.893433 0.125488
vn -0.707107 -0.707107 0
vn 0 -0.707107 0.707107
vn 0.707107 -0.707107 0
vn 0 -0.707107 -0.707107
vn -1 0 0
vn 0 0 1
vn 1 0 0
vn 0 0 -1
vn -0.707107 0.707107 0
vn 0 0.707107 0.707107
vn 0.707107 0.707107 0
vn 0 0.707107 -0.707107
vn 0 -1 0
vn 0 1 0
f 257/581/103 258/582/103 262/583/103 261/584/103
f 258/585/104 259/586/104 263/587/104 262/588/104
f 259/589/105 260/590/105 264/591/105 263/592/105
f 260/593/106 257/594/106 261/595/106 264/596/106
f 261/597/107 262/598/107 266/599/107 265/600/107
f 262/601/108 263/602/108 267/603/108 266/604/108
f 263/605/109 264/606/109 268/607/109 267/608/109
f 264/609/110 261/610/110 265/611/110 268/612/110
f 265/613/111 266/614/111 270/615/111 269/616/111
f 266/617/112 267/618/112 271/619/112 270/620/112
f 267/621/113 268/622/113 272/623/113 271/624/113
f 268/625/114 265/626/114 269/627/114 272/628/114
f 274/629/115 273/630/115 276/631/115
f 276/632/115 275/633/115 274/634/115
f 280/635/116 277/636/116 278/637/116
f 278/638/116 279/639/116 280/640/116
f 281/641/115 282/642/115 286/643/115 285/644/115
f 282/645/109 283/646/109 287/647/109 286/648/109
f 283/649/116 284/650/116 288/651/116 287/652/116
f 284/653/107 281/654/107 285/655/107 288/656/107
f 290/657/110 289/658/110 292/659/110
f 292/660/110 291/661/110 290/662/110
f 296/663/108 293/664/108 294/665/108
f 294/666/108 295/667/108 296/668/108
f 301/669/115 302/670/115 298/671/115 297/672/115
f 302/673/108 303/674/108 299/675/108 298/676/108
f 303/677/116 304/678/116 300/679/116 299/680/116
f 304/681/110 301/682/110 297/683/110 300/684/110
f 308/685/107 305/686/107 306/687/107
f 306/688/107 307/689/107 308/690/107
f 310/691/109 309/692/109 312/693/109
f 312/694/109 311/695/109 310/696/109
f 317/697/115 318/698/115 314/699/115 313/700/115
f 318/701/108 319/702/108 315/703/108 314/704/108
f 319/705/116 320/706/116 316/707/116 315/708/116
f 320/709/110 317/710/110 313/711/110 316/712/110
f 324/713/107 321/714/107 322/715/107
f 322/716/107 323/717/107 324/718/107
f 326/719/109 325/720/109 328/721/109
f 328/722/109 327/723/109 326/724/109
f 329/725/103 330/726/103 334/727/103 333/728/103
f 330/729/104 331/730/104 335/731/104 334/732/104
f 331/733/105 332/734/105 336/735/105 335/736/105
f 332/737/106 329/738/106 333/739/106 336/740/106
f 333/741/107 334/742/107 338/743/107 337/744/107
f 334/745/108 335/746/108 339/747/108 338/748/108
f 335/749/109 336/750/109 340/751/109 339/752/109
f 336/753/110 333/754/110 337/755/110 340/756/110
f 337/757/111 338/758/111 342/759/111 341/760/111
f 338/761/112 339/762/112 343/763/112 342/764/112
f 339/765/113 340/766/113 344/767/113 343/768/113
f 340/769/114 337/770/114 341/771/114 344/772/114
f 346/773/115 345/774/115 348/775/115
f 348/776/115 347/777/115 346/778/115
f 352/779/116 349/780/116 350/781/116
f 350/782/116 351/783/116 352/784/116
f 353/785/115 354/786/115 358/787/115 357/788/115
f 354/789/109 355/790/109 359/791/109 358/792/109
f 355/793/116 356/794/116 360/795/116 359/796/116
f 356/797/107 353/798/107 357/799/107 360/800/107
f 362/801/110 361/802/110 364/803/110
f 364/804/110 363/805/110 362/806/110
f 368/807/108 365/808/108 366/809/108
f 366/810/108 367/811/108 368/812/108
f 373/813/115 374/814/115 370/815/115 369/816/115
f 374/817/108 375/818/108 371/819/108 370/820/108
f 375/821/116 376/822/116 372/823/116 371/824/116
f 376/825/110 373/826/110 369/827/110 372/828/110
f 380/829/107 377/830/107 378/831/107
f 378/832/107 379/833/107 380/834/107
f 382/835/109 381/836/109 384/837/109
f 384/838/109 383/839/109 382/840/109
f 389/841/115 390/842/115 386/843/115 385/844/115
f 390/845/108 391/846/108 387/847/108 386/848/108
f 391/849/116 392/850/116 388/851/116 387/852/116
f 392/853/110 389/854/110 385/855/110 388/856/110
f 396/857/107 393/858/107 394/859/107
f 394/860/107 395/861/107 396/862/107
f 398/863/109 397/864/109 400/865/109
f 400/866/109 399/867/109 398/868/109
f 401/869/103 402/870/103 406/871/103 405/872/103
f 402/873/104 403/874/104 407/875/104 406/876/104
f 403/877/105 404/878/105 408/879/105 407/880/105
f 404/881/106 401/882/106 405/883/106 408/884/106
f 405/885/107 406/886/107 410/887/107 409/888/107
f 406/889/108 407/890/108 411/891/108 410/892/108
f 407/893/109 408/894/109 412/895/109 411/896/109
f 408/897/110 405/898/110 409/899/110 412/900/110
f 409/901/111 410/902/111 414/903/111 413/904/111
f 410/905/112 411/906/112 415/907/112 414/908/112
f 411/909/113 412/910/113 416/911/113 415/912/113
f 412/913/114 409/914/114 413/915/114 416/916/114
f 418/917/115 417/918/115 420/919/115
f 420/920/115 419/921/115 418/922/115
f 424/923/116 421/924/116 422/925/116
f 422/926/116 423/927/116 424/928/116
f 425/929/115 426/930/115 430/931/115 429/932/115
f 426/933/109 427/934/109 431/935/109 430/936/109
f 427/937/116 428/938/116 432/939/116 431/940/116
f 428/941/107 425/942/107 429/943/107 432/944/107
f 434/945/110 433/946/110 436/947/110
f 436/948/110 435/949/110 434/950/110
f 440/951/108 437/952/108 438/953/108
f 438/954/108 439/955/108 440/956/108
f 445/957/115 446/958/115 442/959/115 441/960/115
f 446/961/108 447/962/108 443/963/108 442/964/108
f 447/965/116 448/966/116 444/967/116 443/968/116
f 448/969/110 445/970/110 441/971/110 444/972/110
f 452/973/107 449/974/107 450/975/107
f 450/976/107 451/977/107 452/978/107
f 454/979/109 453/980/109 456/981/109
f 456/982/109 455/983/109 454/984/109
f 461/985/115 462/986/115 458/987/115 457/988/115
f 462/989/108 463/990/108 459/991/108 458/992/108
f 463/993/116 464/994/116 460/995/116 459/996/116
f 464/997/110 461/998/110 457/999/110 460/1000/110
f 468/1001/107 465/1002/107 466/1003/107
f 466/1004/107 467/1005/107 468/1006/107
f 470/1007/109 469/1008/109 472/1009/109
f 472/1010/109 471/1011/109 470/1012/109
o counter_tray_posts
usemtl counter
v 0.03 0.1375 0.158125
v 0.03 0.1375 0.1825
v 0.045 0.1375 0.1825
v 0.045 0.1375 0.158125
v 0.025 0.1425 0.153125
v 0.025 0.1425 0.1875
v 0.05 0.1425 0.1875
v 0.05 0.1425 0.153125
v 0.025 0.7075 0.153125
v 0.025 0.7075 0.1875
v 0.05 0.7075 0.1875
v 0.05 0.7075 0.153125
v 0.03 0.7125 0.158125
v 0.03 0.7125 0.1825
v 0.045 0.7125 0.1825
v 0.045 0.7125 0.158125
v 0.03 0.1375 0.158125
v 0.03 0.1375 0.1825
v 0.045 0.1375 0.1825
v 0.045 0.1375 0.158125
v 0.03 0.7125 0.158125
v 0.03 0.7125 0.1825
v 0.045 0.7125 0.1825
v 0.045 0.7125 0.158125
v 0.955 0.1375 0.158125
v 0.955 0.1375 0.1825
v 0.97 0.1375 0.1825
v 0.97 0.1375 0.158125
v 0.95 0.1425 0.153125
v 0.95 0.1425 0.1875
v 0.975 0.1425 0.1875
v 0.975 0.1425 0.153125
v 0.95 0.7075 0.153125
v 0.95 0.7075 0.1875
v 0.975 0.7075 0.1875
v 0.975 0.7075 0.153125
v 0.955 0.7125 0.158125
v 0.955 0.7125 0.1825
v 0.97 0.7125 0.1825
v 0.97 0.7125 0.158125
v 0.955 0.1375 0.158125
v 0.955 0.1375 0.1825
v 0.97 0.1375 0.1825
v 0.97 0.1375 0.158125
v 0.955 0.7125 0.158125
v 0.955 0.7125 0.1825
v 0.97 0.7125 0.1825
v 0.97 0.7125 0.158125
vt 0.684766 0.025889
vt 0.688098 0.025889
vt 0.688782 0.026855
vt 0.684082 0.026855
vt 0.976758 0.029795
vt 0.978809 0.029795
vt 0.979492 0.030762
vt 0.976074 0.030762
vt 0.546497 0.026855
vt 0.543164 0.026855
vt 0.54248 0.025889
vt 0.54718 0.025889
vt 0.71709 0.026855
vt 0.715039 0.026855
vt 0.714355 0.025889
vt 0.717773 0.025889
vt 0.974219 0.120789
vt 0.974219 0.125488
vt 0.896973 0.125488
vt 0.896973 0.120789
vt 0.870605 0.116699
vt 0.870605 0.113281
vt 0.947852 0.113281
vt 0.947852 0.116699
vt 0.002441 0.116699
vt 0.002441 0.112
vt 0.079687 0.112
vt 0.079687 0.116699
vt 0.002441 0.108887
vt 0.002441 0.105469
vt 0.079687 0.105469
vt 0.079687 0.108887
vt 0.728027 0.025889
vt 0.732727 0.025889
vt 0.732043 0.026855
vt 0.728711 0.026855
vt 0.839844 0.030762
vt 0.836426 0.030762
vt 0.837109 0.029795
vt 0.83916 0.029795
vt 0.74054 0.026855
vt 0.73584 0.026855
vt 0.736523 0.025889
vt 0.739856 0.025889
vt 0.23877 0.034678
vt 0.242188 0.034678
vt 0.241504 0.035645
vt 0.239453 0.035645
vt 0.685461 0.071777
vt 0.682129 0.071777
vt 0.682129 0.069727
vt 0.682129 0.069727
vt 0.685461 0.069727
vt 0.685461 0.071777
vt 0.688965 0.071777
vt 0.688965 0.069727
vt 0.692297 0.069727
vt 0.692297 0.069727
vt 0.692297 0.071777
vt 0.688965 0.071777
vt 0.550977 0.025889
vt 0.554309 0.025889
vt 0.554993 0.026855
vt 0.550293 0.026855
vt 0.983594 0.029795
vt 0.985645 0.029795
vt 0.986328 0.030762
vt 0.98291 0.030762
vt 0.695911 0.026855
vt 0.692578 0.026855
vt 0.691895 0.025889
vt 0.696594 0.025889
vt 0.723926 0.026855
vt 0.721875 0.026855
vt 0.721191 0.025889
vt 0.724609 0.025889
vt 0.160742 0.112
vt 0.160742 0.116699
vt 0.083496 0.116699
vt 0.083496 0.112
vt 0.083496 0.108887
vt 0.083496 0.105469
vt 0.160742 0.105469
vt 0.160742 0.108887
vt 0.164551 0.116699
vt 0.164551 0.112
vt 0.241797 0.112
vt 0.241797 0.116699
vt 0.164551 0.108887
vt 0.164551 0.105469
vt 0.241797 0.105469
vt 0.241797 0.108887
vt 0.743652 0.025889
vt 0.748352 0.025889
vt 0.747668 0.026855
vt 0.744336 0.026855
vt 0.84668 0.030762
vt 0.843262 0.030762
vt 0.843945 0.029795
vt 0.845996 0.029795
vt 0.756165 0.026855
vt 0.751465 0.026855
vt 0.752148 0.025889
vt 0.755481 0.025889
vt 0.245605 0.034678
vt 0.249023 0.034678
vt 0.24834 0.035645
vt 0.246289 0.035645
vt 0.699133 0.071777
vt 0.695801 0.071777
vt 0.695801 0.069727
vt 0.695801 0.069727
vt 0.699133 0.069727
vt 0.699133 0.071777
vt 0.702637 0.071777
vt 0.702637 0.069727
vt 0.705969 0.069727
vt 0.705969 0.069727
vt 0.705969 0.071777
vt 0.702637 0.071777
vn -0.707107 -0.707107 0
vn 0 -0.707107 0.707107
vn 0.707107 -0.707107 0
vn 0 -0.707107 -0.707107
vn -1 0 0
vn 0 0 1
vn 1 0 0
vn 0 0 -1
vn -0.707107 0.707107 0
vn 0 0.707107 0.707107
vn 0.707107 0.707107 0
vn 0 0.707107 -0.707107
vn 0 -1 0
vn 0 1 0
f 473/1013/117 474/1014/117 478/1015/117 477/1016/117
f 474/1017/118 475/1018/118 479/1019/118 478/1020/118
f 475/1021/119 476/1022/119 480/1023/119 479/1024/119
f 476/1025/120 473/1026/120 477/1027/120 480/1028/120
f 477/1029/121 478/1030/121 482/1031/121 481/1032/121
f 478/1033/122 479/1034/122 483/1035/122 482/1036/122
f 479/1037/123 480/1038/123 484/1039/123 483/1040/123
f 480/1041/124 477/1042/124 481/1043/124 484/1044/124
f 481/1045/125 482/1046/125 486/1047/125 485/1048/125
f 482/1049/126 483/1050/126 487/1051/126 486/1052/126
f 483/1053/127 484/1054/127 488/1055/127 487/1056/127
f 484/1057/128 481/1058/128 485/1059/128 488/1060/128
f 490/1061/129 489/1062/129 492/1063/129
f 492/1064/129 491/1065/129 490/1066/129
f 496/1067/130 493/1068/130 494/1069/130
f 494/1070/130 495/1071/130 496/1072/130
f 497/1073/117 498/1074/117 502/1075/117 501/1076/117
f 498/1077/118 499/1078/118 503/1079/118 502/1080/118
f 499/1081/119 500/1082/119 504/1083/119 503/1084/119
f 500/1085/120 497/1086/120 501/1087/120 504/1088/120
f 501/1089/121 502/1090/121 506/1091/121 505/1092/121
f 502/1093/122 503/1094/122 507/1095/122 506/1096/122
f 503/1097/123 504/1098/123 508/1099/123 507/1100/123
f 504/1101/124 501/1102/124 505/1103/124 508/1104/124
f 505/1105/125 506/1106/125 510/1107/125 509/1108/125
f 506/1109/126 507/1110/126 511/1111/126 510/1112/126
f 507/1113/127 508/1114/127 512/1115/127 511/1116/127
f 508/1117/128 505/1118/128 509/1119/128 512/1120/128
f 514/1121/129 513/1122/129 516/1123/129
f 516/1124/129 515/1125/129 514/1126/129
f 520/1127/130 517/1128/130 518/1129/130
f 518/1130/130 519/1131/130 520/1132/130
o counter_cap
usemtl counter
v -0.021875 0.007292 0.141667
v -0.021875 0.007292 0.967708
v -0.021875 0.992708 0.967708
v -0.021875 0.992708 0.141667
v -0.014583 0 0.134375
v -0.014583 0 0.975
v -0.014583 1 0.975
v -0.014583 1 0.134375
v -0.007292 0 0.134375
v -0.007292 0 0.975
v -0.007292 1 0.975
v -0.007292 1 0.134375
v 0 0.007292 0.141667
v 0 0.007292 0.967708
v 0 0.992708 0.967708
v 0 0.992708 0.141667
v -0.021875 0.007292 0.141667
v -0.021875 0.007292 0.967708
v -0.021875 0.992708 0.967708
v -0.021875 0.992708 0.141667
v 0 0.007292 0.141667
v 0 0.007292 0.967708
v 0 0.992708 0.967708
v 0 0.992708 0.141667
vt 0.002441 0.048883
vt 0.117371 0.048883
vt 0.116374 0.050293
vt 0.003438 0.050293
vt 0.271973 0.055176
vt 0.135254 0.055176
vt 0.136251 0.053766
vt 0.270976 0.053766
vt 0.669128 0.055176
vt 0.554199 0.055176
vt 0.555196 0.053766
vt 0.668132 0.053766
vt 0.790527 0.053766
vt 0.927246 0.053766
vt 0.926249 0.055176
vt 0.791524 0.055176
vt 0.002441 0.034648
vt 0.117371 0.034648
vt 0.117371 0.035645
vt 0.002441 0.035645
vt 0.668457 0.03953
vt 0.805176 0.03953
vt 0.805176 0.040527
vt 0.668457 0.040527
vt 0.235535 0.035645
vt 0.120605 0.035645
vt 0.120605 0.034648
vt 0.235535 0.034648
vt 0.944824 0.040527
vt 0.808105 0.040527
vt 0.808105 0.03953
vt 0.944824 0.03953
vt 0.121602 0.048883
vt 0.234538 0.048883
vt 0.235535 0.050293
vt 0.120605 0.050293
vt 0.275899 0.053766
vt 0.410624 0.053766
vt 0.411621 0.055176
vt 0.274902 0.055176
vt 0.786296 0.055176
vt 0.67336 0.055176
vt 0.672363 0.053766
vt 0.787292 0.053766
vt 0.550273 0.055176
vt 0.415548 0.055176
vt 0.414551 0.053766
vt 0.55127 0.053766
vt 0.234863 0.62974
vt 0.369588 0.62974
vt 0.369588 0.742676
vt 0.369588 0.742676
vt 0.234863 0.742676
vt 0.234863 0.62974
vt 0.372559 0.742676
vt 0.372559 0.62974
vt 0.507284 0.62974
vt 0.507284 0.62974
vt 0.507284 0.742676
vt 0.372559 0.742676
vn -0.707107 -0.707107 0
vn -0.707107 0 0.707107
vn -0.707107 0.707107 0
vn -0.707107 0 -0.707107
vn 0 -1 0
vn 0 0 1
vn 0 1 0
vn 0 0 -1
vn 0.707107 -0.707107 0
vn 0.707107 0 0.707107
vn 0.707107 0.707107 0
vn 0.707107 0 -0.707107
vn -1 0 0
vn 1 0 0
f 525/1133/131 526/1134/131 522/1135/131 521/1136/131
f 526/1137/132 527/1138/132 523/1139/132 522/1140/132
f 527/1141/133 528/1142/133 524/1143/133 523/1144/133
f 528/1145/134 525/1146/134 521/1147/134 524/1148/134
f 529/1149/135 530/1150/135 526/1151/135 525/1152/135
f 530/1153/136 531/1154/136 527/1155/136 526/1156/136
f 531/1157/137 532/1158/137 528/1159/137 527/1160/137
f 532/1161/138 529/1162/138 525/1163/138 528/1164/138
f 533/1165/139 534/1166/139 530/1167/139 529/1168/139
f 534/1169/140 535/1170/140 531/1171/140 530/1172/140
f 535/1173/141 536/1174/141 532/1175/141 531/1176/141
f 536/1177/142 533/1178/142 529/1179/142 532/1180/142
f 540/1181/143 537/1182/143 538/1183/143
f 538/1184/143 539/1185/143 540/1186/143
f 542/1187/144 541/1188/144 544/1189/144
f 544/1190/144 543/1191/144 542/1192/144
o counter_cap_m
usemtl counter
v 1.021875 0.007292 0.141667
v 1.021875 0.007292 0.967708
v 1.021875 0.992708 0.967708
v 1.021875 0.992708 0.141667
v 1.014583 0 0.134375
v 1.014583 0 0.975
v 1.014583 1 0.975
v 1.014583 1 0.134375
v 1.007292 0 0.134375
v 1.007292 0 0.975
v 1.007292 1 0.975
v 1.007292 1 0.134375
v 1 0.007292 0.141667
v 1 0.007292 0.967708
v 1 0.992708 0.967708
v 1 0.992708 0.141667
v 1.021875 0.007292 0.141667
v 1.021875 0.007292 0.967708
v 1.021875 0.992708 0.967708
v 1.021875 0.992708 0.141667
v 1 0.007292 0.141667
v 1 0.007292 0.967708
v 1 0.992708 0.967708
v 1 0.992708 0.141667
vt 0.003438 0.050293
vt 0.116374 0.050293
vt 0.117371 0.048883
vt 0.002441 0.048883
vt 0.270976 0.053766
vt 0.136251 0.053766
vt 0.135254 0.055176
vt 0.271973 0.055176
vt 0.668132 0.053766
vt 0.555196 0.053766
vt 0.554199 0.055176
vt 0.669128 0.055176
vt 0.791524 0.055176
vt 0.926249 0.055176
vt 0.927246 0.053766
vt 0.790527 0.053766
vt 0.002441 0.035645
vt 0.117371 0.035645
vt 0.117371 0.034648
vt 0.002441 0.034648
vt 0.668457 0.040527
vt 0.805176 0.040527
vt 0.805176 0.03953
vt 0.668457 0.03953
vt 0.235535 0.034648
vt 0.120605 0.034648
vt 0.120605 0.035645
vt 0.235535 0.035645
vt 0.944824 0.03953
vt 0.808105 0.03953
vt 0.808105 0.040527
vt 0.944824 0.040527
vt 0.120605 0.050293
vt 0.235535 0.050293
vt 0.234538 0.048883
vt 0.121602 0.048883
vt 0.274902 0.055176
vt 0.411621 0.055176
vt 0.410624 0.053766
vt 0.275899 0.053766
vt 0.787292 0.053766
vt 0.672363 0.053766
vt 0.67336 0.055176
vt 0.786296 0.055176
vt 0.55127 0.053766
vt 0.414551 0.053766
vt 0.415548 0.055176
vt 0.550273 0.055176
vt 0.369588 0.742676
vt 0.369588 0.62974
vt 0.234863 0.62974
vt 0.234863 0.62974
vt 0.234863 0.742676
vt 0.369588 0.742676
vt 0.507284 0.62974
vt 0.372559 0.62974
vt 0.372559 0.742676
vt 0.372559 0.742676
vt 0.507284 0.742676
vt 0.507284 0.62974
vn 0.707107 -0.707107 0
vn 0.707107 0 0.707107
vn 0.707107 0.707107 0
vn 0.707107 0 -0.707107
vn 0 -1 0
vn 0 0 1
vn 0 1 0
vn 0 0 -1
vn -0.707107 -0.707107 0
vn -0.707107 0 0.707107
vn -0.707107 0.707107 0
vn -0.707107 0 -0.707107
vn 1 0 0
vn -1 0 0
f 545/1193/145 546/1194/145 550/1195/145 549/1196/145
f 546/1197/146 547/1198/146 551/1199/146 550/1200/146
f 547/1201/147 548/1202/147 552/1203/147 551/1204/147
f 548/1205/148 545/1206/148 549/1207/148 552/1208/148
f 549/1209/149 550/1210/149 554/1211/149 553/1212/149
f 550/1213/150 551/1214/150 555/1215/150 554/1216/150
f 551/1217/151 552/1218/151 556/1219/151 555/1220/151
f 552/1221/152 549/1222/152 553/1223/152 556/1224/152
f 553/1225/153 554/1226/153 558/1227/153 557/1228/153
f 554/1229/154 555/1230/154 559/1231/154 558/1232/154
f 555/1233/155 556/1234/155 560/1235/155 559/1236/155
f 556/1237/156 553/1238/156 557/1239/156 560/1240/156
f 562/1241/157 561/1242/157 564/1243/157
f 564/1244/157 563/1245/157 562/1246/157
f 568/1247/158 565/1248/158 566/1249/158
f 566/1250/158 567/1251/158 568/1252/158
