# AFL Checkout Counter V1 outer corner, generated by tools/build-checkout-counter-v1.mjs
mtllib outer.mtl
o counter_o_top
usemtl counter
v 0.01125 0.9375 0.96375
v 0.03625 0.9375 0.96375
v 0.03625 0.9375 0.98875
v 0.83875 0.9375 0.98875
v 0.83875 0.9375 0.250737
v 0.835632 0.9375 0.227055
v 0.826776 0.9375 0.205674
v 0.812687 0.9375 0.187313
v 0.794326 0.9375 0.173224
v 0.772945 0.9375 0.164368
v 0.749263 0.9375 0.16125
v 0.01125 0.9375 0.16125
v 0 0.94875 0.975
v 0.025 0.94875 0.975
v 0.025 0.94875 1
v 0.85 0.94875 1
v 0.85 0.94875 0.25
v 0.846593 0.94875 0.224118
v 0.836603 0.94875 0.2
v 0.820711 0.94875 0.179289
v 0.8 0.94875 0.163397
v 0.775882 0.94875 0.153407
v 0.75 0.94875 0.15
v 0 0.94875 0.15
v 0 0.98875 0.975
v 0.025 0.98875 0.975
v 0.025 0.98875 1
v 0.85 0.98875 1
v 0.85 0.98875 0.25
v 0.846593 0.98875 0.224118
v 0.836603 0.98875 0.2
v 0.820711 0.98875 0.179289
v 0.8 0.98875 0.163397
v 0.775882 0.98875 0.153407
v 0.75 0.98875 0.15
v 0 0.98875 0.15
v 0.01125 1 0.96375
v 0.03625 1 0.96375
v 0.03625 1 0.98875
v 0.83875 1 0.98875
v 0.83875 1 0.250737
v 0.835632 1 0.227055
v 0.826776 1 0.205674
v 0.812687 1 0.187313
v 0.794326 1 0.173224
v 0.772945 1 0.164368
v 0.749263 1 0.16125
v 0.01125 1 0.16125
v 0.01125 0.9375 0.96375
v 0.03625 0.9375 0.96375
v 0.03625 0.9375 0.98875
v 0.83875 0.9375 0.98875
v 0.83875 0.9375 0.250737
v 0.835632 0.9375 0.227055
v 0.826776 0.9375 0.205674
v 0.812687 0.9375 0.187313
v 0.794326 0.9375 0.173224
v 0.772945 0.9375 0.164368
v 0.749263 0.9375 0.16125
v 0.01125 0.9375 0.16125
v 0.01125 1 0.96375
v 0.03625 1 0.96375
v 0.03625 1 0.98875
v 0.83875 1 0.98875
v 0.83875 1 0.250737
v 0.835632 1 0.227055
v 0.826776 1 0.205674
v 0.812687 1 0.187313
v 0.794326 1 0.173224
v 0.772945 1 0.164368
v 0.749263 1 0.16125
v 0.01125 1 0.16125
vt 0.965894 0.075462
vt 0.969312 0.075462
vt 0.967773 0.077637
vt 0.964355 0.077637
vt 0.543457 0.075462
vt 0.546875 0.075462
vt 0.548413 0.077637
vt 0.544995 0.077637
vt 0.696362 0.081321
vt 0.806079 0.081321
vt 0.807617 0.083496
vt 0.694824 0.083496
vt 0.465104 0.107713
vt 0.364955 0.107713
vt 0.364851 0.105538
vt 0.466627 0.105538
vt 0.364955 0.107713
vt 0.361705 0.108018
vt 0.361299 0.105872
vt 0.364851 0.105538
vt 0.361705 0.108018
vt 0.3587 0.108887
vt 0.35791 0.106851
vt 0.361299 0.105872
vt 0.11362 0.157988
vt 0.110892 0.159566
vt 0.109627 0.157784
vt 0.112704 0.156005
vt 0.110892 0.159566
vt 0.108504 0.161621
vt 0.106934 0.160103
vt 0.109627 0.157784
vt 0.359226 0.266113
vt 0.356345 0.264898
vt 0.357 0.262814
vt 0.36025 0.264185
vt 0.356345 0.264898
vt 0.353153 0.264212
vt 0.353512 0.262065
vt 0.357 0.262814
vt 0.353153 0.264212
vt 0.253698 0.252443
vt 0.252441 0.250105
vt 0.353512 0.262065
vt 0.812573 0.081321
vt 0.92229 0.081321
vt 0.923828 0.083496
vt 0.811035 0.083496
vt 0.853027 0.116699
vt 0.853027 0.113281
vt 0.858496 0.113281
vt 0.858496 0.116699
vt 0.867285 0.113281
vt 0.867285 0.116699
vt 0.861816 0.116699
vt 0.861816 0.113281
vt 0.275879 0.146387
vt 0.388672 0.146387
vt 0.388672 0.151855
vt 0.275879 0.151855
vt 0.955979 0.151855
vt 0.853659 0.151855
vt 0.853659 0.146387
vt 0.955979 0.146387
vt 0.853659 0.151855
vt 0.850098 0.151855
vt 0.850098 0.146387
vt 0.853659 0.146387
vt 0.73584 0.116699
vt 0.73584 0.11313
vt 0.741309 0.11313
vt 0.741309 0.116699
vt 0.780762 0.116699
vt 0.780762 0.11313
vt 0.78623 0.11313
vt 0.78623 0.116699
vt 0.789551 0.116699
vt 0.789551 0.11313
vt 0.79502 0.11313
vt 0.79502 0.116699
vt 0.744629 0.116699
vt 0.744629 0.11313
vt 0.750098 0.11313
vt 0.750098 0.116699
vt 0.740723 0.146387
vt 0.744284 0.146387
vt 0.744284 0.151855
vt 0.740723 0.151855
vt 0.744284 0.146387
vt 0.846604 0.146387
vt 0.846604 0.151855
vt 0.744284 0.151855
vt 0.39209 0.146387
vt 0.504883 0.146387
vt 0.504883 0.151855
vt 0.39209 0.151855
vt 0.798413 0.077637
vt 0.794995 0.077637
vt 0.793457 0.075462
vt 0.796875 0.075462
vt 0.553784 0.075462
vt 0.557202 0.075462
vt 0.555664 0.077637
vt 0.552246 0.077637
vt 0.673828 0.077637
vt 0.561035 0.077637
vt 0.562573 0.075462
vt 0.67229 0.075462
vt 0.354322 0.108887
vt 0.252546 0.108887
vt 0.25265 0.106712
vt 0.352799 0.106712
vt 0.252546 0.108887
vt 0.248994 0.108553
vt 0.2494 0.106406
vt 0.25265 0.106712
vt 0.248994 0.108553
vt 0.245605 0.107573
vt 0.246396 0.105538
vt 0.2494 0.106406
vt 0.102938 0.161621
vt 0.099862 0.159842
vt 0.101126 0.158061
vt 0.103854 0.159638
vt 0.099862 0.159842
vt 0.097168 0.157523
vt 0.098738 0.156005
vt 0.101126 0.158061
vt 0.36377 0.264185
vt 0.36702 0.262814
vt 0.367675 0.264898
vt 0.364793 0.266113
vt 0.36702 0.262814
vt 0.370508 0.262065
vt 0.370866 0.264212
vt 0.367675 0.264898
vt 0.370508 0.262065
vt 0.471578 0.250105
vt 0.470322 0.252443
vt 0.370866 0.264212
vt 0.002441 0.075462
vt 0.115234 0.075462
vt 0.113696 0.077637
vt 0.003979 0.077637
vt 0.112158 0.739258
vt 0.112158 0.742676
vt 0.002441 0.742676
vt 0.115576 0.629541
vt 0.115576 0.739258
vt 0.112158 0.739258
vt 0.115576 0.629541
vt 0.112158 0.739258
vt 0.002441 0.742676
vt 0.014676 0.629541
vt 0.115576 0.629541
vt 0.002441 0.742676
vt 0.011438 0.629967
vt 0.014676 0.629541
vt 0.002441 0.742676
vt 0.008515 0.631178
vt 0.011438 0.629967
vt 0.002441 0.742676
vt 0.006005 0.633104
vt 0.008515 0.631178
vt 0.002441 0.742676
vt 0.004079 0.635615
vt 0.006005 0.633104
vt 0.002441 0.742676
vt 0.002868 0.638538
vt 0.004079 0.635615
vt 0.002441 0.742676
vt 0.002441 0.742676
vt 0.002441 0.641776
vt 0.002868 0.638538
vt 0.118652 0.629541
vt 0.228369 0.629541
vt 0.228369 0.632959
vt 0.228369 0.632959
vt 0.231787 0.632959
vt 0.231787 0.742676
vt 0.118652 0.629541
vt 0.228369 0.632959
vt 0.231787 0.742676
vt 0.118652 0.629541
vt 0.231787 0.742676
vt 0.130887 0.742676
vt 0.118652 0.629541
vt 0.130887 0.742676
vt 0.127649 0.74225
vt 0.118652 0.629541
vt 0.127649 0.74225
vt 0.124726 0.741039
vt 0.118652 0.629541
vt 0.124726 0.741039
vt 0.122216 0.739112
vt 0.118652 0.629541
vt 0.122216 0.739112
vt 0.120289 0.736602
vt 0.118652 0.629541
vt 0.120289 0.736602
vt 0.119079 0.733679
vt 0.119079 0.733679
vt 0.118652 0.730441
vt 0.118652 0.629541
vn 0 -0.707107 0.707107
vn -0.707107 -0.707107 0
vn 0.707107 -0.707107 0
vn 0.707005 -0.707202 -0.003
vn 0.680252 -0.710138 -0.181554
vn 0.609736 -0.710138 -0.352031
vn 0.497847 -0.710138 -0.497847
vn 0.352031 -0.710138 -0.609736
vn 0.181554 -0.710138 -0.680252
vn 0.003 -0.707202 -0.707005
vn 0 -0.707107 -0.707107
vn 0 0 1
vn -1 0 0
vn 1 0 0
vn 0.99999 0 -0.004392
vn 0.965926 0 -0.258819
vn 0.866025 0 -0.5
vn 0.707107 0 -0.707107
vn 0.5 0 -0.866025
vn 0.258819 0 -0.965926
vn 0.004392 0 -0.99999
vn 0 0 -1
vn 0 0.707107 0.707107
vn -0.707107 0.707107 0
vn 0.707107 0.707107 0
vn 0.707005 0.707202 -0.003
vn 0.680252 0.710138 -0.181554
vn 0.609736 0.710138 -0.352031
vn 0.497847 0.710138 -0.497847
vn 0.352031 0.710138 -0.609736
vn 0.181554 0.710138 -0.680252
vn 0.003 0.707202 -0.707005
vn 0 0.707107 -0.707107
vn 0 -1 0
vn 0 1 0
f 1/1/1 2/2/1 14/3/1 13/4/1
f 2/5/2 3/6/2 15/7/2 14/8/2
f 3/9/1 4/10/1 16/11/1 15/12/1
f 4/13/3 5/14/4 17/15/4 16/16/3
f 5/17/4 6/18/5 18/19/5 17/20/4
f 6/21/5 7/22/6 19/23/6 18/24/5
f 7/25/6 8/26/7 20/27/7 19/28/6
f 8/29/7 9/30/8 21/31/8 20/32/7
f 9/33/8 10/34/9 22/35/9 21/36/8
f 10/37/9 11/38/10 23/39/10 22/40/9
f 11/41/10 12/42/11 24/43/11 23/44/10
f 12/45/2 1/46/2 13/47/2 24/48/2
f 13/49/12 14/50/12 26/51/12 25/52/12
f 14/53/13 15/54/13 27/55/13 26/56/13
f 15/57/12 16/58/12 28/59/12 27/60/12
f 16/61/14 17/62/15 29/63/15 28/64/14
f 17/65/15 18/66/16 30/67/16 29/68/15
f 18/69/16 19/70/17 31/71/17 30/72/16
f 19/73/17 20/74/18 32/75/18 31/76/17
f 20/77/18 21/78/19 33/79/19 32/80/18
f 21/81/19 22/82/20 34/83/20 33/84/19
f 22/85/20 23/86/21 35/87/21 34/88/20
f 23/89/21 24/90/22 36/91/22 35/92/21
f 24/93/13 13/94/13 25/95/13 36/96/13
f 25/97/23 26/98/23 38/99/23 37/100/23
f 26/101/24 27/102/24 39/103/24 38/104/24
f 27/105/23 28/106/23 40/107/23 39/108/23
f 28/109/25 29/110/26 41/111/26 40/112/25
f 29/113/26 30/114/27 42/115/27 41/116/26
f 30/117/27 31/118/28 43/119/28 42/120/27
f 31/121/28 32/122/29 44/123/29 43/124/28
f 32/125/29 33/126/30 45/127/30 44/128/29
f 33/129/30 34/130/31 46/131/31 45/132/30
f 34/133/31 35/134/32 47/135/32 46/136/31
f 35/137/32 36/138/33 48/139/33 47/140/32
f 36/141/24 25/142/24 37/143/24 48/144/24
f 50/145/34 49/146/34 60/147/34
f 52/148/34 51/149/34 50/150/34
f 52/151/34 50/152/34 60/153/34
f 53/154/34 52/155/34 60/156/34
f 54/157/34 53/158/34 60/159/34
f 55/160/34 54/161/34 60/162/34
f 56/163/34 55/164/34 60/165/34
f 57/166/34 56/167/34 60/168/34
f 58/169/34 57/170/34 60/171/34
f 60/172/34 59/173/34 58/174/34
f 72/175/35 61/176/35 62/177/35
f 62/178/35 63/179/35 64/180/35
f 72/181/35 62/182/35 64/183/35
f 72/184/35 64/185/35 65/186/35
f 72/187/35 65/188/35 66/189/35
f 72/190/35 66/191/35 67/192/35
f 72/193/35 67/194/35 68/195/35
f 72/196/35 68/197/35 69/198/35
f 72/199/35 69/200/35 70/201/35
f 70/202/35 71/203/35 72/204/35
o counter_o_top_trim
usemtl counter
v 0 0.928125 0.15
v 0.75 0.928125 0.15
v 0.775882 0.928125 0.153407
v 0.8 0.928125 0.163397
v 0.820711 0.928125 0.179289
v 0.836603 0.928125 0.2
v 0.846593 0.928125 0.224118
v 0.85 0.928125 0.25
v 0.85 0.928125 1
v 0.865625 0.928125 1
v 0.865625 0.928125 0.248976
v 0.861815 0.928125 0.220039
v 0.850251 0.928125 0.19212
v 0.831855 0.928125 0.168145
v 0.80788 0.928125 0.149749
v 0.779961 0.928125 0.138185
v 0.751024 0.928125 0.134375
v 0 0.928125 0.134375
v 0 1 0.15
v 0.75 1 0.15
v 0.775882 1 0.153407
v 0.8 1 0.163397
v 0.820711 1 0.179289
v 0.836603 1 0.2
v 0.846593 1 0.224118
v 0.85 1 0.25
v 0.85 1 1
v 0.865625 1 1
v 0.865625 1 0.248976
v 0.861815 1 0.220039
v 0.850251 1 0.19212
v 0.831855 1 0.168145
v 0.80788 1 0.149749
v 0.779961 1 0.138185
v 0.751024 1 0.134375
v 0 1 0.134375
v 0 0.928125 0.15
v 0.75 0.928125 0.15
v 0.775882 0.928125 0.153407
v 0.8 0.928125 0.163397
v 0.820711 0.928125 0.179289
v 0.836603 0.928125 0.2
v 0.846593 0.928125 0.224118
v 0.85 0.928125 0.25
v 0.85 0.928125 1
v 0.865625 0.928125 1
v 0.865625 0.928125 0.248976
v 0.861815 0.928125 0.220039
v 0.850251 0.928125 0.19212
v 0.831855 0.928125 0.168145
v 0.80788 0.928125 0.149749
v 0.779961 0.928125 0.138185
v 0.751024 0.928125 0.134375
v 0 0.928125 0.134375
v 0 1 0.15
v 0.75 1 0.15
v 0.775882 1 0.153407
v 0.8 1 0.163397
v 0.820711 1 0.179289
v 0.836603 1 0.2
v 0.846593 1 0.224118
v 0.85 1 0.25
v 0.85 1 1
v 0.865625 1 1
v 0.865625 1 0.248976
v 0.861815 1 0.220039
v 0.850251 1 0.19212
v 0.831855 1 0.168145
v 0.80788 1 0.149749
v 0.779961 1 0.138185
v 0.751024 1 0.134375
v 0 1 0.134375
vt 0.221191 0.206482
vt 0.323511 0.206482
vt 0.323511 0.216309
vt 0.221191 0.216309
vt 0.323511 0.206482
vt 0.327072 0.206482
vt 0.327072 0.216309
vt 0.323511 0.216309
vt 0.763245 0.11313
vt 0.763245 0.116699
vt 0.753418 0.116699
vt 0.753418 0.11313
vt 0.776917 0.11313
vt 0.776917 0.116699
vt 0.76709 0.116699
vt 0.76709 0.11313
vt 0.808167 0.11313
vt 0.808167 0.116699
vt 0.79834 0.116699
vt 0.79834 0.11313
vt 0.731995 0.11313
vt 0.731995 0.116699
vt 0.722168 0.116699
vt 0.722168 0.11313
vt 0.330566 0.206482
vt 0.334128 0.206482
vt 0.334128 0.216309
vt 0.330566 0.216309
vt 0.334128 0.206482
vt 0.436447 0.206482
vt 0.436447 0.216309
vt 0.334128 0.216309
vt 0.588379 0.071777
vt 0.588379 0.069641
vt 0.598206 0.069641
vt 0.598206 0.071777
vt 0.108882 0.216309
vt 0.006423 0.216309
vt 0.006423 0.206482
vt 0.108882 0.206482
vt 0.006423 0.216309
vt 0.002441 0.216309
vt 0.002441 0.206482
vt 0.006423 0.206482
vt 0.384277 0.116699
vt 0.384277 0.112568
vt 0.394104 0.112568
vt 0.394104 0.116699
vt 0.425293 0.116699
vt 0.425293 0.112568
vt 0.43512 0.112568
vt 0.43512 0.116699
vt 0.411621 0.116699
vt 0.411621 0.112568
vt 0.421448 0.112568
vt 0.421448 0.116699
vt 0.397949 0.116699
vt 0.397949 0.112568
vt 0.407776 0.112568
vt 0.407776 0.116699
vt 0.111816 0.206482
vt 0.115798 0.206482
vt 0.115798 0.216309
vt 0.111816 0.216309
vt 0.115798 0.206482
vt 0.218257 0.206482
vt 0.218257 0.216309
vt 0.115798 0.216309
vt 0.611877 0.069641
vt 0.611877 0.071777
vt 0.602051 0.071777
vt 0.602051 0.069641
vt 0.535828 0.89502
vt 0.535828 0.997559
vt 0.533691 0.997559
vt 0.652039 0.879211
vt 0.652039 0.881348
vt 0.5495 0.881348
vt 0.549359 0.879211
vt 0.652039 0.879211
vt 0.5495 0.881348
vt 0.549359 0.879211
vt 0.5495 0.881348
vt 0.545961 0.881814
vt 0.549359 0.879211
vt 0.545961 0.881814
vt 0.542664 0.883179
vt 0.545403 0.879732
vt 0.549359 0.879211
vt 0.542664 0.883179
vt 0.545403 0.879732
vt 0.542664 0.883179
vt 0.539832 0.885352
vt 0.541586 0.881313
vt 0.545403 0.879732
vt 0.539832 0.885352
vt 0.541586 0.881313
vt 0.539832 0.885352
vt 0.537659 0.888184
vt 0.538308 0.883828
vt 0.541586 0.881313
vt 0.537659 0.888184
vt 0.538308 0.883828
vt 0.537659 0.888184
vt 0.536293 0.891481
vt 0.535793 0.887106
vt 0.538308 0.883828
vt 0.536293 0.891481
vt 0.535793 0.887106
vt 0.536293 0.891481
vt 0.535828 0.89502
vt 0.535793 0.887106
vt 0.535828 0.89502
vt 0.533691 0.997559
vt 0.534212 0.890923
vt 0.535793 0.887106
vt 0.533691 0.997559
vt 0.533691 0.997559
vt 0.533691 0.89488
vt 0.534212 0.890923
vt 0.655762 0.879211
vt 0.657898 0.879211
vt 0.657898 0.98175
vt 0.67157 0.995422
vt 0.774109 0.995422
vt 0.774109 0.997559
vt 0.67157 0.995422
vt 0.774109 0.997559
vt 0.67143 0.997559
vt 0.668031 0.994957
vt 0.67157 0.995422
vt 0.67143 0.997559
vt 0.664734 0.993591
vt 0.668031 0.994957
vt 0.67143 0.997559
vt 0.664734 0.993591
vt 0.67143 0.997559
vt 0.667474 0.997038
vt 0.661902 0.991418
vt 0.664734 0.993591
vt 0.667474 0.997038
vt 0.661902 0.991418
vt 0.667474 0.997038
vt 0.663657 0.995457
vt 0.65973 0.988586
vt 0.661902 0.991418
vt 0.663657 0.995457
vt 0.65973 0.988586
vt 0.663657 0.995457
vt 0.660379 0.992942
vt 0.658364 0.985289
vt 0.65973 0.988586
vt 0.660379 0.992942
vt 0.658364 0.985289
vt 0.660379 0.992942
vt 0.657864 0.989664
vt 0.657898 0.98175
vt 0.658364 0.985289
vt 0.657864 0.989664
vt 0.655762 0.879211
vt 0.657898 0.98175
vt 0.657864 0.989664
vt 0.655762 0.879211
vt 0.657864 0.989664
vt 0.656283 0.985847
vt 0.656283 0.985847
vt 0.655762 0.981891
vt 0.655762 0.879211
vn 0 0 1
vn -0.004392 0 0.99999
vn -0.258819 0 0.965926
vn -0.5 0 0.866025
vn -0.707107 0 0.707107
vn -0.866025 0 0.5
vn -0.965926 0 0.258819
vn -0.99999 0 0.004392
vn -1 0 0
vn 1 0 0
vn 0.999988 0 -0.004884
vn 0.965331 0 -0.26103
vn 0.866025 0 -0.5
vn 0.707107 0 -0.707107
vn 0.5 0 -0.866025
vn 0.26103 0 -0.965331
vn 0.004884 0 -0.999988
vn 0 0 -1
vn 0 -1 0
vn 0 1 0
f 73/205/36 74/206/37 92/207/37 91/208/36
f 74/209/37 75/210/38 93/211/38 92/212/37
f 75/213/38 76/214/39 94/215/39 93/216/38
f 76/217/39 77/218/40 95/219/40 94/220/39
f 77/221/40 78/222/41 96/223/41 95/224/40
f 78/225/41 79/226/42 97/227/42 96/228/41
f 79/229/42 80/230/43 98/231/43 97/232/42
f 80/233/43 81/234/44 99/235/44 98/236/43
f 81/237/36 82/238/36 100/239/36 99/240/36
f 82/241/45 83/242/46 101/243/46 100/244/45
f 83/245/46 84/246/47 102/247/47 101/248/46
f 84/249/47 85/250/48 103/251/48 102/252/47
f 85/253/48 86/254/49 104/255/49 103/256/48
f 86/257/49 87/258/50 105/259/50 104/260/49
f 87/261/50 88/262/51 106/263/51 105/264/50
f 88/265/51 89/266/52 107/267/52 106/268/51
f 89/269/52 90/270/53 108/271/53 107/272/52
f 90/273/44 73/274/44 91/275/44 108/276/44
f 110/277/54 109/278/54 126/279/54
f 118/280/54 117/281/54 116/282/54
f 119/283/54 118/284/54 116/285/54
f 119/286/54 116/287/54 115/288/54
f 119/289/54 115/290/54 114/291/54
f 120/292/54 119/293/54 114/294/54
f 120/295/54 114/296/54 113/297/54
f 121/298/54 120/299/54 113/300/54
f 121/301/54 113/302/54 112/303/54
f 122/304/54 121/305/54 112/306/54
f 122/307/54 112/308/54 111/309/54
f 123/310/54 122/311/54 111/312/54
f 123/313/54 111/314/54 110/315/54
f 123/316/54 110/317/54 126/318/54
f 124/319/54 123/320/54 126/321/54
f 126/322/54 125/323/54 124/324/54
f 144/325/55 127/326/55 128/327/55
f 134/328/55 135/329/55 136/330/55
f 134/331/55 136/332/55 137/333/55
f 133/334/55 134/335/55 137/336/55
f 132/337/55 133/338/55 137/339/55
f 132/340/55 137/341/55 138/342/55
f 131/343/55 132/344/55 138/345/55
f 131/346/55 138/347/55 139/348/55
f 130/349/55 131/350/55 139/351/55
f 130/352/55 139/353/55 140/354/55
f 129/355/55 130/356/55 140/357/55
f 129/358/55 140/359/55 141/360/55
f 128/361/55 129/362/55 141/363/55
f 144/364/55 128/365/55 141/366/55
f 144/367/55 141/368/55 142/369/55
f 142/370/55 143/371/55 144/372/55
o counter_o_panel
usemtl counter
v 0 0.075 0.1875
v 0 0.075 0.2375
v 0 0.9375 0.2375
v 0 0.9375 0.1875
v 0.7625 0.075 0.1875
v 0.7625 0.075 0.2375
v 0.7625 0.9375 0.2375
v 0.7625 0.9375 0.1875
v 0 0.075 0.1875
v 0 0.075 0.2375
v 0 0.9375 0.2375
v 0 0.9375 0.1875
v 0.7625 0.075 0.1875
v 0.7625 0.075 0.2375
v 0.7625 0.9375 0.2375
v 0.7625 0.9375 0.1875
v 0.7625 0.075 0.1875
v 0.8125 0.075 0.1875
v 0.8125 0.9375 0.1875
v 0.7625 0.9375 0.1875
v 0.7625 0.075 1
v 0.8125 0.075 1
v 0.8125 0.9375 1
v 0.7625 0.9375 1
v 0.7625 0.075 0.1875
v 0.8125 0.075 0.1875
v 0.8125 0.9375 0.1875
v 0.7625 0.9375 0.1875
v 0.7625 0.075 1
v 0.8125 0.075 1
v 0.8125 0.9375 1
v 0.7625 0.9375 1
vt 0.81958 0.164551
vt 0.81958 0.171387
vt 0.715332 0.171387
vt 0.715332 0.164551
vt 0.85791 0.522217
vt 0.97583 0.522217
vt 0.97583 0.626465
vt 0.85791 0.626465
vt 0.822754 0.171387
vt 0.822754 0.164551
vt 0.927002 0.164551
vt 0.927002 0.171387
vt 0.120361 0.51123
vt 0.002441 0.51123
vt 0.002441 0.406982
vt 0.120361 0.406982
vt 0.244629 0.174316
vt 0.362549 0.174316
vt 0.362549 0.181152
vt 0.362549 0.181152
vt 0.244629 0.181152
vt 0.244629 0.174316
vt 0.365723 0.181152
vt 0.365723 0.174316
vt 0.483643 0.174316
vt 0.483643 0.174316
vt 0.483643 0.181152
vt 0.365723 0.181152
vt 0.486816 0.171387
vt 0.486816 0.164551
vt 0.5979 0.164551
vt 0.5979 0.171387
vt 0.117676 0.515381
vt 0.235596 0.515381
vt 0.235596 0.626465
vt 0.117676 0.626465
vt 0.601074 0.171387
vt 0.601074 0.164551
vt 0.712158 0.164551
vt 0.712158 0.171387
vt 0.23877 0.515381
vt 0.356689 0.515381
vt 0.356689 0.626465
vt 0.23877 0.626465
vt 0.486816 0.181152
vt 0.486816 0.174316
vt 0.604736 0.174316
vt 0.604736 0.174316
vt 0.604736 0.181152
vt 0.486816 0.181152
vt 0.72583 0.181152
vt 0.60791 0.181152
vt 0.60791 0.174316
vt 0.60791 0.174316
vt 0.72583 0.174316
vt 0.72583 0.181152
vn 0 -1 0
vn 0 0 1
vn 0 1 0
vn 0 0 -1
vn -1 0 0
vn 1 0 0
f 149/373/56 150/374/56 146/375/56 145/376/56
f 150/377/57 151/378/57 147/379/57 146/380/57
f 151/381/58 152/382/58 148/383/58 147/384/58
f 152/385/59 149/386/59 145/387/59 148/388/59
f 156/389/60 153/390/60 154/391/60
f 154/392/60 155/393/60 156/394/60
f 158/395/61 157/396/61 160/397/61
f 160/398/61 159/399/61 158/400/61
f 161/401/56 162/402/56 166/403/56 165/404/56
f 162/405/61 163/406/61 167/407/61 166/408/61
f 163/409/58 164/410/58 168/411/58 167/412/58
f 164/413/60 161/414/60 165/415/60 168/416/60
f 170/417/59 169/418/59 172/419/59
f 172/420/59 171/421/59 170/422/59
f 176/423/57 173/424/57 174/425/57
f 174/426/57 175/427/57 176/428/57
o counter_o_low_trim
usemtl counter
v 0 0.125 0.1875
v 0.8125 0.125 0.1875
v 0.8125 0.125 1
v 0.81875 0.125 1
v 0.81875 0.125 0.18125
v 0 0.125 0.18125
v 0 0.146875 0.1875
v 0.8125 0.146875 0.1875
v 0.8125 0.146875 1
v 0.81875 0.146875 1
v 0.81875 0.146875 0.18125
v 0 0.146875 0.18125
v 0 0.125 0.1875
v 0.8125 0.125 0.1875
v 0.8125 0.125 1
v 0.81875 0.125 1
v 0.81875 0.125 0.18125
v 0 0.125 0.18125
v 0 0.146875 0.1875
v 0.8125 0.146875 0.1875
v 0.8125 0.146875 1
v 0.81875 0.146875 1
v 0.81875 0.146875 0.18125
v 0 0.146875 0.18125
vt 0.362793 0.09906
vt 0.473877 0.09906
vt 0.473877 0.102051
vt 0.362793 0.102051
vt 0.477051 0.09906
vt 0.588135 0.09906
vt 0.588135 0.102051
vt 0.477051 0.102051
vt 0.415527 0.022949
vt 0.415527 0.022095
vt 0.418518 0.022095
vt 0.418518 0.022949
vt 0.244263 0.102051
vt 0.132324 0.102051
vt 0.132324 0.09906
vt 0.244263 0.09906
vt 0.247559 0.09906
vt 0.359497 0.09906
vt 0.359497 0.102051
vt 0.247559 0.102051
vt 0.425354 0.022095
vt 0.425354 0.022949
vt 0.422363 0.022949
vt 0.422363 0.022095
vt 0.790405 0.631592
vt 0.790405 0.742676
vt 0.789551 0.742676
vt 0.901489 0.630737
vt 0.901489 0.631592
vt 0.790405 0.631592
vt 0.789551 0.630737
vt 0.901489 0.630737
vt 0.790405 0.631592
vt 0.789551 0.742676
vt 0.789551 0.630737
vt 0.790405 0.631592
vt 0.002441 0.514526
vt 0.003296 0.514526
vt 0.003296 0.62561
vt 0.003296 0.62561
vt 0.11438 0.62561
vt 0.11438 0.626465
vt 0.003296 0.62561
vt 0.11438 0.626465
vt 0.002441 0.626465
vt 0.003296 0.62561
vt 0.002441 0.626465
vt 0.002441 0.514526
vn 0 0 1
vn -1 0 0
vn 1 0 0
vn 0 0 -1
vn 0 -1 0
vn 0 1 0
f 177/429/62 178/430/62 184/431/62 183/432/62
f 178/433/63 179/434/63 185/435/63 184/436/63
f 179/437/62 180/438/62 186/439/62 185/440/62
f 180/441/64 181/442/64 187/443/64 186/444/64
f 181/445/65 182/446/65 188/447/65 187/448/65
f 182/449/63 177/450/63 183/451/63 188/452/63
f 190/453/66 189/454/66 194/455/66
f 192/456/66 191/457/66 190/458/66
f 193/459/66 192/460/66 190/461/66
f 194/462/66 193/463/66 190/464/66
f 200/465/67 195/466/67 196/467/67
f 196/468/67 197/469/67 198/470/67
f 196/471/67 198/472/67 199/473/67
f 196/474/67 199/475/67 200/476/67
o counter_o_kick
usemtl counter
v 0 0 1
v 0.775 0 1
v 0.775 0 0.225
v 0 0 0.225
v 0 0.075 1
v 0.775 0.075 1
v 0.775 0.075 0.225
v 0 0.075 0.225
v 0 0 1
v 0.775 0 1
v 0.775 0 0.225
v 0 0 0.225
v 0 0.075 1
v 0.775 0.075 1
v 0.775 0.075 0.225
v 0 0.075 0.225
vt 0.405762 0.233398
vt 0.511719 0.233398
vt 0.511719 0.243652
vt 0.405762 0.243652
vt 0.621094 0.243652
vt 0.515137 0.243652
vt 0.515137 0.233398
vt 0.621094 0.233398
vt 0.624512 0.233398
vt 0.730469 0.233398
vt 0.730469 0.243652
vt 0.624512 0.243652
vt 0.733887 0.233398
vt 0.839844 0.233398
vt 0.839844 0.243652
vt 0.733887 0.243652
vt 0.745117 0.520508
vt 0.745117 0.626465
vt 0.63916 0.626465
vt 0.63916 0.626465
vt 0.63916 0.520508
vt 0.745117 0.520508
vt 0.748535 0.520508
vt 0.854492 0.520508
vt 0.854492 0.626465
vt 0.854492 0.626465
vt 0.748535 0.626465
vt 0.748535 0.520508
vn 0 0 1
vn 1 0 0
vn 0 0 -1
vn -1 0 0
vn 0 -1 0
vn 0 1 0
f 201/477/68 202/478/68 206/479/68 205/480/68
f 202/481/69 203/482/69 207/483/69 206/484/69
f 203/485/70 204/486/70 208/487/70 207/488/70
f 204/489/71 201/490/71 205/491/71 208/492/71
f 210/493/72 209/494/72 212/495/72
f 212/496/72 211/497/72 210/498/72
f 216/499/73 213/500/73 214/501/73
f 214/502/73 215/503/73 216/504/73
o counter_o_post
usemtl counter
v 0 0.075 0.95
v 0 0.075 1
v 0.05 0.075 1
v 0.05 0.075 0.95
v 0 0.9375 0.95
v 0 0.9375 1
v 0.05 0.9375 1
v 0.05 0.9375 0.95
v 0 0.075 0.95
v 0 0.075 1
v 0.05 0.075 1
v 0.05 0.075 0.95
v 0 0.9375 0.95
v 0 0.9375 1
v 0.05 0.9375 1
v 0.05 0.9375 0.95
vt 0.678955 0.195801
vt 0.678955 0.202637
vt 0.561035 0.202637
vt 0.561035 0.195801
vt 0.682129 0.202637
vt 0.682129 0.195801
vt 0.800049 0.195801
vt 0.800049 0.202637
vt 0.803223 0.202637
vt 0.803223 0.195801
vt 0.921143 0.195801
vt 0.921143 0.202637
vt 0.002441 0.191895
vt 0.002441 0.185059
vt 0.120361 0.185059
vt 0.120361 0.191895
vt 0.130371 0.191895
vt 0.123535 0.191895
vt 0.123535 0.185059
vt 0.123535 0.185059
vt 0.130371 0.185059
vt 0.130371 0.191895
vt 0.134277 0.191895
vt 0.134277 0.185059
vt 0.141113 0.185059
vt 0.141113 0.185059
vt 0.141113 0.191895
vt 0.134277 0.191895
vn -1 0 0
vn 0 0 1
vn 1 0 0
vn 0 0 -1
vn 0 -1 0
vn 0 1 0
f 217/505/74 218/506/74 222/507/74 221/508/74
f 218/509/75 219/510/75 223/511/75 222/512/75
f 219/513/76 220/514/76 224/515/76 223/516/76
f 220/517/77 217/518/77 221/519/77 224/520/77
f 226/521/78 225/522/78 228/523/78
f 228/524/78 227/525/78 226/526/78
f 232/527/79 229/528/79 230/529/79
f 230/530/79 231/531/79 232/532/79
