# AFL Checkout Counter V1 display trays, generated by tools/build-checkout-counter-v1.mjs
mtllib rack.mtl
o counter_trays
usemtl counter
v 0.05375 0.1625 0.01625
v 0.05375 0.1625 0.18375
v 0.94625 0.1625 0.18375
v 0.94625 0.1625 0.01625
v 0.05 0.16625 0.0125
v 0.05 0.16625 0.1875
v 0.95 0.16625 0.1875
v 0.95 0.16625 0.0125
v 0.05 0.180625 0.0125
v 0.05 0.180625 0.1875
v 0.95 0.180625 0.1875
v 0.95 0.180625 0.0125
v 0.05375 0.184375 0.01625
v 0.05375 0.184375 0.18375
v 0.94625 0.184375 0.18375
v 0.94625 0.184375 0.01625
v 0.05375 0.1625 0.01625
v 0.05375 0.1625 0.18375
v 0.94625 0.1625 0.18375
v 0.94625 0.1625 0.01625
v 0.05375 0.184375 0.01625
v 0.05375 0.184375 0.18375
v 0.94625 0.184375 0.18375
v 0.94625 0.184375 0.01625
v 0.05 0.184375 0.0125
v 0.95 0.184375 0.0125
v 0.95 0.225 0.0125
v 0.05 0.225 0.0125
v 0.05 0.184375 0.03125
v 0.95 0.184375 0.03125
v 0.95 0.225 0.03125
v 0.05 0.225 0.03125
v 0.05 0.184375 0.0125
v 0.95 0.184375 0.0125
v 0.95 0.225 0.0125
v 0.05 0.225 0.0125
v 0.05 0.184375 0.03125
v 0.95 0.184375 0.03125
v 0.95 0.225 0.03125
v 0.05 0.225 0.03125
v 0.05 0.184375 0.03125
v 0.05 0.184375 0.1875
v 0.05 0.21875 0.1875
v 0.05 0.21875 0.03125
v 0.06875 0.184375 0.03125
v 0.06875 0.184375 0.1875
v 0.06875 0.21875 0.1875
v 0.06875 0.21875 0.03125
v 0.05 0.184375 0.03125
v 0.05 0.184375 0.1875
v 0.05 0.21875 0.1875
v 0.05 0.21875 0.03125
v 0.06875 0.184375 0.03125
v 0.06875 0.184375 0.1875
v 0.06875 0.21875 0.1875
v 0.06875 0.21875 0.03125
v 0.93125 0.184375 0.03125
v 0.93125 0.184375 0.1875
v 0.93125 0.21875 0.1875
v 0.93125 0.21875 0.03125
v 0.95 0.184375 0.03125
v 0.95 0.184375 0.1875
v 0.95 0.21875 0.1875
v 0.95 0.21875 0.03125
v 0.93125 0.184375 0.03125
v 0.93125 0.184375 0.1875
v 0.93125 0.21875 0.1875
v 0.93125 0.21875 0.03125
v 0.95 0.184375 0.03125
v 0.95 0.184375 0.1875
v 0.95 0.21875 0.1875
v 0.95 0.21875 0.03125
v 0.05375 0.3875 0.02875
v 0.05375 0.3875 0.18375
v 0.94625 0.3875 0.18375
v 0.94625 0.3875 0.02875
v 0.05 0.39125 0.025
v 0.05 0.39125 0.1875
v 0.95 0.39125 0.1875
v 0.95 0.39125 0.025
v 0.05 0.405625 0.025
v 0.05 0.405625 0.1875
v 0.95 0.405625 0.1875
v 0.95 0.405625 0.025
v 0.05375 0.409375 0.02875
v 0.05375 0.409375 0.18375
v 0.94625 0.409375 0.18375
v 0.94625 0.409375 0.02875
v 0.05375 0.3875 0.02875
v 0.05375 0.3875 0.18375
v 0.94625 0.3875 0.18375
v 0.94625 0.3875 0.02875
v 0.05375 0.409375 0.02875
v 0.05375 0.409375 0.18375
v 0.94625 0.409375 0.18375
v 0.94625 0.409375 0.02875
v 0.05 0.409375 0.025
v 0.95 0.409375 0.025
v 0.95 0.45 0.025
v 0.05 0.45 0.025
v 0.05 0.409375 0.04375
v 0.95 0.409375 0.04375
v 0.95 0.45 0.04375
v 0.05 0.45 0.04375
v 0.05 0.409375 0.025
v 0.95 0.409375 0.025
v 0.95 0.45 0.025
v 0.05 0.45 0.025
v 0.05 0.409375 0.04375
v 0.95 0.409375 0.04375
v 0.95 0.45 0.04375
v 0.05 0.45 0.04375
v 0.05 0.409375 0.04375
v 0.05 0.409375 0.1875
v 0.05 0.44375 0.1875
v 0.05 0.44375 0.04375
v 0.06875 0.409375 0.04375
v 0.06875 0.409375 0.1875
v 0.06875 0.44375 0.1875
v 0.06875 0.44375 0.04375
v 0.05 0.409375 0.04375
v 0.05 0.409375 0.1875
v 0.05 0.44375 0.1875
v 0.05 0.44375 0.04375
v 0.06875 0.409375 0.04375
v 0.06875 0.409375 0.1875
v 0.06875 0.44375 0.1875
v 0.06875 0.44375 0.04375
v 0.93125 0.409375 0.04375
v 0.93125 0.409375 0.1875
v 0.93125 0.44375 0.1875
v 0.93125 0.44375 0.04375
v 0.95 0.409375 0.04375
v 0.95 0.409375 0.1875
v 0.95 0.44375 0.1875
v 0.95 0.44375 0.04375
v 0.93125 0.409375 0.04375
v 0.93125 0.409375 0.1875
v 0.93125 0.44375 0.1875
v 0.93125 0.44375 0.04375
v 0.95 0.409375 0.04375
v 0.95 0.409375 0.1875
v 0.95 0.44375 0.1875
v 0.95 0.44375 0.04375
v 0.05375 0.6125 0.04125
v 0.05375 0.6125 0.18375
v 0.94625 0.6125 0.18375
v 0.94625 0.6125 0.04125
v 0.05 0.61625 0.0375
v 0.05 0.61625 0.1875
v 0.95 0.61625 0.1875
v 0.95 0.61625 0.0375
v 0.05 0.630625 0.0375
v 0.05 0.630625 0.1875
v 0.95 0.630625 0.1875
v 0.95 0.630625 0.0375
v 0.05375 0.634375 0.04125
v 0.05375 0.634375 0.18375
v 0.94625 0.634375 0.18375
v 0.94625 0.634375 0.04125
v 0.05375 0.6125 0.04125
v 0.05375 0.6125 0.18375
v 0.94625 0.6125 0.18375
v 0.94625 0.6125 0.04125
v 0.05375 0.634375 0.04125
v 0.05375 0.634375 0.18375
v 0.94625 0.634375 0.18375
v 0.94625 0.634375 0.04125
v 0.05 0.634375 0.0375
v 0.95 0.634375 0.0375
v 0.95 0.675 0.0375
v 0.05 0.675 0.0375
v 0.05 0.634375 0.05625
v 0.95 0.634375 0.05625
v 0.95 0.675 0.05625
v 0.05 0.675 0.05625
v 0.05 0.634375 0.0375
v 0.95 0.634375 0.0375
v 0.95 0.675 0.0375
v 0.05 0.675 0.0375
v 0.05 0.634375 0.05625
v 0.95 0.634375 0.05625
v 0.95 0.675 0.05625
v 0.05 0.675 0.05625
v 0.05 0.634375 0.05625
v 0.05 0.634375 0.1875
v 0.05 0.66875 0.1875
v 0.05 0.66875 0.05625
v 0.06875 0.634375 0.05625
v 0.06875 0.634375 0.1875
v 0.06875 0.66875 0.1875
v 0.06875 0.66875 0.05625
v 0.05 0.634375 0.05625
v 0.05 0.634375 0.1875
v 0.05 0.66875 0.1875
v 0.05 0.66875 0.05625
v 0.06875 0.634375 0.05625
v 0.06875 0.634375 0.1875
v 0.06875 0.66875 0.1875
v 0.06875 0.66875 0.05625
v 0.93125 0.634375 0.05625
v 0.93125 0.634375 0.1875
v 0.93125 0.66875 0.1875
v 0.93125 0.66875 0.05625
v 0.95 0.634375 0.05625
v 0.95 0.634375 0.1875
v 0.95 0.66875 0.1875
v 0.95 0.66875 0.05625
v 0.93125 0.634375 0.05625
v 0.93125 0.634375 0.1875
v 0.93125 0.66875 0.1875
v 0.93125 0.66875 0.05625
v 0.95 0.634375 0.05625
v 0.95 0.634375 0.1875
v 0.95 0.66875 0.1875
v 0.95 0.66875 0.05625
vt 0.372095 0.010505
vt 0.394995 0.010505
vt 0.395508 0.01123
vt 0.371582 0.01123
vt 0.254907 0.018318
vt 0.376929 0.018318
vt 0.377441 0.019043
vt 0.254395 0.019043
vt 0.422339 0.01123
vt 0.399438 0.01123
vt 0.398926 0.010505
vt 0.422852 0.010505
vt 0.502905 0.019043
vt 0.380884 0.019043
vt 0.380371 0.018318
vt 0.503418 0.018318
vt 0.279785 0.063953
vt 0.303711 0.063953
vt 0.303711 0.065918
vt 0.279785 0.065918
vt 0.027832 0.063953
vt 0.150879 0.063953
vt 0.150879 0.065918
vt 0.027832 0.065918
vt 0.331055 0.065918
vt 0.307129 0.065918
vt 0.307129 0.063953
vt 0.331055 0.063953
vt 0.153809 0.063953
vt 0.276855 0.063953
vt 0.276855 0.065918
vt 0.153809 0.065918
vt 0.42627 0.010505
vt 0.450195 0.010505
vt 0.449683 0.01123
vt 0.426782 0.01123
vt 0.931152 0.022949
vt 0.808105 0.022949
vt 0.808618 0.022224
vt 0.93064 0.022224
vt 0.477539 0.01123
vt 0.453613 0.01123
vt 0.454126 0.010505
vt 0.477026 0.010505
vt 0.002441 0.018318
vt 0.125488 0.018318
vt 0.124976 0.019043
vt 0.002954 0.019043
vt 0.424316 0.302246
vt 0.424316 0.279346
vt 0.546338 0.279346
vt 0.546338 0.279346
vt 0.546338 0.302246
vt 0.424316 0.302246
vt 0.549316 0.279346
vt 0.671338 0.279346
vt 0.671338 0.302246
vt 0.671338 0.302246
vt 0.549316 0.302246
vt 0.549316 0.279346
vt 0.706543 0.099487
vt 0.82959 0.099487
vt 0.82959 0.102051
vt 0.706543 0.102051
vt 0.818848 0.092651
vt 0.824402 0.092651
vt 0.824402 0.095215
vt 0.818848 0.095215
vt 0.83252 0.099487
vt 0.955566 0.099487
vt 0.955566 0.102051
vt 0.83252 0.102051
vt 0.827637 0.092651
vt 0.833191 0.092651
vt 0.833191 0.095215
vt 0.827637 0.095215
vt 0.620605 0.156067
vt 0.743652 0.156067
vt 0.743652 0.161621
vt 0.743652 0.161621
vt 0.620605 0.161621
vt 0.620605 0.156067
vt 0.746582 0.161621
vt 0.746582 0.156067
vt 0.869629 0.156067
vt 0.869629 0.156067
vt 0.869629 0.161621
vt 0.746582 0.161621
vt 0.506348 0.092651
vt 0.52771 0.092651
vt 0.52771 0.095215
vt 0.506348 0.095215
vt 0.898926 0.092651
vt 0.903625 0.092651
vt 0.903625 0.095215
vt 0.898926 0.095215
vt 0.552124 0.095215
vt 0.530762 0.095215
vt 0.530762 0.092651
vt 0.552124 0.092651
vt 0.911438 0.095215
vt 0.906738 0.095215
vt 0.906738 0.092651
vt 0.911438 0.092651
vt 0.245605 0.116699
vt 0.245605 0.112
vt 0.266968 0.112
vt 0.266968 0.112
vt 0.266968 0.116699
vt 0.245605 0.116699
vt 0.291382 0.116699
vt 0.27002 0.116699
vt 0.27002 0.112
vt 0.27002 0.112
vt 0.291382 0.112
vt 0.291382 0.116699
vt 0.555176 0.092651
vt 0.576538 0.092651
vt 0.576538 0.095215
vt 0.555176 0.095215
vt 0.914551 0.092651
vt 0.91925 0.092651
vt 0.91925 0.095215
vt 0.914551 0.095215
vt 0.600952 0.095215
vt 0.57959 0.095215
vt 0.57959 0.092651
vt 0.600952 0.092651
vt 0.927063 0.095215
vt 0.922363 0.095215
vt 0.922363 0.092651
vt 0.927063 0.092651
vt 0.294434 0.116699
vt 0.294434 0.112
vt 0.315796 0.112
vt 0.315796 0.112
vt 0.315796 0.116699
vt 0.294434 0.116699
vt 0.34021 0.116699
vt 0.318848 0.116699
vt 0.318848 0.112
vt 0.318848 0.112
vt 0.34021 0.112
vt 0.34021 0.116699
vt 0.709009 0.022224
vt 0.7302 0.022224
vt 0.730713 0.022949
vt 0.708496 0.022949
vt 0.50686 0.018318
vt 0.628882 0.018318
vt 0.629395 0.019043
vt 0.506348 0.019043
vt 0.755591 0.022949
vt 0.734399 0.022949
vt 0.733887 0.022224
vt 0.756104 0.022224
vt 0.754858 0.019043
vt 0.632837 0.019043
vt 0.632324 0.018318
vt 0.755371 0.018318
vt 0.961426 0.069812
vt 0.983643 0.069812
vt 0.983643 0.071777
vt 0.961426 0.071777
vt 0.709473 0.069812
vt 0.83252 0.069812
vt 0.83252 0.071777
vt 0.709473 0.071777
vt 0.024658 0.065918
vt 0.002441 0.065918
vt 0.002441 0.063953
vt 0.024658 0.063953
vt 0.835449 0.069812
vt 0.958496 0.069812
vt 0.958496 0.071777
vt 0.835449 0.071777
vt 0.480957 0.010505
vt 0.503174 0.010505
vt 0.502661 0.01123
vt 0.48147 0.01123
vt 0.881348 0.019043
vt 0.758301 0.019043
vt 0.758813 0.018318
vt 0.880835 0.018318
vt 0.528564 0.01123
vt 0.506348 0.01123
vt 0.50686 0.010505
vt 0.528052 0.010505
vt 0.002441 0.014412
vt 0.125488 0.014412
vt 0.124976 0.015137
vt 0.002954 0.015137
vt 0.674316 0.302246
vt 0.674316 0.281055
vt 0.796338 0.281055
vt 0.796338 0.281055
vt 0.796338 0.302246
vt 0.674316 0.302246
vt 0.799316 0.281055
vt 0.921338 0.281055
vt 0.921338 0.302246
vt 0.921338 0.302246
vt 0.799316 0.302246
vt 0.799316 0.281055
vt 0.002441 0.092651
vt 0.125488 0.092651
vt 0.125488 0.095215
vt 0.002441 0.095215
vt 0.783691 0.092651
vt 0.789246 0.092651
vt 0.789246 0.095215
vt 0.783691 0.095215
vt 0.128418 0.092651
vt 0.251465 0.092651
vt 0.251465 0.095215
vt 0.128418 0.095215
vt 0.79248 0.092651
vt 0.798035 0.092651
vt 0.798035 0.095215
vt 0.79248 0.095215
vt 0.116699 0.156067
vt 0.239746 0.156067
vt 0.239746 0.161621
vt 0.239746 0.161621
vt 0.116699 0.161621
vt 0.116699 0.156067
vt 0.242676 0.161621
vt 0.242676 0.156067
vt 0.365723 0.156067
vt 0.365723 0.156067
vt 0.365723 0.161621
vt 0.242676 0.161621
vt 0.604004 0.092651
vt 0.623657 0.092651
vt 0.623657 0.095215
vt 0.604004 0.095215
vt 0.836426 0.092651
vt 0.841125 0.092651
vt 0.841125 0.095215
vt 0.836426 0.095215
vt 0.647095 0.095215
vt 0.627441 0.095215
vt 0.627441 0.092651
vt 0.647095 0.092651
vt 0.848938 0.095215
vt 0.844238 0.095215
vt 0.844238 0.092651
vt 0.848938 0.092651
vt 0.717285 0.125488
vt 0.717285 0.120789
vt 0.736938 0.120789
vt 0.736938 0.120789
vt 0.736938 0.125488
vt 0.717285 0.125488
vt 0.760376 0.125488
vt 0.740723 0.125488
vt 0.740723 0.120789
vt 0.740723 0.120789
vt 0.760376 0.120789
vt 0.760376 0.125488
vt 0.650879 0.092651
vt 0.670532 0.092651
vt 0.670532 0.095215
vt 0.650879 0.095215
vt 0.852051 0.092651
vt 0.85675 0.092651
vt 0.85675 0.095215
vt 0.852051 0.095215
vt 0.69397 0.095215
vt 0.674316 0.095215
vt 0.674316 0.092651
vt 0.69397 0.092651
vt 0.864563 0.095215
vt 0.859863 0.095215
vt 0.859863 0.092651
vt 0.864563 0.092651
vt 0.76416 0.125488
vt 0.76416 0.120789
vt 0.783813 0.120789
vt 0.783813 0.120789
vt 0.783813 0.125488
vt 0.76416 0.125488
vt 0.807251 0.125488
vt 0.787598 0.125488
vt 0.787598 0.120789
vt 0.787598 0.120789
vt 0.807251 0.120789
vt 0.807251 0.125488
vt 0.75979 0.022224
vt 0.779272 0.022224
vt 0.779785 0.022949
vt 0.759277 0.022949
vt 0.128931 0.018318
vt 0.250952 0.018318
vt 0.251465 0.019043
vt 0.128418 0.019043
vt 0.803687 0.022949
vt 0.784204 0.022949
vt 0.783691 0.022224
vt 0.804199 0.022224
vt 0.250952 0.015137
vt 0.128931 0.015137
vt 0.128418 0.014412
vt 0.251465 0.014412
vt 0.586426 0.063953
vt 0.606934 0.063953
vt 0.606934 0.065918
vt 0.586426 0.065918
vt 0.334473 0.063953
vt 0.45752 0.063953
vt 0.45752 0.065918
vt 0.334473 0.065918
vt 0.631348 0.065918
vt 0.61084 0.065918
vt 0.61084 0.063953
vt 0.631348 0.063953
vt 0.460449 0.063953
vt 0.583496 0.063953
vt 0.583496 0.065918
vt 0.460449 0.065918
vt 0.934082 0.022224
vt 0.95459 0.022224
vt 0.954077 0.022949
vt 0.934595 0.022949
vt 0.57959 0.022949
vt 0.456543 0.022949
vt 0.457056 0.022224
vt 0.579077 0.022224
vt 0.979004 0.022949
vt 0.958496 0.022949
vt 0.959009 0.022224
vt 0.978491 0.022224
vt 0.58252 0.022224
vt 0.705566 0.022224
vt 0.705054 0.022949
vt 0.583032 0.022949
vt 0.002441 0.266113
vt 0.002441 0.246631
vt 0.124463 0.246631
vt 0.124463 0.246631
vt 0.124463 0.266113
vt 0.002441 0.266113
vt 0.127441 0.246631
vt 0.249463 0.246631
vt 0.249463 0.266113
vt 0.249463 0.266113
vt 0.127441 0.266113
vt 0.127441 0.246631
vt 0.254395 0.092651
vt 0.377441 0.092651
vt 0.377441 0.095215
vt 0.254395 0.095215
vt 0.80127 0.092651
vt 0.806824 0.092651
vt 0.806824 0.095215
vt 0.80127 0.095215
vt 0.380371 0.092651
vt 0.503418 0.092651
vt 0.503418 0.095215
vt 0.380371 0.095215
vt 0.810059 0.092651
vt 0.815613 0.092651
vt 0.815613 0.095215
vt 0.810059 0.095215
vt 0.368652 0.156067
vt 0.491699 0.156067
vt 0.491699 0.161621
vt 0.491699 0.161621
vt 0.368652 0.161621
vt 0.368652 0.156067
vt 0.494629 0.161621
vt 0.494629 0.156067
vt 0.617676 0.156067
vt 0.617676 0.156067
vt 0.617676 0.161621
vt 0.494629 0.161621
vt 0.697754 0.092651
vt 0.715698 0.092651
vt 0.715698 0.095215
vt 0.697754 0.095215
vt 0.867676 0.092651
vt 0.872375 0.092651
vt 0.872375 0.095215
vt 0.867676 0.095215
vt 0.737183 0.095215
vt 0.719238 0.095215
vt 0.719238 0.092651
vt 0.737183 0.092651
vt 0.880188 0.095215
vt 0.875488 0.095215
vt 0.875488 0.092651
vt 0.880188 0.092651
vt 0.811035 0.125488
vt 0.811035 0.120789
vt 0.828979 0.120789
vt 0.828979 0.120789
vt 0.828979 0.125488
vt 0.811035 0.125488
vt 0.850464 0.125488
vt 0.83252 0.125488
vt 0.83252 0.120789
vt 0.83252 0.120789
vt 0.850464 0.120789
vt 0.850464 0.125488
vt 0.740723 0.092651
vt 0.758667 0.092651
vt 0.758667 0.095215
vt 0.740723 0.095215
vt 0.883301 0.092651
vt 0.888 0.092651
vt 0.888 0.095215
vt 0.883301 0.095215
vt 0.780151 0.095215
vt 0.762207 0.095215
vt 0.762207 0.092651
vt 0.780151 0.092651
vt 0.895813 0.095215
vt 0.891113 0.095215
vt 0.891113 0.092651
vt 0.895813 0.092651
vt 0.854004 0.125488
vt 0.854004 0.120789
vt 0.871948 0.120789
vt 0.871948 0.120789
vt 0.871948 0.125488
vt 0.854004 0.125488
vt 0.893433 0.125488
vt 0.875488 0.125488
vt 0.875488 0.120789
vt 0.875488 0.120789
vt 0.893433 0.120789
vt 0.893433 0.125488
vn -0.707107 -0.707107 0
vn 0 -0.707107 0.707107
vn 0.707107 -0.707107 0
vn 0 -0.707107 -0.707107
vn -1 0 0
vn 0 0 1
vn 1 0 0
vn 0 0 -1
vn -0.707107 0.707107 0
vn 0 0.707107 0.707107
vn 0.707107 0.707107 0
vn 0 0.707107 -0.707107
vn 0 -1 0
vn 0 1 0
f 1/1/1 2/2/1 6/3/1 5/4/1
f 2/5/2 3/6/2 7/7/2 6/8/2
f 3/9/3 4/10/3 8/11/3 7/12/3
f 4/13/4 1/14/4 5/15/4 8/16/4
f 5/17/5 6/18/5 10/19/5 9/20/5
f 6/21/6 7/22/6 11/23/6 10/24/6
f 7/25/7 8/26/7 12/27/7 11/28/7
f 8/29/8 5/30/8 9/31/8 12/32/8
f 9/33/9 10/34/9 14/35/9 13/36/9
f 10/37/10 11/38/10 15/39/10 14/40/10
f 11/41/11 12/42/11 16/43/11 15/44/11
f 12/45/12 9/46/12 13/47/12 16/48/12
f 18/49/13 17/50/13 20/51/13
f 20/52/13 19/53/13 18/54/13
f 24/55/14 21/56/14 22/57/14
f 22/58/14 23/59/14 24/60/14
f 25/61/13 26/62/13 30/63/13 29/64/13
f 26/65/7 27/66/7 31/67/7 30/68/7
f 27/69/14 28/70/14 32/71/14 31/72/14
f 28/73/5 25/74/5 29/75/5 32/76/5
f 34/77/8 33/78/8 36/79/8
f 36/80/8 35/81/8 34/82/8
f 40/83/6 37/84/6 38/85/6
f 38/86/6 39/87/6 40/88/6
f 45/89/13 46/90/13 42/91/13 41/92/13
f 46/93/6 47/94/6 43/95/6 42/96/6
f 47/97/14 48/98/14 44/99/14 43/100/14
f 48/101/8 45/102/8 41/103/8 44/104/8
f 52/105/5 49/106/5 50/107/5
f 50/108/5 51/109/5 52/110/5
f 54/111/7 53/112/7 56/113/7
f 56/114/7 55/115/7 54/116/7
f 61/117/13 62/118/13 58/119/13 57/120/13
f 62/121/6 63/122/6 59/123/6 58/124/6
f 63/125/14 64/126/14 60/127/14 59/128/14
f 64/129/8 61/130/8 57/131/8 60/132/8
f 68/133/5 65/134/5 66/135/5
f 66/136/5 67/137/5 68/138/5
f 70/139/7 69/140/7 72/141/7
f 72/142/7 71/143/7 70/144/7
f 73/145/1 74/146/1 78/147/1 77/148/1
f 74/149/2 75/150/2 79/151/2 78/152/2
f 75/153/3 76/154/3 80/155/3 79/156/3
f 76/157/4 73/158/4 77/159/4 80/160/4
f 77/161/5 78/162/5 82/163/5 81/164/5
f 78/165/6 79/166/6 83/167/6 82/168/6
f 79/169/7 80/170/7 84/171/7 83/172/7
f 80/173/8 77/174/8 81/175/8 84/176/8
f 81/177/9 82/178/9 86/179/9 85/180/9
f 82/181/10 83/182/10 87/183/10 86/184/10
f 83/185/11 84/186/11 88/187/11 87/188/11
f 84/189/12 81/190/12 85/191/12 88/192/12
f 90/193/13 89/194/13 92/195/13
f 92/196/13 91/197/13 90/198/13
f 96/199/14 93/200/14 94/201/14
f 94/202/14 95/203/14 96/204/14
f 97/205/13 98/206/13 102/207/13 101/208/13
f 98/209/7 99/210/7 103/211/7 102/212/7
f 99/213/14 100/214/14 104/215/14 103/216/14
f 100/217/5 97/218/5 101/219/5 104/220/5
f 106/221/8 105/222/8 108/223/8
f 108/224/8 107/225/8 106/226/8
f 112/227/6 109/228/6 110/229/6
f 110/230/6 111/231/6 112/232/6
f 117/233/13 118/234/13 114/235/13 113/236/13
f 118/237/6 119/238/6 115/239/6 114/240/6
f 119/241/14 120/242/14 116/243/14 115/244/14
f 120/245/8 117/246/8 113/247/8 116/248/8
f 124/249/5 121/250/5 122/251/5
f 122/252/5 123/253/5 124/254/5
f 126/255/7 125/256/7 128/257/7
f 128/258/7 127/259/7 126/260/7
f 133/261/13 134/262/13 130/263/13 129/264/13
f 134/265/6 135/266/6 131/267/6 130/268/6
f 135/269/14 136/270/14 132/271/14 131/272/14
f 136/273/8 133/274/8 129/275/8 132/276/8
f 140/277/5 137/278/5 138/279/5
f 138/280/5 139/281/5 140/282/5
f 142/283/7 141/284/7 144/285/7
f 144/286/7 143/287/7 142/288/7
f 145/289/1 146/290/1 150/291/1 149/292/1
f 146/293/2 147/294/2 151/295/2 150/296/2
f 147/297/3 148/298/3 152/299/3 151/300/3
f 148/301/4 145/302/4 149/303/4 152/304/4
f 149/305/5 150/306/5 154/307/5 153/308/5
f 150/309/6 151/310/6 155/311/6 154/312/6
f 151/313/7 152/314/7 156/315/7 155/316/7
f 152/317/8 149/318/8 153/319/8 156/320/8
f 153/321/9 154/322/9 158/323/9 157/324/9
f 154/325/10 155/326/10 159/327/10 158/328/10
f 155/329/11 156/330/11 160/331/11 159/332/11
f 156/333/12 153/334/12 157/335/12 160/336/12
f 162/337/13 161/338/13 164/339/13
f 164/340/13 163/341/13 162/342/13
f 168/343/14 165/344/14 166/345/14
f 166/346/14 167/347/14 168/348/14
f 169/349/13 170/350/13 174/351/13 173/352/13
f 170/353/7 171/354/7 175/355/7 174/356/7
f 171/357/14 172/358/14 176/359/14 175/360/14
f 172/361/5 169/362/5 173/363/5 176/364/5
f 178/365/8 177/366/8 180/367/8
f 180/368/8 179/369/8 178/370/8
f 184/371/6 181/372/6 182/373/6
f 182/374/6 183/375/6 184/376/6
f 189/377/13 190/378/13 186/379/13 185/380/13
f 190/381/6 191/382/6 187/383/6 186/384/6
f 191/385/14 192/386/14 188/387/14 187/388/14
f 192/389/8 189/390/8 185/391/8 188/392/8
f 196/393/5 193/394/5 194/395/5
f 194/396/5 195/397/5 196/398/5
f 198/399/7 197/400/7 200/401/7
f 200/402/7 199/403/7 198/404/7
f 205/405/13 206/406/13 202/407/13 201/408/13
f 206/409/6 207/410/6 203/411/6 202/412/6
f 207/413/14 208/414/14 204/415/14 203/416/14
f 208/417/8 205/418/8 201/419/8 204/420/8
f 212/421/5 209/422/5 210/423/5
f 210/424/5 211/425/5 212/426/5
f 214/427/7 213/428/7 216/429/7
f 216/430/7 215/431/7 214/432/7
o counter_tray_posts
usemtl counter
v 0.03 0.1375 0.158125
v 0.03 0.1375 0.1825
v 0.045 0.1375 0.1825
v 0.045 0.1375 0.158125
v 0.025 0.1425 0.153125
v 0.025 0.1425 0.1875
v 0.05 0.1425 0.1875
v 0.05 0.1425 0.153125
v 0.025 0.7075 0.153125
v 0.025 0.7075 0.1875
v 0.05 0.7075 0.1875
v 0.05 0.7075 0.153125
v 0.03 0.7125 0.158125
v 0.03 0.7125 0.1825
v 0.045 0.7125 0.1825
v 0.045 0.7125 0.158125
v 0.03 0.1375 0.158125
v 0.03 0.1375 0.1825
v 0.045 0.1375 0.1825
v 0.045 0.1375 0.158125
v 0.03 0.7125 0.158125
v 0.03 0.7125 0.1825
v 0.045 0.7125 0.1825
v 0.045 0.7125 0.158125
v 0.955 0.1375 0.158125
v 0.955 0.1375 0.1825
v 0.97 0.1375 0.1825
v 0.97 0.1375 0.158125
v 0.95 0.1425 0.153125
v 0.95 0.1425 0.1875
v 0.975 0.1425 0.1875
v 0.975 0.1425 0.153125
v 0.95 0.7075 0.153125
v 0.95 0.7075 0.1875
v 0.975 0.7075 0.1875
v 0.975 0.7075 0.153125
v 0.955 0.7125 0.158125
v 0.955 0.7125 0.1825
v 0.97 0.7125 0.1825
v 0.97 0.7125 0.158125
v 0.955 0.1375 0.158125
v 0.955 0.1375 0.1825
v 0.97 0.1375 0.1825
v 0.97 0.1375 0.158125
v 0.955 0.7125 0.158125
v 0.955 0.7125 0.1825
v 0.97 0.7125 0.1825
v 0.97 0.7125 0.158125
vt 0.684766 0.025889
vt 0.688098 0.025889
vt 0.688782 0.026855
vt 0.684082 0.026855
vt 0.976758 0.029795
vt 0.978809 0.029795
vt 0.979492 0.030762
vt 0.976074 0.030762
vt 0.546497 0.026855
vt 0.543164 0.026855
vt 0.54248 0.025889
vt 0.54718 0.025889
vt 0.71709 0.026855
vt 0.715039 0.026855
vt 0.714355 0.025889
vt 0.717773 0.025889
vt 0.974219 0.120789
vt 0.974219 0.125488
vt 0.896973 0.125488
vt 0.896973 0.120789
vt 0.870605 0.116699
vt 0.870605 0.113281
vt 0.947852 0.113281
vt 0.947852 0.116699
vt 0.002441 0.116699
vt 0.002441 0.112
vt 0.079687 0.112
vt 0.079687 0.116699
vt 0.002441 0.108887
vt 0.002441 0.105469
vt 0.079687 0.105469
vt 0.079687 0.108887
vt 0.728027 0.025889
vt 0.732727 0.025889
vt 0.732043 0.026855
vt 0.728711 0.026855
vt 0.839844 0.030762
vt 0.836426 0.030762
vt 0.837109 0.029795
vt 0.83916 0.029795
vt 0.74054 0.026855
vt 0.73584 0.026855
vt 0.736523 0.025889
vt 0.739856 0.025889
vt 0.23877 0.034678
vt 0.242188 0.034678
vt 0.241504 0.035645
vt 0.239453 0.035645
vt 0.685461 0.071777
vt 0.682129 0.071777
vt 0.682129 0.069727
vt 0.682129 0.069727
vt 0.685461 0.069727
vt 0.685461 0.071777
vt 0.688965 0.071777
vt 0.688965 0.069727
vt 0.692297 0.069727
vt 0.692297 0.069727
vt 0.692297 0.071777
vt 0.688965 0.071777
vt 0.550977 0.025889
vt 0.554309 0.025889
vt 0.554993 0.026855
vt 0.550293 0.026855
vt 0.983594 0.029795
vt 0.985645 0.029795
vt 0.986328 0.030762
vt 0.98291 0.030762
vt 0.695911 0.026855
vt 0.692578 0.026855
vt 0.691895 0.025889
vt 0.696594 0.025889
vt 0.723926 0.026855
vt 0.721875 0.026855
vt 0.721191 0.025889
vt 0.724609 0.025889
vt 0.160742 0.112
vt 0.160742 0.116699
vt 0.083496 0.116699
vt 0.083496 0.112
vt 0.083496 0.108887
vt 0.083496 0.105469
vt 0.160742 0.105469
vt 0.160742 0.108887
vt 0.164551 0.116699
vt 0.164551 0.112
vt 0.241797 0.112
vt 0.241797 0.116699
vt 0.164551 0.108887
vt 0.164551 0.105469
vt 0.241797 0.105469
vt 0.241797 0.108887
vt 0.743652 0.025889
vt 0.748352 0.025889
vt 0.747668 0.026855
vt 0.744336 0.026855
vt 0.84668 0.030762
vt 0.843262 0.030762
vt 0.843945 0.029795
vt 0.845996 0.029795
vt 0.756165 0.026855
vt 0.751465 0.026855
vt 0.752148 0.025889
vt 0.755481 0.025889
vt 0.245605 0.034678
vt 0.249023 0.034678
vt 0.24834 0.035645
vt 0.246289 0.035645
vt 0.699133 0.071777
vt 0.695801 0.071777
vt 0.695801 0.069727
vt 0.695801 0.069727
vt 0.699133 0.069727
vt 0.699133 0.071777
vt 0.702637 0.071777
vt 0.702637 0.069727
vt 0.705969 0.069727
vt 0.705969 0.069727
vt 0.705969 0.071777
vt 0.702637 0.071777
vn -0.707107 -0.707107 0
vn 0 -0.707107 0.707107
vn 0.707107 -0.707107 0
vn 0 -0.707107 -0.707107
vn -1 0 0
vn 0 0 1
vn 1 0 0
vn 0 0 -1
vn -0.707107 0.707107 0
vn 0 0.707107 0.707107
vn 0.707107 0.707107 0
vn 0 0.707107 -0.707107
vn 0 -1 0
vn 0 1 0
f 217/433/15 218/434/15 222/435/15 221/436/15
f 218/437/16 219/438/16 223/439/16 222/440/16
f 219/441/17 220/442/17 224/443/17 223/444/17
f 220/445/18 217/446/18 221/447/18 224/448/18
f 221/449/19 222/450/19 226/451/19 225/452/19
f 222/453/20 223/454/20 227/455/20 226/456/20
f 223/457/21 224/458/21 228/459/21 227/460/21
f 224/461/22 221/462/22 225/463/22 228/464/22
f 225/465/23 226/466/23 230/467/23 229/468/23
f 226/469/24 227/470/24 231/471/24 230/472/24
f 227/473/25 228/474/25 232/475/25 231/476/25
f 228/477/26 225/478/26 229/479/26 232/480/26
f 234/481/27 233/482/27 236/483/27
f 236/484/27 235/485/27 234/486/27
f 240/487/28 237/488/28 238/489/28
f 238/490/28 239/491/28 240/492/28
f 241/493/15 242/494/15 246/495/15 245/496/15
f 242/497/16 243/498/16 247/499/16 246/500/16
f 243/501/17 244/502/17 248/503/17 247/504/17
f 244/505/18 241/506/18 245/507/18 248/508/18
f 245/509/19 246/510/19 250/511/19 249/512/19
f 246/513/20 247/514/20 251/515/20 250/516/20
f 247/517/21 248/518/21 252/519/21 251/520/21
f 248/521/22 245/522/22 249/523/22 252/524/22
f 249/525/23 250/526/23 254/527/23 253/528/23
f 250/529/24 251/530/24 255/531/24 254/532/24
f 251/533/25 252/534/25 256/535/25 255/536/25
f 252/537/26 249/538/26 253/539/26 256/540/26
f 258/541/27 257/542/27 260/543/27
f 260/544/27 259/545/27 258/546/27
f 264/547/28 261/548/28 262/549/28
f 262/550/28 263/551/28 264/552/28
