# AFL Checkout Counter V1 straight, generated by tools/build-checkout-counter-v1.mjs
mtllib straight.mtl
o counter_top
usemtl counter
v 0 0.9375 0.15
v 0 0.9375 0.975
v 0 0.98875 0.975
v 0 1 0.96375
v 0 1 0.16125
v 0 0.98875 0.15
v 1 0.9375 0.15
v 1 0.9375 0.975
v 1 0.98875 0.975
v 1 1 0.96375
v 1 1 0.16125
v 1 0.98875 0.15
v 0 0.9375 0.15
v 0 0.9375 0.975
v 0 0.98875 0.975
v 0 1 0.96375
v 0 1 0.16125
v 0 0.98875 0.15
v 1 0.9375 0.15
v 1 0.9375 0.975
v 1 0.98875 0.975
v 1 1 0.96375
v 1 1 0.16125
v 1 0.98875 0.15
vt 0.646973 0.629883
vt 0.646973 0.742676
vt 0.510254 0.742676
vt 0.510254 0.629883
vt 0.13916 0.19563
vt 0.13916 0.202637
vt 0.002441 0.202637
vt 0.002441 0.19563
vt 0.79541 0.089355
vt 0.79541 0.08718
vt 0.932129 0.08718
vt 0.932129 0.089355
vt 0.359863 0.626465
vt 0.359863 0.516748
vt 0.496582 0.516748
vt 0.496582 0.626465
vt 0.002441 0.083496
vt 0.002441 0.081321
vt 0.13916 0.081321
vt 0.13916 0.083496
vt 0.14209 0.202637
vt 0.14209 0.19563
vt 0.278809 0.19563
vt 0.278809 0.202637
vt 0.531738 0.214771
vt 0.531738 0.207764
vt 0.644531 0.207764
vt 0.531738 0.214771
vt 0.644531 0.207764
vt 0.644531 0.214771
vt 0.531738 0.214771
vt 0.644531 0.214771
vt 0.642993 0.216309
vt 0.642993 0.216309
vt 0.533276 0.216309
vt 0.531738 0.214771
vt 0.760742 0.216309
vt 0.647949 0.216309
vt 0.647949 0.209302
vt 0.760742 0.209302
vt 0.760742 0.216309
vt 0.647949 0.209302
vt 0.759204 0.207764
vt 0.760742 0.209302
vt 0.647949 0.209302
vt 0.647949 0.209302
vt 0.649487 0.207764
vt 0.759204 0.207764
vn 0 -1 0
vn 0 0 1
vn 0 0.707107 0.707107
vn 0 1 0
vn 0 0.707107 -0.707107
vn 0 0 -1
vn -1 0 0
vn 1 0 0
f 7/1/1 8/2/1 2/3/1 1/4/1
f 8/5/2 9/6/2 3/7/2 2/8/2
f 9/9/3 10/10/3 4/11/3 3/12/3
f 10/13/4 11/14/4 5/15/4 4/16/4
f 11/17/5 12/18/5 6/19/5 5/20/5
f 12/21/6 7/22/6 1/23/6 6/24/6
f 18/25/7 13/26/7 14/27/7
f 18/28/7 14/29/7 15/30/7
f 18/31/7 15/32/7 16/33/7
f 16/34/7 17/35/7 18/36/7
f 20/37/8 19/38/8 24/39/8
f 21/40/8 20/41/8 24/42/8
f 22/43/8 21/44/8 24/45/8
f 24/46/8 23/47/8 22/48/8
o counter_top_trim
usemtl counter
v 0 0.928125 0.134375
v 0 0.928125 0.15
v 0 1 0.15
v 0 1 0.134375
v 1 0.928125 0.134375
v 1 0.928125 0.15
v 1 1 0.15
v 1 1 0.134375
v 0 0.928125 0.134375
v 0 0.928125 0.15
v 0 1 0.15
v 0 1 0.134375
v 1 0.928125 0.134375
v 1 0.928125 0.15
v 1 1 0.15
v 1 1 0.134375
vt 0.13916 0.069641
vt 0.13916 0.071777
vt 0.002441 0.071777
vt 0.002441 0.069641
vt 0.509277 0.220154
vt 0.509277 0.22998
vt 0.372559 0.22998
vt 0.372559 0.220154
vt 0.14209 0.071777
vt 0.14209 0.069641
vt 0.278809 0.069641
vt 0.278809 0.071777
vt 0.512207 0.22998
vt 0.512207 0.220154
vt 0.648926 0.220154
vt 0.648926 0.22998
vt 0.561035 0.069641
vt 0.570862 0.069641
vt 0.570862 0.071777
vt 0.570862 0.071777
vt 0.561035 0.071777
vt 0.561035 0.069641
vt 0.574707 0.071777
vt 0.574707 0.069641
vt 0.584534 0.069641
vt 0.584534 0.069641
vt 0.584534 0.071777
vt 0.574707 0.071777
vn 0 -1 0
vn 0 0 1
vn 0 1 0
vn 0 0 -1
vn -1 0 0
vn 1 0 0
f 29/49/9 30/50/9 26/51/9 25/52/9
f 30/53/10 31/54/10 27/55/10 26/56/10
f 31/57/11 32/58/11 28/59/11 27/60/11
f 32/61/12 29/62/12 25/63/12 28/64/12
f 36/65/13 33/66/13 34/67/13
f 34/68/13 35/69/13 36/70/13
f 38/71/14 37/72/14 40/73/14
f 40/74/14 39/75/14 38/76/14
o counter_panel
usemtl counter
v 0 0.075 0.1875
v 0 0.075 0.2375
v 0 0.9375 0.2375
v 0 0.9375 0.1875
v 1 0.075 0.1875
v 1 0.075 0.2375
v 1 0.9375 0.2375
v 1 0.9375 0.1875
v 0 0.075 0.1875
v 0 0.075 0.2375
v 0 0.9375 0.2375
v 0 0.9375 0.1875
v 1 0.075 0.1875
v 1 0.075 0.2375
v 1 0.9375 0.2375
v 1 0.9375 0.1875
vt 0.281738 0.185059
vt 0.281738 0.191895
vt 0.14502 0.191895
vt 0.14502 0.185059
vt 0.914551 0.879639
vt 0.914551 0.997559
vt 0.777832 0.997559
vt 0.777832 0.879639
vt 0.284668 0.191895
vt 0.284668 0.185059
vt 0.421387 0.185059
vt 0.421387 0.191895
vt 0.002441 0.86377
vt 0.002441 0.74585
vt 0.13916 0.74585
vt 0.13916 0.86377
vt 0.002441 0.174316
vt 0.120361 0.174316
vt 0.120361 0.181152
vt 0.120361 0.181152
vt 0.002441 0.181152
vt 0.002441 0.174316
vt 0.123535 0.181152
vt 0.123535 0.174316
vt 0.241455 0.174316
vt 0.241455 0.174316
vt 0.241455 0.181152
vt 0.123535 0.181152
vn 0 -1 0
vn 0 0 1
vn 0 1 0
vn 0 0 -1
vn -1 0 0
vn 1 0 0
f 45/77/15 46/78/15 42/79/15 41/80/15
f 46/81/16 47/82/16 43/83/16 42/84/16
f 47/85/17 48/86/17 44/87/17 43/88/17
f 48/89/18 45/90/18 41/91/18 44/92/18
f 52/93/19 49/94/19 50/95/19
f 50/96/19 51/97/19 52/98/19
f 54/99/20 53/100/20 56/101/20
f 56/102/20 55/103/20 54/104/20
o counter_low_trim
usemtl counter
v 0 0.125 0.18125
v 0 0.125 0.1875
v 0 0.146875 0.1875
v 0 0.146875 0.18125
v 1 0.125 0.18125
v 1 0.125 0.1875
v 1 0.146875 0.1875
v 1 0.146875 0.18125
v 0 0.125 0.18125
v 0 0.125 0.1875
v 0 0.146875 0.1875
v 0 0.146875 0.18125
v 1 0.125 0.18125
v 1 0.125 0.1875
v 1 0.146875 0.1875
v 1 0.146875 0.18125
vt 0.895996 0.026001
vt 0.895996 0.026855
vt 0.759277 0.026855
vt 0.759277 0.026001
vt 0.606934 0.105896
vt 0.606934 0.108887
vt 0.470215 0.108887
vt 0.470215 0.105896
vt 0.002441 0.022949
vt 0.002441 0.022095
vt 0.13916 0.022095
vt 0.13916 0.022949
vt 0.609863 0.108887
vt 0.609863 0.105896
vt 0.746582 0.105896
vt 0.746582 0.108887
vt 0.401855 0.022095
vt 0.404846 0.022095
vt 0.404846 0.022949
vt 0.404846 0.022949
vt 0.401855 0.022949
vt 0.401855 0.022095
vt 0.408691 0.022949
vt 0.408691 0.022095
vt 0.411682 0.022095
vt 0.411682 0.022095
vt 0.411682 0.022949
vt 0.408691 0.022949
vn 0 -1 0
vn 0 0 1
vn 0 1 0
vn 0 0 -1
vn -1 0 0
vn 1 0 0
f 61/105/21 62/106/21 58/107/21 57/108/21
f 62/109/22 63/110/22 59/111/22 58/112/22
f 63/113/23 64/114/23 60/115/23 59/116/23
f 64/117/24 61/118/24 57/119/24 60/120/24
f 68/121/25 65/122/25 66/123/25
f 66/124/25 67/125/25 68/126/25
f 70/127/26 69/128/26 72/129/26
f 72/130/26 71/131/26 70/132/26
o counter_kick
usemtl counter
v 0 0 0.225
v 0 0 0.9375
v 0 0.075 0.9375
v 0 0.075 0.225
v 1 0 0.225
v 1 0 0.9375
v 1 0.075 0.9375
v 1 0.075 0.225
v 0 0 0.225
v 0 0 0.9375
v 0 0.075 0.9375
v 0 0.075 0.225
v 1 0 0.225
v 1 0 0.9375
v 1 0.075 0.9375
v 1 0.075 0.225
vt 0.241699 0.306396
vt 0.241699 0.403809
vt 0.10498 0.403809
vt 0.10498 0.306396
vt 0.861816 0.255859
vt 0.861816 0.266113
vt 0.725098 0.266113
vt 0.725098 0.255859
vt 0.244629 0.403809
vt 0.244629 0.306396
vt 0.381348 0.306396
vt 0.381348 0.403809
vt 0.002441 0.243652
vt 0.002441 0.233398
vt 0.13916 0.233398
vt 0.13916 0.243652
vt 0.843262 0.243652
vt 0.843262 0.233398
vt 0.940674 0.233398
vt 0.940674 0.233398
vt 0.940674 0.243652
vt 0.843262 0.243652
vt 0.099854 0.22998
vt 0.002441 0.22998
vt 0.002441 0.219727
vt 0.002441 0.219727
vt 0.099854 0.219727
vt 0.099854 0.22998
vn 0 -1 0
vn 0 0 1
vn 0 1 0
vn 0 0 -1
vn -1 0 0
vn 1 0 0
f 77/133/27 78/134/27 74/135/27 73/136/27
f 78/137/28 79/138/28 75/139/28 74/140/28
f 79/141/29 80/142/29 76/143/29 75/144/29
f 80/145/30 77/146/30 73/147/30 76/148/30
f 84/149/31 81/150/31 82/151/31
f 82/152/31 83/153/31 84/154/31
f 86/155/32 85/156/32 88/157/32
f 88/158/32 87/159/32 86/160/32
o counter_ends
usemtl counter
v 0 0.08125 0.24375
v 0 0.08125 0.96875
v 0 0.93125 0.96875
v 0 0.93125 0.24375
v 0.00625 0.075 0.2375
v 0.00625 0.075 0.975
v 0.00625 0.9375 0.975
v 0.00625 0.9375 0.2375
v 0.04375 0.075 0.2375
v 0.04375 0.075 0.975
v 0.04375 0.9375 0.975
v 0.04375 0.9375 0.2375
v 0.05 0.08125 0.24375
v 0.05 0.08125 0.96875
v 0.05 0.93125 0.96875
v 0.05 0.93125 0.24375
v 0 0.08125 0.24375
v 0 0.08125 0.96875
v 0 0.93125 0.96875
v 0 0.93125 0.24375
v 0.05 0.08125 0.24375
v 0.05 0.08125 0.96875
v 0.05 0.93125 0.96875
v 0.05 0.93125 0.24375
v 0.95 0.08125 0.24375
v 0.95 0.08125 0.96875
v 0.95 0.93125 0.96875
v 0.95 0.93125 0.24375
v 0.95625 0.075 0.2375
v 0.95625 0.075 0.975
v 0.95625 0.9375 0.975
v 0.95625 0.9375 0.2375
v 0.99375 0.075 0.2375
v 0.99375 0.075 0.975
v 0.99375 0.9375 0.975
v 0.99375 0.9375 0.2375
v 1 0.08125 0.24375
v 1 0.08125 0.96875
v 1 0.93125 0.96875
v 1 0.93125 0.24375
v 0.95 0.08125 0.24375
v 0.95 0.08125 0.96875
v 0.95 0.93125 0.96875
v 0.95 0.93125 0.24375
v 1 0.08125 0.24375
v 1 0.08125 0.96875
v 1 0.93125 0.96875
v 1 0.93125 0.24375
vt 0.23877 0.049085
vt 0.3396 0.049085
vt 0.338745 0.050293
vt 0.239624 0.050293
vt 0.807861 0.050293
vt 0.689941 0.050293
vt 0.690796 0.049085
vt 0.807007 0.049085
vt 0.560303 0.040527
vt 0.459473 0.040527
vt 0.460327 0.039319
vt 0.559448 0.039319
vt 0.811035 0.049085
vt 0.928955 0.049085
vt 0.928101 0.050293
vt 0.81189 0.050293
vt 0.725098 0.12915
vt 0.825928 0.12915
vt 0.825928 0.134277
vt 0.725098 0.134277
vt 0.002441 0.12915
vt 0.120361 0.12915
vt 0.120361 0.134277
vt 0.002441 0.134277
vt 0.93042 0.134277
vt 0.82959 0.134277
vt 0.82959 0.12915
vt 0.93042 0.12915
vt 0.241455 0.134277
vt 0.123535 0.134277
vt 0.123535 0.12915
vt 0.241455 0.12915
vt 0.251343 0.039319
vt 0.350464 0.039319
vt 0.351318 0.040527
vt 0.250488 0.040527
vt 0.003296 0.044202
vt 0.119507 0.044202
vt 0.120361 0.04541
vt 0.002441 0.04541
vt 0.102417 0.040527
vt 0.003296 0.040527
vt 0.002441 0.039319
vt 0.103271 0.039319
vt 0.240601 0.04541
vt 0.12439 0.04541
vt 0.123535 0.044202
vt 0.241455 0.044202
vt 0.373535 0.412109
vt 0.489746 0.412109
vt 0.489746 0.51123
vt 0.489746 0.51123
vt 0.373535 0.51123
vt 0.373535 0.412109
vt 0.492676 0.51123
vt 0.492676 0.412109
vt 0.608887 0.412109
vt 0.608887 0.412109
vt 0.608887 0.51123
vt 0.492676 0.51123
vt 0.35498 0.039319
vt 0.455811 0.039319
vt 0.454956 0.040527
vt 0.355835 0.040527
vt 0.362549 0.04541
vt 0.244629 0.04541
vt 0.245483 0.044202
vt 0.361694 0.044202
vt 0.207764 0.040527
vt 0.106934 0.040527
vt 0.107788 0.039319
vt 0.206909 0.039319
vt 0.365723 0.044202
vt 0.483643 0.044202
vt 0.482788 0.04541
vt 0.366577 0.04541
vt 0.002441 0.120361
vt 0.103271 0.120361
vt 0.103271 0.125488
vt 0.002441 0.125488
vt 0.244629 0.12915
vt 0.362549 0.12915
vt 0.362549 0.134277
vt 0.244629 0.134277
vt 0.207764 0.125488
vt 0.106934 0.125488
vt 0.106934 0.120361
vt 0.207764 0.120361
vt 0.483643 0.134277
vt 0.365723 0.134277
vt 0.365723 0.12915
vt 0.483643 0.12915
vt 0.344116 0.049085
vt 0.443237 0.049085
vt 0.444092 0.050293
vt 0.343262 0.050293
vt 0.487671 0.044202
vt 0.603882 0.044202
vt 0.604736 0.04541
vt 0.486816 0.04541
vt 0.66394 0.040527
vt 0.564819 0.040527
vt 0.563965 0.039319
vt 0.664795 0.039319
vt 0.724976 0.04541
vt 0.608765 0.04541
vt 0.60791 0.044202
vt 0.72583 0.044202
vt 0.611816 0.412109
vt 0.728027 0.412109
vt 0.728027 0.51123
vt 0.728027 0.51123
vt 0.611816 0.51123
vt 0.611816 0.412109
vt 0.730957 0.51123
vt 0.730957 0.412109
vt 0.847168 0.412109
vt 0.847168 0.412109
vt 0.847168 0.51123
vt 0.730957 0.51123
vn -0.707107 -0.707107 0
vn -0.707107 0 0.707107
vn -0.707107 0.707107 0
vn -0.707107 0 -0.707107
vn 0 -1 0
vn 0 0 1
vn 0 1 0
vn 0 0 -1
vn 0.707107 -0.707107 0
vn 0.707107 0 0.707107
vn 0.707107 0.707107 0
vn 0.707107 0 -0.707107
vn -1 0 0
vn 1 0 0
f 93/161/33 94/162/33 90/163/33 89/164/33
f 94/165/34 95/166/34 91/167/34 90/168/34
f 95/169/35 96/170/35 92/171/35 91/172/35
f 96/173/36 93/174/36 89/175/36 92/176/36
f 97/177/37 98/178/37 94/179/37 93/180/37
f 98/181/38 99/182/38 95/183/38 94/184/38
f 99/185/39 100/186/39 96/187/39 95/188/39
f 100/189/40 97/190/40 93/191/40 96/192/40
f 101/193/41 102/194/41 98/195/41 97/196/41
f 102/197/42 103/198/42 99/199/42 98/200/42
f 103/201/43 104/202/43 100/203/43 99/204/43
f 104/205/44 101/206/44 97/207/44 100/208/44
f 108/209/45 105/210/45 106/211/45
f 106/212/45 107/213/45 108/214/45
f 110/215/46 109/216/46 112/217/46
f 112/218/46 111/219/46 110/220/46
f 117/221/33 118/222/33 114/223/33 113/224/33
f 118/225/34 119/226/34 115/227/34 114/228/34
f 119/229/35 120/230/35 116/231/35 115/232/35
f 120/233/36 117/234/36 113/235/36 116/236/36
f 121/237/37 122/238/37 118/239/37 117/240/37
f 122/241/38 123/242/38 119/243/38 118/244/38
f 123/245/39 124/246/39 120/247/39 119/248/39
f 124/249/40 121/250/40 117/251/40 120/252/40
f 125/253/41 126/254/41 122/255/41 121/256/41
f 126/257/42 127/258/42 123/259/42 122/260/42
f 127/261/43 128/262/43 124/263/43 123/264/43
f 128/265/44 125/266/44 121/267/44 124/268/44
f 132/269/45 129/270/45 130/271/45
f 130/272/45 131/273/45 132/274/45
f 134/275/46 133/276/46 136/277/46
f 136/278/46 135/279/46 134/280/46
o counter_deck
usemtl counter
v 0.055 0.075 0.2425
v 0.055 0.075 0.97
v 0.945 0.075 0.97
v 0.945 0.075 0.2425
v 0.05 0.08 0.2375
v 0.05 0.08 0.975
v 0.95 0.08 0.975
v 0.95 0.08 0.2375
v 0.05 0.12 0.2375
v 0.05 0.12 0.975
v 0.95 0.12 0.975
v 0.95 0.12 0.2375
v 0.055 0.125 0.2425
v 0.055 0.125 0.97
v 0.945 0.125 0.97
v 0.945 0.125 0.2425
v 0.055 0.075 0.2425
v 0.055 0.075 0.97
v 0.945 0.075 0.97
v 0.945 0.075 0.2425
v 0.055 0.125 0.2425
v 0.055 0.125 0.97
v 0.945 0.125 0.97
v 0.945 0.125 0.2425
vt 0.883008 0.034678
vt 0.982471 0.034678
vt 0.983154 0.035645
vt 0.882324 0.035645
vt 0.253125 0.034678
vt 0.374805 0.034678
vt 0.375488 0.035645
vt 0.252441 0.035645
vt 0.102588 0.030762
vt 0.003125 0.030762
vt 0.002441 0.029795
vt 0.103271 0.029795
vt 0.124805 0.026855
vt 0.003125 0.026855
vt 0.002441 0.025889
vt 0.125488 0.025889
vt 0.692871 0.137598
vt 0.793701 0.137598
vt 0.793701 0.143066
vt 0.692871 0.143066
vt 0.440918 0.137598
vt 0.563965 0.137598
vt 0.563965 0.143066
vt 0.440918 0.143066
vt 0.898193 0.143066
vt 0.797363 0.143066
vt 0.797363 0.137598
vt 0.898193 0.137598
vt 0.566895 0.137598
vt 0.689941 0.137598
vt 0.689941 0.143066
vt 0.566895 0.143066
vt 0.106934 0.029795
vt 0.207764 0.029795
vt 0.20708 0.030762
vt 0.107617 0.030762
vt 0.501465 0.035645
vt 0.378418 0.035645
vt 0.379102 0.034678
vt 0.500781 0.034678
vt 0.312256 0.030762
vt 0.211426 0.030762
vt 0.212109 0.029795
vt 0.311572 0.029795
vt 0.850098 0.029795
vt 0.973145 0.029795
vt 0.972461 0.030762
vt 0.850781 0.030762
vt 0.123535 0.51123
vt 0.123535 0.411768
vt 0.245215 0.411768
vt 0.245215 0.411768
vt 0.245215 0.51123
vt 0.123535 0.51123
vt 0.248535 0.411768
vt 0.370215 0.411768
vt 0.370215 0.51123
vt 0.370215 0.51123
vt 0.248535 0.51123
vt 0.248535 0.411768
vn -0.707107 -0.707107 0
vn 0 -0.707107 0.707107
vn 0.707107 -0.707107 0
vn 0 -0.707107 -0.707107
vn -1 0 0
vn 0 0 1
vn 1 0 0
vn 0 0 -1
vn -0.707107 0.707107 0
vn 0 0.707107 0.707107
vn 0.707107 0.707107 0
vn 0 0.707107 -0.707107
vn 0 -1 0
vn 0 1 0
f 137/281/47 138/282/47 142/283/47 141/284/47
f 138/285/48 139/286/48 143/287/48 142/288/48
f 139/289/49 140/290/49 144/291/49 143/292/49
f 140/293/50 137/294/50 141/295/50 144/296/50
f 141/297/51 142/298/51 146/299/51 145/300/51
f 142/301/52 143/302/52 147/303/52 146/304/52
f 143/305/53 144/306/53 148/307/53 147/308/53
f 144/309/54 141/310/54 145/311/54 148/312/54
f 145/313/55 146/314/55 150/315/55 149/316/55
f 146/317/56 147/318/56 151/319/56 150/320/56
f 147/321/57 148/322/57 152/323/57 151/324/57
f 148/325/58 145/326/58 149/327/58 152/328/58
f 154/329/59 153/330/59 156/331/59
f 156/332/59 155/333/59 154/334/59
f 160/335/60 157/336/60 158/337/60
f 158/338/60 159/339/60 160/340/60
o counter_divider
usemtl counter
v 0.475 0.13 0.2425
v 0.475 0.13 0.97
v 0.475 0.845 0.97
v 0.475 0.845 0.2425
v 0.48 0.125 0.2375
v 0.48 0.125 0.975
v 0.48 0.85 0.975
v 0.48 0.85 0.2375
v 0.52 0.125 0.2375
v 0.52 0.125 0.975
v 0.52 0.85 0.975
v 0.52 0.85 0.2375
v 0.525 0.13 0.2425
v 0.525 0.13 0.97
v 0.525 0.845 0.97
v 0.525 0.845 0.2425
v 0.475 0.13 0.2425
v 0.475 0.13 0.97
v 0.475 0.845 0.97
v 0.475 0.845 0.2425
v 0.525 0.13 0.2425
v 0.525 0.13 0.97
v 0.525 0.845 0.97
v 0.525 0.845 0.2425
vt 0.128418 0.025889
vt 0.229248 0.025889
vt 0.228564 0.026855
vt 0.129102 0.026855
vt 0.624023 0.030762
vt 0.524902 0.030762
vt 0.525586 0.029795
vt 0.62334 0.029795
vt 0.416748 0.030762
vt 0.315918 0.030762
vt 0.316602 0.029795
vt 0.416064 0.029795
vt 0.337402 0.025889
vt 0.436523 0.025889
vt 0.43584 0.026855
vt 0.338086 0.026855
vt 0.026855 0.137598
vt 0.127686 0.137598
vt 0.127686 0.143066
vt 0.026855 0.143066
vt 0.23584 0.137598
vt 0.334961 0.137598
vt 0.334961 0.143066
vt 0.23584 0.143066
vt 0.232178 0.143066
vt 0.131348 0.143066
vt 0.131348 0.137598
vt 0.232178 0.137598
vt 0.4375 0.143066
vt 0.338379 0.143066
vt 0.338379 0.137598
vt 0.4375 0.137598
vt 0.233594 0.025889
vt 0.333057 0.025889
vt 0.33374 0.026855
vt 0.23291 0.026855
vt 0.628125 0.029795
vt 0.725879 0.029795
vt 0.726563 0.030762
vt 0.627441 0.030762
vt 0.520557 0.030762
vt 0.421094 0.030762
vt 0.42041 0.029795
vt 0.52124 0.029795
vt 0.538379 0.026855
vt 0.440625 0.026855
vt 0.439941 0.025889
vt 0.539063 0.025889
vt 0.850098 0.51123
vt 0.850098 0.413477
vt 0.949561 0.413477
vt 0.949561 0.413477
vt 0.949561 0.51123
vt 0.850098 0.51123
vt 0.101904 0.403809
vt 0.002441 0.403809
vt 0.002441 0.306055
vt 0.002441 0.306055
vt 0.101904 0.306055
vt 0.101904 0.403809
vn -0.707107 -0.707107 0
vn -0.707107 0 0.707107
vn -0.707107 0.707107 0
vn -0.707107 0 -0.707107
vn 0 -1 0
vn 0 0 1
vn 0 1 0
vn 0 0 -1
vn 0.707107 -0.707107 0
vn 0.707107 0 0.707107
vn 0.707107 0.707107 0
vn 0.707107 0 -0.707107
vn -1 0 0
vn 1 0 0
f 165/341/61 166/342/61 162/343/61 161/344/61
f 166/345/62 167/346/62 163/347/62 162/348/62
f 167/349/63 168/350/63 164/351/63 163/352/63
f 168/353/64 165/354/64 161/355/64 164/356/64
f 169/357/65 170/358/65 166/359/65 165/360/65
f 170/361/66 171/362/66 167/363/66 166/364/66
f 171/365/67 172/366/67 168/367/67 167/368/67
f 172/369/68 169/370/68 165/371/68 168/372/68
f 173/373/69 174/374/69 170/375/69 169/376/69
f 174/377/70 175/378/70 171/379/70 170/380/70
f 175/381/71 176/382/71 172/383/71 171/384/71
f 176/385/72 173/386/72 169/387/72 172/388/72
f 180/389/73 177/390/73 178/391/73
f 178/392/73 179/393/73 180/394/73
f 182/395/74 181/396/74 184/397/74
f 184/398/74 183/399/74 182/400/74
o counter_shelf
usemtl counter
v 0.05375 0.4375 0.24125
v 0.05375 0.4375 0.95875
v 0.47125 0.4375 0.95875
v 0.47125 0.4375 0.24125
v 0.05 0.44125 0.2375
v 0.05 0.44125 0.9625
v 0.475 0.44125 0.9625
v 0.475 0.44125 0.2375
v 0.05 0.45875 0.2375
v 0.05 0.45875 0.9625
v 0.475 0.45875 0.9625
v 0.475 0.45875 0.2375
v 0.05375 0.4625 0.24125
v 0.05375 0.4625 0.95875
v 0.47125 0.4625 0.95875
v 0.47125 0.4625 0.24125
v 0.05375 0.4375 0.24125
v 0.05375 0.4375 0.95875
v 0.47125 0.4375 0.95875
v 0.47125 0.4375 0.24125
v 0.05375 0.4625 0.24125
v 0.05375 0.4625 0.95875
v 0.47125 0.4625 0.95875
v 0.47125 0.4625 0.24125
v 0.52875 0.4375 0.24125
v 0.52875 0.4375 0.95875
v 0.94625 0.4375 0.95875
v 0.94625 0.4375 0.24125
v 0.525 0.44125 0.2375
v 0.525 0.44125 0.9625
v 0.95 0.44125 0.9625
v 0.95 0.44125 0.2375
v 0.525 0.45875 0.2375
v 0.525 0.45875 0.9625
v 0.95 0.45875 0.9625
v 0.95 0.45875 0.2375
v 0.52875 0.4625 0.24125
v 0.52875 0.4625 0.95875
v 0.94625 0.4625 0.95875
v 0.94625 0.4625 0.24125
v 0.52875 0.4375 0.24125
v 0.52875 0.4375 0.95875
v 0.94625 0.4375 0.95875
v 0.94625 0.4375 0.24125
v 0.52875 0.4625 0.24125
v 0.52875 0.4625 0.95875
v 0.94625 0.4625 0.95875
v 0.94625 0.4625 0.24125
vt 0.532251 0.010505
vt 0.630347 0.010505
vt 0.630859 0.01123
vt 0.531738 0.01123
vt 0.870142 0.014412
vt 0.927222 0.014412
vt 0.927734 0.015137
vt 0.869629 0.015137
vt 0.353003 0.015137
vt 0.254907 0.015137
vt 0.254395 0.014412
vt 0.353516 0.014412
vt 0.988745 0.015137
vt 0.931665 0.015137
vt 0.931152 0.014412
vt 0.989258 0.014412
vt 0.002441 0.086963
vt 0.101563 0.086963
vt 0.101563 0.089355
vt 0.002441 0.089355
vt 0.412598 0.086963
vt 0.470703 0.086963
vt 0.470703 0.089355
vt 0.412598 0.089355
vt 0.204102 0.089355
vt 0.10498 0.089355
vt 0.10498 0.086963
vt 0.204102 0.086963
vt 0.474121 0.086963
vt 0.532227 0.086963
vt 0.532227 0.089355
vt 0.474121 0.089355
vt 0.356934 0.014412
vt 0.456055 0.014412
vt 0.455542 0.015137
vt 0.357446 0.015137
vt 0.306641 0.01123
vt 0.248535 0.01123
vt 0.249048 0.010505
vt 0.306128 0.010505
vt 0.558594 0.015137
vt 0.459473 0.015137
vt 0.459985 0.014412
vt 0.558081 0.014412
vt 0.002441 0.010505
vt 0.060547 0.010505
vt 0.060034 0.01123
vt 0.002954 0.01123
vt 0.482373 0.403809
vt 0.384277 0.403809
vt 0.384277 0.346729
vt 0.384277 0.346729
vt 0.482373 0.346729
vt 0.482373 0.403809
vt 0.48584 0.403809
vt 0.48584 0.346729
vt 0.583936 0.346729
vt 0.583936 0.346729
vt 0.583936 0.403809
vt 0.48584 0.403809
vt 0.562524 0.014412
vt 0.66062 0.014412
vt 0.661133 0.015137
vt 0.562012 0.015137
vt 0.064478 0.010505
vt 0.121558 0.010505
vt 0.12207 0.01123
vt 0.063965 0.01123
vt 0.732886 0.01123
vt 0.63479 0.01123
vt 0.634277 0.010505
vt 0.733398 0.010505
vt 0.183081 0.01123
vt 0.126001 0.01123
vt 0.125488 0.010505
vt 0.183594 0.010505
vt 0.20752 0.086963
vt 0.306641 0.086963
vt 0.306641 0.089355
vt 0.20752 0.089355
vt 0.535645 0.086963
vt 0.59375 0.086963
vt 0.59375 0.089355
vt 0.535645 0.089355
vt 0.40918 0.089355
vt 0.310059 0.089355
vt 0.310059 0.086963
vt 0.40918 0.086963
vt 0.597168 0.086963
vt 0.655273 0.086963
vt 0.655273 0.089355
vt 0.597168 0.089355
vt 0.664551 0.014412
vt 0.763672 0.014412
vt 0.763159 0.015137
vt 0.665063 0.015137
vt 0.245117 0.01123
vt 0.187012 0.01123
vt 0.187524 0.010505
vt 0.244604 0.010505
vt 0.866211 0.015137
vt 0.76709 0.015137
vt 0.767603 0.014412
vt 0.865698 0.014412
vt 0.310059 0.010505
vt 0.368164 0.010505
vt 0.367651 0.01123
vt 0.310571 0.01123
vt 0.685498 0.403809
vt 0.587402 0.403809
vt 0.587402 0.346729
vt 0.587402 0.346729
vt 0.685498 0.346729
vt 0.685498 0.403809
vt 0.688965 0.403809
vt 0.688965 0.346729
vt 0.787061 0.346729
vt 0.787061 0.346729
vt 0.787061 0.403809
vt 0.688965 0.403809
vn -0.707107 -0.707107 0
vn 0 -0.707107 0.707107
vn 0.707107 -0.707107 0
vn 0 -0.707107 -0.707107
vn -1 0 0
vn 0 0 1
vn 1 0 0
vn 0 0 -1
vn -0.707107 0.707107 0
vn 0 0.707107 0.707107
vn 0.707107 0.707107 0
vn 0 0.707107 -0.707107
vn 0 -1 0
vn 0 1 0
f 185/401/75 186/402/75 190/403/75 189/404/75
f 186/405/76 187/406/76 191/407/76 190/408/76
f 187/409/77 188/410/77 192/411/77 191/412/77
f 188/413/78 185/414/78 189/415/78 192/416/78
f 189/417/79 190/418/79 194/419/79 193/420/79
f 190/421/80 191/422/80 195/423/80 194/424/80
f 191/425/81 192/426/81 196/427/81 195/428/81
f 192/429/82 189/430/82 193/431/82 196/432/82
f 193/433/83 194/434/83 198/435/83 197/436/83
f 194/437/84 195/438/84 199/439/84 198/440/84
f 195/441/85 196/442/85 200/443/85 199/444/85
f 196/445/86 193/446/86 197/447/86 200/448/86
f 202/449/87 201/450/87 204/451/87
f 204/452/87 203/453/87 202/454/87
f 208/455/88 205/456/88 206/457/88
f 206/458/88 207/459/88 208/460/88
f 209/461/75 210/462/75 214/463/75 213/464/75
f 210/465/76 211/466/76 215/467/76 214/468/76
f 211/469/77 212/470/77 216/471/77 215/472/77
f 212/473/78 209/474/78 213/475/78 216/476/78
f 213/477/79 214/478/79 218/479/79 217/480/79
f 214/481/80 215/482/80 219/483/80 218/484/80
f 215/485/81 216/486/81 220/487/81 219/488/81
f 216/489/82 213/490/82 217/491/82 220/492/82
f 217/493/83 218/494/83 222/495/83 221/496/83
f 218/497/84 219/498/84 223/499/84 222/500/84
f 219/501/85 220/502/85 224/503/85 223/504/85
f 220/505/86 217/506/86 221/507/86 224/508/86
f 226/509/87 225/510/87 228/511/87
f 228/512/87 227/513/87 226/514/87
f 232/515/88 229/516/88 230/517/88
f 230/518/88 231/519/88 232/520/88
o counter_rail
usemtl counter
v 0.055 0.855 0.9375
v 0.945 0.855 0.9375
v 0.945 0.9325 0.9375
v 0.055 0.9325 0.9375
v 0.05 0.85 0.9425
v 0.95 0.85 0.9425
v 0.95 0.9375 0.9425
v 0.05 0.9375 0.9425
v 0.05 0.85 0.97
v 0.95 0.85 0.97
v 0.95 0.9375 0.97
v 0.05 0.9375 0.97
v 0.055 0.855 0.975
v 0.945 0.855 0.975
v 0.945 0.9325 0.975
v 0.055 0.9325 0.975
v 0.055 0.855 0.9375
v 0.945 0.855 0.9375
v 0.945 0.9325 0.9375
v 0.055 0.9325 0.9375
v 0.055 0.855 0.975
v 0.945 0.855 0.975
v 0.945 0.9325 0.975
v 0.055 0.9325 0.975
vt 0.558789 0.025889
vt 0.680469 0.025889
vt 0.681152 0.026855
vt 0.558105 0.026855
vt 0.730664 0.029795
vt 0.74126 0.029795
vt 0.741943 0.030762
vt 0.72998 0.030762
vt 0.505078 0.034678
vt 0.626758 0.034678
vt 0.627441 0.035645
vt 0.504395 0.035645
vt 0.746289 0.029795
vt 0.756885 0.029795
vt 0.757568 0.030762
vt 0.745605 0.030762
vt 0.438965 0.112939
vt 0.562012 0.112939
vt 0.562012 0.116699
vt 0.438965 0.116699
vt 0.690918 0.112939
vt 0.702881 0.112939
vt 0.702881 0.116699
vt 0.690918 0.116699
vt 0.564941 0.112939
vt 0.687988 0.112939
vt 0.687988 0.116699
vt 0.564941 0.116699
vt 0.706543 0.112939
vt 0.718506 0.112939
vt 0.718506 0.116699
vt 0.706543 0.116699
vt 0.630371 0.034678
vt 0.753418 0.034678
vt 0.752734 0.035645
vt 0.631055 0.035645
vt 0.76123 0.029795
vt 0.773193 0.029795
vt 0.77251 0.030762
vt 0.761914 0.030762
vt 0.756348 0.034678
vt 0.879395 0.034678
vt 0.878711 0.035645
vt 0.757031 0.035645
vt 0.776855 0.029795
vt 0.788818 0.029795
vt 0.788135 0.030762
vt 0.777539 0.030762
vt 0.475098 0.255518
vt 0.596777 0.255518
vt 0.596777 0.266113
vt 0.596777 0.266113
vt 0.475098 0.266113
vt 0.475098 0.255518
vt 0.600098 0.266113
vt 0.600098 0.255518
vt 0.721777 0.255518
vt 0.721777 0.255518
vt 0.721777 0.266113
vt 0.600098 0.266113
vn 0 -0.707107 -0.707107
vn 0.707107 0 -0.707107
vn 0 0.707107 -0.707107
vn -0.707107 0 -0.707107
vn 0 -1 0
vn 1 0 0
vn 0 1 0
vn -1 0 0
vn 0 -0.707107 0.707107
vn 0.707107 0 0.707107
vn 0 0.707107 0.707107
vn -0.707107 0 0.707107
vn 0 0 -1
vn 0 0 1
f 233/521/89 234/522/89 238/523/89 237/524/89
f 234/525/90 235/526/90 239/527/90 238/528/90
f 235/529/91 236/530/91 240/531/91 239/532/91
f 236/533/92 233/534/92 237/535/92 240/536/92
f 237/537/93 238/538/93 242/539/93 241/540/93
f 238/541/94 239/542/94 243/543/94 242/544/94
f 239/545/95 240/546/95 244/547/95 243/548/95
f 240/549/96 237/550/96 241/551/96 244/552/96
f 241/553/97 242/554/97 246/555/97 245/556/97
f 242/557/98 243/558/98 247/559/98 246/560/98
f 243/561/99 244/562/99 248/563/99 247/564/99
f 244/565/100 241/566/100 245/567/100 248/568/100
f 250/569/101 249/570/101 252/571/101
f 252/572/101 251/573/101 250/574/101
f 256/575/102 253/576/102 254/577/102
f 254/578/102 255/579/102 256/580/102
