# AFL Curbs V1 hit_base, generated by tools/build-curbs-v1.mjs
mtllib hit_base.mtl
o hit_base
usemtl curb
vn 0 1 0
v 0 1 1
vt 0 0
v 1 1 1
vt 1 0
v 1 1 0
vt 1 1
v 0 1 0
vt 0 1
f 1/1/1 2/2/1 3/3/1 4/4/1
vn 0 -1 0
v 0 0 0
vt 0 1
v 1 0 0
vt 1 1
v 1 0 1
vt 1 0
v 0 0 1
vt 0 0
f 5/5/2 6/6/2 7/7/2 8/8/2
vn 0 0 -1
v 0 1 0
vt 0 0.35
v 1 1 0
vt 1 0.35
v 1 0 0
vt 1 -0.65
v 0 0 0
vt 0 -0.65
f 9/9/3 10/10/3 11/11/3 12/12/3
vn 0 0 1
v 0 0 1
vt 0 -0.65
v 1 0 1
vt 1 -0.65
v 1 1 1
vt 1 0.35
v 0 1 1
vt 0 0.35
f 13/13/4 14/14/4 15/15/4 16/16/4
vn -1 0 0
v 0 0 0
vt 0 -0.65
v 0 0 1
vt 1 -0.65
v 0 1 1
vt 1 0.35
v 0 1 0
vt 0 0.35
f 17/17/5 18/18/5 19/19/5 20/20/5
vn 1 0 0
v 1 1 0
vt 0 0.35
v 1 1 1
vt 1 0.35
v 1 0 1
vt 1 -0.65
v 1 0 0
vt 0 -0.65
f 21/21/6 22/22/6 23/23/6 24/24/6
