# AFL Curbs V1 outer, generated by tools/build-curbs-v1.mjs
mtllib outer.mtl
o outer
usemtl curb
vn 0.098017 0 -0.995185
v 0.85 1.138 0.001
vt 0.85 0.488
v 0.879068 1.138 0.003863
vt 0.879068 0.488
v 0.879068 1 0.003863
vt 0.879068 0.35
v 0.85 1 0.001
vt 0.85 0.35
f 1/1/1 2/2/1 3/3/1 4/4/1
vn 0.069476 0.705398 -0.705398
v 0.85 1.15 0.013
vt 0.85 0.987
v 0.876727 1.15 0.015632
vt 0.876727 0.984368
v 0.879068 1.138 0.003863
vt 0.879068 0.996137
v 0.85 1.138 0.001
vt 0.85 0.999
f 5/5/2 6/6/2 7/7/2 8/8/2
vn 0 1 0
v 0.876727 1.15 0.015632
vt 0.876727 0.984368
v 0.85 1.15 0.013
vt 0.85 0.987
v 0.85 1.15 0.15
vt 0.85 0.85
f 9/9/3 10/10/3 11/11/3
vn 0.290285 0 -0.95694
v 0.879068 1.138 0.003863
vt 0.879068 0.488
v 0.90702 1.138 0.012342
vt 0.90702 0.488
v 0.90702 1 0.012342
vt 0.90702 0.35
v 0.879068 1 0.003863
vt 0.879068 0.35
f 12/12/4 13/13/4 14/14/4 15/15/4
vn 0.205757 0.705398 -0.67829
v 0.876727 1.15 0.015632
vt 0.876727 0.984368
v 0.902428 1.15 0.023429
vt 0.902428 0.976571
v 0.90702 1.138 0.012342
vt 0.90702 0.987658
v 0.879068 1.138 0.003863
vt 0.879068 0.996137
f 16/16/5 17/17/5 18/18/5 19/19/5
vn 0 1 0
v 0.902428 1.15 0.023429
vt 0.902428 0.976571
v 0.876727 1.15 0.015632
vt 0.876727 0.984368
v 0.85 1.15 0.15
vt 0.85 0.85
f 20/20/6 21/21/6 22/22/6
vn 0.471397 0 -0.881921
v 0.90702 1.138 0.012342
vt 0.90702 0.488
v 0.93278 1.138 0.026111
vt 0.93278 0.488
v 0.93278 1 0.026111
vt 0.93278 0.35
v 0.90702 1 0.012342
vt 0.90702 0.35
f 23/23/7 24/24/7 25/25/7 26/26/7
vn 0.334131 0.705398 -0.625116
v 0.902428 1.15 0.023429
vt 0.902428 0.976571
v 0.926113 1.15 0.036089
vt 0.926113 0.963911
v 0.93278 1.138 0.026111
vt 0.93278 0.973889
v 0.90702 1.138 0.012342
vt 0.90702 0.987658
f 27/27/8 28/28/8 29/29/8 30/30/8
vn 0 1 0
v 0.926113 1.15 0.036089
vt 0.926113 0.963911
v 0.902428 1.15 0.023429
vt 0.902428 0.976571
v 0.85 1.15 0.15
vt 0.85 0.85
f 31/31/9 32/32/9 33/33/9
vn 0.634393 0 -0.77301
v 0.93278 1.138 0.026111
vt 0.93278 0.488
v 0.955359 1.138 0.044641
vt 0.955359 0.488
v 0.955359 1 0.044641
vt 0.955359 0.35
v 0.93278 1 0.026111
vt 0.93278 0.35
f 34/34/10 35/35/10 36/36/10 37/37/10
vn 0.449665 0.705398 -0.547919
v 0.926113 1.15 0.036089
vt 0.926113 0.963911
v 0.946874 1.15 0.053126
vt 0.946874 0.946874
v 0.955359 1.138 0.044641
vt 0.955359 0.955359
v 0.93278 1.138 0.026111
vt 0.93278 0.973889
f 38/38/11 39/39/11 40/40/11 41/41/11
vn 0 1 0
v 0.946874 1.15 0.053126
vt 0.946874 0.946874
v 0.926113 1.15 0.036089
vt 0.926113 0.963911
v 0.85 1.15 0.15
vt 0.85 0.85
f 42/42/12 43/43/12 44/44/12
vn 0.77301 0 -0.634393
v 0.955359 1.138 0.044641
vt 0.044641 0.488
v 0.973889 1.138 0.06722
vt 0.06722 0.488
v 0.973889 1 0.06722
vt 0.06722 0.35
v 0.955359 1 0.044641
vt 0.044641 0.35
f 45/45/13 46/46/13 47/47/13 48/48/13
vn 0.547919 0.705398 -0.449665
v 0.946874 1.15 0.053126
vt 0.946874 0.946874
v 0.963911 1.15 0.073887
vt 0.963911 0.926113
v 0.973889 1.138 0.06722
vt 0.973889 0.93278
v 0.955359 1.138 0.044641
vt 0.955359 0.955359
f 49/49/14 50/50/14 51/51/14 52/52/14
vn 0 1 0
v 0.963911 1.15 0.073887
vt 0.963911 0.926113
v 0.946874 1.15 0.053126
vt 0.946874 0.946874
v 0.85 1.15 0.15
vt 0.85 0.85
f 53/53/15 54/54/15 55/55/15
vn 0.881921 0 -0.471397
v 0.973889 1.138 0.06722
vt 0.06722 0.488
v 0.987658 1.138 0.09298
vt 0.09298 0.488
v 0.987658 1 0.09298
vt 0.09298 0.35
v 0.973889 1 0.06722
vt 0.06722 0.35
f 56/56/16 57/57/16 58/58/16 59/59/16
vn 0.625116 0.705398 -0.334131
v 0.963911 1.15 0.073887
vt 0.963911 0.926113
v 0.976571 1.15 0.097572
vt 0.976571 0.902428
v 0.987658 1.138 0.09298
vt 0.987658 0.90702
v 0.973889 1.138 0.06722
vt 0.973889 0.93278
f 60/60/17 61/61/17 62/62/17 63/63/17
vn 0 1 0
v 0.976571 1.15 0.097572
vt 0.976571 0.902428
v 0.963911 1.15 0.073887
vt 0.963911 0.926113
v 0.85 1.15 0.15
vt 0.85 0.85
f 64/64/18 65/65/18 66/66/18
vn 0.95694 0 -0.290285
v 0.987658 1.138 0.09298
vt 0.09298 0.488
v 0.996137 1.138 0.120932
vt 0.120932 0.488
v 0.996137 1 0.120932
vt 0.120932 0.35
v 0.987658 1 0.09298
vt 0.09298 0.35
f 67/67/19 68/68/19 69/69/19 70/70/19
vn 0.67829 0.705398 -0.205757
v 0.976571 1.15 0.097572
vt 0.976571 0.902428
v 0.984368 1.15 0.123273
vt 0.984368 0.876727
v 0.996137 1.138 0.120932
vt 0.996137 0.879068
v 0.987658 1.138 0.09298
vt 0.987658 0.90702
f 71/71/20 72/72/20 73/73/20 74/74/20
vn 0 1 0
v 0.984368 1.15 0.123273
vt 0.984368 0.876727
v 0.976571 1.15 0.097572
vt 0.976571 0.902428
v 0.85 1.15 0.15
vt 0.85 0.85
f 75/75/21 76/76/21 77/77/21
vn 0.995185 0 -0.098017
v 0.996137 1.138 0.120932
vt 0.120932 0.488
v 0.999 1.138 0.15
vt 0.15 0.488
v 0.999 1 0.15
vt 0.15 0.35
v 0.996137 1 0.120932
vt 0.120932 0.35
f 78/78/22 79/79/22 80/80/22 81/81/22
vn 0.705398 0.705398 -0.069476
v 0.984368 1.15 0.123273
vt 0.984368 0.876727
v 0.987 1.15 0.15
vt 0.987 0.85
v 0.999 1.138 0.15
vt 0.999 0.85
v 0.996137 1.138 0.120932
vt 0.996137 0.879068
f 82/82/23 83/83/23 84/84/23 85/85/23
vn 0 1 0
v 0.987 1.15 0.15
vt 0.987 0.85
v 0.984368 1.15 0.123273
vt 0.984368 0.876727
v 0.85 1.15 0.15
vt 0.85 0.85
f 86/86/24 87/87/24 88/88/24
