# AFL Curbs V1 post, generated by tools/build-curbs-v1.mjs
mtllib post.mtl
o post
usemtl curb
vn 0 1 0
v 0.85 1.15 0.15
vt 0.85 0.85
v 1 1.15 0.15
vt 1 0.85
v 1 1.15 0
vt 1 1
v 0.85 1.15 0
vt 0.85 1
f 1/1/1 2/2/1 3/3/1 4/4/1
vn -1 0 0
v 0.85 1 0
vt 0 0.35
v 0.85 1 0.15
vt 0.15 0.35
v 0.85 1.15 0.15
vt 0.15 0.5
v 0.85 1.15 0
vt 0 0.5
f 5/5/2 6/6/2 7/7/2 8/8/2
vn 0 0 1
v 0.85 1 0.15
vt 0.85 0.35
v 1 1 0.15
vt 1 0.35
v 1 1.15 0.15
vt 1 0.5
v 0.85 1.15 0.15
vt 0.85 0.5
f 9/9/3 10/10/3 11/11/3 12/12/3
