# AFL Curbs V1 square_ccw, generated by tools/build-curbs-v1.mjs
mtllib square_ccw.mtl
o square_ccw
usemtl curb
vn 0 0 -1
v 0 1.138 0.001
vt 0 0.488
v 0.15 1.138 0.001
vt 0.15 0.488
v 0.15 1 0.001
vt 0.15 0.35
v 0 1 0.001
vt 0 0.35
f 1/1/1 2/2/1 3/3/1 4/4/1
vn 0 0.707107 -0.707107
v 0 1.15 0.013
vt 0 0.987
v 0.15 1.15 0.013
vt 0.15 0.987
v 0.15 1.138 0.001
vt 0.15 0.999
v 0 1.138 0.001
vt 0 0.999
f 5/5/2 6/6/2 7/7/2 8/8/2
vn 0 1 0
v 0 1.15 0.15
vt 0 0.85
v 0.15 1.15 0.15
vt 0.15 0.85
v 0.15 1.15 0.013
vt 0.15 0.987
v 0 1.15 0.013
vt 0 0.987
f 9/9/3 10/10/3 11/11/3 12/12/3
vn 0 0 1
v 0 1 0.15
vt 0 0.35
v 0.15 1 0.15
vt 0.15 0.35
v 0.15 1.15 0.15
vt 0.15 0.5
v 0 1.15 0.15
vt 0 0.5
f 13/13/4 14/14/4 15/15/4 16/16/4
