# AFL Curbs V1 strip_zero_ccw, generated by tools/build-curbs-v1.mjs
mtllib strip_zero_ccw.mtl
o strip_zero_ccw
usemtl curb
vn 0 0 -1
v 0.083333 1.0005 0.001
vt 0.083333 0.3505
v 0.083333 1 0.001
vt 0.083333 0.35
v 0 1 0.001
vt 0 0.35
f 1/1/1 2/2/1 3/3/1
vn -0.004243 0.7071 -0.7071
v 0.083333 1.0125 0.013
vt 0.083333 0.987
v 0.083333 1.0005 0.001
vt 0.083333 0.999
v 0 1 0.001
vt 0 0.999
f 4/4/2 5/5/2 6/6/2
vn -0.14834 0.988936 0
v 0 1 0.15
vt 0 0.85
v 0.083333 1.0125 0.15
vt 0.083333 0.85
v 0.083333 1.0125 0.013
vt 0.083333 0.987
v 0 1 0.001
vt 0 0.999
f 7/7/3 8/8/3 9/9/3 10/10/3
vn 0 0 1
v 0.083333 1 0.15
vt 0.083333 0.35
v 0.083333 1.0125 0.15
vt 0.083333 0.3625
v 0 1 0.15
vt 0 0.35
f 11/11/4 12/12/4 13/13/4
vn 0 0 -1
v 0.083333 1.0005 0.001
vt 0.083333 0.3505
v 0.166667 1.013 0.001
vt 0.166667 0.363
v 0.166667 1 0.001
vt 0.166667 0.35
v 0.083333 1 0.001
vt 0.083333 0.35
f 14/14/5 15/15/5 16/16/5 17/17/5
vn -0.105474 0.703163 -0.703163
v 0.083333 1.0125 0.013
vt 0.083333 0.987
v 0.166667 1.025 0.013
vt 0.166667 0.987
v 0.166667 1.013 0.001
vt 0.166667 0.999
v 0.083333 1.0005 0.001
vt 0.083333 0.999
f 18/18/6 19/19/6 20/20/6 21/21/6
vn -0.14834 0.988936 0
v 0.083333 1.0125 0.15
vt 0.083333 0.85
v 0.166667 1.025 0.15
vt 0.166667 0.85
v 0.166667 1.025 0.013
vt 0.166667 0.987
v 0.083333 1.0125 0.013
vt 0.083333 0.987
f 22/22/7 23/23/7 24/24/7 25/25/7
vn 0 0 1
v 0.083333 1 0.15
vt 0.083333 0.35
v 0.166667 1 0.15
vt 0.166667 0.35
v 0.166667 1.025 0.15
vt 0.166667 0.375
v 0.083333 1.0125 0.15
vt 0.083333 0.3625
f 26/26/8 27/27/8 28/28/8 29/29/8
vn 0 0 -1
v 0.166667 1.013 0.001
vt 0.166667 0.363
v 0.25 1.0255 0.001
vt 0.25 0.3755
v 0.25 1 0.001
vt 0.25 0.35
v 0.166667 1 0.001
vt 0.166667 0.35
f 30/30/9 31/31/9 32/32/9 33/33/9
vn -0.105474 0.703163 -0.703163
v 0.166667 1.025 0.013
vt 0.166667 0.987
v 0.25 1.0375 0.013
vt 0.25 0.987
v 0.25 1.0255 0.001
vt 0.25 0.999
v 0.166667 1.013 0.001
vt 0.166667 0.999
f 34/34/10 35/35/10 36/36/10 37/37/10
vn -0.14834 0.988936 0
v 0.166667 1.025 0.15
vt 0.166667 0.85
v 0.25 1.0375 0.15
vt 0.25 0.85
v 0.25 1.0375 0.013
vt 0.25 0.987
v 0.166667 1.025 0.013
vt 0.166667 0.987
f 38/38/11 39/39/11 40/40/11 41/41/11
vn 0 0 1
v 0.166667 1 0.15
vt 0.166667 0.35
v 0.25 1 0.15
vt 0.25 0.35
v 0.25 1.0375 0.15
vt 0.25 0.3875
v 0.166667 1.025 0.15
vt 0.166667 0.375
f 42/42/12 43/43/12 44/44/12 45/45/12
vn 0 0 -1
v 0.25 1.0255 0.001
vt 0.25 0.3755
v 0.333333 1.038 0.001
vt 0.333333 0.388
v 0.333333 1 0.001
vt 0.333333 0.35
v 0.25 1 0.001
vt 0.25 0.35
f 46/46/13 47/47/13 48/48/13 49/49/13
vn -0.105474 0.703163 -0.703163
v 0.25 1.0375 0.013
vt 0.25 0.987
v 0.333333 1.05 0.013
vt 0.333333 0.987
v 0.333333 1.038 0.001
vt 0.333333 0.999
v 0.25 1.0255 0.001
vt 0.25 0.999
f 50/50/14 51/51/14 52/52/14 53/53/14
vn -0.14834 0.988936 0
v 0.25 1.0375 0.15
vt 0.25 0.85
v 0.333333 1.05 0.15
vt 0.333333 0.85
v 0.333333 1.05 0.013
vt 0.333333 0.987
v 0.25 1.0375 0.013
vt 0.25 0.987
f 54/54/15 55/55/15 56/56/15 57/57/15
vn 0 0 1
v 0.25 1 0.15
vt 0.25 0.35
v 0.333333 1 0.15
vt 0.333333 0.35
v 0.333333 1.05 0.15
vt 0.333333 0.4
v 0.25 1.0375 0.15
vt 0.25 0.3875
f 58/58/16 59/59/16 60/60/16 61/61/16
vn 0 0 -1
v 0.333333 1.038 0.001
vt 0.333333 0.388
v 0.416667 1.0505 0.001
vt 0.416667 0.4005
v 0.416667 1 0.001
vt 0.416667 0.35
v 0.333333 1 0.001
vt 0.333333 0.35
f 62/62/17 63/63/17 64/64/17 65/65/17
vn -0.105474 0.703163 -0.703163
v 0.333333 1.05 0.013
vt 0.333333 0.987
v 0.416667 1.0625 0.013
vt 0.416667 0.987
v 0.416667 1.0505 0.001
vt 0.416667 0.999
v 0.333333 1.038 0.001
vt 0.333333 0.999
f 66/66/18 67/67/18 68/68/18 69/69/18
vn -0.14834 0.988936 0
v 0.333333 1.05 0.15
vt 0.333333 0.85
v 0.416667 1.0625 0.15
vt 0.416667 0.85
v 0.416667 1.0625 0.013
vt 0.416667 0.987
v 0.333333 1.05 0.013
vt 0.333333 0.987
f 70/70/19 71/71/19 72/72/19 73/73/19
vn 0 0 1
v 0.333333 1 0.15
vt 0.333333 0.35
v 0.416667 1 0.15
vt 0.416667 0.35
v 0.416667 1.0625 0.15
vt 0.416667 0.4125
v 0.333333 1.05 0.15
vt 0.333333 0.4
f 74/74/20 75/75/20 76/76/20 77/77/20
vn 0 0 -1
v 0.416667 1.0505 0.001
vt 0.416667 0.4005
v 0.5 1.063 0.001
vt 0.5 0.413
v 0.5 1 0.001
vt 0.5 0.35
v 0.416667 1 0.001
vt 0.416667 0.35
f 78/78/21 79/79/21 80/80/21 81/81/21
vn -0.105474 0.703163 -0.703163
v 0.416667 1.0625 0.013
vt 0.416667 0.987
v 0.5 1.075 0.013
vt 0.5 0.987
v 0.5 1.063 0.001
vt 0.5 0.999
v 0.416667 1.0505 0.001
vt 0.416667 0.999
f 82/82/22 83/83/22 84/84/22 85/85/22
vn -0.14834 0.988936 0
v 0.416667 1.0625 0.15
vt 0.416667 0.85
v 0.5 1.075 0.15
vt 0.5 0.85
v 0.5 1.075 0.013
vt 0.5 0.987
v 0.416667 1.0625 0.013
vt 0.416667 0.987
f 86/86/23 87/87/23 88/88/23 89/89/23
vn 0 0 1
v 0.416667 1 0.15
vt 0.416667 0.35
v 0.5 1 0.15
vt 0.5 0.35
v 0.5 1.075 0.15
vt 0.5 0.425
v 0.416667 1.0625 0.15
vt 0.416667 0.4125
f 90/90/24 91/91/24 92/92/24 93/93/24
vn 0 0 -1
v 0.5 1.063 0.001
vt 0.5 0.413
v 0.583333 1.0755 0.001
vt 0.583333 0.4255
v 0.583333 1 0.001
vt 0.583333 0.35
v 0.5 1 0.001
vt 0.5 0.35
f 94/94/25 95/95/25 96/96/25 97/97/25
vn -0.105474 0.703163 -0.703163
v 0.5 1.075 0.013
vt 0.5 0.987
v 0.583333 1.0875 0.013
vt 0.583333 0.987
v 0.583333 1.0755 0.001
vt 0.583333 0.999
v 0.5 1.063 0.001
vt 0.5 0.999
f 98/98/26 99/99/26 100/100/26 101/101/26
vn -0.14834 0.988936 0
v 0.5 1.075 0.15
vt 0.5 0.85
v 0.583333 1.0875 0.15
vt 0.583333 0.85
v 0.583333 1.0875 0.013
vt 0.583333 0.987
v 0.5 1.075 0.013
vt 0.5 0.987
f 102/102/27 103/103/27 104/104/27 105/105/27
vn 0 0 1
v 0.5 1 0.15
vt 0.5 0.35
v 0.583333 1 0.15
vt 0.583333 0.35
v 0.583333 1.0875 0.15
vt 0.583333 0.4375
v 0.5 1.075 0.15
vt 0.5 0.425
f 106/106/28 107/107/28 108/108/28 109/109/28
vn 0 0 -1
v 0.583333 1.0755 0.001
vt 0.583333 0.4255
v 0.666667 1.088 0.001
vt 0.666667 0.438
v 0.666667 1 0.001
vt 0.666667 0.35
v 0.583333 1 0.001
vt 0.583333 0.35
f 110/110/29 111/111/29 112/112/29 113/113/29
vn -0.105474 0.703163 -0.703163
v 0.583333 1.0875 0.013
vt 0.583333 0.987
v 0.666667 1.1 0.013
vt 0.666667 0.987
v 0.666667 1.088 0.001
vt 0.666667 0.999
v 0.583333 1.0755 0.001
vt 0.583333 0.999
f 114/114/30 115/115/30 116/116/30 117/117/30
vn -0.14834 0.988936 0
v 0.583333 1.0875 0.15
vt 0.583333 0.85
v 0.666667 1.1 0.15
vt 0.666667 0.85
v 0.666667 1.1 0.013
vt 0.666667 0.987
v 0.583333 1.0875 0.013
vt 0.583333 0.987
f 118/118/31 119/119/31 120/120/31 121/121/31
vn 0 0 1
v 0.583333 1 0.15
vt 0.583333 0.35
v 0.666667 1 0.15
vt 0.666667 0.35
v 0.666667 1.1 0.15
vt 0.666667 0.45
v 0.583333 1.0875 0.15
vt 0.583333 0.4375
f 122/122/32 123/123/32 124/124/32 125/125/32
vn 0 0 -1
v 0.666667 1.088 0.001
vt 0.666667 0.438
v 0.75 1.1005 0.001
vt 0.75 0.4505
v 0.75 1 0.001
vt 0.75 0.35
v 0.666667 1 0.001
vt 0.666667 0.35
f 126/126/33 127/127/33 128/128/33 129/129/33
vn -0.105474 0.703163 -0.703163
v 0.666667 1.1 0.013
vt 0.666667 0.987
v 0.75 1.1125 0.013
vt 0.75 0.987
v 0.75 1.1005 0.001
vt 0.75 0.999
v 0.666667 1.088 0.001
vt 0.666667 0.999
f 130/130/34 131/131/34 132/132/34 133/133/34
vn -0.14834 0.988936 0
v 0.666667 1.1 0.15
vt 0.666667 0.85
v 0.75 1.1125 0.15
vt 0.75 0.85
v 0.75 1.1125 0.013
vt 0.75 0.987
v 0.666667 1.1 0.013
vt 0.666667 0.987
f 134/134/35 135/135/35 136/136/35 137/137/35
vn 0 0 1
v 0.666667 1 0.15
vt 0.666667 0.35
v 0.75 1 0.15
vt 0.75 0.35
v 0.75 1.1125 0.15
vt 0.75 0.4625
v 0.666667 1.1 0.15
vt 0.666667 0.45
f 138/138/36 139/139/36 140/140/36 141/141/36
vn 0 0 -1
v 0.75 1.1005 0.001
vt 0.75 0.4505
v 0.833333 1.113 0.001
vt 0.833333 0.463
v 0.833333 1 0.001
vt 0.833333 0.35
v 0.75 1 0.001
vt 0.75 0.35
f 142/142/37 143/143/37 144/144/37 145/145/37
vn -0.105474 0.703163 -0.703163
v 0.75 1.1125 0.013
vt 0.75 0.987
v 0.833333 1.125 0.013
vt 0.833333 0.987
v 0.833333 1.113 0.001
vt 0.833333 0.999
v 0.75 1.1005 0.001
vt 0.75 0.999
f 146/146/38 147/147/38 148/148/38 149/149/38
vn -0.14834 0.988936 0
v 0.75 1.1125 0.15
vt 0.75 0.85
v 0.833333 1.125 0.15
vt 0.833333 0.85
v 0.833333 1.125 0.013
vt 0.833333 0.987
v 0.75 1.1125 0.013
vt 0.75 0.987
f 150/150/39 151/151/39 152/152/39 153/153/39
vn 0 0 1
v 0.75 1 0.15
vt 0.75 0.35
v 0.833333 1 0.15
vt 0.833333 0.35
v 0.833333 1.125 0.15
vt 0.833333 0.475
v 0.75 1.1125 0.15
vt 0.75 0.4625
f 154/154/40 155/155/40 156/156/40 157/157/40
vn 0 0 -1
v 0.833333 1.113 0.001
vt 0.833333 0.463
v 0.916667 1.1255 0.001
vt 0.916667 0.4755
v 0.916667 1 0.001
vt 0.916667 0.35
v 0.833333 1 0.001
vt 0.833333 0.35
f 158/158/41 159/159/41 160/160/41 161/161/41
vn -0.105474 0.703163 -0.703163
v 0.833333 1.125 0.013
vt 0.833333 0.987
v 0.916667 1.1375 0.013
vt 0.916667 0.987
v 0.916667 1.1255 0.001
vt 0.916667 0.999
v 0.833333 1.113 0.001
vt 0.833333 0.999
f 162/162/42 163/163/42 164/164/42 165/165/42
vn -0.14834 0.988936 0
v 0.833333 1.125 0.15
vt 0.833333 0.85
v 0.916667 1.1375 0.15
vt 0.916667 0.85
v 0.916667 1.1375 0.013
vt 0.916667 0.987
v 0.833333 1.125 0.013
vt 0.833333 0.987
f 166/166/43 167/167/43 168/168/43 169/169/43
vn 0 0 1
v 0.833333 1 0.15
vt 0.833333 0.35
v 0.916667 1 0.15
vt 0.916667 0.35
v 0.916667 1.1375 0.15
vt 0.916667 0.4875
v 0.833333 1.125 0.15
vt 0.833333 0.475
f 170/170/44 171/171/44 172/172/44 173/173/44
vn 0 0 -1
v 0.916667 1.1255 0.001
vt 0.916667 0.4755
v 1 1.138 0.001
vt 1 0.488
v 1 1 0.001
vt 1 0.35
v 0.916667 1 0.001
vt 0.916667 0.35
f 174/174/45 175/175/45 176/176/45 177/177/45
vn -0.105474 0.703163 -0.703163
v 0.916667 1.1375 0.013
vt 0.916667 0.987
v 1 1.15 0.013
vt 1 0.987
v 1 1.138 0.001
vt 1 0.999
v 0.916667 1.1255 0.001
vt 0.916667 0.999
f 178/178/46 179/179/46 180/180/46 181/181/46
vn -0.14834 0.988936 0
v 0.916667 1.1375 0.15
vt 0.916667 0.85
v 1 1.15 0.15
vt 1 0.85
v 1 1.15 0.013
vt 1 0.987
v 0.916667 1.1375 0.013
vt 0.916667 0.987
f 182/182/47 183/183/47 184/184/47 185/185/47
vn 0 0 1
v 0.916667 1 0.15
vt 0.916667 0.35
v 1 1 0.15
vt 1 0.35
v 1 1.15 0.15
vt 1 0.5
v 0.916667 1.1375 0.15
vt 0.916667 0.4875
f 186/186/48 187/187/48 188/188/48 189/189/48
