# AFL Curbs V1 strip_low_ccw, generated by tools/build-curbs-v1.mjs
mtllib strip_low_ccw.mtl
o strip_low_ccw
usemtl curb
vn 0 0 -1
v 0 1.013 0.001
vt 0 0.363
v 0.125 1.028625 0.001
vt 0.125 0.378625
v 0.125 1 0.001
vt 0.125 0.35
v 0 1 0.001
vt 0 0.35
f 1/1/1 2/2/1 3/3/1 4/4/1
vn -0.088045 0.704361 -0.704361
v 0 1.025 0.013
vt 0 0.987
v 0.125 1.040625 0.013
vt 0.125 0.987
v 0.125 1.028625 0.001
vt 0.125 0.999
v 0 1.013 0.001
vt 0 0.999
f 5/5/2 6/6/2 7/7/2 8/8/2
vn -0.124035 0.992278 0
v 0 1.025 0.15
vt 0 0.85
v 0.125 1.040625 0.15
vt 0.125 0.85
v 0.125 1.040625 0.013
vt 0.125 0.987
v 0 1.025 0.013
vt 0 0.987
f 9/9/3 10/10/3 11/11/3 12/12/3
vn 0 0 1
v 0 1 0.15
vt 0 0.35
v 0.125 1 0.15
vt 0.125 0.35
v 0.125 1.040625 0.15
vt 0.125 0.390625
v 0 1.025 0.15
vt 0 0.375
f 13/13/4 14/14/4 15/15/4 16/16/4
vn 0 0 -1
v 0.125 1.028625 0.001
vt 0.125 0.378625
v 0.25 1.04425 0.001
vt 0.25 0.39425
v 0.25 1 0.001
vt 0.25 0.35
v 0.125 1 0.001
vt 0.125 0.35
f 17/17/5 18/18/5 19/19/5 20/20/5
vn -0.088045 0.704361 -0.704361
v 0.125 1.040625 0.013
vt 0.125 0.987
v 0.25 1.05625 0.013
vt 0.25 0.987
v 0.25 1.04425 0.001
vt 0.25 0.999
v 0.125 1.028625 0.001
vt 0.125 0.999
f 21/21/6 22/22/6 23/23/6 24/24/6
vn -0.124035 0.992278 0
v 0.125 1.040625 0.15
vt 0.125 0.85
v 0.25 1.05625 0.15
vt 0.25 0.85
v 0.25 1.05625 0.013
vt 0.25 0.987
v 0.125 1.040625 0.013
vt 0.125 0.987
f 25/25/7 26/26/7 27/27/7 28/28/7
vn 0 0 1
v 0.125 1 0.15
vt 0.125 0.35
v 0.25 1 0.15
vt 0.25 0.35
v 0.25 1.05625 0.15
vt 0.25 0.40625
v 0.125 1.040625 0.15
vt 0.125 0.390625
f 29/29/8 30/30/8 31/31/8 32/32/8
vn 0 0 -1
v 0.25 1.04425 0.001
vt 0.25 0.39425
v 0.375 1.059875 0.001
vt 0.375 0.409875
v 0.375 1 0.001
vt 0.375 0.35
v 0.25 1 0.001
vt 0.25 0.35
f 33/33/9 34/34/9 35/35/9 36/36/9
vn -0.088045 0.704361 -0.704361
v 0.25 1.05625 0.013
vt 0.25 0.987
v 0.375 1.071875 0.013
vt 0.375 0.987
v 0.375 1.059875 0.001
vt 0.375 0.999
v 0.25 1.04425 0.001
vt 0.25 0.999
f 37/37/10 38/38/10 39/39/10 40/40/10
vn -0.124035 0.992278 0
v 0.25 1.05625 0.15
vt 0.25 0.85
v 0.375 1.071875 0.15
vt 0.375 0.85
v 0.375 1.071875 0.013
vt 0.375 0.987
v 0.25 1.05625 0.013
vt 0.25 0.987
f 41/41/11 42/42/11 43/43/11 44/44/11
vn 0 0 1
v 0.25 1 0.15
vt 0.25 0.35
v 0.375 1 0.15
vt 0.375 0.35
v 0.375 1.071875 0.15
vt 0.375 0.421875
v 0.25 1.05625 0.15
vt 0.25 0.40625
f 45/45/12 46/46/12 47/47/12 48/48/12
vn 0 0 -1
v 0.375 1.059875 0.001
vt 0.375 0.409875
v 0.5 1.0755 0.001
vt 0.5 0.4255
v 0.5 1 0.001
vt 0.5 0.35
v 0.375 1 0.001
vt 0.375 0.35
f 49/49/13 50/50/13 51/51/13 52/52/13
vn -0.088045 0.704361 -0.704361
v 0.375 1.071875 0.013
vt 0.375 0.987
v 0.5 1.0875 0.013
vt 0.5 0.987
v 0.5 1.0755 0.001
vt 0.5 0.999
v 0.375 1.059875 0.001
vt 0.375 0.999
f 53/53/14 54/54/14 55/55/14 56/56/14
vn -0.124035 0.992278 0
v 0.375 1.071875 0.15
vt 0.375 0.85
v 0.5 1.0875 0.15
vt 0.5 0.85
v 0.5 1.0875 0.013
vt 0.5 0.987
v 0.375 1.071875 0.013
vt 0.375 0.987
f 57/57/15 58/58/15 59/59/15 60/60/15
vn 0 0 1
v 0.375 1 0.15
vt 0.375 0.35
v 0.5 1 0.15
vt 0.5 0.35
v 0.5 1.0875 0.15
vt 0.5 0.4375
v 0.375 1.071875 0.15
vt 0.375 0.421875
f 61/61/16 62/62/16 63/63/16 64/64/16
vn 0 0 -1
v 0.5 1.0755 0.001
vt 0.5 0.4255
v 0.625 1.091125 0.001
vt 0.625 0.441125
v 0.625 1 0.001
vt 0.625 0.35
v 0.5 1 0.001
vt 0.5 0.35
f 65/65/17 66/66/17 67/67/17 68/68/17
vn -0.088045 0.704361 -0.704361
v 0.5 1.0875 0.013
vt 0.5 0.987
v 0.625 1.103125 0.013
vt 0.625 0.987
v 0.625 1.091125 0.001
vt 0.625 0.999
v 0.5 1.0755 0.001
vt 0.5 0.999
f 69/69/18 70/70/18 71/71/18 72/72/18
vn -0.124035 0.992278 0
v 0.5 1.0875 0.15
vt 0.5 0.85
v 0.625 1.103125 0.15
vt 0.625 0.85
v 0.625 1.103125 0.013
vt 0.625 0.987
v 0.5 1.0875 0.013
vt 0.5 0.987
f 73/73/19 74/74/19 75/75/19 76/76/19
vn 0 0 1
v 0.5 1 0.15
vt 0.5 0.35
v 0.625 1 0.15
vt 0.625 0.35
v 0.625 1.103125 0.15
vt 0.625 0.453125
v 0.5 1.0875 0.15
vt 0.5 0.4375
f 77/77/20 78/78/20 79/79/20 80/80/20
vn 0 0 -1
v 0.625 1.091125 0.001
vt 0.625 0.441125
v 0.75 1.10675 0.001
vt 0.75 0.45675
v 0.75 1 0.001
vt 0.75 0.35
v 0.625 1 0.001
vt 0.625 0.35
f 81/81/21 82/82/21 83/83/21 84/84/21
vn -0.088045 0.704361 -0.704361
v 0.625 1.103125 0.013
vt 0.625 0.987
v 0.75 1.11875 0.013
vt 0.75 0.987
v 0.75 1.10675 0.001
vt 0.75 0.999
v 0.625 1.091125 0.001
vt 0.625 0.999
f 85/85/22 86/86/22 87/87/22 88/88/22
vn -0.124035 0.992278 0
v 0.625 1.103125 0.15
vt 0.625 0.85
v 0.75 1.11875 0.15
vt 0.75 0.85
v 0.75 1.11875 0.013
vt 0.75 0.987
v 0.625 1.103125 0.013
vt 0.625 0.987
f 89/89/23 90/90/23 91/91/23 92/92/23
vn 0 0 1
v 0.625 1 0.15
vt 0.625 0.35
v 0.75 1 0.15
vt 0.75 0.35
v 0.75 1.11875 0.15
vt 0.75 0.46875
v 0.625 1.103125 0.15
vt 0.625 0.453125
f 93/93/24 94/94/24 95/95/24 96/96/24
vn 0 0 -1
v 0.75 1.10675 0.001
vt 0.75 0.45675
v 0.875 1.122375 0.001
vt 0.875 0.472375
v 0.875 1 0.001
vt 0.875 0.35
v 0.75 1 0.001
vt 0.75 0.35
f 97/97/25 98/98/25 99/99/25 100/100/25
vn -0.088045 0.704361 -0.704361
v 0.75 1.11875 0.013
vt 0.75 0.987
v 0.875 1.134375 0.013
vt 0.875 0.987
v 0.875 1.122375 0.001
vt 0.875 0.999
v 0.75 1.10675 0.001
vt 0.75 0.999
f 101/101/26 102/102/26 103/103/26 104/104/26
vn -0.124035 0.992278 0
v 0.75 1.11875 0.15
vt 0.75 0.85
v 0.875 1.134375 0.15
vt 0.875 0.85
v 0.875 1.134375 0.013
vt 0.875 0.987
v 0.75 1.11875 0.013
vt 0.75 0.987
f 105/105/27 106/106/27 107/107/27 108/108/27
vn 0 0 1
v 0.75 1 0.15
vt 0.75 0.35
v 0.875 1 0.15
vt 0.875 0.35
v 0.875 1.134375 0.15
vt 0.875 0.484375
v 0.75 1.11875 0.15
vt 0.75 0.46875
f 109/109/28 110/110/28 111/111/28 112/112/28
vn 0 0 -1
v 0.875 1.122375 0.001
vt 0.875 0.472375
v 1 1.138 0.001
vt 1 0.488
v 1 1 0.001
vt 1 0.35
v 0.875 1 0.001
vt 0.875 0.35
f 113/113/29 114/114/29 115/115/29 116/116/29
vn -0.088045 0.704361 -0.704361
v 0.875 1.134375 0.013
vt 0.875 0.987
v 1 1.15 0.013
vt 1 0.987
v 1 1.138 0.001
vt 1 0.999
v 0.875 1.122375 0.001
vt 0.875 0.999
f 117/117/30 118/118/30 119/119/30 120/120/30
vn -0.124035 0.992278 0
v 0.875 1.134375 0.15
vt 0.875 0.85
v 1 1.15 0.15
vt 1 0.85
v 1 1.15 0.013
vt 1 0.987
v 0.875 1.134375 0.013
vt 0.875 0.987
f 121/121/31 122/122/31 123/123/31 124/124/31
vn 0 0 1
v 0.875 1 0.15
vt 0.875 0.35
v 1 1 0.15
vt 1 0.35
v 1 1.15 0.15
vt 1 0.5
v 0.875 1.134375 0.15
vt 0.875 0.484375
f 125/125/32 126/126/32 127/127/32 128/128/32
