# AFL pump_manhole_cover/item, generated by tools/build-fuel-station-sump-v1.mjs
mtllib item.mtl
o pump_manhole_cover__frame__top
usemtl fuel_station_sump
v 0 0.925 1
v 1 0.925 1
v 1 0.925 0
v 0 0.925 0
v 0 1 1
v 1 1 1
v 1 1 0
v 0 1 0
v 0.910514 0.925 0.540432
v 0.894738 0.925 0.619742
v 0.863793 0.925 0.694451
v 0.818867 0.925 0.761687
v 0.761687 0.925 0.818867
v 0.694451 0.925 0.863793
v 0.619742 0.925 0.894738
v 0.540432 0.925 0.910514
v 0.459568 0.925 0.910514
v 0.380258 0.925 0.894738
v 0.305549 0.925 0.863793
v 0.238313 0.925 0.818867
v 0.181133 0.925 0.761687
v 0.136207 0.925 0.694451
v 0.105262 0.925 0.619742
v 0.089486 0.925 0.540432
v 0.089486 0.925 0.459568
v 0.105262 0.925 0.380258
v 0.136207 0.925 0.305549
v 0.181133 0.925 0.238313
v 0.238313 0.925 0.181133
v 0.305549 0.925 0.136207
v 0.380258 0.925 0.105262
v 0.459568 0.925 0.089486
v 0.540432 0.925 0.089486
v 0.619742 0.925 0.105262
v 0.694451 0.925 0.136207
v 0.761687 0.925 0.181133
v 0.818867 0.925 0.238313
v 0.863793 0.925 0.305549
v 0.894738 0.925 0.380258
v 0.910514 0.925 0.459568
v 0.910514 1 0.540432
v 0.894738 1 0.619742
v 0.863793 1 0.694451
v 0.818867 1 0.761687
v 0.761687 1 0.818867
v 0.694451 1 0.863793
v 0.619742 1 0.894738
v 0.540432 1 0.910514
v 0.459568 1 0.910514
v 0.380258 1 0.894738
v 0.305549 1 0.863793
v 0.238313 1 0.818867
v 0.181133 1 0.761687
v 0.136207 1 0.694451
v 0.105262 1 0.619742
v 0.089486 1 0.540432
v 0.089486 1 0.459568
v 0.105262 1 0.380258
v 0.136207 1 0.305549
v 0.181133 1 0.238313
v 0.238313 1 0.181133
v 0.305549 1 0.136207
v 0.380258 1 0.105262
v 0.459568 1 0.089486
v 0.540432 1 0.089486
v 0.619742 1 0.105262
v 0.694451 1 0.136207
v 0.761687 1 0.181133
v 0.818867 1 0.238313
v 0.863793 1 0.305549
v 0.894738 1 0.380258
v 0.910514 1 0.459568
v 0 0.925 1
v 1 0.925 1
v 1 0.925 0
v 0 0.925 0
v 0.910514 0.925 0.540432
v 0.894738 0.925 0.619742
v 0.863793 0.925 0.694451
v 0.818867 0.925 0.761687
v 0.761687 0.925 0.818867
v 0.694451 0.925 0.863793
v 0.619742 0.925 0.894738
v 0.540432 0.925 0.910514
v 0.459568 0.925 0.910514
v 0.380258 0.925 0.894738
v 0.305549 0.925 0.863793
v 0.238313 0.925 0.818867
v 0.181133 0.925 0.761687
v 0.136207 0.925 0.694451
v 0.105262 0.925 0.619742
v 0.089486 0.925 0.540432
v 0.089486 0.925 0.459568
v 0.105262 0.925 0.380258
v 0.136207 0.925 0.305549
v 0.181133 0.925 0.238313
v 0.238313 0.925 0.181133
v 0.305549 0.925 0.136207
v 0.380258 0.925 0.105262
v 0.459568 0.925 0.089486
v 0.540432 0.925 0.089486
v 0.619742 0.925 0.105262
v 0.694451 0.925 0.136207
v 0.761687 0.925 0.181133
v 0.818867 0.925 0.238313
v 0.863793 0.925 0.305549
v 0.894738 0.925 0.380258
v 0.910514 0.925 0.459568
v 0 1 1
v 1 1 1
v 1 1 0
v 0 1 0
v 0.910514 1 0.540432
v 0.894738 1 0.619742
v 0.863793 1 0.694451
v 0.818867 1 0.761687
v 0.761687 1 0.818867
v 0.694451 1 0.863793
v 0.619742 1 0.894738
v 0.540432 1 0.910514
v 0.459568 1 0.910514
v 0.380258 1 0.894738
v 0.305549 1 0.863793
v 0.238313 1 0.818867
v 0.181133 1 0.761687
v 0.136207 1 0.694451
v 0.105262 1 0.619742
v 0.089486 1 0.540432
v 0.089486 1 0.459568
v 0.105262 1 0.380258
v 0.136207 1 0.305549
v 0.181133 1 0.238313
v 0.238313 1 0.181133
v 0.305549 1 0.136207
v 0.380258 1 0.105262
v 0.459568 1 0.089486
v 0.540432 1 0.089486
v 0.619742 1 0.105262
v 0.694451 1 0.136207
v 0.761687 1 0.181133
v 0.818867 1 0.238313
v 0.863793 1 0.305549
v 0.894738 1 0.380258
v 0.910514 1 0.459568
vt 0.459473 0.216113
vt 0.553223 0.216113
vt 0.553223 0.223145
vt 0.459473 0.223145
vt 0.649902 0.223145
vt 0.556152 0.223145
vt 0.556152 0.216113
vt 0.649902 0.216113
vt 0.652832 0.216113
vt 0.746582 0.216113
vt 0.746582 0.223145
vt 0.652832 0.223145
vt 0.749512 0.216113
vt 0.843262 0.216113
vt 0.843262 0.223145
vt 0.749512 0.223145
vt 0.686635 0.205371
vt 0.694216 0.205371
vt 0.694216 0.212402
vt 0.686635 0.212402
vt 0.694216 0.205371
vt 0.701651 0.205371
vt 0.701651 0.212402
vt 0.694216 0.212402
vt 0.815918 0.205371
vt 0.823462 0.205371
vt 0.823462 0.212402
vt 0.815918 0.212402
vt 0.823462 0.205371
vt 0.831007 0.205371
vt 0.831007 0.212402
vt 0.823462 0.212402
vt 0.760254 0.205371
vt 0.767798 0.205371
vt 0.767798 0.212402
vt 0.760254 0.212402
vt 0.767798 0.205371
vt 0.775343 0.205371
vt 0.775343 0.212402
vt 0.767798 0.212402
vt 0.834473 0.205371
vt 0.842017 0.205371
vt 0.842017 0.212402
vt 0.834473 0.212402
vt 0.842017 0.205371
vt 0.849562 0.205371
vt 0.849562 0.212402
vt 0.842017 0.212402
vt 0.853027 0.205371
vt 0.860572 0.205371
vt 0.860572 0.212402
vt 0.853027 0.212402
vt 0.860572 0.205371
vt 0.868116 0.205371
vt 0.868116 0.212402
vt 0.860572 0.212402
vt 0.793898 0.212402
vt 0.786353 0.212402
vt 0.786353 0.205371
vt 0.793898 0.205371
vt 0.786353 0.212402
vt 0.778809 0.212402
vt 0.778809 0.205371
vt 0.786353 0.205371
vt 0.886671 0.212402
vt 0.879127 0.212402
vt 0.879127 0.205371
vt 0.886671 0.205371
vt 0.879127 0.212402
vt 0.871582 0.212402
vt 0.871582 0.205371
vt 0.879127 0.205371
vt 0.812452 0.212402
vt 0.804908 0.212402
vt 0.804908 0.205371
vt 0.812452 0.205371
vt 0.804908 0.212402
vt 0.797363 0.212402
vt 0.797363 0.205371
vt 0.804908 0.205371
vt 0.905226 0.212402
vt 0.897681 0.212402
vt 0.897681 0.205371
vt 0.905226 0.205371
vt 0.897681 0.212402
vt 0.890137 0.212402
vt 0.890137 0.205371
vt 0.897681 0.205371
vt 0.92378 0.212402
vt 0.916236 0.212402
vt 0.916236 0.205371
vt 0.92378 0.205371
vt 0.916236 0.212402
vt 0.908691 0.212402
vt 0.908691 0.205371
vt 0.916236 0.205371
vt 0.719679 0.212402
vt 0.712134 0.212402
vt 0.712134 0.205371
vt 0.719679 0.205371
vt 0.712134 0.212402
vt 0.70459 0.212402
vt 0.70459 0.205371
vt 0.712134 0.205371
vt 0.927246 0.205371
vt 0.934791 0.205371
vt 0.934791 0.212402
vt 0.927246 0.212402
vt 0.934791 0.205371
vt 0.942335 0.205371
vt 0.942335 0.212402
vt 0.934791 0.212402
vt 0.723145 0.205371
vt 0.730689 0.205371
vt 0.730689 0.212402
vt 0.723145 0.212402
vt 0.730689 0.205371
vt 0.738234 0.205371
vt 0.738234 0.212402
vt 0.730689 0.212402
vt 0.945801 0.205371
vt 0.953345 0.205371
vt 0.953345 0.212402
vt 0.945801 0.212402
vt 0.953345 0.205371
vt 0.96089 0.205371
vt 0.96089 0.212402
vt 0.953345 0.212402
vt 0.741699 0.205371
vt 0.749244 0.205371
vt 0.749244 0.212402
vt 0.741699 0.212402
vt 0.749244 0.205371
vt 0.756788 0.205371
vt 0.756788 0.212402
vt 0.749244 0.212402
vt 0.529785 0.194629
vt 0.537366 0.194629
vt 0.537366 0.20166
vt 0.529785 0.20166
vt 0.679199 0.205371
vt 0.686635 0.205371
vt 0.686635 0.212402
vt 0.679199 0.212402
vt 0.841708 0.946893
vt 0.850098 0.903809
vt 0.850098 0.997559
vt 0.841708 0.954474
vt 0.841708 0.946893
vt 0.850098 0.997559
vt 0.840229 0.961909
vt 0.841708 0.954474
vt 0.850098 0.997559
vt 0.837328 0.968913
vt 0.840229 0.961909
vt 0.850098 0.997559
vt 0.833116 0.975217
vt 0.837328 0.968913
vt 0.850098 0.997559
vt 0.827756 0.980577
vt 0.833116 0.975217
vt 0.850098 0.997559
vt 0.821452 0.984789
vt 0.827756 0.980577
vt 0.850098 0.997559
vt 0.814449 0.98769
vt 0.821452 0.984789
vt 0.850098 0.997559
vt 0.807013 0.989169
vt 0.814449 0.98769
vt 0.850098 0.997559
vt 0.807013 0.989169
vt 0.850098 0.997559
vt 0.756348 0.997559
vt 0.799432 0.989169
vt 0.807013 0.989169
vt 0.756348 0.997559
vt 0.791997 0.98769
vt 0.799432 0.989169
vt 0.756348 0.997559
vt 0.784993 0.984789
vt 0.791997 0.98769
vt 0.756348 0.997559
vt 0.778689 0.980577
vt 0.784993 0.984789
vt 0.756348 0.997559
vt 0.773329 0.975217
vt 0.778689 0.980577
vt 0.756348 0.997559
vt 0.769117 0.968913
vt 0.773329 0.975217
vt 0.756348 0.997559
vt 0.766216 0.961909
vt 0.769117 0.968913
vt 0.756348 0.997559
vt 0.764737 0.954474
vt 0.766216 0.961909
vt 0.756348 0.997559
vt 0.764737 0.946893
vt 0.764737 0.954474
vt 0.756348 0.997559
vt 0.850098 0.903809
vt 0.841708 0.946893
vt 0.840229 0.939458
vt 0.850098 0.903809
vt 0.840229 0.939458
vt 0.837328 0.932454
vt 0.850098 0.903809
vt 0.837328 0.932454
vt 0.833116 0.92615
vt 0.850098 0.903809
vt 0.833116 0.92615
vt 0.827756 0.92079
vt 0.850098 0.903809
vt 0.827756 0.92079
vt 0.821452 0.916578
vt 0.850098 0.903809
vt 0.821452 0.916578
vt 0.814449 0.913677
vt 0.850098 0.903809
vt 0.814449 0.913677
vt 0.807013 0.912198
vt 0.850098 0.903809
vt 0.807013 0.912198
vt 0.799432 0.912198
vt 0.756348 0.903809
vt 0.850098 0.903809
vt 0.799432 0.912198
vt 0.756348 0.903809
vt 0.799432 0.912198
vt 0.791997 0.913677
vt 0.756348 0.903809
vt 0.791997 0.913677
vt 0.784993 0.916578
vt 0.756348 0.903809
vt 0.784993 0.916578
vt 0.778689 0.92079
vt 0.756348 0.903809
vt 0.778689 0.92079
vt 0.773329 0.92615
vt 0.756348 0.903809
vt 0.773329 0.92615
vt 0.769117 0.932454
vt 0.756348 0.903809
vt 0.769117 0.932454
vt 0.766216 0.939458
vt 0.756348 0.903809
vt 0.766216 0.939458
vt 0.764737 0.946893
vt 0.756348 0.997559
vt 0.756348 0.903809
vt 0.764737 0.946893
vt 0.946777 0.903809
vt 0.946777 0.997559
vt 0.938388 0.954474
vt 0.946777 0.903809
vt 0.938388 0.954474
vt 0.938388 0.946893
vt 0.946777 0.903809
vt 0.938388 0.946893
vt 0.936909 0.939458
vt 0.946777 0.903809
vt 0.936909 0.939458
vt 0.934008 0.932454
vt 0.946777 0.903809
vt 0.934008 0.932454
vt 0.929796 0.92615
vt 0.946777 0.903809
vt 0.929796 0.92615
vt 0.924436 0.92079
vt 0.946777 0.903809
vt 0.924436 0.92079
vt 0.918132 0.916578
vt 0.946777 0.903809
vt 0.918132 0.916578
vt 0.911128 0.913677
vt 0.946777 0.903809
vt 0.911128 0.913677
vt 0.903693 0.912198
vt 0.853027 0.903809
vt 0.946777 0.903809
vt 0.903693 0.912198
vt 0.853027 0.903809
vt 0.903693 0.912198
vt 0.896112 0.912198
vt 0.853027 0.903809
vt 0.896112 0.912198
vt 0.888676 0.913677
vt 0.853027 0.903809
vt 0.888676 0.913677
vt 0.881673 0.916578
vt 0.853027 0.903809
vt 0.881673 0.916578
vt 0.875369 0.92079
vt 0.853027 0.903809
vt 0.875369 0.92079
vt 0.870009 0.92615
vt 0.853027 0.903809
vt 0.870009 0.92615
vt 0.865797 0.932454
vt 0.853027 0.903809
vt 0.865797 0.932454
vt 0.862896 0.939458
vt 0.853027 0.903809
vt 0.862896 0.939458
vt 0.861417 0.946893
vt 0.853027 0.903809
vt 0.861417 0.946893
vt 0.861417 0.954474
vt 0.936909 0.961909
vt 0.938388 0.954474
vt 0.946777 0.997559
vt 0.934008 0.968913
vt 0.936909 0.961909
vt 0.946777 0.997559
vt 0.929796 0.975217
vt 0.934008 0.968913
vt 0.946777 0.997559
vt 0.924436 0.980577
vt 0.929796 0.975217
vt 0.946777 0.997559
vt 0.918132 0.984789
vt 0.924436 0.980577
vt 0.946777 0.997559
vt 0.911128 0.98769
vt 0.918132 0.984789
vt 0.946777 0.997559
vt 0.903693 0.989169
vt 0.911128 0.98769
vt 0.946777 0.997559
vt 0.896112 0.989169
vt 0.903693 0.989169
vt 0.946777 0.997559
vt 0.896112 0.989169
vt 0.946777 0.997559
vt 0.853027 0.997559
vt 0.888676 0.98769
vt 0.896112 0.989169
vt 0.853027 0.997559
vt 0.881673 0.984789
vt 0.888676 0.98769
vt 0.853027 0.997559
vt 0.875369 0.980577
vt 0.881673 0.984789
vt 0.853027 0.997559
vt 0.870009 0.975217
vt 0.875369 0.980577
vt 0.853027 0.997559
vt 0.865797 0.968913
vt 0.870009 0.975217
vt 0.853027 0.997559
vt 0.862896 0.961909
vt 0.865797 0.968913
vt 0.853027 0.997559
vt 0.861417 0.954474
vt 0.862896 0.961909
vt 0.853027 0.997559
vt 0.861417 0.954474
vt 0.853027 0.997559
vt 0.853027 0.903809
vn 0 0 1
vn 1 0 0
vn 0 0 -1
vn -1 0 0
vn -0.995185 0 -0.098017
vn -0.95694 0 -0.290285
vn -0.881921 0 -0.471397
vn -0.77301 0 -0.634393
vn -0.634393 0 -0.77301
vn -0.471397 0 -0.881921
vn -0.290285 0 -0.95694
vn -0.098017 0 -0.995185
vn 0.098017 0 -0.995185
vn 0.290285 0 -0.95694
vn 0.471397 0 -0.881921
vn 0.634393 0 -0.77301
vn 0.77301 0 -0.634393
vn 0.881921 0 -0.471397
vn 0.95694 0 -0.290285
vn 0.995185 0 -0.098017
vn 0.995185 0 0.098017
vn 0.95694 0 0.290285
vn 0.881921 0 0.471397
vn 0.77301 0 0.634393
vn 0.634393 0 0.77301
vn 0.471397 0 0.881921
vn 0.290285 0 0.95694
vn 0.098017 0 0.995185
vn -0.098017 0 0.995185
vn -0.290285 0 0.95694
vn -0.471397 0 0.881921
vn -0.634393 0 0.77301
vn -0.77301 0 0.634393
vn -0.881921 0 0.471397
vn -0.95694 0 0.290285
vn -0.995185 0 0.098017
vn 0 -1 0
vn 0 1 0
f 1/1/1 2/2/1 6/3/1 5/4/1
f 2/5/2 3/6/2 7/7/2 6/8/2
f 3/9/3 4/10/3 8/11/3 7/12/3
f 4/13/4 1/14/4 5/15/4 8/16/4
f 9/17/5 10/18/6 42/19/6 41/20/5
f 10/21/6 11/22/7 43/23/7 42/24/6
f 11/25/7 12/26/8 44/27/8 43/28/7
f 12/29/8 13/30/9 45/31/9 44/32/8
f 13/33/9 14/34/10 46/35/10 45/36/9
f 14/37/10 15/38/11 47/39/11 46/40/10
f 15/41/11 16/42/12 48/43/12 47/44/11
f 16/45/12 17/46/13 49/47/13 48/48/12
f 17/49/13 18/50/14 50/51/14 49/52/13
f 18/53/14 19/54/15 51/55/15 50/56/14
f 19/57/15 20/58/16 52/59/16 51/60/15
f 20/61/16 21/62/17 53/63/17 52/64/16
f 21/65/17 22/66/18 54/67/18 53/68/17
f 22/69/18 23/70/19 55/71/19 54/72/18
f 23/73/19 24/74/20 56/75/20 55/76/19
f 24/77/20 25/78/21 57/79/21 56/80/20
f 25/81/21 26/82/22 58/83/22 57/84/21
f 26/85/22 27/86/23 59/87/23 58/88/22
f 27/89/23 28/90/24 60/91/24 59/92/23
f 28/93/24 29/94/25 61/95/25 60/96/24
f 29/97/25 30/98/26 62/99/26 61/100/25
f 30/101/26 31/102/27 63/103/27 62/104/26
f 31/105/27 32/106/28 64/107/28 63/108/27
f 32/109/28 33/110/29 65/111/29 64/112/28
f 33/113/29 34/114/30 66/115/30 65/116/29
f 34/117/30 35/118/31 67/119/31 66/120/30
f 35/121/31 36/122/32 68/123/32 67/124/31
f 36/125/32 37/126/33 69/127/33 68/128/32
f 37/129/33 38/130/34 70/131/34 69/132/33
f 38/133/34 39/134/35 71/135/35 70/136/34
f 39/137/35 40/138/36 72/139/36 71/140/35
f 40/141/36 9/142/5 41/143/5 72/144/36
f 84/145/37 74/146/37 73/147/37
f 85/148/37 84/149/37 73/150/37
f 86/151/37 85/152/37 73/153/37
f 87/154/37 86/155/37 73/156/37
f 88/157/37 87/158/37 73/159/37
f 89/160/37 88/161/37 73/162/37
f 90/163/37 89/164/37 73/165/37
f 91/166/37 90/167/37 73/168/37
f 92/169/37 91/170/37 73/171/37
f 92/172/37 73/173/37 76/174/37
f 93/175/37 92/176/37 76/177/37
f 94/178/37 93/179/37 76/180/37
f 95/181/37 94/182/37 76/183/37
f 96/184/37 95/185/37 76/186/37
f 97/187/37 96/188/37 76/189/37
f 98/190/37 97/191/37 76/192/37
f 99/193/37 98/194/37 76/195/37
f 100/196/37 99/197/37 76/198/37
f 101/199/37 100/200/37 76/201/37
f 74/202/37 84/203/37 83/204/37
f 74/205/37 83/206/37 82/207/37
f 74/208/37 82/209/37 81/210/37
f 74/211/37 81/212/37 80/213/37
f 74/214/37 80/215/37 79/216/37
f 74/217/37 79/218/37 78/219/37
f 74/220/37 78/221/37 77/222/37
f 74/223/37 77/224/37 108/225/37
f 75/226/37 74/227/37 108/228/37
f 75/229/37 108/230/37 107/231/37
f 75/232/37 107/233/37 106/234/37
f 75/235/37 106/236/37 105/237/37
f 75/238/37 105/239/37 104/240/37
f 75/241/37 104/242/37 103/243/37
f 75/244/37 103/245/37 102/246/37
f 75/247/37 102/248/37 101/249/37
f 76/250/37 75/251/37 101/252/37
f 109/253/38 110/254/38 120/255/38
f 109/256/38 120/257/38 121/258/38
f 109/259/38 121/260/38 122/261/38
f 109/262/38 122/263/38 123/264/38
f 109/265/38 123/266/38 124/267/38
f 109/268/38 124/269/38 125/270/38
f 109/271/38 125/272/38 126/273/38
f 109/274/38 126/275/38 127/276/38
f 109/277/38 127/278/38 128/279/38
f 112/280/38 109/281/38 128/282/38
f 112/283/38 128/284/38 129/285/38
f 112/286/38 129/287/38 130/288/38
f 112/289/38 130/290/38 131/291/38
f 112/292/38 131/293/38 132/294/38
f 112/295/38 132/296/38 133/297/38
f 112/298/38 133/299/38 134/300/38
f 112/301/38 134/302/38 135/303/38
f 112/304/38 135/305/38 136/306/38
f 112/307/38 136/308/38 137/309/38
f 119/310/38 120/311/38 110/312/38
f 118/313/38 119/314/38 110/315/38
f 117/316/38 118/317/38 110/318/38
f 116/319/38 117/320/38 110/321/38
f 115/322/38 116/323/38 110/324/38
f 114/325/38 115/326/38 110/327/38
f 113/328/38 114/329/38 110/330/38
f 144/331/38 113/332/38 110/333/38
f 144/334/38 110/335/38 111/336/38
f 143/337/38 144/338/38 111/339/38
f 142/340/38 143/341/38 111/342/38
f 141/343/38 142/344/38 111/345/38
f 140/346/38 141/347/38 111/348/38
f 139/349/38 140/350/38 111/351/38
f 138/352/38 139/353/38 111/354/38
f 137/355/38 138/356/38 111/357/38
f 137/358/38 111/359/38 112/360/38
o pump_manhole_cover__frame__rim
usemtl fuel_station_sump
v 0.910514 1 0.540432
v 0.894738 1 0.619742
v 0.863793 1 0.694451
v 0.818867 1 0.761687
v 0.761687 1 0.818867
v 0.694451 1 0.863793
v 0.619742 1 0.894738
v 0.540432 1 0.910514
v 0.459568 1 0.910514
v 0.380258 1 0.894738
v 0.305549 1 0.863793
v 0.238313 1 0.818867
v 0.181133 1 0.761687
v 0.136207 1 0.694451
v 0.105262 1 0.619742
v 0.089486 1 0.540432
v 0.089486 1 0.459568
v 0.105262 1 0.380258
v 0.136207 1 0.305549
v 0.181133 1 0.238313
v 0.238313 1 0.181133
v 0.305549 1 0.136207
v 0.380258 1 0.105262
v 0.459568 1 0.089486
v 0.540432 1 0.089486
v 0.619742 1 0.105262
v 0.694451 1 0.136207
v 0.761687 1 0.181133
v 0.818867 1 0.238313
v 0.863793 1 0.305549
v 0.894738 1 0.380258
v 0.910514 1 0.459568
v 0.873194 1 0.536756
v 0.858853 1 0.608857
v 0.83072 1 0.676774
v 0.789879 1 0.737897
v 0.737897 1 0.789879
v 0.676774 1 0.83072
v 0.608857 1 0.858853
v 0.536756 1 0.873194
v 0.463244 1 0.873194
v 0.391143 1 0.858853
v 0.323226 1 0.83072
v 0.262103 1 0.789879
v 0.210121 1 0.737897
v 0.16928 1 0.676774
v 0.141147 1 0.608857
v 0.126806 1 0.536756
v 0.126806 1 0.463244
v 0.141147 1 0.391143
v 0.16928 1 0.323226
v 0.210121 1 0.262103
v 0.262103 1 0.210121
v 0.323226 1 0.16928
v 0.391143 1 0.141147
v 0.463244 1 0.126806
v 0.536756 1 0.126806
v 0.608857 1 0.141147
v 0.676774 1 0.16928
v 0.737897 1 0.210121
v 0.789879 1 0.262103
v 0.83072 1 0.323226
v 0.858853 1 0.391143
v 0.873194 1 0.463244
v 0.873194 0.9625 0.536756
v 0.858853 0.9625 0.608857
v 0.83072 0.9625 0.676774
v 0.789879 0.9625 0.737897
v 0.737897 0.9625 0.789879
v 0.676774 0.9625 0.83072
v 0.608857 0.9625 0.858853
v 0.536756 0.9625 0.873194
v 0.463244 0.9625 0.873194
v 0.391143 0.9625 0.858853
v 0.323226 0.9625 0.83072
v 0.262103 0.9625 0.789879
v 0.210121 0.9625 0.737897
v 0.16928 0.9625 0.676774
v 0.141147 0.9625 0.608857
v 0.126806 0.9625 0.536756
v 0.126806 0.9625 0.463244
v 0.141147 0.9625 0.391143
v 0.16928 0.9625 0.323226
v 0.210121 0.9625 0.262103
v 0.262103 0.9625 0.210121
v 0.323226 0.9625 0.16928
v 0.391143 0.9625 0.141147
v 0.463244 0.9625 0.126806
v 0.536756 0.9625 0.126806
v 0.608857 0.9625 0.141147
v 0.676774 0.9625 0.16928
v 0.737897 0.9625 0.210121
v 0.789879 0.9625 0.262103
v 0.83072 0.9625 0.323226
v 0.858853 0.9625 0.391143
v 0.873194 0.9625 0.463244
vt 0.226014 0.623943
vt 0.232773 0.622598
vt 0.233794 0.625962
vt 0.226358 0.627441
vt 0.232773 0.622598
vt 0.23914 0.619961
vt 0.240797 0.623061
vt 0.233794 0.625962
vt 0.23914 0.619961
vt 0.244871 0.616132
vt 0.247101 0.61885
vt 0.240797 0.623061
vt 0.244871 0.616132
vt 0.249744 0.611259
vt 0.252461 0.613489
vt 0.247101 0.61885
vt 0.249744 0.611259
vt 0.253573 0.605528
vt 0.256673 0.607186
vt 0.252461 0.613489
vt 0.253573 0.605528
vt 0.25621 0.599161
vt 0.259574 0.600182
vt 0.256673 0.607186
vt 0.25621 0.599161
vt 0.257555 0.592402
vt 0.261053 0.592746
vt 0.259574 0.600182
vt 0.257555 0.592402
vt 0.257555 0.58551
vt 0.261053 0.585165
vt 0.261053 0.592746
vt 0.257555 0.58551
vt 0.25621 0.57875
vt 0.259574 0.57773
vt 0.261053 0.585165
vt 0.25621 0.57875
vt 0.253573 0.572383
vt 0.256673 0.570726
vt 0.259574 0.57773
vt 0.253573 0.572383
vt 0.249744 0.566653
vt 0.252461 0.564423
vt 0.256673 0.570726
vt 0.249744 0.566653
vt 0.244871 0.56178
vt 0.247101 0.559062
vt 0.252461 0.564423
vt 0.244871 0.56178
vt 0.23914 0.557951
vt 0.240797 0.55485
vt 0.247101 0.559062
vt 0.23914 0.557951
vt 0.232773 0.555313
vt 0.233794 0.551949
vt 0.240797 0.55485
vt 0.232773 0.555313
vt 0.226014 0.553969
vt 0.226358 0.55047
vt 0.233794 0.551949
vt 0.226014 0.553969
vt 0.219122 0.553969
vt 0.218777 0.55047
vt 0.226358 0.55047
vt 0.219122 0.553969
vt 0.212362 0.555313
vt 0.211342 0.551949
vt 0.218777 0.55047
vt 0.212362 0.555313
vt 0.205995 0.557951
vt 0.204338 0.55485
vt 0.211342 0.551949
vt 0.205995 0.557951
vt 0.200265 0.56178
vt 0.198035 0.559062
vt 0.204338 0.55485
vt 0.200265 0.56178
vt 0.195392 0.566653
vt 0.192674 0.564423
vt 0.198035 0.559062
vt 0.195392 0.566653
vt 0.191563 0.572383
vt 0.188462 0.570726
vt 0.192674 0.564423
vt 0.191563 0.572383
vt 0.188925 0.57875
vt 0.185561 0.57773
vt 0.188462 0.570726
vt 0.188925 0.57875
vt 0.187581 0.58551
vt 0.184082 0.585165
vt 0.185561 0.57773
vt 0.187581 0.58551
vt 0.187581 0.592402
vt 0.184082 0.592746
vt 0.184082 0.585165
vt 0.187581 0.592402
vt 0.188925 0.599161
vt 0.185561 0.600182
vt 0.184082 0.592746
vt 0.188925 0.599161
vt 0.191563 0.605528
vt 0.188462 0.607186
vt 0.185561 0.600182
vt 0.191563 0.605528
vt 0.195392 0.611259
vt 0.192674 0.613489
vt 0.188462 0.607186
vt 0.195392 0.611259
vt 0.200265 0.616132
vt 0.198035 0.61885
vt 0.192674 0.613489
vt 0.200265 0.616132
vt 0.205995 0.619961
vt 0.204338 0.623061
vt 0.198035 0.61885
vt 0.205995 0.619961
vt 0.212362 0.622598
vt 0.211342 0.625962
vt 0.204338 0.623061
vt 0.212362 0.622598
vt 0.219122 0.623943
vt 0.218777 0.627441
vt 0.211342 0.625962
vt 0.219122 0.623943
vt 0.226014 0.623943
vt 0.226358 0.627441
vt 0.218777 0.627441
vt 0.442795 0.129785
vt 0.449686 0.129785
vt 0.449686 0.133301
vt 0.442795 0.133301
vt 0.449686 0.129785
vt 0.456446 0.129785
vt 0.456446 0.133301
vt 0.449686 0.133301
vt 0.617676 0.129785
vt 0.624534 0.129785
vt 0.624534 0.133301
vt 0.617676 0.133301
vt 0.624534 0.129785
vt 0.631393 0.129785
vt 0.631393 0.133301
vt 0.624534 0.133301
vt 0.529785 0.129785
vt 0.536644 0.129785
vt 0.536644 0.133301
vt 0.529785 0.133301
vt 0.536644 0.129785
vt 0.543502 0.129785
vt 0.543502 0.133301
vt 0.536644 0.133301
vt 0.547363 0.129785
vt 0.554222 0.129785
vt 0.554222 0.133301
vt 0.547363 0.133301
vt 0.554222 0.129785
vt 0.561081 0.129785
vt 0.561081 0.133301
vt 0.554222 0.133301
vt 0.564941 0.129785
vt 0.5718 0.129785
vt 0.5718 0.133301
vt 0.564941 0.133301
vt 0.5718 0.129785
vt 0.578659 0.129785
vt 0.578659 0.133301
vt 0.5718 0.133301
vt 0.525924 0.133301
vt 0.519066 0.133301
vt 0.519066 0.129785
vt 0.525924 0.129785
vt 0.519066 0.133301
vt 0.512207 0.133301
vt 0.512207 0.129785
vt 0.519066 0.129785
vt 0.596237 0.133301
vt 0.589378 0.133301
vt 0.589378 0.129785
vt 0.596237 0.129785
vt 0.589378 0.133301
vt 0.58252 0.133301
vt 0.58252 0.129785
vt 0.589378 0.129785
vt 0.613815 0.133301
vt 0.606956 0.133301
vt 0.606956 0.129785
vt 0.613815 0.129785
vt 0.606956 0.133301
vt 0.600098 0.133301
vt 0.600098 0.129785
vt 0.606956 0.129785
vt 0.648971 0.133301
vt 0.642113 0.133301
vt 0.642113 0.129785
vt 0.648971 0.129785
vt 0.642113 0.133301
vt 0.635254 0.133301
vt 0.635254 0.129785
vt 0.642113 0.129785
vt 0.684127 0.133301
vt 0.677269 0.133301
vt 0.677269 0.129785
vt 0.684127 0.129785
vt 0.677269 0.133301
vt 0.67041 0.133301
vt 0.67041 0.129785
vt 0.677269 0.129785
vt 0.47319 0.133301
vt 0.466331 0.133301
vt 0.466331 0.129785
vt 0.47319 0.129785
vt 0.466331 0.133301
vt 0.459473 0.133301
vt 0.459473 0.129785
vt 0.466331 0.129785
vt 0.652832 0.129785
vt 0.659691 0.129785
vt 0.659691 0.133301
vt 0.652832 0.133301
vt 0.659691 0.129785
vt 0.666549 0.129785
vt 0.666549 0.133301
vt 0.659691 0.133301
vt 0.477051 0.129785
vt 0.483909 0.129785
vt 0.483909 0.133301
vt 0.477051 0.133301
vt 0.483909 0.129785
vt 0.490768 0.129785
vt 0.490768 0.133301
vt 0.483909 0.133301
vt 0.687988 0.129785
vt 0.694847 0.129785
vt 0.694847 0.133301
vt 0.687988 0.133301
vt 0.694847 0.129785
vt 0.701706 0.129785
vt 0.701706 0.133301
vt 0.694847 0.133301
vt 0.494629 0.129785
vt 0.501488 0.129785
vt 0.501488 0.133301
vt 0.494629 0.133301
vt 0.501488 0.129785
vt 0.508346 0.129785
vt 0.508346 0.133301
vt 0.501488 0.133301
vt 0.228027 0.122949
vt 0.234919 0.122949
vt 0.234919 0.126465
vt 0.228027 0.126465
vt 0.436035 0.129785
vt 0.442795 0.129785
vt 0.442795 0.133301
vt 0.436035 0.133301
vn 0 1 0
vn -0.995185 0 -0.098017
vn -0.95694 0 -0.290285
vn -0.881921 0 -0.471397
vn -0.77301 0 -0.634393
vn -0.634393 0 -0.77301
vn -0.471397 0 -0.881921
vn -0.290285 0 -0.95694
vn -0.098017 0 -0.995185
vn 0.098017 0 -0.995185
vn 0.290285 0 -0.95694
vn 0.471397 0 -0.881921
vn 0.634393 0 -0.77301
vn 0.77301 0 -0.634393
vn 0.881921 0 -0.471397
vn 0.95694 0 -0.290285
vn 0.995185 0 -0.098017
vn 0.995185 0 0.098017
vn 0.95694 0 0.290285
vn 0.881921 0 0.471397
vn 0.77301 0 0.634393
vn 0.634393 0 0.77301
vn 0.471397 0 0.881921
vn 0.290285 0 0.95694
vn 0.098017 0 0.995185
vn -0.098017 0 0.995185
vn -0.290285 0 0.95694
vn -0.471397 0 0.881921
vn -0.634393 0 0.77301
vn -0.77301 0 0.634393
vn -0.881921 0 0.471397
vn -0.95694 0 0.290285
vn -0.995185 0 0.098017
f 177/361/39 178/362/39 146/363/39 145/364/39
f 178/365/39 179/366/39 147/367/39 146/368/39
f 179/369/39 180/370/39 148/371/39 147/372/39
f 180/373/39 181/374/39 149/375/39 148/376/39
f 181/377/39 182/378/39 150/379/39 149/380/39
f 182/381/39 183/382/39 151/383/39 150/384/39
f 183/385/39 184/386/39 152/387/39 151/388/39
f 184/389/39 185/390/39 153/391/39 152/392/39
f 185/393/39 186/394/39 154/395/39 153/396/39
f 186/397/39 187/398/39 155/399/39 154/400/39
f 187/401/39 188/402/39 156/403/39 155/404/39
f 188/405/39 189/406/39 157/407/39 156/408/39
f 189/409/39 190/410/39 158/411/39 157/412/39
f 190/413/39 191/414/39 159/415/39 158/416/39
f 191/417/39 192/418/39 160/419/39 159/420/39
f 192/421/39 193/422/39 161/423/39 160/424/39
f 193/425/39 194/426/39 162/427/39 161/428/39
f 194/429/39 195/430/39 163/431/39 162/432/39
f 195/433/39 196/434/39 164/435/39 163/436/39
f 196/437/39 197/438/39 165/439/39 164/440/39
f 197/441/39 198/442/39 166/443/39 165/444/39
f 198/445/39 199/446/39 167/447/39 166/448/39
f 199/449/39 200/450/39 168/451/39 167/452/39
f 200/453/39 201/454/39 169/455/39 168/456/39
f 201/457/39 202/458/39 170/459/39 169/460/39
f 202/461/39 203/462/39 171/463/39 170/464/39
f 203/465/39 204/466/39 172/467/39 171/468/39
f 204/469/39 205/470/39 173/471/39 172/472/39
f 205/473/39 206/474/39 174/475/39 173/476/39
f 206/477/39 207/478/39 175/479/39 174/480/39
f 207/481/39 208/482/39 176/483/39 175/484/39
f 208/485/39 177/486/39 145/487/39 176/488/39
f 209/489/40 210/490/41 178/491/41 177/492/40
f 210/493/41 211/494/42 179/495/42 178/496/41
f 211/497/42 212/498/43 180/499/43 179/500/42
f 212/501/43 213/502/44 181/503/44 180/504/43
f 213/505/44 214/506/45 182/507/45 181/508/44
f 214/509/45 215/510/46 183/511/46 182/512/45
f 215/513/46 216/514/47 184/515/47 183/516/46
f 216/517/47 217/518/48 185/519/48 184/520/47
f 217/521/48 218/522/49 186/523/49 185/524/48
f 218/525/49 219/526/50 187/527/50 186/528/49
f 219/529/50 220/530/51 188/531/51 187/532/50
f 220/533/51 221/534/52 189/535/52 188/536/51
f 221/537/52 222/538/53 190/539/53 189/540/52
f 222/541/53 223/542/54 191/543/54 190/544/53
f 223/545/54 224/546/55 192/547/55 191/548/54
f 224/549/55 225/550/56 193/551/56 192/552/55
f 225/553/56 226/554/57 194/555/57 193/556/56
f 226/557/57 227/558/58 195/559/58 194/560/57
f 227/561/58 228/562/59 196/563/59 195/564/58
f 228/565/59 229/566/60 197/567/60 196/568/59
f 229/569/60 230/570/61 198/571/61 197/572/60
f 230/573/61 231/574/62 199/575/62 198/576/61
f 231/577/62 232/578/63 200/579/63 199/580/62
f 232/581/63 233/582/64 201/583/64 200/584/63
f 233/585/64 234/586/65 202/587/65 201/588/64
f 234/589/65 235/590/66 203/591/66 202/592/65
f 235/593/66 236/594/67 204/595/67 203/596/66
f 236/597/67 237/598/68 205/599/68 204/600/67
f 237/601/68 238/602/69 206/603/69 205/604/68
f 238/605/69 239/606/70 207/607/70 206/608/69
f 239/609/70 240/610/71 208/611/71 207/612/70
f 240/613/71 209/614/40 177/615/40 208/616/71
o pump_manhole_cover__frame__shaft
usemtl fuel_station_sump
v 0.873194 0.9625 0.536756
v 0.858853 0.9625 0.608857
v 0.83072 0.9625 0.676774
v 0.789879 0.9625 0.737897
v 0.737897 0.9625 0.789879
v 0.676774 0.9625 0.83072
v 0.608857 0.9625 0.858853
v 0.536756 0.9625 0.873194
v 0.463244 0.9625 0.873194
v 0.391143 0.9625 0.858853
v 0.323226 0.9625 0.83072
v 0.262103 0.9625 0.789879
v 0.210121 0.9625 0.737897
v 0.16928 0.9625 0.676774
v 0.141147 0.9625 0.608857
v 0.126806 0.9625 0.536756
v 0.126806 0.9625 0.463244
v 0.141147 0.9625 0.391143
v 0.16928 0.9625 0.323226
v 0.210121 0.9625 0.262103
v 0.262103 0.9625 0.210121
v 0.323226 0.9625 0.16928
v 0.391143 0.9625 0.141147
v 0.463244 0.9625 0.126806
v 0.536756 0.9625 0.126806
v 0.608857 0.9625 0.141147
v 0.676774 0.9625 0.16928
v 0.737897 0.9625 0.210121
v 0.789879 0.9625 0.262103
v 0.83072 0.9625 0.323226
v 0.858853 0.9625 0.391143
v 0.873194 0.9625 0.463244
v 0.873194 0 0.536756
v 0.858853 0 0.608857
v 0.83072 0 0.676774
v 0.789879 0 0.737897
v 0.737897 0 0.789879
v 0.676774 0 0.83072
v 0.608857 0 0.858853
v 0.536756 0 0.873194
v 0.463244 0 0.873194
v 0.391143 0 0.858853
v 0.323226 0 0.83072
v 0.262103 0 0.789879
v 0.210121 0 0.737897
v 0.16928 0 0.676774
v 0.141147 0 0.608857
v 0.126806 0 0.536756
v 0.126806 0 0.463244
v 0.141147 0 0.391143
v 0.16928 0 0.323226
v 0.210121 0 0.262103
v 0.262103 0 0.210121
v 0.323226 0 0.16928
v 0.391143 0 0.141147
v 0.463244 0 0.126806
v 0.536756 0 0.126806
v 0.608857 0 0.141147
v 0.676774 0 0.16928
v 0.737897 0 0.210121
v 0.789879 0 0.262103
v 0.83072 0 0.323226
v 0.858853 0 0.391143
v 0.873194 0 0.463244
v 0.960273 0 0.545333
v 0.942585 0 0.634257
v 0.907889 0 0.718021
v 0.857517 0 0.793407
v 0.793407 0 0.857517
v 0.718021 0 0.907889
v 0.634257 0 0.942585
v 0.545333 0 0.960273
v 0.454667 0 0.960273
v 0.365743 0 0.942585
v 0.281979 0 0.907889
v 0.206593 0 0.857517
v 0.142483 0 0.793407
v 0.092111 0 0.718021
v 0.057415 0 0.634257
v 0.039727 0 0.545333
v 0.039727 0 0.454667
v 0.057415 0 0.365743
v 0.092111 0 0.281979
v 0.142483 0 0.206593
v 0.206593 0 0.142483
v 0.281979 0 0.092111
v 0.365743 0 0.057415
v 0.454667 0 0.039727
v 0.545333 0 0.039727
v 0.634257 0 0.057415
v 0.718021 0 0.092111
v 0.793407 0 0.142483
v 0.857517 0 0.206593
v 0.907889 0 0.281979
v 0.942585 0 0.365743
v 0.960273 0 0.454667
v 0.960273 0.925 0.545333
v 0.942585 0.925 0.634257
v 0.907889 0.925 0.718021
v 0.857517 0.925 0.793407
v 0.793407 0.925 0.857517
v 0.718021 0.925 0.907889
v 0.634257 0.925 0.942585
v 0.545333 0.925 0.960273
v 0.454667 0.925 0.960273
v 0.365743 0.925 0.942585
v 0.281979 0.925 0.907889
v 0.206593 0.925 0.857517
v 0.142483 0.925 0.793407
v 0.092111 0.925 0.718021
v 0.057415 0.925 0.634257
v 0.039727 0.925 0.545333
v 0.039727 0.925 0.454667
v 0.057415 0.925 0.365743
v 0.092111 0.925 0.281979
v 0.142483 0.925 0.206593
v 0.206593 0.925 0.142483
v 0.281979 0.925 0.092111
v 0.365743 0.925 0.057415
v 0.454667 0.925 0.039727
v 0.545333 0.925 0.039727
v 0.634257 0.925 0.057415
v 0.718021 0.925 0.092111
v 0.793407 0.925 0.142483
v 0.857517 0.925 0.206593
v 0.907889 0.925 0.281979
v 0.942585 0.925 0.365743
v 0.960273 0.925 0.454667
vt 0.799707 0.389181
vt 0.799707 0.396073
vt 0.709473 0.396073
vt 0.709473 0.389181
vt 0.799707 0.396073
vt 0.799707 0.402832
vt 0.709473 0.402832
vt 0.709473 0.396073
vt 0.280176 0.298294
vt 0.280176 0.305153
vt 0.189941 0.305153
vt 0.189941 0.298294
vt 0.280176 0.305153
vt 0.280176 0.312012
vt 0.189941 0.312012
vt 0.189941 0.305153
vt 0.186426 0.298294
vt 0.186426 0.305153
vt 0.096191 0.305153
vt 0.096191 0.298294
vt 0.186426 0.305153
vt 0.186426 0.312012
vt 0.096191 0.312012
vt 0.096191 0.305153
vt 0.769043 0.33252
vt 0.769043 0.325661
vt 0.859277 0.325661
vt 0.859277 0.33252
vt 0.769043 0.325661
vt 0.769043 0.318802
vt 0.859277 0.318802
vt 0.859277 0.325661
vt 0.862793 0.33252
vt 0.862793 0.325661
vt 0.953027 0.325661
vt 0.953027 0.33252
vt 0.862793 0.325661
vt 0.862793 0.318802
vt 0.953027 0.318802
vt 0.953027 0.325661
vt 0.581543 0.33252
vt 0.581543 0.325661
vt 0.671777 0.325661
vt 0.671777 0.33252
vt 0.581543 0.325661
vt 0.581543 0.318802
vt 0.671777 0.318802
vt 0.671777 0.325661
vt 0.675293 0.33252
vt 0.675293 0.325661
vt 0.765527 0.325661
vt 0.765527 0.33252
vt 0.675293 0.325661
vt 0.675293 0.318802
vt 0.765527 0.318802
vt 0.765527 0.325661
vt 0.002441 0.312012
vt 0.002441 0.305153
vt 0.092676 0.305153
vt 0.092676 0.312012
vt 0.002441 0.305153
vt 0.002441 0.298294
vt 0.092676 0.298294
vt 0.092676 0.305153
vt 0.283691 0.312012
vt 0.283691 0.305153
vt 0.373926 0.305153
vt 0.373926 0.312012
vt 0.283691 0.305153
vt 0.283691 0.298294
vt 0.373926 0.298294
vt 0.373926 0.305153
vt 0.471191 0.312012
vt 0.471191 0.305153
vt 0.561426 0.305153
vt 0.561426 0.312012
vt 0.471191 0.305153
vt 0.471191 0.298294
vt 0.561426 0.298294
vt 0.561426 0.305153
vt 0.300293 0.33252
vt 0.300293 0.325661
vt 0.390527 0.325661
vt 0.390527 0.33252
vt 0.300293 0.325661
vt 0.300293 0.318802
vt 0.390527 0.318802
vt 0.390527 0.325661
vt 0.377441 0.312012
vt 0.377441 0.305153
vt 0.467676 0.305153
vt 0.467676 0.312012
vt 0.377441 0.305153
vt 0.377441 0.298294
vt 0.467676 0.298294
vt 0.467676 0.305153
vt 0.394043 0.33252
vt 0.394043 0.325661
vt 0.484277 0.325661
vt 0.484277 0.33252
vt 0.394043 0.325661
vt 0.394043 0.318802
vt 0.484277 0.318802
vt 0.484277 0.325661
vt 0.655176 0.298294
vt 0.655176 0.305153
vt 0.564941 0.305153
vt 0.564941 0.298294
vt 0.655176 0.305153
vt 0.655176 0.312012
vt 0.564941 0.312012
vt 0.564941 0.305153
vt 0.578027 0.318802
vt 0.578027 0.325661
vt 0.487793 0.325661
vt 0.487793 0.318802
vt 0.578027 0.325661
vt 0.578027 0.33252
vt 0.487793 0.33252
vt 0.487793 0.325661
vt 0.654199 0.194768
vt 0.654199 0.20166
vt 0.563965 0.20166
vt 0.563965 0.194768
vt 0.799707 0.382421
vt 0.799707 0.389181
vt 0.709473 0.389181
vt 0.709473 0.382421
vt 0.620154 0.630984
vt 0.628491 0.632642
vt 0.62611 0.640492
vt 0.61935 0.639148
vt 0.628491 0.632642
vt 0.636344 0.635895
vt 0.632477 0.64313
vt 0.62611 0.640492
vt 0.636344 0.635895
vt 0.643411 0.640617
vt 0.638207 0.646958
vt 0.632477 0.64313
vt 0.643411 0.640617
vt 0.649422 0.646628
vt 0.643081 0.651832
vt 0.638207 0.646958
vt 0.649422 0.646628
vt 0.654144 0.653695
vt 0.64691 0.657562
vt 0.643081 0.651832
vt 0.654144 0.653695
vt 0.657397 0.661548
vt 0.649547 0.663929
vt 0.64691 0.657562
vt 0.657397 0.661548
vt 0.659055 0.669885
vt 0.650891 0.670689
vt 0.649547 0.663929
vt 0.659055 0.669885
vt 0.659055 0.678385
vt 0.650891 0.67758
vt 0.650891 0.670689
vt 0.659055 0.678385
vt 0.657397 0.686721
vt 0.649547 0.68434
vt 0.650891 0.67758
vt 0.657397 0.686721
vt 0.654144 0.694574
vt 0.64691 0.690707
vt 0.649547 0.68434
vt 0.654144 0.694574
vt 0.649422 0.701641
vt 0.643081 0.696437
vt 0.64691 0.690707
vt 0.649422 0.701641
vt 0.643411 0.707652
vt 0.638207 0.701311
vt 0.643081 0.696437
vt 0.643411 0.707652
vt 0.636344 0.712374
vt 0.632477 0.70514
vt 0.638207 0.701311
vt 0.636344 0.712374
vt 0.628491 0.715627
vt 0.62611 0.707777
vt 0.632477 0.70514
vt 0.628491 0.715627
vt 0.620154 0.717285
vt 0.61935 0.709122
vt 0.62611 0.707777
vt 0.620154 0.717285
vt 0.611655 0.717285
vt 0.612459 0.709122
vt 0.61935 0.709122
vt 0.611655 0.717285
vt 0.603318 0.715627
vt 0.605699 0.707777
vt 0.612459 0.709122
vt 0.603318 0.715627
vt 0.595465 0.712374
vt 0.599332 0.70514
vt 0.605699 0.707777
vt 0.595465 0.712374
vt 0.588398 0.707652
vt 0.593602 0.701311
vt 0.599332 0.70514
vt 0.588398 0.707652
vt 0.582387 0.701641
vt 0.588728 0.696437
vt 0.593602 0.701311
vt 0.582387 0.701641
vt 0.577665 0.694574
vt 0.584899 0.690707
vt 0.588728 0.696437
vt 0.577665 0.694574
vt 0.574412 0.686721
vt 0.582262 0.68434
vt 0.584899 0.690707
vt 0.574412 0.686721
vt 0.572754 0.678385
vt 0.580918 0.67758
vt 0.582262 0.68434
vt 0.572754 0.678385
vt 0.572754 0.669885
vt 0.580918 0.670689
vt 0.580918 0.67758
vt 0.572754 0.669885
vt 0.574412 0.661548
vt 0.582262 0.663929
vt 0.580918 0.670689
vt 0.574412 0.661548
vt 0.577665 0.653695
vt 0.584899 0.657562
vt 0.582262 0.663929
vt 0.577665 0.653695
vt 0.582387 0.646628
vt 0.588728 0.651832
vt 0.584899 0.657562
vt 0.582387 0.646628
vt 0.588398 0.640617
vt 0.593602 0.646958
vt 0.588728 0.651832
vt 0.588398 0.640617
vt 0.595465 0.635895
vt 0.599332 0.64313
vt 0.593602 0.646958
vt 0.595465 0.635895
vt 0.603318 0.632642
vt 0.605699 0.640492
vt 0.599332 0.64313
vt 0.603318 0.632642
vt 0.611655 0.630984
vt 0.612459 0.639148
vt 0.605699 0.640492
vt 0.611655 0.630984
vt 0.620154 0.630984
vt 0.61935 0.639148
vt 0.612459 0.639148
vt 0.604785 0.385996
vt 0.604785 0.394495
vt 0.518066 0.394495
vt 0.518066 0.385996
vt 0.604785 0.394495
vt 0.604785 0.402832
vt 0.518066 0.402832
vt 0.518066 0.394495
vt 0.448535 0.336109
vt 0.448535 0.344568
vt 0.361816 0.344568
vt 0.361816 0.336109
vt 0.448535 0.344568
vt 0.448535 0.353027
vt 0.361816 0.353027
vt 0.361816 0.344568
vt 0.538379 0.336109
vt 0.538379 0.344568
vt 0.45166 0.344568
vt 0.45166 0.336109
vt 0.538379 0.344568
vt 0.538379 0.353027
vt 0.45166 0.353027
vt 0.45166 0.344568
vt 0.628223 0.336109
vt 0.628223 0.344568
vt 0.541504 0.344568
vt 0.541504 0.336109
vt 0.628223 0.344568
vt 0.628223 0.353027
vt 0.541504 0.353027
vt 0.541504 0.344568
vt 0.718066 0.336109
vt 0.718066 0.344568
vt 0.631348 0.344568
vt 0.631348 0.336109
vt 0.718066 0.344568
vt 0.718066 0.353027
vt 0.631348 0.353027
vt 0.631348 0.344568
vt 0.721191 0.353027
vt 0.721191 0.344568
vt 0.80791 0.344568
vt 0.80791 0.353027
vt 0.721191 0.344568
vt 0.721191 0.336109
vt 0.80791 0.336109
vt 0.80791 0.344568
vt 0.900879 0.353027
vt 0.900879 0.344568
vt 0.987598 0.344568
vt 0.987598 0.353027
vt 0.900879 0.344568
vt 0.900879 0.336109
vt 0.987598 0.336109
vt 0.987598 0.344568
vt 0.271973 0.353027
vt 0.271973 0.344568
vt 0.358691 0.344568
vt 0.358691 0.353027
vt 0.271973 0.344568
vt 0.271973 0.336109
vt 0.358691 0.336109
vt 0.358691 0.344568
vt 0.811035 0.353027
vt 0.811035 0.344568
vt 0.897754 0.344568
vt 0.897754 0.353027
vt 0.811035 0.344568
vt 0.811035 0.336109
vt 0.897754 0.336109
vt 0.897754 0.344568
vt 0.182129 0.33252
vt 0.182129 0.324061
vt 0.268848 0.324061
vt 0.268848 0.33252
vt 0.182129 0.324061
vt 0.182129 0.315602
vt 0.268848 0.315602
vt 0.268848 0.324061
vt 0.002441 0.353027
vt 0.002441 0.344568
vt 0.08916 0.344568
vt 0.08916 0.353027
vt 0.002441 0.344568
vt 0.002441 0.336109
vt 0.08916 0.336109
vt 0.08916 0.344568
vt 0.08916 0.315602
vt 0.08916 0.324061
vt 0.002441 0.324061
vt 0.002441 0.315602
vt 0.08916 0.324061
vt 0.08916 0.33252
vt 0.002441 0.33252
vt 0.002441 0.324061
vt 0.179004 0.336109
vt 0.179004 0.344568
vt 0.092285 0.344568
vt 0.092285 0.336109
vt 0.179004 0.344568
vt 0.179004 0.353027
vt 0.092285 0.353027
vt 0.092285 0.344568
vt 0.179004 0.315602
vt 0.179004 0.324061
vt 0.092285 0.324061
vt 0.092285 0.315602
vt 0.179004 0.324061
vt 0.179004 0.33252
vt 0.092285 0.33252
vt 0.092285 0.324061
vt 0.268848 0.336109
vt 0.268848 0.344568
vt 0.182129 0.344568
vt 0.182129 0.336109
vt 0.268848 0.344568
vt 0.268848 0.353027
vt 0.182129 0.353027
vt 0.182129 0.344568
vt 0.909473 0.259566
vt 0.909473 0.268066
vt 0.822754 0.268066
vt 0.822754 0.259566
vt 0.604785 0.377659
vt 0.604785 0.385996
vt 0.518066 0.385996
vt 0.518066 0.377659
vn -0.995185 0 -0.098017
vn -0.95694 0 -0.290285
vn -0.881921 0 -0.471397
vn -0.77301 0 -0.634393
vn -0.634393 0 -0.77301
vn -0.471397 0 -0.881921
vn -0.290285 0 -0.95694
vn -0.098017 0 -0.995185
vn 0.098017 0 -0.995185
vn 0.290285 0 -0.95694
vn 0.471397 0 -0.881921
vn 0.634393 0 -0.77301
vn 0.77301 0 -0.634393
vn 0.881921 0 -0.471397
vn 0.95694 0 -0.290285
vn 0.995185 0 -0.098017
vn 0.995185 0 0.098017
vn 0.95694 0 0.290285
vn 0.881921 0 0.471397
vn 0.77301 0 0.634393
vn 0.634393 0 0.77301
vn 0.471397 0 0.881921
vn 0.290285 0 0.95694
vn 0.098017 0 0.995185
vn -0.098017 0 0.995185
vn -0.290285 0 0.95694
vn -0.471397 0 0.881921
vn -0.634393 0 0.77301
vn -0.77301 0 0.634393
vn -0.881921 0 0.471397
vn -0.95694 0 0.290285
vn -0.995185 0 0.098017
vn 0 -1 0
f 273/617/72 274/618/73 242/619/73 241/620/72
f 274/621/73 275/622/74 243/623/74 242/624/73
f 275/625/74 276/626/75 244/627/75 243/628/74
f 276/629/75 277/630/76 245/631/76 244/632/75
f 277/633/76 278/634/77 246/635/77 245/636/76
f 278/637/77 279/638/78 247/639/78 246/640/77
f 279/641/78 280/642/79 248/643/79 247/644/78
f 280/645/79 281/646/80 249/647/80 248/648/79
f 281/649/80 282/650/81 250/651/81 249/652/80
f 282/653/81 283/654/82 251/655/82 250/656/81
f 283/657/82 284/658/83 252/659/83 251/660/82
f 284/661/83 285/662/84 253/663/84 252/664/83
f 285/665/84 286/666/85 254/667/85 253/668/84
f 286/669/85 287/670/86 255/671/86 254/672/85
f 287/673/86 288/674/87 256/675/87 255/676/86
f 288/677/87 289/678/88 257/679/88 256/680/87
f 289/681/88 290/682/89 258/683/89 257/684/88
f 290/685/89 291/686/90 259/687/90 258/688/89
f 291/689/90 292/690/91 260/691/91 259/692/90
f 292/693/91 293/694/92 261/695/92 260/696/91
f 293/697/92 294/698/93 262/699/93 261/700/92
f 294/701/93 295/702/94 263/703/94 262/704/93
f 295/705/94 296/706/95 264/707/95 263/708/94
f 296/709/95 297/710/96 265/711/96 264/712/95
f 297/713/96 298/714/97 266/715/97 265/716/96
f 298/717/97 299/718/98 267/719/98 266/720/97
f 299/721/98 300/722/99 268/723/99 267/724/98
f 300/725/99 301/726/100 269/727/100 268/728/99
f 301/729/100 302/730/101 270/731/101 269/732/100
f 302/733/101 303/734/102 271/735/102 270/736/101
f 303/737/102 304/738/103 272/739/103 271/740/102
f 304/741/103 273/742/72 241/743/72 272/744/103
f 305/745/104 306/746/104 274/747/104 273/748/104
f 306/749/104 307/750/104 275/751/104 274/752/104
f 307/753/104 308/754/104 276/755/104 275/756/104
f 308/757/104 309/758/104 277/759/104 276/760/104
f 309/761/104 310/762/104 278/763/104 277/764/104
f 310/765/104 311/766/104 279/767/104 278/768/104
f 311/769/104 312/770/104 280/771/104 279/772/104
f 312/773/104 313/774/104 281/775/104 280/776/104
f 313/777/104 314/778/104 282/779/104 281/780/104
f 314/781/104 315/782/104 283/783/104 282/784/104
f 315/785/104 316/786/104 284/787/104 283/788/104
f 316/789/104 317/790/104 285/791/104 284/792/104
f 317/793/104 318/794/104 286/795/104 285/796/104
f 318/797/104 319/798/104 287/799/104 286/800/104
f 319/801/104 320/802/104 288/803/104 287/804/104
f 320/805/104 321/806/104 289/807/104 288/808/104
f 321/809/104 322/810/104 290/811/104 289/812/104
f 322/813/104 323/814/104 291/815/104 290/816/104
f 323/817/104 324/818/104 292/819/104 291/820/104
f 324/821/104 325/822/104 293/823/104 292/824/104
f 325/825/104 326/826/104 294/827/104 293/828/104
f 326/829/104 327/830/104 295/831/104 294/832/104
f 327/833/104 328/834/104 296/835/104 295/836/104
f 328/837/104 329/838/104 297/839/104 296/840/104
f 329/841/104 330/842/104 298/843/104 297/844/104
f 330/845/104 331/846/104 299/847/104 298/848/104
f 331/849/104 332/850/104 300/851/104 299/852/104
f 332/853/104 333/854/104 301/855/104 300/856/104
f 333/857/104 334/858/104 302/859/104 301/860/104
f 334/861/104 335/862/104 303/863/104 302/864/104
f 335/865/104 336/866/104 304/867/104 303/868/104
f 336/869/104 305/870/104 273/871/104 304/872/104
f 337/873/88 338/874/89 306/875/89 305/876/88
f 338/877/89 339/878/90 307/879/90 306/880/89
f 339/881/90 340/882/91 308/883/91 307/884/90
f 340/885/91 341/886/92 309/887/92 308/888/91
f 341/889/92 342/890/93 310/891/93 309/892/92
f 342/893/93 343/894/94 311/895/94 310/896/93
f 343/897/94 344/898/95 312/899/95 311/900/94
f 344/901/95 345/902/96 313/903/96 312/904/95
f 345/905/96 346/906/97 314/907/97 313/908/96
f 346/909/97 347/910/98 315/911/98 314/912/97
f 347/913/98 348/914/99 316/915/99 315/916/98
f 348/917/99 349/918/100 317/919/100 316/920/99
f 349/921/100 350/922/101 318/923/101 317/924/100
f 350/925/101 351/926/102 319/927/102 318/928/101
f 351/929/102 352/930/103 320/931/103 319/932/102
f 352/933/103 353/934/72 321/935/72 320/936/103
f 353/937/72 354/938/73 322/939/73 321/940/72
f 354/941/73 355/942/74 323/943/74 322/944/73
f 355/945/74 356/946/75 324/947/75 323/948/74
f 356/949/75 357/950/76 325/951/76 324/952/75
f 357/953/76 358/954/77 326/955/77 325/956/76
f 358/957/77 359/958/78 327/959/78 326/960/77
f 359/961/78 360/962/79 328/963/79 327/964/78
f 360/965/79 361/966/80 329/967/80 328/968/79
f 361/969/80 362/970/81 330/971/81 329/972/80
f 362/973/81 363/974/82 331/975/82 330/976/81
f 363/977/82 364/978/83 332/979/83 331/980/82
f 364/981/83 365/982/84 333/983/84 332/984/83
f 365/985/84 366/986/85 334/987/85 333/988/84
f 366/989/85 367/990/86 335/991/86 334/992/85
f 367/993/86 368/994/87 336/995/87 335/996/86
f 368/997/87 337/998/88 305/999/88 336/1000/87
o pump_manhole_cover__lid_closed__lid
usemtl fuel_station_sump
v 0.866974 0.9625 0.536144
v 0.852872 0.9625 0.607042
v 0.825208 0.9625 0.673828
v 0.785048 0.9625 0.733933
v 0.733933 0.9625 0.785048
v 0.673828 0.9625 0.825208
v 0.607042 0.9625 0.852872
v 0.536144 0.9625 0.866974
v 0.463856 0.9625 0.866974
v 0.392958 0.9625 0.852872
v 0.326172 0.9625 0.825208
v 0.266067 0.9625 0.785048
v 0.214952 0.9625 0.733933
v 0.174792 0.9625 0.673828
v 0.147128 0.9625 0.607042
v 0.133026 0.9625 0.536144
v 0.133026 0.9625 0.463856
v 0.147128 0.9625 0.392958
v 0.174792 0.9625 0.326172
v 0.214952 0.9625 0.266067
v 0.266067 0.9625 0.214952
v 0.326172 0.9625 0.174792
v 0.392958 0.9625 0.147128
v 0.463856 0.9625 0.133026
v 0.536144 0.9625 0.133026
v 0.607042 0.9625 0.147128
v 0.673828 0.9625 0.174792
v 0.733933 0.9625 0.214952
v 0.785048 0.9625 0.266067
v 0.825208 0.9625 0.326172
v 0.852872 0.9625 0.392958
v 0.866974 0.9625 0.463856
v 0.866974 0.99875 0.536144
v 0.852872 0.99875 0.607042
v 0.825208 0.99875 0.673828
v 0.785048 0.99875 0.733933
v 0.733933 0.99875 0.785048
v 0.673828 0.99875 0.825208
v 0.607042 0.99875 0.852872
v 0.536144 0.99875 0.866974
v 0.463856 0.99875 0.866974
v 0.392958 0.99875 0.852872
v 0.326172 0.99875 0.825208
v 0.266067 0.99875 0.785048
v 0.214952 0.99875 0.733933
v 0.174792 0.99875 0.673828
v 0.147128 0.99875 0.607042
v 0.133026 0.99875 0.536144
v 0.133026 0.99875 0.463856
v 0.147128 0.99875 0.392958
v 0.174792 0.99875 0.326172
v 0.214952 0.99875 0.266067
v 0.266067 0.99875 0.214952
v 0.326172 0.99875 0.174792
v 0.392958 0.99875 0.147128
v 0.463856 0.99875 0.133026
v 0.536144 0.99875 0.133026
v 0.607042 0.99875 0.147128
v 0.673828 0.99875 0.174792
v 0.733933 0.99875 0.214952
v 0.785048 0.99875 0.266067
v 0.825208 0.99875 0.326172
v 0.852872 0.99875 0.392958
v 0.866974 0.99875 0.463856
v 0.5 0.9625 0.5
v 0.5 0.99875 0.5
vt 0.478815 0.11623
vt 0.485592 0.11623
vt 0.485592 0.119629
vt 0.478815 0.119629
vt 0.485592 0.11623
vt 0.492238 0.11623
vt 0.492238 0.119629
vt 0.485592 0.119629
vt 0.661621 0.11623
vt 0.668365 0.11623
vt 0.668365 0.119629
vt 0.661621 0.119629
vt 0.668365 0.11623
vt 0.67511 0.11623
vt 0.67511 0.119629
vt 0.668365 0.119629
vt 0.54541 0.11623
vt 0.552154 0.11623
vt 0.552154 0.119629
vt 0.54541 0.119629
vt 0.552154 0.11623
vt 0.558899 0.11623
vt 0.558899 0.119629
vt 0.552154 0.119629
vt 0.5755 0.119629
vt 0.568756 0.119629
vt 0.568756 0.11623
vt 0.5755 0.11623
vt 0.568756 0.119629
vt 0.562012 0.119629
vt 0.562012 0.11623
vt 0.568756 0.11623
vt 0.592102 0.119629
vt 0.585358 0.119629
vt 0.585358 0.11623
vt 0.592102 0.11623
vt 0.585358 0.119629
vt 0.578613 0.119629
vt 0.578613 0.11623
vt 0.585358 0.11623
vt 0.658508 0.119629
vt 0.651764 0.119629
vt 0.651764 0.11623
vt 0.658508 0.11623
vt 0.651764 0.119629
vt 0.64502 0.119629
vt 0.64502 0.11623
vt 0.651764 0.11623
vt 0.608704 0.119629
vt 0.601959 0.119629
vt 0.601959 0.11623
vt 0.608704 0.11623
vt 0.601959 0.119629
vt 0.595215 0.119629
vt 0.595215 0.11623
vt 0.601959 0.11623
vt 0.625305 0.119629
vt 0.618561 0.119629
vt 0.618561 0.11623
vt 0.625305 0.11623
vt 0.618561 0.119629
vt 0.611816 0.119629
vt 0.611816 0.11623
vt 0.618561 0.11623
vt 0.641907 0.119629
vt 0.635162 0.119629
vt 0.635162 0.11623
vt 0.641907 0.11623
vt 0.635162 0.119629
vt 0.628418 0.119629
vt 0.628418 0.11623
vt 0.635162 0.11623
vt 0.691711 0.119629
vt 0.684967 0.119629
vt 0.684967 0.11623
vt 0.691711 0.11623
vt 0.684967 0.119629
vt 0.678223 0.119629
vt 0.678223 0.11623
vt 0.684967 0.11623
vt 0.525696 0.119629
vt 0.518951 0.119629
vt 0.518951 0.11623
vt 0.525696 0.11623
vt 0.518951 0.119629
vt 0.512207 0.119629
vt 0.512207 0.11623
vt 0.518951 0.11623
vt 0.708313 0.119629
vt 0.701569 0.119629
vt 0.701569 0.11623
vt 0.708313 0.11623
vt 0.701569 0.119629
vt 0.694824 0.119629
vt 0.694824 0.11623
vt 0.701569 0.11623
vt 0.542297 0.119629
vt 0.535553 0.119629
vt 0.535553 0.11623
vt 0.542297 0.11623
vt 0.535553 0.119629
vt 0.528809 0.119629
vt 0.528809 0.11623
vt 0.535553 0.11623
vt 0.711426 0.11623
vt 0.71817 0.11623
vt 0.71817 0.119629
vt 0.711426 0.119629
vt 0.71817 0.11623
vt 0.724914 0.11623
vt 0.724914 0.119629
vt 0.71817 0.119629
vt 0.495605 0.11623
vt 0.50235 0.11623
vt 0.50235 0.119629
vt 0.495605 0.119629
vt 0.50235 0.11623
vt 0.509094 0.11623
vt 0.509094 0.119629
vt 0.50235 0.119629
vt 0.002441 0.109395
vt 0.009218 0.109395
vt 0.009218 0.112793
vt 0.002441 0.112793
vt 0.472168 0.11623
vt 0.478815 0.11623
vt 0.478815 0.119629
vt 0.472168 0.119629
vt 0.607158 0.593038
vt 0.610546 0.558634
vt 0.617193 0.559956
vt 0.607158 0.593038
vt 0.617193 0.559956
vt 0.623454 0.562549
vt 0.607158 0.593038
vt 0.623454 0.562549
vt 0.629089 0.566314
vt 0.607158 0.593038
vt 0.629089 0.566314
vt 0.633881 0.571106
vt 0.607158 0.593038
vt 0.633881 0.571106
vt 0.637646 0.576741
vt 0.607158 0.593038
vt 0.637646 0.576741
vt 0.640239 0.583002
vt 0.607158 0.593038
vt 0.640239 0.583002
vt 0.641562 0.589649
vt 0.607158 0.593038
vt 0.641562 0.589649
vt 0.641562 0.596426
vt 0.607158 0.593038
vt 0.641562 0.596426
vt 0.640239 0.603073
vt 0.607158 0.593038
vt 0.640239 0.603073
vt 0.637646 0.609334
vt 0.607158 0.593038
vt 0.637646 0.609334
vt 0.633881 0.614969
vt 0.607158 0.593038
vt 0.633881 0.614969
vt 0.629089 0.619761
vt 0.607158 0.593038
vt 0.629089 0.619761
vt 0.623454 0.623526
vt 0.607158 0.593038
vt 0.623454 0.623526
vt 0.617193 0.626119
vt 0.607158 0.593038
vt 0.617193 0.626119
vt 0.610546 0.627441
vt 0.607158 0.593038
vt 0.610546 0.627441
vt 0.603769 0.627441
vt 0.607158 0.593038
vt 0.603769 0.627441
vt 0.597123 0.626119
vt 0.607158 0.593038
vt 0.597123 0.626119
vt 0.590861 0.623526
vt 0.607158 0.593038
vt 0.590861 0.623526
vt 0.585227 0.619761
vt 0.607158 0.593038
vt 0.585227 0.619761
vt 0.580435 0.614969
vt 0.607158 0.593038
vt 0.580435 0.614969
vt 0.576669 0.609334
vt 0.607158 0.593038
vt 0.576669 0.609334
vt 0.574076 0.603073
vt 0.607158 0.593038
vt 0.574076 0.603073
vt 0.572754 0.596426
vt 0.607158 0.593038
vt 0.572754 0.596426
vt 0.572754 0.589649
vt 0.607158 0.593038
vt 0.572754 0.589649
vt 0.574076 0.583002
vt 0.607158 0.593038
vt 0.574076 0.583002
vt 0.576669 0.576741
vt 0.607158 0.593038
vt 0.576669 0.576741
vt 0.580435 0.571106
vt 0.607158 0.593038
vt 0.580435 0.571106
vt 0.585227 0.566314
vt 0.607158 0.593038
vt 0.585227 0.566314
vt 0.590861 0.562549
vt 0.607158 0.593038
vt 0.590861 0.562549
vt 0.597123 0.559956
vt 0.607158 0.593038
vt 0.597123 0.559956
vt 0.603769 0.558634
vt 0.607158 0.593038
vt 0.603769 0.558634
vt 0.610546 0.558634
vt 0.689459 0.626119
vt 0.682812 0.627441
vt 0.679423 0.593038
vt 0.69572 0.623526
vt 0.689459 0.626119
vt 0.679423 0.593038
vt 0.701355 0.619761
vt 0.69572 0.623526
vt 0.679423 0.593038
vt 0.706147 0.614969
vt 0.701355 0.619761
vt 0.679423 0.593038
vt 0.709912 0.609334
vt 0.706147 0.614969
vt 0.679423 0.593038
vt 0.712505 0.603073
vt 0.709912 0.609334
vt 0.679423 0.593038
vt 0.713827 0.596426
vt 0.712505 0.603073
vt 0.679423 0.593038
vt 0.713827 0.589649
vt 0.713827 0.596426
vt 0.679423 0.593038
vt 0.712505 0.583002
vt 0.713827 0.589649
vt 0.679423 0.593038
vt 0.709912 0.576741
vt 0.712505 0.583002
vt 0.679423 0.593038
vt 0.706147 0.571106
vt 0.709912 0.576741
vt 0.679423 0.593038
vt 0.701355 0.566314
vt 0.706147 0.571106
vt 0.679423 0.593038
vt 0.69572 0.562549
vt 0.701355 0.566314
vt 0.679423 0.593038
vt 0.689459 0.559956
vt 0.69572 0.562549
vt 0.679423 0.593038
vt 0.682812 0.558634
vt 0.689459 0.559956
vt 0.679423 0.593038
vt 0.676035 0.558634
vt 0.682812 0.558634
vt 0.679423 0.593038
vt 0.669388 0.559956
vt 0.676035 0.558634
vt 0.679423 0.593038
vt 0.663127 0.562549
vt 0.669388 0.559956
vt 0.679423 0.593038
vt 0.657492 0.566314
vt 0.663127 0.562549
vt 0.679423 0.593038
vt 0.6527 0.571106
vt 0.657492 0.566314
vt 0.679423 0.593038
vt 0.648935 0.576741
vt 0.6527 0.571106
vt 0.679423 0.593038
vt 0.646342 0.583002
vt 0.648935 0.576741
vt 0.679423 0.593038
vt 0.64502 0.589649
vt 0.646342 0.583002
vt 0.679423 0.593038
vt 0.64502 0.596426
vt 0.64502 0.589649
vt 0.679423 0.593038
vt 0.646342 0.603073
vt 0.64502 0.596426
vt 0.679423 0.593038
vt 0.648935 0.609334
vt 0.646342 0.603073
vt 0.679423 0.593038
vt 0.6527 0.614969
vt 0.648935 0.609334
vt 0.679423 0.593038
vt 0.657492 0.619761
vt 0.6527 0.614969
vt 0.679423 0.593038
vt 0.663127 0.623526
vt 0.657492 0.619761
vt 0.679423 0.593038
vt 0.669388 0.626119
vt 0.663127 0.623526
vt 0.679423 0.593038
vt 0.676035 0.627441
vt 0.669388 0.626119
vt 0.679423 0.593038
vt 0.682812 0.627441
vt 0.676035 0.627441
vt 0.679423 0.593038
vn 0.995185 0 0.098017
vn 0.95694 0 0.290285
vn 0.881921 0 0.471397
vn 0.77301 0 0.634393
vn 0.634393 0 0.77301
vn 0.471397 0 0.881921
vn 0.290285 0 0.95694
vn 0.098017 0 0.995185
vn -0.098017 0 0.995185
vn -0.290285 0 0.95694
vn -0.471397 0 0.881921
vn -0.634393 0 0.77301
vn -0.77301 0 0.634393
vn -0.881921 0 0.471397
vn -0.95694 0 0.290285
vn -0.995185 0 0.098017
vn -0.995185 0 -0.098017
vn -0.95694 0 -0.290285
vn -0.881921 0 -0.471397
vn -0.77301 0 -0.634393
vn -0.634393 0 -0.77301
vn -0.471397 0 -0.881921
vn -0.290285 0 -0.95694
vn -0.098017 0 -0.995185
vn 0.098017 0 -0.995185
vn 0.290285 0 -0.95694
vn 0.471397 0 -0.881921
vn 0.634393 0 -0.77301
vn 0.77301 0 -0.634393
vn 0.881921 0 -0.471397
vn 0.95694 0 -0.290285
vn 0.995185 0 -0.098017
vn 0 -1 0
vn 0 1 0
f 401/1001/105 402/1002/106 370/1003/106 369/1004/105
f 402/1005/106 403/1006/107 371/1007/107 370/1008/106
f 403/1009/107 404/1010/108 372/1011/108 371/1012/107
f 404/1013/108 405/1014/109 373/1015/109 372/1016/108
f 405/1017/109 406/1018/110 374/1019/110 373/1020/109
f 406/1021/110 407/1022/111 375/1023/111 374/1024/110
f 407/1025/111 408/1026/112 376/1027/112 375/1028/111
f 408/1029/112 409/1030/113 377/1031/113 376/1032/112
f 409/1033/113 410/1034/114 378/1035/114 377/1036/113
f 410/1037/114 411/1038/115 379/1039/115 378/1040/114
f 411/1041/115 412/1042/116 380/1043/116 379/1044/115
f 412/1045/116 413/1046/117 381/1047/117 380/1048/116
f 413/1049/117 414/1050/118 382/1051/118 381/1052/117
f 414/1053/118 415/1054/119 383/1055/119 382/1056/118
f 415/1057/119 416/1058/120 384/1059/120 383/1060/119
f 416/1061/120 417/1062/121 385/1063/121 384/1064/120
f 417/1065/121 418/1066/122 386/1067/122 385/1068/121
f 418/1069/122 419/1070/123 387/1071/123 386/1072/122
f 419/1073/123 420/1074/124 388/1075/124 387/1076/123
f 420/1077/124 421/1078/125 389/1079/125 388/1080/124
f 421/1081/125 422/1082/126 390/1083/126 389/1084/125
f 422/1085/126 423/1086/127 391/1087/127 390/1088/126
f 423/1089/127 424/1090/128 392/1091/128 391/1092/127
f 424/1093/128 425/1094/129 393/1095/129 392/1096/128
f 425/1097/129 426/1098/130 394/1099/130 393/1100/129
f 426/1101/130 427/1102/131 395/1103/131 394/1104/130
f 427/1105/131 428/1106/132 396/1107/132 395/1108/131
f 428/1109/132 429/1110/133 397/1111/133 396/1112/132
f 429/1113/133 430/1114/134 398/1115/134 397/1116/133
f 430/1117/134 431/1118/135 399/1119/135 398/1120/134
f 431/1121/135 432/1122/136 400/1123/136 399/1124/135
f 432/1125/136 401/1126/105 369/1127/105 400/1128/136
f 433/1129/137 369/1130/137 370/1131/137
f 433/1132/137 370/1133/137 371/1134/137
f 433/1135/137 371/1136/137 372/1137/137
f 433/1138/137 372/1139/137 373/1140/137
f 433/1141/137 373/1142/137 374/1143/137
f 433/1144/137 374/1145/137 375/1146/137
f 433/1147/137 375/1148/137 376/1149/137
f 433/1150/137 376/1151/137 377/1152/137
f 433/1153/137 377/1154/137 378/1155/137
f 433/1156/137 378/1157/137 379/1158/137
f 433/1159/137 379/1160/137 380/1161/137
f 433/1162/137 380/1163/137 381/1164/137
f 433/1165/137 381/1166/137 382/1167/137
f 433/1168/137 382/1169/137 383/1170/137
f 433/1171/137 383/1172/137 384/1173/137
f 433/1174/137 384/1175/137 385/1176/137
f 433/1177/137 385/1178/137 386/1179/137
f 433/1180/137 386/1181/137 387/1182/137
f 433/1183/137 387/1184/137 388/1185/137
f 433/1186/137 388/1187/137 389/1188/137
f 433/1189/137 389/1190/137 390/1191/137
f 433/1192/137 390/1193/137 391/1194/137
f 433/1195/137 391/1196/137 392/1197/137
f 433/1198/137 392/1199/137 393/1200/137
f 433/1201/137 393/1202/137 394/1203/137
f 433/1204/137 394/1205/137 395/1206/137
f 433/1207/137 395/1208/137 396/1209/137
f 433/1210/137 396/1211/137 397/1212/137
f 433/1213/137 397/1214/137 398/1215/137
f 433/1216/137 398/1217/137 399/1218/137
f 433/1219/137 399/1220/137 400/1221/137
f 433/1222/137 400/1223/137 369/1224/137
f 402/1225/138 401/1226/138 434/1227/138
f 403/1228/138 402/1229/138 434/1230/138
f 404/1231/138 403/1232/138 434/1233/138
f 405/1234/138 404/1235/138 434/1236/138
f 406/1237/138 405/1238/138 434/1239/138
f 407/1240/138 406/1241/138 434/1242/138
f 408/1243/138 407/1244/138 434/1245/138
f 409/1246/138 408/1247/138 434/1248/138
f 410/1249/138 409/1250/138 434/1251/138
f 411/1252/138 410/1253/138 434/1254/138
f 412/1255/138 411/1256/138 434/1257/138
f 413/1258/138 412/1259/138 434/1260/138
f 414/1261/138 413/1262/138 434/1263/138
f 415/1264/138 414/1265/138 434/1266/138
f 416/1267/138 415/1268/138 434/1269/138
f 417/1270/138 416/1271/138 434/1272/138
f 418/1273/138 417/1274/138 434/1275/138
f 419/1276/138 418/1277/138 434/1278/138
f 420/1279/138 419/1280/138 434/1281/138
f 421/1282/138 420/1283/138 434/1284/138
f 422/1285/138 421/1286/138 434/1287/138
f 423/1288/138 422/1289/138 434/1290/138
f 424/1291/138 423/1292/138 434/1293/138
f 425/1294/138 424/1295/138 434/1296/138
f 426/1297/138 425/1298/138 434/1299/138
f 427/1300/138 426/1301/138 434/1302/138
f 428/1303/138 427/1304/138 434/1305/138
f 429/1306/138 428/1307/138 434/1308/138
f 430/1309/138 429/1310/138 434/1311/138
f 431/1312/138 430/1313/138 434/1314/138
f 432/1315/138 431/1316/138 434/1317/138
f 401/1318/138 432/1319/138 434/1320/138
o pump_manhole_cover__lid_closed__pry_slots
usemtl fuel_station_sump
v 0.24375 0.99875 0.725
v 0.24375 0.99875 0.775
v 0.35625 0.99875 0.775
v 0.35625 0.99875 0.725
v 0.24375 1.00125 0.725
v 0.24375 1.00125 0.775
v 0.35625 1.00125 0.775
v 0.35625 1.00125 0.725
v 0.24375 0.99875 0.725
v 0.24375 0.99875 0.775
v 0.35625 0.99875 0.775
v 0.35625 0.99875 0.725
v 0.24375 1.00125 0.725
v 0.24375 1.00125 0.775
v 0.35625 1.00125 0.775
v 0.35625 1.00125 0.725
v 0.64375 0.99875 0.725
v 0.64375 0.99875 0.775
v 0.75625 0.99875 0.775
v 0.75625 0.99875 0.725
v 0.64375 1.00125 0.725
v 0.64375 1.00125 0.775
v 0.75625 1.00125 0.775
v 0.75625 1.00125 0.725
v 0.64375 0.99875 0.725
v 0.64375 0.99875 0.775
v 0.75625 0.99875 0.775
v 0.75625 0.99875 0.725
v 0.64375 1.00125 0.725
v 0.64375 1.00125 0.775
v 0.75625 1.00125 0.775
v 0.75625 1.00125 0.725
vt 0.685059 0.036387
vt 0.689746 0.036387
vt 0.689746 0.036621
vt 0.685059 0.036621
vt 0.603027 0.036387
vt 0.613574 0.036387
vt 0.613574 0.036621
vt 0.603027 0.036621
vt 0.697559 0.036621
vt 0.692871 0.036621
vt 0.692871 0.036387
vt 0.697559 0.036387
vt 0.616699 0.036387
vt 0.627246 0.036387
vt 0.627246 0.036621
vt 0.616699 0.036621
vt 0.341309 0.163574
vt 0.341309 0.158887
vt 0.351855 0.158887
vt 0.351855 0.158887
vt 0.351855 0.163574
vt 0.341309 0.163574
vt 0.35498 0.158887
vt 0.365527 0.158887
vt 0.365527 0.163574
vt 0.365527 0.163574
vt 0.35498 0.163574
vt 0.35498 0.158887
vt 0.700684 0.036387
vt 0.705371 0.036387
vt 0.705371 0.036621
vt 0.700684 0.036621
vt 0.630371 0.036387
vt 0.640918 0.036387
vt 0.640918 0.036621
vt 0.630371 0.036621
vt 0.713184 0.036621
vt 0.708496 0.036621
vt 0.708496 0.036387
vt 0.713184 0.036387
vt 0.644043 0.036387
vt 0.65459 0.036387
vt 0.65459 0.036621
vt 0.644043 0.036621
vt 0.368652 0.163574
vt 0.368652 0.158887
vt 0.379199 0.158887
vt 0.379199 0.158887
vt 0.379199 0.163574
vt 0.368652 0.163574
vt 0.382324 0.158887
vt 0.392871 0.158887
vt 0.392871 0.163574
vt 0.392871 0.163574
vt 0.382324 0.163574
vt 0.382324 0.158887
vn -1 0 0
vn 0 0 1
vn 1 0 0
vn 0 0 -1
vn 0 -1 0
vn 0 1 0
f 435/1321/139 436/1322/139 440/1323/139 439/1324/139
f 436/1325/140 437/1326/140 441/1327/140 440/1328/140
f 437/1329/141 438/1330/141 442/1331/141 441/1332/141
f 438/1333/142 435/1334/142 439/1335/142 442/1336/142
f 444/1337/143 443/1338/143 446/1339/143
f 446/1340/143 445/1341/143 444/1342/143
f 450/1343/144 447/1344/144 448/1345/144
f 448/1346/144 449/1347/144 450/1348/144
f 451/1349/139 452/1350/139 456/1351/139 455/1352/139
f 452/1353/140 453/1354/140 457/1355/140 456/1356/140
f 453/1357/141 454/1358/141 458/1359/141 457/1360/141
f 454/1361/142 451/1362/142 455/1363/142 458/1364/142
f 460/1365/143 459/1366/143 462/1367/143
f 462/1368/143 461/1369/143 460/1370/143
f 466/1371/144 463/1372/144 464/1373/144
f 464/1374/144 465/1375/144 466/1376/144
