# AFL pump_manhole_cover/lid_closed, generated by tools/build-fuel-station-sump-v1.mjs
mtllib lid_closed.mtl
o pump_manhole_cover__lid_closed__lid
usemtl fuel_station_sump
v 0.866974 0.9625 0.536144
v 0.852872 0.9625 0.607042
v 0.825208 0.9625 0.673828
v 0.785048 0.9625 0.733933
v 0.733933 0.9625 0.785048
v 0.673828 0.9625 0.825208
v 0.607042 0.9625 0.852872
v 0.536144 0.9625 0.866974
v 0.463856 0.9625 0.866974
v 0.392958 0.9625 0.852872
v 0.326172 0.9625 0.825208
v 0.266067 0.9625 0.785048
v 0.214952 0.9625 0.733933
v 0.174792 0.9625 0.673828
v 0.147128 0.9625 0.607042
v 0.133026 0.9625 0.536144
v 0.133026 0.9625 0.463856
v 0.147128 0.9625 0.392958
v 0.174792 0.9625 0.326172
v 0.214952 0.9625 0.266067
v 0.266067 0.9625 0.214952
v 0.326172 0.9625 0.174792
v 0.392958 0.9625 0.147128
v 0.463856 0.9625 0.133026
v 0.536144 0.9625 0.133026
v 0.607042 0.9625 0.147128
v 0.673828 0.9625 0.174792
v 0.733933 0.9625 0.214952
v 0.785048 0.9625 0.266067
v 0.825208 0.9625 0.326172
v 0.852872 0.9625 0.392958
v 0.866974 0.9625 0.463856
v 0.866974 0.99875 0.536144
v 0.852872 0.99875 0.607042
v 0.825208 0.99875 0.673828
v 0.785048 0.99875 0.733933
v 0.733933 0.99875 0.785048
v 0.673828 0.99875 0.825208
v 0.607042 0.99875 0.852872
v 0.536144 0.99875 0.866974
v 0.463856 0.99875 0.866974
v 0.392958 0.99875 0.852872
v 0.326172 0.99875 0.825208
v 0.266067 0.99875 0.785048
v 0.214952 0.99875 0.733933
v 0.174792 0.99875 0.673828
v 0.147128 0.99875 0.607042
v 0.133026 0.99875 0.536144
v 0.133026 0.99875 0.463856
v 0.147128 0.99875 0.392958
v 0.174792 0.99875 0.326172
v 0.214952 0.99875 0.266067
v 0.266067 0.99875 0.214952
v 0.326172 0.99875 0.174792
v 0.392958 0.99875 0.147128
v 0.463856 0.99875 0.133026
v 0.536144 0.99875 0.133026
v 0.607042 0.99875 0.147128
v 0.673828 0.99875 0.174792
v 0.733933 0.99875 0.214952
v 0.785048 0.99875 0.266067
v 0.825208 0.99875 0.326172
v 0.852872 0.99875 0.392958
v 0.866974 0.99875 0.463856
v 0.5 0.9625 0.5
v 0.5 0.99875 0.5
vt 0.478815 0.11623
vt 0.485592 0.11623
vt 0.485592 0.119629
vt 0.478815 0.119629
vt 0.485592 0.11623
vt 0.492238 0.11623
vt 0.492238 0.119629
vt 0.485592 0.119629
vt 0.661621 0.11623
vt 0.668365 0.11623
vt 0.668365 0.119629
vt 0.661621 0.119629
vt 0.668365 0.11623
vt 0.67511 0.11623
vt 0.67511 0.119629
vt 0.668365 0.119629
vt 0.54541 0.11623
vt 0.552154 0.11623
vt 0.552154 0.119629
vt 0.54541 0.119629
vt 0.552154 0.11623
vt 0.558899 0.11623
vt 0.558899 0.119629
vt 0.552154 0.119629
vt 0.5755 0.119629
vt 0.568756 0.119629
vt 0.568756 0.11623
vt 0.5755 0.11623
vt 0.568756 0.119629
vt 0.562012 0.119629
vt 0.562012 0.11623
vt 0.568756 0.11623
vt 0.592102 0.119629
vt 0.585358 0.119629
vt 0.585358 0.11623
vt 0.592102 0.11623
vt 0.585358 0.119629
vt 0.578613 0.119629
vt 0.578613 0.11623
vt 0.585358 0.11623
vt 0.658508 0.119629
vt 0.651764 0.119629
vt 0.651764 0.11623
vt 0.658508 0.11623
vt 0.651764 0.119629
vt 0.64502 0.119629
vt 0.64502 0.11623
vt 0.651764 0.11623
vt 0.608704 0.119629
vt 0.601959 0.119629
vt 0.601959 0.11623
vt 0.608704 0.11623
vt 0.601959 0.119629
vt 0.595215 0.119629
vt 0.595215 0.11623
vt 0.601959 0.11623
vt 0.625305 0.119629
vt 0.618561 0.119629
vt 0.618561 0.11623
vt 0.625305 0.11623
vt 0.618561 0.119629
vt 0.611816 0.119629
vt 0.611816 0.11623
vt 0.618561 0.11623
vt 0.641907 0.119629
vt 0.635162 0.119629
vt 0.635162 0.11623
vt 0.641907 0.11623
vt 0.635162 0.119629
vt 0.628418 0.119629
vt 0.628418 0.11623
vt 0.635162 0.11623
vt 0.691711 0.119629
vt 0.684967 0.119629
vt 0.684967 0.11623
vt 0.691711 0.11623
vt 0.684967 0.119629
vt 0.678223 0.119629
vt 0.678223 0.11623
vt 0.684967 0.11623
vt 0.525696 0.119629
vt 0.518951 0.119629
vt 0.518951 0.11623
vt 0.525696 0.11623
vt 0.518951 0.119629
vt 0.512207 0.119629
vt 0.512207 0.11623
vt 0.518951 0.11623
vt 0.708313 0.119629
vt 0.701569 0.119629
vt 0.701569 0.11623
vt 0.708313 0.11623
vt 0.701569 0.119629
vt 0.694824 0.119629
vt 0.694824 0.11623
vt 0.701569 0.11623
vt 0.542297 0.119629
vt 0.535553 0.119629
vt 0.535553 0.11623
vt 0.542297 0.11623
vt 0.535553 0.119629
vt 0.528809 0.119629
vt 0.528809 0.11623
vt 0.535553 0.11623
vt 0.711426 0.11623
vt 0.71817 0.11623
vt 0.71817 0.119629
vt 0.711426 0.119629
vt 0.71817 0.11623
vt 0.724914 0.11623
vt 0.724914 0.119629
vt 0.71817 0.119629
vt 0.495605 0.11623
vt 0.50235 0.11623
vt 0.50235 0.119629
vt 0.495605 0.119629
vt 0.50235 0.11623
vt 0.509094 0.11623
vt 0.509094 0.119629
vt 0.50235 0.119629
vt 0.002441 0.109395
vt 0.009218 0.109395
vt 0.009218 0.112793
vt 0.002441 0.112793
vt 0.472168 0.11623
vt 0.478815 0.11623
vt 0.478815 0.119629
vt 0.472168 0.119629
vt 0.607158 0.593038
vt 0.610546 0.558634
vt 0.617193 0.559956
vt 0.607158 0.593038
vt 0.617193 0.559956
vt 0.623454 0.562549
vt 0.607158 0.593038
vt 0.623454 0.562549
vt 0.629089 0.566314
vt 0.607158 0.593038
vt 0.629089 0.566314
vt 0.633881 0.571106
vt 0.607158 0.593038
vt 0.633881 0.571106
vt 0.637646 0.576741
vt 0.607158 0.593038
vt 0.637646 0.576741
vt 0.640239 0.583002
vt 0.607158 0.593038
vt 0.640239 0.583002
vt 0.641562 0.589649
vt 0.607158 0.593038
vt 0.641562 0.589649
vt 0.641562 0.596426
vt 0.607158 0.593038
vt 0.641562 0.596426
vt 0.640239 0.603073
vt 0.607158 0.593038
vt 0.640239 0.603073
vt 0.637646 0.609334
vt 0.607158 0.593038
vt 0.637646 0.609334
vt 0.633881 0.614969
vt 0.607158 0.593038
vt 0.633881 0.614969
vt 0.629089 0.619761
vt 0.607158 0.593038
vt 0.629089 0.619761
vt 0.623454 0.623526
vt 0.607158 0.593038
vt 0.623454 0.623526
vt 0.617193 0.626119
vt 0.607158 0.593038
vt 0.617193 0.626119
vt 0.610546 0.627441
vt 0.607158 0.593038
vt 0.610546 0.627441
vt 0.603769 0.627441
vt 0.607158 0.593038
vt 0.603769 0.627441
vt 0.597123 0.626119
vt 0.607158 0.593038
vt 0.597123 0.626119
vt 0.590861 0.623526
vt 0.607158 0.593038
vt 0.590861 0.623526
vt 0.585227 0.619761
vt 0.607158 0.593038
vt 0.585227 0.619761
vt 0.580435 0.614969
vt 0.607158 0.593038
vt 0.580435 0.614969
vt 0.576669 0.609334
vt 0.607158 0.593038
vt 0.576669 0.609334
vt 0.574076 0.603073
vt 0.607158 0.593038
vt 0.574076 0.603073
vt 0.572754 0.596426
vt 0.607158 0.593038
vt 0.572754 0.596426
vt 0.572754 0.589649
vt 0.607158 0.593038
vt 0.572754 0.589649
vt 0.574076 0.583002
vt 0.607158 0.593038
vt 0.574076 0.583002
vt 0.576669 0.576741
vt 0.607158 0.593038
vt 0.576669 0.576741
vt 0.580435 0.571106
vt 0.607158 0.593038
vt 0.580435 0.571106
vt 0.585227 0.566314
vt 0.607158 0.593038
vt 0.585227 0.566314
vt 0.590861 0.562549
vt 0.607158 0.593038
vt 0.590861 0.562549
vt 0.597123 0.559956
vt 0.607158 0.593038
vt 0.597123 0.559956
vt 0.603769 0.558634
vt 0.607158 0.593038
vt 0.603769 0.558634
vt 0.610546 0.558634
vt 0.689459 0.626119
vt 0.682812 0.627441
vt 0.679423 0.593038
vt 0.69572 0.623526
vt 0.689459 0.626119
vt 0.679423 0.593038
vt 0.701355 0.619761
vt 0.69572 0.623526
vt 0.679423 0.593038
vt 0.706147 0.614969
vt 0.701355 0.619761
vt 0.679423 0.593038
vt 0.709912 0.609334
vt 0.706147 0.614969
vt 0.679423 0.593038
vt 0.712505 0.603073
vt 0.709912 0.609334
vt 0.679423 0.593038
vt 0.713827 0.596426
vt 0.712505 0.603073
vt 0.679423 0.593038
vt 0.713827 0.589649
vt 0.713827 0.596426
vt 0.679423 0.593038
vt 0.712505 0.583002
vt 0.713827 0.589649
vt 0.679423 0.593038
vt 0.709912 0.576741
vt 0.712505 0.583002
vt 0.679423 0.593038
vt 0.706147 0.571106
vt 0.709912 0.576741
vt 0.679423 0.593038
vt 0.701355 0.566314
vt 0.706147 0.571106
vt 0.679423 0.593038
vt 0.69572 0.562549
vt 0.701355 0.566314
vt 0.679423 0.593038
vt 0.689459 0.559956
vt 0.69572 0.562549
vt 0.679423 0.593038
vt 0.682812 0.558634
vt 0.689459 0.559956
vt 0.679423 0.593038
vt 0.676035 0.558634
vt 0.682812 0.558634
vt 0.679423 0.593038
vt 0.669388 0.559956
vt 0.676035 0.558634
vt 0.679423 0.593038
vt 0.663127 0.562549
vt 0.669388 0.559956
vt 0.679423 0.593038
vt 0.657492 0.566314
vt 0.663127 0.562549
vt 0.679423 0.593038
vt 0.6527 0.571106
vt 0.657492 0.566314
vt 0.679423 0.593038
vt 0.648935 0.576741
vt 0.6527 0.571106
vt 0.679423 0.593038
vt 0.646342 0.583002
vt 0.648935 0.576741
vt 0.679423 0.593038
vt 0.64502 0.589649
vt 0.646342 0.583002
vt 0.679423 0.593038
vt 0.64502 0.596426
vt 0.64502 0.589649
vt 0.679423 0.593038
vt 0.646342 0.603073
vt 0.64502 0.596426
vt 0.679423 0.593038
vt 0.648935 0.609334
vt 0.646342 0.603073
vt 0.679423 0.593038
vt 0.6527 0.614969
vt 0.648935 0.609334
vt 0.679423 0.593038
vt 0.657492 0.619761
vt 0.6527 0.614969
vt 0.679423 0.593038
vt 0.663127 0.623526
vt 0.657492 0.619761
vt 0.679423 0.593038
vt 0.669388 0.626119
vt 0.663127 0.623526
vt 0.679423 0.593038
vt 0.676035 0.627441
vt 0.669388 0.626119
vt 0.679423 0.593038
vt 0.682812 0.627441
vt 0.676035 0.627441
vt 0.679423 0.593038
vn 0.995185 0 0.098017
vn 0.95694 0 0.290285
vn 0.881921 0 0.471397
vn 0.77301 0 0.634393
vn 0.634393 0 0.77301
vn 0.471397 0 0.881921
vn 0.290285 0 0.95694
vn 0.098017 0 0.995185
vn -0.098017 0 0.995185
vn -0.290285 0 0.95694
vn -0.471397 0 0.881921
vn -0.634393 0 0.77301
vn -0.77301 0 0.634393
vn -0.881921 0 0.471397
vn -0.95694 0 0.290285
vn -0.995185 0 0.098017
vn -0.995185 0 -0.098017
vn -0.95694 0 -0.290285
vn -0.881921 0 -0.471397
vn -0.77301 0 -0.634393
vn -0.634393 0 -0.77301
vn -0.471397 0 -0.881921
vn -0.290285 0 -0.95694
vn -0.098017 0 -0.995185
vn 0.098017 0 -0.995185
vn 0.290285 0 -0.95694
vn 0.471397 0 -0.881921
vn 0.634393 0 -0.77301
vn 0.77301 0 -0.634393
vn 0.881921 0 -0.471397
vn 0.95694 0 -0.290285
vn 0.995185 0 -0.098017
vn 0 -1 0
vn 0 1 0
f 33/1/1 34/2/2 2/3/2 1/4/1
f 34/5/2 35/6/3 3/7/3 2/8/2
f 35/9/3 36/10/4 4/11/4 3/12/3
f 36/13/4 37/14/5 5/15/5 4/16/4
f 37/17/5 38/18/6 6/19/6 5/20/5
f 38/21/6 39/22/7 7/23/7 6/24/6
f 39/25/7 40/26/8 8/27/8 7/28/7
f 40/29/8 41/30/9 9/31/9 8/32/8
f 41/33/9 42/34/10 10/35/10 9/36/9
f 42/37/10 43/38/11 11/39/11 10/40/10
f 43/41/11 44/42/12 12/43/12 11/44/11
f 44/45/12 45/46/13 13/47/13 12/48/12
f 45/49/13 46/50/14 14/51/14 13/52/13
f 46/53/14 47/54/15 15/55/15 14/56/14
f 47/57/15 48/58/16 16/59/16 15/60/15
f 48/61/16 49/62/17 17/63/17 16/64/16
f 49/65/17 50/66/18 18/67/18 17/68/17
f 50/69/18 51/70/19 19/71/19 18/72/18
f 51/73/19 52/74/20 20/75/20 19/76/19
f 52/77/20 53/78/21 21/79/21 20/80/20
f 53/81/21 54/82/22 22/83/22 21/84/21
f 54/85/22 55/86/23 23/87/23 22/88/22
f 55/89/23 56/90/24 24/91/24 23/92/23
f 56/93/24 57/94/25 25/95/25 24/96/24
f 57/97/25 58/98/26 26/99/26 25/100/25
f 58/101/26 59/102/27 27/103/27 26/104/26
f 59/105/27 60/106/28 28/107/28 27/108/27
f 60/109/28 61/110/29 29/111/29 28/112/28
f 61/113/29 62/114/30 30/115/30 29/116/29
f 62/117/30 63/118/31 31/119/31 30/120/30
f 63/121/31 64/122/32 32/123/32 31/124/31
f 64/125/32 33/126/1 1/127/1 32/128/32
f 65/129/33 1/130/33 2/131/33
f 65/132/33 2/133/33 3/134/33
f 65/135/33 3/136/33 4/137/33
f 65/138/33 4/139/33 5/140/33
f 65/141/33 5/142/33 6/143/33
f 65/144/33 6/145/33 7/146/33
f 65/147/33 7/148/33 8/149/33
f 65/150/33 8/151/33 9/152/33
f 65/153/33 9/154/33 10/155/33
f 65/156/33 10/157/33 11/158/33
f 65/159/33 11/160/33 12/161/33
f 65/162/33 12/163/33 13/164/33
f 65/165/33 13/166/33 14/167/33
f 65/168/33 14/169/33 15/170/33
f 65/171/33 15/172/33 16/173/33
f 65/174/33 16/175/33 17/176/33
f 65/177/33 17/178/33 18/179/33
f 65/180/33 18/181/33 19/182/33
f 65/183/33 19/184/33 20/185/33
f 65/186/33 20/187/33 21/188/33
f 65/189/33 21/190/33 22/191/33
f 65/192/33 22/193/33 23/194/33
f 65/195/33 23/196/33 24/197/33
f 65/198/33 24/199/33 25/200/33
f 65/201/33 25/202/33 26/203/33
f 65/204/33 26/205/33 27/206/33
f 65/207/33 27/208/33 28/209/33
f 65/210/33 28/211/33 29/212/33
f 65/213/33 29/214/33 30/215/33
f 65/216/33 30/217/33 31/218/33
f 65/219/33 31/220/33 32/221/33
f 65/222/33 32/223/33 1/224/33
f 34/225/34 33/226/34 66/227/34
f 35/228/34 34/229/34 66/230/34
f 36/231/34 35/232/34 66/233/34
f 37/234/34 36/235/34 66/236/34
f 38/237/34 37/238/34 66/239/34
f 39/240/34 38/241/34 66/242/34
f 40/243/34 39/244/34 66/245/34
f 41/246/34 40/247/34 66/248/34
f 42/249/34 41/250/34 66/251/34
f 43/252/34 42/253/34 66/254/34
f 44/255/34 43/256/34 66/257/34
f 45/258/34 44/259/34 66/260/34
f 46/261/34 45/262/34 66/263/34
f 47/264/34 46/265/34 66/266/34
f 48/267/34 47/268/34 66/269/34
f 49/270/34 48/271/34 66/272/34
f 50/273/34 49/274/34 66/275/34
f 51/276/34 50/277/34 66/278/34
f 52/279/34 51/280/34 66/281/34
f 53/282/34 52/283/34 66/284/34
f 54/285/34 53/286/34 66/287/34
f 55/288/34 54/289/34 66/290/34
f 56/291/34 55/292/34 66/293/34
f 57/294/34 56/295/34 66/296/34
f 58/297/34 57/298/34 66/299/34
f 59/300/34 58/301/34 66/302/34
f 60/303/34 59/304/34 66/305/34
f 61/306/34 60/307/34 66/308/34
f 62/309/34 61/310/34 66/311/34
f 63/312/34 62/313/34 66/314/34
f 64/315/34 63/316/34 66/317/34
f 33/318/34 64/319/34 66/320/34
o pump_manhole_cover__lid_closed__pry_slots
usemtl fuel_station_sump
v 0.24375 0.99875 0.725
v 0.24375 0.99875 0.775
v 0.35625 0.99875 0.775
v 0.35625 0.99875 0.725
v 0.24375 1.00125 0.725
v 0.24375 1.00125 0.775
v 0.35625 1.00125 0.775
v 0.35625 1.00125 0.725
v 0.24375 0.99875 0.725
v 0.24375 0.99875 0.775
v 0.35625 0.99875 0.775
v 0.35625 0.99875 0.725
v 0.24375 1.00125 0.725
v 0.24375 1.00125 0.775
v 0.35625 1.00125 0.775
v 0.35625 1.00125 0.725
v 0.64375 0.99875 0.725
v 0.64375 0.99875 0.775
v 0.75625 0.99875 0.775
v 0.75625 0.99875 0.725
v 0.64375 1.00125 0.725
v 0.64375 1.00125 0.775
v 0.75625 1.00125 0.775
v 0.75625 1.00125 0.725
v 0.64375 0.99875 0.725
v 0.64375 0.99875 0.775
v 0.75625 0.99875 0.775
v 0.75625 0.99875 0.725
v 0.64375 1.00125 0.725
v 0.64375 1.00125 0.775
v 0.75625 1.00125 0.775
v 0.75625 1.00125 0.725
vt 0.685059 0.036387
vt 0.689746 0.036387
vt 0.689746 0.036621
vt 0.685059 0.036621
vt 0.603027 0.036387
vt 0.613574 0.036387
vt 0.613574 0.036621
vt 0.603027 0.036621
vt 0.697559 0.036621
vt 0.692871 0.036621
vt 0.692871 0.036387
vt 0.697559 0.036387
vt 0.616699 0.036387
vt 0.627246 0.036387
vt 0.627246 0.036621
vt 0.616699 0.036621
vt 0.341309 0.163574
vt 0.341309 0.158887
vt 0.351855 0.158887
vt 0.351855 0.158887
vt 0.351855 0.163574
vt 0.341309 0.163574
vt 0.35498 0.158887
vt 0.365527 0.158887
vt 0.365527 0.163574
vt 0.365527 0.163574
vt 0.35498 0.163574
vt 0.35498 0.158887
vt 0.700684 0.036387
vt 0.705371 0.036387
vt 0.705371 0.036621
vt 0.700684 0.036621
vt 0.630371 0.036387
vt 0.640918 0.036387
vt 0.640918 0.036621
vt 0.630371 0.036621
vt 0.713184 0.036621
vt 0.708496 0.036621
vt 0.708496 0.036387
vt 0.713184 0.036387
vt 0.644043 0.036387
vt 0.65459 0.036387
vt 0.65459 0.036621
vt 0.644043 0.036621
vt 0.368652 0.163574
vt 0.368652 0.158887
vt 0.379199 0.158887
vt 0.379199 0.158887
vt 0.379199 0.163574
vt 0.368652 0.163574
vt 0.382324 0.158887
vt 0.392871 0.158887
vt 0.392871 0.163574
vt 0.392871 0.163574
vt 0.382324 0.163574
vt 0.382324 0.158887
vn -1 0 0
vn 0 0 1
vn 1 0 0
vn 0 0 -1
vn 0 -1 0
vn 0 1 0
f 67/321/35 68/322/35 72/323/35 71/324/35
f 68/325/36 69/326/36 73/327/36 72/328/36
f 69/329/37 70/330/37 74/331/37 73/332/37
f 70/333/38 67/334/38 71/335/38 74/336/38
f 76/337/39 75/338/39 78/339/39
f 78/340/39 77/341/39 76/342/39
f 82/343/40 79/344/40 80/345/40
f 80/346/40 81/347/40 82/348/40
f 83/349/35 84/350/35 88/351/35 87/352/35
f 84/353/36 85/354/36 89/355/36 88/356/36
f 85/357/37 86/358/37 90/359/37 89/360/37
f 86/361/38 83/362/38 87/363/38 90/364/38
f 92/365/39 91/366/39 94/367/39
f 94/368/39 93/369/39 92/370/39
f 98/371/40 95/372/40 96/373/40
f 96/374/40 97/375/40 98/376/40
