# AFL pump_manhole_cover/lid_open, generated by tools/build-fuel-station-sump-v1.mjs
mtllib lid_open.mtl
o pump_manhole_cover__lid_open__lid
usemtl fuel_station_sump
v 0.866974 1.375645 0.242658
v 0.852872 1.444438 0.25981
v 0.825208 1.509239 0.275966
v 0.785048 1.567559 0.290507
v 0.733933 1.617155 0.302873
v 0.673828 1.656123 0.312589
v 0.607042 1.682965 0.319281
v 0.536144 1.696649 0.322693
v 0.463856 1.696649 0.322693
v 0.392958 1.682965 0.319281
v 0.326172 1.656123 0.312589
v 0.266067 1.617155 0.302873
v 0.214952 1.567559 0.290507
v 0.174792 1.509239 0.275966
v 0.147128 1.444438 0.25981
v 0.133026 1.375645 0.242658
v 0.133026 1.305505 0.22517
v 0.147128 1.236712 0.208018
v 0.174792 1.171911 0.191861
v 0.214952 1.113591 0.17732
v 0.266067 1.063994 0.164954
v 0.326172 1.025026 0.155239
v 0.392958 0.998185 0.148546
v 0.463856 0.984501 0.145135
v 0.536144 0.984501 0.145135
v 0.607042 0.998185 0.148546
v 0.673828 1.025026 0.155239
v 0.733933 1.063994 0.164954
v 0.785048 1.113591 0.17732
v 0.825208 1.171911 0.191861
v 0.852872 1.236712 0.208018
v 0.866974 1.305505 0.22517
v 0.866974 1.384415 0.207485
v 0.852872 1.453207 0.224636
v 0.825208 1.518009 0.240793
v 0.785048 1.576328 0.255334
v 0.733933 1.625925 0.2677
v 0.673828 1.664893 0.277416
v 0.607042 1.691734 0.284108
v 0.536144 1.705418 0.28752
v 0.463856 1.705418 0.28752
v 0.392958 1.691734 0.284108
v 0.326172 1.664893 0.277416
v 0.266067 1.625925 0.2677
v 0.214952 1.576328 0.255334
v 0.174792 1.518009 0.240793
v 0.147128 1.453207 0.224636
v 0.133026 1.384415 0.207485
v 0.133026 1.314274 0.189997
v 0.147128 1.245482 0.172845
v 0.174792 1.18068 0.156688
v 0.214952 1.122361 0.142147
v 0.266067 1.072764 0.129781
v 0.326172 1.033796 0.120065
v 0.392958 1.006955 0.113373
v 0.463856 0.993271 0.109961
v 0.536144 0.993271 0.109961
v 0.607042 1.006955 0.113373
v 0.673828 1.033796 0.120065
v 0.733933 1.072764 0.129781
v 0.785048 1.122361 0.142147
v 0.825208 1.18068 0.156688
v 0.852872 1.245482 0.172845
v 0.866974 1.314274 0.189997
v 0.5 1.340575 0.233914
v 0.5 1.349345 0.198741
vt 0.919861 0.261577
vt 0.926444 0.263186
vt 0.925637 0.266488
vt 0.919054 0.264878
vt 0.926444 0.263186
vt 0.932901 0.264765
vt 0.932094 0.268066
vt 0.925637 0.266488
vt 0.867342 0.185028
vt 0.873965 0.186305
vt 0.873322 0.189642
vt 0.866699 0.188365
vt 0.873965 0.186305
vt 0.880587 0.187581
vt 0.879944 0.190918
vt 0.873322 0.189642
vt 0.168854 0.158624
vt 0.175552 0.159412
vt 0.175155 0.162787
vt 0.168457 0.162
vt 0.175552 0.159412
vt 0.18225 0.160199
vt 0.181853 0.163574
vt 0.175155 0.162787
vt 0.703696 0.151058
vt 0.710439 0.151223
vt 0.710356 0.15462
vt 0.703613 0.154456
vt 0.710439 0.151223
vt 0.717181 0.151388
vt 0.717098 0.154785
vt 0.710356 0.15462
vt 0.907715 0.160185
vt 0.914442 0.159698
vt 0.914687 0.163087
vt 0.90796 0.163574
vt 0.914442 0.159698
vt 0.921168 0.159211
vt 0.921414 0.162601
vt 0.914687 0.163087
vt 0.002441 0.160218
vt 0.009103 0.159164
vt 0.009634 0.162521
vt 0.002972 0.163574
vt 0.009103 0.159164
vt 0.015764 0.15811
vt 0.016295 0.161467
vt 0.009634 0.162521
vt 0.779785 0.198341
vt 0.786372 0.196893
vt 0.787102 0.200212
vt 0.780515 0.20166
vt 0.786372 0.196893
vt 0.792959 0.195444
vt 0.793689 0.198763
vt 0.787102 0.200212
vt 0.700684 0.198362
vt 0.707229 0.196738
vt 0.708048 0.200036
vt 0.701502 0.20166
vt 0.707229 0.196738
vt 0.713775 0.195113
vt 0.714594 0.198412
vt 0.708048 0.200036
vt 0.736816 0.198355
vt 0.743377 0.196789
vt 0.744165 0.200095
vt 0.737605 0.20166
vt 0.743377 0.196789
vt 0.749937 0.195224
vt 0.750725 0.19853
vt 0.744165 0.200095
vt 0.849121 0.187581
vt 0.855744 0.186305
vt 0.856387 0.189642
vt 0.849764 0.190918
vt 0.855744 0.186305
vt 0.862366 0.185028
vt 0.863009 0.188365
vt 0.856387 0.189642
vt 0.150879 0.160199
vt 0.157577 0.159412
vt 0.157974 0.162787
vt 0.151276 0.163574
vt 0.157577 0.159412
vt 0.164275 0.158624
vt 0.164672 0.162
vt 0.157974 0.162787
vt 0.720215 0.151388
vt 0.726957 0.151223
vt 0.72704 0.15462
vt 0.720298 0.154785
vt 0.726957 0.151223
vt 0.733699 0.151058
vt 0.733783 0.154456
vt 0.72704 0.15462
vt 0.890382 0.159211
vt 0.897109 0.159698
vt 0.896863 0.163087
vt 0.890137 0.162601
vt 0.897109 0.159698
vt 0.903836 0.160185
vt 0.90359 0.163574
vt 0.896863 0.163087
vt 0.980511 0.166899
vt 0.987173 0.167953
vt 0.986642 0.17131
vt 0.97998 0.170256
vt 0.987173 0.167953
vt 0.993834 0.169007
vt 0.993304 0.172363
vt 0.986642 0.17131
vt 0.798093 0.195444
vt 0.80468 0.196893
vt 0.80395 0.200212
vt 0.797363 0.198763
vt 0.80468 0.196893
vt 0.811267 0.198341
vt 0.810537 0.20166
vt 0.80395 0.200212
vt 0.229811 0.158663
vt 0.236394 0.160273
vt 0.235587 0.163574
vt 0.229004 0.161964
vt 0.913405 0.259998
vt 0.919861 0.261577
vt 0.919054 0.264878
vt 0.912598 0.263299
vt 0.751689 0.593038
vt 0.786093 0.596426
vt 0.784771 0.603073
vt 0.751689 0.593038
vt 0.784771 0.603073
vt 0.782177 0.609334
vt 0.751689 0.593038
vt 0.782177 0.609334
vt 0.778412 0.614969
vt 0.751689 0.593038
vt 0.778412 0.614969
vt 0.77362 0.619761
vt 0.751689 0.593038
vt 0.77362 0.619761
vt 0.767985 0.623526
vt 0.751689 0.593038
vt 0.767985 0.623526
vt 0.761724 0.626119
vt 0.751689 0.593038
vt 0.761724 0.626119
vt 0.755077 0.627441
vt 0.751689 0.593038
vt 0.755077 0.627441
vt 0.748301 0.627441
vt 0.751689 0.593038
vt 0.748301 0.627441
vt 0.741654 0.626119
vt 0.751689 0.593038
vt 0.741654 0.626119
vt 0.735393 0.623526
vt 0.751689 0.593038
vt 0.735393 0.623526
vt 0.729758 0.619761
vt 0.751689 0.593038
vt 0.729758 0.619761
vt 0.724966 0.614969
vt 0.751689 0.593038
vt 0.724966 0.614969
vt 0.721201 0.609334
vt 0.751689 0.593038
vt 0.721201 0.609334
vt 0.718607 0.603073
vt 0.751689 0.593038
vt 0.718607 0.603073
vt 0.717285 0.596426
vt 0.751689 0.593038
vt 0.717285 0.596426
vt 0.717285 0.589649
vt 0.751689 0.593038
vt 0.717285 0.589649
vt 0.718607 0.583002
vt 0.751689 0.593038
vt 0.718607 0.583002
vt 0.721201 0.576741
vt 0.751689 0.593038
vt 0.721201 0.576741
vt 0.724966 0.571106
vt 0.751689 0.593038
vt 0.724966 0.571106
vt 0.729758 0.566314
vt 0.751689 0.593038
vt 0.729758 0.566314
vt 0.735393 0.562549
vt 0.751689 0.593038
vt 0.735393 0.562549
vt 0.741654 0.559956
vt 0.751689 0.593038
vt 0.741654 0.559956
vt 0.748301 0.558634
vt 0.751689 0.593038
vt 0.748301 0.558634
vt 0.755077 0.558634
vt 0.751689 0.593038
vt 0.755077 0.558634
vt 0.761724 0.559956
vt 0.751689 0.593038
vt 0.761724 0.559956
vt 0.767985 0.562549
vt 0.751689 0.593038
vt 0.767985 0.562549
vt 0.77362 0.566314
vt 0.751689 0.593038
vt 0.77362 0.566314
vt 0.778412 0.571106
vt 0.751689 0.593038
vt 0.778412 0.571106
vt 0.782177 0.576741
vt 0.751689 0.593038
vt 0.782177 0.576741
vt 0.784771 0.583002
vt 0.751689 0.593038
vt 0.784771 0.583002
vt 0.786093 0.589649
vt 0.751689 0.593038
vt 0.786093 0.589649
vt 0.786093 0.596426
vt 0.790873 0.603073
vt 0.789551 0.596426
vt 0.823955 0.593038
vt 0.793466 0.609334
vt 0.790873 0.603073
vt 0.823955 0.593038
vt 0.797231 0.614969
vt 0.793466 0.609334
vt 0.823955 0.593038
vt 0.802023 0.619761
vt 0.797231 0.614969
vt 0.823955 0.593038
vt 0.807658 0.623526
vt 0.802023 0.619761
vt 0.823955 0.593038
vt 0.813919 0.626119
vt 0.807658 0.623526
vt 0.823955 0.593038
vt 0.820566 0.627441
vt 0.813919 0.626119
vt 0.823955 0.593038
vt 0.827343 0.627441
vt 0.820566 0.627441
vt 0.823955 0.593038
vt 0.83399 0.626119
vt 0.827343 0.627441
vt 0.823955 0.593038
vt 0.840251 0.623526
vt 0.83399 0.626119
vt 0.823955 0.593038
vt 0.845886 0.619761
vt 0.840251 0.623526
vt 0.823955 0.593038
vt 0.850678 0.614969
vt 0.845886 0.619761
vt 0.823955 0.593038
vt 0.854443 0.609334
vt 0.850678 0.614969
vt 0.823955 0.593038
vt 0.857036 0.603073
vt 0.854443 0.609334
vt 0.823955 0.593038
vt 0.858358 0.596426
vt 0.857036 0.603073
vt 0.823955 0.593038
vt 0.858358 0.589649
vt 0.858358 0.596426
vt 0.823955 0.593038
vt 0.857036 0.583002
vt 0.858358 0.589649
vt 0.823955 0.593038
vt 0.854443 0.576741
vt 0.857036 0.583002
vt 0.823955 0.593038
vt 0.850678 0.571106
vt 0.854443 0.576741
vt 0.823955 0.593038
vt 0.845886 0.566314
vt 0.850678 0.571106
vt 0.823955 0.593038
vt 0.840251 0.562549
vt 0.845886 0.566314
vt 0.823955 0.593038
vt 0.83399 0.559956
vt 0.840251 0.562549
vt 0.823955 0.593038
vt 0.827343 0.558634
vt 0.83399 0.559956
vt 0.823955 0.593038
vt 0.820566 0.558634
vt 0.827343 0.558634
vt 0.823955 0.593038
vt 0.813919 0.559956
vt 0.820566 0.558634
vt 0.823955 0.593038
vt 0.807658 0.562549
vt 0.813919 0.559956
vt 0.823955 0.593038
vt 0.802023 0.566314
vt 0.807658 0.562549
vt 0.823955 0.593038
vt 0.797231 0.571106
vt 0.802023 0.566314
vt 0.823955 0.593038
vt 0.793466 0.576741
vt 0.797231 0.571106
vt 0.823955 0.593038
vt 0.790873 0.583002
vt 0.793466 0.576741
vt 0.823955 0.593038
vt 0.789551 0.589649
vt 0.790873 0.583002
vt 0.823955 0.593038
vt 0.789551 0.596426
vt 0.789551 0.589649
vt 0.823955 0.593038
vn 0.995185 0.095106 0.023712
vn 0.95694 0.281662 0.070226
vn 0.881921 0.457394 0.114041
vn 0.77301 0.615549 0.153474
vn 0.634393 0.750049 0.187008
vn 0.471397 0.855724 0.213356
vn 0.290285 0.928515 0.231505
vn 0.098017 0.965623 0.240757
vn -0.098017 0.965623 0.240757
vn -0.290285 0.928515 0.231505
vn -0.471397 0.855724 0.213356
vn -0.634393 0.750049 0.187008
vn -0.77301 0.615549 0.153474
vn -0.881921 0.457394 0.114041
vn -0.95694 0.281662 0.070226
vn -0.995185 0.095106 0.023712
vn -0.995185 -0.095106 -0.023712
vn -0.95694 -0.281662 -0.070226
vn -0.881921 -0.457394 -0.114041
vn -0.77301 -0.615549 -0.153474
vn -0.634393 -0.750049 -0.187008
vn -0.471397 -0.855724 -0.213356
vn -0.290285 -0.928515 -0.231505
vn -0.098017 -0.965623 -0.240757
vn 0.098017 -0.965623 -0.240757
vn 0.290285 -0.928515 -0.231505
vn 0.471397 -0.855724 -0.213356
vn 0.634393 -0.750049 -0.187008
vn 0.77301 -0.615549 -0.153474
vn 0.881921 -0.457394 -0.114041
vn 0.95694 -0.281662 -0.070226
vn 0.995185 -0.095106 -0.023712
vn 0 -0.241922 0.970296
vn 0 0.241922 -0.970296
f 33/1/1 34/2/2 2/3/2 1/4/1
f 34/5/2 35/6/3 3/7/3 2/8/2
f 35/9/3 36/10/4 4/11/4 3/12/3
f 36/13/4 37/14/5 5/15/5 4/16/4
f 37/17/5 38/18/6 6/19/6 5/20/5
f 38/21/6 39/22/7 7/23/7 6/24/6
f 39/25/7 40/26/8 8/27/8 7/28/7
f 40/29/8 41/30/9 9/31/9 8/32/8
f 41/33/9 42/34/10 10/35/10 9/36/9
f 42/37/10 43/38/11 11/39/11 10/40/10
f 43/41/11 44/42/12 12/43/12 11/44/11
f 44/45/12 45/46/13 13/47/13 12/48/12
f 45/49/13 46/50/14 14/51/14 13/52/13
f 46/53/14 47/54/15 15/55/15 14/56/14
f 47/57/15 48/58/16 16/59/16 15/60/15
f 48/61/16 49/62/17 17/63/17 16/64/16
f 49/65/17 50/66/18 18/67/18 17/68/17
f 50/69/18 51/70/19 19/71/19 18/72/18
f 51/73/19 52/74/20 20/75/20 19/76/19
f 52/77/20 53/78/21 21/79/21 20/80/20
f 53/81/21 54/82/22 22/83/22 21/84/21
f 54/85/22 55/86/23 23/87/23 22/88/22
f 55/89/23 56/90/24 24/91/24 23/92/23
f 56/93/24 57/94/25 25/95/25 24/96/24
f 57/97/25 58/98/26 26/99/26 25/100/25
f 58/101/26 59/102/27 27/103/27 26/104/26
f 59/105/27 60/106/28 28/107/28 27/108/27
f 60/109/28 61/110/29 29/111/29 28/112/28
f 61/113/29 62/114/30 30/115/30 29/116/29
f 62/117/30 63/118/31 31/119/31 30/120/30
f 63/121/31 64/122/32 32/123/32 31/124/31
f 64/125/32 33/126/1 1/127/1 32/128/32
f 65/129/33 1/130/33 2/131/33
f 65/132/33 2/133/33 3/134/33
f 65/135/33 3/136/33 4/137/33
f 65/138/33 4/139/33 5/140/33
f 65/141/33 5/142/33 6/143/33
f 65/144/33 6/145/33 7/146/33
f 65/147/33 7/148/33 8/149/33
f 65/150/33 8/151/33 9/152/33
f 65/153/33 9/154/33 10/155/33
f 65/156/33 10/157/33 11/158/33
f 65/159/33 11/160/33 12/161/33
f 65/162/33 12/163/33 13/164/33
f 65/165/33 13/166/33 14/167/33
f 65/168/33 14/169/33 15/170/33
f 65/171/33 15/172/33 16/173/33
f 65/174/33 16/175/33 17/176/33
f 65/177/33 17/178/33 18/179/33
f 65/180/33 18/181/33 19/182/33
f 65/183/33 19/184/33 20/185/33
f 65/186/33 20/187/33 21/188/33
f 65/189/33 21/190/33 22/191/33
f 65/192/33 22/193/33 23/194/33
f 65/195/33 23/196/33 24/197/33
f 65/198/33 24/199/33 25/200/33
f 65/201/33 25/202/33 26/203/33
f 65/204/33 26/205/33 27/206/33
f 65/207/33 27/208/33 28/209/33
f 65/210/33 28/211/33 29/212/33
f 65/213/33 29/214/33 30/215/33
f 65/216/33 30/217/33 31/218/33
f 65/219/33 31/220/33 32/221/33
f 65/222/33 32/223/33 1/224/33
f 34/225/34 33/226/34 66/227/34
f 35/228/34 34/229/34 66/230/34
f 36/231/34 35/232/34 66/233/34
f 37/234/34 36/235/34 66/236/34
f 38/237/34 37/238/34 66/239/34
f 39/240/34 38/241/34 66/242/34
f 40/243/34 39/244/34 66/245/34
f 41/246/34 40/247/34 66/248/34
f 42/249/34 41/250/34 66/251/34
f 43/252/34 42/253/34 66/254/34
f 44/255/34 43/256/34 66/257/34
f 45/258/34 44/259/34 66/260/34
f 46/261/34 45/262/34 66/263/34
f 47/264/34 46/265/34 66/266/34
f 48/267/34 47/268/34 66/269/34
f 49/270/34 48/271/34 66/272/34
f 50/273/34 49/274/34 66/275/34
f 51/276/34 50/277/34 66/278/34
f 52/279/34 51/280/34 66/281/34
f 53/282/34 52/283/34 66/284/34
f 54/285/34 53/286/34 66/287/34
f 55/288/34 54/289/34 66/290/34
f 56/291/34 55/292/34 66/293/34
f 57/294/34 56/295/34 66/296/34
f 58/297/34 57/298/34 66/299/34
f 59/300/34 58/301/34 66/302/34
f 60/303/34 59/304/34 66/305/34
f 61/306/34 60/307/34 66/308/34
f 62/309/34 61/310/34 66/311/34
f 63/312/34 62/313/34 66/314/34
f 64/315/34 63/316/34 66/317/34
f 33/318/34 64/319/34 66/320/34
o pump_manhole_cover__lid_open__pry_slots
usemtl fuel_station_sump
v 0.24375 1.567661 0.253173
v 0.24375 1.616176 0.265269
v 0.35625 1.616176 0.265269
v 0.35625 1.567661 0.253173
v 0.24375 1.568266 0.250747
v 0.24375 1.616781 0.262843
v 0.35625 1.616781 0.262843
v 0.35625 1.568266 0.250747
v 0.24375 1.567661 0.253173
v 0.24375 1.616176 0.265269
v 0.35625 1.616176 0.265269
v 0.35625 1.567661 0.253173
v 0.24375 1.568266 0.250747
v 0.24375 1.616781 0.262843
v 0.35625 1.616781 0.262843
v 0.35625 1.568266 0.250747
v 0.64375 1.567661 0.253173
v 0.64375 1.616176 0.265269
v 0.75625 1.616176 0.265269
v 0.75625 1.567661 0.253173
v 0.64375 1.568266 0.250747
v 0.64375 1.616781 0.262843
v 0.75625 1.616781 0.262843
v 0.75625 1.568266 0.250747
v 0.64375 1.567661 0.253173
v 0.64375 1.616176 0.265269
v 0.75625 1.616176 0.265269
v 0.75625 1.567661 0.253173
v 0.64375 1.568266 0.250747
v 0.64375 1.616781 0.262843
v 0.75625 1.616781 0.262843
v 0.75625 1.568266 0.250747
vt 0.611539 0.082362
vt 0.60699 0.083496
vt 0.606934 0.083269
vt 0.611482 0.082135
vt 0.58623 0.036621
vt 0.575684 0.036621
vt 0.575684 0.036387
vt 0.58623 0.036387
vt 0.619294 0.083496
vt 0.614746 0.082362
vt 0.614803 0.082135
vt 0.619351 0.083269
vt 0.668262 0.036621
vt 0.657715 0.036621
vt 0.657715 0.036387
vt 0.668262 0.036387
vt 0.395996 0.163574
vt 0.395996 0.158887
vt 0.406543 0.158887
vt 0.406543 0.158887
vt 0.406543 0.163574
vt 0.395996 0.163574
vt 0.313965 0.158887
vt 0.324512 0.158887
vt 0.324512 0.163574
vt 0.324512 0.163574
vt 0.313965 0.163574
vt 0.313965 0.158887
vt 0.627164 0.082362
vt 0.622615 0.083496
vt 0.622559 0.083269
vt 0.627107 0.082135
vt 0.599902 0.036621
vt 0.589355 0.036621
vt 0.589355 0.036387
vt 0.599902 0.036387
vt 0.634919 0.083496
vt 0.630371 0.082362
vt 0.630428 0.082135
vt 0.634976 0.083269
vt 0.681934 0.036621
vt 0.671387 0.036621
vt 0.671387 0.036387
vt 0.681934 0.036387
vt 0.409668 0.163574
vt 0.409668 0.158887
vt 0.420215 0.158887
vt 0.420215 0.158887
vt 0.420215 0.163574
vt 0.409668 0.163574
vt 0.327637 0.158887
vt 0.338184 0.158887
vt 0.338184 0.163574
vt 0.338184 0.163574
vt 0.327637 0.163574
vt 0.327637 0.158887
vn -1 0 0
vn 0 0.970296 0.241922
vn 1 0 0
vn 0 -0.970296 -0.241922
vn 0 -0.241922 0.970296
vn 0 0.241922 -0.970296
f 67/321/35 68/322/35 72/323/35 71/324/35
f 68/325/36 69/326/36 73/327/36 72/328/36
f 69/329/37 70/330/37 74/331/37 73/332/37
f 70/333/38 67/334/38 71/335/38 74/336/38
f 76/337/39 75/338/39 78/339/39
f 78/340/39 77/341/39 76/342/39
f 82/343/40 79/344/40 80/345/40
f 80/346/40 81/347/40 82/348/40
f 83/349/35 84/350/35 88/351/35 87/352/35
f 84/353/36 85/354/36 89/355/36 88/356/36
f 85/357/37 86/358/37 90/359/37 89/360/37
f 86/361/38 83/362/38 87/363/38 90/364/38
f 92/365/39 91/366/39 94/367/39
f 94/368/39 93/369/39 92/370/39
f 98/371/40 95/372/40 96/373/40
f 96/374/40 97/375/40 98/376/40
