# AFL Intake Pump V1 status lamp (green: pumping), generated by tools/build-intake-pump-v1.mjs
mtllib lamp_run.mtl
o lamp_run_lens
usemtl intake_pump
v 0.94375 0.375505 0.82006
v 0.94375 0.369719 0.834028
v 0.94375 0.359028 0.844719
v 0.94375 0.34506 0.850505
v 0.94375 0.32994 0.850505
v 0.94375 0.315972 0.844719
v 0.94375 0.305281 0.834028
v 0.94375 0.299495 0.82006
v 0.94375 0.299495 0.80494
v 0.94375 0.305281 0.790972
v 0.94375 0.315972 0.780281
v 0.94375 0.32994 0.774495
v 0.94375 0.34506 0.774495
v 0.94375 0.359028 0.780281
v 0.94375 0.369719 0.790972
v 0.94375 0.375505 0.80494
v 0.95375 0.375505 0.82006
v 0.95375 0.369719 0.834028
v 0.95375 0.359028 0.844719
v 0.95375 0.34506 0.850505
v 0.95375 0.32994 0.850505
v 0.95375 0.315972 0.844719
v 0.95375 0.305281 0.834028
v 0.95375 0.299495 0.82006
v 0.95375 0.299495 0.80494
v 0.95375 0.305281 0.790972
v 0.95375 0.315972 0.780281
v 0.95375 0.32994 0.774495
v 0.95375 0.34506 0.774495
v 0.95375 0.359028 0.780281
v 0.95375 0.369719 0.790972
v 0.95375 0.375505 0.80494
v 0.96 0.36815 0.818597
v 0.96 0.363483 0.829862
v 0.96 0.354862 0.838483
v 0.96 0.343597 0.84315
v 0.96 0.331403 0.84315
v 0.96 0.320138 0.838483
v 0.96 0.311517 0.829862
v 0.96 0.30685 0.818597
v 0.96 0.30685 0.806403
v 0.96 0.311517 0.795138
v 0.96 0.320138 0.786517
v 0.96 0.331403 0.78185
v 0.96 0.343597 0.78185
v 0.96 0.354862 0.786517
v 0.96 0.363483 0.795138
v 0.96 0.36815 0.806403
v 0.96375 0.35589 0.816158
v 0.96375 0.35309 0.822917
v 0.96375 0.347917 0.82809
v 0.96375 0.341158 0.83089
v 0.96375 0.333842 0.83089
v 0.96375 0.327083 0.82809
v 0.96375 0.32191 0.822917
v 0.96375 0.31911 0.816158
v 0.96375 0.31911 0.808842
v 0.96375 0.32191 0.802083
v 0.96375 0.327083 0.79691
v 0.96375 0.333842 0.79411
v 0.96375 0.341158 0.79411
v 0.96375 0.347917 0.79691
v 0.96375 0.35309 0.802083
v 0.96375 0.35589 0.808842
v 0.965 0.3375 0.8125
v 0.965 0.3375 0.8125
v 0.965 0.3375 0.8125
v 0.965 0.3375 0.8125
v 0.965 0.3375 0.8125
v 0.965 0.3375 0.8125
v 0.965 0.3375 0.8125
v 0.965 0.3375 0.8125
v 0.965 0.3375 0.8125
v 0.965 0.3375 0.8125
v 0.965 0.3375 0.8125
v 0.965 0.3375 0.8125
v 0.965 0.3375 0.8125
v 0.965 0.3375 0.8125
v 0.965 0.3375 0.8125
v 0.965 0.3375 0.8125
v 0.94375 0.3375 0.8125
vt 0.10791 0.05627
vt 0.110686 0.05627
vt 0.110686 0.058105
vt 0.10791 0.058105
vt 0.11377 0.05627
vt 0.116545 0.05627
vt 0.116545 0.058105
vt 0.11377 0.058105
vt 0.119629 0.05627
vt 0.122405 0.05627
vt 0.122405 0.058105
vt 0.119629 0.058105
vt 0.128264 0.058105
vt 0.125488 0.058105
vt 0.125488 0.05627
vt 0.128264 0.05627
vt 0.968108 0.063965
vt 0.965332 0.063965
vt 0.965332 0.062129
vt 0.968108 0.062129
vt 0.973967 0.063965
vt 0.971191 0.063965
vt 0.971191 0.062129
vt 0.973967 0.062129
vt 0.134124 0.058105
vt 0.131348 0.058105
vt 0.131348 0.05627
vt 0.134124 0.05627
vt 0.139983 0.058105
vt 0.137207 0.058105
vt 0.137207 0.05627
vt 0.139983 0.05627
vt 0.145842 0.058105
vt 0.143066 0.058105
vt 0.143066 0.05627
vt 0.145842 0.05627
vt 0.938811 0.063965
vt 0.936035 0.063965
vt 0.936035 0.062129
vt 0.938811 0.062129
vt 0.151702 0.058105
vt 0.148926 0.058105
vt 0.148926 0.05627
vt 0.151702 0.05627
vt 0.154785 0.05627
vt 0.157561 0.05627
vt 0.157561 0.058105
vt 0.154785 0.058105
vt 0.184082 0.05627
vt 0.186858 0.05627
vt 0.186858 0.058105
vt 0.184082 0.058105
vt 0.160645 0.05627
vt 0.16342 0.05627
vt 0.16342 0.058105
vt 0.160645 0.058105
vt 0.20166 0.05627
vt 0.204436 0.05627
vt 0.204436 0.058105
vt 0.20166 0.058105
vt 0.166504 0.05627
vt 0.16928 0.05627
vt 0.16928 0.058105
vt 0.166504 0.058105
vt 0.565219 0.06738
vt 0.567866 0.068215
vt 0.567076 0.069824
vt 0.564941 0.06915
vt 0.587286 0.103028
vt 0.589494 0.10471
vt 0.588206 0.105957
vt 0.586426 0.1046
vt 0.879514 0.080217
vt 0.877075 0.081543
vt 0.876465 0.079858
vt 0.878432 0.078789
vt 0.239592 0.058105
vt 0.236816 0.058105
vt 0.237085 0.056333
vt 0.239324 0.056333
vt 0.88574 0.081543
vt 0.883301 0.080217
vt 0.884383 0.078789
vt 0.88635 0.079858
vt 0.555314 0.104275
vt 0.553107 0.105957
vt 0.552246 0.104385
vt 0.554027 0.103028
vt 0.53271 0.068989
vt 0.530062 0.069824
vt 0.529785 0.068053
vt 0.53192 0.06738
vt 0.25717 0.058105
vt 0.254395 0.058105
vt 0.254663 0.056333
vt 0.256902 0.056333
vt 0.55001 0.069824
vt 0.547363 0.068989
vt 0.548153 0.06738
vt 0.550288 0.068053
vt 0.533946 0.105957
vt 0.531738 0.104275
vt 0.533026 0.103028
vt 0.534807 0.104385
vt 0.910645 0.080114
vt 0.913083 0.078789
vt 0.913694 0.080474
vt 0.911727 0.081543
vt 0.219238 0.056333
vt 0.222014 0.056333
vt 0.221745 0.058105
vt 0.219507 0.058105
vt 0.890747 0.078789
vt 0.893186 0.080114
vt 0.892104 0.081543
vt 0.890137 0.080474
vt 0.593262 0.10471
vt 0.59547 0.103028
vt 0.59633 0.1046
vt 0.59455 0.105957
vt 0.512207 0.068215
vt 0.514854 0.06738
vt 0.515131 0.06915
vt 0.512997 0.069824
vt 0.271973 0.056333
vt 0.274749 0.056333
vt 0.27448 0.058105
vt 0.272241 0.058105
vt 0.150887 0.288714
vt 0.152958 0.289564
vt 0.151662 0.291542
vt 0.150419 0.291032
vt 0.152958 0.289564
vt 0.154548 0.291135
vt 0.152616 0.292484
vt 0.151662 0.291542
vt 0.154548 0.291135
vt 0.155416 0.293188
vt 0.153137 0.293716
vt 0.152616 0.292484
vt 0.155416 0.293188
vt 0.15543 0.29541
vt 0.153145 0.295049
vt 0.153137 0.293716
vt 0.295349 0.261648
vt 0.29447 0.263697
vt 0.292523 0.262339
vt 0.293051 0.26111
vt 0.29447 0.263697
vt 0.292874 0.265265
vt 0.291566 0.26328
vt 0.292523 0.262339
vt 0.292874 0.265265
vt 0.290803 0.266113
vt 0.290323 0.263789
vt 0.291566 0.26328
vt 0.290803 0.266113
vt 0.288574 0.266113
vt 0.288986 0.263789
vt 0.290323 0.263789
vt 0.259277 0.264951
vt 0.26013 0.262891
vt 0.262094 0.264224
vt 0.261582 0.265459
vt 0.26013 0.262891
vt 0.261706 0.261303
vt 0.26304 0.263271
vt 0.262094 0.264224
vt 0.261706 0.261303
vt 0.263766 0.260428
vt 0.264275 0.262746
vt 0.26304 0.263271
vt 0.263766 0.260428
vt 0.265995 0.2604
vt 0.265613 0.262729
vt 0.264275 0.262746
vt 0.654785 0.125284
vt 0.655654 0.123221
vt 0.657635 0.124541
vt 0.657114 0.125779
vt 0.14502 0.291135
vt 0.146591 0.289564
vt 0.147841 0.291542
vt 0.146899 0.292484
vt 0.146591 0.289564
vt 0.148651 0.288714
vt 0.149078 0.291032
vt 0.147841 0.291542
vt 0.148651 0.288714
vt 0.150887 0.288714
vt 0.150419 0.291032
vt 0.149078 0.291032
vt 0.540527 0.019043
vt 0.540527 0.019043
vt 0.541199 0.019043
vt 0.150419 0.291032
vt 0.151662 0.291542
vt 0.149758 0.294411
vt 0.47998 0.019043
vt 0.47998 0.019043
vt 0.481893 0.019043
vt 0.151662 0.291542
vt 0.152616 0.292484
vt 0.149758 0.294411
vt 0.438965 0.019043
vt 0.438965 0.019043
vt 0.441827 0.019043
vt 0.152616 0.292484
vt 0.153137 0.293716
vt 0.149758 0.294411
vt 0.353027 0.019043
vt 0.353027 0.019043
vt 0.356404 0.019043
vt 0.153137 0.293716
vt 0.153145 0.295049
vt 0.149758 0.294411
vt 0.359863 0.019043
vt 0.359863 0.019043
vt 0.36324 0.019043
vt 0.293051 0.26111
vt 0.292523 0.262339
vt 0.289676 0.260413
vt 0.403809 0.019043
vt 0.403809 0.019043
vt 0.406671 0.019043
vt 0.292523 0.262339
vt 0.291566 0.26328
vt 0.289676 0.260413
vt 0.484863 0.019043
vt 0.484863 0.019043
vt 0.486776 0.019043
vt 0.291566 0.26328
vt 0.290323 0.263789
vt 0.289676 0.260413
vt 0.544434 0.019043
vt 0.544434 0.019043
vt 0.545105 0.019043
vt 0.290323 0.263789
vt 0.288986 0.263789
vt 0.289676 0.260413
vt 0.549011 0.019043
vt 0.549011 0.019043
vt 0.54834 0.019043
vt 0.261582 0.265459
vt 0.262094 0.264224
vt 0.264965 0.266113
vt 0.506307 0.019043
vt 0.506307 0.019043
vt 0.504395 0.019043
vt 0.262094 0.264224
vt 0.26304 0.263271
vt 0.264965 0.266113
vt 0.447686 0.019043
vt 0.447686 0.019043
vt 0.444824 0.019043
vt 0.26304 0.263271
vt 0.264275 0.262746
vt 0.264965 0.266113
vt 0.370075 0.019043
vt 0.370075 0.019043
vt 0.366699 0.019043
vt 0.264275 0.262746
vt 0.265613 0.262729
vt 0.264965 0.266113
vt 0.376911 0.019043
vt 0.376911 0.019043
vt 0.373535 0.019043
vt 0.657114 0.125779
vt 0.657635 0.124541
vt 0.660473 0.126465
vt 0.41253 0.019043
vt 0.41253 0.019043
vt 0.409668 0.019043
vt 0.146899 0.292484
vt 0.147841 0.291542
vt 0.149758 0.294411
vt 0.491659 0.019043
vt 0.491659 0.019043
vt 0.489746 0.019043
vt 0.147841 0.291542
vt 0.149078 0.291032
vt 0.149758 0.294411
vt 0.552918 0.019043
vt 0.552918 0.019043
vt 0.552246 0.019043
vt 0.149078 0.291032
vt 0.150419 0.291032
vt 0.149758 0.294411
vt 0.126653 0.441809
vt 0.124088 0.442871
vt 0.1227 0.435894
vt 0.128616 0.439846
vt 0.126653 0.441809
vt 0.1227 0.435894
vt 0.129678 0.437281
vt 0.128616 0.439846
vt 0.1227 0.435894
vt 0.129678 0.434506
vt 0.129678 0.437281
vt 0.1227 0.435894
vt 0.128616 0.431941
vt 0.129678 0.434506
vt 0.1227 0.435894
vt 0.126653 0.429978
vt 0.128616 0.431941
vt 0.1227 0.435894
vt 0.124088 0.428916
vt 0.126653 0.429978
vt 0.1227 0.435894
vt 0.121312 0.428916
vt 0.124088 0.428916
vt 0.1227 0.435894
vt 0.118748 0.429978
vt 0.121312 0.428916
vt 0.1227 0.435894
vt 0.116785 0.431941
vt 0.118748 0.429978
vt 0.1227 0.435894
vt 0.115723 0.434506
vt 0.116785 0.431941
vt 0.1227 0.435894
vt 0.115723 0.437281
vt 0.115723 0.434506
vt 0.1227 0.435894
vt 0.116785 0.439846
vt 0.115723 0.437281
vt 0.1227 0.435894
vt 0.118748 0.441809
vt 0.116785 0.439846
vt 0.1227 0.435894
vt 0.121312 0.442871
vt 0.118748 0.441809
vt 0.1227 0.435894
vt 0.124088 0.442871
vt 0.121312 0.442871
vt 0.1227 0.435894
vn 0 0.980785 0.19509
vn 0 0.83147 0.55557
vn 0 0.55557 0.83147
vn 0 0.19509 0.980785
vn 0 -0.19509 0.980785
vn 0 -0.55557 0.83147
vn 0 -0.83147 0.55557
vn 0 -0.980785 0.19509
vn 0 -0.980785 -0.19509
vn 0 -0.83147 -0.55557
vn 0 -0.55557 -0.83147
vn 0 -0.19509 -0.980785
vn 0 0.19509 -0.980785
vn 0 0.55557 -0.83147
vn 0 0.83147 -0.55557
vn 0 0.980785 -0.19509
vn 0.768221 0.627883 0.124894
vn 0.768221 0.532294 0.355667
vn 0.878625 0.397038 0.265292
vn 0.878625 0.468338 0.093158
vn 0.768221 0.355667 0.532294
vn 0.878625 0.265292 0.397038
vn 0.768221 0.124894 0.627883
vn 0.878625 0.093158 0.468338
vn 0.768221 -0.124894 0.627883
vn 0.878625 -0.093158 0.468338
vn 0.768221 -0.355667 0.532294
vn 0.878625 -0.265292 0.397038
vn 0.768221 -0.532294 0.355667
vn 0.878625 -0.397038 0.265292
vn 0.768221 -0.627883 0.124894
vn 0.878625 -0.468338 0.093158
vn 0.768221 -0.627883 -0.124894
vn 0.878625 -0.468338 -0.093158
vn 0.768221 -0.532294 -0.355667
vn 0.878625 -0.397038 -0.265292
vn 0.768221 -0.355667 -0.532294
vn 0.878625 -0.265292 -0.397038
vn 0.768221 -0.124894 -0.627883
vn 0.878625 -0.093158 -0.468338
vn 0.768221 0.124894 -0.627883
vn 0.878625 0.093158 -0.468338
vn 0.768221 0.355667 -0.532294
vn 0.878625 0.265292 -0.397038
vn 0.768221 0.532294 -0.355667
vn 0.878625 0.397038 -0.265292
vn 0.768221 0.627883 -0.124894
vn 0.878625 0.468338 -0.093158
vn 0.977458 0.175549 0.117298
vn 0.977458 0.207074 0.04119
vn 0.977458 0.117298 0.175549
vn 0.977458 0.04119 0.207074
vn 0.977458 -0.04119 0.207074
vn 0.977458 -0.117298 0.175549
vn 0.977458 -0.175549 0.117298
vn 0.977458 -0.207074 0.04119
vn 0.977458 -0.207074 -0.04119
vn 0.977458 -0.175549 -0.117298
vn 0.977458 -0.117298 -0.175549
vn 0.977458 -0.04119 -0.207074
vn 0.977458 0.04119 -0.207074
vn 0.977458 0.117298 -0.175549
vn 0.977458 0.175549 -0.117298
vn 0.977458 0.207074 -0.04119
vn 0 0 0
vn 0.997698 0.062654 0.025952
vn 0.997698 0.047953 0.047953
vn 0.997698 0.025952 0.062654
vn 0.997698 0 0.067816
vn 0.997698 -0.025952 0.062654
vn 0.997698 -0.047953 0.047953
vn 0.997698 -0.062654 0.025952
vn 0.997698 -0.067816 0
vn 0.997698 -0.062654 -0.025952
vn 0.997698 -0.047953 -0.047953
vn 0.997698 -0.025952 -0.062654
vn 0.997698 0 -0.067816
vn 0.997698 0.025952 -0.062654
vn 0.997698 0.047953 -0.047953
vn 0.997698 0.062654 -0.025952
vn 0.997698 0.067816 0
vn -1 0 0
f 1/1/1 2/2/2 18/3/2 17/4/1
f 2/5/2 3/6/3 19/7/3 18/8/2
f 3/9/3 4/10/4 20/11/4 19/12/3
f 4/13/4 5/14/5 21/15/5 20/16/4
f 5/17/5 6/18/6 22/19/6 21/20/5
f 6/21/6 7/22/7 23/23/7 22/24/6
f 7/25/7 8/26/8 24/27/8 23/28/7
f 8/29/8 9/30/9 25/31/9 24/32/8
f 9/33/9 10/34/10 26/35/10 25/36/9
f 10/37/10 11/38/11 27/39/11 26/40/10
f 11/41/11 12/42/12 28/43/12 27/44/11
f 12/45/12 13/46/13 29/47/13 28/48/12
f 13/49/13 14/50/14 30/51/14 29/52/13
f 14/53/14 15/54/15 31/55/15 30/56/14
f 15/57/15 16/58/16 32/59/16 31/60/15
f 16/61/16 1/62/1 17/63/1 32/64/16
f 17/65/17 18/66/18 34/67/19 33/68/20
f 18/69/18 19/70/21 35/71/22 34/72/19
f 19/73/21 20/74/23 36/75/24 35/76/22
f 20/77/23 21/78/25 37/79/26 36/80/24
f 21/81/25 22/82/27 38/83/28 37/84/26
f 22/85/27 23/86/29 39/87/30 38/88/28
f 23/89/29 24/90/31 40/91/32 39/92/30
f 24/93/31 25/94/33 41/95/34 40/96/32
f 25/97/33 26/98/35 42/99/36 41/100/34
f 26/101/35 27/102/37 43/103/38 42/104/36
f 27/105/37 28/106/39 44/107/40 43/108/38
f 28/109/39 29/110/41 45/111/42 44/112/40
f 29/113/41 30/114/43 46/115/44 45/116/42
f 30/117/43 31/118/45 47/119/46 46/120/44
f 31/121/45 32/122/47 48/123/48 47/124/46
f 32/125/47 17/126/17 33/127/20 48/128/48
f 33/129/20 34/130/19 50/131/49 49/132/50
f 34/133/19 35/134/22 51/135/51 50/136/49
f 35/137/22 36/138/24 52/139/52 51/140/51
f 36/141/24 37/142/26 53/143/53 52/144/52
f 37/145/26 38/146/28 54/147/54 53/148/53
f 38/149/28 39/150/30 55/151/55 54/152/54
f 39/153/30 40/154/32 56/155/56 55/156/55
f 40/157/32 41/158/34 57/159/57 56/160/56
f 41/161/34 42/162/36 58/163/58 57/164/57
f 42/165/36 43/166/38 59/167/59 58/168/58
f 43/169/38 44/170/40 60/171/60 59/172/59
f 44/173/40 45/174/42 61/175/61 60/176/60
f 45/177/42 46/178/44 62/179/62 61/180/61
f 46/181/44 47/182/46 63/183/63 62/184/62
f 47/185/46 48/186/48 64/187/64 63/188/63
f 48/189/48 33/190/20 49/191/50 64/192/64
f 66/193/65 65/194/65 49/195/65
f 49/196/50 50/197/49 66/198/66
f 67/199/65 66/200/65 50/201/65
f 50/202/49 51/203/51 67/204/67
f 68/205/65 67/206/65 51/207/65
f 51/208/51 52/209/52 68/210/68
f 69/211/65 68/212/65 52/213/65
f 52/214/52 53/215/53 69/216/69
f 70/217/65 69/218/65 53/219/65
f 53/220/53 54/221/54 70/222/70
f 71/223/65 70/224/65 54/225/65
f 54/226/54 55/227/55 71/228/71
f 72/229/65 71/230/65 55/231/65
f 55/232/55 56/233/56 72/234/72
f 73/235/65 72/236/65 56/237/65
f 56/238/56 57/239/57 73/240/73
f 74/241/65 73/242/65 57/243/65
f 57/244/57 58/245/58 74/246/74
f 75/247/65 74/248/65 58/249/65
f 58/250/58 59/251/59 75/252/75
f 76/253/65 75/254/65 59/255/65
f 59/256/59 60/257/60 76/258/76
f 77/259/65 76/260/65 60/261/65
f 60/262/60 61/263/61 77/264/77
f 78/265/65 77/266/65 61/267/65
f 61/268/61 62/269/62 78/270/78
f 79/271/65 78/272/65 62/273/65
f 62/274/62 63/275/63 79/276/79
f 80/277/65 79/278/65 63/279/65
f 63/280/63 64/281/64 80/282/80
f 65/283/65 80/284/65 64/285/65
f 64/286/64 49/287/50 65/288/81
f 2/289/82 1/290/82 81/291/82
f 3/292/82 2/293/82 81/294/82
f 4/295/82 3/296/82 81/297/82
f 5/298/82 4/299/82 81/300/82
f 6/301/82 5/302/82 81/303/82
f 7/304/82 6/305/82 81/306/82
f 8/307/82 7/308/82 81/309/82
f 9/310/82 8/311/82 81/312/82
f 10/313/82 9/314/82 81/315/82
f 11/316/82 10/317/82 81/318/82
f 12/319/82 11/320/82 81/321/82
f 13/322/82 12/323/82 81/324/82
f 14/325/82 13/326/82 81/327/82
f 15/328/82 14/329/82 81/330/82
f 16/331/82 15/332/82 81/333/82
f 1/334/82 16/335/82 81/336/82
