# AFL Intake Pump V1 isolator handle (on), generated by tools/build-intake-pump-v1.mjs
mtllib switch_on.mtl
o switch_on_handle
usemtl intake_pump
v 0.96875 0.465625 0.79625
v 0.96875 0.465625 0.82875
v 0.96875 0.609375 0.82875
v 0.96875 0.609375 0.79625
v 0.975 0.459375 0.79
v 0.975 0.459375 0.835
v 0.975 0.615625 0.835
v 0.975 0.615625 0.79
v 0.99 0.459375 0.79
v 0.99 0.459375 0.835
v 0.99 0.615625 0.835
v 0.99 0.615625 0.79
v 0.99625 0.465625 0.79625
v 0.99625 0.465625 0.82875
v 0.99625 0.609375 0.82875
v 0.99625 0.609375 0.79625
v 0.96875 0.465625 0.79625
v 0.96875 0.465625 0.82875
v 0.96875 0.609375 0.82875
v 0.96875 0.609375 0.79625
v 0.99625 0.465625 0.79625
v 0.99625 0.465625 0.82875
v 0.99625 0.609375 0.82875
v 0.99625 0.609375 0.79625
vt 0.438965 0.036951
vt 0.447227 0.036951
vt 0.446079 0.038574
vt 0.440112 0.038574
vt 0.895386 0.043457
vt 0.866699 0.043457
vt 0.867847 0.041834
vt 0.894238 0.041834
vt 0.458945 0.038574
vt 0.450684 0.038574
vt 0.451831 0.036951
vt 0.457798 0.036951
vt 0.752441 0.036951
vt 0.781128 0.036951
vt 0.77998 0.038574
vt 0.753589 0.038574
vt 0.066895 0.07293
vt 0.075156 0.07293
vt 0.075156 0.075684
vt 0.066895 0.075684
vt 0.91748 0.078789
vt 0.946167 0.078789
vt 0.946167 0.081543
vt 0.91748 0.081543
vt 0.086875 0.075684
vt 0.078613 0.075684
vt 0.078613 0.07293
vt 0.086875 0.07293
vt 0.978394 0.081543
vt 0.949707 0.081543
vt 0.949707 0.078789
vt 0.978394 0.078789
vt 0.46355 0.036951
vt 0.469517 0.036951
vt 0.470664 0.038574
vt 0.462402 0.038574
vt 0.900073 0.041834
vt 0.926465 0.041834
vt 0.927612 0.043457
vt 0.898926 0.043457
vt 0.481235 0.038574
vt 0.475269 0.038574
vt 0.474121 0.036951
vt 0.482383 0.036951
vt 0.958691 0.043457
vt 0.9323 0.043457
vt 0.931152 0.041834
vt 0.959839 0.041834
vt 0.571777 0.269912
vt 0.598169 0.269912
vt 0.598169 0.275879
vt 0.598169 0.275879
vt 0.571777 0.275879
vt 0.571777 0.269912
vt 0.602051 0.275879
vt 0.602051 0.269912
vt 0.628442 0.269912
vt 0.628442 0.269912
vt 0.628442 0.275879
vt 0.602051 0.275879
vn -0.707107 -0.707107 0
vn -0.707107 0 0.707107
vn -0.707107 0.707107 0
vn -0.707107 0 -0.707107
vn 0 -1 0
vn 0 0 1
vn 0 1 0
vn 0 0 -1
vn 0.707107 -0.707107 0
vn 0.707107 0 0.707107
vn 0.707107 0.707107 0
vn 0.707107 0 -0.707107
vn -1 0 0
vn 1 0 0
f 5/1/1 6/2/1 2/3/1 1/4/1
f 6/5/2 7/6/2 3/7/2 2/8/2
f 7/9/3 8/10/3 4/11/3 3/12/3
f 8/13/4 5/14/4 1/15/4 4/16/4
f 9/17/5 10/18/5 6/19/5 5/20/5
f 10/21/6 11/22/6 7/23/6 6/24/6
f 11/25/7 12/26/7 8/27/7 7/28/7
f 12/29/8 9/30/8 5/31/8 8/32/8
f 13/33/9 14/34/9 10/35/9 9/36/9
f 14/37/10 15/38/10 11/39/10 10/40/10
f 15/41/11 16/42/11 12/43/11 11/44/11
f 16/45/12 13/46/12 9/47/12 12/48/12
f 20/49/13 17/50/13 18/51/13
f 18/52/13 19/53/13 20/54/13
f 22/55/14 21/56/14 24/57/14
f 24/58/14 23/59/14 22/60/14
