# AFL PRAIRIE signage V1 channel letter A (lit), generated by tools/build-prairie-signage-v1.mjs
mtllib a_lit.mtl
o A_body
usemtl letters_am
v 0.784343 0.124997 0.8786
v 0.597155 0.875002 0.8786
v 0.402699 0.874816 0.8786
v 0.216232 0.125544 0.8786
v 0.370094 0.125544 0.8786
v 0.415363 0.304553 0.8786
v 0.584839 0.305004 0.8786
v 0.629975 0.125544 0.8786
v 0.784343 0.124997 0.9996
v 0.597155 0.875002 0.9996
v 0.402699 0.874816 0.9996
v 0.216232 0.125544 0.9996
v 0.370094 0.125544 0.9996
v 0.415363 0.304553 0.9996
v 0.584839 0.305004 0.9996
v 0.629975 0.125544 0.9996
v 0.552919 0.4325 0.8786
v 0.44696 0.4325 0.8786
v 0.500002 0.645132 0.8786
v 0.552919 0.4325 0.9996
v 0.44696 0.4325 0.9996
v 0.500002 0.645132 0.9996
v 0.784343 0.124997 0.8786
v 0.597155 0.875002 0.8786
v 0.402699 0.874816 0.8786
v 0.216232 0.125544 0.8786
v 0.370094 0.125544 0.8786
v 0.415363 0.304553 0.8786
v 0.584839 0.305004 0.8786
v 0.629975 0.125544 0.8786
v 0.552919 0.4325 0.8786
v 0.44696 0.4325 0.8786
v 0.500002 0.645132 0.8786
v 0.784343 0.124997 0.9996
v 0.597155 0.875002 0.9996
v 0.402699 0.874816 0.9996
v 0.216232 0.125544 0.9996
v 0.370094 0.125544 0.9996
v 0.415363 0.304553 0.9996
v 0.584839 0.305004 0.9996
v 0.629975 0.125544 0.9996
v 0.552919 0.4325 0.9996
v 0.44696 0.4325 0.9996
v 0.500002 0.645132 0.9996
vt 0.091064 0.494854
vt 0.181652 0.494854
vt 0.181652 0.509033
vt 0.091064 0.509033
vt 0.809814 0.443584
vt 0.832602 0.443584
vt 0.832602 0.457764
vt 0.809814 0.457764
vt 0.18335 0.494854
vt 0.273833 0.494854
vt 0.273833 0.509033
vt 0.18335 0.509033
vt 0.150635 0.427471
vt 0.168665 0.427471
vt 0.168665 0.44165
vt 0.150635 0.44165
vt 0.881104 0.443584
vt 0.902742 0.443584
vt 0.902742 0.457764
vt 0.881104 0.457764
vt 0.067139 0.427471
vt 0.086999 0.427471
vt 0.086999 0.44165
vt 0.067139 0.44165
vt 0.857666 0.443584
vt 0.879351 0.443584
vt 0.879351 0.457764
vt 0.857666 0.457764
vt 0.130615 0.427471
vt 0.148705 0.427471
vt 0.148705 0.44165
vt 0.130615 0.44165
vt 0.929443 0.44165
vt 0.929443 0.429233
vt 0.943623 0.429233
vt 0.943623 0.44165
vt 0.626709 0.443584
vt 0.65239 0.443584
vt 0.65239 0.457764
vt 0.626709 0.457764
vt 0.654053 0.443584
vt 0.679731 0.443584
vt 0.679731 0.457764
vt 0.654053 0.457764
vt 0.538331 0.740027
vt 0.450439 0.761963
vt 0.450504 0.743873
vt 0.450504 0.695387
vt 0.538309 0.717239
vt 0.538331 0.740027
vt 0.471481 0.718723
vt 0.450504 0.713418
vt 0.450504 0.695387
vt 0.486475 0.734843
vt 0.471534 0.738584
vt 0.471481 0.718723
vt 0.486475 0.734843
vt 0.471481 0.718723
vt 0.450504 0.695387
vt 0.486475 0.722426
vt 0.486475 0.734843
vt 0.450504 0.695387
vt 0.511393 0.728642
vt 0.486475 0.722426
vt 0.450504 0.695387
vt 0.511393 0.728642
vt 0.450504 0.695387
vt 0.538331 0.740027
vt 0.511393 0.728642
vt 0.538331 0.740027
vt 0.450504 0.743873
vt 0.486475 0.734843
vt 0.511393 0.728642
vt 0.450504 0.743873
vt 0.450504 0.743873
vt 0.471534 0.738584
vt 0.486475 0.734843
vt 0.540347 0.713477
vt 0.540283 0.695387
vt 0.628174 0.717323
vt 0.628174 0.717323
vt 0.628153 0.740111
vt 0.540347 0.761963
vt 0.540347 0.761963
vt 0.540347 0.743932
vt 0.561325 0.738627
vt 0.561325 0.738627
vt 0.561378 0.718767
vt 0.576319 0.722507
vt 0.540347 0.761963
vt 0.561325 0.738627
vt 0.576319 0.722507
vt 0.540347 0.761963
vt 0.576319 0.722507
vt 0.576319 0.734924
vt 0.540347 0.761963
vt 0.576319 0.734924
vt 0.601237 0.728709
vt 0.628174 0.717323
vt 0.540347 0.761963
vt 0.601237 0.728709
vt 0.540347 0.713477
vt 0.628174 0.717323
vt 0.601237 0.728709
vt 0.540347 0.713477
vt 0.601237 0.728709
vt 0.576319 0.722507
vt 0.576319 0.722507
vt 0.561378 0.718767
vt 0.540347 0.713477
vn 0.970238 0.242154 0
vn -0.000955 1 0
vn -0.970401 0.241498 0
vn 0 -1 0
vn 0.96948 -0.24517 0
vn 0.002659 -0.999996 0
vn -0.969798 -0.243911 0
vn -0.003544 -0.999994 0
vn 0 1 0
vn 0.970268 -0.242034 0
vn -0.9704 -0.241503 0
vn 0 0 -1
vn 0 0 1
f 1/1/1 2/2/1 10/3/1 9/4/1
f 2/5/2 3/6/2 11/7/2 10/8/2
f 3/9/3 4/10/3 12/11/3 11/12/3
f 4/13/4 5/14/4 13/15/4 12/16/4
f 5/17/5 6/18/5 14/19/5 13/20/5
f 6/21/6 7/22/6 15/23/6 14/24/6
f 7/25/7 8/26/7 16/27/7 15/28/7
f 8/29/8 1/30/8 9/31/8 16/32/8
f 17/33/9 18/34/9 21/35/9 20/36/9
f 18/37/10 19/38/10 22/39/10 21/40/10
f 19/41/11 17/42/11 20/43/11 22/44/11
f 24/45/12 23/46/12 30/47/12
f 26/48/12 25/49/12 24/50/12
f 28/51/12 27/52/12 26/53/12
f 31/54/12 29/55/12 28/56/12
f 31/57/12 28/58/12 26/59/12
f 32/60/12 31/61/12 26/62/12
f 33/63/12 32/64/12 26/65/12
f 33/66/12 26/67/12 24/68/12
f 33/69/12 24/70/12 30/71/12
f 31/72/12 33/73/12 30/74/12
f 30/75/12 29/76/12 31/77/12
f 41/78/13 34/79/13 35/80/13
f 35/81/13 36/82/13 37/83/13
f 37/84/13 38/85/13 39/86/13
f 39/87/13 40/88/13 42/89/13
f 37/90/13 39/91/13 42/92/13
f 37/93/13 42/94/13 43/95/13
f 37/96/13 43/97/13 44/98/13
f 35/99/13 37/100/13 44/101/13
f 41/102/13 35/103/13 44/104/13
f 41/105/13 44/106/13 42/107/13
f 42/108/13 40/109/13 41/110/13
o A_face_lit
usemtl letters_am_glow
v 0.786006 0.1237 0.8726
v 0.59827 0.8763 0.8726
v 0.4023 0.876262 0.8726
v 0.213994 0.1237 0.8726
v 0.371257 0.1237 0.8726
v 0.416427 0.303371 0.8726
v 0.583826 0.303705 0.8726
v 0.628833 0.1237 0.8726
v 0.787542 0.1225 0.8738
v 0.599207 0.8775 0.8738
v 0.401363 0.877462 0.8738
v 0.212457 0.1225 0.8738
v 0.372192 0.1225 0.8738
v 0.417363 0.302173 0.8738
v 0.58289 0.302503 0.8738
v 0.627896 0.1225 0.8738
v 0.787542 0.1225 0.8784
v 0.599207 0.8775 0.8784
v 0.401363 0.877462 0.8784
v 0.212457 0.1225 0.8784
v 0.372192 0.1225 0.8784
v 0.417363 0.302173 0.8784
v 0.58289 0.302503 0.8784
v 0.627896 0.1225 0.8784
v 0.786006 0.1237 0.8796
v 0.59827 0.8763 0.8796
v 0.4023 0.876262 0.8796
v 0.213994 0.1237 0.8796
v 0.371257 0.1237 0.8796
v 0.416427 0.303371 0.8796
v 0.583826 0.303705 0.8796
v 0.628833 0.1237 0.8796
v 0.55124 0.434344 0.8726
v 0.449079 0.434344 0.8726
v 0.499997 0.63646 0.8726
v 0.549704 0.435544 0.8738
v 0.450613 0.435544 0.8738
v 0.499998 0.634805 0.8738
v 0.549704 0.435544 0.8784
v 0.450613 0.435544 0.8784
v 0.499998 0.634805 0.8784
v 0.55124 0.434344 0.8796
v 0.449079 0.434344 0.8796
v 0.499997 0.63646 0.8796
v 0.786006 0.1237 0.8726
v 0.59827 0.8763 0.8726
v 0.4023 0.876262 0.8726
v 0.213994 0.1237 0.8726
v 0.371257 0.1237 0.8726
v 0.416427 0.303371 0.8726
v 0.583826 0.303705 0.8726
v 0.628833 0.1237 0.8726
v 0.55124 0.434344 0.8726
v 0.449079 0.434344 0.8726
v 0.499997 0.63646 0.8726
v 0.786006 0.1237 0.8796
v 0.59827 0.8763 0.8796
v 0.4023 0.876262 0.8796
v 0.213994 0.1237 0.8796
v 0.371257 0.1237 0.8796
v 0.416427 0.303371 0.8796
v 0.583826 0.303705 0.8796
v 0.628833 0.1237 0.8796
v 0.55124 0.434344 0.8796
v 0.449079 0.434344 0.8796
v 0.499997 0.63646 0.8796
vt 0.523862 0.356002
vt 0.61476 0.356002
vt 0.614869 0.356201
vt 0.523682 0.356201
vt 0.482288 0.330612
vt 0.505253 0.330612
vt 0.505363 0.330811
vt 0.482178 0.330811
vt 0.242541 0.354049
vt 0.333451 0.354049
vt 0.333631 0.354248
vt 0.242432 0.354248
vt 0.44769 0.34233
vt 0.466119 0.34233
vt 0.466229 0.342529
vt 0.44751 0.342529
vt 0.478869 0.354049
vt 0.50058 0.354049
vt 0.50047 0.354248
vt 0.47876 0.354248
vt 0.425537 0.338424
vt 0.445154 0.338424
vt 0.445044 0.338623
vt 0.425647 0.338623
vt 0.525635 0.354049
vt 0.547378 0.354049
vt 0.547488 0.354248
vt 0.525745 0.354248
vt 0.508655 0.338424
vt 0.527073 0.338424
vt 0.527253 0.338623
vt 0.508545 0.338623
vt 0.555908 0.382518
vt 0.647096 0.382518
vt 0.647096 0.383057
vt 0.555908 0.383057
vt 0.556396 0.365428
vt 0.579581 0.365428
vt 0.579581 0.365967
vt 0.556396 0.365967
vt 0.370361 0.382518
vt 0.461561 0.382518
vt 0.461561 0.383057
vt 0.370361 0.383057
vt 0.147705 0.362986
vt 0.166424 0.362986
vt 0.166424 0.363525
vt 0.147705 0.363525
vt 0.748291 0.365428
vt 0.770002 0.365428
vt 0.770002 0.365967
vt 0.748291 0.365967
vt 0.065186 0.362986
vt 0.084583 0.362986
vt 0.084583 0.363525
vt 0.065186 0.363525
vt 0.701416 0.365428
vt 0.723159 0.365428
vt 0.723159 0.365967
vt 0.701416 0.365967
vt 0.188721 0.362986
vt 0.207429 0.362986
vt 0.207429 0.363525
vt 0.188721 0.363525
vt 0.709229 0.356002
vt 0.800416 0.356002
vt 0.800306 0.356201
vt 0.709409 0.356201
vt 0.11499 0.332565
vt 0.138175 0.332565
vt 0.138065 0.332764
vt 0.1151 0.332764
vt 0.346924 0.352096
vt 0.438124 0.352096
vt 0.437943 0.352295
vt 0.347034 0.352295
vt 0.468018 0.34233
vt 0.486737 0.34233
vt 0.486627 0.342529
vt 0.468198 0.342529
vt 0.964111 0.354049
vt 0.985822 0.354049
vt 0.985931 0.354248
vt 0.964221 0.354248
vt 0.385119 0.34233
vt 0.404517 0.34233
vt 0.404627 0.342529
vt 0.38501 0.342529
vt 0.881214 0.352096
vt 0.902957 0.352096
vt 0.902847 0.352295
vt 0.881104 0.352295
vt 0.234619 0.350143
vt 0.253328 0.350143
vt 0.253148 0.350342
vt 0.234729 0.350342
vt 0.731689 0.330612
vt 0.743661 0.330612
vt 0.743482 0.330811
vt 0.731869 0.330811
vt 0.116455 0.326709
vt 0.140881 0.326735
vt 0.140692 0.326878
vt 0.116635 0.326904
vt 0.221924 0.326735
vt 0.246359 0.326709
vt 0.246178 0.326904
vt 0.222112 0.326878
vt 0.747314 0.360545
vt 0.758927 0.360545
vt 0.758927 0.361084
vt 0.747314 0.361084
vt 0.352295 0.365428
vt 0.376352 0.365428
vt 0.376352 0.365967
vt 0.352295 0.365967
vt 0.300537 0.365428
vt 0.324604 0.365428
vt 0.324604 0.365967
vt 0.300537 0.365967
vt 0.962338 0.332565
vt 0.97395 0.332565
vt 0.97413 0.332764
vt 0.962158 0.332764
vt 0.169369 0.326709
vt 0.193427 0.326735
vt 0.193615 0.326878
vt 0.169189 0.326904
vt 0.274846 0.326735
vt 0.298913 0.326709
vt 0.299093 0.326904
vt 0.274658 0.326878
vt 0.986877 0.812228
vt 0.898682 0.834229
vt 0.898682 0.81581
vt 0.898682 0.767196
vt 0.986873 0.789263
vt 0.986877 0.812228
vt 0.919737 0.790918
vt 0.898682 0.785625
vt 0.898682 0.767196
vt 0.935085 0.806717
vt 0.919776 0.810536
vt 0.919737 0.790918
vt 0.935085 0.806717
vt 0.919737 0.790918
vt 0.898682 0.767196
vt 0.935085 0.794745
vt 0.935085 0.806717
vt 0.898682 0.767196
vt 0.958771 0.800712
vt 0.935085 0.794745
vt 0.898682 0.767196
vt 0.958771 0.800712
vt 0.898682 0.767196
vt 0.986877 0.812228
vt 0.935085 0.806717
vt 0.958771 0.800712
vt 0.986877 0.812228
vt 0.935085 0.806717
vt 0.986877 0.812228
vt 0.898682 0.81581
vt 0.898682 0.81581
vt 0.919776 0.810536
vt 0.935085 0.806717
vt 0.001221 0.713349
vt 0.001221 0.69493
vt 0.089416 0.716931
vt 0.089416 0.716931
vt 0.089412 0.739896
vt 0.001221 0.761963
vt 0.001221 0.761963
vt 0.001221 0.743534
vt 0.022276 0.73824
vt 0.022276 0.73824
vt 0.022315 0.718623
vt 0.037624 0.722442
vt 0.001221 0.761963
vt 0.022276 0.73824
vt 0.037624 0.722442
vt 0.001221 0.761963
vt 0.037624 0.722442
vt 0.037624 0.734414
vt 0.001221 0.761963
vt 0.037624 0.734414
vt 0.06131 0.728447
vt 0.089416 0.716931
vt 0.001221 0.761963
vt 0.06131 0.728447
vt 0.089416 0.716931
vt 0.06131 0.728447
vt 0.037624 0.722442
vt 0.001221 0.713349
vt 0.089416 0.716931
vt 0.037624 0.722442
vt 0.037624 0.722442
vt 0.022315 0.718623
vt 0.001221 0.713349
vn 0.686083 0.171144 -0.707107
vn -0.000136 0.707107 -0.707107
vn -0.685959 0.171641 -0.707107
vn 0 -0.707107 -0.707107
vn 0.685767 -0.172407 -0.707107
vn 0.001411 -0.707105 -0.707107
vn -0.68599 -0.171518 -0.707107
vn 0.970268 0.242034 0
vn -0.000193 1 0
vn -0.970092 0.242736 0
vn 0 -1 0
vn 0.96982 -0.243821 0
vn 0.001996 -0.999998 0
vn -0.970136 -0.242563 0
vn 0.686083 0.171144 0.707107
vn -0.000136 0.707107 0.707107
vn -0.685959 0.171641 0.707107
vn 0 -0.707107 0.707107
vn 0.685767 -0.172407 0.707107
vn 0.001411 -0.707105 0.707107
vn -0.68599 -0.171518 0.707107
vn 0 0.707107 -0.707107
vn 0.807322 -0.201746 -0.554554
vn 0.961332 -0.238668 -0.137398
vn -0.807016 -0.20297 -0.554553
vn -0.960969 -0.240125 -0.137398
vn 0 1 0
vn 0.961332 -0.238668 0.137398
vn -0.960969 -0.240125 0.137398
vn 0 0.707107 0.707107
vn 0.807322 -0.201746 0.554554
vn -0.807016 -0.20297 0.554553
vn 0 0 -1
vn 0 0 1
f 45/111/14 46/112/14 54/113/14 53/114/14
f 46/115/15 47/116/15 55/117/15 54/118/15
f 47/119/16 48/120/16 56/121/16 55/122/16
f 48/123/17 49/124/17 57/125/17 56/126/17
f 49/127/18 50/128/18 58/129/18 57/130/18
f 50/131/19 51/132/19 59/133/19 58/134/19
f 51/135/20 52/136/20 60/137/20 59/138/20
f 52/139/17 45/140/17 53/141/17 60/142/17
f 53/143/21 54/144/21 62/145/21 61/146/21
f 54/147/22 55/148/22 63/149/22 62/150/22
f 55/151/23 56/152/23 64/153/23 63/154/23
f 56/155/24 57/156/24 65/157/24 64/158/24
f 57/159/25 58/160/25 66/161/25 65/162/25
f 58/163/26 59/164/26 67/165/26 66/166/26
f 59/167/27 60/168/27 68/169/27 67/170/27
f 60/171/24 53/172/24 61/173/24 68/174/24
f 61/175/28 62/176/28 70/177/28 69/178/28
f 62/179/29 63/180/29 71/181/29 70/182/29
f 63/183/30 64/184/30 72/185/30 71/186/30
f 64/187/31 65/188/31 73/189/31 72/190/31
f 65/191/32 66/192/32 74/193/32 73/194/32
f 66/195/33 67/196/33 75/197/33 74/198/33
f 67/199/34 68/200/34 76/201/34 75/202/34
f 68/203/31 61/204/31 69/205/31 76/206/31
f 77/207/35 78/208/35 81/209/35 80/210/35
f 78/211/36 79/212/36 82/213/37 81/214/37
f 79/215/38 77/216/38 80/217/39 82/218/39
f 80/219/40 81/220/40 84/221/40 83/222/40
f 81/223/37 82/224/37 85/225/41 84/226/41
f 82/227/39 80/228/39 83/229/42 85/230/42
f 83/231/43 84/232/43 87/233/43 86/234/43
f 84/235/41 85/236/41 88/237/44 87/238/44
f 85/239/42 83/240/42 86/241/45 88/242/45
f 90/243/46 89/244/46 96/245/46
f 92/246/46 91/247/46 90/248/46
f 94/249/46 93/250/46 92/251/46
f 97/252/46 95/253/46 94/254/46
f 97/255/46 94/256/46 92/257/46
f 98/258/46 97/259/46 92/260/46
f 99/261/46 98/262/46 92/263/46
f 99/264/46 92/265/46 90/266/46
f 97/267/46 99/268/46 90/269/46
f 97/270/46 90/271/46 96/272/46
f 96/273/46 95/274/46 97/275/46
f 107/276/47 100/277/47 101/278/47
f 101/279/47 102/280/47 103/281/47
f 103/282/47 104/283/47 105/284/47
f 105/285/47 106/286/47 108/287/47
f 103/288/47 105/289/47 108/290/47
f 103/291/47 108/292/47 109/293/47
f 103/294/47 109/295/47 110/296/47
f 101/297/47 103/298/47 110/299/47
f 101/300/47 110/301/47 108/302/47
f 107/303/47 101/304/47 108/305/47
f 108/306/47 106/307/47 107/308/47
