# AFL PRAIRIE signage V1 channel letter E (lit), generated by tools/build-prairie-signage-v1.mjs
mtllib e_lit.mtl
o E_body
usemtl letters_am
v 0.75 0.124999 0.8786
v 0.75 0.874622 0.8786
v 0.25 0.874974 0.8786
v 0.25 0.725 0.8786
v 0.6 0.725 0.8786
v 0.6 0.575 0.8786
v 0.319996 0.575 0.8786
v 0.320442 0.425544 0.8786
v 0.6 0.42462 0.8786
v 0.6 0.275 0.8786
v 0.249996 0.274973 0.8786
v 0.250442 0.125544 0.8786
v 0.75 0.124999 0.9996
v 0.75 0.874622 0.9996
v 0.25 0.874974 0.9996
v 0.25 0.725 0.9996
v 0.6 0.725 0.9996
v 0.6 0.575 0.9996
v 0.319996 0.575 0.9996
v 0.320442 0.425544 0.9996
v 0.6 0.42462 0.9996
v 0.6 0.275 0.9996
v 0.249996 0.274973 0.9996
v 0.250442 0.125544 0.9996
v 0.75 0.124999 0.8786
v 0.75 0.874622 0.8786
v 0.25 0.874974 0.8786
v 0.25 0.725 0.8786
v 0.6 0.725 0.8786
v 0.6 0.575 0.8786
v 0.319996 0.575 0.8786
v 0.320442 0.425544 0.8786
v 0.6 0.42462 0.8786
v 0.6 0.275 0.8786
v 0.249996 0.274973 0.8786
v 0.250442 0.125544 0.8786
v 0.75 0.124999 0.9996
v 0.75 0.874622 0.9996
v 0.25 0.874974 0.9996
v 0.25 0.725 0.9996
v 0.6 0.725 0.9996
v 0.6 0.575 0.9996
v 0.319996 0.575 0.9996
v 0.320442 0.425544 0.9996
v 0.6 0.42462 0.9996
v 0.6 0.275 0.9996
v 0.249996 0.274973 0.9996
v 0.250442 0.125544 0.9996
vt 0.9021 0.494854
vt 0.989946 0.494854
vt 0.989946 0.509033
vt 0.9021 0.509033
vt 0.570068 0.475811
vt 0.628662 0.475811
vt 0.628662 0.48999
vt 0.570068 0.48999
vt 0.402588 0.427471
vt 0.420163 0.427471
vt 0.420163 0.44165
vt 0.402588 0.44165
vt 0.510986 0.459697
vt 0.552002 0.459697
vt 0.552002 0.473877
vt 0.510986 0.473877
vt 0.364502 0.427471
vt 0.38208 0.427471
vt 0.38208 0.44165
vt 0.364502 0.44165
vt 0.218506 0.443584
vt 0.251319 0.443584
vt 0.251319 0.457764
vt 0.218506 0.457764
vt 0.650146 0.427471
vt 0.667661 0.427471
vt 0.667661 0.44165
vt 0.650146 0.44165
vt 0.287842 0.443584
vt 0.320603 0.443584
vt 0.320603 0.457764
vt 0.287842 0.457764
vt 0.516846 0.427471
vt 0.534379 0.427471
vt 0.534379 0.44165
vt 0.516846 0.44165
vt 0.468018 0.459697
vt 0.509034 0.459697
vt 0.509034 0.473877
vt 0.468018 0.473877
vt 0.688232 0.427471
vt 0.705744 0.427471
vt 0.705744 0.44165
vt 0.688232 0.44165
vt 0.630615 0.475811
vt 0.689157 0.475811
vt 0.689157 0.48999
vt 0.630615 0.48999
vt 0.789307 0.634521
vt 0.806882 0.634521
vt 0.806841 0.693115
vt 0.789307 0.675537
vt 0.789307 0.634521
vt 0.806841 0.693115
vt 0.789307 0.675537
vt 0.806841 0.693115
vt 0.718994 0.693115
vt 0.771729 0.675537
vt 0.789307 0.675537
vt 0.718994 0.693115
vt 0.754214 0.642776
vt 0.771729 0.642724
vt 0.771729 0.675537
vt 0.754106 0.675537
vt 0.754214 0.642776
vt 0.771729 0.675537
vt 0.754106 0.675537
vt 0.771729 0.675537
vt 0.718994 0.693115
vt 0.736572 0.675537
vt 0.754106 0.675537
vt 0.718994 0.693115
vt 0.736572 0.675537
vt 0.718994 0.693115
vt 0.719058 0.634573
vt 0.719058 0.634573
vt 0.736569 0.634521
vt 0.736572 0.675537
vt 0.896196 0.634521
vt 0.896237 0.693115
vt 0.878662 0.693115
vt 0.896196 0.634521
vt 0.878662 0.693115
vt 0.878662 0.652099
vt 0.80835 0.634521
vt 0.896196 0.634521
vt 0.878662 0.652099
vt 0.80835 0.634521
vt 0.878662 0.652099
vt 0.861084 0.652099
vt 0.861084 0.652099
vt 0.861084 0.684912
vt 0.84357 0.68486
vt 0.861084 0.652099
vt 0.84357 0.68486
vt 0.843461 0.652099
vt 0.80835 0.634521
vt 0.861084 0.652099
vt 0.843461 0.652099
vt 0.80835 0.634521
vt 0.843461 0.652099
vt 0.825928 0.652099
vt 0.808413 0.693063
vt 0.80835 0.634521
vt 0.825928 0.652099
vt 0.825928 0.652099
vt 0.825925 0.693115
vt 0.808413 0.693063
vn 1 0 0
vn 0.000705 1 0
vn -1 0 0
vn 0 -1 0
vn 0 1 0
vn -0.999996 -0.002988 0
vn -0.003303 -0.999995 0
vn -0.000076 1 0
vn -0.00109 -0.999999 0
vn 0 0 -1
vn 0 0 1
f 1/1/1 2/2/1 14/3/1 13/4/1
f 2/5/2 3/6/2 15/7/2 14/8/2
f 3/9/3 4/10/3 16/11/3 15/12/3
f 4/13/4 5/14/4 17/15/4 16/16/4
f 5/17/3 6/18/3 18/19/3 17/20/3
f 6/21/5 7/22/5 19/23/5 18/24/5
f 7/25/6 8/26/6 20/27/6 19/28/6
f 8/29/7 9/30/7 21/31/7 20/32/7
f 9/33/3 10/34/3 22/35/3 21/36/3
f 10/37/8 11/38/8 23/39/8 22/40/8
f 11/41/6 12/42/6 24/43/6 23/44/6
f 12/45/9 1/46/9 13/47/9 24/48/9
f 28/49/10 27/50/10 26/51/10
f 29/52/10 28/53/10 26/54/10
f 29/55/10 26/56/10 25/57/10
f 30/58/10 29/59/10 25/60/10
f 32/61/10 31/62/10 30/63/10
f 33/64/10 32/65/10 30/66/10
f 33/67/10 30/68/10 25/69/10
f 34/70/10 33/71/10 25/72/10
f 34/73/10 25/74/10 36/75/10
f 36/76/10 35/77/10 34/78/10
f 38/79/11 39/80/11 40/81/11
f 38/82/11 40/83/11 41/84/11
f 37/85/11 38/86/11 41/87/11
f 37/88/11 41/89/11 42/90/11
f 42/91/11 43/92/11 44/93/11
f 42/94/11 44/95/11 45/96/11
f 37/97/11 42/98/11 45/99/11
f 37/100/11 45/101/11 46/102/11
f 48/103/11 37/104/11 46/105/11
f 46/106/11 47/107/11 48/108/11
o E_face_lit
usemtl letters_am_glow
v 0.7513 0.124157 0.8726
v 0.751228 0.8763 0.8726
v 0.2487 0.876207 0.8726
v 0.2487 0.723798 0.8726
v 0.598702 0.723699 0.8726
v 0.598562 0.5763 0.8726
v 0.318689 0.5763 0.8726
v 0.319283 0.4237 0.8726
v 0.598562 0.4237 0.8726
v 0.598703 0.2763 0.8726
v 0.24869 0.276207 0.8726
v 0.249283 0.123698 0.8726
v 0.7525 0.122958 0.8738
v 0.752428 0.877501 0.8738
v 0.2475 0.877406 0.8738
v 0.2475 0.722598 0.8738
v 0.597501 0.722499 0.8738
v 0.597363 0.5775 0.8738
v 0.317485 0.5775 0.8738
v 0.318087 0.4225 0.8738
v 0.597363 0.4225 0.8738
v 0.597502 0.2775 0.8738
v 0.247485 0.277406 0.8738
v 0.248087 0.122497 0.8738
v 0.7525 0.122958 0.8784
v 0.752428 0.877501 0.8784
v 0.2475 0.877406 0.8784
v 0.2475 0.722598 0.8784
v 0.597501 0.722499 0.8784
v 0.597363 0.5775 0.8784
v 0.317485 0.5775 0.8784
v 0.318087 0.4225 0.8784
v 0.597363 0.4225 0.8784
v 0.597502 0.2775 0.8784
v 0.247485 0.277406 0.8784
v 0.248087 0.122497 0.8784
v 0.7513 0.124157 0.8796
v 0.751228 0.8763 0.8796
v 0.2487 0.876207 0.8796
v 0.2487 0.723798 0.8796
v 0.598702 0.723699 0.8796
v 0.598562 0.5763 0.8796
v 0.318689 0.5763 0.8796
v 0.319283 0.4237 0.8796
v 0.598562 0.4237 0.8796
v 0.598703 0.2763 0.8796
v 0.24869 0.276207 0.8796
v 0.249283 0.123698 0.8796
v 0.7513 0.124157 0.8726
v 0.751228 0.8763 0.8726
v 0.2487 0.876207 0.8726
v 0.2487 0.723798 0.8726
v 0.598702 0.723699 0.8726
v 0.598562 0.5763 0.8726
v 0.318689 0.5763 0.8726
v 0.319283 0.4237 0.8726
v 0.598562 0.4237 0.8726
v 0.598703 0.2763 0.8726
v 0.24869 0.276207 0.8726
v 0.249283 0.123698 0.8726
v 0.7513 0.124157 0.8796
v 0.751228 0.8763 0.8796
v 0.2487 0.876207 0.8796
v 0.2487 0.723798 0.8796
v 0.598702 0.723699 0.8796
v 0.598562 0.5763 0.8796
v 0.318689 0.5763 0.8796
v 0.319283 0.4237 0.8796
v 0.598562 0.4237 0.8796
v 0.598703 0.2763 0.8796
v 0.24869 0.276207 0.8796
v 0.249283 0.123698 0.8796
vt 0.362689 0.34819
vt 0.450831 0.34819
vt 0.450972 0.348389
vt 0.362549 0.348389
vt 0.242084 0.330612
vt 0.300974 0.330612
vt 0.301115 0.330811
vt 0.241943 0.330811
vt 0.558002 0.332565
vt 0.575862 0.332565
vt 0.576003 0.332764
vt 0.557861 0.332764
vt 0.490619 0.334518
vt 0.531635 0.334518
vt 0.531494 0.334717
vt 0.490479 0.334717
vt 0.357666 0.340377
vt 0.374939 0.340377
vt 0.374799 0.340576
vt 0.357807 0.340576
vt 0.001221 0.34233
vt 0.034018 0.34233
vt 0.034159 0.342529
vt 0.001361 0.342529
vt 0.619038 0.330612
vt 0.636921 0.330612
vt 0.637061 0.330811
vt 0.618896 0.330811
vt 0.857318 0.334518
vt 0.890046 0.334518
vt 0.889905 0.334717
vt 0.857178 0.334717
vt 0.872314 0.332565
vt 0.889588 0.332565
vt 0.889447 0.332764
vt 0.872455 0.332764
vt 0.204346 0.344284
vt 0.245363 0.344284
vt 0.245504 0.344482
vt 0.204486 0.344482
vt 0.949116 0.34233
vt 0.966988 0.34233
vt 0.967128 0.342529
vt 0.948975 0.342529
vt 0.71767 0.346237
vt 0.7765 0.346237
vt 0.77664 0.346436
vt 0.717529 0.346436
vt 0.543213 0.380076
vt 0.631636 0.380076
vt 0.631636 0.380615
vt 0.543213 0.380615
vt 0.41333 0.375193
vt 0.472501 0.375193
vt 0.472501 0.375732
vt 0.41333 0.375732
vt 0.789795 0.362986
vt 0.807937 0.362986
vt 0.807937 0.363525
vt 0.789795 0.363525
vt 0.218994 0.370311
vt 0.26001 0.370311
vt 0.26001 0.37085
vt 0.218994 0.37085
vt 0.272217 0.360545
vt 0.289209 0.360545
vt 0.289209 0.361084
vt 0.272217 0.361084
vt 0.503174 0.367869
vt 0.535972 0.367869
vt 0.535972 0.368408
vt 0.503174 0.368408
vt 0.269287 0.362986
vt 0.287451 0.362986
vt 0.287451 0.363525
vt 0.269287 0.363525
vt 0.57251 0.367869
vt 0.605237 0.367869
vt 0.605237 0.368408
vt 0.57251 0.368408
vt 0.235107 0.360545
vt 0.2521 0.360545
vt 0.2521 0.361084
vt 0.235107 0.361084
vt 0.133057 0.370311
vt 0.174074 0.370311
vt 0.174074 0.37085
vt 0.133057 0.37085
vt 0.669678 0.362986
vt 0.687831 0.362986
vt 0.687831 0.363525
vt 0.669678 0.363525
vt 0.5354 0.375193
vt 0.594511 0.375193
vt 0.594511 0.375732
vt 0.5354 0.375732
vt 0.452881 0.34819
vt 0.541304 0.34819
vt 0.541163 0.348389
vt 0.453021 0.348389
vt 0.386475 0.334518
vt 0.445646 0.334518
vt 0.445505 0.334717
vt 0.386615 0.334717
vt 0.577881 0.332565
vt 0.596022 0.332565
vt 0.595882 0.332764
vt 0.578021 0.332764
vt 0.333252 0.344284
vt 0.374268 0.344284
vt 0.374408 0.344482
vt 0.333393 0.344482
vt 0.929584 0.332565
vt 0.946576 0.332565
vt 0.946717 0.332764
vt 0.929443 0.332764
vt 0.036029 0.34233
vt 0.068827 0.34233
vt 0.068686 0.342529
vt 0.035889 0.342529
vt 0.337646 0.332565
vt 0.355811 0.332565
vt 0.355671 0.332764
vt 0.337788 0.332764
vt 0.105225 0.34233
vt 0.137952 0.34233
vt 0.138093 0.342529
vt 0.105365 0.342529
vt 0.891498 0.332565
vt 0.90849 0.332565
vt 0.908631 0.332764
vt 0.891357 0.332764
vt 0.247455 0.344284
vt 0.288473 0.344284
vt 0.288332 0.344482
vt 0.247314 0.344482
vt 0.589111 0.338424
vt 0.607265 0.338424
vt 0.607125 0.338623
vt 0.589252 0.338623
vt 0.778564 0.346237
vt 0.837675 0.346237
vt 0.837535 0.346436
vt 0.778705 0.346436
vt 0.609631 0.634217
vt 0.627491 0.634217
vt 0.627502 0.693107
vt 0.609619 0.675233
vt 0.609631 0.634217
vt 0.627502 0.693107
vt 0.609619 0.675233
vt 0.627502 0.693107
vt 0.53936 0.693115
vt 0.592346 0.675216
vt 0.609619 0.675233
vt 0.53936 0.693115
vt 0.574463 0.642488
vt 0.592346 0.642419
vt 0.592346 0.675216
vt 0.574463 0.675216
vt 0.574463 0.642488
vt 0.592346 0.675216
vt 0.574463 0.675216
vt 0.592346 0.675216
vt 0.53936 0.693115
vt 0.55719 0.675233
vt 0.574463 0.675216
vt 0.53936 0.693115
vt 0.55719 0.675233
vt 0.53936 0.693115
vt 0.539307 0.634285
vt 0.539307 0.634285
vt 0.557179 0.634216
vt 0.55719 0.675233
vt 0.717346 0.634224
vt 0.717335 0.693114
vt 0.699475 0.693114
vt 0.717346 0.634224
vt 0.699475 0.693114
vt 0.699463 0.652098
vt 0.629204 0.634216
vt 0.717346 0.634224
vt 0.699463 0.652098
vt 0.629204 0.634216
vt 0.699463 0.652098
vt 0.68219 0.652115
vt 0.68219 0.652115
vt 0.68219 0.684912
vt 0.664307 0.684843
vt 0.68219 0.652115
vt 0.664307 0.684843
vt 0.664307 0.652115
vt 0.629204 0.634216
vt 0.68219 0.652115
vt 0.664307 0.652115
vt 0.629204 0.634216
vt 0.664307 0.652115
vt 0.647033 0.652098
vt 0.62915 0.693046
vt 0.629204 0.634216
vt 0.647033 0.652098
vt 0.647033 0.652098
vt 0.647022 0.693115
vt 0.62915 0.693046
vn 0.707107 0.000068 -0.707107
vn -0.000132 0.707107 -0.707107
vn -0.707107 0 -0.707107
vn -0.000199 -0.707107 -0.707107
vn -0.707106 0.000671 -0.707107
vn 0 0.707107 -0.707107
vn -0.707101 -0.00275 -0.707107
vn 0 -0.707107 -0.707107
vn -0.707106 -0.000679 -0.707107
vn -0.000189 0.707107 -0.707107
vn 0.000646 -0.707106 -0.707107
vn 1 0.000096 0
vn -0.000186 1 0
vn -1 0 0
vn -0.000282 -1 0
vn -1 0.000948 0
vn 0 1 0
vn -0.999992 -0.003889 0
vn 0 -1 0
vn -1 -0.00096 0
vn -0.000268 1 0
vn 0.000913 -1 0
vn 0.707107 0.000068 0.707107
vn -0.000132 0.707107 0.707107
vn -0.707107 0 0.707107
vn -0.000199 -0.707107 0.707107
vn -0.707106 0.000671 0.707107
vn 0 0.707107 0.707107
vn -0.707101 -0.00275 0.707107
vn 0 -0.707107 0.707107
vn -0.707106 -0.000679 0.707107
vn -0.000189 0.707107 0.707107
vn 0.000646 -0.707106 0.707107
vn 0 0 -1
vn 0 0 1
f 49/109/12 50/110/12 62/111/12 61/112/12
f 50/113/13 51/114/13 63/115/13 62/116/13
f 51/117/14 52/118/14 64/119/14 63/120/14
f 52/121/15 53/122/15 65/123/15 64/124/15
f 53/125/16 54/126/16 66/127/16 65/128/16
f 54/129/17 55/130/17 67/131/17 66/132/17
f 55/133/18 56/134/18 68/135/18 67/136/18
f 56/137/19 57/138/19 69/139/19 68/140/19
f 57/141/20 58/142/20 70/143/20 69/144/20
f 58/145/21 59/146/21 71/147/21 70/148/21
f 59/149/18 60/150/18 72/151/18 71/152/18
f 60/153/22 49/154/22 61/155/22 72/156/22
f 61/157/23 62/158/23 74/159/23 73/160/23
f 62/161/24 63/162/24 75/163/24 74/164/24
f 63/165/25 64/166/25 76/167/25 75/168/25
f 64/169/26 65/170/26 77/171/26 76/172/26
f 65/173/27 66/174/27 78/175/27 77/176/27
f 66/177/28 67/178/28 79/179/28 78/180/28
f 67/181/29 68/182/29 80/183/29 79/184/29
f 68/185/30 69/186/30 81/187/30 80/188/30
f 69/189/31 70/190/31 82/191/31 81/192/31
f 70/193/32 71/194/32 83/195/32 82/196/32
f 71/197/29 72/198/29 84/199/29 83/200/29
f 72/201/33 61/202/33 73/203/33 84/204/33
f 73/205/34 74/206/34 86/207/34 85/208/34
f 74/209/35 75/210/35 87/211/35 86/212/35
f 75/213/36 76/214/36 88/215/36 87/216/36
f 76/217/37 77/218/37 89/219/37 88/220/37
f 77/221/38 78/222/38 90/223/38 89/224/38
f 78/225/39 79/226/39 91/227/39 90/228/39
f 79/229/40 80/230/40 92/231/40 91/232/40
f 80/233/41 81/234/41 93/235/41 92/236/41
f 81/237/42 82/238/42 94/239/42 93/240/42
f 82/241/43 83/242/43 95/243/43 94/244/43
f 83/245/40 84/246/40 96/247/40 95/248/40
f 84/249/44 73/250/44 85/251/44 96/252/44
f 100/253/45 99/254/45 98/255/45
f 101/256/45 100/257/45 98/258/45
f 101/259/45 98/260/45 97/261/45
f 102/262/45 101/263/45 97/264/45
f 104/265/45 103/266/45 102/267/45
f 105/268/45 104/269/45 102/270/45
f 105/271/45 102/272/45 97/273/45
f 106/274/45 105/275/45 97/276/45
f 106/277/45 97/278/45 108/279/45
f 108/280/45 107/281/45 106/282/45
f 110/283/46 111/284/46 112/285/46
f 110/286/46 112/287/46 113/288/46
f 109/289/46 110/290/46 113/291/46
f 109/292/46 113/293/46 114/294/46
f 114/295/46 115/296/46 116/297/46
f 114/298/46 116/299/46 117/300/46
f 109/301/46 114/302/46 117/303/46
f 109/304/46 117/305/46 118/306/46
f 120/307/46 109/308/46 118/309/46
f 118/310/46 119/311/46 120/312/46
