# AFL PRAIRIE signage V1 channel letter F (off), generated by tools/build-prairie-signage-v1.mjs
mtllib f_off.mtl
o F_body
usemtl letters_am
v 0.74 0.124998 0.8786
v 0.74 0.874622 0.8786
v 0.26 0.874974 0.8786
v 0.26 0.725002 0.8786
v 0.59 0.724622 0.8786
v 0.59 0.56038 0.8786
v 0.327363 0.559735 0.8786
v 0.327198 0.41 0.8786
v 0.589996 0.41 0.8786
v 0.590442 0.125544 0.8786
v 0.74 0.124998 0.9996
v 0.74 0.874622 0.9996
v 0.26 0.874974 0.9996
v 0.26 0.725002 0.9996
v 0.59 0.724622 0.9996
v 0.59 0.56038 0.9996
v 0.327363 0.559735 0.9996
v 0.327198 0.41 0.9996
v 0.589996 0.41 0.9996
v 0.590442 0.125544 0.9996
v 0.74 0.124998 0.8786
v 0.74 0.874622 0.8786
v 0.26 0.874974 0.8786
v 0.26 0.725002 0.8786
v 0.59 0.724622 0.8786
v 0.59 0.56038 0.8786
v 0.327363 0.559735 0.8786
v 0.327198 0.41 0.8786
v 0.589996 0.41 0.8786
v 0.590442 0.125544 0.8786
v 0.74 0.124998 0.9996
v 0.74 0.874622 0.9996
v 0.26 0.874974 0.9996
v 0.26 0.725002 0.9996
v 0.59 0.724622 0.9996
v 0.59 0.56038 0.9996
v 0.327363 0.559735 0.9996
v 0.327198 0.41 0.9996
v 0.589996 0.41 0.9996
v 0.590442 0.125544 0.9996
vt 0.544678 0.494854
vt 0.632524 0.494854
vt 0.632524 0.509033
vt 0.544678 0.509033
vt 0.808838 0.475811
vt 0.865088 0.475811
vt 0.865088 0.48999
vt 0.808838 0.48999
vt 0.421631 0.427471
vt 0.439206 0.427471
vt 0.439206 0.44165
vt 0.421631 0.44165
vt 0.595459 0.459697
vt 0.634131 0.459697
vt 0.634131 0.473877
vt 0.595459 0.473877
vt 0.109619 0.427471
vt 0.128866 0.427471
vt 0.128866 0.44165
vt 0.109619 0.44165
vt 0.421631 0.443584
vt 0.452409 0.443584
vt 0.452409 0.457764
vt 0.421631 0.457764
vt 0.497803 0.427471
vt 0.51535 0.427471
vt 0.51535 0.44165
vt 0.497803 0.44165
vt 0.388916 0.443584
vt 0.419713 0.443584
vt 0.419713 0.457764
vt 0.388916 0.457764
vt 0.18335 0.443584
vt 0.216684 0.443584
vt 0.216684 0.457764
vt 0.18335 0.457764
vt 0.593018 0.427471
vt 0.610544 0.427471
vt 0.610544 0.44165
vt 0.593018 0.44165
vt 0.447466 0.567139
vt 0.359619 0.567139
vt 0.359683 0.549612
vt 0.429932 0.510889
vt 0.447507 0.510889
vt 0.447466 0.567139
vt 0.429888 0.549561
vt 0.429932 0.510889
vt 0.447466 0.567139
vt 0.429888 0.549561
vt 0.447466 0.567139
vt 0.359683 0.549612
vt 0.410641 0.549561
vt 0.429888 0.549561
vt 0.359683 0.549612
vt 0.393018 0.518763
vt 0.410565 0.518783
vt 0.410641 0.549561
vt 0.393018 0.54956
vt 0.393018 0.518763
vt 0.410641 0.549561
vt 0.359683 0.549612
vt 0.393018 0.54956
vt 0.410641 0.549561
vt 0.449039 0.528415
vt 0.448975 0.510889
vt 0.536821 0.510889
vt 0.536821 0.510889
vt 0.536863 0.567139
vt 0.519288 0.567139
vt 0.536821 0.510889
vt 0.519288 0.567139
vt 0.519243 0.528467
vt 0.449039 0.528415
vt 0.536821 0.510889
vt 0.519243 0.528467
vt 0.449039 0.528415
vt 0.519243 0.528467
vt 0.499996 0.528467
vt 0.499996 0.528467
vt 0.49992 0.559245
vt 0.482373 0.559264
vt 0.499996 0.528467
vt 0.482373 0.559264
vt 0.482373 0.528467
vt 0.499996 0.528467
vt 0.482373 0.528467
vt 0.449039 0.528415
vn 1 0 0
vn 0.000734 1 0
vn -1 0 0
vn -0.001151 -0.999999 0
vn -0.002457 0.999997 0
vn -0.999999 0.001103 0
vn 0 -1 0
vn -0.999999 -0.001568 0
vn -0.00365 -0.999993 0
vn 0 0 -1
vn 0 0 1
f 1/1/1 2/2/1 12/3/1 11/4/1
f 2/5/2 3/6/2 13/7/2 12/8/2
f 3/9/3 4/10/3 14/11/3 13/12/3
f 4/13/4 5/14/4 15/15/4 14/16/4
f 5/17/3 6/18/3 16/19/3 15/20/3
f 6/21/5 7/22/5 17/23/5 16/24/5
f 7/25/6 8/26/6 18/27/6 17/28/6
f 8/29/7 9/30/7 19/31/7 18/32/7
f 9/33/8 10/34/8 20/35/8 19/36/8
f 10/37/9 1/38/9 11/39/9 20/40/9
f 22/41/10 21/42/10 30/43/10
f 24/44/10 23/45/10 22/46/10
f 25/47/10 24/48/10 22/49/10
f 25/50/10 22/51/10 30/52/10
f 26/53/10 25/54/10 30/55/10
f 28/56/10 27/57/10 26/58/10
f 29/59/10 28/60/10 26/61/10
f 30/62/10 29/63/10 26/64/10
f 40/65/11 31/66/11 32/67/11
f 32/68/11 33/69/11 34/70/11
f 32/71/11 34/72/11 35/73/11
f 40/74/11 32/75/11 35/76/11
f 40/77/11 35/78/11 36/79/11
f 36/80/11 37/81/11 38/82/11
f 36/83/11 38/84/11 39/85/11
f 36/86/11 39/87/11 40/88/11
o F_face_off
usemtl letters_am
v 0.7413 0.124156 0.8726
v 0.741228 0.8763 0.8726
v 0.2587 0.876207 0.8726
v 0.2587 0.723798 0.8726
v 0.588702 0.723699 0.8726
v 0.588562 0.5613 0.8726
v 0.3259 0.5613 0.8726
v 0.3259 0.408702 0.8726
v 0.58856 0.408258 0.8726
v 0.589283 0.123694 0.8726
v 0.7425 0.12296 0.8738
v 0.742428 0.877501 0.8738
v 0.2575 0.877406 0.8738
v 0.2575 0.722598 0.8738
v 0.587501 0.722499 0.8738
v 0.587363 0.5625 0.8738
v 0.3247 0.5625 0.8738
v 0.3247 0.407505 0.8738
v 0.587363 0.40706 0.8738
v 0.588086 0.12249 0.8738
v 0.7425 0.12296 0.8784
v 0.742428 0.877501 0.8784
v 0.2575 0.877406 0.8784
v 0.2575 0.722598 0.8784
v 0.587501 0.722499 0.8784
v 0.587363 0.5625 0.8784
v 0.3247 0.5625 0.8784
v 0.3247 0.407505 0.8784
v 0.587363 0.40706 0.8784
v 0.588086 0.12249 0.8784
v 0.7413 0.124156 0.8796
v 0.741228 0.8763 0.8796
v 0.2587 0.876207 0.8796
v 0.2587 0.723798 0.8796
v 0.588702 0.723699 0.8796
v 0.588562 0.5613 0.8796
v 0.3259 0.5613 0.8796
v 0.3259 0.408702 0.8796
v 0.58856 0.408258 0.8796
v 0.589283 0.123694 0.8796
v 0.7413 0.124156 0.8726
v 0.741228 0.8763 0.8726
v 0.2587 0.876207 0.8726
v 0.2587 0.723798 0.8726
v 0.588702 0.723699 0.8726
v 0.588562 0.5613 0.8726
v 0.3259 0.5613 0.8726
v 0.3259 0.408702 0.8726
v 0.58856 0.408258 0.8726
v 0.589283 0.123694 0.8726
v 0.7413 0.124156 0.8796
v 0.741228 0.8763 0.8796
v 0.2587 0.876207 0.8796
v 0.2587 0.723798 0.8796
v 0.588702 0.723699 0.8796
v 0.588562 0.5613 0.8796
v 0.3259 0.5613 0.8796
v 0.3259 0.408702 0.8796
v 0.58856 0.408258 0.8796
v 0.589283 0.123694 0.8796
vt 0.724017 0.34819
vt 0.812159 0.34819
vt 0.8123 0.348389
vt 0.723877 0.348389
vt 0.127338 0.352096
vt 0.183884 0.352096
vt 0.184025 0.352295
vt 0.127197 0.352295
vt 0.639057 0.330612
vt 0.656917 0.330612
vt 0.657058 0.330811
vt 0.638916 0.330811
vt 0.303119 0.330612
vt 0.341791 0.330612
vt 0.34165 0.330811
vt 0.302979 0.330811
vt 0.447021 0.338424
vt 0.466053 0.338424
vt 0.465912 0.338623
vt 0.447162 0.338623
vt 0.758057 0.330612
vt 0.788837 0.330612
vt 0.788978 0.330811
vt 0.758197 0.330811
vt 0.397846 0.332565
vt 0.415728 0.332565
vt 0.415869 0.332764
vt 0.397705 0.332764
vt 0.148822 0.350143
vt 0.179603 0.350143
vt 0.179463 0.350342
vt 0.148682 0.350342
vt 0.681885 0.334518
vt 0.715232 0.334518
vt 0.715373 0.334717
vt 0.682025 0.334717
vt 0.101459 0.340377
vt 0.119274 0.340377
vt 0.119414 0.340576
vt 0.101318 0.340576
vt 0.001221 0.377635
vt 0.089643 0.377635
vt 0.089643 0.378174
vt 0.001221 0.378174
vt 0.83374 0.375193
vt 0.890568 0.375193
vt 0.890568 0.375732
vt 0.83374 0.375732
vt 0.809814 0.362986
vt 0.827956 0.362986
vt 0.827956 0.363525
vt 0.809814 0.363525
vt 0.429932 0.370311
vt 0.468604 0.370311
vt 0.468604 0.37085
vt 0.429932 0.37085
vt 0.086182 0.362986
vt 0.104932 0.362986
vt 0.104932 0.363525
vt 0.086182 0.363525
vt 0.672607 0.367869
vt 0.703388 0.367869
vt 0.703388 0.368408
vt 0.672607 0.368408
vt 0.369385 0.362986
vt 0.387548 0.362986
vt 0.387548 0.363525
vt 0.369385 0.363525
vt 0.607178 0.367869
vt 0.637959 0.367869
vt 0.637959 0.368408
vt 0.607178 0.368408
vt 0.328857 0.367869
vt 0.362206 0.367869
vt 0.362206 0.368408
vt 0.328857 0.368408
vt 0.929932 0.362986
vt 0.948027 0.362986
vt 0.948027 0.363525
vt 0.929932 0.363525
vt 0.904541 0.34819
vt 0.992964 0.34819
vt 0.992823 0.348389
vt 0.904681 0.348389
vt 0.740479 0.352096
vt 0.797306 0.352096
vt 0.797165 0.352295
vt 0.740619 0.352295
vt 0.64917 0.338424
vt 0.667312 0.338424
vt 0.667171 0.338623
vt 0.649311 0.338623
vt 0.376221 0.344284
vt 0.414893 0.344284
vt 0.415033 0.344482
vt 0.376361 0.344482
vt 0.276752 0.332565
vt 0.295502 0.332565
vt 0.295642 0.332764
vt 0.276611 0.332764
vt 0.891986 0.334518
vt 0.922767 0.334518
vt 0.922626 0.334717
vt 0.891846 0.334717
vt 0.608643 0.34233
vt 0.626806 0.34233
vt 0.626666 0.342529
vt 0.608783 0.342529
vt 0.139893 0.34233
vt 0.170673 0.34233
vt 0.170814 0.342529
vt 0.140033 0.342529
vt 0.717181 0.334518
vt 0.750529 0.334518
vt 0.750388 0.334717
vt 0.717041 0.334717
vt 0.121338 0.340377
vt 0.139433 0.340377
vt 0.139293 0.340576
vt 0.121479 0.340576
vt 0.358948 0.625236
vt 0.270806 0.625244
vt 0.270752 0.60743
vt 0.341077 0.568689
vt 0.358937 0.568689
vt 0.358948 0.625236
vt 0.341065 0.607362
vt 0.341077 0.568689
vt 0.358948 0.625236
vt 0.341065 0.607362
vt 0.358948 0.625236
vt 0.270752 0.60743
vt 0.322034 0.607345
vt 0.341065 0.607362
vt 0.270752 0.60743
vt 0.304151 0.576564
vt 0.322034 0.576564
vt 0.322034 0.607345
vt 0.304099 0.607345
vt 0.304151 0.576564
vt 0.322034 0.607345
vt 0.270752 0.60743
vt 0.304099 0.607345
vt 0.322034 0.607345
vt 0.360596 0.586504
vt 0.36065 0.568689
vt 0.448792 0.568698
vt 0.448792 0.568698
vt 0.448781 0.625244
vt 0.43092 0.625244
vt 0.448792 0.568698
vt 0.43092 0.625244
vt 0.430909 0.586572
vt 0.360596 0.586504
vt 0.448792 0.568698
vt 0.430909 0.586572
vt 0.360596 0.586504
vt 0.430909 0.586572
vt 0.411878 0.586588
vt 0.411878 0.586588
vt 0.411878 0.617369
vt 0.393995 0.617369
vt 0.411878 0.586588
vt 0.393995 0.617369
vt 0.393943 0.586589
vt 0.411878 0.586588
vt 0.393943 0.586589
vt 0.360596 0.586504
vn 0.707107 0.000068 -0.707107
vn -0.000137 0.707107 -0.707107
vn -0.707107 0 -0.707107
vn -0.000212 -0.707107 -0.707107
vn -0.707107 0.00061 -0.707107
vn 0 0.707107 -0.707107
vn -0.001197 -0.707106 -0.707107
vn -0.707105 -0.001796 -0.707107
vn 0.002152 -0.707104 -0.707107
vn 1 0.000096 0
vn -0.000194 1 0
vn -1 0 0
vn -0.000299 -1 0
vn -1 0.000863 0
vn 0 1 0
vn -0.001693 -0.999999 0
vn -0.999997 -0.002539 0
vn 0.003044 -0.999995 0
vn 0.707107 0.000068 0.707107
vn -0.000137 0.707107 0.707107
vn -0.707107 0 0.707107
vn -0.000212 -0.707107 0.707107
vn -0.707107 0.00061 0.707107
vn 0 0.707107 0.707107
vn -0.001197 -0.707106 0.707107
vn -0.707105 -0.001796 0.707107
vn 0.002152 -0.707104 0.707107
vn 0 0 -1
vn 0 0 1
f 41/89/12 42/90/12 52/91/12 51/92/12
f 42/93/13 43/94/13 53/95/13 52/96/13
f 43/97/14 44/98/14 54/99/14 53/100/14
f 44/101/15 45/102/15 55/103/15 54/104/15
f 45/105/16 46/106/16 56/107/16 55/108/16
f 46/109/17 47/110/17 57/111/17 56/112/17
f 47/113/14 48/114/14 58/115/14 57/116/14
f 48/117/18 49/118/18 59/119/18 58/120/18
f 49/121/19 50/122/19 60/123/19 59/124/19
f 50/125/20 41/126/20 51/127/20 60/128/20
f 51/129/21 52/130/21 62/131/21 61/132/21
f 52/133/22 53/134/22 63/135/22 62/136/22
f 53/137/23 54/138/23 64/139/23 63/140/23
f 54/141/24 55/142/24 65/143/24 64/144/24
f 55/145/25 56/146/25 66/147/25 65/148/25
f 56/149/26 57/150/26 67/151/26 66/152/26
f 57/153/23 58/154/23 68/155/23 67/156/23
f 58/157/27 59/158/27 69/159/27 68/160/27
f 59/161/28 60/162/28 70/163/28 69/164/28
f 60/165/29 51/166/29 61/167/29 70/168/29
f 61/169/30 62/170/30 72/171/30 71/172/30
f 62/173/31 63/174/31 73/175/31 72/176/31
f 63/177/32 64/178/32 74/179/32 73/180/32
f 64/181/33 65/182/33 75/183/33 74/184/33
f 65/185/34 66/186/34 76/187/34 75/188/34
f 66/189/35 67/190/35 77/191/35 76/192/35
f 67/193/32 68/194/32 78/195/32 77/196/32
f 68/197/36 69/198/36 79/199/36 78/200/36
f 69/201/37 70/202/37 80/203/37 79/204/37
f 70/205/38 61/206/38 71/207/38 80/208/38
f 82/209/39 81/210/39 90/211/39
f 84/212/39 83/213/39 82/214/39
f 85/215/39 84/216/39 82/217/39
f 85/218/39 82/219/39 90/220/39
f 86/221/39 85/222/39 90/223/39
f 88/224/39 87/225/39 86/226/39
f 89/227/39 88/228/39 86/229/39
f 90/230/39 89/231/39 86/232/39
f 100/233/40 91/234/40 92/235/40
f 92/236/40 93/237/40 94/238/40
f 92/239/40 94/240/40 95/241/40
f 100/242/40 92/243/40 95/244/40
f 100/245/40 95/246/40 96/247/40
f 96/248/40 97/249/40 98/250/40
f 96/251/40 98/252/40 99/253/40
f 96/254/40 99/255/40 100/256/40
