# AFL PRAIRIE signage V1 channel letter H (lit), generated by tools/build-prairie-signage-v1.mjs
mtllib h_lit.mtl
o H_body
usemtl letters_am
v 0.8 0.124998 0.8786
v 0.8 0.874621 0.8786
v 0.65 0.875009 0.8786
v 0.65 0.575 0.8786
v 0.35 0.575 0.8786
v 0.35 0.875 0.8786
v 0.199999 0.874973 0.8786
v 0.200442 0.125544 0.8786
v 0.349934 0.125544 0.8786
v 0.35 0.424973 0.8786
v 0.649998 0.425 0.8786
v 0.650442 0.125544 0.8786
v 0.8 0.124998 0.9996
v 0.8 0.874621 0.9996
v 0.65 0.875009 0.9996
v 0.65 0.575 0.9996
v 0.35 0.575 0.9996
v 0.35 0.875 0.9996
v 0.199999 0.874973 0.9996
v 0.200442 0.125544 0.9996
v 0.349934 0.125544 0.9996
v 0.35 0.424973 0.9996
v 0.649998 0.425 0.9996
v 0.650442 0.125544 0.9996
v 0.8 0.124998 0.8786
v 0.8 0.874621 0.8786
v 0.65 0.875009 0.8786
v 0.65 0.575 0.8786
v 0.35 0.575 0.8786
v 0.35 0.875 0.8786
v 0.199999 0.874973 0.8786
v 0.200442 0.125544 0.8786
v 0.349934 0.125544 0.8786
v 0.35 0.424973 0.8786
v 0.649998 0.425 0.8786
v 0.650442 0.125544 0.8786
v 0.8 0.124998 0.9996
v 0.8 0.874621 0.9996
v 0.65 0.875009 0.9996
v 0.65 0.575 0.9996
v 0.35 0.575 0.9996
v 0.35 0.875 0.9996
v 0.199999 0.874973 0.9996
v 0.200442 0.125544 0.9996
v 0.349934 0.125544 0.9996
v 0.35 0.424973 0.9996
v 0.649998 0.425 0.9996
v 0.650442 0.125544 0.9996
vt 0.723389 0.494854
vt 0.811235 0.494854
vt 0.811235 0.509033
vt 0.723389 0.509033
vt 0.248291 0.427471
vt 0.265869 0.427471
vt 0.265869 0.44165
vt 0.248291 0.44165
vt 0.826416 0.459697
vt 0.861573 0.459697
vt 0.861573 0.473877
vt 0.826416 0.473877
vt 0.900635 0.459697
vt 0.935791 0.459697
vt 0.935791 0.473877
vt 0.900635 0.473877
vt 0.863525 0.459697
vt 0.898682 0.459697
vt 0.898682 0.473877
vt 0.863525 0.473877
vt 0.22876 0.427471
vt 0.246338 0.427471
vt 0.246338 0.44165
vt 0.22876 0.44165
vt 0.269287 0.475811
vt 0.357111 0.475811
vt 0.357111 0.48999
vt 0.269287 0.48999
vt 0.612061 0.427471
vt 0.629579 0.427471
vt 0.629579 0.44165
vt 0.612061 0.44165
vt 0.037842 0.443584
vt 0.072931 0.443584
vt 0.072931 0.457764
vt 0.037842 0.457764
vt 0.937256 0.459697
vt 0.972412 0.459697
vt 0.972412 0.473877
vt 0.937256 0.473877
vt 0.001221 0.443584
vt 0.036313 0.443584
vt 0.036313 0.457764
vt 0.001221 0.457764
vt 0.554932 0.427471
vt 0.572458 0.427471
vt 0.572458 0.44165
vt 0.554932 0.44165
vt 0.627153 0.834229
vt 0.539307 0.834229
vt 0.539371 0.816702
vt 0.627199 0.81665
vt 0.627153 0.834229
vt 0.539371 0.816702
vt 0.592041 0.81665
vt 0.627199 0.81665
vt 0.539371 0.816702
vt 0.627194 0.763916
vt 0.627198 0.781494
vt 0.592041 0.781494
vt 0.539371 0.763968
vt 0.627194 0.763916
vt 0.592041 0.781494
vt 0.539371 0.781486
vt 0.539371 0.763968
vt 0.592041 0.781494
vt 0.57446 0.781494
vt 0.539371 0.781486
vt 0.592041 0.781494
vt 0.57446 0.781494
vt 0.592041 0.781494
vt 0.592041 0.81665
vt 0.574463 0.81665
vt 0.57446 0.781494
vt 0.592041 0.81665
vt 0.539371 0.816702
vt 0.574463 0.81665
vt 0.592041 0.81665
vt 0.629214 0.781442
vt 0.62915 0.763916
vt 0.716997 0.763916
vt 0.629214 0.781442
vt 0.716997 0.763916
vt 0.717042 0.781494
vt 0.629214 0.781442
vt 0.717042 0.781494
vt 0.681885 0.781494
vt 0.681885 0.81665
vt 0.717041 0.81665
vt 0.717038 0.834229
vt 0.681885 0.81665
vt 0.717038 0.834229
vt 0.629214 0.834177
vt 0.681885 0.81665
vt 0.629214 0.834177
vt 0.629214 0.816658
vt 0.681885 0.81665
vt 0.629214 0.816658
vt 0.664304 0.81665
vt 0.681885 0.781494
vt 0.681885 0.81665
vt 0.664304 0.81665
vt 0.681885 0.781494
vt 0.664304 0.81665
vt 0.664307 0.781494
vt 0.681885 0.781494
vt 0.664307 0.781494
vt 0.629214 0.781442
vn 1 0 0
vn 0.002586 0.999997 0
vn -1 0 0
vn 0 1 0
vn -0.000182 1 0
vn -1 -0.000591 0
vn 0 -1 0
vn 1 -0.000223 0
vn 0.00009 -1 0
vn -0.999999 -0.001484 0
vn -0.00365 -0.999993 0
vn 0 0 -1
vn 0 0 1
f 1/1/1 2/2/1 14/3/1 13/4/1
f 2/5/2 3/6/2 15/7/2 14/8/2
f 3/9/3 4/10/3 16/11/3 15/12/3
f 4/13/4 5/14/4 17/15/4 16/16/4
f 5/17/1 6/18/1 18/19/1 17/20/1
f 6/21/5 7/22/5 19/23/5 18/24/5
f 7/25/6 8/26/6 20/27/6 19/28/6
f 8/29/7 9/30/7 21/31/7 20/32/7
f 9/33/8 10/34/8 22/35/8 21/36/8
f 10/37/9 11/38/9 23/39/9 22/40/9
f 11/41/10 12/42/10 24/43/10 23/44/10
f 12/45/11 1/46/11 13/47/11 24/48/11
f 26/49/12 25/50/12 36/51/12
f 27/52/12 26/53/12 36/54/12
f 28/55/12 27/56/12 36/57/12
f 31/58/12 30/59/12 29/60/12
f 32/61/12 31/62/12 29/63/12
f 33/64/12 32/65/12 29/66/12
f 34/67/12 33/68/12 29/69/12
f 34/70/12 29/71/12 28/72/12
f 35/73/12 34/74/12 28/75/12
f 36/76/12 35/77/12 28/78/12
f 48/79/13 37/80/13 38/81/13
f 48/82/13 38/83/13 39/84/13
f 48/85/13 39/86/13 40/87/13
f 41/88/13 42/89/13 43/90/13
f 41/91/13 43/92/13 44/93/13
f 41/94/13 44/95/13 45/96/13
f 41/97/13 45/98/13 46/99/13
f 40/100/13 41/101/13 46/102/13
f 40/103/13 46/104/13 47/105/13
f 40/106/13 47/107/13 48/108/13
o H_face_lit
usemtl letters_am_glow
v 0.8013 0.124156 0.8726
v 0.8013 0.8758 0.8726
v 0.648771 0.876309 0.8726
v 0.648563 0.5763 0.8726
v 0.351301 0.5763 0.8726
v 0.351228 0.876301 0.8726
v 0.198698 0.876206 0.8726
v 0.199283 0.1237 0.8726
v 0.350768 0.1237 0.8726
v 0.351304 0.423649 0.8726
v 0.648696 0.423701 0.8726
v 0.649283 0.123694 0.8726
v 0.8025 0.12296 0.8738
v 0.8025 0.876996 0.8738
v 0.647572 0.877513 0.8738
v 0.647363 0.5775 0.8738
v 0.3525 0.5775 0.8738
v 0.352427 0.877502 0.8738
v 0.197497 0.877406 0.8738
v 0.198084 0.1225 0.8738
v 0.351966 0.1225 0.8738
v 0.352502 0.422449 0.8738
v 0.647498 0.4225 0.8738
v 0.648085 0.12249 0.8738
v 0.8025 0.12296 0.8784
v 0.8025 0.876996 0.8784
v 0.647572 0.877513 0.8784
v 0.647363 0.5775 0.8784
v 0.3525 0.5775 0.8784
v 0.352427 0.877502 0.8784
v 0.197497 0.877406 0.8784
v 0.198084 0.1225 0.8784
v 0.351966 0.1225 0.8784
v 0.352502 0.422449 0.8784
v 0.647498 0.4225 0.8784
v 0.648085 0.12249 0.8784
v 0.8013 0.124156 0.8796
v 0.8013 0.8758 0.8796
v 0.648771 0.876309 0.8796
v 0.648563 0.5763 0.8796
v 0.351301 0.5763 0.8796
v 0.351228 0.876301 0.8796
v 0.198698 0.876206 0.8796
v 0.199283 0.1237 0.8796
v 0.350768 0.1237 0.8796
v 0.351304 0.423649 0.8796
v 0.648696 0.423701 0.8796
v 0.649283 0.123694 0.8796
v 0.8013 0.124156 0.8726
v 0.8013 0.8758 0.8726
v 0.648771 0.876309 0.8726
v 0.648563 0.5763 0.8726
v 0.351301 0.5763 0.8726
v 0.351228 0.876301 0.8726
v 0.198698 0.876206 0.8726
v 0.199283 0.1237 0.8726
v 0.350768 0.1237 0.8726
v 0.351304 0.423649 0.8726
v 0.648696 0.423701 0.8726
v 0.649283 0.123694 0.8726
v 0.8013 0.124156 0.8796
v 0.8013 0.8758 0.8796
v 0.648771 0.876309 0.8796
v 0.648563 0.5763 0.8796
v 0.351301 0.5763 0.8796
v 0.351228 0.876301 0.8796
v 0.198698 0.876206 0.8796
v 0.199283 0.1237 0.8796
v 0.350768 0.1237 0.8796
v 0.351304 0.423649 0.8796
v 0.648696 0.423701 0.8796
v 0.649283 0.123694 0.8796
vt 0.90224 0.336471
vt 0.990323 0.336471
vt 0.990463 0.33667
vt 0.9021 0.33667
vt 0.748919 0.34233
vt 0.766794 0.34233
vt 0.766935 0.342529
vt 0.748779 0.342529
vt 0.946674 0.352096
vt 0.981831 0.352096
vt 0.981691 0.352295
vt 0.946533 0.352295
vt 0.834229 0.344284
vt 0.869064 0.344284
vt 0.868923 0.344482
vt 0.834369 0.344482
vt 0.723877 0.344284
vt 0.759033 0.344284
vt 0.759174 0.344482
vt 0.724018 0.344482
vt 0.668842 0.34233
vt 0.686716 0.34233
vt 0.686857 0.342529
vt 0.668701 0.342529
vt 0.650287 0.352096
vt 0.738472 0.352096
vt 0.738612 0.352295
vt 0.650146 0.352295
vt 0.736713 0.332565
vt 0.754465 0.332565
vt 0.754605 0.332764
vt 0.736572 0.332764
vt 0.30849 0.338424
vt 0.34364 0.338424
vt 0.3435 0.338623
vt 0.30835 0.338623
vt 0.112061 0.350143
vt 0.146911 0.350143
vt 0.146771 0.350342
vt 0.112201 0.350342
vt 0.03833 0.350143
vt 0.073487 0.350143
vt 0.073628 0.350342
vt 0.03847 0.350342
vt 0.395404 0.350143
vt 0.413219 0.350143
vt 0.413359 0.350342
vt 0.395264 0.350342
vt 0.631104 0.377635
vt 0.719467 0.377635
vt 0.719467 0.378174
vt 0.631104 0.378174
vt 0.469482 0.362986
vt 0.487638 0.362986
vt 0.487638 0.363525
vt 0.469482 0.363525
vt 0.777588 0.370311
vt 0.812746 0.370311
vt 0.812746 0.37085
vt 0.777588 0.37085
vt 0.292725 0.367869
vt 0.327279 0.367869
vt 0.327279 0.368408
vt 0.292725 0.368408
vt 0.926025 0.370311
vt 0.961182 0.370311
vt 0.961182 0.37085
vt 0.926025 0.37085
vt 0.429443 0.362986
vt 0.447599 0.362986
vt 0.447599 0.363525
vt 0.429443 0.363525
vt 0.181885 0.380076
vt 0.27035 0.380076
vt 0.27035 0.380615
vt 0.181885 0.380615
vt 0.079834 0.360545
vt 0.097867 0.360545
vt 0.097867 0.361084
vt 0.079834 0.361084
vt 0.001221 0.367869
vt 0.036371 0.367869
vt 0.036371 0.368408
vt 0.001221 0.368408
vt 0.220459 0.367869
vt 0.255029 0.367869
vt 0.255029 0.368408
vt 0.220459 0.368408
vt 0.851807 0.370311
vt 0.886964 0.370311
vt 0.886964 0.37085
vt 0.851807 0.37085
vt 0.909912 0.362986
vt 0.928008 0.362986
vt 0.928008 0.363525
vt 0.909912 0.363525
vt 0.181396 0.338424
vt 0.26976 0.338424
vt 0.26962 0.338623
vt 0.181537 0.338623
vt 0.457764 0.332565
vt 0.475919 0.332565
vt 0.475778 0.332764
vt 0.457904 0.332764
vt 0.575439 0.344284
vt 0.610597 0.344284
vt 0.610738 0.344482
vt 0.57558 0.344482
vt 0.87099 0.344284
vt 0.905544 0.344284
vt 0.905685 0.344482
vt 0.87085 0.344482
vt 0.570697 0.334518
vt 0.605854 0.334518
vt 0.605713 0.334717
vt 0.570557 0.334717
vt 0.70874 0.34233
vt 0.726896 0.34233
vt 0.726756 0.342529
vt 0.708881 0.342529
vt 0.091553 0.34819
vt 0.180018 0.34819
vt 0.179878 0.348389
vt 0.091693 0.348389
vt 0.280029 0.340377
vt 0.298062 0.340377
vt 0.297922 0.340576
vt 0.28017 0.340576
vt 0.644775 0.334518
vt 0.679926 0.334518
vt 0.680066 0.334717
vt 0.644916 0.334717
vt 0.420795 0.330612
vt 0.455365 0.330612
vt 0.455505 0.330811
vt 0.420654 0.330811
vt 0.649799 0.344284
vt 0.684956 0.344284
vt 0.684815 0.344482
vt 0.649658 0.344482
vt 0.081299 0.340377
vt 0.099394 0.340377
vt 0.099254 0.340576
vt 0.08144 0.340576
vt 0.895999 0.908936
vt 0.807916 0.908936
vt 0.807861 0.891121
vt 0.896058 0.891061
vt 0.895999 0.908936
vt 0.807861 0.891121
vt 0.860901 0.891037
vt 0.896058 0.891061
vt 0.807861 0.891121
vt 0.896046 0.838318
vt 0.896058 0.856193
vt 0.860901 0.856201
vt 0.807862 0.838387
vt 0.896046 0.838318
vt 0.860901 0.856201
vt 0.807862 0.856139
vt 0.807862 0.838387
vt 0.860901 0.856201
vt 0.843012 0.856202
vt 0.807862 0.856139
vt 0.860901 0.856201
vt 0.843012 0.856202
vt 0.860901 0.856201
vt 0.860901 0.891037
vt 0.843018 0.891052
vt 0.843012 0.856202
vt 0.860901 0.891037
vt 0.807861 0.891121
vt 0.843018 0.891052
vt 0.860901 0.891037
vt 0.897705 0.856133
vt 0.897759 0.838318
vt 0.985842 0.838318
vt 0.897705 0.856133
vt 0.985842 0.838318
vt 0.985902 0.856193
vt 0.897705 0.856133
vt 0.985902 0.856193
vt 0.950745 0.856217
vt 0.950745 0.891052
vt 0.985901 0.891061
vt 0.98589 0.908936
vt 0.950745 0.891052
vt 0.98589 0.908936
vt 0.897706 0.908867
vt 0.950745 0.891052
vt 0.897706 0.908867
vt 0.897706 0.891115
vt 0.950745 0.891052
vt 0.897706 0.891115
vt 0.932856 0.891052
vt 0.950745 0.856217
vt 0.950745 0.891052
vt 0.932856 0.891052
vt 0.950745 0.856217
vt 0.932856 0.891052
vt 0.932862 0.856201
vt 0.950745 0.856217
vt 0.932862 0.856201
vt 0.897705 0.856133
vn 0.707107 0 -0.707107
vn 0.00236 0.707103 -0.707107
vn -0.707107 0.000491 -0.707107
vn 0 0.707107 -0.707107
vn 0.707107 0.000172 -0.707107
vn -0.000439 0.707107 -0.707107
vn -0.707107 -0.00055 -0.707107
vn 0 -0.707107 -0.707107
vn 0.707106 -0.001262 -0.707107
vn 0.000123 -0.707107 -0.707107
vn -0.707105 -0.001384 -0.707107
vn 0.002152 -0.707104 -0.707107
vn 1 0 0
vn 0.003338 0.999994 0
vn -1 0.000695 0
vn 0 1 0
vn 1 0.000243 0
vn -0.000621 1 0
vn -1 -0.000778 0
vn 0 -1 0
vn 0.999998 -0.001785 0
vn 0.000174 -1 0
vn -0.999998 -0.001957 0
vn 0.003044 -0.999995 0
vn 0.707107 0 0.707107
vn 0.00236 0.707103 0.707107
vn -0.707107 0.000491 0.707107
vn 0 0.707107 0.707107
vn 0.707107 0.000172 0.707107
vn -0.000439 0.707107 0.707107
vn -0.707107 -0.00055 0.707107
vn 0 -0.707107 0.707107
vn 0.707106 -0.001262 0.707107
vn 0.000123 -0.707107 0.707107
vn -0.707105 -0.001384 0.707107
vn 0.002152 -0.707104 0.707107
vn 0 0 -1
vn 0 0 1
f 49/109/14 50/110/14 62/111/14 61/112/14
f 50/113/15 51/114/15 63/115/15 62/116/15
f 51/117/16 52/118/16 64/119/16 63/120/16
f 52/121/17 53/122/17 65/123/17 64/124/17
f 53/125/18 54/126/18 66/127/18 65/128/18
f 54/129/19 55/130/19 67/131/19 66/132/19
f 55/133/20 56/134/20 68/135/20 67/136/20
f 56/137/21 57/138/21 69/139/21 68/140/21
f 57/141/22 58/142/22 70/143/22 69/144/22
f 58/145/23 59/146/23 71/147/23 70/148/23
f 59/149/24 60/150/24 72/151/24 71/152/24
f 60/153/25 49/154/25 61/155/25 72/156/25
f 61/157/26 62/158/26 74/159/26 73/160/26
f 62/161/27 63/162/27 75/163/27 74/164/27
f 63/165/28 64/166/28 76/167/28 75/168/28
f 64/169/29 65/170/29 77/171/29 76/172/29
f 65/173/30 66/174/30 78/175/30 77/176/30
f 66/177/31 67/178/31 79/179/31 78/180/31
f 67/181/32 68/182/32 80/183/32 79/184/32
f 68/185/33 69/186/33 81/187/33 80/188/33
f 69/189/34 70/190/34 82/191/34 81/192/34
f 70/193/35 71/194/35 83/195/35 82/196/35
f 71/197/36 72/198/36 84/199/36 83/200/36
f 72/201/37 61/202/37 73/203/37 84/204/37
f 73/205/38 74/206/38 86/207/38 85/208/38
f 74/209/39 75/210/39 87/211/39 86/212/39
f 75/213/40 76/214/40 88/215/40 87/216/40
f 76/217/41 77/218/41 89/219/41 88/220/41
f 77/221/42 78/222/42 90/223/42 89/224/42
f 78/225/43 79/226/43 91/227/43 90/228/43
f 79/229/44 80/230/44 92/231/44 91/232/44
f 80/233/45 81/234/45 93/235/45 92/236/45
f 81/237/46 82/238/46 94/239/46 93/240/46
f 82/241/47 83/242/47 95/243/47 94/244/47
f 83/245/48 84/246/48 96/247/48 95/248/48
f 84/249/49 73/250/49 85/251/49 96/252/49
f 98/253/50 97/254/50 108/255/50
f 99/256/50 98/257/50 108/258/50
f 100/259/50 99/260/50 108/261/50
f 103/262/50 102/263/50 101/264/50
f 104/265/50 103/266/50 101/267/50
f 105/268/50 104/269/50 101/270/50
f 106/271/50 105/272/50 101/273/50
f 106/274/50 101/275/50 100/276/50
f 107/277/50 106/278/50 100/279/50
f 108/280/50 107/281/50 100/282/50
f 120/283/51 109/284/51 110/285/51
f 120/286/51 110/287/51 111/288/51
f 120/289/51 111/290/51 112/291/51
f 113/292/51 114/293/51 115/294/51
f 113/295/51 115/296/51 116/297/51
f 113/298/51 116/299/51 117/300/51
f 113/301/51 117/302/51 118/303/51
f 112/304/51 113/305/51 118/306/51
f 112/307/51 118/308/51 119/309/51
f 112/310/51 119/311/51 120/312/51
