# AFL PRAIRIE signage V1 channel letter I (lit), generated by tools/build-prairie-signage-v1.mjs
mtllib i_lit.mtl
o I_body
usemtl letters_am
v 0.575 0.125 0.8786
v 0.575 0.875 0.8786
v 0.425 0.874973 0.8786
v 0.425 0.125 0.8786
v 0.575 0.125 0.9996
v 0.575 0.875 0.9996
v 0.425 0.874973 0.9996
v 0.425 0.125 0.9996
v 0.575 0.125 0.8786
v 0.575 0.875 0.8786
v 0.425 0.874973 0.8786
v 0.425 0.125 0.8786
v 0.575 0.125 0.9996
v 0.575 0.875 0.9996
v 0.425 0.874973 0.9996
v 0.425 0.125 0.9996
vt 0.275635 0.494854
vt 0.363525 0.494854
vt 0.363525 0.509033
vt 0.275635 0.509033
vt 0.306885 0.427471
vt 0.324463 0.427471
vt 0.324463 0.44165
vt 0.306885 0.44165
vt 0.455322 0.494854
vt 0.54321 0.494854
vt 0.54321 0.509033
vt 0.455322 0.509033
vt 0.345459 0.427471
vt 0.363037 0.427471
vt 0.363037 0.44165
vt 0.345459 0.44165
vt 0.985596 0.567139
vt 0.897705 0.567139
vt 0.897705 0.549561
vt 0.897705 0.549561
vt 0.985593 0.549561
vt 0.985596 0.567139
vt 0.001221 0.509033
vt 0.001221 0.491455
vt 0.089111 0.491455
vt 0.089111 0.491455
vt 0.089108 0.509033
vt 0.001221 0.509033
vn 1 0 0
vn -0.000182 1 0
vn -1 0 0
vn 0 -1 0
vn 0 0 -1
vn 0 0 1
f 1/1/1 2/2/1 6/3/1 5/4/1
f 2/5/2 3/6/2 7/7/2 6/8/2
f 3/9/3 4/10/3 8/11/3 7/12/3
f 4/13/4 1/14/4 5/15/4 8/16/4
f 10/17/5 9/18/5 12/19/5
f 12/20/5 11/21/5 10/22/5
f 16/23/6 13/24/6 14/25/6
f 14/26/6 15/27/6 16/28/6
o I_face_lit
usemtl letters_am_glow
v 0.5763 0.124156 0.8726
v 0.576228 0.876301 0.8726
v 0.4237 0.876206 0.8726
v 0.4237 0.123692 0.8726
v 0.5775 0.12296 0.8738
v 0.577428 0.877502 0.8738
v 0.4225 0.877406 0.8738
v 0.4225 0.122488 0.8738
v 0.5775 0.12296 0.8784
v 0.577428 0.877502 0.8784
v 0.4225 0.877406 0.8784
v 0.4225 0.122488 0.8784
v 0.5763 0.124156 0.8796
v 0.576228 0.876301 0.8796
v 0.4237 0.876206 0.8796
v 0.4237 0.123692 0.8796
v 0.5763 0.124156 0.8726
v 0.576228 0.876301 0.8726
v 0.4237 0.876206 0.8726
v 0.4237 0.123692 0.8726
v 0.5763 0.124156 0.8796
v 0.576228 0.876301 0.8796
v 0.4237 0.876206 0.8796
v 0.4237 0.123692 0.8796
vt 0.362689 0.336471
vt 0.450831 0.336471
vt 0.450972 0.33667
vt 0.362549 0.33667
vt 0.909076 0.34233
vt 0.926951 0.34233
vt 0.927091 0.342529
vt 0.908936 0.342529
vt 0.704975 0.350143
vt 0.79316 0.350143
vt 0.793301 0.350342
vt 0.704834 0.350342
vt 0.377827 0.332565
vt 0.39571 0.332565
vt 0.39585 0.332764
vt 0.377686 0.332764
vt 0.904541 0.380076
vt 0.992964 0.380076
vt 0.992964 0.380615
vt 0.904541 0.380615
vt 0.5896 0.362986
vt 0.607755 0.362986
vt 0.607755 0.363525
vt 0.5896 0.363525
vt 0.739014 0.382518
vt 0.827481 0.382518
vt 0.827481 0.383057
vt 0.739014 0.383057
vt 0.309326 0.362986
vt 0.32749 0.362986
vt 0.32749 0.363525
vt 0.309326 0.363525
vt 0.001221 0.338424
vt 0.089644 0.338424
vt 0.089503 0.338623
vt 0.001361 0.338623
vt 0.355225 0.350143
vt 0.37338 0.350143
vt 0.37324 0.350342
vt 0.355365 0.350342
vt 0.576416 0.340377
vt 0.664883 0.340377
vt 0.664742 0.340576
vt 0.576557 0.340576
vt 0.548584 0.34233
vt 0.566748 0.34233
vt 0.566608 0.342529
vt 0.548725 0.342529
vt 0.806214 0.56713
vt 0.718072 0.567139
vt 0.718018 0.549256
vt 0.718018 0.549256
vt 0.806203 0.549256
vt 0.806214 0.56713
vt 0.807861 0.567139
vt 0.807916 0.549256
vt 0.896058 0.549264
vt 0.896058 0.549264
vt 0.896047 0.567139
vt 0.807861 0.567139
vn 0.707107 0.000068 -0.707107
vn -0.000439 0.707107 -0.707107
vn -0.707107 0 -0.707107
vn 0.002152 -0.707104 -0.707107
vn 1 0.000096 0
vn -0.000621 1 0
vn -1 0 0
vn 0.003044 -0.999995 0
vn 0.707107 0.000068 0.707107
vn -0.000439 0.707107 0.707107
vn -0.707107 0 0.707107
vn 0.002152 -0.707104 0.707107
vn 0 0 -1
vn 0 0 1
f 17/29/7 18/30/7 22/31/7 21/32/7
f 18/33/8 19/34/8 23/35/8 22/36/8
f 19/37/9 20/38/9 24/39/9 23/40/9
f 20/41/10 17/42/10 21/43/10 24/44/10
f 21/45/11 22/46/11 26/47/11 25/48/11
f 22/49/12 23/50/12 27/51/12 26/52/12
f 23/53/13 24/54/13 28/55/13 27/56/13
f 24/57/14 21/58/14 25/59/14 28/60/14
f 25/61/15 26/62/15 30/63/15 29/64/15
f 26/65/16 27/66/16 31/67/16 30/68/16
f 27/69/17 28/70/17 32/71/17 31/72/17
f 28/73/18 25/74/18 29/75/18 32/76/18
f 34/77/19 33/78/19 36/79/19
f 36/80/19 35/81/19 34/82/19
f 40/83/20 37/84/20 38/85/20
f 38/86/20 39/87/20 40/88/20
