# AFL PRAIRIE signage V1 channel letter J (lit), generated by tools/build-prairie-signage-v1.mjs
mtllib j_lit.mtl
o J_body
usemtl letters_am
v 0.543363 0.125426 0.8786
v 0.567363 0.128351 0.8786
v 0.589363 0.133565 0.8786
v 0.611363 0.141403 0.8786
v 0.631363 0.151083 0.8786
v 0.651254 0.163544 0.8786
v 0.66895 0.177544 0.8786
v 0.685209 0.193544 0.8786
v 0.699363 0.210841 0.8786
v 0.711601 0.229544 0.8786
v 0.721363 0.248518 0.8786
v 0.729363 0.269019 0.8786
v 0.735021 0.289544 0.8786
v 0.738197 0.307544 0.8786
v 0.739787 0.325544 0.8786
v 0.740005 0.395 0.8786
v 0.590002 0.394973 0.8786
v 0.5899 0.331544 0.8786
v 0.586757 0.315544 0.8786
v 0.581092 0.303544 0.8786
v 0.573363 0.293532 0.8786
v 0.561363 0.283851 0.8786
v 0.549363 0.278211 0.8786
v 0.541363 0.276086 0.8786
v 0.531363 0.275015 0.8786
v 0.463363 0.275368 0.8786
v 0.453363 0.277353 0.8786
v 0.443363 0.281238 0.8786
v 0.435363 0.28601 0.8786
v 0.427363 0.29279 0.8786
v 0.420197 0.301544 0.8786
v 0.414776 0.311544 0.8786
v 0.411529 0.321544 0.8786
v 0.410018 0.333544 0.8786
v 0.41 0.875 0.8786
v 0.26 0.874973 0.8786
v 0.260028 0.331544 0.8786
v 0.261099 0.313544 0.8786
v 0.26374 0.295544 0.8786
v 0.268013 0.277544 0.8786
v 0.273266 0.261544 0.8786
v 0.280961 0.243544 0.8786
v 0.290782 0.225544 0.8786
v 0.301594 0.209544 0.8786
v 0.313363 0.195126 0.8786
v 0.326645 0.181544 0.8786
v 0.341363 0.169011 0.8786
v 0.357711 0.157544 0.8786
v 0.375363 0.147533 0.8786
v 0.391363 0.140279 0.8786
v 0.409363 0.133945 0.8786
v 0.425363 0.129799 0.8786
v 0.443363 0.126696 0.8786
v 0.467363 0.125017 0.8786
v 0.543363 0.125426 0.9996
v 0.567363 0.128351 0.9996
v 0.589363 0.133565 0.9996
v 0.611363 0.141403 0.9996
v 0.631363 0.151083 0.9996
v 0.651254 0.163544 0.9996
v 0.66895 0.177544 0.9996
v 0.685209 0.193544 0.9996
v 0.699363 0.210841 0.9996
v 0.711601 0.229544 0.9996
v 0.721363 0.248518 0.9996
v 0.729363 0.269019 0.9996
v 0.735021 0.289544 0.9996
v 0.738197 0.307544 0.9996
v 0.739787 0.325544 0.9996
v 0.740005 0.395 0.9996
v 0.590002 0.394973 0.9996
v 0.5899 0.331544 0.9996
v 0.586757 0.315544 0.9996
v 0.581092 0.303544 0.9996
v 0.573363 0.293532 0.9996
v 0.561363 0.283851 0.9996
v 0.549363 0.278211 0.9996
v 0.541363 0.276086 0.9996
v 0.531363 0.275015 0.9996
v 0.463363 0.275368 0.9996
v 0.453363 0.277353 0.9996
v 0.443363 0.281238 0.9996
v 0.435363 0.28601 0.9996
v 0.427363 0.29279 0.9996
v 0.420197 0.301544 0.9996
v 0.414776 0.311544 0.9996
v 0.411529 0.321544 0.9996
v 0.410018 0.333544 0.9996
v 0.41 0.875 0.9996
v 0.26 0.874973 0.9996
v 0.260028 0.331544 0.9996
v 0.261099 0.313544 0.9996
v 0.26374 0.295544 0.9996
v 0.268013 0.277544 0.9996
v 0.273266 0.261544 0.9996
v 0.280961 0.243544 0.9996
v 0.290782 0.225544 0.9996
v 0.301594 0.209544 0.9996
v 0.313363 0.195126 0.9996
v 0.326645 0.181544 0.9996
v 0.341363 0.169011 0.9996
v 0.357711 0.157544 0.9996
v 0.375363 0.147533 0.9996
v 0.391363 0.140279 0.9996
v 0.409363 0.133945 0.9996
v 0.425363 0.129799 0.9996
v 0.443363 0.126696 0.9996
v 0.467363 0.125017 0.9996
v 0.543363 0.125426 0.8786
v 0.567363 0.128351 0.8786
v 0.589363 0.133565 0.8786
v 0.611363 0.141403 0.8786
v 0.631363 0.151083 0.8786
v 0.651254 0.163544 0.8786
v 0.66895 0.177544 0.8786
v 0.685209 0.193544 0.8786
v 0.699363 0.210841 0.8786
v 0.711601 0.229544 0.8786
v 0.721363 0.248518 0.8786
v 0.729363 0.269019 0.8786
v 0.735021 0.289544 0.8786
v 0.738197 0.307544 0.8786
v 0.739787 0.325544 0.8786
v 0.740005 0.395 0.8786
v 0.590002 0.394973 0.8786
v 0.5899 0.331544 0.8786
v 0.586757 0.315544 0.8786
v 0.581092 0.303544 0.8786
v 0.573363 0.293532 0.8786
v 0.561363 0.283851 0.8786
v 0.549363 0.278211 0.8786
v 0.541363 0.276086 0.8786
v 0.531363 0.275015 0.8786
v 0.463363 0.275368 0.8786
v 0.453363 0.277353 0.8786
v 0.443363 0.281238 0.8786
v 0.435363 0.28601 0.8786
v 0.427363 0.29279 0.8786
v 0.420197 0.301544 0.8786
v 0.414776 0.311544 0.8786
v 0.411529 0.321544 0.8786
v 0.410018 0.333544 0.8786
v 0.41 0.875 0.8786
v 0.26 0.874973 0.8786
v 0.260028 0.331544 0.8786
v 0.261099 0.313544 0.8786
v 0.26374 0.295544 0.8786
v 0.268013 0.277544 0.8786
v 0.273266 0.261544 0.8786
v 0.280961 0.243544 0.8786
v 0.290782 0.225544 0.8786
v 0.301594 0.209544 0.8786
v 0.313363 0.195126 0.8786
v 0.326645 0.181544 0.8786
v 0.341363 0.169011 0.8786
v 0.357711 0.157544 0.8786
v 0.375363 0.147533 0.8786
v 0.391363 0.140279 0.8786
v 0.409363 0.133945 0.8786
v 0.425363 0.129799 0.8786
v 0.443363 0.126696 0.8786
v 0.467363 0.125017 0.8786
v 0.543363 0.125426 0.9996
v 0.567363 0.128351 0.9996
v 0.589363 0.133565 0.9996
v 0.611363 0.141403 0.9996
v 0.631363 0.151083 0.9996
v 0.651254 0.163544 0.9996
v 0.66895 0.177544 0.9996
v 0.685209 0.193544 0.9996
v 0.699363 0.210841 0.9996
v 0.711601 0.229544 0.9996
v 0.721363 0.248518 0.9996
v 0.729363 0.269019 0.9996
v 0.735021 0.289544 0.9996
v 0.738197 0.307544 0.9996
v 0.739787 0.325544 0.9996
v 0.740005 0.395 0.9996
v 0.590002 0.394973 0.9996
v 0.5899 0.331544 0.9996
v 0.586757 0.315544 0.9996
v 0.581092 0.303544 0.9996
v 0.573363 0.293532 0.9996
v 0.561363 0.283851 0.9996
v 0.549363 0.278211 0.9996
v 0.541363 0.276086 0.9996
v 0.531363 0.275015 0.9996
v 0.463363 0.275368 0.9996
v 0.453363 0.277353 0.9996
v 0.443363 0.281238 0.9996
v 0.435363 0.28601 0.9996
v 0.427363 0.29279 0.9996
v 0.420197 0.301544 0.9996
v 0.414776 0.311544 0.9996
v 0.411529 0.321544 0.9996
v 0.410018 0.333544 0.9996
v 0.41 0.875 0.9996
v 0.26 0.874973 0.9996
v 0.260028 0.331544 0.9996
v 0.261099 0.313544 0.9996
v 0.26374 0.295544 0.9996
v 0.268013 0.277544 0.9996
v 0.273266 0.261544 0.9996
v 0.280961 0.243544 0.9996
v 0.290782 0.225544 0.9996
v 0.301594 0.209544 0.9996
v 0.313363 0.195126 0.9996
v 0.326645 0.181544 0.9996
v 0.341363 0.169011 0.9996
v 0.357711 0.157544 0.9996
v 0.375363 0.147533 0.9996
v 0.391363 0.140279 0.9996
v 0.409363 0.133945 0.9996
v 0.425363 0.129799 0.9996
v 0.443363 0.126696 0.9996
v 0.467363 0.125017 0.9996
vt 0.746799 0.443584
vt 0.749632 0.443584
vt 0.749632 0.457764
vt 0.746799 0.457764
vt 0.749632 0.443584
vt 0.752268 0.443584
vt 0.752268 0.457764
vt 0.749632 0.457764
vt 0.752268 0.443584
vt 0.754943 0.443584
vt 0.754943 0.457764
vt 0.752268 0.457764
vt 0.754943 0.443584
vt 0.757414 0.443584
vt 0.757414 0.457764
vt 0.754943 0.457764
vt 0.162354 0.425537
vt 0.162354 0.422823
vt 0.176533 0.422823
vt 0.176533 0.425537
vt 0.162354 0.422823
vt 0.162354 0.420183
vt 0.176533 0.420183
vt 0.176533 0.422823
vt 0.162354 0.420183
vt 0.162354 0.417513
vt 0.176533 0.417513
vt 0.176533 0.420183
vt 0.162354 0.417513
vt 0.162354 0.414929
vt 0.176533 0.414929
vt 0.176533 0.417513
vt 0.307373 0.425537
vt 0.307373 0.42295
vt 0.321553 0.42295
vt 0.321553 0.425537
vt 0.307373 0.42295
vt 0.307373 0.420452
vt 0.321553 0.420452
vt 0.321553 0.42295
vt 0.307373 0.420452
vt 0.307373 0.417877
vt 0.321553 0.417877
vt 0.321553 0.420452
vt 0.307373 0.417877
vt 0.307373 0.415412
vt 0.321553 0.415412
vt 0.321553 0.417877
vt 0.945557 0.44165
vt 0.945557 0.439516
vt 0.959736 0.439516
vt 0.959736 0.44165
vt 0.945557 0.439516
vt 0.945557 0.437399
vt 0.959736 0.437399
vt 0.959736 0.439516
vt 0.945557 0.437399
vt 0.945557 0.429289
vt 0.959736 0.429289
vt 0.959736 0.437399
vt 0.209229 0.427471
vt 0.226807 0.427471
vt 0.226807 0.44165
vt 0.209229 0.44165
vt 0.420166 0.425537
vt 0.420166 0.418138
vt 0.434346 0.418138
vt 0.434346 0.425537
vt 0.420166 0.418138
vt 0.420166 0.416236
vt 0.434346 0.416236
vt 0.434346 0.418138
vt 0.848389 0.404053
vt 0.848389 0.402507
vt 0.862568 0.402507
vt 0.862568 0.404053
vt 0.848389 0.402507
vt 0.848389 0.401033
vt 0.862568 0.401033
vt 0.862568 0.402507
vt 0.363037 0.404053
vt 0.363037 0.402259
vt 0.377217 0.402259
vt 0.377217 0.404053
vt 0.363037 0.402259
vt 0.363037 0.400716
vt 0.377217 0.400716
vt 0.377217 0.402259
vt 0.355713 0.425537
vt 0.355713 0.424576
vt 0.369893 0.424576
vt 0.369893 0.425537
vt 0.355713 0.424576
vt 0.355713 0.423398
vt 0.369893 0.423398
vt 0.369893 0.424576
vt 0.355713 0.423398
vt 0.355713 0.415492
vt 0.369893 0.415492
vt 0.369893 0.423398
vt 0.237549 0.404053
vt 0.237549 0.402876
vt 0.251729 0.402876
vt 0.251729 0.404053
vt 0.237549 0.402876
vt 0.237549 0.401618
vt 0.251729 0.401618
vt 0.251729 0.402876
vt 0.237549 0.401618
vt 0.237549 0.400543
vt 0.251729 0.400543
vt 0.251729 0.401618
vt 0.263916 0.398682
vt 0.263916 0.397458
vt 0.278096 0.397458
vt 0.278096 0.398682
vt 0.263916 0.397458
vt 0.263916 0.396137
vt 0.278096 0.396137
vt 0.278096 0.397458
vt 0.247803 0.398682
vt 0.247803 0.397354
vt 0.261982 0.397354
vt 0.261982 0.398682
vt 0.247803 0.397354
vt 0.247803 0.396127
vt 0.261982 0.396127
vt 0.261982 0.397354
vt 0.503662 0.475811
vt 0.505077 0.475811
vt 0.505077 0.48999
vt 0.503662 0.48999
vt 0.505077 0.475811
vt 0.568404 0.475811
vt 0.568404 0.48999
vt 0.505077 0.48999
vt 0.287354 0.427471
vt 0.304932 0.427471
vt 0.304932 0.44165
vt 0.287354 0.44165
vt 0.358643 0.475811
vt 0.421601 0.475811
vt 0.421601 0.48999
vt 0.358643 0.48999
vt 0.421601 0.475811
vt 0.423705 0.475811
vt 0.423705 0.48999
vt 0.421601 0.48999
vt 0.423705 0.475811
vt 0.425837 0.475811
vt 0.425837 0.48999
vt 0.423705 0.48999
vt 0.425837 0.475811
vt 0.427998 0.475811
vt 0.427998 0.48999
vt 0.425837 0.48999
vt 0.427998 0.475811
vt 0.429944 0.475811
vt 0.429944 0.48999
vt 0.427998 0.48999
vt 0.753174 0.425537
vt 0.753174 0.423266
vt 0.767354 0.423266
vt 0.767354 0.425537
vt 0.753174 0.423266
vt 0.753174 0.420866
vt 0.767354 0.420866
vt 0.767354 0.423266
vt 0.753174 0.420866
vt 0.753174 0.418605
vt 0.767354 0.418605
vt 0.767354 0.420866
vt 0.753174 0.418605
vt 0.753174 0.416445
vt 0.767354 0.416445
vt 0.767354 0.418605
vt 0.737061 0.425537
vt 0.737061 0.423332
vt 0.75124 0.423332
vt 0.75124 0.425537
vt 0.737061 0.423332
vt 0.737061 0.42107
vt 0.75124 0.42107
vt 0.75124 0.423332
vt 0.737061 0.42107
vt 0.737061 0.418732
vt 0.75124 0.418732
vt 0.75124 0.42107
vt 0.737061 0.418732
vt 0.737061 0.416378
vt 0.75124 0.416378
vt 0.75124 0.418732
vt 0.946533 0.425537
vt 0.946533 0.423486
vt 0.960713 0.423486
vt 0.960713 0.425537
vt 0.946533 0.423486
vt 0.946533 0.42125
vt 0.960713 0.42125
vt 0.960713 0.423486
vt 0.946533 0.42125
vt 0.946533 0.41932
vt 0.960713 0.41932
vt 0.960713 0.42125
vt 0.733154 0.443584
vt 0.735199 0.443584
vt 0.735199 0.457764
vt 0.733154 0.457764
vt 0.735199 0.443584
vt 0.737962 0.443584
vt 0.737962 0.457764
vt 0.735199 0.457764
vt 0.737962 0.443584
vt 0.746799 0.443584
vt 0.746799 0.457764
vt 0.737962 0.457764
vt 0.001611 0.546907
vt 0.001269 0.544095
vt 0.001221 0.535189
vt 0.002222 0.549485
vt 0.001611 0.546907
vt 0.001221 0.535189
vt 0.003141 0.552064
vt 0.002222 0.549485
vt 0.001221 0.535189
vt 0.004275 0.554407
vt 0.003141 0.552064
vt 0.001221 0.535189
vt 0.005736 0.556738
vt 0.004275 0.554407
vt 0.001221 0.535189
vt 0.007376 0.558812
vt 0.005736 0.556738
vt 0.001221 0.535189
vt 0.009251 0.560717
vt 0.007376 0.558812
vt 0.001221 0.535189
vt 0.011278 0.562376
vt 0.009251 0.560717
vt 0.001221 0.535189
vt 0.01347 0.56381
vt 0.011278 0.562376
vt 0.001221 0.535189
vt 0.015693 0.564954
vt 0.01347 0.56381
vt 0.001221 0.535189
vt 0.018096 0.565892
vt 0.015693 0.564954
vt 0.001221 0.535189
vt 0.020501 0.566555
vt 0.018096 0.565892
vt 0.001221 0.535189
vt 0.022611 0.566927
vt 0.020501 0.566555
vt 0.001221 0.535189
vt 0.02472 0.567113
vt 0.022611 0.566927
vt 0.001221 0.535189
vt 0.032859 0.567139
vt 0.02472 0.567113
vt 0.001221 0.535189
vt 0.025423 0.549548
vt 0.032856 0.54956
vt 0.032859 0.567139
vt 0.023548 0.54918
vt 0.025423 0.549548
vt 0.032859 0.567139
vt 0.022142 0.548516
vt 0.023548 0.54918
vt 0.032859 0.567139
vt 0.022142 0.548516
vt 0.032859 0.567139
vt 0.001221 0.535189
vt 0.020969 0.54761
vt 0.022142 0.548516
vt 0.001221 0.535189
vt 0.019834 0.546204
vt 0.020969 0.54761
vt 0.001221 0.535189
vt 0.019173 0.544798
vt 0.019834 0.546204
vt 0.001221 0.535189
vt 0.018924 0.54386
vt 0.019173 0.544798
vt 0.001221 0.535189
vt 0.018799 0.542689
vt 0.018924 0.54386
vt 0.001221 0.535189
vt 0.01884 0.53472
vt 0.018799 0.542689
vt 0.001221 0.535189
vt 0.019073 0.533548
vt 0.01884 0.53472
vt 0.001221 0.535189
vt 0.019528 0.532376
vt 0.019073 0.533548
vt 0.001221 0.535189
vt 0.020087 0.531439
vt 0.019528 0.532376
vt 0.001221 0.535189
vt 0.020882 0.530501
vt 0.020087 0.531439
vt 0.001221 0.535189
vt 0.021907 0.529661
vt 0.020882 0.530501
vt 0.001221 0.535189
vt 0.023079 0.529026
vt 0.021907 0.529661
vt 0.001221 0.535189
vt 0.024251 0.528645
vt 0.023079 0.529026
vt 0.001221 0.535189
vt 0.089106 0.510888
vt 0.089109 0.528466
vt 0.025657 0.528468
vt 0.089106 0.510888
vt 0.025657 0.528468
vt 0.024251 0.528645
vt 0.025423 0.510891
vt 0.089106 0.510888
vt 0.024251 0.528645
vt 0.025423 0.510891
vt 0.024251 0.528645
vt 0.001221 0.535189
vt 0.023314 0.511017
vt 0.025423 0.510891
vt 0.001221 0.535189
vt 0.021204 0.511326
vt 0.023314 0.511017
vt 0.001221 0.535189
vt 0.019095 0.511827
vt 0.021204 0.511326
vt 0.001221 0.535189
vt 0.01722 0.512443
vt 0.019095 0.511827
vt 0.001221 0.535189
vt 0.015111 0.513345
vt 0.01722 0.512443
vt 0.001221 0.535189
vt 0.013001 0.514495
vt 0.015111 0.513345
vt 0.001221 0.535189
vt 0.011126 0.515762
vt 0.013001 0.514495
vt 0.001221 0.535189
vt 0.009437 0.517142
vt 0.011126 0.515762
vt 0.001221 0.535189
vt 0.007845 0.518698
vt 0.009437 0.517142
vt 0.001221 0.535189
vt 0.006376 0.520423
vt 0.007845 0.518698
vt 0.001221 0.535189
vt 0.005032 0.522339
vt 0.006376 0.520423
vt 0.001221 0.535189
vt 0.003859 0.524407
vt 0.005032 0.522339
vt 0.001221 0.535189
vt 0.003009 0.526282
vt 0.003859 0.524407
vt 0.001221 0.535189
vt 0.002267 0.528392
vt 0.003009 0.526282
vt 0.001221 0.535189
vt 0.001781 0.530267
vt 0.002267 0.528392
vt 0.001221 0.535189
vt 0.001221 0.535189
vt 0.001418 0.532376
vt 0.001781 0.530267
vt 0.090576 0.542838
vt 0.090624 0.533932
vt 0.090967 0.53112
vt 0.090576 0.542838
vt 0.090967 0.53112
vt 0.091578 0.528541
vt 0.090576 0.542838
vt 0.091578 0.528541
vt 0.092496 0.525963
vt 0.090576 0.542838
vt 0.092496 0.525963
vt 0.093631 0.52362
vt 0.090576 0.542838
vt 0.093631 0.52362
vt 0.095091 0.521289
vt 0.090576 0.542838
vt 0.095091 0.521289
vt 0.096732 0.519215
vt 0.090576 0.542838
vt 0.096732 0.519215
vt 0.098607 0.517309
vt 0.090576 0.542838
vt 0.098607 0.517309
vt 0.100634 0.515651
vt 0.090576 0.542838
vt 0.100634 0.515651
vt 0.102825 0.514217
vt 0.090576 0.542838
vt 0.102825 0.514217
vt 0.105049 0.513073
vt 0.090576 0.542838
vt 0.105049 0.513073
vt 0.107451 0.512135
vt 0.090576 0.542838
vt 0.107451 0.512135
vt 0.109857 0.511472
vt 0.090576 0.542838
vt 0.109857 0.511472
vt 0.111966 0.5111
vt 0.090576 0.542838
vt 0.111966 0.5111
vt 0.114075 0.510914
vt 0.090576 0.542838
vt 0.114075 0.510914
vt 0.122215 0.510888
vt 0.122215 0.510888
vt 0.122212 0.528467
vt 0.114779 0.528478
vt 0.122215 0.510888
vt 0.114779 0.528478
vt 0.112904 0.528847
vt 0.122215 0.510888
vt 0.112904 0.528847
vt 0.111497 0.529511
vt 0.090576 0.542838
vt 0.122215 0.510888
vt 0.111497 0.529511
vt 0.090576 0.542838
vt 0.111497 0.529511
vt 0.110324 0.530416
vt 0.090576 0.542838
vt 0.110324 0.530416
vt 0.10919 0.531823
vt 0.090576 0.542838
vt 0.10919 0.531823
vt 0.108529 0.533229
vt 0.090576 0.542838
vt 0.108529 0.533229
vt 0.10828 0.534166
vt 0.090576 0.542838
vt 0.10828 0.534166
vt 0.108154 0.535338
vt 0.090576 0.542838
vt 0.108154 0.535338
vt 0.108196 0.543307
vt 0.090576 0.542838
vt 0.108196 0.543307
vt 0.108428 0.544479
vt 0.090576 0.542838
vt 0.108428 0.544479
vt 0.108883 0.545651
vt 0.090576 0.542838
vt 0.108883 0.545651
vt 0.109443 0.546588
vt 0.090576 0.542838
vt 0.109443 0.546588
vt 0.110237 0.547526
vt 0.090576 0.542838
vt 0.110237 0.547526
vt 0.111263 0.548366
vt 0.090576 0.542838
vt 0.111263 0.548366
vt 0.112435 0.549001
vt 0.090576 0.542838
vt 0.112435 0.549001
vt 0.113607 0.549381
vt 0.115013 0.549558
vt 0.178465 0.549561
vt 0.178462 0.567139
vt 0.113607 0.549381
vt 0.115013 0.549558
vt 0.178462 0.567139
vt 0.113607 0.549381
vt 0.178462 0.567139
vt 0.114779 0.567135
vt 0.090576 0.542838
vt 0.113607 0.549381
vt 0.114779 0.567135
vt 0.090576 0.542838
vt 0.114779 0.567135
vt 0.112669 0.56701
vt 0.090576 0.542838
vt 0.112669 0.56701
vt 0.11056 0.5667
vt 0.090576 0.542838
vt 0.11056 0.5667
vt 0.10845 0.5662
vt 0.090576 0.542838
vt 0.10845 0.5662
vt 0.106575 0.565584
vt 0.090576 0.542838
vt 0.106575 0.565584
vt 0.104466 0.564682
vt 0.090576 0.542838
vt 0.104466 0.564682
vt 0.102357 0.563531
vt 0.090576 0.542838
vt 0.102357 0.563531
vt 0.100482 0.562264
vt 0.090576 0.542838
vt 0.100482 0.562264
vt 0.098792 0.560885
vt 0.090576 0.542838
vt 0.098792 0.560885
vt 0.0972 0.559329
vt 0.090576 0.542838
vt 0.0972 0.559329
vt 0.095732 0.557604
vt 0.090576 0.542838
vt 0.095732 0.557604
vt 0.094388 0.555688
vt 0.090576 0.542838
vt 0.094388 0.555688
vt 0.093215 0.55362
vt 0.090576 0.542838
vt 0.093215 0.55362
vt 0.092365 0.551745
vt 0.090576 0.542838
vt 0.092365 0.551745
vt 0.091622 0.549635
vt 0.090576 0.542838
vt 0.091622 0.549635
vt 0.091137 0.54776
vt 0.091137 0.54776
vt 0.090773 0.545651
vt 0.090576 0.542838
vn 0.033323 -0.999445 0
vn 0.17424 -0.984703 0
vn 0.284386 -0.95871 0
vn 0.384957 -0.922934 0
vn 0.485299 -0.874348 0
vn 0.575643 -0.817701 0
vn 0.662111 -0.749406 0
vn 0.73836 -0.674407 0
vn 0.806497 -0.591238 0
vn 0.863559 -0.504248 0
vn 0.911931 -0.410343 0
vn 0.948805 -0.315862 0
vn 0.974703 -0.223504 0
vn 0.991351 -0.131238 0
vn 0.999787 -0.02066 0
vn 0.999995 -0.003133 0
vn -0.000182 1 0
vn -0.999999 0.001607 0
vn -0.999166 0.040823 0
vn -0.95391 0.300094 0
vn -0.854282 0.519811 0
vn -0.706461 0.707752 0
vn -0.538073 0.842898 0
vn -0.361935 0.932203 0
vn -0.174807 0.984603 0
vn -0.009204 0.999958 0
vn 0.029952 0.999551 0
vn 0.281596 0.959533 0
vn 0.433412 0.901196 0
vn 0.585398 0.810746 0
vn 0.715517 0.698595 0
vn 0.830307 0.557306 0
vn 0.91753 0.397666 0
vn 0.977398 0.211406 0
vn 0.999996 0.002762 0
vn 1 0.000033 0
vn -1 -0.000052 0
vn -0.999998 -0.001958 0
vn -0.994727 -0.102556 0
vn -0.982052 -0.188611 0
vn -0.962918 -0.269795 0
vn -0.934526 -0.355896 0
vn -0.899213 -0.43751 0
vn -0.8549 -0.518792 0
vn -0.802924 -0.596082 0
vn -0.745264 -0.66677 0
vn -0.682068 -0.731289 0
vn -0.611359 -0.791353 0
vn -0.534072 -0.845439 0
vn -0.456456 -0.889746 0
vn -0.371108 -0.92859 0
vn -0.294574 -0.955629 0
vn -0.208511 -0.97802 0
vn -0.113131 -0.99358 0
vn -0.012705 -0.999919 0
vn 0 0 -1
vn 0 0 1
f 1/1/1 2/2/2 56/3/2 55/4/1
f 2/5/2 3/6/3 57/7/3 56/8/2
f 3/9/3 4/10/4 58/11/4 57/12/3
f 4/13/4 5/14/5 59/15/5 58/16/4
f 5/17/5 6/18/6 60/19/6 59/20/5
f 6/21/6 7/22/7 61/23/7 60/24/6
f 7/25/7 8/26/8 62/27/8 61/28/7
f 8/29/8 9/30/9 63/31/9 62/32/8
f 9/33/9 10/34/10 64/35/10 63/36/9
f 10/37/10 11/38/11 65/39/11 64/40/10
f 11/41/11 12/42/12 66/43/12 65/44/11
f 12/45/12 13/46/13 67/47/13 66/48/12
f 13/49/13 14/50/14 68/51/14 67/52/13
f 14/53/14 15/54/15 69/55/15 68/56/14
f 15/57/15 16/58/16 70/59/16 69/60/15
f 16/61/17 17/62/17 71/63/17 70/64/17
f 17/65/18 18/66/19 72/67/19 71/68/18
f 18/69/19 19/70/20 73/71/20 72/72/19
f 19/73/20 20/74/21 74/75/21 73/76/20
f 20/77/21 21/78/22 75/79/22 74/80/21
f 21/81/22 22/82/23 76/83/23 75/84/22
f 22/85/23 23/86/24 77/87/24 76/88/23
f 23/89/24 24/90/25 78/91/25 77/92/24
f 24/93/25 25/94/26 79/95/26 78/96/25
f 25/97/26 26/98/27 80/99/27 79/100/26
f 26/101/27 27/102/28 81/103/28 80/104/27
f 27/105/28 28/106/29 82/107/29 81/108/28
f 28/109/29 29/110/30 83/111/30 82/112/29
f 29/113/30 30/114/31 84/115/31 83/116/30
f 30/117/31 31/118/32 85/119/32 84/120/31
f 31/121/32 32/122/33 86/123/33 85/124/32
f 32/125/33 33/126/34 87/127/34 86/128/33
f 33/129/34 34/130/35 88/131/35 87/132/34
f 34/133/35 35/134/36 89/135/36 88/136/35
f 35/137/17 36/138/17 90/139/17 89/140/17
f 36/141/37 37/142/38 91/143/38 90/144/37
f 37/145/38 38/146/39 92/147/39 91/148/38
f 38/149/39 39/150/40 93/151/40 92/152/39
f 39/153/40 40/154/41 94/155/41 93/156/40
f 40/157/41 41/158/42 95/159/42 94/160/41
f 41/161/42 42/162/43 96/163/43 95/164/42
f 42/165/43 43/166/44 97/167/44 96/168/43
f 43/169/44 44/170/45 98/171/45 97/172/44
f 44/173/45 45/174/46 99/175/46 98/176/45
f 45/177/46 46/178/47 100/179/47 99/180/46
f 46/181/47 47/182/48 101/183/48 100/184/47
f 47/185/48 48/186/49 102/187/49 101/188/48
f 48/189/49 49/190/50 103/191/50 102/192/49
f 49/193/50 50/194/51 104/195/51 103/196/50
f 50/197/51 51/198/52 105/199/52 104/200/51
f 51/201/52 52/202/53 106/203/53 105/204/52
f 52/205/53 53/206/54 107/207/54 106/208/53
f 53/209/54 54/210/55 108/211/55 107/212/54
f 54/213/55 1/214/1 55/215/1 108/216/55
f 110/217/56 109/218/56 162/219/56
f 111/220/56 110/221/56 162/222/56
f 112/223/56 111/224/56 162/225/56
f 113/226/56 112/227/56 162/228/56
f 114/229/56 113/230/56 162/231/56
f 115/232/56 114/233/56 162/234/56
f 116/235/56 115/236/56 162/237/56
f 117/238/56 116/239/56 162/240/56
f 118/241/56 117/242/56 162/243/56
f 119/244/56 118/245/56 162/246/56
f 120/247/56 119/248/56 162/249/56
f 121/250/56 120/251/56 162/252/56
f 122/253/56 121/254/56 162/255/56
f 123/256/56 122/257/56 162/258/56
f 124/259/56 123/260/56 162/261/56
f 126/262/56 125/263/56 124/264/56
f 127/265/56 126/266/56 124/267/56
f 128/268/56 127/269/56 124/270/56
f 128/271/56 124/272/56 162/273/56
f 129/274/56 128/275/56 162/276/56
f 130/277/56 129/278/56 162/279/56
f 131/280/56 130/281/56 162/282/56
f 132/283/56 131/284/56 162/285/56
f 133/286/56 132/287/56 162/288/56
f 134/289/56 133/290/56 162/291/56
f 135/292/56 134/293/56 162/294/56
f 136/295/56 135/296/56 162/297/56
f 137/298/56 136/299/56 162/300/56
f 138/301/56 137/302/56 162/303/56
f 139/304/56 138/305/56 162/306/56
f 140/307/56 139/308/56 162/309/56
f 141/310/56 140/311/56 162/312/56
f 144/313/56 143/314/56 142/315/56
f 144/316/56 142/317/56 141/318/56
f 145/319/56 144/320/56 141/321/56
f 145/322/56 141/323/56 162/324/56
f 146/325/56 145/326/56 162/327/56
f 147/328/56 146/329/56 162/330/56
f 148/331/56 147/332/56 162/333/56
f 149/334/56 148/335/56 162/336/56
f 150/337/56 149/338/56 162/339/56
f 151/340/56 150/341/56 162/342/56
f 152/343/56 151/344/56 162/345/56
f 153/346/56 152/347/56 162/348/56
f 154/349/56 153/350/56 162/351/56
f 155/352/56 154/353/56 162/354/56
f 156/355/56 155/356/56 162/357/56
f 157/358/56 156/359/56 162/360/56
f 158/361/56 157/362/56 162/363/56
f 159/364/56 158/365/56 162/366/56
f 160/367/56 159/368/56 162/369/56
f 162/370/56 161/371/56 160/372/56
f 216/373/57 163/374/57 164/375/57
f 216/376/57 164/377/57 165/378/57
f 216/379/57 165/380/57 166/381/57
f 216/382/57 166/383/57 167/384/57
f 216/385/57 167/386/57 168/387/57
f 216/388/57 168/389/57 169/390/57
f 216/391/57 169/392/57 170/393/57
f 216/394/57 170/395/57 171/396/57
f 216/397/57 171/398/57 172/399/57
f 216/400/57 172/401/57 173/402/57
f 216/403/57 173/404/57 174/405/57
f 216/406/57 174/407/57 175/408/57
f 216/409/57 175/410/57 176/411/57
f 216/412/57 176/413/57 177/414/57
f 216/415/57 177/416/57 178/417/57
f 178/418/57 179/419/57 180/420/57
f 178/421/57 180/422/57 181/423/57
f 178/424/57 181/425/57 182/426/57
f 216/427/57 178/428/57 182/429/57
f 216/430/57 182/431/57 183/432/57
f 216/433/57 183/434/57 184/435/57
f 216/436/57 184/437/57 185/438/57
f 216/439/57 185/440/57 186/441/57
f 216/442/57 186/443/57 187/444/57
f 216/445/57 187/446/57 188/447/57
f 216/448/57 188/449/57 189/450/57
f 216/451/57 189/452/57 190/453/57
f 216/454/57 190/455/57 191/456/57
f 216/457/57 191/458/57 192/459/57
f 216/460/57 192/461/57 193/462/57
f 216/463/57 193/464/57 194/465/57
f 216/466/57 194/467/57 195/468/57
f 196/469/57 197/470/57 198/471/57
f 195/472/57 196/473/57 198/474/57
f 195/475/57 198/476/57 199/477/57
f 216/478/57 195/479/57 199/480/57
f 216/481/57 199/482/57 200/483/57
f 216/484/57 200/485/57 201/486/57
f 216/487/57 201/488/57 202/489/57
f 216/490/57 202/491/57 203/492/57
f 216/493/57 203/494/57 204/495/57
f 216/496/57 204/497/57 205/498/57
f 216/499/57 205/500/57 206/501/57
f 216/502/57 206/503/57 207/504/57
f 216/505/57 207/506/57 208/507/57
f 216/508/57 208/509/57 209/510/57
f 216/511/57 209/512/57 210/513/57
f 216/514/57 210/515/57 211/516/57
f 216/517/57 211/518/57 212/519/57
f 216/520/57 212/521/57 213/522/57
f 216/523/57 213/524/57 214/525/57
f 214/526/57 215/527/57 216/528/57
o J_face_lit
usemtl letters_am_glow
v 0.549248 0.12458 0.8726
v 0.571129 0.127743 0.8726
v 0.593004 0.133314 0.8726
v 0.614882 0.141501 0.8726
v 0.634766 0.151504 0.8726
v 0.654656 0.16439 0.8726
v 0.671893 0.178434 0.8726
v 0.687677 0.194342 0.8726
v 0.702386 0.212813 0.8726
v 0.713441 0.230138 0.8726
v 0.72346 0.250028 0.8726
v 0.731024 0.269912 0.8726
v 0.736835 0.291798 0.8726
v 0.739527 0.307696 0.8726
v 0.74109 0.325598 0.8726
v 0.741302 0.3963 0.8726
v 0.588701 0.396298 0.8726
v 0.588596 0.331421 0.8726
v 0.585251 0.315149 0.8726
v 0.579142 0.302884 0.8726
v 0.570677 0.292672 0.8726
v 0.55998 0.284524 0.8726
v 0.547713 0.279027 0.8726
v 0.53146 0.276316 0.8726
v 0.463237 0.276685 0.8726
v 0.453023 0.278805 0.8726
v 0.444845 0.281961 0.8726
v 0.436675 0.286673 0.8726
v 0.428516 0.29347 0.8726
v 0.422249 0.300853 0.8726
v 0.416263 0.311373 0.8726
v 0.412923 0.321271 0.8726
v 0.411318 0.333465 0.8726
v 0.411228 0.876301 0.8726
v 0.2587 0.876206 0.8726
v 0.258728 0.331579 0.8726
v 0.259781 0.313665 0.8726
v 0.262375 0.295767 0.8726
v 0.266571 0.277869 0.8726
v 0.272486 0.259931 0.8726
v 0.280233 0.242073 0.8726
v 0.290099 0.224172 0.8726
v 0.300928 0.208266 0.8726
v 0.314119 0.192354 0.8726
v 0.328169 0.178376 0.8726
v 0.344081 0.16532 0.8726
v 0.360036 0.15457 0.8726
v 0.377891 0.144834 0.8726
v 0.393795 0.137922 0.8726
v 0.411698 0.131904 0.8726
v 0.427602 0.127998 0.8726
v 0.445495 0.125127 0.8726
v 0.469399 0.123701 0.8726
v 0.531334 0.123704 0.8726
v 0.549363 0.123384 0.8738
v 0.571363 0.126565 0.8738
v 0.593363 0.132167 0.8738
v 0.615363 0.1404 0.8738
v 0.635363 0.150461 0.8738
v 0.655363 0.163419 0.8738
v 0.6727 0.177544 0.8738
v 0.688575 0.193544 0.8738
v 0.703363 0.212115 0.8738
v 0.714486 0.229544 0.8738
v 0.724559 0.249544 0.8738
v 0.732167 0.269544 0.8738
v 0.738009 0.291544 0.8738
v 0.740719 0.307544 0.8738
v 0.742289 0.325544 0.8738
v 0.742506 0.3975 0.8738
v 0.587503 0.397498 0.8738
v 0.587396 0.331544 0.8738
v 0.584107 0.315544 0.8738
v 0.57813 0.303544 0.8738
v 0.56984 0.293544 0.8738
v 0.559363 0.285563 0.8738
v 0.547363 0.280185 0.8738
v 0.531363 0.277516 0.8738
v 0.463363 0.277884 0.8738
v 0.453363 0.27996 0.8738
v 0.445363 0.283047 0.8738
v 0.437363 0.28766 0.8738
v 0.429363 0.294325 0.8738
v 0.423236 0.301544 0.8738
v 0.417363 0.311866 0.8738
v 0.414097 0.321544 0.8738
v 0.412518 0.333544 0.8738
v 0.412428 0.877502 0.8738
v 0.2575 0.877406 0.8738
v 0.257528 0.331544 0.8738
v 0.258586 0.313544 0.8738
v 0.261195 0.295544 0.8738
v 0.265415 0.277544 0.8738
v 0.271363 0.259504 0.8738
v 0.279154 0.241544 0.8738
v 0.289076 0.223544 0.8738
v 0.299968 0.207544 0.8738
v 0.313231 0.191544 0.8738
v 0.327363 0.177485 0.8738
v 0.343363 0.164357 0.8738
v 0.359412 0.153544 0.8738
v 0.377363 0.143755 0.8738
v 0.393363 0.136801 0.8738
v 0.411363 0.13075 0.8738
v 0.427363 0.126821 0.8738
v 0.445363 0.123933 0.8738
v 0.469363 0.122501 0.8738
v 0.531363 0.122504 0.8738
v 0.549363 0.123384 0.8784
v 0.571363 0.126565 0.8784
v 0.593363 0.132167 0.8784
v 0.615363 0.1404 0.8784
v 0.635363 0.150461 0.8784
v 0.655363 0.163419 0.8784
v 0.6727 0.177544 0.8784
v 0.688575 0.193544 0.8784
v 0.703363 0.212115 0.8784
v 0.714486 0.229544 0.8784
v 0.724559 0.249544 0.8784
v 0.732167 0.269544 0.8784
v 0.738009 0.291544 0.8784
v 0.740719 0.307544 0.8784
v 0.742289 0.325544 0.8784
v 0.742506 0.3975 0.8784
v 0.587503 0.397498 0.8784
v 0.587396 0.331544 0.8784
v 0.584107 0.315544 0.8784
v 0.57813 0.303544 0.8784
v 0.56984 0.293544 0.8784
v 0.559363 0.285563 0.8784
v 0.547363 0.280185 0.8784
v 0.531363 0.277516 0.8784
v 0.463363 0.277884 0.8784
v 0.453363 0.27996 0.8784
v 0.445363 0.283047 0.8784
v 0.437363 0.28766 0.8784
v 0.429363 0.294325 0.8784
v 0.423236 0.301544 0.8784
v 0.417363 0.311866 0.8784
v 0.414097 0.321544 0.8784
v 0.412518 0.333544 0.8784
v 0.412428 0.877502 0.8784
v 0.2575 0.877406 0.8784
v 0.257528 0.331544 0.8784
v 0.258586 0.313544 0.8784
v 0.261195 0.295544 0.8784
v 0.265415 0.277544 0.8784
v 0.271363 0.259504 0.8784
v 0.279154 0.241544 0.8784
v 0.289076 0.223544 0.8784
v 0.299968 0.207544 0.8784
v 0.313231 0.191544 0.8784
v 0.327363 0.177485 0.8784
v 0.343363 0.164357 0.8784
v 0.359412 0.153544 0.8784
v 0.377363 0.143755 0.8784
v 0.393363 0.136801 0.8784
v 0.411363 0.13075 0.8784
v 0.427363 0.126821 0.8784
v 0.445363 0.123933 0.8784
v 0.469363 0.122501 0.8784
v 0.531363 0.122504 0.8784
v 0.549248 0.12458 0.8796
v 0.571129 0.127743 0.8796
v 0.593004 0.133314 0.8796
v 0.614882 0.141501 0.8796
v 0.634766 0.151504 0.8796
v 0.654656 0.16439 0.8796
v 0.671893 0.178434 0.8796
v 0.687677 0.194342 0.8796
v 0.702386 0.212813 0.8796
v 0.713441 0.230138 0.8796
v 0.72346 0.250028 0.8796
v 0.731024 0.269912 0.8796
v 0.736835 0.291798 0.8796
v 0.739527 0.307696 0.8796
v 0.74109 0.325598 0.8796
v 0.741302 0.3963 0.8796
v 0.588701 0.396298 0.8796
v 0.588596 0.331421 0.8796
v 0.585251 0.315149 0.8796
v 0.579142 0.302884 0.8796
v 0.570677 0.292672 0.8796
v 0.55998 0.284524 0.8796
v 0.547713 0.279027 0.8796
v 0.53146 0.276316 0.8796
v 0.463237 0.276685 0.8796
v 0.453023 0.278805 0.8796
v 0.444845 0.281961 0.8796
v 0.436675 0.286673 0.8796
v 0.428516 0.29347 0.8796
v 0.422249 0.300853 0.8796
v 0.416263 0.311373 0.8796
v 0.412923 0.321271 0.8796
v 0.411318 0.333465 0.8796
v 0.411228 0.876301 0.8796
v 0.2587 0.876206 0.8796
v 0.258728 0.331579 0.8796
v 0.259781 0.313665 0.8796
v 0.262375 0.295767 0.8796
v 0.266571 0.277869 0.8796
v 0.272486 0.259931 0.8796
v 0.280233 0.242073 0.8796
v 0.290099 0.224172 0.8796
v 0.300928 0.208266 0.8796
v 0.314119 0.192354 0.8796
v 0.328169 0.178376 0.8796
v 0.344081 0.16532 0.8796
v 0.360036 0.15457 0.8796
v 0.377891 0.144834 0.8796
v 0.393795 0.137922 0.8796
v 0.411698 0.131904 0.8796
v 0.427602 0.127998 0.8796
v 0.445495 0.125127 0.8796
v 0.469399 0.123701 0.8796
v 0.531334 0.123704 0.8796
v 0.549248 0.12458 0.8726
v 0.571129 0.127743 0.8726
v 0.593004 0.133314 0.8726
v 0.614882 0.141501 0.8726
v 0.634766 0.151504 0.8726
v 0.654656 0.16439 0.8726
v 0.671893 0.178434 0.8726
v 0.687677 0.194342 0.8726
v 0.702386 0.212813 0.8726
v 0.713441 0.230138 0.8726
v 0.72346 0.250028 0.8726
v 0.731024 0.269912 0.8726
v 0.736835 0.291798 0.8726
v 0.739527 0.307696 0.8726
v 0.74109 0.325598 0.8726
v 0.741302 0.3963 0.8726
v 0.588701 0.396298 0.8726
v 0.588596 0.331421 0.8726
v 0.585251 0.315149 0.8726
v 0.579142 0.302884 0.8726
v 0.570677 0.292672 0.8726
v 0.55998 0.284524 0.8726
v 0.547713 0.279027 0.8726
v 0.53146 0.276316 0.8726
v 0.463237 0.276685 0.8726
v 0.453023 0.278805 0.8726
v 0.444845 0.281961 0.8726
v 0.436675 0.286673 0.8726
v 0.428516 0.29347 0.8726
v 0.422249 0.300853 0.8726
v 0.416263 0.311373 0.8726
v 0.412923 0.321271 0.8726
v 0.411318 0.333465 0.8726
v 0.411228 0.876301 0.8726
v 0.2587 0.876206 0.8726
v 0.258728 0.331579 0.8726
v 0.259781 0.313665 0.8726
v 0.262375 0.295767 0.8726
v 0.266571 0.277869 0.8726
v 0.272486 0.259931 0.8726
v 0.280233 0.242073 0.8726
v 0.290099 0.224172 0.8726
v 0.300928 0.208266 0.8726
v 0.314119 0.192354 0.8726
v 0.328169 0.178376 0.8726
v 0.344081 0.16532 0.8726
v 0.360036 0.15457 0.8726
v 0.377891 0.144834 0.8726
v 0.393795 0.137922 0.8726
v 0.411698 0.131904 0.8726
v 0.427602 0.127998 0.8726
v 0.445495 0.125127 0.8726
v 0.469399 0.123701 0.8726
v 0.531334 0.123704 0.8726
v 0.549248 0.12458 0.8796
v 0.571129 0.127743 0.8796
v 0.593004 0.133314 0.8796
v 0.614882 0.141501 0.8796
v 0.634766 0.151504 0.8796
v 0.654656 0.16439 0.8796
v 0.671893 0.178434 0.8796
v 0.687677 0.194342 0.8796
v 0.702386 0.212813 0.8796
v 0.713441 0.230138 0.8796
v 0.72346 0.250028 0.8796
v 0.731024 0.269912 0.8796
v 0.736835 0.291798 0.8796
v 0.739527 0.307696 0.8796
v 0.74109 0.325598 0.8796
v 0.741302 0.3963 0.8796
v 0.588701 0.396298 0.8796
v 0.588596 0.331421 0.8796
v 0.585251 0.315149 0.8796
v 0.579142 0.302884 0.8796
v 0.570677 0.292672 0.8796
v 0.55998 0.284524 0.8796
v 0.547713 0.279027 0.8796
v 0.53146 0.276316 0.8796
v 0.463237 0.276685 0.8796
v 0.453023 0.278805 0.8796
v 0.444845 0.281961 0.8796
v 0.436675 0.286673 0.8796
v 0.428516 0.29347 0.8796
v 0.422249 0.300853 0.8796
v 0.416263 0.311373 0.8796
v 0.412923 0.321271 0.8796
v 0.411318 0.333465 0.8796
v 0.411228 0.876301 0.8796
v 0.2587 0.876206 0.8796
v 0.258728 0.331579 0.8796
v 0.259781 0.313665 0.8796
v 0.262375 0.295767 0.8796
v 0.266571 0.277869 0.8796
v 0.272486 0.259931 0.8796
v 0.280233 0.242073 0.8796
v 0.290099 0.224172 0.8796
v 0.300928 0.208266 0.8796
v 0.314119 0.192354 0.8796
v 0.328169 0.178376 0.8796
v 0.344081 0.16532 0.8796
v 0.360036 0.15457 0.8796
v 0.377891 0.144834 0.8796
v 0.393795 0.137922 0.8796
v 0.411698 0.131904 0.8796
v 0.427602 0.127998 0.8796
v 0.445495 0.125127 0.8796
v 0.469399 0.123701 0.8796
v 0.531334 0.123704 0.8796
vt 0.167707 0.398483
vt 0.170294 0.398393
vt 0.170309 0.398591
vt 0.167707 0.398682
vt 0.170294 0.398393
vt 0.172908 0.3981
vt 0.172938 0.398297
vt 0.170309 0.398591
vt 0.172908 0.3981
vt 0.175552 0.397588
vt 0.175596 0.397782
vt 0.172938 0.398297
vt 0.175552 0.397588
vt 0.177983 0.396907
vt 0.178041 0.397097
vt 0.175596 0.397782
vt 0.177983 0.396907
vt 0.180447 0.395983
vt 0.180519 0.396168
vt 0.178041 0.397097
vt 0.502723 0.384711
vt 0.50527 0.385101
vt 0.505247 0.385299
vt 0.502686 0.384907
vt 0.50527 0.385101
vt 0.507881 0.385299
vt 0.507874 0.385498
vt 0.505247 0.385299
vt 0.507881 0.385299
vt 0.510648 0.385294
vt 0.510656 0.385493
vt 0.507874 0.385498
vt 0.510648 0.385294
vt 0.513043 0.385111
vt 0.513065 0.385309
vt 0.510656 0.385493
vt 0.513043 0.385111
vt 0.515596 0.384727
vt 0.515632 0.384922
vt 0.513065 0.385309
vt 0.83182 0.393602
vt 0.83427 0.393931
vt 0.834251 0.394129
vt 0.831787 0.393798
vt 0.83427 0.393931
vt 0.836914 0.394088
vt 0.836909 0.394287
vt 0.834251 0.394129
vt 0.836914 0.394088
vt 0.838804 0.394077
vt 0.838811 0.394276
vt 0.836909 0.394287
vt 0.838804 0.394077
vt 0.840901 0.393944
vt 0.84092 0.394142
vt 0.838811 0.394276
vt 0.840901 0.393944
vt 0.849063 0.392931
vt 0.849226 0.393111
vt 0.84092 0.394142
vt 0.508686 0.34233
vt 0.526569 0.34233
vt 0.526709 0.342529
vt 0.508545 0.342529
vt 0.688339 0.394069
vt 0.695758 0.392883
vt 0.695775 0.393082
vt 0.688232 0.394287
vt 0.695758 0.392883
vt 0.697704 0.392856
vt 0.697688 0.393056
vt 0.695775 0.393082
vt 0.697704 0.392856
vt 0.699264 0.393129
vt 0.699214 0.393322
vt 0.697688 0.393056
vt 0.014893 0.356004
vt 0.016407 0.355754
vt 0.016423 0.355952
vt 0.01494 0.356198
vt 0.016407 0.355754
vt 0.017982 0.355753
vt 0.017966 0.355952
vt 0.016423 0.355952
vt 0.017982 0.355753
vt 0.019517 0.356008
vt 0.019467 0.356201
vt 0.017966 0.355952
vt 0.900635 0.358448
vt 0.902535 0.358202
vt 0.902548 0.3584
vt 0.900678 0.358643
vt 0.902535 0.358202
vt 0.910529 0.358148
vt 0.910516 0.358347
vt 0.902548 0.3584
vt 0.910529 0.358148
vt 0.91173 0.358312
vt 0.911692 0.358507
vt 0.910516 0.358347
vt 0.23999 0.35598
vt 0.241004 0.355863
vt 0.241016 0.356062
vt 0.240024 0.356176
vt 0.241004 0.355863
vt 0.24211 0.355859
vt 0.242098 0.356058
vt 0.241016 0.356062
vt 0.24211 0.355859
vt 0.243337 0.356005
vt 0.243302 0.356201
vt 0.242098 0.356058
vt 0.209229 0.355994
vt 0.210343 0.355843
vt 0.210357 0.356042
vt 0.209267 0.35619
vt 0.210343 0.355843
vt 0.211762 0.355841
vt 0.211748 0.35604
vt 0.210357 0.356042
vt 0.211762 0.355841
vt 0.212964 0.356006
vt 0.212924 0.356201
vt 0.211748 0.35604
vt 0.781494 0.400975
vt 0.782932 0.400908
vt 0.782932 0.401107
vt 0.781517 0.401173
vt 0.782932 0.400908
vt 0.84641 0.403848
vt 0.846542 0.404053
vt 0.782932 0.401107
vt 0.869037 0.34233
vt 0.886912 0.34233
vt 0.887052 0.342529
vt 0.868896 0.342529
vt 0.66203 0.416347
vt 0.724664 0.425063
vt 0.724641 0.425261
vt 0.661865 0.416525
vt 0.724664 0.425063
vt 0.726748 0.425264
vt 0.726735 0.425462
vt 0.724641 0.425261
vt 0.726748 0.425264
vt 0.728865 0.425338
vt 0.728864 0.425537
vt 0.726735 0.425462
vt 0.728865 0.425338
vt 0.731018 0.425282
vt 0.731029 0.42548
vt 0.728864 0.425537
vt 0.731018 0.425282
vt 0.733214 0.425085
vt 0.733238 0.425283
vt 0.731029 0.42548
vt 0.733214 0.425085
vt 0.735442 0.424738
vt 0.735479 0.424934
vt 0.733238 0.425283
vt 0.962198 0.389958
vt 0.964526 0.390358
vt 0.9645 0.390556
vt 0.962158 0.390153
vt 0.964526 0.390358
vt 0.966758 0.390587
vt 0.966745 0.390785
vt 0.9645 0.390556
vt 0.966758 0.390587
vt 0.969177 0.39067
vt 0.969177 0.390869
vt 0.966745 0.390785
vt 0.969177 0.39067
vt 0.971497 0.390592
vt 0.971511 0.39079
vt 0.969177 0.390869
vt 0.971497 0.390592
vt 0.973885 0.390347
vt 0.973911 0.390544
vt 0.971511 0.39079
vt 0.973885 0.390347
vt 0.976076 0.389969
vt 0.976115 0.390164
vt 0.973911 0.390544
vt 0.400159 0.355927
vt 0.40254 0.356002
vt 0.40254 0.356201
vt 0.400146 0.356126
vt 0.40254 0.356002
vt 0.40457 0.355938
vt 0.404583 0.356137
vt 0.40254 0.356201
vt 0.149721 0.396111
vt 0.151742 0.396761
vt 0.15169 0.396953
vt 0.149658 0.396299
vt 0.151742 0.396761
vt 0.153554 0.397217
vt 0.153513 0.397412
vt 0.15169 0.396953
vt 0.153554 0.397217
vt 0.155609 0.397602
vt 0.155581 0.397799
vt 0.153513 0.397412
vt 0.155609 0.397602
vt 0.158382 0.397914
vt 0.158364 0.398113
vt 0.155581 0.397799
vt 0.158382 0.397914
vt 0.165607 0.398412
vt 0.165597 0.398611
vt 0.158364 0.398113
vt 0.165607 0.398412
vt 0.167707 0.398483
vt 0.167707 0.398682
vt 0.165597 0.398611
vt 0.262414 0.365428
vt 0.265018 0.365428
vt 0.265018 0.365967
vt 0.262414 0.365967
vt 0.265018 0.365428
vt 0.26766 0.365428
vt 0.26766 0.365967
vt 0.265018 0.365967
vt 0.26766 0.365428
vt 0.270342 0.365428
vt 0.270342 0.365967
vt 0.26766 0.365967
vt 0.270342 0.365428
vt 0.272819 0.365428
vt 0.272819 0.365967
vt 0.270342 0.365967
vt 0.823975 0.360545
vt 0.826731 0.360545
vt 0.826731 0.361084
vt 0.823975 0.361084
vt 0.826731 0.360545
vt 0.829348 0.360545
vt 0.829348 0.361084
vt 0.826731 0.361084
vt 0.829348 0.360545
vt 0.831985 0.360545
vt 0.831985 0.361084
vt 0.829348 0.361084
vt 0.831985 0.360545
vt 0.834731 0.360545
vt 0.834731 0.361084
vt 0.831985 0.361084
vt 0.048096 0.358104
vt 0.05049 0.358104
vt 0.05049 0.358643
vt 0.048096 0.358643
vt 0.05049 0.358104
vt 0.053111 0.358104
vt 0.053111 0.358643
vt 0.05049 0.358643
vt 0.053111 0.358104
vt 0.055615 0.358104
vt 0.055615 0.358643
vt 0.053111 0.358643
vt 0.055615 0.358104
vt 0.058251 0.358104
vt 0.058251 0.358643
vt 0.055615 0.358643
vt 0.552979 0.360545
vt 0.554874 0.360545
vt 0.554874 0.361084
vt 0.552979 0.361084
vt 0.554874 0.360545
vt 0.556991 0.360545
vt 0.556991 0.361084
vt 0.554874 0.361084
vt 0.556991 0.360545
vt 0.565395 0.360545
vt 0.565395 0.361084
vt 0.556991 0.361084
vt 0.229248 0.362986
vt 0.247412 0.362986
vt 0.247412 0.363525
vt 0.229248 0.363525
vt 0.094482 0.358104
vt 0.102172 0.358104
vt 0.102172 0.358643
vt 0.094482 0.358643
vt 0.102172 0.358104
vt 0.104077 0.358104
vt 0.104077 0.358643
vt 0.102172 0.358643
vt 0.612549 0.358104
vt 0.61411 0.358104
vt 0.61411 0.358643
vt 0.612549 0.358643
vt 0.61411 0.358104
vt 0.615622 0.358104
vt 0.615622 0.358643
vt 0.61411 0.358643
vt 0.622314 0.358104
vt 0.623848 0.358104
vt 0.623848 0.358643
vt 0.622314 0.358643
vt 0.623848 0.358104
vt 0.625379 0.358104
vt 0.625379 0.358643
vt 0.623848 0.358643
vt 0.071533 0.358104
vt 0.073427 0.358104
vt 0.073427 0.358643
vt 0.071533 0.358643
vt 0.073427 0.358104
vt 0.081367 0.358104
vt 0.081367 0.358643
vt 0.073427 0.358643
vt 0.602783 0.358104
vt 0.603965 0.358104
vt 0.603965 0.358643
vt 0.602783 0.358643
vt 0.603965 0.358104
vt 0.604969 0.358104
vt 0.604969 0.358643
vt 0.603965 0.358643
vt 0.604969 0.358104
vt 0.606038 0.358104
vt 0.606038 0.358643
vt 0.604969 0.358643
vt 0.658447 0.358104
vt 0.659663 0.358104
vt 0.659663 0.358643
vt 0.658447 0.358643
vt 0.659663 0.358104
vt 0.660768 0.358104
vt 0.660768 0.358643
vt 0.659663 0.358643
vt 0.641357 0.358104
vt 0.642743 0.358104
vt 0.642743 0.358643
vt 0.641357 0.358643
vt 0.642743 0.358104
vt 0.643934 0.358104
vt 0.643934 0.358643
vt 0.642743 0.358643
vt 0.2854 0.375193
vt 0.286816 0.375193
vt 0.286816 0.375732
vt 0.2854 0.375732
vt 0.286816 0.375193
vt 0.350425 0.375193
vt 0.350425 0.375732
vt 0.286816 0.375732
vt 0.549561 0.362986
vt 0.567716 0.362986
vt 0.567716 0.363525
vt 0.549561 0.363525
vt 0.001221 0.375193
vt 0.064469 0.375193
vt 0.064469 0.375732
vt 0.001221 0.375732
vt 0.064469 0.375193
vt 0.066573 0.375193
vt 0.066573 0.375732
vt 0.064469 0.375732
vt 0.066573 0.375193
vt 0.068704 0.375193
vt 0.068704 0.375732
vt 0.066573 0.375732
vt 0.068704 0.375193
vt 0.070864 0.375193
vt 0.070864 0.375732
vt 0.068704 0.375732
vt 0.070864 0.375193
vt 0.073058 0.375193
vt 0.073058 0.375732
vt 0.070864 0.375732
vt 0.139404 0.358104
vt 0.141676 0.358104
vt 0.141676 0.358643
vt 0.139404 0.358643
vt 0.141676 0.358104
vt 0.144082 0.358104
vt 0.144082 0.358643
vt 0.141676 0.358643
vt 0.144082 0.358104
vt 0.146347 0.358104
vt 0.146347 0.358643
vt 0.144082 0.358643
vt 0.146347 0.358104
vt 0.148758 0.358104
vt 0.148758 0.358643
vt 0.146347 0.358643
vt 0.116943 0.358104
vt 0.119256 0.358104
vt 0.119256 0.358643
vt 0.116943 0.358643
vt 0.119256 0.358104
vt 0.121678 0.358104
vt 0.121678 0.358643
vt 0.119256 0.358643
vt 0.121678 0.358104
vt 0.123944 0.358104
vt 0.123944 0.358643
vt 0.121678 0.358643
vt 0.123944 0.358104
vt 0.126316 0.358104
vt 0.126316 0.358643
vt 0.123944 0.358643
vt 0.320557 0.358104
vt 0.322594 0.358104
vt 0.322594 0.358643
vt 0.320557 0.358643
vt 0.322594 0.358104
vt 0.324819 0.358104
vt 0.324819 0.358643
vt 0.322594 0.358643
vt 0.324819 0.358104
vt 0.326743 0.358104
vt 0.326743 0.358643
vt 0.324819 0.358643
vt 0.248291 0.365428
vt 0.250338 0.365428
vt 0.250338 0.365967
vt 0.248291 0.365967
vt 0.250338 0.365428
vt 0.253105 0.365428
vt 0.253105 0.365967
vt 0.250338 0.365967
vt 0.253105 0.365428
vt 0.260309 0.365428
vt 0.260309 0.365967
vt 0.253105 0.365967
vt 0.260309 0.365428
vt 0.262414 0.365428
vt 0.262414 0.365967
vt 0.260309 0.365967
vt 0.233136 0.395983
vt 0.235738 0.396074
vt 0.235724 0.396272
vt 0.233136 0.396182
vt 0.235738 0.396074
vt 0.238367 0.396368
vt 0.238338 0.396565
vt 0.235724 0.396272
vt 0.238367 0.396368
vt 0.241025 0.396883
vt 0.240982 0.397077
vt 0.238338 0.396565
vt 0.241025 0.396883
vt 0.243471 0.397568
vt 0.243413 0.397758
vt 0.240982 0.397077
vt 0.243471 0.397568
vt 0.245949 0.398497
vt 0.245877 0.398682
vt 0.243413 0.397758
vt 0.531982 0.385303
vt 0.534544 0.38491
vt 0.534567 0.385108
vt 0.532019 0.385498
vt 0.534544 0.38491
vt 0.537171 0.384711
vt 0.537178 0.38491
vt 0.534567 0.385108
vt 0.537171 0.384711
vt 0.539953 0.384716
vt 0.539945 0.384915
vt 0.537178 0.38491
vt 0.539953 0.384716
vt 0.542362 0.384901
vt 0.54234 0.385098
vt 0.539945 0.384915
vt 0.542362 0.384901
vt 0.544929 0.385287
vt 0.544893 0.385482
vt 0.54234 0.385098
vt 0.793701 0.39342
vt 0.796165 0.393089
vt 0.796184 0.393287
vt 0.793734 0.393616
vt 0.796165 0.393089
vt 0.798823 0.392931
vt 0.798828 0.39313
vt 0.796184 0.393287
vt 0.798823 0.392931
vt 0.800725 0.392942
vt 0.800718 0.393141
vt 0.798828 0.39313
vt 0.800725 0.392942
vt 0.802834 0.393076
vt 0.802815 0.393274
vt 0.800718 0.393141
vt 0.802834 0.393076
vt 0.81114 0.394107
vt 0.810977 0.394287
vt 0.802815 0.393274
vt 0.275146 0.350143
vt 0.293311 0.350143
vt 0.29317 0.350342
vt 0.275288 0.350342
vt 0.713623 0.392856
vt 0.721165 0.394062
vt 0.721148 0.39426
vt 0.713729 0.393075
vt 0.721165 0.394062
vt 0.723079 0.394088
vt 0.723095 0.394287
vt 0.721148 0.39426
vt 0.723079 0.394088
vt 0.724605 0.393821
vt 0.724654 0.394015
vt 0.723095 0.394287
vt 0.027636 0.355756
vt 0.029118 0.356002
vt 0.029102 0.3562
vt 0.027588 0.355949
vt 0.029118 0.356002
vt 0.030662 0.356002
vt 0.030678 0.356201
vt 0.029102 0.3562
vt 0.030662 0.356002
vt 0.032162 0.355753
vt 0.032212 0.355946
vt 0.030678 0.356201
vt 0.926068 0.358148
vt 0.927939 0.35839
vt 0.927925 0.358589
vt 0.926025 0.358343
vt 0.927939 0.35839
vt 0.935907 0.358444
vt 0.93592 0.358643
vt 0.927925 0.358589
vt 0.935907 0.358444
vt 0.937082 0.358283
vt 0.93712 0.358479
vt 0.93592 0.358643
vt 0.230258 0.355884
vt 0.23125 0.355998
vt 0.231239 0.356197
vt 0.230225 0.35608
vt 0.23125 0.355998
vt 0.232333 0.356002
vt 0.232344 0.356201
vt 0.231239 0.356197
vt 0.232333 0.356002
vt 0.233536 0.355859
vt 0.233571 0.356055
vt 0.232344 0.356201
vt 0.220009 0.355853
vt 0.221099 0.356001
vt 0.221086 0.356199
vt 0.219971 0.356048
vt 0.221099 0.356001
vt 0.222491 0.356002
vt 0.222504 0.356201
vt 0.221086 0.356199
vt 0.222491 0.356002
vt 0.223666 0.355841
vt 0.223706 0.356037
vt 0.222504 0.356201
vt 0.647728 0.403788
vt 0.649143 0.403854
vt 0.649143 0.404053
vt 0.647705 0.403986
vt 0.649143 0.403854
vt 0.712752 0.400908
vt 0.712621 0.401113
vt 0.649143 0.404053
vt 0.315186 0.350143
vt 0.333341 0.350143
vt 0.333201 0.350342
vt 0.315326 0.350342
vt 0.511475 0.425359
vt 0.574251 0.416624
vt 0.574274 0.416822
vt 0.51164 0.425537
vt 0.574251 0.416624
vt 0.576345 0.416422
vt 0.576358 0.416621
vt 0.574274 0.416822
vt 0.576345 0.416422
vt 0.578474 0.416347
vt 0.578474 0.416546
vt 0.576358 0.416621
vt 0.578474 0.416347
vt 0.580639 0.416404
vt 0.580627 0.416603
vt 0.578474 0.416546
vt 0.580639 0.416404
vt 0.582847 0.416602
vt 0.582823 0.416799
vt 0.580627 0.416603
vt 0.582847 0.416602
vt 0.585088 0.416951
vt 0.585052 0.417146
vt 0.582823 0.416799
vt 0.930908 0.390674
vt 0.93325 0.390272
vt 0.933276 0.390469
vt 0.930948 0.390869
vt 0.93325 0.390272
vt 0.935495 0.390042
vt 0.935508 0.390241
vt 0.933276 0.390469
vt 0.935495 0.390042
vt 0.937927 0.389958
vt 0.937927 0.390157
vt 0.935508 0.390241
vt 0.937927 0.389958
vt 0.940261 0.390037
vt 0.940247 0.390236
vt 0.937927 0.390157
vt 0.940261 0.390037
vt 0.942661 0.390284
vt 0.942635 0.390481
vt 0.940247 0.390236
vt 0.942661 0.390284
vt 0.944865 0.390663
vt 0.944826 0.390858
vt 0.942635 0.390481
vt 0.412842 0.356003
vt 0.415236 0.355927
vt 0.415236 0.356126
vt 0.412855 0.356201
vt 0.415236 0.355927
vt 0.417278 0.355992
vt 0.417266 0.35619
vt 0.415236 0.356126
vt 0.215088 0.398366
vt 0.21712 0.397712
vt 0.217172 0.397904
vt 0.215151 0.398554
vt 0.21712 0.397712
vt 0.218943 0.397253
vt 0.218984 0.397448
vt 0.217172 0.397904
vt 0.218943 0.397253
vt 0.22101 0.396866
vt 0.221039 0.397062
vt 0.218984 0.397448
vt 0.22101 0.396866
vt 0.223794 0.396552
vt 0.223812 0.39675
vt 0.221039 0.397062
vt 0.223794 0.396552
vt 0.231027 0.396054
vt 0.231037 0.396253
vt 0.223812 0.39675
vt 0.231027 0.396054
vt 0.233136 0.395983
vt 0.233136 0.396182
vt 0.231037 0.396253
vt 0.091538 0.605302
vt 0.091167 0.602738
vt 0.091065 0.600638
vt 0.092191 0.607865
vt 0.091538 0.605302
vt 0.091065 0.600638
vt 0.09315 0.610429
vt 0.092191 0.607865
vt 0.091065 0.600638
vt 0.094323 0.612759
vt 0.09315 0.610429
vt 0.091065 0.600638
vt 0.095833 0.61509
vt 0.094323 0.612759
vt 0.091065 0.600638
vt 0.097478 0.61711
vt 0.095833 0.61509
vt 0.091065 0.600638
vt 0.099343 0.61896
vt 0.097478 0.61711
vt 0.091065 0.600638
vt 0.101507 0.620684
vt 0.099343 0.61896
vt 0.091065 0.600638
vt 0.103538 0.621979
vt 0.101507 0.620684
vt 0.091065 0.600638
vt 0.105868 0.623153
vt 0.103538 0.621979
vt 0.091065 0.600638
vt 0.108199 0.62404
vt 0.105868 0.623153
vt 0.091065 0.600638
vt 0.110763 0.624721
vt 0.108199 0.62404
vt 0.091065 0.600638
vt 0.112626 0.625036
vt 0.110763 0.624721
vt 0.091065 0.600638
vt 0.114724 0.625219
vt 0.112626 0.625036
vt 0.091065 0.600638
vt 0.12301 0.625244
vt 0.114724 0.625219
vt 0.091065 0.600638
vt 0.115407 0.607349
vt 0.123009 0.607361
vt 0.12301 0.625244
vt 0.1135 0.606957
vt 0.115407 0.607349
vt 0.12301 0.625244
vt 0.1135 0.606957
vt 0.12301 0.625244
vt 0.091065 0.600638
vt 0.112063 0.606241
vt 0.1135 0.606957
vt 0.091065 0.600638
vt 0.110866 0.605249
vt 0.112063 0.606241
vt 0.091065 0.600638
vt 0.109911 0.603995
vt 0.110866 0.605249
vt 0.091065 0.600638
vt 0.109267 0.602558
vt 0.109911 0.603995
vt 0.091065 0.600638
vt 0.108949 0.600653
vt 0.109267 0.602558
vt 0.091065 0.600638
vt 0.108992 0.592658
vt 0.108949 0.600653
vt 0.091065 0.600638
vt 0.109241 0.591461
vt 0.108992 0.592658
vt 0.091065 0.600638
vt 0.109611 0.590503
vt 0.109241 0.591461
vt 0.091065 0.600638
vt 0.110163 0.589546
vt 0.109611 0.590503
vt 0.091065 0.600638
vt 0.110959 0.588589
vt 0.110163 0.589546
vt 0.091065 0.600638
vt 0.111824 0.587855
vt 0.110959 0.588589
vt 0.091065 0.600638
vt 0.179249 0.568689
vt 0.17926 0.586564
vt 0.115646 0.586574
vt 0.179249 0.568689
vt 0.115646 0.586574
vt 0.114217 0.586762
vt 0.115425 0.568692
vt 0.179249 0.568689
vt 0.114217 0.586762
vt 0.115425 0.568692
vt 0.114217 0.586762
vt 0.113057 0.587154
vt 0.115425 0.568692
vt 0.113057 0.587154
vt 0.111824 0.587855
vt 0.115425 0.568692
vt 0.111824 0.587855
vt 0.091065 0.600638
vt 0.113326 0.568816
vt 0.115425 0.568692
vt 0.091065 0.600638
vt 0.111228 0.56912
vt 0.113326 0.568816
vt 0.091065 0.600638
vt 0.109131 0.569612
vt 0.111228 0.56912
vt 0.091065 0.600638
vt 0.107029 0.570305
vt 0.109131 0.569612
vt 0.091065 0.600638
vt 0.104936 0.571213
vt 0.107029 0.570305
vt 0.091065 0.600638
vt 0.102838 0.572369
vt 0.104936 0.571213
vt 0.091065 0.600638
vt 0.100974 0.573638
vt 0.102838 0.572369
vt 0.091065 0.600638
vt 0.09911 0.575184
vt 0.100974 0.573638
vt 0.091065 0.600638
vt 0.097472 0.57683
vt 0.09911 0.575184
vt 0.091065 0.600638
vt 0.095942 0.578695
vt 0.097472 0.57683
vt 0.091065 0.600638
vt 0.094682 0.580564
vt 0.095942 0.578695
vt 0.091065 0.600638
vt 0.093541 0.582657
vt 0.094682 0.580564
vt 0.091065 0.600638
vt 0.092731 0.584521
vt 0.093541 0.582657
vt 0.091065 0.600638
vt 0.092026 0.586619
vt 0.092731 0.584521
vt 0.091065 0.600638
vt 0.091568 0.588482
vt 0.092026 0.586619
vt 0.091065 0.600638
vt 0.091232 0.590579
vt 0.091568 0.588482
vt 0.091065 0.600638
vt 0.091065 0.600638
vt 0.091064 0.59338
vt 0.091232 0.590579
vt 0.180909 0.593295
vt 0.181011 0.591196
vt 0.181382 0.588631
vt 0.180909 0.593295
vt 0.181382 0.588631
vt 0.182035 0.586068
vt 0.180909 0.593295
vt 0.182035 0.586068
vt 0.182994 0.583504
vt 0.180909 0.593295
vt 0.182994 0.583504
vt 0.184166 0.581174
vt 0.180909 0.593295
vt 0.184166 0.581174
vt 0.185676 0.578843
vt 0.180909 0.593295
vt 0.185676 0.578843
vt 0.187322 0.576823
vt 0.180909 0.593295
vt 0.187322 0.576823
vt 0.189186 0.574973
vt 0.180909 0.593295
vt 0.189186 0.574973
vt 0.191351 0.57325
vt 0.180909 0.593295
vt 0.191351 0.57325
vt 0.193381 0.571954
vt 0.180909 0.593295
vt 0.193381 0.571954
vt 0.195712 0.57078
vt 0.180909 0.593295
vt 0.195712 0.57078
vt 0.198042 0.569894
vt 0.180909 0.593295
vt 0.198042 0.569894
vt 0.200607 0.569213
vt 0.180909 0.593295
vt 0.200607 0.569213
vt 0.20247 0.568897
vt 0.180909 0.593295
vt 0.20247 0.568897
vt 0.204568 0.568714
vt 0.180909 0.593295
vt 0.204568 0.568714
vt 0.212853 0.568689
vt 0.212853 0.568689
vt 0.212853 0.586572
vt 0.20525 0.586584
vt 0.212853 0.568689
vt 0.20525 0.586584
vt 0.203343 0.586976
vt 0.180909 0.593295
vt 0.212853 0.568689
vt 0.203343 0.586976
vt 0.180909 0.593295
vt 0.203343 0.586976
vt 0.201906 0.587692
vt 0.180909 0.593295
vt 0.201906 0.587692
vt 0.20071 0.588684
vt 0.180909 0.593295
vt 0.20071 0.588684
vt 0.199755 0.589938
vt 0.180909 0.593295
vt 0.199755 0.589938
vt 0.19911 0.591375
vt 0.180909 0.593295
vt 0.19911 0.591375
vt 0.198793 0.59328
vt 0.180909 0.593295
vt 0.198793 0.59328
vt 0.198836 0.601275
vt 0.180909 0.593295
vt 0.198836 0.601275
vt 0.199084 0.602472
vt 0.180909 0.593295
vt 0.199084 0.602472
vt 0.199454 0.60343
vt 0.180909 0.593295
vt 0.199454 0.60343
vt 0.200006 0.604388
vt 0.180909 0.593295
vt 0.200006 0.604388
vt 0.200803 0.605344
vt 0.180909 0.593295
vt 0.200803 0.605344
vt 0.201668 0.606078
vt 0.20549 0.607359
vt 0.269104 0.60737
vt 0.269092 0.625244
vt 0.204061 0.607171
vt 0.20549 0.607359
vt 0.269092 0.625244
vt 0.204061 0.607171
vt 0.269092 0.625244
vt 0.205269 0.625241
vt 0.202901 0.60678
vt 0.204061 0.607171
vt 0.205269 0.625241
vt 0.201668 0.606078
vt 0.202901 0.60678
vt 0.205269 0.625241
vt 0.180909 0.593295
vt 0.201668 0.606078
vt 0.205269 0.625241
vt 0.180909 0.593295
vt 0.205269 0.625241
vt 0.20317 0.625117
vt 0.180909 0.593295
vt 0.20317 0.625117
vt 0.201072 0.624813
vt 0.180909 0.593295
vt 0.201072 0.624813
vt 0.198975 0.624322
vt 0.180909 0.593295
vt 0.198975 0.624322
vt 0.196873 0.623629
vt 0.180909 0.593295
vt 0.196873 0.623629
vt 0.19478 0.622721
vt 0.180909 0.593295
vt 0.19478 0.622721
vt 0.192682 0.621565
vt 0.180909 0.593295
vt 0.192682 0.621565
vt 0.190818 0.620296
vt 0.180909 0.593295
vt 0.190818 0.620296
vt 0.188953 0.61875
vt 0.180909 0.593295
vt 0.188953 0.61875
vt 0.187315 0.617103
vt 0.180909 0.593295
vt 0.187315 0.617103
vt 0.185785 0.615239
vt 0.180909 0.593295
vt 0.185785 0.615239
vt 0.184526 0.613369
vt 0.180909 0.593295
vt 0.184526 0.613369
vt 0.183385 0.611276
vt 0.180909 0.593295
vt 0.183385 0.611276
vt 0.182575 0.609413
vt 0.180909 0.593295
vt 0.182575 0.609413
vt 0.181869 0.607315
vt 0.180909 0.593295
vt 0.181869 0.607315
vt 0.181412 0.605451
vt 0.180909 0.593295
vt 0.181412 0.605451
vt 0.181075 0.603354
vt 0.181075 0.603354
vt 0.180908 0.600553
vt 0.180909 0.593295
vn 0.071365 -0.703102 -0.707499
vn 0.138316 -0.692942 -0.707601
vn 0.211947 -0.674047 -0.707629
vn 0.282167 -0.647806 -0.707622
vn 0.352429 -0.612417 -0.707629
vn 0.414875 -0.571961 -0.707629
vn 0.474741 -0.523376 -0.7076
vn 0.52861 -0.46886 -0.707631
vn 0.573516 -0.412795 -0.707587
vn 0.614904 -0.348211 -0.707561
vn 0.646307 -0.285698 -0.707576
vn 0.672967 -0.2155 -0.707584
vn 0.689499 -0.155173 -0.707469
vn 0.701285 -0.088282 -0.707394
vn 0.706765 -0.014099 -0.707308
vn 0.707104 -0.002127 -0.707107
vn -0.00001 0.707107 -0.707107
vn -0.707106 0.001149 -0.707107
vn -0.705336 0.029605 -0.708255
vn -0.668454 0.221338 -0.710055
vn -0.591316 0.383449 -0.709445
vn -0.487614 0.508907 -0.709399
vn -0.360046 0.605857 -0.709439
vn -0.194646 0.676793 -0.709975
vn -0.019455 0.706034 -0.70791
vn 0.022261 0.705954 -0.707907
vn 0.194624 0.678572 -0.708281
vn 0.306181 0.636203 -0.708166
vn 0.406638 0.576899 -0.708402
vn 0.494737 0.503368 -0.708418
vn 0.582316 0.398444 -0.708626
vn 0.641692 0.293159 -0.708724
vn 0.688429 0.153979 -0.708771
vn 0.707039 0.002141 -0.707172
vn 0.707107 0.000118 -0.707107
vn -0.000439 0.707107 -0.707107
vn -0.707107 -0.000037 -0.707107
vn -0.707087 -0.001361 -0.707126
vn -0.703147 -0.071619 -0.707428
vn -0.694394 -0.131723 -0.707436
vn -0.680208 -0.191912 -0.707451
vn -0.66029 -0.251997 -0.707471
vn -0.633979 -0.312271 -0.707501
vn -0.602745 -0.368981 -0.707497
vn -0.564049 -0.425784 -0.7075
vn -0.522319 -0.476034 -0.707513
vn -0.47341 -0.524701 -0.707511
vn -0.422957 -0.566174 -0.707499
vn -0.366235 -0.60442 -0.707495
vn -0.312592 -0.63387 -0.707456
vn -0.252493 -0.660143 -0.707431
vn -0.19906 -0.67819 -0.707413
vn -0.138957 -0.693019 -0.707401
vn -0.072295 -0.702969 -0.707536
vn -0.01173 -0.706883 -0.707233
vn 0.007793 -0.706991 -0.70718
vn 0.100989 -0.994888 0
vn 0.195749 -0.980654 0
vn 0.299959 -0.953952 0
vn 0.39934 -0.916803 0
vn 0.498774 -0.866732 0
vn 0.587159 -0.809472 0
vn 0.671854 -0.740683 0
vn 0.74812 -0.663564 0
vn 0.81163 -0.584171 0
vn 0.870161 -0.492767 0
vn 0.914625 -0.404302 0
vn 0.95236 -0.304977 0
vn 0.975602 -0.219547 0
vn 0.992168 -0.12491 0
vn 0.999803 -0.019863 0
vn 0.999995 -0.003007 0
vn -0.000014 1 0
vn -0.999999 0.001625 0
vn -0.999143 0.041402 0
vn -0.949362 0.314183 0
vn -0.839018 0.544103 0
vn -0.691833 0.722057 0
vn -0.510905 0.859637 0
vn -0.276203 0.961099 0
vn -0.027379 0.999625 0
vn 0.031314 0.99951 0
vn 0.27568 0.961249 0
vn 0.433675 0.901069 0
vn 0.576153 0.817342 0
vn 0.700922 0.713238 0
vn 0.825343 0.564632 0
vn 0.909538 0.41562 0
vn 0.975922 0.218119 0
vn 0.999995 0.003003 0
vn 1 0.000167 0
vn -0.000621 1 0
vn -1 -0.000052 0
vn -0.999998 -0.001926 0
vn -0.994852 -0.10134 0
vn -0.982479 -0.186371 0
vn -0.962428 -0.271536 0
vn -0.934272 -0.356561 0
vn -0.897083 -0.441862 0
vn -0.852878 -0.52211 0
vn -0.798133 -0.602481 0
vn -0.739093 -0.673603 0
vn -0.669889 -0.742461 0
vn -0.59848 -0.801138 0
vn -0.518224 -0.855245 0
vn -0.442285 -0.896875 0
vn -0.35725 -0.934009 0
vn -0.281629 -0.959523 0
vn -0.196597 -0.980484 0
vn -0.102328 -0.994751 0
vn -0.01661 -0.999862 0
vn 0.011038 -0.999939 0
vn 0.071365 -0.703102 0.707499
vn 0.138316 -0.692942 0.707601
vn 0.211947 -0.674047 0.707629
vn 0.282167 -0.647806 0.707622
vn 0.352429 -0.612417 0.707629
vn 0.414875 -0.571961 0.707629
vn 0.474741 -0.523376 0.7076
vn 0.52861 -0.46886 0.707631
vn 0.573516 -0.412795 0.707587
vn 0.614904 -0.348211 0.707561
vn 0.646307 -0.285698 0.707576
vn 0.672967 -0.2155 0.707584
vn 0.689499 -0.155173 0.707469
vn 0.701285 -0.088282 0.707394
vn 0.706765 -0.014099 0.707308
vn 0.707104 -0.002127 0.707107
vn -0.00001 0.707107 0.707107
vn -0.707106 0.001149 0.707107
vn -0.705336 0.029605 0.708255
vn -0.668454 0.221338 0.710055
vn -0.591316 0.383449 0.709445
vn -0.487614 0.508907 0.709399
vn -0.360046 0.605857 0.709439
vn -0.194646 0.676793 0.709975
vn -0.019455 0.706034 0.70791
vn 0.022261 0.705954 0.707907
vn 0.194624 0.678572 0.708281
vn 0.306181 0.636203 0.708166
vn 0.406638 0.576899 0.708402
vn 0.494737 0.503368 0.708418
vn 0.582316 0.398444 0.708626
vn 0.641692 0.293159 0.708724
vn 0.688429 0.153979 0.708771
vn 0.707039 0.002141 0.707172
vn 0.707107 0.000118 0.707107
vn -0.000439 0.707107 0.707107
vn -0.707107 -0.000037 0.707107
vn -0.707087 -0.001361 0.707126
vn -0.703147 -0.071619 0.707428
vn -0.694394 -0.131723 0.707436
vn -0.680208 -0.191912 0.707451
vn -0.66029 -0.251997 0.707471
vn -0.633979 -0.312271 0.707501
vn -0.602745 -0.368981 0.707497
vn -0.564049 -0.425784 0.7075
vn -0.522319 -0.476034 0.707513
vn -0.47341 -0.524701 0.707511
vn -0.422957 -0.566174 0.707499
vn -0.366235 -0.60442 0.707495
vn -0.312592 -0.63387 0.707456
vn -0.252493 -0.660143 0.707431
vn -0.19906 -0.67819 0.707413
vn -0.138957 -0.693019 0.707401
vn -0.072295 -0.702969 0.707536
vn -0.01173 -0.706883 0.707233
vn 0.007793 -0.706991 0.70718
vn 0 0 -1
vn 0 0 1
f 217/529/58 218/530/59 272/531/59 271/532/58
f 218/533/59 219/534/60 273/535/60 272/536/59
f 219/537/60 220/538/61 274/539/61 273/540/60
f 220/541/61 221/542/62 275/543/62 274/544/61
f 221/545/62 222/546/63 276/547/63 275/548/62
f 222/549/63 223/550/64 277/551/64 276/552/63
f 223/553/64 224/554/65 278/555/65 277/556/64
f 224/557/65 225/558/66 279/559/66 278/560/65
f 225/561/66 226/562/67 280/563/67 279/564/66
f 226/565/67 227/566/68 281/567/68 280/568/67
f 227/569/68 228/570/69 282/571/69 281/572/68
f 228/573/69 229/574/70 283/575/70 282/576/69
f 229/577/70 230/578/71 284/579/71 283/580/70
f 230/581/71 231/582/72 285/583/72 284/584/71
f 231/585/72 232/586/73 286/587/73 285/588/72
f 232/589/74 233/590/74 287/591/74 286/592/74
f 233/593/75 234/594/76 288/595/76 287/596/75
f 234/597/76 235/598/77 289/599/77 288/600/76
f 235/601/77 236/602/78 290/603/78 289/604/77
f 236/605/78 237/606/79 291/607/79 290/608/78
f 237/609/79 238/610/80 292/611/80 291/612/79
f 238/613/80 239/614/81 293/615/81 292/616/80
f 239/617/81 240/618/82 294/619/82 293/620/81
f 240/621/82 241/622/83 295/623/83 294/624/82
f 241/625/83 242/626/84 296/627/84 295/628/83
f 242/629/84 243/630/85 297/631/85 296/632/84
f 243/633/85 244/634/86 298/635/86 297/636/85
f 244/637/86 245/638/87 299/639/87 298/640/86
f 245/641/87 246/642/88 300/643/88 299/644/87
f 246/645/88 247/646/89 301/647/89 300/648/88
f 247/649/89 248/650/90 302/651/90 301/652/89
f 248/653/90 249/654/91 303/655/91 302/656/90
f 249/657/91 250/658/92 304/659/92 303/660/91
f 250/661/93 251/662/93 305/663/93 304/664/93
f 251/665/94 252/666/95 306/667/95 305/668/94
f 252/669/95 253/670/96 307/671/96 306/672/95
f 253/673/96 254/674/97 308/675/97 307/676/96
f 254/677/97 255/678/98 309/679/98 308/680/97
f 255/681/98 256/682/99 310/683/99 309/684/98
f 256/685/99 257/686/100 311/687/100 310/688/99
f 257/689/100 258/690/101 312/691/101 311/692/100
f 258/693/101 259/694/102 313/695/102 312/696/101
f 259/697/102 260/698/103 314/699/103 313/700/102
f 260/701/103 261/702/104 315/703/104 314/704/103
f 261/705/104 262/706/105 316/707/105 315/708/104
f 262/709/105 263/710/106 317/711/106 316/712/105
f 263/713/106 264/714/107 318/715/107 317/716/106
f 264/717/107 265/718/108 319/719/108 318/720/107
f 265/721/108 266/722/109 320/723/109 319/724/108
f 266/725/109 267/726/110 321/727/110 320/728/109
f 267/729/110 268/730/111 322/731/111 321/732/110
f 268/733/111 269/734/112 323/735/112 322/736/111
f 269/737/112 270/738/113 324/739/113 323/740/112
f 270/741/113 217/742/58 271/743/58 324/744/113
f 271/745/114 272/746/115 326/747/115 325/748/114
f 272/749/115 273/750/116 327/751/116 326/752/115
f 273/753/116 274/754/117 328/755/117 327/756/116
f 274/757/117 275/758/118 329/759/118 328/760/117
f 275/761/118 276/762/119 330/763/119 329/764/118
f 276/765/119 277/766/120 331/767/120 330/768/119
f 277/769/120 278/770/121 332/771/121 331/772/120
f 278/773/121 279/774/122 333/775/122 332/776/121
f 279/777/122 280/778/123 334/779/123 333/780/122
f 280/781/123 281/782/124 335/783/124 334/784/123
f 281/785/124 282/786/125 336/787/125 335/788/124
f 282/789/125 283/790/126 337/791/126 336/792/125
f 283/793/126 284/794/127 338/795/127 337/796/126
f 284/797/127 285/798/128 339/799/128 338/800/127
f 285/801/128 286/802/129 340/803/129 339/804/128
f 286/805/130 287/806/130 341/807/130 340/808/130
f 287/809/131 288/810/132 342/811/132 341/812/131
f 288/813/132 289/814/133 343/815/133 342/816/132
f 289/817/133 290/818/134 344/819/134 343/820/133
f 290/821/134 291/822/135 345/823/135 344/824/134
f 291/825/135 292/826/136 346/827/136 345/828/135
f 292/829/136 293/830/137 347/831/137 346/832/136
f 293/833/137 294/834/138 348/835/138 347/836/137
f 294/837/138 295/838/139 349/839/139 348/840/138
f 295/841/139 296/842/140 350/843/140 349/844/139
f 296/845/140 297/846/141 351/847/141 350/848/140
f 297/849/141 298/850/142 352/851/142 351/852/141
f 298/853/142 299/854/143 353/855/143 352/856/142
f 299/857/143 300/858/144 354/859/144 353/860/143
f 300/861/144 301/862/145 355/863/145 354/864/144
f 301/865/145 302/866/146 356/867/146 355/868/145
f 302/869/146 303/870/147 357/871/147 356/872/146
f 303/873/147 304/874/148 358/875/148 357/876/147
f 304/877/149 305/878/149 359/879/149 358/880/149
f 305/881/150 306/882/151 360/883/151 359/884/150
f 306/885/151 307/886/152 361/887/152 360/888/151
f 307/889/152 308/890/153 362/891/153 361/892/152
f 308/893/153 309/894/154 363/895/154 362/896/153
f 309/897/154 310/898/155 364/899/155 363/900/154
f 310/901/155 311/902/156 365/903/156 364/904/155
f 311/905/156 312/906/157 366/907/157 365/908/156
f 312/909/157 313/910/158 367/911/158 366/912/157
f 313/913/158 314/914/159 368/915/159 367/916/158
f 314/917/159 315/918/160 369/919/160 368/920/159
f 315/921/160 316/922/161 370/923/161 369/924/160
f 316/925/161 317/926/162 371/927/162 370/928/161
f 317/929/162 318/930/163 372/931/163 371/932/162
f 318/933/163 319/934/164 373/935/164 372/936/163
f 319/937/164 320/938/165 374/939/165 373/940/164
f 320/941/165 321/942/166 375/943/166 374/944/165
f 321/945/166 322/946/167 376/947/167 375/948/166
f 322/949/167 323/950/168 377/951/168 376/952/167
f 323/953/168 324/954/169 378/955/169 377/956/168
f 324/957/169 271/958/114 325/959/114 378/960/169
f 325/961/170 326/962/171 380/963/171 379/964/170
f 326/965/171 327/966/172 381/967/172 380/968/171
f 327/969/172 328/970/173 382/971/173 381/972/172
f 328/973/173 329/974/174 383/975/174 382/976/173
f 329/977/174 330/978/175 384/979/175 383/980/174
f 330/981/175 331/982/176 385/983/176 384/984/175
f 331/985/176 332/986/177 386/987/177 385/988/176
f 332/989/177 333/990/178 387/991/178 386/992/177
f 333/993/178 334/994/179 388/995/179 387/996/178
f 334/997/179 335/998/180 389/999/180 388/1000/179
f 335/1001/180 336/1002/181 390/1003/181 389/1004/180
f 336/1005/181 337/1006/182 391/1007/182 390/1008/181
f 337/1009/182 338/1010/183 392/1011/183 391/1012/182
f 338/1013/183 339/1014/184 393/1015/184 392/1016/183
f 339/1017/184 340/1018/185 394/1019/185 393/1020/184
f 340/1021/186 341/1022/186 395/1023/186 394/1024/186
f 341/1025/187 342/1026/188 396/1027/188 395/1028/187
f 342/1029/188 343/1030/189 397/1031/189 396/1032/188
f 343/1033/189 344/1034/190 398/1035/190 397/1036/189
f 344/1037/190 345/1038/191 399/1039/191 398/1040/190
f 345/1041/191 346/1042/192 400/1043/192 399/1044/191
f 346/1045/192 347/1046/193 401/1047/193 400/1048/192
f 347/1049/193 348/1050/194 402/1051/194 401/1052/193
f 348/1053/194 349/1054/195 403/1055/195 402/1056/194
f 349/1057/195 350/1058/196 404/1059/196 403/1060/195
f 350/1061/196 351/1062/197 405/1063/197 404/1064/196
f 351/1065/197 352/1066/198 406/1067/198 405/1068/197
f 352/1069/198 353/1070/199 407/1071/199 406/1072/198
f 353/1073/199 354/1074/200 408/1075/200 407/1076/199
f 354/1077/200 355/1078/201 409/1079/201 408/1080/200
f 355/1081/201 356/1082/202 410/1083/202 409/1084/201
f 356/1085/202 357/1086/203 411/1087/203 410/1088/202
f 357/1089/203 358/1090/204 412/1091/204 411/1092/203
f 358/1093/205 359/1094/205 413/1095/205 412/1096/205
f 359/1097/206 360/1098/207 414/1099/207 413/1100/206
f 360/1101/207 361/1102/208 415/1103/208 414/1104/207
f 361/1105/208 362/1106/209 416/1107/209 415/1108/208
f 362/1109/209 363/1110/210 417/1111/210 416/1112/209
f 363/1113/210 364/1114/211 418/1115/211 417/1116/210
f 364/1117/211 365/1118/212 419/1119/212 418/1120/211
f 365/1121/212 366/1122/213 420/1123/213 419/1124/212
f 366/1125/213 367/1126/214 421/1127/214 420/1128/213
f 367/1129/214 368/1130/215 422/1131/215 421/1132/214
f 368/1133/215 369/1134/216 423/1135/216 422/1136/215
f 369/1137/216 370/1138/217 424/1139/217 423/1140/216
f 370/1141/217 371/1142/218 425/1143/218 424/1144/217
f 371/1145/218 372/1146/219 426/1147/219 425/1148/218
f 372/1149/219 373/1150/220 427/1151/220 426/1152/219
f 373/1153/220 374/1154/221 428/1155/221 427/1156/220
f 374/1157/221 375/1158/222 429/1159/222 428/1160/221
f 375/1161/222 376/1162/223 430/1163/223 429/1164/222
f 376/1165/223 377/1166/224 431/1167/224 430/1168/223
f 377/1169/224 378/1170/225 432/1171/225 431/1172/224
f 378/1173/225 325/1174/170 379/1175/170 432/1176/225
f 434/1177/226 433/1178/226 486/1179/226
f 435/1180/226 434/1181/226 486/1182/226
f 436/1183/226 435/1184/226 486/1185/226
f 437/1186/226 436/1187/226 486/1188/226
f 438/1189/226 437/1190/226 486/1191/226
f 439/1192/226 438/1193/226 486/1194/226
f 440/1195/226 439/1196/226 486/1197/226
f 441/1198/226 440/1199/226 486/1200/226
f 442/1201/226 441/1202/226 486/1203/226
f 443/1204/226 442/1205/226 486/1206/226
f 444/1207/226 443/1208/226 486/1209/226
f 445/1210/226 444/1211/226 486/1212/226
f 446/1213/226 445/1214/226 486/1215/226
f 447/1216/226 446/1217/226 486/1218/226
f 448/1219/226 447/1220/226 486/1221/226
f 450/1222/226 449/1223/226 448/1224/226
f 451/1225/226 450/1226/226 448/1227/226
f 451/1228/226 448/1229/226 486/1230/226
f 452/1231/226 451/1232/226 486/1233/226
f 453/1234/226 452/1235/226 486/1236/226
f 454/1237/226 453/1238/226 486/1239/226
f 455/1240/226 454/1241/226 486/1242/226
f 456/1243/226 455/1244/226 486/1245/226
f 457/1246/226 456/1247/226 486/1248/226
f 458/1249/226 457/1250/226 486/1251/226
f 459/1252/226 458/1253/226 486/1254/226
f 460/1255/226 459/1256/226 486/1257/226
f 461/1258/226 460/1259/226 486/1260/226
f 462/1261/226 461/1262/226 486/1263/226
f 467/1264/226 466/1265/226 465/1266/226
f 467/1267/226 465/1268/226 464/1269/226
f 468/1270/226 467/1271/226 464/1272/226
f 468/1273/226 464/1274/226 463/1275/226
f 468/1276/226 463/1277/226 462/1278/226
f 468/1279/226 462/1280/226 486/1281/226
f 469/1282/226 468/1283/226 486/1284/226
f 470/1285/226 469/1286/226 486/1287/226
f 471/1288/226 470/1289/226 486/1290/226
f 472/1291/226 471/1292/226 486/1293/226
f 473/1294/226 472/1295/226 486/1296/226
f 474/1297/226 473/1298/226 486/1299/226
f 475/1300/226 474/1301/226 486/1302/226
f 476/1303/226 475/1304/226 486/1305/226
f 477/1306/226 476/1307/226 486/1308/226
f 478/1309/226 477/1310/226 486/1311/226
f 479/1312/226 478/1313/226 486/1314/226
f 480/1315/226 479/1316/226 486/1317/226
f 481/1318/226 480/1319/226 486/1320/226
f 482/1321/226 481/1322/226 486/1323/226
f 483/1324/226 482/1325/226 486/1326/226
f 484/1327/226 483/1328/226 486/1329/226
f 486/1330/226 485/1331/226 484/1332/226
f 540/1333/227 487/1334/227 488/1335/227
f 540/1336/227 488/1337/227 489/1338/227
f 540/1339/227 489/1340/227 490/1341/227
f 540/1342/227 490/1343/227 491/1344/227
f 540/1345/227 491/1346/227 492/1347/227
f 540/1348/227 492/1349/227 493/1350/227
f 540/1351/227 493/1352/227 494/1353/227
f 540/1354/227 494/1355/227 495/1356/227
f 540/1357/227 495/1358/227 496/1359/227
f 540/1360/227 496/1361/227 497/1362/227
f 540/1363/227 497/1364/227 498/1365/227
f 540/1366/227 498/1367/227 499/1368/227
f 540/1369/227 499/1370/227 500/1371/227
f 540/1372/227 500/1373/227 501/1374/227
f 540/1375/227 501/1376/227 502/1377/227
f 502/1378/227 503/1379/227 504/1380/227
f 502/1381/227 504/1382/227 505/1383/227
f 540/1384/227 502/1385/227 505/1386/227
f 540/1387/227 505/1388/227 506/1389/227
f 540/1390/227 506/1391/227 507/1392/227
f 540/1393/227 507/1394/227 508/1395/227
f 540/1396/227 508/1397/227 509/1398/227
f 540/1399/227 509/1400/227 510/1401/227
f 540/1402/227 510/1403/227 511/1404/227
f 540/1405/227 511/1406/227 512/1407/227
f 540/1408/227 512/1409/227 513/1410/227
f 540/1411/227 513/1412/227 514/1413/227
f 540/1414/227 514/1415/227 515/1416/227
f 540/1417/227 515/1418/227 516/1419/227
f 519/1420/227 520/1421/227 521/1422/227
f 518/1423/227 519/1424/227 521/1425/227
f 518/1426/227 521/1427/227 522/1428/227
f 517/1429/227 518/1430/227 522/1431/227
f 516/1432/227 517/1433/227 522/1434/227
f 540/1435/227 516/1436/227 522/1437/227
f 540/1438/227 522/1439/227 523/1440/227
f 540/1441/227 523/1442/227 524/1443/227
f 540/1444/227 524/1445/227 525/1446/227
f 540/1447/227 525/1448/227 526/1449/227
f 540/1450/227 526/1451/227 527/1452/227
f 540/1453/227 527/1454/227 528/1455/227
f 540/1456/227 528/1457/227 529/1458/227
f 540/1459/227 529/1460/227 530/1461/227
f 540/1462/227 530/1463/227 531/1464/227
f 540/1465/227 531/1466/227 532/1467/227
f 540/1468/227 532/1469/227 533/1470/227
f 540/1471/227 533/1472/227 534/1473/227
f 540/1474/227 534/1475/227 535/1476/227
f 540/1477/227 535/1478/227 536/1479/227
f 540/1480/227 536/1481/227 537/1482/227
f 540/1483/227 537/1484/227 538/1485/227
f 538/1486/227 539/1487/227 540/1488/227
