# AFL PRAIRIE signage V1 channel letter K (off), generated by tools/build-prairie-signage-v1.mjs
mtllib k_off.mtl
o K_body
usemtl letters_am
v 0.79 0.124998 0.8786
v 0.79 0.874621 0.8786
v 0.64 0.875009 0.8786
v 0.64 0.572485 0.8786
v 0.417363 0.874769 0.8786
v 0.231251 0.874815 0.8786
v 0.466176 0.555544 0.8786
v 0.22304 0.125544 0.8786
v 0.395363 0.125545 0.8786
v 0.563363 0.422632 0.8786
v 0.617363 0.350776 0.8786
v 0.639997 0.367394 0.8786
v 0.640442 0.125544 0.8786
v 0.79 0.124998 0.9996
v 0.79 0.874621 0.9996
v 0.64 0.875009 0.9996
v 0.64 0.572485 0.9996
v 0.417363 0.874769 0.9996
v 0.231251 0.874815 0.9996
v 0.466176 0.555544 0.9996
v 0.22304 0.125544 0.9996
v 0.395363 0.125545 0.9996
v 0.563363 0.422632 0.9996
v 0.617363 0.350776 0.9996
v 0.639997 0.367394 0.9996
v 0.640442 0.125544 0.9996
v 0.79 0.124998 0.8786
v 0.79 0.874621 0.8786
v 0.64 0.875009 0.8786
v 0.64 0.572485 0.8786
v 0.417363 0.874769 0.8786
v 0.231251 0.874815 0.8786
v 0.466176 0.555544 0.8786
v 0.22304 0.125544 0.8786
v 0.395363 0.125545 0.8786
v 0.563363 0.422632 0.8786
v 0.617363 0.350776 0.8786
v 0.639997 0.367394 0.8786
v 0.640442 0.125544 0.8786
v 0.79 0.124998 0.9996
v 0.79 0.874621 0.9996
v 0.64 0.875009 0.9996
v 0.64 0.572485 0.9996
v 0.417363 0.874769 0.9996
v 0.231251 0.874815 0.9996
v 0.466176 0.555544 0.9996
v 0.22304 0.125544 0.9996
v 0.395363 0.125545 0.9996
v 0.563363 0.422632 0.9996
v 0.617363 0.350776 0.9996
v 0.639997 0.367394 0.9996
v 0.640442 0.125544 0.9996
vt 0.812744 0.494854
vt 0.900591 0.494854
vt 0.900591 0.509033
vt 0.812744 0.509033
vt 0.267822 0.427471
vt 0.2854 0.427471
vt 0.2854 0.44165
vt 0.267822 0.44165
vt 0.789307 0.459697
vt 0.824759 0.459697
vt 0.824759 0.473877
vt 0.789307 0.473877
vt 0.201416 0.459697
vt 0.245411 0.459697
vt 0.245411 0.473877
vt 0.201416 0.473877
vt 0.834229 0.443584
vt 0.856039 0.443584
vt 0.856039 0.457764
vt 0.834229 0.457764
vt 0.153076 0.459697
vt 0.199528 0.459697
vt 0.199528 0.473877
vt 0.153076 0.473877
vt 0.690674 0.475811
vt 0.748562 0.475811
vt 0.748562 0.48999
vt 0.690674 0.48999
vt 0.023193 0.427471
vt 0.043387 0.427471
vt 0.043387 0.44165
vt 0.023193 0.44165
vt 0.553955 0.459697
vt 0.593951 0.459697
vt 0.593951 0.473877
vt 0.553955 0.473877
vt 0.19458 0.425537
vt 0.19458 0.415004
vt 0.20876 0.415004
vt 0.20876 0.425537
vt 0.564697 0.404053
vt 0.564697 0.400762
vt 0.578877 0.400762
vt 0.578877 0.404053
vt 0.454346 0.443584
vt 0.482688 0.443584
vt 0.482688 0.457764
vt 0.454346 0.457764
vt 0.535889 0.427471
vt 0.553415 0.427471
vt 0.553415 0.44165
vt 0.535889 0.44165
vt 0.717973 0.761963
vt 0.630127 0.761963
vt 0.630191 0.744437
vt 0.718019 0.744385
vt 0.717973 0.761963
vt 0.630191 0.744437
vt 0.682567 0.744385
vt 0.718019 0.744385
vt 0.630191 0.744437
vt 0.717996 0.696484
vt 0.717991 0.718295
vt 0.682567 0.744385
vt 0.680582 0.724015
vt 0.717996 0.696484
vt 0.682567 0.744385
vt 0.630191 0.695522
vt 0.680582 0.724015
vt 0.682567 0.744385
vt 0.630191 0.715716
vt 0.630191 0.695522
vt 0.682567 0.744385
vt 0.665006 0.735404
vt 0.630191 0.715716
vt 0.682567 0.744385
vt 0.656585 0.741732
vt 0.665006 0.735404
vt 0.682567 0.744385
vt 0.658533 0.744384
vt 0.656585 0.741732
vt 0.682567 0.744385
vt 0.630191 0.744437
vt 0.658533 0.744384
vt 0.682567 0.744385
vt 0.720035 0.713049
vt 0.719971 0.695522
vt 0.807817 0.695522
vt 0.720035 0.713049
vt 0.807817 0.695522
vt 0.807863 0.7131
vt 0.720035 0.713049
vt 0.807863 0.7131
vt 0.772411 0.7131
vt 0.772411 0.7131
vt 0.807835 0.739191
vt 0.80784 0.761001
vt 0.772411 0.7131
vt 0.80784 0.761001
vt 0.770425 0.73347
vt 0.772411 0.7131
vt 0.770425 0.73347
vt 0.720035 0.761963
vt 0.772411 0.7131
vt 0.720035 0.761963
vt 0.720035 0.741769
vt 0.772411 0.7131
vt 0.720035 0.741769
vt 0.75485 0.722081
vt 0.772411 0.7131
vt 0.75485 0.722081
vt 0.746429 0.715753
vt 0.772411 0.7131
vt 0.746429 0.715753
vt 0.748377 0.713101
vt 0.772411 0.7131
vt 0.748377 0.713101
vt 0.720035 0.713049
vn 1 0 0
vn 0.002586 0.999997 0
vn -1 0 0
vn 0.805182 0.593028 0
vn 0.000249 1 0
vn -0.80545 -0.592664 0
vn -0.870483 0.492199 0
vn 0.000007 -1 0
vn 0.870461 -0.492237 0
vn -0.799425 -0.600765 0
vn 0.591853 -0.806046 0
vn -0.999998 -0.001842 0
vn -0.00365 -0.999993 0
vn 0 0 -1
vn 0 0 1
f 1/1/1 2/2/1 15/3/1 14/4/1
f 2/5/2 3/6/2 16/7/2 15/8/2
f 3/9/3 4/10/3 17/11/3 16/12/3
f 4/13/4 5/14/4 18/15/4 17/16/4
f 5/17/5 6/18/5 19/19/5 18/20/5
f 6/21/6 7/22/6 20/23/6 19/24/6
f 7/25/7 8/26/7 21/27/7 20/28/7
f 8/29/8 9/30/8 22/31/8 21/32/8
f 9/33/9 10/34/9 23/35/9 22/36/9
f 10/37/10 11/38/10 24/39/10 23/40/10
f 11/41/11 12/42/11 25/43/11 24/44/11
f 12/45/12 13/46/12 26/47/12 25/48/12
f 13/49/13 1/50/13 14/51/13 26/52/13
f 28/53/14 27/54/14 39/55/14
f 29/56/14 28/57/14 39/58/14
f 30/59/14 29/60/14 39/61/14
f 32/62/14 31/63/14 30/64/14
f 33/65/14 32/66/14 30/67/14
f 34/68/14 33/69/14 30/70/14
f 35/71/14 34/72/14 30/73/14
f 36/74/14 35/75/14 30/76/14
f 37/77/14 36/78/14 30/79/14
f 38/80/14 37/81/14 30/82/14
f 39/83/14 38/84/14 30/85/14
f 52/86/15 40/87/15 41/88/15
f 52/89/15 41/90/15 42/91/15
f 52/92/15 42/93/15 43/94/15
f 43/95/15 44/96/15 45/97/15
f 43/98/15 45/99/15 46/100/15
f 43/101/15 46/102/15 47/103/15
f 43/104/15 47/105/15 48/106/15
f 43/107/15 48/108/15 49/109/15
f 43/110/15 49/111/15 50/112/15
f 43/113/15 50/114/15 51/115/15
f 43/116/15 51/117/15 52/118/15
o K_face_off
usemtl letters_am
v 0.7913 0.124156 0.8726
v 0.7913 0.8758 0.8726
v 0.638771 0.876309 0.8726
v 0.638033 0.579031 0.8726
v 0.418015 0.8763 0.8726
v 0.228556 0.876284 0.8726
v 0.464546 0.55563 0.8726
v 0.221413 0.124279 0.8726
v 0.395716 0.123699 0.8726
v 0.563799 0.42076 0.8726
v 0.616901 0.348787 0.8726
v 0.638692 0.364825 0.8726
v 0.639283 0.123694 0.8726
v 0.7925 0.12296 0.8738
v 0.7925 0.876996 0.8738
v 0.637572 0.877513 0.8738
v 0.637363 0.581069 0.8738
v 0.418621 0.8775 0.8738
v 0.226183 0.877483 0.8738
v 0.463119 0.555544 0.8738
v 0.219363 0.123086 0.8738
v 0.396415 0.122496 0.8738
v 0.563932 0.418558 0.8738
v 0.616647 0.34711 0.8738
v 0.637498 0.362456 0.8738
v 0.638086 0.12249 0.8738
v 0.7925 0.12296 0.8784
v 0.7925 0.876996 0.8784
v 0.637572 0.877513 0.8784
v 0.637363 0.581069 0.8784
v 0.418621 0.8775 0.8784
v 0.226183 0.877483 0.8784
v 0.463119 0.555544 0.8784
v 0.219363 0.123086 0.8784
v 0.396415 0.122496 0.8784
v 0.563932 0.418558 0.8784
v 0.616647 0.34711 0.8784
v 0.637498 0.362456 0.8784
v 0.638086 0.12249 0.8784
v 0.7913 0.124156 0.8796
v 0.7913 0.8758 0.8796
v 0.638771 0.876309 0.8796
v 0.638033 0.579031 0.8796
v 0.418015 0.8763 0.8796
v 0.228556 0.876284 0.8796
v 0.464546 0.55563 0.8796
v 0.221413 0.124279 0.8796
v 0.395716 0.123699 0.8796
v 0.563799 0.42076 0.8796
v 0.616901 0.348787 0.8796
v 0.638692 0.364825 0.8796
v 0.639283 0.123694 0.8796
v 0.7913 0.124156 0.8726
v 0.7913 0.8758 0.8726
v 0.638771 0.876309 0.8726
v 0.638033 0.579031 0.8726
v 0.418015 0.8763 0.8726
v 0.228556 0.876284 0.8726
v 0.464546 0.55563 0.8726
v 0.221413 0.124279 0.8726
v 0.395716 0.123699 0.8726
v 0.563799 0.42076 0.8726
v 0.616901 0.348787 0.8726
v 0.638692 0.364825 0.8726
v 0.639283 0.123694 0.8726
v 0.7913 0.124156 0.8796
v 0.7913 0.8758 0.8796
v 0.638771 0.876309 0.8796
v 0.638033 0.579031 0.8796
v 0.418015 0.8763 0.8796
v 0.228556 0.876284 0.8796
v 0.464546 0.55563 0.8796
v 0.221413 0.124279 0.8796
v 0.395716 0.123699 0.8796
v 0.563799 0.42076 0.8796
v 0.616901 0.348787 0.8796
v 0.638692 0.364825 0.8796
v 0.639283 0.123694 0.8796
vt 0.001361 0.334518
vt 0.089444 0.334518
vt 0.089584 0.334717
vt 0.001221 0.334717
vt 0.768939 0.34233
vt 0.786814 0.34233
vt 0.786955 0.342529
vt 0.768799 0.342529
vt 0.001362 0.32866
vt 0.036199 0.328679
vt 0.03596 0.328838
vt 0.001221 0.328857
vt 0.074463 0.328679
vt 0.117803 0.32866
vt 0.117874 0.328857
vt 0.074702 0.328838
vt 0.26594 0.34233
vt 0.288142 0.34233
vt 0.288421 0.342529
vt 0.265869 0.342529
vt 0.05228 0.354049
vt 0.098936 0.354049
vt 0.098845 0.354248
vt 0.052002 0.354248
vt 0.335205 0.354049
vt 0.393231 0.354049
vt 0.393471 0.354248
vt 0.335296 0.354248
vt 0.521968 0.350143
vt 0.542395 0.350143
vt 0.542477 0.350342
vt 0.521729 0.350342
vt 0.646811 0.354049
vt 0.686809 0.354049
vt 0.686592 0.354248
vt 0.646729 0.354248
vt 0.730713 0.354049
vt 0.741194 0.354049
vt 0.741335 0.354248
vt 0.73093 0.354248
vt 0.40517 0.340377
vt 0.40834 0.340377
vt 0.408063 0.340576
vt 0.405029 0.340576
vt 0.957275 0.334518
vt 0.985533 0.334518
vt 0.985674 0.334717
vt 0.957553 0.334717
vt 0.566791 0.350143
vt 0.584606 0.350143
vt 0.584746 0.350342
vt 0.56665 0.350342
vt 0.720947 0.377635
vt 0.809311 0.377635
vt 0.809311 0.378174
vt 0.720947 0.378174
vt 0.489502 0.362986
vt 0.507658 0.362986
vt 0.507658 0.363525
vt 0.489502 0.363525
vt 0.111084 0.367869
vt 0.145823 0.367869
vt 0.145823 0.368408
vt 0.111084 0.368408
vt 0.63501 0.372752
vt 0.678182 0.372752
vt 0.678182 0.373291
vt 0.63501 0.373291
vt 0.581299 0.365428
vt 0.60385 0.365428
vt 0.60385 0.365967
vt 0.581299 0.365967
vt 0.53833 0.372752
vt 0.585173 0.372752
vt 0.585173 0.373291
vt 0.53833 0.373291
vt 0.596436 0.375193
vt 0.65461 0.375193
vt 0.65461 0.375732
vt 0.596436 0.375732
vt 0.863525 0.365428
vt 0.884274 0.365428
vt 0.884274 0.365967
vt 0.863525 0.365967
vt 0.346924 0.370311
vt 0.386787 0.370311
vt 0.386787 0.37085
vt 0.346924 0.37085
vt 0.934326 0.360545
vt 0.944731 0.360545
vt 0.944731 0.361084
vt 0.934326 0.361084
vt 0.627197 0.358104
vt 0.630231 0.358104
vt 0.630231 0.358643
vt 0.627197 0.358643
vt 0.80249 0.367869
vt 0.830611 0.367869
vt 0.830611 0.368408
vt 0.80249 0.368408
vt 0.969971 0.362986
vt 0.988066 0.362986
vt 0.988066 0.363525
vt 0.969971 0.363525
vt 0.632568 0.336471
vt 0.720932 0.336471
vt 0.720792 0.33667
vt 0.632709 0.33667
vt 0.788818 0.34233
vt 0.806974 0.34233
vt 0.806833 0.342529
vt 0.788959 0.342529
vt 0.903564 0.330613
vt 0.938304 0.330632
vt 0.938543 0.330792
vt 0.903705 0.330811
vt 0.164545 0.328679
vt 0.207717 0.32866
vt 0.207646 0.328857
vt 0.164307 0.328838
vt 0.290283 0.34233
vt 0.312835 0.34233
vt 0.312557 0.342529
vt 0.290354 0.342529
vt 0.549072 0.354049
vt 0.595916 0.354049
vt 0.596007 0.354248
vt 0.54935 0.354248
vt 0.439788 0.352096
vt 0.497963 0.352096
vt 0.497723 0.352295
vt 0.439697 0.352295
vt 0.231689 0.332565
vt 0.252438 0.332565
vt 0.252355 0.332764
vt 0.231929 0.332764
vt 0.856689 0.354049
vt 0.896553 0.354049
vt 0.89677 0.354248
vt 0.856772 0.354248
vt 0.103 0.352096
vt 0.113405 0.352096
vt 0.113265 0.352295
vt 0.102783 0.352295
vt 0.244385 0.352096
vt 0.247419 0.352096
vt 0.247696 0.352295
vt 0.244525 0.352295
vt 0.2056 0.34233
vt 0.233721 0.34233
vt 0.23358 0.342529
vt 0.205322 0.342529
vt 0.181396 0.340377
vt 0.199492 0.340377
vt 0.199352 0.340576
vt 0.181537 0.340576
vt 0.179202 0.761963
vt 0.091119 0.761963
vt 0.091064 0.744148
vt 0.179262 0.744088
vt 0.179202 0.761963
vt 0.091064 0.744148
vt 0.179259 0.696016
vt 0.179261 0.718219
vt 0.144424 0.744002
vt 0.141682 0.723671
vt 0.179259 0.696016
vt 0.144424 0.744002
vt 0.091133 0.695179
vt 0.141682 0.723671
vt 0.144424 0.744002
vt 0.091065 0.715605
vt 0.091133 0.695179
vt 0.144424 0.744002
vt 0.125877 0.735303
vt 0.091065 0.715605
vt 0.144424 0.744002
vt 0.117443 0.741526
vt 0.125877 0.735303
vt 0.144424 0.744002
vt 0.119322 0.744079
vt 0.117443 0.741526
vt 0.144424 0.744002
vt 0.119322 0.744079
vt 0.144424 0.744002
vt 0.179262 0.744088
vt 0.091064 0.744148
vt 0.119322 0.744079
vt 0.179262 0.744088
vt 0.180908 0.712994
vt 0.180962 0.695179
vt 0.269046 0.695179
vt 0.180908 0.712994
vt 0.269046 0.695179
vt 0.269105 0.713054
vt 0.234268 0.71314
vt 0.269104 0.738924
vt 0.269102 0.761126
vt 0.234268 0.71314
vt 0.269102 0.761126
vt 0.231526 0.733471
vt 0.234268 0.71314
vt 0.231526 0.733471
vt 0.180977 0.761963
vt 0.234268 0.71314
vt 0.180977 0.761963
vt 0.180909 0.741537
vt 0.234268 0.71314
vt 0.180909 0.741537
vt 0.215721 0.72184
vt 0.234268 0.71314
vt 0.215721 0.72184
vt 0.207286 0.715617
vt 0.234268 0.71314
vt 0.207286 0.715617
vt 0.209166 0.713063
vt 0.269105 0.713054
vt 0.234268 0.71314
vt 0.209166 0.713063
vt 0.269105 0.713054
vt 0.209166 0.713063
vt 0.180908 0.712994
vn 0.707107 0 -0.707107
vn 0.00236 0.707103 -0.707107
vn -0.788164 0.001256 -0.615464
vn 0.633982 0.468529 -0.615262
vn -0.000061 0.707107 -0.707107
vn -0.569499 -0.419131 -0.707107
vn -0.615993 0.347206 -0.707107
vn -0.002354 -0.707103 -0.707107
vn 0.615422 -0.348217 -0.707107
vn -0.568996 -0.419813 -0.707107
vn 0.419131 -0.569499 -0.707107
vn -0.707105 -0.001733 -0.707107
vn 0.002152 -0.707104 -0.707107
vn 1 0 0
vn 0.003338 0.999994 0
vn -1 0.000703 0
vn 0.804642 0.593761 0
vn -0.000087 1 0
vn -0.805393 -0.592741 0
vn -0.871146 0.491024 0
vn -0.003329 -0.999994 0
vn 0.870339 -0.492453 0
vn -0.804682 -0.593705 0
vn 0.592741 -0.805393 0
vn -0.999997 -0.002451 0
vn 0.003044 -0.999995 0
vn 0.707107 0 0.707107
vn 0.00236 0.707103 0.707107
vn -0.788164 0.001256 0.615464
vn 0.633982 0.468529 0.615262
vn -0.000061 0.707107 0.707107
vn -0.569499 -0.419131 0.707107
vn -0.615993 0.347206 0.707107
vn -0.002354 -0.707103 0.707107
vn 0.615422 -0.348217 0.707107
vn -0.568996 -0.419813 0.707107
vn 0.419131 -0.569499 0.707107
vn -0.707105 -0.001733 0.707107
vn 0.002152 -0.707104 0.707107
vn 0 0 -1
vn 0 0 1
f 53/119/16 54/120/16 67/121/16 66/122/16
f 54/123/17 55/124/17 68/125/17 67/126/17
f 55/127/18 56/128/18 69/129/18 68/130/18
f 56/131/19 57/132/19 70/133/19 69/134/19
f 57/135/20 58/136/20 71/137/20 70/138/20
f 58/139/21 59/140/21 72/141/21 71/142/21
f 59/143/22 60/144/22 73/145/22 72/146/22
f 60/147/23 61/148/23 74/149/23 73/150/23
f 61/151/24 62/152/24 75/153/24 74/154/24
f 62/155/25 63/156/25 76/157/25 75/158/25
f 63/159/26 64/160/26 77/161/26 76/162/26
f 64/163/27 65/164/27 78/165/27 77/166/27
f 65/167/28 53/168/28 66/169/28 78/170/28
f 66/171/29 67/172/29 80/173/29 79/174/29
f 67/175/30 68/176/30 81/177/30 80/178/30
f 68/179/31 69/180/31 82/181/31 81/182/31
f 69/183/32 70/184/32 83/185/32 82/186/32
f 70/187/33 71/188/33 84/189/33 83/190/33
f 71/191/34 72/192/34 85/193/34 84/194/34
f 72/195/35 73/196/35 86/197/35 85/198/35
f 73/199/36 74/200/36 87/201/36 86/202/36
f 74/203/37 75/204/37 88/205/37 87/206/37
f 75/207/38 76/208/38 89/209/38 88/210/38
f 76/211/39 77/212/39 90/213/39 89/214/39
f 77/215/40 78/216/40 91/217/40 90/218/40
f 78/219/41 66/220/41 79/221/41 91/222/41
f 79/223/42 80/224/42 93/225/42 92/226/42
f 80/227/43 81/228/43 94/229/43 93/230/43
f 81/231/44 82/232/44 95/233/44 94/234/44
f 82/235/45 83/236/45 96/237/45 95/238/45
f 83/239/46 84/240/46 97/241/46 96/242/46
f 84/243/47 85/244/47 98/245/47 97/246/47
f 85/247/48 86/248/48 99/249/48 98/250/48
f 86/251/49 87/252/49 100/253/49 99/254/49
f 87/255/50 88/256/50 101/257/50 100/258/50
f 88/259/51 89/260/51 102/261/51 101/262/51
f 89/263/52 90/264/52 103/265/52 102/266/52
f 90/267/53 91/268/53 104/269/53 103/270/53
f 91/271/54 79/272/54 92/273/54 104/274/54
f 106/275/55 105/276/55 117/277/55
f 107/278/55 106/279/55 117/280/55
f 110/281/55 109/282/55 108/283/55
f 111/284/55 110/285/55 108/286/55
f 112/287/55 111/288/55 108/289/55
f 113/290/55 112/291/55 108/292/55
f 114/293/55 113/294/55 108/295/55
f 115/296/55 114/297/55 108/298/55
f 116/299/55 115/300/55 108/301/55
f 116/302/55 108/303/55 107/304/55
f 117/305/55 116/306/55 107/307/55
f 130/308/56 118/309/56 119/310/56
f 130/311/56 119/312/56 120/313/56
f 121/314/56 122/315/56 123/316/56
f 121/317/56 123/318/56 124/319/56
f 121/320/56 124/321/56 125/322/56
f 121/323/56 125/324/56 126/325/56
f 121/326/56 126/327/56 127/328/56
f 121/329/56 127/330/56 128/331/56
f 121/332/56 128/333/56 129/334/56
f 120/335/56 121/336/56 129/337/56
f 120/338/56 129/339/56 130/340/56
