# AFL PRAIRIE signage V1 channel letter L (off), generated by tools/build-prairie-signage-v1.mjs
mtllib l_off.mtl
o L_body
usemtl letters_am
v 0.74 0.125 0.8786
v 0.74 0.875 0.8786
v 0.59 0.874973 0.8786
v 0.589934 0.275544 0.8786
v 0.26 0.274971 0.8786
v 0.26 0.125 0.8786
v 0.74 0.125 0.9996
v 0.74 0.875 0.9996
v 0.59 0.874973 0.9996
v 0.589934 0.275544 0.9996
v 0.26 0.274971 0.9996
v 0.26 0.125 0.9996
v 0.74 0.125 0.8786
v 0.74 0.875 0.8786
v 0.59 0.874973 0.8786
v 0.589934 0.275544 0.8786
v 0.26 0.274971 0.8786
v 0.26 0.125 0.8786
v 0.74 0.125 0.9996
v 0.74 0.875 0.9996
v 0.59 0.874973 0.9996
v 0.589934 0.275544 0.9996
v 0.26 0.274971 0.9996
v 0.26 0.125 0.9996
vt 0.365479 0.494854
vt 0.453369 0.494854
vt 0.453369 0.509033
vt 0.365479 0.509033
vt 0.383545 0.427471
vt 0.401123 0.427471
vt 0.401123 0.44165
vt 0.383545 0.44165
vt 0.431885 0.475811
vt 0.50213 0.475811
vt 0.50213 0.48999
vt 0.431885 0.48999
vt 0.635986 0.459697
vt 0.67465 0.459697
vt 0.67465 0.473877
vt 0.635986 0.473877
vt 0.440674 0.427471
vt 0.458249 0.427471
vt 0.458249 0.44165
vt 0.440674 0.44165
vt 0.925049 0.475811
vt 0.981299 0.475811
vt 0.981299 0.48999
vt 0.925049 0.48999
vt 0.267819 0.549561
vt 0.267822 0.567139
vt 0.179932 0.567139
vt 0.197573 0.549553
vt 0.267819 0.549561
vt 0.179932 0.567139
vt 0.197573 0.549553
vt 0.179932 0.567139
vt 0.179932 0.510889
vt 0.179932 0.510889
vt 0.197506 0.510889
vt 0.197573 0.549553
vt 0.269775 0.510889
vt 0.357666 0.510889
vt 0.357663 0.528467
vt 0.269775 0.510889
vt 0.357663 0.528467
vt 0.287417 0.528475
vt 0.269775 0.567139
vt 0.269775 0.510889
vt 0.287417 0.528475
vt 0.287417 0.528475
vt 0.28735 0.567139
vt 0.269775 0.567139
vn 1 0 0
vn -0.000182 1 0
vn -1 0.000111 0
vn -0.001735 0.999998 0
vn -1 0 0
vn 0 -1 0
vn 0 0 -1
vn 0 0 1
f 1/1/1 2/2/1 8/3/1 7/4/1
f 2/5/2 3/6/2 9/7/2 8/8/2
f 3/9/3 4/10/3 10/11/3 9/12/3
f 4/13/4 5/14/4 11/15/4 10/16/4
f 5/17/5 6/18/5 12/19/5 11/20/5
f 6/21/6 1/22/6 7/23/6 12/24/6
f 15/25/7 14/26/7 13/27/7
f 16/28/7 15/29/7 13/30/7
f 16/31/7 13/32/7 18/33/7
f 18/34/7 17/35/7 16/36/7
f 19/37/8 20/38/8 21/39/8
f 19/40/8 21/41/8 22/42/8
f 24/43/8 19/44/8 22/45/8
f 22/46/8 23/47/8 24/48/8
o L_face_off
usemtl letters_am
v 0.7413 0.124157 0.8726
v 0.741228 0.876301 0.8726
v 0.5887 0.876206 0.8726
v 0.588609 0.276344 0.8726
v 0.2587 0.276207 0.8726
v 0.2587 0.123697 0.8726
v 0.7425 0.122958 0.8738
v 0.742428 0.877502 0.8738
v 0.587501 0.877406 0.8738
v 0.587409 0.277544 0.8738
v 0.2575 0.277406 0.8738
v 0.2575 0.122496 0.8738
v 0.7425 0.122958 0.8784
v 0.742428 0.877502 0.8784
v 0.587501 0.877406 0.8784
v 0.587409 0.277544 0.8784
v 0.2575 0.277406 0.8784
v 0.2575 0.122496 0.8784
v 0.7413 0.124157 0.8796
v 0.741228 0.876301 0.8796
v 0.5887 0.876206 0.8796
v 0.588609 0.276344 0.8796
v 0.2587 0.276207 0.8796
v 0.2587 0.123697 0.8796
v 0.7413 0.124157 0.8726
v 0.741228 0.876301 0.8726
v 0.5887 0.876206 0.8726
v 0.588609 0.276344 0.8726
v 0.2587 0.276207 0.8726
v 0.2587 0.123697 0.8726
v 0.7413 0.124157 0.8796
v 0.741228 0.876301 0.8796
v 0.5887 0.876206 0.8796
v 0.588609 0.276344 0.8796
v 0.2587 0.276207 0.8796
v 0.2587 0.123697 0.8796
vt 0.904193 0.338424
vt 0.992335 0.338424
vt 0.992476 0.338623
vt 0.904053 0.338623
vt 0.823627 0.330612
vt 0.841501 0.330612
vt 0.841642 0.330811
vt 0.823486 0.330811
vt 0.451068 0.346237
vt 0.521365 0.346237
vt 0.521224 0.346436
vt 0.450928 0.346436
vt 0.457275 0.344284
vt 0.495937 0.344284
vt 0.496077 0.344482
vt 0.457416 0.344482
vt 0.969135 0.34233
vt 0.987007 0.34233
vt 0.987148 0.342529
vt 0.968994 0.342529
vt 0.83974 0.346237
vt 0.896295 0.346237
vt 0.896436 0.346436
vt 0.8396 0.346436
vt 0.272217 0.380076
vt 0.36064 0.380076
vt 0.36064 0.380615
vt 0.272217 0.380615
vt 0.609619 0.362986
vt 0.627775 0.362986
vt 0.627775 0.363525
vt 0.609619 0.363525
vt 0.074951 0.375193
vt 0.145248 0.375193
vt 0.145248 0.375732
vt 0.074951 0.375732
vt 0.510986 0.370311
vt 0.549648 0.370311
vt 0.549648 0.37085
vt 0.510986 0.37085
vt 0.689697 0.362986
vt 0.707851 0.362986
vt 0.707851 0.363525
vt 0.689697 0.363525
vt 0.716553 0.375193
vt 0.773389 0.375193
vt 0.773389 0.375732
vt 0.716553 0.375732
vt 0.666748 0.340377
vt 0.755171 0.340377
vt 0.755031 0.340576
vt 0.666889 0.340576
vt 0.477783 0.332565
vt 0.495939 0.332565
vt 0.495798 0.332764
vt 0.477924 0.332764
vt 0.180908 0.334518
vt 0.251205 0.334518
vt 0.251345 0.334717
vt 0.181049 0.334717
vt 0.440814 0.350143
vt 0.479476 0.350143
vt 0.479335 0.350342
vt 0.440674 0.350342
vt 0.609131 0.338424
vt 0.627284 0.338424
vt 0.627144 0.338623
vt 0.609271 0.338623
vt 0.898193 0.346237
vt 0.955029 0.346237
vt 0.954889 0.346436
vt 0.898334 0.346436
vt 0.718312 0.607361
vt 0.718323 0.625236
vt 0.630181 0.625244
vt 0.648015 0.607351
vt 0.718312 0.607361
vt 0.630181 0.625244
vt 0.648015 0.607351
vt 0.630181 0.625244
vt 0.630127 0.568689
vt 0.630127 0.568689
vt 0.647999 0.568689
vt 0.648015 0.607351
vt 0.720024 0.568689
vt 0.808166 0.568698
vt 0.808155 0.586572
vt 0.720024 0.568689
vt 0.808155 0.586572
vt 0.737859 0.586583
vt 0.719971 0.625244
vt 0.720024 0.568689
vt 0.737859 0.586583
vt 0.737859 0.586583
vt 0.737843 0.625244
vt 0.719971 0.625244
vn 0.707107 0.000068 -0.707107
vn -0.000439 0.707107 -0.707107
vn -0.707107 0.000108 -0.707107
vn -0.000295 0.707107 -0.707107
vn -0.707107 0 -0.707107
vn 0.000673 -0.707106 -0.707107
vn 1 0.000096 0
vn -0.000621 1 0
vn -1 0.000152 0
vn -0.000417 1 0
vn -1 0 0
vn 0.000951 -1 0
vn 0.707107 0.000068 0.707107
vn -0.000439 0.707107 0.707107
vn -0.707107 0.000108 0.707107
vn -0.000295 0.707107 0.707107
vn -0.707107 0 0.707107
vn 0.000673 -0.707106 0.707107
vn 0 0 -1
vn 0 0 1
f 25/49/9 26/50/9 32/51/9 31/52/9
f 26/53/10 27/54/10 33/55/10 32/56/10
f 27/57/11 28/58/11 34/59/11 33/60/11
f 28/61/12 29/62/12 35/63/12 34/64/12
f 29/65/13 30/66/13 36/67/13 35/68/13
f 30/69/14 25/70/14 31/71/14 36/72/14
f 31/73/15 32/74/15 38/75/15 37/76/15
f 32/77/16 33/78/16 39/79/16 38/80/16
f 33/81/17 34/82/17 40/83/17 39/84/17
f 34/85/18 35/86/18 41/87/18 40/88/18
f 35/89/19 36/90/19 42/91/19 41/92/19
f 36/93/20 31/94/20 37/95/20 42/96/20
f 37/97/21 38/98/21 44/99/21 43/100/21
f 38/101/22 39/102/22 45/103/22 44/104/22
f 39/105/23 40/106/23 46/107/23 45/108/23
f 40/109/24 41/110/24 47/111/24 46/112/24
f 41/113/25 42/114/25 48/115/25 47/116/25
f 42/117/26 37/118/26 43/119/26 48/120/26
f 51/121/27 50/122/27 49/123/27
f 52/124/27 51/125/27 49/126/27
f 52/127/27 49/128/27 54/129/27
f 54/130/27 53/131/27 52/132/27
f 55/133/28 56/134/28 57/135/28
f 55/136/28 57/137/28 58/138/28
f 60/139/28 55/140/28 58/141/28
f 58/142/28 59/143/28 60/144/28
