# AFL PRAIRIE signage V1 channel letter M (off), generated by tools/build-prairie-signage-v1.mjs
mtllib m_off.mtl
o M_body
usemtl letters_am
v 0.88 0.124998 0.8786
v 0.88 0.874621 0.8786
v 0.703363 0.874873 0.8786
v 0.499998 0.505729 0.8786
v 0.297363 0.874439 0.8786
v 0.119999 0.874978 0.8786
v 0.120442 0.125544 0.8786
v 0.269934 0.125544 0.8786
v 0.27 0.605544 0.8786
v 0.271363 0.610318 0.8786
v 0.448744 0.287544 0.8786
v 0.550953 0.286991 0.8786
v 0.729997 0.612793 0.8786
v 0.730442 0.125544 0.8786
v 0.88 0.124998 0.9996
v 0.88 0.874621 0.9996
v 0.703363 0.874873 0.9996
v 0.499998 0.505729 0.9996
v 0.297363 0.874439 0.9996
v 0.119999 0.874978 0.9996
v 0.120442 0.125544 0.9996
v 0.269934 0.125544 0.9996
v 0.27 0.605544 0.9996
v 0.271363 0.610318 0.9996
v 0.448744 0.287544 0.9996
v 0.550953 0.286991 0.9996
v 0.729997 0.612793 0.9996
v 0.730442 0.125544 0.9996
v 0.88 0.124998 0.8786
v 0.88 0.874621 0.8786
v 0.703363 0.874873 0.8786
v 0.499998 0.505729 0.8786
v 0.297363 0.874439 0.8786
v 0.119999 0.874978 0.8786
v 0.120442 0.125544 0.8786
v 0.269934 0.125544 0.8786
v 0.27 0.605544 0.8786
v 0.271363 0.610318 0.8786
v 0.448744 0.287544 0.8786
v 0.550953 0.286991 0.8786
v 0.729997 0.612793 0.8786
v 0.730442 0.125544 0.8786
v 0.88 0.124998 0.9996
v 0.88 0.874621 0.9996
v 0.703363 0.874873 0.9996
v 0.499998 0.505729 0.9996
v 0.297363 0.874439 0.9996
v 0.119999 0.874978 0.9996
v 0.120442 0.125544 0.9996
v 0.269934 0.125544 0.9996
v 0.27 0.605544 0.9996
v 0.271363 0.610318 0.9996
v 0.448744 0.287544 0.9996
v 0.550953 0.286991 0.9996
v 0.729997 0.612793 0.9996
v 0.730442 0.125544 0.9996
vt 0.634033 0.494854
vt 0.72188 0.494854
vt 0.72188 0.509033
vt 0.634033 0.509033
vt 0.949463 0.443584
vt 0.970163 0.443584
vt 0.970163 0.457764
vt 0.949463 0.457764
vt 0.001221 0.459697
vt 0.05061 0.459697
vt 0.05061 0.473877
vt 0.001221 0.473877
vt 0.05249 0.459697
vt 0.101794 0.459697
vt 0.101794 0.473877
vt 0.05249 0.473877
vt 0.927002 0.443584
vt 0.947787 0.443584
vt 0.947787 0.457764
vt 0.927002 0.457764
vt 0.179932 0.475811
vt 0.267756 0.475811
vt 0.267756 0.48999
vt 0.179932 0.48999
vt 0.631104 0.427471
vt 0.648622 0.427471
vt 0.648622 0.44165
vt 0.631104 0.44165
vt 0.866943 0.475811
vt 0.923193 0.475811
vt 0.923193 0.48999
vt 0.866943 0.48999
vt 0.212158 0.383057
vt 0.212158 0.382475
vt 0.226338 0.382475
vt 0.226338 0.383057
vt 0.292725 0.459697
vt 0.335885 0.459697
vt 0.335885 0.473877
vt 0.292725 0.473877
vt 0.033447 0.425537
vt 0.033447 0.413559
vt 0.047627 0.413559
vt 0.047627 0.425537
vt 0.247314 0.459697
vt 0.29088 0.459697
vt 0.29088 0.473877
vt 0.247314 0.473877
vt 0.750244 0.475811
vt 0.807344 0.475811
vt 0.807344 0.48999
vt 0.750244 0.48999
vt 0.573975 0.427471
vt 0.591501 0.427471
vt 0.591501 0.44165
vt 0.573975 0.44165
vt 0.366455 0.998738
vt 0.366455 0.910891
vt 0.383981 0.910955
vt 0.410987 0.955508
vt 0.387155 0.998767
vt 0.366455 0.998738
vt 0.455518 0.998779
vt 0.434733 0.998716
vt 0.410987 0.955508
vt 0.437947 0.910955
vt 0.455466 0.910955
vt 0.455518 0.998779
vt 0.437939 0.967205
vt 0.437947 0.910955
vt 0.455518 0.998779
vt 0.43778 0.967764
vt 0.437939 0.967205
vt 0.455518 0.998779
vt 0.43778 0.967764
vt 0.455518 0.998779
vt 0.410987 0.955508
vt 0.416993 0.929939
vt 0.43778 0.967764
vt 0.410987 0.955508
vt 0.416993 0.929939
vt 0.410987 0.955508
vt 0.366455 0.998738
vt 0.384034 0.968055
vt 0.405015 0.929875
vt 0.416993 0.929939
vt 0.384034 0.968055
vt 0.416993 0.929939
vt 0.366455 0.998738
vt 0.383981 0.910955
vt 0.384034 0.968055
vt 0.366455 0.998738
vt 0.528812 0.910955
vt 0.546338 0.910891
vt 0.546338 0.998738
vt 0.546338 0.998738
vt 0.525638 0.998767
vt 0.501807 0.955508
vt 0.501807 0.955508
vt 0.47806 0.998716
vt 0.457275 0.998779
vt 0.457275 0.998779
vt 0.457327 0.910955
vt 0.474846 0.910955
vt 0.457275 0.998779
vt 0.474846 0.910955
vt 0.474854 0.967205
vt 0.457275 0.998779
vt 0.474854 0.967205
vt 0.475013 0.967764
vt 0.501807 0.955508
vt 0.457275 0.998779
vt 0.475013 0.967764
vt 0.501807 0.955508
vt 0.475013 0.967764
vt 0.4958 0.929939
vt 0.546338 0.998738
vt 0.501807 0.955508
vt 0.4958 0.929939
vt 0.4958 0.929939
vt 0.507778 0.929875
vt 0.52876 0.968055
vt 0.546338 0.998738
vt 0.4958 0.929939
vt 0.52876 0.968055
vt 0.546338 0.998738
vt 0.52876 0.968055
vt 0.528812 0.910955
vn 1 0 0
vn 0.001423 0.999999 0
vn -0.875879 0.482531 0
vn 0.876372 0.481635 0
vn 0.003038 0.999995 0
vn -1 -0.000591 0
vn 0 -1 0
vn 1 -0.000139 0
vn 0.999996 -0.00295 0
vn 0.961559 -0.274598 0
vn -0.876383 -0.481616 0
vn -0.005402 -0.999985 0
vn 0.876383 -0.481616 0
vn -1 -0.000914 0
vn -0.00365 -0.999993 0
vn 0 0 -1
vn 0 0 1
f 1/1/1 2/2/1 16/3/1 15/4/1
f 2/5/2 3/6/2 17/7/2 16/8/2
f 3/9/3 4/10/3 18/11/3 17/12/3
f 4/13/4 5/14/4 19/15/4 18/16/4
f 5/17/5 6/18/5 20/19/5 19/20/5
f 6/21/6 7/22/6 21/23/6 20/24/6
f 7/25/7 8/26/7 22/27/7 21/28/7
f 8/29/8 9/30/9 23/31/9 22/32/8
f 9/33/9 10/34/10 24/35/10 23/36/9
f 10/37/11 11/38/11 25/39/11 24/40/11
f 11/41/12 12/42/12 26/43/12 25/44/12
f 12/45/13 13/46/13 27/47/13 26/48/13
f 13/49/14 14/50/14 28/51/14 27/52/14
f 14/53/15 1/54/15 15/55/15 28/56/15
f 30/57/16 29/58/16 42/59/16
f 32/60/16 31/61/16 30/62/16
f 34/63/16 33/64/16 32/65/16
f 36/66/16 35/67/16 34/68/16
f 37/69/16 36/70/16 34/71/16
f 38/72/16 37/73/16 34/74/16
f 38/75/16 34/76/16 32/77/16
f 39/78/16 38/79/16 32/80/16
f 39/81/16 32/82/16 30/83/16
f 41/84/16 40/85/16 39/86/16
f 41/87/16 39/88/16 30/89/16
f 42/90/16 41/91/16 30/92/16
f 56/93/17 43/94/17 44/95/17
f 44/96/17 45/97/17 46/98/17
f 46/99/17 47/100/17 48/101/17
f 48/102/17 49/103/17 50/104/17
f 48/105/17 50/106/17 51/107/17
f 48/108/17 51/109/17 52/110/17
f 46/111/17 48/112/17 52/113/17
f 46/114/17 52/115/17 53/116/17
f 44/117/17 46/118/17 53/119/17
f 53/120/17 54/121/17 55/122/17
f 44/123/17 53/124/17 55/125/17
f 44/126/17 55/127/17 56/128/17
o M_face_off
usemtl letters_am
v 0.8813 0.124156 0.8726
v 0.8813 0.875799 0.8726
v 0.702072 0.876131 0.8726
v 0.5 0.508425 0.8726
v 0.297834 0.8763 0.8726
v 0.118698 0.876206 0.8726
v 0.119283 0.1237 0.8726
v 0.270768 0.1237 0.8726
v 0.27208 0.604702 0.8726
v 0.448075 0.28623 0.8726
v 0.551724 0.285698 0.8726
v 0.727789 0.603761 0.8726
v 0.729283 0.123694 0.8726
v 0.8825 0.12296 0.8738
v 0.8825 0.876997 0.8738
v 0.701363 0.877332 0.8738
v 0.5 0.510917 0.8738
v 0.298544 0.877501 0.8738
v 0.117497 0.877406 0.8738
v 0.118084 0.1225 0.8738
v 0.271967 0.1225 0.8738
v 0.272504 0.603046 0.8738
v 0.447363 0.285034 0.8738
v 0.552431 0.284495 0.8738
v 0.727363 0.602101 0.8738
v 0.728085 0.12249 0.8738
v 0.8825 0.12296 0.8784
v 0.8825 0.876997 0.8784
v 0.701363 0.877332 0.8784
v 0.5 0.510917 0.8784
v 0.298544 0.877501 0.8784
v 0.117497 0.877406 0.8784
v 0.118084 0.1225 0.8784
v 0.271967 0.1225 0.8784
v 0.272504 0.603046 0.8784
v 0.447363 0.285034 0.8784
v 0.552431 0.284495 0.8784
v 0.727363 0.602101 0.8784
v 0.728085 0.12249 0.8784
v 0.8813 0.124156 0.8796
v 0.8813 0.875799 0.8796
v 0.702072 0.876131 0.8796
v 0.5 0.508425 0.8796
v 0.297834 0.8763 0.8796
v 0.118698 0.876206 0.8796
v 0.119283 0.1237 0.8796
v 0.270768 0.1237 0.8796
v 0.27208 0.604702 0.8796
v 0.448075 0.28623 0.8796
v 0.551724 0.285698 0.8796
v 0.727789 0.603761 0.8796
v 0.729283 0.123694 0.8796
v 0.8813 0.124156 0.8726
v 0.8813 0.875799 0.8726
v 0.702072 0.876131 0.8726
v 0.5 0.508425 0.8726
v 0.297834 0.8763 0.8726
v 0.118698 0.876206 0.8726
v 0.119283 0.1237 0.8726
v 0.270768 0.1237 0.8726
v 0.27208 0.604702 0.8726
v 0.448075 0.28623 0.8726
v 0.551724 0.285698 0.8726
v 0.727789 0.603761 0.8726
v 0.729283 0.123694 0.8726
v 0.8813 0.124156 0.8796
v 0.8813 0.875799 0.8796
v 0.702072 0.876131 0.8796
v 0.5 0.508425 0.8796
v 0.297834 0.8763 0.8796
v 0.118698 0.876206 0.8796
v 0.119283 0.1237 0.8796
v 0.270768 0.1237 0.8796
v 0.27208 0.604702 0.8796
v 0.448075 0.28623 0.8796
v 0.551724 0.285698 0.8796
v 0.727789 0.603761 0.8796
v 0.729283 0.123694 0.8796
vt 0.091693 0.346237
vt 0.179776 0.346237
vt 0.179916 0.346436
vt 0.091553 0.346436
vt 0.50722 0.330612
vt 0.528224 0.330612
vt 0.528307 0.330811
vt 0.50708 0.330811
vt 0.903648 0.356002
vt 0.952816 0.356002
vt 0.952561 0.356201
vt 0.903564 0.356201
vt 0.755127 0.354049
vt 0.804318 0.354049
vt 0.804401 0.354248
vt 0.755383 0.354248
vt 0.553062 0.330612
vt 0.574054 0.330612
vt 0.574195 0.330811
vt 0.552979 0.330811
vt 0.795307 0.350143
vt 0.883491 0.350143
vt 0.883632 0.350342
vt 0.795166 0.350342
vt 0.221576 0.340377
vt 0.239328 0.340377
vt 0.239469 0.340576
vt 0.221436 0.340576
vt 0.664447 0.328662
vt 0.720815 0.328687
vt 0.720621 0.328832
vt 0.664307 0.328857
vt 0.896729 0.328687
vt 0.939369 0.328662
vt 0.939452 0.328857
vt 0.896922 0.328832
vt 0.689292 0.338424
vt 0.701438 0.338424
vt 0.701522 0.338623
vt 0.689209 0.338623
vt 0.486656 0.328662
vt 0.529258 0.328687
vt 0.529064 0.328832
vt 0.486572 0.328857
vt 0.25415 0.328687
vt 0.310408 0.328662
vt 0.310549 0.328857
vt 0.254345 0.328832
vt 0.63808 0.332565
vt 0.655895 0.332565
vt 0.656035 0.332764
vt 0.637939 0.332764
vt 0.181885 0.377635
vt 0.270248 0.377635
vt 0.270248 0.378174
vt 0.181885 0.378174
vt 0.771729 0.365428
vt 0.792955 0.365428
vt 0.792955 0.365967
vt 0.771729 0.365967
vt 0.335205 0.372752
vt 0.384201 0.372752
vt 0.384201 0.373291
vt 0.335205 0.373291
vt 0.233643 0.372752
vt 0.282661 0.372752
vt 0.282661 0.373291
vt 0.233643 0.373291
vt 0.817627 0.365428
vt 0.838843 0.365428
vt 0.838843 0.365967
vt 0.817627 0.365967
vt 0.829346 0.382518
vt 0.917811 0.382518
vt 0.917811 0.383057
vt 0.829346 0.383057
vt 0.02124 0.360545
vt 0.039273 0.360545
vt 0.039273 0.361084
vt 0.02124 0.361084
vt 0.001221 0.372752
vt 0.057535 0.372752
vt 0.057535 0.373291
vt 0.001221 0.373291
vt 0.814697 0.372752
vt 0.857226 0.372752
vt 0.857226 0.373291
vt 0.814697 0.373291
vt 0.567139 0.360545
vt 0.579451 0.360545
vt 0.579451 0.361084
vt 0.567139 0.361084
vt 0.001221 0.370311
vt 0.043712 0.370311
vt 0.043712 0.37085
vt 0.001221 0.37085
vt 0.117432 0.372752
vt 0.173636 0.372752
vt 0.173636 0.373291
vt 0.117432 0.373291
vt 0.849854 0.362986
vt 0.867949 0.362986
vt 0.867949 0.363525
vt 0.849854 0.363525
vt 0.27124 0.346237
vt 0.359604 0.346237
vt 0.359464 0.346436
vt 0.27138 0.346436
vt 0.139893 0.332565
vt 0.16112 0.332565
vt 0.161036 0.332764
vt 0.140033 0.332764
vt 0.001221 0.352096
vt 0.050217 0.352096
vt 0.050473 0.352295
vt 0.001304 0.352295
vt 0.802258 0.356002
vt 0.851276 0.356002
vt 0.851193 0.356201
vt 0.802002 0.356201
vt 0.185791 0.332565
vt 0.207007 0.332565
vt 0.206867 0.332764
vt 0.185874 0.332764
vt 0.723389 0.338424
vt 0.811854 0.338424
vt 0.811714 0.338623
vt 0.723529 0.338623
vt 0.677979 0.332565
vt 0.696012 0.332565
vt 0.695871 0.332764
vt 0.678119 0.332764
vt 0.780518 0.328662
vt 0.836832 0.328687
vt 0.837026 0.328832
vt 0.780658 0.328857
vt 0.001415 0.326734
vt 0.043944 0.326709
vt 0.043861 0.326904
vt 0.001221 0.326879
vt 0.376709 0.340377
vt 0.389022 0.340377
vt 0.388938 0.340576
vt 0.376792 0.340576
vt 0.575439 0.328662
vt 0.617931 0.328687
vt 0.618125 0.328832
vt 0.575523 0.328857
vt 0.31245 0.328687
vt 0.368655 0.328662
vt 0.368514 0.328857
vt 0.312256 0.328832
vt 0.5979 0.332565
vt 0.615996 0.332565
vt 0.615856 0.332764
vt 0.598041 0.332764
vt 0.001221 0.998721
vt 0.001221 0.910637
vt 0.019035 0.910583
vt 0.045904 0.955669
vt 0.022224 0.998759
vt 0.001221 0.998721
vt 0.090588 0.998768
vt 0.069596 0.998779
vt 0.045904 0.955669
vt 0.072767 0.910584
vt 0.09052 0.910584
vt 0.090588 0.998768
vt 0.072614 0.966951
vt 0.072767 0.910584
vt 0.090588 0.998768
vt 0.072614 0.966951
vt 0.090588 0.998768
vt 0.045904 0.955669
vt 0.051989 0.92963
vt 0.072614 0.966951
vt 0.045904 0.955669
vt 0.051989 0.92963
vt 0.045904 0.955669
vt 0.001221 0.998721
vt 0.01921 0.966841
vt 0.039843 0.929568
vt 0.051989 0.92963
vt 0.01921 0.966841
vt 0.051989 0.92963
vt 0.001221 0.998721
vt 0.019035 0.910583
vt 0.01921 0.966841
vt 0.001221 0.998721
vt 0.164082 0.910583
vt 0.181897 0.910637
vt 0.181897 0.998721
vt 0.181897 0.998721
vt 0.160894 0.998759
vt 0.137213 0.955669
vt 0.137213 0.955669
vt 0.113522 0.998779
vt 0.092529 0.998768
vt 0.092529 0.998768
vt 0.092598 0.910584
vt 0.11035 0.910584
vt 0.092529 0.998768
vt 0.11035 0.910584
vt 0.110504 0.966951
vt 0.137213 0.955669
vt 0.092529 0.998768
vt 0.110504 0.966951
vt 0.137213 0.955669
vt 0.110504 0.966951
vt 0.131128 0.92963
vt 0.181897 0.998721
vt 0.137213 0.955669
vt 0.131128 0.92963
vt 0.131128 0.92963
vt 0.143275 0.929568
vt 0.163907 0.966841
vt 0.181897 0.998721
vt 0.131128 0.92963
vt 0.163907 0.966841
vt 0.181897 0.998721
vt 0.163907 0.966841
vt 0.164082 0.910583
vn 0.707107 0 -0.707107
vn 0.001307 0.707106 -0.707107
vn -0.619696 0.340554 -0.707107
vn 0.619696 0.340554 -0.707107
vn -0.00037 0.707107 -0.707107
vn -0.707107 -0.00055 -0.707107
vn 0 -0.707107 -0.707107
vn 0.827508 -0.001591 -0.561451
vn 0.990283 -0.001271 -0.139064
vn -0.724667 -0.399465 -0.561502
vn -0.867638 -0.477321 -0.139172
vn -0.003631 -0.707097 -0.707107
vn 0.724125 -0.39984 -0.561935
vn 0.867278 -0.47793 -0.139326
vn -0.827215 -0.00191 -0.561883
vn -0.99026 -0.001655 -0.139218
vn 0.002152 -0.707104 -0.707107
vn 1 0 0
vn 0.001849 0.999998 0
vn -0.876383 0.481616 0
vn 0.876383 0.481616 0
vn -0.000523 1 0
vn -1 -0.000778 0
vn 0 -1 0
vn 0.990283 -0.001271 0.139064
vn -0.867638 -0.477321 0.139172
vn -0.005135 -0.999987 0
vn 0.867278 -0.47793 0.139326
vn -0.99026 -0.001655 0.139218
vn 0.003044 -0.999995 0
vn 0.707107 0 0.707107
vn 0.001307 0.707106 0.707107
vn -0.619696 0.340554 0.707107
vn 0.619696 0.340554 0.707107
vn -0.00037 0.707107 0.707107
vn -0.707107 -0.00055 0.707107
vn 0 -0.707107 0.707107
vn 0.827508 -0.001591 0.561451
vn -0.724667 -0.399465 0.561502
vn -0.003631 -0.707097 0.707107
vn 0.724125 -0.39984 0.561935
vn -0.827215 -0.00191 0.561883
vn 0.002152 -0.707104 0.707107
vn 0 0 -1
vn 0 0 1
f 57/129/18 58/130/18 71/131/18 70/132/18
f 58/133/19 59/134/19 72/135/19 71/136/19
f 59/137/20 60/138/20 73/139/20 72/140/20
f 60/141/21 61/142/21 74/143/21 73/144/21
f 61/145/22 62/146/22 75/147/22 74/148/22
f 62/149/23 63/150/23 76/151/23 75/152/23
f 63/153/24 64/154/24 77/155/24 76/156/24
f 64/157/25 65/158/25 78/159/26 77/160/26
f 65/161/27 66/162/27 79/163/28 78/164/28
f 66/165/29 67/166/29 80/167/29 79/168/29
f 67/169/30 68/170/30 81/171/31 80/172/31
f 68/173/32 69/174/32 82/175/33 81/176/33
f 69/177/34 57/178/34 70/179/34 82/180/34
f 70/181/35 71/182/35 84/183/35 83/184/35
f 71/185/36 72/186/36 85/187/36 84/188/36
f 72/189/37 73/190/37 86/191/37 85/192/37
f 73/193/38 74/194/38 87/195/38 86/196/38
f 74/197/39 75/198/39 88/199/39 87/200/39
f 75/201/40 76/202/40 89/203/40 88/204/40
f 76/205/41 77/206/41 90/207/41 89/208/41
f 77/209/26 78/210/26 91/211/42 90/212/42
f 78/213/28 79/214/28 92/215/43 91/216/43
f 79/217/44 80/218/44 93/219/44 92/220/44
f 80/221/31 81/222/31 94/223/45 93/224/45
f 81/225/33 82/226/33 95/227/46 94/228/46
f 82/229/47 70/230/47 83/231/47 95/232/47
f 83/233/48 84/234/48 97/235/48 96/236/48
f 84/237/49 85/238/49 98/239/49 97/240/49
f 85/241/50 86/242/50 99/243/50 98/244/50
f 86/245/51 87/246/51 100/247/51 99/248/51
f 87/249/52 88/250/52 101/251/52 100/252/52
f 88/253/53 89/254/53 102/255/53 101/256/53
f 89/257/54 90/258/54 103/259/54 102/260/54
f 90/261/42 91/262/42 104/263/55 103/264/55
f 91/265/43 92/266/43 105/267/56 104/268/56
f 92/269/57 93/270/57 106/271/57 105/272/57
f 93/273/45 94/274/45 107/275/58 106/276/58
f 94/277/46 95/278/46 108/279/59 107/280/59
f 95/281/60 83/282/60 96/283/60 108/284/60
f 110/285/61 109/286/61 121/287/61
f 112/288/61 111/289/61 110/290/61
f 114/291/61 113/292/61 112/293/61
f 116/294/61 115/295/61 114/296/61
f 117/297/61 116/298/61 114/299/61
f 117/300/61 114/301/61 112/302/61
f 118/303/61 117/304/61 112/305/61
f 118/306/61 112/307/61 110/308/61
f 120/309/61 119/310/61 118/311/61
f 120/312/61 118/313/61 110/314/61
f 121/315/61 120/316/61 110/317/61
f 134/318/62 122/319/62 123/320/62
f 123/321/62 124/322/62 125/323/62
f 125/324/62 126/325/62 127/326/62
f 127/327/62 128/328/62 129/329/62
f 127/330/62 129/331/62 130/332/62
f 125/333/62 127/334/62 130/335/62
f 125/336/62 130/337/62 131/338/62
f 123/339/62 125/340/62 131/341/62
f 131/342/62 132/343/62 133/344/62
f 123/345/62 131/346/62 133/347/62
f 123/348/62 133/349/62 134/350/62
