# AFL PRAIRIE signage V1 channel letter N (off), generated by tools/build-prairie-signage-v1.mjs
mtllib n_off.mtl
o N_body
usemtl letters_nz
v 0.81 0.124998 0.8786
v 0.81 0.874622 0.8786
v 0.617363 0.874677 0.8786
v 0.34 0.361625 0.8786
v 0.34 0.875 0.8786
v 0.189999 0.874973 0.8786
v 0.190442 0.125544 0.8786
v 0.382656 0.124996 0.8786
v 0.659998 0.638308 0.8786
v 0.660442 0.125544 0.8786
v 0.81 0.124998 0.9996
v 0.81 0.874622 0.9996
v 0.617363 0.874677 0.9996
v 0.34 0.361625 0.9996
v 0.34 0.875 0.9996
v 0.189999 0.874973 0.9996
v 0.190442 0.125544 0.9996
v 0.382656 0.124996 0.9996
v 0.659998 0.638308 0.9996
v 0.660442 0.125544 0.9996
v 0.81 0.124998 0.8786
v 0.81 0.874622 0.8786
v 0.617363 0.874677 0.8786
v 0.34 0.361625 0.8786
v 0.34 0.875 0.8786
v 0.189999 0.874973 0.8786
v 0.190442 0.125544 0.8786
v 0.382656 0.124996 0.8786
v 0.659998 0.638308 0.8786
v 0.660442 0.125544 0.8786
v 0.81 0.124998 0.9996
v 0.81 0.874622 0.9996
v 0.617363 0.874677 0.9996
v 0.34 0.361625 0.9996
v 0.34 0.875 0.9996
v 0.189999 0.874973 0.9996
v 0.190442 0.125544 0.9996
v 0.382656 0.124996 0.9996
v 0.659998 0.638308 0.9996
v 0.660442 0.125544 0.9996
vt 0.549072 0.462139
vt 0.636919 0.462139
vt 0.636919 0.476318
vt 0.549072 0.476318
vt 0.306396 0.348857
vt 0.328971 0.348857
vt 0.328971 0.363037
vt 0.306396 0.363037
vt 0.359131 0.397197
vt 0.427478 0.397197
vt 0.427478 0.411377
vt 0.359131 0.411377
vt 0.127686 0.381084
vt 0.187847 0.381084
vt 0.187847 0.395264
vt 0.127686 0.395264
vt 0.808838 0.348857
vt 0.826416 0.348857
vt 0.826416 0.363037
vt 0.808838 0.363037
vt 0.817139 0.462139
vt 0.904962 0.462139
vt 0.904962 0.476318
vt 0.817139 0.476318
vt 0.330811 0.348857
vt 0.353336 0.348857
vt 0.353336 0.363037
vt 0.330811 0.363037
vt 0.288818 0.397197
vt 0.357191 0.397197
vt 0.357191 0.411377
vt 0.288818 0.411377
vt 0.189697 0.381084
vt 0.249787 0.381084
vt 0.249787 0.395264
vt 0.189697 0.395264
vt 0.94458 0.348857
vt 0.962106 0.348857
vt 0.962106 0.363037
vt 0.94458 0.363037
vt 0.178911 0.831787
vt 0.091065 0.831787
vt 0.091129 0.814261
vt 0.118794 0.776709
vt 0.178918 0.809213
vt 0.178911 0.831787
vt 0.178952 0.759131
vt 0.178956 0.776709
vt 0.118794 0.776709
vt 0.091129 0.759183
vt 0.178952 0.759131
vt 0.118794 0.776709
vt 0.091129 0.759183
vt 0.118794 0.776709
vt 0.178911 0.831787
vt 0.151218 0.814209
vt 0.091064 0.781708
vt 0.091129 0.759183
vt 0.151218 0.814209
vt 0.091129 0.759183
vt 0.178911 0.831787
vt 0.091129 0.814261
vt 0.151218 0.814209
vt 0.178911 0.831787
vt 0.180972 0.776657
vt 0.180908 0.759131
vt 0.268755 0.759131
vt 0.268755 0.759131
vt 0.268761 0.781705
vt 0.208638 0.814209
vt 0.208638 0.814209
vt 0.268799 0.814209
vt 0.268796 0.831787
vt 0.208638 0.814209
vt 0.268796 0.831787
vt 0.180972 0.831735
vt 0.268755 0.759131
vt 0.208638 0.814209
vt 0.180972 0.831735
vt 0.180972 0.831735
vt 0.180908 0.80921
vt 0.241062 0.776709
vt 0.268755 0.759131
vt 0.180972 0.831735
vt 0.241062 0.776709
vt 0.268755 0.759131
vt 0.241062 0.776709
vt 0.180972 0.776657
vn 1 0 0
vn 0.000286 1 0
vn -0.879679 0.475567 0
vn -0.000182 1 0
vn -1 -0.000591 0
vn -0.002847 -0.999996 0
vn 0.879796 -0.475352 0
vn -1 -0.000867 0
vn -0.00365 -0.999993 0
vn 0 0 -1
vn 0 0 1
f 1/1/1 2/2/1 12/3/1 11/4/1
f 2/5/2 3/6/2 13/7/2 12/8/2
f 3/9/3 4/10/3 14/11/3 13/12/3
f 4/13/1 5/14/1 15/15/1 14/16/1
f 5/17/4 6/18/4 16/19/4 15/20/4
f 6/21/5 7/22/5 17/23/5 16/24/5
f 7/25/6 8/26/6 18/27/6 17/28/6
f 8/29/7 9/30/7 19/31/7 18/32/7
f 9/33/8 10/34/8 20/35/8 19/36/8
f 10/37/9 1/38/9 11/39/9 20/40/9
f 22/41/10 21/42/10 30/43/10
f 24/44/10 23/45/10 22/46/10
f 26/47/10 25/48/10 24/49/10
f 27/50/10 26/51/10 24/52/10
f 27/53/10 24/54/10 22/55/10
f 29/56/10 28/57/10 27/58/10
f 29/59/10 27/60/10 22/61/10
f 30/62/10 29/63/10 22/64/10
f 40/65/11 31/66/11 32/67/11
f 32/68/11 33/69/11 34/70/11
f 34/71/11 35/72/11 36/73/11
f 34/74/11 36/75/11 37/76/11
f 32/77/11 34/78/11 37/79/11
f 37/80/11 38/81/11 39/82/11
f 32/83/11 37/84/11 39/85/11
f 32/86/11 39/87/11 40/88/11
o N_face_off
usemtl letters_nz
v 0.8113 0.124156 0.8726
v 0.8113 0.875799 0.8726
v 0.616567 0.876302 0.8726
v 0.342089 0.369881 0.8726
v 0.341228 0.876301 0.8726
v 0.188698 0.876206 0.8726
v 0.189283 0.1237 0.8726
v 0.383376 0.1237 0.8726
v 0.657775 0.62987 0.8726
v 0.659283 0.123694 0.8726
v 0.8125 0.12296 0.8738
v 0.8125 0.876996 0.8738
v 0.615853 0.877504 0.8738
v 0.342501 0.371512 0.8738
v 0.342428 0.877502 0.8738
v 0.187497 0.877406 0.8738
v 0.188084 0.1225 0.8738
v 0.384091 0.1225 0.8738
v 0.657363 0.628235 0.8738
v 0.658085 0.12249 0.8738
v 0.8125 0.12296 0.8784
v 0.8125 0.876996 0.8784
v 0.615853 0.877504 0.8784
v 0.342501 0.371512 0.8784
v 0.342428 0.877502 0.8784
v 0.187497 0.877406 0.8784
v 0.188084 0.1225 0.8784
v 0.384091 0.1225 0.8784
v 0.657363 0.628235 0.8784
v 0.658085 0.12249 0.8784
v 0.8113 0.124156 0.8796
v 0.8113 0.875799 0.8796
v 0.616567 0.876302 0.8796
v 0.342089 0.369881 0.8796
v 0.341228 0.876301 0.8796
v 0.188698 0.876206 0.8796
v 0.189283 0.1237 0.8796
v 0.383376 0.1237 0.8796
v 0.657775 0.62987 0.8796
v 0.659283 0.123694 0.8796
v 0.8113 0.124156 0.8726
v 0.8113 0.875799 0.8726
v 0.616567 0.876302 0.8726
v 0.342089 0.369881 0.8726
v 0.341228 0.876301 0.8726
v 0.188698 0.876206 0.8726
v 0.189283 0.1237 0.8726
v 0.383376 0.1237 0.8726
v 0.657775 0.62987 0.8726
v 0.659283 0.123694 0.8726
v 0.8113 0.124156 0.8796
v 0.8113 0.875799 0.8796
v 0.616567 0.876302 0.8796
v 0.342089 0.369881 0.8796
v 0.341228 0.876301 0.8796
v 0.188698 0.876206 0.8796
v 0.189283 0.1237 0.8796
v 0.383376 0.1237 0.8796
v 0.657775 0.62987 0.8796
v 0.659283 0.123694 0.8796
vt 0.256732 0.232955
vt 0.344815 0.232955
vt 0.344955 0.233154
vt 0.256592 0.233154
vt 0.51308 0.236862
vt 0.5359 0.236862
vt 0.535984 0.237061
vt 0.512939 0.237061
vt 0.139977 0.225147
vt 0.207479 0.225172
vt 0.207288 0.225316
vt 0.139893 0.225342
vt 0.440186 0.227125
vt 0.499532 0.2271
vt 0.499672 0.227295
vt 0.440377 0.227269
vt 0.329486 0.242721
vt 0.347361 0.242721
vt 0.347502 0.24292
vt 0.329346 0.24292
vt 0.521869 0.242721
vt 0.610054 0.242721
vt 0.610194 0.24292
vt 0.521729 0.24292
vt 0.480365 0.231002
vt 0.50311 0.231002
vt 0.503194 0.231201
vt 0.480225 0.231201
vt 0.68441 0.2271
vt 0.751882 0.227125
vt 0.751691 0.227269
vt 0.684326 0.227295
vt 0.196045 0.227125
vt 0.255363 0.2271
vt 0.255503 0.227295
vt 0.196236 0.227269
vt 0.771381 0.231002
vt 0.789196 0.231002
vt 0.789336 0.231201
vt 0.77124 0.231201
vt 0.818604 0.279002
vt 0.906967 0.279002
vt 0.906967 0.279541
vt 0.818604 0.279541
vt 0.153564 0.261912
vt 0.176609 0.261912
vt 0.176609 0.262451
vt 0.153564 0.262451
vt 0.7229 0.276561
vt 0.790296 0.276561
vt 0.790296 0.2771
vt 0.7229 0.2771
vt 0.562256 0.271678
vt 0.621552 0.271678
vt 0.621552 0.272217
vt 0.562256 0.272217
vt 0.021729 0.259471
vt 0.039884 0.259471
vt 0.039884 0.26001
vt 0.021729 0.26001
vt 0.276611 0.279002
vt 0.365077 0.279002
vt 0.365077 0.279541
vt 0.276611 0.279541
vt 0.203369 0.261912
vt 0.226339 0.261912
vt 0.226339 0.262451
vt 0.203369 0.262451
vt 0.861572 0.276561
vt 0.928937 0.276561
vt 0.928937 0.2771
vt 0.861572 0.2771
vt 0.684326 0.271678
vt 0.743593 0.271678
vt 0.743593 0.272217
vt 0.684326 0.272217
vt 0.422119 0.259471
vt 0.440215 0.259471
vt 0.440215 0.26001
vt 0.422119 0.26001
vt 0.346436 0.232955
vt 0.434799 0.232955
vt 0.434659 0.233154
vt 0.346576 0.233154
vt 0.43042 0.231002
vt 0.453465 0.231002
vt 0.45338 0.231201
vt 0.43056 0.231201
vt 0.001221 0.225147
vt 0.068616 0.225172
vt 0.068807 0.225316
vt 0.001305 0.225342
vt 0.562447 0.227125
vt 0.621743 0.2271
vt 0.621602 0.227295
vt 0.562256 0.227269
vt 0.546143 0.240768
vt 0.564299 0.240768
vt 0.564158 0.240967
vt 0.546283 0.240967
vt 0.001221 0.238815
vt 0.089686 0.238815
vt 0.089546 0.239014
vt 0.001361 0.239014
vt 0.562744 0.236862
vt 0.585714 0.236862
vt 0.58563 0.237061
vt 0.562885 0.237061
vt 0.822998 0.2271
vt 0.890363 0.227125
vt 0.890554 0.227269
vt 0.823082 0.227295
vt 0.318307 0.227125
vt 0.377574 0.2271
vt 0.377433 0.227295
vt 0.318115 0.227269
vt 0.731201 0.231002
vt 0.749297 0.231002
vt 0.749157 0.231201
vt 0.731342 0.231201
vt 0.806155 0.908936
vt 0.718072 0.908936
vt 0.718018 0.891121
vt 0.746868 0.85395
vt 0.806214 0.886115
vt 0.806155 0.908936
vt 0.806203 0.835974
vt 0.806214 0.853849
vt 0.746868 0.85395
vt 0.718018 0.836043
vt 0.806203 0.835974
vt 0.746868 0.85395
vt 0.718018 0.836043
vt 0.746868 0.85395
vt 0.806155 0.908936
vt 0.777335 0.890944
vt 0.718018 0.858788
vt 0.718018 0.836043
vt 0.777335 0.890944
vt 0.718018 0.836043
vt 0.806155 0.908936
vt 0.718018 0.891121
vt 0.777335 0.890944
vt 0.806155 0.908936
vt 0.807861 0.853789
vt 0.807916 0.835974
vt 0.895999 0.835974
vt 0.895999 0.835974
vt 0.896058 0.858795
vt 0.836711 0.89096
vt 0.836711 0.89096
vt 0.896058 0.891061
vt 0.896046 0.908936
vt 0.836711 0.89096
vt 0.896046 0.908936
vt 0.807862 0.908867
vt 0.895999 0.835974
vt 0.836711 0.89096
vt 0.807862 0.908867
vt 0.807862 0.908867
vt 0.807862 0.886122
vt 0.867179 0.853966
vt 0.895999 0.835974
vt 0.807862 0.908867
vt 0.867179 0.853966
vt 0.895999 0.835974
vt 0.867179 0.853966
vt 0.807861 0.853789
vn 0.707107 0 -0.707107
vn 0.001825 0.707104 -0.707107
vn -0.72983 0.394921 -0.558019
vn -0.87135 0.470889 -0.137886
vn 0.829732 0.000765 -0.558161
vn 0.990447 0.000302 -0.137896
vn -0.000439 0.707107 -0.707107
vn -0.707107 -0.00055 -0.707107
vn 0 -0.707107 -0.707107
vn 0.72948 -0.394815 -0.558552
vn 0.871285 -0.470954 -0.138074
vn -0.829372 -0.001828 -0.558694
vn -0.990419 -0.001573 -0.138084
vn 0.002152 -0.707104 -0.707107
vn 1 0 0
vn 0.002581 0.999997 0
vn -0.87135 0.470889 0.137886
vn 0.990447 0.000302 0.137896
vn -0.000621 1 0
vn -1 -0.000778 0
vn 0 -1 0
vn 0.871285 -0.470954 0.138074
vn -0.990419 -0.001573 0.138084
vn 0.003044 -0.999995 0
vn 0.707107 0 0.707107
vn 0.001825 0.707104 0.707107
vn -0.72983 0.394921 0.558019
vn 0.829732 0.000765 0.558161
vn -0.000439 0.707107 0.707107
vn -0.707107 -0.00055 0.707107
vn 0 -0.707107 0.707107
vn 0.72948 -0.394815 0.558552
vn -0.829372 -0.001828 0.558694
vn 0.002152 -0.707104 0.707107
vn 0 0 -1
vn 0 0 1
f 41/89/12 42/90/12 52/91/12 51/92/12
f 42/93/13 43/94/13 53/95/13 52/96/13
f 43/97/14 44/98/14 54/99/15 53/100/15
f 44/101/16 45/102/16 55/103/17 54/104/17
f 45/105/18 46/106/18 56/107/18 55/108/18
f 46/109/19 47/110/19 57/111/19 56/112/19
f 47/113/20 48/114/20 58/115/20 57/116/20
f 48/117/21 49/118/21 59/119/22 58/120/22
f 49/121/23 50/122/23 60/123/24 59/124/24
f 50/125/25 41/126/25 51/127/25 60/128/25
f 51/129/26 52/130/26 62/131/26 61/132/26
f 52/133/27 53/134/27 63/135/27 62/136/27
f 53/137/15 54/138/15 64/139/28 63/140/28
f 54/141/17 55/142/17 65/143/29 64/144/29
f 55/145/30 56/146/30 66/147/30 65/148/30
f 56/149/31 57/150/31 67/151/31 66/152/31
f 57/153/32 58/154/32 68/155/32 67/156/32
f 58/157/22 59/158/22 69/159/33 68/160/33
f 59/161/24 60/162/24 70/163/34 69/164/34
f 60/165/35 51/166/35 61/167/35 70/168/35
f 61/169/36 62/170/36 72/171/36 71/172/36
f 62/173/37 63/174/37 73/175/37 72/176/37
f 63/177/28 64/178/28 74/179/38 73/180/38
f 64/181/29 65/182/29 75/183/39 74/184/39
f 65/185/40 66/186/40 76/187/40 75/188/40
f 66/189/41 67/190/41 77/191/41 76/192/41
f 67/193/42 68/194/42 78/195/42 77/196/42
f 68/197/33 69/198/33 79/199/43 78/200/43
f 69/201/34 70/202/34 80/203/44 79/204/44
f 70/205/45 61/206/45 71/207/45 80/208/45
f 82/209/46 81/210/46 90/211/46
f 84/212/46 83/213/46 82/214/46
f 86/215/46 85/216/46 84/217/46
f 87/218/46 86/219/46 84/220/46
f 87/221/46 84/222/46 82/223/46
f 89/224/46 88/225/46 87/226/46
f 89/227/46 87/228/46 82/229/46
f 90/230/46 89/231/46 82/232/46
f 100/233/47 91/234/47 92/235/47
f 92/236/47 93/237/47 94/238/47
f 94/239/47 95/240/47 96/241/47
f 94/242/47 96/243/47 97/244/47
f 92/245/47 94/246/47 97/247/47
f 97/248/47 98/249/47 99/250/47
f 92/251/47 97/252/47 99/253/47
f 92/254/47 99/255/47 100/256/47
