# AFL PRAIRIE signage V1 channel letter P (off), generated by tools/build-prairie-signage-v1.mjs
mtllib p_off.mtl
o P_body
usemtl letters_nz
v 0.77 0.124998 0.8786
v 0.77 0.874621 0.8786
v 0.623363 0.875 0.8786
v 0.621363 0.874973 0.8786
v 0.619363 0.87278 0.8786
v 0.591363 0.874995 0.8786
v 0.399363 0.874685 0.8786
v 0.377363 0.872016 0.8786
v 0.355363 0.866507 0.8786
v 0.333363 0.85787 0.8786
v 0.313363 0.846859 0.8786
v 0.29754 0.835544 0.8786
v 0.283363 0.822917 0.8786
v 0.271149 0.809544 0.8786
v 0.259371 0.793544 0.8786
v 0.250043 0.777544 0.8786
v 0.24197 0.759544 0.8786
v 0.236122 0.741544 0.8786
v 0.232278 0.723544 0.8786
v 0.230001 0.695544 0.8786
v 0.230006 0.603544 0.8786
v 0.231283 0.583544 0.8786
v 0.234839 0.563544 0.8786
v 0.240103 0.545544 0.8786
v 0.247518 0.527544 0.8786
v 0.257396 0.509544 0.8786
v 0.267363 0.495207 0.8786
v 0.279011 0.481544 0.8786
v 0.291461 0.469544 0.8786
v 0.305363 0.458539 0.8786
v 0.319363 0.449485 0.8786
v 0.335363 0.441204 0.8786
v 0.351363 0.434819 0.8786
v 0.369363 0.429647 0.8786
v 0.387363 0.426429 0.8786
v 0.407363 0.425019 0.8786
v 0.591363 0.425005 0.8786
v 0.619997 0.427253 0.8786
v 0.620442 0.125544 0.8786
v 0.77 0.124998 0.9996
v 0.77 0.874621 0.9996
v 0.623363 0.875 0.9996
v 0.621363 0.874973 0.9996
v 0.619363 0.87278 0.9996
v 0.591363 0.874995 0.9996
v 0.399363 0.874685 0.9996
v 0.377363 0.872016 0.9996
v 0.355363 0.866507 0.9996
v 0.333363 0.85787 0.9996
v 0.313363 0.846859 0.9996
v 0.29754 0.835544 0.9996
v 0.283363 0.822917 0.9996
v 0.271149 0.809544 0.9996
v 0.259371 0.793544 0.9996
v 0.250043 0.777544 0.9996
v 0.24197 0.759544 0.9996
v 0.236122 0.741544 0.9996
v 0.232278 0.723544 0.9996
v 0.230001 0.695544 0.9996
v 0.230006 0.603544 0.9996
v 0.231283 0.583544 0.9996
v 0.234839 0.563544 0.9996
v 0.240103 0.545544 0.9996
v 0.247518 0.527544 0.9996
v 0.257396 0.509544 0.9996
v 0.267363 0.495207 0.9996
v 0.279011 0.481544 0.9996
v 0.291461 0.469544 0.9996
v 0.305363 0.458539 0.9996
v 0.319363 0.449485 0.9996
v 0.335363 0.441204 0.9996
v 0.351363 0.434819 0.9996
v 0.369363 0.429647 0.9996
v 0.387363 0.426429 0.9996
v 0.407363 0.425019 0.9996
v 0.591363 0.425005 0.9996
v 0.619997 0.427253 0.9996
v 0.620442 0.125544 0.9996
v 0.595644 0.575544 0.8786
v 0.409363 0.575007 0.8786
v 0.401363 0.576271 0.8786
v 0.393363 0.58004 0.8786
v 0.389039 0.583544 0.8786
v 0.384293 0.589544 0.8786
v 0.38153 0.595544 0.8786
v 0.380035 0.603544 0.8786
v 0.380005 0.695544 0.8786
v 0.381243 0.703544 0.8786
v 0.384977 0.711544 0.8786
v 0.389363 0.716764 0.8786
v 0.395363 0.721184 0.8786
v 0.401363 0.723729 0.8786
v 0.409363 0.724993 0.8786
v 0.591363 0.724969 0.8786
v 0.599363 0.723501 0.8786
v 0.605363 0.720763 0.8786
v 0.611363 0.716053 0.8786
v 0.615023 0.711544 0.8786
v 0.618084 0.705544 0.8786
v 0.619654 0.699544 0.8786
v 0.619965 0.603544 0.8786
v 0.617725 0.593544 0.8786
v 0.612828 0.585544 0.8786
v 0.605363 0.579235 0.8786
v 0.595644 0.575544 0.9996
v 0.409363 0.575007 0.9996
v 0.401363 0.576271 0.9996
v 0.393363 0.58004 0.9996
v 0.389039 0.583544 0.9996
v 0.384293 0.589544 0.9996
v 0.38153 0.595544 0.9996
v 0.380035 0.603544 0.9996
v 0.380005 0.695544 0.9996
v 0.381243 0.703544 0.9996
v 0.384977 0.711544 0.9996
v 0.389363 0.716764 0.9996
v 0.395363 0.721184 0.9996
v 0.401363 0.723729 0.9996
v 0.409363 0.724993 0.9996
v 0.591363 0.724969 0.9996
v 0.599363 0.723501 0.9996
v 0.605363 0.720763 0.9996
v 0.611363 0.716053 0.9996
v 0.615023 0.711544 0.9996
v 0.618084 0.705544 0.9996
v 0.619654 0.699544 0.9996
v 0.619965 0.603544 0.9996
v 0.617725 0.593544 0.9996
v 0.612828 0.585544 0.9996
v 0.605363 0.579235 0.9996
v 0.77 0.124998 0.8786
v 0.77 0.874621 0.8786
v 0.623363 0.875 0.8786
v 0.621363 0.874973 0.8786
v 0.619363 0.87278 0.8786
v 0.591363 0.874995 0.8786
v 0.399363 0.874685 0.8786
v 0.377363 0.872016 0.8786
v 0.355363 0.866507 0.8786
v 0.333363 0.85787 0.8786
v 0.313363 0.846859 0.8786
v 0.29754 0.835544 0.8786
v 0.283363 0.822917 0.8786
v 0.271149 0.809544 0.8786
v 0.259371 0.793544 0.8786
v 0.250043 0.777544 0.8786
v 0.24197 0.759544 0.8786
v 0.236122 0.741544 0.8786
v 0.232278 0.723544 0.8786
v 0.230001 0.695544 0.8786
v 0.230006 0.603544 0.8786
v 0.231283 0.583544 0.8786
v 0.234839 0.563544 0.8786
v 0.240103 0.545544 0.8786
v 0.247518 0.527544 0.8786
v 0.257396 0.509544 0.8786
v 0.267363 0.495207 0.8786
v 0.279011 0.481544 0.8786
v 0.291461 0.469544 0.8786
v 0.305363 0.458539 0.8786
v 0.319363 0.449485 0.8786
v 0.335363 0.441204 0.8786
v 0.351363 0.434819 0.8786
v 0.369363 0.429647 0.8786
v 0.387363 0.426429 0.8786
v 0.407363 0.425019 0.8786
v 0.591363 0.425005 0.8786
v 0.619997 0.427253 0.8786
v 0.620442 0.125544 0.8786
v 0.595644 0.575544 0.8786
v 0.409363 0.575007 0.8786
v 0.401363 0.576271 0.8786
v 0.393363 0.58004 0.8786
v 0.389039 0.583544 0.8786
v 0.384293 0.589544 0.8786
v 0.38153 0.595544 0.8786
v 0.380035 0.603544 0.8786
v 0.380005 0.695544 0.8786
v 0.381243 0.703544 0.8786
v 0.384977 0.711544 0.8786
v 0.389363 0.716764 0.8786
v 0.395363 0.721184 0.8786
v 0.401363 0.723729 0.8786
v 0.409363 0.724993 0.8786
v 0.591363 0.724969 0.8786
v 0.599363 0.723501 0.8786
v 0.605363 0.720763 0.8786
v 0.611363 0.716053 0.8786
v 0.615023 0.711544 0.8786
v 0.618084 0.705544 0.8786
v 0.619654 0.699544 0.8786
v 0.619965 0.603544 0.8786
v 0.617725 0.593544 0.8786
v 0.612828 0.585544 0.8786
v 0.605363 0.579235 0.8786
v 0.77 0.124998 0.9996
v 0.77 0.874621 0.9996
v 0.623363 0.875 0.9996
v 0.621363 0.874973 0.9996
v 0.619363 0.87278 0.9996
v 0.591363 0.874995 0.9996
v 0.399363 0.874685 0.9996
v 0.377363 0.872016 0.9996
v 0.355363 0.866507 0.9996
v 0.333363 0.85787 0.9996
v 0.313363 0.846859 0.9996
v 0.29754 0.835544 0.9996
v 0.283363 0.822917 0.9996
v 0.271149 0.809544 0.9996
v 0.259371 0.793544 0.9996
v 0.250043 0.777544 0.9996
v 0.24197 0.759544 0.9996
v 0.236122 0.741544 0.9996
v 0.232278 0.723544 0.9996
v 0.230001 0.695544 0.9996
v 0.230006 0.603544 0.9996
v 0.231283 0.583544 0.9996
v 0.234839 0.563544 0.9996
v 0.240103 0.545544 0.9996
v 0.247518 0.527544 0.9996
v 0.257396 0.509544 0.9996
v 0.267363 0.495207 0.9996
v 0.279011 0.481544 0.9996
v 0.291461 0.469544 0.9996
v 0.305363 0.458539 0.9996
v 0.319363 0.449485 0.9996
v 0.335363 0.441204 0.9996
v 0.351363 0.434819 0.9996
v 0.369363 0.429647 0.9996
v 0.387363 0.426429 0.9996
v 0.407363 0.425019 0.9996
v 0.591363 0.425005 0.9996
v 0.619997 0.427253 0.9996
v 0.620442 0.125544 0.9996
v 0.595644 0.575544 0.9996
v 0.409363 0.575007 0.9996
v 0.401363 0.576271 0.9996
v 0.393363 0.58004 0.9996
v 0.389039 0.583544 0.9996
v 0.384293 0.589544 0.9996
v 0.38153 0.595544 0.9996
v 0.380035 0.603544 0.9996
v 0.380005 0.695544 0.9996
v 0.381243 0.703544 0.9996
v 0.384977 0.711544 0.9996
v 0.389363 0.716764 0.9996
v 0.395363 0.721184 0.9996
v 0.401363 0.723729 0.9996
v 0.409363 0.724993 0.9996
v 0.591363 0.724969 0.9996
v 0.599363 0.723501 0.9996
v 0.605363 0.720763 0.9996
v 0.611363 0.716053 0.9996
v 0.615023 0.711544 0.9996
v 0.618084 0.705544 0.9996
v 0.619654 0.699544 0.9996
v 0.619965 0.603544 0.9996
v 0.617725 0.593544 0.9996
v 0.612828 0.585544 0.9996
v 0.605363 0.579235 0.9996
vt 0.638428 0.462139
vt 0.726274 0.462139
vt 0.726274 0.476318
vt 0.638428 0.476318
vt 0.077393 0.332744
vt 0.094576 0.332744
vt 0.094576 0.346924
vt 0.077393 0.346924
vt 0.094576 0.332744
vt 0.09481 0.332744
vt 0.09481 0.346924
vt 0.094576 0.346924
vt 0.184814 0.252686
vt 0.184814 0.252338
vt 0.198994 0.252338
vt 0.198994 0.252686
vt 0.873291 0.364971
vt 0.876545 0.364971
vt 0.876545 0.37915
vt 0.873291 0.37915
vt 0.876545 0.364971
vt 0.898989 0.364971
vt 0.898989 0.37915
vt 0.876545 0.37915
vt 0.898989 0.364971
vt 0.901583 0.364971
vt 0.901583 0.37915
vt 0.898989 0.37915
vt 0.901583 0.364971
vt 0.904201 0.364971
vt 0.904201 0.37915
vt 0.901583 0.37915
vt 0.963623 0.330811
vt 0.963623 0.328063
vt 0.977803 0.328063
vt 0.977803 0.330811
vt 0.963623 0.328063
vt 0.963623 0.325387
vt 0.977803 0.325387
vt 0.977803 0.328063
vt 0.963623 0.325387
vt 0.963623 0.323124
vt 0.977803 0.323124
vt 0.977803 0.325387
vt 0.657471 0.330811
vt 0.657471 0.328613
vt 0.67165 0.328613
vt 0.67165 0.330811
vt 0.657471 0.328613
vt 0.657471 0.326494
vt 0.67165 0.326494
vt 0.67165 0.328613
vt 0.657471 0.326494
vt 0.657471 0.324169
vt 0.67165 0.324169
vt 0.67165 0.326494
vt 0.657471 0.324169
vt 0.657471 0.322025
vt 0.67165 0.322025
vt 0.67165 0.324169
vt 0.935791 0.346924
vt 0.935791 0.344643
vt 0.949971 0.344643
vt 0.949971 0.346924
vt 0.935791 0.344643
vt 0.935791 0.342429
vt 0.949971 0.342429
vt 0.949971 0.344643
vt 0.935791 0.342429
vt 0.935791 0.340274
vt 0.949971 0.340274
vt 0.949971 0.342429
vt 0.935791 0.340274
vt 0.935791 0.337033
vt 0.949971 0.337033
vt 0.949971 0.340274
vt 0.769775 0.348857
vt 0.780464 0.348857
vt 0.780464 0.363037
vt 0.769775 0.363037
vt 0.780464 0.348857
vt 0.782808 0.348857
vt 0.782808 0.363037
vt 0.780464 0.363037
vt 0.782808 0.348857
vt 0.785186 0.348857
vt 0.785186 0.363037
vt 0.782808 0.363037
vt 0.785186 0.348857
vt 0.787358 0.348857
vt 0.787358 0.363037
vt 0.785186 0.363037
vt 0.673584 0.330811
vt 0.673584 0.328559
vt 0.687764 0.328559
vt 0.687764 0.330811
vt 0.673584 0.328559
vt 0.673584 0.326156
vt 0.687764 0.326156
vt 0.687764 0.328559
vt 0.673584 0.326156
vt 0.673584 0.324113
vt 0.687764 0.324113
vt 0.687764 0.326156
vt 0.673584 0.324113
vt 0.673584 0.322034
vt 0.687764 0.322034
vt 0.687764 0.324113
vt 0.85083 0.330811
vt 0.85083 0.328805
vt 0.86501 0.328805
vt 0.86501 0.330811
vt 0.85083 0.328805
vt 0.85083 0.32673
vt 0.86501 0.32673
vt 0.86501 0.328805
vt 0.85083 0.32673
vt 0.85083 0.324778
vt 0.86501 0.324778
vt 0.86501 0.32673
vt 0.85083 0.324778
vt 0.85083 0.322689
vt 0.86501 0.322689
vt 0.86501 0.324778
vt 0.721924 0.330811
vt 0.721924 0.328815
vt 0.736104 0.328815
vt 0.736104 0.330811
vt 0.721924 0.328815
vt 0.721924 0.326624
vt 0.736104 0.326624
vt 0.736104 0.328815
vt 0.721924 0.326624
vt 0.721924 0.324484
vt 0.736104 0.324484
vt 0.736104 0.326624
vt 0.721924 0.324484
vt 0.721924 0.322163
vt 0.736104 0.322163
vt 0.736104 0.324484
vt 0.229736 0.348857
vt 0.251282 0.348857
vt 0.251282 0.363037
vt 0.229736 0.363037
vt 0.251282 0.348857
vt 0.254646 0.348857
vt 0.254646 0.363037
vt 0.251282 0.363037
vt 0.404541 0.364971
vt 0.439898 0.364971
vt 0.439898 0.37915
vt 0.404541 0.37915
vt 0.001221 0.332744
vt 0.018747 0.332744
vt 0.018747 0.346924
vt 0.001221 0.346924
vt 0.281982 0.348857
vt 0.303743 0.348857
vt 0.303743 0.363037
vt 0.281982 0.363037
vt 0.303743 0.348857
vt 0.304689 0.348857
vt 0.304689 0.363037
vt 0.303743 0.363037
vt 0.815674 0.293701
vt 0.815674 0.292672
vt 0.829854 0.292672
vt 0.829854 0.293701
vt 0.815674 0.292672
vt 0.815674 0.292025
vt 0.829854 0.292025
vt 0.829854 0.292672
vt 0.8479 0.293701
vt 0.8479 0.292811
vt 0.86208 0.292811
vt 0.86208 0.293701
vt 0.8479 0.292811
vt 0.8479 0.292042
vt 0.86208 0.292042
vt 0.86208 0.292811
vt 0.283447 0.346924
vt 0.283447 0.345985
vt 0.297627 0.345985
vt 0.297627 0.346924
vt 0.283447 0.345985
vt 0.283447 0.335204
vt 0.297627 0.335204
vt 0.297627 0.345985
vt 0.283447 0.335204
vt 0.283447 0.334268
vt 0.297627 0.334268
vt 0.297627 0.335204
vt 0.759521 0.289795
vt 0.759521 0.28876
vt 0.773701 0.28876
vt 0.773701 0.289795
vt 0.831787 0.293701
vt 0.831787 0.292908
vt 0.845967 0.292908
vt 0.845967 0.293701
vt 0.831787 0.292908
vt 0.831787 0.292041
vt 0.845967 0.292041
vt 0.845967 0.292908
vt 0.799561 0.293701
vt 0.799561 0.292943
vt 0.81374 0.292943
vt 0.81374 0.293701
vt 0.799561 0.292943
vt 0.799561 0.292001
vt 0.81374 0.292001
vt 0.81374 0.292943
vt 0.355225 0.348857
vt 0.376465 0.348857
vt 0.376465 0.363037
vt 0.355225 0.363037
vt 0.376465 0.348857
vt 0.377414 0.348857
vt 0.377414 0.363037
vt 0.376465 0.363037
vt 0.864014 0.293701
vt 0.864014 0.292934
vt 0.878193 0.292934
vt 0.878193 0.293701
vt 0.864014 0.292934
vt 0.864014 0.292046
vt 0.878193 0.292046
vt 0.878193 0.292934
vt 0.934814 0.293701
vt 0.934814 0.293024
vt 0.948994 0.293024
vt 0.948994 0.293701
vt 0.934814 0.293024
vt 0.934814 0.292239
vt 0.948994 0.292239
vt 0.948994 0.293024
vt 0.075439 0.281982
vt 0.075439 0.281256
vt 0.089619 0.281256
vt 0.089619 0.281982
vt 0.315674 0.346924
vt 0.315674 0.335744
vt 0.329854 0.335744
vt 0.329854 0.346924
vt 0.315674 0.335744
vt 0.315674 0.334551
vt 0.329854 0.334551
vt 0.329854 0.335744
vt 0.450439 0.289795
vt 0.450439 0.288696
vt 0.464619 0.288696
vt 0.464619 0.289795
vt 0.434326 0.289795
vt 0.434326 0.28865
vt 0.448506 0.28865
vt 0.448506 0.289795
vt 0.135986 0.289795
vt 0.135986 0.288577
vt 0.150166 0.288577
vt 0.150166 0.289795
vt 0.089067 0.476318
vt 0.001221 0.476318
vt 0.001285 0.458792
vt 0.089112 0.459134
vt 0.089067 0.476318
vt 0.001285 0.458792
vt 0.089108 0.4589
vt 0.089112 0.459134
vt 0.001285 0.458792
vt 0.089075 0.432884
vt 0.089111 0.455384
vt 0.088851 0.458666
vt 0.088762 0.430306
vt 0.089075 0.432884
vt 0.088851 0.458666
vt 0.088116 0.427728
vt 0.088762 0.430306
vt 0.088851 0.458666
vt 0.087104 0.42515
vt 0.088116 0.427728
vt 0.088851 0.458666
vt 0.085814 0.422806
vt 0.087104 0.42515
vt 0.088851 0.458666
vt 0.084488 0.420952
vt 0.085814 0.422806
vt 0.088851 0.458666
vt 0.083008 0.419291
vt 0.084488 0.420952
vt 0.088851 0.458666
vt 0.081441 0.417859
vt 0.083008 0.419291
vt 0.088851 0.458666
vt 0.079566 0.416479
vt 0.081441 0.417859
vt 0.088851 0.458666
vt 0.077691 0.415386
vt 0.079566 0.416479
vt 0.088851 0.458666
vt 0.075582 0.41444
vt 0.077691 0.415386
vt 0.088851 0.458666
vt 0.073472 0.413755
vt 0.075582 0.41444
vt 0.088851 0.458666
vt 0.071363 0.413304
vt 0.073472 0.413755
vt 0.088851 0.458666
vt 0.068082 0.413037
vt 0.071363 0.413304
vt 0.088851 0.458666
vt 0.054957 0.413188
vt 0.0573 0.413038
vt 0.068082 0.413037
vt 0.052613 0.413604
vt 0.054957 0.413188
vt 0.068082 0.413037
vt 0.050503 0.414221
vt 0.052613 0.413604
vt 0.068082 0.413037
vt 0.048394 0.41509
vt 0.050503 0.414221
vt 0.068082 0.413037
vt 0.046285 0.416248
vt 0.048394 0.41509
vt 0.068082 0.413037
vt 0.044605 0.417416
vt 0.046285 0.416248
vt 0.068082 0.413037
vt 0.043003 0.418781
vt 0.044605 0.417416
vt 0.068082 0.413037
vt 0.041597 0.42024
vt 0.043003 0.418781
vt 0.068082 0.413037
vt 0.040308 0.421869
vt 0.041597 0.42024
vt 0.068082 0.413037
vt 0.039247 0.423509
vt 0.040308 0.421869
vt 0.068082 0.413037
vt 0.038276 0.425384
vt 0.039247 0.423509
vt 0.068082 0.413037
vt 0.037528 0.427259
vt 0.038276 0.425384
vt 0.068082 0.413037
vt 0.036922 0.429369
vt 0.037528 0.427259
vt 0.068082 0.413037
vt 0.036545 0.431478
vt 0.036922 0.429369
vt 0.068082 0.413037
vt 0.036379 0.433822
vt 0.036545 0.431478
vt 0.068082 0.413037
vt 0.036378 0.455384
vt 0.036379 0.433822
vt 0.068082 0.413037
vt 0.0573 0.458736
vt 0.036641 0.45874
vt 0.036378 0.455384
vt 0.056128 0.458474
vt 0.0573 0.458736
vt 0.036378 0.455384
vt 0.055191 0.4579
vt 0.056128 0.458474
vt 0.036378 0.455384
vt 0.054452 0.457025
vt 0.055191 0.4579
vt 0.036378 0.455384
vt 0.054019 0.455886
vt 0.054452 0.457025
vt 0.036378 0.455384
vt 0.053956 0.434056
vt 0.054019 0.455886
vt 0.036378 0.455384
vt 0.054104 0.433119
vt 0.053956 0.434056
vt 0.036378 0.455384
vt 0.054546 0.432181
vt 0.054104 0.433119
vt 0.036378 0.455384
vt 0.054546 0.432181
vt 0.036378 0.455384
vt 0.068082 0.413037
vt 0.054957 0.431675
vt 0.054546 0.432181
vt 0.068082 0.413037
vt 0.05566 0.431118
vt 0.054957 0.431675
vt 0.068082 0.413037
vt 0.056363 0.430795
vt 0.05566 0.431118
vt 0.068082 0.413037
vt 0.0573 0.430619
vt 0.056363 0.430795
vt 0.068082 0.413037
vt 0.068082 0.430616
vt 0.0573 0.430619
vt 0.068082 0.413037
vt 0.069019 0.430761
vt 0.068082 0.430616
vt 0.068082 0.413037
vt 0.069957 0.431199
vt 0.069019 0.430761
vt 0.068082 0.413037
vt 0.070568 0.431713
vt 0.069957 0.431199
vt 0.068082 0.413037
vt 0.071086 0.432416
vt 0.070568 0.431713
vt 0.068082 0.413037
vt 0.071086 0.432416
vt 0.068082 0.413037
vt 0.088851 0.458666
vt 0.071385 0.433119
vt 0.071086 0.432416
vt 0.088851 0.458666
vt 0.071533 0.434056
vt 0.071385 0.433119
vt 0.088851 0.458666
vt 0.07153 0.455384
vt 0.071533 0.434056
vt 0.088851 0.458666
vt 0.07153 0.455384
vt 0.088851 0.458666
vt 0.089108 0.4589
vt 0.071358 0.456322
vt 0.07153 0.455384
vt 0.089108 0.4589
vt 0.071037 0.457025
vt 0.071358 0.456322
vt 0.089108 0.4589
vt 0.070485 0.457728
vt 0.071037 0.457025
vt 0.089108 0.4589
vt 0.069957 0.458157
vt 0.070485 0.457728
vt 0.089108 0.4589
vt 0.069253 0.458516
vt 0.069957 0.458157
vt 0.089108 0.4589
vt 0.06855 0.4587
vt 0.069253 0.458516
vt 0.089108 0.4589
vt 0.0573 0.458736
vt 0.06855 0.4587
vt 0.089108 0.4589
vt 0.0573 0.458736
vt 0.089108 0.4589
vt 0.001285 0.458792
vt 0.001285 0.458792
vt 0.036641 0.45874
vt 0.0573 0.458736
vt 0.091128 0.430564
vt 0.091064 0.413037
vt 0.178911 0.413037
vt 0.091128 0.430564
vt 0.178911 0.413037
vt 0.178955 0.430221
vt 0.091128 0.430564
vt 0.178955 0.430221
vt 0.178952 0.430456
vt 0.178695 0.43069
vt 0.178955 0.433971
vt 0.178918 0.456471
vt 0.178695 0.43069
vt 0.178918 0.456471
vt 0.178606 0.459049
vt 0.178695 0.43069
vt 0.178606 0.459049
vt 0.17796 0.461627
vt 0.178695 0.43069
vt 0.17796 0.461627
vt 0.176948 0.464206
vt 0.178695 0.43069
vt 0.176948 0.464206
vt 0.175658 0.466549
vt 0.178695 0.43069
vt 0.175658 0.466549
vt 0.174332 0.468404
vt 0.178695 0.43069
vt 0.174332 0.468404
vt 0.172852 0.470065
vt 0.178695 0.43069
vt 0.172852 0.470065
vt 0.171285 0.471496
vt 0.178695 0.43069
vt 0.171285 0.471496
vt 0.16941 0.472877
vt 0.178695 0.43069
vt 0.16941 0.472877
vt 0.167535 0.47397
vt 0.178695 0.43069
vt 0.167535 0.47397
vt 0.165425 0.474916
vt 0.178695 0.43069
vt 0.165425 0.474916
vt 0.163316 0.475601
vt 0.178695 0.43069
vt 0.163316 0.475601
vt 0.161207 0.476052
vt 0.178695 0.43069
vt 0.161207 0.476052
vt 0.157925 0.476318
vt 0.157925 0.476318
vt 0.147144 0.476318
vt 0.1448 0.476168
vt 0.157925 0.476318
vt 0.1448 0.476168
vt 0.142457 0.475751
vt 0.157925 0.476318
vt 0.142457 0.475751
vt 0.140347 0.475134
vt 0.157925 0.476318
vt 0.140347 0.475134
vt 0.138238 0.474266
vt 0.157925 0.476318
vt 0.138238 0.474266
vt 0.136128 0.473108
vt 0.157925 0.476318
vt 0.136128 0.473108
vt 0.134448 0.47194
vt 0.157925 0.476318
vt 0.134448 0.47194
vt 0.132847 0.470575
vt 0.157925 0.476318
vt 0.132847 0.470575
vt 0.131441 0.469116
vt 0.157925 0.476318
vt 0.131441 0.469116
vt 0.130151 0.467487
vt 0.157925 0.476318
vt 0.130151 0.467487
vt 0.12909 0.465846
vt 0.157925 0.476318
vt 0.12909 0.465846
vt 0.12812 0.463971
vt 0.157925 0.476318
vt 0.12812 0.463971
vt 0.127372 0.462096
vt 0.157925 0.476318
vt 0.127372 0.462096
vt 0.126766 0.459987
vt 0.157925 0.476318
vt 0.126766 0.459987
vt 0.126388 0.457877
vt 0.157925 0.476318
vt 0.126388 0.457877
vt 0.126223 0.455534
vt 0.157925 0.476318
vt 0.126223 0.455534
vt 0.126222 0.433971
vt 0.126222 0.433971
vt 0.126485 0.430616
vt 0.147144 0.430619
vt 0.126222 0.433971
vt 0.147144 0.430619
vt 0.145972 0.430882
vt 0.126222 0.433971
vt 0.145972 0.430882
vt 0.145035 0.431456
vt 0.126222 0.433971
vt 0.145035 0.431456
vt 0.144295 0.432331
vt 0.126222 0.433971
vt 0.144295 0.432331
vt 0.143863 0.43347
vt 0.126222 0.433971
vt 0.143863 0.43347
vt 0.1438 0.455299
vt 0.126222 0.433971
vt 0.1438 0.455299
vt 0.143948 0.456237
vt 0.126222 0.433971
vt 0.143948 0.456237
vt 0.14439 0.457174
vt 0.157925 0.476318
vt 0.126222 0.433971
vt 0.14439 0.457174
vt 0.157925 0.476318
vt 0.14439 0.457174
vt 0.1448 0.457681
vt 0.157925 0.476318
vt 0.1448 0.457681
vt 0.145503 0.458237
vt 0.157925 0.476318
vt 0.145503 0.458237
vt 0.146207 0.458561
vt 0.157925 0.476318
vt 0.146207 0.458561
vt 0.147144 0.458736
vt 0.157925 0.476318
vt 0.147144 0.458736
vt 0.157925 0.45874
vt 0.157925 0.476318
vt 0.157925 0.45874
vt 0.158863 0.458595
vt 0.157925 0.476318
vt 0.158863 0.458595
vt 0.1598 0.458157
vt 0.157925 0.476318
vt 0.1598 0.458157
vt 0.160412 0.457643
vt 0.157925 0.476318
vt 0.160412 0.457643
vt 0.16093 0.45694
vt 0.178695 0.43069
vt 0.157925 0.476318
vt 0.16093 0.45694
vt 0.178695 0.43069
vt 0.16093 0.45694
vt 0.161228 0.456237
vt 0.178695 0.43069
vt 0.161228 0.456237
vt 0.161376 0.455299
vt 0.178695 0.43069
vt 0.161376 0.455299
vt 0.161374 0.433971
vt 0.178952 0.430456
vt 0.178695 0.43069
vt 0.161374 0.433971
vt 0.178952 0.430456
vt 0.161374 0.433971
vt 0.161202 0.433034
vt 0.178952 0.430456
vt 0.161202 0.433034
vt 0.160881 0.432331
vt 0.178952 0.430456
vt 0.160881 0.432331
vt 0.160329 0.431627
vt 0.178952 0.430456
vt 0.160329 0.431627
vt 0.1598 0.431199
vt 0.178952 0.430456
vt 0.1598 0.431199
vt 0.159097 0.43084
vt 0.178952 0.430456
vt 0.159097 0.43084
vt 0.158394 0.430656
vt 0.178952 0.430456
vt 0.158394 0.430656
vt 0.147144 0.430619
vt 0.091128 0.430564
vt 0.178952 0.430456
vt 0.147144 0.430619
vt 0.147144 0.430619
vt 0.126485 0.430616
vt 0.091128 0.430564
vn 1 0 0
vn 0.002586 0.999997 0
vn 0.002373 0.999997 0
vn -0.013254 0.999912 0
vn -0.73892 0.673793 0
vn 0.078849 0.996887 0
vn 0.00866 0.999963 0
vn -0.013916 0.999903 0
vn -0.182738 0.983162 0
vn -0.306074 0.952008 0
vn -0.423743 0.905782 0
vn -0.528924 0.848669 0
vn -0.623772 0.781607 0
vn -0.701812 0.712362 0
vn -0.774476 0.632604 0
vn -0.834773 0.550594 0
vn -0.890192 0.455585 0
vn -0.932696 0.360664 0
vn -0.965614 0.25998 0
vn -0.991263 0.131902 0
vn -0.999821 0.018928 0
vn -0.999934 -0.011451 0
vn -0.992779 -0.119959 0
vn -0.974105 -0.226096 0
vn -0.943214 -0.332187 0
vn -0.901403 -0.432981 0
vn -0.85229 -0.52307 0
vn -0.79158 -0.611065 0
vn -0.728997 -0.684517 0
vn -0.657628 -0.753343 0
vn -0.583714 -0.811959 0
vn -0.500322 -0.865839 0
vn -0.41664 -0.909072 0
vn -0.321815 -0.946803 0
vn -0.226965 -0.973903 0
vn -0.120889 -0.992666 0
vn -0.00698 -0.999976 0
vn 0.010503 -0.999945 0
vn 0.078255 -0.996933 0
vn -0.999999 -0.001474 0
vn -0.00365 -0.999993 0
vn -0.021568 0.999767 0
vn 0.003746 0.999993 0
vn 0.300096 0.953909 0
vn 0.508197 0.861241 0
vn 0.723403 0.690426 0
vn 0.847703 0.530471 0
vn 0.95673 0.290976 0
vn 0.999884 0.015248 0
vn 0.999927 -0.012071 0
vn 0.954945 -0.296783 0
vn 0.852085 -0.523403 0
vn 0.680329 -0.732907 0
vn 0.502009 -0.864863 0
vn 0.262516 -0.964928 0
vn 0.006524 -0.999979 0
vn -0.007853 -0.999969 0
vn -0.287746 -0.957707 0
vn -0.527359 -0.849642 0
vn -0.690432 -0.723398 0
vn -0.842462 -0.538755 0
vn -0.932934 -0.360046 0
vn -0.99983 -0.018432 0
vn -0.999834 0.018194 0
vn -0.929599 0.368573 0
vn -0.756717 0.653742 0
vn -0.502982 0.864297 0
vn 0 0 -1
vn 0 0 1
f 1/1/1 2/2/1 41/3/1 40/4/1
f 2/5/2 3/6/3 42/7/3 41/8/2
f 3/9/3 4/10/4 43/11/4 42/12/3
f 4/13/5 5/14/5 44/15/5 43/16/5
f 5/17/6 6/18/7 45/19/7 44/20/6
f 6/21/7 7/22/8 46/23/8 45/24/7
f 7/25/8 8/26/9 47/27/9 46/28/8
f 8/29/9 9/30/10 48/31/10 47/32/9
f 9/33/10 10/34/11 49/35/11 48/36/10
f 10/37/11 11/38/12 50/39/12 49/40/11
f 11/41/12 12/42/13 51/43/13 50/44/12
f 12/45/13 13/46/14 52/47/14 51/48/13
f 13/49/14 14/50/15 53/51/15 52/52/14
f 14/53/15 15/54/16 54/55/16 53/56/15
f 15/57/16 16/58/17 55/59/17 54/60/16
f 16/61/17 17/62/18 56/63/18 55/64/17
f 17/65/18 18/66/19 57/67/19 56/68/18
f 18/69/19 19/70/20 58/71/20 57/72/19
f 19/73/20 20/74/21 59/75/21 58/76/20
f 20/77/21 21/78/22 60/79/22 59/80/21
f 21/81/22 22/82/23 61/83/23 60/84/22
f 22/85/23 23/86/24 62/87/24 61/88/23
f 23/89/24 24/90/25 63/91/25 62/92/24
f 24/93/25 25/94/26 64/95/26 63/96/25
f 25/97/26 26/98/27 65/99/27 64/100/26
f 26/101/27 27/102/28 66/103/28 65/104/27
f 27/105/28 28/106/29 67/107/29 66/108/28
f 28/109/29 29/110/30 68/111/30 67/112/29
f 29/113/30 30/114/31 69/115/31 68/116/30
f 30/117/31 31/118/32 70/119/32 69/120/31
f 31/121/32 32/122/33 71/123/33 70/124/32
f 32/125/33 33/126/34 72/127/34 71/128/33
f 33/129/34 34/130/35 73/131/35 72/132/34
f 34/133/35 35/134/36 74/135/36 73/136/35
f 35/137/36 36/138/37 75/139/37 74/140/36
f 36/141/37 37/142/38 76/143/38 75/144/37
f 37/145/38 38/146/39 77/147/39 76/148/38
f 38/149/40 39/150/40 78/151/40 77/152/40
f 39/153/41 1/154/41 40/155/41 78/156/41
f 79/157/42 80/158/43 106/159/43 105/160/42
f 80/161/43 81/162/44 107/163/44 106/164/43
f 81/165/44 82/166/45 108/167/45 107/168/44
f 82/169/45 83/170/46 109/171/46 108/172/45
f 83/173/46 84/174/47 110/175/47 109/176/46
f 84/177/47 85/178/48 111/179/48 110/180/47
f 85/181/48 86/182/49 112/183/49 111/184/48
f 86/185/49 87/186/50 113/187/50 112/188/49
f 87/189/50 88/190/51 114/191/51 113/192/50
f 88/193/51 89/194/52 115/195/52 114/196/51
f 89/197/52 90/198/53 116/199/53 115/200/52
f 90/201/53 91/202/54 117/203/54 116/204/53
f 91/205/54 92/206/55 118/207/55 117/208/54
f 92/209/55 93/210/56 119/211/56 118/212/55
f 93/213/56 94/214/57 120/215/57 119/216/56
f 94/217/57 95/218/58 121/219/58 120/220/57
f 95/221/58 96/222/59 122/223/59 121/224/58
f 96/225/59 97/226/60 123/227/60 122/228/59
f 97/229/60 98/230/61 124/231/61 123/232/60
f 98/233/61 99/234/62 125/235/62 124/236/61
f 99/237/62 100/238/63 126/239/63 125/240/62
f 100/241/63 101/242/64 127/243/64 126/244/63
f 101/245/64 102/246/65 128/247/65 127/248/64
f 102/249/65 103/250/66 129/251/66 128/252/65
f 103/253/66 104/254/67 130/255/67 129/256/66
f 104/257/67 79/258/42 105/259/42 130/260/67
f 132/261/68 131/262/68 169/263/68
f 133/264/68 132/265/68 169/266/68
f 134/267/68 133/268/68 169/269/68
f 137/270/68 136/271/68 135/272/68
f 138/273/68 137/274/68 135/275/68
f 139/276/68 138/277/68 135/278/68
f 140/279/68 139/280/68 135/281/68
f 141/282/68 140/283/68 135/284/68
f 142/285/68 141/286/68 135/287/68
f 143/288/68 142/289/68 135/290/68
f 144/291/68 143/292/68 135/293/68
f 145/294/68 144/295/68 135/296/68
f 146/297/68 145/298/68 135/299/68
f 147/300/68 146/301/68 135/302/68
f 148/303/68 147/304/68 135/305/68
f 149/306/68 148/307/68 135/308/68
f 150/309/68 149/310/68 135/311/68
f 152/312/68 151/313/68 150/314/68
f 153/315/68 152/316/68 150/317/68
f 154/318/68 153/319/68 150/320/68
f 155/321/68 154/322/68 150/323/68
f 156/324/68 155/325/68 150/326/68
f 157/327/68 156/328/68 150/329/68
f 158/330/68 157/331/68 150/332/68
f 159/333/68 158/334/68 150/335/68
f 160/336/68 159/337/68 150/338/68
f 161/339/68 160/340/68 150/341/68
f 162/342/68 161/343/68 150/344/68
f 163/345/68 162/346/68 150/347/68
f 164/348/68 163/349/68 150/350/68
f 165/351/68 164/352/68 150/353/68
f 166/354/68 165/355/68 150/356/68
f 167/357/68 166/358/68 150/359/68
f 192/360/68 168/361/68 167/362/68
f 193/363/68 192/364/68 167/365/68
f 194/366/68 193/367/68 167/368/68
f 195/369/68 194/370/68 167/371/68
f 170/372/68 195/373/68 167/374/68
f 171/375/68 170/376/68 167/377/68
f 172/378/68 171/379/68 167/380/68
f 173/381/68 172/382/68 167/383/68
f 173/384/68 167/385/68 150/386/68
f 174/387/68 173/388/68 150/389/68
f 175/390/68 174/391/68 150/392/68
f 176/393/68 175/394/68 150/395/68
f 177/396/68 176/397/68 150/398/68
f 178/399/68 177/400/68 150/401/68
f 179/402/68 178/403/68 150/404/68
f 180/405/68 179/406/68 150/407/68
f 181/408/68 180/409/68 150/410/68
f 182/411/68 181/412/68 150/413/68
f 182/414/68 150/415/68 135/416/68
f 183/417/68 182/418/68 135/419/68
f 184/420/68 183/421/68 135/422/68
f 185/423/68 184/424/68 135/425/68
f 185/426/68 135/427/68 134/428/68
f 186/429/68 185/430/68 134/431/68
f 187/432/68 186/433/68 134/434/68
f 188/435/68 187/436/68 134/437/68
f 189/438/68 188/439/68 134/440/68
f 190/441/68 189/442/68 134/443/68
f 191/444/68 190/445/68 134/446/68
f 192/447/68 191/448/68 134/449/68
f 192/450/68 134/451/68 169/452/68
f 169/453/68 168/454/68 192/455/68
f 234/456/69 196/457/69 197/458/69
f 234/459/69 197/460/69 198/461/69
f 234/462/69 198/463/69 199/464/69
f 200/465/69 201/466/69 202/467/69
f 200/468/69 202/469/69 203/470/69
f 200/471/69 203/472/69 204/473/69
f 200/474/69 204/475/69 205/476/69
f 200/477/69 205/478/69 206/479/69
f 200/480/69 206/481/69 207/482/69
f 200/483/69 207/484/69 208/485/69
f 200/486/69 208/487/69 209/488/69
f 200/489/69 209/490/69 210/491/69
f 200/492/69 210/493/69 211/494/69
f 200/495/69 211/496/69 212/497/69
f 200/498/69 212/499/69 213/500/69
f 200/501/69 213/502/69 214/503/69
f 200/504/69 214/505/69 215/506/69
f 215/507/69 216/508/69 217/509/69
f 215/510/69 217/511/69 218/512/69
f 215/513/69 218/514/69 219/515/69
f 215/516/69 219/517/69 220/518/69
f 215/519/69 220/520/69 221/521/69
f 215/522/69 221/523/69 222/524/69
f 215/525/69 222/526/69 223/527/69
f 215/528/69 223/529/69 224/530/69
f 215/531/69 224/532/69 225/533/69
f 215/534/69 225/535/69 226/536/69
f 215/537/69 226/538/69 227/539/69
f 215/540/69 227/541/69 228/542/69
f 215/543/69 228/544/69 229/545/69
f 215/546/69 229/547/69 230/548/69
f 215/549/69 230/550/69 231/551/69
f 215/552/69 231/553/69 232/554/69
f 232/555/69 233/556/69 257/557/69
f 232/558/69 257/559/69 258/560/69
f 232/561/69 258/562/69 259/563/69
f 232/564/69 259/565/69 260/566/69
f 232/567/69 260/568/69 235/569/69
f 232/570/69 235/571/69 236/572/69
f 232/573/69 236/574/69 237/575/69
f 232/576/69 237/577/69 238/578/69
f 215/579/69 232/580/69 238/581/69
f 215/582/69 238/583/69 239/584/69
f 215/585/69 239/586/69 240/587/69
f 215/588/69 240/589/69 241/590/69
f 215/591/69 241/592/69 242/593/69
f 215/594/69 242/595/69 243/596/69
f 215/597/69 243/598/69 244/599/69
f 215/600/69 244/601/69 245/602/69
f 215/603/69 245/604/69 246/605/69
f 215/606/69 246/607/69 247/608/69
f 200/609/69 215/610/69 247/611/69
f 200/612/69 247/613/69 248/614/69
f 200/615/69 248/616/69 249/617/69
f 200/618/69 249/619/69 250/620/69
f 199/621/69 200/622/69 250/623/69
f 199/624/69 250/625/69 251/626/69
f 199/627/69 251/628/69 252/629/69
f 199/630/69 252/631/69 253/632/69
f 199/633/69 253/634/69 254/635/69
f 199/636/69 254/637/69 255/638/69
f 199/639/69 255/640/69 256/641/69
f 199/642/69 256/643/69 257/644/69
f 234/645/69 199/646/69 257/647/69
f 257/648/69 233/649/69 234/650/69
o P_face_off
usemtl letters_nz
v 0.7713 0.124156 0.8726
v 0.771228 0.8763 0.8726
v 0.621391 0.8763 0.8726
v 0.619878 0.87623 0.8726
v 0.617815 0.874197 0.8726
v 0.591317 0.876295 0.8726
v 0.399436 0.87599 0.8726
v 0.377579 0.873375 0.8726
v 0.355725 0.867983 0.8726
v 0.333868 0.859537 0.8726
v 0.313566 0.848522 0.8726
v 0.298106 0.837648 0.8726
v 0.283308 0.824683 0.8726
v 0.27029 0.810542 0.8726
v 0.258696 0.79488 0.8726
v 0.24933 0.778989 0.8726
v 0.241183 0.761104 0.8726
v 0.235233 0.743223 0.8726
v 0.231262 0.725358 0.8726
v 0.228718 0.697489 0.8726
v 0.228706 0.603581 0.8726
v 0.229959 0.583685 0.8726
v 0.233441 0.563818 0.8726
v 0.239292 0.543946 0.8726
v 0.246786 0.526068 0.8726
v 0.256719 0.50818 0.8726
v 0.266438 0.494279 0.8726
v 0.278332 0.480371 0.8726
v 0.292146 0.467235 0.8726
v 0.305958 0.456527 0.8726
v 0.319958 0.447642 0.8726
v 0.335856 0.439556 0.8726
v 0.351747 0.433315 0.8726
v 0.369632 0.428253 0.8726
v 0.38751 0.425102 0.8726
v 0.407405 0.423719 0.8726
v 0.591334 0.423705 0.8726
v 0.61856 0.425051 0.8726
v 0.619283 0.123694 0.8726
v 0.7725 0.12296 0.8738
v 0.772428 0.8775 0.8738
v 0.621363 0.8775 0.8738
v 0.619363 0.877407 0.8738
v 0.617363 0.875437 0.8738
v 0.591363 0.877495 0.8738
v 0.399363 0.87719 0.8738
v 0.377363 0.874558 0.8738
v 0.355363 0.869129 0.8738
v 0.333363 0.860629 0.8738
v 0.312933 0.849544 0.8738
v 0.297363 0.838593 0.8738
v 0.282469 0.825544 0.8738
v 0.269363 0.811307 0.8738
v 0.257694 0.795544 0.8738
v 0.248264 0.779544 0.8738
v 0.240064 0.761544 0.8738
v 0.234075 0.743544 0.8738
v 0.230074 0.725544 0.8738
v 0.227518 0.697544 0.8738
v 0.227506 0.603544 0.8738
v 0.228766 0.583544 0.8738
v 0.232271 0.563544 0.8738
v 0.238159 0.543544 0.8738
v 0.245705 0.525544 0.8738
v 0.2557 0.507544 0.8738
v 0.265488 0.493544 0.8738
v 0.27746 0.479544 0.8738
v 0.291363 0.466323 0.8738
v 0.305267 0.455544 0.8738
v 0.319363 0.446599 0.8738
v 0.335363 0.43846 0.8738
v 0.351363 0.432177 0.8738
v 0.369363 0.427082 0.8738
v 0.387363 0.423909 0.8738
v 0.407363 0.422519 0.8738
v 0.591363 0.422505 0.8738
v 0.617363 0.423791 0.8738
v 0.618086 0.12249 0.8738
v 0.7725 0.12296 0.8784
v 0.772428 0.8775 0.8784
v 0.621363 0.8775 0.8784
v 0.619363 0.877407 0.8784
v 0.617363 0.875437 0.8784
v 0.591363 0.877495 0.8784
v 0.399363 0.87719 0.8784
v 0.377363 0.874558 0.8784
v 0.355363 0.869129 0.8784
v 0.333363 0.860629 0.8784
v 0.312933 0.849544 0.8784
v 0.297363 0.838593 0.8784
v 0.282469 0.825544 0.8784
v 0.269363 0.811307 0.8784
v 0.257694 0.795544 0.8784
v 0.248264 0.779544 0.8784
v 0.240064 0.761544 0.8784
v 0.234075 0.743544 0.8784
v 0.230074 0.725544 0.8784
v 0.227518 0.697544 0.8784
v 0.227506 0.603544 0.8784
v 0.228766 0.583544 0.8784
v 0.232271 0.563544 0.8784
v 0.238159 0.543544 0.8784
v 0.245705 0.525544 0.8784
v 0.2557 0.507544 0.8784
v 0.265488 0.493544 0.8784
v 0.27746 0.479544 0.8784
v 0.291363 0.466323 0.8784
v 0.305267 0.455544 0.8784
v 0.319363 0.446599 0.8784
v 0.335363 0.43846 0.8784
v 0.351363 0.432177 0.8784
v 0.369363 0.427082 0.8784
v 0.387363 0.423909 0.8784
v 0.407363 0.422519 0.8784
v 0.591363 0.422505 0.8784
v 0.617363 0.423791 0.8784
v 0.618086 0.12249 0.8784
v 0.7713 0.124156 0.8796
v 0.771228 0.8763 0.8796
v 0.621391 0.8763 0.8796
v 0.619878 0.87623 0.8796
v 0.617815 0.874197 0.8796
v 0.591317 0.876295 0.8796
v 0.399436 0.87599 0.8796
v 0.377579 0.873375 0.8796
v 0.355725 0.867983 0.8796
v 0.333868 0.859537 0.8796
v 0.313566 0.848522 0.8796
v 0.298106 0.837648 0.8796
v 0.283308 0.824683 0.8796
v 0.27029 0.810542 0.8796
v 0.258696 0.79488 0.8796
v 0.24933 0.778989 0.8796
v 0.241183 0.761104 0.8796
v 0.235233 0.743223 0.8796
v 0.231262 0.725358 0.8796
v 0.228718 0.697489 0.8796
v 0.228706 0.603581 0.8796
v 0.229959 0.583685 0.8796
v 0.233441 0.563818 0.8796
v 0.239292 0.543946 0.8796
v 0.246786 0.526068 0.8796
v 0.256719 0.50818 0.8796
v 0.266438 0.494279 0.8796
v 0.278332 0.480371 0.8796
v 0.292146 0.467235 0.8796
v 0.305958 0.456527 0.8796
v 0.319958 0.447642 0.8796
v 0.335856 0.439556 0.8796
v 0.351747 0.433315 0.8796
v 0.369632 0.428253 0.8796
v 0.38751 0.425102 0.8796
v 0.407405 0.423719 0.8796
v 0.591334 0.423705 0.8796
v 0.61856 0.425051 0.8796
v 0.619283 0.123694 0.8796
v 0.591622 0.576344 0.8726
v 0.40926 0.576307 0.8726
v 0.400999 0.577738 0.8726
v 0.394724 0.580695 0.8726
v 0.389712 0.584699 0.8726
v 0.384973 0.590941 0.8726
v 0.382369 0.597211 0.8726
v 0.381339 0.603445 0.8726
v 0.381305 0.695644 0.8726
v 0.382706 0.703904 0.8726
v 0.385644 0.710191 0.8726
v 0.390542 0.716105 0.8726
v 0.396798 0.720493 0.8726
v 0.403068 0.722858 0.8726
v 0.409283 0.723693 0.8726
v 0.591483 0.723666 0.8726
v 0.599761 0.721999 0.8726
v 0.606087 0.718783 0.8726
v 0.614367 0.710191 0.8726
v 0.617284 0.703924 0.8726
v 0.618582 0.697666 0.8726
v 0.618482 0.601375 0.8726
v 0.616097 0.593021 0.8726
v 0.610223 0.58461 0.8726
v 0.601863 0.578847 0.8726
v 0.591477 0.577544 0.8738
v 0.409363 0.577507 0.8738
v 0.401363 0.578893 0.8738
v 0.395363 0.581721 0.8738
v 0.390578 0.585544 0.8738
v 0.386022 0.591544 0.8738
v 0.383531 0.597544 0.8738
v 0.382539 0.603544 0.8738
v 0.382505 0.695544 0.8738
v 0.383862 0.703544 0.8738
v 0.386666 0.709544 0.8738
v 0.391363 0.715215 0.8738
v 0.397363 0.719424 0.8738
v 0.403363 0.721687 0.8738
v 0.409363 0.722493 0.8738
v 0.591363 0.722466 0.8738
v 0.599363 0.720855 0.8738
v 0.605363 0.717805 0.8738
v 0.613363 0.709503 0.8738
v 0.616137 0.703544 0.8738
v 0.617382 0.697544 0.8738
v 0.617282 0.601544 0.8738
v 0.614998 0.593544 0.8738
v 0.609363 0.585474 0.8738
v 0.601363 0.57996 0.8738
v 0.591477 0.577544 0.8784
v 0.409363 0.577507 0.8784
v 0.401363 0.578893 0.8784
v 0.395363 0.581721 0.8784
v 0.390578 0.585544 0.8784
v 0.386022 0.591544 0.8784
v 0.383531 0.597544 0.8784
v 0.382539 0.603544 0.8784
v 0.382505 0.695544 0.8784
v 0.383862 0.703544 0.8784
v 0.386666 0.709544 0.8784
v 0.391363 0.715215 0.8784
v 0.397363 0.719424 0.8784
v 0.403363 0.721687 0.8784
v 0.409363 0.722493 0.8784
v 0.591363 0.722466 0.8784
v 0.599363 0.720855 0.8784
v 0.605363 0.717805 0.8784
v 0.613363 0.709503 0.8784
v 0.616137 0.703544 0.8784
v 0.617382 0.697544 0.8784
v 0.617282 0.601544 0.8784
v 0.614998 0.593544 0.8784
v 0.609363 0.585474 0.8784
v 0.601363 0.57996 0.8784
v 0.591622 0.576344 0.8796
v 0.40926 0.576307 0.8796
v 0.400999 0.577738 0.8796
v 0.394724 0.580695 0.8796
v 0.389712 0.584699 0.8796
v 0.384973 0.590941 0.8796
v 0.382369 0.597211 0.8796
v 0.381339 0.603445 0.8796
v 0.381305 0.695644 0.8796
v 0.382706 0.703904 0.8796
v 0.385644 0.710191 0.8796
v 0.390542 0.716105 0.8796
v 0.396798 0.720493 0.8796
v 0.403068 0.722858 0.8796
v 0.409283 0.723693 0.8796
v 0.591483 0.723666 0.8796
v 0.599761 0.721999 0.8796
v 0.606087 0.718783 0.8796
v 0.614367 0.710191 0.8796
v 0.617284 0.703924 0.8796
v 0.618582 0.697666 0.8796
v 0.618482 0.601375 0.8796
v 0.616097 0.593021 0.8796
v 0.610223 0.58461 0.8796
v 0.601863 0.578847 0.8796
v 0.7713 0.124156 0.8726
v 0.771228 0.8763 0.8726
v 0.621391 0.8763 0.8726
v 0.619878 0.87623 0.8726
v 0.617815 0.874197 0.8726
v 0.591317 0.876295 0.8726
v 0.399436 0.87599 0.8726
v 0.377579 0.873375 0.8726
v 0.355725 0.867983 0.8726
v 0.333868 0.859537 0.8726
v 0.313566 0.848522 0.8726
v 0.298106 0.837648 0.8726
v 0.283308 0.824683 0.8726
v 0.27029 0.810542 0.8726
v 0.258696 0.79488 0.8726
v 0.24933 0.778989 0.8726
v 0.241183 0.761104 0.8726
v 0.235233 0.743223 0.8726
v 0.231262 0.725358 0.8726
v 0.228718 0.697489 0.8726
v 0.228706 0.603581 0.8726
v 0.229959 0.583685 0.8726
v 0.233441 0.563818 0.8726
v 0.239292 0.543946 0.8726
v 0.246786 0.526068 0.8726
v 0.256719 0.50818 0.8726
v 0.266438 0.494279 0.8726
v 0.278332 0.480371 0.8726
v 0.292146 0.467235 0.8726
v 0.305958 0.456527 0.8726
v 0.319958 0.447642 0.8726
v 0.335856 0.439556 0.8726
v 0.351747 0.433315 0.8726
v 0.369632 0.428253 0.8726
v 0.38751 0.425102 0.8726
v 0.407405 0.423719 0.8726
v 0.591334 0.423705 0.8726
v 0.61856 0.425051 0.8726
v 0.619283 0.123694 0.8726
v 0.591622 0.576344 0.8726
v 0.40926 0.576307 0.8726
v 0.400999 0.577738 0.8726
v 0.394724 0.580695 0.8726
v 0.389712 0.584699 0.8726
v 0.384973 0.590941 0.8726
v 0.382369 0.597211 0.8726
v 0.381339 0.603445 0.8726
v 0.381305 0.695644 0.8726
v 0.382706 0.703904 0.8726
v 0.385644 0.710191 0.8726
v 0.390542 0.716105 0.8726
v 0.396798 0.720493 0.8726
v 0.403068 0.722858 0.8726
v 0.409283 0.723693 0.8726
v 0.591483 0.723666 0.8726
v 0.599761 0.721999 0.8726
v 0.606087 0.718783 0.8726
v 0.614367 0.710191 0.8726
v 0.617284 0.703924 0.8726
v 0.618582 0.697666 0.8726
v 0.618482 0.601375 0.8726
v 0.616097 0.593021 0.8726
v 0.610223 0.58461 0.8726
v 0.601863 0.578847 0.8726
v 0.7713 0.124156 0.8796
v 0.771228 0.8763 0.8796
v 0.621391 0.8763 0.8796
v 0.619878 0.87623 0.8796
v 0.617815 0.874197 0.8796
v 0.591317 0.876295 0.8796
v 0.399436 0.87599 0.8796
v 0.377579 0.873375 0.8796
v 0.355725 0.867983 0.8796
v 0.333868 0.859537 0.8796
v 0.313566 0.848522 0.8796
v 0.298106 0.837648 0.8796
v 0.283308 0.824683 0.8796
v 0.27029 0.810542 0.8796
v 0.258696 0.79488 0.8796
v 0.24933 0.778989 0.8796
v 0.241183 0.761104 0.8796
v 0.235233 0.743223 0.8796
v 0.231262 0.725358 0.8796
v 0.228718 0.697489 0.8796
v 0.228706 0.603581 0.8796
v 0.229959 0.583685 0.8796
v 0.233441 0.563818 0.8796
v 0.239292 0.543946 0.8796
v 0.246786 0.526068 0.8796
v 0.256719 0.50818 0.8796
v 0.266438 0.494279 0.8796
v 0.278332 0.480371 0.8796
v 0.292146 0.467235 0.8796
v 0.305958 0.456527 0.8796
v 0.319958 0.447642 0.8796
v 0.335856 0.439556 0.8796
v 0.351747 0.433315 0.8796
v 0.369632 0.428253 0.8796
v 0.38751 0.425102 0.8796
v 0.407405 0.423719 0.8796
v 0.591334 0.423705 0.8796
v 0.61856 0.425051 0.8796
v 0.619283 0.123694 0.8796
v 0.591622 0.576344 0.8796
v 0.40926 0.576307 0.8796
v 0.400999 0.577738 0.8796
v 0.394724 0.580695 0.8796
v 0.389712 0.584699 0.8796
v 0.384973 0.590941 0.8796
v 0.382369 0.597211 0.8796
v 0.381339 0.603445 0.8796
v 0.381305 0.695644 0.8796
v 0.382706 0.703904 0.8796
v 0.385644 0.710191 0.8796
v 0.390542 0.716105 0.8796
v 0.396798 0.720493 0.8796
v 0.403068 0.722858 0.8796
v 0.409283 0.723693 0.8796
v 0.591483 0.723666 0.8796
v 0.599761 0.721999 0.8796
v 0.606087 0.718783 0.8796
v 0.614367 0.710191 0.8796
v 0.617284 0.703924 0.8796
v 0.618582 0.697666 0.8796
v 0.618482 0.601375 0.8796
v 0.616097 0.593021 0.8796
v 0.610223 0.58461 0.8796
v 0.601863 0.578847 0.8796
vt 0.076068 0.232955
vt 0.16421 0.232955
vt 0.16435 0.233154
vt 0.075928 0.233154
vt 0.76699 0.254639
vt 0.784544 0.254928
vt 0.784544 0.255127
vt 0.766846 0.254836
vt 0.784544 0.254928
vt 0.784721 0.254925
vt 0.784778 0.255123
vt 0.784544 0.255127
vt 0.786431 0.234909
vt 0.78677 0.234909
vt 0.786706 0.235107
vt 0.786377 0.235107
vt 0.162842 0.295361
vt 0.165889 0.295821
vt 0.165865 0.296019
vt 0.162875 0.295567
vt 0.165889 0.295821
vt 0.188189 0.297876
vt 0.188179 0.298075
vt 0.165865 0.296019
vt 0.188189 0.297876
vt 0.190768 0.297897
vt 0.190775 0.298096
vt 0.188179 0.298075
vt 0.190768 0.297897
vt 0.19339 0.297688
vt 0.193414 0.297885
vt 0.190775 0.298096
vt 0.19339 0.297688
vt 0.196058 0.297226
vt 0.1961 0.297421
vt 0.193414 0.297885
vt 0.822549 0.283638
vt 0.82519 0.28406
vt 0.825168 0.284258
vt 0.82251 0.283833
vt 0.82519 0.28406
vt 0.827393 0.284225
vt 0.827386 0.284424
vt 0.825168 0.284258
vt 0.827393 0.284225
vt 0.829699 0.284223
vt 0.829706 0.284421
vt 0.827386 0.284424
vt 0.829699 0.284223
vt 0.831938 0.284049
vt 0.831961 0.284246
vt 0.829706 0.284421
vt 0.831938 0.284049
vt 0.834169 0.283701
vt 0.834206 0.283897
vt 0.831961 0.284246
vt 0.411414 0.286156
vt 0.413526 0.286483
vt 0.413504 0.286681
vt 0.411377 0.286352
vt 0.413526 0.286483
vt 0.415816 0.286662
vt 0.415808 0.286861
vt 0.413504 0.286681
vt 0.415816 0.286662
vt 0.418024 0.286666
vt 0.418031 0.286865
vt 0.415808 0.286861
vt 0.418024 0.286666
vt 0.420158 0.286515
vt 0.420181 0.286712
vt 0.418031 0.286865
vt 0.420158 0.286515
vt 0.423353 0.285989
vt 0.423391 0.286185
vt 0.420181 0.286712
vt 0.739534 0.291854
vt 0.750353 0.293285
vt 0.750332 0.293482
vt 0.739502 0.29205
vt 0.750353 0.293285
vt 0.752672 0.293485
vt 0.752663 0.293684
vt 0.750332 0.293482
vt 0.752672 0.293485
vt 0.755036 0.293502
vt 0.755042 0.293701
vt 0.752663 0.293684
vt 0.755036 0.293502
vt 0.757451 0.293326
vt 0.757473 0.293523
vt 0.755042 0.293701
vt 0.757451 0.293326
vt 0.759671 0.292984
vt 0.759708 0.29318
vt 0.757473 0.293523
vt 0.126745 0.281298
vt 0.129094 0.281641
vt 0.129073 0.281839
vt 0.126709 0.281494
vt 0.129094 0.281641
vt 0.131072 0.281781
vt 0.131065 0.28198
vt 0.129073 0.281839
vt 0.131072 0.281781
vt 0.133216 0.281784
vt 0.133223 0.281982
vt 0.131065 0.28198
vt 0.133216 0.281784
vt 0.135439 0.281623
vt 0.13546 0.281821
vt 0.133223 0.281982
vt 0.135439 0.281623
vt 0.137445 0.281331
vt 0.13748 0.281527
vt 0.13546 0.281821
vt 0.285922 0.281369
vt 0.287829 0.281635
vt 0.287809 0.281833
vt 0.285889 0.281565
vt 0.287829 0.281635
vt 0.289909 0.281781
vt 0.289902 0.281979
vt 0.287809 0.281833
vt 0.289909 0.281781
vt 0.29191 0.281784
vt 0.291916 0.281982
vt 0.289902 0.281979
vt 0.29191 0.281784
vt 0.294078 0.281635
vt 0.294099 0.281833
vt 0.291916 0.281982
vt 0.294078 0.281635
vt 0.296164 0.281338
vt 0.296199 0.281534
vt 0.294099 0.281833
vt 0.001237 0.252383
vt 0.003569 0.252487
vt 0.003565 0.252686
vt 0.001221 0.252581
vt 0.003569 0.252487
vt 0.025123 0.252386
vt 0.025128 0.252585
vt 0.003565 0.252686
vt 0.025123 0.252386
vt 0.028313 0.252259
vt 0.028173 0.252464
vt 0.025128 0.252585
vt 0.292236 0.236862
vt 0.327552 0.236862
vt 0.327692 0.237061
vt 0.292384 0.237061
vt 0.021381 0.232955
vt 0.039196 0.232955
vt 0.039336 0.233154
vt 0.02124 0.233154
vt 0.457275 0.279002
vt 0.545698 0.279002
vt 0.545698 0.279541
vt 0.457275 0.279541
vt 0.659424 0.259471
vt 0.677122 0.259471
vt 0.677122 0.26001
vt 0.659424 0.26001
vt 0.677122 0.259471
vt 0.677356 0.259471
vt 0.677356 0.26001
vt 0.677122 0.26001
vt 0.2146 0.252686
vt 0.2146 0.252357
vt 0.215139 0.252357
vt 0.215139 0.252686
vt 0.35376 0.264354
vt 0.356782 0.264354
vt 0.356782 0.264893
vt 0.35376 0.264893
vt 0.356782 0.264354
vt 0.379228 0.264354
vt 0.379228 0.264893
vt 0.356782 0.264893
vt 0.379228 0.264354
vt 0.381822 0.264354
vt 0.381822 0.264893
vt 0.379228 0.264893
vt 0.381822 0.264354
vt 0.384438 0.264354
vt 0.384438 0.264893
vt 0.381822 0.264893
vt 0.888916 0.257029
vt 0.891659 0.257029
vt 0.891659 0.257568
vt 0.888916 0.257568
vt 0.891659 0.257029
vt 0.894383 0.257029
vt 0.894383 0.257568
vt 0.891659 0.257568
vt 0.894383 0.257029
vt 0.896597 0.257029
vt 0.896597 0.257568
vt 0.894383 0.257568
vt 0.684814 0.257029
vt 0.687105 0.257029
vt 0.687105 0.257568
vt 0.684814 0.257568
vt 0.687105 0.257029
vt 0.68937 0.257029
vt 0.68937 0.257568
vt 0.687105 0.257568
vt 0.68937 0.257029
vt 0.691665 0.257029
vt 0.691665 0.257568
vt 0.68937 0.257568
vt 0.691665 0.257029
vt 0.693814 0.257029
vt 0.693814 0.257568
vt 0.691665 0.257568
vt 0.616455 0.257029
vt 0.618742 0.257029
vt 0.618742 0.257568
vt 0.616455 0.257568
vt 0.618742 0.257029
vt 0.620962 0.257029
vt 0.620962 0.257568
vt 0.618742 0.257568
vt 0.620962 0.257029
vt 0.62312 0.257029
vt 0.62312 0.257568
vt 0.620962 0.257568
vt 0.62312 0.257029
vt 0.626366 0.257029
vt 0.626366 0.257568
vt 0.62312 0.257568
vt 0.542236 0.259471
vt 0.553158 0.259471
vt 0.553158 0.26001
vt 0.542236 0.26001
vt 0.553158 0.259471
vt 0.555501 0.259471
vt 0.555501 0.26001
vt 0.553158 0.26001
vt 0.555501 0.259471
vt 0.557878 0.259471
vt 0.557878 0.26001
vt 0.555501 0.26001
vt 0.557878 0.259471
vt 0.560292 0.259471
vt 0.560292 0.26001
vt 0.557878 0.26001
vt 0.727783 0.257029
vt 0.730042 0.257029
vt 0.730042 0.257568
vt 0.727783 0.257568
vt 0.730042 0.257029
vt 0.732452 0.257029
vt 0.732452 0.257568
vt 0.730042 0.257568
vt 0.732452 0.257029
vt 0.734451 0.257029
vt 0.734451 0.257568
vt 0.732452 0.257568
vt 0.734451 0.257029
vt 0.736584 0.257029
vt 0.736584 0.257568
vt 0.734451 0.257568
vt 0.810791 0.257029
vt 0.813015 0.257029
vt 0.813015 0.257568
vt 0.810791 0.257568
vt 0.813015 0.257029
vt 0.815075 0.257029
vt 0.815075 0.257568
vt 0.813015 0.257568
vt 0.815075 0.257029
vt 0.817029 0.257029
vt 0.817029 0.257568
vt 0.815075 0.257568
vt 0.817029 0.257029
vt 0.819111 0.257029
vt 0.819111 0.257568
vt 0.817029 0.257568
vt 0.769775 0.257029
vt 0.771767 0.257029
vt 0.771767 0.257568
vt 0.769775 0.257568
vt 0.771767 0.257029
vt 0.773956 0.257029
vt 0.773956 0.257568
vt 0.771767 0.257568
vt 0.773956 0.257029
vt 0.776096 0.257029
vt 0.776096 0.257568
vt 0.773956 0.257568
vt 0.776096 0.257029
vt 0.778417 0.257029
vt 0.778417 0.257568
vt 0.776096 0.257568
vt 0.001221 0.261912
vt 0.022777 0.261912
vt 0.022777 0.262451
vt 0.001221 0.262451
vt 0.022777 0.261912
vt 0.025826 0.261912
vt 0.025826 0.262451
vt 0.022777 0.262451
vt 0.485596 0.266795
vt 0.520904 0.266795
vt 0.520904 0.267334
vt 0.485596 0.267334
vt 0.502197 0.259471
vt 0.520293 0.259471
vt 0.520293 0.26001
vt 0.502197 0.26001
vt 0.181885 0.238815
vt 0.270307 0.238815
vt 0.270167 0.239014
vt 0.182025 0.239014
vt 0.805908 0.25493
vt 0.823606 0.254639
vt 0.823606 0.254838
vt 0.806052 0.255127
vt 0.823606 0.254639
vt 0.823841 0.254643
vt 0.823784 0.254841
vt 0.823606 0.254838
vt 0.78833 0.234909
vt 0.788659 0.234909
vt 0.788723 0.235107
vt 0.788384 0.235107
vt 0.092563 0.29789
vt 0.095553 0.297438
vt 0.095576 0.297635
vt 0.092529 0.298096
vt 0.095553 0.297438
vt 0.117866 0.295381
vt 0.117876 0.29558
vt 0.095576 0.297635
vt 0.117866 0.295381
vt 0.120463 0.295361
vt 0.120456 0.29556
vt 0.117876 0.29558
vt 0.120463 0.295361
vt 0.123102 0.295571
vt 0.123077 0.295769
vt 0.120456 0.29556
vt 0.123102 0.295571
vt 0.125787 0.296036
vt 0.125745 0.29623
vt 0.123077 0.295769
vt 0.848877 0.284229
vt 0.851535 0.283804
vt 0.851558 0.284002
vt 0.848917 0.284424
vt 0.851535 0.283804
vt 0.853753 0.283638
vt 0.85376 0.283837
vt 0.851558 0.284002
vt 0.853753 0.283638
vt 0.856074 0.28364
vt 0.856066 0.283839
vt 0.85376 0.283837
vt 0.856074 0.28364
vt 0.858328 0.283816
vt 0.858305 0.284013
vt 0.856066 0.283839
vt 0.858328 0.283816
vt 0.860573 0.284165
vt 0.860536 0.284361
vt 0.858305 0.284013
vt 0.384033 0.286503
vt 0.38616 0.286174
vt 0.386183 0.286371
vt 0.38407 0.286698
vt 0.38616 0.286174
vt 0.388464 0.285994
vt 0.388472 0.286193
vt 0.386183 0.286371
vt 0.388464 0.285994
vt 0.390687 0.285989
vt 0.39068 0.286188
vt 0.388472 0.286193
vt 0.390687 0.285989
vt 0.392837 0.286142
vt 0.392814 0.28634
vt 0.39068 0.286188
vt 0.392837 0.286142
vt 0.396047 0.28667
vt 0.39601 0.286865
vt 0.392814 0.28634
vt 0.695557 0.293505
vt 0.706386 0.292073
vt 0.706408 0.29227
vt 0.695589 0.293701
vt 0.706386 0.292073
vt 0.708718 0.291871
vt 0.708727 0.29207
vt 0.706408 0.29227
vt 0.708718 0.291871
vt 0.711097 0.291854
vt 0.711091 0.292053
vt 0.708727 0.29207
vt 0.711097 0.291854
vt 0.713527 0.292032
vt 0.713505 0.292229
vt 0.711091 0.292053
vt 0.713527 0.292032
vt 0.715763 0.292375
vt 0.715726 0.292571
vt 0.713505 0.292229
vt 0.101318 0.281787
vt 0.103682 0.281442
vt 0.103703 0.28164
vt 0.101354 0.281982
vt 0.103682 0.281442
vt 0.105674 0.281301
vt 0.105681 0.2815
vt 0.103703 0.28164
vt 0.105674 0.281301
vt 0.107833 0.281298
vt 0.107826 0.281497
vt 0.105681 0.2815
vt 0.107833 0.281298
vt 0.110069 0.28146
vt 0.110048 0.281658
vt 0.107826 0.281497
vt 0.110069 0.28146
vt 0.112089 0.281754
vt 0.112054 0.28195
vt 0.110048 0.281658
vt 0.261475 0.281755
vt 0.263395 0.281488
vt 0.263415 0.281686
vt 0.261508 0.281951
vt 0.263395 0.281488
vt 0.265488 0.281341
vt 0.265495 0.28154
vt 0.263415 0.281686
vt 0.265488 0.281341
vt 0.267502 0.281338
vt 0.267496 0.281537
vt 0.265495 0.28154
vt 0.267502 0.281338
vt 0.269684 0.281488
vt 0.269664 0.281686
vt 0.267496 0.281537
vt 0.269684 0.281488
vt 0.271785 0.281787
vt 0.27175 0.281982
vt 0.269664 0.281686
vt 0.030029 0.252363
vt 0.032374 0.252259
vt 0.032378 0.252458
vt 0.030045 0.252562
vt 0.032374 0.252259
vt 0.053936 0.25236
vt 0.053932 0.252559
vt 0.032378 0.252458
vt 0.053936 0.25236
vt 0.056982 0.252481
vt 0.057121 0.252686
vt 0.053932 0.252559
vt 0.209864 0.231002
vt 0.245173 0.231002
vt 0.245032 0.231201
vt 0.209717 0.231201
vt 0.811279 0.231002
vt 0.829375 0.231002
vt 0.829235 0.231201
vt 0.81142 0.231201
vt 0.576119 0.293224
vt 0.597397 0.2918
vt 0.597398 0.291999
vt 0.576149 0.293422
vt 0.597397 0.2918
vt 0.598377 0.291855
vt 0.598347 0.292052
vt 0.597398 0.291999
vt 0.598377 0.291855
vt 0.599141 0.292054
vt 0.599077 0.292243
vt 0.598347 0.292052
vt 0.374268 0.252474
vt 0.375014 0.252409
vt 0.375014 0.252608
vt 0.374301 0.252671
vt 0.375014 0.252409
vt 0.375925 0.252489
vt 0.37589 0.252686
vt 0.375014 0.252608
vt 0.907471 0.292193
vt 0.908249 0.292076
vt 0.908262 0.292276
vt 0.907517 0.292387
vt 0.908249 0.292076
vt 0.908989 0.292088
vt 0.908975 0.292287
vt 0.908262 0.292276
vt 0.908989 0.292088
vt 0.919609 0.293506
vt 0.919571 0.293701
vt 0.908975 0.292287
vt 0.292236 0.252489
vt 0.293209 0.252395
vt 0.293209 0.252595
vt 0.292267 0.252686
vt 0.293209 0.252395
vt 0.294015 0.252473
vt 0.293978 0.252669
vt 0.293209 0.252595
vt 0.333252 0.252489
vt 0.334144 0.252404
vt 0.334144 0.252604
vt 0.333289 0.252686
vt 0.334144 0.252404
vt 0.335031 0.252489
vt 0.334995 0.252685
vt 0.334144 0.252604
vt 0.281982 0.295504
vt 0.282753 0.295395
vt 0.282764 0.295594
vt 0.282027 0.295698
vt 0.282753 0.295395
vt 0.283487 0.295411
vt 0.283473 0.29561
vt 0.282764 0.295594
vt 0.283487 0.295411
vt 0.30455 0.2979
vt 0.304513 0.298096
vt 0.283473 0.29561
vt 0.278564 0.252489
vt 0.279545 0.252394
vt 0.279545 0.252594
vt 0.278597 0.252686
vt 0.279545 0.252394
vt 0.280369 0.252474
vt 0.280326 0.252669
vt 0.279545 0.252594
vt 0.169189 0.252491
vt 0.170569 0.252327
vt 0.170569 0.252527
vt 0.169236 0.252686
vt 0.170569 0.252327
vt 0.171368 0.252422
vt 0.171328 0.252617
vt 0.170569 0.252527
vt 0.640869 0.254933
vt 0.641598 0.254812
vt 0.641616 0.25501
vt 0.640917 0.255127
vt 0.641598 0.254812
vt 0.652879 0.254622
vt 0.652863 0.254821
vt 0.641616 0.25501
vt 0.652879 0.254622
vt 0.653865 0.254804
vt 0.653807 0.254996
vt 0.652863 0.254821
vt 0.642822 0.240768
vt 0.644025 0.240768
vt 0.643999 0.240967
vt 0.642846 0.240967
vt 0.506104 0.242721
vt 0.507293 0.242721
vt 0.507268 0.24292
vt 0.506129 0.24292
vt 0.574951 0.293514
vt 0.576119 0.293224
vt 0.576149 0.293422
vt 0.575022 0.293701
vt 0.05512 0.261912
vt 0.076456 0.261912
vt 0.076456 0.262451
vt 0.05512 0.262451
vt 0.076456 0.261912
vt 0.077389 0.261912
vt 0.077389 0.262451
vt 0.076456 0.262451
vt 0.355225 0.254588
vt 0.355997 0.254588
vt 0.355997 0.255127
vt 0.355225 0.255127
vt 0.355997 0.254588
vt 0.35671 0.254588
vt 0.35671 0.255127
vt 0.355997 0.255127
vt 0.447998 0.254588
vt 0.448881 0.254588
vt 0.448881 0.255127
vt 0.447998 0.255127
vt 0.368896 0.254588
vt 0.369653 0.254588
vt 0.369653 0.255127
vt 0.368896 0.255127
vt 0.369653 0.254588
vt 0.370361 0.254588
vt 0.370361 0.255127
vt 0.369653 0.255127
vt 0.084229 0.257029
vt 0.094972 0.257029
vt 0.094972 0.257568
vt 0.084229 0.257568
vt 0.094972 0.257029
vt 0.095919 0.257029
vt 0.095919 0.257568
vt 0.094972 0.257568
vt 0.482178 0.254588
vt 0.482954 0.254588
vt 0.482954 0.255127
vt 0.482178 0.255127
vt 0.452881 0.254588
vt 0.453744 0.254588
vt 0.453744 0.255127
vt 0.452881 0.255127
vt 0.457764 0.254588
vt 0.458622 0.254588
vt 0.458622 0.255127
vt 0.457764 0.255127
vt 0.374756 0.254588
vt 0.375502 0.254588
vt 0.375502 0.255127
vt 0.374756 0.255127
vt 0.375502 0.254588
vt 0.376207 0.254588
vt 0.376207 0.255127
vt 0.375502 0.255127
vt 0.35083 0.261912
vt 0.372053 0.261912
vt 0.372053 0.262451
vt 0.35083 0.262451
vt 0.372053 0.261912
vt 0.373005 0.261912
vt 0.373005 0.262451
vt 0.372053 0.262451
vt 0.477295 0.254588
vt 0.478084 0.254588
vt 0.478084 0.255127
vt 0.477295 0.255127
vt 0.380615 0.254588
vt 0.381966 0.254588
vt 0.381966 0.255127
vt 0.380615 0.255127
vt 0.362061 0.254588
vt 0.362826 0.254588
vt 0.362826 0.255127
vt 0.362061 0.255127
vt 0.362826 0.254588
vt 0.363539 0.254588
vt 0.363539 0.255127
vt 0.362826 0.255127
vt 0.242432 0.257029
vt 0.253682 0.257029
vt 0.253682 0.257568
vt 0.242432 0.257568
vt 0.43335 0.254588
vt 0.434325 0.254588
vt 0.434325 0.255127
vt 0.43335 0.255127
vt 0.421631 0.254588
vt 0.422784 0.254588
vt 0.422784 0.255127
vt 0.421631 0.255127
vt 0.42749 0.254588
vt 0.428629 0.254588
vt 0.428629 0.255127
vt 0.42749 0.255127
vt 0.053955 0.261912
vt 0.05512 0.261912
vt 0.05512 0.262451
vt 0.053955 0.262451
vt 0.524391 0.292079
vt 0.54564 0.293502
vt 0.545639 0.293701
vt 0.524361 0.292276
vt 0.54564 0.293502
vt 0.546589 0.293448
vt 0.546619 0.293646
vt 0.545639 0.293701
vt 0.546589 0.293448
vt 0.54732 0.293258
vt 0.547383 0.293447
vt 0.546619 0.293646
vt 0.367465 0.252423
vt 0.368178 0.252486
vt 0.368178 0.252686
vt 0.367432 0.25262
vt 0.368178 0.252486
vt 0.369054 0.252409
vt 0.369089 0.252605
vt 0.368178 0.252686
vt 0.880174 0.29339
vt 0.880919 0.293502
vt 0.880905 0.293701
vt 0.880127 0.293584
vt 0.880919 0.293502
vt 0.881631 0.293491
vt 0.881646 0.29369
vt 0.880905 0.293701
vt 0.881631 0.293491
vt 0.892228 0.292076
vt 0.892265 0.292272
vt 0.881646 0.29369
vt 0.285431 0.252395
vt 0.286373 0.252486
vt 0.286373 0.252686
vt 0.2854 0.252592
vt 0.286373 0.252486
vt 0.287142 0.252412
vt 0.287179 0.252608
vt 0.286373 0.252686
vt 0.326453 0.252404
vt 0.327308 0.252486
vt 0.327308 0.252686
vt 0.326416 0.2526
vt 0.327308 0.252486
vt 0.328159 0.252404
vt 0.328195 0.252601
vt 0.327308 0.252686
vt 0.233199 0.297792
vt 0.233936 0.297897
vt 0.233924 0.298096
vt 0.233154 0.297987
vt 0.233936 0.297897
vt 0.234645 0.297881
vt 0.234659 0.298079
vt 0.233924 0.298096
vt 0.234645 0.297881
vt 0.255685 0.295395
vt 0.255722 0.295591
vt 0.234659 0.298079
vt 0.271761 0.252394
vt 0.272709 0.252486
vt 0.272709 0.252686
vt 0.271729 0.25259
vt 0.272709 0.252486
vt 0.27349 0.25241
vt 0.273533 0.252606
vt 0.272709 0.252686
vt 0.177048 0.252327
vt 0.178381 0.252485
vt 0.178381 0.252686
vt 0.177002 0.252521
vt 0.178381 0.252485
vt 0.179141 0.252395
vt 0.17918 0.25259
vt 0.178381 0.252686
vt 0.670214 0.254622
vt 0.670913 0.254738
vt 0.670895 0.254937
vt 0.670166 0.254815
vt 0.670913 0.254738
vt 0.68216 0.254928
vt 0.682176 0.255127
vt 0.670895 0.254937
vt 0.68216 0.254928
vt 0.683104 0.254753
vt 0.683162 0.254945
vt 0.682176 0.255127
vt 0.952904 0.231002
vt 0.954058 0.231002
vt 0.954083 0.231201
vt 0.952881 0.231201
vt 0.648707 0.240768
vt 0.649846 0.240768
vt 0.649872 0.240967
vt 0.648682 0.240967
vt 0.523264 0.2918
vt 0.524391 0.292079
vt 0.524361 0.292276
vt 0.523193 0.291987
vt 0.71637 0.544181
vt 0.628228 0.544189
vt 0.628174 0.526375
vt 0.71637 0.526622
vt 0.71637 0.544181
vt 0.628174 0.526375
vt 0.716362 0.526445
vt 0.71637 0.526622
vt 0.628174 0.526375
vt 0.695436 0.526293
vt 0.716123 0.526203
vt 0.716362 0.526445
vt 0.695436 0.526293
vt 0.716362 0.526445
vt 0.628174 0.526375
vt 0.684152 0.526281
vt 0.695436 0.526293
vt 0.628174 0.526375
vt 0.716123 0.526203
vt 0.695436 0.526293
vt 0.69617 0.526141
vt 0.716123 0.526203
vt 0.69617 0.526141
vt 0.696904 0.525799
vt 0.716123 0.526203
vt 0.696904 0.525799
vt 0.697911 0.524829
vt 0.716123 0.526203
vt 0.697911 0.524829
vt 0.698288 0.524087
vt 0.716123 0.526203
vt 0.698288 0.524087
vt 0.698483 0.523117
vt 0.716123 0.526203
vt 0.698483 0.523117
vt 0.698486 0.501766
vt 0.716123 0.526203
vt 0.698486 0.501766
vt 0.698388 0.501037
vt 0.716123 0.526203
vt 0.698388 0.501037
vt 0.698111 0.500303
vt 0.716369 0.523098
vt 0.716123 0.526203
vt 0.698111 0.500303
vt 0.716369 0.523098
vt 0.698111 0.500303
vt 0.697597 0.499569
vt 0.716334 0.500612
vt 0.716369 0.523098
vt 0.697597 0.499569
vt 0.716334 0.500612
vt 0.697597 0.499569
vt 0.696904 0.498995
vt 0.716334 0.500612
vt 0.696904 0.498995
vt 0.696167 0.498651
vt 0.716334 0.500612
vt 0.696167 0.498651
vt 0.695199 0.498487
vt 0.716027 0.49805
vt 0.716334 0.500612
vt 0.695199 0.498487
vt 0.716027 0.49805
vt 0.695199 0.498487
vt 0.684395 0.498491
vt 0.715395 0.495489
vt 0.716027 0.49805
vt 0.684395 0.498491
vt 0.714406 0.492928
vt 0.715395 0.495489
vt 0.684395 0.498491
vt 0.714406 0.492928
vt 0.684395 0.498491
vt 0.683664 0.498612
vt 0.713115 0.490549
vt 0.714406 0.492928
vt 0.683664 0.498612
vt 0.71184 0.488737
vt 0.713115 0.490549
vt 0.683664 0.498612
vt 0.710321 0.487003
vt 0.71184 0.488737
vt 0.683664 0.498612
vt 0.710321 0.487003
vt 0.683664 0.498612
vt 0.682929 0.498917
vt 0.708664 0.485477
vt 0.710321 0.487003
vt 0.682929 0.498917
vt 0.706828 0.484119
vt 0.708664 0.485477
vt 0.682929 0.498917
vt 0.704966 0.483021
vt 0.706828 0.484119
vt 0.682929 0.498917
vt 0.70287 0.482066
vt 0.704966 0.483021
vt 0.682929 0.498917
vt 0.70287 0.482066
vt 0.682929 0.498917
vt 0.682198 0.499472
vt 0.700775 0.481369
vt 0.70287 0.482066
vt 0.682198 0.499472
vt 0.698681 0.480904
vt 0.700775 0.481369
vt 0.682198 0.499472
vt 0.695415 0.480606
vt 0.698681 0.480904
vt 0.682198 0.499472
vt 0.695415 0.480606
vt 0.682198 0.499472
vt 0.681729 0.500059
vt 0.684411 0.480604
vt 0.695415 0.480606
vt 0.681729 0.500059
vt 0.684411 0.480604
vt 0.681729 0.500059
vt 0.681382 0.500795
vt 0.684411 0.480604
vt 0.681382 0.500795
vt 0.681214 0.501763
vt 0.682079 0.480751
vt 0.684411 0.480604
vt 0.681214 0.501763
vt 0.679751 0.481159
vt 0.682079 0.480751
vt 0.681214 0.501763
vt 0.679751 0.481159
vt 0.681214 0.501763
vt 0.681219 0.523133
vt 0.677422 0.481845
vt 0.679751 0.481159
vt 0.681219 0.523133
vt 0.675327 0.482723
vt 0.677422 0.481845
vt 0.681219 0.523133
vt 0.673231 0.483887
vt 0.675327 0.482723
vt 0.681219 0.523133
vt 0.671602 0.485026
vt 0.673231 0.483887
vt 0.681219 0.523133
vt 0.671602 0.485026
vt 0.681219 0.523133
vt 0.681512 0.524334
vt 0.669972 0.48642
vt 0.671602 0.485026
vt 0.681512 0.524334
vt 0.668433 0.488039
vt 0.669972 0.48642
vt 0.681512 0.524334
vt 0.667178 0.489657
vt 0.668433 0.488039
vt 0.681512 0.524334
vt 0.666137 0.491298
vt 0.667178 0.489657
vt 0.681512 0.524334
vt 0.665189 0.493161
vt 0.666137 0.491298
vt 0.681512 0.524334
vt 0.664458 0.495023
vt 0.665189 0.493161
vt 0.681512 0.524334
vt 0.663864 0.497119
vt 0.664458 0.495023
vt 0.681512 0.524334
vt 0.663495 0.499214
vt 0.663864 0.497119
vt 0.681512 0.524334
vt 0.663495 0.499214
vt 0.681512 0.524334
vt 0.682187 0.525313
vt 0.663333 0.501546
vt 0.663495 0.499214
vt 0.682187 0.525313
vt 0.663331 0.5231
vt 0.663333 0.501546
vt 0.682187 0.525313
vt 0.663331 0.5231
vt 0.682187 0.525313
vt 0.683173 0.526002
vt 0.663331 0.5231
vt 0.683173 0.526002
vt 0.684152 0.526281
vt 0.663489 0.52629
vt 0.663331 0.5231
vt 0.684152 0.526281
vt 0.628174 0.526375
vt 0.663489 0.52629
vt 0.684152 0.526281
vt 0.718018 0.498419
vt 0.718072 0.480604
vt 0.806214 0.480613
vt 0.718018 0.498419
vt 0.806214 0.480613
vt 0.806214 0.498172
vt 0.718018 0.498419
vt 0.806214 0.498172
vt 0.806205 0.498349
vt 0.806205 0.498349
vt 0.805967 0.498591
vt 0.78528 0.498501
vt 0.718018 0.498419
vt 0.806205 0.498349
vt 0.78528 0.498501
vt 0.718018 0.498419
vt 0.78528 0.498501
vt 0.773996 0.498513
vt 0.786013 0.498653
vt 0.78528 0.498501
vt 0.805967 0.498591
vt 0.786748 0.498995
vt 0.786013 0.498653
vt 0.805967 0.498591
vt 0.787755 0.499965
vt 0.786748 0.498995
vt 0.805967 0.498591
vt 0.788131 0.500706
vt 0.787755 0.499965
vt 0.805967 0.498591
vt 0.788327 0.501676
vt 0.788131 0.500706
vt 0.805967 0.498591
vt 0.78833 0.523028
vt 0.788327 0.501676
vt 0.805967 0.498591
vt 0.788232 0.523756
vt 0.78833 0.523028
vt 0.805967 0.498591
vt 0.787955 0.524491
vt 0.788232 0.523756
vt 0.805967 0.498591
vt 0.787955 0.524491
vt 0.805967 0.498591
vt 0.806213 0.501696
vt 0.787441 0.525224
vt 0.787955 0.524491
vt 0.806213 0.501696
vt 0.787441 0.525224
vt 0.806213 0.501696
vt 0.806177 0.524182
vt 0.786748 0.525798
vt 0.787441 0.525224
vt 0.806177 0.524182
vt 0.786011 0.526143
vt 0.786748 0.525798
vt 0.806177 0.524182
vt 0.785043 0.526307
vt 0.786011 0.526143
vt 0.806177 0.524182
vt 0.785043 0.526307
vt 0.806177 0.524182
vt 0.805871 0.526743
vt 0.774238 0.526303
vt 0.785043 0.526307
vt 0.805871 0.526743
vt 0.774238 0.526303
vt 0.805871 0.526743
vt 0.805239 0.529304
vt 0.774238 0.526303
vt 0.805239 0.529304
vt 0.804249 0.531866
vt 0.773508 0.526182
vt 0.774238 0.526303
vt 0.804249 0.531866
vt 0.773508 0.526182
vt 0.804249 0.531866
vt 0.802958 0.534245
vt 0.773508 0.526182
vt 0.802958 0.534245
vt 0.801684 0.536057
vt 0.773508 0.526182
vt 0.801684 0.536057
vt 0.800165 0.537791
vt 0.772773 0.525877
vt 0.773508 0.526182
vt 0.800165 0.537791
vt 0.772773 0.525877
vt 0.800165 0.537791
vt 0.798508 0.539316
vt 0.772773 0.525877
vt 0.798508 0.539316
vt 0.796672 0.540675
vt 0.772773 0.525877
vt 0.796672 0.540675
vt 0.79481 0.541773
vt 0.772773 0.525877
vt 0.79481 0.541773
vt 0.792714 0.542727
vt 0.772042 0.525322
vt 0.772773 0.525877
vt 0.792714 0.542727
vt 0.772042 0.525322
vt 0.792714 0.542727
vt 0.790619 0.543425
vt 0.772042 0.525322
vt 0.790619 0.543425
vt 0.788525 0.54389
vt 0.772042 0.525322
vt 0.788525 0.54389
vt 0.785259 0.544188
vt 0.771572 0.524734
vt 0.772042 0.525322
vt 0.785259 0.544188
vt 0.771572 0.524734
vt 0.785259 0.544188
vt 0.774254 0.544189
vt 0.771226 0.523999
vt 0.771572 0.524734
vt 0.774254 0.544189
vt 0.771058 0.523031
vt 0.771226 0.523999
vt 0.774254 0.544189
vt 0.771058 0.523031
vt 0.774254 0.544189
vt 0.771923 0.544043
vt 0.771058 0.523031
vt 0.771923 0.544043
vt 0.769595 0.543635
vt 0.771062 0.50166
vt 0.771058 0.523031
vt 0.769595 0.543635
vt 0.771062 0.50166
vt 0.769595 0.543635
vt 0.767266 0.542949
vt 0.771062 0.50166
vt 0.767266 0.542949
vt 0.765171 0.542071
vt 0.771062 0.50166
vt 0.765171 0.542071
vt 0.763075 0.540907
vt 0.771062 0.50166
vt 0.763075 0.540907
vt 0.761446 0.539768
vt 0.771356 0.50046
vt 0.771062 0.50166
vt 0.761446 0.539768
vt 0.771356 0.50046
vt 0.761446 0.539768
vt 0.759816 0.538374
vt 0.771356 0.50046
vt 0.759816 0.538374
vt 0.758276 0.536755
vt 0.771356 0.50046
vt 0.758276 0.536755
vt 0.757021 0.535136
vt 0.771356 0.50046
vt 0.757021 0.535136
vt 0.75598 0.533496
vt 0.771356 0.50046
vt 0.75598 0.533496
vt 0.755033 0.531633
vt 0.771356 0.50046
vt 0.755033 0.531633
vt 0.754301 0.529771
vt 0.771356 0.50046
vt 0.754301 0.529771
vt 0.753708 0.527675
vt 0.771356 0.50046
vt 0.753708 0.527675
vt 0.753339 0.52558
vt 0.772031 0.49948
vt 0.771356 0.50046
vt 0.753339 0.52558
vt 0.772031 0.49948
vt 0.753339 0.52558
vt 0.753177 0.523248
vt 0.772031 0.49948
vt 0.753177 0.523248
vt 0.753175 0.501694
vt 0.773017 0.498792
vt 0.772031 0.49948
vt 0.753175 0.501694
vt 0.773996 0.498513
vt 0.773017 0.498792
vt 0.753175 0.501694
vt 0.773996 0.498513
vt 0.753175 0.501694
vt 0.753333 0.498503
vt 0.773996 0.498513
vt 0.753333 0.498503
vt 0.718018 0.498419
vn 0.707107 0.000068 -0.707107
vn 0 0.707107 -0.707107
vn -0.00038 0.707102 -0.707111
vn -0.329566 0.599406 -0.729451
vn 0.001887 0.69592 -0.718117
vn 0.005744 0.706962 -0.707229
vn -0.009678 0.706815 -0.707332
vn -0.127294 0.694876 -0.707774
vn -0.213198 0.673455 -0.707817
vn -0.296045 0.641347 -0.707836
vn -0.368848 0.602594 -0.707694
vn -0.437284 0.555044 -0.707608
vn -0.493141 0.506056 -0.707615
vn -0.544832 0.449938 -0.707611
vn -0.588599 0.390982 -0.707591
vn -0.627305 0.325266 -0.707595
vn -0.657385 0.259114 -0.707605
vn -0.680907 0.188967 -0.707571
vn -0.699352 0.099657 -0.707796
vn -0.706692 0.014856 -0.707365
vn -0.706963 -0.007726 -0.707208
vn -0.701606 -0.08357 -0.707647
vn -0.687832 -0.16153 -0.707669
vn -0.666164 -0.235502 -0.707647
vn -0.63518 -0.309502 -0.707641
vn -0.601056 -0.371579 -0.707574
vn -0.558 -0.433641 -0.707525
vn -0.512161 -0.486854 -0.707577
vn -0.461717 -0.534962 -0.707554
vn -0.407003 -0.577751 -0.707497
vn -0.34886 -0.614601 -0.707504
vn -0.290374 -0.644285 -0.707517
vn -0.22427 -0.670148 -0.707534
vn -0.158167 -0.688724 -0.707561
vn -0.084226 -0.701582 -0.707594
vn -0.004856 -0.707015 -0.707182
vn 0.004371 -0.707045 -0.707155
vn 0.034919 -0.706244 -0.707107
vn -0.707105 -0.001695 -0.707107
vn 0.002152 -0.707104 -0.707107
vn 1 0.000096 0
vn 0 1 0
vn -0.000609 1 0
vn -0.046529 0.998917 0
vn -0.701725 0.712448 0
vn 0.078906 0.996882 0
vn 0.00804 0.999968 0
vn -0.013723 0.999906 0
vn -0.180193 0.983631 0
vn -0.30181 0.953368 0
vn -0.4191 0.90794 0
vn -0.522073 0.852901 0
vn -0.618846 0.785512 0
vn -0.697911 0.716184 0
vn -0.771058 0.636765 0
vn -0.832977 0.553308 0
vn -0.887754 0.460318 0
vn -0.930339 0.366699 0
vn -0.963585 0.267404 0
vn -0.989993 0.141117 0
vn -0.999778 0.021047 0
vn -0.99994 -0.010947 0
vn -0.992978 -0.118295 0
vn -0.973516 -0.228618 0
vn -0.942817 -0.33331 0
vn -0.898962 -0.438026 0
vn -0.850578 -0.525849 0
vn -0.789602 -0.613619 0
vn -0.724788 -0.688972 0
vn -0.653378 -0.757032 0
vn -0.575905 -0.817516 0
vn -0.493644 -0.869664 0
vn -0.410884 -0.911688 0
vn -0.317362 -0.948305 0
vn -0.223821 -0.97463 0
vn -0.119216 -0.992868 0
vn -0.006883 -0.999976 0
vn 0.006055 -0.999982 0
vn 0.049383 -0.99878 0
vn -0.999997 -0.002398 0
vn 0.003044 -0.999995 0
vn 0.707107 0.000068 0.707107
vn 0 0.707107 0.707107
vn -0.00038 0.707102 0.707111
vn -0.329566 0.599406 0.729451
vn 0.001887 0.69592 0.718117
vn 0.005744 0.706962 0.707229
vn -0.009678 0.706815 0.707332
vn -0.127294 0.694876 0.707774
vn -0.213198 0.673455 0.707817
vn -0.296045 0.641347 0.707836
vn -0.368848 0.602594 0.707694
vn -0.437284 0.555044 0.707608
vn -0.493141 0.506056 0.707615
vn -0.544832 0.449938 0.707611
vn -0.588599 0.390982 0.707591
vn -0.627305 0.325266 0.707595
vn -0.657385 0.259114 0.707605
vn -0.680907 0.188967 0.707571
vn -0.699352 0.099657 0.707796
vn -0.706692 0.014856 0.707365
vn -0.706963 -0.007726 0.707208
vn -0.701606 -0.08357 0.707647
vn -0.687832 -0.16153 0.707669
vn -0.666164 -0.235502 0.707647
vn -0.63518 -0.309502 0.707641
vn -0.601056 -0.371579 0.707574
vn -0.558 -0.433641 0.707525
vn -0.512161 -0.486854 0.707577
vn -0.461717 -0.534962 0.707554
vn -0.407003 -0.577751 0.707497
vn -0.34886 -0.614601 0.707504
vn -0.290374 -0.644285 0.707517
vn -0.22427 -0.670148 0.707534
vn -0.158167 -0.688724 0.707561
vn -0.084226 -0.701582 0.707594
vn -0.004856 -0.707015 0.707182
vn 0.004371 -0.707045 0.707155
vn 0.034919 -0.706244 0.707107
vn -0.707105 -0.001695 0.707107
vn 0.002152 -0.707104 0.707107
vn -0.00917 0.706533 -0.707621
vn 0.005095 0.706873 -0.707322
vn 0.20315 0.673974 -0.710274
vn 0.369888 0.599809 -0.709516
vn 0.510341 0.485549 -0.709784
vn 0.607299 0.356518 -0.709988
vn 0.676801 0.196572 -0.709437
vn 0.706788 0.007517 -0.707386
vn 0.706666 -0.009487 -0.707484
vn 0.674656 -0.200857 -0.710279
vn 0.592498 -0.380651 -0.709966
vn 0.477603 -0.517118 -0.71027
vn 0.334272 -0.619946 -0.709879
vn 0.174807 -0.682797 -0.709387
vn 0.002981 -0.707001 -0.707207
vn -0.006189 -0.70679 -0.707397
vn -0.222766 -0.667678 -0.710339
vn -0.442024 -0.545982 -0.711701
vn -0.560862 -0.423148 -0.711603
vn -0.667978 -0.224641 -0.709465
vn -0.706633 -0.008091 -0.707534
vn -0.705904 0.016476 -0.708116
vn -0.629941 0.310363 -0.711934
vn -0.494981 0.496945 -0.712769
vn -0.284498 0.640896 -0.712961
vn -0.012773 0.999918 0
vn 0.007098 0.999975 0
vn 0.288187 0.957574 0
vn 0.524855 0.851192 0
vn 0.724631 0.689137 0
vn 0.862303 0.506393 0
vn 0.960364 0.27875 0
vn 0.999945 0.010461 0
vn 0.999912 -0.013235 0
vn 0.958569 -0.284862 0
vn 0.841251 -0.540645 0
vn 0.67848 -0.734619 0
vn 0.474662 -0.880168 0
vn 0.247771 -0.968819 0
vn 0.004145 -0.999991 0
vn -0.00862 -0.999963 0
vn -0.315875 -0.948801 0
vn -0.62981 -0.776749 0
vn -0.797906 -0.602782 0
vn -0.947915 -0.318522 0
vn -0.999937 -0.011219 0
vn -0.999737 0.02292 0
vn -0.897004 0.442022 0
vn -0.705787 0.708424 0
vn -0.405351 0.914161 0
vn -0.00917 0.706533 0.707621
vn 0.005095 0.706873 0.707322
vn 0.20315 0.673974 0.710274
vn 0.369888 0.599809 0.709516
vn 0.510341 0.485549 0.709784
vn 0.607299 0.356518 0.709988
vn 0.676801 0.196572 0.709437
vn 0.706788 0.007517 0.707386
vn 0.706666 -0.009487 0.707484
vn 0.674656 -0.200857 0.710279
vn 0.592498 -0.380651 0.709966
vn 0.477603 -0.517118 0.71027
vn 0.334272 -0.619946 0.709879
vn 0.174807 -0.682797 0.709387
vn 0.002981 -0.707001 0.707207
vn -0.006189 -0.70679 0.707397
vn -0.222766 -0.667678 0.710339
vn -0.442024 -0.545982 0.711701
vn -0.560862 -0.423148 0.711603
vn -0.667978 -0.224641 0.709465
vn -0.706633 -0.008091 0.707534
vn -0.705904 0.016476 0.708116
vn -0.629941 0.310363 0.711934
vn -0.494981 0.496945 0.712769
vn -0.284498 0.640896 0.712961
vn 0 0 -1
vn 0 0 1
f 261/651/70 262/652/70 301/653/70 300/654/70
f 262/655/71 263/656/72 302/657/72 301/658/71
f 263/659/72 264/660/73 303/661/73 302/662/72
f 264/663/73 265/664/74 304/665/74 303/666/73
f 265/667/74 266/668/75 305/669/75 304/670/74
f 266/671/75 267/672/76 306/673/76 305/674/75
f 267/675/76 268/676/77 307/677/77 306/678/76
f 268/679/77 269/680/78 308/681/78 307/682/77
f 269/683/78 270/684/79 309/685/79 308/686/78
f 270/687/79 271/688/80 310/689/80 309/690/79
f 271/691/80 272/692/81 311/693/81 310/694/80
f 272/695/81 273/696/82 312/697/82 311/698/81
f 273/699/82 274/700/83 313/701/83 312/702/82
f 274/703/83 275/704/84 314/705/84 313/706/83
f 275/707/84 276/708/85 315/709/85 314/710/84
f 276/711/85 277/712/86 316/713/86 315/714/85
f 277/715/86 278/716/87 317/717/87 316/718/86
f 278/719/87 279/720/88 318/721/88 317/722/87
f 279/723/88 280/724/89 319/725/89 318/726/88
f 280/727/89 281/728/90 320/729/90 319/730/89
f 281/731/90 282/732/91 321/733/91 320/734/90
f 282/735/91 283/736/92 322/737/92 321/738/91
f 283/739/92 284/740/93 323/741/93 322/742/92
f 284/743/93 285/744/94 324/745/94 323/746/93
f 285/747/94 286/748/95 325/749/95 324/750/94
f 286/751/95 287/752/96 326/753/96 325/754/95
f 287/755/96 288/756/97 327/757/97 326/758/96
f 288/759/97 289/760/98 328/761/98 327/762/97
f 289/763/98 290/764/99 329/765/99 328/766/98
f 290/767/99 291/768/100 330/769/100 329/770/99
f 291/771/100 292/772/101 331/773/101 330/774/100
f 292/775/101 293/776/102 332/777/102 331/778/101
f 293/779/102 294/780/103 333/781/103 332/782/102
f 294/783/103 295/784/104 334/785/104 333/786/103
f 295/787/104 296/788/105 335/789/105 334/790/104
f 296/791/105 297/792/106 336/793/106 335/794/105
f 297/795/106 298/796/107 337/797/107 336/798/106
f 298/799/108 299/800/108 338/801/108 337/802/108
f 299/803/109 261/804/109 300/805/109 338/806/109
f 300/807/110 301/808/110 340/809/110 339/810/110
f 301/811/111 302/812/112 341/813/112 340/814/111
f 302/815/112 303/816/113 342/817/113 341/818/112
f 303/819/114 304/820/114 343/821/114 342/822/114
f 304/823/115 305/824/116 344/825/116 343/826/115
f 305/827/116 306/828/117 345/829/117 344/830/116
f 306/831/117 307/832/118 346/833/118 345/834/117
f 307/835/118 308/836/119 347/837/119 346/838/118
f 308/839/119 309/840/120 348/841/120 347/842/119
f 309/843/120 310/844/121 349/845/121 348/846/120
f 310/847/121 311/848/122 350/849/122 349/850/121
f 311/851/122 312/852/123 351/853/123 350/854/122
f 312/855/123 313/856/124 352/857/124 351/858/123
f 313/859/124 314/860/125 353/861/125 352/862/124
f 314/863/125 315/864/126 354/865/126 353/866/125
f 315/867/126 316/868/127 355/869/127 354/870/126
f 316/871/127 317/872/128 356/873/128 355/874/127
f 317/875/128 318/876/129 357/877/129 356/878/128
f 318/879/129 319/880/130 358/881/130 357/882/129
f 319/883/130 320/884/131 359/885/131 358/886/130
f 320/887/131 321/888/132 360/889/132 359/890/131
f 321/891/132 322/892/133 361/893/133 360/894/132
f 322/895/133 323/896/134 362/897/134 361/898/133
f 323/899/134 324/900/135 363/901/135 362/902/134
f 324/903/135 325/904/136 364/905/136 363/906/135
f 325/907/136 326/908/137 365/909/137 364/910/136
f 326/911/137 327/912/138 366/913/138 365/914/137
f 327/915/138 328/916/139 367/917/139 366/918/138
f 328/919/139 329/920/140 368/921/140 367/922/139
f 329/923/140 330/924/141 369/925/141 368/926/140
f 330/927/141 331/928/142 370/929/142 369/930/141
f 331/931/142 332/932/143 371/933/143 370/934/142
f 332/935/143 333/936/144 372/937/144 371/938/143
f 333/939/144 334/940/145 373/941/145 372/942/144
f 334/943/145 335/944/146 374/945/146 373/946/145
f 335/947/146 336/948/147 375/949/147 374/950/146
f 336/951/147 337/952/148 376/953/148 375/954/147
f 337/955/149 338/956/149 377/957/149 376/958/149
f 338/959/150 300/960/150 339/961/150 377/962/150
f 339/963/151 340/964/151 379/965/151 378/966/151
f 340/967/152 341/968/153 380/969/153 379/970/152
f 341/971/153 342/972/154 381/973/154 380/974/153
f 342/975/154 343/976/155 382/977/155 381/978/154
f 343/979/155 344/980/156 383/981/156 382/982/155
f 344/983/156 345/984/157 384/985/157 383/986/156
f 345/987/157 346/988/158 385/989/158 384/990/157
f 346/991/158 347/992/159 386/993/159 385/994/158
f 347/995/159 348/996/160 387/997/160 386/998/159
f 348/999/160 349/1000/161 388/1001/161 387/1002/160
f 349/1003/161 350/1004/162 389/1005/162 388/1006/161
f 350/1007/162 351/1008/163 390/1009/163 389/1010/162
f 351/1011/163 352/1012/164 391/1013/164 390/1014/163
f 352/1015/164 353/1016/165 392/1017/165 391/1018/164
f 353/1019/165 354/1020/166 393/1021/166 392/1022/165
f 354/1023/166 355/1024/167 394/1025/167 393/1026/166
f 355/1027/167 356/1028/168 395/1029/168 394/1030/167
f 356/1031/168 357/1032/169 396/1033/169 395/1034/168
f 357/1035/169 358/1036/170 397/1037/170 396/1038/169
f 358/1039/170 359/1040/171 398/1041/171 397/1042/170
f 359/1043/171 360/1044/172 399/1045/172 398/1046/171
f 360/1047/172 361/1048/173 400/1049/173 399/1050/172
f 361/1051/173 362/1052/174 401/1053/174 400/1054/173
f 362/1055/174 363/1056/175 402/1057/175 401/1058/174
f 363/1059/175 364/1060/176 403/1061/176 402/1062/175
f 364/1063/176 365/1064/177 404/1065/177 403/1066/176
f 365/1067/177 366/1068/178 405/1069/178 404/1070/177
f 366/1071/178 367/1072/179 406/1073/179 405/1074/178
f 367/1075/179 368/1076/180 407/1077/180 406/1078/179
f 368/1079/180 369/1080/181 408/1081/181 407/1082/180
f 369/1083/181 370/1084/182 409/1085/182 408/1086/181
f 370/1087/182 371/1088/183 410/1089/183 409/1090/182
f 371/1091/183 372/1092/184 411/1093/184 410/1094/183
f 372/1095/184 373/1096/185 412/1097/185 411/1098/184
f 373/1099/185 374/1100/186 413/1101/186 412/1102/185
f 374/1103/186 375/1104/187 414/1105/187 413/1106/186
f 375/1107/187 376/1108/188 415/1109/188 414/1110/187
f 376/1111/189 377/1112/189 416/1113/189 415/1114/189
f 377/1115/190 339/1116/190 378/1117/190 416/1118/190
f 417/1119/191 418/1120/192 443/1121/192 442/1122/191
f 418/1123/192 419/1124/193 444/1125/193 443/1126/192
f 419/1127/193 420/1128/194 445/1129/194 444/1130/193
f 420/1131/194 421/1132/195 446/1133/195 445/1134/194
f 421/1135/195 422/1136/196 447/1137/196 446/1138/195
f 422/1139/196 423/1140/197 448/1141/197 447/1142/196
f 423/1143/197 424/1144/198 449/1145/198 448/1146/197
f 424/1147/198 425/1148/199 450/1149/199 449/1150/198
f 425/1151/199 426/1152/200 451/1153/200 450/1154/199
f 426/1155/200 427/1156/201 452/1157/201 451/1158/200
f 427/1159/201 428/1160/202 453/1161/202 452/1162/201
f 428/1163/202 429/1164/203 454/1165/203 453/1166/202
f 429/1167/203 430/1168/204 455/1169/204 454/1170/203
f 430/1171/204 431/1172/205 456/1173/205 455/1174/204
f 431/1175/205 432/1176/206 457/1177/206 456/1178/205
f 432/1179/206 433/1180/207 458/1181/207 457/1182/206
f 433/1183/207 434/1184/208 459/1185/208 458/1186/207
f 434/1187/208 435/1188/209 460/1189/209 459/1190/208
f 435/1191/209 436/1192/210 461/1193/210 460/1194/209
f 436/1195/210 437/1196/211 462/1197/211 461/1198/210
f 437/1199/211 438/1200/212 463/1201/212 462/1202/211
f 438/1203/212 439/1204/213 464/1205/213 463/1206/212
f 439/1207/213 440/1208/214 465/1209/214 464/1210/213
f 440/1211/214 441/1212/215 466/1213/215 465/1214/214
f 441/1215/215 417/1216/191 442/1217/191 466/1218/215
f 442/1219/216 443/1220/217 468/1221/217 467/1222/216
f 443/1223/217 444/1224/218 469/1225/218 468/1226/217
f 444/1227/218 445/1228/219 470/1229/219 469/1230/218
f 445/1231/219 446/1232/220 471/1233/220 470/1234/219
f 446/1235/220 447/1236/221 472/1237/221 471/1238/220
f 447/1239/221 448/1240/222 473/1241/222 472/1242/221
f 448/1243/222 449/1244/223 474/1245/223 473/1246/222
f 449/1247/223 450/1248/224 475/1249/224 474/1250/223
f 450/1251/224 451/1252/225 476/1253/225 475/1254/224
f 451/1255/225 452/1256/226 477/1257/226 476/1258/225
f 452/1259/226 453/1260/227 478/1261/227 477/1262/226
f 453/1263/227 454/1264/228 479/1265/228 478/1266/227
f 454/1267/228 455/1268/229 480/1269/229 479/1270/228
f 455/1271/229 456/1272/230 481/1273/230 480/1274/229
f 456/1275/230 457/1276/231 482/1277/231 481/1278/230
f 457/1279/231 458/1280/232 483/1281/232 482/1282/231
f 458/1283/232 459/1284/233 484/1285/233 483/1286/232
f 459/1287/233 460/1288/234 485/1289/234 484/1290/233
f 460/1291/234 461/1292/235 486/1293/235 485/1294/234
f 461/1295/235 462/1296/236 487/1297/236 486/1298/235
f 462/1299/236 463/1300/237 488/1301/237 487/1302/236
f 463/1303/237 464/1304/238 489/1305/238 488/1306/237
f 464/1307/238 465/1308/239 490/1309/239 489/1310/238
f 465/1311/239 466/1312/240 491/1313/240 490/1314/239
f 466/1315/240 442/1316/216 467/1317/216 491/1318/240
f 467/1319/241 468/1320/242 493/1321/242 492/1322/241
f 468/1323/242 469/1324/243 494/1325/243 493/1326/242
f 469/1327/243 470/1328/244 495/1329/244 494/1330/243
f 470/1331/244 471/1332/245 496/1333/245 495/1334/244
f 471/1335/245 472/1336/246 497/1337/246 496/1338/245
f 472/1339/246 473/1340/247 498/1341/247 497/1342/246
f 473/1343/247 474/1344/248 499/1345/248 498/1346/247
f 474/1347/248 475/1348/249 500/1349/249 499/1350/248
f 475/1351/249 476/1352/250 501/1353/250 500/1354/249
f 476/1355/250 477/1356/251 502/1357/251 501/1358/250
f 477/1359/251 478/1360/252 503/1361/252 502/1362/251
f 478/1363/252 479/1364/253 504/1365/253 503/1366/252
f 479/1367/253 480/1368/254 505/1369/254 504/1370/253
f 480/1371/254 481/1372/255 506/1373/255 505/1374/254
f 481/1375/255 482/1376/256 507/1377/256 506/1378/255
f 482/1379/256 483/1380/257 508/1381/257 507/1382/256
f 483/1383/257 484/1384/258 509/1385/258 508/1386/257
f 484/1387/258 485/1388/259 510/1389/259 509/1390/258
f 485/1391/259 486/1392/260 511/1393/260 510/1394/259
f 486/1395/260 487/1396/261 512/1397/261 511/1398/260
f 487/1399/261 488/1400/262 513/1401/262 512/1402/261
f 488/1403/262 489/1404/263 514/1405/263 513/1406/262
f 489/1407/263 490/1408/264 515/1409/264 514/1410/263
f 490/1411/264 491/1412/265 516/1413/265 515/1414/264
f 491/1415/265 467/1416/241 492/1417/241 516/1418/265
f 518/1419/266 517/1420/266 555/1421/266
f 519/1422/266 518/1423/266 555/1424/266
f 520/1425/266 519/1426/266 555/1427/266
f 576/1428/266 521/1429/266 520/1430/266
f 576/1431/266 520/1432/266 555/1433/266
f 577/1434/266 576/1435/266 555/1436/266
f 521/1437/266 576/1438/266 575/1439/266
f 521/1440/266 575/1441/266 574/1442/266
f 521/1443/266 574/1444/266 573/1445/266
f 521/1446/266 573/1447/266 572/1448/266
f 521/1449/266 572/1450/266 571/1451/266
f 521/1452/266 571/1453/266 570/1454/266
f 521/1455/266 570/1456/266 569/1457/266
f 521/1458/266 569/1459/266 568/1460/266
f 522/1461/266 521/1462/266 568/1463/266
f 522/1464/266 568/1465/266 567/1466/266
f 523/1467/266 522/1468/266 567/1469/266
f 523/1470/266 567/1471/266 566/1472/266
f 523/1473/266 566/1474/266 565/1475/266
f 523/1476/266 565/1477/266 564/1478/266
f 524/1479/266 523/1480/266 564/1481/266
f 524/1482/266 564/1483/266 563/1484/266
f 525/1485/266 524/1486/266 563/1487/266
f 526/1488/266 525/1489/266 563/1490/266
f 526/1491/266 563/1492/266 562/1493/266
f 527/1494/266 526/1495/266 562/1496/266
f 528/1497/266 527/1498/266 562/1499/266
f 529/1500/266 528/1501/266 562/1502/266
f 529/1503/266 562/1504/266 561/1505/266
f 530/1506/266 529/1507/266 561/1508/266
f 531/1509/266 530/1510/266 561/1511/266
f 532/1512/266 531/1513/266 561/1514/266
f 533/1515/266 532/1516/266 561/1517/266
f 533/1518/266 561/1519/266 560/1520/266
f 534/1521/266 533/1522/266 560/1523/266
f 535/1524/266 534/1525/266 560/1526/266
f 536/1527/266 535/1528/266 560/1529/266
f 536/1530/266 560/1531/266 559/1532/266
f 537/1533/266 536/1534/266 559/1535/266
f 537/1536/266 559/1537/266 558/1538/266
f 537/1539/266 558/1540/266 557/1541/266
f 538/1542/266 537/1543/266 557/1544/266
f 539/1545/266 538/1546/266 557/1547/266
f 539/1548/266 557/1549/266 556/1550/266
f 540/1551/266 539/1552/266 556/1553/266
f 541/1554/266 540/1555/266 556/1556/266
f 542/1557/266 541/1558/266 556/1559/266
f 543/1560/266 542/1561/266 556/1562/266
f 543/1563/266 556/1564/266 580/1565/266
f 544/1566/266 543/1567/266 580/1568/266
f 545/1569/266 544/1570/266 580/1571/266
f 546/1572/266 545/1573/266 580/1574/266
f 547/1575/266 546/1576/266 580/1577/266
f 548/1578/266 547/1579/266 580/1580/266
f 549/1581/266 548/1582/266 580/1583/266
f 550/1584/266 549/1585/266 580/1586/266
f 551/1587/266 550/1588/266 580/1589/266
f 551/1590/266 580/1591/266 579/1592/266
f 552/1593/266 551/1594/266 579/1595/266
f 553/1596/266 552/1597/266 579/1598/266
f 553/1599/266 579/1600/266 578/1601/266
f 553/1602/266 578/1603/266 577/1604/266
f 554/1605/266 553/1606/266 577/1607/266
f 555/1608/266 554/1609/266 577/1610/266
f 619/1611/267 581/1612/267 582/1613/267
f 619/1614/267 582/1615/267 583/1616/267
f 619/1617/267 583/1618/267 584/1619/267
f 584/1620/267 585/1621/267 640/1622/267
f 619/1623/267 584/1624/267 640/1625/267
f 619/1626/267 640/1627/267 641/1628/267
f 639/1629/267 640/1630/267 585/1631/267
f 638/1632/267 639/1633/267 585/1634/267
f 637/1635/267 638/1636/267 585/1637/267
f 636/1638/267 637/1639/267 585/1640/267
f 635/1641/267 636/1642/267 585/1643/267
f 634/1644/267 635/1645/267 585/1646/267
f 633/1647/267 634/1648/267 585/1649/267
f 632/1650/267 633/1651/267 585/1652/267
f 632/1653/267 585/1654/267 586/1655/267
f 631/1656/267 632/1657/267 586/1658/267
f 631/1659/267 586/1660/267 587/1661/267
f 630/1662/267 631/1663/267 587/1664/267
f 629/1665/267 630/1666/267 587/1667/267
f 628/1668/267 629/1669/267 587/1670/267
f 628/1671/267 587/1672/267 588/1673/267
f 627/1674/267 628/1675/267 588/1676/267
f 627/1677/267 588/1678/267 589/1679/267
f 627/1680/267 589/1681/267 590/1682/267
f 626/1683/267 627/1684/267 590/1685/267
f 626/1686/267 590/1687/267 591/1688/267
f 626/1689/267 591/1690/267 592/1691/267
f 626/1692/267 592/1693/267 593/1694/267
f 625/1695/267 626/1696/267 593/1697/267
f 625/1698/267 593/1699/267 594/1700/267
f 625/1701/267 594/1702/267 595/1703/267
f 625/1704/267 595/1705/267 596/1706/267
f 625/1707/267 596/1708/267 597/1709/267
f 624/1710/267 625/1711/267 597/1712/267
f 624/1713/267 597/1714/267 598/1715/267
f 624/1716/267 598/1717/267 599/1718/267
f 624/1719/267 599/1720/267 600/1721/267
f 623/1722/267 624/1723/267 600/1724/267
f 623/1725/267 600/1726/267 601/1727/267
f 622/1728/267 623/1729/267 601/1730/267
f 621/1731/267 622/1732/267 601/1733/267
f 621/1734/267 601/1735/267 602/1736/267
f 621/1737/267 602/1738/267 603/1739/267
f 620/1740/267 621/1741/267 603/1742/267
f 620/1743/267 603/1744/267 604/1745/267
f 620/1746/267 604/1747/267 605/1748/267
f 620/1749/267 605/1750/267 606/1751/267
f 620/1752/267 606/1753/267 607/1754/267
f 644/1755/267 620/1756/267 607/1757/267
f 644/1758/267 607/1759/267 608/1760/267
f 644/1761/267 608/1762/267 609/1763/267
f 644/1764/267 609/1765/267 610/1766/267
f 644/1767/267 610/1768/267 611/1769/267
f 644/1770/267 611/1771/267 612/1772/267
f 644/1773/267 612/1774/267 613/1775/267
f 644/1776/267 613/1777/267 614/1778/267
f 644/1779/267 614/1780/267 615/1781/267
f 643/1782/267 644/1783/267 615/1784/267
f 643/1785/267 615/1786/267 616/1787/267
f 643/1788/267 616/1789/267 617/1790/267
f 642/1791/267 643/1792/267 617/1793/267
f 641/1794/267 642/1795/267 617/1796/267
f 641/1797/267 617/1798/267 618/1799/267
f 641/1800/267 618/1801/267 619/1802/267
