# AFL PRAIRIE signage V1 channel letter R (lit), generated by tools/build-prairie-signage-v1.mjs
mtllib r_lit.mtl
o R_body
usemtl letters_nz
v 0.79 0.124998 0.8786
v 0.79 0.874621 0.8786
v 0.643363 0.875 0.8786
v 0.641363 0.874973 0.8786
v 0.639363 0.873296 0.8786
v 0.615363 0.875 0.8786
v 0.393363 0.874613 0.8786
v 0.371363 0.871737 0.8786
v 0.34826 0.865544 0.8786
v 0.327363 0.856836 0.8786
v 0.307363 0.845231 0.8786
v 0.295363 0.836398 0.8786
v 0.283084 0.825544 0.8786
v 0.271836 0.813544 0.8786
v 0.262474 0.801544 0.8786
v 0.253471 0.787544 0.8786
v 0.246204 0.773544 0.8786
v 0.239732 0.757544 0.8786
v 0.235363 0.742984 0.8786
v 0.231874 0.725544 0.8786
v 0.230163 0.707544 0.8786
v 0.230006 0.613544 0.8786
v 0.231861 0.589544 0.8786
v 0.237134 0.565544 0.8786
v 0.241911 0.551544 0.8786
v 0.248075 0.537544 0.8786
v 0.255363 0.524263 0.8786
v 0.263856 0.511544 0.8786
v 0.273363 0.499689 0.8786
v 0.283363 0.489186 0.8786
v 0.295363 0.478602 0.8786
v 0.307701 0.469544 0.8786
v 0.320884 0.461544 0.8786
v 0.333363 0.455334 0.8786
v 0.347363 0.449764 0.8786
v 0.361363 0.445528 0.8786
v 0.389363 0.4407 0.8786
v 0.425922 0.439544 0.8786
v 0.22401 0.125544 0.8786
v 0.401363 0.125 0.8786
v 0.597849 0.429378 0.8786
v 0.582279 0.439544 0.8786
v 0.621363 0.440116 0.8786
v 0.639997 0.44176 0.8786
v 0.640442 0.125544 0.8786
v 0.79 0.124998 0.9996
v 0.79 0.874621 0.9996
v 0.643363 0.875 0.9996
v 0.641363 0.874973 0.9996
v 0.639363 0.873296 0.9996
v 0.615363 0.875 0.9996
v 0.393363 0.874613 0.9996
v 0.371363 0.871737 0.9996
v 0.34826 0.865544 0.9996
v 0.327363 0.856836 0.9996
v 0.307363 0.845231 0.9996
v 0.295363 0.836398 0.9996
v 0.283084 0.825544 0.9996
v 0.271836 0.813544 0.9996
v 0.262474 0.801544 0.9996
v 0.253471 0.787544 0.9996
v 0.246204 0.773544 0.9996
v 0.239732 0.757544 0.9996
v 0.235363 0.742984 0.9996
v 0.231874 0.725544 0.9996
v 0.230163 0.707544 0.9996
v 0.230006 0.613544 0.9996
v 0.231861 0.589544 0.9996
v 0.237134 0.565544 0.9996
v 0.241911 0.551544 0.9996
v 0.248075 0.537544 0.9996
v 0.255363 0.524263 0.9996
v 0.263856 0.511544 0.9996
v 0.273363 0.499689 0.9996
v 0.283363 0.489186 0.9996
v 0.295363 0.478602 0.9996
v 0.307701 0.469544 0.9996
v 0.320884 0.461544 0.9996
v 0.333363 0.455334 0.9996
v 0.347363 0.449764 0.9996
v 0.361363 0.445528 0.9996
v 0.389363 0.4407 0.9996
v 0.425922 0.439544 0.9996
v 0.22401 0.125544 0.9996
v 0.401363 0.125 0.9996
v 0.597849 0.429378 0.9996
v 0.582279 0.439544 0.9996
v 0.621363 0.440116 0.9996
v 0.639997 0.44176 0.9996
v 0.640442 0.125544 0.9996
v 0.623626 0.591544 0.8786
v 0.615363 0.590003 0.8786
v 0.405363 0.59 0.8786
v 0.399363 0.590645 0.8786
v 0.393363 0.592878 0.8786
v 0.387363 0.597287 0.8786
v 0.383936 0.601544 0.8786
v 0.381139 0.607544 0.8786
v 0.380043 0.613544 0.8786
v 0.380048 0.701544 0.8786
v 0.382828 0.711544 0.8786
v 0.387193 0.717544 0.8786
v 0.391363 0.720947 0.8786
v 0.397363 0.723804 0.8786
v 0.403363 0.724946 0.8786
v 0.615363 0.724997 0.8786
v 0.625363 0.722747 0.8786
v 0.630571 0.719544 0.8786
v 0.634571 0.715544 0.8786
v 0.638104 0.709544 0.8786
v 0.639747 0.703544 0.8786
v 0.64 0.615544 0.8786
v 0.638861 0.607544 0.8786
v 0.636063 0.601544 0.8786
v 0.630681 0.595544 0.8786
v 0.623626 0.591544 0.9996
v 0.615363 0.590003 0.9996
v 0.405363 0.59 0.9996
v 0.399363 0.590645 0.9996
v 0.393363 0.592878 0.9996
v 0.387363 0.597287 0.9996
v 0.383936 0.601544 0.9996
v 0.381139 0.607544 0.9996
v 0.380043 0.613544 0.9996
v 0.380048 0.701544 0.9996
v 0.382828 0.711544 0.9996
v 0.387193 0.717544 0.9996
v 0.391363 0.720947 0.9996
v 0.397363 0.723804 0.9996
v 0.403363 0.724946 0.9996
v 0.615363 0.724997 0.9996
v 0.625363 0.722747 0.9996
v 0.630571 0.719544 0.9996
v 0.634571 0.715544 0.9996
v 0.638104 0.709544 0.9996
v 0.639747 0.703544 0.9996
v 0.64 0.615544 0.9996
v 0.638861 0.607544 0.9996
v 0.636063 0.601544 0.9996
v 0.630681 0.595544 0.9996
v 0.79 0.124998 0.8786
v 0.79 0.874621 0.8786
v 0.643363 0.875 0.8786
v 0.641363 0.874973 0.8786
v 0.639363 0.873296 0.8786
v 0.615363 0.875 0.8786
v 0.393363 0.874613 0.8786
v 0.371363 0.871737 0.8786
v 0.34826 0.865544 0.8786
v 0.327363 0.856836 0.8786
v 0.307363 0.845231 0.8786
v 0.295363 0.836398 0.8786
v 0.283084 0.825544 0.8786
v 0.271836 0.813544 0.8786
v 0.262474 0.801544 0.8786
v 0.253471 0.787544 0.8786
v 0.246204 0.773544 0.8786
v 0.239732 0.757544 0.8786
v 0.235363 0.742984 0.8786
v 0.231874 0.725544 0.8786
v 0.230163 0.707544 0.8786
v 0.230006 0.613544 0.8786
v 0.231861 0.589544 0.8786
v 0.237134 0.565544 0.8786
v 0.241911 0.551544 0.8786
v 0.248075 0.537544 0.8786
v 0.255363 0.524263 0.8786
v 0.263856 0.511544 0.8786
v 0.273363 0.499689 0.8786
v 0.283363 0.489186 0.8786
v 0.295363 0.478602 0.8786
v 0.307701 0.469544 0.8786
v 0.320884 0.461544 0.8786
v 0.333363 0.455334 0.8786
v 0.347363 0.449764 0.8786
v 0.361363 0.445528 0.8786
v 0.389363 0.4407 0.8786
v 0.425922 0.439544 0.8786
v 0.22401 0.125544 0.8786
v 0.401363 0.125 0.8786
v 0.597849 0.429378 0.8786
v 0.582279 0.439544 0.8786
v 0.621363 0.440116 0.8786
v 0.639997 0.44176 0.8786
v 0.640442 0.125544 0.8786
v 0.623626 0.591544 0.8786
v 0.615363 0.590003 0.8786
v 0.405363 0.59 0.8786
v 0.399363 0.590645 0.8786
v 0.393363 0.592878 0.8786
v 0.387363 0.597287 0.8786
v 0.383936 0.601544 0.8786
v 0.381139 0.607544 0.8786
v 0.380043 0.613544 0.8786
v 0.380048 0.701544 0.8786
v 0.382828 0.711544 0.8786
v 0.387193 0.717544 0.8786
v 0.391363 0.720947 0.8786
v 0.397363 0.723804 0.8786
v 0.403363 0.724946 0.8786
v 0.615363 0.724997 0.8786
v 0.625363 0.722747 0.8786
v 0.630571 0.719544 0.8786
v 0.634571 0.715544 0.8786
v 0.638104 0.709544 0.8786
v 0.639747 0.703544 0.8786
v 0.64 0.615544 0.8786
v 0.638861 0.607544 0.8786
v 0.636063 0.601544 0.8786
v 0.630681 0.595544 0.8786
v 0.79 0.124998 0.9996
v 0.79 0.874621 0.9996
v 0.643363 0.875 0.9996
v 0.641363 0.874973 0.9996
v 0.639363 0.873296 0.9996
v 0.615363 0.875 0.9996
v 0.393363 0.874613 0.9996
v 0.371363 0.871737 0.9996
v 0.34826 0.865544 0.9996
v 0.327363 0.856836 0.9996
v 0.307363 0.845231 0.9996
v 0.295363 0.836398 0.9996
v 0.283084 0.825544 0.9996
v 0.271836 0.813544 0.9996
v 0.262474 0.801544 0.9996
v 0.253471 0.787544 0.9996
v 0.246204 0.773544 0.9996
v 0.239732 0.757544 0.9996
v 0.235363 0.742984 0.9996
v 0.231874 0.725544 0.9996
v 0.230163 0.707544 0.9996
v 0.230006 0.613544 0.9996
v 0.231861 0.589544 0.9996
v 0.237134 0.565544 0.9996
v 0.241911 0.551544 0.9996
v 0.248075 0.537544 0.9996
v 0.255363 0.524263 0.9996
v 0.263856 0.511544 0.9996
v 0.273363 0.499689 0.9996
v 0.283363 0.489186 0.9996
v 0.295363 0.478602 0.9996
v 0.307701 0.469544 0.9996
v 0.320884 0.461544 0.9996
v 0.333363 0.455334 0.9996
v 0.347363 0.449764 0.9996
v 0.361363 0.445528 0.9996
v 0.389363 0.4407 0.9996
v 0.425922 0.439544 0.9996
v 0.22401 0.125544 0.9996
v 0.401363 0.125 0.9996
v 0.597849 0.429378 0.9996
v 0.582279 0.439544 0.9996
v 0.621363 0.440116 0.9996
v 0.639997 0.44176 0.9996
v 0.640442 0.125544 0.9996
v 0.623626 0.591544 0.9996
v 0.615363 0.590003 0.9996
v 0.405363 0.59 0.9996
v 0.399363 0.590645 0.9996
v 0.393363 0.592878 0.9996
v 0.387363 0.597287 0.9996
v 0.383936 0.601544 0.9996
v 0.381139 0.607544 0.9996
v 0.380043 0.613544 0.9996
v 0.380048 0.701544 0.9996
v 0.382828 0.711544 0.9996
v 0.387193 0.717544 0.9996
v 0.391363 0.720947 0.9996
v 0.397363 0.723804 0.9996
v 0.403363 0.724946 0.9996
v 0.615363 0.724997 0.9996
v 0.625363 0.722747 0.9996
v 0.630571 0.719544 0.9996
v 0.634571 0.715544 0.9996
v 0.638104 0.709544 0.9996
v 0.639747 0.703544 0.9996
v 0.64 0.615544 0.9996
v 0.638861 0.607544 0.9996
v 0.636063 0.601544 0.9996
v 0.630681 0.595544 0.9996
vt 0.727783 0.462139
vt 0.81563 0.462139
vt 0.81563 0.476318
vt 0.727783 0.476318
vt 0.096436 0.332744
vt 0.113619 0.332744
vt 0.113619 0.346924
vt 0.096436 0.346924
vt 0.113619 0.332744
vt 0.113853 0.332744
vt 0.113853 0.346924
vt 0.113619 0.346924
vt 0.250732 0.252686
vt 0.250732 0.25238
vt 0.264912 0.25238
vt 0.264912 0.252686
vt 0.660889 0.364971
vt 0.663676 0.364971
vt 0.663676 0.37915
vt 0.660889 0.37915
vt 0.663676 0.364971
vt 0.689611 0.364971
vt 0.689611 0.37915
vt 0.663676 0.37915
vt 0.689611 0.364971
vt 0.692208 0.364971
vt 0.692208 0.37915
vt 0.689611 0.37915
vt 0.692208 0.364971
vt 0.694965 0.364971
vt 0.694965 0.37915
vt 0.692208 0.37915
vt 0.625244 0.330811
vt 0.625244 0.328198
vt 0.639424 0.328198
vt 0.639424 0.330811
vt 0.625244 0.328198
vt 0.625244 0.325491
vt 0.639424 0.325491
vt 0.639424 0.328198
vt 0.625244 0.325491
vt 0.625244 0.323749
vt 0.639424 0.323749
vt 0.639424 0.325491
vt 0.625244 0.323749
vt 0.625244 0.321851
vt 0.639424 0.321851
vt 0.639424 0.323749
vt 0.979736 0.330811
vt 0.979736 0.328901
vt 0.993916 0.328901
vt 0.993916 0.330811
vt 0.979736 0.328901
vt 0.979736 0.327119
vt 0.993916 0.327119
vt 0.993916 0.328901
vt 0.979736 0.327119
vt 0.979736 0.325171
vt 0.993916 0.325171
vt 0.993916 0.327119
vt 0.979736 0.325171
vt 0.979736 0.32334
vt 0.993916 0.32334
vt 0.993916 0.325171
vt 0.866943 0.330811
vt 0.866943 0.328808
vt 0.881123 0.328808
vt 0.881123 0.330811
vt 0.866943 0.328808
vt 0.866943 0.327029
vt 0.881123 0.327029
vt 0.881123 0.328808
vt 0.866943 0.327029
vt 0.866943 0.324947
vt 0.881123 0.324947
vt 0.881123 0.327029
vt 0.866943 0.324947
vt 0.866943 0.322851
vt 0.881123 0.322851
vt 0.881123 0.324947
vt 0.709717 0.348857
vt 0.720597 0.348857
vt 0.720597 0.363037
vt 0.709717 0.363037
vt 0.720597 0.348857
vt 0.72341 0.348857
vt 0.72341 0.363037
vt 0.720597 0.363037
vt 0.72341 0.348857
vt 0.726284 0.348857
vt 0.726284 0.363037
vt 0.72341 0.363037
vt 0.726284 0.348857
vt 0.727991 0.348857
vt 0.727991 0.363037
vt 0.726284 0.363037
vt 0.689697 0.330811
vt 0.689697 0.329045
vt 0.703877 0.329045
vt 0.703877 0.330811
vt 0.689697 0.329045
vt 0.689697 0.327276
vt 0.703877 0.327276
vt 0.703877 0.329045
vt 0.689697 0.327276
vt 0.689697 0.325484
vt 0.703877 0.325484
vt 0.703877 0.327276
vt 0.689697 0.325484
vt 0.689697 0.32371
vt 0.703877 0.32371
vt 0.703877 0.325484
vt 0.689697 0.32371
vt 0.689697 0.322036
vt 0.703877 0.322036
vt 0.703877 0.32371
vt 0.641357 0.330811
vt 0.641357 0.328964
vt 0.655537 0.328964
vt 0.655537 0.330811
vt 0.641357 0.328964
vt 0.641357 0.327177
vt 0.655537 0.327177
vt 0.655537 0.328964
vt 0.641357 0.327177
vt 0.641357 0.32537
vt 0.655537 0.32537
vt 0.655537 0.327177
vt 0.641357 0.32537
vt 0.641357 0.323742
vt 0.655537 0.323742
vt 0.655537 0.32537
vt 0.641357 0.323742
vt 0.641357 0.322002
vt 0.655537 0.322002
vt 0.655537 0.323742
vt 0.300049 0.330811
vt 0.300049 0.329111
vt 0.314229 0.329111
vt 0.314229 0.330811
vt 0.300049 0.329111
vt 0.300049 0.325781
vt 0.314229 0.325781
vt 0.314229 0.329111
vt 0.300049 0.325781
vt 0.300049 0.321533
vt 0.314229 0.321533
vt 0.314229 0.325781
vt 0.781006 0.381084
vt 0.824754 0.381084
vt 0.824754 0.395264
vt 0.781006 0.395264
vt 0.426025 0.348857
vt 0.446809 0.348857
vt 0.446809 0.363037
vt 0.426025 0.363037
vt 0.826416 0.381084
vt 0.868872 0.381084
vt 0.868872 0.395264
vt 0.826416 0.395264
vt 0.001221 0.293701
vt 0.001221 0.291522
vt 0.0154 0.291522
vt 0.0154 0.293701
vt 0.065674 0.31958
vt 0.065674 0.315002
vt 0.079854 0.315002
vt 0.079854 0.31958
vt 0.065674 0.315002
vt 0.065674 0.312812
vt 0.079854 0.312812
vt 0.079854 0.315002
vt 0.328857 0.364971
vt 0.365914 0.364971
vt 0.365914 0.37915
vt 0.328857 0.37915
vt 0.963623 0.348857
vt 0.981149 0.348857
vt 0.981149 0.363037
vt 0.963623 0.363037
vt 0.147217 0.348857
vt 0.148189 0.348857
vt 0.148189 0.363037
vt 0.147217 0.363037
vt 0.148189 0.348857
vt 0.172791 0.348857
vt 0.172791 0.363037
vt 0.148189 0.363037
vt 0.172791 0.348857
vt 0.173492 0.348857
vt 0.173492 0.363037
vt 0.172791 0.363037
vt 0.001221 0.281982
vt 0.001221 0.281232
vt 0.0154 0.281232
vt 0.0154 0.281982
vt 0.438721 0.286865
vt 0.438721 0.285993
vt 0.4529 0.285993
vt 0.4529 0.286865
vt 0.087646 0.289795
vt 0.087646 0.289159
vt 0.101826 0.289159
vt 0.101826 0.289795
vt 0.087646 0.289159
vt 0.087646 0.288389
vt 0.101826 0.288389
vt 0.101826 0.289159
vt 0.44458 0.346924
vt 0.44458 0.346212
vt 0.45876 0.346212
vt 0.45876 0.346924
vt 0.44458 0.346212
vt 0.44458 0.335942
vt 0.45876 0.335942
vt 0.45876 0.346212
vt 0.1521 0.289795
vt 0.1521 0.288579
vt 0.166279 0.288579
vt 0.166279 0.289795
vt 0.454834 0.286865
vt 0.454834 0.285996
vt 0.469014 0.285996
vt 0.469014 0.286865
vt 0.10376 0.289795
vt 0.10376 0.289169
vt 0.117939 0.289169
vt 0.117939 0.289795
vt 0.10376 0.289169
vt 0.10376 0.288396
vt 0.117939 0.288396
vt 0.117939 0.289169
vt 0.202393 0.348857
vt 0.203105 0.348857
vt 0.203105 0.363037
vt 0.202393 0.363037
vt 0.203105 0.348857
vt 0.227839 0.348857
vt 0.227839 0.363037
vt 0.203105 0.363037
vt 0.261963 0.289795
vt 0.261963 0.288594
vt 0.276143 0.288594
vt 0.276143 0.289795
vt 0.119873 0.289795
vt 0.119873 0.289083
vt 0.134053 0.289083
vt 0.134053 0.289795
vt 0.119873 0.289083
vt 0.119873 0.288425
vt 0.134053 0.288425
vt 0.134053 0.289083
vt 0.705322 0.284424
vt 0.705322 0.283608
vt 0.719502 0.283608
vt 0.719502 0.284424
vt 0.049561 0.281982
vt 0.049561 0.281253
vt 0.06374 0.281253
vt 0.06374 0.281982
vt 0.412354 0.346924
vt 0.412354 0.336638
vt 0.426533 0.336638
vt 0.426533 0.346924
vt 0.412354 0.336638
vt 0.412354 0.335694
vt 0.426533 0.335694
vt 0.426533 0.336638
vt 0.875244 0.284424
vt 0.875244 0.283648
vt 0.889424 0.283648
vt 0.889424 0.284424
vt 0.983154 0.289795
vt 0.983154 0.28885
vt 0.997334 0.28885
vt 0.997334 0.289795
vt 0.967041 0.289795
vt 0.967041 0.288844
vt 0.981221 0.288844
vt 0.981221 0.289795
vt 0.448442 0.612549
vt 0.360596 0.612549
vt 0.36066 0.595023
vt 0.448487 0.595365
vt 0.448442 0.612549
vt 0.36066 0.595023
vt 0.448483 0.59513
vt 0.448487 0.595365
vt 0.36066 0.595023
vt 0.448441 0.566068
vt 0.448487 0.592084
vt 0.448287 0.594896
vt 0.448104 0.56349
vt 0.448441 0.566068
vt 0.448287 0.594896
vt 0.447378 0.560782
vt 0.448104 0.56349
vt 0.448287 0.594896
vt 0.446358 0.558334
vt 0.447378 0.560782
vt 0.448287 0.594896
vt 0.444998 0.55599
vt 0.446358 0.558334
vt 0.448287 0.594896
vt 0.443963 0.554584
vt 0.444998 0.55599
vt 0.448287 0.594896
vt 0.442691 0.553145
vt 0.443963 0.554584
vt 0.448287 0.594896
vt 0.441285 0.551827
vt 0.442691 0.553145
vt 0.448287 0.594896
vt 0.439878 0.550729
vt 0.441285 0.551827
vt 0.448287 0.594896
vt 0.438238 0.549674
vt 0.439878 0.550729
vt 0.448287 0.594896
vt 0.436597 0.548823
vt 0.438238 0.549674
vt 0.448287 0.594896
vt 0.434722 0.548064
vt 0.436597 0.548823
vt 0.448287 0.594896
vt 0.433016 0.547552
vt 0.434722 0.548064
vt 0.448287 0.594896
vt 0.430972 0.547143
vt 0.433016 0.547552
vt 0.448287 0.594896
vt 0.428863 0.546943
vt 0.430972 0.547143
vt 0.448287 0.594896
vt 0.415035 0.547142
vt 0.417847 0.546925
vt 0.428863 0.546943
vt 0.412222 0.54776
vt 0.415035 0.547142
vt 0.428863 0.546943
vt 0.410582 0.54832
vt 0.412222 0.54776
vt 0.428863 0.546943
vt 0.408941 0.549042
vt 0.410582 0.54832
vt 0.428863 0.546943
vt 0.407385 0.549896
vt 0.408941 0.549042
vt 0.428863 0.546943
vt 0.405894 0.550891
vt 0.407385 0.549896
vt 0.428863 0.546943
vt 0.404505 0.552005
vt 0.405894 0.550891
vt 0.428863 0.546943
vt 0.403274 0.553177
vt 0.404505 0.552005
vt 0.428863 0.546943
vt 0.402034 0.554584
vt 0.403274 0.553177
vt 0.428863 0.546943
vt 0.400972 0.556029
vt 0.402034 0.554584
vt 0.428863 0.546943
vt 0.400035 0.557574
vt 0.400972 0.556029
vt 0.428863 0.546943
vt 0.399307 0.559037
vt 0.400035 0.557574
vt 0.428863 0.546943
vt 0.398654 0.560677
vt 0.399307 0.559037
vt 0.428863 0.546943
vt 0.398158 0.562318
vt 0.398654 0.560677
vt 0.428863 0.546943
vt 0.397592 0.565599
vt 0.398158 0.562318
vt 0.428863 0.546943
vt 0.397457 0.569883
vt 0.397592 0.565599
vt 0.428863 0.546943
vt 0.360596 0.567005
vt 0.36066 0.546222
vt 0.397457 0.569883
vt 0.396265 0.590031
vt 0.360596 0.567005
vt 0.397457 0.569883
vt 0.397457 0.588207
vt 0.396265 0.590031
vt 0.397457 0.569883
vt 0.397457 0.588207
vt 0.397457 0.569883
vt 0.428863 0.546943
vt 0.397716 0.59497
vt 0.397524 0.592787
vt 0.397457 0.588207
vt 0.417144 0.594837
vt 0.418082 0.594971
vt 0.397716 0.59497
vt 0.417144 0.594837
vt 0.397716 0.59497
vt 0.397457 0.588207
vt 0.416441 0.594509
vt 0.417144 0.594837
vt 0.397457 0.588207
vt 0.415738 0.593879
vt 0.416441 0.594509
vt 0.397457 0.588207
vt 0.415269 0.593052
vt 0.415738 0.593879
vt 0.397457 0.588207
vt 0.415088 0.592084
vt 0.415269 0.593052
vt 0.397457 0.588207
vt 0.415088 0.567474
vt 0.415088 0.592084
vt 0.397457 0.588207
vt 0.415164 0.566771
vt 0.415088 0.567474
vt 0.397457 0.588207
vt 0.415425 0.566068
vt 0.415164 0.566771
vt 0.397457 0.588207
vt 0.415425 0.566068
vt 0.397457 0.588207
vt 0.428863 0.546943
vt 0.415942 0.565365
vt 0.415425 0.566068
vt 0.428863 0.546943
vt 0.416441 0.564963
vt 0.415942 0.565365
vt 0.428863 0.546943
vt 0.417144 0.564635
vt 0.416441 0.564963
vt 0.428863 0.546943
vt 0.417847 0.564507
vt 0.417144 0.564635
vt 0.428863 0.546943
vt 0.42816 0.564508
vt 0.417847 0.564507
vt 0.428863 0.546943
vt 0.429332 0.564833
vt 0.42816 0.564508
vt 0.428863 0.546943
vt 0.430035 0.565345
vt 0.429332 0.564833
vt 0.428863 0.546943
vt 0.430434 0.565834
vt 0.430035 0.565345
vt 0.428863 0.546943
vt 0.430434 0.565834
vt 0.428863 0.546943
vt 0.448287 0.594896
vt 0.430768 0.566537
vt 0.430434 0.565834
vt 0.448287 0.594896
vt 0.430902 0.56724
vt 0.430768 0.566537
vt 0.448287 0.594896
vt 0.430908 0.592084
vt 0.430902 0.56724
vt 0.448287 0.594896
vt 0.430908 0.592084
vt 0.448287 0.594896
vt 0.448483 0.59513
vt 0.430644 0.593255
vt 0.430908 0.592084
vt 0.448483 0.59513
vt 0.430269 0.593866
vt 0.430644 0.593255
vt 0.448483 0.59513
vt 0.4298 0.594334
vt 0.430269 0.593866
vt 0.448483 0.59513
vt 0.429097 0.594748
vt 0.4298 0.594334
vt 0.448483 0.59513
vt 0.428394 0.594941
vt 0.429097 0.594748
vt 0.448483 0.59513
vt 0.418082 0.594971
vt 0.428394 0.594941
vt 0.448483 0.59513
vt 0.418082 0.594971
vt 0.448483 0.59513
vt 0.36066 0.595023
vt 0.36066 0.595023
vt 0.397716 0.59497
vt 0.418082 0.594971
vt 0.450503 0.563748
vt 0.450439 0.546222
vt 0.538286 0.546222
vt 0.450503 0.563748
vt 0.538286 0.546222
vt 0.53833 0.563406
vt 0.450503 0.563748
vt 0.53833 0.563406
vt 0.538327 0.56364
vt 0.538131 0.563875
vt 0.53833 0.566687
vt 0.538285 0.592703
vt 0.538131 0.563875
vt 0.538285 0.592703
vt 0.537948 0.595281
vt 0.538131 0.563875
vt 0.537948 0.595281
vt 0.537222 0.597988
vt 0.538131 0.563875
vt 0.537222 0.597988
vt 0.536202 0.600437
vt 0.538131 0.563875
vt 0.536202 0.600437
vt 0.534842 0.602781
vt 0.538131 0.563875
vt 0.534842 0.602781
vt 0.533807 0.604187
vt 0.538131 0.563875
vt 0.533807 0.604187
vt 0.532535 0.605626
vt 0.538131 0.563875
vt 0.532535 0.605626
vt 0.531128 0.606944
vt 0.538131 0.563875
vt 0.531128 0.606944
vt 0.529722 0.608041
vt 0.538131 0.563875
vt 0.529722 0.608041
vt 0.528082 0.609096
vt 0.538131 0.563875
vt 0.528082 0.609096
vt 0.526441 0.609948
vt 0.538131 0.563875
vt 0.526441 0.609948
vt 0.524566 0.610706
vt 0.538131 0.563875
vt 0.524566 0.610706
vt 0.52286 0.611218
vt 0.538131 0.563875
vt 0.52286 0.611218
vt 0.520816 0.611627
vt 0.538131 0.563875
vt 0.520816 0.611627
vt 0.518707 0.611828
vt 0.518707 0.611828
vt 0.507691 0.611846
vt 0.504878 0.611629
vt 0.518707 0.611828
vt 0.504878 0.611629
vt 0.502066 0.611011
vt 0.518707 0.611828
vt 0.502066 0.611011
vt 0.500425 0.610451
vt 0.518707 0.611828
vt 0.500425 0.610451
vt 0.498785 0.609729
vt 0.518707 0.611828
vt 0.498785 0.609729
vt 0.497228 0.608875
vt 0.518707 0.611828
vt 0.497228 0.608875
vt 0.495738 0.607879
vt 0.518707 0.611828
vt 0.495738 0.607879
vt 0.494349 0.606765
vt 0.518707 0.611828
vt 0.494349 0.606765
vt 0.493118 0.605593
vt 0.518707 0.611828
vt 0.493118 0.605593
vt 0.491877 0.604187
vt 0.518707 0.611828
vt 0.491877 0.604187
vt 0.490816 0.602741
vt 0.518707 0.611828
vt 0.490816 0.602741
vt 0.489878 0.601196
vt 0.518707 0.611828
vt 0.489878 0.601196
vt 0.489151 0.599734
vt 0.518707 0.611828
vt 0.489151 0.599734
vt 0.488498 0.598093
vt 0.518707 0.611828
vt 0.488498 0.598093
vt 0.488002 0.596453
vt 0.518707 0.611828
vt 0.488002 0.596453
vt 0.487436 0.593171
vt 0.518707 0.611828
vt 0.487436 0.593171
vt 0.4873 0.588887
vt 0.4873 0.588887
vt 0.450503 0.612549
vt 0.45044 0.591765
vt 0.4873 0.588887
vt 0.45044 0.591765
vt 0.486109 0.56874
vt 0.4873 0.588887
vt 0.486109 0.56874
vt 0.4873 0.570564
vt 0.518707 0.611828
vt 0.4873 0.588887
vt 0.4873 0.570564
vt 0.4873 0.570564
vt 0.487367 0.565984
vt 0.48756 0.5638
vt 0.48756 0.5638
vt 0.507925 0.5638
vt 0.506988 0.563934
vt 0.4873 0.570564
vt 0.48756 0.5638
vt 0.506988 0.563934
vt 0.4873 0.570564
vt 0.506988 0.563934
vt 0.506285 0.564261
vt 0.4873 0.570564
vt 0.506285 0.564261
vt 0.505582 0.564892
vt 0.4873 0.570564
vt 0.505582 0.564892
vt 0.505113 0.565719
vt 0.4873 0.570564
vt 0.505113 0.565719
vt 0.504932 0.566687
vt 0.4873 0.570564
vt 0.504932 0.566687
vt 0.504932 0.591296
vt 0.4873 0.570564
vt 0.504932 0.591296
vt 0.505007 0.592
vt 0.4873 0.570564
vt 0.505007 0.592
vt 0.505269 0.592703
vt 0.518707 0.611828
vt 0.4873 0.570564
vt 0.505269 0.592703
vt 0.518707 0.611828
vt 0.505269 0.592703
vt 0.505786 0.593406
vt 0.518707 0.611828
vt 0.505786 0.593406
vt 0.506285 0.593807
vt 0.518707 0.611828
vt 0.506285 0.593807
vt 0.506988 0.594135
vt 0.518707 0.611828
vt 0.506988 0.594135
vt 0.507691 0.594264
vt 0.518707 0.611828
vt 0.507691 0.594264
vt 0.518003 0.594263
vt 0.518707 0.611828
vt 0.518003 0.594263
vt 0.519175 0.593937
vt 0.518707 0.611828
vt 0.519175 0.593937
vt 0.519878 0.593426
vt 0.518707 0.611828
vt 0.519878 0.593426
vt 0.520277 0.592937
vt 0.538131 0.563875
vt 0.518707 0.611828
vt 0.520277 0.592937
vt 0.538131 0.563875
vt 0.520277 0.592937
vt 0.520612 0.592234
vt 0.538131 0.563875
vt 0.520612 0.592234
vt 0.520746 0.591531
vt 0.538131 0.563875
vt 0.520746 0.591531
vt 0.520752 0.566687
vt 0.538327 0.56364
vt 0.538131 0.563875
vt 0.520752 0.566687
vt 0.538327 0.56364
vt 0.520752 0.566687
vt 0.520488 0.565515
vt 0.538327 0.56364
vt 0.520488 0.565515
vt 0.520113 0.564905
vt 0.538327 0.56364
vt 0.520113 0.564905
vt 0.519644 0.564436
vt 0.538327 0.56364
vt 0.519644 0.564436
vt 0.518941 0.564022
vt 0.538327 0.56364
vt 0.518941 0.564022
vt 0.518238 0.56383
vt 0.538327 0.56364
vt 0.518238 0.56383
vt 0.507925 0.5638
vt 0.450503 0.563748
vt 0.538327 0.56364
vt 0.507925 0.5638
vt 0.507925 0.5638
vt 0.48756 0.5638
vt 0.450503 0.563748
vn 1 0 0
vn 0.002586 0.999997 0
vn 0.002373 0.999997 0
vn -0.013254 0.999912 0
vn -0.642685 0.766131 0
vn 0.070817 0.997489 0
vn 0.005353 0.999986 0
vn -0.013371 0.999911 0
vn -0.197127 0.980378 0
vn -0.320772 0.947157 0
vn -0.444842 0.895609 0
vn -0.538258 0.84278 0
vn -0.629818 0.776742 0
vn -0.69678 0.717285 0
vn -0.758662 0.651484 0
vn -0.816782 0.576946 0
vn -0.864624 0.502419 0
vn -0.909187 0.416389 0
vn -0.942456 0.334329 0
vn -0.971153 0.238455 0
vn -0.989404 0.145189 0
vn -0.999861 0.016678 0
vn -0.999896 -0.014395 0
vn -0.989153 -0.146886 0
vn -0.966767 -0.25566 0
vn -0.931412 -0.363967 0
vn -0.896879 -0.442277 0
vn -0.854856 -0.518865 0
vn -0.806733 -0.590916 0
vn -0.753515 -0.657431 0
vn -0.691967 -0.721929 0
vn -0.628038 -0.778183 0
vn -0.555713 -0.831374 0
vn -0.484406 -0.874843 0
vn -0.406453 -0.913672 0
vn -0.330547 -0.943789 0
vn -0.21095 -0.977497 0
vn -0.092298 -0.995731 0
vn -0.031616 -0.9995 0
vn -0.841112 0.540861 0
vn -0.003065 -0.999995 0
vn 0.840155 -0.542346 0
vn 0.546721 0.837315 0
vn 0.014637 -0.999893 0
vn 0.038375 -0.999263 0
vn 0.087909 -0.996129 0
vn -0.999999 -0.001408 0
vn -0.00365 -0.999993 0
vn -0.340165 0.940366 0
vn -0.007072 0.999975 0
vn 0.002973 0.999996 0
vn 0.233188 0.972432 0
vn 0.484304 0.8749 0
vn 0.676762 0.736202 0
vn 0.854867 0.518847 0
vn 0.95118 0.308637 0
vn 0.999933 0.011603 0
vn 0.999596 -0.028415 0
vn 0.913079 -0.407782 0
vn 0.740476 -0.672083 0
vn 0.524229 -0.851577 0
vn 0.316161 -0.948706 0
vn 0.005473 -0.999985 0
vn -0.009906 -0.999951 0
vn -0.33757 -0.941301 0
vn -0.616184 -0.787602 0
vn -0.79874 -0.601676 0
vn -0.918213 -0.396088 0
vn -0.999797 -0.020168 0
vn -0.999957 0.009236 0
vn -0.962667 0.270689 0
vn -0.826296 0.563236 0
vn -0.6266 0.779341 0
vn 0 0 -1
vn 0 0 1
f 1/1/1 2/2/1 47/3/1 46/4/1
f 2/5/2 3/6/3 48/7/3 47/8/2
f 3/9/3 4/10/4 49/11/4 48/12/3
f 4/13/5 5/14/5 50/15/5 49/16/5
f 5/17/6 6/18/7 51/19/7 50/20/6
f 6/21/7 7/22/8 52/23/8 51/24/7
f 7/25/8 8/26/9 53/27/9 52/28/8
f 8/29/9 9/30/10 54/31/10 53/32/9
f 9/33/10 10/34/11 55/35/11 54/36/10
f 10/37/11 11/38/12 56/39/12 55/40/11
f 11/41/12 12/42/13 57/43/13 56/44/12
f 12/45/13 13/46/14 58/47/14 57/48/13
f 13/49/14 14/50/15 59/51/15 58/52/14
f 14/53/15 15/54/16 60/55/16 59/56/15
f 15/57/16 16/58/17 61/59/17 60/60/16
f 16/61/17 17/62/18 62/63/18 61/64/17
f 17/65/18 18/66/19 63/67/19 62/68/18
f 18/69/19 19/70/20 64/71/20 63/72/19
f 19/73/20 20/74/21 65/75/21 64/76/20
f 20/77/21 21/78/22 66/79/22 65/80/21
f 21/81/22 22/82/23 67/83/23 66/84/22
f 22/85/23 23/86/24 68/87/24 67/88/23
f 23/89/24 24/90/25 69/91/25 68/92/24
f 24/93/25 25/94/26 70/95/26 69/96/25
f 25/97/26 26/98/27 71/99/27 70/100/26
f 26/101/27 27/102/28 72/103/28 71/104/27
f 27/105/28 28/106/29 73/107/29 72/108/28
f 28/109/29 29/110/30 74/111/30 73/112/29
f 29/113/30 30/114/31 75/115/31 74/116/30
f 30/117/31 31/118/32 76/119/32 75/120/31
f 31/121/32 32/122/33 77/123/33 76/124/32
f 32/125/33 33/126/34 78/127/34 77/128/33
f 33/129/34 34/130/35 79/131/35 78/132/34
f 34/133/35 35/134/36 80/135/36 79/136/35
f 35/137/36 36/138/37 81/139/37 80/140/36
f 36/141/37 37/142/38 82/143/38 81/144/37
f 37/145/38 38/146/39 83/147/39 82/148/38
f 38/149/40 39/150/40 84/151/40 83/152/40
f 39/153/41 40/154/41 85/155/41 84/156/41
f 40/157/42 41/158/42 86/159/42 85/160/42
f 41/161/43 42/162/43 87/163/43 86/164/43
f 42/165/44 43/166/45 88/167/45 87/168/44
f 43/169/45 44/170/46 89/171/46 88/172/45
f 44/173/47 45/174/47 90/175/47 89/176/47
f 45/177/48 1/178/48 46/179/48 90/180/48
f 91/181/49 92/182/50 117/183/50 116/184/49
f 92/185/50 93/186/51 118/187/51 117/188/50
f 93/189/51 94/190/52 119/191/52 118/192/51
f 94/193/52 95/194/53 120/195/53 119/196/52
f 95/197/53 96/198/54 121/199/54 120/200/53
f 96/201/54 97/202/55 122/203/55 121/204/54
f 97/205/55 98/206/56 123/207/56 122/208/55
f 98/209/56 99/210/57 124/211/57 123/212/56
f 99/213/57 100/214/58 125/215/58 124/216/57
f 100/217/58 101/218/59 126/219/59 125/220/58
f 101/221/59 102/222/60 127/223/60 126/224/59
f 102/225/60 103/226/61 128/227/61 127/228/60
f 103/229/61 104/230/62 129/231/62 128/232/61
f 104/233/62 105/234/63 130/235/63 129/236/62
f 105/237/63 106/238/64 131/239/64 130/240/63
f 106/241/64 107/242/65 132/243/65 131/244/64
f 107/245/65 108/246/66 133/247/66 132/248/65
f 108/249/66 109/250/67 134/251/67 133/252/66
f 109/253/67 110/254/68 135/255/68 134/256/67
f 110/257/68 111/258/69 136/259/69 135/260/68
f 111/261/69 112/262/70 137/263/70 136/264/69
f 112/265/70 113/266/71 138/267/71 137/268/70
f 113/269/71 114/270/72 139/271/72 138/272/71
f 114/273/72 115/274/73 140/275/73 139/276/72
f 115/277/73 91/278/49 116/279/49 140/280/73
f 142/281/74 141/282/74 185/283/74
f 143/284/74 142/285/74 185/286/74
f 144/287/74 143/288/74 185/289/74
f 147/290/74 146/291/74 145/292/74
f 148/293/74 147/294/74 145/295/74
f 149/296/74 148/297/74 145/298/74
f 150/299/74 149/300/74 145/301/74
f 151/302/74 150/303/74 145/304/74
f 152/305/74 151/306/74 145/307/74
f 153/308/74 152/309/74 145/310/74
f 154/311/74 153/312/74 145/313/74
f 155/314/74 154/315/74 145/316/74
f 156/317/74 155/318/74 145/319/74
f 157/320/74 156/321/74 145/322/74
f 158/323/74 157/324/74 145/325/74
f 159/326/74 158/327/74 145/328/74
f 160/329/74 159/330/74 145/331/74
f 161/332/74 160/333/74 145/334/74
f 163/335/74 162/336/74 161/337/74
f 164/338/74 163/339/74 161/340/74
f 165/341/74 164/342/74 161/343/74
f 166/344/74 165/345/74 161/346/74
f 167/347/74 166/348/74 161/349/74
f 168/350/74 167/351/74 161/352/74
f 169/353/74 168/354/74 161/355/74
f 170/356/74 169/357/74 161/358/74
f 171/359/74 170/360/74 161/361/74
f 172/362/74 171/363/74 161/364/74
f 173/365/74 172/366/74 161/367/74
f 174/368/74 173/369/74 161/370/74
f 175/371/74 174/372/74 161/373/74
f 176/374/74 175/375/74 161/376/74
f 177/377/74 176/378/74 161/379/74
f 178/380/74 177/381/74 161/382/74
f 180/383/74 179/384/74 178/385/74
f 181/386/74 180/387/74 178/388/74
f 182/389/74 181/390/74 178/391/74
f 182/392/74 178/393/74 161/394/74
f 184/395/74 183/396/74 182/397/74
f 208/398/74 207/399/74 184/400/74
f 208/401/74 184/402/74 182/403/74
f 209/404/74 208/405/74 182/406/74
f 210/407/74 209/408/74 182/409/74
f 186/410/74 210/411/74 182/412/74
f 187/413/74 186/414/74 182/415/74
f 188/416/74 187/417/74 182/418/74
f 189/419/74 188/420/74 182/421/74
f 190/422/74 189/423/74 182/424/74
f 190/425/74 182/426/74 161/427/74
f 191/428/74 190/429/74 161/430/74
f 192/431/74 191/432/74 161/433/74
f 193/434/74 192/435/74 161/436/74
f 194/437/74 193/438/74 161/439/74
f 195/440/74 194/441/74 161/442/74
f 196/443/74 195/444/74 161/445/74
f 197/446/74 196/447/74 161/448/74
f 198/449/74 197/450/74 161/451/74
f 198/452/74 161/453/74 145/454/74
f 199/455/74 198/456/74 145/457/74
f 200/458/74 199/459/74 145/460/74
f 201/461/74 200/462/74 145/463/74
f 201/464/74 145/465/74 144/466/74
f 202/467/74 201/468/74 144/469/74
f 203/470/74 202/471/74 144/472/74
f 204/473/74 203/474/74 144/475/74
f 205/476/74 204/477/74 144/478/74
f 206/479/74 205/480/74 144/481/74
f 207/482/74 206/483/74 144/484/74
f 207/485/74 144/486/74 185/487/74
f 185/488/74 184/489/74 207/490/74
f 255/491/75 211/492/75 212/493/75
f 255/494/75 212/495/75 213/496/75
f 255/497/75 213/498/75 214/499/75
f 215/500/75 216/501/75 217/502/75
f 215/503/75 217/504/75 218/505/75
f 215/506/75 218/507/75 219/508/75
f 215/509/75 219/510/75 220/511/75
f 215/512/75 220/513/75 221/514/75
f 215/515/75 221/516/75 222/517/75
f 215/518/75 222/519/75 223/520/75
f 215/521/75 223/522/75 224/523/75
f 215/524/75 224/525/75 225/526/75
f 215/527/75 225/528/75 226/529/75
f 215/530/75 226/531/75 227/532/75
f 215/533/75 227/534/75 228/535/75
f 215/536/75 228/537/75 229/538/75
f 215/539/75 229/540/75 230/541/75
f 215/542/75 230/543/75 231/544/75
f 231/545/75 232/546/75 233/547/75
f 231/548/75 233/549/75 234/550/75
f 231/551/75 234/552/75 235/553/75
f 231/554/75 235/555/75 236/556/75
f 231/557/75 236/558/75 237/559/75
f 231/560/75 237/561/75 238/562/75
f 231/563/75 238/564/75 239/565/75
f 231/566/75 239/567/75 240/568/75
f 231/569/75 240/570/75 241/571/75
f 231/572/75 241/573/75 242/574/75
f 231/575/75 242/576/75 243/577/75
f 231/578/75 243/579/75 244/580/75
f 231/581/75 244/582/75 245/583/75
f 231/584/75 245/585/75 246/586/75
f 231/587/75 246/588/75 247/589/75
f 231/590/75 247/591/75 248/592/75
f 248/593/75 249/594/75 250/595/75
f 248/596/75 250/597/75 251/598/75
f 248/599/75 251/600/75 252/601/75
f 231/602/75 248/603/75 252/604/75
f 252/605/75 253/606/75 254/607/75
f 254/608/75 277/609/75 278/610/75
f 252/611/75 254/612/75 278/613/75
f 252/614/75 278/615/75 279/616/75
f 252/617/75 279/618/75 280/619/75
f 252/620/75 280/621/75 256/622/75
f 252/623/75 256/624/75 257/625/75
f 252/626/75 257/627/75 258/628/75
f 252/629/75 258/630/75 259/631/75
f 252/632/75 259/633/75 260/634/75
f 231/635/75 252/636/75 260/637/75
f 231/638/75 260/639/75 261/640/75
f 231/641/75 261/642/75 262/643/75
f 231/644/75 262/645/75 263/646/75
f 231/647/75 263/648/75 264/649/75
f 231/650/75 264/651/75 265/652/75
f 231/653/75 265/654/75 266/655/75
f 231/656/75 266/657/75 267/658/75
f 231/659/75 267/660/75 268/661/75
f 215/662/75 231/663/75 268/664/75
f 215/665/75 268/666/75 269/667/75
f 215/668/75 269/669/75 270/670/75
f 215/671/75 270/672/75 271/673/75
f 214/674/75 215/675/75 271/676/75
f 214/677/75 271/678/75 272/679/75
f 214/680/75 272/681/75 273/682/75
f 214/683/75 273/684/75 274/685/75
f 214/686/75 274/687/75 275/688/75
f 214/689/75 275/690/75 276/691/75
f 214/692/75 276/693/75 277/694/75
f 255/695/75 214/696/75 277/697/75
f 277/698/75 254/699/75 255/700/75
o R_face_lit
usemtl letters_nz_glow
v 0.7913 0.124156 0.8726
v 0.791228 0.8763 0.8726
v 0.641557 0.8763 0.8726
v 0.637522 0.874964 0.8726
v 0.615328 0.8763 0.8726
v 0.395438 0.876038 0.8726
v 0.371589 0.873102 0.8726
v 0.349742 0.867413 0.8726
v 0.32789 0.85854 0.8726
v 0.306983 0.846537 0.8726
v 0.294119 0.837063 0.8726
v 0.2822 0.826496 0.8726
v 0.271171 0.814763 0.8726
v 0.260399 0.800855 0.8726
v 0.251635 0.78695 0.8726
v 0.244545 0.773045 0.8726
v 0.238918 0.759143 0.8726
v 0.234089 0.743252 0.8726
v 0.230537 0.72537 0.8726
v 0.22886 0.707486 0.8726
v 0.228706 0.613588 0.8726
v 0.230525 0.589713 0.8726
v 0.235123 0.567852 0.8726
v 0.239606 0.55396 0.8726
v 0.245425 0.540054 0.8726
v 0.252403 0.526711 0.8726
v 0.260349 0.514217 0.8726
v 0.269418 0.502313 0.8726
v 0.280214 0.490463 0.8726
v 0.292134 0.479567 0.8726
v 0.303943 0.470541 0.8726
v 0.327909 0.456451 0.8726
v 0.341795 0.450421 0.8726
v 0.35568 0.445741 0.8726
v 0.381541 0.44027 0.8726
v 0.397422 0.438864 0.8726
v 0.423812 0.438606 0.8726
v 0.220963 0.123699 0.8726
v 0.402708 0.124195 0.8726
v 0.598551 0.428076 0.8726
v 0.59903 0.429431 0.8726
v 0.598459 0.430452 0.8726
v 0.591514 0.435019 0.8726
v 0.592438 0.438417 0.8726
v 0.638695 0.439986 0.8726
v 0.639283 0.123694 0.8726
v 0.7925 0.12296 0.8738
v 0.792428 0.8775 0.8738
v 0.641363 0.8775 0.8738
v 0.637363 0.876176 0.8738
v 0.615363 0.8775 0.8738
v 0.395363 0.877238 0.8738
v 0.371363 0.874284 0.8738
v 0.349363 0.868555 0.8738
v 0.327363 0.859621 0.8738
v 0.306327 0.847544 0.8738
v 0.293363 0.837997 0.8738
v 0.281363 0.827358 0.8738
v 0.270258 0.815544 0.8738
v 0.259415 0.801544 0.8738
v 0.250591 0.787544 0.8738
v 0.243453 0.773544 0.8738
v 0.237785 0.759544 0.8738
v 0.232924 0.743544 0.8738
v 0.229348 0.725544 0.8738
v 0.22766 0.707544 0.8738
v 0.227506 0.613544 0.8738
v 0.229335 0.589544 0.8738
v 0.233962 0.567544 0.8738
v 0.238479 0.553544 0.8738
v 0.244338 0.539544 0.8738
v 0.251363 0.52611 0.8738
v 0.259363 0.51353 0.8738
v 0.268495 0.501544 0.8738
v 0.279363 0.489614 0.8738
v 0.291363 0.478645 0.8738
v 0.303272 0.469544 0.8738
v 0.327363 0.455379 0.8738
v 0.341363 0.4493 0.8738
v 0.355363 0.444582 0.8738
v 0.381363 0.439081 0.8738
v 0.397363 0.437664 0.8738
v 0.421625 0.437427 0.8738
v 0.218759 0.122493 0.8738
v 0.403363 0.122997 0.8738
v 0.599636 0.427544 0.8738
v 0.600343 0.429544 0.8738
v 0.599363 0.431293 0.8738
v 0.5929 0.435544 0.8738
v 0.593363 0.437247 0.8738
v 0.637498 0.438744 0.8738
v 0.638085 0.12249 0.8738
v 0.7925 0.12296 0.8784
v 0.792428 0.8775 0.8784
v 0.641363 0.8775 0.8784
v 0.637363 0.876176 0.8784
v 0.615363 0.8775 0.8784
v 0.395363 0.877238 0.8784
v 0.371363 0.874284 0.8784
v 0.349363 0.868555 0.8784
v 0.327363 0.859621 0.8784
v 0.306327 0.847544 0.8784
v 0.293363 0.837997 0.8784
v 0.281363 0.827358 0.8784
v 0.270258 0.815544 0.8784
v 0.259415 0.801544 0.8784
v 0.250591 0.787544 0.8784
v 0.243453 0.773544 0.8784
v 0.237785 0.759544 0.8784
v 0.232924 0.743544 0.8784
v 0.229348 0.725544 0.8784
v 0.22766 0.707544 0.8784
v 0.227506 0.613544 0.8784
v 0.229335 0.589544 0.8784
v 0.233962 0.567544 0.8784
v 0.238479 0.553544 0.8784
v 0.244338 0.539544 0.8784
v 0.251363 0.52611 0.8784
v 0.259363 0.51353 0.8784
v 0.268495 0.501544 0.8784
v 0.279363 0.489614 0.8784
v 0.291363 0.478645 0.8784
v 0.303272 0.469544 0.8784
v 0.327363 0.455379 0.8784
v 0.341363 0.4493 0.8784
v 0.355363 0.444582 0.8784
v 0.381363 0.439081 0.8784
v 0.397363 0.437664 0.8784
v 0.421625 0.437427 0.8784
v 0.218759 0.122493 0.8784
v 0.403363 0.122997 0.8784
v 0.599636 0.427544 0.8784
v 0.600343 0.429544 0.8784
v 0.599363 0.431293 0.8784
v 0.5929 0.435544 0.8784
v 0.593363 0.437247 0.8784
v 0.637498 0.438744 0.8784
v 0.638085 0.12249 0.8784
v 0.7913 0.124156 0.8796
v 0.791228 0.8763 0.8796
v 0.641557 0.8763 0.8796
v 0.637522 0.874964 0.8796
v 0.615328 0.8763 0.8796
v 0.395438 0.876038 0.8796
v 0.371589 0.873102 0.8796
v 0.349742 0.867413 0.8796
v 0.32789 0.85854 0.8796
v 0.306983 0.846537 0.8796
v 0.294119 0.837063 0.8796
v 0.2822 0.826496 0.8796
v 0.271171 0.814763 0.8796
v 0.260399 0.800855 0.8796
v 0.251635 0.78695 0.8796
v 0.244545 0.773045 0.8796
v 0.238918 0.759143 0.8796
v 0.234089 0.743252 0.8796
v 0.230537 0.72537 0.8796
v 0.22886 0.707486 0.8796
v 0.228706 0.613588 0.8796
v 0.230525 0.589713 0.8796
v 0.235123 0.567852 0.8796
v 0.239606 0.55396 0.8796
v 0.245425 0.540054 0.8796
v 0.252403 0.526711 0.8796
v 0.260349 0.514217 0.8796
v 0.269418 0.502313 0.8796
v 0.280214 0.490463 0.8796
v 0.292134 0.479567 0.8796
v 0.303943 0.470541 0.8796
v 0.327909 0.456451 0.8796
v 0.341795 0.450421 0.8796
v 0.35568 0.445741 0.8796
v 0.381541 0.44027 0.8796
v 0.397422 0.438864 0.8796
v 0.423812 0.438606 0.8796
v 0.220963 0.123699 0.8796
v 0.402708 0.124195 0.8796
v 0.598551 0.428076 0.8796
v 0.59903 0.429431 0.8796
v 0.598459 0.430452 0.8796
v 0.591514 0.435019 0.8796
v 0.592438 0.438417 0.8796
v 0.638695 0.439986 0.8796
v 0.639283 0.123694 0.8796
v 0.622093 0.592387 0.8726
v 0.615461 0.591303 0.8726
v 0.405235 0.5913 0.8726
v 0.394901 0.593545 0.8726
v 0.390056 0.596607 0.8726
v 0.385993 0.600832 0.8726
v 0.382632 0.607133 0.8726
v 0.381347 0.613422 0.8726
v 0.3813 0.69967 0.8726
v 0.383498 0.709998 0.8726
v 0.386419 0.714712 0.8726
v 0.390642 0.718864 0.8726
v 0.396942 0.7223 0.8726
v 0.403237 0.72364 0.8726
v 0.615513 0.723697 0.8726
v 0.625856 0.721081 0.8726
v 0.630147 0.718234 0.8726
v 0.634354 0.713676 0.8726
v 0.637332 0.707958 0.8726
v 0.638563 0.702414 0.8726
v 0.638653 0.613423 0.8726
v 0.637367 0.607133 0.8726
v 0.633993 0.600805 0.8726
v 0.628048 0.595205 0.8726
v 0.621733 0.593544 0.8738
v 0.615363 0.592503 0.8738
v 0.405363 0.5925 0.8738
v 0.395363 0.594673 0.8738
v 0.39082 0.597544 0.8738
v 0.386973 0.601544 0.8738
v 0.383773 0.607544 0.8738
v 0.382547 0.613544 0.8738
v 0.3825 0.699544 0.8738
v 0.384628 0.709544 0.8738
v 0.387363 0.713957 0.8738
v 0.391363 0.717891 0.8738
v 0.397363 0.721163 0.8738
v 0.403363 0.72244 0.8738
v 0.615363 0.722497 0.8738
v 0.625363 0.719968 0.8738
v 0.629363 0.717314 0.8738
v 0.633363 0.71298 0.8738
v 0.636195 0.707544 0.8738
v 0.637363 0.702282 0.8738
v 0.637453 0.613544 0.8738
v 0.636226 0.607544 0.8738
v 0.633027 0.601544 0.8738
v 0.627363 0.596208 0.8738
v 0.621733 0.593544 0.8784
v 0.615363 0.592503 0.8784
v 0.405363 0.5925 0.8784
v 0.395363 0.594673 0.8784
v 0.39082 0.597544 0.8784
v 0.386973 0.601544 0.8784
v 0.383773 0.607544 0.8784
v 0.382547 0.613544 0.8784
v 0.3825 0.699544 0.8784
v 0.384628 0.709544 0.8784
v 0.387363 0.713957 0.8784
v 0.391363 0.717891 0.8784
v 0.397363 0.721163 0.8784
v 0.403363 0.72244 0.8784
v 0.615363 0.722497 0.8784
v 0.625363 0.719968 0.8784
v 0.629363 0.717314 0.8784
v 0.633363 0.71298 0.8784
v 0.636195 0.707544 0.8784
v 0.637363 0.702282 0.8784
v 0.637453 0.613544 0.8784
v 0.636226 0.607544 0.8784
v 0.633027 0.601544 0.8784
v 0.627363 0.596208 0.8784
v 0.622093 0.592387 0.8796
v 0.615461 0.591303 0.8796
v 0.405235 0.5913 0.8796
v 0.394901 0.593545 0.8796
v 0.390056 0.596607 0.8796
v 0.385993 0.600832 0.8796
v 0.382632 0.607133 0.8796
v 0.381347 0.613422 0.8796
v 0.3813 0.69967 0.8796
v 0.383498 0.709998 0.8796
v 0.386419 0.714712 0.8796
v 0.390642 0.718864 0.8796
v 0.396942 0.7223 0.8796
v 0.403237 0.72364 0.8796
v 0.615513 0.723697 0.8796
v 0.625856 0.721081 0.8796
v 0.630147 0.718234 0.8796
v 0.634354 0.713676 0.8796
v 0.637332 0.707958 0.8796
v 0.638563 0.702414 0.8796
v 0.638653 0.613423 0.8796
v 0.637367 0.607133 0.8796
v 0.633993 0.600805 0.8796
v 0.628048 0.595205 0.8796
v 0.7913 0.124156 0.8726
v 0.791228 0.8763 0.8726
v 0.641557 0.8763 0.8726
v 0.637522 0.874964 0.8726
v 0.615328 0.8763 0.8726
v 0.395438 0.876038 0.8726
v 0.371589 0.873102 0.8726
v 0.349742 0.867413 0.8726
v 0.32789 0.85854 0.8726
v 0.306983 0.846537 0.8726
v 0.294119 0.837063 0.8726
v 0.2822 0.826496 0.8726
v 0.271171 0.814763 0.8726
v 0.260399 0.800855 0.8726
v 0.251635 0.78695 0.8726
v 0.244545 0.773045 0.8726
v 0.238918 0.759143 0.8726
v 0.234089 0.743252 0.8726
v 0.230537 0.72537 0.8726
v 0.22886 0.707486 0.8726
v 0.228706 0.613588 0.8726
v 0.230525 0.589713 0.8726
v 0.235123 0.567852 0.8726
v 0.239606 0.55396 0.8726
v 0.245425 0.540054 0.8726
v 0.252403 0.526711 0.8726
v 0.260349 0.514217 0.8726
v 0.269418 0.502313 0.8726
v 0.280214 0.490463 0.8726
v 0.292134 0.479567 0.8726
v 0.303943 0.470541 0.8726
v 0.327909 0.456451 0.8726
v 0.341795 0.450421 0.8726
v 0.35568 0.445741 0.8726
v 0.381541 0.44027 0.8726
v 0.397422 0.438864 0.8726
v 0.423812 0.438606 0.8726
v 0.220963 0.123699 0.8726
v 0.402708 0.124195 0.8726
v 0.598551 0.428076 0.8726
v 0.59903 0.429431 0.8726
v 0.598459 0.430452 0.8726
v 0.591514 0.435019 0.8726
v 0.592438 0.438417 0.8726
v 0.638695 0.439986 0.8726
v 0.639283 0.123694 0.8726
v 0.622093 0.592387 0.8726
v 0.615461 0.591303 0.8726
v 0.405235 0.5913 0.8726
v 0.394901 0.593545 0.8726
v 0.390056 0.596607 0.8726
v 0.385993 0.600832 0.8726
v 0.382632 0.607133 0.8726
v 0.381347 0.613422 0.8726
v 0.3813 0.69967 0.8726
v 0.383498 0.709998 0.8726
v 0.386419 0.714712 0.8726
v 0.390642 0.718864 0.8726
v 0.396942 0.7223 0.8726
v 0.403237 0.72364 0.8726
v 0.615513 0.723697 0.8726
v 0.625856 0.721081 0.8726
v 0.630147 0.718234 0.8726
v 0.634354 0.713676 0.8726
v 0.637332 0.707958 0.8726
v 0.638563 0.702414 0.8726
v 0.638653 0.613423 0.8726
v 0.637367 0.607133 0.8726
v 0.633993 0.600805 0.8726
v 0.628048 0.595205 0.8726
v 0.7913 0.124156 0.8796
v 0.791228 0.8763 0.8796
v 0.641557 0.8763 0.8796
v 0.637522 0.874964 0.8796
v 0.615328 0.8763 0.8796
v 0.395438 0.876038 0.8796
v 0.371589 0.873102 0.8796
v 0.349742 0.867413 0.8796
v 0.32789 0.85854 0.8796
v 0.306983 0.846537 0.8796
v 0.294119 0.837063 0.8796
v 0.2822 0.826496 0.8796
v 0.271171 0.814763 0.8796
v 0.260399 0.800855 0.8796
v 0.251635 0.78695 0.8796
v 0.244545 0.773045 0.8796
v 0.238918 0.759143 0.8796
v 0.234089 0.743252 0.8796
v 0.230537 0.72537 0.8796
v 0.22886 0.707486 0.8796
v 0.228706 0.613588 0.8796
v 0.230525 0.589713 0.8796
v 0.235123 0.567852 0.8796
v 0.239606 0.55396 0.8796
v 0.245425 0.540054 0.8796
v 0.252403 0.526711 0.8796
v 0.260349 0.514217 0.8796
v 0.269418 0.502313 0.8796
v 0.280214 0.490463 0.8796
v 0.292134 0.479567 0.8796
v 0.303943 0.470541 0.8796
v 0.327909 0.456451 0.8796
v 0.341795 0.450421 0.8796
v 0.35568 0.445741 0.8796
v 0.381541 0.44027 0.8796
v 0.397422 0.438864 0.8796
v 0.423812 0.438606 0.8796
v 0.220963 0.123699 0.8796
v 0.402708 0.124195 0.8796
v 0.598551 0.428076 0.8796
v 0.59903 0.429431 0.8796
v 0.598459 0.430452 0.8796
v 0.591514 0.435019 0.8796
v 0.592438 0.438417 0.8796
v 0.638695 0.439986 0.8796
v 0.639283 0.123694 0.8796
v 0.622093 0.592387 0.8796
v 0.615461 0.591303 0.8796
v 0.405235 0.5913 0.8796
v 0.394901 0.593545 0.8796
v 0.390056 0.596607 0.8796
v 0.385993 0.600832 0.8796
v 0.382632 0.607133 0.8796
v 0.381347 0.613422 0.8796
v 0.3813 0.69967 0.8796
v 0.383498 0.709998 0.8796
v 0.386419 0.714712 0.8796
v 0.390642 0.718864 0.8796
v 0.396942 0.7223 0.8796
v 0.403237 0.72364 0.8796
v 0.615513 0.723697 0.8796
v 0.625856 0.721081 0.8796
v 0.630147 0.718234 0.8796
v 0.634354 0.713676 0.8796
v 0.637332 0.707958 0.8796
v 0.638563 0.702414 0.8796
v 0.638653 0.613423 0.8796
v 0.637367 0.607133 0.8796
v 0.633993 0.600805 0.8796
v 0.628048 0.595205 0.8796
vt 0.453021 0.238815
vt 0.541163 0.238815
vt 0.541304 0.239014
vt 0.452881 0.239014
vt 0.667886 0.295909
vt 0.685202 0.297896
vt 0.685202 0.298096
vt 0.667725 0.29609
vt 0.685202 0.297896
vt 0.685694 0.297839
vt 0.685689 0.29804
vt 0.685202 0.298096
vt 0.791261 0.300312
vt 0.793815 0.300682
vt 0.793791 0.300879
vt 0.79126 0.300513
vt 0.793815 0.300682
vt 0.819333 0.303231
vt 0.819322 0.30343
vt 0.793791 0.300879
vt 0.819333 0.303231
vt 0.822148 0.303268
vt 0.822155 0.303467
vt 0.819322 0.30343
vt 0.822148 0.303268
vt 0.824777 0.303053
vt 0.824802 0.303251
vt 0.822155 0.303467
vt 0.824777 0.303053
vt 0.827458 0.302576
vt 0.827501 0.30277
vt 0.824802 0.303251
vt 0.043745 0.285933
vt 0.046483 0.286428
vt 0.046456 0.286625
vt 0.043701 0.286128
vt 0.046483 0.286428
vt 0.048339 0.286607
vt 0.048326 0.286806
vt 0.046456 0.286625
vt 0.048339 0.286607
vt 0.050203 0.286666
vt 0.050203 0.286865
vt 0.048326 0.286806
vt 0.050203 0.286666
vt 0.052088 0.286604
vt 0.052102 0.286802
vt 0.050203 0.286865
vt 0.052088 0.286604
vt 0.054129 0.286396
vt 0.054156 0.286593
vt 0.052102 0.286802
vt 0.054129 0.286396
vt 0.056001 0.286071
vt 0.05604 0.286266
vt 0.054156 0.286593
vt 0.478798 0.297343
vt 0.480579 0.297641
vt 0.480552 0.297839
vt 0.47876 0.297538
vt 0.480579 0.297641
vt 0.482318 0.297821
vt 0.482304 0.29802
vt 0.480552 0.297839
vt 0.482318 0.297821
vt 0.484261 0.297897
vt 0.484261 0.298096
vt 0.482304 0.29802
vt 0.484261 0.297897
vt 0.486396 0.297829
vt 0.486409 0.298028
vt 0.484261 0.298096
vt 0.486396 0.297829
vt 0.488478 0.29761
vt 0.488505 0.297807
vt 0.486409 0.298028
vt 0.488478 0.29761
vt 0.499169 0.295757
vt 0.499208 0.295953
vt 0.488505 0.297807
vt 0.952923 0.288793
vt 0.955631 0.289315
vt 0.955604 0.289512
vt 0.952881 0.288988
vt 0.955631 0.289315
vt 0.958226 0.289562
vt 0.958215 0.28976
vt 0.955604 0.289512
vt 0.958226 0.289562
vt 0.959936 0.289596
vt 0.959938 0.289795
vt 0.958215 0.28976
vt 0.959936 0.289596
vt 0.9617 0.289525
vt 0.961714 0.289724
vt 0.959938 0.289795
vt 0.9617 0.289525
vt 0.963447 0.289348
vt 0.963473 0.289545
vt 0.961714 0.289724
vt 0.963447 0.289348
vt 0.965138 0.289071
vt 0.965175 0.289266
vt 0.963473 0.289545
vt 0.944123 0.283861
vt 0.945847 0.284089
vt 0.945828 0.284287
vt 0.944092 0.284057
vt 0.945847 0.284089
vt 0.947717 0.284218
vt 0.94771 0.284417
vt 0.945828 0.284287
vt 0.947717 0.284218
vt 0.94961 0.284225
vt 0.949615 0.284424
vt 0.94771 0.284417
vt 0.94961 0.284225
vt 0.951346 0.284123
vt 0.951366 0.284321
vt 0.949615 0.284424
vt 0.951346 0.284123
vt 0.954536 0.283654
vt 0.954573 0.28385
vt 0.951366 0.284321
vt 0.782996 0.28383
vt 0.784734 0.284082
vt 0.784711 0.28428
vt 0.782959 0.284025
vt 0.784734 0.284082
vt 0.786439 0.284224
vt 0.786431 0.284423
vt 0.784711 0.28428
vt 0.786439 0.284224
vt 0.789537 0.284225
vt 0.789545 0.284424
vt 0.786431 0.284423
vt 0.789537 0.284225
vt 0.791392 0.284066
vt 0.791414 0.284264
vt 0.789545 0.284424
vt 0.791392 0.284066
vt 0.794424 0.283632
vt 0.794202 0.283865
vt 0.791414 0.284264
vt 0.635986 0.24858
vt 0.679883 0.24858
vt 0.680142 0.248779
vt 0.636241 0.248779
vt 0.866714 0.234909
vt 0.888012 0.234909
vt 0.888088 0.235107
vt 0.866455 0.235107
vt 0.149262 0.299776
vt 0.191341 0.303267
vt 0.191341 0.303467
vt 0.14917 0.299968
vt 0.191341 0.303267
vt 0.191509 0.303253
vt 0.191588 0.303446
vt 0.191341 0.303467
vt 0.656558 0.240768
vt 0.656695 0.240768
vt 0.656729 0.240967
vt 0.656494 0.240967
vt 0.773716 0.234909
vt 0.77469 0.234909
vt 0.774588 0.235107
vt 0.773682 0.235107
vt 0.073975 0.232955
vt 0.074387 0.232955
vt 0.074283 0.233154
vt 0.074077 0.233154
vt 0.897705 0.231002
vt 0.903129 0.231002
vt 0.902984 0.231201
vt 0.897809 0.231201
vt 0.131592 0.231002
vt 0.168657 0.231002
vt 0.168798 0.231201
vt 0.131737 0.231201
vt 0.001361 0.232955
vt 0.019176 0.232955
vt 0.019316 0.233154
vt 0.001221 0.233154
vt 0.728271 0.279002
vt 0.816694 0.279002
vt 0.816694 0.279541
vt 0.728271 0.279541
vt 0.718018 0.259471
vt 0.73572 0.259471
vt 0.73572 0.26001
vt 0.718018 0.26001
vt 0.764404 0.255127
vt 0.764404 0.254633
vt 0.764943 0.254633
vt 0.764943 0.255127
vt 0.036865 0.264354
vt 0.039423 0.264354
vt 0.039423 0.264893
vt 0.036865 0.264893
vt 0.039423 0.264354
vt 0.065125 0.264354
vt 0.065125 0.264893
vt 0.039423 0.264893
vt 0.065125 0.264354
vt 0.067956 0.264354
vt 0.067956 0.264893
vt 0.065125 0.264893
vt 0.067956 0.264354
vt 0.07058 0.264354
vt 0.07058 0.264893
vt 0.067956 0.264893
vt 0.673584 0.257029
vt 0.676321 0.257029
vt 0.676321 0.257568
vt 0.673584 0.257568
vt 0.676321 0.257029
vt 0.679161 0.257029
vt 0.679161 0.257568
vt 0.676321 0.257568
vt 0.679161 0.257029
vt 0.681043 0.257029
vt 0.681043 0.257568
vt 0.679161 0.257568
vt 0.681043 0.257029
vt 0.682899 0.257029
vt 0.682899 0.257568
vt 0.681043 0.257568
vt 0.879639 0.257029
vt 0.88152 0.257029
vt 0.88152 0.257568
vt 0.879639 0.257568
vt 0.88152 0.257029
vt 0.883592 0.257029
vt 0.883592 0.257568
vt 0.88152 0.257568
vt 0.883592 0.257029
vt 0.885529 0.257029
vt 0.885529 0.257568
vt 0.883592 0.257568
vt 0.885529 0.257029
vt 0.887353 0.257029
vt 0.887353 0.257568
vt 0.885529 0.257568
vt 0.860596 0.257029
vt 0.862348 0.257029
vt 0.862348 0.257568
vt 0.860596 0.257568
vt 0.862348 0.257029
vt 0.864305 0.257029
vt 0.864305 0.257568
vt 0.862348 0.257568
vt 0.864305 0.257029
vt 0.866453 0.257029
vt 0.866453 0.257568
vt 0.864305 0.257568
vt 0.866453 0.257029
vt 0.868548 0.257029
vt 0.868548 0.257568
vt 0.866453 0.257568
vt 0.639893 0.259471
vt 0.650784 0.259471
vt 0.650784 0.26001
vt 0.639893 0.26001
vt 0.650784 0.259471
vt 0.653598 0.259471
vt 0.653598 0.26001
vt 0.650784 0.26001
vt 0.653598 0.259471
vt 0.656228 0.259471
vt 0.656228 0.26001
vt 0.653598 0.26001
vt 0.656228 0.259471
vt 0.657929 0.259471
vt 0.657929 0.26001
vt 0.656228 0.26001
vt 0.717041 0.257029
vt 0.718794 0.257029
vt 0.718794 0.257568
vt 0.717041 0.257568
vt 0.718794 0.257029
vt 0.720564 0.257029
vt 0.720564 0.257568
vt 0.718794 0.257568
vt 0.720564 0.257029
vt 0.722311 0.257029
vt 0.722311 0.257568
vt 0.720564 0.257568
vt 0.722311 0.257029
vt 0.724071 0.257029
vt 0.724071 0.257568
vt 0.722311 0.257568
vt 0.724071 0.257029
vt 0.725934 0.257029
vt 0.725934 0.257568
vt 0.724071 0.257568
vt 0.759521 0.257029
vt 0.761403 0.257029
vt 0.761403 0.257568
vt 0.759521 0.257568
vt 0.761403 0.257029
vt 0.763156 0.257029
vt 0.763156 0.257568
vt 0.761403 0.257568
vt 0.763156 0.257029
vt 0.766426 0.257029
vt 0.766426 0.257568
vt 0.763156 0.257568
vt 0.766426 0.257029
vt 0.768188 0.257029
vt 0.768188 0.257568
vt 0.766426 0.257568
vt 0.651123 0.257029
vt 0.65283 0.257029
vt 0.65283 0.257568
vt 0.651123 0.257568
vt 0.65283 0.257029
vt 0.655941 0.257029
vt 0.655941 0.257568
vt 0.65283 0.257568
vt 0.655941 0.257029
vt 0.657818 0.257029
vt 0.657818 0.257568
vt 0.655941 0.257568
vt 0.657818 0.257029
vt 0.66063 0.257029
vt 0.66063 0.257568
vt 0.657818 0.257568
vt 0.511963 0.269236
vt 0.555863 0.269236
vt 0.555863 0.269775
vt 0.511963 0.269775
vt 0.422119 0.261912
vt 0.443753 0.261912
vt 0.443753 0.262451
vt 0.422119 0.262451
vt 0.601318 0.269236
vt 0.64349 0.269236
vt 0.64349 0.269775
vt 0.601318 0.269775
vt 0.64349 0.269236
vt 0.643737 0.269236
vt 0.643737 0.269775
vt 0.64349 0.269775
vt 0.406982 0.252686
vt 0.406982 0.252451
vt 0.407521 0.252451
vt 0.407521 0.252686
vt 0.445557 0.254588
vt 0.446463 0.254588
vt 0.446463 0.255127
vt 0.445557 0.255127
vt 0.411865 0.252686
vt 0.411865 0.252479
vt 0.412404 0.252479
vt 0.412404 0.252686
vt 0.071045 0.254588
vt 0.07622 0.254588
vt 0.07622 0.255127
vt 0.071045 0.255127
vt 0.371826 0.266795
vt 0.408887 0.266795
vt 0.408887 0.267334
vt 0.371826 0.267334
vt 0.482178 0.259471
vt 0.500273 0.259471
vt 0.500273 0.26001
vt 0.482178 0.26001
vt 0.633545 0.238815
vt 0.721968 0.238815
vt 0.721827 0.239014
vt 0.633685 0.239014
vt 0.706787 0.297914
vt 0.724264 0.295909
vt 0.724264 0.296109
vt 0.706948 0.298096
vt 0.724264 0.295909
vt 0.724752 0.295965
vt 0.724756 0.296165
vt 0.724264 0.296109
vt 0.715088 0.303266
vt 0.717619 0.3029
vt 0.717643 0.303097
vt 0.715089 0.303467
vt 0.717619 0.3029
vt 0.74315 0.300349
vt 0.743161 0.300548
vt 0.717643 0.303097
vt 0.74315 0.300349
vt 0.745983 0.300312
vt 0.745976 0.300511
vt 0.743161 0.300548
vt 0.745983 0.300312
vt 0.74863 0.300528
vt 0.748605 0.300726
vt 0.745976 0.300511
vt 0.74863 0.300528
vt 0.751329 0.301009
vt 0.751286 0.301203
vt 0.748605 0.300726
vt 0.015381 0.286671
vt 0.018136 0.286173
vt 0.018163 0.286371
vt 0.015425 0.286865
vt 0.018136 0.286173
vt 0.020006 0.285993
vt 0.020018 0.286191
vt 0.018163 0.286371
vt 0.020006 0.285993
vt 0.021883 0.285933
vt 0.021883 0.286132
vt 0.020018 0.286191
vt 0.021883 0.285933
vt 0.023781 0.285997
vt 0.023768 0.286195
vt 0.021883 0.286132
vt 0.023781 0.285997
vt 0.025835 0.286206
vt 0.025809 0.286403
vt 0.023768 0.286195
vt 0.025835 0.286206
vt 0.02772 0.286532
vt 0.02768 0.286727
vt 0.025809 0.286403
vt 0.522705 0.296315
vt 0.524498 0.296015
vt 0.524524 0.296212
vt 0.522744 0.29651
vt 0.524498 0.296015
vt 0.526249 0.295834
vt 0.526263 0.296032
vt 0.524524 0.296212
vt 0.526249 0.295834
vt 0.528206 0.295757
vt 0.528207 0.295956
vt 0.526263 0.296032
vt 0.528206 0.295757
vt 0.530355 0.295825
vt 0.530341 0.296024
vt 0.528207 0.295956
vt 0.530355 0.295825
vt 0.53245 0.296046
vt 0.532423 0.296243
vt 0.530341 0.296024
vt 0.53245 0.296046
vt 0.543153 0.297901
vt 0.543115 0.298096
vt 0.532423 0.296243
vt 0.924561 0.289601
vt 0.927283 0.289076
vt 0.927311 0.289273
vt 0.924603 0.289795
vt 0.927283 0.289076
vt 0.929895 0.288828
vt 0.929906 0.289026
vt 0.927311 0.289273
vt 0.929895 0.288828
vt 0.931618 0.288793
vt 0.931616 0.288992
vt 0.929906 0.289026
vt 0.931618 0.288793
vt 0.933394 0.288864
vt 0.93338 0.289063
vt 0.931616 0.288992
vt 0.933394 0.288864
vt 0.935152 0.289043
vt 0.935127 0.28924
vt 0.93338 0.289063
vt 0.935152 0.289043
vt 0.936855 0.289322
vt 0.936818 0.289517
vt 0.935127 0.28924
vt 0.919678 0.284021
vt 0.921414 0.283791
vt 0.921433 0.283989
vt 0.919709 0.284217
vt 0.921414 0.283791
vt 0.923296 0.283661
vt 0.923303 0.28386
vt 0.921433 0.283989
vt 0.923296 0.283661
vt 0.925201 0.283654
vt 0.925196 0.283853
vt 0.923303 0.28386
vt 0.925201 0.283654
vt 0.926952 0.283757
vt 0.926931 0.283955
vt 0.925196 0.283853
vt 0.926952 0.283757
vt 0.930159 0.284228
vt 0.930122 0.284424
vt 0.926931 0.283955
vt 0.809326 0.284031
vt 0.811079 0.283776
vt 0.811101 0.283974
vt 0.809363 0.284226
vt 0.811079 0.283776
vt 0.812798 0.283633
vt 0.812806 0.283832
vt 0.811101 0.283974
vt 0.812798 0.283633
vt 0.815912 0.283632
vt 0.815904 0.283831
vt 0.812806 0.283832
vt 0.815912 0.283632
vt 0.817781 0.283793
vt 0.817759 0.28399
vt 0.815904 0.283831
vt 0.817781 0.283793
vt 0.820569 0.284191
vt 0.820791 0.284424
vt 0.817759 0.28399
vt 0.140636 0.246627
vt 0.184536 0.246627
vt 0.184278 0.246826
vt 0.140381 0.246826
vt 0.684814 0.236862
vt 0.706448 0.236862
vt 0.706371 0.237061
vt 0.685073 0.237061
vt 0.061279 0.303275
vt 0.103451 0.299776
vt 0.103451 0.299975
vt 0.061372 0.303467
vt 0.103451 0.299776
vt 0.103697 0.299796
vt 0.103618 0.299989
vt 0.103451 0.299975
vt 0.934814 0.240768
vt 0.935049 0.240768
vt 0.935015 0.240967
vt 0.934878 0.240967
vt 0.779541 0.234909
vt 0.780447 0.234909
vt 0.780549 0.235107
vt 0.779575 0.235107
vt 0.784526 0.234909
vt 0.784733 0.234909
vt 0.784836 0.235107
vt 0.784424 0.235107
vt 0.067731 0.229049
vt 0.072906 0.229049
vt 0.073051 0.229248
vt 0.067627 0.229248
vt 0.1708 0.231002
vt 0.207861 0.231002
vt 0.20772 0.231201
vt 0.170654 0.231201
vt 0.449951 0.234909
vt 0.468047 0.234909
vt 0.467907 0.235107
vt 0.450092 0.235107
vt 0.046869 0.291564
vt 0.047655 0.291528
vt 0.047653 0.291727
vt 0.046898 0.291762
vt 0.047655 0.291528
vt 0.072175 0.293241
vt 0.072146 0.293438
vt 0.047653 0.291727
vt 0.072175 0.293241
vt 0.073355 0.293513
vt 0.073288 0.293701
vt 0.072146 0.293438
vt 0.401611 0.252488
vt 0.402278 0.25243
vt 0.402278 0.25263
vt 0.401653 0.252684
vt 0.402278 0.25243
vt 0.40296 0.252489
vt 0.402924 0.252686
vt 0.402278 0.25263
vt 0.682373 0.292001
vt 0.683182 0.291847
vt 0.683198 0.292046
vt 0.682428 0.292193
vt 0.683182 0.291847
vt 0.683934 0.291863
vt 0.683916 0.292061
vt 0.683198 0.292046
vt 0.683934 0.291863
vt 0.693775 0.293507
vt 0.693729 0.293701
vt 0.683916 0.292061
vt 0.211182 0.25249
vt 0.212401 0.252339
vt 0.212401 0.252539
vt 0.21122 0.252686
vt 0.212401 0.252339
vt 0.213041 0.252418
vt 0.213 0.252613
vt 0.212401 0.252539
vt 0.357178 0.252475
vt 0.357865 0.252407
vt 0.357865 0.252607
vt 0.357214 0.252671
vt 0.357865 0.252407
vt 0.358698 0.25249
vt 0.358658 0.252686
vt 0.357865 0.252607
vt 0.58667 0.254934
vt 0.587406 0.254815
vt 0.587422 0.255014
vt 0.586721 0.255127
vt 0.587406 0.254815
vt 0.61228 0.25459
vt 0.612264 0.254789
vt 0.587422 0.255014
vt 0.61228 0.25459
vt 0.613495 0.254798
vt 0.613439 0.25499
vt 0.612264 0.254789
vt 0.389893 0.252479
vt 0.390492 0.252427
vt 0.390492 0.252627
vt 0.389933 0.252675
vt 0.390492 0.252427
vt 0.391213 0.252489
vt 0.391178 0.252686
vt 0.390492 0.252627
vt 0.359619 0.29192
vt 0.360352 0.291788
vt 0.360368 0.291987
vt 0.359672 0.292112
vt 0.360352 0.291788
vt 0.361017 0.291795
vt 0.361 0.291994
vt 0.360368 0.291987
vt 0.361017 0.291795
vt 0.371166 0.293507
vt 0.37112 0.293701
vt 0.361 0.291994
vt 0.350342 0.252481
vt 0.351086 0.252404
vt 0.351086 0.252604
vt 0.350376 0.252677
vt 0.351086 0.252404
vt 0.351918 0.25249
vt 0.351875 0.252686
vt 0.351086 0.252604
vt 0.516846 0.242721
vt 0.517803 0.242721
vt 0.517781 0.24292
vt 0.516869 0.24292
vt 0.046143 0.291752
vt 0.046869 0.291564
vt 0.046898 0.291762
vt 0.046211 0.291939
vt 0.972412 0.264354
vt 0.973166 0.264354
vt 0.973166 0.264893
vt 0.972412 0.264893
vt 0.973166 0.264354
vt 0.997695 0.264354
vt 0.997695 0.264893
vt 0.973166 0.264893
vt 0.412842 0.254588
vt 0.414041 0.254588
vt 0.414041 0.255127
vt 0.412842 0.255127
vt 0.389404 0.254588
vt 0.39003 0.254588
vt 0.39003 0.255127
vt 0.389404 0.255127
vt 0.39003 0.254588
vt 0.390675 0.254588
vt 0.390675 0.255127
vt 0.39003 0.255127
vt 0.469971 0.254588
vt 0.470768 0.254588
vt 0.470768 0.255127
vt 0.469971 0.255127
vt 0.434326 0.257029
vt 0.43504 0.257029
vt 0.43504 0.257568
vt 0.434326 0.257568
vt 0.43504 0.257029
vt 0.445067 0.257029
vt 0.445067 0.257568
vt 0.43504 0.257568
vt 0.418701 0.254588
vt 0.419899 0.254588
vt 0.419899 0.255127
vt 0.418701 0.255127
vt 0.395264 0.254588
vt 0.395868 0.254588
vt 0.395868 0.255127
vt 0.395264 0.255127
vt 0.395868 0.254588
vt 0.396521 0.254588
vt 0.396521 0.255127
vt 0.395868 0.255127
vt 0.465088 0.254588
vt 0.465889 0.254588
vt 0.465889 0.255127
vt 0.465088 0.255127
vt 0.918213 0.264354
vt 0.918928 0.264354
vt 0.918928 0.264893
vt 0.918213 0.264893
vt 0.918928 0.264354
vt 0.943635 0.264354
vt 0.943635 0.264893
vt 0.918928 0.264893
vt 0.406982 0.254588
vt 0.408191 0.254588
vt 0.408191 0.255127
vt 0.406982 0.255127
vt 0.401123 0.254588
vt 0.401682 0.254588
vt 0.401682 0.255127
vt 0.401123 0.255127
vt 0.401682 0.254588
vt 0.402368 0.254588
vt 0.402368 0.255127
vt 0.401682 0.255127
vt 0.494385 0.254588
vt 0.495103 0.254588
vt 0.495103 0.255127
vt 0.494385 0.255127
vt 0.333252 0.257029
vt 0.33388 0.257029
vt 0.33388 0.257568
vt 0.333252 0.257568
vt 0.33388 0.257029
vt 0.344217 0.257029
vt 0.344217 0.257568
vt 0.33388 0.257568
vt 0.499268 0.254588
vt 0.499985 0.254588
vt 0.499985 0.255127
vt 0.499268 0.255127
vt 0.474854 0.254588
vt 0.47565 0.254588
vt 0.47565 0.255127
vt 0.474854 0.255127
vt 0.440674 0.254588
vt 0.441586 0.254588
vt 0.441586 0.255127
vt 0.440674 0.255127
vt 0.489502 0.254588
vt 0.490232 0.254588
vt 0.490232 0.255127
vt 0.489502 0.255127
vt 0.104515 0.293467
vt 0.10527 0.293502
vt 0.105272 0.293701
vt 0.104486 0.293665
vt 0.10527 0.293502
vt 0.129763 0.291791
vt 0.129792 0.291988
vt 0.105272 0.293701
vt 0.129763 0.291791
vt 0.130905 0.291528
vt 0.130972 0.291716
vt 0.129792 0.291988
vt 0.395794 0.252432
vt 0.396419 0.252486
vt 0.396419 0.252686
vt 0.395752 0.252628
vt 0.396419 0.252486
vt 0.397064 0.25243
vt 0.397101 0.252627
vt 0.396419 0.252686
vt 0.656061 0.293356
vt 0.656831 0.293502
vt 0.656815 0.293701
vt 0.656006 0.293548
vt 0.656831 0.293502
vt 0.657548 0.293487
vt 0.657567 0.293686
vt 0.656815 0.293701
vt 0.657548 0.293487
vt 0.667361 0.291847
vt 0.667408 0.292041
vt 0.657567 0.293686
vt 0.204384 0.252339
vt 0.205565 0.252485
vt 0.205565 0.252686
vt 0.204346 0.252534
vt 0.205565 0.252485
vt 0.206164 0.252411
vt 0.206205 0.252606
vt 0.205565 0.252686
vt 0.36405 0.252421
vt 0.364701 0.252486
vt 0.364701 0.252686
vt 0.364014 0.252617
vt 0.364701 0.252486
vt 0.365494 0.252407
vt 0.365534 0.252603
vt 0.364701 0.252686
vt 0.53008 0.25459
vt 0.530781 0.254703
vt 0.530765 0.254902
vt 0.530029 0.254783
vt 0.530781 0.254703
vt 0.555623 0.254928
vt 0.555639 0.255127
vt 0.530765 0.254902
vt 0.555623 0.254928
vt 0.556799 0.254727
vt 0.556855 0.254919
vt 0.555639 0.255127
vt 0.384074 0.252438
vt 0.384632 0.252486
vt 0.384632 0.252686
vt 0.384033 0.252634
vt 0.384632 0.252486
vt 0.385319 0.252427
vt 0.385354 0.252624
vt 0.384632 0.252686
vt 0.333305 0.293377
vt 0.334001 0.293502
vt 0.333985 0.293701
vt 0.333252 0.293569
vt 0.334001 0.293502
vt 0.334633 0.293496
vt 0.33465 0.293694
vt 0.333985 0.293701
vt 0.334633 0.293496
vt 0.344753 0.291788
vt 0.344799 0.291982
vt 0.33465 0.293694
vt 0.34354 0.252412
vt 0.34425 0.252486
vt 0.34425 0.252686
vt 0.343506 0.252609
vt 0.34425 0.252486
vt 0.345039 0.252404
vt 0.345082 0.2526
vt 0.34425 0.252686
vt 0.51931 0.242721
vt 0.520222 0.242721
vt 0.520244 0.24292
vt 0.519287 0.24292
vt 0.103828 0.29329
vt 0.104515 0.293467
vt 0.104486 0.293665
vt 0.10376 0.293477
vt 0.269104 0.61254
vt 0.180962 0.612549
vt 0.180908 0.594734
vt 0.269104 0.595001
vt 0.269104 0.61254
vt 0.180908 0.594734
vt 0.269074 0.566159
vt 0.269104 0.591927
vt 0.268948 0.594528
vt 0.26873 0.563364
vt 0.269074 0.566159
vt 0.268948 0.594528
vt 0.268063 0.560804
vt 0.26873 0.563364
vt 0.268948 0.594528
vt 0.267023 0.558243
vt 0.268063 0.560804
vt 0.268948 0.594528
vt 0.265616 0.555793
vt 0.267023 0.558243
vt 0.268948 0.594528
vt 0.264506 0.554285
vt 0.265616 0.555793
vt 0.268948 0.594528
vt 0.263268 0.552889
vt 0.264506 0.554285
vt 0.268948 0.594528
vt 0.261893 0.551596
vt 0.263268 0.552889
vt 0.268948 0.594528
vt 0.260263 0.550334
vt 0.261893 0.551596
vt 0.268948 0.594528
vt 0.258634 0.549307
vt 0.260263 0.550334
vt 0.268948 0.594528
vt 0.257004 0.548476
vt 0.258634 0.549307
vt 0.268948 0.594528
vt 0.255375 0.547817
vt 0.257004 0.548476
vt 0.268948 0.594528
vt 0.253513 0.547251
vt 0.255375 0.547817
vt 0.268948 0.594528
vt 0.251417 0.546834
vt 0.253513 0.547251
vt 0.268948 0.594528
vt 0.251417 0.546834
vt 0.268948 0.594528
vt 0.269104 0.595001
vt 0.249321 0.546638
vt 0.251417 0.546834
vt 0.269104 0.595001
vt 0.23552 0.546833
vt 0.238318 0.54662
vt 0.249321 0.546638
vt 0.232958 0.547372
vt 0.23552 0.546833
vt 0.249321 0.546638
vt 0.23133 0.547897
vt 0.232958 0.547372
vt 0.249321 0.546638
vt 0.2297 0.548579
vt 0.23133 0.547897
vt 0.249321 0.546638
vt 0.228137 0.549397
vt 0.2297 0.548579
vt 0.249321 0.546638
vt 0.226673 0.550328
vt 0.228137 0.549397
vt 0.249321 0.546638
vt 0.225278 0.551391
vt 0.226673 0.550328
vt 0.249321 0.546638
vt 0.223889 0.552656
vt 0.225278 0.551391
vt 0.249321 0.546638
vt 0.222612 0.554053
vt 0.223889 0.552656
vt 0.249321 0.546638
vt 0.221554 0.555437
vt 0.222612 0.554053
vt 0.249321 0.546638
vt 0.219903 0.558245
vt 0.221554 0.555437
vt 0.249321 0.546638
vt 0.219197 0.559872
vt 0.219903 0.558245
vt 0.249321 0.546638
vt 0.218648 0.5615
vt 0.219197 0.559872
vt 0.249321 0.546638
vt 0.218007 0.56453
vt 0.218648 0.5615
vt 0.249321 0.546638
vt 0.217842 0.566391
vt 0.218007 0.56453
vt 0.249321 0.546638
vt 0.217812 0.569484
vt 0.217842 0.566391
vt 0.249321 0.546638
vt 0.180967 0.567011
vt 0.180909 0.545712
vt 0.217812 0.569484
vt 0.216578 0.589961
vt 0.180967 0.567011
vt 0.217812 0.569484
vt 0.216578 0.589961
vt 0.217812 0.569484
vt 0.249321 0.546638
vt 0.216856 0.58995
vt 0.216737 0.590017
vt 0.216578 0.589961
vt 0.217392 0.589136
vt 0.216856 0.58995
vt 0.216578 0.589961
vt 0.217392 0.589136
vt 0.216578 0.589961
vt 0.249321 0.546638
vt 0.21779 0.589245
vt 0.217392 0.589136
vt 0.249321 0.546638
vt 0.237561 0.59451
vt 0.238298 0.59466
vt 0.217974 0.594665
vt 0.237561 0.59451
vt 0.217974 0.594665
vt 0.21779 0.589245
vt 0.23682 0.594114
vt 0.237561 0.59451
vt 0.21779 0.589245
vt 0.236163 0.593418
vt 0.23682 0.594114
vt 0.21779 0.589245
vt 0.235833 0.59272
vt 0.236163 0.593418
vt 0.21779 0.589245
vt 0.235706 0.591943
vt 0.235833 0.59272
vt 0.21779 0.589245
vt 0.235706 0.567307
vt 0.235706 0.591943
vt 0.21779 0.589245
vt 0.235969 0.566096
vt 0.235706 0.567307
vt 0.21779 0.589245
vt 0.236328 0.565528
vt 0.235969 0.566096
vt 0.21779 0.589245
vt 0.236328 0.565528
vt 0.21779 0.589245
vt 0.249321 0.546638
vt 0.236823 0.565052
vt 0.236328 0.565528
vt 0.249321 0.546638
vt 0.237561 0.564658
vt 0.236823 0.565052
vt 0.249321 0.546638
vt 0.238298 0.564507
vt 0.237561 0.564658
vt 0.249321 0.546638
vt 0.248405 0.564502
vt 0.238298 0.564507
vt 0.249321 0.546638
vt 0.249616 0.56476
vt 0.248405 0.564502
vt 0.249321 0.546638
vt 0.250168 0.565102
vt 0.249616 0.56476
vt 0.249321 0.546638
vt 0.250655 0.565597
vt 0.250168 0.565102
vt 0.249321 0.546638
vt 0.250655 0.565597
vt 0.249321 0.546638
vt 0.269104 0.595001
vt 0.251057 0.566335
vt 0.250655 0.565597
vt 0.269104 0.595001
vt 0.251214 0.567073
vt 0.251057 0.566335
vt 0.269104 0.595001
vt 0.251221 0.591949
vt 0.251214 0.567073
vt 0.269104 0.595001
vt 0.250915 0.593161
vt 0.251221 0.591949
vt 0.269104 0.595001
vt 0.250581 0.593664
vt 0.250915 0.593161
vt 0.269104 0.595001
vt 0.250047 0.594157
vt 0.250581 0.593664
vt 0.269104 0.595001
vt 0.249377 0.594506
vt 0.250047 0.594157
vt 0.269104 0.595001
vt 0.248727 0.59465
vt 0.249377 0.594506
vt 0.269104 0.595001
vt 0.248727 0.59465
vt 0.269104 0.595001
vt 0.180908 0.594734
vt 0.238298 0.59466
vt 0.248727 0.59465
vt 0.180908 0.594734
vt 0.180908 0.594734
vt 0.217974 0.594665
vt 0.238298 0.59466
vt 0.270752 0.563527
vt 0.270806 0.545712
vt 0.358948 0.545721
vt 0.270752 0.563527
vt 0.358948 0.545721
vt 0.358948 0.563261
vt 0.358791 0.563733
vt 0.358948 0.566334
vt 0.358917 0.592103
vt 0.358791 0.563733
vt 0.358917 0.592103
vt 0.358573 0.594897
vt 0.358791 0.563733
vt 0.358573 0.594897
vt 0.357907 0.597458
vt 0.358791 0.563733
vt 0.357907 0.597458
vt 0.356867 0.600018
vt 0.358791 0.563733
vt 0.356867 0.600018
vt 0.35546 0.602468
vt 0.358791 0.563733
vt 0.35546 0.602468
vt 0.35435 0.603976
vt 0.358791 0.563733
vt 0.35435 0.603976
vt 0.353112 0.605373
vt 0.358791 0.563733
vt 0.353112 0.605373
vt 0.351737 0.606665
vt 0.358791 0.563733
vt 0.351737 0.606665
vt 0.350107 0.607927
vt 0.358791 0.563733
vt 0.350107 0.607927
vt 0.348477 0.608954
vt 0.358791 0.563733
vt 0.348477 0.608954
vt 0.346848 0.609785
vt 0.358791 0.563733
vt 0.346848 0.609785
vt 0.345219 0.610445
vt 0.358791 0.563733
vt 0.345219 0.610445
vt 0.343356 0.611011
vt 0.358791 0.563733
vt 0.343356 0.611011
vt 0.341261 0.611427
vt 0.358948 0.563261
vt 0.358791 0.563733
vt 0.341261 0.611427
vt 0.358948 0.563261
vt 0.341261 0.611427
vt 0.339165 0.611623
vt 0.339165 0.611623
vt 0.328161 0.611641
vt 0.325364 0.611428
vt 0.339165 0.611623
vt 0.325364 0.611428
vt 0.322802 0.610889
vt 0.339165 0.611623
vt 0.322802 0.610889
vt 0.321174 0.610364
vt 0.339165 0.611623
vt 0.321174 0.610364
vt 0.319544 0.609682
vt 0.339165 0.611623
vt 0.319544 0.609682
vt 0.317981 0.608864
vt 0.339165 0.611623
vt 0.317981 0.608864
vt 0.316516 0.607933
vt 0.339165 0.611623
vt 0.316516 0.607933
vt 0.315121 0.606871
vt 0.339165 0.611623
vt 0.315121 0.606871
vt 0.313733 0.605605
vt 0.339165 0.611623
vt 0.313733 0.605605
vt 0.312456 0.604209
vt 0.339165 0.611623
vt 0.312456 0.604209
vt 0.311398 0.602825
vt 0.339165 0.611623
vt 0.311398 0.602825
vt 0.309747 0.600016
vt 0.339165 0.611623
vt 0.309747 0.600016
vt 0.30904 0.598389
vt 0.339165 0.611623
vt 0.30904 0.598389
vt 0.308492 0.596762
vt 0.339165 0.611623
vt 0.308492 0.596762
vt 0.307851 0.593731
vt 0.339165 0.611623
vt 0.307851 0.593731
vt 0.307686 0.59187
vt 0.339165 0.611623
vt 0.307686 0.59187
vt 0.307656 0.588778
vt 0.307656 0.588778
vt 0.270753 0.612549
vt 0.270811 0.591251
vt 0.307656 0.588778
vt 0.270811 0.591251
vt 0.306422 0.5683
vt 0.339165 0.611623
vt 0.307656 0.588778
vt 0.306422 0.5683
vt 0.306422 0.5683
vt 0.306581 0.568244
vt 0.3067 0.568311
vt 0.306422 0.5683
vt 0.3067 0.568311
vt 0.307235 0.569125
vt 0.339165 0.611623
vt 0.306422 0.5683
vt 0.307235 0.569125
vt 0.339165 0.611623
vt 0.307235 0.569125
vt 0.307634 0.569017
vt 0.307817 0.563596
vt 0.328142 0.563601
vt 0.327405 0.563752
vt 0.307634 0.569017
vt 0.307817 0.563596
vt 0.327405 0.563752
vt 0.307634 0.569017
vt 0.327405 0.563752
vt 0.326663 0.564147
vt 0.307634 0.569017
vt 0.326663 0.564147
vt 0.326007 0.564844
vt 0.307634 0.569017
vt 0.326007 0.564844
vt 0.325677 0.565541
vt 0.307634 0.569017
vt 0.325677 0.565541
vt 0.32555 0.566319
vt 0.307634 0.569017
vt 0.32555 0.566319
vt 0.32555 0.590955
vt 0.307634 0.569017
vt 0.32555 0.590955
vt 0.325813 0.592165
vt 0.307634 0.569017
vt 0.325813 0.592165
vt 0.326171 0.592733
vt 0.339165 0.611623
vt 0.307634 0.569017
vt 0.326171 0.592733
vt 0.339165 0.611623
vt 0.326171 0.592733
vt 0.326667 0.593209
vt 0.339165 0.611623
vt 0.326667 0.593209
vt 0.327405 0.593603
vt 0.339165 0.611623
vt 0.327405 0.593603
vt 0.328142 0.593754
vt 0.339165 0.611623
vt 0.328142 0.593754
vt 0.338249 0.593759
vt 0.339165 0.611623
vt 0.338249 0.593759
vt 0.339459 0.593502
vt 0.339165 0.611623
vt 0.339459 0.593502
vt 0.340012 0.593159
vt 0.339165 0.611623
vt 0.340012 0.593159
vt 0.340499 0.592665
vt 0.358948 0.563261
vt 0.339165 0.611623
vt 0.340499 0.592665
vt 0.358948 0.563261
vt 0.340499 0.592665
vt 0.340901 0.591926
vt 0.358948 0.563261
vt 0.340901 0.591926
vt 0.341058 0.591189
vt 0.358948 0.563261
vt 0.341058 0.591189
vt 0.341065 0.566313
vt 0.358948 0.563261
vt 0.341065 0.566313
vt 0.340758 0.5651
vt 0.358948 0.563261
vt 0.340758 0.5651
vt 0.340425 0.564598
vt 0.358948 0.563261
vt 0.340425 0.564598
vt 0.339891 0.564105
vt 0.358948 0.563261
vt 0.339891 0.564105
vt 0.33922 0.563756
vt 0.358948 0.563261
vt 0.33922 0.563756
vt 0.338571 0.563611
vt 0.270752 0.563527
vt 0.358948 0.563261
vt 0.338571 0.563611
vt 0.270752 0.563527
vt 0.338571 0.563611
vt 0.328142 0.563601
vt 0.328142 0.563601
vt 0.307817 0.563596
vt 0.270752 0.563527
vn 0.707107 0.000068 -0.707107
vn 0 0.707107 -0.707107
vn -0.006088 0.706603 -0.707584
vn -0.000011 0.70367 -0.710527
vn 0.003121 0.707045 -0.707162
vn -0.009294 0.706814 -0.707338
vn -0.131013 0.694077 -0.707879
vn -0.223318 0.670117 -0.707865
vn -0.309873 0.634691 -0.707917
vn -0.379162 0.596207 -0.707654
vn -0.444384 0.549554 -0.70747
vn -0.492537 0.506843 -0.707472
vn -0.538401 0.457772 -0.707509
vn -0.578298 0.406188 -0.707519
vn -0.613983 0.350013 -0.707471
vn -0.642742 0.293956 -0.70744
vn -0.666876 0.234041 -0.707461
vn -0.685871 0.170211 -0.707538
vn -0.699207 0.10223 -0.707573
vn -0.70681 0.011598 -0.707308
vn -0.706863 -0.010013 -0.70728
vn -0.699492 -0.098156 -0.707867
vn -0.684897 -0.173952 -0.707571
vn -0.66275 -0.245601 -0.70742
vn -0.63974 -0.300458 -0.70743
vn -0.612031 -0.353513 -0.707423
vn -0.579738 -0.404296 -0.707423
vn -0.542167 -0.453402 -0.707447
vn -0.500068 -0.499409 -0.707476
vn -0.454426 -0.541308 -0.707448
vn -0.383465 -0.593398 -0.707695
vn -0.331587 -0.623861 -0.707706
vn -0.254305 -0.659455 -0.707423
vn -0.174862 -0.684575 -0.707658
vn -0.114835 -0.697112 -0.707706
vn -0.028391 -0.706278 -0.707365
vn -0.006912 -0.707073 -0.707107
vn -0.594452 0.382918 -0.707107
vn 0.001932 -0.707104 -0.707107
vn 0.594365 -0.383054 -0.707107
vn 0.594758 -0.382357 -0.707153
vn 0.672409 0.040004 -0.739098
vn 0.429606 0.554581 -0.712656
vn 0.388518 0.590808 -0.707107
vn 0.682354 -0.185454 -0.707107
vn 0.023971 -0.7067 -0.707107
vn -0.707106 -0.001314 -0.707107
vn 0.002152 -0.707104 -0.707107
vn 1 0.000096 0
vn 0 1 0
vn -0.00854 0.999964 0
vn -0.000014 1 0
vn 0.004391 0.99999 0
vn -0.013179 0.999913 0
vn -0.185494 0.982645 0
vn -0.316155 0.948707 0
vn -0.438721 0.898623 0
vn -0.536648 0.843806 0
vn -0.62877 0.777591 0
vn -0.696914 0.717154 0
vn -0.761844 0.64776 0
vn -0.818316 0.574768 0
vn -0.868751 0.495249 0
vn -0.909405 0.415911 0
vn -0.943577 0.331153 0
vn -0.970559 0.240864 0
vn -0.98948 0.144673 0
vn -0.999865 0.016441 0
vn -0.999899 -0.01419 0
vn -0.990295 -0.138981 0
vn -0.969223 -0.246185 0
vn -0.937689 -0.347476 0
vn -0.905143 -0.425107 0
vn -0.865929 -0.500167 0
vn -0.820241 -0.572018 0
vn -0.767111 -0.641514 0
vn -0.707573 -0.70664 0
vn -0.642952 -0.765907 0
vn -0.54279 -0.839868 0
vn -0.469297 -0.88304 0
vn -0.359803 -0.933028 0
vn -0.247522 -0.968882 0
vn -0.162511 -0.986707 0
vn -0.041038 -0.999158 0
vn -0.009775 -0.999952 0
vn -0.840683 0.541528 0
vn 0.002732 -0.999996 0
vn 0.840559 -0.541719 0
vn 0.841286 -0.54059 0
vn 0.94287 -0.333161 0
vn 0.872659 0.48833 0
vn 0.627636 0.778507 0
vn 0.549447 0.835529 0
vn 0.964994 -0.262272 0
vn 0.033899 -0.999425 0
vn -0.999998 -0.001858 0
vn 0.003044 -0.999995 0
vn 0.707107 0.000068 0.707107
vn 0 0.707107 0.707107
vn -0.006088 0.706603 0.707584
vn -0.000011 0.70367 0.710527
vn 0.003121 0.707045 0.707162
vn -0.009294 0.706814 0.707338
vn -0.131013 0.694077 0.707879
vn -0.223318 0.670117 0.707865
vn -0.309873 0.634691 0.707917
vn -0.379162 0.596207 0.707654
vn -0.444384 0.549554 0.70747
vn -0.492537 0.506843 0.707472
vn -0.538401 0.457772 0.707509
vn -0.578298 0.406188 0.707519
vn -0.613983 0.350013 0.707471
vn -0.642742 0.293956 0.70744
vn -0.666876 0.234041 0.707461
vn -0.685871 0.170211 0.707538
vn -0.699207 0.10223 0.707573
vn -0.70681 0.011598 0.707308
vn -0.706863 -0.010013 0.70728
vn -0.699492 -0.098156 0.707867
vn -0.684897 -0.173952 0.707571
vn -0.66275 -0.245601 0.70742
vn -0.63974 -0.300458 0.70743
vn -0.612031 -0.353513 0.707423
vn -0.579738 -0.404296 0.707423
vn -0.542167 -0.453402 0.707447
vn -0.500068 -0.499409 0.707476
vn -0.454426 -0.541308 0.707448
vn -0.383465 -0.593398 0.707695
vn -0.331587 -0.623861 0.707706
vn -0.254305 -0.659455 0.707423
vn -0.174862 -0.684575 0.707658
vn -0.114835 -0.697112 0.707706
vn -0.028391 -0.706278 0.707365
vn -0.006912 -0.707073 0.707107
vn -0.594452 0.382918 0.707107
vn 0.001932 -0.707104 0.707107
vn 0.594365 -0.383054 0.707107
vn 0.594758 -0.382357 0.707153
vn 0.672409 0.040004 0.739098
vn 0.429606 0.554581 0.712656
vn 0.388518 0.590808 0.707107
vn 0.682354 -0.185454 0.707107
vn 0.023971 -0.7067 0.707107
vn -0.707106 -0.001314 0.707107
vn 0.002152 -0.707104 0.707107
vn -0.207979 0.67218 -0.710577
vn -0.003476 0.706962 -0.707243
vn 0.007077 0.706709 -0.707469
vn 0.23093 0.663106 -0.712012
vn 0.44622 0.545199 -0.70968
vn 0.575177 0.405518 -0.710441
vn 0.659941 0.243464 -0.710776
vn 0.706585 0.009977 -0.707558
vn 0.706186 -0.015518 -0.707856
vn 0.665186 -0.225432 -0.711834
vn 0.548506 -0.442229 -0.709629
vn 0.411482 -0.570866 -0.710489
vn 0.249365 -0.657708 -0.7108
vn 0.004423 -0.706877 -0.707323
vn -0.007996 -0.706575 -0.707593
vn -0.244879 -0.658621 -0.711515
vn -0.463186 -0.530939 -0.709621
vn -0.576934 -0.403413 -0.710215
vn -0.659498 -0.246548 -0.710124
vn -0.70658 -0.009662 -0.707567
vn -0.706607 0.008678 -0.707553
vn -0.659912 0.243563 -0.71077
vn -0.553434 0.432544 -0.71177
vn -0.406058 0.573606 -0.711403
vn -0.295049 0.955482 0
vn -0.004823 0.999988 0
vn 0.009861 0.999951 0
vn 0.327662 0.944795 0
vn 0.633598 0.773663 0
vn 0.817413 0.576052 0
vn 0.938215 0.346052 0
vn 0.999904 0.013838 0
vn 0.999765 -0.021672 0
vn 0.947517 -0.319704 0
vn 0.778266 -0.627935 0
vn 0.584584 -0.811333 0
vn 0.354481 -0.935063 0
vn 0.006121 -0.999981 0
vn -0.011137 -0.999938 0
vn -0.347201 -0.937791 0
vn -0.657849 -0.753149 0
vn -0.819521 -0.573049 0
vn -0.936666 -0.350225 0
vn -0.999911 -0.013378 0
vn -0.999928 0.012004 0
vn -0.938217 0.346047 0
vn -0.787785 0.61595 0
vn -0.57803 0.816016 0
vn -0.207979 0.67218 0.710577
vn -0.003476 0.706962 0.707243
vn 0.007077 0.706709 0.707469
vn 0.23093 0.663106 0.712012
vn 0.44622 0.545199 0.70968
vn 0.575177 0.405518 0.710441
vn 0.659941 0.243464 0.710776
vn 0.706585 0.009977 0.707558
vn 0.706186 -0.015518 0.707856
vn 0.665186 -0.225432 0.711834
vn 0.548506 -0.442229 0.709629
vn 0.411482 -0.570866 0.710489
vn 0.249365 -0.657708 0.7108
vn 0.004423 -0.706877 0.707323
vn -0.007996 -0.706575 0.707593
vn -0.244879 -0.658621 0.711515
vn -0.463186 -0.530939 0.709621
vn -0.576934 -0.403413 0.710215
vn -0.659498 -0.246548 0.710124
vn -0.70658 -0.009662 0.707567
vn -0.706607 0.008678 0.707553
vn -0.659912 0.243563 0.71077
vn -0.553434 0.432544 0.71177
vn -0.406058 0.573606 0.711403
vn 0 0 -1
vn 0 0 1
f 281/701/76 282/702/76 328/703/76 327/704/76
f 282/705/77 283/706/78 329/707/78 328/708/77
f 283/709/78 284/710/79 330/711/79 329/712/78
f 284/713/79 285/714/80 331/715/80 330/716/79
f 285/717/80 286/718/81 332/719/81 331/720/80
f 286/721/81 287/722/82 333/723/82 332/724/81
f 287/725/82 288/726/83 334/727/83 333/728/82
f 288/729/83 289/730/84 335/731/84 334/732/83
f 289/733/84 290/734/85 336/735/85 335/736/84
f 290/737/85 291/738/86 337/739/86 336/740/85
f 291/741/86 292/742/87 338/743/87 337/744/86
f 292/745/87 293/746/88 339/747/88 338/748/87
f 293/749/88 294/750/89 340/751/89 339/752/88
f 294/753/89 295/754/90 341/755/90 340/756/89
f 295/757/90 296/758/91 342/759/91 341/760/90
f 296/761/91 297/762/92 343/763/92 342/764/91
f 297/765/92 298/766/93 344/767/93 343/768/92
f 298/769/93 299/770/94 345/771/94 344/772/93
f 299/773/94 300/774/95 346/775/95 345/776/94
f 300/777/95 301/778/96 347/779/96 346/780/95
f 301/781/96 302/782/97 348/783/97 347/784/96
f 302/785/97 303/786/98 349/787/98 348/788/97
f 303/789/98 304/790/99 350/791/99 349/792/98
f 304/793/99 305/794/100 351/795/100 350/796/99
f 305/797/100 306/798/101 352/799/101 351/800/100
f 306/801/101 307/802/102 353/803/102 352/804/101
f 307/805/102 308/806/103 354/807/103 353/808/102
f 308/809/103 309/810/104 355/811/104 354/812/103
f 309/813/104 310/814/105 356/815/105 355/816/104
f 310/817/105 311/818/106 357/819/106 356/820/105
f 311/821/106 312/822/107 358/823/107 357/824/106
f 312/825/107 313/826/108 359/827/108 358/828/107
f 313/829/108 314/830/109 360/831/109 359/832/108
f 314/833/109 315/834/110 361/835/110 360/836/109
f 315/837/110 316/838/111 362/839/111 361/840/110
f 316/841/111 317/842/112 363/843/112 362/844/111
f 317/845/113 318/846/113 364/847/113 363/848/113
f 318/849/114 319/850/114 365/851/114 364/852/114
f 319/853/115 320/854/116 366/855/116 365/856/115
f 320/857/116 321/858/117 367/859/117 366/860/116
f 321/861/117 322/862/118 368/863/118 367/864/117
f 322/865/118 323/866/119 369/867/119 368/868/118
f 323/869/120 324/870/120 370/871/120 369/872/120
f 324/873/121 325/874/121 371/875/121 370/876/121
f 325/877/122 326/878/122 372/879/122 371/880/122
f 326/881/123 281/882/123 327/883/123 372/884/123
f 327/885/124 328/886/124 374/887/124 373/888/124
f 328/889/125 329/890/126 375/891/126 374/892/125
f 329/893/126 330/894/127 376/895/127 375/896/126
f 330/897/127 331/898/128 377/899/128 376/900/127
f 331/901/128 332/902/129 378/903/129 377/904/128
f 332/905/129 333/906/130 379/907/130 378/908/129
f 333/909/130 334/910/131 380/911/131 379/912/130
f 334/913/131 335/914/132 381/915/132 380/916/131
f 335/917/132 336/918/133 382/919/133 381/920/132
f 336/921/133 337/922/134 383/923/134 382/924/133
f 337/925/134 338/926/135 384/927/135 383/928/134
f 338/929/135 339/930/136 385/931/136 384/932/135
f 339/933/136 340/934/137 386/935/137 385/936/136
f 340/937/137 341/938/138 387/939/138 386/940/137
f 341/941/138 342/942/139 388/943/139 387/944/138
f 342/945/139 343/946/140 389/947/140 388/948/139
f 343/949/140 344/950/141 390/951/141 389/952/140
f 344/953/141 345/954/142 391/955/142 390/956/141
f 345/957/142 346/958/143 392/959/143 391/960/142
f 346/961/143 347/962/144 393/963/144 392/964/143
f 347/965/144 348/966/145 394/967/145 393/968/144
f 348/969/145 349/970/146 395/971/146 394/972/145
f 349/973/146 350/974/147 396/975/147 395/976/146
f 350/977/147 351/978/148 397/979/148 396/980/147
f 351/981/148 352/982/149 398/983/149 397/984/148
f 352/985/149 353/986/150 399/987/150 398/988/149
f 353/989/150 354/990/151 400/991/151 399/992/150
f 354/993/151 355/994/152 401/995/152 400/996/151
f 355/997/152 356/998/153 402/999/153 401/1000/152
f 356/1001/153 357/1002/154 403/1003/154 402/1004/153
f 357/1005/154 358/1006/155 404/1007/155 403/1008/154
f 358/1009/155 359/1010/156 405/1011/156 404/1012/155
f 359/1013/156 360/1014/157 406/1015/157 405/1016/156
f 360/1017/157 361/1018/158 407/1019/158 406/1020/157
f 361/1021/158 362/1022/159 408/1023/159 407/1024/158
f 362/1025/159 363/1026/160 409/1027/160 408/1028/159
f 363/1029/161 364/1030/161 410/1031/161 409/1032/161
f 364/1033/162 365/1034/162 411/1035/162 410/1036/162
f 365/1037/163 366/1038/164 412/1039/164 411/1040/163
f 366/1041/164 367/1042/165 413/1043/165 412/1044/164
f 367/1045/166 368/1046/167 414/1047/167 413/1048/166
f 368/1049/167 369/1050/168 415/1051/168 414/1052/167
f 369/1053/169 370/1054/169 416/1055/169 415/1056/169
f 370/1057/170 371/1058/170 417/1059/170 416/1060/170
f 371/1061/171 372/1062/171 418/1063/171 417/1064/171
f 372/1065/172 327/1066/172 373/1067/172 418/1068/172
f 373/1069/173 374/1070/173 420/1071/173 419/1072/173
f 374/1073/174 375/1074/175 421/1075/175 420/1076/174
f 375/1077/175 376/1078/176 422/1079/176 421/1080/175
f 376/1081/176 377/1082/177 423/1083/177 422/1084/176
f 377/1085/177 378/1086/178 424/1087/178 423/1088/177
f 378/1089/178 379/1090/179 425/1091/179 424/1092/178
f 379/1093/179 380/1094/180 426/1095/180 425/1096/179
f 380/1097/180 381/1098/181 427/1099/181 426/1100/180
f 381/1101/181 382/1102/182 428/1103/182 427/1104/181
f 382/1105/182 383/1106/183 429/1107/183 428/1108/182
f 383/1109/183 384/1110/184 430/1111/184 429/1112/183
f 384/1113/184 385/1114/185 431/1115/185 430/1116/184
f 385/1117/185 386/1118/186 432/1119/186 431/1120/185
f 386/1121/186 387/1122/187 433/1123/187 432/1124/186
f 387/1125/187 388/1126/188 434/1127/188 433/1128/187
f 388/1129/188 389/1130/189 435/1131/189 434/1132/188
f 389/1133/189 390/1134/190 436/1135/190 435/1136/189
f 390/1137/190 391/1138/191 437/1139/191 436/1140/190
f 391/1141/191 392/1142/192 438/1143/192 437/1144/191
f 392/1145/192 393/1146/193 439/1147/193 438/1148/192
f 393/1149/193 394/1150/194 440/1151/194 439/1152/193
f 394/1153/194 395/1154/195 441/1155/195 440/1156/194
f 395/1157/195 396/1158/196 442/1159/196 441/1160/195
f 396/1161/196 397/1162/197 443/1163/197 442/1164/196
f 397/1165/197 398/1166/198 444/1167/198 443/1168/197
f 398/1169/198 399/1170/199 445/1171/199 444/1172/198
f 399/1173/199 400/1174/200 446/1175/200 445/1176/199
f 400/1177/200 401/1178/201 447/1179/201 446/1180/200
f 401/1181/201 402/1182/202 448/1183/202 447/1184/201
f 402/1185/202 403/1186/203 449/1187/203 448/1188/202
f 403/1189/203 404/1190/204 450/1191/204 449/1192/203
f 404/1193/204 405/1194/205 451/1195/205 450/1196/204
f 405/1197/205 406/1198/206 452/1199/206 451/1200/205
f 406/1201/206 407/1202/207 453/1203/207 452/1204/206
f 407/1205/207 408/1206/208 454/1207/208 453/1208/207
f 408/1209/208 409/1210/209 455/1211/209 454/1212/208
f 409/1213/210 410/1214/210 456/1215/210 455/1216/210
f 410/1217/211 411/1218/211 457/1219/211 456/1220/211
f 411/1221/212 412/1222/213 458/1223/213 457/1224/212
f 412/1225/213 413/1226/214 459/1227/214 458/1228/213
f 413/1229/214 414/1230/215 460/1231/215 459/1232/214
f 414/1233/215 415/1234/216 461/1235/216 460/1236/215
f 415/1237/217 416/1238/217 462/1239/217 461/1240/217
f 416/1241/218 417/1242/218 463/1243/218 462/1244/218
f 417/1245/219 418/1246/219 464/1247/219 463/1248/219
f 418/1249/220 373/1250/220 419/1251/220 464/1252/220
f 465/1253/221 466/1254/222 490/1255/222 489/1256/221
f 466/1257/222 467/1258/223 491/1259/223 490/1260/222
f 467/1261/223 468/1262/224 492/1263/224 491/1264/223
f 468/1265/224 469/1266/225 493/1267/225 492/1268/224
f 469/1269/225 470/1270/226 494/1271/226 493/1272/225
f 470/1273/226 471/1274/227 495/1275/227 494/1276/226
f 471/1277/227 472/1278/228 496/1279/228 495/1280/227
f 472/1281/228 473/1282/229 497/1283/229 496/1284/228
f 473/1285/229 474/1286/230 498/1287/230 497/1288/229
f 474/1289/230 475/1290/231 499/1291/231 498/1292/230
f 475/1293/231 476/1294/232 500/1295/232 499/1296/231
f 476/1297/232 477/1298/233 501/1299/233 500/1300/232
f 477/1301/233 478/1302/234 502/1303/234 501/1304/233
f 478/1305/234 479/1306/235 503/1307/235 502/1308/234
f 479/1309/235 480/1310/236 504/1311/236 503/1312/235
f 480/1313/236 481/1314/237 505/1315/237 504/1316/236
f 481/1317/237 482/1318/238 506/1319/238 505/1320/237
f 482/1321/238 483/1322/239 507/1323/239 506/1324/238
f 483/1325/239 484/1326/240 508/1327/240 507/1328/239
f 484/1329/240 485/1330/241 509/1331/241 508/1332/240
f 485/1333/241 486/1334/242 510/1335/242 509/1336/241
f 486/1337/242 487/1338/243 511/1339/243 510/1340/242
f 487/1341/243 488/1342/244 512/1343/244 511/1344/243
f 488/1345/244 465/1346/221 489/1347/221 512/1348/244
f 489/1349/245 490/1350/246 514/1351/246 513/1352/245
f 490/1353/246 491/1354/247 515/1355/247 514/1356/246
f 491/1357/247 492/1358/248 516/1359/248 515/1360/247
f 492/1361/248 493/1362/249 517/1363/249 516/1364/248
f 493/1365/249 494/1366/250 518/1367/250 517/1368/249
f 494/1369/250 495/1370/251 519/1371/251 518/1372/250
f 495/1373/251 496/1374/252 520/1375/252 519/1376/251
f 496/1377/252 497/1378/253 521/1379/253 520/1380/252
f 497/1381/253 498/1382/254 522/1383/254 521/1384/253
f 498/1385/254 499/1386/255 523/1387/255 522/1388/254
f 499/1389/255 500/1390/256 524/1391/256 523/1392/255
f 500/1393/256 501/1394/257 525/1395/257 524/1396/256
f 501/1397/257 502/1398/258 526/1399/258 525/1400/257
f 502/1401/258 503/1402/259 527/1403/259 526/1404/258
f 503/1405/259 504/1406/260 528/1407/260 527/1408/259
f 504/1409/260 505/1410/261 529/1411/261 528/1412/260
f 505/1413/261 506/1414/262 530/1415/262 529/1416/261
f 506/1417/262 507/1418/263 531/1419/263 530/1420/262
f 507/1421/263 508/1422/264 532/1423/264 531/1424/263
f 508/1425/264 509/1426/265 533/1427/265 532/1428/264
f 509/1429/265 510/1430/266 534/1431/266 533/1432/265
f 510/1433/266 511/1434/267 535/1435/267 534/1436/266
f 511/1437/267 512/1438/268 536/1439/268 535/1440/267
f 512/1441/268 489/1442/245 513/1443/245 536/1444/268
f 513/1445/269 514/1446/270 538/1447/270 537/1448/269
f 514/1449/270 515/1450/271 539/1451/271 538/1452/270
f 515/1453/271 516/1454/272 540/1455/272 539/1456/271
f 516/1457/272 517/1458/273 541/1459/273 540/1460/272
f 517/1461/273 518/1462/274 542/1463/274 541/1464/273
f 518/1465/274 519/1466/275 543/1467/275 542/1468/274
f 519/1469/275 520/1470/276 544/1471/276 543/1472/275
f 520/1473/276 521/1474/277 545/1475/277 544/1476/276
f 521/1477/277 522/1478/278 546/1479/278 545/1480/277
f 522/1481/278 523/1482/279 547/1483/279 546/1484/278
f 523/1485/279 524/1486/280 548/1487/280 547/1488/279
f 524/1489/280 525/1490/281 549/1491/281 548/1492/280
f 525/1493/281 526/1494/282 550/1495/282 549/1496/281
f 526/1497/282 527/1498/283 551/1499/283 550/1500/282
f 527/1501/283 528/1502/284 552/1503/284 551/1504/283
f 528/1505/284 529/1506/285 553/1507/285 552/1508/284
f 529/1509/285 530/1510/286 554/1511/286 553/1512/285
f 530/1513/286 531/1514/287 555/1515/287 554/1516/286
f 531/1517/287 532/1518/288 556/1519/288 555/1520/287
f 532/1521/288 533/1522/289 557/1523/289 556/1524/288
f 533/1525/289 534/1526/290 558/1527/290 557/1528/289
f 534/1529/290 535/1530/291 559/1531/291 558/1532/290
f 535/1533/291 536/1534/292 560/1535/292 559/1536/291
f 536/1537/292 513/1538/269 537/1539/269 560/1540/292
f 562/1541/293 561/1542/293 606/1543/293
f 563/1544/293 562/1545/293 606/1546/293
f 566/1547/293 565/1548/293 564/1549/293
f 567/1550/293 566/1551/293 564/1552/293
f 568/1553/293 567/1554/293 564/1555/293
f 569/1556/293 568/1557/293 564/1558/293
f 570/1559/293 569/1560/293 564/1561/293
f 571/1562/293 570/1563/293 564/1564/293
f 572/1565/293 571/1566/293 564/1567/293
f 573/1568/293 572/1569/293 564/1570/293
f 574/1571/293 573/1572/293 564/1573/293
f 575/1574/293 574/1575/293 564/1576/293
f 576/1577/293 575/1578/293 564/1579/293
f 577/1580/293 576/1581/293 564/1582/293
f 578/1583/293 577/1584/293 564/1585/293
f 579/1586/293 578/1587/293 564/1588/293
f 579/1589/293 564/1590/293 563/1591/293
f 580/1592/293 579/1593/293 563/1594/293
f 582/1595/293 581/1596/293 580/1597/293
f 583/1598/293 582/1599/293 580/1600/293
f 584/1601/293 583/1602/293 580/1603/293
f 585/1604/293 584/1605/293 580/1606/293
f 586/1607/293 585/1608/293 580/1609/293
f 587/1610/293 586/1611/293 580/1612/293
f 588/1613/293 587/1614/293 580/1615/293
f 589/1616/293 588/1617/293 580/1618/293
f 590/1619/293 589/1620/293 580/1621/293
f 591/1622/293 590/1623/293 580/1624/293
f 592/1625/293 591/1626/293 580/1627/293
f 593/1628/293 592/1629/293 580/1630/293
f 594/1631/293 593/1632/293 580/1633/293
f 595/1634/293 594/1635/293 580/1636/293
f 596/1637/293 595/1638/293 580/1639/293
f 597/1640/293 596/1641/293 580/1642/293
f 599/1643/293 598/1644/293 597/1645/293
f 600/1646/293 599/1647/293 597/1648/293
f 600/1649/293 597/1650/293 580/1651/293
f 602/1652/293 601/1653/293 600/1654/293
f 603/1655/293 602/1656/293 600/1657/293
f 603/1658/293 600/1659/293 580/1660/293
f 604/1661/293 603/1662/293 580/1663/293
f 628/1664/293 627/1665/293 605/1666/293
f 628/1667/293 605/1668/293 604/1669/293
f 629/1670/293 628/1671/293 604/1672/293
f 630/1673/293 629/1674/293 604/1675/293
f 607/1676/293 630/1677/293 604/1678/293
f 608/1679/293 607/1680/293 604/1681/293
f 609/1682/293 608/1683/293 604/1684/293
f 610/1685/293 609/1686/293 604/1687/293
f 611/1688/293 610/1689/293 604/1690/293
f 611/1691/293 604/1692/293 580/1693/293
f 612/1694/293 611/1695/293 580/1696/293
f 613/1697/293 612/1698/293 580/1699/293
f 614/1700/293 613/1701/293 580/1702/293
f 615/1703/293 614/1704/293 580/1705/293
f 616/1706/293 615/1707/293 580/1708/293
f 617/1709/293 616/1710/293 580/1711/293
f 618/1712/293 617/1713/293 580/1714/293
f 618/1715/293 580/1716/293 563/1717/293
f 619/1718/293 618/1719/293 563/1720/293
f 620/1721/293 619/1722/293 563/1723/293
f 621/1724/293 620/1725/293 563/1726/293
f 622/1727/293 621/1728/293 563/1729/293
f 623/1730/293 622/1731/293 563/1732/293
f 624/1733/293 623/1734/293 563/1735/293
f 625/1736/293 624/1737/293 563/1738/293
f 626/1739/293 625/1740/293 563/1741/293
f 626/1742/293 563/1743/293 606/1744/293
f 627/1745/293 626/1746/293 606/1747/293
f 606/1748/293 605/1749/293 627/1750/293
f 676/1751/294 631/1752/294 632/1753/294
f 676/1754/294 632/1755/294 633/1756/294
f 634/1757/294 635/1758/294 636/1759/294
f 634/1760/294 636/1761/294 637/1762/294
f 634/1763/294 637/1764/294 638/1765/294
f 634/1766/294 638/1767/294 639/1768/294
f 634/1769/294 639/1770/294 640/1771/294
f 634/1772/294 640/1773/294 641/1774/294
f 634/1775/294 641/1776/294 642/1777/294
f 634/1778/294 642/1779/294 643/1780/294
f 634/1781/294 643/1782/294 644/1783/294
f 634/1784/294 644/1785/294 645/1786/294
f 634/1787/294 645/1788/294 646/1789/294
f 634/1790/294 646/1791/294 647/1792/294
f 634/1793/294 647/1794/294 648/1795/294
f 634/1796/294 648/1797/294 649/1798/294
f 633/1799/294 634/1800/294 649/1801/294
f 633/1802/294 649/1803/294 650/1804/294
f 650/1805/294 651/1806/294 652/1807/294
f 650/1808/294 652/1809/294 653/1810/294
f 650/1811/294 653/1812/294 654/1813/294
f 650/1814/294 654/1815/294 655/1816/294
f 650/1817/294 655/1818/294 656/1819/294
f 650/1820/294 656/1821/294 657/1822/294
f 650/1823/294 657/1824/294 658/1825/294
f 650/1826/294 658/1827/294 659/1828/294
f 650/1829/294 659/1830/294 660/1831/294
f 650/1832/294 660/1833/294 661/1834/294
f 650/1835/294 661/1836/294 662/1837/294
f 650/1838/294 662/1839/294 663/1840/294
f 650/1841/294 663/1842/294 664/1843/294
f 650/1844/294 664/1845/294 665/1846/294
f 650/1847/294 665/1848/294 666/1849/294
f 650/1850/294 666/1851/294 667/1852/294
f 667/1853/294 668/1854/294 669/1855/294
f 667/1856/294 669/1857/294 670/1858/294
f 650/1859/294 667/1860/294 670/1861/294
f 670/1862/294 671/1863/294 672/1864/294
f 670/1865/294 672/1866/294 673/1867/294
f 650/1868/294 670/1869/294 673/1870/294
f 650/1871/294 673/1872/294 674/1873/294
f 675/1874/294 697/1875/294 698/1876/294
f 674/1877/294 675/1878/294 698/1879/294
f 674/1880/294 698/1881/294 699/1882/294
f 674/1883/294 699/1884/294 700/1885/294
f 674/1886/294 700/1887/294 677/1888/294
f 674/1889/294 677/1890/294 678/1891/294
f 674/1892/294 678/1893/294 679/1894/294
f 674/1895/294 679/1896/294 680/1897/294
f 674/1898/294 680/1899/294 681/1900/294
f 650/1901/294 674/1902/294 681/1903/294
f 650/1904/294 681/1905/294 682/1906/294
f 650/1907/294 682/1908/294 683/1909/294
f 650/1910/294 683/1911/294 684/1912/294
f 650/1913/294 684/1914/294 685/1915/294
f 650/1916/294 685/1917/294 686/1918/294
f 650/1919/294 686/1920/294 687/1921/294
f 650/1922/294 687/1923/294 688/1924/294
f 633/1925/294 650/1926/294 688/1927/294
f 633/1928/294 688/1929/294 689/1930/294
f 633/1931/294 689/1932/294 690/1933/294
f 633/1934/294 690/1935/294 691/1936/294
f 633/1937/294 691/1938/294 692/1939/294
f 633/1940/294 692/1941/294 693/1942/294
f 633/1943/294 693/1944/294 694/1945/294
f 633/1946/294 694/1947/294 695/1948/294
f 633/1949/294 695/1950/294 696/1951/294
f 676/1952/294 633/1953/294 696/1954/294
f 676/1955/294 696/1956/294 697/1957/294
f 697/1958/294 675/1959/294 676/1960/294
