# AFL PRAIRIE signage V1 channel letter T (lit), generated by tools/build-prairie-signage-v1.mjs
mtllib t_lit.mtl
o T_body
usemtl letters_nz
v 0.575 0.124994 0.8786
v 0.575 0.725 0.8786
v 0.8 0.725 0.8786
v 0.8 0.875 0.8786
v 0.199996 0.874973 0.8786
v 0.200442 0.725544 0.8786
v 0.424964 0.724996 0.8786
v 0.425 0.125544 0.8786
v 0.575 0.124994 0.9996
v 0.575 0.725 0.9996
v 0.8 0.725 0.9996
v 0.8 0.875 0.9996
v 0.199996 0.874973 0.9996
v 0.200442 0.725544 0.9996
v 0.424964 0.724996 0.9996
v 0.425 0.125544 0.9996
v 0.575 0.124994 0.8786
v 0.575 0.725 0.8786
v 0.8 0.725 0.8786
v 0.8 0.875 0.8786
v 0.199996 0.874973 0.8786
v 0.200442 0.725544 0.8786
v 0.424964 0.724996 0.8786
v 0.425 0.125544 0.8786
v 0.575 0.124994 0.9996
v 0.575 0.725 0.9996
v 0.8 0.725 0.9996
v 0.8 0.875 0.9996
v 0.199996 0.874973 0.9996
v 0.200442 0.725544 0.9996
v 0.424964 0.724996 0.9996
v 0.425 0.125544 0.9996
vt 0.906494 0.462139
vt 0.976807 0.462139
vt 0.976807 0.476318
vt 0.906494 0.476318
vt 0.091553 0.348857
vt 0.11792 0.348857
vt 0.11792 0.363037
vt 0.091553 0.363037
vt 0.867432 0.348857
vt 0.88501 0.348857
vt 0.88501 0.363037
vt 0.867432 0.363037
vt 0.001221 0.397197
vt 0.071534 0.397197
vt 0.071534 0.411377
vt 0.001221 0.411377
vt 0.039307 0.332744
vt 0.056818 0.332744
vt 0.056818 0.346924
vt 0.039307 0.346924
vt 0.119385 0.348857
vt 0.145696 0.348857
vt 0.145696 0.363037
vt 0.119385 0.363037
vt 0.073486 0.397197
vt 0.143735 0.397197
vt 0.143735 0.411377
vt 0.073486 0.411377
vt 0.789307 0.348857
vt 0.806885 0.348857
vt 0.806885 0.363037
vt 0.789307 0.363037
vt 0.161378 0.658447
vt 0.091064 0.658447
vt 0.091129 0.640869
vt 0.178956 0.684814
vt 0.161378 0.684814
vt 0.161378 0.658447
vt 0.178953 0.614501
vt 0.178956 0.684814
vt 0.161378 0.658447
vt 0.161441 0.614554
vt 0.178953 0.614501
vt 0.161378 0.658447
vt 0.161377 0.640865
vt 0.161441 0.614554
vt 0.161378 0.658447
vt 0.091129 0.640869
vt 0.161377 0.640865
vt 0.161378 0.658447
vt 0.180973 0.658447
vt 0.180908 0.640869
vt 0.251221 0.640869
vt 0.251221 0.640869
vt 0.251221 0.614501
vt 0.2688 0.614501
vt 0.251221 0.640869
vt 0.2688 0.614501
vt 0.268796 0.684814
vt 0.251221 0.640869
vt 0.268796 0.684814
vt 0.251285 0.684762
vt 0.251221 0.640869
vt 0.251285 0.684762
vt 0.251221 0.658451
vt 0.251221 0.640869
vt 0.251221 0.658451
vt 0.180973 0.658447
vn 1 0 0
vn 0 -1 0
vn -0.000044 1 0
vn -0.999996 -0.002988 0
vn -0.002439 -0.999997 0
vn -1 -0.00006 0
vn -0.003664 -0.999993 0
vn 0 0 -1
vn 0 0 1
f 1/1/1 2/2/1 10/3/1 9/4/1
f 2/5/2 3/6/2 11/7/2 10/8/2
f 3/9/1 4/10/1 12/11/1 11/12/1
f 4/13/3 5/14/3 13/15/3 12/16/3
f 5/17/4 6/18/4 14/19/4 13/20/4
f 6/21/5 7/22/5 15/23/5 14/24/5
f 7/25/6 8/26/6 16/27/6 15/28/6
f 8/29/7 1/30/7 9/31/7 16/32/7
f 18/33/8 17/34/8 24/35/8
f 20/36/8 19/37/8 18/38/8
f 21/39/8 20/40/8 18/41/8
f 22/42/8 21/43/8 18/44/8
f 23/45/8 22/46/8 18/47/8
f 24/48/8 23/49/8 18/50/8
f 32/51/9 25/52/9 26/53/9
f 26/54/9 27/55/9 28/56/9
f 26/57/9 28/58/9 29/59/9
f 26/60/9 29/61/9 30/62/9
f 26/63/9 30/64/9 31/65/9
f 26/66/9 31/67/9 32/68/9
o T_face_lit
usemtl letters_nz_glow
v 0.5763 0.123732 0.8726
v 0.576414 0.723694 0.8726
v 0.801301 0.724156 0.8726
v 0.801228 0.8763 0.8726
v 0.1987 0.876207 0.8726
v 0.1987 0.723798 0.8726
v 0.423612 0.723699 0.8726
v 0.424205 0.1237 0.8726
v 0.577499 0.122532 0.8738
v 0.577614 0.722496 0.8738
v 0.802501 0.722959 0.8738
v 0.802427 0.8775 0.8738
v 0.1975 0.877407 0.8738
v 0.1975 0.722598 0.8738
v 0.422414 0.7225 0.8738
v 0.423006 0.1225 0.8738
v 0.577499 0.122532 0.8784
v 0.577614 0.722496 0.8784
v 0.802501 0.722959 0.8784
v 0.802427 0.8775 0.8784
v 0.1975 0.877407 0.8784
v 0.1975 0.722598 0.8784
v 0.422414 0.7225 0.8784
v 0.423006 0.1225 0.8784
v 0.5763 0.123732 0.8796
v 0.576414 0.723694 0.8796
v 0.801301 0.724156 0.8796
v 0.801228 0.8763 0.8796
v 0.1987 0.876207 0.8796
v 0.1987 0.723798 0.8796
v 0.423612 0.723699 0.8796
v 0.424205 0.1237 0.8796
v 0.5763 0.123732 0.8726
v 0.576414 0.723694 0.8726
v 0.801301 0.724156 0.8726
v 0.801228 0.8763 0.8726
v 0.1987 0.876207 0.8726
v 0.1987 0.723798 0.8726
v 0.423612 0.723699 0.8726
v 0.424205 0.1237 0.8726
v 0.5763 0.123732 0.8796
v 0.576414 0.723694 0.8796
v 0.801301 0.724156 0.8796
v 0.801228 0.8763 0.8796
v 0.1987 0.876207 0.8796
v 0.1987 0.723798 0.8796
v 0.423612 0.723699 0.8796
v 0.424205 0.1237 0.8796
vt 0.832904 0.232955
vt 0.903212 0.232955
vt 0.903072 0.233154
vt 0.832764 0.233154
vt 0.386963 0.240768
vt 0.413317 0.240768
vt 0.413457 0.240967
vt 0.387103 0.240967
vt 0.289935 0.234909
vt 0.307765 0.234909
vt 0.307905 0.235107
vt 0.289795 0.235107
vt 0.796771 0.238815
vt 0.86738 0.238815
vt 0.867521 0.239014
vt 0.796631 0.239014
vt 0.249896 0.234909
vt 0.267757 0.234909
vt 0.267897 0.235107
vt 0.249756 0.235107
vt 0.330463 0.240768
vt 0.35682 0.240768
vt 0.356679 0.240967
vt 0.330322 0.240967
vt 0.688232 0.232955
vt 0.758545 0.232955
vt 0.758685 0.233154
vt 0.688373 0.233154
vt 0.349994 0.234909
vt 0.367818 0.234909
vt 0.367958 0.235107
vt 0.349854 0.235107
vt 0.507568 0.276561
vt 0.577877 0.276561
vt 0.577877 0.2771
vt 0.507568 0.2771
vt 0.863037 0.264354
vt 0.889391 0.264354
vt 0.889391 0.264893
vt 0.863037 0.264893
vt 0.281982 0.259471
vt 0.300093 0.259471
vt 0.300093 0.26001
vt 0.281982 0.26001
vt 0.073975 0.276561
vt 0.144864 0.276561
vt 0.144864 0.2771
vt 0.073975 0.2771
vt 0.241943 0.259471
vt 0.260085 0.259471
vt 0.260085 0.26001
vt 0.241943 0.26001
vt 0.807373 0.264354
vt 0.83373 0.264354
vt 0.83373 0.264893
vt 0.807373 0.264893
vt 0.363525 0.276561
vt 0.433838 0.276561
vt 0.433838 0.2771
vt 0.363525 0.2771
vt 0.362061 0.259471
vt 0.380165 0.259471
vt 0.380165 0.26001
vt 0.362061 0.26001
vt 0.730713 0.240768
vt 0.801021 0.240768
vt 0.801162 0.240967
vt 0.730853 0.240967
vt 0.168353 0.242721
vt 0.194707 0.242721
vt 0.194567 0.24292
vt 0.168213 0.24292
vt 0.912842 0.240768
vt 0.930952 0.240768
vt 0.930812 0.240967
vt 0.912982 0.240967
vt 0.775146 0.242721
vt 0.846036 0.242721
vt 0.845896 0.24292
vt 0.775287 0.24292
vt 0.932861 0.231002
vt 0.951003 0.231002
vt 0.950862 0.231201
vt 0.933002 0.231201
vt 0.111572 0.242721
vt 0.137929 0.242721
vt 0.13807 0.24292
vt 0.111713 0.24292
vt 0.001361 0.236862
vt 0.071674 0.236862
vt 0.071533 0.237061
vt 0.001221 0.237061
vt 0.369873 0.234909
vt 0.387978 0.234909
vt 0.387837 0.235107
vt 0.370014 0.235107
vt 0.430908 0.730726
vt 0.360599 0.730713
vt 0.360596 0.712889
vt 0.448791 0.757072
vt 0.430962 0.75708
vt 0.430908 0.730726
vt 0.44878 0.686463
vt 0.448791 0.757072
vt 0.430908 0.730726
vt 0.43092 0.686463
vt 0.44878 0.686463
vt 0.430908 0.730726
vt 0.430908 0.71282
vt 0.43092 0.686463
vt 0.430908 0.730726
vt 0.360596 0.712889
vt 0.430908 0.71282
vt 0.430908 0.730726
vt 0.450439 0.730654
vt 0.450443 0.71283
vt 0.520751 0.712817
vt 0.520751 0.712817
vt 0.520805 0.686463
vt 0.538635 0.686471
vt 0.520751 0.712817
vt 0.538635 0.686471
vt 0.538624 0.75708
vt 0.520751 0.712817
vt 0.538624 0.75708
vt 0.520763 0.75708
vt 0.520751 0.712817
vt 0.520763 0.75708
vt 0.520752 0.730723
vt 0.520751 0.712817
vt 0.520752 0.730723
vt 0.450439 0.730654
vn 0.707107 -0.000134 -0.707107
vn 0.001454 -0.707105 -0.707107
vn 0.707107 0.00034 -0.707107
vn -0.00011 0.707107 -0.707107
vn -0.707107 0 -0.707107
vn -0.000311 -0.707107 -0.707107
vn -0.707106 -0.000699 -0.707107
vn 0.000149 -0.707107 -0.707107
vn 1 -0.00019 0
vn 0.002057 -0.999998 0
vn 1 0.00048 0
vn -0.000155 1 0
vn -1 0 0
vn -0.00044 -1 0
vn -1 -0.000988 0
vn 0.000211 -1 0
vn 0.707107 -0.000134 0.707107
vn 0.001454 -0.707105 0.707107
vn 0.707107 0.00034 0.707107
vn -0.00011 0.707107 0.707107
vn -0.707107 0 0.707107
vn -0.000311 -0.707107 0.707107
vn -0.707106 -0.000699 0.707107
vn 0.000149 -0.707107 0.707107
vn 0 0 -1
vn 0 0 1
f 33/69/10 34/70/10 42/71/10 41/72/10
f 34/73/11 35/74/11 43/75/11 42/76/11
f 35/77/12 36/78/12 44/79/12 43/80/12
f 36/81/13 37/82/13 45/83/13 44/84/13
f 37/85/14 38/86/14 46/87/14 45/88/14
f 38/89/15 39/90/15 47/91/15 46/92/15
f 39/93/16 40/94/16 48/95/16 47/96/16
f 40/97/17 33/98/17 41/99/17 48/100/17
f 41/101/18 42/102/18 50/103/18 49/104/18
f 42/105/19 43/106/19 51/107/19 50/108/19
f 43/109/20 44/110/20 52/111/20 51/112/20
f 44/113/21 45/114/21 53/115/21 52/116/21
f 45/117/22 46/118/22 54/119/22 53/120/22
f 46/121/23 47/122/23 55/123/23 54/124/23
f 47/125/24 48/126/24 56/127/24 55/128/24
f 48/129/25 41/130/25 49/131/25 56/132/25
f 49/133/26 50/134/26 58/135/26 57/136/26
f 50/137/27 51/138/27 59/139/27 58/140/27
f 51/141/28 52/142/28 60/143/28 59/144/28
f 52/145/29 53/146/29 61/147/29 60/148/29
f 53/149/30 54/150/30 62/151/30 61/152/30
f 54/153/31 55/154/31 63/155/31 62/156/31
f 55/157/32 56/158/32 64/159/32 63/160/32
f 56/161/33 49/162/33 57/163/33 64/164/33
f 66/165/34 65/166/34 72/167/34
f 68/168/34 67/169/34 66/170/34
f 69/171/34 68/172/34 66/173/34
f 70/174/34 69/175/34 66/176/34
f 71/177/34 70/178/34 66/179/34
f 72/180/34 71/181/34 66/182/34
f 80/183/35 73/184/35 74/185/35
f 74/186/35 75/187/35 76/188/35
f 74/189/35 76/190/35 77/191/35
f 74/192/35 77/193/35 78/194/35
f 74/195/35 78/196/35 79/197/35
f 74/198/35 79/199/35 80/200/35
