# AFL PRAIRIE signage V1 channel letter U (lit), generated by tools/build-prairie-signage-v1.mjs
mtllib u_lit.mtl
o U_body
usemtl letters_nz
v 0.585363 0.125514 0.8786
v 0.603363 0.127433 0.8786
v 0.619363 0.13036 0.8786
v 0.637363 0.135086 0.8786
v 0.653363 0.14064 0.8786
v 0.669363 0.147571 0.8786
v 0.685363 0.156025 0.8786
v 0.699363 0.164829 0.8786
v 0.713857 0.175544 0.8786
v 0.727363 0.187261 0.8786
v 0.739509 0.199544 0.8786
v 0.751356 0.213544 0.8786
v 0.761454 0.227544 0.8786
v 0.770069 0.241544 0.8786
v 0.778332 0.257544 0.8786
v 0.785093 0.273544 0.8786
v 0.791073 0.291544 0.8786
v 0.797554 0.321544 0.8786
v 0.799974 0.351544 0.8786
v 0.8 0.875 0.8786
v 0.65 0.875 0.8786
v 0.649987 0.353544 0.8786
v 0.649175 0.343544 0.8786
v 0.647069 0.333544 0.8786
v 0.643556 0.323544 0.8786
v 0.638419 0.313544 0.8786
v 0.627657 0.299544 0.8786
v 0.615363 0.289107 0.8786
v 0.601363 0.281404 0.8786
v 0.585363 0.276489 0.8786
v 0.571363 0.275012 0.8786
v 0.429363 0.275003 0.8786
v 0.415363 0.276351 0.8786
v 0.401363 0.280302 0.8786
v 0.389363 0.286091 0.8786
v 0.377363 0.294759 0.8786
v 0.36712 0.305544 0.8786
v 0.359363 0.317446 0.8786
v 0.354159 0.329544 0.8786
v 0.350825 0.343544 0.8786
v 0.35 0.355544 0.8786
v 0.35 0.875 0.8786
v 0.199999 0.874973 0.8786
v 0.200194 0.345544 0.8786
v 0.202749 0.319544 0.8786
v 0.207818 0.295544 0.8786
v 0.215676 0.271544 0.8786
v 0.225601 0.249544 0.8786
v 0.237229 0.229544 0.8786
v 0.249363 0.212628 0.8786
v 0.263363 0.19647 0.8786
v 0.279363 0.181194 0.8786
v 0.296735 0.167544 0.8786
v 0.315363 0.155605 0.8786
v 0.335363 0.145372 0.8786
v 0.355363 0.137447 0.8786
v 0.385363 0.129373 0.8786
v 0.417363 0.125347 0.8786
v 0.585363 0.125514 0.9996
v 0.603363 0.127433 0.9996
v 0.619363 0.13036 0.9996
v 0.637363 0.135086 0.9996
v 0.653363 0.14064 0.9996
v 0.669363 0.147571 0.9996
v 0.685363 0.156025 0.9996
v 0.699363 0.164829 0.9996
v 0.713857 0.175544 0.9996
v 0.727363 0.187261 0.9996
v 0.739509 0.199544 0.9996
v 0.751356 0.213544 0.9996
v 0.761454 0.227544 0.9996
v 0.770069 0.241544 0.9996
v 0.778332 0.257544 0.9996
v 0.785093 0.273544 0.9996
v 0.791073 0.291544 0.9996
v 0.797554 0.321544 0.9996
v 0.799974 0.351544 0.9996
v 0.8 0.875 0.9996
v 0.65 0.875 0.9996
v 0.649987 0.353544 0.9996
v 0.649175 0.343544 0.9996
v 0.647069 0.333544 0.9996
v 0.643556 0.323544 0.9996
v 0.638419 0.313544 0.9996
v 0.627657 0.299544 0.9996
v 0.615363 0.289107 0.9996
v 0.601363 0.281404 0.9996
v 0.585363 0.276489 0.9996
v 0.571363 0.275012 0.9996
v 0.429363 0.275003 0.9996
v 0.415363 0.276351 0.9996
v 0.401363 0.280302 0.9996
v 0.389363 0.286091 0.9996
v 0.377363 0.294759 0.9996
v 0.36712 0.305544 0.9996
v 0.359363 0.317446 0.9996
v 0.354159 0.329544 0.9996
v 0.350825 0.343544 0.9996
v 0.35 0.355544 0.9996
v 0.35 0.875 0.9996
v 0.199999 0.874973 0.9996
v 0.200194 0.345544 0.9996
v 0.202749 0.319544 0.9996
v 0.207818 0.295544 0.9996
v 0.215676 0.271544 0.9996
v 0.225601 0.249544 0.9996
v 0.237229 0.229544 0.9996
v 0.249363 0.212628 0.9996
v 0.263363 0.19647 0.9996
v 0.279363 0.181194 0.9996
v 0.296735 0.167544 0.9996
v 0.315363 0.155605 0.9996
v 0.335363 0.145372 0.9996
v 0.355363 0.137447 0.9996
v 0.385363 0.129373 0.9996
v 0.417363 0.125347 0.9996
v 0.585363 0.125514 0.8786
v 0.603363 0.127433 0.8786
v 0.619363 0.13036 0.8786
v 0.637363 0.135086 0.8786
v 0.653363 0.14064 0.8786
v 0.669363 0.147571 0.8786
v 0.685363 0.156025 0.8786
v 0.699363 0.164829 0.8786
v 0.713857 0.175544 0.8786
v 0.727363 0.187261 0.8786
v 0.739509 0.199544 0.8786
v 0.751356 0.213544 0.8786
v 0.761454 0.227544 0.8786
v 0.770069 0.241544 0.8786
v 0.778332 0.257544 0.8786
v 0.785093 0.273544 0.8786
v 0.791073 0.291544 0.8786
v 0.797554 0.321544 0.8786
v 0.799974 0.351544 0.8786
v 0.8 0.875 0.8786
v 0.65 0.875 0.8786
v 0.649987 0.353544 0.8786
v 0.649175 0.343544 0.8786
v 0.647069 0.333544 0.8786
v 0.643556 0.323544 0.8786
v 0.638419 0.313544 0.8786
v 0.627657 0.299544 0.8786
v 0.615363 0.289107 0.8786
v 0.601363 0.281404 0.8786
v 0.585363 0.276489 0.8786
v 0.571363 0.275012 0.8786
v 0.429363 0.275003 0.8786
v 0.415363 0.276351 0.8786
v 0.401363 0.280302 0.8786
v 0.389363 0.286091 0.8786
v 0.377363 0.294759 0.8786
v 0.36712 0.305544 0.8786
v 0.359363 0.317446 0.8786
v 0.354159 0.329544 0.8786
v 0.350825 0.343544 0.8786
v 0.35 0.355544 0.8786
v 0.35 0.875 0.8786
v 0.199999 0.874973 0.8786
v 0.200194 0.345544 0.8786
v 0.202749 0.319544 0.8786
v 0.207818 0.295544 0.8786
v 0.215676 0.271544 0.8786
v 0.225601 0.249544 0.8786
v 0.237229 0.229544 0.8786
v 0.249363 0.212628 0.8786
v 0.263363 0.19647 0.8786
v 0.279363 0.181194 0.8786
v 0.296735 0.167544 0.8786
v 0.315363 0.155605 0.8786
v 0.335363 0.145372 0.8786
v 0.355363 0.137447 0.8786
v 0.385363 0.129373 0.8786
v 0.417363 0.125347 0.8786
v 0.585363 0.125514 0.9996
v 0.603363 0.127433 0.9996
v 0.619363 0.13036 0.9996
v 0.637363 0.135086 0.9996
v 0.653363 0.14064 0.9996
v 0.669363 0.147571 0.9996
v 0.685363 0.156025 0.9996
v 0.699363 0.164829 0.9996
v 0.713857 0.175544 0.9996
v 0.727363 0.187261 0.9996
v 0.739509 0.199544 0.9996
v 0.751356 0.213544 0.9996
v 0.761454 0.227544 0.9996
v 0.770069 0.241544 0.9996
v 0.778332 0.257544 0.9996
v 0.785093 0.273544 0.9996
v 0.791073 0.291544 0.9996
v 0.797554 0.321544 0.9996
v 0.799974 0.351544 0.9996
v 0.8 0.875 0.9996
v 0.65 0.875 0.9996
v 0.649987 0.353544 0.9996
v 0.649175 0.343544 0.9996
v 0.647069 0.333544 0.9996
v 0.643556 0.323544 0.9996
v 0.638419 0.313544 0.9996
v 0.627657 0.299544 0.9996
v 0.615363 0.289107 0.9996
v 0.601363 0.281404 0.9996
v 0.585363 0.276489 0.9996
v 0.571363 0.275012 0.9996
v 0.429363 0.275003 0.9996
v 0.415363 0.276351 0.9996
v 0.401363 0.280302 0.9996
v 0.389363 0.286091 0.9996
v 0.377363 0.294759 0.9996
v 0.36712 0.305544 0.9996
v 0.359363 0.317446 0.9996
v 0.354159 0.329544 0.9996
v 0.350825 0.343544 0.9996
v 0.35 0.355544 0.9996
v 0.35 0.875 0.9996
v 0.199999 0.874973 0.9996
v 0.200194 0.345544 0.9996
v 0.202749 0.319544 0.9996
v 0.207818 0.295544 0.9996
v 0.215676 0.271544 0.9996
v 0.225601 0.249544 0.9996
v 0.237229 0.229544 0.9996
v 0.249363 0.212628 0.9996
v 0.263363 0.19647 0.9996
v 0.279363 0.181194 0.9996
v 0.296735 0.167544 0.9996
v 0.315363 0.155605 0.9996
v 0.335363 0.145372 0.9996
v 0.355363 0.137447 0.9996
v 0.385363 0.129373 0.9996
v 0.417363 0.125347 0.9996
vt 0.861662 0.364971
vt 0.86378 0.364971
vt 0.86378 0.37915
vt 0.861662 0.37915
vt 0.86378 0.364971
vt 0.865686 0.364971
vt 0.865686 0.37915
vt 0.86378 0.37915
vt 0.865686 0.364971
vt 0.867858 0.364971
vt 0.867858 0.37915
vt 0.865686 0.37915
vt 0.867858 0.364971
vt 0.869814 0.364971
vt 0.869814 0.37915
vt 0.867858 0.37915
vt 0.869814 0.364971
vt 0.871798 0.364971
vt 0.871798 0.37915
vt 0.869814 0.37915
vt 0.605713 0.346924
vt 0.605713 0.344828
vt 0.619893 0.344828
vt 0.619893 0.346924
vt 0.605713 0.344828
vt 0.605713 0.342895
vt 0.619893 0.342895
vt 0.619893 0.344828
vt 0.605713 0.342895
vt 0.605713 0.340783
vt 0.619893 0.340783
vt 0.619893 0.342895
vt 0.605713 0.340783
vt 0.605713 0.338694
vt 0.619893 0.338694
vt 0.619893 0.340783
vt 0.605713 0.338694
vt 0.605713 0.336693
vt 0.619893 0.336693
vt 0.619893 0.338694
vt 0.887451 0.346924
vt 0.887451 0.344799
vt 0.901631 0.344799
vt 0.901631 0.346924
vt 0.887451 0.344799
vt 0.887451 0.342782
vt 0.901631 0.342782
vt 0.901631 0.344799
vt 0.887451 0.342782
vt 0.887451 0.340855
vt 0.901631 0.340855
vt 0.901631 0.342782
vt 0.887451 0.340855
vt 0.887451 0.338751
vt 0.901631 0.338751
vt 0.901631 0.340855
vt 0.887451 0.338751
vt 0.887451 0.336739
vt 0.901631 0.336739
vt 0.901631 0.338751
vt 0.217041 0.397197
vt 0.219233 0.397197
vt 0.219233 0.411377
vt 0.217041 0.411377
vt 0.219233 0.397197
vt 0.222823 0.397197
vt 0.222823 0.411377
vt 0.219233 0.411377
vt 0.222823 0.397197
vt 0.226341 0.397197
vt 0.226341 0.411377
vt 0.222823 0.411377
vt 0.226341 0.397197
vt 0.286963 0.397197
vt 0.286963 0.411377
vt 0.226341 0.411377
vt 0.886963 0.348857
vt 0.904541 0.348857
vt 0.904541 0.363037
vt 0.886963 0.363037
vt 0.695557 0.397197
vt 0.755918 0.397197
vt 0.755918 0.411377
vt 0.695557 0.411377
vt 0.755918 0.397197
vt 0.75709 0.397197
vt 0.75709 0.411377
vt 0.755918 0.411377
vt 0.75709 0.397197
vt 0.758286 0.397197
vt 0.758286 0.411377
vt 0.75709 0.411377
vt 0.758286 0.397197
vt 0.759508 0.397197
vt 0.759508 0.411377
vt 0.758286 0.411377
vt 0.257568 0.303467
vt 0.257568 0.302155
vt 0.271748 0.302155
vt 0.271748 0.303467
vt 0.257568 0.302155
vt 0.257568 0.300094
vt 0.271748 0.300094
vt 0.271748 0.302155
vt 0.001221 0.303467
vt 0.001221 0.301586
vt 0.0154 0.301586
vt 0.0154 0.303467
vt 0.001221 0.301586
vt 0.001221 0.299723
vt 0.0154 0.299723
vt 0.0154 0.301586
vt 0.55835 0.348857
vt 0.560285 0.348857
vt 0.560285 0.363037
vt 0.55835 0.363037
vt 0.560285 0.348857
vt 0.561934 0.348857
vt 0.561934 0.363037
vt 0.560285 0.363037
vt 0.561934 0.348857
vt 0.578425 0.348857
vt 0.578425 0.363037
vt 0.561934 0.363037
vt 0.273682 0.303467
vt 0.273682 0.301825
vt 0.287861 0.301825
vt 0.287861 0.303467
vt 0.273682 0.301825
vt 0.273682 0.300127
vt 0.287861 0.300127
vt 0.287861 0.301825
vt 0.289795 0.303467
vt 0.289795 0.301912
vt 0.303975 0.301912
vt 0.303975 0.303467
vt 0.289795 0.301912
vt 0.289795 0.300183
vt 0.303975 0.300183
vt 0.303975 0.301912
vt 0.241455 0.303467
vt 0.241455 0.301731
vt 0.255635 0.301731
vt 0.255635 0.303467
vt 0.241455 0.301731
vt 0.241455 0.300073
vt 0.255635 0.300073
vt 0.255635 0.301731
vt 0.437256 0.310303
vt 0.437256 0.308782
vt 0.451436 0.308782
vt 0.451436 0.310303
vt 0.437256 0.308782
vt 0.437256 0.307095
vt 0.451436 0.307095
vt 0.451436 0.308782
vt 0.437256 0.307095
vt 0.437256 0.305705
vt 0.451436 0.305705
vt 0.451436 0.307095
vt 0.065186 0.381084
vt 0.126059 0.381084
vt 0.126059 0.395264
vt 0.065186 0.395264
vt 0.8479 0.348857
vt 0.865479 0.348857
vt 0.865479 0.363037
vt 0.8479 0.363037
vt 0.145264 0.397197
vt 0.206559 0.397197
vt 0.206559 0.411377
vt 0.145264 0.411377
vt 0.206559 0.397197
vt 0.209616 0.397197
vt 0.209616 0.411377
vt 0.206559 0.411377
vt 0.209616 0.397197
vt 0.212486 0.397197
vt 0.212486 0.411377
vt 0.209616 0.411377
vt 0.212486 0.397197
vt 0.215408 0.397197
vt 0.215408 0.411377
vt 0.212486 0.411377
vt 0.509033 0.346924
vt 0.509033 0.344126
vt 0.523213 0.344126
vt 0.523213 0.346924
vt 0.509033 0.344126
vt 0.509033 0.341418
vt 0.523213 0.341418
vt 0.523213 0.344126
vt 0.509033 0.341418
vt 0.509033 0.338982
vt 0.523213 0.338982
vt 0.523213 0.341418
vt 0.509033 0.338982
vt 0.509033 0.336501
vt 0.523213 0.336501
vt 0.523213 0.338982
vt 0.557373 0.346924
vt 0.557373 0.344359
vt 0.571553 0.344359
vt 0.571553 0.346924
vt 0.557373 0.344359
vt 0.557373 0.341772
vt 0.571553 0.341772
vt 0.571553 0.344359
vt 0.557373 0.341772
vt 0.557373 0.339183
vt 0.571553 0.339183
vt 0.571553 0.341772
vt 0.557373 0.339183
vt 0.557373 0.336577
vt 0.571553 0.336577
vt 0.571553 0.339183
vt 0.081787 0.31958
vt 0.081787 0.317063
vt 0.095967 0.317063
vt 0.095967 0.31958
vt 0.081787 0.317063
vt 0.081787 0.313428
vt 0.095967 0.313428
vt 0.095967 0.317063
vt 0.838623 0.364971
vt 0.842243 0.364971
vt 0.842243 0.37915
vt 0.838623 0.37915
vt 0.842243 0.364971
vt 0.861662 0.364971
vt 0.861662 0.37915
vt 0.842243 0.37915
vt 0.270996 0.661771
vt 0.270771 0.659662
vt 0.270752 0.639974
vt 0.271339 0.663646
vt 0.270996 0.661771
vt 0.270752 0.639974
vt 0.271893 0.665755
vt 0.271339 0.663646
vt 0.270752 0.639974
vt 0.272544 0.66763
vt 0.271893 0.665755
vt 0.270752 0.639974
vt 0.273356 0.669505
vt 0.272544 0.66763
vt 0.270752 0.639974
vt 0.274347 0.67138
vt 0.273356 0.669505
vt 0.270752 0.639974
vt 0.275379 0.673021
vt 0.274347 0.67138
vt 0.270752 0.639974
vt 0.276634 0.67472
vt 0.275379 0.673021
vt 0.270752 0.639974
vt 0.278007 0.676302
vt 0.276634 0.67472
vt 0.270752 0.639974
vt 0.279447 0.677726
vt 0.278007 0.676302
vt 0.270752 0.639974
vt 0.281087 0.679114
vt 0.279447 0.677726
vt 0.270752 0.639974
vt 0.282728 0.680297
vt 0.281087 0.679114
vt 0.270752 0.639974
vt 0.284369 0.681307
vt 0.282728 0.680297
vt 0.270752 0.639974
vt 0.286244 0.682275
vt 0.284369 0.681307
vt 0.270752 0.639974
vt 0.288119 0.683067
vt 0.286244 0.682275
vt 0.270752 0.639974
vt 0.290228 0.683768
vt 0.288119 0.683067
vt 0.270752 0.639974
vt 0.293744 0.684528
vt 0.290228 0.683768
vt 0.270752 0.639974
vt 0.297259 0.684811
vt 0.293744 0.684528
vt 0.270752 0.639974
vt 0.358602 0.667236
vt 0.358602 0.684814
vt 0.297259 0.684811
vt 0.297494 0.667235
vt 0.358602 0.667236
vt 0.297259 0.684811
vt 0.296322 0.66714
vt 0.297494 0.667235
vt 0.297259 0.684811
vt 0.29515 0.666893
vt 0.296322 0.66714
vt 0.297259 0.684811
vt 0.293978 0.666481
vt 0.29515 0.666893
vt 0.297259 0.684811
vt 0.292806 0.665879
vt 0.293978 0.666481
vt 0.297259 0.684811
vt 0.291166 0.664618
vt 0.292806 0.665879
vt 0.297259 0.684811
vt 0.289942 0.663177
vt 0.291166 0.664618
vt 0.297259 0.684811
vt 0.289942 0.663177
vt 0.297259 0.684811
vt 0.270752 0.639974
vt 0.28904 0.661537
vt 0.289942 0.663177
vt 0.270752 0.639974
vt 0.288464 0.659662
vt 0.28904 0.661537
vt 0.270752 0.639974
vt 0.288291 0.658021
vt 0.288464 0.659662
vt 0.270752 0.639974
vt 0.28829 0.64138
vt 0.288291 0.658021
vt 0.270752 0.639974
vt 0.288448 0.63974
vt 0.28829 0.64138
vt 0.270752 0.639974
vt 0.288911 0.638099
vt 0.288448 0.63974
vt 0.270752 0.639974
vt 0.289589 0.636693
vt 0.288911 0.638099
vt 0.270752 0.639974
vt 0.290605 0.635287
vt 0.289589 0.636693
vt 0.270752 0.639974
vt 0.291869 0.634086
vt 0.290605 0.635287
vt 0.270752 0.639974
vt 0.293263 0.633177
vt 0.291869 0.634086
vt 0.270752 0.639974
vt 0.294681 0.632567
vt 0.293263 0.633177
vt 0.270752 0.639974
vt 0.358599 0.614502
vt 0.358602 0.63208
vt 0.297728 0.63208
vt 0.358599 0.614502
vt 0.297728 0.63208
vt 0.296322 0.632177
vt 0.358599 0.614502
vt 0.296322 0.632177
vt 0.294681 0.632567
vt 0.296556 0.614525
vt 0.358599 0.614502
vt 0.294681 0.632567
vt 0.296556 0.614525
vt 0.294681 0.632567
vt 0.270752 0.639974
vt 0.293509 0.614824
vt 0.296556 0.614525
vt 0.270752 0.639974
vt 0.290697 0.615418
vt 0.293509 0.614824
vt 0.270752 0.639974
vt 0.287884 0.616339
vt 0.290697 0.615418
vt 0.270752 0.639974
vt 0.285306 0.617502
vt 0.287884 0.616339
vt 0.270752 0.639974
vt 0.282962 0.618865
vt 0.285306 0.617502
vt 0.270752 0.639974
vt 0.28098 0.620287
vt 0.282962 0.618865
vt 0.270752 0.639974
vt 0.279087 0.621927
vt 0.28098 0.620287
vt 0.270752 0.639974
vt 0.277297 0.623802
vt 0.279087 0.621927
vt 0.270752 0.639974
vt 0.275697 0.625838
vt 0.277297 0.623802
vt 0.270752 0.639974
vt 0.274298 0.628021
vt 0.275697 0.625838
vt 0.270752 0.639974
vt 0.273099 0.630365
vt 0.274298 0.628021
vt 0.270752 0.639974
vt 0.27217 0.632709
vt 0.273099 0.630365
vt 0.270752 0.639974
vt 0.270752 0.639974
vt 0.271224 0.636224
vt 0.27217 0.632709
vt 0.360107 0.659342
vt 0.360127 0.639655
vt 0.360352 0.637545
vt 0.360107 0.659342
vt 0.360352 0.637545
vt 0.360695 0.63567
vt 0.360107 0.659342
vt 0.360695 0.63567
vt 0.361249 0.633561
vt 0.360107 0.659342
vt 0.361249 0.633561
vt 0.361899 0.631686
vt 0.360107 0.659342
vt 0.361899 0.631686
vt 0.362712 0.629811
vt 0.360107 0.659342
vt 0.362712 0.629811
vt 0.363702 0.627936
vt 0.360107 0.659342
vt 0.363702 0.627936
vt 0.364734 0.626295
vt 0.360107 0.659342
vt 0.364734 0.626295
vt 0.36599 0.624597
vt 0.360107 0.659342
vt 0.36599 0.624597
vt 0.367363 0.623014
vt 0.360107 0.659342
vt 0.367363 0.623014
vt 0.368802 0.621591
vt 0.360107 0.659342
vt 0.368802 0.621591
vt 0.370443 0.620202
vt 0.360107 0.659342
vt 0.370443 0.620202
vt 0.372084 0.619019
vt 0.360107 0.659342
vt 0.372084 0.619019
vt 0.373724 0.618009
vt 0.360107 0.659342
vt 0.373724 0.618009
vt 0.375599 0.617041
vt 0.360107 0.659342
vt 0.375599 0.617041
vt 0.377474 0.616249
vt 0.360107 0.659342
vt 0.377474 0.616249
vt 0.379584 0.615548
vt 0.360107 0.659342
vt 0.379584 0.615548
vt 0.383099 0.614789
vt 0.360107 0.659342
vt 0.383099 0.614789
vt 0.386615 0.614505
vt 0.386615 0.614505
vt 0.447957 0.614502
vt 0.447957 0.63208
vt 0.386615 0.614505
vt 0.447957 0.63208
vt 0.386849 0.632082
vt 0.386615 0.614505
vt 0.386849 0.632082
vt 0.385677 0.632177
vt 0.386615 0.614505
vt 0.385677 0.632177
vt 0.384505 0.632424
vt 0.386615 0.614505
vt 0.384505 0.632424
vt 0.383334 0.632835
vt 0.386615 0.614505
vt 0.383334 0.632835
vt 0.382162 0.633437
vt 0.386615 0.614505
vt 0.382162 0.633437
vt 0.380521 0.634698
vt 0.386615 0.614505
vt 0.380521 0.634698
vt 0.379298 0.636139
vt 0.360107 0.659342
vt 0.386615 0.614505
vt 0.379298 0.636139
vt 0.360107 0.659342
vt 0.379298 0.636139
vt 0.378395 0.63778
vt 0.360107 0.659342
vt 0.378395 0.63778
vt 0.377819 0.639655
vt 0.360107 0.659342
vt 0.377819 0.639655
vt 0.377646 0.641295
vt 0.360107 0.659342
vt 0.377646 0.641295
vt 0.377645 0.657936
vt 0.360107 0.659342
vt 0.377645 0.657936
vt 0.377803 0.659576
vt 0.360107 0.659342
vt 0.377803 0.659576
vt 0.378266 0.661217
vt 0.360107 0.659342
vt 0.378266 0.661217
vt 0.378945 0.662623
vt 0.360107 0.659342
vt 0.378945 0.662623
vt 0.37996 0.66403
vt 0.360107 0.659342
vt 0.37996 0.66403
vt 0.381224 0.66523
vt 0.360107 0.659342
vt 0.381224 0.66523
vt 0.382619 0.666139
vt 0.360107 0.659342
vt 0.382619 0.666139
vt 0.384037 0.666749
vt 0.387084 0.667236
vt 0.447957 0.667236
vt 0.447954 0.684814
vt 0.385677 0.66714
vt 0.387084 0.667236
vt 0.447954 0.684814
vt 0.384037 0.666749
vt 0.385677 0.66714
vt 0.447954 0.684814
vt 0.384037 0.666749
vt 0.447954 0.684814
vt 0.385912 0.684792
vt 0.360107 0.659342
vt 0.384037 0.666749
vt 0.385912 0.684792
vt 0.360107 0.659342
vt 0.385912 0.684792
vt 0.382865 0.684492
vt 0.360107 0.659342
vt 0.382865 0.684492
vt 0.380052 0.683898
vt 0.360107 0.659342
vt 0.380052 0.683898
vt 0.37724 0.682977
vt 0.360107 0.659342
vt 0.37724 0.682977
vt 0.374662 0.681814
vt 0.360107 0.659342
vt 0.374662 0.681814
vt 0.372318 0.680452
vt 0.360107 0.659342
vt 0.372318 0.680452
vt 0.370336 0.67903
vt 0.360107 0.659342
vt 0.370336 0.67903
vt 0.368442 0.677389
vt 0.360107 0.659342
vt 0.368442 0.677389
vt 0.366652 0.675514
vt 0.360107 0.659342
vt 0.366652 0.675514
vt 0.365052 0.673478
vt 0.360107 0.659342
vt 0.365052 0.673478
vt 0.363653 0.671295
vt 0.360107 0.659342
vt 0.363653 0.671295
vt 0.362454 0.668951
vt 0.360107 0.659342
vt 0.362454 0.668951
vt 0.361525 0.666608
vt 0.361525 0.666608
vt 0.360579 0.663092
vt 0.360107 0.659342
vn 0.011211 -0.999937 0
vn 0.141107 -0.989994 0
vn 0.219606 -0.975589 0
vn 0.289406 -0.957206 0
vn 0.363461 -0.931609 0
vn 0.433311 -0.901244 0
vn 0.498662 -0.866797 0
vn 0.565134 -0.824999 0
vn 0.625222 -0.780447 0
vn 0.683213 -0.73022 0
vn 0.738552 -0.674196 0
vn 0.787058 -0.616879 0
vn 0.831424 -0.555638 0
vn 0.871549 -0.490309 0
vn 0.905198 -0.42499 0
vn 0.936408 -0.350914 0
vn 0.967915 -0.251277 0
vn 0.989174 -0.146745 0
vn 0.99999 -0.00442 0
vn 1 -0.00005 0
vn 0 1 0
vn -1 0.000025 0
vn -0.999999 0.001552 0
vn -0.989523 0.144373 0
vn -0.962718 0.270509 0
vn -0.917832 0.396969 0
vn -0.833673 0.552258 0
vn -0.727374 0.686242 0
vn -0.567849 0.823133 0
vn -0.387683 0.921793 0
vn -0.208416 0.97804 0
vn -0.00953 0.999955 0
vn 0.008583 0.999963 0
vn 0.185958 0.982558 0
vn 0.35082 0.936443 0
vn 0.515997 0.856591 0
vn 0.658306 0.752751 0
vn 0.783378 0.621546 0
vn 0.879889 0.475178 0
vn 0.950423 0.31096 0
vn 0.987447 0.157949 0
vn 0.999999 0.001552 0
vn 1 0 0
vn -0.000182 1 0
vn -1 -0.000368 0
vn -0.999988 -0.004951 0
vn -0.988576 -0.150726 0
vn -0.9656 -0.260031 0
vn -0.932726 -0.360586 0
vn -0.889688 -0.456569 0
vn -0.840861 -0.541252 0
vn -0.78461 -0.61999 0
vn -0.723409 -0.690419 0
vn -0.654987 -0.75564 0
vn -0.579367 -0.815067 0
vn -0.4978 -0.867292 0
vn -0.413353 -0.910571 0
vn -0.304761 -0.952429 0
vn -0.19154 -0.981485 0
vn -0.019293 -0.999814 0
vn 0 0 -1
vn 0 0 1
f 1/1/1 2/2/2 60/3/2 59/4/1
f 2/5/2 3/6/3 61/7/3 60/8/2
f 3/9/3 4/10/4 62/11/4 61/12/3
f 4/13/4 5/14/5 63/15/5 62/16/4
f 5/17/5 6/18/6 64/19/6 63/20/5
f 6/21/6 7/22/7 65/23/7 64/24/6
f 7/25/7 8/26/8 66/27/8 65/28/7
f 8/29/8 9/30/9 67/31/9 66/32/8
f 9/33/9 10/34/10 68/35/10 67/36/9
f 10/37/10 11/38/11 69/39/11 68/40/10
f 11/41/11 12/42/12 70/43/12 69/44/11
f 12/45/12 13/46/13 71/47/13 70/48/12
f 13/49/13 14/50/14 72/51/14 71/52/13
f 14/53/14 15/54/15 73/55/15 72/56/14
f 15/57/15 16/58/16 74/59/16 73/60/15
f 16/61/16 17/62/17 75/63/17 74/64/16
f 17/65/17 18/66/18 76/67/18 75/68/17
f 18/69/18 19/70/19 77/71/19 76/72/18
f 19/73/19 20/74/20 78/75/20 77/76/19
f 20/77/21 21/78/21 79/79/21 78/80/21
f 21/81/22 22/82/23 80/83/23 79/84/22
f 22/85/23 23/86/24 81/87/24 80/88/23
f 23/89/24 24/90/25 82/91/25 81/92/24
f 24/93/25 25/94/26 83/95/26 82/96/25
f 25/97/26 26/98/27 84/99/27 83/100/26
f 26/101/27 27/102/28 85/103/28 84/104/27
f 27/105/28 28/106/29 86/107/29 85/108/28
f 28/109/29 29/110/30 87/111/30 86/112/29
f 29/113/30 30/114/31 88/115/31 87/116/30
f 30/117/31 31/118/32 89/119/32 88/120/31
f 31/121/32 32/122/33 90/123/33 89/124/32
f 32/125/33 33/126/34 91/127/34 90/128/33
f 33/129/34 34/130/35 92/131/35 91/132/34
f 34/133/35 35/134/36 93/135/36 92/136/35
f 35/137/36 36/138/37 94/139/37 93/140/36
f 36/141/37 37/142/38 95/143/38 94/144/37
f 37/145/38 38/146/39 96/147/39 95/148/38
f 38/149/39 39/150/40 97/151/40 96/152/39
f 39/153/40 40/154/41 98/155/41 97/156/40
f 40/157/41 41/158/42 99/159/42 98/160/41
f 41/161/42 42/162/43 100/163/43 99/164/42
f 42/165/44 43/166/44 101/167/44 100/168/44
f 43/169/45 44/170/46 102/171/46 101/172/45
f 44/173/46 45/174/47 103/175/47 102/176/46
f 45/177/47 46/178/48 104/179/48 103/180/47
f 46/181/48 47/182/49 105/183/49 104/184/48
f 47/185/49 48/186/50 106/187/50 105/188/49
f 48/189/50 49/190/51 107/191/51 106/192/50
f 49/193/51 50/194/52 108/195/52 107/196/51
f 50/197/52 51/198/53 109/199/53 108/200/52
f 51/201/53 52/202/54 110/203/54 109/204/53
f 52/205/54 53/206/55 111/207/55 110/208/54
f 53/209/55 54/210/56 112/211/56 111/212/55
f 54/213/56 55/214/57 113/215/57 112/216/56
f 55/217/57 56/218/58 114/219/58 113/220/57
f 56/221/58 57/222/59 115/223/59 114/224/58
f 57/225/59 58/226/60 116/227/60 115/228/59
f 58/229/60 1/230/1 59/231/1 116/232/60
f 118/233/61 117/234/61 174/235/61
f 119/236/61 118/237/61 174/238/61
f 120/239/61 119/240/61 174/241/61
f 121/242/61 120/243/61 174/244/61
f 122/245/61 121/246/61 174/247/61
f 123/248/61 122/249/61 174/250/61
f 124/251/61 123/252/61 174/253/61
f 125/254/61 124/255/61 174/256/61
f 126/257/61 125/258/61 174/259/61
f 127/260/61 126/261/61 174/262/61
f 128/263/61 127/264/61 174/265/61
f 129/266/61 128/267/61 174/268/61
f 130/269/61 129/270/61 174/271/61
f 131/272/61 130/273/61 174/274/61
f 132/275/61 131/276/61 174/277/61
f 133/278/61 132/279/61 174/280/61
f 134/281/61 133/282/61 174/283/61
f 135/284/61 134/285/61 174/286/61
f 137/287/61 136/288/61 135/289/61
f 138/290/61 137/291/61 135/292/61
f 139/293/61 138/294/61 135/295/61
f 140/296/61 139/297/61 135/298/61
f 141/299/61 140/300/61 135/301/61
f 142/302/61 141/303/61 135/304/61
f 143/305/61 142/306/61 135/307/61
f 144/308/61 143/309/61 135/310/61
f 144/311/61 135/312/61 174/313/61
f 145/314/61 144/315/61 174/316/61
f 146/317/61 145/318/61 174/319/61
f 147/320/61 146/321/61 174/322/61
f 148/323/61 147/324/61 174/325/61
f 149/326/61 148/327/61 174/328/61
f 150/329/61 149/330/61 174/331/61
f 151/332/61 150/333/61 174/334/61
f 152/335/61 151/336/61 174/337/61
f 153/338/61 152/339/61 174/340/61
f 154/341/61 153/342/61 174/343/61
f 155/344/61 154/345/61 174/346/61
f 159/347/61 158/348/61 157/349/61
f 159/350/61 157/351/61 156/352/61
f 159/353/61 156/354/61 155/355/61
f 160/356/61 159/357/61 155/358/61
f 160/359/61 155/360/61 174/361/61
f 161/362/61 160/363/61 174/364/61
f 162/365/61 161/366/61 174/367/61
f 163/368/61 162/369/61 174/370/61
f 164/371/61 163/372/61 174/373/61
f 165/374/61 164/375/61 174/376/61
f 166/377/61 165/378/61 174/379/61
f 167/380/61 166/381/61 174/382/61
f 168/383/61 167/384/61 174/385/61
f 169/386/61 168/387/61 174/388/61
f 170/389/61 169/390/61 174/391/61
f 171/392/61 170/393/61 174/394/61
f 172/395/61 171/396/61 174/397/61
f 174/398/61 173/399/61 172/400/61
f 232/401/62 175/402/62 176/403/62
f 232/404/62 176/405/62 177/406/62
f 232/407/62 177/408/62 178/409/62
f 232/410/62 178/411/62 179/412/62
f 232/413/62 179/414/62 180/415/62
f 232/416/62 180/417/62 181/418/62
f 232/419/62 181/420/62 182/421/62
f 232/422/62 182/423/62 183/424/62
f 232/425/62 183/426/62 184/427/62
f 232/428/62 184/429/62 185/430/62
f 232/431/62 185/432/62 186/433/62
f 232/434/62 186/435/62 187/436/62
f 232/437/62 187/438/62 188/439/62
f 232/440/62 188/441/62 189/442/62
f 232/443/62 189/444/62 190/445/62
f 232/446/62 190/447/62 191/448/62
f 232/449/62 191/450/62 192/451/62
f 232/452/62 192/453/62 193/454/62
f 193/455/62 194/456/62 195/457/62
f 193/458/62 195/459/62 196/460/62
f 193/461/62 196/462/62 197/463/62
f 193/464/62 197/465/62 198/466/62
f 193/467/62 198/468/62 199/469/62
f 193/470/62 199/471/62 200/472/62
f 193/473/62 200/474/62 201/475/62
f 193/476/62 201/477/62 202/478/62
f 232/479/62 193/480/62 202/481/62
f 232/482/62 202/483/62 203/484/62
f 232/485/62 203/486/62 204/487/62
f 232/488/62 204/489/62 205/490/62
f 232/491/62 205/492/62 206/493/62
f 232/494/62 206/495/62 207/496/62
f 232/497/62 207/498/62 208/499/62
f 232/500/62 208/501/62 209/502/62
f 232/503/62 209/504/62 210/505/62
f 232/506/62 210/507/62 211/508/62
f 232/509/62 211/510/62 212/511/62
f 232/512/62 212/513/62 213/514/62
f 215/515/62 216/516/62 217/517/62
f 214/518/62 215/519/62 217/520/62
f 213/521/62 214/522/62 217/523/62
f 213/524/62 217/525/62 218/526/62
f 232/527/62 213/528/62 218/529/62
f 232/530/62 218/531/62 219/532/62
f 232/533/62 219/534/62 220/535/62
f 232/536/62 220/537/62 221/538/62
f 232/539/62 221/540/62 222/541/62
f 232/542/62 222/543/62 223/544/62
f 232/545/62 223/546/62 224/547/62
f 232/548/62 224/549/62 225/550/62
f 232/551/62 225/552/62 226/553/62
f 232/554/62 226/555/62 227/556/62
f 232/557/62 227/558/62 228/559/62
f 232/560/62 228/561/62 229/562/62
f 232/563/62 229/564/62 230/565/62
f 230/566/62 231/567/62 232/568/62
o U_face_lit
usemtl letters_nz_glow
v 0.591255 0.12468 0.8726
v 0.609162 0.12704 0.8726
v 0.625074 0.130353 0.8726
v 0.642986 0.135518 0.8726
v 0.658902 0.141469 0.8726
v 0.674423 0.148615 0.8726
v 0.688854 0.156574 0.8726
v 0.702673 0.165535 0.8726
v 0.717058 0.176471 0.8726
v 0.730458 0.18841 0.8726
v 0.741991 0.200345 0.8726
v 0.753563 0.214275 0.8726
v 0.763446 0.228202 0.8726
v 0.772313 0.242892 0.8726
v 0.780271 0.258643 0.8726
v 0.787374 0.275956 0.8726
v 0.792512 0.291854 0.8726
v 0.79889 0.321717 0.8726
v 0.801274 0.351591 0.8726
v 0.801228 0.8763 0.8726
v 0.648771 0.8763 0.8726
v 0.648686 0.353493 0.8726
v 0.647838 0.343365 0.8726
v 0.645625 0.333209 0.8726
v 0.641926 0.323053 0.8726
v 0.636487 0.312883 0.8726
v 0.626227 0.29993 0.8726
v 0.614038 0.289769 0.8726
v 0.599818 0.282161 0.8726
v 0.583589 0.277477 0.8726
v 0.571421 0.276312 0.8726
v 0.429304 0.276303 0.8726
v 0.415134 0.277712 0.8726
v 0.400922 0.281864 0.8726
v 0.388729 0.287986 0.8726
v 0.377188 0.296649 0.8726
v 0.367778 0.306808 0.8726
v 0.360018 0.318988 0.8726
v 0.354986 0.331184 0.8726
v 0.351879 0.345413 0.8726
v 0.351227 0.876301 0.8726
v 0.198699 0.876206 0.8726
v 0.198892 0.345602 0.8726
v 0.201408 0.319725 0.8726
v 0.206392 0.295852 0.8726
v 0.214116 0.271976 0.8726
v 0.22489 0.248095 0.8726
v 0.236555 0.228201 0.8726
v 0.249558 0.210295 0.8726
v 0.264225 0.193702 0.8726
v 0.280141 0.178815 0.8726
v 0.29805 0.165031 0.8726
v 0.315954 0.153773 0.8726
v 0.335853 0.143729 0.8726
v 0.355735 0.135949 0.8726
v 0.387585 0.127625 0.8726
v 0.419433 0.123943 0.8726
v 0.571335 0.123704 0.8726
v 0.591363 0.123484 0.8738
v 0.609363 0.125856 0.8738
v 0.625363 0.129188 0.8738
v 0.643363 0.134378 0.8738
v 0.659363 0.14036 0.8738
v 0.674965 0.147544 0.8738
v 0.689471 0.155544 0.8738
v 0.703363 0.164553 0.8738
v 0.717822 0.175544 0.8738
v 0.73129 0.187544 0.8738
v 0.742885 0.199544 0.8738
v 0.754516 0.213544 0.8738
v 0.76445 0.227544 0.8738
v 0.773363 0.242311 0.8738
v 0.781363 0.258144 0.8738
v 0.788501 0.275544 0.8738
v 0.793673 0.291544 0.8738
v 0.80008 0.321544 0.8738
v 0.802474 0.351544 0.8738
v 0.802428 0.8775 0.8738
v 0.647571 0.8775 0.8738
v 0.647486 0.353544 0.8738
v 0.646648 0.343544 0.8738
v 0.64447 0.333544 0.8738
v 0.640828 0.323544 0.8738
v 0.635479 0.313544 0.8738
v 0.625363 0.300772 0.8738
v 0.613363 0.290769 0.8738
v 0.599363 0.283278 0.8738
v 0.583363 0.278661 0.8738
v 0.571363 0.277512 0.8738
v 0.429363 0.277503 0.8738
v 0.415363 0.278895 0.8738
v 0.401363 0.282986 0.8738
v 0.389363 0.28901 0.8738
v 0.377995 0.297544 0.8738
v 0.368732 0.307544 0.8738
v 0.361087 0.319544 0.8738
v 0.356136 0.331544 0.8738
v 0.353079 0.345544 0.8738
v 0.352426 0.877502 0.8738
v 0.197499 0.877406 0.8738
v 0.197692 0.345544 0.8738
v 0.20022 0.319544 0.8738
v 0.205231 0.295544 0.8738
v 0.212995 0.271544 0.8738
v 0.223822 0.247544 0.8738
v 0.235549 0.227544 0.8738
v 0.248621 0.209544 0.8738
v 0.263363 0.192864 0.8738
v 0.279363 0.177899 0.8738
v 0.297363 0.164046 0.8738
v 0.315363 0.152727 0.8738
v 0.335363 0.142632 0.8738
v 0.355363 0.134806 0.8738
v 0.387363 0.126443 0.8738
v 0.419363 0.122743 0.8738
v 0.571363 0.122504 0.8738
v 0.591363 0.123484 0.8784
v 0.609363 0.125856 0.8784
v 0.625363 0.129188 0.8784
v 0.643363 0.134378 0.8784
v 0.659363 0.14036 0.8784
v 0.674965 0.147544 0.8784
v 0.689471 0.155544 0.8784
v 0.703363 0.164553 0.8784
v 0.717822 0.175544 0.8784
v 0.73129 0.187544 0.8784
v 0.742885 0.199544 0.8784
v 0.754516 0.213544 0.8784
v 0.76445 0.227544 0.8784
v 0.773363 0.242311 0.8784
v 0.781363 0.258144 0.8784
v 0.788501 0.275544 0.8784
v 0.793673 0.291544 0.8784
v 0.80008 0.321544 0.8784
v 0.802474 0.351544 0.8784
v 0.802428 0.8775 0.8784
v 0.647571 0.8775 0.8784
v 0.647486 0.353544 0.8784
v 0.646648 0.343544 0.8784
v 0.64447 0.333544 0.8784
v 0.640828 0.323544 0.8784
v 0.635479 0.313544 0.8784
v 0.625363 0.300772 0.8784
v 0.613363 0.290769 0.8784
v 0.599363 0.283278 0.8784
v 0.583363 0.278661 0.8784
v 0.571363 0.277512 0.8784
v 0.429363 0.277503 0.8784
v 0.415363 0.278895 0.8784
v 0.401363 0.282986 0.8784
v 0.389363 0.28901 0.8784
v 0.377995 0.297544 0.8784
v 0.368732 0.307544 0.8784
v 0.361087 0.319544 0.8784
v 0.356136 0.331544 0.8784
v 0.353079 0.345544 0.8784
v 0.352426 0.877502 0.8784
v 0.197499 0.877406 0.8784
v 0.197692 0.345544 0.8784
v 0.20022 0.319544 0.8784
v 0.205231 0.295544 0.8784
v 0.212995 0.271544 0.8784
v 0.223822 0.247544 0.8784
v 0.235549 0.227544 0.8784
v 0.248621 0.209544 0.8784
v 0.263363 0.192864 0.8784
v 0.279363 0.177899 0.8784
v 0.297363 0.164046 0.8784
v 0.315363 0.152727 0.8784
v 0.335363 0.142632 0.8784
v 0.355363 0.134806 0.8784
v 0.387363 0.126443 0.8784
v 0.419363 0.122743 0.8784
v 0.571363 0.122504 0.8784
v 0.591255 0.12468 0.8796
v 0.609162 0.12704 0.8796
v 0.625074 0.130353 0.8796
v 0.642986 0.135518 0.8796
v 0.658902 0.141469 0.8796
v 0.674423 0.148615 0.8796
v 0.688854 0.156574 0.8796
v 0.702673 0.165535 0.8796
v 0.717058 0.176471 0.8796
v 0.730458 0.18841 0.8796
v 0.741991 0.200345 0.8796
v 0.753563 0.214275 0.8796
v 0.763446 0.228202 0.8796
v 0.772313 0.242892 0.8796
v 0.780271 0.258643 0.8796
v 0.787374 0.275956 0.8796
v 0.792512 0.291854 0.8796
v 0.79889 0.321717 0.8796
v 0.801274 0.351591 0.8796
v 0.801228 0.8763 0.8796
v 0.648771 0.8763 0.8796
v 0.648686 0.353493 0.8796
v 0.647838 0.343365 0.8796
v 0.645625 0.333209 0.8796
v 0.641926 0.323053 0.8796
v 0.636487 0.312883 0.8796
v 0.626227 0.29993 0.8796
v 0.614038 0.289769 0.8796
v 0.599818 0.282161 0.8796
v 0.583589 0.277477 0.8796
v 0.571421 0.276312 0.8796
v 0.429304 0.276303 0.8796
v 0.415134 0.277712 0.8796
v 0.400922 0.281864 0.8796
v 0.388729 0.287986 0.8796
v 0.377188 0.296649 0.8796
v 0.367778 0.306808 0.8796
v 0.360018 0.318988 0.8796
v 0.354986 0.331184 0.8796
v 0.351879 0.345413 0.8796
v 0.351227 0.876301 0.8796
v 0.198699 0.876206 0.8796
v 0.198892 0.345602 0.8796
v 0.201408 0.319725 0.8796
v 0.206392 0.295852 0.8796
v 0.214116 0.271976 0.8796
v 0.22489 0.248095 0.8796
v 0.236555 0.228201 0.8796
v 0.249558 0.210295 0.8796
v 0.264225 0.193702 0.8796
v 0.280141 0.178815 0.8796
v 0.29805 0.165031 0.8796
v 0.315954 0.153773 0.8796
v 0.335853 0.143729 0.8796
v 0.355735 0.135949 0.8796
v 0.387585 0.127625 0.8796
v 0.419433 0.123943 0.8796
v 0.571335 0.123704 0.8796
v 0.591255 0.12468 0.8726
v 0.609162 0.12704 0.8726
v 0.625074 0.130353 0.8726
v 0.642986 0.135518 0.8726
v 0.658902 0.141469 0.8726
v 0.674423 0.148615 0.8726
v 0.688854 0.156574 0.8726
v 0.702673 0.165535 0.8726
v 0.717058 0.176471 0.8726
v 0.730458 0.18841 0.8726
v 0.741991 0.200345 0.8726
v 0.753563 0.214275 0.8726
v 0.763446 0.228202 0.8726
v 0.772313 0.242892 0.8726
v 0.780271 0.258643 0.8726
v 0.787374 0.275956 0.8726
v 0.792512 0.291854 0.8726
v 0.79889 0.321717 0.8726
v 0.801274 0.351591 0.8726
v 0.801228 0.8763 0.8726
v 0.648771 0.8763 0.8726
v 0.648686 0.353493 0.8726
v 0.647838 0.343365 0.8726
v 0.645625 0.333209 0.8726
v 0.641926 0.323053 0.8726
v 0.636487 0.312883 0.8726
v 0.626227 0.29993 0.8726
v 0.614038 0.289769 0.8726
v 0.599818 0.282161 0.8726
v 0.583589 0.277477 0.8726
v 0.571421 0.276312 0.8726
v 0.429304 0.276303 0.8726
v 0.415134 0.277712 0.8726
v 0.400922 0.281864 0.8726
v 0.388729 0.287986 0.8726
v 0.377188 0.296649 0.8726
v 0.367778 0.306808 0.8726
v 0.360018 0.318988 0.8726
v 0.354986 0.331184 0.8726
v 0.351879 0.345413 0.8726
v 0.351227 0.876301 0.8726
v 0.198699 0.876206 0.8726
v 0.198892 0.345602 0.8726
v 0.201408 0.319725 0.8726
v 0.206392 0.295852 0.8726
v 0.214116 0.271976 0.8726
v 0.22489 0.248095 0.8726
v 0.236555 0.228201 0.8726
v 0.249558 0.210295 0.8726
v 0.264225 0.193702 0.8726
v 0.280141 0.178815 0.8726
v 0.29805 0.165031 0.8726
v 0.315954 0.153773 0.8726
v 0.335853 0.143729 0.8726
v 0.355735 0.135949 0.8726
v 0.387585 0.127625 0.8726
v 0.419433 0.123943 0.8726
v 0.571335 0.123704 0.8726
v 0.591255 0.12468 0.8796
v 0.609162 0.12704 0.8796
v 0.625074 0.130353 0.8796
v 0.642986 0.135518 0.8796
v 0.658902 0.141469 0.8796
v 0.674423 0.148615 0.8796
v 0.688854 0.156574 0.8796
v 0.702673 0.165535 0.8796
v 0.717058 0.176471 0.8796
v 0.730458 0.18841 0.8796
v 0.741991 0.200345 0.8796
v 0.753563 0.214275 0.8796
v 0.763446 0.228202 0.8796
v 0.772313 0.242892 0.8796
v 0.780271 0.258643 0.8796
v 0.787374 0.275956 0.8796
v 0.792512 0.291854 0.8796
v 0.79889 0.321717 0.8796
v 0.801274 0.351591 0.8796
v 0.801228 0.8763 0.8796
v 0.648771 0.8763 0.8796
v 0.648686 0.353493 0.8796
v 0.647838 0.343365 0.8796
v 0.645625 0.333209 0.8796
v 0.641926 0.323053 0.8796
v 0.636487 0.312883 0.8796
v 0.626227 0.29993 0.8796
v 0.614038 0.289769 0.8796
v 0.599818 0.282161 0.8796
v 0.583589 0.277477 0.8796
v 0.571421 0.276312 0.8796
v 0.429304 0.276303 0.8796
v 0.415134 0.277712 0.8796
v 0.400922 0.281864 0.8796
v 0.388729 0.287986 0.8796
v 0.377188 0.296649 0.8796
v 0.367778 0.306808 0.8796
v 0.360018 0.318988 0.8796
v 0.354986 0.331184 0.8796
v 0.351879 0.345413 0.8796
v 0.351227 0.876301 0.8796
v 0.198699 0.876206 0.8796
v 0.198892 0.345602 0.8796
v 0.201408 0.319725 0.8796
v 0.206392 0.295852 0.8796
v 0.214116 0.271976 0.8796
v 0.22489 0.248095 0.8796
v 0.236555 0.228201 0.8796
v 0.249558 0.210295 0.8796
v 0.264225 0.193702 0.8796
v 0.280141 0.178815 0.8796
v 0.29805 0.165031 0.8796
v 0.315954 0.153773 0.8796
v 0.335853 0.143729 0.8796
v 0.355735 0.135949 0.8796
v 0.387585 0.127625 0.8796
v 0.419433 0.123943 0.8796
v 0.571335 0.123704 0.8796
vt 0.673605 0.319281
vt 0.675717 0.319381
vt 0.675713 0.31958
vt 0.67359 0.319479
vt 0.675717 0.319381
vt 0.677621 0.31937
vt 0.677628 0.319569
vt 0.675713 0.31958
vt 0.677621 0.31937
vt 0.679798 0.319239
vt 0.679815 0.319437
vt 0.677628 0.319569
vt 0.679798 0.319239
vt 0.681764 0.31901
vt 0.681791 0.319207
vt 0.679815 0.319437
vt 0.681764 0.31901
vt 0.683711 0.318676
vt 0.683749 0.318871
vt 0.681791 0.319207
vt 0.683711 0.318676
vt 0.685552 0.318257
vt 0.6856 0.31845
vt 0.683749 0.318871
vt 0.685552 0.318257
vt 0.687346 0.317745
vt 0.687403 0.317935
vt 0.6856 0.31845
vt 0.519324 0.286
vt 0.521387 0.28634
vt 0.521361 0.286537
vt 0.519287 0.286196
vt 0.521387 0.28634
vt 0.523467 0.286563
vt 0.523451 0.286761
vt 0.521361 0.286537
vt 0.523467 0.286563
vt 0.525406 0.286666
vt 0.525401 0.286865
vt 0.523451 0.286761
vt 0.525406 0.286666
vt 0.527528 0.286666
vt 0.527534 0.286865
vt 0.525401 0.286865
vt 0.527528 0.286666
vt 0.529524 0.286558
vt 0.52954 0.286756
vt 0.527534 0.286865
vt 0.529524 0.286558
vt 0.531512 0.286344
vt 0.531538 0.286541
vt 0.52954 0.286756
vt 0.531512 0.286344
vt 0.533528 0.286015
vt 0.533564 0.286211
vt 0.531538 0.286541
vt 0.40555 0.330127
vt 0.407703 0.330422
vt 0.407681 0.33062
vt 0.405518 0.330323
vt 0.407703 0.330422
vt 0.409648 0.330581
vt 0.409639 0.33078
vt 0.407681 0.33062
vt 0.409648 0.330581
vt 0.413226 0.330612
vt 0.413234 0.330811
vt 0.409639 0.33078
vt 0.413226 0.330612
vt 0.416714 0.330316
vt 0.416736 0.330514
vt 0.413234 0.330811
vt 0.416714 0.330316
vt 0.476995 0.321697
vt 0.477161 0.321875
vt 0.416736 0.330514
vt 0.449604 0.242721
vt 0.46747 0.242721
vt 0.46761 0.24292
vt 0.449463 0.24292
vt 0.688338 0.346705
vt 0.748027 0.336862
vt 0.748053 0.337059
vt 0.688232 0.346924
vt 0.748027 0.336862
vt 0.749206 0.33674
vt 0.749217 0.336939
vt 0.748053 0.337059
vt 0.749206 0.33674
vt 0.750424 0.336729
vt 0.750416 0.336928
vt 0.749217 0.336939
vt 0.750424 0.336729
vt 0.751681 0.336838
vt 0.751654 0.337036
vt 0.750416 0.336928
vt 0.751681 0.336838
vt 0.752986 0.337089
vt 0.752937 0.337283
vt 0.751654 0.337036
vt 0.871826 0.254932
vt 0.873722 0.254651
vt 0.873736 0.25485
vt 0.871867 0.255127
vt 0.873722 0.254651
vt 0.875582 0.254652
vt 0.875567 0.254851
vt 0.873736 0.25485
vt 0.875582 0.254652
vt 0.877432 0.254925
vt 0.877389 0.25512
vt 0.875567 0.254851
vt 0.238525 0.288906
vt 0.240461 0.28861
vt 0.240477 0.288809
vt 0.238569 0.2891
vt 0.240461 0.28861
vt 0.241893 0.288583
vt 0.24189 0.288782
vt 0.240477 0.288809
vt 0.241893 0.288583
vt 0.258507 0.2894
vt 0.25849 0.289599
vt 0.24189 0.288782
vt 0.258507 0.2894
vt 0.260152 0.289599
vt 0.260116 0.289795
vt 0.25849 0.289599
vt 0.136963 0.25249
vt 0.13867 0.252269
vt 0.138682 0.252468
vt 0.137001 0.252686
vt 0.13867 0.252269
vt 0.140269 0.25227
vt 0.140256 0.252469
vt 0.138682 0.252468
vt 0.140269 0.25227
vt 0.141933 0.252484
vt 0.141895 0.25268
vt 0.140256 0.252469
vt 0.150146 0.25249
vt 0.151743 0.252285
vt 0.151756 0.252484
vt 0.150184 0.252686
vt 0.151743 0.252285
vt 0.153436 0.252287
vt 0.153423 0.252485
vt 0.151756 0.252484
vt 0.153436 0.252287
vt 0.154958 0.25248
vt 0.154921 0.252676
vt 0.153423 0.252485
vt 0.911865 0.314795
vt 0.913562 0.314666
vt 0.913562 0.314865
vt 0.911893 0.314992
vt 0.913562 0.314666
vt 0.975421 0.319371
vt 0.975546 0.31958
vt 0.913562 0.314865
vt 0.389545 0.242721
vt 0.407419 0.242721
vt 0.40756 0.24292
vt 0.389404 0.24292
vt 0.076094 0.321255
vt 0.13694 0.330367
vt 0.136918 0.330565
vt 0.075928 0.321432
vt 0.13694 0.330367
vt 0.139968 0.330607
vt 0.13996 0.330806
vt 0.136918 0.330565
vt 0.139968 0.330607
vt 0.142826 0.330612
vt 0.142833 0.330811
vt 0.13996 0.330806
vt 0.142826 0.330612
vt 0.14575 0.330393
vt 0.145773 0.33059
vt 0.142833 0.330811
vt 0.14575 0.330393
vt 0.148749 0.329925
vt 0.148787 0.33012
vt 0.145773 0.33059
vt 0.893351 0.288788
vt 0.895976 0.289246
vt 0.895949 0.289443
vt 0.893311 0.288983
vt 0.895976 0.289246
vt 0.898543 0.289509
vt 0.89853 0.289708
vt 0.895949 0.289443
vt 0.898543 0.289509
vt 0.901135 0.289596
vt 0.901135 0.289795
vt 0.89853 0.289708
vt 0.901135 0.289596
vt 0.903686 0.289509
vt 0.9037 0.289707
vt 0.901135 0.289795
vt 0.903686 0.289509
vt 0.906307 0.289238
vt 0.906334 0.289436
vt 0.9037 0.289707
vt 0.906307 0.289238
vt 0.908716 0.288822
vt 0.908755 0.289016
vt 0.906334 0.289436
vt 0.305921 0.252399
vt 0.308531 0.252487
vt 0.308531 0.252686
vt 0.305908 0.252598
vt 0.308531 0.252487
vt 0.31103 0.252403
vt 0.311045 0.252602
vt 0.308531 0.252686
vt 0.646797 0.314469
vt 0.650267 0.315681
vt 0.650214 0.315873
vt 0.646729 0.314655
vt 0.650267 0.315681
vt 0.653842 0.31651
vt 0.653807 0.316706
vt 0.650214 0.315873
vt 0.653842 0.31651
vt 0.671293 0.319033
vt 0.671269 0.319231
vt 0.653807 0.316706
vt 0.671293 0.319033
vt 0.673605 0.319281
vt 0.67359 0.319479
vt 0.671269 0.319231
vt 0.13118 0.264354
vt 0.133307 0.264354
vt 0.133307 0.264893
vt 0.13118 0.264893
vt 0.133307 0.264354
vt 0.13522 0.264354
vt 0.13522 0.264893
vt 0.133307 0.264893
vt 0.13522 0.264354
vt 0.137402 0.264354
vt 0.137402 0.264893
vt 0.13522 0.264893
vt 0.137402 0.264354
vt 0.139367 0.264354
vt 0.139367 0.264893
vt 0.137402 0.264893
vt 0.139367 0.264354
vt 0.14131 0.264354
vt 0.14131 0.264893
vt 0.139367 0.264893
vt 0.604736 0.257029
vt 0.606656 0.257029
vt 0.606656 0.257568
vt 0.604736 0.257568
vt 0.606656 0.257029
vt 0.608591 0.257029
vt 0.608591 0.257568
vt 0.606656 0.257568
vt 0.608591 0.257029
vt 0.610719 0.257029
vt 0.610719 0.257568
vt 0.608591 0.257568
vt 0.610719 0.257029
vt 0.612827 0.257029
vt 0.612827 0.257568
vt 0.610719 0.257568
vt 0.612827 0.257029
vt 0.614761 0.257029
vt 0.614761 0.257568
vt 0.612827 0.257568
vt 0.45874 0.257029
vt 0.460849 0.257029
vt 0.460849 0.257568
vt 0.45874 0.257568
vt 0.460849 0.257029
vt 0.462855 0.257029
vt 0.462855 0.257568
vt 0.460849 0.257568
vt 0.462855 0.257029
vt 0.464876 0.257029
vt 0.464876 0.257568
vt 0.462855 0.257568
vt 0.464876 0.257029
vt 0.466949 0.257029
vt 0.466949 0.257568
vt 0.464876 0.257568
vt 0.466949 0.257029
vt 0.469128 0.257029
vt 0.469128 0.257568
vt 0.466949 0.257568
vt 0.651123 0.276561
vt 0.653068 0.276561
vt 0.653068 0.2771
vt 0.651123 0.2771
vt 0.653068 0.276561
vt 0.656656 0.276561
vt 0.656656 0.2771
vt 0.653068 0.2771
vt 0.656656 0.276561
vt 0.660174 0.276561
vt 0.660174 0.2771
vt 0.656656 0.2771
vt 0.660174 0.276561
vt 0.721111 0.276561
vt 0.721111 0.2771
vt 0.660174 0.2771
vt 0.201904 0.259471
vt 0.220052 0.259471
vt 0.220052 0.26001
vt 0.201904 0.26001
vt 0.337646 0.274119
vt 0.398746 0.274119
vt 0.398746 0.274658
vt 0.337646 0.274658
vt 0.398746 0.274119
vt 0.399921 0.274119
vt 0.399921 0.274658
vt 0.398746 0.274658
vt 0.399921 0.274119
vt 0.401113 0.274119
vt 0.401113 0.274658
vt 0.399921 0.274658
vt 0.148682 0.254588
vt 0.149914 0.254588
vt 0.149914 0.255127
vt 0.148682 0.255127
vt 0.149914 0.254588
vt 0.151243 0.254588
vt 0.151243 0.255127
vt 0.149914 0.255127
vt 0.151243 0.254588
vt 0.153126 0.254588
vt 0.153126 0.255127
vt 0.151243 0.255127
vt 0.263916 0.254588
vt 0.265737 0.254588
vt 0.265737 0.255127
vt 0.263916 0.255127
vt 0.265737 0.254588
vt 0.267588 0.254588
vt 0.267588 0.255127
vt 0.265737 0.255127
vt 0.91333 0.261912
vt 0.915258 0.261912
vt 0.915258 0.262451
vt 0.91333 0.262451
vt 0.915258 0.261912
vt 0.91667 0.261912
vt 0.91667 0.262451
vt 0.915258 0.262451
vt 0.91667 0.261912
vt 0.93318 0.261912
vt 0.93318 0.262451
vt 0.91667 0.262451
vt 0.295654 0.254588
vt 0.297296 0.254588
vt 0.297296 0.255127
vt 0.295654 0.255127
vt 0.297296 0.254588
vt 0.298998 0.254588
vt 0.298998 0.255127
vt 0.297296 0.255127
vt 0.315186 0.254588
vt 0.316753 0.254588
vt 0.316753 0.255127
vt 0.315186 0.255127
vt 0.316753 0.254588
vt 0.318412 0.254588
vt 0.318412 0.255127
vt 0.316753 0.255127
vt 0.30542 0.254588
vt 0.307011 0.254588
vt 0.307011 0.255127
vt 0.30542 0.255127
vt 0.307011 0.254588
vt 0.308671 0.254588
vt 0.308671 0.255127
vt 0.307011 0.255127
vt 0.324951 0.254588
vt 0.326467 0.254588
vt 0.326467 0.255127
vt 0.324951 0.255127
vt 0.326467 0.254588
vt 0.328139 0.254588
vt 0.328139 0.255127
vt 0.326467 0.255127
vt 0.001221 0.271678
vt 0.06356 0.271678
vt 0.06356 0.272217
vt 0.001221 0.272217
vt 0.081787 0.259471
vt 0.099943 0.259471
vt 0.099943 0.26001
vt 0.081787 0.26001
vt 0.218994 0.276561
vt 0.280588 0.276561
vt 0.280588 0.2771
vt 0.218994 0.2771
vt 0.280588 0.276561
vt 0.283644 0.276561
vt 0.283644 0.2771
vt 0.280588 0.2771
vt 0.283644 0.276561
vt 0.286513 0.276561
vt 0.286513 0.2771
vt 0.283644 0.2771
vt 0.286513 0.276561
vt 0.289432 0.276561
vt 0.289432 0.2771
vt 0.286513 0.2771
vt 0.384033 0.257029
vt 0.387083 0.257029
vt 0.387083 0.257568
vt 0.384033 0.257568
vt 0.387083 0.257029
vt 0.389797 0.257029
vt 0.389797 0.257568
vt 0.387083 0.257568
vt 0.389797 0.257029
vt 0.3924 0.257029
vt 0.3924 0.257568
vt 0.389797 0.257568
vt 0.3924 0.257029
vt 0.394981 0.257029
vt 0.394981 0.257568
vt 0.3924 0.257568
vt 0.580811 0.257029
vt 0.583352 0.257029
vt 0.583352 0.257568
vt 0.580811 0.257568
vt 0.583352 0.257029
vt 0.586011 0.257029
vt 0.586011 0.257568
vt 0.583352 0.257568
vt 0.586011 0.257029
vt 0.5885 0.257029
vt 0.5885 0.257568
vt 0.586011 0.257568
vt 0.5885 0.257029
vt 0.591099 0.257029
vt 0.591099 0.257568
vt 0.5885 0.257568
vt 0.934326 0.257029
vt 0.936839 0.257029
vt 0.936839 0.257568
vt 0.934326 0.257568
vt 0.936839 0.257029
vt 0.940708 0.257029
vt 0.940708 0.257568
vt 0.936839 0.257568
vt 0.107666 0.264354
vt 0.111291 0.264354
vt 0.111291 0.264893
vt 0.107666 0.264893
vt 0.111291 0.264354
vt 0.12885 0.264354
vt 0.12885 0.264893
vt 0.111291 0.264893
vt 0.12885 0.264354
vt 0.13118 0.264354
vt 0.13118 0.264893
vt 0.12885 0.264893
vt 0.588629 0.31457
vt 0.590752 0.314469
vt 0.590756 0.314668
vt 0.588644 0.314769
vt 0.590752 0.314469
vt 0.592667 0.314481
vt 0.59266 0.314679
vt 0.590756 0.314668
vt 0.592667 0.314481
vt 0.594854 0.314612
vt 0.594837 0.314811
vt 0.59266 0.314679
vt 0.594854 0.314612
vt 0.59683 0.314842
vt 0.596803 0.315039
vt 0.594837 0.314811
vt 0.59683 0.314842
vt 0.598788 0.315178
vt 0.598751 0.315373
vt 0.596803 0.315039
vt 0.598788 0.315178
vt 0.600639 0.315599
vt 0.600591 0.315792
vt 0.598751 0.315373
vt 0.600639 0.315599
vt 0.602442 0.316114
vt 0.602385 0.316304
vt 0.600591 0.315792
vt 0.487061 0.28667
vt 0.489134 0.286328
vt 0.48916 0.286526
vt 0.487097 0.286865
vt 0.489134 0.286328
vt 0.491224 0.286104
vt 0.49124 0.286303
vt 0.48916 0.286526
vt 0.491224 0.286104
vt 0.493174 0.286
vt 0.49318 0.286199
vt 0.49124 0.286303
vt 0.493174 0.286
vt 0.495307 0.286
vt 0.495302 0.286199
vt 0.49318 0.286199
vt 0.495307 0.286
vt 0.497313 0.286109
vt 0.497297 0.286308
vt 0.495302 0.286199
vt 0.497313 0.286109
vt 0.499312 0.286324
vt 0.499285 0.286522
vt 0.497297 0.286308
vt 0.499312 0.286324
vt 0.501338 0.286655
vt 0.501301 0.28685
vt 0.499285 0.286522
vt 0.552002 0.322185
vt 0.554166 0.321888
vt 0.554187 0.322086
vt 0.552034 0.322381
vt 0.554166 0.321888
vt 0.556124 0.321728
vt 0.556132 0.321927
vt 0.554187 0.322086
vt 0.556124 0.321728
vt 0.559718 0.321697
vt 0.559711 0.321896
vt 0.556132 0.321927
vt 0.559718 0.321697
vt 0.56322 0.321995
vt 0.563198 0.322192
vt 0.559711 0.321896
vt 0.56322 0.321995
vt 0.623645 0.330633
vt 0.62348 0.330811
vt 0.563198 0.322192
vt 0.469482 0.242721
vt 0.48763 0.242721
vt 0.487489 0.24292
vt 0.469623 0.24292
vt 0.821045 0.336729
vt 0.880865 0.346593
vt 0.880839 0.346791
vt 0.82115 0.336948
vt 0.880865 0.346593
vt 0.882029 0.346714
vt 0.882018 0.346912
vt 0.880839 0.346791
vt 0.882029 0.346714
vt 0.883229 0.346725
vt 0.883236 0.346924
vt 0.882018 0.346912
vt 0.883229 0.346725
vt 0.884466 0.346617
vt 0.884493 0.346814
vt 0.883236 0.346924
vt 0.884466 0.346617
vt 0.88575 0.34637
vt 0.885798 0.346563
vt 0.884493 0.346814
vt 0.857219 0.254651
vt 0.859088 0.254928
vt 0.859074 0.255127
vt 0.857178 0.254846
vt 0.859088 0.254928
vt 0.860919 0.254927
vt 0.860933 0.255126
vt 0.859074 0.255127
vt 0.860919 0.254927
vt 0.862741 0.254658
vt 0.862784 0.254853
vt 0.860933 0.255126
vt 0.191694 0.289278
vt 0.193602 0.28957
vt 0.193586 0.289768
vt 0.19165 0.289472
vt 0.193602 0.28957
vt 0.195015 0.289596
vt 0.195018 0.289795
vt 0.193586 0.289768
vt 0.195015 0.289596
vt 0.211615 0.28878
vt 0.211632 0.288978
vt 0.195018 0.289795
vt 0.211615 0.28878
vt 0.213241 0.288583
vt 0.213277 0.288779
vt 0.211632 0.288978
vt 0.123329 0.252269
vt 0.125011 0.252487
vt 0.124998 0.252686
vt 0.123291 0.252464
vt 0.125011 0.252487
vt 0.126584 0.252486
vt 0.126597 0.252685
vt 0.124998 0.252686
vt 0.126584 0.252486
vt 0.128223 0.252274
vt 0.128261 0.25247
vt 0.126597 0.252685
vt 0.162879 0.252285
vt 0.164451 0.252487
vt 0.164439 0.252686
vt 0.162842 0.252481
vt 0.164451 0.252487
vt 0.166119 0.252485
vt 0.166131 0.252684
vt 0.164439 0.252686
vt 0.166119 0.252485
vt 0.167616 0.252294
vt 0.167653 0.25249
vt 0.166131 0.252684
vt 0.066678 0.309976
vt 0.068347 0.310103
vt 0.068347 0.310303
vt 0.06665 0.310174
vt 0.068347 0.310103
vt 0.130331 0.305389
vt 0.130206 0.305597
vt 0.068347 0.310303
vt 0.169678 0.234909
vt 0.187833 0.234909
vt 0.187693 0.235107
vt 0.169818 0.235107
vt 0.225342 0.330634
vt 0.286332 0.321501
vt 0.286354 0.321699
vt 0.225508 0.330811
vt 0.286332 0.321501
vt 0.289374 0.32126
vt 0.289382 0.321459
vt 0.286354 0.321699
vt 0.289374 0.32126
vt 0.292247 0.321255
vt 0.29224 0.321454
vt 0.289382 0.321459
vt 0.292247 0.321255
vt 0.295187 0.321476
vt 0.295164 0.321673
vt 0.29224 0.321454
vt 0.295187 0.321476
vt 0.298201 0.321946
vt 0.298163 0.322141
vt 0.295164 0.321673
vt 0.859131 0.2896
vt 0.86177 0.289139
vt 0.861796 0.289337
vt 0.859172 0.289795
vt 0.86177 0.289139
vt 0.86435 0.288875
vt 0.864363 0.289074
vt 0.861796 0.289337
vt 0.86435 0.288875
vt 0.866956 0.288788
vt 0.866956 0.288987
vt 0.864363 0.289074
vt 0.866956 0.288788
vt 0.86952 0.288875
vt 0.869507 0.289074
vt 0.866956 0.288987
vt 0.86952 0.288875
vt 0.872154 0.289147
vt 0.872128 0.289344
vt 0.869507 0.289074
vt 0.872154 0.289147
vt 0.874576 0.289566
vt 0.874536 0.289761
vt 0.872128 0.289344
vt 0.31958 0.252487
vt 0.322203 0.252399
vt 0.322203 0.252598
vt 0.319593 0.252686
vt 0.322203 0.252399
vt 0.324717 0.252483
vt 0.324702 0.252682
vt 0.322203 0.252598
vt 0.561768 0.319394
vt 0.565253 0.318176
vt 0.565306 0.318368
vt 0.561837 0.31958
vt 0.565253 0.318176
vt 0.568846 0.317344
vt 0.568881 0.317539
vt 0.565306 0.318368
vt 0.568846 0.317344
vt 0.586308 0.314819
vt 0.586332 0.315016
vt 0.568881 0.317539
vt 0.586308 0.314819
vt 0.588629 0.31457
vt 0.588644 0.314769
vt 0.586332 0.315016
vt 0.720362 0.734567
vt 0.720085 0.732468
vt 0.719971 0.730134
vt 0.72075 0.736432
vt 0.720362 0.734567
vt 0.719971 0.730134
vt 0.721355 0.738531
vt 0.72075 0.736432
vt 0.719971 0.730134
vt 0.722052 0.740396
vt 0.721355 0.738531
vt 0.719971 0.730134
vt 0.72289 0.742215
vt 0.722052 0.740396
vt 0.719971 0.730134
vt 0.723823 0.743906
vt 0.72289 0.742215
vt 0.719971 0.730134
vt 0.724873 0.745525
vt 0.723823 0.743906
vt 0.719971 0.730134
vt 0.726154 0.747211
vt 0.724873 0.745525
vt 0.719971 0.730134
vt 0.727553 0.748781
vt 0.726154 0.747211
vt 0.719971 0.730134
vt 0.728952 0.750133
vt 0.727553 0.748781
vt 0.719971 0.730134
vt 0.730585 0.751489
vt 0.728952 0.750133
vt 0.719971 0.730134
vt 0.732217 0.752647
vt 0.730585 0.751489
vt 0.719971 0.730134
vt 0.733938 0.753686
vt 0.732217 0.752647
vt 0.719971 0.730134
vt 0.735784 0.754619
vt 0.733938 0.753686
vt 0.719971 0.730134
vt 0.737813 0.755451
vt 0.735784 0.754619
vt 0.719971 0.730134
vt 0.739676 0.756053
vt 0.737813 0.755451
vt 0.719971 0.730134
vt 0.743175 0.756801
vt 0.739676 0.756053
vt 0.719971 0.730134
vt 0.746676 0.75708
vt 0.743175 0.756801
vt 0.719971 0.730134
vt 0.808166 0.739209
vt 0.808166 0.757075
vt 0.746676 0.75708
vt 0.746899 0.739199
vt 0.808166 0.739209
vt 0.746676 0.75708
vt 0.745712 0.739099
vt 0.746899 0.739199
vt 0.746676 0.75708
vt 0.744522 0.73884
vt 0.745712 0.739099
vt 0.746676 0.75708
vt 0.744522 0.73884
vt 0.746676 0.75708
vt 0.719971 0.730134
vt 0.743332 0.738406
vt 0.744522 0.73884
vt 0.719971 0.730134
vt 0.74214 0.737769
vt 0.743332 0.738406
vt 0.719971 0.730134
vt 0.740622 0.736567
vt 0.74214 0.737769
vt 0.719971 0.730134
vt 0.739431 0.735138
vt 0.740622 0.736567
vt 0.719971 0.730134
vt 0.73854 0.733472
vt 0.739431 0.735138
vt 0.719971 0.730134
vt 0.737991 0.73157
vt 0.73854 0.733472
vt 0.719971 0.730134
vt 0.737854 0.730144
vt 0.737991 0.73157
vt 0.719971 0.730134
vt 0.737853 0.71349
vt 0.737854 0.730144
vt 0.719971 0.730134
vt 0.738018 0.711829
vt 0.737853 0.71349
vt 0.719971 0.730134
vt 0.738505 0.710164
vt 0.738018 0.711829
vt 0.719971 0.730134
vt 0.739222 0.708735
vt 0.738505 0.710164
vt 0.719971 0.730134
vt 0.740238 0.707382
vt 0.739222 0.708735
vt 0.719971 0.730134
vt 0.808155 0.686466
vt 0.808166 0.70434
vt 0.745952 0.704417
vt 0.808155 0.686466
vt 0.745952 0.704417
vt 0.744285 0.704781
vt 0.745974 0.686488
vt 0.808155 0.686466
vt 0.744285 0.704781
vt 0.745974 0.686488
vt 0.744285 0.704781
vt 0.742856 0.70537
vt 0.745974 0.686488
vt 0.742856 0.70537
vt 0.741428 0.70628
vt 0.745974 0.686488
vt 0.741428 0.70628
vt 0.740238 0.707382
vt 0.745974 0.686488
vt 0.740238 0.707382
vt 0.719971 0.730134
vt 0.742942 0.686783
vt 0.745974 0.686488
vt 0.719971 0.730134
vt 0.740144 0.687367
vt 0.742942 0.686783
vt 0.719971 0.730134
vt 0.737346 0.688272
vt 0.740144 0.687367
vt 0.719971 0.730134
vt 0.734548 0.689535
vt 0.737346 0.688272
vt 0.719971 0.730134
vt 0.732216 0.690902
vt 0.734548 0.689535
vt 0.719971 0.730134
vt 0.730118 0.692426
vt 0.732216 0.690902
vt 0.719971 0.730134
vt 0.728174 0.694145
vt 0.730118 0.692426
vt 0.719971 0.730134
vt 0.726429 0.69601
vt 0.728174 0.694145
vt 0.719971 0.730134
vt 0.724814 0.698109
vt 0.726429 0.69601
vt 0.719971 0.730134
vt 0.723494 0.700207
vt 0.724814 0.698109
vt 0.719971 0.730134
vt 0.722317 0.702539
vt 0.723494 0.700207
vt 0.719971 0.730134
vt 0.721406 0.704868
vt 0.722317 0.702539
vt 0.719971 0.730134
vt 0.72043 0.708601
vt 0.721406 0.704868
vt 0.719971 0.730134
vt 0.719971 0.730134
vt 0.719999 0.712333
vt 0.72043 0.708601
vt 0.809814 0.713412
vt 0.809929 0.711077
vt 0.810205 0.708979
vt 0.809814 0.713412
vt 0.810205 0.708979
vt 0.810594 0.707114
vt 0.809814 0.713412
vt 0.810594 0.707114
vt 0.811199 0.705015
vt 0.809814 0.713412
vt 0.811199 0.705015
vt 0.811896 0.70315
vt 0.809814 0.713412
vt 0.811896 0.70315
vt 0.812734 0.701331
vt 0.809814 0.713412
vt 0.812734 0.701331
vt 0.813666 0.69964
vt 0.809814 0.713412
vt 0.813666 0.69964
vt 0.814717 0.698021
vt 0.809814 0.713412
vt 0.814717 0.698021
vt 0.815998 0.696335
vt 0.809814 0.713412
vt 0.815998 0.696335
vt 0.817397 0.694765
vt 0.809814 0.713412
vt 0.817397 0.694765
vt 0.818796 0.693413
vt 0.809814 0.713412
vt 0.818796 0.693413
vt 0.820428 0.692057
vt 0.809814 0.713412
vt 0.820428 0.692057
vt 0.82206 0.690899
vt 0.809814 0.713412
vt 0.82206 0.690899
vt 0.823782 0.68986
vt 0.809814 0.713412
vt 0.823782 0.68986
vt 0.825628 0.688927
vt 0.809814 0.713412
vt 0.825628 0.688927
vt 0.827657 0.688095
vt 0.809814 0.713412
vt 0.827657 0.688095
vt 0.82952 0.687493
vt 0.809814 0.713412
vt 0.82952 0.687493
vt 0.833019 0.686745
vt 0.809814 0.713412
vt 0.833019 0.686745
vt 0.83652 0.686466
vt 0.83652 0.686466
vt 0.898009 0.686471
vt 0.898009 0.704337
vt 0.83652 0.686466
vt 0.898009 0.704337
vt 0.836743 0.704347
vt 0.83652 0.686466
vt 0.836743 0.704347
vt 0.835556 0.704447
vt 0.83652 0.686466
vt 0.835556 0.704447
vt 0.834366 0.704706
vt 0.809814 0.713412
vt 0.83652 0.686466
vt 0.834366 0.704706
vt 0.809814 0.713412
vt 0.834366 0.704706
vt 0.833176 0.705139
vt 0.809814 0.713412
vt 0.833176 0.705139
vt 0.831984 0.705777
vt 0.809814 0.713412
vt 0.831984 0.705777
vt 0.830466 0.706979
vt 0.809814 0.713412
vt 0.830466 0.706979
vt 0.829275 0.708408
vt 0.809814 0.713412
vt 0.829275 0.708408
vt 0.828384 0.710074
vt 0.809814 0.713412
vt 0.828384 0.710074
vt 0.827835 0.711976
vt 0.809814 0.713412
vt 0.827835 0.711976
vt 0.827698 0.713402
vt 0.809814 0.713412
vt 0.827698 0.713402
vt 0.827697 0.730056
vt 0.809814 0.713412
vt 0.827697 0.730056
vt 0.827862 0.731717
vt 0.809814 0.713412
vt 0.827862 0.731717
vt 0.828349 0.733382
vt 0.809814 0.713412
vt 0.828349 0.733382
vt 0.829066 0.734811
vt 0.809814 0.713412
vt 0.829066 0.734811
vt 0.830081 0.736163
vt 0.835796 0.739129
vt 0.898009 0.739206
vt 0.897998 0.75708
vt 0.834129 0.738765
vt 0.835796 0.739129
vt 0.897998 0.75708
vt 0.834129 0.738765
vt 0.897998 0.75708
vt 0.835818 0.757057
vt 0.832699 0.738175
vt 0.834129 0.738765
vt 0.835818 0.757057
vt 0.831272 0.737266
vt 0.832699 0.738175
vt 0.835818 0.757057
vt 0.830081 0.736163
vt 0.831272 0.737266
vt 0.835818 0.757057
vt 0.809814 0.713412
vt 0.830081 0.736163
vt 0.835818 0.757057
vt 0.809814 0.713412
vt 0.835818 0.757057
vt 0.832786 0.756763
vt 0.809814 0.713412
vt 0.832786 0.756763
vt 0.829988 0.756179
vt 0.809814 0.713412
vt 0.829988 0.756179
vt 0.82719 0.755273
vt 0.809814 0.713412
vt 0.82719 0.755273
vt 0.824392 0.754011
vt 0.809814 0.713412
vt 0.824392 0.754011
vt 0.82206 0.752644
vt 0.809814 0.713412
vt 0.82206 0.752644
vt 0.819962 0.75112
vt 0.809814 0.713412
vt 0.819962 0.75112
vt 0.818017 0.749401
vt 0.809814 0.713412
vt 0.818017 0.749401
vt 0.816273 0.747536
vt 0.809814 0.713412
vt 0.816273 0.747536
vt 0.814657 0.745437
vt 0.809814 0.713412
vt 0.814657 0.745437
vt 0.813338 0.743339
vt 0.809814 0.713412
vt 0.813338 0.743339
vt 0.812161 0.741007
vt 0.809814 0.713412
vt 0.812161 0.741007
vt 0.811249 0.738677
vt 0.809814 0.713412
vt 0.811249 0.738677
vt 0.810274 0.734945
vt 0.810274 0.734945
vt 0.809842 0.731213
vt 0.809814 0.713412
vn 0.062107 -0.704075 -0.707404
vn 0.116956 -0.697121 -0.707349
vn 0.171855 -0.685647 -0.707357
vn 0.220655 -0.671521 -0.707369
vn 0.271841 -0.652505 -0.707347
vn 0.318299 -0.631155 -0.707339
vn 0.363216 -0.606429 -0.707332
vn 0.407467 -0.577601 -0.707353
vn 0.449252 -0.545705 -0.707374
vn 0.488876 -0.51054 -0.707353
vn 0.527163 -0.470901 -0.707355
vn 0.560009 -0.43131 -0.707362
vn 0.591261 -0.387386 -0.707349
vn 0.618648 -0.341937 -0.707357
vn 0.643245 -0.293003 -0.707379
vn 0.663235 -0.244445 -0.707366
vn 0.685311 -0.172488 -0.707529
vn 0.698871 -0.102515 -0.707863
vn 0.707043 -0.002983 -0.707164
vn 0.707107 0.000063 -0.707107
vn 0 0.707107 -0.707107
vn -0.707107 0.000114 -0.707107
vn -0.707083 0.00123 -0.70713
vn -0.698446 0.105365 -0.707864
vn -0.678169 0.19736 -0.70791
vn -0.64412 0.289572 -0.707996
vn -0.583854 0.396458 -0.708474
vn -0.505907 0.491326 -0.708983
vn -0.393709 0.585149 -0.708939
vn -0.263944 0.653884 -0.709062
vn -0.142338 0.691116 -0.708589
vn -0.00535 0.70697 -0.707223
vn 0.006299 0.706935 -0.70725
vn 0.135639 0.692429 -0.708622
vn 0.255862 0.657638 -0.708553
vn 0.373133 0.598979 -0.708517
vn 0.471591 0.524959 -0.708534
vn 0.559513 0.430023 -0.708538
vn 0.624912 0.327954 -0.708471
vn 0.674466 0.207732 -0.708479
vn 0.706883 0.004839 -0.707314
vn 0.707106 0.000869 -0.707107
vn -0.000439 0.707107 -0.707107
vn -0.707107 -0.000258 -0.707107
vn -0.707025 -0.003445 -0.70718
vn -0.698687 -0.105335 -0.707631
vn -0.682829 -0.181739 -0.707613
vn -0.658867 -0.255197 -0.70765
vn -0.628808 -0.322325 -0.707606
vn -0.591811 -0.386215 -0.707529
vn -0.551294 -0.442155 -0.707512
vn -0.506889 -0.492442 -0.707506
vn -0.45694 -0.539101 -0.707514
vn -0.404979 -0.579166 -0.707502
vn -0.346945 -0.615693 -0.707497
vn -0.288958 -0.644939 -0.7075
vn -0.210011 -0.674591 -0.707688
vn -0.130803 -0.694014 -0.707979
vn -0.015103 -0.706617 -0.707435
vn 0.003036 -0.707054 -0.707153
vn 0.087882 -0.996131 0
vn 0.165461 -0.986216 0
vn 0.24312 -0.969996 0
vn 0.312173 -0.950025 0
vn 0.38457 -0.923096 0
vn 0.450292 -0.892881 0
vn 0.513829 -0.857893 0
vn 0.576444 -0.817136 0
vn 0.635579 -0.772036 0
vn 0.691618 -0.722263 0
vn 0.745781 -0.666192 0
vn 0.792261 -0.610183 0
vn 0.836456 -0.548034 0
vn 0.87521 -0.483742 0
vn 0.910035 -0.414531 0
vn 0.938304 -0.345811 0
vn 0.96975 -0.244101 0
vn 0.989411 -0.145139 0
vn 0.999991 -0.004223 0
vn 1 0.000088 0
vn 0 1 0
vn -1 0.000161 0
vn -0.999999 0.001727 0
vn -0.988818 0.149124 0
vn -0.960167 0.279426 0
vn -0.912081 0.410011 0
vn -0.827263 0.561815 0
vn -0.717397 0.696664 0
vn -0.558237 0.829682 0
vn -0.374277 0.927317 0
vn -0.201713 0.979445 0
vn -0.007522 0.999972 0
vn 0.008864 0.999961 0
vn 0.192168 0.981362 0
vn 0.362565 0.931958 0
vn 0.528764 0.848769 0
vn 0.66827 0.743919 0
vn 0.79289 0.609365 0
vn 0.885458 0.46472 0
vn 0.955697 0.294351 0
vn 0.999977 0.006795 0
vn 0.999999 0.001229 0
vn -0.000621 1 0
vn -1 -0.000364 0
vn -0.999988 -0.004877 0
vn -0.988824 -0.149084 0
vn -0.966358 -0.2572 0
vn -0.932497 -0.361178 0
vn -0.889896 -0.456163 0
vn -0.837448 -0.546517 0
vn -0.780096 -0.62566 0
vn -0.717254 -0.696812 0
vn -0.646585 -0.762842 0
vn -0.573045 -0.819524 0
vn -0.490929 -0.8712 0
vn -0.408866 -0.912594 0
vn -0.297262 -0.954796 0
vn -0.185212 -0.982699 0
vn -0.021402 -0.999771 0
vn 0.004303 -0.999991 0
vn 0.062107 -0.704075 0.707404
vn 0.116956 -0.697121 0.707349
vn 0.171855 -0.685647 0.707357
vn 0.220655 -0.671521 0.707369
vn 0.271841 -0.652505 0.707347
vn 0.318299 -0.631155 0.707339
vn 0.363216 -0.606429 0.707332
vn 0.407467 -0.577601 0.707353
vn 0.449252 -0.545705 0.707374
vn 0.488876 -0.51054 0.707353
vn 0.527163 -0.470901 0.707355
vn 0.560009 -0.43131 0.707362
vn 0.591261 -0.387386 0.707349
vn 0.618648 -0.341937 0.707357
vn 0.643245 -0.293003 0.707379
vn 0.663235 -0.244445 0.707366
vn 0.685311 -0.172488 0.707529
vn 0.698871 -0.102515 0.707863
vn 0.707043 -0.002983 0.707164
vn 0.707107 0.000063 0.707107
vn 0 0.707107 0.707107
vn -0.707107 0.000114 0.707107
vn -0.707083 0.00123 0.70713
vn -0.698446 0.105365 0.707864
vn -0.678169 0.19736 0.70791
vn -0.64412 0.289572 0.707996
vn -0.583854 0.396458 0.708474
vn -0.505907 0.491326 0.708983
vn -0.393709 0.585149 0.708939
vn -0.263944 0.653884 0.709062
vn -0.142338 0.691116 0.708589
vn -0.00535 0.70697 0.707223
vn 0.006299 0.706935 0.70725
vn 0.135639 0.692429 0.708622
vn 0.255862 0.657638 0.708553
vn 0.373133 0.598979 0.708517
vn 0.471591 0.524959 0.708534
vn 0.559513 0.430023 0.708538
vn 0.624912 0.327954 0.708471
vn 0.674466 0.207732 0.708479
vn 0.706883 0.004839 0.707314
vn 0.707106 0.000869 0.707107
vn -0.000439 0.707107 0.707107
vn -0.707107 -0.000258 0.707107
vn -0.707025 -0.003445 0.70718
vn -0.698687 -0.105335 0.707631
vn -0.682829 -0.181739 0.707613
vn -0.658867 -0.255197 0.70765
vn -0.628808 -0.322325 0.707606
vn -0.591811 -0.386215 0.707529
vn -0.551294 -0.442155 0.707512
vn -0.506889 -0.492442 0.707506
vn -0.45694 -0.539101 0.707514
vn -0.404979 -0.579166 0.707502
vn -0.346945 -0.615693 0.707497
vn -0.288958 -0.644939 0.7075
vn -0.210011 -0.674591 0.707688
vn -0.130803 -0.694014 0.707979
vn -0.015103 -0.706617 0.707435
vn 0.003036 -0.707054 0.707153
vn 0 0 -1
vn 0 0 1
f 233/569/63 234/570/64 292/571/64 291/572/63
f 234/573/64 235/574/65 293/575/65 292/576/64
f 235/577/65 236/578/66 294/579/66 293/580/65
f 236/581/66 237/582/67 295/583/67 294/584/66
f 237/585/67 238/586/68 296/587/68 295/588/67
f 238/589/68 239/590/69 297/591/69 296/592/68
f 239/593/69 240/594/70 298/595/70 297/596/69
f 240/597/70 241/598/71 299/599/71 298/600/70
f 241/601/71 242/602/72 300/603/72 299/604/71
f 242/605/72 243/606/73 301/607/73 300/608/72
f 243/609/73 244/610/74 302/611/74 301/612/73
f 244/613/74 245/614/75 303/615/75 302/616/74
f 245/617/75 246/618/76 304/619/76 303/620/75
f 246/621/76 247/622/77 305/623/77 304/624/76
f 247/625/77 248/626/78 306/627/78 305/628/77
f 248/629/78 249/630/79 307/631/79 306/632/78
f 249/633/79 250/634/80 308/635/80 307/636/79
f 250/637/80 251/638/81 309/639/81 308/640/80
f 251/641/81 252/642/82 310/643/82 309/644/81
f 252/645/83 253/646/83 311/647/83 310/648/83
f 253/649/84 254/650/85 312/651/85 311/652/84
f 254/653/85 255/654/86 313/655/86 312/656/85
f 255/657/86 256/658/87 314/659/87 313/660/86
f 256/661/87 257/662/88 315/663/88 314/664/87
f 257/665/88 258/666/89 316/667/89 315/668/88
f 258/669/89 259/670/90 317/671/90 316/672/89
f 259/673/90 260/674/91 318/675/91 317/676/90
f 260/677/91 261/678/92 319/679/92 318/680/91
f 261/681/92 262/682/93 320/683/93 319/684/92
f 262/685/93 263/686/94 321/687/94 320/688/93
f 263/689/94 264/690/95 322/691/95 321/692/94
f 264/693/95 265/694/96 323/695/96 322/696/95
f 265/697/96 266/698/97 324/699/97 323/700/96
f 266/701/97 267/702/98 325/703/98 324/704/97
f 267/705/98 268/706/99 326/707/99 325/708/98
f 268/709/99 269/710/100 327/711/100 326/712/99
f 269/713/100 270/714/101 328/715/101 327/716/100
f 270/717/101 271/718/102 329/719/102 328/720/101
f 271/721/102 272/722/103 330/723/103 329/724/102
f 272/725/103 273/726/104 331/727/104 330/728/103
f 273/729/105 274/730/105 332/731/105 331/732/105
f 274/733/106 275/734/107 333/735/107 332/736/106
f 275/737/107 276/738/108 334/739/108 333/740/107
f 276/741/108 277/742/109 335/743/109 334/744/108
f 277/745/109 278/746/110 336/747/110 335/748/109
f 278/749/110 279/750/111 337/751/111 336/752/110
f 279/753/111 280/754/112 338/755/112 337/756/111
f 280/757/112 281/758/113 339/759/113 338/760/112
f 281/761/113 282/762/114 340/763/114 339/764/113
f 282/765/114 283/766/115 341/767/115 340/768/114
f 283/769/115 284/770/116 342/771/116 341/772/115
f 284/773/116 285/774/117 343/775/117 342/776/116
f 285/777/117 286/778/118 344/779/118 343/780/117
f 286/781/118 287/782/119 345/783/119 344/784/118
f 287/785/119 288/786/120 346/787/120 345/788/119
f 288/789/120 289/790/121 347/791/121 346/792/120
f 289/793/121 290/794/122 348/795/122 347/796/121
f 290/797/122 233/798/63 291/799/63 348/800/122
f 291/801/123 292/802/124 350/803/124 349/804/123
f 292/805/124 293/806/125 351/807/125 350/808/124
f 293/809/125 294/810/126 352/811/126 351/812/125
f 294/813/126 295/814/127 353/815/127 352/816/126
f 295/817/127 296/818/128 354/819/128 353/820/127
f 296/821/128 297/822/129 355/823/129 354/824/128
f 297/825/129 298/826/130 356/827/130 355/828/129
f 298/829/130 299/830/131 357/831/131 356/832/130
f 299/833/131 300/834/132 358/835/132 357/836/131
f 300/837/132 301/838/133 359/839/133 358/840/132
f 301/841/133 302/842/134 360/843/134 359/844/133
f 302/845/134 303/846/135 361/847/135 360/848/134
f 303/849/135 304/850/136 362/851/136 361/852/135
f 304/853/136 305/854/137 363/855/137 362/856/136
f 305/857/137 306/858/138 364/859/138 363/860/137
f 306/861/138 307/862/139 365/863/139 364/864/138
f 307/865/139 308/866/140 366/867/140 365/868/139
f 308/869/140 309/870/141 367/871/141 366/872/140
f 309/873/141 310/874/142 368/875/142 367/876/141
f 310/877/143 311/878/143 369/879/143 368/880/143
f 311/881/144 312/882/145 370/883/145 369/884/144
f 312/885/145 313/886/146 371/887/146 370/888/145
f 313/889/146 314/890/147 372/891/147 371/892/146
f 314/893/147 315/894/148 373/895/148 372/896/147
f 315/897/148 316/898/149 374/899/149 373/900/148
f 316/901/149 317/902/150 375/903/150 374/904/149
f 317/905/150 318/906/151 376/907/151 375/908/150
f 318/909/151 319/910/152 377/911/152 376/912/151
f 319/913/152 320/914/153 378/915/153 377/916/152
f 320/917/153 321/918/154 379/919/154 378/920/153
f 321/921/154 322/922/155 380/923/155 379/924/154
f 322/925/155 323/926/156 381/927/156 380/928/155
f 323/929/156 324/930/157 382/931/157 381/932/156
f 324/933/157 325/934/158 383/935/158 382/936/157
f 325/937/158 326/938/159 384/939/159 383/940/158
f 326/941/159 327/942/160 385/943/160 384/944/159
f 327/945/160 328/946/161 386/947/161 385/948/160
f 328/949/161 329/950/162 387/951/162 386/952/161
f 329/953/162 330/954/163 388/955/163 387/956/162
f 330/957/163 331/958/164 389/959/164 388/960/163
f 331/961/165 332/962/165 390/963/165 389/964/165
f 332/965/166 333/966/167 391/967/167 390/968/166
f 333/969/167 334/970/168 392/971/168 391/972/167
f 334/973/168 335/974/169 393/975/169 392/976/168
f 335/977/169 336/978/170 394/979/170 393/980/169
f 336/981/170 337/982/171 395/983/171 394/984/170
f 337/985/171 338/986/172 396/987/172 395/988/171
f 338/989/172 339/990/173 397/991/173 396/992/172
f 339/993/173 340/994/174 398/995/174 397/996/173
f 340/997/174 341/998/175 399/999/175 398/1000/174
f 341/1001/175 342/1002/176 400/1003/176 399/1004/175
f 342/1005/176 343/1006/177 401/1007/177 400/1008/176
f 343/1009/177 344/1010/178 402/1011/178 401/1012/177
f 344/1013/178 345/1014/179 403/1015/179 402/1016/178
f 345/1017/179 346/1018/180 404/1019/180 403/1020/179
f 346/1021/180 347/1022/181 405/1023/181 404/1024/180
f 347/1025/181 348/1026/182 406/1027/182 405/1028/181
f 348/1029/182 291/1030/123 349/1031/123 406/1032/182
f 349/1033/183 350/1034/184 408/1035/184 407/1036/183
f 350/1037/184 351/1038/185 409/1039/185 408/1040/184
f 351/1041/185 352/1042/186 410/1043/186 409/1044/185
f 352/1045/186 353/1046/187 411/1047/187 410/1048/186
f 353/1049/187 354/1050/188 412/1051/188 411/1052/187
f 354/1053/188 355/1054/189 413/1055/189 412/1056/188
f 355/1057/189 356/1058/190 414/1059/190 413/1060/189
f 356/1061/190 357/1062/191 415/1063/191 414/1064/190
f 357/1065/191 358/1066/192 416/1067/192 415/1068/191
f 358/1069/192 359/1070/193 417/1071/193 416/1072/192
f 359/1073/193 360/1074/194 418/1075/194 417/1076/193
f 360/1077/194 361/1078/195 419/1079/195 418/1080/194
f 361/1081/195 362/1082/196 420/1083/196 419/1084/195
f 362/1085/196 363/1086/197 421/1087/197 420/1088/196
f 363/1089/197 364/1090/198 422/1091/198 421/1092/197
f 364/1093/198 365/1094/199 423/1095/199 422/1096/198
f 365/1097/199 366/1098/200 424/1099/200 423/1100/199
f 366/1101/200 367/1102/201 425/1103/201 424/1104/200
f 367/1105/201 368/1106/202 426/1107/202 425/1108/201
f 368/1109/203 369/1110/203 427/1111/203 426/1112/203
f 369/1113/204 370/1114/205 428/1115/205 427/1116/204
f 370/1117/205 371/1118/206 429/1119/206 428/1120/205
f 371/1121/206 372/1122/207 430/1123/207 429/1124/206
f 372/1125/207 373/1126/208 431/1127/208 430/1128/207
f 373/1129/208 374/1130/209 432/1131/209 431/1132/208
f 374/1133/209 375/1134/210 433/1135/210 432/1136/209
f 375/1137/210 376/1138/211 434/1139/211 433/1140/210
f 376/1141/211 377/1142/212 435/1143/212 434/1144/211
f 377/1145/212 378/1146/213 436/1147/213 435/1148/212
f 378/1149/213 379/1150/214 437/1151/214 436/1152/213
f 379/1153/214 380/1154/215 438/1155/215 437/1156/214
f 380/1157/215 381/1158/216 439/1159/216 438/1160/215
f 381/1161/216 382/1162/217 440/1163/217 439/1164/216
f 382/1165/217 383/1166/218 441/1167/218 440/1168/217
f 383/1169/218 384/1170/219 442/1171/219 441/1172/218
f 384/1173/219 385/1174/220 443/1175/220 442/1176/219
f 385/1177/220 386/1178/221 444/1179/221 443/1180/220
f 386/1181/221 387/1182/222 445/1183/222 444/1184/221
f 387/1185/222 388/1186/223 446/1187/223 445/1188/222
f 388/1189/223 389/1190/224 447/1191/224 446/1192/223
f 389/1193/225 390/1194/225 448/1195/225 447/1196/225
f 390/1197/226 391/1198/227 449/1199/227 448/1200/226
f 391/1201/227 392/1202/228 450/1203/228 449/1204/227
f 392/1205/228 393/1206/229 451/1207/229 450/1208/228
f 393/1209/229 394/1210/230 452/1211/230 451/1212/229
f 394/1213/230 395/1214/231 453/1215/231 452/1216/230
f 395/1217/231 396/1218/232 454/1219/232 453/1220/231
f 396/1221/232 397/1222/233 455/1223/233 454/1224/232
f 397/1225/233 398/1226/234 456/1227/234 455/1228/233
f 398/1229/234 399/1230/235 457/1231/235 456/1232/234
f 399/1233/235 400/1234/236 458/1235/236 457/1236/235
f 400/1237/236 401/1238/237 459/1239/237 458/1240/236
f 401/1241/237 402/1242/238 460/1243/238 459/1244/237
f 402/1245/238 403/1246/239 461/1247/239 460/1248/238
f 403/1249/239 404/1250/240 462/1251/240 461/1252/239
f 404/1253/240 405/1254/241 463/1255/241 462/1256/240
f 405/1257/241 406/1258/242 464/1259/242 463/1260/241
f 406/1261/242 349/1262/183 407/1263/183 464/1264/242
f 466/1265/243 465/1266/243 522/1267/243
f 467/1268/243 466/1269/243 522/1270/243
f 468/1271/243 467/1272/243 522/1273/243
f 469/1274/243 468/1275/243 522/1276/243
f 470/1277/243 469/1278/243 522/1279/243
f 471/1280/243 470/1281/243 522/1282/243
f 472/1283/243 471/1284/243 522/1285/243
f 473/1286/243 472/1287/243 522/1288/243
f 474/1289/243 473/1290/243 522/1291/243
f 475/1292/243 474/1293/243 522/1294/243
f 476/1295/243 475/1296/243 522/1297/243
f 477/1298/243 476/1299/243 522/1300/243
f 478/1301/243 477/1302/243 522/1303/243
f 479/1304/243 478/1305/243 522/1306/243
f 480/1307/243 479/1308/243 522/1309/243
f 481/1310/243 480/1311/243 522/1312/243
f 482/1313/243 481/1314/243 522/1315/243
f 483/1316/243 482/1317/243 522/1318/243
f 485/1319/243 484/1320/243 483/1321/243
f 486/1322/243 485/1323/243 483/1324/243
f 487/1325/243 486/1326/243 483/1327/243
f 488/1328/243 487/1329/243 483/1330/243
f 488/1331/243 483/1332/243 522/1333/243
f 489/1334/243 488/1335/243 522/1336/243
f 490/1337/243 489/1338/243 522/1339/243
f 491/1340/243 490/1341/243 522/1342/243
f 492/1343/243 491/1344/243 522/1345/243
f 493/1346/243 492/1347/243 522/1348/243
f 494/1349/243 493/1350/243 522/1351/243
f 495/1352/243 494/1353/243 522/1354/243
f 496/1355/243 495/1356/243 522/1357/243
f 497/1358/243 496/1359/243 522/1360/243
f 498/1361/243 497/1362/243 522/1363/243
f 499/1364/243 498/1365/243 522/1366/243
f 500/1367/243 499/1368/243 522/1369/243
f 506/1370/243 505/1371/243 504/1372/243
f 506/1373/243 504/1374/243 503/1375/243
f 507/1376/243 506/1377/243 503/1378/243
f 507/1379/243 503/1380/243 502/1381/243
f 507/1382/243 502/1383/243 501/1384/243
f 507/1385/243 501/1386/243 500/1387/243
f 507/1388/243 500/1389/243 522/1390/243
f 508/1391/243 507/1392/243 522/1393/243
f 509/1394/243 508/1395/243 522/1396/243
f 510/1397/243 509/1398/243 522/1399/243
f 511/1400/243 510/1401/243 522/1402/243
f 512/1403/243 511/1404/243 522/1405/243
f 513/1406/243 512/1407/243 522/1408/243
f 514/1409/243 513/1410/243 522/1411/243
f 515/1412/243 514/1413/243 522/1414/243
f 516/1415/243 515/1416/243 522/1417/243
f 517/1418/243 516/1419/243 522/1420/243
f 518/1421/243 517/1422/243 522/1423/243
f 519/1424/243 518/1425/243 522/1426/243
f 520/1427/243 519/1428/243 522/1429/243
f 522/1430/243 521/1431/243 520/1432/243
f 580/1433/244 523/1434/244 524/1435/244
f 580/1436/244 524/1437/244 525/1438/244
f 580/1439/244 525/1440/244 526/1441/244
f 580/1442/244 526/1443/244 527/1444/244
f 580/1445/244 527/1446/244 528/1447/244
f 580/1448/244 528/1449/244 529/1450/244
f 580/1451/244 529/1452/244 530/1453/244
f 580/1454/244 530/1455/244 531/1456/244
f 580/1457/244 531/1458/244 532/1459/244
f 580/1460/244 532/1461/244 533/1462/244
f 580/1463/244 533/1464/244 534/1465/244
f 580/1466/244 534/1467/244 535/1468/244
f 580/1469/244 535/1470/244 536/1471/244
f 580/1472/244 536/1473/244 537/1474/244
f 580/1475/244 537/1476/244 538/1477/244
f 580/1478/244 538/1479/244 539/1480/244
f 580/1481/244 539/1482/244 540/1483/244
f 580/1484/244 540/1485/244 541/1486/244
f 541/1487/244 542/1488/244 543/1489/244
f 541/1490/244 543/1491/244 544/1492/244
f 541/1493/244 544/1494/244 545/1495/244
f 541/1496/244 545/1497/244 546/1498/244
f 580/1499/244 541/1500/244 546/1501/244
f 580/1502/244 546/1503/244 547/1504/244
f 580/1505/244 547/1506/244 548/1507/244
f 580/1508/244 548/1509/244 549/1510/244
f 580/1511/244 549/1512/244 550/1513/244
f 580/1514/244 550/1515/244 551/1516/244
f 580/1517/244 551/1518/244 552/1519/244
f 580/1520/244 552/1521/244 553/1522/244
f 580/1523/244 553/1524/244 554/1525/244
f 580/1526/244 554/1527/244 555/1528/244
f 580/1529/244 555/1530/244 556/1531/244
f 580/1532/244 556/1533/244 557/1534/244
f 580/1535/244 557/1536/244 558/1537/244
f 562/1538/244 563/1539/244 564/1540/244
f 561/1541/244 562/1542/244 564/1543/244
f 561/1544/244 564/1545/244 565/1546/244
f 560/1547/244 561/1548/244 565/1549/244
f 559/1550/244 560/1551/244 565/1552/244
f 558/1553/244 559/1554/244 565/1555/244
f 580/1556/244 558/1557/244 565/1558/244
f 580/1559/244 565/1560/244 566/1561/244
f 580/1562/244 566/1563/244 567/1564/244
f 580/1565/244 567/1566/244 568/1567/244
f 580/1568/244 568/1569/244 569/1570/244
f 580/1571/244 569/1572/244 570/1573/244
f 580/1574/244 570/1575/244 571/1576/244
f 580/1577/244 571/1578/244 572/1579/244
f 580/1580/244 572/1581/244 573/1582/244
f 580/1583/244 573/1584/244 574/1585/244
f 580/1586/244 574/1587/244 575/1588/244
f 580/1589/244 575/1590/244 576/1591/244
f 580/1592/244 576/1593/244 577/1594/244
f 580/1595/244 577/1596/244 578/1597/244
f 578/1598/244 579/1599/244 580/1600/244
