# AFL PRAIRIE signage V1 channel letter V (lit), generated by tools/build-prairie-signage-v1.mjs
mtllib v_lit.mtl
o V_body
usemtl letters_nz
v 0.594307 0.125 0.8786
v 0.80077 0.87501 0.8786
v 0.645363 0.874555 0.8786
v 0.499999 0.347589 0.8786
v 0.354782 0.875 0.8786
v 0.199233 0.875 0.8786
v 0.405693 0.125 0.8786
v 0.594307 0.125 0.9996
v 0.80077 0.87501 0.9996
v 0.645363 0.874555 0.9996
v 0.499999 0.347589 0.9996
v 0.354782 0.875 0.9996
v 0.199233 0.875 0.9996
v 0.405693 0.125 0.9996
v 0.594307 0.125 0.8786
v 0.80077 0.87501 0.8786
v 0.645363 0.874555 0.8786
v 0.499999 0.347589 0.8786
v 0.354782 0.875 0.8786
v 0.199233 0.875 0.8786
v 0.405693 0.125 0.8786
v 0.594307 0.125 0.9996
v 0.80077 0.87501 0.9996
v 0.645363 0.874555 0.9996
v 0.499999 0.347589 0.9996
v 0.354782 0.875 0.9996
v 0.199233 0.875 0.9996
v 0.405693 0.125 0.9996
vt 0.180908 0.462139
vt 0.272069 0.462139
vt 0.272069 0.476318
vt 0.180908 0.476318
vt 0.749756 0.348857
vt 0.767968 0.348857
vt 0.767968 0.363037
vt 0.749756 0.363037
vt 0.629639 0.397197
vt 0.693699 0.397197
vt 0.693699 0.411377
vt 0.629639 0.411377
vt 0.563721 0.397197
vt 0.627827 0.397197
vt 0.627827 0.411377
vt 0.563721 0.411377
vt 0.729736 0.348857
vt 0.747965 0.348857
vt 0.747965 0.363037
vt 0.729736 0.363037
vt 0.273682 0.462139
vt 0.364842 0.462139
vt 0.364842 0.476318
vt 0.273682 0.476318
vt 0.37915 0.348857
vt 0.401254 0.348857
vt 0.401254 0.363037
vt 0.37915 0.363037
vt 0.98755 0.75708
vt 0.899658 0.732885
vt 0.899658 0.710782
vt 0.925743 0.721833
vt 0.987497 0.738868
vt 0.98755 0.75708
vt 0.925743 0.721833
vt 0.98755 0.75708
vt 0.899658 0.710782
vt 0.987549 0.704816
vt 0.925743 0.721833
vt 0.899658 0.710782
vt 0.899658 0.710782
vt 0.987549 0.686587
vt 0.987549 0.704816
vt 0.001221 0.66062
vt 0.001221 0.638517
vt 0.089112 0.614322
vt 0.089112 0.614322
vt 0.089059 0.632534
vt 0.027305 0.649568
vt 0.001221 0.66062
vt 0.089112 0.614322
vt 0.027305 0.649568
vt 0.001221 0.66062
vt 0.027305 0.649568
vt 0.089111 0.666586
vt 0.089111 0.666586
vt 0.089111 0.684814
vt 0.001221 0.66062
vn 0.964136 -0.265408 0
vn -0.002929 0.999996 0
vn -0.963995 0.26592 0
vn 0.964122 0.265461 0
vn 0 1 0
vn -0.964136 -0.265408 0
vn 0 -1 0
vn 0 0 -1
vn 0 0 1
f 1/1/1 2/2/1 9/3/1 8/4/1
f 2/5/2 3/6/2 10/7/2 9/8/2
f 3/9/3 4/10/3 11/11/3 10/12/3
f 4/13/4 5/14/4 12/15/4 11/16/4
f 5/17/5 6/18/5 13/19/5 12/20/5
f 6/21/6 7/22/6 14/23/6 13/24/6
f 7/25/7 1/26/7 8/27/7 14/28/7
f 16/29/8 15/30/8 21/31/8
f 18/32/8 17/33/8 16/34/8
f 18/35/8 16/36/8 21/37/8
f 19/38/8 18/39/8 21/40/8
f 21/41/8 20/42/8 19/43/8
f 28/44/9 22/45/9 23/46/9
f 23/47/9 24/48/9 25/49/9
f 28/50/9 23/51/9 25/52/9
f 28/53/9 25/54/9 26/55/9
f 26/56/9 27/57/9 28/58/9
o V_face_lit
usemtl letters_nz_glow
v 0.595299 0.1237 0.8726
v 0.80179 0.875875 0.8726
v 0.644277 0.876206 0.8726
v 0.499999 0.355184 0.8726
v 0.355804 0.876297 0.8726
v 0.197541 0.876245 0.8726
v 0.404791 0.1237 0.8726
v 0.596214 0.1225 0.8738
v 0.803363 0.877072 0.8738
v 0.643363 0.877407 0.8738
v 0.499999 0.357005 0.8738
v 0.356718 0.877497 0.8738
v 0.195966 0.877445 0.8738
v 0.403877 0.1225 0.8738
v 0.596214 0.1225 0.8784
v 0.803363 0.877072 0.8784
v 0.643363 0.877407 0.8784
v 0.499999 0.357005 0.8784
v 0.356718 0.877497 0.8784
v 0.195966 0.877445 0.8784
v 0.403877 0.1225 0.8784
v 0.595299 0.1237 0.8796
v 0.80179 0.875875 0.8796
v 0.644277 0.876206 0.8796
v 0.499999 0.355184 0.8796
v 0.355804 0.876297 0.8796
v 0.197541 0.876245 0.8796
v 0.404791 0.1237 0.8796
v 0.595299 0.1237 0.8726
v 0.80179 0.875875 0.8726
v 0.644277 0.876206 0.8726
v 0.499999 0.355184 0.8726
v 0.355804 0.876297 0.8726
v 0.197541 0.876245 0.8726
v 0.404791 0.1237 0.8726
v 0.595299 0.1237 0.8796
v 0.80179 0.875875 0.8796
v 0.644277 0.876206 0.8796
v 0.499999 0.355184 0.8796
v 0.355804 0.876297 0.8796
v 0.197541 0.876245 0.8796
v 0.404791 0.1237 0.8796
vt 0.403672 0.244674
vt 0.495078 0.244674
vt 0.495262 0.244873
vt 0.403564 0.244873
vt 0.129334 0.234909
vt 0.147793 0.234909
vt 0.1479 0.235107
vt 0.12915 0.235107
vt 0.825547 0.229052
vt 0.888902 0.229076
vt 0.888696 0.229224
vt 0.825439 0.229248
vt 0.131104 0.227123
vt 0.194466 0.227099
vt 0.194573 0.227295
vt 0.131309 0.227271
vt 0.088242 0.234909
vt 0.106788 0.234909
vt 0.106973 0.235107
vt 0.088135 0.235107
vt 0.001405 0.246627
vt 0.092877 0.246627
vt 0.092984 0.246826
vt 0.001221 0.246826
vt 0.818711 0.234909
vt 0.841036 0.234909
vt 0.841143 0.235107
vt 0.818604 0.235107
vt 0.772217 0.281443
vt 0.863915 0.281443
vt 0.863915 0.281982
vt 0.772217 0.281982
vt 0.001221 0.259471
vt 0.019971 0.259471
vt 0.019971 0.26001
vt 0.001221 0.26001
vt 0.597412 0.274119
vt 0.660669 0.274119
vt 0.660669 0.274658
vt 0.597412 0.274658
vt 0.467529 0.274119
vt 0.530793 0.274119
vt 0.530793 0.274658
vt 0.467529 0.274658
vt 0.955322 0.261912
vt 0.97416 0.261912
vt 0.97416 0.262451
vt 0.955322 0.262451
vt 0.585693 0.281443
vt 0.677457 0.281443
vt 0.677457 0.281982
vt 0.585693 0.281982
vt 0.326416 0.261912
vt 0.348956 0.261912
vt 0.348956 0.262451
vt 0.326416 0.262451
vt 0.822021 0.252487
vt 0.913719 0.252487
vt 0.913535 0.252686
vt 0.822129 0.252686
vt 0.525635 0.240768
vt 0.544385 0.240768
vt 0.544277 0.240967
vt 0.525819 0.240967
vt 0.695557 0.229052
vt 0.758813 0.229076
vt 0.759019 0.229224
vt 0.695664 0.229248
vt 0.001426 0.227123
vt 0.06469 0.227099
vt 0.064583 0.227295
vt 0.001221 0.227271
vt 0.550537 0.231002
vt 0.569375 0.231002
vt 0.569191 0.231201
vt 0.550644 0.231201
vt 0.697998 0.250534
vt 0.789762 0.250534
vt 0.789655 0.250732
vt 0.698183 0.250732
vt 0.636963 0.236862
vt 0.659502 0.236862
vt 0.659395 0.237061
vt 0.63707 0.237061
vt 0.89796 0.831787
vt 0.809814 0.807589
vt 0.809814 0.785264
vt 0.836942 0.796421
vt 0.897999 0.813328
vt 0.89796 0.831787
vt 0.836942 0.796421
vt 0.89796 0.831787
vt 0.809814 0.785264
vt 0.898009 0.779523
vt 0.836942 0.796421
vt 0.809814 0.785264
vt 0.809814 0.785264
vt 0.898003 0.760977
vt 0.898009 0.779523
vt 0.899658 0.8075
vt 0.899658 0.785175
vt 0.987804 0.760977
vt 0.987804 0.760977
vt 0.987842 0.779435
vt 0.926785 0.796343
vt 0.899658 0.8075
vt 0.987804 0.760977
vt 0.926785 0.796343
vt 0.899658 0.8075
vt 0.926785 0.796343
vt 0.987853 0.813241
vt 0.987853 0.813241
vt 0.987847 0.831787
vt 0.899658 0.8075
vn 0.681879 -0.187193 -0.707107
vn 0.001482 0.707105 -0.707107
vn -0.788871 0.217886 -0.574637
vn -0.954023 0.262961 -0.143848
vn 0.788913 0.217736 -0.574637
vn 0.954073 0.262779 -0.143848
vn -0.000232 0.707107 -0.707107
vn -0.681727 -0.187746 -0.707107
vn 0 -0.707107 -0.707107
vn 0.964322 -0.264731 0
vn 0.002096 0.999998 0
vn -0.954023 0.262961 0.143848
vn 0.954073 0.262779 0.143848
vn -0.000328 1 0
vn -0.964107 -0.265513 0
vn 0 -1 0
vn 0.681879 -0.187193 0.707107
vn 0.001482 0.707105 0.707107
vn -0.788871 0.217886 0.574637
vn 0.788913 0.217736 0.574637
vn -0.000232 0.707107 0.707107
vn -0.681727 -0.187746 0.707107
vn 0 -0.707107 0.707107
vn 0 0 -1
vn 0 0 1
f 29/59/10 30/60/10 37/61/10 36/62/10
f 30/63/11 31/64/11 38/65/11 37/66/11
f 31/67/12 32/68/12 39/69/13 38/70/13
f 32/71/14 33/72/14 40/73/15 39/74/15
f 33/75/16 34/76/16 41/77/16 40/78/16
f 34/79/17 35/80/17 42/81/17 41/82/17
f 35/83/18 29/84/18 36/85/18 42/86/18
f 36/87/19 37/88/19 44/89/19 43/90/19
f 37/91/20 38/92/20 45/93/20 44/94/20
f 38/95/13 39/96/13 46/97/21 45/98/21
f 39/99/15 40/100/15 47/101/22 46/102/22
f 40/103/23 41/104/23 48/105/23 47/106/23
f 41/107/24 42/108/24 49/109/24 48/110/24
f 42/111/25 36/112/25 43/113/25 49/114/25
f 43/115/26 44/116/26 51/117/26 50/118/26
f 44/119/27 45/120/27 52/121/27 51/122/27
f 45/123/21 46/124/21 53/125/28 52/126/28
f 46/127/22 47/128/22 54/129/29 53/130/29
f 47/131/30 48/132/30 55/133/30 54/134/30
f 48/135/31 49/136/31 56/137/31 55/138/31
f 49/139/32 43/140/32 50/141/32 56/142/32
f 58/143/33 57/144/33 63/145/33
f 60/146/33 59/147/33 58/148/33
f 60/149/33 58/150/33 63/151/33
f 61/152/33 60/153/33 63/154/33
f 63/155/33 62/156/33 61/157/33
f 70/158/34 64/159/34 65/160/34
f 65/161/34 66/162/34 67/163/34
f 70/164/34 65/165/34 67/166/34
f 70/167/34 67/168/34 68/169/34
f 68/170/34 69/171/34 70/172/34
