# AFL PRAIRIE signage V1 channel letter W (off), generated by tools/build-prairie-signage-v1.mjs
mtllib w_off.mtl
o W_body
usemtl letters_nz
v 0.771363 0.125253 0.8786
v 0.92089 0.874929 0.8786
v 0.780191 0.874994 0.8786
v 0.676381 0.353843 0.8786
v 0.555115 0.767003 0.8786
v 0.445363 0.76681 0.8786
v 0.323363 0.355128 0.8786
v 0.219807 0.875 0.8786
v 0.079103 0.875 0.8786
v 0.22866 0.125544 0.8786
v 0.400138 0.125544 0.8786
v 0.499999 0.464851 0.8786
v 0.599825 0.125544 0.8786
v 0.771363 0.125253 0.9996
v 0.92089 0.874929 0.9996
v 0.780191 0.874994 0.9996
v 0.676381 0.353843 0.9996
v 0.555115 0.767003 0.9996
v 0.445363 0.76681 0.9996
v 0.323363 0.355128 0.9996
v 0.219807 0.875 0.9996
v 0.079103 0.875 0.9996
v 0.22866 0.125544 0.9996
v 0.400138 0.125544 0.9996
v 0.499999 0.464851 0.9996
v 0.599825 0.125544 0.9996
v 0.771363 0.125253 0.8786
v 0.92089 0.874929 0.8786
v 0.780191 0.874994 0.8786
v 0.676381 0.353843 0.8786
v 0.555115 0.767003 0.8786
v 0.445363 0.76681 0.8786
v 0.323363 0.355128 0.8786
v 0.219807 0.875 0.8786
v 0.079103 0.875 0.8786
v 0.22866 0.125544 0.8786
v 0.400138 0.125544 0.8786
v 0.499999 0.464851 0.8786
v 0.599825 0.125544 0.8786
v 0.771363 0.125253 0.9996
v 0.92089 0.874929 0.9996
v 0.780191 0.874994 0.9996
v 0.676381 0.353843 0.9996
v 0.555115 0.767003 0.9996
v 0.445363 0.76681 0.9996
v 0.323363 0.355128 0.9996
v 0.219807 0.875 0.9996
v 0.079103 0.875 0.9996
v 0.22866 0.125544 0.9996
v 0.400138 0.125544 0.9996
v 0.499999 0.464851 0.9996
v 0.599825 0.125544 0.9996
vt 0.366455 0.462139
vt 0.456038 0.462139
vt 0.456038 0.476318
vt 0.366455 0.476318
vt 0.152588 0.332744
vt 0.169076 0.332744
vt 0.169076 0.346924
vt 0.152588 0.346924
vt 0.891846 0.397197
vt 0.954118 0.397197
vt 0.954118 0.411377
vt 0.891846 0.411377
vt 0.373779 0.381084
vt 0.424239 0.381084
vt 0.424239 0.395264
vt 0.373779 0.395264
vt 0.267334 0.346924
vt 0.267334 0.334062
vt 0.281514 0.334062
vt 0.281514 0.346924
vt 0.426025 0.381084
vt 0.476343 0.381084
vt 0.476343 0.395264
vt 0.426025 0.395264
vt 0.001221 0.381084
vt 0.06334 0.381084
vt 0.06334 0.395264
vt 0.001221 0.395264
vt 0.134521 0.332744
vt 0.15101 0.332744
vt 0.15101 0.346924
vt 0.134521 0.346924
vt 0.457764 0.462139
vt 0.547322 0.462139
vt 0.547322 0.476318
vt 0.457764 0.476318
vt 0.536377 0.348857
vt 0.556472 0.348857
vt 0.556472 0.363037
vt 0.536377 0.363037
vt 0.870361 0.381084
vt 0.91181 0.381084
vt 0.91181 0.395264
vt 0.870361 0.395264
vt 0.91333 0.381084
vt 0.954778 0.381084
vt 0.954778 0.395264
vt 0.91333 0.395264
vt 0.514404 0.348857
vt 0.534507 0.348857
vt 0.534507 0.363037
vt 0.514404 0.363037
vt 0.403564 0.998771
vt 0.421087 0.910918
vt 0.441189 0.910952
vt 0.432218 0.937706
vt 0.420053 0.998779
vt 0.403564 0.998771
vt 0.432218 0.937706
vt 0.403564 0.998771
vt 0.441189 0.910952
vt 0.446429 0.986123
vt 0.432218 0.937706
vt 0.441189 0.910952
vt 0.45929 0.986101
vt 0.446429 0.986123
vt 0.441189 0.910952
vt 0.502211 0.998779
vt 0.485723 0.998779
vt 0.473587 0.937857
vt 0.484685 0.910952
vt 0.502211 0.998779
vt 0.473587 0.937857
vt 0.46459 0.910952
vt 0.484685 0.910952
vt 0.473587 0.937857
vt 0.46459 0.910952
vt 0.473587 0.937857
vt 0.45929 0.986101
vt 0.452888 0.950715
vt 0.46459 0.910952
vt 0.45929 0.986101
vt 0.441189 0.910952
vt 0.452888 0.950715
vt 0.45929 0.986101
vt 0.565172 0.910952
vt 0.585275 0.910918
vt 0.602797 0.998771
vt 0.602797 0.998771
vt 0.586309 0.998779
vt 0.574144 0.937706
vt 0.565172 0.910952
vt 0.602797 0.998771
vt 0.574144 0.937706
vt 0.565172 0.910952
vt 0.574144 0.937706
vt 0.559933 0.986123
vt 0.565172 0.910952
vt 0.559933 0.986123
vt 0.547072 0.986101
vt 0.532775 0.937857
vt 0.520639 0.998779
vt 0.50415 0.998779
vt 0.532775 0.937857
vt 0.50415 0.998779
vt 0.521677 0.910952
vt 0.532775 0.937857
vt 0.521677 0.910952
vt 0.541772 0.910952
vt 0.547072 0.986101
vt 0.532775 0.937857
vt 0.541772 0.910952
vt 0.547072 0.986101
vt 0.541772 0.910952
vt 0.553474 0.950715
vt 0.547072 0.986101
vt 0.553474 0.950715
vt 0.565172 0.910952
vn 0.980683 -0.195602 0
vn 0.000465 1 0
vn -0.980732 0.195357 0
vn 0.959524 0.281627 0
vn -0.001759 0.999998 0
vn -0.958785 0.284132 0
vn 0.980732 0.195357 0
vn 0 1 0
vn -0.980665 -0.195695 0
vn 0 -1 0
vn 0.959316 -0.282335 0
vn -0.959343 -0.282243 0
vn -0.001693 -0.999999 0
vn 0 0 -1
vn 0 0 1
f 1/1/1 2/2/1 15/3/1 14/4/1
f 2/5/2 3/6/2 16/7/2 15/8/2
f 3/9/3 4/10/3 17/11/3 16/12/3
f 4/13/4 5/14/4 18/15/4 17/16/4
f 5/17/5 6/18/5 19/19/5 18/20/5
f 6/21/6 7/22/6 20/23/6 19/24/6
f 7/25/7 8/26/7 21/27/7 20/28/7
f 8/29/8 9/30/8 22/31/8 21/32/8
f 9/33/9 10/34/9 23/35/9 22/36/9
f 10/37/10 11/38/10 24/39/10 23/40/10
f 11/41/11 12/42/11 25/43/11 24/44/11
f 12/45/12 13/46/12 26/47/12 25/48/12
f 13/49/13 1/50/13 14/51/13 26/52/13
f 28/53/14 27/54/14 39/55/14
f 30/56/14 29/57/14 28/58/14
f 30/59/14 28/60/14 39/61/14
f 31/62/14 30/63/14 39/64/14
f 32/65/14 31/66/14 39/67/14
f 35/68/14 34/69/14 33/70/14
f 36/71/14 35/72/14 33/73/14
f 37/74/14 36/75/14 33/76/14
f 37/77/14 33/78/14 32/79/14
f 38/80/14 37/81/14 32/82/14
f 39/83/14 38/84/14 32/85/14
f 52/86/15 40/87/15 41/88/15
f 41/89/15 42/90/15 43/91/15
f 52/92/15 41/93/15 43/94/15
f 52/95/15 43/96/15 44/97/15
f 52/98/15 44/99/15 45/100/15
f 46/101/15 47/102/15 48/103/15
f 46/104/15 48/105/15 49/106/15
f 46/107/15 49/108/15 50/109/15
f 45/110/15 46/111/15 50/112/15
f 45/113/15 50/114/15 51/115/15
f 45/116/15 51/117/15 52/118/15
o W_face_off
usemtl letters_nz
v 0.772378 0.124156 0.8726
v 0.921902 0.87598 0.8726
v 0.779124 0.87629 0.8726
v 0.678522 0.371246 0.8726
v 0.675287 0.364031 0.8726
v 0.556161 0.7683 0.8726
v 0.444261 0.768257 0.8726
v 0.324011 0.362683 0.8726
v 0.22038 0.876248 0.8726
v 0.077521 0.876252 0.8726
v 0.227456 0.1237 0.8726
v 0.401265 0.1237 0.8726
v 0.499999 0.457908 0.8726
v 0.598813 0.123699 0.8726
v 0.773363 0.122959 0.8738
v 0.923363 0.877177 0.8738
v 0.77814 0.877493 0.8738
v 0.677363 0.371574 0.8738
v 0.675363 0.366191 0.8738
v 0.557059 0.769501 0.8738
v 0.443363 0.769456 0.8738
v 0.324084 0.364324 0.8738
v 0.221363 0.877448 0.8738
v 0.076059 0.877452 0.8738
v 0.226471 0.1225 0.8738
v 0.402164 0.1225 0.8738
v 0.499999 0.455977 0.8738
v 0.597915 0.122496 0.8738
v 0.773363 0.122959 0.8784
v 0.923363 0.877177 0.8784
v 0.77814 0.877493 0.8784
v 0.677363 0.371574 0.8784
v 0.675363 0.366191 0.8784
v 0.557059 0.769501 0.8784
v 0.443363 0.769456 0.8784
v 0.324084 0.364324 0.8784
v 0.221363 0.877448 0.8784
v 0.076059 0.877452 0.8784
v 0.226471 0.1225 0.8784
v 0.402164 0.1225 0.8784
v 0.499999 0.455977 0.8784
v 0.597915 0.122496 0.8784
v 0.772378 0.124156 0.8796
v 0.921902 0.87598 0.8796
v 0.779124 0.87629 0.8796
v 0.678522 0.371246 0.8796
v 0.675287 0.364031 0.8796
v 0.556161 0.7683 0.8796
v 0.444261 0.768257 0.8796
v 0.324011 0.362683 0.8796
v 0.22038 0.876248 0.8796
v 0.077521 0.876252 0.8796
v 0.227456 0.1237 0.8796
v 0.401265 0.1237 0.8796
v 0.499999 0.457908 0.8796
v 0.598813 0.123699 0.8796
v 0.772378 0.124156 0.8726
v 0.921902 0.87598 0.8726
v 0.779124 0.87629 0.8726
v 0.678522 0.371246 0.8726
v 0.675287 0.364031 0.8726
v 0.556161 0.7683 0.8726
v 0.444261 0.768257 0.8726
v 0.324011 0.362683 0.8726
v 0.22038 0.876248 0.8726
v 0.077521 0.876252 0.8726
v 0.227456 0.1237 0.8726
v 0.401265 0.1237 0.8726
v 0.499999 0.457908 0.8726
v 0.598813 0.123699 0.8726
v 0.772378 0.124156 0.8796
v 0.921902 0.87598 0.8796
v 0.779124 0.87629 0.8796
v 0.678522 0.371246 0.8796
v 0.675287 0.364031 0.8796
v 0.556161 0.7683 0.8796
v 0.444261 0.768257 0.8796
v 0.324011 0.362683 0.8796
v 0.22038 0.876248 0.8796
v 0.077521 0.876252 0.8796
v 0.227456 0.1237 0.8796
v 0.401265 0.1237 0.8796
v 0.499999 0.457908 0.8796
v 0.598813 0.123699 0.8796
vt 0.518426 0.246627
vt 0.608256 0.246627
vt 0.608426 0.246826
vt 0.518311 0.246826
vt 0.659595 0.234909
vt 0.676327 0.234909
vt 0.676442 0.235107
vt 0.659424 0.235107
vt 0.146336 0.319372
vt 0.206149 0.314058
vt 0.206156 0.314257
vt 0.14624 0.31958
vt 0.206149 0.314058
vt 0.207071 0.314114
vt 0.206829 0.314268
vt 0.206829 0.314268
vt 0.206156 0.314257
vt 0.206149 0.314058
vt 0.188232 0.229069
vt 0.237622 0.229051
vt 0.237727 0.229248
vt 0.188473 0.229229
vt 0.696639 0.234909
vt 0.709752 0.234909
vt 0.709857 0.235107
vt 0.696533 0.235107
vt 0.278669 0.225147
vt 0.328243 0.225173
vt 0.328056 0.225316
vt 0.278564 0.225342
vt 0.483643 0.225173
vt 0.545039 0.225147
vt 0.545154 0.225342
vt 0.483829 0.225316
vt 0.58532 0.234909
vt 0.602062 0.234909
vt 0.602233 0.235107
vt 0.585205 0.235107
vt 0.545337 0.252487
vt 0.63526 0.252487
vt 0.635376 0.252686
vt 0.545166 0.252686
vt 0.843133 0.236862
vt 0.863501 0.236862
vt 0.863607 0.237061
vt 0.843018 0.237061
vt 0.545759 0.229052
vt 0.586598 0.229074
vt 0.586381 0.229225
vt 0.545654 0.229248
vt 0.290771 0.229074
vt 0.331613 0.229052
vt 0.331718 0.229248
vt 0.290989 0.229225
vt 0.977889 0.236862
vt 0.998229 0.236862
vt 0.998344 0.237061
vt 0.977783 0.237061
vt 0.093018 0.279002
vt 0.183134 0.279002
vt 0.183134 0.279541
vt 0.093018 0.279541
vt 0.812744 0.259471
vt 0.829763 0.259471
vt 0.829763 0.26001
vt 0.812744 0.26001
vt 0.191162 0.271678
vt 0.251423 0.271678
vt 0.251423 0.272217
vt 0.191162 0.272217
vt 0.251423 0.271678
vt 0.252094 0.271678
vt 0.252094 0.272217
vt 0.251423 0.272217
vt 0.36499 0.269236
vt 0.414245 0.269236
vt 0.414245 0.269775
vt 0.36499 0.269775
vt 0.9104 0.259471
vt 0.923724 0.259471
vt 0.923724 0.26001
vt 0.9104 0.26001
vt 0.262451 0.269236
vt 0.311943 0.269236
vt 0.311943 0.269775
vt 0.262451 0.269775
vt 0.065186 0.271678
vt 0.12651 0.271678
vt 0.12651 0.272217
vt 0.065186 0.272217
vt 0.775635 0.259471
vt 0.792663 0.259471
vt 0.792663 0.26001
vt 0.775635 0.26001
vt 0.865479 0.281443
vt 0.955688 0.281443
vt 0.955688 0.281982
vt 0.865479 0.281982
vt 0.670166 0.261912
vt 0.690755 0.261912
vt 0.690755 0.262451
vt 0.670166 0.262451
vt 0.815186 0.269236
vt 0.855912 0.269236
vt 0.855912 0.269775
vt 0.815186 0.269775
vt 0.730225 0.269236
vt 0.770954 0.269236
vt 0.770954 0.269775
vt 0.730225 0.269775
vt 0.715088 0.261912
vt 0.735648 0.261912
vt 0.735648 0.262451
vt 0.715088 0.262451
vt 0.06665 0.24858
vt 0.156766 0.24858
vt 0.156595 0.248779
vt 0.066765 0.248779
vt 0.023193 0.229049
vt 0.040212 0.229049
vt 0.040096 0.229248
vt 0.023364 0.229248
vt 0.721436 0.314571
vt 0.781505 0.319381
vt 0.7815 0.31958
vt 0.721535 0.314778
vt 0.735596 0.22518
vt 0.736269 0.22518
vt 0.736509 0.225342
vt 0.782421 0.319507
vt 0.7815 0.31958
vt 0.781505 0.319381
vt 0.085934 0.229069
vt 0.135188 0.229051
vt 0.135083 0.229248
vt 0.085693 0.229229
vt 0.586182 0.240768
vt 0.599505 0.240768
vt 0.5994 0.240967
vt 0.586287 0.240967
vt 0.381104 0.225147
vt 0.430595 0.225173
vt 0.430782 0.225316
vt 0.381209 0.225342
vt 0.546818 0.225173
vt 0.608143 0.225147
vt 0.608027 0.225342
vt 0.546631 0.225316
vt 0.60376 0.234909
vt 0.620788 0.234909
vt 0.620616 0.235107
vt 0.603875 0.235107
vt 0.421143 0.250534
vt 0.511352 0.250534
vt 0.511237 0.250732
vt 0.421314 0.250732
vt 0.865479 0.236862
vt 0.886068 0.236862
vt 0.885962 0.237061
vt 0.865594 0.237061
vt 0.460693 0.229052
vt 0.50142 0.229074
vt 0.501637 0.229225
vt 0.460799 0.229248
vt 0.37595 0.229074
vt 0.416679 0.229052
vt 0.416574 0.229248
vt 0.375732 0.229225
vt 0.932861 0.236862
vt 0.953422 0.236862
vt 0.953307 0.237061
vt 0.932967 0.237061
vt 0.001221 0.998743
vt 0.018743 0.910639
vt 0.039083 0.910585
vt 0.029742 0.939594
vt 0.017952 0.998779
vt 0.001221 0.998743
vt 0.029742 0.939594
vt 0.001221 0.998743
vt 0.039083 0.910585
vt 0.030121 0.938749
vt 0.029742 0.939594
vt 0.039083 0.910585
vt 0.044081 0.986124
vt 0.030121 0.938749
vt 0.039083 0.910585
vt 0.057194 0.986119
vt 0.044081 0.986124
vt 0.039083 0.910585
vt 0.100172 0.998775
vt 0.08343 0.998774
vt 0.071286 0.938591
vt 0.082601 0.910585
vt 0.100172 0.998775
vt 0.071286 0.938591
vt 0.062233 0.910585
vt 0.082601 0.910585
vt 0.071286 0.938591
vt 0.062233 0.910585
vt 0.071286 0.938591
vt 0.057194 0.986119
vt 0.050662 0.94975
vt 0.062233 0.910585
vt 0.057194 0.986119
vt 0.039083 0.910585
vt 0.050662 0.94975
vt 0.057194 0.986119
vt 0.162895 0.910585
vt 0.183235 0.910639
vt 0.200758 0.998743
vt 0.200758 0.998743
vt 0.184026 0.998779
vt 0.172236 0.939594
vt 0.162895 0.910585
vt 0.200758 0.998743
vt 0.172236 0.939594
vt 0.162895 0.910585
vt 0.172236 0.939594
vt 0.171857 0.938749
vt 0.162895 0.910585
vt 0.171857 0.938749
vt 0.157897 0.986124
vt 0.162895 0.910585
vt 0.157897 0.986124
vt 0.144784 0.986119
vt 0.130692 0.938591
vt 0.118548 0.998774
vt 0.101807 0.998775
vt 0.130692 0.938591
vt 0.101807 0.998775
vt 0.119377 0.910585
vt 0.130692 0.938591
vt 0.119377 0.910585
vt 0.139745 0.910585
vt 0.144784 0.986119
vt 0.130692 0.938591
vt 0.139745 0.910585
vt 0.144784 0.986119
vt 0.139745 0.910585
vt 0.151316 0.94975
vt 0.144784 0.986119
vt 0.151316 0.94975
vt 0.162895 0.910585
vn 0.693524 -0.137929 -0.707107
vn 0.001538 0.707105 -0.707107
vn -0.693482 0.138138 -0.707107
vn -0.693882 0.140065 -0.706335
vn -0.693337 0.138742 -0.707131
vn -0.75519 0.338558 -0.561307
vn -0.917368 0.350248 -0.189109
vn -0.71617 0.297562 -0.631314
vn 0.754885 0.221939 -0.617165
vn -0.000275 0.707107 -0.707107
vn -0.79856 0.23594 -0.553746
vn -0.950267 0.279981 -0.136392
vn 0.816421 0.164091 -0.553652
vn 0.971359 0.194615 -0.136334
vn 0.000019 0.707107 -0.707107
vn -0.693477 -0.138165 -0.707107
vn 0 -0.707107 -0.707107
vn 0.775663 -0.228358 -0.588386
vn -0.775613 -0.228527 -0.588387
vn 0.001865 -0.707104 -0.707107
vn 0.980791 -0.195061 0
vn 0.002175 0.999998 0
vn -0.980732 0.195357 0
vn -0.98039 0.197068 0
vn -0.980345 0.197288 0.000814
vn -0.928929 0.355722 -0.102729
vn -0.935399 0.347512 0.065308
vn 0.959569 0.281474 0
vn -0.000389 1 0
vn -0.950267 0.279981 0.136392
vn 0.971359 0.194615 0.136334
vn 0.000027 1 0
vn -0.980725 -0.195394 0
vn 0 -1 0
vn 0.959557 -0.281515 0
vn -0.959495 -0.281724 0
vn 0.002637 -0.999997 0
vn 0.693524 -0.137929 0.707107
vn 0.001538 0.707105 0.707107
vn -0.693482 0.138138 0.707107
vn -0.693882 0.140065 0.706335
vn -0.693201 0.139306 0.707154
vn -0.960076 0.193153 0.202351
vn -0.71617 0.297562 0.631314
vn 0.754885 0.221939 0.617165
vn -0.000275 0.707107 0.707107
vn -0.79856 0.23594 0.553746
vn 0.816421 0.164091 0.553652
vn 0.000019 0.707107 0.707107
vn -0.693477 -0.138165 0.707107
vn 0 -0.707107 0.707107
vn 0.775663 -0.228358 0.588386
vn -0.775613 -0.228527 0.588387
vn 0.001865 -0.707104 0.707107
vn 0 0 -1
vn 0 0 1
f 53/119/16 54/120/16 68/121/16 67/122/16
f 54/123/17 55/124/17 69/125/17 68/126/17
f 55/127/18 56/128/19 70/129/20 69/130/18
f 56/131/19 57/132/21 71/133/22
f 71/134/23 70/135/20 56/136/19
f 57/137/24 58/138/24 72/139/24 71/140/24
f 58/141/25 59/142/25 73/143/25 72/144/25
f 59/145/26 60/146/26 74/147/27 73/148/27
f 60/149/28 61/150/28 75/151/29 74/152/29
f 61/153/30 62/154/30 76/155/30 75/156/30
f 62/157/31 63/158/31 77/159/31 76/160/31
f 63/161/32 64/162/32 78/163/32 77/164/32
f 64/165/33 65/166/33 79/167/33 78/168/33
f 65/169/34 66/170/34 80/171/34 79/172/34
f 66/173/35 53/174/35 67/175/35 80/176/35
f 67/177/36 68/178/36 82/179/36 81/180/36
f 68/181/37 69/182/37 83/183/37 82/184/37
f 69/185/38 70/186/39 84/187/40 83/188/38
f 70/189/39 71/190/41 85/191/42 84/192/40
f 71/193/43 72/194/43 86/195/43 85/196/43
f 72/197/44 73/198/44 87/199/44 86/200/44
f 73/201/27 74/202/27 88/203/45 87/204/45
f 74/205/29 75/206/29 89/207/46 88/208/46
f 75/209/47 76/210/47 90/211/47 89/212/47
f 76/213/48 77/214/48 91/215/48 90/216/48
f 77/217/49 78/218/49 92/219/49 91/220/49
f 78/221/50 79/222/50 93/223/50 92/224/50
f 79/225/51 80/226/51 94/227/51 93/228/51
f 80/229/52 67/230/52 81/231/52 94/232/52
f 81/233/53 82/234/53 96/235/53 95/236/53
f 82/237/54 83/238/54 97/239/54 96/240/54
f 83/241/55 84/242/56 98/243/57 97/244/55
f 84/245/58 85/246/42 99/247/59
f 99/248/59 98/249/57 84/250/56
f 85/251/60 86/252/60 100/253/60 99/254/60
f 86/255/61 87/256/61 101/257/61 100/258/61
f 87/259/45 88/260/45 102/261/62 101/262/62
f 88/263/46 89/264/46 103/265/63 102/266/63
f 89/267/64 90/268/64 104/269/64 103/270/64
f 90/271/65 91/272/65 105/273/65 104/274/65
f 91/275/66 92/276/66 106/277/66 105/278/66
f 92/279/67 93/280/67 107/281/67 106/282/67
f 93/283/68 94/284/68 108/285/68 107/286/68
f 94/287/69 81/288/69 95/289/69 108/290/69
f 110/291/70 109/292/70 122/293/70
f 112/294/70 111/295/70 110/296/70
f 112/297/70 110/298/70 122/299/70
f 113/300/70 112/301/70 122/302/70
f 114/303/70 113/304/70 122/305/70
f 115/306/70 114/307/70 122/308/70
f 118/309/70 117/310/70 116/311/70
f 119/312/70 118/313/70 116/314/70
f 120/315/70 119/316/70 116/317/70
f 120/318/70 116/319/70 115/320/70
f 121/321/70 120/322/70 115/323/70
f 122/324/70 121/325/70 115/326/70
f 136/327/71 123/328/71 124/329/71
f 124/330/71 125/331/71 126/332/71
f 136/333/71 124/334/71 126/335/71
f 136/336/71 126/337/71 127/338/71
f 136/339/71 127/340/71 128/341/71
f 136/342/71 128/343/71 129/344/71
f 130/345/71 131/346/71 132/347/71
f 130/348/71 132/349/71 133/350/71
f 130/351/71 133/352/71 134/353/71
f 129/354/71 130/355/71 134/356/71
f 129/357/71 134/358/71 135/359/71
f 129/360/71 135/361/71 136/362/71
