# AFL PRAIRIE signage V1 channel letter X (lit), generated by tools/build-prairie-signage-v1.mjs
mtllib x_lit.mtl
o X_body
usemtl letters_nz
v 0.789363 0.125422 0.8786
v 0.585662 0.499544 0.8786
v 0.78976 0.87499 0.8786
v 0.619363 0.874869 0.8786
v 0.499997 0.656743 0.8786
v 0.381363 0.874427 0.8786
v 0.210229 0.875011 0.8786
v 0.414338 0.499544 0.8786
v 0.21067 0.125544 0.8786
v 0.381363 0.125558 0.8786
v 0.499998 0.343258 0.8786
v 0.619363 0.125 0.8786
v 0.789363 0.125422 0.9996
v 0.585662 0.499544 0.9996
v 0.78976 0.87499 0.9996
v 0.619363 0.874869 0.9996
v 0.499997 0.656743 0.9996
v 0.381363 0.874427 0.9996
v 0.210229 0.875011 0.9996
v 0.414338 0.499544 0.9996
v 0.21067 0.125544 0.9996
v 0.381363 0.125558 0.9996
v 0.499998 0.343258 0.9996
v 0.619363 0.125 0.9996
v 0.789363 0.125422 0.8786
v 0.585662 0.499544 0.8786
v 0.78976 0.87499 0.8786
v 0.619363 0.874869 0.8786
v 0.499997 0.656743 0.8786
v 0.381363 0.874427 0.8786
v 0.210229 0.875011 0.8786
v 0.414338 0.499544 0.8786
v 0.21067 0.125544 0.8786
v 0.381363 0.125558 0.8786
v 0.499998 0.343258 0.8786
v 0.619363 0.125 0.8786
v 0.789363 0.125422 0.9996
v 0.585662 0.499544 0.9996
v 0.78976 0.87499 0.9996
v 0.619363 0.874869 0.9996
v 0.499997 0.656743 0.9996
v 0.381363 0.874427 0.9996
v 0.210229 0.875011 0.9996
v 0.414338 0.499544 0.9996
v 0.21067 0.125544 0.9996
v 0.381363 0.125558 0.9996
v 0.499998 0.343258 0.9996
v 0.619363 0.125 0.9996
vt 0.581787 0.381084
vt 0.631707 0.381084
vt 0.631707 0.395264
vt 0.581787 0.395264
vt 0.530029 0.381084
vt 0.580108 0.381084
vt 0.580108 0.395264
vt 0.530029 0.395264
vt 0.623779 0.348857
vt 0.643748 0.348857
vt 0.643748 0.363037
vt 0.623779 0.363037
vt 0.936768 0.364971
vt 0.965906 0.364971
vt 0.965906 0.37915
vt 0.936768 0.37915
vt 0.001221 0.348857
vt 0.030273 0.348857
vt 0.030273 0.363037
vt 0.001221 0.363037
vt 0.580322 0.348857
vt 0.600377 0.348857
vt 0.600377 0.363037
vt 0.580322 0.363037
vt 0.478271 0.381084
vt 0.528353 0.381084
vt 0.528353 0.395264
vt 0.478271 0.395264
vt 0.633545 0.381084
vt 0.68345 0.381084
vt 0.68345 0.395264
vt 0.633545 0.395264
vt 0.602295 0.348857
vt 0.622298 0.348857
vt 0.622298 0.363037
vt 0.602295 0.363037
vt 0.967529 0.364971
vt 0.996583 0.364971
vt 0.996583 0.37915
vt 0.967529 0.37915
vt 0.906006 0.364971
vt 0.935158 0.364971
vt 0.935158 0.37915
vt 0.906006 0.37915
vt 0.645264 0.348857
vt 0.665186 0.348857
vt 0.665186 0.363037
vt 0.645264 0.363037
vt 0.85273 0.660897
vt 0.808887 0.684768
vt 0.808838 0.664846
vt 0.896713 0.664846
vt 0.896727 0.684814
vt 0.85273 0.660897
vt 0.871152 0.650858
vt 0.896713 0.664846
vt 0.85273 0.660897
vt 0.871152 0.650858
vt 0.85273 0.660897
vt 0.808838 0.664846
vt 0.896661 0.636956
vt 0.871152 0.650858
vt 0.808838 0.664846
vt 0.89673 0.616901
vt 0.896661 0.636956
vt 0.808838 0.664846
vt 0.808903 0.636956
vt 0.808902 0.616952
vt 0.85273 0.64082
vt 0.834415 0.650858
vt 0.808903 0.636956
vt 0.85273 0.64082
vt 0.834415 0.650858
vt 0.85273 0.64082
vt 0.89673 0.616901
vt 0.808838 0.664846
vt 0.834415 0.650858
vt 0.89673 0.616901
vt 0.898682 0.636869
vt 0.898731 0.616947
vt 0.942573 0.640818
vt 0.942573 0.640818
vt 0.986571 0.616901
vt 0.986557 0.636869
vt 0.942573 0.640818
vt 0.986557 0.636869
vt 0.960995 0.650857
vt 0.898682 0.636869
vt 0.942573 0.640818
vt 0.960995 0.650857
vt 0.898682 0.636869
vt 0.960995 0.650857
vt 0.986505 0.66476
vt 0.898682 0.636869
vt 0.986505 0.66476
vt 0.986574 0.684814
vt 0.942573 0.660895
vt 0.898745 0.684763
vt 0.898747 0.66476
vt 0.942573 0.660895
vt 0.898747 0.66476
vt 0.924259 0.650857
vt 0.986574 0.684814
vt 0.942573 0.660895
vt 0.924259 0.650857
vt 0.986574 0.684814
vt 0.924259 0.650857
vt 0.898682 0.636869
vn 0.878256 0.478192 0
vn 0.878575 -0.477605 0
vn -0.000709 1 0
vn -0.877238 0.480056 0
vn 0.87807 0.478532 0
vn 0.003412 0.999994 0
vn -0.878575 -0.477605 0
vn -0.878223 0.478252 0
vn 0.000085 -1 0
vn 0.878084 -0.478506 0
vn -0.877361 -0.479831 0
vn 0.002481 -0.999997 0
vn 0 0 -1
vn 0 0 1
f 1/1/1 2/2/1 14/3/1 13/4/1
f 2/5/2 3/6/2 15/7/2 14/8/2
f 3/9/3 4/10/3 16/11/3 15/12/3
f 4/13/4 5/14/4 17/15/4 16/16/4
f 5/17/5 6/18/5 18/19/5 17/20/5
f 6/21/6 7/22/6 19/23/6 18/24/6
f 7/25/7 8/26/7 20/27/7 19/28/7
f 8/29/8 9/30/8 21/31/8 20/32/8
f 9/33/9 10/34/9 22/35/9 21/36/9
f 10/37/10 11/38/10 23/39/10 22/40/10
f 11/41/11 12/42/11 24/43/11 23/44/11
f 12/45/12 1/46/12 13/47/12 24/48/12
f 26/49/13 25/50/13 36/51/13
f 28/52/13 27/53/13 26/54/13
f 29/55/13 28/56/13 26/57/13
f 29/58/13 26/59/13 36/60/13
f 30/61/13 29/62/13 36/63/13
f 31/64/13 30/65/13 36/66/13
f 34/67/13 33/68/13 32/69/13
f 35/70/13 34/71/13 32/72/13
f 35/73/13 32/74/13 31/75/13
f 36/76/13 35/77/13 31/78/13
f 48/79/14 37/80/14 38/81/14
f 38/82/14 39/83/14 40/84/14
f 38/85/14 40/86/14 41/87/14
f 48/88/14 38/89/14 41/90/14
f 48/91/14 41/92/14 42/93/14
f 48/94/14 42/95/14 43/96/14
f 44/97/14 45/98/14 46/99/14
f 44/100/14 46/101/14 47/102/14
f 43/103/14 44/104/14 47/105/14
f 43/106/14 47/107/14 48/108/14
o X_face_lit
usemtl letters_nz_glow
v 0.587143 0.499543 0.8726
v 0.791946 0.876282 0.8726
v 0.618076 0.876131 0.8726
v 0.5 0.659454 0.8726
v 0.381831 0.876301 0.8726
v 0.208187 0.876038 0.8726
v 0.412857 0.499543 0.8726
v 0.208044 0.1237 0.8726
v 0.381734 0.1237 0.8726
v 0.499999 0.340541 0.8726
v 0.618077 0.124133 0.8726
v 0.79187 0.123699 0.8726
v 0.588509 0.499544 0.8738
v 0.793965 0.877484 0.8738
v 0.617363 0.87733 0.8738
v 0.5 0.661962 0.8738
v 0.382543 0.877502 0.8738
v 0.20617 0.877235 0.8738
v 0.411491 0.499544 0.8738
v 0.206023 0.1225 0.8738
v 0.382446 0.1225 0.8738
v 0.499999 0.338036 0.8738
v 0.617363 0.122935 0.8738
v 0.793893 0.122494 0.8738
v 0.588509 0.499544 0.8784
v 0.793965 0.877484 0.8784
v 0.617363 0.87733 0.8784
v 0.5 0.661962 0.8784
v 0.382543 0.877502 0.8784
v 0.20617 0.877235 0.8784
v 0.411491 0.499544 0.8784
v 0.206023 0.1225 0.8784
v 0.382446 0.1225 0.8784
v 0.499999 0.338036 0.8784
v 0.617363 0.122935 0.8784
v 0.793893 0.122494 0.8784
v 0.587143 0.499543 0.8796
v 0.791946 0.876282 0.8796
v 0.618076 0.876131 0.8796
v 0.5 0.659454 0.8796
v 0.381831 0.876301 0.8796
v 0.208187 0.876038 0.8796
v 0.412857 0.499543 0.8796
v 0.208044 0.1237 0.8796
v 0.381734 0.1237 0.8796
v 0.499999 0.340541 0.8796
v 0.618077 0.124133 0.8796
v 0.79187 0.123699 0.8796
v 0.587143 0.499543 0.8726
v 0.791946 0.876282 0.8726
v 0.618076 0.876131 0.8726
v 0.5 0.659454 0.8726
v 0.381831 0.876301 0.8726
v 0.208187 0.876038 0.8726
v 0.412857 0.499543 0.8726
v 0.208044 0.1237 0.8726
v 0.381734 0.1237 0.8726
v 0.499999 0.340541 0.8726
v 0.618077 0.124133 0.8726
v 0.79187 0.123699 0.8726
v 0.587143 0.499543 0.8796
v 0.791946 0.876282 0.8796
v 0.618076 0.876131 0.8796
v 0.5 0.659454 0.8796
v 0.381831 0.876301 0.8796
v 0.208187 0.876038 0.8796
v 0.412857 0.499543 0.8796
v 0.208044 0.1237 0.8796
v 0.381734 0.1237 0.8796
v 0.499999 0.340541 0.8796
v 0.618077 0.124133 0.8796
v 0.79187 0.123699 0.8796
vt 0.404541 0.246627
vt 0.454792 0.246627
vt 0.455029 0.246826
vt 0.404618 0.246826
vt 0.73095 0.236862
vt 0.751325 0.236862
vt 0.751408 0.237061
vt 0.730713 0.237061
vt 0.793296 0.244674
vt 0.822214 0.244674
vt 0.821955 0.244873
vt 0.793213 0.244873
vt 0.185791 0.244674
vt 0.214731 0.244674
vt 0.214815 0.244873
vt 0.186049 0.244873
vt 0.219078 0.242721
vt 0.239427 0.242721
vt 0.239663 0.24292
vt 0.218994 0.24292
vt 0.001457 0.231002
vt 0.051675 0.231002
vt 0.051599 0.231201
vt 0.001221 0.231201
vt 0.843506 0.250534
vt 0.893665 0.250534
vt 0.893902 0.250732
vt 0.843582 0.250732
vt 0.870598 0.240768
vt 0.890952 0.240768
vt 0.891036 0.240967
vt 0.870361 0.240967
vt 0.487632 0.246627
vt 0.516577 0.246627
vt 0.516319 0.246826
vt 0.487549 0.246826
vt 0.928955 0.246627
vt 0.957845 0.246627
vt 0.957928 0.246826
vt 0.929213 0.246826
vt 0.825523 0.240768
vt 0.845889 0.240768
vt 0.846127 0.240967
vt 0.825439 0.240967
vt 0.734368 0.24858
vt 0.784523 0.24858
vt 0.784446 0.248779
vt 0.734131 0.248779
vt 0.858643 0.271678
vt 0.909054 0.271678
vt 0.909054 0.272217
vt 0.858643 0.272217
vt 0.512939 0.261912
vt 0.533635 0.261912
vt 0.533635 0.262451
vt 0.512939 0.262451
vt 0.56958 0.264354
vt 0.598323 0.264354
vt 0.598323 0.264893
vt 0.56958 0.264893
vt 0.509033 0.264354
vt 0.537799 0.264354
vt 0.537799 0.264893
vt 0.509033 0.264893
vt 0.647705 0.261912
vt 0.668374 0.261912
vt 0.668374 0.262451
vt 0.647705 0.262451
vt 0.001221 0.269236
vt 0.051599 0.269236
vt 0.051599 0.269775
vt 0.001221 0.269775
vt 0.105713 0.269236
vt 0.156032 0.269236
vt 0.156032 0.269775
vt 0.105713 0.269775
vt 0.602783 0.261912
vt 0.623458 0.261912
vt 0.623458 0.262451
vt 0.602783 0.262451
vt 0.448486 0.264354
vt 0.477257 0.264354
vt 0.477257 0.264893
vt 0.448486 0.264893
vt 0.630127 0.264354
vt 0.658842 0.264354
vt 0.658842 0.264893
vt 0.630127 0.264893
vt 0.557861 0.261912
vt 0.578548 0.261912
vt 0.578548 0.262451
vt 0.557861 0.262451
vt 0.210205 0.269236
vt 0.260521 0.269236
vt 0.260521 0.269775
vt 0.210205 0.269775
vt 0.238602 0.246627
vt 0.289013 0.246627
vt 0.288776 0.246826
vt 0.238525 0.246826
vt 0.437744 0.240768
vt 0.45844 0.240768
vt 0.458356 0.240967
vt 0.437981 0.240967
vt 0.321533 0.246627
vt 0.350276 0.246627
vt 0.350534 0.246826
vt 0.321617 0.246826
vt 0.001479 0.244674
vt 0.030244 0.244674
vt 0.030161 0.244873
vt 0.001221 0.244873
vt 0.482666 0.240768
vt 0.503335 0.240768
vt 0.503099 0.240967
vt 0.48275 0.240967
vt 0.406982 0.24858
vt 0.45736 0.24858
vt 0.457437 0.248779
vt 0.407219 0.248779
vt 0.302567 0.24858
vt 0.352886 0.24858
vt 0.35265 0.248779
vt 0.30249 0.248779
vt 0.820557 0.236862
vt 0.841231 0.236862
vt 0.841148 0.237061
vt 0.820793 0.237061
vt 0.731689 0.244674
vt 0.76046 0.244674
vt 0.760718 0.244873
vt 0.731773 0.244873
vt 0.817396 0.24858
vt 0.846112 0.24858
vt 0.846028 0.248779
vt 0.817139 0.248779
vt 0.775635 0.236862
vt 0.796322 0.236862
vt 0.796084 0.237061
vt 0.775718 0.237061
vt 0.11499 0.250534
vt 0.165306 0.250534
vt 0.165382 0.250732
vt 0.115228 0.250732
vt 0.717326 0.664439
vt 0.717344 0.684814
vt 0.673195 0.660814
vt 0.691934 0.650602
vt 0.717326 0.664439
vt 0.673195 0.660814
vt 0.691934 0.650602
vt 0.673195 0.660814
vt 0.62915 0.684806
vt 0.717346 0.636754
vt 0.691934 0.650602
vt 0.62915 0.684806
vt 0.717315 0.616405
vt 0.717346 0.636754
vt 0.62915 0.684806
vt 0.673195 0.64039
vt 0.717315 0.616405
vt 0.62915 0.684806
vt 0.629151 0.636743
vt 0.629151 0.616388
vt 0.673195 0.64039
vt 0.654562 0.650602
vt 0.629151 0.636743
vt 0.673195 0.64039
vt 0.654562 0.650602
vt 0.673195 0.64039
vt 0.62915 0.684806
vt 0.62915 0.684806
vt 0.629201 0.664439
vt 0.654562 0.650602
vt 0.763038 0.640389
vt 0.807187 0.616388
vt 0.80717 0.636764
vt 0.763038 0.640389
vt 0.80717 0.636764
vt 0.781778 0.650601
vt 0.718994 0.616397
vt 0.763038 0.640389
vt 0.781778 0.650601
vt 0.718994 0.616397
vt 0.781778 0.650601
vt 0.80719 0.664449
vt 0.718994 0.616397
vt 0.80719 0.664449
vt 0.807159 0.684798
vt 0.718994 0.616397
vt 0.807159 0.684798
vt 0.763038 0.660813
vt 0.763038 0.660813
vt 0.718994 0.684814
vt 0.718994 0.66446
vt 0.763038 0.660813
vt 0.718994 0.66446
vt 0.744405 0.650601
vt 0.718994 0.616397
vt 0.763038 0.660813
vt 0.744405 0.650601
vt 0.744405 0.650601
vt 0.719045 0.636764
vt 0.718994 0.616397
vn 0.621244 -0.337721 -0.707107
vn -0.000615 0.707107 -0.707107
vn -0.620899 0.338355 -0.707107
vn 0.620899 0.338355 -0.707107
vn -0.00107 0.707106 -0.707107
vn -0.621244 -0.337721 -0.707107
vn 0 -0.707107 -0.707107
vn 0.62078 -0.338574 -0.707107
vn -0.620722 -0.338681 -0.707107
vn -0.001769 -0.707105 -0.707107
vn 0.62096 0.338244 -0.707107
vn 0.878572 -0.47761 0
vn -0.000869 1 0
vn -0.878084 0.478506 0
vn 0.878084 0.478506 0
vn -0.001513 0.999999 0
vn -0.878572 -0.47761 0
vn 0 -1 0
vn 0.877915 -0.478816 0
vn -0.877833 -0.478967 0
vn -0.002501 -0.999997 0
vn 0.87817 0.478349 0
vn 0.621244 -0.337721 0.707107
vn -0.000615 0.707107 0.707107
vn -0.620899 0.338355 0.707107
vn 0.620899 0.338355 0.707107
vn -0.00107 0.707106 0.707107
vn -0.621244 -0.337721 0.707107
vn 0 -0.707107 0.707107
vn 0.62078 -0.338574 0.707107
vn -0.620722 -0.338681 0.707107
vn -0.001769 -0.707105 0.707107
vn 0.62096 0.338244 0.707107
vn 0 0 -1
vn 0 0 1
f 49/109/15 50/110/15 62/111/15 61/112/15
f 50/113/16 51/114/16 63/115/16 62/116/16
f 51/117/17 52/118/17 64/119/17 63/120/17
f 52/121/18 53/122/18 65/123/18 64/124/18
f 53/125/19 54/126/19 66/127/19 65/128/19
f 54/129/20 55/130/20 67/131/20 66/132/20
f 55/133/17 56/134/17 68/135/17 67/136/17
f 56/137/21 57/138/21 69/139/21 68/140/21
f 57/141/22 58/142/22 70/143/22 69/144/22
f 58/145/23 59/146/23 71/147/23 70/148/23
f 59/149/24 60/150/24 72/151/24 71/152/24
f 60/153/25 49/154/25 61/155/25 72/156/25
f 61/157/26 62/158/26 74/159/26 73/160/26
f 62/161/27 63/162/27 75/163/27 74/164/27
f 63/165/28 64/166/28 76/167/28 75/168/28
f 64/169/29 65/170/29 77/171/29 76/172/29
f 65/173/30 66/174/30 78/175/30 77/176/30
f 66/177/31 67/178/31 79/179/31 78/180/31
f 67/181/28 68/182/28 80/183/28 79/184/28
f 68/185/32 69/186/32 81/187/32 80/188/32
f 69/189/33 70/190/33 82/191/33 81/192/33
f 70/193/34 71/194/34 83/195/34 82/196/34
f 71/197/35 72/198/35 84/199/35 83/200/35
f 72/201/36 61/202/36 73/203/36 84/204/36
f 73/205/37 74/206/37 86/207/37 85/208/37
f 74/209/38 75/210/38 87/211/38 86/212/38
f 75/213/39 76/214/39 88/215/39 87/216/39
f 76/217/40 77/218/40 89/219/40 88/220/40
f 77/221/41 78/222/41 90/223/41 89/224/41
f 78/225/42 79/226/42 91/227/42 90/228/42
f 79/229/39 80/230/39 92/231/39 91/232/39
f 80/233/43 81/234/43 93/235/43 92/236/43
f 81/237/44 82/238/44 94/239/44 93/240/44
f 82/241/45 83/242/45 95/243/45 94/244/45
f 83/245/46 84/246/46 96/247/46 95/248/46
f 84/249/47 73/250/47 85/251/47 96/252/47
f 99/253/48 98/254/48 97/255/48
f 100/256/48 99/257/48 97/258/48
f 100/259/48 97/260/48 108/261/48
f 101/262/48 100/263/48 108/264/48
f 102/265/48 101/266/48 108/267/48
f 103/268/48 102/269/48 108/270/48
f 105/271/48 104/272/48 103/273/48
f 106/274/48 105/275/48 103/276/48
f 106/277/48 103/278/48 108/279/48
f 108/280/48 107/281/48 106/282/48
f 109/283/49 110/284/49 111/285/49
f 109/286/49 111/287/49 112/288/49
f 120/289/49 109/290/49 112/291/49
f 120/292/49 112/293/49 113/294/49
f 120/295/49 113/296/49 114/297/49
f 120/298/49 114/299/49 115/300/49
f 115/301/49 116/302/49 117/303/49
f 115/304/49 117/305/49 118/306/49
f 120/307/49 115/308/49 118/309/49
f 118/310/49 119/311/49 120/312/49
