# AFL PRAIRIE signage V1 channel letter Y (off), generated by tools/build-prairie-signage-v1.mjs
mtllib y_off.mtl
o Y_body
usemtl letters_nz
v 0.574997 0.124994 0.8786
v 0.575363 0.422761 0.8786
v 0.801352 0.875 0.8786
v 0.633669 0.875 0.8786
v 0.5 0.607705 0.8786
v 0.366339 0.875 0.8786
v 0.198651 0.875 0.8786
v 0.425 0.421544 0.8786
v 0.425 0.125544 0.8786
v 0.574997 0.124994 0.9996
v 0.575363 0.422761 0.9996
v 0.801352 0.875 0.9996
v 0.633669 0.875 0.9996
v 0.5 0.607705 0.9996
v 0.366339 0.875 0.9996
v 0.198651 0.875 0.9996
v 0.425 0.421544 0.9996
v 0.425 0.125544 0.9996
v 0.574997 0.124994 0.8786
v 0.575363 0.422761 0.8786
v 0.801352 0.875 0.8786
v 0.633669 0.875 0.8786
v 0.5 0.607705 0.8786
v 0.366339 0.875 0.8786
v 0.198651 0.875 0.8786
v 0.425 0.421544 0.8786
v 0.425 0.125544 0.8786
v 0.574997 0.124994 0.9996
v 0.575363 0.422761 0.9996
v 0.801352 0.875 0.9996
v 0.633669 0.875 0.9996
v 0.5 0.607705 0.9996
v 0.366339 0.875 0.9996
v 0.198651 0.875 0.9996
v 0.425 0.421544 0.9996
v 0.425 0.125544 0.9996
vt 0.551514 0.364971
vt 0.586408 0.364971
vt 0.586408 0.37915
vt 0.551514 0.37915
vt 0.312744 0.381084
vt 0.371989 0.381084
vt 0.371989 0.395264
vt 0.312744 0.395264
vt 0.688232 0.348857
vt 0.707883 0.348857
vt 0.707883 0.363037
vt 0.688232 0.363037
vt 0.44165 0.364971
vt 0.476672 0.364971
vt 0.476672 0.37915
vt 0.44165 0.37915
vt 0.478271 0.364971
vt 0.513293 0.364971
vt 0.513293 0.37915
vt 0.478271 0.37915
vt 0.666748 0.348857
vt 0.686399 0.348857
vt 0.686399 0.363037
vt 0.666748 0.363037
vt 0.251709 0.381084
vt 0.311101 0.381084
vt 0.311101 0.395264
vt 0.251709 0.395264
vt 0.588135 0.364971
vt 0.622822 0.364971
vt 0.622822 0.37915
vt 0.588135 0.37915
vt 0.906494 0.348857
vt 0.924072 0.348857
vt 0.924072 0.363037
vt 0.906494 0.363037
vt 0.036115 0.730597
vt 0.001221 0.730554
vt 0.001285 0.712976
vt 0.089112 0.75708
vt 0.036115 0.730597
vt 0.001285 0.712976
vt 0.089112 0.73743
vt 0.089112 0.75708
vt 0.001285 0.712976
vt 0.057788 0.721765
vt 0.089112 0.73743
vt 0.001285 0.712976
vt 0.089112 0.686451
vt 0.089112 0.706102
vt 0.057788 0.721765
vt 0.035973 0.712976
vt 0.089112 0.686451
vt 0.057788 0.721765
vt 0.001285 0.712976
vt 0.035973 0.712976
vt 0.057788 0.721765
vt 0.091129 0.730555
vt 0.091064 0.712977
vt 0.125959 0.712934
vt 0.091129 0.730555
vt 0.125959 0.712934
vt 0.178956 0.686451
vt 0.091129 0.730555
vt 0.178956 0.686451
vt 0.178956 0.706101
vt 0.091129 0.730555
vt 0.178956 0.706101
vt 0.147632 0.721766
vt 0.147632 0.721766
vt 0.178956 0.737429
vt 0.178956 0.75708
vt 0.147632 0.721766
vt 0.178956 0.75708
vt 0.125816 0.730555
vt 0.147632 0.721766
vt 0.125816 0.730555
vt 0.091129 0.730555
vn 0.999999 -0.001231 0
vn 0.957349 -0.288932 0
vn 0.89453 -0.447007 0
vn 0 1 0
vn -0.894397 0.447273 0
vn 0.894409 0.447249 0
vn -0.894727 -0.446614 0
vn -0.957293 -0.289119 0
vn -1 0 0
vn -0.003664 -0.999993 0
vn 0 0 -1
vn 0 0 1
f 1/1/1 2/2/2 11/3/2 10/4/1
f 2/5/2 3/6/3 12/7/3 11/8/2
f 3/9/4 4/10/4 13/11/4 12/12/4
f 4/13/5 5/14/5 14/15/5 13/16/5
f 5/17/6 6/18/6 15/19/6 14/20/6
f 6/21/4 7/22/4 16/23/4 15/24/4
f 7/25/7 8/26/8 17/27/8 16/28/7
f 8/29/8 9/30/9 18/31/9 17/32/8
f 9/33/10 1/34/10 10/35/10 18/36/10
f 20/37/11 19/38/11 27/39/11
f 21/40/11 20/41/11 27/42/11
f 22/43/11 21/44/11 27/45/11
f 23/46/11 22/47/11 27/48/11
f 25/49/11 24/50/11 23/51/11
f 26/52/11 25/53/11 23/54/11
f 27/55/11 26/56/11 23/57/11
f 36/58/12 28/59/12 29/60/12
f 36/61/12 29/62/12 30/63/12
f 36/64/12 30/65/12 31/66/12
f 36/67/12 31/68/12 32/69/12
f 32/70/12 33/71/12 34/72/12
f 32/73/12 34/74/12 35/75/12
f 32/76/12 35/77/12 36/78/12
o Y_face_off
usemtl letters_nz
v 0.5763 0.123732 0.8726
v 0.576309 0.421827 0.8726
v 0.803456 0.8763 0.8726
v 0.632844 0.8763 0.8726
v 0.500004 0.610619 0.8726
v 0.366623 0.876281 0.8726
v 0.196549 0.87629 0.8726
v 0.423678 0.421828 0.8726
v 0.424205 0.1237 0.8726
v 0.5775 0.122532 0.8738
v 0.577509 0.421544 0.8738
v 0.805397 0.8775 0.8738
v 0.632102 0.8775 0.8738
v 0.500001 0.613298 0.8738
v 0.367363 0.877481 0.8738
v 0.194608 0.877491 0.8738
v 0.422479 0.421544 0.8738
v 0.423007 0.1225 0.8738
v 0.5775 0.122532 0.8784
v 0.577509 0.421544 0.8784
v 0.805397 0.8775 0.8784
v 0.632102 0.8775 0.8784
v 0.500001 0.613298 0.8784
v 0.367363 0.877481 0.8784
v 0.194608 0.877491 0.8784
v 0.422479 0.421544 0.8784
v 0.423007 0.1225 0.8784
v 0.5763 0.123732 0.8796
v 0.576309 0.421827 0.8796
v 0.803456 0.8763 0.8796
v 0.632844 0.8763 0.8796
v 0.500004 0.610619 0.8796
v 0.366623 0.876281 0.8796
v 0.196549 0.87629 0.8796
v 0.423678 0.421828 0.8796
v 0.424205 0.1237 0.8796
v 0.5763 0.123732 0.8726
v 0.576309 0.421827 0.8726
v 0.803456 0.8763 0.8726
v 0.632844 0.8763 0.8726
v 0.500004 0.610619 0.8726
v 0.366623 0.876281 0.8726
v 0.196549 0.87629 0.8726
v 0.423678 0.421828 0.8726
v 0.424205 0.1237 0.8726
v 0.5763 0.123732 0.8796
v 0.576309 0.421827 0.8796
v 0.803456 0.8763 0.8796
v 0.632844 0.8763 0.8796
v 0.500004 0.610619 0.8796
v 0.366623 0.876281 0.8796
v 0.196549 0.87629 0.8796
v 0.423678 0.421828 0.8796
v 0.424205 0.1237 0.8796
vt 0.357318 0.231002
vt 0.392251 0.231002
vt 0.392218 0.231201
vt 0.357178 0.231201
vt 0.701904 0.246627
vt 0.761444 0.246627
vt 0.761672 0.246826
vt 0.701937 0.246826
vt 0.241683 0.242721
vt 0.261676 0.242721
vt 0.261763 0.24292
vt 0.241455 0.24292
vt 0.21664 0.244674
vt 0.251449 0.244674
vt 0.251168 0.244873
vt 0.216553 0.244873
vt 0.627686 0.244674
vt 0.662521 0.244674
vt 0.662608 0.244873
vt 0.627966 0.244873
vt 0.023768 0.234909
vt 0.043699 0.234909
vt 0.043926 0.235107
vt 0.023682 0.235107
vt 0.915511 0.252487
vt 0.975049 0.252487
vt 0.975016 0.252686
vt 0.915283 0.252686
vt 0.366455 0.236862
vt 0.401392 0.236862
vt 0.401532 0.237061
vt 0.366488 0.237061
vt 0.691303 0.231002
vt 0.709126 0.231002
vt 0.709267 0.231201
vt 0.691162 0.231201
vt 0.633057 0.266795
vt 0.668097 0.266795
vt 0.668097 0.267334
vt 0.633057 0.267334
vt 0.316162 0.271678
vt 0.375897 0.271678
vt 0.375897 0.272217
vt 0.316162 0.272217
vt 0.803955 0.261912
vt 0.824263 0.261912
vt 0.824263 0.262451
vt 0.803955 0.262451
vt 0.85083 0.266795
vt 0.885446 0.266795
vt 0.885446 0.267334
vt 0.85083 0.267334
vt 0.778564 0.266795
vt 0.813206 0.266795
vt 0.813206 0.267334
vt 0.778564 0.267334
vt 0.8479 0.261912
vt 0.868145 0.261912
vt 0.868145 0.262451
vt 0.8479 0.262451
vt 0.439209 0.271678
vt 0.498942 0.271678
vt 0.498942 0.272217
vt 0.439209 0.272217
vt 0.559814 0.266795
vt 0.594859 0.266795
vt 0.594859 0.267334
vt 0.559814 0.267334
vt 0.38208 0.259471
vt 0.400185 0.259471
vt 0.400185 0.26001
vt 0.38208 0.26001
vt 0.439697 0.236862
vt 0.474738 0.236862
vt 0.474771 0.237061
vt 0.439838 0.237061
vt 0.032016 0.244674
vt 0.09175 0.244674
vt 0.091523 0.244873
vt 0.031982 0.244873
vt 0.263428 0.242721
vt 0.283736 0.242721
vt 0.283649 0.24292
vt 0.263655 0.24292
vt 0.824951 0.246627
vt 0.859567 0.246627
vt 0.859847 0.246826
vt 0.825038 0.246826
vt 0.554724 0.244674
vt 0.589366 0.244674
vt 0.589279 0.244873
vt 0.554443 0.244873
vt 0.95874 0.231002
vt 0.978985 0.231002
vt 0.978758 0.231201
vt 0.958827 0.231201
vt 0.167236 0.250534
vt 0.226969 0.250534
vt 0.227002 0.250732
vt 0.167464 0.250732
vt 0.283969 0.231002
vt 0.319013 0.231002
vt 0.318872 0.231201
vt 0.283936 0.231201
vt 0.389893 0.234909
vt 0.407997 0.234909
vt 0.407857 0.235107
vt 0.390033 0.235107
vt 0.305689 0.805168
vt 0.270756 0.805167
vt 0.270752 0.787344
vt 0.358947 0.831787
vt 0.305689 0.805168
vt 0.270752 0.787344
vt 0.358947 0.811794
vt 0.358947 0.831787
vt 0.270752 0.787344
vt 0.327813 0.796226
vt 0.358947 0.811794
vt 0.270752 0.787344
vt 0.358946 0.760665
vt 0.358945 0.780596
vt 0.327813 0.796226
vt 0.305689 0.787282
vt 0.358946 0.760665
vt 0.327813 0.796226
vt 0.270752 0.787344
vt 0.305689 0.787282
vt 0.327813 0.796226
vt 0.360596 0.805109
vt 0.360599 0.787285
vt 0.395532 0.787284
vt 0.360596 0.805109
vt 0.395532 0.787284
vt 0.448791 0.760665
vt 0.360596 0.805109
vt 0.448791 0.760665
vt 0.448791 0.780659
vt 0.360596 0.805109
vt 0.448791 0.780659
vt 0.417657 0.796226
vt 0.417657 0.796226
vt 0.448789 0.811857
vt 0.44879 0.831787
vt 0.417657 0.796226
vt 0.44879 0.831787
vt 0.395533 0.80517
vt 0.417657 0.796226
vt 0.395533 0.80517
vt 0.360596 0.805109
vn 0.707107 -0.000022 -0.707107
vn 0.668355 -0.201745 -0.715962
vn 0.632505 -0.316128 -0.707107
vn 0 0.707107 -0.707107
vn -0.632456 0.316228 -0.707107
vn 0.631932 0.317273 -0.707107
vn 0.000038 0.707107 -0.707107
vn -0.632512 -0.316114 -0.707107
vn -0.668299 -0.202166 -0.715895
vn -0.707106 -0.001249 -0.707107
vn 0.000149 -0.707107 -0.707107
vn 1 -0.000031 0
vn 0.957334 -0.288984 0
vn 0.894498 -0.447072 0
vn 0 1 0
vn -0.894427 0.447214 0
vn 0.893687 0.448691 0
vn 0.000054 1 0
vn -0.894507 -0.447053 0
vn -0.95716 -0.28956 0
vn -0.999998 -0.001767 0
vn 0.000211 -1 0
vn 0.707107 -0.000022 0.707107
vn 0.668355 -0.201745 0.715962
vn 0.632505 -0.316128 0.707107
vn 0 0.707107 0.707107
vn -0.632456 0.316228 0.707107
vn 0.631932 0.317273 0.707107
vn 0.000038 0.707107 0.707107
vn -0.632512 -0.316114 0.707107
vn -0.668299 -0.202166 0.715895
vn -0.707106 -0.001249 0.707107
vn 0.000149 -0.707107 0.707107
vn 0 0 -1
vn 0 0 1
f 37/79/13 38/80/14 47/81/14 46/82/13
f 38/83/14 39/84/15 48/85/15 47/86/14
f 39/87/16 40/88/16 49/89/16 48/90/16
f 40/91/17 41/92/17 50/93/17 49/94/17
f 41/95/18 42/96/18 51/97/18 50/98/18
f 42/99/19 43/100/19 52/101/19 51/102/19
f 43/103/20 44/104/21 53/105/21 52/106/20
f 44/107/21 45/108/22 54/109/22 53/110/21
f 45/111/23 37/112/23 46/113/23 54/114/23
f 46/115/24 47/116/25 56/117/25 55/118/24
f 47/119/25 48/120/26 57/121/26 56/122/25
f 48/123/27 49/124/27 58/125/27 57/126/27
f 49/127/28 50/128/28 59/129/28 58/130/28
f 50/131/29 51/132/29 60/133/29 59/134/29
f 51/135/30 52/136/30 61/137/30 60/138/30
f 52/139/31 53/140/32 62/141/32 61/142/31
f 53/143/32 54/144/33 63/145/33 62/146/32
f 54/147/34 46/148/34 55/149/34 63/150/34
f 55/151/35 56/152/36 65/153/36 64/154/35
f 56/155/36 57/156/37 66/157/37 65/158/36
f 57/159/38 58/160/38 67/161/38 66/162/38
f 58/163/39 59/164/39 68/165/39 67/166/39
f 59/167/40 60/168/40 69/169/40 68/170/40
f 60/171/41 61/172/41 70/173/41 69/174/41
f 61/175/42 62/176/43 71/177/43 70/178/42
f 62/179/43 63/180/44 72/181/44 71/182/43
f 63/183/45 55/184/45 64/185/45 72/186/45
f 74/187/46 73/188/46 81/189/46
f 75/190/46 74/191/46 81/192/46
f 76/193/46 75/194/46 81/195/46
f 77/196/46 76/197/46 81/198/46
f 79/199/46 78/200/46 77/201/46
f 80/202/46 79/203/46 77/204/46
f 81/205/46 80/206/46 77/207/46
f 90/208/47 82/209/47 83/210/47
f 90/211/47 83/212/47 84/213/47
f 90/214/47 84/215/47 85/216/47
f 90/217/47 85/218/47 86/219/47
f 86/220/47 87/221/47 88/222/47
f 86/223/47 88/224/47 89/225/47
f 86/226/47 89/227/47 90/228/47
