# AFL PRAIRIE signage V1 channel letter Z (off), generated by tools/build-prairie-signage-v1.mjs
mtllib z_off.mtl
o Z_body
usemtl letters_nz
v 0.78 0.124999 0.8786
v 0.78 0.275 0.8786
v 0.750205 0.275 0.8786
v 0.442433 0.725 0.8786
v 0.78 0.725 0.8786
v 0.78 0.874622 0.8786
v 0.219996 0.874974 0.8786
v 0.220442 0.725544 0.8786
v 0.249863 0.724901 0.8786
v 0.556968 0.275544 0.8786
v 0.219996 0.274971 0.8786
v 0.220442 0.125544 0.8786
v 0.78 0.124999 0.9996
v 0.78 0.275 0.9996
v 0.750205 0.275 0.9996
v 0.442433 0.725 0.9996
v 0.78 0.725 0.9996
v 0.78 0.874622 0.9996
v 0.219996 0.874974 0.9996
v 0.220442 0.725544 0.9996
v 0.249863 0.724901 0.9996
v 0.556968 0.275544 0.9996
v 0.219996 0.274971 0.9996
v 0.220442 0.125544 0.9996
v 0.78 0.124999 0.8786
v 0.78 0.275 0.8786
v 0.750205 0.275 0.8786
v 0.442433 0.725 0.8786
v 0.78 0.725 0.8786
v 0.78 0.874622 0.8786
v 0.219996 0.874974 0.8786
v 0.220442 0.725544 0.8786
v 0.249863 0.724901 0.8786
v 0.556968 0.275544 0.8786
v 0.219996 0.274971 0.8786
v 0.220442 0.125544 0.8786
v 0.78 0.124999 0.9996
v 0.78 0.275 0.9996
v 0.750205 0.275 0.9996
v 0.442433 0.725 0.9996
v 0.78 0.725 0.9996
v 0.78 0.874622 0.9996
v 0.219996 0.874974 0.9996
v 0.220442 0.725544 0.9996
v 0.249863 0.724901 0.9996
v 0.556968 0.275544 0.9996
v 0.219996 0.274971 0.9996
v 0.220442 0.125544 0.9996
vt 0.828369 0.348857
vt 0.845947 0.348857
vt 0.845947 0.363037
vt 0.828369 0.363037
vt 0.209229 0.303467
vt 0.209229 0.299975
vt 0.223408 0.299975
vt 0.223408 0.303467
vt 0.760986 0.397197
vt 0.824875 0.397197
vt 0.824875 0.411377
vt 0.760986 0.411377
vt 0.127686 0.364971
vt 0.167244 0.364971
vt 0.167244 0.37915
vt 0.127686 0.37915
vt 0.925537 0.348857
vt 0.943071 0.348857
vt 0.943071 0.363037
vt 0.925537 0.363037
vt 0.428955 0.397197
vt 0.494581 0.397197
vt 0.494581 0.411377
vt 0.428955 0.411377
vt 0.020264 0.332744
vt 0.037775 0.332744
vt 0.037775 0.346924
vt 0.020264 0.346924
vt 0.225342 0.303467
vt 0.225342 0.300018
vt 0.239521 0.300018
vt 0.239521 0.303467
vt 0.826416 0.397197
vt 0.890198 0.397197
vt 0.890198 0.411377
vt 0.826416 0.411377
vt 0.169189 0.364971
vt 0.208678 0.364971
vt 0.208678 0.37915
vt 0.169189 0.37915
vt 0.05835 0.332744
vt 0.075861 0.332744
vt 0.075861 0.346924
vt 0.05835 0.346924
vt 0.496338 0.397197
vt 0.561911 0.397197
vt 0.561911 0.411377
vt 0.496338 0.411377
vt 0.28833 0.544189
vt 0.270752 0.544189
vt 0.270816 0.478616
vt 0.28833 0.540698
vt 0.28833 0.544189
vt 0.270816 0.478616
vt 0.358598 0.544189
vt 0.341065 0.544189
vt 0.341065 0.504631
vt 0.35864 0.478564
vt 0.358598 0.544189
vt 0.341065 0.504631
vt 0.35864 0.478564
vt 0.341065 0.504631
vt 0.28833 0.540698
vt 0.341053 0.482064
vt 0.341128 0.478616
vt 0.35864 0.478564
vt 0.341053 0.482064
vt 0.35864 0.478564
vt 0.28833 0.540698
vt 0.288394 0.518053
vt 0.341053 0.482064
vt 0.28833 0.540698
vt 0.288394 0.518053
vt 0.28833 0.540698
vt 0.270816 0.478616
vt 0.270816 0.478616
vt 0.288327 0.478564
vt 0.288394 0.518053
vt 0.360171 0.544137
vt 0.360107 0.478564
vt 0.377686 0.478564
vt 0.360171 0.544137
vt 0.377686 0.478564
vt 0.377686 0.482056
vt 0.43042 0.518123
vt 0.43042 0.478564
vt 0.447954 0.478564
vt 0.43042 0.518123
vt 0.447954 0.478564
vt 0.447995 0.544189
vt 0.377686 0.482056
vt 0.43042 0.518123
vt 0.447995 0.544189
vt 0.447995 0.544189
vt 0.430484 0.544137
vt 0.430408 0.540689
vt 0.377686 0.482056
vt 0.447995 0.544189
vt 0.430408 0.540689
vt 0.377686 0.482056
vt 0.430408 0.540689
vt 0.377749 0.504701
vt 0.360171 0.544137
vt 0.377686 0.482056
vt 0.377749 0.504701
vt 0.377749 0.504701
vt 0.377682 0.544189
vt 0.360171 0.544137
vn 1 0 0
vn 0 1 0
vn 0.825412 0.564531 0
vn 0 -1 0
vn 0.000629 1 0
vn -0.999996 -0.002988 0
vn -0.021824 -0.999762 0
vn -0.825607 -0.564245 0
vn -0.001699 0.999999 0
vn -0.000973 -1 0
vn 0 0 -1
vn 0 0 1
f 1/1/1 2/2/1 14/3/1 13/4/1
f 2/5/2 3/6/2 15/7/2 14/8/2
f 3/9/3 4/10/3 16/11/3 15/12/3
f 4/13/4 5/14/4 17/15/4 16/16/4
f 5/17/1 6/18/1 18/19/1 17/20/1
f 6/21/5 7/22/5 19/23/5 18/24/5
f 7/25/6 8/26/6 20/27/6 19/28/6
f 8/29/7 9/30/7 21/31/7 20/32/7
f 9/33/8 10/34/8 22/35/8 21/36/8
f 10/37/9 11/38/9 23/39/9 22/40/9
f 11/41/6 12/42/6 24/43/6 23/44/6
f 12/45/10 1/46/10 13/47/10 24/48/10
f 26/49/11 25/50/11 36/51/11
f 27/52/11 26/53/11 36/54/11
f 30/55/11 29/56/11 28/57/11
f 31/58/11 30/59/11 28/60/11
f 31/61/11 28/62/11 27/63/11
f 33/64/11 32/65/11 31/66/11
f 33/67/11 31/68/11 27/69/11
f 34/70/11 33/71/11 27/72/11
f 34/73/11 27/74/11 36/75/11
f 36/76/11 35/77/11 34/78/11
f 48/79/12 37/80/12 38/81/12
f 48/82/12 38/83/12 39/84/12
f 40/85/12 41/86/12 42/87/12
f 40/88/12 42/89/12 43/90/12
f 39/91/12 40/92/12 43/93/12
f 43/94/12 44/95/12 45/96/12
f 39/97/12 43/98/12 45/99/12
f 39/100/12 45/101/12 46/102/12
f 48/103/12 39/104/12 46/105/12
f 46/106/12 47/107/12 48/108/12
o Z_face_off
usemtl letters_nz
v 0.781301 0.124157 0.8726
v 0.781228 0.276284 0.8726
v 0.750727 0.27654 0.8726
v 0.445005 0.723694 0.8726
v 0.7813 0.724156 0.8726
v 0.7813 0.875799 0.8726
v 0.21869 0.876207 0.8726
v 0.219283 0.7237 0.8726
v 0.249109 0.7237 0.8726
v 0.555078 0.276345 0.8726
v 0.21869 0.276207 0.8726
v 0.219283 0.123698 0.8726
v 0.782501 0.122958 0.8738
v 0.782427 0.277474 0.8738
v 0.751363 0.277735 0.8738
v 0.447277 0.722497 0.8738
v 0.7825 0.722958 0.8738
v 0.7825 0.876998 0.8738
v 0.217485 0.877408 0.8738
v 0.218087 0.7225 0.8738
v 0.248476 0.7225 0.8738
v 0.552804 0.277544 0.8738
v 0.217485 0.277406 0.8738
v 0.218087 0.122497 0.8738
v 0.782501 0.122958 0.8784
v 0.782427 0.277474 0.8784
v 0.751363 0.277735 0.8784
v 0.447277 0.722497 0.8784
v 0.7825 0.722958 0.8784
v 0.7825 0.876998 0.8784
v 0.217485 0.877408 0.8784
v 0.218087 0.7225 0.8784
v 0.248476 0.7225 0.8784
v 0.552804 0.277544 0.8784
v 0.217485 0.277406 0.8784
v 0.218087 0.122497 0.8784
v 0.781301 0.124157 0.8796
v 0.781228 0.276284 0.8796
v 0.750727 0.27654 0.8796
v 0.445005 0.723694 0.8796
v 0.7813 0.724156 0.8796
v 0.7813 0.875799 0.8796
v 0.21869 0.876207 0.8796
v 0.219283 0.7237 0.8796
v 0.249109 0.7237 0.8796
v 0.555078 0.276345 0.8796
v 0.21869 0.276207 0.8796
v 0.219283 0.123698 0.8796
v 0.781301 0.124157 0.8726
v 0.781228 0.276284 0.8726
v 0.750727 0.27654 0.8726
v 0.445005 0.723694 0.8726
v 0.7813 0.724156 0.8726
v 0.7813 0.875799 0.8726
v 0.21869 0.876207 0.8726
v 0.219283 0.7237 0.8726
v 0.249109 0.7237 0.8726
v 0.555078 0.276345 0.8726
v 0.21869 0.276207 0.8726
v 0.219283 0.123698 0.8726
v 0.781301 0.124157 0.8796
v 0.781228 0.276284 0.8796
v 0.750727 0.27654 0.8796
v 0.445005 0.723694 0.8796
v 0.7813 0.724156 0.8796
v 0.7813 0.875799 0.8796
v 0.21869 0.876207 0.8796
v 0.219283 0.7237 0.8796
v 0.249109 0.7237 0.8796
v 0.555078 0.276345 0.8796
v 0.21869 0.276207 0.8796
v 0.219283 0.123698 0.8796
vt 0.651264 0.231002
vt 0.669091 0.231002
vt 0.66923 0.231201
vt 0.651123 0.231201
vt 0.742571 0.234909
vt 0.746145 0.234909
vt 0.746072 0.235107
vt 0.742432 0.235107
vt 0.895752 0.250534
vt 0.95923 0.250534
vt 0.958964 0.250732
vt 0.895825 0.250732
vt 0.219971 0.240768
vt 0.25938 0.240768
vt 0.259521 0.240967
vt 0.220237 0.240967
vt 0.470111 0.234909
vt 0.487882 0.234909
vt 0.488022 0.235107
vt 0.469971 0.235107
vt 0.832904 0.244674
vt 0.898835 0.244674
vt 0.898976 0.244873
vt 0.832764 0.244873
vt 0.611225 0.231002
vt 0.629097 0.231002
vt 0.629237 0.231201
vt 0.611084 0.231201
vt 0.63222 0.240768
vt 0.635715 0.240768
vt 0.635641 0.240967
vt 0.63208 0.240967
vt 0.414307 0.252487
vt 0.47782 0.252487
vt 0.477554 0.252686
vt 0.414381 0.252686
vt 0.136963 0.240768
vt 0.176383 0.240768
vt 0.176525 0.240967
vt 0.137229 0.240967
vt 0.571186 0.231002
vt 0.589058 0.231002
vt 0.589198 0.231201
vt 0.571045 0.231201
vt 0.073627 0.236862
vt 0.139488 0.236862
vt 0.139629 0.237061
vt 0.073486 0.237061
vt 0.302002 0.259471
vt 0.320109 0.259471
vt 0.320109 0.26001
vt 0.302002 0.26001
vt 0.269287 0.254588
vt 0.272928 0.254588
vt 0.272928 0.255127
vt 0.269287 0.255127
vt 0.792236 0.274119
vt 0.855374 0.274119
vt 0.855374 0.274658
vt 0.792236 0.274658
vt 0.251221 0.266795
vt 0.290505 0.266795
vt 0.290505 0.267334
vt 0.251221 0.267334
vt 0.581299 0.259471
vt 0.59935 0.259471
vt 0.59935 0.26001
vt 0.581299 0.26001
vt 0.001221 0.274119
vt 0.067433 0.274119
vt 0.067433 0.274658
vt 0.001221 0.274658
vt 0.141846 0.259471
vt 0.159999 0.259471
vt 0.159999 0.26001
vt 0.141846 0.26001
vt 0.280029 0.254588
vt 0.28359 0.254588
vt 0.28359 0.255127
vt 0.280029 0.255127
vt 0.662354 0.274119
vt 0.725526 0.274119
vt 0.725526 0.274658
vt 0.662354 0.274658
vt 0.169189 0.266795
vt 0.208485 0.266795
vt 0.208485 0.267334
vt 0.169189 0.267334
vt 0.101807 0.259471
vt 0.11996 0.259471
vt 0.11996 0.26001
vt 0.101807 0.26001
vt 0.136963 0.274119
vt 0.203105 0.274119
vt 0.203105 0.274658
vt 0.136963 0.274658
vt 0.929932 0.234909
vt 0.948039 0.234909
vt 0.9479 0.235107
vt 0.930072 0.235107
vt 0.061279 0.232955
vt 0.06492 0.232955
vt 0.064993 0.233154
vt 0.061419 0.233154
vt 0.290357 0.250534
vt 0.353495 0.250534
vt 0.353761 0.250732
vt 0.290283 0.250732
vt 0.001487 0.242721
vt 0.040771 0.242721
vt 0.04063 0.24292
vt 0.001221 0.24292
vt 0.851318 0.231002
vt 0.86937 0.231002
vt 0.869229 0.231201
vt 0.851459 0.231201
vt 0.8479 0.242721
vt 0.914113 0.242721
vt 0.913972 0.24292
vt 0.848041 0.24292
vt 0.889893 0.234909
vt 0.908046 0.234909
vt 0.907906 0.235107
vt 0.890034 0.235107
vt 0.074951 0.229049
vt 0.078512 0.229049
vt 0.078587 0.229248
vt 0.075091 0.229248
vt 0.459303 0.24858
vt 0.522475 0.24858
vt 0.522742 0.248779
vt 0.459229 0.248779
vt 0.209495 0.236862
vt 0.24879 0.236862
vt 0.248649 0.237061
vt 0.209229 0.237061
vt 0.189697 0.234909
vt 0.207851 0.234909
vt 0.207711 0.235107
vt 0.189838 0.235107
vt 0.001221 0.240768
vt 0.067363 0.240768
vt 0.067222 0.240967
vt 0.001361 0.240967
vt 0.919493 0.61254
vt 0.901665 0.612549
vt 0.901611 0.546687
vt 0.919522 0.608966
vt 0.919493 0.61254
vt 0.901611 0.546687
vt 0.989748 0.612549
vt 0.971978 0.612549
vt 0.971923 0.573139
vt 0.989796 0.546618
vt 0.989748 0.612549
vt 0.971923 0.573139
vt 0.989796 0.546618
vt 0.971923 0.573139
vt 0.919522 0.608966
vt 0.971924 0.550183
vt 0.971924 0.546687
vt 0.989796 0.546618
vt 0.971924 0.550183
vt 0.989796 0.546618
vt 0.919522 0.608966
vt 0.9195 0.586038
vt 0.971924 0.550183
vt 0.919522 0.608966
vt 0.9195 0.586038
vt 0.919522 0.608966
vt 0.901611 0.546687
vt 0.901611 0.546687
vt 0.919483 0.546618
vt 0.9195 0.586038
vt 0.001221 0.54412
vt 0.001274 0.478258
vt 0.019102 0.478267
vt 0.001221 0.54412
vt 0.019102 0.478267
vt 0.019132 0.481841
vt 0.071533 0.517668
vt 0.071587 0.478259
vt 0.089358 0.478259
vt 0.071533 0.517668
vt 0.089358 0.478259
vt 0.089405 0.544189
vt 0.019132 0.481841
vt 0.071533 0.517668
vt 0.089405 0.544189
vt 0.089405 0.544189
vt 0.071533 0.54412
vt 0.071533 0.540625
vt 0.019132 0.481841
vt 0.089405 0.544189
vt 0.071533 0.540625
vt 0.019132 0.481841
vt 0.071533 0.540625
vt 0.019109 0.504769
vt 0.001221 0.54412
vt 0.019132 0.481841
vt 0.019109 0.504769
vt 0.019109 0.504769
vt 0.019093 0.544189
vt 0.001221 0.54412
vn 0.707107 0.00034 -0.707107
vn 0.005927 0.707082 -0.707107
vn 0.583718 0.399091 -0.707107
vn 0.000972 -0.707106 -0.707107
vn 0.707107 0 -0.707107
vn 0.000513 0.707107 -0.707107
vn -0.707101 -0.00275 -0.707107
vn 0 -0.707107 -0.707107
vn -0.583651 -0.399188 -0.707107
vn -0.000291 0.707107 -0.707107
vn 0.000577 -0.707107 -0.707107
vn 1 0.00048 0
vn 0.008381 0.999965 0
vn 0.825501 0.5644 0
vn 0.001375 -0.999999 0
vn 1 0 0
vn 0.000725 1 0
vn -0.999992 -0.003889 0
vn 0 -1 0
vn -0.825407 -0.564538 0
vn -0.000412 1 0
vn 0.000815 -1 0
vn 0.707107 0.00034 0.707107
vn 0.005927 0.707082 0.707107
vn 0.583718 0.399091 0.707107
vn 0.000972 -0.707106 0.707107
vn 0.707107 0 0.707107
vn 0.000513 0.707107 0.707107
vn -0.707101 -0.00275 0.707107
vn 0 -0.707107 0.707107
vn -0.583651 -0.399188 0.707107
vn -0.000291 0.707107 0.707107
vn 0.000577 -0.707107 0.707107
vn 0 0 -1
vn 0 0 1
f 49/109/13 50/110/13 62/111/13 61/112/13
f 50/113/14 51/114/14 63/115/14 62/116/14
f 51/117/15 52/118/15 64/119/15 63/120/15
f 52/121/16 53/122/16 65/123/16 64/124/16
f 53/125/17 54/126/17 66/127/17 65/128/17
f 54/129/18 55/130/18 67/131/18 66/132/18
f 55/133/19 56/134/19 68/135/19 67/136/19
f 56/137/20 57/138/20 69/139/20 68/140/20
f 57/141/21 58/142/21 70/143/21 69/144/21
f 58/145/22 59/146/22 71/147/22 70/148/22
f 59/149/19 60/150/19 72/151/19 71/152/19
f 60/153/23 49/154/23 61/155/23 72/156/23
f 61/157/24 62/158/24 74/159/24 73/160/24
f 62/161/25 63/162/25 75/163/25 74/164/25
f 63/165/26 64/166/26 76/167/26 75/168/26
f 64/169/27 65/170/27 77/171/27 76/172/27
f 65/173/28 66/174/28 78/175/28 77/176/28
f 66/177/29 67/178/29 79/179/29 78/180/29
f 67/181/30 68/182/30 80/183/30 79/184/30
f 68/185/31 69/186/31 81/187/31 80/188/31
f 69/189/32 70/190/32 82/191/32 81/192/32
f 70/193/33 71/194/33 83/195/33 82/196/33
f 71/197/30 72/198/30 84/199/30 83/200/30
f 72/201/34 61/202/34 73/203/34 84/204/34
f 73/205/35 74/206/35 86/207/35 85/208/35
f 74/209/36 75/210/36 87/211/36 86/212/36
f 75/213/37 76/214/37 88/215/37 87/216/37
f 76/217/38 77/218/38 89/219/38 88/220/38
f 77/221/39 78/222/39 90/223/39 89/224/39
f 78/225/40 79/226/40 91/227/40 90/228/40
f 79/229/41 80/230/41 92/231/41 91/232/41
f 80/233/42 81/234/42 93/235/42 92/236/42
f 81/237/43 82/238/43 94/239/43 93/240/43
f 82/241/44 83/242/44 95/243/44 94/244/44
f 83/245/41 84/246/41 96/247/41 95/248/41
f 84/249/45 73/250/45 85/251/45 96/252/45
f 98/253/46 97/254/46 108/255/46
f 99/256/46 98/257/46 108/258/46
f 102/259/46 101/260/46 100/261/46
f 103/262/46 102/263/46 100/264/46
f 103/265/46 100/266/46 99/267/46
f 105/268/46 104/269/46 103/270/46
f 105/271/46 103/272/46 99/273/46
f 106/274/46 105/275/46 99/276/46
f 106/277/46 99/278/46 108/279/46
f 108/280/46 107/281/46 106/282/46
f 120/283/47 109/284/47 110/285/47
f 120/286/47 110/287/47 111/288/47
f 112/289/47 113/290/47 114/291/47
f 112/292/47 114/293/47 115/294/47
f 111/295/47 112/296/47 115/297/47
f 115/298/47 116/299/47 117/300/47
f 111/301/47 115/302/47 117/303/47
f 111/304/47 117/305/47 118/306/47
f 120/307/47 111/308/47 118/309/47
f 118/310/47 119/311/47 120/312/47
