# AFL Back Bar Shelf V1, generated by tools/build-checkout-counter-v1.mjs
mtllib lower.mtl
o back_bar_backboard
usemtl back_bar
v 0.00625 0.00625 0.95
v 0.99375 0.00625 0.95
v 0.99375 1.99375 0.95
v 0.00625 1.99375 0.95
v 0 0 0.95625
v 1 0 0.95625
v 1 2 0.95625
v 0 2 0.95625
v 0 0 0.99375
v 1 0 0.99375
v 1 2 0.99375
v 0 2 0.99375
v 0.00625 0.00625 1
v 0.99375 0.00625 1
v 0.99375 1.99375 1
v 0.00625 1.99375 1
v 0.00625 0.00625 0.95
v 0.99375 0.00625 0.95
v 0.99375 1.99375 0.95
v 0.00625 1.99375 0.95
v 0.00625 0.00625 1
v 0.99375 0.00625 1
v 0.99375 1.99375 1
v 0.00625 1.99375 1
vt 0.218604 0.054288
vt 0.426904 0.054288
vt 0.428223 0.056152
vt 0.217285 0.056152
vt 0.429541 0.064054
vt 0.848779 0.064054
vt 0.850098 0.065918
vt 0.428223 0.065918
vt 0.432471 0.054288
vt 0.640771 0.054288
vt 0.64209 0.056152
vt 0.431152 0.056152
vt 0.00376 0.059171
vt 0.422998 0.059171
vt 0.424316 0.061035
vt 0.002441 0.061035
vt 0.002441 0.147852
vt 0.213379 0.147852
vt 0.213379 0.155762
vt 0.002441 0.155762
vt 0.002441 0.15957
vt 0.424316 0.15957
vt 0.424316 0.16748
vt 0.002441 0.16748
vt 0.216309 0.147852
vt 0.427246 0.147852
vt 0.427246 0.155762
vt 0.216309 0.155762
vt 0.427246 0.15957
vt 0.849121 0.15957
vt 0.849121 0.16748
vt 0.427246 0.16748
vt 0.64502 0.054288
vt 0.855957 0.054288
vt 0.854639 0.056152
vt 0.646338 0.056152
vt 0.002441 0.064054
vt 0.424316 0.064054
vt 0.422998 0.065918
vt 0.00376 0.065918
vt 0.106934 0.074796
vt 0.317871 0.074796
vt 0.316553 0.07666
vt 0.108252 0.07666
vt 0.427246 0.059171
vt 0.849121 0.059171
vt 0.847803 0.061035
vt 0.428564 0.061035
vt 0.002441 0.997559
vt 0.002441 0.789258
vt 0.42168 0.789258
vt 0.42168 0.789258
vt 0.42168 0.997559
vt 0.002441 0.997559
vt 0.844531 0.997559
vt 0.425293 0.997559
vt 0.425293 0.789258
vt 0.425293 0.789258
vt 0.844531 0.789258
vt 0.844531 0.997559
vn 0 -0.707107 -0.707107
vn 0.707107 0 -0.707107
vn 0 0.707107 -0.707107
vn -0.707107 0 -0.707107
vn 0 -1 0
vn 1 0 0
vn 0 1 0
vn -1 0 0
vn 0 -0.707107 0.707107
vn 0.707107 0 0.707107
vn 0 0.707107 0.707107
vn -0.707107 0 0.707107
vn 0 0 -1
vn 0 0 1
f 1/1/1 2/2/1 6/3/1 5/4/1
f 2/5/2 3/6/2 7/7/2 6/8/2
f 3/9/3 4/10/3 8/11/3 7/12/3
f 4/13/4 1/14/4 5/15/4 8/16/4
f 5/17/5 6/18/5 10/19/5 9/20/5
f 6/21/6 7/22/6 11/23/6 10/24/6
f 7/25/7 8/26/7 12/27/7 11/28/7
f 8/29/8 5/30/8 9/31/8 12/32/8
f 9/33/9 10/34/9 14/35/9 13/36/9
f 10/37/10 11/38/10 15/39/10 14/40/10
f 11/41/11 12/42/11 16/43/11 15/44/11
f 12/45/12 9/46/12 13/47/12 16/48/12
f 18/49/13 17/50/13 20/51/13
f 20/52/13 19/53/13 18/54/13
f 24/55/14 21/56/14 22/57/14
f 22/58/14 23/59/14 24/60/14
o back_bar_carcass
usemtl back_bar
v 0.00625 0.075 0.48125
v 0.00625 0.075 0.94375
v 0.99375 0.075 0.94375
v 0.99375 0.075 0.48125
v 0 0.08125 0.475
v 0 0.08125 0.95
v 1 0.08125 0.95
v 1 0.08125 0.475
v 0 0.61875 0.475
v 0 0.61875 0.95
v 1 0.61875 0.95
v 1 0.61875 0.475
v 0.00625 0.625 0.48125
v 0.00625 0.625 0.94375
v 0.99375 0.625 0.94375
v 0.99375 0.625 0.48125
v 0.00625 0.075 0.48125
v 0.00625 0.075 0.94375
v 0.99375 0.075 0.94375
v 0.99375 0.075 0.48125
v 0.00625 0.625 0.48125
v 0.00625 0.625 0.94375
v 0.99375 0.625 0.94375
v 0.99375 0.625 0.48125
vt 0.217627 0.049405
vt 0.315186 0.049405
vt 0.316504 0.05127
vt 0.216309 0.05127
vt 0.401221 0.068936
vt 0.609521 0.068936
vt 0.61084 0.070801
vt 0.399902 0.070801
vt 0.418701 0.05127
vt 0.321143 0.05127
vt 0.319824 0.049405
vt 0.42002 0.049405
vt 0.823389 0.070801
vt 0.615088 0.070801
vt 0.61377 0.068936
vt 0.824707 0.068936
vt 0.971289 0.685449
vt 0.971289 0.785645
vt 0.85791 0.785645
vt 0.85791 0.685449
vt 0.002441 0.672266
vt 0.213379 0.672266
vt 0.213379 0.785645
vt 0.002441 0.785645
vt 0.002441 0.668457
vt 0.002441 0.568262
vt 0.11582 0.568262
vt 0.11582 0.668457
vt 0.216309 0.672266
vt 0.427246 0.672266
vt 0.427246 0.785645
vt 0.216309 0.785645
vt 0.211426 0.044522
vt 0.311621 0.044522
vt 0.310303 0.046387
vt 0.212744 0.046387
vt 0.213379 0.05127
vt 0.002441 0.05127
vt 0.00376 0.049405
vt 0.212061 0.049405
vt 0.523535 0.05127
vt 0.42334 0.05127
vt 0.424658 0.049405
vt 0.522217 0.049405
vt 0.002441 0.054288
vt 0.213379 0.054288
vt 0.212061 0.056152
vt 0.00376 0.056152
vt 0.564941 0.668457
vt 0.564941 0.570898
vt 0.773242 0.570898
vt 0.773242 0.570898
vt 0.773242 0.668457
vt 0.564941 0.668457
vt 0.776855 0.570898
vt 0.985156 0.570898
vt 0.985156 0.668457
vt 0.985156 0.668457
vt 0.776855 0.668457
vt 0.776855 0.570898
vn -0.707107 -0.707107 0
vn 0 -0.707107 0.707107
vn 0.707107 -0.707107 0
vn 0 -0.707107 -0.707107
vn -1 0 0
vn 0 0 1
vn 1 0 0
vn 0 0 -1
vn -0.707107 0.707107 0
vn 0 0.707107 0.707107
vn 0.707107 0.707107 0
vn 0 0.707107 -0.707107
vn 0 -1 0
vn 0 1 0
f 25/61/15 26/62/15 30/63/15 29/64/15
f 26/65/16 27/66/16 31/67/16 30/68/16
f 27/69/17 28/70/17 32/71/17 31/72/17
f 28/73/18 25/74/18 29/75/18 32/76/18
f 29/77/19 30/78/19 34/79/19 33/80/19
f 30/81/20 31/82/20 35/83/20 34/84/20
f 31/85/21 32/86/21 36/87/21 35/88/21
f 32/89/22 29/90/22 33/91/22 36/92/22
f 33/93/23 34/94/23 38/95/23 37/96/23
f 34/97/24 35/98/24 39/99/24 38/100/24
f 35/101/25 36/102/25 40/103/25 39/104/25
f 36/105/26 33/106/26 37/107/26 40/108/26
f 42/109/27 41/110/27 44/111/27
f 44/112/27 43/113/27 42/114/27
f 48/115/28 45/116/28 46/117/28
f 46/118/28 47/119/28 48/120/28
o back_bar_doors
usemtl back_bar
v 0.02 0.095 0.4375
v 0.485 0.095 0.4375
v 0.485 0.605 0.4375
v 0.02 0.605 0.4375
v 0.0125 0.0875 0.445
v 0.4925 0.0875 0.445
v 0.4925 0.6125 0.445
v 0.0125 0.6125 0.445
v 0.0125 0.0875 0.4675
v 0.4925 0.0875 0.4675
v 0.4925 0.6125 0.4675
v 0.0125 0.6125 0.4675
v 0.02 0.095 0.475
v 0.485 0.095 0.475
v 0.485 0.605 0.475
v 0.02 0.605 0.475
v 0.02 0.095 0.4375
v 0.485 0.095 0.4375
v 0.485 0.605 0.4375
v 0.02 0.605 0.4375
v 0.02 0.095 0.475
v 0.485 0.095 0.475
v 0.485 0.605 0.475
v 0.02 0.605 0.475
v 0.515 0.095 0.4375
v 0.98 0.095 0.4375
v 0.98 0.605 0.4375
v 0.515 0.605 0.4375
v 0.5075 0.0875 0.445
v 0.9875 0.0875 0.445
v 0.9875 0.6125 0.445
v 0.5075 0.6125 0.445
v 0.5075 0.0875 0.4675
v 0.9875 0.0875 0.4675
v 0.9875 0.6125 0.4675
v 0.5075 0.6125 0.4675
v 0.515 0.095 0.475
v 0.98 0.095 0.475
v 0.98 0.605 0.475
v 0.515 0.605 0.475
v 0.515 0.095 0.4375
v 0.98 0.095 0.4375
v 0.98 0.605 0.4375
v 0.515 0.605 0.4375
v 0.515 0.095 0.475
v 0.98 0.095 0.475
v 0.98 0.605 0.475
v 0.515 0.605 0.475
vt 0.004023 0.086142
vt 0.102109 0.086142
vt 0.103691 0.088379
vt 0.002441 0.088379
vt 0.650508 0.086142
vt 0.758086 0.086142
vt 0.759668 0.088379
vt 0.648926 0.088379
vt 0.869258 0.080282
vt 0.967344 0.080282
vt 0.968926 0.08252
vt 0.867676 0.08252
vt 0.118281 0.080282
vt 0.225859 0.080282
vt 0.227441 0.08252
vt 0.116699 0.08252
vt 0.611816 0.127578
vt 0.713066 0.127578
vt 0.713066 0.132324
vt 0.611816 0.132324
vt 0.154785 0.127578
vt 0.265527 0.127578
vt 0.265527 0.132324
vt 0.154785 0.132324
vt 0.716309 0.127578
vt 0.817559 0.127578
vt 0.817559 0.132324
vt 0.716309 0.132324
vt 0.269043 0.127578
vt 0.379785 0.127578
vt 0.379785 0.132324
vt 0.269043 0.132324
vt 0.211426 0.086142
vt 0.312676 0.086142
vt 0.311094 0.088379
vt 0.213008 0.088379
vt 0.534668 0.086142
vt 0.64541 0.086142
vt 0.643828 0.088379
vt 0.53625 0.088379
vt 0.002441 0.074423
vt 0.103691 0.074423
vt 0.102109 0.07666
vt 0.004023 0.07666
vt 0.877441 0.086142
vt 0.988184 0.086142
vt 0.986602 0.088379
vt 0.879023 0.088379
vt 0.119629 0.668457
vt 0.119629 0.570371
vt 0.227207 0.570371
vt 0.227207 0.570371
vt 0.227207 0.668457
vt 0.119629 0.668457
vt 0.338535 0.668457
vt 0.230957 0.668457
vt 0.230957 0.570371
vt 0.230957 0.570371
vt 0.338535 0.570371
vt 0.338535 0.668457
vt 0.108516 0.086142
vt 0.206602 0.086142
vt 0.208184 0.088379
vt 0.106934 0.088379
vt 0.840938 0.092978
vt 0.948516 0.092978
vt 0.950098 0.095215
vt 0.839355 0.095215
vt 0.660273 0.080282
vt 0.758359 0.080282
vt 0.759941 0.08252
vt 0.658691 0.08252
vt 0.764766 0.086142
vt 0.872344 0.086142
vt 0.873926 0.088379
vt 0.763184 0.088379
vt 0.820801 0.127578
vt 0.922051 0.127578
vt 0.922051 0.132324
vt 0.820801 0.132324
vt 0.383301 0.127578
vt 0.494043 0.127578
vt 0.494043 0.132324
vt 0.383301 0.132324
vt 0.002441 0.118789
vt 0.103691 0.118789
vt 0.103691 0.123535
vt 0.002441 0.123535
vt 0.497559 0.127578
vt 0.608301 0.127578
vt 0.608301 0.132324
vt 0.497559 0.132324
vt 0.315918 0.086142
vt 0.417168 0.086142
vt 0.415586 0.088379
vt 0.3175 0.088379
vt 0.002441 0.080282
vt 0.113184 0.080282
vt 0.111602 0.08252
vt 0.004023 0.08252
vt 0.763184 0.080282
vt 0.864434 0.080282
vt 0.862852 0.08252
vt 0.764766 0.08252
vt 0.42041 0.086142
vt 0.531152 0.086142
vt 0.52957 0.088379
vt 0.421992 0.088379
vt 0.342285 0.668457
vt 0.342285 0.570371
vt 0.449863 0.570371
vt 0.449863 0.570371
vt 0.449863 0.668457
vt 0.342285 0.668457
vt 0.561191 0.668457
vt 0.453613 0.668457
vt 0.453613 0.570371
vt 0.453613 0.570371
vt 0.561191 0.570371
vt 0.561191 0.668457
vn 0 -0.707107 -0.707107
vn 0.707107 0 -0.707107
vn 0 0.707107 -0.707107
vn -0.707107 0 -0.707107
vn 0 -1 0
vn 1 0 0
vn 0 1 0
vn -1 0 0
vn 0 -0.707107 0.707107
vn 0.707107 0 0.707107
vn 0 0.707107 0.707107
vn -0.707107 0 0.707107
vn 0 0 -1
vn 0 0 1
f 49/121/29 50/122/29 54/123/29 53/124/29
f 50/125/30 51/126/30 55/127/30 54/128/30
f 51/129/31 52/130/31 56/131/31 55/132/31
f 52/133/32 49/134/32 53/135/32 56/136/32
f 53/137/33 54/138/33 58/139/33 57/140/33
f 54/141/34 55/142/34 59/143/34 58/144/34
f 55/145/35 56/146/35 60/147/35 59/148/35
f 56/149/36 53/150/36 57/151/36 60/152/36
f 57/153/37 58/154/37 62/155/37 61/156/37
f 58/157/38 59/158/38 63/159/38 62/160/38
f 59/161/39 60/162/39 64/163/39 63/164/39
f 60/165/40 57/166/40 61/167/40 64/168/40
f 66/169/41 65/170/41 68/171/41
f 68/172/41 67/173/41 66/174/41
f 72/175/42 69/176/42 70/177/42
f 70/178/42 71/179/42 72/180/42
f 73/181/29 74/182/29 78/183/29 77/184/29
f 74/185/30 75/186/30 79/187/30 78/188/30
f 75/189/31 76/190/31 80/191/31 79/192/31
f 76/193/32 73/194/32 77/195/32 80/196/32
f 77/197/33 78/198/33 82/199/33 81/200/33
f 78/201/34 79/202/34 83/203/34 82/204/34
f 79/205/35 80/206/35 84/207/35 83/208/35
f 80/209/36 77/210/36 81/211/36 84/212/36
f 81/213/37 82/214/37 86/215/37 85/216/37
f 82/217/38 83/218/38 87/219/38 86/220/38
f 83/221/39 84/222/39 88/223/39 87/224/39
f 84/225/40 81/226/40 85/227/40 88/228/40
f 90/229/41 89/230/41 92/231/41
f 92/232/41 91/233/41 90/234/41
f 96/235/42 93/236/42 94/237/42
f 94/238/42 95/239/42 96/240/42
o back_bar_pulls
usemtl back_bar
v 0.42375 0.3625 0.41125
v 0.42375 0.3625 0.4325
v 0.43875 0.3625 0.4325
v 0.43875 0.3625 0.41125
v 0.41875 0.3675 0.40625
v 0.41875 0.3675 0.4375
v 0.44375 0.3675 0.4375
v 0.44375 0.3675 0.40625
v 0.41875 0.5325 0.40625
v 0.41875 0.5325 0.4375
v 0.44375 0.5325 0.4375
v 0.44375 0.5325 0.40625
v 0.42375 0.5375 0.41125
v 0.42375 0.5375 0.4325
v 0.43875 0.5375 0.4325
v 0.43875 0.5375 0.41125
v 0.42375 0.3625 0.41125
v 0.42375 0.3625 0.4325
v 0.43875 0.3625 0.4325
v 0.43875 0.3625 0.41125
v 0.42375 0.5375 0.41125
v 0.42375 0.5375 0.4325
v 0.43875 0.5375 0.4325
v 0.43875 0.5375 0.41125
v 0.56125 0.3625 0.41125
v 0.56125 0.3625 0.4325
v 0.57625 0.3625 0.4325
v 0.57625 0.3625 0.41125
v 0.55625 0.3675 0.40625
v 0.55625 0.3675 0.4375
v 0.58125 0.3675 0.4375
v 0.58125 0.3675 0.40625
v 0.55625 0.5325 0.40625
v 0.55625 0.5325 0.4375
v 0.58125 0.5325 0.4375
v 0.58125 0.5325 0.40625
v 0.56125 0.5375 0.41125
v 0.56125 0.5375 0.4325
v 0.57625 0.5375 0.4325
v 0.57625 0.5375 0.41125
v 0.56125 0.3625 0.41125
v 0.56125 0.3625 0.4325
v 0.57625 0.3625 0.4325
v 0.57625 0.3625 0.41125
v 0.56125 0.5375 0.41125
v 0.56125 0.5375 0.4325
v 0.57625 0.5375 0.4325
v 0.57625 0.5375 0.41125
vt 0.37459 0.044895
vt 0.379072 0.044895
vt 0.380127 0.046387
vt 0.373535 0.046387
vt 0.470293 0.044895
vt 0.473457 0.044895
vt 0.474512 0.046387
vt 0.469238 0.046387
vt 0.455244 0.046387
vt 0.450762 0.046387
vt 0.449707 0.044895
vt 0.456299 0.044895
vt 0.482246 0.046387
vt 0.479082 0.046387
vt 0.478027 0.044895
vt 0.483301 0.044895
vt 0.545059 0.137451
vt 0.545059 0.144043
vt 0.510254 0.144043
vt 0.510254 0.137451
vt 0.002441 0.132324
vt 0.002441 0.127051
vt 0.037246 0.127051
vt 0.037246 0.132324
vt 0.54834 0.144043
vt 0.54834 0.137451
vt 0.583145 0.137451
vt 0.583145 0.144043
vt 0.040527 0.132324
vt 0.040527 0.127051
vt 0.075332 0.127051
vt 0.075332 0.132324
vt 0.383301 0.044895
vt 0.389893 0.044895
vt 0.388838 0.046387
vt 0.384355 0.046387
vt 0.49209 0.046387
vt 0.486816 0.046387
vt 0.487871 0.044895
vt 0.491035 0.044895
vt 0.399658 0.046387
vt 0.393066 0.046387
vt 0.394121 0.044895
vt 0.398604 0.044895
vt 0.432129 0.044895
vt 0.437402 0.044895
vt 0.436348 0.046387
vt 0.433184 0.046387
vt 0.812588 0.095215
vt 0.808105 0.095215
vt 0.808105 0.092051
vt 0.808105 0.092051
vt 0.812588 0.092051
vt 0.812588 0.095215
vt 0.815918 0.095215
vt 0.815918 0.092051
vt 0.8204 0.092051
vt 0.8204 0.092051
vt 0.8204 0.095215
vt 0.815918 0.095215
vt 0.460527 0.044895
vt 0.46501 0.044895
vt 0.466064 0.046387
vt 0.459473 0.046387
vt 0.49666 0.044895
vt 0.499824 0.044895
vt 0.500879 0.046387
vt 0.495605 0.046387
vt 0.408369 0.046387
vt 0.403887 0.046387
vt 0.402832 0.044895
vt 0.409424 0.044895
vt 0.508613 0.046387
vt 0.505449 0.046387
vt 0.504395 0.044895
vt 0.509668 0.044895
vt 0.62123 0.137451
vt 0.62123 0.144043
vt 0.586426 0.144043
vt 0.586426 0.137451
vt 0.078613 0.132324
vt 0.078613 0.127051
vt 0.113418 0.127051
vt 0.113418 0.132324
vt 0.624512 0.144043
vt 0.624512 0.137451
vt 0.659316 0.137451
vt 0.659316 0.144043
vt 0.116699 0.132324
vt 0.116699 0.127051
vt 0.151504 0.127051
vt 0.151504 0.132324
vt 0.412598 0.044895
vt 0.419189 0.044895
vt 0.418135 0.046387
vt 0.413652 0.046387
vt 0.446191 0.046387
vt 0.440918 0.046387
vt 0.441973 0.044895
vt 0.445137 0.044895
vt 0.428955 0.046387
vt 0.422363 0.046387
vt 0.423418 0.044895
vt 0.4279 0.044895
vt 0.513184 0.044895
vt 0.518457 0.044895
vt 0.517402 0.046387
vt 0.514238 0.046387
vt 0.828213 0.095215
vt 0.82373 0.095215
vt 0.82373 0.092051
vt 0.82373 0.092051
vt 0.828213 0.092051
vt 0.828213 0.095215
vt 0.831543 0.095215
vt 0.831543 0.092051
vt 0.836025 0.092051
vt 0.836025 0.092051
vt 0.836025 0.095215
vt 0.831543 0.095215
vn -0.707107 -0.707107 0
vn 0 -0.707107 0.707107
vn 0.707107 -0.707107 0
vn 0 -0.707107 -0.707107
vn -1 0 0
vn 0 0 1
vn 1 0 0
vn 0 0 -1
vn -0.707107 0.707107 0
vn 0 0.707107 0.707107
vn 0.707107 0.707107 0
vn 0 0.707107 -0.707107
vn 0 -1 0
vn 0 1 0
f 97/241/43 98/242/43 102/243/43 101/244/43
f 98/245/44 99/246/44 103/247/44 102/248/44
f 99/249/45 100/250/45 104/251/45 103/252/45
f 100/253/46 97/254/46 101/255/46 104/256/46
f 101/257/47 102/258/47 106/259/47 105/260/47
f 102/261/48 103/262/48 107/263/48 106/264/48
f 103/265/49 104/266/49 108/267/49 107/268/49
f 104/269/50 101/270/50 105/271/50 108/272/50
f 105/273/51 106/274/51 110/275/51 109/276/51
f 106/277/52 107/278/52 111/279/52 110/280/52
f 107/281/53 108/282/53 112/283/53 111/284/53
f 108/285/54 105/286/54 109/287/54 112/288/54
f 114/289/55 113/290/55 116/291/55
f 116/292/55 115/293/55 114/294/55
f 120/295/56 117/296/56 118/297/56
f 118/298/56 119/299/56 120/300/56
f 121/301/43 122/302/43 126/303/43 125/304/43
f 122/305/44 123/306/44 127/307/44 126/308/44
f 123/309/45 124/310/45 128/311/45 127/312/45
f 124/313/46 121/314/46 125/315/46 128/316/46
f 125/317/47 126/318/47 130/319/47 129/320/47
f 126/321/48 127/322/48 131/323/48 130/324/48
f 127/325/49 128/326/49 132/327/49 131/328/49
f 128/329/50 125/330/50 129/331/50 132/332/50
f 129/333/51 130/334/51 134/335/51 133/336/51
f 130/337/52 131/338/52 135/339/52 134/340/52
f 131/341/53 132/342/53 136/343/53 135/344/53
f 132/345/54 129/346/54 133/347/54 136/348/54
f 138/349/55 137/350/55 140/351/55
f 140/352/55 139/353/55 138/354/55
f 144/355/56 141/356/56 142/357/56
f 142/358/56 143/359/56 144/360/56
o back_bar_kick
usemtl back_bar
v 0.025 0 0.5
v 0.025 0 0.95
v 0.975 0 0.95
v 0.975 0 0.5
v 0.025 0.075 0.5
v 0.025 0.075 0.95
v 0.975 0.075 0.95
v 0.975 0.075 0.5
v 0.025 0 0.5
v 0.025 0 0.95
v 0.975 0 0.95
v 0.975 0 0.5
v 0.025 0.075 0.5
v 0.025 0.075 0.95
v 0.975 0.075 0.95
v 0.975 0.075 0.5
vt 0.622559 0.229785
vt 0.71748 0.229785
vt 0.71748 0.245605
vt 0.622559 0.245605
vt 0.214355 0.229785
vt 0.414746 0.229785
vt 0.414746 0.245605
vt 0.214355 0.245605
vt 0.816113 0.245605
vt 0.721191 0.245605
vt 0.721191 0.229785
vt 0.816113 0.229785
vt 0.418457 0.229785
vt 0.618848 0.229785
vt 0.618848 0.245605
vt 0.418457 0.245605
vt 0.002441 0.564941
vt 0.002441 0.47002
vt 0.202832 0.47002
vt 0.202832 0.47002
vt 0.202832 0.564941
vt 0.002441 0.564941
vt 0.206543 0.47002
vt 0.406934 0.47002
vt 0.406934 0.564941
vt 0.406934 0.564941
vt 0.206543 0.564941
vt 0.206543 0.47002
vn -1 0 0
vn 0 0 1
vn 1 0 0
vn 0 0 -1
vn 0 -1 0
vn 0 1 0
f 145/361/57 146/362/57 150/363/57 149/364/57
f 146/365/58 147/366/58 151/367/58 150/368/58
f 147/369/59 148/370/59 152/371/59 151/372/59
f 148/373/60 145/374/60 149/375/60 152/376/60
f 154/377/61 153/378/61 156/379/61
f 156/380/61 155/381/61 154/382/61
f 160/383/62 157/384/62 158/385/62
f 158/386/62 159/387/62 160/388/62
o back_bar_worktop
usemtl back_bar
v 0 0.625 0.421875
v 0 0.625 0.95
v 0 0.6675 0.95
v 0 0.675 0.9425
v 0 0.675 0.429375
v 0 0.6675 0.421875
v 1 0.625 0.421875
v 1 0.625 0.95
v 1 0.6675 0.95
v 1 0.675 0.9425
v 1 0.675 0.429375
v 1 0.6675 0.421875
v 0 0.625 0.421875
v 0 0.625 0.95
v 0 0.6675 0.95
v 0 0.675 0.9425
v 0 0.675 0.429375
v 0 0.6675 0.421875
v 1 0.625 0.421875
v 1 0.625 0.95
v 1 0.6675 0.95
v 1 0.675 0.9425
v 1 0.675 0.429375
v 1 0.6675 0.421875
vt 0.641113 0.674243
vt 0.641113 0.785645
vt 0.430176 0.785645
vt 0.430176 0.674243
vt 0.641113 0.175117
vt 0.641113 0.184082
vt 0.430176 0.184082
vt 0.430176 0.175117
vt 0.230957 0.08252
vt 0.230957 0.080282
vt 0.441895 0.080282
vt 0.441895 0.08252
vt 0.644043 0.785645
vt 0.644043 0.677407
vt 0.85498 0.677407
vt 0.85498 0.785645
vt 0.444824 0.08252
vt 0.444824 0.080282
vt 0.655762 0.080282
vt 0.655762 0.08252
vt 0.644043 0.184082
vt 0.644043 0.175117
vt 0.85498 0.175117
vt 0.85498 0.184082
vt 0.199707 0.1825
vt 0.199707 0.173535
vt 0.311108 0.173535
vt 0.199707 0.1825
vt 0.311108 0.173535
vt 0.311108 0.1825
vt 0.199707 0.1825
vt 0.311108 0.1825
vt 0.309526 0.184082
vt 0.309526 0.184082
vt 0.201289 0.184082
vt 0.199707 0.1825
vt 0.426343 0.184082
vt 0.314941 0.184082
vt 0.314941 0.175117
vt 0.426343 0.175117
vt 0.426343 0.184082
vt 0.314941 0.175117
vt 0.424761 0.173535
vt 0.426343 0.175117
vt 0.314941 0.175117
vt 0.314941 0.175117
vt 0.316523 0.173535
vt 0.424761 0.173535
vn 0 -1 0
vn 0 0 1
vn 0 0.707107 0.707107
vn 0 1 0
vn 0 0.707107 -0.707107
vn 0 0 -1
vn -1 0 0
vn 1 0 0
f 167/389/63 168/390/63 162/391/63 161/392/63
f 168/393/64 169/394/64 163/395/64 162/396/64
f 169/397/65 170/398/65 164/399/65 163/400/65
f 170/401/66 171/402/66 165/403/66 164/404/66
f 171/405/67 172/406/67 166/407/67 165/408/67
f 172/409/68 167/410/68 161/411/68 166/412/68
f 178/413/69 173/414/69 174/415/69
f 178/416/69 174/417/69 175/418/69
f 178/419/69 175/420/69 176/421/69
f 176/422/69 177/423/69 178/424/69
f 180/425/70 179/426/70 184/427/70
f 181/428/70 180/429/70 184/430/70
f 182/431/70 181/432/70 184/433/70
f 184/434/70 183/435/70 182/436/70
o back_bar_worktop_trim
usemtl back_bar
v 0 0.615625 0.40625
v 0 0.615625 0.421875
v 0 0.68125 0.421875
v 0 0.68125 0.40625
v 1 0.615625 0.40625
v 1 0.615625 0.421875
v 1 0.68125 0.421875
v 1 0.68125 0.40625
v 0 0.615625 0.40625
v 0 0.615625 0.421875
v 0 0.68125 0.421875
v 0 0.68125 0.40625
v 1 0.615625 0.40625
v 1 0.615625 0.421875
v 1 0.68125 0.421875
v 1 0.68125 0.40625
vt 0.556152 0.091919
vt 0.556152 0.095215
vt 0.345215 0.095215
vt 0.345215 0.091919
vt 0.213379 0.204419
vt 0.213379 0.218262
vt 0.002441 0.218262
vt 0.002441 0.204419
vt 0.559082 0.095215
vt 0.559082 0.091919
vt 0.77002 0.091919
vt 0.77002 0.095215
vt 0.216309 0.218262
vt 0.216309 0.204419
vt 0.427246 0.204419
vt 0.427246 0.218262
vt 0.772949 0.091919
vt 0.786792 0.091919
vt 0.786792 0.095215
vt 0.786792 0.095215
vt 0.772949 0.095215
vt 0.772949 0.091919
vt 0.790527 0.095215
vt 0.790527 0.091919
vt 0.80437 0.091919
vt 0.80437 0.091919
vt 0.80437 0.095215
vt 0.790527 0.095215
vn 0 -1 0
vn 0 0 1
vn 0 1 0
vn 0 0 -1
vn -1 0 0
vn 1 0 0
f 189/437/71 190/438/71 186/439/71 185/440/71
f 190/441/72 191/442/72 187/443/72 186/444/72
f 191/445/73 192/446/73 188/447/73 187/448/73
f 192/449/74 189/450/74 185/451/74 188/452/74
f 196/453/75 193/454/75 194/455/75
f 194/456/75 195/457/75 196/458/75
f 198/459/76 197/460/76 200/461/76
f 200/462/76 199/463/76 198/464/76
o back_bar_uprights
usemtl back_bar
v 0.00625 0.675 0.59375
v 0.00625 0.675 0.94375
v 0.03125 0.675 0.94375
v 0.03125 0.675 0.59375
v 0 0.68125 0.5875
v 0 0.68125 0.95
v 0.0375 0.68125 0.95
v 0.0375 0.68125 0.5875
v 0 1.86875 0.5875
v 0 1.86875 0.95
v 0.0375 1.86875 0.95
v 0.0375 1.86875 0.5875
v 0.00625 1.875 0.59375
v 0.00625 1.875 0.94375
v 0.03125 1.875 0.94375
v 0.03125 1.875 0.59375
v 0.00625 0.675 0.59375
v 0.00625 0.675 0.94375
v 0.03125 0.675 0.94375
v 0.03125 0.675 0.59375
v 0.00625 1.875 0.59375
v 0.00625 1.875 0.94375
v 0.03125 1.875 0.94375
v 0.03125 1.875 0.59375
v 0.96875 0.675 0.59375
v 0.96875 0.675 0.94375
v 0.99375 0.675 0.94375
v 0.99375 0.675 0.59375
v 0.9625 0.68125 0.5875
v 0.9625 0.68125 0.95
v 1 0.68125 0.95
v 1 0.68125 0.5875
v 0.9625 1.86875 0.5875
v 0.9625 1.86875 0.95
v 1 1.86875 0.95
v 1 1.86875 0.5875
v 0.96875 1.875 0.59375
v 0.96875 1.875 0.94375
v 0.99375 1.875 0.94375
v 0.99375 1.875 0.59375
v 0.96875 0.675 0.59375
v 0.96875 0.675 0.94375
v 0.99375 0.675 0.94375
v 0.99375 0.675 0.59375
v 0.96875 1.875 0.59375
v 0.96875 1.875 0.94375
v 0.99375 1.875 0.94375
v 0.99375 1.875 0.59375
vt 0.528174 0.049405
vt 0.602002 0.049405
vt 0.60332 0.05127
vt 0.526855 0.05127
vt 0.142432 0.044522
vt 0.147705 0.044522
vt 0.149023 0.046387
vt 0.141113 0.046387
vt 0.68208 0.05127
vt 0.608252 0.05127
vt 0.606934 0.049405
vt 0.683398 0.049405
vt 0.159424 0.046387
vt 0.15415 0.046387
vt 0.152832 0.044522
vt 0.160742 0.044522
vt 0.661133 0.488477
vt 0.661133 0.564941
vt 0.410645 0.564941
vt 0.410645 0.488477
vt 0.430176 0.155762
vt 0.430176 0.147852
vt 0.680664 0.147852
vt 0.680664 0.155762
vt 0.664551 0.564941
vt 0.664551 0.488477
vt 0.915039 0.488477
vt 0.915039 0.564941
vt 0.684082 0.155762
vt 0.684082 0.147852
vt 0.93457 0.147852
vt 0.93457 0.155762
vt 0.239746 0.068936
vt 0.316211 0.068936
vt 0.314893 0.070801
vt 0.241064 0.070801
vt 0.172461 0.046387
vt 0.164551 0.046387
vt 0.165869 0.044522
vt 0.171143 0.044522
vt 0.763477 0.05127
vt 0.687012 0.05127
vt 0.68833 0.049405
vt 0.762158 0.049405
vt 0.216309 0.068936
vt 0.224219 0.068936
vt 0.2229 0.070801
vt 0.217627 0.070801
vt 0.736426 0.144043
vt 0.662598 0.144043
vt 0.662598 0.13877
vt 0.662598 0.13877
vt 0.736426 0.13877
vt 0.736426 0.144043
vt 0.739746 0.144043
vt 0.739746 0.13877
vt 0.813574 0.13877
vt 0.813574 0.13877
vt 0.813574 0.144043
vt 0.739746 0.144043
vt 0.768408 0.049405
vt 0.842236 0.049405
vt 0.843555 0.05127
vt 0.76709 0.05127
vt 0.177588 0.044522
vt 0.182861 0.044522
vt 0.18418 0.046387
vt 0.17627 0.046387
vt 0.922314 0.05127
vt 0.848486 0.05127
vt 0.847168 0.049405
vt 0.923633 0.049405
vt 0.19458 0.046387
vt 0.189307 0.046387
vt 0.187988 0.044522
vt 0.195898 0.044522
vt 0.25293 0.389844
vt 0.25293 0.466309
vt 0.002441 0.466309
vt 0.002441 0.389844
vt 0.002441 0.144043
vt 0.002441 0.136133
vt 0.25293 0.136133
vt 0.25293 0.144043
vt 0.256348 0.466309
vt 0.256348 0.389844
vt 0.506836 0.389844
vt 0.506836 0.466309
vt 0.256348 0.144043
vt 0.256348 0.136133
vt 0.506836 0.136133
vt 0.506836 0.144043
vt 0.002441 0.044522
vt 0.078906 0.044522
vt 0.077588 0.046387
vt 0.00376 0.046387
vt 0.207617 0.046387
vt 0.199707 0.046387
vt 0.201025 0.044522
vt 0.206299 0.044522
vt 0.396289 0.070801
vt 0.319824 0.070801
vt 0.321143 0.068936
vt 0.394971 0.068936
vt 0.228027 0.068936
vt 0.235937 0.068936
vt 0.234619 0.070801
vt 0.229346 0.070801
vt 0.890723 0.144043
vt 0.816895 0.144043
vt 0.816895 0.13877
vt 0.816895 0.13877
vt 0.890723 0.13877
vt 0.890723 0.144043
vt 0.894043 0.144043
vt 0.894043 0.13877
vt 0.967871 0.13877
vt 0.967871 0.13877
vt 0.967871 0.144043
vt 0.894043 0.144043
vn -0.707107 -0.707107 0
vn 0 -0.707107 0.707107
vn 0.707107 -0.707107 0
vn 0 -0.707107 -0.707107
vn -1 0 0
vn 0 0 1
vn 1 0 0
vn 0 0 -1
vn -0.707107 0.707107 0
vn 0 0.707107 0.707107
vn 0.707107 0.707107 0
vn 0 0.707107 -0.707107
vn 0 -1 0
vn 0 1 0
f 201/465/77 202/466/77 206/467/77 205/468/77
f 202/469/78 203/470/78 207/471/78 206/472/78
f 203/473/79 204/474/79 208/475/79 207/476/79
f 204/477/80 201/478/80 205/479/80 208/480/80
f 205/481/81 206/482/81 210/483/81 209/484/81
f 206/485/82 207/486/82 211/487/82 210/488/82
f 207/489/83 208/490/83 212/491/83 211/492/83
f 208/493/84 205/494/84 209/495/84 212/496/84
f 209/497/85 210/498/85 214/499/85 213/500/85
f 210/501/86 211/502/86 215/503/86 214/504/86
f 211/505/87 212/506/87 216/507/87 215/508/87
f 212/509/88 209/510/88 213/511/88 216/512/88
f 218/513/89 217/514/89 220/515/89
f 220/516/89 219/517/89 218/518/89
f 224/519/90 221/520/90 222/521/90
f 222/522/90 223/523/90 224/524/90
f 225/525/77 226/526/77 230/527/77 229/528/77
f 226/529/78 227/530/78 231/531/78 230/532/78
f 227/533/79 228/534/79 232/535/79 231/536/79
f 228/537/80 225/538/80 229/539/80 232/540/80
f 229/541/81 230/542/81 234/543/81 233/544/81
f 230/545/82 231/546/82 235/547/82 234/548/82
f 231/549/83 232/550/83 236/551/83 235/552/83
f 232/553/84 229/554/84 233/555/84 236/556/84
f 233/557/85 234/558/85 238/559/85 237/560/85
f 234/561/86 235/562/86 239/563/86 238/564/86
f 235/565/87 236/566/87 240/567/87 239/568/87
f 236/569/88 233/570/88 237/571/88 240/572/88
f 242/573/89 241/574/89 244/575/89
f 244/576/89 243/577/89 242/578/89
f 248/579/90 245/580/90 246/581/90
f 246/582/90 247/583/90 248/584/90
o back_bar_shelves
usemtl back_bar
v 0.04125 0.84375 0.62875
v 0.04125 0.84375 0.94625
v 0.95875 0.84375 0.94625
v 0.95875 0.84375 0.62875
v 0.0375 0.8475 0.625
v 0.0375 0.8475 0.95
v 0.9625 0.8475 0.95
v 0.9625 0.8475 0.625
v 0.0375 0.865 0.625
v 0.0375 0.865 0.95
v 0.9625 0.865 0.95
v 0.9625 0.865 0.625
v 0.04125 0.86875 0.62875
v 0.04125 0.86875 0.94625
v 0.95875 0.86875 0.94625
v 0.95875 0.86875 0.62875
v 0.04125 0.84375 0.62875
v 0.04125 0.84375 0.94625
v 0.95875 0.84375 0.94625
v 0.95875 0.84375 0.62875
v 0.04125 0.86875 0.62875
v 0.04125 0.86875 0.94625
v 0.95875 0.86875 0.94625
v 0.95875 0.86875 0.62875
v 0.04125 1.1125 0.62875
v 0.04125 1.1125 0.94625
v 0.95875 1.1125 0.94625
v 0.95875 1.1125 0.62875
v 0.0375 1.11625 0.625
v 0.0375 1.11625 0.95
v 0.9625 1.11625 0.95
v 0.9625 1.11625 0.625
v 0.0375 1.13375 0.625
v 0.0375 1.13375 0.95
v 0.9625 1.13375 0.95
v 0.9625 1.13375 0.625
v 0.04125 1.1375 0.62875
v 0.04125 1.1375 0.94625
v 0.95875 1.1375 0.94625
v 0.95875 1.1375 0.62875
v 0.04125 1.1125 0.62875
v 0.04125 1.1125 0.94625
v 0.95875 1.1125 0.94625
v 0.95875 1.1125 0.62875
v 0.04125 1.1375 0.62875
v 0.04125 1.1375 0.94625
v 0.95875 1.1375 0.94625
v 0.95875 1.1375 0.62875
v 0.04125 1.38125 0.62875
v 0.04125 1.38125 0.94625
v 0.95875 1.38125 0.94625
v 0.95875 1.38125 0.62875
v 0.0375 1.385 0.625
v 0.0375 1.385 0.95
v 0.9625 1.385 0.95
v 0.9625 1.385 0.625
v 0.0375 1.4025 0.625
v 0.0375 1.4025 0.95
v 0.9625 1.4025 0.95
v 0.9625 1.4025 0.625
v 0.04125 1.40625 0.62875
v 0.04125 1.40625 0.94625
v 0.95875 1.40625 0.94625
v 0.95875 1.40625 0.62875
v 0.04125 1.38125 0.62875
v 0.04125 1.38125 0.94625
v 0.95875 1.38125 0.94625
v 0.95875 1.38125 0.62875
v 0.04125 1.40625 0.62875
v 0.04125 1.40625 0.94625
v 0.95875 1.40625 0.94625
v 0.95875 1.40625 0.62875
v 0.04125 1.65 0.62875
v 0.04125 1.65 0.94625
v 0.95875 1.65 0.94625
v 0.95875 1.65 0.62875
v 0.0375 1.65375 0.625
v 0.0375 1.65375 0.95
v 0.9625 1.65375 0.95
v 0.9625 1.65375 0.625
v 0.0375 1.67125 0.625
v 0.0375 1.67125 0.95
v 0.9625 1.67125 0.95
v 0.9625 1.67125 0.625
v 0.04125 1.675 0.62875
v 0.04125 1.675 0.94625
v 0.95875 1.675 0.94625
v 0.95875 1.675 0.62875
v 0.04125 1.65 0.62875
v 0.04125 1.65 0.94625
v 0.95875 1.65 0.94625
v 0.95875 1.65 0.62875
v 0.04125 1.675 0.62875
v 0.04125 1.675 0.94625
v 0.95875 1.675 0.94625
v 0.95875 1.675 0.62875
vt 0.003232 0.020854
vt 0.070205 0.020854
vt 0.070996 0.021973
vt 0.002441 0.021973
vt 0.003232 0.03062
vt 0.196768 0.03062
vt 0.197559 0.031738
vt 0.002441 0.031738
vt 0.863174 0.041504
vt 0.796201 0.041504
vt 0.79541 0.040385
vt 0.863965 0.040385
vt 0.661611 0.036621
vt 0.468076 0.036621
vt 0.467285 0.035502
vt 0.662402 0.035502
vt 0.200684 0.091523
vt 0.269238 0.091523
vt 0.269238 0.095215
vt 0.200684 0.095215
vt 0.737793 0.098359
vt 0.93291 0.098359
vt 0.93291 0.102051
vt 0.737793 0.102051
vt 0.341504 0.095215
vt 0.272949 0.095215
vt 0.272949 0.091523
vt 0.341504 0.091523
vt 0.002441 0.091523
vt 0.197559 0.091523
vt 0.197559 0.095215
vt 0.002441 0.095215
vt 0.146973 0.035502
vt 0.215527 0.035502
vt 0.214736 0.036621
vt 0.147764 0.036621
vt 0.792285 0.041504
vt 0.597168 0.041504
vt 0.597959 0.040385
vt 0.791494 0.040385
vt 0.287793 0.036621
vt 0.219238 0.036621
vt 0.220029 0.035502
vt 0.287002 0.035502
vt 0.665527 0.035502
vt 0.860645 0.035502
vt 0.859854 0.036621
vt 0.666318 0.036621
vt 0.002441 0.38623
vt 0.002441 0.319258
vt 0.195977 0.319258
vt 0.195977 0.319258
vt 0.195977 0.38623
vt 0.002441 0.38623
vt 0.199707 0.319258
vt 0.393242 0.319258
vt 0.393242 0.38623
vt 0.393242 0.38623
vt 0.199707 0.38623
vt 0.199707 0.319258
vt 0.868467 0.040385
vt 0.935439 0.040385
vt 0.93623 0.041504
vt 0.867676 0.041504
vt 0.470029 0.020854
vt 0.663564 0.020854
vt 0.664355 0.021973
vt 0.469238 0.021973
vt 0.268447 0.007324
vt 0.201475 0.007324
vt 0.200684 0.006206
vt 0.269238 0.006206
vt 0.791494 0.026855
vt 0.597959 0.026855
vt 0.597168 0.025737
vt 0.792285 0.025737
vt 0.398926 0.112031
vt 0.46748 0.112031
vt 0.46748 0.115723
vt 0.398926 0.115723
vt 0.106934 0.119844
vt 0.302051 0.119844
vt 0.302051 0.123535
vt 0.106934 0.123535
vt 0.539746 0.115723
vt 0.471191 0.115723
vt 0.471191 0.112031
vt 0.539746 0.112031
vt 0.305176 0.119844
vt 0.500293 0.119844
vt 0.500293 0.123535
vt 0.305176 0.123535
vt 0.074707 0.020854
vt 0.143262 0.020854
vt 0.142471 0.021973
vt 0.075498 0.021973
vt 0.990527 0.026855
vt 0.79541 0.026855
vt 0.796201 0.025737
vt 0.989736 0.025737
vt 0.465527 0.021973
vt 0.396973 0.021973
vt 0.397764 0.020854
vt 0.464736 0.020854
vt 0.66748 0.020854
vt 0.862598 0.020854
vt 0.861807 0.021973
vt 0.668271 0.021973
vt 0.396973 0.38623
vt 0.396973 0.319258
vt 0.590508 0.319258
vt 0.590508 0.319258
vt 0.590508 0.38623
vt 0.396973 0.38623
vt 0.594238 0.319258
vt 0.787773 0.319258
vt 0.787773 0.38623
vt 0.787773 0.38623
vt 0.594238 0.38623
vt 0.594238 0.319258
vt 0.27374 0.006206
vt 0.340713 0.006206
vt 0.341504 0.007324
vt 0.272949 0.007324
vt 0.003232 0.015971
vt 0.196768 0.015971
vt 0.197559 0.01709
vt 0.002441 0.01709
vt 0.412979 0.007324
vt 0.346006 0.007324
vt 0.345215 0.006206
vt 0.41377 0.006206
vt 0.39501 0.031738
vt 0.201475 0.031738
vt 0.200684 0.03062
vt 0.395801 0.03062
vt 0.543457 0.112031
vt 0.612012 0.112031
vt 0.612012 0.115723
vt 0.543457 0.115723
vt 0.503418 0.119844
vt 0.698535 0.119844
vt 0.698535 0.123535
vt 0.503418 0.123535
vt 0.684277 0.115723
vt 0.615723 0.115723
vt 0.615723 0.112031
vt 0.684277 0.112031
vt 0.70166 0.119844
vt 0.896777 0.119844
vt 0.896777 0.123535
vt 0.70166 0.123535
vt 0.146973 0.020854
vt 0.215527 0.020854
vt 0.214736 0.021973
vt 0.147764 0.021973
vt 0.915332 0.046387
vt 0.720215 0.046387
vt 0.721006 0.045268
vt 0.914541 0.045268
vt 0.287793 0.021973
vt 0.219238 0.021973
vt 0.220029 0.020854
vt 0.287002 0.020854
vt 0.002441 0.040385
vt 0.197559 0.040385
vt 0.196768 0.041504
vt 0.003232 0.041504
vt 0.791504 0.38623
vt 0.791504 0.319258
vt 0.985039 0.319258
vt 0.985039 0.319258
vt 0.985039 0.38623
vt 0.791504 0.38623
vt 0.002441 0.248945
vt 0.195977 0.248945
vt 0.195977 0.315918
vt 0.195977 0.315918
vt 0.002441 0.315918
vt 0.002441 0.248945
vt 0.003232 0.035502
vt 0.070205 0.035502
vt 0.070996 0.036621
vt 0.002441 0.036621
vt 0.522764 0.045268
vt 0.716299 0.045268
vt 0.71709 0.046387
vt 0.521973 0.046387
vt 0.485244 0.007324
vt 0.418271 0.007324
vt 0.41748 0.006206
vt 0.486035 0.006206
vt 0.39501 0.01709
vt 0.201475 0.01709
vt 0.200684 0.015971
vt 0.395801 0.015971
vt 0.687988 0.112031
vt 0.756543 0.112031
vt 0.756543 0.115723
vt 0.687988 0.115723
vt 0.002441 0.112031
vt 0.197559 0.112031
vt 0.197559 0.115723
vt 0.002441 0.115723
vt 0.828809 0.115723
vt 0.760254 0.115723
vt 0.760254 0.112031
vt 0.828809 0.112031
vt 0.200684 0.112031
vt 0.395801 0.112031
vt 0.395801 0.115723
vt 0.200684 0.115723
vt 0.489746 0.006206
vt 0.558301 0.006206
vt 0.55751 0.007324
vt 0.490537 0.007324
vt 0.594043 0.01709
vt 0.398926 0.01709
vt 0.399717 0.015971
vt 0.593252 0.015971
vt 0.143262 0.036621
vt 0.074707 0.036621
vt 0.075498 0.035502
vt 0.142471 0.035502
vt 0.597168 0.011088
vt 0.792285 0.011088
vt 0.791494 0.012207
vt 0.597959 0.012207
vt 0.199707 0.315918
vt 0.199707 0.248945
vt 0.393242 0.248945
vt 0.393242 0.248945
vt 0.393242 0.315918
vt 0.199707 0.315918
vt 0.396973 0.248945
vt 0.590508 0.248945
vt 0.590508 0.315918
vt 0.590508 0.315918
vt 0.396973 0.315918
vt 0.396973 0.248945
vn -0.707107 -0.707107 0
vn 0 -0.707107 0.707107
vn 0.707107 -0.707107 0
vn 0 -0.707107 -0.707107
vn -1 0 0
vn 0 0 1
vn 1 0 0
vn 0 0 -1
vn -0.707107 0.707107 0
vn 0 0.707107 0.707107
vn 0.707107 0.707107 0
vn 0 0.707107 -0.707107
vn 0 -1 0
vn 0 1 0
f 249/585/91 250/586/91 254/587/91 253/588/91
f 250/589/92 251/590/92 255/591/92 254/592/92
f 251/593/93 252/594/93 256/595/93 255/596/93
f 252/597/94 249/598/94 253/599/94 256/600/94
f 253/601/95 254/602/95 258/603/95 257/604/95
f 254/605/96 255/606/96 259/607/96 258/608/96
f 255/609/97 256/610/97 260/611/97 259/612/97
f 256/613/98 253/614/98 257/615/98 260/616/98
f 257/617/99 258/618/99 262/619/99 261/620/99
f 258/621/100 259/622/100 263/623/100 262/624/100
f 259/625/101 260/626/101 264/627/101 263/628/101
f 260/629/102 257/630/102 261/631/102 264/632/102
f 266/633/103 265/634/103 268/635/103
f 268/636/103 267/637/103 266/638/103
f 272/639/104 269/640/104 270/641/104
f 270/642/104 271/643/104 272/644/104
f 273/645/91 274/646/91 278/647/91 277/648/91
f 274/649/92 275/650/92 279/651/92 278/652/92
f 275/653/93 276/654/93 280/655/93 279/656/93
f 276/657/94 273/658/94 277/659/94 280/660/94
f 277/661/95 278/662/95 282/663/95 281/664/95
f 278/665/96 279/666/96 283/667/96 282/668/96
f 279/669/97 280/670/97 284/671/97 283/672/97
f 280/673/98 277/674/98 281/675/98 284/676/98
f 281/677/99 282/678/99 286/679/99 285/680/99
f 282/681/100 283/682/100 287/683/100 286/684/100
f 283/685/101 284/686/101 288/687/101 287/688/101
f 284/689/102 281/690/102 285/691/102 288/692/102
f 290/693/103 289/694/103 292/695/103
f 292/696/103 291/697/103 290/698/103
f 296/699/104 293/700/104 294/701/104
f 294/702/104 295/703/104 296/704/104
f 297/705/91 298/706/91 302/707/91 301/708/91
f 298/709/92 299/710/92 303/711/92 302/712/92
f 299/713/93 300/714/93 304/715/93 303/716/93
f 300/717/94 297/718/94 301/719/94 304/720/94
f 301/721/95 302/722/95 306/723/95 305/724/95
f 302/725/96 303/726/96 307/727/96 306/728/96
f 303/729/97 304/730/97 308/731/97 307/732/97
f 304/733/98 301/734/98 305/735/98 308/736/98
f 305/737/99 306/738/99 310/739/99 309/740/99
f 306/741/100 307/742/100 311/743/100 310/744/100
f 307/745/101 308/746/101 312/747/101 311/748/101
f 308/749/102 305/750/102 309/751/102 312/752/102
f 314/753/103 313/754/103 316/755/103
f 316/756/103 315/757/103 314/758/103
f 320/759/104 317/760/104 318/761/104
f 318/762/104 319/763/104 320/764/104
f 321/765/91 322/766/91 326/767/91 325/768/91
f 322/769/92 323/770/92 327/771/92 326/772/92
f 323/773/93 324/774/93 328/775/93 327/776/93
f 324/777/94 321/778/94 325/779/94 328/780/94
f 325/781/95 326/782/95 330/783/95 329/784/95
f 326/785/96 327/786/96 331/787/96 330/788/96
f 327/789/97 328/790/97 332/791/97 331/792/97
f 328/793/98 325/794/98 329/795/98 332/796/98
f 329/797/99 330/798/99 334/799/99 333/800/99
f 330/801/100 331/802/100 335/803/100 334/804/100
f 331/805/101 332/806/101 336/807/101 335/808/101
f 332/809/102 329/810/102 333/811/102 336/812/102
f 338/813/103 337/814/103 340/815/103
f 340/816/103 339/817/103 338/818/103
f 344/819/104 341/820/104 342/821/104
f 342/822/104 343/823/104 344/824/104
o back_bar_price_channels
usemtl back_bar
v 0.04125 0.81625 0.6
v 0.95875 0.81625 0.6
v 0.95875 0.8775 0.6
v 0.04125 0.8775 0.6
v 0.0375 0.8125 0.60375
v 0.9625 0.8125 0.60375
v 0.9625 0.88125 0.60375
v 0.0375 0.88125 0.60375
v 0.0375 0.8125 0.62125
v 0.9625 0.8125 0.62125
v 0.9625 0.88125 0.62125
v 0.0375 0.88125 0.62125
v 0.04125 0.81625 0.625
v 0.95875 0.81625 0.625
v 0.95875 0.8775 0.625
v 0.04125 0.8775 0.625
v 0.04125 0.81625 0.6
v 0.95875 0.81625 0.6
v 0.95875 0.8775 0.6
v 0.04125 0.8775 0.6
v 0.04125 0.81625 0.625
v 0.95875 0.81625 0.625
v 0.95875 0.8775 0.625
v 0.04125 0.8775 0.625
v 0.04125 1.085 0.6
v 0.95875 1.085 0.6
v 0.95875 1.14625 0.6
v 0.04125 1.14625 0.6
v 0.0375 1.08125 0.60375
v 0.9625 1.08125 0.60375
v 0.9625 1.15 0.60375
v 0.0375 1.15 0.60375
v 0.0375 1.08125 0.62125
v 0.9625 1.08125 0.62125
v 0.9625 1.15 0.62125
v 0.0375 1.15 0.62125
v 0.04125 1.085 0.625
v 0.95875 1.085 0.625
v 0.95875 1.14625 0.625
v 0.04125 1.14625 0.625
v 0.04125 1.085 0.6
v 0.95875 1.085 0.6
v 0.95875 1.14625 0.6
v 0.04125 1.14625 0.6
v 0.04125 1.085 0.625
v 0.95875 1.085 0.625
v 0.95875 1.14625 0.625
v 0.04125 1.14625 0.625
v 0.04125 1.35375 0.6
v 0.95875 1.35375 0.6
v 0.95875 1.415 0.6
v 0.04125 1.415 0.6
v 0.0375 1.35 0.60375
v 0.9625 1.35 0.60375
v 0.9625 1.41875 0.60375
v 0.0375 1.41875 0.60375
v 0.0375 1.35 0.62125
v 0.9625 1.35 0.62125
v 0.9625 1.41875 0.62125
v 0.0375 1.41875 0.62125
v 0.04125 1.35375 0.625
v 0.95875 1.35375 0.625
v 0.95875 1.415 0.625
v 0.04125 1.415 0.625
v 0.04125 1.35375 0.6
v 0.95875 1.35375 0.6
v 0.95875 1.415 0.6
v 0.04125 1.415 0.6
v 0.04125 1.35375 0.625
v 0.95875 1.35375 0.625
v 0.95875 1.415 0.625
v 0.04125 1.415 0.625
v 0.04125 1.6225 0.6
v 0.95875 1.6225 0.6
v 0.95875 1.68375 0.6
v 0.04125 1.68375 0.6
v 0.0375 1.61875 0.60375
v 0.9625 1.61875 0.60375
v 0.9625 1.6875 0.60375
v 0.0375 1.6875 0.60375
v 0.0375 1.61875 0.62125
v 0.9625 1.61875 0.62125
v 0.9625 1.6875 0.62125
v 0.0375 1.6875 0.62125
v 0.04125 1.6225 0.625
v 0.95875 1.6225 0.625
v 0.95875 1.68375 0.625
v 0.04125 1.68375 0.625
v 0.04125 1.6225 0.6
v 0.95875 1.6225 0.6
v 0.95875 1.68375 0.6
v 0.04125 1.68375 0.6
v 0.04125 1.6225 0.625
v 0.95875 1.6225 0.625
v 0.95875 1.68375 0.625
v 0.04125 1.68375 0.625
vt 0.399717 0.03062
vt 0.593252 0.03062
vt 0.594043 0.031738
vt 0.398926 0.031738
vt 0.327451 0.020854
vt 0.340371 0.020854
vt 0.341162 0.021973
vt 0.32666 0.021973
vt 0.597959 0.03062
vt 0.791494 0.03062
vt 0.792285 0.031738
vt 0.597168 0.031738
vt 0.345029 0.020854
vt 0.357949 0.020854
vt 0.35874 0.021973
vt 0.344238 0.021973
vt 0.002441 0.105195
vt 0.197559 0.105195
vt 0.197559 0.108887
vt 0.002441 0.108887
vt 0.702637 0.098359
vt 0.717139 0.098359
vt 0.717139 0.102051
vt 0.702637 0.102051
vt 0.200684 0.105195
vt 0.395801 0.105195
vt 0.395801 0.108887
vt 0.200684 0.108887
vt 0.720215 0.098359
vt 0.734717 0.098359
vt 0.734717 0.102051
vt 0.720215 0.102051
vt 0.79541 0.03062
vt 0.990527 0.03062
vt 0.989736 0.031738
vt 0.796201 0.031738
vt 0.361816 0.020854
vt 0.376318 0.020854
vt 0.375527 0.021973
vt 0.362607 0.021973
vt 0.002441 0.025737
vt 0.197559 0.025737
vt 0.196768 0.026855
vt 0.003232 0.026855
vt 0.379395 0.020854
vt 0.393896 0.020854
vt 0.393105 0.021973
vt 0.380186 0.021973
vt 0.791504 0.187764
vt 0.985039 0.187764
vt 0.985039 0.200684
vt 0.985039 0.200684
vt 0.791504 0.200684
vt 0.791504 0.187764
vt 0.002441 0.184082
vt 0.002441 0.171162
vt 0.195977 0.171162
vt 0.195977 0.171162
vt 0.195977 0.184082
vt 0.002441 0.184082
vt 0.201475 0.025737
vt 0.39501 0.025737
vt 0.395801 0.026855
vt 0.200684 0.026855
vt 0.292295 0.020854
vt 0.305215 0.020854
vt 0.306006 0.021973
vt 0.291504 0.021973
vt 0.796201 0.011088
vt 0.989736 0.011088
vt 0.990527 0.012207
vt 0.79541 0.012207
vt 0.309873 0.020854
vt 0.322793 0.020854
vt 0.323584 0.021973
vt 0.309082 0.021973
vt 0.398926 0.105195
vt 0.594043 0.105195
vt 0.594043 0.108887
vt 0.398926 0.108887
vt 0.597168 0.098359
vt 0.61167 0.098359
vt 0.61167 0.102051
vt 0.597168 0.102051
vt 0.597168 0.105195
vt 0.792285 0.105195
vt 0.792285 0.108887
vt 0.597168 0.108887
vt 0.614746 0.098359
vt 0.629248 0.098359
vt 0.629248 0.102051
vt 0.614746 0.102051
vt 0.398926 0.025737
vt 0.594043 0.025737
vt 0.593252 0.026855
vt 0.399717 0.026855
vt 0.432129 0.035502
vt 0.446631 0.035502
vt 0.44584 0.036621
vt 0.43292 0.036621
vt 0.002441 0.006206
vt 0.197559 0.006206
vt 0.196768 0.007324
vt 0.003232 0.007324
vt 0.449707 0.035502
vt 0.464209 0.035502
vt 0.463418 0.036621
vt 0.450498 0.036621
vt 0.430176 0.205342
vt 0.623711 0.205342
vt 0.623711 0.218262
vt 0.623711 0.218262
vt 0.430176 0.218262
vt 0.430176 0.205342
vt 0.627441 0.218262
vt 0.627441 0.205342
vt 0.820977 0.205342
vt 0.820977 0.205342
vt 0.820977 0.218262
vt 0.627441 0.218262
vt 0.597959 0.015971
vt 0.791494 0.015971
vt 0.792285 0.01709
vt 0.597168 0.01709
vt 0.292295 0.035502
vt 0.305215 0.035502
vt 0.306006 0.036621
vt 0.291504 0.036621
vt 0.201475 0.040385
vt 0.39501 0.040385
vt 0.395801 0.041504
vt 0.200684 0.041504
vt 0.309873 0.035502
vt 0.322793 0.035502
vt 0.323584 0.036621
vt 0.309082 0.036621
vt 0.79541 0.105195
vt 0.990527 0.105195
vt 0.990527 0.108887
vt 0.79541 0.108887
vt 0.632324 0.098359
vt 0.646826 0.098359
vt 0.646826 0.102051
vt 0.632324 0.102051
vt 0.002441 0.098359
vt 0.197559 0.098359
vt 0.197559 0.102051
vt 0.002441 0.102051
vt 0.649902 0.098359
vt 0.664404 0.098359
vt 0.664404 0.102051
vt 0.649902 0.102051
vt 0.79541 0.015971
vt 0.990527 0.015971
vt 0.989736 0.01709
vt 0.796201 0.01709
vt 0.32666 0.035502
vt 0.341162 0.035502
vt 0.340371 0.036621
vt 0.327451 0.036621
vt 0.398926 0.040385
vt 0.594043 0.040385
vt 0.593252 0.041504
vt 0.399717 0.041504
vt 0.344238 0.035502
vt 0.35874 0.035502
vt 0.357949 0.036621
vt 0.345029 0.036621
vt 0.002441 0.187764
vt 0.195977 0.187764
vt 0.195977 0.200684
vt 0.195977 0.200684
vt 0.002441 0.200684
vt 0.002441 0.187764
vt 0.199707 0.200684
vt 0.199707 0.187764
vt 0.393242 0.187764
vt 0.393242 0.187764
vt 0.393242 0.200684
vt 0.199707 0.200684
vt 0.003232 0.011088
vt 0.196768 0.011088
vt 0.197559 0.012207
vt 0.002441 0.012207
vt 0.362607 0.035502
vt 0.375527 0.035502
vt 0.376318 0.036621
vt 0.361816 0.036621
vt 0.201475 0.011088
vt 0.39501 0.011088
vt 0.395801 0.012207
vt 0.200684 0.012207
vt 0.380186 0.035502
vt 0.393105 0.035502
vt 0.393896 0.036621
vt 0.379395 0.036621
vt 0.200684 0.098359
vt 0.395801 0.098359
vt 0.395801 0.102051
vt 0.200684 0.102051
vt 0.66748 0.098359
vt 0.681982 0.098359
vt 0.681982 0.102051
vt 0.66748 0.102051
vt 0.398926 0.098359
vt 0.594043 0.098359
vt 0.594043 0.102051
vt 0.398926 0.102051
vt 0.685059 0.098359
vt 0.699561 0.098359
vt 0.699561 0.102051
vt 0.685059 0.102051
vt 0.562012 0.006206
vt 0.757129 0.006206
vt 0.756338 0.007324
vt 0.562803 0.007324
vt 0.396973 0.035502
vt 0.411475 0.035502
vt 0.410684 0.036621
vt 0.397764 0.036621
vt 0.398926 0.011088
vt 0.594043 0.011088
vt 0.593252 0.012207
vt 0.399717 0.012207
vt 0.414551 0.035502
vt 0.429053 0.035502
vt 0.428262 0.036621
vt 0.415342 0.036621
vt 0.396973 0.187764
vt 0.590508 0.187764
vt 0.590508 0.200684
vt 0.590508 0.200684
vt 0.396973 0.200684
vt 0.396973 0.187764
vt 0.594238 0.200684
vt 0.594238 0.187764
vt 0.787773 0.187764
vt 0.787773 0.187764
vt 0.787773 0.200684
vt 0.594238 0.200684
vn 0 -0.707107 -0.707107
vn 0.707107 0 -0.707107
vn 0 0.707107 -0.707107
vn -0.707107 0 -0.707107
vn 0 -1 0
vn 1 0 0
vn 0 1 0
vn -1 0 0
vn 0 -0.707107 0.707107
vn 0.707107 0 0.707107
vn 0 0.707107 0.707107
vn -0.707107 0 0.707107
vn 0 0 -1
vn 0 0 1
f 345/825/105 346/826/105 350/827/105 349/828/105
f 346/829/106 347/830/106 351/831/106 350/832/106
f 347/833/107 348/834/107 352/835/107 351/836/107
f 348/837/108 345/838/108 349/839/108 352/840/108
f 349/841/109 350/842/109 354/843/109 353/844/109
f 350/845/110 351/846/110 355/847/110 354/848/110
f 351/849/111 352/850/111 356/851/111 355/852/111
f 352/853/112 349/854/112 353/855/112 356/856/112
f 353/857/113 354/858/113 358/859/113 357/860/113
f 354/861/114 355/862/114 359/863/114 358/864/114
f 355/865/115 356/866/115 360/867/115 359/868/115
f 356/869/116 353/870/116 357/871/116 360/872/116
f 362/873/117 361/874/117 364/875/117
f 364/876/117 363/877/117 362/878/117
f 368/879/118 365/880/118 366/881/118
f 366/882/118 367/883/118 368/884/118
f 369/885/105 370/886/105 374/887/105 373/888/105
f 370/889/106 371/890/106 375/891/106 374/892/106
f 371/893/107 372/894/107 376/895/107 375/896/107
f 372/897/108 369/898/108 373/899/108 376/900/108
f 373/901/109 374/902/109 378/903/109 377/904/109
f 374/905/110 375/906/110 379/907/110 378/908/110
f 375/909/111 376/910/111 380/911/111 379/912/111
f 376/913/112 373/914/112 377/915/112 380/916/112
f 377/917/113 378/918/113 382/919/113 381/920/113
f 378/921/114 379/922/114 383/923/114 382/924/114
f 379/925/115 380/926/115 384/927/115 383/928/115
f 380/929/116 377/930/116 381/931/116 384/932/116
f 386/933/117 385/934/117 388/935/117
f 388/936/117 387/937/117 386/938/117
f 392/939/118 389/940/118 390/941/118
f 390/942/118 391/943/118 392/944/118
f 393/945/105 394/946/105 398/947/105 397/948/105
f 394/949/106 395/950/106 399/951/106 398/952/106
f 395/953/107 396/954/107 400/955/107 399/956/107
f 396/957/108 393/958/108 397/959/108 400/960/108
f 397/961/109 398/962/109 402/963/109 401/964/109
f 398/965/110 399/966/110 403/967/110 402/968/110
f 399/969/111 400/970/111 404/971/111 403/972/111
f 400/973/112 397/974/112 401/975/112 404/976/112
f 401/977/113 402/978/113 406/979/113 405/980/113
f 402/981/114 403/982/114 407/983/114 406/984/114
f 403/985/115 404/986/115 408/987/115 407/988/115
f 404/989/116 401/990/116 405/991/116 408/992/116
f 410/993/117 409/994/117 412/995/117
f 412/996/117 411/997/117 410/998/117
f 416/999/118 413/1000/118 414/1001/118
f 414/1002/118 415/1003/118 416/1004/118
f 417/1005/105 418/1006/105 422/1007/105 421/1008/105
f 418/1009/106 419/1010/106 423/1011/106 422/1012/106
f 419/1013/107 420/1014/107 424/1015/107 423/1016/107
f 420/1017/108 417/1018/108 421/1019/108 424/1020/108
f 421/1021/109 422/1022/109 426/1023/109 425/1024/109
f 422/1025/110 423/1026/110 427/1027/110 426/1028/110
f 423/1029/111 424/1030/111 428/1031/111 427/1032/111
f 424/1033/112 421/1034/112 425/1035/112 428/1036/112
f 425/1037/113 426/1038/113 430/1039/113 429/1040/113
f 426/1041/114 427/1042/114 431/1043/114 430/1044/114
f 427/1045/115 428/1046/115 432/1047/115 431/1048/115
f 428/1049/116 425/1050/116 429/1051/116 432/1052/116
f 434/1053/117 433/1054/117 436/1055/117
f 436/1056/117 435/1057/117 434/1058/117
f 440/1059/118 437/1060/118 438/1061/118
f 438/1062/118 439/1063/118 440/1064/118
o back_bar_header
usemtl back_bar
v 0.00625 1.88125 0.575
v 0.99375 1.88125 0.575
v 0.99375 1.99375 0.575
v 0.00625 1.99375 0.575
v 0 1.875 0.58125
v 1 1.875 0.58125
v 1 2 0.58125
v 0 2 0.58125
v 0 1.875 0.94375
v 1 1.875 0.94375
v 1 2 0.94375
v 0 2 0.94375
v 0.00625 1.88125 0.95
v 0.99375 1.88125 0.95
v 0.99375 1.99375 0.95
v 0.00625 1.99375 0.95
v 0.00625 1.88125 0.575
v 0.99375 1.88125 0.575
v 0.99375 1.99375 0.575
v 0.00625 1.99375 0.575
v 0.00625 1.88125 0.95
v 0.99375 1.88125 0.95
v 0.99375 1.99375 0.95
v 0.00625 1.99375 0.95
vt 0.322119 0.074796
vt 0.53042 0.074796
vt 0.531738 0.07666
vt 0.320801 0.07666
vt 0.083838 0.044522
vt 0.107568 0.044522
vt 0.108887 0.046387
vt 0.08252 0.046387
vt 0.00376 0.068936
vt 0.212061 0.068936
vt 0.213379 0.070801
vt 0.002441 0.070801
vt 0.113135 0.044522
vt 0.136865 0.044522
vt 0.138184 0.046387
vt 0.111816 0.046387
vt 0.510254 0.389844
vt 0.721191 0.389844
vt 0.721191 0.466309
vt 0.510254 0.466309
vt 0.594238 0.315918
vt 0.594238 0.289551
vt 0.670703 0.289551
vt 0.670703 0.315918
vt 0.724121 0.389844
vt 0.935059 0.389844
vt 0.935059 0.466309
vt 0.724121 0.466309
vt 0.674316 0.315918
vt 0.674316 0.289551
vt 0.750781 0.289551
vt 0.750781 0.315918
vt 0.534668 0.074796
vt 0.745605 0.074796
vt 0.744287 0.07666
vt 0.535986 0.07666
vt 0.314941 0.044522
vt 0.341309 0.044522
vt 0.33999 0.046387
vt 0.31626 0.046387
vt 0.748535 0.074796
vt 0.959473 0.074796
vt 0.958154 0.07666
vt 0.749854 0.07666
vt 0.344238 0.044522
vt 0.370605 0.044522
vt 0.369287 0.046387
vt 0.345557 0.046387
vt 0.754395 0.292188
vt 0.962695 0.292188
vt 0.962695 0.315918
vt 0.962695 0.315918
vt 0.754395 0.315918
vt 0.754395 0.292188
vt 0.002441 0.245605
vt 0.002441 0.221875
vt 0.210742 0.221875
vt 0.210742 0.221875
vt 0.210742 0.245605
vt 0.002441 0.245605
vn 0 -0.707107 -0.707107
vn 0.707107 0 -0.707107
vn 0 0.707107 -0.707107
vn -0.707107 0 -0.707107
vn 0 -1 0
vn 1 0 0
vn 0 1 0
vn -1 0 0
vn 0 -0.707107 0.707107
vn 0.707107 0 0.707107
vn 0 0.707107 0.707107
vn -0.707107 0 0.707107
vn 0 0 -1
vn 0 0 1
f 441/1065/119 442/1066/119 446/1067/119 445/1068/119
f 442/1069/120 443/1070/120 447/1071/120 446/1072/120
f 443/1073/121 444/1074/121 448/1075/121 447/1076/121
f 444/1077/122 441/1078/122 445/1079/122 448/1080/122
f 445/1081/123 446/1082/123 450/1083/123 449/1084/123
f 446/1085/124 447/1086/124 451/1087/124 450/1088/124
f 447/1089/125 448/1090/125 452/1091/125 451/1092/125
f 448/1093/126 445/1094/126 449/1095/126 452/1096/126
f 449/1097/127 450/1098/127 454/1099/127 453/1100/127
f 450/1101/128 451/1102/128 455/1103/128 454/1104/128
f 451/1105/129 452/1106/129 456/1107/129 455/1108/129
f 452/1109/130 449/1110/130 453/1111/130 456/1112/130
f 458/1113/131 457/1114/131 460/1115/131
f 460/1116/131 459/1117/131 458/1118/131
f 464/1119/132 461/1120/132 462/1121/132
f 462/1122/132 463/1123/132 464/1124/132
