# AFL Site Lighting V1 light pole segment with the hand hole, generated by tools/build-site-lighting-v1.mjs
mtllib handhole.mtl
o shaft
usemtl pole
v 0.5635 0 0.4485
v 0.561892 0 0.4425
v 0.5575 0 0.438108
v 0.5515 0 0.4365
v 0.4485 0 0.4365
v 0.4425 0 0.438108
v 0.438108 0 0.4425
v 0.4365 0 0.4485
v 0.4365 0 0.5515
v 0.438108 0 0.5575
v 0.4425 0 0.561892
v 0.4485 0 0.5635
v 0.5515 0 0.5635
v 0.5575 0 0.561892
v 0.561892 0 0.5575
v 0.5635 0 0.5515
v 0.5635 1 0.4485
v 0.561892 1 0.4425
v 0.5575 1 0.438108
v 0.5515 1 0.4365
v 0.4485 1 0.4365
v 0.4425 1 0.438108
v 0.438108 1 0.4425
v 0.4365 1 0.4485
v 0.4365 1 0.5515
v 0.438108 1 0.5575
v 0.4425 1 0.561892
v 0.4485 1 0.5635
v 0.5515 1 0.5635
v 0.5575 1 0.561892
v 0.561892 1 0.5575
v 0.5635 1 0.5515
v 0.5635 0 0.4485
v 0.561892 0 0.4425
v 0.5575 0 0.438108
v 0.5515 0 0.4365
v 0.4485 0 0.4365
v 0.4425 0 0.438108
v 0.438108 0 0.4425
v 0.4365 0 0.4485
v 0.4365 0 0.5515
v 0.438108 0 0.5575
v 0.4425 0 0.561892
v 0.4485 0 0.5635
v 0.5515 0 0.5635
v 0.5575 0 0.561892
v 0.561892 0 0.5575
v 0.5635 0 0.5515
v 0.5635 1 0.4485
v 0.561892 1 0.4425
v 0.5575 1 0.438108
v 0.5515 1 0.4365
v 0.4485 1 0.4365
v 0.4425 1 0.438108
v 0.438108 1 0.4425
v 0.4365 1 0.4485
v 0.4365 1 0.5515
v 0.438108 1 0.5575
v 0.4425 1 0.561892
v 0.4485 1 0.5635
v 0.5515 1 0.5635
v 0.5575 1 0.561892
v 0.561892 1 0.5575
v 0.5635 1 0.5515
vt 0.009766 0.318359
vt 0.009766 0.312342
vt 0.978516 0.312342
vt 0.978516 0.318359
vt 0.009766 0.220703
vt 0.009766 0.214686
vt 0.978516 0.214686
vt 0.978516 0.220703
vt 0.009766 0.298828
vt 0.009766 0.292811
vt 0.978516 0.292811
vt 0.978516 0.298828
vt 0.009766 0.853516
vt 0.009766 0.753734
vt 0.978516 0.753734
vt 0.978516 0.853516
vt 0.009766 0.279297
vt 0.009766 0.273279
vt 0.978516 0.273279
vt 0.978516 0.279297
vt 0.978516 0.097498
vt 0.978516 0.103516
vt 0.009766 0.103516
vt 0.009766 0.097498
vt 0.978516 0.195154
vt 0.978516 0.201172
vt 0.009766 0.201172
vt 0.009766 0.195154
vt 0.978516 0.640453
vt 0.978516 0.740234
vt 0.009766 0.740234
vt 0.009766 0.640453
vt 0.978516 0.175623
vt 0.978516 0.181641
vt 0.009766 0.181641
vt 0.009766 0.175623
vt 0.978516 0.156092
vt 0.978516 0.162109
vt 0.009766 0.162109
vt 0.009766 0.156092
vt 0.009766 0.259766
vt 0.009766 0.253748
vt 0.978516 0.253748
vt 0.978516 0.259766
vt 0.009766 0.626953
vt 0.009766 0.527172
vt 0.978516 0.527172
vt 0.978516 0.626953
vt 0.009766 0.240234
vt 0.009766 0.234217
vt 0.978516 0.234217
vt 0.978516 0.240234
vt 0.009766 0.142578
vt 0.009766 0.136561
vt 0.978516 0.136561
vt 0.978516 0.142578
vt 0.009766 0.123047
vt 0.009766 0.117029
vt 0.978516 0.117029
vt 0.978516 0.123047
vt 0.009766 0.513672
vt 0.009766 0.413891
vt 0.978516 0.413891
vt 0.978516 0.513672
vt 0.015578 0.868761
vt 0.021391 0.867203
vt 0.121172 0.867203
vt 0.011323 0.873016
vt 0.015578 0.868761
vt 0.121172 0.867203
vt 0.009766 0.878828
vt 0.011323 0.873016
vt 0.121172 0.867203
vt 0.009766 0.978609
vt 0.009766 0.878828
vt 0.121172 0.867203
vt 0.011323 0.984422
vt 0.009766 0.978609
vt 0.121172 0.867203
vt 0.015578 0.988677
vt 0.011323 0.984422
vt 0.121172 0.867203
vt 0.021391 0.990234
vt 0.015578 0.988677
vt 0.121172 0.867203
vt 0.121172 0.990234
vt 0.021391 0.990234
vt 0.121172 0.867203
vt 0.126984 0.988677
vt 0.121172 0.990234
vt 0.121172 0.867203
vt 0.131239 0.984422
vt 0.126984 0.988677
vt 0.121172 0.867203
vt 0.132797 0.978609
vt 0.131239 0.984422
vt 0.121172 0.867203
vt 0.132797 0.878828
vt 0.132797 0.978609
vt 0.121172 0.867203
vt 0.131239 0.873016
vt 0.132797 0.878828
vt 0.121172 0.867203
vt 0.121172 0.867203
vt 0.126984 0.868761
vt 0.131239 0.873016
vt 0.257891 0.990234
vt 0.158109 0.990234
vt 0.152297 0.988677
vt 0.257891 0.990234
vt 0.152297 0.988677
vt 0.148042 0.984422
vt 0.257891 0.990234
vt 0.148042 0.984422
vt 0.146484 0.978609
vt 0.257891 0.990234
vt 0.146484 0.978609
vt 0.146484 0.878828
vt 0.257891 0.990234
vt 0.146484 0.878828
vt 0.148042 0.873016
vt 0.257891 0.990234
vt 0.148042 0.873016
vt 0.152297 0.868761
vt 0.257891 0.990234
vt 0.152297 0.868761
vt 0.158109 0.867203
vt 0.257891 0.990234
vt 0.158109 0.867203
vt 0.257891 0.867203
vt 0.257891 0.990234
vt 0.257891 0.867203
vt 0.263703 0.868761
vt 0.257891 0.990234
vt 0.263703 0.868761
vt 0.267958 0.873016
vt 0.257891 0.990234
vt 0.267958 0.873016
vt 0.269516 0.878828
vt 0.257891 0.990234
vt 0.269516 0.878828
vt 0.269516 0.978609
vt 0.257891 0.990234
vt 0.269516 0.978609
vt 0.267958 0.984422
vt 0.267958 0.984422
vt 0.263703 0.988677
vt 0.257891 0.990234
vn 0.999891 0 -0.014748
vn 0.866025 0 -0.5
vn 0.5 0 -0.866025
vn 0.014748 0 -0.999891
vn -0.014748 0 -0.999891
vn -0.5 0 -0.866025
vn -0.866025 0 -0.5
vn -0.999891 0 -0.014748
vn -0.999891 0 0.014748
vn -0.866025 0 0.5
vn -0.5 0 0.866025
vn -0.014748 0 0.999891
vn 0.014748 0 0.999891
vn 0.5 0 0.866025
vn 0.866025 0 0.5
vn 0.999891 0 0.014748
vn 0 -1 0
vn 0 1 0
f 1/1/1 2/2/2 18/3/2 17/4/1
f 2/5/2 3/6/3 19/7/3 18/8/2
f 3/9/3 4/10/4 20/11/4 19/12/3
f 4/13/4 5/14/5 21/15/5 20/16/4
f 5/17/5 6/18/6 22/19/6 21/20/5
f 6/21/6 7/22/7 23/23/7 22/24/6
f 7/25/7 8/26/8 24/27/8 23/28/7
f 8/29/8 9/30/9 25/31/9 24/32/8
f 9/33/9 10/34/10 26/35/10 25/36/9
f 10/37/10 11/38/11 27/39/11 26/40/10
f 11/41/11 12/42/12 28/43/12 27/44/11
f 12/45/12 13/46/13 29/47/13 28/48/12
f 13/49/13 14/50/14 30/51/14 29/52/13
f 14/53/14 15/54/15 31/55/15 30/56/14
f 15/57/15 16/58/16 32/59/16 31/60/15
f 16/61/16 1/62/1 17/63/1 32/64/16
f 34/65/17 33/66/17 48/67/17
f 35/68/17 34/69/17 48/70/17
f 36/71/17 35/72/17 48/73/17
f 37/74/17 36/75/17 48/76/17
f 38/77/17 37/78/17 48/79/17
f 39/80/17 38/81/17 48/82/17
f 40/83/17 39/84/17 48/85/17
f 41/86/17 40/87/17 48/88/17
f 42/89/17 41/90/17 48/91/17
f 43/92/17 42/93/17 48/94/17
f 44/95/17 43/96/17 48/97/17
f 45/98/17 44/99/17 48/100/17
f 46/101/17 45/102/17 48/103/17
f 48/104/17 47/105/17 46/106/17
f 64/107/18 49/108/18 50/109/18
f 64/110/18 50/111/18 51/112/18
f 64/113/18 51/114/18 52/115/18
f 64/116/18 52/117/18 53/118/18
f 64/119/18 53/120/18 54/121/18
f 64/122/18 54/123/18 55/124/18
f 64/125/18 55/126/18 56/127/18
f 64/128/18 56/129/18 57/130/18
f 64/131/18 57/132/18 58/133/18
f 64/134/18 58/135/18 59/136/18
f 64/137/18 59/138/18 60/139/18
f 64/140/18 60/141/18 61/142/18
f 64/143/18 61/144/18 62/145/18
f 62/146/18 63/147/18 64/148/18
o handhole
usemtl pole
v 0.5348 0.386882 0.4325
v 0.533499 0.39342 0.4325
v 0.529863 0.398863 0.4325
v 0.52442 0.402499 0.4325
v 0.517882 0.4038 0.4325
v 0.482118 0.4038 0.4325
v 0.47558 0.402499 0.4325
v 0.470137 0.398863 0.4325
v 0.466501 0.39342 0.4325
v 0.4652 0.386882 0.4325
v 0.4652 0.273118 0.4325
v 0.466501 0.26658 0.4325
v 0.470137 0.261137 0.4325
v 0.47558 0.257501 0.4325
v 0.482118 0.2562 0.4325
v 0.517882 0.2562 0.4325
v 0.52442 0.257501 0.4325
v 0.529863 0.261137 0.4325
v 0.533499 0.26658 0.4325
v 0.5348 0.273118 0.4325
v 0.536 0.387 0.4337
v 0.53463 0.393888 0.4337
v 0.530728 0.399728 0.4337
v 0.524888 0.40363 0.4337
v 0.518 0.405 0.4337
v 0.482 0.405 0.4337
v 0.475112 0.40363 0.4337
v 0.469272 0.399728 0.4337
v 0.46537 0.393888 0.4337
v 0.464 0.387 0.4337
v 0.464 0.273 0.4337
v 0.46537 0.266112 0.4337
v 0.469272 0.260272 0.4337
v 0.475112 0.25637 0.4337
v 0.482 0.255 0.4337
v 0.518 0.255 0.4337
v 0.524888 0.25637 0.4337
v 0.530728 0.260272 0.4337
v 0.53463 0.266112 0.4337
v 0.536 0.273 0.4337
v 0.536 0.387 0.4359
v 0.53463 0.393888 0.4359
v 0.530728 0.399728 0.4359
v 0.524888 0.40363 0.4359
v 0.518 0.405 0.4359
v 0.482 0.405 0.4359
v 0.475112 0.40363 0.4359
v 0.469272 0.399728 0.4359
v 0.46537 0.393888 0.4359
v 0.464 0.387 0.4359
v 0.464 0.273 0.4359
v 0.46537 0.266112 0.4359
v 0.469272 0.260272 0.4359
v 0.475112 0.25637 0.4359
v 0.482 0.255 0.4359
v 0.518 0.255 0.4359
v 0.524888 0.25637 0.4359
v 0.530728 0.260272 0.4359
v 0.53463 0.266112 0.4359
v 0.536 0.273 0.4359
v 0.5348 0.386882 0.4371
v 0.533499 0.39342 0.4371
v 0.529863 0.398863 0.4371
v 0.52442 0.402499 0.4371
v 0.517882 0.4038 0.4371
v 0.482118 0.4038 0.4371
v 0.47558 0.402499 0.4371
v 0.470137 0.398863 0.4371
v 0.466501 0.39342 0.4371
v 0.4652 0.386882 0.4371
v 0.4652 0.273118 0.4371
v 0.466501 0.26658 0.4371
v 0.470137 0.261137 0.4371
v 0.47558 0.257501 0.4371
v 0.482118 0.2562 0.4371
v 0.517882 0.2562 0.4371
v 0.52442 0.257501 0.4371
v 0.529863 0.261137 0.4371
v 0.533499 0.26658 0.4371
v 0.5348 0.273118 0.4371
v 0.5348 0.386882 0.4325
v 0.533499 0.39342 0.4325
v 0.529863 0.398863 0.4325
v 0.52442 0.402499 0.4325
v 0.517882 0.4038 0.4325
v 0.482118 0.4038 0.4325
v 0.47558 0.402499 0.4325
v 0.470137 0.398863 0.4325
v 0.466501 0.39342 0.4325
v 0.4652 0.386882 0.4325
v 0.4652 0.273118 0.4325
v 0.466501 0.26658 0.4325
v 0.470137 0.261137 0.4325
v 0.47558 0.257501 0.4325
v 0.482118 0.2562 0.4325
v 0.517882 0.2562 0.4325
v 0.52442 0.257501 0.4325
v 0.529863 0.261137 0.4325
v 0.533499 0.26658 0.4325
v 0.5348 0.273118 0.4325
v 0.5348 0.386882 0.4371
v 0.533499 0.39342 0.4371
v 0.529863 0.398863 0.4371
v 0.52442 0.402499 0.4371
v 0.517882 0.4038 0.4371
v 0.482118 0.4038 0.4371
v 0.47558 0.402499 0.4371
v 0.470137 0.398863 0.4371
v 0.466501 0.39342 0.4371
v 0.4652 0.386882 0.4371
v 0.4652 0.273118 0.4371
v 0.466501 0.26658 0.4371
v 0.470137 0.261137 0.4371
v 0.47558 0.257501 0.4371
v 0.482118 0.2562 0.4371
v 0.517882 0.2562 0.4371
v 0.52442 0.257501 0.4371
v 0.529863 0.261137 0.4371
v 0.533499 0.26658 0.4371
v 0.5348 0.273118 0.4371
vt 0.189262 0.08234
vt 0.195596 0.081444
vt 0.196049 0.08304
vt 0.189376 0.083984
vt 0.838122 0.066715
vt 0.844463 0.066715
vt 0.844694 0.068359
vt 0.837891 0.068359
vt 0.857653 0.066715
vt 0.863994 0.066715
vt 0.864226 0.068359
vt 0.857422 0.068359
vt 0.209438 0.081444
vt 0.215772 0.08234
vt 0.215657 0.083984
vt 0.208984 0.08304
vt 0.215772 0.08234
vt 0.250418 0.08234
vt 0.250532 0.083984
vt 0.215657 0.083984
vt 0.250418 0.08234
vt 0.256752 0.081444
vt 0.257205 0.08304
vt 0.250532 0.083984
vt 0.955309 0.066715
vt 0.961651 0.066715
vt 0.961882 0.068359
vt 0.955078 0.068359
vt 0.799059 0.066715
vt 0.805401 0.066715
vt 0.805632 0.068359
vt 0.798828 0.068359
vt 0.607875 0.081444
vt 0.614209 0.08234
vt 0.614095 0.083984
vt 0.607422 0.08304
vt 0.614209 0.08234
vt 0.724418 0.08234
vt 0.724532 0.083984
vt 0.614095 0.083984
vt 0.724418 0.08234
vt 0.730752 0.081444
vt 0.731205 0.08304
vt 0.724532 0.083984
vt 0.877184 0.066715
vt 0.883526 0.066715
vt 0.883757 0.068359
vt 0.876953 0.068359
vt 0.896716 0.066715
vt 0.903057 0.066715
vt 0.903288 0.068359
vt 0.896484 0.068359
vt 0.271938 0.081444
vt 0.278272 0.08234
vt 0.278157 0.083984
vt 0.271484 0.08304
vt 0.278272 0.08234
vt 0.312918 0.08234
vt 0.313032 0.083984
vt 0.278157 0.083984
vt 0.312918 0.08234
vt 0.319252 0.081444
vt 0.319705 0.08304
vt 0.313032 0.083984
vt 0.029528 0.05109
vt 0.035869 0.05109
vt 0.036101 0.052734
vt 0.029297 0.052734
vt 0.049059 0.05109
vt 0.055401 0.05109
vt 0.055632 0.052734
vt 0.048828 0.052734
vt 0.072719 0.081444
vt 0.079053 0.08234
vt 0.078939 0.083984
vt 0.072266 0.08304
vt 0.079053 0.08234
vt 0.189262 0.08234
vt 0.189376 0.083984
vt 0.078939 0.083984
vt 0.307171 0.066228
vt 0.313942 0.066228
vt 0.313942 0.068359
vt 0.307171 0.068359
vt 0.564453 0.066228
vt 0.571257 0.066228
vt 0.571257 0.068359
vt 0.564453 0.068359
vt 0.701172 0.066228
vt 0.707976 0.066228
vt 0.707976 0.068359
vt 0.701172 0.068359
vt 0.455078 0.066228
vt 0.461849 0.066228
vt 0.461849 0.068359
vt 0.455078 0.068359
vt 0.461849 0.066228
vt 0.496556 0.066228
vt 0.496556 0.068359
vt 0.461849 0.068359
vt 0.681641 0.066228
vt 0.688444 0.066228
vt 0.688444 0.068359
vt 0.681641 0.068359
vt 0.720703 0.066228
vt 0.727507 0.066228
vt 0.727507 0.068359
vt 0.720703 0.068359
vt 0.583984 0.066228
vt 0.590788 0.066228
vt 0.590788 0.068359
vt 0.583984 0.068359
vt 0.326172 0.066228
vt 0.332943 0.066228
vt 0.332943 0.068359
vt 0.326172 0.068359
vt 0.332943 0.066228
vt 0.442849 0.066228
vt 0.442849 0.068359
vt 0.332943 0.068359
vt 0.740234 0.066228
vt 0.747038 0.066228
vt 0.747038 0.068359
vt 0.740234 0.068359
vt 0.642578 0.066228
vt 0.649382 0.066228
vt 0.649382 0.068359
vt 0.642578 0.068359
vt 0.603516 0.066228
vt 0.610319 0.066228
vt 0.610319 0.068359
vt 0.603516 0.068359
vt 0.509766 0.066228
vt 0.516537 0.066228
vt 0.516537 0.068359
vt 0.509766 0.068359
vt 0.516537 0.066228
vt 0.551244 0.066228
vt 0.551244 0.068359
vt 0.516537 0.068359
vt 0.623047 0.066228
vt 0.629851 0.066228
vt 0.629851 0.068359
vt 0.623047 0.068359
vt 0.759766 0.066228
vt 0.766569 0.066228
vt 0.766569 0.068359
vt 0.759766 0.068359
vt 0.662109 0.066228
vt 0.668913 0.066228
vt 0.668913 0.068359
vt 0.662109 0.068359
vt 0.779297 0.066228
vt 0.786101 0.066228
vt 0.786101 0.068359
vt 0.779297 0.068359
vt 0.197266 0.066228
vt 0.307171 0.066228
vt 0.307171 0.068359
vt 0.197266 0.068359
vt 0.587814 0.081444
vt 0.594487 0.082388
vt 0.594033 0.083984
vt 0.587699 0.083088
vt 0.068359 0.05109
vt 0.075163 0.05109
vt 0.074932 0.052734
vt 0.068591 0.052734
vt 0.107422 0.05109
vt 0.114226 0.05109
vt 0.113994 0.052734
vt 0.107653 0.052734
vt 0.009766 0.082388
vt 0.016439 0.081444
vt 0.016553 0.083088
vt 0.010219 0.083984
vt 0.016439 0.081444
vt 0.051314 0.081444
vt 0.051199 0.083088
vt 0.016553 0.083088
vt 0.051314 0.081444
vt 0.057987 0.082388
vt 0.057533 0.083984
vt 0.051199 0.083088
vt 0.916016 0.066715
vt 0.922819 0.066715
vt 0.922588 0.068359
vt 0.916247 0.068359
vt 0.818359 0.066715
vt 0.825163 0.066715
vt 0.824932 0.068359
vt 0.818591 0.068359
vt 0.333984 0.082388
vt 0.340657 0.081444
vt 0.340772 0.083088
vt 0.334438 0.083984
vt 0.340657 0.081444
vt 0.451095 0.081444
vt 0.45098 0.083088
vt 0.340772 0.083088
vt 0.451095 0.081444
vt 0.457768 0.082388
vt 0.457314 0.083984
vt 0.45098 0.083088
vt 0.935547 0.066715
vt 0.942351 0.066715
vt 0.942119 0.068359
vt 0.935778 0.068359
vt 0.974609 0.066715
vt 0.981413 0.066715
vt 0.981182 0.068359
vt 0.974841 0.068359
vt 0.744141 0.082388
vt 0.750814 0.081444
vt 0.750928 0.083088
vt 0.744594 0.083984
vt 0.750814 0.081444
vt 0.785689 0.081444
vt 0.785574 0.083088
vt 0.750928 0.083088
vt 0.785689 0.081444
vt 0.792362 0.082388
vt 0.791908 0.083984
vt 0.785574 0.083088
vt 0.009766 0.05109
vt 0.016569 0.05109
vt 0.016338 0.052734
vt 0.009997 0.052734
vt 0.087891 0.05109
vt 0.094694 0.05109
vt 0.094463 0.052734
vt 0.088122 0.052734
vt 0.470703 0.082388
vt 0.477376 0.081444
vt 0.477491 0.083088
vt 0.471157 0.083984
vt 0.477376 0.081444
vt 0.587814 0.081444
vt 0.587699 0.083088
vt 0.477491 0.083088
vt 0.142698 0.399131
vt 0.136364 0.400391
vt 0.026155 0.400391
vt 0.14797 0.395608
vt 0.142698 0.399131
vt 0.026155 0.400391
vt 0.151493 0.390335
vt 0.14797 0.395608
vt 0.026155 0.400391
vt 0.152753 0.384001
vt 0.151493 0.390335
vt 0.026155 0.400391
vt 0.152753 0.349355
vt 0.152753 0.384001
vt 0.026155 0.400391
vt 0.151493 0.343021
vt 0.152753 0.349355
vt 0.026155 0.400391
vt 0.14797 0.337749
vt 0.151493 0.343021
vt 0.026155 0.400391
vt 0.142698 0.334226
vt 0.14797 0.337749
vt 0.026155 0.400391
vt 0.136364 0.332966
vt 0.142698 0.334226
vt 0.026155 0.400391
vt 0.026155 0.332966
vt 0.136364 0.332966
vt 0.026155 0.400391
vt 0.019821 0.334226
vt 0.026155 0.332966
vt 0.026155 0.400391
vt 0.014549 0.337749
vt 0.019821 0.334226
vt 0.026155 0.400391
vt 0.011026 0.343021
vt 0.014549 0.337749
vt 0.026155 0.400391
vt 0.009766 0.349355
vt 0.011026 0.343021
vt 0.026155 0.400391
vt 0.009766 0.384001
vt 0.009766 0.349355
vt 0.026155 0.400391
vt 0.011026 0.390335
vt 0.009766 0.384001
vt 0.026155 0.400391
vt 0.014549 0.395608
vt 0.011026 0.390335
vt 0.026155 0.400391
vt 0.026155 0.400391
vt 0.019821 0.399131
vt 0.014549 0.395608
vt 0.182405 0.332966
vt 0.292614 0.332966
vt 0.298948 0.334226
vt 0.182405 0.332966
vt 0.298948 0.334226
vt 0.30422 0.337749
vt 0.182405 0.332966
vt 0.30422 0.337749
vt 0.307743 0.343021
vt 0.182405 0.332966
vt 0.307743 0.343021
vt 0.309003 0.349355
vt 0.182405 0.332966
vt 0.309003 0.349355
vt 0.309003 0.384001
vt 0.182405 0.332966
vt 0.309003 0.384001
vt 0.307743 0.390335
vt 0.182405 0.332966
vt 0.307743 0.390335
vt 0.30422 0.395608
vt 0.182405 0.332966
vt 0.30422 0.395608
vt 0.298948 0.399131
vt 0.182405 0.332966
vt 0.298948 0.399131
vt 0.292614 0.400391
vt 0.182405 0.332966
vt 0.292614 0.400391
vt 0.182405 0.400391
vt 0.182405 0.332966
vt 0.182405 0.400391
vt 0.176071 0.399131
vt 0.182405 0.332966
vt 0.176071 0.399131
vt 0.170799 0.395608
vt 0.182405 0.332966
vt 0.170799 0.395608
vt 0.167276 0.390335
vt 0.182405 0.332966
vt 0.167276 0.390335
vt 0.166016 0.384001
vt 0.182405 0.332966
vt 0.166016 0.384001
vt 0.166016 0.349355
vt 0.182405 0.332966
vt 0.166016 0.349355
vt 0.167276 0.343021
vt 0.182405 0.332966
vt 0.167276 0.343021
vt 0.170799 0.337749
vt 0.170799 0.337749
vt 0.176071 0.334226
vt 0.182405 0.332966
vn 0.7067 0.007825 -0.70747
vn 0.647149 0.267392 -0.713932
vn 0.495126 0.495126 -0.713933
vn 0.267392 0.647149 -0.713932
vn 0.022128 0.705843 -0.708023
vn -0.022128 0.705843 -0.708023
vn -0.267392 0.647149 -0.713932
vn -0.495126 0.495126 -0.713933
vn -0.647149 0.267392 -0.713932
vn -0.7067 0.007825 -0.70747
vn -0.7067 -0.007825 -0.70747
vn -0.647149 -0.267392 -0.713932
vn -0.495126 -0.495126 -0.713933
vn -0.267392 -0.647149 -0.713932
vn -0.022128 -0.705843 -0.708023
vn 0.022128 -0.705843 -0.708023
vn 0.267392 -0.647149 -0.713932
vn 0.495126 -0.495126 -0.713933
vn 0.647149 -0.267392 -0.713932
vn 0.7067 -0.007825 -0.70747
vn 0.999936 0.011333 0
vn 0.92388 0.382683 0
vn 0.707107 0.707107 0
vn 0.382683 0.92388 0
vn 0.031931 0.99949 0
vn -0.031931 0.99949 0
vn -0.382683 0.92388 0
vn -0.707107 0.707107 0
vn -0.92388 0.382683 0
vn -0.999936 0.011333 0
vn -0.999936 -0.011333 0
vn -0.92388 -0.382683 0
vn -0.707107 -0.707107 0
vn -0.382683 -0.92388 0
vn -0.031931 -0.99949 0
vn 0.031931 -0.99949 0
vn 0.382683 -0.92388 0
vn 0.707107 -0.707107 0
vn 0.92388 -0.382683 0
vn 0.999936 -0.011333 0
vn 0.7067 0.007825 0.70747
vn 0.647149 0.267392 0.713932
vn 0.495126 0.495126 0.713933
vn 0.267392 0.647149 0.713932
vn 0.022128 0.705843 0.708023
vn -0.022128 0.705843 0.708023
vn -0.267392 0.647149 0.713932
vn -0.495126 0.495126 0.713933
vn -0.647149 0.267392 0.713932
vn -0.7067 0.007825 0.70747
vn -0.7067 -0.007825 0.70747
vn -0.647149 -0.267392 0.713932
vn -0.495126 -0.495126 0.713933
vn -0.267392 -0.647149 0.713932
vn -0.022128 -0.705843 0.708023
vn 0.022128 -0.705843 0.708023
vn 0.267392 -0.647149 0.713932
vn 0.495126 -0.495126 0.713933
vn 0.647149 -0.267392 0.713932
vn 0.7067 -0.007825 0.70747
vn 0 0 -1
vn 0 0 1
f 65/149/19 66/150/20 86/151/20 85/152/19
f 66/153/20 67/154/21 87/155/21 86/156/20
f 67/157/21 68/158/22 88/159/22 87/160/21
f 68/161/22 69/162/23 89/163/23 88/164/22
f 69/165/23 70/166/24 90/167/24 89/168/23
f 70/169/24 71/170/25 91/171/25 90/172/24
f 71/173/25 72/174/26 92/175/26 91/176/25
f 72/177/26 73/178/27 93/179/27 92/180/26
f 73/181/27 74/182/28 94/183/28 93/184/27
f 74/185/28 75/186/29 95/187/29 94/188/28
f 75/189/29 76/190/30 96/191/30 95/192/29
f 76/193/30 77/194/31 97/195/31 96/196/30
f 77/197/31 78/198/32 98/199/32 97/200/31
f 78/201/32 79/202/33 99/203/33 98/204/32
f 79/205/33 80/206/34 100/207/34 99/208/33
f 80/209/34 81/210/35 101/211/35 100/212/34
f 81/213/35 82/214/36 102/215/36 101/216/35
f 82/217/36 83/218/37 103/219/37 102/220/36
f 83/221/37 84/222/38 104/223/38 103/224/37
f 84/225/38 65/226/19 85/227/19 104/228/38
f 85/229/39 86/230/40 106/231/40 105/232/39
f 86/233/40 87/234/41 107/235/41 106/236/40
f 87/237/41 88/238/42 108/239/42 107/240/41
f 88/241/42 89/242/43 109/243/43 108/244/42
f 89/245/43 90/246/44 110/247/44 109/248/43
f 90/249/44 91/250/45 111/251/45 110/252/44
f 91/253/45 92/254/46 112/255/46 111/256/45
f 92/257/46 93/258/47 113/259/47 112/260/46
f 93/261/47 94/262/48 114/263/48 113/264/47
f 94/265/48 95/266/49 115/267/49 114/268/48
f 95/269/49 96/270/50 116/271/50 115/272/49
f 96/273/50 97/274/51 117/275/51 116/276/50
f 97/277/51 98/278/52 118/279/52 117/280/51
f 98/281/52 99/282/53 119/283/53 118/284/52
f 99/285/53 100/286/54 120/287/54 119/288/53
f 100/289/54 101/290/55 121/291/55 120/292/54
f 101/293/55 102/294/56 122/295/56 121/296/55
f 102/297/56 103/298/57 123/299/57 122/300/56
f 103/301/57 104/302/58 124/303/58 123/304/57
f 104/305/58 85/306/39 105/307/39 124/308/58
f 105/309/59 106/310/60 126/311/60 125/312/59
f 106/313/60 107/314/61 127/315/61 126/316/60
f 107/317/61 108/318/62 128/319/62 127/320/61
f 108/321/62 109/322/63 129/323/63 128/324/62
f 109/325/63 110/326/64 130/327/64 129/328/63
f 110/329/64 111/330/65 131/331/65 130/332/64
f 111/333/65 112/334/66 132/335/66 131/336/65
f 112/337/66 113/338/67 133/339/67 132/340/66
f 113/341/67 114/342/68 134/343/68 133/344/67
f 114/345/68 115/346/69 135/347/69 134/348/68
f 115/349/69 116/350/70 136/351/70 135/352/69
f 116/353/70 117/354/71 137/355/71 136/356/70
f 117/357/71 118/358/72 138/359/72 137/360/71
f 118/361/72 119/362/73 139/363/73 138/364/72
f 119/365/73 120/366/74 140/367/74 139/368/73
f 120/369/74 121/370/75 141/371/75 140/372/74
f 121/373/75 122/374/76 142/375/76 141/376/75
f 122/377/76 123/378/77 143/379/77 142/380/76
f 123/381/77 124/382/78 144/383/78 143/384/77
f 124/385/78 105/386/59 125/387/59 144/388/78
f 146/389/79 145/390/79 164/391/79
f 147/392/79 146/393/79 164/394/79
f 148/395/79 147/396/79 164/397/79
f 149/398/79 148/399/79 164/400/79
f 150/401/79 149/402/79 164/403/79
f 151/404/79 150/405/79 164/406/79
f 152/407/79 151/408/79 164/409/79
f 153/410/79 152/411/79 164/412/79
f 154/413/79 153/414/79 164/415/79
f 155/416/79 154/417/79 164/418/79
f 156/419/79 155/420/79 164/421/79
f 157/422/79 156/423/79 164/424/79
f 158/425/79 157/426/79 164/427/79
f 159/428/79 158/429/79 164/430/79
f 160/431/79 159/432/79 164/433/79
f 161/434/79 160/435/79 164/436/79
f 162/437/79 161/438/79 164/439/79
f 164/440/79 163/441/79 162/442/79
f 184/443/80 165/444/80 166/445/80
f 184/446/80 166/447/80 167/448/80
f 184/449/80 167/450/80 168/451/80
f 184/452/80 168/453/80 169/454/80
f 184/455/80 169/456/80 170/457/80
f 184/458/80 170/459/80 171/460/80
f 184/461/80 171/462/80 172/463/80
f 184/464/80 172/465/80 173/466/80
f 184/467/80 173/468/80 174/469/80
f 184/470/80 174/471/80 175/472/80
f 184/473/80 175/474/80 176/475/80
f 184/476/80 176/477/80 177/478/80
f 184/479/80 177/480/80 178/481/80
f 184/482/80 178/483/80 179/484/80
f 184/485/80 179/486/80 180/487/80
f 184/488/80 180/489/80 181/490/80
f 184/491/80 181/492/80 182/493/80
f 182/494/80 183/495/80 184/496/80
o screw_272
usemtl pole
v 0.50483 0.273294 0.43
v 0.503536 0.275536 0.43
v 0.501294 0.27683 0.43
v 0.498706 0.27683 0.43
v 0.496464 0.275536 0.43
v 0.49517 0.273294 0.43
v 0.49517 0.270706 0.43
v 0.496464 0.268464 0.43
v 0.498706 0.26717 0.43
v 0.501294 0.26717 0.43
v 0.503536 0.268464 0.43
v 0.50483 0.270706 0.43
v 0.50483 0.273294 0.433
v 0.503536 0.275536 0.433
v 0.501294 0.27683 0.433
v 0.498706 0.27683 0.433
v 0.496464 0.275536 0.433
v 0.49517 0.273294 0.433
v 0.49517 0.270706 0.433
v 0.496464 0.268464 0.433
v 0.498706 0.26717 0.433
v 0.501294 0.26717 0.433
v 0.503536 0.268464 0.433
v 0.50483 0.270706 0.433
v 0.5 0.272 0.43
v 0.5 0.272 0.433
vt 0.166016 0.068359
vt 0.166016 0.065852
vt 0.168922 0.065852
vt 0.168922 0.068359
vt 0.806641 0.083984
vt 0.806641 0.081477
vt 0.809547 0.081477
vt 0.809547 0.083984
vt 0.962891 0.083984
vt 0.962891 0.081477
vt 0.965797 0.081477
vt 0.965797 0.083984
vt 0.009766 0.068359
vt 0.009766 0.065852
vt 0.012672 0.065852
vt 0.012672 0.068359
vt 0.900391 0.083984
vt 0.900391 0.081477
vt 0.903297 0.081477
vt 0.903297 0.083984
vt 0.025391 0.068359
vt 0.025391 0.065852
vt 0.028297 0.065852
vt 0.028297 0.068359
vt 0.181641 0.068359
vt 0.181641 0.065852
vt 0.184547 0.065852
vt 0.184547 0.068359
vt 0.822266 0.083984
vt 0.822266 0.081477
vt 0.825172 0.081477
vt 0.825172 0.083984
vt 0.931641 0.083984
vt 0.931641 0.081477
vt 0.934547 0.081477
vt 0.934547 0.083984
vt 0.041016 0.068359
vt 0.041016 0.065852
vt 0.043922 0.065852
vt 0.043922 0.068359
vt 0.916016 0.083984
vt 0.916016 0.081477
vt 0.918922 0.081477
vt 0.918922 0.083984
vt 0.056641 0.068359
vt 0.056641 0.065852
vt 0.059547 0.065852
vt 0.059547 0.068359
vt 0.330369 0.399137
vt 0.328198 0.400391
vt 0.326944 0.395712
vt 0.331623 0.396966
vt 0.330369 0.399137
vt 0.326944 0.395712
vt 0.331623 0.394458
vt 0.331623 0.396966
vt 0.326944 0.395712
vt 0.330369 0.392287
vt 0.331623 0.394458
vt 0.326944 0.395712
vt 0.328198 0.391033
vt 0.330369 0.392287
vt 0.326944 0.395712
vt 0.325691 0.391033
vt 0.328198 0.391033
vt 0.326944 0.395712
vt 0.323519 0.392287
vt 0.325691 0.391033
vt 0.326944 0.395712
vt 0.322266 0.394458
vt 0.323519 0.392287
vt 0.326944 0.395712
vt 0.322266 0.396966
vt 0.322266 0.394458
vt 0.326944 0.395712
vt 0.323519 0.399137
vt 0.322266 0.396966
vt 0.326944 0.395712
vt 0.325691 0.400391
vt 0.323519 0.399137
vt 0.326944 0.395712
vt 0.328198 0.400391
vt 0.325691 0.400391
vt 0.326944 0.395712
vt 0.350382 0.395712
vt 0.351635 0.391033
vt 0.353807 0.392287
vt 0.350382 0.395712
vt 0.353807 0.392287
vt 0.355061 0.394458
vt 0.350382 0.395712
vt 0.355061 0.394458
vt 0.355061 0.396966
vt 0.350382 0.395712
vt 0.355061 0.396966
vt 0.353807 0.399137
vt 0.350382 0.395712
vt 0.353807 0.399137
vt 0.351635 0.400391
vt 0.350382 0.395712
vt 0.351635 0.400391
vt 0.349128 0.400391
vt 0.350382 0.395712
vt 0.349128 0.400391
vt 0.346957 0.399137
vt 0.350382 0.395712
vt 0.346957 0.399137
vt 0.345703 0.396966
vt 0.350382 0.395712
vt 0.345703 0.396966
vt 0.345703 0.394458
vt 0.350382 0.395712
vt 0.345703 0.394458
vt 0.346957 0.392287
vt 0.350382 0.395712
vt 0.346957 0.392287
vt 0.349128 0.391033
vt 0.350382 0.395712
vt 0.349128 0.391033
vt 0.351635 0.391033
vn 0.965926 0.258819 0
vn 0.707107 0.707107 0
vn 0.258819 0.965926 0
vn -0.258819 0.965926 0
vn -0.707107 0.707107 0
vn -0.965926 0.258819 0
vn -0.965926 -0.258819 0
vn -0.707107 -0.707107 0
vn -0.258819 -0.965926 0
vn 0.258819 -0.965926 0
vn 0.707107 -0.707107 0
vn 0.965926 -0.258819 0
vn 0 0 -1
vn 0 0 1
f 185/497/81 186/498/82 198/499/82 197/500/81
f 186/501/82 187/502/83 199/503/83 198/504/82
f 187/505/83 188/506/84 200/507/84 199/508/83
f 188/509/84 189/510/85 201/511/85 200/512/84
f 189/513/85 190/514/86 202/515/86 201/516/85
f 190/517/86 191/518/87 203/519/87 202/520/86
f 191/521/87 192/522/88 204/523/88 203/524/87
f 192/525/88 193/526/89 205/527/89 204/528/88
f 193/529/89 194/530/90 206/531/90 205/532/89
f 194/533/90 195/534/91 207/535/91 206/536/90
f 195/537/91 196/538/92 208/539/92 207/540/91
f 196/541/92 185/542/81 197/543/81 208/544/92
f 186/545/93 185/546/93 209/547/93
f 187/548/93 186/549/93 209/550/93
f 188/551/93 187/552/93 209/553/93
f 189/554/93 188/555/93 209/556/93
f 190/557/93 189/558/93 209/559/93
f 191/560/93 190/561/93 209/562/93
f 192/563/93 191/564/93 209/565/93
f 193/566/93 192/567/93 209/568/93
f 194/569/93 193/570/93 209/571/93
f 195/572/93 194/573/93 209/574/93
f 196/575/93 195/576/93 209/577/93
f 185/578/93 196/579/93 209/580/93
f 210/581/94 197/582/94 198/583/94
f 210/584/94 198/585/94 199/586/94
f 210/587/94 199/588/94 200/589/94
f 210/590/94 200/591/94 201/592/94
f 210/593/94 201/594/94 202/595/94
f 210/596/94 202/597/94 203/598/94
f 210/599/94 203/600/94 204/601/94
f 210/602/94 204/603/94 205/604/94
f 210/605/94 205/606/94 206/607/94
f 210/608/94 206/609/94 207/610/94
f 210/611/94 207/612/94 208/613/94
f 210/614/94 208/615/94 197/616/94
o screw_388
usemtl pole
v 0.50483 0.389294 0.43
v 0.503536 0.391536 0.43
v 0.501294 0.39283 0.43
v 0.498706 0.39283 0.43
v 0.496464 0.391536 0.43
v 0.49517 0.389294 0.43
v 0.49517 0.386706 0.43
v 0.496464 0.384464 0.43
v 0.498706 0.38317 0.43
v 0.501294 0.38317 0.43
v 0.503536 0.384464 0.43
v 0.50483 0.386706 0.43
v 0.50483 0.389294 0.433
v 0.503536 0.391536 0.433
v 0.501294 0.39283 0.433
v 0.498706 0.39283 0.433
v 0.496464 0.391536 0.433
v 0.49517 0.389294 0.433
v 0.49517 0.386706 0.433
v 0.496464 0.384464 0.433
v 0.498706 0.38317 0.433
v 0.501294 0.38317 0.433
v 0.503536 0.384464 0.433
v 0.50483 0.386706 0.433
v 0.5 0.388 0.43
v 0.5 0.388 0.433
vt 0.837891 0.083984
vt 0.837891 0.081477
vt 0.840797 0.081477
vt 0.840797 0.083984
vt 0.853516 0.083984
vt 0.853516 0.081477
vt 0.856422 0.081477
vt 0.856422 0.083984
vt 0.978516 0.083984
vt 0.978516 0.081477
vt 0.981422 0.081477
vt 0.981422 0.083984
vt 0.072266 0.068359
vt 0.072266 0.065852
vt 0.075172 0.065852
vt 0.075172 0.068359
vt 0.869141 0.083984
vt 0.869141 0.081477
vt 0.872047 0.081477
vt 0.872047 0.083984
vt 0.087891 0.068359
vt 0.087891 0.065852
vt 0.090797 0.065852
vt 0.090797 0.068359
vt 0.103516 0.068359
vt 0.103516 0.065852
vt 0.106422 0.065852
vt 0.106422 0.068359
vt 0.884766 0.083984
vt 0.884766 0.081477
vt 0.887672 0.081477
vt 0.887672 0.083984
vt 0.947266 0.083984
vt 0.947266 0.081477
vt 0.950172 0.081477
vt 0.950172 0.083984
vt 0.119141 0.068359
vt 0.119141 0.065852
vt 0.122047 0.065852
vt 0.122047 0.068359
vt 0.134766 0.068359
vt 0.134766 0.065852
vt 0.137672 0.065852
vt 0.137672 0.068359
vt 0.150391 0.068359
vt 0.150391 0.065852
vt 0.153297 0.065852
vt 0.153297 0.068359
vt 0.377244 0.399137
vt 0.375073 0.400391
vt 0.373819 0.395712
vt 0.378498 0.396966
vt 0.377244 0.399137
vt 0.373819 0.395712
vt 0.378498 0.394458
vt 0.378498 0.396966
vt 0.373819 0.395712
vt 0.377244 0.392287
vt 0.378498 0.394458
vt 0.373819 0.395712
vt 0.375073 0.391033
vt 0.377244 0.392287
vt 0.373819 0.395712
vt 0.372566 0.391033
vt 0.375073 0.391033
vt 0.373819 0.395712
vt 0.370394 0.392287
vt 0.372566 0.391033
vt 0.373819 0.395712
vt 0.369141 0.394458
vt 0.370394 0.392287
vt 0.373819 0.395712
vt 0.369141 0.396966
vt 0.369141 0.394458
vt 0.373819 0.395712
vt 0.370394 0.399137
vt 0.369141 0.396966
vt 0.373819 0.395712
vt 0.372566 0.400391
vt 0.370394 0.399137
vt 0.373819 0.395712
vt 0.375073 0.400391
vt 0.372566 0.400391
vt 0.373819 0.395712
vt 0.397257 0.395712
vt 0.39851 0.391033
vt 0.400682 0.392287
vt 0.397257 0.395712
vt 0.400682 0.392287
vt 0.401936 0.394458
vt 0.397257 0.395712
vt 0.401936 0.394458
vt 0.401936 0.396966
vt 0.397257 0.395712
vt 0.401936 0.396966
vt 0.400682 0.399137
vt 0.397257 0.395712
vt 0.400682 0.399137
vt 0.39851 0.400391
vt 0.397257 0.395712
vt 0.39851 0.400391
vt 0.396003 0.400391
vt 0.397257 0.395712
vt 0.396003 0.400391
vt 0.393832 0.399137
vt 0.397257 0.395712
vt 0.393832 0.399137
vt 0.392578 0.396966
vt 0.397257 0.395712
vt 0.392578 0.396966
vt 0.392578 0.394458
vt 0.397257 0.395712
vt 0.392578 0.394458
vt 0.393832 0.392287
vt 0.397257 0.395712
vt 0.393832 0.392287
vt 0.396003 0.391033
vt 0.397257 0.395712
vt 0.396003 0.391033
vt 0.39851 0.391033
vn 0.965926 0.258819 0
vn 0.707107 0.707107 0
vn 0.258819 0.965926 0
vn -0.258819 0.965926 0
vn -0.707107 0.707107 0
vn -0.965926 0.258819 0
vn -0.965926 -0.258819 0
vn -0.707107 -0.707107 0
vn -0.258819 -0.965926 0
vn 0.258819 -0.965926 0
vn 0.707107 -0.707107 0
vn 0.965926 -0.258819 0
vn 0 0 -1
vn 0 0 1
f 211/617/95 212/618/96 224/619/96 223/620/95
f 212/621/96 213/622/97 225/623/97 224/624/96
f 213/625/97 214/626/98 226/627/98 225/628/97
f 214/629/98 215/630/99 227/631/99 226/632/98
f 215/633/99 216/634/100 228/635/100 227/636/99
f 216/637/100 217/638/101 229/639/101 228/640/100
f 217/641/101 218/642/102 230/643/102 229/644/101
f 218/645/102 219/646/103 231/647/103 230/648/102
f 219/649/103 220/650/104 232/651/104 231/652/103
f 220/653/104 221/654/105 233/655/105 232/656/104
f 221/657/105 222/658/106 234/659/106 233/660/105
f 222/661/106 211/662/95 223/663/95 234/664/106
f 212/665/107 211/666/107 235/667/107
f 213/668/107 212/669/107 235/670/107
f 214/671/107 213/672/107 235/673/107
f 215/674/107 214/675/107 235/676/107
f 216/677/107 215/678/107 235/679/107
f 217/680/107 216/681/107 235/682/107
f 218/683/107 217/684/107 235/685/107
f 219/686/107 218/687/107 235/688/107
f 220/689/107 219/690/107 235/691/107
f 221/692/107 220/693/107 235/694/107
f 222/695/107 221/696/107 235/697/107
f 211/698/107 222/699/107 235/700/107
f 236/701/108 223/702/108 224/703/108
f 236/704/108 224/705/108 225/706/108
f 236/707/108 225/708/108 226/709/108
f 236/710/108 226/711/108 227/712/108
f 236/713/108 227/714/108 228/715/108
f 236/716/108 228/717/108 229/718/108
f 236/719/108 229/720/108 230/721/108
f 236/722/108 230/723/108 231/724/108
f 236/725/108 231/726/108 232/727/108
f 236/728/108 232/729/108 233/730/108
f 236/731/108 233/732/108 234/733/108
f 236/734/108 234/735/108 223/736/108
