# AFL Site Lighting V1 light pole segment, generated by tools/build-site-lighting-v1.mjs
mtllib plain.mtl
o shaft
usemtl pole
v 0.5635 0 0.4485
v 0.561892 0 0.4425
v 0.5575 0 0.438108
v 0.5515 0 0.4365
v 0.4485 0 0.4365
v 0.4425 0 0.438108
v 0.438108 0 0.4425
v 0.4365 0 0.4485
v 0.4365 0 0.5515
v 0.438108 0 0.5575
v 0.4425 0 0.561892
v 0.4485 0 0.5635
v 0.5515 0 0.5635
v 0.5575 0 0.561892
v 0.561892 0 0.5575
v 0.5635 0 0.5515
v 0.5635 1 0.4485
v 0.561892 1 0.4425
v 0.5575 1 0.438108
v 0.5515 1 0.4365
v 0.4485 1 0.4365
v 0.4425 1 0.438108
v 0.438108 1 0.4425
v 0.4365 1 0.4485
v 0.4365 1 0.5515
v 0.438108 1 0.5575
v 0.4425 1 0.561892
v 0.4485 1 0.5635
v 0.5515 1 0.5635
v 0.5575 1 0.561892
v 0.561892 1 0.5575
v 0.5635 1 0.5515
v 0.5635 0 0.4485
v 0.561892 0 0.4425
v 0.5575 0 0.438108
v 0.5515 0 0.4365
v 0.4485 0 0.4365
v 0.4425 0 0.438108
v 0.438108 0 0.4425
v 0.4365 0 0.4485
v 0.4365 0 0.5515
v 0.438108 0 0.5575
v 0.4425 0 0.561892
v 0.4485 0 0.5635
v 0.5515 0 0.5635
v 0.5575 0 0.561892
v 0.561892 0 0.5575
v 0.5635 0 0.5515
v 0.5635 1 0.4485
v 0.561892 1 0.4425
v 0.5575 1 0.438108
v 0.5515 1 0.4365
v 0.4485 1 0.4365
v 0.4425 1 0.438108
v 0.438108 1 0.4425
v 0.4365 1 0.4485
v 0.4365 1 0.5515
v 0.438108 1 0.5575
v 0.4425 1 0.561892
v 0.4485 1 0.5635
v 0.5515 1 0.5635
v 0.5575 1 0.561892
v 0.561892 1 0.5575
v 0.5635 1 0.5515
vt 0.009766 0.318359
vt 0.009766 0.312342
vt 0.978516 0.312342
vt 0.978516 0.318359
vt 0.009766 0.220703
vt 0.009766 0.214686
vt 0.978516 0.214686
vt 0.978516 0.220703
vt 0.009766 0.298828
vt 0.009766 0.292811
vt 0.978516 0.292811
vt 0.978516 0.298828
vt 0.009766 0.853516
vt 0.009766 0.753734
vt 0.978516 0.753734
vt 0.978516 0.853516
vt 0.009766 0.279297
vt 0.009766 0.273279
vt 0.978516 0.273279
vt 0.978516 0.279297
vt 0.978516 0.097498
vt 0.978516 0.103516
vt 0.009766 0.103516
vt 0.009766 0.097498
vt 0.978516 0.195154
vt 0.978516 0.201172
vt 0.009766 0.201172
vt 0.009766 0.195154
vt 0.978516 0.640453
vt 0.978516 0.740234
vt 0.009766 0.740234
vt 0.009766 0.640453
vt 0.978516 0.175623
vt 0.978516 0.181641
vt 0.009766 0.181641
vt 0.009766 0.175623
vt 0.978516 0.156092
vt 0.978516 0.162109
vt 0.009766 0.162109
vt 0.009766 0.156092
vt 0.009766 0.259766
vt 0.009766 0.253748
vt 0.978516 0.253748
vt 0.978516 0.259766
vt 0.009766 0.626953
vt 0.009766 0.527172
vt 0.978516 0.527172
vt 0.978516 0.626953
vt 0.009766 0.240234
vt 0.009766 0.234217
vt 0.978516 0.234217
vt 0.978516 0.240234
vt 0.009766 0.142578
vt 0.009766 0.136561
vt 0.978516 0.136561
vt 0.978516 0.142578
vt 0.009766 0.123047
vt 0.009766 0.117029
vt 0.978516 0.117029
vt 0.978516 0.123047
vt 0.009766 0.513672
vt 0.009766 0.413891
vt 0.978516 0.413891
vt 0.978516 0.513672
vt 0.015578 0.868761
vt 0.021391 0.867203
vt 0.121172 0.867203
vt 0.011323 0.873016
vt 0.015578 0.868761
vt 0.121172 0.867203
vt 0.009766 0.878828
vt 0.011323 0.873016
vt 0.121172 0.867203
vt 0.009766 0.978609
vt 0.009766 0.878828
vt 0.121172 0.867203
vt 0.011323 0.984422
vt 0.009766 0.978609
vt 0.121172 0.867203
vt 0.015578 0.988677
vt 0.011323 0.984422
vt 0.121172 0.867203
vt 0.021391 0.990234
vt 0.015578 0.988677
vt 0.121172 0.867203
vt 0.121172 0.990234
vt 0.021391 0.990234
vt 0.121172 0.867203
vt 0.126984 0.988677
vt 0.121172 0.990234
vt 0.121172 0.867203
vt 0.131239 0.984422
vt 0.126984 0.988677
vt 0.121172 0.867203
vt 0.132797 0.978609
vt 0.131239 0.984422
vt 0.121172 0.867203
vt 0.132797 0.878828
vt 0.132797 0.978609
vt 0.121172 0.867203
vt 0.131239 0.873016
vt 0.132797 0.878828
vt 0.121172 0.867203
vt 0.121172 0.867203
vt 0.126984 0.868761
vt 0.131239 0.873016
vt 0.257891 0.990234
vt 0.158109 0.990234
vt 0.152297 0.988677
vt 0.257891 0.990234
vt 0.152297 0.988677
vt 0.148042 0.984422
vt 0.257891 0.990234
vt 0.148042 0.984422
vt 0.146484 0.978609
vt 0.257891 0.990234
vt 0.146484 0.978609
vt 0.146484 0.878828
vt 0.257891 0.990234
vt 0.146484 0.878828
vt 0.148042 0.873016
vt 0.257891 0.990234
vt 0.148042 0.873016
vt 0.152297 0.868761
vt 0.257891 0.990234
vt 0.152297 0.868761
vt 0.158109 0.867203
vt 0.257891 0.990234
vt 0.158109 0.867203
vt 0.257891 0.867203
vt 0.257891 0.990234
vt 0.257891 0.867203
vt 0.263703 0.868761
vt 0.257891 0.990234
vt 0.263703 0.868761
vt 0.267958 0.873016
vt 0.257891 0.990234
vt 0.267958 0.873016
vt 0.269516 0.878828
vt 0.257891 0.990234
vt 0.269516 0.878828
vt 0.269516 0.978609
vt 0.257891 0.990234
vt 0.269516 0.978609
vt 0.267958 0.984422
vt 0.267958 0.984422
vt 0.263703 0.988677
vt 0.257891 0.990234
vn 0.999891 0 -0.014748
vn 0.866025 0 -0.5
vn 0.5 0 -0.866025
vn 0.014748 0 -0.999891
vn -0.014748 0 -0.999891
vn -0.5 0 -0.866025
vn -0.866025 0 -0.5
vn -0.999891 0 -0.014748
vn -0.999891 0 0.014748
vn -0.866025 0 0.5
vn -0.5 0 0.866025
vn -0.014748 0 0.999891
vn 0.014748 0 0.999891
vn 0.5 0 0.866025
vn 0.866025 0 0.5
vn 0.999891 0 0.014748
vn 0 -1 0
vn 0 1 0
f 1/1/1 2/2/2 18/3/2 17/4/1
f 2/5/2 3/6/3 19/7/3 18/8/2
f 3/9/3 4/10/4 20/11/4 19/12/3
f 4/13/4 5/14/5 21/15/5 20/16/4
f 5/17/5 6/18/6 22/19/6 21/20/5
f 6/21/6 7/22/7 23/23/7 22/24/6
f 7/25/7 8/26/8 24/27/8 23/28/7
f 8/29/8 9/30/9 25/31/9 24/32/8
f 9/33/9 10/34/10 26/35/10 25/36/9
f 10/37/10 11/38/11 27/39/11 26/40/10
f 11/41/11 12/42/12 28/43/12 27/44/11
f 12/45/12 13/46/13 29/47/13 28/48/12
f 13/49/13 14/50/14 30/51/14 29/52/13
f 14/53/14 15/54/15 31/55/15 30/56/14
f 15/57/15 16/58/16 32/59/16 31/60/15
f 16/61/16 1/62/1 17/63/1 32/64/16
f 34/65/17 33/66/17 48/67/17
f 35/68/17 34/69/17 48/70/17
f 36/71/17 35/72/17 48/73/17
f 37/74/17 36/75/17 48/76/17
f 38/77/17 37/78/17 48/79/17
f 39/80/17 38/81/17 48/82/17
f 40/83/17 39/84/17 48/85/17
f 41/86/17 40/87/17 48/88/17
f 42/89/17 41/90/17 48/91/17
f 43/92/17 42/93/17 48/94/17
f 44/95/17 43/96/17 48/97/17
f 45/98/17 44/99/17 48/100/17
f 46/101/17 45/102/17 48/103/17
f 48/104/17 47/105/17 46/106/17
f 64/107/18 49/108/18 50/109/18
f 64/110/18 50/111/18 51/112/18
f 64/113/18 51/114/18 52/115/18
f 64/116/18 52/117/18 53/118/18
f 64/119/18 53/120/18 54/121/18
f 64/122/18 54/123/18 55/124/18
f 64/125/18 55/126/18 56/127/18
f 64/128/18 56/129/18 57/130/18
f 64/131/18 57/132/18 58/133/18
f 64/134/18 58/135/18 59/136/18
f 64/137/18 59/138/18 60/139/18
f 64/140/18 60/141/18 61/142/18
f 64/143/18 61/144/18 62/145/18
f 62/146/18 63/147/18 64/148/18
