# AFL Site Lighting V1 canopy downlight (off), generated by tools/build-site-lighting-v1.mjs
mtllib off.mtl
o lens_off
usemtl downlight
v 0.548266 0.963 0.504754
v 0.546412 0.963 0.514079
v 0.542773 0.963 0.522863
v 0.537491 0.963 0.530768
v 0.530768 0.963 0.537491
v 0.522863 0.963 0.542773
v 0.514079 0.963 0.546412
v 0.504754 0.963 0.548266
v 0.495246 0.963 0.548266
v 0.485921 0.963 0.546412
v 0.477137 0.963 0.542773
v 0.469232 0.963 0.537491
v 0.462509 0.963 0.530768
v 0.457227 0.963 0.522863
v 0.453588 0.963 0.514079
v 0.451734 0.963 0.504754
v 0.451734 0.963 0.495246
v 0.453588 0.963 0.485921
v 0.457227 0.963 0.477137
v 0.462509 0.963 0.469232
v 0.469232 0.963 0.462509
v 0.477137 0.963 0.457227
v 0.485921 0.963 0.453588
v 0.495246 0.963 0.451734
v 0.504754 0.963 0.451734
v 0.514079 0.963 0.453588
v 0.522863 0.963 0.457227
v 0.530768 0.963 0.462509
v 0.537491 0.963 0.469232
v 0.542773 0.963 0.477137
v 0.546412 0.963 0.485921
v 0.548266 0.963 0.495246
v 0.5 0.963 0.5
v 0.5 0.963 0.5
v 0.5 0.963 0.5
v 0.5 0.963 0.5
v 0.5 0.963 0.5
v 0.5 0.963 0.5
v 0.5 0.963 0.5
v 0.5 0.963 0.5
v 0.5 0.963 0.5
v 0.5 0.963 0.5
v 0.5 0.963 0.5
v 0.5 0.963 0.5
v 0.5 0.963 0.5
v 0.5 0.963 0.5
v 0.5 0.963 0.5
v 0.5 0.963 0.5
v 0.5 0.963 0.5
v 0.5 0.963 0.5
v 0.5 0.963 0.5
v 0.5 0.963 0.5
v 0.5 0.963 0.5
v 0.5 0.963 0.5
v 0.5 0.963 0.5
v 0.5 0.963 0.5
v 0.5 0.963 0.5
v 0.5 0.963 0.5
v 0.5 0.963 0.5
v 0.5 0.963 0.5
v 0.5 0.963 0.5
v 0.5 0.963 0.5
v 0.5 0.963 0.5
v 0.5 0.963 0.5
vt 0.100265 0.089938
vt 0.096787 0.107422
vt 0.009766 0.081024
vt 0.6046 0.243296
vt 0.597778 0.259766
vt 0.517578 0.216898
vt 0.808715 0.600412
vt 0.798811 0.615234
vt 0.728516 0.557544
vt 0.244124 0.68466
vt 0.231518 0.697266
vt 0.173828 0.62697
vt 0.080061 0.483325
vt 0.089965 0.498148
vt 0.009766 0.541016
vt 0.191528 0.216898
vt 0.19835 0.233368
vt 0.111328 0.259766
vt 0.307725 0.081024
vt 0.311203 0.098508
vt 0.220703 0.107422
vt 0.52214 0.050533
vt 0.52214 0.068359
vt 0.431641 0.059446
vt 0.52214 0.089938
vt 0.518662 0.107422
vt 0.431641 0.081024
vt 0.401475 0.243296
vt 0.394653 0.259766
vt 0.314453 0.216898
vt 0.277465 0.526193
vt 0.267561 0.541016
vt 0.197266 0.483325
vt 0.080061 0.68466
vt 0.067456 0.697266
vt 0.009766 0.62697
vt 0.55092 0.615234
vt 0.541016 0.600412
vt 0.621215 0.557544
vt 0.219713 0.205078
vt 0.212891 0.188608
vt 0.299912 0.16221
vt 0.794493 0.150391
vt 0.791016 0.132906
vt 0.881515 0.123993
vt 0.537109 0.068359
vt 0.537109 0.050533
vt 0.627609 0.059446
vt 0.580078 0.141477
vt 0.583556 0.123993
vt 0.670578 0.150391
vt 0.619141 0.233368
vt 0.625963 0.216898
vt 0.706162 0.259766
vt 0.384766 0.498148
vt 0.39467 0.483325
vt 0.464965 0.541016
vt 0.337891 0.639575
vt 0.350496 0.62697
vt 0.408186 0.697266
vt 0.17592 0.615234
vt 0.166016 0.600412
vt 0.246215 0.557544
vt 0.692369 0.330078
vt 0.685547 0.313608
vt 0.772569 0.28721
vt 0.372618 0.150391
vt 0.369141 0.132906
vt 0.45964 0.123993
vt 0.220703 0.068359
vt 0.220703 0.050533
vt 0.311203 0.059446
vt 0.642578 0.098508
vt 0.646056 0.081024
vt 0.733078 0.107422
vt 0.009766 0.17868
vt 0.016588 0.16221
vt 0.096787 0.205078
vt 0.572266 0.498148
vt 0.58217 0.483325
vt 0.652465 0.541016
vt 0.501953 0.639575
vt 0.514559 0.62697
vt 0.572249 0.697266
vt 0.330061 0.557544
vt 0.339965 0.572367
vt 0.259766 0.615234
vt 0.867309 0.28721
vt 0.874131 0.30368
vt 0.787109 0.330078
vt 0.245225 0.123993
vt 0.248703 0.141477
vt 0.158203 0.150391
vt 0.100265 0.050533
vt 0.100265 0.068359
vt 0.009766 0.059446
vn 0 -1 0
f 1/1/1 2/2/1 33/3/1
f 2/4/1 3/5/1 34/6/1
f 3/7/1 4/8/1 35/9/1
f 4/10/1 5/11/1 36/12/1
f 5/13/1 6/14/1 37/15/1
f 6/16/1 7/17/1 38/18/1
f 7/19/1 8/20/1 39/21/1
f 8/22/1 9/23/1 40/24/1
f 9/25/1 10/26/1 41/27/1
f 10/28/1 11/29/1 42/30/1
f 11/31/1 12/32/1 43/33/1
f 12/34/1 13/35/1 44/36/1
f 13/37/1 14/38/1 45/39/1
f 14/40/1 15/41/1 46/42/1
f 15/43/1 16/44/1 47/45/1
f 16/46/1 17/47/1 48/48/1
f 17/49/1 18/50/1 49/51/1
f 18/52/1 19/53/1 50/54/1
f 19/55/1 20/56/1 51/57/1
f 20/58/1 21/59/1 52/60/1
f 21/61/1 22/62/1 53/63/1
f 22/64/1 23/65/1 54/66/1
f 23/67/1 24/68/1 55/69/1
f 24/70/1 25/71/1 56/72/1
f 25/73/1 26/74/1 57/75/1
f 26/76/1 27/77/1 58/78/1
f 27/79/1 28/80/1 59/81/1
f 28/82/1 29/83/1 60/84/1
f 29/85/1 30/86/1 61/87/1
f 30/88/1 31/89/1 62/90/1
f 31/91/1 32/92/1 63/93/1
f 32/94/1 1/95/1 64/96/1
o reflector
usemtl downlight
v 0.548266 0.963 0.504754
v 0.546412 0.963 0.514079
v 0.542773 0.963 0.522863
v 0.537491 0.963 0.530768
v 0.530768 0.963 0.537491
v 0.522863 0.963 0.542773
v 0.514079 0.963 0.546412
v 0.504754 0.963 0.548266
v 0.495246 0.963 0.548266
v 0.485921 0.963 0.546412
v 0.477137 0.963 0.542773
v 0.469232 0.963 0.537491
v 0.462509 0.963 0.530768
v 0.457227 0.963 0.522863
v 0.453588 0.963 0.514079
v 0.451734 0.963 0.504754
v 0.451734 0.963 0.495246
v 0.453588 0.963 0.485921
v 0.457227 0.963 0.477137
v 0.462509 0.963 0.469232
v 0.469232 0.963 0.462509
v 0.477137 0.963 0.457227
v 0.485921 0.963 0.453588
v 0.495246 0.963 0.451734
v 0.504754 0.963 0.451734
v 0.514079 0.963 0.453588
v 0.522863 0.963 0.457227
v 0.530768 0.963 0.462509
v 0.537491 0.963 0.469232
v 0.542773 0.963 0.477137
v 0.546412 0.963 0.485921
v 0.548266 0.963 0.495246
v 0.559711 0.948 0.505881
v 0.557416 0.948 0.517417
v 0.552915 0.948 0.528284
v 0.546381 0.948 0.538064
v 0.538064 0.948 0.546381
v 0.528284 0.948 0.552915
v 0.517417 0.948 0.557416
v 0.505881 0.948 0.559711
v 0.494119 0.948 0.559711
v 0.482583 0.948 0.557416
v 0.471716 0.948 0.552915
v 0.461936 0.948 0.546381
v 0.453619 0.948 0.538064
v 0.447085 0.948 0.528284
v 0.442584 0.948 0.517417
v 0.440289 0.948 0.505881
v 0.440289 0.948 0.494119
v 0.442584 0.948 0.482583
v 0.447085 0.948 0.471716
v 0.453619 0.948 0.461936
v 0.461936 0.948 0.453619
v 0.471716 0.948 0.447085
v 0.482583 0.948 0.442584
v 0.494119 0.948 0.440289
v 0.505881 0.948 0.440289
v 0.517417 0.948 0.442584
v 0.528284 0.948 0.447085
v 0.538064 0.948 0.453619
v 0.546381 0.948 0.461936
v 0.552915 0.948 0.471716
v 0.557416 0.948 0.482583
v 0.559711 0.948 0.494119
vt 0.525081 0.282011
vt 0.546969 0.284716
vt 0.540532 0.31956
vt 0.52284 0.317373
vt 0.546969 0.284716
vt 0.568107 0.290024
vt 0.557619 0.32385
vt 0.540532 0.31956
vt 0.568107 0.290024
vt 0.587685 0.297728
vt 0.573444 0.330078
vt 0.557619 0.32385
vt 0.766973 0.631671
vt 0.784705 0.644334
vt 0.762381 0.671857
vt 0.748047 0.661621
vt 0.784705 0.644334
vt 0.800974 0.659223
vt 0.775531 0.683892
vt 0.762381 0.671857
vt 0.800974 0.659223
vt 0.815154 0.675767
vt 0.786994 0.697266
vt 0.775531 0.683892
vt 0.649298 0.202447
vt 0.627668 0.205078
vt 0.625555 0.169702
vt 0.643039 0.167576
vt 0.627668 0.205078
vt 0.605614 0.205078
vt 0.607728 0.169702
vt 0.625555 0.169702
vt 0.605614 0.205078
vt 0.583984 0.202447
vt 0.590244 0.167576
vt 0.607728 0.169702
vt 0.733123 0.65317
vt 0.718943 0.669714
vt 0.6935 0.645044
vt 0.704962 0.631671
vt 0.718943 0.669714
vt 0.702674 0.684603
vt 0.68035 0.65708
vt 0.6935 0.645044
vt 0.702674 0.684603
vt 0.684941 0.697266
vt 0.666016 0.667315
vt 0.68035 0.65708
vt 0.470106 0.314041
vt 0.449784 0.321902
vt 0.439049 0.288129
vt 0.455476 0.281774
vt 0.449784 0.321902
vt 0.428406 0.327317
vt 0.421768 0.292506
vt 0.439049 0.288129
vt 0.428406 0.327317
vt 0.406792 0.330078
vt 0.404297 0.294737
vt 0.421768 0.292506
vt 0.480852 0.205078
vt 0.459062 0.205078
vt 0.461236 0.169706
vt 0.478849 0.169706
vt 0.459062 0.205078
vt 0.43717 0.202415
vt 0.443539 0.167553
vt 0.461236 0.169706
vt 0.43717 0.202415
vt 0.416016 0.197192
vt 0.42644 0.163331
vt 0.443539 0.167553
vt 0.967831 0.697266
vt 0.948005 0.688226
vt 0.964657 0.656943
vt 0.980683 0.66425
vt 0.948005 0.688226
vt 0.92919 0.67672
vt 0.949449 0.647643
vt 0.964657 0.656943
vt 0.92919 0.67672
vt 0.912109 0.663191
vt 0.935642 0.636707
vt 0.949449 0.647643
vt 0.322266 0.298853
vt 0.342021 0.28966
vt 0.354973 0.322647
vt 0.339004 0.330078
vt 0.342021 0.28966
vt 0.362993 0.282839
vt 0.371926 0.317133
vt 0.354973 0.322647
vt 0.362993 0.282839
vt 0.384376 0.27865
vt 0.389211 0.313747
vt 0.371926 0.317133
vt 0.844452 0.635276
vt 0.863836 0.645228
vt 0.845747 0.675702
vt 0.830078 0.667657
vt 0.863836 0.645228
vt 0.882095 0.657596
vt 0.860507 0.685699
vt 0.845747 0.675702
vt 0.882095 0.657596
vt 0.898528 0.671904
vt 0.87379 0.697266
vt 0.860507 0.685699
vt 0.158203 0.300165
vt 0.177231 0.289548
vt 0.192568 0.321496
vt 0.177187 0.330078
vt 0.177231 0.289548
vt 0.197646 0.281206
vt 0.209071 0.314753
vt 0.192568 0.321496
vt 0.197646 0.281206
vt 0.218665 0.27546
vt 0.22606 0.310108
vt 0.209071 0.314753
vt 0.482422 0.284716
vt 0.503287 0.282011
vt 0.505222 0.317373
vt 0.488357 0.31956
vt 0.503287 0.282011
vt 0.525081 0.282011
vt 0.52284 0.317373
vt 0.505222 0.317373
vn -0.789785 -0.608432 -0.077787
vn -0.759434 -0.608432 -0.230372
vn -0.699898 -0.608432 -0.374103
vn -0.613466 -0.608432 -0.503459
vn -0.503459 -0.608432 -0.613466
vn -0.374103 -0.608432 -0.699898
vn -0.230372 -0.608432 -0.759434
vn -0.077787 -0.608432 -0.789785
vn 0.077787 -0.608432 -0.789785
vn 0.230372 -0.608432 -0.759434
vn 0.374103 -0.608432 -0.699898
vn 0.503459 -0.608432 -0.613466
vn 0.613466 -0.608432 -0.503459
vn 0.699898 -0.608432 -0.374103
vn 0.759434 -0.608432 -0.230372
vn 0.789785 -0.608432 -0.077787
vn 0.789785 -0.608432 0.077787
vn 0.759434 -0.608432 0.230372
vn 0.699898 -0.608432 0.374103
vn 0.613466 -0.608432 0.503459
vn 0.503459 -0.608432 0.613466
vn 0.374103 -0.608432 0.699898
vn 0.230372 -0.608432 0.759434
vn 0.077787 -0.608432 0.789785
vn -0.077787 -0.608432 0.789785
vn -0.230372 -0.608432 0.759434
vn -0.374103 -0.608432 0.699898
vn -0.503459 -0.608432 0.613466
vn -0.613466 -0.608432 0.503459
vn -0.699898 -0.608432 0.374103
vn -0.759434 -0.608432 0.230372
vn -0.789785 -0.608432 0.077787
f 97/97/2 98/98/3 66/99/3 65/100/2
f 98/101/3 99/102/4 67/103/4 66/104/3
f 99/105/4 100/106/5 68/107/5 67/108/4
f 100/109/5 101/110/6 69/111/6 68/112/5
f 101/113/6 102/114/7 70/115/7 69/116/6
f 102/117/7 103/118/8 71/119/8 70/120/7
f 103/121/8 104/122/9 72/123/9 71/124/8
f 104/125/9 105/126/10 73/127/10 72/128/9
f 105/129/10 106/130/11 74/131/11 73/132/10
f 106/133/11 107/134/12 75/135/12 74/136/11
f 107/137/12 108/138/13 76/139/13 75/140/12
f 108/141/13 109/142/14 77/143/14 76/144/13
f 109/145/14 110/146/15 78/147/15 77/148/14
f 110/149/15 111/150/16 79/151/16 78/152/15
f 111/153/16 112/154/17 80/155/17 79/156/16
f 112/157/17 113/158/18 81/159/18 80/160/17
f 113/161/18 114/162/19 82/163/19 81/164/18
f 114/165/19 115/166/20 83/167/20 82/168/19
f 115/169/20 116/170/21 84/171/21 83/172/20
f 116/173/21 117/174/22 85/175/22 84/176/21
f 117/177/22 118/178/23 86/179/23 85/180/22
f 118/181/23 119/182/24 87/183/24 86/184/23
f 119/185/24 120/186/25 88/187/25 87/188/24
f 120/189/25 121/190/26 89/191/26 88/192/25
f 121/193/26 122/194/27 90/195/27 89/196/26
f 122/197/27 123/198/28 91/199/28 90/200/27
f 123/201/28 124/202/29 92/203/29 91/204/28
f 124/205/29 125/206/30 93/207/30 92/208/29
f 125/209/30 126/210/31 94/211/31 93/212/30
f 126/213/31 127/214/32 95/215/32 94/216/31
f 127/217/32 128/218/33 96/219/33 95/220/32
f 128/221/33 97/222/2 65/223/2 96/224/33
o can
usemtl downlight
v 0.559711 0.948 0.505881
v 0.557416 0.948 0.517417
v 0.552915 0.948 0.528284
v 0.546381 0.948 0.538064
v 0.538064 0.948 0.546381
v 0.528284 0.948 0.552915
v 0.517417 0.948 0.557416
v 0.505881 0.948 0.559711
v 0.494119 0.948 0.559711
v 0.482583 0.948 0.557416
v 0.471716 0.948 0.552915
v 0.461936 0.948 0.546381
v 0.453619 0.948 0.538064
v 0.447085 0.948 0.528284
v 0.442584 0.948 0.517417
v 0.440289 0.948 0.505881
v 0.440289 0.948 0.494119
v 0.442584 0.948 0.482583
v 0.447085 0.948 0.471716
v 0.453619 0.948 0.461936
v 0.461936 0.948 0.453619
v 0.471716 0.948 0.447085
v 0.482583 0.948 0.442584
v 0.494119 0.948 0.440289
v 0.505881 0.948 0.440289
v 0.517417 0.948 0.442584
v 0.528284 0.948 0.447085
v 0.538064 0.948 0.453619
v 0.546381 0.948 0.461936
v 0.552915 0.948 0.471716
v 0.557416 0.948 0.482583
v 0.559711 0.948 0.494119
v 0.571653 0.948 0.507057
v 0.5689 0.948 0.5209
v 0.563498 0.948 0.533941
v 0.555657 0.948 0.545676
v 0.545676 0.948 0.555657
v 0.533941 0.948 0.563498
v 0.5209 0.948 0.5689
v 0.507057 0.948 0.571653
v 0.492943 0.948 0.571653
v 0.4791 0.948 0.5689
v 0.466059 0.948 0.563498
v 0.454324 0.948 0.555657
v 0.444343 0.948 0.545676
v 0.436502 0.948 0.533941
v 0.4311 0.948 0.5209
v 0.428347 0.948 0.507057
v 0.428347 0.948 0.492943
v 0.4311 0.948 0.4791
v 0.436502 0.948 0.466059
v 0.444343 0.948 0.454324
v 0.454324 0.948 0.444343
v 0.466059 0.948 0.436502
v 0.4791 0.948 0.4311
v 0.492943 0.948 0.428347
v 0.507057 0.948 0.428347
v 0.5209 0.948 0.4311
v 0.533941 0.948 0.436502
v 0.545676 0.948 0.444343
v 0.555657 0.948 0.454324
v 0.563498 0.948 0.466059
v 0.5689 0.948 0.4791
v 0.571653 0.948 0.492943
v 0.574639 0.951 0.507351
v 0.571771 0.951 0.521771
v 0.566144 0.951 0.535355
v 0.557976 0.951 0.547579
v 0.547579 0.951 0.557976
v 0.535355 0.951 0.566144
v 0.521771 0.951 0.571771
v 0.507351 0.951 0.574639
v 0.492649 0.951 0.574639
v 0.478229 0.951 0.571771
v 0.464645 0.951 0.566144
v 0.452421 0.951 0.557976
v 0.442024 0.951 0.547579
v 0.433856 0.951 0.535355
v 0.428229 0.951 0.521771
v 0.425361 0.951 0.507351
v 0.425361 0.951 0.492649
v 0.428229 0.951 0.478229
v 0.433856 0.951 0.464645
v 0.442024 0.951 0.452421
v 0.452421 0.951 0.442024
v 0.464645 0.951 0.433856
v 0.478229 0.951 0.428229
v 0.492649 0.951 0.425361
v 0.507351 0.951 0.425361
v 0.521771 0.951 0.428229
v 0.535355 0.951 0.433856
v 0.547579 0.951 0.442024
v 0.557976 0.951 0.452421
v 0.566144 0.951 0.464645
v 0.571771 0.951 0.478229
v 0.574639 0.951 0.492649
v 0.574639 1.023 0.507351
v 0.571771 1.023 0.521771
v 0.566144 1.023 0.535355
v 0.557976 1.023 0.547579
v 0.547579 1.023 0.557976
v 0.535355 1.023 0.566144
v 0.521771 1.023 0.571771
v 0.507351 1.023 0.574639
v 0.492649 1.023 0.574639
v 0.478229 1.023 0.571771
v 0.464645 1.023 0.566144
v 0.452421 1.023 0.557976
v 0.442024 1.023 0.547579
v 0.433856 1.023 0.535355
v 0.428229 1.023 0.521771
v 0.425361 1.023 0.507351
v 0.425361 1.023 0.492649
v 0.428229 1.023 0.478229
v 0.433856 1.023 0.464645
v 0.442024 1.023 0.452421
v 0.452421 1.023 0.442024
v 0.464645 1.023 0.433856
v 0.478229 1.023 0.428229
v 0.492649 1.023 0.425361
v 0.507351 1.023 0.425361
v 0.521771 1.023 0.428229
v 0.535355 1.023 0.433856
v 0.547579 1.023 0.442024
v 0.557976 1.023 0.452421
v 0.566144 1.023 0.464645
v 0.571771 1.023 0.478229
v 0.574639 1.023 0.492649
v 0.564687 1.023 0.506371
v 0.562201 1.023 0.518869
v 0.557325 1.023 0.530641
v 0.550246 1.023 0.541236
v 0.541236 1.023 0.550246
v 0.530641 1.023 0.557325
v 0.518869 1.023 0.562201
v 0.506371 1.023 0.564687
v 0.493629 1.023 0.564687
v 0.481131 1.023 0.562201
v 0.469359 1.023 0.557325
v 0.458764 1.023 0.550246
v 0.449754 1.023 0.541236
v 0.442675 1.023 0.530641
v 0.437799 1.023 0.518869
v 0.435313 1.023 0.506371
v 0.435313 1.023 0.493629
v 0.437799 1.023 0.481131
v 0.442675 1.023 0.469359
v 0.449754 1.023 0.458764
v 0.458764 1.023 0.449754
v 0.469359 1.023 0.442675
v 0.481131 1.023 0.437799
v 0.493629 1.023 0.435313
v 0.506371 1.023 0.435313
v 0.518869 1.023 0.437799
v 0.530641 1.023 0.442675
v 0.541236 1.023 0.449754
v 0.550246 1.023 0.458764
v 0.557325 1.023 0.469359
v 0.562201 1.023 0.481131
v 0.564687 1.023 0.493629
v 0.564687 1.031 0.506371
v 0.562201 1.031 0.518869
v 0.557325 1.031 0.530641
v 0.550246 1.031 0.541236
v 0.541236 1.031 0.550246
v 0.530641 1.031 0.557325
v 0.518869 1.031 0.562201
v 0.506371 1.031 0.564687
v 0.493629 1.031 0.564687
v 0.481131 1.031 0.562201
v 0.469359 1.031 0.557325
v 0.458764 1.031 0.550246
v 0.449754 1.031 0.541236
v 0.442675 1.031 0.530641
v 0.437799 1.031 0.518869
v 0.435313 1.031 0.506371
v 0.435313 1.031 0.493629
v 0.437799 1.031 0.481131
v 0.442675 1.031 0.469359
v 0.449754 1.031 0.458764
v 0.458764 1.031 0.449754
v 0.469359 1.031 0.442675
v 0.481131 1.031 0.437799
v 0.493629 1.031 0.435313
v 0.506371 1.031 0.435313
v 0.518869 1.031 0.437799
v 0.530641 1.031 0.442675
v 0.541236 1.031 0.449754
v 0.550246 1.031 0.458764
v 0.557325 1.031 0.469359
v 0.562201 1.031 0.481131
v 0.564687 1.031 0.493629
v 0.5 1.031 0.5
vt 0.450317 0.721534
vt 0.476273 0.726697
vt 0.469741 0.748229
vt 0.448111 0.743926
vt 0.476273 0.726697
vt 0.500723 0.736825
vt 0.490116 0.756668
vt 0.469741 0.748229
vt 0.500723 0.736825
vt 0.522727 0.751528
vt 0.508454 0.768921
vt 0.490116 0.756668
vt 0.522727 0.751528
vt 0.541441 0.770241
vt 0.524048 0.784515
vt 0.508454 0.768921
vt 0.541441 0.770241
vt 0.556144 0.792246
vt 0.5363 0.802852
vt 0.524048 0.784515
vt 0.556144 0.792246
vt 0.566271 0.816696
vt 0.54474 0.823227
vt 0.5363 0.802852
vt 0.566271 0.816696
vt 0.571434 0.842652
vt 0.549043 0.844858
vt 0.54474 0.823227
vt 0.571434 0.842652
vt 0.571434 0.869117
vt 0.549043 0.866911
vt 0.549043 0.844858
vt 0.571434 0.869117
vt 0.566271 0.895073
vt 0.54474 0.888541
vt 0.549043 0.866911
vt 0.566271 0.895073
vt 0.556144 0.919523
vt 0.5363 0.908917
vt 0.54474 0.888541
vt 0.556144 0.919523
vt 0.541441 0.941528
vt 0.524048 0.927254
vt 0.5363 0.908917
vt 0.541441 0.941528
vt 0.522727 0.960241
vt 0.508454 0.942848
vt 0.524048 0.927254
vt 0.522727 0.960241
vt 0.500723 0.974944
vt 0.490116 0.955101
vt 0.508454 0.942848
vt 0.500723 0.974944
vt 0.476273 0.985071
vt 0.469741 0.96354
vt 0.490116 0.955101
vt 0.476273 0.985071
vt 0.450317 0.990234
vt 0.448111 0.967843
vt 0.469741 0.96354
vt 0.450317 0.990234
vt 0.423852 0.990234
vt 0.426057 0.967843
vt 0.448111 0.967843
vt 0.423852 0.990234
vt 0.397896 0.985071
vt 0.404427 0.96354
vt 0.426057 0.967843
vt 0.397896 0.985071
vt 0.373446 0.974944
vt 0.384052 0.955101
vt 0.404427 0.96354
vt 0.373446 0.974944
vt 0.351441 0.960241
vt 0.365715 0.942848
vt 0.384052 0.955101
vt 0.351441 0.960241
vt 0.332728 0.941528
vt 0.350121 0.927254
vt 0.365715 0.942848
vt 0.332728 0.941528
vt 0.318025 0.919523
vt 0.337868 0.908917
vt 0.350121 0.927254
vt 0.318025 0.919523
vt 0.307897 0.895073
vt 0.329429 0.888541
vt 0.337868 0.908917
vt 0.307897 0.895073
vt 0.302734 0.869117
vt 0.325126 0.866911
vt 0.329429 0.888541
vt 0.302734 0.869117
vt 0.302734 0.842652
vt 0.325126 0.844858
vt 0.325126 0.866911
vt 0.302734 0.842652
vt 0.307897 0.816696
vt 0.329429 0.823227
vt 0.325126 0.844858
vt 0.307897 0.816696
vt 0.318025 0.792246
vt 0.337868 0.802852
vt 0.329429 0.823227
vt 0.318025 0.792246
vt 0.332728 0.770241
vt 0.350121 0.784515
vt 0.337868 0.802852
vt 0.332728 0.770241
vt 0.351441 0.751528
vt 0.365715 0.768921
vt 0.350121 0.784515
vt 0.351441 0.751528
vt 0.373446 0.736825
vt 0.384052 0.756668
vt 0.365715 0.768921
vt 0.373446 0.736825
vt 0.397896 0.726697
vt 0.404427 0.748229
vt 0.384052 0.756668
vt 0.397896 0.726697
vt 0.423852 0.721534
vt 0.426057 0.743926
vt 0.404427 0.748229
vt 0.423852 0.721534
vt 0.450317 0.721534
vt 0.448111 0.743926
vt 0.426057 0.743926
vt 0.809458 0.175378
vt 0.836748 0.179281
vt 0.835079 0.187058
vt 0.808881 0.183311
vt 0.836748 0.179281
vt 0.862966 0.186937
vt 0.860248 0.194408
vt 0.835079 0.187058
vt 0.862966 0.186937
vt 0.887104 0.198053
vt 0.883421 0.205078
vt 0.860248 0.194408
vt 0.151488 0.55928
vt 0.134416 0.580591
vt 0.128576 0.57519
vt 0.144965 0.554731
vt 0.134416 0.580591
vt 0.114341 0.599484
vt 0.109304 0.593328
vt 0.128576 0.57519
vt 0.114341 0.599484
vt 0.092036 0.615234
vt 0.087891 0.608448
vt 0.109304 0.593328
vt 0.942971 0.033291
vt 0.915933 0.037109
vt 0.915382 0.029174
vt 0.941338 0.025508
vt 0.915933 0.037109
vt 0.888366 0.037109
vt 0.888917 0.029174
vt 0.915382 0.029174
vt 0.888366 0.037109
vt 0.861328 0.033291
vt 0.862961 0.025508
vt 0.888917 0.029174
vt 0.069218 0.615234
vt 0.046912 0.599484
vt 0.05195 0.593328
vt 0.073363 0.608448
vt 0.046912 0.599484
vt 0.026838 0.580591
vt 0.032678 0.57519
vt 0.05195 0.593328
vt 0.026838 0.580591
vt 0.009766 0.55928
vt 0.016289 0.554731
vt 0.032678 0.57519
vt 0.741065 0.182045
vt 0.716203 0.193336
vt 0.713435 0.185878
vt 0.737302 0.175039
vt 0.716203 0.193336
vt 0.689755 0.201113
vt 0.688045 0.193344
vt 0.713435 0.185878
vt 0.689755 0.201113
vt 0.662739 0.205078
vt 0.662109 0.197151
vt 0.688045 0.193344
vt 0.934356 0.107422
vt 0.90705 0.107422
vt 0.907614 0.099487
vt 0.933828 0.099487
vt 0.90705 0.107422
vt 0.879754 0.103567
vt 0.881409 0.095787
vt 0.907614 0.099487
vt 0.879754 0.103567
vt 0.853516 0.096006
vt 0.856221 0.088528
vt 0.881409 0.095787
vt 0.306806 0.330078
vt 0.282549 0.31754
vt 0.286693 0.31075
vt 0.30998 0.322787
vt 0.282549 0.31754
vt 0.260071 0.301581
vt 0.265114 0.295429
vt 0.286693 0.31075
vt 0.260071 0.301581
vt 0.240234 0.282816
vt 0.246071 0.277415
vt 0.265114 0.295429
vt 0.900391 0.198024
vt 0.925396 0.187053
vt 0.928067 0.194546
vt 0.904063 0.205078
vt 0.925396 0.187053
vt 0.951941 0.179616
vt 0.953551 0.187406
vt 0.928067 0.194546
vt 0.951941 0.179616
vt 0.979006 0.175998
vt 0.979533 0.183933
vt 0.953551 0.187406
vt 0.602121 0.283036
vt 0.627399 0.293363
vt 0.623876 0.300495
vt 0.599609 0.290581
vt 0.627399 0.293363
vt 0.65121 0.307255
vt 0.646734 0.313832
vt 0.623876 0.300495
vt 0.65121 0.307255
vt 0.672639 0.324179
vt 0.667307 0.330078
vt 0.646734 0.313832
vt 0.494141 0.198746
vt 0.516933 0.183708
vt 0.520832 0.190642
vt 0.498952 0.205078
vt 0.516933 0.183708
vt 0.54184 0.171893
vt 0.544743 0.179299
vt 0.520832 0.190642
vt 0.54184 0.171893
vt 0.567904 0.163754
vt 0.569765 0.171486
vt 0.544743 0.179299
vt 0.755859 0.179281
vt 0.782146 0.175378
vt 0.782661 0.183311
vt 0.757426 0.187058
vt 0.782146 0.175378
vt 0.809458 0.175378
vt 0.808881 0.183311
vt 0.782661 0.183311
vt 0.976797 0.935629
vt 0.976797 0.963197
vt 0.841797 0.963197
vt 0.841797 0.935629
vt 0.976797 0.963197
vt 0.976797 0.990234
vt 0.841797 0.990234
vt 0.841797 0.963197
vt 0.293203 0.415834
vt 0.293203 0.443269
vt 0.158203 0.443269
vt 0.158203 0.415834
vt 0.293203 0.443269
vt 0.293203 0.470703
vt 0.158203 0.470703
vt 0.158203 0.443269
vt 0.144766 0.345521
vt 0.144766 0.372956
vt 0.009766 0.372956
vt 0.009766 0.345521
vt 0.144766 0.372956
vt 0.144766 0.400391
vt 0.009766 0.400391
vt 0.009766 0.372956
vt 0.441641 0.415834
vt 0.441641 0.443269
vt 0.306641 0.443269
vt 0.306641 0.415834
vt 0.441641 0.443269
vt 0.441641 0.470703
vt 0.306641 0.470703
vt 0.306641 0.443269
vt 0.441641 0.345521
vt 0.441641 0.372956
vt 0.306641 0.372956
vt 0.306641 0.345521
vt 0.441641 0.372956
vt 0.441641 0.400391
vt 0.306641 0.400391
vt 0.306641 0.372956
vt 0.455078 0.470703
vt 0.455078 0.443269
vt 0.590078 0.443269
vt 0.590078 0.470703
vt 0.455078 0.443269
vt 0.455078 0.415834
vt 0.590078 0.415834
vt 0.590078 0.443269
vt 0.603516 0.470703
vt 0.603516 0.443269
vt 0.738516 0.443269
vt 0.738516 0.470703
vt 0.603516 0.443269
vt 0.603516 0.415834
vt 0.738516 0.415834
vt 0.738516 0.443269
vt 0.751953 0.470703
vt 0.751953 0.443269
vt 0.886953 0.443269
vt 0.886953 0.470703
vt 0.751953 0.443269
vt 0.751953 0.415834
vt 0.886953 0.415834
vt 0.886953 0.443269
vt 0.158203 0.400391
vt 0.158203 0.372956
vt 0.293203 0.372956
vt 0.293203 0.400391
vt 0.158203 0.372956
vt 0.158203 0.345521
vt 0.293203 0.345521
vt 0.293203 0.372956
vt 0.455078 0.400391
vt 0.455078 0.372956
vt 0.590078 0.372956
vt 0.590078 0.400391
vt 0.455078 0.372956
vt 0.455078 0.345521
vt 0.590078 0.345521
vt 0.590078 0.372956
vt 0.751953 0.400391
vt 0.751953 0.372956
vt 0.886953 0.372956
vt 0.886953 0.400391
vt 0.751953 0.372956
vt 0.751953 0.345521
vt 0.886953 0.345521
vt 0.886953 0.372956
vt 0.894766 0.486146
vt 0.894766 0.513581
vt 0.759766 0.513581
vt 0.759766 0.486146
vt 0.894766 0.513581
vt 0.894766 0.541016
vt 0.759766 0.541016
vt 0.759766 0.513581
vt 0.144766 0.415834
vt 0.144766 0.443269
vt 0.009766 0.443269
vt 0.009766 0.415834
vt 0.144766 0.443269
vt 0.144766 0.470703
vt 0.009766 0.470703
vt 0.009766 0.443269
vt 0.144766 0.275209
vt 0.144766 0.302644
vt 0.009766 0.302644
vt 0.009766 0.275209
vt 0.144766 0.302644
vt 0.144766 0.330078
vt 0.009766 0.330078
vt 0.009766 0.302644
vt 0.738516 0.345521
vt 0.738516 0.372956
vt 0.603516 0.372956
vt 0.603516 0.345521
vt 0.738516 0.372956
vt 0.738516 0.400391
vt 0.603516 0.400391
vt 0.603516 0.372956
vt 0.144766 0.122823
vt 0.144766 0.150391
vt 0.009766 0.150391
vt 0.009766 0.122823
vt 0.976797 0.908592
vt 0.976797 0.935629
vt 0.841797 0.935629
vt 0.841797 0.908592
vt 0.161659 0.971575
vt 0.185092 0.966914
vt 0.190535 0.984856
vt 0.163497 0.990234
vt 0.185092 0.966914
vt 0.207165 0.957771
vt 0.216004 0.974307
vt 0.190535 0.984856
vt 0.207165 0.957771
vt 0.22703 0.944497
vt 0.238925 0.958991
vt 0.216004 0.974307
vt 0.22703 0.944497
vt 0.243924 0.927603
vt 0.258418 0.939498
vt 0.238925 0.958991
vt 0.243924 0.927603
vt 0.257198 0.907738
vt 0.273734 0.916577
vt 0.258418 0.939498
vt 0.257198 0.907738
vt 0.266341 0.885665
vt 0.284283 0.891108
vt 0.273734 0.916577
vt 0.266341 0.885665
vt 0.271002 0.862232
vt 0.289661 0.86407
vt 0.284283 0.891108
vt 0.271002 0.862232
vt 0.271002 0.838341
vt 0.289661 0.836503
vt 0.289661 0.86407
vt 0.271002 0.838341
vt 0.266341 0.814908
vt 0.284283 0.809465
vt 0.289661 0.836503
vt 0.266341 0.814908
vt 0.257198 0.792835
vt 0.273734 0.783996
vt 0.284283 0.809465
vt 0.257198 0.792835
vt 0.243924 0.77297
vt 0.258418 0.761075
vt 0.273734 0.783996
vt 0.243924 0.77297
vt 0.22703 0.756076
vt 0.238925 0.741582
vt 0.258418 0.761075
vt 0.22703 0.756076
vt 0.207165 0.742802
vt 0.216004 0.726266
vt 0.238925 0.741582
vt 0.207165 0.742802
vt 0.185092 0.733659
vt 0.190535 0.715717
vt 0.216004 0.726266
vt 0.185092 0.733659
vt 0.161659 0.728998
vt 0.163497 0.710339
vt 0.190535 0.715717
vt 0.161659 0.728998
vt 0.137768 0.728998
vt 0.13593 0.710339
vt 0.163497 0.710339
vt 0.137768 0.728998
vt 0.114335 0.733659
vt 0.108892 0.715717
vt 0.13593 0.710339
vt 0.114335 0.733659
vt 0.092262 0.742802
vt 0.083423 0.726266
vt 0.108892 0.715717
vt 0.092262 0.742802
vt 0.072397 0.756076
vt 0.060502 0.741582
vt 0.083423 0.726266
vt 0.072397 0.756076
vt 0.055503 0.77297
vt 0.041009 0.761075
vt 0.060502 0.741582
vt 0.055503 0.77297
vt 0.042229 0.792835
vt 0.025693 0.783996
vt 0.041009 0.761075
vt 0.042229 0.792835
vt 0.033086 0.814908
vt 0.015144 0.809465
vt 0.025693 0.783996
vt 0.033086 0.814908
vt 0.028425 0.838341
vt 0.009766 0.836503
vt 0.015144 0.809465
vt 0.028425 0.838341
vt 0.028425 0.862232
vt 0.009766 0.86407
vt 0.009766 0.836503
vt 0.028425 0.862232
vt 0.033086 0.885665
vt 0.015144 0.891108
vt 0.009766 0.86407
vt 0.033086 0.885665
vt 0.042229 0.907738
vt 0.025693 0.916577
vt 0.015144 0.891108
vt 0.042229 0.907738
vt 0.055503 0.927603
vt 0.041009 0.939498
vt 0.025693 0.916577
vt 0.055503 0.927603
vt 0.072397 0.944497
vt 0.060502 0.958991
vt 0.041009 0.939498
vt 0.072397 0.944497
vt 0.092262 0.957771
vt 0.083423 0.974307
vt 0.060502 0.958991
vt 0.092262 0.957771
vt 0.114335 0.966914
vt 0.108892 0.984856
vt 0.083423 0.974307
vt 0.114335 0.966914
vt 0.137768 0.971575
vt 0.13593 0.990234
vt 0.108892 0.984856
vt 0.137768 0.971575
vt 0.161659 0.971575
vt 0.163497 0.990234
vt 0.13593 0.990234
vt 0.876948 0.053359
vt 0.90084 0.053359
vt 0.90084 0.068359
vt 0.876948 0.068359
vt 0.90084 0.053359
vt 0.924273 0.053359
vt 0.924273 0.068359
vt 0.90084 0.068359
vt 0.134766 0.022109
vt 0.158542 0.022109
vt 0.158542 0.037109
vt 0.134766 0.037109
vt 0.158542 0.022109
vt 0.182319 0.022109
vt 0.182319 0.037109
vt 0.158542 0.037109
vt 0.197266 0.022109
vt 0.221042 0.022109
vt 0.221042 0.037109
vt 0.197266 0.037109
vt 0.221042 0.022109
vt 0.244819 0.022109
vt 0.244819 0.037109
vt 0.221042 0.037109
vt 0.307319 0.037109
vt 0.283542 0.037109
vt 0.283542 0.022109
vt 0.307319 0.022109
vt 0.283542 0.037109
vt 0.259766 0.037109
vt 0.259766 0.022109
vt 0.283542 0.022109
vt 0.369819 0.037109
vt 0.346042 0.037109
vt 0.346042 0.022109
vt 0.369819 0.022109
vt 0.346042 0.037109
vt 0.322266 0.037109
vt 0.322266 0.022109
vt 0.346042 0.022109
vt 0.119819 0.037109
vt 0.096042 0.037109
vt 0.096042 0.022109
vt 0.119819 0.022109
vt 0.096042 0.037109
vt 0.072266 0.037109
vt 0.072266 0.022109
vt 0.096042 0.022109
vt 0.557319 0.037109
vt 0.533542 0.037109
vt 0.533542 0.022109
vt 0.557319 0.022109
vt 0.533542 0.037109
vt 0.509766 0.037109
vt 0.509766 0.022109
vt 0.533542 0.022109
vt 0.432319 0.037109
vt 0.408542 0.037109
vt 0.408542 0.022109
vt 0.432319 0.022109
vt 0.408542 0.037109
vt 0.384766 0.037109
vt 0.384766 0.022109
vt 0.408542 0.022109
vt 0.494819 0.037109
vt 0.471042 0.037109
vt 0.471042 0.022109
vt 0.494819 0.022109
vt 0.471042 0.037109
vt 0.447266 0.037109
vt 0.447266 0.022109
vt 0.471042 0.022109
vt 0.744819 0.037109
vt 0.721042 0.037109
vt 0.721042 0.022109
vt 0.744819 0.022109
vt 0.721042 0.037109
vt 0.697266 0.037109
vt 0.697266 0.022109
vt 0.721042 0.022109
vt 0.619819 0.037109
vt 0.596042 0.037109
vt 0.596042 0.022109
vt 0.619819 0.022109
vt 0.596042 0.037109
vt 0.572266 0.037109
vt 0.572266 0.022109
vt 0.596042 0.022109
vt 0.987006 0.068359
vt 0.96323 0.068359
vt 0.96323 0.053359
vt 0.987006 0.053359
vt 0.96323 0.068359
vt 0.939453 0.068359
vt 0.939453 0.053359
vt 0.96323 0.053359
vt 0.057319 0.037109
vt 0.033542 0.037109
vt 0.033542 0.022109
vt 0.057319 0.022109
vt 0.033542 0.037109
vt 0.009766 0.037109
vt 0.009766 0.022109
vt 0.033542 0.022109
vt 0.759766 0.022109
vt 0.783542 0.022109
vt 0.783542 0.037109
vt 0.759766 0.037109
vt 0.783542 0.022109
vt 0.807319 0.022109
vt 0.807319 0.037109
vt 0.783542 0.037109
vt 0.634766 0.022109
vt 0.658542 0.022109
vt 0.658542 0.037109
vt 0.634766 0.037109
vt 0.658542 0.022109
vt 0.682319 0.022109
vt 0.682319 0.037109
vt 0.658542 0.037109
vt 0.822266 0.022109
vt 0.846157 0.022109
vt 0.846157 0.037109
vt 0.822266 0.037109
vt 0.853516 0.053359
vt 0.876948 0.053359
vt 0.876948 0.068359
vt 0.853516 0.068359
vt 0.740651 0.985573
vt 0.717218 0.990234
vt 0.705273 0.868946
vt 0.762724 0.97643
vt 0.740651 0.985573
vt 0.705273 0.868946
vt 0.782589 0.963157
vt 0.762724 0.97643
vt 0.705273 0.868946
vt 0.799483 0.946263
vt 0.782589 0.963157
vt 0.705273 0.868946
vt 0.812757 0.926398
vt 0.799483 0.946263
vt 0.705273 0.868946
vt 0.8219 0.904325
vt 0.812757 0.926398
vt 0.705273 0.868946
vt 0.826561 0.880892
vt 0.8219 0.904325
vt 0.705273 0.868946
vt 0.826561 0.857
vt 0.826561 0.880892
vt 0.705273 0.868946
vt 0.8219 0.833568
vt 0.826561 0.857
vt 0.705273 0.868946
vt 0.812757 0.811495
vt 0.8219 0.833568
vt 0.705273 0.868946
vt 0.799483 0.79163
vt 0.812757 0.811495
vt 0.705273 0.868946
vt 0.782589 0.774736
vt 0.799483 0.79163
vt 0.705273 0.868946
vt 0.762724 0.761462
vt 0.782589 0.774736
vt 0.705273 0.868946
vt 0.740651 0.752319
vt 0.762724 0.761462
vt 0.705273 0.868946
vt 0.717218 0.747658
vt 0.740651 0.752319
vt 0.705273 0.868946
vt 0.693327 0.747658
vt 0.717218 0.747658
vt 0.705273 0.868946
vt 0.669894 0.752319
vt 0.693327 0.747658
vt 0.705273 0.868946
vt 0.647821 0.761462
vt 0.669894 0.752319
vt 0.705273 0.868946
vt 0.627956 0.774736
vt 0.647821 0.761462
vt 0.705273 0.868946
vt 0.611062 0.79163
vt 0.627956 0.774736
vt 0.705273 0.868946
vt 0.597788 0.811495
vt 0.611062 0.79163
vt 0.705273 0.868946
vt 0.588645 0.833568
vt 0.597788 0.811495
vt 0.705273 0.868946
vt 0.583984 0.857
vt 0.588645 0.833568
vt 0.705273 0.868946
vt 0.583984 0.880892
vt 0.583984 0.857
vt 0.705273 0.868946
vt 0.588645 0.904325
vt 0.583984 0.880892
vt 0.705273 0.868946
vt 0.597788 0.926398
vt 0.588645 0.904325
vt 0.705273 0.868946
vt 0.611062 0.946263
vt 0.597788 0.926398
vt 0.705273 0.868946
vt 0.627956 0.963157
vt 0.611062 0.946263
vt 0.705273 0.868946
vt 0.647821 0.97643
vt 0.627956 0.963157
vt 0.705273 0.868946
vt 0.669894 0.985573
vt 0.647821 0.97643
vt 0.705273 0.868946
vt 0.693327 0.990234
vt 0.669894 0.985573
vt 0.705273 0.868946
vt 0.717218 0.990234
vt 0.693327 0.990234
vt 0.705273 0.868946
vn 0 -1 0
vn 0.703702 -0.707107 0.069309
vn 0.676659 -0.707107 0.205262
vn 0.623613 -0.707107 0.333328
vn 0.546601 -0.707107 0.448584
vn 0.448584 -0.707107 0.546601
vn 0.333328 -0.707107 0.623613
vn 0.205262 -0.707107 0.676659
vn 0.069309 -0.707107 0.703702
vn -0.069309 -0.707107 0.703702
vn -0.205262 -0.707107 0.676659
vn -0.333328 -0.707107 0.623613
vn -0.448584 -0.707107 0.546601
vn -0.546601 -0.707107 0.448584
vn -0.623613 -0.707107 0.333328
vn -0.676659 -0.707107 0.205262
vn -0.703702 -0.707107 0.069309
vn -0.703702 -0.707107 -0.069309
vn -0.676659 -0.707107 -0.205262
vn -0.623613 -0.707107 -0.333328
vn -0.546601 -0.707107 -0.448584
vn -0.448584 -0.707107 -0.546601
vn -0.333328 -0.707107 -0.623613
vn -0.205262 -0.707107 -0.676659
vn -0.069309 -0.707107 -0.703702
vn 0.069309 -0.707107 -0.703702
vn 0.205262 -0.707107 -0.676659
vn 0.333328 -0.707107 -0.623613
vn 0.448584 -0.707107 -0.546601
vn 0.546601 -0.707107 -0.448584
vn 0.623613 -0.707107 -0.333328
vn 0.676659 -0.707107 -0.205262
vn 0.703702 -0.707107 -0.069309
vn 0.995185 0 0.098017
vn 0.95694 0 0.290285
vn 0.881921 0 0.471397
vn 0.77301 0 0.634393
vn 0.634393 0 0.77301
vn 0.471397 0 0.881921
vn 0.290285 0 0.95694
vn 0.098017 0 0.995185
vn -0.098017 0 0.995185
vn -0.290285 0 0.95694
vn -0.471397 0 0.881921
vn -0.634393 0 0.77301
vn -0.77301 0 0.634393
vn -0.881921 0 0.471397
vn -0.95694 0 0.290285
vn -0.995185 0 0.098017
vn -0.995185 0 -0.098017
vn -0.95694 0 -0.290285
vn -0.881921 0 -0.471397
vn -0.77301 0 -0.634393
vn -0.634393 0 -0.77301
vn -0.471397 0 -0.881921
vn -0.290285 0 -0.95694
vn -0.098017 0 -0.995185
vn 0.098017 0 -0.995185
vn 0.290285 0 -0.95694
vn 0.471397 0 -0.881921
vn 0.634393 0 -0.77301
vn 0.77301 0 -0.634393
vn 0.881921 0 -0.471397
vn 0.95694 0 -0.290285
vn 0.995185 0 -0.098017
vn 0 1 0
f 161/225/34 162/226/34 130/227/34 129/228/34
f 162/229/34 163/230/34 131/231/34 130/232/34
f 163/233/34 164/234/34 132/235/34 131/236/34
f 164/237/34 165/238/34 133/239/34 132/240/34
f 165/241/34 166/242/34 134/243/34 133/244/34
f 166/245/34 167/246/34 135/247/34 134/248/34
f 167/249/34 168/250/34 136/251/34 135/252/34
f 168/253/34 169/254/34 137/255/34 136/256/34
f 169/257/34 170/258/34 138/259/34 137/260/34
f 170/261/34 171/262/34 139/263/34 138/264/34
f 171/265/34 172/266/34 140/267/34 139/268/34
f 172/269/34 173/270/34 141/271/34 140/272/34
f 173/273/34 174/274/34 142/275/34 141/276/34
f 174/277/34 175/278/34 143/279/34 142/280/34
f 175/281/34 176/282/34 144/283/34 143/284/34
f 176/285/34 177/286/34 145/287/34 144/288/34
f 177/289/34 178/290/34 146/291/34 145/292/34
f 178/293/34 179/294/34 147/295/34 146/296/34
f 179/297/34 180/298/34 148/299/34 147/300/34
f 180/301/34 181/302/34 149/303/34 148/304/34
f 181/305/34 182/306/34 150/307/34 149/308/34
f 182/309/34 183/310/34 151/311/34 150/312/34
f 183/313/34 184/314/34 152/315/34 151/316/34
f 184/317/34 185/318/34 153/319/34 152/320/34
f 185/321/34 186/322/34 154/323/34 153/324/34
f 186/325/34 187/326/34 155/327/34 154/328/34
f 187/329/34 188/330/34 156/331/34 155/332/34
f 188/333/34 189/334/34 157/335/34 156/336/34
f 189/337/34 190/338/34 158/339/34 157/340/34
f 190/341/34 191/342/34 159/343/34 158/344/34
f 191/345/34 192/346/34 160/347/34 159/348/34
f 192/349/34 161/350/34 129/351/34 160/352/34
f 193/353/35 194/354/36 162/355/36 161/356/35
f 194/357/36 195/358/37 163/359/37 162/360/36
f 195/361/37 196/362/38 164/363/38 163/364/37
f 196/365/38 197/366/39 165/367/39 164/368/38
f 197/369/39 198/370/40 166/371/40 165/372/39
f 198/373/40 199/374/41 167/375/41 166/376/40
f 199/377/41 200/378/42 168/379/42 167/380/41
f 200/381/42 201/382/43 169/383/43 168/384/42
f 201/385/43 202/386/44 170/387/44 169/388/43
f 202/389/44 203/390/45 171/391/45 170/392/44
f 203/393/45 204/394/46 172/395/46 171/396/45
f 204/397/46 205/398/47 173/399/47 172/400/46
f 205/401/47 206/402/48 174/403/48 173/404/47
f 206/405/48 207/406/49 175/407/49 174/408/48
f 207/409/49 208/410/50 176/411/50 175/412/49
f 208/413/50 209/414/51 177/415/51 176/416/50
f 209/417/51 210/418/52 178/419/52 177/420/51
f 210/421/52 211/422/53 179/423/53 178/424/52
f 211/425/53 212/426/54 180/427/54 179/428/53
f 212/429/54 213/430/55 181/431/55 180/432/54
f 213/433/55 214/434/56 182/435/56 181/436/55
f 214/437/56 215/438/57 183/439/57 182/440/56
f 215/441/57 216/442/58 184/443/58 183/444/57
f 216/445/58 217/446/59 185/447/59 184/448/58
f 217/449/59 218/450/60 186/451/60 185/452/59
f 218/453/60 219/454/61 187/455/61 186/456/60
f 219/457/61 220/458/62 188/459/62 187/460/61
f 220/461/62 221/462/63 189/463/63 188/464/62
f 221/465/63 222/466/64 190/467/64 189/468/63
f 222/469/64 223/470/65 191/471/65 190/472/64
f 223/473/65 224/474/66 192/475/66 191/476/65
f 224/477/66 193/478/35 161/479/35 192/480/66
f 225/481/67 226/482/68 194/483/68 193/484/67
f 226/485/68 227/486/69 195/487/69 194/488/68
f 227/489/69 228/490/70 196/491/70 195/492/69
f 228/493/70 229/494/71 197/495/71 196/496/70
f 229/497/71 230/498/72 198/499/72 197/500/71
f 230/501/72 231/502/73 199/503/73 198/504/72
f 231/505/73 232/506/74 200/507/74 199/508/73
f 232/509/74 233/510/75 201/511/75 200/512/74
f 233/513/75 234/514/76 202/515/76 201/516/75
f 234/517/76 235/518/77 203/519/77 202/520/76
f 235/521/77 236/522/78 204/523/78 203/524/77
f 236/525/78 237/526/79 205/527/79 204/528/78
f 237/529/79 238/530/80 206/531/80 205/532/79
f 238/533/80 239/534/81 207/535/81 206/536/80
f 239/537/81 240/538/82 208/539/82 207/540/81
f 240/541/82 241/542/83 209/543/83 208/544/82
f 241/545/83 242/546/84 210/547/84 209/548/83
f 242/549/84 243/550/85 211/551/85 210/552/84
f 243/553/85 244/554/86 212/555/86 211/556/85
f 244/557/86 245/558/87 213/559/87 212/560/86
f 245/561/87 246/562/88 214/563/88 213/564/87
f 246/565/88 247/566/89 215/567/89 214/568/88
f 247/569/89 248/570/90 216/571/90 215/572/89
f 248/573/90 249/574/91 217/575/91 216/576/90
f 249/577/91 250/578/92 218/579/92 217/580/91
f 250/581/92 251/582/93 219/583/93 218/584/92
f 251/585/93 252/586/94 220/587/94 219/588/93
f 252/589/94 253/590/95 221/591/95 220/592/94
f 253/593/95 254/594/96 222/595/96 221/596/95
f 254/597/96 255/598/97 223/599/97 222/600/96
f 255/601/97 256/602/98 224/603/98 223/604/97
f 256/605/98 225/606/67 193/607/67 224/608/98
f 257/609/99 258/610/99 226/611/99 225/612/99
f 258/613/99 259/614/99 227/615/99 226/616/99
f 259/617/99 260/618/99 228/619/99 227/620/99
f 260/621/99 261/622/99 229/623/99 228/624/99
f 261/625/99 262/626/99 230/627/99 229/628/99
f 262/629/99 263/630/99 231/631/99 230/632/99
f 263/633/99 264/634/99 232/635/99 231/636/99
f 264/637/99 265/638/99 233/639/99 232/640/99
f 265/641/99 266/642/99 234/643/99 233/644/99
f 266/645/99 267/646/99 235/647/99 234/648/99
f 267/649/99 268/650/99 236/651/99 235/652/99
f 268/653/99 269/654/99 237/655/99 236/656/99
f 269/657/99 270/658/99 238/659/99 237/660/99
f 270/661/99 271/662/99 239/663/99 238/664/99
f 271/665/99 272/666/99 240/667/99 239/668/99
f 272/669/99 273/670/99 241/671/99 240/672/99
f 273/673/99 274/674/99 242/675/99 241/676/99
f 274/677/99 275/678/99 243/679/99 242/680/99
f 275/681/99 276/682/99 244/683/99 243/684/99
f 276/685/99 277/686/99 245/687/99 244/688/99
f 277/689/99 278/690/99 246/691/99 245/692/99
f 278/693/99 279/694/99 247/695/99 246/696/99
f 279/697/99 280/698/99 248/699/99 247/700/99
f 280/701/99 281/702/99 249/703/99 248/704/99
f 281/705/99 282/706/99 250/707/99 249/708/99
f 282/709/99 283/710/99 251/711/99 250/712/99
f 283/713/99 284/714/99 252/715/99 251/716/99
f 284/717/99 285/718/99 253/719/99 252/720/99
f 285/721/99 286/722/99 254/723/99 253/724/99
f 286/725/99 287/726/99 255/727/99 254/728/99
f 287/729/99 288/730/99 256/731/99 255/732/99
f 288/733/99 257/734/99 225/735/99 256/736/99
f 289/737/67 290/738/68 258/739/68 257/740/67
f 290/741/68 291/742/69 259/743/69 258/744/68
f 291/745/69 292/746/70 260/747/70 259/748/69
f 292/749/70 293/750/71 261/751/71 260/752/70
f 293/753/71 294/754/72 262/755/72 261/756/71
f 294/757/72 295/758/73 263/759/73 262/760/72
f 295/761/73 296/762/74 264/763/74 263/764/73
f 296/765/74 297/766/75 265/767/75 264/768/74
f 297/769/75 298/770/76 266/771/76 265/772/75
f 298/773/76 299/774/77 267/775/77 266/776/76
f 299/777/77 300/778/78 268/779/78 267/780/77
f 300/781/78 301/782/79 269/783/79 268/784/78
f 301/785/79 302/786/80 270/787/80 269/788/79
f 302/789/80 303/790/81 271/791/81 270/792/80
f 303/793/81 304/794/82 272/795/82 271/796/81
f 304/797/82 305/798/83 273/799/83 272/800/82
f 305/801/83 306/802/84 274/803/84 273/804/83
f 306/805/84 307/806/85 275/807/85 274/808/84
f 307/809/85 308/810/86 276/811/86 275/812/85
f 308/813/86 309/814/87 277/815/87 276/816/86
f 309/817/87 310/818/88 278/819/88 277/820/87
f 310/821/88 311/822/89 279/823/89 278/824/88
f 311/825/89 312/826/90 280/827/90 279/828/89
f 312/829/90 313/830/91 281/831/91 280/832/90
f 313/833/91 314/834/92 282/835/92 281/836/91
f 314/837/92 315/838/93 283/839/93 282/840/92
f 315/841/93 316/842/94 284/843/94 283/844/93
f 316/845/94 317/846/95 285/847/95 284/848/94
f 317/849/95 318/850/96 286/851/96 285/852/95
f 318/853/96 319/854/97 287/855/97 286/856/96
f 319/857/97 320/858/98 288/859/98 287/860/97
f 320/861/98 289/862/67 257/863/67 288/864/98
f 290/865/99 289/866/99 321/867/99
f 291/868/99 290/869/99 321/870/99
f 292/871/99 291/872/99 321/873/99
f 293/874/99 292/875/99 321/876/99
f 294/877/99 293/878/99 321/879/99
f 295/880/99 294/881/99 321/882/99
f 296/883/99 295/884/99 321/885/99
f 297/886/99 296/887/99 321/888/99
f 298/889/99 297/890/99 321/891/99
f 299/892/99 298/893/99 321/894/99
f 300/895/99 299/896/99 321/897/99
f 301/898/99 300/899/99 321/900/99
f 302/901/99 301/902/99 321/903/99
f 303/904/99 302/905/99 321/906/99
f 304/907/99 303/908/99 321/909/99
f 305/910/99 304/911/99 321/912/99
f 306/913/99 305/914/99 321/915/99
f 307/916/99 306/917/99 321/918/99
f 308/919/99 307/920/99 321/921/99
f 309/922/99 308/923/99 321/924/99
f 310/925/99 309/926/99 321/927/99
f 311/928/99 310/929/99 321/930/99
f 312/931/99 311/932/99 321/933/99
f 313/934/99 312/935/99 321/936/99
f 314/937/99 313/938/99 321/939/99
f 315/940/99 314/941/99 321/942/99
f 316/943/99 315/944/99 321/945/99
f 317/946/99 316/947/99 321/948/99
f 318/949/99 317/950/99 321/951/99
f 319/952/99 318/953/99 321/954/99
f 320/955/99 319/956/99 321/957/99
f 289/958/99 320/959/99 321/960/99
