# AFL fuel_fill_cover/frame_gasoline, generated by tools/build-fuel-station-sump-v1.mjs
mtllib frame_gasoline.mtl
o fuel_fill_cover__frame_gasoline__top
usemtl fuel_station_sump
v 0 0.925 1
v 1 0.925 1
v 1 0.925 0
v 0 0.925 0
v 0 1 1
v 1 1 1
v 1 1 0
v 0 1 0
v 0.82222 0.925 0.542421
v 0.800261 0.925 0.624372
v 0.75784 0.925 0.697847
v 0.697847 0.925 0.75784
v 0.624372 0.925 0.800261
v 0.542421 0.925 0.82222
v 0.457579 0.925 0.82222
v 0.375628 0.925 0.800261
v 0.302153 0.925 0.75784
v 0.24216 0.925 0.697847
v 0.199739 0.925 0.624372
v 0.17778 0.925 0.542421
v 0.17778 0.925 0.457579
v 0.199739 0.925 0.375628
v 0.24216 0.925 0.302153
v 0.302153 0.925 0.24216
v 0.375628 0.925 0.199739
v 0.457579 0.925 0.17778
v 0.542421 0.925 0.17778
v 0.624372 0.925 0.199739
v 0.697847 0.925 0.24216
v 0.75784 0.925 0.302153
v 0.800261 0.925 0.375628
v 0.82222 0.925 0.457579
v 0.82222 1 0.542421
v 0.800261 1 0.624372
v 0.75784 1 0.697847
v 0.697847 1 0.75784
v 0.624372 1 0.800261
v 0.542421 1 0.82222
v 0.457579 1 0.82222
v 0.375628 1 0.800261
v 0.302153 1 0.75784
v 0.24216 1 0.697847
v 0.199739 1 0.624372
v 0.17778 1 0.542421
v 0.17778 1 0.457579
v 0.199739 1 0.375628
v 0.24216 1 0.302153
v 0.302153 1 0.24216
v 0.375628 1 0.199739
v 0.457579 1 0.17778
v 0.542421 1 0.17778
v 0.624372 1 0.199739
v 0.697847 1 0.24216
v 0.75784 1 0.302153
v 0.800261 1 0.375628
v 0.82222 1 0.457579
v 0 0.925 1
v 1 0.925 1
v 1 0.925 0
v 0 0.925 0
v 0.82222 0.925 0.542421
v 0.800261 0.925 0.624372
v 0.75784 0.925 0.697847
v 0.697847 0.925 0.75784
v 0.624372 0.925 0.800261
v 0.542421 0.925 0.82222
v 0.457579 0.925 0.82222
v 0.375628 0.925 0.800261
v 0.302153 0.925 0.75784
v 0.24216 0.925 0.697847
v 0.199739 0.925 0.624372
v 0.17778 0.925 0.542421
v 0.17778 0.925 0.457579
v 0.199739 0.925 0.375628
v 0.24216 0.925 0.302153
v 0.302153 0.925 0.24216
v 0.375628 0.925 0.199739
v 0.457579 0.925 0.17778
v 0.542421 0.925 0.17778
v 0.624372 0.925 0.199739
v 0.697847 0.925 0.24216
v 0.75784 0.925 0.302153
v 0.800261 0.925 0.375628
v 0.82222 0.925 0.457579
v 0 1 1
v 1 1 1
v 1 1 0
v 0 1 0
v 0.82222 1 0.542421
v 0.800261 1 0.624372
v 0.75784 1 0.697847
v 0.697847 1 0.75784
v 0.624372 1 0.800261
v 0.542421 1 0.82222
v 0.457579 1 0.82222
v 0.375628 1 0.800261
v 0.302153 1 0.75784
v 0.24216 1 0.697847
v 0.199739 1 0.624372
v 0.17778 1 0.542421
v 0.17778 1 0.457579
v 0.199739 1 0.375628
v 0.24216 1 0.302153
v 0.302153 1 0.24216
v 0.375628 1 0.199739
v 0.457579 1 0.17778
v 0.542421 1 0.17778
v 0.624372 1 0.199739
v 0.697847 1 0.24216
v 0.75784 1 0.302153
v 0.800261 1 0.375628
v 0.82222 1 0.457579
vt 0.846191 0.216113
vt 0.939941 0.216113
vt 0.939941 0.223145
vt 0.846191 0.223145
vt 0.096191 0.212402
vt 0.002441 0.212402
vt 0.002441 0.205371
vt 0.096191 0.205371
vt 0.099121 0.205371
vt 0.192871 0.205371
vt 0.192871 0.212402
vt 0.099121 0.212402
vt 0.195801 0.205371
vt 0.289551 0.205371
vt 0.289551 0.212402
vt 0.195801 0.212402
vt 0.20166 0.194629
vt 0.209614 0.194629
vt 0.209614 0.20166
vt 0.20166 0.20166
vt 0.248535 0.194629
vt 0.256489 0.194629
vt 0.256489 0.20166
vt 0.248535 0.20166
vt 0.10791 0.194629
vt 0.115864 0.194629
vt 0.115864 0.20166
vt 0.10791 0.20166
vt 0.260254 0.194629
vt 0.268208 0.194629
vt 0.268208 0.20166
vt 0.260254 0.20166
vt 0.213379 0.194629
vt 0.221333 0.194629
vt 0.221333 0.20166
vt 0.213379 0.20166
vt 0.119629 0.194629
vt 0.127583 0.194629
vt 0.127583 0.20166
vt 0.119629 0.20166
vt 0.436035 0.194629
vt 0.443989 0.194629
vt 0.443989 0.20166
vt 0.436035 0.20166
vt 0.068989 0.20166
vt 0.061035 0.20166
vt 0.061035 0.194629
vt 0.068989 0.194629
vt 0.303364 0.20166
vt 0.29541 0.20166
vt 0.29541 0.194629
vt 0.303364 0.194629
vt 0.092427 0.20166
vt 0.084473 0.20166
vt 0.084473 0.194629
vt 0.092427 0.194629
vt 0.326802 0.20166
vt 0.318848 0.20166
vt 0.318848 0.194629
vt 0.326802 0.194629
vt 0.022114 0.20166
vt 0.01416 0.20166
vt 0.01416 0.194629
vt 0.022114 0.194629
vt 0.33852 0.20166
vt 0.330566 0.20166
vt 0.330566 0.194629
vt 0.33852 0.194629
vt 0.139302 0.20166
vt 0.131348 0.20166
vt 0.131348 0.194629
vt 0.139302 0.194629
vt 0.350239 0.20166
vt 0.342285 0.20166
vt 0.342285 0.194629
vt 0.350239 0.194629
vt 0.995747 0.212402
vt 0.987793 0.212402
vt 0.987793 0.205371
vt 0.995747 0.205371
vt 0.48291 0.194629
vt 0.490864 0.194629
vt 0.490864 0.20166
vt 0.48291 0.20166
vt 0.354004 0.194629
vt 0.361958 0.194629
vt 0.361958 0.20166
vt 0.354004 0.20166
vt 0.365723 0.194629
vt 0.373677 0.194629
vt 0.373677 0.20166
vt 0.365723 0.20166
vt 0.494629 0.194629
vt 0.502583 0.194629
vt 0.502583 0.20166
vt 0.494629 0.20166
vt 0.025879 0.194629
vt 0.033833 0.194629
vt 0.033833 0.20166
vt 0.025879 0.20166
vt 0.964355 0.205371
vt 0.972309 0.205371
vt 0.972309 0.212402
vt 0.964355 0.212402
vt 0.447754 0.194629
vt 0.455708 0.194629
vt 0.455708 0.20166
vt 0.447754 0.20166
vt 0.178223 0.194629
vt 0.186177 0.194629
vt 0.186177 0.20166
vt 0.178223 0.20166
vt 0.079524 0.763113
vt 0.096191 0.720215
vt 0.096191 0.813965
vt 0.079524 0.771067
vt 0.079524 0.763113
vt 0.096191 0.813965
vt 0.077466 0.77875
vt 0.079524 0.771067
vt 0.096191 0.813965
vt 0.073489 0.785638
vt 0.077466 0.77875
vt 0.096191 0.813965
vt 0.067865 0.791262
vt 0.073489 0.785638
vt 0.096191 0.813965
vt 0.060976 0.795239
vt 0.067865 0.791262
vt 0.096191 0.813965
vt 0.060976 0.795239
vt 0.096191 0.813965
vt 0.002441 0.813965
vt 0.053293 0.797298
vt 0.060976 0.795239
vt 0.002441 0.813965
vt 0.045339 0.797298
vt 0.053293 0.797298
vt 0.002441 0.813965
vt 0.037657 0.795239
vt 0.045339 0.797298
vt 0.002441 0.813965
vt 0.030768 0.791262
vt 0.037657 0.795239
vt 0.002441 0.813965
vt 0.025144 0.785638
vt 0.030768 0.791262
vt 0.002441 0.813965
vt 0.021167 0.77875
vt 0.025144 0.785638
vt 0.002441 0.813965
vt 0.019108 0.771067
vt 0.021167 0.77875
vt 0.002441 0.813965
vt 0.019108 0.763113
vt 0.019108 0.771067
vt 0.002441 0.813965
vt 0.021167 0.75543
vt 0.019108 0.763113
vt 0.002441 0.813965
vt 0.096191 0.720215
vt 0.079524 0.763113
vt 0.077466 0.75543
vt 0.096191 0.720215
vt 0.077466 0.75543
vt 0.073489 0.748542
vt 0.096191 0.720215
vt 0.073489 0.748542
vt 0.067865 0.742917
vt 0.096191 0.720215
vt 0.067865 0.742917
vt 0.060976 0.73894
vt 0.096191 0.720215
vt 0.060976 0.73894
vt 0.053293 0.736882
vt 0.096191 0.720215
vt 0.053293 0.736882
vt 0.045339 0.736882
vt 0.096191 0.720215
vt 0.045339 0.736882
vt 0.037657 0.73894
vt 0.002441 0.720215
vt 0.096191 0.720215
vt 0.037657 0.73894
vt 0.002441 0.720215
vt 0.037657 0.73894
vt 0.030768 0.742917
vt 0.002441 0.720215
vt 0.030768 0.742917
vt 0.025144 0.748542
vt 0.002441 0.720215
vt 0.025144 0.748542
vt 0.021167 0.75543
vt 0.002441 0.813965
vt 0.002441 0.720215
vt 0.021167 0.75543
vt 0.192871 0.720215
vt 0.192871 0.813965
vt 0.176204 0.771067
vt 0.192871 0.720215
vt 0.176204 0.771067
vt 0.176204 0.763113
vt 0.192871 0.720215
vt 0.176204 0.763113
vt 0.174146 0.75543
vt 0.192871 0.720215
vt 0.174146 0.75543
vt 0.170169 0.748542
vt 0.192871 0.720215
vt 0.170169 0.748542
vt 0.164544 0.742917
vt 0.192871 0.720215
vt 0.164544 0.742917
vt 0.157656 0.73894
vt 0.099121 0.720215
vt 0.192871 0.720215
vt 0.157656 0.73894
vt 0.099121 0.720215
vt 0.157656 0.73894
vt 0.149973 0.736882
vt 0.099121 0.720215
vt 0.149973 0.736882
vt 0.142019 0.736882
vt 0.099121 0.720215
vt 0.142019 0.736882
vt 0.134336 0.73894
vt 0.099121 0.720215
vt 0.134336 0.73894
vt 0.127448 0.742917
vt 0.099121 0.720215
vt 0.127448 0.742917
vt 0.121824 0.748542
vt 0.099121 0.720215
vt 0.121824 0.748542
vt 0.117847 0.75543
vt 0.099121 0.720215
vt 0.117847 0.75543
vt 0.115788 0.763113
vt 0.099121 0.720215
vt 0.115788 0.763113
vt 0.115788 0.771067
vt 0.099121 0.720215
vt 0.115788 0.771067
vt 0.117847 0.77875
vt 0.174146 0.77875
vt 0.176204 0.771067
vt 0.192871 0.813965
vt 0.170169 0.785638
vt 0.174146 0.77875
vt 0.192871 0.813965
vt 0.164544 0.791262
vt 0.170169 0.785638
vt 0.192871 0.813965
vt 0.157656 0.795239
vt 0.164544 0.791262
vt 0.192871 0.813965
vt 0.149973 0.797298
vt 0.157656 0.795239
vt 0.192871 0.813965
vt 0.142019 0.797298
vt 0.149973 0.797298
vt 0.192871 0.813965
vt 0.134336 0.795239
vt 0.142019 0.797298
vt 0.192871 0.813965
vt 0.134336 0.795239
vt 0.192871 0.813965
vt 0.099121 0.813965
vt 0.127448 0.791262
vt 0.134336 0.795239
vt 0.099121 0.813965
vt 0.121824 0.785638
vt 0.127448 0.791262
vt 0.099121 0.813965
vt 0.117847 0.77875
vt 0.121824 0.785638
vt 0.099121 0.813965
vt 0.117847 0.77875
vt 0.099121 0.813965
vt 0.099121 0.720215
vn 0 0 1
vn 1 0 0
vn 0 0 -1
vn -1 0 0
vn -0.991445 0 -0.130526
vn -0.92388 0 -0.382683
vn -0.793353 0 -0.608761
vn -0.608761 0 -0.793353
vn -0.382683 0 -0.92388
vn -0.130526 0 -0.991445
vn 0.130526 0 -0.991445
vn 0.382683 0 -0.92388
vn 0.608761 0 -0.793353
vn 0.793353 0 -0.608761
vn 0.92388 0 -0.382683
vn 0.991445 0 -0.130526
vn 0.991445 0 0.130526
vn 0.92388 0 0.382683
vn 0.793353 0 0.608761
vn 0.608761 0 0.793353
vn 0.382683 0 0.92388
vn 0.130526 0 0.991445
vn -0.130526 0 0.991445
vn -0.382683 0 0.92388
vn -0.608761 0 0.793353
vn -0.793353 0 0.608761
vn -0.92388 0 0.382683
vn -0.991445 0 0.130526
vn 0 -1 0
vn 0 1 0
f 1/1/1 2/2/1 6/3/1 5/4/1
f 2/5/2 3/6/2 7/7/2 6/8/2
f 3/9/3 4/10/3 8/11/3 7/12/3
f 4/13/4 1/14/4 5/15/4 8/16/4
f 9/17/5 10/18/6 34/19/6 33/20/5
f 10/21/6 11/22/7 35/23/7 34/24/6
f 11/25/7 12/26/8 36/27/8 35/28/7
f 12/29/8 13/30/9 37/31/9 36/32/8
f 13/33/9 14/34/10 38/35/10 37/36/9
f 14/37/10 15/38/11 39/39/11 38/40/10
f 15/41/11 16/42/12 40/43/12 39/44/11
f 16/45/12 17/46/13 41/47/13 40/48/12
f 17/49/13 18/50/14 42/51/14 41/52/13
f 18/53/14 19/54/15 43/55/15 42/56/14
f 19/57/15 20/58/16 44/59/16 43/60/15
f 20/61/16 21/62/17 45/63/17 44/64/16
f 21/65/17 22/66/18 46/67/18 45/68/17
f 22/69/18 23/70/19 47/71/19 46/72/18
f 23/73/19 24/74/20 48/75/20 47/76/19
f 24/77/20 25/78/21 49/79/21 48/80/20
f 25/81/21 26/82/22 50/83/22 49/84/21
f 26/85/22 27/86/23 51/87/23 50/88/22
f 27/89/23 28/90/24 52/91/24 51/92/23
f 28/93/24 29/94/25 53/95/25 52/96/24
f 29/97/25 30/98/26 54/99/26 53/100/25
f 30/101/26 31/102/27 55/103/27 54/104/26
f 31/105/27 32/106/28 56/107/28 55/108/27
f 32/109/28 9/110/5 33/111/5 56/112/28
f 66/113/29 58/114/29 57/115/29
f 67/116/29 66/117/29 57/118/29
f 68/119/29 67/120/29 57/121/29
f 69/122/29 68/123/29 57/124/29
f 70/125/29 69/126/29 57/127/29
f 71/128/29 70/129/29 57/130/29
f 71/131/29 57/132/29 60/133/29
f 72/134/29 71/135/29 60/136/29
f 73/137/29 72/138/29 60/139/29
f 74/140/29 73/141/29 60/142/29
f 75/143/29 74/144/29 60/145/29
f 76/146/29 75/147/29 60/148/29
f 77/149/29 76/150/29 60/151/29
f 78/152/29 77/153/29 60/154/29
f 79/155/29 78/156/29 60/157/29
f 80/158/29 79/159/29 60/160/29
f 58/161/29 66/162/29 65/163/29
f 58/164/29 65/165/29 64/166/29
f 58/167/29 64/168/29 63/169/29
f 58/170/29 63/171/29 62/172/29
f 58/173/29 62/174/29 61/175/29
f 58/176/29 61/177/29 84/178/29
f 58/179/29 84/180/29 83/181/29
f 59/182/29 58/183/29 83/184/29
f 59/185/29 83/186/29 82/187/29
f 59/188/29 82/189/29 81/190/29
f 59/191/29 81/192/29 80/193/29
f 60/194/29 59/195/29 80/196/29
f 85/197/30 86/198/30 94/199/30
f 85/200/30 94/201/30 95/202/30
f 85/203/30 95/204/30 96/205/30
f 85/206/30 96/207/30 97/208/30
f 85/209/30 97/210/30 98/211/30
f 85/212/30 98/213/30 99/214/30
f 88/215/30 85/216/30 99/217/30
f 88/218/30 99/219/30 100/220/30
f 88/221/30 100/222/30 101/223/30
f 88/224/30 101/225/30 102/226/30
f 88/227/30 102/228/30 103/229/30
f 88/230/30 103/231/30 104/232/30
f 88/233/30 104/234/30 105/235/30
f 88/236/30 105/237/30 106/238/30
f 88/239/30 106/240/30 107/241/30
f 88/242/30 107/243/30 108/244/30
f 93/245/30 94/246/30 86/247/30
f 92/248/30 93/249/30 86/250/30
f 91/251/30 92/252/30 86/253/30
f 90/254/30 91/255/30 86/256/30
f 89/257/30 90/258/30 86/259/30
f 112/260/30 89/261/30 86/262/30
f 111/263/30 112/264/30 86/265/30
f 111/266/30 86/267/30 87/268/30
f 110/269/30 111/270/30 87/271/30
f 109/272/30 110/273/30 87/274/30
f 108/275/30 109/276/30 87/277/30
f 108/278/30 87/279/30 88/280/30
o fuel_fill_cover__frame_gasoline__rim
usemtl fuel_station_sump
v 0.82222 1 0.542421
v 0.800261 1 0.624372
v 0.75784 1 0.697847
v 0.697847 1 0.75784
v 0.624372 1 0.800261
v 0.542421 1 0.82222
v 0.457579 1 0.82222
v 0.375628 1 0.800261
v 0.302153 1 0.75784
v 0.24216 1 0.697847
v 0.199739 1 0.624372
v 0.17778 1 0.542421
v 0.17778 1 0.457579
v 0.199739 1 0.375628
v 0.24216 1 0.302153
v 0.302153 1 0.24216
v 0.375628 1 0.199739
v 0.457579 1 0.17778
v 0.542421 1 0.17778
v 0.624372 1 0.199739
v 0.697847 1 0.24216
v 0.75784 1 0.302153
v 0.800261 1 0.375628
v 0.82222 1 0.457579
v 0.78504 1 0.537526
v 0.765615 1 0.610021
v 0.728089 1 0.675019
v 0.675019 1 0.728089
v 0.610021 1 0.765615
v 0.537526 1 0.78504
v 0.462474 1 0.78504
v 0.389979 1 0.765615
v 0.324981 1 0.728089
v 0.271911 1 0.675019
v 0.234385 1 0.610021
v 0.21496 1 0.537526
v 0.21496 1 0.462474
v 0.234385 1 0.389979
v 0.271911 1 0.324981
v 0.324981 1 0.271911
v 0.389979 1 0.234385
v 0.462474 1 0.21496
v 0.537526 1 0.21496
v 0.610021 1 0.234385
v 0.675019 1 0.271911
v 0.728089 1 0.324981
v 0.765615 1 0.389979
v 0.78504 1 0.462474
v 0.78504 0.9625 0.537526
v 0.765615 0.9625 0.610021
v 0.728089 0.9625 0.675019
v 0.675019 0.9625 0.728089
v 0.610021 0.9625 0.765615
v 0.537526 0.9625 0.78504
v 0.462474 0.9625 0.78504
v 0.389979 0.9625 0.765615
v 0.324981 0.9625 0.728089
v 0.271911 0.9625 0.675019
v 0.234385 0.9625 0.610021
v 0.21496 0.9625 0.537526
v 0.21496 0.9625 0.462474
v 0.234385 0.9625 0.389979
v 0.271911 0.9625 0.324981
v 0.324981 0.9625 0.271911
v 0.389979 0.9625 0.234385
v 0.462474 0.9625 0.21496
v 0.537526 0.9625 0.21496
v 0.610021 0.9625 0.234385
v 0.675019 0.9625 0.271911
v 0.728089 0.9625 0.324981
v 0.765615 0.9625 0.389979
v 0.78504 0.9625 0.462474
vt 0.101597 0.464776
vt 0.108394 0.462955
vt 0.109739 0.466203
vt 0.102056 0.468262
vt 0.108394 0.462955
vt 0.114487 0.459437
vt 0.116627 0.462226
vt 0.109739 0.466203
vt 0.114487 0.459437
vt 0.119463 0.454462
vt 0.122252 0.456602
vt 0.116627 0.462226
vt 0.119463 0.454462
vt 0.122981 0.448368
vt 0.126229 0.449714
vt 0.122252 0.456602
vt 0.122981 0.448368
vt 0.124802 0.441572
vt 0.128287 0.442031
vt 0.126229 0.449714
vt 0.124802 0.441572
vt 0.124802 0.434536
vt 0.128287 0.434077
vt 0.128287 0.442031
vt 0.124802 0.434536
vt 0.122981 0.427739
vt 0.126229 0.426394
vt 0.128287 0.434077
vt 0.122981 0.427739
vt 0.119463 0.421646
vt 0.122252 0.419505
vt 0.126229 0.426394
vt 0.119463 0.421646
vt 0.114487 0.41667
vt 0.116627 0.413881
vt 0.122252 0.419505
vt 0.114487 0.41667
vt 0.108394 0.413152
vt 0.109739 0.409904
vt 0.116627 0.413881
vt 0.108394 0.413152
vt 0.101597 0.411331
vt 0.102056 0.407846
vt 0.109739 0.409904
vt 0.101597 0.411331
vt 0.094561 0.411331
vt 0.094102 0.407846
vt 0.102056 0.407846
vt 0.094561 0.411331
vt 0.087765 0.413152
vt 0.086419 0.409904
vt 0.094102 0.407846
vt 0.087765 0.413152
vt 0.081671 0.41667
vt 0.079531 0.413881
vt 0.086419 0.409904
vt 0.081671 0.41667
vt 0.076696 0.421646
vt 0.073907 0.419505
vt 0.079531 0.413881
vt 0.076696 0.421646
vt 0.073178 0.427739
vt 0.06993 0.426394
vt 0.073907 0.419505
vt 0.073178 0.427739
vt 0.071357 0.434536
vt 0.067871 0.434077
vt 0.06993 0.426394
vt 0.071357 0.434536
vt 0.071357 0.441572
vt 0.067871 0.442031
vt 0.067871 0.434077
vt 0.071357 0.441572
vt 0.073178 0.448368
vt 0.06993 0.449714
vt 0.067871 0.442031
vt 0.073178 0.448368
vt 0.076696 0.454462
vt 0.073907 0.456602
vt 0.06993 0.449714
vt 0.076696 0.454462
vt 0.081671 0.459437
vt 0.079531 0.462226
vt 0.073907 0.456602
vt 0.081671 0.459437
vt 0.087765 0.462955
vt 0.086419 0.466203
vt 0.079531 0.462226
vt 0.087765 0.462955
vt 0.094561 0.464776
vt 0.094102 0.468262
vt 0.086419 0.466203
vt 0.094561 0.464776
vt 0.101597 0.464776
vt 0.102056 0.468262
vt 0.094102 0.468262
vt 0.855957 0.129785
vt 0.862993 0.129785
vt 0.862993 0.133301
vt 0.855957 0.133301
vt 0.963379 0.129785
vt 0.970415 0.129785
vt 0.970415 0.133301
vt 0.963379 0.133301
vt 0.866699 0.129785
vt 0.873735 0.129785
vt 0.873735 0.133301
vt 0.866699 0.133301
vt 0.984863 0.129785
vt 0.991899 0.129785
vt 0.991899 0.133301
vt 0.984863 0.133301
vt 0.941895 0.129785
vt 0.948931 0.129785
vt 0.948931 0.133301
vt 0.941895 0.133301
vt 0.812988 0.129785
vt 0.820024 0.129785
vt 0.820024 0.133301
vt 0.812988 0.133301
vt 0.099121 0.122949
vt 0.106157 0.122949
vt 0.106157 0.126465
vt 0.099121 0.126465
vt 0.79854 0.133301
vt 0.791504 0.133301
vt 0.791504 0.129785
vt 0.79854 0.129785
vt 0.02022 0.126465
vt 0.013184 0.126465
vt 0.013184 0.122949
vt 0.02022 0.122949
vt 0.884478 0.133301
vt 0.877441 0.133301
vt 0.877441 0.129785
vt 0.884478 0.129785
vt 0.041704 0.126465
vt 0.034668 0.126465
vt 0.034668 0.122949
vt 0.041704 0.122949
vt 0.734087 0.133301
vt 0.727051 0.133301
vt 0.727051 0.129785
vt 0.734087 0.129785
vt 0.052446 0.126465
vt 0.04541 0.126465
vt 0.04541 0.122949
vt 0.052446 0.122949
vt 0.841509 0.133301
vt 0.834473 0.133301
vt 0.834473 0.129785
vt 0.841509 0.129785
vt 0.116899 0.126465
vt 0.109863 0.126465
vt 0.109863 0.122949
vt 0.116899 0.122949
vt 0.755571 0.133301
vt 0.748535 0.133301
vt 0.748535 0.129785
vt 0.755571 0.129785
vt 0.185059 0.122949
vt 0.192095 0.122949
vt 0.192095 0.126465
vt 0.185059 0.126465
vt 0.056152 0.122949
vt 0.063189 0.122949
vt 0.063189 0.126465
vt 0.056152 0.126465
vt 0.120605 0.122949
vt 0.127642 0.122949
vt 0.127642 0.126465
vt 0.120605 0.126465
vt 0.131348 0.122949
vt 0.138384 0.122949
vt 0.138384 0.126465
vt 0.131348 0.126465
vt 0.705566 0.129785
vt 0.712603 0.129785
vt 0.712603 0.133301
vt 0.705566 0.133301
vt 0.77002 0.129785
vt 0.777056 0.129785
vt 0.777056 0.133301
vt 0.77002 0.133301
vt 0.206543 0.122949
vt 0.213579 0.122949
vt 0.213579 0.126465
vt 0.206543 0.126465
vt 0.888184 0.129785
vt 0.89522 0.129785
vt 0.89522 0.133301
vt 0.888184 0.133301
vn 0 1 0
vn -0.991445 0 -0.130526
vn -0.92388 0 -0.382683
vn -0.793353 0 -0.608761
vn -0.608761 0 -0.793353
vn -0.382683 0 -0.92388
vn -0.130526 0 -0.991445
vn 0.130526 0 -0.991445
vn 0.382683 0 -0.92388
vn 0.608761 0 -0.793353
vn 0.793353 0 -0.608761
vn 0.92388 0 -0.382683
vn 0.991445 0 -0.130526
vn 0.991445 0 0.130526
vn 0.92388 0 0.382683
vn 0.793353 0 0.608761
vn 0.608761 0 0.793353
vn 0.382683 0 0.92388
vn 0.130526 0 0.991445
vn -0.130526 0 0.991445
vn -0.382683 0 0.92388
vn -0.608761 0 0.793353
vn -0.793353 0 0.608761
vn -0.92388 0 0.382683
vn -0.991445 0 0.130526
f 137/281/31 138/282/31 114/283/31 113/284/31
f 138/285/31 139/286/31 115/287/31 114/288/31
f 139/289/31 140/290/31 116/291/31 115/292/31
f 140/293/31 141/294/31 117/295/31 116/296/31
f 141/297/31 142/298/31 118/299/31 117/300/31
f 142/301/31 143/302/31 119/303/31 118/304/31
f 143/305/31 144/306/31 120/307/31 119/308/31
f 144/309/31 145/310/31 121/311/31 120/312/31
f 145/313/31 146/314/31 122/315/31 121/316/31
f 146/317/31 147/318/31 123/319/31 122/320/31
f 147/321/31 148/322/31 124/323/31 123/324/31
f 148/325/31 149/326/31 125/327/31 124/328/31
f 149/329/31 150/330/31 126/331/31 125/332/31
f 150/333/31 151/334/31 127/335/31 126/336/31
f 151/337/31 152/338/31 128/339/31 127/340/31
f 152/341/31 153/342/31 129/343/31 128/344/31
f 153/345/31 154/346/31 130/347/31 129/348/31
f 154/349/31 155/350/31 131/351/31 130/352/31
f 155/353/31 156/354/31 132/355/31 131/356/31
f 156/357/31 157/358/31 133/359/31 132/360/31
f 157/361/31 158/362/31 134/363/31 133/364/31
f 158/365/31 159/366/31 135/367/31 134/368/31
f 159/369/31 160/370/31 136/371/31 135/372/31
f 160/373/31 137/374/31 113/375/31 136/376/31
f 161/377/32 162/378/33 138/379/33 137/380/32
f 162/381/33 163/382/34 139/383/34 138/384/33
f 163/385/34 164/386/35 140/387/35 139/388/34
f 164/389/35 165/390/36 141/391/36 140/392/35
f 165/393/36 166/394/37 142/395/37 141/396/36
f 166/397/37 167/398/38 143/399/38 142/400/37
f 167/401/38 168/402/39 144/403/39 143/404/38
f 168/405/39 169/406/40 145/407/40 144/408/39
f 169/409/40 170/410/41 146/411/41 145/412/40
f 170/413/41 171/414/42 147/415/42 146/416/41
f 171/417/42 172/418/43 148/419/43 147/420/42
f 172/421/43 173/422/44 149/423/44 148/424/43
f 173/425/44 174/426/45 150/427/45 149/428/44
f 174/429/45 175/430/46 151/431/46 150/432/45
f 175/433/46 176/434/47 152/435/47 151/436/46
f 176/437/47 177/438/48 153/439/48 152/440/47
f 177/441/48 178/442/49 154/443/49 153/444/48
f 178/445/49 179/446/50 155/447/50 154/448/49
f 179/449/50 180/450/51 156/451/51 155/452/50
f 180/453/51 181/454/52 157/455/52 156/456/51
f 181/457/52 182/458/53 158/459/53 157/460/52
f 182/461/53 183/462/54 159/463/54 158/464/53
f 183/465/54 184/466/55 160/467/55 159/468/54
f 184/469/55 161/470/32 137/471/32 160/472/55
o fuel_fill_cover__frame_gasoline__bucket
usemtl fuel_station_sump
v 0.78504 0.9625 0.537526
v 0.765615 0.9625 0.610021
v 0.728089 0.9625 0.675019
v 0.675019 0.9625 0.728089
v 0.610021 0.9625 0.765615
v 0.537526 0.9625 0.78504
v 0.462474 0.9625 0.78504
v 0.389979 0.9625 0.765615
v 0.324981 0.9625 0.728089
v 0.271911 0.9625 0.675019
v 0.234385 0.9625 0.610021
v 0.21496 0.9625 0.537526
v 0.21496 0.9625 0.462474
v 0.234385 0.9625 0.389979
v 0.271911 0.9625 0.324981
v 0.324981 0.9625 0.271911
v 0.389979 0.9625 0.234385
v 0.462474 0.9625 0.21496
v 0.537526 0.9625 0.21496
v 0.610021 0.9625 0.234385
v 0.675019 0.9625 0.271911
v 0.728089 0.9625 0.324981
v 0.765615 0.9625 0.389979
v 0.78504 0.9625 0.462474
v 0.78504 0.4 0.537526
v 0.765615 0.4 0.610021
v 0.728089 0.4 0.675019
v 0.675019 0.4 0.728089
v 0.610021 0.4 0.765615
v 0.537526 0.4 0.78504
v 0.462474 0.4 0.78504
v 0.389979 0.4 0.765615
v 0.324981 0.4 0.728089
v 0.271911 0.4 0.675019
v 0.234385 0.4 0.610021
v 0.21496 0.4 0.537526
v 0.21496 0.4 0.462474
v 0.234385 0.4 0.389979
v 0.271911 0.4 0.324981
v 0.324981 0.4 0.271911
v 0.389979 0.4 0.234385
v 0.462474 0.4 0.21496
v 0.537526 0.4 0.21496
v 0.610021 0.4 0.234385
v 0.675019 0.4 0.271911
v 0.728089 0.4 0.324981
v 0.765615 0.4 0.389979
v 0.78504 0.4 0.462474
v 0.611538 0.4 0.514684
v 0.603936 0.4 0.543052
v 0.589252 0.4 0.568486
v 0.568486 0.4 0.589252
v 0.543052 0.4 0.603936
v 0.514684 0.4 0.611538
v 0.485316 0.4 0.611538
v 0.456948 0.4 0.603936
v 0.431514 0.4 0.589252
v 0.410748 0.4 0.568486
v 0.396064 0.4 0.543052
v 0.388462 0.4 0.514684
v 0.388462 0.4 0.485316
v 0.396064 0.4 0.456948
v 0.410748 0.4 0.431514
v 0.431514 0.4 0.410748
v 0.456948 0.4 0.396064
v 0.485316 0.4 0.388462
v 0.514684 0.4 0.388462
v 0.543052 0.4 0.396064
v 0.568486 0.4 0.410748
v 0.589252 0.4 0.431514
v 0.603936 0.4 0.456948
v 0.611538 0.4 0.485316
v 0.611538 0.375 0.514684
v 0.603936 0.375 0.543052
v 0.589252 0.375 0.568486
v 0.568486 0.375 0.589252
v 0.543052 0.375 0.603936
v 0.514684 0.375 0.611538
v 0.485316 0.375 0.611538
v 0.456948 0.375 0.603936
v 0.431514 0.375 0.589252
v 0.410748 0.375 0.568486
v 0.396064 0.375 0.543052
v 0.388462 0.375 0.514684
v 0.388462 0.375 0.485316
v 0.396064 0.375 0.456948
v 0.410748 0.375 0.431514
v 0.431514 0.375 0.410748
v 0.456948 0.375 0.396064
v 0.485316 0.375 0.388462
v 0.514684 0.375 0.388462
v 0.543052 0.375 0.396064
v 0.568486 0.375 0.410748
v 0.589252 0.375 0.431514
v 0.603936 0.375 0.456948
v 0.611538 0.375 0.485316
v 0.859399 0.375 0.547316
v 0.834906 0.375 0.638723
v 0.787591 0.375 0.720676
v 0.720676 0.375 0.787591
v 0.638723 0.375 0.834906
v 0.547316 0.375 0.859399
v 0.452684 0.375 0.859399
v 0.361277 0.375 0.834906
v 0.279324 0.375 0.787591
v 0.212409 0.375 0.720676
v 0.165094 0.375 0.638723
v 0.140601 0.375 0.547316
v 0.140601 0.375 0.452684
v 0.165094 0.375 0.361277
v 0.212409 0.375 0.279324
v 0.279324 0.375 0.212409
v 0.361277 0.375 0.165094
v 0.452684 0.375 0.140601
v 0.547316 0.375 0.140601
v 0.638723 0.375 0.165094
v 0.720676 0.375 0.212409
v 0.787591 0.375 0.279324
v 0.834906 0.375 0.361277
v 0.859399 0.375 0.452684
v 0.859399 0.925 0.547316
v 0.834906 0.925 0.638723
v 0.787591 0.925 0.720676
v 0.720676 0.925 0.787591
v 0.638723 0.925 0.834906
v 0.547316 0.925 0.859399
v 0.452684 0.925 0.859399
v 0.361277 0.925 0.834906
v 0.279324 0.925 0.787591
v 0.212409 0.925 0.720676
v 0.165094 0.925 0.638723
v 0.140601 0.925 0.547316
v 0.140601 0.925 0.452684
v 0.165094 0.925 0.361277
v 0.212409 0.925 0.279324
v 0.279324 0.925 0.212409
v 0.361277 0.925 0.165094
v 0.452684 0.925 0.140601
v 0.547316 0.925 0.140601
v 0.638723 0.925 0.165094
v 0.720676 0.925 0.212409
v 0.787591 0.925 0.279324
v 0.834906 0.925 0.361277
v 0.859399 0.925 0.452684
vt 0.085449 0.237593
vt 0.085449 0.244629
vt 0.032715 0.244629
vt 0.032715 0.237593
vt 0.793457 0.237593
vt 0.793457 0.244629
vt 0.740723 0.244629
vt 0.740723 0.237593
vt 0.141113 0.237593
vt 0.141113 0.244629
vt 0.088379 0.244629
vt 0.088379 0.237593
vt 0.937012 0.237593
vt 0.937012 0.244629
vt 0.884277 0.244629
vt 0.884277 0.237593
vt 0.144043 0.244629
vt 0.144043 0.237593
vt 0.196777 0.237593
vt 0.196777 0.244629
vt 0.745605 0.255371
vt 0.745605 0.248335
vt 0.79834 0.248335
vt 0.79834 0.255371
vt 0.742676 0.233887
vt 0.742676 0.226851
vt 0.79541 0.226851
vt 0.79541 0.233887
vt 0.604004 0.255371
vt 0.604004 0.248335
vt 0.656738 0.248335
vt 0.656738 0.255371
vt 0.032715 0.233887
vt 0.032715 0.226851
vt 0.085449 0.226851
vt 0.085449 0.233887
vt 0.199707 0.244629
vt 0.199707 0.237593
vt 0.252441 0.237593
vt 0.252441 0.244629
vt 0.317871 0.233887
vt 0.317871 0.226851
vt 0.370605 0.226851
vt 0.370605 0.233887
vt 0.179199 0.255371
vt 0.179199 0.248335
vt 0.231934 0.248335
vt 0.231934 0.255371
vt 0.20459 0.233887
vt 0.20459 0.226851
vt 0.257324 0.226851
vt 0.257324 0.233887
vt 0.80127 0.255371
vt 0.80127 0.248335
vt 0.854004 0.248335
vt 0.854004 0.255371
vt 0.79834 0.233887
vt 0.79834 0.226851
vt 0.851074 0.226851
vt 0.851074 0.233887
vt 0.320801 0.255371
vt 0.320801 0.248335
vt 0.373535 0.248335
vt 0.373535 0.255371
vt 0.145996 0.223145
vt 0.145996 0.216108
vt 0.19873 0.216108
vt 0.19873 0.223145
vt 0.373535 0.233887
vt 0.373535 0.226851
vt 0.42627 0.226851
vt 0.42627 0.233887
vt 0.20166 0.223145
vt 0.20166 0.216108
vt 0.254395 0.216108
vt 0.254395 0.223145
vt 0.481934 0.226851
vt 0.481934 0.233887
vt 0.429199 0.233887
vt 0.429199 0.226851
vt 0.090332 0.248335
vt 0.090332 0.255371
vt 0.037598 0.255371
vt 0.037598 0.248335
vt 0.429199 0.248335
vt 0.429199 0.255371
vt 0.376465 0.255371
vt 0.376465 0.248335
vt 0.085449 0.216108
vt 0.085449 0.223145
vt 0.032715 0.223145
vt 0.032715 0.216108
vt 0.308105 0.237593
vt 0.308105 0.244629
vt 0.255371 0.244629
vt 0.255371 0.237593
vt 0.280541 0.451996
vt 0.2832 0.451283
vt 0.289478 0.466441
vt 0.282682 0.468262
vt 0.2832 0.451283
vt 0.285584 0.449907
vt 0.295572 0.462923
vt 0.289478 0.466441
vt 0.285584 0.449907
vt 0.287531 0.44796
vt 0.300547 0.457947
vt 0.295572 0.462923
vt 0.287531 0.44796
vt 0.288908 0.445575
vt 0.304065 0.451854
vt 0.300547 0.457947
vt 0.288908 0.445575
vt 0.289621 0.442916
vt 0.305886 0.445057
vt 0.304065 0.451854
vt 0.289621 0.442916
vt 0.289621 0.440163
vt 0.305886 0.438021
vt 0.305886 0.445057
vt 0.289621 0.440163
vt 0.288908 0.437503
vt 0.304065 0.431225
vt 0.305886 0.438021
vt 0.288908 0.437503
vt 0.287531 0.435119
vt 0.300547 0.425131
vt 0.304065 0.431225
vt 0.287531 0.435119
vt 0.285584 0.433172
vt 0.295572 0.420156
vt 0.300547 0.425131
vt 0.285584 0.433172
vt 0.2832 0.431795
vt 0.289478 0.416638
vt 0.295572 0.420156
vt 0.2832 0.431795
vt 0.280541 0.431083
vt 0.282682 0.414817
vt 0.289478 0.416638
vt 0.280541 0.431083
vt 0.277787 0.431083
vt 0.275646 0.414817
vt 0.282682 0.414817
vt 0.277787 0.431083
vt 0.275128 0.431795
vt 0.268849 0.416638
vt 0.275646 0.414817
vt 0.275128 0.431795
vt 0.272743 0.433172
vt 0.262756 0.420156
vt 0.268849 0.416638
vt 0.272743 0.433172
vt 0.270797 0.435119
vt 0.257781 0.425131
vt 0.262756 0.420156
vt 0.270797 0.435119
vt 0.26942 0.437503
vt 0.254263 0.431225
vt 0.257781 0.425131
vt 0.26942 0.437503
vt 0.268707 0.440163
vt 0.252441 0.438021
vt 0.254263 0.431225
vt 0.268707 0.440163
vt 0.268707 0.442916
vt 0.252441 0.445057
vt 0.252441 0.438021
vt 0.268707 0.442916
vt 0.26942 0.445575
vt 0.254263 0.451854
vt 0.252441 0.445057
vt 0.26942 0.445575
vt 0.270797 0.44796
vt 0.257781 0.457947
vt 0.254263 0.451854
vt 0.270797 0.44796
vt 0.272743 0.449907
vt 0.262756 0.462923
vt 0.257781 0.457947
vt 0.272743 0.449907
vt 0.275128 0.451283
vt 0.268849 0.466441
vt 0.262756 0.462923
vt 0.275128 0.451283
vt 0.277787 0.451996
vt 0.275646 0.468262
vt 0.268849 0.466441
vt 0.277787 0.451996
vt 0.280541 0.451996
vt 0.282682 0.468262
vt 0.275646 0.468262
vt 0.662598 0.097754
vt 0.665351 0.097754
vt 0.665351 0.100098
vt 0.662598 0.100098
vt 0.721191 0.097754
vt 0.723945 0.097754
vt 0.723945 0.100098
vt 0.721191 0.100098
vt 0.686035 0.097754
vt 0.688788 0.097754
vt 0.688788 0.100098
vt 0.686035 0.100098
vt 0.697754 0.097754
vt 0.700507 0.097754
vt 0.700507 0.100098
vt 0.697754 0.100098
vt 0.703613 0.097754
vt 0.706367 0.097754
vt 0.706367 0.100098
vt 0.703613 0.100098
vt 0.627441 0.097754
vt 0.630195 0.097754
vt 0.630195 0.100098
vt 0.627441 0.100098
vt 0.803223 0.097754
vt 0.805976 0.097754
vt 0.805976 0.100098
vt 0.803223 0.100098
vt 0.618476 0.100098
vt 0.615723 0.100098
vt 0.615723 0.097754
vt 0.618476 0.097754
vt 0.735663 0.100098
vt 0.73291 0.100098
vt 0.73291 0.097754
vt 0.735663 0.097754
vt 0.636054 0.100098
vt 0.633301 0.100098
vt 0.633301 0.097754
vt 0.636054 0.097754
vt 0.741523 0.100098
vt 0.73877 0.100098
vt 0.73877 0.097754
vt 0.741523 0.097754
vt 0.58332 0.100098
vt 0.580566 0.100098
vt 0.580566 0.097754
vt 0.58332 0.097754
vt 0.747382 0.100098
vt 0.744629 0.100098
vt 0.744629 0.097754
vt 0.747382 0.097754
vt 0.641913 0.100098
vt 0.63916 0.100098
vt 0.63916 0.097754
vt 0.641913 0.097754
vt 0.811835 0.100098
vt 0.809082 0.100098
vt 0.809082 0.097754
vt 0.811835 0.097754
vt 0.571601 0.100098
vt 0.568848 0.100098
vt 0.568848 0.097754
vt 0.571601 0.097754
vt 0.814941 0.097754
vt 0.817695 0.097754
vt 0.817695 0.100098
vt 0.814941 0.100098
vt 0.750488 0.097754
vt 0.753242 0.097754
vt 0.753242 0.100098
vt 0.750488 0.100098
vt 0.820801 0.097754
vt 0.823554 0.097754
vt 0.823554 0.100098
vt 0.820801 0.100098
vt 0.756348 0.097754
vt 0.759101 0.097754
vt 0.759101 0.100098
vt 0.756348 0.100098
vt 0.586426 0.097754
vt 0.589179 0.097754
vt 0.589179 0.100098
vt 0.586426 0.100098
vt 0.604004 0.097754
vt 0.606757 0.097754
vt 0.606757 0.100098
vt 0.604004 0.100098
vt 0.791504 0.097754
vt 0.794257 0.097754
vt 0.794257 0.100098
vt 0.791504 0.100098
vt 0.668457 0.097754
vt 0.67121 0.097754
vt 0.67121 0.100098
vt 0.668457 0.100098
vt 0.899946 0.560054
vt 0.908515 0.56235
vt 0.899546 0.584004
vt 0.896887 0.583291
vt 0.908515 0.56235
vt 0.916198 0.566786
vt 0.901931 0.58538
vt 0.899546 0.584004
vt 0.916198 0.566786
vt 0.922472 0.573059
vt 0.903877 0.587327
vt 0.901931 0.58538
vt 0.922472 0.573059
vt 0.926908 0.580743
vt 0.905254 0.589712
vt 0.903877 0.587327
vt 0.926908 0.580743
vt 0.929204 0.589312
vt 0.905967 0.592371
vt 0.905254 0.589712
vt 0.929204 0.589312
vt 0.929204 0.598184
vt 0.905967 0.595124
vt 0.905967 0.592371
vt 0.929204 0.598184
vt 0.926908 0.606753
vt 0.905254 0.597784
vt 0.905967 0.595124
vt 0.926908 0.606753
vt 0.922472 0.614436
vt 0.903877 0.600168
vt 0.905254 0.597784
vt 0.922472 0.614436
vt 0.916198 0.620709
vt 0.901931 0.602115
vt 0.903877 0.600168
vt 0.916198 0.620709
vt 0.908515 0.625145
vt 0.899546 0.603492
vt 0.901931 0.602115
vt 0.908515 0.625145
vt 0.899946 0.627441
vt 0.896887 0.604204
vt 0.899546 0.603492
vt 0.899946 0.627441
vt 0.891074 0.627441
vt 0.894133 0.604204
vt 0.896887 0.604204
vt 0.891074 0.627441
vt 0.882505 0.625145
vt 0.891474 0.603492
vt 0.894133 0.604204
vt 0.882505 0.625145
vt 0.874822 0.620709
vt 0.88909 0.602115
vt 0.891474 0.603492
vt 0.874822 0.620709
vt 0.868548 0.614436
vt 0.887143 0.600168
vt 0.88909 0.602115
vt 0.868548 0.614436
vt 0.864113 0.606753
vt 0.885766 0.597784
vt 0.887143 0.600168
vt 0.864113 0.606753
vt 0.861816 0.598184
vt 0.885053 0.595124
vt 0.885766 0.597784
vt 0.861816 0.598184
vt 0.861816 0.589312
vt 0.885053 0.592371
vt 0.885053 0.595124
vt 0.861816 0.589312
vt 0.864113 0.580743
vt 0.885766 0.589712
vt 0.885053 0.592371
vt 0.864113 0.580743
vt 0.868548 0.573059
vt 0.887143 0.587327
vt 0.885766 0.589712
vt 0.868548 0.573059
vt 0.874822 0.566786
vt 0.88909 0.58538
vt 0.887143 0.587327
vt 0.874822 0.566786
vt 0.882505 0.56235
vt 0.891474 0.584004
vt 0.88909 0.58538
vt 0.882505 0.56235
vt 0.891074 0.560054
vt 0.894133 0.583291
vt 0.891474 0.584004
vt 0.891074 0.560054
vt 0.899946 0.560054
vt 0.896887 0.583291
vt 0.894133 0.583291
vt 0.327441 0.27189
vt 0.327441 0.280762
vt 0.275879 0.280762
vt 0.275879 0.27189
vt 0.546191 0.27189
vt 0.546191 0.280762
vt 0.494629 0.280762
vt 0.494629 0.27189
vt 0.218066 0.27189
vt 0.218066 0.280762
vt 0.166504 0.280762
vt 0.166504 0.27189
vt 0.655566 0.27189
vt 0.655566 0.280762
vt 0.604004 0.280762
vt 0.604004 0.27189
vt 0.436816 0.27189
vt 0.436816 0.280762
vt 0.385254 0.280762
vt 0.385254 0.27189
vt 0.971973 0.285562
vt 0.971973 0.294434
vt 0.92041 0.294434
vt 0.92041 0.285562
vt 0.655566 0.259195
vt 0.655566 0.268066
vt 0.604004 0.268066
vt 0.604004 0.259195
vt 0.592285 0.294434
vt 0.592285 0.285562
vt 0.643848 0.285562
vt 0.643848 0.294434
vt 0.494629 0.268066
vt 0.494629 0.259195
vt 0.546191 0.259195
vt 0.546191 0.268066
vt 0.70166 0.294434
vt 0.70166 0.285562
vt 0.753223 0.285562
vt 0.753223 0.294434
vt 0.057129 0.268066
vt 0.057129 0.259195
vt 0.108691 0.259195
vt 0.108691 0.268066
vt 0.373535 0.294434
vt 0.373535 0.285562
vt 0.425098 0.285562
vt 0.425098 0.294434
vt 0.713379 0.280762
vt 0.713379 0.27189
vt 0.764941 0.27189
vt 0.764941 0.280762
vt 0.811035 0.294434
vt 0.811035 0.285562
vt 0.862598 0.285562
vt 0.862598 0.294434
vt 0.111816 0.268066
vt 0.111816 0.259195
vt 0.163379 0.259195
vt 0.163379 0.268066
vt 0.26416 0.294434
vt 0.26416 0.285562
vt 0.315723 0.285562
vt 0.315723 0.294434
vt 0.764941 0.259195
vt 0.764941 0.268066
vt 0.713379 0.268066
vt 0.713379 0.259195
vt 0.218066 0.259195
vt 0.218066 0.268066
vt 0.166504 0.268066
vt 0.166504 0.259195
vt 0.272754 0.259195
vt 0.272754 0.268066
vt 0.221191 0.268066
vt 0.221191 0.259195
vt 0.874316 0.27189
vt 0.874316 0.280762
vt 0.822754 0.280762
vt 0.822754 0.27189
vt 0.206348 0.285562
vt 0.206348 0.294434
vt 0.154785 0.294434
vt 0.154785 0.285562
vt 0.534473 0.285562
vt 0.534473 0.294434
vt 0.48291 0.294434
vt 0.48291 0.285562
vt 0.929004 0.27189
vt 0.929004 0.280762
vt 0.877441 0.280762
vt 0.877441 0.27189
vt 0.108691 0.27189
vt 0.108691 0.280762
vt 0.057129 0.280762
vt 0.057129 0.27189
vn -0.991445 0 -0.130526
vn -0.92388 0 -0.382683
vn -0.793353 0 -0.608761
vn -0.608761 0 -0.793353
vn -0.382683 0 -0.92388
vn -0.130526 0 -0.991445
vn 0.130526 0 -0.991445
vn 0.382683 0 -0.92388
vn 0.608761 0 -0.793353
vn 0.793353 0 -0.608761
vn 0.92388 0 -0.382683
vn 0.991445 0 -0.130526
vn 0.991445 0 0.130526
vn 0.92388 0 0.382683
vn 0.793353 0 0.608761
vn 0.608761 0 0.793353
vn 0.382683 0 0.92388
vn 0.130526 0 0.991445
vn -0.130526 0 0.991445
vn -0.382683 0 0.92388
vn -0.608761 0 0.793353
vn -0.793353 0 0.608761
vn -0.92388 0 0.382683
vn -0.991445 0 0.130526
vn 0 1 0
vn 0 -1 0
f 209/473/56 210/474/57 186/475/57 185/476/56
f 210/477/57 211/478/58 187/479/58 186/480/57
f 211/481/58 212/482/59 188/483/59 187/484/58
f 212/485/59 213/486/60 189/487/60 188/488/59
f 213/489/60 214/490/61 190/491/61 189/492/60
f 214/493/61 215/494/62 191/495/62 190/496/61
f 215/497/62 216/498/63 192/499/63 191/500/62
f 216/501/63 217/502/64 193/503/64 192/504/63
f 217/505/64 218/506/65 194/507/65 193/508/64
f 218/509/65 219/510/66 195/511/66 194/512/65
f 219/513/66 220/514/67 196/515/67 195/516/66
f 220/517/67 221/518/68 197/519/68 196/520/67
f 221/521/68 222/522/69 198/523/69 197/524/68
f 222/525/69 223/526/70 199/527/70 198/528/69
f 223/529/70 224/530/71 200/531/71 199/532/70
f 224/533/71 225/534/72 201/535/72 200/536/71
f 225/537/72 226/538/73 202/539/73 201/540/72
f 226/541/73 227/542/74 203/543/74 202/544/73
f 227/545/74 228/546/75 204/547/75 203/548/74
f 228/549/75 229/550/76 205/551/76 204/552/75
f 229/553/76 230/554/77 206/555/77 205/556/76
f 230/557/77 231/558/78 207/559/78 206/560/77
f 231/561/78 232/562/79 208/563/79 207/564/78
f 232/565/79 209/566/56 185/567/56 208/568/79
f 233/569/80 234/570/80 210/571/80 209/572/80
f 234/573/80 235/574/80 211/575/80 210/576/80
f 235/577/80 236/578/80 212/579/80 211/580/80
f 236/581/80 237/582/80 213/583/80 212/584/80
f 237/585/80 238/586/80 214/587/80 213/588/80
f 238/589/80 239/590/80 215/591/80 214/592/80
f 239/593/80 240/594/80 216/595/80 215/596/80
f 240/597/80 241/598/80 217/599/80 216/600/80
f 241/601/80 242/602/80 218/603/80 217/604/80
f 242/605/80 243/606/80 219/607/80 218/608/80
f 243/609/80 244/610/80 220/611/80 219/612/80
f 244/613/80 245/614/80 221/615/80 220/616/80
f 245/617/80 246/618/80 222/619/80 221/620/80
f 246/621/80 247/622/80 223/623/80 222/624/80
f 247/625/80 248/626/80 224/627/80 223/628/80
f 248/629/80 249/630/80 225/631/80 224/632/80
f 249/633/80 250/634/80 226/635/80 225/636/80
f 250/637/80 251/638/80 227/639/80 226/640/80
f 251/641/80 252/642/80 228/643/80 227/644/80
f 252/645/80 253/646/80 229/647/80 228/648/80
f 253/649/80 254/650/80 230/651/80 229/652/80
f 254/653/80 255/654/80 231/655/80 230/656/80
f 255/657/80 256/658/80 232/659/80 231/660/80
f 256/661/80 233/662/80 209/663/80 232/664/80
f 257/665/56 258/666/57 234/667/57 233/668/56
f 258/669/57 259/670/58 235/671/58 234/672/57
f 259/673/58 260/674/59 236/675/59 235/676/58
f 260/677/59 261/678/60 237/679/60 236/680/59
f 261/681/60 262/682/61 238/683/61 237/684/60
f 262/685/61 263/686/62 239/687/62 238/688/61
f 263/689/62 264/690/63 240/691/63 239/692/62
f 264/693/63 265/694/64 241/695/64 240/696/63
f 265/697/64 266/698/65 242/699/65 241/700/64
f 266/701/65 267/702/66 243/703/66 242/704/65
f 267/705/66 268/706/67 244/707/67 243/708/66
f 268/709/67 269/710/68 245/711/68 244/712/67
f 269/713/68 270/714/69 246/715/69 245/716/68
f 270/717/69 271/718/70 247/719/70 246/720/69
f 271/721/70 272/722/71 248/723/71 247/724/70
f 272/725/71 273/726/72 249/727/72 248/728/71
f 273/729/72 274/730/73 250/731/73 249/732/72
f 274/733/73 275/734/74 251/735/74 250/736/73
f 275/737/74 276/738/75 252/739/75 251/740/74
f 276/741/75 277/742/76 253/743/76 252/744/75
f 277/745/76 278/746/77 254/747/77 253/748/76
f 278/749/77 279/750/78 255/751/78 254/752/77
f 279/753/78 280/754/79 256/755/79 255/756/78
f 280/757/79 257/758/56 233/759/56 256/760/79
f 281/761/81 282/762/81 258/763/81 257/764/81
f 282/765/81 283/766/81 259/767/81 258/768/81
f 283/769/81 284/770/81 260/771/81 259/772/81
f 284/773/81 285/774/81 261/775/81 260/776/81
f 285/777/81 286/778/81 262/779/81 261/780/81
f 286/781/81 287/782/81 263/783/81 262/784/81
f 287/785/81 288/786/81 264/787/81 263/788/81
f 288/789/81 289/790/81 265/791/81 264/792/81
f 289/793/81 290/794/81 266/795/81 265/796/81
f 290/797/81 291/798/81 267/799/81 266/800/81
f 291/801/81 292/802/81 268/803/81 267/804/81
f 292/805/81 293/806/81 269/807/81 268/808/81
f 293/809/81 294/810/81 270/811/81 269/812/81
f 294/813/81 295/814/81 271/815/81 270/816/81
f 295/817/81 296/818/81 272/819/81 271/820/81
f 296/821/81 297/822/81 273/823/81 272/824/81
f 297/825/81 298/826/81 274/827/81 273/828/81
f 298/829/81 299/830/81 275/831/81 274/832/81
f 299/833/81 300/834/81 276/835/81 275/836/81
f 300/837/81 301/838/81 277/839/81 276/840/81
f 301/841/81 302/842/81 278/843/81 277/844/81
f 302/845/81 303/846/81 279/847/81 278/848/81
f 303/849/81 304/850/81 280/851/81 279/852/81
f 304/853/81 281/854/81 257/855/81 280/856/81
f 305/857/68 306/858/69 282/859/69 281/860/68
f 306/861/69 307/862/70 283/863/70 282/864/69
f 307/865/70 308/866/71 284/867/71 283/868/70
f 308/869/71 309/870/72 285/871/72 284/872/71
f 309/873/72 310/874/73 286/875/73 285/876/72
f 310/877/73 311/878/74 287/879/74 286/880/73
f 311/881/74 312/882/75 288/883/75 287/884/74
f 312/885/75 313/886/76 289/887/76 288/888/75
f 313/889/76 314/890/77 290/891/77 289/892/76
f 314/893/77 315/894/78 291/895/78 290/896/77
f 315/897/78 316/898/79 292/899/79 291/900/78
f 316/901/79 317/902/56 293/903/56 292/904/79
f 317/905/56 318/906/57 294/907/57 293/908/56
f 318/909/57 319/910/58 295/911/58 294/912/57
f 319/913/58 320/914/59 296/915/59 295/916/58
f 320/917/59 321/918/60 297/919/60 296/920/59
f 321/921/60 322/922/61 298/923/61 297/924/60
f 322/925/61 323/926/62 299/927/62 298/928/61
f 323/929/62 324/930/63 300/931/63 299/932/62
f 324/933/63 325/934/64 301/935/64 300/936/63
f 325/937/64 326/938/65 302/939/65 301/940/64
f 326/941/65 327/942/66 303/943/66 302/944/65
f 327/945/66 328/946/67 304/947/67 303/948/66
f 328/949/67 305/950/68 281/951/68 304/952/67
o fuel_fill_cover__frame_gasoline__riser
usemtl fuel_station_sump
v 0.591949 0.1125 0.51829
v 0.57795 0.1125 0.552085
v 0.552085 0.1125 0.57795
v 0.51829 0.1125 0.591949
v 0.48171 0.1125 0.591949
v 0.447915 0.1125 0.57795
v 0.42205 0.1125 0.552085
v 0.408051 0.1125 0.51829
v 0.408051 0.1125 0.48171
v 0.42205 0.1125 0.447915
v 0.447915 0.1125 0.42205
v 0.48171 0.1125 0.408051
v 0.51829 0.1125 0.408051
v 0.552085 0.1125 0.42205
v 0.57795 0.1125 0.447915
v 0.591949 0.1125 0.48171
v 0.591949 0.4875 0.51829
v 0.57795 0.4875 0.552085
v 0.552085 0.4875 0.57795
v 0.51829 0.4875 0.591949
v 0.48171 0.4875 0.591949
v 0.447915 0.4875 0.57795
v 0.42205 0.4875 0.552085
v 0.408051 0.4875 0.51829
v 0.408051 0.4875 0.48171
v 0.42205 0.4875 0.447915
v 0.447915 0.4875 0.42205
v 0.48171 0.4875 0.408051
v 0.51829 0.4875 0.408051
v 0.552085 0.4875 0.42205
v 0.57795 0.4875 0.447915
v 0.591949 0.4875 0.48171
vt 0.730957 0.123036
vt 0.730957 0.126465
vt 0.695801 0.126465
vt 0.695801 0.123036
vt 0.959473 0.123036
vt 0.959473 0.126465
vt 0.924316 0.126465
vt 0.924316 0.123036
vt 0.883301 0.123036
vt 0.883301 0.126465
vt 0.848145 0.126465
vt 0.848145 0.123036
vt 0.769043 0.123036
vt 0.769043 0.126465
vt 0.733887 0.126465
vt 0.733887 0.123036
vt 0.078613 0.119629
vt 0.078613 0.1162
vt 0.11377 0.1162
vt 0.11377 0.119629
vt 0.543457 0.126465
vt 0.543457 0.123036
vt 0.578613 0.123036
vt 0.578613 0.126465
vt 0.002441 0.119629
vt 0.002441 0.1162
vt 0.037598 0.1162
vt 0.037598 0.119629
vt 0.314941 0.126465
vt 0.314941 0.123036
vt 0.350098 0.123036
vt 0.350098 0.126465
vt 0.23291 0.119629
vt 0.23291 0.1162
vt 0.268066 0.1162
vt 0.268066 0.119629
vt 0.619629 0.126465
vt 0.619629 0.123036
vt 0.654785 0.123036
vt 0.654785 0.126465
vt 0.309082 0.119629
vt 0.309082 0.1162
vt 0.344238 0.1162
vt 0.344238 0.119629
vt 0.388184 0.123036
vt 0.388184 0.126465
vt 0.353027 0.126465
vt 0.353027 0.123036
vt 0.42041 0.1162
vt 0.42041 0.119629
vt 0.385254 0.119629
vt 0.385254 0.1162
vt 0.273926 0.123036
vt 0.273926 0.126465
vt 0.23877 0.126465
vt 0.23877 0.123036
vt 0.189941 0.1162
vt 0.189941 0.119629
vt 0.154785 0.119629
vt 0.154785 0.1162
vt 0.42627 0.123036
vt 0.42627 0.126465
vt 0.391113 0.126465
vt 0.391113 0.123036
vn 0.980785 0 0.19509
vn 0.83147 0 0.55557
vn 0.55557 0 0.83147
vn 0.19509 0 0.980785
vn -0.19509 0 0.980785
vn -0.55557 0 0.83147
vn -0.83147 0 0.55557
vn -0.980785 0 0.19509
vn -0.980785 0 -0.19509
vn -0.83147 0 -0.55557
vn -0.55557 0 -0.83147
vn -0.19509 0 -0.980785
vn 0.19509 0 -0.980785
vn 0.55557 0 -0.83147
vn 0.83147 0 -0.55557
vn 0.980785 0 -0.19509
f 345/953/82 346/954/83 330/955/83 329/956/82
f 346/957/83 347/958/84 331/959/84 330/960/83
f 347/961/84 348/962/85 332/963/85 331/964/84
f 348/965/85 349/966/86 333/967/86 332/968/85
f 349/969/86 350/970/87 334/971/87 333/972/86
f 350/973/87 351/974/88 335/975/88 334/976/87
f 351/977/88 352/978/89 336/979/89 335/980/88
f 352/981/89 353/982/90 337/983/90 336/984/89
f 353/985/90 354/986/91 338/987/91 337/988/90
f 354/989/91 355/990/92 339/991/92 338/992/91
f 355/993/92 356/994/93 340/995/93 339/996/92
f 356/997/93 357/998/94 341/999/94 340/1000/93
f 357/1001/94 358/1002/95 342/1003/95 341/1004/94
f 358/1005/95 359/1006/96 343/1007/96 342/1008/95
f 359/1009/96 360/1010/97 344/1011/97 343/1012/96
f 360/1013/97 345/1014/82 329/1015/82 344/1016/97
o fuel_fill_cover__frame_gasoline__riser_base
usemtl fuel_station_sump
v 0.2425 0.040625 0.7575
v 0.7575 0.040625 0.7575
v 0.7575 0.040625 0.2425
v 0.2425 0.040625 0.2425
v 0.2375 0.045625 0.7625
v 0.7625 0.045625 0.7625
v 0.7625 0.045625 0.2375
v 0.2375 0.045625 0.2375
v 0.2375 0.1075 0.7625
v 0.7625 0.1075 0.7625
v 0.7625 0.1075 0.2375
v 0.2375 0.1075 0.2375
v 0.2425 0.1125 0.7575
v 0.7575 0.1125 0.7575
v 0.7575 0.1125 0.2425
v 0.2425 0.1125 0.2425
v 0.2425 0.040625 0.7575
v 0.7575 0.040625 0.7575
v 0.7575 0.040625 0.2425
v 0.2425 0.040625 0.2425
v 0.2425 0.1125 0.7575
v 0.7575 0.1125 0.7575
v 0.7575 0.1125 0.2425
v 0.2425 0.1125 0.2425
vt 0.47459 0.043771
vt 0.522871 0.043771
vt 0.52334 0.044434
vt 0.474121 0.044434
vt 0.25334 0.052246
vt 0.205059 0.052246
vt 0.20459 0.051583
vt 0.253809 0.051583
vt 0.575605 0.044434
vt 0.527324 0.044434
vt 0.526855 0.043771
vt 0.576074 0.043771
vt 0.257793 0.051583
vt 0.306074 0.051583
vt 0.306543 0.052246
vt 0.257324 0.052246
vt 0.850098 0.175352
vt 0.899316 0.175352
vt 0.899316 0.181152
vt 0.850098 0.181152
vt 0.952051 0.181152
vt 0.902832 0.181152
vt 0.902832 0.175352
vt 0.952051 0.175352
vt 0.002441 0.166563
vt 0.05166 0.166563
vt 0.05166 0.172363
vt 0.002441 0.172363
vt 0.055176 0.166563
vt 0.104395 0.166563
vt 0.104395 0.172363
vt 0.055176 0.172363
vt 0.287988 0.040527
vt 0.23877 0.040527
vt 0.239238 0.039864
vt 0.28752 0.039864
vt 0.359277 0.052246
vt 0.310059 0.052246
vt 0.310527 0.051583
vt 0.358809 0.051583
vt 0.291504 0.039864
vt 0.340723 0.039864
vt 0.340254 0.040527
vt 0.291973 0.040527
vt 0.362793 0.051583
vt 0.412012 0.051583
vt 0.411543 0.052246
vt 0.363262 0.052246
vt 0.63666 0.41998
vt 0.63666 0.468262
vt 0.588379 0.468262
vt 0.588379 0.468262
vt 0.588379 0.41998
vt 0.63666 0.41998
vt 0.640137 0.41998
vt 0.688418 0.41998
vt 0.688418 0.468262
vt 0.688418 0.468262
vt 0.640137 0.468262
vt 0.640137 0.41998
vn 0 -0.707107 0.707107
vn 0.707107 -0.707107 0
vn 0 -0.707107 -0.707107
vn -0.707107 -0.707107 0
vn 0 0 1
vn 1 0 0
vn 0 0 -1
vn -1 0 0
vn 0 0.707107 0.707107
vn 0.707107 0.707107 0
vn 0 0.707107 -0.707107
vn -0.707107 0.707107 0
vn 0 -1 0
vn 0 1 0
f 361/1017/98 362/1018/98 366/1019/98 365/1020/98
f 362/1021/99 363/1022/99 367/1023/99 366/1024/99
f 363/1025/100 364/1026/100 368/1027/100 367/1028/100
f 364/1029/101 361/1030/101 365/1031/101 368/1032/101
f 365/1033/102 366/1034/102 370/1035/102 369/1036/102
f 366/1037/103 367/1038/103 371/1039/103 370/1040/103
f 367/1041/104 368/1042/104 372/1043/104 371/1044/104
f 368/1045/105 365/1046/105 369/1047/105 372/1048/105
f 369/1049/106 370/1050/106 374/1051/106 373/1052/106
f 370/1053/107 371/1054/107 375/1055/107 374/1056/107
f 371/1057/108 372/1058/108 376/1059/108 375/1060/108
f 372/1061/109 369/1062/109 373/1063/109 376/1064/109
f 378/1065/110 377/1066/110 380/1067/110
f 380/1068/110 379/1069/110 378/1070/110
f 384/1071/111 381/1072/111 382/1073/111
f 382/1074/111 383/1075/111 384/1076/111
o fuel_fill_cover__frame_gasoline__cap
usemtl fuel_station_sump
v 0.622598 0.4875 0.524386
v 0.603934 0.4875 0.569446
v 0.569446 0.4875 0.603934
v 0.524386 0.4875 0.622598
v 0.475614 0.4875 0.622598
v 0.430554 0.4875 0.603934
v 0.396066 0.4875 0.569446
v 0.377402 0.4875 0.524386
v 0.377402 0.4875 0.475614
v 0.396066 0.4875 0.430554
v 0.430554 0.4875 0.396066
v 0.475614 0.4875 0.377402
v 0.524386 0.4875 0.377402
v 0.569446 0.4875 0.396066
v 0.603934 0.4875 0.430554
v 0.622598 0.4875 0.475614
v 0.622598 0.55 0.524386
v 0.603934 0.55 0.569446
v 0.569446 0.55 0.603934
v 0.524386 0.55 0.622598
v 0.475614 0.55 0.622598
v 0.430554 0.55 0.603934
v 0.396066 0.55 0.569446
v 0.377402 0.55 0.524386
v 0.377402 0.55 0.475614
v 0.396066 0.55 0.430554
v 0.430554 0.55 0.396066
v 0.475614 0.55 0.377402
v 0.524386 0.55 0.377402
v 0.569446 0.55 0.396066
v 0.603934 0.55 0.430554
v 0.622598 0.55 0.475614
v 0.604208 0.5625 0.520728
v 0.588344 0.5625 0.559029
v 0.559029 0.5625 0.588344
v 0.520728 0.5625 0.604208
v 0.479272 0.5625 0.604208
v 0.440971 0.5625 0.588344
v 0.411656 0.5625 0.559029
v 0.395792 0.5625 0.520728
v 0.395792 0.5625 0.479272
v 0.411656 0.5625 0.440971
v 0.440971 0.5625 0.411656
v 0.479272 0.5625 0.395792
v 0.520728 0.5625 0.395792
v 0.559029 0.5625 0.411656
v 0.588344 0.5625 0.440971
v 0.604208 0.5625 0.479272
v 0.5 0.5625 0.5
vt 0.534668 0.159002
vt 0.534668 0.163574
vt 0.528809 0.163574
vt 0.528809 0.159002
vt 0.587402 0.159002
vt 0.587402 0.163574
vt 0.581543 0.163574
vt 0.581543 0.159002
vt 0.569824 0.159002
vt 0.569824 0.163574
vt 0.563965 0.163574
vt 0.563965 0.159002
vt 0.543457 0.159002
vt 0.543457 0.163574
vt 0.537598 0.163574
vt 0.537598 0.159002
vt 0.599121 0.163574
vt 0.599121 0.159002
vt 0.60498 0.159002
vt 0.60498 0.163574
vt 0.440918 0.163574
vt 0.440918 0.159002
vt 0.446777 0.159002
vt 0.446777 0.163574
vt 0.634277 0.163574
vt 0.634277 0.159002
vt 0.640137 0.159002
vt 0.640137 0.163574
vt 0.449707 0.163574
vt 0.449707 0.159002
vt 0.455566 0.159002
vt 0.455566 0.163574
vt 0.643066 0.163574
vt 0.643066 0.159002
vt 0.648926 0.159002
vt 0.648926 0.163574
vt 0.51123 0.163574
vt 0.51123 0.159002
vt 0.51709 0.159002
vt 0.51709 0.163574
vt 0.688965 0.163574
vt 0.688965 0.159002
vt 0.694824 0.159002
vt 0.694824 0.163574
vt 0.464355 0.159002
vt 0.464355 0.163574
vt 0.458496 0.163574
vt 0.458496 0.159002
vt 0.622559 0.159002
vt 0.622559 0.163574
vt 0.616699 0.163574
vt 0.616699 0.159002
vt 0.429199 0.159002
vt 0.429199 0.163574
vt 0.42334 0.163574
vt 0.42334 0.159002
vt 0.675293 0.159002
vt 0.675293 0.163574
vt 0.669434 0.163574
vt 0.669434 0.159002
vt 0.473145 0.159002
vt 0.473145 0.163574
vt 0.467285 0.163574
vt 0.467285 0.159002
vt 0.498741 0.170282
vt 0.502411 0.169005
vt 0.50342 0.17086
vt 0.499102 0.172363
vt 0.502411 0.169005
vt 0.505392 0.166644
vt 0.506927 0.168083
vt 0.50342 0.17086
vt 0.60903 0.15091
vt 0.61259 0.15241
vt 0.612099 0.154464
vt 0.60791 0.1527
vt 0.61259 0.15241
vt 0.616445 0.152682
vt 0.616633 0.154785
vt 0.612099 0.154464
vt 0.657715 0.199679
vt 0.661082 0.197784
vt 0.662405 0.199431
vt 0.658443 0.20166
vt 0.661082 0.197784
vt 0.663659 0.194905
vt 0.665437 0.196044
vt 0.662405 0.199431
vt 0.03569 0.112793
vt 0.032033 0.111548
vt 0.032378 0.109464
vt 0.036681 0.110928
vt 0.032033 0.111548
vt 0.028169 0.111548
vt 0.027832 0.109464
vt 0.032378 0.109464
vt 0.327071 0.168659
vt 0.323433 0.16996
vt 0.322407 0.168113
vt 0.326687 0.166583
vt 0.323433 0.16996
vt 0.320408 0.172363
vt 0.318848 0.170941
vt 0.322407 0.168113
vt 0.592076 0.154785
vt 0.588516 0.153285
vt 0.589007 0.151231
vt 0.593196 0.152995
vt 0.588516 0.153285
vt 0.584662 0.153013
vt 0.584473 0.15091
vt 0.589007 0.151231
vt 0.686921 0.196887
vt 0.683554 0.198781
vt 0.682231 0.197134
vt 0.686193 0.194905
vt 0.683554 0.198781
vt 0.680977 0.20166
vt 0.679199 0.200521
vt 0.682231 0.197134
vt 0.013207 0.10945
vt 0.016884 0.11071
vt 0.016533 0.112793
vt 0.012207 0.111311
vt 0.494939 0.170282
vt 0.498741 0.170282
vt 0.499102 0.172363
vt 0.494629 0.172363
vt 0.889815 0.401345
vt 0.886225 0.402832
vt 0.884281 0.393062
vt 0.892563 0.398596
vt 0.889815 0.401345
vt 0.884281 0.393062
vt 0.894051 0.395006
vt 0.892563 0.398596
vt 0.884281 0.393062
vt 0.894051 0.391119
vt 0.894051 0.395006
vt 0.884281 0.393062
vt 0.892563 0.387528
vt 0.894051 0.391119
vt 0.884281 0.393062
vt 0.889815 0.38478
vt 0.892563 0.387528
vt 0.884281 0.393062
vt 0.886225 0.383293
vt 0.889815 0.38478
vt 0.884281 0.393062
vt 0.882338 0.383293
vt 0.886225 0.383293
vt 0.884281 0.393062
vt 0.878747 0.38478
vt 0.882338 0.383293
vt 0.884281 0.393062
vt 0.875999 0.387528
vt 0.878747 0.38478
vt 0.884281 0.393062
vt 0.874512 0.391119
vt 0.875999 0.387528
vt 0.884281 0.393062
vt 0.874512 0.395006
vt 0.874512 0.391119
vt 0.884281 0.393062
vt 0.875999 0.398596
vt 0.874512 0.395006
vt 0.884281 0.393062
vt 0.878747 0.401345
vt 0.875999 0.398596
vt 0.884281 0.393062
vt 0.882338 0.402832
vt 0.878747 0.401345
vt 0.884281 0.393062
vt 0.886225 0.402832
vt 0.882338 0.402832
vt 0.884281 0.393062
vn 0.980785 0 0.19509
vn 0.83147 0 0.55557
vn 0.55557 0 0.83147
vn 0.19509 0 0.980785
vn -0.19509 0 0.980785
vn -0.55557 0 0.83147
vn -0.83147 0 0.55557
vn -0.980785 0 0.19509
vn -0.980785 0 -0.19509
vn -0.83147 0 -0.55557
vn -0.55557 0 -0.83147
vn -0.19509 0 -0.980785
vn 0.19509 0 -0.980785
vn 0.55557 0 -0.83147
vn 0.83147 0 -0.55557
vn 0.980785 0 -0.19509
vn 0.178418 0.983315 0.03549
vn 0.151255 0.983315 0.101066
vn 0.461216 0.83205 0.308175
vn 0.544042 0.83205 0.108217
vn 0.101066 0.983315 0.151255
vn 0.308175 0.83205 0.461216
vn 0.03549 0.983315 0.178418
vn 0.108217 0.83205 0.544042
vn -0.03549 0.983315 0.178418
vn -0.108217 0.83205 0.544042
vn -0.101066 0.983315 0.151255
vn -0.308175 0.83205 0.461216
vn -0.151255 0.983315 0.101066
vn -0.461216 0.83205 0.308175
vn -0.178418 0.983315 0.03549
vn -0.544042 0.83205 0.108217
vn -0.178418 0.983315 -0.03549
vn -0.544042 0.83205 -0.108217
vn -0.151255 0.983315 -0.101066
vn -0.461216 0.83205 -0.308175
vn -0.101066 0.983315 -0.151255
vn -0.308175 0.83205 -0.461216
vn -0.03549 0.983315 -0.178418
vn -0.108217 0.83205 -0.544042
vn 0.03549 0.983315 -0.178418
vn 0.108217 0.83205 -0.544042
vn 0.101066 0.983315 -0.151255
vn 0.308175 0.83205 -0.461216
vn 0.151255 0.983315 -0.101066
vn 0.461216 0.83205 -0.308175
vn 0.178418 0.983315 -0.03549
vn 0.544042 0.83205 -0.108217
vn 0 1 0
f 401/1077/112 402/1078/113 386/1079/113 385/1080/112
f 402/1081/113 403/1082/114 387/1083/114 386/1084/113
f 403/1085/114 404/1086/115 388/1087/115 387/1088/114
f 404/1089/115 405/1090/116 389/1091/116 388/1092/115
f 405/1093/116 406/1094/117 390/1095/117 389/1096/116
f 406/1097/117 407/1098/118 391/1099/118 390/1100/117
f 407/1101/118 408/1102/119 392/1103/119 391/1104/118
f 408/1105/119 409/1106/120 393/1107/120 392/1108/119
f 409/1109/120 410/1110/121 394/1111/121 393/1112/120
f 410/1113/121 411/1114/122 395/1115/122 394/1116/121
f 411/1117/122 412/1118/123 396/1119/123 395/1120/122
f 412/1121/123 413/1122/124 397/1123/124 396/1124/123
f 413/1125/124 414/1126/125 398/1127/125 397/1128/124
f 414/1129/125 415/1130/126 399/1131/126 398/1132/125
f 415/1133/126 416/1134/127 400/1135/127 399/1136/126
f 416/1137/127 401/1138/112 385/1139/112 400/1140/127
f 417/1141/128 418/1142/129 402/1143/130 401/1144/131
f 418/1145/129 419/1146/132 403/1147/133 402/1148/130
f 419/1149/132 420/1150/134 404/1151/135 403/1152/133
f 420/1153/134 421/1154/136 405/1155/137 404/1156/135
f 421/1157/136 422/1158/138 406/1159/139 405/1160/137
f 422/1161/138 423/1162/140 407/1163/141 406/1164/139
f 423/1165/140 424/1166/142 408/1167/143 407/1168/141
f 424/1169/142 425/1170/144 409/1171/145 408/1172/143
f 425/1173/144 426/1174/146 410/1175/147 409/1176/145
f 426/1177/146 427/1178/148 411/1179/149 410/1180/147
f 427/1181/148 428/1182/150 412/1183/151 411/1184/149
f 428/1185/150 429/1186/152 413/1187/153 412/1188/151
f 429/1189/152 430/1190/154 414/1191/155 413/1192/153
f 430/1193/154 431/1194/156 415/1195/157 414/1196/155
f 431/1197/156 432/1198/158 416/1199/159 415/1200/157
f 432/1201/158 417/1202/128 401/1203/131 416/1204/159
f 418/1205/129 417/1206/128 433/1207/160
f 419/1208/132 418/1209/129 433/1210/160
f 420/1211/134 419/1212/132 433/1213/160
f 421/1214/136 420/1215/134 433/1216/160
f 422/1217/138 421/1218/136 433/1219/160
f 423/1220/140 422/1221/138 433/1222/160
f 424/1223/142 423/1224/140 433/1225/160
f 425/1226/144 424/1227/142 433/1228/160
f 426/1229/146 425/1230/144 433/1231/160
f 427/1232/148 426/1233/146 433/1234/160
f 428/1235/150 427/1236/148 433/1237/160
f 429/1238/152 428/1239/150 433/1240/160
f 430/1241/154 429/1242/152 433/1243/160
f 431/1244/156 430/1245/154 433/1246/160
f 432/1247/158 431/1248/156 433/1249/160
f 417/1250/128 432/1251/158 433/1252/160
o fuel_fill_cover__frame_gasoline__fport_plate
usemtl fuel_station_sump
v 0.16125 0.0375 0.16125
v 0.83875 0.0375 0.16125
v 0.83875 0.0375 0.83875
v 0.16125 0.0375 0.83875
v 0.15625 0.0325 0.15625
v 0.84375 0.0325 0.15625
v 0.84375 0.0325 0.84375
v 0.15625 0.0325 0.84375
v 0.15625 0.005 0.15625
v 0.84375 0.005 0.15625
v 0.84375 0.005 0.84375
v 0.15625 0.005 0.84375
v 0.16125 0 0.16125
v 0.83875 0 0.16125
v 0.83875 0 0.83875
v 0.16125 0 0.83875
v 0.245 0.0375 0.755
v 0.755 0.0375 0.755
v 0.755 0.0375 0.245
v 0.245 0.0375 0.245
v 0.25 0.0325 0.75
v 0.75 0.0325 0.75
v 0.75 0.0325 0.25
v 0.25 0.0325 0.25
v 0.25 0.005 0.75
v 0.75 0.005 0.75
v 0.75 0.005 0.25
v 0.25 0.005 0.25
v 0.245 0 0.755
v 0.755 0 0.755
v 0.755 0 0.245
v 0.245 0 0.245
v 0.16125 0.0375 0.16125
v 0.83875 0.0375 0.16125
v 0.83875 0.0375 0.83875
v 0.16125 0.0375 0.83875
v 0.245 0.0375 0.755
v 0.755 0.0375 0.755
v 0.755 0.0375 0.245
v 0.245 0.0375 0.245
v 0.16125 0 0.16125
v 0.83875 0 0.16125
v 0.83875 0 0.83875
v 0.16125 0 0.83875
v 0.245 0 0.755
v 0.755 0 0.755
v 0.755 0 0.245
v 0.245 0 0.245
vt 0.807637 0.056152
vt 0.744121 0.056152
vt 0.743652 0.055489
vt 0.808105 0.055489
vt 0.90916 0.059396
vt 0.972676 0.059396
vt 0.973145 0.060059
vt 0.908691 0.060059
vt 0.811504 0.055489
vt 0.87502 0.055489
vt 0.875488 0.056152
vt 0.811035 0.056152
vt 0.066426 0.056152
vt 0.00291 0.056152
vt 0.002441 0.055489
vt 0.066895 0.055489
vt 0.885254 0.112793
vt 0.820801 0.112793
vt 0.820801 0.110215
vt 0.885254 0.110215
vt 0.888184 0.110215
vt 0.952637 0.110215
vt 0.952637 0.112793
vt 0.888184 0.112793
vt 0.066895 0.105957
vt 0.002441 0.105957
vt 0.002441 0.103379
vt 0.066895 0.103379
vt 0.134277 0.105957
vt 0.069824 0.105957
vt 0.069824 0.103379
vt 0.134277 0.103379
vt 0.069824 0.043771
vt 0.134277 0.043771
vt 0.133809 0.044434
vt 0.070293 0.044434
vt 0.069824 0.055489
vt 0.134277 0.055489
vt 0.133809 0.056152
vt 0.070293 0.056152
vt 0.20166 0.044434
vt 0.137207 0.044434
vt 0.137676 0.043771
vt 0.201191 0.043771
vt 0.20166 0.056152
vt 0.137207 0.056152
vt 0.137676 0.055489
vt 0.201191 0.055489
vt 0.49752 0.040527
vt 0.449707 0.040527
vt 0.450176 0.039864
vt 0.497051 0.039864
vt 0.834434 0.044434
vt 0.786621 0.044434
vt 0.78709 0.043771
vt 0.833965 0.043771
vt 0.500488 0.039864
vt 0.548301 0.039864
vt 0.547832 0.040527
vt 0.500957 0.040527
vt 0.837402 0.043771
vt 0.885215 0.043771
vt 0.884746 0.044434
vt 0.837871 0.044434
vt 0.922363 0.105957
vt 0.875488 0.105957
vt 0.875488 0.103379
vt 0.922363 0.103379
vt 0.972168 0.105957
vt 0.925293 0.105957
vt 0.925293 0.103379
vt 0.972168 0.103379
vt 0.049316 0.100098
vt 0.002441 0.100098
vt 0.002441 0.09752
vt 0.049316 0.09752
vt 0.052246 0.09752
vt 0.099121 0.09752
vt 0.099121 0.100098
vt 0.052246 0.100098
vt 0.830059 0.051583
vt 0.876934 0.051583
vt 0.877402 0.052246
vt 0.82959 0.052246
vt 0.927715 0.052246
vt 0.88084 0.052246
vt 0.880371 0.051583
vt 0.928184 0.051583
vt 0.978496 0.052246
vt 0.931621 0.052246
vt 0.931152 0.051583
vt 0.978965 0.051583
vt 0.00291 0.047677
vt 0.049785 0.047677
vt 0.050254 0.04834
vt 0.002441 0.04834
vt 0.400879 0.531699
vt 0.40873 0.539551
vt 0.345215 0.539551
vt 0.353066 0.531699
vt 0.400879 0.531699
vt 0.345215 0.539551
vt 0.353066 0.531699
vt 0.345215 0.539551
vt 0.345215 0.476035
vt 0.353066 0.483887
vt 0.353066 0.531699
vt 0.345215 0.476035
vt 0.353066 0.483887
vt 0.345215 0.476035
vt 0.40873 0.476035
vt 0.400879 0.483887
vt 0.353066 0.483887
vt 0.40873 0.476035
vt 0.400879 0.531699
vt 0.400879 0.483887
vt 0.40873 0.476035
vt 0.40873 0.476035
vt 0.40873 0.539551
vt 0.400879 0.531699
vt 0.412598 0.476035
vt 0.476113 0.476035
vt 0.468262 0.483887
vt 0.412598 0.476035
vt 0.468262 0.483887
vt 0.420449 0.483887
vt 0.412598 0.539551
vt 0.412598 0.476035
vt 0.420449 0.483887
vt 0.412598 0.539551
vt 0.420449 0.483887
vt 0.420449 0.531699
vt 0.476113 0.539551
vt 0.412598 0.539551
vt 0.420449 0.531699
vt 0.476113 0.539551
vt 0.420449 0.531699
vt 0.468262 0.531699
vt 0.476113 0.539551
vt 0.468262 0.531699
vt 0.468262 0.483887
vt 0.468262 0.483887
vt 0.476113 0.476035
vt 0.476113 0.539551
vn 0 0.707107 -0.707107
vn 0.707107 0.707107 0
vn 0 0.707107 0.707107
vn -0.707107 0.707107 0
vn 0 0 -1
vn 1 0 0
vn 0 0 1
vn -1 0 0
vn 0 -0.707107 -0.707107
vn 0.707107 -0.707107 0
vn 0 -0.707107 0.707107
vn -0.707107 -0.707107 0
vn 0 1 0
vn 0 -1 0
f 434/1253/161 435/1254/161 439/1255/161 438/1256/161
f 435/1257/162 436/1258/162 440/1259/162 439/1260/162
f 436/1261/163 437/1262/163 441/1263/163 440/1264/163
f 437/1265/164 434/1266/164 438/1267/164 441/1268/164
f 438/1269/165 439/1270/165 443/1271/165 442/1272/165
f 439/1273/166 440/1274/166 444/1275/166 443/1276/166
f 440/1277/167 441/1278/167 445/1279/167 444/1280/167
f 441/1281/168 438/1282/168 442/1283/168 445/1284/168
f 442/1285/169 443/1286/169 447/1287/169 446/1288/169
f 443/1289/170 444/1290/170 448/1291/170 447/1292/170
f 444/1293/171 445/1294/171 449/1295/171 448/1296/171
f 445/1297/172 442/1298/172 446/1299/172 449/1300/172
f 450/1301/161 451/1302/161 455/1303/161 454/1304/161
f 451/1305/164 452/1306/164 456/1307/164 455/1308/164
f 452/1309/163 453/1310/163 457/1311/163 456/1312/163
f 453/1313/162 450/1314/162 454/1315/162 457/1316/162
f 454/1317/165 455/1318/165 459/1319/165 458/1320/165
f 455/1321/168 456/1322/168 460/1323/168 459/1324/168
f 456/1325/167 457/1326/167 461/1327/167 460/1328/167
f 457/1329/166 454/1330/166 458/1331/166 461/1332/166
f 458/1333/169 459/1334/169 463/1335/169 462/1336/169
f 459/1337/172 460/1338/172 464/1339/172 463/1340/172
f 460/1341/171 461/1342/171 465/1343/171 464/1344/171
f 461/1345/170 458/1346/170 462/1347/170 465/1348/170
f 471/1349/173 468/1350/173 467/1351/173
f 472/1352/173 471/1353/173 467/1354/173
f 472/1355/173 467/1356/173 466/1357/173
f 473/1358/173 472/1359/173 466/1360/173
f 473/1361/173 466/1362/173 469/1363/173
f 470/1364/173 473/1365/173 469/1366/173
f 471/1367/173 470/1368/173 469/1369/173
f 469/1370/173 468/1371/173 471/1372/173
f 475/1373/174 476/1374/174 479/1375/174
f 475/1376/174 479/1377/174 480/1378/174
f 474/1379/174 475/1380/174 480/1381/174
f 474/1382/174 480/1383/174 481/1384/174
f 477/1385/174 474/1386/174 481/1387/174
f 477/1388/174 481/1389/174 478/1390/174
f 477/1391/174 478/1392/174 479/1393/174
f 479/1394/174 476/1395/174 477/1396/174
o fuel_fill_cover__frame_gasoline__fport_throat
usemtl fuel_station_sump
v 0.25 0.1 0.25
v 0.75 0.1 0.25
v 0.75 0.1 0.75
v 0.25 0.1 0.75
v 0.25 0.034375 0.25
v 0.75 0.034375 0.25
v 0.75 0.034375 0.75
v 0.25 0.034375 0.75
v 0.25 0.1 0.25
v 0.75 0.1 0.25
v 0.75 0.1 0.75
v 0.25 0.1 0.75
v 0.25 0.034375 0.25
v 0.75 0.034375 0.25
v 0.75 0.034375 0.75
v 0.25 0.034375 0.75
vt 0.29834 0.190918
vt 0.251465 0.190918
vt 0.251465 0.184766
vt 0.29834 0.184766
vt 0.30127 0.184766
vt 0.348145 0.184766
vt 0.348145 0.190918
vt 0.30127 0.190918
vt 0.397949 0.190918
vt 0.351074 0.190918
vt 0.351074 0.184766
vt 0.397949 0.184766
vt 0.447754 0.190918
vt 0.400879 0.190918
vt 0.400879 0.184766
vt 0.447754 0.184766
vt 0.89502 0.468262
vt 0.89502 0.421387
vt 0.941895 0.421387
vt 0.941895 0.421387
vt 0.941895 0.468262
vt 0.89502 0.468262
vt 0.991699 0.468262
vt 0.944824 0.468262
vt 0.944824 0.421387
vt 0.944824 0.421387
vt 0.991699 0.421387
vt 0.991699 0.468262
vn 0 0 -1
vn 1 0 0
vn 0 0 1
vn -1 0 0
vn 0 1 0
vn 0 -1 0
f 482/1397/175 483/1398/175 487/1399/175 486/1400/175
f 483/1401/176 484/1402/176 488/1403/176 487/1404/176
f 484/1405/177 485/1406/177 489/1407/177 488/1408/177
f 485/1409/178 482/1410/178 486/1411/178 489/1412/178
f 491/1413/179 490/1414/179 493/1415/179
f 493/1416/179 492/1417/179 491/1418/179
f 497/1419/180 494/1420/180 495/1421/180
f 495/1422/180 496/1423/180 497/1424/180
o fuel_fill_cover__frame_gasoline__fport_studs
usemtl fuel_station_sump
v 0.232108 0 0.2225
v 0.209375 0 0.235625
v 0.186642 0 0.2225
v 0.186642 0 0.19625
v 0.209375 0 0.183125
v 0.232108 0 0.19625
v 0.232108 -0.02 0.2225
v 0.209375 -0.02 0.235625
v 0.186642 -0.02 0.2225
v 0.186642 -0.02 0.19625
v 0.209375 -0.02 0.183125
v 0.232108 -0.02 0.19625
v 0.232108 0 0.2225
v 0.209375 0 0.235625
v 0.186642 0 0.2225
v 0.186642 0 0.19625
v 0.209375 0 0.183125
v 0.232108 0 0.19625
v 0.232108 -0.02 0.2225
v 0.209375 -0.02 0.235625
v 0.186642 -0.02 0.2225
v 0.186642 -0.02 0.19625
v 0.209375 -0.02 0.183125
v 0.232108 -0.02 0.19625
v 0.232108 0 0.80375
v 0.209375 0 0.816875
v 0.186642 0 0.80375
v 0.186642 0 0.7775
v 0.209375 0 0.764375
v 0.232108 0 0.7775
v 0.232108 -0.02 0.80375
v 0.209375 -0.02 0.816875
v 0.186642 -0.02 0.80375
v 0.186642 -0.02 0.7775
v 0.209375 -0.02 0.764375
v 0.232108 -0.02 0.7775
v 0.232108 0 0.80375
v 0.209375 0 0.816875
v 0.186642 0 0.80375
v 0.186642 0 0.7775
v 0.209375 0 0.764375
v 0.232108 0 0.7775
v 0.232108 -0.02 0.80375
v 0.209375 -0.02 0.816875
v 0.186642 -0.02 0.80375
v 0.186642 -0.02 0.7775
v 0.209375 -0.02 0.764375
v 0.232108 -0.02 0.7775
v 0.813358 0 0.2225
v 0.790625 0 0.235625
v 0.767892 0 0.2225
v 0.767892 0 0.19625
v 0.790625 0 0.183125
v 0.813358 0 0.19625
v 0.813358 -0.02 0.2225
v 0.790625 -0.02 0.235625
v 0.767892 -0.02 0.2225
v 0.767892 -0.02 0.19625
v 0.790625 -0.02 0.183125
v 0.813358 -0.02 0.19625
v 0.813358 0 0.2225
v 0.790625 0 0.235625
v 0.767892 0 0.2225
v 0.767892 0 0.19625
v 0.790625 0 0.183125
v 0.813358 0 0.19625
v 0.813358 -0.02 0.2225
v 0.790625 -0.02 0.235625
v 0.767892 -0.02 0.2225
v 0.767892 -0.02 0.19625
v 0.790625 -0.02 0.183125
v 0.813358 -0.02 0.19625
v 0.813358 0 0.80375
v 0.790625 0 0.816875
v 0.767892 0 0.80375
v 0.767892 0 0.7775
v 0.790625 0 0.764375
v 0.813358 0 0.7775
v 0.813358 -0.02 0.80375
v 0.790625 -0.02 0.816875
v 0.767892 -0.02 0.80375
v 0.767892 -0.02 0.7775
v 0.790625 -0.02 0.764375
v 0.813358 -0.02 0.7775
v 0.813358 0 0.80375
v 0.790625 0 0.816875
v 0.767892 0 0.80375
v 0.767892 0 0.7775
v 0.790625 0 0.764375
v 0.813358 0 0.7775
v 0.813358 -0.02 0.80375
v 0.790625 -0.02 0.816875
v 0.767892 -0.02 0.80375
v 0.767892 -0.02 0.7775
v 0.790625 -0.02 0.764375
v 0.813358 -0.02 0.7775
vt 0.259277 0.092363
vt 0.261738 0.092363
vt 0.261738 0.094238
vt 0.259277 0.094238
vt 0.800801 0.094238
vt 0.79834 0.094238
vt 0.79834 0.092363
vt 0.800801 0.092363
vt 0.267598 0.094238
vt 0.265137 0.094238
vt 0.265137 0.092363
vt 0.267598 0.092363
vt 0.707051 0.094238
vt 0.70459 0.094238
vt 0.70459 0.092363
vt 0.707051 0.092363
vt 0.270996 0.092363
vt 0.273457 0.092363
vt 0.273457 0.094238
vt 0.270996 0.094238
vt 0.276855 0.092363
vt 0.279316 0.092363
vt 0.279316 0.094238
vt 0.276855 0.094238
vt 0.007363 0.152654
vt 0.006133 0.154785
vt 0.003672 0.154785
vt 0.006133 0.150523
vt 0.007363 0.152654
vt 0.003672 0.154785
vt 0.003672 0.150523
vt 0.006133 0.150523
vt 0.003672 0.154785
vt 0.003672 0.154785
vt 0.002441 0.152654
vt 0.003672 0.150523
vt 0.012461 0.150523
vt 0.014922 0.150523
vt 0.016152 0.152654
vt 0.012461 0.150523
vt 0.016152 0.152654
vt 0.014922 0.154785
vt 0.012461 0.150523
vt 0.014922 0.154785
vt 0.012461 0.154785
vt 0.012461 0.154785
vt 0.01123 0.152654
vt 0.012461 0.150523
vt 0.282715 0.092363
vt 0.285176 0.092363
vt 0.285176 0.094238
vt 0.282715 0.094238
vt 0.71291 0.094238
vt 0.710449 0.094238
vt 0.710449 0.092363
vt 0.71291 0.092363
vt 0.291035 0.094238
vt 0.288574 0.094238
vt 0.288574 0.092363
vt 0.291035 0.092363
vt 0.80666 0.094238
vt 0.804199 0.094238
vt 0.804199 0.092363
vt 0.80666 0.092363
vt 0.294434 0.092363
vt 0.296895 0.092363
vt 0.296895 0.094238
vt 0.294434 0.094238
vt 0.300293 0.092363
vt 0.302754 0.092363
vt 0.302754 0.094238
vt 0.300293 0.094238
vt 0.024941 0.152654
vt 0.023711 0.154785
vt 0.02125 0.154785
vt 0.023711 0.150523
vt 0.024941 0.152654
vt 0.02125 0.154785
vt 0.02125 0.150523
vt 0.023711 0.150523
vt 0.02125 0.154785
vt 0.02125 0.154785
vt 0.02002 0.152654
vt 0.02125 0.150523
vt 0.030039 0.150523
vt 0.0325 0.150523
vt 0.03373 0.152654
vt 0.030039 0.150523
vt 0.03373 0.152654
vt 0.0325 0.154785
vt 0.030039 0.150523
vt 0.0325 0.154785
vt 0.030039 0.154785
vt 0.030039 0.154785
vt 0.028809 0.152654
vt 0.030039 0.150523
vt 0.810059 0.092363
vt 0.81252 0.092363
vt 0.81252 0.094238
vt 0.810059 0.094238
vt 0.308613 0.094238
vt 0.306152 0.094238
vt 0.306152 0.092363
vt 0.308613 0.092363
vt 0.314473 0.094238
vt 0.312012 0.094238
vt 0.312012 0.092363
vt 0.314473 0.092363
vt 0.320332 0.094238
vt 0.317871 0.094238
vt 0.317871 0.092363
vt 0.320332 0.092363
vt 0.716309 0.092363
vt 0.71877 0.092363
vt 0.71877 0.094238
vt 0.716309 0.094238
vt 0.32373 0.092363
vt 0.326191 0.092363
vt 0.326191 0.094238
vt 0.32373 0.094238
vt 0.04252 0.152654
vt 0.041289 0.154785
vt 0.038828 0.154785
vt 0.041289 0.150523
vt 0.04252 0.152654
vt 0.038828 0.154785
vt 0.038828 0.150523
vt 0.041289 0.150523
vt 0.038828 0.154785
vt 0.038828 0.154785
vt 0.037598 0.152654
vt 0.038828 0.150523
vt 0.047617 0.150523
vt 0.050078 0.150523
vt 0.051309 0.152654
vt 0.047617 0.150523
vt 0.051309 0.152654
vt 0.050078 0.154785
vt 0.047617 0.150523
vt 0.050078 0.154785
vt 0.047617 0.154785
vt 0.047617 0.154785
vt 0.046387 0.152654
vt 0.047617 0.150523
vt 0.722168 0.092363
vt 0.724629 0.092363
vt 0.724629 0.094238
vt 0.722168 0.094238
vt 0.332051 0.094238
vt 0.32959 0.094238
vt 0.32959 0.092363
vt 0.332051 0.092363
vt 0.33791 0.094238
vt 0.335449 0.094238
vt 0.335449 0.092363
vt 0.33791 0.092363
vt 0.34377 0.094238
vt 0.341309 0.094238
vt 0.341309 0.092363
vt 0.34377 0.092363
vt 0.815918 0.092363
vt 0.818379 0.092363
vt 0.818379 0.094238
vt 0.815918 0.094238
vt 0.347168 0.092363
vt 0.349629 0.092363
vt 0.349629 0.094238
vt 0.347168 0.094238
vt 0.060098 0.152654
vt 0.058867 0.154785
vt 0.056406 0.154785
vt 0.058867 0.150523
vt 0.060098 0.152654
vt 0.056406 0.154785
vt 0.056406 0.150523
vt 0.058867 0.150523
vt 0.056406 0.154785
vt 0.056406 0.154785
vt 0.055176 0.152654
vt 0.056406 0.150523
vt 0.065195 0.150523
vt 0.067656 0.150523
vt 0.068887 0.152654
vt 0.065195 0.150523
vt 0.068887 0.152654
vt 0.067656 0.154785
vt 0.065195 0.150523
vt 0.067656 0.154785
vt 0.065195 0.154785
vt 0.065195 0.154785
vt 0.063965 0.152654
vt 0.065195 0.150523
vn 0.5 0 0.866025
vn -0.5 0 0.866025
vn -1 0 0
vn -0.5 0 -0.866025
vn 0.5 0 -0.866025
vn 1 0 0
vn 0 1 0
vn 0 -1 0
f 498/1425/181 499/1426/181 505/1427/181 504/1428/181
f 499/1429/182 500/1430/182 506/1431/182 505/1432/182
f 500/1433/183 501/1434/183 507/1435/183 506/1436/183
f 501/1437/184 502/1438/184 508/1439/184 507/1440/184
f 502/1441/185 503/1442/185 509/1443/185 508/1444/185
f 503/1445/186 498/1446/186 504/1447/186 509/1448/186
f 511/1449/187 510/1450/187 515/1451/187
f 512/1452/187 511/1453/187 515/1454/187
f 513/1455/187 512/1456/187 515/1457/187
f 515/1458/187 514/1459/187 513/1460/187
f 521/1461/188 516/1462/188 517/1463/188
f 521/1464/188 517/1465/188 518/1466/188
f 521/1467/188 518/1468/188 519/1469/188
f 519/1470/188 520/1471/188 521/1472/188
f 522/1473/181 523/1474/181 529/1475/181 528/1476/181
f 523/1477/182 524/1478/182 530/1479/182 529/1480/182
f 524/1481/183 525/1482/183 531/1483/183 530/1484/183
f 525/1485/184 526/1486/184 532/1487/184 531/1488/184
f 526/1489/185 527/1490/185 533/1491/185 532/1492/185
f 527/1493/186 522/1494/186 528/1495/186 533/1496/186
f 535/1497/187 534/1498/187 539/1499/187
f 536/1500/187 535/1501/187 539/1502/187
f 537/1503/187 536/1504/187 539/1505/187
f 539/1506/187 538/1507/187 537/1508/187
f 545/1509/188 540/1510/188 541/1511/188
f 545/1512/188 541/1513/188 542/1514/188
f 545/1515/188 542/1516/188 543/1517/188
f 543/1518/188 544/1519/188 545/1520/188
f 546/1521/181 547/1522/181 553/1523/181 552/1524/181
f 547/1525/182 548/1526/182 554/1527/182 553/1528/182
f 548/1529/183 549/1530/183 555/1531/183 554/1532/183
f 549/1533/184 550/1534/184 556/1535/184 555/1536/184
f 550/1537/185 551/1538/185 557/1539/185 556/1540/185
f 551/1541/186 546/1542/186 552/1543/186 557/1544/186
f 559/1545/187 558/1546/187 563/1547/187
f 560/1548/187 559/1549/187 563/1550/187
f 561/1551/187 560/1552/187 563/1553/187
f 563/1554/187 562/1555/187 561/1556/187
f 569/1557/188 564/1558/188 565/1559/188
f 569/1560/188 565/1561/188 566/1562/188
f 569/1563/188 566/1564/188 567/1565/188
f 567/1566/188 568/1567/188 569/1568/188
f 570/1569/181 571/1570/181 577/1571/181 576/1572/181
f 571/1573/182 572/1574/182 578/1575/182 577/1576/182
f 572/1577/183 573/1578/183 579/1579/183 578/1580/183
f 573/1581/184 574/1582/184 580/1583/184 579/1584/184
f 574/1585/185 575/1586/185 581/1587/185 580/1588/185
f 575/1589/186 570/1590/186 576/1591/186 581/1592/186
f 583/1593/187 582/1594/187 587/1595/187
f 584/1596/187 583/1597/187 587/1598/187
f 585/1599/187 584/1600/187 587/1601/187
f 587/1602/187 586/1603/187 585/1604/187
f 593/1605/188 588/1606/188 589/1607/188
f 593/1608/188 589/1609/188 590/1610/188
f 593/1611/188 590/1612/188 591/1613/188
f 591/1614/188 592/1615/188 593/1616/188
