# AFL fuel_fill_cover/lid_open, generated by tools/build-fuel-station-sump-v1.mjs
mtllib lid_open.mtl
o fuel_fill_cover__lid_open__lid
usemtl fuel_station_sump
v 0.778844 1.291294 0.309127
v 0.759841 1.360107 0.326284
v 0.723131 1.421802 0.341666
v 0.671214 1.472177 0.354226
v 0.60763 1.507797 0.363107
v 0.53671 1.526235 0.367704
v 0.46329 1.526235 0.367704
v 0.39237 1.507797 0.363107
v 0.328786 1.472177 0.354226
v 0.276869 1.421802 0.341666
v 0.240159 1.360107 0.326284
v 0.221156 1.291294 0.309127
v 0.221156 1.220054 0.291365
v 0.240159 1.151241 0.274208
v 0.276869 1.089546 0.258825
v 0.328786 1.039171 0.246265
v 0.39237 1.003551 0.237384
v 0.46329 0.985113 0.232787
v 0.53671 0.985113 0.232787
v 0.60763 1.003551 0.237384
v 0.671214 1.039171 0.246265
v 0.723131 1.089546 0.258825
v 0.759841 1.151241 0.274208
v 0.778844 1.220054 0.291365
v 0.778844 1.300064 0.273953
v 0.759841 1.368876 0.29111
v 0.723131 1.430572 0.306493
v 0.671214 1.480946 0.319053
v 0.60763 1.516566 0.327934
v 0.53671 1.535005 0.332531
v 0.46329 1.535005 0.332531
v 0.39237 1.516566 0.327934
v 0.328786 1.480946 0.319053
v 0.276869 1.430572 0.306493
v 0.240159 1.368876 0.29111
v 0.221156 1.300064 0.273953
v 0.221156 1.228824 0.256191
v 0.240159 1.160011 0.239034
v 0.276869 1.098315 0.223652
v 0.328786 1.047941 0.211092
v 0.39237 1.012321 0.202211
v 0.46329 0.993883 0.197614
v 0.53671 0.993883 0.197614
v 0.60763 1.012321 0.202211
v 0.671214 1.047941 0.211092
v 0.723131 1.098315 0.223652
v 0.759841 1.160011 0.239034
v 0.778844 1.228824 0.256191
v 0.5 1.255674 0.300246
v 0.5 1.264444 0.265072
vt 0.186831 0.158659
vt 0.193523 0.16027
vt 0.192727 0.163574
vt 0.186035 0.161963
vt 0.30394 0.1588
vt 0.310668 0.160252
vt 0.309951 0.163574
vt 0.303223 0.162121
vt 0.717875 0.159032
vt 0.724654 0.160227
vt 0.724064 0.163574
vt 0.717285 0.162379
vt 0.294854 0.150561
vt 0.301684 0.151413
vt 0.301264 0.154785
vt 0.294434 0.153934
vt 0.631567 0.150951
vt 0.638435 0.151394
vt 0.638217 0.154785
vt 0.631348 0.154342
vt 0.835449 0.11623
vt 0.842332 0.11623
vt 0.842332 0.119629
vt 0.835449 0.119629
vt 0.663574 0.151394
vt 0.670443 0.150951
vt 0.670662 0.154342
vt 0.663793 0.154785
vt 0.305176 0.151413
vt 0.312006 0.150561
vt 0.312427 0.153934
vt 0.305596 0.154785
vt 0.728027 0.160227
vt 0.734806 0.159032
vt 0.735396 0.162379
vt 0.728617 0.163574
vt 0.270996 0.160252
vt 0.277724 0.1588
vt 0.278442 0.162121
vt 0.271713 0.163574
vt 0.20752 0.16027
vt 0.214211 0.158659
vt 0.215007 0.161963
vt 0.208315 0.163574
vt 0.129395 0.160277
vt 0.136073 0.158612
vt 0.136895 0.161909
vt 0.130217 0.163574
vt 0.196777 0.16027
vt 0.203469 0.158659
vt 0.204265 0.161963
vt 0.197573 0.163574
vt 0.281738 0.160252
vt 0.288466 0.1588
vt 0.289184 0.162121
vt 0.282456 0.163574
vt 0.73877 0.160227
vt 0.745548 0.159032
vt 0.746138 0.162379
vt 0.73936 0.163574
vt 0.283691 0.151413
vt 0.290522 0.150561
vt 0.290942 0.153934
vt 0.284112 0.154785
vt 0.652832 0.151394
vt 0.659701 0.150951
vt 0.65992 0.154342
vt 0.653051 0.154785
vt 0.461426 0.11623
vt 0.468309 0.11623
vt 0.468309 0.119629
vt 0.461426 0.119629
vt 0.642309 0.150951
vt 0.649178 0.151394
vt 0.648959 0.154785
vt 0.64209 0.154342
vt 0.316338 0.150561
vt 0.323169 0.151413
vt 0.322748 0.154785
vt 0.315918 0.153934
vt 0.707133 0.159032
vt 0.713912 0.160227
vt 0.713322 0.163574
vt 0.706543 0.162379
vt 0.293198 0.1588
vt 0.299926 0.160252
vt 0.299209 0.163574
vt 0.29248 0.162121
vt 0.219057 0.158659
vt 0.225749 0.16027
vt 0.224954 0.163574
vt 0.218262 0.161963
vt 0.140959 0.158612
vt 0.147638 0.160277
vt 0.146815 0.163574
vt 0.140137 0.161909
vt 0.391864 0.44212
vt 0.418006 0.445562
vt 0.416224 0.45221
vt 0.391864 0.44212
vt 0.416224 0.45221
vt 0.412783 0.458171
vt 0.391864 0.44212
vt 0.412783 0.458171
vt 0.407916 0.463039
vt 0.391864 0.44212
vt 0.407916 0.463039
vt 0.401955 0.46648
vt 0.391864 0.44212
vt 0.401955 0.46648
vt 0.395306 0.468262
vt 0.391864 0.44212
vt 0.395306 0.468262
vt 0.388423 0.468262
vt 0.391864 0.44212
vt 0.388423 0.468262
vt 0.381774 0.46648
vt 0.391864 0.44212
vt 0.381774 0.46648
vt 0.375813 0.463039
vt 0.391864 0.44212
vt 0.375813 0.463039
vt 0.370946 0.458171
vt 0.391864 0.44212
vt 0.370946 0.458171
vt 0.367504 0.45221
vt 0.391864 0.44212
vt 0.367504 0.45221
vt 0.365723 0.445562
vt 0.391864 0.44212
vt 0.365723 0.445562
vt 0.365723 0.438678
vt 0.391864 0.44212
vt 0.365723 0.438678
vt 0.367504 0.43203
vt 0.391864 0.44212
vt 0.367504 0.43203
vt 0.370946 0.426069
vt 0.391864 0.44212
vt 0.370946 0.426069
vt 0.375813 0.421202
vt 0.391864 0.44212
vt 0.375813 0.421202
vt 0.381774 0.41776
vt 0.391864 0.44212
vt 0.381774 0.41776
vt 0.388423 0.415978
vt 0.391864 0.44212
vt 0.388423 0.415978
vt 0.395306 0.415978
vt 0.391864 0.44212
vt 0.395306 0.415978
vt 0.401955 0.41776
vt 0.391864 0.44212
vt 0.401955 0.41776
vt 0.407916 0.421202
vt 0.391864 0.44212
vt 0.407916 0.421202
vt 0.412783 0.426069
vt 0.391864 0.44212
vt 0.412783 0.426069
vt 0.416224 0.43203
vt 0.391864 0.44212
vt 0.416224 0.43203
vt 0.418006 0.438678
vt 0.391864 0.44212
vt 0.418006 0.438678
vt 0.418006 0.445562
vt 0.534496 0.45221
vt 0.532715 0.445562
vt 0.558856 0.44212
vt 0.537938 0.458171
vt 0.534496 0.45221
vt 0.558856 0.44212
vt 0.542805 0.463039
vt 0.537938 0.458171
vt 0.558856 0.44212
vt 0.548766 0.46648
vt 0.542805 0.463039
vt 0.558856 0.44212
vt 0.555415 0.468262
vt 0.548766 0.46648
vt 0.558856 0.44212
vt 0.562298 0.468262
vt 0.555415 0.468262
vt 0.558856 0.44212
vt 0.568947 0.46648
vt 0.562298 0.468262
vt 0.558856 0.44212
vt 0.574908 0.463039
vt 0.568947 0.46648
vt 0.558856 0.44212
vt 0.579775 0.458171
vt 0.574908 0.463039
vt 0.558856 0.44212
vt 0.583217 0.45221
vt 0.579775 0.458171
vt 0.558856 0.44212
vt 0.584998 0.445562
vt 0.583217 0.45221
vt 0.558856 0.44212
vt 0.584998 0.438678
vt 0.584998 0.445562
vt 0.558856 0.44212
vt 0.583217 0.43203
vt 0.584998 0.438678
vt 0.558856 0.44212
vt 0.579775 0.426069
vt 0.583217 0.43203
vt 0.558856 0.44212
vt 0.574908 0.421202
vt 0.579775 0.426069
vt 0.558856 0.44212
vt 0.568947 0.41776
vt 0.574908 0.421202
vt 0.558856 0.44212
vt 0.562298 0.415978
vt 0.568947 0.41776
vt 0.558856 0.44212
vt 0.555415 0.415978
vt 0.562298 0.415978
vt 0.558856 0.44212
vt 0.548766 0.41776
vt 0.555415 0.415978
vt 0.558856 0.44212
vt 0.542805 0.421202
vt 0.548766 0.41776
vt 0.558856 0.44212
vt 0.537938 0.426069
vt 0.542805 0.421202
vt 0.558856 0.44212
vt 0.534496 0.43203
vt 0.537938 0.426069
vt 0.558856 0.44212
vt 0.532715 0.438678
vt 0.534496 0.43203
vt 0.558856 0.44212
vt 0.532715 0.445562
vt 0.532715 0.438678
vt 0.558856 0.44212
vn 0.991445 0.126649 0.031577
vn 0.92388 0.371316 0.09258
vn 0.793353 0.590679 0.147273
vn 0.608761 0.769787 0.19193
vn 0.382683 0.896436 0.223507
vn 0.130526 0.961995 0.239852
vn -0.130526 0.961995 0.239852
vn -0.382683 0.896436 0.223507
vn -0.608761 0.769787 0.19193
vn -0.793353 0.590679 0.147273
vn -0.92388 0.371316 0.09258
vn -0.991445 0.126649 0.031577
vn -0.991445 -0.126649 -0.031577
vn -0.92388 -0.371316 -0.09258
vn -0.793353 -0.590679 -0.147273
vn -0.608761 -0.769787 -0.19193
vn -0.382683 -0.896436 -0.223507
vn -0.130526 -0.961995 -0.239852
vn 0.130526 -0.961995 -0.239852
vn 0.382683 -0.896436 -0.223507
vn 0.608761 -0.769787 -0.19193
vn 0.793353 -0.590679 -0.147273
vn 0.92388 -0.371316 -0.09258
vn 0.991445 -0.126649 -0.031577
vn 0 -0.241922 0.970296
vn 0 0.241922 -0.970296
f 25/1/1 26/2/2 2/3/2 1/4/1
f 26/5/2 27/6/3 3/7/3 2/8/2
f 27/9/3 28/10/4 4/11/4 3/12/3
f 28/13/4 29/14/5 5/15/5 4/16/4
f 29/17/5 30/18/6 6/19/6 5/20/5
f 30/21/6 31/22/7 7/23/7 6/24/6
f 31/25/7 32/26/8 8/27/8 7/28/7
f 32/29/8 33/30/9 9/31/9 8/32/8
f 33/33/9 34/34/10 10/35/10 9/36/9
f 34/37/10 35/38/11 11/39/11 10/40/10
f 35/41/11 36/42/12 12/43/12 11/44/11
f 36/45/12 37/46/13 13/47/13 12/48/12
f 37/49/13 38/50/14 14/51/14 13/52/13
f 38/53/14 39/54/15 15/55/15 14/56/14
f 39/57/15 40/58/16 16/59/16 15/60/15
f 40/61/16 41/62/17 17/63/17 16/64/16
f 41/65/17 42/66/18 18/67/18 17/68/17
f 42/69/18 43/70/19 19/71/19 18/72/18
f 43/73/19 44/74/20 20/75/20 19/76/19
f 44/77/20 45/78/21 21/79/21 20/80/20
f 45/81/21 46/82/22 22/83/22 21/84/21
f 46/85/22 47/86/23 23/87/23 22/88/22
f 47/89/23 48/90/24 24/91/24 23/92/23
f 48/93/24 25/94/1 1/95/1 24/96/24
f 49/97/25 1/98/25 2/99/25
f 49/100/25 2/101/25 3/102/25
f 49/103/25 3/104/25 4/105/25
f 49/106/25 4/107/25 5/108/25
f 49/109/25 5/110/25 6/111/25
f 49/112/25 6/113/25 7/114/25
f 49/115/25 7/116/25 8/117/25
f 49/118/25 8/119/25 9/120/25
f 49/121/25 9/122/25 10/123/25
f 49/124/25 10/125/25 11/126/25
f 49/127/25 11/128/25 12/129/25
f 49/130/25 12/131/25 13/132/25
f 49/133/25 13/134/25 14/135/25
f 49/136/25 14/137/25 15/138/25
f 49/139/25 15/140/25 16/141/25
f 49/142/25 16/143/25 17/144/25
f 49/145/25 17/146/25 18/147/25
f 49/148/25 18/149/25 19/150/25
f 49/151/25 19/152/25 20/153/25
f 49/154/25 20/155/25 21/156/25
f 49/157/25 21/158/25 22/159/25
f 49/160/25 22/161/25 23/162/25
f 49/163/25 23/164/25 24/165/25
f 49/166/25 24/167/25 1/168/25
f 26/169/26 25/170/26 50/171/26
f 27/172/26 26/173/26 50/174/26
f 28/175/26 27/176/26 50/177/26
f 29/178/26 28/179/26 50/180/26
f 30/181/26 29/182/26 50/183/26
f 31/184/26 30/185/26 50/186/26
f 32/187/26 31/188/26 50/189/26
f 33/190/26 32/191/26 50/192/26
f 34/193/26 33/194/26 50/195/26
f 35/196/26 34/197/26 50/198/26
f 36/199/26 35/200/26 50/201/26
f 37/202/26 36/203/26 50/204/26
f 38/205/26 37/206/26 50/207/26
f 39/208/26 38/209/26 50/210/26
f 40/211/26 39/212/26 50/213/26
f 41/214/26 40/215/26 50/216/26
f 42/217/26 41/218/26 50/219/26
f 43/220/26 42/221/26 50/222/26
f 44/223/26 43/224/26 50/225/26
f 45/226/26 44/227/26 50/228/26
f 46/229/26 45/230/26 50/231/26
f 47/232/26 46/233/26 50/234/26
f 48/235/26 47/236/26 50/237/26
f 25/238/26 48/239/26 50/240/26
