# AFL fuel_fill_cover/lid_closed, generated by tools/build-fuel-station-sump-v1.mjs
mtllib lid_closed.mtl
o fuel_fill_cover__lid_closed__lid
usemtl fuel_station_sump
v 0.778844 0.9625 0.53671
v 0.759841 0.9625 0.60763
v 0.723131 0.9625 0.671214
v 0.671214 0.9625 0.723131
v 0.60763 0.9625 0.759841
v 0.53671 0.9625 0.778844
v 0.46329 0.9625 0.778844
v 0.39237 0.9625 0.759841
v 0.328786 0.9625 0.723131
v 0.276869 0.9625 0.671214
v 0.240159 0.9625 0.60763
v 0.221156 0.9625 0.53671
v 0.221156 0.9625 0.46329
v 0.240159 0.9625 0.39237
v 0.276869 0.9625 0.328786
v 0.328786 0.9625 0.276869
v 0.39237 0.9625 0.240159
v 0.46329 0.9625 0.221156
v 0.53671 0.9625 0.221156
v 0.60763 0.9625 0.240159
v 0.671214 0.9625 0.276869
v 0.723131 0.9625 0.328786
v 0.759841 0.9625 0.39237
v 0.778844 0.9625 0.46329
v 0.778844 0.99875 0.53671
v 0.759841 0.99875 0.60763
v 0.723131 0.99875 0.671214
v 0.671214 0.99875 0.723131
v 0.60763 0.99875 0.759841
v 0.53671 0.99875 0.778844
v 0.46329 0.99875 0.778844
v 0.39237 0.99875 0.759841
v 0.328786 0.99875 0.723131
v 0.276869 0.99875 0.671214
v 0.240159 0.99875 0.60763
v 0.221156 0.99875 0.53671
v 0.221156 0.99875 0.46329
v 0.240159 0.99875 0.39237
v 0.276869 0.99875 0.328786
v 0.328786 0.99875 0.276869
v 0.39237 0.99875 0.240159
v 0.46329 0.99875 0.221156
v 0.53671 0.99875 0.221156
v 0.60763 0.99875 0.240159
v 0.671214 0.99875 0.276869
v 0.723131 0.99875 0.328786
v 0.759841 0.99875 0.39237
v 0.778844 0.99875 0.46329
v 0.5 0.9625 0.5
v 0.5 0.99875 0.5
vt 0.846191 0.11623
vt 0.853075 0.11623
vt 0.853075 0.119629
vt 0.846191 0.119629
vt 0.856934 0.11623
vt 0.863817 0.11623
vt 0.863817 0.119629
vt 0.856934 0.119629
vt 0.803223 0.11623
vt 0.810106 0.11623
vt 0.810106 0.119629
vt 0.803223 0.119629
vt 0.878418 0.11623
vt 0.885301 0.11623
vt 0.885301 0.119629
vt 0.878418 0.119629
vt 0.874559 0.119629
vt 0.867676 0.119629
vt 0.867676 0.11623
vt 0.874559 0.11623
vt 0.788621 0.119629
vt 0.781738 0.119629
vt 0.781738 0.11623
vt 0.788621 0.11623
vt 0.896043 0.119629
vt 0.88916 0.119629
vt 0.88916 0.11623
vt 0.896043 0.11623
vt 0.777879 0.119629
vt 0.770996 0.119629
vt 0.770996 0.11623
vt 0.777879 0.11623
vt 0.917528 0.119629
vt 0.910645 0.119629
vt 0.910645 0.11623
vt 0.917528 0.11623
vt 0.799364 0.119629
vt 0.79248 0.119629
vt 0.79248 0.11623
vt 0.799364 0.11623
vt 0.906786 0.119629
vt 0.899902 0.119629
vt 0.899902 0.11623
vt 0.906786 0.11623
vt 0.756395 0.119629
vt 0.749512 0.119629
vt 0.749512 0.11623
vt 0.756395 0.11623
vt 0.949754 0.119629
vt 0.942871 0.119629
vt 0.942871 0.11623
vt 0.949754 0.11623
vt 0.820848 0.119629
vt 0.813965 0.119629
vt 0.813965 0.11623
vt 0.820848 0.11623
vt 0.960496 0.119629
vt 0.953613 0.119629
vt 0.953613 0.11623
vt 0.960496 0.11623
vt 0.734911 0.119629
vt 0.728027 0.119629
vt 0.728027 0.11623
vt 0.734911 0.11623
vt 0.92827 0.119629
vt 0.921387 0.119629
vt 0.921387 0.11623
vt 0.92827 0.11623
vt 0.939012 0.119629
vt 0.932129 0.119629
vt 0.932129 0.11623
vt 0.939012 0.11623
vt 0.971239 0.119629
vt 0.964355 0.119629
vt 0.964355 0.11623
vt 0.971239 0.11623
vt 0.98584 0.11623
vt 0.992723 0.11623
vt 0.992723 0.119629
vt 0.98584 0.119629
vt 0.73877 0.11623
vt 0.745653 0.11623
vt 0.745653 0.119629
vt 0.73877 0.119629
vt 0.760254 0.11623
vt 0.767137 0.11623
vt 0.767137 0.119629
vt 0.760254 0.119629
vt 0.975098 0.11623
vt 0.981981 0.11623
vt 0.981981 0.119629
vt 0.975098 0.119629
vt 0.824707 0.11623
vt 0.83159 0.11623
vt 0.83159 0.119629
vt 0.824707 0.119629
vt 0.447528 0.44212
vt 0.45097 0.415978
vt 0.457619 0.41776
vt 0.447528 0.44212
vt 0.457619 0.41776
vt 0.46358 0.421202
vt 0.447528 0.44212
vt 0.46358 0.421202
vt 0.468447 0.426069
vt 0.447528 0.44212
vt 0.468447 0.426069
vt 0.471888 0.43203
vt 0.447528 0.44212
vt 0.471888 0.43203
vt 0.47367 0.438678
vt 0.447528 0.44212
vt 0.47367 0.438678
vt 0.47367 0.445562
vt 0.447528 0.44212
vt 0.47367 0.445562
vt 0.471888 0.45221
vt 0.447528 0.44212
vt 0.471888 0.45221
vt 0.468447 0.458171
vt 0.447528 0.44212
vt 0.468447 0.458171
vt 0.46358 0.463039
vt 0.447528 0.44212
vt 0.46358 0.463039
vt 0.457619 0.46648
vt 0.447528 0.44212
vt 0.457619 0.46648
vt 0.45097 0.468262
vt 0.447528 0.44212
vt 0.45097 0.468262
vt 0.444087 0.468262
vt 0.447528 0.44212
vt 0.444087 0.468262
vt 0.437438 0.46648
vt 0.447528 0.44212
vt 0.437438 0.46648
vt 0.431477 0.463039
vt 0.447528 0.44212
vt 0.431477 0.463039
vt 0.42661 0.458171
vt 0.447528 0.44212
vt 0.42661 0.458171
vt 0.423168 0.45221
vt 0.447528 0.44212
vt 0.423168 0.45221
vt 0.421387 0.445562
vt 0.447528 0.44212
vt 0.421387 0.445562
vt 0.421387 0.438678
vt 0.447528 0.44212
vt 0.421387 0.438678
vt 0.423168 0.43203
vt 0.447528 0.44212
vt 0.423168 0.43203
vt 0.42661 0.426069
vt 0.447528 0.44212
vt 0.42661 0.426069
vt 0.431477 0.421202
vt 0.447528 0.44212
vt 0.431477 0.421202
vt 0.437438 0.41776
vt 0.447528 0.44212
vt 0.437438 0.41776
vt 0.444087 0.415978
vt 0.447528 0.44212
vt 0.444087 0.415978
vt 0.45097 0.415978
vt 0.513283 0.46648
vt 0.506634 0.468262
vt 0.503192 0.44212
vt 0.519244 0.463039
vt 0.513283 0.46648
vt 0.503192 0.44212
vt 0.524111 0.458171
vt 0.519244 0.463039
vt 0.503192 0.44212
vt 0.527552 0.45221
vt 0.524111 0.458171
vt 0.503192 0.44212
vt 0.529334 0.445562
vt 0.527552 0.45221
vt 0.503192 0.44212
vt 0.529334 0.438678
vt 0.529334 0.445562
vt 0.503192 0.44212
vt 0.527552 0.43203
vt 0.529334 0.438678
vt 0.503192 0.44212
vt 0.524111 0.426069
vt 0.527552 0.43203
vt 0.503192 0.44212
vt 0.519244 0.421202
vt 0.524111 0.426069
vt 0.503192 0.44212
vt 0.513283 0.41776
vt 0.519244 0.421202
vt 0.503192 0.44212
vt 0.506634 0.415978
vt 0.513283 0.41776
vt 0.503192 0.44212
vt 0.499751 0.415978
vt 0.506634 0.415978
vt 0.503192 0.44212
vt 0.493102 0.41776
vt 0.499751 0.415978
vt 0.503192 0.44212
vt 0.487141 0.421202
vt 0.493102 0.41776
vt 0.503192 0.44212
vt 0.482274 0.426069
vt 0.487141 0.421202
vt 0.503192 0.44212
vt 0.478832 0.43203
vt 0.482274 0.426069
vt 0.503192 0.44212
vt 0.477051 0.438678
vt 0.478832 0.43203
vt 0.503192 0.44212
vt 0.477051 0.445562
vt 0.477051 0.438678
vt 0.503192 0.44212
vt 0.478832 0.45221
vt 0.477051 0.445562
vt 0.503192 0.44212
vt 0.482274 0.458171
vt 0.478832 0.45221
vt 0.503192 0.44212
vt 0.487141 0.463039
vt 0.482274 0.458171
vt 0.503192 0.44212
vt 0.493102 0.46648
vt 0.487141 0.463039
vt 0.503192 0.44212
vt 0.499751 0.468262
vt 0.493102 0.46648
vt 0.503192 0.44212
vt 0.506634 0.468262
vt 0.499751 0.468262
vt 0.503192 0.44212
vn 0.991445 0 0.130526
vn 0.92388 0 0.382683
vn 0.793353 0 0.608761
vn 0.608761 0 0.793353
vn 0.382683 0 0.92388
vn 0.130526 0 0.991445
vn -0.130526 0 0.991445
vn -0.382683 0 0.92388
vn -0.608761 0 0.793353
vn -0.793353 0 0.608761
vn -0.92388 0 0.382683
vn -0.991445 0 0.130526
vn -0.991445 0 -0.130526
vn -0.92388 0 -0.382683
vn -0.793353 0 -0.608761
vn -0.608761 0 -0.793353
vn -0.382683 0 -0.92388
vn -0.130526 0 -0.991445
vn 0.130526 0 -0.991445
vn 0.382683 0 -0.92388
vn 0.608761 0 -0.793353
vn 0.793353 0 -0.608761
vn 0.92388 0 -0.382683
vn 0.991445 0 -0.130526
vn 0 -1 0
vn 0 1 0
f 25/1/1 26/2/2 2/3/2 1/4/1
f 26/5/2 27/6/3 3/7/3 2/8/2
f 27/9/3 28/10/4 4/11/4 3/12/3
f 28/13/4 29/14/5 5/15/5 4/16/4
f 29/17/5 30/18/6 6/19/6 5/20/5
f 30/21/6 31/22/7 7/23/7 6/24/6
f 31/25/7 32/26/8 8/27/8 7/28/7
f 32/29/8 33/30/9 9/31/9 8/32/8
f 33/33/9 34/34/10 10/35/10 9/36/9
f 34/37/10 35/38/11 11/39/11 10/40/10
f 35/41/11 36/42/12 12/43/12 11/44/11
f 36/45/12 37/46/13 13/47/13 12/48/12
f 37/49/13 38/50/14 14/51/14 13/52/13
f 38/53/14 39/54/15 15/55/15 14/56/14
f 39/57/15 40/58/16 16/59/16 15/60/15
f 40/61/16 41/62/17 17/63/17 16/64/16
f 41/65/17 42/66/18 18/67/18 17/68/17
f 42/69/18 43/70/19 19/71/19 18/72/18
f 43/73/19 44/74/20 20/75/20 19/76/19
f 44/77/20 45/78/21 21/79/21 20/80/20
f 45/81/21 46/82/22 22/83/22 21/84/21
f 46/85/22 47/86/23 23/87/23 22/88/22
f 47/89/23 48/90/24 24/91/24 23/92/23
f 48/93/24 25/94/1 1/95/1 24/96/24
f 49/97/25 1/98/25 2/99/25
f 49/100/25 2/101/25 3/102/25
f 49/103/25 3/104/25 4/105/25
f 49/106/25 4/107/25 5/108/25
f 49/109/25 5/110/25 6/111/25
f 49/112/25 6/113/25 7/114/25
f 49/115/25 7/116/25 8/117/25
f 49/118/25 8/119/25 9/120/25
f 49/121/25 9/122/25 10/123/25
f 49/124/25 10/125/25 11/126/25
f 49/127/25 11/128/25 12/129/25
f 49/130/25 12/131/25 13/132/25
f 49/133/25 13/134/25 14/135/25
f 49/136/25 14/137/25 15/138/25
f 49/139/25 15/140/25 16/141/25
f 49/142/25 16/143/25 17/144/25
f 49/145/25 17/146/25 18/147/25
f 49/148/25 18/149/25 19/150/25
f 49/151/25 19/152/25 20/153/25
f 49/154/25 20/155/25 21/156/25
f 49/157/25 21/158/25 22/159/25
f 49/160/25 22/161/25 23/162/25
f 49/163/25 23/164/25 24/165/25
f 49/166/25 24/167/25 1/168/25
f 26/169/26 25/170/26 50/171/26
f 27/172/26 26/173/26 50/174/26
f 28/175/26 27/176/26 50/177/26
f 29/178/26 28/179/26 50/180/26
f 30/181/26 29/182/26 50/183/26
f 31/184/26 30/185/26 50/186/26
f 32/187/26 31/188/26 50/189/26
f 33/190/26 32/191/26 50/192/26
f 34/193/26 33/194/26 50/195/26
f 35/196/26 34/197/26 50/198/26
f 36/199/26 35/200/26 50/201/26
f 37/202/26 36/203/26 50/204/26
f 38/205/26 37/206/26 50/207/26
f 39/208/26 38/209/26 50/210/26
f 40/211/26 39/212/26 50/213/26
f 41/214/26 40/215/26 50/216/26
f 42/217/26 41/218/26 50/219/26
f 43/220/26 42/221/26 50/222/26
f 44/223/26 43/224/26 50/225/26
f 45/226/26 44/227/26 50/228/26
f 46/229/26 45/230/26 50/231/26
f 47/232/26 46/233/26 50/234/26
f 48/235/26 47/236/26 50/237/26
f 25/238/26 48/239/26 50/240/26
