# AFL fuel_dispenser_sump/body, generated by tools/build-fuel-station-sump-v1.mjs
mtllib body.mtl
o fuel_dispenser_sump__body__udc_box
usemtl fuel_station_sump
v 0.046875 0 0.046875
v 0.046875 0 0.953125
v 1.953125 0 0.953125
v 1.953125 0 0.046875
v 0.0375 0.009375 0.0375
v 0.0375 0.009375 0.9625
v 1.9625 0.009375 0.9625
v 1.9625 0.009375 0.0375
v 0.0375 1.928125 0.0375
v 0.0375 1.928125 0.9625
v 1.9625 1.928125 0.9625
v 1.9625 1.928125 0.0375
v 0.046875 1.9375 0.046875
v 0.046875 1.9375 0.953125
v 1.953125 1.9375 0.953125
v 1.953125 1.9375 0.046875
v 0.046875 0 0.046875
v 0.046875 0 0.953125
v 1.953125 0 0.953125
v 1.953125 0 0.046875
v 0.046875 1.9375 0.046875
v 0.046875 1.9375 0.953125
v 1.953125 1.9375 0.953125
v 1.953125 1.9375 0.046875
vt 0.186914 0.07737
vt 0.271875 0.07737
vt 0.272754 0.078613
vt 0.186035 0.078613
vt 0.639062 0.082253
vt 0.817773 0.082253
vt 0.818652 0.083496
vt 0.638184 0.083496
vt 0.758203 0.078613
vt 0.673242 0.078613
vt 0.672363 0.07737
vt 0.759082 0.07737
vt 0.182031 0.078613
vt 0.00332 0.078613
vt 0.002441 0.07737
vt 0.18291 0.07737
vt 0.945996 0.727246
vt 0.945996 0.813965
vt 0.766113 0.813965
vt 0.766113 0.727246
vt 0.002441 0.817676
vt 0.18291 0.817676
vt 0.18291 0.997559
vt 0.002441 0.997559
vt 0.002441 0.717285
vt 0.002441 0.630566
vt 0.182324 0.630566
vt 0.182324 0.717285
vt 0.186035 0.817676
vt 0.366504 0.817676
vt 0.366504 0.997559
vt 0.186035 0.997559
vt 0.762207 0.07737
vt 0.848926 0.07737
vt 0.848047 0.078613
vt 0.763086 0.078613
vt 0.21709 0.07373
vt 0.036621 0.07373
vt 0.0375 0.072488
vt 0.216211 0.072488
vt 0.93877 0.078613
vt 0.852051 0.078613
vt 0.85293 0.07737
vt 0.937891 0.07737
vt 0.48877 0.07737
vt 0.669238 0.07737
vt 0.668359 0.078613
vt 0.489648 0.078613
vt 0.662598 0.717285
vt 0.662598 0.632324
vt 0.841309 0.632324
vt 0.841309 0.632324
vt 0.841309 0.717285
vt 0.662598 0.717285
vt 0.002441 0.54248
vt 0.181152 0.54248
vt 0.181152 0.627441
vt 0.181152 0.627441
vt 0.002441 0.627441
vt 0.002441 0.54248
vn -0.707107 -0.707107 0
vn 0 -0.707107 0.707107
vn 0.707107 -0.707107 0
vn 0 -0.707107 -0.707107
vn -1 0 0
vn 0 0 1
vn 1 0 0
vn 0 0 -1
vn -0.707107 0.707107 0
vn 0 0.707107 0.707107
vn 0.707107 0.707107 0
vn 0 0.707107 -0.707107
vn 0 -1 0
vn 0 1 0
f 1/1/1 2/2/1 6/3/1 5/4/1
f 2/5/2 3/6/2 7/7/2 6/8/2
f 3/9/3 4/10/3 8/11/3 7/12/3
f 4/13/4 1/14/4 5/15/4 8/16/4
f 5/17/5 6/18/5 10/19/5 9/20/5
f 6/21/6 7/22/6 11/23/6 10/24/6
f 7/25/7 8/26/7 12/27/7 11/28/7
f 8/29/8 5/30/8 9/31/8 12/32/8
f 9/33/9 10/34/9 14/35/9 13/36/9
f 10/37/10 11/38/10 15/39/10 14/40/10
f 11/41/11 12/42/11 16/43/11 15/44/11
f 12/45/12 9/46/12 13/47/12 16/48/12
f 18/49/13 17/50/13 20/51/13
f 20/52/13 19/53/13 18/54/13
f 24/55/14 21/56/14 22/57/14
f 22/58/14 23/59/14 24/60/14
o fuel_dispenser_sump__body__udc_flange
usemtl fuel_station_sump
v 0.0125 1.925 0.0125
v 0.0125 1.925 0.9875
v 1.9875 1.925 0.9875
v 1.9875 1.925 0.0125
v 0.00625 1.93125 0.00625
v 0.00625 1.93125 0.99375
v 1.99375 1.93125 0.99375
v 1.99375 1.93125 0.00625
v 0.00625 1.99375 0.00625
v 0.00625 1.99375 0.99375
v 1.99375 1.99375 0.99375
v 1.99375 1.99375 0.00625
v 0.0125 2 0.0125
v 0.0125 2 0.9875
v 1.9875 2 0.9875
v 1.9875 2 0.0125
v 0.0125 1.925 0.0125
v 0.0125 1.925 0.9875
v 1.9875 1.925 0.9875
v 1.9875 1.925 0.0125
v 0.0125 2 0.0125
v 0.0125 2 0.9875
v 1.9875 2 0.9875
v 1.9875 2 0.0125
vt 0.202246 0.05923
vt 0.293652 0.05923
vt 0.294238 0.060059
vt 0.20166 0.060059
vt 0.19248 0.063136
vt 0.377637 0.063136
vt 0.378223 0.063965
vt 0.191895 0.063965
vt 0.662793 0.063965
vt 0.571387 0.063965
vt 0.570801 0.063136
vt 0.663379 0.063136
vt 0.188184 0.063965
vt 0.003027 0.063965
vt 0.002441 0.063136
vt 0.18877 0.063136
vt 0.381348 0.175293
vt 0.473926 0.175293
vt 0.473926 0.181152
vt 0.381348 0.181152
vt 0.002441 0.175293
vt 0.18877 0.175293
vt 0.18877 0.181152
vt 0.002441 0.181152
vt 0.569629 0.181152
vt 0.477051 0.181152
vt 0.477051 0.175293
vt 0.569629 0.175293
vt 0.191895 0.175293
vt 0.378223 0.175293
vt 0.378223 0.181152
vt 0.191895 0.181152
vt 0.73291 0.068019
vt 0.825488 0.068019
vt 0.824902 0.068848
vt 0.733496 0.068848
vt 0.567676 0.063965
vt 0.381348 0.063965
vt 0.381934 0.063136
vt 0.56709 0.063136
vt 0.540332 0.068848
vt 0.447754 0.068848
vt 0.44834 0.068019
vt 0.539746 0.068019
vt 0.543457 0.068019
vt 0.729785 0.068019
vt 0.729199 0.068848
vt 0.544043 0.068848
vt 0.38916 0.813965
vt 0.38916 0.722559
vt 0.574316 0.722559
vt 0.574316 0.722559
vt 0.574316 0.813965
vt 0.38916 0.813965
vt 0.577637 0.722559
vt 0.762793 0.722559
vt 0.762793 0.813965
vt 0.762793 0.813965
vt 0.577637 0.813965
vt 0.577637 0.722559
vn -0.707107 -0.707107 0
vn 0 -0.707107 0.707107
vn 0.707107 -0.707107 0
vn 0 -0.707107 -0.707107
vn -1 0 0
vn 0 0 1
vn 1 0 0
vn 0 0 -1
vn -0.707107 0.707107 0
vn 0 0.707107 0.707107
vn 0.707107 0.707107 0
vn 0 0.707107 -0.707107
vn 0 -1 0
vn 0 1 0
f 25/61/15 26/62/15 30/63/15 29/64/15
f 26/65/16 27/66/16 31/67/16 30/68/16
f 27/69/17 28/70/17 32/71/17 31/72/17
f 28/73/18 25/74/18 29/75/18 32/76/18
f 29/77/19 30/78/19 34/79/19 33/80/19
f 30/81/20 31/82/20 35/83/20 34/84/20
f 31/85/21 32/86/21 36/87/21 35/88/21
f 32/89/22 29/90/22 33/91/22 36/92/22
f 33/93/23 34/94/23 38/95/23 37/96/23
f 34/97/24 35/98/24 39/99/24 38/100/24
f 35/101/25 36/102/25 40/103/25 39/104/25
f 36/105/26 33/106/26 37/107/26 40/108/26
f 42/109/27 41/110/27 44/111/27
f 44/112/27 43/113/27 42/114/27
f 48/115/28 45/116/28 46/117/28
f 46/118/28 47/119/28 48/120/28
o fuel_dispenser_sump__body__gasoline_plate
usemtl fuel_station_sump
v 0.0375 0.16125 0.16125
v 0.0375 0.16125 0.83875
v 0.0375 0.83875 0.83875
v 0.0375 0.83875 0.16125
v 0.0325 0.15625 0.15625
v 0.0325 0.15625 0.84375
v 0.0325 0.84375 0.84375
v 0.0325 0.84375 0.15625
v 0.005 0.15625 0.15625
v 0.005 0.15625 0.84375
v 0.005 0.84375 0.84375
v 0.005 0.84375 0.15625
v 0 0.16125 0.16125
v 0 0.16125 0.83875
v 0 0.83875 0.83875
v 0 0.83875 0.16125
v 0.0375 0.755 0.245
v 0.0375 0.755 0.755
v 0.0375 0.245 0.755
v 0.0375 0.245 0.245
v 0.0325 0.75 0.25
v 0.0325 0.75 0.75
v 0.0325 0.25 0.75
v 0.0325 0.25 0.25
v 0.005 0.75 0.25
v 0.005 0.75 0.75
v 0.005 0.25 0.75
v 0.005 0.25 0.25
v 0 0.755 0.245
v 0 0.755 0.755
v 0 0.245 0.755
v 0 0.245 0.245
v 0.0375 0.16125 0.16125
v 0.0375 0.16125 0.83875
v 0.0375 0.83875 0.83875
v 0.0375 0.83875 0.16125
v 0.0375 0.755 0.245
v 0.0375 0.755 0.755
v 0.0375 0.245 0.755
v 0.0375 0.245 0.245
v 0 0.16125 0.16125
v 0 0.16125 0.83875
v 0 0.83875 0.83875
v 0 0.83875 0.16125
v 0 0.755 0.245
v 0 0.755 0.755
v 0 0.245 0.755
v 0 0.245 0.245
vt 0.47459 0.055489
vt 0.538105 0.055489
vt 0.538574 0.056152
vt 0.474121 0.056152
vt 0.070293 0.035958
vt 0.133809 0.035958
vt 0.134277 0.036621
vt 0.069824 0.036621
vt 0.605488 0.056152
vt 0.541973 0.056152
vt 0.541504 0.055489
vt 0.605957 0.055489
vt 0.201191 0.036621
vt 0.137676 0.036621
vt 0.137207 0.035958
vt 0.20166 0.035958
vt 0.406738 0.103379
vt 0.471191 0.103379
vt 0.471191 0.105957
vt 0.406738 0.105957
vt 0.474121 0.103379
vt 0.538574 0.103379
vt 0.538574 0.105957
vt 0.474121 0.105957
vt 0.605957 0.105957
vt 0.541504 0.105957
vt 0.541504 0.103379
vt 0.605957 0.103379
vt 0.67334 0.105957
vt 0.608887 0.105957
vt 0.608887 0.103379
vt 0.67334 0.103379
vt 0.104004 0.039864
vt 0.168457 0.039864
vt 0.167988 0.040527
vt 0.104473 0.040527
vt 0.403809 0.044434
vt 0.339355 0.044434
vt 0.339824 0.043771
vt 0.40334 0.043771
vt 0.23584 0.040527
vt 0.171387 0.040527
vt 0.171855 0.039864
vt 0.235371 0.039864
vt 0.406738 0.043771
vt 0.471191 0.043771
vt 0.470723 0.044434
vt 0.407207 0.044434
vt 0.256348 0.047677
vt 0.30416 0.047677
vt 0.303691 0.04834
vt 0.256816 0.04834
vt 0.050254 0.040527
vt 0.002441 0.040527
vt 0.00291 0.039864
vt 0.049785 0.039864
vt 0.354941 0.04834
vt 0.307129 0.04834
vt 0.307598 0.047677
vt 0.354473 0.047677
vt 0.053223 0.039864
vt 0.101035 0.039864
vt 0.100566 0.040527
vt 0.053691 0.040527
vt 0.30127 0.09752
vt 0.348145 0.09752
vt 0.348145 0.100098
vt 0.30127 0.100098
vt 0.397949 0.100098
vt 0.351074 0.100098
vt 0.351074 0.09752
vt 0.397949 0.09752
vt 0.447754 0.100098
vt 0.400879 0.100098
vt 0.400879 0.09752
vt 0.447754 0.09752
vt 0.450684 0.09752
vt 0.497559 0.09752
vt 0.497559 0.100098
vt 0.450684 0.100098
vt 0.358379 0.047677
vt 0.405254 0.047677
vt 0.405723 0.04834
vt 0.35791 0.04834
vt 0.40916 0.047677
vt 0.456035 0.047677
vt 0.456504 0.04834
vt 0.408691 0.04834
vt 0.506816 0.04834
vt 0.459941 0.04834
vt 0.459473 0.047677
vt 0.507285 0.047677
vt 0.557598 0.04834
vt 0.510723 0.04834
vt 0.510254 0.047677
vt 0.558066 0.047677
vt 0.67041 0.483887
vt 0.678262 0.476035
vt 0.678262 0.539551
vt 0.67041 0.531699
vt 0.67041 0.483887
vt 0.678262 0.539551
vt 0.67041 0.531699
vt 0.678262 0.539551
vt 0.614746 0.539551
vt 0.622598 0.531699
vt 0.67041 0.531699
vt 0.614746 0.539551
vt 0.622598 0.531699
vt 0.614746 0.539551
vt 0.614746 0.476035
vt 0.622598 0.483887
vt 0.622598 0.531699
vt 0.614746 0.476035
vt 0.67041 0.483887
vt 0.622598 0.483887
vt 0.614746 0.476035
vt 0.614746 0.476035
vt 0.678262 0.476035
vt 0.67041 0.483887
vt 0.745645 0.476035
vt 0.745645 0.539551
vt 0.737793 0.531699
vt 0.745645 0.476035
vt 0.737793 0.531699
vt 0.737793 0.483887
vt 0.682129 0.476035
vt 0.745645 0.476035
vt 0.737793 0.483887
vt 0.682129 0.476035
vt 0.737793 0.483887
vt 0.68998 0.483887
vt 0.682129 0.539551
vt 0.682129 0.476035
vt 0.68998 0.483887
vt 0.682129 0.539551
vt 0.68998 0.483887
vt 0.68998 0.531699
vt 0.682129 0.539551
vt 0.68998 0.531699
vt 0.737793 0.531699
vt 0.737793 0.531699
vt 0.745645 0.539551
vt 0.682129 0.539551
vn 0.707107 -0.707107 0
vn 0.707107 0 0.707107
vn 0.707107 0.707107 0
vn 0.707107 0 -0.707107
vn 0 -1 0
vn 0 0 1
vn 0 1 0
vn 0 0 -1
vn -0.707107 -0.707107 0
vn -0.707107 0 0.707107
vn -0.707107 0.707107 0
vn -0.707107 0 -0.707107
vn 1 0 0
vn -1 0 0
f 49/121/29 50/122/29 54/123/29 53/124/29
f 50/125/30 51/126/30 55/127/30 54/128/30
f 51/129/31 52/130/31 56/131/31 55/132/31
f 52/133/32 49/134/32 53/135/32 56/136/32
f 53/137/33 54/138/33 58/139/33 57/140/33
f 54/141/34 55/142/34 59/143/34 58/144/34
f 55/145/35 56/146/35 60/147/35 59/148/35
f 56/149/36 53/150/36 57/151/36 60/152/36
f 57/153/37 58/154/37 62/155/37 61/156/37
f 58/157/38 59/158/38 63/159/38 62/160/38
f 59/161/39 60/162/39 64/163/39 63/164/39
f 60/165/40 57/166/40 61/167/40 64/168/40
f 65/169/29 66/170/29 70/171/29 69/172/29
f 66/173/32 67/174/32 71/175/32 70/176/32
f 67/177/31 68/178/31 72/179/31 71/180/31
f 68/181/30 65/182/30 69/183/30 72/184/30
f 69/185/33 70/186/33 74/187/33 73/188/33
f 70/189/36 71/190/36 75/191/36 74/192/36
f 71/193/35 72/194/35 76/195/35 75/196/35
f 72/197/34 69/198/34 73/199/34 76/200/34
f 73/201/37 74/202/37 78/203/37 77/204/37
f 74/205/40 75/206/40 79/207/40 78/208/40
f 75/209/39 76/210/39 80/211/39 79/212/39
f 76/213/38 73/214/38 77/215/38 80/216/38
f 86/217/41 83/218/41 82/219/41
f 87/220/41 86/221/41 82/222/41
f 87/223/41 82/224/41 81/225/41
f 88/226/41 87/227/41 81/228/41
f 88/229/41 81/230/41 84/231/41
f 85/232/41 88/233/41 84/234/41
f 86/235/41 85/236/41 84/237/41
f 84/238/41 83/239/41 86/240/41
f 90/241/42 91/242/42 94/243/42
f 90/244/42 94/245/42 95/246/42
f 89/247/42 90/248/42 95/249/42
f 89/250/42 95/251/42 96/252/42
f 92/253/42 89/254/42 96/255/42
f 92/256/42 96/257/42 93/258/42
f 92/259/42 93/260/42 94/261/42
f 94/262/42 91/263/42 92/264/42
o fuel_dispenser_sump__body__gasoline_throat
usemtl fuel_station_sump
v 0.1 0.25 0.25
v 0.1 0.25 0.75
v 0.1 0.75 0.75
v 0.1 0.75 0.25
v 0.034375 0.25 0.25
v 0.034375 0.25 0.75
v 0.034375 0.75 0.75
v 0.034375 0.75 0.25
v 0.1 0.25 0.25
v 0.1 0.25 0.75
v 0.1 0.75 0.75
v 0.1 0.75 0.25
v 0.034375 0.25 0.25
v 0.034375 0.25 0.75
v 0.034375 0.75 0.75
v 0.034375 0.75 0.25
vt 0.649902 0.184766
vt 0.696777 0.184766
vt 0.696777 0.190918
vt 0.649902 0.190918
vt 0.699707 0.184766
vt 0.746582 0.184766
vt 0.746582 0.190918
vt 0.699707 0.190918
vt 0.796387 0.190918
vt 0.749512 0.190918
vt 0.749512 0.184766
vt 0.796387 0.184766
vt 0.846191 0.190918
vt 0.799316 0.190918
vt 0.799316 0.184766
vt 0.846191 0.184766
vt 0.148926 0.402832
vt 0.102051 0.402832
vt 0.102051 0.355957
vt 0.102051 0.355957
vt 0.148926 0.355957
vt 0.148926 0.402832
vt 0.151855 0.402832
vt 0.151855 0.355957
vt 0.19873 0.355957
vt 0.19873 0.355957
vt 0.19873 0.402832
vt 0.151855 0.402832
vn 0 -1 0
vn 0 0 1
vn 0 1 0
vn 0 0 -1
vn 1 0 0
vn -1 0 0
f 97/265/43 98/266/43 102/267/43 101/268/43
f 98/269/44 99/270/44 103/271/44 102/272/44
f 99/273/45 100/274/45 104/275/45 103/276/45
f 100/277/46 97/278/46 101/279/46 104/280/46
f 106/281/47 105/282/47 108/283/47
f 108/284/47 107/285/47 106/286/47
f 112/287/48 109/288/48 110/289/48
f 110/290/48 111/291/48 112/292/48
o fuel_dispenser_sump__body__gasoline_studs
usemtl fuel_station_sump
v 0 0.2225 0.232108
v 0 0.235625 0.209375
v 0 0.2225 0.186642
v 0 0.19625 0.186642
v 0 0.183125 0.209375
v 0 0.19625 0.232108
v -0.02 0.2225 0.232108
v -0.02 0.235625 0.209375
v -0.02 0.2225 0.186642
v -0.02 0.19625 0.186642
v -0.02 0.183125 0.209375
v -0.02 0.19625 0.232108
v 0 0.2225 0.232108
v 0 0.235625 0.209375
v 0 0.2225 0.186642
v 0 0.19625 0.186642
v 0 0.183125 0.209375
v 0 0.19625 0.232108
v -0.02 0.2225 0.232108
v -0.02 0.235625 0.209375
v -0.02 0.2225 0.186642
v -0.02 0.19625 0.186642
v -0.02 0.183125 0.209375
v -0.02 0.19625 0.232108
v 0 0.80375 0.232108
v 0 0.816875 0.209375
v 0 0.80375 0.186642
v 0 0.7775 0.186642
v 0 0.764375 0.209375
v 0 0.7775 0.232108
v -0.02 0.80375 0.232108
v -0.02 0.816875 0.209375
v -0.02 0.80375 0.186642
v -0.02 0.7775 0.186642
v -0.02 0.764375 0.209375
v -0.02 0.7775 0.232108
v 0 0.80375 0.232108
v 0 0.816875 0.209375
v 0 0.80375 0.186642
v 0 0.7775 0.186642
v 0 0.764375 0.209375
v 0 0.7775 0.232108
v -0.02 0.80375 0.232108
v -0.02 0.816875 0.209375
v -0.02 0.80375 0.186642
v -0.02 0.7775 0.186642
v -0.02 0.764375 0.209375
v -0.02 0.7775 0.232108
v 0 0.2225 0.813358
v 0 0.235625 0.790625
v 0 0.2225 0.767892
v 0 0.19625 0.767892
v 0 0.183125 0.790625
v 0 0.19625 0.813358
v -0.02 0.2225 0.813358
v -0.02 0.235625 0.790625
v -0.02 0.2225 0.767892
v -0.02 0.19625 0.767892
v -0.02 0.183125 0.790625
v -0.02 0.19625 0.813358
v 0 0.2225 0.813358
v 0 0.235625 0.790625
v 0 0.2225 0.767892
v 0 0.19625 0.767892
v 0 0.183125 0.790625
v 0 0.19625 0.813358
v -0.02 0.2225 0.813358
v -0.02 0.235625 0.790625
v -0.02 0.2225 0.767892
v -0.02 0.19625 0.767892
v -0.02 0.183125 0.790625
v -0.02 0.19625 0.813358
v 0 0.80375 0.813358
v 0 0.816875 0.790625
v 0 0.80375 0.767892
v 0 0.7775 0.767892
v 0 0.764375 0.790625
v 0 0.7775 0.813358
v -0.02 0.80375 0.813358
v -0.02 0.816875 0.790625
v -0.02 0.80375 0.767892
v -0.02 0.7775 0.767892
v -0.02 0.764375 0.790625
v -0.02 0.7775 0.813358
v 0 0.80375 0.813358
v 0 0.816875 0.790625
v 0 0.80375 0.767892
v 0 0.7775 0.767892
v 0 0.764375 0.790625
v 0 0.7775 0.813358
v -0.02 0.80375 0.813358
v -0.02 0.816875 0.790625
v -0.02 0.80375 0.767892
v -0.02 0.7775 0.767892
v -0.02 0.764375 0.790625
v -0.02 0.7775 0.813358
vt 0.449238 0.094238
vt 0.446777 0.094238
vt 0.446777 0.092363
vt 0.449238 0.092363
vt 0.847676 0.094238
vt 0.845215 0.094238
vt 0.845215 0.092363
vt 0.847676 0.092363
vt 0.455098 0.094238
vt 0.452637 0.094238
vt 0.452637 0.092363
vt 0.455098 0.092363
vt 0.751465 0.092363
vt 0.753926 0.092363
vt 0.753926 0.094238
vt 0.751465 0.094238
vt 0.458496 0.092363
vt 0.460957 0.092363
vt 0.460957 0.094238
vt 0.458496 0.094238
vt 0.464355 0.092363
vt 0.466816 0.092363
vt 0.466816 0.094238
vt 0.464355 0.094238
vt 0.147988 0.152654
vt 0.146758 0.154785
vt 0.144297 0.154785
vt 0.146758 0.150523
vt 0.147988 0.152654
vt 0.144297 0.154785
vt 0.144297 0.150523
vt 0.146758 0.150523
vt 0.144297 0.154785
vt 0.144297 0.154785
vt 0.143066 0.152654
vt 0.144297 0.150523
vt 0.155547 0.154785
vt 0.153086 0.154785
vt 0.151855 0.152654
vt 0.155547 0.154785
vt 0.151855 0.152654
vt 0.153086 0.150523
vt 0.155547 0.154785
vt 0.153086 0.150523
vt 0.155547 0.150523
vt 0.155547 0.150523
vt 0.156777 0.152654
vt 0.155547 0.154785
vt 0.472676 0.094238
vt 0.470215 0.094238
vt 0.470215 0.092363
vt 0.472676 0.092363
vt 0.759785 0.094238
vt 0.757324 0.094238
vt 0.757324 0.092363
vt 0.759785 0.092363
vt 0.478535 0.094238
vt 0.476074 0.094238
vt 0.476074 0.092363
vt 0.478535 0.092363
vt 0.851074 0.092363
vt 0.853535 0.092363
vt 0.853535 0.094238
vt 0.851074 0.094238
vt 0.481934 0.092363
vt 0.484395 0.092363
vt 0.484395 0.094238
vt 0.481934 0.094238
vt 0.487793 0.092363
vt 0.490254 0.092363
vt 0.490254 0.094238
vt 0.487793 0.094238
vt 0.165566 0.152654
vt 0.164336 0.154785
vt 0.161875 0.154785
vt 0.164336 0.150523
vt 0.165566 0.152654
vt 0.161875 0.154785
vt 0.161875 0.150523
vt 0.164336 0.150523
vt 0.161875 0.154785
vt 0.161875 0.154785
vt 0.160645 0.152654
vt 0.161875 0.150523
vt 0.173125 0.154785
vt 0.170664 0.154785
vt 0.169434 0.152654
vt 0.173125 0.154785
vt 0.169434 0.152654
vt 0.170664 0.150523
vt 0.173125 0.154785
vt 0.170664 0.150523
vt 0.173125 0.150523
vt 0.173125 0.150523
vt 0.174355 0.152654
vt 0.173125 0.154785
vt 0.859395 0.094238
vt 0.856934 0.094238
vt 0.856934 0.092363
vt 0.859395 0.092363
vt 0.496113 0.094238
vt 0.493652 0.094238
vt 0.493652 0.092363
vt 0.496113 0.092363
vt 0.501973 0.094238
vt 0.499512 0.094238
vt 0.499512 0.092363
vt 0.501973 0.092363
vt 0.505371 0.092363
vt 0.507832 0.092363
vt 0.507832 0.094238
vt 0.505371 0.094238
vt 0.763184 0.092363
vt 0.765645 0.092363
vt 0.765645 0.094238
vt 0.763184 0.094238
vt 0.51123 0.092363
vt 0.513691 0.092363
vt 0.513691 0.094238
vt 0.51123 0.094238
vt 0.183145 0.152654
vt 0.181914 0.154785
vt 0.179453 0.154785
vt 0.181914 0.150523
vt 0.183145 0.152654
vt 0.179453 0.154785
vt 0.179453 0.150523
vt 0.181914 0.150523
vt 0.179453 0.154785
vt 0.179453 0.154785
vt 0.178223 0.152654
vt 0.179453 0.150523
vt 0.190703 0.154785
vt 0.188242 0.154785
vt 0.187012 0.152654
vt 0.190703 0.154785
vt 0.187012 0.152654
vt 0.188242 0.150523
vt 0.190703 0.154785
vt 0.188242 0.150523
vt 0.190703 0.150523
vt 0.190703 0.150523
vt 0.191934 0.152654
vt 0.190703 0.154785
vt 0.771504 0.094238
vt 0.769043 0.094238
vt 0.769043 0.092363
vt 0.771504 0.092363
vt 0.519551 0.094238
vt 0.51709 0.094238
vt 0.51709 0.092363
vt 0.519551 0.092363
vt 0.52541 0.094238
vt 0.522949 0.094238
vt 0.522949 0.092363
vt 0.52541 0.092363
vt 0.528809 0.092363
vt 0.53127 0.092363
vt 0.53127 0.094238
vt 0.528809 0.094238
vt 0.862793 0.092363
vt 0.865254 0.092363
vt 0.865254 0.094238
vt 0.862793 0.094238
vt 0.534668 0.092363
vt 0.537129 0.092363
vt 0.537129 0.094238
vt 0.534668 0.094238
vt 0.200723 0.152654
vt 0.199492 0.154785
vt 0.197031 0.154785
vt 0.199492 0.150523
vt 0.200723 0.152654
vt 0.197031 0.154785
vt 0.197031 0.150523
vt 0.199492 0.150523
vt 0.197031 0.154785
vt 0.197031 0.154785
vt 0.195801 0.152654
vt 0.197031 0.150523
vt 0.208281 0.154785
vt 0.20582 0.154785
vt 0.20459 0.152654
vt 0.208281 0.154785
vt 0.20459 0.152654
vt 0.20582 0.150523
vt 0.208281 0.154785
vt 0.20582 0.150523
vt 0.208281 0.150523
vt 0.208281 0.150523
vt 0.209512 0.152654
vt 0.208281 0.154785
vn 0 0.866025 0.5
vn 0 0.866025 -0.5
vn 0 0 -1
vn 0 -0.866025 -0.5
vn 0 -0.866025 0.5
vn 0 0 1
vn 1 0 0
vn -1 0 0
f 113/293/49 114/294/49 120/295/49 119/296/49
f 114/297/50 115/298/50 121/299/50 120/300/50
f 115/301/51 116/302/51 122/303/51 121/304/51
f 116/305/52 117/306/52 123/307/52 122/308/52
f 117/309/53 118/310/53 124/311/53 123/312/53
f 118/313/54 113/314/54 119/315/54 124/316/54
f 126/317/55 125/318/55 130/319/55
f 127/320/55 126/321/55 130/322/55
f 128/323/55 127/324/55 130/325/55
f 130/326/55 129/327/55 128/328/55
f 136/329/56 131/330/56 132/331/56
f 136/332/56 132/333/56 133/334/56
f 136/335/56 133/336/56 134/337/56
f 134/338/56 135/339/56 136/340/56
f 137/341/49 138/342/49 144/343/49 143/344/49
f 138/345/50 139/346/50 145/347/50 144/348/50
f 139/349/51 140/350/51 146/351/51 145/352/51
f 140/353/52 141/354/52 147/355/52 146/356/52
f 141/357/53 142/358/53 148/359/53 147/360/53
f 142/361/54 137/362/54 143/363/54 148/364/54
f 150/365/55 149/366/55 154/367/55
f 151/368/55 150/369/55 154/370/55
f 152/371/55 151/372/55 154/373/55
f 154/374/55 153/375/55 152/376/55
f 160/377/56 155/378/56 156/379/56
f 160/380/56 156/381/56 157/382/56
f 160/383/56 157/384/56 158/385/56
f 158/386/56 159/387/56 160/388/56
f 161/389/49 162/390/49 168/391/49 167/392/49
f 162/393/50 163/394/50 169/395/50 168/396/50
f 163/397/51 164/398/51 170/399/51 169/400/51
f 164/401/52 165/402/52 171/403/52 170/404/52
f 165/405/53 166/406/53 172/407/53 171/408/53
f 166/409/54 161/410/54 167/411/54 172/412/54
f 174/413/55 173/414/55 178/415/55
f 175/416/55 174/417/55 178/418/55
f 176/419/55 175/420/55 178/421/55
f 178/422/55 177/423/55 176/424/55
f 184/425/56 179/426/56 180/427/56
f 184/428/56 180/429/56 181/430/56
f 184/431/56 181/432/56 182/433/56
f 182/434/56 183/435/56 184/436/56
f 185/437/49 186/438/49 192/439/49 191/440/49
f 186/441/50 187/442/50 193/443/50 192/444/50
f 187/445/51 188/446/51 194/447/51 193/448/51
f 188/449/52 189/450/52 195/451/52 194/452/52
f 189/453/53 190/454/53 196/455/53 195/456/53
f 190/457/54 185/458/54 191/459/54 196/460/54
f 198/461/55 197/462/55 202/463/55
f 199/464/55 198/465/55 202/466/55
f 200/467/55 199/468/55 202/469/55
f 202/470/55 201/471/55 200/472/55
f 208/473/56 203/474/56 204/475/56
f 208/476/56 204/477/56 205/478/56
f 208/479/56 205/480/56 206/481/56
f 206/482/56 207/483/56 208/484/56
o fuel_dispenser_sump__body__gasoline_frame
usemtl fuel_station_sump
v 0.04375 0.10625 0.10625
v 0.04375 0.10625 0.89375
v 0.04375 0.89375 0.89375
v 0.04375 0.89375 0.10625
v 0.025 0.10625 0.10625
v 0.025 0.10625 0.89375
v 0.025 0.89375 0.89375
v 0.025 0.89375 0.10625
v 0.04375 0.85 0.15
v 0.04375 0.85 0.85
v 0.04375 0.15 0.85
v 0.04375 0.15 0.15
v 0.025 0.85 0.15
v 0.025 0.85 0.85
v 0.025 0.15 0.85
v 0.025 0.15 0.15
v 0.04375 0.10625 0.10625
v 0.04375 0.10625 0.89375
v 0.04375 0.89375 0.89375
v 0.04375 0.89375 0.10625
v 0.04375 0.85 0.15
v 0.04375 0.85 0.85
v 0.04375 0.15 0.85
v 0.04375 0.15 0.15
v 0.025 0.10625 0.10625
v 0.025 0.10625 0.89375
v 0.025 0.89375 0.89375
v 0.025 0.89375 0.10625
v 0.025 0.85 0.15
v 0.025 0.85 0.85
v 0.025 0.15 0.85
v 0.025 0.15 0.15
vt 0.722168 0.086621
vt 0.795996 0.086621
vt 0.795996 0.088379
vt 0.722168 0.088379
vt 0.799316 0.086621
vt 0.873145 0.086621
vt 0.873145 0.088379
vt 0.799316 0.088379
vt 0.950293 0.088379
vt 0.876465 0.088379
vt 0.876465 0.086621
vt 0.950293 0.086621
vt 0.07627 0.083496
vt 0.002441 0.083496
vt 0.002441 0.081738
vt 0.07627 0.081738
vt 0.07959 0.081738
vt 0.145215 0.081738
vt 0.145215 0.083496
vt 0.07959 0.083496
vt 0.214551 0.083496
vt 0.148926 0.083496
vt 0.148926 0.081738
vt 0.214551 0.081738
vt 0.283887 0.083496
vt 0.218262 0.083496
vt 0.218262 0.081738
vt 0.283887 0.081738
vt 0.287598 0.081738
vt 0.353223 0.081738
vt 0.353223 0.083496
vt 0.287598 0.083496
vt 0.333887 0.557715
vt 0.337988 0.553613
vt 0.337988 0.627441
vt 0.333887 0.62334
vt 0.333887 0.557715
vt 0.337988 0.627441
vt 0.333887 0.62334
vt 0.337988 0.627441
vt 0.26416 0.627441
vt 0.268262 0.62334
vt 0.333887 0.62334
vt 0.26416 0.627441
vt 0.268262 0.62334
vt 0.26416 0.627441
vt 0.26416 0.553613
vt 0.268262 0.557715
vt 0.268262 0.62334
vt 0.26416 0.553613
vt 0.333887 0.557715
vt 0.268262 0.557715
vt 0.26416 0.553613
vt 0.26416 0.553613
vt 0.337988 0.553613
vt 0.333887 0.557715
vt 0.415137 0.553613
vt 0.415137 0.627441
vt 0.411035 0.62334
vt 0.415137 0.553613
vt 0.411035 0.62334
vt 0.411035 0.557715
vt 0.341309 0.553613
vt 0.415137 0.553613
vt 0.411035 0.557715
vt 0.341309 0.553613
vt 0.411035 0.557715
vt 0.34541 0.557715
vt 0.341309 0.627441
vt 0.341309 0.553613
vt 0.34541 0.557715
vt 0.341309 0.627441
vt 0.34541 0.557715
vt 0.34541 0.62334
vt 0.341309 0.627441
vt 0.34541 0.62334
vt 0.411035 0.62334
vt 0.411035 0.62334
vt 0.415137 0.627441
vt 0.341309 0.627441
vn 0 -1 0
vn 0 0 1
vn 0 1 0
vn 0 0 -1
vn 1 0 0
vn -1 0 0
f 209/485/57 210/486/57 214/487/57 213/488/57
f 210/489/58 211/490/58 215/491/58 214/492/58
f 211/493/59 212/494/59 216/495/59 215/496/59
f 212/497/60 209/498/60 213/499/60 216/500/60
f 217/501/57 218/502/57 222/503/57 221/504/57
f 218/505/60 219/506/60 223/507/60 222/508/60
f 219/509/59 220/510/59 224/511/59 223/512/59
f 220/513/58 217/514/58 221/515/58 224/516/58
f 230/517/61 227/518/61 226/519/61
f 231/520/61 230/521/61 226/522/61
f 231/523/61 226/524/61 225/525/61
f 232/526/61 231/527/61 225/528/61
f 232/529/61 225/530/61 228/531/61
f 229/532/61 232/533/61 228/534/61
f 230/535/61 229/536/61 228/537/61
f 228/538/61 227/539/61 230/540/61
f 234/541/62 235/542/62 238/543/62
f 234/544/62 238/545/62 239/546/62
f 233/547/62 234/548/62 239/549/62
f 233/550/62 239/551/62 240/552/62
f 236/553/62 233/554/62 240/555/62
f 236/556/62 240/557/62 237/558/62
f 236/559/62 237/560/62 238/561/62
f 238/562/62 235/563/62 236/564/62
o fuel_dispenser_sump__body__diesel_plate
usemtl fuel_station_sump
v 1.9625 0.16125 0.83875
v 1.9625 0.16125 0.16125
v 1.9625 0.83875 0.16125
v 1.9625 0.83875 0.83875
v 1.9675 0.15625 0.84375
v 1.9675 0.15625 0.15625
v 1.9675 0.84375 0.15625
v 1.9675 0.84375 0.84375
v 1.995 0.15625 0.84375
v 1.995 0.15625 0.15625
v 1.995 0.84375 0.15625
v 1.995 0.84375 0.84375
v 2 0.16125 0.83875
v 2 0.16125 0.16125
v 2 0.83875 0.16125
v 2 0.83875 0.83875
v 1.9625 0.755 0.755
v 1.9625 0.755 0.245
v 1.9625 0.245 0.245
v 1.9625 0.245 0.755
v 1.9675 0.75 0.75
v 1.9675 0.75 0.25
v 1.9675 0.25 0.25
v 1.9675 0.25 0.75
v 1.995 0.75 0.75
v 1.995 0.75 0.25
v 1.995 0.25 0.25
v 1.995 0.25 0.75
v 2 0.755 0.755
v 2 0.755 0.245
v 2 0.245 0.245
v 2 0.245 0.755
v 1.9625 0.16125 0.83875
v 1.9625 0.16125 0.16125
v 1.9625 0.83875 0.16125
v 1.9625 0.83875 0.83875
v 1.9625 0.755 0.755
v 1.9625 0.755 0.245
v 1.9625 0.245 0.245
v 1.9625 0.245 0.755
v 2 0.16125 0.83875
v 2 0.16125 0.16125
v 2 0.83875 0.16125
v 2 0.83875 0.83875
v 2 0.755 0.755
v 2 0.755 0.245
v 2 0.245 0.245
v 2 0.245 0.755
vt 0.672871 0.056152
vt 0.609355 0.056152
vt 0.608887 0.055489
vt 0.67334 0.055489
vt 0.133809 0.052246
vt 0.070293 0.052246
vt 0.069824 0.051583
vt 0.134277 0.051583
vt 0.676738 0.055489
vt 0.740254 0.055489
vt 0.740723 0.056152
vt 0.67627 0.056152
vt 0.137676 0.051583
vt 0.201191 0.051583
vt 0.20166 0.052246
vt 0.137207 0.052246
vt 0.146973 0.112793
vt 0.08252 0.112793
vt 0.08252 0.110215
vt 0.146973 0.110215
vt 0.149902 0.110215
vt 0.214355 0.110215
vt 0.214355 0.112793
vt 0.149902 0.112793
vt 0.217285 0.110215
vt 0.281738 0.110215
vt 0.281738 0.112793
vt 0.217285 0.112793
vt 0.349121 0.112793
vt 0.284668 0.112793
vt 0.284668 0.110215
vt 0.349121 0.110215
vt 0.269043 0.036621
vt 0.20459 0.036621
vt 0.205059 0.035958
vt 0.268574 0.035958
vt 0.271973 0.035958
vt 0.336426 0.035958
vt 0.335957 0.036621
vt 0.272441 0.036621
vt 0.339355 0.035958
vt 0.403809 0.035958
vt 0.40334 0.036621
vt 0.339824 0.036621
vt 0.471191 0.036621
vt 0.406738 0.036621
vt 0.407207 0.035958
vt 0.470723 0.035958
vt 0.345176 0.060059
vt 0.297363 0.060059
vt 0.297832 0.059396
vt 0.344707 0.059396
vt 0.398926 0.059396
vt 0.446738 0.059396
vt 0.44627 0.060059
vt 0.399395 0.060059
vt 0.348145 0.059396
vt 0.395957 0.059396
vt 0.395488 0.060059
vt 0.348613 0.060059
vt 0.49752 0.060059
vt 0.449707 0.060059
vt 0.450176 0.059396
vt 0.497051 0.059396
vt 0.398926 0.112793
vt 0.352051 0.112793
vt 0.352051 0.110215
vt 0.398926 0.110215
vt 0.44873 0.112793
vt 0.401855 0.112793
vt 0.401855 0.110215
vt 0.44873 0.110215
vt 0.45166 0.110215
vt 0.498535 0.110215
vt 0.498535 0.112793
vt 0.45166 0.112793
vt 0.501465 0.110215
vt 0.54834 0.110215
vt 0.54834 0.112793
vt 0.501465 0.112793
vt 0.608379 0.04834
vt 0.561504 0.04834
vt 0.561035 0.047677
vt 0.608848 0.047677
vt 0.521465 0.036621
vt 0.47459 0.036621
vt 0.474121 0.035958
vt 0.521934 0.035958
vt 0.612285 0.047677
vt 0.65916 0.047677
vt 0.659629 0.04834
vt 0.611816 0.04834
vt 0.525371 0.035958
vt 0.572246 0.035958
vt 0.572715 0.036621
vt 0.524902 0.036621
vt 0.757363 0.531699
vt 0.749512 0.539551
vt 0.749512 0.476035
vt 0.757363 0.483887
vt 0.757363 0.531699
vt 0.749512 0.476035
vt 0.757363 0.483887
vt 0.749512 0.476035
vt 0.813027 0.476035
vt 0.805176 0.483887
vt 0.757363 0.483887
vt 0.813027 0.476035
vt 0.805176 0.483887
vt 0.813027 0.476035
vt 0.813027 0.539551
vt 0.805176 0.531699
vt 0.805176 0.483887
vt 0.813027 0.539551
vt 0.757363 0.531699
vt 0.805176 0.531699
vt 0.813027 0.539551
vt 0.813027 0.539551
vt 0.749512 0.539551
vt 0.757363 0.531699
vt 0.816895 0.539551
vt 0.816895 0.476035
vt 0.824746 0.483887
vt 0.816895 0.539551
vt 0.824746 0.483887
vt 0.824746 0.531699
vt 0.88041 0.539551
vt 0.816895 0.539551
vt 0.824746 0.531699
vt 0.88041 0.539551
vt 0.824746 0.531699
vt 0.872559 0.531699
vt 0.88041 0.476035
vt 0.88041 0.539551
vt 0.872559 0.531699
vt 0.88041 0.476035
vt 0.872559 0.531699
vt 0.872559 0.483887
vt 0.88041 0.476035
vt 0.872559 0.483887
vt 0.824746 0.483887
vt 0.824746 0.483887
vt 0.816895 0.476035
vt 0.88041 0.476035
vn -0.707107 -0.707107 0
vn -0.707107 0 -0.707107
vn -0.707107 0.707107 0
vn -0.707107 0 0.707107
vn 0 -1 0
vn 0 0 -1
vn 0 1 0
vn 0 0 1
vn 0.707107 -0.707107 0
vn 0.707107 0 -0.707107
vn 0.707107 0.707107 0
vn 0.707107 0 0.707107
vn -1 0 0
vn 1 0 0
f 241/565/63 242/566/63 246/567/63 245/568/63
f 242/569/64 243/570/64 247/571/64 246/572/64
f 243/573/65 244/574/65 248/575/65 247/576/65
f 244/577/66 241/578/66 245/579/66 248/580/66
f 245/581/67 246/582/67 250/583/67 249/584/67
f 246/585/68 247/586/68 251/587/68 250/588/68
f 247/589/69 248/590/69 252/591/69 251/592/69
f 248/593/70 245/594/70 249/595/70 252/596/70
f 249/597/71 250/598/71 254/599/71 253/600/71
f 250/601/72 251/602/72 255/603/72 254/604/72
f 251/605/73 252/606/73 256/607/73 255/608/73
f 252/609/74 249/610/74 253/611/74 256/612/74
f 257/613/63 258/614/63 262/615/63 261/616/63
f 258/617/66 259/618/66 263/619/66 262/620/66
f 259/621/65 260/622/65 264/623/65 263/624/65
f 260/625/64 257/626/64 261/627/64 264/628/64
f 261/629/67 262/630/67 266/631/67 265/632/67
f 262/633/70 263/634/70 267/635/70 266/636/70
f 263/637/69 264/638/69 268/639/69 267/640/69
f 264/641/68 261/642/68 265/643/68 268/644/68
f 265/645/71 266/646/71 270/647/71 269/648/71
f 266/649/74 267/650/74 271/651/74 270/652/74
f 267/653/73 268/654/73 272/655/73 271/656/73
f 268/657/72 265/658/72 269/659/72 272/660/72
f 278/661/75 275/662/75 274/663/75
f 279/664/75 278/665/75 274/666/75
f 279/667/75 274/668/75 273/669/75
f 280/670/75 279/671/75 273/672/75
f 280/673/75 273/674/75 276/675/75
f 277/676/75 280/677/75 276/678/75
f 278/679/75 277/680/75 276/681/75
f 276/682/75 275/683/75 278/684/75
f 282/685/76 283/686/76 286/687/76
f 282/688/76 286/689/76 287/690/76
f 281/691/76 282/692/76 287/693/76
f 281/694/76 287/695/76 288/696/76
f 284/697/76 281/698/76 288/699/76
f 284/700/76 288/701/76 285/702/76
f 284/703/76 285/704/76 286/705/76
f 286/706/76 283/707/76 284/708/76
o fuel_dispenser_sump__body__diesel_throat
usemtl fuel_station_sump
v 1.9 0.25 0.75
v 1.9 0.25 0.25
v 1.9 0.75 0.25
v 1.9 0.75 0.75
v 1.965625 0.25 0.75
v 1.965625 0.25 0.25
v 1.965625 0.75 0.25
v 1.965625 0.75 0.75
v 1.9 0.25 0.75
v 1.9 0.25 0.25
v 1.9 0.75 0.25
v 1.9 0.75 0.75
v 1.965625 0.25 0.75
v 1.965625 0.25 0.25
v 1.965625 0.75 0.25
v 1.965625 0.75 0.75
vt 0.861816 0.20166
vt 0.814941 0.20166
vt 0.814941 0.195508
vt 0.861816 0.195508
vt 0.864746 0.195508
vt 0.911621 0.195508
vt 0.911621 0.20166
vt 0.864746 0.20166
vt 0.914551 0.195508
vt 0.961426 0.195508
vt 0.961426 0.20166
vt 0.914551 0.20166
vt 0.049316 0.190918
vt 0.002441 0.190918
vt 0.002441 0.184766
vt 0.049316 0.184766
vt 0.20166 0.355957
vt 0.248535 0.355957
vt 0.248535 0.402832
vt 0.248535 0.402832
vt 0.20166 0.402832
vt 0.20166 0.355957
vt 0.29834 0.355957
vt 0.29834 0.402832
vt 0.251465 0.402832
vt 0.251465 0.402832
vt 0.251465 0.355957
vt 0.29834 0.355957
vn 0 -1 0
vn 0 0 -1
vn 0 1 0
vn 0 0 1
vn -1 0 0
vn 1 0 0
f 289/709/77 290/710/77 294/711/77 293/712/77
f 290/713/78 291/714/78 295/715/78 294/716/78
f 291/717/79 292/718/79 296/719/79 295/720/79
f 292/721/80 289/722/80 293/723/80 296/724/80
f 298/725/81 297/726/81 300/727/81
f 300/728/81 299/729/81 298/730/81
f 304/731/82 301/732/82 302/733/82
f 302/734/82 303/735/82 304/736/82
o fuel_dispenser_sump__body__diesel_studs
usemtl fuel_station_sump
v 2 0.2225 0.767892
v 2 0.235625 0.790625
v 2 0.2225 0.813358
v 2 0.19625 0.813358
v 2 0.183125 0.790625
v 2 0.19625 0.767892
v 2.02 0.2225 0.767892
v 2.02 0.235625 0.790625
v 2.02 0.2225 0.813358
v 2.02 0.19625 0.813358
v 2.02 0.183125 0.790625
v 2.02 0.19625 0.767892
v 2 0.2225 0.767892
v 2 0.235625 0.790625
v 2 0.2225 0.813358
v 2 0.19625 0.813358
v 2 0.183125 0.790625
v 2 0.19625 0.767892
v 2.02 0.2225 0.767892
v 2.02 0.235625 0.790625
v 2.02 0.2225 0.813358
v 2.02 0.19625 0.813358
v 2.02 0.183125 0.790625
v 2.02 0.19625 0.767892
v 2 0.80375 0.767892
v 2 0.816875 0.790625
v 2 0.80375 0.813358
v 2 0.7775 0.813358
v 2 0.764375 0.790625
v 2 0.7775 0.767892
v 2.02 0.80375 0.767892
v 2.02 0.816875 0.790625
v 2.02 0.80375 0.813358
v 2.02 0.7775 0.813358
v 2.02 0.764375 0.790625
v 2.02 0.7775 0.767892
v 2 0.80375 0.767892
v 2 0.816875 0.790625
v 2 0.80375 0.813358
v 2 0.7775 0.813358
v 2 0.764375 0.790625
v 2 0.7775 0.767892
v 2.02 0.80375 0.767892
v 2.02 0.816875 0.790625
v 2.02 0.80375 0.813358
v 2.02 0.7775 0.813358
v 2.02 0.764375 0.790625
v 2.02 0.7775 0.767892
v 2 0.2225 0.186642
v 2 0.235625 0.209375
v 2 0.2225 0.232108
v 2 0.19625 0.232108
v 2 0.183125 0.209375
v 2 0.19625 0.186642
v 2.02 0.2225 0.186642
v 2.02 0.235625 0.209375
v 2.02 0.2225 0.232108
v 2.02 0.19625 0.232108
v 2.02 0.183125 0.209375
v 2.02 0.19625 0.186642
v 2 0.2225 0.186642
v 2 0.235625 0.209375
v 2 0.2225 0.232108
v 2 0.19625 0.232108
v 2 0.183125 0.209375
v 2 0.19625 0.186642
v 2.02 0.2225 0.186642
v 2.02 0.235625 0.209375
v 2.02 0.2225 0.232108
v 2.02 0.19625 0.232108
v 2.02 0.183125 0.209375
v 2.02 0.19625 0.186642
v 2 0.80375 0.186642
v 2 0.816875 0.209375
v 2 0.80375 0.232108
v 2 0.7775 0.232108
v 2 0.764375 0.209375
v 2 0.7775 0.186642
v 2.02 0.80375 0.186642
v 2.02 0.816875 0.209375
v 2.02 0.80375 0.232108
v 2.02 0.7775 0.232108
v 2.02 0.764375 0.209375
v 2.02 0.7775 0.186642
v 2 0.80375 0.186642
v 2 0.816875 0.209375
v 2 0.80375 0.232108
v 2 0.7775 0.232108
v 2 0.764375 0.209375
v 2 0.7775 0.186642
v 2.02 0.80375 0.186642
v 2.02 0.816875 0.209375
v 2.02 0.80375 0.232108
v 2.02 0.7775 0.232108
v 2.02 0.764375 0.209375
v 2.02 0.7775 0.186642
vt 0.540527 0.092363
vt 0.542988 0.092363
vt 0.542988 0.094238
vt 0.540527 0.094238
vt 0.546387 0.092363
vt 0.548848 0.092363
vt 0.548848 0.094238
vt 0.546387 0.094238
vt 0.554707 0.094238
vt 0.552246 0.094238
vt 0.552246 0.092363
vt 0.554707 0.092363
vt 0.560566 0.094238
vt 0.558105 0.094238
vt 0.558105 0.092363
vt 0.560566 0.092363
vt 0.566426 0.094238
vt 0.563965 0.094238
vt 0.563965 0.092363
vt 0.566426 0.092363
vt 0.569824 0.092363
vt 0.572285 0.092363
vt 0.572285 0.094238
vt 0.569824 0.094238
vt 0.213379 0.152654
vt 0.214609 0.150523
vt 0.21707 0.150523
vt 0.214609 0.154785
vt 0.213379 0.152654
vt 0.21707 0.150523
vt 0.21707 0.154785
vt 0.214609 0.154785
vt 0.21707 0.150523
vt 0.21707 0.150523
vt 0.218301 0.152654
vt 0.21707 0.154785
vt 0.223398 0.150523
vt 0.225859 0.150523
vt 0.22709 0.152654
vt 0.223398 0.150523
vt 0.22709 0.152654
vt 0.225859 0.154785
vt 0.223398 0.150523
vt 0.225859 0.154785
vt 0.223398 0.154785
vt 0.223398 0.154785
vt 0.222168 0.152654
vt 0.223398 0.150523
vt 0.575684 0.092363
vt 0.578145 0.092363
vt 0.578145 0.094238
vt 0.575684 0.094238
vt 0.581543 0.092363
vt 0.584004 0.092363
vt 0.584004 0.094238
vt 0.581543 0.094238
vt 0.589863 0.094238
vt 0.587402 0.094238
vt 0.587402 0.092363
vt 0.589863 0.092363
vt 0.595723 0.094238
vt 0.593262 0.094238
vt 0.593262 0.092363
vt 0.595723 0.092363
vt 0.601582 0.094238
vt 0.599121 0.094238
vt 0.599121 0.092363
vt 0.601582 0.092363
vt 0.60498 0.092363
vt 0.607441 0.092363
vt 0.607441 0.094238
vt 0.60498 0.094238
vt 0.230957 0.152654
vt 0.232187 0.150523
vt 0.234648 0.150523
vt 0.232187 0.154785
vt 0.230957 0.152654
vt 0.234648 0.150523
vt 0.234648 0.154785
vt 0.232187 0.154785
vt 0.234648 0.150523
vt 0.234648 0.150523
vt 0.235879 0.152654
vt 0.234648 0.154785
vt 0.240977 0.150523
vt 0.243438 0.150523
vt 0.244668 0.152654
vt 0.240977 0.150523
vt 0.244668 0.152654
vt 0.243438 0.154785
vt 0.240977 0.150523
vt 0.243438 0.154785
vt 0.240977 0.154785
vt 0.240977 0.154785
vt 0.239746 0.152654
vt 0.240977 0.150523
vt 0.61084 0.092363
vt 0.613301 0.092363
vt 0.613301 0.094238
vt 0.61084 0.094238
vt 0.616699 0.092363
vt 0.61916 0.092363
vt 0.61916 0.094238
vt 0.616699 0.094238
vt 0.62502 0.094238
vt 0.622559 0.094238
vt 0.622559 0.092363
vt 0.62502 0.092363
vt 0.630879 0.094238
vt 0.628418 0.094238
vt 0.628418 0.092363
vt 0.630879 0.092363
vt 0.636738 0.094238
vt 0.634277 0.094238
vt 0.634277 0.092363
vt 0.636738 0.092363
vt 0.640137 0.092363
vt 0.642598 0.092363
vt 0.642598 0.094238
vt 0.640137 0.094238
vt 0.248535 0.152654
vt 0.249766 0.150523
vt 0.252227 0.150523
vt 0.249766 0.154785
vt 0.248535 0.152654
vt 0.252227 0.150523
vt 0.252227 0.154785
vt 0.249766 0.154785
vt 0.252227 0.150523
vt 0.252227 0.150523
vt 0.253457 0.152654
vt 0.252227 0.154785
vt 0.258555 0.150523
vt 0.261016 0.150523
vt 0.262246 0.152654
vt 0.258555 0.150523
vt 0.262246 0.152654
vt 0.261016 0.154785
vt 0.258555 0.150523
vt 0.261016 0.154785
vt 0.258555 0.154785
vt 0.258555 0.154785
vt 0.257324 0.152654
vt 0.258555 0.150523
vt 0.645996 0.092363
vt 0.648457 0.092363
vt 0.648457 0.094238
vt 0.645996 0.094238
vt 0.651855 0.092363
vt 0.654316 0.092363
vt 0.654316 0.094238
vt 0.651855 0.094238
vt 0.660176 0.094238
vt 0.657715 0.094238
vt 0.657715 0.092363
vt 0.660176 0.092363
vt 0.666035 0.094238
vt 0.663574 0.094238
vt 0.663574 0.092363
vt 0.666035 0.092363
vt 0.671895 0.094238
vt 0.669434 0.094238
vt 0.669434 0.092363
vt 0.671895 0.092363
vt 0.675293 0.092363
vt 0.677754 0.092363
vt 0.677754 0.094238
vt 0.675293 0.094238
vt 0.266113 0.152654
vt 0.267344 0.150523
vt 0.269805 0.150523
vt 0.267344 0.154785
vt 0.266113 0.152654
vt 0.269805 0.150523
vt 0.269805 0.154785
vt 0.267344 0.154785
vt 0.269805 0.150523
vt 0.269805 0.150523
vt 0.271035 0.152654
vt 0.269805 0.154785
vt 0.276133 0.150523
vt 0.278594 0.150523
vt 0.279824 0.152654
vt 0.276133 0.150523
vt 0.279824 0.152654
vt 0.278594 0.154785
vt 0.276133 0.150523
vt 0.278594 0.154785
vt 0.276133 0.154785
vt 0.276133 0.154785
vt 0.274902 0.152654
vt 0.276133 0.150523
vn 0 0.866025 -0.5
vn 0 0.866025 0.5
vn 0 0 1
vn 0 -0.866025 0.5
vn 0 -0.866025 -0.5
vn 0 0 -1
vn -1 0 0
vn 1 0 0
f 305/737/83 306/738/83 312/739/83 311/740/83
f 306/741/84 307/742/84 313/743/84 312/744/84
f 307/745/85 308/746/85 314/747/85 313/748/85
f 308/749/86 309/750/86 315/751/86 314/752/86
f 309/753/87 310/754/87 316/755/87 315/756/87
f 310/757/88 305/758/88 311/759/88 316/760/88
f 318/761/89 317/762/89 322/763/89
f 319/764/89 318/765/89 322/766/89
f 320/767/89 319/768/89 322/769/89
f 322/770/89 321/771/89 320/772/89
f 328/773/90 323/774/90 324/775/90
f 328/776/90 324/777/90 325/778/90
f 328/779/90 325/780/90 326/781/90
f 326/782/90 327/783/90 328/784/90
f 329/785/83 330/786/83 336/787/83 335/788/83
f 330/789/84 331/790/84 337/791/84 336/792/84
f 331/793/85 332/794/85 338/795/85 337/796/85
f 332/797/86 333/798/86 339/799/86 338/800/86
f 333/801/87 334/802/87 340/803/87 339/804/87
f 334/805/88 329/806/88 335/807/88 340/808/88
f 342/809/89 341/810/89 346/811/89
f 343/812/89 342/813/89 346/814/89
f 344/815/89 343/816/89 346/817/89
f 346/818/89 345/819/89 344/820/89
f 352/821/90 347/822/90 348/823/90
f 352/824/90 348/825/90 349/826/90
f 352/827/90 349/828/90 350/829/90
f 350/830/90 351/831/90 352/832/90
f 353/833/83 354/834/83 360/835/83 359/836/83
f 354/837/84 355/838/84 361/839/84 360/840/84
f 355/841/85 356/842/85 362/843/85 361/844/85
f 356/845/86 357/846/86 363/847/86 362/848/86
f 357/849/87 358/850/87 364/851/87 363/852/87
f 358/853/88 353/854/88 359/855/88 364/856/88
f 366/857/89 365/858/89 370/859/89
f 367/860/89 366/861/89 370/862/89
f 368/863/89 367/864/89 370/865/89
f 370/866/89 369/867/89 368/868/89
f 376/869/90 371/870/90 372/871/90
f 376/872/90 372/873/90 373/874/90
f 376/875/90 373/876/90 374/877/90
f 374/878/90 375/879/90 376/880/90
f 377/881/83 378/882/83 384/883/83 383/884/83
f 378/885/84 379/886/84 385/887/84 384/888/84
f 379/889/85 380/890/85 386/891/85 385/892/85
f 380/893/86 381/894/86 387/895/86 386/896/86
f 381/897/87 382/898/87 388/899/87 387/900/87
f 382/901/88 377/902/88 383/903/88 388/904/88
f 390/905/89 389/906/89 394/907/89
f 391/908/89 390/909/89 394/910/89
f 392/911/89 391/912/89 394/913/89
f 394/914/89 393/915/89 392/916/89
f 400/917/90 395/918/90 396/919/90
f 400/920/90 396/921/90 397/922/90
f 400/923/90 397/924/90 398/925/90
f 398/926/90 399/927/90 400/928/90
o fuel_dispenser_sump__body__diesel_frame
usemtl fuel_station_sump
v 1.95625 0.10625 0.89375
v 1.95625 0.10625 0.10625
v 1.95625 0.89375 0.10625
v 1.95625 0.89375 0.89375
v 1.975 0.10625 0.89375
v 1.975 0.10625 0.10625
v 1.975 0.89375 0.10625
v 1.975 0.89375 0.89375
v 1.95625 0.85 0.85
v 1.95625 0.85 0.15
v 1.95625 0.15 0.15
v 1.95625 0.15 0.85
v 1.975 0.85 0.85
v 1.975 0.85 0.15
v 1.975 0.15 0.15
v 1.975 0.15 0.85
v 1.95625 0.10625 0.89375
v 1.95625 0.10625 0.10625
v 1.95625 0.89375 0.10625
v 1.95625 0.89375 0.89375
v 1.95625 0.85 0.85
v 1.95625 0.85 0.15
v 1.95625 0.15 0.15
v 1.95625 0.15 0.85
v 1.975 0.10625 0.89375
v 1.975 0.10625 0.10625
v 1.975 0.89375 0.10625
v 1.975 0.89375 0.89375
v 1.975 0.85 0.85
v 1.975 0.85 0.15
v 1.975 0.15 0.15
v 1.975 0.15 0.85
vt 0.94248 0.094238
vt 0.868652 0.094238
vt 0.868652 0.09248
vt 0.94248 0.09248
vt 0.002441 0.086621
vt 0.07627 0.086621
vt 0.07627 0.088379
vt 0.002441 0.088379
vt 0.07959 0.086621
vt 0.153418 0.086621
vt 0.153418 0.088379
vt 0.07959 0.088379
vt 0.230566 0.088379
vt 0.156738 0.088379
vt 0.156738 0.086621
vt 0.230566 0.086621
vt 0.299512 0.088379
vt 0.233887 0.088379
vt 0.233887 0.086621
vt 0.299512 0.086621
vt 0.368848 0.088379
vt 0.303223 0.088379
vt 0.303223 0.086621
vt 0.368848 0.086621
vt 0.372559 0.086621
vt 0.438184 0.086621
vt 0.438184 0.088379
vt 0.372559 0.088379
vt 0.441895 0.086621
vt 0.50752 0.086621
vt 0.50752 0.088379
vt 0.441895 0.088379
vt 0.422559 0.62334
vt 0.418457 0.627441
vt 0.418457 0.553613
vt 0.422559 0.557715
vt 0.422559 0.62334
vt 0.418457 0.553613
vt 0.422559 0.557715
vt 0.418457 0.553613
vt 0.492285 0.553613
vt 0.488184 0.557715
vt 0.422559 0.557715
vt 0.492285 0.553613
vt 0.488184 0.557715
vt 0.492285 0.553613
vt 0.492285 0.627441
vt 0.488184 0.62334
vt 0.488184 0.557715
vt 0.492285 0.627441
vt 0.422559 0.62334
vt 0.488184 0.62334
vt 0.492285 0.627441
vt 0.492285 0.627441
vt 0.418457 0.627441
vt 0.422559 0.62334
vt 0.495605 0.627441
vt 0.495605 0.553613
vt 0.499707 0.557715
vt 0.495605 0.627441
vt 0.499707 0.557715
vt 0.499707 0.62334
vt 0.569434 0.627441
vt 0.495605 0.627441
vt 0.499707 0.62334
vt 0.569434 0.627441
vt 0.499707 0.62334
vt 0.565332 0.62334
vt 0.569434 0.553613
vt 0.569434 0.627441
vt 0.565332 0.62334
vt 0.569434 0.553613
vt 0.565332 0.62334
vt 0.565332 0.557715
vt 0.569434 0.553613
vt 0.565332 0.557715
vt 0.499707 0.557715
vt 0.499707 0.557715
vt 0.495605 0.553613
vt 0.569434 0.553613
vn 0 -1 0
vn 0 0 -1
vn 0 1 0
vn 0 0 1
vn -1 0 0
vn 1 0 0
f 401/929/91 402/930/91 406/931/91 405/932/91
f 402/933/92 403/934/92 407/935/92 406/936/92
f 403/937/93 404/938/93 408/939/93 407/940/93
f 404/941/94 401/942/94 405/943/94 408/944/94
f 409/945/91 410/946/91 414/947/91 413/948/91
f 410/949/94 411/950/94 415/951/94 414/952/94
f 411/953/93 412/954/93 416/955/93 415/956/93
f 412/957/92 409/958/92 413/959/92 416/960/92
f 422/961/95 419/962/95 418/963/95
f 423/964/95 422/965/95 418/966/95
f 423/967/95 418/968/95 417/969/95
f 424/970/95 423/971/95 417/972/95
f 424/973/95 417/974/95 420/975/95
f 421/976/95 424/977/95 420/978/95
f 422/979/95 421/980/95 420/981/95
f 420/982/95 419/983/95 422/984/95
f 426/985/96 427/986/96 430/987/96
f 426/988/96 430/989/96 431/990/96
f 425/991/96 426/992/96 431/993/96
f 425/994/96 431/995/96 432/996/96
f 428/997/96 425/998/96 432/999/96
f 428/1000/96 432/1001/96 429/1002/96
f 428/1003/96 429/1004/96 430/1005/96
f 430/1006/96 427/1007/96 428/1008/96
o fuel_dispenser_sump__body__pport_plate
usemtl fuel_station_sump
v 0.32 0.32 0.96125
v 0.68 0.32 0.96125
v 0.68 0.68 0.96125
v 0.32 0.68 0.96125
v 0.3125 0.3125 0.96875
v 0.6875 0.3125 0.96875
v 0.6875 0.6875 0.96875
v 0.3125 0.6875 0.96875
v 0.3125 0.3125 0.9925
v 0.6875 0.3125 0.9925
v 0.6875 0.6875 0.9925
v 0.3125 0.6875 0.9925
v 0.32 0.32 1
v 0.68 0.32 1
v 0.68 0.68 1
v 0.32 0.68 1
v 0.627033 0.474732 0.96125
v 0.607694 0.428041 0.96125
v 0.571959 0.392306 0.96125
v 0.525268 0.372967 0.96125
v 0.474732 0.372967 0.96125
v 0.428041 0.392306 0.96125
v 0.392306 0.428041 0.96125
v 0.372967 0.474732 0.96125
v 0.372967 0.525268 0.96125
v 0.392306 0.571959 0.96125
v 0.428041 0.607694 0.96125
v 0.474732 0.627033 0.96125
v 0.525268 0.627033 0.96125
v 0.571959 0.607694 0.96125
v 0.607694 0.571959 0.96125
v 0.627033 0.525268 0.96125
v 0.619533 0.476223 0.96875
v 0.601335 0.43229 0.96875
v 0.56771 0.398665 0.96875
v 0.523777 0.380467 0.96875
v 0.476223 0.380467 0.96875
v 0.43229 0.398665 0.96875
v 0.398665 0.43229 0.96875
v 0.380467 0.476223 0.96875
v 0.380467 0.523777 0.96875
v 0.398665 0.56771 0.96875
v 0.43229 0.601335 0.96875
v 0.476223 0.619533 0.96875
v 0.523777 0.619533 0.96875
v 0.56771 0.601335 0.96875
v 0.601335 0.56771 0.96875
v 0.619533 0.523777 0.96875
v 0.619533 0.476223 0.9925
v 0.601335 0.43229 0.9925
v 0.56771 0.398665 0.9925
v 0.523777 0.380467 0.9925
v 0.476223 0.380467 0.9925
v 0.43229 0.398665 0.9925
v 0.398665 0.43229 0.9925
v 0.380467 0.476223 0.9925
v 0.380467 0.523777 0.9925
v 0.398665 0.56771 0.9925
v 0.43229 0.601335 0.9925
v 0.476223 0.619533 0.9925
v 0.523777 0.619533 0.9925
v 0.56771 0.601335 0.9925
v 0.601335 0.56771 0.9925
v 0.619533 0.523777 0.9925
v 0.627033 0.474732 1
v 0.607694 0.428041 1
v 0.571959 0.392306 1
v 0.525268 0.372967 1
v 0.474732 0.372967 1
v 0.428041 0.392306 1
v 0.392306 0.428041 1
v 0.372967 0.474732 1
v 0.372967 0.525268 1
v 0.392306 0.571959 1
v 0.428041 0.607694 1
v 0.474732 0.627033 1
v 0.525268 0.627033 1
v 0.571959 0.607694 1
v 0.607694 0.571959 1
v 0.627033 0.525268 1
v 0.32 0.32 0.96125
v 0.68 0.32 0.96125
v 0.68 0.68 0.96125
v 0.32 0.68 0.96125
v 0.627033 0.474732 0.96125
v 0.607694 0.428041 0.96125
v 0.571959 0.392306 0.96125
v 0.525268 0.372967 0.96125
v 0.474732 0.372967 0.96125
v 0.428041 0.392306 0.96125
v 0.392306 0.428041 0.96125
v 0.372967 0.474732 0.96125
v 0.372967 0.525268 0.96125
v 0.392306 0.571959 0.96125
v 0.428041 0.607694 0.96125
v 0.474732 0.627033 0.96125
v 0.525268 0.627033 0.96125
v 0.571959 0.607694 0.96125
v 0.607694 0.571959 0.96125
v 0.627033 0.525268 0.96125
v 0.32 0.32 1
v 0.68 0.32 1
v 0.68 0.68 1
v 0.32 0.68 1
v 0.627033 0.474732 1
v 0.607694 0.428041 1
v 0.571959 0.392306 1
v 0.525268 0.372967 1
v 0.474732 0.372967 1
v 0.428041 0.392306 1
v 0.392306 0.428041 1
v 0.372967 0.474732 1
v 0.372967 0.525268 1
v 0.392306 0.571959 1
v 0.428041 0.607694 1
v 0.474732 0.627033 1
v 0.525268 0.627033 1
v 0.571959 0.607694 1
v 0.607694 0.571959 1
v 0.627033 0.525268 1
vt 0.29416 0.067853
vt 0.32791 0.067853
vt 0.328613 0.068848
vt 0.293457 0.068848
vt 0.562715 0.072736
vt 0.596465 0.072736
vt 0.597168 0.07373
vt 0.562012 0.07373
vt 0.332246 0.067853
vt 0.365996 0.067853
vt 0.366699 0.068848
vt 0.331543 0.068848
vt 0.600801 0.072736
vt 0.634551 0.072736
vt 0.635254 0.07373
vt 0.600098 0.07373
vt 0.850098 0.097871
vt 0.885254 0.097871
vt 0.885254 0.100098
vt 0.850098 0.100098
vt 0.888184 0.097871
vt 0.92334 0.097871
vt 0.92334 0.100098
vt 0.888184 0.100098
vt 0.92627 0.097871
vt 0.961426 0.097871
vt 0.961426 0.100098
vt 0.92627 0.100098
vt 0.002441 0.092012
vt 0.037598 0.092012
vt 0.037598 0.094238
vt 0.002441 0.094238
vt 0.002441 0.067853
vt 0.037598 0.067853
vt 0.036895 0.068848
vt 0.003145 0.068848
vt 0.040527 0.067853
vt 0.075684 0.067853
vt 0.07498 0.068848
vt 0.04123 0.068848
vt 0.078613 0.067853
vt 0.11377 0.067853
vt 0.113066 0.068848
vt 0.079316 0.068848
vt 0.116699 0.067853
vt 0.151855 0.067853
vt 0.151152 0.068848
vt 0.117402 0.068848
vt 0.353027 0.072736
vt 0.357765 0.072736
vt 0.357625 0.07373
vt 0.353167 0.07373
vt 0.209473 0.067853
vt 0.21421 0.067853
vt 0.214071 0.068848
vt 0.209613 0.068848
vt 0.700684 0.072736
vt 0.705421 0.072736
vt 0.705282 0.07373
vt 0.700823 0.07373
vt 0.162598 0.067853
vt 0.167335 0.067853
vt 0.167196 0.068848
vt 0.162738 0.068848
vt 0.431152 0.072736
vt 0.43589 0.072736
vt 0.43575 0.07373
vt 0.431292 0.07373
vt 0.321777 0.072736
vt 0.326515 0.072736
vt 0.326375 0.07373
vt 0.321917 0.07373
vt 0.432129 0.067853
vt 0.436867 0.067853
vt 0.436727 0.068848
vt 0.432269 0.068848
vt 0.393066 0.067853
vt 0.397804 0.067853
vt 0.397664 0.068848
vt 0.393206 0.068848
vt 0.438965 0.072736
vt 0.443703 0.072736
vt 0.443563 0.07373
vt 0.439105 0.07373
vt 0.638184 0.072736
vt 0.642921 0.072736
vt 0.642782 0.07373
vt 0.638323 0.07373
vt 0.20166 0.067853
vt 0.206398 0.067853
vt 0.206258 0.068848
vt 0.2018 0.068848
vt 0.186035 0.067853
vt 0.190773 0.067853
vt 0.190633 0.068848
vt 0.186175 0.068848
vt 0.337402 0.072736
vt 0.34214 0.072736
vt 0.342 0.07373
vt 0.337542 0.07373
vt 0.470215 0.072736
vt 0.474953 0.072736
vt 0.474813 0.07373
vt 0.470355 0.07373
vt 0.193848 0.067853
vt 0.198585 0.067853
vt 0.198446 0.068848
vt 0.193988 0.068848
vt 0.154785 0.067853
vt 0.159523 0.067853
vt 0.159383 0.068848
vt 0.154925 0.068848
vt 0.157715 0.092012
vt 0.162173 0.092012
vt 0.162173 0.094238
vt 0.157715 0.094238
vt 0.149902 0.092012
vt 0.15436 0.092012
vt 0.15436 0.094238
vt 0.149902 0.094238
vt 0.040527 0.092012
vt 0.044985 0.092012
vt 0.044985 0.094238
vt 0.040527 0.094238
vt 0.04834 0.092012
vt 0.052798 0.092012
vt 0.052798 0.094238
vt 0.04834 0.094238
vt 0.134277 0.092012
vt 0.138735 0.092012
vt 0.138735 0.094238
vt 0.134277 0.094238
vt 0.071777 0.092012
vt 0.076235 0.092012
vt 0.076235 0.094238
vt 0.071777 0.094238
vt 0.14209 0.092012
vt 0.146548 0.092012
vt 0.146548 0.094238
vt 0.14209 0.094238
vt 0.056152 0.092012
vt 0.06061 0.092012
vt 0.06061 0.094238
vt 0.056152 0.094238
vt 0.126465 0.092012
vt 0.130923 0.092012
vt 0.130923 0.094238
vt 0.126465 0.094238
vt 0.07959 0.092012
vt 0.084048 0.092012
vt 0.084048 0.094238
vt 0.07959 0.094238
vt 0.118652 0.092012
vt 0.12311 0.092012
vt 0.12311 0.094238
vt 0.118652 0.094238
vt 0.087402 0.092012
vt 0.09186 0.092012
vt 0.09186 0.094238
vt 0.087402 0.094238
vt 0.095215 0.092012
vt 0.099673 0.092012
vt 0.099673 0.094238
vt 0.095215 0.094238
vt 0.11084 0.092012
vt 0.115298 0.092012
vt 0.115298 0.094238
vt 0.11084 0.094238
vt 0.103027 0.092012
vt 0.107485 0.092012
vt 0.107485 0.094238
vt 0.103027 0.094238
vt 0.063965 0.092012
vt 0.068423 0.092012
vt 0.068423 0.094238
vt 0.063965 0.094238
vt 0.45473 0.072736
vt 0.459188 0.072736
vt 0.459328 0.07373
vt 0.45459 0.07373
vt 0.778948 0.072736
vt 0.783407 0.072736
vt 0.783546 0.07373
vt 0.778809 0.07373
vt 0.708636 0.072736
vt 0.713094 0.072736
vt 0.713234 0.07373
vt 0.708496 0.07373
vt 0.661761 0.072736
vt 0.666219 0.072736
vt 0.666359 0.07373
vt 0.661621 0.07373
vt 0.802386 0.072736
vt 0.806844 0.072736
vt 0.806984 0.07373
vt 0.802246 0.07373
vt 0.716448 0.072736
vt 0.720907 0.072736
vt 0.721046 0.07373
vt 0.716309 0.07373
vt 0.818011 0.072736
vt 0.822469 0.072736
vt 0.822609 0.07373
vt 0.817871 0.07373
vt 0.385394 0.067853
vt 0.389852 0.067853
vt 0.389992 0.068848
vt 0.385254 0.068848
vt 0.786761 0.072736
vt 0.791219 0.072736
vt 0.791359 0.07373
vt 0.786621 0.07373
vt 0.400042 0.072736
vt 0.4045 0.072736
vt 0.40464 0.07373
vt 0.399902 0.07373
vt 0.424456 0.067853
vt 0.428914 0.067853
vt 0.429054 0.068848
vt 0.424316 0.068848
vt 0.408831 0.067853
vt 0.413289 0.067853
vt 0.413429 0.068848
vt 0.408691 0.068848
vt 0.747698 0.072736
vt 0.752157 0.072736
vt 0.752296 0.07373
vt 0.747559 0.07373
vt 0.732073 0.072736
vt 0.736532 0.072736
vt 0.736671 0.07373
vt 0.731934 0.07373
vt 0.42348 0.072736
vt 0.427938 0.072736
vt 0.428078 0.07373
vt 0.42334 0.07373
vt 0.669573 0.072736
vt 0.674032 0.072736
vt 0.674171 0.07373
vt 0.669434 0.07373
vt 0.385617 0.396053
vt 0.389994 0.397866
vt 0.375488 0.402832
vt 0.382267 0.392703
vt 0.385617 0.396053
vt 0.375488 0.402832
vt 0.380454 0.388326
vt 0.382267 0.392703
vt 0.375488 0.402832
vt 0.380454 0.388326
vt 0.375488 0.402832
vt 0.375488 0.369082
vt 0.380454 0.383588
vt 0.380454 0.388326
vt 0.375488 0.369082
vt 0.382267 0.379211
vt 0.380454 0.383588
vt 0.375488 0.369082
vt 0.385617 0.375861
vt 0.382267 0.379211
vt 0.375488 0.369082
vt 0.389994 0.374048
vt 0.385617 0.375861
vt 0.375488 0.369082
vt 0.389994 0.374048
vt 0.375488 0.369082
vt 0.409238 0.369082
vt 0.394732 0.374048
vt 0.389994 0.374048
vt 0.409238 0.369082
vt 0.399109 0.375861
vt 0.394732 0.374048
vt 0.409238 0.369082
vt 0.40246 0.379211
vt 0.399109 0.375861
vt 0.409238 0.369082
vt 0.404273 0.383588
vt 0.40246 0.379211
vt 0.409238 0.369082
vt 0.404273 0.388326
vt 0.404273 0.383588
vt 0.409238 0.369082
vt 0.375488 0.402832
vt 0.389994 0.397866
vt 0.394732 0.397866
vt 0.409238 0.402832
vt 0.375488 0.402832
vt 0.394732 0.397866
vt 0.409238 0.402832
vt 0.394732 0.397866
vt 0.399109 0.396053
vt 0.409238 0.402832
vt 0.399109 0.396053
vt 0.40246 0.392703
vt 0.409238 0.402832
vt 0.40246 0.392703
vt 0.404273 0.388326
vt 0.409238 0.369082
vt 0.409238 0.402832
vt 0.404273 0.388326
vt 0.412598 0.369082
vt 0.427104 0.374048
vt 0.422727 0.375861
vt 0.412598 0.369082
vt 0.422727 0.375861
vt 0.419376 0.379211
vt 0.412598 0.369082
vt 0.419376 0.379211
vt 0.417563 0.383588
vt 0.412598 0.402832
vt 0.412598 0.369082
vt 0.417563 0.383588
vt 0.412598 0.402832
vt 0.417563 0.383588
vt 0.417563 0.388326
vt 0.412598 0.402832
vt 0.417563 0.388326
vt 0.419376 0.392703
vt 0.412598 0.402832
vt 0.419376 0.392703
vt 0.422727 0.396053
vt 0.412598 0.402832
vt 0.422727 0.396053
vt 0.427104 0.397866
vt 0.446348 0.402832
vt 0.412598 0.402832
vt 0.427104 0.397866
vt 0.446348 0.402832
vt 0.427104 0.397866
vt 0.431842 0.397866
vt 0.446348 0.402832
vt 0.431842 0.397866
vt 0.436219 0.396053
vt 0.446348 0.402832
vt 0.436219 0.396053
vt 0.439569 0.392703
vt 0.446348 0.402832
vt 0.439569 0.392703
vt 0.441382 0.388326
vt 0.446348 0.402832
vt 0.441382 0.388326
vt 0.441382 0.383588
vt 0.431842 0.374048
vt 0.427104 0.374048
vt 0.412598 0.369082
vt 0.431842 0.374048
vt 0.412598 0.369082
vt 0.446348 0.369082
vt 0.436219 0.375861
vt 0.431842 0.374048
vt 0.446348 0.369082
vt 0.439569 0.379211
vt 0.436219 0.375861
vt 0.446348 0.369082
vt 0.441382 0.383588
vt 0.439569 0.379211
vt 0.446348 0.369082
vt 0.441382 0.383588
vt 0.446348 0.369082
vt 0.446348 0.402832
vn 0 -0.707107 -0.707107
vn 0.707107 0 -0.707107
vn 0 0.707107 -0.707107
vn -0.707107 0 -0.707107
vn 0 -1 0
vn 1 0 0
vn 0 1 0
vn -1 0 0
vn 0 -0.707107 0.707107
vn 0.707107 0 0.707107
vn 0 0.707107 0.707107
vn -0.707107 0 0.707107
vn -0.68676 0.136605 -0.713933
vn -0.582207 0.389018 -0.713933
vn -0.389018 0.582207 -0.713933
vn -0.136605 0.68676 -0.713933
vn 0.136605 0.68676 -0.713933
vn 0.389018 0.582207 -0.713933
vn 0.582207 0.389018 -0.713933
vn 0.68676 0.136605 -0.713933
vn 0.68676 -0.136605 -0.713933
vn 0.582207 -0.389018 -0.713933
vn 0.389018 -0.582207 -0.713933
vn 0.136605 -0.68676 -0.713933
vn -0.136605 -0.68676 -0.713933
vn -0.389018 -0.582207 -0.713933
vn -0.582207 -0.389018 -0.713933
vn -0.68676 -0.136605 -0.713933
vn -0.980785 0.19509 0
vn -0.83147 0.55557 0
vn -0.55557 0.83147 0
vn -0.19509 0.980785 0
vn 0.19509 0.980785 0
vn 0.55557 0.83147 0
vn 0.83147 0.55557 0
vn 0.980785 0.19509 0
vn 0.980785 -0.19509 0
vn 0.83147 -0.55557 0
vn 0.55557 -0.83147 0
vn 0.19509 -0.980785 0
vn -0.19509 -0.980785 0
vn -0.55557 -0.83147 0
vn -0.83147 -0.55557 0
vn -0.980785 -0.19509 0
vn -0.68676 0.136605 0.713933
vn -0.582207 0.389018 0.713933
vn -0.389018 0.582207 0.713933
vn -0.136605 0.68676 0.713933
vn 0.136605 0.68676 0.713933
vn 0.389018 0.582207 0.713933
vn 0.582207 0.389018 0.713933
vn 0.68676 0.136605 0.713933
vn 0.68676 -0.136605 0.713933
vn 0.582207 -0.389018 0.713933
vn 0.389018 -0.582207 0.713933
vn 0.136605 -0.68676 0.713933
vn -0.136605 -0.68676 0.713933
vn -0.389018 -0.582207 0.713933
vn -0.582207 -0.389018 0.713933
vn -0.68676 -0.136605 0.713933
vn 0 0 -1
vn 0 0 1
f 433/1009/97 434/1010/97 438/1011/97 437/1012/97
f 434/1013/98 435/1014/98 439/1015/98 438/1016/98
f 435/1017/99 436/1018/99 440/1019/99 439/1020/99
f 436/1021/100 433/1022/100 437/1023/100 440/1024/100
f 437/1025/101 438/1026/101 442/1027/101 441/1028/101
f 438/1029/102 439/1030/102 443/1031/102 442/1032/102
f 439/1033/103 440/1034/103 444/1035/103 443/1036/103
f 440/1037/104 437/1038/104 441/1039/104 444/1040/104
f 441/1041/105 442/1042/105 446/1043/105 445/1044/105
f 442/1045/106 443/1046/106 447/1047/106 446/1048/106
f 443/1049/107 444/1050/107 448/1051/107 447/1052/107
f 444/1053/108 441/1054/108 445/1055/108 448/1056/108
f 449/1057/109 450/1058/110 466/1059/110 465/1060/109
f 450/1061/110 451/1062/111 467/1063/111 466/1064/110
f 451/1065/111 452/1066/112 468/1067/112 467/1068/111
f 452/1069/112 453/1070/113 469/1071/113 468/1072/112
f 453/1073/113 454/1074/114 470/1075/114 469/1076/113
f 454/1077/114 455/1078/115 471/1079/115 470/1080/114
f 455/1081/115 456/1082/116 472/1083/116 471/1084/115
f 456/1085/116 457/1086/117 473/1087/117 472/1088/116
f 457/1089/117 458/1090/118 474/1091/118 473/1092/117
f 458/1093/118 459/1094/119 475/1095/119 474/1096/118
f 459/1097/119 460/1098/120 476/1099/120 475/1100/119
f 460/1101/120 461/1102/121 477/1103/121 476/1104/120
f 461/1105/121 462/1106/122 478/1107/122 477/1108/121
f 462/1109/122 463/1110/123 479/1111/123 478/1112/122
f 463/1113/123 464/1114/124 480/1115/124 479/1116/123
f 464/1117/124 449/1118/109 465/1119/109 480/1120/124
f 465/1121/125 466/1122/126 482/1123/126 481/1124/125
f 466/1125/126 467/1126/127 483/1127/127 482/1128/126
f 467/1129/127 468/1130/128 484/1131/128 483/1132/127
f 468/1133/128 469/1134/129 485/1135/129 484/1136/128
f 469/1137/129 470/1138/130 486/1139/130 485/1140/129
f 470/1141/130 471/1142/131 487/1143/131 486/1144/130
f 471/1145/131 472/1146/132 488/1147/132 487/1148/131
f 472/1149/132 473/1150/133 489/1151/133 488/1152/132
f 473/1153/133 474/1154/134 490/1155/134 489/1156/133
f 474/1157/134 475/1158/135 491/1159/135 490/1160/134
f 475/1161/135 476/1162/136 492/1163/136 491/1164/135
f 476/1165/136 477/1166/137 493/1167/137 492/1168/136
f 477/1169/137 478/1170/138 494/1171/138 493/1172/137
f 478/1173/138 479/1174/139 495/1175/139 494/1176/138
f 479/1177/139 480/1178/140 496/1179/140 495/1180/139
f 480/1181/140 465/1182/125 481/1183/125 496/1184/140
f 481/1185/141 482/1186/142 498/1187/142 497/1188/141
f 482/1189/142 483/1190/143 499/1191/143 498/1192/142
f 483/1193/143 484/1194/144 500/1195/144 499/1196/143
f 484/1197/144 485/1198/145 501/1199/145 500/1200/144
f 485/1201/145 486/1202/146 502/1203/146 501/1204/145
f 486/1205/146 487/1206/147 503/1207/147 502/1208/146
f 487/1209/147 488/1210/148 504/1211/148 503/1212/147
f 488/1213/148 489/1214/149 505/1215/149 504/1216/148
f 489/1217/149 490/1218/150 506/1219/150 505/1220/149
f 490/1221/150 491/1222/151 507/1223/151 506/1224/150
f 491/1225/151 492/1226/152 508/1227/152 507/1228/151
f 492/1229/152 493/1230/153 509/1231/153 508/1232/152
f 493/1233/153 494/1234/154 510/1235/154 509/1236/153
f 494/1237/154 495/1238/155 511/1239/155 510/1240/154
f 495/1241/155 496/1242/156 512/1243/156 511/1244/155
f 496/1245/156 481/1246/141 497/1247/141 512/1248/156
f 518/1249/157 517/1250/157 514/1251/157
f 519/1252/157 518/1253/157 514/1254/157
f 520/1255/157 519/1256/157 514/1257/157
f 520/1258/157 514/1259/157 513/1260/157
f 521/1261/157 520/1262/157 513/1263/157
f 522/1264/157 521/1265/157 513/1266/157
f 523/1267/157 522/1268/157 513/1269/157
f 524/1270/157 523/1271/157 513/1272/157
f 524/1273/157 513/1274/157 516/1275/157
f 525/1276/157 524/1277/157 516/1278/157
f 526/1279/157 525/1280/157 516/1281/157
f 527/1282/157 526/1283/157 516/1284/157
f 528/1285/157 527/1286/157 516/1287/157
f 529/1288/157 528/1289/157 516/1290/157
f 514/1291/157 517/1292/157 532/1293/157
f 515/1294/157 514/1295/157 532/1296/157
f 515/1297/157 532/1298/157 531/1299/157
f 515/1300/157 531/1301/157 530/1302/157
f 515/1303/157 530/1304/157 529/1305/157
f 516/1306/157 515/1307/157 529/1308/157
f 534/1309/158 537/1310/158 538/1311/158
f 534/1312/158 538/1313/158 539/1314/158
f 534/1315/158 539/1316/158 540/1317/158
f 533/1318/158 534/1319/158 540/1320/158
f 533/1321/158 540/1322/158 541/1323/158
f 533/1324/158 541/1325/158 542/1326/158
f 533/1327/158 542/1328/158 543/1329/158
f 533/1330/158 543/1331/158 544/1332/158
f 536/1333/158 533/1334/158 544/1335/158
f 536/1336/158 544/1337/158 545/1338/158
f 536/1339/158 545/1340/158 546/1341/158
f 536/1342/158 546/1343/158 547/1344/158
f 536/1345/158 547/1346/158 548/1347/158
f 536/1348/158 548/1349/158 549/1350/158
f 552/1351/158 537/1352/158 534/1353/158
f 552/1354/158 534/1355/158 535/1356/158
f 551/1357/158 552/1358/158 535/1359/158
f 550/1360/158 551/1361/158 535/1362/158
f 549/1363/158 550/1364/158 535/1365/158
f 549/1366/158 535/1367/158 536/1368/158
o fuel_dispenser_sump__body__pport_socket
usemtl fuel_station_sump
v 0.616468 0.523167 0.96125
v 0.598737 0.565974 0.96125
v 0.565974 0.598737 0.96125
v 0.523167 0.616468 0.96125
v 0.476833 0.616468 0.96125
v 0.434026 0.598737 0.96125
v 0.401263 0.565974 0.96125
v 0.383532 0.523167 0.96125
v 0.383532 0.476833 0.96125
v 0.401263 0.434026 0.96125
v 0.434026 0.401263 0.96125
v 0.476833 0.383532 0.96125
v 0.523167 0.383532 0.96125
v 0.565974 0.401263 0.96125
v 0.598737 0.434026 0.96125
v 0.616468 0.476833 0.96125
v 0.616468 0.523167 0.97625
v 0.598737 0.565974 0.97625
v 0.565974 0.598737 0.97625
v 0.523167 0.616468 0.97625
v 0.476833 0.616468 0.97625
v 0.434026 0.598737 0.97625
v 0.401263 0.565974 0.97625
v 0.383532 0.523167 0.97625
v 0.383532 0.476833 0.97625
v 0.401263 0.434026 0.97625
v 0.434026 0.401263 0.97625
v 0.476833 0.383532 0.97625
v 0.523167 0.383532 0.97625
v 0.565974 0.401263 0.97625
v 0.598737 0.434026 0.97625
v 0.616468 0.476833 0.97625
v 0.5 0.5 0.96125
v 0.5 0.5 0.97625
vt 0.466309 0.08209
vt 0.470652 0.08209
vt 0.470652 0.083496
vt 0.466309 0.083496
vt 0.505371 0.08209
vt 0.509715 0.08209
vt 0.509715 0.083496
vt 0.505371 0.083496
vt 0.450684 0.08209
vt 0.455027 0.08209
vt 0.455027 0.083496
vt 0.450684 0.083496
vt 0.497559 0.08209
vt 0.501902 0.08209
vt 0.501902 0.083496
vt 0.497559 0.083496
vt 0.528809 0.08209
vt 0.533152 0.08209
vt 0.533152 0.083496
vt 0.528809 0.083496
vt 0.419434 0.08209
vt 0.423777 0.08209
vt 0.423777 0.083496
vt 0.419434 0.083496
vt 0.544434 0.08209
vt 0.548777 0.08209
vt 0.548777 0.083496
vt 0.544434 0.083496
vt 0.388184 0.08209
vt 0.392527 0.08209
vt 0.392527 0.083496
vt 0.388184 0.083496
vt 0.536621 0.08209
vt 0.540965 0.08209
vt 0.540965 0.083496
vt 0.536621 0.083496
vt 0.442871 0.08209
vt 0.447215 0.08209
vt 0.447215 0.083496
vt 0.442871 0.083496
vt 0.567871 0.08209
vt 0.572215 0.08209
vt 0.572215 0.083496
vt 0.567871 0.083496
vt 0.395996 0.08209
vt 0.40034 0.08209
vt 0.40034 0.083496
vt 0.395996 0.083496
vt 0.403809 0.08209
vt 0.408152 0.08209
vt 0.408152 0.083496
vt 0.403809 0.083496
vt 0.599121 0.08209
vt 0.603465 0.08209
vt 0.603465 0.083496
vt 0.599121 0.083496
vt 0.583496 0.08209
vt 0.58784 0.08209
vt 0.58784 0.083496
vt 0.583496 0.083496
vt 0.415965 0.083496
vt 0.411621 0.083496
vt 0.411621 0.08209
vt 0.415965 0.08209
vt 0.675795 0.40117
vt 0.671782 0.402832
vt 0.66961 0.391913
vt 0.678867 0.398098
vt 0.675795 0.40117
vt 0.66961 0.391913
vt 0.680529 0.394085
vt 0.678867 0.398098
vt 0.66961 0.391913
vt 0.680529 0.389741
vt 0.680529 0.394085
vt 0.66961 0.391913
vt 0.678867 0.385728
vt 0.680529 0.389741
vt 0.66961 0.391913
vt 0.675795 0.382657
vt 0.678867 0.385728
vt 0.66961 0.391913
vt 0.671782 0.380994
vt 0.675795 0.382657
vt 0.66961 0.391913
vt 0.667438 0.380994
vt 0.671782 0.380994
vt 0.66961 0.391913
vt 0.663425 0.382657
vt 0.667438 0.380994
vt 0.66961 0.391913
vt 0.660354 0.385728
vt 0.663425 0.382657
vt 0.66961 0.391913
vt 0.658691 0.389741
vt 0.660354 0.385728
vt 0.66961 0.391913
vt 0.658691 0.394085
vt 0.658691 0.389741
vt 0.66961 0.391913
vt 0.660354 0.398098
vt 0.658691 0.394085
vt 0.66961 0.391913
vt 0.663425 0.40117
vt 0.660354 0.398098
vt 0.66961 0.391913
vt 0.667438 0.402832
vt 0.663425 0.40117
vt 0.66961 0.391913
vt 0.671782 0.402832
vt 0.667438 0.402832
vt 0.66961 0.391913
vt 0.695001 0.391913
vt 0.697173 0.380994
vt 0.701186 0.382657
vt 0.695001 0.391913
vt 0.701186 0.382657
vt 0.704258 0.385728
vt 0.695001 0.391913
vt 0.704258 0.385728
vt 0.70592 0.389741
vt 0.695001 0.391913
vt 0.70592 0.389741
vt 0.70592 0.394085
vt 0.695001 0.391913
vt 0.70592 0.394085
vt 0.704258 0.398098
vt 0.695001 0.391913
vt 0.704258 0.398098
vt 0.701186 0.40117
vt 0.695001 0.391913
vt 0.701186 0.40117
vt 0.697173 0.402832
vt 0.695001 0.391913
vt 0.697173 0.402832
vt 0.692829 0.402832
vt 0.695001 0.391913
vt 0.692829 0.402832
vt 0.688816 0.40117
vt 0.695001 0.391913
vt 0.688816 0.40117
vt 0.685744 0.398098
vt 0.695001 0.391913
vt 0.685744 0.398098
vt 0.684082 0.394085
vt 0.695001 0.391913
vt 0.684082 0.394085
vt 0.684082 0.389741
vt 0.695001 0.391913
vt 0.684082 0.389741
vt 0.685744 0.385728
vt 0.695001 0.391913
vt 0.685744 0.385728
vt 0.688816 0.382657
vt 0.695001 0.391913
vt 0.688816 0.382657
vt 0.692829 0.380994
vt 0.695001 0.391913
vt 0.692829 0.380994
vt 0.697173 0.380994
vn 0.92388 0.382683 0
vn 0.83147 0.55557 0
vn 0.55557 0.83147 0
vn 0.19509 0.980785 0
vn -0.19509 0.980785 0
vn -0.55557 0.83147 0
vn -0.83147 0.55557 0
vn -0.980785 0.19509 0
vn -0.980785 -0.19509 0
vn -0.83147 -0.55557 0
vn -0.55557 -0.83147 0
vn -0.19509 -0.980785 0
vn 0.19509 -0.980785 0
vn 0.55557 -0.83147 0
vn 0.83147 -0.55557 0
vn 0.92388 -0.382683 0
vn -1 0 0
vn 0 0 -1
vn 0 0 1
f 553/1369/159 554/1370/160 570/1371/160 569/1372/159
f 554/1373/160 555/1374/161 571/1375/161 570/1376/160
f 555/1377/161 556/1378/162 572/1379/162 571/1380/161
f 556/1381/162 557/1382/163 573/1383/163 572/1384/162
f 557/1385/163 558/1386/164 574/1387/164 573/1388/163
f 558/1389/164 559/1390/165 575/1391/165 574/1392/164
f 559/1393/165 560/1394/166 576/1395/166 575/1396/165
f 560/1397/166 561/1398/167 577/1399/167 576/1400/166
f 561/1401/167 562/1402/168 578/1403/168 577/1404/167
f 562/1405/168 563/1406/169 579/1407/169 578/1408/168
f 563/1409/169 564/1410/170 580/1411/170 579/1412/169
f 564/1413/170 565/1414/171 581/1415/171 580/1416/170
f 565/1417/171 566/1418/172 582/1419/172 581/1420/171
f 566/1421/172 567/1422/173 583/1423/173 582/1424/172
f 567/1425/173 568/1426/174 584/1427/174 583/1428/173
f 584/1429/175 569/1430/175 553/1431/175 568/1432/175
f 554/1433/176 553/1434/176 585/1435/176
f 555/1436/176 554/1437/176 585/1438/176
f 556/1439/176 555/1440/176 585/1441/176
f 557/1442/176 556/1443/176 585/1444/176
f 558/1445/176 557/1446/176 585/1447/176
f 559/1448/176 558/1449/176 585/1450/176
f 560/1451/176 559/1452/176 585/1453/176
f 561/1454/176 560/1455/176 585/1456/176
f 562/1457/176 561/1458/176 585/1459/176
f 563/1460/176 562/1461/176 585/1462/176
f 564/1463/176 563/1464/176 585/1465/176
f 565/1466/176 564/1467/176 585/1468/176
f 566/1469/176 565/1470/176 585/1471/176
f 567/1472/176 566/1473/176 585/1474/176
f 568/1475/176 567/1476/176 585/1477/176
f 553/1478/176 568/1479/176 585/1480/176
f 586/1481/177 569/1482/177 570/1483/177
f 586/1484/177 570/1485/177 571/1486/177
f 586/1487/177 571/1488/177 572/1489/177
f 586/1490/177 572/1491/177 573/1492/177
f 586/1493/177 573/1494/177 574/1495/177
f 586/1496/177 574/1497/177 575/1498/177
f 586/1499/177 575/1500/177 576/1501/177
f 586/1502/177 576/1503/177 577/1504/177
f 586/1505/177 577/1506/177 578/1507/177
f 586/1508/177 578/1509/177 579/1510/177
f 586/1511/177 579/1512/177 580/1513/177
f 586/1514/177 580/1515/177 581/1516/177
f 586/1517/177 581/1518/177 582/1519/177
f 586/1520/177 582/1521/177 583/1522/177
f 586/1523/177 583/1524/177 584/1525/177
f 586/1526/177 584/1527/177 569/1528/177
o fuel_dispenser_sump__body__pport_pin
usemtl fuel_station_sump
v 0.525984 0.510763 0.97625
v 0.510763 0.525984 0.97625
v 0.489237 0.525984 0.97625
v 0.474016 0.510763 0.97625
v 0.474016 0.489237 0.97625
v 0.489237 0.474016 0.97625
v 0.510763 0.474016 0.97625
v 0.525984 0.489237 0.97625
v 0.525984 0.510763 0.98875
v 0.510763 0.525984 0.98875
v 0.489237 0.525984 0.98875
v 0.474016 0.510763 0.98875
v 0.474016 0.489237 0.98875
v 0.489237 0.474016 0.98875
v 0.510763 0.474016 0.98875
v 0.525984 0.489237 0.98875
v 0.5 0.5 0.97625
v 0.5 0.5 0.98875
vt 0.272949 0.072559
vt 0.274967 0.072559
vt 0.274967 0.07373
vt 0.272949 0.07373
vt 0.255371 0.072559
vt 0.257389 0.072559
vt 0.257389 0.07373
vt 0.255371 0.07373
vt 0.278809 0.072559
vt 0.280827 0.072559
vt 0.280827 0.07373
vt 0.278809 0.07373
vt 0.26123 0.072559
vt 0.263249 0.072559
vt 0.263249 0.07373
vt 0.26123 0.07373
vt 0.296387 0.072559
vt 0.298405 0.072559
vt 0.298405 0.07373
vt 0.296387 0.07373
vt 0.226074 0.072559
vt 0.228092 0.072559
vt 0.228092 0.07373
vt 0.226074 0.07373
vt 0.308105 0.072559
vt 0.310124 0.072559
vt 0.310124 0.07373
vt 0.308105 0.07373
vt 0.239811 0.07373
vt 0.237793 0.07373
vt 0.237793 0.072559
vt 0.239811 0.072559
vt 0.260243 0.162147
vt 0.258816 0.163574
vt 0.257807 0.161138
vt 0.260243 0.160129
vt 0.260243 0.162147
vt 0.257807 0.161138
vt 0.258816 0.158702
vt 0.260243 0.160129
vt 0.257807 0.161138
vt 0.256798 0.158702
vt 0.258816 0.158702
vt 0.257807 0.161138
vt 0.255371 0.160129
vt 0.256798 0.158702
vt 0.257807 0.161138
vt 0.255371 0.162147
vt 0.255371 0.160129
vt 0.257807 0.161138
vt 0.256798 0.163574
vt 0.255371 0.162147
vt 0.257807 0.161138
vt 0.258816 0.163574
vt 0.256798 0.163574
vt 0.257807 0.161138
vt 0.26562 0.161138
vt 0.266629 0.158702
vt 0.268056 0.160129
vt 0.26562 0.161138
vt 0.268056 0.160129
vt 0.268056 0.162147
vt 0.26562 0.161138
vt 0.268056 0.162147
vt 0.266629 0.163574
vt 0.26562 0.161138
vt 0.266629 0.163574
vt 0.264611 0.163574
vt 0.26562 0.161138
vt 0.264611 0.163574
vt 0.263184 0.162147
vt 0.26562 0.161138
vt 0.263184 0.162147
vt 0.263184 0.160129
vt 0.26562 0.161138
vt 0.263184 0.160129
vt 0.264611 0.158702
vt 0.26562 0.161138
vt 0.264611 0.158702
vt 0.266629 0.158702
vn 0.707107 0.707107 0
vn 0 1 0
vn -0.707107 0.707107 0
vn -1 0 0
vn -0.707107 -0.707107 0
vn 0 -1 0
vn 0.707107 -0.707107 0
vn 0 0 -1
vn 0 0 1
f 587/1529/178 588/1530/178 596/1531/178 595/1532/178
f 588/1533/179 589/1534/179 597/1535/179 596/1536/179
f 589/1537/180 590/1538/180 598/1539/180 597/1540/180
f 590/1541/181 591/1542/181 599/1543/181 598/1544/181
f 591/1545/182 592/1546/182 600/1547/182 599/1548/182
f 592/1549/183 593/1550/183 601/1551/183 600/1552/183
f 593/1553/184 594/1554/184 602/1555/184 601/1556/184
f 602/1557/181 595/1558/181 587/1559/181 594/1560/181
f 588/1561/185 587/1562/185 603/1563/185
f 589/1564/185 588/1565/185 603/1566/185
f 590/1567/185 589/1568/185 603/1569/185
f 591/1570/185 590/1571/185 603/1572/185
f 592/1573/185 591/1574/185 603/1575/185
f 593/1576/185 592/1577/185 603/1578/185
f 594/1579/185 593/1580/185 603/1581/185
f 587/1582/185 594/1583/185 603/1584/185
f 604/1585/186 595/1586/186 596/1587/186
f 604/1588/186 596/1589/186 597/1590/186
f 604/1591/186 597/1592/186 598/1593/186
f 604/1594/186 598/1595/186 599/1596/186
f 604/1597/186 599/1598/186 600/1599/186
f 604/1600/186 600/1601/186 601/1602/186
f 604/1603/186 601/1604/186 602/1605/186
f 604/1606/186 602/1607/186 595/1608/186
