# AFL Office Props V2 desk, generated by tools/build-office-props-v2.mjs
mtllib center.mtl
o desk_top
usemtl desk
v -0.98875 0.778125 0.01125
v -0.98875 0.778125 0.98875
v 1.98875 0.778125 0.98875
v 1.98875 0.778125 0.01125
v -1 0.789375 0
v -1 0.789375 1
v 2 0.789375 1
v 2 0.789375 0
v -1 0.8325 0
v -1 0.8325 1
v 2 0.8325 1
v 2 0.8325 0
v -0.98875 0.84375 0.01125
v -0.98875 0.84375 0.98875
v 1.98875 0.84375 0.98875
v 1.98875 0.84375 0.01125
v -0.98875 0.778125 0.01125
v -0.98875 0.778125 0.98875
v 1.98875 0.778125 0.98875
v 1.98875 0.778125 0.01125
v -0.98875 0.84375 0.01125
v -0.98875 0.84375 0.98875
v 1.98875 0.84375 0.98875
v 1.98875 0.84375 0.01125
vt 0.575352 0.107368
vt 0.758633 0.107368
vt 0.760742 0.110352
vt 0.573242 0.110352
vt 0.006992 0.117134
vt 0.565273 0.117134
vt 0.567383 0.120117
vt 0.004883 0.120117
vt 0.951992 0.110352
vt 0.768711 0.110352
vt 0.766602 0.107368
vt 0.954102 0.107368
vt 0.565273 0.110352
vt 0.006992 0.110352
vt 0.004883 0.107368
vt 0.567383 0.107368
vt 0.573242 0.194063
vt 0.760742 0.194063
vt 0.760742 0.202148
vt 0.573242 0.202148
vt 0.004883 0.209688
vt 0.567383 0.209688
vt 0.567383 0.217773
vt 0.004883 0.217773
vt 0.954102 0.202148
vt 0.766602 0.202148
vt 0.766602 0.194063
vt 0.954102 0.194063
vt 0.004883 0.194063
vt 0.567383 0.194063
vt 0.567383 0.202148
vt 0.004883 0.202148
vt 0.004883 0.097603
vt 0.192383 0.097603
vt 0.190273 0.100586
vt 0.006992 0.100586
vt 0.754883 0.139648
vt 0.192383 0.139648
vt 0.194492 0.136665
vt 0.752773 0.136665
vt 0.385742 0.100586
vt 0.198242 0.100586
vt 0.200352 0.097603
vt 0.383633 0.097603
vt 0.004883 0.1269
vt 0.567383 0.1269
vt 0.565273 0.129883
vt 0.006992 0.129883
vt 0.004883 0.995117
vt 0.004883 0.811836
vt 0.563164 0.811836
vt 0.563164 0.811836
vt 0.563164 0.995117
vt 0.004883 0.995117
vt 0.004883 0.622383
vt 0.563164 0.622383
vt 0.563164 0.805664
vt 0.563164 0.805664
vt 0.004883 0.805664
vt 0.004883 0.622383
vn -0.707107 -0.707107 0
vn 0 -0.707107 0.707107
vn 0.707107 -0.707107 0
vn 0 -0.707107 -0.707107
vn -1 0 0
vn 0 0 1
vn 1 0 0
vn 0 0 -1
vn -0.707107 0.707107 0
vn 0 0.707107 0.707107
vn 0.707107 0.707107 0
vn 0 0.707107 -0.707107
vn 0 -1 0
vn 0 1 0
f 1/1/1 2/2/1 6/3/1 5/4/1
f 2/5/2 3/6/2 7/7/2 6/8/2
f 3/9/3 4/10/3 8/11/3 7/12/3
f 4/13/4 1/14/4 5/15/4 8/16/4
f 5/17/5 6/18/5 10/19/5 9/20/5
f 6/21/6 7/22/6 11/23/6 10/24/6
f 7/25/7 8/26/7 12/27/7 11/28/7
f 8/29/8 5/30/8 9/31/8 12/32/8
f 9/33/9 10/34/9 14/35/9 13/36/9
f 10/37/10 11/38/10 15/39/10 14/40/10
f 11/41/11 12/42/11 16/43/11 15/44/11
f 12/45/12 9/46/12 13/47/12 16/48/12
f 18/49/13 17/50/13 20/51/13
f 20/52/13 19/53/13 18/54/13
f 24/55/14 21/56/14 22/57/14
f 22/58/14 23/59/14 24/60/14
o desk_legs
usemtl desk
v -0.926875 0.021875 0.073125
v -0.926875 0.021875 0.164375
v -0.835625 0.021875 0.164375
v -0.835625 0.021875 0.073125
v -0.934375 0.029375 0.065625
v -0.934375 0.029375 0.171875
v -0.828125 0.029375 0.171875
v -0.828125 0.029375 0.065625
v -0.934375 0.770625 0.065625
v -0.934375 0.770625 0.171875
v -0.828125 0.770625 0.171875
v -0.828125 0.770625 0.065625
v -0.926875 0.778125 0.073125
v -0.926875 0.778125 0.164375
v -0.835625 0.778125 0.164375
v -0.835625 0.778125 0.073125
v -0.926875 0.021875 0.073125
v -0.926875 0.021875 0.164375
v -0.835625 0.021875 0.164375
v -0.835625 0.021875 0.073125
v -0.926875 0.778125 0.073125
v -0.926875 0.778125 0.164375
v -0.835625 0.778125 0.164375
v -0.835625 0.778125 0.073125
v -0.926875 0.021875 0.835625
v -0.926875 0.021875 0.926875
v -0.835625 0.021875 0.926875
v -0.835625 0.021875 0.835625
v -0.934375 0.029375 0.828125
v -0.934375 0.029375 0.934375
v -0.828125 0.029375 0.934375
v -0.828125 0.029375 0.828125
v -0.934375 0.770625 0.828125
v -0.934375 0.770625 0.934375
v -0.828125 0.770625 0.934375
v -0.828125 0.770625 0.828125
v -0.926875 0.778125 0.835625
v -0.926875 0.778125 0.926875
v -0.835625 0.778125 0.926875
v -0.835625 0.778125 0.835625
v -0.926875 0.021875 0.835625
v -0.926875 0.021875 0.926875
v -0.835625 0.021875 0.926875
v -0.835625 0.021875 0.835625
v -0.926875 0.778125 0.835625
v -0.926875 0.778125 0.926875
v -0.835625 0.778125 0.926875
v -0.835625 0.778125 0.835625
v 1.835625 0.021875 0.073125
v 1.835625 0.021875 0.164375
v 1.926875 0.021875 0.164375
v 1.926875 0.021875 0.073125
v 1.828125 0.029375 0.065625
v 1.828125 0.029375 0.171875
v 1.934375 0.029375 0.171875
v 1.934375 0.029375 0.065625
v 1.828125 0.770625 0.065625
v 1.828125 0.770625 0.171875
v 1.934375 0.770625 0.171875
v 1.934375 0.770625 0.065625
v 1.835625 0.778125 0.073125
v 1.835625 0.778125 0.164375
v 1.926875 0.778125 0.164375
v 1.926875 0.778125 0.073125
v 1.835625 0.021875 0.073125
v 1.835625 0.021875 0.164375
v 1.926875 0.021875 0.164375
v 1.926875 0.021875 0.073125
v 1.835625 0.778125 0.073125
v 1.835625 0.778125 0.164375
v 1.926875 0.778125 0.164375
v 1.926875 0.778125 0.073125
v 1.835625 0.021875 0.835625
v 1.835625 0.021875 0.926875
v 1.926875 0.021875 0.926875
v 1.926875 0.021875 0.835625
v 1.828125 0.029375 0.828125
v 1.828125 0.029375 0.934375
v 1.934375 0.029375 0.934375
v 1.934375 0.029375 0.828125
v 1.828125 0.770625 0.828125
v 1.828125 0.770625 0.934375
v 1.934375 0.770625 0.934375
v 1.934375 0.770625 0.828125
v 1.835625 0.778125 0.835625
v 1.835625 0.778125 0.926875
v 1.926875 0.778125 0.926875
v 1.926875 0.778125 0.835625
v 1.835625 0.021875 0.835625
v 1.835625 0.021875 0.926875
v 1.926875 0.021875 0.926875
v 1.926875 0.021875 0.835625
v 1.835625 0.778125 0.835625
v 1.835625 0.778125 0.926875
v 1.926875 0.778125 0.926875
v 1.926875 0.778125 0.835625
vt 0.060977 0.088832
vt 0.078086 0.088832
vt 0.079492 0.09082
vt 0.05957 0.09082
vt 0.611758 0.098597
vt 0.628867 0.098597
vt 0.630273 0.100586
vt 0.610352 0.100586
vt 0.410117 0.100586
vt 0.393008 0.100586
vt 0.391602 0.098597
vt 0.411523 0.098597
vt 0.738242 0.100586
vt 0.721133 0.100586
vt 0.719727 0.098597
vt 0.739648 0.098597
vt 0.841133 0.504492
vt 0.841133 0.524414
vt 0.702148 0.524414
vt 0.702148 0.504492
vt 0.12207 0.553711
vt 0.12207 0.533789
vt 0.261055 0.533789
vt 0.261055 0.553711
vt 0.848633 0.524414
vt 0.848633 0.504492
vt 0.987617 0.504492
vt 0.987617 0.524414
vt 0.268555 0.553711
vt 0.268555 0.533789
vt 0.407539 0.533789
vt 0.407539 0.553711
vt 0.418945 0.098597
vt 0.438867 0.098597
vt 0.437461 0.100586
vt 0.420352 0.100586
vt 0.766992 0.100586
vt 0.74707 0.100586
vt 0.748477 0.098597
vt 0.765586 0.098597
vt 0.106836 0.09082
vt 0.086914 0.09082
vt 0.08832 0.088832
vt 0.10543 0.088832
vt 0.774414 0.098597
vt 0.794336 0.098597
vt 0.79293 0.100586
vt 0.77582 0.100586
vt 0.883789 0.49707
vt 0.883789 0.479961
vt 0.900898 0.479961
vt 0.900898 0.479961
vt 0.900898 0.49707
vt 0.883789 0.49707
vt 0.907227 0.479961
vt 0.924336 0.479961
vt 0.924336 0.49707
vt 0.924336 0.49707
vt 0.907227 0.49707
vt 0.907227 0.479961
vt 0.115664 0.088832
vt 0.132773 0.088832
vt 0.13418 0.09082
vt 0.114258 0.09082
vt 0.803164 0.098597
vt 0.820273 0.098597
vt 0.82168 0.100586
vt 0.801758 0.100586
vt 0.464805 0.100586
vt 0.447695 0.100586
vt 0.446289 0.098597
vt 0.466211 0.098597
vt 0.656211 0.100586
vt 0.639102 0.100586
vt 0.637695 0.098597
vt 0.657617 0.098597
vt 0.143867 0.477148
vt 0.143867 0.49707
vt 0.004883 0.49707
vt 0.004883 0.477148
vt 0.415039 0.553711
vt 0.415039 0.533789
vt 0.554023 0.533789
vt 0.554023 0.553711
vt 0.151367 0.49707
vt 0.151367 0.477148
vt 0.290352 0.477148
vt 0.290352 0.49707
vt 0.561523 0.553711
vt 0.561523 0.533789
vt 0.700508 0.533789
vt 0.700508 0.553711
vt 0.473633 0.098597
vt 0.493555 0.098597
vt 0.492148 0.100586
vt 0.475039 0.100586
vt 0.849023 0.100586
vt 0.829102 0.100586
vt 0.830508 0.098597
vt 0.847617 0.098597
vt 0.161523 0.09082
vt 0.141602 0.09082
vt 0.143008 0.088832
vt 0.160117 0.088832
vt 0.856445 0.098597
vt 0.876367 0.098597
vt 0.874961 0.100586
vt 0.857852 0.100586
vt 0.930664 0.49707
vt 0.930664 0.479961
vt 0.947773 0.479961
vt 0.947773 0.479961
vt 0.947773 0.49707
vt 0.930664 0.49707
vt 0.954102 0.479961
vt 0.971211 0.479961
vt 0.971211 0.49707
vt 0.971211 0.49707
vt 0.954102 0.49707
vt 0.954102 0.479961
vt 0.502383 0.098597
vt 0.519492 0.098597
vt 0.520898 0.100586
vt 0.500977 0.100586
vt 0.666445 0.098597
vt 0.683555 0.098597
vt 0.684961 0.100586
vt 0.665039 0.100586
vt 0.187461 0.09082
vt 0.170352 0.09082
vt 0.168945 0.088832
vt 0.188867 0.088832
vt 0.902305 0.100586
vt 0.885195 0.100586
vt 0.883789 0.098597
vt 0.903711 0.098597
vt 0.436836 0.477148
vt 0.436836 0.49707
vt 0.297852 0.49707
vt 0.297852 0.477148
vt 0.708008 0.553711
vt 0.708008 0.533789
vt 0.846992 0.533789
vt 0.846992 0.553711
vt 0.444336 0.49707
vt 0.444336 0.477148
vt 0.58332 0.477148
vt 0.58332 0.49707
vt 0.854492 0.553711
vt 0.854492 0.533789
vt 0.993477 0.533789
vt 0.993477 0.553711
vt 0.196289 0.088832
vt 0.216211 0.088832
vt 0.214805 0.09082
vt 0.197695 0.09082
vt 0.931055 0.100586
vt 0.911133 0.100586
vt 0.912539 0.098597
vt 0.929648 0.098597
vt 0.548242 0.100586
vt 0.52832 0.100586
vt 0.529727 0.098597
vt 0.546836 0.098597
vt 0.938477 0.098597
vt 0.958398 0.098597
vt 0.956992 0.100586
vt 0.939883 0.100586
vt 0.977539 0.49707
vt 0.977539 0.479961
vt 0.994648 0.479961
vt 0.994648 0.479961
vt 0.994648 0.49707
vt 0.977539 0.49707
vt 0.004883 0.452617
vt 0.021992 0.452617
vt 0.021992 0.469727
vt 0.021992 0.469727
vt 0.004883 0.469727
vt 0.004883 0.452617
vt 0.55707 0.098597
vt 0.57418 0.098597
vt 0.575586 0.100586
vt 0.555664 0.100586
vt 0.967227 0.098597
vt 0.984336 0.098597
vt 0.985742 0.100586
vt 0.96582 0.100586
vt 0.242148 0.09082
vt 0.225039 0.09082
vt 0.223633 0.088832
vt 0.243555 0.088832
vt 0.710898 0.100586
vt 0.693789 0.100586
vt 0.692383 0.098597
vt 0.712305 0.098597
vt 0.729805 0.477148
vt 0.729805 0.49707
vt 0.59082 0.49707
vt 0.59082 0.477148
vt 0.004883 0.524414
vt 0.004883 0.504492
vt 0.143867 0.504492
vt 0.143867 0.524414
vt 0.737305 0.49707
vt 0.737305 0.477148
vt 0.876289 0.477148
vt 0.876289 0.49707
vt 0.151367 0.524414
vt 0.151367 0.504492
vt 0.290352 0.504492
vt 0.290352 0.524414
vt 0.250977 0.088832
vt 0.270898 0.088832
vt 0.269492 0.09082
vt 0.252383 0.09082
vt 0.024805 0.09082
vt 0.004883 0.09082
vt 0.006289 0.088832
vt 0.023398 0.088832
vt 0.60293 0.100586
vt 0.583008 0.100586
vt 0.584414 0.098597
vt 0.601523 0.098597
vt 0.032227 0.088832
vt 0.052148 0.088832
vt 0.050742 0.09082
vt 0.033633 0.09082
vt 0.02832 0.469727
vt 0.02832 0.452617
vt 0.04543 0.452617
vt 0.04543 0.452617
vt 0.04543 0.469727
vt 0.02832 0.469727
vt 0.051758 0.452617
vt 0.068867 0.452617
vt 0.068867 0.469727
vt 0.068867 0.469727
vt 0.051758 0.469727
vt 0.051758 0.452617
vn -0.707107 -0.707107 0
vn 0 -0.707107 0.707107
vn 0.707107 -0.707107 0
vn 0 -0.707107 -0.707107
vn -1 0 0
vn 0 0 1
vn 1 0 0
vn 0 0 -1
vn -0.707107 0.707107 0
vn 0 0.707107 0.707107
vn 0.707107 0.707107 0
vn 0 0.707107 -0.707107
vn 0 -1 0
vn 0 1 0
f 25/61/15 26/62/15 30/63/15 29/64/15
f 26/65/16 27/66/16 31/67/16 30/68/16
f 27/69/17 28/70/17 32/71/17 31/72/17
f 28/73/18 25/74/18 29/75/18 32/76/18
f 29/77/19 30/78/19 34/79/19 33/80/19
f 30/81/20 31/82/20 35/83/20 34/84/20
f 31/85/21 32/86/21 36/87/21 35/88/21
f 32/89/22 29/90/22 33/91/22 36/92/22
f 33/93/23 34/94/23 38/95/23 37/96/23
f 34/97/24 35/98/24 39/99/24 38/100/24
f 35/101/25 36/102/25 40/103/25 39/104/25
f 36/105/26 33/106/26 37/107/26 40/108/26
f 42/109/27 41/110/27 44/111/27
f 44/112/27 43/113/27 42/114/27
f 48/115/28 45/116/28 46/117/28
f 46/118/28 47/119/28 48/120/28
f 49/121/15 50/122/15 54/123/15 53/124/15
f 50/125/16 51/126/16 55/127/16 54/128/16
f 51/129/17 52/130/17 56/131/17 55/132/17
f 52/133/18 49/134/18 53/135/18 56/136/18
f 53/137/19 54/138/19 58/139/19 57/140/19
f 54/141/20 55/142/20 59/143/20 58/144/20
f 55/145/21 56/146/21 60/147/21 59/148/21
f 56/149/22 53/150/22 57/151/22 60/152/22
f 57/153/23 58/154/23 62/155/23 61/156/23
f 58/157/24 59/158/24 63/159/24 62/160/24
f 59/161/25 60/162/25 64/163/25 63/164/25
f 60/165/26 57/166/26 61/167/26 64/168/26
f 66/169/27 65/170/27 68/171/27
f 68/172/27 67/173/27 66/174/27
f 72/175/28 69/176/28 70/177/28
f 70/178/28 71/179/28 72/180/28
f 73/181/15 74/182/15 78/183/15 77/184/15
f 74/185/16 75/186/16 79/187/16 78/188/16
f 75/189/17 76/190/17 80/191/17 79/192/17
f 76/193/18 73/194/18 77/195/18 80/196/18
f 77/197/19 78/198/19 82/199/19 81/200/19
f 78/201/20 79/202/20 83/203/20 82/204/20
f 79/205/21 80/206/21 84/207/21 83/208/21
f 80/209/22 77/210/22 81/211/22 84/212/22
f 81/213/23 82/214/23 86/215/23 85/216/23
f 82/217/24 83/218/24 87/219/24 86/220/24
f 83/221/25 84/222/25 88/223/25 87/224/25
f 84/225/26 81/226/26 85/227/26 88/228/26
f 90/229/27 89/230/27 92/231/27
f 92/232/27 91/233/27 90/234/27
f 96/235/28 93/236/28 94/237/28
f 94/238/28 95/239/28 96/240/28
f 97/241/15 98/242/15 102/243/15 101/244/15
f 98/245/16 99/246/16 103/247/16 102/248/16
f 99/249/17 100/250/17 104/251/17 103/252/17
f 100/253/18 97/254/18 101/255/18 104/256/18
f 101/257/19 102/258/19 106/259/19 105/260/19
f 102/261/20 103/262/20 107/263/20 106/264/20
f 103/265/21 104/266/21 108/267/21 107/268/21
f 104/269/22 101/270/22 105/271/22 108/272/22
f 105/273/23 106/274/23 110/275/23 109/276/23
f 106/277/24 107/278/24 111/279/24 110/280/24
f 107/281/25 108/282/25 112/283/25 111/284/25
f 108/285/26 105/286/26 109/287/26 112/288/26
f 114/289/27 113/290/27 116/291/27
f 116/292/27 115/293/27 114/294/27
f 120/295/28 117/296/28 118/297/28
f 118/298/28 119/299/28 120/300/28
o desk_glides
usemtl desk
v -0.872627 0 0.156528
v -0.85709 0 0.149046
v -0.846337 0 0.135563
v -0.8425 0 0.11875
v -0.846337 0 0.101937
v -0.85709 0 0.088454
v -0.872627 0 0.080972
v -0.889873 0 0.080972
v -0.90541 0 0.088454
v -0.916163 0 0.101937
v -0.92 0 0.11875
v -0.916163 0 0.135563
v -0.90541 0 0.149046
v -0.889873 0 0.156528
v -0.872627 0.025 0.156528
v -0.85709 0.025 0.149046
v -0.846337 0.025 0.135563
v -0.8425 0.025 0.11875
v -0.846337 0.025 0.101937
v -0.85709 0.025 0.088454
v -0.872627 0.025 0.080972
v -0.889873 0.025 0.080972
v -0.90541 0.025 0.088454
v -0.916163 0.025 0.101937
v -0.92 0.025 0.11875
v -0.916163 0.025 0.135563
v -0.90541 0.025 0.149046
v -0.889873 0.025 0.156528
v -0.88125 0 0.11875
v -0.88125 0.025 0.11875
v -0.872627 0 0.919028
v -0.85709 0 0.911546
v -0.846337 0 0.898063
v -0.8425 0 0.88125
v -0.846337 0 0.864437
v -0.85709 0 0.850954
v -0.872627 0 0.843472
v -0.889873 0 0.843472
v -0.90541 0 0.850954
v -0.916163 0 0.864437
v -0.92 0 0.88125
v -0.916163 0 0.898063
v -0.90541 0 0.911546
v -0.889873 0 0.919028
v -0.872627 0.025 0.919028
v -0.85709 0.025 0.911546
v -0.846337 0.025 0.898063
v -0.8425 0.025 0.88125
v -0.846337 0.025 0.864437
v -0.85709 0.025 0.850954
v -0.872627 0.025 0.843472
v -0.889873 0.025 0.843472
v -0.90541 0.025 0.850954
v -0.916163 0.025 0.864437
v -0.92 0.025 0.88125
v -0.916163 0.025 0.898063
v -0.90541 0.025 0.911546
v -0.889873 0.025 0.919028
v -0.88125 0 0.88125
v -0.88125 0.025 0.88125
v 1.889873 0 0.156528
v 1.90541 0 0.149046
v 1.916163 0 0.135563
v 1.92 0 0.11875
v 1.916163 0 0.101937
v 1.90541 0 0.088454
v 1.889873 0 0.080972
v 1.872627 0 0.080972
v 1.85709 0 0.088454
v 1.846337 0 0.101937
v 1.8425 0 0.11875
v 1.846337 0 0.135563
v 1.85709 0 0.149046
v 1.872627 0 0.156528
v 1.889873 0.025 0.156528
v 1.90541 0.025 0.149046
v 1.916163 0.025 0.135563
v 1.92 0.025 0.11875
v 1.916163 0.025 0.101937
v 1.90541 0.025 0.088454
v 1.889873 0.025 0.080972
v 1.872627 0.025 0.080972
v 1.85709 0.025 0.088454
v 1.846337 0.025 0.101937
v 1.8425 0.025 0.11875
v 1.846337 0.025 0.135563
v 1.85709 0.025 0.149046
v 1.872627 0.025 0.156528
v 1.88125 0 0.11875
v 1.88125 0.025 0.11875
v 1.889873 0 0.919028
v 1.90541 0 0.911546
v 1.916163 0 0.898063
v 1.92 0 0.88125
v 1.916163 0 0.864437
v 1.90541 0 0.850954
v 1.889873 0 0.843472
v 1.872627 0 0.843472
v 1.85709 0 0.850954
v 1.846337 0 0.864437
v 1.8425 0 0.88125
v 1.846337 0 0.898063
v 1.85709 0 0.911546
v 1.872627 0 0.919028
v 1.889873 0.025 0.919028
v 1.90541 0.025 0.911546
v 1.916163 0.025 0.898063
v 1.92 0.025 0.88125
v 1.916163 0.025 0.864437
v 1.90541 0.025 0.850954
v 1.889873 0.025 0.843472
v 1.872627 0.025 0.843472
v 1.85709 0.025 0.850954
v 1.846337 0.025 0.864437
v 1.8425 0.025 0.88125
v 1.846337 0.025 0.898063
v 1.85709 0.025 0.911546
v 1.872627 0.025 0.919028
v 1.88125 0 0.88125
v 1.88125 0.025 0.88125
vt 0.581055 0.149414
vt 0.581055 0.146181
vt 0.585742 0.146181
vt 0.585742 0.149414
vt 0.803711 0.149414
vt 0.803711 0.146181
vt 0.808398 0.146181
vt 0.808398 0.149414
vt 0.592773 0.149414
vt 0.592773 0.146181
vt 0.597461 0.146181
vt 0.597461 0.149414
vt 0.604492 0.149414
vt 0.604492 0.146181
vt 0.60918 0.146181
vt 0.60918 0.149414
vt 0.145508 0.139648
vt 0.145508 0.136415
vt 0.150195 0.136415
vt 0.150195 0.139648
vt 0.81543 0.149414
vt 0.81543 0.146181
vt 0.820117 0.146181
vt 0.820117 0.149414
vt 0.827148 0.149414
vt 0.827148 0.146181
vt 0.831836 0.146181
vt 0.831836 0.149414
vt 0.10332 0.136415
vt 0.10332 0.139648
vt 0.098633 0.139648
vt 0.098633 0.136415
vt 0.562305 0.146181
vt 0.562305 0.149414
vt 0.557617 0.149414
vt 0.557617 0.146181
vt 0.620898 0.146181
vt 0.620898 0.149414
vt 0.616211 0.149414
vt 0.616211 0.146181
vt 0.632617 0.146181
vt 0.632617 0.149414
vt 0.62793 0.149414
vt 0.62793 0.146181
vt 0.843555 0.146181
vt 0.843555 0.149414
vt 0.838867 0.149414
vt 0.838867 0.146181
vt 0.855273 0.146181
vt 0.855273 0.149414
vt 0.850586 0.149414
vt 0.850586 0.146181
vt 0.866992 0.146181
vt 0.866992 0.149414
vt 0.862305 0.149414
vt 0.862305 0.146181
vt 0.710038 0.444886
vt 0.707125 0.446289
vt 0.705508 0.439206
vt 0.712054 0.442358
vt 0.710038 0.444886
vt 0.705508 0.439206
vt 0.712773 0.439206
vt 0.712054 0.442358
vt 0.705508 0.439206
vt 0.712054 0.436053
vt 0.712773 0.439206
vt 0.705508 0.439206
vt 0.710038 0.433525
vt 0.712054 0.436053
vt 0.705508 0.439206
vt 0.707125 0.432122
vt 0.710038 0.433525
vt 0.705508 0.439206
vt 0.703891 0.432122
vt 0.707125 0.432122
vt 0.705508 0.439206
vt 0.700978 0.433525
vt 0.703891 0.432122
vt 0.705508 0.439206
vt 0.698962 0.436053
vt 0.700978 0.433525
vt 0.705508 0.439206
vt 0.698242 0.439206
vt 0.698962 0.436053
vt 0.705508 0.439206
vt 0.698962 0.442358
vt 0.698242 0.439206
vt 0.705508 0.439206
vt 0.700978 0.444886
vt 0.698962 0.442358
vt 0.705508 0.439206
vt 0.703891 0.446289
vt 0.700978 0.444886
vt 0.705508 0.439206
vt 0.707125 0.446289
vt 0.703891 0.446289
vt 0.705508 0.439206
vt 0.726992 0.439206
vt 0.725375 0.446289
vt 0.722462 0.444886
vt 0.726992 0.439206
vt 0.722462 0.444886
vt 0.720446 0.442358
vt 0.726992 0.439206
vt 0.720446 0.442358
vt 0.719727 0.439206
vt 0.726992 0.439206
vt 0.719727 0.439206
vt 0.720446 0.436053
vt 0.726992 0.439206
vt 0.720446 0.436053
vt 0.722462 0.433525
vt 0.726992 0.439206
vt 0.722462 0.433525
vt 0.725375 0.432122
vt 0.726992 0.439206
vt 0.725375 0.432122
vt 0.728609 0.432122
vt 0.726992 0.439206
vt 0.728609 0.432122
vt 0.731522 0.433525
vt 0.726992 0.439206
vt 0.731522 0.433525
vt 0.733538 0.436053
vt 0.726992 0.439206
vt 0.733538 0.436053
vt 0.734258 0.439206
vt 0.726992 0.439206
vt 0.734258 0.439206
vt 0.733538 0.442358
vt 0.726992 0.439206
vt 0.733538 0.442358
vt 0.731522 0.444886
vt 0.726992 0.439206
vt 0.731522 0.444886
vt 0.728609 0.446289
vt 0.726992 0.439206
vt 0.728609 0.446289
vt 0.725375 0.446289
vt 0.110352 0.139648
vt 0.110352 0.136415
vt 0.115039 0.136415
vt 0.115039 0.139648
vt 0.522461 0.149414
vt 0.522461 0.146181
vt 0.527148 0.146181
vt 0.527148 0.149414
vt 0.639648 0.149414
vt 0.639648 0.146181
vt 0.644336 0.146181
vt 0.644336 0.149414
vt 0.651367 0.149414
vt 0.651367 0.146181
vt 0.656055 0.146181
vt 0.656055 0.149414
vt 0.157227 0.139648
vt 0.157227 0.136415
vt 0.161914 0.136415
vt 0.161914 0.139648
vt 0.874023 0.149414
vt 0.874023 0.146181
vt 0.878711 0.146181
vt 0.878711 0.149414
vt 0.885742 0.149414
vt 0.885742 0.146181
vt 0.89043 0.146181
vt 0.89043 0.149414
vt 0.667773 0.146181
vt 0.667773 0.149414
vt 0.663086 0.149414
vt 0.663086 0.146181
vt 0.902148 0.146181
vt 0.902148 0.149414
vt 0.897461 0.149414
vt 0.897461 0.146181
vt 0.679492 0.146181
vt 0.679492 0.149414
vt 0.674805 0.149414
vt 0.674805 0.146181
vt 0.691211 0.146181
vt 0.691211 0.149414
vt 0.686523 0.149414
vt 0.686523 0.146181
vt 0.550586 0.146181
vt 0.550586 0.149414
vt 0.545898 0.149414
vt 0.545898 0.146181
vt 0.913867 0.146181
vt 0.913867 0.149414
vt 0.90918 0.149414
vt 0.90918 0.146181
vt 0.925586 0.146181
vt 0.925586 0.149414
vt 0.920898 0.149414
vt 0.920898 0.146181
vt 0.753007 0.444886
vt 0.750093 0.446289
vt 0.748477 0.439206
vt 0.755023 0.442358
vt 0.753007 0.444886
vt 0.748477 0.439206
vt 0.755742 0.439206
vt 0.755023 0.442358
vt 0.748477 0.439206
vt 0.755023 0.436053
vt 0.755742 0.439206
vt 0.748477 0.439206
vt 0.753007 0.433525
vt 0.755023 0.436053
vt 0.748477 0.439206
vt 0.750093 0.432122
vt 0.753007 0.433525
vt 0.748477 0.439206
vt 0.74686 0.432122
vt 0.750093 0.432122
vt 0.748477 0.439206
vt 0.743947 0.433525
vt 0.74686 0.432122
vt 0.748477 0.439206
vt 0.74193 0.436053
vt 0.743947 0.433525
vt 0.748477 0.439206
vt 0.741211 0.439206
vt 0.74193 0.436053
vt 0.748477 0.439206
vt 0.74193 0.442358
vt 0.741211 0.439206
vt 0.748477 0.439206
vt 0.743947 0.444886
vt 0.74193 0.442358
vt 0.748477 0.439206
vt 0.74686 0.446289
vt 0.743947 0.444886
vt 0.748477 0.439206
vt 0.750093 0.446289
vt 0.74686 0.446289
vt 0.748477 0.439206
vt 0.769961 0.439206
vt 0.768344 0.446289
vt 0.765431 0.444886
vt 0.769961 0.439206
vt 0.765431 0.444886
vt 0.763415 0.442358
vt 0.769961 0.439206
vt 0.763415 0.442358
vt 0.762695 0.439206
vt 0.769961 0.439206
vt 0.762695 0.439206
vt 0.763415 0.436053
vt 0.769961 0.439206
vt 0.763415 0.436053
vt 0.765431 0.433525
vt 0.769961 0.439206
vt 0.765431 0.433525
vt 0.768344 0.432122
vt 0.769961 0.439206
vt 0.768344 0.432122
vt 0.771578 0.432122
vt 0.769961 0.439206
vt 0.771578 0.432122
vt 0.774491 0.433525
vt 0.769961 0.439206
vt 0.774491 0.433525
vt 0.776507 0.436053
vt 0.769961 0.439206
vt 0.776507 0.436053
vt 0.777227 0.439206
vt 0.769961 0.439206
vt 0.777227 0.439206
vt 0.776507 0.442358
vt 0.769961 0.439206
vt 0.776507 0.442358
vt 0.774491 0.444886
vt 0.769961 0.439206
vt 0.774491 0.444886
vt 0.771578 0.446289
vt 0.769961 0.439206
vt 0.771578 0.446289
vt 0.768344 0.446289
vt 0.698242 0.149414
vt 0.698242 0.146181
vt 0.70293 0.146181
vt 0.70293 0.149414
vt 0.932617 0.149414
vt 0.932617 0.146181
vt 0.937305 0.146181
vt 0.937305 0.149414
vt 0.709961 0.149414
vt 0.709961 0.146181
vt 0.714648 0.146181
vt 0.714648 0.149414
vt 0.72168 0.149414
vt 0.72168 0.146181
vt 0.726367 0.146181
vt 0.726367 0.149414
vt 0.168945 0.139648
vt 0.168945 0.136415
vt 0.173633 0.136415
vt 0.173633 0.139648
vt 0.944336 0.149414
vt 0.944336 0.146181
vt 0.949023 0.146181
vt 0.949023 0.149414
vt 0.956055 0.149414
vt 0.956055 0.146181
vt 0.960742 0.146181
vt 0.960742 0.149414
vt 0.126758 0.136415
vt 0.126758 0.139648
vt 0.12207 0.139648
vt 0.12207 0.136415
vt 0.538867 0.146181
vt 0.538867 0.149414
vt 0.53418 0.149414
vt 0.53418 0.146181
vt 0.738086 0.146181
vt 0.738086 0.149414
vt 0.733398 0.149414
vt 0.733398 0.146181
vt 0.091602 0.136415
vt 0.091602 0.139648
vt 0.086914 0.139648
vt 0.086914 0.136415
vt 0.185352 0.136415
vt 0.185352 0.139648
vt 0.180664 0.139648
vt 0.180664 0.136415
vt 0.972461 0.146181
vt 0.972461 0.149414
vt 0.967773 0.149414
vt 0.967773 0.146181
vt 0.98418 0.146181
vt 0.98418 0.149414
vt 0.979492 0.149414
vt 0.979492 0.146181
vt 0.795975 0.444886
vt 0.793062 0.446289
vt 0.791445 0.439206
vt 0.797991 0.442358
vt 0.795975 0.444886
vt 0.791445 0.439206
vt 0.798711 0.439206
vt 0.797991 0.442358
vt 0.791445 0.439206
vt 0.797991 0.436053
vt 0.798711 0.439206
vt 0.791445 0.439206
vt 0.795975 0.433525
vt 0.797991 0.436053
vt 0.791445 0.439206
vt 0.793062 0.432122
vt 0.795975 0.433525
vt 0.791445 0.439206
vt 0.789829 0.432122
vt 0.793062 0.432122
vt 0.791445 0.439206
vt 0.786915 0.433525
vt 0.789829 0.432122
vt 0.791445 0.439206
vt 0.784899 0.436053
vt 0.786915 0.433525
vt 0.791445 0.439206
vt 0.78418 0.439206
vt 0.784899 0.436053
vt 0.791445 0.439206
vt 0.784899 0.442358
vt 0.78418 0.439206
vt 0.791445 0.439206
vt 0.786915 0.444886
vt 0.784899 0.442358
vt 0.791445 0.439206
vt 0.789829 0.446289
vt 0.786915 0.444886
vt 0.791445 0.439206
vt 0.793062 0.446289
vt 0.789829 0.446289
vt 0.791445 0.439206
vt 0.81293 0.439206
vt 0.811313 0.446289
vt 0.8084 0.444886
vt 0.81293 0.439206
vt 0.8084 0.444886
vt 0.806384 0.442358
vt 0.81293 0.439206
vt 0.806384 0.442358
vt 0.805664 0.439206
vt 0.81293 0.439206
vt 0.805664 0.439206
vt 0.806384 0.436053
vt 0.81293 0.439206
vt 0.806384 0.436053
vt 0.8084 0.433525
vt 0.81293 0.439206
vt 0.8084 0.433525
vt 0.811313 0.432122
vt 0.81293 0.439206
vt 0.811313 0.432122
vt 0.814546 0.432122
vt 0.81293 0.439206
vt 0.814546 0.432122
vt 0.81746 0.433525
vt 0.81293 0.439206
vt 0.81746 0.433525
vt 0.819476 0.436053
vt 0.81293 0.439206
vt 0.819476 0.436053
vt 0.820195 0.439206
vt 0.81293 0.439206
vt 0.820195 0.439206
vt 0.819476 0.442358
vt 0.81293 0.439206
vt 0.819476 0.442358
vt 0.81746 0.444886
vt 0.81293 0.439206
vt 0.81746 0.444886
vt 0.814546 0.446289
vt 0.81293 0.439206
vt 0.814546 0.446289
vt 0.811313 0.446289
vt 0.133789 0.139648
vt 0.133789 0.136415
vt 0.138477 0.136415
vt 0.138477 0.139648
vt 0.569336 0.149414
vt 0.569336 0.146181
vt 0.574023 0.146181
vt 0.574023 0.149414
vt 0.745117 0.149414
vt 0.745117 0.146181
vt 0.749805 0.146181
vt 0.749805 0.149414
vt 0.756836 0.149414
vt 0.756836 0.146181
vt 0.761523 0.146181
vt 0.761523 0.149414
vt 0.004883 0.139648
vt 0.004883 0.136415
vt 0.00957 0.136415
vt 0.00957 0.139648
vt 0.016602 0.139648
vt 0.016602 0.136415
vt 0.021289 0.136415
vt 0.021289 0.139648
vt 0.02832 0.139648
vt 0.02832 0.136415
vt 0.033008 0.136415
vt 0.033008 0.139648
vt 0.773242 0.146181
vt 0.773242 0.149414
vt 0.768555 0.149414
vt 0.768555 0.146181
vt 0.044727 0.136415
vt 0.044727 0.139648
vt 0.040039 0.139648
vt 0.040039 0.136415
vt 0.784961 0.146181
vt 0.784961 0.149414
vt 0.780273 0.149414
vt 0.780273 0.146181
vt 0.79668 0.146181
vt 0.79668 0.149414
vt 0.791992 0.149414
vt 0.791992 0.146181
vt 0.056445 0.136415
vt 0.056445 0.139648
vt 0.051758 0.139648
vt 0.051758 0.136415
vt 0.068164 0.136415
vt 0.068164 0.139648
vt 0.063477 0.139648
vt 0.063477 0.136415
vt 0.079883 0.136415
vt 0.079883 0.139648
vt 0.075195 0.139648
vt 0.075195 0.136415
vt 0.838944 0.444886
vt 0.836031 0.446289
vt 0.834414 0.439206
vt 0.84096 0.442358
vt 0.838944 0.444886
vt 0.834414 0.439206
vt 0.84168 0.439206
vt 0.84096 0.442358
vt 0.834414 0.439206
vt 0.84096 0.436053
vt 0.84168 0.439206
vt 0.834414 0.439206
vt 0.838944 0.433525
vt 0.84096 0.436053
vt 0.834414 0.439206
vt 0.836031 0.432122
vt 0.838944 0.433525
vt 0.834414 0.439206
vt 0.832797 0.432122
vt 0.836031 0.432122
vt 0.834414 0.439206
vt 0.829884 0.433525
vt 0.832797 0.432122
vt 0.834414 0.439206
vt 0.827868 0.436053
vt 0.829884 0.433525
vt 0.834414 0.439206
vt 0.827148 0.439206
vt 0.827868 0.436053
vt 0.834414 0.439206
vt 0.827868 0.442358
vt 0.827148 0.439206
vt 0.834414 0.439206
vt 0.829884 0.444886
vt 0.827868 0.442358
vt 0.834414 0.439206
vt 0.832797 0.446289
vt 0.829884 0.444886
vt 0.834414 0.439206
vt 0.836031 0.446289
vt 0.832797 0.446289
vt 0.834414 0.439206
vt 0.855898 0.439206
vt 0.854282 0.446289
vt 0.851368 0.444886
vt 0.855898 0.439206
vt 0.851368 0.444886
vt 0.849352 0.442358
vt 0.855898 0.439206
vt 0.849352 0.442358
vt 0.848633 0.439206
vt 0.855898 0.439206
vt 0.848633 0.439206
vt 0.849352 0.436053
vt 0.855898 0.439206
vt 0.849352 0.436053
vt 0.851368 0.433525
vt 0.855898 0.439206
vt 0.851368 0.433525
vt 0.854282 0.432122
vt 0.855898 0.439206
vt 0.854282 0.432122
vt 0.857515 0.432122
vt 0.855898 0.439206
vt 0.857515 0.432122
vt 0.860428 0.433525
vt 0.855898 0.439206
vt 0.860428 0.433525
vt 0.862445 0.436053
vt 0.855898 0.439206
vt 0.862445 0.436053
vt 0.863164 0.439206
vt 0.855898 0.439206
vt 0.863164 0.439206
vt 0.862445 0.442358
vt 0.855898 0.439206
vt 0.862445 0.442358
vt 0.860428 0.444886
vt 0.855898 0.439206
vt 0.860428 0.444886
vt 0.857515 0.446289
vt 0.855898 0.439206
vt 0.857515 0.446289
vt 0.854282 0.446289
vn 0.433884 0 0.900969
vn 0.62349 0 0.781831
vn 0.900969 0 0.433884
vn 1 0 0
vn 0.900969 0 -0.433884
vn 0.62349 0 -0.781831
vn 0.222521 0 -0.974928
vn -0.222521 0 -0.974928
vn -0.62349 0 -0.781831
vn -0.900969 0 -0.433884
vn -1 0 0
vn -0.900969 0 0.433884
vn -0.62349 0 0.781831
vn -0.433884 0 0.900969
vn 0 0 -1
vn 0 -1 0
vn 0 1 0
f 121/301/29 122/302/30 136/303/30 135/304/29
f 122/305/30 123/306/31 137/307/31 136/308/30
f 123/309/31 124/310/32 138/311/32 137/312/31
f 124/313/32 125/314/33 139/315/33 138/316/32
f 125/317/33 126/318/34 140/319/34 139/320/33
f 126/321/34 127/322/35 141/323/35 140/324/34
f 127/325/35 128/326/36 142/327/36 141/328/35
f 128/329/36 129/330/37 143/331/37 142/332/36
f 129/333/37 130/334/38 144/335/38 143/336/37
f 130/337/38 131/338/39 145/339/39 144/340/38
f 131/341/39 132/342/40 146/343/40 145/344/39
f 132/345/40 133/346/41 147/347/41 146/348/40
f 133/349/41 134/350/42 148/351/42 147/352/41
f 148/353/43 135/354/43 121/355/43 134/356/43
f 122/357/44 121/358/44 149/359/44
f 123/360/44 122/361/44 149/362/44
f 124/363/44 123/364/44 149/365/44
f 125/366/44 124/367/44 149/368/44
f 126/369/44 125/370/44 149/371/44
f 127/372/44 126/373/44 149/374/44
f 128/375/44 127/376/44 149/377/44
f 129/378/44 128/379/44 149/380/44
f 130/381/44 129/382/44 149/383/44
f 131/384/44 130/385/44 149/386/44
f 132/387/44 131/388/44 149/389/44
f 133/390/44 132/391/44 149/392/44
f 134/393/44 133/394/44 149/395/44
f 121/396/44 134/397/44 149/398/44
f 150/399/45 135/400/45 136/401/45
f 150/402/45 136/403/45 137/404/45
f 150/405/45 137/406/45 138/407/45
f 150/408/45 138/409/45 139/410/45
f 150/411/45 139/412/45 140/413/45
f 150/414/45 140/415/45 141/416/45
f 150/417/45 141/418/45 142/419/45
f 150/420/45 142/421/45 143/422/45
f 150/423/45 143/424/45 144/425/45
f 150/426/45 144/427/45 145/428/45
f 150/429/45 145/430/45 146/431/45
f 150/432/45 146/433/45 147/434/45
f 150/435/45 147/436/45 148/437/45
f 150/438/45 148/439/45 135/440/45
f 151/441/29 152/442/30 166/443/30 165/444/29
f 152/445/30 153/446/31 167/447/31 166/448/30
f 153/449/31 154/450/32 168/451/32 167/452/31
f 154/453/32 155/454/33 169/455/33 168/456/32
f 155/457/33 156/458/34 170/459/34 169/460/33
f 156/461/34 157/462/35 171/463/35 170/464/34
f 157/465/35 158/466/36 172/467/36 171/468/35
f 158/469/36 159/470/37 173/471/37 172/472/36
f 159/473/37 160/474/38 174/475/38 173/476/37
f 160/477/38 161/478/39 175/479/39 174/480/38
f 161/481/39 162/482/40 176/483/40 175/484/39
f 162/485/40 163/486/41 177/487/41 176/488/40
f 163/489/41 164/490/42 178/491/42 177/492/41
f 178/493/43 165/494/43 151/495/43 164/496/43
f 152/497/44 151/498/44 179/499/44
f 153/500/44 152/501/44 179/502/44
f 154/503/44 153/504/44 179/505/44
f 155/506/44 154/507/44 179/508/44
f 156/509/44 155/510/44 179/511/44
f 157/512/44 156/513/44 179/514/44
f 158/515/44 157/516/44 179/517/44
f 159/518/44 158/519/44 179/520/44
f 160/521/44 159/522/44 179/523/44
f 161/524/44 160/525/44 179/526/44
f 162/527/44 161/528/44 179/529/44
f 163/530/44 162/531/44 179/532/44
f 164/533/44 163/534/44 179/535/44
f 151/536/44 164/537/44 179/538/44
f 180/539/45 165/540/45 166/541/45
f 180/542/45 166/543/45 167/544/45
f 180/545/45 167/546/45 168/547/45
f 180/548/45 168/549/45 169/550/45
f 180/551/45 169/552/45 170/553/45
f 180/554/45 170/555/45 171/556/45
f 180/557/45 171/558/45 172/559/45
f 180/560/45 172/561/45 173/562/45
f 180/563/45 173/564/45 174/565/45
f 180/566/45 174/567/45 175/568/45
f 180/569/45 175/570/45 176/571/45
f 180/572/45 176/573/45 177/574/45
f 180/575/45 177/576/45 178/577/45
f 180/578/45 178/579/45 165/580/45
f 181/581/29 182/582/30 196/583/30 195/584/29
f 182/585/30 183/586/31 197/587/31 196/588/30
f 183/589/31 184/590/32 198/591/32 197/592/31
f 184/593/32 185/594/33 199/595/33 198/596/32
f 185/597/33 186/598/34 200/599/34 199/600/33
f 186/601/34 187/602/35 201/603/35 200/604/34
f 187/605/35 188/606/36 202/607/36 201/608/35
f 188/609/36 189/610/37 203/611/37 202/612/36
f 189/613/37 190/614/38 204/615/38 203/616/37
f 190/617/38 191/618/39 205/619/39 204/620/38
f 191/621/39 192/622/40 206/623/40 205/624/39
f 192/625/40 193/626/41 207/627/41 206/628/40
f 193/629/41 194/630/42 208/631/42 207/632/41
f 208/633/43 195/634/43 181/635/43 194/636/43
f 182/637/44 181/638/44 209/639/44
f 183/640/44 182/641/44 209/642/44
f 184/643/44 183/644/44 209/645/44
f 185/646/44 184/647/44 209/648/44
f 186/649/44 185/650/44 209/651/44
f 187/652/44 186/653/44 209/654/44
f 188/655/44 187/656/44 209/657/44
f 189/658/44 188/659/44 209/660/44
f 190/661/44 189/662/44 209/663/44
f 191/664/44 190/665/44 209/666/44
f 192/667/44 191/668/44 209/669/44
f 193/670/44 192/671/44 209/672/44
f 194/673/44 193/674/44 209/675/44
f 181/676/44 194/677/44 209/678/44
f 210/679/45 195/680/45 196/681/45
f 210/682/45 196/683/45 197/684/45
f 210/685/45 197/686/45 198/687/45
f 210/688/45 198/689/45 199/690/45
f 210/691/45 199/692/45 200/693/45
f 210/694/45 200/695/45 201/696/45
f 210/697/45 201/698/45 202/699/45
f 210/700/45 202/701/45 203/702/45
f 210/703/45 203/704/45 204/705/45
f 210/706/45 204/707/45 205/708/45
f 210/709/45 205/710/45 206/711/45
f 210/712/45 206/713/45 207/714/45
f 210/715/45 207/716/45 208/717/45
f 210/718/45 208/719/45 195/720/45
f 211/721/29 212/722/30 226/723/30 225/724/29
f 212/725/30 213/726/31 227/727/31 226/728/30
f 213/729/31 214/730/32 228/731/32 227/732/31
f 214/733/32 215/734/33 229/735/33 228/736/32
f 215/737/33 216/738/34 230/739/34 229/740/33
f 216/741/34 217/742/35 231/743/35 230/744/34
f 217/745/35 218/746/36 232/747/36 231/748/35
f 218/749/36 219/750/37 233/751/37 232/752/36
f 219/753/37 220/754/38 234/755/38 233/756/37
f 220/757/38 221/758/39 235/759/39 234/760/38
f 221/761/39 222/762/40 236/763/40 235/764/39
f 222/765/40 223/766/41 237/767/41 236/768/40
f 223/769/41 224/770/42 238/771/42 237/772/41
f 238/773/43 225/774/43 211/775/43 224/776/43
f 212/777/44 211/778/44 239/779/44
f 213/780/44 212/781/44 239/782/44
f 214/783/44 213/784/44 239/785/44
f 215/786/44 214/787/44 239/788/44
f 216/789/44 215/790/44 239/791/44
f 217/792/44 216/793/44 239/794/44
f 218/795/44 217/796/44 239/797/44
f 219/798/44 218/799/44 239/800/44
f 220/801/44 219/802/44 239/803/44
f 221/804/44 220/805/44 239/806/44
f 222/807/44 221/808/44 239/809/44
f 223/810/44 222/811/44 239/812/44
f 224/813/44 223/814/44 239/815/44
f 211/816/44 224/817/44 239/818/44
f 240/819/45 225/820/45 226/821/45
f 240/822/45 226/823/45 227/824/45
f 240/825/45 227/826/45 228/827/45
f 240/828/45 228/829/45 229/830/45
f 240/831/45 229/832/45 230/833/45
f 240/834/45 230/835/45 231/836/45
f 240/837/45 231/838/45 232/839/45
f 240/840/45 232/841/45 233/842/45
f 240/843/45 233/844/45 234/845/45
f 240/846/45 234/847/45 235/848/45
f 240/849/45 235/850/45 236/851/45
f 240/852/45 236/853/45 237/854/45
f 240/855/45 237/856/45 238/857/45
f 240/858/45 238/859/45 225/860/45
o desk_end_rails
usemtl desk
v -0.915625 0.71875 0.14375
v -0.846875 0.71875 0.14375
v -0.846875 0.76875 0.14375
v -0.915625 0.76875 0.14375
v -0.921875 0.7125 0.15
v -0.840625 0.7125 0.15
v -0.840625 0.775 0.15
v -0.921875 0.775 0.15
v -0.921875 0.7125 0.85
v -0.840625 0.7125 0.85
v -0.840625 0.775 0.85
v -0.921875 0.775 0.85
v -0.915625 0.71875 0.85625
v -0.846875 0.71875 0.85625
v -0.846875 0.76875 0.85625
v -0.915625 0.76875 0.85625
v -0.915625 0.71875 0.14375
v -0.846875 0.71875 0.14375
v -0.846875 0.76875 0.14375
v -0.915625 0.76875 0.14375
v -0.915625 0.71875 0.85625
v -0.846875 0.71875 0.85625
v -0.846875 0.76875 0.85625
v -0.915625 0.76875 0.85625
v -0.915625 0.053125 0.14375
v -0.846875 0.053125 0.14375
v -0.846875 0.103125 0.14375
v -0.915625 0.103125 0.14375
v -0.921875 0.046875 0.15
v -0.840625 0.046875 0.15
v -0.840625 0.109375 0.15
v -0.921875 0.109375 0.15
v -0.921875 0.046875 0.85
v -0.840625 0.046875 0.85
v -0.840625 0.109375 0.85
v -0.921875 0.109375 0.85
v -0.915625 0.053125 0.85625
v -0.846875 0.053125 0.85625
v -0.846875 0.103125 0.85625
v -0.915625 0.103125 0.85625
v -0.915625 0.053125 0.14375
v -0.846875 0.053125 0.14375
v -0.846875 0.103125 0.14375
v -0.915625 0.103125 0.14375
v -0.915625 0.053125 0.85625
v -0.846875 0.053125 0.85625
v -0.846875 0.103125 0.85625
v -0.915625 0.103125 0.85625
v 1.846875 0.71875 0.14375
v 1.915625 0.71875 0.14375
v 1.915625 0.76875 0.14375
v 1.846875 0.76875 0.14375
v 1.840625 0.7125 0.15
v 1.921875 0.7125 0.15
v 1.921875 0.775 0.15
v 1.840625 0.775 0.15
v 1.840625 0.7125 0.85
v 1.921875 0.7125 0.85
v 1.921875 0.775 0.85
v 1.840625 0.775 0.85
v 1.846875 0.71875 0.85625
v 1.915625 0.71875 0.85625
v 1.915625 0.76875 0.85625
v 1.846875 0.76875 0.85625
v 1.846875 0.71875 0.14375
v 1.915625 0.71875 0.14375
v 1.915625 0.76875 0.14375
v 1.846875 0.76875 0.14375
v 1.846875 0.71875 0.85625
v 1.915625 0.71875 0.85625
v 1.915625 0.76875 0.85625
v 1.846875 0.76875 0.85625
v 1.846875 0.053125 0.14375
v 1.915625 0.053125 0.14375
v 1.915625 0.103125 0.14375
v 1.846875 0.103125 0.14375
v 1.840625 0.046875 0.15
v 1.921875 0.046875 0.15
v 1.921875 0.109375 0.15
v 1.840625 0.109375 0.15
v 1.840625 0.046875 0.85
v 1.921875 0.046875 0.85
v 1.921875 0.109375 0.85
v 1.840625 0.109375 0.85
v 1.846875 0.053125 0.85625
v 1.915625 0.053125 0.85625
v 1.915625 0.103125 0.85625
v 1.846875 0.103125 0.85625
v 1.846875 0.053125 0.14375
v 1.915625 0.053125 0.14375
v 1.915625 0.103125 0.14375
v 1.846875 0.103125 0.14375
v 1.846875 0.053125 0.85625
v 1.915625 0.053125 0.85625
v 1.915625 0.103125 0.85625
v 1.846875 0.103125 0.85625
vt 0.549023 0.089163
vt 0.561914 0.089163
vt 0.563086 0.09082
vt 0.547852 0.09082
vt 0.912305 0.089163
vt 0.92168 0.089163
vt 0.922852 0.09082
vt 0.911133 0.09082
vt 0.049023 0.079397
vt 0.061914 0.079397
vt 0.063086 0.081055
vt 0.047852 0.081055
vt 0.170117 0.079397
vt 0.179492 0.079397
vt 0.180664 0.081055
vt 0.168945 0.081055
vt 0.479492 0.469727
vt 0.479492 0.454492
vt 0.610742 0.454492
vt 0.610742 0.469727
vt 0.004883 0.268555
vt 0.004883 0.256836
vt 0.136133 0.256836
vt 0.136133 0.268555
vt 0.618164 0.469727
vt 0.618164 0.454492
vt 0.749414 0.454492
vt 0.749414 0.469727
vt 0.143555 0.268555
vt 0.143555 0.256836
vt 0.274805 0.256836
vt 0.274805 0.268555
vt 0.569336 0.089163
vt 0.58457 0.089163
vt 0.583398 0.09082
vt 0.570508 0.09082
vt 0.928711 0.089163
vt 0.94043 0.089163
vt 0.939258 0.09082
vt 0.929883 0.09082
vt 0.069336 0.079397
vt 0.08457 0.079397
vt 0.083398 0.081055
vt 0.070508 0.081055
vt 0.186523 0.079397
vt 0.198242 0.079397
vt 0.19707 0.081055
vt 0.187695 0.081055
vt 0.696289 0.241602
vt 0.70918 0.241602
vt 0.70918 0.250977
vt 0.70918 0.250977
vt 0.696289 0.250977
vt 0.696289 0.241602
vt 0.71582 0.250977
vt 0.71582 0.241602
vt 0.728711 0.241602
vt 0.728711 0.241602
vt 0.728711 0.250977
vt 0.71582 0.250977
vt 0.591992 0.089163
vt 0.604883 0.089163
vt 0.606055 0.09082
vt 0.59082 0.09082
vt 0.357617 0.089163
vt 0.366992 0.089163
vt 0.368164 0.09082
vt 0.356445 0.09082
vt 0.506055 0.089163
vt 0.518945 0.089163
vt 0.520117 0.09082
vt 0.504883 0.09082
vt 0.134961 0.079397
vt 0.144336 0.079397
vt 0.145508 0.081055
vt 0.133789 0.081055
vt 0.756836 0.469727
vt 0.756836 0.454492
vt 0.888086 0.454492
vt 0.888086 0.469727
vt 0.282227 0.268555
vt 0.282227 0.256836
vt 0.413477 0.256836
vt 0.413477 0.268555
vt 0.004883 0.446289
vt 0.004883 0.431055
vt 0.136133 0.431055
vt 0.136133 0.446289
vt 0.420898 0.268555
vt 0.420898 0.256836
vt 0.552148 0.256836
vt 0.552148 0.268555
vt 0.612305 0.089163
vt 0.627539 0.089163
vt 0.626367 0.09082
vt 0.613477 0.09082
vt 0.374023 0.089163
vt 0.385742 0.089163
vt 0.38457 0.09082
vt 0.375195 0.09082
vt 0.004883 0.079397
vt 0.020117 0.079397
vt 0.018945 0.081055
vt 0.006055 0.081055
vt 0.151367 0.079397
vt 0.163086 0.079397
vt 0.161914 0.081055
vt 0.152539 0.081055
vt 0.774414 0.241602
vt 0.787305 0.241602
vt 0.787305 0.250977
vt 0.787305 0.250977
vt 0.774414 0.250977
vt 0.774414 0.241602
vt 0.793945 0.250977
vt 0.793945 0.241602
vt 0.806836 0.241602
vt 0.806836 0.241602
vt 0.806836 0.250977
vt 0.793945 0.250977
vt 0.634961 0.089163
vt 0.647852 0.089163
vt 0.649023 0.09082
vt 0.633789 0.09082
vt 0.205273 0.079397
vt 0.214648 0.079397
vt 0.21582 0.081055
vt 0.204102 0.081055
vt 0.091992 0.079397
vt 0.104883 0.079397
vt 0.106055 0.081055
vt 0.09082 0.081055
vt 0.947461 0.089163
vt 0.956836 0.089163
vt 0.958008 0.09082
vt 0.946289 0.09082
vt 0.143555 0.446289
vt 0.143555 0.431055
vt 0.274805 0.431055
vt 0.274805 0.446289
vt 0.55957 0.268555
vt 0.55957 0.256836
vt 0.69082 0.256836
vt 0.69082 0.268555
vt 0.282227 0.446289
vt 0.282227 0.431055
vt 0.413477 0.431055
vt 0.413477 0.446289
vt 0.698242 0.268555
vt 0.698242 0.256836
vt 0.829492 0.256836
vt 0.829492 0.268555
vt 0.655273 0.089163
vt 0.670508 0.089163
vt 0.669336 0.09082
vt 0.656445 0.09082
vt 0.22168 0.079397
vt 0.233398 0.079397
vt 0.232227 0.081055
vt 0.222852 0.081055
vt 0.112305 0.079397
vt 0.127539 0.079397
vt 0.126367 0.081055
vt 0.113477 0.081055
vt 0.963867 0.089163
vt 0.975586 0.089163
vt 0.974414 0.09082
vt 0.965039 0.09082
vt 0.735352 0.241602
vt 0.748242 0.241602
vt 0.748242 0.250977
vt 0.748242 0.250977
vt 0.735352 0.250977
vt 0.735352 0.241602
vt 0.754883 0.250977
vt 0.754883 0.241602
vt 0.767773 0.241602
vt 0.767773 0.241602
vt 0.767773 0.250977
vt 0.754883 0.250977
vt 0.67793 0.089163
vt 0.69082 0.089163
vt 0.691992 0.09082
vt 0.676758 0.09082
vt 0.392773 0.089163
vt 0.402148 0.089163
vt 0.40332 0.09082
vt 0.391602 0.09082
vt 0.527539 0.089163
vt 0.54043 0.089163
vt 0.541602 0.09082
vt 0.526367 0.09082
vt 0.877148 0.089163
vt 0.886523 0.089163
vt 0.887695 0.09082
vt 0.875977 0.09082
vt 0.420898 0.446289
vt 0.420898 0.431055
vt 0.552148 0.431055
vt 0.552148 0.446289
vt 0.836914 0.268555
vt 0.836914 0.256836
vt 0.968164 0.256836
vt 0.968164 0.268555
vt 0.55957 0.446289
vt 0.55957 0.431055
vt 0.69082 0.431055
vt 0.69082 0.446289
vt 0.004883 0.250977
vt 0.004883 0.239258
vt 0.136133 0.239258
vt 0.136133 0.250977
vt 0.698242 0.089163
vt 0.713477 0.089163
vt 0.712305 0.09082
vt 0.699414 0.09082
vt 0.40918 0.089163
vt 0.420898 0.089163
vt 0.419727 0.09082
vt 0.410352 0.09082
vt 0.026367 0.079397
vt 0.041602 0.079397
vt 0.04043 0.081055
vt 0.027539 0.081055
vt 0.893555 0.089163
vt 0.905273 0.089163
vt 0.904102 0.09082
vt 0.894727 0.09082
vt 0.813477 0.241602
vt 0.826367 0.241602
vt 0.826367 0.250977
vt 0.826367 0.250977
vt 0.813477 0.250977
vt 0.813477 0.241602
vt 0.833008 0.250977
vt 0.833008 0.241602
vt 0.845898 0.241602
vt 0.845898 0.241602
vt 0.845898 0.250977
vt 0.833008 0.250977
vn 0 -0.707107 -0.707107
vn 0.707107 0 -0.707107
vn 0 0.707107 -0.707107
vn -0.707107 0 -0.707107
vn 0 -1 0
vn 1 0 0
vn 0 1 0
vn -1 0 0
vn 0 -0.707107 0.707107
vn 0.707107 0 0.707107
vn 0 0.707107 0.707107
vn -0.707107 0 0.707107
vn 0 0 -1
vn 0 0 1
f 241/861/46 242/862/46 246/863/46 245/864/46
f 242/865/47 243/866/47 247/867/47 246/868/47
f 243/869/48 244/870/48 248/871/48 247/872/48
f 244/873/49 241/874/49 245/875/49 248/876/49
f 245/877/50 246/878/50 250/879/50 249/880/50
f 246/881/51 247/882/51 251/883/51 250/884/51
f 247/885/52 248/886/52 252/887/52 251/888/52
f 248/889/53 245/890/53 249/891/53 252/892/53
f 249/893/54 250/894/54 254/895/54 253/896/54
f 250/897/55 251/898/55 255/899/55 254/900/55
f 251/901/56 252/902/56 256/903/56 255/904/56
f 252/905/57 249/906/57 253/907/57 256/908/57
f 258/909/58 257/910/58 260/911/58
f 260/912/58 259/913/58 258/914/58
f 264/915/59 261/916/59 262/917/59
f 262/918/59 263/919/59 264/920/59
f 265/921/46 266/922/46 270/923/46 269/924/46
f 266/925/47 267/926/47 271/927/47 270/928/47
f 267/929/48 268/930/48 272/931/48 271/932/48
f 268/933/49 265/934/49 269/935/49 272/936/49
f 269/937/50 270/938/50 274/939/50 273/940/50
f 270/941/51 271/942/51 275/943/51 274/944/51
f 271/945/52 272/946/52 276/947/52 275/948/52
f 272/949/53 269/950/53 273/951/53 276/952/53
f 273/953/54 274/954/54 278/955/54 277/956/54
f 274/957/55 275/958/55 279/959/55 278/960/55
f 275/961/56 276/962/56 280/963/56 279/964/56
f 276/965/57 273/966/57 277/967/57 280/968/57
f 282/969/58 281/970/58 284/971/58
f 284/972/58 283/973/58 282/974/58
f 288/975/59 285/976/59 286/977/59
f 286/978/59 287/979/59 288/980/59
f 289/981/46 290/982/46 294/983/46 293/984/46
f 290/985/47 291/986/47 295/987/47 294/988/47
f 291/989/48 292/990/48 296/991/48 295/992/48
f 292/993/49 289/994/49 293/995/49 296/996/49
f 293/997/50 294/998/50 298/999/50 297/1000/50
f 294/1001/51 295/1002/51 299/1003/51 298/1004/51
f 295/1005/52 296/1006/52 300/1007/52 299/1008/52
f 296/1009/53 293/1010/53 297/1011/53 300/1012/53
f 297/1013/54 298/1014/54 302/1015/54 301/1016/54
f 298/1017/55 299/1018/55 303/1019/55 302/1020/55
f 299/1021/56 300/1022/56 304/1023/56 303/1024/56
f 300/1025/57 297/1026/57 301/1027/57 304/1028/57
f 306/1029/58 305/1030/58 308/1031/58
f 308/1032/58 307/1033/58 306/1034/58
f 312/1035/59 309/1036/59 310/1037/59
f 310/1038/59 311/1039/59 312/1040/59
f 313/1041/46 314/1042/46 318/1043/46 317/1044/46
f 314/1045/47 315/1046/47 319/1047/47 318/1048/47
f 315/1049/48 316/1050/48 320/1051/48 319/1052/48
f 316/1053/49 313/1054/49 317/1055/49 320/1056/49
f 317/1057/50 318/1058/50 322/1059/50 321/1060/50
f 318/1061/51 319/1062/51 323/1063/51 322/1064/51
f 319/1065/52 320/1066/52 324/1067/52 323/1068/52
f 320/1069/53 317/1070/53 321/1071/53 324/1072/53
f 321/1073/54 322/1074/54 326/1075/54 325/1076/54
f 322/1077/55 323/1078/55 327/1079/55 326/1080/55
f 323/1081/56 324/1082/56 328/1083/56 327/1084/56
f 324/1085/57 321/1086/57 325/1087/57 328/1088/57
f 330/1089/58 329/1090/58 332/1091/58
f 332/1092/58 331/1093/58 330/1094/58
f 336/1095/59 333/1096/59 334/1097/59
f 334/1098/59 335/1099/59 336/1100/59
o desk_beams
usemtl desk
v -0.85 0.709375 0.159375
v -0.85 0.709375 0.215625
v -0.85 0.76625 0.215625
v -0.85 0.76625 0.159375
v -0.84375 0.703125 0.153125
v -0.84375 0.703125 0.221875
v -0.84375 0.7725 0.221875
v -0.84375 0.7725 0.153125
v 1.84375 0.703125 0.153125
v 1.84375 0.703125 0.221875
v 1.84375 0.7725 0.221875
v 1.84375 0.7725 0.153125
v 1.85 0.709375 0.159375
v 1.85 0.709375 0.215625
v 1.85 0.76625 0.215625
v 1.85 0.76625 0.159375
v -0.85 0.709375 0.159375
v -0.85 0.709375 0.215625
v -0.85 0.76625 0.215625
v -0.85 0.76625 0.159375
v 1.85 0.709375 0.159375
v 1.85 0.709375 0.215625
v 1.85 0.76625 0.215625
v 1.85 0.76625 0.159375
v -0.85 0.709375 0.784375
v -0.85 0.709375 0.840625
v -0.85 0.76625 0.840625
v -0.85 0.76625 0.784375
v -0.84375 0.703125 0.778125
v -0.84375 0.703125 0.846875
v -0.84375 0.7725 0.846875
v -0.84375 0.7725 0.778125
v 1.84375 0.703125 0.778125
v 1.84375 0.703125 0.846875
v 1.84375 0.7725 0.846875
v 1.84375 0.7725 0.778125
v 1.85 0.709375 0.784375
v 1.85 0.709375 0.840625
v 1.85 0.76625 0.840625
v 1.85 0.76625 0.784375
v -0.85 0.709375 0.784375
v -0.85 0.709375 0.840625
v -0.85 0.76625 0.840625
v -0.85 0.76625 0.784375
v 1.85 0.709375 0.784375
v 1.85 0.709375 0.840625
v 1.85 0.76625 0.840625
v 1.85 0.76625 0.784375
vt 0.797852 0.089163
vt 0.810742 0.089163
vt 0.80957 0.09082
vt 0.799023 0.09082
vt 0.291328 0.09082
vt 0.27832 0.09082
vt 0.279492 0.089163
vt 0.290156 0.089163
vt 0.439648 0.09082
vt 0.426758 0.09082
vt 0.42793 0.089163
vt 0.438477 0.089163
vt 0.719727 0.089163
vt 0.732734 0.089163
vt 0.731563 0.09082
vt 0.720898 0.09082
vt 0.508789 0.333789
vt 0.508789 0.34668
vt 0.004883 0.34668
vt 0.004883 0.333789
vt 0.508789 0.411797
vt 0.508789 0.424805
vt 0.004883 0.424805
vt 0.004883 0.411797
vt 0.004883 0.327148
vt 0.004883 0.314258
vt 0.508789 0.314258
vt 0.508789 0.327148
vt 0.004883 0.405273
vt 0.004883 0.392266
vt 0.508789 0.392266
vt 0.508789 0.405273
vt 0.818555 0.089163
vt 0.829102 0.089163
vt 0.830273 0.09082
vt 0.817383 0.09082
vt 0.299023 0.089163
vt 0.309688 0.089163
vt 0.310859 0.09082
vt 0.297852 0.09082
vt 0.458008 0.09082
vt 0.447461 0.09082
vt 0.446289 0.089163
vt 0.45918 0.089163
vt 0.751094 0.09082
vt 0.74043 0.09082
vt 0.739258 0.089163
vt 0.752266 0.089163
vt 0.547852 0.24043
vt 0.558516 0.24043
vt 0.558516 0.250977
vt 0.558516 0.250977
vt 0.547852 0.250977
vt 0.547852 0.24043
vt 0.56543 0.250977
vt 0.56543 0.24043
vt 0.576094 0.24043
vt 0.576094 0.24043
vt 0.576094 0.250977
vt 0.56543 0.250977
vt 0.836914 0.089163
vt 0.849805 0.089163
vt 0.848633 0.09082
vt 0.838086 0.09082
vt 0.771797 0.09082
vt 0.758789 0.09082
vt 0.759961 0.089163
vt 0.770625 0.089163
vt 0.478711 0.09082
vt 0.46582 0.09082
vt 0.466992 0.089163
vt 0.477539 0.089163
vt 0.317383 0.089163
vt 0.330391 0.089163
vt 0.329219 0.09082
vt 0.318555 0.09082
vt 0.508789 0.294727
vt 0.508789 0.307617
vt 0.004883 0.307617
vt 0.004883 0.294727
vt 0.508789 0.372734
vt 0.508789 0.385742
vt 0.004883 0.385742
vt 0.004883 0.372734
vt 0.004883 0.288086
vt 0.004883 0.275195
vt 0.508789 0.275195
vt 0.508789 0.288086
vt 0.004883 0.366211
vt 0.004883 0.353203
vt 0.508789 0.353203
vt 0.508789 0.366211
vt 0.857617 0.089163
vt 0.868164 0.089163
vt 0.869336 0.09082
vt 0.856445 0.09082
vt 0.779492 0.089163
vt 0.790156 0.089163
vt 0.791328 0.09082
vt 0.77832 0.09082
vt 0.49707 0.09082
vt 0.486523 0.09082
vt 0.485352 0.089163
vt 0.498242 0.089163
vt 0.34875 0.09082
vt 0.338086 0.09082
vt 0.336914 0.089163
vt 0.349922 0.089163
vt 0.583008 0.24043
vt 0.593672 0.24043
vt 0.593672 0.250977
vt 0.593672 0.250977
vt 0.583008 0.250977
vt 0.583008 0.24043
vt 0.600586 0.250977
vt 0.600586 0.24043
vt 0.61125 0.24043
vt 0.61125 0.24043
vt 0.61125 0.250977
vt 0.600586 0.250977
vn -0.707107 -0.707107 0
vn -0.707107 0 0.707107
vn -0.707107 0.707107 0
vn -0.707107 0 -0.707107
vn 0 -1 0
vn 0 0 1
vn 0 1 0
vn 0 0 -1
vn 0.707107 -0.707107 0
vn 0.707107 0 0.707107
vn 0.707107 0.707107 0
vn 0.707107 0 -0.707107
vn -1 0 0
vn 1 0 0
f 341/1101/60 342/1102/60 338/1103/60 337/1104/60
f 342/1105/61 343/1106/61 339/1107/61 338/1108/61
f 343/1109/62 344/1110/62 340/1111/62 339/1112/62
f 344/1113/63 341/1114/63 337/1115/63 340/1116/63
f 345/1117/64 346/1118/64 342/1119/64 341/1120/64
f 346/1121/65 347/1122/65 343/1123/65 342/1124/65
f 347/1125/66 348/1126/66 344/1127/66 343/1128/66
f 348/1129/67 345/1130/67 341/1131/67 344/1132/67
f 349/1133/68 350/1134/68 346/1135/68 345/1136/68
f 350/1137/69 351/1138/69 347/1139/69 346/1140/69
f 351/1141/70 352/1142/70 348/1143/70 347/1144/70
f 352/1145/71 349/1146/71 345/1147/71 348/1148/71
f 356/1149/72 353/1150/72 354/1151/72
f 354/1152/72 355/1153/72 356/1154/72
f 358/1155/73 357/1156/73 360/1157/73
f 360/1158/73 359/1159/73 358/1160/73
f 365/1161/60 366/1162/60 362/1163/60 361/1164/60
f 366/1165/61 367/1166/61 363/1167/61 362/1168/61
f 367/1169/62 368/1170/62 364/1171/62 363/1172/62
f 368/1173/63 365/1174/63 361/1175/63 364/1176/63
f 369/1177/64 370/1178/64 366/1179/64 365/1180/64
f 370/1181/65 371/1182/65 367/1183/65 366/1184/65
f 371/1185/66 372/1186/66 368/1187/66 367/1188/66
f 372/1189/67 369/1190/67 365/1191/67 368/1192/67
f 373/1193/68 374/1194/68 370/1195/68 369/1196/68
f 374/1197/69 375/1198/69 371/1199/69 370/1200/69
f 375/1201/70 376/1202/70 372/1203/70 371/1204/70
f 376/1205/71 373/1206/71 369/1207/71 372/1208/71
f 380/1209/72 377/1210/72 378/1211/72
f 378/1212/72 379/1213/72 380/1214/72
f 382/1215/73 381/1216/73 384/1217/73
f 384/1218/73 383/1219/73 382/1220/73
o desk_modesty_panel
usemtl desk
v -0.78125 0.403125 0.78875
v -0.78125 0.403125 0.81125
v -0.78125 0.703125 0.81125
v -0.78125 0.703125 0.78875
v 1.78125 0.403125 0.78875
v 1.78125 0.403125 0.81125
v 1.78125 0.703125 0.81125
v 1.78125 0.703125 0.78875
v -0.78125 0.403125 0.78875
v -0.78125 0.403125 0.81125
v -0.78125 0.703125 0.81125
v -0.78125 0.703125 0.78875
v 1.78125 0.403125 0.78875
v 1.78125 0.403125 0.81125
v 1.78125 0.703125 0.81125
v 1.78125 0.703125 0.78875
v -0.778125 0.3875 0.784375
v -0.778125 0.3875 0.83125
v -0.778125 0.40625 0.83125
v -0.778125 0.40625 0.784375
v 1.778125 0.3875 0.784375
v 1.778125 0.3875 0.83125
v 1.778125 0.40625 0.83125
v 1.778125 0.40625 0.784375
v -0.778125 0.3875 0.784375
v -0.778125 0.3875 0.83125
v -0.778125 0.40625 0.83125
v -0.778125 0.40625 0.784375
v 1.778125 0.3875 0.784375
v 1.778125 0.3875 0.83125
v 1.778125 0.40625 0.83125
v 1.778125 0.40625 0.784375
vt 0.485352 0.168633
vt 0.485352 0.172852
vt 0.004883 0.172852
vt 0.004883 0.168633
vt 0.485352 0.559961
vt 0.485352 0.616211
vt 0.004883 0.616211
vt 0.004883 0.559961
vt 0.491211 0.172852
vt 0.491211 0.168633
vt 0.97168 0.168633
vt 0.97168 0.172852
vt 0.491211 0.616211
vt 0.491211 0.559961
vt 0.97168 0.559961
vt 0.97168 0.616211
vt 0.004883 0.156914
vt 0.061133 0.156914
vt 0.061133 0.161133
vt 0.061133 0.161133
vt 0.004883 0.161133
vt 0.004883 0.156914
vt 0.067383 0.161133
vt 0.067383 0.156914
vt 0.123633 0.156914
vt 0.123633 0.156914
vt 0.123633 0.161133
vt 0.067383 0.161133
vt 0.48418 0.224609
vt 0.48418 0.233398
vt 0.004883 0.233398
vt 0.004883 0.224609
vt 0.60918 0.157617
vt 0.60918 0.161133
vt 0.129883 0.161133
vt 0.129883 0.157617
vt 0.491211 0.233398
vt 0.491211 0.224609
vt 0.970508 0.224609
vt 0.970508 0.233398
vt 0.004883 0.149414
vt 0.004883 0.145898
vt 0.48418 0.145898
vt 0.48418 0.149414
vt 0.491211 0.149414
vt 0.491211 0.145898
vt 0.5 0.145898
vt 0.5 0.145898
vt 0.5 0.149414
vt 0.491211 0.149414
vt 0.515625 0.149414
vt 0.506836 0.149414
vt 0.506836 0.145898
vt 0.506836 0.145898
vt 0.515625 0.145898
vt 0.515625 0.149414
vn 0 -1 0
vn 0 0 1
vn 0 1 0
vn 0 0 -1
vn -1 0 0
vn 1 0 0
f 389/1221/74 390/1222/74 386/1223/74 385/1224/74
f 390/1225/75 391/1226/75 387/1227/75 386/1228/75
f 391/1229/76 392/1230/76 388/1231/76 387/1232/76
f 392/1233/77 389/1234/77 385/1235/77 388/1236/77
f 396/1237/78 393/1238/78 394/1239/78
f 394/1240/78 395/1241/78 396/1242/78
f 398/1243/79 397/1244/79 400/1245/79
f 400/1246/79 399/1247/79 398/1248/79
f 405/1249/74 406/1250/74 402/1251/74 401/1252/74
f 406/1253/75 407/1254/75 403/1255/75 402/1256/75
f 407/1257/76 408/1258/76 404/1259/76 403/1260/76
f 408/1261/77 405/1262/77 401/1263/77 404/1264/77
f 412/1265/78 409/1266/78 410/1267/78
f 410/1268/78 411/1269/78 412/1270/78
f 414/1271/79 413/1272/79 416/1273/79
f 416/1274/79 415/1275/79 414/1276/79
o desk_cable_tray
usemtl desk
v -0.5625 0.64375 0.85
v -0.5625 0.64375 0.95625
v -0.5625 0.684375 0.95625
v -0.5625 0.684375 0.9475
v -0.5625 0.653125 0.9475
v -0.5625 0.653125 0.85875
v -0.5625 0.709375 0.85875
v -0.5625 0.709375 0.85
v 1.5625 0.64375 0.85
v 1.5625 0.64375 0.95625
v 1.5625 0.684375 0.95625
v 1.5625 0.684375 0.9475
v 1.5625 0.653125 0.9475
v 1.5625 0.653125 0.85875
v 1.5625 0.709375 0.85875
v 1.5625 0.709375 0.85
v -0.5625 0.64375 0.85
v -0.5625 0.64375 0.95625
v -0.5625 0.684375 0.95625
v -0.5625 0.684375 0.9475
v -0.5625 0.653125 0.9475
v -0.5625 0.653125 0.85875
v -0.5625 0.709375 0.85875
v -0.5625 0.709375 0.85
v 1.5625 0.64375 0.85
v 1.5625 0.64375 0.95625
v 1.5625 0.684375 0.95625
v 1.5625 0.684375 0.9475
v 1.5625 0.653125 0.9475
v 1.5625 0.653125 0.85875
v 1.5625 0.709375 0.85875
v 1.5625 0.709375 0.85
v -0.275 0.70625 0.8425
v -0.225 0.70625 0.8425
v -0.225 0.778125 0.8425
v -0.275 0.778125 0.8425
v -0.275 0.70625 0.85125
v -0.225 0.70625 0.85125
v -0.225 0.778125 0.85125
v -0.275 0.778125 0.85125
v -0.275 0.70625 0.8425
v -0.225 0.70625 0.8425
v -0.225 0.778125 0.8425
v -0.275 0.778125 0.8425
v -0.275 0.70625 0.85125
v -0.225 0.70625 0.85125
v -0.225 0.778125 0.85125
v -0.275 0.778125 0.85125
v 1.225 0.70625 0.8425
v 1.275 0.70625 0.8425
v 1.275 0.778125 0.8425
v 1.225 0.778125 0.8425
v 1.225 0.70625 0.85125
v 1.275 0.70625 0.85125
v 1.275 0.778125 0.85125
v 1.225 0.778125 0.85125
v 1.225 0.70625 0.8425
v 1.275 0.70625 0.8425
v 1.275 0.778125 0.8425
v 1.225 0.778125 0.8425
v 1.225 0.70625 0.85125
v 1.275 0.70625 0.85125
v 1.275 0.778125 0.85125
v 1.225 0.778125 0.85125
vt 0.696289 0.504492
vt 0.696289 0.524414
vt 0.297852 0.524414
vt 0.297852 0.504492
vt 0.40332 0.178906
vt 0.40332 0.186523
vt 0.004883 0.186523
vt 0.004883 0.178906
vt 0.004883 0.073242
vt 0.004883 0.071602
vt 0.40332 0.071602
vt 0.40332 0.073242
vt 0.40918 0.186523
vt 0.40918 0.180664
vt 0.807617 0.180664
vt 0.807617 0.186523
vt 0.075195 0.469727
vt 0.075195 0.453086
vt 0.473633 0.453086
vt 0.473633 0.469727
vt 0.541992 0.24043
vt 0.541992 0.250977
vt 0.143555 0.250977
vt 0.143555 0.24043
vt 0.239258 0.081055
vt 0.239258 0.079414
vt 0.637695 0.079414
vt 0.637695 0.081055
vt 0.514648 0.288086
vt 0.514648 0.275781
vt 0.913086 0.275781
vt 0.913086 0.288086
vt 0.938867 0.275781
vt 0.938867 0.283398
vt 0.937227 0.283398
vt 0.938867 0.275781
vt 0.937227 0.283398
vt 0.937227 0.277539
vt 0.918945 0.275781
vt 0.938867 0.275781
vt 0.937227 0.277539
vt 0.918945 0.275781
vt 0.937227 0.277539
vt 0.920586 0.277539
vt 0.918945 0.288086
vt 0.918945 0.275781
vt 0.920586 0.277539
vt 0.920586 0.277539
vt 0.920586 0.288086
vt 0.918945 0.288086
vt 0.96457 0.280469
vt 0.966211 0.280469
vt 0.966211 0.288086
vt 0.96457 0.286328
vt 0.96457 0.280469
vt 0.966211 0.288086
vt 0.96457 0.286328
vt 0.966211 0.288086
vt 0.946289 0.288086
vt 0.94793 0.286328
vt 0.96457 0.286328
vt 0.946289 0.288086
vt 0.94793 0.286328
vt 0.946289 0.288086
vt 0.946289 0.275781
vt 0.946289 0.275781
vt 0.94793 0.275781
vt 0.94793 0.286328
vt 0.487305 0.071602
vt 0.49668 0.071602
vt 0.49668 0.073242
vt 0.487305 0.073242
vt 0.40918 0.071602
vt 0.422656 0.071602
vt 0.422656 0.073242
vt 0.40918 0.073242
vt 0.50293 0.071602
vt 0.512305 0.071602
vt 0.512305 0.073242
vt 0.50293 0.073242
vt 0.428711 0.071602
vt 0.442187 0.071602
vt 0.442187 0.073242
vt 0.428711 0.073242
vt 0.618164 0.250977
vt 0.618164 0.241602
vt 0.631641 0.241602
vt 0.631641 0.241602
vt 0.631641 0.250977
vt 0.618164 0.250977
vt 0.651172 0.250977
vt 0.637695 0.250977
vt 0.637695 0.241602
vt 0.637695 0.241602
vt 0.651172 0.241602
vt 0.651172 0.250977
vt 0.518555 0.071602
vt 0.52793 0.071602
vt 0.52793 0.073242
vt 0.518555 0.073242
vt 0.448242 0.071602
vt 0.461719 0.071602
vt 0.461719 0.073242
vt 0.448242 0.073242
vt 0.53418 0.071602
vt 0.543555 0.071602
vt 0.543555 0.073242
vt 0.53418 0.073242
vt 0.467773 0.071602
vt 0.48125 0.071602
vt 0.48125 0.073242
vt 0.467773 0.073242
vt 0.657227 0.250977
vt 0.657227 0.241602
vt 0.670703 0.241602
vt 0.670703 0.241602
vt 0.670703 0.250977
vt 0.657227 0.250977
vt 0.690234 0.250977
vt 0.676758 0.250977
vt 0.676758 0.241602
vt 0.676758 0.241602
vt 0.690234 0.241602
vt 0.690234 0.250977
vn 0 -1 0
vn 0 0 1
vn 0 1 0
vn 0 0 -1
vn -1 0 0
vn 1 0 0
f 425/1277/80 426/1278/80 418/1279/80 417/1280/80
f 426/1281/81 427/1282/81 419/1283/81 418/1284/81
f 427/1285/82 428/1286/82 420/1287/82 419/1288/82
f 428/1289/83 429/1290/83 421/1291/83 420/1292/83
f 429/1293/82 430/1294/82 422/1295/82 421/1296/82
f 430/1297/81 431/1298/81 423/1299/81 422/1300/81
f 431/1301/82 432/1302/82 424/1303/82 423/1304/82
f 432/1305/83 425/1306/83 417/1307/83 424/1308/83
f 434/1309/84 435/1310/84 436/1311/84
f 434/1312/84 436/1313/84 437/1314/84
f 433/1315/84 434/1316/84 437/1317/84
f 433/1318/84 437/1319/84 438/1320/84
f 440/1321/84 433/1322/84 438/1323/84
f 438/1324/84 439/1325/84 440/1326/84
f 444/1327/85 443/1328/85 442/1329/85
f 445/1330/85 444/1331/85 442/1332/85
f 445/1333/85 442/1334/85 441/1335/85
f 446/1336/85 445/1337/85 441/1338/85
f 446/1339/85 441/1340/85 448/1341/85
f 448/1342/85 447/1343/85 446/1344/85
f 449/1345/80 450/1346/80 454/1347/80 453/1348/80
f 450/1349/85 451/1350/85 455/1351/85 454/1352/85
f 451/1353/82 452/1354/82 456/1355/82 455/1356/82
f 452/1357/84 449/1358/84 453/1359/84 456/1360/84
f 458/1361/83 457/1362/83 460/1363/83
f 460/1364/83 459/1365/83 458/1366/83
f 464/1367/81 461/1368/81 462/1369/81
f 462/1370/81 463/1371/81 464/1372/81
f 465/1373/80 466/1374/80 470/1375/80 469/1376/80
f 466/1377/85 467/1378/85 471/1379/85 470/1380/85
f 467/1381/82 468/1382/82 472/1383/82 471/1384/82
f 468/1385/84 465/1386/84 469/1387/84 472/1388/84
f 474/1389/83 473/1390/83 476/1391/83
f 476/1392/83 475/1393/83 474/1394/83
f 480/1395/81 477/1396/81 478/1397/81
f 478/1398/81 479/1399/81 480/1400/81
o desk_grommets
usemtl desk
v -0.36469 0.8425 0.895973
v -0.345313 0.8425 0.88892
v -0.329516 0.8425 0.875666
v -0.319206 0.8425 0.857807
v -0.315625 0.8425 0.8375
v -0.319206 0.8425 0.817193
v -0.329516 0.8425 0.799334
v -0.345313 0.8425 0.78608
v -0.36469 0.8425 0.779027
v -0.38531 0.8425 0.779027
v -0.404687 0.8425 0.78608
v -0.420484 0.8425 0.799334
v -0.430794 0.8425 0.817193
v -0.434375 0.8425 0.8375
v -0.430794 0.8425 0.857807
v -0.420484 0.8425 0.875666
v -0.404687 0.8425 0.88892
v -0.38531 0.8425 0.895973
v -0.36469 0.8475 0.895973
v -0.345313 0.8475 0.88892
v -0.329516 0.8475 0.875666
v -0.319206 0.8475 0.857807
v -0.315625 0.8475 0.8375
v -0.319206 0.8475 0.817193
v -0.329516 0.8475 0.799334
v -0.345313 0.8475 0.78608
v -0.36469 0.8475 0.779027
v -0.38531 0.8475 0.779027
v -0.404687 0.8475 0.78608
v -0.420484 0.8475 0.799334
v -0.430794 0.8475 0.817193
v -0.434375 0.8475 0.8375
v -0.430794 0.8475 0.857807
v -0.420484 0.8475 0.875666
v -0.404687 0.8475 0.88892
v -0.38531 0.8475 0.895973
v -0.375 0.8425 0.8375
v -0.375 0.8475 0.8375
v 1.38531 0.8425 0.895973
v 1.404688 0.8425 0.88892
v 1.420484 0.8425 0.875666
v 1.430794 0.8425 0.857807
v 1.434375 0.8425 0.8375
v 1.430794 0.8425 0.817193
v 1.420484 0.8425 0.799334
v 1.404688 0.8425 0.78608
v 1.38531 0.8425 0.779027
v 1.36469 0.8425 0.779027
v 1.345312 0.8425 0.78608
v 1.329516 0.8425 0.799334
v 1.319206 0.8425 0.817193
v 1.315625 0.8425 0.8375
v 1.319206 0.8425 0.857807
v 1.329516 0.8425 0.875666
v 1.345312 0.8425 0.88892
v 1.36469 0.8425 0.895973
v 1.38531 0.8475 0.895973
v 1.404688 0.8475 0.88892
v 1.420484 0.8475 0.875666
v 1.430794 0.8475 0.857807
v 1.434375 0.8475 0.8375
v 1.430794 0.8475 0.817193
v 1.420484 0.8475 0.799334
v 1.404688 0.8475 0.78608
v 1.38531 0.8475 0.779027
v 1.36469 0.8475 0.779027
v 1.345312 0.8475 0.78608
v 1.329516 0.8475 0.799334
v 1.319206 0.8475 0.817193
v 1.315625 0.8475 0.8375
v 1.319206 0.8475 0.857807
v 1.329516 0.8475 0.875666
v 1.345312 0.8475 0.88892
v 1.36469 0.8475 0.895973
v 1.375 0.8425 0.8375
v 1.375 0.8475 0.8375
vt 0.651327 0.073242
vt 0.647461 0.073242
vt 0.647461 0.072305
vt 0.651327 0.072305
vt 0.553671 0.073242
vt 0.549805 0.073242
vt 0.549805 0.072305
vt 0.553671 0.072305
vt 0.563437 0.073242
vt 0.55957 0.073242
vt 0.55957 0.072305
vt 0.563437 0.072305
vt 0.661093 0.073242
vt 0.657227 0.073242
vt 0.657227 0.072305
vt 0.661093 0.072305
vt 0.670859 0.073242
vt 0.666992 0.073242
vt 0.666992 0.072305
vt 0.670859 0.072305
vt 0.827109 0.073242
vt 0.823242 0.073242
vt 0.823242 0.072305
vt 0.827109 0.072305
vt 0.631796 0.073242
vt 0.62793 0.073242
vt 0.62793 0.072305
vt 0.631796 0.072305
vt 0.895468 0.073242
vt 0.891602 0.073242
vt 0.891602 0.072305
vt 0.895468 0.072305
vt 0.676758 0.072305
vt 0.680624 0.072305
vt 0.680624 0.073242
vt 0.676758 0.073242
vt 0.686523 0.072305
vt 0.69039 0.072305
vt 0.69039 0.073242
vt 0.686523 0.073242
vt 0.569336 0.072305
vt 0.573202 0.072305
vt 0.573202 0.073242
vt 0.569336 0.073242
vt 0.579102 0.072305
vt 0.582968 0.072305
vt 0.582968 0.073242
vt 0.579102 0.073242
vt 0.696289 0.072305
vt 0.700155 0.072305
vt 0.700155 0.073242
vt 0.696289 0.073242
vt 0.833008 0.072305
vt 0.836874 0.072305
vt 0.836874 0.073242
vt 0.833008 0.073242
vt 0.842773 0.072305
vt 0.84664 0.072305
vt 0.84664 0.073242
vt 0.842773 0.073242
vt 0.588867 0.072305
vt 0.592734 0.072305
vt 0.592734 0.073242
vt 0.588867 0.073242
vt 0.706055 0.072305
vt 0.709921 0.072305
vt 0.709921 0.073242
vt 0.706055 0.073242
vt 0.856405 0.073242
vt 0.852539 0.073242
vt 0.852539 0.072305
vt 0.856405 0.072305
vt 0.021582 0.552389
vt 0.017949 0.553711
vt 0.016016 0.542747
vt 0.024544 0.549903
vt 0.021582 0.552389
vt 0.016016 0.542747
vt 0.026477 0.546555
vt 0.024544 0.549903
vt 0.016016 0.542747
vt 0.027148 0.542747
vt 0.026477 0.546555
vt 0.016016 0.542747
vt 0.026477 0.53894
vt 0.027148 0.542747
vt 0.016016 0.542747
vt 0.024544 0.535591
vt 0.026477 0.53894
vt 0.016016 0.542747
vt 0.021582 0.533106
vt 0.024544 0.535591
vt 0.016016 0.542747
vt 0.017949 0.531784
vt 0.021582 0.533106
vt 0.016016 0.542747
vt 0.014082 0.531784
vt 0.017949 0.531784
vt 0.016016 0.542747
vt 0.010449 0.533106
vt 0.014082 0.531784
vt 0.016016 0.542747
vt 0.007487 0.535591
vt 0.010449 0.533106
vt 0.016016 0.542747
vt 0.005554 0.53894
vt 0.007487 0.535591
vt 0.016016 0.542747
vt 0.004883 0.542747
vt 0.005554 0.53894
vt 0.016016 0.542747
vt 0.005554 0.546555
vt 0.004883 0.542747
vt 0.016016 0.542747
vt 0.007487 0.549903
vt 0.005554 0.546555
vt 0.016016 0.542747
vt 0.010449 0.552389
vt 0.007487 0.549903
vt 0.016016 0.542747
vt 0.014082 0.553711
vt 0.010449 0.552389
vt 0.016016 0.542747
vt 0.017949 0.553711
vt 0.014082 0.553711
vt 0.016016 0.542747
vt 0.045312 0.542747
vt 0.043379 0.553711
vt 0.039746 0.552389
vt 0.045312 0.542747
vt 0.039746 0.552389
vt 0.036784 0.549903
vt 0.045312 0.542747
vt 0.036784 0.549903
vt 0.034851 0.546555
vt 0.045312 0.542747
vt 0.034851 0.546555
vt 0.03418 0.542747
vt 0.045312 0.542747
vt 0.03418 0.542747
vt 0.034851 0.53894
vt 0.045312 0.542747
vt 0.034851 0.53894
vt 0.036784 0.535591
vt 0.045312 0.542747
vt 0.036784 0.535591
vt 0.039746 0.533106
vt 0.045312 0.542747
vt 0.039746 0.533106
vt 0.043379 0.531784
vt 0.045312 0.542747
vt 0.043379 0.531784
vt 0.047246 0.531784
vt 0.045312 0.542747
vt 0.047246 0.531784
vt 0.050879 0.533106
vt 0.045312 0.542747
vt 0.050879 0.533106
vt 0.053841 0.535591
vt 0.045312 0.542747
vt 0.053841 0.535591
vt 0.055774 0.53894
vt 0.045312 0.542747
vt 0.055774 0.53894
vt 0.056445 0.542747
vt 0.045312 0.542747
vt 0.056445 0.542747
vt 0.055774 0.546555
vt 0.045312 0.542747
vt 0.055774 0.546555
vt 0.053841 0.549903
vt 0.045312 0.542747
vt 0.053841 0.549903
vt 0.050879 0.552389
vt 0.045312 0.542747
vt 0.050879 0.552389
vt 0.047246 0.553711
vt 0.045312 0.542747
vt 0.047246 0.553711
vt 0.043379 0.553711
vt 0.719687 0.073242
vt 0.71582 0.073242
vt 0.71582 0.072305
vt 0.719687 0.072305
vt 0.602499 0.073242
vt 0.598633 0.073242
vt 0.598633 0.072305
vt 0.602499 0.072305
vt 0.729452 0.073242
vt 0.725586 0.073242
vt 0.725586 0.072305
vt 0.729452 0.072305
vt 0.817343 0.073242
vt 0.813477 0.073242
vt 0.813477 0.072305
vt 0.817343 0.072305
vt 0.739218 0.073242
vt 0.735352 0.073242
vt 0.735352 0.072305
vt 0.739218 0.072305
vt 0.748984 0.073242
vt 0.745117 0.073242
vt 0.745117 0.072305
vt 0.748984 0.072305
vt 0.612265 0.073242
vt 0.608398 0.073242
vt 0.608398 0.072305
vt 0.612265 0.072305
vt 0.866171 0.073242
vt 0.862305 0.073242
vt 0.862305 0.072305
vt 0.866171 0.072305
vt 0.754883 0.072305
vt 0.758749 0.072305
vt 0.758749 0.073242
vt 0.754883 0.073242
vt 0.87207 0.072305
vt 0.875937 0.072305
vt 0.875937 0.073242
vt 0.87207 0.073242
vt 0.637695 0.072305
vt 0.641562 0.072305
vt 0.641562 0.073242
vt 0.637695 0.073242
vt 0.764648 0.072305
vt 0.768515 0.072305
vt 0.768515 0.073242
vt 0.764648 0.073242
vt 0.774414 0.072305
vt 0.77828 0.072305
vt 0.77828 0.073242
vt 0.774414 0.073242
vt 0.78418 0.072305
vt 0.788046 0.072305
vt 0.788046 0.073242
vt 0.78418 0.073242
vt 0.793945 0.072305
vt 0.797812 0.072305
vt 0.797812 0.073242
vt 0.793945 0.073242
vt 0.618164 0.072305
vt 0.62203 0.072305
vt 0.62203 0.073242
vt 0.618164 0.073242
vt 0.803711 0.072305
vt 0.807577 0.072305
vt 0.807577 0.073242
vt 0.803711 0.073242
vt 0.885702 0.073242
vt 0.881836 0.073242
vt 0.881836 0.072305
vt 0.885702 0.072305
vt 0.080176 0.552389
vt 0.076543 0.553711
vt 0.074609 0.542747
vt 0.083138 0.549903
vt 0.080176 0.552389
vt 0.074609 0.542747
vt 0.085071 0.546555
vt 0.083138 0.549903
vt 0.074609 0.542747
vt 0.085742 0.542747
vt 0.085071 0.546555
vt 0.074609 0.542747
vt 0.085071 0.53894
vt 0.085742 0.542747
vt 0.074609 0.542747
vt 0.083138 0.535591
vt 0.085071 0.53894
vt 0.074609 0.542747
vt 0.080176 0.533106
vt 0.083138 0.535591
vt 0.074609 0.542747
vt 0.076543 0.531784
vt 0.080176 0.533106
vt 0.074609 0.542747
vt 0.072676 0.531784
vt 0.076543 0.531784
vt 0.074609 0.542747
vt 0.069043 0.533106
vt 0.072676 0.531784
vt 0.074609 0.542747
vt 0.066081 0.535591
vt 0.069043 0.533106
vt 0.074609 0.542747
vt 0.064148 0.53894
vt 0.066081 0.535591
vt 0.074609 0.542747
vt 0.063477 0.542747
vt 0.064148 0.53894
vt 0.074609 0.542747
vt 0.064148 0.546555
vt 0.063477 0.542747
vt 0.074609 0.542747
vt 0.066081 0.549903
vt 0.064148 0.546555
vt 0.074609 0.542747
vt 0.069043 0.552389
vt 0.066081 0.549903
vt 0.074609 0.542747
vt 0.072676 0.553711
vt 0.069043 0.552389
vt 0.074609 0.542747
vt 0.076543 0.553711
vt 0.072676 0.553711
vt 0.074609 0.542747
vt 0.103906 0.542747
vt 0.101973 0.553711
vt 0.09834 0.552389
vt 0.103906 0.542747
vt 0.09834 0.552389
vt 0.095378 0.549903
vt 0.103906 0.542747
vt 0.095378 0.549903
vt 0.093445 0.546555
vt 0.103906 0.542747
vt 0.093445 0.546555
vt 0.092773 0.542747
vt 0.103906 0.542747
vt 0.092773 0.542747
vt 0.093445 0.53894
vt 0.103906 0.542747
vt 0.093445 0.53894
vt 0.095378 0.535591
vt 0.103906 0.542747
vt 0.095378 0.535591
vt 0.09834 0.533106
vt 0.103906 0.542747
vt 0.09834 0.533106
vt 0.101973 0.531784
vt 0.103906 0.542747
vt 0.101973 0.531784
vt 0.105839 0.531784
vt 0.103906 0.542747
vt 0.105839 0.531784
vt 0.109473 0.533106
vt 0.103906 0.542747
vt 0.109473 0.533106
vt 0.112434 0.535591
vt 0.103906 0.542747
vt 0.112434 0.535591
vt 0.114368 0.53894
vt 0.103906 0.542747
vt 0.114368 0.53894
vt 0.115039 0.542747
vt 0.103906 0.542747
vt 0.115039 0.542747
vt 0.114368 0.546555
vt 0.103906 0.542747
vt 0.114368 0.546555
vt 0.112434 0.549903
vt 0.103906 0.542747
vt 0.112434 0.549903
vt 0.109473 0.552389
vt 0.103906 0.542747
vt 0.109473 0.552389
vt 0.105839 0.553711
vt 0.103906 0.542747
vt 0.105839 0.553711
vt 0.101973 0.553711
vn 0.34202 0 0.939693
vn 0.5 0 0.866025
vn 0.766044 0 0.642788
vn 0.939693 0 0.34202
vn 1 0 0
vn 0.939693 0 -0.34202
vn 0.766044 0 -0.642788
vn 0.5 0 -0.866025
vn 0.173648 0 -0.984808
vn -0.173648 0 -0.984808
vn -0.5 0 -0.866025
vn -0.766044 0 -0.642788
vn -0.939693 0 -0.34202
vn -1 0 0
vn -0.939693 0 0.34202
vn -0.766044 0 0.642788
vn -0.5 0 0.866025
vn -0.34202 0 0.939693
vn 0 0 -1
vn 0 -1 0
vn 0 1 0
f 481/1401/86 482/1402/87 500/1403/87 499/1404/86
f 482/1405/87 483/1406/88 501/1407/88 500/1408/87
f 483/1409/88 484/1410/89 502/1411/89 501/1412/88
f 484/1413/89 485/1414/90 503/1415/90 502/1416/89
f 485/1417/90 486/1418/91 504/1419/91 503/1420/90
f 486/1421/91 487/1422/92 505/1423/92 504/1424/91
f 487/1425/92 488/1426/93 506/1427/93 505/1428/92
f 488/1429/93 489/1430/94 507/1431/94 506/1432/93
f 489/1433/94 490/1434/95 508/1435/95 507/1436/94
f 490/1437/95 491/1438/96 509/1439/96 508/1440/95
f 491/1441/96 492/1442/97 510/1443/97 509/1444/96
f 492/1445/97 493/1446/98 511/1447/98 510/1448/97
f 493/1449/98 494/1450/99 512/1451/99 511/1452/98
f 494/1453/99 495/1454/100 513/1455/100 512/1456/99
f 495/1457/100 496/1458/101 514/1459/101 513/1460/100
f 496/1461/101 497/1462/102 515/1463/102 514/1464/101
f 497/1465/102 498/1466/103 516/1467/103 515/1468/102
f 516/1469/104 499/1470/104 481/1471/104 498/1472/104
f 482/1473/105 481/1474/105 517/1475/105
f 483/1476/105 482/1477/105 517/1478/105
f 484/1479/105 483/1480/105 517/1481/105
f 485/1482/105 484/1483/105 517/1484/105
f 486/1485/105 485/1486/105 517/1487/105
f 487/1488/105 486/1489/105 517/1490/105
f 488/1491/105 487/1492/105 517/1493/105
f 489/1494/105 488/1495/105 517/1496/105
f 490/1497/105 489/1498/105 517/1499/105
f 491/1500/105 490/1501/105 517/1502/105
f 492/1503/105 491/1504/105 517/1505/105
f 493/1506/105 492/1507/105 517/1508/105
f 494/1509/105 493/1510/105 517/1511/105
f 495/1512/105 494/1513/105 517/1514/105
f 496/1515/105 495/1516/105 517/1517/105
f 497/1518/105 496/1519/105 517/1520/105
f 498/1521/105 497/1522/105 517/1523/105
f 481/1524/105 498/1525/105 517/1526/105
f 518/1527/106 499/1528/106 500/1529/106
f 518/1530/106 500/1531/106 501/1532/106
f 518/1533/106 501/1534/106 502/1535/106
f 518/1536/106 502/1537/106 503/1538/106
f 518/1539/106 503/1540/106 504/1541/106
f 518/1542/106 504/1543/106 505/1544/106
f 518/1545/106 505/1546/106 506/1547/106
f 518/1548/106 506/1549/106 507/1550/106
f 518/1551/106 507/1552/106 508/1553/106
f 518/1554/106 508/1555/106 509/1556/106
f 518/1557/106 509/1558/106 510/1559/106
f 518/1560/106 510/1561/106 511/1562/106
f 518/1563/106 511/1564/106 512/1565/106
f 518/1566/106 512/1567/106 513/1568/106
f 518/1569/106 513/1570/106 514/1571/106
f 518/1572/106 514/1573/106 515/1574/106
f 518/1575/106 515/1576/106 516/1577/106
f 518/1578/106 516/1579/106 499/1580/106
f 519/1581/86 520/1582/87 538/1583/87 537/1584/86
f 520/1585/87 521/1586/88 539/1587/88 538/1588/87
f 521/1589/88 522/1590/89 540/1591/89 539/1592/88
f 522/1593/89 523/1594/90 541/1595/90 540/1596/89
f 523/1597/90 524/1598/91 542/1599/91 541/1600/90
f 524/1601/91 525/1602/92 543/1603/92 542/1604/91
f 525/1605/92 526/1606/93 544/1607/93 543/1608/92
f 526/1609/93 527/1610/94 545/1611/94 544/1612/93
f 527/1613/94 528/1614/95 546/1615/95 545/1616/94
f 528/1617/95 529/1618/96 547/1619/96 546/1620/95
f 529/1621/96 530/1622/97 548/1623/97 547/1624/96
f 530/1625/97 531/1626/98 549/1627/98 548/1628/97
f 531/1629/98 532/1630/99 550/1631/99 549/1632/98
f 532/1633/99 533/1634/100 551/1635/100 550/1636/99
f 533/1637/100 534/1638/101 552/1639/101 551/1640/100
f 534/1641/101 535/1642/102 553/1643/102 552/1644/101
f 535/1645/102 536/1646/103 554/1647/103 553/1648/102
f 554/1649/104 537/1650/104 519/1651/104 536/1652/104
f 520/1653/105 519/1654/105 555/1655/105
f 521/1656/105 520/1657/105 555/1658/105
f 522/1659/105 521/1660/105 555/1661/105
f 523/1662/105 522/1663/105 555/1664/105
f 524/1665/105 523/1666/105 555/1667/105
f 525/1668/105 524/1669/105 555/1670/105
f 526/1671/105 525/1672/105 555/1673/105
f 527/1674/105 526/1675/105 555/1676/105
f 528/1677/105 527/1678/105 555/1679/105
f 529/1680/105 528/1681/105 555/1682/105
f 530/1683/105 529/1684/105 555/1685/105
f 531/1686/105 530/1687/105 555/1688/105
f 532/1689/105 531/1690/105 555/1691/105
f 533/1692/105 532/1693/105 555/1694/105
f 534/1695/105 533/1696/105 555/1697/105
f 535/1698/105 534/1699/105 555/1700/105
f 536/1701/105 535/1702/105 555/1703/105
f 519/1704/105 536/1705/105 555/1706/105
f 556/1707/106 537/1708/106 538/1709/106
f 556/1710/106 538/1711/106 539/1712/106
f 556/1713/106 539/1714/106 540/1715/106
f 556/1716/106 540/1717/106 541/1718/106
f 556/1719/106 541/1720/106 542/1721/106
f 556/1722/106 542/1723/106 543/1724/106
f 556/1725/106 543/1726/106 544/1727/106
f 556/1728/106 544/1729/106 545/1730/106
f 556/1731/106 545/1732/106 546/1733/106
f 556/1734/106 546/1735/106 547/1736/106
f 556/1737/106 547/1738/106 548/1739/106
f 556/1740/106 548/1741/106 549/1742/106
f 556/1743/106 549/1744/106 550/1745/106
f 556/1746/106 550/1747/106 551/1748/106
f 556/1749/106 551/1750/106 552/1751/106
f 556/1752/106 552/1753/106 553/1754/106
f 556/1755/106 553/1756/106 554/1757/106
f 556/1758/106 554/1759/106 537/1760/106
