# AFL PRAIRIE signage V1 price sign, generated by tools/build-prairie-signage-v1.mjs
mtllib body.mtl
o pad
usemtl sign
v 2.9948 0 0.008858
v 2.994245 0 0.006788
v 2.993212 0 0.005755
v 2.991142 0 0.0052
v -0.991142 0 0.0052
v -0.993212 0 0.005755
v -0.994245 0 0.006788
v -0.9948 0 0.008858
v -0.9948 0 0.991142
v -0.994245 0 0.993212
v -0.993212 0 0.994245
v -0.991142 0 0.9948
v 2.991142 0 0.9948
v 2.993212 0 0.994245
v 2.994245 0 0.993212
v 2.9948 0 0.991142
v 2.9998 0.005 0.0082
v 2.998728 0.005 0.0042
v 2.9958 0.005 0.001272
v 2.9918 0.005 0.0002
v -0.9918 0.005 0.0002
v -0.9958 0.005 0.001272
v -0.998728 0.005 0.0042
v -0.9998 0.005 0.0082
v -0.9998 0.005 0.9918
v -0.998728 0.005 0.9958
v -0.9958 0.005 0.998728
v -0.9918 0.005 0.9998
v 2.9918 0.005 0.9998
v 2.9958 0.005 0.998728
v 2.998728 0.005 0.9958
v 2.9998 0.005 0.9918
v 2.9998 0.02 0.0082
v 2.998728 0.02 0.0042
v 2.9958 0.02 0.001272
v 2.9918 0.02 0.0002
v -0.9918 0.02 0.0002
v -0.9958 0.02 0.001272
v -0.998728 0.02 0.0042
v -0.9998 0.02 0.0082
v -0.9998 0.02 0.9918
v -0.998728 0.02 0.9958
v -0.9958 0.02 0.998728
v -0.9918 0.02 0.9998
v 2.9918 0.02 0.9998
v 2.9958 0.02 0.998728
v 2.998728 0.02 0.9958
v 2.9998 0.02 0.9918
v 2.9948 0.025 0.008858
v 2.994245 0.025 0.006788
v 2.993212 0.025 0.005755
v 2.991142 0.025 0.0052
v -0.991142 0.025 0.0052
v -0.993212 0.025 0.005755
v -0.994245 0.025 0.006788
v -0.9948 0.025 0.008858
v -0.9948 0.025 0.991142
v -0.994245 0.025 0.993212
v -0.993212 0.025 0.994245
v -0.991142 0.025 0.9948
v 2.991142 0.025 0.9948
v 2.993212 0.025 0.994245
v 2.994245 0.025 0.993212
v 2.9948 0.025 0.991142
v 0.304375 0 0.304375
v 0.695625 0 0.304375
v 0.695625 0 0.695625
v 0.304375 0 0.695625
v 0.309375 0.005 0.309375
v 0.690625 0.005 0.309375
v 0.690625 0.005 0.690625
v 0.309375 0.005 0.690625
v 0.309375 0.02 0.309375
v 0.690625 0.02 0.309375
v 0.690625 0.02 0.690625
v 0.309375 0.02 0.690625
v 0.304375 0.025 0.304375
v 0.695625 0.025 0.304375
v 0.695625 0.025 0.695625
v 0.304375 0.025 0.695625
v 2.9948 0 0.008858
v 2.994245 0 0.006788
v 2.993212 0 0.005755
v 2.991142 0 0.0052
v -0.991142 0 0.0052
v -0.993212 0 0.005755
v -0.994245 0 0.006788
v -0.9948 0 0.008858
v -0.9948 0 0.991142
v -0.994245 0 0.993212
v -0.993212 0 0.994245
v -0.991142 0 0.9948
v 2.991142 0 0.9948
v 2.993212 0 0.994245
v 2.994245 0 0.993212
v 2.9948 0 0.991142
v 0.304375 0 0.304375
v 0.695625 0 0.304375
v 0.695625 0 0.695625
v 0.304375 0 0.695625
v 2.9948 0.025 0.008858
v 2.994245 0.025 0.006788
v 2.993212 0.025 0.005755
v 2.991142 0.025 0.0052
v -0.991142 0.025 0.0052
v -0.993212 0.025 0.005755
v -0.994245 0.025 0.006788
v -0.9948 0.025 0.008858
v -0.9948 0.025 0.991142
v -0.994245 0.025 0.993212
v -0.993212 0.025 0.994245
v -0.991142 0.025 0.9948
v 2.991142 0.025 0.9948
v 2.993212 0.025 0.994245
v 2.994245 0.025 0.993212
v 2.9948 0.025 0.991142
v 0.304375 0.025 0.304375
v 0.695625 0.025 0.304375
v 0.695625 0.025 0.695625
v 0.304375 0.025 0.695625
vt 0.751285 0.269241
vt 0.751039 0.269287
vt 0.750732 0.268502
vt 0.751207 0.268412
vt 0.739601 0.266357
vt 0.739502 0.266218
vt 0.740088 0.265611
vt 0.740368 0.266007
vt 0.464277 0.471436
vt 0.464037 0.471367
vt 0.464188 0.470549
vt 0.464653 0.470681
vt 0.464037 0.471367
vt 0.001222 0.42956
vt 0.001221 0.428728
vt 0.464188 0.470549
vt 0.106515 0.260799
vt 0.106604 0.261034
vt 0.105885 0.261475
vt 0.105713 0.261021
vt 0.750134 0.266218
vt 0.750035 0.266357
vt 0.749268 0.266007
vt 0.749548 0.265611
vt 0.001527 0.265482
vt 0.001773 0.265529
vt 0.001696 0.266357
vt 0.001221 0.266268
vt 0.001773 0.265529
vt 0.116397 0.265529
vt 0.116473 0.266357
vt 0.001696 0.266357
vt 0.118748 0.260919
vt 0.118795 0.261166
vt 0.11801 0.261475
vt 0.11792 0.260998
vt 0.752476 0.265611
vt 0.752575 0.265751
vt 0.751989 0.266357
vt 0.751709 0.265961
vt 0.466929 0.428728
vt 0.467169 0.428796
vt 0.467018 0.429614
vt 0.466553 0.429482
vt 0.467169 0.428796
vt 0.929984 0.470603
vt 0.929985 0.471436
vt 0.467018 0.429614
vt 0.10336 0.261475
vt 0.103271 0.26124
vt 0.103991 0.260799
vt 0.104163 0.261253
vt 0.741943 0.265751
vt 0.742042 0.265611
vt 0.742809 0.265961
vt 0.742529 0.266357
vt 0.115479 0.261166
vt 0.115525 0.260919
vt 0.116354 0.260998
vt 0.116263 0.261475
vt 0.865909 0.269241
vt 0.751285 0.269241
vt 0.751207 0.268412
vt 0.865985 0.268412
vt 0.150146 0.261475
vt 0.150146 0.260989
vt 0.151904 0.260989
vt 0.151904 0.261475
vt 0.122803 0.261475
vt 0.122803 0.260989
vt 0.124561 0.260989
vt 0.124561 0.261475
vt 0.156982 0.261475
vt 0.156982 0.260989
vt 0.15874 0.260989
vt 0.15874 0.261475
vt 0.001221 0.274365
vt 0.468049 0.274365
vt 0.468049 0.276123
vt 0.001221 0.276123
vt 0.126221 0.261475
vt 0.126221 0.260989
vt 0.127979 0.260989
vt 0.127979 0.261475
vt 0.131396 0.260989
vt 0.131396 0.261475
vt 0.129639 0.261475
vt 0.129639 0.260989
vt 0.145068 0.260989
vt 0.145068 0.261475
vt 0.143311 0.261475
vt 0.143311 0.260989
vt 0.001221 0.270947
vt 0.116486 0.270947
vt 0.116486 0.272705
vt 0.001221 0.272705
vt 0.148486 0.260989
vt 0.148486 0.261475
vt 0.146729 0.261475
vt 0.146729 0.260989
vt 0.134814 0.260989
vt 0.134814 0.261475
vt 0.133057 0.261475
vt 0.133057 0.260989
vt 0.136475 0.261475
vt 0.136475 0.260989
vt 0.138232 0.260989
vt 0.138232 0.261475
vt 0.469971 0.274365
vt 0.936799 0.274365
vt 0.936799 0.276123
vt 0.469971 0.276123
vt 0.1604 0.261475
vt 0.1604 0.260989
vt 0.162158 0.260989
vt 0.162158 0.261475
vt 0.139893 0.261475
vt 0.139893 0.260989
vt 0.14165 0.260989
vt 0.14165 0.261475
vt 0.153564 0.261475
vt 0.153564 0.260989
vt 0.155322 0.260989
vt 0.155322 0.261475
vt 0.233674 0.272705
vt 0.118408 0.272705
vt 0.118408 0.270947
vt 0.233674 0.270947
vt 0.868395 0.269287
vt 0.86792 0.269198
vt 0.868227 0.268412
vt 0.868472 0.268458
vt 0.744385 0.266007
vt 0.744665 0.265611
vt 0.745251 0.266218
vt 0.745152 0.266357
vt 0.463135 0.515115
vt 0.4636 0.514983
vt 0.463751 0.515801
vt 0.463511 0.515869
vt 0.4636 0.514983
vt 0.926567 0.473161
vt 0.926566 0.473993
vt 0.463751 0.515801
vt 0.108154 0.261253
vt 0.108326 0.260799
vt 0.109045 0.26124
vt 0.108957 0.261475
vt 0.757178 0.265611
vt 0.757458 0.266007
vt 0.756691 0.266357
vt 0.756592 0.266218
vt 0.118408 0.265572
vt 0.118883 0.265482
vt 0.118961 0.266311
vt 0.118715 0.266357
vt 0.118883 0.265482
vt 0.233661 0.265482
vt 0.233585 0.266311
vt 0.118961 0.266311
vt 0.121237 0.260998
vt 0.121146 0.261475
vt 0.120361 0.261166
vt 0.120408 0.260919
vt 0.755017 0.265961
vt 0.754736 0.266357
vt 0.75415 0.265751
vt 0.754249 0.265611
vt 0.464653 0.385049
vt 0.464188 0.385181
vt 0.464037 0.384362
vt 0.464277 0.384294
vt 0.464188 0.385181
vt 0.001221 0.427002
vt 0.001222 0.42617
vt 0.464037 0.384362
vt 0.111487 0.261021
vt 0.111315 0.261475
vt 0.110596 0.261034
vt 0.110685 0.260799
vt 0.747106 0.266357
vt 0.746826 0.265961
vt 0.747593 0.265611
vt 0.747692 0.265751
vt 0.113127 0.261475
vt 0.113037 0.260998
vt 0.113866 0.260919
vt 0.113912 0.261166
vt 0.983173 0.269287
vt 0.868395 0.269287
vt 0.868472 0.268458
vt 0.983096 0.268458
vt 0.360596 0.265529
vt 0.406445 0.265529
vt 0.405859 0.266357
vt 0.361182 0.266357
vt 0.407959 0.265529
vt 0.453809 0.265529
vt 0.453223 0.266357
vt 0.408545 0.266357
vt 0.501172 0.266357
vt 0.455322 0.266357
vt 0.455908 0.265529
vt 0.500586 0.265529
vt 0.548535 0.266357
vt 0.502686 0.266357
vt 0.503271 0.265529
vt 0.547949 0.265529
vt 0.235596 0.270947
vt 0.280273 0.270947
vt 0.280273 0.272705
vt 0.235596 0.272705
vt 0.281982 0.270947
vt 0.32666 0.270947
vt 0.32666 0.272705
vt 0.281982 0.272705
vt 0.328369 0.270947
vt 0.373047 0.270947
vt 0.373047 0.272705
vt 0.328369 0.272705
vt 0.419434 0.272705
vt 0.374756 0.272705
vt 0.374756 0.270947
vt 0.419434 0.270947
vt 0.595313 0.266357
vt 0.550635 0.266357
vt 0.550049 0.265529
vt 0.595898 0.265529
vt 0.597998 0.265529
vt 0.642676 0.265529
vt 0.643262 0.266357
vt 0.597412 0.266357
vt 0.645361 0.265529
vt 0.690039 0.265529
vt 0.690625 0.266357
vt 0.644775 0.266357
vt 0.737402 0.266357
vt 0.692725 0.266357
vt 0.692139 0.265529
vt 0.737988 0.265529
vt 0.468687 0.882997
vt 0.468752 0.883239
vt 0.468752 0.998351
vt 0.468566 0.882876
vt 0.468687 0.882997
vt 0.468752 0.998351
vt 0.468323 0.882811
vt 0.468566 0.882876
vt 0.468752 0.998351
vt 0.001407 0.882876
vt 0.001649 0.882811
vt 0.468323 0.882811
vt 0.001286 0.882997
vt 0.001407 0.882876
vt 0.468323 0.882811
vt 0.001221 0.883239
vt 0.001286 0.882997
vt 0.468323 0.882811
vt 0.001286 0.998593
vt 0.001221 0.998351
vt 0.001221 0.883239
vt 0.001407 0.998714
vt 0.001286 0.998593
vt 0.001221 0.883239
vt 0.001649 0.998779
vt 0.001407 0.998714
vt 0.001221 0.883239
vt 0.153468 0.96372
vt 0.199317 0.96372
vt 0.001649 0.998779
vt 0.153468 0.96372
vt 0.001649 0.998779
vt 0.001221 0.883239
vt 0.153468 0.91787
vt 0.153468 0.96372
vt 0.001221 0.883239
vt 0.153468 0.91787
vt 0.001221 0.883239
vt 0.468323 0.882811
vt 0.199317 0.91787
vt 0.153468 0.91787
vt 0.468323 0.882811
vt 0.199317 0.91787
vt 0.468323 0.882811
vt 0.468752 0.998351
vt 0.199317 0.96372
vt 0.199317 0.91787
vt 0.468752 0.998351
vt 0.001649 0.998779
vt 0.199317 0.96372
vt 0.468752 0.998351
vt 0.468323 0.998779
vt 0.001649 0.998779
vt 0.468752 0.998351
vt 0.468566 0.998714
vt 0.468323 0.998779
vt 0.468752 0.998351
vt 0.468752 0.998351
vt 0.468687 0.998593
vt 0.468566 0.998714
vt 0.470459 0.998351
vt 0.470459 0.883239
vt 0.470524 0.882997
vt 0.470459 0.998351
vt 0.470524 0.882997
vt 0.470645 0.882876
vt 0.470459 0.998351
vt 0.470645 0.882876
vt 0.470888 0.882811
vt 0.470888 0.882811
vt 0.937562 0.882811
vt 0.937804 0.882876
vt 0.470888 0.882811
vt 0.937804 0.882876
vt 0.937925 0.882997
vt 0.470888 0.882811
vt 0.937925 0.882997
vt 0.93799 0.883239
vt 0.93799 0.883239
vt 0.93799 0.998351
vt 0.937925 0.998593
vt 0.93799 0.883239
vt 0.937925 0.998593
vt 0.937804 0.998714
vt 0.93799 0.883239
vt 0.937804 0.998714
vt 0.937562 0.998779
vt 0.937562 0.998779
vt 0.739894 0.96372
vt 0.785743 0.96372
vt 0.93799 0.883239
vt 0.937562 0.998779
vt 0.785743 0.96372
vt 0.93799 0.883239
vt 0.785743 0.96372
vt 0.785743 0.91787
vt 0.470888 0.882811
vt 0.93799 0.883239
vt 0.785743 0.91787
vt 0.470888 0.882811
vt 0.785743 0.91787
vt 0.739894 0.91787
vt 0.470459 0.998351
vt 0.470888 0.882811
vt 0.739894 0.91787
vt 0.470459 0.998351
vt 0.739894 0.91787
vt 0.739894 0.96372
vt 0.470459 0.998351
vt 0.739894 0.96372
vt 0.937562 0.998779
vt 0.470459 0.998351
vt 0.937562 0.998779
vt 0.470888 0.998779
vt 0.470459 0.998351
vt 0.470888 0.998779
vt 0.470645 0.998714
vt 0.470645 0.998714
vt 0.470524 0.998593
vt 0.470459 0.998351
vn 0.707068 -0.707145 -0.000583
vn 0.60697 -0.719214 -0.338111
vn 0.338111 -0.719214 -0.60697
vn 0.000144 -0.707116 -0.707097
vn -0.000144 -0.707116 -0.707097
vn -0.338111 -0.719214 -0.60697
vn -0.60697 -0.719214 -0.338111
vn -0.707068 -0.707145 -0.000583
vn -0.707068 -0.707145 0.000583
vn -0.60697 -0.719214 0.338111
vn -0.338111 -0.719214 0.60697
vn -0.000144 -0.707116 0.707097
vn 0.000144 -0.707116 0.707097
vn 0.338111 -0.719214 0.60697
vn 0.60697 -0.719214 0.338111
vn 0.707068 -0.707145 0.000583
vn 0.999999 0 -0.001085
vn 0.866025 0 -0.5
vn 0.5 0 -0.866025
vn 0.000269 0 -1
vn -0.000269 0 -1
vn -0.5 0 -0.866025
vn -0.866025 0 -0.5
vn -0.999999 0 -0.001085
vn -0.999999 0 0.001085
vn -0.866025 0 0.5
vn -0.5 0 0.866025
vn -0.000269 0 1
vn 0.000269 0 1
vn 0.5 0 0.866025
vn 0.866025 0 0.5
vn 0.999999 0 0.001085
vn 0.707068 0.707145 -0.000583
vn 0.60697 0.719214 -0.338111
vn 0.338111 0.719214 -0.60697
vn 0.000144 0.707116 -0.707097
vn -0.000144 0.707116 -0.707097
vn -0.338111 0.719214 -0.60697
vn -0.60697 0.719214 -0.338111
vn -0.707068 0.707145 -0.000583
vn -0.707068 0.707145 0.000583
vn -0.60697 0.719214 0.338111
vn -0.338111 0.719214 0.60697
vn -0.000144 0.707116 0.707097
vn 0.000144 0.707116 0.707097
vn 0.338111 0.719214 0.60697
vn 0.60697 0.719214 0.338111
vn 0.707068 0.707145 0.000583
vn 0 -0.707107 0.707107
vn -0.707107 -0.707107 0
vn 0 -0.707107 -0.707107
vn 0.707107 -0.707107 0
vn 0 0 1
vn -1 0 0
vn 0 0 -1
vn 1 0 0
vn 0 0.707107 0.707107
vn -0.707107 0.707107 0
vn 0 0.707107 -0.707107
vn 0.707107 0.707107 0
vn 0 -1 0
vn 0 1 0
f 1/1/1 2/2/2 18/3/2 17/4/1
f 2/5/2 3/6/3 19/7/3 18/8/2
f 3/9/3 4/10/4 20/11/4 19/12/3
f 4/13/4 5/14/5 21/15/5 20/16/4
f 5/17/5 6/18/6 22/19/6 21/20/5
f 6/21/6 7/22/7 23/23/7 22/24/6
f 7/25/7 8/26/8 24/27/8 23/28/7
f 8/29/8 9/30/9 25/31/9 24/32/8
f 9/33/9 10/34/10 26/35/10 25/36/9
f 10/37/10 11/38/11 27/39/11 26/40/10
f 11/41/11 12/42/12 28/43/12 27/44/11
f 12/45/12 13/46/13 29/47/13 28/48/12
f 13/49/13 14/50/14 30/51/14 29/52/13
f 14/53/14 15/54/15 31/55/15 30/56/14
f 15/57/15 16/58/16 32/59/16 31/60/15
f 16/61/16 1/62/1 17/63/1 32/64/16
f 17/65/17 18/66/18 34/67/18 33/68/17
f 18/69/18 19/70/19 35/71/19 34/72/18
f 19/73/19 20/74/20 36/75/20 35/76/19
f 20/77/20 21/78/21 37/79/21 36/80/20
f 21/81/21 22/82/22 38/83/22 37/84/21
f 22/85/22 23/86/23 39/87/23 38/88/22
f 23/89/23 24/90/24 40/91/24 39/92/23
f 24/93/24 25/94/25 41/95/25 40/96/24
f 25/97/25 26/98/26 42/99/26 41/100/25
f 26/101/26 27/102/27 43/103/27 42/104/26
f 27/105/27 28/106/28 44/107/28 43/108/27
f 28/109/28 29/110/29 45/111/29 44/112/28
f 29/113/29 30/114/30 46/115/30 45/116/29
f 30/117/30 31/118/31 47/119/31 46/120/30
f 31/121/31 32/122/32 48/123/32 47/124/31
f 32/125/32 17/126/17 33/127/17 48/128/32
f 33/129/33 34/130/34 50/131/34 49/132/33
f 34/133/34 35/134/35 51/135/35 50/136/34
f 35/137/35 36/138/36 52/139/36 51/140/35
f 36/141/36 37/142/37 53/143/37 52/144/36
f 37/145/37 38/146/38 54/147/38 53/148/37
f 38/149/38 39/150/39 55/151/39 54/152/38
f 39/153/39 40/154/40 56/155/40 55/156/39
f 40/157/40 41/158/41 57/159/41 56/160/40
f 41/161/41 42/162/42 58/163/42 57/164/41
f 42/165/42 43/166/43 59/167/43 58/168/42
f 43/169/43 44/170/44 60/171/44 59/172/43
f 44/173/44 45/174/45 61/175/45 60/176/44
f 45/177/45 46/178/46 62/179/46 61/180/45
f 46/181/46 47/182/47 63/183/47 62/184/46
f 47/185/47 48/186/48 64/187/48 63/188/47
f 48/189/48 33/190/33 49/191/33 64/192/48
f 65/193/49 66/194/49 70/195/49 69/196/49
f 66/197/50 67/198/50 71/199/50 70/200/50
f 67/201/51 68/202/51 72/203/51 71/204/51
f 68/205/52 65/206/52 69/207/52 72/208/52
f 69/209/53 70/210/53 74/211/53 73/212/53
f 70/213/54 71/214/54 75/215/54 74/216/54
f 71/217/55 72/218/55 76/219/55 75/220/55
f 72/221/56 69/222/56 73/223/56 76/224/56
f 73/225/57 74/226/57 78/227/57 77/228/57
f 74/229/58 75/230/58 79/231/58 78/232/58
f 75/233/59 76/234/59 80/235/59 79/236/59
f 76/237/60 73/238/60 77/239/60 80/240/60
f 82/241/61 81/242/61 96/243/61
f 83/244/61 82/245/61 96/246/61
f 84/247/61 83/248/61 96/249/61
f 86/250/61 85/251/61 84/252/61
f 87/253/61 86/254/61 84/255/61
f 88/256/61 87/257/61 84/258/61
f 90/259/61 89/260/61 88/261/61
f 91/262/61 90/263/61 88/264/61
f 92/265/61 91/266/61 88/267/61
f 100/268/61 99/269/61 92/270/61
f 100/271/61 92/272/61 88/273/61
f 97/274/61 100/275/61 88/276/61
f 97/277/61 88/278/61 84/279/61
f 98/280/61 97/281/61 84/282/61
f 98/283/61 84/284/61 96/285/61
f 99/286/61 98/287/61 96/288/61
f 92/289/61 99/290/61 96/291/61
f 93/292/61 92/293/61 96/294/61
f 94/295/61 93/296/61 96/297/61
f 96/298/61 95/299/61 94/300/61
f 116/301/62 101/302/62 102/303/62
f 116/304/62 102/305/62 103/306/62
f 116/307/62 103/308/62 104/309/62
f 104/310/62 105/311/62 106/312/62
f 104/313/62 106/314/62 107/315/62
f 104/316/62 107/317/62 108/318/62
f 108/319/62 109/320/62 110/321/62
f 108/322/62 110/323/62 111/324/62
f 108/325/62 111/326/62 112/327/62
f 112/328/62 119/329/62 120/330/62
f 108/331/62 112/332/62 120/333/62
f 108/334/62 120/335/62 117/336/62
f 104/337/62 108/338/62 117/339/62
f 104/340/62 117/341/62 118/342/62
f 116/343/62 104/344/62 118/345/62
f 116/346/62 118/347/62 119/348/62
f 116/349/62 119/350/62 112/351/62
f 116/352/62 112/353/62 113/354/62
f 116/355/62 113/356/62 114/357/62
f 114/358/62 115/359/62 116/360/62
o port_plate
usemtl sign
v 0.32 0 0.68
v 0.68 0 0.68
v 0.68 0 0.32
v 0.32 0 0.32
v 0.3125 0.0075 0.6875
v 0.6875 0.0075 0.6875
v 0.6875 0.0075 0.3125
v 0.3125 0.0075 0.3125
v 0.3125 0.03125 0.6875
v 0.6875 0.03125 0.6875
v 0.6875 0.03125 0.3125
v 0.3125 0.03125 0.3125
v 0.32 0.03875 0.68
v 0.68 0.03875 0.68
v 0.68 0.03875 0.32
v 0.32 0.03875 0.32
v 0.627033 0 0.525268
v 0.607694 0 0.571959
v 0.571959 0 0.607694
v 0.525268 0 0.627033
v 0.474732 0 0.627033
v 0.428041 0 0.607694
v 0.392306 0 0.571959
v 0.372967 0 0.525268
v 0.372967 0 0.474732
v 0.392306 0 0.428041
v 0.428041 0 0.392306
v 0.474732 0 0.372967
v 0.525268 0 0.372967
v 0.571959 0 0.392306
v 0.607694 0 0.428041
v 0.627033 0 0.474732
v 0.619533 0.0075 0.523777
v 0.601335 0.0075 0.56771
v 0.56771 0.0075 0.601335
v 0.523777 0.0075 0.619533
v 0.476223 0.0075 0.619533
v 0.43229 0.0075 0.601335
v 0.398665 0.0075 0.56771
v 0.380467 0.0075 0.523777
v 0.380467 0.0075 0.476223
v 0.398665 0.0075 0.43229
v 0.43229 0.0075 0.398665
v 0.476223 0.0075 0.380467
v 0.523777 0.0075 0.380467
v 0.56771 0.0075 0.398665
v 0.601335 0.0075 0.43229
v 0.619533 0.0075 0.476223
v 0.619533 0.03125 0.523777
v 0.601335 0.03125 0.56771
v 0.56771 0.03125 0.601335
v 0.523777 0.03125 0.619533
v 0.476223 0.03125 0.619533
v 0.43229 0.03125 0.601335
v 0.398665 0.03125 0.56771
v 0.380467 0.03125 0.523777
v 0.380467 0.03125 0.476223
v 0.398665 0.03125 0.43229
v 0.43229 0.03125 0.398665
v 0.476223 0.03125 0.380467
v 0.523777 0.03125 0.380467
v 0.56771 0.03125 0.398665
v 0.601335 0.03125 0.43229
v 0.619533 0.03125 0.476223
v 0.627033 0.03875 0.525268
v 0.607694 0.03875 0.571959
v 0.571959 0.03875 0.607694
v 0.525268 0.03875 0.627033
v 0.474732 0.03875 0.627033
v 0.428041 0.03875 0.607694
v 0.392306 0.03875 0.571959
v 0.372967 0.03875 0.525268
v 0.372967 0.03875 0.474732
v 0.392306 0.03875 0.428041
v 0.428041 0.03875 0.392306
v 0.474732 0.03875 0.372967
v 0.525268 0.03875 0.372967
v 0.571959 0.03875 0.392306
v 0.607694 0.03875 0.428041
v 0.627033 0.03875 0.474732
v 0.32 0 0.68
v 0.68 0 0.68
v 0.68 0 0.32
v 0.32 0 0.32
v 0.627033 0 0.525268
v 0.607694 0 0.571959
v 0.571959 0 0.607694
v 0.525268 0 0.627033
v 0.474732 0 0.627033
v 0.428041 0 0.607694
v 0.392306 0 0.571959
v 0.372967 0 0.525268
v 0.372967 0 0.474732
v 0.392306 0 0.428041
v 0.428041 0 0.392306
v 0.474732 0 0.372967
v 0.525268 0 0.372967
v 0.571959 0 0.392306
v 0.607694 0 0.428041
v 0.627033 0 0.474732
v 0.32 0.03875 0.68
v 0.68 0.03875 0.68
v 0.68 0.03875 0.32
v 0.32 0.03875 0.32
v 0.627033 0.03875 0.525268
v 0.607694 0.03875 0.571959
v 0.571959 0.03875 0.607694
v 0.525268 0.03875 0.627033
v 0.474732 0.03875 0.627033
v 0.428041 0.03875 0.607694
v 0.392306 0.03875 0.571959
v 0.372967 0.03875 0.525268
v 0.372967 0.03875 0.474732
v 0.392306 0.03875 0.428041
v 0.428041 0.03875 0.392306
v 0.474732 0.03875 0.372967
v 0.525268 0.03875 0.372967
v 0.571959 0.03875 0.392306
v 0.607694 0.03875 0.428041
v 0.627033 0.03875 0.474732
vt 0.623682 0.268044
vt 0.665869 0.268044
vt 0.666748 0.269287
vt 0.622803 0.269287
vt 0.575049 0.269287
vt 0.532861 0.269287
vt 0.531982 0.268044
vt 0.575928 0.268044
vt 0.711279 0.269287
vt 0.669092 0.269287
vt 0.668213 0.268044
vt 0.712158 0.268044
vt 0.578271 0.268044
vt 0.620459 0.268044
vt 0.621338 0.269287
vt 0.577393 0.269287
vt 0.360107 0.282617
vt 0.404053 0.282617
vt 0.404053 0.2854
vt 0.360107 0.2854
vt 0.449463 0.2854
vt 0.405518 0.2854
vt 0.405518 0.282617
vt 0.449463 0.282617
vt 0.450928 0.282617
vt 0.494873 0.282617
vt 0.494873 0.2854
vt 0.450928 0.2854
vt 0.496338 0.282617
vt 0.540283 0.282617
vt 0.540283 0.2854
vt 0.496338 0.2854
vt 0.347412 0.269287
vt 0.303467 0.269287
vt 0.304346 0.268044
vt 0.346533 0.268044
vt 0.453857 0.269287
vt 0.409912 0.269287
vt 0.410791 0.268044
vt 0.452979 0.268044
vt 0.348877 0.268044
vt 0.392822 0.268044
vt 0.391943 0.269287
vt 0.349756 0.269287
vt 0.455322 0.268044
vt 0.499268 0.268044
vt 0.498389 0.269287
vt 0.456201 0.269287
vt 0.290465 0.282592
vt 0.296148 0.284257
vt 0.295631 0.2854
vt 0.290283 0.283834
vt 0.202967 0.281067
vt 0.207803 0.284486
vt 0.206943 0.2854
vt 0.202393 0.282183
vt 0.251925 0.282407
vt 0.246815 0.2854
vt 0.246338 0.28424
vt 0.251146 0.281423
vt 0.52228 0.269287
vt 0.516357 0.269287
vt 0.516532 0.268044
vt 0.522105 0.268044
vt 0.273421 0.2854
vt 0.268311 0.282407
vt 0.26909 0.281423
vt 0.273898 0.28424
vt 0.178506 0.281981
vt 0.173671 0.2854
vt 0.173096 0.284285
vt 0.177646 0.281067
vt 0.303961 0.283736
vt 0.298277 0.2854
vt 0.298096 0.284158
vt 0.303444 0.282592
vt 0.506655 0.269287
vt 0.500732 0.269287
vt 0.500907 0.268044
vt 0.50648 0.268044
vt 0.327217 0.2854
vt 0.321533 0.283736
vt 0.32205 0.282592
vt 0.327398 0.284158
vt 0.185255 0.2854
vt 0.18042 0.281981
vt 0.18128 0.281067
vt 0.18583 0.284285
vt 0.260986 0.284416
vt 0.266096 0.281423
vt 0.266574 0.282584
vt 0.261765 0.2854
vt 0.287842 0.268044
vt 0.293764 0.268044
vt 0.293589 0.269287
vt 0.288017 0.269287
vt 0.232167 0.281423
vt 0.237277 0.284416
vt 0.236498 0.2854
vt 0.231689 0.282584
vt 0.217041 0.284486
vt 0.221877 0.281067
vt 0.222451 0.282183
vt 0.217901 0.2854
vt 0.337158 0.284257
vt 0.342842 0.282592
vt 0.343023 0.283834
vt 0.337675 0.2854
vt 0.394287 0.268044
vt 0.400209 0.268044
vt 0.400035 0.269287
vt 0.394462 0.269287
vt 0.593018 0.282617
vt 0.59859 0.282617
vt 0.59859 0.2854
vt 0.593018 0.2854
vt 0.578369 0.282617
vt 0.583942 0.282617
vt 0.583942 0.2854
vt 0.578369 0.2854
vt 0.636963 0.282617
vt 0.642536 0.282617
vt 0.642536 0.2854
vt 0.636963 0.2854
vt 0.585693 0.282617
vt 0.591266 0.282617
vt 0.591266 0.2854
vt 0.585693 0.2854
vt 0.358356 0.2854
vt 0.352783 0.2854
vt 0.352783 0.282617
vt 0.358356 0.282617
vt 0.576618 0.2854
vt 0.571045 0.2854
vt 0.571045 0.282617
vt 0.576618 0.282617
vt 0.620563 0.2854
vt 0.61499 0.2854
vt 0.61499 0.282617
vt 0.620563 0.282617
vt 0.547321 0.2854
vt 0.541748 0.2854
vt 0.541748 0.282617
vt 0.547321 0.282617
vt 0.605914 0.2854
vt 0.600342 0.2854
vt 0.600342 0.282617
vt 0.605914 0.282617
vt 0.554645 0.2854
vt 0.549072 0.2854
vt 0.549072 0.282617
vt 0.554645 0.282617
vt 0.627887 0.2854
vt 0.622314 0.2854
vt 0.622314 0.282617
vt 0.627887 0.282617
vt 0.556396 0.282617
vt 0.561969 0.282617
vt 0.561969 0.2854
vt 0.556396 0.2854
vt 0.644287 0.282617
vt 0.64986 0.282617
vt 0.64986 0.2854
vt 0.644287 0.2854
vt 0.607666 0.282617
vt 0.613239 0.282617
vt 0.613239 0.2854
vt 0.607666 0.2854
vt 0.629639 0.282617
vt 0.635211 0.282617
vt 0.635211 0.2854
vt 0.629639 0.2854
vt 0.563721 0.282617
vt 0.569293 0.282617
vt 0.569293 0.2854
vt 0.563721 0.2854
vt 0.313721 0.284158
vt 0.319069 0.282592
vt 0.319586 0.283736
vt 0.313902 0.2854
vt 0.209717 0.284285
vt 0.214267 0.281067
vt 0.215127 0.281981
vt 0.210292 0.2854
vt 0.254441 0.281423
vt 0.25925 0.28424
vt 0.258772 0.2854
vt 0.253662 0.282407
vt 0.524345 0.268044
vt 0.529917 0.268044
vt 0.530092 0.269287
vt 0.52417 0.269287
vt 0.275635 0.28424
vt 0.280443 0.281423
vt 0.281222 0.282407
vt 0.276112 0.2854
vt 0.199618 0.2854
vt 0.195068 0.282183
vt 0.195643 0.281067
vt 0.200479 0.284486
vt 0.311256 0.2854
vt 0.305908 0.283834
vt 0.30609 0.282592
vt 0.311773 0.284257
vt 0.514292 0.269287
vt 0.50872 0.269287
vt 0.508545 0.268044
vt 0.514467 0.268044
vt 0.335211 0.283834
vt 0.329863 0.2854
vt 0.329346 0.284257
vt 0.335029 0.282592
vt 0.193155 0.282183
vt 0.188605 0.2854
vt 0.187744 0.284486
vt 0.19258 0.281067
vt 0.287767 0.2854
vt 0.282959 0.282584
vt 0.283436 0.281423
vt 0.288546 0.284416
vt 0.301402 0.269287
vt 0.295829 0.269287
vt 0.295654 0.268044
vt 0.301577 0.268044
vt 0.244601 0.282584
vt 0.239793 0.2854
vt 0.239014 0.284416
vt 0.244124 0.281423
vt 0.225226 0.281067
vt 0.229776 0.284285
vt 0.229201 0.2854
vt 0.224365 0.281981
vt 0.345488 0.282592
vt 0.350836 0.284158
vt 0.350654 0.2854
vt 0.344971 0.283736
vt 0.402274 0.268044
vt 0.407847 0.268044
vt 0.408022 0.269287
vt 0.4021 0.269287
vt 0.489838 0.314568
vt 0.496045 0.296436
vt 0.496045 0.338623
vt 0.489838 0.32049
vt 0.489838 0.314568
vt 0.496045 0.338623
vt 0.487572 0.325962
vt 0.489838 0.32049
vt 0.496045 0.338623
vt 0.483384 0.33015
vt 0.487572 0.325962
vt 0.496045 0.338623
vt 0.477912 0.332416
vt 0.483384 0.33015
vt 0.496045 0.338623
vt 0.477912 0.332416
vt 0.496045 0.338623
vt 0.453857 0.338623
vt 0.47199 0.332416
vt 0.477912 0.332416
vt 0.453857 0.338623
vt 0.466519 0.33015
vt 0.47199 0.332416
vt 0.453857 0.338623
vt 0.462331 0.325962
vt 0.466519 0.33015
vt 0.453857 0.338623
vt 0.460064 0.32049
vt 0.462331 0.325962
vt 0.453857 0.338623
vt 0.460064 0.314568
vt 0.460064 0.32049
vt 0.453857 0.338623
vt 0.496045 0.296436
vt 0.489838 0.314568
vt 0.487572 0.309097
vt 0.496045 0.296436
vt 0.487572 0.309097
vt 0.483384 0.304909
vt 0.496045 0.296436
vt 0.483384 0.304909
vt 0.477912 0.302643
vt 0.496045 0.296436
vt 0.477912 0.302643
vt 0.47199 0.302643
vt 0.453857 0.296436
vt 0.496045 0.296436
vt 0.47199 0.302643
vt 0.453857 0.296436
vt 0.47199 0.302643
vt 0.466519 0.304909
vt 0.453857 0.296436
vt 0.466519 0.304909
vt 0.462331 0.309097
vt 0.453857 0.296436
vt 0.462331 0.309097
vt 0.460064 0.314568
vt 0.453857 0.338623
vt 0.453857 0.296436
vt 0.460064 0.314568
vt 0.53999 0.296436
vt 0.53999 0.338623
vt 0.533783 0.32049
vt 0.53999 0.296436
vt 0.533783 0.32049
vt 0.533783 0.314568
vt 0.53999 0.296436
vt 0.533783 0.314568
vt 0.531517 0.309097
vt 0.53999 0.296436
vt 0.531517 0.309097
vt 0.527329 0.304909
vt 0.53999 0.296436
vt 0.527329 0.304909
vt 0.521858 0.302643
vt 0.497803 0.296436
vt 0.53999 0.296436
vt 0.521858 0.302643
vt 0.497803 0.296436
vt 0.521858 0.302643
vt 0.515935 0.302643
vt 0.497803 0.296436
vt 0.515935 0.302643
vt 0.510464 0.304909
vt 0.497803 0.296436
vt 0.510464 0.304909
vt 0.506276 0.309097
vt 0.497803 0.296436
vt 0.506276 0.309097
vt 0.50401 0.314568
vt 0.497803 0.296436
vt 0.50401 0.314568
vt 0.50401 0.32049
vt 0.531517 0.325962
vt 0.533783 0.32049
vt 0.53999 0.338623
vt 0.527329 0.33015
vt 0.531517 0.325962
vt 0.53999 0.338623
vt 0.521858 0.332416
vt 0.527329 0.33015
vt 0.53999 0.338623
vt 0.515935 0.332416
vt 0.521858 0.332416
vt 0.53999 0.338623
vt 0.515935 0.332416
vt 0.53999 0.338623
vt 0.497803 0.338623
vt 0.510464 0.33015
vt 0.515935 0.332416
vt 0.497803 0.338623
vt 0.506276 0.325962
vt 0.510464 0.33015
vt 0.497803 0.338623
vt 0.50401 0.32049
vt 0.506276 0.325962
vt 0.497803 0.338623
vt 0.50401 0.32049
vt 0.497803 0.338623
vt 0.497803 0.296436
vn 0 -0.707107 0.707107
vn 0.707107 -0.707107 0
vn 0 -0.707107 -0.707107
vn -0.707107 -0.707107 0
vn 0 0 1
vn 1 0 0
vn 0 0 -1
vn -1 0 0
vn 0 0.707107 0.707107
vn 0.707107 0.707107 0
vn 0 0.707107 -0.707107
vn -0.707107 0.707107 0
vn -0.68676 -0.713933 -0.136605
vn -0.582207 -0.713933 -0.389018
vn -0.389018 -0.713933 -0.582207
vn -0.136605 -0.713933 -0.68676
vn 0.136605 -0.713933 -0.68676
vn 0.389018 -0.713933 -0.582207
vn 0.582207 -0.713933 -0.389018
vn 0.68676 -0.713933 -0.136605
vn 0.68676 -0.713933 0.136605
vn 0.582207 -0.713933 0.389018
vn 0.389018 -0.713933 0.582207
vn 0.136605 -0.713933 0.68676
vn -0.136605 -0.713933 0.68676
vn -0.389018 -0.713933 0.582207
vn -0.582207 -0.713933 0.389018
vn -0.68676 -0.713933 0.136605
vn -0.980785 0 -0.19509
vn -0.83147 0 -0.55557
vn -0.55557 0 -0.83147
vn -0.19509 0 -0.980785
vn 0.19509 0 -0.980785
vn 0.55557 0 -0.83147
vn 0.83147 0 -0.55557
vn 0.980785 0 -0.19509
vn 0.980785 0 0.19509
vn 0.83147 0 0.55557
vn 0.55557 0 0.83147
vn 0.19509 0 0.980785
vn -0.19509 0 0.980785
vn -0.55557 0 0.83147
vn -0.83147 0 0.55557
vn -0.980785 0 0.19509
vn -0.68676 0.713933 -0.136605
vn -0.582207 0.713933 -0.389018
vn -0.389018 0.713933 -0.582207
vn -0.136605 0.713933 -0.68676
vn 0.136605 0.713933 -0.68676
vn 0.389018 0.713933 -0.582207
vn 0.582207 0.713933 -0.389018
vn 0.68676 0.713933 -0.136605
vn 0.68676 0.713933 0.136605
vn 0.582207 0.713933 0.389018
vn 0.389018 0.713933 0.582207
vn 0.136605 0.713933 0.68676
vn -0.136605 0.713933 0.68676
vn -0.389018 0.713933 0.582207
vn -0.582207 0.713933 0.389018
vn -0.68676 0.713933 0.136605
vn 0 -1 0
vn 0 1 0
f 121/361/63 122/362/63 126/363/63 125/364/63
f 122/365/64 123/366/64 127/367/64 126/368/64
f 123/369/65 124/370/65 128/371/65 127/372/65
f 124/373/66 121/374/66 125/375/66 128/376/66
f 125/377/67 126/378/67 130/379/67 129/380/67
f 126/381/68 127/382/68 131/383/68 130/384/68
f 127/385/69 128/386/69 132/387/69 131/388/69
f 128/389/70 125/390/70 129/391/70 132/392/70
f 129/393/71 130/394/71 134/395/71 133/396/71
f 130/397/72 131/398/72 135/399/72 134/400/72
f 131/401/73 132/402/73 136/403/73 135/404/73
f 132/405/74 129/406/74 133/407/74 136/408/74
f 137/409/75 138/410/76 154/411/76 153/412/75
f 138/413/76 139/414/77 155/415/77 154/416/76
f 139/417/77 140/418/78 156/419/78 155/420/77
f 140/421/78 141/422/79 157/423/79 156/424/78
f 141/425/79 142/426/80 158/427/80 157/428/79
f 142/429/80 143/430/81 159/431/81 158/432/80
f 143/433/81 144/434/82 160/435/82 159/436/81
f 144/437/82 145/438/83 161/439/83 160/440/82
f 145/441/83 146/442/84 162/443/84 161/444/83
f 146/445/84 147/446/85 163/447/85 162/448/84
f 147/449/85 148/450/86 164/451/86 163/452/85
f 148/453/86 149/454/87 165/455/87 164/456/86
f 149/457/87 150/458/88 166/459/88 165/460/87
f 150/461/88 151/462/89 167/463/89 166/464/88
f 151/465/89 152/466/90 168/467/90 167/468/89
f 152/469/90 137/470/75 153/471/75 168/472/90
f 153/473/91 154/474/92 170/475/92 169/476/91
f 154/477/92 155/478/93 171/479/93 170/480/92
f 155/481/93 156/482/94 172/483/94 171/484/93
f 156/485/94 157/486/95 173/487/95 172/488/94
f 157/489/95 158/490/96 174/491/96 173/492/95
f 158/493/96 159/494/97 175/495/97 174/496/96
f 159/497/97 160/498/98 176/499/98 175/500/97
f 160/501/98 161/502/99 177/503/99 176/504/98
f 161/505/99 162/506/100 178/507/100 177/508/99
f 162/509/100 163/510/101 179/511/101 178/512/100
f 163/513/101 164/514/102 180/515/102 179/516/101
f 164/517/102 165/518/103 181/519/103 180/520/102
f 165/521/103 166/522/104 182/523/104 181/524/103
f 166/525/104 167/526/105 183/527/105 182/528/104
f 167/529/105 168/530/106 184/531/106 183/532/105
f 168/533/106 153/534/91 169/535/91 184/536/106
f 169/537/107 170/538/108 186/539/108 185/540/107
f 170/541/108 171/542/109 187/543/109 186/544/108
f 171/545/109 172/546/110 188/547/110 187/548/109
f 172/549/110 173/550/111 189/551/111 188/552/110
f 173/553/111 174/554/112 190/555/112 189/556/111
f 174/557/112 175/558/113 191/559/113 190/560/112
f 175/561/113 176/562/114 192/563/114 191/564/113
f 176/565/114 177/566/115 193/567/115 192/568/114
f 177/569/115 178/570/116 194/571/116 193/572/115
f 178/573/116 179/574/117 195/575/117 194/576/116
f 179/577/117 180/578/118 196/579/118 195/580/117
f 180/581/118 181/582/119 197/583/119 196/584/118
f 181/585/119 182/586/120 198/587/120 197/588/119
f 182/589/120 183/590/121 199/591/121 198/592/120
f 183/593/121 184/594/122 200/595/122 199/596/121
f 184/597/122 169/598/107 185/599/107 200/600/122
f 208/601/123 202/602/123 201/603/123
f 209/604/123 208/605/123 201/606/123
f 210/607/123 209/608/123 201/609/123
f 211/610/123 210/611/123 201/612/123
f 212/613/123 211/614/123 201/615/123
f 212/616/123 201/617/123 204/618/123
f 213/619/123 212/620/123 204/621/123
f 214/622/123 213/623/123 204/624/123
f 215/625/123 214/626/123 204/627/123
f 216/628/123 215/629/123 204/630/123
f 217/631/123 216/632/123 204/633/123
f 202/634/123 208/635/123 207/636/123
f 202/637/123 207/638/123 206/639/123
f 202/640/123 206/641/123 205/642/123
f 202/643/123 205/644/123 220/645/123
f 203/646/123 202/647/123 220/648/123
f 203/649/123 220/650/123 219/651/123
f 203/652/123 219/653/123 218/654/123
f 203/655/123 218/656/123 217/657/123
f 204/658/123 203/659/123 217/660/123
f 221/661/124 222/662/124 228/663/124
f 221/664/124 228/665/124 229/666/124
f 221/667/124 229/668/124 230/669/124
f 221/670/124 230/671/124 231/672/124
f 221/673/124 231/674/124 232/675/124
f 224/676/124 221/677/124 232/678/124
f 224/679/124 232/680/124 233/681/124
f 224/682/124 233/683/124 234/684/124
f 224/685/124 234/686/124 235/687/124
f 224/688/124 235/689/124 236/690/124
f 224/691/124 236/692/124 237/693/124
f 227/694/124 228/695/124 222/696/124
f 226/697/124 227/698/124 222/699/124
f 225/700/124 226/701/124 222/702/124
f 240/703/124 225/704/124 222/705/124
f 240/706/124 222/707/124 223/708/124
f 239/709/124 240/710/124 223/711/124
f 238/712/124 239/713/124 223/714/124
f 237/715/124 238/716/124 223/717/124
f 237/718/124 223/719/124 224/720/124
o port_socket
usemtl sign
v 0.616468 0.02375 0.523167
v 0.598737 0.02375 0.565974
v 0.565974 0.02375 0.598737
v 0.523167 0.02375 0.616468
v 0.476833 0.02375 0.616468
v 0.434026 0.02375 0.598737
v 0.401263 0.02375 0.565974
v 0.383532 0.02375 0.523167
v 0.383532 0.02375 0.476833
v 0.401263 0.02375 0.434026
v 0.434026 0.02375 0.401263
v 0.476833 0.02375 0.383532
v 0.523167 0.02375 0.383532
v 0.565974 0.02375 0.401263
v 0.598737 0.02375 0.434026
v 0.616468 0.02375 0.476833
v 0.616468 0.03875 0.523167
v 0.598737 0.03875 0.565974
v 0.565974 0.03875 0.598737
v 0.523167 0.03875 0.616468
v 0.476833 0.03875 0.616468
v 0.434026 0.03875 0.598737
v 0.401263 0.03875 0.565974
v 0.383532 0.03875 0.523167
v 0.383532 0.03875 0.476833
v 0.401263 0.03875 0.434026
v 0.434026 0.03875 0.401263
v 0.476833 0.03875 0.383532
v 0.523167 0.03875 0.383532
v 0.565974 0.03875 0.401263
v 0.598737 0.03875 0.434026
v 0.616468 0.03875 0.476833
v 0.5 0.02375 0.5
v 0.5 0.03875 0.5
vt 0.531006 0.270947
vt 0.536436 0.270947
vt 0.536436 0.272705
vt 0.531006 0.272705
vt 0.465088 0.270947
vt 0.470518 0.270947
vt 0.470518 0.272705
vt 0.465088 0.272705
vt 0.472412 0.270947
vt 0.477842 0.270947
vt 0.477842 0.272705
vt 0.472412 0.272705
vt 0.485166 0.272705
vt 0.479736 0.272705
vt 0.479736 0.270947
vt 0.485166 0.270947
vt 0.49249 0.272705
vt 0.487061 0.272705
vt 0.487061 0.270947
vt 0.49249 0.270947
vt 0.463193 0.272705
vt 0.457764 0.272705
vt 0.457764 0.270947
vt 0.463193 0.270947
vt 0.499815 0.272705
vt 0.494385 0.272705
vt 0.494385 0.270947
vt 0.499815 0.270947
vt 0.426572 0.272705
vt 0.421143 0.272705
vt 0.421143 0.270947
vt 0.426572 0.270947
vt 0.514463 0.272705
vt 0.509033 0.272705
vt 0.509033 0.270947
vt 0.514463 0.270947
vt 0.455869 0.272705
vt 0.450439 0.272705
vt 0.450439 0.270947
vt 0.455869 0.270947
vt 0.507139 0.272705
vt 0.501709 0.272705
vt 0.501709 0.270947
vt 0.507139 0.270947
vt 0.433897 0.272705
vt 0.428467 0.272705
vt 0.428467 0.270947
vt 0.433897 0.270947
vt 0.435791 0.270947
vt 0.441221 0.270947
vt 0.441221 0.272705
vt 0.435791 0.272705
vt 0.523682 0.270947
vt 0.529111 0.270947
vt 0.529111 0.272705
vt 0.523682 0.272705
vt 0.516357 0.270947
vt 0.521787 0.270947
vt 0.521787 0.272705
vt 0.516357 0.272705
vt 0.443115 0.270947
vt 0.448545 0.270947
vt 0.448545 0.272705
vt 0.443115 0.272705
vt 0.555397 0.324974
vt 0.558112 0.311326
vt 0.563128 0.313404
vt 0.555397 0.324974
vt 0.563128 0.313404
vt 0.566967 0.317243
vt 0.555397 0.324974
vt 0.566967 0.317243
vt 0.569045 0.32226
vt 0.555397 0.324974
vt 0.569045 0.32226
vt 0.569045 0.327689
vt 0.555397 0.324974
vt 0.569045 0.327689
vt 0.566967 0.332706
vt 0.555397 0.324974
vt 0.566967 0.332706
vt 0.563128 0.336545
vt 0.555397 0.324974
vt 0.563128 0.336545
vt 0.558112 0.338623
vt 0.555397 0.324974
vt 0.558112 0.338623
vt 0.552682 0.338623
vt 0.555397 0.324974
vt 0.552682 0.338623
vt 0.547665 0.336545
vt 0.555397 0.324974
vt 0.547665 0.336545
vt 0.543826 0.332706
vt 0.555397 0.324974
vt 0.543826 0.332706
vt 0.541748 0.327689
vt 0.555397 0.324974
vt 0.541748 0.327689
vt 0.541748 0.32226
vt 0.555397 0.324974
vt 0.541748 0.32226
vt 0.543826 0.317243
vt 0.555397 0.324974
vt 0.543826 0.317243
vt 0.547665 0.313404
vt 0.555397 0.324974
vt 0.547665 0.313404
vt 0.552682 0.311326
vt 0.555397 0.324974
vt 0.552682 0.311326
vt 0.558112 0.311326
vt 0.591937 0.336545
vt 0.58692 0.338623
vt 0.584205 0.324974
vt 0.595776 0.332706
vt 0.591937 0.336545
vt 0.584205 0.324974
vt 0.597854 0.327689
vt 0.595776 0.332706
vt 0.584205 0.324974
vt 0.597854 0.32226
vt 0.597854 0.327689
vt 0.584205 0.324974
vt 0.595776 0.317243
vt 0.597854 0.32226
vt 0.584205 0.324974
vt 0.591937 0.313404
vt 0.595776 0.317243
vt 0.584205 0.324974
vt 0.58692 0.311326
vt 0.591937 0.313404
vt 0.584205 0.324974
vt 0.58149 0.311326
vt 0.58692 0.311326
vt 0.584205 0.324974
vt 0.576474 0.313404
vt 0.58149 0.311326
vt 0.584205 0.324974
vt 0.572635 0.317243
vt 0.576474 0.313404
vt 0.584205 0.324974
vt 0.570557 0.32226
vt 0.572635 0.317243
vt 0.584205 0.324974
vt 0.570557 0.327689
vt 0.570557 0.32226
vt 0.584205 0.324974
vt 0.572635 0.332706
vt 0.570557 0.327689
vt 0.584205 0.324974
vt 0.576474 0.336545
vt 0.572635 0.332706
vt 0.584205 0.324974
vt 0.58149 0.338623
vt 0.576474 0.336545
vt 0.584205 0.324974
vt 0.58692 0.338623
vt 0.58149 0.338623
vt 0.584205 0.324974
vn 0.980785 0 0.19509
vn 0.83147 0 0.55557
vn 0.55557 0 0.83147
vn 0.19509 0 0.980785
vn -0.19509 0 0.980785
vn -0.55557 0 0.83147
vn -0.83147 0 0.55557
vn -0.980785 0 0.19509
vn -0.980785 0 -0.19509
vn -0.83147 0 -0.55557
vn -0.55557 0 -0.83147
vn -0.19509 0 -0.980785
vn 0.19509 0 -0.980785
vn 0.55557 0 -0.83147
vn 0.83147 0 -0.55557
vn 0.980785 0 -0.19509
vn 0 -1 0
vn 0 1 0
f 257/721/125 258/722/126 242/723/126 241/724/125
f 258/725/126 259/726/127 243/727/127 242/728/126
f 259/729/127 260/730/128 244/731/128 243/732/127
f 260/733/128 261/734/129 245/735/129 244/736/128
f 261/737/129 262/738/130 246/739/130 245/740/129
f 262/741/130 263/742/131 247/743/131 246/744/130
f 263/745/131 264/746/132 248/747/132 247/748/131
f 264/749/132 265/750/133 249/751/133 248/752/132
f 265/753/133 266/754/134 250/755/134 249/756/133
f 266/757/134 267/758/135 251/759/135 250/760/134
f 267/761/135 268/762/136 252/763/136 251/764/135
f 268/765/136 269/766/137 253/767/137 252/768/136
f 269/769/137 270/770/138 254/771/138 253/772/137
f 270/773/138 271/774/139 255/775/139 254/776/138
f 271/777/139 272/778/140 256/779/140 255/780/139
f 272/781/140 257/782/125 241/783/125 256/784/140
f 273/785/141 241/786/141 242/787/141
f 273/788/141 242/789/141 243/790/141
f 273/791/141 243/792/141 244/793/141
f 273/794/141 244/795/141 245/796/141
f 273/797/141 245/798/141 246/799/141
f 273/800/141 246/801/141 247/802/141
f 273/803/141 247/804/141 248/805/141
f 273/806/141 248/807/141 249/808/141
f 273/809/141 249/810/141 250/811/141
f 273/812/141 250/813/141 251/814/141
f 273/815/141 251/816/141 252/817/141
f 273/818/141 252/819/141 253/820/141
f 273/821/141 253/822/141 254/823/141
f 273/824/141 254/825/141 255/826/141
f 273/827/141 255/828/141 256/829/141
f 273/830/141 256/831/141 241/832/141
f 258/833/142 257/834/142 274/835/142
f 259/836/142 258/837/142 274/838/142
f 260/839/142 259/840/142 274/841/142
f 261/842/142 260/843/142 274/844/142
f 262/845/142 261/846/142 274/847/142
f 263/848/142 262/849/142 274/850/142
f 264/851/142 263/852/142 274/853/142
f 265/854/142 264/855/142 274/856/142
f 266/857/142 265/858/142 274/859/142
f 267/860/142 266/861/142 274/862/142
f 268/863/142 267/864/142 274/865/142
f 269/866/142 268/867/142 274/868/142
f 270/869/142 269/870/142 274/871/142
f 271/872/142 270/873/142 274/874/142
f 272/875/142 271/876/142 274/877/142
f 257/878/142 272/879/142 274/880/142
o port_pin
usemtl sign
v 0.525984 0.01125 0.510763
v 0.510763 0.01125 0.525984
v 0.489237 0.01125 0.525984
v 0.474016 0.01125 0.510763
v 0.474016 0.01125 0.489237
v 0.489237 0.01125 0.474016
v 0.510763 0.01125 0.474016
v 0.525984 0.01125 0.489237
v 0.525984 0.02375 0.510763
v 0.510763 0.02375 0.525984
v 0.489237 0.02375 0.525984
v 0.474016 0.02375 0.510763
v 0.474016 0.02375 0.489237
v 0.489237 0.02375 0.474016
v 0.510763 0.02375 0.474016
v 0.525984 0.02375 0.489237
v 0.5 0.01125 0.5
v 0.5 0.02375 0.5
vt 0.826416 0.27124
vt 0.828939 0.27124
vt 0.828939 0.272705
vt 0.826416 0.272705
vt 0.833333 0.272705
vt 0.830811 0.272705
vt 0.830811 0.27124
vt 0.833333 0.27124
vt 0.846517 0.272705
vt 0.843994 0.272705
vt 0.843994 0.27124
vt 0.846517 0.27124
vt 0.837728 0.272705
vt 0.835205 0.272705
vt 0.835205 0.27124
vt 0.837728 0.27124
vt 0.842122 0.272705
vt 0.8396 0.272705
vt 0.8396 0.27124
vt 0.842122 0.27124
vt 0.82015 0.272705
vt 0.817627 0.272705
vt 0.817627 0.27124
vt 0.82015 0.27124
vt 0.848389 0.27124
vt 0.850911 0.27124
vt 0.850911 0.272705
vt 0.848389 0.272705
vt 0.822021 0.27124
vt 0.824544 0.27124
vt 0.824544 0.272705
vt 0.822021 0.272705
vt 0.160516 0.282355
vt 0.163561 0.283617
vt 0.161777 0.2854
vt 0.160516 0.282355
vt 0.161777 0.2854
vt 0.159254 0.2854
vt 0.160516 0.282355
vt 0.159254 0.2854
vt 0.157471 0.283617
vt 0.160516 0.282355
vt 0.157471 0.283617
vt 0.157471 0.281094
vt 0.160516 0.282355
vt 0.157471 0.281094
vt 0.159254 0.27931
vt 0.160516 0.282355
vt 0.159254 0.27931
vt 0.161777 0.27931
vt 0.160516 0.282355
vt 0.161777 0.27931
vt 0.163561 0.281094
vt 0.160516 0.282355
vt 0.163561 0.281094
vt 0.163561 0.283617
vt 0.167067 0.2854
vt 0.165283 0.283617
vt 0.168328 0.282355
vt 0.16959 0.2854
vt 0.167067 0.2854
vt 0.168328 0.282355
vt 0.171373 0.283617
vt 0.16959 0.2854
vt 0.168328 0.282355
vt 0.171373 0.281094
vt 0.171373 0.283617
vt 0.168328 0.282355
vt 0.16959 0.27931
vt 0.171373 0.281094
vt 0.168328 0.282355
vt 0.167067 0.27931
vt 0.16959 0.27931
vt 0.168328 0.282355
vt 0.165283 0.281094
vt 0.167067 0.27931
vt 0.168328 0.282355
vt 0.165283 0.283617
vt 0.165283 0.281094
vt 0.168328 0.282355
vn 0.707107 0 0.707107
vn 0 0 1
vn -0.707107 0 0.707107
vn -1 0 0
vn -0.707107 0 -0.707107
vn 0 0 -1
vn 0.707107 0 -0.707107
vn 1 0 0
vn 0 -1 0
vn 0 1 0
f 283/881/143 284/882/143 276/883/143 275/884/143
f 284/885/144 285/886/144 277/887/144 276/888/144
f 285/889/145 286/890/145 278/891/145 277/892/145
f 286/893/146 287/894/146 279/895/146 278/896/146
f 287/897/147 288/898/147 280/899/147 279/900/147
f 288/901/148 289/902/148 281/903/148 280/904/148
f 289/905/149 290/906/149 282/907/149 281/908/149
f 290/909/150 283/910/150 275/911/150 282/912/150
f 291/913/151 275/914/151 276/915/151
f 291/916/151 276/917/151 277/918/151
f 291/919/151 277/920/151 278/921/151
f 291/922/151 278/923/151 279/924/151
f 291/925/151 279/926/151 280/927/151
f 291/928/151 280/929/151 281/930/151
f 291/931/151 281/932/151 282/933/151
f 291/934/151 282/935/151 275/936/151
f 284/937/152 283/938/152 292/939/152
f 285/940/152 284/941/152 292/942/152
f 286/943/152 285/944/152 292/945/152
f 287/946/152 286/947/152 292/948/152
f 288/949/152 287/950/152 292/951/152
f 289/952/152 288/953/152 292/954/152
f 290/955/152 289/956/152 292/957/152
f 283/958/152 290/959/152 292/960/152
o base
usemtl sign
v 2.94 0.024 0.213317
v 2.939427 0.024 0.211176
v 2.938824 0.024 0.210573
v 2.936683 0.024 0.21
v -0.936683 0.024 0.21
v -0.938824 0.024 0.210573
v -0.939427 0.024 0.211176
v -0.94 0.024 0.213317
v -0.94 0.024 0.786683
v -0.939427 0.024 0.788824
v -0.938824 0.024 0.789427
v -0.936683 0.024 0.79
v 2.936683 0.024 0.79
v 2.938824 0.024 0.789427
v 2.939427 0.024 0.788824
v 2.94 0.024 0.786683
v 2.95 0.034 0.212
v 2.948392 0.034 0.206
v 2.944 0.034 0.201608
v 2.938 0.034 0.2
v -0.938 0.034 0.2
v -0.944 0.034 0.201608
v -0.948392 0.034 0.206
v -0.95 0.034 0.212
v -0.95 0.034 0.788
v -0.948392 0.034 0.794
v -0.944 0.034 0.798392
v -0.938 0.034 0.8
v 2.938 0.034 0.8
v 2.944 0.034 0.798392
v 2.948392 0.034 0.794
v 2.95 0.034 0.788
v 2.95 0.89 0.212
v 2.948392 0.89 0.206
v 2.944 0.89 0.201608
v 2.938 0.89 0.2
v -0.938 0.89 0.2
v -0.944 0.89 0.201608
v -0.948392 0.89 0.206
v -0.95 0.89 0.212
v -0.95 0.89 0.788
v -0.948392 0.89 0.794
v -0.944 0.89 0.798392
v -0.938 0.89 0.8
v 2.938 0.89 0.8
v 2.944 0.89 0.798392
v 2.948392 0.89 0.794
v 2.95 0.89 0.788
v 2.94 0.9 0.213317
v 2.939427 0.9 0.211176
v 2.938824 0.9 0.210573
v 2.936683 0.9 0.21
v -0.936683 0.9 0.21
v -0.938824 0.9 0.210573
v -0.939427 0.9 0.211176
v -0.94 0.9 0.213317
v -0.94 0.9 0.786683
v -0.939427 0.9 0.788824
v -0.938824 0.9 0.789427
v -0.936683 0.9 0.79
v 2.936683 0.9 0.79
v 2.938824 0.9 0.789427
v 2.939427 0.9 0.788824
v 2.94 0.9 0.786683
v 2.94 0.024 0.213317
v 2.939427 0.024 0.211176
v 2.938824 0.024 0.210573
v 2.936683 0.024 0.21
v -0.936683 0.024 0.21
v -0.938824 0.024 0.210573
v -0.939427 0.024 0.211176
v -0.94 0.024 0.213317
v -0.94 0.024 0.786683
v -0.939427 0.024 0.788824
v -0.938824 0.024 0.789427
v -0.936683 0.024 0.79
v 2.936683 0.024 0.79
v 2.938824 0.024 0.789427
v 2.939427 0.024 0.788824
v 2.94 0.024 0.786683
v 2.94 0.9 0.213317
v 2.939427 0.9 0.211176
v 2.938824 0.9 0.210573
v 2.936683 0.9 0.21
v -0.936683 0.9 0.21
v -0.938824 0.9 0.210573
v -0.939427 0.9 0.211176
v -0.94 0.9 0.213317
v -0.94 0.9 0.786683
v -0.939427 0.9 0.788824
v -0.938824 0.9 0.789427
v -0.936683 0.9 0.79
v 2.936683 0.9 0.79
v 2.938824 0.9 0.789427
v 2.939427 0.9 0.788824
v 2.94 0.9 0.786683
vt 0.539197 0.272657
vt 0.538943 0.272705
vt 0.53833 0.271134
vt 0.539042 0.271
vt 0.257626 0.269287
vt 0.257568 0.269206
vt 0.25874 0.267992
vt 0.259161 0.268587
vt 0.451629 0.338623
vt 0.45138 0.338552
vt 0.451683 0.336916
vt 0.452381 0.337114
vt 0.45138 0.338552
vt 0.001223 0.297889
vt 0.001221 0.296224
vt 0.451683 0.336916
vt 0.733782 0.268163
vt 0.733874 0.268406
vt 0.732436 0.269287
vt 0.732178 0.268606
vt 0.242071 0.269206
vt 0.242013 0.269287
vt 0.240479 0.268587
vt 0.240899 0.267992
vt 0.748416 0.271
vt 0.74867 0.271048
vt 0.748515 0.272705
vt 0.747803 0.272571
vt 0.74867 0.271048
vt 0.815577 0.271048
vt 0.815729 0.272705
vt 0.748515 0.272705
vt 0.237253 0.265485
vt 0.237301 0.26574
vt 0.235731 0.266357
vt 0.235596 0.265642
vt 0.248849 0.267992
vt 0.248907 0.268074
vt 0.247735 0.269287
vt 0.247314 0.268693
vt 0.001973 0.34017
vt 0.002221 0.34024
vt 0.001918 0.341877
vt 0.001221 0.341679
vt 0.002221 0.34024
vt 0.452378 0.380904
vt 0.452381 0.382568
vt 0.001918 0.341877
vt 0.735688 0.269287
vt 0.735596 0.269044
vt 0.737034 0.268163
vt 0.737292 0.268844
vt 0.250732 0.268074
vt 0.25079 0.267992
vt 0.252325 0.268693
vt 0.251904 0.269287
vt 0.242432 0.26574
vt 0.24248 0.265485
vt 0.244137 0.265642
vt 0.244001 0.266357
vt 0.606104 0.272657
vt 0.539197 0.272657
vt 0.539042 0.271
vt 0.606257 0.271
vt 0.103271 0.263916
vt 0.103271 0.263188
vt 0.203584 0.263188
vt 0.203584 0.263916
vt 0.001221 0.261475
vt 0.001221 0.260747
vt 0.101533 0.260747
vt 0.101533 0.261475
vt 0.511475 0.263916
vt 0.511475 0.263188
vt 0.611787 0.263188
vt 0.611787 0.263916
vt 0.001221 0.780791
vt 0.455439 0.780791
vt 0.455439 0.881104
vt 0.001221 0.881104
vt 0.613525 0.263916
vt 0.613525 0.263188
vt 0.713838 0.263188
vt 0.713838 0.263916
vt 0.961396 0.265629
vt 0.961396 0.266357
vt 0.861084 0.266357
vt 0.861084 0.265629
vt 0.305635 0.263188
vt 0.305635 0.263916
vt 0.205322 0.263916
vt 0.205322 0.263188
vt 0.101533 0.562139
vt 0.101533 0.629639
vt 0.001221 0.629639
vt 0.001221 0.562139
vt 0.407686 0.263188
vt 0.407686 0.263916
vt 0.307373 0.263916
vt 0.307373 0.263188
vt 0.101533 0.263188
vt 0.101533 0.263916
vt 0.001221 0.263916
vt 0.001221 0.263188
vt 0.715576 0.263916
vt 0.715576 0.263188
vt 0.815889 0.263188
vt 0.815889 0.263916
vt 0.457275 0.780791
vt 0.911494 0.780791
vt 0.911494 0.881104
vt 0.457275 0.881104
vt 0.817627 0.263916
vt 0.817627 0.263188
vt 0.917939 0.263188
vt 0.917939 0.263916
vt 0.759033 0.266357
vt 0.759033 0.265629
vt 0.859346 0.265629
vt 0.859346 0.266357
vt 0.409424 0.263916
vt 0.409424 0.263188
vt 0.509736 0.263188
vt 0.509736 0.263916
vt 0.103271 0.629639
vt 0.103271 0.562139
vt 0.203584 0.562139
vt 0.203584 0.629639
vt 0.678691 0.272705
vt 0.677979 0.272571
vt 0.678592 0.271
vt 0.678846 0.271048
vt 0.260986 0.268587
vt 0.261407 0.267992
vt 0.262578 0.269206
vt 0.262521 0.269287
vt 0.453857 0.381059
vt 0.454555 0.380861
vt 0.454858 0.382498
vt 0.454609 0.382568
vt 0.454555 0.380861
vt 0.905017 0.34017
vt 0.905015 0.341834
vt 0.454858 0.382498
vt 0.72876 0.268844
vt 0.729018 0.268163
vt 0.730456 0.269044
vt 0.730364 0.269287
vt 0.238232 0.267992
vt 0.238653 0.268587
vt 0.237118 0.269287
vt 0.237061 0.269206
vt 0.608154 0.271134
vt 0.608867 0.271
vt 0.609022 0.272657
vt 0.608767 0.272705
vt 0.608867 0.271
vt 0.676081 0.271
vt 0.675929 0.272657
vt 0.609022 0.272657
vt 0.240719 0.265642
vt 0.240584 0.266357
vt 0.239014 0.26574
vt 0.239062 0.265485
vt 0.255743 0.268693
vt 0.255322 0.269287
vt 0.25415 0.268074
vt 0.254208 0.267992
vt 0.917713 0.386112
vt 0.917015 0.38631
vt 0.916712 0.384674
vt 0.916961 0.384603
vt 0.917015 0.38631
vt 0.466553 0.427002
vt 0.466555 0.425338
vt 0.916712 0.384674
vt 0.727038 0.268606
vt 0.72678 0.269287
vt 0.725342 0.268406
vt 0.725434 0.268163
vt 0.244317 0.269287
vt 0.243896 0.268693
vt 0.245431 0.267992
vt 0.245489 0.268074
vt 0.245985 0.266357
vt 0.24585 0.265642
vt 0.247507 0.265485
vt 0.247555 0.26574
vt 0.745905 0.272705
vt 0.678691 0.272705
vt 0.678846 0.271048
vt 0.745753 0.271048
vt 0.455841 0.631632
vt 0.455908 0.631883
vt 0.455908 0.699074
vt 0.45577 0.631561
vt 0.455841 0.631632
vt 0.455908 0.699074
vt 0.45552 0.631494
vt 0.45577 0.631561
vt 0.455908 0.699074
vt 0.001609 0.631494
vt 0.45552 0.631494
vt 0.455908 0.699074
vt 0.001359 0.631561
vt 0.001609 0.631494
vt 0.455908 0.699074
vt 0.001288 0.631632
vt 0.001359 0.631561
vt 0.455908 0.699074
vt 0.001221 0.631883
vt 0.001288 0.631632
vt 0.455908 0.699074
vt 0.001221 0.699074
vt 0.001221 0.631883
vt 0.455908 0.699074
vt 0.001288 0.699325
vt 0.001221 0.699074
vt 0.455908 0.699074
vt 0.001359 0.699396
vt 0.001288 0.699325
vt 0.455908 0.699074
vt 0.001609 0.699463
vt 0.001359 0.699396
vt 0.455908 0.699074
vt 0.45552 0.699463
vt 0.001609 0.699463
vt 0.455908 0.699074
vt 0.45577 0.699396
vt 0.45552 0.699463
vt 0.455908 0.699074
vt 0.455908 0.699074
vt 0.455841 0.699325
vt 0.45577 0.699396
vt 0.457764 0.699074
vt 0.457764 0.631883
vt 0.457831 0.631632
vt 0.457764 0.699074
vt 0.457831 0.631632
vt 0.457902 0.631561
vt 0.457764 0.699074
vt 0.457902 0.631561
vt 0.458152 0.631494
vt 0.457764 0.699074
vt 0.458152 0.631494
vt 0.912063 0.631494
vt 0.457764 0.699074
vt 0.912063 0.631494
vt 0.912313 0.631561
vt 0.457764 0.699074
vt 0.912313 0.631561
vt 0.912384 0.631632
vt 0.457764 0.699074
vt 0.912384 0.631632
vt 0.912451 0.631883
vt 0.457764 0.699074
vt 0.912451 0.631883
vt 0.912451 0.699074
vt 0.457764 0.699074
vt 0.912451 0.699074
vt 0.912384 0.699325
vt 0.457764 0.699074
vt 0.912384 0.699325
vt 0.912313 0.699396
vt 0.457764 0.699074
vt 0.912313 0.699396
vt 0.912063 0.699463
vt 0.457764 0.699074
vt 0.912063 0.699463
vt 0.458152 0.699463
vt 0.457764 0.699074
vt 0.458152 0.699463
vt 0.457902 0.699396
vt 0.457902 0.699396
vt 0.457831 0.699325
vt 0.457764 0.699074
vn 0.707018 -0.707194 -0.001332
vn 0.609776 -0.719158 -0.333145
vn 0.333145 -0.719158 -0.609776
vn 0.000199 -0.70712 -0.707094
vn -0.000199 -0.70712 -0.707094
vn -0.333145 -0.719158 -0.609776
vn -0.609776 -0.719158 -0.333145
vn -0.707018 -0.707194 -0.001332
vn -0.707018 -0.707194 0.001332
vn -0.609776 -0.719158 0.333145
vn -0.333145 -0.719158 0.609776
vn -0.000199 -0.70712 0.707094
vn 0.000199 -0.70712 0.707094
vn 0.333145 -0.719158 0.609776
vn 0.609776 -0.719158 0.333145
vn 0.707018 -0.707194 0.001332
vn 0.999996 0 -0.002762
vn 0.866025 0 -0.5
vn 0.5 0 -0.866025
vn 0.000414 0 -1
vn -0.000414 0 -1
vn -0.5 0 -0.866025
vn -0.866025 0 -0.5
vn -0.999996 0 -0.002762
vn -0.999996 0 0.002762
vn -0.866025 0 0.5
vn -0.5 0 0.866025
vn -0.000414 0 1
vn 0.000414 0 1
vn 0.5 0 0.866025
vn 0.866025 0 0.5
vn 0.999996 0 0.002762
vn 0.707018 0.707194 -0.001332
vn 0.609776 0.719158 -0.333145
vn 0.333145 0.719158 -0.609776
vn 0.000199 0.70712 -0.707094
vn -0.000199 0.70712 -0.707094
vn -0.333145 0.719158 -0.609776
vn -0.609776 0.719158 -0.333145
vn -0.707018 0.707194 -0.001332
vn -0.707018 0.707194 0.001332
vn -0.609776 0.719158 0.333145
vn -0.333145 0.719158 0.609776
vn -0.000199 0.70712 0.707094
vn 0.000199 0.70712 0.707094
vn 0.333145 0.719158 0.609776
vn 0.609776 0.719158 0.333145
vn 0.707018 0.707194 0.001332
vn 0 -1 0
vn 0 1 0
f 293/961/153 294/962/154 310/963/154 309/964/153
f 294/965/154 295/966/155 311/967/155 310/968/154
f 295/969/155 296/970/156 312/971/156 311/972/155
f 296/973/156 297/974/157 313/975/157 312/976/156
f 297/977/157 298/978/158 314/979/158 313/980/157
f 298/981/158 299/982/159 315/983/159 314/984/158
f 299/985/159 300/986/160 316/987/160 315/988/159
f 300/989/160 301/990/161 317/991/161 316/992/160
f 301/993/161 302/994/162 318/995/162 317/996/161
f 302/997/162 303/998/163 319/999/163 318/1000/162
f 303/1001/163 304/1002/164 320/1003/164 319/1004/163
f 304/1005/164 305/1006/165 321/1007/165 320/1008/164
f 305/1009/165 306/1010/166 322/1011/166 321/1012/165
f 306/1013/166 307/1014/167 323/1015/167 322/1016/166
f 307/1017/167 308/1018/168 324/1019/168 323/1020/167
f 308/1021/168 293/1022/153 309/1023/153 324/1024/168
f 309/1025/169 310/1026/170 326/1027/170 325/1028/169
f 310/1029/170 311/1030/171 327/1031/171 326/1032/170
f 311/1033/171 312/1034/172 328/1035/172 327/1036/171
f 312/1037/172 313/1038/173 329/1039/173 328/1040/172
f 313/1041/173 314/1042/174 330/1043/174 329/1044/173
f 314/1045/174 315/1046/175 331/1047/175 330/1048/174
f 315/1049/175 316/1050/176 332/1051/176 331/1052/175
f 316/1053/176 317/1054/177 333/1055/177 332/1056/176
f 317/1057/177 318/1058/178 334/1059/178 333/1060/177
f 318/1061/178 319/1062/179 335/1063/179 334/1064/178
f 319/1065/179 320/1066/180 336/1067/180 335/1068/179
f 320/1069/180 321/1070/181 337/1071/181 336/1072/180
f 321/1073/181 322/1074/182 338/1075/182 337/1076/181
f 322/1077/182 323/1078/183 339/1079/183 338/1080/182
f 323/1081/183 324/1082/184 340/1083/184 339/1084/183
f 324/1085/184 309/1086/169 325/1087/169 340/1088/184
f 325/1089/185 326/1090/186 342/1091/186 341/1092/185
f 326/1093/186 327/1094/187 343/1095/187 342/1096/186
f 327/1097/187 328/1098/188 344/1099/188 343/1100/187
f 328/1101/188 329/1102/189 345/1103/189 344/1104/188
f 329/1105/189 330/1106/190 346/1107/190 345/1108/189
f 330/1109/190 331/1110/191 347/1111/191 346/1112/190
f 331/1113/191 332/1114/192 348/1115/192 347/1116/191
f 332/1117/192 333/1118/193 349/1119/193 348/1120/192
f 333/1121/193 334/1122/194 350/1123/194 349/1124/193
f 334/1125/194 335/1126/195 351/1127/195 350/1128/194
f 335/1129/195 336/1130/196 352/1131/196 351/1132/195
f 336/1133/196 337/1134/197 353/1135/197 352/1136/196
f 337/1137/197 338/1138/198 354/1139/198 353/1140/197
f 338/1141/198 339/1142/199 355/1143/199 354/1144/198
f 339/1145/199 340/1146/200 356/1147/200 355/1148/199
f 340/1149/200 325/1150/185 341/1151/185 356/1152/200
f 358/1153/201 357/1154/201 372/1155/201
f 359/1156/201 358/1157/201 372/1158/201
f 360/1159/201 359/1160/201 372/1161/201
f 361/1162/201 360/1163/201 372/1164/201
f 362/1165/201 361/1166/201 372/1167/201
f 363/1168/201 362/1169/201 372/1170/201
f 364/1171/201 363/1172/201 372/1173/201
f 365/1174/201 364/1175/201 372/1176/201
f 366/1177/201 365/1178/201 372/1179/201
f 367/1180/201 366/1181/201 372/1182/201
f 368/1183/201 367/1184/201 372/1185/201
f 369/1186/201 368/1187/201 372/1188/201
f 370/1189/201 369/1190/201 372/1191/201
f 372/1192/201 371/1193/201 370/1194/201
f 388/1195/202 373/1196/202 374/1197/202
f 388/1198/202 374/1199/202 375/1200/202
f 388/1201/202 375/1202/202 376/1203/202
f 388/1204/202 376/1205/202 377/1206/202
f 388/1207/202 377/1208/202 378/1209/202
f 388/1210/202 378/1211/202 379/1212/202
f 388/1213/202 379/1214/202 380/1215/202
f 388/1216/202 380/1217/202 381/1218/202
f 388/1219/202 381/1220/202 382/1221/202
f 388/1222/202 382/1223/202 383/1224/202
f 388/1225/202 383/1226/202 384/1227/202
f 388/1228/202 384/1229/202 385/1230/202
f 388/1231/202 385/1232/202 386/1233/202
f 386/1234/202 387/1235/202 388/1236/202
o cap
usemtl sign
v 2.982 0.899 0.175053
v 2.980952 0.899 0.171141
v 2.978859 0.899 0.169048
v 2.974947 0.899 0.168
v -0.974947 0.899 0.168
v -0.978859 0.899 0.169048
v -0.980952 0.899 0.171141
v -0.982 0.899 0.175053
v -0.982 0.899 0.824947
v -0.980952 0.899 0.828859
v -0.978859 0.899 0.830952
v -0.974947 0.899 0.832
v 2.974947 0.899 0.832
v 2.978859 0.899 0.830952
v 2.980952 0.899 0.828859
v 2.982 0.899 0.824947
v 2.99 0.907 0.174
v 2.988124 0.907 0.167
v 2.983 0.907 0.161876
v 2.976 0.907 0.16
v -0.976 0.907 0.16
v -0.983 0.907 0.161876
v -0.988124 0.907 0.167
v -0.99 0.907 0.174
v -0.99 0.907 0.826
v -0.988124 0.907 0.833
v -0.983 0.907 0.838124
v -0.976 0.907 0.84
v 2.976 0.907 0.84
v 2.983 0.907 0.838124
v 2.988124 0.907 0.833
v 2.99 0.907 0.826
v 2.99 0.972 0.174
v 2.988124 0.972 0.167
v 2.983 0.972 0.161876
v 2.976 0.972 0.16
v -0.976 0.972 0.16
v -0.983 0.972 0.161876
v -0.988124 0.972 0.167
v -0.99 0.972 0.174
v -0.99 0.972 0.826
v -0.988124 0.972 0.833
v -0.983 0.972 0.838124
v -0.976 0.972 0.84
v 2.976 0.972 0.84
v 2.983 0.972 0.838124
v 2.988124 0.972 0.833
v 2.99 0.972 0.826
v 2.982 0.98 0.175053
v 2.980952 0.98 0.171141
v 2.978859 0.98 0.169048
v 2.974947 0.98 0.168
v -0.974947 0.98 0.168
v -0.978859 0.98 0.169048
v -0.980952 0.98 0.171141
v -0.982 0.98 0.175053
v -0.982 0.98 0.824947
v -0.980952 0.98 0.828859
v -0.978859 0.98 0.830952
v -0.974947 0.98 0.832
v 2.974947 0.98 0.832
v 2.978859 0.98 0.830952
v 2.980952 0.98 0.828859
v 2.982 0.98 0.824947
v 2.982 0.899 0.175053
v 2.980952 0.899 0.171141
v 2.978859 0.899 0.169048
v 2.974947 0.899 0.168
v -0.974947 0.899 0.168
v -0.978859 0.899 0.169048
v -0.980952 0.899 0.171141
v -0.982 0.899 0.175053
v -0.982 0.899 0.824947
v -0.980952 0.899 0.828859
v -0.978859 0.899 0.830952
v -0.974947 0.899 0.832
v 2.974947 0.899 0.832
v 2.978859 0.899 0.830952
v 2.980952 0.899 0.828859
v 2.982 0.899 0.824947
v 2.982 0.98 0.175053
v 2.980952 0.98 0.171141
v 2.978859 0.98 0.169048
v 2.974947 0.98 0.168
v -0.974947 0.98 0.168
v -0.978859 0.98 0.169048
v -0.980952 0.98 0.171141
v -0.982 0.98 0.175053
v -0.982 0.98 0.824947
v -0.980952 0.98 0.828859
v -0.978859 0.98 0.830952
v -0.974947 0.98 0.832
v 2.974947 0.98 0.832
v 2.978859 0.98 0.830952
v 2.980952 0.98 0.828859
v 2.982 0.98 0.824947
vt 0.159402 0.2692
vt 0.158938 0.269287
vt 0.158447 0.26803
vt 0.159278 0.267874
vt 0.279253 0.269287
vt 0.279053 0.269004
vt 0.27999 0.268033
vt 0.280481 0.268727
vt 0.664829 0.629639
vt 0.664375 0.62951
vt 0.664617 0.6282
vt 0.665431 0.628431
vt 0.664375 0.62951
vt 0.205324 0.588042
vt 0.205322 0.586711
vt 0.664617 0.6282
vt 0.714907 0.268139
vt 0.715075 0.268582
vt 0.713924 0.269287
vt 0.713623 0.268493
vt 0.274621 0.269004
vt 0.274421 0.269287
vt 0.273193 0.268727
vt 0.273684 0.268033
vt 0.853274 0.271292
vt 0.853738 0.271379
vt 0.853614 0.272705
vt 0.852783 0.272548
vt 0.853738 0.271379
vt 0.929575 0.271379
vt 0.929697 0.272705
vt 0.853614 0.272705
vt 0.746199 0.268327
vt 0.746287 0.268793
vt 0.745031 0.269287
vt 0.744873 0.268453
vt 0.28321 0.268033
vt 0.28341 0.268317
vt 0.282473 0.269287
vt 0.281982 0.268594
vt 0.463736 0.517375
vt 0.464191 0.517504
vt 0.463948 0.518813
vt 0.463135 0.518582
vt 0.464191 0.517504
vt 0.923241 0.558971
vt 0.923243 0.560303
vt 0.463948 0.518813
vt 0.72258 0.269287
vt 0.722412 0.268843
vt 0.723563 0.268139
vt 0.723864 0.268933
vt 0.267334 0.268317
vt 0.267534 0.268033
vt 0.268762 0.268594
vt 0.268271 0.269287
vt 0.739014 0.268793
vt 0.739102 0.268327
vt 0.740428 0.268453
vt 0.74027 0.269287
vt 0.235239 0.2692
vt 0.159402 0.2692
vt 0.159278 0.267874
vt 0.235361 0.267874
vt 0.286377 0.266357
vt 0.286377 0.265508
vt 0.293994 0.265508
vt 0.293994 0.266357
vt 0.249268 0.266357
vt 0.249268 0.265508
vt 0.256885 0.265508
vt 0.256885 0.266357
vt 0.342041 0.266357
vt 0.342041 0.265508
vt 0.349658 0.265508
vt 0.349658 0.266357
vt 0.001221 0.287061
vt 0.464346 0.287061
vt 0.464346 0.294678
vt 0.001221 0.294678
vt 0.258545 0.266357
vt 0.258545 0.265508
vt 0.266162 0.265508
vt 0.266162 0.266357
vt 0.331104 0.265508
vt 0.331104 0.266357
vt 0.323486 0.266357
vt 0.323486 0.265508
vt 0.303271 0.265508
vt 0.303271 0.266357
vt 0.295654 0.266357
vt 0.295654 0.265508
vt 0.001221 0.277783
vt 0.077627 0.277783
vt 0.077627 0.2854
vt 0.001221 0.2854
vt 0.312549 0.265508
vt 0.312549 0.266357
vt 0.304932 0.266357
vt 0.304932 0.265508
vt 0.340381 0.265508
vt 0.340381 0.266357
vt 0.332764 0.266357
vt 0.332764 0.265508
vt 0.267822 0.266357
vt 0.267822 0.265508
vt 0.275439 0.265508
vt 0.275439 0.266357
vt 0.466064 0.287061
vt 0.929189 0.287061
vt 0.929189 0.294678
vt 0.466064 0.294678
vt 0.351318 0.266357
vt 0.351318 0.265508
vt 0.358936 0.265508
vt 0.358936 0.266357
vt 0.2771 0.266357
vt 0.2771 0.265508
vt 0.284717 0.265508
vt 0.284717 0.266357
vt 0.314209 0.266357
vt 0.314209 0.265508
vt 0.321826 0.265508
vt 0.321826 0.266357
vt 0.155752 0.2854
vt 0.079346 0.2854
vt 0.079346 0.277783
vt 0.155752 0.277783
vt 0.002052 0.269287
vt 0.001221 0.26913
vt 0.001711 0.267874
vt 0.002176 0.267961
vt 0.264404 0.268727
vt 0.264895 0.268033
vt 0.265832 0.269004
vt 0.265632 0.269287
vt 0.001221 0.559095
vt 0.002034 0.558864
vt 0.002277 0.560174
vt 0.001822 0.560303
vt 0.002034 0.558864
vt 0.461329 0.517375
vt 0.461327 0.518706
vt 0.002277 0.560174
vt 0.719482 0.268933
vt 0.719783 0.268139
vt 0.720934 0.268843
vt 0.720766 0.269287
vt 0.277061 0.268033
vt 0.277551 0.268727
vt 0.276323 0.269287
vt 0.276123 0.269004
vt 0.079834 0.26803
vt 0.080665 0.267874
vt 0.080789 0.2692
vt 0.080325 0.269287
vt 0.080665 0.267874
vt 0.156748 0.267874
vt 0.156626 0.2692
vt 0.080789 0.2692
vt 0.749217 0.268453
vt 0.749059 0.269287
vt 0.747803 0.268793
vt 0.747891 0.268327
vt 0.28634 0.268594
vt 0.28585 0.269287
vt 0.284912 0.268317
vt 0.285112 0.268033
vt 0.461329 0.474149
vt 0.460516 0.47438
vt 0.460273 0.47307
vt 0.460728 0.472941
vt 0.460516 0.47438
vt 0.001221 0.515869
vt 0.001223 0.514538
vt 0.460273 0.47307
vt 0.718004 0.268493
vt 0.717704 0.269287
vt 0.716553 0.268582
vt 0.716721 0.268139
vt 0.270754 0.269287
vt 0.270264 0.268594
vt 0.271491 0.268033
vt 0.271691 0.268317
vt 0.742101 0.269287
vt 0.741943 0.268453
vt 0.743269 0.268327
vt 0.743357 0.268793
vt 0.078135 0.269287
vt 0.002052 0.269287
vt 0.002176 0.267961
vt 0.078013 0.267961
vt 0.465629 0.701608
vt 0.465752 0.702067
vt 0.465752 0.778226
vt 0.465384 0.701363
vt 0.465629 0.701608
vt 0.465752 0.778226
vt 0.464925 0.70124
vt 0.465384 0.701363
vt 0.465752 0.778226
vt 0.002047 0.70124
vt 0.464925 0.70124
vt 0.465752 0.778226
vt 0.001589 0.701363
vt 0.002047 0.70124
vt 0.465752 0.778226
vt 0.001344 0.701608
vt 0.001589 0.701363
vt 0.465752 0.778226
vt 0.001221 0.702067
vt 0.001344 0.701608
vt 0.465752 0.778226
vt 0.001221 0.778226
vt 0.001221 0.702067
vt 0.465752 0.778226
vt 0.001344 0.778685
vt 0.001221 0.778226
vt 0.465752 0.778226
vt 0.001589 0.77893
vt 0.001344 0.778685
vt 0.465752 0.778226
vt 0.002047 0.779053
vt 0.001589 0.77893
vt 0.465752 0.778226
vt 0.464925 0.779053
vt 0.002047 0.779053
vt 0.465752 0.778226
vt 0.465384 0.77893
vt 0.464925 0.779053
vt 0.465752 0.778226
vt 0.465752 0.778226
vt 0.465629 0.778685
vt 0.465384 0.77893
vt 0.467529 0.778226
vt 0.467529 0.702067
vt 0.467652 0.701608
vt 0.467529 0.778226
vt 0.467652 0.701608
vt 0.467897 0.701363
vt 0.467529 0.778226
vt 0.467897 0.701363
vt 0.468356 0.70124
vt 0.467529 0.778226
vt 0.468356 0.70124
vt 0.931234 0.70124
vt 0.467529 0.778226
vt 0.931234 0.70124
vt 0.931692 0.701363
vt 0.467529 0.778226
vt 0.931692 0.701363
vt 0.931938 0.701608
vt 0.467529 0.778226
vt 0.931938 0.701608
vt 0.932061 0.702067
vt 0.467529 0.778226
vt 0.932061 0.702067
vt 0.932061 0.778226
vt 0.467529 0.778226
vt 0.932061 0.778226
vt 0.931938 0.778685
vt 0.467529 0.778226
vt 0.931938 0.778685
vt 0.931692 0.77893
vt 0.467529 0.778226
vt 0.931692 0.77893
vt 0.931234 0.779053
vt 0.467529 0.778226
vt 0.931234 0.779053
vt 0.468356 0.779053
vt 0.467529 0.778226
vt 0.468356 0.779053
vt 0.467897 0.77893
vt 0.467897 0.77893
vt 0.467652 0.778685
vt 0.467529 0.778226
vn 0.707002 -0.70721 -0.001575
vn 0.606361 -0.719223 -0.339184
vn 0.339184 -0.719223 -0.606361
vn 0.000261 -0.707124 -0.70709
vn -0.000261 -0.707124 -0.70709
vn -0.339184 -0.719223 -0.606361
vn -0.606361 -0.719223 -0.339184
vn -0.707002 -0.70721 -0.001575
vn -0.707002 -0.70721 0.001575
vn -0.606361 -0.719223 0.339184
vn -0.339184 -0.719223 0.606361
vn -0.000261 -0.707124 0.70709
vn 0.000261 -0.707124 0.70709
vn 0.339184 -0.719223 0.606361
vn 0.606361 -0.719223 0.339184
vn 0.707002 -0.70721 0.001575
vn 0.999996 0 -0.002846
vn 0.866025 0 -0.5
vn 0.5 0 -0.866025
vn 0.000474 0 -1
vn -0.000474 0 -1
vn -0.5 0 -0.866025
vn -0.866025 0 -0.5
vn -0.999996 0 -0.002846
vn -0.999996 0 0.002846
vn -0.866025 0 0.5
vn -0.5 0 0.866025
vn -0.000474 0 1
vn 0.000474 0 1
vn 0.5 0 0.866025
vn 0.866025 0 0.5
vn 0.999996 0 0.002846
vn 0.707002 0.70721 -0.001575
vn 0.606361 0.719223 -0.339184
vn 0.339184 0.719223 -0.606361
vn 0.000261 0.707124 -0.70709
vn -0.000261 0.707124 -0.70709
vn -0.339184 0.719223 -0.606361
vn -0.606361 0.719223 -0.339184
vn -0.707002 0.70721 -0.001575
vn -0.707002 0.70721 0.001575
vn -0.606361 0.719223 0.339184
vn -0.339184 0.719223 0.606361
vn -0.000261 0.707124 0.70709
vn 0.000261 0.707124 0.70709
vn 0.339184 0.719223 0.606361
vn 0.606361 0.719223 0.339184
vn 0.707002 0.70721 0.001575
vn 0 -1 0
vn 0 1 0
f 389/1237/203 390/1238/204 406/1239/204 405/1240/203
f 390/1241/204 391/1242/205 407/1243/205 406/1244/204
f 391/1245/205 392/1246/206 408/1247/206 407/1248/205
f 392/1249/206 393/1250/207 409/1251/207 408/1252/206
f 393/1253/207 394/1254/208 410/1255/208 409/1256/207
f 394/1257/208 395/1258/209 411/1259/209 410/1260/208
f 395/1261/209 396/1262/210 412/1263/210 411/1264/209
f 396/1265/210 397/1266/211 413/1267/211 412/1268/210
f 397/1269/211 398/1270/212 414/1271/212 413/1272/211
f 398/1273/212 399/1274/213 415/1275/213 414/1276/212
f 399/1277/213 400/1278/214 416/1279/214 415/1280/213
f 400/1281/214 401/1282/215 417/1283/215 416/1284/214
f 401/1285/215 402/1286/216 418/1287/216 417/1288/215
f 402/1289/216 403/1290/217 419/1291/217 418/1292/216
f 403/1293/217 404/1294/218 420/1295/218 419/1296/217
f 404/1297/218 389/1298/203 405/1299/203 420/1300/218
f 405/1301/219 406/1302/220 422/1303/220 421/1304/219
f 406/1305/220 407/1306/221 423/1307/221 422/1308/220
f 407/1309/221 408/1310/222 424/1311/222 423/1312/221
f 408/1313/222 409/1314/223 425/1315/223 424/1316/222
f 409/1317/223 410/1318/224 426/1319/224 425/1320/223
f 410/1321/224 411/1322/225 427/1323/225 426/1324/224
f 411/1325/225 412/1326/226 428/1327/226 427/1328/225
f 412/1329/226 413/1330/227 429/1331/227 428/1332/226
f 413/1333/227 414/1334/228 430/1335/228 429/1336/227
f 414/1337/228 415/1338/229 431/1339/229 430/1340/228
f 415/1341/229 416/1342/230 432/1343/230 431/1344/229
f 416/1345/230 417/1346/231 433/1347/231 432/1348/230
f 417/1349/231 418/1350/232 434/1351/232 433/1352/231
f 418/1353/232 419/1354/233 435/1355/233 434/1356/232
f 419/1357/233 420/1358/234 436/1359/234 435/1360/233
f 420/1361/234 405/1362/219 421/1363/219 436/1364/234
f 421/1365/235 422/1366/236 438/1367/236 437/1368/235
f 422/1369/236 423/1370/237 439/1371/237 438/1372/236
f 423/1373/237 424/1374/238 440/1375/238 439/1376/237
f 424/1377/238 425/1378/239 441/1379/239 440/1380/238
f 425/1381/239 426/1382/240 442/1383/240 441/1384/239
f 426/1385/240 427/1386/241 443/1387/241 442/1388/240
f 427/1389/241 428/1390/242 444/1391/242 443/1392/241
f 428/1393/242 429/1394/243 445/1395/243 444/1396/242
f 429/1397/243 430/1398/244 446/1399/244 445/1400/243
f 430/1401/244 431/1402/245 447/1403/245 446/1404/244
f 431/1405/245 432/1406/246 448/1407/246 447/1408/245
f 432/1409/246 433/1410/247 449/1411/247 448/1412/246
f 433/1413/247 434/1414/248 450/1415/248 449/1416/247
f 434/1417/248 435/1418/249 451/1419/249 450/1420/248
f 435/1421/249 436/1422/250 452/1423/250 451/1424/249
f 436/1425/250 421/1426/235 437/1427/235 452/1428/250
f 454/1429/251 453/1430/251 468/1431/251
f 455/1432/251 454/1433/251 468/1434/251
f 456/1435/251 455/1436/251 468/1437/251
f 457/1438/251 456/1439/251 468/1440/251
f 458/1441/251 457/1442/251 468/1443/251
f 459/1444/251 458/1445/251 468/1446/251
f 460/1447/251 459/1448/251 468/1449/251
f 461/1450/251 460/1451/251 468/1452/251
f 462/1453/251 461/1454/251 468/1455/251
f 463/1456/251 462/1457/251 468/1458/251
f 464/1459/251 463/1460/251 468/1461/251
f 465/1462/251 464/1463/251 468/1464/251
f 466/1465/251 465/1466/251 468/1467/251
f 468/1468/251 467/1469/251 466/1470/251
f 484/1471/252 469/1472/252 470/1473/252
f 484/1474/252 470/1475/252 471/1476/252
f 484/1477/252 471/1478/252 472/1479/252
f 484/1480/252 472/1481/252 473/1482/252
f 484/1483/252 473/1484/252 474/1485/252
f 484/1486/252 474/1487/252 475/1488/252
f 484/1489/252 475/1490/252 476/1491/252
f 484/1492/252 476/1493/252 477/1494/252
f 484/1495/252 477/1496/252 478/1497/252
f 484/1498/252 478/1499/252 479/1500/252
f 484/1501/252 479/1502/252 480/1503/252
f 484/1504/252 480/1505/252 481/1506/252
f 484/1507/252 481/1508/252 482/1509/252
f 482/1510/252 483/1511/252 484/1512/252
o cabinet
usemtl sign_cabinet
v -0.894 0.985 0.3
v 2.894 0.985 0.3
v 2.894 3.794 0.3
v -0.894 3.794 0.3
v -0.9 0.979 0.306
v 2.9 0.979 0.306
v 2.9 3.8 0.306
v -0.9 3.8 0.306
v -0.9 0.979 0.694
v 2.9 0.979 0.694
v 2.9 3.8 0.694
v -0.9 3.8 0.694
v -0.894 0.985 0.7
v 2.894 0.985 0.7
v 2.894 3.794 0.7
v -0.894 3.794 0.7
v -0.806 3.706 0.3
v 2.806 3.706 0.3
v 2.806 2.694 0.3
v -0.806 2.694 0.3
v -0.8 3.7 0.306
v 2.8 3.7 0.306
v 2.8 2.7 0.306
v -0.8 2.7 0.306
v -0.8 3.7 0.694
v 2.8 3.7 0.694
v 2.8 2.7 0.694
v -0.8 2.7 0.694
v -0.806 3.706 0.7
v 2.806 3.706 0.7
v 2.806 2.694 0.7
v -0.806 2.694 0.7
v -0.806 2.606 0.3
v 2.806 2.606 0.3
v 2.806 1.954 0.3
v -0.806 1.954 0.3
v -0.8 2.6 0.306
v 2.8 2.6 0.306
v 2.8 1.96 0.306
v -0.8 1.96 0.306
v -0.8 2.6 0.694
v 2.8 2.6 0.694
v 2.8 1.96 0.694
v -0.8 1.96 0.694
v -0.806 2.606 0.7
v 2.806 2.606 0.7
v 2.806 1.954 0.7
v -0.806 1.954 0.7
v -0.806 1.806 0.3
v 2.806 1.806 0.3
v 2.806 1.154 0.3
v -0.806 1.154 0.3
v -0.8 1.8 0.306
v 2.8 1.8 0.306
v 2.8 1.16 0.306
v -0.8 1.16 0.306
v -0.8 1.8 0.694
v 2.8 1.8 0.694
v 2.8 1.16 0.694
v -0.8 1.16 0.694
v -0.806 1.806 0.7
v 2.806 1.806 0.7
v 2.806 1.154 0.7
v -0.806 1.154 0.7
v -0.894 0.985 0.3
v 2.894 0.985 0.3
v 2.894 3.794 0.3
v -0.894 3.794 0.3
v -0.806 3.706 0.3
v 2.806 3.706 0.3
v 2.806 2.694 0.3
v -0.806 2.694 0.3
v -0.806 2.606 0.3
v 2.806 2.606 0.3
v 2.806 1.954 0.3
v -0.806 1.954 0.3
v -0.806 1.806 0.3
v 2.806 1.806 0.3
v 2.806 1.154 0.3
v -0.806 1.154 0.3
v -0.894 0.985 0.7
v 2.894 0.985 0.7
v 2.894 3.794 0.7
v -0.894 3.794 0.7
v -0.806 3.706 0.7
v 2.806 3.706 0.7
v 2.806 2.694 0.7
v -0.806 2.694 0.7
v -0.806 2.606 0.7
v 2.806 2.606 0.7
v 2.806 1.954 0.7
v -0.806 1.954 0.7
v -0.806 1.806 0.7
v 2.806 1.806 0.7
v 2.806 1.154 0.7
v -0.806 1.154 0.7
vt 0.001924 0.367902
vt 0.44583 0.367902
vt 0.446533 0.368896
vt 0.001221 0.368896
vt 0.001924 0.359113
vt 0.331104 0.359113
vt 0.331807 0.360107
vt 0.001221 0.360107
vt 0.231904 0.429914
vt 0.675811 0.429914
vt 0.676514 0.430908
vt 0.231201 0.430908
vt 0.426729 0.373761
vt 0.755908 0.373761
vt 0.756611 0.374756
vt 0.426025 0.374756
vt 0.001221 0.622256
vt 0.446533 0.622256
vt 0.446533 0.667725
vt 0.001221 0.667725
vt 0.001221 0.432803
vt 0.331807 0.432803
vt 0.331807 0.478271
vt 0.001221 0.478271
vt 0.447998 0.622256
vt 0.893311 0.622256
vt 0.893311 0.667725
vt 0.447998 0.667725
vt 0.33374 0.432803
vt 0.664326 0.432803
vt 0.664326 0.478271
vt 0.33374 0.478271
vt 0.447998 0.367902
vt 0.893311 0.367902
vt 0.892607 0.368896
vt 0.448701 0.368896
vt 0.33374 0.359113
vt 0.664326 0.359113
vt 0.663623 0.360107
vt 0.334443 0.360107
vt 0.001221 0.382551
vt 0.446533 0.382551
vt 0.44583 0.383545
vt 0.001924 0.383545
vt 0.001221 0.370832
vt 0.331807 0.370832
vt 0.331104 0.371826
vt 0.001924 0.371826
vt 0.001221 0.364972
vt 0.424502 0.364972
vt 0.423799 0.365967
vt 0.001924 0.365967
vt 0.66626 0.359113
vt 0.784854 0.359113
vt 0.78415 0.360107
vt 0.666963 0.360107
vt 0.447998 0.382551
vt 0.871279 0.382551
vt 0.870576 0.383545
vt 0.448701 0.383545
vt 0.33374 0.370832
vt 0.452334 0.370832
vt 0.451631 0.371826
vt 0.334443 0.371826
vt 0.001221 0.574893
vt 0.423096 0.574893
vt 0.423096 0.620361
vt 0.001221 0.620361
vt 0.66626 0.432803
vt 0.783447 0.432803
vt 0.783447 0.478271
vt 0.66626 0.478271
vt 0.425049 0.574893
vt 0.846924 0.574893
vt 0.846924 0.620361
vt 0.425049 0.620361
vt 0.784912 0.432803
vt 0.9021 0.432803
vt 0.9021 0.478271
vt 0.784912 0.478271
vt 0.426729 0.364972
vt 0.848604 0.364972
vt 0.849307 0.365967
vt 0.426025 0.365967
vt 0.78708 0.359113
vt 0.904268 0.359113
vt 0.904971 0.360107
vt 0.786377 0.360107
vt 0.001924 0.379621
vt 0.423799 0.379621
vt 0.424502 0.380615
vt 0.001221 0.380615
vt 0.454561 0.370832
vt 0.571748 0.370832
vt 0.572451 0.371826
vt 0.453857 0.371826
vt 0.001221 0.356183
vt 0.424502 0.356183
vt 0.423799 0.357178
vt 0.001924 0.357178
vt 0.079346 0.353254
vt 0.155752 0.353254
vt 0.155049 0.354248
vt 0.080049 0.354248
vt 0.426025 0.379621
vt 0.849307 0.379621
vt 0.848604 0.380615
vt 0.426729 0.380615
vt 0.730225 0.370832
vt 0.806631 0.370832
vt 0.805928 0.371826
vt 0.730928 0.371826
vt 0.001221 0.527529
vt 0.423096 0.527529
vt 0.423096 0.572998
vt 0.001221 0.572998
vt 0.903564 0.432803
vt 0.978564 0.432803
vt 0.978564 0.478271
vt 0.903564 0.478271
vt 0.425049 0.527529
vt 0.846924 0.527529
vt 0.846924 0.572998
vt 0.425049 0.572998
vt 0.001221 0.385439
vt 0.076221 0.385439
vt 0.076221 0.430908
vt 0.001221 0.430908
vt 0.426729 0.356183
vt 0.848604 0.356183
vt 0.849307 0.357178
vt 0.426025 0.357178
vt 0.907197 0.359113
vt 0.982197 0.359113
vt 0.9829 0.360107
vt 0.906494 0.360107
vt 0.001924 0.376691
vt 0.423799 0.376691
vt 0.424502 0.377686
vt 0.001221 0.377686
vt 0.809053 0.370832
vt 0.884053 0.370832
vt 0.884756 0.371826
vt 0.80835 0.371826
vt 0.001221 0.362043
vt 0.424502 0.362043
vt 0.423799 0.363037
vt 0.001924 0.363037
vt 0.85083 0.356183
vt 0.927236 0.356183
vt 0.926533 0.357178
vt 0.851533 0.357178
vt 0.426025 0.376691
vt 0.849307 0.376691
vt 0.848604 0.377686
vt 0.426729 0.377686
vt 0.573975 0.370832
vt 0.650381 0.370832
vt 0.649678 0.371826
vt 0.574678 0.371826
vt 0.001221 0.480166
vt 0.423096 0.480166
vt 0.423096 0.525635
vt 0.001221 0.525635
vt 0.077881 0.385439
vt 0.152881 0.385439
vt 0.152881 0.430908
vt 0.077881 0.430908
vt 0.425049 0.480166
vt 0.846924 0.480166
vt 0.846924 0.525635
vt 0.425049 0.525635
vt 0.154541 0.385439
vt 0.229541 0.385439
vt 0.229541 0.430908
vt 0.154541 0.430908
vt 0.426729 0.362043
vt 0.848604 0.362043
vt 0.849307 0.363037
vt 0.426025 0.363037
vt 0.001924 0.353254
vt 0.076924 0.353254
vt 0.077627 0.354248
vt 0.001221 0.354248
vt 0.001924 0.373761
vt 0.423799 0.373761
vt 0.424502 0.374756
vt 0.001221 0.374756
vt 0.652803 0.370832
vt 0.727803 0.370832
vt 0.728506 0.371826
vt 0.6521 0.371826
vt 0.011533 0.988467
vt 0.001221 0.998779
vt 0.001221 0.6696
vt 0.011533 0.869873
vt 0.011533 0.988467
vt 0.001221 0.6696
vt 0.011533 0.859561
vt 0.011533 0.869873
vt 0.001221 0.6696
vt 0.011533 0.783154
vt 0.011533 0.859561
vt 0.001221 0.6696
vt 0.011533 0.765811
vt 0.011533 0.783154
vt 0.001221 0.6696
vt 0.011533 0.689404
vt 0.011533 0.765811
vt 0.001221 0.6696
vt 0.011533 0.689404
vt 0.001221 0.6696
vt 0.445127 0.6696
vt 0.434814 0.689404
vt 0.011533 0.689404
vt 0.445127 0.6696
vt 0.434814 0.689404
vt 0.445127 0.6696
vt 0.445127 0.998779
vt 0.434814 0.765811
vt 0.434814 0.689404
vt 0.445127 0.998779
vt 0.011533 0.783154
vt 0.011533 0.765811
vt 0.434814 0.765811
vt 0.434814 0.783154
vt 0.011533 0.783154
vt 0.434814 0.765811
vt 0.434814 0.783154
vt 0.434814 0.765811
vt 0.445127 0.998779
vt 0.434814 0.859561
vt 0.434814 0.783154
vt 0.445127 0.998779
vt 0.011533 0.869873
vt 0.011533 0.859561
vt 0.434814 0.859561
vt 0.434814 0.869873
vt 0.011533 0.869873
vt 0.434814 0.859561
vt 0.434814 0.869873
vt 0.434814 0.859561
vt 0.445127 0.998779
vt 0.434814 0.988467
vt 0.434814 0.869873
vt 0.445127 0.998779
vt 0.011533 0.988467
vt 0.434814 0.988467
vt 0.445127 0.998779
vt 0.445127 0.998779
vt 0.001221 0.998779
vt 0.011533 0.988467
vt 0.890928 0.6696
vt 0.890928 0.998779
vt 0.880615 0.988467
vt 0.890928 0.6696
vt 0.880615 0.988467
vt 0.880615 0.869873
vt 0.890928 0.6696
vt 0.880615 0.869873
vt 0.880615 0.859561
vt 0.890928 0.6696
vt 0.880615 0.859561
vt 0.880615 0.783154
vt 0.890928 0.6696
vt 0.880615 0.783154
vt 0.880615 0.765811
vt 0.890928 0.6696
vt 0.880615 0.765811
vt 0.880615 0.689404
vt 0.447021 0.6696
vt 0.890928 0.6696
vt 0.880615 0.689404
vt 0.447021 0.6696
vt 0.880615 0.689404
vt 0.457334 0.689404
vt 0.447021 0.998779
vt 0.447021 0.6696
vt 0.457334 0.689404
vt 0.447021 0.998779
vt 0.457334 0.689404
vt 0.457334 0.765811
vt 0.457334 0.765811
vt 0.880615 0.765811
vt 0.880615 0.783154
vt 0.457334 0.765811
vt 0.880615 0.783154
vt 0.457334 0.783154
vt 0.447021 0.998779
vt 0.457334 0.765811
vt 0.457334 0.783154
vt 0.447021 0.998779
vt 0.457334 0.783154
vt 0.457334 0.859561
vt 0.457334 0.859561
vt 0.880615 0.859561
vt 0.880615 0.869873
vt 0.457334 0.859561
vt 0.880615 0.869873
vt 0.457334 0.869873
vt 0.447021 0.998779
vt 0.457334 0.859561
vt 0.457334 0.869873
vt 0.447021 0.998779
vt 0.457334 0.869873
vt 0.457334 0.988467
vt 0.447021 0.998779
vt 0.457334 0.988467
vt 0.880615 0.988467
vt 0.880615 0.988467
vt 0.890928 0.998779
vt 0.447021 0.998779
vn 0 -0.707107 -0.707107
vn 0.707107 0 -0.707107
vn 0 0.707107 -0.707107
vn -0.707107 0 -0.707107
vn 0 -1 0
vn 1 0 0
vn 0 1 0
vn -1 0 0
vn 0 -0.707107 0.707107
vn 0.707107 0 0.707107
vn 0 0.707107 0.707107
vn -0.707107 0 0.707107
vn 0 0 -1
vn 0 0 1
f 485/1513/253 486/1514/253 490/1515/253 489/1516/253
f 486/1517/254 487/1518/254 491/1519/254 490/1520/254
f 487/1521/255 488/1522/255 492/1523/255 491/1524/255
f 488/1525/256 485/1526/256 489/1527/256 492/1528/256
f 489/1529/257 490/1530/257 494/1531/257 493/1532/257
f 490/1533/258 491/1534/258 495/1535/258 494/1536/258
f 491/1537/259 492/1538/259 496/1539/259 495/1540/259
f 492/1541/260 489/1542/260 493/1543/260 496/1544/260
f 493/1545/261 494/1546/261 498/1547/261 497/1548/261
f 494/1549/262 495/1550/262 499/1551/262 498/1552/262
f 495/1553/263 496/1554/263 500/1555/263 499/1556/263
f 496/1557/264 493/1558/264 497/1559/264 500/1560/264
f 501/1561/253 502/1562/253 506/1563/253 505/1564/253
f 502/1565/256 503/1566/256 507/1567/256 506/1568/256
f 503/1569/255 504/1570/255 508/1571/255 507/1572/255
f 504/1573/254 501/1574/254 505/1575/254 508/1576/254
f 505/1577/257 506/1578/257 510/1579/257 509/1580/257
f 506/1581/260 507/1582/260 511/1583/260 510/1584/260
f 507/1585/259 508/1586/259 512/1587/259 511/1588/259
f 508/1589/258 505/1590/258 509/1591/258 512/1592/258
f 509/1593/261 510/1594/261 514/1595/261 513/1596/261
f 510/1597/264 511/1598/264 515/1599/264 514/1600/264
f 511/1601/263 512/1602/263 516/1603/263 515/1604/263
f 512/1605/262 509/1606/262 513/1607/262 516/1608/262
f 517/1609/253 518/1610/253 522/1611/253 521/1612/253
f 518/1613/256 519/1614/256 523/1615/256 522/1616/256
f 519/1617/255 520/1618/255 524/1619/255 523/1620/255
f 520/1621/254 517/1622/254 521/1623/254 524/1624/254
f 521/1625/257 522/1626/257 526/1627/257 525/1628/257
f 522/1629/260 523/1630/260 527/1631/260 526/1632/260
f 523/1633/259 524/1634/259 528/1635/259 527/1636/259
f 524/1637/258 521/1638/258 525/1639/258 528/1640/258
f 525/1641/261 526/1642/261 530/1643/261 529/1644/261
f 526/1645/264 527/1646/264 531/1647/264 530/1648/264
f 527/1649/263 528/1650/263 532/1651/263 531/1652/263
f 528/1653/262 525/1654/262 529/1655/262 532/1656/262
f 533/1657/253 534/1658/253 538/1659/253 537/1660/253
f 534/1661/256 535/1662/256 539/1663/256 538/1664/256
f 535/1665/255 536/1666/255 540/1667/255 539/1668/255
f 536/1669/254 533/1670/254 537/1671/254 540/1672/254
f 537/1673/257 538/1674/257 542/1675/257 541/1676/257
f 538/1677/260 539/1678/260 543/1679/260 542/1680/260
f 539/1681/259 540/1682/259 544/1683/259 543/1684/259
f 540/1685/258 537/1686/258 541/1687/258 544/1688/258
f 541/1689/261 542/1690/261 546/1691/261 545/1692/261
f 542/1693/264 543/1694/264 547/1695/264 546/1696/264
f 543/1697/263 544/1698/263 548/1699/263 547/1700/263
f 544/1701/262 541/1702/262 545/1703/262 548/1704/262
f 554/1705/265 551/1706/265 550/1707/265
f 555/1708/265 554/1709/265 550/1710/265
f 558/1711/265 555/1712/265 550/1713/265
f 559/1714/265 558/1715/265 550/1716/265
f 562/1717/265 559/1718/265 550/1719/265
f 563/1720/265 562/1721/265 550/1722/265
f 563/1723/265 550/1724/265 549/1725/265
f 564/1726/265 563/1727/265 549/1728/265
f 564/1729/265 549/1730/265 552/1731/265
f 561/1732/265 564/1733/265 552/1734/265
f 559/1735/265 562/1736/265 561/1737/265
f 560/1738/265 559/1739/265 561/1740/265
f 560/1741/265 561/1742/265 552/1743/265
f 557/1744/265 560/1745/265 552/1746/265
f 555/1747/265 558/1748/265 557/1749/265
f 556/1750/265 555/1751/265 557/1752/265
f 556/1753/265 557/1754/265 552/1755/265
f 553/1756/265 556/1757/265 552/1758/265
f 554/1759/265 553/1760/265 552/1761/265
f 552/1762/265 551/1763/265 554/1764/265
f 566/1765/266 567/1766/266 570/1767/266
f 566/1768/266 570/1769/266 571/1770/266
f 566/1771/266 571/1772/266 574/1773/266
f 566/1774/266 574/1775/266 575/1776/266
f 566/1777/266 575/1778/266 578/1779/266
f 566/1780/266 578/1781/266 579/1782/266
f 565/1783/266 566/1784/266 579/1785/266
f 565/1786/266 579/1787/266 580/1788/266
f 568/1789/266 565/1790/266 580/1791/266
f 568/1792/266 580/1793/266 577/1794/266
f 577/1795/266 578/1796/266 575/1797/266
f 577/1798/266 575/1799/266 576/1800/266
f 568/1801/266 577/1802/266 576/1803/266
f 568/1804/266 576/1805/266 573/1806/266
f 573/1807/266 574/1808/266 571/1809/266
f 573/1810/266 571/1811/266 572/1812/266
f 568/1813/266 573/1814/266 572/1815/266
f 568/1816/266 572/1817/266 569/1818/266
f 568/1819/266 569/1820/266 570/1821/266
f 570/1822/266 567/1823/266 568/1824/266
o row_0
usemtl sign_face
v -0.7995 1.9605 0.306
v 2.7995 1.9605 0.306
v 2.7995 2.5995 0.306
v -0.7995 2.5995 0.306
v -0.7995 1.9605 0.694
v 2.7995 1.9605 0.694
v 2.7995 2.5995 0.694
v -0.7995 2.5995 0.694
v -0.7995 1.9605 0.306
v 2.7995 1.9605 0.306
v 2.7995 2.5995 0.306
v -0.7995 2.5995 0.306
v -0.7995 1.9605 0.694
v 2.7995 1.9605 0.694
v 2.7995 2.5995 0.694
v -0.7995 2.5995 0.694
vt 0.001221 0.467959
vt 0.422979 0.467959
vt 0.422979 0.513428
vt 0.001221 0.513428
vt 0.510498 0.373232
vt 0.585381 0.373232
vt 0.585381 0.418701
vt 0.510498 0.418701
vt 0.424561 0.467959
vt 0.846318 0.467959
vt 0.846318 0.513428
vt 0.424561 0.513428
vt 0.587158 0.373232
vt 0.662041 0.373232
vt 0.662041 0.418701
vt 0.587158 0.418701
vt 0.001221 0.609932
vt 0.422979 0.609932
vt 0.422979 0.684814
vt 0.422979 0.684814
vt 0.001221 0.684814
vt 0.001221 0.609932
vt 0.424561 0.684814
vt 0.424561 0.609932
vt 0.846318 0.609932
vt 0.846318 0.609932
vt 0.846318 0.684814
vt 0.424561 0.684814
vn 0 -1 0
vn 1 0 0
vn 0 1 0
vn -1 0 0
vn 0 0 -1
vn 0 0 1
f 581/1825/267 582/1826/267 586/1827/267 585/1828/267
f 582/1829/268 583/1830/268 587/1831/268 586/1832/268
f 583/1833/269 584/1834/269 588/1835/269 587/1836/269
f 584/1837/270 581/1838/270 585/1839/270 588/1840/270
f 590/1841/271 589/1842/271 592/1843/271
f 592/1844/271 591/1845/271 590/1846/271
f 596/1847/272 593/1848/272 594/1849/272
f 594/1850/272 595/1851/272 596/1852/272
o row_1
usemtl sign_face
v -0.7995 1.1605 0.306
v 2.7995 1.1605 0.306
v 2.7995 1.7995 0.306
v -0.7995 1.7995 0.306
v -0.7995 1.1605 0.694
v 2.7995 1.1605 0.694
v 2.7995 1.7995 0.694
v -0.7995 1.7995 0.694
v -0.7995 1.1605 0.306
v 2.7995 1.1605 0.306
v 2.7995 1.7995 0.306
v -0.7995 1.7995 0.306
v -0.7995 1.1605 0.694
v 2.7995 1.1605 0.694
v 2.7995 1.7995 0.694
v -0.7995 1.7995 0.694
vt 0.001221 0.420596
vt 0.422979 0.420596
vt 0.422979 0.466064
vt 0.001221 0.466064
vt 0.357178 0.373232
vt 0.432061 0.373232
vt 0.432061 0.418701
vt 0.357178 0.418701
vt 0.424561 0.420596
vt 0.846318 0.420596
vt 0.846318 0.466064
vt 0.424561 0.466064
vt 0.433838 0.373232
vt 0.508721 0.373232
vt 0.508721 0.418701
vt 0.433838 0.418701
vt 0.001221 0.686592
vt 0.422979 0.686592
vt 0.422979 0.761475
vt 0.422979 0.761475
vt 0.001221 0.761475
vt 0.001221 0.686592
vt 0.424561 0.761475
vt 0.424561 0.686592
vt 0.846318 0.686592
vt 0.846318 0.686592
vt 0.846318 0.761475
vt 0.424561 0.761475
vn 0 -1 0
vn 1 0 0
vn 0 1 0
vn -1 0 0
vn 0 0 -1
vn 0 0 1
f 597/1853/273 598/1854/273 602/1855/273 601/1856/273
f 598/1857/274 599/1858/274 603/1859/274 602/1860/274
f 599/1861/275 600/1862/275 604/1863/275 603/1864/275
f 600/1865/276 597/1866/276 601/1867/276 604/1868/276
f 606/1869/277 605/1870/277 608/1871/277
f 608/1872/277 607/1873/277 606/1874/277
f 612/1875/278 609/1876/278 610/1877/278
f 610/1878/278 611/1879/278 612/1880/278
