# AFL PRAIRIE signage V1 price sign light box (lit), generated by tools/build-prairie-signage-v1.mjs
mtllib brand_lit.mtl
o brand_lit
usemtl sign_face_glow
v -0.7995 2.7005 0.306
v 2.7995 2.7005 0.306
v 2.7995 3.6995 0.306
v -0.7995 3.6995 0.306
v -0.7995 2.7005 0.694
v 2.7995 2.7005 0.694
v 2.7995 3.6995 0.694
v -0.7995 3.6995 0.694
v -0.7995 2.7005 0.306
v 2.7995 2.7005 0.306
v 2.7995 3.6995 0.306
v -0.7995 3.6995 0.306
v -0.7995 2.7005 0.694
v 2.7995 2.7005 0.694
v 2.7995 3.6995 0.694
v -0.7995 3.6995 0.694
vt 0.001221 0.515322
vt 0.422979 0.515322
vt 0.422979 0.560791
vt 0.001221 0.560791
vt 0.119873 0.373232
vt 0.236943 0.373232
vt 0.236943 0.418701
vt 0.119873 0.418701
vt 0.424561 0.515322
vt 0.846318 0.515322
vt 0.846318 0.560791
vt 0.424561 0.560791
vt 0.238525 0.373232
vt 0.355596 0.373232
vt 0.355596 0.418701
vt 0.238525 0.418701
vt 0.001221 0.763057
vt 0.422979 0.763057
vt 0.422979 0.880127
vt 0.422979 0.880127
vt 0.001221 0.880127
vt 0.001221 0.763057
vt 0.424561 0.880127
vt 0.424561 0.763057
vt 0.846318 0.763057
vt 0.846318 0.763057
vt 0.846318 0.880127
vt 0.424561 0.880127
vn 0 -1 0
vn 1 0 0
vn 0 1 0
vn -1 0 0
vn 0 0 -1
vn 0 0 1
f 1/1/1 2/2/1 6/3/1 5/4/1
f 2/5/2 3/6/2 7/7/2 6/8/2
f 3/9/3 4/10/3 8/11/3 7/12/3
f 4/13/4 1/14/4 5/15/4 8/16/4
f 10/17/5 9/18/5 12/19/5
f 12/20/5 11/21/5 10/22/5
f 16/23/6 13/24/6 14/25/6
f 14/26/6 15/27/6 16/28/6
